<?xml version="1.0" encoding="UTF-8"?>
<!-- Created with Inkscape (http://www.inkscape.org/) -->
<svg version="1.1" viewBox="0 0 257.49 276.81" xmlns="http://www.w3.org/2000/svg">
 <defs>
  <clipPath id="clipPath10341">
   <path d="m22.455 622.51h756.85v118.95h-756.85z"/>
  </clipPath>
  <clipPath id="clipPath10326">
   <path d="m22.455 622.51h756.85v118.95h-756.85z"/>
  </clipPath>
  <clipPath id="clipPath10311">
   <path d="m22.455 622.51h756.85v118.95h-756.85z"/>
  </clipPath>
  <clipPath id="clipPath10296">
   <path d="m22.455 622.51h756.85v118.95h-756.85z"/>
  </clipPath>
  <clipPath id="clipPath10281">
   <path d="m22.455 622.51h756.85v118.95h-756.85z"/>
  </clipPath>
  <clipPath id="clipPath10266">
   <path d="m22.455 622.51h756.85v118.95h-756.85z"/>
  </clipPath>
  <clipPath id="clipPath10251">
   <path d="m22.455 622.51h756.85v118.95h-756.85z"/>
  </clipPath>
  <clipPath id="clipPath10236">
   <path d="m22.455 622.51h756.85v118.95h-756.85z"/>
  </clipPath>
  <clipPath id="clipPath10221">
   <path d="m22.455 622.51h756.85v118.95h-756.85z"/>
  </clipPath>
  <clipPath id="clipPath10206">
   <path d="m22.455 622.51h756.85v118.95h-756.85z"/>
  </clipPath>
  <clipPath id="clipPath10191">
   <path d="m22.455 622.51h756.85v118.95h-756.85z"/>
  </clipPath>
  <clipPath id="clipPath10176">
   <path d="m22.455 622.51h756.85v118.95h-756.85z"/>
  </clipPath>
  <clipPath id="clipPath10161">
   <path d="m22.455 622.51h756.85v118.95h-756.85z"/>
  </clipPath>
  <clipPath id="clipPath10146">
   <path d="m22.455 622.51h756.85v118.95h-756.85z"/>
  </clipPath>
  <clipPath id="clipPath10131">
   <path d="m22.455 622.51h756.85v118.95h-756.85z"/>
  </clipPath>
  <clipPath id="clipPath10116">
   <path d="m22.455 622.51h756.85v118.95h-756.85z"/>
  </clipPath>
  <clipPath id="clipPath10101">
   <path d="m22.455 622.51h756.85v118.95h-756.85z"/>
  </clipPath>
  <clipPath id="clipPath10086">
   <path d="m22.455 622.51h756.85v118.95h-756.85z"/>
  </clipPath>
  <clipPath id="clipPath10071">
   <path d="m22.455 622.51h756.85v118.95h-756.85z"/>
  </clipPath>
  <clipPath id="clipPath10056">
   <path d="m22.455 622.51h756.85v118.95h-756.85z"/>
  </clipPath>
  <clipPath id="clipPath10041">
   <path d="m22.455 622.51h756.85v118.95h-756.85z"/>
  </clipPath>
  <clipPath id="clipPath10026">
   <path d="m22.455 622.51h756.85v118.95h-756.85z"/>
  </clipPath>
  <clipPath id="clipPath10011">
   <path d="m22.455 622.51h756.85v118.95h-756.85z"/>
  </clipPath>
  <clipPath id="clipPath9996">
   <path d="m22.455 622.51h756.85v118.95h-756.85z"/>
  </clipPath>
  <clipPath id="clipPath9981">
   <path d="m22.455 622.51h756.85v118.95h-756.85z"/>
  </clipPath>
  <clipPath id="clipPath9966">
   <path d="m22.455 622.51h756.85v118.95h-756.85z"/>
  </clipPath>
  <clipPath id="clipPath9951">
   <path d="m22.455 622.51h756.85v118.95h-756.85z"/>
  </clipPath>
  <clipPath id="clipPath9936">
   <path d="m22.455 622.51h756.85v118.95h-756.85z"/>
  </clipPath>
  <clipPath id="clipPath9921">
   <path d="m22.455 622.51h756.85v118.95h-756.85z"/>
  </clipPath>
  <clipPath id="clipPath9906">
   <path d="m22.455 622.51h756.85v118.95h-756.85z"/>
  </clipPath>
  <clipPath id="clipPath9891">
   <path d="m22.455 622.51h756.85v118.95h-756.85z"/>
  </clipPath>
  <clipPath id="clipPath9876">
   <path d="m22.455 622.51h756.85v118.95h-756.85z"/>
  </clipPath>
  <clipPath id="clipPath9861">
   <path d="m22.455 622.51h756.85v118.95h-756.85z"/>
  </clipPath>
  <clipPath id="clipPath9846">
   <path d="m22.455 622.51h756.85v118.95h-756.85z"/>
  </clipPath>
  <clipPath id="clipPath9831">
   <path d="m22.455 622.51h756.85v118.95h-756.85z"/>
  </clipPath>
  <clipPath id="clipPath9816">
   <path d="m22.455 622.51h756.85v118.95h-756.85z"/>
  </clipPath>
  <clipPath id="clipPath9801">
   <path d="m22.455 622.51h756.85v118.95h-756.85z"/>
  </clipPath>
  <clipPath id="clipPath9786">
   <path d="m22.455 622.51h756.85v118.95h-756.85z"/>
  </clipPath>
  <clipPath id="clipPath9771">
   <path d="m22.455 622.51h756.85v118.95h-756.85z"/>
  </clipPath>
  <clipPath id="clipPath9756">
   <path d="m22.455 622.51h756.85v118.95h-756.85z"/>
  </clipPath>
 </defs>
 <g transform="translate(9.6043 -15.128)">
  <path transform="matrix(7.7921 0 0 -7.7921 -2236.4 5284.1)" d="m291.74 650.34c-0.26 2.9-3.145 4.176-4.284 3.516-1.054-0.61-0.76-2.596 0.279-3.961 0.881-1.159 2.581-2.277 3.723-1.751 0.258 0.119 0.485 0.378 0.564 0.609 0.712-1.558 2.289-2.567 4.213-2.76l1.276-0.029c2.003 0.237 3.521 1.376 4.302 3.293 1.009 2.478 0.534 5.207 1.053 8.664l-4.816 5e-3c-0.505-1.682-3.551-2.325-5.331-4.283-0.774-0.851-1.117-1.948-1.098-2.898" clip-path="url(#clipPath10206)" fill="#886e6b"/>
  <path transform="matrix(7.7921 0 0 -7.7921 -2236.4 5284.1)" d="m293.28 651.73c-0.36-0.72-0.523-1.484 0.134-1.743 0.734-0.289 1.268 0.311 1.631 1.068 1.528-0.663 2.181-0.467 2.396 0.037 0.191 0.447-0.089 0.979-1.624 1.484l0.445 0.63c1.491-0.386 1.98-0.325 2.158 0.157 0.158 0.427-0.168 0.917-1.327 1.149l0.459 0.578c1.187-0.232 1.499-0.048 1.603 0.266 0.136 0.412-0.267 0.669-0.835 0.78 0.304 0.349 0.212 0.719-0.07 0.801-0.336 0.097-0.69-0.133-1.031-0.527-0.182 0.03-0.313 0.049-0.428 0.064-0.384-0.265-0.823-0.521-1.282-0.788 0.183-0.062 0.419-0.117 0.567-0.172l-0.52-0.587c-0.352 0.116-0.661 0.195-0.933 0.231-0.424-0.264-0.845-0.551-1.236-0.876 0.188-0.244 0.638-0.437 1.102-0.557l-0.475-0.652c-0.503 0.194-1.093 0.337-1.538 0.28-0.224-0.297-0.399-0.616-0.533-0.943 0.258-0.315 0.849-0.537 1.337-0.68" clip-path="url(#clipPath10236)" fill="#483737"/>
  <path transform="matrix(7.7921 0 0 -7.7921 -2236.4 5284.1)" d="m290.57 666.41 0.574 2.053c-0.574 0.505-1.337 1.178-1.425 1.345-0.304 0.582-0.634 1.266-1.032 1.765-0.478 0.597-0.789 0.499-0.906-0.109-0.109-0.564-0.01-1.306 0.089-1.761-0.614-0.17-1.058-0.203-1.464-0.381-0.64-0.281-0.601-0.599-0.069-0.964 0.564-0.385 1.74-0.456 2.07-0.503 0.264-0.038 1.708-1.059 2.163-1.445" clip-path="url(#clipPath10221)" fill="#d1c3e0"/>
  <path transform="matrix(7.7921 0 0 -7.7921 -2236.4 5284.1)" d="m290.72 663.99c-0.218-0.208-1.488-1.35-1.711-1.404-0.564-0.138-1.325-0.228-1.908-0.579-0.716-0.431-0.643-0.731-0.104-1.024 0.42-0.227 1.229-0.301 1.602-0.351-0.041-0.537-0.06-1.251 0.16-1.792 0.232-0.568 0.548-0.572 0.88-0.086 0.307 0.45 0.448 0.934 0.715 1.715 0.052 0.151 0.603 0.791 1.306 1.523z" clip-path="url(#clipPath10251)" fill="#d1c3e0"/>
  <path transform="matrix(7.7921 0 0 -7.7921 -2236.4 5284.1)" d="m311.3 668.11c-0.511 3.452-5.016 7.81-12.719 6.29-5.515-1.089-8.8-5.649-8.149-9.89 0.619-4.033 4.038-6.467 7.991-6.82l4.292 0.036c4.115 0.573 9.574 3.698 8.585 10.384" clip-path="url(#clipPath10266)" fill="#886e6b"/>
  <path transform="matrix(7.7921 0 0 -7.7921 -2236.4 5284.1)" d="m311.41 666.74-2.122 1.693c-0.353-0.37-0.491-0.37-0.5-0.86-0.011-0.605 0.217-1.115 0.567-1.338 0.624-0.397 1.294-0.835 1.918-1.254 0.1 0.552 0.148 1.138 0.137 1.759" clip-path="url(#clipPath10281)" fill="#765f5c"/>
  <path transform="matrix(7.7921 0 0 -7.7921 -2236.4 5284.1)" d="m298.26 646.26-2.615-0.049c-0.598-0.281-1.251-1.297-1.479-2.058-0.45-1.492-0.475-2.876 0.593-3.23 1.938-0.643 4.5 3.26 3.501 5.337" clip-path="url(#clipPath10296)" fill="#886e6b"/>
  <path transform="matrix(7.7921 0 0 -7.7921 -2236.4 5284.1)" d="m315.53 651.92c-0.272 1.67-2.001 2.837-4.45 2.888-2.102 0.044-3.979-0.855-5.1-2.374-1.547-2.096-3.01-3.362-4.632-3.521l-1.147-1.388c2.195-1.088 5.479-1.238 8.248-1.08 4.415 0.252 7.556 2.561 7.081 5.475" clip-path="url(#clipPath10311)" fill="#886e6b"/>
  <path transform="matrix(7.7921 0 0 -7.7921 -2236.4 5284.1)" d="m309.35 669.09c1.131 1.183 2.977 3.125 3.694 4.304 0.128 0.21 0.495 1.514 0.856 2.121 0.391 0.658 0.666 0.626 0.95 0.075 0.314-0.61 0.295-1.614 0.341-1.969 0.496-0.014 1.371-0.035 1.833-0.125 0.687-0.132 0.702-0.464 0.243-0.907-0.522-0.505-1.927-0.888-2.332-1.069-0.464-0.207-3.709-3.232-3.669-3.372 0.052-0.178 4.217-2.121 4.431-2.116 0.554 0.01 1.596-0.012 2.275-0.242 0.702-0.237 0.742-0.665 0.316-1.024-0.564-0.477-1.315-0.558-1.741-0.687 0.159-0.447 0.332-1.267 0.232-1.905-0.121-0.775-0.54-0.68-0.884-0.399-0.465 0.38-1.287 1.501-1.662 2.021-0.197 0.275-2.932 1.897-4.816 3.096-0.35 0.223-0.49 0.45-0.479 1.056 9e-3 0.49 0.059 0.772 0.412 1.142" clip-path="url(#clipPath10326)" fill="#d1c3e0"/>
  <path transform="matrix(7.7921 0 0 -7.7921 -2236.4 5284.1)" d="m290.39 669.13c-5e-3 -0.724-0.258-1.436-0.975-1.869 0.373-0.255 0.759-0.538 1.011-0.737 0.09 0.703 0.282 1.399 0.565 2.07-0.198 0.175-0.408 0.361-0.601 0.536" clip-path="url(#clipPath10341)" fill="#b6a9c2"/>
  <path transform="matrix(7.7921 0 0 -7.7921 -2236.4 5284.1)" d="m289.88 663.24c0.51-0.385 0.823-0.965 0.508-2.711 0.115 0.192 0.524 0.668 1.052 1.23-0.378 0.635-0.668 1.338-0.853 2.106-0.166-0.152-0.435-0.393-0.707-0.625" clip-path="url(#clipPath9801)" fill="#b6a9c2"/>
  <path transform="matrix(7.7921 0 0 -7.7921 -2236.4 5284.1)" d="m300.24 658.55c-2.982-0.227-5.362 0.197-7.325 1.421 1.461-1.299 3.417-2.079 5.525-2.268l4.292 0.036c3.571 0.498 8.151 2.919 8.654 7.919-0.24 0.149-0.484 0.3-0.726 0.45-0.808-4.01-4.428-7.102-10.42-7.558" clip-path="url(#clipPath9816)" fill="#765f5c"/>
  <path transform="matrix(7.7921 0 0 -7.7921 -2236.4 5284.1)" d="m302.7 656.55c0.04 0.444 0.091 0.9 0.162 1.369l-4.817 5e-3c-0.172-0.574-0.64-1.026-1.254-1.452 1.409-0.588 4.185-0.622 5.909 0.078" clip-path="url(#clipPath9831)" fill="#765f5c"/>
  <path transform="matrix(7.7921 0 0 -7.7921 -2236.4 5284.1)" d="m298.25 656.94c-0.336 0.097-0.69-0.134-1.031-0.527-0.176 0.029-0.304 0.048-0.417 0.063 0.461-0.191 1.067-0.322 1.734-0.389-0.069 0.02-0.141 0.037-0.216 0.052 0.305 0.349 0.212 0.719-0.07 0.801" clip-path="url(#clipPath9846)" fill="#342525"/>
  <g fill="#765f5c">
   <path transform="matrix(7.7921 0 0 -7.7921 -2236.4 5284.1)" d="m294.17 648.5c-1.534 0.644-2.244 1.601-2.509 2.879-0.035-0.084-0.069-0.158-0.082-0.202 0.12-2.132-1.724-2.904-3.65-1.525 0.92-1.065 2.464-1.998 3.526-1.508 0.258 0.119 0.485 0.378 0.564 0.608 0.712-1.557 2.289-2.566 4.213-2.759l1.276-0.03c2.003 0.238 3.521 1.376 4.302 3.294 0.317 0.779 0.488 1.584 0.589 2.428-1.422-3.137-5.008-4.537-8.229-3.185" clip-path="url(#clipPath9861)"/>
   <path transform="matrix(7.7921 0 0 -7.7921 -2236.4 5284.1)" d="m298.26 646.26-2.615-0.049c-0.492-0.231-1.019-0.958-1.319-1.631 0.846 0.327 1.678 0.299 2.302-0.169 0.625-0.469 0.819-1.379 0.662-2.279 0.959 1.19 1.536 2.951 0.97 4.128" clip-path="url(#clipPath9876)"/>
   <path transform="matrix(7.7921 0 0 -7.7921 -2236.4 5284.1)" d="m315.53 651.92c-0.047 0.289-0.14 0.561-0.271 0.816-1.191-5.993-12.118-5.578-14.45-4.474l-0.608-0.737c2.195-1.088 5.479-1.238 8.248-1.08 4.415 0.252 7.556 2.561 7.081 5.475" clip-path="url(#clipPath9786)"/>
  </g>
  <path transform="matrix(7.7921 0 0 -7.7921 -2236.4 5284.1)" d="m313.06 667.19c-0.938 0.449-1.771 0.876-1.793 0.955-0.022 0.076 0.92 0.998 1.862 1.86-1.71-0.273-1.728 0.284-1.626 1.406-0.734-0.836-1.546-1.69-2.153-2.324-0.353-0.37-0.402-0.653-0.411-1.143-0.011-0.605 0.128-0.833 0.478-1.055 1.1-0.7 2.489-1.544 3.495-2.18-0.758 1.133-0.551 2.158 0.148 2.481" clip-path="url(#clipPath9756)" fill="#b6a9c2"/>
  <path transform="matrix(7.7921 0 0 -7.7921 -2236.4 5284.1)" d="m292.72 668.84c0.689-0.753 2.506-0.981 4.708 0.291 2.005 1.159 3.124 3.091 2.25 4.426-0.285 0.435-0.746 0.676-1.365 0.783-2.45-0.541-4.443-1.771-5.821-3.348-0.281-0.818-0.256-1.623 0.228-2.152" clip-path="url(#clipPath9771)" fill="#9d8680"/>
  <path transform="matrix(7.7921 0 0 -7.7921 -2236.4 5284.1)" d="m293.32 670.99c-0.274-0.235-0.32-0.512-0.18-0.668 0.155-0.174 0.45-0.142 0.671 0.052 0.219 0.193 0.388 0.551 0.237 0.724-0.149 0.171-0.494 0.092-0.728-0.108" clip-path="url(#clipPath9891)" fill="#bdaca7"/>
  <g fill="#0f141b">
   <path transform="matrix(7.7921 0 0 -7.7921 -2236.4 5284.1)" d="m288.6 658.75c-0.221 0.543-0.231 1.219-0.195 1.728-0.257 0.032-0.834 0.087-1.389 0.309-0.696 0.28-0.941 0.837-0.034 1.36 0.695 0.401 1.873 0.563 2.035 0.642 0.16 0.077 1.109 0.901 1.517 1.275 0.021-0.017 0.099-0.353 0.094-0.395-0.394-0.359-1.233-1.077-1.487-1.215-0.153-0.084-1.347-0.217-1.991-0.623-0.523-0.329-0.521-0.466-0.016-0.718 0.358-0.178 0.989-0.239 1.523-0.312 0.12-0.017 0.126-0.037 0.116-0.179-0.038-0.501-0.077-1.162 0.143-1.702 0.166-0.408 0.283-0.457 0.575-0.059 0.339 0.461 0.646 1.551 0.711 1.713 0.057 0.145 0.598 0.786 1.137 1.345 0.052-0.046 0.183-0.249 0.226-0.354-0.622-0.66-0.935-1.052-1.011-1.19-0.084-0.153-0.308-0.998-0.771-1.719-0.336-0.524-0.872-0.671-1.183 0.094" clip-path="url(#clipPath9906)"/>
   <path transform="matrix(7.7921 0 0 -7.7921 -2236.4 5284.1)" d="m309.52 668.96c-0.346-0.368-0.371-0.635-0.361-0.987 0.014-0.545 0.075-0.734 0.383-0.93 0.598-0.38 4.687-2.936 4.828-3.132 0.769-1.067 1.231-1.674 1.601-1.964 0.382-0.298 0.527-0.225 0.599 0.235 0.092 0.589-0.01 1.345-0.184 1.837-0.048 0.135-0.02 0.187 0.073 0.209 0.878 0.205 1.346 0.405 1.654 0.643 0.351 0.272 0.368 0.541-0.101 0.71-1.088 0.391-2.239 0.244-2.425 0.291-0.251 0.065-3.759 1.686-4.448 2.121-0.07 0.044-0.091 0.136-0.033 0.215 0.309 0.421 1.533 1.641 3.63 3.392 0.21 0.175 1.821 0.633 2.378 1.122 0.354 0.312 0.303 0.497-0.149 0.585-0.444 0.086-1.699 0.084-1.809 0.093-0.168 0.014-0.163 0.012-0.176 0.185-0.044 0.617-0.043 1.362-0.277 1.905-0.203 0.47-0.379 0.408-0.642-0.069-0.376-0.683-0.727-1.919-0.865-2.137-0.765-1.205-2.21-2.766-3.676-4.324m6.2-7.369c-0.297 0.25-0.779 0.846-1.604 2.064-0.123 0.182-2.488 1.687-4.79 3.062-0.422 0.252-0.551 0.626-0.561 1.218-9e-3 0.551-0.017 0.724 0.522 1.335 0.335 0.381 2.87 2.959 3.591 4.178 0.154 0.261 0.51 1.563 0.9 2.23 0.404 0.692 0.89 0.683 1.241-0.023 0.223-0.448 0.311-1.276 0.341-1.867 0.502-0.014 1.336-0.054 1.789-0.141 0.716-0.139 0.851-0.684 0.218-1.222-0.705-0.598-2.173-0.897-2.463-1.14-0.381-0.318-2.045-1.665-3.393-3.107 0.225-0.214 3.927-1.96 4.201-1.974 0.445 8e-3 1.662 0 2.421-0.287 0.862-0.326 0.855-0.806 0.279-1.292-0.368-0.311-0.878-0.497-1.632-0.676 0.184-0.465 0.303-1.254 0.211-1.84-0.15-0.961-0.706-0.992-1.271-0.518" clip-path="url(#clipPath9921)"/>
   <path transform="matrix(7.7921 0 0 -7.7921 -2236.4 5284.1)" d="m310.37 670.14c-2.016 3.546-6.627 5.141-11.699 4.14-4.971-0.981-8.816-4.985-8.08-9.777 0.474-3.086 3.062-6.072 7.51-6.594 0.771-0.091 0.714-0.369 0.092-0.324-3.961 0.29-7.37 2.918-7.976 6.863-0.722 4.701 2.772 9.107 8.403 10.219 5.374 1.061 9.901-0.679 12.031-4.208z" clip-path="url(#clipPath9936)"/>
   <path transform="matrix(7.7921 0 0 -7.7921 -2236.4 5284.1)" d="m311.15 665.81c-0.292-4.382-3.981-7.13-8.256-7.874-0.948-0.165-0.716-0.418 0.063-0.308 4.46 0.636 8.117 3.443 8.613 7.915z" clip-path="url(#clipPath9951)"/>
   <path transform="matrix(7.7921 0 0 -7.7921 -2236.4 5284.1)" d="m291.49 651.46c0.122 0.881 0.505 1.627 1.106 2.32 1.524 1.758 4.647 2.426 5.242 4.004 0.011 0.028 0.329-0.02 0.32-0.048-0.52-1.61-3.712-2.377-5.299-4.161-0.639-0.718-1.021-1.706-1.06-2.654-4e-3 -0.079-0.329 0.392-0.309 0.539" clip-path="url(#clipPath9966)"/>
   <path transform="matrix(7.7921 0 0 -7.7921 -2236.4 5284.1)" d="m297.75 646.1c1.796 0.281 3.251 1.603 3.888 3.204 0.942 2.37 0.643 6.398 1.03 8.503 5e-3 0.029 0.338 9e-3 0.333-0.02-0.406-2.41 0.034-6.255-0.951-8.629-0.72-1.733-2.227-3.066-4.241-3.294-0.554-0.062-0.629 0.147-0.059 0.236" clip-path="url(#clipPath9981)"/>
   <path transform="matrix(7.7921 0 0 -7.7921 -2236.4 5284.1)" d="m296.08 645.91c-1.689 0.097-3.333 1.054-4.073 2.467-0.8-1.069-2.956-0.513-4.413 1.402-1.272 1.671-1.388 3.567-0.242 4.229 0.595 0.344 1.479 0.221 2.275-0.191 1.258-0.653 2.116-1.917 2.238-3.272 0.06-0.679-0.141-0.865-0.259-0.042-0.181 1.265-0.958 2.342-2.181 2.976-0.682 0.353-1.462 0.476-1.975 0.09-0.778-0.585-0.619-2.12 0.449-3.55 1.497-2.006 3.564-2.28 4.036-1.224 0.115 0.255 0.103 0.282 0.228 9e-3 0.694-1.517 2.093-2.369 3.944-2.68 0.555-0.093 0.407-0.239-0.027-0.214" clip-path="url(#clipPath9996)"/>
   <path transform="matrix(7.7921 0 0 -7.7921 -2236.4 5284.1)" d="m294.71 640.75c-1.037 0.344-1.317 1.666-0.707 3.456 0.3 0.879 0.796 1.599 1.259 1.962 0.058 0.045 0.448-0.095 0.421-0.108-0.586-0.275-1.066-1.158-1.341-1.968-0.484-1.423-0.403-2.627 0.52-2.933 0.693-0.23 1.454 0.156 2.165 0.965 0.849 0.965 1.659 2.7 1.161 3.951-0.017 0.044 0.293 0.141 0.312 0.091 0.503-1.289-0.191-3.166-1.162-4.27-0.849-0.965-1.768-1.43-2.628-1.146" clip-path="url(#clipPath10011)"/>
   <path transform="matrix(7.7921 0 0 -7.7921 -2236.4 5284.1)" d="m300.42 647.23c-0.118 0.051 0.256 0.395 0.384 0.341 2.175-0.928 5.201-1.049 7.638-0.91 4.035 0.231 7.259 2.474 6.808 5.235-0.243 1.491-1.745 2.686-4.152 2.736-1.895 0.04-3.629-0.518-4.934-2.299-1.602-2.186-2.952-3.356-4.541-3.603-0.099-0.015 0.03 0.406 0.15 0.435 1.351 0.33 2.513 1.271 4.054 3.36 1.361 1.845 3.269 2.509 5.271 2.464 2.614-0.055 4.313-1.204 4.614-3.052 0.493-3.021-2.745-5.41-7.256-5.668-2.479-0.141-5.664-0.064-8.036 0.961" clip-path="url(#clipPath10026)"/>
   <path transform="matrix(7.7921 0 0 -7.7921 -2236.4 5284.1)" d="m295.52 654.75c0.086-0.027 0.091-0.023 0.147 0.04l0.576 0.693c0.085 0.096 0.085 0.118-3e-3 0.152-0.075 0.029-0.381 0.125-0.526 0.168-0.119-0.069-0.24-0.14-0.362-0.211l4e-3 -8e-3c0.168-0.052 0.407-0.129 0.446-0.14l-0.301-0.332c-0.246 0.08-0.47 0.134-0.677 0.167-0.142-0.086-0.284-0.175-0.426-0.266 0.294-0.024 0.66-0.111 1.122-0.263" clip-path="url(#clipPath10041)"/>
   <path transform="matrix(7.7921 0 0 -7.7921 -2236.4 5284.1)" d="m293.03 651.62c-0.463-0.988-0.202-1.587 0.307-1.789 0.598-0.238 1.281-0.017 1.793 1.02 1.631-0.684 2.277-0.325 2.467 0.151 0.243 0.608-0.098 1.144-1.535 1.644l0.271 0.402c1.516-0.423 2.071-0.241 2.254 0.281 0.162 0.46-0.106 0.962-1.22 1.276l0.249 0.336c0.969-0.208 1.571-0.13 1.729 0.391 0.12 0.396-0.194 0.724-0.809 0.885 0.259 0.445 0.074 0.771-0.212 0.853-0.392 0.112-0.675-0.03-1.163-0.547-0.056 9e-3 -0.169 0.027-0.249 0.039-0.088-0.063-0.179-0.126-0.273-0.189 0.152-0.017 0.29-0.033 0.568-0.078 0.064-0.012 0.071-7e-3 0.117 0.045 0.372 0.429 0.645 0.555 0.858 0.49 0.269-0.081 0.232-0.406-0.038-0.718-0.042-0.048-0.02-0.059 0.036-0.07 0.484-0.095 0.95-0.297 0.86-0.629-0.071-0.26-0.399-0.416-1.491-0.165-0.052 0.012-0.069 8e-3 -0.095-0.026l-0.554-0.714c-0.073-0.093-0.058-0.108 0.032-0.122 0.887-0.13 1.471-0.519 1.324-0.943-0.148-0.429-0.696-0.367-1.98-0.06-0.084 0.02-0.083 0.016-0.132-0.055l-0.493-0.761c-0.063-0.089-0.056-0.103 0.069-0.146 1.039-0.353 1.789-0.724 1.568-1.27-0.249-0.615-1.261-0.359-2.27 0.079-0.038 0.016-0.054 7e-3 -0.071-0.027-0.472-0.983-0.985-1.265-1.478-1.061-0.418 0.173-0.508 0.568-0.032 1.589 0.033 0.069 0.027 0.077-0.028 0.093-0.891 0.257-1.271 0.515-1.413 0.722-0.046-0.102-0.09-0.205-0.128-0.308 0.192-0.22 0.544-0.441 1.162-0.618" clip-path="url(#clipPath10056)"/>
   <path transform="matrix(7.7921 0 0 -7.7921 -2236.4 5284.1)" d="m293.99 652.88c0.05-0.019 0.07-6e-3 0.102 0.037l0.604 0.845c0.059 0.08 0.03 0.078-0.048 0.1-0.537 0.148-0.979 0.318-1.129 0.526-0.083-0.066-0.165-0.133-0.245-0.202 0.153-0.173 0.446-0.351 0.953-0.512l-0.257-0.383c-0.348 0.126-0.872 0.274-1.337 0.251-0.106-0.126-0.203-0.256-0.292-0.389 0.411 0.104 1.045-0.04 1.649-0.273" clip-path="url(#clipPath10071)"/>
   <path transform="matrix(7.7921 0 0 -7.7921 -2236.4 5284.1)" d="m290.41 666.32c-0.543 0.433-1.814 1.333-2.041 1.365-0.577 0.083-1.523 0.119-2.169 0.56-0.661 0.45-0.479 0.953 0.045 1.201 0.268 0.126 0.831 0.272 1.422 0.392-0.062 0.298-0.183 1.006-0.061 1.641 0.163 0.844 0.691 0.884 1.23 0.204 0.443-0.559 0.784-1.281 1.046-1.787 0.076-0.145 0.725-0.713 1.203-1.135-6e-3 -0.024-0.168-0.344-0.195-0.37-0.628 0.553-1.243 1.184-1.324 1.339-0.188 0.364-0.601 1.305-0.994 1.767-0.398 0.469-0.545 0.375-0.636-0.098-0.126-0.654 0.061-1.415 0.114-1.657 0.03-0.135 0.015-0.164-0.098-0.195-0.246-0.068-1.066-0.174-1.498-0.361-0.458-0.199-0.398-0.447-0.032-0.669 0.689-0.418 1.673-0.402 2.04-0.45 0.256-0.033 1.441-0.823 2.001-1.262 8e-3 -0.03-0.03-0.456-0.053-0.485" clip-path="url(#clipPath10086)"/>
  </g>
  <path transform="matrix(7.7921 0 0 -7.7921 -2236.4 5284.1)" d="m292.63 664.49c0.118 0.553 0.597 0.802 1.268 0.703 1.444-0.212 2.788-0.235 4.035-0.065 1.469 0.2 2.819 0.608 3.976 1.305 0.742 0.447 1.423 0.443 1.84-0.2 0.279-0.43 0.128-1.418-0.416-1.847-1.115-0.879-2.818-1.52-4.969-1.825-1.829-0.258-3.755-0.028-4.866 0.534-0.601 0.305-1.01 0.732-0.868 1.395" clip-path="url(#clipPath10101)" fill="#89260e"/>
  <path transform="matrix(7.7921 0 0 -7.7921 -2236.4 5284.1)" d="m303.75 666.24c-0.417 0.643-1.098 0.647-1.84 0.2-1.157-0.697-2.507-1.105-3.975-1.305-0.738-0.101-1.51-0.132-2.316-0.098-0.839-0.486-1.514-1.383-1.747-2.098 1.139-0.44 2.854-0.602 4.493-0.371 2.151 0.304 3.854 0.946 4.97 1.825 0.543 0.429 0.694 1.416 0.415 1.847" clip-path="url(#clipPath10116)" fill="#ed8599"/>
  <path transform="matrix(7.7921 0 0 -7.7921 -2236.4 5284.1)" d="m303.75 666.24c-0.417 0.643-1.098 0.647-1.84 0.2-1.157-0.697-2.507-1.105-3.975-1.305-0.738-0.101-1.51-0.132-2.316-0.098-0.767-0.444-1.395-1.232-1.676-1.909 1.751 1.857 5.561 2.303 8.549 0.71 0.309 0.172 0.592 0.357 0.843 0.555 0.543 0.429 0.694 1.416 0.415 1.847" clip-path="url(#clipPath10131)" fill="#ce7486"/>
  <g fill="#0f141b">
   <path transform="matrix(7.7921 0 0 -7.7921 -2236.4 5284.1)" d="m292.63 664.49h1e-3zm0.157-0.038c-0.095-0.521 0.17-0.904 0.731-1.188 2.72-1.376 7.781-0.274 9.498 1.079 0.669 0.527 0.886 1.364 0.559 1.828-0.379 0.54-0.893 0.548-1.701 0.057-1.993-1.209-5.187-1.596-8.049-1.154-0.637 0.098-0.96-0.191-1.038-0.622m0.737-1.528c-0.882 0.436-1.149 0.958-1.01 1.604 0.13 0.608 0.647 0.96 1.441 0.836 2.513-0.393 5.488-0.243 7.838 1.195 0.984 0.601 1.668 0.346 2.043-0.237 0.373-0.578 0.239-1.483-0.519-2.13-1.933-1.65-7.304-2.499-9.793-1.268" clip-path="url(#clipPath10146)"/>
   <path transform="matrix(7.7921 0 0 -7.7921 -2236.4 5284.1)" d="m293.7 662.99c0.262 0.796 1.043 1.703 1.79 2.018 0.028 0.012 0.366-7e-3 0.338-0.018-0.882-0.365-1.554-1.274-1.803-2.099-7e-3 -0.024-0.334 0.071-0.325 0.099" clip-path="url(#clipPath10161)"/>
   <path transform="matrix(7.7921 0 0 -7.7921 -2236.4 5284.1)" d="m292.11 666.31c-1e-3 -0.11 0.057-0.187 0.16-0.196 0.099-0.01 0.2 0.064 0.212 0.174 0.05 0.455 0.203 0.758 0.454 0.763 0.266 5e-3 0.428-0.288 0.503-0.613 0.026-0.111 0.093-0.175 0.222-0.154 0.105 0.018 0.148 0.102 0.142 0.226-0.027 0.521-0.381 1.011-0.874 0.991-0.485-0.02-0.81-0.439-0.819-1.191" clip-path="url(#clipPath10176)"/>
   <path transform="matrix(7.7921 0 0 -7.7921 -2236.4 5284.1)" d="m302.28 669.01c-0.547-0.019-0.971-0.406-1.003-1.182-6e-3 -0.122 0.064-0.205 0.179-0.214 0.1-8e-3 0.204 0.044 0.227 0.17 0.095 0.513 0.281 0.752 0.618 0.761 0.306 9e-3 0.496-0.233 0.566-0.64 0.02-0.122 0.098-0.21 0.241-0.192 0.124 0.016 0.179 0.126 0.179 0.245-4e-3 0.6-0.388 1.073-1.007 1.052" clip-path="url(#clipPath10191)"/>
  </g>
 </g>
</svg>
