<?xml version="1.0" encoding="UTF-8" standalone="no"?>
<!-- Created with Inkscape (http://www.inkscape.org/) -->

<svg
   version="1.1"
   viewBox="0 0 153.06 259.24"
   id="svg10362"
   sodipodi:docname="sdjkw.svg"
   inkscape:version="1.1.2 (b8e25be8, 2022-02-05)"
   xmlns:inkscape="http://www.inkscape.org/namespaces/inkscape"
   xmlns:sodipodi="http://sodipodi.sourceforge.net/DTD/sodipodi-0.dtd"
   xmlns="http://www.w3.org/2000/svg"
   xmlns:svg="http://www.w3.org/2000/svg">
  <defs
     id="defs10366" />
  <sodipodi:namedview
     id="namedview10364"
     pagecolor="#ffffff"
     bordercolor="#666666"
     borderopacity="1.0"
     inkscape:pageshadow="2"
     inkscape:pageopacity="0.0"
     inkscape:pagecheckerboard="0"
     showgrid="false"
     inkscape:zoom="2.2103071"
     inkscape:cx="81.662859"
     inkscape:cy="125.09574"
     inkscape:window-width="1296"
     inkscape:window-height="795"
     inkscape:window-x="0"
     inkscape:window-y="25"
     inkscape:window-maximized="0"
     inkscape:current-layer="svg10362" />
  <path
     d="M 152.81,68.702 C 147.2817,56.596 132.176,46.723 116.707,46.39 c 7.24,-3.5372 21.747,-6.5158 33.157,-0.65792 0.55137,0.28362 0.65502,0.09631 0.17425,-0.4693 -12.06,-14.24 -31.561,-10.543 -43.499,-3.101 9.7291,-11.539 24.475,-19.736 39.135,-19.771 1.2151,-0.0029 1.2395,-0.34973 0.1412,-0.76158 -15.349,-5.7384 -31.462,0.81916 -42.719,12.221 2.0688,-4.0958 5.9083,-9.159 12.171,-14.424 0.84079,-0.70832 0.799,-0.91706 -0.47505,-0.79324 -4.473,0.43045 -10.872,5.7946 -14.866,11.131 5.8479,-10.947 14.114,-21.59 20.254,-24.012 0.70257,-0.27628 0.069,-0.32239 -0.3787,-0.36565 -12.777,-1.2482 -23.781,11.645 -29.625,25.577 -1.8773,-11.275 -10.82,-28.761 -20.542,-30.866 -0.88686,-0.19139 -0.94872,-0.12977 -0.38156,0.42184 7.0744,6.8844 13.405,25.369 15.197,35.313 -9.4138,-17.339 -29.143,-31.016 -42.873,-26.586 -0.48371,0.15548 -0.72269,0.19588 -0.19017,0.40156 8.563,3.3126 18.141,11.137 25.938,19.293 -12.562,-5.6866 -25.214,-4.5709 -36.435,2.708 -0.60033,0.39176 -0.41749,0.43768 0.16557,0.35422 13.903,-2.0025 27.707,0.66657 37.782,7.6978 -13.423,-5.498 -27.948,-1.2741 -35.467,8.4147 -0.29946,0.38564 -0.36855,0.61474 0.25195,0.30076 12.08,-6.0926 26.58,-3.9892 32.169,-1.4598 -0.29097,0.15671 -0.58594,0.30648 -0.85948,0.48085 -0.49379,0.31219 -0.87098,0.46787 -1.4166,0.49811 -1.4066,0.08488 -3.8453,0.41605 -5.0373,2.1854 -0.3685,0.54708 -0.35993,1.1863 -0.17262,1.7463 -8.6638,2.2372 -14.245,6.7347 -16.619,13.42 -0.21303,0.6032 -0.24608,0.83932 0.1971,0.49522 4.6198,-3.5862 14.101,-8.1124 20.558,-8.8423 -0.049,1.2108 -0.38279,2.4805 -1.0668,3.4004 -0.34973,0.28362 -0.63343,0.60324 -0.86955,0.94297 -0.18405,-0.03265 -0.35994,-0.06611 -0.52403,-0.10814 -0.78173,-0.19588 -1.2064,0.90412 -0.76014,2.04 1.7089,4.3549 6.3488,6.3589 10.579,6.1142 -1.7118,4.2297 0.11794,11.107 1.6023,13.536 -23.717,30.364 -31.823,78.884 -35.005,98.325 -0.61618,3.7589 -1.2237,5.0776 -3.6668,8.3672 -8.7358,11.759 -11.46,21.035 -10.512,29.231 -5.688,2.6288 -13.87,20.819 -14.172,26.101 -2.7944,1.6513 -4.1303,3.8741 -4.5018,6.2078 -1.1503,0.83213 -2.7152,2.9052 -3.2608,4.2383 -0.51539,1.2568 -0.45493,1.5232 1.1877,1.5232 1.0452,0 3.0578,-0.30974 4.1289,-0.74142 0.71695,0.53411 1.4987,0.94873 2.3409,1.2482 -0.49956,1.3317 -0.17707,1.5735 1.2712,1.5519 1.1517,-0.0204 4.2527,-0.41605 5.0488,-1.1416 2.7051,-0.43045 5.7053,-1.5246 8.671,-3.3904 2.8347,-1.7837 3.4667,-6.1358 1.2726,-6.7664 0.56434,-3.0693 1.7722,-5.3497 2.9398,-7.1032 1.8931,-2.8505 3.7589,-3.9677 5.0157,-5.7514 5.177,3.0506 11.412,3.1053 16.608,1.1891 0.14814,0.25628 0.33668,0.51685 0.59753,0.78464 1.1416,1.169 1.477,3.6639 1.0725,5.5887 -0.27342,1.3029 -0.76305,2.2732 -1.2496,2.469 -1.7607,0.71265 -4.3823,2.9772 -4.5565,5.2677 -0.0894,1.1891 0.98619,2.482 3.0953,3.7373 3.7344,2.2257 9.3764,3.7474 11.271,3.4379 0.78174,1.1158 4.3132,2.004 5.1093,2.004 0.54276,0 0.8134,-0.008 0.82924,-1.2583 0.008,-0.55859 -0.2877,-1.4065 -0.72991,-2.2502 0.45351,-0.16568 0.90265,-0.43045 1.3072,-0.77884 0.83642,0.27506 3.2334,1.0049 4.5176,1.0049 0.7011,0 1.0783,-0.082 0.66364,-0.99769 -0.48224,-1.0653 -2.4589,-3.936 -4.352,-4.6832 -0.46935,-0.87673 -1.3201,-1.8643 -2.7713,-2.8908 1.3461,-1.8413 4.2412,-6.7548 3.8683,-11.431 -0.0122,-0.15997 -0.0416,-0.32525 -0.062,-0.48514 15.91,-0.2677 27.444,-12.204 30.852,-25.577 2.8073,3.4868 6.6627,3.3011 9.5621,2.0759 2.767,-1.169 3.9461,-3.4091 3.7186,-5.9558 0.82344,-0.56145 2.2257,-2.004 2.0457,-2.5928 -0.15385,-0.49812 -0.72558,-0.58308 -1.693,-0.31831 0.46645,-1.1604 0.63054,-1.8456 0.65935,-2.2674 0.0473,-0.73566 -0.15548,-0.93431 -0.74284,-0.81629 -0.61042,0.12365 -1.4138,0.80622 -1.8773,1.372 -1.3604,-3.4264 -4.7206,-5.2634 -7.7079,-4.7796 4.3017,-2.7915 10.412,-3.9288 16.336,0.52113 0.48086,0.35871 0.35259,0.0408 0.17263,-0.60895 -2.4862,-8.8797 -16.385,-10.029 -19.833,-0.0204 -3.638,-8.599 -12.565,-9.8313 -16.159,-2.6778 -0.25342,0.50387 -0.37422,0.76158 0.11222,0.51685 6.7706,-3.4508 12.251,0.98757 15.014,4.1059 -0.0979,0.16119 -0.19017,0.34851 -0.27505,0.59026 -6.2236,18.037 -17.256,26.694 -36.086,24.193 -0.36728,-0.37136 -0.70399,-0.64641 -0.99627,-0.8163 2.2012,-9.4801 -0.5341,-21.336 -8.91,-34.02 -1.3892,-2.1048 -1.7031,-2.6389 -1.7895,-6.6727 -0.40156,-18.602 10.318,-70.095 31.212,-93.958 5.7226,-1.1589 13.577,-5.5268 15.845,-10.783 0.35422,0.38442 0.72558,0.73999 1.1215,1.0466 1.2438,3.4408 1.3806,10.321 1.0581,12.571 -0.0677,0.47796 -0.0734,0.79325 0.51395,-0.0122 1.8528,-2.5222 3.3976,-7.0715 3.5991,-10.468 1.5404,0.19996 3.0477,0.10202 4.3204,-0.22037 2.22,-0.56002 4.0512,-1.5447 5.4318,-2.8361 2.2329,3.3126 6.8916,11.674 7.5322,15.034 0.15548,0.82633 0.3885,0.46069 0.51252,-0.23017 0.88535,-4.9754 -2.1019,-17.168 -5.2058,-20.666 0.10651,-1.3936 -0.0894,-2.8922 -0.6176,-4.4571 -0.44196,-1.3058 -0.95738,-2.4532 -1.5275,-3.4825 10.744,2.6835 21.454,15.151 27.886,23.993 0.35544,0.49093 0.5168,0.41462 0.47363,-0.0204 -1.2122,-12.166 -13.37,-28.062 -26.507,-31.315 11.534,-0.37136 26.187,5.0287 36.852,13.246 0.79181,0.60756 0.99479,0.55284 0.52835,-0.46644"
     fill="#ffffff"
     id="path10014" />
  <path
     d="m 105.25,43.293 c -1.729,2.2012 -3.2752,4.5061 -4.6141,6.8772 4.7825,-2.42 9.863,-3.4768 14.925,-3.471 7.692,-4.2455 22.188,-7.4646 34.418,-1.1834 -11.893,-14.042 -32.113,-10.836 -44.728,-2.2228"
     fill="#00a63c"
     id="path10016" />
  <path
     d="m 98.92,199.17 c -0.082,-0.93864 -0.64356,-1.2266 -1.0308,-0.10365 -6.8196,19.759 -18.677,26.631 -36.482,24.673 2.0054,2.1292 4.8962,6.9823 5.5484,11.378 21.654,-0.14691 33.309,-20.501 31.964,-35.947"
     fill="#c18963"
     id="path10018" />
  <path
     d="m 98.93,197.27 c -3.278,-8.7919 -12.247,-10.78 -16.182,-3.101 6.7735,-3.4552 12.436,0.84217 15.512,4.3376 0.22159,-0.58165 0.57875,-0.43192 0.59459,-0.45351 -0.0204,-0.17262 0.003,-0.42902 0.0747,-0.78316"
     fill="#00a63c"
     id="path10020" />
  <path
     d="m 113.33,203.5 c -0.12365,-0.40155 -0.80332,-0.37013 -1.8859,0 0.15548,-0.37013 1.1143,-2.5654 0.77451,-3.1211 -0.25914,-0.42327 -1.5562,0.47938 -2.2718,1.2813 -2.4085,-4.2067 -6.0508,-5.9731 -9.6082,-4.1793 -0.19996,0.1714 -1.2971,1.0351 -1.4857,1.3864 0.29097,3.3299 0.0649,7.0528 -0.75292,10.393 2.3481,3.1975 5.953,4.0353 9.6053,2.4906 2.744,-1.1575 3.8626,-3.4292 3.6193,-6.022 0.9415,-0.66368 2.1105,-1.8888 2.0054,-2.2286"
     fill="#ccea9d"
     id="path10022"
     style="fill:#d5e3a6;fill-opacity:1" />
  <path
     d="m 99.26,90.63 c 1.7448,-2.564 3.4739,-7.7208 3.6322,-10.977 -1.7592,-0.21874 -3.494,-0.86666 -4.7767,-1.9349 1.2223,3.4768 1.4785,10.566 1.1445,12.912"
     id="path10024"
     style="fill:#00a63c" />
  <path
     d="m 120.65,92.12 c 1.3101,-3.9835 -2.1336,-17.872 -5.3238,-21.01 -0.17548,2.027 -1.0193,3.8913 -2.5208,5.4073 2.0774,2.9757 7.168,12.048 7.8446,15.603"
     id="path10026"
     style="fill:#00a63c" />
  <path
     d="m 92.85,48.731 c 2.708,1.146 4.5306,3.3054 5.5426,5.9285 6.0048,-13.757 24.278,-32.897 48.09,-32.507 -21.36,-8.5702 -44.512,7.5538 -53.633,26.579"
     id="path10028"
     style="fill:#00a63c" />
  <path
     d="m 41.474,9.419 c 15.534,5.6578 38.177,29.233 41.125,40.137 1.8859,-1.1388 4.0022,-1.752 6.1977,-1.6988 -3.864,-20.528 -29.855,-43.836 -47.323,-38.439"
     id="path10030"
     style="fill:#00a63c;fill-opacity:1" />
  <path
     d="m 22.66,219.09 c -0.0114,0.004 -0.0216,0.004 -0.0302,0.008 -4.8027,1.8629 -14.015,20.187 -14.222,26.05 -2.839,1.6412 -4.3189,3.9749 -4.6342,6.0768 0.0086,-0.008 0.02,-0.0163 0.02734,-0.0204 0.65072,-0.43193 2.5842,2.8476 2.2732,4.3319 -0.01714,0.0865 -0.15116,0.17996 -0.36279,0.27627 0.76301,0.58594 1.6138,1.0452 2.5439,1.3705 0.62768,-1.4252 2.2833,-3.4796 3.088,-3.6308 0.97176,-0.1816 2.911,2.1335 2.7713,3.7143 1.7981,0.25791 5.3181,-1.2006 8.4766,-3.1874 2.4877,-1.5649 3.5674,-5.485 1.2208,-6.238 1.1647,-6.667 4.5867,-9.6874 6.6569,-11.693 0.61905,-0.59749 1.2151,-1.3014 1.4699,-1.8125 0.004,-0.008 0.009,-0.0204 0.0131,-0.0326 1.3749,-2.9412 -6.3013,-16.267 -9.2915,-15.217"
     fill="#c18963"
     id="path10034" />
  <path
     d="m 63.229,247.45 c 2.4862,-3.7258 4.1116,-7.9713 3.8323,-11.47 -0.52117,-6.5403 -5.6708,-13.403 -7.2428,-13.344 -2.5972,0.0979 -9.506,6.32 -10.73,10.583 -0.48085,1.6714 -0.18568,2.4891 0.68526,3.3817 2.0083,2.0573 1.002,7.8245 -0.49089,8.4277 -1.7218,0.69539 -4.1505,2.852 -4.3146,4.9999 -0.27342,3.6293 11.72,7.371 14.124,6.8527 -10e-4,-0.003 -0.003,-0.004 -0.004,-0.008 -0.18445,-1.1128 1.6599,-3.3069 2.2487,-3.6121 0.56287,-0.28933 1.6844,0.88539 2.4776,2.2776 2.9038,-0.79039 4.5003,-4.6112 -0.58593,-8.0865"
     fill="#c18963"
     id="path10036" />
  <path
     d="m 114.76,66.793 c -0.10529,-0.31219 -0.21874,-0.61907 -0.33708,-0.92281 -1.9622,1.1733 -5.0733,2.207 -7.2386,1.5159 1.8428,2.0803 6.3546,0.93003 7.754,-0.01632 -0.0547,-0.19017 -0.11385,-0.38279 -0.17833,-0.57585"
     fill="#89260e"
     id="path10038"
     style="fill:#923000;fill-opacity:1" />
  <path
     d="m 100.63,50.171 c -0.82923,1.4728 -1.5779,2.9729 -2.2401,4.4888 0.35545,0.92281 0.6061,1.9032 0.76733,2.9153 2.6893,-1.0193 5.1726,-1.0365 7.3638,-0.28648 9.0813,-3.5185 27.823,-2.4517 46.266,11.961 -8.0044,-18.461 -34.485,-28.026 -52.157,-19.078"
     fill="#00a63c"
     id="path10040" />
  <path
     d="m 113.08,55.717 c -2.2876,0.25914 -4.5968,0.81197 -6.559,1.5721 2.5597,0.87674 4.7192,2.803 6.3345,5.4145 11.907,2.6432 21.579,14.473 28.806,24.408 -1.1388,-11.447 -14.506,-29.628 -28.581,-31.394"
     fill="#00a63c"
     id="path10042" />
  <path
     d="m 94.55,71.562 c -2.9239,2.1364 -7.06,2.682 -11.604,0.84074 -3.4983,-1.4195 -5.6866,-3.6884 -6.749,-6.2999 -1.6642,1.575 -3.6912,2.4877 -5.7716,2.7857 -2.0774,4.2009 0.0204,12.011 1.3619,13.999 -26.14,33.332 -34.271,92.443 -36.024,102.67 -0.20282,1.1805 -13.348,15.456 -13.24,31.187 0.006,0.78316 0.0504,1.5678 0.13675,2.351 2.9916,-1.051 10.668,12.276 9.2929,15.217 5.2605,3.1773 11.837,3.209 17.104,1.228 -0.28076,-0.70542 -0.22036,-1.4483 0.0326,-2.325 1.2237,-4.2628 8.1326,-10.485 10.73,-10.583 0.10243,-0.003 0.22322,0.0286 0.35871,0.0922 0.19017,-0.87384 0.32973,-1.7679 0.41462,-2.6734 1.6642,-17.762 -10.197,-32.261 -10.712,-33.799 -2.2156,-6.6296 4.8804,-68.593 30.909,-98.804 5.6492,-1.1129 13.89,-5.8277 15.948,-11.008 -1.0265,-1.3418 -1.7736,-3.0002 -2.1868,-4.8789"
     fill="#c18963"
     id="path10044" />
  <path
     d="m 74.24,50.752 c -0.4693,-0.31545 -3.2133,-1.0049 -5.4548,-1.0063 -0.61907,-0.0014 -0.69967,-0.71118 0.049,-1.0293 3.5272,-1.7146 5.8162,-0.8667 6.4424,0.70828 0.31097,0.94154 -0.28076,1.8313 -1.0365,1.3273 m 5.891,0.72848 c -0.50386,-2.0026 -1.5361,-3.7028 -3.2334,-4.7465 -2.9153,-1.788 -8.9733,-1.3331 -12.532,1.4468 -1.5779,0.06203 -4.2571,0.07346 -5.5758,2.0285 -0.44054,0.65502 -0.21752,2.8649 0.9084,2.7627 0.008,0 0.0122,0.0014 0.0204,0.0014 0.56434,-3.2104 10.345,-1.2323 10.747,0.66367 -0.59316,2.3236 -4.7178,7.1953 -6.3272,7.7381 -1.6139,0.54129 -3.4624,0.2273 -4.211,0.04081 -0.74717,-0.18731 -0.8105,0.96888 -0.47795,1.7016 3.1802,6.9866 12.018,7.4603 16.749,2.9858 -2.1897,-5.3828 0.62479,-11.382 3.9346,-14.622"
     fill="#fff8b0"
     id="path10046" />
  <path
     d="m 103.3,63.488 c 1.9838,-0.36728 4.0555,-0.97611 6.2193,-2.0875 0.4693,2.4546 -4.6962,4.342 -6.2193,2.0875 m 11.635,3.8813 c -1.3993,0.94726 -5.9112,2.0975 -7.754,0.01632 2.1652,0.69102 5.2763,-0.34279 7.2386,-1.516 -2.351,-6.0508 -7.8058,-11.12 -15.263,-8.2952 1.0121,6.4525 -1.4296,11.664 -4.6112,13.986 2.0155,9.1562 10.226,8.6825 12.453,8.0951 6.1199,-1.6109 9.7522,-5.9068 7.9368,-12.287"
     fill="#fff8b0"
     id="path10048" />
  <path
     d="m 68.962,29.977 c -11.687,-5.8694 -25.849,-5.9616 -37.935,1.8788 23.689,-4.1534 38.952,6.225 45.87,14.879 1.6973,1.0423 2.7296,2.7439 3.2334,4.7465 0.76158,-0.7486 1.5893,-1.3921 2.469,-1.9234 -1.0437,-3.8626 -6.3805,-11.719 -13.638,-19.581"
     fill="#00a63c"
     id="path10050" />
  <path
     d="m 67.708,55.011 c 0.46935,0.1714 1.6786,-1.2266 2.2602,-1.9464 -0.60752,-0.42613 -1.7117,-0.88249 -2.9801,-1.2309 0.0416,1.0121 0.18119,2.9801 0.71982,3.1773"
     fill="#ffffff"
     id="path10052" />
  <path
     d="m 59.717,52.973 c -0.004,0 -0.0122,-0.0014 -0.0204,-0.0014 0.42037,0.69248 1.0351,1.6038 1.2223,1.598 0.53986,-0.01632 1.0077,-2.5337 1.1128,-3.2579 -1.2251,0.16405 -2.1393,0.65935 -2.3164,1.6613"
     fill="#ffffff"
     id="path10054" />
  <path
     d="m 71.39,41.143 c -13.145,-6.7706 -29.53,-3.7042 -37.956,7.1536 10.96,-6.0005 25.619,-4.8458 33.013,-1.3691 2.934,-1.3662 6.8815,-1.8787 9.7277,-0.57728 0.25179,0.11508 -2.8015,-3.5674 -4.7839,-5.2072"
     id="path10056"
     style="fill:#00a63c" />
  <path
     d="m 87,41.782 c 0.81484,2.0688 1.4238,4.1088 1.7938,6.0768 1.2223,0.02857 3.4523,0.63201 3.7143,0.73276 0.59601,-4.2671 2.8678,-10.322 6.0235,-16.569 5.8435,-11.575 14.715,-23.799 21.559,-26.497 -18.319,-1.7895 -30.066,23.321 -33.09,36.256"
     id="path10058"
     style="fill:#00a63c" />
  <path
     d="m 98.53,32.023 c -3.1543,6.2452 -5.4275,12.3 -6.0235,16.569 0.11672,0.04448 0.23057,0.09223 0.3428,0.13957 2.374,-4.9538 5.606,-9.6269 9.4484,-13.713 2.2458,-6.225 8.4939,-12.476 13.281,-16.143 -5.2561,-0.36402 -12.554,7.2429 -17.048,13.147"
     id="path10060"
     style="fill:#00a63c" />
  <path
     d="m 69.287,0.21 c 7.7986,7.4084 14.492,28.571 15.964,37.7 0.65792,1.2957 1.2438,2.5899 1.752,3.8712 0.73709,-3.1586 1.7506,-6.3517 3.0002,-9.4657 -1.8284,-13.406 -11.845,-30.497 -20.717,-32.106"
     id="path10062"
     style="fill:#00a63c" />
  <path
     d="m 60.56,61.538 c 1.1805,0.17548 2.682,0.13671 3.5761,-0.16283 0.67086,-0.2273 1.5893,-1.0193 2.518,-2.0313 -2.4359,-0.54419 -5.2691,0.9084 -6.094,2.194"
     fill="#f46899"
     id="path10066"
     style="fill:#ed8599;fill-opacity:1" />
  <path
     d="m 61.626,53.17 c -0.21751,0.75582 -0.47796,1.395 -0.70542,1.4008 -0.18732,0.0041 -0.8019,-0.90555 -1.2223,-1.5994 -0.38564,0.03673 -0.763,-0.37422 -0.97754,-0.92138 -7.6503,1.9133 -14.314,5.9846 -16.999,13.554 4.4399,-4.0756 14.441,-8.2664 20.885,-8.9301 0.0245,-1.4008 -0.25914,-2.7699 -0.98039,-3.5041"
     fill="#00a63c"
     id="path10068" />
  <path
     d="m 69.969,53.066 c -0.58161,0.71983 -1.7909,2.1177 -2.2602,1.9464 -0.53843,-0.19711 -0.67808,-2.1652 -0.71982,-3.1773 -1.6196,-0.44486 -3.5041,-0.71693 -4.9553,-0.52403 -0.0718,0.50101 -0.22445,1.2223 -0.40727,1.8586 1.6671,1.6959 1.1503,5.6319 0.008,7.2918 1.346,-0.9588 3.3788,-1.4857 5.0215,-1.1186 1.7347,-1.8874 3.5113,-4.5421 3.8093,-5.7068 -0.0286,-0.17425 -0.20731,-0.3685 -0.49526,-0.5701"
     fill="#89260e"
     id="path10070"
     style="fill:#923000;fill-opacity:1" />
  <path
     d="m 98.76,197.74 c -0.28648,1.2712 0.0877,1.3144 0.85083,0.58736 2.1609,-2.0587 10.177,-8.0678 19.068,-1.3907 -2.5956,-9.2699 -17.479,-9.984 -19.919,0.80332"
     fill="#00a63c"
     id="path10072" />
  <path
     d="m 68.834,48.716 c -0.75006,0.31831 -0.668,1.0279 -0.049,1.0294 2.2401,0.0014 4.9855,0.69102 5.4548,1.0063 0.75578,0.50387 1.346,-0.38564 1.0366,-1.3273 -0.62626,-1.575 -2.9153,-2.4229 -6.4424,-0.70832"
     fill="#ffffff"
     id="path10074" />
  <path
     d="m 103.3,63.488 c 1.5231,2.2545 6.6886,0.36687 6.2193,-2.0875 -2.1638,1.1114 -4.2355,1.7204 -6.2193,2.0875"
     fill="#ffffff"
     id="path10076" />
  <path
     d="m 80.28,63.77 c 0.56149,2.5669 1.9248,4.7767 3.9907,5.4519 2.5597,0.83499 4.9279,-0.0041 6.8714,-1.7348 -1.5447,-3.3184 -7.4012,-5.1957 -10.862,-3.7172"
     fill="#f46899"
     id="path10078"
     style="fill:#ed8599;fill-opacity:1" />
  <path
     d="m 91.76,64.614 c -0.37585,-0.21874 -0.28811,-2.4949 -0.23465,-3.4868 -1.8788,-0.87098 -4.974,-1.9565 -8.0044,-2.4633 -0.66943,0.97321 -1.9392,2.7742 -2.3668,2.5683 -0.41462,-0.19874 -0.46498,-2.0558 -0.49236,-2.9052 -0.11672,-0.02448 -0.22894,-0.05591 -0.3326,-0.09508 -0.4362,1.7477 -0.43906,3.7301 -0.0445,5.5383 3.4624,-1.4785 9.3174,0.3987 10.862,3.7172 1.467,-1.3072 2.6907,-3.1183 3.5718,-5.0963 -0.0877,-0.0041 -0.17874,-0.01224 -0.26934,-0.02448 -0.66943,0.75435 -2.243,2.5093 -2.6893,2.2473"
     fill="#89260e"
     id="path10080"
     style="fill:#923000;fill-opacity:1" />
  <path
     d="m 96.21,56.628 c -0.26771,0.90698 -1.0581,1.8082 -1.8298,2.2084 -1.1258,0.58593 -2.5856,0.15548 -3.0736,-0.82491 -0.4247,-0.8494 -0.58308,-2.0832 -0.27913,-3.1096 0.4837,-1.634 1.8816,-2.7468 3.3458,-2.3898 1.6542,0.40442 2.3207,2.482 1.837,4.1159 m -5.069,10.859 c -1.9421,1.729 -4.3117,2.5698 -6.87,1.7348 -2.0673,-0.67518 -3.4307,-2.8851 -3.9907,-5.4519 -0.39584,-1.8082 -0.39299,-3.7906 0.0433,-5.5383 0.98039,0.28933 4.0944,0.44628 7.4257,1.4295 3.0319,0.8969 5.3368,2.6864 6.9636,2.7296 -0.87963,1.9781 -2.1048,3.7891 -3.5718,5.0963 m -8.8466,-15.109 c 0.58737,-1.539 2.0385,-2.2602 3.4048,-2.014 1.5073,0.27505 2.0227,2.3351 1.4339,3.8755 -0.32525,0.85515 -0.97464,1.5217 -1.6959,1.9781 -0.85226,0.53986 -2.7598,0.0706 -3.1226,-0.85805 -0.34116,-0.86519 -0.39176,-2.014 -0.0204,-2.9815 m 9.6442,-3.9893 c -5.9889,-1.8946 -13.043,1.4397 -15.816,9.5809 -2.2185,6.5115 0.66657,11.933 6.8225,14.432 7.3767,2.9916 12.955,-0.13549 15.066,-5.3382 3.3803,-8.3298 0.47367,-16.605 -6.0724,-18.675"
     fill="#fff8b0"
     id="path10082" />
  <path
     d="m 81.15,61.233 c 0.42759,0.20568 1.6974,-1.5951 2.3682,-2.5683 -0.80618,-0.13548 -2.708,-0.30362 -2.8606,-0.3383 0.0286,0.8494 0.078,2.7065 0.49236,2.9067"
     id="path10084"
     style="fill:#ffffff" />
  <path
     d="m 91.76,64.614 c 0.44629,0.26199 2.0198,-1.4929 2.6893,-2.2473 -0.54851,-0.06897 -2.433,-1.0135 -2.9239,-1.2395 -0.0535,0.9919 -0.1412,3.268 0.23465,3.4868"
     id="path10086"
     style="fill:#ffffff" />
  <path
     d="m 85.44,56.218 c 0.72126,-0.45494 1.3706,-1.1229 1.6974,-1.9781 0.58736,-1.539 0.0718,-3.6005 -1.4339,-3.8741 -1.3677,-0.24771 -2.8174,0.47363 -3.4062,2.0126 -0.37014,0.96746 -0.31953,2.1163 0.0204,2.9815 0.36279,0.9286 2.2703,1.3979 3.1226,0.85805"
     id="path10088"
     style="fill:#ffffff" />
  <path
     d="m 94.37,52.512 c -1.4641,-0.35708 -2.8606,0.75582 -3.3443,2.3898 -0.30362,1.0265 -0.14691,2.2602 0.27791,3.1096 0.48803,0.98039 1.9493,1.4123 3.0751,0.82634 0.77019,-0.40156 1.562,-1.3029 1.8283,-2.2098 0.48375,-1.6326 -0.18282,-3.7114 -1.837,-4.1159"
     id="path10090"
     style="fill:#ffffff" />
  <path
     d="m 66.162,250.53 c 0.79035,1.6657 0.27505,3.1269 -0.69391,4.0555 2.1364,0.77456 4.866,1.4468 5.1309,0.9948 0.23301,-0.40156 -2.2775,-4.2944 -4.437,-5.0503"
     id="path10092"
     style="fill:#ffffff" />
  <path
     d="m 11.342,253.56 c -1.6901,0.31668 -3.6797,3.9245 -3.2896,4.7782 0.34696,0.7659 5.9774,-0.14692 6.0623,-1.0654 0.14683,-1.5807 -1.7996,-3.8942 -2.7728,-3.7128"
     id="path10094"
     style="fill:#ffffff" />
  <path
     d="m 3.801,251.21 c -1.4137,0.9444 -3.9187,4.5493 -3.3918,5.1813 0.25914,0.31219 5.4951,-0.0367 5.6636,-0.84797 0.31239,-1.4843 -1.6225,-4.7652 -2.2718,-4.3333"
     id="path10096"
     style="fill:#ffffff" />
  <path
     d="m 61.336,253.26 c -0.58737,0.30525 -2.4316,2.4993 -2.2487,3.6121 0.21588,1.3 5.236,2.3322 5.4347,2.0227 1.0826,-1.6844 -2.2602,-6.1128 -3.1859,-5.6348"
     id="path10098"
     style="fill:#ffffff" />
  <path
     d="m 103.22,46.05 c -0.93004,1.346 -1.7909,2.7224 -2.5813,4.1203 4.7825,-2.42 9.8644,-3.4768 14.925,-3.471 7.692,-4.2455 22.188,-7.4646 34.418,-1.1834 -14.563,-11.832 -39.636,-2.3164 -46.761,0.53411"
     fill="#009234"
     id="path10102" />
  <path
     d="m 98.96,198.09 c -2.0688,24.362 -21.749,35.715 -33.632,31.754 1.074,1.7463 1.3418,3.3573 1.6297,5.2749 21.655,-0.14692 32.941,-19.91 32.002,-37.029"
     fill="#986c4c"
     id="path10104" />
  <path
     d="m 82.75,194.17 c 6.7735,-3.4537 12.437,0.84221 15.512,4.3391 0.22322,-0.58304 0.57875,-0.43331 0.59458,-0.4549 -1.6758,-3.625 -10.522,-9.4542 -16.107,-3.8842"
     fill="#009234"
     id="path10106" />
  <path
     d="m 98.54,207.05 c -0.12242,0.74864 -0.26648,1.4886 -0.44342,2.2084 2.3481,3.1974 5.953,4.0353 9.6053,2.492 2.2588,-0.95448 3.4148,-2.6634 3.6178,-4.6846 -2.6562,3.7129 -10.04,3.6135 -12.78,-0.0163"
     fill="#a8c082"
     id="path10108"
     style="fill:#acba87;fill-opacity:1" />
  <path
     d="m 99.36,90.41 c 1.3317,-3.1975 1.4353,-8.3715 0.84793,-11.34 -0.64062,-0.30648 -0.80185,-0.27791 -2.0832,-1.3475 1.2208,3.4782 1.5707,10.341 1.2352,12.688"
     id="path10110"
     style="fill:#009234" />
  <path
     d="m 120.65,92.12 c -0.33382,-6.4165 -3.661,-13.942 -6.3474,-17.652 -0.17833,0.6147 -1.0236,1.6642 -1.4972,2.0486 2.0774,2.9757 7.168,12.048 7.8446,15.603"
     id="path10112"
     style="fill:#009234" />
  <path
     d="m 95.94,50.853 c 1.2583,1.4598 1.4426,1.1834 2.4532,3.8079 6.0047,-13.759 23.882,-32.897 47.693,-32.507 -17.368,-4.2801 -39.976,11.077 -50.146,28.699"
     id="path10114"
     style="fill:#009234" />
  <path
     d="m 41.766,9.465 c 15.532,5.6578 37.883,29.187 40.833,40.091 0.7544,-0.51684 1.5606,-0.91991 3.1715,-1.2726 -3.8899,-15.105 -31.518,-37.627 -44.004,-38.819"
     id="path10116"
     style="fill:#009234;fill-opacity:1" />
  <path
     d="m 98.39,54.66 c 0.35545,0.92281 0.6061,1.9032 0.7659,2.9139 2.6893,-1.0193 5.1741,-1.0351 7.3638,-0.28525 9.0827,-3.5185 27.824,-2.4517 46.266,11.961 -13.55,-17.24 -41.041,-20.312 -54.396,-14.589"
     id="path10118"
     style="fill:#009234;fill-opacity:1" />
  <path
     d="m 110.02,59.323 c 1.0711,0.92134 2.0242,2.063 2.839,3.3803 11.907,2.6446 21.579,14.473 28.804,24.408 -4.2686,-11.236 -19.038,-27.111 -31.643,-27.788"
     id="path10120"
     style="fill:#009234;fill-opacity:1" />
  <path
     d="m 59.959,64.091 c 3.5286,6.0422 11.739,6.2668 16.238,2.0112 -0.70542,-1.7333 -0.86233,-2.6561 -0.68094,-4.4053 -1.3461,5.2705 -11.257,6.9189 -15.557,2.3941"
     fill="#ddd698"
     id="path10124" />
  <path
     d="m 95.98,70.271 c -0.44915,0.49664 -0.92857,0.92856 -1.4252,1.2899 1.5246,6.929 7.394,9.4268 12.453,8.0966 3.1399,-0.8278 5.6204,-2.3625 7.0528,-4.5219 -5.2518,2.8318 -16.806,3.5084 -18.081,-4.8645"
     fill="#ddd698"
     id="path10126" />
  <path
     d="M 77.11,40.178 C 70.7165,34.5893 48.815,25.829 31.027,31.8554 c 23.689,-4.1534 38.953,6.225 45.87,14.879 1.6974,1.0423 2.7296,2.744 3.2334,4.7465 0.76157,-0.74864 1.5894,-1.3922 2.469,-1.9234 C 81.2375,46.219 79.1745,43.3008 77.11,40.1782"
     fill="#009234"
     id="path10128" />
  <path
     d="m 67.708,55.011 c -0.0286,-1.0538 0.1208,-2.112 0.40728,-2.7497 -0.60899,-0.42755 -0.73856,-0.35136 -1.1273,-0.42755 0.0416,1.0121 0.18119,2.9801 0.71983,3.1773"
     fill="#d3d2d2"
     id="path10130" />
  <path
     d="m 59.717,52.973 c -0.004,0 -0.0122,-0.0014 -0.0204,-0.0014 0.42037,0.69248 1.1632,1.6297 1.3518,1.6239 -0.20282,-0.50387 -0.79038,-1.8312 -0.75725,-2.4517 -0.31667,0.16854 -0.45208,0.39462 -0.57589,0.82924"
     fill="#d3d2d2"
     id="path10132" />
  <path
     d="m 33.438,48.297 c 10.96,-6.0005 25.618,-4.8458 33.014,-1.3691 2.9326,-1.3662 6.8801,-1.8788 9.7263,-0.57875 -6.4683,-3.805 -29.781,-8.8394 -42.74,1.9478"
     id="path10134"
     style="fill:#009234;fill-opacity:1" />
  <path
     d="m 88.36,45.565 c 0.0677,0.73852 0.0718,0.32688 0.44196,2.2933 1.2208,0.02857 3.4508,0.63201 3.7143,0.73423 0.59602,-4.2686 2.8678,-10.324 6.022,-16.57 5.845,-11.575 14.716,-23.799 21.56,-26.497 -14.15,3.386 -29.658,29.5 -31.738,40.039"
     id="path10136"
     style="fill:#009234;fill-opacity:1" />
  <path
     d="m 94.26,42.007 c -0.40155,1.4094 -1.3648,3.8209 -1.752,6.585 0.11671,0.04326 0.22894,0.09223 0.34279,0.13957 2.374,-4.9553 5.606,-9.6269 9.4484,-13.713 2.2458,-6.225 8.337,-12.472 13.124,-16.138 -7.335,2.9196 -19.015,18.16 -21.163,23.126"
     id="path10138"
     style="fill:#009234;fill-opacity:1" />
  <path
     d="m 69.508,0.353 c 7.7985,7.4084 14.271,28.429 15.744,37.557 0.65792,1.2957 1.2438,2.5899 1.7506,3.8712 0.5816,-2.2588 0.53125,-2.0558 1.1848,-4.1203 -0.85515,-10.423 -9.2641,-32.324 -18.679,-37.308"
     id="path10140"
     style="fill:#009234;fill-opacity:1" />
  <path
     d="m 66.655,59.343 c -1.2899,-0.2877 -2.6864,-0.01632 -3.8424,0.49668 0.80765,0.20445 1.5836,0.5226 2.171,1.0596 0.51395,-0.37707 1.0913,-0.92428 1.6714,-1.5563"
     fill="#ca567d"
     id="path10144"
     style="fill:#ce7486;fill-opacity:1" />
  <path
     d="m 62.208,54.528 c -4.532,0.70399 -13.897,3.2723 -20.486,11.075 4.4399,-4.0757 14.441,-8.2664 20.883,-8.9301 0.0547,-0.78749 0.004,-1.7938 -0.39748,-2.1451"
     fill="#009234"
     id="path10146" />
  <path
     d="m 98.76,197.74 c -0.23914,1.2813 0.0877,1.3144 0.85083,0.58736 2.1609,-2.0587 10.177,-8.0678 19.068,-1.3907 -2.849,-3.854 -12.211,-6.8743 -19.919,0.80332"
     fill="#009234"
     id="path10148" />
  <path
     d="m 83.68,63.281 c 2.3913,1.1647 4.2858,3.3342 4.5536,5.9443 1.0452,-0.34402 2.0227,-0.9473 2.9138,-1.7376 C 90.0432,65.1166 86.7392,63.4826 83.68,63.281"
     fill="#ca567d"
     id="path10150"
     style="fill:#ce7486;fill-opacity:1" />
  <path
     d="m 75.6,64.372 c 0.74717,3.5703 3.3573,6.4122 7.3436,8.0303 7.3767,2.9916 12.955,-0.13549 15.064,-5.3382 0.25751,-0.63633 0.47653,-1.2726 0.66225,-1.9046 -6.9664,10.322 -21.374,4.2801 -23.07,-0.78749"
     fill="#ddd698"
     id="path10152" />
  <path
     d="m 81.24,61.324 c -0.0677,-0.75439 0.0677,-1.9292 0.42038,-2.8865 -0.80618,-0.13548 -0.8494,-0.07754 -1.0006,-0.111 0.0245,0.8494 0.16568,2.7972 0.58017,2.9974"
     id="path10154"
     style="fill:#d3d2d2" />
  <path
     d="m 91.9,64.715 c 0.0735,-1.0567 0.26934,-2.3164 0.70542,-3.1211 -0.4693,-0.20282 -0.58879,-0.24036 -1.0797,-0.46644 -0.053,0.99047 -0.003,3.3673 0.37422,3.5876"
     id="path10156"
     style="fill:#d3d2d2" />
  <path
     d="m 66.426,253.02 c -0.17425,0.61185 -0.51684,1.1445 -0.9588,1.5663 1.7967,0.6507 4.1591,1.5001 5.1309,1.0639 -1.5318,-0.4247 -3.1284,-1.3907 -4.1721,-2.6302"
     id="path10158"
     style="fill:#d3d2d2" />
  <path
     d="m 13.302,255.15 c -1.2626,1.7636 -3.1888,2.6518 -5.1251,3.3126 0.90697,0.5255 5.8594,-0.32973 5.9371,-1.1891 0.0849,-0.88681 -0.30806,-1.2525 -0.81196,-2.1235"
     id="path10160"
     style="fill:#d3d2d2" />
  <path
     d="m 5.457,252.96 c -0.34553,1.7016 -2.41,2.9585 -4.7264,3.5632 1.6282,-0.0327 5.2216,-0.40034 5.3425,-0.98186 0.13965,-0.66368 -0.17132,-1.6901 -0.61617,-2.5813"
     id="path10162"
     style="fill:#d3d2d2" />
  <path
     d="m 59.645,255.18 c -0.37299,0.60753 -0.63057,1.2323 -0.55716,1.6829 0.21588,1.3 5.236,2.3322 5.4347,2.0227 0.0416,-0.0677 0.0747,-0.13834 0.10651,-0.21302 -1.9968,-0.4276 -3.7502,-1.896 -4.984,-3.4926"
     id="path10164"
     style="fill:#d3d2d2" />
  <path
     d="m 59.36,49.593 c -1.562,1.7146 -0.48661,3.0967 0.28076,3.4552 0.43045,-1.7204 3.1298,-1.9781 4.1203,-1.9205 -0.7688,-1.0985 -3.2767,0.15548 -4.0944,-0.0502 -0.44776,-0.11222 -0.51252,-0.68959 -0.30648,-1.4843"
     fill="#ddd698"
     id="path10168" />
  <path
     d="m 94.55,71.562 c -2.9239,2.1364 -7.06,2.682 -11.604,0.84074 -3.4983,-1.4195 -5.6866,-3.6884 -6.749,-6.2999 -1.6642,1.575 -3.6912,2.4877 -5.7716,2.7857 -2.0774,4.2009 0.0204,12.011 1.3619,13.999 -0.95448,1.2165 -1.8831,2.4676 -2.7886,3.7502 2.862,0 4.3909,1.1589 5.7269,2.8318 -15.439,25.107 -29.133,67.468 -27.723,97.273 0.29791,6.2869 10.721,15.023 9.398,32.022 -0.82205,10.571 -16.134,15.286 -26.066,9.0179 1.349,2.7713 2.1422,5.4088 1.6182,6.5302 5.2605,3.1773 11.837,3.209 17.104,1.228 -0.28076,-0.70542 -0.22036,-1.4483 0.0326,-2.325 1.2237,-4.2628 8.1326,-10.485 10.73,-10.583 0.10243,-0.003 0.22322,0.0286 0.35871,0.0922 0.19017,-0.87384 0.32973,-1.7679 0.41462,-2.6734 1.6642,-17.762 -10.197,-32.261 -10.712,-33.799 -2.2156,-6.6296 4.8804,-68.593 30.909,-98.804 5.6492,-1.1129 13.89,-5.8277 15.948,-11.008 -1.0265,-1.3418 -1.7736,-3.0002 -2.1868,-4.8789"
     fill="#986c4c"
     id="path10170" />
  <path
     d="m 113.26,203.36 c -0.87246,0.77308 -2.0141,1.4108 -2.1825,1.5447 0.20159,0.704 0.30239,0.80618 0.30239,0.9415 0.77166,-0.60462 1.9795,-1.7463 1.8802,-2.4862"
     fill="#a8c082"
     id="path10172"
     style="fill:#acba87;fill-opacity:1" />
  <path
     d="m 112.22,200.27 c -0.50529,1.3432 -1.4094,2.888 -1.4439,3.2565 -0.0326,0.3685 0.48661,0.41894 0.63777,0.0677 0.20159,-0.47077 0.94007,-1.8802 0.80617,-3.3242"
     fill="#a8c082"
     id="path10174"
     style="fill:#acba87;fill-opacity:1" />
  <path
     d="m 56.199,249.71 c 2.5496,-0.60467 5.9745,-4.4989 6.1761,-10.407 0.111,-3.281 -3.7863,-11.064 -9.3894,-11.989 -1.8168,1.9061 -3.3745,4.08 -3.8971,5.8997 -0.48081,1.6714 -0.18568,2.4891 0.68531,3.3817 2.0083,2.0558 1.0006,7.8245 -0.49093,8.4277 -1.7218,0.69538 -4.1505,2.852 -4.3146,4.9999 -0.27342,3.6293 11.72,7.371 14.124,6.8527 -10e-4,-0.003 -0.003,-0.004 -0.004,-0.008 -0.16568,-1.0006 1.3029,-2.8678 2.0313,-3.4594 -4.1937,-0.0326 -8.6969,-1.8903 -4.9207,-3.6956"
     id="path10176"
     style="fill:#986c4c" />
  <path
     d="m 62.02,253.39 c 0.56577,0.35259 1.2554,1.1978 1.7952,2.1451 1.8197,-0.49526 3.1255,-2.1782 2.5971,-4.2225 -0.5053,1.3432 -2.3293,1.9579 -4.3923,2.0774"
     id="path10178"
     style="fill:#986c4c" />
  <path
     d="m 6.073,255.54 c -0.01714,0.0865 -0.14973,0.17996 -0.36279,0.27505 0.76301,0.58736 1.6138,1.0466 2.5453,1.372 0.26346,-0.59744 0.70686,-1.3043 1.192,-1.9363 -1.4195,-0.21751 -2.6705,-0.61617 -3.5386,-1.1805 0.16989,0.54709 0.24906,1.074 0.16413,1.4699"
     id="path10180"
     style="fill:#986c4c" />
  <path
     d="m 27.749,223.34 c 4.6673,12.535 -5.6405,23.698 -16.527,24.223 4.4975,1.6786 7.7856,2.0803 9.732,1.611 1.1906,3.8856 -2.97,5.8435 -7.3854,6.2063 0.3628,0.6205 0.59745,1.3072 0.54563,1.8917 1.7967,0.25914 5.318,-1.2006 8.4766,-3.1874 2.4877,-1.5634 3.5674,-5.4836 1.2208,-6.238 1.1647,-6.6656 4.5867,-9.6859 6.6569,-11.693 0.6176,-0.59744 1.2136,-1.3 1.4699,-1.8111 0.004,-0.008 0.009,-0.0204 0.0131,-0.0326 0.81052,-1.7348 -1.5318,-7.0917 -4.2023,-10.972"
     id="path10182"
     style="fill:#986c4c" />
  <path
     d="m 70.698,254.96 c -0.50533,-1.1143 -2.6446,-4.2326 -4.614,-4.7984 0.13671,0.19425 0.242,0.50097 0.30076,0.72844 1.8658,0.89261 4.1102,4.3578 3.9777,4.5666 -0.13222,0.21017 -2.4762,-0.26485 -4.7019,-1.061 -0.12692,0.14406 -0.25179,0.36279 -0.41605,0.46498 0.33545,0.12365 3.3083,1.097 4.7897,1.097 0.70109,0 1.0783,-0.082 0.66367,-0.99765"
     id="path10186"
     style="fill:#0f141b" />
  <path
     d="M 70.368,255.51"
     id="path10188"
     style="fill:#0f141b" />
  <path
     d="m 63.392,247.26 c -0.0473,0.16119 -0.11508,0.31382 -0.1971,0.46069 2.3596,1.6441 3.4335,3.4552 3.0276,5.1309 -0.33096,1.3619 -1.5548,2.2545 -2.6518,2.4877 0.11222,0.14119 0.29219,0.34279 0.3987,0.48513 1.1892,-0.3383 2.4647,-1.4036 2.8188,-2.8692 0.27219,-1.1157 0.0934,-3.304 -3.3961,-5.6952"
     id="path10190"
     style="fill:#0f141b" />
  <path
     d="m 100.08,198.01 c 0.16691,-0.11508 0.33831,-0.22323 0.51252,-0.32402 3.1485,-1.7736 7.0931,-0.0204 9.1518,4.1116 0.37585,0.75292 0.53701,0.5701 0.23017,-0.24771 -1.4094,-3.7647 -5.2159,-5.6736 -8.3859,-4.7998 z"
     id="path10192"
     style="fill:#0f141b" />
  <path
     d="m 111.45,205.4 c -0.11223,-0.63054 -0.55137,-0.85948 -0.44196,-0.21302 0.49378,2.911 -0.73424,5.2115 -3.4019,6.3388 -3.6423,1.5376 -7.1363,0.58451 -9.3577,-2.4747 -0.10651,0.17263 -0.18853,0.35708 -0.25913,0.54852 2.8246,3.8078 6.8254,3.6379 9.8083,2.3754 2.9887,-1.2626 4.1476,-3.7733 3.6524,-6.5749"
     id="path10194"
     style="fill:#0f141b" />
  <path
     d="m 59.67,63.014 c -0.31667,-0.69391 -0.21751,-1.4685 0.29669,-1.3619 1.3129,0.27056 3.2421,0.27913 4.2469,-0.04734 2.6705,-0.8609 6.1228,-6.0163 6.5979,-7.8821 0.008,-0.03265 0.0122,-0.06774 0.004,-0.1008 -0.30362,-1.8068 -10.316,-4.2556 -11.29,-0.91853 -0.4218,-0.17425 -1.0869,-1.5375 -0.53554,-2.3567 1.1488,-1.706 3.5904,-1.8701 4.8674,-1.9176 0.34973,-0.01224 0.7659,-0.15997 1.0898,-0.37707 2.875,-1.9234 7.8389,-2.9801 11.127,-1.4785 2.0184,0.91991 3.2435,2.7396 3.8122,4.9682 0.1265,-0.14691 0.26199,-0.28648 0.40033,-0.4218 -0.61185,-2.2343 -1.8442,-4.054 -3.8079,-4.9495 -3.6582,-1.6686 -8.242,-0.82062 -11.546,1.2698 -0.49379,0.31096 -0.87099,0.46645 -1.4166,0.49668 -1.4065,0.08488 -3.8453,0.41605 -5.0373,2.1854 -0.88972,1.3216 0.35259,3.2133 1.2669,3.0924 0.10651,-0.01224 0.19139,-0.09508 0.21016,-0.19874 0.53701,-3.0593 9.6888,-0.84078 10.252,0.6176 -0.51395,1.7981 -3.756,6.608 -6.1516,7.5077 -0.96456,0.36279 -2.8433,0.34565 -4.0742,0.03673 -0.78174,-0.19711 -1.2064,0.90408 -0.76015,2.04 2.7368,6.9693 12.988,7.9238 17.038,3.2479 -0.0792,-0.18731 -0.1612,-0.37299 -0.24608,-0.55859 -5.0215,4.6904 -13.474,3.4177 -16.346,-2.8937"
     id="path10196"
     style="fill:#0f141b" />
  <path
     d="m 115.11,66.745 c -3.2248,-9.5377 -10.22,-11.478 -15.819,-9.4786 0.0547,0.1612 0.0649,0.32974 0.0592,0.50097 6.0177,-2.2185 12.283,0.53125 15.182,9.1043 1.8788,5.5585 -0.62045,10.689 -7.3695,12.417 -4.9725,1.2755 -10.923,-1.038 -12.377,-7.8144 -0.17711,0.12365 -0.36279,0.23751 -0.54271,0.35708 1.7232,7.7626 8.8538,9.172 13.214,8.0706 6.5216,-1.6484 9.7766,-6.8772 7.6517,-13.157"
     id="path10198"
     style="fill:#0f141b" />
  <path
     d="m 72.13,48.792 c -0.14691,-0.02857 -0.27342,-0.21017 -0.18854,-0.49236 0.0849,-0.26648 0.30974,-0.34279 0.4751,-0.29219 0.20853,0.06489 0.21017,0.30362 0.16283,0.45494 -0.0718,0.23465 -0.28648,0.35993 -0.44918,0.32974"
     id="path10200"
     style="fill:#0f141b" />
  <path
     d="m 107.34,63.154 c -0.1612,0.07631 -0.38891,-0.06489 -0.50677,-0.31382 -0.11793,-0.24894 -0.0473,-0.34851 0.11386,-0.42613 0.1612,-0.07468 0.35259,-0.1008 0.47077,0.14977 0.11957,0.24771 0.0849,0.51109 -0.0775,0.59026"
     id="path10202"
     style="fill:#0f141b" />
  <path
     d="m 32.189,234.15 c -0.0878,0.15834 -0.18282,0.31545 -0.28072,0.46644 5.3583,3.2853 11.916,3.2925 17.276,1.1848 -0.0747,-0.16283 -0.14977,-0.32688 -0.24485,-0.47653 -5.2331,1.9536 -11.655,1.8226 -16.75,-1.1748"
     id="path10204"
     style="fill:#0f141b" />
  <path
     d="m 71.99,82.75 c -1.3072,-1.9378 -3.4134,-9.66 -1.3317,-13.783 -0.17997,0.0041 -0.56867,0.09508 -0.74864,0.08652 -1.909,4.198 -0.0204,11.333 1.4958,13.813 -23.717,30.364 -31.825,78.884 -35.006,98.325 -0.6147,3.7603 -1.2222,5.0776 -3.6668,8.3672 -8.9172,12.004 -11.581,21.422 -10.456,29.745 0.21596,-0.0326 0.43189,-0.0849 0.64496,-0.13548 -0.90841,-7.8317 1.7348,-17.603 10.633,-29.665 2.3682,-3.2104 2.636,-3.5257 3.3774,-8.0577 3.0103,-18.417 11.537,-68.426 35.048,-98.407 0.0661,-0.082 0.069,-0.19996 0.008,-0.28811"
     id="path10206"
     style="fill:#0f141b" />
  <path
     d="m 96.61,76.11 c -1.8816,5.3252 -10.352,10.016 -15.863,11.101 -0.0547,0.0122 -0.10243,0.0408 -0.13834,0.082 -22.45,26.053 -31.763,77.974 -31.461,94.691 0.0747,4.08 0.72844,4.7954 1.9982,6.8038 9.9364,15.715 10.246,27.133 8.8078,33.82 0.23302,0.13956 0.22608,0.0779 0.44628,0.23914 2.3812,-9.5492 -0.32116,-21.574 -8.8207,-34.446 -1.3892,-2.1048 -1.7031,-2.6389 -1.7895,-6.6727 -0.40155,-18.602 10.318,-70.093 31.212,-93.957 5.8061,-1.1776 13.818,-5.6521 15.951,-11.01 -0.111,-0.15099 -0.21874,-0.50672 -0.34279,-0.65069"
     id="path10208"
     style="fill:#0f141b" />
  <path
     d="m 8.335,256.95 c -0.91274,-0.31668 -1.7549,-0.76444 -2.5151,-1.3518 -0.17854,0.0763 -0.33978,0.19139 -0.49524,0.31545 0.82348,0.66658 1.7434,1.1618 2.7411,1.5016 0.06909,-0.1612 0.16989,-0.31546 0.26922,-0.46502"
     id="path10210"
     style="fill:#0f141b" />
  <path
     d="m 22.529,218.65 c -5.6952,2.0947 -14.172,20.863 -14.48,26.24 -2.8131,1.6628 -4.1505,3.9043 -4.509,6.2524 0.1454,-0.0445 0.32537,-0.0163 0.48948,0.0408 0.36712,-2.2272 2.0313,-4.3866 4.4975,-5.8147 0.07341,-0.0433 0.12091,-0.11957 0.12381,-0.20446 0.21449,-5.9774 9.0064,-23.868 14.067,-25.829 2.5438,-0.9919 10.484,11.933 9.0021,14.899 -0.45492,0.9084 -3.7503,3.8381 -5.2101,6.012 -1.2424,1.8442 -2.3625,4.2599 -2.9383,7.561 -0.0228,0.1208 0.0489,0.23914 0.16556,0.27506 1.9968,0.64208 1.2741,4.1922 -1.277,5.7974 -2.9326,1.8456 -5.7744,2.9873 -8.3701,3.4206 -0.11231,0.20445 -0.26779,0.39462 -0.4247,0.56435 -0.001,0.003 -0.004,0.004 -0.006,0.008 2.8563,-0.35545 6.0868,-1.4786 9.2756,-3.4854 2.8347,-1.7823 3.4667,-6.1344 1.2726,-6.7649 0.56434,-3.0693 1.7722,-5.3512 2.9398,-7.1047 1.8946,-2.8519 3.7632,-3.9677 5.0215,-5.7572 2.0299,-2.8807 -6.1545,-17.389 -9.6399,-16.108"
     id="path10212"
     style="fill:#0f141b" />
  <path
     d="m 99.17,199.15 c -0.13671,-1.5664 -1.0639,-1.6643 -1.6009,-0.10651 -6.2596,18.137 -17.377,26.795 -36.4,24.153 0.111,0.16283 0.26199,0.61475 0.33545,0.79614 19.869,2.1422 30.617,-7.3393 36.556,-24.943 0.21873,-0.64784 0.56288,-0.53268 0.62193,0.14405 1.3849,15.897 -11.164,35.565 -31.776,35.68 0.0563,0.16119 0.23343,0.44485 0.28811,0.60899 20.236,-0.21874 33.459,-19.309 31.976,-36.332"
     id="path10214"
     style="fill:#0f141b" />
  <path
     d="m 97.93,198.55 c -2.7353,-3.1211 -8.2621,-7.6877 -15.102,-4.2009 -0.4866,0.24486 -0.36565,-0.0163 -0.11222,-0.51684 3.6625,-7.2932 12.882,-5.891 16.379,3.1658 0.0408,0.10365 -0.29791,0.60752 -0.34566,0.47938 -2.7339,-7.5092 -10.973,-11.288 -15.417,-3.8582 6.7692,-2.983 12.164,1.4281 14.916,4.5479 z"
     id="path10216"
     style="fill:#0f141b" />
  <path
     d="m 98.84,197.43 h 0.003 z m 10.148,-7.4516 h -0.0649 c -3.6193,0.0204 -8.3715,1.9997 -9.8472,7.5164 -0.34973,1.3086 -0.15099,1.1531 0.36565,0.65935 4.2066,-4.0065 11.579,-6.8038 18.78,-1.8456 -1.3893,-3.8755 -4.9366,-6.3301 -9.2339,-6.3301 m -10.544,8.1916 c 0.0245,-0.23628 0.0808,-0.50966 0.15997,-0.80189 2.9253,-10.933 17.544,-9.9681 20.099,-0.84075 0.17997,0.64784 0.30934,0.96746 -0.17139,0.60895 -7.145,-5.367 -14.566,-2.6144 -18.751,1.372 -0.32688,0.31382 -0.58883,0.49378 -0.79181,0.56724 z"
     id="path10218"
     style="fill:#0f141b" />
  <path
     d="m 71.43,82.5 c 0.082,0.14691 0.23914,0.51537 0.29505,0.67375 2.2919,-0.88253 7.7467,2.0112 8.8999,4.5392 0.11793,-0.11957 0.24771,-0.22159 0.40605,-0.28076 -1.3475,-2.8073 -6.7779,-5.6333 -9.601,-4.9322"
     id="path10220"
     style="fill:#0f141b" />
  <path
     d="m 102.57,79.78 c -0.111,2.9038 -1.4181,7.132 -2.9628,9.8414 0.16976,-2.7987 -0.0531,-8.2247 -1.0567,-11.399 -0.23343,-0.17262 -0.47363,-0.33545 -0.69967,-0.51252 1.3518,3.3169 1.5045,10.571 1.1719,12.892 -0.0677,0.47795 -0.0735,0.79181 0.51542,-0.0122 1.8917,-2.5784 3.4753,-7.2832 3.6192,-10.699 -0.16568,0.0204 -0.42037,-0.1208 -0.58736,-0.111"
     id="path10222"
     style="fill:#0f141b" />
  <path
     d="m 115.36,70.808 c -0.0286,0.19303 -0.0661,0.38279 -0.11794,0.56867 2.7972,2.9455 5.976,14.82 5.38,19.671 -1.277,-4.1059 -5.8205,-12.165 -7.7208,-14.817 -0.0963,0.14242 -0.19302,0.2877 -0.29382,0.42755 2.1033,2.9902 7.1406,11.939 7.8086,15.44 0.15548,0.82638 0.38728,0.46069 0.51105,-0.23016 0.92138,-5.1683 -2.3394,-18.154 -5.5671,-21.061"
     id="path10224"
     style="fill:#0f141b" />
  <path
     d="m 62.571,56.43 c -6.1991,0.64209 -15.587,4.5378 -20.273,8.3528 2.564,-6.2279 8.1427,-10.437 16.598,-12.523 -0.0677,-0.14977 -0.18445,-0.32974 -0.22445,-0.48803 -8.8769,2.2041 -14.575,6.7375 -16.981,13.517 -0.21303,0.6032 -0.24771,0.83932 0.1971,0.49522 4.663,-3.6193 14.284,-8.2016 20.744,-8.8668 0.004,-0.16283 -0.0163,-0.32688 -0.0604,-0.4866"
     id="path10226"
     style="fill:#0f141b" />
  <path
     d="M 66.644,46.686 C 60.0735,43.4972 45.93,41.7653 34.38,47.52674 c 8.7502,-10.246 24.949,-12.68 37.585,-5.7931 -0.25056,-0.34688 -0.51252,-0.68098 -0.80907,-0.98619 -14.037,-7.0197 -29.828,-2.8793 -37.781,7.3695 -0.29945,0.38564 -0.36854,0.61474 0.25049,0.30076 12.266,-6.1861 27.05,-3.923 32.442,-1.3417 0.0837,0.04081 0.61332,-0.37136 0.57586,-0.39013"
     id="path10228"
     style="fill:#0f141b" />
  <path
     d="M 77.21,46.722 C 66.076,32.652 47.32,29.111 32.191,31.417 c 11.503,-6.9679 25.381,-7.2558 37.534,-0.77308 -0.23302,-0.30974 -0.4722,-0.61474 -0.71407,-0.91991 -13.111,-6.5763 -26.392,-5.678 -38.113,1.9262 -0.60177,0.39013 -0.4175,0.43768 0.16413,0.35422 17.693,-2.5496 35.257,2.4344 45.129,14.399 0.31097,0.10937 1.0438,0.34973 1.0193,0.31831"
     id="path10230"
     style="fill:#0f141b" />
  <path
     d="m 113.77,55.572 c -0.68097,0.04326 -1.3576,0.15548 -2.0299,0.27056 h 0.003 c 14.096,0.7126 27.781,18.744 29.557,30.356 -7.7165,-10.517 -17.096,-21.304 -28.547,-23.763 0.18731,0.18446 0.40604,0.52403 0.54851,0.74574 10.835,2.5366 21.675,15.155 28.162,24.074 0.35545,0.49236 0.51542,0.41461 0.47367,-0.0204 -1.2627,-12.679 -14.41,-29.415 -28.168,-31.665"
     id="path10232"
     style="fill:#0f141b" />
  <path
     d="m 150.04,45.263 c -12.493,-14.751 -32.974,-10.255 -44.757,-2.2862 -0.29668,0.35708 -0.72987,1.1013 -0.68383,1.0682 12.832,-9.2281 32.634,-12.011 44.38,0.71118 -11.038,-5.1021 -25.192,-3.1399 -34.078,2.0313 -0.0327,0.0204 0.87098,0.07182 0.87098,0.07182 6.8671,-3.7258 22.181,-7.2443 34.094,-1.1273 0.55137,0.28362 0.65503,0.09794 0.17426,-0.4693"
     id="path10234"
     style="fill:#0f141b" />
  <path
     d="m 152.81,68.702 c -7.4876,-16.398 -32.545,-28.718 -52.279,-18.753 -0.13834,0.25914 -0.28077,0.51538 -0.4218,0.77165 19.044,-10.181 44.481,2.063 52.043,17.731 -13.93,-10.561 -33.162,-16.455 -45.841,-11.382 -0.12651,0.04897 0.57732,0.45922 0.70256,0.41029 11.853,-4.6429 31.767,1.287 45.268,11.688 0.79182,0.60756 0.9948,0.55284 0.52836,-0.46644"
     id="path10236"
     style="fill:#0f141b" />
  <path
     d="m 114.79,18.634 c -4.7912,0.46212 -11.798,6.5864 -15.686,12.273 -0.35544,0.63776 -0.64784,1.3058 -0.91705,1.9824 2.718,-3.6697 10.761,-13.405 16.678,-13.77 -5.1222,4.0396 -10.898,10.171 -12.919,16.154 -0.0473,0.14528 0.78749,-0.71264 0.86237,-0.87098 1.9954,-4.1836 5.9169,-9.4758 12.457,-14.975 0.84075,-0.70685 0.799,-0.91559 -0.47505,-0.79324"
     id="path10238"
     style="fill:#0f141b" />
  <path
     d="m 69.256,0.52 c 7.3652,7.168 13.93,26.92 15.398,36.504 0.0963,0.17711 0.79757,1.2597 0.93432,1.4353 -1.2597,-8.8466 -7.9742,-29.884 -15.522,-37.815 8.7459,2.4978 18.114,19.356 19.736,32.023 0.12692,-0.30974 0.34116,-0.93432 0.45351,-1.2482 -1.7089,-11.254 -10.767,-29.187 -20.619,-31.319 -0.88686,-0.19303 -0.94873,-0.131 -0.38157,0.42037"
     id="path10240"
     style="fill:#0f141b" />
  <path
     d="m 11.388,253.8 c -0.9876,0.18568 -3.412,3.7762 -3.1125,4.437 0.41174,0.5874 5.4491,-0.39013 5.5988,-0.989 0.12239,-1.3418 -1.7247,-3.5847 -2.4863,-3.448 m -2.1724,5.118 c -1.6614,0.0245 -1.8399,-0.29505 -0.99912,-2.2099 0.62193,-1.4166 2.1753,-3.2205 3.0823,-3.3889 1.2726,-0.2375 3.3026,2.5208 3.1543,4.1376 -0.0878,0.92714 -3.9288,1.4411 -5.2374,1.4612"
     id="path10242"
     style="fill:#0f141b" />
  <path
     d="m 5.851,255.45 m -1.9176,-4.0368 c -1.7218,1.1518 -3.6682,4.4183 -3.3357,4.8171 0.0014,10e-4 0.13532,0.14528 0.92282,0.13671 1.6138,-0.0204 4.0324,-0.61042 4.3189,-0.90408 0.21739,-1.1661 -1.3576,-4.1519 -1.9061,-4.0498 m -2.4589,5.4433 c -1.6426,0 -1.7031,-0.2677 -1.1877,-1.5246 0.5629,-1.3777 2.2199,-3.5544 3.3789,-4.3276 0.13532,-0.0894 0.36422,-0.151 0.69535,0.0735 0.88826,0.60177 2.2387,3.1542 1.9522,4.5133 -0.14255,0.6824 -3.4062,1.2655 -4.8386,1.2655"
     id="path10244"
     style="fill:#0f141b" />
  <path
     d="m 28.348,238.41 c -0.34696,0.26934 -4.8761,-1.7636 -7.9123,-3.7963 -2.6749,-1.7895 -5.9544,-4.4255 -5.9544,-5.4634 -0.0806,0.14406 -0.23755,0.34566 -0.31962,0.48947 -0.0835,0.60033 2.7987,3.2867 6.0638,5.4505 2.983,1.9752 6.2581,3.5257 7.7309,3.7114 0.10076,-0.12651 0.30807,-0.24893 0.3916,-0.39176"
     id="path10246"
     style="fill:#0f141b" />
  <path
     d="m 24.699,244.63 c -1.0049,-0.22731 -3.2651,-0.82777 -5.7212,-1.7405 -0.79181,-0.29219 -0.81196,0.15548 -0.02,0.45061 2.4546,0.90984 4.5579,1.5246 5.6175,1.7621 0.0446,-0.15711 0.0849,-0.31545 0.12381,-0.47224"
     id="path10248"
     style="fill:#0f141b" />
  <path
     d="m 15.628,241.46 c -2.921,-1.4368 -4.6558,-2.9484 -5.0301,-4.3837 l -0.30378,0.60752 c 0.62481,1.4454 2.1177,2.685 4.938,4.0627 0.99912,0.48661 1.4137,0.21302 0.39589,-0.28648"
     id="path10250"
     style="fill:#0f141b" />
  <path
     d="m 23.828,247.61 c -0.83643,0.51537 -2.1782,1.0783 -2.7641,1.1848 -0.80189,0.14691 -0.65073,0.55859 0.0576,0.40442 0.8825,-0.19425 1.9594,-0.57153 2.8347,-1.0912 -0.0777,-0.15548 -0.12524,-0.31954 -0.12814,-0.49812"
     id="path10252"
     style="fill:#0f141b" />
  <path
     d="m 16.623,248.93 c -3.1874,-0.44486 -6.2725,-1.9925 -8.1858,-4.0972 -0.05901,0.16405 -0.15691,0.30076 -0.27354,0.42759 1.9896,2.135 4.8574,3.5401 8.1009,3.9964 1.0668,0.14814 1.418,-0.17996 0.35847,-0.32688"
     id="path10254"
     style="fill:#0f141b" />
  <path
     d="m 74.67,234.06 c 1.2036,-1.5174 0.90698,-4.0108 0.3281,-5.6506 -0.33667,-0.94587 -0.80907,-0.94012 -0.48085,-0.0837 0.71693,1.8643 0.9473,4.2613 -0.45926,5.6894 -0.0367,0.0408 0.3885,0.0865 0.61185,0.0445"
     id="path10256"
     style="fill:#0f141b" />
  <path
     d="m 71.29,223.81 c -0.4218,0.0286 -1.1618,0.23751 -1.0495,0.24486 0.94872,0.0677 1.9723,0.71117 2.8548,1.788 0.5053,0.6176 0.7659,0.41894 0.31831,-0.25343 -0.60462,-0.90697 -1.3648,-1.4713 -2.1235,-1.7794"
     id="path10258"
     style="fill:#0f141b" />
  <path
     d="m 84.7,229.19 c -0.069,0.1208 0.29382,0.10529 0.58736,-0.0735 1.4684,-3.2176 -1.562,-8.1066 -5.1352,-7.5942 -0.25914,0.0367 -0.95738,0.55284 -0.82924,0.50533 3.5991,-1.3173 7.0658,4.257 5.3771,7.1622"
     id="path10260"
     style="fill:#0f141b" />
  <path
     d="m 91.44,222.5 c -0.0461,0.10814 0.40442,0.0122 0.56435,-0.12977 0.76876,-2.6864 -2.4215,-5.7831 -4.4543,-5.7053 -0.1669,0.17262 -0.48513,0.51109 -0.43188,0.49525 1.8672,-0.54851 5.3195,3.029 4.3218,5.3396"
     id="path10262"
     style="fill:#0f141b" />
  <path
     d="m 92.3,211.06 c -0.11508,0.20894 -0.32116,0.40156 -0.44486,0.6032 1.9205,-0.85515 4.5507,1.5908 4.5018,2.7943 -0.004,0.131 0.3885,-0.32524 0.38279,-0.62045 -0.57875,-1.6901 -2.7843,-3.078 -4.4399,-2.7771"
     id="path10264"
     style="fill:#0f141b" />
  <path
     d="m 95.51,205.12 c -0.0894,0.17711 -0.24771,0.68959 -0.15548,0.58736 0.8134,-0.90983 3.1284,0.11223 3.0736,1.0294 -0.008,0.10815 0.30239,-0.30974 0.36116,-0.59026 -0.29097,-0.93431 -2.1105,-1.8428 -3.2795,-1.0265"
     id="path10266"
     style="fill:#0f141b" />
  <path
     d="m 49.268,216.7 c -0.91416,-0.0661 -0.88682,-0.55712 0.0245,-0.47938 6.7246,0.50097 10.861,0.69677 11.352,0.60462 0.13385,-0.0245 0.0432,0.42185 -0.0906,0.44633 -0.87241,0.16405 -7.4746,-0.28933 -11.287,-0.57157"
     id="path10268"
     style="fill:#0f141b" />
  <path
     d="m 42.045,215.64 c -5.986,-0.52545 -16.066,-1.5318 -19.291,-2.5726 0.007,0.17262 0.0102,0.34402 0.006,0.51681 3.4494,1.0409 12.976,1.8946 18.881,2.4129 1.2683,0.10937 1.6872,-0.24485 0.40442,-0.35708"
     id="path10270"
     style="fill:#0f141b" />
  <path
     d="m 59.305,206.22 c -0.52831,0 -9.2612,-0.75435 -18.112,-1.5663 -1.1892,-0.10815 -0.68098,0.37993 0.52259,0.49378 7.4775,0.70543 16.497,1.5577 17.673,1.611 0.0245,0.001 -0.0592,-0.53843 -0.0837,-0.53843"
     id="path10272"
     style="fill:#0f141b" />
  <path
     d="m 33.609,203.94 c -4.6875,-0.44918 -7.584,-0.75006 -8.3845,-0.87531 -0.009,-0.001 -0.0143,10e-4 -0.0229,10e-4 -0.0446,0.14977 -0.0835,0.478 -0.0518,0.48375 1.0135,0.15671 4.8343,0.58451 8.2823,0.81051 1.0624,0.069 1.2338,-0.31954 0.17707,-0.42038"
     id="path10274"
     style="fill:#0f141b" />
  <path
     d="m 49.988,186.15 c -3.3832,-0.46644 -11.552,-0.49954 -14.022,-0.61184 -0.0245,0.1669 -0.0649,0.3281 -0.12366,0.48513 1.6441,0.0792 11.357,0.19425 14.241,0.63633 -0.0367,-0.16976 -0.0649,-0.33953 -0.0951,-0.50962"
     id="path10276"
     style="fill:#0f141b" />
  <path
     d="m 49.741,175.67 c -2.4114,-0.94873 -8.7242,-1.873 -12.001,-1.2007 -0.0326,0.17833 0.16977,0.3885 0.12365,0.56292 3.0477,-0.73134 9.6672,0.33259 11.889,1.2136 0.0461,-0.15099 -0.062,-0.42613 -0.0122,-0.57585"
     id="path10278"
     style="fill:#0f141b" />
  <path
     d="m 51.175,164.57 c -3.0391,-1.7362 -7.9065,-2.3337 -11.179,-1.6167 -0.0245,0.16854 -0.0367,0.33994 -0.0416,0.51252 2.8275,-0.68673 8.3269,-0.0604 11.116,1.6095 0.0326,-0.16976 0.069,-0.3383 0.10529,-0.50529"
     id="path10280"
     style="fill:#0f141b" />
  <path
     d="m 42.689,150.89 c -0.0286,0.18568 -0.0649,0.37136 -0.10202,0.55423 2.8807,-1.133 7.99,-0.29505 10.433,1.9435 0.0445,-0.17262 0.0837,-0.47649 0.1208,-0.6507 -2.6936,-2.0213 -7.4315,-2.875 -10.452,-1.847"
     id="path10282"
     style="fill:#0f141b" />
  <path
     d="m 45.73,139.91 c -0.0245,0.17997 -0.0633,0.35708 -0.111,0.53125 1.2871,-0.74141 3.5818,-0.80332 5.6118,-0.19996 1.8701,0.55716 3.5127,1.7132 4.0166,2.8188 0.0245,-0.20282 0.2979,-0.50962 0.29382,-0.7126 -0.80908,-1.097 -2.4028,-2.1235 -4.2124,-2.6202 -2.0256,-0.55569 -4.2988,-0.4837 -5.5988,0.18283"
     id="path10284"
     style="fill:#0f141b" />
  <path
     d="m 49.167,128.2 c -0.0408,0.18119 -0.0894,0.3583 -0.15385,0.53267 3.0016,-1.2006 8.7588,0.83214 9.542,2.9182 0.0204,0.0575 0.14977,-0.37299 0.18853,-0.6176 -1.0221,-2.1048 -6.5576,-3.9173 -9.5765,-2.8332"
     id="path10286"
     style="fill:#0f141b" />
  <path
     d="m 61.851,121.78 c -1.6613,-2.4056 -6.8383,-4.4514 -9.1331,-3.183 -0.11794,0.0677 0.0563,-0.47224 0.12977,-0.50533 2.6979,-1.2439 7.453,0.81197 9.2123,3.3573 0.0747,0.11222 -0.16283,0.3987 -0.20895,0.33096"
     id="path10288"
     style="fill:#0f141b" />
  <path
     d="m 57.11,108.05 c -0.10365,0.23342 -0.24485,0.44485 -0.3885,0.65792 0.0327,-0.003 0.0677,-0.008 0.10202,-0.0245 2.1753,-1.1344 7.8144,0.67232 9.1792,2.8476 0.0865,-0.16977 0.25914,-0.40887 0.32974,-0.58883 -1.6585,-2.0961 -6.7706,-3.6408 -9.2224,-2.8908"
     id="path10290"
     style="fill:#0f141b" />
  <path
     d="m 62.26,97.58 c -0.10243,0.18853 -0.20731,0.37585 -0.31382,0.56292 2.6417,-0.76015 7.9224,1.4252 8.9359,3.8237 0.10202,-0.15548 0.21302,-0.30239 0.32973,-0.44771 -1.2366,-2.361 -6.1099,-4.3578 -8.9517,-3.9389"
     id="path10292"
     style="fill:#0f141b" />
  <path
     d="m 66.701,89.99 c -0.0763,0.21302 -0.15997,0.4247 -0.25913,0.62768 2.1667,-1.2035 8.3701,1.7722 8.8409,4.1476 0.11222,-0.1714 0.23016,-0.33994 0.35422,-0.50533 -1.0711,-2.7411 -6.4539,-4.9596 -8.9359,-4.27"
     id="path10294"
     style="fill:#0f141b" />
  <path
     d="m 61.845,51.199 c -0.13099,0.9948 -0.6349,2.9326 -0.91273,3.1543 -0.22608,-0.17548 -0.86237,-1.1417 -1.2208,-1.7549 -0.10814,0.07917 -0.16854,0.26771 -0.28647,0.32974 0.28076,0.49089 0.69101,1.1344 1.0696,1.5491 0.41751,0.45922 0.52545,0.47073 0.84364,-0.03265 0.46787,-0.73709 0.80475,-2.5064 0.9113,-3.2594 -0.13548,0 -0.26934,0.0041 -0.40441,0.01632"
     id="path10296"
     style="fill:#0f141b" />
  <path
     d="m 69.77,52.988 c -0.96888,1.1964 -1.7866,1.9018 -1.9939,1.8313 -0.0763,-0.02857 -0.44775,-0.3126 -0.57442,-2.8505 -0.14691,-0.0706 -0.36728,-0.14406 -0.50101,-0.23628 0.0763,1.9176 0.41029,2.7526 0.59026,3.1715 0.20731,0.47652 0.26199,0.57585 0.97031,0.15385 0.57732,-0.34116 1.2957,-1.1489 1.8442,-1.8327 -0.10937,-0.08366 -0.22159,-0.16283 -0.33545,-0.23751"
     id="path10298"
     style="fill:#0f141b" />
  <path
     d="m 61.747,52.998 c -0.0592,0.13671 -0.21302,0.40727 -0.26933,0.54851 1.3202,1.1315 1.4224,5.3109 -0.44196,7.1982 -0.062,0.06489 0.71693,-0.42037 0.89399,-0.48371 1.2597,-1.8255 1.372,-5.7557 -0.18282,-7.263"
     id="path10300"
     style="fill:#0f141b" />
  <path
     d="m 60.31,61.563 c 0.15548,0 0.3126,0.0029 0.46935,0.0082 0.9919,-1.4598 3.5646,-2.4071 5.5772,-2.0774 0.10937,-0.11957 0.26934,-0.34565 0.38156,-0.46069 -2.7195,-0.47942 -5.4246,0.77019 -6.428,2.5295"
     id="path10302"
     style="fill:#0f141b" />
  <path
     d="m 75.08,49.483 c -0.16568,-0.55137 -0.5701,-0.98182 -1.169,-1.2453 -1.2136,-0.53125 -3.0319,-0.28934 -4.9884,0.66078 -0.40605,0.19874 -0.47077,-0.131 -0.0706,-0.33831 2.1652,-1.12 3.9821,-1.3288 5.3252,-0.74142 0.70257,0.30647 1.1719,0.89979 1.372,1.5606 0.10366,0.34565 -0.37136,0.43045 -0.46934,0.10366"
     id="path10304"
     style="fill:#0f141b" />
  <path
     d="m 74.05,50.951 c -0.60899,-0.30647 -3.0607,-0.99194 -5.1251,-1.0553 -0.64784,-0.0204 -0.57732,-0.31096 0.10202,-0.30239 1.824,0.02448 4.3175,0.54129 5.249,1.0437 0.53986,0.29382 0.25628,0.55569 -0.22608,0.31382"
     id="path10306"
     style="fill:#0f141b" />
  <path
     d="m 103.68,63.624 c 0.85372,0.88824 2.4604,0.79614 3.6812,0.29219 0.95591,-0.39299 1.9536,-1.1618 1.9507,-2.1738 -1.7592,0.87531 -3.5789,1.4742 -5.6319,1.8816 m -0.33382,-0.31096 c 2.1105,-0.40605 4.1073,-1.0797 5.9659,-1.9637 0.5845,-0.27791 0.57585,-0.03265 0.34687,0.20731 -0.0408,0.04326 -0.0122,0.13957 -0.0163,0.21751 -0.0747,1.0654 -0.68959,1.9291 -2.1249,2.5208 -1.3144,0.54276 -2.8534,0.74574 -4.2383,-0.54419 -0.33423,-0.31219 -0.32525,-0.36116 0.0677,-0.43763"
     id="path10308"
     style="fill:#0f141b" />
  <path
     d="m 114.22,65.753 c -2.1955,1.2827 -6.0206,2.5079 -8.1484,0.87098 -0.43045,-0.33096 -0.45351,-0.03673 -0.0367,0.31545 1.8888,1.5865 5.3152,0.94297 8.3543,-0.8105 -0.0502,-0.12814 -0.10814,-0.25179 -0.16854,-0.37585"
     id="path10310"
     style="fill:#0f141b" />
  <path
     d="m 114.76,67.24 c -1.3043,0.82348 -5.236,1.814 -7.2371,0.24322 -0.19425,-0.05468 -0.99048,-0.30525 -0.92139,-0.22894 1.9637,2.1249 6.0782,1.6527 8.265,0.39299 -0.0286,-0.111 -0.0979,-0.38156 -0.10651,-0.40727"
     id="path10312"
     style="fill:#0f141b" />
  <path
     d="m 111.26,205.49 c 0.97749,-0.6147 1.8341,-1.6858 1.8255,-1.932 -0.0992,-0.24894 -0.68383,-0.131 -1.5692,0.17262 -0.30362,0.10202 -0.34402,0.049 -0.14691,-0.49526 0.36564,-1.0077 0.7961,-2.4618 0.63053,-2.7296 -0.16405,-0.11508 -1.2352,0.62193 -1.8902,1.4713 -0.0808,0.10652 -0.37299,-0.3787 -0.28934,-0.4866 0.44486,-0.57871 1.3158,-1.3345 1.9594,-1.4655 0.58883,-0.11794 0.79034,0.082 0.74284,0.81769 -0.0286,0.42041 -0.19302,1.1057 -0.65935,2.2675 0.96889,-0.26648 1.539,-0.17997 1.6945,0.31668 0.18854,0.61327 -1.3446,2.1595 -2.1494,2.6662 -0.0416,0.0245 -0.26363,-0.53125 -0.14814,-0.60324"
     id="path10314"
     style="fill:#0f141b" />
  <path
     d="m 88.59,48.072 c -5.2446,0 -10.187,3.8381 -12.273,9.9623 -2.0846,6.1156 0.54708,11.68 6.7059,14.178 5.6118,2.2775 12.238,1.087 14.798,-5.2245 3.3962,-8.3672 0.20894,-16.458 -5.9443,-18.404 -1.0941,-0.34565 -2.1954,-0.51109 -3.2867,-0.51109 m -5.7413,24.581 c -6.5964,-2.6763 -9.3231,-8.3845 -7.1219,-14.849 2.5943,-7.6114 9.7666,-11.748 16.336,-9.6701 6.9348,2.1926 9.5694,11.041 6.3892,18.877 -2.8318,6.9837 -9.9408,7.9396 -15.603,5.642"
     id="path10316"
     style="fill:#0f141b" />
  <path
     d="m 85.48,55.982 c 0.60463,-0.36687 1.1215,-1.0265 1.4295,-1.8298 0.54708,-1.4281 0.0204,-3.124 -1.2467,-3.5458 -1.2885,-0.42755 -2.623,0.5226 -3.1356,1.86 -0.30648,0.80475 -0.3281,1.7938 -0.0649,2.5842 0.26934,0.80332 0.008,0.87817 -0.3383,0.09345 -0.40319,-0.90555 -0.40605,-1.9291 -0.053,-2.8534 0.59744,-1.5591 2.1912,-2.6216 3.7387,-2.2372 1.7708,0.43906 2.2041,2.6864 1.6052,4.2469 -0.22731,0.59744 -0.87674,1.5159 -1.6657,1.9003 -0.62915,0.30811 -0.82923,0.11957 -0.26934,-0.21874"
     id="path10318"
     style="fill:#0f141b" />
  <path
     d="m 94.5,58.594 c 0.61907,-0.4693 1.2842,-1.2309 1.5188,-2.0241 0.47653,-1.6124 -0.18568,-3.4839 -1.6182,-3.8324 -1.2971,-0.31831 -2.6993,0.6234 -3.1715,2.2214 -0.24894,0.84074 -0.19425,1.8644 0.12814,2.682 0.21302,0.53268 0.0408,0.70832 -0.23629,0.23465 -0.5701,-0.98904 -0.59744,-2.1249 -0.31382,-3.0837 0.53697,-1.8096 2.1969,-2.8865 3.7042,-2.5194 1.6469,0.40319 2.6043,2.3322 1.981,4.4471 -0.262,0.88106 -0.9113,1.6772 -1.6815,2.0126 -0.49522,0.21465 -0.73419,0.18446 -0.31096,-0.13834"
     id="path10320"
     style="fill:#0f141b" />
  <path
     d="m 84.2,52.754 c -0.24771,-0.15711 -0.29791,-0.51827 -0.11508,-0.80912 0.18282,-0.28934 0.53263,-0.39748 0.78026,-0.24036 0.24608,0.15548 0.29954,0.51827 0.11671,0.80765 -0.18282,0.28934 -0.53125,0.3987 -0.78173,0.242"
     id="path10322"
     style="fill:#0f141b" />
  <path
     d="m 93.14,54.979 c -0.25791,-0.14528 -0.3281,-0.5024 -0.15833,-0.80185 0.1669,-0.29954 0.51105,-0.42613 0.76586,-0.2824 0.25464,0.14406 0.32688,0.50391 0.15833,0.80189 -0.1669,0.2979 -0.50819,0.4276 -0.7659,0.28199"
     id="path10324"
     style="fill:#0f141b" />
  <path
     d="m 92.39,81.89 c -0.28076,-1.5836 -0.92281,-2.9326 -2.1912,-4.401 -0.84796,-0.98039 -1.4181,-0.92281 -0.5845,0.0286 1.3403,1.5289 2.148,3.1888 2.3495,4.8242 0.12814,-0.12365 0.41176,-0.42612 0.42616,-0.45204"
     id="path10326"
     style="fill:#0f141b" />
  <path
     d="m 87,74.77 c -4.3305,-3.2479 -10.97,-5.8075 -17.198,-3.7963 -0.004,0.17997 0.0122,0.29954 0,0.47795 5.557,-2.1221 12.439,0.4722 16.927,3.5372 1.1316,0.77308 1.3489,0.59026 0.27056,-0.21874"
     id="path10328"
     style="fill:#0f141b" />
  <path
     d="M 119.81,5.387 C 103.892,3.8322 90.713,24.226 86.858,41.234 c 0.131,0.21588 0.22608,0.64352 0.32688,0.87674 3.8323,-16.805 16.222,-37.003 31.914,-36.407 -10.789,5.3526 -25.073,31.065 -26.806,42.723 0.0408,0.01632 0.50391,0.29954 0.61185,0.37871 1.6254,-13.347 17.282,-39.108 27.284,-43.053 0.70252,-0.27628 0.069,-0.32239 -0.37871,-0.36565"
     id="path10330"
     style="fill:#0f141b" />
  <path
     d="m 145.82,21.63 c -21.202,-7.9267 -43.867,7.6013 -53.169,26.962 0.15262,0.05917 0.30076,0.12365 0.45061,0.19303 10.034,-20.873 32.962,-33.636 52.04,-26.88 -19.447,0.2877 -38.837,14.169 -46.907,32.513 0.13671,0.12651 0.25465,0.26648 0.34973,0.42327 7.6906,-17.736 27.473,-32.404 47.094,-32.451 1.215,-0.0029 1.241,-0.34851 0.1412,-0.76015"
     id="path10332"
     style="fill:#0f141b" />
  <path
     d="m 42.253,9.452 c 17.65,-4.6385 42.639,19.108 46.296,38.426 0.16569,-0.01224 0.32974,-0.0204 0.49522,-0.02448 -4.8732,-22.338 -30.663,-44.026 -47.464,-38.606 -0.48371,0.15548 -0.72268,0.19588 -0.19139,0.40156 16.824,6.5072 37.585,30.428 41.003,40.071 0.1412,-0.09345 0.28526,-0.18446 0.43478,-0.26771 -4.8775,-12.916 -26.155,-34.79 -40.574,-40.001"
     id="path10334"
     style="fill:#0f141b" />
  <path
     d="m 92.67,61.992 c -2.1854,-1.3288 -6.6281,-3.1025 -11.543,-3.3472 -1.3518,-0.06897 -2.1638,-0.88106 -2.2401,-1.6512 -0.062,-0.61185 0.34688,-1.0596 1.0207,-1.2323 0.45493,-0.11957 0.5399,0.08039 0.0992,0.25179 -0.45351,0.17711 -0.7213,0.4895 -0.6824,0.89547 0.0592,0.58018 0.71835,1.2266 1.8284,1.2813 4.4398,0.22445 9.8788,2.2905 11.677,3.3861 1.1531,0.7011 2.4172,0.763 2.8735,0.38442 0.21466,-0.17834 0.29097,-0.48371 0.18854,-0.72272 -0.1412,-0.33667 0.0575,-0.52113 0.23016,-0.20282 0.23629,0.42902 0.13834,0.99337 -0.1567,1.2381 -0.57586,0.47942 -2.004,0.50534 -3.2954,-0.28076"
     id="path10336"
     style="fill:#0f141b" />
  <path
     d="m 84.21,69.416 c -3.8122,-1.2439 -5.1683,-7.0298 -4.0324,-11.154 0.0286,-0.10814 0.40441,0.1208 0.37422,0.22894 -1.0855,3.9475 0.19139,9.3649 3.7848,10.537 4.6904,1.5332 8.2838,-2.3985 10.086,-6.585 0.0445,-0.10365 0.41894,0.05754 0.37421,0.16283 -2.6821,6.2337 -6.9737,7.9915 -10.587,6.811"
     id="path10338"
     style="fill:#0f141b" />
  <path
     d="m 91.33,67.403 c -1.5418,-3.3184 -7.4588,-5.3728 -11.118,-3.8251 10e-4,0.14691 0.008,0.29382 0.0204,0.4391 3.543,-1.6326 9.2426,0.19996 10.758,3.6308 0.11385,-0.0808 0.22608,-0.1612 0.3383,-0.24485"
     id="path10340"
     style="fill:#0f141b" />
  <path
     d="m 83.27,58.654 c -1.4425,2.0731 -1.9032,2.3941 -2.0357,2.3941 -0.13549,-0.07346 -0.30811,-0.59601 -0.37422,-2.6634 -0.003,-0.05632 -0.41029,-0.05183 -0.40886,0.01632 0.0408,1.2568 0.1669,2.1825 0.32973,2.6979 0.17997,0.5701 0.33259,0.57875 0.88682,0.16405 0.44343,-0.33382 1.074,-1.1215 2.027,-2.5021 -0.14243,-0.03673 -0.28363,-0.0706 -0.4247,-0.10529"
     id="path10342"
     style="fill:#0f141b" />
  <path
     d="m 94.13,62.407 c -1.7118,1.9032 -2.1638,2.0558 -2.2689,2.0342 -0.0894,-0.07917 -0.27505,-0.54994 -0.12651,-3.15 -0.13385,-0.05632 -0.26362,-0.12365 -0.39298,-0.18854 -0.001,0.0082 -0.004,0.01632 -0.004,0.0204 -0.11222,1.8528 -0.0735,2.7814 0.0563,3.2493 0.13671,0.49668 0.38156,0.64784 0.87098,0.39299 0.49236,-0.26077 1.2093,-1.0034 2.3394,-2.2717 -0.15711,-0.01632 -0.31545,-0.04897 -0.4722,-0.08774"
     id="path10344"
     style="fill:#0f141b" />
  <path
     d="m 67.444,235.96 c -0.47506,-5.9573 -5.7831,-13.743 -7.5164,-13.743 -2.7555,0 -9.9307,6.1833 -11.314,11 -0.32973,1.1445 -0.45779,2.2804 0.75439,3.5228 1.1431,1.169 1.4785,3.6639 1.0725,5.5887 -0.27219,1.3029 -0.76153,2.2732 -1.2481,2.4704 -1.7607,0.71118 -4.3837,2.9757 -4.5565,5.2662 -0.0894,1.1892 0.98619,2.482 3.0953,3.7388 3.7747,2.2487 9.506,3.7819 11.339,3.4278 -0.0204,-0.1612 0.0245,-0.43764 0.0518,-0.60895 -1.2453,0.43473 -7.3307,-1.1028 -11.104,-3.3515 -1.9061,-1.1374 -2.8764,-2.2516 -2.803,-3.2263 0.15671,-2.0659 2.5597,-4.1447 4.1606,-4.7926 0.65216,-0.26485 1.2323,-1.3202 1.5462,-2.8246 0.43045,-2.0515 0.29668,-4.7019 -0.97174,-6.0019 -0.98329,-1.0078 -0.96745,-1.9478 -0.62482,-3.1413 1.2482,-4.3448 8.1196,-10.316 10.504,-10.407 h 0.0122 c 1.2093,0 6.4842,6.9147 6.978,13.12 0.26077,3.2723 -1.169,7.4545 -3.923,11.507 -2.2862,2.2977 -6.0364,2.1364 -8.4464,1.7016 -0.97321,-0.17547 -0.86238,0.22445 0.0326,0.41752 3.6495,0.78173 7.5711,0.0163 8.9273,-2.0069 1.2568,-1.6426 4.424,-6.7822 4.0353,-11.657"
     id="path10346"
     style="fill:#0f141b" />
  <path
     d="m 50.584,247.51 c -0.73856,-0.75439 -0.96746,-1.6901 -0.68383,-2.7843 0.0204,-0.0718 -0.39585,0.26485 -0.58161,0.49236 -0.0951,0.92857 0.21588,1.8989 0.82058,2.4359 0.55137,0.48661 0.90265,0.32525 0.44486,-0.14405"
     id="path10348"
     style="fill:#0f141b" />
  <path
     d="m 65.602,242.76 c -0.86951,0.64351 -4.1476,0.83499 -7.9742,0.10365 -1.0596,-0.20159 -1.0092,0.18282 0.0473,0.3885 2.6993,0.5226 6.428,0.85658 7.9325,0.0245 0.0445,-0.16569 0.0718,-0.573 -0.004,-0.51685"
     id="path10350"
     style="fill:#0f141b" />
  <path
     d="m 53.698,241.82 c -0.92428,-0.35259 -1.8456,-0.83356 -2.5626,-1.264 -0.0408,0.16568 -0.0763,0.33422 -0.11508,0.50101 0.68669,0.3987 1.539,0.73276 2.4604,1.0654 0.77741,0.28076 0.95016,-0.0245 0.21751,-0.3024"
     id="path10352"
     style="fill:#0f141b" />
  <path
     d="m 66.111,232.12 c -2.8966,0.71693 -11.55,3.0909 -15.639,5.3727 -0.11794,0.0677 0.19874,0.45061 0.2375,0.42759 3.6941,-2.0602 11.71,-4.2124 15.578,-5.3425 -0.0547,-0.15426 -0.11223,-0.30811 -0.17711,-0.45779"
     id="path10354"
     style="fill:#0f141b" />
  <path
     d="m 61.449,253.47 c -0.77598,0.26485 -2.2372,2.6418 -2.1192,3.3515 0.11957,0.71982 4.6443,2.3366 5.0013,1.9061 0.76158,-0.91273 -1.9406,-5.5801 -2.8822,-5.2576 m 2.6619,5.7687 c -0.87389,0 -5.0517,-1.0682 -5.2634,-2.3351 -0.20894,-1.2539 1.6225,-3.625 2.3524,-3.923 1.3388,-0.54994 3.7589,3.4062 3.7402,4.9999 -0.0163,1.251 -0.28648,1.2582 -0.82923,1.2582"
     id="path10356"
     style="fill:#0f141b" />
</svg>
