<?xml version="1.0" encoding="UTF-8"?>
<!-- Created with Inkscape (http://www.inkscape.org/) -->
<svg version="1.1" viewBox="0 0 146.14 247.53" xmlns="http://www.w3.org/2000/svg">
 <g transform="rotate(-19.253 83.341 76.871)" stroke-width="1.2484">
  <path d="m60.418 73.707-6.3281 0.91508 3.7477 6.036s16.559 3.8338 16.94 3.8638c0.38076 0.02996 2.8439-7.0585 2.8439-7.0585z" fill="#986c4c"/>
  <path d="m19.31 154.47c0.63169-2.1622-0.61047-1.9962-1.8014-0.34706-6.6465 9.1945-9.8187 36.913 8.5753 49.942 0.50061-0.36703 0.99373-0.69661 1.4731-0.98374 0.75778-3.4993 2.1947-6.4418 4.0723-8.9248-16.3-12.86-14.4-32.56-12.319-39.687" fill="#c18963"/>
  <path d="m8.041 153.68c-2.3857 2.9113-3.0386 7.177 0.63793 9.9223 1.4469 1.0799 2.7802 1.3757 4.6153 0.98749 1.0973-6.3569 4.4793-11.648 5.9262-12.097-2.2633-2.4968-7.9486-2.754-11.179 1.1872" fill="#d5e3a6"/>
  <path d="m5.688 153.71c-0.50186 0.24094-0.032458 1.9575 0.74779 3.0486 0.24593-0.83143 0.64043-1.6516 1.171-2.4244-0.0087388-0.03246-1.6117-0.77151-1.9188-0.6242" fill="#d5e3a6"/>
  <path d="m7.644 154.28c-0.022471-0.0125-0.043694-0.0262-0.066165-0.0387 0.00874 0.0337 0.019974 0.0637 0.028713 0.0961 0.013732-0.0187 0.02372-0.0387 0.037452-0.0574" fill="#ccea9d"/>
  <path d="m2.595 146.66c2.9113-2.2459 13.29-1.558 16.53 6.0834 3.1447-6.5516-11.543-15.817-16.53-6.0834" fill="#00a63c"/>
  <path d="m7.551 151.74c-0.25967 0.31585-0.21722 1.6092 0.026216 2.498 0.022471 0.0125 0.044942 0.025 0.066165 0.0387 0.14481-0.20848 1.0911-1.3008 1.4294-1.598-0.49936-0.75279-1.2559-1.2621-1.5218-0.9388" fill="#d5e3a6"/>
  <g fill="#c18963">
   <path d="m27.557 203.08c-4.7227 2.8326-16.388 14.254-6.6714 20.089 4.9062 2.9475 9.4416 0.45567 11.75-2.4718-6.2807-5.8026-6.3606-11.696-5.0785-17.617"/>
   <path d="m85.457 106.34c-0.93505 7.8524-7.8961 12.452-15.128 12.9-1.6029 0.0999-3.111-0.12734-4.5167-0.59674 5.4867 5.3681 18.9 5.5566 21.892-8.6801-0.74779-1.1885-1.4981-2.3969-2.2471-3.6229"/>
   <path d="m65.477 184.31c12.678-21.034 23.939-48.351 19.463-67.557-3.8126 5.3482-10.006 5.9237-14.629 4.3944 4.9599 19.086-7.1171 44.211-14.807 56.806-1.6167 2.6478-1.5642 2.7977-5.5666 4.2845-20.054 7.4517-21.899 17.011-22.697 22.601-2.7577 19.338 20.556 26.064 30.538 18.495 8.4429-6.4018 10.184-19.531 7.2981-33.279-0.60173-2.8626-0.89885-3.5892 0.40074-5.7451"/>
  </g>
  <path d="m96.827 82.731c-0.52558 2.3695-2.7702 5.9037-3.9062 6.7139 0.31335 0.51934 0.61921 1.0512 0.92257 1.5892 3.8251-0.43819 5.8438-5.8587 2.9837-8.3031" fill="#fff"/>
  <path d="m63.077 216.71c-3.2945 6.7151-8.8586 10.258-16.887 9.7126 1.2859 4.0336 10.191 6.2258 14.54 2.6891 3.4868-2.8339 3.8913-8.2732 2.347-12.402" fill="#c18963"/>
  <path d="m101.87 88.921c4.7689-0.7403 6.9161-5.7938 6.3369-9.3443-0.4332-0.99622-0.99373-1.9537-1.6841-2.8576 0.63294 3.3956-0.53557 9.3992-4.6528 12.202" fill="#923000"/>
  <path d="m31.966 221.38c-3.6141 3.4893-7.3056 4.0573-11.081 1.7902-1.6566-0.99498-2.6553-2.2184-3.1447-3.5717-1.583 1.2334-3.3532 3.0948-3.7527 4.9611 1.0586 8e-3 1.7315 2.7615 1.523 3.8201-0.13108 0.66914 1.3445 1.9163 2.4456 2.5692 0.06242-0.13982 0.12609-0.25218 0.18976-0.32334 0.64043-0.7016 3.7427-0.4669 3.895 1.0212 0.0012 0.015-0.0062 0.0325-0.0075 0.0487 5.5379-0.8951 12.568-7.9049 9.9323-10.316" fill="#c18963"/>
  <path d="m60.425 229.34c-3.7739 2.5892-12.913 1.2222-14.233-2.915-0.40823-0.0275-0.8177-0.0662-1.2272-0.11735 0.32833 3.7964 3.2483 9.2644 7.438 11.334 0.71783-1.1273 2.744-1.7552 3.4319-1.4844 0.34581 0.13608 0.7378 0.82145 1.0137 1.5855 1.0512-0.39449 2.0848-0.98998 2.9575-1.6267 0.24843-1.5256 1.5405-2.6341 2.3582-2.6978 0.31959-1.4581-0.779-3.096-1.739-4.0785" fill="#c18963"/>
  <path d="m19.249 153.14c3.5142-2.7253 11.966-0.95627 15.679 3.352 0.3096-6.5916-12.469-12.634-15.679-3.352" fill="#00a63c"/>
  <path d="m19.757 153.56c-1.2709 2.4169-1.523 8.4292-1.4594 8.3605 1.3495-1.4432 2.6703-5.7514 1.4594-8.3605" fill="#d5e3a6"/>
  <g fill="#fff">
   <path d="m30.406 84.501c-0.61921 1.6566-1.3832 4.6553-0.64542 4.7601 0.31834 0.04619 2.1423-0.61421 2.543-0.83019-0.79273-1.3308-1.4444-2.6728-1.8976-3.93"/>
   <path d="m36.395 93.791c-0.46191 1.2921-0.99373 3.6091-0.6991 3.8301 0.36328 0.2709 2.8002-0.80147 3.7926-1.2571-1.0424-0.66415-2.0911-1.548-3.0935-2.573"/>
   <path d="m41.589 89.331c-0.588 0.21597-0.38201 1.5043 0.07116 1.98 1.6079 1.6878 3.8513 3.6628 4.7427 4.2471 0.76028-1.4419 1.5642-2.8488 2.4057-4.2134-1.1435-1.7066-4.2708-2.5055-7.2195-2.0137"/>
   <path d="m37.427 82.061c1.2234-2.6528 1.6179-6.0847-0.34581-6.7863-1.1985 0.92756-2.2933 2.0299-3.2571 3.3232 0.25842 0.82394 1.2222 2.2721 1.6766 3.0411 0.55429 0.93755 1.6691 0.97874 1.9263 0.42196"/>
  </g>
  <path d="m30.496 91.071c1.0636-0.63918 1.9625-1.0249 2.965-0.84766-0.41072-0.58924-0.79898-1.1885-1.1573-1.7915-0.40074 0.21472-0.77526 0.392-1.1123 0.52682-0.34456 0.69286-0.57426 1.4044-0.69536 2.1123" fill="#923000"/>
  <path d="m64.187 113.69c-0.12484 0.10736-0.23844 0.16853-0.33582 0.17977-0.31584 0.0387-1.3171-0.95752-2.2296-2.5355 2.699 0.60048 9.7775 1.2434 18.109-4.0448-2.2596 9.9485-12.264 10.849-15.544 6.4006m10.996-18.835c2.3432-0.11485 3.6853 1.9163 3.9811 4.6852 0.19475 1.8202-0.10736 2.9337-0.90759 4.3132-0.5443 0.93754-3.1085 1.7403-4.9924 0.21847-0.84392-0.71159-1.4207-2.2459-1.5106-3.6366-0.20474-3.1447 1.3096-5.4755 3.4294-5.5804m-2.4344-12.529c-0.50685-0.05119-1.7153-0.06117-1.789-0.05868-2.8101 2.9625-6.5079 7.8449-10.48 13.736 0.45317-0.34706 0.96002-0.55554 1.5056-0.55928 2.9924 0.14731 3.8226 3.0049 3.8413 5.6815 0.01 1.538-0.40698 3.0773-1.2259 4.0049-0.84267 1.0324-3.2945 1.5131-4.4818 0.26092-1.0724-0.89885-1.7503-2.5967-1.7627-4.2683-5e-3 -0.87264 0.1573-1.7765 0.44818-2.6004-1.2809 1.9525-2.5804 3.9936-3.8788 6.0934 1.6154 9.6601 9.4504 14.936 15.468 14.563 7.2332-0.44817 14.194-5.0485 15.129-12.9-4.6428-7.5953-9.2319-15.831-12.774-23.953" fill="#fff8b0"/>
  <path d="m77.367 111.76c0.45442-0.16104 1.206-2.6329 1.4981-3.9262-1.1885 0.71534-2.3233 1.3133-3.4256 1.8089 0.61296 1.0012 1.5655 2.2459 1.9275 2.1173" fill="#fff"/>
  <path d="m65.397 111.67c-0.40698 1.0324-0.85141 1.7228-1.2072 2.0286 0.31959 0.43444 0.71034 0.81645 1.1535 1.1448 0.1573-0.83518 0.69161-2.322 1.3707-3.1834-0.4332 0.0137-0.87138 0.0175-1.3171 0.01" fill="#923000"/>
  <path d="m61.627 111.34c0.91133 1.578 1.9125 2.5742 2.2284 2.5355 0.09738-0.0112 1.136-1.176 1.5443-2.2084-0.79773-0.0137-3.3632-0.23595-3.7727-0.32708" fill="#fff"/>
  <path d="m56.87 74.755c-4.0498-1.7253-8.3518-2.6241-12.756-2.8201-2.533 0.6267-4.9362 1.7153-7.0335 3.3382 1.9637 0.70035 1.5705 4.1322 0.34706 6.7863-0.25717 0.55679-1.372 0.51434-1.9263-0.42321-0.45442-0.76902-1.4182-2.2159-1.6766-3.0411-0.21098 0.28339-0.41572 0.57551-0.61296 0.87638-0.71159-0.32209-2.9038-1.6167-3.4144 0.71783-0.98998 4.5292 6.051 14.277 10.445 16.616-7.81 4.9661-11.631-2.6491-9.0497-7.8424-0.62046 0.24594-1.1136 0.3483-1.4319 0.30336-2.1373 9.8312 6.4255 15.533 12.851 14.61 1.1123-2.8551 2.3794-5.6478 3.7901-8.3206-0.89136-0.58425-3.1335-2.5592-4.7414-4.2458-0.45317-0.47564-0.65916-1.7652-0.07116-1.9812 2.9487-0.49187 6.076 0.30835 7.2195 2.0137 3.1347-5.0772 6.8175-9.5553 10.937-12.998-0.47314-1.327-1.5081-2.553-2.8763-3.5892" fill="#fff8b0"/>
  <path d="m99.597 60.209c13.578-9.172 40.848-8.2307 51.021-4.2109-12.856-15.237-40.925-17.636-59.183-4.5704 4.9674-7.3843 26.094-26.064 42.354-34.073-20.825-2.2309-49.629 14.566-59.876 42.382 0.2734-23.878 15.318-55.339 22.305-59.335-12.157-0.052433-29.16 23.199-29.206 39.835-4.674-10.095-12.77-17.911-24.534-19.036 6.8837 4.5467 13.192 14.044 17.777 23.281-18.574-20.062-39.079-21.897-48.671-13.681 20.532-0.55554 41.03 16.3 49.674 28.404-14.686-14.196-43.096-19.959-59.594 3.8438 12.088-6.7751 23.683-10.364 43.771-1.4107-21.429-1.8614-41.794 13.938-45.001 28.872 21.636-21.228 47.178-21.979 61.022-13.427-0.54056 0.40448-1.0736 0.82769-1.6004 1.2684-13.47 11.258-25.389 36.627-22.099 59.423 7.8275-19.776 26.371-49.105 34.553-56.724 6.8837 17.847 31.661 52.595 33.346 56.329 2.2396-17.761-10.462-52.438-23.826-59.907 13.343-10.309 47.703-11.34 65.943 4.1784-5.6453-16.182-28.134-24.113-48.177-21.443" fill="#00a63c"/>
  <path d="m99.607 75.763c1.8976 0.09113 3.0261-1.1273 3.1634-2.4818-0.98499-0.63793-2.0911-1.206-3.3232-1.6903 0.39824 0.84142 0.387 3.0611 0.1598 4.1722" fill="#fff"/>
  <path d="m108.2 79.573c0.57926 3.5492-1.568 8.604-6.3369 9.3443 4.1185-2.8027 5.287-8.8062 4.654-12.202-0.975-1.2771-2.2159-2.4394-3.749-3.4331-0.13607 1.3545-1.2659 2.573-3.1622 2.4806 0.22596-1.1111 0.23844-3.3307-0.16104-4.1722-0.53182-0.20848-1.0899-0.40198-1.6704-0.57926-6.453 1.2159-12.096 3.3944-16.054 6.453 4.2545 2.3782 8.0072 6.6814 11.206 11.98 1.136-0.81146 3.3819-4.3457 3.9075-6.7139 2.8588 2.4444 0.84017 7.8649-2.9837 8.3019 1.5568 2.7627 2.9724 5.7514 4.2408 8.8487 4.7939-0.94878 9.4329-5.0585 10.769-10.254 0.84516-3.2858 0.72906-6.8575-0.65916-10.053" fill="#fff8b0"/>
  <path d="m39.488 96.361c-0.99123 0.45442-3.4281 1.528-3.7914 1.2559-0.29462-0.21972 0.2372-2.5367 0.69786-3.8288-1.0462-1.0699-2.0424-2.2896-2.9337-3.5654-1.0012-0.17727-1.9001 0.20848-2.9637 0.84766-0.84642 4.9586 3.5542 9.6676 9.745 5.7302-0.25093-0.13358-0.50186-0.27839-0.75403-0.43944" fill="#ed8599"/>
  <path d="m77.367 111.76c-0.36204 0.12859-1.3146-1.1161-1.9275-2.1173-2.9737 1.337-5.7289 1.9263-8.7263 2.0137-0.67913 0.86015-1.2122 2.347-1.3695 3.1834 3.9799 2.945 12.34 1.4794 14.389-7.5453-0.29213 0.18477-0.58175 0.36703-0.86764 0.53931-0.29213 1.2933-1.0437 3.7652-1.4981 3.9262" fill="#ed8599"/>
  <g fill="#fff">
   <path d="m60.123 105.4c1.1885 1.2509 3.6403 0.77026 4.4818-0.26092 0.81895-0.92756 1.2372-2.4668 1.2259-4.0049-0.01873-2.6778-0.84891-5.5342-3.8413-5.6815-0.54555 0.0037-1.0524 0.21223-1.5056 0.55928-0.55304 0.82145-1.1123 1.6616-1.6741 2.5193-0.69036 1.9512-0.8202 5.0797 1.3133 6.8687"/>
   <path d="m73.267 104.08c1.8838 1.5218 4.448 0.71908 4.9924-0.21847 0.80022-1.3795 1.1023-2.4943 0.90759-4.3132-0.29712-2.769-1.6391-4.8001-3.9824-4.6852-2.1185 0.10486-3.6328 2.4356-3.4294 5.5803 0.09113 1.3895 0.66789 2.9238 1.5118 3.6366"/>
   <path d="m55.834 236.16c-1.2684-0.50061-3.0811 0.8951-3.4593 1.5255-0.17228 0.28714 3.8288 2.7802 4.5766 2.4344 0.69786-0.32333-0.55554-3.739-1.1173-3.9599"/>
   <path d="m62.167 233.42c-1.1972 0.0936-2.307 2.2172-2.3757 2.7902 1.1448 0.82644 3.7489 2.2246 4.1497 1.6616 0.52807-0.74404-0.99497-4.513-1.774-4.4518"/>
   <path d="m13.988 224.56c-0.01124 0-0.02122-4e-3 -0.03246-4e-3 -1.0374 0.0487-2.9999 4.4518-2.694 5.0498 0.21223 0.41322 3.5692-0.14981 4.1659-1.0362 0.77151-1.1473-0.80397-4.0049-1.4394-4.0099"/>
   <path d="m18.147 230.62c-0.42945 0.47065-0.8951 3.4006-0.26716 3.6516 0.89261 0.35829 4.0885-1.8539 4.1534-2.5829 0.11111-1.2397-3.2059-1.8139-3.8863-1.0686"/>
  </g>
  <path d="m18.436 154.19c1.0075-2.0137 0.26341-1.7228-0.92756-0.0749-6.6465 9.1945-9.8187 36.913 8.5753 49.942 0.50061-0.36578 0.99498-0.69536 1.4731-0.98374 0.3121-1.2259 0.30211-1.945 0.83643-2.9475-16.3-12.86-16.096-33.662-9.9572-45.936" fill="#986c4c"/>
  <path d="m14.203 160.62c-2.7377 1.4294-5.8163 1.141-8.0434-1.166 0.17478 1.5143 0.94129 2.9749 2.5193 4.1522 1.2584 0.9388 2.8314 1.3258 4.4268 1.1573z" fill="#acba87"/>
  <path d="m5.523 153.93c-0.17977 0.55054 0.25467 1.9113 0.91258 2.8301 0.19974-0.67663 0.25717-0.92256 0.64667-1.5642-0.56677-0.0437-1.201-0.67289-1.5593-1.2659" fill="#acba87"/>
  <path d="m7.644 154.28c-0.022471-0.0125-0.043694-0.0262-0.066165-0.0387 0.00874 0.0337 0.019974 0.0637 0.028713 0.0961 0.013732-0.0187 0.02372-0.0387 0.037452-0.0574" fill="#ccea9d"/>
  <path d="m2.966 146.29c4.1222-1.5193 13.287-0.94629 16.166 6.609 0.96376-5.7102-11.231-11.625-16.166-6.609" fill="#009234"/>
  <path d="m7.656 151.68c-0.20723 0.40698-0.30711 1.7253-0.078649 2.5567 0.022471 0.0125 0.043694 0.0262 0.066165 0.0387 0.11485-0.16603 0.40448-0.51683 0.82519-0.95627-0.1548 0.0025-0.55928-0.92382-0.81271-1.6392" fill="#acba87"/>
  <g fill="#986c4c">
   <path d="m29.265 216.52c-1.3633 2.6391-4.2046 4.2533-7.2482 4.6865-1.2946 0.15605-2.4743 0.0724-3.5417-0.20598 0.56053 0.80022 1.3495 1.5318 2.4107 2.1697 3.7752 2.2671 7.4667 1.7003 11.081-1.7902 0.22346-0.21472 0.44693-0.44318 0.66914-0.68163-1.3183-1.2184-2.4606-2.6179-3.3707-4.1784"/>
   <path d="m49.831 226.38c-1.151 0.1161-2.3645 0.13358-3.6391 0.0462 1.2859 4.0336 10.191 6.2258 14.54 2.689 0.98748-0.80272 2.0686-2.8738 1.9787-2.8414-2.1585 2.3245-9.0671 3.1235-12.88 0.10611"/>
   <path d="m13.988 224.56c0.1136 1e-3 0.22097 0.0387 0.32458 0.0974-0.06741-0.1985-0.12609-0.40074-0.17852-0.60673-0.05867 0.16979-0.10986 0.33957-0.14606 0.50935"/>
   <path d="m31.966 221.38c-0.5081 0.49062-1.0174 0.91633-1.528 1.2921-0.41197 3.6378-4.3969 6.252-7.9261 7.0198-2.9075 0.49312-5.5292-0.78025-7.0997-2.9238 0.13233 0.61921 0.17478 1.2272 0.09862 1.6117-0.13108 0.66914 1.3445 1.9163 2.4456 2.5692 0.06242-0.13982 0.12609-0.25218 0.18976-0.32334 0.64043-0.7016 3.7427-0.4669 3.895 1.0212 0.0012 0.015-0.0062 0.0325-0.0075 0.0487 5.5379-0.8951 12.568-7.9049 9.9323-10.316"/>
   <path d="m48.754 229.17c-1.2571-0.69286-2.2022-1.6129-2.5617-2.7427-0.40823-0.0275-0.8177-0.0662-1.2272-0.11611 0.32833 3.7964 3.2483 9.2644 7.438 11.334 0.71783-1.1286 2.744-1.7565 3.4319-1.4856 0.34456 0.13608 0.7378 0.82145 1.0137 1.5855 1.0512-0.39325 2.0836-0.98873 2.9575-1.6267 0.08115-0.49811 0.27465-0.95003 0.52558-1.3383-3.9087 1.8002-10.105-0.22346-11.578-5.6103"/>
  </g>
  <path d="m19.558 152.89c3.2483-2.2272 11.982-0.34206 15.39 3.6116-2.3982-6.4954-13.625-7.4217-15.39-3.6116" fill="#009234"/>
  <path d="m18.492 159.1c-0.23345 1.8651-0.49312 3.2833-0.45442 3.2446 1.1036-1.1336 2.2246-4.2396 2.2671-5.8612-0.26841 1.4694-1.4432 2.4119-1.8127 2.6166" fill="#acba87"/>
  <path d="m31.69 87.351c-0.4669 0.88387-1.201 1.5667-2.0761 1.8339 0.0412 0.04369 0.08739 0.0774 0.14606 0.08489 0.31959 0.04619 2.1435-0.61421 2.543-0.83019-0.21597-0.36204-0.41946-0.72532-0.61296-1.0886" fill="#d3d2d2"/>
  <path d="m37.921 95.211c-0.18726 1.2109-1.1011 1.9288-2.2771 2.3245 0.01373 0.0387 0.02996 0.07116 0.05119 0.08739 0.36453 0.27215 2.8002-0.80147 3.7926-1.2559-0.52308-0.33332-1.0474-0.72158-1.5667-1.156" fill="#d3d2d2"/>
  <g fill="#ddd698">
   <path d="m58.809 98.531c-0.05743 0.08739-0.1161 0.17852-0.17353 0.26591 0.0412-0.03246 0.08115-0.06616 0.12234-0.09987 0.01873-0.05493 0.03246-0.11236 0.05118-0.16604"/>
   <path d="m66.857 111.69c0.54305-0.0325 1.1148-0.0861 1.7116-0.16729-0.55054-0.0275-1.1211 0.0237-1.7116 0.16729"/>
   <path d="m70.967 82.271c-2.8101 2.9625-6.5079 7.8449-10.48 13.736 1.4344-0.78774 8.2057-9.3905 12.025-13.657-0.52682-0.019974-1.4931-0.079897-1.5443-0.078649"/>
   <path d="m85.077 105.54c-4.488-7.388-8.8948-15.352-12.323-23.21-0.09238-0.01-0.85016-0.02996-0.9775-0.03745 2.8488 8.2731 7.6078 16.389 13.233 23.393 0.02122-0.0487 0.04494-0.0961 0.06741-0.14481"/>
   <path d="m85.527 106.28c-0.14981-0.24593-0.30086-0.49437-0.45067-0.74155-0.02247 0.0474-0.04619 0.0961-0.06866 0.14481l0.51309 0.63669c0.0025-0.0137 5e-3 -0.0262 0.0062-0.0399"/>
   <path d="m85.007 105.69c-5.2558 11.484-17.54 15.456-27.798 5.3844 3.1709 5.5104 8.6876 8.3917 13.188 8.1134 7.2207-0.44817 14.169-5.0336 15.123-12.861l-0.51309-0.63668"/>
  </g>
  <path d="m76.887 108.94c0.68163 0.43195 1.0961 1.2796 0.95253 2.141 0.39574-0.86265 0.82519-2.3432 1.0299-3.2483-0.67788 0.40698-1.3358 0.77276-1.9825 1.1073" fill="#d3d2d2"/>
  <path d="m64.287 111.6c-0.0362 0.71284-0.05992 1.5193-0.29712 2.156 0.31834-0.31959 1.0724-1.2509 1.4057-2.0948-0.24219-5e-3 -0.64917-0.0275-1.1086-0.0612" fill="#d3d2d2"/>
  <g fill="#ddd698">
   <path d="m30.27 96.661c2.1061 5.1646 7.765 7.8712 12.343 7.2145 0.79648-2.0461 0.77276-3.2234 1.724-5.1834-3.3669 1.8863-10.479 2.0898-14.067-2.0311"/>
   <path d="m58.87 76.74c-0.52558-0.71408-1.2035-1.3832-1.9999-1.985-4.0498-1.7265-8.3518-2.6241-12.756-2.8201-1.0212 0.25218-2.0187 0.583-2.9862 0.98998 6.081 0.44443 12.357 0.85765 17.742 3.8151"/>
   <path d="m32.111 78.994c-0.89635-0.30336-1.975-0.35455-2.3145 1.1947-0.53806 2.4656 1.3033 6.4755 3.8001 9.9959-1.4169-3.3619-3.9437-7.6102-1.4856-11.191"/>
  </g>
  <path d="m99.597 60.209c13.578-9.172 40.738-8.2557 50.911-4.2358-16.45-12.008-58.731-3.2671-70.722 8.6214 1.4119-3.5142 7.5728-10.284 11.649-13.167 4.9674-7.3843 25.866-25.999 42.126-34.008-14.319 1.3083-43.085 19.148-59.619 45.515-1.2222-23.245 15.031-58.585 22.018-62.582-12.249 3.9487-22.731 34.823-24.726 54.03 0.5081 2.2921 0.49562 6.041 0.49187 7.5778-2.6766-10.977-15.335-36.023-28.979-40.523 6.8837 4.5467 12.923 13.809 17.509 23.045 1.4519 2.7015 5.1921 10.04 5.9536 15.387-13.626-18.776-32.352-33.637-54.625-29.068 20.532-0.55554 43.644 19.329 52.288 31.432-25.03-13.098-47.791-12.508-62.208 0.8152 12.088-6.7751 23.683-10.364 43.771-1.4107 3.0885 0.28963 14.654 2.6528 19.758 7.5516-21.507-5.483-51.345 0.53182-64.687 21.138 21.635-21.229 47.128-21.721 60.972-13.169 2.1223-1.6716 5.9449-4.2121 9.4754-4.7439-8.9997 7.624-31.563 43.924-33.197 65.36 7.8275-19.776 26.371-49.105 34.553-56.724 7.8387 20.323 32.868 54.848 33.463 56.169-6.5479-25.804-27.937-42.512-30.713-62.143 2.0723 0.38451 5.619 1.9562 6.7701 2.3957 13.343-10.309 47.845-11.318 66.085 4.2021-11.503-16.123-45.916-19.723-69.076-13.53 9.9423-7.0822 18.014-7.3294 20.757-7.9361" fill="#009234"/>
  <path d="m109.12 82.551c-0.56303 10.106-7.6252 14.66-12.665 13.576 0.57052 1.2284 1.1186 2.4818 1.6404 3.7552 4.7939-0.94878 9.4329-5.0585 10.769-10.253 0.59049-2.2958 0.70909-4.7302 0.25592-7.0784" fill="#ddd698"/>
  <path d="m99.447 71.591c-0.53307-0.20973-1.0899-0.40198-1.6716-0.57926-6.4517 1.2147-12.094 3.3944-16.053 6.453 0.41322 0.23095 0.8202 0.48563 1.2234 0.75154 5.0173-3.2546 10.785-4.9973 16.612-6.3157-0.033707-0.11485-0.069911-0.22097-0.11111-0.3096" fill="#ddd698"/>
  <path d="m36.375 93.851c0.0062-0.01873 0.01373-0.03995 0.01997-0.05867-1.0462-1.0686-2.0436-2.2883-2.9337-3.5654-1.0012-0.17727-1.9013 0.20973-2.965 0.84891-0.03121 0.18102-0.05243 0.36328-0.06991 0.5443 2.156 0.12734 4.3182 0.85515 5.9486 2.2309" fill="#ce7486"/>
  <path d="m79.737 107.29c-0.29213 0.18476-0.583 0.36703-0.86764 0.53931-0.29213 1.2933-1.0449 3.7664-1.4981 3.9262-0.36204 0.12858-1.3146-1.1148-1.9275-2.116-3.5167 1.5805-5.3007 1.7403-8.4929 2.0711 2.6616 0.25218 7.0272 0.58051 8.6676 2.4918 1.8526-1.4369 3.3869-3.6928 4.1185-6.9124" fill="#ce7486"/>
  <g fill="#d3d2d2">
   <path d="m53.591 236.6c-0.57676 0.35205-1.0449 0.79523-1.2159 1.0811-0.17228 0.28589 3.8276 2.7802 4.5766 2.4331 0.06991-0.0325 0.1161-0.10362 0.14981-0.19351-1.397-0.76776-2.6067-2.0174-3.5105-3.3207"/>
   <path d="m60.183 235.23c-0.22596 0.41197-0.37078 0.78524-0.39449 0.97999 1.1435 0.82644 3.7489 2.2246 4.1497 1.6616 0.13608-0.19225 0.13483-0.58674 0.04619-1.0636-1.4169-0.0911-2.7852-0.60672-3.8014-1.578"/>
   <path d="m15.068 225.79c-0.72158 1.6017-1.8464 3.0124-3.2458 3.9524 1.0312 5e-3 3.1422-0.48562 3.6054-1.1722 0.43944-0.65292 0.1161-1.8601-0.35954-2.7802"/>
   <path d="m21.394 230.79c-0.96002 1.5081-2.2733 2.4606-3.7814 2.9724 0.04494 0.26341 0.12734 0.45567 0.26716 0.51184 0.89261 0.3583 4.0885-1.8539 4.1547-2.5829 0.03246-0.36453-0.2347-0.66914-0.64043-0.90134"/>
  </g>
  <path d="m58.936 107.74c-1.1086 1.3233-0.22222 3.0074 2.2821 3.4643 2.5467 0.46565 6.7164 0.56178 7.3481 0.32084l0.63044-0.23969c-8.0896 0.04494-10.88-1.6142-10.261-3.5455" fill="#ddd698"/>
  <path d="m84.937 116.76c-1.3171 1.8476-2.9188 3.1248-4.6416 3.9437 3.3482-1.6741 6.2058-5.0523 7.4005-10.736-0.74779-1.1885-1.4981-2.3982-2.2471-3.6229-0.93505 7.8512-7.8961 12.452-15.128 12.9-1.6029 0.0999-3.111-0.12734-4.5155-0.59799 1.1997 1.1748 2.7789 2.1011 4.5454 2.6828 0.29462 1.161 0.52807 2.342 0.70285 3.543 3.2895 3.1135 8.9161 3.528 11.324 1.327 3.1023 25.829-16.21 49.111-21.098 63.414-1.9662 5.7526 5.5304 14.873-3.5068 27.596-5.9936 8.4392-29.995-2e-3 -29.782-17.752-0.01623 0.1161-0.7378 5.2757-0.75403 5.3894-2.7577 19.338 20.556 26.064 30.538 18.495 8.4429-6.4018 10.184-19.531 7.2981-33.279-0.60173-2.8638-0.8976-3.5904 0.40074-5.7451 12.678-21.034 23.939-48.351 19.463-67.557" fill="#986c4c"/>
  <g fill="#0f141b">
   <path d="m8.065 151.37c-0.52807-0.17727-0.7428-0.14606-0.88761 0.74529-0.072407 0.43944-0.079898 1.0212-0.016229 1.5692-0.46815-0.19225-0.94878-0.31459-1.3046-0.30336-0.59299 0.0162-0.70535 0.13483-0.70285 0.86265 0.0025 0.79148 0.44193 1.9625 1.0287 2.8289 0.044942-0.30586 0.16729-0.6267 0.24843-0.91508-0.51559-0.91008-0.83643-2.0286-0.7016-2.2059 0.16604-0.0674 0.93755 0.17228 1.588 0.51809 0.33956 0.21223 0.583-0.26591 0.54181-0.43694 0.00125 0 0.00125-1e-3 0.0025-1e-3 -0.00125-1e-3 -0.0025-1e-3 -0.00375-2e-3 -0.17852-0.76652-0.20848-1.8114-0.067414-2.0599 0.00375 0-0.00499 6e-3 -0.00125 6e-3 0.18601 0.015 0.65666 0.35455 1.0062 0.87513 0.13982-0.17852 0.27964-0.35579 0.41946-0.53431-0.34081-0.45618-0.76651-0.81821-1.1498-0.9468"/>
   <path d="m6.359 155.95c-1.2134 3.0099-0.48063 6.1296 1.9937 7.9773 1.362 1.0162 3.1809 1.382 5.0148 1.0973 0.05368-0.23595 0.13233-0.46565 0.22596-0.67913-1.7028 0.3146-3.4094-0.0225-4.7202-0.99997-2.3807-1.7777-2.6965-4.302-2.136-6.9761 0.13982-0.67289-0.11735-1.0686-0.37827-0.41946"/>
   <path d="m8.69 152.81c2.94-3.473 8.0597-2.8838 10.171-0.90259 0.02622 0.0262-0.13483 0.78774-0.14731 0.77276-1.9725-2.3869-6.7002-2.5405-9.6089 0.30835-0.40198 0.3945-0.74405 0.20973-0.41447-0.17852"/>
   <path d="m19.818 152.77c-0.11985 0.44318-0.10362 0.79273-0.19225 1.2422 0.95128 2.2022 0.19101 5.7801-1.377 7.5366 0.04494 0.3146-0.13358 1.0299-0.10362 1.3458 3.4131-4.1085 2.7977-8.398 1.6729-10.125"/>
   <path d="m31.502 194.47c0.12734-0.19475 0.32334-0.55054 0.44818-0.70659-15.204-11.972-14.992-30.075-12.328-39.202 0.70035-2.3969-0.47314-3.2646-2.3782-0.62919-8.0072 11.078-8.1733 38.436 8.2257 50.318 0.19974-0.12859 0.55429-0.36579 0.779-0.46691-16.406-11.623-16.342-38.589-8.4766-49.47 1.1835-1.6379 1.6192-1.2834 1.2259 0.0662-2.7128 9.2906-2.9962 27.907 12.504 40.091"/>
   <path d="m98.787 70.833c-0.3508 0.09363-1.3021 0.17977-1.6391 0.33457 9.0309 2.523 13.654 9.5952 11.394 18.378-1.3146 5.1159-5.5778 9.182-10.4 9.956 0.0799 0.19225 0.29712 0.60048 0.27964 0.83143 5.1721-0.80272 9.3468-5.1609 10.751-10.625 1.9912-7.7438-0.71783-15.781-10.385-18.875"/>
   <path d="m30.073 89.331c-0.23969-0.04994-0.4307-0.13857-0.59174-0.33083-2.6628 9.534 6.2732 16.539 12.648 15.352 0.1985-0.22596 0.50061-0.55179 0.67538-0.83268-6.2894 1.0699-14.923-4.1759-12.731-14.188"/>
   <path d="m57.709 75.086c-0.49312-0.22346-1.0224-0.39699-1.573-0.51809 1.759 1.1922 2.9712 2.6254 3.4206 4.0735 0.10362-0.17852 0.22721-0.35704 0.40074-0.5106-0.40948-1.0711-1.1785-2.1061-2.2484-3.0448"/>
   <path d="m33.025 79.304c-0.0799 0.12609 0.40323 0.37826 0.45816 0.29088 2.518-3.9762 6.2183-6.4405 11.301-7.5353-0.57426-0.04369-1.4332-0.05618-1.98-0.09862-4.4156 0.82519-7.4505 3.6665-9.7787 7.3431"/>
   <path d="m82.347 149.14c4.0748-12.877 5.1559-24.005 3.1135-32.729-0.13358 0.24593-0.53806 0.67413-0.75403 0.82269 1.8838 8.5378 0.83643 19.208-3.136 31.761-4.1784 13.203-10.655 25.509-15.619 33.882-0.91508 1.5443-1.9238 3.2121-1.6841 4.8351 1.1685 7.9061 4.7252 25.962-6.6902 35.365-5.0585 4.1672-13.697 4.0935-20.609 0.32084-6.649-3.6291-10.136-9.7575-9.6014-16.818 1.3295-17.579 18.615-22.683 24.511-24.741 2.1785-0.76027 2.4931-1.402 3.6928-3.3757 7.3618-12.57 8.6839-16.36 12.676-27.274 3.9549-10.812 4.1547-23.124 2.4206-29.943-0.25342-0.0462-0.91008-0.22096-1.1385-0.30835 2.0499 7.6926 1.8426 18.752-2.0074 30.075-3.8401 11.296-6.2757 16.478-11.784 25.882-0.2347 0.40199-0.47689 0.81146-0.72407 1.2297-1.0437 1.719-1.6504 2.3083-3.4568 3.0786-3.4418 1.4681-23.57 6.1921-25.045 25.265-0.56677 7.3269 3.1672 13.796 10.05 17.554 6.2607 3.4169 15.641 4.0373 21.688-0.63918 12.48-9.6501 7.232-31.518 6.664-35.577-0.22596-1.6054 0.87263-3.3744 1.6691-4.7152 4.9874-8.4067 11.588-20.75 15.764-33.949"/>
   <path d="m32.321 220.55c-3.6878 3.9012-7.378 4.6703-11.268 2.3333-2.2459-1.3483-3.3769-3.2121-3.3594-5.5379 0.02497-3.3682 3.4493-9.9622 9.8112-13.85 0.16479-0.26217 0.13233-0.84767 0.08115-0.8177-4.4668 2.5929-10.648 9.2332-10.686 14.549-0.01998 2.573 1.2684 4.8276 3.7265 6.3044 3.1173 1.8726 7.5241 2.3495 12.129-2.4881-0.14357-0.16479-0.28464-0.33208-0.43444-0.49312"/>
   <path d="m63.247 216.25c-0.12234 0.27839-0.25093 0.55179-0.3895 0.81271 1.4044 3.9874 0.975 9.1058-2.3345 11.796-3.2758 2.6628-12.631 1.6966-14.016-2.508-0.19475 0.0812-0.40074 0.14981-0.63668 0.14732 1.5343 4.9162 11.616 5.8388 15.066 3.0361 3.8476-3.1285 4.3844-8.6352 2.3108-13.284"/>
   <path d="m65.027 209.84c-1.4606 4.1846-13.209 7.8112-22.988 1.1323-1.166-0.79523-1.1935-0.28339-0.05743 0.5031 9.3555 6.4655 20.24 3.7839 23.048-0.23719 0.03995-0.51684 0.02122-1.4644-0.0025-1.3982"/>
   <path d="m38.156 207.55c-4.709-5.3606-5.4867-11.886-2.131-17.946-0.44193 0.37827-0.87638 0.75778-1.2896 1.1385-2.5617 5.8175-1.5156 11.925 2.9038 16.993 0.7815 0.8976 1.2871 0.69037 0.51684-0.18601"/>
   <path d="m47.823 221.68c3.6965 0.77026 9.2769 0.80022 13.731-2.493 0.21348-0.47315 0.39325-0.95004 0.64542-1.4207-2.8813 2.91-9.1383 4.4842-14.549 3.3969-1.7627-0.35454-1.5505 0.15855 0.17228 0.51684"/>
   <path d="m42.308 219.3c-8.8037-4.2945-15.541-14.338-10.849-24.761 0.06866-0.1498-0.89136 0.99623-1.3358 1.6579-3.2671 10.047 2.8339 18.989 11.32 23.183 1.2434 0.61421 2.0711 0.50934 0.86389-0.0799"/>
   <path d="m64.847 185.1c-2.332 1.3433-5.5878 1.0874-7.7426-0.61047-1.744-1.3732-2.4032-3.6041-1.7677-5.7626 0.05118-0.17228-0.71533 0.44443-0.75528 0.65416-0.4257 2.186 0.32708 4.2084 2.1198 5.6203 2.342 1.8439 5.4355 2.0574 7.8762 0.96251 0.08364-0.39199 0.35579-0.91258 0.26965-0.86389"/>
   <path d="m68.047 179.37c-3.7015 3.5991-11.404 2.0062-10.108-5.1809-0.2372 0.25467-0.53432 0.47314-0.78774 0.71658-0.71533 6.4605 6.1209 8.8849 10.584 5.5554 0.12484-0.392 0.40698-1.1835 0.3121-1.0911"/>
   <path d="m70.847 174.14c-3.2396 2.8027-11.191 0.28838-10.178-5.3769 0.02122-0.12109-0.50061 0.47439-0.73531 0.83893-0.09862 5.0922 6.7526 7.5803 10.473 5.614 0.18352-0.41821 0.53182-1.1535 0.44068-1.0761"/>
   <path d="m74.017 167.87c-2.5904 3.2321-10.86 1.8239-10.593-4.8413-0.2709 0.38326-0.43819 0.83768-0.59299 1.3258 0.79149 5.7376 7.6177 6.9099 10.734 4.7988 0.08864-0.42696 0.3096-0.87888 0.4644-1.2934-0.0037 4e-3 -0.0087 6e-3 -0.01248 0.01"/>
   <path d="m77.297 160.73c-3.7302 4.8138-10.715 2.0911-11.614-2.4943-0.02871-0.14607-0.37951 0.30211-0.53556 0.55054 1.2809 4.4992 8.413 7.569 12.335 2.508 0.10986-0.14232-0.07615-0.7066-0.18601-0.56428"/>
   <path d="m80.307 153.9c-4.2084 4.1497-10.864 1.3845-12.353-2.4107-0.10362 0.35829-0.11485 0.70659-0.24968 0.98249 2.141 3.7502 7.7139 5.5941 11.887 2.8451 0.34081-0.4644 0.71034-0.92631 0.71533-1.4169"/>
   <path d="m82.727 145.4c-4.8762 3.9212-10.656 2.8801-12.831-2.1597 0-1e-3 -0.0012-2e-3 -0.0025-4e-3 -0.03371 0.35705-0.08364 0.74779-0.16853 1.1261 2.2371 3.9836 7.6777 5.8238 13.031 1.8364 0.04869-0.28838 0.04994-0.86265-0.02871-0.79898"/>
   <path d="m84.887 136.35c-2.166 3.6066-10.816 3.5904-13.551-0.47814-0.02372-0.035-0.05368-0.0637-0.08614-0.0861-0.02372 0.3146-0.04869 0.6292-0.07241 0.94255 3.0973 3.6266 10.825 3.9337 13.775 0.6217 0.02996-0.38201 0.05868-0.76153 0.08739-1.1261-0.06117 0.0262-0.1161 0.0649-0.1523 0.12609"/>
   <path d="m71.537 127.06c-0.02372 0.30086-0.04744 0.61796-0.07241 0.92881 3.8463 4.1884 11.036 2.8813 14.298-1.1672 0.02996-0.38576 0.06492-0.83269 0.09862-1.2721-2.9537 4.9012-10.59 6.3369-14.324 1.5106"/>
   <path d="m34.262 156.09c-3.2384-3.1684-10.96-5.3494-14.509-2.9737-0.14981 0.0999-0.28339-0.30586-0.14232-0.41696 3.4606-2.7115 11.046-0.73157 14.945 2.9287-0.81396-5.3918-10.749-11.209-14.945-2.9287-0.08115 0.15979-0.46191-0.0387-0.39075-0.20474 3.865-8.9485 14.898-3.0149 15.769 2.7203 0.26841 1.7665 0.25342 1.8339-0.72657 0.87513"/>
   <path d="m18.713 152.68c-1.6579-5.9611-11.554-7.8911-15.309-6.1296-1.2484 0.58425-1.402 0.39324-0.64168-0.90884 4.0923-7.0035 17.954-2.3545 16.97 6.247-0.01997 0.17853-0.52807 0.78774-0.5106 0.60798 0.86264-8.9098-11.865-12.83-15.821-6.654 3.9549-1.5842 14.233 0.16604 15.821 6.654 0.04245 0.17477-0.48063 0.28213-0.5081 0.18351"/>
   <path d="m15.027 158.63c0.70784-0.31335 3.1148 0.37951 3.307 0.97001 0.02122-0.28089 0.0412-0.53557 0.06492-0.83643-0.43819-0.28963-1.794-0.91882-3.0923-0.82894-0.10112 7e-3 -0.30461 0.7066-0.27964 0.69536"/>
   <path d="m17.929 166.24c-1.3795-1.5618-3.8363-1.5805-5.0997-1e-3 -0.02372 0.3096-0.04619 0.60173-0.06866 0.89011 0.01248 2e-3 0.02497 0.0112 0.0387 0.0125 0.1211 9e-3 0.24219-0.0499 0.30711-0.16104 1.191-2.0524 3.8526-1.6654 4.7664 0.3508 0.03995 0.0874 0.16479-0.70285 0.05618-1.0911"/>
   <path d="m19.218 174.67c-2.0399-1.9725-5.0573-1.8639-6.8737 0.21223 0.06242 0.31959 0.08614 0.6604 0.08614 0.99872 1.3383-2.4119 4.6241-2.9512 6.7851-0.24968 0.01623 0.0212 0.0387 0.0349 0.05992 0.0499-0.02372-0.32458-0.02372-0.66414-0.05743-1.0112"/>
   <path d="m66.257 100.99c-0.02622-3.709-1.6104-5.7938-4.2446-5.9112-0.36703 0.0025-0.75154 0.07366-1.0961 0.23345-0.03745 0.28838-0.09737 0.64542-0.18851 0.84891 0.39824-0.28588 0.84766-0.34581 1.2771-0.3483 3.0798 0.16229 3.5442 3.3632 3.5579 5.3194 0.01 1.4169-0.34706 2.7265-0.96376 3.5792-0.57177 0.79024-0.15605 0.99248 0.42446 0.14232 0.68038-0.99872 1.2434-2.3882 1.2334-3.8638"/>
   <path d="m59.939 104.84c-0.79523-0.88886-1.2971-2.2883-1.3071-3.714-0.0062-0.9001 0.17852-1.8526 0.50685-2.704-0.20848 0.14981-0.44818 0.2759-0.7403 0.39699-0.22846 0.71533-0.45816 1.5031-0.45317 2.2634 0.01124 1.5867 0.78899 3.1098 1.7041 4.0948 0.6267 0.67663 0.90759 0.3533 0.28963-0.33707"/>
   <path d="m72.877 103.87c-0.86889-0.91757-1.4719-2.2047-1.5568-3.5205-0.22097-3.4006 1.6841-5.7639 3.8588-5.8725 2.3245-0.11236 4.0336 1.6454 4.3756 4.845 0.20349 1.8913-0.25592 3.1597-1.0012 4.3157-0.55928 0.86888-0.97875 0.67039-0.47065-0.16854 0.71658-1.1847 1.1173-2.4119 0.93755-3.895-0.31709-2.6341-1.7715-4.3969-3.7802-4.3082-1.8189 0.0799-3.4069 2.1785-3.2146 5.1521 0.0799 1.2272 0.53556 2.4656 1.146 3.1759 0.64168 0.7478 0.42321 1.0349-0.29462 0.2759"/>
   <path d="m63.107 97.411c-0.39325-0.06866-0.7453 0.28838-0.784 0.79398s0.24968 0.9725 0.64293 1.0399c0.39325 0.06866 0.7453-0.28713 0.784-0.79273s-0.24968-0.9725-0.64293-1.0412"/>
   <path d="m76.147 96.721c-0.392-0.07116-0.74904 0.28089-0.79273 0.78649-0.04494 0.5056 0.2372 0.97375 0.63044 1.0462 0.392 0.07116 0.74779-0.28214 0.79273-0.78649 0.04494-0.5056-0.23844-0.975-0.63044-1.0462"/>
   <path d="m95.817 85.491c-0.12858 0.13857-0.04744 0.42321 0.17977 0.63544 0.22846 0.21223 0.51809 0.2709 0.64667 0.13233s0.04869-0.42321-0.17977-0.63544c-0.22721-0.21098-0.51809-0.2709-0.64667-0.13233"/>
   <path d="m99.747 73.579c-0.10487 0.14856 0.0387 0.43195 0.31959 0.63169 0.28214 0.1985 0.59674 0.23969 0.70285 0.09113 0.10487-0.14856-0.0387-0.43195-0.32084-0.63169-0.28214-0.19849-0.59673-0.23969-0.7016-0.091129"/>
   <path d="m47.49 90.591c-0.17852-0.19225-0.54805-0.16229-0.83019 0.15106-0.22346 0.24843-0.28339 0.65166-0.12359 0.79024 0.19225 0.16853 0.48563 0.13982 0.80147-0.21597 0.3146-0.3533 0.28089-0.58675 0.1523-0.72532"/>
   <path d="m38.214 78.859c-0.17852-0.19225-0.54805-0.16229-0.83019 0.15106-0.22346 0.24843-0.28339 0.65166-0.12359 0.79024 0.19225 0.16853 0.48563 0.13982 0.80147-0.21597 0.3146-0.3533 0.28089-0.58675 0.1523-0.72532"/>
   <path d="m31.075 219.17c-5.1422 2.2946-14.294-1.2946-11.033-8.2706 0.07615-0.16229 5e-3 -0.35704-0.1573-0.43195-0.01748-9e-3 -0.03496-9e-3 -0.05243-0.0137-0.07366 0.53931-0.41072 0.89261-0.784 1.2284-2.2896 7.3344 7.6552 10.332 12.495 7.9935-0.18227-0.15355-0.33582-0.31709-0.46815-0.5056"/>
   <path d="m31.939 220.19c-1.8264 1.6791-3.7939 2.5854-5.855 2.6791-1.8701 0.0811-0.70784 0.62544 0.20599 0.55803 2.141-0.1573 4.2396-1.0474 6.1197-2.7852-0.14482-0.16104-0.29712-0.31584-0.47065-0.45192"/>
   <path d="m21.993 222.63c-2.0736-0.66415-3.8014-2.2484-4.5704-3.9836-0.12983-0.29213 0.18601-1.4219 0.23095-1.2472 0.50685 1.9725 2.116 3.7102 4.5279 4.7264 1.2521 0.52807 1.0899 0.91383-0.18851 0.50435"/>
   <path d="m32.311 221.23c-0.11735 0.196-0.3146 0.32958-0.47314 0.47814 1.8052 2.0386-4.5429 8.8886-9.9722 9.6863 0.05368 0.21847 0.09737 0.52932 0.0037 0.74155 5.8837-0.74155 13.023-8.1546 10.442-10.906"/>
   <path d="m17.373 219.29c-1.6404 1.2846-3.4406 3.3282-3.8039 5.3669 0.23844-0.13607 0.48563-0.0874 0.74904-0.0312 0.37078-1.7103 1.99-3.4481 3.4206-4.6116-0.10362-0.21722-0.32958-0.50061-0.36578-0.72407"/>
   <path d="m17.979 230.6c-0.82894-0.52058-1.6042-1.2858-2.3395-2.2883-0.16604 0.19475-0.34081 0.38451-0.55054 0.52558 0.87263 1.1435 1.789 1.9438 2.7203 2.4606-0.01498-0.2372 0.07116-0.4744 0.16978-0.69786"/>
   <path d="m52.661 237.4c-4.2146-1.9937-6.9798-7.4068-7.3568-10.993-0.22971 4e-3 -0.66665-0.0762-0.87263-0.1136 0.37826 3.8775 3.3719 9.9834 8.0697 11.931-0.05868-0.0886 0.09862-0.66914 0.1598-0.82394"/>
   <path d="m59.81 235.7c-0.90759 0.68163-2.0237 1.3358-3.1435 1.7478 0.12983 0.20474 0.24968 0.41447 0.34331 0.63668 1.0624-0.3483 2.1298-0.88261 3.0448-1.5355-0.196-0.22221-0.25842-0.53681-0.24469-0.84891"/>
   <path d="m61.857 233.34c0.21098 0.0362 0.43819 0.0624 0.63544 0.14232 0.35579-1.5592-0.58176-3.342-1.5967-4.3994-0.17852 0.15979-0.56927 0.33706-0.76652 0.41446 0.92382 0.91633 2.0174 2.4943 1.7278 3.8426"/>
   <path d="m61.207 228.58c-3.7127 2.3358-9.182 0.23844-10.668-2.3695-0.20973 0.0724-0.42321 0.13233-0.64043 0.18226 1.2784 2.4793 5.5129 4.277 9.0397 3.6728 0.87138-0.41947 1.4681-0.99623 2.2771-1.4894-0.0025 2e-3 -0.0062 2e-3 -0.0087 4e-3"/>
   <path d="m48.011 226.6c-0.24219 2e-3 -0.48313 0-0.72158-9e-3 0.69411 1.5817 2.7253 3.0424 5.0236 3.8513 0.55179 0.19475 2.9213 0.14481 3.6016 2e-3 -3.0623 0-6.7763-1.8002-7.9036-3.8451"/>
   <path d="m52.375 237.68h0.0037zm0.37951 0.0187c0.67289 0.73655 3.684 2.2384 4.0635 2.1185 0.02497-0.025 0.12484-0.2709 0.0075-0.93255-0.19475-1.1011-0.79149-2.3008-1.1111-2.4281-0.52433-0.20474-2.2621 0.31085-2.96 1.2422m3.3145 2.6216c-1.3895-0.45317-3.4918-1.8539-3.8601-2.2646-0.21847-0.24219-0.18102-0.42945-0.11236-0.54306 0.78025-1.3021 3.0049-1.9962 3.8563-1.6616 0.79523 0.3146 1.4956 2.4094 1.578 3.5055 0.10237 1.3483-0.04369 1.4269-1.4619 0.96377"/>
   <path d="m60.143 236.06c1.3121 0.90634 3.2084 1.769 3.5504 1.6017 0.2347-0.35705-0.6217-2.9962-1.5206-3.92-0.35954 0.0337-1.7615 1.0686-2.0299 2.3183m3.086 2.2222c-1.176-0.23345-3.8189-1.6479-3.7639-2.1123 0.16479-1.382 1.528-2.7078 2.3932-3.0136 0.39325-0.13982 0.61421-0.0325 0.73156 0.0812 0.6654 0.64792 1.5268 2.4968 1.7166 3.7577 0.20848 1.3782 0.0025 1.5031-1.0774 1.2871"/>
   <path d="m13.956 224.55h0.0037zm-2.4032 4.8463c0.78899 0.16853 3.5317-0.53307 3.6391-1.0861 0.22346-1.1348-0.65291-3.4656-1.2209-3.4356-0.51934 0.025-2.4094 3.4506-2.4182 4.5217m0.0062 0.0724 0.0037 1e-3zm-0.58425-0.49562c0.35579-1.5056 2.0411-4.7052 2.9662-4.7477 1.2397-0.0612 2.1872 3.0448 1.93 4.3557-0.22346 1.1336-3.3058 1.5218-4.116 1.593-1.0125 0.0899-1.0187-0.18975-0.78025-1.201"/>
   <path d="m18.387 230.84c-0.57052 0.6267-0.58175 2.9974-0.38326 3.1322 0.54555 0.20973 3.5242-1.5181 3.7127-2.3108-0.13358-1.0961-2.8077-1.3932-3.3295-0.82145m-1.0624 3.2221c-0.21847-0.95627-0.0037-3.1797 0.48937-3.7202 0.77401-0.84891 4.5517-0.28464 4.5517 1.2671 0 1.1623-2.5118 2.6279-3.6041 2.9662-0.93505 0.29088-1.2496 0.30586-1.4369-0.51309"/>
   <path d="m21.386 181.5c-2.9799-0.90259-6.5541 0.80896-7.9236 3.694 0.10362 0.25592 0.25592 0.48313 0.40198 0.71408 1.382-3.5554 5.3656-4.8276 7.8599-3.5767-0.11236-0.27714-0.22596-0.55429-0.33832-0.83143"/>
   <path d="m27.287 189.88c-4.3694-0.93505-8.4554 2.2683-8.6664 6.9648 0.12734 0.22596 0.31085 0.40324 0.64418 0.41447-0.02122-4.6965 4.0723-7.9573 8.4529-6.5916-0.17103-0.25967-0.28963-0.53931-0.4307-0.78774"/>
   <path d="m29.689 88.991c-0.24968-0.2759 0.28963-2.4656 0.85016-4.0598-0.07865-0.31959-0.12359-0.64792-0.23095-0.91258-0.28089 0.69161-1.0998 3.2783-1.2259 4.6078-0.08239 0.86015 0.27465 1.0749 0.95877 0.92631 0.68787-0.14856 1.6329-0.47065 2.3183-0.83393-0.05992-0.19475-0.05868-0.41197-0.04869-0.58924-1.5655 0.86514-2.4793 1.0174-2.6216 0.8614"/>
   <path d="m35.904 97.451h-0.0037zm3.2496-1.2309c-1.1735 0.53432-2.3832 1.0187-2.9762 1.1523-0.12734 0.02871-0.30461-0.13982-0.29462-0.27465 0.05243-0.69286 0.392-2.1423 0.73406-3.1247-0.15355-0.11735-0.35205-0.17602-0.44068-0.37702-0.20599 0.55804-0.43444 1.3408-0.60173 2.0836-0.42196 1.8738-0.17353 2.0586-0.0412 2.1572 0.05868 0.04494 0.14357 0.06991 0.25093 0.0774 0.71284 0.05618 2.4019-0.63918 3.89-1.3358-0.13358-0.15355-0.28214-0.29462-0.52058-0.35829"/>
   <path d="m39.94 96.671c-6.9037 4.2358-11.407-2.5867-8.2744-8.0172-0.26466 0.12734-0.50435 0.2347-0.76652 0.29213-2.7652 5.7913 2.0274 12.847 9.5091 8.0722-0.12359-0.14232-0.25842-0.27714-0.46815-0.34706"/>
   <path d="m87.557 109.62c-2.9175 14.453-16.156 13.571-21.252 8.9772-0.30461 0.01-1.0025 0.0687-1.2771-0.0324 4.7302 5.1134 19.801 6.8063 23.175-7.8474-0.13732-0.24224-0.51434-0.87143-0.64667-1.0974"/>
   <path d="m33.681 90.551c-0.0774-0.20723-0.20349-0.27714-0.35579-0.47314-0.98249-0.12484-1.8327 0.10487-2.7515 0.63793-0.01748 0.2322-0.03371 0.44068-0.05118 0.6629 1.2784-0.77526 2.1547-1.1123 3.1584-0.82769"/>
   <path d="m35.527 81.161c-0.40573-0.6654-1.2784-2.121-1.4407-2.6329-0.16728 0.09738-0.36453 0.45567-0.49686 0.56677 0.19974 0.5443 0.98499 1.6129 1.347 2.2097 0.42446 0.6991 1.0536 0.61546 0.59049-0.14357"/>
   <path d="m37.384 74.891c-0.06991 0.1548-0.47939 0.40323-0.58675 0.56178 0.01373 0.0062 0.02497 0.01498 0.0387 0.01873 1.4369 0.36204 1.9837 2.8613 0.50061 6.1409-0.35205 0.779 0.16354 0.74904 0.61921-0.07366 1.9076-3.4518 1.1398-6.1359-0.57177-6.6477"/>
   <path d="m42.073 89.531c2.9375-0.36328 5.7327 0.5493 6.6203 2.141 0.03121 0.05618 0.4257-0.80896 0.3895-0.8589-1.0711-1.4469-3.739-2.754-6.8088-2.1098-0.9388 0.19725-1.1161 0.94129-0.20099 0.82769"/>
   <path d="m45.916 95.771c-0.78649-0.45317-2.4918-1.9875-4.0935-3.7452-0.72407-0.79398-0.42321-1.3982 0.31585-0.59049 1.5393 1.6828 3.4181 3.4343 4.1447 3.8538 0.12983 0.07366-0.33083 0.5031-0.36703 0.48188"/>
   <path d="m62.917 111.81c-3.7914-0.31959-5.4343-2.312-4.3132-3.8463 0.51559-0.70659 0.80272-0.56053 0.39824 0.16604-0.92506 1.6554 1.4556 2.9 4.2808 3.1385 6.5578 0.55804 10.671-0.57426 16.485-4.307 0.84142-0.54055 0.6991 0.10487-0.15106 0.64792-7.614 4.8663-12.363 4.5704-16.7 4.2009"/>
   <path d="m79.457 107.29c-2.3095 9.9685-12.298 10.343-15.167 6.0672-0.13857 0.11985-0.27714 0.23845-0.41696 0.35705 3.3569 4.8725 13.873 3.9986 16.162-6.5054-0.20099 0.0337-0.41322 0.0212-0.57801 0.0811"/>
   <path d="m67.127 111.6c-0.22971 0.11985-0.33582 0.14107-0.6654 0.12859-0.70035 0.81895-1.0936 1.8938-1.2958 2.6853 0.23095 0.1598 0.20349 0.46191 0.41447 0.63294 0.0025-0.01 0.0087-0.0175 0.01-0.0275 0.13732-0.92132 0.80522-2.6791 1.5368-3.4194"/>
   <path d="m65.147 111.57c-0.36578 0.92631-0.72657 1.4856-0.98124 1.7777-0.26841 0.30711-0.36828 0.2734-0.60672 0.0699-0.33956-0.29088-0.90259-0.91632-1.5068-1.8988-0.25842-0.0574-0.74529-0.18976-0.71908-0.14357 0.57801 1.0187 1.4207 2.0961 1.9662 2.6416 0.37826 0.37952 0.61172 0.43819 1.0686-0.1523 0.40323-0.52308 1.0062-1.3707 1.3233-2.1959-0.17602-0.0487-0.35704-0.0811-0.5443-0.0986"/>
   <path d="m77.027 111.29c-0.34206-0.32833-0.87014-1.0062-1.337-1.7677-0.15855 0.0911-0.29837 0.20848-0.41072 0.37077 0.33083 0.53307 0.96501 1.4007 1.4856 1.8801 0.43694 0.40199 0.65791 0.63544 1.176-0.29712 0.5081-0.91757 0.98624-2.7315 1.1897-3.6004-0.20848 0.0612-0.44068 0.0949-0.59798 0.21597-0.23969 0.98624-0.64542 2.2671-0.96002 2.95-0.17727 0.387-0.36703 0.42071-0.54555 0.24843"/>
   <path d="m96.507 82.171c-0.28089 2.362-2.9562 6.1384-3.8326 6.9199 0.20099 0.08614 0.37951 0.46191 0.39824 0.66415 1.367-0.90884 3.8538-4.9786 3.9936-7.3855 0.049936-0.86764-0.45816-1.0462-0.55928-0.1985"/>
   <path d="m93.997 91.221c-0.12983-0.01-0.14981-0.52932-0.0012-0.54056 3.4593-0.28464 5.1958-5.5491 2.8488-7.8-0.10861-0.10362 0.0362-0.56553 0.1548-0.47439 3.1447 2.4356 0.86514 8.5004-2.9587 8.815-0.01498 0.0012-0.02996 0.0012-0.04369 0"/>
   <path d="m102.09 88.471c3.7702-2.9724 4.9948-8.6377 4.0086-12.092-0.0399-0.14357 0.63918 0.29462 0.67289 0.44068 0.70285 3.0236-0.29962 8.4379-3.8226 11.634 2.744-1.1348 5.6665-5.2807 4.8276-9.4616-0.03-0.14731 0.43694 0.22097 0.47439 0.36578 0.91258 3.533-1.5917 8.6801-5.614 9.6826-1.1523 0.28713-1.4706 0.1598-0.5468-0.56927"/>
   <path d="m99.027 76.05c0.29712-0.72033 0.49062-4.0136-0.05118-4.6078-0.10237-0.11111 0.65541-0.0412 0.71908 0.12234 0.44442 1.136 0.2322 3.513-0.10237 4.4768-0.28714 0.82769-0.8639 0.73406-0.56553 0.008739"/>
   <path d="m99.567 76.057c-0.14731-0.02497-0.02372-0.50685 0.12734-0.48188 1.337 0.22346 2.9362-1.1635 2.7952-2.2758-0.0187-0.14856 0.33458-0.13483 0.35455 0.01373 0.18726 1.4781-1.4993 3.0448-3.277 2.744"/>
   <path d="m37.81 136.49c-2.6054-22.916 11.292-56.65 32.85-63.979 0.69411-0.23595-0.01124-0.4644-0.73905-0.21098-26.998 9.3842-35.01 49.668-32.887 64.539 0.19974 1.4044 0.51309 2.2621 1.3433 0.34831 8.4617-19.475 25.616-47.824 33.783-55.66-0.09737-0.2322-0.20599-0.45067-0.21972-0.68662-9.0609 8.0409-26.009 35.78-34.131 55.65"/>
   <path d="m104.81 136.49c-1.3333-2.3058-3.86-5.8463-6.7364-10.112-7.7601-11.508-20.049-28.344-26.738-47.026-0.43319-1.2109-0.13857-1.6379 0.33332-0.45941 6.8737 17.149 19.042 35.195 27.114 47.166 2.9412 4.3619 5.3432 7.9236 6.6739 10.252 1.0512-13.911-7.433-51.735-26.731-59.828-1.3408-0.56178-1.0037-0.8177 0.37452-0.35455 18.647 6.1546 28.034 44.726 27.02 60.019-0.13108 1.9862-0.41197 1.8988-1.3108 0.34331"/>
   <path d="m34.349 61.962c-17.143 2.8064-32.18 14.963-34.343 28.472-0.022471 0.14107 0.036204 0.28339 0.16104 0.3533 0.042446 0.02247 0.087388 0.0362 0.13233 0.0387 0.091133 0.0075 0.18476-0.02497 0.25343-0.09238 15.55-15.257 41.409-24.582 60.378-13.394 0.18851-0.14606 0.47564-0.38201 0.72657-0.45691-18.574-11.918-44.348-2.9312-60.752 12.608 3.1535-12.041 16.528-24.215 33.447-26.811 11.595-1.779 21.878-0.2734 33.1 8.217 0.94629 0.71533 1.5143 0.62545 0.56802-0.21722-5.8825-5.2333-16.426-11.54-33.671-8.7176"/>
   <path d="m12.411 30.454c10.896-8.3106 31.247-3.7514 48.141 14.948-0.22346-0.64667-0.4669-1.2634-0.80772-1.8351-18.927-20.002-37.737-21.301-47.601-13.618-1.2134 0.94629-1.5031 1.1585 0.02247 1.1573 18.912-0.01748 39.853 16.671 47.609 26.783 0.83768 0.7378 1.6566 1.4744 2.3857 2.2047-9.1745-13.689-30.377-29.671-49.749-29.641"/>
   <path d="m63.257 61.191c-14.347-16.55-43.909-23.311-61.006 0.46815-0.96252 1.3383-1.1473 1.9962 0.25343 1.2284 18.857-10.336 35.292-4.1147 41.883-1.2322 0.60048 0.01748 1.3495 0.01248 1.9213 0.05868-19.133-8.77-30.754-6.6253-43.65 0.3483 16.927-22.878 46.239-16.494 60.507-0.034955 0.8589 0.98499 0.94629 0.15106 0.091133-0.83643"/>
   <path d="m147.77 80.273c-8.8699-21.756-48.314-29.305-73.894-9.2569-0.70035 0.5493-0.08864 0.56053 0.61421 0.06741 33.531-23.545 68.327-4.4281 72.703 9.4978-17.848-14.158-51.99-13.967-65.693-3.3545 0.21847 0.10611 0.4332 0.21223 0.64917 0.31834 12.89-9.6876 47.107-10.44 64.71 3.6029 1.3071 1.0424 1.7091 1.0824 0.91133-0.87513"/>
   <path d="m149.88 54.649c-17.342-19.032-56.631-16.087-70.043 9.2556-0.66415 1.2571-0.37078 1.7253 0.29337 0.52183 14.387-26.059 53.197-26.929 69.503-9.1982-11.312-3.7489-38.185-4.1372-51.017 5.1871 0.48438-0.03496 1.3146-0.07366 1.7752-0.13233 12.423-8.0884 38.352-7.9673 48.991-4.4518 1.8501 0.61047 1.8626 0.31709 0.49686-1.1822"/>
   <path d="m132.4 16.813c-21.276-1.3658-47.545 13.292-58.592 41.974 0.09363 0.46815 0.13358 0.97874 0.13857 1.4956 9.1583-25.45 35.959-44.471 58.731-42.798-15.892 8.167-37.16 26.751-41.818 34.046 0.32209-0.13233 1.1161-0.48563 1.4581-0.59549 3.7864-5.3556 25.975-25.298 40.553-32.818 2.1485-1.1086 1.588-1.1722-0.47065-1.3046"/>
   <path d="m94.767 0.161c-11.463 1.4781-27.708 21.539-28.186 39.477 0.17228 0.42695 0.40074 0.76152 0.61921 1.1123 0.01623-0.0387 0.02497-0.08239 0.02372-0.12734-0.21722-15.588 15.679-38.554 27.982-39.921-11.268 7.5229-25.002 53.892-21.072 65.132 0.3121 0.89261 0.67538 0.76777 0.42196 0.05118-3.1123-8.7912 8.4904-52.932 21.115-64.728 1.4831-1.3845 1.0224-1.2434-0.90384-0.99497"/>
   <path d="m43.081 22.338c-1.2309-0.88886-1.0674-1.8289 1.0299-1.4881 20.094 3.277 29.646 25.374 27.597 46.604-0.1136 1.171-0.50935 1.1698-0.45567 0.12858 1.5493-30.023-14.267-44.035-27.64-45.915 17.675 13.161 24.199 40.215 24.539 45.627 0.04744 0.77526-0.34206 1.0199-0.48563 0.14606-2.9362-17.862-14.327-37.694-24.585-45.102"/>
   <path d="m40.186 96.971c-5.6627-2.9025-11.755-12.535-10.802-16.893 0.37951-1.7378 1.6566-1.8676 3.5904-0.94254 0.93006 0.44443 0.7016 0.91882-0.2297 0.47439-1.1673-0.55804-2.2871-0.92007-2.6291 0.64792-0.88636 4.0561 5.0985 13.481 10.259 16.253 0.84267 0.45192 0.66165 0.89635-0.18851 0.46066"/>
   <path d="m85.217 106.11c-0.70659 5.9262-5.4792 12.164-14.838 12.745-7.9835 0.49686-14.208-7.383-15.194-14.741-0.1985 0.3121-0.51309 0.96251-0.65916 1.2147 1.0936 8.0347 8.3381 14.717 15.88 14.263 8.0072-0.48313 14.329-5.2071 15.458-12.468-0.22846-0.21098-0.49187-0.7378-0.64542-1.0137"/>
   <path d="m71.447 81.941c-0.18102 0.18476-0.36578 0.42321-0.55054 0.65791 0.09987-0.0037 0.19725-0.0087 0.29712-0.01 0.53057-0.0087 1.0524 0.01373 1.5617 0.06741-0.03371-0.21597-0.0387-0.42071-0.02996-0.64917-0.41946-0.03993-0.84517-0.0649-1.2784-0.06615"/>
   <path d="m64.347 186.31c-0.58675 1.6017-2.9562 5.9748-7.991 3.9025-3.3869-1.3945-5.3993-5.689-2.2159-9.7088 0.0749-0.0936-0.90759 0.47939-1.2933 0.71783-2.5555 3.7327-0.33083 8.0472 3.1759 9.5453 4.6453 1.9837 7.4492-0.75903 8.3655-3.106 0.06492-0.16479 0.04869-1.1323-0.0412-1.3508"/>
  </g>
 </g>
</svg>
