<?xml version="1.0" encoding="UTF-8"?>
<svg version="1.1" viewBox="0 0 235.81 430" xmlns="http://www.w3.org/2000/svg" xmlns:xlink="http://www.w3.org/1999/xlink">
 <path d="m232.21 334.02c-0.421-1.375-2.653-1.252-4.065-0.489 0.654-1.789 2.367-4.705 1.035-5.72-0.871-0.663-2.91 1.006-4.01 3.544-3.228-5.153-19.343-9.413-23.205 1.495 0.6 0.185 1.158 0.591 0.657 2.272-0.306 1.023-0.64 2.033-0.992 3.035a16.539 16.539 0 0 0 4.235 9.718c4.584 4.767 11.786 6.177 17.659 2.032 4.316-3.047 5.488-7.8 4.577-12.342 0.895 0.156 4.545-2.123 4.109-3.545z" fill="#d6e6ae" data-name="パス 17561"/>
 <g fill="#00a63c">
  <path d="m201.67 332.63c-11.052-16.826-27.806-9.335-30.528 2.461 8.3-7.648 22.006-7.043 28.968-1.361z" data-name="パス 17562"/>
  <path d="m138.32 90.158a29.172 29.172 0 0 0-8.8 0.428c0.074 0.524 0.136 1.036 0.181 1.4 0.024 0.185 0.089 0.3 0.352 0.293 0.286-0.01 0.695-0.246 0.737-0.092a20.275 20.275 0 0 0 2.866 5.417 2.242 2.242 0 0 1 0.427 1.219q-0.018 1.725-0.179 3.383c6.509 6.289 16.874 25.049 18.622 30.168 1.864-16.144-6.358-36.57-14.206-42.216z" data-name="パス 17563"/>
  <path d="m63.391 103.35c0.085-1.232 1.554-2.913 3.347-4.418-5.766 0.234-17.949 12.443-18.786 21.647 4.916-5.761 11.721-10.739 15.92-12.695a15.435 15.435 0 0 1-1.739-2.936c-0.292-0.76 0.146-1.265 1.258-1.598z" data-name="パス 17564"/>
  <path d="m103.23 52.681a75.616 75.616 0 0 1 3.68 16.735 87.615 87.615 0 0 1 8.4-17.177c3.607-13.259 19.023-38.963 42.607-51.483-23.286-1.542-48.542 32.525-54.687 51.925z" data-name="パス 17565"/>
 </g>
 <path d="m93.244 83.124a13.293 13.293 0 0 0-8.089-6.9c-8.8-2.83-15.1 1.712-19.321 7.231-2.243 0.489-5.849 1.8-6.494 3.911-0.426 1.39-0.222 4.4 4.161 2.518 2.628-1.126 8.232-2.249 10.882-1.349-0.4 2.4-6.411 14.169-8.911 14.434a11.916 11.916 0 0 0-2.081 0.374c-1.112 0.333-1.55 0.838-1.258 1.6 5.477 12.157 22.431 11.8 28.943 2.536-5.911-8.453-3.218-17.298 2.168-24.355zm-16.411-0.4a5.059 5.059 0 0 1-1.106 1.587c-1.228 0.866-3.621 0.223-3.952-0.125-0.725-0.763-0.793-2.041 0.04-3.817 1.1-2.351 3.126-3.735 4.51-3.086s1.611 3.093 0.508 5.444z" fill="#fff8b0" data-name="パス 17566"/>
 <path d="m143.05 69.218a80.077 80.077 0 0 0-21.313 15.28c0.229 0.444 0.447 0.9 0.649 1.358 1.089 0.184 2.17 1.864 2.274 2.226 0.766-0.493 1.53-1.561 1.861-1.533 0.253 0.022 0.477 0.457 0.657 0.935 20.509-10.46 56.286-8.325 81.087 20.035-5.699-20.55-36.786-38.368-65.215-38.301z" fill="#00a63c" data-name="パス 17567"/>
 <path d="m85.027 112.62a17.41 17.41 0 0 1-6.336 1.677c1.394 3.3 4.454 6.106 7.853 6.571a27.555 27.555 0 0 1-1.517-8.248z" fill="#fff8b0" data-name="パス 17568"/>
 <g fill="#00a63c">
  <path d="m4.4248 49.702c25.524-8.322 59.384-1.995 75.368 16.7-26.45-15.428-65.974-6.843-79.721 23.134 31.069-25.995 63.73-18.743 72.624-12.117a15.469 15.469 0 0 1 12.459-1.187 13.293 13.293 0 0 1 8.089 6.9 22.4 22.4 0 0 1 8.048-6.74c-9.977-32.151-62.214-63.887-96.867-26.69z" data-name="パス 17569"/>
  <path d="m108.18 41.069c0.455-11.178-8.931-33.356-16.377-38.262 6.455 10.682 10.753 37.327 10.068 46.091q0.724 1.894 1.357 3.781a72 72 0 0 1 4.952-11.61z" data-name="パス 17570"/>
  <path d="m65.834 83.46a22.073 22.073 0 0 1 6.862-6.044 25.933 25.933 0 0 0-3.17-2.007c-26.13-2.5-51.735 19.649-55.41 38.516 6.024-11.25 36.673-28.623 45.2-26.475 0.461-1.656 2.807-3.181 6.518-3.99z" data-name="パス 17571"/>
 </g>
 <path d="m69.743 93.393c0.651-0.085 2.677-3.916 3.326-5.141a19.124 19.124 0 0 0-6.393 0.631c0.822 1.456 2.629 4.567 3.067 4.51z" fill="#fff" data-name="パス 17572"/>
 <path d="m63.391 103.33a11.81 11.81 0 0 1 2.081-0.373c1.448-0.154 3.989-3.5 6-7.166-1.816 0.84-7.919 5.185-8.081 7.539z" fill="#ed8599" data-name="パス 17573"/>
 <path d="m53.859 371.26c-11.715 2.278-19.193 18.728-19.193 18.728l-0.1-0.06c-4.336-2.624-8.379-3.082-11.628 0.029 0.774 0.346 1.211 0.743 1.033 1.171-0.274 0.656-2.181 6.759-4.474 7.93 1.612 7.362 14.84 20.52 26.867 18.515 7.858-1.31 8.065-6.108 8.29-10.482 0.228-4.45 9.457-11.191 15.742-12.4-4.486-2.304-14.87-7.951-16.537-23.431z" fill="#c18963" data-name="パス 17574"/>
 <path d="m122.16 67.265c13.454-22.432 44.553-44.3 77.154-42.448-35.4-18.039-67.136 0.72-84 27.42a87.615 87.615 0 0 0-8.4 17.177c-2.42-26.027-29.663-77.446-68.9-68 16.987 1.985 47.859 39.492 49.682 52.751a65.529 65.529 0 0 1 13.6 22.222 14.321 14.321 0 0 1 7.926-1.387c5.6 0.7 9.91 4.445 12.517 9.5 17.536-17.243 44.946-32.082 87.349-13.2-18.853-19.01-64.351-25.819-86.928-4.035z" fill="#00a63c" data-name="パス 17575"/>
 <path d="m201.33 333.66a1.158 1.158 0 0 1 1.427-0.333 8.037 8.037 0 0 1 2.115-3.344c3.139-5.454 16.469-14.186 30.53-8.5-4.802-11.961-29.393-12.127-34.072 12.177z" fill="#00a63c" data-name="パス 17576"/>
 <path d="m105.35 418.14c-2.46 1.345-6.616 4.914-7.027 6.657 1.19 1.487 6.189 2.031 8.428 1.8a24.583 24.583 0 0 1 1.641-2.034 10.345 10.345 0 0 1-3.042-6.423z" fill="#fff" data-name="パス 17577"/>
 <g fill="#c18963">
  <path d="m134.06 401.63c-0.544-5.409-3.513-6.993-7.119-7.33-2.685-0.249-4.944 0.583-8.492-2.923-2.994-2.956-5.161-7.861-6.929-12.458-4.306-11.194-26.079-0.617-25.624 10.074-0.8 8.842 9.161 21.135 20.659 24.358-2.267 3.662-1.207 8.081 1.838 11.212 1.585-1.767 3.522-3.42 4.988-3.595 1.861-0.224 4.6 5.365 3.943 7.336a11.99 11.99 0 0 0 6.132-1.863c5.013-3.106 11.574-15.17 10.604-24.811z" data-name="パス 17578"/>
  <path d="m133.66 97.606a20.275 20.275 0 0 1-2.866-5.417c-0.042-0.154-0.451 0.083-0.737 0.092-0.263 0.01-0.328-0.108-0.352-0.293-0.045-0.366-0.107-0.878-0.181-1.4-0.149-1.041-0.35-2.131-0.592-2.23-0.281-0.115-1.1 0.448-1.316 0.389-0.058-0.015-0.214-0.67-0.436-1.261-0.18-0.478-0.4-0.913-0.657-0.935-0.331-0.028-1.095 1.04-1.861 1.533-0.1-0.362-1.185-2.042-2.274-2.226a26.839 26.839 0 0 1 1.836 14.708c-1.515 9.6-10.779 16.14-20.8 14.56a18.52 18.52 0 0 1-12.348-7.642 15.776 15.776 0 0 1-6.049 5.137c0.1 6.072 2.917 14.933 8.095 18.717-16.515 39.15-27.228 104.64-17.154 167.6 1.005 6.285 0.178 12.358-5.757 21.684-8.43 13.247-18.176 33.707-16.352 50.639 2.1 19.452 20.6 28.313 35.1 27.879-2.131-3.469-3.341-7.052-3.06-10.146-0.455-10.691 21.318-21.268 25.624-10.074 0.613 1.594 1.2 2.994 1.769 4.244a41.65 41.65 0 0 0 3.4-13.985c1.053-12.962-2.3-27.4-6.379-37.017-4.27-10.074-6.454-13.155-10.731-24.2-14.673-37.888-10.074-137.1 11.279-173.01 16.9-8.583 23.1-23.892 23.222-36.124a2.242 2.242 0 0 0-0.423-1.218z" data-name="パス 17579"/>
  <path d="m200.55 333.14c-17.2 28.275-54.98 49.3-83.861 36.04a41.65 41.65 0 0 1-3.4 13.985 30.9 30.9 0 0 0 4.347 7.336c32.648 8.254 74.97-20.874 84.99-55.381 0.535-1.862-1.538-2.863-2.076-1.98z" data-name="パス 17580"/>
 </g>
 <path d="m67.922 91.011c-0.471-0.772-0.93-1.571-1.246-2.128a23.981 23.981 0 0 0-2.888 0.891c0.871 1.59 2.086 3.84 2.56 3.838 0.495 0 1.146-1.437 1.588-2.05-0.01-0.052-0.01-0.307-0.014-0.551z" fill="#fff" data-name="パス 17581"/>
 <path d="m73.069 88.252c-0.649 1.225-2.675 5.056-3.326 5.141-0.271 0.035-1.062-1.137-1.821-2.382 0 0.244 0.295 5.529-0.221 7.152a21.756 21.756 0 0 1 3.774-2.354 26.385 26.385 0 0 0 2.908-7.269 6.65 6.65 0 0 0-1.314-0.288z" fill="#922f00" data-name="パス 17582"/>
 <path d="m151.91 81.432a55.944 55.944 0 0 0-24.731 6.052c0.222 0.591 0.378 1.246 0.436 1.261 0.214 0.059 1.035-0.5 1.316-0.389 0.242 0.1 0.443 1.189 0.592 2.23 22.941-4.693 48.356 21.82 55.638 41.024 0.883-15.778-15.879-43.078-33.251-50.178z" fill="#00a63c" data-name="パス 17583"/>
 <path d="m76.325 77.281c-1.384-0.649-3.407 0.735-4.51 3.086-0.833 1.776-0.765 3.054-0.04 3.817 0.331 0.348 2.724 0.991 3.952 0.125a5.059 5.059 0 0 0 1.106-1.587c1.103-2.346 0.876-4.787-0.508-5.441z" fill="#fff" data-name="パス 17584"/>
 <path d="m109.22 74.997c-9.365-1.171-19.31 8.556-21.095 19.869-1.581 10.017 5.762 18.752 15.3 20.258 10.017 1.58 19.281-4.961 20.8-14.56 1.939-12.304-4.637-24.272-15.005-25.567zm-15 9.472c2.345 0.593 7.832-0.311 10.24-1.621-0.669 3.656-3.441 5.362-6.107 5.057a4.824 4.824 0 0 1-4.135-3.436zm1.78 5.885c4.845 4.627 16.753 4.244 21.38 2.327-3.534 5.53-17.58 5.968-21.38-2.327zm20.52-1.55c-2.538-0.164-5.278-2.7-5.027-5.622 3.23 2.41 8.47 3.224 9.693 2.612a4.327 4.327 0 0 1-4.668 3.01z" fill="#fff8b0" data-name="パス 17585"/>
 <path d="m104.46 82.848c-2.408 1.31-7.9 2.214-10.24 1.621a4.824 4.824 0 0 0 4.133 3.436c2.666 0.305 5.438-1.401 6.107-5.057z" fill="#fff" data-name="パス 17586"/>
 <path d="m111.49 83.181c-0.251 2.925 2.489 5.458 5.027 5.622a4.327 4.327 0 0 0 4.666-3.01c-1.223 0.613-6.463-0.201-9.693-2.612z" fill="#fff" data-name="パス 17587"/>
 <path d="m95.998 90.354c3.8 8.295 17.848 7.857 21.38 2.327-4.629 1.917-16.537 2.3-21.38-2.327z" fill="#922f00" data-name="パス 17588"/>
 <g fill="#fff">
  <path d="m22.547 382.86c-0.583 1.431 0.474 5.621 1.089 6.485a7.835 7.835 0 0 1 6.263-1.492c-1.537-2.732-6.21-5.46-7.352-4.993z" data-name="パス 17589"/>
  <path d="m113.38 420.97c-2.264 0.271-7.168 5.939-7.775 7.555 2.3 1.752 11.429 0.62 11.717-0.217 0.657-1.973-2.081-7.562-3.942-7.338z" data-name="パス 17590"/>
  <path d="m13.732 388.83c-1.059 1.56 4.873 10.019 5.749 10.238l0.016-0.01c2.293-1.171 4.2-7.274 4.474-7.93 0.535-1.285-9.317-3.657-10.239-2.299z" data-name="パス 17591"/>
 </g>
 <path d="m202.37 341.76a15.488 15.488 0 0 0 3.494 6.109c4.584 4.767 11.786 6.177 17.659 2.032a11.375 11.375 0 0 0 4.646-6.434c-7.302 4.968-19.211 4.721-25.799-1.707z" fill="#b9c897" data-name="パス 17592"/>
 <g fill="#009233">
  <path d="m171.14 335.09c8.3-7.648 22.006-7.043 28.968-1.361 0.23-0.371 0.9-0.746 1.137-1.117-9.565-9.772-25.311-6.875-30.105 2.478z" data-name="パス 17593"/>
  <path d="m131.23 90.232c-1.232-0.165-0.739 0.082-1.708 0.354 0.074 0.524 0.136 1.036 0.181 1.4 0.024 0.185 0.089 0.3 0.352 0.293 0.286-0.01 0.695-0.246 0.737-0.092a20.275 20.275 0 0 0 2.866 5.417 2.242 2.242 0 0 1 0.427 1.219q-0.018 1.725-0.179 3.383c6.509 6.289 16.874 25.049 18.622 30.168-0.928-11.016-13.496-35.737-21.298-42.142z" data-name="パス 17594"/>
  <path d="m47.952 120.58c4.916-5.761 11.721-10.739 15.92-12.695a15.435 15.435 0 0 1-1.739-2.936 44.466 44.466 0 0 0-14.181 15.631z" data-name="パス 17595"/>
  <path d="m105.6 62.144a56.3 56.3 0 0 1 1.307 7.27 87.615 87.615 0 0 1 8.4-17.177c3.607-13.259 19.023-38.963 42.607-51.483-24.227 5.134-46.169 41.993-52.314 61.39z" data-name="パス 17596"/>
 </g>
 <path d="m60.163 86.09c-1.932 1.943-0.518 5.452 3.338 3.8a24.733 24.733 0 0 1 8.332-1.674c-3.328-1.396-12.672 3.515-11.67-2.126z" fill="#ddd698" data-name="パス 17597"/>
 <path d="m62.811 106.27c6.079 10.784 22 10.123 28.265 1.209a18.733 18.733 0 0 1-2.626-5.326c-5.758 8.566-16.271 9.88-25.639 4.117z" fill="#ddd698" data-name="パス 17598"/>
 <path d="m130 77.502c-2.874 2.217-6.241 5.174-8.261 7 0.229 0.444 0.447 0.9 0.649 1.358 1.089 0.184 2.17 1.864 2.274 2.226 0.766-0.493 1.53-1.561 1.861-1.533 0.253 0.022 0.477 0.457 0.657 0.935 20.509-10.46 56.286-8.325 81.087 20.035-15.524-26.818-52.317-33.306-78.267-30.021z" fill="#009233" data-name="パス 17599"/>
 <path d="m85.027 112.62a17.41 17.41 0 0 1-6.336 1.677c1.394 3.3 4.454 6.106 7.853 6.571a27.555 27.555 0 0 1-1.517-8.248z" fill="#ddd698" data-name="パス 17600"/>
 <g fill="#009233">
  <path d="m4.5888 49.497c25.524-8.322 65.92-1.643 79.937 23.926-26.45-15.428-64.826-9.143-84.454 16.11 31.069-25.995 63.73-18.743 72.624-12.117a15.469 15.469 0 0 1 12.459-1.187 13.293 13.293 0 0 1 8.089 6.9 18.2 18.2 0 0 1 5.024-4.828c-21.188-34.663-66.413-44.285-93.679-28.804z" data-name="パス 17601"/>
  <path d="m105.28 46.622c1.643-10.84-8.212-39.01-13.469-43.815 6.455 10.682 10.753 37.327 10.068 46.091q0.724 1.894 1.357 3.781c1.173-3.698 1.387-4.086 2.044-6.057z" data-name="パス 17602"/>
  <path d="m65.834 83.46q0.3-0.393 0.615-0.773c-16.909-0.559-44.613 12.363-52.333 31.238 6.024-11.25 36.673-28.623 45.2-26.475 7e-3 -0.026 0.011-0.053 0.019-0.079 0.65-2.108 4.256-3.422 6.499-3.911z" data-name="パス 17603"/>
 </g>
 <path d="m68.636 88.481a4.937 4.937 0 0 1 2.364 3.434c0.789-1.241 1.678-2.92 2.069-3.658a15.945 15.945 0 0 0-4.433 0.224z" fill="#dbdcdc" data-name="パス 17604"/>
 <path d="m66.754 99.039a11.136 11.136 0 0 1 3.126-0.472 26.242 26.242 0 0 0 1.6-2.778 26.727 26.727 0 0 0-4.726 3.25z" fill="#ce7486" data-name="パス 17605"/>
 <path d="m60.435 387.53c-7.968 4.934-17.284 14.8-16.261 19.217s-2.381 7.145-9.362 4.271a44.663 44.663 0 0 1-14.372-9.855c3.449 7.473 14.547 18.307 25.924 16.411 7.858-1.31 8.065-6.108 8.29-10.482 0.228-4.45 9.457-11.191 15.742-12.4-2.924-1.502-7.415-3.466-9.961-7.162z" fill="#986c4c" data-name="パス 17606"/>
 <path d="m117.76 76.27c9.444-26.2 48.619-54.286 81.551-51.453-37.672-9.871-74.406 23.366-92.146 47.511a18.9 18.9 0 0 0-0.575-5.585c-13.768-33.257-52.3-66.165-68.575-65.332 16.987 1.985 47.859 39.492 49.682 52.751a65.529 65.529 0 0 1 13.6 22.222 14.321 14.321 0 0 1 7.926-1.387c5.6 0.7 9.91 4.445 12.517 9.5 17.536-17.243 44.946-32.082 87.349-13.2-24.232-17.037-69.812-16.79-91.329 4.973z" fill="#009233" data-name="パス 17607"/>
 <path d="m202.76 333.33a8.037 8.037 0 0 1 2.115-3.344c3.139-5.454 16.469-14.186 30.53-8.5-8.542-8.26-30.406-2.714-33.892 11.355z" fill="#009233" data-name="パス 17608"/>
 <path d="m106.52 422.03a9.051 9.051 0 0 1-8.126 2.55 2.315 2.315 0 0 0-0.076 0.219c1.19 1.487 6.189 2.031 8.428 1.8a24.583 24.583 0 0 1 1.641-2.034 11.612 11.612 0 0 1-1.867-2.535z" fill="#dbdcdc" data-name="パス 17609"/>
 <path d="m134.06 401.63c-0.544-5.409-3.513-6.993-7.119-7.33-2.685-0.249-4.944 0.583-8.492-2.923-2.994-2.956-5.161-7.861-6.929-12.458a7.167 7.167 0 0 0-6.084-4.678c3.027 12.749 5.361 27.448-3.223 37.44a25.693 25.693 0 0 0 4.342 1.67c-2.267 3.662-1.207 8.081 1.838 11.212 1.585-1.767 3.522-3.42 4.988-3.595 1.861-0.224 4.6 5.365 3.943 7.336a11.99 11.99 0 0 0 6.132-1.863c5.013-3.106 11.574-15.17 10.604-24.811z" fill="#986c4c" data-name="パス 17610"/>
 <path d="m114.15 385.56c1.616 3.559 2.195 3.429 3.488 4.941 32.648 8.254 76.5-20.053 85.044-57.5-20.203 43.638-51.302 53.359-88.532 52.559z" fill="#986c4c" data-name="パス 17611"/>
 <path d="m67.922 91.011c-0.471-0.772-0.93-1.571-1.246-2.128a23.981 23.981 0 0 0-2.888 0.891l0.23 0.419a3.258 3.258 0 0 1 3.547 1.958c0.133-0.225 0.259-0.433 0.371-0.589-0.01-0.052-0.01-0.307-0.014-0.551z" fill="#dbdcdc" data-name="パス 17612"/>
 <path d="m136.16 83.826a58.967 58.967 0 0 0-8.98 3.658c0.222 0.591 0.378 1.246 0.436 1.261 0.214 0.059 1.035-0.5 1.316-0.389 0.242 0.1 0.443 1.189 0.592 2.23 22.941-4.693 48.356 21.82 55.638 41.024-4.325-21.175-27.813-46.963-49.002-47.784z" fill="#009233" data-name="パス 17613"/>
 <path d="m87.926 98.24c0.328 8.544 7.049 15.55 15.5 16.884a18.065 18.065 0 0 0 20.094-11.725c-9.155 11.471-30.289 11.033-35.594-5.159z" fill="#ddd698" data-name="パス 17614"/>
 <g fill="#dbdcdc">
  <path d="m23.636 389.35a7.225 7.225 0 0 1 2.841-1.387 9.22 9.22 0 0 1-3.919-2.1 11.335 11.335 0 0 0 1.078 3.487z" data-name="パス 17615"/>
  <path d="m114.46 421.37c0.51 3.446-2.61 6.978-5.567 8.128 3.259 0.021 8.251-0.667 8.431-1.19 0.538-1.614-1.197-5.646-2.864-6.938z" data-name="パス 17616"/>
  <path d="m15.475 393.78c1.534 2.574 3.526 5.163 4.006 5.282l0.016-0.01c1.436-0.733 2.721-3.4 3.548-5.454-2.207 1.635-5.128 1.424-7.57 0.181z" data-name="パス 17617"/>
 </g>
 <path d="m54.642 375.58c4.164 16.44 20.942 23.958 34.312 23.558-2.131-3.469-3.341-7.052-3.06-10.146a9.612 9.612 0 0 1 1.426-5.2c-12.39 4.671-26.906 2.697-32.678-8.212z" fill="#986c4c" data-name="パス 17618"/>
 <path d="m134.08 98.825a2.242 2.242 0 0 0-0.427-1.219 20.275 20.275 0 0 1-2.866-5.417c-0.042-0.154-0.451 0.083-0.737 0.092-0.263 0.01-0.328-0.108-0.352-0.293-0.045-0.366-0.107-0.878-0.181-1.4-0.149-1.041-0.35-2.131-0.592-2.23-0.281-0.115-1.1 0.448-1.316 0.389-0.058-0.015-0.214-0.67-0.436-1.261-0.18-0.478-0.4-0.913-0.657-0.935-0.331-0.028-1.095 1.04-1.861 1.533-0.1-0.362-1.185-2.042-2.274-2.226a26.839 26.839 0 0 1 1.836 14.708c-1.515 9.6-10.779 16.14-20.8 14.56a18.52 18.52 0 0 1-12.348-7.642 15.776 15.776 0 0 1-6.049 5.137c0.1 6.072 2.917 14.933 8.095 18.717q-1.329 3.147-2.6 6.523c5.427-0.676 12.827 0.718 13.772 2.963-21.88 38.1-21.143 146.46-10.184 169.84 4.928 10.513 18.4 40.571 11.5 56.668a27.036 27.036 0 0 1-4.5 7.1c4.547-0.886 8.764 0.2 10.414 4.494 0.613 1.594 1.2 2.994 1.769 4.244a41.65 41.65 0 0 0 3.4-13.985c1.053-12.962-2.3-27.4-6.379-37.017-4.27-10.074-6.454-13.155-10.731-24.2-14.673-37.888-10.074-137.1 11.279-173.01 16.902-8.585 23.104-23.894 23.225-36.126z" fill="#986c4c" data-name="パス 17619"/>
 <path d="m231.87 333.74c-0.985 2.217-4.024 2.833-4.024 2.833q0.2 0.594 0.319 1.016c0.203 0.703 4.26-2.139 3.705-3.849z" fill="#b9c897" data-name="パス 17620"/>
 <path d="m228.75 327.62c0.9 1.848-2.222 7.074-0.781 6.735 0.534-1.561 3.114-6.318 0.781-6.735z" fill="#b9c897" data-name="パス 17621"/>
 <g fill="#0d131a">
  <path d="m130.04 91.998" data-name="パス 17622"/>
  <path d="m127.64 88.417" data-name="パス 17623"/>
  <path d="m100.36 86.081c-0.325 0-0.585-0.43-0.585-0.958s0.262-0.958 0.585-0.958 0.585 0.43 0.585 0.958-0.26 0.958-0.585 0.958" data-name="パス 17624"/>
  <path d="m75.112 84.27a4.269 4.269 0 0 0 1.911-2.93c0.35-1.626 0.106-3.3-0.8-3.724-1.325-0.622-3.291 0.987-4.171 2.865-0.677 1.443-0.748 2.6-0.212 3.371 0.386 0.553-0.425 0.48-0.7-0.242a4.151 4.151 0 0 1 0.307-3.39c1.431-3.047 4-3.718 5.04-3.229 1.344 0.63 1.72 2.517 1.276 4.362a4.627 4.627 0 0 1-2.292 3.25c-0.793 0.33-1.121 0-0.359-0.333z" data-name="パス 17625"/>
  <path d="m115.82 86.924c-0.325 0-0.585-0.43-0.585-0.958s0.262-0.959 0.585-0.959 0.585 0.43 0.585 0.959-0.261 0.958-0.585 0.958" data-name="パス 17626"/>
  <path d="m74.249 80.506c-0.3-0.116-0.4-0.61-0.208-1.1s0.586-0.8 0.887-0.689 0.395 0.61 0.208 1.1-0.583 0.8-0.887 0.689" data-name="パス 17627"/>
  <path d="m116.47 89c-2.417-0.156-5.522-2.242-5.333-5.665-0.147-0.113-0.288-0.229-0.425-0.348-0.306-0.267-0.26-1.129 0.529-0.5 2.977 2.361 7.405 3.45 9.677 3.162 0.528-0.067 0.688-0.128 0.493 0.424a4.6 4.6 0 0 1-4.941 2.927zm-4.668-5.2a5.287 5.287 0 0 0 4.733 4.669 4.191 4.191 0 0 0 4.178-2.272 15.861 15.861 0 0 1-8.911-2.394z" data-name="パス 17628"/>
  <path d="m94.312 85.126c-0.3-0.741-0.3-0.81 0.384-0.753 2.819 0.233 8.451-0.827 10.167-2.173 0.6-0.466 0.7 0.362 0.1 0.743q-0.114 0.072-0.24 0.144c-0.925 6.218-8.604 6.474-10.411 2.039zm0.457-0.216c1.865 4.042 8.173 3.526 9.211-1.46a21.379 21.379 0 0 1-9.211 1.46z" data-name="パス 17629"/>
  <path d="m96.078 90.848c-0.4-0.867-0.463-1.319 0.148-0.734 4.707 4.495 16.453 4.153 21.023 2.259 0.718-0.289 0.811-0.4 0.209 0.541-3.681 5.767-17.538 6.308-21.38-2.066zm1.06 0.82c4.386 6.179 15.256 5.852 19.258 1.713-5.303 1.61-14.217 1.547-19.258-1.713z" data-name="パス 17630"/>
  <path d="m72.669 88.293a38 38 0 0 1-2.506 4.27c-0.382 0.517-0.542 0.37-0.77 0.072a39.44 39.44 0 0 1-2.5-4.049 5.085 5.085 0 0 0-0.649 0.205 35.608 35.608 0 0 0 2.851 4.526c0.526 0.651 0.77 0.7 1.249 0.047a35.941 35.941 0 0 0 3.008-4.934 1.394 1.394 0 0 0-0.683-0.137z" data-name="パス 17631"/>
  <path d="m68.075 98.066a21.694 21.694 0 0 0 0.147-6.929c-0.271-0.4-0.56-0.789-0.862-1.168 0.356 1.507 0.822 6.449-0.273 8.448-0.021 0.039 0.711-0.253 0.988-0.351z" data-name="パス 17632"/>
  <path d="m62.831 103.32c0.23-0.107 0.69-0.108 0.927-0.2 0.458-2.131 5.047-5.688 7.783-6.976a4.952 4.952 0 0 0 0.417-0.9c-2.709 1.024-9.018 5.325-9.127 8.076z" data-name="パス 17633"/>
  <path d="m67.798 91.201c-0.142 0.16-0.887 1.405-1.257 1.886-0.145 0.189-0.221 0.17-0.357 0.015a26.04 26.04 0 0 1-1.939-3.19 5.515 5.515 0 0 0-0.752 0.2c1.015 1.707 1.8 2.91 2.2 3.441 0.478 0.631 0.613 0.657 1.221 0.03a8.94 8.94 0 0 0 1.016-1.4 4.341 4.341 0 0 0-0.132-0.982z" data-name="パス 17634"/>
  <path d="m66.398 93.287" data-name="パス 17635"/>
  <path d="m170.94 334.72c-0.117 0.789-0.04 1.138 0.475 0.663 6.8-6.264 20.522-8.15 28.378-1.265a2.645 2.645 0 0 0 0.6-0.73c-6.65-5.622-19.715-6.624-28.524 0.546 4.067-13.2 21.2-14.475 29.381-1.322 0 0 0.269-0.492 0.41-0.782-10.471-16.741-29.068-8.341-30.72 2.89z" data-name="パス 17636"/>
  <path d="m206.52 328.03c7.125-4 17.07 0.387 19.087 4.968 0.38 0.858 0.736 0.073 0.357-0.785-1.841-4.181-10.589-9.07-18.1-5.811z" data-name="パス 17637"/>
  <path d="m201.92 332.8c4.741-21.481 27.144-23.05 32.721-12.037-13.376-4.9-25.009 2.192-30.231 9.122a23.536 23.536 0 0 0-1.992 3.578c0.26 0.107 0.211 0.506 0.411 0.694a25.167 25.167 0 0 1 18.855-13.767 24.775 24.775 0 0 1 13.573 1.467c0.806 0.326 0.59 0.029 0.232-0.863-4.583-11.421-29.182-12.468-34.382 11.756 0 0 0.776 0.217 0.813 0.05z" data-name="パス 17638"/>
  <path d="m227.97 336.45c-0.509-1.205-1.115-1.466-0.652-0.241 0.737 1.95 2.625 8.677-4.025 13.372-5.343 3.77-12.393 2.956-17.141-1.983a16.113 16.113 0 0 1-4.22-10.609 9.311 9.311 0 0 1-0.645 1.19 17.713 17.713 0 0 0 4.427 10.221 13.819 13.819 0 0 0 18.04 1.833c5.657-3.993 6.023-9.512 4.216-13.783z" data-name="パス 17639"/>
  <path d="m199.79 333.49c-22.566 35.287-64.489 45.359-83.1 34.58a12.541 12.541 0 0 1-0.033 1.514v0.031c21.1 10.577 61.195-0.786 84.115-35.662 0.759-1.154 1.613-0.763 1.2 0.859-10.47 41-59.007 62.359-84.675 55.183 0.3 0.348 0.754 1.041 1.041 1.4 35.547 7.327 76.954-23.62 84.5-56.41 0.702-3.059-1.903-3.286-3.048-1.495z" data-name="パス 17640"/>
  <path d="m129.98 372.6c-0.323-0.01-0.784-0.074-1.107-0.078 1.692 1.509 2.7 5.249 2.793 9.045 0.106 4.31-1.2 8.861-2.969 10.236 0.4 0 0.864-0.025 1.257-0.059 0.989-0.765 2.819-5.658 2.683-10.288-0.095-3.215-0.767-6.602-2.657-8.856z" data-name="パス 17641"/>
  <path d="m152.1 387c-0.067 0.082 0.632-0.091 0.976-0.254 1.671-3.048 0.471-13.5-2.259-15.732-0.138-0.113-0.991 0.172-0.827 0.28 2.533 1.672 4.102 13.264 2.11 15.706z" data-name="パス 17642"/>
  <path d="m173.37 375.55c-0.051 0.2 0.833-0.415 0.84-0.469a10.228 10.228 0 0 0-2.048-6.762c-1.266-1.8-3.25-3.543-4.653-3.767-0.323 0.161-0.941 0.436-0.84 0.449 1.688 0.228 3.592 1.861 4.886 3.874 1.478 2.298 2.211 5.082 1.815 6.675z" data-name="パス 17643"/>
  <path d="m186.93 362.9a7.269 7.269 0 0 1 0.828-0.654c0.35-1.575-2.645-7.227-5.656-7.666-0.268 0.216-0.54 0.424-0.82 0.623 2.919 0 6.149 5.885 5.648 7.697z" data-name="パス 17644"/>
  <path d="m192.46 344.28a1.835 1.835 0 0 1-0.356 0.542c0.013 0.01-0.01 0.165 0 0.161 1.075-0.312 4.259 2.383 3.888 5.021-0.013 0.094 0.426-0.443 0.664-0.629 0.571-2.17-2.868-5.354-4.196-5.095z" data-name="パス 17645"/>
  <path d="m134.79 98.937c0.03-1.485-2.943-3.874-3.611-6.853-0.117-0.523-0.3-0.442-1.094-0.019 0 0-0.231-2.165-0.4-3.175-0.2-1.188-0.562-1.148-1.237-0.821a6.644 6.644 0 0 0-0.609 0.353 11.556 11.556 0 0 0-0.576-1.485c-0.38-0.761-0.832-0.877-1.437-0.353-0.378 0.328-0.909 0.881-1.045 1-0.452-0.761-1.43-2.086-2.511-2.139 0.064 0.28 0.131 0.56 0.19 0.842a4.177 4.177 0 0 1 1.748 1.752c0.241 0.455 0.533 0.6 1.023 0.111 0.378-0.375 0.866-0.889 1.134-1.153a0.158 0.158 0 0 1 0.232 0.02c0.152 0.333 0.406 1.073 0.615 1.606 0.249 0.636 0.561 0.647 1.156 0.276 0.183-0.114 0.367-0.239 0.49-0.32s0.161-0.056 0.19 0.066c0.167 0.708 0.28 2.9 0.418 3.669 0.141 0.785 0.372 0.756 1.156 0.192 0.567 2.276 3.075 5.239 3.064 6.317-0.176 17.849-12 30.182-23 35.772a0.4 0.4 0 0 0-0.163 0.152c-20.219 34.009-27.013 132.81-11.308 173.36 2.475 6.391 4.251 10.122 6.131 14.072 4.69 9.85 10.542 24.278 11.1 39.505 0.227 6.174-0.308 14.081-3.358 20.958a7.457 7.457 0 0 1 0.567 1.274c3.373-7.157 4.32-15.96 4.083-22.384-0.62-16.813-7.054-30.241-11.584-39.758-1.873-3.936-3.733-7.593-6.2-13.955-14.973-38.663-8.778-138.17 11.479-172.41 11.919-6.095 22.968-17.378 23.357-36.47z" data-name="パス 17646"/>
  <path d="m88.664 398.79c-10.2 0.149-39.925-5.644-33.822-40.616 2.649-15.177 10.978-29.908 15.706-37.338 4.474-7.031 7.175-13.456 5.814-21.962-9.147-57.177-1.219-123.89 17.128-167.38a0.4 0.4 0 0 0-0.133-0.478c-3.525-2.576-7.986-10.938-7.936-18.844-0.25 0.192-0.734 0.737-1.005 0.894 0.179 7.387 4.1 15.334 8.046 18.446-18.451 44.951-26.262 109.86-17.025 167.6 1.075 6.72 0.31 11.746-5.8 21.353-4.76 7.48-13.506 22.111-16.179 37.425-6.269 35.923 24.935 41.943 35.561 41.882-0.102-0.249-0.253-0.733-0.355-0.978z" data-name="パス 17647"/>
  <path d="m128.69 88.666" data-name="パス 17648"/>
  <path d="m127.63 88.351" data-name="パス 17649"/>
  <path d="m126.56 86.94" data-name="パス 17650"/>
  <path d="m66.414 83.363c5.109-6.465 11.862-8.926 18.618-6.754a12.959 12.959 0 0 1 7.863 6.721c0.087-0.095 0.558-0.56 0.665-0.681a13.873 13.873 0 0 0-8.283-6.8c-7.29-2.345-14.713 0.285-20.078 7.649-0.042 0.056 0.811-0.156 1.215-0.135z" data-name="パス 17651"/>
  <path d="m90.686 107.32c-2.781 3.886-7.052 6.009-12.19 6.3-6.954 0.389-13.32-2.889-15.99-8.813-0.155-0.4-0.076-1.194 1.389-1.272 1.825-0.1 3.655-1.6 4.658-2.706a21.254 21.254 0 0 0 2.293-3.079 30.625 30.625 0 0 0 3.961-8.911 3.38 3.38 0 0 0-0.831-0.285 29.7 29.7 0 0 1-3.795 8.7 21.869 21.869 0 0 1-2.113 2.875 7.5 7.5 0 0 1-4.237 2.654c-2.28 0.15-2.66 1.161-2.246 2.239 3.832 8.506 12.453 9.954 16.823 9.709a16.911 16.911 0 0 0 12.907-6.779 8.186 8.186 0 0 1-0.629-0.632z" data-name="パス 17652"/>
  <path d="m103.36 115.52c-10.175-1.563-17.271-9.759-15.63-20.933 1.559-10.617 11.242-21.272 21.537-19.985 9.762 1.22 17.557 12.843 15.431 26.308-1.88 11.918-13.068 15.881-21.338 14.61zm0.125-0.789c9.734 1.536 18.859-4.847 20.339-14.228 1.822-11.544-4.523-23.617-14.7-24.888-9.861-1.233-18.992 9.077-20.609 19.316-1.48 9.381 5.235 18.263 14.969 19.8z" data-name="パス 17653"/>
  <path d="m112.7 403.73a30.22 30.22 0 0 1-13.4 5.9 4.536 4.536 0 0 0 0.816 0.674 31.159 31.159 0 0 0 12.916-5.972c1.175-0.9 0.818-1.483-0.332-0.602z" data-name="パス 17654"/>
  <path d="m119.98 392.73a12.02 12.02 0 0 1-1.752 5.029c-0.809 1.348-0.467 1.713 0.473 0.448a11.153 11.153 0 0 0 2-4.824c-0.243-0.213-0.481-0.434-0.721-0.653z" data-name="パス 17655"/>
  <path d="m63.939 397.21 0.659-0.659a0.393 0.393 0 0 0-0.373-0.16c-5.346 0.745-19.59-13.065-17.519-22.018-0.3 0.171-0.6 0.336-0.9 0.5-1.2 9.371 11.687 22.344 18.019 22.343 0.041 0 0.073-0.01 0.114-0.01z" data-name="パス 17656"/>
  <path d="m41.908 395.69c4.015 4.824 9.918 8.452 13.408 8.675 0.013 0 0.646-0.929 0.52-0.9-3.024 0.6-9.053-3.572-13.637-8.312-0.521-0.542-0.739 0-0.291 0.537z" data-name="パス 17657"/>
  <path d="m40.688 393.16c-2.188-3.242-3.613-6.734-2.614-9.324 0.014-0.037-0.743 0.849-1.137 1.323a12.545 12.545 0 0 0 3.373 8.379c0.467 0.546 0.775 0.211 0.378-0.378z" data-name="パス 17658"/>
  <path d="m53.56 370.47c-10.228 2.123-17.623 15.285-19.065 18.95-5.679-4.356-10.9-1.346-11.795 0.22a2.5 2.5 0 0 1 0.65 0.487c2.074-2.568 6.712-2.873 11.109 0.205a0.715 0.715 0 0 0 0.571-0.177c0.074-0.164 7.383-15.975 18.57-18.437a6.807 6.807 0 0 1-0.04-1.248z" data-name="パス 17659"/>
  <path d="m69.858 394.39c-8.366 1.818-15.387 8.561-15.588 12.374l-0.019 0.369c-0.221 4.323-0.45 8.793-7.953 10.044-9.078 1.514-20.193-5.646-25.859-16.652a6.254 6.254 0 0 1-0.532-1.475 1.716 1.716 0 0 1-0.81 0.069 7.084 7.084 0 0 0 0.631 1.772c7.8 15.16 20.788 18.362 26.855 17.351 8.137-1.356 8.24-6.646 8.466-11.069l0.02-0.366c0.168-3.207 7.392-10.465 16.1-11.615a6.536 6.536 0 0 1-1.311-0.802z" data-name="パス 17660"/>
  <path d="m116.65 360.63c-3.08 1.589-10.225 2.852-19.666 3.477-1.7 0.113-0.976 0.787 0.738 0.673 9.187-0.61 15.589-1.712 18.928-3.265z" data-name="パス 17661"/>
  <path d="m88.522 364.47c-15.126 0.3-28.308-1.152-34.679-3.761a5.437 5.437 0 0 0-0.087 0.836c9.581 3.855 28.727 3.739 33.863 3.649 1.693-0.029 2.556-0.757 0.903-0.724z" data-name="パス 17662"/>
  <path d="m113.83 342.86c-3.924 1.167-16.022 2.22-28.43 1.81-1.285-0.043-2.962 0.555-0.414 0.643 5.61 0.192 22 0.258 28.844-1.621z" data-name="パス 17663"/>
  <path d="m77.764 344.29c-8.212-0.649-14.272-2-18.113-3.818-0.087 0.253-0.168 0.507-0.244 0.764 4.978 2.323 12.594 3.291 18.685 3.752 1.434 0.109 1.244-0.574-0.328-0.698z" data-name="パス 17664"/>
  <path d="m91.221 251.78c-3.194 1.757-14.786 2.165-19.241 1.124a4.277 4.277 0 0 0 0 0.816c4.428 0.954 14.912 0.9 19.3-1.084a4.779 4.779 0 0 1-0.059-0.856z" data-name="パス 17665"/>
  <path d="m91.143 234.39c-2.687 1.337-14.273 1.74-18.476 0.263-0.207-0.073-0.472 0.681-0.264 0.754 3.608 1.267 15.2 1.242 18.7-0.128 0.01-0.297 0.021-0.593 0.04-0.889z" data-name="パス 17666"/>
  <path d="m73.451 215.09c-0.053 0.262-0.1 0.524-0.149 0.786 5.357 0.671 15 1.1 18.6 0.546q0.1-0.422 0.2-0.844c-3.363 0.662-13.275 0.181-18.651-0.488z" data-name="パス 17667"/>
  <path d="m75.834 194.91c-0.074 0.272-0.142 0.545-0.2 0.821 2.75-0.329 15.371-0.235 18.177 1.665 0.045-0.28 0.1-0.56 0.151-0.839-3.085-2.03-14.857-1.93-18.128-1.647z" data-name="パス 17668"/>
  <path d="m79.387 176.45a7.947 7.947 0 0 1-0.147 0.822c5.578-0.664 15.743 1 17.057 2.479 0.079 0.088 0.09-0.569 0.125-0.829-1.74-1.513-11.424-3.057-17.035-2.472z" data-name="パス 17669"/>
  <path d="m99.998 163.27c-2.769-3.193-13.253-3.852-16.869-2.644q-0.177 0.43-0.326 0.872a0.4 0.4 0 0 0 0.285-0.01c2.965-1.244 13.66-0.751 16.306 2.3a0.4 0.4 0 0 0 0.291 0.136 5.444 5.444 0 0 0 0.33-0.629c-0.011-0.01-0.017-0.016-0.017-0.03z" data-name="パス 17670"/>
  <path d="m88.367 144c-0.094 0.3-0.2 0.6-0.324 0.9 4.386-1.317 15.573 0.961 16.491 3.643a0.206 0.206 0 0 0 0.018 0.033c0.149-0.295 0.3-0.589 0.436-0.89-1.828-2.714-11.333-4.821-16.621-3.686z" data-name="パス 17671"/>
  <path d="m111.27 134.47c-2.528-3.892-16.58-5.58-18.284-3.535-0.014 0.016 0.246 0.833 0.371 0.683 1.466-1.758 15.063 0 17.21 3.3 0.031 0.059 0.712-0.434 0.703-0.448z" data-name="パス 17672"/>
  <path d="m94.73 111.43c-3.754 0.532-8.509 2.036-9.534 4.024a2.023 2.023 0 0 0 0.327 0.819c1.04-2.058 5.934-3.74 9.992-4.235a7.725 7.725 0 0 0-0.785-0.608z" data-name="パス 17673"/>
  <path d="m113.86 113.69a8.55 8.55 0 0 1-0.862 0.442c5.713 2.122 11.277 6.709 11.1 10.462 0.211-0.233 0.439-0.451 0.665-0.669 0.222-3.214-5.435-8.098-10.903-10.235z" data-name="パス 17674"/>
  <path d="m132.2 111.21c-0.2-3.142-5.173-9.764-8.1-11.066a4.808 4.808 0 0 0-0.293 0.741c2.622 1.215 7.982 7.892 7.594 10.8-0.032 0.218 0.643-0.173 0.799-0.475z" data-name="パス 17675"/>
  <path d="m138.94 90.127c-0.519-0.016-1.037-0.048-1.554-0.1 7.479 4.528 16.043 24.55 14.892 40.644-2.841-6.6-12.005-22.823-18.082-28.716-0.02 0.337 0.024 1.137-0.016 1.472 6.448 6.626 16.329 24.293 17.963 29.078 0.154 0.452 0.633 1.142 0.775-0.083 2-17.358-5.534-35.732-13.978-42.295z" data-name="パス 17676"/>
  <path d="m152.49 81.241c-0.764-0.031-1.527-0.051-2.289-0.018 17.993 6.047 33.953 32.763 34.569 48.239-5.882-14.247-29.849-44.552-55.414-39.256 0.053 0.261 0.306 0.572 0.31 0.847 25.233-5.343 49.694 26.192 54.817 39.865 0.6 1.6 1.037-0.031 1-1.1-0.554-17.012-14.836-40.837-32.993-48.577z" data-name="パス 17677"/>
  <path d="m208.1 105.89c-7.994-22.119-38.326-36.927-64.545-37.071-0.576 0.252-1.152 0.515-1.7 0.819 29.156-0.581 58.859 17.426 65.476 36.243-18.092-19.627-51.772-33.226-80.2-18.826a3.966 3.966 0 0 0 0.04 0.878c26.568-13.679 61.124-2.312 80.454 19.471 0.886 0.992 1.087 0.177 0.475-1.514z" data-name="パス 17678"/>
  <path d="m121.88 68.102c19.233-19.1 62.121-18.929 85.3 1.934-36.061-15.275-64.3-6.873-85.722 14.185 0.126 0.255 0.311 0.543 0.412 0.809 22.551-22.315 52.458-28.519 87.056-13.364 0.522 0.229 1.517 0.433 0.446-0.647-20.867-21.043-64.669-24.513-86.035-5.656z" data-name="パス 17679"/>
  <path d="m124.89 65.221a0.0235 0.0235 0 0 1 0-0.047 0.0235 0.0235 0 0 1 0 0.047z" data-name="パス 17680"/>
  <path d="m107.76 41.565c0.262-0.37 0.558-0.72 0.844-1.07 0.137-11.184-7.948-31.65-15.554-37.161-1.75-1.268-2.078-1.262-1.086 0.538 5.89 10.692 9.707 34.831 9.374 43.982a16.208 16.208 0 0 0 0.883 1.665c0.9-7.819-2.933-33.094-9.079-45.134 7.165 6.721 15.328 27.152 14.618 37.18z" data-name="パス 17681"/>
  <path d="m157.51 0.49494c-21.374-0.982-46.76 26.862-54.614 51.383 0.143 0.389 0.325 1.261 0.5 1.638 6.566-21.777 31.793-52.38 53.043-52.41-22.8 12.736-38.317 38.2-41.693 51.7-0.022 0.087 1.467-1.935 1.875-2.291 4.556-13.747 19.581-37.084 41.487-49.41 0.922-0.517 0.702-0.551-0.598-0.61z" data-name="パス 17682"/>
  <path d="m198.98 24.204c-39.99-19.992-78.306 6.131-92.308 44.7a5.2 5.2 0 0 0 0.294 1.544c12.185-35.312 49.525-65.649 90.467-46.109-33.2-0.959-71.313 24.893-80.8 53.82-0.012 0.038 1.018 0.522 1.058 0.393 7.972-25.416 44.557-54.488 80.927-53.368 1.41 0.041 1.7-0.312 0.362-0.98z" data-name="パス 17683"/>
  <path d="m38.261 1.0809c-0.986 0.237-1.288 0.552-0.293 0.725 16.311 2.833 46.775 38.864 49.24 51.826a11.851 11.851 0 0 0 0.965 1.306c-0.7-13.517-32.183-49.5-48.136-53.554 37.247-7.01 65.233 42.433 66.646 70.346 0.066 1.269 0.863 1.235 0.8-0.04-1.692-33.371-32.977-79.334-69.222-70.609z" data-name="パス 17684"/>
  <path d="m100.99 76.723a8.11 8.11 0 0 1 0.891-0.508c-13.867-38.852-66.6-61.644-97.749-26.785-0.607 0.679-0.351 0.879 0.416 0.652 29.11-8.636 68.023 0.947 79.905 23.91 0.588 1.145 0.828-0.028 0.236-1.171-11.3-21.834-49.116-32.919-78.9-23.964 32.867-33.541 82.508-8.045 95.201 27.866z" data-name="パス 17685"/>
  <path d="m79.966 66.966a17.839 17.839 0 0 0-0.871-1.663c-26.486-15.015-65.566-5.927-78.5 22.41-0.927 2.031-0.764 2.532 0.444 1.54 29.767-24.416 61.851-18.371 71.171-11.5a2.659 2.659 0 0 1 0.921-0.507c-12.334-9.384-43.272-12.211-71.914 10.838 14.445-28.726 53.418-36.179 78.749-21.118z" data-name="パス 17686"/>
  <path d="m68.298 75.018c-28.991-2.52-51.342 22.461-54.059 37.634-0.346 1.933-0.235 2.087 0.856 0.4 4.537-6.995 34.32-27.111 43.821-25.042a3.682 3.682 0 0 1 0.685-0.9c-8.178-2.3-36.572 13.645-44.548 24.591 4.8-17.167 28.292-38.441 54.85-35.815a6.972 6.972 0 0 0-1.605-0.868z" data-name="パス 17687"/>
  <path d="m66.565 98.497c-5.658 0.414-18.161 12.687-19.011 22.044a0.4 0.4 0 0 0 0.7 0.295c4.731-5.544 11.363-10.485 15.61-12.507a4.849 4.849 0 0 1-0.276-0.753c-4.073 1.926-10.306 6.49-15.043 11.719 1.666-8.128 11.8-18.252 17.2-19.811a5.643 5.643 0 0 1 1.039-0.934 0.393 0.393 0 0 0-0.219-0.053z" data-name="パス 17688"/>
  <path d="m86.65 120.48c-3.245-0.414-6.093-3.09-7.458-6.05-0.266 0.06-0.534 0.115-0.8 0.161 1.491 3.365 4.571 6.5 8.328 6.793-0.108-0.274 0.027-0.628-0.07-0.904z" data-name="パス 17689"/>
  <path d="m58.898 87.22c0.758-2.477 4.408-3.476 6.488-3.832 1.327-0.227 2 0.152 0.677 0.43-2.127 0.445-5.75 1.724-6.345 3.67-0.509 1.662 0.8 3.243 3.622 2.033 1.948-0.833 7.906-2.59 11.19-1.124 0.919 0.411 1 1.062 0.083 0.652-3-1.34-9.3 0.554-11.088 1.319-2.742 1.177-5.611 0.085-4.627-3.148z" data-name="パス 17690"/>
  <path d="m114.38 385.53a0.414 0.414 0 0 0-0.415 0.384c-0.07 1.77-2.74 4.811-6.643 7.565-5.133 3.622-12.617 6.869-18.234 5.118a0.4 0.4 0 0 0-0.424 0.124c0.052 0.208 0.1 0.416 0.158 0.623a0.158 0.158 0 0 0 0.028 0.016 12.165 12.165 0 0 0 3.632 0.521c5.194 0 11.045-2.746 15.3-5.749 4.16-2.935 6.9-6.149 6.981-8.187a0.4 0.4 0 0 0-0.383-0.415z" data-name="パス 17691"/>
  <path d="m106.1 427.2c0.259-0.277 0.377-0.712 0.626-1-1.868 0.218-5.7-0.177-7.422-1.126-0.4-0.221-0.547-0.461-0.2-0.993a22.636 22.636 0 0 1 5.9-5.274 7.968 7.968 0 0 1 0.137-1.081 24.151 24.151 0 0 0-6.647 5.852c-0.826 1.214-0.817 1.462 0.291 2.1 1.955 1.118 5.932 1.562 7.315 1.522z" data-name="パス 17692"/>
  <path d="m107.08 429.66c-2.2-0.476-2.4-0.836-0.728-3.188s4.742-5.633 6.976-5.9c2.382-0.278 5.24 6.074 4.483 7.966-0.547 1.368-7.336 1.857-10.731 1.122zm-0.6-1.114c2.744 1.054 9.738 0.154 10.473-0.419 0.54-1.9-2.288-6.929-3.531-6.762-2.141 0.256-5.639 4.184-6.985 6.4-0.357 0.588-0.027 0.753 0.045 0.781z" data-name="パス 17693"/>
  <path d="m19.481 399.47c-1.126 0-4.454-4.67-5.913-8.489-0.914-2.394-0.6-2.819 2.081-2.765 2.338 0.048 7.876 0.771 8.663 2.331 0.244 0.484-0.734 2.617-1.528 4.33-1.086 2.337-2.346 4.593-3.303 4.593zm-5.478-10.016c0.128 1.78 3.669 7.277 5.187 8.873 0.256 0.27 0.406 0.205 0.593 0.03 1.662-1.555 3.36-6.1 3.74-7.157a0.505 0.505 0 0 0-0.266-0.687c-1.472-0.906-7.061-2.057-8.974-1.507-0.209 0.06-0.303 0.132-0.285 0.448z" data-name="パス 17694"/>
  <path d="m23.287 389.75c-0.59-0.643-1.366-3.922-1.3-5.941 0.048-1.416 0.118-1.687 1.563-1.245 2.055 0.629 5.868 3.354 6.5 4.941 0.082 0.205-0.691 0.306-0.794 0.11-0.754-1.437-4.4-3.759-5.936-4.29-0.37-0.128-0.5-0.069-0.528 0.313a12.691 12.691 0 0 0 1.2 5.527c0.149 0.163-0.626 0.672-0.705 0.585z" data-name="パス 17695"/>
  <path d="m229.14 327.42c-1.045-0.595-2.994 0.536-4.292 3.446a3.861 3.861 0 0 0 0.556 0.954c0.61-2.5 2.954-4.3 3.527-3.9 0.982 0.669-0.338 4.4-0.921 5.5-0.472 0.886-0.072 1.205 0.521 0.216 0.505-0.852 2.484-5.152 0.609-6.216z" data-name="パス 17696"/>
  <path d="m124.67 394.32c-0.213-0.061-0.9-0.092-0.834 0.069a14.677 14.677 0 0 1 0.01 11.425c-0.534 1.223 0.183 1.095 0.731-0.173a13.982 13.982 0 0 0 0.095-11.321z" data-name="パス 17697"/>
  <path d="m134.76 401.54c-0.644-6.4-4.943-8.057-9.391-8.112-7.742-0.1-10.423-7.03-13.524-15.095-1.586-4.121-5.438-5.822-10.893-4.686-7.456 1.549-15.869 8.711-15.825 15.185 0.072 10.495 10.376 21.542 20.823 24.761-2.013 3.72-1.319 7.612 2.022 11.108a2.953 2.953 0 0 1 0.5-0.635c-2.877-3.1-3.546-7.048-1.726-10.244 3.471 0.966 8.429 1.192 12.325-1.53 1.063-0.743 1.109-1.388 0.033-0.646-3.154 2.176-7.867 2.687-12.44 1.324-10.215-3-19.743-13.818-20.372-23.938-0.344-5.542 7.506-12.682 14.685-14.174 3.305-0.688 8.33-0.571 10.168 4.207 2.811 7.309 5.973 15.466 14.22 15.573 3.519 0.046 7.713 1.247 8.295 7.034 0.972 9.654-5.65 21.478-10.417 24.433a11.558 11.558 0 0 1-5.872 1.8 1.612 1.612 0 0 1-0.245 0.914 12.205 12.205 0 0 0 6.656-1.868c5.82-3.608 11.898-16.269 10.978-25.411z" data-name="パス 17698"/>
  <path d="m37.485 402.87c-3.374-2.965-4.884-7.587-3.2-13 0.066-0.21 0.829 0.027 0.763 0.238a12.948 12.948 0 0 0 2.789 12.113c0.602 0.695 0.346 1.262-0.352 0.649z" data-name="パス 17699"/>
  <path d="m40.336 404.54c5.288 3.255 11.7 4.484 14.041 1.976 0.15-0.162 0.436 0.7 0.358 0.772-2.519 2.346-10 1.7-14.683-2.269-0.613-0.52-0.385-0.892 0.284-0.479z" data-name="パス 17700"/>
  <path d="m99.237 307.32c-0.091 0.249-2.206 3.1-10.49 3.271-6.527 0.138-11.484-1.665-12.444-3.369a5.575 5.575 0 0 0-0.328 0.875c0.522 1.555 4.932 3.481 12.511 3.351 8.537-0.147 11.083-2.72 11.137-2.954-0.08-0.286-0.374-1.21-0.386-1.174z" data-name="パス 17701"/>
  <path d="m94.842 290.34c-0.411 0.878-5.777 1.82-9.63 1.972-4.512 0.179-10.315-0.059-10.35-0.879q0.07 0.453 0.139 0.908c0.462 0.772 6.21 1.067 10.269 0.869 3.7-0.181 9.4-1.152 9.577-1.958-0.011-0.304-0.01-0.608-0.01-0.912z" data-name="パス 17702"/>
  <path d="m92.159 271.62c-2.246 1.353-16.543 2.226-19.095 0.74a0.422 0.422 0 0 0-0.138-0.047c0.028 0.3 0.065 0.6 0.1 0.9 2.712 0.979 15.557 0.924 19.183-0.73-0.021-0.286-0.042-0.574-0.05-0.863z" data-name="パス 17703"/>
  <path d="m228.1 337.18c1.286-0.083 3.936-2.138 3.729-3.046-0.22-0.965-2.314-0.9-3.53-0.2-0.191 0.11-0.068-0.752 0.123-0.862 1.533-0.887 3.793-0.375 4.169 0.817 0.359 1.139-2.566 3.829-4.387 4.069-0.076 0.022-0.228-0.766-0.104-0.778z" data-name="パス 17704"/>
  <path d="m220.46 335.41a1.061 1.061 0 0 0 1.555 0.046 1.186 1.186 0 0 0-0.291-1.631 1.038 1.038 0 0 0-1.525 0.045 1.138 1.138 0 0 0 0.261 1.54z" data-name="パス 17705"/>
 </g>
</svg>
