<?xml version="1.0" encoding="UTF-8"?>
<!-- Created with Inkscape (http://www.inkscape.org/) -->
<svg version="1.1" viewBox="0 0 164.5 137.74" xmlns="http://www.w3.org/2000/svg">
 <g transform="translate(-29.849 -32.666)">
  <g transform="matrix(2.773 0 0 -2.773 189.74 100.2)">
   <path d="m0 0c-4.113-1.693-9.564-3.908-17.358-4.635 0.23 1.421 0.283 2.811 0.12 4.101-0.974 7.718-6.449 12.629-13.357 14.358-0.986 6.14-4.364 9.347-8.455 10.252-6.089 1.347-13.623-2.37-16.351-7.213-0.102-0.183 1e-3 -1.111 0.21-1.309-2.975-4.59-3.259-12.17-0.842-14.027 1.012-0.777 2.253-0.56 3.987 0.365 0.595 0.317 0.811 0.316 1.349 0.264 1.73-0.165 2.685-0.061 3.939 0.423-0.052-0.132-0.097-0.269-0.144-0.405-1.797-1.062-3.444-2.474-4.43-4.071-0.404-0.655-0.631-1.385-0.709-2.121-0.559-0.793-0.806-1.753-0.69-1.994 0.036-0.077 0.366-0.096 0.669-0.095-0.25-0.572-0.333-1.25-0.23-1.406 0.087-0.131 0.554-0.033 1.107 0.116 0.054-0.072 0.102-0.148 0.161-0.217-0.105-0.393-0.138-0.931-0.057-1.012s0.469-0.104 1.263 0.084c0.879-0.42 1.994-0.497 3.314-0.052 0.171-0.422 0.364-0.839 0.574-1.251-0.367-0.864-0.601-1.81-0.633-2.828-0.07-2.195 0.517-4.916 2.642-6.652-1.403-0.073-3.467-0.485-4.662-0.926-1.039-0.384-1.062-0.801-0.245-1.201 2.241-1.098 10.826-3.008 11.736-2.424 0.514 0.33 0.601 2.149 0.309 2.983 1.135 0.39 2.588 1.186 3.698 2.229 1.273-0.214 2.669-0.302 4.155-0.267 0.592-0.527 1.318-0.679 2.147-0.573-0.754-1.328-1.438-4.1-1.374-5.156 0.039-0.651 0.369-0.8 0.803-0.52 1.872 1.212 5.996 5.307 7.673 7.768 8.879 2.565 17.961 8.229 21.063 16.006 0.648 1.627 0.179 2.048-1.382 1.406" fill="#ffff80"/>
  </g>
  <g transform="matrix(2.773 0 0 -2.773 108.61 151.04)">
   <path d="m0 0c0.56-0.976 1.86-1.08 2.822-0.95-0.71-1.078-1.598-4.293-1.534-5.357 0.027-0.449 0.266-0.515 0.559-0.325 2.028 1.313 7.352 6.76 8.036 8.582" fill="#91cdef"/>
  </g>
  <g transform="matrix(2.773 0 0 -2.773 120.02 156.81)">
   <path d="m0 0c-0.075 0.39-0.824 0.508-1.632 0.489-0.624-1.385-1.248-3.816-1.194-4.714 0.015-0.26 0.103-0.388 0.23-0.416 1.152 1.349 2.686 4.173 2.596 4.641" fill="#c7eafb"/>
  </g>
  <g transform="matrix(2.773 0 0 -2.773 189.88 100.61)">
   <path d="m0 0c-2.03-0.836-8.703-3.943-17.692-4.751 0.262 1.505 0.318 2.984 0.144 4.364-1.028 8.148-6.994 12.671-13.25 14.208-2.779 15.904-20.145 10.815-24.479 3.12-0.067-0.118-0.015-1.049 0.168-1.113 0.034-0.013 0.067-0.026 0.101-0.038-3.023-4.483-3.252-12.148-0.937-13.926 0.74-0.569 1.777-0.75 3.784 0.321 0.611 0.325 0.846 0.335 1.428 0.28 1.784-0.17 3.059 0.017 4.18 0.518-2.487-5.748-0.883-18.358 12.868-21.198 9.62-1.987 29.746 4.384 34.878 17.022 0.585 1.439 0.271 1.796-1.193 1.193" fill="#c7eafb"/>
  </g>
  <g transform="matrix(2.773 0 0 -2.773 140.81 113.79)">
   <path d="m0 0c0.262 1.505 0.318 2.984 0.144 4.364-1.028 8.148-6.995 12.671-13.25 14.208-2e-3 0.013-5e-3 0.026-8e-3 0.039l-0.091-0.084c-0.258-1.051-1.761-2.043-2.843-2.79-2.385-1.648-2.057-4.328-0.788-7.574 2.509-6.417 9.966-14.346 14.489-11.644 1 0.597 1.828 1.881 2.435 3.49-0.029-3e-3 -0.058-6e-3 -0.088-9e-3" fill="#fff"/>
  </g>
  <g transform="matrix(2.773 0 0 -2.773 93.762 95.888)">
   <path d="m0 0c-0.398-0.087-1.104 0.914-1.552 2.141-0.324 0.89-0.382 1.713 0.036 1.725 0.382 0.011 0.486-1.047 0.647-1.653 0.345-1.296 1.058-2.171 0.869-2.213" fill="#fff"/>
  </g>
  <g transform="matrix(2.773 0 0 -2.773 169.13 116.57)">
   <path d="m0 0c0.08-0.205-0.807-0.757-1.737-1.151-0.578-0.244-1.324-0.59-1.439-0.259-0.104 0.297 0.825 0.58 1.296 0.817 1.064 0.534 1.776 0.86 1.88 0.593" fill="#fff"/>
  </g>
  <g transform="matrix(2.773 0 0 -2.773 189.88 100.61)">
   <path d="m0 0c-2.024-0.833-8.663-3.924-17.609-4.743l-1.637-4.216c11.956 2.482 16.477 7.09 20.583 9.149-0.201 0.165-0.636 0.099-1.337-0.19" fill="#fff"/>
  </g>
  <g transform="matrix(2.773 0 0 -2.773 193.18 103.92)">
   <path d="m0 0c0.282 0.582 0.354 0.999 0.255 1.236-1.817-2.937-13.213-10.567-21.91-11.545-6.849-3.587-17.178 7.393-18.591 12.612h-8.105c-1.45-6.255 1.026-14.16 13.187-17.695 9.54-2.772 29.951 4.719 35.164 15.392" fill="#91cdef"/>
  </g>
  <g transform="matrix(2.773 0 0 -2.773 56.776 73.323)">
   <path d="m0 0-1.699 2.421c-1.495 1.551-3.313 2.804-5.311 3.528-3.023-4.483-3.252-12.148-0.937-13.926 0.739-0.568 1.777-0.75 3.783 0.321 0.612 0.325 0.847 0.335 1.428 0.28 1.784-0.17 3.059 0.017 4.181 0.518-2.381-5.504-1.01-17.296 11.18-20.783l-10.217 20.113c0.19 2.579-0.949 5.682-2.408 7.528" fill="#fdf6b0"/>
  </g>
  <g transform="matrix(2.773 0 0 -2.773 63.454 94.2)">
   <path d="m0 0c0.062 0.842-0.02 1.741-0.206 2.633-1.507-1.415-3.897-1.649-5.577-1.595-0.728 0.023-1.208-0.659-2.526-1.099-0.675-0.225-1.747-0.325-2.529 0.111 0.103-0.117 0.367-0.41 0.483-0.499 0.739-0.568 1.776-0.75 3.783 0.321 0.612 0.326 0.846 0.336 1.428 0.28 1.784-0.17 3.059 0.017 4.181 0.518-2.381-5.503-1.011-17.296 11.18-20.782z" fill="#d4ce92"/>
  </g>
  <g transform="matrix(2.773 0 0 -2.773 45.935 71.189)">
   <path d="m0 0 2.21 1.652c-1.495 1.55-3.313 2.803-5.311 3.528-1.606-2.381-2.423-5.657-2.489-8.474 1.914 0.113 4.144 1.357 5.59 3.294" fill="#fff"/>
  </g>
  <g transform="matrix(2.773 0 0 -2.773 69.996 154.21)">
   <path d="m0 0c-1.255 0.128-3.95-0.44-5.28-0.942-0.953-0.361-0.798-0.597-0.194-0.892 2.013-0.986 10.53-2.895 11.484-2.311 0.465 0.284 0.457 2.185 0.19 2.823 2.049 0.656 4.871 2.663 5.284 4.757 1 5.066-3.722 10.728-6.922 11.284-2.402 0.418-7.54-2.804-7.702-7.911-0.094-2.975 0.878-5.528 2.951-6.923" fill="#c7eafb"/>
  </g>
  <g transform="matrix(2.773 0 0 -2.773 65.062 137.88)">
   <path d="M 0,0 C 1.096,-1.417 6.034,0.67 7.087,2.777 8.39,5.382 7.279,7.661 4.118,6.799 0.82,5.9 -1.172,1.517 0,0" fill="#fff"/>
  </g>
  <g transform="matrix(2.773 0 0 -2.773 83.321 134.65)">
   <path d="m0 0c0.375-0.379 1.403 0.461 2.021 1.589 0.5 0.911 0.341 1.809-0.059 1.91-0.364 0.092-0.386-0.84-0.651-1.56-0.465-1.261-1.445-1.804-1.311-1.939" fill="#fff"/>
  </g>
  <g transform="matrix(2.773 0 0 -2.773 96.788 124.61)">
   <path d="m0 0c-0.493-4.485-5.77-9.635-12.265-7.454 0.558-1.37 0.949-2.264 2.234-3.201-0.36 2e-3 -0.787-0.031-1.246-0.091 1.042-0.406 1.82-1.21 1.699-1.694-0.113-0.454-0.989-0.331-2.361-0.117l-0.207-0.941c3.273-0.881 7.813-1.736 8.495-1.318 0.464 0.283 0.456 2.184 0.189 2.822 2.049 0.657 4.872 2.663 5.285 4.757 0.492 2.496-0.405 5.134-1.823 7.237" fill="#91cdef"/>
  </g>
  <g transform="matrix(2.773 0 0 -2.773 113.91 159.75)">
   <path d="m0 0c-0.38-1.222-0.66-2.551-0.623-3.165 0.027-0.449 0.266-0.515 0.559-0.325 0.647 0.418 1.628 1.258 2.687 2.264-0.762 0.976-1.607 1.335-2.623 1.226" fill="#e6e7e7"/>
  </g>
  <g transform="matrix(2.773 0 0 -2.773 62.212 154.97)">
   <path d="m0 0c-0.932-0.186-1.851-0.434-2.473-0.669-0.953-0.36-0.798-0.596-0.194-0.892 0.567-0.278 1.652-0.629 2.939-0.978 0.377 1.055 0.429 1.72-0.272 2.539" fill="#e6e7e7"/>
  </g>
  <g transform="matrix(2.773 0 0 -2.773 62.966 162.01)">
   <path d="M 0,0 C 0.099,0.278 0.174,0.644 0.219,0.877 -0.973,0.993 -2.338,1.112 -3.4,1.479 -3.435,1.443 -3.461,1.407 -3.472,1.373 -3.556,1.1 -2.013,0.547 0,0" fill="#bdbec0"/>
  </g>
  <g transform="matrix(2.773 0 0 -2.773 92.827 39.761)">
   <path d="m0 0c-5.967 4.938-16.084 1.18-19.819-4.265 0.354 0.028 0.661-0.048 1.02-0.203 2.252-0.974 4.153-2.347 5.681-3.956 1.713-0.13 3.59 0.311 5.389 1.133 0.511 3.691 2.903 3.833 4.243 2.016 2.263 1.131 3.792 3.184 3.486 5.275" fill="#fff"/>
  </g>
  <g transform="matrix(2.773 0 0 -2.773 99.218 47.038)">
   <path d="m0 0c-0.453-5.067-6.082-11.345-11.185-13.631-0.662-0.297-1.307-0.543-1.92-0.732 0.188-0.896 0.271-1.798 0.208-2.644l0.794-1.563h4.865c0 4.036 2.187 7.47 6.191 10.236 1.203 0.832 2.93 1.966 2.881 3.148-0.307 1.612-0.91 3.61-1.834 5.186" fill="#91cdef"/>
  </g>
  <g transform="matrix(2.773 0 0 -2.773 118.57 160.73)">
   <path d="m0 0c-0.532-1.049-1.372-2.411-2.071-3.229 0.093-0.021 0.206 0.01 0.329 0.09 0.647 0.419 1.628 1.258 2.687 2.265-0.3 0.385-0.613 0.672-0.945 0.874" fill="#bdbec0"/>
  </g>
  <g transform="matrix(2.773 0 0 -2.773 45.935 71.189)">
   <path d="m0 0 2.21 1.652c-0.476 0.494-1.709 1.354-2.247 1.781-0.891-2.464-3.635-5.88-5.553-6.723v-4e-3c1.914 0.113 4.144 1.357 5.59 3.294" fill="#c7eafb"/>
  </g>
  <g transform="matrix(2.773 0 0 -2.773 82.772 112.89)">
   <path d="m0 0c-2.628 0.456-7.827-2.946-7.99-8.096-0.074-2.319 0.563-5.238 2.996-6.949 0.686-0.482 0.912-0.369 0.054 0.303-1.758 1.376-2.677 3.686-2.583 6.636 0.154 4.865 5.076 8.167 7.428 7.758 3.077-0.535 7.731-6.203 6.767-11.088-0.386-1.96-3.187-3.994-5.057-4.622-0.162-0.054-0.182-0.141-0.131-0.305 0.219-0.696 0.083-2.28-0.265-2.478-0.884-0.503-9.518 1.46-11.161 2.265-0.529 0.259-0.522 0.312 0.182 0.578 1.22 0.461 3.352 0.939 4.818 0.989l-0.313 0.267c-1.402-0.06-3.534-0.481-4.755-0.933-1.039-0.384-1.062-0.8-0.245-1.2 2.241-1.098 10.826-3.009 11.736-2.424 0.514 0.33 0.601 2.149 0.309 2.983 1.957 0.671 4.866 2.547 5.316 4.826 0.996 5.05-3.721 10.901-7.106 11.49" fill="#0f141b"/>
  </g>
  <g transform="matrix(2.773 0 0 -2.773 62.683 154.93)">
   <path d="m0 0-0.305-0.065c0.597-0.667 0.587-1.305 0.258-2.357l0.339-0.104c0.427 1.215 0.303 1.791-0.292 2.526" fill="#0f141b"/>
  </g>
  <g transform="matrix(2.773 0 0 -2.773 100.13 131.34)">
   <path d="m0 0-0.211 0.402c-2.91 1.233-8.437 1.738-11.944 1.418-0.475-0.043-0.588-0.28-0.024-0.238 3.462 0.257 9.902-0.443 12.179-1.582" fill="#0f141b"/>
  </g>
  <g transform="matrix(2.773 0 0 -2.773 62.032 142.81)">
   <path d="m0 0 0.092-0.32c3.752-1.177 9.867-2.002 13.587-1.704l0.187 0.295c-3.501-0.342-10.698 0.692-13.866 1.729" fill="#0f141b"/>
  </g>
  <g transform="matrix(2.773 0 0 -2.773 91.978 128.55)">
   <path d="m0 0-0.284 0.056c0.201-1.95-0.054-5.221-0.406-7.04l0.28-0.015c0.421 1.927 0.615 4.923 0.41 6.999" fill="#0f141b"/>
  </g>
  <g transform="matrix(2.773 0 0 -2.773 66.804 129.31)">
   <path d="m0 0c-0.358-1.627-0.575-3.853-0.516-5.333l0.28-0.053c-0.049 1.057 0.156 3.754 0.465 5.373 0.141 0.741-0.08 0.691-0.229 0.013" fill="#0f141b"/>
  </g>
  <g transform="matrix(2.773 0 0 -2.773 133.45 148.62)">
   <path d="m0 0c-1.49-2.175-5.631-6.291-7.17-7.288-0.24-0.155-0.279-0.067-0.295 0.199-0.059 0.987 0.749 4.031 1.448 5.191 0.096 0.159 0.038 0.228-0.134 0.213-0.898-0.075-1.578 0.01-2.076 0.38l-0.592-9e-3c0.621-0.677 1.42-0.849 2.335-0.731-0.754-1.328-1.438-4.1-1.374-5.156 0.039-0.651 0.369-0.8 0.802-0.52 1.92 1.243 6.215 5.522 7.804 7.957z" fill="#0f141b"/>
  </g>
  <g transform="matrix(2.773 0 0 -2.773 114.16 159.35)">
   <path d="m0 0-0.092-0.286c0.948 0.104 1.774-0.231 2.497-1.145l0.206 0.21c-0.793 0.99-1.492 1.303-2.611 1.221" fill="#0f141b"/>
  </g>
  <g transform="matrix(2.773 0 0 -2.773 46.315 81.217)">
   <path d="m0 0c0.218-0.175 0.615-0.159 1.117 0.046 1.314 0.537 3.022 2.216 3.172 3.495 0.101 0.855-0.275 1.845-0.913 2.41-0.297 0.262-0.776 0.545-1.373 0.399-1.402-0.344-1.957-1.948-2.163-2.873-0.36-1.621-0.151-3.227 0.16-3.477m0.405-0.398c-0.233 0-0.427 0.061-0.579 0.182-0.475 0.383-0.6 2.207-0.257 3.753 0.38 1.706 1.221 2.801 2.368 3.082 0.557 0.136 1.133-0.027 1.623-0.46 0.713-0.631 1.117-1.696 1.005-2.651-0.164-1.392-1.932-3.141-3.343-3.718-0.306-0.125-0.581-0.188-0.817-0.188" fill="#0f141b"/>
  </g>
  <g transform="matrix(2.773 0 0 -2.773 50.836 64.596)">
   <path d="m0 0c-0.162 0-0.327-0.045-0.493-0.135-0.61-0.328-1.043-1.157-1.05-1.694-3e-3 -0.16 0.031-0.371 0.204-0.47 0.377-0.218 1.316 0.17 1.833 0.914 0.195 0.281 0.288 0.634 0.235 0.896-0.029 0.147-0.1 0.257-0.21 0.327-0.169 0.108-0.342 0.162-0.519 0.162m-1.068-2.638c-0.154 0-0.293 0.031-0.41 0.098-0.226 0.13-0.347 0.384-0.343 0.715 9e-3 0.627 0.491 1.554 1.196 1.934 0.438 0.236 0.885 0.224 1.293-0.037 0.174-0.111 0.289-0.286 0.333-0.506 0.068-0.339-0.039-0.764-0.279-1.109-0.455-0.655-1.218-1.095-1.79-1.095" fill="#0f141b"/>
  </g>
  <g transform="matrix(2.773 0 0 -2.773 57.737 73.668)">
   <path d="m0 0-0.246-0.304c1.121-1.585 2.183-4.248 2.157-6.573l0.323 0.154c0.012 2.224-0.856 4.941-2.234 6.723" fill="#0f141b"/>
  </g>
  <g transform="matrix(2.773 0 0 -2.773 141.94 101.68)">
   <path d="m0 0c-0.974 7.718-6.45 12.629-13.357 14.358-0.986 6.14-4.365 9.347-8.455 10.252-6.089 1.348-13.623-2.37-16.351-7.213-0.11-0.196 0.016-1.265 0.257-1.35 1.574-0.555 3.122-1.431 4.485-2.624l0.24 0.161c-1.388 1.241-2.917 2.217-4.541 2.791-0.09 0.115-0.169 0.647-0.098 0.862 2.576 4.573 9.992 8.193 15.838 6.866 3.912-0.888 7.242-3.949 8.301-10.008 9e-3 -0.054 0.123-0.054 0.176-0.068 7.579-1.975 12.153-7.407 12.993-14.062 0.808-6.398-3.439-14.85-9.917-18.01l0.716 0.041c6.645 3.536 10.486 11.878 9.713 18.004" fill="#0f141b"/>
  </g>
  <g transform="matrix(2.773 0 0 -2.773 61.136 92.492)">
   <path d="m0 0c0.091 0.21 5e-3 0.266-0.184 0.182-1.014-0.454-2.527-0.636-4.111-0.484-0.598 0.056-0.864 0.046-1.506-0.297-1.877-1.001-2.884-0.8-3.578-0.266-2.222 1.706-2.107 9.154 0.914 13.63l-0.28 0.125c-3.044-4.577-3.35-12.272-0.913-14.144 1.012-0.777 2.254-0.56 3.987 0.365 0.595 0.317 0.812 0.316 1.35 0.264 1.73-0.165 2.684-0.061 3.938 0.423-1.387-3.547-1.308-8.463 0.977-12.72l0.185 0.621c-2.208 4.482-1.993 9.494-0.779 12.301" fill="#0f141b"/>
  </g>
  <g transform="matrix(2.773 0 0 -2.773 189.74 100.2)">
   <path d="m0 0c-4.134-1.702-9.617-3.932-17.473-4.647l-0.078-0.507c7.074 0.718 12.073 2.426 17.675 4.868 1.315 0.573 1.486 0.265 0.975-0.992-4.846-11.933-24.437-18.666-34.21-16.987l-0.327-0.342c10.435-1.988 29.963 5.021 34.82 17.201 0.648 1.627 0.179 2.048-1.382 1.406" fill="#0f141b"/>
  </g>
  <g transform="matrix(2.773 0 0 -2.773 30.589 79.871)">
   <path d="m0 0-5e-3 -0.315c1.817 0.111 3.759 1.121 5.229 2.792l0.05 0.589c-1.339-1.684-3.415-2.939-5.274-3.066" fill="#0f141b"/>
  </g>
  <g transform="matrix(2.773 0 0 -2.773 33.338 65.153)">
   <path d="m0 0-0.089-0.267c1.263-0.143 3.424-1.648 4.314-2.823l4e-3 0.436c-1.111 1.299-2.784 2.453-4.229 2.654" fill="#0f141b"/>
  </g>
  <g transform="matrix(2.773 0 0 -2.773 40.848 51.8)">
   <path d="m0 0c-0.299 0.129-0.586 0.216-0.915 0.22l-0.261-0.296c0.398 0.057 0.706-0.023 1.066-0.178 5.49-2.374 9.658-7.88 10.033-13.708l0.319 0.085c-0.407 5.865-4.073 11.21-10.242 13.877" fill="#0f141b"/>
  </g>
  <g transform="matrix(2.773 0 0 -2.773 50.233 40.518)">
   <path d="m0 0-0.257-0.159c5.316-3.766 9.366-9.874 10.354-15.298l0.24 0.23c-1.109 5.758-4.884 11.327-10.337 15.227" fill="#0f141b"/>
  </g>
  <g transform="matrix(2.773 0 0 -2.773 104.08 62.013)">
   <path d="m0 0c-0.804-2.267-8.326-5.242-11.388-9.903l0.446 0.081c3.359 4.651 10.35 7.167 11.231 9.637z" fill="#0f141b"/>
  </g>
  <g transform="matrix(2.773 0 0 -2.773 78.299 83.581)">
   <path d="m0 0-0.265-0.228c0.19-2.731 1.319-8.024 2.146-10.553l0.336-0.122c-0.772 2.405-2.046 8.389-2.217 10.903" fill="#0f141b"/>
  </g>
  <g transform="matrix(2.773 0 0 -2.773 70.522 33.683)">
   <path d="M 0,0 -0.415,-0.021 C 2.09,-1.967 7.153,-9.47 8.591,-13.5 l 0.244,0.136 C 7.314,-9.192 2.961,-2.507 0,0" fill="#0f141b"/>
  </g>
  <g transform="matrix(2.773 0 0 -2.773 59.759 49.347)">
   <path d="m0 0c-1.435-0.984-2.74-2.007-3.586-2.83l0.281-0.183c0.82 0.768 2.056 1.775 3.504 2.814z" fill="#0f141b"/>
  </g>
  <g transform="matrix(2.773 0 0 -2.773 75.548 39.306)">
   <path d="m 0,0 0.228,-0.247 c 1.416,0.754 2.587,1.276 3.524,1.52 L 3.319,1.439 C 2.408,1.161 1.298,0.695 0,0" fill="#0f141b"/>
  </g>
  <g transform="matrix(2.773 0 0 -2.773 100.92 50.783)">
   <path d="m0 0c-0.81-0.805-2.909-2.468-4.16-3.195l0.176-0.292c1.148 0.672 3.062 2.213 4.091 3.205z" fill="#0f141b"/>
  </g>
  <g transform="matrix(2.773 0 0 -2.773 98.053 68.984)">
   <path d="m0 0-0.257-0.196c0.738-6.227 6.097-23.161 8.585-27.925l0.22 0.178c-1.866 3.607-7.994 22.783-8.548 27.943" fill="#0f141b"/>
  </g>
  <g transform="matrix(2.773 0 0 -2.773 140.45 114.34)">
   <path d="m0 0c-1.064 3.522-3.862 11.55-5.354 14.914l-0.432 0.293c1.441-3.144 4.702-12.599 5.671-15.769z" fill="#0f141b"/>
  </g>
  <g transform="matrix(2.773 0 0 -2.773 123.43 73.75)">
   <path d="m0 0c-2.5 0.731-6.407 1.063-9.124 0.912l0.054-0.367c3.146 0.179 6.66-0.201 9.061-0.796 0.624-0.156 0.628 0.07 9e-3 0.251" fill="#0f141b"/>
  </g>
  <g transform="matrix(2.773 0 0 -2.773 106.96 105.88)">
   <path d="M 0,0 0.104,-0.366 C 1.545,0.316 6.012,2.156 8.434,3.109 9.006,3.334 8.931,3.548 8.356,3.333 5.93,2.423 1.463,0.691 0,0" fill="#0f141b"/>
  </g>
  <g transform="matrix(2.773 0 0 -2.773 101.05 86.25)">
   <path d="m0 0c-1.631-0.279-6.534-1.633-7.861-2.144l0.015-0.4c1.317 0.502 6.367 2.015 7.925 2.276z" fill="#0f141b"/>
  </g>
  <g transform="matrix(2.773 0 0 -2.773 113.28 126.29)">
   <path d="m0 0c-0.89-0.494-3.256-1.569-4.469-2.094l0.154-0.339c1.211 0.523 3.462 1.648 4.405 2.166z" fill="#0f141b"/>
  </g>
  <g transform="matrix(2.773 0 0 -2.773 118.09 138.79)">
   <path d="M 0,0 0.15,-0.347 C 2.517,1.515 5.501,5.458 7.085,8.084 7.429,8.655 7.352,8.98 7.021,8.415 5.512,5.839 2.409,1.917 0,0" fill="#0f141b"/>
  </g>
  <g transform="matrix(2.773 0 0 -2.773 101.12 147.11)">
   <path d="m0 0-0.186-0.324c0.29-0.531 0.602-0.964 0.925-1.376l0.367-0.012c-0.401 0.483-0.755 1.05-1.106 1.712" fill="#0f141b"/>
  </g>
  <g transform="matrix(2.773 0 0 -2.773 145.43 113.46)">
   <path d="m0 0-0.283-0.022c0.565-1.998 1.88-8.043 2.05-10.293l0.268 0.139c-0.179 2.419-1.398 8.131-2.035 10.176" fill="#0f141b"/>
  </g>
  <g transform="matrix(2.773 0 0 -2.773 161.02 110.62)">
   <path d="m0 0-0.265-0.083c0.649-1.792 1.981-5.686 2.36-8.141l0.278 0.175c-0.414 2.51-1.667 6.234-2.373 8.049" fill="#0f141b"/>
  </g>
  <g transform="matrix(2.773 0 0 -2.773 180.84 122.04)">
   <path d="m0 0c-0.475 1.683-1.299 3.435-2.155 4.731-0.275 0.417-0.474 0.361-0.187-0.116 0.78-1.292 1.8-3.601 2.122-4.856z" fill="#0f141b"/>
  </g>
  <g transform="matrix(2.773 0 0 -2.773 146.6 119.11)">
   <path d="M 0,0 0.065,-0.315 C 1.02,-0.059 3.518,0.725 4.889,1.189 5.381,1.356 5.29,1.532 4.803,1.388 3.428,0.981 0.957,0.258 0,0" fill="#0f141b"/>
  </g>
  <g transform="matrix(2.773 0 0 -2.773 179.55 119.48)">
   <path d="m0 0c-0.878-0.66-3.607-2.271-4.852-2.942l0.097-0.358c1.154 0.619 3.823 2.273 4.842 3.019z" fill="#0f141b"/>
  </g>
  <g transform="matrix(2.773 0 0 -2.773 149.65 134.38)">
   <path d="m0 0c-1.509-0.558-5.426-1.618-7.439-1.837l-0.301-0.38c1.922 0.148 6.132 1.339 7.772 1.933z" fill="#0f141b"/>
  </g>
  <g transform="matrix(2.773 0 0 -2.773 45.832 81.816)">
   <path d="m0 0c-0.927 0.746-0.839 6.112 2.111 6.835 1.554 0.38 2.822-1.46 2.628-3.111-0.229-1.944-3.623-4.622-4.739-3.724" fill="#0f141b"/>
  </g>
  <g transform="matrix(2.773 0 0 -2.773 52.485 65.028)">
   <path d="m0 0c0.373-0.234 0.27-0.934-0.02-1.348-0.53-0.758-1.609-1.153-1.844-0.939-0.346 0.316-0.235 1.09 0.239 1.724 0.414 0.554 1.035 0.933 1.625 0.563" fill="#fff"/>
  </g>
  <g transform="matrix(2.773 0 0 -2.773 53.809 77.913)">
   <path d="m0 0c-0.524-0.499-1.179-0.855-1.351-0.69-0.244 0.234 0.041 1.113 0.478 1.591 0.567 0.621 1.143 0.842 1.457 0.529 0.227-0.226 0.023-0.853-0.584-1.43" fill="#02539c"/>
  </g>
  <g transform="matrix(2.773 0 0 -2.773 46.588 110.62)">
   <path d="m0 0c-0.81-0.879-1.099-2.012-0.996-2.149 0.035-0.047 0.548 0.012 1.066-0.029z" fill="#e6e7e7"/>
  </g>
  <g transform="matrix(2.773 0 0 -2.773 46.895 115.57)">
   <path d="m0 0c-0.566-0.456-0.765-1.746-0.666-1.896 0.041-0.062 0.721 0.17 1.266 0.271z" fill="#e6e7e7"/>
  </g>
  <g transform="matrix(2.773 0 0 -2.773 48.962 120.75)">
   <path d="m0 0c-0.186-0.414-0.245-1.031-0.204-1.106 0.035-0.065 1.078 0.046 1.451 0.197z" fill="#e6e7e7"/>
  </g>
  <g transform="matrix(2.773 0 0 -2.773 46.791 116.66)">
   <path d="m0 0-0.016 0.937c-0.229-0.395-0.651-0.691-1.083-0.851 0-1e-3 0.032-0.055 0.033-0.057 0.035-0.047 0.547 0.012 1.066-0.029" fill="#bdbec0"/>
  </g>
  <g transform="matrix(2.773 0 0 -2.773 48.971 120.75)">
   <path d="m0 0c-0.187-0.414-0.245-1.031-0.204-1.106 0.035-0.065 1.078 0.046 1.451 0.197z" fill="#e6e7e7"/>
  </g>
  <g transform="matrix(2.773 0 0 -2.773 44.984 120.7)">
   <path d="M 0,0 C 0.093,-0.034 0.773,0.129 1.292,0.226 L 0.949,1.108 C 0.875,0.721 0.543,0.365 0,0" fill="#bdbec0"/>
  </g>
  <g transform="matrix(2.773 0 0 -2.773 79.265 89.432)">
   <path d="m0 0c-2.852 0.713-9.044-2.163-11.341-5.885-1.926-3.118 0.118-8.162 4.887-6.332 6.238 2.393 8.36 5.103 8.727 7.342 0.338 2.064-0.884 4.528-2.273 4.875" fill="#c7eafb"/>
  </g>
  <g transform="matrix(2.773 0 0 -2.773 85.568 102.95)">
   <path d="m0 0c0.138 0.841 0.017 1.748-0.269 2.551-1.711-3.628-9.781-8.56-13.586-8.264 0.798-1.615 2.571-2.61 5.128-1.629 6.238 2.394 8.36 5.103 8.727 7.342" fill="#91cdef"/>
  </g>
  <g transform="matrix(2.773 0 0 -2.773 68.315 61.358)">
   <path d="m0 0c-0.57 2.066 0.89 6.799 2.066 7.148 1.005 0.299 3.768-3.155 4.366-4.623-0.305-0.067-1.486-0.581-1.781-0.724-0.419 1.162-1.25 2.089-1.819 1.981-0.791-0.15-1.197-1.991-1.134-3-0.371-0.143-1.262-0.488-1.698-0.782" fill="#91cdef"/>
  </g>
  <g transform="matrix(2.773 0 0 -2.773 76.167 50.869)">
   <path d="m0 0c-0.791-0.15-1.196-1.992-1.133-3 0.508 1.122 1.438 1.581 2.952 1.019-0.419 1.162-1.249 2.089-1.819 1.981" fill="#0f141b"/>
  </g>
  <g transform="matrix(2.773 0 0 -2.773 74.044 41.535)">
   <path d="m0 0c-0.749-0.194-1.805-1.319-2.053-1.718-0.629-1.01-0.581-3.449-0.013-5.43-0.57 2.065 0.89 6.798 2.066 7.148" fill="#fff"/>
  </g>
  <g transform="matrix(2.773 0 0 -2.773 52.062 110.45)">
   <path d="M 0,0 C 0.313,-0.64 2.086,-0.233 4.568,1.243 7.063,2.727 8.779,4.589 8.142,5.772 7.606,6.766 5.182,6.265 2.656,4.74 0.133,3.217 -0.292,0.597 0,0" fill="#fff"/>
  </g>
  <g transform="matrix(2.773 0 0 -2.773 52.486 102.71)">
   <path d="m0 0c-0.33 0.09-0.963-0.718-1.39-1.727-0.31-0.731-0.393-1.418-0.044-1.445 0.32-0.026 0.451 0.856 0.612 1.357 0.344 1.07 0.979 1.773 0.822 1.815" fill="#fff"/>
  </g>
  <g transform="matrix(2.773 0 0 -2.773 49.78 122.04)">
   <path d="m0 0c0.08-0.281-0.144-0.42-0.497-0.584 0.149-0.109 0.8-0.028 1.181 0.061z" fill="#bdbec0"/>
  </g>
  <g transform="matrix(2.773 0 0 -2.773 44.541 115.69)">
   <path d="M 0,0 C 0.037,-0.03 0.292,0.249 0.413,0.411 L 0.382,0.764 C 0.267,0.612 -0.045,0.037 0,0" fill="#f2f2f2"/>
  </g>
  <g transform="matrix(2.773 0 0 -2.773 46.43 117.64)">
   <path d="m0 0c-0.101-0.209-0.292-0.743-0.245-0.771 0.043-0.025 0.267 0.312 0.357 0.486z" fill="#f2f2f2"/>
  </g>
  <g transform="matrix(2.773 0 0 -2.773 49.391 121.85)">
   <path d="m0 0c-0.078-0.213-0.145-0.436-0.115-0.453 0.031-0.018 0.155 0.151 0.256 0.312z" fill="#f2f2f2"/>
  </g>
  <g transform="matrix(2.773 0 0 -2.773 84.973 102.84)">
   <path d="m0 0c-0.555-3.383-4.917-5.779-8.563-7.178-4.682-1.797-6.481 3.102-4.677 6.025 2.237 3.623 8.347 6.495 11.136 5.798 1.335-0.334 2.401-2.835 2.104-4.645m-1.998 5c-2.935 0.733-9.169-2.082-11.554-5.945-2.029-3.287 0.217-8.488 5.094-6.616 3.884 1.491 8.281 3.832 8.88 7.488 0.37 2.258-0.923 4.699-2.42 5.073" fill="#0f141b"/>
  </g>
  <g transform="matrix(2.773 0 0 -2.773 61.038 94.144)">
   <path d="m0 0-0.259-0.15c0.351-2.34 3.093-6.466 5.165-8.012l0.242 0.168c-2.014 1.427-4.918 6.015-5.148 7.994" fill="#0f141b"/>
  </g>
  <g transform="matrix(2.773 0 0 -2.773 49.292 103.83)">
   <path d="m0 0-0.288-0.288c-0.035-2.866 1.764-6 4.453-6.772l0.495 0.171c-2.732 0.46-4.836 4.103-4.66 6.889" fill="#0f141b"/>
  </g>
  <g transform="matrix(2.773 0 0 -2.773 71.934 113.94)">
   <path d="m0 0c-1.048-0.784-3.541-2.313-4.788-2.904l0.31-0.161c1.617 0.771 3.678 2.088 4.675 2.868z" fill="#0f141b"/>
  </g>
  <g transform="matrix(2.773 0 0 -2.773 62.874 100.48)">
   <path d="M 0,0 0.16,-0.285 C 1.776,0.9 5.54,2.751 7.146,3.023 L 6.933,3.264 C 5.2,2.896 1.602,1.211 0,0" fill="#0f141b"/>
  </g>
  <g transform="matrix(2.773 0 0 -2.773 44.154 116.25)">
   <path d="m0 0c-0.049 0.049 0.164 0.74 0.597 1.377l0.036 0.628c-0.684-0.825-0.992-1.965-0.865-2.23 0.051-0.108 0.682-0.104 1.005-0.086l-0.036 0.36c-0.268-0.043-0.714-0.071-0.737-0.049" fill="#0f141b"/>
  </g>
  <g transform="matrix(2.773 0 0 -2.773 45.361 120.44)">
   <path d="m0 0c-0.039 0.043 0.094 0.792 0.356 1.237l-0.115 0.386c-0.434-0.595-0.599-1.641-0.469-1.838 0.092-0.139 0.608-0.023 1.206 0.142l-0.189 0.304c-0.232-0.097-0.762-0.262-0.789-0.231" fill="#0f141b"/>
  </g>
  <g transform="matrix(2.773 0 0 -2.773 48.809 123.49)">
   <path d="m0 0c-0.029 0.02 0.027 0.416 0.106 0.617l-0.268 0.304c-0.136-0.391-0.189-1.06-0.098-1.151 0.087-0.087 0.507-0.119 1.428 0.12l-0.422 0.215c-0.35-0.098-0.709-0.129-0.746-0.105" fill="#0f141b"/>
  </g>
  <g transform="matrix(2.773 0 0 -2.773 74.394 42.131)">
   <path d="m0 0c-1.004-0.298-2.518-4.669-2.102-6.714 0.442 0.255 1.115 0.521 1.465 0.656-0.03 1.006 0.345 2.929 1.237 3.098 0.679 0.128 1.518-0.932 1.935-1.983 0.355 0.161 1.12 0.493 1.515 0.624-0.632 1.381-3.2 4.574-4.05 4.319m-2.326-6.97c-0.573 2.075 0.878 7.046 2.179 7.432 1.147 0.338 3.949-3.428 4.515-4.818 0.05-0.123 2e-3 -0.16-0.099-0.188-0.323-0.092-1.403-0.547-1.75-0.713-0.076-0.036-0.161-6e-3 -0.191 0.078-0.427 1.182-1.218 1.929-1.649 1.845-0.655-0.124-1.099-1.77-1.034-2.809 3e-3 -0.06-0.033-0.116-0.089-0.138-0.34-0.131-1.242-0.477-1.671-0.767-0.08-0.055-0.176-0.05-0.211 0.078" fill="#0f141b"/>
  </g>
  <g transform="matrix(2.773 0 0 -2.773 80.811 55.821)">
   <path d="m 0,0 c -1.34,0.437 -2.183,0.153 -2.774,-0.852 0,0 0.091,-0.422 0.092,-0.42 0.483,1.065 1.441,1.442 2.778,0.947 C 0.098,-0.326 0,0 0,0" fill="#0f141b"/>
  </g>
  <g transform="matrix(2.773 0 0 -2.773 67.98 46.073)">
   <path d="m0 0c-0.688-1.106-0.535-3.702-0.013-5.548l0.26 0.151c-0.58 2.038-0.573 4.291 9e-3 5.226 0.179 0.286 0.742 0.921 1.301 1.324l0.609 0.731c-0.647-0.247-1.93-1.505-2.166-1.884" fill="#0f141b"/>
  </g>
  <g transform="matrix(2.773 0 0 -2.773 47.077 62.204)">
   <path d="m0 0c0.062 0.108 0.819 1.452 0.958 1.692 0.039 0.066 0.322-0.057 0.284-0.123-0.139-0.24-0.939-1.598-1.001-1.707-0.026-0.045-0.279 0.071-0.241 0.138" fill="#0f141b"/>
  </g>
 </g>
</svg>
