<?xml version="1.0" encoding="UTF-8"?>
<!-- Created with Inkscape (http://www.inkscape.org/) -->
<svg version="1.1" viewBox="0 0 162.05 106.22" xmlns="http://www.w3.org/2000/svg" xmlns:cc="http://creativecommons.org/ns#" xmlns:dc="http://purl.org/dc/elements/1.1/" xmlns:rdf="http://www.w3.org/1999/02/22-rdf-syntax-ns#">
 <metadata>
  <rdf:RDF>
   <cc:Work rdf:about="">
    <dc:format>image/svg+xml</dc:format>
    <dc:type rdf:resource="http://purl.org/dc/dcmitype/StillImage"/>
   </cc:Work>
  </rdf:RDF>
 </metadata>
 <g transform="translate(-35.81 -158.48)">
  <g transform="matrix(1.744 0 0 -1.744 50.506 199.28)">
   <path d="m0 0c-2.445 0.749-6.711 1.064-7.303 0.67s-1.302-6.709 0.83-10.776z" fill="#fff"/>
  </g>
  <g transform="matrix(1.744 0 0 -1.744 43.275 210.31)">
   <path d="m0 0c-1.159 1.133-2.973 4.209-3.207 6.944-0.58-0.705-1.189-6.776 0.881-10.726 0 0 2.346 3.763 2.326 3.782" fill="#d3edfb"/>
  </g>
  <g transform="matrix(1.744 0 0 -1.744 134.81 165.41)">
   <path d="m0 0c7.822 0.972 20.852-1.615 29.061-9.529 8.187-7.895 9.697-26.11 0.414-32.084-1.444-0.93-2.387-0.414-2.12 0.842 1.85 8.684-1.914 15.388-11.148 18.868-5.396 2.032-5.725 1.825-7.898 2.092z" fill="#d3edfb"/>
  </g>
  <g transform="matrix(1.744 0 0 -1.744 185.49 182.03)">
   <path d="m0 0c-7.922 7.637-20.328 10.313-28.219 9.617l1.559-4.638c25.73 0.125 37.5-23.69 26.689-37.282 0.125 0.065 0.25 0.133 0.385 0.219 9.283 5.975 7.774 24.189-0.414 32.084" fill="#fff"/>
  </g>
  <g transform="matrix(1.744 0 0 -1.744 142.57 181.36)">
   <path d="m0 0 3.092-8.84c17.371-1.637 24.308-12.622 19.773-23.084-0.027-0.428 0.11-0.738 0.373-0.898 8.272 8.306 1.217 32.049-23.238 32.822" fill="#a0d2f2"/>
  </g>
  <g transform="matrix(1.744 0 0 -1.744 99.267 248.76)">
   <path d="m0 0c0.672-1.591 1.83-2.836 3.793-3.761 3.57-1.68 10.551-0.11 13.213 3.741 0.871 1.262 1.426 2.602 1.707 3.937 0.389 0.128 0.83 0.294 1.242 0.483-1.107-1.703-1.617-3.675-1.441-4.021 0.052-0.104 0.513-0.015 1.074 0.158-0.137-0.224-0.201-0.416-0.168-0.548 0.078-0.335 5.125-0.029 7.674 0.712 3.582-0.572 10.263 5.944 10.392 8.16 0.028 0.436-0.371 1.026-1.013 1.561 1.757 2.933 2.611 6.553 2.289 10.074-0.371 4.034-2.574 7.795-5.584 9.692-1.651 9.257-6.098 15.408-13.809 18.906-7.045 3.198-20.01 2.881-27.236-0.178-9.299-3.934-15.197-11.487-16.406-16.948" fill="#d3edfb"/>
  </g>
  <g transform="matrix(1.744 0 0 -1.744 129.44 161.77)">
   <path d="m0 0c-7.297 2.329-18.602 1.814-25.17-0.965-4.609-1.949-8.381-4.789-11.162-7.82-2.647-9.483 8.885-20.108 29.48-15.576 11.868 2.61 15.276 17.103 6.852 24.361" fill="#fff"/>
  </g>
  <g transform="matrix(1.744 0 0 -1.744 133.48 206.74)">
   <path d="m0 0c-2.934-6.769-11.625-8.305-14.641-6.603v-9.902l17.047 2.758z" fill="#a0d2f2"/>
  </g>
  <g transform="matrix(1.744 0 0 -1.744 149.57 193.86)">
   <path d="m0 0c4.951 1.058 9.385-5.181 9.918-10.983 0.525-5.733-2.066-11.725-6.604-14.596l-4.736-1.628c-5.75-0.838-9.09 4.603-9.592 8.585-0.504 3.998-0.621 12.279 5.211 16.106 2.074 1.361 3.705 2.068 5.803 2.516" fill="#d3edfb"/>
  </g>
  <g transform="matrix(1.744 0 0 -1.744 122.44 224.06)">
   <path d="m0 0c-1.213 0.229-2.758 0.033-3.836-0.615-1.469-0.883-2.648-2.399-3.584-4.186 0.024 0-0.594-0.594-0.559-0.628-0.953-3.305-2.775-6.272-5.31-8.733 0.672-1.591 1.83-2.836 3.793-3.761 3.57-1.681 10.551-0.11 13.213 3.741 4.025 5.825 1.215 13.256-3.717 14.182" fill="#d3edfb"/>
  </g>
  <g transform="matrix(1.744 0 0 -1.744 162.88 230.59)">
   <path d="m0 0c1.758 2.934 2.611 6.553 2.289 10.074-0.066 0.718-0.244 2.629-0.777 3.631 0.867-12.633-13.249-17.72-19.719-13.65 0.102-10.477-13.484-10.012-13.272-2.793-1.068-3.51-3.244-5.985-4.994-7.684 0.672-1.591 1.83-2.836 3.793-3.761 3.571-1.68 10.551-0.11 13.213 3.742 0.871 1.261 1.426 2.601 1.707 3.936 0.389 0.128 0.83 0.294 1.242 0.484-1.107-1.704-1.617-3.676-1.441-4.022 0.053-0.103 0.514-0.015 1.074 0.158-0.136-0.224-0.201-0.416-0.168-0.548 0.078-0.335 5.125-0.029 7.674 0.712 3.582-0.572 10.264 5.944 10.392 8.16 0.028 0.436-0.37 1.026-1.013 1.561" fill="#a0d2f2"/>
  </g>
  <g transform="matrix(1.744 0 0 -1.744 108.11 212.5)">
   <path d="m0 0-3.221 5.99c-2.715 3.217-7.07 5.821-13.429 7.115-16.301 3.315-27.67-15.065-23.762-27.711 0.584-1.889 1.865-3.302 2.992-4.06 0.027-0.086 0.057-0.168 0.09-0.243 1.463-3.231 3.885-4.169 5.83-5.821 0.758-0.645 3.826-4.852 5.889-4.852 2.517 0 4.412 2.445 6.658 3.414 1.84 0.793 4.148 1.489 6.836 1.85 1.998 0.267 2.769 0.088 4.92 1.705 6.888 5.186 9.943 13.497 7.197 22.613" fill="#fff"/>
  </g>
  <g transform="matrix(1.744 0 0 -1.744 108.11 212.5)">
   <path d="m0 0-2.123 3.948c-1.338-17.221-11.813-24.647-24.078-24.747-10.11-0.084-14.354 9.18-13.971 18.091-1.217-3.999-1.385-8.194-0.24-11.898 0.584-1.889 1.865-3.302 2.992-4.06 0.027-0.086 0.057-0.168 0.09-0.243 1.463-3.231 3.885-4.169 5.83-5.821 0.758-0.645 3.826-4.852 5.889-4.852 2.517 0 4.412 2.445 6.658 3.414 1.84 0.793 4.148 1.489 6.836 1.85 1.998 0.267 2.769 0.088 4.92 1.705 6.888 5.186 9.943 13.497 7.197 22.613" fill="#d3edfb"/>
  </g>
  <g transform="matrix(1.744 0 0 -1.744 43.009 245.48)">
   <path d="m0 0c1.463-3.23 3.885-4.169 5.83-5.821 0.758-0.645 3.826-4.852 5.889-4.852 2.517 0 4.412 2.445 6.658 3.414 1.605 0.694 3.566 1.31 5.824 1.696 3.119 2.882 3.928 7.352 3.024 9.951l-6.049 0.396c-1.1-1.949-6.696-4.855-9.801-4.819-3.299 0.038-7.402 3.139-8.053 6.28l-3.068-2.328c-0.567-1.044-0.682-2.971-0.254-3.917" fill="#fff9b0"/>
  </g>
  <g transform="matrix(1.744 0 0 -1.744 142.16 241.12)">
   <path d="m0 0c-1.229 0.289-2.299 0.887-3.207 1.672-2.08-1.713-3.111-5.203-2.873-5.672 0.053-0.104 0.514-0.015 1.074 0.158 0.684 1.147 3.244 3.25 5.006 3.842" fill="#efefef"/>
  </g>
  <g transform="matrix(1.744 0 0 -1.744 143.43 240.85)">
   <path d="m0 0c-1.967-0.109-6.117-3.642-5.902-4.546 0.08-0.337 5.166-0.025 7.707 0.72 0.468 0.138 0.826 1.422 0.523 2.211-0.252 0.652-0.844 1.205-1.562 1.437" fill="#efefef"/>
  </g>
  <g transform="matrix(1.744 0 0 -1.744 88.97 250.21)">
   <path d="m0 0c-3.832-2.245-6.744-2.47-8.299-3.197-2.131-0.996-3.709-3.34-6.326-3.492-0.836-0.049-3.197 0.974-4.992 2.599 1.273-1.449 3.416-3.871 4.982-3.871 2.518 0 4.412 2.445 6.658 3.414 1.606 0.693 3.567 1.31 5.825 1.695 0.912 0.844 1.621 1.825 2.152 2.852" fill="#ded799"/>
  </g>
  <g transform="matrix(1.744 0 0 -1.744 85.959 225.41)">
   <path d="m0 0c-0.516 1.053-1.5 1.974-2.75 2.729-1.994-5.706-7.564-13.137-12.576-13.893 0.701-0.234 1.404-0.371 2.074-0.378 3.106-0.036 8.701 2.87 9.801 4.819l3.576 6.385z" fill="#d3edfb"/>
  </g>
  <g transform="matrix(1.744 0 0 -1.744 66.237 209.46)">
   <path d="m0 0c-7.201-0.32-15.482-5.268-15.875-13.375-0.08-1.677 0.125-3.463 0.693-5.331 0.411-0.898 1.368-2.155 1.957-2.554l-0.183 0.85c-0.317 1.004-0.178 2.713 0.344 3.674l1.222 6.798c1.006 3.257 6.908 5.592 10.807 5.794 4.71 0.244 10.746-1.747 12.344-5.002l2.597-7.12c0.905-2.598 0.096-7.068-3.023-9.951 0.33 0.057 0.667 0.109 1.012 0.154 0.814 0.109 1.423 0.145 2.007 0.258 2.522 2.454 3.543 4.875 3.95 7.215 2.043 11.753-9.237 18.976-17.852 18.59" fill="#d3edfb"/>
  </g>
  <g transform="matrix(1.744 0 0 -1.744 109.82 222.41)">
   <path d="m0 0c-1.359-6.553-5.016-13.256-9.023-15.773l-2.991-0.273c-0.525-0.987-1.215-1.93-2.095-2.743 0.33 0.057 0.667 0.108 1.011 0.154 1.998 0.268 2.77 0.088 4.92 1.705 5.424 4.084 8.469 10.104 8.178 16.93" fill="#a0d2f2"/>
  </g>
  <g transform="matrix(1.744 0 0 -1.744 141.74 175.72)">
   <path d="m0 0c0.547-1.055 1.139-4.089 0.254-6.074-0.889-2-2.078-0.813-1.6 0.51 0.487 1.341 0.602 3.526 0.194 5.25-0.287 1.207 0.584 1.416 1.152 0.314" fill="#fff"/>
  </g>
  <g transform="matrix(1.744 0 0 -1.744 153.09 219.59)">
   <path d="m0 0c-0.463-0.842-1.049-1.498-1.83-1.977-1.543-0.945-1.797 0.422-0.852 1.097 0.479 0.344 1.243 1.03 1.705 1.645 0.78 1.036 1.661 0.474 0.977-0.765" fill="#fff"/>
  </g>
  <g transform="matrix(1.744 0 0 -1.744 136.58 201.77)">
   <path d="m0 0c-1.973-3.121-3.391-10.197 0.873-11.488 4.254-1.287 8.898 3.534 10.084 8.373 1.18 4.829-2.568 6.515-3.594 6.771-3.09 0.768-5.681-0.993-7.363-3.656" fill="#fff"/>
  </g>
  <g transform="matrix(1.744 0 0 -1.744 116.57 227.78)">
   <path d="m0 0c-1.203-1.67-2.051-4.918 0.256-5.841 2.307-0.921 4.916 1.084 5.74 3.739 0.818 2.649-1.211 3.715-1.771 3.891-1.698 0.531-3.2-0.363-4.225-1.789" fill="#fff"/>
  </g>
  <g transform="matrix(1.744 0 0 -1.744 176.41 187.59)">
   <path d="m0 0c0.656-0.477 1.482-1.293 1.971-1.922 0.724-0.928 0.097-1.377-0.86-0.57-0.365 0.308-1.48 1.146-2.015 1.545-0.805 0.599 0.172 1.48 0.904 0.947" fill="#fff"/>
  </g>
  <g transform="matrix(1.744 0 0 -1.744 146.58 247.52)">
   <path d="m0 0c0.469 0.139 0.826 1.422 0.523 2.211-0.011 0.033-0.273 0.461-0.287 0.492-0.664-1.957-6.279-3.084-7.933-3.437 0.228-0.313 5.195 0 7.697 0.734" fill="#c9caca"/>
  </g>
  <g transform="matrix(1.744 0 0 -1.744 139.33 240.08)">
   <path d="m0 0c-1.221-0.975-3.557-3.461-4.328-4.645 0.182-5e-3 0.535 0.075 0.947 0.202 0.684 1.146 3.244 3.25 5.006 3.841-0.576 0.135-1.117 0.342-1.625 0.602" fill="#c9caca"/>
  </g>
  <g transform="matrix(1.744 0 0 -1.744 85.959 225.41)">
   <path d="m0 0c-0.02 0.04-0.043 0.078-0.064 0.116-4.561-7.899-11.395-11.114-14.68-11.45 0.506-0.129 1.008-0.203 1.492-0.208 3.106-0.036 8.701 2.87 9.801 4.819l3.576 6.385z" fill="#a0d2f2"/>
  </g>
  <g transform="matrix(1.744 0 0 -1.744 79.255 189.02)">
   <path d="m0 0c-16.658 3.388-28.125-15.129-24.104-28.15 0.674-2.175 2.393-4.482 3.733-5.33l-0.133 0.577c-1.137 0.839-2.514 3.035-3.1 4.924-3.714 12.026 7.075 30.598 23.5 27.256 5.084-1.034 8.793-2.701 11.686-5.427l0.777 0.156c-2.964 2.905-7.056 4.915-12.359 5.994" fill="#0d131a"/>
  </g>
  <g transform="matrix(1.744 0 0 -1.744 109.24 214.93)">
   <path d="m0 0-0.518-0.057c1.95-8.136-0.865-15.913-7.519-20.92-1.996-1.502-3.211-1.486-4.733-1.69-2.433-0.325-4.849-1.009-6.923-1.903-2.131-0.918-4.102-3.273-6.561-3.273-1.887 0-4.812 3.882-5.725 4.658-2.08 1.768-4.294 2.587-5.726 5.752-0.334 0.738-0.363 2.11-0.055 3.122l-0.359 0.407c-0.43-1.129-0.537-2.835-0.131-3.733 1.49-3.291 3.889-4.113 5.936-5.853 0.951-0.81 3.814-5.043 6.093-5.043 2.512 0 4.746 2.695 6.717 3.544 2.039 0.88 4.367 1.469 6.768 1.79 2.132 0.286 3.007 0.229 5.035 1.756 6.763 5.089 9.764 12.792 7.701 21.443" fill="#0d131a"/>
  </g>
  <g transform="matrix(1.744 0 0 -1.744 37.471 197.73)">
   <path d="m0 0c-0.734-0.49-1.338-6.736 0.527-10.839l0.299 1.019c-1.609 4.019-0.947 9.054-0.508 9.382 0.422 0.315 3.608 0.067 6.077-0.51l0.544 0.544c-2.451 0.611-6.3 0.83-6.939 0.404" fill="#0d131a"/>
  </g>
  <g transform="matrix(1.744 0 0 -1.744 106.86 248.33)">
   <path d="m0 0c-1.361 5.438 1.527 11.368 4.984 13.469 0.7 0.424 0.893 0.136 0.225-0.335-3.023-2.132-5.846-7.671-4.816-13.051 0.142-0.739-0.215-0.798-0.393-0.083" fill="#0d131a"/>
  </g>
  <g transform="matrix(1.744 0 0 -1.744 122.5 223.71)">
   <path d="m0 0c-0.865 0.146-0.928-0.215-0.068-0.396 4.748-1.004 7.451-7.934 3.453-13.719-2.625-3.799-9.317-5.345-12.75-3.728-1.83 0.863-3.02 1.977-3.711 3.636l-0.432-0.434c0.738-1.664 1.977-2.91 3.84-3.786 3.523-1.659 10.779-0.222 13.598 3.857 4.277 6.191 1.031 13.73-3.93 14.57" fill="#0d131a"/>
  </g>
  <g transform="matrix(1.744 0 0 -1.744 124.2 250.02)">
   <path d="m0 0c-4.176-1.11-8.313 0.386-9.902 2.558l0.082-0.738c1.576-1.717 4.343-2.572 7.015-2.572 1.008 0 2.002 0.12 2.91 0.362 1.053 0.28 1.954 0.77 2.7 1.457l0.57 1.272c-0.826-1.176-1.951-1.962-3.375-2.339" fill="#0d131a"/>
  </g>
  <g transform="matrix(1.744 0 0 -1.744 124.22 225.97)">
   <path d="m0 0c-0.234 0.331-0.416 0.154-0.266-0.095 2.258-3.697 2.192-11.149-0.111-13.914l0.686 0.186c2.349 3.66 1.87 10.749-0.309 13.823" fill="#0d131a"/>
  </g>
  <g transform="matrix(1.744 0 0 -1.744 106.69 245.25)">
   <path d="m0 0c-0.547-0.551-2.592-1.443-3.742-1.621l-0.463-0.445c1.266 0.038 3.273 0.65 4.273 1.418z" fill="#0d131a"/>
  </g>
  <g transform="matrix(1.744 0 0 -1.744 102.91 247.91)">
   <path d="m0 0-0.582-0.142c-0.379-0.764-0.375-1.445 0.107-2.574l0.911-0.685c-0.762 1.113-1.133 2.672-0.436 3.401" fill="#0d131a"/>
  </g>
  <g transform="matrix(1.744 0 0 -1.744 62.83 245.04)">
   <path d="m0 0c-3.129 0.018-6.994 2.944-7.773 5.744l-0.026-1.053c1.313-2.699 4.865-5.242 7.83-5.257 2.559-0.016 7.727 2.323 9.545 4.435l0.018 0.699c-1.272-2.093-6.966-4.582-9.594-4.568" fill="#0d131a"/>
  </g>
  <g transform="matrix(1.744 0 0 -1.744 63.338 226.57)">
   <path d="m0 0c-3.73-0.188-6.604-1.878-8.033-4.4l0.078-0.73c1.252 2.721 4.127 4.402 7.971 4.596 3.064 0.16 7.964-1.434 9.32-4.89l0.133 0.687c-1.696 3.261-6.446 4.89-9.469 4.737" fill="#0d131a"/>
  </g>
  <g transform="matrix(1.744 0 0 -1.744 90.493 239.2)">
   <path d="m0 0c0.547-2.616-0.686-6.914-3.477-9.283l0.704 0.09c3.048 2.916 3.882 6.646 3.082 9.638z" fill="#0d131a"/>
  </g>
  <g transform="matrix(1.744 0 0 -1.744 66.264 209.03)">
   <path d="m0 0c-7.359-0.329-15.75-5.396-16.146-13.602-0.071-1.448 0.134-2.924 0.488-4.4l0.906-1.643c-0.713 2.022-0.984 4.036-0.889 6.012 0.395 8.168 8.748 12.854 15.631 13.162 8.91 0.403 19.557-7.082 17.612-18.273-0.477-2.742-1.723-5.119-3.954-7.256l0.752 0.18c2.004 2.068 3.229 4.357 3.688 6.989 1.982 11.414-8.92 19.241-18.088 18.831" fill="#0d131a"/>
  </g>
  <g transform="matrix(1.744 0 0 -1.744 64.482 216.26)">
   <path d="m0 0c-3.508-0.181-8.828-2.161-10.588-5.025l0.269-0.336c1.54 2.705 6.606 4.661 10.299 4.851 5.221 0.272 10.008-1.816 11.754-4.178l0.256 0.338c-2.164 2.87-7.664 4.571-11.99 4.35" fill="#0d131a"/>
  </g>
  <g transform="matrix(1.744 0 0 -1.744 64.057 216.79)">
   <path d="m0 0c-0.252-1.447-0.6-4.21-0.688-5.859l0.514 0.017c0.094 1.695 0.348 4.51 0.586 5.86z" fill="#0d131a"/>
  </g>
  <g transform="matrix(1.744 0 0 -1.744 81.967 213.18)">
   <path d="m0 0c-0.371-0.765-0.984-2.418-1.295-3.752l0.367-0.202c0.276 1.235 0.951 2.818 1.385 3.708 0.506 1.035 3.432 4.933 4.658 6.4l-0.373 0.184c-1.299-1.56-4.228-5.287-4.742-6.338" fill="#0d131a"/>
  </g>
  <g transform="matrix(1.744 0 0 -1.744 53.024 199.52)">
   <path d="m0 0c-1.008-2.6-2.008-7.441-1.852-8.678 0.098-0.783 0.686-2.27 1.122-3.283l0.355 0.19c-0.42 0.979-0.846 2.639-0.938 3.386-0.156 1.242 0.844 6.299 1.854 8.645z" fill="#0d131a"/>
  </g>
  <g transform="matrix(1.744 0 0 -1.744 102.07 213.96)">
   <path d="m0 0c-3.061 5.858-10.624 10.509-17.973 11.009-6.859 0.465-12.912-3.331-16.461-7.649l-0.685-1.58c3.264 4.757 9.59 9.233 17.002 8.729 7.221-0.49 14.705-4.985 17.705-10.727 2.465-4.717 3.791-12.256-0.279-18.558l1.31 1.504c2.951 6.056 1.678 12.878-0.619 17.272" fill="#0d131a"/>
  </g>
  <g transform="matrix(1.744 0 0 -1.744 129.75 226.42)">
   <path d="m0 0c-0.689 4.666 0.525 11.969 5.422 16.3 1.039 0.919 1.279 0.663 0.275-0.294-4.57-4.36-5.558-11.338-4.98-15.924 0.431-3.443 3.224-9.082 9.195-8.422 1.205 0.135 1.252-0.191 0.059-0.397-5.078-0.878-9.153 3.208-9.971 8.737" fill="#0d131a"/>
  </g>
  <g transform="matrix(1.744 0 0 -1.744 155.22 238.25)">
   <path d="m0 0c4.309 2.89 6.824 8.679 6.297 14.405-0.539 5.877-4.774 10.785-9.457 10.848-1.248 0.018-1.246 0.354 4e-3 0.402 4.885 0.193 9.668-5.019 10.232-11.17 0.549-5.964-2.305-11.955-6.912-14.744-0.607-0.369-0.777-0.15-0.164 0.259" fill="#0d131a"/>
  </g>
  <g transform="matrix(1.744 0 0 -1.744 160.06 198.34)">
   <path d="m0 0-1.285 0.898c2.531-2.367 2.332-5.693-1.17-8.524-3.794-3.068-11.695-3.792-13.865-0.219l-0.127-0.534c2.783-3.73 10.709-2.66 14.295 0.24 3.644 2.948 3.384 6.223 2.152 8.139" fill="#0d131a"/>
  </g>
  <g transform="matrix(1.744 0 0 -1.744 132.26 231.77)">
   <path d="m0 0 0.258-0.581c8.172-3.877 15.092-1.067 18.289 3.188l0.476 1.493c-3.201-5.98-12.007-7.648-19.023-4.1" fill="#0d131a"/>
  </g>
  <g transform="matrix(1.744 0 0 -1.744 134.87 217.76)">
   <path d="m0 0c-0.383-2.587-0.174-6.848 0.67-9.087l0.59-0.23c-0.897 2.025-1.205 6.5-0.953 9.285 0.066 0.722-0.194 0.799-0.307 0.032" fill="#0d131a"/>
  </g>
  <g transform="matrix(1.744 0 0 -1.744 160.68 211.7)">
   <path d="m0 0c-0.363 0.828-0.57 0.635-0.256-0.156 1.115-2.809 1.447-6.27 1.277-9.787l0.497 0.539c0.152 3.305-0.512 7.106-1.518 9.404" fill="#0d131a"/>
  </g>
  <g transform="matrix(1.744 0 0 -1.744 163.21 230.29)">
   <path d="m0 0-0.271-0.449c0.562-0.481 0.861-0.905 0.841-1.257-0.105-1.8-6.304-8.138-9.697-7.915l-0.752-0.561c3.951-0.913 10.84 6.164 10.975 8.453 0.029 0.502-0.385 1.141-1.096 1.729" fill="#0d131a"/>
  </g>
  <g transform="matrix(1.744 0 0 -1.744 131.85 247.83)">
   <path d="m0 0c-0.123 0.123 0.73 3.498 2.848 5.276l-0.397 0.351c-2.459-2.131-3.08-5.767-2.754-5.975 0.149-0.095 0.612-0.06 1.016 0.054l0.346 0.612c-0.483-0.222-1.01-0.367-1.059-0.318" fill="#0d131a"/>
  </g>
  <g transform="matrix(1.744 0 0 -1.744 147.88 243.48)">
   <path d="m0 0c-0.178 0.464-0.471 0.828-0.975 1.139l-0.724-0.06c0.586-0.234 1.015-0.631 1.207-1.195 0.263-0.778-0.071-1.858-0.33-1.934-2.619-0.769-7.313-1.02-7.434-0.877-0.228 0.274 2.549 3.2 5.348 4.08l-0.983 0.289c-1.884-0.775-5.109-3.67-4.759-4.6 0.187-0.503 5.545-0.196 7.964 0.514 0.61 0.178 1.055 1.692 0.686 2.644" fill="#0d131a"/>
  </g>
  <g transform="matrix(1.744 0 0 -1.744 132.14 241.42)">
   <path d="m 0,0 -0.146,-0.567 c 0.304,0.099 0.648,0.223 0.988,0.365 l 0.424,0.76 C 0.842,0.317 0.4,0.14 0,0" fill="#0d131a"/>
  </g>
  <g transform="matrix(1.744 0 0 -1.744 133.26 162.43)">
   <path d="m0 0c-6.814 3.093-19.986 3.009-27.51-0.175-9.133-3.865-15.299-11.672-16.553-17.329l0.717 0.355c1.385 5.501 7.231 12.453 16.067 16.193 7.439 3.148 20.308 3.234 27.037 0.178 7.48-3.393 11.924-9.213 13.611-18.231l0.627-0.394c-1.654 9.369-6.279 15.902-13.996 19.403" fill="#0d131a"/>
  </g>
  <g transform="matrix(1.744 0 0 -1.744 185.9 181.68)">
   <path d="m0 0c-7.691 7.416-19.846 10.525-28.291 9.889l0.965-0.846c8.258 0.434 19.756-2.602 26.82-9.412 8-7.714 9.824-25.358 0.574-31.643-0.929-0.629-2.004-0.584-1.798 0.324 1.953 8.665-2.194 16.061-10.862 19.409l0.541-1.143c8.147-3.342 11.623-9.896 9.752-18.193-0.26-1.156 1.004-2.035 2.625-0.948 9.635 6.461 7.824 24.705-0.326 32.563" fill="#0d131a"/>
  </g>
  <g transform="matrix(1.744 0 0 -1.744 187.59 187.04)">
   <path d="m0 0c-6.166 0.938-10.959-7.41-10.133-11.271l0.496-0.297c-1.062 3.257 3.494 12.167 9.637 11.234 1.016-0.152 0.859 0.203 0 0.334" fill="#0d131a"/>
  </g>
  <g transform="matrix(1.744 0 0 -1.744 187.37 208.97)">
   <path d="m0 0c-2.445-0.401-4.078-2.17-4.479-3.854l0.323-0.496c0.166 1.762 2.068 3.481 4.26 3.842 2.167 0.357 4.683-0.332 5.55-2.361v0.842c-1.164 1.705-3.576 2.369-5.654 2.027" fill="#0d131a"/>
  </g>
  <g transform="matrix(1.744 0 0 -1.744 185.99 189.62)">
   <path d="m0 0c1.482-2.646 3.203-7.396 3.576-11.344l0.541-0.148c-0.334 3.568-1.955 8.65-3.787 11.598-0.428 0.689-0.85 0.826-0.33-0.106" fill="#0d131a"/>
  </g>
  <g transform="matrix(1.744 0 0 -1.744 164.57 172.04)">
   <path d="m0 0c-3.533-2.36-5.344-8.215-4.148-13.883l0.482-0.317c-1.252 5.172 0.457 11.586 4.049 14.033 0.926 0.632 0.533 0.777-0.383 0.167" fill="#0d131a"/>
  </g>
  <g transform="matrix(1.744 0 0 -1.744 157.51 195.84)">
   <path d="m0 0 0.504-0.548c2.557-0.707 5.537-1.942 6.891-3.054l0.111 0.569c-1.652 1.258-5.049 2.395-7.506 3.033" fill="#0d131a"/>
  </g>
  <g transform="matrix(1.744 0 0 -1.744 141.55 167.93)">
   <path d="m0 0 0.6-0.506c3.035-0.016 7.828-0.812 10.877-1.861 0.859-0.294 1.087-0.077 0.201 0.271-3.162 1.241-8.608 2.166-11.678 2.096" fill="#0d131a"/>
  </g>
  <g transform="matrix(1.744 0 0 -1.744 133.45 163.51)">
   <path d="m0 0c-2.01-4.758-24.229-5.787-27.471-0.061l-0.365-0.174c3.518-6.331 25.912-5.13 28.197 0.04z" fill="#0d131a"/>
  </g>
  <g transform="matrix(1.744 0 0 -1.744 108.11 195.97)">
   <path d="m0 0c-2.273-0.071-4.861 0.063-7.443 0.376l0.66-0.58c2.459-0.27 4.439-0.375 6.822-0.301 10.701 0.336 22.453 3.1 24.878 9.651l-0.269 0.491c-2.064-6.602-13.9-9.299-24.648-9.637" fill="#0d131a"/>
  </g>
  <g transform="matrix(1.744 0 0 -1.744 63.403 180.26)">
   <path d="m0 0-0.283-0.399c0.668-1.699 2.035-3.226 4.263-4.544l0.958 0.047c-2.602 1.412-4.301 3.034-4.938 4.896" fill="#0d131a"/>
  </g>
  <g transform="matrix(1.744 0 0 -1.744 129.85 220.7)">
   <path d="m0 0c-2.432-0.733-8.383-1.4-11.465-1.479l6e-3 -0.403c3.168 0.017 8.805 0.566 11.393 1.29z" fill="#0d131a"/>
  </g>
  <g transform="matrix(1.744 0 0 -1.744 115.46 198.82)">
   <path d="m0 0c0.492-3.846 1.082-11.092 1.125-13.857l0.547 0.051c-0.055 2.828-0.734 9.999-1.315 13.822-0.125 0.82-0.462 0.803-0.357-0.016" fill="#0d131a"/>
  </g>
  <g transform="matrix(1.744 0 0 -1.744 147.64 188.42)">
   <path d="m0 0c0.561-1.028 0.902-2.157 0.99-3.083l0.512 0.031c-0.221 1.153-0.576 2.158-1.199 3.164-0.459 0.744-0.699 0.619-0.303-0.112" fill="#0d131a"/>
  </g>
  <g transform="matrix(1.744 0 0 -1.744 121.64 172.86)">
   <path d="m0 0c1.582-3.145 3.502-8.316 4.252-11.973l0.465 0.16c-0.75 3.647-2.717 8.739-4.397 11.937-0.492 0.938-0.761 0.751-0.32-0.124" fill="#0d131a"/>
  </g>
  <g transform="matrix(1.744 0 0 -1.744 90.813 171.23)">
   <path d="m0 0c-1.391-2.497-2.936-8.011-3.373-11.219l0.594-0.175c0.697 5.303 2.142 9.153 3.129 11.275 0.466 1.01 0.179 1.069-0.35 0.119" fill="#0d131a"/>
  </g>
  <g transform="matrix(1.744 0 0 -1.744 73.397 189.08)">
   <path d="m0 0c-0.635-0.954-1.436-2.33-1.836-3.399l0.516-0.03c0.427 1.097 1.177 2.523 1.797 3.414z" fill="#0d131a"/>
  </g>
  <g transform="matrix(1.744 0 0 -1.744 48.248 245.2)">
   <path d="m0 0c-1.129 0.375-3.469 2.167-4.125 6.109-0.521 3.119 0.42 6.157 1.809 6.524 1.275 0.339 2.845-3.244 3.134-5.555 0.127-1.015 0.19-5.342-0.105-6.718-0.096-0.446-0.322-0.489-0.713-0.36" fill="#0d131a"/>
  </g>
  <g transform="matrix(1.744 0 0 -1.744 44.088 224.49)">
   <path d="m0 0c-0.654-0.311-0.988-1.685-0.607-3.012 0.449-1.583 1.783-2.504 2.486-2.152 0.623 0.312 0.551 1.787 0.069 3.119-0.481 1.334-1.309 2.346-1.948 2.045" fill="#fff"/>
  </g>
  <g transform="matrix(1.744 0 0 -1.744 42.536 234.5)">
   <path d="m0 0c-0.803-0.396 0.592-3.848 1.365-3.452 0.338 0.173 0.252 1.692-0.08 2.444-0.404 0.913-0.867 1.216-1.285 1.008" fill="#004898"/>
  </g>
  <g transform="matrix(1.744 0 0 -1.744 80.7 245.42)">
   <path d="M 0,0 C -2.232,1.208 -0.428,13.446 3.893,12.936 6.213,12.661 7.211,7.065 6.375,4.514 5.18,0.854 0.977,-0.528 0,0" fill="#0d131a"/>
  </g>
  <g transform="matrix(1.744 0 0 -1.744 81.82 234.47)">
   <path d="M 0,0 C 1.041,-0.64 2.422,0.157 3.436,1.813 4.252,3.146 4.49,5.298 3.473,5.809 1.328,6.88 -1.174,0.723 0,0" fill="#fff"/>
  </g>
  <g transform="matrix(1.744 0 0 -1.744 84.494 243.52)">
   <path d="M 0,0 C 0.646,-0.505 4.303,2.922 3.379,3.932 2.131,5.297 -0.877,0.684 0,0" fill="#004898"/>
  </g>
  <g transform="matrix(1.744 0 0 -1.744 113.84 200.58)">
   <path d="m0 0c-0.473 1.66-7.377 0.652-8.764 0.316-0.531-0.128-0.359-6.556 2.582-10.142 0.314 0.172 0.948 0.488 1.09 0.545 0.719 1.319 1.951 3.771 2.483 3.687 0.296-0.048-0.153-1.64-0.52-2.679l0.363-0.085c1.961 2.26 3.053 7.358 2.766 8.358" fill="#fff"/>
  </g>
  <g transform="matrix(1.744 0 0 -1.744 111.76 201.53)">
   <path d="m0 0c-1.199-0.49-4.533-6.133-5.023-9.241 0.011-0.013 0.021-0.028 0.031-0.04 0.314 0.172 0.947 0.488 1.09 0.545 0.718 1.319 1.951 3.771 2.482 3.687 0.293-0.047-0.144-1.617-0.51-2.656l0.389-0.065c1.738 2.045 2.781 6.299 2.775 7.879-0.338 0.101-0.765 0.082-1.234-0.109" fill="#a0d2f2"/>
  </g>
  <g transform="matrix(1.744 0 0 -1.744 109.29 210.33)">
   <path d="m0 0c-0.367 0.059-1.064-1.088-1.699-2.238l1.207-0.367c0.361 1.038 0.781 2.558 0.492 2.605" fill="#0d131a"/>
  </g>
  <g transform="matrix(1.744 0 0 -1.744 105.96 209.67)">
   <path d="m0 0c-1.785 0.893-3.924 3.711-4.156 5.552-0.032-7e-3 -0.063-0.015-0.09-0.021-0.531-0.129-0.359-6.556 2.582-10.142-0.01 0.012-0.02 0.027-0.031 0.04 0.201 1.273 0.881 2.974 1.695 4.571" fill="#d3edfb"/>
  </g>
  <g transform="matrix(1.744 0 0 -1.744 135.4 247.25)">
   <path d="M 0,0 C -0.211,0.24 1.932,1.902 3.283,2.574 4.313,3.088 5.211,2.229 4.096,1.58 3.637,1.313 0.24,-0.275 0,0" fill="#f7f8f8"/>
  </g>
  <g transform="matrix(1.744 0 0 -1.744 132.88 245.49)">
   <path d="M 0,0 C 0.199,-0.04 1.535,1.882 2.107,2.38 2.68,2.876 1.957,3.344 1.4,2.681 0.842,2.018 -0.227,0.046 0,0" fill="#f7f8f8"/>
  </g>
  <g transform="matrix(1.744 0 0 -1.744 114.24 200.28)">
   <path d="m0 0c-0.453 1.588-6.684 1.064-8.975 0.486-0.295-0.076-0.441-0.214-0.476-0.537-0.315-2.976 0.762-7.335 2.613-9.972 0.205-0.293 0.443-0.256 0.611-0.178 0.229 0.109 0.594 0.358 0.844 0.49 0.199 0.107 0.35 0.305 0.422 0.451 0.871 1.735 1.75 3.281 1.992 3.194 0.131-0.048-0.22-1.268-0.543-2.219l0.326-0.205c0.485 1.44 0.819 3.002 0.444 3.062-0.498 0.074-1.613-1.812-2.588-3.627-0.082-0.155-0.125-0.187-0.328-0.289-0.205-0.103-0.496-0.232-0.746-0.337-2.43 3.267-2.815 9.295-2.41 9.566 0.382 0.256 7.953 1.363 8.376-0.114 0.266-0.932-0.75-5.612-2.464-7.927-0.112-0.149-0.203-0.242-0.358-0.115-0.289 0.238-0.699 0.398-1.09 0.413l-0.195-0.355c0.504-0.043 0.883-0.388 1.369-0.761 0.108-0.081 0.299-0.012 0.363 0.07 1.959 2.494 3.118 7.84 2.813 8.904" fill="#0d131a"/>
  </g>
  <g transform="matrix(1.744 0 0 -1.744 111.63 201.14)">
   <path d="m0 0c-1.43-0.916-4.383-5.762-5.15-9.268l0.429-0.194c0.483 3.067 3.848 8.359 4.873 9.052 0.522 0.351 0.907 0.264 0.993-0.289l0.173 0.443c-0.248 0.735-0.724 0.636-1.318 0.256" fill="#0d131a"/>
  </g>
 </g>
</svg>
