<?xml version="1.0" encoding="UTF-8"?>
<!-- Generator: Adobe Illustrator 20.0.0, SVG Export Plug-In . SVG Version: 6.00 Build 0)  -->
<svg version="1.1" viewBox="0 0 395.8 349.19" xml:space="preserve" xmlns="http://www.w3.org/2000/svg" xmlns:cc="http://creativecommons.org/ns#" xmlns:dc="http://purl.org/dc/elements/1.1/" xmlns:rdf="http://www.w3.org/1999/02/22-rdf-syntax-ns#"><metadata><rdf:RDF><cc:Work rdf:about=""><dc:format>image/svg+xml</dc:format><dc:type rdf:resource="http://purl.org/dc/dcmitype/StillImage"/></cc:Work></rdf:RDF></metadata><style type="text/css">
	.st0{fill:#FFFFFF;}
	.st1{fill:#C7EAFB;}
	.st2{fill:#E6E7E7;}
	.st3{fill:#FDF6B0;}
	.st4{fill:#91CDEF;}
	.st5{fill:#D4CE92;}
	.st6{fill:#F2F2F2;}
	.st7{fill:#BDBEC0;}
	.st8{fill:#0C1B23;}
	.st9{fill:#02539C;}
</style><g fill="#fff"><path class="st0" d="m201.7 43.04c62.9 21.5 98.9 75.2 102.4 128.9 5.4 81.3-37.2 118.1-90.9 121.6-83.2 5.4-133.1-29.5-123.5-91.3 1.2-7.7 1.2-13.8 0.8-20.3l111.2-138.9z"/><path class="st0" d="m69.4 166.94c3.1 2.3 4.2 3.1 6.5 5.4 13.8 14.2 29.1 13.4 37.2 3.8 7.3-8.4 11.5-12.3 19.2-15 36.4-13.8 67.9-38 70.2-73.6 3.5-52.2-34.9-84.4-90.1-85.9-56.8-1.5-93.2 39.5-92.4 77.9 0.7 46 14.5 65.9 49.4 87.4"/><path class="st0" d="m37.2 33.04c-15 0.8-29.9 4.2-31.4 6.9-1.5 3.1 5 29.5 14.2 43.3-1.6-17.6 6-37.5 17.2-50.2"/><path class="st0" d="m90.5 186.14c-13.8-6.5-32.2-4.6-53.7 2.3-16.9 5.4-27.2 1.9-31.8-8.4-6.9-15.3 3.1-35.7 29.9-43.3 5 9.6 24.2 24.9 34.5 30.7 2.7 1.2 4.6 2.7 6.5 5 3.5 3.8 8.8 8.4 14.6 9.6v4.1"/></g><path class="st1" d="m146.1 286.94c-41.4-12.6-62.9-42.1-56.4-84.7 0-1.5 0.4-3.1 0.4-4.6-19.9 8.4-28.8 29.5-24.5 53.7 2.7 16.1 14.2 28 28.4 34.5-3.8 3.8-8.4 7.7-13.8 12.3l30.3 16.5c8.8-2.3 18-5.4 27.6-10.7 7.3-3.5 8.1-8.4 3.8-15.3 1.5-0.5 2.6-0.9 4.2-1.7" fill="#c7eafb"/><path class="st0" d="m304.9 184.94c33.4-5.8 69.4-29.9 82.8-49.5 3.1-4.2 4.2-3.8 5.4 1.2 10 50.2-32.2 126.6-117 143.1 3.1-5.8 5-12.3 6.1-19.2 15.4-19.6 22.7-47.2 22.7-75.6" fill="#fff"/><path class="st2" d="m18.7 190.74c-3.8 2.3-9.6 4.2-10.4 3.5-0.8-0.4-0.4-4.2 1.2-7.7 1.6 1.9 5 3.8 9.2 4.2" fill="#e6e7e7"/><path class="st3" d="m114.6 174.24c5-6.1 10.4-10.7 18.8-13.8 9.2-3.1 24.2-10 35.7-18.8 13.4 6.9 34.5 36.1 39.9 57.9-32.6 10.7-41 64.8-6.5 94.3-76.8 1.6-122-32.6-112.8-91.6 1.2-7.7 1.2-13.8 0.8-20.3 6.5 3 16.8 1.9 24.1-7.7" fill="#fdf6b0"/><path class="st3" d="m141.9 156.94c-3.1 1.5-6.1 2.7-9.6 4.2-7.7 2.7-11.9 6.5-19.2 15-8.1 9.6-23.4 10.4-37.2-3.8-2.3-2.3-3.5-3.1-6.5-5.4-13-8.1-23-15.7-30.3-24.5 0-1.5 0.4-2.7 0.8-3.8l20.3-0.8c10.4 13.4 21.9 18.8 28.8 18.4 8.8-0.8 18.4-8.1 28.4-22.6l28.8-6.5c3.3 9.1 1.4 21.8-4.3 29.8" fill="#fdf6b0"/><g fill="#c7eafb"><path class="st1" d="m157.6 149.34c11.9-36.1-10.4-73.3-57.1-76.3-38-2.3-70.6 19.6-70.6 55.6 1.2 3.5 5.4 9.2 8.8 13.4 1.5-7.7 4.6-16.1 9.6-23.8 10-15.7 29.5-22.6 51-21.5 39.1 1.9 59.4 35.3 42.2 60.6 6.1-2.7 11.9-5.7 16.1-8"/><path class="st1" d="m59.4 134.74c16.5 12.3 31.4 12.3 43.3 2.7 4.6-3.8 9.2-6.9 13.8-10-0.4 2.3-0.4 5 0 7.3-11.8 15.7-19.9 21.5-28.3 21.5-10 0-21.1-8.8-28-18.8l-0.8-2.7z"/><path class="st1" d="m201.7 74.54c-1.2 18-21.5 34.9-43 40.3 3.1 10 2.7 25.3-1.2 34.5 35-19.2 49.2-49.9 44.2-74.8"/><path class="st1" d="m4.2 163.44c-1.5 5.4 5.8 10.4 11.9 1.9 6.9-9.6 16.1-15 27.6-17.6 8.1 8.4 19.2 15 25.7 19.6 2.7 1.5 5 3.1 6.5 5 3.1 3.5 9.6 8.4 15 10l-0.4 3.8c-13.8-6.1-33-5-52.2 1.9-26.8 9.6-39.9-6.1-34.1-24.6"/></g><path class="st4" d="m146.1 286.94c-12.3-3.8-23-8.8-32.2-15.7-20.7 3.5-42.6-3.1-47.9-20.7 1.1 29.5 45.2 51 80.1 36.4" fill="#91cdef"/><path class="st2" d="m105.8 301.14c-5.4-3.8-11.5-3.1-15-1.2-0.4-4.2-5-6.1-8.8-3.5-9.6 6.1-13.4 17.6-12.3 18.8 0.8 0.8 4.6 0.8 10-1.2-1.2 2.7-1.9 5-1.5 5.4 1.9 1.9 29.5-2.3 32.6-6.1 1.5-1.8 0-8.7-5-12.2" fill="#e6e7e7"/><path class="st1" d="m5.7 40.04c5 3.8 13.4 10.7 18.4 15.7-3.1 9.2-4.2 17.6-4.6 26.5-8.8-10-14.6-39.6-13.8-42.2" fill="#c7eafb"/><path class="st1" d="m209 199.54c-4.6-20.3-23-46.4-39.9-57.9 19.9-14.2 34.1-33.4 34.1-60.6 52.2 25.7 95.1 73.3 91.3 158.4-1.9 5.4-5.8 12.7-12.3 21.1l-73.2-61z" fill="#c7eafb"/><path class="st4" d="m203.2 87.14c13 6.1 24.5 13.8 36.1 24.5-6.9 0-16.1 1.5-21.1 3.1-5.4-5-11.9-9.6-18.4-12.3 1.5-4.2 2.3-8.8 3.4-15.3" fill="#91cdef"/><path class="st4" d="m281.5 177.34c5 21.5-1.2 33-9.2 36.4 9.6 15.3 11.5 28 10 46.8 3.5-5.4 6.1-9.6 9.2-15.7 2.3-21.1-0.8-51-7.3-68.3l-2.7 0.8z" fill="#91cdef"/><path class="st1" d="m300.2 222.94c49.9-6.5 88.2-44.9 90.9-90.1 1.2 0.4 2.7 3.5 3.1 8.4 5.8 76.7-65.2 129.2-117.7 138.1 2.7-6.9 4.6-11.9 5.8-18.8 8-11.1 14.5-24.6 17.9-37.6" fill="#c7eafb"/><g fill="#91cdef"><path class="st4" d="m298.7 227.54c54.1-8.1 90.1-42.2 94.3-90.9 0.8 3.1 1.2 6.5 1.2 9.6-3.5 50.2-48.7 94.7-102.4 99.7 2.3-4.6 5-11.5 6.9-18.4"/><path class="st4" d="m3 171.14c3.1 7.3 16.1 10 33.7 4.2 11.1-3.8 23.4-6.1 34.9-6.9 1.5 1.2 3.5 3.1 5.8 5 3.5 3.5 7.7 6.9 13 8.4v4.2c-13.4-6.5-34.9-3.8-51.4 1.5-21.4 7.4-34.1 2.8-36-16.4"/><path class="st4" d="m130 291.54c1.5 6.1-5 11.5-19.6 15 0.8 1.5 0.8 6.5 0.8 7.7 31.1-10.4 37.6-13 31.1-25.7-4.3 1.1-9.6 2.7-12.3 3"/><path class="st4" d="m200.9 98.64c-6.1 22.6-26.5 45.3-57.9 57.5 2.7-6.1 4.6-14.2 4.6-17.6 19.9-7.3 44.1-21.5 54.5-48.3l-1.2 8.4z"/></g><g fill="#fff"><path class="st0" d="m288.4 207.64c-0.4-1.9-1.5-3.1-3.5-2.7-1.5 0.4-1.9 2.7-1.2 4.6 2.3 6.9 3.1 12.3 4.2 19.9 0.4 1.9 1.2 2.3 1.5 0 0.9-6.1 0.1-14.6-1-21.8"/><path class="st0" d="m352.8 216.44c-3.5 4.2 0 6.9 3.5 5 5.4-3.1 11.5-11.1 15.7-18 0.8-1.5 0.8-1.9-1.2-1.2-6.9 3.8-14.9 10-18 14.2"/><path class="st0" d="m97.8 252.44c-6.9 5-16.5 5.8-24.2 1.2-4.2-2.7-7.3-6.5-9.2-11.1-0.4-5.8 1.2-15.3 2.7-20.3 5-6.9 13.4-10 21.5-8.8-0.8 12.9 2.6 30.2 9.2 39"/></g><path class="st5" d="m89.3 202.64c-1.2 42.2 59.8 67.1 93.2 58.7 2.7 10.7 8.4 23 19.2 32.2-76 1.9-120.4-31.9-112.4-90.9" fill="#d4ce92"/><path class="st5" d="m74.7 170.04c10.4 10 27.2 13.8 39.9 0.4 3.5-3.8 10-8.1 17.6-10.7-6.5 3.5-13 8.8-17.6 15-11.1 14.8-31.4 8.7-39.9-4.7" fill="#d4ce92"/><path class="st6" d="m11.1 188.44c-1.2 1.2-1.5 3.1-1.5 3.1 0.4 0.4 1.5-0.8 2.7-2.3l-1.2-0.8z" fill="#f2f2f2"/><g fill="#bdbec0"><path class="st7" d="m14.9 189.94c-1.2 1.5-2.7 2.7-4.6 3.8 1.5 0 5.8-1.2 7.7-2.7l-3.1-1.1z"/><path class="st7" d="m78.6 319.54c19.9-3.1 32.2-9.2 27.2-17.6 5 3.5 6.5 9.6 4.6 11.5-1.9 3.1-23.8 7.7-31.8 6.1"/><path class="st7" d="m69.8 314.94c4.2-0.8 9.2-2.3 12.3-5.4-1.2 1.9-1.5 3.5-1.9 4.6-3.2 1.2-9.3 2.4-10.4 0.8"/></g><g fill="#0c1b23"><path class="st8" d="m21 79.54c0.8 41.8 11.9 63.7 48.7 86.7 3.5 1.9 4.6 3.1 6.9 5.4 13.4 13.4 27.6 13 35.7 3.8 6.9-8.1 11.5-12.3 19.6-15.3 35.7-13.4 66.7-36.8 69.4-72.5 3.1-48.3-31.1-82.8-89-84.8-56.4-1.6-92 39.5-91.3 76.7m54.1 93.5c-2.3-2.3-3.1-3.1-6.5-5-38.4-23.8-49.1-43-50.2-88.6-0.8-39.5 37.2-80.9 94.3-79.4 55.2 1.5 94.7 34.1 90.9 87.8-2.3 36.1-34.1 60.2-71 74-7.7 3.1-11.9 6.9-18.8 15-8.8 10.4-24.9 10.4-38.7-3.8"/><path class="st8" d="m179.1 133.54c10-45.6-15.7-89-69-96.6-47.6-6.5-83.2 17.6-89.7 49.5l-0.8-5.8c8.1-28 42.2-52.5 90.9-45.6 54.1 7.3 80.5 51.4 71 96.6l-2.4 1.9z"/><path class="st8" d="m29.1 127.44c0.4-36.1 33.4-57.9 71.3-55.6 46 2.7 70.2 39.5 58.3 76.7l-1.9 1.2c11.9-37.2-11.9-72.9-56.4-75.6-36.1-2.3-70.2 18.4-69.8 56l-1.5-2.7z"/><path class="st8" d="m139.9 158.14c18.4-26.1-3.5-58.7-40.7-60.6-21.5-1.2-41.4 6.5-50.2 21.1l-1.5-1.2c8.8-15 28.8-23 51.8-21.9 40.7 2.3 59.8 36.4 43.7 61l-3.1 1.6z"/><path class="st8" d="m40.2 140.14v3.8l-1.9-2.3c0-1.5 0-3.1 0.4-4.6l1.5 3.1z"/><path class="st8" d="m116.5 124.74c-17.3-6.9-44.5-5-57.9 8.4l-0.8-1.9c13.4-13.8 41-16.1 59.1-8.4l-0.4 1.9z"/><path class="st8" d="m116.2 136.64c-8.4 13-18.4 19.9-26.8 20.7-6.5 0.4-18-3.8-28.4-17.3l-0.4-3.1c11.1 14.2 21.9 18.4 28.4 18 8.4-0.4 17.6-8.1 26.8-21.1l0.4 2.8z"/><path class="st8" d="m80.5 121.34c-1.5-6.1-3.5-14.6-5-22.2l1.9-0.4c1.2 7.3 3.5 16.1 5 22.2l-1.9 0.4z"/><path class="st8" d="m53.6 110.94c-5-6.1-8.4-11.9-11.5-16.9-3.8-10.4-6.5-24.9-6.1-38l1.5-1.2c0 12.7 2.3 28 6.5 38.4 2.7 5 6.1 10.4 11.1 16.5l-1.5 1.2z"/><path class="st8" d="m130 40.74c-4.6 10.4-11.1 27.6-13 34.9-1.5 7.3-3.1 17.3-4.2 23l-1.5-0.4c0.8-6.1 2.3-16.1 4.2-23 1.9-8.8 8.8-25.3 13-34.9l1.5 0.4z"/><path class="st8" d="m81.6 5.4396c-5.4 9.2-8.8 21.5-9.6 31.8l-1.5 0.4c0.4-10.4 3.5-22.2 8.8-31.8l2.3-0.4z"/><path class="st8" d="m20.3 86.44c-10-13.8-17.3-43.3-15.3-46.8 1.5-3.5 19.2-7.3 33.7-7.7l-2.3 2.3c-14.6 0.8-28.8 3.8-29.5 6.1-1.5 2.7 4.6 27.6 13 41.4l0.4 4.7z"/><path class="st8" d="m90.5 187.64c-12.7-6.1-29.1-6.1-53.3 1.9-17.6 5.8-28.4 1.9-33.4-8.8-7.3-16.5 3.5-37.2 30.3-45.3l1.2 2.3c-27.6 8.1-35.7 28.4-29.1 41.8 4.2 9.6 13.8 13 30.3 7.7 24.5-7.7 41.8-8.1 54.1-2.3v2.7h-0.1z"/><path class="st8" d="m55.2 183.84c0-15-5.8-26.1-16.1-33-2.7-1.9-2.3-2.7 0.4-1.2 11.1 6.5 17.3 18.8 17.6 33.7l-1.9 0.5z"/><path class="st8" d="m17.2 145.04c4.2-0.8 8.1-0.4 12.3 0.8 3.5 0.8 3.1 1.9-0.4 1.2-4.6-0.8-9.2-0.8-14.6 0l2.7-2z"/><path class="st8" d="m80.1 176.14c-9.2-1.5-18.8-1.2-24.5-0.8l-0.4-1.5c6.5-0.8 15-0.8 22.6 0l2.3 2.3z"/><path class="st8" d="m80.5 183.04c0.4-1.9 0.8-4.2 1.2-5.8l1.5 1.2c0 1.2-0.4 3.1-0.8 5l-1.9-0.4z"/><path class="st8" d="m20.3 190.74c-3.8 2.7-10.7 5.4-12.3 4.2-1.2-0.8-0.8-5.4 0.8-9.2l1.5 1.2c-1.5 3.5-1.9 6.5-1.5 6.9s5-0.8 8.8-3.5l2.7 0.4z"/><path class="st8" d="m201.7 41.94c61.7 19.2 100.1 72.5 103.9 130 5 81.7-36.8 119.3-92.4 122.7-87.8 5.8-134.2-32.2-124.6-92.4 1.2-7.7 1.2-13.4 0.8-20.7l1.9 0.8c0.8 6.9 0.8 13-0.4 20.3-9.2 58.7 38 94.7 122.3 89.4 55.2-3.5 94.7-42.2 89.7-120-3.5-53.3-39.9-105.9-101.2-127.3v-2.8z"/><path class="st8" d="m207.8 199.94c-6.9-22.6-23-46.4-39.5-57.5l1.9-1.5c17.3 11.5 33 34.5 40.3 58.3l-2.7 0.7z"/><path class="st8" d="m147.6 287.74c-6.9 2.7-15 4.6-22.6 4.6-3.5 0-3.5-1.2 0-1.5 8.1-0.4 13.8-1.9 19.6-4.2l3 1.1z"/><path class="st8" d="m90.1 198.74c-17.3 7.7-28 25.7-23.4 52.5 3.5 18 17.6 31.8 39.5 37.6 3.8 1.2 3.8 2.7-0.4 1.5-21.9-4.6-38.7-19.9-42.2-38.7-4.2-23.4 4.2-46.4 26.8-55.2l-0.3 2.3z"/><path class="st8" d="m90.5 235.24c-7.7 1.2-18.4 0-25.3-3.8v-1.5c6.5 3.1 16.5 5 24.9 3.5l0.4 1.8z"/><path class="st8" d="m115.4 272.44c-15.7 1.9-30.7 0-39.9-5.4-3.5-1.9-2.7-2.7 0.4-1.2 9.6 5 23 6.5 38 5l1.5 1.6z"/><path class="st8" d="m85.5 270.14c-8.1-10.7-11.5-26.5-10-36.1h1.9c-1.5 10.4 2.3 26.5 10.7 36.8l-2.6-0.7z"/><path class="st8" d="m79 318.84c1.2 1.2 27.6-1.9 30.7-6.1 1.2-1.2 0.8-6.9-4.6-10.7-4.6-3.5-11.1-3.1-14.2-0.4-8.5 7.2-12.3 17.2-11.9 17.2m-1.6 1.1c-1.5-1.5 5-14.2 11.9-20.3 3.5-3.1 11.1-3.8 16.9 0.4s7.7 11.5 5.4 14.2c-3.5 4.2-31.9 8.4-34.2 5.7"/><path class="st8" d="m79.3 315.34c-5 1.5-9.6 1.5-10.4 0.4-1.5-1.5 2.3-13.8 12.3-20.3 4.2-2.7 10-0.4 10.7 3.8l-1.9 1.5c-0.4-3.8-4.2-5.4-7.3-3.5-10.4 6.9-12.7 16.9-12.7 17.3 0.4 0.4 5 0.8 10.4-1.5l-1.1 2.3z"/><path class="st8" d="m79 297.34c5.4-4.6 10-8.4 13.8-12.3l2.3 1.2c-3.5 3.1-6.1 5.8-10.4 9.2l-5.7 1.9z"/><path class="st8" d="m143 288.54c4.6 7.3 3.8 12.7-3.8 16.9-10 5-20.7 8.4-32.2 10.7l3.8-2.7c9.6-2.7 17.6-5.8 26.8-10.4 6.1-3.5 7.3-7.7 3.1-14.2l2.3-0.3z"/><path class="st8" d="m243.5 177.64c1.9 5 3.5 9.6 5 16.1 0.8 4.6 0 4.6-1.2 0.4-1.9-6.5-3.5-11.1-5.4-16.1l1.6-0.4z"/><path class="st8" d="m200.9 63.74c21.9 9.6 46.4 28.8 58.7 42.6 2.7 3.5 1.9 4.2-1.2 0.8-12.3-13-35.3-30.7-56.8-40.7l-0.7-2.7z"/><path class="st8" d="m230.4 82.14c2.7-8.1 3.1-15.7 2.7-24.5l1.9 1.2c0.4 8.4-0.4 16.1-3.1 24.2l-1.5-0.9z"/><path class="st8" d="m202.8 122.44c-3.1-2.3-5.4-4.6-8.8-7.3l0.8-1.5c4.2 2.3 6.9 5 9.6 7.7l-1.6 1.1z"/><path class="st8" d="m289.9 248.64c8.4-22.6 9.2-48.7 3.1-74.8l1.9-0.4c5.8 23.8 5.8 46.4-0.4 67.1l-4.6 8.1z"/><path class="st8" d="m280.7 232.14c8.4-10.7 14.2-27.6 15.3-46.8l1.2 6.5c-1.9 17.6-7.7 32.6-15.7 42.6l-0.8-2.3z"/><path class="st8" d="m304.9 183.04c33-5.8 68.6-29.1 82.1-47.9 3.5-5 6.1-4.2 7.3 1.5 10.4 51.8-33.7 129.6-118.9 145l1.5-3.1c83.6-17.6 125-92.8 115.1-141.5-0.8-3.8-1.2-4.2-3.5-0.8-13.4 19.6-49.9 44.5-84 49.9l0.4-3.1z"/><path class="st8" d="m386.2 191.14c1.2-13-4.2-23-15-30.3-3.1-1.9-2.3-2.7 0.4-1.2 10.7 6.1 16.9 15.7 16.9 27.2l-2.3 4.3z"/><path class="st8" d="m311.4 196.04c11.9-3.5 21.1-6.9 29.9-11.5 3.1-1.5 3.5-0.8 0.4 1.2-8.1 4.6-18 8.4-30.3 11.9-3.9 1.1-3.9-0.4 0-1.6"/><path class="st8" d="m359.3 220.64c8.8-6.1 16.1-13.4 24.2-23l-1.9 5.4c-6.5 7.3-13.4 13.4-22.6 19.9l0.3-2.3z"/><path class="st8" d="m307.5 270.14c6.9-10.7 10.7-23 10.4-36.1 0-4.6 1.2-4.6 1.5 0 0.4 12.7-2.3 24.5-9.2 34.9l-2.7 1.2z"/><path class="st8" d="m304.5 195.74c6.1 7.7 10.7 16.5 13 25.7 0.8 3.8 0 4.2-1.2 0.4-2.7-8.8-6.5-16.1-12.3-23l0.5-3.1z"/><path class="st8" d="m288.7 250.94c9.6-2.3 20.7-5.8 29.9-9.6l-0.4 1.9c-9.6 4.2-20.7 7.7-31.1 10l1.6-2.3z"/><path class="st8" d="m352.8 240.54c6.5-11.5 7.7-27.2 3.1-41-0.8-3.5 0-3.8 1.2-0.4 4.6 12.7 4.2 26.8-0.8 38.4l-3.5 3z"/><path class="st8" d="m352 190.74c-2.3-3.5-4.2-6.1-7.3-8.8-2.7-2.3-1.9-3.5 0.8-1.2 3.1 2.7 5.4 5.4 7.7 9.6 1.5 2.7 0.4 3.1-1.2 0.4"/></g><path class="st1" d="m256.1 176.94c-7.7-0.8-10.7-0.4-16.5 2.3-23.4 10-38 6.1-47.6-9.2-15.7-25.3 4.2-57.9 47.2-58.3 39.9-0.8 63.7 20.3 63.7 39.9-0.3 21.8-16.8 29.1-46.8 25.3" fill="#c7eafb"/><path class="st4" d="m190.2 137.84c-1.5 11.9 6.1 32.2 33.4 27.6 13.4-1.9 22.2-0.8 37.6 4.2 17.6 5.8 35.3-1.2 41.4-13-1.5 20.3-26.1 23.8-46 19.9-5.4-0.8-10-0.8-13.8 1.2-16.1 7.7-33.4 9.2-41 2.7-13.9-10.8-18.5-26.5-11.6-42.6" fill="#91cdef"/><path class="st0" d="m269.6 131.24c0.8 11.1-12.3 19.9-32.2 21.9-21.1 2.3-36.4-3.8-37.2-15-0.8-9.6 11.9-21.1 33.4-23.4 20.2-1.5 34.8 6.6 36 16.5" fill="#fff"/><path class="st1" d="m283 250.54c0-21.9-8.4-37.2-19.9-46.4-12.7-10-34.9-10.7-49.9-6.1-22.2 6.9-33 25.3-32.6 47.6 0.4 26.5 13.8 44.1 29.1 53.3-4.6 5.8-6.5 13.4-6.5 20.3l39.1 15.3c9.2-6.1 18-13 24.5-20.3 6.5-6.9 7.3-15.7 0.8-22.6 9.3-10 15-24.2 15.4-41.1" fill="#c7eafb"/><path class="st8" d="m60.2 148.94c2.3-1.9 3.1-8.8-4.2-22.2-5.8-10.4-12.3-13-15-11.5-5.4 2.3-6.5 16.1-1.9 23.8 6.9 12.2 17.6 12.6 21.1 9.9" fill="#0c1b23"/><path class="st8" d="m117.7 141.24c3.8 2.3 20.7 0.4 27.6-10.7 5.4-9.2 3.8-24.5-5-28.4-7.3-3.5-16.1 0-21.1 11.5-4.6 10.3-4.2 25.7-1.5 27.6" fill="#0c1b23"/><path class="st0" d="m55.6 132.84c1.2-0.8 0.4-4.2-3.5-9.2-3.8-5.4-6.5-6.5-7.7-5.8-1.5 1.2-0.8 6.5 2.7 10.7 3.9 5 6.9 5.8 8.5 4.3" fill="#fff"/><path class="st9" d="m52.9 147.04c0.8-0.8-0.4-4.2-4.2-8.1-3.8-4.2-6.9-5-7.7-4.2-1.2 0.8-0.4 4.6 3.5 8.8 4.2 4.2 8 4.2 8.4 3.5" fill="#02539c"/><path class="st0" d="m131.1 104.04c-1.5-0.8-5 0.8-8.8 7.3s-3.8 11.9-2.7 12.7c1.9 1.2 8.1-0.8 11.5-7.3 3.1-5.8 2.3-11.5 0-12.7" fill="#fff"/><path class="st9" d="m144.2 125.14c-1.5-2.3-7.3-2.7-11.9 1.2-5.8 5-6.9 10.7-5.8 12.3 1.2 1.5 6.5 0.8 11.5-3.5s7.3-8.5 6.2-10" fill="#02539c"/><path class="st0" d="m194.8 16.24c-6.1-1.2-28.8 4.2-31.1 9.6-5.8 11.5 0.8 40.7 10 52.2l21.1-61.8z" fill="#fff"/><path class="st1" d="m173.7 77.94c-3.8-34.1 11.1-61.7 21.1-61.7 3.8 0 10 28.4 5.8 44.9-2.7 1.9-5.4 3.5-8.1 4.6 0-6.9-0.8-15.7-2.7-15.3-1.9 0-5.4 8.8-5 20.7-3.4 2.6-6.9 4.5-11.1 6.8" fill="#c7eafb"/><g fill="#e6e7e7"><path class="st2" d="m261.9 133.54c-3.1 0.4-5.8 8.4-5 11.5 0.4 2.3 2.7 4.2 5.8 4.2 3.5-0.4 5.4-1.9 5.8-4.2 0.3-3.8-4.3-11.9-6.6-11.5"/><path class="st2" d="m298.7 147.74c-0.4-2.7-13-4.6-16.5-0.4-1.2 1.5-1.5 4.2 0.4 6.9 1.5 2.3 3.5 3.5 6.5 2.7 1.9-0.7 10.4-7.6 9.6-9.2"/><path class="st2" d="m298.7 171.94c0-3.5-6.9-10-10.7-9.6-2.3 0.4-3.8 2.3-3.8 6.5 0 3.5 1.2 5 3.5 5.4 5.3 0 11-1.2 11-2.3"/><path class="st2" d="m0.7 180.74c0 1.9 6.9 6.5 10 5.8 1.5-0.4 3.1-1.9 3.1-5 0.4-3.5-0.8-5-2.7-5-3.5-0.4-10.4 2.3-10.4 4.2"/></g><path class="st8" d="m184.8 67.64c0-7.7 3.1-17.3 5-17.3 2.3 0 2.7 9.2 2.3 15.3-2.3 0.8-4.6 1.2-7.3 2" fill="#0c1b23"/><path class="st2" d="m23 157.34c-2.3 0.4-5 6.9-4.6 10.7 0 2.3 2.7 3.8 6.5 3.1 3.8-0.4 5.4-2.7 5-5-0.4-3.4-5-8.8-6.9-8.8" fill="#e6e7e7"/><path class="st4" d="m282.6 255.94c-18.8 45.3-108.9 25.7-90.9-44.1-7.7 8.8-11.1 20.7-11.1 33.7 0.4 39.9 30.3 62.1 57.1 61 21.9-1.2 43.8-21.5 44.9-50.6" fill="#91cdef"/><path class="st2" d="m238.5 319.24c-5.4-3.5-12.3-2.7-16.1 2.7-0.8-5.4-4.6-8.1-9.2-8.4-5-0.8-10 2.3-10.4 8.1-0.4 12.7 2.3 23.8 5 24.5 1.2 0.4 5-2.7 8.1-9.2-1.2 5.8-1.2 10.4 0 11.5 1.9 1.5 16.9-5.8 25.3-13 4.6-4 2.3-12.8-2.7-16.2" fill="#e6e7e7"/><path class="st1" d="m161.8 35.44c0.8 9.2 6.5 19.2 11.9 21.9-0.4 6.1-0.4 14.6 0 20.3-6.9-6.6-12.7-29.6-11.9-42.2" fill="#c7eafb"/><path class="st4" d="m256.9 300.74c3.1 4.2 0.4 14.6-13.4 25.7v7.3c24.5-17.3 35.3-28.4 24.2-42.2-2.4 2.3-7.7 7.3-10.8 9.2" fill="#91cdef"/><g fill="#fff"><path class="st0" d="m217.8 258.94c-1.9-3.1-5.4-1.2-3.8 1.9 2.7 5.8 6.5 9.2 10.4 10.4 2.7 0.8 3.5-1.2 1.5-3.1-3.5-3-5.4-5.3-8.1-9.2"/><path class="st0" d="m233.5 202.94c-17.6 7.7-20.7 30.7-10.4 49.9 11.1 19.9 29.9 22.6 42.2 15.3 13-7.3 18-24.2 11.5-41.4-9.5-23.4-29.9-29.5-43.3-23.8"/><path class="st0" d="m276.5 124.74c-1.5 0.4-2.3 2.7-1.5 5 1.2 3.5 3.1 4.6 4.6 3.8 1.2-0.4 2.3-2.3 1.2-5.4-1.3-3-3.2-3.8-4.3-3.4"/></g><g fill="#f2f2f2"><path class="st6" d="m97 301.94c1.9-1.5-1.9-1.9-5 0-2.3 1.5-6.9 7.7-6.5 8.1 0.4 0 7.6-4.3 11.5-8.1"/><path class="st6" d="m85.9 298.84c1.2-0.8-0.4-2.3-3.5-0.4-2.7 1.9-6.1 5.8-5.8 6.1 0.4 0.5 5.8-2.6 9.3-5.7"/><path class="st6" d="m231.6 325.34c4.2-5.8-1.5-7.3-5-3.5-4.2 4.6-7.7 14.2-6.9 14.6 0.4 0.4 5.8-3.1 11.9-11.1"/><path class="st6" d="m215.5 319.94c0.8-3.8-4.6-4.6-5.4-1.2-1.5 6.5-0.4 13.4 0 13.4 0.8 0.1 4.2-5.7 5.4-12.2"/><path class="st6" d="m295.6 147.34c0-0.4-6.1-1.5-8.8-0.4-1.5 0.4-1.2 1.9 0.4 1.9 3.8 0.1 8.4-1.1 8.4-1.5"/><path class="st6" d="m261.9 135.84c-0.8-0.4-2.7 4.2-3.1 7.3 0 2.3 2.3 2.3 2.7 0 0.4-2.7 0.8-7.3 0.4-7.3"/><path class="st6" d="m296.4 170.74c0.4-0.4-2.7-3.8-5.4-5.4-1.2-0.8-2.3 0.8-1.2 1.9 2.4 1.6 6.6 3.5 6.6 3.5"/><path class="st6" d="m23 159.64c-0.8 0-2.3 3.5-2.7 5.8 0 1.9 2.3 1.9 2.7 0.4 0-1.6 0.3-6.2 0-6.2"/><path class="st6" d="m4.2 179.94c0-0.4 3.1-1.5 5.4-1.5 1.5-0.4 1.9 1.9 0 1.9-2.4 0.4-5.4 0-5.4-0.4"/></g><g fill="#bdbec0"><path class="st7" d="m263.4 134.74c3.1 6.1 3.1 13-2.7 14.2 2.3 1.2 6.9-0.4 7.3-3.5 0.8-2.7-0.7-6.9-4.6-10.7"/><path class="st7" d="m282.2 151.64c2.3 4.2 9.2 3.1 15.7-2.7-3.5 4.6-8.1 8.4-11.1 8.1-3-0.1-4.2-2-4.6-5.4"/><path class="st7" d="m284.9 166.14c0 3.8 3.5 6.9 10 6.9-3.8 1.2-7.7 1.2-9.2 0.4-1.6-1.1-1.9-5-0.8-7.3"/><path class="st7" d="m24.9 159.24c2.7 4.2 4.2 9.6-0.8 11.5 2.3 0.8 5.4-0.4 5.8-2.7 0.4-2.6-1.6-6.9-5-8.8"/><path class="st7" d="m2.6 182.24c4.6 2.7 10.4 3.1 10.7-1.5 0.4 3.1-0.4 5.8-3.1 6.1-2.2 0-5.3-1.9-7.6-4.6"/><path class="st7" d="m238.5 320.34c5 8.8-3.8 19.9-22.6 27.6 4.2 1.2 19.9-6.1 26.1-13 3-3.5 2.6-11.5-3.5-14.6"/><path class="st7" d="m204 333.74c1.2 5 3.5 9.2 4.2 9.2 1.2 0 5.8-4.2 8.1-8.8l-0.4 3.1c-1.5 3.8-6.1 8.8-8.1 8.8-1.9 0-3.8-6.9-3.8-12.3"/></g><g fill="#0c1b23"><path class="st8" d="m293 174.24c-7.7 4.6-19.6 6.1-36.8 4.2-7.7-1.2-10-0.8-16.1 1.9-19.9 8.8-37.6 8.8-49.1-9.6-16.1-26.1 4.2-59.8 48.3-60.6 41-0.8 65.2 21.9 65.2 41.4-0.4 7.3-2.3 13.4-6.5 18l-1.2-1.9c3.5-4.2 5-9.6 5-16.1 0-18.8-23.8-39.5-62.5-39.1-42.6 0.8-61.4 32.6-46.4 56.8 11.1 18 28.4 16.5 46.4 8.8 5.8-2.7 9.6-3.1 16.9-2.3 14.2 1.9 24.5 1.2 31.8-1.9l5 0.4z"/><path class="st8" d="m285.3 123.64c-17.6-3.8-34.5 9.2-34.9 26.1-0.8 13 6.1 24.2 16.9 28.4l-4.6-0.4c-9.2-4.6-14.6-16.5-14.2-28 0.8-18.8 17.6-30.3 33.7-28.4l3.1 2.3z"/><path class="st8" d="m242.3 178.04c-19.6-6.5-27.2-26.8-21.1-43.3 1.5-3.1 2.3-2.7 1.2 0.4-5.8 17.3 3.5 36.4 22.6 41.8l-2.7 1.1z"/><path class="st8" d="m258.4 112.84c-16.5 1.5-25.7 8.1-30.7 13.4-2.3 2.7-3.5 2.3-1.2-0.8 3.8-5 11.9-11.5 26.1-13.4l5.8 0.8z"/><path class="st8" d="m251.9 163.84c-8.4-1.9-18-2.7-27.6-1.5l-0.8-1.9c10-0.8 19.2-0.4 27.6 1.5l0.8 1.9z"/><path class="st8" d="m262.3 134.34c-2.7 0.4-5 7.7-4.6 10.7 0.4 1.5 1.9 3.5 5 3.1 2.7 0 4.6-1.2 5-3.5 0-3.8-4.3-10.3-5.4-10.3m-6.2 11.1c-0.8-3.5 1.9-11.9 5.8-12.7 3.1-0.4 7.7 8.1 7.3 12.3 0 2.7-2.7 5-6.1 5-3.5 0.4-6.2-1.5-7-4.6"/><path class="st8" d="m282.6 148.14c-0.8 0.8-0.8 3.5 0.8 5.8 1.2 1.9 2.7 2.7 5.8 1.9 1.9-0.4 9.2-6.9 8.8-8.1-0.1-1.1-11.9-3.8-15.4 0.4m-0.8 6.9c-1.9-3.1-1.9-6.5-0.4-8.1 3.5-4.6 17.3-2.7 18.4 0.4 0.4 2.3-8.1 9.6-10.4 10.4-3.7 0.8-5.6 0-7.6-2.7"/><path class="st8" d="m288 163.44c-1.9 0-3.1 1.5-3.1 5.4 0 2.7 0.8 4.2 3.1 4.2 5.4 0.4 10-0.8 10-1.2-0.1-2.2-6.2-8.7-10-8.4m-0.4 11.6c-3.1-0.4-4.6-2.3-4.6-6.1 0-4.2 1.9-6.9 5-7.3 5-0.4 11.9 6.9 11.5 10.7 0 1.5-6.5 3-11.9 2.7"/><path class="st8" d="m191.7 134.34c6.9-1.5 14.6-2.3 23-1.9 5 0.4 5 1.5 0 1.5-8.8-0.4-16.5 0.4-24.2 2.3l1.2-1.9z"/><path class="st8" d="m175.2 75.64c3.8-1.9 5.8-2.7 8.8-5-0.4-11.9 2.7-21.1 5.8-21.5 2.3 0.4 3.5 5.8 3.5 15.3 2.3-1.5 3.5-1.9 5.4-3.1 4.6-17.6-1.5-44.1-4.2-44.1-7.8-0.3-22.3 24.3-19.3 58.4m-2.3 2.7c-4.2-34.5 11.1-63.3 21.9-62.9 5 0 11.1 29.9 6.5 46v0.4c-2.3 1.5-5.4 3.1-8.1 4.6-1.2 0.4-1.5 0-1.5-1.2 0-8.4-1.2-14.2-1.9-14.2-1.2 0-4.6 8.1-4.2 19.9v0.8c-3.8 2.7-7.3 4.6-11.9 6.9-0.4 0.5-0.8 0.1-0.8-0.3"/><path class="st8" d="m172.9 78.74c-10-12.3-15.7-42.2-10.4-53.3 2.7-5.8 24.9-11.5 32.2-10l-2.3 1.5c-7.7 0-26.1 4.6-28 9.2-5 10.7 1.9 40.3 10 51l-1.5 1.6z"/><path class="st8" d="m192.5 66.44c-2.7 0.8-4.6 1.2-7.7 1.9v-1.5c2.7-0.8 4.6-1.2 7.3-1.9l0.4 1.5z"/><path class="st8" d="m1.9 180.74c-0.4 1.2 5.8 5.8 8.8 5 1.5-0.4 2.3-1.5 2.3-4.2 0-3.1-0.8-4.2-1.9-4.2-4.2-0.4-9.2 2.6-9.2 3.4m-1.9 0c0-2.7 8.1-5.4 11.1-5.4 2.3 0.4 3.8 2.3 3.8 6.1s-1.9 5.4-3.8 6.1c-3.1 0.9-11.1-4.1-11.1-6.8"/><path class="st8" d="m251.2 302.34c18.4-8.4 30.3-28 30.3-51.8 0-20.3-6.5-35.7-19.2-46-3.1-2.3-2.3-3.5 1.2-1.2 13.4 9.2 21.5 26.5 21.5 47.2-0.4 24.2-13.4 45.6-33 53.3-4.3 1.9-4.7 0.4-0.8-1.5"/><path class="st8" d="m218.9 304.24c-19.2-6.1-39.9-25.7-40.3-58.3-0.4-24.2 12.3-42.2 34.1-48.7 4.6-1.2 5 0 0.8 1.5-20.7 7.3-31.8 23.4-31.8 46.8 0.4 32.2 19.9 50.2 38 57.1 4.2 1.6 3.8 3.1-0.8 1.6"/><path class="st8" d="m275.7 219.14c-9.6 24.9-75.9 29.9-91.7 6.1l0.8-2.3c16.1 24.5 82.1 18 89.7-6.1l1.2 2.3z"/><path class="st8" d="m279.9 269.74c-21.1 18.4-64 26.1-93.6 3.8l-0.8-3.1c29.5 22.6 72.5 15.7 95.5-3.8l-1.1 3.1z"/><path class="st8" d="m207.4 283.14c-5.8-13-7.7-30.3-5-46.8l1.5 0.4c-1.9 15.7 0 33.7 5.8 46.8l-2.3-0.4z"/><path class="st8" d="m260.4 279.34c3.8-13 4.6-31.8-1.2-46.4l1.5-0.8c6.5 15 5.4 33 1.5 46l-1.8 1.2z"/><path class="st8" d="m223.5 321.84c-7.7 11.1-8.4 24.5-7.3 25.7 1.2 0.8 14.2-3.8 24.5-13 3.1-2.7 2.3-10.7-3.1-14.6-5.6-3.8-11.8-1.5-14.1 1.9m-8.4 26.9c-2.7-1.9-0.4-18 6.5-28 3.8-5 11.1-6.5 17.3-2.3 6.5 4.2 7.7 13.8 3.1 18-8.9 7.7-24.2 14.6-26.9 12.3"/><path class="st8" d="m215.5 339.54c-3.1 5.8-6.5 7.7-8.1 7.3-3.5-0.8-6.5-13.4-6.1-25.3 0.4-5.8 5.8-10 12.3-9.2 5.4 0.4 8.8 3.5 10 8.4l-1.9 1.9c-0.4-4.2-3.5-7.7-8.4-8.4-5-0.4-9.2 2.7-9.2 7.3-0.4 14.2 2.3 23.4 3.8 23.8 1.2 0 5.4-3.8 8.8-11.5l-1.2 5.7z"/><path class="st8" d="m202.5 322.64c-1.2-10 0.8-18 5.8-24.2l2.3 1.2c-4.6 5.8-6.1 12.3-6.5 17.6l-1.6 5.4z"/><path class="st8" d="m268.8 290.84c6.5 6.9 6.9 16.5-0.8 24.5-5.8 6.5-15.3 13.4-27.2 21.5l1.9-3.8c10.7-7.3 17.6-13.4 23.4-19.6 6.1-6.5 6.5-14.6 0.8-21.1l1.9-1.5z"/><path class="st8" d="m23 158.14c-1.5 0.4-4.2 6.5-3.8 10 0 1.2 1.9 3.1 5.8 2.3 3.5-0.4 4.6-2.3 4.2-4.2-0.9-3.5-5.1-8.1-6.2-8.1m-5.8 9.9c-0.4-3.8 2.7-11.1 5.8-11.5 2.3 0 7.3 5.4 8.1 9.2 0.4 3.1-1.5 5.8-6.1 6.5-4.3 0.8-7.4-1.1-7.8-4.2"/></g></svg>
