<?xml version="1.0" encoding="UTF-8"?>
<!-- Created with Inkscape (http://www.inkscape.org/) -->
<svg version="1.1" viewBox="0 0 124.3 152.05" xmlns="http://www.w3.org/2000/svg" xmlns:cc="http://creativecommons.org/ns#" xmlns:dc="http://purl.org/dc/elements/1.1/" xmlns:rdf="http://www.w3.org/1999/02/22-rdf-syntax-ns#">
 <metadata>
  <rdf:RDF>
   <cc:Work rdf:about="">
    <dc:format>image/svg+xml</dc:format>
    <dc:type rdf:resource="http://purl.org/dc/dcmitype/StillImage"/>
   </cc:Work>
  </rdf:RDF>
 </metadata>
 <g transform="translate(-56.437 -83.026)">
  <g transform="matrix(2.9392 0 0 -2.9392 71.986 122.23)">
   <path d="m0 0c-0.188 0.715-0.255 1.646-0.444 1.715-0.164 0.058-0.803-1.039-0.841-1.504" fill="#efefef"/>
  </g>
  <g transform="matrix(2.9392 0 0 -2.9392 151.48 170.25)">
   <path d="m0 0c2.592 1.082 7.594 4.822 8.766 6.129 0.496 0.553 1.091 0.254 1.036-0.789-0.192-3.569-1.796-9.545-5.948-13.317z" fill="#d3edfb"/>
  </g>
  <g transform="matrix(2.9392 0 0 -2.9392 156.03 179.65)">
   <path d="m0 0c4.365 3.279 6.687 6.438 7.883 9.566-0.195 0.088-0.44 0.014-0.664-0.236-1.172-1.307-6.174-5.047-8.766-6.129z" fill="#fff"/>
  </g>
  <g transform="matrix(2.9392 0 0 -2.9392 158.1 183.96)">
   <path d="M 0,0 1.322,-2.07 C 4.886,1.064 7.727,7.975 7.299,10.947 6.215,6.098 3.559,2.641 0,0" fill="#a0d2f2"/>
  </g>
  <g transform="matrix(2.9392 0 0 -2.9392 61.162 124.91)">
   <path d="m0 0c-0.361 0.158-1.414 0.693-1.481 0.602-0.068-0.09 0.436-1.241 0.992-1.782" fill="#efefef"/>
  </g>
  <g transform="matrix(2.9392 0 0 -2.9392 66.243 121.5)">
   <path d="m0 0c-0.331 0.496-0.978 1.504-1.113 1.475-0.135-0.032-0.42-1.114-0.323-2.354" fill="#efefef"/>
  </g>
  <g transform="matrix(2.9392 0 0 -2.9392 60.083 125.73)">
   <path d="m0 0-0.342-0.645c-0.403 0.512-0.856 1.34-0.723 1.497 0.252-0.383 0.596-1.034 1.065-0.852" fill="#c9caca"/>
  </g>
  <g transform="matrix(2.9392 0 0 -2.9392 62.979 117.17)">
   <path d="m0 0c0.011 2e-3 0.025-4e-3 0.042-0.014-0.048-0.502-0.18-1.197 0.168-1.724l-0.55-0.248c-0.024 1.078 0.218 1.959 0.34 1.986" fill="#c9caca"/>
  </g>
  <g transform="matrix(2.9392 0 0 -2.9392 70.682 117.19)">
   <path d="m0 0h3e-3c0.17-0.063 0.241-0.824 0.391-1.496l-0.469 0.121c0.045 0.387 0.079 0.908 0.075 1.375" fill="#c9caca"/>
  </g>
  <g transform="matrix(2.9392 0 0 -2.9392 159.06 178.78)">
   <path d="m0 0c1.142 5.08-0.313 11.025-3.804 14.816 1.253 5.497-1.184 10.916-6.617 13.469-2.441 1.145-4.751 1.529-6.838 1.358-0.821 0.923-3.216 2.968-3.729 2.798-0.576-0.193-2.014-3.388-2.471-5.308-1.096-0.897-2.002-1.975-2.679-3.147-1.085-1.879-1.572-4.17-1.418-6.134-1.517 1.826-3.059 2.459-4.948 1.451-2.225-1.186-2.15-5.252-0.248-8.588 1.324-2.322 3.306-4.58 5.665-5.793-0.181-0.563-0.329-1.129-0.446-1.697-3.287-0.817-5.158-5.178-4.509-8.434 0.622-3.117 2.356-5.736 5.495-6.582-3.281-1.813-4.539-4.877-4.291-5.215 0.106-0.144 0.785 0.082 1.383 0.242l2.521 0.321c0.175-0.073 0.698-0.162 1.049-0.118 2.406 0.307 5.114 2.395 5.291 3.6 0.052 0.35-0.1 0.705-0.387 1.049 2.981-1.055 6.69-0.881 10.639 0.09 0.235-0.194 0.488-0.371 0.763-0.535-0.196-1.582 2.043-4.983 4.107-4.731l4.293 0.922c0.423 1.176-0.315 2.709-1.257 3.52 1.714 0.83 3.345 2.529 4.047 5.777 0.538 2.49-0.17 5.181-1.611 6.869" fill="#d3edfb"/>
  </g>
  <g transform="matrix(2.9392 0 0 -2.9392 128.43 95.639)">
   <path d="m0 0c-2.441 1.145-4.751 1.529-6.838 1.357-0.821 0.924-3.216 2.969-3.729 2.799-0.42-0.863-0.778-2.388-0.292-3.908-2.098-1.031-3.773-2.668-4.858-4.547-1.991-3.449-1.974-8.289 0.339-9.943l8.611-6.209c5.867-1.975 10.434-0.072 12.41 4.156 2.981 6.377 0.724 13.303-5.643 16.295" fill="#fff"/>
  </g>
  <g transform="matrix(2.9392 0 0 -2.9392 127.49 134.32)">
   <path d="m0 0v0.016c-0.125 1.214-0.583 2.341-1.266 3.338-2.124-2.745-6.839-5.168-9.985-4.227 0.189-0.191 0.392-0.359 0.605-0.498 1.888-1.221 6.094-0.76 8.539 0.328z" fill="#d3edfb"/>
  </g>
  <g transform="matrix(2.9392 0 0 -2.9392 115.88 157.58)">
   <path d="m0 0c4.654-0.74 8.227 1.174 9.912 4.779 1.156 2.475 1.522 5.03 1.166 7.409-1.529-3.163-3.609-6.307-6.394-7.092l-1.311-3.307z" fill="#d3edfb"/>
  </g>
  <g transform="matrix(2.9392 0 0 -2.9392 147.25 137.4)">
   <path d="m0 0c-1.036-2.508-4.747-4.352-7.126-4.637l-0.174-0.439-3.373-1.789c4.654-0.74 9.242 1.152 10.673 6.865" fill="#a0d2f2"/>
  </g>
  <g transform="matrix(2.9392 0 0 -2.9392 117.02 108.98)">
   <path d="m0 0c-6.243 3.264-11.211 0.066-12.637-4.48-0.353-1.127-0.356-2.932 0.605-5.129-0.084 1.73 0.063 3.582 0.323 5.123l2.729 3.173c4.337 2.016 11.962-1.687 12.543-7.292l-0.211-3.989c-0.27-1.33-1.462-2.668-2.69-3.109-0.828-0.299-1.779-0.408-2.793-0.428l2.844-0.566c1.346 0.508 2.563 1.349 3.432 2.711 3.693 5.793 0.696 11.457-4.145 13.986" fill="#d3edfb"/>
  </g>
  <g transform="matrix(2.9392 0 0 -2.9392 126.62 129.7)">
   <path d="m0 0-0.046-0.029c0.17-0.491 0.286-1 0.341-1.526l-0.211-3.988c-0.27-1.33-1.462-2.668-2.689-3.109-0.829-0.299-1.78-0.409-2.793-0.428l2.843-0.566c1.346 0.507 2.564 1.349 3.432 2.71 1.696 2.661 1.98 5.293 1.324 7.608z" fill="#a0d2f2"/>
  </g>
  <g transform="matrix(2.9392 0 0 -2.9392 122.6 136.75)">
   <path d="m0 0c-2.344-1.238-6.973-1.842-8.981-0.543-1.537 0.992-2.435 3.471-2.381 5.531l-2.245-0.025c-0.424-2.514-0.553-5.852 0.143-8.149 0.482-1.589 1.024-3.177 1.802-3.765 0.839-0.635 3.381 0.474 4.262 0.412 2.23-0.158 4.457-0.328 6.164 0.285 1.227 0.441 2.42 1.779 2.689 3.109z" fill="#fff9b0"/>
  </g>
  <g transform="matrix(2.9392 0 0 -2.9392 110.64 156.4)">
   <path d="m0 0c-1.064-0.02-2.196 0.064-3.331 0.145-0.881 0.062-3.423-1.047-4.262-0.413-0.417 0.315-0.765 0.918-1.073 1.653-2.868-4.41-3.351-9.364-2.027-13.957 2.188-7.598 9.038-8.776 16.825-6.864-0.762 0.627-1.307 1.399-1.569 2.239-0.95 3.051 0.549 8.078 4.202 10.23l-3.664 6.5c-1.532-0.205-3.246-0.068-5.101 0.467" fill="#fff9b0"/>
  </g>
  <g transform="matrix(2.9392 0 0 -2.9392 92.885 162.01)">
   <path d="m0 0c2.678-0.74 6.631-0.088 9.989 1.355-1.223-0.027-2.546 0.151-3.949 0.555-1.064-0.019-2.196 0.065-3.331 0.145-0.881 0.062-3.423-1.047-4.262-0.412-0.111 0.084-0.217 0.189-0.319 0.31 0.339-0.9 0.915-1.689 1.872-1.953" fill="#ded799"/>
  </g>
  <g transform="matrix(2.9392 0 0 -2.9392 81.496 227.22)">
   <path d="m0 0c-1.731-0.826-3.932-1.113-3.997-0.9-0.122 0.4 1.621 2.445 2.329 2.666 0.761 0.236 1.528-0.889 1.668-1.766" fill="#efefef"/>
  </g>
  <g transform="matrix(2.9392 0 0 -2.9392 75.267 222.82)">
   <path d="m0 0c-0.078 0.533-0.567 0.813-1.082 0.615-1.014-1.283-1.395-2.437-1.248-2.636 0.057-0.079 0.284-0.047 0.575 0.023 0.314 0.572 1.137 1.525 1.755 1.998" fill="#efefef"/>
  </g>
  <g transform="matrix(2.9392 0 0 -2.9392 123.24 201.38)">
   <path d="m0 0c-3.455-1.912-11.884-1.355-15.121 3.254 1.619-6.309 6.582-9.936 16.967-7.387-1.442 1.188-1.828 2.574-1.846 4.133" fill="#ded799"/>
  </g>
  <g transform="matrix(2.9392 0 0 -2.9392 155.88 224.97)">
   <path d="m0 0c-0.623 0.926-1.672 0.416-2.019-0.275 6e-3 -6e-3 0.013-0.012 0.018-0.016 0.318-0.279 0.701-1.389 0.895-2.184 0.353-0.347 0.769-0.666 0.924-0.63 0.192 0.046 0.549 2.56 0.182 3.105" fill="#efefef"/>
  </g>
  <g transform="matrix(2.9392 0 0 -2.9392 141.41 228.82)">
   <path d="M 0,0 C 0.946,2.195 2.298,1.568 2.923,1.02 3.42,0.582 4.075,-1.879 3.918,-2 3.76,-2.121 -0.131,-0.303 0,0" fill="#efefef"/>
  </g>
  <g transform="matrix(2.9392 0 0 -2.9392 97.389 213.79)">
   <path d="m0 0c2e-3 0 4e-3 0 6e-3 -2e-3 -2.159 0.762-3.937 2.168-5.15 4.383-1.976-0.953-4.677-0.277-5.904 2.262 0.633-3.09 2.364-5.682 5.483-6.522-0.414-0.23-0.797-0.478-1.148-0.74 2.075 6e-3 3.165-0.873 3.254-1.697 0.113-1.053-0.706-1.606-2.111-1.721l0.202-0.611c0.16-0.014 0.326-0.018 0.465 0 2.405 0.306 5.113 2.394 5.291 3.599 0.051 0.35-0.1 0.705-0.388 1.049" fill="#a0d2f2"/>
  </g>
  <g transform="matrix(2.9392 0 0 -2.9392 80.21 224.05)">
   <path d="m0 0c-0.717-0.938-2.631-1.631-3.56-1.98 0.066-0.213 2.266 0.074 3.998 0.9-0.057 0.355-0.218 0.75-0.438 1.08" fill="#c9caca"/>
  </g>
  <g transform="matrix(2.9392 0 0 -2.9392 68.332 228.35)">
   <path d="M 0,0 C -0.001,-0.063 0.008,-0.111 0.029,-0.139 0.086,-0.217 0.313,-0.186 0.604,-0.115 0.918,0.457 1.741,1.41 2.359,1.883 2.33,2.076 2.248,2.236 2.13,2.352 1.875,1.822 0.838,0.66 0,0" fill="#c9caca"/>
  </g>
  <g transform="matrix(2.9392 0 0 -2.9392 164.04 190.21)">
   <path d="m0 0c-1.596-5.795-9.246-7.746-13.829-4.6 0.046-0.384 0.119-0.754 0.225-1.095 0.262-0.84 0.807-1.612 1.569-2.239 0.234-0.193 0.488-0.371 0.763-0.535-0.179-1.439 1.661-4.385 3.549-4.713l0.362 0.698c-0.623 0.316-0.928 1.136-0.374 1.609 0.979 0.834 2.983 1.076 4.728 0.535-0.251 0.617-0.661 1.186-1.122 1.582 1.714 0.83 3.345 2.529 4.047 5.778 0.213 0.986 0.228 2.003 0.082 2.98" fill="#a0d2f2"/>
  </g>
  <g transform="matrix(2.9392 0 0 -2.9392 152.63 232.24)">
   <path d="m0 0c0.354-0.348 0.77-0.666 0.925-0.631 8e-3 2e-3 0.015 0.01 0.023 0.02-0.664 0.898-1.363 2.769-1.118 3.558-0.229-0.144-0.627-0.519-0.742-0.748 6e-3 -6e-3 0.013-0.011 0.017-0.015 0.319-0.28 0.702-1.389 0.895-2.184" fill="#c9caca"/>
  </g>
  <g transform="matrix(2.9392 0 0 -2.9392 144.6 224.85)">
   <path d="m0 0c-0.42-0.275-0.86-0.826-1.086-1.352-0.131-0.302 3.76-2.121 3.918-2 0.012 0.01 0.017 0.034 0.022 0.067-1 0.664-2.953 1.908-2.854 3.285" fill="#c9caca"/>
  </g>
  <g transform="matrix(2.9392 0 0 -2.9392 158.2 185.63)">
   <path d="m0 0c0.37-0.064 0.431-0.869 0.061-1.791-0.368-0.91-1.345-1.498-1.466-1.168-0.088 0.244 0.375 0.262 0.86 1.41 0.35 0.834 0.194 1.61 0.545 1.549" fill="#fff"/>
  </g>
  <g transform="matrix(2.9392 0 0 -2.9392 79.208 193.35)">
   <path d="m0 0c-0.682 2.369-0.883 4.832-0.526 7.268-1.257-0.254-2.699-1.741-3-3.416-0.369-2.055 0.362-3.952 2.199-4.649 0.634-0.24 1.185-0.281 1.658-0.211-0.119 0.322-0.23 0.658-0.331 1.008" fill="#fff"/>
  </g>
  <g transform="matrix(2.9392 0 0 -2.9392 62.121 123.42)">
   <path d="m0 0c-1.561-1.568-1.322-5.135 0.379-8.119 1.299-2.279 3.232-4.492 5.531-5.721l0.944 2.397c-5.1 2.25-8.026 9-6.854 11.443" fill="#a0d2f2"/>
  </g>
  <g transform="matrix(2.9392 0 0 -2.9392 81.605 136.01)">
   <path d="m0 0c-0.699 0.795-1.096 1.963-1.202 3.281-0.796 0.957-1.923 1.936-3.289 1.389-0.818-0.326-1.374-2.219 1.139-5.639 1.251-1.699 3.054-3.074 4.077-3.263-0.6 1.798-0.691 2.992-0.725 4.232" fill="#fff"/>
  </g>
  <g transform="matrix(2.9392 0 0 -2.9392 66.268 122.52)">
   <path d="m0 0c-0.225 0.123-0.547-0.121-0.739-0.43-0.172-0.277-0.277-0.67-0.037-0.773 0.226-0.098 0.364 0.215 0.554 0.564 0.163 0.301 0.415 0.534 0.222 0.639" fill="#fff"/>
  </g>
  <g transform="matrix(2.9392 0 0 -2.9392 152.29 174.16)">
   <path d="m0 0c-0.17 4.203-3.215 6.881-4.891 7.416l-0.834-8.492c2.247 1.252 4.783 1.367 5.725 1.076" fill="#a0d2f2"/>
  </g>
  <g transform="matrix(2.9392 0 0 -2.9392 147.88 135.23)">
   <path d="m0 0c-0.103-0.637-0.687-2.496-1.29-3.512 2.557-2.125 4.957-6.269 5.412-9.228 0.397 4.554-1.098 9.457-4.122 12.74" fill="#fff"/>
  </g>
  <g transform="matrix(2.9392 0 0 -2.9392 149.49 173.88)">
   <path d="m0 0c1.781-0.35 2.828-2.305 2.2-4.609-0.514-1.883-2.479-3.912-5.239-3.668-2.907 0.257-3.048 3.677-1.816 5.588 0.75 1.162 2.461 3.158 4.855 2.689" fill="#fff"/>
  </g>
  <g transform="matrix(2.9392 0 0 -2.9392 127.49 134.32)">
   <path d="m0 0v0.016c-0.057 0.554-0.185 1.091-0.37 1.605-1.097-1.234-3.889-2.855-6.46-3.707 1.666 0.072 3.437 0.471 4.723 1.043z" fill="#a0d2f2"/>
  </g>
  <g transform="matrix(2.9392 0 0 -2.9392 103.74 153.64)">
   <path d="m0 0c-0.85 0.082-1.281-0.014-1.799-0.146-0.287-0.075-2.585-1.161-3.486-0.893 0.019-0.016 0.02-0.152 0.041-0.168 0.839-0.635 3.381 0.475 4.262 0.412 2.23-0.158 4.457-0.328 6.164 0.285 0.683 0.246 1.804 1.033 2.246 1.983-1.784-1.455-4.894-1.717-7.428-1.473" fill="#ded799"/>
  </g>
  <g transform="matrix(2.9392 0 0 -2.9392 63.309 118.47)">
   <path d="m0 0c-0.061-0.021 0-0.463 0.026-0.588 0.028-0.127 0.389-0.082 0.298 0.08-0.09 0.164-0.243 0.533-0.324 0.508" fill="#f7f8f8"/>
  </g>
  <g transform="matrix(2.9392 0 0 -2.9392 70.341 118.5)">
   <path d="m0 0c0.034-0.014 3e-3 -0.371-9e-3 -0.443-0.012-0.073-0.228-0.065-0.208 0.017 0.022 0.08 0.164 0.446 0.217 0.426" fill="#f7f8f8"/>
  </g>
  <g transform="matrix(2.9392 0 0 -2.9392 57.944 124.1)">
   <path d="m0 0c0.026 0.025 0.339-0.15 0.401-0.191 0.06-0.041-0.037-0.235-0.102-0.182-0.064 0.053-0.339 0.332-0.299 0.373" fill="#f7f8f8"/>
  </g>
  <g transform="matrix(2.9392 0 0 -2.9392 133.56 133.77)">
   <path d="m0 0c-0.736 0.881-2.374 0.775-3.51-0.234-1.612-1.434-3.015-4.375-2.435-4.971 0.678-0.695 3.318 2e-3 4.989 1.715 1.001 1.025 1.54 2.793 0.956 3.49" fill="#0d131a"/>
  </g>
  <g transform="matrix(2.9392 0 0 -2.9392 126.31 146.67)">
   <path d="m0 0c-0.348-1.176-1.428-2.305-2.553-2.709-1.896-0.682-4.398-0.422-6.106-0.314-1.036 0.072-3.429-0.907-4.118-0.385-0.76 0.574-1.377 2.146-1.828 3.635-0.552 1.82-0.562 3.867-0.375 6.021l-0.213 0.836c-0.293-2.553-0.34-4.676 0.343-6.932 0.485-1.597 1.01-3.287 1.83-3.908 0.85-0.64 3.824 0.488 4.356 0.447 1.844-0.144 4.541-0.349 6.246 0.264 1.284 0.461 2.418 1.85 2.717 3.188z" fill="#0d131a"/>
  </g>
  <g transform="matrix(2.9392 0 0 -2.9392 91.344 110.23)">
   <path d="m0 0c-0.612 0.348-2.356-0.416-3.177-2.893-0.473-1.433-0.438-3.921 0.375-4.23 1.36-0.518 4.186 6.338 2.802 7.123" fill="#0d131a"/>
  </g>
  <g transform="matrix(2.9392 0 0 -2.9392 90.756 111.17)">
   <path d="m0 0c-0.464 0.018-1.108-0.773-1.275-1.627-0.148-0.758 0.052-1.41 0.408-1.482 0.531-0.108 0.887 0.58 1.081 1.48 0.175 0.809 0.089 1.617-0.214 1.629" fill="#fff"/>
  </g>
  <g transform="matrix(2.9392 0 0 -2.9392 96.404 137.98)">
   <path d="m0 0c-1.513 0.979-2.309 3.338-2.324 5.18l-0.24-0.399c0.119-1.843 0.945-4.08 2.425-5.037 2.141-1.385 6.291-0.691 8.594 0.313l0.245 0.394c-2.439-1.211-6.847-1.648-8.7-0.451" fill="#0d131a"/>
  </g>
  <g transform="matrix(2.9392 0 0 -2.9392 63.205 146.99)">
   <path d="m0 0c-1.836 3.223-1.974 7.234 0.167 8.377 1.743 0.928 3.222 0.465 4.865-1.566l-0.057 0.578c-1.34 1.537-2.904 2.312-4.928 1.234-2.303-1.228-2.292-5.383-0.322-8.838 1.494-2.623 3.54-4.744 5.689-5.857l0.123 0.4c-2.095 1.094-4.074 3.104-5.537 5.672" fill="#0d131a"/>
  </g>
  <g transform="matrix(2.9392 0 0 -2.9392 78.126 128.18)">
   <path d="m0 0c-1.713 0.664-5.945-1.193-5.918-4.785l0.359-0.885c-0.901 3.932 3.914 6.19 5.613 5.365z" fill="#0d131a"/>
  </g>
  <g transform="matrix(2.9392 0 0 -2.9392 81.74 139.75)">
   <path d="m0 0c-2.206-0.354-4.888-2.688-4.522-5.217l0.354-0.41c-0.802 2.596 2.26 5.055 4.187 5.371z" fill="#0d131a"/>
  </g>
  <g transform="matrix(2.9392 0 0 -2.9392 73.126 144.69)">
   <path d="m0 0c-0.758 0.873-2.302 3.031-2.803 3.904l-0.177-0.201c0.561-0.951 1.993-3.029 2.748-3.892z" fill="#0d131a"/>
  </g>
  <g transform="matrix(2.9392 0 0 -2.9392 69.28 150.79)">
   <path d="m0 0-0.09-0.287c0.813-0.926 2.575-2.533 3.887-3.371l0.103 0.285c-1.348 0.867-3.167 2.496-3.9 3.373" fill="#0d131a"/>
  </g>
  <g transform="matrix(2.9392 0 0 -2.9392 56.507 122.91)">
   <path d="m0 0c-0.144-0.191 0.395-1.26 0.845-1.801l0.093 0.358c-0.368 0.464-0.718 1.177-0.684 1.22 0.033 0.043 0.633-0.257 1.014-0.476l0.181 0.256c-0.724 0.338-1.35 0.574-1.449 0.443" fill="#0d131a"/>
  </g>
  <g transform="matrix(2.9392 0 0 -2.9392 66.3 120.75)">
   <path d="m0 0c-0.471 0.762-1 1.377-1.16 1.342-0.204-0.045-0.488-1.11-0.453-2.207l0.288 0.242c-0.019 0.939 0.148 1.658 0.223 1.676 0.075 0.015 0.405-0.494 0.804-1.168z" fill="#0d131a"/>
  </g>
  <g transform="matrix(2.9392 0 0 -2.9392 70.812 116.84)">
   <path d="m0 0c-0.211 0.078-0.671-0.627-0.936-1.246l0.311 0.01c0.156 0.392 0.496 0.98 0.551 0.966 0.053-0.013 0.128-0.539 0.22-1.107l0.322-0.105c-0.126 0.668-0.288 1.416-0.468 1.482" fill="#0d131a"/>
  </g>
  <g transform="matrix(2.9392 0 0 -2.9392 128.02 213.21)">
   <path d="m0 0c-10.941-2.645-15.076 2.127-16.422 6.799-1.374 4.771-0.735 9.564 1.875 13.668l-0.136 0.363c-2.754-4.209-3.518-9.209-2.102-14.127 2.524-8.764 10.969-8.473 17.102-6.957z" fill="#0d131a"/>
  </g>
  <g transform="matrix(2.9392 0 0 -2.9392 82.951 213.48)">
   <path d="m0 0c-3.116 0.605-5.165 2.936-5.902 6.629-0.744 3.726 1.548 7.535 4.188 8.234l0.085 0.328c-3.561-0.834-5.408-5.322-4.742-8.66 0.759-3.804 3.056-6.285 6.325-6.783 0.826-0.125 0.972 0.072 0.046 0.252" fill="#0d131a"/>
  </g>
  <g transform="matrix(2.9392 0 0 -2.9392 91.39 213.97)">
   <path d="m0 0c-0.403-0.047-0.394-0.197 0.011-0.211 0.577-0.019 1.331 0.08 1.901 0.223l-0.534 0.232c-0.518-0.131-0.921-0.189-1.378-0.244" fill="#0d131a"/>
  </g>
  <g transform="matrix(2.9392 0 0 -2.9392 98.41 214.29)">
   <path d="m0 0-0.523 0.158c0.258-0.293 0.437-0.633 0.384-0.99-0.159-1.086-2.749-3.166-5.094-3.481-0.147-0.019-0.399-0.035-0.535 0.047l-0.142-0.326c0.225-0.096 0.488-0.092 0.7-0.064 2.455 0.312 5.261 2.459 5.45 3.746 0.043 0.291-0.04 0.599-0.24 0.91" fill="#0d131a"/>
  </g>
  <g transform="matrix(2.9392 0 0 -2.9392 68.051 229.03)">
   <path d="m0 0c0.059-0.08 0.275-0.117 0.573-0.055l0.193 0.364c-0.228-0.1-0.452-0.163-0.524-0.108-0.158 0.115 1.09 3.238 4.318 4.994l-0.418 0.123c-3.219-1.855-4.474-4.863-4.142-5.318" fill="#0d131a"/>
  </g>
  <g transform="matrix(2.9392 0 0 -2.9392 70.103 229.66)">
   <path d="m0 0c0.051-0.119 2.065 0.199 3.585 0.873 0.091 0.041 0.108 0.088 0.082 0.178-0.289 0.99-0.955 1.549-1.424 1.402-0.678-0.211-2.324-2.264-2.243-2.453m-0.243-0.107c-0.16 0.527 1.715 2.627 2.387 2.836 0.689 0.214 1.574-0.495 1.857-1.68 0.056-0.235 0.033-0.32-0.248-0.445-1.701-0.752-3.893-1.051-3.996-0.711" fill="#0d131a"/>
  </g>
  <g transform="matrix(2.9392 0 0 -2.9392 72.822 220.5)">
   <path d="m0 0-0.262-0.287c0.58 0.207 0.908-0.174 0.949-0.557l0.256 0.188c-0.117 0.437-0.471 0.693-0.943 0.656" fill="#0d131a"/>
  </g>
  <g transform="matrix(2.9392 0 0 -2.9392 85.457 205.78)">
   <path d="m0 0-0.189 0.217c-1.751-0.438-4.043-2e-3 -5.874 1.096l0.209-0.415c1.824-0.988 3.999-1.41 5.854-0.898" fill="#0d131a"/>
  </g>
  <g transform="matrix(2.9392 0 0 -2.9392 66.406 181)">
   <path d="m0 0-0.108-0.293c1.279-1.795 2.996-2.066 3.994-2.031l-0.041 0.254c-1.521-0.041-3.016 0.81-3.845 2.07" fill="#0d131a"/>
  </g>
  <g transform="matrix(2.9392 0 0 -2.9392 76.645 187.48)">
   <path d="m0 0-0.253 0.035c-0.099-1.799 0.388-4.447 1.338-6.301l0.298-0.013c-0.938 1.73-1.473 4.584-1.383 6.279" fill="#0d131a"/>
  </g>
  <g transform="matrix(2.9392 0 0 -2.9392 150.48 216.18)">
   <path d="m0 0c1.65 0.725 3.506 2.277 4.287 5.891 0.784 3.629-1.116 8.115-4.497 8.396-0.615 0.051-0.6 0.264 0.015 0.254 2.951-0.041 5.954-4.223 4.98-8.728-0.813-3.754-2.895-5.379-4.697-6.042-0.758-0.277-0.809-0.087-0.088 0.229" fill="#0d131a"/>
  </g>
  <g transform="matrix(2.9392 0 0 -2.9392 141 218.49)">
   <path d="m0 0c-2.939 0.162-5.276 1.721-5.946 3.871-1.243 3.988 1.415 10.166 6.442 11.24 0.633 0.135 0.669-0.072 0.04-0.23-5.442-1.358-7.038-7.893-6.103-10.891 0.629-2.017 2.858-3.529 5.587-3.758 0.832-0.07 0.798-0.279-0.02-0.232" fill="#0d131a"/>
  </g>
  <g transform="matrix(2.9392 0 0 -2.9392 160.28 180.51)">
   <path d="m0 0c-1.245-4.707-10.302-5.074-11.662-2.959l-0.121-0.262c1.734-2.174 10.408-1.927 11.964 2.93z" fill="#0d131a"/>
  </g>
  <g transform="matrix(2.9392 0 0 -2.9392 124.25 207.34)">
   <path d="m0 0 0.15-0.428c3.531-2.367 10.707-0.726 13.09 2.559l0.143 0.711c-1.838-3.539-9.979-5.502-13.383-2.842" fill="#0d131a"/>
  </g>
  <g transform="matrix(2.9392 0 0 -2.9392 153.02 189.82)">
   <path d="m0 0-0.226-0.121c0.992-1.604 0.978-3.943 0.76-5.807l0.317 0.153c0.2 1.871 0.136 4.164-0.851 5.775" fill="#0d131a"/>
  </g>
  <g transform="matrix(2.9392 0 0 -2.9392 133.79 193.21)">
   <path d="m0 0-0.254 0.029c-0.245-1.41-0.461-4.289-0.176-6.033l0.311-0.06c-0.309 1.705-0.129 4.65 0.119 6.064" fill="#0d131a"/>
  </g>
  <g transform="matrix(2.9392 0 0 -2.9392 128.78 95.14)">
   <path d="m0 0c-7.024 3.299-13.233 0.396-15.984-4.369-1.935-3.35-1.905-7.736-0.107-9.695l-3e-3 0.437c-1.495 1.975-1.355 5.986 0.419 9.059 3.009 5.211 9.172 7.189 15.497 4.218 6.201-2.912 8.481-9.714 5.537-16.009-1.894-4.057-6.013-5.748-10.999-4.495l-0.907-9e-3c5.661-1.758 10.181-0.059 12.23 4.326 3.061 6.549 0.683 13.547-5.683 16.537" fill="#0d131a"/>
  </g>
  <g transform="matrix(2.9392 0 0 -2.9392 106.63 121.9)">
   <path d="m0 0c-1.702 0.953-3.944 1.002-5.663 0.166l-0.072-0.322c1.667 0.898 3.914 0.84 5.606-0.11 2.01-1.125 3.553-3.339 3.817-5.451l0.248 0.069c-0.29 2.175-1.872 4.494-3.936 5.648" fill="#0d131a"/>
  </g>
  <g transform="matrix(2.9392 0 0 -2.9392 106.23 121.98)">
   <path d="m 0,0 0.267,-0.146 c 0.476,0.712 1.4,1.945 1.906,2.531 L 1.934,2.498 C 1.394,1.867 0.461,0.691 0,0" fill="#0d131a"/>
  </g>
  <g transform="matrix(2.9392 0 0 -2.9392 114.07 115.07)">
   <path d="m0 0c-2.539 1.441-5.398 1.824-7.524 1.078l0.032-0.258c2.043 0.731 4.854 0.299 7.311-1.097 2.501-1.42 4.18-3.571 4.568-5.879l0.242 0.095c-0.417 2.366-2.081 4.614-4.629 6.061" fill="#0d131a"/>
  </g>
  <g transform="matrix(2.9392 0 0 -2.9392 117.19 108.52)">
   <path d="m0 0c-6.764 3.588-11.81-0.658-12.824-4.627-0.294-1.148-0.303-2.406 0.085-3.713l0.535-0.935c-0.682 1.712-0.711 3.254-0.359 4.586 0.837 3.162 5.184 8.181 12.423 4.4 5.135-2.684 7.606-8.649 4.055-13.772-0.836-1.205-1.973-2.181-3.376-2.699l0.551-0.053c1.354 0.592 2.38 1.506 3.126 2.577 3.223 4.634 1.869 11.007-4.216 14.236" fill="#0d131a"/>
  </g>
  <g transform="matrix(2.9392 0 0 -2.9392 125.21 99.262)">
   <path d="m0 0c-5.193 2.895-11.475 1.256-14.714-3.324l-0.834-1.985c2.659 5.971 9.907 8.141 15.419 5.069 7.885-4.393 7.754-16.088 0.186-19.612l0.841 0.145c6.944 3.869 7.165 15.215-0.898 19.707" fill="#0d131a"/>
  </g>
  <g transform="matrix(2.9392 0 0 -2.9392 130.85 96.977)">
   <path d="m0 0-0.281 0.152c-0.548-0.261-1.123-0.67-1.524-1.113l0.262-0.141c0.418 0.454 0.987 0.872 1.543 1.102" fill="#0d131a"/>
  </g>
  <g transform="matrix(2.9392 0 0 -2.9392 107.8 95.582)">
   <path d="m0 0-0.343-0.014c-0.685-0.865-1.736-2.718-1.857-3.22-0.109-0.446-0.132-1.317-0.099-2.082l0.256-0.032c-0.036 0.752 0.049 1.682 0.153 2.118 0.112 0.457 1.231 2.509 1.89 3.23" fill="#0d131a"/>
  </g>
  <g transform="matrix(2.9392 0 0 -2.9392 129.87 120.55)">
   <path d="m0 0c-0.449-0.418-1.426-1.373-1.777-1.73l0.14-0.223c0.4 0.412 1.392 1.287 1.803 1.67 0.21 0.195 2.225 1.467 3.188 1.838l-0.096 0.236c-0.981-0.383-2.998-1.551-3.258-1.791" fill="#0d131a"/>
  </g>
  <g transform="matrix(2.9392 0 0 -2.9392 97.253 83.067)">
   <path d="m0 0c-0.584-0.195-2.22-3.48-2.674-5.602l0.508 0.446c0.503 1.963 1.778 4.758 2.246 4.914 0.297 0.094 2.352-1.52 3.402-2.735l0.612 0.038c-0.712 0.839-3.455 3.154-4.094 2.939" fill="#0d131a"/>
  </g>
  <g transform="matrix(2.9392 0 0 -2.9392 147.81 132.88)">
   <path d="m0 0c-0.05 0.098-0.157 0.299-0.235 0.408l-0.176-0.113c0.077-0.117 0.176-0.34 0.233-0.492z" fill="#0d131a"/>
  </g>
  <g transform="matrix(2.9392 0 0 -2.9392 139.68 151.52)">
   <path d="m0 0-0.209-0.209c1.393-1.494 2.202-4.324 1.963-6.885-0.043-0.455 0.15-0.5 0.203-0.027 0.303 2.687-0.501 5.564-1.957 7.121" fill="#0d131a"/>
  </g>
  <g transform="matrix(2.9392 0 0 -2.9392 146.71 139.52)">
   <path d="m0 0-0.092-0.281c2.605-2.942 4.113-8.047 3.663-12.422l0.237-0.197c0.546 4.689-0.954 9.781-3.808 12.9" fill="#0d131a"/>
  </g>
  <g transform="matrix(2.9392 0 0 -2.9392 148.11 134.7)">
   <path d="m0 0-0.098-0.406c3.276-3.631 4.707-9.602 3.661-14.395l0.3-0.353c1.235 5.349-0.217 11.203-3.863 15.154" fill="#0d131a"/>
  </g>
  <g transform="matrix(2.9392 0 0 -2.9392 154.33 153.18)">
   <path d="m0 0c-0.59-0.635-2.42-2.178-3.406-2.77l0.067-0.308c0.996 0.584 2.724 2.082 3.433 2.807z" fill="#0d131a"/>
  </g>
  <g transform="matrix(2.9392 0 0 -2.9392 157.4 164.81)">
   <path d="m 0,0 0.035,-0.365 c 0.272,0.246 0.57,0.65 0.776,0.969 L 0.759,1.023 C 0.637,0.775 0.313,0.326 0,0" fill="#0d131a"/>
  </g>
  <g transform="matrix(2.9392 0 0 -2.9392 131.24 215.49)">
   <path d="m0 0-0.239 0.168c-0.238-1.758 1.956-4.752 3.797-4.939l-0.074 0.386c-1.681 0.207-3.549 2.967-3.484 4.385" fill="#0d131a"/>
  </g>
  <g transform="matrix(2.9392 0 0 -2.9392 152.33 215.82)">
   <path d="m0 0-0.228-0.137c0.863-0.732 1.332-1.873 1.281-2.783l0.277-0.383c0.285 1.104-0.456 2.614-1.33 3.303" fill="#0d131a"/>
  </g>
  <g transform="matrix(2.9392 0 0 -2.9392 141.41 228.82)">
   <path d="m0 0h2e-3zm0.117-0.049m0.192-0.078c0.671-0.471 3.408-1.789 3.496-1.707 0.059 0.055-0.483 2.367-0.954 2.74-0.919 0.727-1.807 0.692-2.608-0.74-0.073-0.133-0.073-0.197 0.066-0.293m-0.455 0.158c0.846 1.961 2.105 2.073 3.177 1.078 0.486-0.449 1.242-2.959 0.963-3.224-0.201-0.19-4.349 1.66-4.14 2.146" fill="#0d131a"/>
  </g>
  <g transform="matrix(2.9392 0 0 -2.9392 156.22 224.66)">
   <path d="m0 0c-0.664 0.986-1.795 0.516-2.208-0.254l0.193-0.174c0.38 0.737 1.266 1.006 1.779 0.246 0.297-0.439 0.026-2.806-0.132-2.882-0.079-0.04-0.534 0.337-0.858 0.668l0.127-0.475c0.361-0.322 0.703-0.524 0.859-0.463 0.283 0.115 0.631 2.756 0.24 3.334" fill="#0d131a"/>
  </g>
  <g transform="matrix(2.9392 0 0 -2.9392 131.19 133.69)">
   <path d="m0 0c-0.344 0.396-1.62 0.137-2.437-0.588-0.763-0.682-0.942-1.34-0.623-1.672 0.391-0.402 1.51-0.232 2.266 0.272 0.891 0.593 1.185 1.535 0.794 1.988" fill="#fff"/>
  </g>
  <g transform="matrix(2.9392 0 0 -2.9392 129.89 142.17)">
   <path d="m0 0c-0.196 0.248-0.771 0.137-1.292-0.23-0.563-0.397-0.975-1.252-0.844-1.475 0.285-0.488 2.518 1.221 2.136 1.705" fill="#004898"/>
  </g>
  <g transform="matrix(2.9392 0 0 -2.9392 84.065 117.43)">
   <path d="m0 0c0.295-0.029 0.384-0.609 0.272-1.104-0.125-0.548-0.571-1.429-0.855-1.332-0.259 0.088 0.062 2.489 0.583 2.436" fill="#004898"/>
  </g>
  <g transform="matrix(2.9392 0 0 -2.9392 176.93 151.95)">
   <path d="m0 0c-0.96-0.994-3.311-2.828-5.635-4.299l0.028-0.459c2.389 1.533 4.854 3.51 5.809 4.545 0.39 0.42 0.846 0.305 0.794-0.664-0.157-2.922-1.403-8.391-5.268-12.48v-0.68c4.13 4.033 5.404 10.144 5.565 13.146 0.073 1.362-0.745 1.457-1.293 0.891" fill="#0d131a"/>
  </g>
  <g transform="matrix(2.9392 0 0 -2.9392 162 164.29)">
   <path d="m0 0-0.436-0.318c2.37 0.492 5.151-2.071 3.983-5.336l0.491 0.892c0.44 2.959-1.93 4.889-4.038 4.762" fill="#0d131a"/>
  </g>
  <g transform="matrix(2.9392 0 0 -2.9392 163.57 177.43)">
   <path d="m0 0c-0.382 0.453-0.794 0.824-1.227 1.119l-0.022-0.334c0.401-0.303 0.738-0.646 1.012-0.971 1.154-1.367 1.398-2.921 0.676-4.513l0.425 0.381c0.518 1.515 0.242 3.007-0.864 4.318" fill="#0d131a"/>
  </g>
  <g transform="matrix(2.9392 0 0 -2.9392 165.28 165.23)">
   <path d="m0 0c-0.415-0.336-1.027-0.742-1.683-1.133l-0.022-0.336c0.79 0.475 1.538 0.985 1.998 1.383z" fill="#0d131a"/>
  </g>
  <g transform="matrix(2.9392 0 0 -2.9392 165.89 182.61)">
   <path d="m0 0-0.096 0.275c-0.275-0.308-0.642-0.632-1.022-0.916l0.105-0.281c0.368 0.27 0.728 0.617 1.013 0.922" fill="#0d131a"/>
  </g>
  <g transform="matrix(2.9392 0 0 -2.9392 147.33 116.7)">
   <path d="m0 0c-0.525-0.145-1.846-4.02-1.827-5.594 0.196-0.017 0.587-0.029 0.862-0.025 0.781 0.623 2.35 1.279 2.509 1.098 0.098-0.114-1.264-0.985-1.456-1.106 0.085-8e-3 0.341-0.023 0.426-0.031 0.637 0.207 3.478 1.609 3.537 2.527 0.065 1.022-3.779 3.207-4.051 3.131" fill="#fff"/>
  </g>
  <g transform="matrix(2.9392 0 0 -2.9392 151.87 129.99)">
   <path d="m0 0c-0.112 0.127-0.923-0.16-1.666-0.559l0.205-0.546h5e-3c0.192 0.121 1.554 0.992 1.456 1.105" fill="#0d131a"/>
  </g>
  <g transform="matrix(2.9392 0 0 -2.9392 135.43 178.91)">
   <path d="m0 0c-3.271-2.449-6.068-3.766-8.487-2.031-3.613 2.59 0.813 5.863 3.049 8.219 3.039 3.199 5.217 3.982 6.729 2.435 1.933-1.977 1.477-6.551-1.291-8.623" fill="#d3edfb"/>
  </g>
  <g transform="matrix(2.9392 0 0 -2.9392 117.02 164.92)">
   <path d="m0 0c-1.85-1.775-2.607-3.525-1.475-4.148 1-0.551 3.924 0.693 5.576 2.523 2.299 2.551 1.872 4.393 0.799 4.65-1.25 0.301-2.855-1.062-4.9-3.025" fill="#fff"/>
  </g>
  <g transform="matrix(2.9392 0 0 -2.9392 142.25 159.48)">
   <path d="m0 0c-1.085-3.816-7.84-8.221-11.112-8.408 0.094-0.078 0.196-0.158 0.304-0.237 2.419-1.734 5.216-0.418 8.488 2.032 2.039 1.527 2.821 4.408 2.32 6.613" fill="#a0d2f2"/>
  </g>
  <g transform="matrix(2.9392 0 0 -2.9392 118.59 187.06)">
   <path d="m0 0c-0.201-0.219-1.841-1.104-2.029-0.928-0.135 0.125 0.447 0.862 0.612 1.059 0.112 0.135 1.499-0.043 1.417-0.131" fill="#efefef"/>
  </g>
  <g transform="matrix(2.9392 0 0 -2.9392 111.94 185.58)">
   <path d="m0 0c-0.24-0.354-1.631-1.188-1.724-1.111-0.094 0.074 0.344 1.781 0.605 1.986 0.665 0.525 1.463-0.367 1.119-0.875" fill="#efefef"/>
  </g>
  <g transform="matrix(2.9392 0 0 -2.9392 107.57 181.93)">
   <path d="m0 0c0.132 0.043-0.026 1.303-0.3 1.238-0.186-0.045-1.073-1.564-0.937-1.687 0.068-0.063 0.931 0.351 1.237 0.449" fill="#efefef"/>
  </g>
  <g transform="matrix(2.9392 0 0 -2.9392 118.59 187.06)">
   <path d="m0 0c0.041 0.043-0.288 0.109-0.641 0.148-0.134-0.386-0.912-0.812-1.394-1.066 2e-3 -2e-3 3e-3 -8e-3 6e-3 -0.01 0.188-0.176 1.828 0.709 2.029 0.928" fill="#c9caca"/>
  </g>
  <g transform="matrix(2.9392 0 0 -2.9392 111.94 185.58)">
   <path d="m0 0c0.168 0.248 0.063 0.586-0.164 0.807 0.063-0.661-0.917-1.366-1.574-1.862 1e-3 -0.029 5e-3 -0.05 0.014-0.056 0.093-0.077 1.484 0.757 1.724 1.111" fill="#c9caca"/>
  </g>
  <g transform="matrix(2.9392 0 0 -2.9392 107.57 181.93)">
   <path d="m0 0c0.08 0.025 0.053 0.5-0.042 0.855-0.106-0.57-0.677-0.9-1.205-1.287 2e-3 -7e-3 5e-3 -0.013 0.01-0.017 0.068-0.063 0.931 0.351 1.237 0.449" fill="#c9caca"/>
  </g>
  <g transform="matrix(2.9392 0 0 -2.9392 110.56 175.35)">
   <path d="m0 0c7e-3 -0.359-0.074-0.766-0.4-0.783-0.205-0.01-0.321 0.387-0.299 0.726 0.025 0.381 0.199 0.602 0.349 0.625 0.207 0.03 0.343-0.23 0.35-0.568" fill="#fff"/>
  </g>
  <g transform="matrix(2.9392 0 0 -2.9392 147.47 116.7)">
   <path d="m0 0c-0.019 4e-3 -0.036 6e-3 -0.047 2e-3 -0.512-0.141-1.781-3.83-1.825-5.473l1.968 1.332c-0.408 0.91-0.643 2.7-0.096 4.139" fill="#d3edfb"/>
  </g>
  <g transform="matrix(2.9392 0 0 -2.9392 141.96 132.87)">
   <path d="m0 0c0-0.031-1e-3 -0.063-1e-3 -0.092 0.196-0.017 0.587-0.029 0.862-0.025 0.782 0.623 2.35 1.279 2.509 1.097 0.098-0.113-1.264-0.984-1.456-1.105 0.085-8e-3 0.341-0.023 0.426-0.031 0.632 0.205 3.422 1.582 3.533 2.5-1.74 0.359-4.521-0.944-5.873-2.344" fill="#a0d2f2"/>
  </g>
  <g transform="matrix(2.9392 0 0 -2.9392 105.17 181.73)">
   <path d="M 0,0 C -0.03,0.035 0.333,0.662 0.388,0.736 0.445,0.811 0.561,0.629 0.503,0.539 0.41,0.395 0.049,-0.055 0,0" fill="#f7f8f8"/>
  </g>
  <g transform="matrix(2.9392 0 0 -2.9392 113.47 188.91)">
   <path d="M 0,0 C 0.04,-0.023 0.585,0.455 0.647,0.523 0.709,0.594 0.509,0.672 0.432,0.598 0.308,0.479 -0.063,0.037 0,0" fill="#f7f8f8"/>
  </g>
  <g transform="matrix(2.9392 0 0 -2.9392 108.02 186.92)">
   <path d="M 0,0 C -0.058,0.006 0.237,0.904 0.285,0.984 0.429,1.225 0.914,1.189 0.782,0.928 0.705,0.773 0.073,-0.008 0,0" fill="#f7f8f8"/>
  </g>
  <g transform="matrix(2.9392 0 0 -2.9392 71.848 228.09)">
   <path d="M 0,0 C -0.086,0.078 1.234,1.449 1.415,1.596 1.748,1.867 2.245,1.396 1.878,1.115 1.607,0.906 0.102,-0.094 0,0" fill="#f7f8f8"/>
  </g>
  <g transform="matrix(2.9392 0 0 -2.9392 70.301 225.68)">
   <path d="M 0,0 C -0.045,0.025 0.637,1.08 0.701,1.164 0.818,1.318 1.129,1.307 0.976,1.076 0.89,0.947 0.057,-0.031 0,0" fill="#f7f8f8"/>
  </g>
  <g transform="matrix(2.9392 0 0 -2.9392 151.68 232.81)">
   <path d="m0 0c0.107 0.043-0.438 1.479-0.688 1.889-0.398 0.648-1.152 0.564-0.841 0.058 0.179-0.289 1.399-2 1.529-1.947" fill="#f7f8f8"/>
  </g>
  <g transform="matrix(2.9392 0 0 -2.9392 155.04 231.87)">
   <path d="m0 0c0.075 4e-3 0.021 1.826-0.063 2.152-0.07 0.268-0.543 0.377-0.484-0.011 0.033-0.217 0.458-2.147 0.547-2.141" fill="#f7f8f8"/>
  </g>
  <g transform="matrix(2.9392 0 0 -2.9392 148.43 133.01)">
   <path d="m0 0c6e-3 0 0.14-8e-3 0.145-0.01 0.711 0.244 3.33 1.629 3.38 2.428 0.047 0.723-3.459 3.023-3.87 2.969-0.299-0.039-1.647-3.551-1.691-5.295 0.156-0.01 0.344-0.029 0.528-0.033 0.082-2e-3 0.164 0.031 0.24 0.084 0.751 0.533 2.325 1.22 2.541 0.951 0.104-0.129-0.505-0.617-1.273-1.094m-0.375-0.172c-0.044 0.033-0.025 0.172 0.021 0.203 0.459 0.297 1.38 0.848 1.34 0.922-0.048 0.09-1.461-0.529-2.18-1.072-0.061-0.045-0.138-0.078-0.24-0.08-0.285 0-0.667 8e-3 -0.841 0.023-0.065 6e-3 -0.115 0.061-0.116 0.127-0.017 1.461 1.349 5.584 2.01 5.766 0.377 0.103 4.295-2.135 4.219-3.326-0.068-1.063-3.497-2.618-3.675-2.633-0.136-0.01-0.479 0.027-0.538 0.07" fill="#0d131a"/>
  </g>
  <g transform="matrix(2.9392 0 0 -2.9392 142.08 132.18)">
   <path d="M 0,0 0.035,-0.373 C 1.302,0.982 3.797,2.227 5.513,2.029 5.641,2.016 5.62,1.898 5.554,1.811 L 5.757,1.982 C 5.771,2.164 5.692,2.25 5.525,2.266 3.807,2.42 1.339,1.311 0,0" fill="#0d131a"/>
  </g>
  <g transform="matrix(2.9392 0 0 -2.9392 114.15 187.17)">
   <path d="m0 0 0.176 0.25c-0.299 0.074-0.588 0.186-0.871 0.336l-0.215-0.176c0.302-0.178 0.605-0.312 0.91-0.41" fill="#0d131a"/>
  </g>
  <g transform="matrix(2.9392 0 0 -2.9392 108.26 183.48)">
   <path d="m0 0 0.161 0.221c-0.11 0.125-0.204 0.252-0.282 0.381l-0.282-0.096c0.109-0.17 0.243-0.338 0.403-0.506" fill="#0d131a"/>
  </g>
  <g transform="matrix(2.9392 0 0 -2.9392 139.49 153.59)">
   <path d="m0 0c-1.916 1.961-4.417 0.316-6.936-2.334-1.79-1.887-4.678-4.137-4.465-6.281l0.338 0.248c0.067 2.01 2.787 4.185 4.345 5.826 2.426 2.555 4.842 4.062 6.504 2.361 1.937-1.978 1.275-6.394-1.264-8.293-2.138-1.601-3.943-2.595-5.517-2.783l-0.509-0.367c1.836-0.057 3.823 1.08 6.217 2.873 2.763 2.068 3.433 6.557 1.287 8.75" fill="#0d131a"/>
  </g>
  <g transform="matrix(2.9392 0 0 -2.9392 141.58 157.76)">
   <path d="m0 0c-0.429-0.979-1.505-2.619-2.245-3.449l0.112-0.291c0.706 0.754 1.744 2.349 2.26 3.408z" fill="#0d131a"/>
  </g>
  <g transform="matrix(2.9392 0 0 -2.9392 125 160.09)">
   <path d="m0 0-0.313 0.01c-0.766-0.959-2.813-3.022-3.456-3.571l0.298-0.132c0.819 0.734 2.825 2.834 3.471 3.693" fill="#0d131a"/>
  </g>
  <g transform="matrix(2.9392 0 0 -2.9392 134.73 166.5)">
   <path d="m0 0c-0.887 1.619-2.889 2.836-4.969 2.17l-0.354-0.41c2.104 0.957 4.16-0.246 5.057-1.883 1.254-2.287-0.118-4.445-1.592-5.369-0.061-0.037 0.113-0.229 0.135-0.215 2.511 1.57 2.56 4.18 1.723 5.707" fill="#0d131a"/>
  </g>
  <g transform="matrix(2.9392 0 0 -2.9392 110.55 169.98)">
   <path d="m0 0-0.258-0.322c2.277 0.738 5.054-3.317 3.785-5.332l0.323 0.058c1.075 2.182-1.386 5.961-3.85 5.596" fill="#0d131a"/>
  </g>
  <g transform="matrix(2.9392 0 0 -2.9392 114.68 186.96)">
   <path d="m0 0c-0.102-0.063-0.654-0.785-0.581-0.855 0.093-0.092 1.685 0.712 1.663 0.792-0.016 0.055-0.982 0.126-1.082 0.063m-0.786-1.057c-0.193 0.18 0.326 0.905 0.6 1.235 0.145 0.172 1.63 0.017 1.689-0.162 0.057-0.174-2.026-1.315-2.289-1.073" fill="#0d131a"/>
  </g>
  <g transform="matrix(2.9392 0 0 -2.9392 111.61 185.36)">
   <path d="m0 0c-0.188-0.275-1.441-1.064-1.489-1.029-0.048 0.037 0.397 1.58 0.575 1.72 0.477 0.377 1.211-0.252 0.914-0.691m-1.102 0.9c-0.229-0.181-0.753-2.054-0.587-2.187 0.163-0.131 1.656 0.754 1.921 1.146 0.452 0.664-0.607 1.616-1.334 1.041" fill="#0d131a"/>
  </g>
  <g transform="matrix(2.9392 0 0 -2.9392 107.28 181.54)">
   <path d="m0 0c-0.048-0.039-0.982-0.459-1.004-0.432-0.041 0.055 0.705 1.409 0.822 1.387 0.113-0.021 0.268-0.887 0.182-0.955m-0.234 1.25c-0.307-0.088-1.216-1.721-0.991-1.926 0.125-0.113 1.278 0.367 1.372 0.412 0.305 0.145 6e-3 1.627-0.381 1.514" fill="#0d131a"/>
  </g>
  <g transform="matrix(2.9392 0 0 -2.9392 149.41 143.55)">
   <path d="m0 0c0.227 0.148 0.721 0.6 0.912 0.9 0.038 0.059 0.253-0.078 0.215-0.138-0.219-0.344-0.74-0.815-0.987-0.975-0.022-0.014-0.199 0.174-0.14 0.213" fill="#0d131a"/>
  </g>
 </g>
</svg>
