<?xml version="1.0" encoding="UTF-8"?>
<!-- Created with Inkscape (http://www.inkscape.org/) -->
<svg version="1.1" viewBox="0 0 130.86 136.69" xmlns="http://www.w3.org/2000/svg" xmlns:cc="http://creativecommons.org/ns#" xmlns:dc="http://purl.org/dc/elements/1.1/" xmlns:rdf="http://www.w3.org/1999/02/22-rdf-syntax-ns#">
 <metadata>
  <rdf:RDF>
   <cc:Work rdf:about="">
    <dc:format>image/svg+xml</dc:format>
    <dc:type rdf:resource="http://purl.org/dc/dcmitype/StillImage"/>
   </cc:Work>
  </rdf:RDF>
 </metadata>
 <g transform="translate(29.225 -50.961)">
  <g fill="#ffffff" font-family="'A-OTF UD Shin Go Pro M'" font-size="7.2445px" font-weight="bold">
   <text x="304.16608" y="-38.603012"/>
   <text x="336.48477" y="-83.836647"/>
   <text x="575.62091" y="-98.521767"/>
   <text x="556.68439" y="-45.33176"/>
   <text x="606.71539" y="-94.369888"/>
   <text x="909.5191" y="-234.29292"/>
   <text x="631.25391" y="-35.576813"/>
   <text x="277.05731" y="-152.32875"/>
   <text x="430.15726" y="-14.805799"/>
   <text x="592.17401" y="-31.757345"/>
   <text x="767.68079" y="-40.057655"/>
   <text x="873.01318" y="23.271799"/>
   <text x="263.92993" y="95.74691"/>
  </g>
  <g fill="#72af2d" font-family="'A-OTF UD Shin Go Pro M'" font-size="12.365px" font-weight="bold" stroke-width="1.9023">
   <text x="841.73029" y="-99.450714"><tspan x="841.73029" y="-99.450714"/><tspan x="913.06366" y="-44.599792"/></text>
   <text x="913.06653" y="-44.601685"><tspan x="913.06653" y="-44.601685"/><tspan x="838.40692" y="13.736129"/></text>
   <text x="838.40125" y="13.736129"><tspan x="838.40125" y="13.736129"/><tspan x="946.82941" y="-78.531105"/></text>
   <text x="946.8324" y="-78.525429"><tspan x="946.8324" y="-78.525429"/><tspan x="826.62024" y="-163.4355"/></text>
   <text x="826.61768" y="-163.44133"><tspan x="826.61768" y="-163.44133"/><tspan x="816.72565" y="-184.28871"/></text>
   <text x="816.71973" y="-184.28316"><tspan x="816.71973" y="-184.28316"/><tspan x="828.56537" y="-190.04523"/></text>
   <text x="828.56824" y="-190.04964"><tspan x="828.56824" y="-190.04964"/><tspan x="877.55823" y="-215.49669"/></text>
   <text x="877.55249" y="-215.49287"><tspan x="877.55249" y="-215.49287"/><tspan x="815.72778" y="-197.06912"/></text>
   <text x="815.72778" y="-197.06435"><tspan x="815.72778" y="-197.06435"/><tspan x="813.5144" y="-167.61104"/></text>
   <text x="813.50964" y="-167.61391"><tspan x="813.50964" y="-167.61391"/><tspan x="799.83398" y="-186.61885"/></text>
  </g>
  <g transform="matrix(1.9023 0 0 -1.9023 77.766 142.24)">
   <path d="m0 0c2.443-3.254 9.481-8.945 11.734-10.125 0.954-0.499 0.745-1.444-0.737-1.737-5.08-1.005-14.05-0.883-20.827 3.604z" fill="#d3edfb"/>
  </g>
  <g transform="matrix(1.9023 0 0 -1.9023 70.262 148.54)">
   <path d="m0 0c6.162-4.962 11.426-7.096 16.246-7.66 0.055 0.306-0.136 0.625-0.567 0.849-2.253 1.18-9.291 6.872-11.735 10.125z" fill="#fff"/>
  </g>
  <g transform="matrix(1.9023 0 0 -1.9023 66.829 151.42)">
   <path d="m0 0-2.438-2.597c5.673-3.885 16.394-5.411 20.416-3.751-7.198-0.207-13.002 2.291-17.978 6.348" fill="#a0d2f2"/>
  </g>
  <g transform="matrix(1.9023 0 0 -1.9023 100.27 161.14)">
   <path d="m0 0c-1.737 0.994-6.925 5.062-9.778 7.995l0.054-0.869c2.99-3.07 7.704-6.515 9.496-7.486 0.731-0.397 0.731-1.078-0.648-1.351-4.158-0.823-12.287-1.024-19.407 2.945l-0.955-0.242c7.136-4.362 16.175-3.971 20.449-3.126 1.937 0.383 1.781 1.567 0.789 2.134" fill="#0d131a"/>
  </g>
  <g transform="matrix(1.9023 0 0 -1.9023 85.605 150.43)">
   <path d="m0 0-0.603 0.497c1.537-3.151-1.072-7.973-6.075-7.496l1.432-0.371c4.311 0.436 6.175 4.452 5.246 7.37" fill="#0d131a"/>
  </g>
  <g transform="matrix(1.9023 0 0 -1.9023 74.022 154.89)">
   <path d="m0 0c0.499 0.698 0.875 1.41 1.133 2.123l-0.477-0.089c-0.282-0.671-0.645-1.267-1.002-1.765-1.509-2.111-3.604-3.007-6.098-2.562l0.685-0.46c2.316-0.186 4.313 0.732 5.759 2.753" fill="#0d131a"/>
  </g>
  <g transform="matrix(1.9023 0 0 -1.9023 85.505 153.62)">
   <path d="m0 0c-0.621 0.462-1.41 1.177-2.191 1.959l-0.48-0.089c0.948-0.94 1.933-1.808 2.653-2.313z" fill="#0d131a"/>
  </g>
  <g transform="matrix(1.9023 0 0 -1.9023 69.85 158.19)">
   <path d="m0 0 0.352 0.231c-0.532 0.277-1.118 0.678-1.65 1.112l-0.357-0.25c0.508-0.421 1.126-0.802 1.655-1.093" fill="#0d131a"/>
  </g>
  <g transform="matrix(1.9023 0 0 -1.9023 -19.713 85.669)">
   <path d="m0 0c-1.095 0.281-3.364 1.253-3.779 1.472-0.056-0.434 0.75-2.712 1.353-3.232z" fill="#efefef"/>
  </g>
  <g transform="matrix(1.9023 0 0 -1.9023 -26.802 82.919)">
   <path d="m0 0c-0.018 0.01-0.039 0.019-0.053 0.026-0.054-0.425 0.722-2.63 1.323-3.2l0.045-0.019 0.988 0.714c-0.031 0.026-0.058 0.058-0.098 0.078-1.117 0.51-1.627 1.434-2.205 2.401" fill="#c9caca"/>
  </g>
  <g transform="matrix(1.9023 0 0 -1.9023 86.684 89.126)">
   <path d="m0 0c0.756 0.802 1.792 3.37 1.679 3.517-0.116 0.145-2.518-0.979-3.7-1.138z" fill="#efefef"/>
  </g>
  <g transform="matrix(1.9023 0 0 -1.9023 86.801 88.992)">
   <path d="m0 0c0.749 0.868 1.728 3.304 1.617 3.446-0.011 0.012-0.038 0.015-0.078 0.01-0.581-0.977-1.309-1.98-2.434-2.547l0.797-0.936z" fill="#c9caca"/>
  </g>
  <g transform="matrix(1.9023 0 0 -1.9023 73.515 132.18)">
   <path d="m0 0c0.682 2.812 0.524 6.348-0.591 8.929 4.654 4.265 10.869 11.263 7.021 15.246-3.522 3.64-9.283 0.669-13.331-2.362 0.836 2.454 0.983 4.959 0.57 7.338-1.254 7.23-7.656 13.297-15.457 13.269-11.176-0.038-15.949-6.885-16.525-13.665-0.371-4.356 1.013-8.659 3.504-11.158l-3e-3 -4e-3c-5.282 5.18-10.896 9.968-15.984 6.121-5.602-4.235 5.558-15.183 11.084-19.022-0.416-1.897-0.637-3.834-0.563-5.751 1e-3 -0.032 3e-3 -0.064 4e-3 -0.097-4.681-1.451-6.646-8.134-4.904-13.81 1.231-4.007 3.681-6.121 6.403-6.946-0.363-0.852-0.759-2.064-0.464-3.037l4.264-1.447c0.828 0 1.685 0.075 2.394 0.316 0.969 0.327 3.132 4.31 3.984 6.416 0.708 0.645 1.242 1.373 1.542 2.139 1.972-0.503 4.016-0.729 6.015-0.705 2.183 0.026 4.148 0.454 5.882 1.188l-0.022-0.033c0.242-0.458 0.568-0.881 0.96-1.266 1.647-3.244 4.317-5.582 6.716-6.368 0.355-0.116 0.826-0.215 1.305-0.029l4.818 1.632c0.648 0.993-0.053 2.316-0.764 3.2 4.546 1.735 6.862 5.649 6.645 10.203-0.226 4.753-2.425 7.898-4.503 9.703" fill="#d3edfb"/>
  </g>
  <g transform="matrix(1.9023 0 0 -1.9023 -3.0915 134.38)">
   <path d="m0 0c-3.657-1.133-5.656-5.458-5.525-10.002 0.729-0.602 1.619-0.969 2.575-1.001 2.31-0.081 3.97 1.222 4.985 2.991-1.169 2.213-1.904 4.869-2.035 8.012" fill="#fff"/>
  </g>
  <g transform="matrix(1.9023 0 0 -1.9023 -5.973 157.27)">
   <path d="M 0,0 C 0.041,-0.265 1.011,-0.582 2.182,0.047 2.906,0.435 3.766,1.57 3.333,1.863 2.895,2.16 2.65,1.582 1.64,0.962 0.843,0.474 -0.063,0.407 0,0" fill="#fff"/>
  </g>
  <g transform="matrix(1.9023 0 0 -1.9023 59.757 171.86)">
   <path d="m0 0c-1.089-1.064-0.516-2.634 1.506-3.085 0.412-0.092 0.713-0.202 0.931-0.324l-1.401-0.474c-0.478-0.185-0.949-0.087-1.305 0.029-2.4 0.787-5.071 3.125-6.717 6.372 0.81-0.799 5.726-2.089 6.986-2.518" fill="#a0d2f2"/>
  </g>
  <g transform="matrix(1.9023 0 0 -1.9023 12.745 152.34)">
   <path d="m0 0c-0.729-0.164-1.418-0.627-2.025-1.5-2.54-3.651-7.664-4.392-11.43-2.032 0.067-0.281 0.141-0.561 0.226-0.837 3.493-11.38 16.822-7.507 18.264-2.131z" fill="#a0d2f2"/>
  </g>
  <g transform="matrix(1.9023 0 0 -1.9023 8.1512 180.63)">
   <path d="m0 0c1.088 0.29 1.821 2.78-0.257 3.251 2.969 0.271 5.306 1.862 6.015 2.514-4e-3 -2e-3 -7e-3 -6e-3 -0.011-0.01-0.867-2.118-3.004-6.042-3.965-6.368-0.596-0.201-1.299-0.287-1.999-0.309-0.302 0.39-0.378 0.763 0.217 0.922" fill="#a0d2f2"/>
  </g>
  <g transform="matrix(1.9023 0 0 -1.9023 12.461 56.742)">
   <path d="m0 0c-2.489 0.448-5.064 0.352-5.286 0.129-0.213-0.213-0.361-4.005 0.129-6.506 0.989 2.473 2.668 4.725 5.157 6.377" fill="#fff"/>
  </g>
  <g transform="matrix(1.9023 0 0 -1.9023 69.32 181.76)">
   <path d="m0 0c-0.134-0.192-0.99 0.234-2.3 0.512-1.362 0.288-2.221 0.701-2.274 0.965-0.135 0.664 1.26 2.033 2.307 1.93 1.544-0.15 2.611-2.914 2.267-3.407" fill="#efefef"/>
  </g>
  <g transform="matrix(1.9023 0 0 -1.9023 66.255 176.5)">
   <path d="m0 0c0.437 0.671 1.378 1.382 2.04 1.31 0.99-0.11 1.79-3.451 1.158-3.837-0.302-0.185-1.116 0.646-1.972 0.755" fill="#efefef"/>
  </g>
  <g transform="matrix(1.9023 0 0 -1.9023 60.619 178.95)">
   <path d="m0 0c-0.049 0.241 0.116 0.672 0.382 0.996 0.758-0.752 1.956-1.124 2.666-1.412 0.247-0.101 0.948-0.533 1.493-1.089-0.208-0.113-1.037 0.28-2.267 0.54-1.362 0.288-2.22 0.701-2.274 0.965" fill="#c9caca"/>
  </g>
  <g transform="matrix(1.9023 0 0 -1.9023 69.24 180.02)">
   <path d="m0 0c-0.206 0.709-0.699 1.625-1.36 2.131 0.111 0.132 0.239 0.261 0.377 0.382 1.073-0.791 2.102-2.12 2.499-3.214-0.309 9e-3 -0.882 0.494-1.516 0.701" fill="#c9caca"/>
  </g>
  <g transform="matrix(1.9023 0 0 -1.9023 3.9603 179.37)">
   <path d="m0 0c-0.449-1.08-0.851-4.022-0.681-4.119 0.301-0.172 3.148 1.762 4.119 2.77 0.189 0.195-0.098 1.231-1.433 1.653-0.842 0.266-1.822 0.133-2.005-0.304" fill="#efefef"/>
  </g>
  <g transform="matrix(1.9023 0 0 -1.9023 3.9603 179.37)">
   <path d="m0 0c2e-3 6e-3 7e-3 0.011 0.01 0.018-0.71 0.551-2.122 0.555-2.756 0.079-0.34-0.256 0.511-4.19 1.142-4.264 0.205-0.025 0.666 0.787 0.994 1.483 0.131 0.938 0.364 2.09 0.61 2.684" fill="#efefef"/>
  </g>
  <g transform="matrix(1.9023 0 0 -1.9023 2.6656 187.2)">
   <path d="m0 0c-0.015 9e-3 -0.026 0.043-0.033 0.098 1.011 0.849 2.786 2.536 3.514 3.929 0.65-0.48 0.782-1.109 0.639-1.256-0.973-1.009-3.819-2.943-4.12-2.771" fill="#c9caca"/>
  </g>
  <g transform="matrix(1.9023 0 0 -1.9023 2.0766 178.57)">
   <path d="m0 0c0.312-0.067 0.779-0.23 1-0.401-3e-3 -7e-3 -8e-3 -0.012-0.01-0.018-0.246-0.594-0.478-1.746-0.61-2.684-0.328-0.696-0.789-1.508-0.993-1.483-0.013 0-0.026 6e-3 -0.038 0.012 0.342 0.945 0.723 3.306 0.651 4.574" fill="#c9caca"/>
  </g>
  <g transform="matrix(1.9023 0 0 -1.9023 64.347 118.91)">
   <path d="m0 0c-3.893 1.24-6.557 6.166-6.643 9.896-0.618 0.244-1.237 0.599-1.237 0.599-1.459-0.167-2.658 0.669-2.085 1.556 2.541 3.927 2.51 8.027 1.104 11.293-0.404 0.938-0.931 1.811-1.559 2.602l-2.681-2.433c-2.108-2.184-7.003-4.49-9.452-4.62-2.203-0.119-3.957 1.919-5.236 3.151l-2.446 2.592c-0.233-0.493-0.425-1.001-0.579-1.515-1.281-4.308 0.105-9.338 2.183-11.532 0.254-0.269 0.195-0.634-0.012-0.909-0.035-0.046-1.627-1.578-1.627-1.578-2.64-4.626-5.419-10.981-5.186-17.135 0.469-12.404 10.288-17.278 19.238-17.172 8.503 0.101 13.713 6.277 14.671 13.022 0.663 4.667 1.402 6.498 2.474 7.017l0.302-0.518c0.032 1.863-0.475 4.472-1.229 5.684" fill="#fff9b0"/>
  </g>
  <g transform="matrix(1.9023 0 0 -1.9023 21.43 88.866)">
   <path d="m0 0c0.623 0 1.348-0.524 1.34-0.611-0.048-0.541-1.81-0.753-1.821-0.238-7e-3 0.298 0.162 0.849 0.481 0.849" fill="#932f00"/>
  </g>
  <g transform="matrix(1.9023 0 0 -1.9023 -1.6538 143.55)">
   <path d="m0 0c2.533-8.789 10.823-12.343 18.478-12.253 7.62 0.091 12.591 5.062 14.233 10.946-8.361-9.181-27.252-5.967-32.711 1.307" fill="#ded799"/>
  </g>
  <g transform="matrix(1.9023 0 0 -1.9023 58.267 151.89)">
   <path d="m0 0c-1.509-2.899-3.934-5.332-7.17-6.693 1.368-2.623 5.429-4.138 9.422-3.703 6.922 0.755 10.533 5.416 10.267 11.05-2.232-3.682-9.906-4.37-12.519-0.654" fill="#a0d2f2"/>
  </g>
  <g transform="matrix(1.9023 0 0 -1.9023 86.118 86.607)">
   <path d="m0 0c-0.389-4.518-9.236-11.426-15.546-13.9 1.746-2.277 3.513-3.107 5.728-3.396 0.171 0.075 14.609 11.692 9.818 17.296" fill="#a0d2f2"/>
  </g>
  <g transform="matrix(1.9023 0 0 -1.9023 .26716 115.43)">
   <path d="m0 0c-5.378 3.436-11.333 9.296-12.659 14.593-4.704-4.439 6.056-14.959 11.452-18.707 0.308 1.401 0.724 2.78 1.207 4.114" fill="#a0d2f2"/>
  </g>
  <g transform="matrix(1.9023 0 0 -1.9023 69.891 117.42)">
   <path d="m0 0c-0.528-0.461-0.843-0.722-1.273-1.075-0.57 0.019-1.12 0.125-1.648 0.294 2e-3 -1e-3 5e-3 -1e-3 7e-3 -2e-3 0.674-1.085 1.149-3.283 1.22-5.069 0.373 0.039 1.682-0.379 2.695-1.193 0.229 2.07-0.512 5.54-1.001 7.045" fill="#a0d2f2"/>
  </g>
  <g transform="matrix(1.9023 0 0 -1.9023 6.7654 101.6)">
   <path d="m0 0c-0.23-0.402-0.461-0.82-0.69-1.246 2.745 1.776 5.288 2.593 9.114 2.767 4.924 0.224 10.594-0.747 15.484-2.789-0.169 0.707-0.265 1.404-0.281 2.063-0.618 0.243-1.237 0.599-1.237 0.599-1.459-0.167-2.659 0.669-2.085 1.555 0.574 0.888 1.016 1.784 1.341 2.679-3.748-3.585-19.414-3.958-21.98 0.433 0.482-1.474 1.176-2.733 1.973-3.574 0.254-0.268 0.195-0.633-0.012-0.909-0.035-0.046-1.627-1.578-1.627-1.578" fill="#ded799"/>
  </g>
  <g transform="matrix(1.9023 0 0 -1.9023 51.77 98.37)">
   <path d="m0 0c0.456 0.548 2.213 2.303 4.529 4.038 0.836 2.454 0.984 4.96 0.571 7.339-1.254 7.229-7.657 13.297-15.457 13.269-11.176-0.039-15.95-6.885-16.526-13.666-0.374-4.409 1.046-8.769 3.596-11.253 0.751-0.732 1.863 0.434 1.267 1.062-2.078 2.194-3.463 7.224-2.183 11.532 0.016-0.041 3.025-1.077 3.025-1.077 1.28-1.232 3.033-3.269 5.237-3.151 2.448 0.131 7.343 2.436 9.452 4.62 0 0 4.31-0.282 4.239-0.169 1.406-3.266 1.437-7.366-1.104-11.293-0.5-0.773 0.347-1.487 1.414-1.577 0.512-0.042 1.268 0.08 1.939 0.315 0 4e-3 1e-3 8e-3 1e-3 0.011" fill="#fff"/>
  </g>
  <g transform="matrix(1.9023 0 0 -1.9023 9.8827 96.869)">
   <path d="m0 0c-2.078 2.194-3.464 7.224-2.184 11.532 1.134 3.813 4.356 7.165 11.041 7.271 4.845 0.076 9.104-2.849 10.913-7.048 1.406-3.266 1.437-7.366-1.104-11.293-0.254-0.392-0.16-0.77 0.133-1.057 3.373 2.304 4.791 9.033 2.693 13.949-1.659 3.887-6.944 7.758-12.734 7.486-5.935-0.277-9.764-3.303-11.536-7.893-1.737-4.498-1.003-11.574 2.63-14.005 0.31 0.279 0.452 0.738 0.148 1.058" fill="#d3edfb"/>
  </g>
  <g transform="matrix(1.9023 0 0 -1.9023 19.181 82.416)">
   <path d="m0 0-0.025-0.145c0.387-0.115 0.793-0.172 1.215-0.149 2.449 0.131 7.344 2.437 9.453 4.62l2.667 2.422-2.277 2.12c-2.62-3.755-7.411-8.207-11.033-8.868" fill="#d3edfb"/>
  </g>
  <g transform="matrix(1.9023 0 0 -1.9023 51.77 98.37)">
   <path d="m0 0c0.456 0.548 2.213 2.303 4.529 4.038 0.836 2.454 0.984 4.96 0.571 7.339-0.397 2.288-1.311 4.458-2.62 6.357-0.202-0.566-0.415-0.82-0.674-1.356-0.205-1.702-2.054-3.635-3.692-4.72-7e-3 -5e-3 -0.012-0.01-0.019-0.014 1.046-3.101 0.864-6.819-1.449-10.393-0.5-0.773 0.347-1.487 1.414-1.577 0.512-0.042 1.268 0.08 1.939 0.315 0 4e-3 1e-3 8e-3 1e-3 0.011" fill="#d3edfb"/>
  </g>
  <g transform="matrix(1.9023 0 0 -1.9023 61.449 75.745)">
   <path d="m0 0c-0.254-6.34-4.759-10.937-8.26-11.737 0.281-0.29 0.695-0.436 1.232-0.483 0.512-0.042 1.268 0.08 1.939 0.316 0 4e-3 1e-3 8e-3 1e-3 0.01 0.456 0.548 2.213 2.303 4.529 4.039 0.745 2.185 0.994 5.247 0.559 7.855" fill="#a0d2f2"/>
  </g>
  <g transform="matrix(1.9023 0 0 -1.9023 2.6506 68.873)">
   <path d="M 0,0 C 0.44,1.101 1.019,2.157 1.743,3.138 1.141,3.907 0.339,5.229 -0.139,6.492 -0.347,6.177 -0.482,2.463 0,0" fill="#d3edfb"/>
  </g>
  <g transform="matrix(1.9023 0 0 -1.9023 45.358 64.287)">
   <path d="m0 0-1.531-1.569c1.123-1.073 2.032-2.363 2.652-3.804 1.406-3.266 1.438-7.366-1.103-11.293-0.254-0.392-0.161-0.77 0.132-1.057 3.373 2.304 4.791 9.033 2.694 13.95-0.5 1.17-1.549 2.787-2.844 3.773" fill="#a0d2f2"/>
  </g>
  <g transform="matrix(1.9023 0 0 -1.9023 82.192 85.91)">
   <path d="m0 0c1.419-2.636-11.874-14.012-13.803-9.781-1.548 3.395 3.056 6.63 5.217 8.042 2.663 1.739 7.663 3.454 8.586 1.739" fill="#fff"/>
  </g>
  <g transform="matrix(1.9023 0 0 -1.9023 -18.826 87.64)">
   <path d="m0 0c-0.771-0.921 0.145-4.047 2.62-6.536 2.595-2.609 6.382-3.84 7.717-2.282 1.344 1.568 0.054 4.727-3.261 7.226-3.319 2.504-5.733 3.198-7.076 1.592" fill="#fff"/>
  </g>
  <g transform="matrix(1.9023 0 0 -1.9023 79.872 140.9)">
   <path d="m0 0c-2.083 4.787-6.27 6.716-7.025 6.476-1.186-0.379-1.978-2.135-2.683-7.1-0.039-0.272-0.087-0.544-0.14-0.814 1.522-2.65 3.93-3.875 6.794-3.328 2.368 0.451 3.038 2.601 3.054 4.766" fill="#fff"/>
  </g>
  <g transform="matrix(1.9023 0 0 -1.9023 -21.154 86.811)">
   <path d="m0 0c-0.316-0.216-0.576-0.521-0.484-0.779 0.065-0.184 0.558-0.149 0.992 0.164 0.267 0.192 0.397 0.524 0.305 0.669-0.091 0.144-0.424 0.208-0.813-0.054" fill="#fff"/>
  </g>
  <g transform="matrix(1.9023 0 0 -1.9023 64.955 150.55)">
   <path d="m0 0c-0.156-0.471 0.593-1.025 1.368-1.301s1.601-0.281 1.679 0.322c0.07 0.55-0.568 0.661-1.251 0.855-0.812 0.231-1.605 0.703-1.796 0.124" fill="#fff"/>
  </g>
  <g transform="matrix(1.9023 0 0 -1.9023 7.7185 99.092)">
   <path d="m0 0c-5.151-8.536-6.182-14.815-6.041-18.534 0.438-11.606 9.293-17.466 19.578-17.353 8.372 0.099 13.94 5.89 14.984 13.248 0.648 4.564 1.305 6.523 2.473 6.897 0.922 0.289 7.364-2.982 7.765-11.384 0.56-11.804-15.312-13.567-19.098-7.312l-0.431-0.188c3.735-6.464 20.812-5.182 20.208 7.524-0.406 8.531-7.332 12.252-8.554 11.862-1.119-0.358-2.182-1.852-2.966-7.375-1.083-7.628-7.022-12.656-14.381-12.742-9.61-0.114-18.45 5.537-18.88 16.895-0.249 6.599 2.808 13.549 5.677 18.3z" fill="#0d131a"/>
  </g>
  <g transform="matrix(1.9023 0 0 -1.9023 75.328 138.42)">
   <path d="m0 0c-2.21-1.087-5.445-2.021-7.221-2.022l-0.102-0.482c1.856 2e-3 5.304 0.962 7.526 2.217 1.018 0.576 0.833 0.796-0.203 0.287" fill="#0d131a"/>
  </g>
  <g transform="matrix(1.9023 0 0 -1.9023 52.66 159.65)">
   <path d="m0 0-0.394-0.336c1.539-0.861 3.875-1.259 6.351-1.259 3.085 0 6.425 0.69 8.844 2.117l0.144 0.531c-4.089-2.615-11.472-2.89-14.945-1.053" fill="#0d131a"/>
  </g>
  <g transform="matrix(1.9023 0 0 -1.9023 62.999 145.23)">
   <path d="m0 0c-0.017-2.864 0.072-7.309 0.147-8.941l0.513 0.016c-0.081 1.723-0.265 6.24-0.347 8.925-0.022 0.707-0.309 0.674-0.313 0" fill="#0d131a"/>
  </g>
  <g transform="matrix(1.9023 0 0 -1.9023 81.135 158.2)">
   <path d="m0 0c0.127 2.936-0.862 7.102-1.773 9.304-0.323 0.778-0.538 0.633-0.253-0.13 0.953-2.547 1.768-6.398 1.513-9.429z" fill="#0d131a"/>
  </g>
  <g transform="matrix(1.9023 0 0 -1.9023 60.556 178.96)">
   <path d="m0 0c-0.245 5e-3 -0.47 0.064-0.642 0.119-2.349 0.771-4.567 2.771-6.12 5.48l-1.07 0.917c1.562-3.215 4.418-6.066 7.181-6.92 0.411-0.127 0.801-0.169 1.106-0.116z" fill="#0d131a"/>
  </g>
  <g transform="matrix(1.9023 0 0 -1.9023 69.88 170.03)">
   <path d="m0 0-0.381-0.121c0.412-0.513 0.953-1.406 0.921-2.083l0.437-0.567c0.245 0.862-0.241 1.942-0.977 2.771" fill="#0d131a"/>
  </g>
  <g transform="matrix(1.9023 0 0 -1.9023 69.056 181.5)">
   <path d="m0 0c-0.092-0.08-1.421 0.401-2.123 0.558-1.395 0.31-2.035 0.697-2.068 0.841-0.101 0.441 1.099 1.73 2.033 1.639 1.432-0.14 2.366-2.856 2.158-3.038m-2.112 3.5c-1.104 0.108-2.736-1.293-2.542-2.25 0.121-0.595 2.072-0.973 2.455-1.054 1.517-0.322 2.271-0.752 2.49-0.436 0.394 0.566-0.656 3.57-2.403 3.74" fill="#0d131a"/>
  </g>
  <g transform="matrix(1.9023 0 0 -1.9023 70.203 173.59)">
   <path d="m0 0c-0.629 0.09-1.496-0.464-2.022-1.071l0.398-0.304c0.455 0.516 1.094 0.95 1.569 0.897 0.805-0.088 1.598-3.107 1.084-3.423-0.194-0.06-0.799 0.497-1.56 0.716l0.135-0.436c0.984-0.401 1.245-0.822 1.615-0.596 0.844 0.514-0.124 4.058-1.219 4.217" fill="#0d131a"/>
  </g>
  <g transform="matrix(1.9023 0 0 -1.9023 -11.827 160.52)">
   <path d="m0 0c-1.701 5.547 0.134 12.069 4.531 13.529l-0.01 0.385c-4.704-1.47-6.983-8.103-5.147-14.083 3.461-11.273 16.372-7.955 18.576-2.609l-0.362 0.09c-2.14-5.049-14.376-7.772-17.588 2.688" fill="#0d131a"/>
  </g>
  <g transform="matrix(1.9023 0 0 -1.9023 -1.0778 145.88)">
   <path d="m0 0-0.142 0.379c-2.119-0.493-3.839-0.669-4.871-0.565-0.734 0.075-0.718-0.268-0.04-0.348 1.138-0.13 3.074-0.043 5.053 0.534" fill="#0d131a"/>
  </g>
  <g transform="matrix(1.9023 0 0 -1.9023 15.036 163.16)">
   <path d="m0 0-0.413 0.179c-4.078-2.403-10.06-2.81-13.001-1.268l0.386-0.583c3.333-1.371 8.835-0.912 13.028 1.672" fill="#0d131a"/>
  </g>
  <g transform="matrix(1.9023 0 0 -1.9023 -11.955 150.3)">
   <path d="m0 0c-0.135-3.066 0.616-6.27 1.761-8.352l0.629-0.172c-1.28 2.072-2.1 5.123-2.169 8.5-0.02 0.927-0.179 0.983-0.221 0.024" fill="#0d131a"/>
  </g>
  <g transform="matrix(1.9023 0 0 -1.9023 4.7832 155.58)">
   <path d="m0 0-1.039 1.358c0.989-2.167 2.687-4.773 4.042-6.267l0.36 0.155c-1.007 1.09-2.361 2.974-3.363 4.754" fill="#0d131a"/>
  </g>
  <g transform="matrix(1.9023 0 0 -1.9023 18.231 170.57)">
   <path d="m0 0c-0.487-1.108-2.637-5.349-3.542-5.653-0.131-0.045-0.271-0.083-0.419-0.117l-0.508-0.615c0.356 0.054 0.821 0.119 1.104 0.215 1.089 0.368 3.378 4.859 4.161 6.894z" fill="#0d131a"/>
  </g>
  <g transform="matrix(1.9023 0 0 -1.9023 .029376 174.12)">
   <path d="m0 0-0.354 0.115c-0.417-0.802-0.804-2.128-0.541-3.121l0.408 0.414c-0.147 0.863 0.192 1.887 0.487 2.592" fill="#0d131a"/>
  </g>
  <g transform="matrix(1.9023 0 0 -1.9023 10.121 181.62)">
   <path d="m0 0c-0.153-0.479-3.593-2.818-3.74-2.713-0.111 0.078 0.311 2.825 0.717 3.797 0.133 0.324 1.038 0.417 1.737 0.195 0.856-0.27 1.385-0.967 1.286-1.279m-1.16 1.721c-0.861 0.273-2.024 0.162-2.266-0.418-0.454-1.091-0.834-4.255-0.585-4.398 0.415-0.236 3.557 1.898 4.418 2.79 0.238 0.246-0.067 1.552-1.567 2.026" fill="#0d131a"/>
  </g>
  <g transform="matrix(1.9023 0 0 -1.9023 3.8488 179.69)">
   <path d="m0 0 0.15 0.352c-0.712 0.529-2.134 0.709-2.971 0.082-0.544-0.409 0.53-4.619 1.278-4.619 0.278 0 0.635 0.554 0.932 1.133l0.1 1.144c-0.288-0.768-0.842-1.898-1.029-1.898-0.386-1e-3 -1.157 3.571-0.989 3.926 0.148 0.316 1.788 0.519 2.529-0.12" fill="#0d131a"/>
  </g>
  <g transform="matrix(1.9023 0 0 -1.9023 -22.902 87.35)">
   <path d="m0 0c4.99 3.771 10.458-0.974 16.105-6.543l0.088 0.168-1.466 1.878c-5.173 4.888-10.243 8.35-14.95 4.791-5.702-4.311 4.869-15.226 11.067-19.387l0.105 0.533c-5.178 3.706-16.351 14.475-10.949 18.56" fill="#0d131a"/>
  </g>
  <g transform="matrix(1.9023 0 0 -1.9023 -21.234 85.678)">
   <path d="m0 0 0.617 0.3c-1.16 0.346-3.156 1.152-3.511 1.339-0.145 0.078-0.253-0.022-0.269-0.139-0.061-0.471 0.543-2.389 1.139-3.179l0.327 0.391c-0.427 0.619-0.935 1.844-1.067 2.457 0.62-0.283 1.786-0.841 2.764-1.169" fill="#0d131a"/>
  </g>
  <g transform="matrix(1.9023 0 0 -1.9023 -9.1068 88.372)">
   <path d="m0 0c-0.509-3.521-6.213-6.304-8.383-4.723l0.281-0.586c2.694-1.148 7.915 1.575 8.393 5.235 0.099 0.756-0.174 0.88-0.291 0.074" fill="#0d131a"/>
  </g>
  <g transform="matrix(1.9023 0 0 -1.9023 2.6228 94.513)">
   <path d="m0 0c-0.523-3.234-5.009-8.456-9.852-8.428l0.305-0.365c4.567 0.153 9.043 4.432 9.874 8.531z" fill="#0d131a"/>
  </g>
  <g transform="matrix(1.9023 0 0 -1.9023 -10.22 95.477)">
   <path d="m0 0c1.35-1.314 3.459-3.343 4.395-4.3l0.23 0.395c-0.96 0.98-3.038 2.922-4.447 4.189-0.473 0.425-0.658 0.184-0.178-0.284" fill="#0d131a"/>
  </g>
  <g transform="matrix(1.9023 0 0 -1.9023 -10.431 109.92)">
   <path d="m0 0-0.384-0.118c0.965-1.181 3.617-3.528 5.264-4.798l0.153 0.431c-1.637 1.268-4.073 3.371-5.033 4.485" fill="#0d131a"/>
  </g>
  <g transform="matrix(1.9023 0 0 -1.9023 52.133 98.871)">
   <path d="m0 0c-0.244-3.77 3.022-10.198 7.858-10.534 0.105-7e-3 0.153 0.011 0.225 0.071 5.844 4.836 13.5 12.75 9.45 16.939-5.229 5.408-15.8-4.412-17.416-6.186-0.079-0.085-0.108-0.159-0.117-0.29m7.985-11.141c-4.778 0.248-8.784 6.245-8.398 11.277 8e-3 0.115 0.027 0.227 0.1 0.315 2.575 3.052 12.817 11.876 18.141 6.367 4.351-4.498-3.274-12.687-9.558-17.871-0.09-0.073-0.161-0.093-0.285-0.088" fill="#0d131a"/>
  </g>
  <g transform="matrix(1.9023 0 0 -1.9023 65.007 119.37)">
   <path d="m0 0-0.519 0.165c0.692-1.087 1.109-3.352 1.162-5.084l0.467 0.104c-0.053 1.625-0.497 3.583-1.11 4.815" fill="#0d131a"/>
  </g>
  <g transform="matrix(1.9023 0 0 -1.9023 59.824 93.642)">
   <path d="m0 0c0.891-4.264 4.049-8.998 8.642-9.303l0.383 0.356c-4.458 0.03-7.844 5.175-8.717 9.042-0.135 0.601-0.421 0.449-0.308-0.095" fill="#0d131a"/>
  </g>
  <g transform="matrix(1.9023 0 0 -1.9023 76.014 93.783)">
   <path d="m0 0c-1.046 1.142-1.701 2.657-1.826 3.944-0.058 0.59-0.336 0.478-0.296-0.082 0.097-1.364 0.703-2.924 1.802-4.128 1.948-2.129 4.083-2.75 5.558-2.376l0.247 0.474c-1.701-0.667-3.97 0.511-5.485 2.168" fill="#0d131a"/>
  </g>
  <g transform="matrix(1.9023 0 0 -1.9023 72.792 93.532)">
   <path d="m0 0c-1.453-1.175-3.892-3.273-4.902-4.212l0.277-0.395c1.005 0.94 3.47 3.164 4.835 4.394 0.348 0.313 0.19 0.538-0.21 0.213" fill="#0d131a"/>
  </g>
  <g transform="matrix(1.9023 0 0 -1.9023 70.043 108.96)">
   <path d="m0 0-0.308 0.204c-0.998-1.201-3.56-3.72-4.433-4.511l0.452-0.249c0.986 0.907 3.31 3.369 4.289 4.556" fill="#0d131a"/>
  </g>
  <g transform="matrix(1.9023 0 0 -1.9023 90.155 82.221)">
   <path d="m0 0c-0.272 0.349-2.138-0.68-3.656-0.986l0.55-0.338c0.593 0.162 2.671 1.07 2.751 1.003 0.078-0.068-0.635-1.61-1.26-2.584l0.26-0.485c0.711 1.065 1.562 3.124 1.355 3.39" fill="#0d131a"/>
  </g>
  <g transform="matrix(1.9023 0 0 -1.9023 11.399 73.922)">
   <path d="m 0,0 0.159,-0.406 c 2.482,3.461 9.846,3.998 14.14,-0.224 l 0.142,0.37 C 10.09,3.882 2.875,3.671 0,0" fill="#0d131a"/>
  </g>
  <g transform="matrix(1.9023 0 0 -1.9023 21.505 82.485)">
   <path d="m0 0c-1.771-0.093-3.593 1.51-4.971 2.861v-0.52c0.01-9e-3 0.02-0.018 0.03-0.028 2.114-2.286 3.582-2.903 4.957-2.828 2.405 0.129 6.788 2.246 9.06 4.248l0.148 0.714c-1.915-1.928-6.869-4.32-9.224-4.447" fill="#0d131a"/>
  </g>
  <g transform="matrix(1.9023 0 0 -1.9023 23.669 90.175)">
   <path d="m0 0h2e-3zm-1.178 0.519c-0.176-0.039-0.343-0.393-0.296-0.64 0.049-0.261 1.433-0.114 1.434 0.178 0 0.153-0.793 0.536-1.138 0.462m-0.666-0.683c-0.026 0.425 0.292 1.002 0.656 1.002 0.554 0 1.496-0.471 1.536-0.778 0.083-0.64-2.142-0.998-2.192-0.224" fill="#0d131a"/>
  </g>
  <g transform="matrix(1.9023 0 0 -1.9023 61.973 76.633)">
   <path d="m0 0c-1.379 7.942-8.128 13.509-15.724 13.495-11.456-0.02-16.189-7.264-16.755-13.924-0.375-4.402 1.155-8.832 3.7-11.403 0.898-0.906 2.365 0.452 1.53 1.322-2.033 2.118-3.338 7.021-2.067 11.294 1.811 6.092 7.529 7.107 10.809 7.158 4.609 0.068 8.879-2.679 10.696-6.899 0.912-2.117 1.994-6.355-1.078-11.1-0.678-1.049 0.584-2.556 3.498-1.585l0.145 0.445c-2.282-0.896-3.812 0.126-3.295 0.926 2.312 3.57 2.701 7.791 1.101 11.506-2.007 4.658-6.573 7.228-11.067 7.158-3.382-0.053-9.382-1.146-11.259-7.463-1.309-4.401 0.16-9.488 2.248-11.694 0.405-0.427-0.494-1.299-1.003-0.802-2.516 2.449-3.836 6.81-3.472 11.106 0.835 9.82 8.632 13.393 16.269 13.42 7.295 0.044 13.902-5.751 15.178-13.105 0.431-2.483 0.219-4.998-0.605-7.362l0.661 0.419c0.715 2.284 0.903 4.707 0.49 7.088" fill="#0d131a"/>
  </g>
  <g transform="matrix(1.9023 0 0 -1.9023 22.274 61.634)">
   <path d="m0 0c-0.45-1.137-1.043-2.949-1.249-4.042l0.468 0.097c0.233 1.145 0.768 2.964 1.205 4.007z" fill="#0d131a"/>
  </g>
  <g transform="matrix(1.9023 0 0 -1.9023 9.1304 99.111)">
   <path d="m0 0c-0.219-0.217-1.117-1.108-1.132-1.124l-0.406-0.842c0.203 0.227 1.697 1.71 1.973 1.972z" fill="#0d131a"/>
  </g>
  <g transform="matrix(1.9023 0 0 -1.9023 51.1 71.316)">
   <path d="m0 0c-1.718 4.023-7.104 7.919-12.914 7.647-5.94-0.278-9.865-3.258-11.714-8.048-1.663-4.307-1.155-11.507 2.589-14.155l0.279 0.254c-3.392 2.356-4.27 9.197-2.512 13.75 1.863 4.825 5.819 7.473 11.395 7.736 5.727 0.272 10.904-3.544 12.525-7.341 2.047-4.795 0.759-11.38-2.583-13.693l0.276-0.254c3.419 2.449 4.753 9.198 2.659 14.104" fill="#0d131a"/>
  </g>
  <g transform="matrix(1.9023 0 0 -1.9023 46.719 55.832)">
   <path d="m0 0-0.309 0.209c-1.097-0.623-2.954-1.786-3.582-2.308-0.206-0.171-0.843-1.205-1.181-1.817l0.303-0.149c0.328 0.592 0.972 1.564 1.114 1.68 0.639 0.532 2.623 1.812 3.655 2.385" fill="#0d131a"/>
  </g>
  <g transform="matrix(1.9023 0 0 -1.9023 12.084 62.083)">
   <path d="m0 0s0.872 2.717 1.261 3.349l-0.607-0.356c-0.403-0.862-0.962-2.791-1.01-3.146-0.033-0.235 0.216-1.118 0.412-1.549l0.308 0.223c-0.188 0.536-0.398 1.33-0.364 1.479" fill="#0d131a"/>
  </g>
  <g transform="matrix(1.9023 0 0 -1.9023 2.1659 56.122)">
   <path d="m0 0c-0.361-0.322-0.468-4.512 0.049-6.993l0.368 0.958c-0.397 2.389-0.28 5.527-0.095 5.654 0.2 0.137 2.659 0.251 4.623-0.13l0.613 0.426c-2.345 0.436-5.197 0.407-5.558 0.085" fill="#0d131a"/>
  </g>
  <g transform="matrix(1.9023 0 0 -1.9023 56.196 66.757)">
   <path d="m0 0-0.295-0.198c2.275-4.2 2.336-9.778 0.144-14.147l0.638 0.479c1.972 4.415 1.787 9.725-0.487 13.866" fill="#0d131a"/>
  </g>
  <g transform="matrix(1.9023 0 0 -1.9023 51.629 99.728)">
   <path d="m0 0c-0.344 0.081-0.668 0.246-0.957 0.424l-0.582-0.051c0.424-0.316 0.956-0.644 1.539-0.827z" fill="#0d131a"/>
  </g>
  <g transform="matrix(1.9023 0 0 -1.9023 72.948 115.1)">
   <path d="m0 0-0.474-0.336c0.91-2.252 1.114-5.809 0.515-8.397l0.545-0.377c0.759 3.087 0.523 6.47-0.586 9.11" fill="#0d131a"/>
  </g>
  <g transform="matrix(1.9023 0 0 -1.9023 68.876 118.78)">
   <path d="m0 0-0.286-0.263c0.651-1.468 1.514-4.46 1.823-5.955l0.535-0.468c-0.204 1.332-1.325 5.06-2.072 6.686" fill="#0d131a"/>
  </g>
  <g transform="matrix(1.9023 0 0 -1.9023 71.295 127.33)">
   <path d="m0 0-0.095 0.368c-0.62-0.011-1.781 0.112-2.371 0.201l0.083-0.474c0.669-0.091 1.852-0.112 2.383-0.095" fill="#0d131a"/>
  </g>
  <g transform="matrix(1.9023 0 0 -1.9023 11.915 82.462)">
   <path d="m0 0c0.515 0.462 0.567 2.683 0.057 4.329-0.388 1.249-1.271 2.556-2.331 2.377-1.272-0.216-1.908-2.749-1.397-4.208 0.822-2.352 2.877-3.21 3.671-2.498" fill="#0d131a"/>
  </g>
  <g transform="matrix(1.9023 0 0 -1.9023 7.7928 70.116)">
   <path d="m0 0c-0.523-0.102-0.782-0.693-0.681-1.495 0.118-0.916 0.681-1.342 1.209-1.253 0.513 0.087 0.86 0.772 0.707 1.531-0.195 0.977-0.779 1.307-1.235 1.217" fill="#fff"/>
  </g>
  <g transform="matrix(1.9023 0 0 -1.9023 6.0559 77.426)">
   <path d="m0 0c-0.453-0.486 1.191-2.484 1.637-2.188 0.207 0.139 0.138 1.191-0.41 1.959-0.323 0.454-0.956 0.52-1.227 0.229" fill="#004898"/>
  </g>
  <g transform="matrix(1.9023 0 0 -1.9023 50.082 70.38)">
   <path d="m0 0c-1.122 1.313-3.066 1.346-4.519 0.046-2.052-1.836-2.585-4.939-2.042-5.662 0.59-0.785 3.579-0.66 5.453 0.699 2.088 1.518 2.054 3.813 1.108 4.917" fill="#0d131a"/>
  </g>
  <g transform="matrix(1.9023 0 0 -1.9023 47.44 69.724)">
   <path d="m0 0c-0.429 0.491-1.516 0.429-2.289-0.17-0.789-0.613-1.01-1.664-0.641-2.109 0.317-0.382 1.497-0.404 2.408 0.293 0.703 0.537 0.911 1.542 0.522 1.986" fill="#fff"/>
  </g>
  <g transform="matrix(1.9023 0 0 -1.9023 48.321 77.95)">
   <path d="m0 0c-0.307 0.577-1.093 0.828-1.981 0.421-0.91-0.415-1.611-1.44-1.391-1.975 0.219-0.529 3.713 0.912 3.372 1.554" fill="#004898"/>
  </g>
  <g transform="matrix(1.9023 0 0 -1.9023 55.373 67.123)">
   <path d="m0 0c0.079-0.049 0.419 0.236 0.451 0.313 0.032 0.072 0.123 3.126 0.304 3.126 0.18 0-0.074-2.792-0.017-2.832 0.058-0.041 0.205 0.083 0.274 0.254 0.069 0.172 0.602 6.139 0.189 6.363-0.749 0.405-4.924-0.259-5.949-1.102 0.883-0.691 3.863-3.636 4.748-6.122" fill="#d3edfb"/>
  </g>
  <g transform="matrix(1.9023 0 0 -1.9023 55.373 67.123)">
   <path d="M 0,0 C 0.079,-0.049 0.419,0.236 0.451,0.313 0.483,0.385 0.574,3.439 0.755,3.439 0.935,3.439 0.681,0.647 0.738,0.607 0.796,0.566 0.943,0.69 1.012,0.861 1.081,1.033 1.614,7 1.201,7.224 0.779,7.452 -0.309,0.865 0,0" fill="#a0d2f2"/>
  </g>
  <g transform="matrix(1.9023 0 0 -1.9023 -14.249 85.221)">
   <path d="m0 0c-0.078 0.701-2.638 1.683-2.738 1.58-0.103-0.101 0.326-0.601 0.523-1.471 0.042-0.179 0.66-0.47 1.236-0.523 0.523-0.049 1.012 0.112 0.979 0.414" fill="#efefef"/>
  </g>
  <g transform="matrix(1.9023 0 0 -1.9023 -24.595 90.865)">
   <path d="m0 0c-0.697 0.483-2.152 1.198-2.269 1.049-0.118-0.149 0.986-2.011 1.51-2.55 0.525-0.54 1.064 1.291 0.759 1.501" fill="#efefef"/>
  </g>
  <g transform="matrix(1.9023 0 0 -1.9023 91.109 88.797)">
   <path d="m0 0c-0.132 0.172-1.929-0.771-2.212-0.94-0.106-0.065-0.203-0.762 0.013-1.38 0.082-0.234 0.33-0.421 0.476-0.319 0.623 0.44 1.869 2.449 1.723 2.639" fill="#efefef"/>
  </g>
  <g transform="matrix(1.9023 0 0 -1.9023 77.422 83.731)">
   <path d="M 0,0 C 0.156,-0.481 1.277,-0.546 1.958,-0.179 2.521,0.128 3.077,1.347 3.013,1.412 2.886,1.538 -0.165,0.509 0,0" fill="#efefef"/>
  </g>
  <g transform="matrix(1.9023 0 0 -1.9023 56.519 56.438)">
   <path d="m0 0c0.068 0.547 0.268 1.143 0.557 1.624-0.845 0.367-4.899-0.289-5.908-1.119 0.042-0.031 0.461-0.367 0.512-0.409 2.206 0.517 3.37 0.517 4.839-0.096" fill="#fff"/>
  </g>
  <g transform="matrix(1.9023 0 0 -1.9023 49.603 58.451)">
   <path d="m0 0c0.551 0.034 2.792-0.217 3.36-0.535 0 0-0.3-2.39-0.317-3.71-0.568 0.985-2.156 3.559-3.043 4.245" fill="#a0d2f2"/>
  </g>
  <g transform="matrix(1.9023 0 0 -1.9023 -19.475 82.379)">
   <path d="m0 0c0.047-0.197 0.369-0.665 0.532-1.385 0.042-0.179 0.66-0.47 1.237-0.523 3e-3 0 8e-3 0 0.011-1e-3 -0.805 0.723-1.087 1.536-1.78 1.909" fill="#c9caca"/>
  </g>
  <g transform="matrix(1.9023 0 0 -1.9023 -26.038 93.72)">
   <path d="m0 0c0.268-0.275 0.539 0.067 0.7 0.496-0.915 0.411-1.657 1.372-2.189 2.065-8e-3 -4e-3 -0.017-5e-3 -0.021-0.011-0.118-0.149 0.986-2.011 1.51-2.55" fill="#c9caca"/>
  </g>
  <g transform="matrix(1.9023 0 0 -1.9023 87.832 93.817)">
   <path d="m0 0c0.623 0.439 1.868 2.448 1.723 2.639-9e-3 0.01-0.027 0.016-0.049 0.018-0.484-0.619-1.389-1.829-2.151-2.339 0.082-0.233 0.331-0.421 0.477-0.318" fill="#c9caca"/>
  </g>
  <g transform="matrix(1.9023 0 0 -1.9023 81.146 84.071)">
   <path d="m0 0c0.477 0.259 0.978 1.188 0.992 1.581-0.581-0.597-1.251-1.367-2.4-1.76 0.412-0.064 1.026-0.028 1.408 0.179" fill="#c9caca"/>
  </g>
  <g transform="matrix(1.9023 0 0 -1.9023 -17.844 83.337)">
   <path d="m0 0c0.052 0.053 0.874-0.438 1.069-0.582 0.543-0.408 0.096-0.481-0.279-0.233-0.382 0.252-0.848 0.757-0.79 0.815" fill="#f7f8f8"/>
  </g>
  <g transform="matrix(1.9023 0 0 -1.9023 -25.445 84.283)">
   <path d="m0 0c-0.081-0.053 0.603-0.629 1.023-0.837 0.421-0.207 0.665 0.07 0.253 0.26-0.518 0.239-1.205 0.622-1.276 0.577" fill="#f7f8f8"/>
  </g>
  <g transform="matrix(1.9023 0 0 -1.9023 -27.294 90.114)">
   <path d="m0 0c-0.049-0.049 0.849-0.827 0.972-0.912 0.123-0.086 0.337 0.058 0.123 0.254-0.214 0.193-1.035 0.717-1.095 0.658" fill="#f7f8f8"/>
  </g>
  <g transform="matrix(1.9023 0 0 -1.9023 79.092 83.614)">
   <path d="m0 0c0.206 0.078 1.365 0.732 1.303 0.83-0.063 0.098-1.33-0.509-1.5-0.608-0.168-0.097-0.134-0.348 0.197-0.222" fill="#f7f8f8"/>
  </g>
  <g transform="matrix(1.9023 0 0 -1.9023 86.053 84.38)">
   <path d="M 0,0 C -0.285,-0.114 -0.163,-0.648 0.285,-0.393 0.74,-0.134 1.419,0.402 1.348,0.5 1.276,0.598 0.36,0.146 0,0" fill="#f7f8f8"/>
  </g>
  <g transform="matrix(1.9023 0 0 -1.9023 89.789 89.847)">
   <path d="m0 0c0.025-0.058-0.679-0.615-0.981-0.813-0.214-0.136-0.442 0.068-0.118 0.269 0.375 0.231 1.073 0.607 1.099 0.544" fill="#f7f8f8"/>
  </g>
  <g transform="matrix(1.9023 0 0 -1.9023 66.023 176.62)">
   <path d="m0 0c0.389-0.327 1.409-1.789 1.229-1.811-0.178-0.022-1.655 1.365-1.945 1.544-0.291 0.178 0.078 0.805 0.716 0.267" fill="#f7f8f8"/>
  </g>
  <g transform="matrix(1.9023 0 0 -1.9023 72.064 179.85)">
   <path d="m0 0c0.044-0.013-0.101 1.521-0.503 2.125s-1.017 0.471-0.649-0.101c0.526-0.817 1.029-1.99 1.152-2.024" fill="#f7f8f8"/>
  </g>
  <g transform="matrix(1.9023 0 0 -1.9023 3.4457 185.41)">
   <path d="m0 0c0.124 0 1.063 1.969 1.242 2.428s-0.481 0.76-0.727 0.089c-0.246-0.67-0.616-2.517-0.515-2.517" fill="#f7f8f8"/>
  </g>
  <g transform="matrix(1.9023 0 0 -1.9023 -.57442 180.89)">
   <path d="m0 0c0.046-0.606 0.581-2.696 0.671-2.674 0.09 0.023-0.078 2.249-0.112 2.807-0.041 0.696-0.616 0.604-0.559-0.133" fill="#f7f8f8"/>
  </g>
  <g transform="matrix(1.9023 0 0 -1.9023 56.779 54.706)">
   <path d="m0 0c-0.39-1.28-0.906-4.085-0.932-5.852l0.344-0.743c-0.064 1.581 0.416 5.196 0.799 6.526 0.129 0.449-0.066 0.537-0.211 0.069" fill="#0d131a"/>
  </g>
  <g transform="matrix(1.9023 0 0 -1.9023 47.232 55.587)">
   <path d="m0 0c0.986-0.848 3.426-3.359 4.348-5.715 0.043-0.064 0.269 0.082 0.269 0.174 8e-3 0.092 0.196 3.043 0.454 3.043 0.219 0 0.101-1.513 0.047-2.698-3e-3 -0.075 0.102 9e-3 0.109 0.096 0.166 2.122 0.427 5.827 0.14 6.108-0.283 0.28-3.836-0.082-5.367-1.008m4.104-6.127c-0.886 2.495-3.991 5.522-4.767 6.131-0.105 0.081-0.104 0.246-0.013 0.312 1.176 0.86 5.429 1.508 6.244 1.067 0.442-0.238 0.19-5.38 0.017-6.748-9e-3 -0.073-0.056-0.12-0.093-0.141-0.096-0.057-0.26-0.138-0.386-0.192-0.047-0.021-0.116-0.013-0.179 0.03 2e-3 -0.051-5e-3 -0.12-0.028-0.161-0.061-0.103-0.348-0.323-0.507-0.411-0.121-0.067-0.243-0.012-0.288 0.113" fill="#0d131a"/>
  </g>
  <g transform="matrix(1.9023 0 0 -1.9023 -18.002 84.937)">
   <path d="m0 0c-0.187 0.636-0.579 1.171-0.518 1.203 0.071 0.037 2.212-0.831 2.246-1.373 0.022-0.374-1.621-0.191-1.728 0.17m2.188-0.129c-0.084 0.817-2.799 1.895-3.084 1.691-0.205-0.146 0.275-0.733 0.444-1.643 0.124-0.672 2.756-1.179 2.64-0.048" fill="#0d131a"/>
  </g>
  <g transform="matrix(1.9023 0 0 -1.9023 -25.785 93.417)">
   <path d="m0 0c-0.572 0.607-1.475 2.112-1.412 2.191 0.039 0.05 1.359-0.612 1.925-1.016 0.186-0.135-0.307-1.393-0.513-1.175m0.768 1.519c-0.367 0.252-2.322 1.283-2.556 0.987-0.212-0.268 1.33-3.02 1.816-3.02 0.67 0 1.149 1.748 0.74 2.033" fill="#0d131a"/>
  </g>
  <g transform="matrix(1.9023 0 0 -1.9023 90.987 89.107)">
   <path d="m0 0h2e-3zm-1.754-2.319c0.28-0.02 1.691 2.142 1.605 2.29-0.037 0.059-1.725-0.777-1.875-0.891-0.15-0.112-0.066-1.376 0.27-1.399m8e-3 -0.421c-0.801 0-0.895 1.882-0.496 2.121 0.386 0.232 2.222 1.195 2.453 0.894 0.247-0.322-1.433-3.015-1.957-3.015" fill="#0d131a"/>
  </g>
  <g transform="matrix(1.9023 0 0 -1.9023 80.912 83.731)">
   <path d="m0 0c-0.561-0.305-1.484-0.25-1.614 0.048-0.106 0.246 2.486 1.243 2.549 1.162s-0.57-1.012-0.935-1.21m1.309 1.542c-0.229 0.23-3.628-0.898-3.411-1.57 0.202-0.616 1.603-0.766 2.384-0.342 0.569 0.307 1.235 1.705 1.027 1.912" fill="#0d131a"/>
  </g>
 </g>
</svg>
