<?xml version="1.0" encoding="UTF-8" standalone="no"?>
<svg
   xmlns:dc="http://purl.org/dc/elements/1.1/"
   xmlns:cc="http://creativecommons.org/ns#"
   xmlns:rdf="http://www.w3.org/1999/02/22-rdf-syntax-ns#"
   xmlns:svg="http://www.w3.org/2000/svg"
   xmlns="http://www.w3.org/2000/svg"
   xml:space="preserve"
   style="enable-background:new 0 0 295.676 345.586;"
   viewBox="0 0 295.676 345.586"
   y="0px"
   x="0px"
   id="Layer_1"
   version="1.1"><metadata
     id="metadata110"><rdf:RDF><cc:Work
         rdf:about=""><dc:format>image/svg+xml</dc:format><dc:type
           rdf:resource="http://purl.org/dc/dcmitype/StillImage" /></cc:Work></rdf:RDF></metadata><defs
     id="defs108" /><style
     id="style3"
     type="text/css">
	.st0{fill:#FFFFFF;}
	.st1{fill:#7076B4;}
	.st2{fill:#D3D2D2;}
	.st3{fill:#99DDE3;}
	.st4{fill:#CCEDE4;}
	.st5{fill:#A9C3BC;}
	.st6{fill:#CCEFFC;}
	.st7{fill:#588CBA;}
	.st8{fill:#456D92;}
	.st9{fill:#A9C4D0;}
	.st10{fill:#859995;}
	.st11{fill:#191A21;}
</style><g
     id="g5"><path
       d="M92.733,249.805c-3.849,1.39-14.433,7.377-22.665,15.609   c-2.245,4.17-9.194,11.226-16.571,12.402c-7.377,1.176-12.723,1.283-19.03-5.239c-2.78,0.321-10.798-0.962-15.823-8.66   c-5.025-7.698-4.811-16.785-5.987-18.817c-1.176-2.138-9.301-6.201-10.584-14.861c-1.176-8.66-0.535-13.792,1.283-17.854   c1.817-4.17,7.484-10.798,10.264-13.471c-0.962-2.673-0.962-5.346-0.855-6.736c0.214-1.497,1.069-2.994,0.535-4.276   c-0.535-1.176-3.635-8.553-4.704-12.723s-1.497-13.15,1.817-20.42c3.314-7.27,8.767-14.754,14.112-17.961   c5.346-3.1,11.44-5.559,17.106-5.773c-0.428-4.276,1.069-7.805,3.207-9.088c2.245-1.283,41.268-5.346,48.752-8.125   c7.484-2.887,106.484-28.653,108.837-26.621c2.352,2.031,11.333,8.66,13.257,16.571c8.66-6.201,17.747-8.018,25.873-5.346   c4.918,1.604,12.081,5.987,14.54,10.905c1.176,2.352,7.377,18.282,8.125,19.137c0.748,0.855,10.157,6.094,11.44,10.584   c1.283,4.49,1.069,7.484,0,9.836c5.132,2.887,14.968,10.584,16.678,16.144c1.817,5.559,2.031,10.37,0.748,14.54   c-1.283,4.063-4.383,7.805-5.132,10.264c-0.855,2.459,2.031,10.264,0.107,16.144c-1.069,3.207-3.1,5.132-3.1,5.132   c-0.535,2.78-0.748,3.956-1.176,5.239c-3.956,12.295-16.678,17.534-29.615,13.257c-2.031-0.641-8.767-4.063-11.226-8.125   c-1.39,0.535-3.956-0.214-5.346-0.855c-1.39-0.641-9.622-3.742-17.747-1.39c-8.125,2.352-13.899,9.088-17.961,14.647l-54.846-4.704   L92.733,249.805z"
       class="st0"
       id="path81192" /><path
       d="M103.745,187.261c2.994,2.459,5.987,7.056,5.773,9.622   c-0.107,1.817-3.528,12.829-7.484,21.062c-3.956,8.232-9.515,24.59-9.194,29.508c0.214,5.025,6.629,33.464,11.119,48.966   c-4.17,1.283-8.125,4.811-9.408,8.66c-1.283,3.849,3.207,10.905,13.792,12.402c-1.817,2.78-3.207,5.132-3.849,7.056   c-0.641,1.924,1.39,13.15,13.043,13.364c0.962,1.817,4.276,4.383,7.591,5.453c8.553,2.78,14.112-0.214,20.527-8.446   c2.566-3.207,7.377-11.76,9.729-17.854c2.459-6.094,13.685-33.998,14.54-36.564c1.069,3.956,3.849,10.905,7.27,14.112   c0.855,4.597,1.924,9.622,1.283,13.043c-0.641,3.421-2.245,12.509-2.994,14.647c-1.604,1.497-4.383,5.025-5.132,7.27   c-0.748,2.352,1.604,8.553,7.591,10.477c8.553,2.78,13.685,0.641,17.534-11.226c0.641-2.138,5.025-16.999,5.773-20.206   c0.641-3.207,1.497-7.056,1.176-9.729c-0.321-2.673-1.069-6.094-1.069-6.094c1.604-4.811,3.635-15.93,3.742-23.2   c0.107-7.27,0.641-20.848,0-24.697c-0.748-3.956-3.1-12.829-8.66-19.886c-5.452-7.056-12.295-11.547-17.641-13.257   c-3.742-5.132-8.232-11.974-11.012-14.433c-2.78-2.459-8.339-9.194-8.981-10.905s-1.711-4.276-1.283-6.415   c0.428-2.031,1.283-4.704,1.604-5.773c0.428-1.069-0.855-4.383-7.698-6.201c-21.062-5.452-42.979,5.88-47.362,13.257   C102.355,184.054,103.745,187.261,103.745,187.261"
       class="st0"
       id="path81196" /><path
       d="M159.019,174.218c3.742-2.566,10.798-8.66,14.54-15.395   c3.742-6.736,8.232-16.892,10.905-25.231c6.736-5.346,19.03-17.534,26.728-32.181c13.471-25.766,18.389-49.393,14.112-52.494   c-4.17-3.1-45.545,0.214-71.952,16.251c-5.666,3.421-108.943-2.78-112.579-3.956c-13.15-4.383-23.521-1.39-24.055,0.214   c-0.535,1.604,12.295,29.401,17.427,37.312c2.673,4.17,5.239,7.484,6.522,8.446c-2.245,0.641-3.635,2.352-3.207,3.742   c0.428,1.39,3.314,5.025,7.698,5.88c-0.641,2.994,0,10.691,1.711,15.502c-1.711,4.49-4.383,11.012-3.528,15.93   c0.748,4.918,6.094,18.71,23.948,26.942c17.854,8.232,29.08,11.333,35.709,12.081C118.499,189.079,144.158,184.268,159.019,174.218   "
       class="st0"
       id="path81200" /><path
       d="M40.988,60.677c-0.748,4.704,1.817,15.716,9.088,18.175   c-2.994,4.276-6.415,11.974-5.773,17.534c1.283,11.44,10.691,17.64,21.596,17.64c10.798,0,18.068-7.056,22.345-13.15   c14.647,3.207,36.35-6.415,32.715-24.59c4.276,2.566,10.37,5.132,15.288,4.704c4.918-0.428,14.754-6.522,16.999-15.716   c7.056-3.421,22.238-10.691,35.816-13.899c4.383-11.333-2.673-22.131-14.754-25.98c-2.031-0.641-9.194-2.566-16.892-0.962   c-0.855-2.459-3.742-6.201-7.377-7.377c-5.773-1.924-9.088,3.635-17.213,0.962c-6.522-2.138-10.477-11.44-21.81-15.182   C99.255-1.011,83.004,4.335,76.91,22.83c-10.691-3.528-18.923,4.49-22.452,15.288C48.044,41.219,42.27,52.231,40.988,60.677"
       class="st0"
       id="path81204" /><path
       d="M45.05,116.806c-0.214,3.528,1.711,17.32,3.421,17.961   c1.711,0.641,6.201-3.849,8.125-9.194c-1.39-5.987-4.276-15.823-7.698-17.854C47.081,109.964,45.264,112.423,45.05,116.806"
       class="st1"
       id="path81208" /><path
       d="M115.185,99.914c-5.346,1.497-14.005,7.056-15.93,26.407   c5.025,6.949,12.188,9.836,21.062,8.66c8.981-1.283,15.075-10.05,15.716-23.628C129.618,102.266,124.272,97.455,115.185,99.914"
       class="st1"
       id="path81212" /><path
       d="M129.511,279.74c-0.107,4.918-0.214,9.408,0,11.974   c0.214,2.566,1.069,16.892,1.069,16.892s3.207-11.119,4.597-17.32c1.39-6.308,4.17-20.206,4.17-20.206l-9.729-3.742L129.511,279.74   z"
       class="st2"
       id="path81216" /><path
       d="M129.511,130.384c5.346-6.094,2.245-20.848-11.974-18.923   c-11.76,1.711-18.282,15.288-9.515,22.452c4.063,1.497,7.912,2.031,11.226,1.39C126.196,134.126,129.511,130.384,129.511,130.384"
       class="st3"
       id="path81220" /><path
       d="M51.465,132.95c2.459-7.912,0.962-13.792-1.39-16.999   c-1.176-1.711-3.1-1.711-4.597-0.428c-1.39,6.415,1.497,18.817,2.994,19.137C49.861,135.088,51.465,132.95,51.465,132.95"
       class="st3"
       id="path81224" /><path
       d="M129.511,287.759c-4.918-2.352-11.653-0.855-15.93,3.207   c-3.849-3.421-9.194-4.17-12.188-3.1c2.031,7.377,8.018,28.439,7.698,29.401c-0.321,0.962-2.994,3.421-4.063,6.736   c-1.069,3.314,0.321,13.471,12.509,13.899c-0.428-3.207-0.321-7.698,2.887-11.012c3.314-3.314,8.018-9.194,8.232-10.05   c0.321-0.855,1.924-7.056,1.924-7.056L129.511,287.759z"
       class="st4"
       id="path81228" /><path
       d="M164.792,294.067c-1.604,0-4.49,1.176-5.452,2.994   c-1.817-6.949-10.477-8.018-16.892-2.673c-0.962-2.566-4.063-6.094-6.201-6.842c-1.817,6.949-6.415,28.118-7.484,29.294   c-1.069,1.176-8.767,9.194-10.905,15.823c-1.497,4.597,0,8.446,7.27,10.798c7.27,2.352,13.899,0.321,18.175-5.239   c4.383-5.452,7.912-11.44,11.012-18.816C157.415,312.028,164.792,294.067,164.792,294.067"
       class="st4"
       id="path81232" /><path
       d="M201.356,294.067c-0.748,0.428-1.924,2.138-2.245,3.635   c-2.887-2.031-8.553-1.817-12.188,3.421c-3.314-5.773-7.056-9.088-10.05-6.842c1.39,4.063,2.138,10.691,1.711,13.364   s-2.459,12.616-3.421,14.968c-1.924,1.711-3.956,4.918-4.597,7.056c-0.748,2.245,1.176,8.018,7.27,9.943   c10.264,3.314,14.433-1.176,16.892-8.767c0.535-1.604,5.559-17.854,6.842-23.734C203.28,299.091,201.356,294.067,201.356,294.067"
       class="st4"
       id="path81236" /><path
       d="M137.743,279.313c-2.352-0.641-7.484,1.711-8.339,2.78   c-0.214,4.918,0,9.088,0.214,11.867c0.214,2.78,1.069,14.219,1.069,14.219c2.138-6.628,3.1-10.691,4.383-16.037   C136.246,286.903,137.743,279.313,137.743,279.313"
       class="st5"
       id="path81240" /><path
       d="M93.054,247.667c-4.597-4.17-5.452-12.616-6.308-14.326   c-0.855-1.711-9.301-5.025-8.874-14.54c0.428-9.408,5.132-13.257,6.094-17.641c0.855-4.383-1.604-9.088-0.535-12.295   c1.069-3.207,3.956-5.773,4.811-5.88c4.704,1.924,10.691,3.528,15.395,4.17c2.994,2.994,5.559,6.949,5.773,8.981   c0.214,2.031-0.962,7.163-3.207,12.081c-2.245,4.918-7.056,16.464-8.767,20.741c-1.817,4.276-3.528,10.157-4.17,12.616   C92.947,244.245,93.054,247.667,93.054,247.667"
       class="st6"
       id="path81244" /><path
       d="M226.159,218.907c3.742-5.666,2.673-17.106-3.421-23.2   c-5.987-5.987-12.936-4.383-18.71-8.981c-5.773-4.597-2.78-12.509-12.723-19.993c-4.704-3.528-15.288,0.535-20.634-3.956   c-2.994,3.421-6.842,8.446-11.653,11.44c-1.283,3.421-2.138,6.522-1.604,8.767c0.535,2.352,3.1,6.308,4.811,8.66   c1.711,2.352,5.132,5.346,6.415,6.842c1.283,1.497,6.201,7.805,7.27,9.408c0.962,1.604,2.352,3.849,2.352,3.849   c2.673,0.855,9.408,3.849,13.685,8.767c4.17,4.918,8.125,9.301,10.05,13.685c5.559-7.484,11.44-12.081,15.93-13.578   C222.524,219.121,226.159,218.907,226.159,218.907"
       class="st6"
       id="path81248" /><path
       d="M112.726,102.373c2.459-0.214,5.239,3.742,5.452,8.553   c0.107,3.742-1.069,8.125-3.635,8.553c-2.352,0.428-4.918-2.352-5.452-7.377C108.556,106.436,110.908,102.587,112.726,102.373"
       class="st0"
       id="path81252" /><path
       d="M48.258,109.857c1.39-0.214,2.887,2.673,3.314,6.415   c0.535,3.742-0.107,6.842-1.39,7.056c-1.711,0.321-3.1-3.314-3.421-6.308C46.44,113.492,47.081,110.071,48.258,109.857"
       class="st0"
       id="path81256" /><path
       d="M66.86,93.285c0.748,6.629,17.534,8.232,25.445-1.497   c9.408,5.239,27.369-5.132,29.294-11.226c-0.214-1.711-0.641-3.742-1.604-5.559c7.912,6.094,15.075,7.056,19.886,4.597   c8.553-4.383,13.257-9.836,13.685-18.175c10.157-6.308,12.081-18.175,8.125-25.445c-3.421-6.308-11.974-7.484-17.854-3.314   c-3.956-2.566-11.226-2.566-15.288,0.321c-0.748-0.214-2.887,0.214-4.063,0.748c-2.78-6.522-10.584-13.043-18.603-13.471   c-5.773-0.214-13.471,5.452-14.861,9.515c-1.711-0.321-3.421,1.39-3.207,5.987c-6.736-2.459-15.181-0.107-19.03,5.666   c-0.107,11.546-4.811,18.496-9.515,18.175c-4.063-0.321-6.522-5.239-6.736-11.012c-9.729,4.811-11.333,27.37-1.924,29.935   c6.201-6.949,17.106-10.05,23.734-7.805c4.704,1.497,5.132,7.377,3.849,11.44C76.482,87.619,71.244,92.216,66.86,93.285"
       class="st6"
       id="path81260" /><path
       d="M50.61,143.748c0.107,1.497,5.025,5.452,8.018,5.452   c2.994,0,7.27-5.132,7.27-7.27c-0.107-2.031-5.132-2.138-8.232-1.711C54.565,140.861,50.503,142.144,50.61,143.748"
       class="st7"
       id="path81264" /><path
       d="M37.139,77.783c-3.207-3.1-6.736-7.163-9.515-9.515   c0.535,3.742,4.383,17.641,7.591,23.2c1.176-0.641,2.78-1.069,3.742-1.069c0.641-1.817,1.711-4.811,3.1-6.629   C40.56,81.311,38.849,79.494,37.139,77.783"
       class="st7"
       id="path81268" /><path
       d="M191.627,70.299c6.308-4.063,17.961-10.905,27.156-11.226   c-2.031,9.729-4.49,21.81-10.37,32.181c-5.88,10.37-14.112,23.841-21.382,27.797c-3.207-2.459-7.27-3.421-11.333-4.17   c15.395-3.528,20.848-15.823,17.213-23.841c-2.994-6.522-7.163-8.125-18.71-5.452C178.797,80.991,185.105,74.469,191.627,70.299"
       class="st7"
       id="path81272" /><path
       d="M94.444,305.613c-0.321,5.346,3.635,9.622,14.219,11.653   c-0.107-3.1-0.535-5.987-1.924-10.584c-1.39-4.597-2.994-10.05-2.994-10.05C100.11,297.381,94.657,301.978,94.444,305.613"
       class="st5"
       id="path81276" /><path
       d="M27.837,69.765c3.742,5.987,9.088,13.685,11.974,18.068   l2.245-4.17c0,0-4.17-5.132-7.377-8.66C31.365,71.689,27.837,69.765,27.837,69.765"
       class="st8"
       id="path81280" /><path
       d="M189.595,85.802c8.553-9.943,20.1-19.993,28.545-23.307   l0.641-3.421c0,0-10.157,0.214-23.734,9.088c-13.578,8.874-17.641,13.15-21.169,16.892   C184.464,83.129,189.595,85.802,189.595,85.802"
       class="st8"
       id="path81284" /><path
       d="M102.676,186.513c3.956,0.107,24.162-3.421,25.017-1.069   c0.962,2.352-9.622,9.194-12.402,9.515c-2.78,0.428-7.591-2.887-7.591-2.887C106.738,189.72,102.676,186.513,102.676,186.513"
       class="st2"
       id="path81288" /><path
       d="M112.298,247.987c2.352,3.742,10.477,10.477,12.829,11.76   c2.352,1.283,9.301,3.528,15.823,5.025l-1.604,6.308c-6.201-1.924-14.968-5.452-17.961-7.912c-2.994-2.352-6.522-9.408-6.522-9.408   L112.298,247.987z"
       class="st2"
       id="path81292" /><path
       d="M104.707,326.033c0.428,2.887,7.484,6.736,13.15,6.629   c0,0-1.176,3.207-0.107,4.918c0,0-4.704,0.962-9.088-2.459C104.279,331.7,104.707,326.033,104.707,326.033"
       class="st5"
       id="path81296" /><path
       d="M118.285,330.951c0.321,2.994,3.528,6.415,6.736,7.484   c5.666,1.817,12.295,2.459,18.71-0.962c-4.704,4.704-8.446,9.194-19.565,5.559c-3.849-1.283-5.88-3.528-6.842-6.628   C116.361,333.196,118.285,330.951,118.285,330.951"
       class="st5"
       id="path81300" /><path
       d="M171.741,327.744c-0.535,1.176,2.245,6.415,5.987,7.698   c6.415,2.138,11.333,1.176,15.502-1.711c-1.497,4.597-6.308,9.088-15.93,5.987c-5.666-1.817-7.27-7.056-7.27-8.874   C170.137,329.027,171.741,327.744,171.741,327.744"
       class="st5"
       id="path81304" /><path
       d="M5.386,208.964c-1.924,5.132-0.641,19.458,3.849,25.552   c2.994,3.956,6.201,5.666,6.842,7.484c0.641,1.817,5.025,20.527,13.899,24.055l4.276,6.736c0,0-6.415,0.962-12.723-4.704   c-6.308-5.559-8.018-20.634-9.088-22.879c-1.069-2.245-7.056-3.421-8.981-9.836c-1.924-6.415-2.566-12.723-1.497-17.534   C3.141,212.92,5.386,208.964,5.386,208.964"
       class="st2"
       id="path81308" /><path
       d="M30.403,251.088c-1.497,4.49,2.352,16.892,13.364,20.42   c15.502,5.025,26.407-6.736,26.407-6.736s-2.994,8.66-9.836,10.905c-6.842,2.245-11.44,4.49-17.854,2.352   c-6.522-2.138-10.477-7.056-13.471-14.647C25.913,255.899,30.403,251.088,30.403,251.088"
       class="st2"
       id="path81312" /><path
       d="M70.495,256.22c4.704-3.207,15.716-8.232,22.238-9.729   l-0.107,3.314c-5.666,2.352-22.665,15.609-22.665,15.609s1.283-3.528,1.176-5.773C71.03,257.396,70.495,256.22,70.495,256.22"
       class="st2"
       id="path81316" /><path
       d="M20.567,192.928c-0.107-3.314-0.428-5.239-1.39-8.232   c-0.962-2.994-10.691-19.458-9.836-26.728c-1.924,7.056-2.031,14.219-0.428,18.71c1.497,4.49,4.276,10.905,4.276,12.509   c0,1.497-0.962,7.163,0.214,9.836C16.077,196.456,20.567,192.928,20.567,192.928"
       class="st2"
       id="path81320" /><path
       d="M241.448,212.813c0.535,2.887,6.415,9.408,14.326,11.974   c12.723,4.17,27.263-6.308,28.973-13.471c-1.069,13.578-14.54,23.521-29.508,18.603c-8.66-2.78-11.119-6.628-12.402-8.981   C241.02,217.517,241.448,212.813,241.448,212.813"
       class="st2"
       id="path81324" /><path
       d="M241.341,216.769c-4.597-2.245-9.088-3.1-13.364-3.1   c-0.321,2.031-0.962,3.849-1.817,5.239c2.138-0.214,3.849-0.214,5.346,0.214c3.207,0.748,7.805,2.887,8.767,2.994   c0.855,0.107,2.994-0.321,2.994-0.321L241.341,216.769z"
       class="st2"
       id="path81328" /><path
       d="M228.084,213.562c-13.792,0-24.804,9.836-27.69,17.32   l0.321,0.641c0.535,0.855,0.962,1.711,1.283,2.566c0,0,6.522-10.157,14.005-12.829c0.641-0.321,1.283-0.535,1.924-0.748   c2.459-0.748,4.704-1.176,6.094-1.39c0.748-0.107,1.39-0.214,2.031-0.321C227.122,217.41,227.763,215.593,228.084,213.562"
       class="st9"
       id="path81332" /><path
       d="M288.168,192.393c-0.214,4.704-1.924,9.301-3.849,11.44   c0.535,2.459,1.069,4.704,0.855,7.27c2.138-2.031,3.314-4.063,3.528-7.377C288.917,200.518,288.168,192.393,288.168,192.393"
       class="st2"
       id="path81336" /><path
       d="M44.943,90.292c-0.535,4.383,6.522,14.968,13.578,17.32   c11.119,3.635,22.879-0.214,30.042-7.163c0,0-2.245,5.88-12.616,11.44c-6.522,3.421-15.502,2.352-18.603,1.283   c-3.1-1.069-9.301-4.276-11.76-11.226C43.126,94.996,44.943,90.292,44.943,90.292"
       class="st2"
       id="path81340" /><path
       d="M91.45,95.424c8.767,3.207,21.276,0.321,28.545-7.912   c-12.295,17.427-31.646,13.257-31.646,13.257s1.283-1.817,1.817-2.78C90.809,97.027,91.45,95.424,91.45,95.424"
       class="st2"
       id="path81344" /><path
       d="M42.164,84.305c-1.497,2.887-0.748,9.515,2.138,9.194   c-0.107,3.956,0.214,5.452,0.535,6.842c-2.245-0.428-4.918-1.283-5.987-6.629C37.887,88.368,42.164,84.305,42.164,84.305"
       class="st2"
       id="path81348" /><path
       d="M35.535,91.789C35,94.996,38.849,103.87,46.547,105.26   l2.352,2.352l-1.39,2.566c-4.276-1.497-7.163-2.994-10.477-6.629c-3.314-3.635-3.314-6.736-2.994-8.874   C34.359,92.537,35.535,91.789,35.535,91.789"
       class="st2"
       id="path81352" /><path
       d="M38.636,108.36c0,1.39,3.314,3.849,7.27,5.239l-0.748,2.994   c-4.383-1.283-6.522-3.1-7.484-5.239C36.604,109.002,38.636,108.36,38.636,108.36"
       class="st2"
       id="path81356" /><path
       d="M187.885,120.762c-6.201,2.78-13.257,3.1-22.452,1.176   c-1.604-0.321-2.138,1.497-0.962,2.031c1.176,0.535,5.987,3.1,12.295,3.1c6.415,0,8.553-0.535,10.05-2.994   C188.419,121.724,187.885,120.762,187.885,120.762"
       class="st2"
       id="path81360" /><path
       d="M193.337,92.644c-4.17,10.157-13.364,18.282-28.545,21.596   c-2.78,0.641-2.459,2.245,0.107,2.352s16.571-1.283,22.879-7.484C196.545,100.449,193.337,92.644,193.337,92.644"
       class="st2"
       id="path81364" /><path
       d="M120.851,75.431c12.829,4.17,27.904-1.817,33.143-14.326   c-0.428,4.17-2.352,12.188-11.119,17.106C130.58,84.946,120.851,75.431,120.851,75.431"
       class="st9"
       id="path81368" /><path
       d="M53.176,44.213c-0.428,4.383,2.994,10.691,6.308,11.012   c4.063,0.428,7.698-4.49,8.66-7.484c-1.39,5.025-3.314,12.081-8.874,11.867c-5.559-0.321-5.987-5.987-6.522-8.018   C52.32,49.665,53.176,44.213,53.176,44.213"
       class="st2"
       id="path81372" /><path
       d="M44.729,62.281c-1.283-5.452-0.855-10.798,0.535-13.685   c0,0-6.415,8.446-3.742,19.672c1.924,8.232,8.553,10.584,8.553,10.584s0.214-0.214,0.428-0.428   C45.585,76.928,43.767,69.444,44.729,62.281"
       class="st2"
       id="path81376" /><path
       d="M44.729,62.281c-0.962,7.163,0.748,14.54,5.773,16.144   c0.535-0.535,1.604-1.39,2.78-2.566C48.578,72.331,45.905,67.199,44.729,62.281"
       class="st9"
       id="path81380" /><path
       d="M95.299,303.047c0.107,1.283,5.666,8.66,12.936,9.088   l1.176,4.597l-0.962,0.748c0,0-5.452-0.748-9.088-3.1c-3.635-2.352-4.918-5.987-5.025-7.377   C94.23,305.506,95.299,303.047,95.299,303.047"
       class="st10"
       id="path81384" /><path
       d="M124.914,344.422c-9.301-2.994-9.729-8.553-8.339-12.829   c2.245-6.736,10.584-14.219,10.905-15.395c5.773-17.641,13.364-57.198,15.075-68.103c1.176-7.056,3.207-6.842,2.031,0.321   c-1.711,10.905-8.981,50.783-14.754,68.531c-0.535,1.711-8.981,9.943-10.905,15.395c-1.069,2.994-1.39,7.484,6.628,10.05   c8.553,2.78,15.181,0.855,24.483-16.892c4.918-9.408,20.741-48.431,24.697-62.33c1.817-6.522,3.849-5.88,2.031,0.641   c-4.063,14.326-19.458,53.135-24.483,62.864C143.516,343.46,136.139,348.057,124.914,344.422"
       class="st11"
       id="path81388" /><path
       d="M121.599,264.452c-3.421-2.673-7.591-10.37-9.729-15.288   c-1.283-3.1,0.214-3.742,1.497-0.641c1.924,4.597,6.629,11.653,9.729,14.005c3.314,2.566,10.798,5.666,16.571,7.27   c0.641,0.214,0,2.566-0.641,2.352C134.215,270.867,124.486,266.804,121.599,264.452"
       class="st11"
       id="path81392" /><path
       d="M129.618,311.172c0-2.352-1.39-19.244-1.283-21.062   c0-0.855-0.107-18.603,0.107-22.665c0-0.641,2.78-0.107,2.78,0.535c-0.214,3.956-0.428,21.276-0.428,22.131   c0,1.711,0.428,14.968,0.535,17.106C131.328,309.034,129.618,311.707,129.618,311.172"
       class="st11"
       id="path81396" /><path
       d="M93.588,304.437c1.497-4.597,5.666-8.125,9.943-8.767   c0.641-0.107,1.069,1.924,0.428,2.031c-3.421,0.535-6.736,3.742-8.018,7.484c-1.176,3.421,2.994,10.05,12.723,11.119   c0.641,0.107,0.428,2.245-0.321,2.138C99.362,317.48,91.343,311.386,93.588,304.437"
       class="st11"
       id="path81400" /><path
       d="M98.399,313.738c-0.855-2.673-0.748-6.094,0.535-8.767   c1.283-2.887,2.994-2.031,1.711,0.748c-1.176,2.459-0.535,6.308,0.641,8.553C101.5,314.807,98.506,314.273,98.399,313.738"
       class="st11"
       id="path81404" /><path
       d="M103.424,316.304c-0.748-2.673-0.214-6.201,0.962-8.767   c1.39-2.887,2.994-2.138,1.604,0.748c-1.176,2.459-0.748,6.308,0,8.125C106.311,317.053,103.531,316.625,103.424,316.304"
       class="st11"
       id="path81408" /><path
       d="M110.053,335.762c-1.817-2.673-1.711-6.094-0.428-9.729   c1.069-2.994,2.673-2.459,1.711,0.535c-1.39,3.742-0.214,7.484,2.459,9.622C114.222,336.511,110.587,336.617,110.053,335.762"
       class="st11"
       id="path81412" /><path
       d="M116.574,331.806c0-0.535,0.321-2.78,0.748-4.383   c0.855-3.314,2.459-2.887,1.924,0.214c-0.107,0.748-0.214,1.711-0.321,2.78C118.926,331.165,116.574,332.448,116.574,331.806"
       class="st11"
       id="path81416" /><path
       d="M119.782,340.253c-0.321-3.1,0.962-6.308,3.421-9.088   c2.352-2.673,3.849-1.497,1.497,1.069c-2.459,2.78-3.207,6.308-2.245,9.194C122.775,342.07,119.889,340.894,119.782,340.253"
       class="st11"
       id="path81420" /><path
       d="M127.693,343.888c-0.107-2.78,1.283-6.094,3.635-9.622   c2.031-2.887,3.528-1.924,1.604,0.855c-2.245,3.314-3.1,6.842-2.78,9.088C130.259,344.85,127.693,344.101,127.693,343.888"
       class="st11"
       id="path81424" /><path
       d="M172.489,335.762c0.321-2.887,1.604-6.201,3.635-8.232   c2.352-2.352,3.635-1.176,1.497,1.176c-1.604,1.711-2.673,5.666-2.673,8.446C174.841,337.901,172.383,336.297,172.489,335.762"
       class="st11"
       id="path81428" /><path
       d="M180.294,340.68c0.535-3.314,2.245-7.591,4.383-10.477   c1.924-2.566,3.421-1.39,1.604,0.962c-1.711,2.245-2.994,6.308-3.528,9.943C182.539,341.749,180.187,341.215,180.294,340.68"
       class="st11"
       id="path81432" /><path
       d="M163.616,192.714c0.107-8.874,3.635-18.175,8.66-27.904   c2.245-4.276,3.956-3.1,1.711,1.283c-5.132,9.836-7.698,19.993-7.484,28.866C166.396,195.6,163.616,193.248,163.616,192.714"
       class="st11"
       id="path81436" /><path
       d="M181.149,212.92c4.597-15.823,14.005-32.822,20.848-38.809   c4.383-3.849,5.666-2.245,1.283,1.604c-5.987,5.239-14.647,20.848-19.565,37.633C183.501,214.096,180.936,213.562,181.149,212.92"
       class="st11"
       id="path81440" /><path
       d="M103.317,214.524c-7.484-7.377-14.754-12.188-26.942-15.93   c-4.383-1.39-3.849-2.994,0.641-1.711c12.616,3.635,20.206,7.805,27.904,15.395C105.349,212.813,103.424,214.631,103.317,214.524"
       class="st11"
       id="path81444" /><path
       d="M201.463,232.913c4.597-7.591,12.936-13.578,20.741-14.754   c8.125-1.283,12.616,0.535,15.823,1.711c2.031,0.855,3.421,1.39,5.025,0.855c0.641-0.214,1.283,1.711,0.641,1.924   c-2.352,0.641-4.17,0-6.415-0.855c-3.207-1.283-7.27-2.459-14.754-1.283c-7.377,1.176-15.502,7.27-19.565,14.54   C202.746,235.586,201.249,233.234,201.463,232.913"
       class="st11"
       id="path81448" /><path
       d="M240.379,214.845c-0.107-3.635,1.604-3.635,1.711-0.107   c0.214,8.446,11.012,16.785,25.552,14.754c9.408-1.283,17.106-12.188,16.037-22.452c-0.748-6.308-5.88-10.37-13.471-9.088   c-6.415,1.176-9.943,6.522-8.66,12.081c0.748,3.207,4.383,5.559,8.981,3.635c4.063-1.817,4.811-0.321,0.641,1.497   c-5.987,2.673-11.119,0-12.188-4.49c-1.604-6.842,2.887-13.685,10.798-15.075c8.874-1.604,15.823,3.635,16.678,11.226   c1.283,11.653-7.698,23.628-18.389,25.124C254.17,233.875,240.592,226.498,240.379,214.845"
       class="st11"
       id="path81452" /><path
       d="M214.506,104.19c-0.214-1.176-1.497-3.421-2.566-4.918   c-0.428-0.641,0.748-2.78,1.283-2.352c1.924,1.817,3.314,3.742,3.956,5.987C217.286,103.549,214.613,104.618,214.506,104.19"
       class="st11"
       id="path81456" /><path
       d="M274.804,148.452c4.811-10.798-10.584-17.854-11.333-18.923   c-2.031-2.78-5.452-14.005-5.987-15.395c-0.641-1.711-4.383-10.477-15.823-14.219c-10.477-3.421-21.276-0.107-30.256,9.301   c-2.566,2.673-3.742,1.604-1.39-1.283c9.088-10.477,21.276-14.219,32.608-10.477c9.729,3.207,15.181,10.264,17.213,15.823   c0.535,1.39,3.956,12.402,5.666,14.861c0.535,0.748,17.961,8.553,11.653,21.169C276.836,149.842,274.591,149.094,274.804,148.452"
       class="st11"
       id="path81460" /><path
       d="M285.068,210.141c2.138-2.994,3.314-7.484,2.245-14.326   c-0.321-2.352-0.748-4.597,0-6.842c1.176-3.207,3.421-5.452,4.597-8.874c2.78-8.446,0.855-15.716-5.88-22.024   c-11.653-11.012-24.911-14.647-37.526-10.264c-3.849,1.39-4.383-0.107-0.535-1.604c13.792-5.239,27.69-1.604,39.878,9.836   c7.377,6.949,9.515,15.395,6.522,24.697c-1.283,3.956-3.635,5.987-4.704,8.981c-0.535,1.604-0.214,3.528,0.107,5.666   c1.176,7.591-0.428,15.288-4.276,17.747C285.068,213.348,284.854,210.568,285.068,210.141"
       class="st11"
       id="path81464" /><path
       d="M40.774,131.56c-1.604-3.421,0.107-8.125,3.849-11.012   c0.321-0.321,1.283,1.604,0.855,2.138c-2.245,2.459-3.421,5.773-2.459,7.805C43.233,131.239,40.881,131.881,40.774,131.56"
       class="st11"
       id="path81468" /><path
       d="M12.656,199.877c-2.245-2.887-0.748-9.194-0.641-11.226   c0.107-2.031-9.194-15.181-4.17-30.791c4.49-14.112,15.93-26.942,34.319-27.369c2.673-0.107,2.673,1.817,0.107,1.817   c-17.213,0.321-27.69,14.54-31.646,26.407c-4.276,13.043,3.956,27.797,3.849,30.149c-0.107,2.031-1.604,7.27,0,9.408   C14.794,198.808,12.763,200.091,12.656,199.877"
       class="st11"
       id="path81472" /><path
       d="M18.536,266.911c-5.559-6.308-5.88-18.496-7.056-20.955   c-0.535-1.283-2.994-2.78-4.704-4.063c-6.308-4.918-8.66-17.747-5.132-28.545c2.994-9.194,15.93-21.169,21.276-23.093   c3.314-1.176,10.05-2.352,15.93-2.031c5.666,0.321,5.452,2.245-0.107,1.817c-5.666-0.321-11.867,1.283-14.968,2.459   c-4.063,1.497-16.785,14.005-19.351,21.917c-2.566,8.018-1.497,21.382,3.849,25.552c0.321,0.214,4.49,3.1,5.452,5.025   c0.962,1.924,2.352,14.647,7.056,20.1c2.352,2.78,7.163,6.949,12.402,6.629c0.428,0,2.352,2.138,1.604,2.245   C30.189,274.822,22.812,271.615,18.536,266.911"
       class="st11"
       id="path81476" /><path
       d="M42.377,279.313c-11.653-3.742-17.427-17.534-14.433-26.835   c2.78-8.553,12.616-10.37,18.282-8.446c5.987,1.924,8.767,7.377,6.949,13.257c-1.283,3.956-4.597,6.736-7.805,6.736   c-2.78,0.107-2.673-1.176-0.107-1.924c2.352-0.641,4.597-2.673,5.559-5.666c1.711-5.239-1.39-8.981-5.346-10.157   c-4.704-1.497-12.509,0-14.754,7.056c-2.566,8.018,2.566,20.42,12.402,23.628c5.346,1.711,15.609-0.535,21.81-6.522   c2.887-2.78,6.094-7.484,4.811-13.899c-0.535-2.887,0.962-3.314,1.604-0.428c1.604,7.591-1.39,12.936-4.704,16.144   C59.697,278.992,48.471,281.344,42.377,279.313"
       class="st11"
       id="path81480" /><path
       d="M71.03,262.741c6.629-6.094,17.534-13.15,21.81-13.899   c0.641-0.107,1.176,1.924,0.428,2.031c-4.383,0.748-18.389,11.44-24.162,17.534C68.892,268.621,70.281,263.383,71.03,262.741"
       class="st11"
       id="path81484" /><path
       d="M57.987,141.61c-4.383,0.428-6.308,1.604-6.201,2.245   c0.321,1.817,5.773,4.383,6.736,4.276c2.352-0.321,6.522-5.132,5.987-6.094C64.401,141.503,61.942,141.182,57.987,141.61    M49.541,144.069c-0.214-2.138,3.1-4.17,8.125-4.704s9.194,0.535,9.301,2.245c0.214,3.1-5.559,8.339-8.125,8.553   C57.131,150.27,49.861,147.383,49.541,144.069"
       class="st11"
       id="path81488" /><path
       d="M91.236,169.941c4.276,2.031,9.515,0.855,12.295-2.887   c2.138-2.887,3.1-2.138,1.39,0.962c-3.1,5.452-9.194,6.201-14.326,3.421C88.35,170.262,88.884,168.872,91.236,169.941"
       class="st11"
       id="path81492" /><path
       d="M55.848,128.353c-0.535-5.239-3.421-13.15-5.987-18.603   c-0.321-0.641,2.994,0.321,3.314,1.176c2.352,5.452,3.849,12.295,4.383,17.213C57.987,132.095,56.169,132.202,55.848,128.353"
       class="st11"
       id="path81496" /><path
       d="M47.83,135.943c-1.283-0.428-8.339-17.534-0.107-28.866   c0.428-0.535,2.352,0.855,2.031,1.39c-2.78,3.849-3.528,8.553-3.421,12.829c0.107,5.452,1.924,11.867,2.566,11.974   c0.641,0.214,5.346-3.635,6.736-9.088c0.214-0.641,1.604,2.566,1.283,3.207C54.458,133.484,48.258,136.157,47.83,135.943"
       class="st11"
       id="path81500" /><path
       d="M117.109,336.724c-7.484-0.535-11.547-5.132-11.119-10.691   c0.428-4.597,3.1-6.094,3.956-8.767c1.283-4.063-16.037-56.022-15.609-69.6c0.214-7.591,5.132-19.565,9.515-30.042   c3.742-8.981,6.949-16.678,6.842-20.741c-0.107-4.918-3.1-7.912-6.201-10.477c-0.214-0.214-0.321-0.214-0.535-0.321   c-30.363-5.239-56.343-21.382-59.015-36.671c-0.855-4.918,1.497-12.723,2.566-15.823c0.321-0.855-1.283-2.78-1.604-2.245   c-2.566,5.239-4.918,12.723-3.849,18.496c3.207,17.961,31.111,33.25,61.154,38.595c2.673,2.352,5.025,4.704,5.132,8.553   c0.107,3.635-3.528,11.44-7.056,19.779c-4.49,10.691-9.622,22.879-9.836,31.005c-0.321,17.106,17.534,65.216,16.144,69.279   c-0.748,2.138-3.742,3.528-4.17,8.767c-0.641,7.056,5.346,12.936,14.112,13.364C118.178,339.183,117.323,336.724,117.109,336.724"
       class="st11"
       id="path81504" /><path
       d="M98.292,128.46c1.069-25.659,14.219-30.042,20.1-30.684   c6.629-0.748,16.358,5.666,20.527,17.213c1.497,4.17,0,4.597-1.604,0.535c-3.528-9.088-12.295-15.395-18.496-14.754   c-10.905,1.176-17.854,12.509-18.496,27.583C99.896,132.629,98.079,132.736,98.292,128.46"
       class="st11"
       id="path81508" /><path
       d="M99.255,127.177c-0.214-0.428,0.748-2.78,0.962-2.245   c2.78,7.056,13.15,11.226,21.489,8.446c8.125-2.673,11.974-7.163,13.578-22.558c0.107-0.641,1.817,1.711,1.817,2.138   c-1.39,11.76-4.063,19.137-14.647,22.772C112.939,138.83,103.103,134.767,99.255,127.177"
       class="st11"
       id="path81512" /><path
       d="M45.264,104.618c-5.559-10.477-0.214-27.69,13.471-33.357   c9.943-4.17,18.496-2.887,20.527,1.069c3.849,7.591-0.321,18.282-11.974,22.131c-6.522,2.245-11.653,0.535-12.829-3.314   c-0.535-1.817,0.748-4.811,2.887-6.736c2.459-2.138,3.421-0.641,1.069,1.39c-1.497,1.283-2.031,3.742-1.711,4.597   c0.748,2.459,4.704,3.314,9.622,1.604c8.446-2.887,13.578-11.867,10.157-18.496c-1.069-2.138-7.698-4.063-16.999-0.107   c-12.829,5.346-16.571,21.382-11.974,29.935c4.063,7.698,13.043,11.012,23.307,8.767c13.578-2.994,22.452-17.534,21.276-28.545   c-0.535-5.346,1.176-5.773,1.817-0.321c1.39,13.257-9.088,28.225-22.558,31.218C61.194,116.806,49.861,113.278,45.264,104.618"
       class="st11"
       id="path81516" /><path
       d="M49.541,79.601c-4.17-1.39-7.912-5.452-9.301-11.119   c-2.673-11.119,2.78-22.772,14.54-33.036c0.535-0.428,1.817,1.283,1.39,1.711c-10.691,9.301-15.716,20.848-13.257,30.791   c1.176,5.025,4.276,8.767,7.805,9.622C51.358,77.676,49.754,79.708,49.541,79.601"
       class="st11"
       id="path81520" /><path
       d="M52.855,39.616c3.742-11.44,10.584-18.817,18.496-19.351   c5.666-0.321,11.333,2.994,14.968,8.767c4.383,6.949,4.597,15.609,1.39,22.772c-2.031,4.597-3.742,3.742-1.711-0.855   c2.887-6.415,2.245-14.326-1.711-20.634c-3.207-5.132-7.805-7.805-12.723-7.484c-6.842,0.428-12.936,6.949-16.358,17.427   c-2.78,8.446-0.321,17.427,4.276,17.961c3.849,0.428,9.301-9.408,8.339-18.175c-0.321-3.528,1.283-3.742,1.711-0.321   c1.176,11.012-4.063,22.024-10.37,21.276C53.496,60.57,49.22,50.734,52.855,39.616"
       class="st11"
       id="path81524" /><path
       d="M76.055,22.082c4.49-13.792,13.471-21.169,26.3-22.024   c11.547-0.748,18.068,5.88,23.414,10.905c2.673,2.566,5.025,4.811,7.591,5.559c4.383,1.39,6.949,0.535,9.408-0.321   c2.352-0.855,4.704-1.818,8.018-0.748c4.063,1.283,6.949,5.132,7.484,8.553c0.107,0.641-1.604,1.283-1.711,0.535   c-0.321-2.566-3.314-5.666-6.522-6.629c-2.566-0.855-4.276-0.214-6.415,0.535c-2.78,0.962-5.88,2.031-11.012,0.428   c-2.994-0.962-5.666-3.528-8.446-6.094c-5.132-4.918-11.012-10.477-21.489-9.729c-11.76,0.748-19.672,7.27-24.162,19.886   C78.086,23.579,75.841,22.723,76.055,22.082"
       class="st11"
       id="path81528" /><path
       d="M187.671,50.948c4.276-4.383,1.39-19.351-13.043-24.055   c-9.301-2.994-22.772-2.673-33.143,6.949c-2.566,2.352-3.742,1.283-1.283-1.176c10.905-11.012,25.445-11.867,35.495-8.553   c13.578,4.383,18.923,20.42,14.754,27.049C190.023,51.59,187.243,51.376,187.671,50.948"
       class="st11"
       id="path81532" /><path
       d="M88.029,101.945c-0.641-0.214,1.069-2.245,1.176-2.245   c16.037,4.063,33.464-10.264,31.005-20.741c-1.069-4.811-0.962-5.559,3.956-2.673c5.346,3.207,10.691,4.063,14.647,2.459   c7.805-3.207,13.471-9.515,14.112-16.251c0.428-4.597,2.031-4.597,1.604,0c-0.641,7.591-5.88,15.075-14.54,18.603   c-4.811,2.031-11.44,0.748-17.534-2.994C126.517,94.248,101.286,106.222,88.029,101.945"
       class="st11"
       id="path81536" /><path
       d="M183.715,132.736   c30.256-22.986,46.293-76.977,41.161-82.643c-2.887-3.1-45.331-0.107-71.845,17.213c-0.535,0.321,0.535-3.635,0.855-3.849   c26.514-16.571,68.424-19.779,72.807-14.968c6.094,6.735-8.339,60.298-41.589,85.85   C180.401,137.975,179.118,136.264,183.715,132.736"
       class="st11"
       id="path81540" /><path
       d="M170.565,86.336c18.71-18.71,33.677-27.369,49.073-28.225   c3.956-0.214,4.063,1.283,0.107,1.711c-13.471,1.497-28.118,10.584-45.865,26.942C173.665,87.192,170.137,86.871,170.565,86.336"
       class="st11"
       id="path81544" /><path
       d="M186.602,118.196   c22.879-19.244,29.829-50.035,31.432-58.909c0.107-0.641,2.138-0.641,2.031,0.107c-1.604,9.194-8.339,40.947-31.86,60.726   C187.778,120.334,186.067,118.624,186.602,118.196"
       class="st11"
       id="path81548" /><path
       d="M166.823,115.523c11.867-0.855,20.634-5.559,24.269-12.829   c2.245-4.597,2.031-9.729-0.641-13.685c-5.239-7.912-27.369,0.214-34.105,10.798c-2.352,3.635-4.063,2.673-1.711-0.962   c9.088-14.54,31.86-20.848,38.168-11.226c3.207,4.811,3.207,11.012,0.535,16.358c-4.063,8.125-13.471,12.616-26.3,13.471   C162.76,117.554,162.547,115.844,166.823,115.523"
       class="st11"
       id="path81552" /><path
       d="M167.144,123.969c8.874,3.849,19.565,2.245,19.779-2.78   c0.107-2.031-5.987-5.025-12.081-5.239c-0.641,0,1.817-1.497,2.459-1.39c6.201,0.641,12.081,3.635,11.974,6.736   c-0.321,8.553-14.754,7.698-22.879,4.383C162.867,124.183,163.616,122.473,167.144,123.969"
       class="st11"
       id="path81556" /><path
       d="M202.532,293.104c4.17-12.402,4.811-29.508,4.49-42.979   c-0.428-19.03-14.433-34.96-27.69-39.451c-3.207-4.811-7.912-11.012-11.226-14.433c-5.452-5.559-8.874-10.157-9.515-13.792   c-0.428-2.138,0.535-5.559,1.497-7.591c11.653-7.805,19.886-21.703,26.621-42.337c0.214-0.641-4.063,1.924-4.17,2.245   c-6.522,19.779-13.578,30.898-24.162,38.381l0,0c-0.641,0.428-2.566,6.094-1.924,9.836c0.748,4.17,4.063,9.088,9.836,15.075   c3.314,3.421,8.125,9.943,11.226,14.433c0.214,0.214,0.428,0.428,0.641,0.428c12.509,4.063,25.659,19.137,25.98,37.312   c0.214,13.364,0.107,30.363-4.17,42.444c-0.107,0.214-0.107,0.535,0,0.748c2.887,8.553,0,17.106-5.452,34.212   c-3.528,11.012-7.698,13.899-15.93,11.226c-4.918-1.604-7.805-6.308-6.949-9.088c1.176-3.635,4.597-6.736,4.704-6.842   c3.314-10.05,4.704-18.282,1.817-28.652c-0.107-0.214-0.214-0.535-0.428-0.641c-2.673-2.031-6.201-11.653-6.628-15.395   c-0.107-0.641-2.138,3.1-1.924,3.849c0.962,4.276,3.849,10.691,6.736,13.15c2.245,8.232,1.711,15.502-1.817,26.514   c-1.069,1.176-4.063,4.063-5.025,7.056c-1.283,3.956,2.352,9.836,8.767,11.974c10.05,3.314,14.968-0.855,18.603-12.616   C201.89,311.6,205.525,302.299,202.532,293.104"
       class="st11"
       id="path81560" /><path
       d="M42.912,101.304c-2.566-0.855-4.276-2.994-4.918-6.094   c-1.176-6.201,2.352-14.647,10.477-18.175c0.641-0.321,1.283,0,1.604,0.641s0,1.39-0.641,1.604   c-6.949,2.994-10.05,10.37-9.088,15.502c0.321,1.604,1.39,4.383,4.918,4.49c0.641,0,1.176,0.535,1.176,1.283   c0,0.641-0.535,1.176-1.283,1.176C44.409,101.732,43.66,101.625,42.912,101.304"
       class="st11"
       id="path81564" /><path
       d="M44.409,110.178c-5.773-1.924-9.301-6.308-10.798-10.157   c-1.39-3.528-1.176-6.949,0.535-8.981c1.176-1.497,3.1-2.031,5.239-1.604c0.641,0.107,1.069,0.748,0.962,1.39   c-0.107,0.641-0.748,1.069-1.39,0.962c-1.283-0.214-2.245,0-2.887,0.748C35,93.82,35,96.386,35.963,99.059   c1.497,3.849,5.346,8.339,11.76,9.301c0.641,0.107,1.176,0.748,1.069,1.39c-0.107,0.641-0.748,1.176-1.39,1.069   C46.333,110.712,45.371,110.498,44.409,110.178"
       class="st11"
       id="path81568" /><path
       d="M43.34,117.554c-2.78-0.962-5.132-2.566-6.415-4.704   c-0.748-1.176-0.962-2.352-0.748-3.314c0.641-2.352,3.314-3.421,5.346-3.1c0.641,0.107,1.176,0.748,1.069,1.39   c-0.107,0.641-0.748,1.176-1.39,1.069c-1.069-0.107-2.352,0.428-2.566,1.39c0,0.107,0,0.641,0.428,1.39   c0.962,1.497,2.994,3.314,6.415,4.063c0.641,0.107,1.069,0.748,0.962,1.39c-0.107,0.641-0.748,1.069-1.497,0.962   C44.409,117.768,43.874,117.662,43.34,117.554"
       class="st11"
       id="path81572" /><path
       d="M36.176,104.19C29.655,96.6,14.794,63.457,15.542,61.212   c0.962-3.1,9.622-5.88,25.659-1.497c0.641,0.214,0.214,2.994-0.428,2.78c-15.395-4.276-21.81-1.604-22.879-0.641   c0.855,3.314,9.301,22.772,15.823,34.212C35.214,98.631,36.283,104.404,36.176,104.19"
       class="st11"
       id="path81576" /><path
       d="M41.201,84.305C39.17,81.953,29.12,70.62,24.202,66.557   c-2.78-2.352-1.924-3.314,1.069-1.283c7.377,4.918,14.326,13.471,17.747,17.427C43.447,83.236,41.308,84.519,41.201,84.305"
       class="st11"
       id="path81580" /><path
       d="M34.145,92.003c-3.421-6.094-7.27-20.741-7.591-24.162   c0-0.641,1.711,0.855,1.817,1.497c0.962,4.597,5.025,16.464,7.912,21.489C36.604,91.361,34.359,92.216,34.145,92.003"
       class="st11"
       id="path81584" /></g></svg>