<?xml version="1.0" encoding="UTF-8"?>
<!-- Created with Inkscape (http://www.inkscape.org/) -->
<svg version="1.1" viewBox="0 0 338.41 362.92" xmlns="http://www.w3.org/2000/svg" xmlns:cc="http://creativecommons.org/ns#" xmlns:dc="http://purl.org/dc/elements/1.1/" xmlns:rdf="http://www.w3.org/1999/02/22-rdf-syntax-ns#">
 <metadata>
  <rdf:RDF>
   <cc:Work rdf:about="">
    <dc:format>image/svg+xml</dc:format>
    <dc:type rdf:resource="http://purl.org/dc/dcmitype/StillImage"/>
   </cc:Work>
  </rdf:RDF>
 </metadata>
 <g transform="translate(-642.35 -663.76)">
  <g transform="matrix(24.671 -1.4372 -1.4372 -24.671 926 812.11)">
   <path d="m0 0c-0.242-2.195-2.252-3.297-2.915-3.255-0.778 0.049-2.704 1.235-2.826 3.312-1.716 0.86-2.408 3.493-2.287 3.708 0.076 0.136 1.04 0.287 1.846 0.205l7.202-0.678c0.493-0.021 1.239-0.142 1.316-0.211 0.105-0.096-0.421-1.976-1.675-2.725z" fill="#fff"/>
  </g>
  <g transform="matrix(24.671 -1.4372 -1.4372 -24.671 819.71 816.42)">
   <path d="m0 0c-0.273 0.175-0.618 0.11-0.841-0.166-0.137-0.491-0.031-0.858 0.193-1.074 0.257-0.248 0.67-0.3 1.054-0.12 0.061 0.762-0.137 1.188-0.406 1.36" fill="#747dae"/>
  </g>
  <g transform="matrix(24.671 -1.4372 -1.4372 -24.671 896.49 817.48)">
   <path d="m0 0c-0.291-0.184-0.54-0.621-0.576-1.258 0.72-0.47 1.427 0.048 1.311 1.142-0.203 0.247-0.485 0.275-0.735 0.116" fill="#747dae"/>
  </g>
  <g transform="matrix(24.671 -1.4372 -1.4372 -24.671 798.48 826.08)">
   <path d="m0 0c-0.07-0.404 0.035-0.71 0.232-0.9 0.236-0.228 0.693-0.267 1.049-0.137-0.279 0.937-0.89 1.215-1.281 1.037" fill="#92d6e3"/>
  </g>
  <g transform="matrix(24.671 -1.4372 -1.4372 -24.671 815.05 826.55)">
   <path d="m0 0c0-0.203-0.107-0.324-0.231-0.324-0.116 0-0.225 0.124-0.226 0.325 0 0.193 0.127 0.332 0.231 0.332 0.121 1e-3 0.226-0.143 0.226-0.333" fill="#fff"/>
  </g>
  <g transform="matrix(24.671 -1.4372 -1.4372 -24.671 884.52 849.87)">
   <path d="M 0,0 C 0.677,-0.345 1.246,0.009 1.302,0.8 0.818,0.987 0.137,0.684 0,0" fill="#92d6e3"/>
  </g>
  <g transform="matrix(24.671 -1.4372 -1.4372 -24.671 901.23 830.57)">
   <path d="m0 0c-0.01-0.164-0.109-0.299-0.215-0.293-0.1 6e-3 -0.187 0.131-0.176 0.322 0.011 0.181 0.109 0.289 0.216 0.282 0.101-6e-3 0.186-0.123 0.175-0.311" fill="#fff"/>
  </g>
  <g transform="matrix(24.671 -1.4372 -1.4372 -24.671 852.82 873.12)">
   <path d="m0 0c0.034 0.104 0.602 0.09 0.663-0.035 0.028-0.059-0.245-0.247-0.342-0.24-0.081 5e-3 -0.342 0.211-0.321 0.275" fill="#4f8eb9"/>
  </g>
  <g transform="matrix(24.671 -1.4372 -1.4372 -24.671 775.01 772.1)">
   <path d="m0 0c-0.381 0.718-1.11 1.235-1.667 1.46-0.029-0.646 0.53-1.803 1.233-2.373-0.249 0.334-0.265 0.83-0.143 0.949 0.122 0.12 0.377 0.096 0.577-0.036" fill="#4f8eb9"/>
  </g>
  <g transform="matrix(24.671 -1.4372 -1.4372 -24.671 935.35 770.33)">
   <path d="m0 0c0.161 0.021 0.379-0.03 0.427-0.17 0.094-0.272-0.206-0.756-0.542-0.95 0.042-5e-3 0.093-0.014 0.145-0.036 0.7 0.442 1.402 1.476 1.51 2.292-0.442-0.187-1.204-0.704-1.54-1.136" fill="#4f8eb9"/>
  </g>
  <g transform="matrix(24.671 -1.4372 -1.4372 -24.671 793.28 793.96)">
   <path d="m0 0c-0.252 0.831-0.941 1.208-1.252 0.976-0.186-0.138-0.072-0.813 0.333-1.236-0.264 6e-3 -0.477-0.09-0.479-0.218-1e-3 -0.211 0.55-0.457 1.032-0.336 0.377 0.094 0.473 0.459 0.366 0.814" fill="#fff"/>
  </g>
  <g transform="matrix(24.671 -1.4372 -1.4372 -24.671 934.08 798.22)">
   <path d="m0 0c0.468 0.309 0.642 0.792 0.543 0.962-0.191 0.33-0.994 0.152-1.261-0.409-0.17-0.356-0.145-1.104 0.333-1.095 0.444 8e-3 0.69 0.186 0.694 0.341 3e-3 0.106-0.128 0.184-0.309 0.201" fill="#fff"/>
  </g>
  <g transform="matrix(24.671 -1.4372 -1.4372 -24.671 913.8 705.2)">
   <path d="m0 0c-0.058 0.435-0.409 0.789-1.04 0.862-0.141 0.016-0.222 0.075-0.265 0.185-0.401 1.041-2.029 0.818-2.41 0.11-0.077-0.142-0.199-0.184-0.392-0.164-0.54 0.058-1.101-0.286-1.239-0.776-0.031-0.109-0.097-0.154-0.168-0.18-0.452-0.171-0.559-0.676-0.338-1.144 0.189-0.4 0.621-0.765 1.305-0.843-0.395-0.387-0.427-0.926-0.135-1.309 0.21-0.276 0.588-0.471 1.12-0.47 0.216-0.337 0.615-0.554 1.105-0.59 0.435-0.032 0.869 0.102 1.142 0.444 0.784 0.019 1.359 0.82 1.014 1.579 0.651-0.08 1.213 0.181 1.465 0.797 0.333 0.816-0.25 1.672-1.164 1.499" fill="#fff"/>
  </g>
  <g transform="matrix(24.671 -1.4372 -1.4372 -24.671 784.69 818.79)">
   <path d="m0 0c-0.948 0.273-1.894 1.922-2.184 2.966-0.094-0.058-0.18-0.129-0.25-0.205-0.931 0.151-1.483-0.467-1.469-1.376-1.156-0.298-1.439-1.066-1.095-1.754-0.86-0.326-1.138-1.523-0.222-2.01 0.013-0.571 0.314-1.094 0.893-1.139 0.349-0.617 1.33-0.747 1.862-0.356 0.266-0.123 0.616-0.118 0.886 0.055 0.32 0.206 0.527 0.229 0.891-0.065 0.161 0.419 0.439 0.831 0.888 1.04 0.289 0.134 0.646 0.339 0.79 0.592-0.526 0.491-0.945 1.277-0.99 2.252" fill="#fff"/>
  </g>
  <g transform="matrix(24.671 -1.4372 -1.4372 -24.671 946.36 858.09)">
   <path d="m0 0c0.372 0.436 0.314 1.026 0.075 1.317 0.087 0.323-8e-3 0.637-0.206 0.781-0.123-0.116-0.3-0.184-0.582-0.193-0.136-1.084-0.709-2.135-1.667-2.744 0.098-0.252 0.216-0.955 0.205-1.394 0.373-0.228 0.761-0.263 1.113-0.071 0.327-0.107 0.646-0.027 0.745 0.28 0.841 0.268 0.869 1.426 0.317 2.024" fill="#fff"/>
  </g>
  <g transform="matrix(24.671 -1.4372 -1.4372 -24.671 781.54 980.45)">
   <path d="m0 0c0.123 0.138 0.324 0.208 0.531 0.134 7e-3 0.021 0.014 0.041 0.022 0.058 0.131 0.28 0.194 0.535 0.19 0.802 0.037-0.272 0.084-0.54 0.129-0.798 0.197 0.222 0.514 0.139 0.693-0.127 0.157 0.233 0.556 0.277 0.75 0.013 6e-3 0.152 8e-3 0.299 3e-3 0.45 0.309-0.022 0.59-6e-3 0.867 0.034-0.016-0.126-0.038-0.271-0.063-0.423 0.216 0.201 0.557 0.216 0.721-5e-3 0.119 0.141 0.368 0.193 0.529 0.061 0.432 1.492 0.537 2.416 0.206 3.498-0.471-0.336-0.95-0.493-1.237-0.488-0.454 8e-3 -1.377 0.442-2.034 1.163-0.168-0.218-0.385-0.388-0.749-0.565-1.127-0.549-1.415-1.578-1.255-2.993 0.013-0.118 0.025-0.2 4e-3 -0.326-0.015-0.097-0.018-0.244-0.011-0.404 0.199 0.222 0.522 0.16 0.704-0.084" fill="#fff"/>
  </g>
  <g transform="matrix(24.671 -1.4372 -1.4372 -24.671 767.66 1009.1)">
   <path d="m0 0c0.01-0.328 0.21-0.492 0.62-0.505 0.622-0.02 0.641 0.358 0.539 0.56-0.056 0.112-0.08 0.241-0.084 0.388-3e-3 0.135 9e-3 0.584 0.084 0.816-0.206 0.075-0.408 5e-3 -0.531-0.133-0.182 0.244-0.505 0.305-0.704 0.084 3e-3 -0.048 5e-3 -0.097 9e-3 -0.146 0.028-0.372 0.059-0.789 0.067-1.064" fill="#c9e9e6"/>
  </g>
  <g transform="matrix(24.671 -1.4372 -1.4372 -24.671 820.06 976.51)">
   <path d="m0 0c-0.179 0.266-0.496 0.349-0.693 0.127 0.057-0.327 0.113-0.639 0.147-0.921 0.032-0.268 0.056-0.47-0.021-0.643-0.096-0.215-0.034-0.509 0.527-0.545 0.528-0.033 0.694 0.085 0.708 0.486 0.023 0.665 0.066 1.107 0.082 1.509-0.194 0.264-0.593 0.22-0.75-0.013" fill="#c9e9e6"/>
  </g>
  <g transform="matrix(24.671 -1.4372 -1.4372 -24.671 876.15 971.52)">
   <path d="m0 0c-0.164 0.221-0.505 0.206-0.721 5e-3 -0.073-0.448-0.172-0.964-0.245-1.288-0.113-0.501 0.028-0.777 0.548-0.824 0.587-0.053 0.717 0.141 0.607 0.559-0.047 0.176-0.049 0.352 0.027 0.592 0.118 0.369 0.223 0.705 0.313 1.017-0.161 0.132-0.41 0.079-0.529-0.061" fill="#c9e9e6"/>
  </g>
  <g transform="matrix(24.671 -1.4372 -1.4372 -24.671 795.79 731.84)">
   <path d="m0 0c-0.26-0.18-0.277-0.821-0.085-1.073 0.131-0.047 0.21-0.066 0.331-0.084-0.046-0.558 0.313-1.045 0.845-1.014 0.071 0.491 0.419 0.888 0.878 0.853 0.687-0.053 0.774-0.705 0.358-0.997 0.233-0.277 1.015-0.368 1.462-0.021 0.301-0.014 0.735 0.156 0.835 0.541-0.026 0.1-0.047 0.178-0.087 0.284 0.765 0.272 0.832 1.036 0.102 1.495-0.026 0.248-0.318 0.277-0.535 0.254-0.209-0.022-0.432 0.054-0.573 0.315-0.451 0.833-1.467 0.811-1.834 0.404-0.053-0.058-0.105-0.088-0.165-0.116-0.059-0.027-0.159-0.105-0.196-0.203-0.038-0.097-0.12-0.155-0.199-0.155-0.061 0-0.117-0.032-0.145-0.091 0.146-0.544-0.645-0.759-0.992-0.392" fill="#c7eafb"/>
  </g>
  <g transform="matrix(24.671 -1.4372 -1.4372 -24.671 808.53 869.37)">
   <path d="m0 0c-0.152-0.24-0.414-0.443-0.783-0.617-0.348-0.164-0.862-0.54-1.036-1.012-0.121 0.083-0.29 0.118-0.603-0.084-0.774 0.259-1.217 1.535-0.241 1.97 0.118 0.053 0.157 0.109 0.139 0.252-0.103 0.825 0.332 1.048 1.13 0.975 0.05-5e-3 0.074 0.015 0.092 0.059 0.018 0.045 0.066 0.13 0.123 0.184-3e-3 0.23 0.097 0.349 0.319 0.379 0.077-0.965 0.296-1.49 0.86-2.106" fill="#c7eafb"/>
  </g>
  <g transform="matrix(24.671 -1.4372 -1.4372 -24.671 732.23 742.09)">
   <path d="m0 0c0.326-0.233 0.836-0.747 1.1-1.261 0.082 0.087 0.323 0.092 0.552-0.035-0.246 0.489-0.997 1.239-1.651 1.436-3e-3 -0.044-2e-3 -0.088-1e-3 -0.14" fill="#3d7397"/>
  </g>
  <g transform="matrix(24.671 -1.4372 -1.4372 -24.671 971.45 743.83)">
   <path d="m0 0c-0.464-0.352-0.838-0.694-1.114-1.114-0.07 0.101-0.226 0.163-0.413 0.127 0.401 0.508 1.115 0.941 1.549 1.142 0-0.06-2e-3 -0.1-0.022-0.155" fill="#3d7397"/>
  </g>
  <g transform="matrix(24.671 -1.4372 -1.4372 -24.671 767.87 1001.9)">
   <path d="m0 0c2e-3 -0.398 0.297-0.593 0.657-0.586 0.28 5e-3 0.471 0.164 0.404 0.476 0.271-0.479-0.015-0.714-0.429-0.683-0.586 0.044-0.683 0.229-0.632 0.793" fill="#a7c2c0"/>
  </g>
  <g transform="matrix(24.671 -1.4372 -1.4372 -24.671 809.95 1006.1)">
   <path d="m0 0c-0.021-0.387 0.156-0.579 0.504-0.592 0.379-0.014 0.605 0.118 0.611 0.418 0.053-0.533-0.134-0.69-0.632-0.652-0.663 0.05-0.655 0.404-0.581 0.538 0.038 0.068 0.076 0.176 0.098 0.288" fill="#a7c2c0"/>
  </g>
  <g transform="matrix(24.671 -1.4372 -1.4372 -24.671 854.25 1006.9)">
   <path d="m0 0c0-0.291 0.226-0.487 0.611-0.51 0.371-0.022 0.548 0.158 0.492 0.437 0.215-0.478 0.017-0.706-0.47-0.665-0.604 0.051-0.748 0.36-0.633 0.738" fill="#a7c2c0"/>
  </g>
  <g transform="matrix(24.671 -1.4372 -1.4372 -24.671 842.66 982.63)">
   <path d="m0 0c0.137 0.164 0.287 0.23 0.408 0.161 0.064 0.185 0.14 0.388 0.23 0.616-0.271-0.031-0.506-0.041-0.783-0.013-4e-3 -0.182-0.01-0.399-0.018-0.625 0.06-0.028 0.117-0.077 0.163-0.139" fill="#d1d3d4"/>
  </g>
  <g transform="matrix(24.671 -1.4372 -1.4372 -24.671 838.31 1017.2)">
   <path d="M 0,0 C 0.418,-0.061 0.634,0.127 0.532,0.514 0.483,0.697 0.474,0.886 0.531,1.109 0.566,1.245 0.611,1.39 0.665,1.545 0.544,1.614 0.394,1.549 0.257,1.385 0.211,1.447 0.154,1.495 0.094,1.524 0.073,0.913 0.039,0.236 0,0" fill="#a7c2c0"/>
  </g>
  <g transform="matrix(24.671 -1.4372 -1.4372 -24.671 760.98 771.68)">
   <path d="m0 0c-0.09-0.46 0.3-1.184 0.852-1.402 0.108-0.043 0.101-0.146 0.02-0.162-0.742 0.161-1.104 1.194-0.872 1.564" fill="#d1d3d4"/>
  </g>
  <g transform="matrix(24.671 -1.4372 -1.4372 -24.671 759.84 806.89)">
   <path d="m0 0c0.193-0.242 0.692-0.32 1.006-0.257 0.11 0.022 0.164-0.046 0.104-0.096-0.571-0.158-1.152 0.095-1.11 0.353" fill="#d1d3d4"/>
  </g>
  <g transform="matrix(24.671 -1.4372 -1.4372 -24.671 945.23 772.87)">
   <path d="m0 0c-0.022-0.385-0.392-0.842-0.923-1.045-0.106-0.04-0.091-0.149-2e-3 -0.156 0.725 0.215 1.105 0.888 0.925 1.201" fill="#d1d3d4"/>
  </g>
  <g transform="matrix(24.671 -1.4372 -1.4372 -24.671 941.41 801.75)">
   <path d="m0 0c-0.087-0.186-0.434-0.277-0.727-0.275-0.093 1e-3 -0.12-0.078-0.062-0.114 0.449-0.014 0.839 0.145 0.789 0.389" fill="#d1d3d4"/>
  </g>
  <g transform="matrix(24.671 -1.4372 -1.4372 -24.671 809.81 872.1)">
   <path d="m0 0c0.467-0.686 1.278-1.367 1.801-1.388 0.411-0.017 0.925 0.294 1.33 0.71l0.038 0.083c-0.499-0.406-1.022-0.508-1.253-0.503-0.561 0.015-1.385 0.596-1.961 1.211z" fill="#d1d3d4"/>
  </g>
  <g transform="matrix(24.671 -1.4372 -1.4372 -24.671 837.58 959.79)">
   <path d="m0 0c0.256-0.044 0.635-0.084 0.962-0.091-0.194-0.056-0.645-0.107-0.953-0.085z" fill="#d1d3d4"/>
  </g>
  <g transform="matrix(24.671 -1.4372 -1.4372 -24.671 791.6 715.28)">
   <path d="m0 0c-0.094-0.853 1.13-0.906 1.1-0.263 0.161-0.401-0.238-0.622-0.61-0.586-0.371 0.035-0.637 0.433-0.49 0.849" fill="#d1d3d4"/>
  </g>
  <g transform="matrix(24.671 -1.4372 -1.4372 -24.671 798.18 777.3)">
   <path d="m0 0c0.033-0.453 0.617-0.899 1.163-0.866 0.023-0.05 0.065-0.146 0.103-0.216-0.736 0.034-1.313 0.343-1.266 1.082" fill="#d1d3d4"/>
  </g>
  <g transform="matrix(24.671 -1.4372 -1.4372 -24.671 826.76 783.23)">
   <path d="m0 0c0.084-1.426 2.32-1.522 2.625-0.211-0.069-0.798-0.588-1.212-1.358-1.158-0.816 0.058-1.425 0.626-1.267 1.369" fill="#d1d3d4"/>
  </g>
  <g transform="matrix(24.671 -1.4372 -1.4372 -24.671 890.66 795.54)">
   <path d="m0 0c0.366 0.028 0.859 0.397 0.927 0.856 0.01-0.654-0.5-1.148-1.085-1.12 0.066 0.083 0.11 0.161 0.158 0.264" fill="#d1d3d4"/>
  </g>
  <g transform="matrix(24.671 -1.4372 -1.4372 -24.671 945.71 730.65)">
   <path d="m0 0c-0.107-0.54-0.589-0.839-1.08-0.922-0.095-0.109-0.231-0.202-0.404-0.27 0.777-0.161 1.514 0.484 1.484 1.192" fill="#d1d3d4"/>
  </g>
  <g transform="matrix(24.671 -1.4372 -1.4372 -24.671 920.39 754.94)">
   <path d="m0 0c-0.216-0.036-0.434-0.031-0.623 0.015 0.079-0.102 0.11-0.165 0.174-0.275 0.015-4e-3 0.03-7e-3 0.045-0.01 0.173 0.067 0.309 0.161 0.404 0.27" fill="#a5c3d2"/>
  </g>
  <g transform="matrix(24.671 -1.4372 -1.4372 -24.671 768.93 723.95)">
   <path d="m0 0c-0.203-0.529 0.205-1.24 0.979-1.452-0.041 0.056-0.073 0.131-0.094 0.216-0.563 0.231-0.89 0.792-0.885 1.236" fill="#d1d3d4"/>
  </g>
  <g transform="matrix(24.671 -1.4372 -1.4372 -24.671 806.02 759.26)">
   <path d="m0 0c0.042 0.053 0.02 0.163-0.125 0.177-0.146 0.014-0.281 0.05-0.405 0.1 0.021-0.084 0.052-0.159 0.094-0.215 0.135-0.037 0.28-0.059 0.436-0.062" fill="#a5c3d2"/>
  </g>
  <g transform="matrix(24.671 -1.4372 -1.4372 -24.671 660.14 885.28)">
   <path d="m0 0c0.098-0.448 0.41-0.843 0.757-0.858 0.017-0.076 0.04-0.155 0.088-0.247-0.465 1e-3 -0.864 0.431-0.845 1.105" fill="#d1d3d4"/>
  </g>
  <g transform="matrix(24.671 -1.4372 -1.4372 -24.671 680.56 891.45)">
   <path d="m0 0c-0.049-1.171 1.285-1.514 2.103-0.97-0.502-0.809-2.546-0.482-2.103 0.97" fill="#d1d3d4"/>
  </g>
  <g transform="matrix(24.671 -1.4372 -1.4372 -24.671 745.9 912.96)">
   <path d="m0 0c-0.201-0.09-0.385-0.103-0.53-0.037-0.046-0.043-0.084-0.083-0.158-0.132 0.307-0.131 0.642-0.118 0.954 0.1 0.011 8e-3 0.023 0.015 0.034 0.022-0.029-0.016-0.059-0.033-0.089-0.053-0.074 0.025-0.144 0.059-0.211 0.1" fill="#d1d3d4"/>
  </g>
  <g transform="matrix(24.671 -1.4372 -1.4372 -24.671 768.12 905.96)">
   <path d="m0 0c-0.245 0.07-0.5 0.03-0.7-0.108-0.073-0.051-0.145-0.091-0.214-0.123 0.066-0.041 0.137-0.075 0.211-0.1 0.198 0.128 0.385 0.185 0.599 0.112 0.059-0.021 0.138 0.209 0.104 0.219" fill="#a5c3d2"/>
  </g>
  <g transform="matrix(24.671 -1.4372 -1.4372 -24.671 895.55 909.09)">
   <path d="m0 0c0.537-0.373 1.407-0.261 1.555 0.569 0.039-1.205-1.114-1.16-1.581-0.861-0.024 0.015-4e-3 0.313 0.026 0.292" fill="#d1d3d4"/>
  </g>
  <g transform="matrix(24.671 -1.4372 -1.4372 -24.671 930.95 909.1)">
   <path d="m0 0c0.074-0.015 0.209 0.039 0.279 0.127 0.026 0.033 0.033 0.044 0.079 0.051 0.265 0.045 0.623 0.364 0.712 0.778 1e-3 -0.438-0.222-0.826-0.642-0.951-0.146-0.324-0.427-0.391-0.732-0.281 0.141 0.089 0.227 0.167 0.304 0.276" fill="#d1d3d4"/>
  </g>
  <g transform="matrix(24.671 -1.4372 -1.4372 -24.671 838.31 1017.2)">
   <path d="M 0,0 C 0.375,-0.024 0.557,0.063 0.553,0.405 0.544,0.267 0.308,0.172 0.026,0.19 0.017,0.111 0,0 0,0" fill="#869c9c"/>
  </g>
  <g transform="matrix(24.671 -1.4372 -1.4372 -24.671 830.87 850.31)">
   <path d="m0 0c0.053 0.762-0.138 1.167-0.404 1.338-0.295 0.189-0.639 0.079-0.837-0.204-0.115-0.163-0.154-0.139-0.054 0.035 0.206 0.361 0.642 0.481 0.96 0.277 0.262-0.168 0.492-0.629 0.399-1.452-0.02-0.174-0.076-0.169-0.064 6e-3" fill="#061922"/>
  </g>
  <g transform="matrix(24.671 -1.4372 -1.4372 -24.671 831.62 850.56)">
   <path d="m0 0c-0.377-0.182-0.829-0.132-1.092 0.122-0.24 0.232-0.321 0.616-0.216 1.042l0.129 0.133c-0.136-0.455-0.08-0.845 0.17-1.086 0.267-0.258 0.669-0.275 1.016-0.117z" fill="#061922"/>
  </g>
  <g transform="matrix(24.671 -1.4372 -1.4372 -24.671 883.29 850.44)">
   <path d="M 0,0 C 0.005,0.618 0.228,1.136 0.574,1.356 0.892,1.557 1.27,1.465 1.45,1.091 1.521,0.945 1.488,0.926 1.395,1.058 1.207,1.325 0.924,1.427 0.637,1.245 0.316,1.041 0.101,0.562 0.064,-0.003 0.051,-0.201 -0.002,-0.198 0,0" fill="#061922"/>
  </g>
  <g transform="matrix(24.671 -1.4372 -1.4372 -24.671 884.13 848.12)">
   <path d="m0 0c0.309-0.195 0.602-0.222 0.85-0.073 0.329 0.197 0.471 0.658 0.405 1.225l0.103-0.126c0.055-0.562-0.123-1.007-0.452-1.205-0.271-0.162-0.622-0.124-0.914 0.081z" fill="#061922"/>
  </g>
  <g transform="matrix(24.671 -1.4372 -1.4372 -24.671 861.4 872.01)">
   <path d="m0 0c-0.212 0.013-0.298-0.024-0.302-0.039-9e-3 -0.033 0.205-0.215 0.277-0.219 0.087-6e-3 0.307 0.153 0.296 0.187-7e-3 0.023-0.092 0.06-0.271 0.071m-0.032-0.344c-0.116 7e-3 -0.391 0.248-0.363 0.334 0.027 0.08 0.222 0.109 0.4 0.097 0.166-0.01 0.317-0.055 0.352-0.129 0.045-0.091-0.268-0.31-0.389-0.302" fill="#061922"/>
  </g>
  <g transform="matrix(24.671 -1.4372 -1.4372 -24.671 760.53 805.05)">
   <path d="m0 0c-1.09 1.127-1.524 2.916-1.412 3.117 0.095 0.172 1.15 0.316 1.936 0.231l-0.035-0.11c-0.849 0.091-1.753-0.077-1.803-0.174-0.073-0.144 0.34-1.892 1.424-3.002z" fill="#061922"/>
  </g>
  <g transform="matrix(24.671 -1.4372 -1.4372 -24.671 780.24 815.5)">
   <path d="m0 0c0.058-0.034 0.116-0.067 0.176-0.098 0.032-0.016 0.04-0.024 0.043-0.068 0.138-2.07 2.031-3.196 2.767-3.242 0.58-0.037 2.58 0.99 2.852 3.2l0.116 1e-3c-0.236-2.262-2.302-3.348-2.978-3.306-0.813 0.052-2.748 1.218-2.873 3.328-0.111 0.055-0.218 0.118-0.321 0.186z" fill="#061922"/>
  </g>
  <g transform="matrix(24.671 -1.4372 -1.4372 -24.671 941.3 800.97)">
   <path d="m0 0c1.237 0.755 1.712 2.556 1.651 2.629-0.049 0.057-0.775 0.17-1.277 0.192l1e-3 0.109c0.492-0.021 1.267-0.139 1.356-0.224 0.139-0.132-0.439-2.089-1.71-2.83z" fill="#061922"/>
  </g>
  <g transform="matrix(24.671 -1.4372 -1.4372 -24.671 772.59 770.9)">
   <path d="m0 0c-0.393 0.694-1.092 1.171-1.667 1.408-0.168 0.069-0.151 0.116 0.022 0.061 0.635-0.204 1.438-0.809 1.824-1.565z" fill="#061922"/>
  </g>
  <g transform="matrix(24.671 -1.4372 -1.4372 -24.671 767.31 797.96)">
   <path d="m0 0c-0.763 0.552-1.395 1.827-1.333 2.507l0.078-0.034c-6e-3 -0.624 0.485-1.655 1.126-2.235z" fill="#061922"/>
  </g>
  <g transform="matrix(24.671 -1.4372 -1.4372 -24.671 781.16 808.73)">
   <path d="m0 0c-0.728 0.26-1.05 1.371-0.761 1.587 0.326 0.242 1.058-0.136 1.293-0.944 0.056-0.191 4e-3 -0.208-0.061-0.02-0.258 0.746-0.911 1.072-1.167 0.881-0.184-0.137 0-1.142 0.719-1.444 0.185-0.078 0.152-0.123-0.023-0.06" fill="#061922"/>
  </g>
  <g transform="matrix(24.671 -1.4372 -1.4372 -24.671 771.93 802.59)">
   <path d="m0 0c-0.249 0.014-0.463-0.085-0.464-0.182-1e-3 -0.129 0.453-0.399 0.909-0.315 0.22 0.04 0.232-0.015 0.013-0.063-0.492-0.109-1.031 0.156-1.029 0.38 1e-3 0.133 0.206 0.265 0.501 0.258z" fill="#061922"/>
  </g>
  <g transform="matrix(24.671 -1.4372 -1.4372 -24.671 933.5 770.55)">
   <path d="m0 0c0.349 0.467 1.209 1.047 1.666 1.196 0.157 0.051 0.173 8e-3 0.022-0.06-0.436-0.2-1.186-0.688-1.543-1.126z" fill="#061922"/>
  </g>
  <g transform="matrix(24.671 -1.4372 -1.4372 -24.671 936.37 798.37)">
   <path d="m0 0c0.713 0.456 1.387 1.458 1.521 2.251l0.088 0.038c-0.095-0.826-0.779-1.879-1.499-2.333z" fill="#061922"/>
  </g>
  <g transform="matrix(24.671 -1.4372 -1.4372 -24.671 926.5 801.8)">
   <path d="m0 0c0.678 0.277 0.902 0.904 0.811 1.061-0.177 0.309-0.932 0.115-1.185-0.394-0.064-0.128-0.116-0.104-0.059 0.027 0.268 0.613 1.126 0.782 1.336 0.42 0.145-0.251-0.165-0.912-0.88-1.174-0.157-0.057-0.189-8e-3 -0.023 0.06" fill="#061922"/>
  </g>
  <g transform="matrix(24.671 -1.4372 -1.4372 -24.671 935.21 797.31)">
   <path d="m0 0c0.19-0.017 0.318-0.131 0.315-0.238-4e-3 -0.171-0.27-0.368-0.746-0.371-0.159-1e-3 -0.165 0.051-3e-3 0.064 0.397 0.034 0.639 0.173 0.642 0.313 2e-3 0.065-0.092 0.156-0.305 0.164z" fill="#061922"/>
  </g>
  <g transform="matrix(24.671 -1.4372 -1.4372 -24.671 859.43 816.92)">
   <path d="m0 0c-0.737 0.054-1.387 0.535-1.355 1.333 0.025 0.619 0.483 1.005 0.963 0.983 0.359-0.017 0.648-0.243 0.641-0.607-7e-3 -0.327-0.239-0.546-0.504-0.525-0.139 0.015-0.139 0.066 3e-3 0.065 0.234-2e-3 0.4 0.225 0.405 0.463 6e-3 0.274-0.206 0.489-0.552 0.505-0.442 0.021-0.805-0.376-0.826-0.889-0.025-0.615 0.422-1.14 1.234-1.199 0.62-0.045 1.233 0.266 1.343 1.026 0.069 0.482-0.072 0.856-0.397 1.084-0.157 0.109-0.135 0.147 0.033 0.055 0.351-0.193 0.543-0.649 0.47-1.157-0.122-0.844-0.785-1.179-1.458-1.137" fill="#061922"/>
  </g>
  <g transform="matrix(24.671 -1.4372 -1.4372 -24.671 852.97 666.83)">
   <path d="m0 0c-0.64 0.04-1.138-0.249-1.309-0.558-0.086-0.157-0.195-0.207-0.434-0.185-0.516 0.049-1.058-0.295-1.193-0.746-0.036-0.121-0.093-0.164-0.2-0.211-0.377-0.163-0.519-0.6-0.296-1.072 0.207-0.437 0.677-0.748 1.261-0.826 0.07-9e-3 0.077-0.025 0.028-0.076-0.407-0.422-0.368-0.927-0.125-1.246 0.213-0.28 0.603-0.449 1.039-0.448l0.061-0.112c-0.474-0.012-0.934 0.147-1.197 0.492-0.299 0.393-0.275 0.936 0.089 1.313-0.595 0.075-1.049 0.389-1.266 0.85-0.243 0.513-0.088 1.038 0.378 1.209 0.088 0.033 0.117 0.065 0.142 0.154 0.144 0.511 0.711 0.867 1.284 0.807 0.207-0.022 0.293 0.033 0.349 0.139 0.219 0.415 0.829 0.676 1.397 0.64 0.488-0.031 0.931-0.3 1.096-0.755 0.03-0.083 0.1-0.142 0.23-0.157 0.559-0.064 0.914-0.321 1.046-0.71 0.145-0.427-0.029-0.997-0.472-1.365-0.152-0.127-0.184-0.095-0.044 0.046 0.396 0.403 0.541 0.875 0.405 1.278-0.136 0.399-0.503 0.611-0.949 0.662-0.17 0.02-0.24 0.075-0.299 0.212-0.153 0.357-0.463 0.63-1.021 0.665" fill="#061922"/>
  </g>
  <g transform="matrix(24.671 -1.4372 -1.4372 -24.671 908.98 761.11)">
   <path d="m0 0c0.661-0.084 1.196 0.193 1.434 0.774 0.31 0.758-0.217 1.588-1.101 1.43l-0.013 0.091c0.957 0.177 1.572-0.723 1.225-1.572-0.27-0.66-0.891-0.91-1.499-0.82z" fill="#061922"/>
  </g>
  <g transform="matrix(24.671 -1.4372 -1.4372 -24.671 886.03 804.14)">
   <path d="m0 0c0.448-9e-3 0.858 0.234 1.071 0.615 0.211 0.379 0.184 0.85-0.093 1.225-0.109 0.146-0.149 0.119-0.054-0.036 0.226-0.369 0.24-0.761 0.038-1.123-0.186-0.333-0.514-0.544-0.887-0.574z" fill="#061922"/>
  </g>
  <g transform="matrix(24.671 -1.4372 -1.4372 -24.671 836.41 744.98)">
   <path d="m0 0c0.672 0.354 0.539 1.918-0.659 1.977-0.596 0.028-1.065-0.407-1.081-0.83-0.013-0.336 0.176-0.606 0.488-0.645 0.431-0.054 0.687 0.242 0.602 0.518-0.043 0.137 0.01 0.157 0.06 0.021 0.129-0.348-0.19-0.697-0.674-0.636-0.372 0.046-0.6 0.338-0.585 0.748 0.022 0.563 0.593 0.983 1.198 0.954 1.301-0.062 1.465-1.82 0.679-2.165-0.141-0.062-0.175-0.02-0.028 0.058" fill="#061922"/>
  </g>
  <g transform="matrix(24.671 -1.4372 -1.4372 -24.671 726.88 750.03)">
   <path d="m0 0c-0.089-0.053-0.157-0.106-0.221-0.178-0.017-0.02-0.025-0.021-0.052-0.018-0.413 0.057-0.735-0.029-0.99-0.249-0.282-0.244-0.418-0.633-0.422-1.075 0-0.033-9e-3 -0.045-0.04-0.054-0.546-0.146-0.923-0.408-1.091-0.776-0.135-0.295-0.105-0.615 0.033-0.911 0.018-0.038 7e-3 -0.055-0.03-0.07-0.414-0.164-0.714-0.557-0.742-1.001-0.024-0.379 0.162-0.72 0.528-0.918 0.02-0.011 0.024-0.022 0.027-0.053 0.048-0.667 0.409-1.035 0.816-1.07l0.06-0.122c-0.531 0.013-0.956 0.472-0.967 1.17-0.381 0.193-0.614 0.576-0.587 1.003 0.029 0.458 0.354 0.887 0.791 1.064-0.166 0.339-0.17 0.68-0.044 0.956 0.171 0.376 0.569 0.66 1.152 0.813-3e-3 0.482 0.151 0.89 0.439 1.139 0.266 0.23 0.647 0.319 1.063 0.244 0.07 0.081 0.151 0.151 0.248 0.207z" fill="#061922"/>
  </g>
  <g transform="matrix(24.671 -1.4372 -1.4372 -24.671 677.69 897.95)">
   <path d="m0 0c0.026 0.477 0.312 0.78 0.801 0.742 0.434-0.035 0.675-0.404 0.677-0.742 1e-3 -0.274-0.156-0.442-0.371-0.449-0.147-5e-3 -0.151 0.042-6e-3 0.064 0.195 0.028 0.286 0.187 0.285 0.387-1e-3 0.312-0.237 0.617-0.593 0.645-0.42 0.029-0.662-0.23-0.685-0.654-0.061-1.135 1.494-1.387 2.071-0.746 0.101 0.112 0.148 0.079 0.056-0.041-0.579-0.76-2.301-0.437-2.235 0.794" fill="#061922"/>
  </g>
  <g transform="matrix(24.671 -1.4372 -1.4372 -24.671 730.57 916.93)">
   <path d="m0 0c0.255-0.11 0.57-0.084 0.807 0.068 0.223 0.143 0.418 0.206 0.644 0.122 0.046-0.017-3e-3 -0.122-0.049-0.106-0.183 0.062-0.337 0.012-0.536-0.116-0.286-0.183-0.67-0.197-0.962-0.048z" fill="#061922"/>
  </g>
  <g transform="matrix(24.671 -1.4372 -1.4372 -24.671 780.76 891.87)">
   <path d="m0 0c-0.324 0.537-0.784 0.949-1.423 1.297-0.157 0.086-0.132 0.135 0.029 0.057 0.651-0.315 1.149-0.725 1.485-1.274 0.016-0.026-0.067-0.12-0.091-0.08" fill="#061922"/>
  </g>
  <g transform="matrix(24.671 -1.4372 -1.4372 -24.671 796.32 880.82)">
   <path d="m0 0c-0.036 0.784-0.474 1.582-0.825 2.046-0.106 0.14-0.07 0.17 0.049 0.041 0.364-0.397 0.834-1.225 0.882-2.026 3e-3 -0.038-0.104-0.108-0.106-0.061" fill="#061922"/>
  </g>
  <g transform="matrix(24.671 -1.4372 -1.4372 -24.671 763.12 983.2)">
   <path d="m0 0c-0.018 0.236-0.017 0.442 2e-3 0.56 0.015 0.09 0.01 0.188-4e-3 0.314-0.186 1.631 0.247 2.554 1.28 3.056 0.386 0.188 0.567 0.327 0.739 0.554l0.08-0.083c-0.174-0.236-0.41-0.41-0.764-0.582-1.023-0.499-1.391-1.465-1.223-2.934 0.013-0.119 0.02-0.23 2e-3 -0.338-0.018-0.113-0.021-0.31-4e-3 -0.54 0.027-0.365 0.056-0.782 0.066-1.064 9e-3 -0.273 0.169-0.444 0.57-0.456 0.539-0.018 0.597 0.285 0.494 0.488-0.055 0.109-0.09 0.245-0.094 0.408-4e-3 0.162 8e-3 0.683 0.109 0.897 0.252 0.54 0.243 0.954-0.027 1.694-0.076 0.209-0.021 0.23 0.067 0.026 0.316-0.731 0.319-1.207 0.06-1.76-0.09-0.191-0.108-0.691-0.105-0.854 4e-3 -0.154 0.029-0.266 0.08-0.367 0.122-0.24 0.075-0.652-0.587-0.631-0.426 0.014-0.66 0.171-0.672 0.552-8e-3 0.271-0.042 0.696-0.069 1.06" fill="#061922"/>
  </g>
  <g transform="matrix(24.671 -1.4372 -1.4372 -24.671 779.41 1020.6)">
   <path d="m0 0c0.029 0.083 0.033 0.173 0.016 0.264-0.022 0.11 0.023 0.127 0.067 0.024 0.039-0.093 0.039-0.204 0.019-0.299z" fill="#061922"/>
  </g>
  <g transform="matrix(24.671 -1.4372 -1.4372 -24.671 788.31 1020.2)">
   <path d="m0 0c0.044 0.099 0.055 0.218 0.04 0.305-0.02 0.123 0.028 0.137 0.069 0.019 0.03-0.086 0.033-0.21 0-0.31z" fill="#061922"/>
  </g>
  <g transform="matrix(24.671 -1.4372 -1.4372 -24.671 821.9 1026.7)">
   <path d="m0 0c-0.557 0.035-0.702 0.329-0.575 0.612 0.073 0.164 0.047 0.35 0.018 0.617-0.1 0.906-0.46 2.134-0.302 3.22 0.036 0.249 0.093 0.241 0.07-9e-3 -0.096-1.089 0.226-2.286 0.339-3.197 0.033-0.269 0.052-0.487-0.029-0.67-0.095-0.211 0.011-0.445 0.487-0.475 0.578-0.036 0.639 0.163 0.649 0.439 0.033 0.911 0.094 1.426 0.081 1.959-0.01 0.405-0.057 0.976-0.139 1.473-0.04 0.245 0.017 0.256 0.07 0.013 0.108-0.49 0.172-1.078 0.184-1.486 0.017-0.58-0.059-1.05-0.091-1.964-0.014-0.389-0.134-0.572-0.762-0.532" fill="#061922"/>
  </g>
  <g transform="matrix(24.671 -1.4372 -1.4372 -24.671 815.01 1024.7)">
   <path d="m0 0c-7e-3 0.116 0.022 0.24 0.054 0.318 0.054 0.134 0.1 0.117 0.067-0.023-0.024-0.105-0.031-0.204-0.021-0.315z" fill="#061922"/>
  </g>
  <g transform="matrix(24.671 -1.4372 -1.4372 -24.671 826.31 1025.4)">
   <path d="m0 0c0.035 0.121 0.052 0.239 0.047 0.34-7e-3 0.148 0.047 0.153 0.071 6e-3 0.017-0.102 0.011-0.21-0.011-0.336z" fill="#061922"/>
  </g>
  <g transform="matrix(24.671 -1.4372 -1.4372 -24.671 868.97 950.65)">
   <path d="M 0,0 C 0.281,0.31 0.444,0.625 0.593,1.144 0.638,1.304 0.702,1.287 0.661,1.125 0.527,0.588 0.353,0.238 0.058,-0.061 -0.069,-0.19 -0.127,-0.14 0,0" fill="#061922"/>
  </g>
  <g transform="matrix(24.671 -1.4372 -1.4372 -24.671 837.94 962.6)">
   <path d="m0 0c0.293-0.032 0.582-0.022 0.88 0.021 0.177 0.026 0.191-0.04 0.016-0.08-0.284-0.065-0.599-0.078-0.893-0.06z" fill="#061922"/>
  </g>
  <g transform="matrix(24.671 -1.4372 -1.4372 -24.671 858.8 962.08)">
   <path d="m0 0c-0.166-0.422-0.296-0.774-0.376-1.08-0.057-0.222-0.054-0.372-1e-3 -0.572 0.109-0.41-0.107-0.648-0.594-0.574l0.025 0.096c0.443-0.057 0.544 0.177 0.471 0.456-0.055 0.207-0.057 0.407-3e-3 0.618 0.078 0.302 0.198 0.64 0.36 1.042z" fill="#061922"/>
  </g>
  <g transform="matrix(24.671 -1.4372 -1.4372 -24.671 844.6 1016.9)">
   <path d="m0 0c0.021 0.104 0.026 0.212 0.012 0.292-0.026 0.141 0.027 0.154 0.069 0.017 0.026-0.083 0.032-0.185 0.024-0.284z" fill="#061922"/>
  </g>
  <g transform="matrix(24.671 -1.4372 -1.4372 -24.671 890.36 882.22)">
   <path d="m0 0c0.428-1.361 0.16-2.413-0.521-4.543-0.073-0.23-0.071-0.403-0.027-0.572 0.123-0.461-0.04-0.673-0.66-0.616-0.487 0.044-0.73 0.273-0.593 0.882 0.101 0.447 0.237 1.214 0.3 1.698l0.112 0.012c-0.062-0.485-0.213-1.274-0.316-1.729-0.108-0.482 0.056-0.722 0.508-0.762 0.537-0.049 0.656 0.109 0.553 0.499-0.051 0.194-0.049 0.373 0.029 0.617 0.635 1.985 0.906 3.167 0.52 4.454z" fill="#061922"/>
  </g>
  <g transform="matrix(24.671 -1.4372 -1.4372 -24.671 867.64 1024.1)">
   <path d="m0 0c0.03 0.119 0.042 0.246 0.026 0.332-0.028 0.156 0.023 0.168 0.07 0.017 0.029-0.093 0.033-0.232 5e-3 -0.356z" fill="#061922"/>
  </g>
  <g transform="matrix(24.671 -1.4372 -1.4372 -24.671 876.71 1023.7)">
   <path d="m0 0c0.052 0.118 0.07 0.254 0.049 0.345-0.034 0.145 0.01 0.161 0.067 0.023 0.039-0.094 0.041-0.229-3e-3 -0.348z" fill="#061922"/>
  </g>
  <g transform="matrix(24.671 -1.4372 -1.4372 -24.671 896.01 914.82)">
   <path d="m0 0c0.66-0.402 1.431-0.135 1.508 0.601 0.045 0.439-0.187 0.705-0.481 0.741-0.352 0.044-0.601-0.175-0.622-0.444-0.017-0.217 0.134-0.365 0.293-0.387 0.136-0.019 0.136-0.061-1e-3 -0.065-0.194-5e-3 -0.406 0.179-0.384 0.458 0.028 0.351 0.327 0.584 0.729 0.534 0.369-0.045 0.626-0.342 0.574-0.848-0.093-0.892-0.996-1.076-1.624-0.726-0.025 0.014-0.019 0.153 8e-3 0.136" fill="#061922"/>
  </g>
  <g transform="matrix(24.671 -1.4372 -1.4372 -24.671 924.87 915.46)">
   <path d="m0 0c0.246-0.079 0.557 2e-3 0.636 0.244 0.011 0.034 0.016 0.037 0.051 0.05 0.285 0.105 0.499 0.34 0.584 0.663 0.116 0.44-2e-3 0.92-0.297 1.268-0.022 0.026-0.026 0.048-3e-3 0.078 0.33 0.42 0.29 0.961 0.077 1.245-0.017 0.022-0.019 0.034-0.013 0.061 0.063 0.283-0.014 0.561-0.206 0.712l0.085 0.081c0.217-0.159 0.307-0.493 0.214-0.808 0.257-0.314 0.293-0.903-0.064-1.327 0.338-0.354 0.447-0.889 0.328-1.34-0.094-0.356-0.327-0.618-0.67-0.721-0.116-0.345-0.476-0.413-0.85-0.285z" fill="#061922"/>
  </g>
 </g>
</svg>
