<?xml version="1.0" encoding="UTF-8"?>
<!-- Created with Inkscape (http://www.inkscape.org/) -->
<svg version="1.1" viewBox="0 0 126.48 154.13" xmlns="http://www.w3.org/2000/svg">
 <g transform="translate(-40.598 -30.442)">
  <g transform="matrix(1.8206 0 0 -1.8206 154.44 137.6)">
   <path d="m0 0c2.391 4.463-0.076 8.938-4.566 8.653-0.43 2.153-2.691 2.969-5.237 1.629-1.002 2.368-3.416 3.871-6.741 3.21l-22.203-0.204c-5.823 1.747-10.076-2.676-10.076-5.944-3.098 1.446-7.818-0.218-10.123-3.143-2.646-3.357-2.174-7.697-0.091-8.926-1.528-0.92-3.103-3.306-3.103-5.466 0-4.146 3.119-7.655 7.171-7.793 0.762-1.417 2.268-2.386 4.312-2.386 2.623 0 4.79 0.726 6.246 2.124 1.063-1.333 3.01-2.003 4.92-1.19l22.158-2.247c2.068-0.15 3.525 0.484 4.418 1.808 0.871-0.66 2.135-1.064 3.362-1.064 2.042 0 3.764 0.639 5.012 1.89 2.85-0.789 4.577 0.335 5.441 2.926 2.824 0.135 5.653 4.404 5.653 8.471 0 4.871-3.23 7.652-6.553 7.652" fill="#fff"/>
  </g>
  <g transform="matrix(1.8206 0 0 -1.8206 154.54 165.85)">
   <path d="m0 0c-0.364-0.319-1.435-2.528-3.439-1.981 0.729 1.184 1.048 3.006 1.048 5.055 0-3.626-2.832-7.378-7.538-7.378-1.548 0-3.461 0.638-4.099 1.07 0.091-0.205 0.251-0.41 0.433-0.637-1.753-1.412-4.737-0.547-5.238-0.274-0.501 0.274-19.697 2.346-20.973 1.754-1.088-0.506-3.523-0.264-4.106 0.281 0.091 0.121 0.243 0.334 0.364 0.668-0.781-1.06-3.37-1.822-6.437-1.822-3.324 0-5.359 2.199-5.131 5.411-0.273-0.54-0.547-1.694-0.516-2.709-3.303 0.546-6.069 3.113-6.519 5.054 0.386-3.771 3.349-6.828 7.125-6.957 0.762-1.417 2.268-2.385 4.312-2.385 2.623 0 4.79 0.725 6.246 2.123 1.063-1.333 3.01-2.003 4.92-1.19l22.158-2.247c2.068-0.149 3.525 0.484 4.418 1.809 0.871-0.661 2.135-1.065 3.362-1.065 2.042 0 3.764 0.64 5.012 1.891 2.85-0.79 4.577 0.334 5.441 2.925 1.604 0.077 3.209 1.487 4.297 3.437-1.01-1.758-4.776-2.515-5.14-2.833" fill="#d1d3d4"/>
  </g>
  <g transform="matrix(1.8206 0 0 -1.8206 135.1 159.05)">
   <path d="m0 0c-0.472 2.14-2.43 3.991-2.976 4.537-0.554 0.554 0.107 2.477-0.713 3.661s-2.414 1.457-2.869 1.958c-0.456 0.501-0.319 0.911-0.319 0.911-2.032 5.807-19.12 6.841-20.586 0 0 0 0.136-0.41-0.319-0.911s-2.05-0.774-2.869-1.958c-0.82-1.184-0.357-3.499-0.911-4.053-0.547-0.547-2.596-1.898-3.067-4.039-0.406-1.846-0.285-4.183 0.593-6.779 0.082 0.071 0.17 0.136 0.249 0.211 1.062-1.332 3.009-2.002 4.92-1.189l22.157-2.247c2.069-0.15 3.525 0.483 4.418 1.808 0.214-0.163 0.453-0.31 0.709-0.439 1.504 2.004 2.19 5.778 1.583 8.529" fill="#c7eafb"/>
  </g>
  <g transform="matrix(1.8206 0 0 -1.8206 129.79 172.9)">
   <path d="m0 0c-1.753-1.412-4.737-0.547-5.238-0.273-0.501 0.273-19.697 2.345-20.973 1.753-1.088-0.505-3.523-0.264-4.106 0.281 0.091 0.122 0.243 0.334 0.364 0.668-0.26-0.353-0.725-0.672-1.338-0.942 0.056-0.185 0.107-0.367 0.17-0.554 0.082 0.071 0.17 0.136 0.248 0.211 1.063-1.333 3.01-2.002 4.92-1.19l22.158-2.246c2.068-0.15 3.525 0.483 4.418 1.808 0.214-0.163 0.453-0.31 0.709-0.439 0.166 0.222 0.321 0.468 0.467 0.729-0.971 0.225-1.841 0.567-2.232 0.832 0.091-0.205 0.251-0.41 0.433-0.638" fill="#a5c3d2"/>
  </g>
  <g transform="matrix(1.8206 0 0 -1.8206 92.809 181.63)">
   <path d="m0 0c-2.983-0.854-5.503-0.017-5.503 1.358 0 0.864 0.846 1.948 1.518 2.517l4.357-0.38z" fill="#a7c2c0"/>
  </g>
  <g transform="matrix(1.8206 0 0 -1.8206 114.8 181.71)">
   <path d="m0 0c2.903-0.706 5.472 0.028 5.472 1.403 0 0.865-0.701 1.91-1.419 2.491l-4.212-0.399z" fill="#a7c2c0"/>
  </g>
  <g transform="matrix(1.8206 0 0 -1.8206 103.84 127.96)">
   <path d="m0 0c-2.063 0-6.507-0.104-6.507-1.965s0.193-13.328 2.045-18.464c1.851-5.136 3.187-7.626 4.462-7.626s2.611 2.49 4.462 7.626c1.852 5.136 2.045 16.603 2.045 18.464s-4.444 1.965-6.507 1.965" fill="#fff"/>
  </g>
  <g transform="matrix(1.8206 0 0 -1.8206 117.44 118.5)">
   <path d="m0 0c-0.683-1.685-3.759-5.192-7.469-5.192-3.711 0-6.787 3.507-7.47 5.192" fill="#d1d3d4"/>
  </g>
  <g transform="matrix(1.8206 0 0 -1.8206 155.8 58.082)">
   <path d="m0 0c-0.551 0.991-6.064 0.601-9.376-0.095 0.076 0.509 0.115 1.037 0.115 1.583 0 3.53-3.141 5.879-6.385 4.235 3e-3 0.086 9e-3 0.17 9e-3 0.259 0 2.621-2.77 4.806-6.467 4.584-0.245 2.45-2.407 4.221-6.498 4.221-3.051 0-6.615-2.219-7.287-5.04-3.704 1.001-8.026-0.766-7.985-4.676-2.085-0.131-3.371-1.408-3.371-3.705 0-0.502 0.071-0.983 0.204-1.44-3.821 0.782-9.518 1.016-10.041 0.074-1.108-1.993 3.835-14.202 11.847-16.48 0.105-12.484 9.647-20.563 16.694-20.563 7.024 0 16.528 8.03 16.691 20.446 8.496 2.928 12.962 14.596 11.85 16.597" fill="#fff"/>
  </g>
  <g transform="matrix(1.8206 0 0 -1.8206 82.053 66.739)">
   <path d="m0 0c0.605-0.109 1.809-0.209 2.432-0.209 0.622 0 0.406 0.584 3e-3 0.63-4.779 0.544-7.777 3.052-9.171 5.633 7e-3 -0.477 0.074-0.937 0.202-1.373 0.965-2.507 2.518-3.953 6.534-4.681" fill="#d1d3d4"/>
  </g>
  <g transform="matrix(1.8206 0 0 -1.8206 118.75 67.48)">
   <path d="m0 0c0.474-0.391 1.061-0.878 1.381-1.304l3.416 0.09c3.34 0.507 5.321 3.619 6.178 6.281 0.057 0.388 0.087 0.789 0.101 1.198-0.336-3.64-5.909-6.265-11.076-6.265" fill="#d1d3d4"/>
  </g>
  <g transform="matrix(1.8206 0 0 -1.8206 85.989 143.88)">
   <path d="m0 0c-1.89-1.947-4.258-7.014-4.258-10.84 0-4.82 2.66-7.408 8.125-7.15z" fill="#fff"/>
  </g>
  <g transform="matrix(1.8206 0 0 -1.8206 78.286 165.03)">
   <path d="m0 0c0.279-4.318 2.935-6.617 8.098-6.373l-0.836 3.887c-3.024 0.456-5.504 1.403-7.262 2.486" fill="#d1d3d4"/>
  </g>
  <g transform="matrix(1.8206 0 0 -1.8206 121.39 143.19)">
   <path d="m0 0c1.943-2.171 4.433-7.401 4.433-11.227 0-4.82-2.778-7.537-8.213-7.112z" fill="#fff"/>
  </g>
  <g transform="matrix(1.8206 0 0 -1.8206 129.39 165.03)">
   <path d="m0 0c-0.279-4.318-2.935-6.617-8.098-6.373l0.836 3.887c3.024 0.456 5.504 1.403 7.262 2.486" fill="#d1d3d4"/>
  </g>
  <g transform="matrix(1.8206 0 0 -1.8206 97.867 141.44)">
   <path d="m0 0c2.028-4.056 3.279-12.915 3.279-20.647 0-1.409-1.015-2.732-3.188-2.732-1.988 0-3.507 0.705-3.507 1.639 0 0.592 0.319 1.412 0.319 1.913 0 2.414-4.008 10.976-4.008 17.808 0 5.824 1.275 10.399 3.644 13.496" fill="#fff"/>
  </g>
  <g transform="matrix(1.8206 0 0 -1.8206 103.03 163.86)">
   <path d="m0 0c-1.639 1.799-3.785 1.449-4.96-0.134-1.188 0.64-2.385 0.572-2.932-0.269 0.988-3.234 1.962-5.92 1.962-7.11 0-0.501-0.319-1.32-0.319-1.913 0-0.933 1.518-1.639 3.507-1.639 2.172 0 3.188 1.323 3.188 2.732 0 2.725-0.156 5.588-0.446 8.333" fill="#c9e9e6"/>
  </g>
  <g transform="matrix(1.8206 0 0 -1.8206 91.658 180.85)">
   <path d="m0 0c-2e-3 -0.031-6e-3 -0.064-6e-3 -0.094 0-0.933 1.519-1.639 3.507-1.639 1.657 0 2.639 0.77 3.013 1.76-1.978-0.929-4.778-0.779-6.514-0.027" fill="#a7c2c0"/>
  </g>
  <g transform="matrix(1.8206 0 0 -1.8206 109.81 141.44)">
   <path d="m0 0c-2.028-4.056-3.279-12.915-3.279-20.647 0-1.409 1.015-2.732 3.188-2.732 1.988 0 3.507 0.705 3.507 1.639 0 0.592-0.319 1.412-0.319 1.913 0 2.414 4.008 10.976 4.008 17.808 0 5.824-1.275 10.399-3.644 13.496" fill="#fff"/>
  </g>
  <g transform="matrix(1.8206 0 0 -1.8206 104.65 163.86)">
   <path d="m0 0c1.639 1.799 3.785 1.449 4.96-0.134 1.188 0.64 2.385 0.572 2.932-0.269-0.988-3.234-1.962-5.92-1.962-7.11 0-0.501 0.319-1.32 0.319-1.913 0-0.933-1.518-1.639-3.507-1.639-2.172 0-3.188 1.323-3.188 2.732 0 2.725 0.156 5.588 0.446 8.333" fill="#c9e9e6"/>
  </g>
  <g transform="matrix(1.8206 0 0 -1.8206 116.02 180.85)">
   <path d="m0 0c2e-3 -0.031 6e-3 -0.064 6e-3 -0.094 0-0.933-1.519-1.639-3.507-1.639-1.657 0-2.639 0.77-3.013 1.76 1.978-0.929 4.778-0.779 6.514-0.027" fill="#a7c2c0"/>
  </g>
  <g transform="matrix(1.8206 0 0 -1.8206 128.16 61.178)">
   <path d="m0 0c-0.364 0.667 1.093 3.279-1.634 3.955-1.52 2.516-4.924 0.539-6.382 1.207-1.432 0.656-2.087 3.826-4.736 3.826-1.86 0-2.879-1.487-3.507-1.996-0.349-0.282-1.093-0.267-1.746-0.707-0.703-0.474-0.516-1.427-1.002-1.822-0.486-0.394-1.093-0.03-1.607-0.429 0.271-0.254 0.4-0.576 0.4-0.941 0-1.985-3.903-2.267-4.869-1.543-0.908-0.518-1.516-3.022-0.242-4.605 0.625-0.133 1.733-0.209 2.431-0.209-2.282-2.772 0.137-5.487 3.408-5.211 0.812 1.476 2.394 2.357 4.198 2.357 1.578 0 2.862-1.44 2.862-3.336 0-0.045-4e-3 -0.089-6e-3 -0.134 1.589-0.899 4.484-0.214 5.275 1.295 1.519-0.541 3.541 0.232 4.181 2.175-0.144 0.357-0.482 0.993-0.812 1.353 0.54-0.137 2.786-0.07 3.416 0.089 2.52 2.043 0.736 4.009 0.372 4.676" fill="#c7eafb"/>
  </g>
  <g transform="matrix(1.8206 0 0 -1.8206 86.487 65.973)">
   <path d="m0 0c-1.092 0.124-2.088 0.354-2.996 0.661 0.116-0.383 0.296-0.753 0.561-1.082 0.604-0.109 1.809-0.209 2.431-0.209 0.623 0 0.406 0.584 4e-3 0.63" fill="#a5c3d2"/>
  </g>
  <g transform="matrix(1.8206 0 0 -1.8206 121.26 69.854)">
   <path d="m0 0c0.54-0.137 2.786-0.07 3.416 0.089 1.041 0.844 1.347 1.675 1.322 2.406-1.855-0.758-4.021-1.191-6.119-1.191 0.474-0.391 1.06-0.879 1.381-1.304" fill="#a5c3d2"/>
  </g>
  <g transform="matrix(1.8206 0 0 -1.8206 89.797 92.958)">
   <path d="m0 0c-1.84 1.688-4.423 1.735-5.944 0.327-0.781-2.431-0.449-5.39 1.099-6.968 1.635-1.665 4.411-1.772 6.354-0.525 0.325 3.409-0.491 6.232-1.509 7.166" fill="#92d6e3"/>
  </g>
  <g transform="matrix(1.8206 0 0 -1.8206 89.797 92.958)">
   <path d="m0 0c-1.84 1.688-4.423 1.735-5.944 0.327-0.199-0.62-0.325-1.274-0.378-1.931 1.996 1.445 4.716 0.991 5.996-0.867 0.859-1.248 1.616-3.216 1.835-4.695 0.325 3.409-0.491 6.232-1.509 7.166" fill="#747dae"/>
  </g>
  <g transform="matrix(1.8206 0 0 -1.8206 87.502 92.922)">
   <path d="m0 0c0.71 0 1.264-1.013 1.264-2.186 0-1.096-0.346-1.89-1.162-1.89-0.636 0-1.218 0.84-1.218 1.822 0 1.603 0.555 2.254 1.116 2.254" fill="#fff"/>
  </g>
  <g transform="matrix(1.8206 0 0 -1.8206 117.77 92.958)">
   <path d="m0 0c1.84 1.688 4.423 1.735 5.944 0.327 0.781-2.431 0.449-5.39-1.099-6.968-1.635-1.665-4.411-1.772-6.354-0.525-0.325 3.409 0.491 6.232 1.509 7.166" fill="#92d6e3"/>
  </g>
  <g transform="matrix(1.8206 0 0 -1.8206 117.77 92.958)">
   <path d="m0 0c1.84 1.688 4.423 1.735 5.944 0.327 0.199-0.62 0.325-1.274 0.378-1.931-1.996 1.445-4.716 0.991-5.996-0.867-0.859-1.248-1.616-3.216-1.835-4.695-0.325 3.409 0.491 6.232 1.509 7.166" fill="#747dae"/>
  </g>
  <g transform="matrix(1.8206 0 0 -1.8206 120.06 92.922)">
   <path d="m0 0c-0.71 0-1.264-1.013-1.264-2.186 0-1.096 0.346-1.89 1.162-1.89 0.636 0 1.218 0.84 1.218 1.822 0 1.603-0.555 2.254-1.116 2.254" fill="#fff"/>
  </g>
  <g transform="matrix(1.8206 0 0 -1.8206 103.84 116.8)">
   <path d="m0 0c0.521 0 1.767 0.758 1.767 1.375 0 0.358-0.64 0.563-1.767 0.563s-1.767-0.205-1.767-0.563c0-0.617 1.246-1.375 1.767-1.375" fill="#4f8eb9"/>
  </g>
  <g transform="matrix(1.8206 0 0 -1.8206 72.021 69.141)">
   <path d="m0 0c-2.313 2.278-6.406 4.306-8.911 4.723-0.057-2.542 1.824-6.399 4.179-9.223 1.407-1.687 2.983-3.005 4.415-3.453l3.719 1.776c-0.713 2.505-1.944 4.741-3.402 6.177" fill="#4f8eb9"/>
  </g>
  <g transform="matrix(1.8206 0 0 -1.8206 74.888 81.976)">
   <path d="m0 0 1.827 0.873c-0.713 2.505-1.944 4.741-3.402 6.177-2.312 2.277-6.406 4.306-8.911 4.722 2.128-1.611 6.556-5.867 10.486-11.772" fill="#3d7397"/>
  </g>
  <g transform="matrix(1.8206 0 0 -1.8206 72.826 82.267)">
   <path d="m0 0c-2.763 0.334-4.192-0.427-4.281-1.048-0.204-1.429 2.581-2.17 5.253-2.003" fill="#fff"/>
  </g>
  <g transform="matrix(1.8206 0 0 -1.8206 75.645 84.008)">
   <path d="m0 0c-3.188 0.926-4.869 5.056-3.947 6.285 1.154 1.538 5.526 0.258 6.71-4.63" fill="#fff"/>
  </g>
  <g transform="matrix(1.8206 0 0 -1.8206 135.63 69.141)">
   <path d="m0 0c2.312 2.278 6.406 4.306 8.911 4.723 0.057-2.542-1.824-6.399-4.179-9.223-1.407-1.687-2.983-3.005-4.415-3.453l-3.719 1.776c0.713 2.505 1.944 4.741 3.402 6.177" fill="#4f8eb9"/>
  </g>
  <g transform="matrix(1.8206 0 0 -1.8206 132.79 81.976)">
   <path d="m 0,0 -1.827,0.873 c 0.713,2.505 1.944,4.741 3.402,6.177 2.312,2.277 6.406,4.306 8.911,4.722 C 8.358,10.161 3.93,5.905 0,0" fill="#3d7397"/>
  </g>
  <g transform="matrix(1.8206 0 0 -1.8206 134.77 82.212)">
   <path d="m0 0c1.948 0.177 4.248-0.527 4.327-1.078 0.204-1.429-3.78-2.368-5.466-2.065" fill="#fff"/>
  </g>
  <g transform="matrix(1.8206 0 0 -1.8206 131.75 84.451)">
   <path d="m0 0c3.446 1.26 5.021 5.299 4.099 6.528-1.154 1.538-5.678 0.243-6.725-4.509" fill="#fff"/>
  </g>
  <g transform="matrix(1.8206 0 0 -1.8206 91.51 80.636)">
   <path d="m0 0c0-3.983 2.711-6.133 6.771-6.133 4.164 0 6.558 2.529 6.558 6.012-0.895-3.382-3.644-4.797-6.558-4.797-2.878 0-5.392 0.926-6.771 4.918" fill="#d1d3d4"/>
  </g>
  <g transform="matrix(1.8206 0 0 -1.8206 99.526 81.466)">
   <path d="m0 0c0.772-1.82 3.296-0.564 3.296 1.555 0 0.513-0.027 0.889-0.149 1.238 0.023-1.351-0.534-2.161-1.295-2.611-0.677-0.4-1.447-0.452-1.852-0.182" fill="#d1d3d4"/>
  </g>
  <g transform="matrix(1.8206 0 0 -1.8206 82.5 75.855)">
   <path d="m0 0c0-2.552 2.903-4.513 5.236-4.513-0.103 0.315-0.211 0.875-0.211 1.315-1.668 0.012-4.353 0.819-5.025 3.198" fill="#d1d3d4"/>
  </g>
  <g transform="matrix(1.8206 0 0 -1.8206 123.38 79.945)">
   <path d="m0 0c-0.475-2.308-2.467-4.086-5.086-3.795 0.228 0.394 0.395 0.713 0.532 1.108 1.801 0 3.734 1.047 4.554 2.687" fill="#d1d3d4"/>
  </g>
  <g transform="matrix(1.8206 0 0 -1.8206 78.866 52.257)">
   <path d="m0 0c-0.129-2.032 1.487-3.731 3.408-3.731 2.35 0 3.504 0.84 3.479 2.042-0.246-0.627-1.301-1.2-3.498-1.2-1.993 0-3.003 1.572-3.389 2.889" fill="#d3d2d2"/>
  </g>
  <g transform="matrix(1.8206 0 0 -1.8206 64.473 84.095)">
   <path d="m0 0c0.14 0.984 1.992 1.582 4.214 1.273 0.17-0.024 0.39-0.55 0.222-0.531-2.515 0.29-3.704-0.369-3.823-0.831-0.123-0.863 1.83-1.851 4.485-1.731 0.955 0.043 0.964-0.43-0.01-0.467-2.369-0.089-5.336 0.552-5.088 2.287" fill="#0f141b"/>
  </g>
  <g transform="matrix(1.8206 0 0 -1.8206 74.501 83.951)">
   <path d="m0 0c-3.173 1.116-4.557 5.119-3.567 6.439 1.196 1.594 5.548 0.688 6.928-3.963 0.329-1.11-0.117-1.204-0.454-0.092-1.028 3.391-4.869 5.161-5.978 3.683-0.659-0.878 0.59-4.43 3.211-5.689 0.767-0.368 0.671-0.664-0.14-0.378" fill="#0f141b"/>
  </g>
  <g transform="matrix(1.8206 0 0 -1.8206 73.512 71.778)">
   <path d="m0 0c-1.868 2.83-7.404 5.626-10.136 5.918-0.94 0.101-0.907 0.549 0.047 0.459 3.245-0.308 9.091-3.334 10.953-6.593 0.085-0.149-0.802 0.122-0.864 0.216" fill="#0f141b"/>
  </g>
  <g transform="matrix(1.8206 0 0 -1.8206 132.22 72.4)">
   <path d="m0 0c1.928 3.374 7.666 6.376 11.092 6.797 1.044 0.129 1.09-0.286 0.059-0.451-2.756-0.44-8.115-3.135-10.026-5.917-0.085-0.123-1.21-0.578-1.125-0.429" fill="#0f141b"/>
  </g>
  <g transform="matrix(1.8206 0 0 -1.8206 67.808 82.274)">
   <path d="m 0,0 c -2.489,1.33 -6.662,7.403 -6.875,11.876 -0.008,0.171 0.48,0.186 0.488,0.015 C -6.18,7.555 -1.319,1.168 0.946,0.198 1.103,0.13 0.08,-0.043 0,0" fill="#0f141b"/>
  </g>
  <g transform="matrix(1.8206 0 0 -1.8206 64.782 84.05)">
   <path d="m0 0c-3.953 2.704-8.67 12.057-7.361 14.414 0.786 1.413 7.688 0.731 10.162 0.16 0.167-0.038 0.257-0.88 0.091-0.842-3.746 0.864-9.312 1.099-9.711 0.38-1.057-1.903 3.391-10.797 7.252-13.439 0.141-0.096-0.38-0.71-0.433-0.673" fill="#0f141b"/>
  </g>
  <g transform="matrix(1.8206 0 0 -1.8206 92.167 106.62)">
   <path d="m0 0c0.403 3.396-0.499 6.367-1.521 7.304-1.086 0.996-2.518 1.434-3.831 1.174-1.056-0.21-2.024-0.813-2.504-1.753-0.435-0.852-0.865-0.663-0.441 0.217 0.573 1.189 1.579 1.917 2.82 2.164 3.739 0.743 6.868-2.225 5.921-9.137-0.115-0.844-0.543-0.803-0.444 0.031" fill="#0f141b"/>
  </g>
  <g transform="matrix(1.8206 0 0 -1.8206 80.557 105.4)">
   <path d="m0 0c-1.464 1.491-1.972 4.216-1.303 6.771 0.044 0.171 0.792 0.496 0.743 0.346-0.81-2.476-0.357-5.297 1.045-6.725 1.475-1.504 4.007-1.723 5.921-0.494 0.14 0.091 0.198-0.564 0.117-0.611-2.133-1.224-4.911-0.929-6.523 0.713" fill="#0f141b"/>
  </g>
  <g transform="matrix(1.8206 0 0 -1.8206 115.51 106.62)">
   <path d="m0 0c-0.403 3.396 0.499 6.367 1.521 7.304 1.086 0.996 2.518 1.434 3.831 1.174 1.056-0.21 2.024-0.813 2.504-1.753 0.435-0.852 0.865-0.663 0.441 0.217-0.573 1.189-1.578 1.917-2.82 2.164-3.739 0.743-6.867-2.225-5.921-9.137 0.115-0.844 0.543-0.803 0.444 0.031" fill="#0f141b"/>
  </g>
  <g transform="matrix(1.8206 0 0 -1.8206 127.12 105.4)">
   <path d="m0 0c1.464 1.491 1.972 4.216 1.303 6.771-0.044 0.171-0.792 0.496-0.743 0.346 0.81-2.476 0.357-5.297-1.045-6.725-1.475-1.504-4.007-1.723-5.921-0.494-0.14 0.091-0.198-0.564-0.117-0.611 2.33-1.337 5.025-0.814 6.523 0.713" fill="#0f141b"/>
  </g>
  <g transform="matrix(1.8206 0 0 -1.8206 103.84 126.09)">
   <path d="m 0,0 c -7.102,0 -17.112,8.019 -17.112,21.078 0,0.171 0.723,0.171 0.723,0 C -16.389,9.365 -7.375,0.62 0,0.62 c 6.043,0 16.305,7.17 16.389,20.306 0,0.051 0.723,0.036 0.723,-0.023 C 17.024,7.947 7.071,0 0,0" fill="#0f141b"/>
  </g>
  <g transform="matrix(1.8206 0 0 -1.8206 133.73 88.334)">
   <path d="M 0,0 C -0.828,0.047 -0.795,0.454 0.038,0.41 2.068,0.303 4.71,1.401 4.589,2.241 4.518,2.519 2.767,3.262 0.858,3.089 0.687,3.073 1.096,3.562 1.207,3.568 3.112,3.659 5.088,3.129 5.203,2.329 5.402,0.932 2.304,-0.129 0,0" fill="#0f141b"/>
  </g>
  <g transform="matrix(1.8206 0 0 -1.8206 132.78 83.532)">
   <path d="m0 0c2.534 1.143 4.024 4.858 3.29 5.837-1.027 1.369-5.019-0.199-6.068-3.719-0.285-0.957-0.716-0.824-0.433 0.136 1.285 4.354 5.671 5.722 6.996 3.955 0.97-1.293-0.437-5.211-3.614-6.608-0.891-0.391-1.057 0-0.171 0.399" fill="#0f141b"/>
  </g>
  <g transform="matrix(1.8206 0 0 -1.8206 138.39 81.935)">
   <path d="m0 0c2.265 0.971 6.97 7.369 7.177 11.705 8e-3 0.17 0.519 0.156 0.511-0.015-0.22-4.618-4.659-10.939-7.11-11.99-0.04-0.017-0.735 0.233-0.578 0.3" fill="#0f141b"/>
  </g>
  <g transform="matrix(1.8206 0 0 -1.8206 141.93 82.958)">
   <path d="m0 0c3.861 2.642 8.408 11.609 7.35 13.513-0.388 0.699-5.42 0.54-9.143-0.269-0.098-0.021-0.01 0.728 0.202 0.77 2.824 0.559 8.752 1.115 9.483-0.2 1.309-2.357-3.408-11.717-7.361-14.421-0.053-0.037-0.672 0.51-0.531 0.607" fill="#0f141b"/>
  </g>
  <g transform="matrix(1.8206 0 0 -1.8206 103.84 113.67)">
   <path d="m0 0c-1.077 0-1.46-0.216-1.46-0.353 2e-3 -0.367 1.025-1.055 1.46-1.055 0.436 0 1.457 0.688 1.457 1.065 0 0.127-0.38 0.343-1.457 0.343m0-1.969c-0.629 0-1.974 0.862-1.974 1.626 0 0.546 0.768 0.873 1.974 0.873 1.328 0 1.974-0.377 1.974-0.873 0-0.756-1.367-1.626-1.974-1.626" fill="#0f141b"/>
  </g>
  <g transform="matrix(1.8206 0 0 -1.8206 103.82 92.466)">
   <path d="m0 0c-5.165 0-7.116 3.341-7.116 6.353 0 2.911 2.251 5.024 5.199 5.024 1.779 0 3.172-1.601 3.172-3.646 0-1.322-0.991-2.795-2.414-2.795-0.433 0-0.936 0.222-1.187 0.734-0.261 0.535-0.041 0.67 0.331 0.251 0.235-0.266 0.485-0.365 0.856-0.365 1.057 0 1.794 1.146 1.794 2.175 0 1.697-1.121 3.026-2.552 3.026-2.589 0-4.468-1.852-4.468-4.404 0-3.513 2.387-5.61 6.385-5.61 3.94 0 6.199 2.18 6.199 5.982 0 1.185-0.267 2.384-0.722 3.215-0.454 0.829-0.188 1.019 0.364 0.216 0.604-0.876 1.036-2.125 1.036-3.431 0-4.134-2.607-6.725-6.877-6.725" fill="#0f141b"/>
  </g>
  <g transform="matrix(1.8206 0 0 -1.8206 92.008 84.628)">
   <path d="m0 0c-2.932 0-5.587 2.203-5.587 5.009 0 1.777 0.668 3.332 2.012 4.397-5.245-0.09-9.026 2.834-9.026 6.541 0 2.305 1.311 3.744 3.46 3.988 0.061 1.462 0.648 2.784 1.824 3.694 1.574 1.218 4.034 1.58 6.248 1.072 0.909 2.948 4.609 5.061 7.506 5.061 3.841 0 6.179-1.67 6.768-4.293 3.732 0.105 6.592-2.324 6.592-4.907 0-3.33-1.954-4.99-3.932-5.207-1.049-0.115-1.101 0.318-0.071 0.435 1.69 0.192 3.298 1.823 3.298 4.772 0 2.153-2.414 4.312-5.702 4.29-0.488-3e-3 -0.642 0.149-0.849 0.782-0.699 2.139-2.737 3.423-6.104 3.423-2.918 0-5.969-1.972-6.841-4.326-0.229-0.619-0.383-0.713-1.029-0.586-1.974 0.39-4.065-0.015-5.445-1.083-0.95-0.735-1.505-1.723-1.624-2.88-0.066-0.642-0.232-0.799-0.804-0.896-1.675-0.281-2.59-1.451-2.59-3.339 0-3.4 3.602-5.994 8.265-5.922 1.322 0.02 1.364-0.302 0.463-1.087-1.069-0.93-1.684-2.336-1.684-3.929 0-2.261 2.24-4.322 4.731-4.388 0.04-1e-3 0.292-0.621 0.121-0.621" fill="#0f141b"/>
  </g>
  <g transform="matrix(1.8206 0 0 -1.8206 97.453 61.662)">
   <path d="m0 0c0.808 0.911 1.284 2.221 1.284 3.666 0 3.723-2.427 5.945-6.491 5.945-2.22 0-4.609-1.387-4.609-4.433 0-2.523 1.648-3.418 3.06-3.418 2.316 0 3.121 0.815 3.121 1.512 0 0.61-0.384 0.975-0.942 1.123-0.436 0.116-0.463 0.462 0.023 0.433 0.971-0.058 1.539-0.652 1.539-1.556 0-1.055-1.158-2.132-3.741-2.132-1.831 0-3.799 1.249-3.799 4.038 0 3.317 2.749 5.053 5.348 5.053 4.386 0 7.2-2.515 7.2-6.565 0-1.372-0.562-2.927-1.686-3.951-0.71-0.647-0.916-0.402-0.307 0.285" fill="#0f141b"/>
  </g>
  <g transform="matrix(1.8206 0 0 -1.8206 122 70.449)">
   <path d="m0 0c-0.157 0.013-0.577 0.685-0.405 0.664 6.005-0.694 9.401 2.438 9.401 7.616 0 3.556-3.425 5.519-5.895 3.872-0.142-0.095-0.187 0.616-0.106 0.662 2.842 1.619 6.728-0.39 6.728-4.534 0-5.666-3.894-8.776-9.723-8.28" fill="#0f141b"/>
  </g>
  <g transform="matrix(1.8206 0 0 -1.8206 113.87 87.375)">
   <path d="m0 0c-0.166 0.042-0.015 0.642 0.15 0.601 2.072-0.519 4.898 1.364 4.898 5.165 0 1.729-0.627 3.291-2.27 4.771-0.757 0.682-0.497 0.91 0.352 0.307 1.771-1.256 2.632-3.057 2.632-5.078 0-4.359-3.532-6.324-5.762-5.766" fill="#0f141b"/>
  </g>
  <g transform="matrix(1.8206 0 0 -1.8206 98.033 184.57)">
   <path d="m0 0c-2.212 0-3.92 0.82-3.92 1.949 0 0.345 0.422 1.709 0.422 1.913 0 0.852-0.575 2.664-1.241 4.762-1.168 3.677-2.87 8.713-2.87 13.046 0 5.496 1.262 10.044 3.46 13.204 0.114 0.164 0.639-0.168 0.541-0.308-2.146-3.056-3.278-7.5-3.278-12.896 0-4.237 1.582-9.22 2.737-12.859 0.71-2.235 1.271-4.001 1.271-4.949 0-0.275-0.319-1.64-0.319-1.913 0-0.639 1.222-1.329 3.197-1.329 2.124 0 2.878 1.305 2.878 2.423 0 7.847-1.186 16.199-2.969 20.145-0.475 1.052-0.073 1.275 0.41 0.198 1.831-4.086 3.179-12.324 3.179-20.343 0-1.515-1.082-3.043-3.498-3.043" fill="#0f141b"/>
  </g>
  <g transform="matrix(1.8206 0 0 -1.8206 98.893 184.05)">
   <path d="M 0,0 C -0.394,0.815 -0.281,1.643 -0.071,2.132 0.255,2.888 0.64,2.814 0.404,2.042 0.28,1.635 0.249,0.909 0.558,0.27 0.632,0.116 0.054,-0.11 0,0" fill="#0f141b"/>
  </g>
  <g transform="matrix(1.8206 0 0 -1.8206 94.363 183.39)">
   <path d="M 0,0 C -0.193,0.593 -0.128,1.316 0.16,1.994 0.464,2.707 0.889,2.52 0.604,1.863 0.384,1.354 0.392,0.455 0.661,0.03 0.752,-0.115 0.036,-0.112 0,0" fill="#0f141b"/>
  </g>
  <g transform="matrix(1.8206 0 0 -1.8206 77.573 163.61)">
   <path d="m0 0c0 3.894 2.265 8.34 3.799 10.293 0.106 0.134 0.258-0.628 0.14-0.798-1.437-2.068-3.216-6.034-3.216-9.495 0-4.721 2.655-7.014 7.291-6.818 0.173 7e-3 0.197-0.612 0.026-0.619-3.288-0.138-8.04 0.861-8.04 7.437" fill="#0f141b"/>
  </g>
  <g transform="matrix(1.8206 0 0 -1.8206 82.157 179.15)">
   <path d="M 0,0 C 0,0.83 0.659,1.659 1.057,2.081 1.125,2.152 1.674,1.835 1.534,1.737 1.338,1.6 0.723,0.742 0.723,0 c 0,-0.989 1.476,-1.701 4.313,-1.217 0.07,0.012 0.495,-0.538 0.327,-0.57 C 2.259,-2.383 0,-1.465 0,0" fill="#0f141b"/>
  </g>
  <g transform="matrix(1.8206 0 0 -1.8206 85.858 181.77)">
   <path d="m0 0c-0.199 0.548-0.197 1.247 7e-3 1.891 0.2 0.634 0.559 0.551 0.44-0.075-0.129-0.676-0.02-1.317 0.216-1.793 0.076-0.154-0.631-0.11-0.663-0.023" fill="#0f141b"/>
  </g>
  <g transform="matrix(1.8206 0 0 -1.8206 89.829 182.2)">
   <path d="M 0,0 C -0.218,0.638 -0.146,1.44 -0.028,2.008 0.104,2.647 0.493,2.593 0.412,1.966 0.32,1.263 0.436,0.64 0.586,0.2 0.642,0.038 0.044,-0.129 0,0" fill="#0f141b"/>
  </g>
  <g transform="matrix(1.8206 0 0 -1.8206 120.61 181.73)">
   <path d="M 0,0 C 0.238,0.479 0.357,1.132 0.204,1.789 0.033,2.522 0.378,2.629 0.625,1.914 0.841,1.288 0.872,0.592 0.682,0.032 0.646,-0.075 -0.076,-0.153 0,0" fill="#0f141b"/>
  </g>
  <g transform="matrix(1.8206 0 0 -1.8206 116.78 181.84)">
   <path d="M 0,0 C 0.145,0.425 0.26,1.003 0.179,1.676 0.091,2.41 0.508,2.491 0.635,1.744 0.737,1.141 0.797,0.416 0.586,-0.2 0.542,-0.329 -0.055,-0.162 0,0" fill="#0f141b"/>
  </g>
  <g transform="matrix(1.8206 0 0 -1.8206 109.64 184.57)">
   <path d="m0 0c-2.416 0-3.498 1.528-3.498 3.043 0 8.04 1.355 16.268 3.194 20.343 0.454 1.006 0.905 0.807 0.458-0.179-1.788-3.939-3.032-12.305-3.032-20.164 0-1.118 0.754-2.423 2.878-2.423 1.975 0 3.197 0.69 3.197 1.329 0 0.273-0.319 1.638-0.319 1.913 0 0.948 0.561 2.714 1.271 4.949 1.155 3.639 2.737 8.622 2.737 12.859 0 5.419-1.141 9.878-3.306 12.936-0.089 0.126 0.432 0.463 0.535 0.316 2.22-3.162 3.494-7.728 3.494-13.252 0-4.333-1.702-9.369-2.87-13.046-0.666-2.098-1.241-3.91-1.241-4.762 0-0.204 0.422-1.568 0.422-1.913 0-1.129-1.708-1.949-3.92-1.949" fill="#0f141b"/>
  </g>
  <g transform="matrix(1.8206 0 0 -1.8206 107.77 183.56)">
   <path d="M 0,0 C 0.296,0.613 0.276,1.292 0.158,1.704 -0.098,2.595 0.354,2.743 0.612,1.837 0.824,1.09 0.835,0.302 0.558,-0.27 0.504,-0.38 -0.075,-0.154 0,0" fill="#0f141b"/>
  </g>
  <g transform="matrix(1.8206 0 0 -1.8206 112.11 183.33)">
   <path d="m0 0c0.242 0.383 0.259 1.347 0.089 1.754-0.315 0.754 0.034 0.952 0.407 0.204 0.255-0.512 0.371-1.374 0.16-2.002-0.035-0.106-0.747-0.101-0.656 0.044" fill="#0f141b"/>
  </g>
  <g transform="matrix(1.8206 0 0 -1.8206 115.46 177.15)">
   <path d="m0 0c-0.171 7e-3 -0.146 0.626 0.026 0.619 4.758-0.199 7.291 2.384 7.291 6.818 0 3.549-1.869 7.627-3.324 9.648-0.081 0.112 0.127 0.787 0.233 0.653 1.534-1.953 3.814-6.407 3.814-10.301 0-5.694-3.635-7.622-8.04-7.437" fill="#0f141b"/>
  </g>
  <g transform="matrix(1.8206 0 0 -1.8206 115.75 182.41)">
   <path d="m0 0c-0.168 0.032-0.05 0.642 0.117 0.608 2.528-0.484 4.523 0.222 4.523 1.179 0 0.742-0.616 1.6-0.811 1.737-0.14 0.098 0.2 0.522 0.34 0.424 0.321-0.225 1.194-1.176 1.194-2.161 0-1.48-2.371-2.361-5.363-1.787" fill="#0f141b"/>
  </g>
  <g transform="matrix(1.8206 0 0 -1.8206 54.003 170.81)">
   <path d="m0 0c-3.698 0-7.363 3.331-7.363 8.052 0 2.31 1.698 4.536 3.078 5.447-2.19 1.408-2.259 6.117 0.186 9.219 2.379 3.018 7.239 4.482 10.234 3.294 0.166 1.674 1.185 3.443 2.822 4.661 1.795 1.335 3.951 1.802 5.871 1.458 0.227-0.04 0.655-0.801 0.492-0.753-1.865 0.559-4.156 0.065-5.979-1.292-1.472-1.096-2.41-2.584-2.581-4.06-0.087-0.754-0.204-0.818-1.013-0.528-2.768 0.99-7.097-0.471-9.284-3.245-2.218-2.814-2.205-6.918-0.512-8.164 0.63-0.463 0.641-0.744 0.066-1.131-1.215-0.816-2.682-2.851-2.682-4.906 0-4.303 3.39-7.324 6.498-7.429 0.056-2e-3 0.338-0.623 0.167-0.623" fill="#0f141b"/>
  </g>
  <g transform="matrix(1.8206 0 0 -1.8206 62.212 175.24)">
   <path d="m0 0c-3.003 0-5.268 2.094-5.268 4.978 0 3.296 2.541 5.593 4.744 5.593 1.208 0 2.155-1.126 2.155-2.564 0-0.76-0.325-1.237-1.039-1.571-0.719-0.337-0.85 9e-3 -0.193 0.421 0.393 0.247 0.612 0.649 0.612 1.15 0 0.943-0.538 1.944-1.535 1.944-1.91 0-4.039-2.042-4.039-4.973 0-2.566 1.876-4.358 4.563-4.358 2.996 0 5.338 0.973 6.672 2.755 0.677 0.905 1.059 0.615 0.403-0.325-1.443-2.065-3.869-3.05-7.075-3.05" fill="#0f141b"/>
  </g>
  <g transform="matrix(1.8206 0 0 -1.8206 79.872 154.37)">
   <path d="m0 0c-1.851 2.031-3.805 3.101-5.14 3.467-1.442 0.396-1.336 0.882 0.101 0.507 1.681-0.44 3.715-1.532 5.344-3.249 0.07-0.074-0.244-0.792-0.305-0.725" fill="#0f141b"/>
  </g>
  <g transform="matrix(1.8206 0 0 -1.8206 84.486 142.5)">
   <path d="m0 0c-0.985 2.461-1.926 3.463-3.135 4.234-1.132 0.722-0.992 1.088 0.222 0.505 1.178-0.566 2.375-1.813 3.203-3.674 0.106-0.238-0.241-1.189-0.29-1.065" fill="#0f141b"/>
  </g>
  <g transform="matrix(1.8206 0 0 -1.8206 73.201 171.13)">
   <path d="m0 0c-0.102 0.138 0.397 0.505 0.499 0.368 0.678-0.921 2.151-1.697 3.837-1.305 0.067 0.016 0.535-0.496 0.371-0.544-1.826-0.521-3.615-1e-3 -4.707 1.481" fill="#0f141b"/>
  </g>
  <g transform="matrix(1.8206 0 0 -1.8206 146.14 172.78)">
   <path d="m0 0c-0.165 0.047 0.335 0.55 0.417 0.531 2.142-0.521 3.753 0.305 4.592 2.348 0.197 0.478 0.474 0.615 0.832 0.684 2.521 0.486 4.963 4.392 4.963 8.114 0 3.422-2.083 7.053-5.953 7.284-0.704 0.042-0.733 0.282-0.41 0.965 0.947 2.007 0.932 4.094-0.063 5.669-0.865 1.368-2.348 2.12-4.094 2.088-0.483-9e-3 -0.523 0.063-0.666 0.527-0.2 0.652-0.612 1.14-1.202 1.421-0.863 0.411-2.013 0.336-3.2-0.199-0.569-0.257-0.698-0.156-0.961 0.414-0.921 2.004-3.464 3.084-5.312 2.716-0.167-0.033 0.13 0.652 0.257 0.666 2.538 0.277 4.747-1.076 5.681-3.268 1.455 0.766 2.775 0.84 3.824 0.341 0.77-0.367 1.292-1.142 1.532-1.999 2.051 0.101 3.762-0.73 4.753-2.298 1.126-1.781 1.169-4.175-0.032-6.432 3.222-0.259 6.545-3.026 6.545-7.914 0-4.188-2.889-8.415-5.817-8.745-1.094-2.993-3.118-3.646-5.686-2.913" fill="#0f141b"/>
  </g>
  <g transform="matrix(1.8206 0 0 -1.8206 137.05 176.28)">
   <path d="m0 0c-1.811 0-3.568 0.804-4.351 1.953-0.509 0.747-0.149 0.996 0.396 0.331 0.759-0.927 2.341-1.664 3.955-1.664 4.362 0 6.863 2.875 6.863 7.888 0 2.756-2.056 4.677-3.903 4.677-2.249 0-3.447-1.671-3.447-2.878 0-1.332 1.329-2.274 2.715-1.652 0.705 0.316 0.923-0.016 0.209-0.436-1.523-0.893-3.629 0.068-3.629 2.088 0 1.466 1.499 3.498 4.152 3.498 2.14 0 4.608-2.176 4.608-5.297 0-5.327-2.882-8.508-7.568-8.508" fill="#0f141b"/>
  </g>
  <g transform="matrix(1.8206 0 0 -1.8206 124.15 176.48)">
   <path d="M 0,0 C 1.621,0 3.007,0.702 3.449,1.746 3.516,1.904 3.973,1.398 3.947,1.346 3.365,0.191 1.931,-0.562 0.204,-0.617 0.136,-0.619 -0.171,0 0,0" fill="#0f141b"/>
  </g>
  <g transform="matrix(1.8206 0 0 -1.8206 122.71 139.35)">
   <path d="M 0,0 C 0.568,1.164 1.325,2.358 1.948,3.224 2.852,4.481 3.229,4.21 2.363,2.945 1.782,2.096 0.72,0.156 0.213,-1.014 0.162,-1.13 -0.134,-0.275 0,0" fill="#0f141b"/>
  </g>
  <g transform="matrix(1.8206 0 0 -1.8206 126.9 152.13)">
   <path d="m0 0c0.837 0.725 2.865 1.997 4.039 2.591 1.397 0.706 1.562 0.26 0.191-0.487-1.2-0.653-3.244-2.02-3.932-2.669-0.06-0.057-0.344 0.525-0.298 0.565" fill="#0f141b"/>
  </g>
 </g>
</svg>
