<?xml version="1.0" encoding="UTF-8"?>
<!-- Created with Inkscape (http://www.inkscape.org/) -->
<svg version="1.1" viewBox="0 0 172.13 127.93" xmlns="http://www.w3.org/2000/svg">
 <path d="m157.9 94.525c-6.1027 4.3184-10.766 4.7348-12.536 1.2835-2.0623-4.022 1.349-9.4544 5.8575-12.728 5.6494-4.0996 10.573-4.6725 12.652-1.0809 2.504 4.3265-1.1571 9.0018-6.0406 12.458m-40.175-27.382c0.49671-0.79586 0.90752-0.31179 1.732 0.084 1.0693 0.51294 0.66658 0.68511 0.34418 1.3261-0.4706 0.93768-0.9771 0.94004-1.7035 0.56752-1.1014-0.56409-0.89651-1.1662-0.42061-1.9298m5.3562-9.8464c0.72884-0.83149 0.70358-0.74753 1.358-0.0649 0.59866 0.62195 0.75517 0.83038 0.23165 1.4658-0.60396 0.73237-0.73763 0.83038-1.4371 0.28111-0.80892-0.63536-0.33013-0.65161 0.27876-1.3466m-65.151-23.617c-0.46143 0.92322-0.72888 0.82069-1.5791 0.38751-0.82338-0.42015-0.99085-0.74522-0.51779-1.6423 0.40993-0.77893 0.85454-0.94784 1.7371-0.5676 0.98813 0.42616 0.86401 1.0529 0.45554 1.8703m-3.7639 9.523c-0.3362 0.74048-0.35505 0.69908-1.1992 0.32973-0.93274-0.40887-0.94052-0.3673-0.56801-1.1417 0.38276-0.7934 0.7065-1.501 1.5772-1.0544 0.81633 0.41839 0.76373 1.1772 0.42965 1.9142m116.43 50.328c-0.0399-11.146-2.2926-32.186-5.1271-33.557-3.1863-1.5402-28.579 21.553-36.522 31.767-0.58526 0.75247-0.45386 0.90493-0.5029-0.15411-0.13935-3.2759-0.76593-9.2935-1.6927-9.7454-1.1906-0.58032-9.597 0.94644-16.234 3.4773-1.2379 0.47236-1.0037 0.72441-0.62381 0.31206 0.0695-0.0755-0.10382 0.04383 0.0214-0.04649 0.20743-0.15028 0.14874-0.11386 0.51104-0.28919 0.8068-0.39088 2.0296-0.77682 3.0625-1.1469 0.36125-0.75036 0.45427-0.96992 0.82506-1.757 0.0896-0.18979 0.54341-0.83559 0.79953-0.83559 6.2075 0 22.177-3.3957 24.877-8.053 0.0727-0.12489 0.41216-1.4698 0.46472-1.5957 3.1253-7.4588-12.116-26.012-26.353-36.031-0.59796-0.42052-1.045-0.49343-1.2471-0.74746-0.51612-0.64841-0.14935-0.59263 1.2484 0.29813 0.0268 0.0169 0.2234 0.06948 0.2502 0.08678 8.0557-15.852 21.267-30.387 20.808-33.325-0.0205-0.13053-0.39599-1.7715-0.47038-1.8562-3.0318-3.4406-34.773 10.451-45.388 23.842-0.1651 0.20955-1.2937 0.76045-1.5467 0.73046-26.205-3.3295-44.26 2.7922-45.568 6.3739-0.05433 0.14887-0.5765 1.416-0.6146 1.5885-0.93662 4.246 3.2193 14.778 6.1619 21.168 0.02681 0.0582-0.04668 0.24078-0.04316 0.30357 0.0042 0.0699-0.0854 0.52372-0.11043 0.59075-2.6423 7.0446-9.289 32.249-8.0298 37.524 0.03775 0.11112 0.98353 1.5817 1.0601 1.6995 0.36618 0.56233 2.0468 1.3353 3.1969 2.025-0.02928-0.20708 0.01026-1.2283-0.01514-1.4379-0.01482-0.12277-0.29785-1.0569-0.31161-1.1789-0.89253-8.0479 0.36373-13.215 4.1483-14.067 0.20884-0.0469 1.5008-0.28018 1.7075-0.30238 2.4102-11.777 9.009-29.845 12.697-30.49 0.83114-0.14534 4.8454 1.1729 6.2621 1.737-0.67592-1.8634-1.2034-4.6708-1.091-7.3508 0.28822-6.864 3.4162-11.853 7.652-12.004 3.9416-0.14676 6.0337 3.8044 6.3459 9.3165 5.9037-0.5789 12.834 1.094 17.892 7.5107 6.4107-3.5031 12.617-4.8018 15.011-0.18149 2.0944 4.0425-1.9713 10.083-7.2817 13.21-2.2327 1.3148-5.2641 2.3094-7.313 2.6823 3.6901 1.784 6.978 3.6226 7.1336 4.1934 0.35489 1.3028-12.929 32.578-14.316 33.052-1.7999 0.61454-21.581-4.7524-34.225-9.5052 6e-3 0.0473 0.01305 0.0931 0.0187 0.1404 0.34643 2.8977-0.19126 5.4668-0.58532 7.7683-0.11677 0.68262-0.40691 1.8598-0.58154 2.4747 15.188 5.0892 36.87 9.9435 40.983 8.3236 1.1437-0.4505 4.8307-5.5545 9.8116-14.524-0.52881 0.11359-1.2863 0.07791-1.6948 0.15411-1.0428 0.19509-1.2367 0.35534-1.1972 0.14651 3e-3 -0.018 0.0787-0.0363 0.0883-0.0554 0.0233-0.0459 0.0593 0.17684 0.11607 0.12641 0.21554-0.19297-0.15166 0.06545 0.43109-0.07813 2.5908-0.63783 9.2589-2.7573 10.797-3.2173 0.33761-0.10089 0.46211-0.0268 0.55101 0.16545 0.0399 0.0861 0.13306 0.52719 0.13096 0.66089-0.0508 2.6716 1.0102 17.495 4.4297 24.299 0.67028 1.3339 1.7506 3.0148 2.5684 3.5111 6.5984 4.0058 44.063-15.398 46.036-20.454 0.31856-0.81668 0.53271-3.6936 0.52001-7.2059" fill="#e61118"/>
 <path d="m135.93 2.0328c-1.4447 0.98501-17.424 17.143-24.676 29.339-0.23112 0.38867-0.48463 0.80457-0.54102 1.3721-0.0489 0.39853 7.1e-4 0.71946 0.28152 1.0529 1.8408 2.186 8.0378 5.2696 4.2689 2.9972l-0.40656-1.423 5.2852-8.8087 8.5377-12.536 6.4372-9.2153z" fill="#bc0105"/>
 <path d="m85.01 82.037c-3.4953 0.22824-10.218-1.7752-10.218-1.7752l-8.235-29.656 3e-6 -0.0015c-1.688-0.5969-3.2985-1.0657-3.6894-0.97437-2.5866 0.60642-9.7529 18.022-12.279 29.373 3.6844 0.46602 6.7927 4.8595 7.9361 11.263 9.8556 3.5708 25.287 8.5527 31.562 10.042z" fill="#fff"/>
 <path d="m91.51 80.527 3.8788 14.89c4.0319-8.8988 11.271-25.973 11.067-27.009-0.0441-0.22613-1.4802-1.0259-3.1478-1.8845-0.26635 1.0428-0.60925 2.075-1.0523 3.0854-2.4285 5.5372-6.3274 9.0738-10.746 10.918" fill="#fff"/>
 <path d="m79.242 59.593c0.41275-0.54081 1.208 0.67142 1.3985 1.2461 1.2922 3.8756-2.6671 0.98825 2.1767-0.57555 0.62936-0.20003 1.4909 0.78657 1.353 1.4241-1.895 2.4743-8.4912 6.5267-4.6642-1.6526m12.321 1.4105c-0.48471-0.87242-0.23482-2.4377-0.13216-3.628-0.7874-6.2191-7.752-9.6515-12.519-5.2947-1.1899 1.7082-2.7488 2.9747-4.7166 2.9924-1.9509 0-3.7735-1.5149-5.2051-4.419-0.71155-0.29351-2.0994-0.6029-2.8956-0.88477-0.74295 1.1984-1.5993 2.8877-2.1577 4.3214-3.2632 8.375 0.50367 21.73 10.536 26.055 3.187 1.3741 6.5792 2.0992 10.074 1.871l4.8848 18.318c1.4517 0.34467 2.8012 0.025 3.0895-0.0653 0.20842 0.38072 1.5665-1.9321 2.9857-5.0637l-3.783-14.794c4.4182-1.844 8.2213-5.4764 10.65-11.014 0.44309-1.01 0.8339-2.378 1.1002-3.4204-1.4891-0.76658-3.4012-1.8197-4.4348-2.3143-3.4195 0.18027-6.3364-0.60688-7.4773-2.66" fill="#00c9ef"/>
 <path d="m78.87 43.507c-0.23248 3.7342-1.712 7.6683-4.4104 7.6683-1.9579 0-3.3419-2.9178-3.5235-6.5617l-2.2557 0.63394c0.2727 5.6737 2.8508 9.6869 5.7817 9.6869 3.8597-0.0349 6.047-5.727 6.543-11.389 0.0547-0.62865 0.072-1.2919 0.0526-1.9685l-2.1548 0.6798c1e-3 0.40181-6e-3 0.81421-0.0328 1.2502" fill="#fff"/>
 <path d="m70.913 43.377c0.10407-4.1617 1.941-7.4768 4.1758-7.6232 2.007-0.12312 3.5211 1.8239 3.7733 5.4656l2.1396-0.59867c-0.33655-4.2065-2.1022-8.588-5.5111-8.5411-3.0738 0.0423-6.5486 4.6436-6.827 11.275-0.01341 0.31785-0.01341 0.62794-0.0127 0.93768l2.2617-0.7179c7.05e-4 -0.066-0.0014-0.13088 3.52e-4 -0.19756" fill="#fff"/>
 <path d="m74.471 50.892c1.9308 0 3.6541-4.1504 3.8598-7.4468 0.22014-3.5564-1.1222-7.3636-3.1514-7.2352-1.6291 0.10653-3.6904 3.7311-3.7761 7.1901-0.10231 4.027 1.6746 7.4919 3.0677 7.4919" fill="#007bba"/>
 <path d="m101.72 50.917c3.635-2.0754 6.9797-2.4525 8.2409-0.64982 1.1949 1.705 0.33761 4.6708-4.4034 7.6369-9e-3 5e-3 -0.0173 0.01-0.0261 0.0155l1.3667 2.5693c5.3763-3.2156 8.9052-8.7641 7.2888-11.884-2.0182-3.8947-7.8366-3.1355-13.752 0.0744z" fill="#fff"/>
 <path d="m96 58.757c-1.1889-2.0087 1.3903-5.0405 4.5653-7.1381 0.0963-0.0635 0.19191-0.12029 0.28822-0.18168l-1.2002-2.316c-0.15028 0.0868-0.30092 0.16792-0.4512 0.25752-5.1936 3.109-8.2194 8.4578-6.4862 11.579 1.3628 2.4532 6.6287 3.6731 13.375-0.019l-1.4362-2.5079c-3.7737 2.1001-7.3847 2.4733-8.6547 0.32597" fill="#fff"/>
 <path d="m100.84 52.036c-3.176 2.0976-5.2332 5.344-4.5326 6.5276 1.0767 1.8196 5.6441 0.98688 9.0403-1.1379 3.4262-2.1424 5.0541-5.6315 4.0879-7.0105-1.1451-1.6351-5.5975-0.35865-8.5955 1.6208" fill="#007bba"/>
 <path d="m19.215 34.547c9e-3 2.7269 1.3494 4.7024 2.5721 4.4526 1.0523-0.21026 2.0088-2.9607 1.7308-5.0019-0.39723-2.9083-2.1417-4.8142-3.15-4.5973-0.87771 0.18908-2.1018 2.4428-1.1529 5.1466" fill="#49575e"/>
 <path d="m91.79 56.62c0.9786-2.7002 3.7338-6.2676 7.3149-8.4107 0.0568-0.0339 0.1143-0.01809 0.1711-0.05189-4.2774-5.2306-11.635-7.7408-17.342-7.1918 6e-3 0.7179-0.30368 1.885-0.36968 2.6431-0.22013 2.5142-1.0492 5.8384-2.055 8.0711 4.6634-2.5721 10.598 0.16375 12.28 5.132" fill="#2c3b42"/>
 <path d="m141.38 72.375c-4.3037 3.5502-13.608 4.0837-19.506 4.2084-3.2015 0.06769-5.9836-0.41805-7.3689 0.1666-1.7474 0.73747-11.455 29.448-18.062 31.25-3.8217 1.0422-20.029-2.9872-32.865-6.7334-12.67-3.6977-21.435-4.7773-23.448-15.142-0.625 3.5 0 6.25 0 6.25l1.375 3.125 18.375 7.5 18.375 5.25 15.5 2.875 4.625-0.5 4.25-4.75 12.75-23.75 8-0.75 9.125-2.5 7.25-3.75z" fill="#bc0105"/>
 <g fill="#e61118">
  <path d="m74.555 115.74c-1.0573 3.4872-1.2876 7.3226-0.14393 9.4054 0.4318 0.78669 1.87 1.7387 2.7248 1.9849 3.7804 1.0911 12.436-7.4249 13.021-16.294-3.1831-0.48225-7.6885-1.463-11.666-2.3838-1.4739 1.7029-3.1486 4.6885-3.9364 7.2867"/>
  <path d="m21.98 39.338c-1.5801 0.31292-3.0207-0.8091-3.5672-4.6456-0.4572-3.2089 0.24794-5.2202 1.8707-5.5702 1.5854-0.34396 2.8591 1.1468 3.3558 4.7941 0.2734 2.0017 0.23717 5.076-1.6594 5.4556m-4.5191-16.716c-2.885 0.54292-4.8322 5.0527-4.2752 10.976 0.08714 0.9271 0.21837 1.965 0.40393 2.981 1.2753 6.9825 5.6588 10.806 8.4673 10.132 1.5582-0.37501 3.5337-3.3862 3.9986-6.8032 0.26352-1.9353-0.12115-4.1935-0.5346-6.6019-1.2298-7.1561-4.2849-11.462-8.06-10.752"/>
  <path d="m22.155 46.579c-4.4679 1.0746-7.5397-3.2291-8.7599-9.8952-1.4587-7.9671 0.07219-13.379 4.0078-14.082 4.2266-0.75389 7.0969 2.935 8.4424 10.765 1.0442 6.0805 0.12179 12.363-3.6903 13.28m24.019 15.054c-0.27622-1.7092-0.69361-3.2614-0.97584-4.6549-1.2605-6.2209-2.9914-9.7354-3.6609-9.8928-1.2915-0.30374-6.525 4.1288-7.0168 4.4801-0.42898 0.30621-0.72637 0.33479-0.79587-0.32279-0.21202-2.0006-6.3888-45.269-10.077-46.454-3.3757-1.0809-18.937 10.947-22.599 20.925-0.05503 0.14958 0.038149-0.07142 0.00429 0.13954-1.1494 7.2256 10.548 50.113 15.73 51.945 1.9565 0.69179 13.718-10.366 19.141-15.535 0.44203-0.42122 0.99673-0.21094 1.1177 0.39161 0.69674 3.483 3.0255 9.7472 4.8042 14.047 1.137-4.9735 2.9466-10.948 4.1923-15.07"/>
  <path d="m163.82 81.537c-1.6514-2.9623-7.9932-1.9818-12.669 1.4126-4.1875 3.0395-7.9381 9.0162-6.1784 12.448 0.0864 0.16827 1.342 1.3371 1.4571 1.4785 1.8348 2.2581 7.2306 0.61182 11.378-2.5229 4.6168-3.49 7.7574-8.3804 6.4641-11.665-0.072-0.18309-0.28546-0.90685-0.38353-1.0829"/>
  <path d="m55.845 84.309c-1.4527-3.0924-4.1683-5.0984-6.9789-4.4722-3.126 0.69533-5.2355 7.9754-4.3151 15.535 0.30903 2.5351 0.96135 5.0836 1.7142 6.9731 1.427 3.5807 4.011 5.4708 6.0042 5.1692 4.0735-0.61666 6.6201-7.0755 5.6228-15.415-0.3048-2.5502-1.1544-5.6785-2.115-7.7229"/>
 </g>
 <g fill="#bc0105">
  <path d="m163.69 81.688c0.75548 5.9805-10.092 15.046-17.75 14.562l1.625 1.5625 4-0.3125 5.375-2.0625 4.5-4 3.125-5.3125z"/>
  <path d="m0.86742 25.235c1.3479 2.3644 3.0063 2.2276 3.0076 2.3895 0.10389 13.568 11.437 46.631 13.64 45.875 11.57-3.9671 19.695-15.167 20.235-14.875 0.49272 0.26654 1.997 6.3789 2.7274 8.379 0.15691 0.42969 0.28977 0.64938 0.59992 0.64307 0.30989-0.0063 0.54886-0.32615 0.62469-0.54244 2.5582-7.2968 3.048-9.3859 3.298-10.605 0.75 1.9062 1.125 5.75 1.125 5.75l-4.125 15.125-3-7.125-2.375-8.5-6.375 6.375-7.375 6.375-4.625 3.125-1.625 0.5-2.125-2.125-5.125-12.125-6.125-21.5-2.5076-13.765s0.1471-0.85593 0.125-3.375z"/>
  <path d="m13.391 34.604c1.1638 2.4211 4.9475 12.296 12.153 7.4246l-1.5026 3.6681-1.7678 1.0607-1.9004 0.17678-2.7842-1.37-2.4307-3.7565-1.37-4.5078z"/>
  <path d="m74.188 115.62c8.733-1.1491 11.137 4.2552 12.438 5.625l2.8125-5.8125 1-5-12.438-2.1875-2.375 4.5z"/>
 </g>
 <g>
  <path d="m104.06 96.5 6.375-1.5 5.0625-10.625-7.125 2.4375z" fill="#e61118"/>
  <path d="m44.725 87.681c0.09741 7.0352 1.7515 13.615 6.8074 13.42 4.7797-0.18385 5.9841-11.244 3.0037-18.547 3.2704 6.1872 3.8007 13.7 3.8007 13.7l-2.1213 8.8388-3.0052 2.5633-2.2981-0.0884-2.2097-1.2374-3.7123-7.4246-0.61872-8.7504z" fill="#bc0105"/>
  <path d="m121.62 116.58c5.4929 10.265 46.144-13.918 49.232-18.738v3.5355l-3.3588 3.4472-7.7782 4.6846-8.8388 4.8614-9.7227 4.4194-6.8943 2.1213-5.2149 1.149-3.6239-0.0884-2.2097-1.7678z" fill="#bc0105"/>
  <path d="m42.438 33.312c2.8306 11.565 8.8524 20.039 6.125 21.688l-0.75-1.25-4.9375-13.875z" fill="#b80308"/>
 </g>
 <g fill="#0f141b">
  <path d="m58.021 31.837c-0.883-0.38064-1.9025 0.0282-2.3125 0.80716-0.47308 0.89711-0.11395 1.845 0.70944 2.2652 0.8502 0.43322 1.9322 0.15205 2.3936-0.77082 0.40887-0.81738 0.19756-1.8754-0.79058-2.3015"/>
  <path d="m54.81 41.547c-0.87066-0.44662-1.9131-0.0748-2.2959 0.71896-0.37253 0.77435-0.07726 1.8344 0.85549 2.2433 0.8442 0.36971 1.7734-0.0205 2.1096-0.76094 0.33408-0.73695 0.14711-1.7833-0.66922-2.2013"/>
  <path d="m122.92 59.287c0.69956 0.54928 1.8394 0.49918 2.4433-0.23319 0.52352-0.635 0.46285-1.6104-0.13582-2.2324-0.6544-0.68263-1.7791-0.76659-2.5079 0.0649-0.6089 0.69497-0.60855 1.7653 0.20037 2.4006"/>
  <path d="m117.93 69.427c0.72636 0.37254 1.9516 0.17886 2.4222-0.75918 0.32244-0.64099 0.29386-1.8672-0.77541-2.3802-0.82444-0.39581-1.9061-0.11324-2.4031 0.68263-0.4759 0.76341-0.34502 1.8926 0.75636 2.4567"/>
  <path d="m25.411 39.947c-0.46496 3.417-1.7967 5.8184-3.3549 6.1934-2.8088 0.67381-6.6499-2.642-7.9252-9.6241-0.18556-1.016-0.31679-1.9861-0.40393-2.9136-0.55704-5.9231 0.84808-9.9247 3.7331-10.467 3.7751-0.71049 6.5592 3.0533 7.789 10.21 0.41346 2.4084 0.42545 4.6666 0.16192 6.6019m-8.1442-17.742c-3.9359 0.70274-5.8057 6.5888-4.3469 14.556 1.2203 6.6664 4.9699 11.58 9.4375 10.505 3.8121-0.91793 4.9378-8.0126 3.894-14.093-1.3455-7.8299-4.7579-11.722-8.9845-10.968"/>
  <path d="m21.765 38.567c-1.2227 0.24976-2.1558-1.325-2.5495-4.0199-0.40393-2.7679 0.27517-4.6048 1.1529-4.7939 1.0082-0.21696 2.2398 1.3363 2.637 4.2446 0.27799 2.0412-0.18803 4.3589-1.2404 4.5692m-1.6168-9.8213c-1.6228 0.34996-2.4977 2.734-2.0405 5.9429 0.54681 3.8364 2.292 5.2973 3.8721 4.9844 1.8969-0.37959 2.2038-3.7927 1.9308-5.7944-0.49706-3.6474-2.177-5.4769-3.7624-5.1329"/>
  <path d="m157.48 93.887c-4.1469 3.1348-9.4752 4.239-11.31 1.9808-0.11501-0.14147-0.21872-0.29387-0.30515-0.46214-1.7593-3.4318 1.4488-8.8664 5.6363-11.906 4.6761-3.3944 10.205-4.3071 11.856-1.3448 0.0981 0.17604 0.17604 0.35772 0.24836 0.54081 1.2933 3.2851-1.5085 7.7011-6.1256 11.191m-6.6019-11.281c-4.5088 3.2731-8.1912 9.3832-6.1284 13.406 1.7702 3.4509 7.5173 3.3733 13.62-0.94474 4.8835-3.4558 8.5446-9.2153 6.0406-13.542-2.0786-3.5916-7.8832-3.0191-13.533 1.0809"/>
  <path d="m120.74 82.277c-1.8376 0.41875-3.7987 0.94756-5.6092 1.5335 0.17039-0.36195 0.34078-0.72425 0.51188-1.0908 1.3917-0.0289 3.1517-0.17886 5.0973-0.44274m49.238 18.668c-1.9727 5.0557-38.353 23.985-44.952 19.98-0.81774-0.49636-1.5593-1.5-2.2296-2.8339-3.4195-6.8037-4.9548-22.372-4.904-25.044 2e-3 -0.13335-0.0233-0.23566-0.0632-0.32173-0.0889-0.19227-0.28117-0.2667-0.61877-0.16581-1.5388 0.46038-8.5457 2.5799-11.136 3.2177-0.58279 0.14322-1.0287 0.35948-1.2442 0.55209-0.0568 0.0508-0.0928 0.0991-0.11606 0.14464-0.01 0.0194-0.0169 0.0377-0.0205 0.0557-0.0395 0.20849 0.35771 0.31962 1.4005 0.12453 0.40852-0.0765 0.895-0.17639 1.4238-0.28998-4.9809 8.9694-8.3291 13.125-9.4728 13.575-4.113 1.62-24.629-3.1235-39.818-8.2127 0.17462-0.61489 0.32103-1.2651 0.4378-1.9477 0.39405-2.3019 0.45297-4.9664 0.10619-7.8641-0.0056-0.0473-0.0127-0.0931-0.0187-0.14041 12.644 4.7523 32.856 10.79 34.656 10.176 1.3878-0.47448 14.671-32.565 14.316-33.867-0.15557-0.57079-3.0124-2.074-6.7024-3.858 2.0489-0.37288 4.2658-1.1758 6.4985-2.4906 5.3104-3.127 9.6636-9.5504 7.5692-13.593-2.3943-4.62-8.9831-3.9924-15.393-0.48895-5.0578-6.417-11.605-7.8504-17.509-7.2711-0.31221-5.5125-2.7873-9.4633-6.7289-9.3165-4.2362 0.15134-7.7953 5.4275-8.0836 12.291-0.11254 2.68 0.27129 4.9604 0.94721 6.8234-1.4168-0.56374-4.856-1.8344-5.6871-1.6891-3.6883 0.64523-10.849 18.726-13.259 30.504-0.20673 0.0222-0.41416 0.0519-0.62336 0.0991-3.7842 0.85126-5.9217 7.6447-5.0288 15.692 0.01341 0.12206 0.0254 0.24341 0.04022 0.36583 0.02575 0.2099 0.05362 0.41768 0.0829 0.62477-1.1501-0.68933-1.9498-1.3268-2.316-1.8895-0.07655-0.11748-0.14146-0.23319-0.17921-0.34396-1.8013-5.2754 4.8585-31.541 7.5008-38.585 0.02505-0.067 0.03387-0.13759 0.02963-0.20744-0.0035-0.0631-0.01693-0.12558-0.04375-0.18379-2.9425-6.3899-6.7871-17.617-5.8505-21.863 0.0381-0.17251 0.08149-0.33761 0.13547-0.48613 1.3081-3.5821 19.685-9.4851 45.89-6.1556 0.25294 0.03 0.29739 0.0208 0.46249-0.18874 10.615-13.391 42.356-27.283 45.388-23.842 0.0744 0.08431 0.11112 0.20073 0.13158 0.33126 0.45897 2.9386-12.379 17.304-20.435 33.156-0.0268-0.0173-0.054-0.036-0.0808-0.0533-1.3977-0.89041-2.0694-0.84455-1.5533-0.1965 0.20214 0.25436 0.58138 0.59796 1.1797 1.0188 14.237 10.019 29.445 29.046 26.319 36.505-0.0529 0.12594-0.12136 0.25082-0.19403 0.37571-2.7002 4.6574-18.737 8.5273-24.945 8.5273-0.25647 0-0.37148 0.10407-0.46073 0.29386-0.37112 0.78705-0.73519 1.5487-1.0964 2.2991-1.0329 0.37006-1.9847 0.756-2.7915 1.1469-0.3623 0.17533-0.6424 0.34219-0.84984 0.49212-0.12523 0.0907-0.22295 0.17463-0.29245 0.25012-0.37994 0.4124 0.0639 0.56656 1.3014 0.0946 6.6368-2.5308 14.908-4.1257 16.098-3.5451 0.92674 0.45191 1.4178 6.6724 1.5575 9.9483 0.049 1.0594 0.32385 1.0424 0.90911 0.28963 7.9431-10.213 33.064-33.306 36.251-31.766 2.8346 1.3716 4.4774 21.666 4.5173 32.812 0.0127 3.5123-0.13371 6.1182-0.45227 6.9349m-93.078 25.658c-0.85478-0.24624-1.4785-0.81492-1.9103-1.6016-1.1434-2.0824-0.91299-5.7263 0.14393-9.2138 0.78775-2.5982 2.0317-5.1047 3.5052-6.8072 3.9772 0.9204 7.716 1.6616 10.899 2.1438-0.5849 8.8685-8.8579 16.57-12.638 15.479m-5.9636-81.985c0.18168 3.6435 1.5656 6.5613 3.5235 6.5613 2.6984 0 4.1779-3.9338 4.4104-7.668 0.0272-0.43603 0.0342-0.84878 0.0328-1.2506l2.1548-0.6798c0.0194 0.67698 2e-3 1.3398-0.0526 1.9688-0.496 5.6617-2.6832 11.354-6.543 11.389-2.9305 0-5.509-4.0136-5.7817-9.6873zm6.9194-1.1698c-0.20567 3.2964-1.4499 6.8718-3.3807 6.8718-1.3931 0-2.643-2.89-2.5407-6.9169 0.08572-3.459 1.62-6.6523 3.2491-6.7589 2.0292-0.12877 2.8924 3.2477 2.6723 6.804m-2.763-7.6937c-2.2345 0.14605-4.0718 3.4611-4.1758 7.6228-0.0014 0.0667 7.05e-4 0.13159-3.53e-4 0.19791l-2.2617 0.71755c-3.53e-4 -0.30974-3.53e-4 -0.61948 0.01305-0.93733 0.27834-6.6319 3.7528-11.233 6.8266-11.275 3.4093-0.0469 5.1749 4.3346 5.5111 8.5411l-2.1392 0.59902c-0.25259-3.6421-1.7664-5.5887-3.7737-5.4656m31.806 24.738-1.367-2.5693c9e-3 -6e-3 0.0176-0.0102 0.0261-0.0159 4.741-2.9658 5.5982-5.9316 4.4034-7.6366-1.2612-1.8027-4.6055-1.4256-8.2409 0.64982l-1.2852-2.2373c5.9154-3.2099 11.734-3.9691 13.752-0.0744 1.6161 3.1196-1.9128 8.6681-7.2887 11.884m-1.8803-3.447c-3.3965 2.1251-7.197 3.1013-8.274 1.2816-0.70062-1.1836 1.2128-3.7592 4.3889-5.8568 2.9979-1.9794 6.9712-3.3517 8.1164-1.7166 0.96626 1.379-0.80539 4.1494-4.2312 6.2918m-12.295 3.9148c-1.7332-3.121 1.2929-8.4702 6.4865-11.579 0.15028-0.09 0.30056-0.1711 0.45085-0.25788l1.2002 2.316c-0.0963 0.0614-0.19192 0.11818-0.28822 0.18168-3.175 2.0976-5.7542 5.1294-4.5653 7.1381 1.2704 2.1477 4.881 1.7741 8.6547-0.32561l1.4362 2.5075c-6.7458 3.6925-12.012 2.4726-13.375 0.019m3.2992 33.067 7.2931-27.502c1.2696 0.67345 3.1114 1.6988 3.1477 1.8844 0.19332 0.98425-6.331 16.445-10.441 25.618m-21.555-38.071c1.9678-0.018 3.5267-1.1409 4.7166-2.8487 0.17074-0.15628 0.34466-0.29986 0.51964-0.43673 0.0554-0.043 0.11113-0.0822 0.16651-0.12348 0.12312-0.091 0.24695-0.1785 0.37148-0.26035 0.0628-0.0413 0.12559-0.0815 0.18873-0.12029 0.12559-0.0773 0.25224-0.14958 0.37924-0.21767 0.0564-0.0303 0.11254-0.0628 0.16933-0.0914 0.18062-0.0914 0.36231-0.17568 0.54504-0.24906 0.0183-7e-3 0.0371-0.0127 0.0557-0.0201 0.16581-0.0649 0.33232-0.12241 0.49918-0.17321 0.0614-0.0187 0.12277-0.0342 0.18415-0.0512 0.12665-0.0346 0.25365-0.066 0.38065-0.0924 0.066-0.0138 0.13159-0.0272 0.19756-0.0388 0.13158-0.0233 0.26352-0.0416 0.39475-0.0568 0.0554-6e-3 0.11042-0.0145 0.16581-0.0194 0.1845-0.0162 0.36865-0.0261 0.5521-0.0265 0.0191 0 0.0374 2e-3 0.0564 2e-3 0.17957 1e-3 0.35807 0.0113 0.53587 0.0275 0.0564 5e-3 0.11218 0.0116 0.16792 0.0183 0.15417 0.018 0.30692 0.0416 0.45897 0.0706 0.0437 8e-3 0.0882 0.0152 0.13158 0.0243 0.19121 0.0406 0.3803 0.0893 0.56727 0.1464 0.0367 0.0113 0.0727 0.0251 0.10936 0.037 0.15275 0.0494 0.30374 0.10443 0.45297 0.1651 0.0515 0.0208 0.10266 0.042 0.15346 0.0639 0.15804 0.0688 0.31397 0.14252 0.46778 0.22331 0.0226 0.012 0.0462 0.0222 0.0691 0.0346 0.17498 0.0942 0.34608 0.19755 0.514 0.30691 0.0416 0.0268 0.0819 0.0557 0.12277 0.0836 0.13053 0.0886 0.25858 0.18204 0.38417 0.2794 0.0423 0.0328 0.0847 0.0653 0.1263 0.0991 0.15839 0.12841 0.31326 0.26212 0.46249 0.40429 4e-3 4e-3 7e-3 7e-3 0.0106 0.0109 0.14429 0.13829 0.28293 0.28505 0.41769 0.43604 0.0378 0.042 0.0748 0.0857 0.11183 0.12876 0.10725 0.12559 0.21132 0.25506 0.31186 0.38841 0.03 0.0395 0.0607 0.0776 0.0896 0.11783 0.12418 0.17074 0.24307 0.34678 0.35525 0.52952 0.0205 0.0332 0.0392 0.0681 0.0589 0.10195 0.0914 0.1531 0.1778 0.31009 0.26035 0.4706 0.0289 0.0561 0.0571 0.11254 0.0847 0.16969 0.0804 0.16581 0.15628 0.33514 0.22719 0.50835 0.0141 0.0353 0.0303 0.0692 0.0441 0.10478 0.0815 0.20673 0.15487 0.4191 0.22189 0.63606 0.0169 0.0557 0.0321 0.11288 0.0483 0.16898 0.0487 0.17004 0.0931 0.34254 0.13265 0.51823 0.0148 0.0653 0.03 0.13052 0.0434 0.19685 0.0469 0.23036 0.0885 0.46355 0.11889 0.70273-0.10266 1.1903 0.0787 2.2761 0.56338 3.1485 0.12489 0.22543 0.27235 0.43709 0.43427 0.63923 0.0145 0.018 0.0268 0.0367 0.0413 0.0543 0.15734 0.1905 0.33302 0.36866 0.5214 0.53728 0.0265 0.0236 0.0512 0.048 0.078 0.0709 0.18732 0.16157 0.39052 0.31115 0.60536 0.4512 0.0353 0.0229 0.0706 0.0462 0.10654 0.0688 0.21731 0.13511 0.44732 0.25929 0.68933 0.37253 0.0406 0.019 0.0815 0.037 0.12241 0.0554 0.24801 0.11041 0.50624 0.21025 0.77682 0.29739 0.0402 0.0127 0.0815 0.0243 0.12241 0.0367 0.28011 0.0857 0.56974 0.16051 0.87207 0.22119 0.0307 6e-3 0.0628 0.0106 0.0938 0.0166 0.31856 0.0603 0.64594 0.10936 0.98566 0.14111 6e-3 7e-4 0.0131 7e-4 0.0194 1e-3 0.34043 0.031 0.69215 0.0462 1.052 0.0476 0.0201 3.5e-4 0.0384 3e-3 0.0582 3e-3 0.0116 0 0.0236-1e-3 0.0353-1e-3 0.22049-3.5e-4 0.44415-6e-3 0.67134-0.018 1.0336 0.49494 2.7062 1.3081 4.1952 2.075l-7.2933 27.502 2e-4 -3e-4c-1.4192 3.132-3.0685 6.6441-3.229 6.6946-0.0321 0.01-0.0759 0.0159-0.12524 0.0198-0.0145 1e-3 -0.031 2e-3 -0.0469 2e-3 -0.0384 2e-3 -0.0815 1e-3 -0.12806 0-0.024-7e-4 -0.0476-1e-3 -0.0734-3e-3 -0.054-3e-3 -0.11359-8e-3 -0.17638-0.0148-0.0226-2e-3 -0.0423-4e-3 -0.066-7e-3 -0.0889-0.0102-0.18557-0.0236-0.28999-0.0395-0.0243-4e-3 -0.0519-9e-3 -0.0765-0.013-0.084-0.0134-0.1711-0.0282-0.26353-0.0452-0.042-8e-3 -0.0864-0.0162-0.13017-0.0247-0.084-0.0159-0.17074-0.0328-0.26141-0.0515-0.048-0.01-0.0967-0.0198-0.1464-0.03-0.0981-0.0208-0.20038-0.043-0.30515-0.066-0.0459-0.0102-0.09-0.0198-0.13723-0.0303-0.15382-0.0346-0.31292-0.0713-0.47978-0.11078l-24.454-50.02c0.79622 0.28151 2.5335 0.90704 3.2451 1.2006 1.4316 2.9044 3.6375 4.4672 5.5884 4.4672m7.6722-12.342c0.0663-0.75812 0.0882-1.494 0.0825-2.2119 5.7062-0.54857 12.297 1.53 16.575 6.7606-0.0571 0.0339-0.1143 0.066-0.1711 0.0998-3.5814 2.1431-5.8572 5.0398-6.8358 7.7399-1.6817-4.9682-6.8019-7.5124-11.465-4.9403 1.0058-2.2327 1.5953-4.9336 1.815-7.4482m-31.55 35.388c2.5266-11.351 9.6929-28.766 12.279-29.373 0.3182-0.0744 1.4471 0.22472 2.7647 0.65935l24.454 50.018 9.7e-5 2e-3c-6.8174-1.7459-22.223-6.6596-31.562-10.043-1.143-6.404-4.2513-10.797-7.9357-11.263m1.6845 28.106c-1.9928 0.30162-4.0351-1.8595-5.4617-5.4402-0.75283-1.8895-1.3374-4.167-1.6464-6.7021-0.9204-7.5597 0.64699-13.756 3.7726-14.451 2.8106-0.62618 4.984 1.3797 6.4371 4.4722 0.96026 2.0444 1.6066 4.5628 1.9117 7.1131 0.9973 8.3386-0.9398 14.391-5.0133 15.008m-15.092-45.255c-0.121-0.60255-0.3369-0.74507-0.77893-0.32385-5.4233 5.1689-17.592 16.43-19.548 15.738-5.182-1.8327-16.269-43.975-15.12-51.2 0.03387-0.21097 0.0762-0.39653 0.13123-0.5461 3.6622-9.978 18.41-21.057 21.786-19.976 3.6883 1.1843 9.8654 43.775 10.077 45.776 0.0695 0.65758 0.36689 0.629 0.79587 0.32279 0.49177-0.35172 5.7252-4.3773 7.0168-4.0735 0.66957 0.15734 1.9265 3.2653 3.1866 9.4858 0.28222 1.3938 0.56409 2.9457 0.84032 4.6553-1.2457 4.1226-2.6487 9.216-3.7857 14.189-1.7787-4.2996-3.9042-10.564-4.6009-14.047m129.46-2.3954c-4.3462-2.1072-27.537 19.864-36.932 31.816-0.22013-6.4671-0.30056-9.1288-1.772-9.8446-0.29669-0.14464-1.0093-0.15558-1.9911-0.0624 6.9952-1.494 14.397-4.1942 15.951-7.9784 3.4029-8.2878-11.504-27.372-26.482-37.308 9.6217-18.267 24.067-32.085 21.175-35.219-4.1392-4.4842-36.079 9.4026-47.825 23.923-27.885-3.4844-45.662 2.571-47.222 6.8456-1.6051 4.3991 3.4692 17.017 6.2823 23.168-0.43533 1.185-1.0061 2.885-1.6425 4.9142-1.0693-6.308-2.4059-12.669-4.0474-13.385-1.4855-0.64805-4.142 1.318-7.5329 4.0047-0.82162-5.4564-5.5757-44.536-10.49-46.112-4.6359-1.4905-20.365 11.209-23.865 20.745-2.0987 5.7182 9.8044 51.289 16.288 53.722 2.6412 0.99095 15.112-10.887 19.714-15.551 0.92745 4.0986 3.2854 10.662 5.0998 14.712-1.4898 6.9215-2.3424 13.321-1.372 16.162 0.35066 1.0273 1.8524 2.2183 4.1614 3.4876 1.2859 6.4798 4.4312 11.207 8.274 10.695 2.3551-0.30938 4.2228-2.1788 5.359-5.1001 6.0565 2.0436 12.897 3.9853 19.26 5.51-4.3575 5.5753-6.0635 17.625-0.44803 19.184 5.0772 1.409 13.848-7.3843 14.524-16.437 3.6481 0.47908 6.3814 0.55104 7.6094 0.067 2.1421-0.84314 5.8953-6.7183 10.416-15.413 2.8868-0.66816 6.3412-1.5727 7.6031-2.0585 0.13088 5.1012 2.0521 24.984 7.5762 28.316 7.1882 4.3346 44.908-14.298 47.387-20.651 1.2834-3.2893-0.24165-39.822-5.0581-42.152"/>
 </g>
 <g>
  <path d="m112.7 10.872c0.17678-0.64082 2.7435-2.1331 9.104-4.5962 2.7508-1.0652-3.6208 3.1949-6.9468 5.1262-0.82247 0.47757-2.3929 0.32433-2.1572-0.53001z" fill="#ff9b89"/>
  <ellipse transform="matrix(.92278 .38532 -.35314 .93557 0 0)" cx="98.146" cy="24.879" rx="3.9778" ry="6.5578" fill="#ed8599" stop-color="#000000"/>
  <path d="m82.27 54.055c-0.66687 0.23281-1.2565 0.63478-1.7402 1.0625l-0.0039 2e-3 -2e-3 2e-3c-1.8356 1.6605-3.1075 3.9177-3.6152 6.2949v0.0059l-0.0019 0.0077c-0.33864 1.855-0.10756 4.0171 1.1074 5.6523 0.72786 0.99269 2.0687 1.5602 3.3066 1.0879 1.9622-0.76541 2.8607-1.9786 3.6777-3.3379l0.0039-0.0078 0.0059-0.0098c1.0172-1.8462 1.3537-3.9768 1.4277-6.0273v-0.0156c0.0073-1.3229-0.09319-2.8897-1.1172-4.0645l-0.0059-0.0078-0.0059-0.0059c-0.24318-0.26018-0.53994-0.47411-0.87697-0.61721-0.72978-0.30918-1.4933-0.2543-2.1602-0.02148zm1.7695 0.94141c0.19538 0.08296 0.37723 0.21422 0.5293 0.375 0.74131 0.85624 0.8735 2.1337 0.86719 3.3867-0.0704 1.9308-0.47981 3.8708-1.3965 5.5371-0.76366 1.2679-1.7566 2.4567-3.0664 2.9395l-0.0039 2e-3h-2e-3c-0.74578 0.2866-1.6601-0.08275-2.1465-0.74609l-2e-3 -2e-3c-0.98437-1.3235-1.1379-3.1706-0.83398-4.8418 0.46978-2.19 1.5584-4.2881 3.207-5.7812l2e-3 -2e-3c6.79e-4 -6.14e-4 0.0013-0.0013 2e-3 -2e-3 0.40999-0.36183 0.90785-0.68801 1.4043-0.86133 0.49807-0.17388 0.97441-0.20093 1.4395-0.0039z" color="#000000" fill="#0f141b" style="-inkscape-stroke:none"/>
 </g>
</svg>
