<?xml version="1.0" encoding="UTF-8"?>
<!-- Created with Inkscape (http://www.inkscape.org/) -->
<svg version="1.1" viewBox="0 0 88.349 85.158" xmlns="http://www.w3.org/2000/svg">
 <defs>
  <clipPath id="clipPath18414">
   <path d="m0 792h612v-792h-612z"/>
  </clipPath>
 </defs>
 <g transform="translate(-.76574 -1.4401)">
  <g transform="matrix(1.352 0 0 -1.352 -604.16 514.52)">
   <g clip-path="url(#clipPath18414)">
    <g transform="translate(451.01 346.64)">
     <path d="m0 0c-0.751-0.376-0.472-2.28 0.106-3.408-2.127-0.173-3.355-1.207-3.355-2.041 0-1.354 2.473-1.81 3.875-1.775-0.338-0.953-0.573-2.467 0.083-2.946 0.657-0.479 1.953-0.143 3.23 1.295l-0.892 6.344c-0.415 2.075-2.289 2.911-3.047 2.531" fill="#5c9ccf"/>
    </g>
    <g transform="translate(454.95 337.77)">
     <path d="m0 0-0.316 2.251-0.784 1.005c-3.186-0.323-5.118-0.241-6.064 0.367-0.014-0.066-0.024-0.133-0.024-0.197 0-1.354 2.473-1.81 3.875-1.775-0.339-0.953-0.574-2.467 0.083-2.946 0.656-0.479 1.952-0.142 3.23 1.295" fill="#5088b4"/>
    </g>
    <g transform="translate(506.68 366.22)">
     <path d="m0 0c0.871 1.312 1.62 3.608 0.894 4.263-0.592 0.534-2.323-0.268-3.426-1.407-0.175 0.5-0.778 2.155-1.766 2.115-0.871-0.035-1.66-1.673-1.602-3.333l5.273-5.134c1.404-0.032 3.486 0.544 3.507 1.614 0.02 0.996-1.208 1.498-2.88 1.882" fill="#5c9ccf"/>
    </g>
    <g transform="translate(506.68 366.22)">
     <path d="m0 0c0.871 1.312 1.62 3.608 0.894 4.263-1e-3 1e-3 -4e-3 2e-3 -5e-3 3e-3 -0.151-1.074-0.753-2.534-2.803-4.234-0.44-0.365-0.68-1.074-0.835-1.463l2.122-2.065c1.404-0.032 3.486 0.544 3.507 1.614 0.02 0.996-1.208 1.498-2.88 1.882" fill="#5088b4"/>
    </g>
    <g transform="translate(507.95 350.76)">
     <path d="m0 0c-0.687 0.298-1.429 0.501-2.203 0.581-0.195 1.532-0.88 3.628-1.408 4.546 2.216 2.645 2.89 7.959 0.704 10.459-2.147 2.456-5.91 2.654-9.429 0.636-1.593 1.542-4.864 3.76-7.331 4.428l-10.305 1.645c-5.415-0.141-12.116-3.956-15.946-8.932l-3.391-8.194c-0.232-1.414-0.401-5.929-0.19-7.553-3.207-0.738-5.912-3.48-5.335-7.363 0.624-4.2 5.282-6.35 8.9-6.519 0.903-2.326 4.583-7.046 7.193-8.55 0.822-2.488 2.572-6.234 3.731-7.302 3.657-3.369 10.41-1.206 11.215 1.444 0.24 0.792 0.589 2.24 0.824 3.371 6.195 1.075 15.099 5.964 17.902 11.134 3.046 0.402 7.61 2.962 8.268 3.979 2.166 3.349 2.003 9.938-3.199 12.19" fill="#fff"/>
    </g>
    <g transform="translate(502.88 334.59)">
     <path d="m0 0c3.046 0.402 7.61 2.962 8.268 3.979 1.137 1.757 1.631 4.408 1.092 6.856-1.036 3.617-5.019 4.543-7.795 3.162-2.657-1.322-3.794-4.912-2.222-8.056 0.165-0.33 0.233-0.639-0.078-0.911 0 0-0.924-0.655-1.217-0.889-0.403-0.322-0.755-0.705-0.972-0.996-11.287-15.095-30.994-10.437-36.543-2.143-0.681 1.019-1.152 1.359-2.246 1.525-3.639 0.554-6.567 1.891-8.052 3.895 0.624-4.2 5.283-6.35 8.901-6.519 0.902-2.326 4.583-7.047 7.192-8.55 0.822-2.488 2.572-6.234 3.732-7.302 3.656-3.369 10.409-1.206 11.214 1.444 0.24 0.792 0.59 2.24 0.825 3.371 6.194 1.075 15.098 5.964 17.901 11.134" fill="#dbdcdc"/>
    </g>
    <g transform="translate(476.51 358.09)">
     <path d="m0 0c1.229 0.74 3.416 1.164 4.785 0.874 0.277-0.06 0.501-0.141 0.686-0.233-0.307 0.291-0.595 0.621-0.857 0.991-0.729 1.031-1.172 2.847-0.959 4.177-0.058-0.011-0.118-0.023-0.176-0.033-1.344-0.227-2.017 0.292-2.408 1.036-0.383 0.726-0.71 1.448-0.981 2.22-2.532-0.655-5.68-2.303-7.715-4.129 0.617-0.9 1.132-1.801 1.444-2.469 0.353-0.753 0.141-1.604-0.357-2.113-0.013-0.013-0.028-0.027-0.042-0.041 1.373-0.551 2.766-2.554 3.111-4.618l0.05-0.032 0.061 0.033c0.013 0.08 0.029 0.164 0.053 0.256 0.243 0.942 1.332 2.892 3.305 4.081" fill="#5c9ccf"/>
    </g>
    <g transform="translate(479.19 364.78)">
     <path d="m0 0c-0.529-1.62-0.069-4.213 0.905-5.642 2.47-3.627 6.901-4.206 9.909-2.235 3.054 2 2.821 6.183 1.312 8.435-0.999 1.49-2.351 2.251-3.577 2.682z" fill="#0062a8"/>
    </g>
    <g transform="translate(461.84 354.54)">
     <path d="m0 0c-0.898-3.224 1.379-8.492 5.894-8.546 3.599-0.043 6.659 3.257 6.659 6.741 0 3.137-2.503 6.518-4.581 6.892z" fill="#0062a8"/>
    </g>
    <g transform="translate(480.28 364.38)">
     <path d="m0 0c-0.436-1.334 0.023-3.499 0.846-4.662 2.13-3.013 5.942-3.341 8.122-1.913 2.514 1.646 2.436 5.173 1.135 6.987-1.055 1.47-1.97 1.932-2.916 2.27" fill="#fff"/>
    </g>
    <g transform="translate(463.07 354.16)">
     <path d="m0 0c-0.622-2.23 0.617-6.816 4.695-6.865 2.948-0.035 5.361 2.663 5.361 5.516 0 2.57-1.905 5.38-3.607 5.686" fill="#fff"/>
    </g>
    <g transform="translate(484.76 363.77)">
     <path d="m0 0c0.565 0.297 1.368 0.109 1.825-0.444 0.597-0.722 0.426-1.493 0-1.787-0.398-0.276-1.366-0.372-2.01 0.435-0.394 0.493-0.464 1.456 0.185 1.796" fill="#00283b"/>
    </g>
    <g transform="translate(467.96 354.67)">
     <path d="m0 0c0.439 0 1.102-0.451 1.087-1.384-0.015-0.913-0.652-1.474-1.297-1.442-0.737 0.038-1.081 0.84-1.038 1.457 0.05 0.732 0.617 1.369 1.248 1.369" fill="#00283b"/>
    </g>
    <g transform="translate(477.93 355.5)">
     <path d="m0 0c1.25 0.688 2.814 1.294 3.736 1.512 1.172 0.277 1.462 1.558-0.373 1.948-1.369 0.29-3.556-0.134-4.785-0.874-1.974-1.19-3.062-3.139-3.306-4.081-0.284-1.102 0.199-1.41 1.04-1.088 1.105 0.422 2.109 1.713 3.688 2.583" fill="#fff"/>
    </g>
    <g transform="translate(477.58 364.9)">
     <path d="m0 0c0.391-0.743 1.064-1.263 2.409-1.035 2.256 0.381 5.542 1.604 7.286 2.709 0.976 0.619 1.657 1.341 1.824 2.721 0.267 2.214 0.341 5.782-0.352 8.524-0.3 1.189-1.661 1.615-2.926 1.394-1.93-0.339-5.852-1.473-7.405-2.608-0.667-0.487-0.816-0.801-0.816-1.593 0-0.358 0.02-0.676 0.04-0.916l0.325-0.488c-0.398-0.129-0.738-0.256-0.962-0.367-0.877-0.439-1.319-1.055-1.215-2.21 0.236-2.591 0.85-4.341 1.792-6.131" fill="#3bbeaa"/>
    </g>
    <g transform="translate(463.46 353.96)">
     <path d="m0 0c2.209 0.926 4.938 2.843 6.514 4.451 0.499 0.509 0.71 1.36 0.358 2.112-0.715 1.527-2.486 4.273-4.126 5.442-0.606 0.433-1.56 0.504-2.226 0.146-0.212-0.114-0.526-0.324-0.889-0.587l-0.248 0.604c-0.146 0.13-0.455 0.373-0.78 0.634-0.512 0.409-1.023 0.484-1.77 0.194-2.036-0.788-4.8-2.898-6.661-4.711-0.922-0.897-0.898-1.848-0.39-2.81 0.948-1.795 5.064-4.704 7.067-5.605 1.11-0.5 2.104-0.308 3.151 0.13" fill="#3bbeaa"/>
    </g>
    <g transform="translate(479.93 349.43)">
     <path d="m0 0c0.49 0.481 1.083 0.725 2.047 0.764 1.202 0.048 3.59-0.081 4.825-0.326 0.71-0.139 0.768-0.829 0.503-1.38-0.39-0.812-2.161-3.216-3.151-4.273-0.489-0.52-1.186-0.708-1.852-0.73-1.414-0.049-3.915 0.13-4.874 0.406-0.682 0.196-0.969 0.588-0.601 1.332 0.699 1.413 2.193 3.313 3.103 4.207" fill="#3bbeaa"/>
    </g>
    <g transform="translate(483.42 341.58)">
     <path d="m0 0c0.512 0.528 1.023 0.685 1.852 0.764 0.845 0.081 4.11-0.016 5.101-0.26 0.697-0.171 0.916-0.639 0.504-1.413-0.666-1.251-2.097-3.129-2.925-3.932-0.536-0.519-0.866-0.734-1.689-0.845-1.089-0.146-4.094 0.017-5.198 0.228-0.84 0.16-0.834 0.902-0.602 1.316 0.748 1.332 2.102 3.259 2.957 4.142" fill="#3bbeaa"/>
    </g>
    <g transform="translate(506.38 339.86)">
     <path d="m0 0c-2.829 0.839-4.332 5.008-3.638 5.68 0.568 0.549 2.538-0.569 3.034-0.87 0.143 0.994 1.41 3.594 2.397 3.39 1.029-0.214 1.1-2.556 0.94-4.26 0.728 0.124 2.645 0.302 2.858-0.781 0.344-1.749-3.496-3.78-5.591-3.159" fill="#3bbeaa"/>
    </g>
    <g transform="translate(485.82 379.21)">
     <path d="m0 0c-1.931-0.339-5.853-1.473-7.405-2.607-0.014-0.011-0.025-0.021-0.039-0.031-9e-3 -0.801 0.102-2.049 0.274-2.758-0.684-0.196-1.304-0.404-1.648-0.576-0.092-0.046-0.176-0.095-0.258-0.145 0.039-1.603 0.764-4.602 1.19-5.36 0.654-1.166 1.517-0.987 2.218 0.434 0.776 1.573 2.012 3.689 3.318 5.658 1.518 2.29 3.132 4.38 4.23 5.191-0.546 0.248-1.225 0.308-1.88 0.194" fill="#dcefeb"/>
    </g>
    <g transform="translate(468.33 361.95)">
     <path d="m0 0c-0.758 1.025-2.6 3.177-4.018 4.297-0.115-0.035-0.227-0.077-0.33-0.133-0.319-0.171-0.867-0.559-1.469-1.021-0.468 0.509-1.64 1.327-2.393 1.794-2.017-0.838-4.677-2.877-6.486-4.639-0.585-0.569-0.788-1.161-0.729-1.764 2.229 0.372 4.469 0.612 6.774 0.645 2.342 0.034 4.751-0.144 7.286-0.615 1.397-0.258 2.011 0.562 1.365 1.436" fill="#dcefeb"/>
    </g>
    <g transform="translate(481.71 347.65)">
     <path d="m0 0c-0.135 0.334-0.661 1.603-0.964 2.312-0.315-0.125-0.577-0.301-0.813-0.534-0.91-0.893-2.405-2.794-3.103-4.207-0.208-0.422-0.206-0.729-0.042-0.953 1.112 0.604 4.132 2.061 4.607 2.366 0.344 0.223 0.537 0.468 0.315 1.016" fill="#dcefeb"/>
    </g>
    <g transform="translate(485.16 340.1)">
     <path d="m0 0c-0.065 0.168-0.552 1.407-0.813 2.068-0.344-0.114-0.633-0.291-0.921-0.588-0.855-0.882-2.209-2.809-2.956-4.141-0.135-0.24-0.192-0.59-0.054-0.873 0.928 0.604 3.473 1.952 4.354 2.348 0.585 0.263 0.579 0.693 0.39 1.186" fill="#dcefeb"/>
    </g>
    <g transform="translate(504.49 355.59)">
     <path d="m0 0c-0.053 0.107-0.105 0.21-0.156 0.298 2.077 2.479 2.799 7.303 1.082 9.957 0.448-2.026-0.229-4.934-1.322-6.782-0.5-0.847-0.699-2.112-0.051-3.178 0.11-0.181 0.266-0.264 0.447-0.295" fill="#dbdcdc"/>
    </g>
    <g transform="translate(506.38 339.86)">
     <path d="m0 0c-2.829 0.839-4.332 5.008-3.638 5.68 0.568 0.549 2.538-0.569 3.034-0.87 0.143 0.994 1.41 3.594 2.397 3.39 1.029-0.214 1.1-2.556 0.94-4.26 0.728 0.124 2.645 0.302 2.858-0.781 0.344-1.749-3.496-3.78-5.591-3.159" fill="#5088b4"/>
    </g>
    <g transform="translate(488.75 377.82)">
     <path d="m0 0c-0.06 0.237-0.164 0.442-0.299 0.62 0.184-3.195 0.36-8.288-0.697-9.99-1.013-1.63-6.885-4.2-9.831-4.042 0.417-0.458 1.05-0.714 2.068-0.542 2.256 0.381 5.542 1.604 7.286 2.709 0.977 0.619 1.658 1.341 1.824 2.721 0.268 2.214 0.342 5.782-0.351 8.524" fill="#31a694"/>
    </g>
    <g transform="translate(470.39 359.09)">
     <path d="m0 0c-2.387-1.823-6.813-4.447-8.725-4.499-1.662-0.046-6.306 2.886-8.692 5.503 0.06-0.219 0.149-0.439 0.266-0.659 0.948-1.795 5.064-4.703 7.067-5.605 1.11-0.5 2.104-0.308 3.151 0.13 2.209 0.926 4.938 2.843 6.514 4.451 0.184 0.188 0.327 0.421 0.419 0.679" fill="#31a694"/>
    </g>
    <g transform="translate(487.3 348.49)">
     <path d="m0 0c0.125 0.26 0.176 0.548 0.124 0.797-1.341-0.613-4.398-2.068-4.678-2.178-0.477-0.187-0.541-0.678-0.401-0.991 0.131-0.292 0.678-1.563 1.05-2.408 0.278 0.114 0.537 0.277 0.754 0.508 0.99 1.056 2.761 3.46 3.151 4.272" fill="#31a694"/>
    </g>
    <g transform="translate(487.95 336.74)">
     <path d="m0 0c0.828 0.803 2.258 2.681 2.924 3.932 0.199 0.373 0.25 0.673 0.173 0.905-1.374-0.637-4.14-1.91-4.658-2.158-0.421-0.202-0.575-0.493-0.386-0.956 0.136-0.333 0.63-1.473 1.038-2.377 0.331 0.135 0.583 0.338 0.909 0.654" fill="#31a694"/>
    </g>
    <g transform="translate(508.06 347.4)">
     <path d="m0 0c0.264 0.06 0.575-0.037 0.951-0.564-0.156 0.494-0.469 1.15-0.837 1.226-0.987 0.204-2.254-2.396-2.396-3.391-0.497 0.302-2.467 1.42-3.035 0.871-0.363-0.352-0.123-1.661 0.591-2.949-0.212 0.992-0.323 1.999-0.021 2.292 0.255 0.247 1.582-0.245 2.336-0.753 0.301-0.204 0.506-0.207 0.575 0.113 0.276 1.305 1.353 3.047 1.836 3.155" fill="#5c9ccf"/>
    </g>
    <g transform="translate(509.15 343.77)">
     <path d="m0 0c0.572 0 2.78-0.536 2.548-1.85 0.59 0.742 0.84 2.378-2.548 1.85" fill="#5c9ccf"/>
    </g>
    <g transform="translate(488.97 377.9)">
     <path d="m0 0c-0.29 1.232-1.64 1.812-3.177 1.542-2.082-0.365-6.088-1.519-7.631-2.646-0.714-0.522-0.899-0.883-0.899-1.755 0-0.29 0.061-1.167 0.095-1.506l0.653 0.214c-0.027 0.262-0.084 0.996-0.084 1.245 0 0.735 0.13 0.989 0.733 1.429 1.545 1.129 5.414 2.26 7.208 2.575 1.366 0.238 2.477-0.345 2.673-1.285 0.547-2.631 0.54-5.747 0.244-8.354-0.158-1.39-0.844-2.025-1.693-2.563-1.737-1.101-4.898-2.312-7.138-2.69-1.054-0.179-1.754 0.15-2.172 0.944-1.046 1.989-1.494 3.687-1.704 5.999-0.09 0.993 0.232 1.529 1.106 1.966 0.828 0.413 3.359 1.117 4.326 1.264 1.096 0.166 1.747-0.183 1.967-1.008 0.172-0.645 0.503-2.434 0.622-3.466 0.082-0.715-0.084-1.163-0.557-1.502-0.509-0.363-1.126-0.707-1.423-0.85-0.604-0.293-0.576-0.431 0.076-0.273 0.379 0.092 1.194 0.347 1.748 0.742 0.777 0.557 0.784 1.337 0.722 1.876-0.121 1.05-0.585 2.923-0.759 3.578-0.279 1.043-1.145 1.503-2.446 1.317-1.071-0.153-3.709-0.754-4.583-1.19-1.021-0.511-1.493-1.246-1.388-2.401 0.215-2.37 0.804-4.265 1.877-6.303 0.576-1.092 1.452-1.358 2.661-1.154 2.283 0.386 5.715 1.558 7.49 2.682 0.944 0.597 1.674 1.306 1.876 2.845 0.329 2.496 0.282 5.731-0.423 8.728" fill="#0d141b"/>
    </g>
    <g transform="translate(488.11 367.04)">
     <path d="m0 0-0.399-0.297c4.002-1.613 4.245-6.872 1.378-8.75-3.462-2.266-9.496 0.878-8.685 5.888l-0.454-0.078c-0.265-2.025 0.382-3.68 1.486-4.873 0.821-0.209 1.17-0.607 1.172-0.993 2.046-1.346 4.818-1.558 6.748-0.294 3.19 2.088 2.895 7.595-1.246 9.397" fill="#0d141b"/>
    </g>
    <g transform="translate(470.57 360.61)">
     <path d="m0 0c-0.739 1.578-2.563 4.428-4.228 5.614-0.681 0.486-1.696 0.568-2.428 0.175-0.913-0.491-3.612-2.724-4.326-3.552-0.485-0.562-0.497-1.259-0.064-1.93 0.484-0.752 2.065-2.514 2.604-2.953 0.64-0.519 1.444-0.668 2.219-0.268 0.512 0.265 1.124 0.605 1.602 0.953 0.474 0.345 0.365 0.525-0.159 0.257-0.535-0.275-1.118-0.546-1.655-0.765-0.678-0.277-1.197-0.187-1.728 0.243-0.508 0.414-1.986 2.03-2.445 2.741-0.337 0.523-0.347 1.035 0.022 1.463 0.678 0.787 3.235 2.802 4.102 3.268 0.594 0.318 1.446 0.268 2-0.127 1.605-1.144 3.29-3.724 4.009-5.263 0.291-0.621 0.161-1.396-0.318-1.885-1.642-1.675-4.289-3.44-6.384-4.319-1.208-0.506-2.075-0.544-2.991-0.131-2.054 0.923-6.034 3.75-6.928 5.443-0.53 1.004-0.403 1.772 0.368 2.522 1.794 1.747 4.486 3.775 6.55 4.574 0.662 0.256 1.067 0.22 1.536-0.155 0 0 0.98-0.855 1.102-0.963l0.475 0.39c-0.128 0.112-1.282 1.094-1.282 1.094-0.583 0.466-1.172 0.533-1.969 0.224-2.117-0.819-4.986-3.046-6.809-4.823-0.894-0.869-1.07-1.951-0.46-3.105 1.006-1.905 5.318-4.931 7.232-5.792 0.95-0.427 1.969-0.436 3.312 0.128 2.139 0.896 4.971 2.895 6.645 4.603 0.604 0.616 0.762 1.556 0.396 2.339" fill="#0d141b"/>
    </g>
    <g transform="translate(467.79 347.09)">
     <path d="m0 0c-0.02 0 0.02 0 0 0" fill="#0d141b"/>
    </g>
    <g transform="translate(470.21 358.47)">
     <path d="m0 0-0.381-0.311c1.435-0.603 3.016-3.009 3.016-5.365 0-2.608-2.257-5.333-5.076-5.302-3.485 0.039-4.943 3.875-4.499 6.312l-0.551-0.188c-0.371-2.922 1.358-6.504 5.074-6.527 3.045-0.017 5.574 2.69 5.574 5.725 0 2.276-1.523 4.851-3.157 5.656" fill="#0d141b"/>
    </g>
    <g transform="translate(487.02 348.55)">
     <path d="m0 0c-0.376-0.784-2.092-3.133-3.042-4.146-0.483-0.514-1.188-0.643-1.695-0.661-1.364-0.047-3.739 0.118-4.671 0.386-0.641 0.186-0.728 0.521-0.471 1.039 0.65 1.318 2.014 3.17 2.953 4.092 0.469 0.461 1.018 0.663 1.894 0.699 1.198 0.048 3.468-0.086 4.675-0.324 0.491-0.097 0.592-0.595 0.357-1.085m-0.081 1.518c-1.245 0.246-3.791 0.428-5.022 0.378-0.982-0.04-1.624-0.282-2.169-0.817-0.969-0.951-2.523-2.951-3.22-4.362-0.365-0.738-0.2-1.348 0.725-1.615 1.23-0.355 4.095-0.439 5.105-0.405 0.843 0.03 1.518 0.25 1.979 0.741 0.999 1.065 2.848 3.58 3.248 4.415 0.377 0.784 0.186 1.501-0.646 1.665" fill="#0d141b"/>
    </g>
    <g transform="translate(490.58 340.72)">
     <path d="m0 0c-0.665-1.248-2.027-3.043-2.803-3.795-0.514-0.499-0.811-0.682-1.56-0.782-1.044-0.14-3.905 0.026-4.979 0.231-0.479 0.092-0.698 0.582-0.458 1.009 0.773 1.379 2.022 3.203 2.819 4.025 0.48 0.497 0.959 0.644 1.716 0.717 1.095 0.106 3.939-0.058 4.895-0.294 0.61-0.15 0.711-0.472 0.37-1.111m-0.095 1.58c-1.038 0.256-4.379 0.373-5.232 0.291-0.823-0.079-1.411-0.239-1.977-0.824-0.91-0.94-2.346-3.008-3.055-4.271-0.353-0.629-0.168-1.438 0.739-1.612 0.73-0.139 4.256-0.383 5.353-0.235 0.875 0.117 1.248 0.361 1.803 0.899 0.821 0.797 2.303 2.735 3.003 4.048 0.438 0.825 0.258 1.484-0.634 1.704" fill="#0d141b"/>
    </g>
    <g transform="translate(468.83 363.27)">
     <path d="m 0,0 0.268,-0.385 c 1.966,1.747 4.966,3.367 7.51,4.031 L 7.646,4.028 C 4.915,3.307 2.254,1.984 0,0" fill="#0d141b"/>
    </g>
    <g transform="translate(484.53 323.37)">
     <path d="m0 0c-0.233-1.105-0.438-2.411-0.669-3.169-0.727-2.395-7.237-4.512-10.702-1.319-1.093 1.008-2.733 4.578-3.595 7.183-0.015 0.047-0.048 0.086-0.091 0.112-2.491 1.435-6.223 6.132-7.153 8.529-0.057 0.145-0.058 0.123-0.179 0.129-3.792 0.177-8.206 2.341-8.783 6.225-0.586 3.95 2.352 6.359 5.258 7.028 0.16 0.037 0.177 0.088 0.16 0.239-0.192 1.698-0.184 4.532 0.102 6.171l-0.678 0.434c-0.27-1.871-0.262-4.543-0.11-6.286-3.496-0.886-5.777-3.863-5.214-7.652 0.601-4.053 4.96-6.598 8.881-6.828 1.017-2.464 4.453-6.89 6.964-8.379 0.771-2.302 2.808-6.275 4.039-7.409 3.911-3.603 10.809-1.362 11.705 1.638 0.272 0.913 0.704 2.367 0.939 3.508z" fill="#0d141b"/>
    </g>
    <g transform="translate(508.02 351.14)">
     <path d="m0 0c-2.589 1.084-5.812 0.784-8.572-1.941-0.412-0.408-0.253-0.588 0.188-0.213 2.82 2.397 5.873 2.562 8.194 1.536 4.928-2.179 5.058-8.656 2.964-11.776-0.931-1.387-4.117-3.07-7.889-3.758-0.197-0.036-0.269-0.101-0.366-0.269-2.928-5.023-12.745-10.794-19.799-11.293-0.928-0.065-0.928-0.364 0-0.383 6.785-0.135 17.301 5.651 20.323 11.145 4.088 0.781 7.287 2.694 8.331 4.089 2.082 2.782 2.463 10.421-3.374 12.863" fill="#0d141b"/>
    </g>
    <g transform="translate(506.44 340.11)">
     <path d="m0 0c-2.815 0.835-3.91 4.75-3.446 5.199 0.331 0.322 1.56-0.13 2.695-0.818 0.18-0.109 0.246-0.097 0.304 0.143 0.333 1.382 1.426 3.236 2.165 3.097 0.745-0.14 0.845-2.071 0.74-3.919-0.012-0.212 0.016-0.249 0.234-0.217 1.591 0.235 2.455-0.092 2.56-0.644 0.288-1.51-3.367-3.401-5.252-2.841m5.796 2.986c-0.193 0.941-1.319 1.161-2.878 0.961 0.158 1.281 0.178 4.055-1.102 4.32-1.032 0.213-2.278-1.938-2.636-3.34-0.862 0.498-2.511 1.329-3.106 0.752-0.823-0.798 0.844-5.27 3.814-6.15 2.206-0.653 6.323 1.443 5.908 3.457" fill="#0d141b"/>
    </g>
    <g transform="translate(451.88 336.72)">
     <path d="m0 0c-0.504 0.368-0.422 1.592-0.052 2.635 0.08 0.224 0.033 0.274-0.195 0.268-1.676-0.04-3.538 0.592-3.538 1.592 0 0.638 0.897 1.643 3.058 1.818 0.219 0.018 0.273 0.079 0.164 0.293-0.489 0.955-0.719 2.749-0.118 3.051 0.637 0.318 1.822-0.381 2.375-1.572l0.278 0.538c-0.631 1.114-2.017 2.072-2.956 1.603-0.898-0.45-0.681-2.276-0.144-3.518-2.043-0.248-3.311-1.301-3.311-2.22 0-1.319 1.927-1.96 3.903-2.001-0.284-0.936-0.528-2.435 0.202-2.968 0.85-0.621 2.414 0.083 3.397 1.102l-0.392 0.432c-1.15-1.199-2.146-1.437-2.671-1.053" fill="#0d141b"/>
    </g>
    <g transform="translate(505.24 366.51)">
     <path d="m0 0c-2.144 2.453-5.977 2.918-9.56 0.922-1.486 1.427-4.15 3.062-6.334 3.915l-0.024-0.568c2.186-0.883 4.723-2.678 6.153-4.062 0.086-0.083 0.128-0.095 0.241-0.03 3.503 2.01 7.09 1.849 9.162-0.521 1.801-2.06 1.598-7.165-0.84-10.103-0.078-0.094-0.081-0.125-0.021-0.23 0.557-0.968 1.11-2.695 1.342-4.362l0.802-6e-3c-0.192 1.475-0.895 3.394-1.428 4.394 2.258 2.742 2.754 8.081 0.507 10.651" fill="#0d141b"/>
    </g>
    <g transform="translate(509.86 364.33)">
     <path d="m0 0c0.022 1.142-1.366 1.676-2.854 2.016 0.803 1.238 1.628 3.61 0.793 4.363-0.668 0.602-2.394-0.112-3.558-1.255-0.636 1.641-1.359 2.023-1.863 2.002-0.878-0.035-1.72-1.436-1.837-2.994l0.53-0.05c0.109 1.406 0.721 2.477 1.326 2.501 0.551 0.023 1.113-0.609 1.566-1.908 0.072-0.209 0.193-0.212 0.335-0.073 1.154 1.127 2.632 1.758 3.097 1.338 0.582-0.525-0.036-2.514-0.878-3.944-0.129-0.22-0.048-0.269 0.123-0.309 1.669-0.374 2.642-0.916 2.63-1.676-0.01-0.664-1.422-1.297-2.877-1.365l0.044-0.5c2.009 0.077 3.404 0.926 3.423 1.854" fill="#0d141b"/>
    </g>
    <g transform="translate(476.75 373.24)">
     <path d="m0 0c-5.275-0.664-9.868-3.207-13.729-7.456l1.277 0.43c3.395 3.36 7.78 5.725 11.878 6.386z" fill="#0d141b"/>
    </g>
    <g transform="translate(486.47 361.71)">
     <path d="m0 0c-0.31-0.214-1.165-0.323-1.738 0.395-0.321 0.402-0.42 1.219 0.12 1.502 0.489 0.257 1.182 0.074 1.577-0.404 0.448-0.542 0.44-1.218 0.041-1.493m0.27 1.75c-0.515 0.622-1.445 0.812-2.06 0.488-0.851-0.446-0.728-1.512-0.263-2.094 0.603-0.756 1.707-0.852 2.282-0.456 0.54 0.374 0.679 1.291 0.041 2.062" fill="#0d141b"/>
    </g>
    <g transform="translate(467.96 354.49)">
     <path d="m0 0c-0.515 0-1.012-0.569-1.055-1.198-0.035-0.511 0.276-1.231 0.855-1.261 0.611-0.029 1.065 0.513 1.077 1.264 0.011 0.638-0.398 1.195-0.877 1.195m-0.226-2.814c-0.814 0.042-1.287 0.837-1.231 1.644 0.058 0.843 0.715 1.525 1.442 1.525 0.699 0 1.31-0.665 1.295-1.557-0.013-0.846-0.626-1.658-1.506-1.612" fill="#0d141b"/>
    </g>
    <g transform="translate(481.58 357.22)">
     <path d="m0 0c-1.106-0.263-2.348-0.74-3.746-1.54-1.619-0.926-2.598-2.145-3.638-2.542-0.728-0.278-0.987 0.022-0.773 0.851 0.24 0.925 1.3 2.79 3.19 3.928 1.344 0.81 3.475 1.091 4.616 0.849 1.609-0.342 1.27-1.328 0.351-1.546m-0.227 1.946c-1.378 0.293-3.654-0.124-4.948-0.904-2.008-1.209-3.163-3.205-3.428-4.231-0.335-1.292 0.308-1.709 1.307-1.328 1.208 0.462 1.997 1.663 3.754 2.631 1.3 0.716 2.527 1.215 3.693 1.49 1.446 0.342 1.657 1.91-0.378 2.342" fill="#0d141b"/>
    </g>
    <g transform="translate(475.08 356.93)">
     <path d="m0 0-0.282-0.306c0.388-0.612 0.993-1.837 1.23-2.45l0.401 0.332c-0.29 0.662-0.955 1.828-1.349 2.424" fill="#0d141b"/>
    </g>
    <g transform="translate(478.45 358.75)">
     <path d="m0 0-0.434-0.075c0.384-0.542 1.014-1.674 1.433-2.429l0.501 0.195c-0.352 0.63-1.09 1.719-1.5 2.309" fill="#0d141b"/>
    </g>
   </g>
  </g>
 </g>
</svg>
