<?xml version="1.0" encoding="UTF-8"?>
<!-- Created with Inkscape (http://www.inkscape.org/) -->
<svg version="1.1" viewBox="0 0 101.21 103.21" xmlns="http://www.w3.org/2000/svg">
 <g transform="translate(-1.3838 -1.2822)">
  <g transform="matrix(.36719 0 0 -.36719 64.064 5.0235)">
   <path d="m0 0c-1.991 0.875-5.992 2.578-6.992 2.872-0.247-1.886 0.107-8.964 0.117-9.774-2.432 0.867-13.333 4.865-14.051 4.856 1.225-5.009 5.78-18.409 5.875-18.856-3.673-0.404-16.422 0.701-18.216 0.679 1.883-7.51 12.95-25.499 14.965-28.971-3.497-0.131-11.209-0.313-11.566-0.406 3.357-3.279 12.87-11.24 13.143-11.596-1.781-1.096-6.136-4.467-6.67-4.832 1.805-0.801 6.076-1.765 8.178-2.057 0.239 3.455 0.549 6.963 0.946 10.515 1.175 10.514 7.889 34.846 14.271 57.57" fill="#fff"/>
  </g>
  <g transform="matrix(.36719 0 0 -.36719 58.36 41.755)">
   <path d="m0 0c0.196-10.166 0.662-21.083 1.542-31.642 0.222-2.655-11.042-11.121-14.17-15.182 4.067 0.039 9.501 0.766 13.169 1.344-1.013-2.091-3.02-5.334-3.521-6.542 5.596 1.336 15.937 4.212 17.41 4.971 0.138-2.752-0.454-6.358-0.54-8.053 5.261 2.708 13.695 5.774 16.325 7.076 0.648-1.051 1.96-4.529 2.401-6.005 3.257 2.155 8.927 6.033 9.349 6.144 4.688-2.484 11.604-5.367 14.049-6.184 0.403 1.698 0.33 7.838 0.324 8.367 5.086-0.363 10.501-1.675 12.624-2.18-3.568 6.31-8.66 9.048-8.411 12.922 0.323 5.033 6.83 16.738 13.975 27.539-35.389-14.102-51.182-12.747-74.526 7.425" fill="#fff"/>
  </g>
  <g transform="matrix(.36719 0 0 -.36719 91.885 36.276)">
   <path d="m0 0c-6.996-4.935-30.855-40.031-31.485-49.837-0.122-1.956 0.477-3.264 3.758-6.998 1.226-1.394 2.577-2.956 3.825-4.852-2.665 0.613-11.116 2.391-11.647 1.623-0.383-0.554-0.158-6.261-0.334-7.936-2.976 1.09-8.987 3.654-13.11 5.841-0.163 0.087-0.353 0.108-0.531 0.061-0.348-0.091-7.845-5.091-8.765-5.707-0.577 1.691-1.586 4.29-2.172 5.243-0.199 0.323-0.612 0.442-0.952 0.273-1.001-0.496-11.764-4.574-15.147-6.506 0.037 0.39 0.462 4.415 0.441 6.185-0.019 1.627-0.434 1.631-1.091 1.293-1.24-0.64-9.794-3.059-15.691-4.528 0.26 0.476 3.037 5.392 3.359 6.468 0.529 1.779-0.219 1.838-1.294 0.245-0.562-0.833-2.632-4.696-3.655-6.611-0.953-1.782-0.715-2.188 1.251-1.702 4.873 1.195 12.235 2.979 15.257 4.049-0.011-1.224-0.256-5.688-0.303-6.61s0.311-1.101 1.742-0.406c3.754 1.822 13.815 5.652 14.869 6.13 0.535-1.11 1.274-2.97 1.737-4.553 0.463-1.58 0.877-1.79 2.455-0.735 2.279 1.526 7.494 5.544 8.15 5.935 4.158-2.173 10.614-5.535 13.567-6.619 1.498-0.553 1.747-0.413 1.919 1.117 0.208 1.842-0.366 5.927-0.376 7.704 3.982-0.356 9.11-1.985 11.523-2.545 1.831-0.425 1.911 0.163 0.281 2.733-1.369 2.152-2.862 3.853-4.204 5.381-2.043 2.324-3.273 3.756-3.04 5.676 1.378 11.36 23.631 41.144 29.331 46.982 1.851 1.894 2.506 4.735 0.332 3.206" fill="#0f141b"/>
  </g>
  <g transform="matrix(.36719 0 0 -.36719 76.937 44.27)">
   <path d="m0 0c-1.096-1.547-3.967-4.032-5.391-4.83-1.293-0.727-0.206-1.229 1.087-0.504 1.541 0.864 4.037 2.76 5.246 4.466 0.984 1.383 0.04 2.255-0.942 0.868" fill="#0f141b"/>
  </g>
  <g transform="matrix(.36719 0 0 -.36719 65.787 42.061)">
   <path d="m0 0c0.166-1.344 1.521-4.548 2.107-5.764 0.655-1.361 1.815-1.506 1.203-0.126-0.457 1.032-1.865 5.02-2.005 6.16-0.222 1.799-1.525 1.532-1.305-0.27" fill="#0f141b"/>
  </g>
  <g transform="matrix(.36719 0 0 -.36719 53.78 104.01)">
   <path d="m0 0c1.239-0.177 5.886 2.123 6.251 3.202 0.352 1.042 1.162 4.496 1.387 5.408 0.5-0.817 2.933-1.059 4.196 0.412 1.14 1.331 5.195 15.049 5.46 15.919 0.621 2.032-4.518 4.935-4.518 4.935s-6.919-5.168-12.908-9.642c-4.57-3.414-8.599-6.423-8.599-6.423-0.665-1.879-2.603-5.044-2.299-6.369 0.381-1.657 2.211-6.104 4.457-6.089 0.416-0.869 0.832-1.554 1.169-1.681 1.131-0.429 3.745-0.143 5.404 0.328" fill="#5c9ccf"/>
  </g>
  <g transform="matrix(.36719 0 0 -.36719 42.29 94.539)">
   <path d="m0 0c-6.729 14.646 0.689 24.989 10.176 29.348 8.547 3.926 23.92 4.26 30.727-10.556 3.366-7.327 8.944-19.816-10.46-28.73-13.366-6.142-26.942 2.318-30.443 9.938" fill="#fff"/>
  </g>
  <g transform="matrix(.36719 0 0 -.36719 6.3723 38.66)">
   <path d="m0 0c-1.462 3.183 3.199 25.711 8.641 34.737 7.06 11.711 11.482 15.038 36.409 23.389-10.153-21.087-3.58-43.584 5.264-59.811-6.26-7.062-12.274-16.817-12.274-16.817z" fill="#5c9ccf"/>
  </g>
  <g transform="matrix(.36719 0 0 -.36719 30.806 63.29)">
   <path d="m0 0c-17.589-1.804-40.287 1.565-50.131 9.041-10.325 7.842-19.31 30.285-21.41 46.603-5.323 3.023-6.69 6.001-7.409 8.902-0.718 2.902 0.887 8.239 3.573 9.349-0.623 3.629 0.498 10.422 5.261 12.362 2.941 1.358 4.946 1.277 6.527 0.512-1.638-6.022-3.318-11.812-2.907-17.953 4.523 2.661 11.069 1.245 13.01-5.376 7.546 3.467 13.574 1.53 16.577-5.312 4.042 2.976 8.173 3.796 12.895 1.366 1.187 3.839 5.695 6.569 7.786 5.898 1.838-3.285 4.907-7.573 6.852-9.782-0.462-3.692-3.094-5.813-6.207-7.243s-6.7-0.758-6.7-0.758-0.907-3.732-0.66-6.767c0.533-2.33 13.956-12.357 27.201-14.91-2.793-8.221-3.823-18.33-4.258-25.932" fill="#fff"/>
  </g>
  <g transform="matrix(.36719 0 0 -.36719 21.124 29.289)">
   <path d="m0 0c-5.738 31.639 18.985 65.629 60.105 72.643 43.081 7.347 72.68-20.769 77.622-56.715 4.703-34.206-29.939-67.603-75.739-72.619-38.851-4.256-57.254 30.582-61.988 56.691" fill="#fff"/>
  </g>
  <g transform="matrix(.36719 0 0 -.36719 35.542 79.322)">
   <path d="m0 0c-31.559 52.399-0.798 99.982 29.429 113.88 21.043 9.678 75.96 7.621 99.585-46.994 0 0 3.715-9.255 5.182-14.761l-0.026 0.096c1.628 5.643 9.948-1.679 10.774-17.121 0.984-18.387-18.314-51.117-49.774-64.443-30.083-12.743-71.483-9.925-95.17 29.339" fill="#fff"/>
  </g>
  <g transform="matrix(.36719 0 0 -.36719 25.713 31.669)">
   <path d="M 0,0 C 0.616,4.012 2.695,10.188 2.695,10.188 5.718,8.469 9.868,5.279 11.097,4.477 10.26,1.481 9.168,-2.563 8.463,-5.312 6.428,-4.273 0,0 0,0" fill="#b2e1e7"/>
  </g>
  <g transform="matrix(.36719 0 0 -.36719 34.86 27.512)">
   <path d="m0 0c-1.698 3.695 5.095 15.145 7.277 16.147 2.183 1.003 13.418-4.588 14.57-7.229s-4.069-15.355-6.81-16.616c-1.979-0.911-14.023 5.491-15.037 7.698" fill="#fff"/>
  </g>
  <g transform="matrix(.36719 0 0 -.36719 51.528 22.003)">
   <path d="m0 0c-0.852 1.854 5.734 9.79 6.965 9.92 1.231 0.131 7.698-6.253 7.842-8.642 0.144-2.365-4.494-8.619-5.501-8.495-1.173 0.146-8.457 5.369-9.306 7.217" fill="#fff"/>
  </g>
  <g transform="matrix(.36719 0 0 -.36719 26.049 31.891)">
   <path d="M 0,0 C 0.437,0.201 9.592,4.313 10.006,4.453 9.169,1.458 8.252,-1.958 7.547,-4.706 5.512,-3.668 0,0 0,0" fill="#3bbeaa"/>
  </g>
  <g transform="matrix(.36719 0 0 -.36719 34.86 27.512)">
   <path d="M 0,0 C -1.698,3.695 5.095,15.145 7.277,16.147 6.703,13.646 5.388,7.186 5.153,5.786 3.557,4.043 1.062,1.225 0,0" fill="#b2e1e7"/>
  </g>
  <g transform="matrix(.36719 0 0 -.36719 34.86 27.512)">
   <path d="M 0,0 C 1.656,1.921 3.734,4.272 5.153,5.786 6.791,6.288 17.69,8.357 21.847,8.918 22.999,6.277 17.778,-6.437 15.037,-7.698 13.058,-8.609 1.014,-2.207 0,0" fill="#3bbeaa"/>
  </g>
  <g transform="matrix(.36719 0 0 -.36719 51.528 22.003)">
   <path d="M 0,0 C -0.852,1.854 5.734,9.79 6.965,9.92 7.48,9.136 9.514,4.978 9.491,3.853 7.701,3.234 1.307,0.38 0.146,-0.258 0.085,-0.166 0.037,-0.08 0,0" fill="#b2e1e7"/>
  </g>
  <g transform="matrix(.36719 0 0 -.36719 51.577 22.092)">
   <path d="m0 0c2.14 1.193 7.644 3.607 9.355 4.094 1.4-0.351 3.342-0.715 5.317-2.574 0.143-2.366-4.495-8.62-5.502-8.496-1.172 0.146-8.48 5.475-9.17 6.976" fill="#3bbeaa"/>
  </g>
  <g transform="matrix(.36719 0 0 -.36719 39.535 52.387)">
   <path d="m0 0c0.825 0.336 7.878 5.95 9.017 6.065 1.149 0.118 7.439-2.11 8.911-2.014 1.471 0.096 8.143 6.268 9.354 6.576 1.21 0.309 10.517-2.99 12.181-3.147 0.487-0.044 12.138 7.292 16.901 13.806 1.549 2.543 0.328 4.539-2.442 5.379-3.325 0.823-21.052 2.946-25.173 0.838-2.308-1.18-10.346-11.465-12.463-11.94-2.117-0.476-10.298 4.219-12.368 3.641-3.57-0.997-9.958-6.943-12.561-10.122-0.023-0.028-0.053-0.055-0.09-0.077-1.429-1.167-1.771-1.986-0.681-3.075 1.814-1.428 7.833-6.574 9.414-5.93" fill="#5c9ccf"/>
  </g>
  <g transform="matrix(.36719 0 0 -.36719 60.18 44.639)">
   <path d="m0 0c0.046 0.062 0.095 0.123 0.14 0.185 1.548 2.543 0.328 4.539-2.442 5.378-3.326 0.824-21.052 2.947-25.174 0.838-2.307-1.179-10.345-11.464-12.462-11.94s-10.298 4.22-12.368 3.642c-3.57-0.998-9.958-6.944-12.561-10.123-0.023-0.028-0.053-0.054-0.09-0.077-1.392-1.136-1.742-1.945-0.752-2.994 4.285-1.772 8.978-2.684 13.938-2.85 1.989 1.444 4 2.848 4.564 2.905 0.971 0.098 5.601-1.471 7.905-1.904 0.731 0.133 1.466 0.28 2.202 0.438 2.447 1.532 7.159 5.774 8.157 6.028 0.637 0.161 3.515-0.674 6.342-1.526 7.629 3.057 15.287 7.157 22.601 12" fill="#5088b4"/>
  </g>
  <g transform="matrix(.36719 0 0 -.36719 48.395 77.143)">
   <path d="m0 0c-0.735 1.6 8.346 11.957 10.926 13.1 2.579 1.142 18.093-2.902 18.068-3.836-0.026-0.936-9.02-11.586-11.074-12.53-2.053-0.944-17.185 1.666-17.92 3.266" fill="#fff"/>
  </g>
  <g transform="matrix(.36719 0 0 -.36719 48.395 77.143)">
   <path d="M 0,0 C -0.735,1.6 8.706,12.123 11.286,13.266 10.943,10.564 10.679,5.169 11.594,1.535 9.54,0.591 2.039,-0.003 0,0" fill="#b2e1e7"/>
  </g>
  <g transform="matrix(.36719 0 0 -.36719 48.395 77.143)">
   <path d="m0 0c3.416-0.14 10.802 0.993 13.381 2.136 2.58 1.142 12.541 4.716 15.613 7.128-0.026-0.936-9.02-11.586-11.074-12.53-2.053-0.944-17.185 1.666-17.92 3.266" fill="#3bbeaa"/>
  </g>
  <g transform="matrix(.36719 0 0 -.36719 52.422 83.714)">
   <path d="m0 0c-0.672 1.464 7.459 10.388 9.99 11.302s16.519-0.367 17.104-1.776c0.586-1.409-8.366-11.489-10.526-12.544-2.158-1.053-15.601 0.914-16.568 3.018" fill="#3bbeaa"/>
  </g>
  <g transform="matrix(.36719 0 0 -.36719 56.383 83.33)">
   <path d="M 0,0 C -0.672,1.465 -0.531,7.878 -0.258,10.393 2.408,11.011 13.303,10.022 15.83,8.862 11.539,5.965 4.548,1.976 0,0" fill="#b2e1e7"/>
  </g>
  <g transform="matrix(.36719 0 0 -.36719 39.42 51.868)">
   <path d="m0 0c3.231-0.087 7.1 3.692 8.612 8.568 1.215 3.92-0.12 7.16-2.411 8.918-1.191 0.399-1.415 0.457-1.968 0.304-2.15-0.602-5.321-2.999-8.073-5.505-3.262-5.724-0.44-12.17 3.84-12.285" fill="#0062a8"/>
  </g>
  <g transform="matrix(.36719 0 0 -.36719 49.936 44.397)">
   <path d="m0 0c-0.316-6.978 4.699-10.734 9.908-11.019 5.209-0.283 10.573 3.662 10.855 9.888 0.127 2.806-0.72 5.226-2.18 7.08-5.316 0.585-12.144 1.015-16.005 0.402-1.518-1.74-2.47-3.97-2.578-6.351" fill="#0062a8"/>
  </g>
  <g transform="matrix(.36719 0 0 -.36719 42.582 48.722)">
   <path d="m0 0c1.215 3.92-0.12 7.159-2.411 8.919-1.191 0.397-1.415 0.456-1.967 0.303-2.151-0.602-5.322-2.999-8.074-5.505-1.891-3.32-1.729-6.874-0.431-9.303 2.715-0.686 5.555-1.084 8.492-1.216 1.864 1.552 3.519 3.992 4.391 6.802" fill="#005493"/>
  </g>
  <g transform="matrix(.36719 0 0 -.36719 57.052 46.553)">
   <path d="m0 0c0.793 1.364 1.302 2.954 1.382 4.739 0.128 2.806-0.719 5.226-2.179 7.08-5.317 0.585-12.144 1.015-16.005 0.402-1.518-1.74-2.47-3.97-2.578-6.351-0.304-6.705 4.317-10.428 9.301-10.96 3.378 1.512 6.748 3.216 10.079 5.09" fill="#005493"/>
  </g>
  <g transform="matrix(.36719 0 0 -.36719 40.77 45.726)">
   <path d="m0 0c-3.376 0.48-5.871-3.781-6.711-6.089-0.869-2.386-0.904-7.553 2.166-8.368 4.603-1.222 6.99 3.813 7.852 6.591 1.214 3.914-0.413 7.455-3.307 7.866" fill="#dbdcdc"/>
  </g>
  <g transform="matrix(.36719 0 0 -.36719 50.761 44.442)">
   <path d="m0 0c-0.248-5.467 3.682-8.411 7.763-8.634 4.081-0.221 8.284 2.869 8.506 7.747 0.147 3.258-1.382 5.849-3.671 7.317-2.84 0.232-5.802 0.379-8.356 0.334-2.441-1.348-4.113-3.916-4.242-6.764" fill="#dbdcdc"/>
  </g>
  <g transform="matrix(.36719 0 0 -.36719 30.806 63.29)">
   <path d="m0 0c-17.589-1.804-40.287 1.565-50.131 9.041-6.352 4.825-12.197 15.177-16.244 26.228 8.393-13.844 13.745-19.116 20.542-22.672 14.166-7.41 37.438-5.285 46.399-5.373-0.26-2.55-0.439-4.995-0.566-7.224" fill="#dbdcdc"/>
  </g>
  <g transform="matrix(.36719 0 0 -.36719 17.253 41.946)">
   <path d="m0 0c4.042 2.976 8.172 3.796 12.895 1.366 1.187 3.839 5.695 6.569 7.786 5.898-7.981 14.482-9.502 21.143-10.958 35.837 0.707-3.132-2.056-12.072-4.533-12.795 1.053-1.545-0.532-6.187-2.766-9.744-2.771-4.411-8.957-6.245-9.395-8-0.556-2.228-1.1-3.87-6.478-6.099l2e-3 -8e-3c6.071 1.658 10.872-0.59 13.447-6.455" fill="#5088b4"/>
  </g>
  <g transform="matrix(.36719 0 0 -.36719 51.903 91.676)">
   <path d="m0 0c5.396-2.815 9.288-2.011 18.033-2.774-0.61-5.153-4.067-10.503-13.768-14.96-6.152-2.827-12.347-2.561-17.584-0.707 9.701-1.341 17.291 9.795 13.319 18.441" fill="#dbdcdc"/>
  </g>
  <g transform="matrix(.36719 0 0 -.36719 53.78 104.01)">
   <path d="m0 0c1.239-0.177 5.886 2.123 6.251 3.202 0.352 1.042 1.162 4.496 1.387 5.408 0.5-0.817 2.933-1.059 4.196 0.412 1.14 1.331 5.195 15.049 5.46 15.919 0.621 2.032-4.518 4.935-4.518 4.935s-1.991-17.114-6.368-19.162c-3.108-4.912-7.929-5.665-8.945-5.672-0.635-0.672-4.441-1.142-5.655-0.17-0.417-0.63-2.283 0.138-2.293 0.907 0.458-2.462 2.523-4.435 3.912-4.426 0.416-0.869 0.832-1.554 1.169-1.681 1.131-0.429 3.745-0.143 5.404 0.328" fill="#5088b4"/>
  </g>
  <g transform="matrix(.36719 0 0 -.36719 86.756 60.214)">
   <path d="m0 0c2.52-2.921 5.033-8.802 5.468-16.934 0.984-18.386-18.314-51.116-49.774-64.442-29.133-12.341-68.878-10.087-92.873 25.726 9.015-16.297 34.977-25.138 60.771-21.039 43.649 6.934 90.035 42.096 76.408 76.689" fill="#dbdcdc"/>
  </g>
  <g transform="matrix(.36719 0 0 -.36719 71.814 26.884)">
   <path d="m0 0c-33.69-35.87-98.072-54.74-121.13-44.771 5.384-6.54 12.075-11.985 20.22-15.309 1.964-0.466 3.995-0.743 4.365-0.292 2.603 3.179 8.99 9.125 12.56 10.122 2.071 0.578 10.251-4.117 12.368-3.642 2.118 0.476 10.156 10.761 12.463 11.941 2.389 1.222 17.116 1.275 24.219-0.807 1.931-0.566 12.568 3.112 17.239 7.833 0 0 1.819 1.338 3.982 2.976 8.014 9.573 12.95 20.57 13.718 31.949" fill="#dbdcdc"/>
  </g>
  <g transform="matrix(.36719 0 0 -.36719 60.232 44.571)">
   <path d="m0 0c5.958 3.767 16.507 11.363 19.167 16.926-2.126 1.167-2.851 1.074-2.851 1.074l-33.373-10.969c6.089-0.285 12.711-1.18 14.615-1.652 2.77-0.84 3.99-2.836 2.442-5.379" fill="#dbdcdc"/>
  </g>
  <g transform="matrix(.36719 0 0 -.36719 38.223 47.164)">
   <path d="m0 0-10.635-3.495-0.143-2.172c1.194-0.847 2.492-1.565 4.938-2.628-0.931 0.886-0.99 1.836 0.771 3.152 1.271 1.59 3.293 3.555 5.069 5.143" fill="#fff"/>
  </g>
  <g transform="matrix(.36719 0 0 -.36719 33.447 64.673)">
   <path d="M 0,0 C 6.946,-17.01 83.178,-4.73 92.71,12.471 86.508,-3.089 72.595,-12.698 46.082,-17.226 34.202,-19.254 18.419,-18.424 8.108,-11.3 2.18,-7.204 0,0 0,0" fill="#dbdcdc"/>
  </g>
  <g transform="matrix(.36719 0 0 -.36719 33.368 55.701)">
   <path d="m0 0c0.546-1.386 8.923-5.025 14.09-4.439 11.304 1.283 19.6 8.914 22.072 9.503 2.609 0.623 13.403-4.754 26.279-1.021 8.494 2.462 21.154 13.265 21.84 15.489-1.386-11.707-11.026-20.178-22.108-22.297-7.165-1.369-20.157 1.796-25.395 5.658-6.551-6.953-14.17-12.467-21.18-13.209-2.701-0.287-9.139 1.394-12.264 4.527-3.126 3.134-3.334 5.789-3.334 5.789" fill="#dbdcdc"/>
  </g>
  <g transform="matrix(.36719 0 0 -.36719 45.188 46.915)">
   <path d="m0 0c-3.097 0.396-9.839 4.15-11.305 3.692-3.24-1.01-9.012-5.923-11.83-9.421-0.656-0.814-0.924-0.927-1.936-0.933-0.47-4e-3 -1.082 0.145-1.477 0.242-2.191 0.539-2.459 1.159 0.059 1.033 0.891-0.045 1.726-0.093 2.003 0.019 2.41 2.927 8.229 8.225 12.008 9.979 0.918 0.426 1.308 0.454 1.973 0.32 3.176-0.642 9.743-4.19 11.255-3.653 1.794 0.638 8.826 8.966 11.379 11.096 0.458 0.382 1.312 0.943 2.026 1.055 6.402 1.001 16.343 0.69 23.589-1.027 0.223-0.052 0.969-0.109 2.287 0.103 1.928 0.31 2.359-0.089 0.281-0.894-0.914-0.353-2.252-0.628-2.91-0.423-5.387 1.678-17.557 2.235-23.277 1.103-0.142-0.028-0.605-0.207-0.735-0.292-2.068-1.35-8.535-9.232-11.517-11.509-0.768-0.585-1.044-0.596-1.873-0.49" fill="#0f141b"/>
  </g>
  <g transform="matrix(.36719 0 0 -.36719 54.106 104.15)">
   <path d="m0 0c-0.013-7e-3 -0.026-0.012-0.04-0.017-1.566-0.593-5.006-1.275-6.529-0.698-0.834 0.317-2.709 4.817-3.067 6.094-0.396 1.414 0.318 3.232 1.53 5.513 0.863 1.625 1.532 1.379 0.836-0.446-0.584-1.531-1.559-3.64-1.202-4.599 0.242-0.651 1.858-4.941 2.422-5.222 0.831-0.413 3.152-0.119 4.745 0.291 0.301 0.077 1.602-0.78 1.305-0.916" fill="#0f141b"/>
  </g>
  <g transform="matrix(.36719 0 0 -.36719 53.725 104.28)">
   <path d="m0 0c-1.127 0.372-3.298 6.212-3.646 7.343-0.333 1.081 0.221 2.734 1.411 5.12 0.938 1.882 1.59 1.75 0.916-0.252-0.46-1.37-1.323-3.873-1.153-4.491 0.196-0.712 2.202-6.382 3.151-6.394 1.291-0.016 4.821 2.068 5.127 2.829 0.277 0.818 1.49 5.379 1.531 5.541 0.085 0.339 0.975-0.29 0.89-0.628-0.04-0.161-0.937-4.459-1.232-5.333-0.522-1.546-5.777-4.135-6.995-3.735" fill="#0f141b"/>
  </g>
  <g transform="matrix(.36719 0 0 -.36719 16.257 37.66)">
   <path d="m0 0c-1.021 0.172-2.598 0.348-3.693 0.352-0.982 2e-3 -1.067 0.883-0.062 1.155 1.32 0.356 3.031-0.04 4.109-0.477 1.178-0.478 0.902-1.24-0.354-1.03" fill="#0f141b"/>
  </g>
  <g transform="matrix(.36719 0 0 -.36719 20.885 26.174)">
   <path d="m0 0c-0.602 0.679-4.374 1.811-8.946 2.704-1.37 0.268-1.193 1.523 0.308 1.226 2.054-0.407 6.398-1.186 8.577-2.189 0.562-0.259 0.25-1.954 0.061-1.741" fill="#0f141b"/>
  </g>
  <g transform="matrix(.36719 0 0 -.36719 21.253 21.647)">
   <path d="m0 0c-1.341 0.305-3.739 0.399-5.884 0.32-1.488-0.055-1.427 1.223 0.171 1.272 1.933 0.057 4.438 0.119 6.006-0.231 0.354-0.079-0.029-1.421-0.293-1.361" fill="#0f141b"/>
  </g>
  <g transform="matrix(.36719 0 0 -.36719 26.028 31.53)">
   <path d="m0 0c0.198-0.431 6.798-4.931 7.197-4.75 0.287 0.131 2.457 8.255 2.313 8.582-0.241 0.553-7.007 5.182-7.318 5.038-0.311-0.142-2.39-8.439-2.192-8.87m6.594-5.854c-2.008 1.148-5.664 3.541-7.15 4.52-0.841 0.555-0.963 0.93-0.768 1.966 0.581 3.086 1.767 6.921 2.299 8.573 0.391 1.215 0.814 1.376 1.777 0.797 2.034-1.223 6.717-4.6 6.987-4.792 0.891-0.637 1.193-0.968 0.911-1.981-0.755-2.723-1.622-5.939-2.24-8.319-0.355-1.363-0.798-1.347-1.816-0.764" fill="#0f141b"/>
  </g>
  <g transform="matrix(.36719 0 0 -.36719 37.63 21.795)">
   <path d="m0 0c-1.912-0.878-8.473-12.043-6.972-15.31 0.614-1.336 12.445-8.19 14.201-7.383 2.397 1.102 7.501 13.498 6.501 15.79-1.033 2.368-12.018 7.69-13.73 6.903m7.759-23.846c-2.568-1.179-14.467 4.957-15.871 8.013-1.695 3.689 4.176 15.421 7.583 16.985 2.276 1.046 14.135-4.635 15.409-7.554 1.298-2.978-4.025-16.02-7.121-17.444z" fill="#0f141b"/>
  </g>
  <g transform="matrix(.36719 0 0 -.36719 39.218 29.218)">
   <path d="m0 0c-1.446 0.871-3.812 3.159-4.775 4.736-1.112 1.823-0.576 2.281 0.822 0.712 0.905-1.016 3.212-3.469 4.626-4.6 1.106-0.885 0.577-1.601-0.673-0.848" fill="#0f141b"/>
  </g>
  <g transform="matrix(.36719 0 0 -.36719 56.735 21.546)">
   <path d="m0 0c-0.119 1.966-6.102 8.189-7.148 8.038s-6.929-8.007-6.463-9.021c0.68-1.481 8.16-7.097 8.761-7.009 0.581 0.086 4.96 6.174 4.85 7.992m-4.946-9.09c-1.699 0.101-8.846 5.496-9.804 7.583-0.987 2.149 5.726 11.032 7.463 10.811 2.404-0.306 8.422-7.273 8.541-9.238 0.132-2.172-4.11-9.279-6.2-9.156" fill="#0f141b"/>
  </g>
  <g transform="matrix(.36719 0 0 -.36719 54.12 21.16)">
   <path d="m0 0c-2.845-1.344-6.087-2.849-6.131-2.869-0.311-0.174-0.873 0.981-0.563 1.136 0.176 0.087 3.728 1.925 6.171 2.774 1.495 0.521 1.923-0.38 0.523-1.041" fill="#0f141b"/>
  </g>
  <g transform="matrix(.36719 0 0 -.36719 54.693 24.6)">
   <path d="M 0,0 C 0.094,0.667 0.585,5.089 0.848,6.573 1.22,8.685 2.095,8.556 2.022,6.658 1.998,6.021 1.379,0.715 1.284,0.044 1.253,-0.176 -0.049,-0.345 0,0" fill="#0f141b"/>
  </g>
  <g transform="matrix(.36719 0 0 -.36719 56.946 21.779)">
   <path d="m0 0s-1.596 1.312-2.169 1.687c-1.21 0.792-0.788 1.564 0.373 0.853 0.717-0.44 1.52-0.84 1.98-1.186 0 0 7e-3 -1.496-0.184-1.354" fill="#0f141b"/>
  </g>
  <g transform="matrix(.36719 0 0 -.36719 38.468 48.023)">
   <path d="m0 0c-1.446-4.462 0.311-7.582 2.423-7.821 2.725-0.309 5.391 2.054 6.719 6.342 1.203 3.882-0.407 7.187-3.059 7.433-1.626 0.151-4.507-1.629-6.083-5.954m2.228-8.855c-2.865 0.377-5.012 4.433-3.261 9.245 0.422 1.159 0.952 2.19 1.553 3.072 1.12 1.642 3.672 3.329 4.904 3.442 0.312 0.029 0.621 0.023 0.927-0.021 3.411-0.485 5.28-4.691 3.824-8.687-1.849-5.072-4.654-7.485-7.947-7.051" fill="#0f141b"/>
  </g>
  <g transform="matrix(.36719 0 0 -.36719 53.601 47.845)">
   <path d="m0 0c-4.22 0.23-8.637 3.238-8.362 9.3 0.136 3.003 1.679 5.457 3.881 6.912 1.505 0.267 7.505 0.24 9.819-0.049 2.469-1.648 4.086-4.471 3.936-7.778-0.229-5.055-4.74-8.631-9.274-8.385m-7.107 9.23c-0.235-5.192 3.548-7.769 7.164-7.966 3.609-0.197 7.638 2.48 7.849 7.149 0.195 4.309-2.885 7.734-7.164 7.967-3.757 0.203-7.65-2.733-7.849-7.15" fill="#0f141b"/>
  </g>
  <g transform="matrix(.36719 0 0 -.36719 44.059 48.338)">
   <path d="m0 0c0.023 0.464 0.333 0.925 0.769 0.899s0.687-0.479 0.606-1.001c-0.068-0.441-0.463-0.829-0.759-0.786-0.387 0.056-0.639 0.424-0.616 0.888" fill="#0f141b"/>
  </g>
  <g transform="matrix(.36719 0 0 -.36719 53.689 49.84)">
   <path d="m0 0c-2.348 0.52-8.633 2.54-10.578 2.99-0.445 0.104-0.496 0.16-0.91-0.095-1.601-0.988-5.916-5.384-8.33-6.187-0.591-0.196-0.86-0.225-1.399-0.172-1.844 0.179-6.303 1.555-7.781 1.886-0.245 0.056-0.642 8e-3 -0.805-0.09-1.354-0.805-5.871-4.236-7.861-5.577-0.693-0.468-1.492-0.348-2.003-0.122-1.795 0.793-4.733 2.946-6.1 4.048-1.648 1.328-1.133 1.871 0.585 0.675 1.364-0.948 4.342-3.222 5.836-3.752 0.243-0.087 0.616-0.133 0.994 0.155 1.327 1.01 6.036 4.692 8.017 5.733 0.542 0.285 0.765 0.296 1.369 0.186 1.887-0.345 6.694-1.589 8.005-1.9 0.249-0.059 0.399 0 0.628 0.126 1.415 0.777 6.181 4.782 8.186 6.035 0.506 0.318 1.027 0.416 1.62 0.33 2.569-0.376 9.068-2.513 10.932-2.965 0.407-0.1 0.538-0.069 0.958 0.195 5.985 3.762 9.364 6.32 14.626 11.595 1.402 1.405 2.025 1.038 0.769-0.568-3.463-4.426-9.112-8.727-14.437-11.989-0.969-0.593-1.42-0.736-2.321-0.537" fill="#0f141b"/>
  </g>
  <g transform="matrix(.36719 0 0 -.36719 60.753 54.473)">
   <path d="m0 0c12.313 10.021 10.222 21.282 1.318 27.223-1.875 1.251-1.776 2.148 0.527 0.884 10.159-5.573 13.263-18.474-1.252-28.808-1.81-1.288-2.326-0.709-0.593 0.701" fill="#0f141b"/>
  </g>
  <g transform="matrix(.36719 0 0 -.36719 58.128 56.499)">
   <path d="m0 0c-10.965-3.873-22.764-0.995-30.144 4.17-0.299 0.209-0.429 0.137-0.627-0.116-4.606-5.887-13.614-11.676-20.602-12.522-1.925-0.232-1.778 0.506-0.238 0.843 5.158 1.128 15.177 6.631 20.436 13.385 0.174 0.222 0.496 0.269 0.749 0.137 8.231-4.305 18.371-7.62 30.077-4.983 2.129 0.48 2.45-0.172 0.349-0.914" fill="#0f141b"/>
  </g>
  <g transform="matrix(.36719 0 0 -.36719 37.413 59.435)">
   <path d="m0 0c-6.039 1.576-10.15 4.066-12.094 10.676-1.275 4.336 2.632 12.553 6.517 14.339 1.516 0.696 2.132 0.376 0.433-0.758-1.783-1.19-6.64-8.616-5.424-13.153 1.386-5.175 6.022-8.997 10.803-10.122 2.214-0.52 1.709-1.49-0.235-0.982" fill="#0f141b"/>
  </g>
  <g transform="matrix(.36719 0 0 -.36719 42.395 71.313)">
   <path d="m0 0c-10.663 1.354-20.024 6.125-24.728 16.353-3.843 8.357-1.306 15.543 2.748 21.533 0.196 0.289 1.24-0.384 1.063-0.683-3.992-6.749-5.206-13.351-2.173-20.068 4.085-9.044 13.95-14.943 23.417-15.906 2.122-0.216 2.466-1.583-0.327-1.229" fill="#0f141b"/>
  </g>
  <g transform="matrix(.36719 0 0 -.36719 58.799 68.794)">
   <path d="m0 0c-2.116-0.745-2.368-0.122-0.39 0.844 10.888 5.314 20.464 12.493 23.305 24.067 2.748 11.193-4.697 22.467-8.867 23.687-0.334 0.097 7e-3 1.312 0.34 1.215 5.256-1.537 13.226-14.019 10.415-25.466-2.763-11.257-12.657-20.072-24.803-24.347" fill="#0f141b"/>
  </g>
  <g transform="matrix(.36719 0 0 -.36719 48.609 77.048)">
   <path d="m0 0c0.465-1.013 15.272-3.773 17.07-2.947l1e-3 1e-3c1.758 0.808 10.927 11.048 10.584 11.794s-14.95 4.349-17.057 3.416c-0.01-5e-3 -0.02-9e-3 -0.03-0.014-2.711-1.245-11.033-11.237-10.568-12.25m17.6-4.099c-2.669-1.226-15.483 1.626-17.651 2.698-1.54 0.76-1.55 1.187-0.816 2.684 1.635 3.334 8.484 11.006 10.92 12.125 0.01 5e-3 0.021 0.01 0.031 0.015 2.408 1.066 14.342-1.81 17.773-3.302 1.141-0.495 1.476-0.969 0.607-2.307-2.076-3.194-9.165-11.131-10.864-11.913" fill="#0f141b"/>
  </g>
  <g transform="matrix(.36719 0 0 -.36719 52.124 76.869)">
   <path d="m0 0c-2.385-0.779-6.68-1.457-9.473-1.412-0.263 5e-3 -0.982 1.327-0.636 1.297 3.075-0.267 7.369 0.496 9.841 0.992 1.834 0.368 2.076-0.287 0.268-0.877" fill="#0f141b"/>
  </g>
  <g transform="matrix(.36719 0 0 -.36719 52.663 83.684)">
   <path d="m0 0c0.599-1.303 13.867-3.342 15.614-2.54 7e-3 3e-3 0.012 6e-3 0.019 0.01 2.14 1.045 10.574 10.829 10.194 11.723-0.381 0.895-14.383 2.115-16.278 1.43-2.511-0.891-10.067-9.497-9.549-10.623m16.156-3.686c-2.132-0.979-13.599 0.525-16.564 2.483-1.012 0.669-1.186 1.198-0.711 2.204 1.336 2.825 7.873 9.959 10.234 10.813 2.59 0.935 13.574-0.064 16.814-1.311 1.321-0.509 1.399-0.918 0.897-2.108-1.479-3.506-9.153-11.339-10.638-12.066-0.01-5e-3 -0.021-0.01-0.032-0.015" fill="#0f141b"/>
  </g>
  <g transform="matrix(.36719 0 0 -.36719 56.126 83.495)">
   <path d="m0 0c-1.955-0.443-7.829-1.415-10.134-1.228-0.346 0.029-0.257 1.291 0.091 1.262 2.408-0.196 7.986 0.432 10.012 0.816 1.414 0.268 1.438-0.531 0.031-0.85" fill="#0f141b"/>
  </g>
  <g transform="matrix(.36719 0 0 -.36719 47.14 47.743)">
   <path d="M 0,0 C -0.314,0.479 -0.187,0.954 0.086,1.138 0.42,1.361 0.913,1.283 1.24,0.756 1.559,0.241 1.454,-0.18 1.121,-0.388 0.789,-0.597 0.336,-0.512 0,0" fill="#0f141b"/>
  </g>
  <g transform="matrix(.36719 0 0 -.36719 6.1903 38.265)">
   <path d="m0 0c-1.682 3.66 2.977 25.683 8.23 34.396 6.949 11.526 11.539 14.685 37.113 23.252 0.328 0.111-0.303-1.439-0.652-1.556-24.399-8.229-28.25-11.539-35.017-22.764-5.648-9.37-9.802-30.046-8.534-32.805 0.146-0.318-0.994-0.841-1.14-0.523" fill="#0f141b"/>
  </g>
  <g transform="matrix(.36719 0 0 -.36719 30.682 63.529)">
   <path d="m0 0c-21.685-1.369-41.838 1.748-51.082 8.769-11.041 8.385-18.579 31.203-20.703 47.133-8.702 4.351-10.84 14.143-3.772 18.943-2.005 9.247 3.389 15.822 12.573 13.144 0.334-0.097-0.211-1.26-0.536-1.139-5.708 2.13-12.392-3.511-10.901-12.203 0.05-0.291-0.154-0.516-0.376-0.687-4.044-3.105-5.848-11.578 3.899-17.116 0.174-0.099 0.292-0.275 0.317-0.474 2.074-16.112 11.073-38.511 21.163-46.174 8.79-6.675 27.206-10.009 49.315-8.934 0.135 7e-3 0.228-1.254 0.103-1.262" fill="#0f141b"/>
  </g>
  <g transform="matrix(.36719 0 0 -.36719 21.506 41.475)">
   <path d="m0 0c-3.513 1.464-6.82 1.047-10.332-1.199-1.251-0.801-1.594-0.667-2.331 0.565-3.153 5.275-7.863 7.2-14.551 4.387-1.143-0.481-1.402-0.183-1.816 0.781-2.356 5.484-8.017 7.267-12.62 3.79-1.238-0.935-1.893-0.124-0.63 0.891 5.643 4.535 12.065 2.487 14.5-4.325 8.426 3.569 13.127 1.536 16.447-5.221 4.801 3.26 7.091 3.676 12.292 1.286 1.234 2.974 4.122 5.586 6.658 5.688 0.622 0.025 0.912-1.184 0.688-1.191-1.743-0.05-4.694-1.947-5.996-4.578-0.628-1.267-0.959-1.436-2.309-0.874" fill="#0f141b"/>
  </g>
  <g transform="matrix(.36719 0 0 -.36719 32.099 53.95)">
   <path d="m0 0c-12.814 2.697-27.124 12.131-27.77 14.95-0.247 1.044 1.152 6.543 1.355 7.378 0.078 0.323 0.394 0.526 0.719 0.467 5.16-0.908 11.041 2.189 12.048 6.729 0.04 0.18 1.191-0.504 1.032-1.007-1.926-6.067-6.21-7.776-12.699-7.051-0.231-1.121-0.698-3.748-0.529-5.96 0.576-1.915 13.307-11.645 26.257-14.302 0.146-0.03-0.205-1.248-0.413-1.204" fill="#0f141b"/>
  </g>
  <g transform="matrix(.36719 0 0 -.36719 64.582 40.044)">
   <path d="m0 0c-1.31-1.019-0.835-1.849 0.587-0.884 2.186 1.482 4.139 3.046 5.94 4.928 18.54-7.909 32.571-21.981 41.699-41.848 3.022-6.578 5.14-13.196 7.017-19.336 0.711-2.327 1.585-2.009 0.988 0.412-0.159 0.646-0.326 1.293-0.499 1.943 0 4e-3 1e-3 7e-3 1e-3 0.011 0.307 0.936 0.817 1.368 1.517 1.282 2.527-0.314 7.355-6.732 7.98-18.402 0.925-17.285-18.005-48.335-49.526-62.815-29.176-13.404-76.99-10.586-99.384 37.8-14.285 30.867-7.185 55.703 1.574 71.394 0.592 1.062 0.286 1.566-0.719 2.166-23.318 13.914-31.005 33.981-34.656 52.864-5.816 30.077 19.015 65.279 59.343 71.793 38.746 6.257 71.097-18.343 76.298-56.175 2.437-17.722-4.755-34.695-18.16-45.133m19.996 45.299c-5.78 42.033-40.316 64.329-78.527 57.81-36.785-6.274-67.598-37.94-61.004-74.312 3.986-21.974 14.02-41.961 36.477-53.436-8.97-15.936-17.296-41.358-2.797-72.919 23.2-50.499 70.056-52.368 102.24-38.733 29.871 12.633 51.526 43.752 50.424 64.33-0.649 12.134-6.025 19.303-9.42 19.724-0.853 0.106-1.583-0.18-2.131-0.803l-3e-3 -8e-3c-1.476 5.159-2.919 10.789-5.366 16.116-8.989 19.567-20.694 32.795-42.279 42.163 9.523 10.548 14.36 25.68 12.382 40.068" fill="#0f141b"/>
  </g>
  <g transform="matrix(.36719 0 0 -.36719 53.566 98.4)">
   <path d="m0 0c-12.667-5.819-26.942-0.328-31.712 10.054-4.445 9.674-2.046 16.913 0.384 21.114 0.175 0.302 1.262-0.343 1.087-0.645-3.27-5.654-3.069-12.405 0.269-19.669 4.097-8.919 17.84-15.032 29.443-9.702 8.243 3.787 12.748 8.864 13.389 15.088 0.036 0.346 1.285 0.206 1.249-0.14-0.474-4.606-3.307-11.137-14.109-16.1" fill="#0f141b"/>
  </g>
  <g transform="matrix(.36719 0 0 -.36719 56.683 101.25)">
   <path d="m0 0c-2.631 1.84-3.332 4.899-2.952 7.717 0.309 2.3 1.125 2.34 1.148 0.01 0.033-3.239 0.253-4.721 2.336-6.407 0.649-0.525 2.487-0.375 2.919 0.588 1.866 4.155 3.904 11 5.216 15.29 0.176 0.573 0.115 1.093-0.306 1.588-0.844 0.993-2.478 2.264-3.795 3.009-0.303 0.172 0.119 1.178 0.429 1.02 1.626-0.824 3.239-2.081 4.517-3.503 0.55-0.612 0.688-1.403 0.477-2.091-0.876-3.711-3.902-13.126-5.584-16.145-0.663-1.189-3.337-1.822-4.405-1.076" fill="#0f141b"/>
  </g>
  <g transform="matrix(.36719 0 0 -.36719 51.483 103.74)">
   <path d="m0 0c-2.868-0.404-5.054 4.621-5.488 6.515-0.357 1.549 1.753 4.984 2.487 6.449 0.156 0.31 1.071 0.275 0.955-0.053-0.246-0.694-2.34-5.101-2.117-6.074 0.369-1.606 2.264-5.688 3.523-5.654 0.178 4e-3 0.702-1.174 0.64-1.183" fill="#0f141b"/>
  </g>
  <g transform="matrix(.36719 0 0 -.36719 34.788 27.239)">
   <path d="m0 0c0.864 1.009 4.512 4.898 4.759 5.345 0.246 0.447 0.72 3.977 1.339 6.249 0.543 1.996 1.341 1.657 1.073-0.145-0.328-2.198-0.855-4.442-1.079-5.75-0.136-0.794-0.237-1.028-0.846-1.676-1.641-1.744-4.469-4.834-4.694-5.028-0.279-0.24-0.711 0.818-0.552 1.005" fill="#0f141b"/>
  </g>
  <g transform="matrix(.36719 0 0 -.36719 19.871 40.178)">
   <path d="m0 0c-2.625-1.206-10.515 3.329-12.243 7.491-0.134 0.322 1.024 0.803 1.159 0.48 1.198-2.885 8.778-7.635 10.555-6.819 2.336 1.076 9.114 8.294 8.815 10.693-0.209 1.67-4.079 8.17-6.749 10.958-1.259 1.314-4.575 2.608-6.776 3.191-1.636 0.434-1.402 1.672 0.261 1.236 2.351-0.615 5.921-1.993 7.415-3.551 1.526-1.595 3.265-3.935 4.74-6.476 0.586-1.784 2.366-5.91 2.275-6.306-0.96-4.146-6.215-9.407-9.451-10.896 0-1e-3 -1e-3 -1e-3 -1e-3 -1e-3" fill="#0f141b"/>
  </g>
  <g transform="matrix(.36719 0 0 -.36719 70.389 76.412)">
   <path d="M 0,0 C 2.45,12.342 16.066,25.881 30.132,22.558 42.31,19.682 50.068,3.842 45.491,-9.476 40.367,-24.386 24.108,-34.447 13.922,-31.737 3.728,-29.025 -3.366,-16.959 0,0" fill="#fff"/>
  </g>
  <g transform="matrix(.36719 0 0 -.36719 86.997 73.569)">
   <path d="m0 0c1.922-5.396 2.215-11.536 0.262-17.218-5.124-14.91-21.383-24.971-31.569-22.261-4.888 1.3-9.063 4.75-11.714 9.86 8.475-2.861 32.486 3.642 43.021 29.619" fill="#dbdcdc"/>
  </g>
  <g transform="matrix(.36719 0 0 -.36719 74.937 81.146)">
   <path d="m0 0c-0.996 2.56 2.68 5.461 3.761 5.605 1.081 0.145 4.567-1.904 5.863-3.297 0.19 3.154-0.151 9.917 0.627 11.434 0.778 1.519 5.092 4.08 7.509 2.207 0.583-0.526 2.107-4.585 2.107-4.585 1.087 2.194 1.888 3.847 2.543 4.277 2.11 1.383 6.416 0.752 7.018-2.702 0.226-2.63-1.069-4.717-1.176-4.932 0.567 1.175 2.092 3.419 3.386 3.959 1.462 0.609 4.479-1.009 5.044-2.862 0.565-1.854-0.039-3.518-1.672-5.138 2.48 2.089 5.712 0.416 5.037-3.883-0.469-2.992-11.21-12.525-14.284-14.933-4.588-3.592-13.884-6.476-19.456 3.436-2.965 5.273-5.666 9.766-6.307 11.414" fill="#5c9ccf"/>
  </g>
  <g transform="matrix(.36719 0 0 -.36719 93.327 6.654)">
   <path d="m0 0c-3.078 3.061-21.532 14.139-24.559 12.774-1.401 0.498-4.389 1.896-6.153 0.961-1.781-0.941-15.766-11.638-14.833-14.272 0.458-1.295 2.023-3.827 2.914-5.059-2.076-0.247-8.173-9.625-7.789-13.128-3.066-1.815-11.423-12.03-6.818-20.314 2.143-3.856 9.406-6.829 10.063-7.187 0.656-0.358 2.871 0.573 3.636 1.011 2.339-1.44 4.221-5.536 5.083-7.413l47.794 35.864c-0.863 3.356-7.414 14.85-9.338 16.763" fill="#5c9ccf"/>
  </g>
  <g transform="matrix(.36719 0 0 -.36719 73.298 50.585)">
   <path d="m0 0c-3.333 7.253-0.745 11.824 1.687 15.195 4.009 5.559 20.917 11.754 26.648 18.209 3.457 3.894 1.733 11.571 1.428 12.59-7.126-2.693-14.782 5.061-10.495 12.499-6.062 6.415-3.252 15.06 5.315 16.614-3.36 9.189 3.311 16.522 11.967 14.449 0.456 8.638 9.897 14.491 18.285 8.162 4.74 8.383 15.132 7.738 16.838-5.41 5.008-0.912 13.249-11.245 0.874-18.537 2.066-15.334 6.366-46.634-9.78-62.345-12.567-12.228-55.756-26.687-62.767-11.426" fill="#fff"/>
  </g>
  <g transform="matrix(.36719 0 0 -.36719 94.236 44.38)">
   <path d="m0 0c10.577 11.016 16.193 51.932 16.526 49.031 1.894-16.503 2.951-41.141-10.781-54.504-10.542-10.258-42.64-22.088-56.844-16.62 12.442 2.916 41.051 11.629 51.099 22.093" fill="#dbdcdc"/>
  </g>
  <g transform="matrix(.36719 0 0 -.36719 89.371 81.694)">
   <path d="m0 0c-2.339-2.92-7.371-8.813-13.547-13.356-4.693-3.454-13.884-6.477-19.456 3.435-1.169 1.925-5.404 9.527-5.666 9.953-0.501 0.81 2.195 3.906 3.498 4.13 1.187 0.205 5.179-3.244 6.439-2.565 1.731 0.931 0.988 10.548 1.563 11.425 0.764 1.166 3.37 2.835 4.477 1.853 0.456-0.405 2.33-4.054 3.154-4.076 1.332-0.036 3.136 3.965 3.611 4.251 1.286 0.775 4.006 0.195 4.208-0.863 0.095-0.502-1.371-5.257-0.166-5.805 1.492-0.679 3.868 2.663 4.672 2.896 0.861 0.249 2.738-1.361 2.909-2.074 0.184-0.767-1.905-3.847-1.477-4.566 0.891-1.5 5.487 0.82 5.93 0.303 0.652-0.757 0.972-3.4-0.149-4.941" fill="#5088b4"/>
  </g>
  <g transform="matrix(.36719 0 0 -.36719 72.31 20.988)">
   <path d="m0 0c0.878-0.35 4.854 1.272 6.155 2.552 0.883-1.777 2.497-3.968 3.512-5.002s4.033-3.726 4.033-3.726-2.923-1.186-3.388-1.128c-0.466 0.06-4.284 2.057-6.281 3.322-1.998 1.264-4.031 3.982-4.031 3.982" fill="#5088b4"/>
  </g>
  <g transform="matrix(.36719 0 0 -.36719 76.814 7.3084)">
   <path d="m0 0c2.214 3.335 11.215 11.25 14.164 12.918 1.811 1.024 3.548 1.605 5.18 1.743-2.195-1.781-7.131-7.186-7.131-7.186s-2.161 7e-3 -2.889-0.463c-0.728-0.472-3.404-3.065-4.803-5.89-1.4-2.826-2.179-4.935-2.179-4.935z" fill="#5088b4"/>
  </g>
  <g transform="matrix(.36719 0 0 -.36719 93.893 7.3256)">
   <path d="m 0,0 c 0.77,-1.283 3.26,-11.597 2.778,-15.638 1.634,0.75 3.705,1.43 4.832,1.129 C 6.646,-11.724 4.8,-7.707 3.646,-5.781 2.491,-3.856 0,0 0,0" fill="#5088b4"/>
  </g>
  <g transform="matrix(.36719 0 0 -.36719 74.482 19.756)">
   <path d="m0 0c2.723 0.871 12.156-3.71 15.38-11.847-1.167-1.222-2.513-5.099-2.513-5.099s-2.054 4.561-3.173 5.921c-1.118 1.358-3.758 2.685-5.943 5.217-2.185 2.533-3.751 5.808-3.751 5.808" fill="#5088b4"/>
  </g>
  <g transform="matrix(.36719 0 0 -.36719 69.898 78.228)">
   <path d="M 0,0 C 0,5.352 1.469,9.766 4.4,14.219 5.856,16.43 6.666,15.724 5.429,13.471 2.76,8.608 1.979,4.915 1.205,-0.296 0.799,-3.021 0,-3.005 0,0" fill="#0f141b"/>
  </g>
  <g transform="matrix(.36719 0 0 -.36719 75.151 81.062)">
   <path d="m0 0c0.433-1.111 5.382-9.755 6.269-11.332 4.084-7.266 11.973-8.256 18.523-3.243 4.132 3.164 13.616 12.035 14.051 14.536 0.517 2.972-1.025 4.884-3.531 3.634-1.685-0.84-2.058-0.421-0.861 1.096 1.081 1.371 1.472 2.607 1.046 4.004-0.463 1.524-3.104 2.914-4.199 2.459-0.918-0.363-1.89-2.128-2.804-3.161-0.75-0.848-1.329-0.485-1.126 0.572 0.34 1.766 0.932 3.153 0.851 4.1-0.482 2.729-4.112 3.484-6.047 2.219-0.425-0.28-1.547-2.599-2.037-3.479-0.76-1.363-1.077-1.247-1.625-0.023-0.755 1.688-1.47 3.586-1.756 3.875-1.577 1.218-5.031-0.205-6.528-2.034-0.894-1.093-0.432-9.977-0.572-11.007-0.156-1.144-0.242-1.191-1.071-0.565-2.004 1.514-4.571 3.201-5.318 3.101-1.504-0.203-3.889-3.148-3.265-4.752m5.177-11.949c-0.885 1.575-5.879 10.295-6.345 11.496-0.805 2.066 1.509 6.096 4.258 6.459 1.138 0.152 3.712-1.268 5.372-2.568-0.016 2.221-0.298 8.625 0.646 10.372 1.539 2.847 6.036 4.284 8.448 2.413 0.486-0.436 1.238-2.144 1.795-3.529 0.852 1.698 1.48 2.826 2.129 3.251 2.543 1.673 7.327 0.637 7.983-3.127 0.037-0.419 0.047-0.907 0-1.452 0.434 0.423 0.887 0.772 1.347 0.958 2.826 1.177 7.844-2.623 5.553-7.069 2.026 0.177 4.346-1.514 3.721-5.502-0.56-3.566-12.876-14.046-14.517-15.33-7.72-6.045-15.51-5.053-20.39 3.628" fill="#0f141b"/>
  </g>
  <g transform="matrix(.36719 0 0 -.36719 80.023 87.735)">
   <path d="m0 0c-4.426-1.931-9.132-2.637-12.548-1.727-7.208 1.916-12.46 7.71-14.125 16.374-0.489 2.543 0.424 2.717 1.161 0.289 2.515-8.29 6.717-13.127 13.463-14.922 2.989-0.796 6.475-0.773 10.329 0.641 0.216 0.079 2.02-0.517 1.72-0.655" fill="#0f141b"/>
  </g>
  <g transform="matrix(.36719 0 0 -.36719 87.351 76.918)">
   <path d="m0 0c0 11.112-7.024 20.885-16.199 23.319-5.848 1.551-13.981-0.957-19.005-5.382-1.877-1.652-2.765-0.734-0.783 0.998 5.461 4.769 13.462 7.785 20.224 6.051 10.848-2.778 17.019-13.307 17.02-24.997-1e-3 -0.254-1.257-0.339-1.257 0.011" fill="#0f141b"/>
  </g>
  <g transform="matrix(.36719 0 0 -.36719 75.89 52.877)">
   <path d="m0 0c-1.829 0.535-1.419 1.721 0.408 1.195 13.502-3.887 43.77 6.612 54.711 17.258 17.152 16.691 10.839 53.379 9.747 61.481-0.034 0.252 0.078 0.511 0.302 0.627 9.728 4.967 6.499 15.613-0.659 17.365-0.268 0.066-0.481 0.27-0.517 0.546-1.585 12.21-11.082 13.285-15.669 5.17-0.213-0.374-0.568-0.454-0.92-0.188-7.571 5.712-16.81 1.274-17.285-7.696-0.015-0.306-0.4-0.664-0.767-0.576-8.03 1.923-14.504-4.688-11.237-13.619 0.158-0.432-0.076-0.765-0.472-0.836-7.214-1.313-10.959-9.231-4.979-15.558 0.192-0.205 0.23-0.513 0.09-0.755-3.484-6.046 2.234-13.386 8.684-11.901 1.54 0.353 1.853 0.277 2.169-1.56 0.463-2.691 1.03-8.475-1.753-11.965-4.806-6.024-21.686-11.952-26.716-17.927-2.346-2.788-3.948-6.324-2.819-11.14 0.428-1.824-0.46-2.042-1.038-0.244-1.683 5.228 0.233 9.047 2.623 12.215 4.189 5.553 20.12 11.419 26.469 17.978 2.859 2.955 2.43 9.196 1.895 11.552-7.898-2.293-14.611 4.918-10.827 13.224-6.234 7.313-3.016 15.658 5.261 17.178-3.067 9.885 2.613 16.166 12.222 14.739 1.133 10.322 10.303 14.065 18.662 8.309 5.305 8.429 15.537 8.063 17.591-5.805 8.444-3.456 11.184-13.557 0.99-19.385 5.022-28.605 2.774-50.456-9.862-62.752-11.191-10.892-41.345-21.306-56.304-16.93" fill="#0f141b"/>
  </g>
  <g transform="matrix(.36719 0 0 -.36719 82.946 8.8779)">
   <path d="m0 0c1.513-0.502 1.319-1.411-0.254-1.15-4.273 0.708-12.042 1.887-14.469 0.824-7e-3 -3e-3 -0.015-6e-3 -0.022-9e-3 -2.233-1.026-7.21-10.546-6.805-12.173 0.076-0.301-1.134-0.638-1.218-0.299-0.627 2.517 4.327 12.173 7.611 13.721 2.025 0.953 12.593-0.063 15.157-0.914" fill="#0f141b"/>
  </g>
  <g transform="matrix(.36719 0 0 -.36719 86.446 5.2289)">
   <path d="m0 0c-8.06 1.173-15.137 1.718-16.645 0.8-2.258-1.375-6.359-8.073-6.579-10.249-0.035-0.347-1.285-0.209-1.25 0.138 0.314 3.116 3.986 9.255 7.173 11.195 2.738 1.662 14.828 0.049 17.495-0.84 1.819-0.606 1.424-1.28-0.194-1.044" fill="#0f141b"/>
  </g>
  <g transform="matrix(.36719 0 0 -.36719 96.451 12.607)">
   <path d="m0 0c-1.413 3.921-7.261 14.087-8.946 15.763-3.236 3.218-20.558 13.071-23.482 12.724-1.987-0.235-7.028-4.031-8.247-6.387-0.092-0.179-1.511-0.486-1.415-0.15 0.841 2.957 5.847 7.36 9.505 7.794 3.669 0.436 21.948-9.924 24.935-12.892 1.998-1.988 8.185-13.736 9.089-17.248 0.078-0.301-1.344 0.131-1.439 0.396" fill="#0f141b"/>
  </g>
  <g transform="matrix(.36719 0 0 -.36719 77.439 8.7764)">
   <path d="m0 0c-0.916 1.307-2.401 3.722-2.866 5.035-1.273 3.598 11.804 13.281 15.129 15.042 1.769 0.94 6.002-0.303 6.892-1.359 0.104-0.124-1.046-0.612-1.309-0.512-1.389 0.533-3.695 1.434-4.992 0.749-2.84-1.503-15.048-11.683-14.537-13.504 0.385-1.373 2.262-4.174 3.048-5.195 0.214-0.277-1.225-0.456-1.365-0.256" fill="#0f141b"/>
  </g>
  <g transform="matrix(.36719 0 0 -.36719 79.078 26.503)">
   <path d="m0 0c-0.863 1.879-1.828 4.671-3.379 6.744-0.413 0.553-1.11 1.106-1.993 1.807-2.054 1.629-5.298 4.007-7.479 9.143-0.729 1.718 0.081 2.167 0.924 0.519 2.453-4.804 5.247-7.021 7.327-8.672 0.954-0.757 1.709-1.355 2.222-2.04 1.367-1.827 2.157-3.36 2.881-4.905 0.14-0.3-0.357-2.914-0.503-2.596" fill="#0f141b"/>
  </g>
  <g transform="matrix(.36719 0 0 -.36719 75.896 23.832)">
   <path d="m0 0c-2.193 0.989-8.589 3.76-10.479 7.38-1.935 3.703-1.54 7.935-0.657 10.359 1.488 4.087 6.195 10.603 8.369 11.054 2.31 0.479 8.685-0.264 11.007-1.356 1.762-0.829 1.495-1.534-0.243-1.099-2.744 0.685-8.523 1.626-10.5 1.216-1.32-0.274-5.763-5.918-7.347-10.274-0.176-0.483-1.569-4.811 0.639-9.246 1.526-3.065 8.626-6.579 9.802-6.922 0.341-0.098 1.725 0.351 2.675 0.82 0.127 0.062 1.281-0.744 0.98-0.915-9e-3 -6e-3 -3.144-1.513-4.246-1.017" fill="#0f141b"/>
  </g>
  <g transform="matrix(.36719 0 0 -.36719 38.97 48.108)">
   <path d="m0 0c0.666 2.296 2.437 4.248 4.006 4.023 1.547-0.221 2.557-2.639 1.525-5.476-0.633-1.736-2.069-4.25-4.02-3.917-1.198 0.204-2.227 2.902-1.511 5.37" fill="#00283b"/>
  </g>
  <g transform="matrix(.36719 0 0 -.36719 52.061 44.513)">
   <path d="m0 0c0.2 3.005 2.466 4.588 4.812 4.565 2.803-0.027 4.859-2.599 4.841-5.09-0.019-2.596-2.544-4.69-5.278-4.54-2.581 0.14-4.551 2.416-4.375 5.065" fill="#00283b"/>
  </g>
  <g transform="matrix(.36719 0 0 -.36719 39.104 48.146)">
   <path d="m0 0c-0.667-2.301 0.23-4.469 1.244-4.643 1.132-0.193 2.728 1.166 3.552 3.433 1.01 2.772 0.119 4.517-1.24 4.712-0.984 0.14-2.84-1.033-3.556-3.502m1.044-5.89c-1.928 0.513-2.775 3.554-2.014 6.176 0.82 2.83 2.946 4.719 4.692 4.469 1.904-0.273 3.298-2.845 2.032-6.325-1.237-3.396-3.447-4.656-4.71-4.32" fill="#0f141b"/>
  </g>
  <g transform="matrix(.36719 0 0 -.36719 52.25 44.515)">
   <path d="m0 0c-0.144-2.181 1.552-4.3 3.889-4.428 2.459-0.134 4.728 1.68 4.743 3.872 0.022 2.884-2.509 4.478-4.336 4.494-1.974 0.02-4.142-1.606-4.296-3.938m3.832-5.691c-2.881 0.156-5.3 2.737-5.102 5.727 0.233 3.512 3.573 5.189 5.568 5.168 2.91-0.028 5.492-2.662 5.468-5.734-0.02-2.819-2.483-5.35-5.934-5.161" fill="#0f141b"/>
  </g>
  <g transform="matrix(.36719 0 0 -.36719 37.239 51.335)">
   <path d="m0 0c-1.008 0.774-4.303 2.719-4.327 4.261-0.014 0.934 0.765 1.691 1.61 2.37 0.222 0.182 0.996-0.595 0.799-0.806-0.815-0.872-1.064-1.235-1.083-1.609-0.045-0.891 2.852-2.913 3.558-3.456 0.231-0.178-0.397-0.883-0.557-0.76" fill="#0f141b"/>
  </g>
  <g transform="matrix(.36719 0 0 -.36719 58.652 46.544)">
   <path d="m0 0c-0.164-0.137 0.935 2.594 1.139 2.798 3.08 3.088 3.556 4.224 3.04 5.388-0.43 0.971-1.392 1.818-2.996 2.198-0.535 0.127 0.087 1.101 0.839 0.874 1.662-0.503 2.811-1.403 3.272-2.608 0.938-2.458-1.811-5.735-5.294-8.65" fill="#0f141b"/>
  </g>
  <g transform="matrix(.36719 0 0 -.36719 52.332 75.608)">
   <path d="m0 0c-0.264 2.288-0.424 6.858-0.425 8.4 0 0.33 1.255 0.866 1.257 0.516 0 0-0.01-5.91 0.096-8.645 0.072-1.816-0.725-2.022-0.928-0.271" fill="#0f141b"/>
  </g>
  <g transform="matrix(.36719 0 0 -.36719 53.906 76.303)">
   <path d="m0 0c-2.011-0.694-2.28 0.125-0.304 0.906 4.298 1.698 11.877 5.256 13.943 6.603 0.29 0.191 0.21-1.361-0.105-1.536-1.387-0.775-10.063-4.776-13.534-5.973" fill="#0f141b"/>
  </g>
  <g transform="matrix(.36719 0 0 -.36719 56.086 82.358)">
   <path d="m0 0c-0.199 1.937-0.522 5.548-0.521 7.125 0 0.211 1.07 0.744 1.056 0.454-0.048-0.963 0.123-5.226 0.267-7.455 0.128-1.978-0.601-2.088-0.802-0.124" fill="#0f141b"/>
  </g>
  <g transform="matrix(.36719 0 0 -.36719 57.405 82.71)">
   <path d="m0 0c3.27 1.618 11.565 6.265 13.259 7.249 0.257 0.143 0.33-1.03 0.205-1.101-2.269-1.287-9.982-5.304-13.134-6.866-1.564-0.774-1.985-0.1-0.33 0.718" fill="#0f141b"/>
  </g>
  <g transform="matrix(.36719 0 0 -.36719 42.907 24.469)">
   <path d="m0 0c-2.721-0.274-7.731-0.998-11.634-1.654-2.334-0.393-2.51 0.4-0.184 0.938 3.191 0.738 8.209 1.596 11.334 1.939 0.118 0.013 0.554-1.215 0.484-1.223" fill="#0f141b"/>
  </g>
  <g transform="matrix(.36719 0 0 -.36719 29.634 30.336)">
   <path d="m0 0c-0.831-0.332-4.479-1.736-6.286-2.43-2.057-0.789-2.372 0.059-0.344 0.934 1.816 0.783 5.419 2.336 6.413 2.773 0.137 0.061 0.444-1.186 0.217-1.277" fill="#0f141b"/>
  </g>
  <g transform="matrix(.36719 0 0 -.36719 54.595 19.765)">
   <path d="m0 0c-0.61 1.255-1.464 2.826-1.904 3.466-0.199 0.288 1.303 0.281 1.467-0.02 0.497-0.913 1.114-2.248 1.467-3.172 0.667-1.746-0.207-1.965-1.03-0.274" fill="#0f141b"/>
  </g>
 </g>
</svg>
