<?xml version="1.0" encoding="UTF-8"?>
<!-- Created with Inkscape (http://www.inkscape.org/) -->
<svg version="1.1" viewBox="0 0 97.501 105.49" xmlns="http://www.w3.org/2000/svg">
 <defs>
  <clipPath id="clipPath18630">
   <path d="m0 792h612v-792h-612z"/>
  </clipPath>
 </defs>
 <g transform="translate(-.79309 -.81233)">
  <g transform="matrix(1.7653 0 0 -1.7653 -183.04 521.4)">
   <g clip-path="url(#clipPath18630)">
    <g transform="translate(130.18 294.7)">
     <path d="m0 0c-10.567 0-15.858-7.337-15.858-15.448 0-7.361 5.366-12.34 16.18-12.34 3 0 8.373 0.809 9.961 1.901 3.473 2.39 4.665 6.76 4.665 10.725 0 9.864-7.842 15.162-14.948 15.162" fill="#fff"/>
    </g>
    <g transform="translate(119.97 241.69)">
     <path d="m0 0c1.876-0.997 1.587-2.627 1.477-2.796-0.232-0.357-1.29-0.398-1.477-0.098z" fill="#5088b4"/>
    </g>
    <g transform="translate(144.09 241.87)">
     <path d="m0 0c-0.981 0.038-1.768 0.104-2.216 0.144-0.281 0.088-0.54 0.211-0.733 0.401-0.852-0.669-2.974-1.091-4.9-0.267-0.471-0.791-0.693-1.616-0.348-1.767 0.716-0.315 2.851-1.367 3.5-1.441 0.65-0.073 1.065 0.025 1.162 0.171 0.035 0.052 0.034 0.191-2e-3 0.367 0.562-0.244 1.479-0.403 2.314-0.061 0.09 0.036 0.147 0.102 0.177 0.187 0.326-0.052 1.156-0.062 1.393 0.166 0.096 0.093 0.06 0.335-0.043 0.617 0.275-0.027 0.483 0 0.482 0.145-3e-3 0.383-0.322 1.32-0.786 1.338" fill="#5c9ccf"/>
    </g>
    <g transform="translate(158.19 244.02)">
     <path d="m0 0c-0.057-0.856-0.351-2.573-0.545-2.824-0.513-0.664-3.658-2.738-4.858-2.738-0.488 0-1.399 0-2.026 0.018-0.147-0.098-2.759 0.22-2.93 0.293s-1.074 1.489-1.001 1.763c0.03 0.113 0.195 0.374 0.406 0.676-0.257 0.043-1.057 0.186-1.275 0.344-0.236 0.171-0.693 1.709-0.693 2.124s0.488 1.05 0.693 1.581z" fill="#5c9ccf"/>
    </g>
    <g transform="translate(112.59 257.06)">
     <path d="m0 0c0 7.965 4.84 16.623 16.535 16.21 11.711-0.415 15.363-8.821 14.96-16.338-0.316-5.898-4.218-14.52-15.09-14.52-6.637 0-16.405 3.714-16.405 14.648" fill="#fff"/>
    </g>
    <g transform="translate(134.74 243.36)">
     <path d="m0 0s0.812-1.414 3.106-1.603c2.562-0.21 4.834 0.604 5.86 3.29 0.801 2.097 0.056 4.345-1.35 5.563-1.875-3.522-3.657-5.288-7.616-7.25" fill="#fff"/>
    </g>
    <g transform="translate(143.07 263.23)">
     <path d="m0 0c3.196-0.781 11.203-3.857 14.035-12.206 1.758 0 2.832-2.246 1.563-3.76 0.952-1.489-0.074-4.419-2.442-3.369-0.927-1.748-3.332-1.55-4.15-0.732-1.257-1.306-3.271-0.782-3.613 1.025-1.221-0.537-3.271 0.586-2.441 2.686-1.037 0.988-0.781 3.271 1.269 3.271 0.293 1.245-0.439 5.018-3.203 7.372-0.195 2.418-0.288 4.088-1.018 5.713" fill="#fff"/>
    </g>
    <g transform="translate(138.98 268.38)">
     <path d="m0 0c-0.037 0.023-0.075 0.048-0.116 0.071-0.556 0.229-2.339 1.529-2.903 1.529-0.619 0-3.418-1.954-4.167-1.954s-3.646 2.047-4.753 2.047c-1.134 0-3.025-1.081-4.053-1.513-1.38-1.016-1.235-1.301 0.289-2.148 0.996-0.906 2.547-1.844 2.919-1.844 0.268 0 2.905 1.636 3.246 1.636 0.367 0 2.417-1.343 2.637-1.367 0.141-0.016 1.582 1.465 2.026 1.465 0.22 0 2.466-0.83 2.71-0.83 0.235 0 1.915 1.34 2.352 1.809 0.404 0.452 0.334 0.761-0.187 1.099" fill="#5c9ccf"/>
    </g>
    <g transform="translate(138.98 268.38)">
     <path d="m0 0c-0.037 0.023-0.075 0.048-0.116 0.071-0.556 0.229-2.339 1.529-2.903 1.529-0.619 0-3.418-1.954-4.167-1.954s-3.646 2.047-4.753 2.047c-1.134 0-3.025-1.081-4.053-1.513-0.814-0.599-1.093-0.945-0.876-1.301 1.889-0.672 4.276-1.123 6.718-1.311 0.299 0.154 0.527 0.256 0.612 0.256 0.119 0 0.415-0.141 0.767-0.333 1.089-0.038 2.171-0.023 3.209 0.049 0.283 0.218 0.54 0.382 0.687 0.382 0.077 0 0.4-0.102 0.798-0.233 1.652 0.218 3.122 0.604 4.227 1.174 0.013 0.013 0.027 0.027 0.037 0.038 0.404 0.452 0.334 0.761-0.187 1.099" fill="#5088b4"/>
    </g>
    <g transform="translate(126.51 265.82)">
     <path d="m0 0c1.003 0 2.38 0.597 2.38 2.38 0 0.569-0.174 1.05-0.463 1.429-0.551 0.26-1.049 0.447-1.383 0.447-0.713 0-1.726-0.428-2.635-0.853-0.171-0.303-0.279-0.647-0.279-1.023 0-1.701 1.377-2.38 2.38-2.38" fill="#0062a8"/>
    </g>
    <g transform="translate(136.15 265.94)">
     <path d="m0 0c1.156 0 2.295 0.823 2.295 2.267 0 0.181-0.025 0.354-0.068 0.519-0.762 0.453-1.966 1.263-2.411 1.263-0.287 0-1.043-0.42-1.846-0.87-0.15-0.296-0.237-0.61-0.237-0.912 0-1.362 1.111-2.267 2.267-2.267" fill="#0062a8"/>
    </g>
    <g transform="translate(128.89 268.2)">
     <path d="m0 0c0 0.569-0.174 1.05-0.462 1.429-0.552 0.26-1.05 0.447-1.384 0.447-0.713 0-1.726-0.428-2.634-0.853-0.172-0.303-0.28-0.647-0.28-1.023 0-0.745 0.264-1.294 0.645-1.676 0.908-0.193 1.868-0.346 2.849-0.458 0.683 0.319 1.266 0.975 1.266 2.134" fill="#005493"/>
    </g>
    <g transform="translate(138.38 268.72)">
     <path d="m0 0c-0.761 0.453-1.965 1.263-2.411 1.263-0.287 0-1.043-0.42-1.845-0.87-0.15-0.296-0.238-0.61-0.238-0.913 0-0.998 0.598-1.749 1.372-2.08 0.978 0.146 1.886 0.353 2.684 0.624 0.31 0.372 0.506 0.86 0.506 1.456 0 0.182-0.025 0.355-0.068 0.52" fill="#005493"/>
    </g>
    <g transform="translate(124.73 268.2)">
     <path d="m0 0c0 1.072 1.158 1.809 1.776 1.776 0.967-0.05 1.776-0.709 1.776-1.776 0-1.33-1.028-1.775-1.776-1.775-0.749 0-1.776 0.505-1.776 1.775" fill="#dbdcdc"/>
    </g>
    <g transform="translate(134.38 268.2)">
     <path d="m0 0c0 0.829 0.815 1.776 1.776 1.776 0.789 0 1.798-0.726 1.798-1.776 0-1.131-0.892-1.775-1.798-1.775s-1.776 0.709-1.776 1.775" fill="#dbdcdc"/>
    </g>
    <g transform="translate(119.69 281.2)">
     <path d="m0 0c0 0.357 1.383 2.164 1.627 2.164 0.424 0 2.213-1.332 2.214-1.807 1e-3 -0.748-1.351-2.473-1.644-2.473-0.504 0-2.197 1.562-2.197 2.116" fill="#fff"/>
    </g>
    <g transform="translate(119.69 281.2)">
     <path d="m0 0c0 0.357 1.383 2.164 1.627 2.164-0.2-0.59-0.413-1.296-0.488-1.758 0 0-0.742-0.382-1.076-0.635-0.04 0.087-0.063 0.165-0.063 0.229" fill="#b2e1e7"/>
    </g>
    <g transform="translate(120.83 281.6)">
     <path d="m0 0c0.423 0 1.669 0.101 2.702-0.049 1e-3 -0.748-1.351-2.473-1.644-2.473-0.446 0-1.821 1.221-2.133 1.886 0.151 0.195 0.922 0.587 1.075 0.636" fill="#3bbeaa"/>
    </g>
    <g transform="translate(128.86 282.45)">
     <path d="m0 0c0 0.484 2.246 3.072 2.979 3.072 0.488 0 2.929-2.157 2.929-2.807 0-0.415-2.002-2.832-2.563-2.832-0.562 0-3.345 2.205-3.345 2.567" fill="#fff"/>
    </g>
    <g transform="translate(128.86 282.45)">
     <path d="M 0,0 C 0,0.506 1.977,2.743 2.805,3.036 2.94,2.786 3.778,1.493 3.778,0.842 3.059,0.668 0.935,0.133 0.137,-0.233 0.05,-0.129 0,-0.049 0,0" fill="#b2e1e7"/>
    </g>
    <g transform="translate(128.89 282.37)">
     <path d="m0 0c0.795 0.345 3.019 0.898 3.75 0.984 0.489-0.062 1.685-0.459 2.115-0.721 0-0.415-1.986-2.75-2.548-2.75-0.597 0-3.317 2.23-3.317 2.487" fill="#3bbeaa"/>
    </g>
    <g transform="translate(138.43 282.7)">
     <path d="m0 0c0 0.302 1.123 1.66 1.367 1.66 0.269 0 1.685-1.358 1.685-1.66 0-0.252-1.319-1.978-1.526-1.978-0.379 0-1.526 1.726-1.526 1.978" fill="#b2e1e7"/>
    </g>
    <g transform="translate(138.43 282.7)">
     <path d="m0 0c0.41 0.062 2.268 0.148 3.052 0 0-0.252-1.319-1.978-1.526-1.978-0.379 0-1.526 1.726-1.526 1.978" fill="#3bbeaa"/>
    </g>
    <g transform="translate(128.91 251.29)">
     <path d="m0 0c0 0.292 3.101 1.708 3.394 1.708s3.051-1.318 3.027-1.562c-0.025-0.244-2.93-2.05-3.211-2.05-0.28 0-3.21 1.562-3.21 1.904" fill="#fff"/>
    </g>
    <g transform="translate(128.91 251.29)">
     <path d="m0 0c0 0.269 2.68 1.506 3.329 1.699 0.056 0.017 0.666-1.937 0.797-2.386-0.281 0-3.165 0.345-4.126 0.687" fill="#b2e1e7"/>
    </g>
    <g transform="translate(128.91 251.29)">
     <path d="m0 0c0.774-0.098 3.833-0.562 4.126-0.562 0.157 0.023 1.847 0.563 2.295 0.708-0.025-0.244-2.93-2.05-3.211-2.05-0.28 0-3.21 1.562-3.21 1.904" fill="#3bbeaa"/>
    </g>
    <g transform="translate(128.8 246.76)">
     <path d="m0 0c0 0.293 3.148 1.677 3.316 1.677 0.183 0 3.096-1.172 3.096-1.449s-2.791-1.986-3.096-1.986-3.316 1.514-3.316 1.758" fill="#3bbeaa"/>
    </g>
    <g transform="translate(132.92 246.06)">
     <path d="m0 0c-0.2 0.457-0.676 1.774-0.805 2.373 0.183 0 3.096-1.172 3.096-1.449-0.724-0.348-1.742-0.823-2.291-0.924" fill="#b2e1e7"/>
    </g>
    <g transform="translate(121.29 260.09)">
     <path d="m0 0c0.359-3.234 20.012-2.71 20.573 0.375 0-1.993-1.257-3.357-3.469-4.353-1.792-0.806-6.617-1.672-9.845-1.5-1.848 0.099-4.053 0.895-5.344 1.969-1.996 1.661-1.915 3.509-1.915 3.509" fill="#dbdcdc"/>
    </g>
    <g transform="translate(120.78 264.53)">
     <path d="m0 0c0.274-1.333 3.494-3.269 5.144-3.269 3.482 0 5.766 1.763 6.299 1.823 0.487 0.052 3.67-1.448 4.982-1.246 1.663 0.254 3.89 2.081 4.005 3.04-0.12-1.447-1.781-3.737-3.576-3.992-1.795-0.253-4.139 0.872-5.331 1.594-1.178-0.669-3.576-2.316-6.268-2.316-2.224 0-3.801 1.597-4.313 2.236-0.428 0.536-0.942 2.13-0.942 2.13" fill="#dbdcdc"/>
    </g>
    <g transform="translate(143.01 251.87)">
     <path d="m0 0c-1.807-4.806-6.032-9.454-14.014-9.454-5.341 0-12.709 2.405-15.383 9.041 8.425-7.767 21.289-11.217 29.397 0.413" fill="#dbdcdc"/>
    </g>
    <g transform="translate(156.67 240.36)">
     <path d="m0 0c-0.457-0.349-0.799-0.559-1.425-0.922-0.934-0.542-1.904-0.985-2.459-0.985-0.488 0-1.399 0-2.026 0.018-0.147-0.097-2.759 0.22-2.93 0.293-0.171 0.074-1.074 1.49-1.001 1.763 0.703-0.534 3.549-1.037 5.432-0.604 1.224-0.216 3.278-0.129 4.409 0.437" fill="#5088b4"/>
    </g>
    <g transform="translate(147.23 241.21)">
     <path d="M 0,0 C -0.258,0.043 -1.057,0.186 -1.276,0.344 -1.421,0.449 -1.566,0.849 -1.699,1.278 -1.172,1.004 -0.028,0.806 0.597,0.806 0,0 -0.066,-0.094 0,0" fill="#5088b4"/>
    </g>
    <g transform="translate(134.74 243.36)">
     <path d="m0 0s0.812-1.414 3.106-1.603c2.562-0.21 4.834 0.604 5.86 3.29-2.167-2.091-5.691-1.932-6.776-0.482-0.65-0.405-1.374-0.801-2.19-1.205" fill="#dbdcdc"/>
    </g>
    <g transform="translate(144.18 240.86)">
     <path d="m0 0c-0.144-0.329-0.59-0.496-1.257-0.483-0.364-0.414-1.576-0.555-2.555-0.337 0.048-0.284-0.26-0.546-0.968-0.468-0.389 0.042-3.527 1.35-3.577 1.666-0.156-0.33-0.185-0.745 0.073-0.858 0.716-0.315 2.851-1.368 3.5-1.441 0.65-0.073 1.065 0.025 1.162 0.171 0.035 0.052 0.034 0.19-2e-3 0.367 0.562-0.244 1.479-0.403 2.314-0.061 0.09 0.036 0.147 0.102 0.177 0.187 0.326-0.053 1.156-0.062 1.393 0.166 0.096 0.093 0.06 0.335-0.043 0.616 0.275-0.026 0.483 0 0.482 0.146-1e-3 0.16-0.058 0.417-0.157 0.663-0.017-0.201-0.102-0.327-0.542-0.334" fill="#5088b4"/>
    </g>
    <g transform="translate(144.03 259.07)">
     <path d="m0 0c2.833-2.106 4.524-5.609 3.26-8.924 0.293 1.245-0.44 5.018-3.203 7.372 0.029 0.333 0.029 1.191-0.057 1.552" fill="#dbdcdc"/>
    </g>
    <g transform="translate(115.3 274.43)">
     <path d="m0 0c0.5-1.55 2.009-3.304 3.077-4.312-0.09-0.038-0.238-0.118-0.282-0.238 0.308-0.749 2.638-2.247 4.024-2.628-0.185 0.314-0.107 0.61 0.87 1.315 1.028 0.432 2.919 1.513 4.053 1.513 1.107 0 4.005-2.046 4.754-2.046 0.748 0 3.547 1.953 4.166 1.953 0.564 0 2.347-1.3 2.903-1.529 0.041-0.023 0.08-0.048 0.116-0.071 0.477-0.31 0.615-0.627 0.188-1.099-0.14-0.153 1.233 0.674 1.54 1.032-0.166 0.198-0.226 0.297-0.344 0.428 1.8 1.35 3.248 3.449 3.993 5.538-5.793-4.685-23.225-4.443-29.058 0.144" fill="#dbdcdc"/>
    </g>
    <g transform="translate(145.46 248.88)">
     <path d="m0 0c-0.125-0.229 0.391-1.27 0.911-1.657 0.207-0.155 0.231-0.225 0.182-0.5-0.103-0.582 0.011-1.26 0.363-1.524 0.336-0.251 0.822-0.321 1.298-0.28 0.406 0.035 0.429 6e-3 0.566-0.289 0.249-0.535 0.764-1.163 1.397-1.277 0.501-0.09 1.137 0.068 1.556 0.334 0.263 0.165 0.328 0.172 0.627 0.028 0.505-0.243 1.348-0.449 1.819-0.366 0.676 0.12 1.304 0.602 1.622 0.982 0.204 0.243 0.282 0.271 0.594 0.201 0.914-0.202 2.194-0.088 2.587 0.805-0.336-1.364-1.508-2.078-2.756-1.438-0.341-0.586-1.002-1.31-2.002-1.39-1-0.081-1.689 0.252-2.148 0.657-0.406-0.416-1.335-1.041-2.29-0.622-0.955 0.42-1.281 1.223-1.324 1.648-0.533-0.157-1.578-0.219-2.158 0.459-0.581 0.679-0.52 1.397-0.283 2.226-0.503 0.507-0.637 0.882-0.673 1.141-0.035 0.258 0.112 0.862 0.112 0.862" fill="#dbdcdc"/>
    </g>
    <g transform="translate(142.98 239.47)">
     <path d="m0 0c-0.075 0.011 0.04 0.271 0.113 0.261 0.387-0.055 1.085-0.032 1.251 0.134 0.151 0.151-0.465 1.318-0.752 1.58-0.196 0.18-1.936 0.351-2.448 0.783-0.034 0.027 0.215 0.18 0.28 0.134 0.435-0.307 2.084-0.47 2.348-0.71 0.482-0.439 1.068-1.689 0.763-1.985-0.235-0.226-1.066-0.266-1.555-0.197" fill="#0d141b"/>
    </g>
    <g transform="translate(150.71 238.6)">
     <path d="m0 0m-0.178-0.279c-0.925 0.038-2.285 0.118-2.77 0.303-0.235 0.09-1.154 1.598-1.062 1.942 0.078 0.292 0.817 1.268 1.251 1.755 0.227 0.254 0.355 0.153 0.174-0.101-0.406-0.571-1.104-1.517-1.16-1.724-0.022-0.169 0.661-1.47 0.931-1.606 0.206-0.103 2.598-0.352 2.803-0.292 0.138 0.041 0.632 0.644 1.446 1.357 0.284 0.25 0.43 0.167 0.151-0.148-0.473-0.535-1.334-1.363-1.457-1.445-0.043-0.03-0.153-0.041-0.307-0.041" fill="#0d141b"/>
    </g>
    <g transform="translate(152.78 238.32)">
     <path d="M 0,0 C -0.49,0 -1.562,0.005 -2.154,0.061 -2.229,0.067 -1.921,0.29 -1.869,0.288 -1.256,0.274 -0.45,0.274 0,0.274 c 1.158,0 4.284,2.08 4.75,2.684 0.145,0.188 0.432,1.691 0.508,2.64 0.004,0.037 0.304,0.314 0.3,0.239 C 5.505,5.05 5.204,3.098 4.967,2.791 4.393,2.048 1.411,0 0,0" fill="#0d141b"/>
    </g>
    <g transform="translate(131.8 267.89)">
     <path d="m0 0c-0.884 0-3.648 2.047-4.753 2.047-1.429 0-3.92-1.656-4.662-1.689-0.141-5e-3 -0.384 0.054-0.5 0.089-0.353 0.112-0.336 0.214 0.053 0.181 0.158-0.014 0.334-0.01 0.463 4e-3 0.734 0.079 3.124 1.688 4.646 1.688 1.045 0 4.253-2.046 4.753-2.046 0.507 0 3.577 1.958 4.167 1.953 0.716-6e-3 2.538-1.369 2.893-1.53 0.092-0.041 0.218-0.087 0.339-0.087 0.308 0 0.309-0.148 0.02-0.184-0.197-0.026-0.34 0.012-0.471 0.062-0.37 0.14-2.183 1.425-2.781 1.465-0.394 0.026-3.331-1.953-4.167-1.953" fill="#0d141b"/>
    </g>
    <g transform="translate(124.83 268.2)">
     <path d="m0 0c0-1.202 1.017-1.639 1.676-1.639 0.609 0 1.677 0.346 1.677 1.64 0 0.914-0.715 1.588-1.685 1.639-0.686 0.037-1.668-0.762-1.668-1.64m1.676-1.913c-0.769 0-1.913 0.51-1.913 1.913 0 1.006 1.065 1.956 1.92 1.913 1.122-0.059 1.906-0.846 1.906-1.913 0-1.314-0.992-1.913-1.913-1.913" fill="#0d141b"/>
    </g>
    <g transform="translate(131.02 266.65)">
     <path d="m0 0c0 0.183 0.107 0.224 0.178 0.224 0.064 0 0.161-0.045 0.161-0.224 0-0.18-0.089-0.224-0.169-0.224-0.075 0-0.17 0.042-0.17 0.224" fill="#0d141b"/>
    </g>
    <g transform="translate(125.84 264.52)">
     <path d="m0 0c-0.935 0.352-2.663 1.497-3.165 2.242-0.269 0.4-0.094 0.446 0.218 0.156 0.977-0.909 1.986-1.641 3.017-2.123 0.239-0.112 0.301-0.122 0.559 1e-3 0.626 0.297 2.147 1.228 2.761 1.482 0.225 0.093 0.286 0.084 0.481-0.016 0.594-0.305 1.861-1.057 2.255-1.239 0.103-0.048 0.108-0.057 0.202 0.017 0.304 0.234 1.271 1.124 1.765 1.348 0.086 0.039 0.222 0.054 0.362 0.019 0.543-0.136 1.995-0.655 2.417-0.773 0.067-0.019 0.165-3e-3 0.2 0.018 0.347 0.203 1.539 1.104 2.046 1.538 0.298 0.255 0.407 0.175 0.118-0.118-0.503-0.512-1.599-1.441-2.082-1.68-0.182-0.089-0.122-0.081-0.35-0.022-0.523 0.133-1.893 0.63-2.378 0.763-0.138 0.038-0.154 0.052-0.265-0.013-0.358-0.211-1.356-1.078-1.768-1.341-0.142-0.091-0.164-0.094-0.329-0.02-0.496 0.222-1.831 1.027-2.3 1.25-0.156 0.075-0.112 0.089-0.296 4e-3 -0.519-0.24-2.244-1.198-2.819-1.483-0.231-0.114-0.368-0.115-0.649-0.01" fill="#0d141b"/>
    </g>
    <g transform="translate(125.14 260.14)">
     <path d="m0 0c-2.895 0.649-4.543 2.931-4.543 4.649 0 0.974 0.66 1.872 1.236 2.287 0.429 0.308 0.585 0.178 0.189-0.204-0.366-0.353-1.08-1.23-1.081-2.083-2e-3 -1.183 1.423-3.661 4.266-4.383 1.689-0.429 4.156 0.353 7.027 2.231 0.041 0.027 0.096 0.024 0.138-1e-3 1.032-0.618 3.622-2.012 5.388-1.587 0.71 0.17 3.316 1.904 3.316 3.838 0 1.124-0.853 1.91-1.271 2.191-0.35 0.237-0.269 0.398 0.175 0.187 0.632-0.302 1.402-1.375 1.402-2.378 0-2.066-2.552-3.9-3.558-4.104-1.839-0.374-4.416 0.92-5.521 1.576-2.152-1.458-4.889-2.729-7.163-2.219" fill="#0d141b"/>
    </g>
    <g transform="translate(128.91 254.48)">
     <path d="M 0,0 C -5.028,-0.01 -9.419,3.745 -7.168,7.971 -7.133,8.037 -6.938,7.826 -6.97,7.758 -8.538,4.362 -5.627,0.67 0,0.207 0.438,0.171 0.433,0 0,0" fill="#0d141b"/>
    </g>
    <g transform="translate(138.48 256.28)">
     <path d="m0 0c1.493 0.834 3.264 1.896 3.252 4.525-6e-3 1.713-1.039 2.442-1.048 2.449-0.061 0.045 0.099 0.265 0.16 0.221 0.045-0.032 1.223-0.805 1.226-2.658 4e-3 -2.571-1.447-3.864-3.499-4.762-0.366-0.16-0.47 0.013-0.091 0.225" fill="#0d141b"/>
    </g>
    <g transform="translate(121.33 283.22)">
     <path d="m0 0c-0.283-0.124-1.502-1.766-1.502-2.026 0-0.39 1.545-1.979 2.06-1.979 0.224 0.056 1.508 1.645 1.507 2.336-1e-3 0.41-1.649 1.634-2.065 1.669m0.558-4.279c-0.552 0-2.334 1.608-2.334 2.253 0 0.369 1.391 2.301 1.764 2.301 0.46 0 2.35-1.354 2.351-1.943 1e-3 -0.801-1.402-2.611-1.781-2.611" fill="#0d141b"/>
    </g>
    <g transform="translate(120.78 281.85)">
     <path d="M 0,0 C 0.057,0.5 0.281,1.26 0.39,1.497 0.421,1.565 0.67,1.452 0.639,1.383 0.541,1.169 0.335,0.48 0.19,-0.016 0.084,-0.377 -0.038,-0.335 0,0" fill="#0d141b"/>
    </g>
    <g transform="translate(121.7 279.12)">
     <path d="m0 0c-0.224 0.384-0.68 1.347-0.865 1.87-0.123 0.35 0.021 0.428 0.195 0.064 0.268-0.561 0.801-1.657 0.964-1.888 0.044-0.062-0.267-0.092-0.294-0.046" fill="#0d141b"/>
    </g>
    <g transform="translate(123.51 281.42)">
     <path d="m0 0c-0.425 0.062-1.266 0.068-1.766 0.109-0.305 0.026-0.314 0.126-7e-3 0.168 0.49 0.067 1.287 0.06 1.753 1e-3 0.02-2e-3 0.027-0.279 0.02-0.278" fill="#0d141b"/>
    </g>
    <g transform="translate(129 282.45)">
     <path d="m0 0c0.042-0.362 2.701-2.437 3.207-2.437 0.564 0 2.42 2.38 2.426 2.696 0 0.612-2.401 2.67-2.792 2.67-0.664 0-2.888-2.525-2.841-2.929m3.207-2.711c-0.618 0-3.481 2.225-3.481 2.705 0 0.519 2.297 3.209 3.115 3.209 0.58 0 3.066-2.24 3.066-2.944 0-0.524-2.071-2.97-2.7-2.97" fill="#0d141b"/>
    </g>
    <g transform="translate(132.43 283.65)">
     <path d="m0 0c-0.152 0.32-0.511 1.103-0.611 1.356-0.122 0.31-8e-3 0.368 0.18 0.074 0.185-0.289 0.494-0.927 0.61-1.364 0.098-0.368-0.036-0.367-0.179-0.066" fill="#0d141b"/>
    </g>
    <g transform="translate(134.73 282.58)">
     <path d="m0 0s-1.21 0.34-1.744 0.551c-0.279 0.111-0.221 0.271 0.073 0.205 0.559-0.128 1.75-0.493 1.75-0.493z" fill="#0d141b"/>
    </g>
    <g transform="translate(132.05 279.91)">
     <path d="m0 0c0.187 0.403 0.342 1.925 0.419 2.612 0.036 0.313 0.208 0.319 0.208-8e-3 0-0.477-0.145-2.209-0.321-2.624-0.019-0.045-0.338-0.048-0.306 0.02" fill="#0d141b"/>
    </g>
    <g transform="translate(138.57 282.7)">
     <path d="m0 0c0.047-0.349 1.116-1.839 1.375-1.84 0.209 0 1.365 1.601 1.403 1.844-0.031 0.23-1.259 1.53-1.545 1.516-0.263-0.013-1.219-1.283-1.233-1.52m1.362-1.847m0.027-0.269c-0.495 0-1.663 1.825-1.663 2.114 0 0.34 1.144 1.797 1.504 1.797 0.357 0 1.822-1.444 1.822-1.797 0-0.294-1.339-2.114-1.663-2.114" fill="#0d141b"/>
    </g>
    <g transform="translate(129.06 251.28)">
     <path d="m0 0c1e-3 -0.231 2.73-1.766 3.064-1.759 0.32 7e-3 3.047 1.733 3.047 1.916 0 0.181-2.592 1.423-2.868 1.423-0.433 0-3.243-1.402-3.243-1.58m3.061-2.033c-0.227 0-3.348 1.538-3.348 2.042 0 0.302 3.063 1.845 3.531 1.845 0.321 0 2.759-1.17 3.092-1.539 0.02-0.021 0.08-0.087 0.071-0.173-0.032-0.321-2.961-2.175-3.346-2.175" fill="#0d141b"/>
    </g>
    <g transform="translate(133.2 250.9)">
     <path d="m0 0c0.566 0.218 1.799 0.574 2.081 0.673 0.072 0.025 0.162-0.234 0.091-0.259-0.291-0.102-1.541-0.508-2.126-0.618-0.31-0.059-0.342 0.091-0.046 0.204" fill="#0d141b"/>
    </g>
    <g transform="translate(128.97 246.76)">
     <path d="m0 0c0-0.16 2.765-1.633 3.154-1.625 0.274 5e-3 2.94 1.636 2.94 1.841 0 0.105-2.601 1.324-2.939 1.317-0.367-7e-3 -3.155-1.354-3.155-1.533m3.153-1.899c-0.527 0-3.453 1.585-3.453 1.894 0 0.367 3.112 1.814 3.453 1.814 0.361 0 3.233-1.23 3.233-1.586 0-0.39-2.711-2.122-3.233-2.122" fill="#0d141b"/>
    </g>
    <g transform="translate(133.13 246.27)">
     <path d="m0 0c0.639 0.249 2.013 0.833 2.029 0.84 0.071 0.029 0.018-0.283-0.093-0.338-0.47-0.23-1.37-0.61-1.916-0.705-0.391-0.068-0.379 0.063-0.02 0.203" fill="#0d141b"/>
    </g>
    <g transform="translate(132.54 266.65)">
     <path d="m0 0c0 0.183 0.107 0.224 0.179 0.224 0.063 0 0.16-0.045 0.16-0.224 0-0.14-0.092-0.202-0.169-0.202-0.082 0-0.17 0.058-0.17 0.202" fill="#0d141b"/>
    </g>
    <g transform="translate(129 242.28)">
     <path d="m0 0c-7.877 0-16.674 4.543-16.674 14.785 0 5.485 2.276 10.295 6.02 13.222 0.035 0.027 0.262-0.16 0.202-0.206-3.581-2.718-5.817-7.645-5.817-13.016 0-7.302 5.29-14.169 16.269-14.511 2.885-0.089 5.785 0.735 7.627 1.798 0.38 0.22 0.465 0.03 0.094-0.174-2.59-1.414-4.787-1.898-7.721-1.898" fill="#0d141b"/>
    </g>
    <g transform="translate(138.49 245.62)">
     <path d="m0 0c3.968 3.513 5.262 7.641 5.459 11.324 0.251 4.686-1.066 8.834-3.713 11.706-0.043 0.047 0.171 0.218 0.223 0.162 2.683-2.925 4.124-7.134 3.87-11.883-0.178-3.327-1.458-8.09-5.716-11.487-0.318-0.254-0.403-0.069-0.123 0.178" fill="#0d141b"/>
    </g>
    <g transform="translate(137.83 241.62)">
     <path d="m0 0c-2.34 0.192-3.18 1.61-3.214 1.671-0.038 0.065 0.199 0.202 0.237 0.137 8e-3 -0.014 0.81-1.355 2.999-1.535 2.407-0.198 4.764 0.696 5.72 3.202 1.038 2.718-0.63 4.782-1.192 5.292-0.056 0.05 0.061 0.318 0.118 0.269 0.607-0.522 2.48-2.785 1.384-5.656-1.017-2.663-3.261-3.609-6.052-3.38" fill="#0d141b"/>
    </g>
    <g transform="translate(139.38 238.8)">
     <path d="m0 0c-0.652 0.06-3.386 1.383-3.54 1.451-0.104 0.046-0.179 0.133-0.218 0.254-0.133 0.413 0.173 1.153 0.504 1.709 0.038 0.065 0.274-0.075 0.235-0.141-0.365-0.613-0.594-1.394-0.443-1.545 0.122-0.123 3.006-1.401 3.493-1.456 0.667-0.075 0.989 0.044 1.032 0.111 0.046 0.122-0.115 0.849-0.497 1.25-0.249 0.261-0.661 0.392-0.924 0.453-0.377 0.086-0.374 0.235 0.016 0.191 0.307-0.034 0.81-0.144 1.106-0.455 0.424-0.445 0.685-1.355 0.528-1.592-0.115-0.17-0.667-0.288-1.292-0.23" fill="#0d141b"/>
    </g>
    <g transform="translate(140.58 239.32)">
     <path d="m0 0c-0.028 0.011-0.11 0.348-0.042 0.315 0.534-0.258 1.493-0.409 2.276-0.089 0.312 0.128-0.1 1.111-0.365 1.315-0.249 0.191-0.866 0.43-1.498 0.569-0.302 0.067-0.281 0.209 0.04 0.203 0.522-0.011 1.382-0.336 1.625-0.555 0.497-0.448 0.853-1.571 0.302-1.785-0.687-0.268-1.649-0.245-2.338 0.027" fill="#0d141b"/>
    </g>
    <g transform="translate(144.44 240.24)">
     <path d="m0 0c-0.02 4e-3 -0.166 0.253-0.088 0.246 0.125-0.01 0.333 5e-3 0.392 0.053 0.056 0.043-0.251 1.174-0.66 1.189-0.654 0.026-1.297 0.065-1.958 0.121-0.088 8e-3 -0.318 0.306-0.242 0.296 0.75-0.068 1.473-0.115 2.21-0.143 0.564-0.022 0.914-1.034 0.918-1.474 0-0.075-0.028-0.142-0.082-0.191-0.053-0.048-0.35-0.125-0.49-0.097" fill="#0d141b"/>
    </g>
    <g transform="translate(147.14 241.08)">
     <path d="m0 0c-0.324 0.055-1.04 0.191-1.268 0.356-0.421 0.306-0.749 1.707-0.749 2.236 0 0.459 0.647 1.39 0.766 1.771 0.022 0.073 0.168-0.291 0.141-0.361-0.081-0.212-0.633-1.118-0.633-1.41 0-0.416 0.464-1.884 0.636-2.013 0.171-0.124 0.888-0.269 1.298-0.333 0.076-0.011-0.116-0.259-0.191-0.246" fill="#0d141b"/>
    </g>
    <g transform="translate(148.36 244)">
     <path d="m0 0c-1.74-0.366-3.188 0.861-2.501 2.836-1.296 1.366-0.576 3.361 1.316 3.44 0.195 1.18-0.403 4.69-3.073 7.041-0.035 0.032 0.015 0.351 0.071 0.301 2.143-1.874 3.512-4.449 3.248-7.508-5e-3 -0.063-0.07-0.106-0.133-0.106-1.699 0-2.281-1.983-1.175-3.035 0.04-0.038 0.053-0.098 0.033-0.15-0.73-1.845 1.004-3.061 2.258-2.509 0.039 0.016 0.082 0.015 0.12-4e-3 0.037-0.02 0.063-0.055 0.07-0.096 0.304-1.606 2.168-2.214 3.38-0.956 0.026 0.026 0.061 0.042 0.097 0.042 0.032-6e-3 0.073-0.014 0.099-0.04 0.972-0.973 3.167-0.742 3.932 0.7 0.033 0.064 0.111 0.09 0.176 0.061 2.104-0.933 3.243 1.649 2.27 3.17-0.032 0.05-0.027 0.116 0.011 0.162 1.192 1.421 0.181 3.534-1.457 3.534-0.059 0-0.111 0.038-0.13 0.093-2.899 8.548-11.187 11.363-13.511 12.006-0.073 0.021-0.144 0.326-0.072 0.303 6.091-1.894 11.212-4.896 13.811-12.131 2.128-0.097 2.725-2.495 1.631-3.905 1.087-1.893-0.293-4.392-2.549-3.531-0.89-1.581-2.766-1.808-4.205-0.748-1.324-1.251-3.257-0.794-3.717 1.03" fill="#0d141b"/>
    </g>
    <g transform="translate(140.37 268.94)">
     <path d="m0 0c3.128 2.383 4.539 6.187 4.539 11.08 0 8.44-6.958 14.535-15.001 14.535-9.628 0-15.332-7.007-15.332-14.598 0-5.277 1.684-8.13 5.506-10.731 0.453-0.307 0.248-0.426-0.14-0.189-4.253 2.591-5.835 5.8-5.835 11.023 0 7.538 5.585 14.845 15.801 14.845 8.008 0 15.456-5.915 15.456-14.885 0-5.689-1.674-9.048-4.839-11.269-0.54-0.378-0.68-0.211-0.155 0.189" fill="#0d141b"/>
    </g>
    <g transform="translate(134.82 269.52)">
     <path d="m0 0 0.667 0.16c-0.588-0.292-1.012-0.927-1.012-1.477 0-1.026 0.872-1.639 1.678-1.639 0.805 0 1.697 0.574 1.697 1.639 0 0.541-0.298 0.975-0.678 1.26 0 0 0.412-0.184 0.637-0.306 0.187-0.298 0.294-0.633 0.294-0.954 0-1.243-1.012-1.913-1.95-1.913-0.92 0-1.941 0.731-1.941 1.913 0 0.447 0.234 0.943 0.608 1.317" fill="#0d141b"/>
    </g>
    <g transform="translate(116.04 249.27)">
     <path d="m0 0c1.366 0.122 7.576-4.996 5.285-7.067-0.871-0.787-1.704-0.404-1.704-0.404s-1.518 1.523-3.447 2.63c0 1.696-0.134 4.841-0.134 4.841" fill="#fff"/>
    </g>
    <g transform="translate(116.04 249.27)">
     <path d="m0 0c1.366 0.122 7.576-4.996 5.285-7.067-0.871-0.787-1.704-0.404-1.704-0.404s-1.518 1.523-3.447 2.63c0 1.696-0.134 4.841-0.134 4.841" fill="#dbdcdc"/>
    </g>
    <g transform="translate(120.55 241.05)">
     <path d="m0 0c-0.038 0.257-1.14 1.396-1.87 1.9l-12.92-1.083c0.272-2.009 0.778-3.636 1.135-4.003 0.258-0.263 1.521-1.011 1.963-1.196 7e-3 -0.014 0.015-0.025 0.023-0.033 0.239-0.227 2.763-1.006 3.089-1.055 0.138-0.285 3.073-0.418 3.252-0.149 1.149-0.094 2.705 0.387 3.176 0.639 0.185 0.099 0.309 0.892 0.366 1.796 0.443 0 0.72 0.243 0.988 0.397 0.238 0.136 0.896 2.124 0.798 2.787" fill="#5c9ccf"/>
    </g>
    <g transform="translate(117.83 263.6)">
     <path d="m0 0s0.835-0.761 0.464-1.807c-2.309-6.505-1.323-12.381-1.077-13.768 0.057-0.324 0.113-0.488 0.405-0.552 1.817-0.239 2.454-2.463 0.981-3.851 0.608-2.49-2.256-4.226-3.971-2.767-1.091-1.513-2.897-1.481-3.858-0.113-1.546-1.091-3.145-0.813-3.808 0.862-1.713-4e-3 -2.417 1.213-1.986 2.93-1.31 1.245-0.561 3.491 1.319 3.955 0.757 8.099 7.59 17.078 9.749 16.088z" fill="#fff"/>
    </g>
    <g transform="translate(118.78 239.05)">
     <path d="m0 0c0-0.264-0.013-1.182-0.013-1.182 0.444 0 0.737 0.128 0.989 0.397 0.093 0.098 0.34 0.594 0.522 1.187-0.373-0.454-1.242-0.619-1.498-0.402" fill="#5088b4"/>
    </g>
    <g transform="translate(106.21 239.57)">
     <path d="m0 0c0.134-0.473 0.331-1.34 0.688-1.706 0.257-0.264 1.52-1.012 1.962-1.196 8e-3 -0.015 0.016-0.026 0.023-0.034 0.24-0.226 2.764-1.005 3.09-1.054 0.138-0.285 3.072-0.418 3.252-0.15 1.149-0.093 2.705 0.387 3.175 0.639 0.185 0.1 0.333 0.565 0.333 1.358-3.108-1.397-11.835 0.437-12.523 2.143" fill="#5088b4"/>
    </g>
    <g transform="translate(118.05 263.23)">
     <path d="m 0,0 c -3.419,-4.729 -2.307,-14.728 -0.714,-15.591 -0.197,0.733 -0.554,3.439 -0.51,4.929 0.045,1.491 0.17,4.268 0.456,5.456 0.286,1.187 0.661,2.857 0.893,3.465 0.232,0.607 0.223,0.982 0.134,1.259 C 0.169,-0.205 0,0 0,0" fill="#dbdcdc"/>
    </g>
    <g transform="translate(104.34 246.57)">
     <path d="m0 0c-0.103-0.334 0.45-1.278 0.939-1.712 0.186-0.165 0.228-0.291 0.198-0.584-0.094-0.928 0.514-1.742 1.513-1.916 0.367-0.064 0.413-0.107 0.569-0.35 0.562-0.879 1.686-1.105 2.842-0.655 0.294 0.115 0.429 0.099 0.664-0.069 1-0.711 2.16-0.712 3.078 0.028 0.272 0.22 0.343 0.251 0.681 0.144 0.875-0.278 1.787-0.151 2.294 0.132 0.546 0.302 0.877 0.911 0.97 1.814 0.023 0.23 0.026 0.274 0.269 0.426 0.321 0.199 0.803 0.564 0.944 0.907-0.081-0.362-0.443-0.912-0.704-1.119 0.393-1.055-0.055-2.154-1.033-2.903-0.77-0.591-2.115-0.613-2.938 0.135-0.408-0.534-0.911-1.132-1.908-1.202-0.997-0.069-1.697 0.669-1.95 1.089-0.529-0.335-1.457-0.924-2.506-0.56-1.048 0.364-1.302 1.422-1.302 1.422-0.709 8e-3 -1.454 0.207-1.81 0.737-0.355 0.528-0.36 1.361-0.176 2.193-0.422 0.537-0.561 0.814-0.648 1.188-0.086 0.373 0.014 0.855 0.014 0.855" fill="#dbdcdc"/>
    </g>
    <g transform="translate(110.74 240.55)">
     <path d="m0 0c-1.723-1.144-3.127-0.828-3.869 0.914-1.998 0.046-2.427 1.192-2.045 3.023-1.252 1.461-0.785 3.502 1.343 4.105 0.612 6.169 4.37 13.227 8.432 15.84 0.38 0.244 0.85 0.369 1.174 0.303 0.41-0.084 0.367-0.227-7e-3 -0.188-0.258 0.026-0.668-0.143-1.029-0.352-2.843-1.643-7.691-9.134-8.307-15.723-5e-3 -0.059-0.047-0.107-0.103-0.12-1.964-0.486-2.367-2.668-1.257-3.723 0.036-0.034 0.05-0.085 0.039-0.133-0.414-1.647 0.252-2.759 1.843-2.759h9e-3c0.056 0 0.107-0.035 0.128-0.086 0.6-1.517 2.09-1.868 3.602-0.802 0.029 0.021 0.067 0.03 0.102 0.023 0.036-6e-3 0.068-0.026 0.089-0.056 0.981-1.398 2.667-1.226 3.633 0.115 0.063 0.087 0.11 0.101 0.201 0.024 1.647-1.401 4.325 0.272 3.749 2.63-0.012 0.048 3e-3 0.099 0.039 0.133 1.278 1.204 0.871 3.381-0.905 3.615-0.391 0.084-0.463 0.328-0.522 0.663-0.477 2.687-0.969 8.057 1.082 13.839 0.246 0.692-0.112 1.223-0.285 1.502-0.213 0.346-0.092 0.437 0.231 0.124 0.324-0.313 0.538-1.118 0.313-1.718-1.759-4.673-1.49-11.34-1.072-13.699 0.059-0.333 0.104-0.399 0.3-0.441 2.196-0.288 2.567-2.574 1.103-4.03 0.586-2.704-2.155-4.378-4.098-2.917-1.355-1.726-2.873-1.449-3.913-0.106" fill="#0d141b"/>
    </g>
    <g transform="translate(108.91 236.51)">
     <path d="m0 0c-0.35 0.104-1.925 0.924-2.169 1.261-0.696 0.96-1.011 2.948-1.123 4.192-7e-3 0.075 0.291-0.132 0.294-0.163 0.123-1.246 0.512-2.943 1.084-3.834 0.174-0.269 1.318-0.885 1.81-1.118 0.078-0.037 0.117-0.342 0.104-0.338" fill="#0d141b"/>
    </g>
    <g transform="translate(112.05 235.43)">
     <path d="m0 0c-0.556 0.061-2.866 0.731-3.261 1.104-0.182 0.172-0.25 1.138-0.098 1.772 0.072 0.3 0.212 0.273 0.183-0.022-0.061-0.628 0.014-1.447 0.109-1.556 0.163-0.19 2.419-0.89 2.949-1.002 0.024-5e-3 0.125-0.297 0.118-0.296" fill="#0d141b"/>
    </g>
    <g transform="translate(112.09 235.64)">
     <path d="m0 0h2e-3zm-0.246-0.119c-0.141 0.288 0.01 1.185 0.196 1.609 0.146 0.334 0.243 0.296 0.173-0.028-0.087-0.4-0.252-1.26-0.127-1.451 0.135-0.207 2.804-0.369 3.029-0.132 0.143 0.151 0.378 0.771 0.562 1.065 0.183 0.291 0.295 0.242 0.183-0.086-0.113-0.328-0.39-0.937-0.527-1.143-0.27-0.405-3.327-0.17-3.489 0.166" fill="#0d141b"/>
    </g>
    <g transform="translate(115.08 235.3)">
     <path d="M 0,0 C -0.075,0.006 0.2,0.264 0.223,0.263 1.31,0.195 2.81,0.593 3.254,0.891 3.561,1.096 3.716,4.1 3.532,5.107 3.462,5.494 3.601,5.53 3.72,5.119 3.965,4.272 3.871,0.917 3.383,0.648 2.326,0.067 1.227,-0.09 0,0" fill="#0d141b"/>
    </g>
    <g transform="translate(118.77 237.73)">
     <path d="m 0,0 c -0.076,0 -0.076,0.273 0,0.273 0.379,0 0.767,0.173 0.959,0.377 C 1.094,0.794 1.744,2.668 1.65,3.302 1.613,3.483 0.685,4.499 -0.084,5.055 -0.11,5.074 -0.13,5.422 -0.068,5.379 0.634,4.893 1.872,3.676 1.921,3.342 2.014,2.713 1.471,0.773 1.153,0.437 0.983,0.256 0.396,0 0,0" fill="#0d141b"/>
    </g>
    <g transform="translate(119.97 238.61)">
     <path d="M 0,0 C -0.044,0.031 0.089,0.294 0.123,0.259 0.282,0.097 1.177,0.064 1.369,0.359 1.62,0.8 1.287,2.028 0.491,2.662 0.335,2.786 0,3.161 0.071,3.133 1.365,2.609 1.959,1.169 1.632,0.21 1.523,-0.109 0.306,-0.217 0,0" fill="#0d141b"/>
    </g>
    <g transform="translate(119.24 246.96)">
     <path d="m0 0c-0.283 0.28-1.364 1.258-2.135 1.705-0.039 0.023-0.054 0.421 0.012 0.385 0.858-0.47 1.855-1.429 2.28-1.924 0.266-0.309 0.135-0.455-0.157-0.166" fill="#0d141b"/>
    </g>
    <g transform="translate(120.14 241.56)">
     <path d="m0 0s-0.312 0.306-0.221 0.295c0.635-0.075 1.742 0.341 1.792 1.442 0.027 0.614-0.366 1.286-0.942 2.111-0.353 0.506-0.209 0.666 0.219 0.165 0.695-0.814 1.103-1.651 1.072-2.329-0.049-1.113-1-1.679-1.92-1.684" fill="#0d141b"/>
    </g>
    <g transform="translate(125.39 268.2)">
     <path d="m0 0c0 0.765 0.558 1.087 1.125 1.087 0.568 0 0.987-0.5 0.987-1.086 0-0.587-0.464-1.1-0.987-1.1s-1.125 0.4-1.125 1.099" fill="#00283b"/>
    </g>
    <g transform="translate(135 268.2)">
     <path d="m0 0c0 0.708 0.626 1.05 1.147 1.05s1.026-0.391 1.026-1.05-0.481-1.05-1.026-1.05-1.147 0.359-1.147 1.05" fill="#00283b"/>
    </g>
    <g transform="translate(126.51 269.15)">
     <path d="m0 0c-0.478 0-1.029-0.248-1.029-0.948 0-0.594 0.554-0.962 1.029-0.962 0.453 0 0.891 0.449 0.891 0.962 0 0.532-0.414 0.948-0.891 0.948m0-2.185c-0.607 0-1.262 0.473-1.262 1.236 0 0.845 0.634 1.223 1.262 1.223 0.63 0 1.124-0.537 1.124-1.222 0-0.659-0.525-1.237-1.124-1.237" fill="#0d141b"/>
    </g>
    <g transform="translate(136.15 269.12)">
     <path d="m0 0c-0.391 0-1.048-0.248-1.048-0.913 0-0.593 0.558-0.912 1.048-0.912 0.428 0 0.925 0.285 0.925 0.912 0 0.593-0.494 0.913-0.925 0.913m0-2.1c-0.623 0-1.285 0.416-1.285 1.187 0 0.77 0.662 1.186 1.285 1.186 0.563 0 1.163-0.416 1.163-1.186 0-0.779-0.585-1.187-1.163-1.187" fill="#0d141b"/>
    </g>
   </g>
  </g>
 </g>
</svg>
