<?xml version="1.0" encoding="UTF-8"?>
<!-- Created with Inkscape (http://www.inkscape.org/) -->
<svg version="1.1" viewBox="0 0 118.94 267.32" xmlns="http://www.w3.org/2000/svg">
 <g transform="translate(-42.865 -13.38)">
  <path d="m160.4 207.33c-0.81263-1.3911-2.1395-2.3166-3.534-2.744-0.58629-2.9347-1.2783-6.4284-1.6363-8.1964 0.41765-0.30806 0.82495-0.61546 1.2076-0.91575 0.94947-0.74649 1.7576-2.1649 1.5053-3.8901-0.52014-3.5671-3.9724-5.7631-10.149-5.1878-0.8068 1.4982-1.7141 3.0216-2.7538 4.597-2.6047 3.9496-5.5173 6.4499-8.4196 7.8883 1.6966 7.0277 3.7305 12.904 7.1114 19.388 3.6856-0.78603 11.134-2.5359 13.765-3.3362 1.0779-0.32816 1.7414-0.74454 2.4839-1.6499 1.4041-1.7154 1.5578-4.0048 0.41895-5.9531" fill="#b5a25d" stroke-width="1.8384"/>
  <path d="m156.73 263.16c-0.56425-4.1364-1.1226-8.6523-1.7712-13.249-1.6908-11.968-5.067-20.283-10.472-30.216-4.1806-7.682-6.4291-14.359-8.3442-22.839-5.1132-22.625-9.0582-30.345-8.9935-49.431-0.0408-7.7605-0.0598-7.7605-0.64727-14.752-0.97022-23.098-3.3121-50.273-4.979-65.414-0.13236-1.2102-0.47927-2.458-2.5228-2.6196-9.4766-0.74908-20.649 1.1603-26.729 4.3104 0.21662 0.0985 0.43843 0.18873 0.64985 0.29638 1.9412 0.9897 1.5857 1.8315-0.13619 1.9042-3.7623 0.15958-7.2774 2.7453-9.6783 7.6724 4.9913 9.0836 14.531 32.477 17.404 43.271 2.0675 7.7645 3.3283 9.2198 2.2129 17.567-1.7543 13.119-4.0048 21.267-8.5856 29.245-9.7697 17.015-17.844 27.628-20.239 43.543-0.37421 2.4898-2.1896 11.249-2.3932 13.975-0.97153 12.941-1.3386 16.897-0.42091 21.901 1.0669 5.8226 2.1026 9.8028 2.9762 13.199 0.70562 2.7448 1.2394 4.0178 2.8484 5.3667 5.7261 4.8019 20.294 5.4264 26.784-1.8406 1.2322-1.3795 1.0811-2.812 0.69979-4.5534-0.80809-3.6967-1.6849-8.1517-2.5631-12.43-0.52338-2.5488-0.79901-3.7803-0.66023-7.2786 0.12391-3.1176 1.133-13.941 5.2402-14.481 5.975-0.7841 11.857 12.357 14.027 21.601 0.28795 1.2264 0.57915 4.4289 0.79965 8.1148 0.51365 8.5589 1.694 16.987 2.9023 19.033 1.2893 2.185 9.4825 5.3818 18.08 5.0113 8.8884-0.382 15.337-3.8121 15.858-6.8999 0.20689-1.2264-0.9871-7.3513-1.3496-10.008" fill="#fdd34e"/>
  <path d="m86.304 151.13c-1.4787-0.45918-4.4094-4.6806-6.3344-8.531-1.753-3.5086-3.4814-7.2535-6.0179-9.8489 0.21142-0.34308 0.43324-0.71536 0.67709-1.1414 2.0864-3.639 2.7615-8.1848-0.79254-10.824-1.768-1.314-3.2979-1.5228-4.4381-1.5202 0.20559-2.6863-0.41572-5.8927-2.6786-8.8768-1.0902-1.4378-2.6624-2.2337-5.0788-1.9417-5.3713 0.64727-8.2054 2.3289-10.999 6.1787-2.1039 2.8984-3.0385 4.1734-4.6716 6.9874-3.9327 6.7768-3.2317 15.934 3.0909 22.747 3.5897 3.868 12.171 11.509 15.231 13.324 4.7104 2.794 16.488 6.0153 19.96 5.8428 3.953-0.19392 12.441-5.5301 17.017-11.48 0 0 1.9158-9.6064 2.1487-11.932-3.4606 4.5166-14.681 11.771-17.114 11.015" fill="#fdd34e" stroke-width="1.8384"/>
  <path d="m144.96 191.11c1.5546 0.0895 1.5377 0.0947 1.7751-0.10957 1.1194-0.96634 1.5805-1.8847-0.4462-1.9812-0.39755 0.65374-0.81068 1.312-1.2523 1.9812-0.0254 0.0382-0.0513 0.0721-0.0765 0.10957" fill="#943632" stroke-width="1.8384"/>
  <g fill="#ffe450" stroke-width="1.8384">
   <path d="m92.924 183.91c6.9874-14.752 11.936-25.657 13.199-36.686 0.37616-3.2843-0.3671-3.1981-1.0675-0.19391-3.2032 13.732-8.4435 24.456-14.946 35.617-13.781 23.655-19.221 62.997-8.6497 86.646 1.5163 0.51041 3.1948 0.86907 4.9477 1.0552-11.093-24.425-7.3079-57.254 6.5166-86.44"/>
   <path d="m129.54 253.4c0.14652 2.1103 1.6655 17.637 1.9235 25.414 1.1868 0.32687 2.469 0.61092 3.8188 0.82625-1.096-10.852-2.6409-21.809-4.5146-26.556-0.83599-2.1175-1.3698-1.7329-1.2277 0.31651"/>
   <path d="m88.916 76.175c7.5926 19.265 14.633 34.987 16.686 60.497 0.53053 6.6028 1.3004 5.9532 1.1628 0.12906-0.39237-16.709-4.0443-34.803-13.462-60.763-1.5163 0.11159-2.9937 0.15442-4.3868 0.13678"/>
   <path d="m65.3 151.95c1.3172 0.52468 1.8575 0.18218 0.40015-0.66931-2.8251-1.6518-6.0756-5.3551-7.8649-7.2728-1.5137-1.6227-2.0241-0.98321-0.96894 0.80939 1.5708 2.6688 6.1846 6.2385 8.4337 7.1327"/>
  </g>
  <g stroke-width="1.8384">
   <path d="m90.179 157.97c-4.8758 3.1597-8.2094 4.1487-19 2.6363 5.0521 1.7057 10.818 3.028 13.074 2.9165 3.953-0.19456 12.441-5.5309 17.017-11.481 0 0 0.36059-1.8127 0.78865-4.0528-3.1189 3.1974-7.9247 7.4162-11.879 9.9806" fill="#8f580f" opacity=".329"/>
   <path d="m160.4 207.33c-0.81263-1.3911-2.1395-2.3166-3.534-2.744-0.58629-2.9347-1.2783-6.4284-1.6363-8.1964 0.41765-0.30806 0.82495-0.61546 1.2076-0.91575 0.91185-0.71729 1.6823-2.0566 1.5202-3.6902-2.1552-1.7965-4.9133-1.1058-6.7008 0.011-1.8522 1.157-8.9948 5.7182-14.149 9.0115 1.6039 6.1931 3.5579 11.583 6.6244 17.463 3.6856-0.78603 11.134-2.5359 13.765-3.3362 1.0779-0.32816 1.7414-0.74454 2.4839-1.6499 1.4041-1.7154 1.5578-4.0048 0.41896-5.9531" fill="#9d8c50"/>
   <path d="m141.04 202.4c-1.061-0.86064-2.5767-1.0234-3.7544-0.87814 0.45464 1.7102 0.94559 3.3582 1.4774 4.9782 1.5565-0.89305 3.0566-2.4164 2.2771-4.1002" fill="#292526"/>
   <path d="m150.29 199.86c0.54932 2.5177 1.9061 8.3495 2.227 9.6311 1.9333-0.5811 3.8491-1.3911 4.9141-2.2673-0.62197-3.0657-1.696-8.4876-2.1726-10.841-1.8763 1.3821-3.9581 2.7661-4.9685 3.4768" fill="#7d2b27"/>
   <path d="m149.28 210.69c-0.61612-2.9451-1.3152-6.5322-1.9404-9.502-1.4787 1.0027-3.554 2.2452-5.1099 3.1694 0.54608 1.816 1.4677 5.8324 2.0664 8.0076 1.4502-0.30871 3.8167-1.1362 4.9841-1.6752" fill="#7d2b27"/>
  </g>
  <g fill="#e18b4f" stroke-width="1.8384">
   <path d="m59.897 121.6c-0.74713 0-1.6506-0.61549-1.6506-1.4638 3.5884 1.5371 9.703-1.3665 10.398-5.5568 0 0 0.53636 0.81199 0.52468 1.2738-0.08431 3.1786-5.3764 6.4958-9.2724 5.7469"/>
   <path d="m72.639 134.18c1.2232-4.9659-0.89695-9.7633-5.7118-9.1095 0 0 0.4715-0.28277 0.98061-0.81458 4.0515-0.50911 6.6367 3.5391 5.7741 8.7113-0.37228 0.6051-1.0429 1.2128-1.0429 1.2128"/>
   <path d="m55.123 130.63c0-0.5117 3.2998 0.29121 5.798-2.6208 0.78346-0.91187 1.8205-3.1053 1.2867-4.6826 0 0 1.1077 0.29444 1.3587 1.2861-0.17446 1.7498-0.66152 2.9341-1.8437 4.2701-2.257 2.5475-6.5997 2.2563-6.5997 1.7472"/>
   <path d="m54.733 132.96 0.24256-1.0682c0.97088 0.89823 5.0944 0.79057 6.9051-0.32882 1.7809-1.1026 2.5177-2.8361 2.6396-4.51 0 0 0.57072 1.4508 0.50198 1.8296-0.32687 1.7932-1.1856 2.9937-2.5267 3.7583-2.4898 1.419-6.3201 1.1408-7.7625 0.3191"/>
   <path d="m56.25 151.24c-0.77243-0.48058-2.0962-1.5299-2.0962-1.5299 8.513 1.5053 16.167-1.855 18.943-7.8423 1.2082-2.6085 2.0702-6.0704 1.7096-7.6232 0 0 1.2524 0.51301 1.2426 0.83079-0.0571 1.9495-0.63624 4.7455-1.8263 7.3143-3.1838 6.8689-10.774 9.4903-17.972 8.8501"/>
   <path d="m60.364 154.64c-0.46565-0.46565-1.1427-0.76204-1.4832-1.2511 6.1515 0.72119 13.352-1.8315 16.467-8.5512 1.1797-2.5456 1.6791-5.5924 1.1661-8.3618 0 0 1.181 1.0805 1.2128 1.7459 0.11414 2.4418-0.24321 4.9575-1.2524 7.1373-2.7019 5.8305-8.5771 9.7879-16.11 9.2807"/>
   <path d="m123.01 82.224c-0.0467-0.50976-0.0934-1.0169-0.14009-1.5176-6.4447 5.8778-24.35 12.263-34.268 9.6142 0.20558 0.46696 0.41117 0.93974 0.61741 1.4164 8.2659 2.1544 24.967-2.2394 33.79-9.5129"/>
   <path d="m126.36 129.16c-0.0246-0.51948-0.0493-1.039-0.0752-1.5604-4.7104 4.3966-14.587 7.1237-23.195 5.0665 0.0324 0.41313 0.0539 0.83858 0.0623 1.2861 7.7592 1.7355 17.395-0.0824 23.208-4.7922"/>
   <path d="m123.49 87.463c-0.0447-0.51819-0.0895-1.0312-0.13494-1.541-5.274 5.0988-19.875 11.18-32.321 9.9364 0.18029 0.43322 0.36059 0.86646 0.54023 1.3029 11.853 1.0623 25.565-4.2831 31.917-9.6984"/>
   <path d="m134.74 190.84c-0.10442-0.42934-0.20689-0.84701-0.31065-1.2653-18.969 11.308-45.534 2.8972-51.428-1.696-0.20559 0.36837-0.40859 0.7361-0.609 1.1019 7.1626 5.7066 33.764 12.675 52.347 1.8594"/>
   <path d="m136.28 197.47c-0.0474-0.20754-0.0967-0.41182-0.14395-0.62131-0.0472-0.21077-0.0947-0.41248-0.14193-0.62066-7.2456 3.7862-17.42 5.3194-29.552 4.2993-11.278-0.94947-22.247-4.3324-26.219-7.4323-0.18679 0.37747-0.37033 0.75557-0.55127 1.133 5.6787 4.2149 16.856 6.8597 26.699 7.6691 11.804 0.97024 23.629-0.6025 29.909-4.4271"/>
   <path d="m157.63 268.79c-0.0772-0.49549-0.15958-1.0014-0.24192-1.504-4.102 4.2967-9.9008 6.2716-16.428 6.5497-7.9019 0.33595-14.912-1.8192-18.172-4.9736 0.0967 0.64661 0.19651 1.264 0.29898 1.8465 3.0442 2.6973 10.658 4.8479 17.908 4.5729 6.942-0.26396 11.937-2.0403 16.635-6.4914"/>
   <path d="m156.73 263.18c-1e-3 -7e-3 -2e-3 -0.0147-4e-3 -0.0195-0.0693-0.5156-0.14082-1.0357-0.21013-1.5617-5.7436 7.4402-25.241 8.5979-34.433 2.4002 0.0577 0.5331 0.11748 1.0578 0.17833 1.5721 10.189 6.7716 29.962 3.9024 34.468-2.3912"/>
   <path d="m104.29 260c-0.0939-0.43129-0.18743-0.86969-0.28277-1.3178-3.2284 2.997-9.2555 4.4354-15.11 4.4684-7.099 0.0395-12.723-1.6201-15.513-4.1708 0.1602 0.63689 0.31584 1.2465 0.4676 1.8367 2.8802 2.109 8.546 3.3932 15.045 3.4126 6.4874 0.0184 12.208-1.6862 15.393-4.2293"/>
   <path d="m72.327 254.37c0.13749 0.62195 0.27304 1.1045 0.40728 1.6797 7.9026 4.9323 22.771 4.0774 30.573-0.50652-0.087-0.42868-0.17521-0.85802-0.26398-1.2926-6.8578 4.2688-23.219 5.8331-30.716 0.11931"/>
   <path d="m71.321 249.57c0.1122 0.58824 0.2244 1.1583 0.33596 1.7096 6.4907 3.8213 20.754 4.6475 30.725-0.51819-0.0849-0.41832-0.16987-0.83598-0.25488-1.2543-9.1711 4.9523-24.076 4.9231-30.806 0.0629"/>
   <path d="m155.99 257.59c-0.0629-0.48122-0.12575-0.96634-0.19068-1.4534-4.4225 3.6779-9.6693 5.1689-16.877 5.6904-5.9673 0.43193-12.289-0.0824-17.152-2.3938-0.2899-0.13678-0.10369 1.2284 0.0973 1.3159 5.0976 2.2316 11.427 2.6383 17.13 2.2311 7.529-0.5409 13.243-1.8645 16.992-5.39"/>
   <path d="m102.77 129.86c-0.13807-0.0331-0.42545-1.3036-0.11417-1.2232 6.6749 1.7641 17.938-0.0803 23.019-5.1871 0.22571-0.22569 0.54416 1.0889 0.39953 1.2219-5.2779 4.8394-15.987 6.9213-23.306 5.1884"/>
   <path d="m87.35 73.454c-0.17056-0.49485 7.1983-3.4347 12.905-4.8615 6.9667-1.7407 15.017-2.4197 15.125-1.9892 0.0888 0.3554-4.4892 3.0255-14.568 5.5776-6.8273 1.729-13.21 2.0015-13.461 1.2731m29.507-7.2812c-0.13236-0.871-8.6341-0.72183-16.905 1.347-3.3349 0.83339-15.616 4.8687-15.284 6.512 0.20495 1.0078 7.5447 1.3555 16.421-0.89045 6.8935-1.7024 16.05-5.106 15.768-6.9687"/>
   <path d="m66.837 110.41c-0.57851-0.73805-2.0592-1.1499-2.0592-1.1499 1.325 1.3418 1.3788 3.185 0.57138 4.7014-1.4327 2.6927-5.1696 4.2578-8.4389 3.6526 0 0 0.25098 0.87878 0.42804 1.1745 2.9834 0.40533 7.1113-0.86648 8.9448-4.1423 0.7614-1.3613 0.90602-2.742 0.55386-4.2362"/>
   <path d="m73.915 123.97c-1.7751-1.7148-3.9393-2.2065-4.8415-2.1447-0.2912 0.52793-0.47473 1.0539-0.47473 1.0539 0.98969-0.27304 3.1189 0.34114 4.6683 1.8522 1.4871 1.4515 2.1214 3.3025 1.3295 6.5595 0 0 0.7614-0.63493 1.1992-1.7044 0.46178-2.2355-0.61482-4.3927-1.8809-5.6165"/>
   <path d="m74.424 132.93s-1.2439 0.53959-1.2783 0.82884c-0.34698 2.9042-2.0513 6.3468-6.0945 9.2917-4.3842 3.1948-10.263 4.4808-15.604 3.5112 0 0 0.70628 0.95596 1.4262 1.4586 4.3927 0.46762 11.004-0.97088 14.845-3.9737 4.1182-3.2207 6.5102-7.2742 6.7047-11.117"/>
  </g>
  <g fill="#8f580f" stroke-width="1.8384">
   <path d="m113.27 70.715c1.9028-0.88917 3.5709-1.8088 4.8933-2.6966 0.16399 3.7038 0.14781 14.845 0.72638 19.421 0.48707 3.8485 1.5325 13.492 1.7316 15.723 0.35928 4.0366 1.6337 20.671 1.7206 28.962 0.0395 3.7298-1.2718 4.4782-1.456 0.7867-0.15571-3.1078-1.2738-11.723-1.8575-17.661-1.0999-11.193-2.1362-29.492-5.7585-44.536" opacity=".329"/>
   <path d="m102.44 226.91c-8.8429 12.943-3.6702 21.579-2.2642 32.641 0.39238 3.0922-4.8848 10.025-16.628 10.335 6.7183 1.5248 15.506 0.36838 20.153-4.835 1.2329-1.3795 1.0811-2.812 0.69979-4.5541-0.80809-3.6961-1.6843-8.151-2.5631-12.43-0.52274-2.5488-0.79837-3.7798-0.65957-7.2786 0.12391-3.1168 1.133-13.941 5.2402-14.481 0.40081-0.0518 0.80032-0.0377 1.1985 0.0292-2.6766-1.7958-4.4179-0.5383-5.1773 0.57267" opacity=".329"/>
   <path d="m156.73 263.16c-0.56425-4.1364-1.1226-8.6523-1.7712-13.249-1.6908-11.968-5.067-20.283-10.472-30.216-4.1806-7.682-6.4291-14.359-8.3442-22.839-5.0554-22.37-8.9663-30.176-8.9915-48.797-0.45334-0.18548-0.84505-0.23931-1.1907-0.12391-2.7232 0.91057-3.6241 2.3335-2.899 9.7712 1.253 12.839 4.1033 29.843 6.3668 39.246 3.7538 15.591 5.5211 17.862 12.151 31.702 7.52 15.701 9.011 40.5 7.3448 43.833-1.4962 2.9931-3.5281 5.9712-12.522 7.3189 1.8653 0.2393 3.8298 0.34567 5.8182 0.26006 8.8884-0.38201 15.337-3.8121 15.858-6.8999 0.2069-1.2264-0.9871-7.3513-1.3496-10.008" opacity=".32914"/>
   <path d="m64.318 126.05c1.1868 2.7525 2.4023 7.4844-1.3613 10.557 0.85738 0.83728 1.336 0.53246 3.6974 0.70887 4.0658 0.30352 8.1892 0.60769 13.062 4.7545-1.6694-3.3582-3.3511-6.8681-5.7649-9.3391 0.21141-0.34373 0.43258-0.71599 0.67644-1.1415 2.0864-3.639 2.7615-8.1846-0.79188-10.824-1.7686-1.3146-3.2979-1.5228-4.4387-1.5202 0.20559-2.687-0.41572-5.8927-2.6786-8.8773-0.80614-1.0636-1.8789-1.7718-3.3601-1.9528 5.1178 7.8202 2.8574 14.591 0.95921 17.635" opacity=".329"/>
  </g>
  <path d="m49.464 126.51c-0.76658 1.1155-0.55191 1.6985 0.49354 0.51234 1.9969-2.266 5.3156-2.0636 7.5511-1.962 1.8904 0.0849 1.7336-1.1291 0.02594-1.657-2.5429-0.78668-6.1651 0.33466-8.0706 3.1066" fill="#ffe450" stroke-width="1.8384"/>
  <path d="m52.038 116.49c-0.38588 1.3645 0.19715 1.7485 0.93651 0.23153 1.2588-2.5773 4.3381-3.905 5.6094-4.3129 2.1123-0.67903 1.2284-1.9482-0.79123-1.4553-2.9451 0.71665-5.1411 3.3693-5.7546 5.5368" fill="#ffe450" stroke-width="1.8384"/>
  <g fill="#0f141b" stroke-width="1.8384">
   <path d="m127.13 135.08c-0.0687-0.51689-0.0831-1.2614-0.12905-2.4346-0.87685-22.43-2.9931-50.056-4.9808-65.446-0.2445-1.8932-0.0734-2.8315-2.9782-3.0611-9.666-0.76399-21.167 1.3192-27.685 4.4289 0.38913 0.15884 0.88657 0.33334 1.2595 0.52078 6.5679-2.9023 16.831-4.6832 25.995-3.9594 0.8094 0.0629 1.2037 0.22763 1.2245 0.5117 0.43258 0.36189 0.6667 0.24451 0.78344 0.54803 2.1487 15.38 4.512 44.091 5.3875 66.497 0.0421 1.0831 0.0616 1.8763 0.14469 2.4944"/>
   <path d="m155.68 249.83c-1.753-12.586-4.6988-19.677-10.526-30.383-3.894-7.1547-6.4933-13.489-8.413-22.712-2.1668-10.405-9.95-33.406-9.0985-48.424l-0.99357-0.2432c-1.0234 15.552 5.0906 31.76 9.0064 48.885 2.1221 9.2807 4.335 15.725 8.2762 22.967 4.7532 8.7354 8.9974 18.899 10.298 30.049 1.9917 17.076 3.331 21.747 3.0067 22.988-0.62975 2.4146-5.6438 5.7333-15.039 6.1379-8.8196 0.3807-16.189-2.6837-17.281-4.5341-1.0824-1.8348-2.2999-9.6888-2.8336-18.577-0.24256-4.0438-0.53829-7.0316-0.81199-8.1977-2.517-10.721-8.4142-22.839-14.925-21.98-4.9628 0.65115-5.8487 13.49-5.9064 14.952-0.13752 3.4716 0.13751 4.7994 0.63039 7.2099 0.64532 3.1578 2.0423 10.057 2.6039 12.625 0.4034 1.8432 0.42415 2.7538-0.58499 3.8835-6.121 6.852-20.438 6.0653-25.394 1.9068-1.4865-1.2452-2.1129-2.305-2.8038-4.9926-0.84052-3.2674-1.9327-7.5134-2.9685-13.165-0.86064-4.6865-0.75817-8.5148 0.16538-19.859 0.63234-7.7548 2.4133-14.275 2.6506-15.854 1.9138-12.724 7.5537-22.146 14.695-34.073 5.7715-9.6432 10.864-16.043 13.897-38.724 0.9177-6.8578 0.14726-9.1957-1.1427-13.924-4.4276-16.227-13.624-38.548-18.697-47.639-0.18355 0.3515-0.59278 0.95336-0.76335 1.3308 5.1216 9.4507 12.976 28.85 18.391 46.587 1.4333 4.6955 2.0015 6.8643 1.1123 13.513-3.0275 22.64-8.1615 28.593-14 38.346-7.197 12.022-12.997 21.517-14.94 34.435-0.19846 1.3159-2.2096 10.821-2.5423 15.928-0.74584 11.453-1.2692 15.3-0.38719 20.112 1.0429 5.6858 2.1395 10.299 2.9847 13.584 0.71535 2.7856 1.2926 3.9491 3.0098 5.3888 5.6866 4.7701 20.919 5.8421 27.824-1.8892 1.4138-1.5844 1.3088-3.2654 0.93068-4.9906-0.5597-2.5611-2.0728-9.5752-2.7168-12.73-0.4929-2.41-0.74519-3.6189-0.61095-6.9705 0.14781-3.7403 1.1843-13.547 4.6924-14.007 5.6191-0.72833 11.367 12.227 13.479 21.223 0.25814 1.0974 0.55193 4.0995 0.788 8.0304 0.45723 7.625 1.5805 17.021 2.969 19.373 1.7134 2.9049 10.742 5.5879 18.528 5.2558 8.3839-0.36125 15.738-3.6579 16.444-7.3156 0.28277-1.4703-0.50586-5.5983-3.0034-23.524"/>
   <path d="m86.451 150.76c-1.4566-0.45205-4.6306-5.6358-6.4227-9.5239-1.528-3.3141-2.5734-6.0179-5.682-9.1641l-0.64401 1.2316c2.1875 2.2888 3.8667 5.3908 5.4367 8.4909 1.7407 3.4367 4.6098 9.0479 7.0174 9.7976 2.6902 0.83729 12.04-5.1235 16.283-9.4125l0.15112-1.9548c-3.8116 4.471-14.107 11.169-16.14 10.535"/>
   <path d="m69.446 118.75-0.07394 0.99097c3.9348-0.0187 9.0084 3.9866 4.7091 11.485-1.875 3.2694-2.7804 4.0728-5.3661 4.0412-1.6823-0.0221-2.731-1.2342-3.0203-3.0152l-0.66087 1.7024c0.68227 1.4255 1.991 2.2835 3.6689 2.305 2.9885 0.0403 4.1105-0.50458 6.357-4.4225 3.9601-6.9084 1.5909-12.701-5.6138-13.087"/>
   <path d="m54.286 132.52c0.0136-1.648 0.79837-1.6097 0.94235-0.0254 0.28536 3.1338 2.899 5.1722 5.9588 4.5548 2.0469-0.41118 3.9822-3.0702 3.7272-6.835-0.3379-4.9946-3.4522-8.5414-8.114-9.0351-2.9087-0.30937-4.9847 1.2426-6.0976 2.0746-0.89371 0.67903-1.6798 1.0351-2.5585 0.15314-1.0033-1.0072-0.75037-1.4644 0.4423-0.73222 0.73546 0.4514 1.0442 0.12005 1.5208-0.21532 1.1609-0.81587 3.4957-2.6175 6.7981-2.2673 5.165 0.54737 8.7439 4.4548 9.116 9.9546 0.29508 4.3589-2.1175 7.6542-4.639 8.1102-4.6008 0.8308-7.1244-2.2486-7.0965-5.7371"/>
   <path d="m84.228 162.91c-3.8316 0.21143-14.152-2.4054-19.682-5.6579-2.9944-1.7615-11.446-9.5188-15.004-13.351-5.3408-5.7559-7.3538-15.028-3.1417-22.044 4.405-7.3364 7.3676-11.966 15.3-12.923 2.0644-0.24774 3.5391 0.47799 4.6319 1.9184 2.5877 3.4134 3.342 8.8145 1.2634 12.464-1.2549 2.2019-1.7024 1.9976-3.331 1.7349l0.30352 1.395c1.6194 0.19912 2.6129-0.0772 4.0061-2.5216 2.137-3.7493 2.7589-8.8365-1.3419-14.075-1.336-1.707-3.3511-2.4269-5.7682-2.1337-8.3747 1.0079-11.008 4.9867-16.04 13.526-4.305 7.3058-3.1053 17.063 3.0391 23.684 3.6779 3.9632 12.467 11.57 15.576 13.413 5.7864 3.4334 16.879 5.7949 20.239 5.6794 3.5579-0.12263 10.198-3.8498 15.579-9.3391l0.53636-2.5657c-4.6008 5.6081-12.566 10.618-16.164 10.796"/>
   <path d="m56.86 118.7c0.17057 0.69071 0.40015 1.5351 0.74195 2.1824l1.9495 0.35995c-1.1706-0.94754-1.7323-2.0079-2.0189-2.8413-0.57267-1.67-1.063-1.2867-0.67255 0.29898"/>
   <path d="m119.83 65.641c0.2257 1.3542-9.6958 6.5971-18.551 8.701-5.2669 1.2504-11.975 1.8263-16.091 1.1077-0.22829 0.28795-0.4501 0.59213-0.66672 0.90992 2.4418 0.50457 9.605 0.70108 16.987-1.0526 8.7393-2.0759 19.075-7.2858 19.336-9.1498 0 0-0.88137-0.84961-1.0143-0.51625"/>
   <path d="m140.44 198.3c1.624-1.0079 8.6997-5.2046 11.636-7.4018 0.82105-0.61418 0.87814-1.9858 0.0129-2.508-0.77112-0.46567-0.64271-0.8107 0.19132-0.5156 1.7148 0.60638 1.6836 2.7712 0.29055 3.6708-3.1856 2.0566-8.0199 5.3525-11.862 7.4421-1.4132 0.76855-1.864 0.30288-0.26786-0.68745"/>
   <path d="m152.92 208.84c-0.43647-1.8088-1.5053-6.4148-2.0287-8.7826 0.26008-0.18035 2.9223-2.0015 4.0386-2.8063 0.31648 1.7128 1.9561 9.7814 1.9561 9.7814-0.87231 0.63429-2.2532 1.2569-3.9658 1.8075m4.667-3.3446c-0.65633-3.2297-1.5429-7.5875-1.7654-8.8976 1.9068-1.2965 3.0139-2.6001 2.6514-5.0814-0.22699-1.552-1.6518-6.3486-10.39-5.6399-0.18347 0.34891-0.37939 0.70238-0.57461 1.0545 5.7358-0.61806 9.4546 1.1233 9.9826 4.7293 0.2549 1.7466 0.48058 2.9931-7.4829 7.8059-0.17061 0.1024-0.24192 0.3165-0.19976 0.51171 0.54608 2.5002 1.9112 8.3703 2.2311 9.6452 0.0811 0.32233 0.31 0.45008 0.62455 0.3554 1.3062-0.39303 3.7038-1.2219 5.0852-2.3602 0.14266-0.11674 0.20818-0.30158 0.17116-0.48187z"/>
   <path d="m141.71 195.1c0.24646 0.0195 2.8043 0.5117 3.8077 0.74908 0.47992 1.096 3.7421 17.146 4.2239 19.088 0.32169 1.2926 1.242 1.0422 0.93068-0.44361-0.40471-1.9366-3.7123-18.454-4.4089-19.346-0.0721-0.0908-0.16086-0.16601-0.27045-0.19845-0.6239-0.18484-2.4561-0.45983-3.5353-0.60446-0.28082 0.31261-0.75167 0.75622-0.74777 0.75622"/>
   <path d="m146.39 190.84c-0.0934 0.0226-0.49549 2e-3 -1.1051-0.0331-0.0803 0.12446-0.52792 0.489-0.66477 0.68617 0 0 1.312 0.0746 1.5656 0.0746 0.47928 0 0.61547-0.0577 0.85218-0.28666 1.9022-1.8445 0.93327-2.6499-0.52466-2.5398-0.19068 0.32038-0.23738 0.32946-0.43843 0.65309 1.4878-0.19976 1.4164 0.68682 0.3152 1.4456"/>
   <path d="m147.15 200.75c-1.4138 0.98191-3.556 2.2511-5.0588 3.1332-0.12263 0.0713 0.14339 1.0675 0.14339 1.0675 1.5591-0.9151 3.6948-2.168 5.2553-3.2499 0.22439-0.15627-0.11417-1.1051-0.33985-0.95077"/>
   <path d="m144 211.92c1.4722-0.28212 3.9296-1.144 4.9834-1.6707 0.24322-0.12189 0.68876 0.76529 0.44296 0.88788-1.1324 0.56617-3.6676 1.4566-5.2397 1.7582-0.0311 7e-3 -0.45593-0.92355-0.18678-0.97543"/>
   <path d="m160.86 207.09c-0.88852-1.5163-2.4015-2.606-4.1169-3.0429l0.21921 1.1025c1.264 0.44425 2.3795 1.312 3.0417 2.4418 1.5033 2.5657 0.59083 5.9168-2.6278 6.8771-2.6947 0.80421-10.338 2.5993-13.886 3.3503 0.15498 0.30352 0.31454 0.6077 0.47602 0.91446 3.6741-0.78669 11.045-2.4179 13.698-3.1986 3.9122-1.1512 5.2274-4.979 3.1954-8.4448"/>
  </g>
  <g fill="#fdd34e" stroke-width="1.8384">
   <path d="m92.924 69.244c-6.5264-3.3297-15.722-2.1603-22.818 3.1871-7.2399 5.4562-11.435 12.175-12.78 22.932-0.38783 3.1066 0.24969 3.602 0.95077 4.3103 3.5904 3.6228 14.867 5.224 19.507 3.0086 2.1344-1.0195 2.3212-1.7777 2.2122-4.2701-0.77633-17.696 5.556-26.957 12.791-27.264 1.7212-0.0733 2.0772-0.91511 0.13619-1.9048"/>
   <path d="m98.761 67.443c0.2685 2.6267-0.73287 2.3335-2.0949 0.71211-11.021-13.118-18.493-26.383-15.969-45.21 0.36967-2.7602 0.93651-4.1566 2.4456-5.645 4.6593-4.5936 13.794-4.141 17.87-0.71211 1.7239 1.4502 2.3263 2.8641 2.5236 5.176 0.45334 5.3058-0.42868 8.1912-2.0702 13.394-4.2059 13.328-3.4945 24.57-2.705 32.286"/>
   <path d="m105.29 65.954c-0.81653 2.615-1.9035 2.7227-2.3024 0.0649-3.6656-24.385 5.9168-43.648 16.582-46.163 9.9028-2.334 16.528 7.6542 14.489 14.844-0.88852 3.135-3.6059 5.0385-7.819 6.9259-10.088 4.5184-16.504 10.081-20.951 24.328"/>
   <path d="m108.85 65.512c-0.13034 2.1175 0.72573 2.139 1.7238 0.58629 3.3744-5.2487 6.8376-8.662 12.326-9.511 5.5016-0.85156 9.9313 0.97024 14.332 5.047 1.526 1.4132 3.2641 4.0638 5.466 4.2214 0.67968 0.0487 3.8588-1.2537 5.3869-2.3789 5.6774-4.1721 7.5765-15.815-2.8433-21.166-8.2898-4.2565-34.746-3.4547-36.391 23.201"/>
   <path d="m150.44 154.86c-5.5458-7.7248-18.064-14.624-22.646-17.91-0.71406-0.5117-0.99942-0.93066-1.1311-1.6499-1.1641 4.4199-1.5448 13.09-1.5448 13.09 0.84116-0.64725 1.7582-0.42934 3.3231 0.25747 4.61 2.0215 12.538 8.426 12.5 10.962-0.0285 1.9307-5.5601 5.2786-8.4876 7.4649-2.1519 1.6071-2.6129 1.7491-4.9821 1.5338-5.7015-0.5195-7.6873-0.12906-9.871 1.6369-2.7694 2.2406-4.9782 5.2856-6.5438 8.1653-1.0007 1.8406-1.2134 4.3044 0.6317 5.6748-0.0233 0.35283-0.0279 0.71406-4e-3 1.0863 0.30481 4.7429 3.514 8.7781 8.1646 10.02l-0.0447 0.16987c2.6506 5.3628 15.909 9.7697 25.234-4.3666 6.0166-9.1231 7.898-16.581 8.2852-26.674 0.14726-3.8103-0.34763-5.9296-2.8828-9.461"/>
  </g>
  <g stroke-width="1.8384">
   <path d="m144.46 212.93c-0.62908-2.1195-1.8004-7.3481-2.3614-8.9979-0.24322-0.71665-0.6466-1.251-1.1408-1.6402 1.0889 1.7271-0.40404 3.0152-2.1816 4.2188-11.276 7.636-46.628 13.052-57.158 9.6712l0.0973 12.082c19.206 1.358 41.719-0.81135 62.004-11.702 1.2212-0.65504 1.4015-1.4035 0.74065-3.632" fill="#38383a"/>
   <path d="m86.857 222.38c-0.77243 3.5327-4.3758 9.8015-13.014 8.055-4.6488-0.94041-8.3708-5.9368-7.1244-12.714 1.0708-5.8239 6.4699-10.616 12.762-9.0939 6.5017 1.5727 8.6374 7.9785 7.3759 13.753" fill="#a5abc1"/>
   <path d="m84.477 211.54c0.31324 1.192 0.37097 1.9417 0.37097 1.9417-0.011 13.537-10.374 16.482-17.076 12.254 1.3341 2.5105 3.5638 4.2052 6.0717 4.713 8.6387 1.7472 12.241-4.5218 13.014-8.055 0.84961-3.8906 0.14982-8.0622-2.3807-10.854" fill="#9094a8"/>
   <path d="m79.548 208.65c5.1586 2.4035 6.5264 8.1458 5.3972 13.475-0.64596 3.0547-3.2818 8.0848-9.1952 8.5802 7.2878 0.54803 10.423-5.0477 11.137-8.3131 1.2595-5.7636-0.86646-12.153-7.3389-13.742" fill="#9094a8"/>
   <path d="m144.46 212.93c-0.62908-2.1195-1.8004-7.3481-2.3614-8.9979-0.24322-0.71665-0.6466-1.251-1.1408-1.6402 1.0889 1.7271-0.40404 3.0152-2.1816 4.2188-1.5974 1.0824-3.9017 2.2219-6.3267 3.1953 1.3483 4.0774 2.606 7.6743 3.8893 10.491 2.5411-1.0818 4.8959-2.3017 7.3805-3.6351 1.2212-0.65504 1.4015-1.4035 0.74064-3.632" fill="#292526"/>
  </g>
  <g fill="#ffe450" stroke-width="1.8384">
   <path d="m76.321 71.34c-9.6647 5.036-15.998 17.077-15.757 25.499 1.0052-0.16987 2.1603-0.25813 3.3803-0.2685 0.2069-9.6239 5.0236-18.296 12.808-24.66 1.2796-1.0468 1.1038-1.3684-0.43063-0.56943"/>
   <path d="m88.795 51.417c1.0902 1.812 1.576 1.3107 0.84442-0.64597-3.8232-10.215-4.8874-24.66-0.64531-36.454-1.3224 0.28731-2.5909 0.74713-3.7349 1.4015-2.9814 9.705-2.6609 25.396 3.5358 35.698"/>
   <path d="m104.46 50.741c-0.19523 2.1052 0.3593 2.2006 0.82495 0.16474 2.3289-10.169 12.071-25.969 21.256-30.619-1.2841-0.50134-2.6909-0.78085-4.2026-0.76594-9.2172 6.0555-16.93 20.997-17.879 31.22"/>
   <path d="m150.81 46.669c-6.3558-4.6054-14.78-4.0651-19.237-3.0288-2.0474 0.47473-1.5377 0.88137 0.14781 0.73805 6.2177-0.52663 13.703 0.17187 20.927 5.3233"/>
   <path d="m121.47 174.03c-1.6078 0.47279-1.9099-0.0147-0.72768-1.0026 2.4425-2.0372 6.5025-2.491 11.145-2.1026 3.3803 0.28276 3.2323-0.0246 4.6578-1.3587 1.5046-1.4074 5.7267-6.1146 7.1178-7.7632 1.2219-1.4502 1.7141-1.4242 1.0344 0.51625-0.80483 2.3004-4.3019 6.972-5.7092 8.5732-1.8328 2.0857-3.8167 3.1871-6.3896 2.7499-2.5721-0.43648-7.3759-0.71147-11.128 0.38783"/>
  </g>
  <g fill="#e18b4f" stroke-width="1.8384">
   <path d="m58.564 89.191c-0.15435 0.55386-0.29834 1.0066-0.43194 1.5876 5.8934-3.4665 19.601-1.8172 21.752 4.1916 0 0 0.0824-1.4469 0.11869-2.194-1.9289-3.9581-13.948-7.3002-21.438-3.5853"/>
   <path d="m67.771 101.25c1.9807 0.22245 7.2209 0.43063 7.2378-0.2205 0.013-0.46242-3.639-1.4807-6.4738-1.8088-3.5858-0.41572-6.8786-0.50003-6.8838-0.039-0.0072 0.6025 2.3574 1.6454 6.1197 2.0682m-7.4544-2.2596c0.0655-1.0883 3.8303-1.2063 8.603-0.65892 3.4411 0.39496 7.771 1.7822 7.6042 2.8964-0.20949 1.3989-6.8604 1.0364-8.786 0.75426-5.0321-0.73805-7.4844-1.962-7.4213-2.9918"/>
   <path d="m125.51 28.435c-4.3252-5.3913-11.621-4.4607-14.601-2.1577-0.64076 0.7841-1.1395 1.1739-1.7303 2.0883 5.9296-4.881 12.533-2.6837 15.364 0.84506 2.9218 3.6423 3.8621 10.384-0.85284 13.752 0 0 1.5688-0.88332 2.5637-1.3289 6.4e-4 0-0.11545-1e-3 -0.11545-1e-3 2.3153-2.1344 3.3854-8.1958-0.62716-13.197"/>
   <path d="m128.49 24.773c-2.5539-2.6922-8.151-4.4918-13.577-2.6253-1.1038 0.76594-1.5916 1.2342-2.6124 2.3438 5.9324-3.6261 12.546-1.7576 15.29 1.135 3.3367 3.5165 4.3129 9.8754 0.52339 15.169 0.81392-0.41442 1.4411-0.83857 2.1065-1.2835 2.6953-5.3538 1.5552-11.277-1.7297-14.739"/>
   <path d="m144.35 57.131c3.4316-4.6929 3.4316-11.681 0.77892-14.634-0.11748-0.0649-1.0824-0.74323-1.792-0.97671 3.6746 4.023 2.9795 10.562-9e-3 14.908-1.7252 2.508-4.5911 4.4335-7.2956 4.0905 0.51948 0.41638 1.3691 1.1479 1.3931 1.1693 2.5539-0.1103 4.8666-1.742 6.9246-4.5567"/>
   <path d="m148.2 58.438c2.205-3.4886 3.2161-9.6588 0.52922-13.406-0.83923-0.81004-1.1298-1.325-2.2907-1.9897 3.9517 4.6716 3.1689 10.847 0.71276 14.732-2.1123 3.3395-5.5594 5.2091-8.7288 4.7188 0.71665 0.58303 0.82367 0.59861 1.6973 0.95013 3.2836 0.0585 6.1392-1.9373 8.0804-5.0054"/>
   <path d="m115.49 178.87c-0.44425-0.52923-1.635-1.984-0.82171-5.6522 0.48381-0.8308 2.0805-2.2129 2.0805-2.2129-2.4074 5.1378-0.57785 7.1989 0.26591 7.5621 0 0-1.0156 0.33012-1.5248 0.30287"/>
   <path d="m112.95 180.69c-0.53181-0.48057-1.253-1.3133-1.7556-2.6026 0.2017-0.61482 0.86452-1.397 0.86452-1.397 0.29056 1.2394 0.91836 2.3543 1.7148 3.0735-0.26073 0.27499-0.57721 0.75233-0.82367 0.92614"/>
   <path d="m118.25 194.57c-3.7026-4.1975-0.99488-10.737 3.9892-11.455 0.28665 0.2685 0.44554 0.45852 0.76853 0.89564-5.8221 0.79123-7.208 8.531-2.4495 11.118 0 0-1.4995 0.0364-2.3081-0.5584"/>
   <path d="m123.98 199.16c-0.88398-0.81328-1.2815-2.5592-1.1661-3.4049 0.334-0.0544 1.2971-0.18348 1.2971-0.18348l0.011-0.0147c-0.57656 1.229 0.32362 3.4522 2.2809 4.0346 0 0-1.2478 0.22311-2.423-0.43063"/>
   <path d="m148.29 185.17c2.7681-13.522-5.7403-20.324-15.509-18.244 0 0 0.87101-0.95857 1.7842-1.4132 8.6641-1.1518 16.12 4.7019 15.229 16.465-0.33334 1.4709-1.5046 3.1922-1.5046 3.1922"/>
   <path d="m150.18 181.19c1.7783-9.967-4.5795-19.138-14.294-16.543 0.38329-0.40209 1.3243-1.1674 2.0592-1.4852 7.243-0.64853 13.373 4.6085 13.501 13.659-0.16141 1.6447-0.57461 3.2615-1.2666 4.3694"/>
   <path d="m113.58 190.87c-0.34373-3.4036 0.84312-5.4536 1.9494-6.5977 1.541-1.5909 3.846-2.3484 6.376-2.1072 0.12777 0.0129 0.54542 1.2329 0.23283 1.1933-2.3114-0.31196-4.4153 0.31455-5.7767 1.7199-1.4534 1.5008-1.9787 3.7382-1.5222 6.4712 0.0531 0.3165-1.2309-0.39887-1.2595-0.67968"/>
   <path d="m146.93 186.9c0.22504-6.913-0.92224-11.424-3.6092-14.199-2.5306-2.6111-6.5556-3.8283-12.664-3.8283-0.0147 0-0.0395 6e-3 -0.046 0-0.31974 0 0.63622-1.1551 0.92417-1.1499 5.957 0.11748 10.003 1.3276 12.638 4.0482 2.7486 2.8361 3.9958 7.3604 3.9399 13.907-4e-3 0.41184-1.1946 1.5423-1.1836 1.2225"/>
   <path d="m103.54 21.769c-1.3373-2.2953-5.787-4.5151-10.876-4.2804-3.9996 0.18483-9.3332 1.7757-12.413 5.3479-0.0506 0.85997-0.0778 1.707-0.0856 2.5442 1.5157-3.6974 7.0737-6.4155 12.544-6.6606 4.8199-0.21598 8.9869 1.5552 10.942 5.0865-0.02-0.61677-0.037-1.1648-0.11215-2.0377"/>
   <path d="m103.58 26.279c-1.3289-1.9632-5.368-3.8958-10.388-3.8958-5.0801 0-10.02 1.921-12.928 5.3818-0.0396 0.85997-0.0558 1.7083-0.0525 2.5449 1.5896-4.0243 6.9823-6.5523 12.98-6.7275 4.7266-0.13878 9.0362 2.1116 10.155 4.5587 0.0985-0.59601 0.23477-1.8594 0.23284-1.8619"/>
   <path d="m79.965 98.549c-0.0298-0.67839-0.0143-1.5059-0.024-2.1598-1.7498-1.8776-5.4706-3.5858-10.697-4.2888-3.9458-0.53115-9.714 0.0292-11.572 1.0876-0.08236 0.47409-0.17965 1.0922-0.24969 1.5825 3.1163-1.5825 8.1853-1.8412 11.726-1.3464 5.4257 0.75816 9.002 2.5144 10.816 5.1248"/>
  </g>
  <g fill="#8f580f" stroke-width="1.8384">
   <path d="m139.98 59.287c-9.5259-7.6652-23.033-9.712-30.652 7.8851 0.32169 0.0544 0.77436-0.32558 1.2621-1.0837 3.3744-5.2487 6.8376-8.662 12.325-9.511 5.5024-0.85155 9.9313 0.97024 14.332 5.0464 1.4476 1.3412 3.0054 4.0015 5.0788 4.1728 3.7675 0.31324 7.682-3.2615 9.491-7.6075-3.0722 2.9847-7.4914 4.5944-11.837 1.098" opacity=".329"/>
   <path d="m135.69 195.56c-5.3954 3.4606-11.779 2.4866-15.463 0.51948 3.4211 5.001 15.899 8.4072 24.8-5.0885 6.0173-9.1226 7.898-16.58 8.2859-26.674 0.0544-1.4009 0.02-2.5729-0.16859-3.6708-0.90472 9.6914-4.8551 26.832-17.455 34.913" opacity=".329"/>
   <path d="m58.276 99.67c3.5904 3.6228 14.867 5.224 19.507 3.0086 0.73416-0.35088 1.2342-0.67126 1.5753-1.0422-0.11025-0.83403-1.2491-1.7031-2.9185-2.4769-0.47409-4.464 0.89305-13.802 2.4425-17.93 0.70043-1.8653 0.0882-2.3782-1.1499-0.75945-3.2174 4.2033-4.8143 12.566-5.2209 17.285-4.8681-1.6149-13.643-1.6849-15.166 0.49613 0.18938 0.70952 0.54998 1.0351 0.93002 1.419" opacity=".329"/>
   <path d="m109.15 62.681c4.0333-9.9236 21.017-21.471 29.541-22.136-6.0984-0.59796-11.699-0.43324-18.901 4.5074-3.3518 2.2978-6.7481 4.8913-7.8857 8.1756-0.36124 1.0435-2.755 9.4538-2.755 9.4538" opacity=".329"/>
  </g>
  <path d="m124.09 188.39c-1.0377-0.79901-0.98579-1.5176 0.60445-0.95012 2.052 0.73091 5.8403-1.3016 8.1866-2.3328 2.0313-0.89306 2.2771 0.14009 0.62585 1.4041-2.4839 1.9002-7.1678 3.613-9.4169 1.8789" fill="#ffe450" stroke-width="1.8384"/>
  <g transform="matrix(1.8384 0 0 1.8384 -89.217 -123.99)" fill="#0f141b">
   <path d="m95.775 188.41h0.0032zm-10.689-2.4857c-0.67451 3.6706 1.3839 6.1415 3.6632 6.6026 0.57644 0.35912 1.2524 0.35912 2.2405 0.11959 2.5139-0.28963 4.0425-2.1057 4.5212-4.2944 0.62406-2.854-0.30304-6.3122-3.8121-7.161-2.6384-0.63782-5.9468 1.1105-6.6128 4.7332m3.5564 7.1321c-2.5315-0.51224-4.8246-3.2202-4.0873-7.2295 0.7172-3.9017 4.3078-5.878 7.2711-5.1601 2.7065 0.6544 5.1791 3.3747 4.2125 7.8006-0.62865 2.8804-3.3345 5.4077-7.3963 4.5889"/>
   <path d="m94.92 188.32c0.53269-2.516 0.04621-5.3058-1.9491-6.9222-0.38453-0.19685-2.3551-0.59407-2.3304-0.59125 3.4777 0.36124 4.5367 4.5918 3.9423 7.402-0.60678 2.8667-3.387 5.1495-6.6103 4.3639 0.23601 0.091 2.322 0.42228 3.0586 0.30551 2.3364-0.78846 3.5292-2.8589 3.889-4.5579"/>
   <path d="m85.126 189.82 2.1213-7.8751s0.59196-0.35913 0.42651-0.21555l-2.2564 8.3781c0.09419 0.12065-0.29139-0.28751-0.29139-0.28751"/>
   <path d="m84.753 187.92 1.1889-4.4161s0.68016-0.93698 0.57785-0.79305l-1.5674 5.836c0.03105 0.12065-0.19932-0.62689-0.19932-0.62689"/>
   <path d="m87.949 188.85c-0.25259 1.9569-0.0949 3.3888 0.68509 3.5496 0.79234 0.1651 1.8069-0.87277 2.5749-2.9556 0.1524-0.41557 0.26388-0.40746 0.25753 0.0624-0.01623 1.1046 0.10266 1.8574 0.50377 1.9406 0.45755 0.0949 1.4863-1.1924 2.013-3.3316 0.46284-1.8782 0.44591-3.6195-0.14464-3.7504-0.37006-0.0819-0.95356 0.46849-1.3497 1.2774-0.30339 0.62054-0.49107 0.61313-0.34325-0.10548 0.36195-1.7565 0.35631-3.7218-0.50341-3.9948-0.55668-0.1771-1.9625 1.0781-2.734 3.3426-0.20743 0.61277-0.39194 0.58208-0.32032-0.0614 0.20108-1.809-0.0187-1.8994-0.18944-1.9498-0.26211-0.0787-1.1504 1.1973-1.6439 3.1521-0.44556 1.7646-0.53411 3.8269-0.09278 3.9232 0.30374 0.066 0.6477-0.31256 1.0541-1.1402 0.18415-0.37536 0.28575-0.36795 0.23319 0.0413m0.57679 4.0781c-0.91687-0.18697-1.1839-1.7025-1.0255-3.0886-0.23777 0.35666-0.64876 0.70908-0.9652 0.6343-0.89394-0.21767-0.57538-3.0018-0.1771-4.5805 0.43639-1.729 1.4714-3.7744 2.2063-3.5338 0.32879 0.10549 0.49354 0.66993 0.47978 1.264 0.72637-1.729 1.8507-2.7249 2.6529-2.5449 1.1331 0.25541 1.2566 1.8507 1.065 3.3461 0.32632-0.36407 0.70485-0.6664 1.161-0.59302 1.0506 0.16615 0.99448 2.1583 0.4258 4.4676-0.4759 1.9343-1.6231 3.7973-2.4035 3.6809-0.49107-0.0737-0.75071-0.48013-0.80257-1.3356-0.82338 1.6979-1.8009 2.45-2.6169 2.2835"/>
   <path d="m90.451 187.32h0.0032zm-0.01411-2.2941c-0.26882-0.0773-0.6791 0.68791-0.9966 2.0447-0.2473 1.0555-0.40358 2.1974-0.12206 2.2849 0.24906 0.0769 0.54116-0.39758 0.94227-2.0796 0.36583-1.5356 0.38029-2.1914 0.17639-2.25m-1.2481 4.8874c-0.55457-0.12241-0.57573-1.3289-0.1905-2.9743 0.42051-1.7949 1.0488-2.5693 1.5681-2.4465 0.381 0.0903 0.71438 0.51646 0.14711 2.8903-0.26882 1.1236-0.79093 2.6857-1.5247 2.5305"/>
   <path d="m127.37 183.19c-0.15311-0.51611-1.0763-4.3956-1.2238-4.9047-0.43885-1.5162-2.0592-1.8038-3.0275-1.4866l0.16368 0.52846c0.53376-0.0557 1.4884-0.0607 1.7568 0.37253 0.15628 0.25294 0.4191 0.42545 0.53234 0.75918 0.16298 0.48048 1.0604 4.3572 1.2174 4.8849 0.33901 1.1434-0.0339 1.434-0.55916 1.7346-11.352 6.4968-26.531 6.7829-31.999 6.2473-0.17992 0.17992-0.53022 0.5581-0.74295 0.71614 7.4919 0.74471 23.47-0.62794 33.379-6.5814 0.80469-0.48366 0.86783-1.0396 0.50271-2.2705"/>
   <path d="m125.03 177.7c1.984 2.9799-19.836 8.7168-29.25 7.4027 0.04092 0.18203 0.09772 0.59372 0.12382 0.77964 12.163 1.016 31.18-5.1322 29.739-7.8606-0.0699-0.13299-0.69568-0.44591-0.61313-0.32173"/>
   <path d="m99.519 105.78h0.0032zm-19.54 13.569c-0.18627 1.4922 0.07761 1.7427 0.39582 2.0754 1.3437 1.4037 7.1388 2.8572 10.348 1.6281 1.0012-0.38311 1.0266-1.2319 0.98672-2.0669-0.42616-9.0629 2.7919-14.687 7.2951-15.037 0.88688-0.0688 0.69532-0.38912 0.16898-0.65017-6.8157-3.3838-17.721 2.2708-19.194 14.05m-0.11324 2.5844c-0.47696-0.45261-0.69003-0.95567-0.48613-2.588 1.6358-13.086 13.486-17.708 19.818-14.478 1.3603 0.69391 0.91052 1.3945-0.19297 1.5025-1.4037 0.13758-2.5238 0.72213-3.5564 1.8475-2.2737 2.4786-3.26 7.0048-3.0081 12.744 0.05997 1.373 0.02222 2.0144-1.2936 2.642-2.9242 1.3952-9.0981 0.39829-11.28-1.67"/>
   <path d="m94.07 77.177c-0.76094 0.75071-1.0537 1.4316-1.2527 2.9143-1.4337 10.698 3.1076 17.914 8.4346 24.255 0.58632 0.69744 0.81103 0.62477 0.72848-0.18591-0.49565-4.8451-0.70696-10.733 1.482-17.671 1.712-5.4261 1.1455-8.5736-0.0635-9.5906-2.1982-1.8493-6.9811-2.0376-9.3289 0.27764m6.8319 27.517c-5.5337-6.1704-10.272-13.959-8.8099-24.865 0.21449-1.6034 0.55668-2.3872 1.4083-3.2269 2.6183-2.5823 7.8599-2.3156 10.21-0.33796 0.95179 0.80045 1.3494 1.6133 1.4679 2.999 0.25435 2.9782-0.26952 4.639-1.1377 7.3896-2.1594 6.8435-2.0133 12.663-1.524 17.453 0.15099 1.4743-0.63041 1.6859-1.615 0.58844"/>
   <path d="m105.8 103.32h3e-3zm7.8292-24.685c-5.7302 1.3508-11.113 12.858-8.8279 24.669 0.16933 0.87595 0.47519 0.66146 0.7052-0.0455 2.5912-7.971 6.1592-11.055 11.579-13.482 2.334-1.046 3.6378-2.3336 4.0474-3.846 0.85831-3.1655-2.2451-8.5348-7.5036-7.2958m-9.3486 24.76c-1.9248-12.8 2.8437-24.026 9.1609-25.413 2.4966-0.54822 4.6288 0.07444 6.109 1.3741 2.0969 1.8422 2.8053 5.0733 2.267 6.7021-0.81421 2.462-1.8814 3.1249-4.4475 4.2739-5.2797 2.365-8.8759 5.2617-11.313 13.068-0.50271 1.6115-1.5462 1.5272-1.7769-5e-3"/>
   <path d="m108.48 103.32c1.5674-2.4388 3.4657-4.8366 6.8689-5.3629 3.634-0.56374 6.3165 1.1543 10.23 4.7805 0.52916 0.49037 5.8716-0.78987 5.7549-6.2593-0.14252-6.6908-9.8767-8.836-16.843-4.8712-3.9084 2.2239-6.0477 6.2039-6.4735 11.487-0.0751 0.93733 0.15099 0.7105 0.46249 0.22578m-0.39723 0.42051h3e-3zm-0.60395-0.67874c0.19685-3.187 1.0386-5.6236 2.1675-7.4824 1.5215-2.5061 7.1769-5.7295 9.042-6.1337 6.3821-1.3836 13.185 1.0936 13.312 7.021 0.12136 5.6871-5.5781 7.97-6.871 6.7716-5.1883-4.8066-6.87-5.1862-9.6986-4.7477-2.5795 0.39864-4.4679 1.863-6.5183 5.0525-0.56974 0.88582-1.5286 1.0442-1.434-0.48119"/>
   <path d="m91.144 122.83 0.81844-0.1584c-0.10619-1.0837-2.1181-2.1548-6.0971-2.7679-2.4716-0.38171-5.4335-0.27023-6.1941 0.76905l0.54786 0.58562c-0.14358-0.1778-0.11642-0.4244 0.39123-0.61207 1.2915-0.47661 3.2985-0.5013 5.2003-0.24977 4.1303 0.5468 5.8857 1.983 5.3333 2.4335"/>
   <path d="m117.12 140.75c0.0617 0.71332 0.21026 0.97966 0.76271 1.3455 3.7468 2.4839 9.9339 6.5098 12.256 9.7441 1.3966 1.9452 1.5914 3.0607 1.5176 4.9788-0.22649 5.8864-1.4993 9.6548-4.5261 14.244-5.2966 8.0299-12.012 4.6923-13.015 2.6645-0.0653-0.13371-0.83255-0.22084-0.77364-0.084 1.3063 3.0388 8.788 6.2057 14.303-2.1562 3.0868-4.681 4.3843-8.6508 4.615-14.648 0.0769-2.008-0.0628-3.3718-1.6189-5.3777-3.2639-4.2065-7.9378-6.671-12.444-9.7398-0.38911-0.26493-0.49424-0.41522-0.54081-0.98142"/>
   <path d="m118.5 148.05c-0.77364-0.33902-1.4393-0.5147-2.056-0.0402-0.65828 0.50624-0.43109 0.69462 0.26776 0.29598 0.35172-0.20073 0.70167-0.14287 1.5713 0.23883 2.6843 1.1772 6.6544 4.5935 6.6375 5.7115-0.01 0.68721-2.0038 2.0895-3.3299 3.0081-1.9981 1.3847-2.2786 1.8983-3.6393 1.6221-2.6839-0.54504-4.3254-0.33055-5.6907 0.88548-3.5408 3.156-5.3354 6.6139-3.0134 8.109l0.0307-0.66076c-0.9518-0.86818-0.52529-3.4177 3.3891-6.8502 1.0446-0.91581 2.0264-1.2968 5.1735-0.85689 1.7258 0.24165 1.9364-0.0984 4.1406-1.7484 2.0281-1.518 3.5899-2.6024 3.6029-3.4974 0.0229-1.5572-4.5724-5.1149-7.0841-6.217"/>
   <path d="m109.01 168.19c-0.1397-2.1766 1.0915-3.6781 3.1366-3.8241 1.5938-0.1143 2.8205 0.83573 3.1175 2.4197 0.078 0.41557 0.15029 0.36195 1.4679 0.0677 0.81951-0.18415 0.94157 0.0699 0.22155 0.44097-1.33 0.68509-2.0362 0.5715-2.2204-0.40922-0.19332-1.0315-0.96767-2.092-2.5485-1.9802-1.7466 0.12453-2.6293 1.4976-2.5086 3.3775 0.28999 4.5148 5.0197 6.2046 8.2614 4.8701 1.1056-0.45508 1.1783-0.0963 0.18063 0.44697-2.539 1.3836-8.7281 0.51118-9.108-5.4095"/>
  </g>
  <g stroke-width="1.8384">
   <path d="m96.261 86.525c-2.135 0.49421-2.6857 3.9342-1.4275 8.4098 1.5585 5.5478 4.1236 6.4602 5.645 5.9532 1.8509-0.61679 2.2804-4.1657 1.0915-8.5258-1.0623-3.8914-3.1805-6.3267-5.309-5.837" fill="#fdd34e"/>
   <path d="m109.81 82.849c-2.3309 0.44491-2.9328 3.604-1.7984 8.3468 1.0442 4.3681 3.2882 6.8545 5.691 6.1574 2.0636-0.5986 2.15-4.3809 1.2005-8.4914-0.83013-3.593-2.8056-6.4486-5.0931-6.0127" fill="#fdd34e"/>
   <path d="m117.53 96.784c0.86323-0.79319 1.0494-0.79902 1.2355 0.0165 0.75102 3.3057-0.77631 8.1984-4.3796 10.462-4.3337 2.7212-9.8456 2.3763-12.37 0.36317-0.68551-0.54672-0.65957-0.98708 0.26655-1.0915 3.641-0.41313 6.5025-1.5027 9.5421-4.6093 2.6714 1.454 4.9531-1.0448 4.0658-3.6358 0.71016-0.57785 1.2984-1.192 1.6395-1.5046" fill="#e18b4f"/>
   <path d="m96.334 86.82c-1.9494 0.45074-2.2401 4.0879-1.1823 7.85 1.4936 5.3182 3.7667 6.2949 5.2248 5.809 1.7751-0.59212 1.9781-3.8583 0.83859-8.0375-0.99877-3.661-3.0527-6.042-4.881-5.6217m-2.0403 8.0881c-1.5124-5.3798-0.17447-8.367 1.8763-8.843 1.9379-0.4462 4.449 1.2452 5.7877 6.1541 0.98967 3.6287 1.288 8.1166-1.3347 8.9902-2.2129 0.7387-4.8214-0.93455-6.3293-6.3013" fill="#0f141b"/>
   <path d="m97.382 89.228c-0.72638 0.26981-0.75103 2.626 4e-3 5.0814 0.79514 2.5896 2.0533 4.1475 2.7992 3.9081 0.47214-0.15167 0.68617-1.9166-0.2283-5.1345-0.75881-2.6694-1.659-4.1949-2.5742-3.855m-0.81068 5.3343c-0.97673-3.1817-0.81977-5.8408 0.52143-6.2728 1.4897-0.48122 2.7668 1.3996 3.7013 4.5554 1.0974 3.7059 0.72185 5.9201-0.27433 6.2962-1.1856 0.44879-2.9372-1.2893-3.9484-4.5788" fill="#e18b4f"/>
   <path d="m110.97 85.661c-0.74324 0.22116-0.90926 2.5403-0.29963 5.0367 0.644 2.6306 1.8095 4.259 2.5675 4.0633 0.47993-0.12262 0.79708-1.8717 0.0708-5.1378-0.62131-2.7966-1.7556-4.1359-2.3386-3.962m-1.1259 5.2402c-0.78994-3.2323-0.42739-5.8713 0.8911-6.1956 1.2498-0.30611 2.6837 1.5598 3.4244 4.728 0.87944 3.7629 0.37551 5.9511-0.64076 6.269-1.2102 0.37939-2.8574-1.458-3.6746-4.8012" fill="#e18b4f"/>
   <path d="m109.83 83.216c-1.7673 0.32557-2.7732 3.1137-1.4962 7.9583 1.1998 4.5477 3.3998 6.4116 5.086 5.8713 1.779-0.57007 2.2245-3.3316 1.1642-8.0063-0.84116-3.7136-2.7155-6.2008-4.754-5.8234m-2.3134 8.1043c-1.1512-4.3258-0.65374-8.3495 2.1778-8.8735h6.4e-4c2.7856-0.51172 4.8461 2.8484 5.6528 6.4083 0.86647 3.8206 1.0189 8.1478-1.7109 8.9402-2.0177 0.58695-4.6552-0.96894-6.1204-6.4751" fill="#0f141b"/>
   <path d="m102.13 107.06c2.2381 2.1318 7.8831 2.6104 11.992-0.14726 3.6325-2.4372 4.9133-6.9972 4.1798-10.228-0.60705 0.52209-1.2738 1.2108-1.9794 1.8354 0.84765 3.019-2.0741 5.027-4.4289 3.8393-2.7227 2.6902-4.8856 3.9535-9.7633 4.7006m-0.41636 0.86323c-0.85286-0.69589-0.8094-1.5585 0.75231-1.8049 4.1293-0.6544 6.6444-2.0469 9.1524-4.6093 0.14652-0.15057 0.25228-0.15958 0.42154-0.0382 2.1583 1.5306 4.4161-1.0558 3.4432-3.0722-0.0824-0.17116-0.061-0.26007 0.0857-0.38004 0.72053-0.58565 1.9248-1.624 2.2486-1.9204 0.70238-0.64465 1.0396-0.62715 1.2225 0.18484 0.88529 3.9302-0.5545 8.7742-4.3809 11.28-4.4271 2.901-9.9416 2.8128-12.945 0.3606" fill="#0f141b"/>
  </g>
 </g>
</svg>
