<?xml version="1.0" encoding="UTF-8"?>
<!-- Created with Inkscape (http://www.inkscape.org/) -->
<svg version="1.1" viewBox="0 0 84.916 103.28" xmlns="http://www.w3.org/2000/svg">
 <g stroke-width="1.3024">
  <path d="m35.392 67.839c0.85836 0.16873 1.7207 0.3035 2.5845 0.39778z" fill="#fff"/>
  <path d="m70.71 38.618c-2.5487-8.1213-9.9533-14.979-19.825-17.533 11.886-1.6058 20.768-8.3027 20.415-10.049-0.11859-0.5783-7.5227-2.0311-15.694 0.97843 5.5423-4.3451 9.5856-10.821 9.2804-11.283-0.61264-0.91193-15.234 1.0556-21.492 12.931 0.67454-5.8606-1.3985-10.848-2.2408-10.976-1.1447-0.17614-9.868 11.947-3.702 17.721-14.134 2.229-23.722 13.642-24.442 24.003-0.24805 3.5573 0.67287 6.9443 2.4156 9.9983-5.5462-11.907 6.5937-29.756 26.173-27.598 10.233 1.1303 17.895 7.2457 19.954 13.767 2.0738 6.5739 0.95265 13.048-4.1799 18.309 1.5122 1.0867 3.315 2.8675 4.2725 4.3944 7.2255-4.6188 11.881-15.691 9.0639-24.664" fill="#6eb92c"/>
  <path d="m24.003 26.151c1.4941-7.5565-3.8599-16.187-5.1082-16.04-1.5157 0.17651-5.2356 11.867 0.91422 19.704 1.2749-1.4134 2.6459-2.6529 4.194-3.6641" fill="#6eb92c"/>
  <path d="m61.553 40.579c-2.0591-6.5217-9.7214-12.637-19.953-13.767-15.911-1.7541-26.791 9.7105-27.495 20.448-0.66861 10.18 11.796 19.39 22.178 20.703-1.0552 3.0633-4.7029 8.1318-8.0473 11.227 0.19946-5.0943-0.57792-8.8124-2.2137-9.2751-3.3693-0.94999-14.081 11.611-14.054 24.19 0.01412 6.9669 5.7996 9.5481 10.505 5.0711 1.8359 0.74438 3.6077 0.85434 7.5718 0.52064 4.3164-0.36633 7.6881-0.26218 12.447 1.5131 1.7513 1.7771 4.8616 2.3917 7.2725 0.0999 0.92083 0.0963 1.815 0.0857 2.7179-0.0628 2.8383-2.7253 4.1885-5.9477 3.8429-10.121-0.51626-6.243-1.5403-14.013-5.0375-19.066l6.0855-13.173c5.1335-5.2599 6.2546-11.734 4.1799-18.309" fill="#e8b67d"/>
  <path d="m27.567 85.869c-0.90034 0.15691-1.6297 0.27382-2.3202 0.28338-0.55965 0.0087-7.9548-2.5772-10.631-3.7523 3.333-7.1816 8.9568-13.016 11.227-12.496 2.309 0.52621 3.192 6.0699 1.7244 15.965" fill="#fff"/>
  <path d="m39.791 85.228c4.7999 0.49494 11.338 1.2111 11.758 1.1062 0.52068-0.13078 1.2307-0.42899 1.931-0.79113-0.65322-7.5232-4.4072-14.372-6.4732-14.58-2.3506-0.2365-6.1689 5.9004-7.2163 14.265" fill="#fff"/>
  <path d="m56.07 73.539c2.4791 4.737 4.2053 11.083 4.3594 16.912 0.1356 5.2859-3.5188 9.4815-7.6764 10.618 2.6547-2.5384 3.8544-6.295 3.6265-9.555-0.52542-7.4892-1.9784-14.289-4.8414-19.27 1.4912 0.79663 2.8665 1.2261 4.5319 1.2945" fill="#6eb92c"/>
  <path d="m12.273 96.997c-4.7949-0.222-8.2342-1.8223-11.21-3.8936-0.9559-0.66519-0.68634-1.1974 0.57425-1.2752 3.2969-0.20352 7.6067-0.77189 10.667-2.1292-0.38016 1.8295-0.50163 5.4291-0.031736 7.298" fill="#ea5433"/>
  <path d="m45.157 27.443c-3.833 1.4663-9.4486 4.3721-13.293 7.2801-1.8156-1.678-3.9091-3.4977-5.9413-5.0701 5.3166-2.9727 13.292-3.9149 19.234-2.2099" fill="#543923"/>
  <path d="m26.775 42.114c-0.2837 0.87823 4.1677 4.3105 5.685 4.0363 1.9754-0.35553 6.1897-4.8003 5.6535-5.6054-1.299-1.9546-10.727-0.30841-11.338 1.5691" fill="#ea5433"/>
  <path d="m49.356 47.002c-5.8342 2.6788-16.734 4.7537-23.566 3.84 2.8363 6.0702 9.5943 12.946 14.496 12.565 5.3928-0.42207 11.249-7.9996 9.0699-16.405" fill="#942f00"/>
  <path d="m43.616 49.011c-3.8664 1.0596-8.335 1.8186-12.365 2.0016 3.0679 4.4004 8.9806 3.6365 12.365-2.0016" fill="#fff"/>
  <path d="m40.286 63.405c4.0853-0.32018 8.4335-4.7473 9.3568-10.528-6.2487-1.2154-14.171 2.8866-16.557 7.3816 2.4253 2.025 5.001 3.3172 7.2002 3.1466" fill="#ee869b"/>
  <path d="m21.088 60.919c-0.42061-4.1893-0.39954-6.7788-0.21438-10.771-2.8206 0.25822-3.8784 0.35886-6.8657 0.82034 1.4622 3.5591 3.2453 7.396 7.08 9.9503" fill="#543923"/>
  <path d="m52.272 44.43c3.3271-0.74059 5.8954-1.2124 9.8977-1.3217 1.5283 3.6951-0.79044 11.715-2.9184 13.615-0.81995-0.60138-5.6136-9.442-6.9793-12.294" fill="#543923"/>
  <path d="m39.765 85.101c-0.62114 4.1504-0.56059 8.6181 0.73792 12.504 1.3918 4.1639 4.0784 5.9402 6.9933 5.0015 3.604-3.3994 4.5769-9.9811 4.0996-16.335-2.0869 0.069592-8.9598-0.79757-11.831-1.1705" fill="#c4996a"/>
  <path d="m12.229 89.76c-0.9617 6.6549 0.69988 11.319 5.3347 11.636 3.7812-1.7722 6.5273-8.4392 8.0092-15.262-1.9407-0.28367-8.1455-2.6328-11.003-3.8954-1.1192 2.4003-1.9706 4.9659-2.3406 7.5209" fill="#c4996a"/>
  <path d="m18.011 88.549c-1.0949-0.27942-2.6076 0.82329-3.3099 3.7324-0.72294 2.9959 0.18059 4.5125 1.1257 4.7801 0.98081 0.27536 2.5812-0.98918 3.2813-3.5758 0.7656-2.822 0.01873-4.6501-1.0971-4.9367" fill="#412a16"/>
  <path d="m45.662 89.477c-1.3203-0.05705-2.8844 1.4815-3.1431 4.7178-0.24056 3.0093 0.83371 5.0112 2.3881 5.2489 1.4051 0.21303 3.1946-1.7829 3.4516-4.9695 0.23824-2.9182-1.3468-4.9391-2.6965-4.9972" fill="#412a16"/>
  <path d="m37.074 55.92c3.6463-0.90618 7.738 1.2628 8.9313 4.4281 1.7306-1.9731 3.1496-4.2255 3.6619-7.4132-3.1571-0.85215-8.7701 0.21635-12.593 2.985" fill="#ce7487"/>
  <path d="m61.892 63.27c4.4931-2.8518 7.5162-8.4935 8.3489-11.624-2.6325 3.8578-6.3067 6.9755-10.574 9.2519 0.82175 0.7581 1.4994 1.5009 2.225 2.3717" fill="#5fa223"/>
  <path d="m42.736 65.277c-6.1479 0.76936-16.225-1.0161-22.203-5.1274 2.4152 3.0346 8.4965 6.1875 15.75 7.8146-0.18686 0.72041-0.35529 1.2332-0.62127 1.7426 1.2876 2.1449 6.1773 3.1204 9.749 1.7978 0.76895-0.5827 1.5319-0.7878 2.2282-0.31337l0.92033-0.51189c-2.0862-1.2195-4.4757-3.6036-5.8235-5.4023" fill="#c4996a"/>
  <path d="m27.106 42.081c1.3109 1.2298 4.1178 2.7836 5.1729 2.705 1.3499-0.10223 5.4419-3.1 5.5553-4.3216 1.2035 1.1661-3.8243 5.5266-5.4378 5.6554-1.6116 0.12703-5.7989-3.3198-5.2905-4.0389" fill="#cb482a"/>
 </g>
 <g fill="#5fa223" stroke-width="1.3024">
  <path d="m19.051 10.115c-1.2544 4.3647-1.4155 13.979 1.9543 18.287l-1.1358 1.364c-5.4556-6.7042-3.288-19.287-0.81844-19.651"/>
  <path d="m40.972 2.7088c0.75906 3.3259 1.2822 9.7636 1.3614 13.164 0.23715-0.55368 0.65901-1.4823 1.1193-2.2474 0.54745-5.9665-1.488-10.871-2.4807-10.917"/>
  <path d="m64.638 0.5076c-3.0723 3.3455-10.297 10.895-15.895 14.771 2.6577-1.4804 5.4652-2.7693 7.2334-3.4658 3.7908-3.0288 9.8339-10.599 8.6619-11.305"/>
  <path d="m71.227 10.846c-3.7076 2.864-16.009 8.5741-23.415 9.3107 0.85528 0.20363 2.1087 0.55964 2.947 0.87878 9.3842-0.56405 21.231-7.7785 20.468-10.19"/>
 </g>
 <g stroke-width="1.3024">
  <path d="m24.147 63.365c-1.9422 4.2703-5.8265 6.119-6.4659 5.5185-0.66333-0.62623 1.3799-5.3269 4.0748-7.2354 0.73156 0.57336 1.3765 1.069 2.3911 1.7169" fill="#6eb92c"/>
  <path d="m53.634 95.036c-0.61649 0.15594-0.81974 0.35236-0.9218 0.89057-0.38597 2.0449-1.1184 3.4674-2.8271 5.2902 0.85425 0.15475 1.8656 0.11513 2.9169-0.14146 1.9193-1.9674 3.3165-4.6444 3.5252-7.43-0.82636 0.6682-1.7428 1.1498-2.6932 1.3907" fill="#c4996a"/>
  <path d="m59.865 85.651c0.01971 3.4646-1.4735 6.3289-3.5369 7.9945-0.20865 2.7856-1.6058 5.4626-3.5252 7.43 4.2646-1.0372 9.2036-5.6479 7.0621-15.424" fill="#5fa223"/>
  <path d="m39.765 85.101c2.871 0.37294 9.744 1.2401 11.831 1.1705-0.49525-6.6007-2.5509-12.958-4.8541-15.255-2.3693-0.12474-5.8325 6.4413-6.9767 14.085" fill="#dcdddd"/>
  <path d="m25.95 69.878c-2.6802-0.11644-8.1528 5.4309-11.381 12.36 2.8578 1.2626 9.0626 3.6118 11.003 3.8973 1.495-6.8811 1.7009-13.921 0.37776-16.257" fill="#dcdddd"/>
  <path d="m33.539 67.44c-1.5539 1.2514-3.7742 3.0026-5.8806 4.5017 0.47885 1.9798 0.80759 4.1385 0.5399 7.0557 2.4018-1.7493 6.7542-7.072 8.0856-11.033-0.7797-0.12631-1.8728-0.32733-2.7449-0.52419" fill="#543923"/>
  <path d="m0.6126 92.348c2.9673 0.82789 7.8053 1.5988 11.231 1.5445 0.0079 0.86648 0.14162 2.1604 0.34934 3.0312-4.8474-0.014685-11.8-3.3792-11.58-4.5757" fill="#cb482a"/>
  <path d="m23.134 35.951c-1.2875-0.22821-2.9601 1.7194-3.5069 5.1795-0.59009 3.7175 0.46559 5.5943 1.5084 5.7834 1.0354 0.19068 2.8014-1.1159 3.4546-5.0025 0.6483-3.8518-0.33993-5.7594-1.4561-5.9603" fill="#0f141b"/>
  <path d="m46.583 32.556c-1.3052 0.06235-2.7738 2.1563-2.5121 5.9935 0.26005 3.8583 1.8406 5.6432 3.0284 5.5886 1.221-0.05152 2.7435-1.9786 2.5151-5.8699-0.23307-4.0472-1.7206-5.7762-3.0314-5.7122" fill="#0f141b"/>
  <path d="m23.136 36.639c-0.48433-0.08817-1.2937 0.51614-1.5834 2.1083-0.25416 1.3953 0.08542 2.5491 0.65377 2.6587 0.61874 0.11782 1.4-0.65427 1.6505-2.2064 0.2254-1.3899-0.092763-2.4462-0.72084-2.5606" fill="#fff"/>
  <path d="m46.157 33.707c-0.60058-0.0066-1.1214 0.80239-1.2054 2.4415-0.07678 1.4864 0.48838 2.5155 1.0129 2.536 0.63312 0.02434 1.1703-0.80526 1.224-2.4712 0.04517-1.4267-0.34533-2.4957-1.0315-2.5062" fill="#fff"/>
 </g>
 <g fill="#0f141b" stroke-width="1.3024">
  <path d="m23.491 26.393c1.4602-7.4057-3.7244-15.774-4.5218-15.686-1.0278 0.11368-4.43 11.316 1.1672 18.73l-0.69346 0.74019c-6.66-8.2591-2.5951-20.351-0.62941-20.614 1.7517-0.23263 7.0326 8.4069 5.7257 16.115z"/>
  <path d="m57.062 58.596c4.695-5.0313 6.0552-11.048 3.9076-17.854-2.3126-7.3214-10.995-12.568-19.423-13.497-18.702-2.0625-31.222 15.122-25.511 27.216l-2.1711-2.9292c-2.5375-11.937 9.317-27.197 27.79-25.16 10.957 1.2086 18.447 7.6819 20.458 14.053 2.5253 8.0007 0.25078 14.18-4.3382 18.691z"/>
  <path d="m46.034 27.645c-4.3077 1.6788-9.5548 4.2485-13.701 7.261-0.4275 0.30917-0.54977 0.32694-0.93498-0.03507-1.8255-1.7116-3.4553-3.0411-5.9244-4.8972l0.98353-0.55296c2.085 1.7208 3.6063 2.9663 5.4312 4.7461 3.6649-2.8563 9.4233-5.6585 12.454-6.9367z"/>
  <path d="m27.278 42.221c-0.14382 0.46853 3.7783 3.7032 5.1174 3.4633 1.6926-0.30568 5.5923-4.429 5.2451-4.926-1.0033-1.4326-9.906-0.0249-10.363 1.4628m5.2063 4.3861c-1.6641 0.2809-6.7455-3.2622-6.2872-4.6714 0.73276-2.2611 10.818-4 12.331-1.7245 0.93602 1.4063-3.7159 6.0041-6.0437 6.396"/>
  <path d="m26.241 50.955c3.2865 6.0549 9.3131 12.25 14.03 11.883 5.4233-0.42375 10.395-7.8908 8.7512-15.14-6.0398 2.7599-17.495 4.71-24.165 3.381-1.5317-0.30508-1.4113-0.97072 0.13177-0.72606 6.6965 1.0618 18.103-1.1315 24.061-3.7727 0.41296-0.18529 0.64648-0.06641 0.77482 0.41917 2.3144 8.7488-3.838 16.517-9.4922 16.956-5.6441 0.44078-12.181-6.8455-15.167-13.191z"/>
  <path d="m44.216 48.817c-3.1615 6.116-9.9504 7.5251-13.454 2.2541l0.98627-0.08567c2.8466 3.6775 8.0733 3.2108 11.272-1.8221z"/>
  <path d="m49.579 53.287c-6.1401-1.16-13.933 2.9982-16.192 7.3208l-0.69146-0.56088c2.4366-4.7254 10.481-8.8507 17.039-7.5616z"/>
  <path d="m20.43 60.461c-0.27922-3.682-0.18074-6.7904-0.01141-9.8437-2.0152 0.20391-4.3304 0.50221-6.4484 0.85175-0.53574 0.08785-0.95961-0.82013-0.40845-0.90099 2.2314-0.32524 4.6543-0.61879 7.1646-0.83183 0.50275-0.04111 0.58526 0.02264 0.56314 0.59318-0.1328 3.6333-0.15167 7.1463 0.27127 11.478 0.02084 0.21729-1.0995-0.92831-1.1308-1.3459"/>
  <path d="m62.161 43.538c-3.0526 0.1735-6.2632 0.59202-9.2509 1.1963 1.3952 2.8776 4.5094 8.0998 6.5379 11.514l-0.62318 0.96661c-1.5942-2.6709-5.473-9.5605-6.862-12.454-0.25644-0.53712-0.17689-0.67529 0.36713-0.78865 3.1279-0.66013 6.3752-1.1502 9.4976-1.3691 0.6457-0.04432 0.87364 0.90554 0.33352 0.93518"/>
  <path d="m24.517 63.555c-1.691 4.3336-6.1627 6.7115-7.2214 5.6971-0.95006-0.90733 1.1198-5.7877 4.1122-7.8717l0.71301 0.52478c-2.7223 1.9001-4.4224 6.3578-4.112 6.6471 0.28808 0.26918 3.9208-1.3701 5.7842-5.4708z"/>
  <path d="m42.697 15.046c1.1611-6.3013-1.261-11.734-1.6176-11.761-0.6819-0.051877-8.9783 11.649-3.0747 17.029l-1.1217 0.21539c-6.2124-5.9727 2.6761-18.752 4.3246-18.517 1.3423 0.18961 3.3294 5.1054 2.7986 10.708z"/>
  <path d="m54.156 12.544c5.8393-4.2995 10.176-11.177 10.018-11.448-0.26053-0.44789-14.844 1.4132-21.011 13.872-0.72374 1.4625-1.2987 1.2006-0.67008-0.30671 5.5292-13.283 21.986-15.76 22.974-14.284 0.55921 0.83355-3.5629 7.1679-8.5127 11.228z"/>
  <path d="m49.695 20.771c13.046-1.6927 21.049-8.4171 20.917-9.4778-0.074848-0.59057-12.095-2.1779-21.63 4.669-1.4846 1.0659-1.888 0.51437-0.43308-0.59685 10.266-7.8438 23.136-5.8614 23.424-4.4689 0.46296 2.2455-8.3478 8.7929-20.148 10.505z"/>
  <path d="m34.217 67.621c-1.9638 1.6119-4.0349 3.2081-6.4688 4.9784l-0.31884-1.0111c2.1862-1.593 3.9239-2.8572 5.69-4.2993z"/>
  <path d="m28.232 78.449c2.8078-2.7753 6.2683-7.1676 7.5445-10.561l1.0442 0.2555c-1.4198 3.8834-5.346 8.8305-8.5747 11.832z"/>
  <path d="m11.424 94.102c-0.07978-12.976 10.744-25.684 14.721-24.631 3.4362 0.90906 3.2101 11.549 0.80926 20.895-0.46181 1.7934-1.1313 1.6268-0.71706-0.17753 2.3214-10.117 1.7823-19.192-0.32044-19.818-2.907-0.86261-13.49 11.626-13.448 23.76 0.02578 7.2871 6.5163 9.1405 11.193 3.1171 1.1781-1.5154 1.6582-1.1547 0.59924 0.4332-4.5658 6.8401-12.782 5.3106-12.837-3.5791"/>
  <path d="m27.447 86.366c-0.8372 0.16929-1.6412 0.25959-2.2027 0.2682-0.68876 0.01146-8.085-2.6214-10.768-3.7479l0.4217-0.94981c2.9667 1.2573 9.7646 3.6948 10.378 3.7424 0.55229-0.0089 1.3804-0.07903 2.3085-0.26536z"/>
  <path d="m19.413 84.228c1.5184-4.324 3.9241-10.409 5.9429-14.425l0.86115 0.1679c-1.9335 4.0255-4.341 10.11-5.8956 14.598z"/>
  <path d="m15.129 92.4c-0.61934 2.5701 0.09138 4.1186 0.82402 4.2727 0.6952 0.1445 2.0554-0.86964 2.7162-3.3093 0.67754-2.4962 0.03396-4.2229-0.74864-4.423-0.93782-0.24066-2.1626 0.85201-2.7916 3.4596m0.56729 5.0404c-1.3709-0.42284-2.071-2.5561-1.4171-5.2687 0.6562-2.7255 2.2216-4.4308 3.8178-4.0221 1.5012 0.38508 2.2386 2.5832 1.4528 5.4829-0.74586 2.7592-2.613 4.1902-3.8535 3.8079"/>
  <path d="m12.574 97.52c-4.3413-0.15151-8.1885-1.4484-11.744-4.0692-1.3308-0.98168-1.0532-1.8933 0.76636-2.0397 3.5625-0.28715 8.0659-0.9629 10.916-2.3489l-0.193 1.1266c-2.5911 1.2155-7.2579 1.8495-10.644 2.0471-0.81073 0.046751-0.81822 0.2317-0.37517 0.52205 3.5878 2.3464 6.8591 3.539 10.924 3.7304z"/>
  <path d="m43.122 102c-4.9978-1.9533-8.4797-2.1987-13.049-1.8119-4.113 0.34776-6.1044 0.27146-7.9755-0.64833l0.73027-0.73888c1.7687 0.61298 3.4707 0.68821 7.214 0.37155 4.6611-0.39371 7.7137-0.15437 11.836 1.3227z"/>
  <path d="m39.827 97.296c-3.1916-13.73 3.2375-27.211 7.2428-26.809 3.1045 0.31213 8.1614 11.207 6.6517 20.526-0.28794 1.7756-0.96446 1.676-0.73065-0.10613 1.1854-9.0345-4.0282-19.255-6.029-19.458-2.8555-0.28946-9.1654 12.377-6.085 25.631 1.2926 5.5574 6.4918 7.1861 9.9734 2.4075 1.056-1.4516 1.532-1.1297 0.61202 0.41062-3.0887 5.1833-9.9928 4.4661-11.635-2.602"/>
  <path d="m53.452 86.038c-0.60449 0.33698-1.3526 0.66885-1.8209 0.75265-0.35425 0.06297-5.3553-0.39949-11.894-1.0834l0.11861-1.0039c3.7568 0.39152 11.167 1.228 11.617 1.1703 0.4909-0.12262 1.207-0.4372 1.9454-0.7814z"/>
  <path d="m47.249 71.047c-0.88562 4.3843-1.472 9.0078-1.9569 14.694l-0.94271-0.05101c0.47569-5.8143 1.1207-10.377 2.0518-14.668z"/>
  <path d="m42.948 94.227c-0.22704 2.8366 0.80505 4.625 2.0323 4.8114 1.032 0.15647 2.6899-1.5852 2.9342-4.5962 0.2056-2.5443-1.065-4.4914-2.2694-4.5443-1.0332-0.04501-2.4692 1.4668-2.6971 4.3291m1.908 5.6124c-1.8624-0.28365-3.0274-2.5855-2.782-5.6775 0.2666-3.3272 1.9403-5.1762 3.5927-5.1027 1.8908 0.08101 3.3703 2.3746 3.1202 5.4693-0.27969 3.4622-2.1565 5.5804-3.9309 5.3109"/>
  <path d="m56.629 73.529c2.6541 5.1275 4.2596 11.397 4.4022 16.926 0.19682 7.6083-6.5052 12.12-11.795 11.352l0.92712-0.93645c4.4134 0.27294 9.8175-3.9913 9.6491-10.457-0.14551-5.5774-1.8162-12.034-4.4317-16.976z"/>
  <path d="m51.797 101.25c3.1501-2.8645 4.3849-6.1573 4.0592-10.09-0.52235-6.3049-1.5664-14.059-5.1172-19.132l1.3841 0.49058c3.1864 5.1888 4.1754 12.494 4.6697 18.577 0.33398 4.1116-0.80843 7.2169-3.3491 9.7879z"/>
  <path d="m61.406 62.812c7.5294-5.183 11.186-15.996 8.6752-23.996-2.8665-9.1352-11.528-15.66-21.449-17.859-2.0462-0.45237-1.9326-1.0316 0.13545-0.72593 10.296 1.5233 19.644 8.8578 22.585 18.234 2.9476 9.3924-1.8632 20.485-9.3153 25.229z"/>
  <path d="m37.937 68.603c-13.201-1.1814-26.464-11.698-25.59-24.231 0.74913-10.76 11.329-23.211 26.613-24.539 2.0076-0.17377 2.0764 0.48477 0.07806 0.73351-14.823 1.8424-24.724 13.781-25.427 23.895-0.84746 12.153 12.101 21.821 24.406 23.407 2.373 0.30641 2.2895 0.94479-0.07954 0.73436"/>
 </g>
 <g stroke-width="1.3024">
  <path d="m60.444 30.016c15.51-3.0767 24.601-16.95 23.892-17.73-0.91613-1.0066-17.737 2.9709-26.484 13.892-1.8149 2.2687 0.0577 4.3404 2.5921 3.838" fill="#6eb92c"/>
  <path d="m61.906 57.057c2.4647 4.8056 9.863 8.3674 10.858 7.156 0.73692-0.89991-2.5592-6.451-9.4643-8.591-1.4583-0.45175-1.9797 0.29364-1.3936 1.435" fill="#6eb92c"/>
  <path d="m41.081 56.438c-2.3688 3.2046 0.7654 9.5526 6.611 13.633 7.5019 5.2362 12.383 3.9786 14.641 0.57835 2.2198-3.3435 0.34485-8.0185-6.1999-12.701-6.595-4.7211-13.282-3.9054-15.052-1.5108" fill="#543923"/>
  <path d="m84.043 12.214c-3.3229 4.6432-12.386 13.355-23.392 15.922-1.9299 0.44837-2.1656 1.5845-1.2466 2.0705 13.363-2.0841 26.015-15.651 24.639-17.993" fill="#5fa223"/>
  <path d="m72.832 63.942c-1.7863-0.21921-7.5139-3.6535-9.6024-6.7787-0.73849-1.1044-1.3217-1.2375-1.4416-0.42996 1.6109 4.015 9.57 9.3255 11.044 7.2087" fill="#5fa223"/>
  <path d="m41.307 56.489c-0.24435 5.1645 6.4015 12.033 13.419 14.259 3.5437 1.1257 7.7894-0.15721 8.3424-3.7139 0.644 5.0081-5.0604 10.1-14.892 3.341-6.5197-4.4816-9.7569-11.093-6.8692-13.886" fill="#412a16"/>
 </g>
 <g fill="#0f141b" stroke-width="1.3024">
  <path d="m60.791 30.308c-1.7782 0.33028-1.9164-0.31875-0.15221-0.7214 14.6-3.3339 23.54-16.438 23.09-16.933-0.41584-0.45986-16.446 3.0582-25.258 13.498-0.97826 1.1567-1.5204 0.75043-0.57324-0.46453 8.5905-11.005 25.559-15.255 26.922-13.757 1.169 1.2819-8.2174 15.443-24.028 18.378"/>
  <path d="m73.153 64.556c-1.4184 1.6912-8.8061-2.167-11.086-6.6591-0.71392-1.4067-0.18821-1.6792 0.6509-0.34639 2.458 3.9041 8.8823 7.2056 9.6736 6.3316 0.39126-0.43025-2.8537-5.5787-8.6154-7.6642-1.5594-0.56408-1.3812-1.1447 0.21668-0.70369 6.322 1.7451 10.205 7.8 9.1599 9.0419"/>
  <path d="m41.508 56.766c-1.9466 2.6299 0.45305 8.644 6.5029 12.864 7.5927 5.3011 12.004 3.602 13.912 0.73119 1.7164-2.5846 1.1275-6.7826-6.1244-11.974-5.8528-4.1879-12.629-3.8767-14.29-1.621m5.8518 13.734c-6.8374-4.7712-9.0549-11.27-6.7355-14.409 1.9135-2.5813 9.1228-3.3728 15.817 1.4181 7.1379 5.1071 8.5118 10.112 6.3056 13.435-2.148 3.2429-7.065 5.3663-15.387-0.44451"/>
  <path d="m40.354 58.281c1.7369 1.2477 3.0134 2.1731 4.3514 3.1854 1.872 1.4119 1.5235 1.8842-0.42317 0.60236-1.2742-0.83684-2.7222-1.7858-3.9964-2.7526z"/>
  <path d="m43.939 54.793c1.2226 0.70508 2.3947 1.4839 3.7441 2.4874 1.6591 1.2329 1.26 1.7809-0.42413 0.60325-1.6454-1.1514-2.8831-1.8726-4.4436-2.7436z"/>
 </g>
</svg>
