<?xml version="1.0" encoding="UTF-8"?>
<!-- Created with Inkscape (http://www.inkscape.org/) -->
<svg version="1.1" viewBox="0 0 122.82 183.1" xmlns="http://www.w3.org/2000/svg">
 <path d="m33.298 107.57-6.7891 8.804-0.0222 2.9872 8.7487-10.015z" fill="#fabe00"/>
 <path d="m36.268 85.343c-2.6409 1.6917-14.958 11.898-12.526 11.718 0 0 3.3125-1.9678 5.8132-3.6019 2.4755-1.6376 8.1049-6.3192 8.1049-6.3192z" fill="#fabe00"/>
 <path d="m25.584 116.71c-0.39088 1.8837-0.76078 3.6097-0.76078 3.6097-0.01846 0.11873 1.6005-0.65953 1.6601-1.0375l0.87444-4.3795c-0.55743 0.5636-1.1478 1.1531-1.774 1.8059" fill="#542400"/>
 <path d="m70.886 36.956c11.287-7.6259 10.901-22.423 10.045-23.267-0.82115-0.83027-9.9408 5.2953-14.225 15.607-2.2061-15.339-17.069-29.235-18.494-28.551-1.4846 0.74506 0.652 14.832 5.6828 25.472-6.8997-7.6074-19.108-11.107-20.178-9.8914-1.0705 1.2499 5.5998 14.315 19.403 20.915-18.305 3.2946-32.168 16.119-33.249 33.606-1.0276 16.803 13.174 34.431 35.415 34.44l12.994 0.41787c1.6268-0.23714 4.106-0.66383 6.1744-1.2615 6.5978-7.3542 18.391-16.325 26.57-19.865 5.0886-29.803-11.296-44.843-30.129-47.626" fill="#6fba2c"/>
 <path d="m54.541 105.13c-16.096-4.5524-25.805-17.485-24.798-28.868 1.3766-14.831 14.634-27.832 38.793-26.13 15.228 1.067 26.658 11.502 27.755 26.127 0.31534 3.9357-0.336 7.9809-1.9195 11.772-6.4192 4.1289-12.277 8.6944-20.686 17.064 0.08519 8.1586 1.254 15.372 3.7346 22.673 3.6583 10.803 4.234 16.456-1.0663 22.461 3.5255 1.0963 7.1996 2.1726 10.182 3.5061-6.0587 0.78134-11.908 5.7002-12.387 11.831-13.137-3.8114-13.195-9.5033-8.1703-13.125-5.1087-1.1995-11.848-0.81117-16.358 1.189 4.0054 3.005 2.9799 6.9021-3.5274 13.282-2.4081-5.8215-8.8544-9.1129-17.796-6.3185 3.4995-3.1576 4.8948-4.5374 7.6995-6.7108 1.1728 0.4973 2.2793 0.77623 3.0662 0.8218-3.7146-2.6196-4.2763-7.1288-2.8001-13.909 1.7241-7.8478 5.9252-17.397 12.69-29.501 2.614-1.9833 4.2353-4.8382 0.85455-6.2901 1.5262 0.102 3.2716 0.24075 4.7333 0.13095" fill="#e9b77d"/>
 <path d="m48.951 111.28c-2.5609 2.4246-4.7253 4.3612-8.1103 7.0317-9.882 17.726-12.526 34.215-2.3422 36.291-2.9481-2.9739-3.7076-7.1871-2.7456-11.425 2.3319-10.121 7.616-23.04 13.197-31.897" fill="#6fba2c"/>
 <path d="m32.737 138.45c-4.9994 2.5738-10.509 3.4944-15.337 3.0234-3.6298 2.4853-3.7822 6.3502-0.87447 9.713 7.1841 2.4913 12.51 3.2285 18.755 2.0976-3.3543-3.0904-4.0052-8.5489-2.5432-14.833" fill="#6fba2c"/>
 <path d="m17.398 141.47c-5.4294-0.59142-10.232-1.9347-14.441-4.982-1.7845-1.2933-2.7722-0.59858-1.9333 1.4623 1.9093 4.5708 8.1263 9.8463 15.383 13.105-2.3905-2.7708-3.0686-6.2029 0.99244-9.5866" fill="#ea5532"/>
 <path d="m74.256 112.69c31.994 1.4407 52.606-20.365 46.802-28.128-3.1096-4.1327-19.447-8.1927-47.541 20.847 0.22065 2.4303 0.35887 4.0551 0.73971 7.2804" fill="#543822"/>
 <path d="m26.854 92.263c-8.2504 2.0375-16.934 9.0715-15.91 10.92 0.92015 1.678 12.19-2.1934 18.108-8.5015-0.93125-0.82096-1.7067-1.6916-2.1973-2.4193" fill="#6fba2c"/>
 <path d="m46.096 166.91c-3.207-7.6094-11.301-8.5415-17.568-6.3143-6.5876 5.8889-11.81 20.054-7.8103 21.775 3.0246 1.3079 17.372-7.5563 25.379-15.461" fill="#fff"/>
 <g fill="#543822">
  <path d="m29.64 77.362c3.9294 1.1315 8.2485 2.3754 10.696 3.5252-1.1085 4.9747-2.1173 7.8253-4.507 12.223-3.3211-3.1223-6.6241-11.324-6.1882-15.748"/>
  <path d="m52.908 51.158c5.6467 3.3949 10.981 7.0149 15.485 11.409 5.2541-3.0127 9.5751-5.971 12.86-8.9739-5.5947-3.5199-17.212-4.9094-28.343-2.4347"/>
  <path d="m95.696 84.017c-2.3841-0.10618-5.4646 0.06265-7.6274 0.49661 0.57139 2.0836 1.1597 4.638 1.4905 6.6712 1.3862-1.1027 3.1227-2.231 4.9259-3.2442 0.51061-1.3935 0.85443-2.4669 1.2065-3.9224"/>
 </g>
 <path d="m60.226 74.268c-0.55016 1.8883 4.8152 6.6974 7.2428 6.9223 2.6969 0.23568 7.8157-3.9256 7.5993-5.8472-0.3284-2.8982-14.028-3.9292-14.842-1.0751" fill="#ea5532"/>
 <path d="m75.915 102.95c0.33097 4.3119 3.6149 5.7698 10.439 4.2712 16.903-3.7322 32.924-12.875 35.239-22.015 4.2164 11.426-22.255 29.797-47.444 27.411-0.16663-2.6931-0.27199-4.374-0.42429-7.3532 0.71968-0.8438 1.2723-1.4979 2.1905-2.3142" fill="#412915"/>
 <path d="m35.152 92.35c4.0077 5.2267 12.405 11.091 19.436 12.778-1.9802-4e-3 -3.5954-0.10209-5.2033-0.45106 2.903 0.85023 3.5176 3.5538-0.33201 6.695l-0.66528 1.1794c4.7238 6.5811 21.705 5.5394 25.756-1.01-0.23481-2.1038-0.4135-3.8646-0.3664-6.5746 3.2444-3.317 9.2092-8.5777 14.148-12.713-15.1 10.824-36.607 9.7242-52.772 0.09584" fill="#c49a69"/>
 <path d="m49.385 104.67c-0.22082-0.0637-0.46058-0.10007-0.6958-0.14666 0.22084 0.0637 0.45841 0.10062 0.6958 0.14666" fill="#c49a69"/>
 <g fill="#5fa224">
  <path d="m35.152 92.35c-6.682-3.8193-12.143-9.0749-15.187-15.59 3.3931 16.803 15.021 25.576 28.723 27.77 0.23756 0.0369 0.47581 0.0966 0.69582 0.14667 1.6083 0.34891 3.2224 0.44679 5.2033 0.45106-7.0312-1.6861-15.428-7.5507-19.436-12.778"/>
  <path d="m25.779 92.529c-0.83432 3.36-8.214 8.898-14.672 10.506 1.7335 2.017 11.722-2.0856 17.896-8.4366-0.72499-0.73101-1.5204-1.5488-1.9893-2.3219z"/>
  <path d="m33.513 16.046c4.1492 6.964 14.946 17.213 23.838 20.451-2.0958 0.29939-2.8424 0.39574-4.5237 0.70961-12.289-6.1646-20.064-18.241-19.315-21.161"/>
  <path d="m48.415 0.80842c1.6853 9.3175 5.3974 21.369 9.8315 28.937 0.56412 0.93757 0.73627 2.9983-0.23077 3.2452-1.0686-2.5014-2.5423-5.0713-4.1446-6.6984-4.3782-8.6245-7.5317-23.931-5.4564-25.484"/>
  <path d="m80.696 13.491c-0.89861 8.5548-5.1414 17.783-12.235 23.053 0.7581 0.05914 1.3637 0.16241 2.24 0.3569 10.273-5.889 11.911-22.041 9.9955-23.41"/>
 </g>
 <path d="m60.452 73.993c1.168 2.4059 5.2924 5.1896 7.1598 5.3333 2.0737 0.16154 5.6534-1.98 7.3086-4.1965 0.44886 1.9492-4.5655 6.2476-7.3821 5.9833-2.8058-0.21745-8.1779-5.4384-7.0864-7.1201" fill="#cb4829"/>
 <path d="m76.767 158.99c-2.5445-2.8728-2.627-6.0056-0.46372-8.718 4.0221-4.1507 4.9247-9.6354 3.1967-15.315-7.3385 11.121-31.994 13.542-43.655 8.0007-0.63138 4.0323-0.56892 8.5838 3.0023 11.882 0.60364 0.0946 1.1643 0.11208 1.6876 0.0969 1.8486 1.4321 2.0217 3.6559 0.90642 6.3533 1.8189 1.164 3.5733 3.0237 4.6229 5.4408 1.0354-1.015 2.0156-2.0562 2.9237-3.1301 3.3491-3.9149 3.944-7.3329 0.76074-10.066 4.1883-1.6746 10.494-1.9814 15.941-1.1014-3.7317 2.6049-3.5034 6.8598-0.20744 9.099 2.5921 1.7465 5.5533 3.1656 8.6619 4.2762 0.15991-2.4691 1.0986-4.9481 2.6238-6.8186" fill="#c49a69"/>
 <path d="m35.843 142.96c-1.4194-0.69251-2.6791-1.4928-3.6625-2.4293-1.1595 10.547 3.0729 13.741 6.6674 14.319-3.566-3.3083-3.6289-7.8597-3.0041-11.89" fill="#5fa224"/>
 <path d="m41.446 161.29c-2.3483 5.7691-10.491 13.746-20.667 21.18 2.3623 0.5395 15.681-6.1971 25.29-15.74-1.0644-2.4135-2.8118-4.2819-4.6229-5.4406" fill="#dcdddd"/>
 <path d="m16.218 150.95c5.3835 2.2513 11.856 3.4763 19.053 2.2711-1.9209-1.9253-2.8518-4.3859-3.0694-7.2207-6.0296 1.7848-12.229 1.4991-17.637-0.22949-0.25236 1.57 0.36349 3.2296 1.6532 5.1791" fill="#5fa224"/>
 <path d="m0.9196 136.06c-1.7447 1.6548 4.5025 10.39 15.3 14.885-1.2898-1.9502-1.9057-3.6098-1.6532-5.1791-5.7696-1.8232-10.691-5.2961-13.646-9.7066" fill="#cb4829"/>
 <path d="m84.932 66.231c-1.7075-0.08327-3.9857 2.4137-4.3036 7.6663-0.37187 5.8555 1.2767 8.1102 2.9513 8.2501 1.4034 0.09595 4.1293-1.7916 4.5445-7.8833 0.36283-5.1587-1.2413-7.9166-3.1924-8.0331" fill="#0d131a"/>
 <path d="m49.648 62.878c-1.6939-0.05426-4.5441 2.13-5.1104 7.6015-0.53418 5.3597 1.7599 8.3386 3.4324 8.4787 1.6456 0.12279 3.7809-1.6541 4.3383-7.5854 0.55281-5.776-1.0621-8.4022-2.6596-8.495" fill="#0d131a"/>
 <path d="m83.448 70.419c-0.80059-0.0745-1.6181 1.3989-1.7174 3.5956-0.11453 2.1682 0.63876 3.2711 1.2371 3.303 0.60133 0.04472 1.5817-1.0995 1.6715-3.2699 0.10118-2.1171-0.37505-3.5584-1.1908-3.629" fill="#fff"/>
 <path d="m50.332 67.904c-0.81429-0.09421-1.7313 0.90725-1.9977 3.0461-0.20876 1.7294 0.25176 3.2716 1.0154 3.3947 0.80658 0.13037 1.6695-1.1358 1.8715-3.033 0.25964-2.1054-0.25583-3.3192-0.89879-3.4055" fill="#fff"/>
 <g fill="#0d131a">
  <path d="m99.862 85.111c4.3712-15.198-0.64688-44.532-31.407-47.986-1.7152-0.18684-1.6295-1.0382 0.12199-0.94213 30.104 2.1828 37.925 31.091 33.232 48.051z"/>
  <path d="m52.059 37.431c-13.507-6.2959-20.56-19.97-19.078-21.677 1.6339-1.9271 20.03 3.7755 24.705 15.476 0.89479 2.2343 0.29739 2.485-0.7785 0.33963-5.2546-10.5-21.861-15.654-22.662-14.783-0.66409 0.76685 6.0322 13.666 19.769 20.257z"/>
  <path d="m52.685 25.038c-4.7889-10.057-6.8121-24-4.793-24.99 2.1414-1.0178 17.982 14.146 19.347 30.108 0.24752 2.7957-0.43794 2.8729-0.84012 0.10193-2.2647-15.415-16.956-29.236-17.836-28.815-0.93317 0.44397 1.0095 14.911 6.5399 26.05z"/>
  <path d="m70.178 36.897c11.242-7.8902 10.88-22.094 10.252-22.507-0.70251-0.48421-9.3598 5.7112-13.566 15.973l-0.3599-1.9605c4.1984-9.9122 13.515-16.689 14.879-15.29 1.0984 1.0894 1.8316 16.338-9.85 23.902z"/>
  <path d="m35.33 92.784c2.1961-4.2554 3.1628-6.8298 4.4311-11.534-3.6052-1.4077-6.5586-2.3364-10.089-3.2446l0.07305-1.334c3.7592 1.0585 6.8998 2.0636 10.719 3.5925 0.46722 0.20853 0.65554 0.38965 0.50924 0.91814-1.3393 5.343-2.2701 8.0382-4.6955 12.807z"/>
  <path d="m81.978 53.922c-3.0923 2.854-8.58 6.5012-13.174 9.0137-0.42743 0.21296-0.60192 0.16157-0.96739-0.13233-4.902-4.4067-9.3816-7.7875-15.556-11.368l1.7324-0.44475c5.9116 3.7377 10.061 6.7017 14.449 10.879 4.3799-2.422 9.2231-5.8494 12.233-8.571z"/>
  <path d="m88.983 91.639c-0.3021-2.0081-0.72499-4.0434-1.3877-6.9212-0.12924-0.56124-0.01755-0.77252 0.58517-0.86093 2.6316-0.46853 5.0896-0.53295 7.6427-0.5001l-0.25708 1.2709c-2.2471-0.03849-4.2751-5.28e-4 -6.7533 0.32738 0.656 2.451 1.0465 4.1469 1.3361 5.8017z"/>
  <path d="m47.191 83.398c6.7207 7.673 24.193 10.728 34.867 3.3566 1.7691-1.1909 2.1801-0.63956 0.50399 0.67653-10.349 8.3308-29.813 5.2576-36.063-3.3885-0.9511-1.3249-0.35352-1.8336 0.69215-0.64505"/>
  <path d="m60.831 74.462c-0.36415 1.2636 4.3859 5.9558 6.6837 6.1783 2.4507 0.21907 7.0691-3.8339 6.902-5.226-0.2284-2.1855-12.914-3.2646-13.586-0.95229m6.5528 7.259c-2.4063-0.13308-8.4727-5.1036-7.8215-7.6455 0.8661-3.6099 15.801-2.4841 16.124 1.2001 0.2246 2.3082-5.2758 6.6376-8.3021 6.4455"/>
  <path d="m29.45 95.112c-6.4188 6.9734-17.763 10.629-19.028 8.4709-1.427-2.5158 7.7794-9.6625 16.15-11.776l0.7336 0.93748c-8.4016 2.1181-16.414 9.0816-15.819 10.156 0.6077 1.097 11.418-2.4233 17.182-8.66z"/>
  <path d="m74.18 112.08c31.781 1.3604 51.352-20.198 46.216-27.024-3.0275-4.0544-18.994-7.4163-46.704 21.043l-0.14115-1.6077c26.763-27.837 44.364-25.377 48.101-20.347 6.5662 8.7913-15.344 30.678-47.375 29.149z"/>
  <path d="m118.71 82.774c-1.3067 2.9598-4.7758 5.1244-8.2284 6.6952-1.6964 0.8099-2.1799 0.25234-0.38113-0.7598 3.1384-1.7421 6.2296-3.6887 7.4165-6.395z"/>
  <path d="m121.73 90.074c-1.7114 1.7594-3.5395 2.8424-5.8968 4.0814-1.9731 1.011-2.4988 0.4839-0.47184-0.716 2.5779-1.5787 4.8789-3.3777 6.6641-5.4864z"/>
  <path d="m74.23 104.5c0.56266 9.1476 1.5897 15.886 4.4953 24.534 2.6553 7.8495 4.4457 17.126-3.0217 22.216-2.264 1.5384-2.6563 1.2736-0.51202-0.68157 6.1326-5.6547 4.5028-13.538 1.9428-21.111-2.9539-8.7585-3.794-15.321-4.2041-24.682z"/>
  <path d="m68.786 152.7c-1.5524 0.31172-2.7656 0.37803-5.1785 0.077-4.4753-0.55457-10.642 0.21279-13.026 1.1582-1.5181 0.59929-2.953 0.86329-4.3081 1.0151-1.6543 0.14731-1.7581-0.44269-0.10741-0.86409 1.5692-0.37771 2.5151-0.69375 4.0127-1.3845 2.4416-1.1189 8.3836-2.091 13.527-1.2322 2.3166 0.37132 3.6165 0.50952 4.9995 0.40864 1.8178-0.14372 1.8625 0.50799 0.07512 0.82342"/>
  <path d="m42.435 117.16c-11.71 20.314-12.299 35.933-3.2918 37.22 2.3401 0.33385 2.0629 1.0597-0.10596 0.83301-9.125-0.95329-11.656-14.084 0.93898-36.242z"/>
  <path d="m37.977 154.69c-4.225-4.0293-3.4533-9.9123-1.9248-15.59 2.3011-8.6758 5.5729-16.121 11.856-26.804l2.7375-2.5706c-7.3855 12.812-10.952 20.551-13.415 29.684-1.7468 6.5925-1.9717 11.792 2.7303 15.436z"/>
  <path d="m50.166 153.37c2.7344 1.4869 3.3422 5.073 1.0724 8.5858-6.2333 9.743-27.921 23.441-31.166 20.818-3.3232-2.7097-1.5053-16.503 15.58-29.374l1.2452 0.77155c-16.075 11.961-18.68 25.491-16.103 27.524 2.164 1.7076 22.627-10.528 29.194-20.647 1.8488-2.85 1.342-5.8932-1.4155-7.1411z"/>
  <path d="m45.567 167.46c-2.5412-6.3001-9.6048-9.1424-17.729-5.9946l1.3891-1.5478c7.8134-2.6722 14.711 0.25691 17.361 6.4672z"/>
  <path d="m20.558 182.33c0.77155-6.756 7.0786-16.039 13.531-22.762l1.6525-0.0164c-6.7552 7.0912-13.176 16.231-14.071 22.87z"/>
  <path d="m88.055 154.31c-9.1977 1.1171-13.179 6.6716-13.159 11.677l-1.3713-0.48367c0.09827-5.0414 4.2583-10.67 12.796-11.99z"/>
  <path d="m35.974 153.76c-12.859 2.8698-29.628-3.8684-35.464-15.389-1.4037-2.7232 0.29431-3.9144 2.6397-2.3282 8.673 5.9385 21.524 6.3327 29.861 1.4067l-0.29392 1.7078c-8.2238 4.6093-21.425 4.1022-30.143-2.174-1.4191-0.99953-1.7809-0.4718-1.0504 0.83981 5.9078 10.599 20.624 17.022 33.31 14.876z"/>
  <path d="m15.774 150.94c-2.9839-3.3778-2.2934-7.4722 1.2286-9.5441l2.0717 0.15293c-4.3174 1.9563-5.4203 5.9757-1.1381 10.113z"/>
  <path d="m73.917 105.09c-1.1747 0.27052-2.3814 0.50264-3.6342 0.67658l-0.01541 5e-3c-3.0802 0.45046-3.1496-0.2368-0.10043-0.8336 1.7677-0.36132 3.4303-0.78999 4.9839-1.3081z"/>
  <path d="m93.331 88.655c1.8545-3.9827 2.5326-8.2684 2.2003-12.378-1.1083-14.501-12.386-24.551-27.026-25.592-24.012-1.6948-36.739 11.467-38.036 25.625-0.90781 10.165 7.8137 23.543 24.149 28.437 1.6503 0.50186 1.6159 0.83968-0.13194 0.82985-21.728 0.0422-36.543-16.774-35.523-34.803 1.0386-18.826 18.037-33.828 40.307-34.713 1.7455-0.06987 1.7521 0.73499-0.0013 0.88913-21.358 1.7588-37.419 15.389-38.552 33.914-0.95972 15.728 11.122 31.485 30.522 33.684-13.301-4.2423-23.311-16.863-22.267-28.368 1.3626-15.102 14.902-28.354 39.61-26.618 16.134 1.1412 27.29 12.003 28.438 26.6 0.27264 3.6707-0.28392 7.5405-1.6944 11.276z"/>
 </g>
 <path d="m50.165 110.12c2.971-2.9953 1.2591-5.2356-2.2404-5.6904-23.492-2.946-48.594 18.593-43.602 26.195 3.9815 6.025 28.127-2.5419 45.842-20.504" fill="#543822"/>
 <path d="m33.722 50.567c-19.835-6.9315-31.852-24.861-30.275-27.559 1.2291-2.1729 26.664 6.1916 34.627 23.123 1.5715 3.2826-1.1145 5.5822-4.3521 4.4368" fill="#6fba2c"/>
 <path d="m91.58 52.597c5.8102-21.056 22.797-31.126 24.084-30.138 1.292 1.0448-2.7486 21.402-20.913 33.48-1.9866 1.3394-4.1305 0.20672-3.1701-3.3429" fill="#6fba2c"/>
 <path d="m3.4727 22.916c5.8712 9.808 19.212 20.369 29.752 24.446 1.9583 0.74478 2.486 2.7974 0.83936 3.3463-19.526-7.3424-31.972-23.346-30.595-27.792" fill="#5fa224"/>
 <path d="m115.53 22.34c-3.7051 11.529-12.293 23.753-20.867 30.738-1.4907 1.216-1.3089 2.7017-0.43103 3.251 16.32-9.9809 23.866-32.625 21.297-33.989" fill="#5fa224"/>
 <path d="m3.6748 128.56c5.3443 4.8544 29.412-6.6129 43.007-19.06 2.7382-2.4975 1.315-4.7476-1.2212-5.3029 6.198-0.0369 8.1278 2.7993 3.9712 6.892-7.1606 7.0148-23.098 18.556-34.898 20.829-8.0177 1.5394-10.255 0.10746-10.858-3.3582" fill="#412915"/>
 <g fill="#0d131a">
  <path d="m32.271 50.444c-19.764-6.6894-31.306-24.525-29.438-27.816 1.6056-2.786 26.623 5.0695 34.889 21.979 1.2782 2.5663 0.64442 2.898-0.75828 0.35789-8.4062-15.237-32.044-23.063-32.94-21.587-1.1853 1.9452 9.8537 18.645 28.57 26.262 2.3474 0.96214 1.9283 1.5695-0.32562 0.79429"/>
  <path d="m95.581 54.838c16.497-12.446 20.488-31.225 19.615-31.75-0.82312-0.52055-16.005 8.7928-22.782 28.277-0.8502 2.5151-1.4671 2.333-0.8052-0.23378 5.2862-20.418 22.517-30.658 24.495-29.262 1.8445 1.3048-1.9934 22.084-20.028 33.673-2.1598 1.3953-2.6594 0.9446-0.49377-0.70179"/>
  <path d="m4.8924 130.24c3.4762 5.4463 27.743-3.1562 44.856-20.504 2.3479-2.3665 1.6152-4.356-1.8956-4.7598-22.949-2.7641-47.359 18.406-42.96 25.263m-1.1565 0.80693c-5.6047-8.5117 20.507-30.154 44.242-27.175 4.2008 0.51928 5.694 3.4244 2.5901 6.612-18.338 18.729-42.546 27.027-46.831 20.563"/>
  <path d="m7.4342 132.37c1.1422-3.1074 3.0705-5.2648 6.6224-7.1416 1.9514-1.006 2.2761-0.43259 0.44139 0.72303-3.2679 2.127-4.7068 3.9849-5.7887 6.5857z"/>
  <path d="m3.6893 127.11c1.6623-2.888 3.7675-4.8356 6.8602-6.671 1.6202-0.96187 2.0808-0.36464 0.46532 0.7175-3.1759 2.1058-6.4968 5.8277-7.0719 8.8048z"/>
 </g>
 <path d="m73.937 165.78c0.73324-8.2249 8.1572-11.581 14.805-11.372 8.0699 3.599 17.364 15.496 14.08 18.355-2.4815 2.1681-18.849-1.8976-28.885-6.9834" fill="#fff"/>
 <path d="m76.644 159.01c3.996 4.778 14.184 9.8908 26.142 13.867-2.0852 1.2343-16.824-1.1189-28.886-7.2762 0.27749-2.6232 1.3718-4.9355 2.7431-6.5914" fill="#dcdddd"/>
 <g transform="rotate(-19.046 -198.98 292.51)" fill="#0d131a">
  <path d="m95.412 245.87c-2.7671 1.4251-5.603 4.0436-3.5978 7.6113 6.0129 9.8806 30.889 27.289 34.193 24.74 3.3832-2.6344 1.0947-18.432-16.844-30.851l-1.2622 0.74339c17.236 11.844 20.032 27.038 17.409 29.013-2.2018 1.6586-25.887-14.261-32.225-24.525-1.4481-2.8181 1.1235-4.9735 3.9083-6.1592z"/>
  <path d="m100.86 262.34c2.6821-6.2414 9.5558-9.5312 17.607-6.2018l-1.3982-1.5583c-7.7514-2.847-14.417 0.51296-17.206 6.6622z"/>
  <path d="m125.53 277.77c-0.6196-6.7716-6.7165-16.194-13.016-23.06l-1.6517-0.0535c6.5942 7.2412 12.808 16.523 13.554 23.18z"/>
 </g>
</svg>
