<?xml version="1.0" encoding="UTF-8"?>
<!-- Created with Inkscape (http://www.inkscape.org/) -->
<svg version="1.1" viewBox="0 0 180.48 267.69" xmlns="http://www.w3.org/2000/svg">
 <g transform="translate(-21.305 -12.406)">
  <path d="m82.692 172.37c-4.8032 6.5971-11.31 13.194-17.396 16.709l-0.9431 2.5832c2.9978 12.502 3.5997 23.13 0.9431 31.107 3.5654-2.3107 6.4041-3.6166 10.18-1.7713 11.457 5.5525 22.54 8.7773 31.544 7.7327 2.8785-0.35729 6.2622 0.25588 8.5617 2.9012 3.2418-9.1578 9.8902-19.905 18.946-27.235-1.6124-12.791-5.8081-26.122-11.639-38.59-3.7981-0.74353-5.8137-3.3837-2.9125-6.9037 9.68-11.73 24.107-19.031 28.234-23.908 16.857-33.861-15.176-64.576-48.537-60.403-32.873 4.1105-44.353 24.884-43.615 44.563 0.67594 17.788 11.077 30.732 31.453 38.312l-0.52786 1.8168c4.0593 0.63087 5.2402 4.7861 2.6968 7.1253-2.5151 2.3675-3.5314 3.327-6.989 5.9614" fill="#e3b47b"/>
  <path d="m131.77 206.78c-0.4828 3.2361-0.3798 5.7059 2.2937 7.023 6.0295 2.9921 12.4 6.0409 16.533 9.2885-9.0273 8.7263-18.418 16.238-24.936 18.946-7.6646 3.2248-12.383-1.7544-10.685-8.1814 2.4641-9.4586 9.1351-20.393 16.794-27.076" fill="#e3b47b"/>
  <path d="m89.65 104.98c-1.2312 3.0942 7.0514 8.9534 10.265 8.7035 3.2305-0.27842 11.111-8.272 9.5951-11.02-2.129-3.8778-18.168-1.9076-19.86 2.3165" fill="#de5534"/>
  <path d="m80.579 127.2c-1.4307 0.76122-2.2027 2.3222-1.4307 4.0197 5.5583 12.065 17.39 23.079 27.07 22.778 9.6971-0.2897 25.708-11.701 26.077-28.444 0.0482-2.396-1.3277-4.1275-3.6166-4.6783-15.233-3.6393-33.486-1.5788-48.1 6.3247" fill="#8d3222"/>
  <path d="m89.156 166.86c3.997-3.5427 1.7714-7.2729-3.6732-7.7895-37.608-3.5824-62.787 22.409-59.438 29.012 5.74 11.327 41.968-2.4298 63.111-21.222" fill="#543822"/>
  <path d="m120.72 157.88c-3.2305 3.3781-4.1502 7.1593 3.327 8.1471 31.459 4.0708 65.808-30.607 60.67-39.436-2.7536-4.7295-21.143-5.0644-37.256 9.2088-6.3134 5.598-13.45 8.2268-26.741 22.08" fill="#543822"/>
  <path d="m131.5 206.75c-0.14487 3.0942-0.2897 5.422 2.396 6.7959 5.5127 2.8161 12.309 5.8819 16.698 9.5439 14.381-16.856 17.867-29.035 15.028-31.925-2.8331-2.8954-20.303 2.2256-34.122 15.585" fill="#fff"/>
  <path d="m90.764 122.78c5.0473 6.4497 21.728 4.5931 26.06-3.4917-8.3119-0.5166-18.531 0.8063-26.06 3.4917" fill="#fff"/>
  <g fill="#6db131">
   <path d="m89.916 158.42c-22.335-7.307-34.4-22.619-33.719-41.571 0.88033-24.476 18.577-39.941 42.945-42.263 36.824-3.5256 65.672 28.172 48.321 61.215 3.6222-3.2532 8.5673-6.6824 11.923-8.221 16.97-32.924-14.915-70.639-53.982-69.964-35.24 0.6019-62.759 22.284-62.35 56.508 0.14487 11.52 10.418 37.346 46.862 44.296"/>
   <path d="m73.804 178.19c-1.7658 3.2475-3.8778 5.8309-6.3758 7.7839l0.81756 1.1587c6.3702-4.6668 11.707-10.543 14.154-14.693-2.8273 2.3051-5.422 3.9344-8.5956 5.7512"/>
   <path d="m122.48 165.53c2.5266 5.9783 6.3758 13.881 9.4134 23.698-1.6976-9.209-3.1056-16.919-5.1495-23.028-1.8112-0.0644-2.6287-0.12873-4.2639-0.6695"/>
   <path d="m68.786 220.78c2.447-1.1523 4.7294-0.98815 7.2446 0.35727 11.582 6.075 23.034 9.0614 30.988 7.5795 2.941-0.56811 6.1203 0.46027 7.7498 1.9417-2.1007 1.1523-4.1332 1.9814-7.1878 1.8963-0.87389 6.0976-1.5386 10.827-1.6918 20.189-3.9402 4.5534-10.963 6.001-17.538 1.3519-2.7763-7.7895-3.7246-16.862-4.19-24.51-5.8195-2.5719-11.31-5.4902-15.375-8.8058"/>
  </g>
  <path d="m87.681 253.79c3.7302 10.816 12.57 21.234 20.473 24.794 2.1347 0.94309 2.7934 0.49408 1.6919-2.5549-2.4244-6.7449-3.9573-14.148-3.9573-23.278-4.4568 4.4-10.299 6.1204-18.208 1.0397" fill="#de5534"/>
  <g fill="#543822">
   <path d="m79.62 80.161c6.1658 4.5078 13.337 9.0669 19.673 12.627 3.98-2.3051 13.626-9.5894 20.814-16.368-12.962-4.2582-31.47-1.2151-40.486 3.7415"/>
   <path d="m56.128 122.52c3.9459-0.95918 8.113-1.3342 13.234-1.2939-0.43775 7.0968-0.6695 17.356-0.0644 25.6-6.5517-4.7066-13.013-15.091-13.177-24.305"/>
   <path d="m152.69 113.66c-4.207 0.74352-9.9527 1.9019-15.102 2.7763 1.4195 4.7974 4.1332 16.033 5.2858 23.096 1.3519-1.0847 4.1161-3.1907 5.3368-4.5421 3.3724-5.6888 5.0302-13.881 4.4795-21.33"/>
  </g>
  <path d="m88.031 144.23c3.9004-10.452 27.456-18.713 39.686-4.6498-4.0424 6.4326-13.155 13.984-20.359 14.296-7.1536 0.31222-14.586-4.1502-19.326-9.6461" fill="#e38295"/>
  <path d="m91.629 59.192c-12.525-14.529-14.744-33.412-10.844-35.32 2.5266-1.2263 13.95 14.665 17.43 24.209 1.4243-15.937 17.101-35.172 20.195-34.207 3.1056 0.96562 2.4698 23.63-0.26071 34.673 12.808-15.25 31.72-18.35 32.884-16.868 1.1523 1.4983-9.5552 19.44-27.632 28.422-11.559-2.8502-23.63-2.6627-31.771-0.90768" fill="#6db131"/>
  <path d="m132.14 212.01c-6.6597 6.9266-12.604 15.732-16.913 26.622 1.2778 3.6108 6.0578 6.1032 11.838 2.8954 8.9137-4.9222 16.834-11.559 23.187-18.435-4.3092-3.5768-10.231-6.6314-15.238-9.016-1.3342-0.61799-2.3051-1.2714-2.8729-2.0666" fill="#c09868"/>
  <path d="m165.8 191.96c-10.498 2.5549-22.971 8.9136-33.656 20.047 0.56812 0.79504 1.545 1.4484 2.8727 2.0722 5.0076 2.379 10.929 5.439 15.244 9.0102 11.832-12.803 18.242-26.429 15.539-31.13" fill="#ddd"/>
  <path d="m135.64 225.29c-1.3519-1.2376-5.6944-0.0805-8.7888 3.2363-3.344 3.554-4.3432 7.0912-3.0203 8.4593 1.2312 1.2939 5.2176-0.17542 8.5559-3.6676 3.8437-4.0139 4.2071-7.182 3.2532-8.028" fill="#412914"/>
  <path d="m60.875 137.31c-6.1829-4.5874-11.866-10.333-16.686-17.316 4.6158 23.045 29.517 35.944 42.525 37.931-12.559-6.1488-21.393-13.001-25.838-20.615" fill="#5d9c33"/>
  <path d="m117.13 149.98c9.2883-1.7998 18.111-5.4332 25.742-10.793-11.565 8.7207-20.229 15.755-23.113 20.178-2.3902 3.6732-1.2086 5.6434 2.8843 6.4042-6.2282 11.928-26.099 13.285-32.691 0.19313 2.0836-2.5264 2.4527-5.1551-3.52-6.7788l0.27843-1.2666c-7.0741-3.4634-12.973-7.131-17.56-11.077-0.0644-1.4822-0.11259-2.9922-0.16101-4.3773 8.4708 4.6498 17.617 7.4147 26.832 8.3912 6.4041 3.7302 12.621 4.9905 21.302-0.87387" fill="#c09868"/>
  <path d="m60.875 137.31c1.9417 3.31 4.718 6.5065 8.2778 9.5382-0.0644-1.4871-0.11259-2.9978-0.161-4.383-2.7876-1.516-5.5071-3.2192-8.1188-5.1553" fill="#412914"/>
  <path d="m65.798 198.52c1.6295-0.96561 2.9524-1.8622 5.4334-2.7195 2.8956-0.97689 3.7529-0.97689 5.422 0.66951 11.804 11.832 31.584 12.939 42.82 7.9541 2.4527-1.0895 3.6222-0.90768 5.1098 0.57938 1.3052 1.3116 2.447 2.8502 3.787 4.7464-5.0985 6.2282-10.413 14.268-12.576 21.501-1.902-1.6237-4.9451-2.8046-8.1358-2.4639-9.9242 1.0895-19.61-0.77733-32.146-7.7556-2.4356-1.3567-6.5859-1.9983-10.56 2.7934 2.6286-8.6468 2.6286-16.419 0.84653-25.305" fill="#c09868"/>
  <path d="m102.74 255.1c-0.45383-7.131 0.0482-15.023 1.6408-22.625 3.5995 0.31221 7.9258-0.0154 10.509-1.7713-2.1746-1.6409-4.5819-2.2597-8.0622-1.9814-7.659 0.64214-16.777-0.80628-30.868-7.5738-2.6173-1.2939-5.4107-1.7373-7.2104-0.28324 4.86 3.7812 9.2883 6.3134 15.335 8.5617 0.0323 9.7768 1.7373 18.015 4.2866 24.822 6.8129 3.872 11.048 2.8727 14.37 0.85136" fill="#5d9c33"/>
  <path d="m110.83 278.73c-4.5307-3.7017-7.3978-12.791-8.0905-23.635-3.3212 2.0212-7.5568 3.0205-14.37-0.85135 6.9776 18.736 20.269 26.531 22.46 24.487" fill="#c2492a"/>
  <path d="m81.034 158.63c2.8103 1.794 6.3588 4.8088 1.2489 8.607-20.592 15.244-46.777 23.198-56.151 20.121 0.98815 3.5939 6.6314 6.6483 17.606 3.8778 15.34-3.8778 35.291-14.262 45.59-24.561 1.6013-1.5836 2.2768-3.2702 1.709-4.6612-0.97687-2.447-4.1275-3.0034-10.004-3.3837" fill="#412914"/>
  <path d="m123.78 154.5c-1.8056 4.4341 0.161 7.4829 8.113 6.0863 21.455-3.7585 44.693-18.957 53.079-33.31 0.95918 15.119-33.713 43.115-61.612 38.596-6.1373-0.99299-7.2048-4.332 0.42005-11.372" fill="#412914"/>
  <path d="m101.89 133.68c9.6403-0.19311 17.049 6.3588 17.765 14.676 3.3439-2.532 5.0075-3.8095 7.9939-8.6183-4.701-6.2736-15.744-9.6858-25.759-6.058" fill="#c67082"/>
  <path d="m89.944 105.52c3.52 2.9012 7.358 5.3198 9.8107 5.1551 2.4696-0.17062 7.6759-3.0147 9.7141-7.1195-0.82882 4.1049-5.6434 9.8278-9.4076 10.043-3.8153 0.18675-11.145-5.3141-10.117-8.079" fill="#c2492a"/>
  <path d="m76.171 94.133c-2.6912 0.0115-5.3482 4.5704-5.1553 11.781 0.17542 7.7441 2.9921 11.139 5.2007 11.139 2.1461 0 5.1098-3.2134 5.0076-11.315-0.12873-8.0393-2.7195-11.61-5.053-11.605" fill="#0f141b"/>
  <path d="m126.41 89.371c-2.6856 0.0966-5.4902 4.3888-5.0473 12.303 0.48281 7.9427 3.4576 11.599 5.8761 11.514 2.5266-0.0805 5.5583-4.1332 5.1609-12.15-0.39752-8.3232-3.2987-11.787-5.9897-11.667" fill="#0f141b"/>
  <path d="m77.402 100.62c-0.99943 0.0154-2.2597 1.6062-2.2483 4.9337 0.0154 2.9239 1.0509 5.0588 2.2256 5.0588 1.2939 0 2.4754-1.8509 2.3788-5.1041-0.0966-2.8956-1.0268-4.8997-2.3561-4.8883" fill="#fff"/>
  <path d="m124.66 96.008c-1.1974 0.11259-2.0836 1.8849-1.8792 5.2744 0.19795 3.0432 1.6061 5.0132 2.6798 4.9166 1.2939-0.0966 2.1858-1.9076 1.919-5.3368-0.25588-2.9012-1.2939-5.0019-2.7195-4.8542" fill="#fff"/>
  <g fill="#0f141b">
   <path d="m90.532 105.39c-0.80629 2.01 6.3531 7.7328 9.453 7.4263 3.4349-0.26073 9.7597-7.6534 8.6639-9.6007-1.6749-3.0544-16.669-1.4243-18.117 2.1744m-1.8792-0.87389c1.9303-4.9224 19.326-6.8358 21.631-2.3336 2.0383 3.9573-6.4326 12.116-10.219 12.349-3.9515 0.25588-13.041-5.8706-11.412-10.015"/>
   <path d="m80.989 128.01c-1.3792 0.69202-1.7827 1.5386-1.1121 2.941 6.7392 14.069 18.355 22.188 26.338 21.983 8.2493-0.24464 24.725-10.657 25.094-27.422 0.0644-2.4982-0.57294-3.2987-2.7876-3.7926-13.49-2.992-31.419-1.8963-47.532 6.2907m-2.6002 3.6278c-1.0847-2.3334-0.82882-3.8493 1.8168-5.2971 16.976-9.4019 36.387-9.6688 48.65-6.3247 3.4122 0.94792 4.1731 2.2085 4.1731 5.5468 6e-3 16.925-16.862 29.16-26.769 29.461-8.6014 0.29452-20.819-8.2494-27.871-23.386"/>
   <path d="m118.03 119.26c-6.0181 9.2429-21.171 10.958-28.308 4.031l1.5563-0.73225c6.461 5.3424 18.98 3.7756 24.839-3.4349z"/>
   <path d="m127.35 140.68c-9.4134-12.95-33.923-7.7724-38.652 4.1446l-1.2038-1.1249c4.8031-12.939 31.169-17.867 40.725-4.3717z"/>
   <path d="m145.73 137.24c17.339-25.265-4.0651-63.179-41.003-62.044-27.32 0.87389-46.414 15.835-47.566 41.128-0.91412 20.445 10.555 33.56 36.767 43.086 4.2524 1.5498 3.6451 2.4924-0.36855 1.1748-26.945-8.9534-39.532-23.227-38.578-44.301 1.1008-24.516 19.201-41.724 49.695-42.712 36.052-1.141 59.353 33.611 44.676 60.715z"/>
   <path d="m96.37 59.442c-29.171 3.6222-50.74 23.567-51.841 51.205-0.7725 18.656 13.853 40.004 42.978 46.851l5.3029 2.5434c-32.555-4.6044-51.637-27.49-50.802-49.474 1.0557-28.058 22.943-49.74 54.106-52.772 3.9856-0.39107 4.9963 1.0509 0.25588 1.6464"/>
   <path d="m118.96 60.268c33.31 7.0571 54.112 41.179 38.948 68.215l2.5776-1.067c14.495-25.923-4.9449-62.305-41.236-68.817-3.6734-0.64696-3.7756 0.93183-0.28968 1.6692"/>
   <path d="m68.969 120.4c0.85135 0.0323 1.1185 0.26715 1.0847 1.1813-0.44901 8.7546-0.48763 17.027 0.17542 26.542l-2.0325-1.9361c-0.43776-8.079-0.22209-16.249 0.35728-24.283-4.4568 0.0967-8.17 0.48281-12.36 1.4372l-0.12873-1.902c4.2581-0.76125 8.2153-1.17 12.911-1.0397"/>
   <path d="m142.1 140.1c-1.5273-8.8285-3.0148-14.699-4.9963-23.022-0.26715-1.0284-0.14486-1.3052 0.92054-1.4983 5.8251-1.125 8.7604-1.6351 14.574-2.8217l0.25588 1.7656c-5.2007 0.94792-8.8966 1.5901-14.268 2.4982 2.1688 7.8746 3.7414 13.802 5.121 21.847z"/>
   <path d="m121.45 76.652c-6.2112 5.8307-14.466 12.456-21.268 16.754-0.60673 0.35728-0.88515 0.43131-1.5611 0.0482-7.9599-4.6443-12.235-7.3524-20.098-12.882l1.8849-1.0396c6.7334 4.6385 11.338 7.8521 18.963 12.536 6.4325-4.139 14.58-10.895 20.007-16.067z"/>
   <path d="m98.371 52.106c-3.8493-13.609-16.203-27.57-17.362-27.224-1.2086 0.35245-3.5598 14.96 11.633 34.105l-1.9531 0.37499c-15.21-17.214-13.484-35.541-10.407-36.711 2.4073-0.93182 13.865 11.457 18.026 23.437z"/>
   <path d="m116.99 50.083c4.0707-15.511 2.0212-34.911 1.2312-35.041-1.3567-0.28325-21.682 20.882-18.832 39.004 0.45386 2.9068-0.43773 3.0829-1.2038 0.30095-5.3256-19.298 18.378-42.564 20.791-41.928 2.5095 0.69203 4.1844 20.252 0.59545 34.746z"/>
   <path d="m121.84 59.885c16.567-7.92 28.677-26.644 28.138-27.61-0.62443-1.1748-22.545 3.6451-34.485 21.421-1.8793 2.8386-2.6741 2.3561-1.0734-0.61961 11.06-20.206 36.438-24.527 37.784-22.097 1.0895 1.9588-10.628 21.671-27.905 29.529z"/>
   <path d="m26.97 187.63c4.9282 9.7368 39.595-1.7487 61.68-21.353 2.7763-2.4924 2.1859-5.9329-3.2588-6.4439-37.068-3.5485-61.306 22.142-58.422 27.797m-1.8961 0.94792c-4.1049-7.9995 22.369-34.184 60.488-30.329 5.9046 0.59546 8.8399 4.8373 4.1219 9.1919-21.171 19.61-58.422 33.253-64.61 21.137"/>
   <path d="m27.236 182.05c2.379-1.919 3.9005-2.9125 6.6485-4.19 1.8849-0.88033 2.4073 0.0323 0.59545 1.0847-2.9978 1.7714-5.1324 3.3839-8.5844 6.3929z"/>
   <path d="m27.891 190.34c2.4356-3.1737 4.9053-5.0927 7.6192-6.3872 1.8963-0.89643 2.3844-0.0482 0.5842 1.0734-2.8217 1.7656-4.4795 3.2588-6.6596 6.2453z"/>
   <path d="m148.04 136.61c-7.2388 6.6824-15.636 9.7483-26.718 21.892-3.0602 3.3554-2.6004 6.0578 2.8615 6.6768 32.322 3.7642 63.866-30.71 59.523-38.119-2.3505-4.0595-20.496-4.4512-35.666 9.5495m-24.05 30.198c-7.3524-0.99941-7.6986-5.1664-3.7756-9.521 10.191-11.378 19.582-15.897 26.707-22.301 16.947-15.142 35.609-14.137 38.692-8.9534 6.2056 10.418-29.381 45.159-61.624 40.776"/>
   <path d="m179.14 123.9c0.56811 1.9417-2.0951 5.8022-11.23 10.373-2.2368 1.096-2.9239 0.33476-0.61317-1.067 6.7677-4.0765 10.98-7.9258 9.7653-9.5495z"/>
   <path d="m184.44 132.7c-2.2766 2.4356-5.121 4.2695-9.0385 6.2622-2.2597 1.1362-2.9012 0.39108-0.59063-1.0895 4.7748-3.0602 7.8917-5.6434 10.327-8.8399z"/>
   <path d="m118.6 161.44c-0.79504 0.32347-1.413 0.49407-2.1574 0.71615-2.2312 0.67594-2.7422 0.11259-0.46027-1.1362 0.88515-0.46511 1.8226-0.92538 3.4917-2.0041z"/>
   <path d="m63.88 190.33c0.39107-2.129 1.6013-3.7754 3.8551-5.7683 2.2937-2.0439 3.7983-3.5712 5.5695-6.2339l3.8041-2.3448c-3.5314 4.8714-5.8877 7.8236-8.2041 10.191-2.5492 2.6229-3.5257 4.3149-4.0764 7.71z"/>
   <path d="m66.601 187.67c5.5583-4.3944 10.702-9.4758 14.864-14.688l4.0878-2.9806c-4.928 7.2842-11.946 14.705-20.331 20.484z"/>
   <path d="m123.73 165.93c5.3199 11.962 10.986 27.468 11.554 37.818l-1.5337 1.2553c-0.26716-10.333-6.461-27.099-12.014-39.402z"/>
   <path d="m130.06 183.86c-1.3229-6.6824-2.9012-12.922-4.1615-17.64l2.021 0.0967c2.22 7.8178 4.3207 17.231 5.6321 27.059z"/>
   <path d="m116.06 233.27c-2.0098 6.6198 2.9978 11.474 10.816 7.0854 27.911-15.568 42.303-44.705 38.193-48.469-3.9175-3.5995-39.425 9.8902-49.008 41.383m-1.811-0.4989c9.7993-32.844 46.845-46.828 51.994-42.178 5.7627 5.2119-10.157 36.234-38.544 51.483-8.9365 4.8032-16.067-0.52789-13.45-9.3054"/>
   <path d="m149.63 223.6c-7.2161-5.7286-16.442-8.0336-18.418-11.094-0.56812-0.89641-0.57938-2.6117-0.31867-4.701l1.6238-1.6124c-0.30095 2.4811-0.35244 4.6839 0.14487 5.4107 1.4082 2.0836 10.975 4.9905 18.327 10.662z"/>
   <path d="m166.33 192.28c-5.6378 7.3068-15.375 18.463-22.471 26.355l-1.7204-0.76607c7.449-8.0336 17.612-19.531 23.221-26.781z"/>
   <path d="m127.4 229.07c-3.1396 3.3724-3.889 6.4836-3.0034 7.3807 0.73871 0.79502 3.821 0.0805 7.466-3.7812 2.9976-3.1225 4.0083-6.1544 3.2815-6.8015-0.97046-0.86263-4.3944-0.35245-7.7441 3.202m-4.082 8.5446c-1.5096-1.3229-0.99299-5.4276 2.9295-9.6063 3.6507-3.9232 8.4083-4.6668 9.9243-3.2929 1.2151 1.0895 1.1636 4.5251-3.2931 9.1749-3.872 4.0368-7.9712 5.0985-9.5608 3.7244"/>
   <path d="m134.29 196.57c0.85135 4.2695 1.6805 5.2346 3.4688 5.1041l-1.7883 1.794c-0.99941-0.14486-1.3792-0.4989-1.9019-1.2553z"/>
   <path d="m115.41 232.32c-2.3505-2.2879-4.6612-2.9578-7.0627-2.7081-10.736 1.141-20.104-1.1748-33.69-7.9883-3.4688-1.7429-7.182-0.11259-10.793 4.332l1.5337-3.7756c3.6109-3.1681 6.6029-3.7527 9.9356-2.1403 13.337 6.4722 22.994 8.9363 32.771 7.7895 3.0658-0.31867 6.0408 0.96562 7.9256 2.8444z"/>
   <path d="m69.568 220.55c5.5697 3.8324 8.9193 5.8138 15.971 8.8739 3.3385 1.4532 2.7309 2.2653-0.46511 1.1523-7.4263-2.64-11.27-4.3888-17.544-8.8115z"/>
   <path d="m115.79 231.77c-2.447 1.3969-5.5129 1.7146-9.1578 1.3342-3.2931-0.34119-2.9239-1.0895 0.0154-1.2312 3.0885-0.12873 5.3254-0.63088 7.4034-1.7146z"/>
   <path d="m108.65 232.51c-2.5832 12.786-3.0715 31.311 1.9361 42.888 1.7656 4.0595 0.78377 5.7229-2.6854 4.0595-8.9194-4.2524-23.902-16.891-24.811-50.354l1.9303 0.68076c1.1523 32.322 15.324 43.717 23.669 48.179 0.87387 0.45383 1.4758 0.46509 0.50532-1.7204-5.3482-11.883-5.0587-30.772-2.4924-43.734z"/>
   <path d="m105.77 253.52c-4.9791 5.5752-11.531 5.3198-17.163 1.5949l-0.67592-2.2483c6.5461 4.5532 13.087 4.0083 17.878-1.4532z"/>
  </g>
  <g fill="#6db131">
   <path d="m63.02 143.11c-0.14487-1.516-4.8769-2.5037-12.025-2.0325-8.6582 0.60673-12.371 3.344-12.28 4.6498 0.06436 1.2778 5.1097 2.5266 12.922 1.8226 7.8519-0.70974 11.588-2.6344 11.383-4.4399"/>
   <path d="m61.701 80.289c-13.791-31.998-36.313-43.756-38.897-41.451-2.43 2.1688 3.4973 33.628 33.656 47.486 4.0765 1.8905 7.6363-0.48764 5.2404-6.0351"/>
   <path d="m144.22 73.774c18.849-25.163 55.929-24.583 56.417-23.164 0.89641 2.7139-17.975 22.699-50.081 29.58-6.2056 1.3229-9.226-2.5946-6.3361-6.4156"/>
  </g>
  <path d="m39.6 194.6c7.2502 2.6173 18.134 4.8542 20.121 3.7642 1.9588-1.0735 3.3781-4.4626 4.5307-7.6476 6.2168 25.39 1.1475 36.495-3.9402 37.5-4.349 0.88515-14.813-7.6361-20.712-33.616" fill="#e3b47b"/>
  <path d="m39.6 194.6c6.9721 2.8103 17.873 4.6327 19.849 3.8322 1.9417-0.79986 3.8549-4.1956 4.8032-7.7156-3.4634-16.107-14.818-30.38-19.707-29.529-4.19 0.73871-7.903 16.873-4.9451 33.412" fill="#fff"/>
  <path d="m23.011 38.562c4.5704 17.248 17.663 33.872 34.792 44.829 2.7651 1.76 1.3744 4.928-2.2425 2.9353-20.501-11.202-36.654-36.387-32.549-47.765" fill="#5d9c33"/>
  <path d="m200.57 50.571c-12.451 10.481-33.128 20.587-51.205 26.627-2.958 0.98815-3.151 4.3831 1.3792 3.2702 22.364-5.6149 50.274-22.676 49.826-29.898" fill="#5d9c33"/>
  <path d="m59.738 198.45c-3.8322 0.84654-13.251-1.7146-20.149-3.838 1.9417 10.6 6.5234 21.041 13.217 29.637 2.7139 3.469 5.2858 4.5875 8.397 3.787 1.5096-9.226 0.69204-19.673-1.4645-29.586" fill="#c09868"/>
  <path d="m59.738 198.45c-3.4405-15.84-10.344-30.363-16.68-36.364-4.6158 9.7198-5.5356 21.2-3.469 32.526 6.8982 2.1234 16.317 4.6839 20.149 3.838" fill="#ddd"/>
  <path d="m49.919 204.39c-1.7544 0.60673-2.3391 3.9175-0.67594 9.2317 1.868 5.9897 4.5761 7.9656 5.7797 7.676 1.7487-0.43775 2.6571-4.968 1.141-10.435-1.413-5.019-4.349-7.1139-6.2453-6.4724" fill="#412914"/>
  <path d="m39.029 145.56c11.474-0.0966 20.326-1.8962 18.696-4.3376 2.5266 0 5.3482 0.53432 5.3141 1.9588-0.0644 1.9644-4.752 3.52-11.043 4.2127-7.3978 0.79502-12.859 0.2607-12.967-1.8339" fill="#5d9c33"/>
  <g fill="#0f141b">
   <path d="m44.89 162.15c-4.1218 0.5166-7.0627 18.702-4.1105 32.776 2.8273 13.427 7.1309 22.795 13.927 29.864 3.7246 3.8948 7.8804 3.452 9.737-2.2483 3.0942-9.4417 1.2939-20.252-1.0783-30.693-4.8258-21.393-15.897-30.057-18.475-29.699m8.4312 64.042c-6.9322-7.2616-11.73-17.299-14.597-30.942-3.1-14.767 0.14487-34.082 5.8988-34.814 4.4568-0.55684 15.664 9.3112 20.575 31.011 2.3959 10.634 4.2127 21.938 1.0332 31.663-2.3618 7.2332-8.3629 7.8066-12.911 3.0829"/>
   <path d="m39.262 193.22c6.9663 3.2419 18.588 5.0132 20.047 4.4739 1.0042-0.34601 3.7868-4.3036 4.2466-8.9932l0.83525 3.6278c-0.83525 3.6109-3.1454 6.6143-4.4795 7.0288-2.1858 0.68076-13.734-1.2939-19.973-3.713z"/>
   <path d="m47.856 197.12c-2.288-9.5722-3.7131-23.857-4.5988-35.081l1.4194-0.70973c0.95436 11.781 2.6571 26.133 5.0473 36.063z"/>
   <path d="m50.229 205.02c-1.1298 0.38626-1.7544 3.0715-0.16101 8.1812 1.7487 5.6264 4.0368 7.3297 4.7805 7.1422 0.93666-0.23818 2.0383-3.8834 0.50052-9.4019-1.3792-4.9393-3.98-6.3247-5.1268-5.9215m-1.7544 8.6581c-1.6805-5.3254-0.99941-9.2259 1.2376-10.015 2.0552-0.70974 5.6149 1.067 7.2217 6.8017 1.5611 5.581 0.64699 10.901-1.7373 11.508-1.8622 0.47637-4.7917-2.1461-6.7222-8.2949"/>
   <path d="m51.1 141.92c-8.8058 0.60191-11.571 3.0488-11.571 3.7075 0 0.89643 4.2297 1.7771 12.025 1.0783 8.3858-0.75479 10.753-2.6002 10.64-3.5313-0.11259-1.0332-4.718-1.658-11.094-1.2553m-13.189 3.9061c-0.11259-1.7202 3.9117-5.1154 13.092-5.6434 8.7377-0.52304 12.684 0.85135 12.916 2.8047 0.17542 1.6182-2.2425 4.5024-12.292 5.4163-9.3678 0.84009-13.632-0.93182-13.717-2.5776"/>
   <path d="m54.748 86.099c-30.159-14.847-35.887-45.312-32.634-48.088 3.6449-3.0544 27.57 10.475 39.442 40.6 1.6293 4.1219 0.81756 4.5136-1.125 0.49408-14.16-29.796-34.877-41.185-36.921-39.459-1.953 1.7203 3.5258 29.432 31.822 45.375 2.9863 1.6692 2.3107 2.5039-0.5842 1.0783"/>
   <path d="m151.33 79.274c31.482-8.4254 48.9-26.009 48.213-28.041-0.60191-1.8735-34.724-0.54558-54.345 22.29-1.5498 1.8054-2.3561 1.1925-0.98172-0.721 18.02-25.299 56.582-25.356 57.507-22.602 1.3519 4.0764-18.151 23.704-50.115 30.278-3.2305 0.64214-3.7414-0.28325-0.27842-1.2038"/>
  </g>
 </g>
</svg>
