<?xml version="1.0" encoding="UTF-8"?>
<!-- Created with Inkscape (http://www.inkscape.org/) -->
<svg version="1.1" viewBox="0 0 194.53 239.76" xmlns="http://www.w3.org/2000/svg">
 <g transform="translate(-6.3463 -26.732)">
  <path d="m96.691 143.45c19.571-3.4745 51.91-9.2561 63.299-8.1379-19.549 4.909-42.539 10.647-59.535 15.561z" fill="#fabe00"/>
  <path d="m146.93 176.83c6.6708 0.28913 18.311 0.22419 18.856 1.9418-6.5181 1.4132-14.645 2.1-20.149 1.8654z" fill="#fabe00"/>
  <path d="m179.47 210.19c-1.4178-1.1457-2.9018-2.3509-4.2927-3.5072-2.04-1.6853-2.1108-2.1872 0.52415-2.9562 1.6745-0.47468 3.2235-0.82874 4.8054-1.1395-1.1349-0.73597-2.1873-1.4611-3.1309-2.1491-2.2145-1.6309-2.1218-2.1436 0.58909-2.9126 2.0292-0.58288 4.0636-1.0854 5.9726-1.5214l6.3872 0.49631c-4.1781 0.42518-8.4872 1.8762-11.013 2.749 0.92149 0.72515 2.0126 1.5106 3.5727 2.5799 2.0236 1.3915 1.7781 1.9636-0.28294 2.3945-1.9198 0.40355-3.6163 0.86738-5.2417 1.3792 1.2323 1.0916 3.5018 3.1037 5.3509 4.4891z" fill="#763b00"/>
  <path d="m158.71 203.46-1.2879 4.4127c6.3763 0.99263 13.838 1.4178 20.994 1.4673-0.74677-0.59528-1.4843-1.206-2.2199-1.8109-4.3799-1.5546-11.716-2.5582-17.487-4.0691" fill="#fabe00"/>
  <path d="m185.47 209.28c-3.1364-0.53959-6.2181-1.124-9.2671-1.7508 0.73595 0.60609 1.4673 1.2106 2.2199 1.8108 2.3999 0.0159 4.7672 0 7.0472-0.0619" fill="#542400"/>
  <path d="m88.121 186.41c-0.88361 4.5-1.8545 13.02-1.3309 19.941-3.6654 12.78-4.7181 22.456-5.4544 30.665-0.56188 6.2616-1.9636 14.389-5.2363 20.945-3.2563 0.39272-5.4435 1.9528-5.0126 4.7618 0.43631 2.8198 2.6836 3.3435 6.0762 2.6835 3.0545-0.59373 5.1435-2.2636 6.5017-4.7126 1.1236-2.0508 3-6.0326 4.5381-9.8506 1.1564 1.6417 3.1908 3.7417 5.8635 4.9416-3.3708 2.1873-9.038 4.3527-8.5962 6.0599 0.58367 2.3073 6.5563 1.92 14.585-0.34325 8.2144-2.3183 14.792-4.5218 15.474-7.6036l1.9418-0.21801c8.2744 6.7962 20.863 3.9654 28.052-1.8654 1.4617-1.1828 2.2581-2.5527 2.3781-4.3689 32.339-1.0359 43.036-20.722 41.017-46.161-1.2647-16.042 7.3581-28.15 5.869-29.612-1.107-1.0916-10.903 5.9726-28.439 4.0254-24.878-2.76-49.466 7.2379-46.936 35.137-5.9999-6.0926-7.2162-13.134-13.38-19.085-2.0563-1.9854-2.4872-3.758-1.1727-7.1016z" fill="#ffe55f"/>
  <path d="m143.71 149.95-102.36 11.16s-12.343-14.825-13.489-16.227c8.5362 4.658 12.818 4.2109 16.647 2.4437-0.24536-2.7928-0.32732-5.0836-0.08186-7.2109-34.467-28.543-17.198-103.14-11.613-104.99 5.5799-1.8435 37.821 28.685 50.208 61.232 2.0072-0.4793 4.4181-0.77926 6.3162-0.89522 29.323-53.955 80.557-69.44 85.362-67.651 6.7906 2.5309 8.0344 62.661-30.987 122.14" fill="#ffe55f"/>
  <path d="m166.56 137.82c-8.5526 5.0072-18.469 7.069-28.096 6.8618-4.3417 2.1326-13.969 3.2235-19.652 2.9236-0.44729-8.2799-4.1236-15.283-11.073-16.614-8.2744-1.5871-18.06 4.6254-23.121 22.118-5.5362-1.6091-12.114-2.6563-17.547-1.543-1.4999-0.26748-2.4654-0.46386-3.7308-0.55661-1.9745-13.669-6.6326-20.236-11.127-19.363-4.0363 0.77462-6.9162 4.4017-3.6108 20.051-1.9309-0.10823-5.7217-0.89522-7.5653-3.1636-5.1217-0.15469-9.4471-1.3683-13.445-3.7144-0.11447 3.2235 0.52367 7.2925 2.1272 10.74 4.369 21.769 32.427 33.343 57.817 33.507 7.9198 0.0465 12.022-0.17937 17.76-1.9964 15.932-5.0126 35.836-15.605 45.435-27.19 9.2508-6.2727 14.089-14.673 15.829-22.058" fill="#fff"/>
  <path d="m57.12 133.56c-3.8345 3.7526-3.8563 12.016-2.9127 17.023 3.6927-0.0308 5.929 0.0619 9.1307 0.42054-0.49631-5.9452-2.9509-13.947-6.2181-17.443" fill="#ea5520"/>
  <path d="m56.646 138.5c-0.85085-0.0103-1.7563 0.95398-1.7672 3.0164 0 1.898 0.91083 3.3381 1.6418 3.3489 0.75266 0 1.6581-1.0808 1.6254-3.1854-0.02782-2.029-0.74726-3.18-1.4999-3.18" fill="#fff"/>
  <path d="m102.15 136.01c-3.5672 0.10823-7.2217 4.5-6.9053 14.362 0.35994 10.991 4.6853 14.623 7.8817 14.623 3.5127 0.0103 7.5926-4.789 6.8562-15.256-0.68726-9.7472-4.3581-13.843-7.8326-13.729" fill="#ea5520"/>
  <path d="m57.418 150.6c-2.6727-0.31079-8.4817 0.54579-9.2453 1.8546-0.77446 1.3096 0.47452 6.818 3.3817 10.98 6.9871 2.7218 12.643-6.5726 5.8635-12.834" fill="#595757"/>
  <path d="m66.98 194.25c-0.52909 0.0619-1.8436 2.1382-1.7727 2.5309 0.07105 0.39735 0.5073 1.92 0.94902 1.8926 0.4473-0.031 1.8109-2.2963 1.7291-2.7708-0.08665-0.47467-0.41994-1.6963-0.90542-1.6527" fill="#864b16"/>
  <path d="m58.441 204.5c-1.0472 1.2926 2.0945 3.2835 3.0108 2.4271 0.91639-0.8674-2.0672-3.5945-3.0108-2.4271" fill="#864b16"/>
  <g fill="#ea5520">
   <path d="m56.603 82.295c-10.314-10.991-23.901-16.729-25.025-15.703-0.77446 0.70968 1.1836 5.7818 3.1854 9.698-12.207-2.1981-14.192-12.834-17.285-13.292-1.2655-0.18554-3.5127 4.729-4.3799 8.2471-15.496 24.78 2.8527 63.173 31.325 68.873-0.86184-12.987 6.3926-29.132 19.952-36.528-1.9691-6.9654-5.0672-15.698-7.7726-21.294"/>
   <path d="m117.96 76.812c12.671-11.018 41.508-21.027 43.156-17.869 0.86738 1.6473-4.1181 8.7706-8.3672 13.543 27.818-2.4437 42.594-21.807 44.961-21.643 5.6944 0.39272 5.1218 79.569-59.372 90.767-0.94902-22.865-9.8671-37.336-31.614-44.672 2.6781-6.709 6.9108-14.847 11.236-20.127"/>
   <path d="m164.75 175.85c1.8054 1.1612 3.949 2.4163 6.1253 3.4417-2.1982 2.0672-4.6908 3.9-3.6544 5.1272 1.2539 1.4719 5.018-0.56743 7.3689 0.25666-2.6127 5.7872-2.8308 11.427-1.7999 11.793 1.0205 0.38653 7.4235-1.4611 12.18-5.7436-0.0464 4.4399 1.1179 9.8998 4.0144 14.438-2.3127-19.625 7.2817-32.694 5.8036-33.496-1.8328-1.0096-5.7436 5.1762-30.038 4.1835"/>
  </g>
  <g fill="#ddc653">
   <path d="m86.933 198.18c4.7835 3.5835 15.611 6.6871 25.516 2.9562-1.3581-3.049-4.7126-7.6307-6.0871-8.9562-1.3854-1.3142-3.0163-3.5727-2.4981-7.1944l-15.916 1.4889c-0.66546 4.6363-0.87821 6.6107-1.0146 11.705"/>
   <path d="m87.961 229.43c-1.2164 12.202-3.6818 23.181-6.9544 29.47-1.4127 2.711-7.0199 4.9364-9.8289 3.3763-0.46911 4.3473 8.4871 4.8982 12.158-1.325 5.629-9.5234 7.8708-18.709 7.6253-26.138-0.92722-1.7346-1.3199-3.7854-1.3909-5.0945z"/>
   <path d="m97.325 232.71c2.7872 3.1527 7.9471 5.8254 12.071 5.5908 5e-3 4.6854 2.1654 11.356 8.3071 15.447-10.554 1.1178-23.983-6.1199-28.423-23.809 2.8254 0.64937 5.7326 1.7782 8.0453 2.7708"/>
   <path d="m110.76 228.67c-1.5491 17.994 14.247 27.55 29.699 20.002 4.9636-2.4327 4.2927-5.2035 5.2363-7.3581l2.869-0.94315c-0.85084 1.7618-0.82904 3.049-0.63268 5.149 0.27815 3.011-1.2109 6.2563-4.7672 8.0726-24.223 12.393-39.174-8.4925-32.405-24.921"/>
   <path d="m160.53 225.11c10.603-2.4381 23.487-10.331 28.199-22.641 4.3691 28.576-16.641 45.316-40.821 44.852 0.23996-3.3653-0.54007-5.6835 0.92181-7.1725 5.1763-2.4491 10.227-9.3927 11.7-15.038"/>
   <path d="m89.911 245.67c0.89458 4.3035 3.2672 8.4871 7.5926 10.56-0.55629 2.7381-3.2018 6.1253-7.418 7.1507 3.0927-0.17471 7.0417-1.0359 9.7962-1.6963 8.3671-2.0018 15.109-5.0672 15.627-7.718-9.8944 0.0619-19.347-7.3363-24.414-18.06-0.22357 3.5835-0.40911 5.738-1.1836 9.7634"/>
   <path d="m56.63 82.455c-12.42-27.125-22.652-39.528-24.834-39.31-1.6254 0.16852-3.6327 2.2036-4.5163 6.0544-1.7672 7.7234-2.449 11.967-3.2563 21.349 2.8527 2.4545 6.1362 5.2417 10.685 5.9181-1.8872-3.7746-4.0145-8.8144-2.7927-9.8562 1.2109-1.0313 15.425 5.9834 24.714 15.845"/>
   <path d="m118.73 76.082c16.331-22.194 44.186-37.27 46.521-35.95 2.8308 1.5817 1.8654 21.098-2.7763 30.823-3.2345 0.87821-6.9871 1.5981-10.26 1.8708 4.5108-4.8 10.08-12.409 9.0707-13.854-1.5653-2.2526-22.194 2.6127-42.555 17.111"/>
  </g>
  <path d="m157.66 141.76c-1.6199 8.9944-14.094 21.605-26.754 25.243 19.745-2.0945 32.863-16.647 35.661-29.219-4.6744 2.3891-3.8728 2.2691-8.9072 3.9764" fill="#dcdddd"/>
  <g fill="#ddc653">
   <path d="m156.95 198.79c-0.54578 8.1871-5.3071 20.662-14.421 29.039-1.9963 1.8382-0.57811 5.4163 2.6236 2.989 11.509-8.738 15.082-31.025 11.798-32.028"/>
   <path d="m160.67 218.97c-1.424 5.9236-6.7199 15.294-15.109 18.747-2.3836 0.97098-1.7509 4.6199 1.2491 3.5889 11.214-3.818 16.996-21.66 13.86-22.336"/>
   <path d="m137.29 141.6c0.0324 0.99263 0 1.9472-0.24552 2.9998 3.5454 0.0159 7.6526-0.10823 10.494-0.56744 1.0472-1.6472 2.1218-3.5945 3.0817-5.5744-3.4472 1.2276-10.2 3.1036-13.331 3.1418"/>
  </g>
  <path d="m39.159 172.46c4.9744 4.1127 18.671 16.112 48.37 16.603 7.9198 0.12368 12.022-0.17934 17.76-1.9964 15.791-4.9634 35.465-15.403 45.163-26.874-1.7236 1.1673-10.489 4.8926-10.489 4.8926-30.878 24.185-69.14 26.612-100.8 7.3743" fill="#dcdddd"/>
  <path d="m58.921 161.32c-3.1963-3.0598-6.6871-5.727-10.843-8.6234-0.73085 1.0421 0.9818 5.738 3.589 11.002 3.2072 0.50714 5.7763-0.18554 7.2544-2.3783" fill="#3e3a39"/>
  <g fill="#cb4819">
   <path d="m31.627 66.414c3.5508 7.5872 8.618 13.92 14.983 20.683 3.4908 3.7035-0.20734 5.8526-3.1145 2.3508-5.4217-6.5181-13.331-18.752-11.869-23.034"/>
   <path d="m33.012 81.691c4.6308 8.5417 10.816 14.345 17.885 19.014 2.9127 1.9254 1.7127 5.6562-2.1054 3.4145-11.089-6.5071-17.569-19.98-15.78-22.429"/>
   <path d="m16.915 63.666c-3.2836 10.113-2.0509 20.814 4.2545 31.445 2.449 4.129-1.4563 7.4181-4.2654 2.809-8.4435-13.871-5.7872-26.918 0.01063-34.254"/>
   <path d="m8.1949 100.42c7.7344 14.051 26.427 22.467 40.363 19.527-2.5963 7.6308-3.7527 12.616-4.2435 19.99-11.683-1.8872-32.143-15.605-36.119-39.517"/>
   <path d="m160.82 58.661c-5.1272 6.3217-15.72 16.571-26.345 24.272-3.7581 2.7163-0.82364 6.8726 2.7763 4.1072 10.118-7.778 26.094-25.701 23.569-28.38"/>
   <path d="m159.49 77.622c-5.8308 7.4289-14.258 14.432-26.318 17.94-4.2926 1.2539-3.6217 5.9944 1.0964 4.8162 12.349-3.0818 28.587-19.003 25.221-22.756"/>
   <path d="m197.61 50.53c-3.7308 17.285-10.849 34.188-28.516 49.984-3.6818 3.3055-0.1547 7.5217 3.6217 4.4127 20.323-16.761 28.947-51.664 24.894-54.397"/>
   <path d="m133.01 117.96c16.707 1.86 46.603-6.7308 61.112-25.058-8.618 23.814-26.116 43.281-56.159 48.943-0.4527-9.5289-1.4727-16.734-4.9526-23.885"/>
  </g>
  <g fill="#0f141b">
   <path d="m96.111 150.39c0.32176 9.7852 3.769 13.903 6.9762 13.903 2.9945 0.0103 6.8181-4.3145 6.1035-14.454-0.66547-9.5071-4.1836-13.243-6.9599-13.151-3.0981 0.10824-6.4362 3.9764-6.1199 13.702m7.0035 15.316c-3.6708 0-8.5253-3.9764-8.9071-15.398-0.33272-10.385 4.1508-14.88 8.0017-15.011 3.529-0.1237 8.0453 3.4473 8.8144 14.427 0.78545 11.171-4.0963 15.992-7.9089 15.982"/>
   <path d="m115.82 157.96c4.2926-12.763-1.189-23.634-9.1198-24.807-8.0562-1.1998-17.781 7.118-22.025 22.418-0.65448 2.3563-1.4617 2.2363-1.08-0.19017 2.8418-18.027 14.176-27.201 23.64-25.68 10.658 1.7236 15.965 15.496 9.5998 28.69-1.4563 3.0054-2.1109 2.8308-1.0146-0.43139"/>
   <path d="m53.423 151.13c-1.2436-7.8598-0.27272-14.111 3.0272-17.738l0.98722 1.2106c-3 3.3819-3.5018 8.7162-2.3018 16.282z"/>
   <path d="m57.999 174.93c-7.0308-9.3107-12.556-19.751-10.614-22.892 1.5982-2.5745 13.516-2.9562 23.967-0.37107 3.1854 0.78545 3.0109 1.6691-0.21274 1.0746-10.8-2.0018-21.25-1.1565-22.14 0.24585-1.1291 1.7835 3.0818 11.487 9.8944 21.305 2.1654 3.1198 1.3363 3.5945-0.89458 0.63858"/>
   <path d="m58.02 150.72c5.989 3.4799 2.9727 16.167-6.1853 13.472l-0.73087-1.6582c8.978 3.3273 11.062-9.3215 4.5599-11.558z"/>
   <path d="m48.012 152.67c-3.7254-12.354-1.86-21.005 3.6218-22.32 5.8799-1.407 10.816 6.949 12.403 20.847l-1.5654-0.0927c-1.6091-12.971-6.2835-18.774-10.249-17.7-3.6436 0.98797-5.989 7.069-3.0818 18.545z"/>
   <path d="m66.239 143.5c-1.5763-5.967-2.7763-8.9998-4.6854-13.587-0.86182-2.0398-0.33815-2.2581 0.75266-0.34323 2.4381 4.2545 3.4145 7.7398 4.729 13.789 0.58908 2.7164-0.07584 2.82-0.79641 0.13909"/>
   <path d="m70.527 145.21c-0.9218-9.2017-0.26176-15.441 3.4145-23.972 1.4181-3.2999 1.8981-3.1582 0.73643 0.23964-2.9018 8.4763-3.5672 14.471-3.3927 23.596 0.04324 2.6345-0.49089 2.7708-0.75823 0.13911"/>
   <path d="m76.631 143.51c0.76363-5.678 2.5418-10.058 5.9563-14.678 1.86-2.5255 2.2036-2.3017 0.5999 0.38189-3.049 5.0945-4.3581 8.8254-5.869 14.471-0.69809 2.5855-1.0528 2.5637-0.68726-0.17472"/>
   <path d="m44.613 172.92c-11.88-6.0545-17.907-17.782-17.934-27.496-0.0053-1.7835 0.50188-2.0562 2.0672-1.206 7.5708 4.1182 11.951 3.9326 14.836 2.8418-1.62-21.125 5.3835-35.421 19.674-43.805-4.909-16.871-14.362-36.272-25.483-53.132-2.689-4.08-2.0072-4.4781 0.91083-0.6169 11.869 15.703 21.463 36.414 26.361 53.475 0.23996 0.82409 0.1469 1.1952-0.52909 1.6036-14.203 8.5689-20.138 21.501-19.134 42.566 0.02783 0.52879-0.16355 1.0205-0.65448 1.1936-3.3763 1.206-8.6235 1.8982-16.331-2.3289 0.57827 9.027 6.2726 19.543 16.756 25.941 3.5017 2.1436 2.9727 2.749-0.54006 0.96015"/>
   <path d="m89.282 96.312c-4.3908 0.39272-8.2962 1.1782-12.736 2.5581-3.1963 0.99262-3.7199 0.40353-0.3927-1.0313 4.1126-1.7728 9.1798-3.0382 14.007-3.4199z"/>
   <path d="m138.68 142.42c-1.2164 0.2072-1.3799-0.16391-1.4181-1.124-0.86182-22.331-11.749-37.979-30.228-43.101-1.2436-0.34325-1.3745-0.70969-0.88904-2.0892 6.6217-18.954 26.716-39.823 49.444-52.363 4.1125-2.2744 4.5708-1.4673 0.5399 0.94932-22.216 13.374-41.448 33.518-48.304 51.795 19.467 5.2798 30.872 22.287 31.254 44.306 57.402-11.487 62.11-75.626 58.93-88.046l0.72512-2.6237c6.2072 7.2435 2.4817 81.549-60.053 92.295"/>
   <path d="m152.59 72.156c31.93-4.8654 41.077-22.816 45.659-22.319 3.9816 0.43139-2.4655 39.201-24.501 54.588-3.6436 2.5417-4.3035 2.029-0.66485-0.87202 20.847-16.647 25.663-51.495 24.359-51.752-1.2276-0.23964-14.361 18.54-46.139 21.96z"/>
   <path d="m30.711 157.16c6.0162 18.092 27.867 30.55 56.492 31.178 1.0146 0.0159 1.2763 0.29995 1.1672 1.2818-0.82363 7.5218-1.1564 12.993-0.67629 21.092 0.17454 3.0762-0.75266 3.1962-1.0964 0.10824-0.88902-8.0126-0.81821-13.565 0.16355-21.043-32.143-0.45299-57.97-15.758-59.104-40.625z"/>
   <path d="m82.272 96.568c-16.036-37.401-45.703-61.221-49.401-60.457-2.209 0.45765-6.829 18.49-7.6798 35.121l-1.8491-1.4997c0.88363-15.48 4.9254-34.499 9.0817-35.547 5.8962-1.4828 36.097 24.905 51.37 62.05z"/>
   <path d="m57.589 85.033c-9.578-11.509-24.425-18.365-25.309-17.651-0.67645 0.5458 3.2345 11.422 10.887 20.312 2.9345 3.4089 2.1272 3.9762-0.82363 0.73133-7.8108-8.5853-13.472-20.869-11.334-22.62 1.8545-1.5214 15.845 5.3343 24.807 15.251z"/>
   <path d="m33.614 82.506c-0.67643 0.77462 3.3218 13.56 15.671 20.716 2.329 1.3467 1.7181 2.1164-0.52369 0.97097-13.582-6.9544-18.289-21.61-16.647-23.039 1.091-0.94315 4.2981 0.01595 6.1253 0.89984l1.2655 2.1054c-2.7872-1.4611-5.509-2.1-5.8908-1.6527"/>
   <path d="m152.26 137.86c-1.2381 1.9964-2.5254 3.9818-3.8617 5.9564l-1.909 0.25667c1.069-1.7127 2.1-3.4309 3.109-5.1436z"/>
   <path d="m175.81 66.081c3.2181-21.785 1.0205-36.414-1.7236-37.254-4.9636-1.5168-57.501 15.054-86.136 70.859-1.6363 3.1909-2.5036 2.7436-0.9818-0.50094 26.225-55.935 81.097-74.399 87.789-72.293 4.2381 1.3359 6.3981 16.669 3.54 37.985z"/>
   <path d="m119.61 75.006c14.836-12.272 40.319-19.92 42.523-16.587 1.789 2.7109-10.129 18.447-24.12 28.254-2.6836 1.8708-3.4363 1.2214-0.66006-0.88904 13.44-10.184 23.52-25.429 22.887-26.241-0.9988-1.2926-29.743 5.5363-45.37 21.632z"/>
   <path d="m135.39 100.25c-3.6054 0.8241-3.8072 0-0.24538-1.0684 14.427-4.3309 24.714-18.692 23.65-20.798-0.50715-0.99879-8.318 0.29378-14.28 2.3345l1.7836-1.9582c3.9054-1.6364 13.309-3.4527 14.34-1.8108 2.5745 4.1016-10.723 19.985-25.249 23.301"/>
   <path d="m123.54 168.7c-3.7799 0.0772-3.8181-0.75297-0.065-1.1024 21.212-1.9746 35.923-11.416 41.634-27.938-8.3671 4.5544-19.483 6.5071-30.747 5.5417-4.0254-0.35408-3.9708-1.1457 0.0494-1.1024 11.492 0.10823 20.634-1.4348 30.267-6.5235 2.5581-1.3467 3.2508-1.0467 2.5527 1.5276-5.0454 18.562-22.336 29.132-43.69 29.596"/>
   <path d="m156.98 154.73c-12.093 16.478-34.99 28.03-51.659 33.234-0.66004 0.21339-0.50728 1.4178 0.45813 2.3945 3.0163 2.989 5.5526 6.3271 8.0016 11.007 3.1581 6.0108 6.7417 11.007 20.171 18.736 10.374-7.4508 20.618-22.849 23.661-22.189 2.7109 0.58442 1.4395 22.74-11.891 32.645-1.9472 1.4395-2.6999 0.8241-0.68184-0.86738 11.454-9.6162 12.769-29.285 11.776-29.541-1.2324-0.31695-11.7 14.247-22.663 21.583-0.49089 0.33241-0.91639 0.25667-1.3527-0.0103-13.865-8.2089-17.901-13.685-20.803-19.33-2.5745-5.0018-3.9436-7.3745-7.5544-10.783-1.6091-1.5384-2.209-4.2927 0.10366-5.0182 17.432-5.4545 35.568-16.21 46.139-27.25z"/>
   <path d="m149.39 225.99c4.3636-2.2855 10.118-8.8144 12.327-7.8762 2.8198 1.1952-2.0946 19.636-14.433 23.252-2.0563 0.61072-2.6127-0.23965-0.33272-1.0467 10.734-3.8018 14.503-19.669 13.407-20.094-0.64319-0.25049-7.7234 6.5672-13.647 8.7436z"/>
   <path d="m150.12 239.61c-1.3255 1.8328-1.5219 2.8146-1.3963 5.4163 0.17996 3.5945-0.81822 6.2999-3.7908 8.2745-12.42 8.2361-29.078 7.7234-35.459-9.3544-3.6872-9.8452 1.2709-22.232 10.827-25.412 2.5036-0.83954 2.8145-0.0103 0.3873 1.0251-8.7544 3.7526-12.807 15.049-9.5398 23.781 5.3999 14.438 20.023 17.187 33.005 8.5798 2.4436-1.6309 3.2509-3.4417 3.0654-6.829-0.0927-1.7508-0.0819-3.1526 0.55633-4.5325z"/>
   <path d="m90.251 230.1c2.7054 11.82 13.625 23.46 26.449 22.8l1.62 1.6363c-15.278 2.2036-27.818-12.087-29.749-24.889z"/>
   <path d="m97.495 256.72c-4.2326 0.41436-6.8999-1.3467-9.7253-4.909l0.65448-1.9582c2.52 3.9872 5.6126 5.798 8.8853 5.7872 1.8272-6e-3 1.9963 0.91068 0.18538 1.0808"/>
   <path d="m95.115 256.07c-3.109 2.6617-10.096 4.0362-8.5635 6.0926 0.73627 1.0143 5.3235 0.73132 15.322-1.8872 9.4744-2.4819 12.829-5.0727 12.932-6.4854l1.6309 0.0619c0.28358 2.029-4.2763 5.2635-14.203 7.8216-9.0271 2.3291-16.085 3.4527-17.411 1.2168-1.86-3.1472 4.9854-5.0018 8.5362-7.4017z"/>
   <path d="m87.013 208.25c-2.3999 9.6216-4.2654 19.816-4.8872 28.827-0.64365 9.2671-2.3618 14.083-5.1544 20.803-0.19095 0.46386-0.39813 0.73598-0.93278 0.81327-3.2836 0.38654-4.5326 2.2308-4.009 4.3363 0.31633 1.2385 1.7563 2.2526 4.6799 1.7235 3.2018-0.62155 4.8108-1.909 6.1417-4.2817 5.1544-9.158 6.9544-15.578 7.4562-26.612l1.3855 2.7654c-0.29454 8.547-2.4818 15.392-7.4835 24.589-1.5273 2.8144-3.2399 4.2545-7.3035 5.0508-4.0363 0.82872-6.1963-0.6494-6.7253-2.9018-0.5127-2.209 0.70906-5.4053 5.5254-6.038 2.4709-6.5398 4.2163-11.231 4.8054-20.329 0.56186-8.8854 2.1818-19.281 6.1144-33.594z"/>
   <path d="m147.94 246.74c30.681-1.6909 41.656-21.152 40.226-41.585-1.4781-21.218 6.9599-31.99 6.0599-32.961-1.0684-0.89523-7.898 6.4745-32.699 4.1235-21.169-1.9964-44.606 9.8126-40.996 35.378l-1.8054-1.5214c-3.5181-25.052 20.361-37.723 42.888-35.476 25.358 2.5364 32.083-5.4981 33.954-4.0798 2.1055 1.6091-7.5107 12.971-5.7326 34.303 2.0782 24.84-12.311 42.55-42.141 43.51z"/>
   <path d="m188.98 207.71c-3.0164-6.9598-4.3853-9.4853-4.3853-16.031-4.3091 4.0198-11.46 6.4307-12.551 5.6399-1.2709-0.91686-1.0529-7.1944 1.9416-12.202-2.6617-0.24585-6.7088 1.7453-7.7452-0.23966-0.57826-1.1178 0.88904-3.7416 3.709-5.3617-1.98-0.91687-4.5327-2.2854-7.0581-3.7198h2.8254c1.7018 1.0529 3.7582 2.1272 5.3727 2.8362 0.69266 0.32159 0.95396 0.64937 0.27831 1.2431-1.7018 1.5384-4.2599 3.2344-3.6599 4.2871 0.55043 0.96479 4.838-0.88439 6.9216-0.26747 0.67566 0.20718 1.0529 0.5504 0.72049 1.2879-2.3291 5.1381-2.9672 10.282-2.3291 10.723 0.75296 0.55043 6.638-1.7072 11.302-5.569 0.70966-0.58288 1.3745-0.32777 1.4023 0.58908 0.16852 6.2453 1.3467 9.4908 3.3109 13.685z"/>
   <path d="m66.958 194.85c-0.21815-0.0464-1.2382 1.6309-1.2054 1.9254 0.03242 0.36489 0.29996 1.1457 0.4255 1.189 0.1531 0.0308 1.1346-1.5873 1.1564-2.029 0.01064-0.29377-0.26176-1.0638-0.37633-1.0854m-0.69809 4.4291c-0.81821 0.10823-1.5545-1.3637-1.74-2.4491-0.13148-0.70968 1.4891-3.0272 2.329-3.1854 0.68184-0.0465 1.5763 0.97714 1.7781 2.16 0.17998 1.0359-1.7454 3.3981-2.3672 3.4745"/>
   <path d="m58.867 204.85c-0.56188 0.67101 1.8927 2.1927 2.209 1.68 0.32176-0.52413-1.8163-2.1545-2.209-1.68m-0.9-0.68805c1.3527-1.729 5.3617 1.6037 3.9326 3.18-1.3199 1.4456-5.4599-1.2431-3.9326-3.18"/>
   <path d="m35.451 77.693c-12.42-2.7818-16.783-13.647-17.743-13.631-1.14 0.03084-10.614 17.356-0.17996 33.168 2.149 3.2563 1.4727 3.6545-0.88363 0.64939-11.847-15.071-2.2418-35.808 0.79643-36.228 3.3327-0.46385 4.6908 10.374 17.263 14.34z"/>
   <path d="m13.192 72.215c-14.651 30.539 7.4235 61.668 31.298 67.275l-0.07584 1.6145c-26.367-5.0454-51.784-42.523-29.574-74.928z"/>
   <path d="m102.17 144.22c-0.68185 0.0159-1.0254 3.3217-0.84002 7.4343 0.21276 4.4837 0.75823 7.4399 1.4235 7.4399 0.62185 0 0.9-3.3489 0.73086-7.4781-0.16922-3.9598-0.67086-7.4071-1.3145-7.3961"/>
   <path d="m58.329 150.75c-0.41452-3.2945-0.34355-6.1308 0.19637-6.1799 0.52367-0.0618 1.1945 3.0872 1.5763 6.2725-0.56728-0.0464-1.1346-0.0772-1.7727-0.0927"/>
  </g>
  <path d="m121.7 259.09c-0.62727-1.9746 2.329-6.1473 6.0108-7.0745 3.2454-0.81327 9.5671 0.87203 10.173 3.1909 0.5399 2.0836-3.0163 3.7416-8.0671 4.8762-6.3108 1.407-7.5708 0.71431-8.1162-0.99264" fill="#ffe55f"/>
  <path d="m76.583 180.51c-3.2345 3.0764-7.4726 6.2563-10.865 7.969-1.8 0.89522-4.3145 2.3181-6.1308 4.1618-1.8054 1.8326-6.5235 5.5854-10.494 9.1199-1.3799 1.2214-2.0509 2.138-2.749 3.7798-1.2436 2.9126-3.6218 6.1471-4.1836 6.3327-0.48548 0.17472-4.2326-1.8654-4.3526-2.3727-0.12528-0.5025 3.3872-5.7654 4.7454-7.8544 1.0036-1.5545 0.04324-2.1546-1.7127-1.6691-6.5671 1.8217-20.143 3.829-25.281 6.0162-1.5217 0.64938-2.0618-5.4599-0.45813-6.0872 7.958-3.0818 18.131-3.769 29.061-4.8872 1.009-0.0927 1.4399-0.20718 2.149-0.8241 1.3417-1.1611 4.6145-2.749 6.9653-3.6109 2.3509-0.87202 5.0181-2.7326 6.9817-4.6362 0.81821-0.79164 1.7072-1.2431 2.6727-1.3745 0.96541-0.12369 2.209-1.2168 2.9509-1.909 0.81266-0.78544 2.16-1.0421 3.7145-1.2818 1.0418-0.15451 4.4181-2.4927 6.3981-3.8726 0.07584 1.0251 0.34371 2.1762 0.58907 2.9998" fill="#864b16"/>
  <path d="m99.413 204.5c-1.4127 5.078-2.3945 7.658-4.5436 11.842-1.14 2.2308-2.2254 3.0762-4.7835 3.2562-4.5054 0.29378-7.1399 0.38653-10.751 0.16391-6.0817-0.37571-11.094 3.289-12.791 8.4325-0.75823 2.2855-0.02783 4.4781 1.6091 5.3017 1.7181 0.87821 4.8872-0.18554 7.069-3.5181 0.77446-1.189 2.3672-1.92 3.9272-1.8654 5.9399 0.17935 10.653 1.543 16.631 4.2109 2.869 1.2771 4.7344 0.47931 6.3762-1.56 3.5345-4.3799 6.7908-8.738 10.227-13.669 2.6618-3.8126-11.951-16.276-12.971-12.594" fill="#ffe55f"/>
  <path d="m100.87 228c-1.2818 1.6309-3.0272 1.8546-5.7653 0.86737-5.8581-2.1054-10.085-3.0762-16.576-3.3271-2.7163-0.10823-4.2108 0.61692-5.5799 2.8418-1.8 2.9234-5.5472 3.3381-6.589 0.48549 0.13148 5.5636 4.5545 7.4181 8.5853 1.2818 0.97081-1.4781 2.4109-2.0236 4.1617-2.0236 4.2926 0 11.651 1.8053 17.034 4.3853 2.1818 1.0529 4.2817 0.21801 5.869-1.6145 3.4581-3.9872 6.0762-7.1235 10.113-12.796 2.0945-2.9454-0.32732-4.0418-2.7108-1.2106-3.2345 3.8728-5.3181 7.0799-8.5416 11.111" fill="#ddc653"/>
  <path d="m122.06 257.06c2.5799 1.7073 12.627-0.67719 14.629-3.3109 1.4945 0.7808 1.8436 2.6836 0.10983 3.7362-3.7254 2.2527-8.4926 3.5345-12.458 3.4255-2.1872-0.0618-3.409-2.2309-2.28-3.8508" fill="#ddc653"/>
  <path d="m16.963 202.96c7.3908-2.0074 17.312-3.9436 23.749-4.9418 2.7218-0.42056 3.6654 1.543 2.5254 3.4635 0.04944-1.2817-0.50728-1.8217-2.2418-1.4735-9.2507 1.9036-21.169 4.7126-25.129 5.9836 1.0528-1.1457 1.2654-1.8326 1.0964-3.0326" fill="#6a3906"/>
  <path d="m40.123 211.02c1.62-2.0072 2.6836-3.8836 3.5781-5.8036 0.8946-1.9198 2.2636-3.289 3.7854-4.6035 3.9872-3.4637 6.0544-5.2635 10.025-9.038 1.7945-1.7128 3.1472-2.7 5.6235-3.9982 4.1726-2.1817 9.2344-5.3617 13.009-8.4107l0.47452 1.3142c-3.4036 3.0598-8.0071 6.5343-11.842 8.4979-2.449 1.2431-3.6599 2.2855-6.0326 4.4672-2.3672 2.1927-6.938 6.0326-8.9016 7.6908-1.9691 1.6581-2.9618 2.7762-3.6381 4.5435-0.67629 1.7618-3.2454 6.0326-4.0308 6.2453-0.38732 0.10823-1.189-0.23502-2.0509-0.90602" fill="#6a3906"/>
  <g fill="#0f141b">
   <path d="m127.88 252.71c-3.0327 0.78544-5.8635 4.4235-5.3181 6.1417 0.42551 1.3359 2.509 1.4719 7.1017 0.44219 5.449-1.2168 7.778-2.8254 7.4998-3.8836-0.44728-1.7072-5.5308-3.6653-9.2834-2.6999m-7.0799 6.6326c-0.8946-2.4109 2.4818-6.8344 6.7853-7.969 4.6744-1.2276 10.396 1.2648 11.029 3.6872 0.43091 1.6527-1.2491 4.058-8.6726 5.8198-6.5999 1.5599-8.3998 0.46384-9.1416-1.5384"/>
   <path d="m110.75 218.41c2.0345-2.7872 2.749-2.2745 0.89461 0.63854-3.2345 5.0891-5.2417 7.909-8.858 12.289-2.16 2.6072-4.3854 3.1691-7.3198 1.8218-6.3817-2.9344-10.783-4.3799-16.249-4.5435-2.1109-0.0619-2.5363 0.15469-3.5454 1.7508-2.6836 4.2926-5.8799 4.9744-7.9144 3.949-1.8709-0.94934-2.9999-3.3381-2.0127-6.3053 1.9691-5.9618 7.5053-9.4144 13.767-8.9726 3.6654 0.26132 6.1362 0.0929 10.571-0.36489 2.1381-0.218 2.8909-0.57824 4.0526-2.858 2.0999-4.0854 2.9999-6.1471 4.7344-11.563 0.80724-2.5145 1.6963-2.2637 1.0636 0.28913-1.3636 5.5526-2.2581 8.0563-4.3963 12.223-1.3527 2.6399-2.2745 3.3871-5.3563 3.6163-4.3745 0.32159-7.1781 0.23502-10.86 0.0103-5.2853-0.31697-10.265 2.6399-12.011 7.9144-0.61089 1.8544-0.20178 3.6271 1.2218 4.3471 1.3799 0.70349 3.769 0.16852 5.8962-3.0872 1.26-1.9364 2.0181-2.2309 4.7563-2.1654 5.8144 0.17936 10.205 1.2926 17.018 4.1126 2.4327 0.9988 3.5727 0.654 5.3072-1.3529 3.5454-4.1072 5.5908-6.7308 9.2398-11.749"/>
   <path d="m77.761 183.08c-1.5818-1.3791-2.3345-3.5399-2.2745-6.589 0.02781-1.6799 0.57827-1.7616 0.76905-0.10824 0.29996 2.798 0.99819 4.778 2.2745 6.1471 1.3199 1.4395 0.62186 1.7726-0.76904 0.54578"/>
   <path d="m69.744 181.99c-1.4017 0.20717-2.7436 0.47465-3.4581 1.1457-1.3255 1.2756-2.4054 1.9308-3.2672 2.0562-0.8564 0.10823-1.5654 0.51795-2.2854 1.2276-2.1709 2.1-4.969 3.9216-7.2326 4.7616-2.3454 0.86122-5.5635 2.3345-6.8235 3.4255-0.84543 0.73597-1.3909 0.89522-2.46 0.97099-8.918 0.67101-21.801 2.0728-28.925 4.8436-0.96541 0.37572-0.70363 4.7453 0.06025 5.078 6.0544-2.2963 21.081-5.0562 25.32-6.1362 2.2854-0.58909 3.6599 0.55043 2.34 2.5799-1.1128 1.7128-4.5163 6.9817-4.4345 7.3745 0.06025 0.31697 3.0163 1.9144 3.3817 1.8436 0.32732-0.0619 2.6236-3.1691 3.7854-5.8964 0.71446-1.6908 1.5381-2.6508 2.9836-3.9162 3.0708-2.689 7.0417-6.109 10.374-9.1853 1.5219-1.4132 3.5672-2.8908 6.3272-4.2707 3.1472-1.5873 7.7017-5.0346 11.062-8.2417l0.48549 1.4565c-3.4363 3.2018-7.7998 6.3545-10.974 7.9526-2.6509 1.3359-4.5272 2.7164-5.9562 4.0418-3.3872 3.1472-7.3362 6.2617-10.587 9.0598-1.3473 1.1735-1.8709 2.0456-2.5418 3.6109-1.1454 2.6836-3.6654 6.5344-4.5436 6.84-0.72004 0.25667-5.0672-2.0728-5.2799-2.9564-0.10969-0.46386 1.009-2.1928 4.9963-8.3071 0.62726-0.97097 0.39813-1.2601-1.1018-0.84575-4.4617 1.2431-19.412 4.2108-25.2 6.0872-2.6672 0.87202-3.5127-6.2345-0.93278-7.3035 7.0035-2.869 19.86-4.2545 29.252-4.8162 0.94902-0.0465 1.2436-0.15771 1.8491-0.68802 1.4017-1.2276 4.7236-2.9346 7.129-3.8182 2.1272-0.79624 4.6472-2.4599 6.7035-4.4671 0.88904-0.87357 1.9963-1.4456 3.0818-1.5873 0.34371-0.0465 1.1618-0.31077 2.6672-1.7454 0.93264-0.89522 2.389-1.2988 4.0363-1.543 1.1346-0.17472 4.1508-1.9962 6.2999-3.9162l0.27272 1.5545c-2.4054 1.7454-5.0399 3.5345-6.4035 3.7308"/>
   <path d="m15.359 205.48c1.5381-0.53496 1.1727-5.5527-0.06503-5.0564l-0.44188-1.124c3.0927-1.2323 4.3526 5.978 0.91639 7.3035"/>
  </g>
  <path d="m99.813 138.71c-0.91083-0.1547-2.2854 0.85656-2.6672 3.2945-0.34371 2.2581 0.48548 4.1509 1.3635 4.2981 0.90543 0.13909 2.1709-0.99262 2.5199-3.5127 0.29996-2.2036-0.27815-3.938-1.2163-4.08" fill="#fff"/>
 </g>
</svg>
