<?xml version="1.0" encoding="UTF-8"?>
<!-- Created with Inkscape (http://www.inkscape.org/) -->
<svg version="1.1" viewBox="0 0 70.413 84.638" xmlns="http://www.w3.org/2000/svg">
 <path d="m53.347 48.403c2.8758 13.758 1.8962 23.824 2.3019 28.957 0.08656 1.0864 0.49711 1.4606 1.2887 1.6406 2.0352 0.46565 1.3788 2.4257-0.75131 2.6226-0.68058 1.3452-3.2723 1.3137-4.3751-0.56602-1.1017-1.8814-2.5777-4.6061-3.2344-5.8431-1.1061 1.2292-1.8687 2.0187-3.0927 3.1224-0.6298 1.2678-1.6567 2.6125-3.006 3.1793 0.602 0.19984 1.1435 0.25413 1.8997 0.25855 1.2819 0.30889 1.2239 1.2347 0.2838 1.5981-3.3622 1.2963-6.8634 1.1968-10.106 0.55285-1.2655-0.25128-1.1168-1.0162-0.77594-1.5653-0.76287-0.28324-1.345-0.79428-1.5425-1.2215-1.9304-0.42112-3.5362-1.1477-4.919-1.933-8.3979 3.3745-17.277-1.9248-18.074-14.406-0.36823-5.7918-3.6681-10.568-2.9939-11.074 0.6093-0.45632 5.4128 2.1793 10.023 1.2366 12.882-2.6342 20.028 2.2283 19.492 10.626 1.5449-1.2647 3.8752-2.777 4.9078-3.507 2.9534-2.0917 5.8733-7.3819 6.1154-12.257z" fill="#ffe45f"/>
 <path d="m28.089 48.251c-2.9049-1.0848-3.9027-2.4449-4.8743-4.3469 0.68758 0.2585 1.8556 0.14334 3.1676-0.10073-19.999-7.8663-23.222-31.674-21.594-33.142 1.8403-1.6581 17.632 0.59775 26.662 5.4947-0.81756-6.2434-0.87734-15.236 0.32005-15.751 1.2033-0.51879 14.381 6.763 20.404 20.302 4.2412 0.89386 8.1491 3.9838 10.352 8.2124 1.8774-0.65139 6.6858-2.3137 7.4109-1.7766l-15.242 14.31z" fill="#ffe45f"/>
 <path d="m32.448 41.304c3.0894 0.28649 9.9148-1.1881 14.935-4.4386-1.3605-2.771-1.355-5.0936 0.36994-6.1079 1.7263-1.0146 5.5922-0.59494 8.5786 1.9476 2.5244-1.08 4.0851-2.9806 6.1947-3.785 2.1107-0.80609 5.0009-1.6791 6.6315-2.0023 0.67121-0.132 1.0365 0.05021 0.94946 0.81082-1.2791 11.176-13.334 20.965-16.55 21.848-2.7378 0.74973-4.8982 1.2679-7.0704 1.7745-6.7918 1.5852-14.233 1.7144-18.959-3.3182-2.0628-1.046-3.5605-2.2046-4.3128-4.1288 2.5774 0.5117 5.8414-0.50638 9.2336-2.6005" fill="#fff"/>
 <path d="m47.472 31.021c-1.1946 0.66301-1.6775 2.841-0.01719 5.945 1.7426 3.2571 4.1532 3.7893 5.3586 3.0809 1.3083-0.77058 1.6569-2.9564-0.28265-6.2267-1.9002-3.2047-3.8289-3.4802-5.0588-2.7993" fill="#ea541f"/>
 <path d="m47.128 32.53c-0.39337 0.20545-0.63642 0.85688-0.24278 1.6604 0.32923 0.66742 0.97196 1.0624 1.4685 0.81831 0.45755-0.22248 0.61867-0.88223 0.18253-1.7057-0.41702-0.78862-0.99328-0.99218-1.4082-0.77307" fill="#fff"/>
 <path d="m65.721 27.889c0.20236 1.6868 1.2008 3.8247 3.4885 3.6685 0.41159-1.1666 0.74484-2.6331 0.83195-3.7832 0.04615-0.60087-0.19002-0.87533-0.77732-0.76807-1.1744 0.21618-2.2223 0.49014-3.5431 0.88262" fill="#595656"/>
 <g fill="#ea541f">
  <path d="m27.575 18.154c-7.0383-1.2074-14.045 0.0021-14.039 0.71175 0.0028 0.4855 1.3404 1.4976 3.0128 2.3277-9.7506 1.8588-15.097-0.69813-15.976-0.15972-0.55815 0.34367 0.54569 1.7025 1.8971 2.7815 7.8868 13.828 20.685 21.508 31.317 15.182-0.28167-4.709 0.92626-10.024 3.257-14.508-2.6257-2.3279-5.892-4.6061-9.4686-6.3352"/>
  <path d="m38.988 11.905c-0.01656-2.5492 0.36804-7.0593 1.2252-7.1819 0.8577-0.12344 2.0178 2.5721 2.9042 5.6451 1.0777-2.8815-0.29337-7.8304 0.25874-8.1977 0.348-0.23096 1.8157 0.61612 2.8889 1.8198 4.6533 2.4065 9.148 11.203 8.3016 17.405-2.1364-0.7844-6.2787-1.3892-8.4706-0.8933-2.5297-2.6249-4.853-5.2142-7.108-8.5966"/>
  <path d="m18.147 54.622c-1.1704 0.53356-2.0468 0.9738-2.7987 1.517 0.90281 0.92431 2.7977 3.1716 2.5889 3.584-0.20787 0.41295-2.6164 0.43683-5.8169 0.22288 0.37872 1.6776 0.65623 3.722 0.29222 3.8762-0.36488 0.15355-1.6676-1.2138-2.5366-2.2033-0.04208 1.0774-0.18261 2.0093-0.56278 3.257-0.933-7.4164-3.8237-10.535-3.0631-11.15 0.75998-0.61372 4.6018 2.6169 11.897 0.89614"/>
 </g>
 <path d="m30.996 48.987c-1.0178 0.17049-2.041-0.15363-3.3999-0.88504 4.7289 4.9609 12.131 4.8263 18.889 3.2492 2.1728-0.50744 4.3334-1.0242 7.0704-1.7745 1.4499-0.39894 8.5052-5.2678 10.769-9.0386-15.176 11.767-21.378 10.819-33.328 8.449" fill="#dadcdc"/>
 <path d="m70.08 27.238c-0.45824 1.346-1.1517 2.7817-1.9893 4.1895 0.35092 0.13958 0.7097 0.22547 1.1184 0.26057 0.43164-1.2916 1.0182-3.9278 0.87089-4.4501" fill="#363433"/>
 <path d="m25.858 43.968c2.2057 3.0738 7.4879 4.545 14.006 3.228-5.3637 3.078-14.274 2.6126-16.566-3.3339 1.1663 0.2584 1.5482 0.33906 2.5602 0.10594" fill="#dadcdc"/>
 <g fill="#dcc553">
  <path d="m53.335 77.512c-0.72036-2.7525-1.2562-6.6999-1.4724-10.474 0 0 2.0865-2.1373 2.5265-5.381 0.42508 5.3376-0.18955 13.838 0.64435 17.324 0.30397 1.27 1.7281 1.9863 3.1023 0.98933 0.08323 0.77324-0.52615 1.5662-1.9768 1.6206 0.26055-0.67767-0.30979-1.4478-1.1938-1.806-0.8821-0.3593-1.3363-1.1435-1.6302-2.2733"/>
  <path d="m48.559 75.217c-0.87832 0.96056-1.9948 2.1375-3.1285 3.2233-0.60822 1.188-1.6537 2.4431-2.9524 3.0756 2.4901 0.55606 6.5352 0.16886 9.2117-0.50934-0.21221-0.50211-0.49928-1.1009-0.69273-1.419-0.79594-0.23566-1.69-0.39608-2.353-0.4336 0.50995-0.551 0.7593-0.89946 1.2224-1.5909-0.5066-0.85597-0.91246-1.5808-1.3072-2.346"/>
  <path d="m46.497 51.349c-0.18806 2.4452-1.349 5.0432-2.1647 6.3873 4.8131-0.53396 8.4568-3.0804 9.6627-5.7475-0.16523-0.83547-0.30665-1.5877-0.46914-2.4054-2.7181 0.74583-4.8683 1.2598-7.0288 1.7656"/>
  <path d="m46.655 70.893c-0.44236 0.73712-0.82497 1.153-1.3129 1.6514 0.7104 1.8716 0.90831 3.6582 0.23713 5.7407 1.0322-1.04 1.8705-1.769 2.9795-3.0684-0.73675-1.5525-1.2522-2.7499-1.9037-4.3237"/>
  <path d="m32.778 76.299c-4.2905-1.4766-10.111-4.9625-12.548-10.265-0.78416 1.6077 3.5405 9.4591 11.883 11.913 1.652 0.48571 2.0934-1.1568 0.66543-1.648"/>
  <path d="m44.577 71.026c3.6939 5.7676-0.27582 12.216-6.9604 11.588-0.91678-0.08625-2.0979 0.0924-3.0763-0.07208-0.98126-0.16377-1.6841-0.53289-2.3202-1.3985-4.1214-0.84792-7.9897-4.0975-7.6127-5.1229 1.7895 1.7813 4.9837 3.6096 8.0339 3.7719 0.46239 0.02438 0.98864 0.11976 1.2305 0.3601 1.3863 1.3742 12.856-0.12798 10.705-9.1256"/>
  <path d="m9.4567 65.618c1.9661 6.9709 8.973 9.6547 14.661 7.4576 1.4262 1.227 3.3157 2.8023 5.6073 3.8339-2.4141-0.24189-4.8053-1.4173-5.1184-0.89124-0.31371 0.52697 0.65273 1.6579 2.6763 3.0915-9.0876 3.5689-17.1-2.2545-17.826-13.492"/>
  <path d="m8.1497 13.764c-0.38392 0.47997 1.2215 4.6896 4.7978 8.068 0.95509-0.0052 2.2522-0.33544 3.587-0.58993-1.5047-0.72389-2.9535-1.9538-2.947-2.3876 0.0071-0.43488 6.4934-2.0593 14.207-0.61295-12.318-5.6407-19.178-5.0634-19.645-4.4775"/>
  <path d="m34.058 3.0855c1.4194 1.2297 3.7654 3.319 5.1083 4.8294-0.13232 1.5814-0.19406 2.6151-0.15429 3.9395-2.1671-3.3235-3.8139-6.263-4.954-8.7689"/>
 </g>
 <path d="m7.5197 31.11c4.7886 3.2867 19.212 6.6412 26.6 1.9088-0.21843 1.869-0.3696 3.2921-0.49547 5.9479-4.2076 2.6573-8.9117 3.1235-14.04 1.1358-3.8165-1.4787-7.7984-4.257-12.065-8.9926" fill="#cb4818"/>
 <path d="m19.585 40.103c1.6648 1.2545 4.4143 2.8402 6.8383 3.7217 1.7507-0.41301 4.8704-1.5902 6.6935-2.8938 0.50936-0.36411 0.63823-0.8177 0.57289-1.923-3.8977 2.2073-8.1501 3.3446-14.105 1.095" fill="#dcc553"/>
 <g fill="#cb4818">
  <path d="m0.4493 20.958c1.8179 2.0918 8.8239 5.8647 13.101 7.4422 2.5689 0.94671 1.2465 3.1954-0.41564 2.403-4.5091-2.1483-13.517-8.2266-12.685-9.8451"/>
  <path d="m13.587 18.854c3.2264 1.6834 7.5547 3.1474 12.464 4.0345-1.9111 0.19174-3.2426 0.38469-4.3777 0.63336-3.5065-1.1865-7.5145-3.2257-8.0864-4.6678"/>
  <path d="m18.091 24.764c3.6437 1.0201 5.8594 1.5417 9.0958 1.83 2.0875 0.18474 2.6248 1.8266 0.4787 1.638-3.0009-0.26515-9.1409-2.0916-9.5745-3.468"/>
  <path d="m40.599 4.949c0.9939 3.2197 2.2635 8.6602 1.1144 10.447 0.49229 0.68356 1.0008 1.5641 1.9187 2.4238 0.90245-3.4972-0.81094-9.8618-3.0332-12.871"/>
  <path d="m45.031 10.092c1.2953 3.4204 0.69645 7.2029-0.47378 8.7345 0.51215 0.61371 0.81926 0.97963 1.575 1.6756 1.5062-2.7537 0.82464-9.0663-1.1012-10.41"/>
  <path d="m43.646 2.2639c2.8303 2.5984 3.7971 4.8768 4.2279 10.336 0.15907 2.0129 1.9031 2.619 1.6901 0.50019-0.64378-6.3804-3.1457-10.147-5.918-10.836"/>
  <path d="m51.513 9.4881c1.4366 4.6756 1.8689 8.1706 0.2923 11.091 1.2541 0.13837 1.5076 0.35222 2.7742 0.8467 0.55142-3.7519-0.75243-7.8122-3.0665-11.938"/>
 </g>
 <path d="m45.184 63.707c1.6828 8.412 6.265 14.53 7.3564 16.759 0.66604 1.3619 2.834 1.3643 3.6477 0.29926 0.31636 0.76894-0.27081 1.5633-1.2231 1.7899-1.0332 0.24464-2.4489-0.17706-3.1584-1.5729-1.4702-2.896-6.2974-9.9001-6.6225-17.275" fill="#dcc553"/>
 <path d="m37.971 82.567c-0.05063 0.22186 1.4227 1.521 3.9645 1.5447-4.4354 0.5678-8.1867-0.12894-8.3327-0.86706-0.11112-0.55802-0.01458-0.70031 0.17681-0.88557 0.19234-0.18458 4.223-0.33294 4.223-0.33294z" fill="#dcc553"/>
 <g fill="#0f141b">
  <path d="m52.218 34.002c1.698 2.8612 1.712 5.056 0.46275 5.7914-1.0385 0.61088-3.2558 0.09906-4.9055-2.9842-1.4751-2.7572-1.3032-4.6169 0.08521-5.4122 0.28942-0.16734 0.60892-0.29126 0.95133-0.37663 0.9613 0.11127 2.1638 0.88608 3.4062 2.9817m5.235-0.43261c-2.6906-3.5272-7.4059-4.5487-9.7861-3.1849-2.1108 1.2101-2.5285 3.2542-0.64339 6.7794 1.7772 3.3207 4.5158 3.9354 5.9359 3.1002 1.6249-0.95639 1.6959-3.5229-0.18183-6.688-0.80934-1.3637-1.7075-2.2346-2.5868-2.7023 2.2052 0.03458 4.8927 1.1918 6.9686 2.9348 0.53034 0.44577 0.71537 0.31392 0.29376-0.23913"/>
  <path d="m48.875 33.459c-0.23232 0.1054 0.13018 1.1292 0.84954 2.4937 0.69324 1.3177 1.287 2.0509 1.5129 1.9438 0.20871-0.0976-0.10177-0.98518-0.82165-2.3599-0.68956-1.314-1.2991-2.1863-1.5408-2.0776"/>
  <path d="m62.101 29.122c-3.5419-6.9378-10.477-9.9307-19.106-7.7972-1.296 0.32084-1.3971-0.03458-0.11112-0.39891 8.8059-2.4903 15.999 0.38909 19.936 7.9212z"/>
  <path d="m53.111 49.633c6.5938-3.509 15.191-11.831 16.627-21.875 0.07021-0.48676-0.01313-0.59283-0.68009-0.4416-2.5908 0.58869-4.622 1.1554-6.9214 2.0347-1.1131 0.4262-1.2809-0.01792-0.18741-0.48796 2.2829-0.97726 4.221-1.5292 6.973-2.1666 1.2881-0.29801 1.6023 0.01896 1.4595 1.1552-1.2654 10.16-10.567 19.303-17.059 22.214-1.7558 0.78796-1.9295 0.48063-0.21172-0.43335"/>
  <path d="m69.019 31.889c-1.9151 0.09354-3.3884-1.6536-3.5522-3.9537l0.53546-0.10669c0.17276 1.9376 1.4654 3.5759 3.1997 3.4984z"/>
  <path d="m59.282 40.365c-0.4542-0.52112-0.32828-0.72554 0.22428-0.30895 1.0067 0.76006 1.7486 0.82963 2.9246 0.58016 0.69384-0.14749 0.79963 0.11682 0.13574 0.36403-1.2619 0.47103-2.4184 0.35879-3.2845-0.63506"/>
  <path d="m58.296 28.587c-1.5482-1.5475-3.4733-2.6948-5.785-3.4424-0.58851-0.19078-0.58287-0.31434 0.01927-0.20608 2.3434 0.42229 4.6909 1.7215 5.976 3.4552 0.43939 0.59069 0.30431 0.70825-0.21031 0.19337"/>
  <path d="m59.813 27.591c-1.5895-2.0086-4.8223-4.1615-7.2327-5.1382-0.68386-0.27684-0.68597-0.44553 0.0274-0.24754 2.672 0.74519 6.0905 3.2184 7.4258 5.1953 0.55323 0.81741 0.38534 0.95474-0.2205 0.19036"/>
  <path d="m28.075 48.202c4.5436 4.254 12.824 4.3577 18.589 2.8685 1.0137-0.2614 1.1007 0.1262 0.11104 0.45022-5.7154 1.8813-15.574 2.0983-20.134-3.8147z"/>
  <path d="m23.041 44.356c-0.34111-0.79412-0.20378-0.89681 0.63832-0.76136 2.845 0.45948 6.3459-1.1627 9.2134-2.936 0.3908-0.24149 0.48054-0.51075 0.44901-1.1036-0.30408-5.7121 1.2107-10.826 3.2255-14.953-5.2339-4.938-14.162-8.8842-23.487-10.66-1.0187-0.19379-0.95332-0.53814 0.07413-0.40708 9.4608 1.2137 18.49 5.4897 23.951 10.598 0.28301 0.26662 0.30161 0.3613 0.13671 0.71354-2.0144 4.3038-3.3551 8.7917-3.1716 14.658 0.02615 0.84026-0.09844 1.167-0.83552 1.6589-2.8068 1.8765-6.7485 3.6467-9.5337 3.0925 2.4143 4.4588 9.793 6.0153 16.504 2.5593 1.3755-0.70836 1.5463-0.46056 0.22522 0.34556-6.6563 4.0611-15.181 2.3432-17.39-2.805"/>
  <path d="m20.954 40.568c1.7711 1.1836 3.715 2.2261 5.8451 3.0749l-0.94538 0.22875c-2.7805-0.92684-5.6203-2.6501-7.9505-4.5033z"/>
  <path d="m5.884 21.681c-2.0165-5.7767-2.3091-10.53-1.3773-11.298 2.0381-1.6775 22.295-0.59367 36.478 11.835 0.91671 0.80486 0.66975 1.0913-0.27018 0.3137-14.512-12.02-34.347-12.745-35.664-11.601-0.67604 0.58549-0.35074 5.1707 1.7284 10.848z"/>
  <path d="m21.435 23.661c-4.0191-1.3132-8.5076-3.7574-8.2871-4.8818 0.20682-1.0638 8.0562-2.0546 13.73-0.87126l1.6924 0.87146c-7.1221-1.7202-14.614-0.19743-14.626 0.15467-0.01205 0.39108 3.5564 2.7664 8.3333 4.5259z"/>
  <path d="m27.075 28.268c-4.2614-0.42865-9.6444-2.5574-9.5924-3.4065 0.0608-0.98653 5.4744-1.9766 8.5913-2.1259 1.3954-0.06687 1.4301 0.29425 0.03677 0.41152-3.0753 0.2592-7.5966 1.3976-7.6278 1.7257-0.03058 0.31615 4.3864 2.2876 8.6537 2.9872 1.5414 0.25242 1.4016 0.55429-0.06156 0.40808"/>
  <path d="m17.115 21.475c-9.9199 1.9854-16.243-0.56968-16.371-0.20398-0.27356 0.7779 5.2798 5.6556 12.069 9.0005 1.2413 0.61096 1.0347 0.89743-0.17324 0.37371-6.7691-2.931-13.336-8.2843-12.58-9.7808 0.62196-1.2302 6.515 1.9613 16.319 0.17621z"/>
  <path d="m33.644 39.283c-10.447 7.0377-25.019-2.4122-32.062-16.197l1.563 1.3297c6.8166 11.487 19.876 21.166 30.493 14.199z"/>
  <path d="m39.699 5.3411c-3.6098-2.8768-7.3011-4.7747-7.8234-4.5431-0.91362 0.41166-0.78256 9.4643-0.0226 15.512l-0.73678-0.31854c-0.61369-5.6501-1.2767-15.164 0.40114-15.931 0.991-0.45408 4.9082 1.6932 8.4965 4.6131z"/>
  <path d="m41.522 5.9667c0.71841 0.65121 1.4028 1.324 2.021 2.0024l-0.08052 0.86065c-0.44566-0.4918-0.91943-0.97452-1.4082-1.4403z"/>
  <path d="m45.711 20.569c-4.7838-4.7124-8.9097-10.606-11.904-17.41-0.60762-1.3815-0.28597-1.5199 0.37801-0.16799 3.2649 6.6568 7.361 12.5 12.202 17.444z"/>
  <path d="m38.84 11.74c-0.20386-3.7668 0.32705-7.2961 1.317-7.3885 1.275-0.11946 3.5869 5.2747 3.8356 9.9396 0.08385 1.5585-0.26549 1.5902-0.41109 0.02698-0.44484-4.7889-2.7558-9.3143-3.3502-9.2276-0.41493 0.060209-1.0567 2.947-0.89524 7.4041z"/>
  <path d="m43.497 12.347c0.52225-0.7644 0.80806-2.6397 1.5325-2.7214 1.0264-0.11577 2.581 5.1715 1.731 9.1863-0.20464 0.96365-0.58666 0.91224-0.40379-0.08448 0.69718-3.8416-0.85344-8.3451-1.2948-8.326-0.29226 0.0125-0.65157 1.6364-1.3879 2.7815z"/>
  <path d="m43.033 10.237c0.82545-3.79-0.65811-7.9914 0.17984-8.3815 0.75042-0.35079 5.9101 2.3434 6.3502 10.56 0.09479 1.7433-0.25742 1.7756-0.41088 0.02854-0.71426-8.1086-5.3224-10.027-5.5455-9.9241-0.41039 0.19042 0.88611 4.7919-0.3427 8.6704z"/>
  <path d="m45.285 3.024c5.8499 2.4316 10.503 12.343 9.557 18.51l-0.53578-0.2329c0.73926-5.8348-3.2407-14.005-7.9342-17.008z"/>
  <path d="m31.096 70.767c1.0342-2.8274 4.4858-5.7927 9.1251-8.8551 3.0161-1.9897 5.5446-6.9348 5.9562-10.485l0.62922-0.14055c-0.19539 3.8948-2.9928 9.152-6.1922 11.234-4.5172 2.9385-7.7266 5.8493-8.817 8.4333z"/>
  <path d="m31.518 77.833c-8.4462-2.416-12.628-11.127-11.654-11.946 0.95819-0.80543 8.5453 4.3667 13.704 5.2411 1.2337 0.20917 1.1765 0.55406-0.0651 0.40816-4.9794-0.58509-12.627-5.3397-13.047-5.0015-0.34489 0.2771 2.7916 8.0124 11.186 10.904 1.5943 0.54992 1.4222 0.83621-0.12446 0.39415"/>
  <path d="m30.933 77.447c-3.3716-0.53424-5.888-1.4899-6.0288-1.2157-0.20586 0.40206 2.8616 3.9062 7.7727 4.7908 0.99813 0.17877 0.85034 0.53839-0.06604 0.40751-5.0674-0.72606-8.9618-4.5783-8.366-5.5629 0.46853-0.77466 2.788 0.33071 4.9462 0.83219z"/>
  <path d="m32.633 81.201c0.35944 0.56387 0.85224 0.86824 1.5767 1.0699 1.0021 0.27692 0.85637 0.51836-0.09073 0.40444-0.87639-0.10822-1.7748-0.58019-2.3678-1.6235z"/>
  <path d="m34.213 82.463c-0.67354 0.52838-0.47277 0.98363 0.50278 1.1889 3.4392 0.72399 7.3353 0.48799 9.7768-0.4957 0.79067-0.31771 0.7843-0.92437-0.16265-1.0003-0.67249-0.0525-1.4245-0.16555-2.2583-0.38852l0.566-0.36782c0.6429 0.14425 1.2125 0.21334 1.7564 0.25686 1.5786 0.12552 1.6919 1.3987 0.31034 1.9807-2.5853 1.0869-6.6585 1.3059-10.11 0.57259-1.3655-0.29012-1.67-1.1664-0.98744-1.882z"/>
  <path d="m38.316 82.774c-1.4409-0.015-1.4273-0.28746 0.0063-0.41339 2.9983-0.26304 6.2268-1.5204 7.1287-5.0388 1.1002-4.2953-2.1012-8.789-6.852-9.5564-0.97702-0.15727-0.9391-0.48806 0.04886-0.40928 5.3778 0.42342 8.7892 5.719 7.5092 10.162-1.1217 3.8977-4.5106 5.2887-7.841 5.256"/>
  <path d="m48.753 75.547c-1.0762 1.2431-2.2957 2.4551-3.6536 3.616l0.55175-1.396c1.0041-0.91423 1.9324-1.878 2.7788-2.8784z"/>
  <path d="m52.059 69.384c1.0972-2.2379 1.7906-4.5381 2.0191-6.786 0.14299-1.409 0.43749-1.3954 0.41222 0.01896-0.04604 2.5586-0.83463 5.2971-2.3073 8.0206z"/>
  <path d="m48.154 79.137c0.63465-0.54342 1.0777-1.1319 1.525-1.8583l0.33845 0.56958c-0.33239 0.44344-0.73575 0.96541-1.1985 1.3656z"/>
  <path d="m51.895 81.237c-1.5613 0.64758-4.9052 0.87263-7.4584 0.75797l-1.9166-0.53678c4.3436 0.12864 7.9133-0.28188 9.1311-0.71998z"/>
  <path d="m51.186 79.902c-1.015-0.31984-1.9305-0.4959-2.7909-0.56403-0.89512-0.06938-0.87034-0.42259 0.02792-0.41108 0.92768 0.01156 1.6952 0.10323 2.4652 0.33734z"/>
  <path d="m50.684 78.439c0.27438 0.47877 0.8492 1.4797 1.2841 2.322 0.55324 1.077 1.3367 1.483 2.2505 1.5281 0.7634 0.0375 1.5014-0.20528 1.6684-0.84033 0.11972-0.4622-0.10816-1.014-0.90584-1.3878-1.0133-0.47423-1.5743-1.0752-1.9368-2.715-1.3142-5.9515-1.8764-11.145-1.3967-16.587 0.13042-1.4798 0.46418-1.4718 0.41324 0.01365-0.1878 5.3716 0.2201 10.556 1.4726 16.492 0.31002 1.4749 0.73718 1.8736 1.6608 2.3061 1.1441 0.53478 1.4934 1.3479 1.3013 2.0825-0.23243 0.88993-1.4263 1.2339-2.3178 1.1902-1.0814-0.05448-2.0435-0.57766-2.6971-1.8467-0.43045-0.83437-0.91519-1.7541-1.2385-2.2877-2.7317-4.5207-4.8067-8.658-5.276-14.275-0.1024-1.2182 0.23884-1.2615 0.41036-0.04969 0.79072 5.6144 2.7246 9.5457 5.3073 14.055"/>
  <path d="m56.24 81.355c1.0581-0.16307 1.7122-0.62608 1.6655-1.1998-0.04292-0.53561-0.36227-0.78261-1.1877-0.95963-0.87143-0.18695-1.338-0.74067-1.445-2.5497-0.31999-5.4142 0.53908-14.217-2.0231-26.775l0.59451-0.27155c2.6756 12.813 1.7503 21.589 1.9254 27.045 0.0476 1.4974 0.37116 1.9101 1.0474 2.0557 1.0629 0.22826 1.5757 0.69292 1.6307 1.3823 0.07365 0.89905-0.77995 1.6288-2.4681 1.8351z"/>
  <path d="m35.44 65.901c0.36672-8.2784-6.5524-13.121-18.495-10.746-5.4863 1.0895-10.094-1.5166-10.485-1.1453-0.31747 0.30042 2.6342 4.6991 3.269 11.561 0.93902 10.142 7.836 16.623 17.354 13.348l0.61838 0.435c-9.7816 3.8154-17.667-2.2619-18.631-13.699-0.62543-7.4406-3.8776-11.316-3.1318-12.161 0.60631-0.68608 5.2784 2.3268 10.931 1.0563 12.065-2.7133 19.9 2.5463 19.126 10.962z"/>
  <path d="m19.762 54.396c-1.7397 0.49879-2.8954 1.0837-4.0645 1.8019 1.9486 1.4175 2.841 3.2716 2.6546 3.7381-0.21241 0.53115-2.5614 0.81531-5.976 0.23748 0.85892 2.6004 0.67266 3.8126 0.28119 4.0059-0.41494 0.20447-1.2692-0.18161-2.5743-1.9862-3.04e-4 1.0552-0.23828 2.1802-0.65275 3.5065l-0.18308-1.3335c0.2691-1.038 0.36099-1.5225 0.35808-2.5309-6.9e-5 -0.6269 0.17327-0.75566 0.56761-0.24056 1.1865 1.5501 1.9539 2.1008 2.1561 1.9926 0.12911-0.07042 0.27246-1.277-0.4427-3.4211-0.14319-0.43152-0.02985-0.55504 0.41366-0.48816 3.2213 0.47889 5.2171 0.25943 5.3504-0.06031 0.1539-0.37442-0.669-1.8402-2.3553-3.1668-0.30343-0.23796-0.30716-0.41153 0.08038-0.64283 0.74294-0.44024 1.2277-0.71062 2.0955-1.0869z"/>
 </g>
</svg>
