<?xml version="1.0" encoding="UTF-8"?>
<!-- Created with Inkscape (http://www.inkscape.org/) -->
<svg version="1.1" viewBox="0 0 190.01 209.62" xmlns="http://www.w3.org/2000/svg">
 <g transform="translate(-19.955 -69.64)">
  <path d="m81.305 189.66-10.619 8.7459-0.8497 3.619 13.288-9.6917z" fill="#fabe00"/>
  <path d="m69.984 187.78c-0.09074 0.0129-9.0109 1.8598-15.883 4.1765-0.44298 0.14637-2.0562 2.4812-1.6085 2.3212 4.5832-1.5627 12.214-3.596 15.326-4.2952-1.9695 2.271-5.4697 6.2829-5.4697 6.2829-1.3983 1.5902-0.64894 1.8827 0.88595 1.3663 0.26554-0.0907 4.8345-1.6587 8.0833-3.089-1.0971 2.4492-3.7468 8.1656-3.7468 8.1656-0.02586 0.12946 2.1248-0.34713 2.3075-0.78622l3.948-8.8419c0.69426-1.6083 0.4391-1.8688-1.215-1.0686-1.677 0.81344-4.3912 1.8827-6.8907 2.9337 2.143-2.4127 5.0675-5.7849 5.0675-5.7849 1.316-1.508 0.93259-1.7227-0.80436-1.38" fill="#763b00"/>
  <path d="m126.84 104.56c-25.511 9.1205-54.856 28.605-51.744 29.528 7.3842-4.5649 18.488-10.601 29.226-15.742 10.72-5.1315 22.623-9.3307 22.623-9.3307z" fill="#fabe00"/>
  <path d="m69.489 198.56c-0.99088 2.1568-1.9192 4.1445-1.9192 4.1445-0.02586 0.13217 2.1249-0.34326 2.3076-0.78106l2.2481-5.0538c-0.84063 0.53495-1.718 1.1062-2.6365 1.6907" fill="#542400"/>
  <g fill="#fff">
   <path d="m149.65 233.04c-3.267-0.74089-8.6317 1.6906-13.79 2.7508-1.5582 0.3018-2.0517 0.18264-3.1117-0.47019-2.134-1.3388-6.018-5.5244-6.0774-8.6087-0.0647-4.414-0.28366-14.878-0.85487-21.403l-14.48-3.9389c-2.8695 11.127-12.557 15.468-20.677 13.494-1.91-0.47924-3.884-0.64892-5.8123-0.5751 10.925-17.295-7.1649-43.588-30.528-41.573-11.666 1.0233-24.245-2.8421-30.748-7.8822-2.5087-1.9237-3.4637-0.95462-2.8194 1.7227 2.5772 10.642 2.3944 14.704 1.9467 26.781-0.95461 25.182 16.089 44.104 37.935 41.193 0.58935 2.0928 1.3753 4.2039 2.3532 6.1094-5.2594 5.4878-9.0155 11.044-11.981 18.83-1.316 3.4819-0.46629 6.6394 1.7363 7.142 1.2707 0.29273 2.7462-0.86783 4.012-3.6692 1.9283-4.2952 4.6288-7.9735 7.9507-10.404 0.86783-0.60748 1.4212-0.90021 2.5452-0.90021 9.7969-0.1036 16.226-2.9975 19.831-8.7459 5.7346 0.72664 11.296 4.4781 18.232 4.0714 3.7926-0.22408 7.864-1.6862 11.433-4.7385 3.3722 1.1463 7.3065 3.7332 10.45 4.4552 1.837 0.4391 2.9427 0.57122 4.9167-0.39764 4.6472-2.2894 8.0194-3.6784 13.407-5.2732 1.1463-0.33417 2.0745-0.22796 3.2215 0.72666 3.0112 2.5132 7.8594 3.0387 8.9697 1.1554 1.4805-2.5588-1.8688-8.4717-8.0605-9.8515"/>
   <path d="m191.72 111.86c0.16839-7.7268-0.52587-19.863-2.7509-20.338-3.6463-0.79529-24.387 16.272-38.685 42.039-2.9472-1.1334-7.0004-2.175-10.24-2.5588-13.617-41.102-50.89-61.751-54.732-60.618-6.5342 1.878-11.236 56.076 4.8207 90.15l12.744 18.017 50.355 9.3948 19.594-9.5274c0.83157-4.5145 1.3297-7.544 1.0828-12.072z"/>
   <path d="m159.53 175.01c2.6777-6.315 7.3797-13.685 10.199-12.986 2.8422 0.7357 2.3852 8.9834 0.15543 15.472-3.0981-0.90021-6.6577-1.6907-10.354-2.4857"/>
   <path d="m177.81 179.78c-1.4805 0.33417-2.6685 0.39764-4.2587 0.4935 1.6085-2.0928-8.3985-4.2175-19.1-6.3058-5.602-1.1152-9.0565-2.2802-12.767-2.8194 0.77716-11.241-3.9297-22.701-12.538-22.628-8.6042 0.0777-12.57 7.0872-13.356 15.737-4.6654-0.66318-10.245-0.96367-15.371-0.82768-4.8756 0.1166-16.692-4.9623-21.275-9.943-2.3486 2.6228-3.0523 7.6903-0.99088 11.912 1.0595 13.041 15.623 34.092 36.007 38.836 2.143 1.2059 4.2405 2.2253 6.6577 2.792 24.382 5.7255 48.39-2.3944 54.838-20.672 1.2473-2.1477 2.1202-4.3455 2.1567-6.5754"/>
   <path d="m127.37 154.31c-2.5816-0.41577-6.0818 2.1202-7.5943 10.098-1.6085 8.49 0.93648 12.767 3.3996 13.183 2.7509 0.49349 6.5434-2.3121 8.0149-11.218 1.2655-7.8-1.444-11.698-3.8201-12.063"/>
   <path d="m166.21 176.51c2.8422-6.1459 2.2527-10.29 0.82768-10.939-0.74088-0.31605-1.7775-0.1036-2.8605 0.69426-1.5033 2.1933-3.6463 6.251-4.4963 8.755 2.0517 0.46111 4.4369 0.97793 6.5297 1.4897"/>
   <path d="m167.73 176.72c-3.5321 0.5712-5.954 3.3814-5.593 6.6805 0.34324 2.9519 3.2032 5.3052 6.0499 5.1817 2.8193-2.8787 5.9677-7.8182 5.4239-9.0657-0.37432-0.90022-2.8377-1.9328-5.8809-2.7965"/>
   <path d="m114.58 104.65c-11.451-10.738-23.409-15.285-24.638-14.211-0.4935 0.4391 0.42485 2.8742 2.3077 6.2236-4.1491-2.7737-8.5221-4.245-13.992-5.6249-7.9279-2.0517-13.978-6.4109-19.26-12.826-1.4348 3.0158-2.134 6.5708-2.1156 10.455-4.6014 26.333 12.749 65.991 45.799 68.422 5.538-10.436 16.057-20.38 26.745-22.651-2.1842-8.4397-8.2936-20.654-14.846-29.788"/>
   <path d="m207.73 113.04c-4.6836 3.4865-12.621 6.3652-18.09 6.8267 3.162-3.098 4.8618-6.0545 4.4323-7.0507-0.65801-1.4668-12.739-1.2292-23.13 5.4879-4.0667 6.2692-7.7177 12.739-11.264 20.955 6.4019 4.2632 13.53 15.522 14.06 26.946 20.206-1.8643 32.681-19.571 34.54-39.932 1.1062-4.0302 1.088-8.5265-0.54789-13.233"/>
   <path d="m22.867 188.84c1.2344 3.9297 3.2627 6.8084 4.2816 6.6485 1.3388-0.15932 2.5817-5.6067 1.7272-12.314 4.4871 4.8618 11.035 8.0422 12.145 7.3155 1.1062-0.75902-1.5902-7.704-4.9442-12.817 6.4064 1.1787 14.234 0.14637 14.467-0.91316 0.16969-0.85487-2.207-2.7189-5.7027-4.2404-8.426-1.088-14.896-3.258-20.786-7.3339-3.3357-2.3258-3.9892-1.2797-3.3037 1.3708 2.1156 8.0194 2.472 14.38 2.1156 22.285"/>
   <path d="m125.46 156.4c-0.80825-0.22408-1.9603 0.25647-2.504 2.2299-0.48961 1.7866-0.0777 3.1026 0.67613 3.3402 0.9598 0.2461 2.079-0.34325 2.6092-2.3212 0.50257-1.8872 0.0259-3.0342-0.78104-3.2489"/>
  </g>
  <path d="m123.35 158.72c-0.4663 1.6175-0.0389 2.769 0.4067 2.8925 0.658 0.18264 1.6587-0.47924 2.0973-2.1112 0.43002-1.6678-0.0129-2.673-0.4935-2.8102-0.64894-0.18264-1.6495 0.62561-2.0105 2.0289m0.83674 3.8795c-0.24222 9e-3 -0.49349 0-0.70852-0.0777-1.1839-0.34325-1.6313-2.0242-1.0971-4.0348 0.64893-2.367 2.0334-2.696 2.5817-2.7189 0.23703-9e-3 0.45204 0.0129 0.63467 0.0519 1.0414 0.28756 1.8278 1.6267 1.215 3.9709-0.44815 1.6998-1.4302 2.7553-2.6274 2.8102" fill="#221815"/>
  <path d="m164.81 167.66c-0.55308-0.21892-1.3342-0.0129-1.8643 1.2977-0.51163 1.1787-0.27847 2.1201 0.21503 2.3486 0.54401 0.26941 1.3708-0.0647 1.9237-1.3663 0.4935-1.2383 0.23314-2.0653-0.2746-2.28" fill="#fff"/>
  <path d="m163.35 169.1c-0.40283 0.90929-0.31994 1.75-0.0519 1.9053 0.38858 0.16451 1.0466-0.30568 1.4028-1.215 0.31087-0.75385 0.30179-1.6222-0.0129-1.7776-0.44816-0.15932-0.9818 0.16968-1.3388 1.088m0.27847 2.8832c-0.25645 0.0129-0.51163-0.0519-0.72664-0.14117-0.76291-0.36138-1.1696-1.5353-0.50774-3.1255 0.61654-1.4302 1.4576-1.6953 1.91-1.7135 0.23316-0.0259 0.48961 0.0129 0.71241 0.1036 0.34713 0.14636 0.59841 0.41578 0.76808 0.77715 0.26035 0.6036 0.18782 1.3937-0.14118 2.2802-0.46629 1.079-1.215 1.7638-2.015 1.814" fill="#221815"/>
  <g fill="#fff">
   <path d="m94.349 244.78c-2.102-0.74478-4.1354-1.3753-7.1009-1.9237-1.9968 3.0296-4.2405 5.1314-7.5943 6.5069 1.8414 5.168 7.0003 17.277 11.469 18.584 0.24222-2.3899 0.47018-5.7529 0.86782-8.4306-1.0284-4.3318-1.412-11.053 1.846-12.41z"/>
   <path d="m113.33 102.97c-12.031-15.76-22.07-24.615-23.916-23.802-1.2977 0.55308-2.3578 8.0422-2.376 14.531 1.3845 0.62172 3.4088 1.6723 4.8755 2.472-1.421-2.696-2.376-5.3827-1.8872-5.73 2.0746-1.4852 15.609 6.0087 23.304 12.529"/>
   <path d="m171.66 117.68c3.2945-4.5283 12.744-15.86 14.403-15.445 0.57121 0.1166 0.86783 6.251 0.22797 10.226-4.871 0.87301-9.687 2.3898-14.631 5.2182"/>
   <path d="m102.64 157.12c-1.3754 2.3578-2.2391 4.1581-3.258 6.0865-2.8011-0.18263-6.9319-1.2344-9.4587-2.7554-1.4989-3.1985-2.2071-5.0218-3.0114-7.8045 5.0629 2.6868 10.176 3.9753 15.728 4.4735"/>
   <path d="m87.856 200.09c-2.8377 7.4892-9.4954 13.621-16.601 17.19l1.2927 2.3532c2.7782-3.3265 8.0605-5.497 12.347-5.3372 1.9008-3.4316 3.8155-8.563 2.961-14.206"/>
   <path d="m22.974 201.44c5.4879 15.504 21.705 21.485 35.623 19.703 0.1036 4.181 0.66317 9.0063 1.9969 13.507-16.756 1.9693-34.572-9.4176-37.62-33.211"/>
   <path d="m107.94 208.77c1.193 6.6714 10.012 12.397 18.689 12.301-0.16968-3.4133-0.4119-11.136-0.7409-15.024l-14.764-4.5694c-0.65283 2.8879-1.0777 4.3684-3.1848 7.2928"/>
   <path d="m175.65 186.35c-6.4475 18.278-30.455 26.398-54.838 20.672-2.4172-0.56603-4.5145-1.5857-6.6575-2.792-20.384-4.743-34.947-25.794-36.012-38.836 0.88597 2.5452 1.805 4.044 3.2444 5.9494 11.766 29.747 65.868 46.882 89.446 20.137"/>
   <path d="m81.011 155.03c-1.805 3.8247-1.6085 11.021 0.63468 16.614-4.0714-3.6327-6.6394-13.662-2.6686-18.456z"/>
   <path d="m175.31 180.42c-0.3834 3.2443-1.741 7.3613-4.0485 10.601 3.6235-2.8376 6.5754-7.27 6.4063-11.241z"/>
   <path d="m173.4 179.21c-1.75 2.463-5.7848 5.7164-9.8013 7.2289 0.89502 0.74996 2.9563 1.9785 4.7338 2.1385 2.5864-2.9427 5.7895-7.7634 5.0675-9.3674"/>
   <path d="m62.947 204.99c0.48961 8.3757 3.0707 20.809 7.0369 27.631 0.97792 1.677 0.20982 3.619-1.0828 3.4637-5.8717-8.9469-8.4168-24.602-5.954-31.095"/>
   <path d="m59.699 217.01c0.31994 7.5075 2.5452 17.318 5.7529 23.249 1.0738 2.0242-0.1036 3.386-0.91317 3.2443-5.9814-9.4495-6.8999-25.548-4.8391-26.493"/>
   <path d="m50.672 260.79c0 3.7058 2.7508 4.4917 4.1445 1.2977 2.3395-5.2594 7.6217-12.036 10.843-12.415 13.868-1.7135 22.902-8.9925 24.853-22.175 0.65282 17.679-9.8882 24.437-22.971 24.104-1.2473-0.0389-2.0928 0.34713-3.2215 1.2202-3.3905 2.6182-6.1687 6.525-7.6538 10.35-1.0828 2.7828-2.5635 3.82-4.3867 3.2397-1.2745-0.37952-2.3988-2.0882-1.6083-5.6204"/>
   <path d="m89.81 236.08c8.691 2.079 18.342 8.5905 30.154 2.4857-4.9852 7.0962-13.525 10.13-20.631 7.9188-4.2222-1.325-9.3947-3.194-12.086-3.6326 1.5445-2.8467 1.9923-4.3502 2.5635-6.7719"/>
   <path d="m120.32 238.59c2.7417 2.303 7.7406 4.6654 9.2714 4.6654 2.7554-9e-3 11.995-3.8292 15.623-4.5466 1.846-0.36526 3.1208-0.41189 4.286 0.69426 2.5315 2.3806 6.6622 3.7012 8.4397 1.348 0.91835 3.9525-4.4095 4.5602-9.1845 0.98699-1.3115-0.95461-2.3487-1.0971-3.7332-0.65799-4.0257 1.202-9.4952 3.322-12.89 5.0172-1.9511 1.0142-3.1026 1.0919-4.7521 0.58546-3.0524-0.89503-8.3529-3.7332-10.683-4.5192 1.6175-1.215 2.4082-1.9511 3.6235-3.5733"/>
   <path d="m58.36 114.94c9.6141 17.309 40.275 28.892 58.105 25.689-4.9212 4.0074-9.3947 9.2348-13.832 16.482-23.427-2.6594-37.634-20.75-44.273-42.171"/>
   <path d="m170.24 152.98c9.3079 1.4074 25.598-2.6502 35.308-13.343-5.0264 14.75-18.278 25.662-31.767 26.585-0.38339-4.0393-1.1839-9.317-3.5414-13.242"/>
   <path d="m59.092 78.009c-1.9968 15.481 4.8482 29.002 14.161 38.639 2.102 2.166 1.0103 4.0074-0.40672 3.9434-12.552-11.186-20.316-30.451-13.754-42.582"/>
   <path d="m89.659 106.51c3.1392 6.3927 9.9065 14.864 16.482 20.572 1.6267 1.4074 1.3297 3.29-0.0389 3.7104-10.4-8.9196-18.003-21.787-16.441-24.282"/>
   <path d="m90.087 90.272c4.8527 7.9782 10.048 14.435 16.706 21.097 1.4257 1.421 1.0375 3.2489-0.3834 3.5322-7.0141-6.3195-17.739-22.139-16.322-24.629"/>
   <path d="m207.31 113.17c1.2655 10.944-2.6548 19.201-13.96 25.42-2.5863 1.4165-2.897 3.13-1.91 4.2952 13.361-4.51 21.289-17.638 15.87-29.715"/>
   <path d="m194.1 122.63c-3.427 4.3729-8.9287 8.1655-15.029 11.268-1.5901 0.81732-2.1248 2.4126-1.4028 3.4362 7.6309-2.5498 17.574-10.994 16.432-14.704"/>
   <path d="m193.86 112.48c-2.865 3.7103-6.8952 6.918-11.748 9.5409-1.4257 0.7409-1.7822 2.9883-0.37951 3.6966 5.5747-3.4407 14.101-11.3 12.127-13.238"/>
  </g>
  <g fill="#221815">
   <path d="m163.77 175.97c0.87301-2.536 1.3024-4.615 0.87301-4.775-0.46629-0.18263-1.5855 1.7547-2.632 4.3638 0.64505 0.16062 1.0919 0.25645 1.7592 0.41189"/>
   <path d="m126.12 161.24c-0.53495-0.1166-1.3846 1.9648-2.0152 5.0492-0.69944 3.2077-0.74477 5.4147-0.23314 5.5427 0.46112 0.1166 1.4988-1.9375 2.0973-5.2 0.55307-2.9839 0.63986-5.296 0.15154-5.392"/>
   <path d="m120.52 164.51c-1.517 7.9553 0.66705 12.155 2.7737 12.506 1.7135 0.32899 5.4924-1.2059 7.0369-10.729 1.2331-7.4344-1.0828-11.099-3.0295-11.396-1.677-0.27459-5.2549 1.476-6.7811 9.6187m2.4995 13.685c-3.1438-0.57122-5.6478-5.5336-4.0576-13.909 1.6998-8.956 5.9676-10.971 8.4853-10.574 3.1392 0.4935 5.7256 5.0904 4.4735 12.826-1.6083 10.048-6.251 12.127-8.9012 11.657"/>
   <path d="m128.17 149.92c-7.7589 0.45204-12.89 9.806-11.456 21.152 0.32381 2.4766-0.31086 2.5725-0.90928 0.17357-2.8833-11.323 2.7737-23.532 12.15-24.25 8.4213-0.66317 15.371 9.9385 14.247 23.254-0.22795 2.7598-0.88206 2.705-0.93259-0.0389-0.25128-11.583-4.9852-20.754-13.1-20.293"/>
   <path d="m154.27 174.47c-4.3227-0.78106-8.5402-2.0928-12.593-2.696l0.0519-1.1334c4.2587 0.58545 8.266 2.0244 12.799 2.9107z"/>
   <path d="m100.41 162.83c6.1687-0.15542 10.427 0.13733 15.463 0.8225l-0.0647 1.2111c-4.8572-0.75902-9.1206-0.92741-15.353-0.92741z"/>
   <path d="m154.3 174.47c-2.8468-0.56603-2.6777-1.421 0.18263-0.91835 9.2485 1.6267 19.255 3.4957 19.813 5.8489 0.71758 3.3585-7.7634 13.452-16.541 18.648-1.805 1.101-2.4035 0.4663-0.47536-0.78623 8.5905-5.6159 16.121-15.065 15.591-17.547-0.25646-1.1657-9.3764-3.4407-18.57-5.2457"/>
   <path d="m169.2 177.38c-4.542-0.14118-6.4245 2.7873-6.3652 5.4102 0.0647 2.8513 2.2847 4.8665 5.89 5.1405l-1.0323 1.1968c-3.6692-0.39246-6.1779-2.824-6.283-6.2967-0.0519-2.769 1.782-5.6523 4.7568-6.3195z"/>
   <path d="m129.8 191.39c-1.0194-2.143-0.55308-2.3212 0.78623-0.329 3.8567 5.8442 12.168 10.034 20.544 7.3979 1.7227-0.54401 2.0608 0.0519 0.3834 0.73053-8.3072 3.4454-18.529-0.90927-21.714-7.8"/>
   <path d="m173.63 179.73c1.2564-4e-3 2.463-0.19688 3.7103-0.5712 0.68131-0.20984 1.0608-0.0647 1.0375 0.72664-0.0129 5.9357-4.7842 10.866-11.469 14.979-1.782 1.088-2.3715 0.5207-0.50774-0.79529 6.5344-4.679 10.199-9.0748 10.496-13.347-1.1424 0.27848-2.2025 0.40153-3.5779 0.40153z"/>
   <path d="m126.03 208.47c24.072 3.7788 47.184-5.2732 51.511-25.794l-2.993 4.7248c-5.6569 13.9-23.948 23.446-48.641 20.009-5.2868-0.70851-13.484-3.7287-19.255-6.4292-16.098-7.6492-25.762-22.806-27.915-34.07l-1.9237-6.123c-0.64894 14.151 10.921 33.343 29.477 41.321 6.548 2.8239 14.019 5.4605 19.74 6.3607"/>
   <path d="m96.258 183.33c-14.042-5.4833-24.848-20.293-18.003-30.3 0.51163-0.75903 0.77715-0.78105 1.4165-0.18781 5.3919 5.1268 13.809 9.4403 20.763 9.9887 4.2816 0.35619 4.3044 1.1334 0 1.1062-7.1055-4e-3 -16.029-4.7887-21.225-9.2211-5.1955 9.2166 4.4324 21.33 17.428 27.759 2.4628 1.2201 2.0333 1.7775-0.37952 0.85488"/>
   <path d="m171.96 178.4c3.5185-15.262-1.3388-29.217-12.538-38.415-0.48443-0.4106-0.56215-0.5984-0.37433-1.1567 5.0676-13.11 16.838-29.39 23.999-35.093 1.7592-1.4074 2.2756-0.82767 0.61654 0.71241-7.0004 6.4292-18.049 21.604-23.112 34.54 11.57 9.052 16.651 24.291 12.767 40.033z"/>
   <path d="m139.85 130.36c3.6738 0.42485 7.0232 1.2292 10.121 2.4538 12.804-24.912 34.938-43.304 39.288-42.107 2.6136 0.70852 3.4316 10.866 2.9243 21.449l-1.6678-0.0519c0.44298-10.674-0.36527-19.388-1.7867-19.74-2.7142-0.658-24.241 16.052-37.853 41.518-0.25128 0.51682-0.53884 0.5751-1.0284 0.37045-3.1072-1.2383-6.1094-2.0196-9.6141-2.4675z"/>
   <path d="m169.42 177.39c2.3852-8.5266 1.4622-13.864 0.0777-14.156-1.7684-0.33805-6.0088 3.6875-9.1572 12.022l-1.3388-0.30569c2.9427-9.1617 8.5448-14.837 11.172-14.215 2.3898 0.55697 3.4362 8.4717 0.42485 17.039z"/>
   <path d="m165.64 176.36c2.9016-6.2098 2.0882-9.678 1.0971-10.139-0.78622-0.37951-2.143-0.0777-3.418 1.3388l1.645-2.408c0.81861-0.37951 1.6724-0.43004 2.3715-0.12961 1.8462 0.81344 2.3899 5.4239-0.55308 11.611z"/>
   <path d="m149.97 165.33c0.0517-4.0714-0.48963-7.5076-1.974-12.58-0.50774-1.7867-0.0647-1.9649 0.63469-0.19688 1.91 4.8755 2.2847 8.851 1.9648 12.785-0.15025 1.9512-0.64892 1.9877-0.62561-9e-3"/>
   <path d="m154.62 167.8c2.0425-6.3332 2.239-12.52 0.8225-19.772-0.32381-1.6039 0.1645-1.709 0.61267-0.15543 2.1202 7.5258 1.5262 14.046-0.82768 20.119-0.68132 1.7318-1.2111 1.6266-0.60749-0.1917"/>
   <path d="m158.48 168.01c2.0516-3.3036 3.098-5.7757 4.1125-9.4495 0.46629-1.709 0.86783-1.6039 0.58935 0.15931-0.58935 3.8565-2.0334 6.749-4.1309 9.6323-1.1243 1.5627-1.6586 1.38-0.57121-0.34324"/>
   <path d="m89.444 160.41c-1.202-2.143-2.5405-5.1223-3.5321-8.1884l1.8185 0.86395c0.83157 2.5315 1.9557 5.1497 3.6327 8.1427z"/>
   <path d="m101.72 157.81c6.7445-13.155 16.08-20.937 26.781-23.907-4.5328-16.847-19.479-36.884-32.018-49.432-2.3944-2.3807-1.8872-2.9564 0.63986-0.67613 13.521 12.164 28.669 32.932 33.014 50.455 0.1296 0.55697 0 0.79529-0.53494 0.95073-11.291 3.1483-19.269 10.281-27.078 23.075-1.1243 1.8597-1.8415 1.5354-0.80436-0.46631"/>
   <path d="m78.976 91.2c0.44817-10.578 2.4355-20.384 5.9174-21.458 6.2098-1.9695 46.014 24.812 55.742 61.733 0.59841 2.28-0.21502 2.4765-0.90021 0.25128-11.245-36.313-49.331-61.865-54.362-60.316-2.1797 0.67613-4.1947 9.2942-4.5375 20.32z"/>
   <path d="m115.75 106.73c-11.798-11.561-24.579-16.432-25.196-15.765-0.60748 0.67224 6.0087 13.384 14.869 22.299 1.8506 1.869 1.2059 2.3715-0.67613 0.658-8.7824-8.097-17.076-22.701-15.422-24.159 1.613-1.4073 12.58 2.8377 23.268 12.168z"/>
   <path d="m102.74 111.46c-5.6112-3.683-11.949-4.944-12.593-4.2403-0.87301 0.95461 4.053 11.661 14.782 21.892 2.015 1.9237 1.3708 2.4264-0.66318 0.68131-10.852-9.2577-17.236-21.705-15.522-23.647 1.2797-1.4073 7.3567 0.13217 12.05 2.7554z"/>
   <path d="m58.811 77.175c1.5902-0.07773 6.2967 10.044 19.635 13.123 5.3234 1.2331 9.9477 2.8879 13.206 5.2594l1.2564 2.2618c-4.5968-3.3356-8.6499-4.711-14.759-6.0727-13.059-2.9107-18.529-12.516-19.022-12.452-0.52978 0.09059-6.9136 19.722 12.516 39.516 2.0929 2.102 1.4349 2.6047-0.66188 0.66707-21.289-19.781-13.978-42.176-12.168-42.304"/>
   <path d="m102.28 157.78c-35.221-2.8787-52.548-46.69-45.374-72.503l0.23314 6.941c-2.4172 25.959 14.755 61.742 45.927 64.237z"/>
   <path d="m172.27 116.86c8.9972-5.5975 21.65-6.7674 22.587-4.4644 0.95462 2.2391-4.3274 8.7184-11.127 12.671-2.3578 1.3708-2.8925 0.79918-0.5168-0.79011 6.7444-4.4644 10.537-10.254 10.135-11.053-0.52977-0.95461-12.232-0.74089-22.646 5.9402z"/>
   <path d="m187.08 122.01c3.9022-1.1334 7.4024-0.6852 7.9737 0.55307 1.2525 2.7874-6.909 11.378-15.454 14.526-2.3534 0.83674-2.824 0.21501-0.31994-0.90021 8.4397-3.7652 14.796-11.542 14.142-12.986-0.30569-0.67613-4.309-1.0738-9.2211 0.99606z"/>
   <path d="m208.01 111.99c1.5445 0.27848 7.7361 21.801-14.613 30.569-2.3532 0.93648-2.8193 0.2422-0.33417-0.86783 20.293-9.0017 14.649-27.554 14.33-27.595-0.69945-0.0906-6.5709 5.2365-18.57 6.5342l1.4622-1.4485c10.176-1.348 16.788-7.3339 17.725-7.1922"/>
   <path d="m209.26 123.11c-0.84971 26.333-17.578 42.729-35.536 43.798l-0.0907-1.389c16.966-1.4257 30.56-15.765 33.508-36.359z"/>
   <path d="m72.211 219.06c3.6282-4.7294 11.469-6.6714 18.643-4.9259 7.3339 1.8004 16.706-2.4948 19.16-11.158l1.4668 0.50776c-2.2663 8.7915-12.228 14.27-20.928 12.118-6.9957-1.7088-14.316 0.38858-17.492 4.8254z"/>
   <path d="m126.64 208.06c0.55308 5.9128 0.66318 14.097 0.7409 18.648 0.0519 2.4402 3.5275 6.6805 5.7117 8.0742 0.92741 0.55308 1.2059 0.65281 2.6593 0.34325 5.0539-1.0375 10.711-3.6235 14.065-2.8147 7.0004 1.7043 10.204 8.0604 8.5084 10.944-1.2344 2.0974-6.0454 2.2619-9.9249-0.97274-1.0012-0.83674-1.8095-0.95461-2.7142-0.70332-5.4878 1.5765-8.8692 3.025-13.361 5.3188-1.8689 0.96367-3.2945 1.0051-5.273 0.51163-1.8095-0.41579-3.9892-1.38-5.9449-2.4127-1.677-0.85489-3.3265-1.7135-4.935-2.2208l1.224-1.0828c1.3388 0.43909 2.7781 1.1062 4.3912 1.9145 1.9236 0.97793 3.8793 1.974 5.5746 2.3807 1.8095 0.42485 2.696 0.51163 4.4735-0.38858 4.3912-2.1385 7.896-3.5322 13.512-5.2274 1.5445-0.46111 2.44-0.1917 3.7468 0.90021 2.7417 2.2846 7.0689 2.7736 7.9966 1.193 1.2746-2.1568-2.0517-7.3659-7.6127-8.7322-3.0295-0.7409-8.6134 1.6724-13.489 2.6914-1.7364 0.3523-2.3259 0.25128-3.5733-0.51682-2.0472-1.2746-6.4247-5.5015-6.4977-9.1433-0.0647-4.5237-0.16967-13.457-0.67613-18.904z"/>
   <path d="m122.49 234.14c0.8497-1.4029 1.3297-2.4767 1.7135-4.0897 0.36139-1.4897 0.8497-1.3434 0.6852 0.14637-0.21501 1.8232-0.83674 3.226-1.7638 4.286-1.0466 1.2059-1.5262 1.079-0.63469-0.34325"/>
   <path d="m87.517 242.17c5.6386 0.63467 10.861 4.3684 17.798 4.0714 5.2274-0.20076 9.7512-2.7005 13.864-7.1146 1.3434-1.4348 1.8917-0.96886 0.72664 0.59453-3.692 4.9076-9.0657 7.6309-14.549 7.9417-6.5982 0.59453-12.762-3.1803-18.666-4.044z"/>
   <path d="m91.613 261.95c-2.0151-10.729-1.0194-13.699 2.5452-16.066l-0.29662 1.8643c-2.0609 1.8323-2.4355 3.9708-1.6952 10.578z"/>
   <path d="m91.167 268.58c-4.6197-0.99605-8.5814-10.29-12.191-18.977l1.2525-0.57639c3.3082 7.9874 6.9592 17.144 10.999 18.383z"/>
   <path d="m63.304 241.33c-5.4514 5.6752-8.819 10.907-11.702 18.351-1.1243 2.8559-0.59452 5.7986 1.2977 6.219 0.92741 0.21501 2.175-0.48444 3.322-3.258 1.91-4.615 4.8985-8.2569 8.161-10.615 0.95979-0.69426 1.6632-1.0051 2.9107-1.0051 15.33-0.13732 22.344-7.302 22.98-22.893 0.1036-2.4628 0.93648-2.4308 0.93648 0.0389 0.12946 16.61-7.6537 23.871-23.916 24.012-0.89115 0-1.4622 0.27849-2.2938 0.87689-3.1392 2.271-5.8444 5.657-7.7177 10.117-1.6131 3.9114-3.3906 4.4323-4.7522 4.1673-2.3716-0.48832-3.8155-3.4818-2.0929-8.1198 2.8194-7.5807 6.548-13.306 12.214-19.16z"/>
   <path d="m67.633 234.78c-6.8723-11.081-7.6583-29.93-4.7705-30.469 2.2892-0.43909 9.5867 15.86 16.24 23.852 1.613 1.8963 0.98182 2.472-0.69945 0.61265-6.7902-7.567-14.142-22.865-15.225-22.687-0.59454 0.0906-1.782 15.381 5.2777 28.225 1.1696 2.1521 0.42485 2.4766-0.82249 0.46629"/>
   <path d="m63.625 223.71c-1.4622-2.7234-3.4819-5.7117-3.7562-5.6707-0.95073 0.17876-1.1657 14.014 4.4095 23.98 0.96886 1.7044 0.17356 2.1157-0.82768 0.47536-6.0453-10.048-6.4475-25.726-3.8977-26.133 0.67224-0.1166 1.8644 1.2707 3.258 3.5322z"/>
   <path d="m60.868 235.27c-21.591 3.7561-40.042-15.646-38.954-41.984 0.44298-11.821 0.78623-16.103-1.7408-26.58-0.88597-3.596 1.0414-4.4415 3.7743-2.335 5.9951 4.67 18.301 8.7368 30.346 7.6721 23.606-2.1202 42.624 24.36 31.314 42.199l-1.5215 0.0907c10.852-17.145-7.4664-42.82-29.688-40.915-12.273 1.0608-24.853-3.0203-31.173-8.0695-1.9283-1.5353-2.4355-1.0194-1.8825 1.11 2.7736 10.464 2.5177 14.983 2.079 26.896-0.87689 23.45 14.896 42.825 37.044 40.558z"/>
   <path d="m46.472 172.66c2.8377 1.1424 5.2732 3.1483 5.0401 4.3043-0.36526 1.581-8.3346 2.3944-14.33 1.444 2.7553 4.2724 6.0407 11.734 4.4095 12.822-1.38 0.92742-7.6584-2.2023-12.018-6.548 0.75385 6.2876-0.55697 11.597-2.3213 11.78-1.2888 0.1166-3.3905-2.6182-4.4689-6.0225l0.1645-3.7012c1.088 4.702 3.3952 7.8869 4.1217 7.8184 0.75385-0.0906 2.0973-4.1764 1.2655-11.117-0.15025-1.1515 0.29662-1.3115 1.1282-0.4663 4.6013 4.7979 10.281 7.3522 10.939 6.7582 0.63469-0.53883-1.2745-6.2463-4.67-11.593-0.54402-0.85489-0.2461-1.101 0.63468-0.9598 6.5342 1.079 13.05 0 13.297-0.69038 0.13218-0.38339-2.3899-2.4492-6.5252-4.0256z"/>
  </g>
  <path d="m113.52 233.94c-1.1476 4.1307-2.9747 8.0147-5.5839 12.109-3.0066 4.8253-7.2013 14.791-9.815 23.733-0.31994 1.0919-0.29662 1.5034 0.02586 2.5772 0.90927 2.769 0.14118 5.6432-2.2755 6.1367-1.7775 0.39247-4.574-0.74478-4.7202-6.7215-0.19169-8.5449 2.8559-26.996 5.9037-37.542 1.215-4.1992 17.588-4.4003 16.464-0.29273" fill="#fff"/>
  <path d="m96.763 235.44c-1.6495 13.365-4.213 28.033-3.788 37.149 0.21501 4.3135 3.5367 5.6112 5.465 2.4402-1.0375 5.7391-6.4063 3.5823-7.0003-0.22409-0.99607-6.5709 1.7638-29.075 5.3233-39.366" fill="#fff"/>
  <path d="m90.551 271.83c-0.16968-8.8144 2.3166-25.584 5.7071-36.528 0.63986-2.0653 1.4852-1.8185 0.87302 0.24741-3.0204 10.898-5.5976 27.928-5.3919 36.226 0.1036 4.8115 2.1842 6.4383 4.0348 6.0315 2.1202-0.43002 2.6045-2.7508 1.8003-5.2548-0.3562-1.1696-0.4119-1.7502-0.06473-2.929 2.7965-9.1937 6.813-18.954 9.943-23.903 2.4995-3.9389 3.8383-6.7674 5.1772-10.816 0.69427-2.0973 1.4988-1.8415 0.88596 0.29273-1.2292 4.277-2.4812 6.8312-5.1177 11.186-2.8925 4.7842-7.1374 14.75-9.6826 23.523-0.2746 0.88208-0.26035 1.215 0.09059 2.2938 1.1657 3.6374-0.45723 6.4886-2.8148 6.9867-2.2663 0.47536-5.3005-1.1839-5.4421-7.3567" fill="#221815"/>
  <path d="m149.65 233.04c-3.267-0.74089-8.6317 1.6906-13.79 2.7508-1.5582 0.3018-2.0517 0.18264-3.1117-0.47019-2.134-1.3388-6.018-5.5244-6.0774-8.6087-0.0647-4.414-0.28366-14.878-0.85487-21.403l-14.48-3.9389c-2.8695 11.127-12.557 15.468-20.677 13.494-1.91-0.47924-3.884-0.64892-5.8123-0.5751 10.925-17.295-7.1649-43.588-30.528-41.573-11.666 1.0233-24.245-2.8421-30.748-7.8822-2.5087-1.9237-3.4637-0.95462-2.8194 1.7227 2.5772 10.642 2.3944 14.704 1.9467 26.781-0.95461 25.182 16.089 44.104 37.935 41.193 0.58935 2.0928 1.3753 4.2039 2.3532 6.1094-5.2594 5.4878-9.0155 11.044-11.981 18.83-1.316 3.4819-0.46629 6.6394 1.7363 7.142 1.2707 0.29273 2.7462-0.86783 4.012-3.6692 1.9283-4.2952 4.6288-7.9735 7.9507-10.404 0.86783-0.60748 1.4212-0.90021 2.5452-0.90021 9.7969-0.1036 16.226-2.9975 19.831-8.7459 5.7346 0.72664 11.296 4.4781 18.232 4.0714 3.7926-0.22408 7.864-1.6862 11.433-4.7385 3.3722 1.1463 7.3065 3.7332 10.45 4.4552 1.837 0.4391 2.9427 0.57122 4.9167-0.39764 4.6472-2.2894 8.0194-3.6784 13.407-5.2732 1.1463-0.33417 2.0745-0.22796 3.2215 0.72666 3.0112 2.5132 7.8594 3.0387 8.9697 1.1554 1.4805-2.5588-1.8688-8.4717-8.0605-9.8515" fill="#dcdddd"/>
  <path d="m191.72 111.86c0.16839-7.7268-0.52587-19.863-2.7509-20.338-3.6463-0.79529-24.387 16.272-38.685 42.039-2.9472-1.1334-7.0004-2.175-10.24-2.5588-13.617-41.102-50.89-61.751-54.732-60.618-6.5342 1.878-11.236 56.076 4.8207 90.15l12.744 18.017 50.355 9.3948 19.594-9.5274c0.83157-4.5145 1.3297-7.544 1.0828-12.072z" fill="#dcdddd"/>
  <path d="m159.53 175.01c2.6777-6.315 7.3797-13.685 10.199-12.986 2.8422 0.7357 2.3852 8.9834 0.15543 15.472-3.0981-0.90021-6.6577-1.6907-10.354-2.4857" fill="#fff"/>
  <path d="m177.81 179.78c-1.4805 0.33417-2.6685 0.39764-4.2587 0.4935 1.6085-2.0928-8.3985-4.2175-19.1-6.3058-5.602-1.1152-9.0565-2.2802-12.767-2.8194 0.77716-11.241-3.9297-22.701-12.538-22.628-8.6042 0.0777-12.57 7.0872-13.356 15.737-4.6654-0.66318-10.245-0.96367-15.371-0.82768-4.8756 0.1166-16.692-4.9623-21.275-9.943-2.3486 2.6228-3.0523 7.6903-0.99088 11.912 1.0595 13.041 15.623 34.092 36.007 38.836 2.143 1.2059 4.2405 2.2253 6.6577 2.792 24.382 5.7255 48.39-2.3944 54.838-20.672 1.2473-2.1477 2.1202-4.3455 2.1567-6.5754" fill="#fff"/>
  <path d="m127.37 154.31c-2.5816-0.41577-6.0818 2.1202-7.5943 10.098-1.6085 8.49 0.93648 12.767 3.3996 13.183 2.7509 0.49349 6.5434-2.3121 8.0149-11.218 1.2655-7.8-1.444-11.698-3.8201-12.063" fill="#898989"/>
  <path d="m166.21 176.51c2.8422-6.1459 2.2527-10.29 0.82768-10.939-0.74088-0.31605-1.7775-0.1036-2.8605 0.69426-1.5033 2.1933-3.6463 6.251-4.4963 8.755 2.0517 0.46111 4.4369 0.97793 6.5297 1.4897" fill="#898989"/>
  <path d="m167.73 176.72c-3.5321 0.5712-5.954 3.3814-5.593 6.6805 0.34324 2.9519 3.2032 5.3052 6.0499 5.1817 2.8193-2.8787 5.9677-7.8182 5.4239-9.0657-0.37432-0.90022-2.8377-1.9328-5.8809-2.7965" fill="#595757"/>
  <g fill="#898989">
   <path d="m114.58 104.65c-11.451-10.738-23.409-15.285-24.638-14.211-0.4935 0.4391 0.42485 2.8742 2.3077 6.2236-4.1491-2.7737-8.5221-4.245-13.992-5.6249-7.9279-2.0517-13.978-6.4109-19.26-12.826-1.4348 3.0158-2.134 6.5708-2.1156 10.455-4.6014 26.333 12.749 65.991 45.799 68.422 5.538-10.436 16.057-20.38 26.745-22.651-2.1842-8.4397-8.2936-20.654-14.846-29.788"/>
   <path d="m207.73 113.04c-4.6836 3.4865-12.621 6.3652-18.09 6.8267 3.162-3.098 4.8618-6.0545 4.4323-7.0507-0.65801-1.4668-12.739-1.2292-23.13 5.4879-4.0667 6.2692-7.7177 12.739-11.264 20.955 6.4019 4.2632 13.53 15.522 14.06 26.946 20.206-1.8643 32.681-19.571 34.54-39.932 1.1062-4.0302 1.088-8.5265-0.54789-13.233"/>
   <path d="m22.867 188.84c1.2344 3.9297 3.2627 6.8084 4.2816 6.6485 1.3388-0.15932 2.5817-5.6067 1.7272-12.314 4.4871 4.8618 11.035 8.0422 12.145 7.3155 1.1062-0.75902-1.5902-7.704-4.9442-12.817 6.4064 1.1787 14.234 0.14637 14.467-0.91316 0.16969-0.85487-2.207-2.7189-5.7027-4.2404-8.426-1.088-14.896-3.258-20.786-7.3339-3.3357-2.3258-3.9892-1.2797-3.3037 1.3708 2.1156 8.0194 2.472 14.38 2.1156 22.285"/>
  </g>
  <path d="m125.46 156.4c-0.80825-0.22408-1.9603 0.25647-2.504 2.2299-0.48961 1.7866-0.0777 3.1026 0.67613 3.3402 0.9598 0.2461 2.079-0.34325 2.6092-2.3212 0.50257-1.8872 0.0259-3.0342-0.78104-3.2489" fill="#fff"/>
  <path d="m164.81 167.66c-0.55308-0.21892-1.3342-0.0129-1.8643 1.2977-0.51163 1.1787-0.27847 2.1201 0.21503 2.3486 0.54401 0.26941 1.3708-0.0647 1.9237-1.3663 0.4935-1.2383 0.23314-2.0653-0.2746-2.28" fill="#fff"/>
  <g fill="#b5b6b6">
   <path d="m94.349 244.78c-2.102-0.74478-4.1354-1.3753-7.1009-1.9237-1.9968 3.0296-4.2405 5.1314-7.5943 6.5069 1.8414 5.168 7.0003 17.277 11.469 18.584 0.24222-2.3899 0.47018-5.7529 0.86782-8.4306-1.0284-4.3318-1.412-11.053 1.846-12.41z"/>
   <path d="m113.33 102.97c-12.031-15.76-22.07-24.615-23.916-23.802-1.2977 0.55308-2.3578 8.0422-2.376 14.531 1.3845 0.62172 3.4088 1.6723 4.8755 2.472-1.421-2.696-2.376-5.3827-1.8872-5.73 2.0746-1.4852 15.609 6.0087 23.304 12.529"/>
   <path d="m171.66 117.68c3.2945-4.5283 12.744-15.86 14.403-15.445 0.57121 0.1166 0.86783 6.251 0.22797 10.226-4.871 0.87301-9.687 2.3898-14.631 5.2182"/>
   <path d="m102.64 157.12c-1.3754 2.3578-2.2391 4.1581-3.258 6.0865-2.8011-0.18263-6.9319-1.2344-9.4587-2.7554-1.4989-3.1985-2.2071-5.0218-3.0114-7.8045 5.0629 2.6868 10.176 3.9753 15.728 4.4735"/>
   <path d="m87.856 200.09c-2.8377 7.4892-9.4954 13.621-16.601 17.19l1.2927 2.3532c2.7782-3.3265 8.0605-5.497 12.347-5.3372 1.9008-3.4316 3.8155-8.563 2.961-14.206"/>
   <path d="m22.974 201.44c5.4879 15.504 21.705 21.485 35.623 19.703 0.1036 4.181 0.66317 9.0063 1.9969 13.507-16.756 1.9693-34.572-9.4176-37.62-33.211"/>
   <path d="m107.94 208.77c1.193 6.6714 10.012 12.397 18.689 12.301-0.16968-3.4133-0.4119-11.136-0.7409-15.024l-14.764-4.5694c-0.65283 2.8879-1.0777 4.3684-3.1848 7.2928"/>
  </g>
  <g fill="#dcdddd">
   <path d="m175.65 186.35c-6.4475 18.278-30.455 26.398-54.838 20.672-2.4172-0.56603-4.5145-1.5857-6.6575-2.792-20.384-4.743-34.947-25.794-36.012-38.836 0.88597 2.5452 1.805 4.044 3.2444 5.9494 11.766 29.747 65.868 46.882 89.446 20.137"/>
   <path d="m81.011 155.03c-1.805 3.8247-1.6085 11.021 0.63468 16.614-4.0714-3.6327-6.6394-13.662-2.6686-18.456z"/>
   <path d="m175.31 180.42c-0.3834 3.2443-1.741 7.3613-4.0485 10.601 3.6235-2.8376 6.5754-7.27 6.4063-11.241z"/>
  </g>
  <path d="m173.4 179.21c-1.75 2.463-5.7848 5.7164-9.8013 7.2289 0.89502 0.74996 2.9563 1.9785 4.7338 2.1385 2.5864-2.9427 5.7895-7.7634 5.0675-9.3674" fill="#3e3a39"/>
  <g fill="#b5b6b6">
   <path d="m62.947 204.99c0.48961 8.3757 3.0707 20.809 7.0369 27.631 0.97792 1.677 0.20982 3.619-1.0828 3.4637-5.8717-8.9469-8.4168-24.602-5.954-31.095"/>
   <path d="m59.699 217.01c0.31994 7.5075 2.5452 17.318 5.7529 23.249 1.0738 2.0242-0.1036 3.386-0.91317 3.2443-5.9814-9.4495-6.8999-25.548-4.8391-26.493"/>
   <path d="m50.672 260.79c0 3.7058 2.7508 4.4917 4.1445 1.2977 2.3395-5.2594 7.6217-12.036 10.843-12.415 13.868-1.7135 22.902-8.9925 24.853-22.175 0.65282 17.679-9.8882 24.437-22.971 24.104-1.2473-0.0389-2.0928 0.34713-3.2215 1.2202-3.3905 2.6182-6.1687 6.525-7.6538 10.35-1.0828 2.7828-2.5635 3.82-4.3867 3.2397-1.2745-0.37952-2.3988-2.0882-1.6083-5.6204"/>
   <path d="m89.81 236.08c8.691 2.079 18.342 8.5905 30.154 2.4857-4.9852 7.0962-13.525 10.13-20.631 7.9188-4.2222-1.325-9.3947-3.194-12.086-3.6326 1.5445-2.8467 1.9923-4.3502 2.5635-6.7719"/>
   <path d="m120.32 238.59c2.7417 2.303 7.7406 4.6654 9.2714 4.6654 2.7554-9e-3 11.995-3.8292 15.623-4.5466 1.846-0.36526 3.1208-0.41189 4.286 0.69426 2.5315 2.3806 6.6622 3.7012 8.4397 1.348 0.91835 3.9525-4.4095 4.5602-9.1845 0.98699-1.3115-0.95461-2.3487-1.0971-3.7332-0.65799-4.0257 1.202-9.4952 3.322-12.89 5.0172-1.9511 1.0142-3.1026 1.0919-4.7521 0.58546-3.0524-0.89503-8.3529-3.7332-10.683-4.5192 1.6175-1.215 2.4082-1.9511 3.6235-3.5733"/>
  </g>
  <g fill="#727171">
   <path d="m58.36 114.94c9.6141 17.309 40.275 28.892 58.105 25.689-4.9212 4.0074-9.3947 9.2348-13.832 16.482-23.427-2.6594-37.634-20.75-44.273-42.171"/>
   <path d="m170.24 152.98c9.3079 1.4074 25.598-2.6502 35.308-13.343-5.0264 14.75-18.278 25.662-31.767 26.585-0.38339-4.0393-1.1839-9.317-3.5414-13.242"/>
   <path d="m59.092 78.009c-1.9968 15.481 4.8482 29.002 14.161 38.639 2.102 2.166 1.0103 4.0074-0.40672 3.9434-12.552-11.186-20.316-30.451-13.754-42.582"/>
   <path d="m89.659 106.51c3.1392 6.3927 9.9065 14.864 16.482 20.572 1.6267 1.4074 1.3297 3.29-0.0389 3.7104-10.4-8.9196-18.003-21.787-16.441-24.282"/>
   <path d="m90.087 90.272c4.8527 7.9782 10.048 14.435 16.706 21.097 1.4257 1.421 1.0375 3.2489-0.3834 3.5322-7.0141-6.3195-17.739-22.139-16.322-24.629"/>
   <path d="m207.31 113.17c1.2655 10.944-2.6548 19.201-13.96 25.42-2.5863 1.4165-2.897 3.13-1.91 4.2952 13.361-4.51 21.289-17.638 15.87-29.715"/>
   <path d="m194.1 122.63c-3.427 4.3729-8.9287 8.1655-15.029 11.268-1.5901 0.81732-2.1248 2.4126-1.4028 3.4362 7.6309-2.5498 17.574-10.994 16.432-14.704"/>
   <path d="m193.86 112.48c-2.865 3.7103-6.8952 6.918-11.748 9.5409-1.4257 0.7409-1.7822 2.9883-0.37951 3.6966 5.5747-3.4407 14.101-11.3 12.127-13.238"/>
  </g>
  <g fill="#221815">
   <path d="m163.77 175.97c0.87301-2.536 1.3024-4.615 0.87301-4.775-0.46629-0.18263-1.5855 1.7547-2.632 4.3638 0.64505 0.16062 1.0919 0.25645 1.7592 0.41189"/>
   <path d="m126.12 161.24c-0.53495-0.1166-1.3846 1.9648-2.0152 5.0492-0.69944 3.2077-0.74477 5.4147-0.23314 5.5427 0.46112 0.1166 1.4988-1.9375 2.0973-5.2 0.55307-2.9839 0.63986-5.296 0.15154-5.392"/>
   <path d="m120.52 164.51c-1.517 7.9553 0.66705 12.155 2.7737 12.506 1.7135 0.32899 5.4924-1.2059 7.0369-10.729 1.2331-7.4344-1.0828-11.099-3.0295-11.396-1.677-0.27459-5.2549 1.476-6.7811 9.6187m2.4995 13.685c-3.1438-0.57122-5.6478-5.5336-4.0576-13.909 1.6998-8.956 5.9676-10.971 8.4853-10.574 3.1392 0.4935 5.7256 5.0904 4.4735 12.826-1.6083 10.048-6.251 12.127-8.9012 11.657"/>
   <path d="m128.17 149.92c-7.7589 0.45204-12.89 9.806-11.456 21.152 0.32381 2.4766-0.31086 2.5725-0.90928 0.17357-2.8833-11.323 2.7737-23.532 12.15-24.25 8.4213-0.66317 15.371 9.9385 14.247 23.254-0.22795 2.7598-0.88206 2.705-0.93259-0.0389-0.25128-11.583-4.9852-20.754-13.1-20.293"/>
   <path d="m154.3 174.47c-2.8468-0.56603-2.6777-1.421 0.18263-0.91835 9.2485 1.6267 19.255 3.4957 19.813 5.8489 0.71758 3.3585-7.7634 13.452-16.541 18.648-1.805 1.101-2.4035 0.4663-0.47536-0.78623 8.5905-5.6159 16.121-15.065 15.591-17.547-0.25646-1.1657-9.3764-3.4407-18.57-5.2457"/>
   <path d="m169.2 177.38c-4.542-0.14118-6.4245 2.7873-6.3652 5.4102 0.0647 2.8513 2.2847 4.8665 5.89 5.1405l-1.0323 1.1968c-3.6692-0.39246-6.1779-2.824-6.283-6.2967-0.0519-2.769 1.782-5.6523 4.7568-6.3195z"/>
   <path d="m129.8 191.39c-1.0194-2.143-0.55308-2.3212 0.78623-0.329 3.8567 5.8442 12.168 10.034 20.544 7.3979 1.7227-0.54401 2.0608 0.0519 0.3834 0.73053-8.3072 3.4454-18.529-0.90927-21.714-7.8"/>
   <path d="m173.63 179.73c1.2564-4e-3 2.463-0.19688 3.7103-0.5712 0.68131-0.20984 1.0608-0.0647 1.0375 0.72664-0.0129 5.9357-4.7842 10.866-11.469 14.979-1.782 1.088-2.3715 0.5207-0.50774-0.79529 6.5344-4.679 10.199-9.0748 10.496-13.347-1.1424 0.27848-2.2025 0.40153-3.5779 0.40153z"/>
   <path d="m177.54 182.68c-4.5648 21.581-29.879 30.483-55.262 25.109-2.463-0.5207-2.3167-1.3754 0.18781-0.92353 26.443 4.8299 46.16-4.9258 52.082-19.461z"/>
   <path d="m78.735 166.92c2.3806 12.575 14.215 30.039 33.869 36.418 2.632 0.84581 2.1841 1.581-0.27847 0.90021-22.025-6.0225-36.236-27.819-35.518-43.441z"/>
   <path d="m96.258 183.33c-14.042-5.4833-24.848-20.293-18.003-30.3 0.51163-0.75903 0.77715-0.78105 1.4165-0.18781 5.3919 5.1268 13.809 9.4403 20.763 9.9887 4.2816 0.35619 4.3044 1.1334 0 1.1062-7.1055-4e-3 -16.029-4.7887-21.225-9.2211-5.1955 9.2166 4.4324 21.33 17.428 27.759 2.4628 1.2201 2.0333 1.7775-0.37952 0.85488"/>
   <path d="m171.96 178.4c3.5185-15.262-1.3388-29.217-12.538-38.415-0.48443-0.4106-0.56215-0.5984-0.37433-1.1567 5.0676-13.11 16.838-29.39 23.999-35.093 1.7592-1.4074 2.2756-0.82767 0.61654 0.71241-7.0004 6.4292-18.049 21.604-23.112 34.54 11.57 9.052 16.651 24.291 12.767 40.033z"/>
   <path d="m139.85 130.36c3.6738 0.42485 7.0232 1.2292 10.121 2.4538 12.804-24.912 34.938-43.304 39.288-42.107 2.6136 0.70852 3.4316 10.866 2.9243 21.449l-1.6678-0.0519c0.44298-10.674-0.36527-19.388-1.7867-19.74-2.7142-0.658-24.241 16.052-37.853 41.518-0.25128 0.51682-0.53884 0.5751-1.0284 0.37045-3.1072-1.2383-6.1094-2.0196-9.6141-2.4675z"/>
   <path d="m169.42 177.39c2.3852-8.5266 1.4622-13.864 0.0777-14.156-1.7684-0.33805-6.0088 3.6875-9.1572 12.022l-1.3388-0.30569c2.9427-9.1617 8.5448-14.837 11.172-14.215 2.3898 0.55697 3.4362 8.4717 0.42485 17.039z"/>
   <path d="m165.64 176.36c2.9016-6.2098 2.0882-9.678 1.0971-10.139-0.78622-0.37951-2.143-0.0777-3.418 1.3388l1.645-2.408c0.81861-0.37951 1.6724-0.43004 2.3715-0.12961 1.8462 0.81344 2.3899 5.4239-0.55308 11.611z"/>
   <path d="m149.97 165.33c0.0517-4.0714-0.48963-7.5076-1.974-12.58-0.50774-1.7867-0.0647-1.9649 0.63469-0.19688 1.91 4.8755 2.2847 8.851 1.9648 12.785-0.15025 1.9512-0.64892 1.9877-0.62561-9e-3"/>
   <path d="m154.62 167.8c2.0425-6.3332 2.239-12.52 0.8225-19.772-0.32381-1.6039 0.1645-1.709 0.61267-0.15543 2.1202 7.5258 1.5262 14.046-0.82768 20.119-0.68132 1.7318-1.2111 1.6266-0.60749-0.1917"/>
   <path d="m158.48 168.01c2.0516-3.3036 3.098-5.7757 4.1125-9.4495 0.46629-1.709 0.86783-1.6039 0.58935 0.15931-0.58935 3.8565-2.0334 6.749-4.1309 9.6323-1.1243 1.5627-1.6586 1.38-0.57121-0.34324"/>
   <path d="m89.444 160.41c-1.202-2.143-2.5405-5.1223-3.5321-8.1884l1.8185 0.86395c0.83157 2.5315 1.9557 5.1497 3.6327 8.1427z"/>
   <path d="m101.72 157.81c6.7445-13.155 16.08-20.937 26.781-23.907-4.5328-16.847-19.479-36.884-32.018-49.432-2.3944-2.3807-1.8872-2.9564 0.63986-0.67613 13.521 12.164 28.669 32.932 33.014 50.455 0.1296 0.55697 0 0.79529-0.53494 0.95073-11.291 3.1483-19.269 10.281-27.078 23.075-1.1243 1.8597-1.8415 1.5354-0.80436-0.46631"/>
   <path d="m78.976 91.2c0.44817-10.578 2.4355-20.384 5.9174-21.458 6.2098-1.9695 46.014 24.812 55.742 61.733 0.59841 2.28-0.21502 2.4765-0.90021 0.25128-11.245-36.313-49.331-61.865-54.362-60.316-2.1797 0.67613-4.1947 9.2942-4.5375 20.32z"/>
   <path d="m115.75 106.73c-11.798-11.561-24.579-16.432-25.196-15.765-0.60748 0.67224 6.0087 13.384 14.869 22.299 1.8506 1.869 1.2059 2.3715-0.67613 0.658-8.7824-8.097-17.076-22.701-15.422-24.159 1.613-1.4073 12.58 2.8377 23.268 12.168z"/>
   <path d="m102.74 111.46c-5.6112-3.683-11.949-4.944-12.593-4.2403-0.87301 0.95461 4.053 11.661 14.782 21.892 2.015 1.9237 1.3708 2.4264-0.66318 0.68131-10.852-9.2577-17.236-21.705-15.522-23.647 1.2797-1.4073 7.3567 0.13217 12.05 2.7554z"/>
   <path d="m58.811 77.175c1.5902-0.07773 6.2967 10.044 19.635 13.123 5.3234 1.2331 9.9477 2.8879 13.206 5.2594l1.2564 2.2618c-4.5968-3.3356-8.6499-4.711-14.759-6.0727-13.059-2.9107-18.529-12.516-19.022-12.452-0.52978 0.09059-6.9136 19.722 12.516 39.516 2.0929 2.102 1.4349 2.6047-0.66188 0.66707-21.289-19.781-13.978-42.176-12.168-42.304"/>
   <path d="m102.28 157.78c-35.221-2.8787-52.548-46.69-45.374-72.503l0.23314 6.941c-2.4172 25.959 14.755 61.742 45.927 64.237z"/>
   <path d="m172.27 116.86c8.9972-5.5975 21.65-6.7674 22.587-4.4644 0.95462 2.2391-4.3274 8.7184-11.127 12.671-2.3578 1.3708-2.8925 0.79918-0.5168-0.79011 6.7444-4.4644 10.537-10.254 10.135-11.053-0.52977-0.95461-12.232-0.74089-22.646 5.9402z"/>
   <path d="m187.08 122.01c3.9022-1.1334 7.4024-0.6852 7.9737 0.55307 1.2525 2.7874-6.909 11.378-15.454 14.526-2.3534 0.83674-2.824 0.21501-0.31994-0.90021 8.4397-3.7652 14.796-11.542 14.142-12.986-0.30569-0.67613-4.309-1.0738-9.2211 0.99606z"/>
   <path d="m208.01 111.99c1.5445 0.27848 7.7361 21.801-14.613 30.569-2.3532 0.93648-2.8193 0.2422-0.33417-0.86783 20.293-9.0017 14.649-27.554 14.33-27.595-0.69945-0.0906-6.5709 5.2365-18.57 6.5342l1.4622-1.4485c10.176-1.348 16.788-7.3339 17.725-7.1922"/>
   <path d="m209.26 123.11c-0.84971 26.333-17.578 42.729-35.536 43.798l-0.0907-1.389c16.966-1.4257 30.56-15.765 33.508-36.359z"/>
   <path d="m72.211 219.06c3.6282-4.7294 11.469-6.6714 18.643-4.9259 7.3339 1.8004 16.706-2.4948 19.16-11.158l1.4668 0.50776c-2.2663 8.7915-12.228 14.27-20.928 12.118-6.9957-1.7088-14.316 0.38858-17.492 4.8254z"/>
   <path d="m126.64 208.06c0.55308 5.9128 0.66318 14.097 0.7409 18.648 0.0519 2.4402 3.5275 6.6805 5.7117 8.0742 0.92741 0.55308 1.2059 0.65281 2.6593 0.34325 5.0539-1.0375 10.711-3.6235 14.065-2.8147 7.0004 1.7043 10.204 8.0604 8.5084 10.944-1.2344 2.0974-6.0454 2.2619-9.9249-0.97274-1.0012-0.83674-1.8095-0.95461-2.7142-0.70332-5.4878 1.5765-8.8692 3.025-13.361 5.3188-1.8689 0.96367-3.2945 1.0051-5.273 0.51163-1.8095-0.41579-3.9892-1.38-5.9449-2.4127-1.677-0.85489-3.3265-1.7135-4.935-2.2208l1.224-1.0828c1.3388 0.43909 2.7781 1.1062 4.3912 1.9145 1.9236 0.97793 3.8793 1.974 5.5746 2.3807 1.8095 0.42485 2.696 0.51163 4.4735-0.38858 4.3912-2.1385 7.896-3.5322 13.512-5.2274 1.5445-0.46111 2.44-0.1917 3.7468 0.90021 2.7417 2.2846 7.0689 2.7736 7.9966 1.193 1.2746-2.1568-2.0517-7.3659-7.6127-8.7322-3.0295-0.7409-8.6134 1.6724-13.489 2.6914-1.7364 0.3523-2.3259 0.25128-3.5733-0.51682-2.0472-1.2746-6.4247-5.5015-6.4977-9.1433-0.0647-4.5237-0.16967-13.457-0.67613-18.904z"/>
   <path d="m122.49 234.14c0.8497-1.4029 1.3297-2.4767 1.7135-4.0897 0.36139-1.4897 0.8497-1.3434 0.6852 0.14637-0.21501 1.8232-0.83674 3.226-1.7638 4.286-1.0466 1.2059-1.5262 1.079-0.63469-0.34325"/>
   <path d="m87.517 242.17c5.6386 0.63467 10.861 4.3684 17.798 4.0714 5.2274-0.20076 9.7512-2.7005 13.864-7.1146 1.3434-1.4348 1.8917-0.96886 0.72664 0.59453-3.692 4.9076-9.0657 7.6309-14.549 7.9417-6.5982 0.59453-12.762-3.1803-18.666-4.044z"/>
   <path d="m91.613 261.95c-2.0151-10.729-1.0194-13.699 2.5452-16.066l-0.29662 1.8643c-2.0609 1.8323-2.4355 3.9708-1.6952 10.578z"/>
   <path d="m91.167 268.58c-4.6197-0.99605-8.5814-10.29-12.191-18.977l1.2525-0.57639c3.3082 7.9874 6.9592 17.144 10.999 18.383z"/>
   <path d="m63.304 241.33c-5.4514 5.6752-8.819 10.907-11.702 18.351-1.1243 2.8559-0.59452 5.7986 1.2977 6.219 0.92741 0.21501 2.175-0.48444 3.322-3.258 1.91-4.615 4.8985-8.2569 8.161-10.615 0.95979-0.69426 1.6632-1.0051 2.9107-1.0051 15.33-0.13732 22.344-7.302 22.98-22.893 0.1036-2.4628 0.93648-2.4308 0.93648 0.0389 0.12946 16.61-7.6537 23.871-23.916 24.012-0.89115 0-1.4622 0.27849-2.2938 0.87689-3.1392 2.271-5.8444 5.657-7.7177 10.117-1.6131 3.9114-3.3906 4.4323-4.7522 4.1673-2.3716-0.48832-3.8155-3.4818-2.0929-8.1198 2.8194-7.5807 6.548-13.306 12.214-19.16z"/>
   <path d="m67.633 234.78c-6.8723-11.081-7.6583-29.93-4.7705-30.469 2.2892-0.43909 9.5867 15.86 16.24 23.852 1.613 1.8963 0.98182 2.472-0.69945 0.61265-6.7902-7.567-14.142-22.865-15.225-22.687-0.59454 0.0906-1.782 15.381 5.2777 28.225 1.1696 2.1521 0.42485 2.4766-0.82249 0.46629"/>
   <path d="m63.625 223.71c-1.4622-2.7234-3.4819-5.7117-3.7562-5.6707-0.95073 0.17876-1.1657 14.014 4.4095 23.98 0.96886 1.7044 0.17356 2.1157-0.82768 0.47536-6.0453-10.048-6.4475-25.726-3.8977-26.133 0.67224-0.1166 1.8644 1.2707 3.258 3.5322z"/>
   <path d="m60.868 235.27c-21.591 3.7561-40.042-15.646-38.954-41.984 0.44298-11.821 0.78623-16.103-1.7408-26.58-0.88597-3.596 1.0414-4.4415 3.7743-2.335 5.9951 4.67 18.301 8.7368 30.346 7.6721 23.606-2.1202 42.624 24.36 31.314 42.199l-1.5215 0.0907c10.852-17.145-7.4664-42.82-29.688-40.915-12.273 1.0608-24.853-3.0203-31.173-8.0695-1.9283-1.5353-2.4355-1.0194-1.8825 1.11 2.7736 10.464 2.5177 14.983 2.079 26.896-0.87689 23.45 14.896 42.825 37.044 40.558z"/>
   <path d="m46.472 172.66c2.8377 1.1424 5.2732 3.1483 5.0401 4.3043-0.36526 1.581-8.3346 2.3944-14.33 1.444 2.7553 4.2724 6.0407 11.734 4.4095 12.822-1.38 0.92742-7.6584-2.2023-12.018-6.548 0.75385 6.2876-0.55697 11.597-2.3213 11.78-1.2888 0.1166-3.3905-2.6182-4.4689-6.0225l0.1645-3.7012c1.088 4.702 3.3952 7.8869 4.1217 7.8184 0.75385-0.0906 2.0973-4.1764 1.2655-11.117-0.15025-1.1515 0.29662-1.3115 1.1282-0.4663 4.6013 4.7979 10.281 7.3522 10.939 6.7582 0.63469-0.53883-1.2745-6.2463-4.67-11.593-0.54402-0.85489-0.2461-1.101 0.63468-0.9598 6.5342 1.079 13.05 0 13.297-0.69038 0.13218-0.38339-2.3899-2.4492-6.5252-4.0256z"/>
  </g>
  <path d="m113.52 233.94c-1.1476 4.1307-2.9747 8.0147-5.5839 12.109-3.0066 4.8253-7.2013 14.791-9.815 23.733-0.31994 1.0919-0.29662 1.5034 0.02586 2.5772 0.90927 2.769 0.14118 5.6432-2.2755 6.1367-1.7775 0.39247-4.574-0.74478-4.7202-6.7215-0.19169-8.5449 2.8559-26.996 5.9037-37.542 1.215-4.1992 17.588-4.4003 16.464-0.29273" fill="#dcdddd"/>
  <path d="m96.763 235.44c-1.6495 13.365-4.213 28.033-3.788 37.149 0.21501 4.3135 3.5367 5.6112 5.465 2.4402-1.0375 5.7391-6.4063 3.5823-7.0003-0.22409-0.99607-6.5709 1.7638-29.075 5.3233-39.366" fill="#b5b6b6"/>
  <path d="m90.551 271.83c-0.16968-8.8144 2.3166-25.584 5.7071-36.528 0.63986-2.0653 1.4852-1.8185 0.87302 0.24741-3.0204 10.898-5.5976 27.928-5.3919 36.226 0.1036 4.8115 2.1842 6.4383 4.0348 6.0315 2.1202-0.43002 2.6045-2.7508 1.8003-5.2548-0.3562-1.1696-0.4119-1.7502-0.06473-2.929 2.7965-9.1937 6.813-18.954 9.943-23.903 2.4995-3.9389 3.8383-6.7674 5.1772-10.816 0.69427-2.0973 1.4988-1.8415 0.88596 0.29273-1.2292 4.277-2.4812 6.8312-5.1177 11.186-2.8925 4.7842-7.1374 14.75-9.6826 23.523-0.2746 0.88208-0.26035 1.215 0.09059 2.2938 1.1657 3.6374-0.45723 6.4886-2.8148 6.9867-2.2663 0.47536-5.3005-1.1839-5.4421-7.3567" fill="#221815"/>
  <path d="m149.65 233.04c-3.267-0.74089-8.6317 1.6906-13.79 2.7508-1.5582 0.3018-2.0517 0.18264-3.1117-0.47019-2.134-1.3388-6.018-5.5244-6.0774-8.6087-0.0647-4.414-0.28366-14.878-0.85487-21.403l-14.48-3.9389c-2.8695 11.127-12.557 15.468-20.677 13.494-1.91-0.47924-3.884-0.64892-5.8123-0.5751 10.925-17.295-7.1649-43.588-30.528-41.573-11.666 1.0233-24.245-2.8421-30.748-7.8822-2.5087-1.9237-3.4637-0.95462-2.8194 1.7227 2.5772 10.642 2.3944 14.704 1.9467 26.781-0.95461 25.182 16.089 44.104 37.935 41.193 0.58935 2.0928 1.3753 4.2039 2.3532 6.1094-5.2594 5.4878-9.0155 11.044-11.981 18.83-1.316 3.4819-0.46629 6.6394 1.7363 7.142 1.2707 0.29273 2.7462-0.86783 4.012-3.6692 1.9283-4.2952 4.6288-7.9735 7.9507-10.404 0.86783-0.60748 1.4212-0.90021 2.5452-0.90021 9.7969-0.1036 16.226-2.9975 19.831-8.7459 5.7346 0.72664 11.296 4.4781 18.232 4.0714 3.7926-0.22408 7.864-1.6862 11.433-4.7385 3.3722 1.1463 7.3065 3.7332 10.45 4.4552 1.837 0.4391 2.9427 0.57122 4.9167-0.39764 4.6472-2.2894 8.0194-3.6784 13.407-5.2732 1.1463-0.33417 2.0745-0.22796 3.2215 0.72666 3.0112 2.5132 7.8594 3.0387 8.9697 1.1554 1.4805-2.5588-1.8688-8.4717-8.0605-9.8515" fill="#ffe55f"/>
  <path d="m191.72 111.86c0.16839-7.7268-0.52587-19.863-2.7509-20.338-3.6463-0.79529-24.387 16.272-38.685 42.039-2.9472-1.1334-7.0004-2.175-10.24-2.5588-13.617-41.102-50.89-61.751-54.732-60.618-6.5342 1.878-11.236 56.076 4.8207 90.15l12.744 18.017 50.355 9.3948 19.594-9.5274c0.83157-4.5145 1.3297-7.544 1.0828-12.072z" fill="#ffe55f"/>
  <path d="m159.53 175.01c2.6777-6.315 7.3797-13.685 10.199-12.986 2.8422 0.7357 2.3852 8.9834 0.15543 15.472-3.0981-0.90021-6.6577-1.6907-10.354-2.4857" fill="#fff"/>
  <path d="m177.81 179.78c-1.4805 0.33417-2.6685 0.39764-4.2587 0.4935 1.6085-2.0928-8.3985-4.2175-19.1-6.3058-5.602-1.1152-9.0565-2.2802-12.767-2.8194 0.77716-11.241-3.9297-22.701-12.538-22.628-8.6042 0.0777-12.57 7.0872-13.356 15.737-4.6654-0.66318-10.245-0.96367-15.371-0.82768-4.8756 0.1166-16.692-4.9623-21.275-9.943-2.3486 2.6228-3.0523 7.6903-0.99088 11.912 1.0595 13.041 15.623 34.092 36.007 38.836 2.143 1.2059 4.2405 2.2253 6.6577 2.792 24.382 5.7255 48.39-2.3944 54.838-20.672 1.2473-2.1477 2.1202-4.3455 2.1567-6.5754" fill="#fff"/>
  <path d="m127.37 154.31c-2.5816-0.41577-6.0818 2.1202-7.5943 10.098-1.6085 8.49 0.93648 12.767 3.3996 13.183 2.7509 0.49349 6.5434-2.3121 8.0149-11.218 1.2655-7.8-1.444-11.698-3.8201-12.063" fill="#ea5520"/>
  <path d="m166.21 176.51c2.8422-6.1459 2.2527-10.29 0.82768-10.939-0.74088-0.31605-1.7775-0.1036-2.8605 0.69426-1.5033 2.1933-3.6463 6.251-4.4963 8.755 2.0517 0.46111 4.4369 0.97793 6.5297 1.4897" fill="#ea5520"/>
  <path d="m167.73 176.72c-3.5321 0.5712-5.954 3.3814-5.593 6.6805 0.34324 2.9519 3.2032 5.3052 6.0499 5.1817 2.8193-2.8787 5.9677-7.8182 5.4239-9.0657-0.37432-0.90022-2.8377-1.9328-5.8809-2.7965" fill="#595757"/>
  <g fill="#ea5520">
   <path d="m114.58 104.65c-11.451-10.738-23.409-15.285-24.638-14.211-0.4935 0.4391 0.42485 2.8742 2.3077 6.2236-4.1491-2.7737-8.5221-4.245-13.992-5.6249-7.9279-2.0517-13.978-6.4109-19.26-12.826-1.4348 3.0158-2.134 6.5708-2.1156 10.455-4.6014 26.333 12.749 65.991 45.799 68.422 5.538-10.436 16.057-20.38 26.745-22.651-2.1842-8.4397-8.2936-20.654-14.846-29.788"/>
   <path d="m207.73 113.04c-4.6836 3.4865-12.621 6.3652-18.09 6.8267 3.162-3.098 4.8618-6.0545 4.4323-7.0507-0.65801-1.4668-12.739-1.2292-23.13 5.4879-4.0667 6.2692-7.7177 12.739-11.264 20.955 6.4019 4.2632 13.53 15.522 14.06 26.946 20.206-1.8643 32.681-19.571 34.54-39.932 1.1062-4.0302 1.088-8.5265-0.54789-13.233"/>
   <path d="m22.867 188.84c1.2344 3.9297 3.2627 6.8084 4.2816 6.6485 1.3388-0.15932 2.5817-5.6067 1.7272-12.314 4.4871 4.8618 11.035 8.0422 12.145 7.3155 1.1062-0.75902-1.5902-7.704-4.9442-12.817 6.4064 1.1787 14.234 0.14637 14.467-0.91316 0.16969-0.85487-2.207-2.7189-5.7027-4.2404-8.426-1.088-14.896-3.258-20.786-7.3339-3.3357-2.3258-3.9892-1.2797-3.3037 1.3708 2.1156 8.0194 2.472 14.38 2.1156 22.285"/>
  </g>
  <path d="m125.46 156.4c-0.80825-0.22408-1.9603 0.25647-2.504 2.2299-0.48961 1.7866-0.0777 3.1026 0.67613 3.3402 0.9598 0.2461 2.079-0.34325 2.6092-2.3212 0.50257-1.8872 0.0259-3.0342-0.78104-3.2489" fill="#fff"/>
  <path d="m164.81 167.66c-0.55308-0.21892-1.3342-0.0129-1.8643 1.2977-0.51163 1.1787-0.27847 2.1201 0.21503 2.3486 0.54401 0.26941 1.3708-0.0647 1.9237-1.3663 0.4935-1.2383 0.23314-2.0653-0.2746-2.28" fill="#fff"/>
  <g fill="#ddc653">
   <path d="m94.349 244.78c-2.102-0.74478-4.1354-1.3753-7.1009-1.9237-1.9968 3.0296-4.2405 5.1314-7.5943 6.5069 1.8414 5.168 7.0003 17.277 11.469 18.584 0.24222-2.3899 0.47018-5.7529 0.86782-8.4306-1.0284-4.3318-1.412-11.053 1.846-12.41z"/>
   <path d="m113.33 102.97c-12.031-15.76-22.07-24.615-23.916-23.802-1.2977 0.55308-2.3578 8.0422-2.376 14.531 1.3845 0.62172 3.4088 1.6723 4.8755 2.472-1.421-2.696-2.376-5.3827-1.8872-5.73 2.0746-1.4852 15.609 6.0087 23.304 12.529"/>
   <path d="m171.66 117.68c3.2945-4.5283 12.744-15.86 14.403-15.445 0.57121 0.1166 0.86783 6.251 0.22797 10.226-4.871 0.87301-9.687 2.3898-14.631 5.2182"/>
   <path d="m102.64 157.12c-1.3754 2.3578-2.2391 4.1581-3.258 6.0865-2.8011-0.18263-6.9319-1.2344-9.4587-2.7554-1.4989-3.1985-2.2071-5.0218-3.0114-7.8045 5.0629 2.6868 10.176 3.9753 15.728 4.4735"/>
   <path d="m87.856 200.09c-2.8377 7.4892-9.4954 13.621-16.601 17.19l1.2927 2.3532c2.7782-3.3265 8.0605-5.497 12.347-5.3372 1.9008-3.4316 3.8155-8.563 2.961-14.206"/>
   <path d="m22.974 201.44c5.4879 15.504 21.705 21.485 35.623 19.703 0.1036 4.181 0.66317 9.0063 1.9969 13.507-16.756 1.9693-34.572-9.4176-37.62-33.211"/>
   <path d="m107.94 208.77c1.193 6.6714 10.012 12.397 18.689 12.301-0.16968-3.4133-0.4119-11.136-0.7409-15.024l-14.764-4.5694c-0.65283 2.8879-1.0777 4.3684-3.1848 7.2928"/>
  </g>
  <g fill="#dcdddd">
   <path d="m175.65 186.35c-6.4475 18.278-30.455 26.398-54.838 20.672-2.4172-0.56603-4.5145-1.5857-6.6575-2.792-20.384-4.743-34.947-25.794-36.012-38.836 0.88597 2.5452 1.805 4.044 3.2444 5.9494 11.766 29.747 65.868 46.882 89.446 20.137"/>
   <path d="m81.011 155.03c-1.805 3.8247-1.6085 11.021 0.63468 16.614-4.0714-3.6327-6.6394-13.662-2.6686-18.456z"/>
   <path d="m175.31 180.42c-0.3834 3.2443-1.741 7.3613-4.0485 10.601 3.6235-2.8376 6.5754-7.27 6.4063-11.241z"/>
  </g>
  <path d="m173.4 179.21c-1.75 2.463-5.7848 5.7164-9.8013 7.2289 0.89502 0.74996 2.9563 1.9785 4.7338 2.1385 2.5864-2.9427 5.7895-7.7634 5.0675-9.3674" fill="#3e3a39"/>
  <g fill="#ddc653">
   <path d="m62.947 204.99c0.48961 8.3757 3.0707 20.809 7.0369 27.631 0.97792 1.677 0.20982 3.619-1.0828 3.4637-5.8717-8.9469-8.4168-24.602-5.954-31.095"/>
   <path d="m59.699 217.01c0.31994 7.5075 2.5452 17.318 5.7529 23.249 1.0738 2.0242-0.1036 3.386-0.91317 3.2443-5.9814-9.4495-6.8999-25.548-4.8391-26.493"/>
   <path d="m50.672 260.79c0 3.7058 2.7508 4.4917 4.1445 1.2977 2.3395-5.2594 7.6217-12.036 10.843-12.415 13.868-1.7135 22.902-8.9925 24.853-22.175 0.65282 17.679-9.8882 24.437-22.971 24.104-1.2473-0.0389-2.0928 0.34713-3.2215 1.2202-3.3905 2.6182-6.1687 6.525-7.6538 10.35-1.0828 2.7828-2.5635 3.82-4.3867 3.2397-1.2745-0.37952-2.3988-2.0882-1.6083-5.6204"/>
   <path d="m89.81 236.08c8.691 2.079 18.342 8.5905 30.154 2.4857-4.9852 7.0962-13.525 10.13-20.631 7.9188-4.2222-1.325-9.3947-3.194-12.086-3.6326 1.5445-2.8467 1.9923-4.3502 2.5635-6.7719"/>
   <path d="m120.32 238.59c2.7417 2.303 7.7406 4.6654 9.2714 4.6654 2.7554-9e-3 11.995-3.8292 15.623-4.5466 1.846-0.36526 3.1208-0.41189 4.286 0.69426 2.5315 2.3806 6.6622 3.7012 8.4397 1.348 0.91835 3.9525-4.4095 4.5602-9.1845 0.98699-1.3115-0.95461-2.3487-1.0971-3.7332-0.65799-4.0257 1.202-9.4952 3.322-12.89 5.0172-1.9511 1.0142-3.1026 1.0919-4.7521 0.58546-3.0524-0.89503-8.3529-3.7332-10.683-4.5192 1.6175-1.215 2.4082-1.9511 3.6235-3.5733"/>
  </g>
  <g fill="#cb4819">
   <path d="m58.36 114.94c9.6141 17.309 40.275 28.892 58.105 25.689-4.9212 4.0074-9.3947 9.2348-13.832 16.482-23.427-2.6594-37.634-20.75-44.273-42.171"/>
   <path d="m170.24 152.98c9.3079 1.4074 25.598-2.6502 35.308-13.343-5.0264 14.75-18.278 25.662-31.767 26.585-0.38339-4.0393-1.1839-9.317-3.5414-13.242"/>
   <path d="m59.092 78.009c-1.9968 15.481 4.8482 29.002 14.161 38.639 2.102 2.166 1.0103 4.0074-0.40672 3.9434-12.552-11.186-20.316-30.451-13.754-42.582"/>
   <path d="m89.659 106.51c3.1392 6.3927 9.9065 14.864 16.482 20.572 1.6267 1.4074 1.3297 3.29-0.0389 3.7104-10.4-8.9196-18.003-21.787-16.441-24.282"/>
   <path d="m90.087 90.272c4.8527 7.9782 10.048 14.435 16.706 21.097 1.4257 1.421 1.0375 3.2489-0.3834 3.5322-7.0141-6.3195-17.739-22.139-16.322-24.629"/>
   <path d="m207.31 113.17c1.2655 10.944-2.6548 19.201-13.96 25.42-2.5863 1.4165-2.897 3.13-1.91 4.2952 13.361-4.51 21.289-17.638 15.87-29.715"/>
   <path d="m194.1 122.63c-3.427 4.3729-8.9287 8.1655-15.029 11.268-1.5901 0.81732-2.1248 2.4126-1.4028 3.4362 7.6309-2.5498 17.574-10.994 16.432-14.704"/>
   <path d="m193.86 112.48c-2.865 3.7103-6.8952 6.918-11.748 9.5409-1.4257 0.7409-1.7822 2.9883-0.37951 3.6966 5.5747-3.4407 14.101-11.3 12.127-13.238"/>
  </g>
  <g fill="#0f141b">
   <path d="m163.77 175.97c0.87301-2.536 1.3024-4.615 0.87301-4.775-0.46629-0.18263-1.5855 1.7547-2.632 4.3638 0.64505 0.16062 1.0919 0.25645 1.7592 0.41189"/>
   <path d="m126.12 161.24c-0.53495-0.1166-1.3846 1.9648-2.0152 5.0492-0.69944 3.2077-0.74477 5.4147-0.23314 5.5427 0.46112 0.1166 1.4988-1.9375 2.0973-5.2 0.55307-2.9839 0.63986-5.296 0.15154-5.392"/>
   <path d="m120.52 164.51c-1.517 7.9553 0.66705 12.155 2.7737 12.506 1.7135 0.32899 5.4924-1.2059 7.0369-10.729 1.2331-7.4344-1.0828-11.099-3.0295-11.396-1.677-0.27459-5.2549 1.476-6.7811 9.6187m2.4995 13.685c-3.1438-0.57122-5.6478-5.5336-4.0576-13.909 1.6998-8.956 5.9676-10.971 8.4853-10.574 3.1392 0.4935 5.7256 5.0904 4.4735 12.826-1.6083 10.048-6.251 12.127-8.9012 11.657"/>
   <path d="m128.17 149.92c-7.7589 0.45204-12.89 9.806-11.456 21.152 0.32381 2.4766-0.31086 2.5725-0.90928 0.17357-2.8833-11.323 2.7737-23.532 12.15-24.25 8.4213-0.66317 15.371 9.9385 14.247 23.254-0.22795 2.7598-0.88206 2.705-0.93259-0.0389-0.25128-11.583-4.9852-20.754-13.1-20.293"/>
   <path d="m154.3 174.47c-2.8468-0.56603-2.6777-1.421 0.18263-0.91835 9.2485 1.6267 19.255 3.4957 19.813 5.8489 0.71758 3.3585-7.7634 13.452-16.541 18.648-1.805 1.101-2.4035 0.4663-0.47536-0.78623 8.5905-5.6159 16.121-15.065 15.591-17.547-0.25646-1.1657-9.3764-3.4407-18.57-5.2457"/>
   <path d="m169.2 177.38c-4.542-0.14118-6.4245 2.7873-6.3652 5.4102 0.0647 2.8513 2.2847 4.8665 5.89 5.1405l-1.0323 1.1968c-3.6692-0.39246-6.1779-2.824-6.283-6.2967-0.0519-2.769 1.782-5.6523 4.7568-6.3195z"/>
   <path d="m129.8 191.39c-1.0194-2.143-0.55308-2.3212 0.78623-0.329 3.8567 5.8442 12.168 10.034 20.544 7.3979 1.7227-0.54401 2.0608 0.0519 0.3834 0.73053-8.3072 3.4454-18.529-0.90927-21.714-7.8"/>
   <path d="m173.63 179.73c1.2564-4e-3 2.463-0.19688 3.7103-0.5712 0.68131-0.20984 1.0608-0.0647 1.0375 0.72664-0.0129 5.9357-4.7842 10.866-11.469 14.979-1.782 1.088-2.3715 0.5207-0.50774-0.79529 6.5344-4.679 10.199-9.0748 10.496-13.347-1.1424 0.27848-2.2025 0.40153-3.5779 0.40153z"/>
   <path d="m177.54 182.68c-4.5648 21.581-29.879 30.483-55.262 25.109-2.463-0.5207-2.3167-1.3754 0.18781-0.92353 26.443 4.8299 46.16-4.9258 52.082-19.461z"/>
   <path d="m78.735 166.92c2.3806 12.575 14.215 30.039 33.869 36.418 2.632 0.84581 2.1841 1.581-0.27847 0.90021-22.025-6.0225-36.236-27.819-35.518-43.441z"/>
   <path d="m96.258 183.33c-14.042-5.4833-24.848-20.293-18.003-30.3 0.51163-0.75903 0.77715-0.78105 1.4165-0.18781 5.3919 5.1268 13.809 9.4403 20.763 9.9887 4.2816 0.35619 4.3044 1.1334 0 1.1062-7.1055-4e-3 -16.029-4.7887-21.225-9.2211-5.1955 9.2166 4.4324 21.33 17.428 27.759 2.4628 1.2201 2.0333 1.7775-0.37952 0.85488"/>
   <path d="m171.96 178.4c3.5185-15.262-1.3388-29.217-12.538-38.415-0.48443-0.4106-0.56215-0.5984-0.37433-1.1567 5.0676-13.11 16.838-29.39 23.999-35.093 1.7592-1.4074 2.2756-0.82767 0.61654 0.71241-7.0004 6.4292-18.049 21.604-23.112 34.54 11.57 9.052 16.651 24.291 12.767 40.033z"/>
   <path d="m139.85 130.36c3.6738 0.42485 7.0232 1.2292 10.121 2.4538 12.804-24.912 34.938-43.304 39.288-42.107 2.6136 0.70852 3.4316 10.866 2.9243 21.449l-1.6678-0.0519c0.44298-10.674-0.36527-19.388-1.7867-19.74-2.7142-0.658-24.241 16.052-37.853 41.518-0.25128 0.51682-0.53884 0.5751-1.0284 0.37045-3.1072-1.2383-6.1094-2.0196-9.6141-2.4675z"/>
   <path d="m169.42 177.39c2.3852-8.5266 1.4622-13.864 0.0777-14.156-1.7684-0.33805-6.0088 3.6875-9.1572 12.022l-1.3388-0.30569c2.9427-9.1617 8.5448-14.837 11.172-14.215 2.3898 0.55697 3.4362 8.4717 0.42485 17.039z"/>
   <path d="m165.64 176.36c2.9016-6.2098 2.0882-9.678 1.0971-10.139-0.78622-0.37951-2.143-0.0777-3.418 1.3388l1.645-2.408c0.81861-0.37951 1.6724-0.43004 2.3715-0.12961 1.8462 0.81344 2.3899 5.4239-0.55308 11.611z"/>
   <path d="m149.97 165.33c0.0517-4.0714-0.48963-7.5076-1.974-12.58-0.50774-1.7867-0.0647-1.9649 0.63469-0.19688 1.91 4.8755 2.2847 8.851 1.9648 12.785-0.15025 1.9512-0.64892 1.9877-0.62561-9e-3"/>
   <path d="m154.62 167.8c2.0425-6.3332 2.239-12.52 0.8225-19.772-0.32381-1.6039 0.1645-1.709 0.61267-0.15543 2.1202 7.5258 1.5262 14.046-0.82768 20.119-0.68132 1.7318-1.2111 1.6266-0.60749-0.1917"/>
   <path d="m158.48 168.01c2.0516-3.3036 3.098-5.7757 4.1125-9.4495 0.46629-1.709 0.86783-1.6039 0.58935 0.15931-0.58935 3.8565-2.0334 6.749-4.1309 9.6323-1.1243 1.5627-1.6586 1.38-0.57121-0.34324"/>
   <path d="m89.444 160.41c-1.202-2.143-2.5405-5.1223-3.5321-8.1884l1.8185 0.86395c0.83157 2.5315 1.9557 5.1497 3.6327 8.1427z"/>
   <path d="m101.72 157.81c6.7445-13.155 16.08-20.937 26.781-23.907-4.5328-16.847-19.479-36.884-32.018-49.432-2.3944-2.3807-1.8872-2.9564 0.63986-0.67613 13.521 12.164 28.669 32.932 33.014 50.455 0.1296 0.55697 0 0.79529-0.53494 0.95073-11.291 3.1483-19.269 10.281-27.078 23.075-1.1243 1.8597-1.8415 1.5354-0.80436-0.46631"/>
   <path d="m78.976 91.2c0.44817-10.578 2.4355-20.384 5.9174-21.458 6.2098-1.9695 46.014 24.812 55.742 61.733 0.59841 2.28-0.21502 2.4765-0.90021 0.25128-11.245-36.313-49.331-61.865-54.362-60.316-2.1797 0.67613-4.1947 9.2942-4.5375 20.32z"/>
   <path d="m115.75 106.73c-11.798-11.561-24.579-16.432-25.196-15.765-0.60748 0.67224 6.0087 13.384 14.869 22.299 1.8506 1.869 1.2059 2.3715-0.67613 0.658-8.7824-8.097-17.076-22.701-15.422-24.159 1.613-1.4073 12.58 2.8377 23.268 12.168z"/>
   <path d="m102.74 111.46c-5.6112-3.683-11.949-4.944-12.593-4.2403-0.87301 0.95461 4.053 11.661 14.782 21.892 2.015 1.9237 1.3708 2.4264-0.66318 0.68131-10.852-9.2577-17.236-21.705-15.522-23.647 1.2797-1.4073 7.3567 0.13217 12.05 2.7554z"/>
   <path d="m58.811 77.175c1.5902-0.07773 6.2967 10.044 19.635 13.123 5.3234 1.2331 9.9477 2.8879 13.206 5.2594l1.2564 2.2618c-4.5968-3.3356-8.6499-4.711-14.759-6.0727-13.059-2.9107-18.529-12.516-19.022-12.452-0.52978 0.09059-6.9136 19.722 12.516 39.516 2.0929 2.102 1.4349 2.6047-0.66188 0.66707-21.289-19.781-13.978-42.176-12.168-42.304"/>
   <path d="m102.28 157.78c-35.221-2.8787-52.548-46.69-45.374-72.503l0.23314 6.941c-2.4172 25.959 14.755 61.742 45.927 64.237z"/>
   <path d="m172.27 116.86c8.9972-5.5975 21.65-6.7674 22.587-4.4644 0.95462 2.2391-4.3274 8.7184-11.127 12.671-2.3578 1.3708-2.8925 0.79918-0.5168-0.79011 6.7444-4.4644 10.537-10.254 10.135-11.053-0.52977-0.95461-12.232-0.74089-22.646 5.9402z"/>
   <path d="m187.08 122.01c3.9022-1.1334 7.4024-0.6852 7.9737 0.55307 1.2525 2.7874-6.909 11.378-15.454 14.526-2.3534 0.83674-2.824 0.21501-0.31994-0.90021 8.4397-3.7652 14.796-11.542 14.142-12.986-0.30569-0.67613-4.309-1.0738-9.2211 0.99606z"/>
   <path d="m208.01 111.99c1.5445 0.27848 7.7361 21.801-14.613 30.569-2.3532 0.93648-2.8193 0.2422-0.33417-0.86783 20.293-9.0017 14.649-27.554 14.33-27.595-0.69945-0.0906-6.5709 5.2365-18.57 6.5342l1.4622-1.4485c10.176-1.348 16.788-7.3339 17.725-7.1922"/>
   <path d="m209.26 123.11c-0.84971 26.333-17.578 42.729-35.536 43.798l-0.0907-1.389c16.966-1.4257 30.56-15.765 33.508-36.359z"/>
   <path d="m72.211 219.06c3.6282-4.7294 11.469-6.6714 18.643-4.9259 7.3339 1.8004 16.706-2.4948 19.16-11.158l1.4668 0.50776c-2.2663 8.7915-12.228 14.27-20.928 12.118-6.9957-1.7088-14.316 0.38858-17.492 4.8254z"/>
   <path d="m126.64 208.06c0.55308 5.9128 0.66318 14.097 0.7409 18.648 0.0519 2.4402 3.5275 6.6805 5.7117 8.0742 0.92741 0.55308 1.2059 0.65281 2.6593 0.34325 5.0539-1.0375 10.711-3.6235 14.065-2.8147 7.0004 1.7043 10.204 8.0604 8.5084 10.944-1.2344 2.0974-6.0454 2.2619-9.9249-0.97274-1.0012-0.83674-1.8095-0.95461-2.7142-0.70332-5.4878 1.5765-8.8692 3.025-13.361 5.3188-1.8689 0.96367-3.2945 1.0051-5.273 0.51163-1.8095-0.41579-3.9892-1.38-5.9449-2.4127-1.677-0.85489-3.3265-1.7135-4.935-2.2208l1.224-1.0828c1.3388 0.43909 2.7781 1.1062 4.3912 1.9145 1.9236 0.97793 3.8793 1.974 5.5746 2.3807 1.8095 0.42485 2.696 0.51163 4.4735-0.38858 4.3912-2.1385 7.896-3.5322 13.512-5.2274 1.5445-0.46111 2.44-0.1917 3.7468 0.90021 2.7417 2.2846 7.0689 2.7736 7.9966 1.193 1.2746-2.1568-2.0517-7.3659-7.6127-8.7322-3.0295-0.7409-8.6134 1.6724-13.489 2.6914-1.7364 0.3523-2.3259 0.25128-3.5733-0.51682-2.0472-1.2746-6.4247-5.5015-6.4977-9.1433-0.0647-4.5237-0.16967-13.457-0.67613-18.904z"/>
   <path d="m122.49 234.14c0.8497-1.4029 1.3297-2.4767 1.7135-4.0897 0.36139-1.4897 0.8497-1.3434 0.6852 0.14637-0.21501 1.8232-0.83674 3.226-1.7638 4.286-1.0466 1.2059-1.5262 1.079-0.63469-0.34325"/>
   <path d="m87.517 242.17c5.6386 0.63467 10.861 4.3684 17.798 4.0714 5.2274-0.20076 9.7512-2.7005 13.864-7.1146 1.3434-1.4348 1.8917-0.96886 0.72664 0.59453-3.692 4.9076-9.0657 7.6309-14.549 7.9417-6.5982 0.59453-12.762-3.1803-18.666-4.044z"/>
   <path d="m91.613 261.95c-2.0151-10.729-1.0194-13.699 2.5452-16.066l-0.29662 1.8643c-2.0609 1.8323-2.4355 3.9708-1.6952 10.578z"/>
   <path d="m91.167 268.58c-4.6197-0.99605-8.5814-10.29-12.191-18.977l1.2525-0.57639c3.3082 7.9874 6.9592 17.144 10.999 18.383z"/>
   <path d="m63.304 241.33c-5.4514 5.6752-8.819 10.907-11.702 18.351-1.1243 2.8559-0.59452 5.7986 1.2977 6.219 0.92741 0.21501 2.175-0.48444 3.322-3.258 1.91-4.615 4.8985-8.2569 8.161-10.615 0.95979-0.69426 1.6632-1.0051 2.9107-1.0051 15.33-0.13732 22.344-7.302 22.98-22.893 0.1036-2.4628 0.93648-2.4308 0.93648 0.0389 0.12946 16.61-7.6537 23.871-23.916 24.012-0.89115 0-1.4622 0.27849-2.2938 0.87689-3.1392 2.271-5.8444 5.657-7.7177 10.117-1.6131 3.9114-3.3906 4.4323-4.7522 4.1673-2.3716-0.48832-3.8155-3.4818-2.0929-8.1198 2.8194-7.5807 6.548-13.306 12.214-19.16z"/>
   <path d="m67.633 234.78c-6.8723-11.081-7.6583-29.93-4.7705-30.469 2.2892-0.43909 9.5867 15.86 16.24 23.852 1.613 1.8963 0.98182 2.472-0.69945 0.61265-6.7902-7.567-14.142-22.865-15.225-22.687-0.59454 0.0906-1.782 15.381 5.2777 28.225 1.1696 2.1521 0.42485 2.4766-0.82249 0.46629"/>
   <path d="m63.625 223.71c-1.4622-2.7234-3.4819-5.7117-3.7562-5.6707-0.95073 0.17876-1.1657 14.014 4.4095 23.98 0.96886 1.7044 0.17356 2.1157-0.82768 0.47536-6.0453-10.048-6.4475-25.726-3.8977-26.133 0.67224-0.1166 1.8644 1.2707 3.258 3.5322z"/>
   <path d="m60.868 235.27c-21.591 3.7561-40.042-15.646-38.954-41.984 0.44298-11.821 0.78623-16.103-1.7408-26.58-0.88597-3.596 1.0414-4.4415 3.7743-2.335 5.9951 4.67 18.301 8.7368 30.346 7.6721 23.606-2.1202 42.624 24.36 31.314 42.199l-1.5215 0.0907c10.852-17.145-7.4664-42.82-29.688-40.915-12.273 1.0608-24.853-3.0203-31.173-8.0695-1.9283-1.5353-2.4355-1.0194-1.8825 1.11 2.7736 10.464 2.5177 14.983 2.079 26.896-0.87689 23.45 14.896 42.825 37.044 40.558z"/>
   <path d="m46.472 172.66c2.8377 1.1424 5.2732 3.1483 5.0401 4.3043-0.36526 1.581-8.3346 2.3944-14.33 1.444 2.7553 4.2724 6.0407 11.734 4.4095 12.822-1.38 0.92742-7.6584-2.2023-12.018-6.548 0.75385 6.2876-0.55697 11.597-2.3213 11.78-1.2888 0.1166-3.3905-2.6182-4.4689-6.0225l0.1645-3.7012c1.088 4.702 3.3952 7.8869 4.1217 7.8184 0.75385-0.0906 2.0973-4.1764 1.2655-11.117-0.15025-1.1515 0.29662-1.3115 1.1282-0.4663 4.6013 4.7979 10.281 7.3522 10.939 6.7582 0.63469-0.53883-1.2745-6.2463-4.67-11.593-0.54402-0.85489-0.2461-1.101 0.63468-0.9598 6.5342 1.079 13.05 0 13.297-0.69038 0.13218-0.38339-2.3899-2.4492-6.5252-4.0256z"/>
  </g>
  <path d="m113.52 233.94c-1.1476 4.1307-2.9747 8.0147-5.5839 12.109-3.0066 4.8253-7.2013 14.791-9.815 23.733-0.31994 1.0919-0.29662 1.5034 0.02586 2.5772 0.90927 2.769 0.14118 5.6432-2.2755 6.1367-1.7775 0.39247-4.574-0.74478-4.7202-6.7215-0.19169-8.5449 2.8559-26.996 5.9037-37.542 1.215-4.1992 17.588-4.4003 16.464-0.29273" fill="#ffe55f"/>
  <path d="m96.763 235.44c-1.6495 13.365-4.213 28.033-3.788 37.149 0.21501 4.3135 3.5367 5.6112 5.465 2.4402-1.0375 5.7391-6.4063 3.5823-7.0003-0.22409-0.99607-6.5709 1.7638-29.075 5.3233-39.366" fill="#ddc653"/>
  <path d="m90.551 271.83c-0.16968-8.8144 2.3166-25.584 5.7071-36.528 0.63986-2.0653 1.4852-1.8185 0.87302 0.24741-3.0204 10.898-5.5976 27.928-5.3919 36.226 0.1036 4.8115 2.1842 6.4383 4.0348 6.0315 2.1202-0.43002 2.6045-2.7508 1.8003-5.2548-0.3562-1.1696-0.4119-1.7502-0.06473-2.929 2.7965-9.1937 6.813-18.954 9.943-23.903 2.4995-3.9389 3.8383-6.7674 5.1772-10.816 0.69427-2.0973 1.4988-1.8415 0.88596 0.29273-1.2292 4.277-2.4812 6.8312-5.1177 11.186-2.8925 4.7842-7.1374 14.75-9.6826 23.523-0.2746 0.88208-0.26035 1.215 0.09059 2.2938 1.1657 3.6374-0.45723 6.4886-2.8148 6.9867-2.2663 0.47536-5.3005-1.1839-5.4421-7.3567" fill="#0f141b"/>
 </g>
</svg>
