<?xml version="1.0" encoding="UTF-8"?>
<!-- Created with Inkscape (http://www.inkscape.org/) -->
<svg version="1.1" viewBox="0 0 254.75 331.04" xmlns="http://www.w3.org/2000/svg">
 <g transform="translate(11.217 22.102)">
  <g>
   <path d="m215.32 235.33c-2.5681-1.866-12.027 11.563-21.688 15.909 17.779-17.696 23.428-51.298 17.423-53.398-3.1178-1.0828-10.751 14.681-24.023 27.372-13.687-14.28-32.12-13.247-45.617-4.0381-3.3938 2.3429-6.0853 2.1057-8.3797-0.70095-2.7449-3.2896-4.1486-5.9854-5.9437-9.8674-1.9802-4.1084-21.879-5.226-23.091 0.18176-1.3655 5.7756-3.7758 9.9572-6.6338 14.318-4.7699 7.134-12.354 27.304-13.493 35.883-1.1556 8.5406 0.13062 31.462 2.7241 39.231 1.3878 4.123 3.1921 5.7986 7.909 5.6928 3.3378-0.13342 6.9953-0.57654 11.229-1.4975 5.4955 3.455 15.608 4.4627 17.275-0.72535 4.7271 1.464 10.428 0.1276 13.242-6.5558 0.62743-1.5512 1.2608-3.1137 1.8904-4.7881 2.42-0.38445 4.5922-0.99196 6.6439-1.6583-0.42262 1.0415-0.5039 2.0545-0.25927 2.9528 0.90059 3.6084 9.6272 6.6704 26.299 0.23465 3.654-1.4388 5.3582-3.9105 4.7955-6.5712 21.403-5.7775 44.186-48.676 39.691-51.977" fill="#ffe55f"/>
   <path d="m143.16 80.591c-9.8902-22.569-24.799-48.18-39.551-68.533-0.3389-3.9347-0.57243-7.7208-0.63857-9.6892-12.77-16.716-24.291-22.929-26.412-22.335-2.8933 0.7619-9.8182 25.872-9.8983 44.393-24.521-22.32-48.075-36.328-54.776-34.392-6.7365 1.9056-16.554 102.18 23.141 163.32l36.295 12.228 107.74-22.169 7.3988-18.723c-7.0011-20.504-22.995-36.883-43.319-44.1" fill="#ffe55f"/>
   <path d="m216.93 128.87c2.0675-6.57-0.82418-8.1474-7.012-8.499-6.842-0.3781-15.486-0.29289-24.906 1.6474-6.1461 2.6034-16.073 5.9335-28.027 9.2758-11.064-18.018-27.873-23.785-35.476-18.776-6.3427 4.2198-10.26 17.995-5.5395 28.809-23.031 4.7711-47.351 8.5189-66.482 8.9266-11.721 3.8566-29.133 5.4937-44.007-2.1381 0.17933 6.4197 3.4562 12.155 8.6315 17.134 14.692 27.741 55.602 52.194 90.383 45.459 5.7324-1.0828 14.937 0.32346 21.292 0.10593 51.36-1.9079 84.016-59.043 91.143-81.944" fill="#fff"/>
  </g>
  <g fill="#ea5520">
   <path d="m136.8 114.8c-4.3597 1.5049-7.653 8.293-3.3342 21.894 4.6001 14.45 12.065 18.884 16.249 17.55 4.6586-1.5492 8.1978-9.0689 3.0078-24.009-4.5424-13.132-11.96-16.854-15.922-15.436"/>
   <path d="m98.965 83.094c-7.1329-12.716-16.24-25.179-26.44-36.63-16.802-10.869-40.172-17.887-41.539-14.926-0.51533 1.1321 2.8811 6.9617 8.4578 13.562-27.601-16.525-35.556-34.575-39.168-35.223-2.953-0.46097-4.8628 7.7624-3.9608 19.526-17.059 43.185 6.743 105.27 53.515 117.46 4.7389-35.84 26.091-57.866 49.135-63.769"/>
   <path d="m134.17 17.636c-5.9179-8.0875-13.256-13.786-20.807-17.952-3.9151-8.0771-7.8478-12.116-8.9575-11.98-2.7206 0.30278-2.6321 13.515 0.0266 25.94 15.41 20.916 30.452 47.937 38.689 66.708 6.1605 2.3166 11.335 4.9433 16.613 8.3477 4.2488-23.068-5.1637-50.183-25.565-71.063"/>
  </g>
  <g>
   <path d="m209.9 120.38c-2.5653-0.15839-5.4169-0.21847-8.4564-0.16101-2.9544 1.6392-3.3727 5.5266 0.50241 11.313 4.2698 6.5039 8.0582 9.1611 10.764 8.1416 1.8364-4.0501 3.2107-7.7048 4.1937-10.796 2.0675-6.57-0.8241-8.1474-7.0115-8.4988" fill="#595757"/>
   <path d="m239.16 172.3c-0.27703 9.313-1.9877 15.244-3.144 15.424-1.388 0.28429-7.2038-7.1476-10.984-19.995-5.4553 10.637-14.689 15.951-16.235 15.274-1.8236-0.82015-2.9166-9.977 4.8e-4 -21.6-3.9981 2.6039-7.973 3.6381-11.5 4.3189-13.784 19.009-33.999 38.142-55.792 42.604 1.2783 3.8311 1.9641 6.7114 3.6436 10.061 15.958-7.3518 32.298-3.7821 41.878 6.8358 10.763-8.8308 20.072-28.417 24.029-27.386 4.6115 1.1832 4.8903 26.41-16.718 52.905 7.036-3.1219 18.236-16.56 20.977-15.403 1.8266 0.77649 1.0708 4.7159-2.391 11.695 24.817-13.975 33.724-44.551 26.239-74.733" fill="#ffe55f"/>
   <path d="m208.8 161.4c-2.9151 11.624-1.817 20.759-3.8e-4 21.6 1.548 0.67175 10.787-4.6502 16.236-15.274 3.7863 12.832 9.6029 20.265 10.984 19.995 1.1572-0.18295 2.8722-6.1254 3.144-15.424-0.71283-2.8928-1.5573-5.7688-2.587-8.6683-6.5559-18.534-4.3614-29.624-5.7422-30.364-1.5185-0.75019-7.4088 5.6674-20.547 10.982-3.1263 6.5038-7.5481 13.974-12.988 21.473 3.5256-0.68084 7.502-1.7141 11.5-4.319" fill="#ea5520"/>
   <path d="m99.029 223.05c10.527 7.0087 26.467 4.9592 33.714-3.3449-2.2759-2.643-4.2271-5.9028-5.9358-11.57l-22.142-0.86807c-0.94249 6.2823-2.2645 9.893-5.6233 15.788" fill="#ddc653"/>
   <path d="m136.16 117.8c-1.3138 0.21816-2.5466 2.5674-1.7662 6.162 0.86208 3.9253 2.6072 5.5472 4.206 5.2454 1.7211-0.25308 2.5715-3.0149 1.7134-6.4505-0.84138-3.3487-2.7238-5.1943-4.154-4.9617" fill="#fff"/>
   <path d="m71.277 44.787c-17.654-18.395-49.697-42.643-52.378-41.817-1.7601 0.47584-4.1159 15.817-3.6426 23.47 7.4479 6.7512 13.306 12.225 23.651 17.995-4.4697-5.1744-8.4736-11.545-8.0431-12.9 0.61355-1.87 13.714-0.3734 40.413 13.253" fill="#ddc653"/>
   <path d="m86.955-9.4659c5.8031 3.2258 9.9562 6.0058 15.664 10.029 0.39392 3.3238 0.60233 7.6058 1.0852 11.233-5.3075-7.3998-11.217-14.71-16.749-21.263" fill="#ddc653"/>
   <path d="m-9.2624 58.326c9.031 30.4 38.315 52.742 67.421 60.81-4.3889 9.0632-7.1485 18.296-8.3455 27.232-37.885-8.9681-60.417-52.251-59.077-88.042" fill="#cb4819"/>
   <path d="m25.329 134.73c3.4929 8.1078 5.6377 12.153 9.8127 18.448 5.9527-0.95515 9.7194-1.5598 14.003-2.8244l0.64255-3.4716c-8.6826-2.5841-17.104-6.7453-24.457-12.153" fill="#ddc653"/>
  </g>
  <g fill="#cb4819">
   <path d="m-0.1585 9.9661c-2.0923 15.82 5.2876 43.213 14.847 57.584 2.7295 4.0452-0.96943 7.283-3.6449 5.2024-17.028-24.764-17.059-61.071-11.201-62.787"/>
   <path d="m35.888 54.941c8.8806 9.2016 20.214 17.635 30.425 23.513 3.696 2.1468 3.1964 6.2901-0.59016 5.9408-14.759-7.7312-32.585-25.668-29.834-29.453"/>
   <path d="m31.73 30.996c6.2835 7.9563 20.75 21.297 33.45 29.122 3.0685 1.9287 2.0864 6.8049-1.4696 6.0522-18.116-11.282-35.173-32.82-31.981-35.174"/>
   <path d="m152.14 43.624c3.8216 15.974 1.8675 30.582-1.5266 39.608 2.8676 1.665 5.6538 3.201 8.6699 5.3922 3.3828-9.4725 1.0049-29.692-7.1428-45.002"/>
   <path d="m114.5 1.3291c12.309 10.127 22.208 26.032 27.27 47.197 0.84233 3.4297 4.6321 3.9858 5.1022 0.59277-5.739-24.912-18.231-42.534-32.372-47.789"/>
   <path d="m123.01 12.918c5.5294 13.029 7.9743 29.386 7.7412 40.217-0.0927 3.7724 3.3506 6.3007 4.8476 3.1173 0.79671-23.339-8.3568-42.614-12.589-43.336"/>
   <path d="m103.82-12.13c5.6562 8.8263 11.673 28.249 12.701 40.976 0.25317 3.3649 4.7302 4.9857 5.2872 1.1506-3.034-26.011-14.467-43.679-17.989-42.127"/>
  </g>
  <path d="m14.897 151.79c5.2673 11.92 27.699 27.608 43.357 31.267-29.433-3.8785-50.944-16.93-53.11-34.618 3.2282 1.6708 6.7407 2.5796 9.7517 3.3534" fill="#dcdddd"/>
  <path d="m34.797 177.85c22.306 28.503 101.16 39.271 143.17 8.8661-17.21 16.061-33.187 23.753-52.203 24.108-6.4147 0.0827-15.653-1.0666-21.292-0.10593-38.041 6.6161-73.855-15.084-88.713-43.266 6.9327 4.8016 10.889 6.5896 19.035 10.396" fill="#dcdddd"/>
  <g fill="#ddc653">
   <path d="m97.378 258.04c7.2139 14.137 18.948 14.994 27.146 1.9751-2.1851 8.1221-4.6199 18.504-5.9461 23.71-5.6871-2.2729-11.285-4.2755-16.204-5.735-2.938-7.4408-4.2623-13.122-4.9898-19.969"/>
   <path d="m87.431 251.65c-1.1292 11.031-0.80901 20.221 1.7731 30.626-1.4532 1.9349-3.3725 5.5262-4.3033 8.6685-2.0523-18.327-1.8725-29.225 2.5296-39.295"/>
   <path d="m122.06 300.01c-1.3994 4.1983-17.916 1.59-19.388-5.8394-5.9217 4.7418-13.007 4.4634-17.731-1.4212 1.2271 5.9443 2.9812 11.36 5.1232 12.387 2.0846 1.0078 10.089 0.39873 15.289-0.82379 11.988 6.4832 19.23 2.0164 16.708-4.304"/>
   <path d="m90.781 282.29c-3.5191 9.3584 7.7556 12.571 14.095 6.8499-3.0158 6.2927-7.7742 10.002-14.717 7.2021-5.412-2.08-4.6495-9.9491 0.62192-14.05"/>
   <path d="m106.47 287.98c2.322 1.0075 7.2605 3.0885 10.557 4.8702-6.1959-1.004-11.009-0.72663-13.817 0.14513 1.7026-1.5859 2.4067-3.0769 3.261-5.0153"/>
   <path d="m121.09 295.51c4.7754 1.8406 10.616-0.41528 13.604-5.2502 3.568-5.8795 6.1862-14.439 8.4332-24.023 2.1093 5.9446-3.0948 22.854-7.6231 32.291-2.4959 5.2556-7.1642 6.7395-12.491 5.1471 0.79049-2.5784 0.12549-5.42-1.923-8.1651"/>
   <path d="m144.29 273.21c-1.4522 5.5056-4.0205 13.42-6.1736 18.978l6.1489-1.1815c0.75257-1.4057 2.8928-4.0004 4.8246-4.8856-2.0029-4.417-3.7674-8.7641-4.799-12.912"/>
   <path d="m138.57 242.2c2.3678 3.5778 5.7752 3.2153 7.6131 0.05-1.4436 4.4348-2.2866 9.1424-2.9111 14.674-1.4098-5.7442-3.0223-11.376-4.702-14.725"/>
   <path d="m144.3 255.78c9.4575 16.449 55.772 16.405 70.74-20.376 3.2023 4.2992-17.6 46.805-42.824 52.995-1.4128-5.2719-16.566-5.1094-23.133-2.2678-2.382-5.8102-4.3072-10.942-4.65-14.99 0.5798-2.3753 0.49892-8.0924-0.51137-10.574z"/>
   <path d="m149.09 286.13c-0.30889 5.1929 14.193 6.7569 22.325 2.106l4.1791-0.94129c1.4395 4.6172-5.0336 7.335-14.726 9.284-9.9365 1.9681-15.488 0.25936-15.965-3.2217-0.49348-3.3926 1.3789-5.5964 4.1867-7.2266"/>
   <path d="m210.47 198.24c0.52088 11.557-7.658 39.988-23.1 48.909-3.1136 1.8481-2.4455 5.6695 0.45197 6.064 2.6413-0.55655 4.3294-1.0908 6.1955-2.1897 17.588-17.483 23.516-51.233 16.453-52.783"/>
   <path d="m195.12 250.23c7.4343-3.2561 17.173-16.043 19.92-14.82 1.4106 0.62007 0.40113 5.3654-1.7636 10.872 12.77-6.4798 25.69-23.443 27.143-40.373-8.8949 8.3164-19.016 11.953-28.939 12.456-3.1824 10.56-7.9391 22.375-16.359 31.866"/>
   <path d="m166.6 197.07c4.7549 8.0296 15.58 15.924 28.491 19.451-2.6996 3.1414-4.9149 5.6736-8.0157 8.3319-15.941-13.579-32.289-11.873-41.827-6.0897-2.0318-3.971-2.9867-6.8903-3.6035-10.125 9.9203-3.1433 17.814-7.032 24.955-11.569"/>
  </g>
  <g fill="#0f141b">
   <path d="m143.36 124.82c-0.63021 0.21094-0.45139 3.2612 1.0393 8.6234 1.493 5.5704 3.0701 8.3913 3.6555 8.2638 0.72831-0.17403 0.82888-3.4194-0.85581-9.0282-1.5606-5.057-3.2418-8.0608-3.839-7.859"/>
   <path d="m156.46 178.36c-2.2637-2.5084-1.2017-3.7843 1.1593-1.3198 3.9114 4.0956 8.8715 5.7368 13.802 5.1901 3.5079-0.41882 4.0101 0.88982 0.60451 1.5845-6.0769 1.1593-11.535-0.92442-15.569-5.4512"/>
   <path d="m121.64 150.67c-14.818-10.723-11.008-33.924-1.7118-40.241 8.1252-5.5561 27.367 0.96826 37.154 18.854 3.5808 6.6555 2.2435 7.4803-2.1499 1.3101-10.351-14.495-25.09-20.511-32.124-15.842-7.2002 4.7349-11.088 23.388 0.36577 33.905 5.3698 5.0068 4.6037 6.4557-1.5332 2.0168"/>
   <path d="m137.22 116.04c-3.2984 1.1605-6.1761 7.3004-2.1056 19.971 4.4878 14.076 11.235 17.941 14.236 16.935 3.3401-1.0686 6.9114-6.9447 1.716-22.045-4.6753-13.451-11.49-15.666-13.847-14.862m-5.3566 21.261c-4.6519-14.69-0.24481-22.167 4.5612-23.851 4.5938-1.5916 13.006 2.2213 17.822 16.308 5.0469 14.397 2.2752 23.657-4.1124 25.727-5.1073 1.73-13.603-3.5338-18.27-18.184"/>
   <path d="m3.7553 148.52c-0.077096-2.6538 0.48677-2.7239 3.109-1.5497 17.393 8.1212 34.288 4.0764 40.702 2.064 3.5912-33.46 22.097-59.241 48.599-67.051-15.138-26.345-38.004-50.839-62.522-68.67-5.7071-4.1526-4.5821-5.6736 1.3511-1.8301 25.273 16.788 49.997 43.277 65.297 70.409 1.0652 1.7891 0.80157 2.3707-1.038 2.8794-26.121 7.6538-44.157 32.379-48.064 65.167-0.11043 1.1275-0.46744 1.4815-1.6485 1.9064-7.3006 2.5638-25.626 6.5441-42.048-0.87895 2.3112 15.074 27.05 27.948 49.948 31.723 6.7337 1.045 6.6054 2.9407-0.16344 2.2452-22.427-2.3816-52.728-15.465-53.524-36.418"/>
   <path d="m18.366 168.7c15.609 23.709 50.911 45.216 85.887 40.781 6.2825-0.78188 6.6352 1.1379 0.45058 2.4941-36.913 8.1149-82.56-19.542-94.495-50.292z"/>
   <path d="m184.91 120.61c8.1805-1.7115 17.141-2.261 25.187-1.8899 8.2193 0.49737 10.586 3.5328 8.3913 10.756-8.6704 28.311-43.396 81.664-92.655 82.604-6.9594 0.10183-7.568-1.9769-0.13018-2.5125 49.992-3.7342 81.738-57.103 89.568-81.158 1.5089-4.4891 0.37402-6.1166-5.5322-6.425-5.0305-0.27912-15.899 0.1366-23.973 1.6041z"/>
   <path d="m212.15 141.16c-2.5597 0.88735-6.878-1.5427-11.527-8.6791-4.5033-6.7655-3.1823-10.741-1.4235-12.308l4.2174 0.63629c-3.3541 0.80806-3.5975 4.7307-0.11788 10.021 4.5846 6.9698 7.8722 8.2692 9.5097 7.2757z"/>
   <path d="m183.92 122.11c-11.003-24.316-31.092-40.355-56.822-43.868-5.9083-0.80186-5.6624-3.0116 0.25646-2.5283 27.258 2.3493 49.32 19.066 59.08 45.301 2.5333 6.878 0.36172 7.4835-2.5118 1.0935"/>
   <path d="m175.77 118.98c-3.8944-8.2587-13.649-18.832-20.938-23.991-4.6939-3.3596-4.1065-4.3749 0.84957-1.3065 8.0948 4.9878 17.943 15.232 21.594 24.727 1.6404 4.2494 0.35225 4.3518-1.509 0.57028"/>
   <path d="m167.01 118.99c-6.0182-6.0568-12.142-10.95-20.011-15.742-4.3904-2.5691-3.7673-3.8488 0.7251-1.4518 8.0491 4.1017 14.995 9.4953 20.3 16.15 2.8797 3.515 1.7893 4.1038-1.0108 1.0442"/>
   <path d="m4.4528 13.954c1.3381-15.077 4.0285-25 6.7816-25.813 12.988-3.9489 71.343 38.615 101.61 88.584 4.1416 6.8032 2.3798 7.8316-2.0271 1.1503-31.954-48.691-88.917-88.566-98.221-86.013-1.4513 0.41726-3.4986 10.567-4.355 26.204z"/>
   <path d="m27.592 136.38c2.6797 5.7322 5.6365 11.316 9.0245 16.635l-3.3936 0.44837c-4.5913-6.9092-8.5195-14.406-11.905-22.253z"/>
   <path d="m75.899 50.478c-15.643-11.808-42.383-19.57-43.052-17.877-0.57287 1.2851 12.212 19.714 27.383 29.922 5.5456 3.7426 4.8222 5.5399-1.1937 1.9833-15.472-9.0252-31.613-30.185-29.913-33.907 1.7295-3.8847 24.339 2.6738 40.393 12.17z"/>
   <path d="m58.131 63.978c-11.954-6.6586-20.756-8.253-21.076-7.6564-0.51111 0.88279 10.276 15.367 24.087 24.021 6.9666 4.3754 6.4208 6.0783-1.1833 1.9558-14.851-8.1152-29.095-25.62-27.342-28.642 1.3373-2.3413 12.144 0.52205 19.552 4.1452z"/>
   <path d="m42.241 48.559c-29.125-15.456-39.337-36.203-42.138-36.608-3.1493-0.53477-5.8251 28.811 9.1197 55.462 3.8455 6.8343 1.9131 7.3085-1.9651 0.9855-16.775-26.992-14.799-61.833-6.8312-60.496 3.8077 0.59423 14.901 20.883 36.42 33.747z"/>
   <path d="m-3.2121 33.23c-13.891 41.563 9.4596 100.15 53.242 112.17l-0.2971 2.9699c-47.986-11.645-74.773-76.848-53.647-123.95z"/>
   <path d="m103.16 5.3358c-13.017-16.903-24.075-23.59-26.104-23.278-1.9414 0.32701-8.6786 25.605-8.6722 43.905l-3.6374-3.3116c0.41393-17.321 6.8149-43.546 11.057-44.7 2.8555-0.74469 15.038 6.273 26.81 21.063z"/>
   <path d="m141.17 79.841c-12.784-28.825-33.806-62.675-52.133-84.451-4.8718-5.8273-3.1372-7.1207 1.8492-1.3919 19.2 21.804 41.102 56.808 54.311 87.23z"/>
   <path d="m102.49 10.756c-2.3818-13.205-1.7326-24.511 1.4889-24.927 3.5025-0.45217 14.685 14.987 18.257 39.605 0.9283 6.2744-1.1868 6.3485-2.1863 0.34689-3.9009-23.62-13.922-36.553-15.384-36.155-0.86036 0.22741-1.7752 12.416 1.3297 25.165z"/>
   <path d="m119.24 16.873c0.73281-4.2595 1.9891-6.5045 3.7852-6.5404 4.1537 0.04346 14.982 20.329 13.879 42.131-0.27701 5.4894-2.4279 5.2655-2.3105-0.15665 0.24618-19.564-9.4214-37.894-11.41-37.899-0.58781 0.0029-1.8419 3.6834-1.9989 9.1869z"/>
   <path d="m112.6-2.4741c18.997 9.8624 29.75 25.013 34.214 46.38 1.4486 7.1182-0.50824 7.1882-2.2791 0.3434-4.9336-18.857-14.318-33.4-30.187-42.337z"/>
   <path d="m158.35 88.085c3.3568-21.239-4.1877-43.953-19.748-63.125l-7.526-12.469c23.494 21.396 35.27 51.723 29.905 77.421z"/>
   <path d="m107.97 305.39c-5.2855 1.2822-9.2872 1.8804-13.512 1.9824-5.2607 0.12254-7.6332-1.2579-9.3847-6.642-2.6691-7.8616-4.3043-31.372-3.1364-40.067 1.1915-8.9693 8.2841-27.998 13.915-36.53 2.7108-4.1002 4.9573-7.6325 6.296-13.086l3.7288-0.54175c-1.5442 6.7986-4.4488 11.473-7.1 15.439-4.6887 7.1327-11.981 26.86-13.102 35.319-1.1467 8.4334-0.1892 30.884 2.3485 38.506 1.3356 3.9287 2.512 4.707 6.4725 4.5973 3.2347-0.10946 6.2321-0.43798 9.8559-1.2084z"/>
   <path d="m104.52 291.25c12.675-2.7393 22.377 5.6644 20.11 12.998-2.1096 7.0755-14.115 5.0577-19.716 1.0396-4.8025-3.4497-3.8675-5.0107 1.2343-1.9367 5.6608 3.3918 14.063 3.3619 15.193-0.27541 1.6174-5.254-7.4322-12.212-18.823-8.3096z"/>
   <path d="m86.596 296.18c-5.9421-6.0909 1.1978-23.188 16.083-19.408 7.6024 1.9271 14.829 4.77 22.128 9.2704 4.7358 2.8692 3.8132 4.6095-1.1108 2.001-7.3177-3.9028-14.217-6.5645-21.757-8.4501-10.166-2.5908-16.771 10.142-12.89 14.193 3.2228 3.2812 10.938 2.9752 14.987-3.8451 2.0622-3.5066 3.8528-2.5152 1.9706 1.1441-4.6802 9.2539-14.83 9.8142-19.425 5.0994"/>
   <path d="m100.69 278.09c-3.4226-8.9664-5.241-16.318-5.9025-23.045-0.63082-6.6365 1.2552-6.7805 2.3193-0.24763 1.06 6.9721 3.4975 14.525 7.2726 24.067z"/>
   <path d="m117.24 283.41c1.7001-6.5819 5.58-20.593 9.5098-29.78 2.4037-5.5586 4.155-4.9157 2.1466 0.80719-3.357 9.4036-7.0425 23.85-8.6853 30.28z"/>
   <path d="m123.52 302.25c3.9225 1.2062 8.9317 0.45166 11.356-5.7007 3.8188-9.7989 7.3495-21.808 7.8161-27.051 0.46153-4.551-0.8803-13.921-4.6277-24.083-2.2866-6.232-0.76075-6.9223 2.1226-0.93974 4.3177 9.1923 6.5054 20.476 6.0199 25.381-0.59092 6.1932-4.6043 18.51-8.6345 27.834-3.7333 8.6297-10.249 8.9761-15.154 7.3529z"/>
   <path d="m177.06 287.02c0.69538 3.1057-1.137 6.4304-5.6662 8.1717-17.14 6.6699-27.391 3.7161-28.565-1.1023-1.5113-6.3198 7.3631-14.328 24.367-10.257 4.7684 1.1436 4.4106 3.1456-0.40443 2.2666-16.029-2.8831-21.293 3.8914-20.538 7.0514 0.60471 2.5968 8.3239 5.3875 24.137-0.73654 3.1078-1.2008 4.2643-3.026 3.8678-4.866z"/>
   <path d="m175.08 286.09c21.311-6.2072 41.726-47.641 39.185-48.992-1.4341-0.80799-13.737 14.175-22.844 16.249-4.7214 1.0375-5.286-0.8187-0.71737-2.2137 10.498-3.2102 21.201-20.328 25.633-17.365 6.3884 4.1894-18.702 49.852-40.563 54.841-6.0802 1.3775-7.0631-0.63141-0.69643-2.5193"/>
   <path d="m190.85 251.81c19.662-18.505 23.78-50.676 19.529-51.816-2.3294-0.60716-13.831 21.361-26.561 29.579-5.0312 3.2908-6.1243 2.0418-1.5637-1.7257 16.762-13.733 23.464-34.077 29.507-32.247 7.4567 2.3157 2.6648 35.732-14.853 54.08z"/>
   <path d="m128.78 210.56c1.8152 3.7014 3.0194 5.6699 5.5072 8.6757 1.7716 2.0905 3.2718 2.3053 6.323 0.24561 14.073-9.6084 33.911-10.175 47.799 4.3693l-2.6919 2.6203c-13.3-13.755-30.407-12.634-43.472-3.6899-3.9088 2.7002-7.5292 2.5415-10.565-1.0658-2.8791-3.564-4.4377-6.6459-6.442-11.065z"/>
   <path d="m213.92 244.31c23.532-14.632 32.438-46.93 21.115-80.231-6.3677-18.575-4.314-28.531-5.2204-28.936-0.92694-0.39343-6.3768 5.4397-20.135 10.727l1.57-3.5796c11.616-4.2914 18.008-11.796 20.315-10.533 2.3189 1.2303-0.42946 12.148 6.4562 31.281 13.361 36.912 1.6493 72.848-26.718 86.767z"/>
   <path d="m143.33 219.93c-1.9176-3.3458-3.3791-7.528-3.7929-11.175l4.1664-0.99088c0.39551 3.3557 1.4955 6.946 3.2417 10.289z"/>
   <path d="m240.16 176.74c-0.56319 7.8466-1.8995 12.401-3.9304 12.68-2.4964 0.37364-8.274-7.7888-11.519-18.616-5.6965 9.6462-14.29 15.058-16.808 13.984-2.8233-1.1513-3.3019-10.801-1.0908-20.714-3.679 1.8863-7.0861 2.5817-10.192 3.1517l1.9268-3.1947c3.0096-0.60621 6.264-1.7831 9.3737-3.7909 2.2236-1.3273 2.9243-1.225 2.2061 1.6492-2.8193 11.786-1.5592 18.77-0.58317 19.2 1.1899 0.49229 8.8645-3.6984 14.361-13.987 1.0243-1.8902 1.6827-1.8307 2.3227 0.25528 3.9367 12.809 9.0176 18.417 9.4868 18.389 0.42692-0.0634 2.211-4.3195 2.2422-16.933z"/>
   <path d="m142.32 255.47c1.4798-12.464 7.1052-22.421 14.289-25.519 5.1047-2.1878 5.6613-0.68396 0.7466 1.9694-7.2084 3.9574-12.744 17.376-11.94 32.705z"/>
   <path d="m145.66 267.09c0.49805 6.2389 2.1074 12.549 5.1194 18.406l-2.9977 1.6229c-1.9776-3.6505-3.4811-7.5506-4.4295-11.668z"/>
   <path d="m138.68 290.43c2.4249-0.44531 4.757-0.92999 7.055-1.7858l-1.6137 4.2915c-2.1484 0.71051-4.5182 1.1766-6.7969 1.52z"/>
   <path d="m125.82 212.08c-8.9987 0.44143-16.862-0.66829-21.119-0.10419l-0.4566-2.4784c4.0572-0.70052 12.242 0.76482 21.462 0.0751z"/>
  </g>
 </g>
</svg>
