<?xml version="1.0" encoding="UTF-8"?>
<!-- Created with Inkscape (http://www.inkscape.org/) -->
<svg version="1.1" viewBox="0 0 141.03 174.17" xmlns="http://www.w3.org/2000/svg">
 <g transform="translate(-34.701 -71.789)" stroke-width="2.6168">
  <path d="m131.52 111.2c-0.47101-0.12299-0.93157-0.22765-1.3895-0.31666l-0.43467 1.099c0.68316 0.12298 1.3791 0.28261 2.0934 0.48407z" fill="#0f141b"/>
  <path d="m106.97 210.98-4.5113-12.079c-2.8863-5.3304-1.4157-11.195 0.24849-13.861l12.385-11.035 16.925-4.9274c0.93158-0.0392 9.7344 0.12037 16.2-2.24 2.1065-0.76933 3.0826-0.7798 2.1327 2.0777-1.2063 3.6138-2.7424 9.4309-2.9648 16.109-0.37459 11.205 0.0445 17.42-5.6549 23.925-6.2148 7.0941-18.137 6.4582-20.599 5.6732z" fill="#ffe55f"/>
  <path d="m150.36 168.9c0.95256-2.8575-0.0297-2.847-2.13-2.0777-6.4686 2.3603-15.944 2.1091-16.876 2.151 0 0-0.57561 0.65942-0.75362 0.9054 1.3686 1.3058 3.8597 1.9914 3.8597 1.9914s-2.6507 2.8156-2.3655 3.4175c0.14909 0.3271 3.3625 0.35851 5.3487-0.089-0.70392 1.6381-2.5226 7.1674-1.1671 7.9995 1.6617 1.0153 7.6514-3.9749 7.6514-3.9749 0.0593 5.4324 2.499 8.7976 3.2396 9.4099 0.0593-1.7768 0.15725-1.536 0.22772-3.6242 0.22253-6.678 1.7585-12.495 2.9648-16.109" fill="#ea5520"/>
  <g fill="#ffe55f">
   <path d="m100.61 221.49c4.1737 8.0387 4.1266 17.106 3.2264 19.89-0.89493 2.7816-3.1349 3.1401-4.1999 2.8627-1.0676-0.27476-1.133-0.93942-0.93417-2.1719 0.19656-1.2351 0.65423-2.8706 0.27742-4.37-0.86875-3.4751-2.3655-7.3244-5.7778-9.5617-3.4097-2.2347-5.7282-4.3909-6.4818-7.0758l7.1935-0.76671z"/>
   <path d="m82.687 219.48c-6.3666 10.548-15.515 20.531-19.552 21.599-2.3499 0.61756-4.0822-0.49718-4.6814-1.3843-0.96035-1.4209-0.29596-3.8362 2.9727-4.247 1.5962-1.3032 5.7804-6.1782 7.4787-9.2189 3.9932-7.1516 6.4268-14.625 7.5259-18.862l6.6257 0.63327z"/>
   <path d="m94.437 223.72c-16.949 0.0785-18.223-18.453-18.592-23.75-0.37162-5.3016-0.84782-10.402-2.0855-13.691l5.3487-3.8571 6.8952 4.9222c0.54964 1.6669 4.6029 9.4596 9.1927 10.287 4.336 0.78241 11.535 2.1065 15.996 7.0391 2.1902-0.83998 4.5348-1.973 6.8376-3.5379 4.0298-2.7502 6.1023-4.8541 7.3976-4.2418 1.1121 0.52597-2.049 11.663-11.349 16.012 0 0 4.9641-2.0856 6.89-2.9831 1.9233-0.90017 2.8627-0.55738 2.342 1.1697-0.42948 1.4261-3.1611 4.9195-6.835 7.743 0.58599 1.0205 0.47918 2.9988 0.65126 3.7054 0.51033 2.0699 1.0494 1.8003 2.4153 2.3342 2.1902 0.86615 3.1637 1.6041 4.8253 3.1689 2.1981 2.0699 5.0478 6.0526 6.016 10.396 0.96561 4.3491 0.51033 7.1673-1.8422 7.1045-2.3525-0.0628-2.1274-1.6878-2.4494-3.1375-0.32712-1.4575-1.2037-3.2814-3.4384-6.016-3.4018-4.1633-8.1042-5.893-8.1042-5.893-7.1856 2.2243-13.178 0.49719-18.003-4.2156-0.80073-0.78242-1.5021-1.6407-2.1091-2.5592"/>
   <path d="m85.566 126.09c1.9521-27.154-16.941-53.592-18.699-53.639-1.748-0.04747-12.176 7.7744-16.198 23.708 0 0-3.1951 18.056 2.0934 29.855 5.2911 11.796 32.804 0.0759 32.804 0.0759"/>
  </g>
  <path d="m72.56 125.43c0.79294-4.2313 1.2561-9.5381 1.0101-14.042-3.7865-11.702-14.013-16.726-14.926-16.185-0.57561 0.33757-0.37979 5.5292 1.5387 11.31-8.9363-8.5804-10.99-14.243-12.228-19.191-0.57041-2.2897-1.256-2.1902-2.69-0.38208-0.52591 0.66469-2.0961 3.4751-2.3604 4.0979-10.237 20.272-11.592 40.029 9.8129 54.913l16.52-13.887z" fill="#ea5520"/>
  <path d="m121.65 167.41c1.2848-1.1357 3.844-3.1087 5.1393-4.6003-2.881 0.0628-5.4822-0.2957-8.6275-0.85569 2.656-26.212-14.418-32.733-14.418-32.733-3.2448-4.1057-18.04-9.3-30.823-4.5951-8.8211 2.7973-18.467 9.525-22.551 26.89-0.56744-0.0785-1.1409-0.20149-1.7244-0.39514 0 0 2.1745 12.741 28.91 19.733 26.738 6.992 44.095-3.4437 44.095-3.4437" fill="#ffe55f"/>
  <path d="m61.779 154.56 2.3316 1.1017s8.7295 1.5988 12.532 3.0669c0 0 7.8608-15.34 19.99-10.784 6.2253 2.3315 2.6717 14.395 2.6717 14.395s3.5196 3.9513 12.629 3.8911c9.0854 2.5461 17.844 1.4628 17.844 1.4628 1.6616-0.13607 2.8706 0.0811 1.1147 2.0437-1.6302 1.816-7.2432 6.4032-11.702 8.2428-11.652 7.6148-19.487 10.402-35.494 9.8181 0 0-3.3468-0.13868-7.8764-0.71961-4.527-0.57831-16.119-4.5794-23.13-10.954-5.6888-5.176-9.2372-12.43-9.7998-16.033-1.8605-3.9775-2.4074-10.483-2.3342-11.32 0.14094-1.6355 0.53629-1.9574 2.0437-0.63849 2.3028 2.0123 4.2968 2.3943 6.0421 2.9753 0 0 1.8867 1.7768 5.0059 2.1144 0 0-0.75889-6.6597 2.6534-12.44 3.5667-6.0343 6.0579-3.6164 6.644 1.7794 0.59415 5.4455-1.1645 11.998-1.1645 11.998" fill="#fff"/>
  <path d="m95.326 162.04c-1.9077 3.6268-6.0605 8.0204-9.0227 6.4687-2.9621-1.5544-1.7166-7.45 0.19879-11.103 1.9154-3.6478 6.0892-8.0021 9.0226-6.4634 2.9308 1.5334 1.7035 7.4656-0.19879 11.098" fill="#ea5520"/>
  <path d="m61.57 155.03c-1.625-0.87139-4.65-1.2691-4.65-1.2691-0.0741-1.2325-0.0148-2.4912 0.15429-3.5902 0.60676-3.967 2.6979-9.2634 6.0866-7.9838 0.0297 3.6661-0.0445 8.9127-1.591 12.843" fill="#ea5520"/>
  <path d="m91.27 125.67c26.594-32.513 70.993-33.767 72.846-31.456 1.2875 1.6015-1.926 17.074-7.968 26.38 0 0-13.327 22.237-42.402 21.758z" fill="#ffe55f"/>
  <path d="m112.47 119.62c17.019-12.924 34.842-6.3378 35.114-5.6522 0.25368 0.62537-3.1689 3.6033-8.0204 6.5472 6.8455 1.0362 22.086 0.0653 33.772-6.589 1.1592-0.65943 2.6534-0.80074 1.5492 1.7742-0.30338 0.69607-0.83217 2.0856-1.2692 2.9282-2.0018 14.952-20.657 49.494-55.442 43.329 2.6534-26.212-14.421-32.733-14.421-32.733 2.2321-3.4411 5.2571-6.6597 8.7165-9.6036" fill="#ea5520"/>
  <path d="m61.57 173.03c2.7214 0.68299 7.5808 1.3241 17.09 0.2957 0 0 2.4624 8.2245-2.062 10.339-4.438 2.0777-13.353-6.8455-15.028-10.635" fill="#932f00"/>
  <path d="m64.108 176.2c0.32712 0 0.58896-1.6224 0.73509-2.5906-1.332-0.15439-2.3761-0.35849-3.2239-0.56783 0.74316 1.2613 2.0856 3.1584 2.4886 3.1584" fill="#fff"/>
  <path d="m52.83 153.85c-0.85303 0.74055-0.74317 3.9854 0.20695 7.6253 1.264 1.0467 4.3805 1.8187 6.3771-0.0314 2.1824-2.0254 1.6616-5.4821 0.90798-6.9711-3.5588-0.97082-6.7329-1.2822-7.4918-0.62279" fill="#595757"/>
  <path d="m78.684 173.35c-2.3289 0.25383-4.3752 0.4056-6.1834 0.47887-2.3787 1.2639-4.0324 4.0638-2.2504 8.337 2.3446 1.5073 4.6814 2.3158 6.3718 1.523 4.5244-2.1144 2.062-10.339 2.062-10.339" fill="#ee869a"/>
  <path d="m77.349 176.51c0.23811 0.0654 0.75631-1.8553 1.0336-3.1506-0.9944 0.10467-1.9364 0.19103-2.8314 0.26168 0.59934 1.366 1.5544 2.8209 1.7977 2.8889" fill="#fff"/>
  <path d="m84.519 205.61c-2.6351 0.97606-8.8316 1.6538-13.089 1.5439-3.2396-0.0864-8.1408-2.4231-12.403-3.6033-6.0814-1.6826-7.5965-2.4127-11.244-2.7712-4.4328 1.5962-5.8485-1.5727-5.5999-3.407 0.3375-2.4441 2.2531-3.394 5.8668-3.0302 4.0613 0.41345 6.385 2.1222 11.386 2.6403 2.936 0.30354 9.8365 1.3136 21.57-2.0646z" fill="#ffe55f"/>
  <path d="m118.96 177.69c-11.129 4.7521-21.327 6.0552-38.286 5.6156-0.96562-0.0262-1.9312-0.10206-2.8915-0.22504-2.0542 1.1671-4.2706 2.3211-9.792-2.7162-12.767-5.1891-18.883-10.82-22.674-14.931 2.8287 7.8215 15.826 22.502 38.498 22.46 25.563-0.0418 35.146-10.203 35.146-10.203" fill="#dcdddd"/>
  <path d="m78.919 180.15c-2.4179-4.302-7.4133-3.6844-8.9912-2.9857 0 0 0.80592-2.431 2.5382-3.2788l3.203-0.28784s1.188 2.9308 1.7114 2.8706c0.52072-0.0628 1.2011-3.3155 1.2011-3.3155s1.5413 3.5379 0.3375 6.9972" fill="#cf7487"/>
  <path d="m63.69 173.56 0.43468 2.9988s0.61788-2.1772 0.82431-2.8706z" fill="#dcdddd"/>
  <path d="m58.77 162.12c-4.1502-2.1588-5.49-5.8904-5.7334-8.358 0 0-1.9599 0.35588-0.10236 7.7928 0 0 1.9208 1.0781 3.2553 1.1147 1.3346 0.0341 2.5801-0.54951 2.5801-0.54951" fill="#3e3a39"/>
  <path d="m77.218 173.56 0.10755 3.2055s0.9551-1.8422 1.1854-3.3128z" fill="#dcdddd"/>
  <g fill="#cb4819">
   <path d="m166.92 136.4c-19.38 24.485-48.947 13.531-48.947 13.531s1.209 6.9737-0.0757 11.799c0 0 16.085 4.0168 29.75-5.0085 14.834-9.7946 19.272-20.322 19.272-20.322"/>
   <path d="m57.252 135.8c-13.134-2.1955-21.539-16.729-21.426-21.12 0 0-4.2209 17.221 16.478 30.718 1.2194-5.1472 4.9483-9.5983 4.9483-9.5983"/>
   <path d="m47.78 116.01c0.47102 0.32444 0.91585 0.41872 1.1304 0.23291 0.49698-0.43178 0.12017-1.0624-1.2561-2.7345-5.1707-6.296-5.9819-14.785-5.5239-18.414 0 0-2.206 4.0246-0.36124 11.14 1.8998 7.327 6.0108 9.7763 6.0108 9.7763"/>
   <path d="m55.996 107.35c0.46583 3.2474 2.7711 8.2795 5.0242 10.852 2.9021 3.3181 3.6452 3.8179 4.4486 4.4982 0.40054 0.33758 0.66758 0.81381 0.43467 1.1278-0.14613 0.19627-0.44505 0.27734-1.2298-0.12825-1.5701-0.80858-5.0321-4.684-6.8089-8.0204-1.7794-3.3338-2.656-7.5285-1.8683-8.3292"/>
   <path d="m65.626 116.54c1.0807 1.0938 1.3555 1.0546 1.6066 0.81643 0.39017-0.36635-0.0668-0.88185-0.60972-1.6852-0.19879-0.2852-1.5308-1.7061-3.7734-6.2253-2.049-4.1293-4.2706-10.805-4.2549-13.492 0 0-0.65942 2.1772 0.52591 7.1987 1.1854 5.0216 3.4829 9.4675 4.752 11.257 1.2691 1.7873 1.7533 2.13 1.7533 2.13"/>
   <path d="m146.51 115.31c-2.9204 1.8658-11.378 5.7804-15.384 7.2772-4.0036 1.4994-7.6383 2.6115-9.1954 3.0512-1.1488 0.32712-2.3813 0.88447-2.2006 1.803 0.0942 0.4972 0.87402 0.70133 1.8344 0.52071 3.4489-0.6411 10.313-3.4123 13.089-4.6919 5.0425-2.3158 11.857-7.9602 11.857-7.9602"/>
   <path d="m142.4 126.27c-1.1304 1.2063-7.0208 4.527-11.024 5.6077-4.001 1.0834-10.721 1.625-11.493 1.6957-0.64903 0.0579-1.2351 0.3323-1.1697 0.83737 0.0808 0.57567 0.82951 0.7327 1.7873 0.75624 0.96295 0.026 4.9744 0 11.297-1.905 9.3497-2.8183 10.603-6.992 10.603-6.992"/>
   <path d="m173.33 118.24c-1.3947 2.1902-9.1849 11.362-15.313 16.766-4.4772 3.9539-10.888 8.0178-14.209 9.7553-1.468 0.76671-2.0332 1.0912-1.7689 1.7375 0.40054 0.99176 1.3346 0.85307 2.6142 0.29047 1.2822-0.56261 9.2973-4.875 15.049-10.362 8.7767-8.3684 13.628-18.187 13.628-18.187"/>
  </g>
  <g fill="#ddc653">
   <path d="m59.45 95.157s8.8028 3.5483 13.801 14.382c0 0 0.0297-3.7106-1.1619-10.161-1.1854-6.453-4.7886-16.221-4.7886-16.221-1.3372-3.9932-10.313 7.9524-11.673 18.621 0 0 3.3913 3.5745 3.7472 3.8257 0 0-2.7476-11.352 0.0757-10.446"/>
   <path d="m139.79 120.41c2.7267-1.4811 7.9315-5.872 7.8032-6.3012-0.12833-0.42651-2.902-2.622-12.388-2.1615-9.491 0.45797-15.06 2.5775-15.06 2.5775 4.7599-3.5536 12.228-7.8843 19.94-10.794 5.592-2.1117 11.686-3.3913 14.824-3.7629 2.499-0.30353 1.9154 1.2587 1.6066 2.2033-1.4968 4.582-5.8406 14.908-9.2503 19 0 0-5.5109-0.1439-7.4761-0.76148"/>
   <path d="m75.387 196.27s7.4552-0.52073 12.498-5.312l-2.253-3.3756c-6.3195-0.0916-11.912-0.96559-11.912-0.96559s1.6721 4.8594 1.6669 9.6533"/>
   <path d="m91.872 216.6c-7.1804-0.78765-10.713-7.9576-11.019-10.007l-3.9723 0.49457s0.30338 15.973 16.965 16.648z"/>
   <path d="m42.337 198.55c0.30116 0.5155 2.745 1.1357 4.2156 0.61756 1.3398-0.46841 2.0332-0.38991 3.7891 0.0366 1.7585 0.42391 13.17 3.7524 16.679 4.8541 3.5091 1.1043 16.734 0.3742 17.428 0.32971 0.69873-0.0418 1.557 0.92895 0.0297 1.3947-1.5308 0.46055-10.849 1.7349-13.874 1.4052-3.0224-0.33234-10.028-3.1061-12.846-4.001-2.8209-0.89494-8.2795-2.3001-10.046-2.41 0 0-1.5387 0.84522-3.4228 0.47887-1.8893-0.36372-1.9521-2.7057-1.9521-2.7057"/>
   <path d="m103.78 230.89c0.86615 4.7416 0.63568 8.8054 0.0838 10.512-0.89493 2.7816-3.1349 3.1401-4.1999 2.8628-1.0677-0.27476-1.1331-0.93942-0.93684-2.1719 0.19879-1.2351 0.65423-2.8706 0.28038-4.37-0.86874-3.4751-2.3682-7.3244-5.7778-9.5617-2.8052-1.8396-4.8751-3.6268-5.9375-5.6993 0 0 3.3808 1.3084 7.0941 1.1462 0 0 1.7402 3.1035 4.302 4.7311 2.5592 1.6302 5.0922 2.5514 5.0922 2.5514"/>
   <path d="m82.53 219.43c-4.0089 7.0627-11.632 15.706-13.78 17.7-2.1458 1.9914-4.6265 4.3046-7.3453 4.0168-2.7188-0.29046-3.2657-2.7555-3.2657-2.7555s1.1671-2.0908 3.5091-1.1095c0.26184 0.1099 0.52071 0.22504 0.96295-0.10205 2.1798-1.6302 11.244-9.1849 15.481-25.21 0 0 1.2508 4.3491 4.4381 7.4604"/>
   <path d="m130.6 243.37c-1.1278 1.0232-2.2609 0.46579-2.4833-0.20934-0.22252-0.67512-0.37161-2.2583-0.95775-3.5667-2.0699-4.5977-5.4351-8.5385-8.7269-10.54-3.2945-1.994-4.637-2.4284-5.7543-2.376-1.1147 0.0497-4.0769 0.60971-10.472-1.6302-7.0522-2.4676-10.731-9.9961-10.656-12.864 0 0-0.54148 10.59 5.2806 14.712 5.8223 4.1214 11.804 5.8537 17.893 3.53 0 0 5.3408 2.431 7.7901 5.702 2.4494 3.2657 3.3128 5.5606 3.9095 7.709 0.35308 1.2508 1.4602 1.8841 2.1065 1.8213 2.253-0.22766 2.0698-2.2871 2.0698-2.2871"/>
   <path d="m124.87 200.4c-1.0023 1.6695-3.3757 4.964-5.8276 7.0705-2.206 1.8972-4.2261 3.3338-5.4037 3.865-1.4811 0.66466-1.3764 1.1959-0.90539 1.523 0.67796 0.46055 2.2819-0.19364 3.8258-0.99699 1.5465-0.80858 2.2975-1.5753 4.5793-4.6762 2.2819-3.0982 3.7316-6.7853 3.7316-6.7853"/>
   <path d="m122.41 212.28c-0.77714 1.0572-3.7368 3.4751-5.5135 4.7756-1.4812 1.086-2.9334 1.9495-3.5928 2.3891-0.14094 0.0916-0.88448 0.49457-0.57041 1.0179 0.31376 0.52336 1.0049 0.33495 2.7843-0.81905 5.2911-3.4227 6.8926-7.3636 6.8926-7.3636"/>
   <path d="m115.21 202.6c-9.0828-4.4511-13.319-13.094-13.076-16.187 0 0-3.0983 6.5576 0.63569 13.094 0 0 6.207 1.536 8.2036 5.1577z"/>
   <path d="m121.28 214.27s8.4678 3.1428 17.907-2.4886c8.5019-5.0713 8.0832-20.497 8.0832-20.497-4.001 9.6402-12.226 15.748-24.553 13.673 0 0-2.7293 4.3255-5.6443 6.4896 0 0 5.7255-2.588 6.3273-1.9495 0.60676 0.63849-2.1196 4.773-2.1196 4.773"/>
  </g>
  <path d="m60.628 150.74c-0.22772 1.557-0.76149 3.7472-1.1854 3.6844-0.42948-0.0628-0.31377-2.3028-0.0838-3.8702 0.22994-1.5701 0.76668-3.7446 1.188-3.6818 0.42131 0.0602 0.30857 2.308 0.0808 3.8676" fill="#0f141b"/>
  <path d="m62.931 147.18c-0.16468 1.1304-0.75096 2.6874-1.468 2.5828-0.71209-0.10467-0.82684-1.7559-0.66165-2.8942 0.16764-1.1357 0.75889-2.6848 1.4654-2.5801 0.70912 0.10205 0.8295 1.7611 0.66461 2.8915" fill="#fff"/>
  <path d="m93.076 155.21c-0.40797-0.21457-1.7035 1.625-2.9439 4.111-1.3529 2.7214-2.0018 4.6526-1.6066 4.8698 0.36346 0.20411 1.6381-1.6826 2.8941-4.1816 1.2037-2.3917 2.0411-4.6003 1.6564-4.7992" fill="#0f141b"/>
  <path d="m96.242 157.46c-0.54445 1.2351-1.8919 2.7398-3.0747 2.2243-1.1828-0.52336-0.99439-2.5252-0.44505-3.7682 0.54445-1.2456 1.8998-2.7371 3.0721-2.2216 1.1671 0.51027 0.98913 2.5252 0.44728 3.7655" fill="#fff"/>
  <g fill="#0f141b">
   <path d="m65.6 117.01c-6.4164-6.0421-7.8739-17.064-7.7744-20.667 0.0445-1.837 0.95776-1.9364 2.2295-1.4523 2.6063 0.98652 9.7553 4.8306 13.361 14.123 0.28039 0.71958-0.17282 2.868-0.27222 2.5697-3.2081-9.9071-11.137-14.895-13.714-15.865-0.39759-0.14657-0.6127-0.26956-0.6305 0.42911-0.0741 3.1087 1.8396 14.128 7.4264 20.327 1.0206 1.1331 0.51032 1.6015-0.62531 0.53644"/>
   <path d="m63.951 123.6c-7.5442-5.5868-8.7636-13.33-8.7086-15.873 0.0371-1.222 0.36124-1.6564 1.8265-1.2404 1.1435 0.32452 2.6743 1.2037 4.0377 2.3525 0.32193 0.27215 0.34046 1.8919 0.11794 1.6669-1.6904-1.7035-3.5064-2.7214-4.5924-3.1218-0.37681-0.14131-0.45544-0.0631-0.44505 0.32711 0.0668 2.2243 1.5805 9.7449 8.2402 15.342 1.1305 0.94989 0.72247 1.4314-0.47622 0.5469"/>
   <path d="m52.123 146.34c-19.495-13.134-22.907-31.011-8.8342-56.48 0.17802-0.31925-0.96303 3.7786-1.803 5.6915-9.3497 21.219-5.7569 37.412 10.894 49.36 0.22995 0.16485-0.1884 1.4785-0.25665 1.4288"/>
   <path d="m144.5 146.24c16.559-8.549 26.722-23.724 29.771-30.812 0.47917-1.1147 0.39536-1.5334-0.61714-0.94465-13.317 7.7928-27.746 7.6541-34.604 6.6126-0.36123-0.0549 0.24626-1.2979 0.60453-1.243 6.6937 1.0153 20.413 0.28521 33.17-6.2096 2.8889-1.4732 3.5012-0.1884 2.3996 2.465-3.0224 7.3008-13.278 23.418-30.31 31.014-1.9443 0.86615-2.3394 0.1099-0.41315-0.88186"/>
   <path d="m118.07 162.59c-0.34047-0.0601-0.57561-0.37158-0.54149-0.70914 2.5697-25.367-13.322-31.796-14-32.055-0.1884-0.0734-0.33231-0.22504-0.39016-0.41085-0.0593-0.18841-0.0371-0.39773 0.0741-0.56263 9.9621-15.358 34.837-26.217 45.383-28.327 2.3969-0.47628 2.567 0.41605 0.21214 1.0467-9.4439 2.5278-33.081 12.799-44.074 27.366 2.9412 1.4837 17.388 9.5643 14.162 32.461 11.684 1.9233 22.426-0.61756 31.927-7.5651 14.07-10.281 21.055-27.112 22.151-35.306 0.0519-0.36108 1.0598-0.12825 1.01 0.23032-1.1252 8.4103-7.9053 25.924-22.222 36.564-14.997 11.145-31.283 7.6959-33.691 7.2668"/>
   <path d="m90.773 125.25c25.385-32.322 71.31-34.494 73.869-31.454 1.6852 2.0097-1.2639 16.509-6.6204 25.673-0.28039 0.48148-2.1615 0.36376-2.0359 0.16482 5.7936-9.3445 8.515-23.643 7.6227-25.019-2.0228-1.5962-44.608-0.44743-72.006 31.297-1.0101 1.1697-1.8762 0.67248-0.82951-0.66201"/>
   <path d="m121.97 127.34c11.823-3.1898 22.326-10.36 24.606-12.752 0.35086-0.36636 0.35827-0.43697-0.15206-0.63064-3.5824-1.3607-19.385-4.37-33.565 6.0238-0.25887 0.18581 0.51255-1.3581 0.76149-1.5518 15.332-12.024 32.914-5.6993 33.534-5.4115 1.6537 0.76934 1.2717 1.188 0.40796 2.1667-2.5723 2.9125-13.665 10.847-25.516 12.982-1.4654 0.26688-1.5308-0.43438-0.0757-0.82691"/>
   <path d="m120.37 134.57c14.4-0.5966 20.128-5.982 21.429-7.9759 0.28484-0.42918 0.28484-0.53385-0.27222-0.75626-1.6695-0.66728-6.0656-1.5386-9.0566-1.099-0.31376 0.0497 0.69577-1.2299 1.2037-1.2404 3.5954-0.0863 9.3314 0.94466 9.5643 2.3656 0.31154 1.8841-7.2354 10.012-22.816 9.5722-1.5806-0.0467-1.6748-0.7955-0.0519-0.86615"/>
   <path d="m130.94 168.48c-8.3423 0.86615-18.757-1.4445-21.643-2.3185-1.8238-0.55214-1.3973-1.154 0.31673-0.76148 2.7214 0.62803 13.27 2.7345 20.113 1.8056 2.5853-0.35326 3.5326 0.61756 1.5831 2.7607-6.8324 7.5154-16.687 11.98-30.815 9.7815-1.5125-0.2355-1.3031-0.99699 0.23291-0.80858 17.017 2.0934 25.71-5.4376 30.213-10.459"/>
   <path d="m83.813 187.21c14.154 0.69606 23.988-2.0594 35.481-9.7606 0.79554-0.53644 3.8074-1.4785 3.5248-1.2482-11.53 9.5512-25.848 13.293-39.11 11.781-1.4104-0.16224-1.3188-0.8426 0.10458-0.77195"/>
   <path d="m67.222 149.95c2.2007-8.2454 7.6724-15.112 10.778-17.433 0.90279-0.67248 1.1802-0.29047 0.29299 0.46575-2.6508 2.2687-7.8582 9.2424-10.504 17.213-0.45767 1.3764-0.93944 1.154-0.56819-0.24597"/>
   <path d="m65.626 144.67c0.53406-2.5566 0.785-4.8463 0.56225-7.1464-0.12313-1.2822 0.39016-1.3319 0.56225-0.0134 0.30857 2.3498 0.15429 4.527-0.60676 7.2982-0.20917 0.74578-0.68315 0.6542-0.51774-0.13868"/>
   <path d="m74.314 148.04c3.5954-3.9775 8.3056-7.3165 12.812-8.6694 1.2639-0.37681 1.324-3e-3 0.14093 0.52858-4.247 1.9076-8.897 4.8541-12.445 8.5542-1.0153 1.0624-1.523 0.71438-0.50736-0.41345"/>
   <path d="m55.316 168.35c-3.7368-4.964-4.7651-13.369-2.9124-14.981 1.7977-1.557 11.255 0.94204 15.562 3.7132 1.6146 1.0362 1.2351 1.6329-0.46805 0.74578-5.6523-2.9412-13.432-4.1633-14.233-3.4672-0.92104 0.79811-0.31154 8.0754 2.8916 13.526 1.065 1.8134 0.41316 2.1248-0.84004 0.46317"/>
   <path d="m52.961 161.88c-0.21733-0.23027 0.14687-0.91063 0.36346-0.67774 0.50737 0.5312 3.6765 1.6904 5.6967-0.18318 2.2216-2.0594 1.3555-5.3094 0.78766-6.2646-0.16244-0.26953 0.57338-0.67775 0.73509-0.40822 0.81378 1.3712 2.1091 5.0844-0.57857 7.5808-2.1719 2.0123-5.694 1.3398-7.0051-0.0471"/>
   <path d="m62.067 173.69c0.41836 0.68298 1.2194 2.9517 2.2268 2.3682 2.2975 2.7424 5.8145 5.8223 8.7845 6.9371 2.1746 0.8112 4.4485 0.6071 5.3566-2.4231 0.70912-2.3656 0.0838-5.4481-0.19656-6.5995-7.9367 0.81905-13.283 0.38467-16.172-0.28261m10.608 10.383c-4.5872-1.7375-9.8208-7.4526-11.302-10.54-0.90279-0.25906-1.6538-0.56261-1.8762-0.68298-0.98394-0.52335-0.69057-1.0519 0.37905-0.73008 1.0729 0.32448 5.1472 2.1222 18.728 0.65681 0.27222-0.0287 0.5311 0.14392 0.61269 0.40822 0.0757 0.24597 1.3188 4.493 0.30635 7.7797-1.2351 4.022-4.3308 4.056-6.8481 3.1087"/>
   <path d="m63.428 176.25c-0.89493-0.75887-1.9992-2.533-2.2059-3.0747-0.0808-0.2015 0.65645-0.4841 0.73508-0.28261 0.31673 0.82167 1.5779 2.6194 2.0882 3.004 0.10978-0.25905 0.25368-1.2299 0.39239-2.1379 0.0297-0.20149 0.87134 0.0341 0.84516 0.20673-0.12536 0.83213-0.3427 1.5779-0.49475 1.9861-0.39536 1.0572-0.90807 0.68037-1.3608 0.29832"/>
   <path d="m76.773 176.51c-0.54148-0.61756-1.1959-1.8291-1.4706-2.6168-0.0668-0.20933 0.675-0.46579 0.74577-0.26167 0.30857 0.89493 0.93683 2.1562 1.2822 2.588 0.21733-0.51551 0.52887-1.9286 0.66757-2.8156 0.0371-0.21195 0.81646-0.089 0.77982 0.12561-5e-3 0.0262-0.35085 1.9573-0.81378 2.8732-0.36643 0.70914-0.76676 0.59401-1.1907 0.10729"/>
   <path d="m69.394 181.46c-1.6093-5.278 1.5596-7.3139 2.991-7.9812 0.2878-0.13869 0.90538 0.46054 0.61714 0.594-1.5124 0.70653-4.0612 2.9884-2.4493 7.9524 0.0972 0.30355-1.0702-0.27475-1.1592-0.56521"/>
   <path d="m101.89 199.2c-2.6089-4.8149-2.049-9.9176-0.70912-13.005 0.19879-0.45794 2.1719-0.70653 1.9835-0.40822-1.5884 2.5487-2.8182 8.057-0.0808 13.102 0.16763 0.3114-1.0834 0.51551-1.1933 0.3114"/>
   <path d="m120.94 215.21c-0.33527-0.10729 0.0519-1.3241 0.38497-1.2168 2.4048 0.76672 13.885 1.3058 19.929-5.4848 5.8615-6.5838 5.2702-16.36 5.4952-23.525 0.20695-6.7094 1.7532-12.563 2.9962-16.289 0.64088-1.9207 0.79547-2.0463-1.3084-1.2796-3.9121 1.4288-10.65 2.274-17.273 2.3499-0.24627 5e-3 0.48436-1.2979 0.74576-1.3032 6.4791-0.0785 12.294-0.85307 16.13-2.0594 2.9255-0.9211 3.5667-0.37419 2.6665 2.6796-1.1278 3.8362-2.4833 9.389-2.6822 15.944-0.22253 7.1543 0.79286 17.221-5.5214 24.613-6.4477 7.5442-19.309 6.2881-21.562 5.5711"/>
   <path d="m146.96 189.44c-2.117-2.5906-3.373-6.0369-3.3966-9.3026-2.4938 2.0463-6.1442 4.2339-7.62 3.4411-1.0651-0.57307-0.2752-5.2492 0.94462-7.9026-2.6613 0.53644-5.0504 0.36896-5.2466-0.17794-0.28557-0.81382 1.3555-2.5749 2.2426-3.4856-0.72248-0.0576-2.9674-1.2534-3.4228-1.8186-0.1439-0.18318 0.47621-0.60447 0.68019-0.72747 0.56003 0.68036 1.6774 1.4052 3.1218 1.8815 0.60675 0.19886 1.1252 0.46054 0.46879 1.1383-0.94463 0.97867-1.9678 2.2138-1.8762 2.4598 0.19138 0.49981 3.53 5e-3 3.9905-0.0654 1.0101-0.15438 1.4-0.0418 0.92112 1.0755-1.2691 2.9517-1.5779 6.3509-1.0964 6.6361 0.73285 0.42916 3.8493-1.2063 6.3535-3.3364 0.85568-0.72747 1.4366-0.73793 1.5569 0.63065 0.35085 3.9278 0.78241 5.7098 2.8052 8.5778 0.15428 0.21981-0.27222 1.1645-0.42651 0.97605"/>
   <path d="m128.43 245.96c-2.0908 8e-3 -2.1981-1.2822-2.6874-3.2971-0.38721-1.5884-1.6904-3.5457-3.5928-5.872-2.8733-3.5169-6.7382-5.2545-7.6384-5.6208-7.0443 2.1144-13.414 0.91325-18.592-4.1424-5.0661-4.9483-6.0735-12.684-4.4721-18.576 0.46582-1.7192 1.1304-1.4209 0.82165 0.35065-0.93417 5.3644 0.0223 12.443 4.7102 17.022 4.8725 4.7573 10.718 6.1259 17.37 4.0586 0.13351-0.0418 0.27741-0.0366 0.40796 0.0104 0.19879 0.0759 5.0006 1.6302 8.4731 5.8773 2.0332 2.4912 3.0564 4.6945 3.4699 6.4948 0.382 1.6643 0.42131 2.6011 1.8474 2.6429 0.48956 0.0105 0.84264-0.13084 1.0991-0.44746 0.41613-0.50504 0.98127-1.9338 0.10459-5.8851-0.88967-4.0037-3.5719-7.9419-5.8301-10.075-2.2975-2.1562-3.8885-2.8209-5.2728-3.2579-1.0546-0.33494-1.9914-0.92634-2.151-2.554-0.16245-1.625-0.14909-2.4833-0.55706-3.4358-0.13871-0.32448 0.92631-0.93681 1.1043-0.63065 0.58376 0.98653 0.58598 3.025 0.69057 3.7655 0.10756 0.7327 0.50514 1.468 1.2927 1.7192 2.0672 0.67512 3.4306 1.2718 5.7647 3.4698 2.2269 2.0934 5.1891 6.1599 6.1992 10.721 0.76149 3.4149 0.55484 5.5397-0.44208 6.7513-0.51033 0.62018-1.243 0.93681-2.1196 0.91064"/>
   <path d="m110.45 204.83c-4.2209-4.5689-11.171-5.8276-15.321-6.5733-4.9064-0.88708-9.1822-8.5752-9.8181-10.517-0.10978-0.33233 1.3058-0.27214 1.413 0.0601 0.49179 1.4968 4.302 8.1565 8.7898 8.9494 4.3727 0.77456 11.883 2.5566 15.884 7.552 0.21955 0.27214-0.82432 0.66204-0.9473 0.52858"/>
   <path d="m74.628 186.87c-0.0445-0.11252-1.5857-0.69605-1.4628-0.36896 0.94204 2.5016 1.256 6.2907 1.5047 10.054 0.5311-0.19888 0.98127-0.5312 1.4994-0.58617-0.32415-3.5379-0.65646-6.5576-1.5413-9.0985"/>
   <path d="m95.012 224.56h-8e-3c-8.9363-0.0209-15.311-6.8743-17.564-17.559-0.55484-0.0131-0.83478 0.16224-1.3869 0.14655 2.24 11.66 8.4077 18.061 18.809 18.684 0.19138 0.0105 0.49179-1.2613 0.1491-1.2718"/>
   <path d="m71.331 208.07c-2.465-0.0916-4.8725-1.12-7.8006-2.1588-1.5622-0.55475-7.7587-2.6168-8.9023-2.957-2.847-0.83737-4.2993-1.2665-6.7722-1.5177-2.5749 1.031-4.1685 0.46578-5.0033-0.21196-1.2115-0.97867-1.57-2.8392-1.413-3.9827 0.38201-2.7712 2.5959-4.1424 6.5681-3.7368 1.9966 0.20411 9.983 2.7162 11.993 2.902 4.5087 0.42914 9.6559 0.82951 20.173-1.693 1.625-0.38728 1.871 0.28261 0.28261 0.81904-9.8966 3.3469-17.87 2.4833-20.356 2.2635-2.4833-0.21719-10.19-2.7581-12.053-2.9491-4.2208-0.42915-5.0451 1.2377-5.2336 2.6168-0.10755 0.76148 0.15429 1.8867 0.97349 2.5514 0.85561 0.69344 2.1588 0.75101 3.776 0.16747 0.089-0.0262 0.18321-0.0392 0.27741-0.0288 2.677 0.25906 4.2653 0.73009 7.1464 1.5779 1.1383 0.33757 7.395 2.2243 8.9782 2.7869 2.8288 0.99961 5.3277 1.8788 7.4788 2.0018 2.1484 0.12298 9.177-0.46841 12.157-0.99699 1.7454-0.30616 2.1091 0.21719 0.38497 0.72222-3.1323 0.90279-10.192 1.9155-12.655 1.8239"/>
   <path d="m99.513 244.71c-1.7899-0.46579-1.4183-1.7375-1.2534-2.6429 0.22252-1.2377 0.38719-3.1113 0.11794-4.1947-0.71728-2.8575-1.7768-6.5655-5.7176-9.1378-2.9779-1.9443-4.2968-3.4201-5.3226-5.1629-0.1439-0.24335 1.5387 0.19365 1.8919 0.5914 0.95249 1.0703 2.2792 2.1117 4.3413 3.462 3.8152 2.5016 5.2754 6.8743 6.0421 9.9411 0.34047 1.3529-0.0148 3.2291-0.26704 4.6212-0.22994 1.277-8e-3 1.3319 0.46286 1.4549 0.68316 0.17531 2.6246 0.0811 3.4385-2.4441 0.85302-2.6456 0.39758-8.5752-0.16986-10.279-0.11275-0.32971 1.1305-0.54952 1.2404-0.21719 0.62308 1.8579 0.99699 7.6907 0.0223 10.713-0.8505 2.6403-3.0119 3.7603-4.828 3.2945"/>
   <path d="m57.907 240.05c-1.3372-1.9809-0.36124-4.6657 3.2291-5.21 1.6669-1.4314 5.7019-6.6963 7.2772-9.5172 4.5296-8.1146 6.7251-15.952 7.3295-18.289 0.089-0.34018 1.3765 0.15439 1.2875 0.49457-0.79028 3.0433-3.1087 10.988-7.586 19.011-1.7349 3.1113-5.9872 8.0597-7.6383 9.4047-0.092 0.0733-0.20176 0.12037-0.31895 0.13607-2.4467 0.30616-3.3625 2.0175-2.5226 3.2579 0.50216 0.74578 1.9757 1.6564 3.9906 1.1226 3.5431-0.93419 12.495-10.247 19.168-21.308 0.18025-0.30617 1.2142 0.51812 1.031 0.81905-6.3535 10.53-15.633 20.816-19.901 21.944-1.3948 0.36897-3.9671 0.18056-5.3461-1.8658"/>
   <path d="m114.45 219.72c4.4878-2.9596 8.0649-7.607 8.5097-9.0933 0.21215-0.69606 0.25368-1.2116-1.4653-0.41083-1.4654 0.68821-4.6998 2.2112-6.419 2.7084-2.028 0.59139-2.0935 0.13084-0.39239-0.77457 6.8926-3.6609 9.9935-11.454 10.451-14.191 0.12832-0.77719-0.16986-0.88971-0.83737-0.55738-1.0676 0.53121-3.9016 2.8654-5.9218 4.2444-3.564 2.4284-7.5572 4.2601-12.547 5.0713-2.1065 0.34279-2.1928-0.41869-0.0786-0.91326 4.6081-1.0703 8.5097-2.8942 11.912-5.21 1.086-0.74055 4.5924-3.3468 5.893-4.0717 2.0568-1.1566 2.855 0.0131 2.5513 1.8056-0.43467 2.5801-2.4597 7.6358-6.4817 11.485 0.40574-0.18056 0.87921-0.48672 1.6067-0.7327 1.8474-0.62018 3.3338-0.27738 2.635 2.0489-0.56225 1.8632-4.1449 6.5262-8.9467 9.3366-1.7114 1.0074-2.1379 0.3585-0.46879-0.74578"/>
   <path d="m86.953 157.65c-1.837 3.5012-2.9988 9.075-0.40575 10.436 2.3473 1.2351 6.2201-2.1928 8.3554-6.2646 1.748-3.3338 3.0198-9.0619 0.40574-10.433-2.5043-1.3136-6.4425 2.6115-8.3554 6.2619m-0.86348 11.31c-3.3861-1.6747-2.2138-8.1565-0.20176-11.985 2.8104-5.3539 7.2878-7.8556 9.8784-6.4608 3.0721 1.6564 2.6769 7.2432 0.25367 11.864-2.7555 5.2466-7.2066 7.9262-9.9306 6.5812"/>
   <path d="m56.415 153.77c-0.28261-5.2336 2.0908-13.089 6.2698-12.079 0.26185 0.063 0.11795 0.84522-0.14612 0.77979-2.8863-0.73271-5.5188 6.6047-5.1394 11.244 0.0223 0.26952-0.96821 0.31139-0.98394 0.055"/>
   <path d="m95.771 166.73c2.8104-3.844 3.7394-8.3868 3.8179-11.393 0.13574-5.2178-3.7708-8.1146-9.5093-6.9397-5.2728 1.0834-9.9542 5.4926-12.924 10.619-0.9447 1.6329-1.4026 1.2534-0.66462-0.46841 2.4833-5.8066 7.2798-10.742 13.191-12.168 6.8612-1.659 12.071 2.0175 11.723 9.2032-0.15206 3.2317-1.8553 8.0623-5.0425 11.613-0.89493 0.99699-1.4732 0.74054-0.59118-0.46579"/>
   <path d="m61.308 154.64c1.4-6.05 1.2927-9.8862 1.0362-12.04-0.40055-3.3338-1.3502-4.0272-2.1745-4.1659-1.0074-0.16749-2.1353 0.60446-3.441 2.7973-1.5622 2.6194-2.6901 6.5419-2.7503 11.637-0.0223 1.5962-0.43467 1.5439-0.66981-0.0314-0.57561-3.8571 0.68835-9.266 2.24-12.184 1.5544-2.9177 3.1715-4.4354 4.8593-4.1607 1.7271 0.29834 2.9099 2.4074 3.3312 5.9558 0.39016 3.2343-0.45025 8.2167-1.6119 12.404-0.086 0.2957-0.89752 0.13869-0.81905-0.21195"/>
   <path d="m46.995 115.86c-9.6664-9.1587-6.7225-23.397-2.1955-29.104 2.3655-2.9831 3.0669-1.5256 3.6687 0.58094 1.4235 4.9823 3.2788 10.164 12.176 18.702 0.26407 0.25383-0.29819 1.3372-0.56744 1.0938-9.7161-8.6432-11.27-14.115-12.752-19.649-0.34788-1.3136-0.57857-1.3476-1.536-0.13344-4.2575 5.367-6.6701 19.16 1.7506 27.905 0.83737 0.87139 0.34788 1.4392-0.54445 0.60446"/>
   <path d="m85.016 122.63c0.56744-25.681-16.208-48.319-18.218-49.522-1.6616 0.32712-11.626 7.9262-15.481 23.206-0.089 0.3533-1.277-2.028-1.1017-2.5854 4.4092-13.974 14.267-21.999 16.679-21.942 2.7188 0.06527 20.466 23.551 19.435 50.873-0.0148 0.36109-1.3214 0.33498-1.3136-0.0289"/>
   <path d="m67.85 83.146c-0.65942-1.5988-1.5046-1.434-0.9263 0.23291 3.2526 9.3497 7.9654 23.677 5.0294 40.618-9.4544 2.4127-18.998 12.108-22.046 26.788-2.206-0.43438-4.1659-1.2037-7.0784-3.2657-1.7323-1.2246-2.7659-1.4837-2.7529 1.6198 0.0808 17.862 11.354 33.709 34.842 38.202 1.345 0.25906 1.4471-0.5312 0.15428-0.81644-15.321-3.4096-26.102-11.749-31.079-23.653 0.61492 0.82429 1.536 1.5936 2.3236 2.274 2.1248 1.8291 2.2871 1.154 0.40055-0.8583-3.2657-3.4855-4.9091-7.497-5.511-15.368-0.0786-1.0232 0.10755-1.222 0.72247-0.68559 2.6299 2.2949 5.2048 3.2605 7.6802 3.8231 0.60157 0.13346 1.2822 0.16748 1.5675-0.93942 3.7445-14.541 11.166-22.106 20.981-25.65 1.3031-0.47361 1.2037-0.66988 1.3319-1.4654 2.7084-17.017-1.7741-31.509-5.6391-40.856"/>
   <path d="m92.082 124.36c-3.5012-0.65156-7.8529-1.3764-13.196-0.56781-1.7506 0.26429-1.9783-0.42918-0.22994-0.86877 5.6915-1.4366 11.323-0.68034 14.507 0.12558 0 0-0.86355 1.3529-1.0807 1.311"/>
   <path d="m120.84 167.27c1.0519-0.92633 3.8649-3.0407 4.875-4.2182l2.0882-0.30094c-1.0022 1.1697-3.9748 4.0429-5.0922 5.0321-0.13056 0.11513-2.1431-0.27215-1.8709-0.51289"/>
  </g>
 </g>
</svg>
