<?xml version="1.0" encoding="UTF-8"?>
<!-- Created with Inkscape (http://www.inkscape.org/) -->
<svg version="1.1" viewBox="0 0 82.265 118.03" xmlns="http://www.w3.org/2000/svg">
 <g stroke-width=".75579">
  <path d="m49.966 110.73c2.6407 0.73009 8.2608 1.4609 13.712-2.6974 5.2626-4.0155 6.0085-11.972 6.3086-16.522 0.39377-5.9571 2.1668-9.8472 3.005-11.181 1.3627-2.1691 1.594-3.2945 1.2864-3.658-0.53056-0.62957-0.89108 0.44516-4.0382 1.5131-3.2703 1.1103-7.0931 1.7096-10.674 1.2115-3.8439-0.53434-8.1958-1.4851-14.095 2.6173-5.9012 4.1024-6.0131 10.34-6.1257 12.7l2.8773 12.036z" fill="#ffe45f"/>
  <path d="m74.278 76.671c-0.53056-0.62882-0.89108 0.44592-4.0382 1.5138-3.2703 1.1095-7.0931 1.7096-10.674 1.2108-0.43911-0.06046-0.88427-0.12622-1.337-0.19046 1.0604 1.0883 3.1426 2.6551 5.9549 3.2575 0 0-5.283 4.8333-4.664 5.9564 0.48748 0.88805 5.3941-1.0112 6.5187-1.6854 0 0-0.30458 5.8279 0.59859 5.9783 0.67416 0.11186 2.3233-3.0564 2.6604-3.955 0 0 0.10279 1.1828 0.74672 2.0467 0.48068-5.5543 2.1434-9.1942 2.9476-10.474 1.3627-2.1699 1.594-3.2945 1.2864-3.6588" fill="#ea541f"/>
  <path d="m46.988 112.58c1.6854-0.33708 2.866-1.5736 3.5401-2.6974 3.6369-2.179 4.9466-6.4272 4.5363-6.9752-0.50562-0.67417-1.4428-0.14738-2.5107 0.47086 3.4079-3.4184 5.3752-7.5821 5.8234-9.5675 0.52452-2.3241-0.68399-1.7776-2.1737-0.82457-1.6393 1.049-5.2852 3.9331-8.6825 5.9934-0.46935-0.90241-1.4322-1.4232-3.8303-2.3225-2.3966-0.89939-5.2656-1.9303-7.4921-4.5703-2.061-2.4427-4.7857-9.5456-5.5354-12.168l-4.048-3.1358-2.7382 0.74294c-0.1504 2.0232-0.69608 7.174-1.6907 10.29-1.1246 3.522-2.3014 8.972-0.74974 13.112 1.5736 4.1961 4.1221 9.8162 3.822 12.738 0 0-2.0973 0.97421-2.0232 2.3225 0.07482 1.3483 1.5675 1.405 2.8123 1.4564 0.22598 0.0642 0.48597 0.10506 0.78451 0.11715 1.5622 0.065 2.3656-1.0407 3.3217-3.392 0.67416 0.1504 1.0997 0.17005 1.3982 0.24488-0.12622 1.0483 1.5554 1.4239 6.1075 1.0309 4.41-0.38092 5.2066-0.29098 6.2564-0.35674 1.4987-0.093 3.0224-0.2033 3.3527-1.3287 0.28115-0.95607-0.2804-1.1805-0.2804-1.1805" fill="#ffe45f"/>
  <path d="m43.016 72.384c1.9484 1.9484 4.045 7.3032 3.692 7.8126-0.19122 0.27586-4.6428 1.9809-13.81 0.47539-1.9258-0.31668-6.0834-1.4572-8.8654-2.7896-4.0556-1.9409-7.6909-6.0229-7.6909-6.0229-0.588-0.17534-4.5982-1.1571-9.8283-5.9171-4.8688-4.4327-5.7735-12.162-5.8324-14.043-0.43382-3.5424 0.21842-7.1158 0.4308-8.1255 0.16098-0.76562 0.58574-1.0657 1.0286-0.15191 1.3317 2.7435 4.9278 8.3636 12.403 9.4315l21.13 3.3708z" fill="#fff"/>
  <path d="m47.1 41.791c4.4433-5.5535 16.455-12.541 20.87-14.28 4.7108-1.854 10.156-3.2612 10.71-2.7065 0.78451 0.78451 0.57062 7.4287-4.9829 16.868l-19.615 25.265c-2.3603 6.4068-8.2774 10.239-8.2774 10.239-0.78602-1.7912-2.736-4.794-2.736-4.794-4.673-0.82683-7.5753-3.986-8.0454-4.4992l-12.596-7.5995c-3.4797-1.832-7.1732-5.4235-8.2411-7.3017-0.35749 0.0854-3.129-0.85782-3.129-0.85782-1.1276-1.9983-2.5878-4.8182-3.0315-9.0385l7.8073-30.56c2.1102-6.5527 6.5905-12.003 7.728-11.964 0.91451 0.031743 12.82 8.4014 16.712 22.164 1.6083 5.6888 1.8948 12.124 1.7262 16.633 0.9984 0.25017 3.1244 1.1677 4.8847 2.2749z" fill="#ffe45f"/>
  <path d="m69.848 42.596c1.3385-0.45876 3.6648-1.204 5.5853-1.8351 1.9197-0.63108 4.9761-2.4631 5.6427-2.8675 0.69457-0.42022 1.3695 1.8577-0.35598 10.057-0.23278 2.2946 0.35598 3.7638-3.8334 9.7278-4.1886 5.9639-9.3121 8.294-12.687 9.269-3.3746 0.97497-7.0576 1.2062-10.156-0.0091 0.39226-0.90241 0.89334-2.7133 1.0846-4.3473 0.94776-8.1164-1.0067-11.659-2.7722-14.993 1.6484-2.1578 4.0677-4.7396 6.2693-6.6253 8.087-3.6701 14.655-3.5371 14.888-3.3073 0.15872 0.15569-0.46859 2.3346-3.6648 4.9315" fill="#ea541f"/>
  <path d="m16.734 48.578c-5.7274-1.6869-8.8647-5.2263-10.906-8.7876-2.0421-3.5613-4.4864-8.9372-2.8524-17.921 1.6325-8.9848 8.517-16.851 8.8087-16.797 0.29174 0.052905 4.6761 9.2426 11.852 14.346-0.78829-3.135-0.65074-5.3374-0.40813-5.4757 0.46632-0.26453 8.0968 3.2688 12.297 12.04 0.70364 4.9179 1.1821 8.9667 0.66736 14.632-5.6012-0.35598-12.223 0.98328-19.379 7.9245z" fill="#ea541f"/>
  <path d="m34.878 69.663c0.11564-14.847-5.1613-14.641-7.1921-14.674-3.6542-0.05744-6.9004 4.6987-5.0449 12.354 0 0 1.4496 2.2039 5.162 2.7836 3.7109 0.57969 7.075-0.46406 7.075-0.46406" fill="#fff"/>
  <path d="m42.882 72.563c0.65905-1.4337 5.9156-8.1784 8.5835-6.496 2.6679 1.6816-3.2144 8.9138-6.728 10.497l-1.798-2.6097z" fill="#fff"/>
  <path d="m44.552 74.765c4.6844-3.562 4.8794-7.1233 4.8794-8.588 0 0-4.181 2.6226-6.363 6.2058 0 0 1.3725 1.7769 1.4836 2.3822" fill="#ea541f"/>
  <path d="m45.442 76.294c-1.3446-0.76562-3.5537-0.15191-4.2422 1.1669-0.46557 0.89108-0.59254 2.714 0.81247 3.8946 0 0 4.0677-0.60841 4.6564-1.1586 0.32423-0.30156-1.2266-3.9029-1.2266-3.9029" fill="#595656"/>
  <path d="m33.486 59.542c-0.19273 1.0747-0.7112 2.637-1.244 3.7593-1.6113 3.3943-4.4115 5.8302-6.1733 4.9943-1.761-0.8359-1.6159-4.596-0.02948-7.9388 0.97497-2.055 2.6188-4.0004 3.9951-4.8355 0 0 2.4019 0.71724 3.4517 4.0208" fill="#ea541f"/>
  <path d="m30.076 58.246c-0.41417 0.74672-1.1223 1.2274-1.529 1.0022-0.40662-0.22598-0.40813-1.1171 0-1.8524 0.40662-0.73463 1.1639-1.207 1.5766-0.99235 0.46179 0.23883 0.36505 1.0951-0.04761 1.8426" fill="#fff"/>
  <path d="m16.852 48.578c-11.603-3.0179-14.16-15.754-14.151-18 0.11186 1.0165 5.7569 12.351 20.31 13.213 0 0-3.5696 1.8048-6.1189 4.8257z" fill="#cb4818"/>
  <path d="m80.626 47.888c-4.3352 9.2033-11.34 11.833-11.34 11.833-2.6664 1.4247-9.1141 2.8493-14.117 2.5206 0 0-0.19575 2.9113-1.0853 4.7743 0.64998 0.45801 8.1187 1.7731 14.515-1.6476 11.808-6.3161 12.028-17.481 12.028-17.481" fill="#cb4818"/>
  <path d="m25.914 14.958s5.5437 3.2242 9.0612 9.8283c-1.0657-8.2555-5.2172-12.861-5.2172-12.861-0.21238-0.58272-2.2553-0.60917-3.8432 2.9536" fill="#dcc553"/>
  <path d="m72.168 37.555c2.4465-3.8349 3.5666-6.9782 3.5666-6.9782s-10.45 3.7245-16.342 9.86c0 0 8.3288-2.9922 12.775-2.8818" fill="#dcc553"/>
 </g>
 <g fill="#cb4818" stroke-width=".75579">
  <path d="m22.61 25.758c0.21238 1.7481 4.7275 7.5088 6.4446 9.1609 2.4102 2.318 0.848 2.8864-0.89183 1.2198-1.6983-1.6272-6.7258-6.3985-5.5528-10.381"/>
  <path d="m23.254 14.424c0.08918 1.0574 2.6324 8.8647 5.3548 13.053 1.4005 2.154 0.01814 1.9356-1.071 0.44667-0.45499-0.62126-1.7406-2.3989-2.9453-5.7735-1.2047-3.3754-1.3385-7.7264-1.3385-7.7264"/>
  <path d="m73.476 38.003c-0.70666 0.74899-5.7962 5.8763-10.587 7.5715-1.0589 0.37487-0.7044 1.204 0.24488 0.93642 0.94927-0.26755 3.6913-1.3907 6.7862-3.7457 3.095-2.3543 3.556-4.7622 3.556-4.7622"/>
  <path d="m71.684 45.334c-0.27133 0.34691-4.8046 5.029-10.451 6.7152-0.8873 0.26528-0.73312 0.93718-0.1897 0.85631s3.6369-0.7762 6.9223-2.943c3.2847-2.1676 3.7185-4.6285 3.7185-4.6285"/>
 </g>
 <g stroke-width=".75579">
  <path d="m15.63 50.296c-1.4745-1.009-2.2424-2.581-2.4261-2.9725 0 0 2.51 1.0974 3.7268 1.1375 0 0-0.54946 0.70591-1.3007 1.8351" fill="#dcc553"/>
  <path d="m41.184 80.096c-13.312-0.62353-20.465-7.468-21.392-8.4618-1.049-1.1246-1.5358-1.3702-4.302-2.126-9.263-2.5304-13.534-10.012-13.909-11.81 0 0 1.4232 9.7414 14.91 14.161 0 0 3.822 5.7281 13.347 8.1021 5.2973 1.3204 9.4141 1.4693 12.147 1.3559-0.41115-0.41568-0.65678-0.86236-0.80189-1.2214" fill="#dadcdc"/>
  <path d="m46.762 80.027c-1.9787 0.13906-3.8341 0.15116-5.5792 0.06953 0.14587 0.359 0.39074 0.80567 0.80189 1.2214 2.9257-0.12244 4.5446-0.70969 4.7773-1.2909" fill="#363433"/>
 </g>
 <g fill="#dcc553" stroke-width=".75579">
  <path d="m30.706 80.113c-0.09447-0.02041-0.18441-0.13-0.27964-0.15116-2.4427-0.53434-4.4985-1.467-6.2761-2.3535l-0.15796 0.3522-0.82683 5.9125s3.6928 2.8849 9.5789 1.8464z"/>
  <path d="m27.62 104.99c-3.4298-3.1962-4.4425-7.4045-4.4425-7.4045 0.38923 1.0914 3.3512 2.6498 4.9882 2.3377z"/>
  <path d="m25.438 117.46c-0.31214 0-1.8713-0.0786-2.1827-1.4028-0.31214-1.3256 2.1041-2.417 2.1041-2.417 0.0786-2.4941-1.8698-7.4045-1.8698-7.4045 2.4155-2.572 1.4806-4.8325 1.4806-4.8325s1.4027 2.1041 2.6498 3.5855l-0.85707 8.6515s-2.1835 1.0914-2.027 2.2606c0.15645 1.1692 0.70213 1.5592 0.70213 1.5592"/>
  <path d="m35.024 112.63c-3.1962 0.15645-3.3814 1.854-3.3814 1.854l-1.529-0.13906c0.62353-1.0914 2.1041-6.1567 2.1041-6.1567s0.93567 3.3504 2.8062 4.4418"/>
  <path d="m46.872 112.63c3.1176-0.62353 3.9452-2.9053 3.9452-2.9053-3.1169 1.6363-8.0514 1.495-11.716 1.105-3.6633-0.38923-5.7916-3.1879-6.2595-4.7464l-0.62428 2.1049s1.0135 3.5069 2.8062 4.4418c0 0-3.5069 0.31214-3.4298 2.0263 0.0786 1.7149 5.2225 0.85782 6.3146 0.85782 1.0906 0 6.6245-0.46783 7.248-0.46783 0.62428 0 3.1176-0.31138 1.7149-2.4163"/>
  <path d="m54.822 104.45c-0.2343 1.4806-4.0057 4.4493-6.9895 5.0578-2.3845 0.48521-2.4314 1.7678 0.11034 1.4919 2.5425-0.27662 3.9241-1.9333 5.1386-3.426 1.2168-1.4919 1.7406-3.1237 1.7406-3.1237"/>
  <path d="m34.184 102.6c-0.71876 2.321-4.9179 10.721-5.8574 11.771-0.93945 1.049-1.7119 2.191-3.5915 1.5373 0 0 0.1111 1.7232 2.1555 1.7784 2.0437 0.0552 2.7617-2.321 3.6459-4.4214 0.88428-2.0996 3.6474-10.665 3.6474-10.665"/>
  <path d="m70.212 91.361c-0.35824 3.2212-3.6671 10.914-15.117 12.076 0 0-0.73765 3.955-4.8968 6.6147l-0.09674 0.67643s7.7982 1.9703 13.348-2.2727c6.5769-5.0298 6.7621-17.094 6.7621-17.094"/>
 </g>
 <g fill="#0f141b" stroke-width=".75579">
  <path d="m41.308 44.316c0.34237-3.2219 1.1972-11.861-2.1434-23.303-3.3655-11.53-14.99-20.22-15.775-20.108-0.55551 0.079358-5.1515 6.1204-6.9125 11.274-0.073311 0.21464-0.95078-0.783-0.88352-0.94398 1.6998-4.1123 4.9149-9.0324 6.5965-10.5 1.0876-0.94927 1.2395-0.93038 2.4797-0.2222 3.2386 1.8494 12.232 9.1541 15.58 20.161 3.2884 10.815 2.2893 20.087 1.6635 23.678-0.16476 0.93945-0.7044 0.88881-0.60539-0.03552"/>
  <path d="m52.262 47.292c6.6532-9.5305 18.038-15.248 24.011-17.388 1.213-0.43534 1.4473-0.02343 0.25243 0.46406-5.4379 2.222-17.826 9.2312-23.878 17.474-0.09145 0.12319-0.53283-0.34086-0.38621-0.54946"/>
  <path d="m35.446 44.149c2.8992-20.112-5.9836-32.1-6.4235-32.909-0.58196-1.0589-0.27511-1.1579 0.39603-0.22371 0.5812 0.80794 4.6209 5.7984 6.5814 14.924 1.1654 5.4175 1.2584 10.674 0.09523 18.284-0.13378 0.87898-0.75504 0.82306-0.64922-0.07558"/>
  <path d="m15.498 49.718c5.7508-7.7015 14.147-10.054 20.732-9.3907 0.24639 0.02419 0.14662 0.73387-0.10354 0.72027-5.8876-0.40964-14.411 1.9749-20.187 9.0015-0.57667 0.70137-1.0453 0.47766-0.44138-0.33104"/>
  <path d="m48.68 43.28c-1.6544-1.2501-5.0902-2.9529-6.558-3.3126-0.24034-0.05971-0.13831-0.97497 0.10354-0.9266 1.6733 0.33406 5.2414 2.1056 6.7855 3.8712 0.73463 0.83893 0.46179 0.96666-0.33104 0.36807"/>
  <path d="m45.652 76.749 0.05971-0.04232c2.318-1.6446 7.8043-6.304 8.6954-14.04 1.043-9.0634-1.2168-13.519-3.3028-16.386-0.66887-0.91904-0.3197-1.1775 0.40964-0.30534 2.2643 2.7095 5.2233 7.2828 4.144 16.655-0.93113 8.0953-7.0999 13-9.5169 14.714 0 0-0.69079-0.45196-0.489-0.59556"/>
  <path d="m11.722 65.797c-3.0519-0.8223-8.2321-5.2747-10.428-9.5524-2.3248-4.5272-0.87445-11.397-0.53963-12.6 0.48673-1.7436 1.1065-1.1019 1.5993-0.16778 1.5486 2.94 5.2822 7.991 12.182 9.3446 0.99311 0.19499 0.88503 0.50865-0.12622 0.44138-8.3273-0.55173-11.63-6.9631-12.785-9.786-0.053661-0.12848-0.12848-0.22447-0.18517 0.04686-0.26377 1.2569-1.3544 8.0839 0.83137 12.341 2.2455 4.373 7.0901 8.3674 9.5577 9.4549 0.84497 0.3726 0.59934 0.66736-0.10581 0.47766"/>
  <path d="m29.484 80.052c-1.0135-0.33557-0.9009-0.80416 0.12924-0.5162 10.106 2.8206 16.671 0.70062 16.837 0.40586 0.16627-0.29551-2.3475-5.5483-3.7895-7.3727-0.64544-0.81625-0.30761-1.0097 0.45121-0.30005 1.7156 1.6053 4.4214 7.1604 3.8598 8.0272-0.23807 0.36807-6.2889 3.4585-17.487-0.24412"/>
  <path d="m47.156 99.029c-0.10128-0.17761-1.6174-1.1957-3.7941-2.0157-2.1752-0.81852-5.258-1.9688-7.508-4.6375-2.1019-2.4918-4.8779-9.529-5.6737-12.315-0.06878-0.23883 0.8155 0.02041 0.88352 0.25924 0.75655 2.6468 3.661 8.8994 5.6526 11.261 2.0988 2.4873 4.7637 3.7087 6.9616 4.5907 1.9537 0.78527 3.7359 1.8441 4.1342 2.5417 0.12319 0.21464-0.57364 0.46028-0.65603 0.31592"/>
  <path d="m25.908 117.71c-1.9121 0.13075-3.2665-0.41266-3.3345-1.6348-0.07558-1.3529 1.7338-2.2825 2.3528-2.615 0.10354-2.3074-1.7489-6.3501-3.1328-9.8668-0.34162-0.86613-0.67341-1.7081-0.97043-2.5002-1.5781-4.2113-0.46783-9.6152 0.74219-13.406 1.1375-3.5628 1.9356-9.306 1.9824-9.9402 0.01738-0.2479 0.75201-0.10279 0.73387 0.14436-0.04761 0.64469-0.49958 6.4091-1.668 10.069-0.95607 2.9937-2.3248 8.6387-0.75654 12.817 0.29476 0.78753 0.62504 1.6265 0.96363 2.4866 1.4708 3.7381 3.1373 7.9743 2.8833 10.456-0.01587 0.15721-0.11412 0.29401-0.25697 0.36052-0.50714 0.23731-1.8116 1.0377-1.764 1.891 0.05215 0.93416 1.3839 1.074 2.1737 1.074 0.2479 0 0.29929 0.66434 0.05139 0.66434"/>
  <path d="m25.992 117.9c-1.3022-0.36051-1.7519-1.2901-1.8154-2.1041-0.08314-1.0762 1.6892-2.0316 2.2651-2.3928 0.23203-0.9009 0.65225-8.155 0.85555-9.9235 0.12622-1.0959 0.44289-3.8145 0.60161-6.7454 0.14209-2.6075 0.38243-5.1182 0.48824-6.2375 0.08465-0.91526 0.46783-0.84497 0.46783 0.07407 0 1.2365-0.0582 3.7283-0.15494 6.2133-0.11639 3.0126-0.32575 5.9927-0.44818 6.9737-0.07029 0.55626-0.89108 9.3234-1.1503 9.9968-0.03628 0.0937-0.10354 0.17308-0.1897 0.22523-0.74823 0.44365-1.764 1.2992-1.73 1.7512 0.04762 0.6137 0.28947 1.4247 1.6779 1.4821 1.2652 0.0461 1.9787-0.88881 3.0746-3.7079 1.0921-2.807 3.8908-11.855 4.0986-12.957 0.21313-1.139 0.6787-4.2256 0.6787-5.5679 0-1.0339 0.40435-1.0286 0.50109 0 0.1572 1.662-0.08994 4.8333-0.3129 6.0206-0.2343 1.2523-3.1033 10.197-4.1274 12.83-0.72102 1.8524-1.3899 3.3277-2.6453 3.9399-0.34011 0.16552-1.1276 0.40813-2.1351 0.12924"/>
  <path d="m23.618 99.629c-1.5486-2.7579-1.4519-5.249-1.2826-6.6766 0.09447-0.79509 0.38621-0.72783 0.38621 0.07256 0 1.2055 0.07331 3.6285 1.2833 6.4114 0.30534 0.70363-0.04686 0.80038-0.38696 0.19273"/>
  <path d="m27.272 105.44c-0.76939-0.81474-2.2515-3.1252-2.7337-4.0881-0.36127-0.72178-0.06802-0.88352 0.38696-0.21767 0.62957 0.91905 2.2092 2.844 2.9083 3.5832 0.17005 0.18064-0.47312 0.81701-0.56155 0.72254"/>
  <path d="m31.442 114.86c-0.11412-0.028-0.9334-0.13226-1.3377-0.2222-0.24185-0.0537-0.08692-0.79358 0.15342-0.74294 0.36354 0.0824 1.4027 0.0937 1.4027 0.0937 0.24034 0.059-0.18139 0.88126-0.21842 0.87143"/>
  <path d="m50.302 105.11c4.3722-3.9052 7.1029-9.2206 7.7015-11.381 0.24941-0.89863 0.24336-1.1564 0.11412-1.278-0.13-0.12093-0.4051-0.03174-1.6665 0.81701-0.588 0.39603-6.9661 5.3306-10.204 6.7477-1.0808 0.47237-1.173 0.13151-0.17005-0.48824 2.7866-1.7179 9.2645-6.5179 9.8835-6.914 0.99538-0.63638 1.9401-1.1707 2.5712-0.72858 0.5676 0.39754 0.44894 1.2947 0.28267 2.0308-0.50638 2.2447-3.5885 8.4777-8.2154 11.62-0.85404 0.57969-1.1745 0.35976-0.29702-0.42475"/>
  <path d="m34.448 112.77c-1.736-1.1579-2.5228-4.3571-2.5228-5.1688 0-0.24865 0.90015-0.24865 0.90015 0 0 0.57365 0.70591 3.4766 2.1215 4.4206 1.4557 0.97043 4.0548 1.5524 7.477 1.1163 0.99613-0.11639 1.204 0.27133 0.21918 0.47086-4.2415 0.8548-7.0228-0.0574-8.195-0.83893"/>
  <path d="m33.892 101.33c0.44063-1.4965 2.5954-2.9574 3.8288-3.3686 1.1292-0.37638 1.2259 0.07256 0.25017 0.43911-1.0725 0.40208-2.8811 2.0474-3.2151 3.1826-0.05895 0.19651-0.93416-0.0144-0.86387-0.25319"/>
  <path d="m47.872 110.62c3.3973-0.88352 5.15-3.42 5.8846-4.7925 0.70969-1.3264 1.1012-2.448 0.9659-2.7186-0.13529-0.27057-0.77695-0.16098-1.928 0.50713l-0.33028-0.57364c1.0657-0.61824 2.213-1.0793 2.7828-0.38999 0.40662 0.48975-0.03325 1.826-0.30458 2.5372-0.9266 2.4382-3.1804 5.3623-6.9177 5.9541-0.89334 0.14058-1.2304-0.24487-0.15267-0.52376"/>
  <path d="m49.612 110.38c-0.6326 0.75201-1.6189 1.6098-2.6521 1.7428-1.1851 0.15267-0.98177 0.60917-0.16476 0.86463 0.07407 0.0423 0.16476 0.22673 0.04157 0.64695-0.229 0.77771-1.891 1.0626-3.8319 1.0392-0.87143-0.0113-2.1873 0.0491-5.385 0.32575-3.3474 0.28871-4.8673 0.13528-5.4092-0.0635-0.21313-0.0771-0.45574-0.25697-0.20028-0.63259 0.29778-0.43987 1.2856-1.037 3.1078-1.3876 0.24412-0.0476-0.28644-0.55173-0.53283-0.53284-2.0694 0.15645-3.4456 1.2282-3.4456 2.278 0 0.27889 0.11488 0.53284 0.33482 0.73312 0.95607 0.87672 4.4403 0.65527 6.2224 0.50109 3.1705-0.2736 4.4682-0.31063 5.3283-0.32272 2.2938-0.0318 4.2491-0.2411 4.6738-1.6847 0.12848-0.4376 0.05366-0.83817-0.02948-1.1042 1.8774-0.50789 2.8644-2.0512 3.3481-2.8592 0.12848-0.21313-1.1798 0.18743-1.4058 0.45574"/>
  <path d="m66.172 92.617c-0.31743-0.47615-0.63713-1.7587-0.49655-5.3132-1.504 0.72329-4.8015 1.9439-5.9602 1.6302-0.38394-0.10354-0.66207-0.27511-0.54644-0.88125 0.26377-1.3854 2.9604-3.9823 4.5226-5.4447-2.7012-0.74294-4.599-2.315-5.4281-3.0262l0.27813-0.50562c0.85102 0.73085 2.8448 2.4412 5.7123 3.0557 0.47237 0.10128 0.53283 0.23581 0.1572 0.57894-2.7095 2.4782-5.029 5.2323-4.7358 5.6548 0.294 0.42022 4.2997-0.78753 6.1892-1.922 0.68475-0.41266 0.53283-0.14662 0.51016 0.3061-0.13151 2.6392-0.04308 5.648 0.28644 5.741 0.33104 0.09145 1.8925-2.7382 2.3732-3.8515 0.4958-1.1511 0.5933-0.0325 0.59934 0.10128 0.0015 0.01058 0.06046 1.1155 0.6326 1.6877 0.13151 0.13151-0.3454 0.60841-0.4769 0.47615-0.30836-0.30761-0.47615-0.92131-0.59783-1.2932-0.52376 1.0483-1.4383 2.801-2.2009 3.2159-0.22069 0.12017-0.51318 0.24866-0.81852-0.21011"/>
  <path d="m53.99 67.333c-0.17232-0.18819 0.08314-0.64544 0.3333-0.58423 2.8516 0.70364 6.7175 0.57894 9.9598-0.35673 4.0064-1.1548 8.3991-3.5341 12.221-8.975 3.8893-5.5377 4.3639-10.478 4.5914-12.853l0.28266 1.1662c-0.23505 2.4533 0.01587 6.7432-4.0117 12.477-4.1198 5.8657-8.486 7.9932-12.802 9.1881-3.3678 0.93189-7.7741 1.1435-10.575-0.06198"/>
  <path d="m61.296 52.696c2.5289-0.79207 4.5665-1.8736 6.1378-2.9725 2.2545-1.5758 3.5499-3.1887 3.9611-4.0389 0.08389-0.17308 0.18214-0.42475-0.25546-0.41417-1.3317 0.03552-4.4433 0.42702-7.7506 1.3793-0.52074 0.14965-0.63562-0.17534-0.14284-0.39074 6.3721-2.7806 9.0922-6.4151 9.8434-7.9517 0.18517-0.37865 0.28191-0.5026-0.32348-0.51469-1.9084-0.0393-7.4294 0.48673-13.968 3.454-0.17459 0.0786-0.25394-0.45725-0.0854-0.5487 7.4959-4.1221 14.626-3.692 15.047-3.2764 0.16703 0.16401 0.11715 0.40964 0.09674 0.50184-0.18819 0.91224-1.538 4.6028-7.1127 7.279 1.8933-0.37034 3.4865-0.49504 4.3843-0.46406 0.86765 0.02948 1.0309 0.39528 0.75201 1.1526-0.38243 1.0332-1.4655 2.8576-3.9853 4.5204-1.5584 1.0294-3.717 2.0867-6.4673 2.5924-0.51243 0.09372-0.77771-0.1043-0.13151-0.30761"/>
  <path d="m24.614 78.39c-4.28-1.3408-7.7151-4.8794-8.5178-6.1325-3.1622-0.90695-6.8701-2.7957-10.174-5.803-5.6352-5.128-5.4016-13.52-5.413-13.866-0.006802-0.2479 0.73992 1.4655 0.90846 2.4042 0.56684 3.1622 2.095 7.6093 5.3986 10.617 2.9763 2.708 6.0357 4.6141 8.8798 5.5823 0.6719 0.22749 0.95305 0.34011 1.1027 0.51167 0.66056 0.75655 3.7956 4.2959 7.5617 5.9768 1.2841 0.57364 1.4209 1.0747 0.25394 0.70969"/>
  <path d="m16.716 48.802c-6.357-1.306-9.7913-6.0743-11.774-9.5335-2.8675-5.0011-3.6709-10.725-2.5961-17.466 1.2221-7.6652 6.7235-14.553 8.5737-16.516 0.69835-0.74143 1.0808-0.73236 1.5479-0.040813 0.11942 0.17685 0.27208 0.41039 0.4769 0.72254 1.6794 2.5689 4.9807 9.0294 10.97 13.215 0.19575 0.13604 0.02192 0.89561-0.18366 0.77015-7.019-4.2861-9.8487-10.778-11.554-13.569-0.16325-0.26604-0.33708-0.5162-0.46557-0.70591-1.4549 1.4806-7.0145 8.4845-8.2956 16.256-1.0483 6.369-0.19046 12.376 2.3361 16.856 1.7822 3.1592 5.184 8.2404 11.25 9.4859 0.23959 0.04913-0.34918 0.57894-0.38167 0.57213"/>
  <path d="m8.8112 27.041c-2.5296-9.2153 0.1504-16.862 1.8199-20.642 0.33482-0.75655 1.6612-1.2916 1.5275-1.1042-1.0249 1.4262-4.9595 12.145-2.8909 21.642 0.24563 1.1261-0.15947 1.1866-0.4565 0.1043"/>
  <path d="m28.658 36.859c-7.5874-6.0743-6.6479-10.87-6.6222-11.062 0.09296-0.70137 0.55777-0.60388 0.84497-0.53661 0.88201 0.20558 2.3838 0.7966 3.6293 1.6847-3.6399-5.1333-3.9452-11.525-3.6958-12.851 0.09825-0.5351 0.36051-0.5555 0.91224-0.39981 1.4836 0.41871 8.0567 3.1879 11.626 11.855 0.065 0.1572-0.065 0.94096-0.1368 0.78527-3.9241-8.3953-11.381-12.173-11.704-12.056-0.31819 0.11412 0.66207 8.9123 4.7403 14.126 0.39528 0.50487 0.11488 0.6787-0.37865 0.27284-1.7398-1.4247-4.899-2.9446-5.1492-2.8025-0.25999 0.14889-0.0053 5.0071 6.2829 10.656 0.6001 0.53963 0.21691 0.78224-0.34918 0.32877"/>
  <path d="m38.616 66.129c0.87823-2.9816 1.0173-6.2322 0.48219-10.435-0.10808-0.848 0.16552-0.89259 0.35598-0.05819 0.83288 3.6474 0.69382 7.7499-0.51469 10.604-0.31214 0.73614-0.55777 0.68626-0.32348-0.11034"/>
  <path d="m41.298 67.467c2.7745-5.2119 3.4411-10.903 3.6467-12.784 0.06273-0.5812 0.27208-0.54266 0.29778 0.04006 0.0786 1.8033-0.47615 7.9275-3.6467 12.922-0.30912 0.48597-0.59632 0.38167-0.29778-0.17837"/>
  <path d="m44.41 67.646c1.5615-1.8116 3.3497-5.5112 4.0828-7.5919 0.26604-0.75579 0.46557-0.68777 0.2804 0.09447-0.53434 2.2787-2.2477 6.0834-4.1432 7.7083-0.50487 0.4308-0.72027 0.36958-0.21994-0.21086"/>
  <path d="m33.798 80.179c-1.2516-0.24034-2.7783-1.21-2.0316-3.7079 0.14814-0.49429 0.35447-0.39452 0.34086 0.13-0.02192 0.78375-0.11488 2.4548 1.7678 3.228 0.49278 0.2018 0.29854 0.42324-0.07709 0.34993"/>
  <path d="m41.97 81.435c-1.7519-1.2168-1.5947-3.1872-1.0702-4.1304 0.99764-1.7935 3.3738-2.0021 4.6715-1.0453 0.14965 0.1111-0.12924 0.40888-0.29702 0.32801-1.5879-0.77015-3.3225 0.16023-3.7767 1.0286-0.43231 0.82759-0.49051 2.4556 0.73085 3.4812 0.14209 0.12017-0.19122 0.3847-0.25848 0.33784"/>
  <path d="m34.662 68.93c-0.14209-3.1003-0.50336-7.9358-2.4714-10.913-0.94247-1.4269-2.5145-2.4374-4.0888-2.6052-1.1095-0.11866-2.3959 0.27208-3.3527 1.4012-1.634 1.9265-2.7057 3.8855-2.2621 9.56 0.05517 0.70364-0.13378 0.68777-0.26377-0.0023-0.92584-4.9459-0.01587-8.1844 1.733-10.195 1.1095-1.275 2.6808-2.0966 4.302-1.9764 0.91224 0.06726 3.3444 0.47388 5.094 3.2733 1.4768 2.3626 2.3543 7.0644 1.7217 11.446-0.10883 0.75277-0.37638 0.77317-0.41191 0.01058"/>
  <path d="m25.924 68.601c-2.0905-1.0218-1.9635-5.1484-0.41795-8.4059 0.99613-2.0958 2.6906-3.8591 4.1516-4.7464 0.15947-0.0975 0.62202 0.30761 0.46254 0.40435-1.334 0.81096-2.8493 2.6974-3.7752 4.6496-1.5592 3.2832-1.603 6.8558-0.11488 7.5632 1.4904 0.70969 4.1493-1.6249 5.707-4.9089 0.50638-1.0664 0.94625-2.6143 1.139-3.6852 0.0325-0.1829 0.62579 0.35295 0.59254 0.53737-0.20255 1.1276-0.49806 2.377-1.0158 3.5038-1.3634 2.9672-4.5756 6.1408-6.7288 5.088"/>
  <path d="m29.566 62.252c-0.99689 2.1215-1.6023 2.9173-1.8736 2.7896-0.26906-0.12924-0.05895-1.2659 0.94549-3.3398 0.87218-1.7988 1.6695-2.8584 1.9394-2.7292 0.27057 0.12773-0.14662 1.4413-1.0112 3.2794"/>
  <path d="m46.25 70.84c-0.78678 1.1518-1.5199 1.8071-1.6318 1.7134-0.06651-0.05517 0.35371-0.84271 1.148-2.0278 0.66207-0.98782 1.3839-1.8585 1.5305-1.7572 0.14738 0.10128-0.36656 1.0755-1.0468 2.0716"/>
  <path d="m10.72 52.179c-1.569-2.3263-2.8735-6.1393-3.2408-9.3295-0.026453-0.22296 1.1677 0.72178 1.1941 0.94549 0.35598 3.0783 1.4874 6.1484 2.9249 8.4701 0.12017 0.19575-0.79131 0.04384-0.87823-0.08616"/>
  <path d="m68.9 59.652c8.4059-4.0571 11.577-12.266 12.066-15.069 0.42324-2.4246 0.51318-4.7267 0.39679-5.8884-0.05895-0.58649-0.18744-0.55097-0.56155-0.294-1.3007 0.89561-3.3935 2.0482-5.2218 2.7957-2.1366 0.87445-4.9497 1.6197-5.8355 1.9227-0.2411 0.08389 0.52527-1.1503 0.8616-1.2629 0.77846-0.25772 2.6188-0.72102 4.6791-1.5297 1.7882-0.70213 3.8923-1.8396 5.0645-2.5342 1.0626-0.62882 1.5985 0.01209 1.7617 0.81474 0.31063 1.5237 0.10959 4.1984-0.22825 6.1317-0.76184 4.3685-4.5771 12.371-12.779 15.399-0.76032 0.2804-1.1057-0.05064-0.20406-0.48597"/>
  <path d="m46.642 41.518c7.7733-9.1609 19.837-14.105 24.601-15.733 4.9383-1.6869 7.0606-1.7164 7.6524-1.1322 1.1307 1.1133 0.96136 8.186-4.6201 16.519-0.14209 0.21162-1.1798 0.52225-1.0475 0.3061 6.1219-10.089 5.4576-15.866 5.187-16.232-0.26906-0.3658-3.921 0.34313-6.9404 1.4655-5.5195 2.0505-16.441 6.8527-24.061 15.269-0.09825 0.10808-0.9402-0.2872-0.77468-0.48144z"/>
  <path d="m49.846 111.16c-0.23505-0.0809 0.0038-0.93189 0.23958-0.86689 2.1812 0.60312 7.8443 1.5562 13.319-2.6211 5.3336-4.0692 5.8936-12.566 6.134-16.194 0.46557-7.0561 2.807-10.967 3.0715-11.389 0.78073-1.2425 1.2478-2.2553 1.3823-2.7254 0.14058-0.48824-0.01663-0.64016-0.4633-0.37638-0.54719 0.32272-1.5902 0.99916-3.1441 1.6212-3.6263 1.4519-8.0333 1.6484-11.593 1.1292-3.5583-0.51923-7.4793-0.91828-12.873 2.8335-5.5475 3.8553-6.0025 9.4678-6.1143 11.945l-0.78375 0.01285c0.1179-2.6105 0.28115-8.7777 6.1929-12.888 5.6873-3.9535 10.247-3.3172 13.706-2.9128 3.5741 0.41795 7.3878 0.39226 10.957-0.81928 1.4602-0.49504 2.5175-1.08 3.0678-1.405 1.5531-0.91753 2.0255-0.14965 1.6627 1.1344-0.19348 0.68323-0.72405 1.7754-1.3536 2.9498-0.60236 1.1216-2.278 5.0993-2.6967 10.995-0.26604 3.7495-0.75881 12.678-6.4159 16.994-5.518 4.2098-11.629 3.4978-14.296 2.5825"/>
 </g>
 <path d="m48.004 68.756c-0.4565 0.60841-0.88352 0.70893-1.0536 0.55777-0.15796-0.14133-0.06424-0.66207 0.40435-1.2342 0.44289-0.54341 0.86614-0.71498 1.0105-0.57516 0.14284 0.14133 0.14738 0.57667-0.36127 1.2516" fill="#fff" stroke-width=".75579"/>
 <g fill="#0f141b" stroke-width=".75579">
  <path d="m46.79 74.989c1.0785-0.99915 2.584-2.5757 3.6527-4.2438 0.73085-1.1397 1.7421-3.4479 0.81852-4.076-1.1465-0.77922-2.7836 0.61143-4.2324 1.9409-1.7723 1.6257-3.2915 3.2529-3.6044 3.6051-0.46934 0.52603-0.7505 0.18517-0.42475-0.27964 0.02872-0.04006 1.4761-2.3618 3.4003-4.2135 1.8494-1.7799 4.206-3.0919 5.6193-2.2356 1.3944 0.84497 0.36807 3.3293-1.1647 5.5626-1.2939 1.8849-2.8478 3.4048-3.8991 4.1765-0.40284 0.29551-0.54115 0.11035-0.16552-0.23656"/>
  <path d="m44.348 74.497c4.7471-3.6097 4.7471-7.1558 4.7471-8.3205 0-0.18668 0.50487-0.16703 0.50487 0.0189 0 3.3474-1.4768 6.3328-4.8552 8.715-0.06197 0.04384-0.54492-0.30156-0.39679-0.41342"/>
  <path d="m30.612 80.403c-0.02343 0-0.04686-3e-3 -0.07029-0.0091-2.7836-0.6462-5.2172-1.4904-6.7454-2.3097-0.13982-0.07482-0.75201-0.55097-0.67643-0.69004 0.07482-0.13982 0.42475-0.10883 0.5676-0.04006 1.5698 0.76562 4.2679 1.829 6.9812 2.4677 0.15343 0.03628 0.25924 0.21011 0.22069 0.36354-0.0325 0.13-0.14889 0.21767-0.27738 0.21767"/>
 </g>
</svg>
