<?xml version="1.0" encoding="UTF-8"?>
<!-- Created with Inkscape (http://www.inkscape.org/) -->
<svg version="1.1" viewBox="0 0 140.76 119.88" xmlns="http://www.w3.org/2000/svg">
 <g transform="translate(-31.555 -131.48)" stroke-width="2.7864">
  <g fill="#81cde4">
   <path d="m63.446 149.65c-5.3973 2.8895-8.0193 11.739-4.8902 22.467 1.2901 4.4221 6.0521 12.767 10.831 16.423-2.923 5.4112-3.1181 9.2676-2.2208 10.792 2.9787 5.0601 26.1 8.5347 44.903-1.6607 19.296-10.455 27.909-29.7 25.111-35.042-1.5966-3.0512-7.2447-5.0016-12.542-4.7063-2.466-18.204-14.721-29.82-26.894-24.548-9.1283 3.954-9.967 20.026-2.31 32.15-1.187 0.52367-4.0821 2.0954-5.1297 2.87-2.2403-5.1326-5.1577-11.438-9.8472-15.529-5.0796-4.4304-11.115-6.3753-17.011-3.2155"/>
   <path d="m110.81 221.26c-11.121 1.3263-13.757 5.9657-13.442 8.727 0.36807 3.1626 5.779 5.9128 15.54 5.9128-7.4815 2.4047-11.029 5.3053-10.597 7.4537 0.4431 2.2152 6.6372 3.9818 16.326 1.1202 7.0552-2.0842 13.341-7.7017 12.241-12.093-0.1864-0.74957-1.3848-1.4601-4.0431-1.4991-2.6583-0.0395-7.4509 0-10.296-0.9362 2.4353-0.22274 5.6174-0.82476 7.5261-2.0591 2.2626-1.4629-6.9465-7.3785-13.255-6.6261"/>
   <path d="m138.6 216.55c1.7916-3.5861 5.1214-6.1301 8.8747-6.966 6.3195-1.4043 14.746-0.81646 16.097 2.4715 1.0811 2.622 0.89166 5.6425-2.505 9.3596-1.201 1.3124-5.1326 5.0184-7.1555 6.3642 1.0115 0.37596 3.2601 0.93904 5.6926 1.2762 2.4326 0.33173 6.3279 0.96969 8.1976 2.0954 3.327 1.9951 4.4749 4.163 3.8592 5.4642-1.1814 2.4882-8.2283 3.8062-14.342 2.8477-4.4973-0.70533-10.65-3.0902-12.879-5.7651-1.6719-2.0063-1.5409-3.3382-1.1591-3.9707 0.33411-0.56316 0.67453-1.0086 1.7582-1.8724 1.0867-0.86101 3.6307-3.1821 4.7174-4.9432-1.6468 0.89727-7.3005 3.1097-8.6853 3.2992-2.0536 0.27565-4.0848-6.4338-2.4715-9.6605"/>
   <path d="m104.91 211.2c2.6388 8.571 10.187 17.226 23.364 17.226 3.8926 0 9.8889-1.1703 13.929-2.5468 2.2403-0.76931 3.7032-4.4972 3.7032-8.5765 0-5.1493-1.7638-9.8137-6.1747-14.941-3.366-3.9037-8.1781-7.462-13.743-9.2091-5.8125-1.8223-22.645 12.968-21.079 18.048"/>
  </g>
  <path d="m138.43 200.97c5.779-0.9892 11.463-8.2228 10.056-17.05 4.1685-3.5221 6.3168-6.9521 6.3168-12.854 0-12.057-11.238-19.583-19.168-15.902-2.9843-3.3994-8.5431-4.9459-11.884-2.6193 0.27566 1.4685 0.77484 3.7199 0.88889 5.3778 5.3694-0.0861 11.628 1.6106 12.742 5.2301 1.1202 3.6446-0.93067 9.262-3.795 13.865-3.4747 5.584-7.0134 10.209-12.455 14.389 1.8196 0.50155 4.5418 1.6216 5.2663 1.8724 0.72192 0.25038 4.9403 1.9478 7.0134 3.4942 2.0704 1.5464 5.0184 4.1964 5.0184 4.1964" fill="#fffeee"/>
  <path d="m90.502 168.29c-0.49049 0.34832-1.474 1.1006-1.8474 1.7471-0.94742 1.644-1.0616 3.0734-1.1229 5.6926-0.0474 1.8279 0.3341 5.1326 0.87491 6.9103 0.0893 0.30409 1.3013 1.6942 2.3071 1.0032 1.736-1.1982 3.6224-5.0435 3.6084-5.7707-0.079-3.5805 1.6802-8.7159 2.5942-10.159-0.39887-0.69665-1.3236-2.1929-1.3236-2.1929-1.2483 0.44547-4.2186 2.1428-5.0908 2.7698" fill="#005b97"/>
  <path d="m63.892 157.17c-5.035 2.5161-4.6951 12.444 0.93344 22.765 3.9512 7.2418 11.338 11.65 16.774 8.4986 4.4248-2.5608 3.288-12.074-0.63503-19.92-4.2438-8.4846-11.94-13.91-17.072-11.343" fill="#ffe893"/>
  <path d="m98.137 139.56c-6.2165 2.6944-6.0549 13.848-1.8697 22.915 4.4472 9.641 12.436 13.679 18.831 10.483 5.2803-2.6388 4.3607-14.506 0.6382-21.829-4.9403-9.7134-12.244-13.888-17.599-11.569" fill="#ffe893"/>
  <path d="m95.434 204.37c0 5.5282 5.492 8.0388 9.9837 6.966 0.81923 4.7286 4.528 7.1081 9.5853 5.6648 6.1858-1.7693 6.8546-8.3926 4.266-10.981 3.7533-1.5743 5.598-4.8818 6.367-7.3394 1.304-4.1712 0.78589-7.6431-1.0003-10.51-1.1703 1.5242-9.2872 8.036-14.651 10.51-5.3666 2.4744-11.931 4.3441-14.453 4.4917-0.12242 0.42652-0.0971 0.77484-0.0971 1.1982" fill="#fffeee"/>
  <path d="m109.37 199.05c12.132-6.0632 18.914-14.021 22.564-19.418 4.0709-6.0187 5.949-12.049 5.2913-16.771-20.118 24.807-41.685 35.892-69.989 36.441 4.3941 4.2019 13.038 4.7397 19.318 4.7397 7.2781 0 16.27-1.7193 22.815-4.9905" fill="#6fb2c6"/>
  <path d="m134.58 175c4.5892 2.3963 15.292 0.40124 20.168-5.7902 0.29778 5.9629-1.499 11.235-6.1886 14.779 1.3263 8.4205-3.7951 15.504-10.037 16.972-3.7589-3.4607-8.5292-6.9215-12.244-7.6654-0.22274-1.499-0.89719-3.7421-1.3487-5.3164 5.1688-3.9679 9.6494-12.979 9.6494-12.979" fill="#dddccf"/>
  <path d="m94.793 203.48c3.4803-0.59081 10.182-2.3573 13.28-3.7923 6.8128-3.171 12.369-7.5066 17.148-11.984 0.22273 0.37597 0.99757 1.1508 0.44863 1.8725-3.1291 4.1239-11.215 9.1366-16.947 11.608-5.8486 2.5189-10.708 3.6641-13.23 3.6195-1.3458-0.0316-0.69901-1.3235-0.69901-1.3235" fill="#dddccf"/>
  <g fill="#6fb2c6">
   <path d="m130.6 195.23c0.11137 6.1218-1.5381 11.837-6.6401 15.325-0.86101 5.8849-7.788 12.082-15.623 7.8382-0.65241-1.3124-1.8474-3.745-1.8474-3.745 2.6137 2.9509 5.5088 3.2657 8.5738 2.3184 3.5917-1.1034 5.1326-3.7116 5.5032-5.6871 0.40677-2.1678-0.20615-4.2827-1.1982-5.2161 2.53-1.1676 4.9905-3.9066 5.8404-6.2053 0.74403-2.0062 1.2789-4.5418 1.0867-6.5509 1.9839 0.44863 4.305 1.9226 4.305 1.9226"/>
   <path d="m114.16 224.38c-3.4412 0.24801-19.669 4.1156-14.726 8.5348 1.4601 1.5325 6.7766 3.3326 16.774 2.9452-6.066 1.0979-13.581 6.4561-12.993 8.5126 0.47628 1.6606 7.4008 2.4465 14.453 0.40993 8.6351-2.491 14.372-8.7186 13.291-12.391-0.1864-0.6382-1.2735-1.3876-3.5193-1.4238-2.2458-0.0395-8.4623-0.079-10.931-0.9697 2.0954-0.19193 5.3137-0.82752 7.2614-1.9114-4.0821-0.89726-9.6104-3.706-9.6104-3.706"/>
   <path d="m114.27 224.07c4.2019 1.5075 14.049 1.527 20.143 0.44864 5.0936-0.89719 19.778-9.6633 20.817-10.182 4.3441-2.1706 8.8358-1.2734 8.8358-0.079 0 2.1289-1.3292 5.3138-3.4663 7.6153-1.3013 1.3988-4.096 4.0933-6.7933 5.8905 0 0 1.6997 0.60186 2.6498 0.74956 8.5682 1.3514 16.638 7.3505 13.974 9.3345-2.7446 2.048-10.731 2.048-14.124 1.449-3.3966-0.60186-10.184-3.6948-11.533-5.2412-1.3487-1.5493-2.1985-3.3465-1.3988-4.4945 0.79972-1.1452 1.8976-1.7972 2.8951-2.6945 0.99757-0.89995 2.7474-2.6972 3.3966-3.8452-6.2165 2.8254-15.336 5.4419-21.269 5.4419-9.0837 0-14.127-4.3942-14.127-4.3942"/>
  </g>
  <g fill="#0f141b">
   <path d="m105.58 148.03c-1.4489 0.72429-1.2455 5.4976 1.1982 10.683 2.0842 4.4304 5.3917 7.214 7.1388 6.339 1.4211-0.7077 1.4016-4.7731-1.1006-10.131-2.7028-5.7901-5.6396-7.6877-7.2363-6.8908"/>
   <path d="m72.864 164.58c-1.0477 0.669-0.74404 5.0545 1.9477 10.07 2.778 5.18 5.9378 6.1245 6.888 5.545 1.0505-0.64925 0.60423-4.9737-1.4211-9.0252-2.7892-5.5784-6.0688-7.4537-7.4146-6.5899"/>
   <path d="m97.607 140.42c-4.3941 2.636-5.4725 12.28-0.36254 22.503 5.0184 10.034 12.94 12.255 17.22 9.7915 5.3332-3.0707 4.436-14.629 0.10584-22.525-5.4586-9.9531-12.709-12.321-16.964-9.7691m-1.4656 23.005c-4.3301-8.6602-4.9849-20.321 0.94458-23.874 4.9961-3.0038 12.792-0.50155 18.63 10.143 3.8592 7.0385 6.2221 19.895-0.7464 23.905-4.6812 2.6972-13.525 0.43441-18.828-10.173"/>
   <path d="m63.836 157.78c-3.94 2.1901-4.4193 11.037 1.3486 21.525 4.776 8.6769 12.244 11.391 16.284 8.5655 3.1933-2.2319 3.4134-11.316-1.0979-19.249-6.3586-11.171-13.091-12.756-16.535-10.842m0.25354 22.015c-4.7257-8.5905-6.3558-19.789-0.74956-22.902 4.4081-2.4548 11.642-0.2646 18.12 11.126 4.4137 7.7574 4.9264 17.658 0.59081 20.684-3.7616 2.6276-11.993 1.9365-17.961-8.9082"/>
   <path d="m66.762 199.8c-1.0868-1.9031-0.71323-6.5509 2.0201-11.132-15.894-15.063-14.723-33.73-6.1384-39.152 7.7156-4.8734 19.92-2.1344 27.856 18.307 0.10347 0.26459-0.55763 0.83865-0.66031 0.57658-7.54-18.847-19.254-22.556-26.56-17.942-7.9942 5.049-8.2143 24.027 6.4896 37.739 0.17297 0.16192 0.21168 0.42099 0.0948 0.62398-2.3936 4.1685-2.7697 8.6573-1.8167 10.332 2.4827 4.3384 26.382 7.6376 42.763-1.3709 21.375-11.75 27.661-29.854 25.632-34.674-1.1703-2.7808-6.7181-5.1716-11.494-4.8094-0.28988 0.0316-0.39572-0.86094-0.11453-0.88044 5.6147-0.4123 11.692 2.0257 13.032 5.2022 2.5217 5.9963-5.9852 24.735-26.566 36.053-16.222 8.9221-41.462 6.5118-44.538 1.1257"/>
   <path d="m98.248 170.35c-11.89-16.019-10.126-32.152-1.7415-37.006 12.135-7.0273 29.271 6.5091 28.569 29.355-0.0553 1.6662-0.79695 1.6635-0.7464 0 0.6216-20.268-15.289-35.248-27.243-28.327-8.036 4.6505-9.2648 20.58 1.7415 35.44 0.96969 1.304 0.38465 1.8362-0.57975 0.53789"/>
   <path d="m88.05 182.81c-1.5159-4.9041-1.1759-11.505 0.30331-13.325 1.1926-1.4685 4.6867-3.4802 7.0357-4.2967 0.2646-0.0916 0.58212 0.63819 0.31752 0.72982-2.1706 0.75509-5.4809 2.8784-6.562 4.2103-1.1619 1.4295-1.7749 7.7128-0.30646 12.458 0.0806 0.26775-0.72192 0.43994-0.78826 0.22273"/>
   <path d="m93.901 178.24c-0.17297-4.2688 1.4712-8.7967 2.6109-10.697 0.14454-0.23933 0.79411 0.65478 0.75509 0.72744-1.0365 1.8446-2.4158 5.818-2.5468 9.5936-6e-3 0.12558-0.80801 0.66031-0.81923 0.37596"/>
   <path d="m89.387 198.58c3.8035 1.2762 8.415 1.0254 13.163-1.0059 5.0936-2.1846 9.0614-5.9546 10.856-9.7664 0.76931-1.6245 1.4295-1.4155 0.76378 0.25591-1.6524 4.1769-5.7652 8.2423-11.199 10.566-5.4502 2.335-10.343 2.1316-13.862 0.73851-1.201-0.47391-0.92783-1.1954 0.27881-0.78827"/>
   <path d="m138.62 200.53c5.5952-1.5548 11.023-9.248 9.3735-16.468-0.0632-0.28672-0.0474-0.33174 0.18087-0.51577 7.1554-5.6397 7.0329-14.459 4.1684-20.135-3.1904-6.3196-10.82-10.756-16.496-7.7658-0.31514 0.16192-0.43204 0.12796-0.63819-0.14217-2.374-3.0511-8.741-4.2938-11.257-2.4047-0.22274 0.16745-0.48181-0.8415-0.25354-1.0086 2.9006-2.1763 9.3288-1.0561 12.048 2.4715 5.4948-2.4855 13.639 0.17298 17.722 8.2283 3.4607 6.8351 2.5412 15.654-4.4137 21.355 1.6078 7.9663-3.4328 15.487-10.037 17.061-0.10268 0.0237-0.67137-0.60502-0.39888-0.67689"/>
   <path d="m144.17 210.89c-1.9588-6.1217-8.9861-14.116-17.443-17.122-1.3792-0.48733-1.1508-1.0755 0.22827-0.6295 9.2119 2.9704 16.019 10.683 18.184 17.443 0.0861 0.2646-0.9028 0.52683-0.9697 0.30962"/>
   <path d="m128.23 228.98c-10.984 0-19.87-6.392-23.364-16.624-0.61845-1.8167 0.0948-2.0536 0.73534-0.27566 3.4941 9.7023 12.115 15.69 22.679 15.69 8.7633 0 21.949-4.305 26.524-8.5599 1.5492-1.435 2.112-0.91116 0.58211 0.53473-4.7453 4.4917-17.978 9.2342-27.156 9.2342"/>
   <path d="m96.743 229.45c0-4.6505 6.9131-7.9636 13.531-8.5655 0.19509-0.0158 0.81362 0.8415 0.53235 0.85824-6.2304 0.44864-12.904 3.6586-12.904 7.7295 0 3.1125 6.2583 7.3478 20.979 5.5784 2.0619-0.24801 2.1372 0.38465 0.079 0.71323-11.569 1.8279-22.216-0.70217-22.216-6.314"/>
   <path d="m109.17 230.4c-1.488-0.27329-1.3793-0.9362 0.10031-0.68559 3.9177 0.65795 11.082-0.49049 14.397-1.7777 0.28672-0.11137 1.4378 0.20299 1.1898 0.33963-3.483 1.9114-10.795 3.0204-15.688 2.1232"/>
   <path d="m101.62 243.55c-0.71086-2.7419 4.6645-6.1385 11.667-7.8159 0.41546-0.10031 1.7638 0.32621 1.488 0.37597-8.206 1.5883-12.283 5.8404-11.937 7.1611 0.45732 1.7638 6.0354 3.4217 14.944 0.9362 9.9029-2.7613 13.297-9.1422 12.628-11.525-0.39887-1.4127-3.8285-1.421-7.15-1.4322-2.5022-8e-3 -5.5115-0.28671-7.5874-0.80525-0.27328-0.0632 1.6468-0.52366 2.1734-0.43994 1.8725 0.29224 3.5109 0.36254 5.3667 0.36491 4.0347 0.0158 7.7574-0.20378 8.362 1.9477 0.7859 2.8059-3.3158 10.025-13.52 12.87-7.5679 2.1121-15.601 1.5743-16.434-1.6384"/>
   <path d="m145.37 227.03c1.3235-1.0226 2.6889-2.6722 3.8703-3.8898 0.28672-0.29777 2.126-0.86662 1.9449-0.65478-0.89442 1.0504-4.4972 4.5641-5.3555 5.2802-0.54894 0.45416-1.8307 1.5186-2.0703 2.3072-0.66584 2.2263 2.2263 5.5784 10.196 8.0499 6.5258 2.0285 14.428 0.9223 16.874-1.3821 0.86939-0.822 0.669-2.6416-2.374-4.5892-2.7697-1.7777-7.0273-2.3796-10.452-2.8617-1.1284-0.15875-2.1678-0.30646-3.0483-0.47943-2.2876-0.44863-2.2765-0.91117-0.27565-2.3128 6.9939-4.9097 10.168-10.201 8.3258-14.027-1.5492-3.2154-12.082-3.8787-17.092-1.7693-3.2099 1.3514-5.687 3.3493-6.7543 5.4224-0.54578 1.07-1.1312 0.71876-0.60186-0.37596 1.1731-2.4492 3.4663-4.514 6.9633-5.9852 6.6066-2.7808 16.975-1.3792 18.669 2.14 2.1232 4.4109-1.6663 10.491-9.4822 15.813 0.92507 0.21167 2.1176 0.38149 3.4412 0.56552 3.5192 0.49603 7.8995 1.1173 10.856 3.0093 3.4747 2.2263 3.9427 5.0769 2.6722 6.2695-3.2323 3.0427-12.411 3.2796-18.023 1.5353-9.2202-2.8561-11.795-6.7153-11.006-9.3428 0.32857-1.0895 1.8252-1.9004 2.7224-2.7224"/>
   <path d="m170.67 237.22c-0.20062-0.81639-2.3796-3.1764-9.8611-4.4722-1.7219-0.30646-1.6802-1.0338 0.0237-0.79135 6.2611 0.88889 9.7386 2.8477 10.636 4.5391 0.0861 0.16429-0.74087 0.95856-0.79972 0.72429"/>
   <path d="m104.68 245.19c-0.64056-1.7805 1.3932-5.5227 7.5624-6.966 2.0285-0.48497 2.1817 0.0158 0.17535 0.57422-5.4335 1.5158-7.306 5.0044-6.4729 6.4366 0.13901 0.24248-1.2092 0.109-1.265-0.0474"/>
  </g>
  <g fill="#fffeee">
   <path d="m64.282 202.48c-3.1096-2.675-5.2969-7.8075-5.9546-11.084-0.1864-0.93344-0.0711-3.9288-0.29777-5.3499-0.37913-2.4074-0.89442-3.8758-3.0316-4.2325-1.8669-0.31199-3.9345 1.7304-4.5307 3.2183-0.78826 1.97-0.9084 4.8818 0 7.0413-0.79135 0.6382-1.8196 0.81915-2.948-0.0892-0.77168-0.62161-2.9174-3.5416-4.266-4.8679-3.6725-3.6029-6.3-4.7871-8.4623-3.1682-1.8083 1.357-1.3877 4.6115 2.5217 8.6379 0.82199 0.84703 4.3914 2.9453 5.0155 3.2656 0.62714 0.3262 1.1758 1.0756 1.0755 1.552-0.10031 0.47391-0.72429 0.79696-1.3235 0.94742-0.59949 0.1477-4.2938 0.7464-5.793 1.3486-2.8923 1.1564-4.3301 3.0539-3.9679 5.1159 0.15007 0.84988 1.3988 2.6945 4.1462 2.3462 2.7446-0.34832 7.9106-1.8975 10.781-1.8474 2.8727 0.0474 6.8657 0.57422 9.1116 1.1507 2.2458 0.57421 5.7901 1.396 7.7379 1.8725 2.3266-1.0086 2.7084-2.8588 2.2709-4.9208-0.82476-0.25117-1.5492-0.47391-2.0842-0.9362"/>
   <path d="m120.21 230.29c-0.88889-0.18956-2.4353 0.0711-3.3688 0.33411-0.48734 1.1981-1.0868 2.8477-1.5716 3.2963-0.48733 0.44863-4.6561 2.558-6.1803 3.2044-1.5214 0.65162-5.2635 2.4716-6.2639 3.2489-0.99749 0.77168-2.2207 1.8948-2.2207 3.6419 0 1.7498 1.5966 3.1208 3.5694 3.1208 1.9728 0 4.0431-1.148 4.0431-1.148-0.4123 2.9619 1.3319 4.8929 4.0682 4.8929 2.9815 0 6.2137-3.3827 6.7404-6.5398 1.5269 4.0988 4.7564 5.793 8.2617 3.4189 1.7053-1.1563 2.2709-4.422 1.0476-5.9657-0.57422-0.72429-1.7219-1.8195-2.8198-2.8951-1.1006-1.0728-2.2486-2.2737-2.4214-3.4941-0.17534-1.2261-0.079-2.6722 0.30094-3.6697-0.64926-0.47627-1.6495-1.1258-3.1848-1.4462"/>
   <path d="m95.434 204.37c0 5.5282 5.492 8.0388 9.9837 6.966 0.81923 4.7286 4.528 7.1081 9.5853 5.6648 6.1858-1.7693 6.8546-8.3926 4.266-10.981 3.7533-1.5743 5.598-4.8818 6.367-7.3394 1.304-4.1712 0.71007-7.0385-0.52683-9.3623-1.1731 1.5242-9.4905 8.0583-14.824 10.594-6.066 2.8867-14.852 4.4583-14.852 4.4583"/>
   <path d="m94.431 178.26c3.3994-1.3403 7.3144-0.0474 8.6881 3.4691 0.9892 2.544 0.0892 7.1081-3.8202 8.4122-1.1229 0.3736-3.8424 0.87215-6.3168-0.69901-0.52682 2.5886-1.892 4.1629-4.1685 5.1687-2.9202 1.2901-5.8599-0.83313-6.9382-3.3214-1.4741-3.3966-6e-3 -7.0886 2.6721-8.2115 2.1678-0.9084 4.9737-0.30094 6.289 0.5521 0.21484-1.7443 1.4879-4.5391 3.5944-5.3694"/>
  </g>
  <path d="m78.687 211.28c4.6393 0.36806 16.518-0.61845 19.045-1.8195-1.0226-0.70217-2.2458-2.8756-2.2682-4.5196-5.2608 1.4545-10.009 2.1121-15.927 1.5214-1.4963-0.15086-8.9109-1.1703-13.18-3.0707 0.2259 2.0898-0.0806 3.745-2.2709 4.9208 2.3963 0.54578 13.653 2.8951 14.601 2.9675" fill="#81cde4"/>
  <path d="m120.18 230.37c0.85264 0.16429 2.2486 0.44863 3.2712 1.2734 0.74641-1.8474 2.9425-9.2593 3.4162-11.759 0.47628-2.4938 1.5994-9.432 1.7248-12.101 0.12243-2.6721-0.079-9.6131-0.4739-10.859-0.39887-1.2511-1.9978 0.1477-1.9978 0.1477-0.37359 1.4461-1.6997 4.4443-2.5719 5.492 0.0553 1.07-0.27565 5.4168-1.0226 8.663-0.74956 3.2433-1.8223 7.3144-2.4465 9.5825-0.62397 2.2709-2.6694 8.4122-3.2323 9.8221 0.96132-0.3341 2.1595-0.48733 3.3326-0.26223" fill="#81cde4"/>
  <g fill="#dddccf">
   <path d="m105.33 211.51c0.0553-6.3921 10.293-9.1868 14.044-5.4391 7.4564-4.3552 7.9915-12.731 5.9128-17.376-9.1171 8.9974-19.672 14.322-29.976 15.325 0.60739 3.8453 1.9783 6.1552 4.7062 7.1918 2.6555 1.0115 5.3137 0.29777 5.3137 0.29777"/>
   <path d="m32.489 205.07c0.64925 0.49918 3.3939 0.44626 5.492-0.0474 2.0982-0.49839 6.3782-1.7972 9.0838-1.7972 5.3415 0 16.487 2.9564 18.786 3.6056 0 0-0.82483 1.0867-1.7973 1.4266-2.8114-0.75193-11.421-2.8895-14.715-2.8895-3.2963 0-8.9861 0.86378-10.861 1.3514-1.8697 0.48733-4.1156 0.63266-4.9403 0.0395-0.82199-0.5987-1.0477-1.683-1.0477-1.683"/>
   <path d="m101.15 241.96c0 2.1929 3.4078 4.0041 8.089 1.3877-0.33963 0.67137-0.97522 2.6554-0.97522 2.6554-1.6077 0.75272-4.1908 1.5325-6.027 0.71323-2.7698-1.2344-1.0868-4.7564-1.0868-4.7564"/>
   <path d="m108.86 244.08c-0.69349 3.196 1.6607 5.5115 5.7902 3.3688 2.3796-1.2315 3.8676-3.274 4.6923-6.849 0.12005 5.701-2.6777 10.257-7.0385 10.257-2.6889 0-3.8536-1.5269-4.1573-2.8839-0.3736-1.6858 0.71323-3.8927 0.71323-3.8927"/>
   <path d="m119.59 242.16c2.5439 6.3279 7.6793 4.8204 9.3985 0.52683 0.93629 3.2211-2.0814 6.2555-4.9431 6.2555-1.9282 0-3.4663-1.5854-4.9431-4.6812 0.15008-0.82752 0.48734-2.1009 0.48734-2.1009"/>
  </g>
  <path d="m65.842 206.82c1.8975 0.60186 11.157 2.5969 13.104 2.6944 1.2957 0.0632 3.6558 0.14218 6.1023 0.0395 3.5639-0.13902 4.4193-2.2431 3.8564-3.2546 1.2511-0.39887 6.4784-1.2344 6.4784-1.2344 0.19746 0.84987 0.69901 3.0428 2.1985 4.4415-2.7446 1.2344-14.163 2.4047-18.485 1.9199-2.0229-0.22274-13.143-2.6917-15.052-3.1765l0.5987-0.22826z" fill="#6fb2c6"/>
  <path d="m122.94 209.14c1.3988-2.0452 4.9932-1.5464 5.4419 1.0477 0.59949-5.0434 0.17534-11.656-0.27566-13.191-0.44863-1.5381-1.5716-1.7248-1.8335-0.71086-0.40993 1.6468-0.93628 4.3802-2.7335 6.2918 0.1864 1.9421-0.59949 6.562-0.59949 6.562" fill="#6fb2c6"/>
  <g fill="#0f141b">
   <path d="m97.997 210.56c-1.8001-1.343-2.7028-3.4552-2.8784-5.7177-0.0632-0.87214 0.62714-0.95018 0.69349-0.0711 0.15007 1.9589 1.2622 3.7171 2.8227 4.8818 1.7554 1.3124 4.0821 1.7778 6.392 1.2846 0.27329-0.0632 0.4905 0.9362 0.21484 0.99473-2.2542 0.48496-5.2635 0.10899-7.2447-1.3709"/>
   <path d="m105.94 214.51c-1.3792-2.5301-1.2873-5.3499-0.57658-6.9075 0.64925-1.4267 1.1341-1.1787 0.64925 0.27329-0.42336 1.2734-0.33726 4.018 0.82199 6.1468 1.5353 2.8171 5.4056 3.6864 9.0001 2.0286 3.4106-1.5772 5.0545-4.8902 3.9984-8.0612-0.23932-0.72429-1.2705-2.2849-2.218-2.9424-1.0365-0.71323-0.76378-1.3375 0.30646-0.66584 1.3987 0.87775 2.5356 2.2542 2.8784 3.2852 1.226 3.6808-0.60186 7.6988-4.5028 9.4933-3.6669 1.6941-8.4707 0.81086-10.357-2.6498"/>
   <path d="m119.06 205.4c5.5784-2.4771 7.8437-9.2398 6.5146-13.996-0.34279-1.2371 0.28119-1.4489 0.62951-0.21484 1.4573 5.18-0.46838 12.48-6.537 15.18-0.0711 0.0237-0.86654-0.85264-0.60739-0.96962"/>
   <path d="m100.48 245.75c-0.81362-1.7387-0.45732-4.0904 1.8586-5.7651 1.7749-1.2901 11.132-4.8344 12.447-6.2917 2.1594-2.3991 8.7465-25.1 8.4902-30.573-8e-3 -0.22037 0.64925-0.84427 0.7077-0.56869 0.90279 4.5224-6.0493 29.115-8.4317 31.812-1.357 1.5353-10.692 5.0796-12.611 6.4394-1.7582 1.2427-2.2068 3.0817-1.5382 4.514 0.76615 1.6412 4.6283 1.5548 6.4227 0.20931 0.20378-0.15639 0.37044 0.84703 0.23143 0.93068-3.274 2.0006-6.6484 1.2818-7.5763-0.7077"/>
   <path d="m110.62 251.07c-5.0489-1.6969-3.6669-7.749 1.8976-11.552 1.3096-0.90287 1.6635-0.46837 0.42335 0.5213-5.5338 4.4332-5.375 8.8552-1.9616 10 3.7924 1.2762 8.3453-2.8588 8.0444-9.9753-0.0632-1.4629 0.66347-1.4768 0.72981-0.0237 0.40124 8.7994-5.0295 12.408-9.1339 11.031"/>
   <path d="m124.11 249.37h-0.11137c-1.2622-0.0316-2.4827-0.62713-3.4329-1.6719-0.79688-0.87499-1.3374-1.9839-1.5827-3.1988-0.0806-0.40993 0.45732-1.5688 0.45969-1.357 0.0316 1.4712 0.96692 2.87 1.8752 3.8703 0.76062 0.83874 1.722 1.3124 2.7056 1.3375 1.3765 0.0474 2.7948-0.68796 3.6725-1.8781 0.82199-1.1089 1.0421-2.413 0.62398-3.6668-0.32305-0.97246-1.7806-2.2905-2.9536-3.3465-0.86654-0.78274-1.552-1.4044-1.8446-1.8976-1.1368-1.9226-1.3542-3.94-0.63504-5.8319 4.2911-11.293 6.3614-25.395 5.0155-33.891-0.23933-1.474 0.51814-1.6272 0.75193-0.1477 1.3709 8.6546-0.46838 22.954-4.8177 34.401-0.76378 2.0117-0.11689 3.8034 0.56316 4.9515 0.21484 0.35938 0.91117 0.99197 1.6495 1.6606 1.3264 1.1982 2.8283 2.5524 3.235 3.7756 0.51814 1.5576 0.23932 3.235-0.76615 4.5948-1.0505 1.4267-2.7307 2.2961-4.4081 2.2961"/>
   <path d="m83.229 207.08c-5.871 0-11.77-1.2233-18.17-3.7004-3.0678-1.1926-7.3005-9.2509-7.3144-12.904-0.0237-6.2304-0.78274-8.1307-3.235-8.1307-2.9424 0-6.0131 5.7623-3.1459 10.666 0.78274 1.3403 0.17535 1.7025-0.61608 0.35385-3.6168-6.144 0.37913-12.305 3.7616-12.305 3.5666 0 4.227 3.3436 4.2549 9.4097 0.0158 3.5109 4.0766 11.098 6.5537 12.06 10.541 4.0821 19.976 4.7341 29.926 2.0201 0.27328-0.079 0.35701 0.76615 0.0861 0.8415-4.1211 1.1229-8.1057 1.6886-12.101 1.6886"/>
   <path d="m80.61 211.87c-0.88881 0-1.5966-0.0237-2.0536-0.0632-1.4461-0.15323-15.777-3.3214-17.772-3.8285-11.282-2.8951-14.035-2.6555-22.698-0.62951-3.7394 0.87499-5.9211-0.13111-6.4283-2.3405-0.7385-3.2128 2.4353-6.0688 10.561-7.1778 0.85824-0.11452 0.85824-0.4818 0.85824-0.61844 0-0.20378-0.2954-0.66031-1.0811-1.0366-2.1205-1.0086-3.9706-1.917-5.9574-4.2158-3.4941-4.0403-3.3966-7.2781-1.7053-8.4874 1.4908-1.0644 4.188-1.474 7.7519 1.7889 2.0619 1.8864 3.9539 4.2911 4.7647 5.3137 0.90279 1.1507 1.6663 1.6663 2.3295 1.6579 0.35701-8e-3 0.65478-0.16982 0.90556-0.50708 0.16982-0.2259 0.61055 0.60186 0.54894 0.66899-0.41783 0.45101-0.93905 0.69349-1.527 0.70534-1.095 0.0474-2.1846-0.77721-3.0595-1.892-0.79135-1.0059-2.6498-3.3632-4.6505-5.1911-2.4548-2.2515-4.5725-2.7697-6.2973-1.5353-1.2344 0.87767-1.4517 3.157 1.7108 6.8127 1.8558 2.1484 3.419 2.9899 5.4252 3.9428 1.0254 0.48733 1.6635 1.2399 1.6635 1.956 0 0.42099-0.16982 1.4155-1.7388 1.6272-7.579 1.0366-9.8249 3.7255-9.3317 5.8738 0.34832 1.5242 2.3545 2.2905 5.0295 1.6663 8.8636-2.076 11.603-2.2236 23.105 0.72192 1.9839 0.50945 16.273 3.561 17.697 3.7087 2.7697 0.28672 15.816-0.38149 18.87-1.683 0.25906-0.11452 0.55763 8e-3 0.66899 0.26776 0.109 0.25907-8e-3 0.56-0.27012 0.669-2.7363 1.1647-12.558 1.8307-17.318 1.8307"/>
   <path d="m63.808 207.83c1.917-0.669 2.6164-3.1347 2.0591-4.2577-0.12796-0.25038 0.93628-0.0861 1.0032 0.12796 0.46838 1.499 0.0395 3.5164-1.9087 4.6059-0.29224 0.16191-1.4211-0.3815-1.1536-0.47628"/>
   <path d="m84.595 183.59c-2.2626 1.2176-3.3549 4.3914-2.4298 7.0747 1.0394 3.0149 4.2912 4.5669 6.9159 3.3465 1.6663-0.77168 2.9787-2.3462 3.2852-4.202 0.15876-0.94173 0.35938-1.056 1.2484-0.49839 1.5576 0.97799 4.2577 1.0476 6.0855 0.12006 2.7725-1.41 3.8118-5.1856 2.8533-7.4899-1.474-3.5582-5.4893-4.592-8.4261-3.04-1.24 0.65794-2.4186 2.466-2.6833 4.3412-0.12006 0.85548-0.53788 0.98643-1.2483 0.59949-1.8892-1.0198-4.163-1.0226-5.6007-0.25038m-3.4607 7.4899c-1.0979-3.1848 0.25118-6.913 2.9787-8.3871 1.8696-1.0059 4.3719-0.82752 6.4951 0.40125 0.27881-1.9868 1.3235-4.1852 3.0427-5.0936 3.4579-1.8335 8.0862-0.96132 9.9253 3.4691 1.148 2.7669-0.11452 7.189-3.4134 8.8692-2.3044 1.1703-5.0545 0.96416-6.9633-0.30646-0.3736 2.1678-1.7248 3.9929-3.6864 4.9041-2.427 1.1285-6.8881 0.46284-8.3788-3.8564"/>
   <path d="m122.99 231.96c-0.59397-0.76615-4.4388-1.6858-6.1357-0.79972-0.25354 0.13111-0.0474-1.095 0.18956-1.1591 2.3964-0.69111 5.1604-0.0158 6.5007 1.0839 0.10031 0.0806-0.45416 1.0059-0.55447 0.87491"/>
  </g>
  <path d="m108.08 151.74c0.42888-0.20062 1.7555 1.343 2.8449 3.7924 1.279 2.87 1.6775 4.7202 1.2762 4.9208-0.49049 0.24485-1.8028-1.2037-2.9731-3.7728-1.07-2.3489-1.4685-4.787-1.148-4.9403" fill="#fff"/>
  <path d="m76.04 167.73c-0.45101 0.24564 0.15638 2.3322 1.2985 4.4193 1.4378 2.6276 2.5412 3.2434 2.8449 3.118 0.41546-0.16429-8e-3 -1.7248-1.2985-4.0431-1.1452-2.062-2.3879-3.745-2.8449-3.4942" fill="#fff"/>
 </g>
</svg>
