<?xml version="1.0" encoding="UTF-8"?>
<!-- Created with Inkscape (http://www.inkscape.org/) -->
<svg version="1.1" viewBox="0 0 246.98 348.65" xmlns="http://www.w3.org/2000/svg">
 <g transform="translate(23.34 26.229)">
  <g>
   <path d="m149.4 132.03c25.669-21.537 7.2677-66.232-24.014-58.837-10.15-28.979-53.803-28.458-65.781-2.442-17.012-9.0153-35.772 2.5808-32.728 21.005-4.5596-2.1064-9.3626-0.77551-11.932 2.3029l25.241 45.273 89.922 41.246c26.444-1.0763 37.369-33.041 19.292-48.549" fill="#fffeee"/>
   <path d="m141.32 151.02c-2.5686-13.471-12.568-22.44-23.644-27.486-3.1591-27.439-19.894-42.183-37.89-39.394-14.501 2.3029-21.977 12.476-23.32 28.527-6.1569 0.71745-12.36 2.5923-18.424 5.0111-5.2196-19.234-22.591-27.324-37.566-22.891-19.304 5.8096-25.854 33.446-14.015 63.084-5.1268 6.6891-8.865 17.406-7.9277 23.91 3.274 23.03 62.841 44.463 92.584 37.589 36.721-8.5408 74.495-46.037 70.202-68.35" fill="#81cde4"/>
   <path d="m25.451 140.62c5.4972 18.019 3.9347 34.534-8.2282 38.376-11.457 3.576-22.787-7.4993-28.053-26.467-5.2308-18.875-3.1132-34.349 7.5803-37.716 11.179-3.4372 23.296 7.9506 28.701 25.808" fill="#ffe893"/>
   <path d="m108.79 134.88c4.907 19.524-0.54456 37.045-13.344 40.528-12.684 3.4835-24.199-6.1915-29.986-27.301-5.4739-19.848-0.46255-36.871 12.441-40.401 13.124-3.5876 25.981 7.7307 30.888 27.173" fill="#ffe893"/>
   <path d="m44.481 184.45c-2.339-4.6755-7.2099-6.7123-11.214-6.3304-6.9786 0.59017-11.295 5.8559-10.96 12.661 0.26245 6.2609 5.9715 11.122 12.394 10.531 5.0576-0.52094 9.6172-4.2241 10.612-9.2005 2.4079 4.5713 7.0826 6.9438 11.573 6.5156 7.0826-0.65972 11.203-6.6082 10.404-13.228-0.81029-6.4461-6.4459-10.601-12.499-10.335-5.1616 0.30181-9.8599 3.958-10.311 9.3857" fill="#fffeee"/>
   <path d="m48.241 177.58c2.1291-12.788 6.0759-28.458 9.9643-41.119-1.5517-7.3025-2.234-16.364-1.7354-23.794-5.879 0.92577-10.08 1.8978-15.6 3.6802-5.4624 19.419-3.854 49.092 1.6534 65.26 0.97104 0.92577 1.7354 1.8981 2.1061 2.5693 0.32805-2.8468 1.8994-5.4856 3.6109-6.5966" fill="#005b97"/>
   <path d="m62.941 255.92c-7.8578-12.858-11.457-20.797-15.994-36.073-7.5685-0.99531-13.668-1.9673-21.375-4.5482 3.7844 17.683 12.788 36.987 21.711 53.12-0.74141-9.5824 7.8926-16.978 15.658-12.499" fill="#81cde4"/>
   <path d="m56.961 299.36c-6.2842 10.531-3.0312 20.542 3.0312 21.514 8.4946 1.4467 15.415-5.5088 14.778-19.281 9.6982 11.573 20.959 13.02 25.067 6.2841 4.6177-7.4298-0.0985-15.392-7.1866-17.174-1.2171-0.31165-2.467-0.7637-3.7729-1.4234 15.89 2.465 24.708-4.3167 22.393-12.73-1.7026-6.3073-8.9456-7.8117-19.072-3.3446-6.9206 3.1247-16.248 3.148-21.804-5.4624-2.8803-4.4556-5.3233-8.2978-7.453-11.828-7.7653-4.4787-16.399 2.9164-15.658 12.499 2.8573 5.15 5.717 9.9527 8.367 14.35 4.7105 7.6497 5.0343 10.358 1.3089 16.596" fill="#fffeee"/>
   <path d="m178.02 105.04c-5.3236-2.1875-10.96-3.5066-16.584-3.6802 0.42645 5.3351 0.16402 9.8486-1.3647 14.755 3.1034 0.63643 5.5897 1.3076 7.7656 2.1064 8.6448-1.8981 12.313-8.1589 10.184-13.182" fill="#81cde4"/>
   <path d="m177.03 132.35c-1.5615 3.2057-4.5481 6.6429-7.6846 9.3625-5.1268 4.444-3.6223 9.8255-0.19681 11.885 6.932 4.1316 15.033-2.3262 16.619-14.061-0.29525-2.1064-0.63642-4.0505-1.0399-5.5319l1.3417 2.1875c-0.0328 1.2036-0.16404 2.2567-0.29526 3.3446 0.40679 2.9626 0.64955 6.261 0.69547 9.0385 0.16403 8.2747 4.3864 10.497 8.7957 9.4551 7.8231-1.8981 10.381-13.228 3.0214-24.546-1.6665-1.3194-3.3793-2.3377-5.4857-3.414l3.5531 0.71745c0.70532 0.87952 1.3319 1.7938 1.9322 2.6966 1.6206 1.2151 3.2411 2.7081 5.1383 4.6061 7.2217 7.2331 16.052 3.8422 18.147-1.1341 2.1881-5.2426-0.22964-11.133-10.601-14.142-8.055-2.3029-12.684-4.8143-21.989-11.596-3.3215-2.4883-7.0479-4.5713-10.96-6.1684 2.129 5.0111-1.5386 11.272-10.184 13.17 3.0312 1.0649 5.4046 2.3958 7.7656 4.2704 3.1821 2.5345 3.414 5.8328 1.4237 9.8602" fill="#fffeee"/>
  </g>
  <path d="m184.74 134c0.40679 1.493 0.75124 3.4372 1.0399 5.5434 0.16403-1.0878 0.26245-2.1527 0.29524-3.3561z" fill="#fd0"/>
  <path d="m192.81 130.06c2.1061 1.0878 3.8192 2.1064 5.4857 3.414-0.60361-0.90279-1.2269-1.8053-1.9322-2.6966z" fill="#fd0"/>
  <g>
   <path d="m107.81-24.791c-10.069-2.1064-24.5 24.477-23.389 41.049-27.428 14.489-44.185 32.045-44 38.422 0.13129 3.2983 4.5829 8.5408 13.378 13.876 2.175 0.54392 3.935 1.1803 5.9486 2.0136 3.0214-7.5224 10.369-13.587 18.216-16.769-3.5295-1.6898-6.6427-2.9626-9.8717-3.9117 6.1339-6.1221 14.524-12.244 24.026-17.174 4.201 1.4005 8.1357 0.52094 11.897-4.7449 14.859-20.912 10.971-51.314 3.7959-52.761" fill="#81cde4"/>
   <path d="m142.15 44.419c9.5128-14.235 7.8464-30.83 1.2958-33.7-10.173-4.4324-29.094 16.63-28.481 37.381 0.19683 6.5619 2.9295 10.925 10.682 11.596-2.3259 0.61344-4.5829 1.4004-6.9554 2.3492 2.8475 3.0089 4.6987 6.18 6.6893 10.925 8.8532-1.6317 17.475 0 25.426 6.8512 9.7559-2.3958 17.799-8.2747 18.088-15.786 0.26243-7.7076-9.5014-16.248-26.745-19.616" fill="#81cde4"/>
   <path d="m153.03 82.55c2.3029 21.41-21.051 35.853-36.941 31.779 0.76437 2.465 1.4336 5.474 1.6895 9.3625 12.638 5.9832 23.18 17.672 23.805 29.129 0.39367 7.1405-2.8705 17.707-10.948 27.335 24.107 0.38185 37.485-29.28 19.003-48.444 14.304-12.904 16.677-34.742 3.3911-49.162" fill="#dddccf"/>
   <path d="m-19.799 186.55c37.473 36.825 139.3 14.443 159.04-42.264 14.929 28.562-41.153 72.481-72.157 75.895-28.874 3.2635-76.555-12.996-86.878-33.631" fill="#6fb2c6"/>
   <path d="m53.901 209.65c11.064 4.6755 25.483 3.2057 34.754-0.68268 9.814-4.0621 19.257-13.644 23.724-23.794-13.806 11.168-36.003 21.584-58.478 24.477" fill="#cf7487"/>
   <path d="m69.641 294.77c-0.78732-2.8468 3.1231-4.4787 5.0458-1.5622 9.212 13.587 21.56 18.829 26.456 9.3625-1.0399 14.964-18.609 12.545-31.502-7.8002" fill="#dddccf"/>
   <path d="m80.461 283.97c11.689 2.7543 29.569 1.9211 30.333-7.8233 3.8307 10.381-8.8994 15.461-22 13.182-3.0771-1.678-5.6822-3.5992-8.3325-5.3583" fill="#dddccf"/>
   <path d="m45.471 252.82c-4.3283-9.3162-2.047-18.922 4.8722-22.903-1.3089-3.9927-2.198-6.6197-2.9853-9.8717-6.2146-0.52095-16.179-2.5808-21.41-4.5482 2.7196 15.311 11.735 34.927 20.901 51.696 0.38055-2.6851 1.1679-5.1037 2.1881-6.9785-1.1449-2.2914-2.2931-4.7333-3.5646-7.3951" fill="#6fb2c6"/>
   <path d="m57.981 296.97c-6.3074 10.034-5.2659 20.299-0.54456 22.857 4.6984 2.546 13.043 1.8981 15.751-7.8002-7.8001 11.052-20.6 2.5923-11.284-11.712 4.143-6.423 4.0157-10.786-0.13114-17.244-5.011-7.8233-8.4598-14.015-12.753-22.857-1.017 1.8748-1.8043 4.2936-2.1881 6.9901 3.5876 6.5503 7.2099 12.672 10.45 17.903 2.8836 4.606 2.9525 8.2052 0.68235 11.862" fill="#dddccf"/>
   <path d="m161.44 109.16c-0.19684 2.5345-0.64954 4.8606-1.1121 6.8049 2.9033 0.69449 5.4506 1.5159 7.6495 2.3262 3.0443-0.74074 5.3699-1.9444 7.0597-3.3446-3.228-1.8981-7.5688-3.6802-13.598-5.7865" fill="#6fb2c6"/>
   <path d="m175.04 114.94c-1.6895 1.4004-4.016 2.6037-7.0482 3.3446 6.3304 2.465 9.8025 5.3583 10.219 8.2284 0.57736 3.7959-1.9552 9.8833-7.1522 13.587-5.2426 3.7034-6.4577 9.2468-2.9984 12.568 6.4577 6.1452 17.301-1.2499 17.88-12.823 0.29525 2.3492 0.46256 4.6871 0.42975 7.0826-0.0328 4.9648 1.1121 10.439 6.2149 11.145 5.4391 0.74074 9.1773-3.3446 9.1773-8.5061-2.9295 6.3767-9.9528 4.201-10.242-2.1409-0.22964-5.3583-0.77421-10.149-2.2668-15.311-1.7715-5.8444-8.0665-13.945-14.212-17.174" fill="#dddccf"/>
   <path d="m190.3 128.68c-1.3778-2.28 1.3089-4.525 4.2355-3.0322 4.3746 2.2914 9.4207 5.7402 13.17 9.6519 4.2817 4.4324 13.193 2.1527 13.783-3.067 1.3877 9.2815-9.1077 13.969-18.401 5.4161-3.5413-3.252-8.3096-7.0711-12.788-8.969" fill="#dddccf"/>
  </g>
  <g fill="#6fb2c6">
   <path d="m42.441 50.499c0 3.2057 9.8599 11.55 20.681 14.732-1.1449 1.4467-2.0241 3.1943-3.0903 5.5203-2.0241-0.97202-4.0623-1.655-7.0594-2.4187-6.3652-4.3861-12.511-9.918-12.777-13.471-0.0985-1.3309 0.78733-3.0322 2.2439-4.363"/>
   <path d="m60.531 48.059c7.661-7.3025 19.373-15.704 29.546-20.889 0.61345-0.3356 0.92511-0.38185 1.5615-0.17387 10.219 2.7776 23.863-25.634 18.737-49.96 6.6198 11.168 4.9648 34.071-5.9253 50.481-4.201 6.342-8.6681 6.7586-12.117 5.1963-8.1475 3.9117-17.128 10.057-24.072 17.001-2.6047-0.77551-4.745-1.1574-7.7305-1.655"/>
   <path d="m133.96 71.994c14.594 1.2847 32.937-4.4556 33.654-12.834 4.4671 6.8049-0.43959 16.341-16.468 20.681-5.7632-4.2357-9.2235-6.6892-17.186-7.8465"/>
   <path d="m135.83 57.389c-13.448 0.16075-19.79-7.939-17.915-23.1-4.907 10.983-4.4904 23.551 6.5154 25.611 3.4603-0.8795 6.6198-1.7708 11.399-2.5112"/>
   <path d="m144.5 11.169c0.87919 11.411-5.1963 23.713-10.705 32.092 2.6146 0.11488 5.7865 0.43991 8.1242 0.9953 7.7771-8.9459 9.8022-26.143 2.5818-33.087"/>
  </g>
  <g fill="#0f141b">
   <path d="m99.421 144.12c2.175-0.94906 1.9552-2.4883-0.48551-1.8515-7.6728 1.9211-18.285 3.4372-25.449 3.5297-3.2051 0.0119-3.3097 1.5277-0.0656 1.8748 8.0776 1.0186 18.343-0.4281 25.993-3.5529"/>
   <path d="m16.521 153.19c2.2111-0.99531 1.6304-1.9444-0.59049-1.4234-6.851 1.655-14.35 2.5345-20.947 2.442-2.3849-0.0231-3.0312 0.97203-0.13129 1.6088 6.3767 1.4467 15.172 0.26572 21.676-2.627"/>
   <path d="m-2.8488 116c-8.8879 2.7314-12.047 16.387-6.5269 36.281 5.1268 18.401 15.878 28.701 26.282 25.426 10.103-3.1595 13.02-17.429 7.1522-36.733-5.7403-18.98-17.88-27.798-26.907-24.974m-9.4089 36.906c-5.717-20.588-2.5687-35.818 8.5526-39.279 11.249-3.4835 24.639 6.9438 30.645 26.676 6.1569 20.334 2.8934 36.05-9.3278 39.846-10.716 3.3446-23.62-4.7449-29.87-27.243"/>
   <path d="m78.161 108.93c-11.747 3.1824-16.434 19.801-11.261 38.723 5.7636 21.063 17.256 29.511 28.238 26.537 11.527-3.1247 17.128-19.327 12.198-38.931-4.8952-19.547-17.718-29.488-29.175-26.328m-14.351 39.487c-5.4972-19.975-0.52161-37.994 13.807-41.906 15.068-4.1084 27.937 9.2005 32.682 28.053 5.1038 20.345-1.24 38.376-14.524 42.021-11.515 3.1595-25.044-2.8239-31.965-28.169"/>
   <path d="m33.331 179.23c-6.0411 0.54392-10.069 5.0574-9.7792 11.48 0.26245 5.3351 5.2656 10.034 11.052 9.4782 4.7682-0.46288 8.5756-3.6455 9.652-7.8927 0.46256-1.759 1.0662-2.1527 2.2439-0.13771 2.234 3.7728 5.983 5.7402 10.3 5.312 6.4925-0.61346 9.9295-6.1915 9.2235-11.955-0.63642-5.2657-5.4624-9.6055-11.237-9.3394-4.5252 0.30181-8.6337 3.1942-9.2353 7.9159-0.34775 2.5345-0.98417 2.4883-2.1291 0.47436-1.9683-3.576-6.0758-5.6939-10.092-5.3351m-12.29 11.573c-0.29526-6.828 3.8884-13.066 12.128-13.807 4.9877-0.4281 8.5986 2.0021 10.844 4.8954 1.1679-4.201 5.2078-7.6382 10.775-7.9506 7.2562-0.40514 12.962 4.6061 13.783 11.365 0.91526 7.534-3.6568 13.679-11.607 14.466-4.3746 0.41662-8.6219-1.5969-11.33-5.3351-1.5517 4.4556-5.9833 7.534-10.821 7.9853-7.0246 0.68268-13.448-4.5482-13.772-11.619"/>
   <path d="m-12.609 162.57c-15.08-31.617-9.1773-62.702 12.638-69.229 16.653-4.9995 34.337 4.9185 38.815 23.817 1.1908 4.9069-0.41662 5.3351-1.9092 0.49765-4.201-13.737-18.436-26.629-36.061-21.398-18.274 5.4393-25.541 34.059-11.7 65.457 1.8994 4.3167 0.16402 4.9301-1.7813 0.85654"/>
   <path d="m56.331 113.88c-5.5434 0.63642-11.457 2.3262-18.065 5.0226l-0.63642-2.442c6.4229-2.6733 13.251-4.5019 18.91-5.0921z"/>
   <path d="m42.141 116.07c-5.8675 20.889-3.6804 53.143 2.4998 68.223l-3.6109-4.0737c-5.0572-15.774-6.77-43.757-1.6534-63.107z"/>
   <path d="m58.601 139.22c-3.518 11.573-7.1174 26.039-9.2235 37.52l-2.4308 1.8286c2.28-13.471 5.6825-28.203 10.694-44.278z"/>
   <path d="m58.601 143.9c-9.397-36.952-0.56753-57.911 20.993-61.302 20.658-3.2753 40.899 16.214 39.579 51.65-0.19684 6.0526-1.9322 6.0526-1.9454 0-0.0985-31.664-17.267-51.696-37.253-48.572-20.646 3.2057-26.317 23.84-19.442 57.772 1.0662 5.2194-0.63643 5.555-1.9322 0.4514"/>
   <path d="m-12.999 159.4c-4.7217 7.0711-7.7424 15.89-6.8281 22.313 3.1034 21.827 61.36 43.121 90.686 36.362 36.293-8.4019 72.713-45.84 68.72-66.741-2.5457-13.32-12.036-21.433-21.746-26.294l-0.42974-3.2057c11.318 4.9069 22.845 14.35 25.646 29.002 4.6869 24.43-36.224 61.661-71.66 69.912-30.205 7.0016-91.195-14.674-94.586-38.746-0.97104-6.7586 3.0771-18.505 9.0503-25.611z"/>
   <path d="m55.401 209.45c12.834 3.1595 22.556 2.6848 32.879-1.655 7.7076-3.1824 16.121-10.682 20.785-18.713-17.209 12.904-46.396 24.662-73.488 22.081-5.0113-0.49765-4.8607-2.2567 0.16403-1.9444 28.227 1.6088 58.362-11.226 75.537-24.72 2.257-1.7708 3.228-1.493 2.0142 1.4004-4.7217 11.26-13.714 19.848-24.28 24.234-13.587 5.717-27.104 4.5134-37.948-0.1837z"/>
   <path d="m13.151 93.966c2.5227-3.8191 7.8234-5.4046 12.406-3.8191-2.0962-19.234 17.336-28.979 33.55-20.843 12.649-26.444 57.437-26.676 67.517 3.6455l-2.4768 0.55539c-10.254-27.59-52.113-26.548-63.478-2.523-0.46254 0.90281-0.87917 1.0186-1.7715 0.62495-17.359-8.2515-33.156 3.7381-30.969 19.709 0.22965 1.6317-0.13129 1.8863-1.5287 1.3657-4.3628-1.655-8.0314-0.40515-10.242 2.0716z"/>
   <path d="m129.72 181.78c28.689-0.52094 38.966-33.226 21.364-49.752 26.282-22.579 5.9135-69.206-27.069-59.508-5.9138 1.7361-5.4857 3.252 0.53144 1.8748 30.043-7.0364 48.814 34.696 24.407 56.545-0.94807 0.86803-0.82012 1.3887 0.0119 2.1989 16.92 15.797 4.7794 44.324-17.545 46.176z"/>
   <path d="m75.901 302.78c0.47568 14.871-8.3673 20.912-16.156 19.419-7.372-1.3772-10.45-12.047-3.7382-23.354 3.3911-5.6013 3.2986-7.8233-1.3417-15.438-11.133-18.216-25.576-44.591-30.333-68.327l2.6146 0.69448c5.3236 23.192 18.887 48.56 29.812 66.417 4.6984 7.7539 5.2193 10.89 1.1449 17.764-5.5319 9.2931-3.0214 18.783 2.3948 19.709 8.7606 1.4697 14.246-6.8512 13.251-19.535z"/>
   <path d="m71.041 298.35c-2.8016-4.2704-1.3778-5.2657 1.6074-1.1341 10.115 14.084 22.07 16.48 26.086 9.9296 3.7841-6.0874 0.16402-13.564-6.4-15.346-3.1231-0.82177-6.7238-2.8701-9.8832-5.0226-3.9002-2.6618-3.0771-4.0737 0.994-1.678 3.274 1.9211 6.5965 3.8075 9.4318 4.5482 9.6402 2.3958 12.649 11.932 8.1009 19.118-5.196 8.1821-19.523 5.636-29.939-10.416"/>
   <path d="m48.281 220.09c5.879 18.667 10.126 26.78 23.03 46.998 5.2196 8.182 13.864 8.0432 20.392 5.15 12.151-5.3583 19.142-2.28 20.854 4.0042 2.5358 9.3509-6.6312 15.82-19.674 14.57l-6.7585-3.1132c16.769 3.4835 25.97-3.0552 23.84-10.832-1.5615-5.7402-8.8302-6.3883-17.313-2.6156-7.2447 3.1824-17.128 3.3214-23.169-5.8328-13.899-21.086-17.672-28.782-23.805-48.687z"/>
   <path d="m64.261 258.07c-8.3903-6.8512-17.764 2.3029-15.681 12.29l-2.3029-3.9464c0.0657-9.2931 8.4021-15.195 15.682-12.047z"/>
   <path d="m160.34 114.94c7.5573 1.7128 11.839 3.2983 15.994 6.5734 3.3678 2.6733 4.1896 6.2841 1.7354 11.33-1.5287 3.0899-4.3631 6.7817-7.8696 9.8254-3.6338 3.1247-3.6571 7.7192-0.22964 9.7676 5.9945 3.5529 14.443-2.5693 14.859-16.434l1.4566 7.2794c-2.6277 11.92-11.55 15.288-17.857 11.504-4.6524-2.7776-5.3351-9.3972 0.023-14.073 3.274-2.8354 6.1221-6.018 7.5455-8.8881 1.6796-3.3214 1.5615-6.3073-1.0531-8.3209-3.8654-3.0899-7.9159-4.6986-15.334-6.261z"/>
   <path d="m200.7 135.44c5.879 10.531 3.3911 21.838-5.1268 23.887-5.4972 1.3194-10.103-1.9559-10.265-10.728-0.0657-4.3861-0.56754-10.578-1.5156-14.316-1.0071-3.8422 0.72827-4.363 1.8732-0.53243 1.181 3.8191 1.8994 10.277 1.9683 14.802 0.0985 5.6476 2.8114 9.0848 7.3257 8.0432 7.3717-1.7361 9.2465-13.76 0.81029-24.812z"/>
   <path d="m161.11 100.11c9.4666 0.20668 19.385 3.414 28.527 10.149 9.3164 6.828 13.772 9.0616 21.676 11.307 12.14 3.495 13.691 10.751 11.48 15.994-2.362 5.5898-12.36 9.1079-20.148 1.2961-3.958-3.958-6.2842-5.8096-10.265-7.9159-3.5066-1.8286-2.6375-3.4835 0.87917-1.6895 3.8654 1.8981 6.8629 3.8885 10.971 7.9969 5.8557 5.8791 13.991 4.0042 16.04-0.85654 1.9552-4.6176-0.22964-9.7676-9.6752-12.499-8.0894-2.2914-12.869-4.9069-22.278-11.851-7.3257-5.4046-16.908-9.131-26.907-9.3972z"/>
   <path d="m179.22 105.49c1.6796 5.0805-1.2269 11.307-9.8137 13.309l-3.5528-1.2614c9.4551-1.2614 13.482-8.1358 10.763-13.02z"/>
   <path d="m66.791 49.479c6.7008-6.8743 15.08-12.904 24.384-17.695 0.5905-0.34709 0.99401-0.34709 1.4697-0.20996 4.2935 1.3076 7.187-0.0919 10.381-4.5134 14.131-19.871 10.612-49.278 4.5481-50.551-8.8072-1.8286-22.59 23.47-22.058 39.383 0.0328 0.85654-0.22964 1.2384-0.91526 1.5507-26.791 14.177-43.063 31.467-42.889 37.323 0.0657 2.6037 5.2078 8.9343 17.579 15.438l-8.6452-2.1642c-6.77-4.2126-11.445-9.675-11.573-13.32-0.19683-7.6845 18.135-25.472 44.116-39.128-0.75124-17.961 13.645-43.642 24.894-41.72 8.3902 1.4234 12.464 32.775-3.0902 54.856-3.5298 5.0458-7.8001 6.8743-12.765 5.2889-8.6681 4.4556-16.202 9.9643-22.787 16.225z"/>
   <path d="m77.011 54.729c-5.011-2.5808-8.3902-3.7728-13.24-4.9764-4.826-1.1459-4.4786-2.7314 0.40679-1.8981 5.0343 0.8795 9.6982 2.4883 15.6 5.474z"/>
   <path d="m111.41-21.291c-2.175 8.1126-3.7496 13.853-5.277 21.468-1.053 5.3004-2.9754 4.9532-1.9224-0.38185 1.4336-7.3025 2.9393-14.119 5.5201-23.366z"/>
   <path d="m118.51 60.784c6.6427-2.6038 14.57-4.2936 23.493-4.2473 6.0293 0 6.064 1.8748 0.0119 1.9673-8.8535 0.21979-15.531 1.8748-22.012 4.3167z"/>
   <path d="m150.24 78.639c8.8187-2.1294 17.151-7.6613 17.406-14.698 0.22964-7.0016-10.092-16.515-30.39-19.315-7.0597-0.97202-6.8166-2.7891 0.26245-1.9673 21.549 2.6156 32.971 12.545 32.682 21.398-0.32807 8.4367-8.5408 14.107-17.869 16.642z"/>
   <path d="m141.09 44.059c8.7606-13.043 7.8231-29.499 1.8994-32.092-8.5986-3.7612-27.37 16.11-26.757 36.189 0.19684 7.3141 4.0619 10.844 12.638 10.601l-5.5664 1.6432c-6.3074-1.0183-9.3049-5.2425-9.4899-12.244-0.69547-22.671 19.408-43.387 30.136-38.7 7.349 3.2057 9.5014 20.299-0.57737 35.17z"/>
   <path d="m145.38 11.919c0.68236 6.423-0.74139 13.112-4.1777 19.848-2.1291 4.0621-3.6919 3.5066-1.7715-0.8795 3.1723-7.2099 4.4441-13.841 3.414-20.392z"/>
  </g>
 </g>
</svg>
