<?xml version="1.0" encoding="UTF-8"?>
<!-- Created with Inkscape (http://www.inkscape.org/) -->
<svg version="1.1" viewBox="0 0 89.565 98.549" xmlns="http://www.w3.org/2000/svg">
 <g stroke-width=".73942">
  <path d="m60.617 18.877c-0.5664-12.245-7.6833-19.11-12.822-18.361-5.3889 0.78674-8.7436 6.6001-8.0907 15.272-3.513 0.056196-7.1495 1.1535-10.12 2.548-2.7728-7.3912-8.4109-12.231-13.148-10.657-5.3541 1.779-7.2833 11.227-3.3525 21.967-1.8715 2.1879-3.9041 5.3852-3.547 7.4504 0.99748 5.7675 18.093 14.694 32.753 10.945 14.676-3.754 25.92-16.343 25.052-22.926-0.20852-1.5809-2.6553-4.3899-6.725-6.2392" fill="#80cde3"/>
  <path d="m38.575 32.513c-0.82002-1.4589-2.4379-2.2619-4.2598-1.9728-2.6797 0.42369-3.9049 2.5296-3.4472 4.9563 0.44439 2.3477 2.5236 3.6357 4.5955 3.3104 1.9484-0.30464 3.1004-1.4641 3.4975-3.3163 1.0234 1.4182 2.6065 2.1273 4.4543 1.8375 2.0534-0.32165 3.6978-2.1539 3.34-4.6273-0.35788-2.4645-2.5222-3.8243-4.6007-3.5581-2.3166 0.29651-3.4583 1.8744-3.5795 3.3703" fill="#fffded"/>
  <path d="m18.409 12.108c-4.0823 1.0448-5.7527 7.775-3.74 14.668 2.3321 7.985 6.7317 11.422 10.144 10.489 3.7511-1.0248 5.7497-7.1842 3.5366-15.082-2.1244-7.5842-7.0141-10.824-9.9408-10.075" fill="#fee792"/>
  <path d="m47.929 4.5573c-4.3108 0.85699-6.6548 7.2256-4.9549 14.485 1.9144 8.1802 6.4803 11.691 9.9918 11.023 3.9566-0.75273 6.6614-6.6918 4.8255-14.947-1.5446-6.9454-6.3368-11.262-9.8624-10.561" fill="#fee792"/>
 </g>
 <g fill="#80cde3" stroke-width=".73942">
  <path d="m26.915 47.957c-4.6384 4.1807-11.037 10.96-15.166 16.619 1.5299 0.08503 3.2808 0.53016 4.1297 2.1695 3.3451-5.6181 10.092-12.754 15.561-16.763l0.21887-1.2415c-1.6674-0.10056-2.8275-0.32534-4.7434-0.78452"/>
  <path d="m67.262 24.885c3.7378-1.4116 7.6848-0.72167 11.362 2.8194-1.7827 0.12718-3.3828 1.1091-3.9078 2.8941-1.7436-1.6156-4.7441-2.361-8.3185-0.63738 0.88361-2.0334 1.0862-3.4642 0.86438-5.0761"/>
  <path d="m33.036 55.138c-0.2758 1.643-0.4126 3.9796 0.51612 6.2496-6.6762 4.0054-10.833 11.569-9.1082 14.53 1.2888 2.2123 5.559 2.3639 10.425 0.03549 0.57601 4.2332 4.4343 10.168 7.0186 8.9507 1.6888-0.79562 1.6304-5.3882-0.0067-9.4025-1.0285-2.5229-3.1137-5.7897-5.712-5.329 1.0064-0.74016 1.4633-1.1979 2.0134-1.4803 0.55013-0.2832 1.7354-0.75938 2.2804-0.51168 3.9167 1.7776 9.1274 1.6371 13.693-1.1365 7.9843 5.2159 5.7483 13.247 2.4194 14.339-1.6252 0.53312-2.0608 0.8873-2.2959 2.1325-1.8293 9.6627 1.8034 14.745 4.0387 14.642 3.3555-0.15454 4.6724-6.3605 2.6952-13.189 4.4979-3.7622 5.3586-8.5802 4.8129-13.65-0.48284-4.4691-3.1004-8.2201-6.8973-11.607 0.3638-3.1765-0.30316-6.5572-2.1628-9.5666-0.60337 1.6511-2.659 4.0683-5.5442 4.2923 1.1565 4.4972-0.5871 7.2345-5.1582 8.1225-3.2231 0.62629-6.782-1.0633-7.1361-4.8439-1.8656 0.0022-4.6998-0.62481-5.891-2.5769"/>
 </g>
 <g fill="#fffded" stroke-width=".73942">
  <path d="m12.844 41.512c-0.97012 3.9611-0.31425 7.9835 3.7895 9.9763 0.66178 1.5476 1.413 2.7529 3.3259 3.2579 1.873-1.8877 4.841-4.9741 6.9188-6.7117-4.4942-0.97604-10.331-3.3451-14.034-6.5224"/>
  <path d="m31.567 48.754c-0.79266 4.1186 1.2755 9.0697 7.3602 8.9603 0.37341 3.1174 3.2934 5.8355 7.5776 4.6731 5.2957-1.4367 5.6418-4.9371 4.7168-7.9517 2.5089-0.19964 4.7205-1.7709 5.5442-4.2923 0.48802 0.79118 0.82741 1.3842 1.1136 2.1983 4.1681-0.02588 7.6804-2.08 7.582-7.6316 6.3161-1.064 9.8572-9.1703 4.9171-15.692-1.1062-0.0488-2.8246 0.31647-3.8709 0.95829-5.2255 9.1496-17.591 20.119-34.941 18.778"/>
  <path d="m15.879 66.745c-0.84664-1.3228-2.1976-2.3092-4.3788-2.012-1.7132 2.2752-2.8416 3.8531-4.2169 4.753s-3.7999 2.4297-4.9157 2.903c-1.7591 0.74681-2.2929 2.202-1.7147 3.5137 0.46953 1.0625 1.9062 1.799 4.2391 0.76234-0.36749 1.7058 0.032534 2.6131 1.3243 3.1684 1.3236 0.56935 3.6816 0.19077 5.7179-4.2103 2.1732 2.3957 4.9127 2.0231 5.9198 0.91244 1.0071-1.1099 0.80523-2.1961-0.13088-3.6757-0.93537-1.4796-1.8693-2.9333-2.8645-4.1659 0.47545-1.0367 0.67509-1.3302 1.0204-1.9491"/>
  <path d="m78.624 27.704c-1.555 0.14345-3.5744 1.24-3.9078 2.8948 0.75717 0.88582 1.2836 1.6748 1.5875 2.6981-3.4213 2.7876-4.3885 8.4885-1.4907 9.4964 1.538 0.5346 3.3828 0.32091 4.5866-2.9813 1.6903 3.9707 4.7737 4.4557 6.2533 3.1987 0.95237-0.8104 1.3213-2.1347 0.7616-3.6195 1.5343 0.0015 2.4793-0.59302 2.6567-1.9535 0.1782-1.3605-0.31869-2.4164-1.6548-2.9518-3.4302-1.3709-5.6218-2.5096-7.0082-4.452-0.79636-1.115-1.0995-1.6445-1.7842-2.3299"/>
 </g>
 <path d="m38.284 15.847c-2.2515 0.34309-5.6543 1.0832-7.4999 2.0142 0.63812 3.5891 2.6338 9.52 4.8876 12.614 0.94868 0.0059 2.2737 0.92797 2.8948 1.941 0.08577-0.71798 0.34457-1.1557 0.65143-1.7155 0.62777-4.0254 0.22109-11.102-0.93389-14.853" fill="#005b97" stroke-width=".73942"/>
 <g fill="#6eb2c5" stroke-width=".73942">
  <path d="m58.064 52.789c-1.6223 2.5266-4.0675 4.4654-6.711 5.8407 0.37932-1.3872 0.41112-2.8549-0.13162-4.194 1.9513-0.24918 4.3788-1.4463 5.5678-4.3212 0.5139 0.99526 0.7091 1.3509 1.2748 2.6745"/>
  <path d="m32.971 58.967c2.1798 1.2274 4.7419 1.9033 7.4171 2.046-0.82445-0.87547-1.3332-2.1369-1.4367-3.3266-2.2116 0.0052-4.3271-0.71798-5.851-2.3173-0.23662 1.2725-0.21369 2.182-0.1294 3.598"/>
  <path d="m9.5369 37.466c14.003 11.25 51.457 1.7561 57.814-12.24 0.87473 6.9217-12.359 20.55-25.374 22.932-16.72 3.0605-30.565-5.5523-32.44-10.692"/>
  <path d="m24.154 74.024c0.45179 1.8131 3.9041 0.45474 6.1579-1.6496 1.8241-1.7044 4.1393-4.5164 5.2573-7.599-0.49837-0.51242-0.95755-1.2134-1.2866-1.8404 5.3793 4.1873 14.714 3.4309 19.243 0.08873 0.86956-0.64256 1.8116-0.70023 3.0989 0.33348 6.5106 5.2292 6.9616 15.529 0.70171 17.92 4.8587-4.6155 1.1712-12.095-3.0124-14.237-5.0798 2.551-9.665 3.2705-13.843 1.0943-0.30686-0.15972-1.8389 0.20038-2.1983 0.4577-0.72685 0.51907-1.1491 0.91614-1.8744 1.4581 0.98195 0.60484 1.9772 4.4764 0.21813 5.2883-7.7876 3.5965-12.623 2.775-12.462-1.3147"/>
  <path d="m37.138 74.873c0.79414 4.5415 2.0512 8.5699 4.4461 10.381-2.0704 0.09908-5.749-3.4856-6.6977-9.3063 0.66696-0.29799 1.3058-0.61963 2.2515-1.0751"/>
  <path d="m58.284 85.789c0.69506 4.3079 1.4426 10.138-0.36749 12.439 2.8468 0.07468 5.4784-4.4949 3.0605-13.209-0.6884 0.40816-1.5727 0.69875-2.693 0.76974"/>
 </g>
 <g fill="#dcdcce" stroke-width=".73942">
  <path d="m13.451 48.625c2.3787 1.606 6.5328-0.0695 7.1354-2.5384 2.2375 0.80079 4.2849 1.4759 6.1039 1.958-2.6257 2.5022-4.6495 4.5607-6.6267 6.7576-1.4064-0.23292-2.9666-1.8389-3.4516-3.3244-1.3014-0.66844-2.6368-1.7258-3.161-2.8527"/>
  <path d="m25.56 54.931c1.5838 2.2345 4.1548 3.425 7.3728 1.5646l0.16045-1.1882c-1.2518-1.4485-1.7495-3.1884-1.6541-5.3246-1.9794 1.5661-3.7466 3.0139-5.8791 4.9482"/>
  <path d="m56.836 45.127c2.7137-1.2193 3.3474-4.1223 2.0571-5.7749-8.6505 7.4933-18.457 10.263-27.244 9.4261-2.9887 9.2257 27.381 3.2135 25.187-3.6513"/>
  <path d="m61.711 36.743c3.6808 2.9089 9.8683 0.80079 10.702-3.4146 1.7332 5.1641-1.9676 9.9134-6.8492 11.279-0.11017 4.3234-2.3277 7.7447-7.7232 7.7846-0.38302-0.79562-0.6322-1.4537-1.0507-2.2774 0.44365-1.7561 0.47619-3.3584 0.0318-4.8624 2.7092-1.6918 3.195-3.6623 2.0719-5.9006 1.1224-1.0618 1.7894-1.6053 2.8172-2.6087"/>
 </g>
 <path d="m31.44 49.983 0.20926-1.2045c-0.48062-0.01183-0.95385-0.0089-1.4729-0.11757-6.2725 5.258-11.582 10.719-15.321 16.928 0.36749 0.29872 0.75199 0.69579 1.0662 1.1868 3.6956-6.2792 10.208-12.942 15.518-16.793" fill="#6eb2c5" stroke-width=".73942"/>
 <g fill="#dcdcce" stroke-width=".73942">
  <path d="m13.68 67.652c-0.57527 1.0847-0.27285 1.7598 0.51316 2.2294 1.274 0.76012 2.1251 1.5572 3.6675 3.3599-0.92132-1.6082-1.8278-3.0575-2.9895-4.5556 0.31425-0.62999 0.67287-1.2688 1.0492-1.9099-0.31425-0.49098-0.69801-0.8873-1.0655-1.186-0.4089 0.67879-0.80449 1.365-1.1749 2.0622"/>
  <path d="m0.46957 74.91c1.3265 0.9679 4.4646 0.28542 6.7457-1.8108-0.75569 1.4249-2.0829 2.7122-2.327 3.5862-2.7336 1.0633-4.191 0.2307-4.4188-1.7753"/>
  <path d="m12.051 75.69c-1.663 3.0849-3.6993 5.3416-6.0669 4.0979-1.0892-0.57157-1.4537-1.3923-1.3006-2.392 1.518 2.1332 4.5925 0.40077 6.433-2.9569 0.58266-1.0625 1.3088-1.1409 2.1096-0.26249 1.5313 1.6792 3.8975 1.9269 5.3016 0.8984-0.67583 2.8187-3.93 3.2461-6.4766 0.6152"/>
 </g>
 <path d="m75.47 29.103c-2.0386-2.0571-4.9415-2.5222-8.2371-1.6652-0.15306 0.9228-0.38746 1.7125-0.82297 2.6131 2.9044-1.7125 6.2289-1.4167 8.2748 0.52647 0.18412-0.57231 0.44957-1.0825 0.78526-1.4744" fill="#6eb2c5" stroke-width=".73942"/>
 <g fill="#dcdcce" stroke-width=".73942">
  <path d="m77.094 31.455c-0.44883-0.94276-0.99748-1.7199-1.6238-2.3521-0.3357 0.39189-0.60189 0.90209-0.786 1.4744 0.82889 0.78748 1.4493 1.8441 1.7443 3.1507 0.77048-0.53312 1.0418-1.484 0.66548-2.273"/>
  <path d="m73.538 37.5c0.04584 4.2857 4.4454 4.2066 6.0137 0.24697-0.17894 3.5832-1.5964 5.2447-3.8391 5.2063-2.2079-0.03845-3.266-2.2745-2.1746-5.4532"/>
  <path d="m79.588 37.627c2.2929 4.9305 6.0218 4.9097 6.901 2.1525 0.51981 2.4963-0.65365 3.7407-2.4423 3.8258-1.7879 0.08503-3.4198-0.98639-4.6273-3.8886 0.14419-0.75791 0.19669-1.2297 0.16859-2.0896"/>
  <path d="m83.145 35.36c1.8752 1.7258 4.8787 2.2116 6.1135 1.6615-0.15232 1.7384-1.4655 2.4578-2.7994 2.4105-0.63516-1.413-2.5303-2.2981-3.3141-4.072"/>
 </g>
 <g stroke-width=".73942">
  <path d="m20.218 14.605c-1.0847 0.26323-1.4825 3.1825-0.4126 7.5029 1.0485 4.2295 2.5584 6.2222 3.6904 5.9679 1.0766-0.24105 1.5166-3.2438 0.43922-7.3092-1.2126-4.5726-2.7366-6.4004-3.7171-6.1616" fill="#0f141b"/>
  <path d="m47.747 8.2667c-1.1091 0.26175-1.7221 2.9414-0.5871 7.355 1.1609 4.5156 2.7092 6.4625 3.8028 6.2052 1.0108-0.23809 1.6171-3.0161 0.49689-7.4319-1.2415-4.889-2.8209-6.3383-3.7126-6.1283" fill="#0f141b"/>
  <path d="m21.454 17.58c-0.34605 0.06655-0.4651 1.365-0.0244 3.2527 0.48284 2.0696 1.1698 3.3488 1.4596 3.2793 0.34013-0.0806 0.46657-1.342-0.0451-3.5625-0.44661-1.9402-1.0182-3.0412-1.3901-2.9695" fill="#fff"/>
  <path d="m48.86 11.144c-0.34457 0.07024-0.4015 1.4485 0.01775 3.3407 0.47619 2.148 1.1942 3.3496 1.484 3.2771 0.33865-0.08429 0.47693-1.3206-0.05767-3.6084-0.45252-1.9388-1.0729-3.0849-1.4441-3.0094" fill="#fff"/>
 </g>
 <g fill="#0f141b" stroke-width=".73942">
  <path d="m34.369 30.833c-2.2641 0.35788-3.5795 2.4393-3.1729 4.5925 0.40372 2.1362 2.0534 3.4132 4.2243 3.0716 1.8086-0.28246 2.7196-1.2171 3.2608-2.9614 0.15528-0.49911 0.2551-0.47619 0.58044-0.06359 1.1187 1.4175 2.4127 1.8064 4.1311 1.5336 1.8382-0.28837 3.3037-1.9861 2.9754-4.2554-0.32017-2.2072-2.0704-3.5684-4.1644-3.3037-2.2323 0.28246-3.0353 1.4714-3.3503 3.0094-0.10796 0.52868-0.19447 0.58044-0.5383 0.08725-0.98713-1.4182-2.0719-2.0038-3.9463-1.7103m-3.9226 4.7116c-0.49911-2.6501 1.0315-4.9105 3.811-5.3815 1.7731-0.3002 3.3119 0.39263 4.1659 1.6378 0.39115-1.4914 1.26-2.7396 3.6697-3.0109 2.636-0.29651 4.6813 1.3923 5.0391 3.8539 0.40003 2.7691-1.5025 4.6694-3.6697 5.0088-1.745 0.2758-3.3266-0.29725-4.3737-1.5661-0.52277 1.6008-1.6016 2.7203-3.5744 3.0287-2.761 0.43626-4.597-1.0847-5.068-3.5707"/>
  <path d="m18.49 12.456c-3.4908 0.89322-5.3978 7.3728-3.4036 14.203 2.1036 7.2005 6.3494 11.116 9.6339 10.221 3.9404-1.0781 5.0133-8.0811 3.1825-14.616-2.0622-7.3617-6.6045-10.525-9.4128-9.8077m-4.2894 14.403c-2.253-7.7151 0.28616-14.214 4.126-15.129 3.4339-0.8178 8.3429 2.815 10.449 10.334 2.1229 7.5746 0.39263 14.405-3.8827 15.573-3.6195 0.98934-8.2061-2.2685-10.692-10.779"/>
  <path d="m47.982 4.9213c-3.8908 0.82076-6.3331 6.4374-4.557 14.026 1.7687 7.5613 5.9368 11.403 9.469 10.722 3.7304-0.70984 6.1919-6.4995 4.4195-14.468-1.6164-7.2678-6.0736-10.967-9.3315-10.279m-5.4998 14.215c-1.7924-7.6604 0.77491-13.997 5.3763-14.953 3.479-0.72315 8.581 2.88 10.356 10.86 1.87 8.4079-0.85329 14.548-5.1693 15.37-4.1844 0.79414-8.7348-3.4649-10.563-11.277"/>
  <path d="m39.662 16.129c-3.5514 0.22848-6.4463 0.95903-9.9836 2.5724l-0.27137-0.66991c3.3991-1.6807 6.5823-2.463 10.22-2.619z"/>
  <path d="m35.313 30.513c-2.1939-3.1825-4.1925-8.4013-4.8927-12.504l0.664-0.29281c0.7934 4.1171 2.7366 9.6553 5.0525 12.898z"/>
  <path d="m38.881 31.347c0.55087-5.4399 0.2233-11.42-0.99156-15.398l0.70984-0.12348c1.3753 4.3093 1.4323 10.079 0.96642 14.569z"/>
  <path d="m13.363 30.871c-5.0458-10.935-2.8091-21.864 2.8209-23.58 5.0251-1.5328 11.724 2.6523 14.532 13.994 0.50133 2.0253 0.06285 2.1451-0.52129 0.14271-3.1876-10.919-9.4927-14.637-13.761-13.237-4.5149 1.4803-7.2715 11.099-2.588 22.464 0.6115 1.484 0.18042 1.6496-0.4821 0.21591"/>
  <path d="m60.604 18.416c3.6808 1.7776 6.6999 4.4025 7.2049 6.4256 1.5151 6.0588-10.259 19.904-25.039 23.491-16.957 4.1171-32.863-6.0566-33.768-10.93-0.37045-1.9883 1.6659-5.6987 3.9108-8.2956l0.30168 0.89692c-1.8249 2.2419-3.5226 5.505-3.1958 7.2574 0.78083 4.2058 15.952 14.345 32.603 10.285 14.001-3.4154 25.565-16.846 24.154-22.494-0.40668-1.6297-2.9237-4.0712-6.1335-5.7349z"/>
  <path d="m60.364 20.717c-0.039189-12.43-7.0215-20.575-12.832-19.635-4.8151 0.77935-9.0956 7.1273-6.9602 18.312 0.33274 1.7391-0.08725 1.8352-0.51612 0.11757-2.7055-10.844 1.2681-18.48 7.3099-19.428 6.4514-1.013 13.979 7.27 13.532 20.655-0.057675 1.7369-0.52868 1.7251-0.53386-0.021443"/>
  <path d="m19.676 55.088c-1.7369-0.44957-2.6065-1.7502-3.3178-3.3163-4.4262-2.3218-5.0791-6.4751-3.8139-10.316l0.67065 0.47988c-0.95977 3.2498-0.39411 7.0112 3.4627 9.222 0.11313 0.06433 0.18042 0.09613 0.24844 0.2514 0.70689 1.6105 1.6667 2.7373 3.2549 3.1093z"/>
  <path d="m32.861 56.844c-2.3499 1.5432-5.5338 1.3709-7.4622-1.6999l0.51833-0.437c1.6075 2.497 4.4365 3.0767 6.9986 1.3798z"/>
  <path d="m38.966 58.066c-5.1922 0.14862-8.8072-3.8376-7.6597-9.2494l0.6433 0.05102c-0.94128 4.9142 2.0696 8.49 6.9424 8.5477z"/>
  <path d="m38.763 55.945c0.2307-1.3657 0.63738-1.2866 0.47397 0.08947-0.52055 4.35 2.7573 7.0992 7.0992 6.0825 4.8269-1.1269 5.6033-4.6258 4.5689-7.7935-0.44883-1.3724-0.10943-1.5121 0.44587-0.17968 1.3664 3.2764 0.60558 7.4312-4.8447 8.7045-4.9482 1.1535-8.5285-2.253-7.7432-6.9032"/>
  <path d="m51.099 54.153c4.3374-0.59006 6.8936-4.9157 5.2735-9.418-0.3357-0.93315 0.05694-1.0914 0.44587-0.18042 2.1007 4.9216-0.82076 9.7308-5.485 10.253z"/>
  <path d="m59.054 39.142c1.4677 1.9691 1.1602 4.5718-2.1406 6.4574l-0.25436-0.6884c2.6279-1.6496 3.0094-3.601 1.901-5.3172z"/>
  <path d="m70.758 28.888c4.2413 5.6543 2.8542 13.93-4.9401 16.009 0.15306 4.963-3.212 7.7425-7.8253 7.8223l-0.30168-0.61298c4.9068-0.17672 7.5221-2.9983 7.5266-7.3395 7.39e-4 -0.24475 0.04954-0.34087 0.28616-0.41112 7.4119-2.1968 8.6357-9.8986 4.3995-15.418z"/>
  <path d="m4.7205 77.077c-1.569 0.78526-3.3991 0.58414-4.1814-0.54939-0.90949-1.3147-0.82002-3.2498 1.4559-4.3086 2.4423-1.1358 3.2778-1.8049 4.9319-2.9096 1.365-0.91097 1.9277-1.6548 2.9266-2.9895 5.6152-7.4896 11.777-14.246 16.638-18.348l0.80745 0.20334c-4.8757 4.0505-11.15 10.977-16.848 18.579-0.94498 1.2607-1.6681 2.1406-3.1462 3.1181-1.7369 1.1476-2.5059 1.6763-5.0281 3.0139-1.7798 0.94424-1.6334 2.4031-1.0855 3.1714 0.62703 0.87991 2.0829 1.0736 3.8369 0.07986z"/>
  <path d="m5.4311 79.946c-1.4019-0.91023-1.6703-2.8238 0.045844-4.9238 1.0322-1.2629 1.5047-2.009 1.9669-3.1595 0.3113-0.77417 0.7128-0.62037 0.44957 0.17228-0.38893 1.172-0.80005 2.1066-1.873 3.4198-1.3524 1.6541-1.0662 3.161-0.096125 3.7895 1.6156 1.05 3.9019 0.19151 5.9131-3.9655 0.50059-1.0337 0.8703-0.87399 0.44291 0.19003-1.8833 4.6879-4.628 5.9205-6.8492 4.4772"/>
  <path d="m31.461 50.318c-7.9798 6.4196-13.228 12.47-16.249 18.343 1.1187 1.4796 1.8301 2.5015 2.8934 4.16 1.1054 1.7243 0.86068 3.3141-0.16119 4.1311-1.6319 1.3051-4.143 1.2171-6.0706-1.0056l0.18412-0.64256c1.8855 1.938 3.8746 2.2397 5.3926 1.0248 0.85625-0.68544 0.89618-1.8648 0.11091-3.1677-1.0263-1.7058-1.7118-2.6412-2.9141-4.2066-0.14049-0.18264-0.15084-0.28024-0.02144-0.54939 2.92-6.0263 8.4405-12.272 16.846-18.94z"/>
  <path d="m15.707 67.058c-0.8703-1.5831-2.3477-2.2197-4.3552-2.0134l0.41038-0.61742c1.972-0.11683 3.3533 0.5383 4.2591 2.0327z"/>
  <path d="m33.371 55.62c-0.54495 4.8972 0.96716 8.0715 4.3522 10.491 0.9753 0.69727 0.71576 0.95533-0.26176 0.40446-3.9049-2.2057-5.5427-6.0167-4.7974-11.669z"/>
  <path d="m33.659 61.715c-6.1978 3.428-11.183 12.151-8.3762 14.654 1.762 1.5705 5.8318 1.1239 11.054-1.3761 0.97751-0.46805 1.1668-0.09243 0.21665 0.43034-5.0214 2.7647-9.6871 3.3902-11.804 1.5003-3.5315-3.147 2.3432-12.441 8.6815-15.821z"/>
  <path d="m61.336 84.772c2.0815 7.8948 0.41112 13.456-2.8837 13.766-3.828 0.3601-6.5069-8.6712-4.3751-15.594 0.28024-0.90875 0.60706-1.3073 2.2892-1.8693 3.8849-1.2969 4.4868-9.5215-2.1384-13.653-3.7836 2.3159-9.5489 3.4383-13.95 1.0899-0.59006-0.02884-1.4611 0.15824-1.8774 0.47101-1.4101 1.0618-2.7514 1.9831-4.4838 3.0435-0.94054 0.57601-1.1565 0.23883-0.26323-0.40372 1.5276-1.0995 2.9562-2.1081 4.3167-3.2727 0.32313-0.27654 1.8522-0.63146 2.5185-0.57453 0.0318 3e-3 0.06211 0.01257 0.09021 0.02588 4.4284 2.1421 9.4505 1.0485 13.281-0.91097 0.32091-0.16415 0.40446-0.21 0.77861 0.01331 7.1495 4.2642 6.4736 13.386 1.9491 14.88-1.3724 0.45326-1.5498 0.66104-1.765 1.3613-2.1088 6.8478 0.57379 14.858 3.6306 14.57 2.4874-0.2344 4.1459-5.3504 2.2767-12.63z"/>
  <path d="m57.625 98.023c0.79192-0.89914 1.1661-3.1396 1.0219-6.3228-0.04289-0.95459 0.37858-0.98713 0.47988-0.03623 0.32165 3.002 0.2307 5.2314-0.67065 6.518z"/>
  <path d="m58.982 59.208c4.6192 3.9877 7.0385 8.5129 7.4267 13.538 0.36971 4.7922-1.5099 8.7791-3.5869 11.056-1.3332 1.4618-2.7469 2.1221-3.9655 2.1761-0.87621 0.03845-0.87326-0.33052-0.01257-0.4821 1.1757-0.20704 2.2072-0.81188 3.4546-2.199 1.9765-2.1976 3.7075-5.851 3.3496-10.492-0.37045-4.7988-2.6479-8.8642-6.7169-12.757z"/>
  <path d="m56.87 49.562c2.3225 3.7008 3.0642 8.2874 2.0696 11.545-0.32904 1.0751-0.70245 0.99452-0.46436-0.12866 0.75864-3.5877-0.26249-7.5221-1.9462-10.413z"/>
  <path d="m36.528 69.88c0.87843-0.18559 1.589 0.0732 2.5591 0.88582 4.4313 3.7134 5.4614 13.281 3.0619 14.545-1.9927 1.0529-5.9057-1.7295-7.5739-9.2635l0.58266-0.19669c1.4101 6.4174 4.8853 9.6435 6.6252 8.7281 1.782-0.93906 1.1979-9.6694-3.1211-13.27-1.3517-1.1269-2.117-1.0773-3.4952-0.32534z"/>
  <path d="m40.953 85.158c-1.4929-1.3568-2.2818-2.9141-2.8194-5.4273-0.21961-1.0315 0.21147-1.1276 0.47027-0.105 0.63072 2.4911 1.623 4.0912 3.2424 5.4325z"/>
  <path d="m66.554 29.555c4.3663-2.2974 8.6874-0.43848 10.088 3.6379 0.08134 0.23735 0.0488 0.35862-0.19816 0.559-3.7045 2.9954-3.6394 7.7351-1.6378 8.5898 1.9314 0.82741 4.0949-0.44735 4.4972-3.9152 0.14714-1.274 0.48062-1.2755 0.4821 0.0067 3e-3 3.8006-2.9052 5.7246-5.3009 4.7012-2.8135-1.203-2.5503-6.7006 1.4899-9.8483-1.1025-3.3947-5.2048-5.5981-9.909-2.5976z"/>
  <path d="m79.45 39.132c1.4175 3.7237 4.1755 5.011 6.0558 3.4546 1.2881-1.0677 0.92871-3.1795-0.25806-4.2066-1.1919-1.0315-1.873-1.9336-2.3543-2.9932-0.50133-1.1047-0.14419-1.291 0.42812-0.22109 0.50281 0.9398 1.209 1.7162 2.3632 2.7152 1.7509 1.5136 1.884 4.0993 0.32461 5.3904-1.8589 1.5424-5.1101 0.8873-6.728-3.005z"/>
  <path d="m67.217 24.465c4.838-1.6504 9.5799-0.34161 13.494 5.4784 1.3554 2.0142 3.564 2.9399 6.5195 4.0542 2.0756 0.78157 2.568 2.27 2.2449 3.7489-0.32017 1.4626-1.7081 2.202-2.9532 2.0149l-0.34901-0.75125c1.3384 0.21074 2.2663-0.40964 2.4697-1.4397 0.24918-1.2748-0.02662-2.1798-1.6711-2.8756-2.9288-1.2385-5.227-2.1916-6.7613-4.3751-3.9707-5.6514-8.2586-6.6518-12.877-5.0525z"/>
  <path d="m74.45 30.37c0.47693-1.7509 2.1909-2.7203 3.8154-2.8298l0.50724 0.48062c-1.7044 0.05693-3.5196 1.1735-3.8324 2.7839z"/>
  <path d="m33.144 45.091c-0.97234-0.42295-0.79488-0.85551 0.20186-0.48802 2.029 0.75421 5.3763 0.79414 8.3303 0.09908 3.4198-0.80375 6.4012-2.5318 7.4711-3.7496 0.75273-0.86512 1.098-0.6152 0.38154 0.28246-1.2348 1.5461-4.0823 3.3237-7.687 4.1703-2.8527 0.67065-6.3782 0.69136-8.6978-0.31425"/>
 </g>
</svg>
