<?xml version="1.0" encoding="UTF-8"?>
<!-- Created with Inkscape (http://www.inkscape.org/) -->
<svg version="1.1" viewBox="0 0 143.21 283.37" xmlns="http://www.w3.org/2000/svg">
 <g stroke-width="1.1603">
  <path d="m71.216 105c1.8517 8.6677 4.5369 19.163 7.3809 29.387 4.5674 12.094 8.0353 28.591 8.0796 38.278l-12.099 27.71c-1.8766 1.3569-3.6332 2.3824-5.3916 3.2031-3.9563 7.6735-6.971 19.468-10.632 34.676-3.1689 13.17-2.64 28.439 6.2972 38.798 5.0557-2.8661 17.039-0.61014 16.86 2.5735-0.085 1.4945-4.6818 3.3572-9.8861 3.2271-3.7042-0.0931-7.091-1.0034-10.224-3.0923-5.8688-3.9129-13.135-17.333-15.167-35.751-3.9046-6.9092-9.0397-16.386-11.68-22.853-0.71168-1.7437-0.37292-2.219 1.1769-0.77077 5.7747 5.3972 10.817 10.253 14.773 14.031 1.9071-9.3405 3.3082-22.47 2.4554-31.417-20.797-14.54-18.278-40.35 11.326-67.771-11.475-16.602-23.898-44.474-24.654-59.705 4.1418 3.0258 12.967 5.3723 20.889 5.7775 3.6295 0.18646 6.0905 0.86769 9.2759 2.5735 10.202 5.4618 19.455 13.587 26.056 17.475 7.0975 1.7676 13.721 0.42277 13.293-2.1618 2.2901 2.6381 4.188 5.9972 3.9397 6.9858-0.50401 2.0178-7.4639 5.5745-13.405 6.0037-6.4485 0.468-18.327-3.791-31.103-10.201 0.76244 0.97569 1.4732 1.8222 2.4378 3.0239" fill="#005a9e"/>
  <path d="m99.957 33.156c-12.153-6.768-32.494-14.638-45.629-17.55 3.8068 8.9279 7.2452 17.89 9.7532 28.197l14.629 12.894c6.5022 4.3809 19.567 7.9283 26.99 8.4609v0.02225c-0.25015-8.0362-1.4594-21.642-3.4531-29.232-0.39229-1.4962-0.77632-1.9487-2.292-2.7923" fill="#005a9e"/>
  <path d="m64.078 43.804c-2.6668-10.96-6.3839-20.399-10.481-29.892-0.80214-1.8572-1.3911-2.4544-3.2391-3.1716-12.453-4.8396-29.255-8.7941-42.122-10.231-2.8218-0.31569-3.1394 0.052597-1.4234 2.0944 15.936 18.962 34.578 33.399 50.359 44.002-5.9085-0.16523-10.696 3.8603-10.731 7.9107 18.389 13.55 47.818 17.377 59.257 10.665v-0.02225c-7.4242-0.5326-20.488-4.08-26.989-8.4609z" fill="#fff9c5"/>
  <path d="m79.361 51.797c0.14391 7.7428-3.804 12.262-8.2836 12.346-4.5784 0.08489-8.9261-5.4249-9.0498-12.143-0.13659-7.3393 3.9894-12.228 8.5882-12.312 4.2701-0.07939 8.6114 4.9227 8.7452 12.109" fill="#fff"/>
  <path d="m66.374 47.885c-0.25669 1.0375-0.42645 2.208-0.47352 3.4542-0.16328 4.3218 1.1732 7.8812 2.9861 7.9495 1.5951 0.06186 3.0276-2.6077 3.4587-6.1966-2.257-1.5767-4.343-3.4089-5.9714-5.2071" fill="#ef9aa4"/>
  <path d="m70.613 39.687c4.2701-0.07939 8.6113 4.9227 8.7452 12.109 0.0343 1.824-0.16614 3.4606-0.53905 4.9098 4.9338-5.1747 8.3307-11.25 7.871-12.548-0.54276-1.5342-12.46-5.8467-17.515-4.2849l0.0104 0.01021c0.46986-0.11354 0.94802-0.18737 1.4326-0.19661" fill="#e2eef4"/>
  <path d="m70.613 39.687c-2.7028 0.05075-5.2338 1.7686-6.8408 4.6578 2.2412 4.2009 9.0295 10.061 15.075 12.243 0.35352-1.4206 0.54462-3.0166 0.51138-4.7908-0.13397-7.1871-4.475-12.189-8.7452-12.109" fill="#005a9e"/>
  <path d="m68.736 50.23c-0.41262 0.39322-0.71815 1.2785-0.74674 2.3205-0.0379 1.4197 0.45138 2.5837 1.092 2.6012 0.64062 0.01753 1.1917-1.1197 1.2304-2.5394 0.0104-0.40153-0.0236-0.77814-0.0896-1.1178-0.51139-0.41354-1.0089-0.83538-1.4862-1.2646" fill="#fff"/>
  <path d="m61.513 34.641c4.1908-3.1837 8.2569-4.6643 13.422-5.076-1.1853-1.3874-2.472-2.7756-4.5028-4.0965-4.8184 0.53908-9.1846-0.08768-12.8-1.7834 1.3883 3.5593 2.6925 7.1862 3.8806 10.956" fill="#57c1e8"/>
  <path d="m59.023 6.9835c5.4534 4.4825 11.427 9.9368 17.256 15.482 7.8387 2.9714 15.649 6.4098 21.791 9.6691-1.416-5.7969-3.7107-11.785-5.94-16.315-0.5723-1.1631-1.1464-1.6698-2.3649-2.1065-8.7452-3.132-20.807-6.3166-29.761-7.9486-2.5347-0.46246-2.6908-0.18554-0.98123 1.2185" fill="#005a9e"/>
  <path d="m107 39.654c-1.1262-0.26769-2.5504 0.02408-3.7892 0.70892 0.71354 3.8778 1.2876 8.447 1.7076 12.882 0.61014 0.90831 1.3744 1.847 2.1489 2.5929 3.9369-5.3335 4.1511-15.178-0.0675-16.183" fill="#e2eef4"/>
  <path d="m105.7 65.181c0.63785-2.9945 1.164-6.4403 1.38-9.4633-0.62401-0.66-1.6698-1.6458-2.2467-2.3308 0.38492 2.9686 0.79753 8.6704 0.86676 11.794" fill="#005a9e"/>
  <path d="m106.27 62.175c-0.10803 1.1012-0.25196 1.8766-0.56861 3.0055-8.9935 5.3159-38.956 5.7212-62.925-13.633-1.8351-1.4806-2.3021-3.683-1.5508-6.0027-8.1645 0.92768-13.174 7.428-12.94 14.692 0.27324 8.5006 11.781 20.245 32.434 21.058 3.8307 0.15139 5.3325 0.47907 9.2759 2.5735 0.76707 0.40615 1.5415 0.83168 2.3252 1.2738 21.562 1.7132 34.725-2.4785 37.964-9.8731 1.475-3.3692 0.17898-8.9076-4.0136-13.094" fill="#ef9aa4"/>
  <path d="m29.617 53.828c-12.32 15.153-18.38 45.175-6.4357 61.232 8.7914 11.818 9.7052 24.33 5.1461 27.716-3.4698 2.5763-11.801 1.8526-20.674-10.472-18.829-26.15 2.7342-90.994 35.445-90.506-0.58706 0.99046-1.3218 2.447-1.8757 3.7467-5.2319 0.31292-10.088 4.2627-11.604 8.2836" fill="#ef9aa4"/>
  <path d="m87.078 172.94c-3.6748-2.2467-13.194 0.83354-18.898 8.8864-4.1455 5.8522-3.4237 15.69 0.5326 18.009 3.9784 2.3317 13.397-0.20672 18.188-8.1156 4.3929-7.2553 3.1292-16.976 0.17714-18.78" fill="#e2eef4"/>
  <path d="m61.878 172.32c1.7585 1.3791 2.1914 1.2572 1.7039-0.92398-1.0966-4.9043-2.0612-9.8907-2.7203-14.112 1.9929-3.3102 5.951-8.2744 9.2399-11.668 1.453-1.499 1.392-2.1167-1.0791-1.4086-4.5969 1.3181-9.4514 3.5187-12.313 6.2132-0.74123-1.7695-1.3431-3.4486-1.8258-5.2956-1.8785 2.1896-3.5843 4.3605-5.112 6.5076-0.01044 1.1049-0.02355 2.0787 0.01044 3.048-1.2757 1.1676-3.0517 2.7987-4.7843 4.632-1.295 2.4323-2.3548 4.823-3.1828 7.1639 3.7144-2.028 6.7754-3.4458 10.501-4.8277 2.6104 4.1187 6.0111 7.8803 9.5685 10.672" fill="#57c1e8"/>
  <path d="m68.773 101.97c-0.0555 2e-3 -0.11255 2e-3 -0.16903 5e-3 0.91292 0.93044 1.7326 1.8665 2.6068 3.0194 1.8507 8.6677 4.5369 19.163 7.3808 29.387 0.4366 1.1575 0.864 2.3566 1.2785 3.5852 3.6157-6.744 6.4052-15.997 8.0584-27.914-5.6529-1.8019-12.273-4.6292-19.156-8.0824" fill="#fff9c5"/>
  <path d="m95.873 101.3c5.9889 1.8479 12.878 0.54831 13.425-1.4114 0.74678-2.6787-3.12-8.2901-9.2427-9.3101-5.4969-0.9157-9.3387 3.5105-9.2316 7.427 1.1289 0.90092 3.2594 2.2568 5.0492 3.2944" fill="#e2eef4"/>
  <path d="m90.826 97.875c-0.0261-3.8871 3.7901-8.2144 9.2316-7.308 1.7926 0.29909 3.3858 0.99786 4.7325 1.895-2.2523-4.1345-5.231-4.9191-7.0513-3.528-2.6031-2.4194-5.1831-2.256-6.3258-0.35355-0.60551-0.5326-1.2295-0.95168-1.8323-1.236-0.0592 3.2529-0.17636 6.3867-0.35724 9.3802 0.5446 0.39507 1.0782 0.77722 1.6024 1.1502" fill="#005a9e"/>
  <path d="m112.81 104.31c8.4719-6.1993 11.499-12.11 15.051-36.881 1.3043-2.917 2.5477-5.3806 4.1658-8.2163 1.7612-1.0643 4.2323-4.7695 4.0153-8.9704-0.0683-1.3209-0.10153-2.8108-0.0342-4.1308 0.12746-2.4637-1.1363-4.0865-2.4019-4.1381-0.37386-1.1907-0.89353-2.3824-1.5923-3.5132-0.72186-5.2984-4.0172-5.7637-5.7997-3.3156 0.42279 0.84 1.2831 1.7252 2.1765 2.3049-0.16877 0.456-0.30277 0.92215-0.40615 1.3966-1.0615 1.5987-1.1788 5.8818-1.0015 11.397-1.5065-5.7369-2.9704-12.57-3.7042-17.876 0.64431-3.9471 0.25564-7.3319-0.61016-10.045-1.5951-4.9957-4.6338-7.8479-6.2972-7.4252-1.9966 0.50862-2.4461 5.0529-1.1879 9.9627 0.90001 3.5077 2.6381 6.995 5.0482 8.7137 2.4822 5.6879 2.8892 21.036 2.9446 34.34-6.3434 10.422-14.575 19.359-17.09 25.45 2.029 1.8019 3.3868 4.2111 3.2538 5.8098 0.98124 1.1031 2.6022 3.3397 3.4708 5.1369" fill="#005a9e"/>
  <path d="m123.59 28.807c0.51507 3.3249 2.6594 7.0947 4.7945 8.6511l-0.40523 1.3966c-0.94707 1.3781-1.2757 6.8335-1.1114 10.931-1.3347-5.4323-3.1403-13.306-3.5954-17.411 0.15333-1.0154 0.31751-2.1627 0.31751-3.5677" fill="#fff9c5"/>
  <path d="m105.55 92.839c-1.4279-6.4938 3.0304-14.668 10.985-15.048-3.0414 4.0153-9.3599 12.729-10.45 15.583z" fill="#e2eef4"/>
 </g>
 <g fill="#005a9e" stroke-width="1.1603">
  <path d="m57.247 142.47c2.2015-2.4 4.6088-4.8174 7.2341-7.2488-3.3101-4.7889-6.6978-10.518-9.863-16.609-5.1037-1.3357-12.646-2.4794-19.651-3.3101-2.5966-0.3074-2.7941 0.14492-1.5461 2.1544 4.9117 7.9181 16.141 19.561 23.826 25.013"/>
  <path d="m84.595 126.09c-1.3468 4.584-2.9326 8.5366-4.7206 11.872-9e-4 -2e-3 0-5e-3 0-5e-3 1.3477 3.9896 2.569 8.2966 3.5908 12.592 7.8627-6.1808 6.7153-18.105 1.1335-24.457"/>
  <path d="m86.149 128.21c4.1049 6.5372 4.3698 16.896-2.8108 22.543 6.2289 7.1003 11.929 11.848 17.159 14.392-3.8953 3.0202-8.0122 5.9677-12.412 8.8089 1.0468 1.5249 1.7013 4.2405 1.6661 7.3559 10.536-4.8193 18.438-7.439 26.438-9.4614 5.9787-1.5111 10.354-2.7046 13.584-4.4816l4.3016-29.504c-6.1523-8.5578-28.533-12.73-47.926-9.6535"/>
 </g>
 <g stroke-width="1.1603">
  <path d="m134.09 137.86c-2.7987 0.40522-6.7116 6.9341-7.3578 14.4-0.78092 9.0294 1.3237 14.864 3.4311 15.348 2.7065 0.61936 11.393-4.763 12.323-13.046 1.0043-8.9473-6.0091-17.049-8.3963-16.702" fill="#e2eef4"/>
  <path d="m71.483 202.3c-0.65352 4.7575-1.3671 10.558-1.6698 15.863-1.1871 2.8173-1.7234 6.1402-1.8129 9.2537-0.16433 5.6741 1.1548 10.653 2.7166 10.607 1.8785-0.0544 3.0618-5.0445 3.2243-10.474 0.11821-3.9332-0.29816-8.098-1.3735-10.787 1.5268-4.9218 3.7735-11.958 5.2366-17.21-1.0218 0.45139-2.8328 0.89629-3.6776 0.97293-0.67475 0.56766-1.6652 1.1991-2.6437 1.7742" fill="#005a9e"/>
  <path d="m8.0592 120.55c0.99691 2.2633 1.0975 4.5028 0.04526 4.9661-0.98494 0.43385-2.6085-0.75323-3.6794-3.1828-0.96092-2.184-0.97476-4.38 0.04525-4.8304 1.0025-0.4403 2.4923 0.55477 3.5889 3.047" fill="#f7cfd2"/>
  <path d="m46.441 54.515c1.6209 1.1944 3.3314 2.3095 5.1046 3.3525-0.6397-4.9975 2.9621-8.8476 5.6095-8.8476 3.7597 0 5.6455-1.3929 3.9609-6.4457-3.3563-10.069-9.1292-25.441-11.143-27.656-2.5385-2.7933-32.225-10.377-43.147-12.299 15.932 18.955 34.569 33.385 50.347 43.986-5.9077-0.16523-10.696 3.8594-10.731 7.9107" fill="#dbd7ab"/>
 </g>
 <g fill="#004984" stroke-width="1.1603">
  <path d="m46.441 54.515c0.03516-4.0514 4.823-8.0759 10.731-7.9107-3.7448-2.5163-7.6541-5.2559-11.646-8.2126-1.7538 2.2227-3.1495 4.5222-4.152 6.9267-0.9295 2.232-0.50583 4.4723 1.3994 6.2289 1.044 0.96276 2.1702 1.8332 3.6683 2.9677"/>
  <path d="m55.373 18.058c22.864 7.8434 41.981 15.602 43.857 18.059 1.3302 1.7419 5.603 21.662 6.468 29.064-5.1009-15.528-16.566-29.95-30.966-35.457-0.60921-1.1741-2.3021-2.9123-4.2997-4.2554-4.3448 0.576-9.4033-0.19292-12.8-1.7834-0.59538-1.5452-1.44-3.7957-2.2596-5.627"/>
  <path d="m59.987 7.7877c5.1904 4.3255 10.802 9.4551 16.292 14.678 6.8306 2.5892 13.637 5.5329 19.339 8.4028-2.1046-5.6686-5.0482-12.581-6.6359-14.103-1.8406-1.7639-17.935-6.5962-28.995-8.9788"/>
 </g>
 <g stroke-width="1.1603">
  <path d="m79.361 51.797c0.0343 1.824-0.16615 3.4606-0.53905 4.9098 4.9348-5.1747 8.3307-11.25 7.871-12.548-0.021-0.05999-0.0628-0.12369-0.1164-0.18923-2.2034 1.8434-4.799 3.5667-7.5138 4.9236 0.17348 0.9203 0.27876 1.8886 0.29816 2.904" fill="#c0cad0"/>
  <path d="m104.01 45.406c0.35352 2.5468 0.65723 5.2144 0.90554 7.8378 0.61105 0.90922 1.3753 1.847 2.1498 2.5938 1.6089-2.1803 2.5947-5.1129 2.9123-7.8885-2.0437-0.66922-4.0818-1.4742-5.9677-2.5431" fill="#c0cad0"/>
  <path d="m71.471 39.741c2.9427 4.3523 4.008 10.259 2.857 14.647 1.4981 0.90276 3.0295 1.6633 4.5166 2.1996 0.35352-1.4206 0.54462-3.0166 0.51138-4.7898-0.1245-6.7052-3.911-11.506-7.8849-12.056" fill="#004984"/>
  <path d="m70.427 25.469c-1.1621 0.13014-2.2948 0.18831-3.3996 0.18368 1.584 1.4723 2.9667 2.8754 4.3855 4.3994 1.1215-0.22707 2.2874-0.38862 3.5168-0.48739-1.1852-1.3865-2.472-2.7747-4.5028-4.0956" fill="#4ba8ca"/>
  <path d="m69.986 83.869c0.76706 0.40615 1.5415 0.83169 2.3252 1.2738 21.562 1.7132 34.725-2.4785 37.964-9.8731 0.12452-0.28523 0.22242-0.5917 0.30738-0.90553-8.0095 7.7288-30.061 7.4565-48.043 1.6505-13.916-1.9828-29.326-11.849-31.327-25.021-1.9938 2.5791-3.0452 5.8273-2.9354 9.2446 0.27416 8.5006 11.782 20.245 32.434 21.058 3.8307 0.15139 5.3325 0.47906 9.2759 2.5735" fill="#cf858f"/>
  <path d="m41.223 45.546c0.22894-0.53815 0.48922-1.1022 0.7569-1.6495-24.279 2.8809-39.462 50.267-22.589 74.686 11.1 16.066 5.9676 27.833-9.2935 16.849 7.9292 9.3036 15.082 9.6848 18.231 7.3467 4.56-3.3858 3.6452-15.899-5.1453-27.716-11.944-16.057-5.8846-46.08 6.4357-61.232 1.5157-4.0218 6.3729-7.9708 11.604-8.2836" fill="#cf858f"/>
  <path d="m72.318 85.146c-0.0182-0.0116-0.0526-0.0116-0.0756-0.01752 6.203 3.5908 11.997 7.9975 16.98 11.604 0.22242-3.6683 0.35261-7.5341 0.39322-11.589-4.9615 0.49476-10.739 0.52339-17.297 0.0011" fill="#dbd7ab"/>
  <path d="m68.604 101.97c0.912 0.93045 1.7326 1.8665 2.6059 3.0194 0.23549 1.1012 0.48462 2.232 0.74492 3.3868 4.0116 3.9987 9.5713 6.6655 15.217 6.4809 0.27229-1.5545 0.52707-3.1532 0.75691-4.8092-5.6529-1.8019-12.273-4.6293-19.156-8.0824-0.0555 2e-3 -0.11255 2e-3 -0.16876 5e-3" fill="#dbd7ab"/>
 </g>
 <g fill="#004984" stroke-width="1.1603">
  <path d="m60.723 102.12c3.587 0.75413 9.0415 2.9418 11.03 5.2874-0.15698-0.69229-0.3923-1.9034-0.54278-2.4157-0.84275-1.1594-1.7114-2.2218-2.6059-3.0194-2.1092 0.0701-5.603 0.19292-7.8812 0.14769"/>
  <path d="m108.33 100.91c1.8276 1.9422 2.5726 4.2886 2.3714 4.8599-0.28711 0.81322-7.4049 4.1464-12.37 3.9203-7.1834-0.32677-16.203-4.4216-24.15-8.7914-4.2802-2.3529-11.43-1.3284-13.713 0.99782 1.7824 0.16062 4.8877 0.20863 8.2957 0.0738 12.775 6.4107 24.655 10.67 31.101 10.202 5.9427-0.43016 12.903-3.9859 13.405-6.0037 0.24831-0.9886-1.6495-4.3486-3.9397-6.9858 0.0924 0.55384-0.25748 1.2313-1.0025 1.727"/>
  <path d="m125.45 57.258c-0.19678-5.5957-1.7548-17.016-3.6813-24.127-0.25015-0.9203-0.67199-1.4187-1.4677-2.2098-3.3443-3.3231-5.2883-11.278-3.8085-16.031-0.0379 0.0055-0.0792 0.0048-0.11642 0.01387-1.9966 0.50861-2.4461 5.0538-1.188 9.9627 0.89906 3.5077 2.6372 6.995 5.0482 8.7147 2.4822 5.6879 2.8883 21.036 2.9446 34.34-0.2224 0.36646-0.44861 0.73108-0.67567 1.0938 1.3144 2.0363 0.8649 4.1723-0.9831 6.7605-4.7196 6.6138-9.2362 13.803-12.778 20.988 0.43476 0.88062 0.65724 1.7242 0.6 2.4166 0.9803 1.1031 2.6012 3.3397 3.4708 5.1369 8.471-6.1984 11.499-12.11 15.049-36.881 0.16066-0.35908 0.32125-0.71262 0.48185-1.0606-1.703-0.66092-2.7212-4.0929-2.8965-9.1181"/>
 </g>
 <path d="m105.55 92.839 0.53447 0.53446c0.828-2.1683 4.6736-7.7169 7.8074-12.02-3.2944 2.9612-5.6861 3.959-7.4095 3.5602-1.1363 2.5126-1.4981 5.3511-0.93232 7.9255" fill="#c0cad0" stroke-width="1.1603"/>
 <path d="m109.3 99.882c0.17453-0.62768 0.0877-1.4197-0.21403-2.2736-6.1596 4.223-16.173 1.2794-14.936-5.7747-2.1296 1.475-3.3858 3.9046-3.324 6.1652 1.1289 0.90185 3.2594 2.257 5.0492 3.2944 5.9889 1.8479 12.878 0.54829 13.425-1.4114" fill="#c0cad0" stroke-width="1.1603"/>
 <g fill="#004984" stroke-width="1.1603">
  <path d="m92.218 93.605c-0.7717-1.008-2.0132-2.3594-2.7286-2.8967-0.0673 1.9181-0.13658 4.1464-0.27136 6.023 0.38398 0.34246 1.1058 0.94707 1.6024 1.2692 0.0692-1.3338 0.49201-3.1458 1.3975-4.3957"/>
  <path d="m92.74 87.455c1.2416 0.58706 2.6631 2.1665 3.2501 3.419-0.65445 0.23722-1.3994 0.64338-2.0086 1.0948-0.56492-1.1963-1.559-2.5292-2.5735-3.3858 0.33878-0.56399 0.76801-0.85753 1.3321-1.128"/>
  <path d="m99.203 88.337c1.0597 0.40615 2.3243 1.6477 3.0239 2.844-0.72276-0.27045-1.8276-0.56399-3.0923-0.74492-0.31569-0.4283-1.0006-1.1381-1.393-1.4972 0.51324-0.33045 0.94247-0.46707 1.4612-0.60184"/>
  <path d="m126.84 36.081c1.3671-1.6948 3.3313-1.1695 2.7046 1.6348-1.188 5.3206 2.2596 14.922 4.4298 12.931-0.49108 1.7991-1.5314 2.0363-2.5865 0.98122-2.7277-2.7277-4.823-8.8605-3.0018-14.169-0.53537-0.30738-1.1603-0.96092-1.5461-1.3772"/>
  <path d="m128.06 54.392c-0.38674 3.8344 0.59447 6.48 2.7933 7.1344 0.3277-0.65446 0.67568-1.3699 1.1704-2.3058-2.0612 1.2656-3.3996-2.1231-1.2591-8.3067-1.9522-2.856-3.4781-7.0698-2.9132-11.593-0.89075 1.9919-1.2092 7.3246-0.87231 10.931 0.3074 1.2859 0.63507 2.773 1.0809 4.1399"/>
  <path d="m132.32 52.192c-1.2784 2.7046-1.3079 6.6877-0.0592 6.8067-1.9856 1.825-3.8935-1.2185-1.4871-8.0852 0.45048 0.504 0.80308 0.95169 1.5461 1.2785"/>
  <path d="m39.827 75.518c0.09132 1.8304 0.35447 3.8482 0.75969 6.0027 5.9224 2.3566 13.477 2.412 20.23-0.21783-0.03516-0.0011-0.06579-0.0046-0.10072-0.0081-7.9227-0.40574-16.747-2.7522-20.889-5.7771"/>
  <path d="m33.419 117.46c4.9117 7.9181 16.141 19.56 23.826 25.013 2.2015-2.4 4.6099-4.8176 7.2341-7.2489-0.48922-0.70799-0.98031-1.4428-1.4723-2.1914-9.0304-3.36-22.277-11.315-30.163-17.616-0.36275 0.29171-0.11795 0.92585 0.57511 2.0428"/>
  <path d="m34.445 219.62c-0.12747 0.20594-0.021 0.73754 0.30372 1.5323 2.64 6.4661 7.775 15.944 11.68 22.853 2.0317 18.417 9.2981 31.837 15.167 35.751 3.1329 2.089 6.5206 2.999 10.224 3.0923 5.2043 0.13109 9.8012-1.7326 9.8861-3.227 0.0235-0.39783-0.14496-0.78183-0.46523-1.1418-2.8976 2.699-12.868 2.844-18.019-0.23444-7.7003-4.6043-12.142-26.341-9.3977-38.516 3.6193-16.059 5.1997-21.928 9.0738-33.884 4.2139-1.1714 8.2873-2.9852 11.533-5.3741-2.281 0.39137-4.3283 0.17164-5.7147-0.64063-2.5513-1.4962-3.7541-6.1163-3.1781-10.78-9.3821-3.3443-17.693-12.85-19.482-24.75-1.3671 0.65536-2.7536 1.3699-4.2461 2.1849h-9.16e-4c-5.2597 14.858-1.2028 27.735 11.347 36.51 0.85201 8.9492-0.76613 24.72-3.0563 34.225-5.5365-5.651-11.645-12.294-15.654-17.6"/>
 </g>
 <path d="m46.055 164.3c-0.27968-1.8572-0.39877-3.7716-0.33968-5.7313-0.23733 0.24282-0.47538 0.48925-0.71354 0.74032-1.2969 2.4341-2.3639 4.8295-3.1947 7.175h9.17e-4c1.4936-0.81507 2.8799-1.5286 4.247-2.184" fill="#4ba8ca" stroke-width="1.1603"/>
 <g fill="#004984" stroke-width="1.1603">
  <path d="m71.32 216.53c0.86491-3.9803 2.004-10.577 2.5837-15.82-0.66092 0.51877-1.5443 1.0763-2.4185 1.5914-0.65354 4.7575-1.368 10.557-1.6698 15.863-1.187 2.8173-1.7233 6.1402-1.8138 9.2538-0.13762 4.7593 0.76803 9.0267 1.9856 10.253 2.5541-2.5882 2.7959-14.057 1.4224-19.253-0.20411-0.7735-0.23812-1.1991-0.0896-1.8886"/>
  <path d="m69.812 218.17c0.30002-5.28 1.0089-11.036 1.6597-15.783-0.76986 0.44214-1.5305 0.83905-2.2911 1.1926-0.18552 0.35908-0.36555 0.73568-0.54645 1.1123-0.0131 2.9999-0.0961 6.2123-0.22162 9.5501-2.4239 3.2898-2.9362 11.515-0.38862 15.768-0.0405-0.83352-0.0519-1.7013-0.0261-2.5865 0.0905-3.1135 0.62675-6.4357 1.8138-9.2538"/>
  <path d="m83.341 129.97c-1.0477 2.9723-2.2052 5.6382-3.4671 7.992v-5e-3c1.3476 3.9894 2.5689 8.2966 3.5917 12.592 1.2185-0.95814 2.219-2.0547 3.0222-3.2465 1.5581-6.4172-0.40061-12.601-3.1431-17.331"/>
  <path d="m89.073 176.08c0.45231 1.4492 0.70617 3.2566 0.68309 5.2237 10.536-4.8202 18.438-7.439 26.438-9.4614 5.9288-1.499 10.278-2.6862 13.499-4.4372-1.9347-1.176-3.6822-6.792-2.9594-15.148 0.0857-0.99142 0.23078-1.9653 0.42093-2.9105-9.72 3.4541-26.121-1.4021-38.333-8.1923-0.56491 3.6295-2.2819 7.0781-5.4793 9.5926 6.2289 7.1003 13.93 13.541 19.576 15.543-3.6111 2.8883-9.4541 7.0245-13.846 9.7902"/>
 </g>
 <path d="m130.16 167.6c2.124 0.48646 7.9311-2.7258 10.781-8.1351-5.819 2.16-10.856-0.72554-13.789-10.132-0.19101 0.94798-0.33692 1.9246-0.42276 2.9187-0.78091 9.0295 1.3237 14.865 3.4311 15.348" fill="#c0cad0" stroke-width="1.1603"/>
 <path d="m68.715 199.83c3.9784 2.3317 13.397-0.20671 18.187-8.1156 1.0228-1.6883 1.7354-3.5114 2.1951-5.3353-9.3101 9.7965-19.456 8.4609-23.265 0.94431-1.1511 5.1987 0.0157 10.827 2.8827 12.507" fill="#c0cad0" stroke-width="1.1603"/>
 <g fill="#0f141b" stroke-width="1.1603">
  <path d="m101.91 62.522c0.36832 0.41354 0.97939-0.04985 0.45972-0.62769-0.36186-0.40153-0.86863-0.67384-1.3311-0.80215-0.45968-0.12738-0.54092 0.23076-0.2355 0.44954 0.38216 0.27415 0.71447 0.53908 1.1068 0.9803"/>
  <path d="m72.666 53.322c-0.5631 4.3689-2.2708 6.3831-3.8003 6.312-2.0787-0.07847-3.5187-3.7809-3.3462-8.3113 0.0498-1.309 0.26493-2.5273 0.56861-3.7357l0.57971 0.58246c-0.241 0.95261-0.34984 2.0686-0.39322 3.1984-0.17164 4.5609 1.2526 7.5258 2.6243 7.5785 1.2877 0.048 2.713-2.3861 3.1292-6.0849z"/>
  <path d="m78.851 51.794c-0.12748-6.8538-4.2102-11.74-8.2264-11.675-4.2424 0.07847-8.2366 4.7335-8.1036 11.872 0.12926 7.0006 4.6301 11.792 8.5513 11.732 4.2277-0.07939 7.919-4.3957 7.7787-11.929m0.99044-0.0073c0.14025 7.5211-3.6249 12.693-8.7571 12.788-4.4242 0.12271-9.4338-4.9098-9.575-12.57-0.13763-7.3495 4.1021-12.641 9.1006-12.732 4.7049-0.10429 9.0978 5.2947 9.2316 12.514"/>
  <path d="m78.944 55.894c4.4797-4.7068 7.571-10.575 7.2646-11.557-0.33231-1.0671-9.0831-4.4344-14.607-4.3126l-2.5707-0.54737c5.2522-1.6292 17.478 2.6825 18.131 4.5037 0.59445 1.6542-3.1523 8.0861-8.5006 13.541z"/>
  <path d="m78.77 57.059c-6.1781-2.196-12.884-8.0159-15.253-12.311l0.47632-0.85938c2.1627 4.0939 8.747 10.008 14.955 12.245z"/>
  <path d="m54.12 15.151c13.164 2.8587 33.734 10.651 46.124 17.55 1.608 0.89538 2.099 1.583 2.5107 3.1513 1.8554 7.0651 3.0259 19.989 3.3148 29.014 0.0157 0.46338 0 0.53353-0.37479 0.7514-12.312 7.1824-45.57 2.1517-63.275-13.634-1.9856-1.7695-2.7102-4.1999-1.5979-6.8686 0.99505-2.3889 2.4351-4.7418 4.2378-7.0282l0.86585 0.61199c-1.7769 2.2523-3.0535 4.4834-4.031 6.8298-0.91753 2.2034-0.39971 4.1114 1.3126 5.6372 17.465 15.569 49.502 20.956 62.092 13.796-0.36739-8.7867-1.728-21.81-3.5833-28.879-0.34615-1.3172-0.54275-1.6376-2.0372-2.4692-12.222-6.8049-32.304-14.566-45.173-17.558z"/>
  <path d="m41.231 49.428c0.98862-3.6803 3.3932-7.3144 5.7212-9.9655l0.74031 0.52153c-2.3806 2.795-4.908 6.8354-5.6391 10.809z"/>
  <path d="m57.703 47.08c-5.9759-0.23169-10.766 3.7809-10.721 7.8544l-1.0837-0.8243c0.17452-4.1298 4.932-7.8886 10.586-8.0012z"/>
  <path d="m105.21 65.515c-7.7288-0.64155-20.097-4.0578-26.497-8.2772l0.22528-0.9323c6.2999 4.1963 19.107 7.9274 26.791 8.495z"/>
  <path d="m75.045 29.409c14.484 6.0138 24.473 17.491 30.855 35.229l-0.51507 0.78462c-6.8168-18.117-17.087-29.609-32.046-35.66z"/>
  <path d="m104.83 52.373c0.58613 0.9563 1.5138 2.0953 2.1858 2.7572 3.4384-5.0991 3.4902-14.121-0.10988-14.976-1.1271-0.26953-2.5172 0.01021-3.612 0.71169l-0.17531-1.0163c1.1548-0.65262 2.6677-0.96092 4.0135-0.64154 4.7372 1.128 4.3033 11.134 0.54091 16.536-0.46337 0.66646-0.73755 0.63785-1.2203 0.12645-0.51045-0.53908-1.0136-1.1594-1.4871-1.8213z"/>
  <path d="m105.52 63.755c0.56398-2.8763 0.9443-5.6575 1.1187-8.1923l0.88894 0.05631c-0.17637 2.9602-0.70895 6.4126-1.4723 9.6332z"/>
  <path d="m61.314 34.06c3.995-2.9474 7.8313-4.3588 12.709-4.8581-0.78001-0.93322-1.9431-2.0511-3.707-3.251-4.6532 0.50585-8.8125 0.04247-12.402-1.5581l-0.51417-1.368c3.6193 1.7013 8.0548 2.5163 12.76 2.0077 0.26584-0.02863 0.47169 0.01935 0.73385 0.19661 1.7419 1.1732 2.9824 2.4083 4.0071 3.5705 0.75232 0.85384 0.66278 1.1723-0.48459 1.284-4.9569 0.47999-8.7692 2.0824-12.737 5.1203z"/>
  <path d="m97.474 31.84c-1.2747-4.9154-3.4745-10.88-5.869-15.748-0.52797-1.0717-0.8852-1.3929-2.0621-1.8166-8.555-3.0822-20.404-6.3554-29.598-8.1174-1.5286-0.29354-1.5674-0.22246-0.6674 0.52984 5.4139 4.5276 11.045 9.4642 17.977 16.074l-1.9495-0.58431c-6.4883-6.1587-11.223-10.421-16.544-14.895-2.1-1.7639-1.6708-2.4738 1.3237-1.9089 9.3009 1.7566 21.263 4.7584 29.869 7.764 1.4824 0.51784 2.016 1.0606 2.7056 2.4619 2.4904 5.0603 4.6458 11.167 5.9981 16.833z"/>
  <path d="m63.728 44.265c-2.8772-11.348-6.7605-21.108-10.613-30.036-0.75229-1.7436-1.1566-2.2329-2.987-2.9446-11.914-4.6301-28.718-8.7692-41.927-10.338-2.4295-0.288-2.5366-0.32769-1.0357 1.4114 13.804 16.002 30.157 30.424 51.236 44.658 1.271 0.85938 0.82984 1.3717-0.372 0.58615-21.282-13.907-38.175-28.498-51.531-44.704-1.9477-2.3639-1.2978-3.1569 1.776-2.8246 13.475 1.4603 30.347 5.4646 42.303 10.11 1.9292 0.75046 2.6003 1.3283 3.5602 3.5539 3.8022 8.8107 7.6624 18.706 10.265 29.571z"/>
  <path d="m71.367 84.449c21.168 1.8867 35.128-1.9116 38.406-9.4015 1.2747-2.9114 0.37571-7.8627-3.6369-12.23l0.24648-1.2581c4.8277 4.6837 5.9105 10.358 4.3532 13.911-4.0809 9.3221-20.849 11.6-37.363 10.381z"/>
  <path d="m43.469 52.103c-0.69601 15.786 30.451 33.154 46.655 32.56l-3.2953 0.88616c-16.836-1.0717-45.953-18.271-44.293-34.184z"/>
  <path d="m41.094 46.213c-7.3237 0.88154-12.309 6.7883-12.076 13.997 0.2806 8.6908 12.276 19.753 31.734 20.52 3.6591 0.14398 5.388 0.35538 9.5086 2.6566 6.503 3.6314 12.07 7.2618 18.701 12.541 3.5982 2.8661 8.2808 5.9824 11.956 6.8354 1.6745 0.3886 1.5683 0.94521-0.12553 0.69322-4.1584-0.62031-8.7923-3.6757-12.576-6.6895-6.6018-5.2569-12.535-9.0378-18.518-12.376-3.1606-1.7639-5.4599-2.3732-8.9916-2.5117-20.908-0.82338-32.83-12.381-33.13-21.636-0.24727-7.6744 5.207-14.452 13.954-15.345z"/>
  <path d="m88.633 96.401c0.21222-3.5833 0.34521-7.3264 0.39878-11.228l1.1501-0.08308c-0.0262 4.1843-0.15594 8.2126-0.39047 12.07z"/>
  <path d="m88.505 110.26c-1.6365 11.734-4.4557 21.35-8.3907 28.406l-0.49199-1.3468c3.6258-7.0191 6.1846-16.172 7.7141-27.379z"/>
  <path d="m29.131 55.355c-11.344 15.311-16.981 43.859-5.4498 59.361 9.1153 12.254 10.112 24.77 4.9845 28.577-3.8234 2.8402-12.17 2.2736-21.509-10.579-19.012-26.169 2.1655-92.382 36.366-91.496l-0.68216 1.1879c-31.96-0.17908-53.039 63.94-34.699 89.486 8.4156 11.723 16.579 12.776 19.779 10.398 4.236-3.1459 3.4717-15.179-5.2246-26.869-12.047-16.194-6.371-46.816 6.9664-62.643z"/>
  <path d="m64.862 134.85c-11.662-16.907-23.399-43.901-24.49-58.948l-1.0975-0.53169c0.60923 15.805 13.158 43.566 24.809 60.187z"/>
  <path d="m46.94 102.74c-2.4397-9.3914-3.0157-18.324-1.3144-24.331l0.99231 0.34892c-1.7456 6.2686-0.72924 17.205 2.5754 27.776z"/>
  <path d="m56.843 142.93c-7.8009-5.5579-18.923-17.347-23.794-25.215-1.5111-2.4397-1.0384-3.1782 1.9588-2.8421 5.3271 0.59906 13.745 1.7954 19.359 3.1338l0.55662 1.2498c-5.9104-1.5766-14.475-2.8596-19.984-3.4855-2.0824-0.23629-2.1092-0.0896-1.1206 1.4778 4.8692 7.7251 16.031 19.357 23.78 24.854z"/>
  <path d="m50.019 235.95c1.8267-9.2556 3.384-23.001 2.6123-32.605-8.3695-5.665-13.171-13.687-13.708-22.939-0.86216-14.773 8.8402-31.411 27.539-47.448 1.1659-1.0006 1.5711-0.53815 0.44494 0.50862-18.04 16.771-27.445 33.276-26.656 46.809 0.50862 8.7129 4.9845 16.351 12.998 22.073 0.40615 0.28985 0.44398 0.35171 0.49384 0.95172 0.85753 10.049-0.7837 23.718-3.0554 32.808-0.46986 1.8803-1.0468 1.763-0.66738-0.15882"/>
  <path d="m69.986 203.28c-4.4732 8.4885-7.2212 19.803-10.949 35.102-3.6692 15.061-1.5702 29.124 5.9068 38.026 5.5855-2.7314 17.533-0.47537 17.324 3.2493-0.10802 1.895-4.872 3.8547-10.484 3.7014-4.5941-0.11533-7.5904-1.2037-10.502-3.1431-6.0203-4.0144-13.323-16.868-15.363-36.01-3.9101-6.7827-8.8107-16.205-11.501-22.923-0.98491-2.4572-0.15778-2.8717 1.7372-1.1483 4.7178 4.2923 10.874 10.187 14.692 13.75l-0.23341 1.1197c-4.223-4.0431-10.214-9.7725-14.913-14.361-0.99966-0.9766-1.1723-0.86768-0.62861 0.39231 2.7702 6.4292 7.6448 15.416 11.569 22.399 0.1808 0.3231 0.23444 0.46062 0.29261 0.94433 2.2384 18.47 9.7966 31.472 15.015 34.95 2.7784 1.8526 6.3757 2.8892 9.8861 2.977 5.5015 0.13581 9.2538-1.7751 9.3082-2.7359 0.13764-2.4064-10.511-4.7344-15.866-2.1784-0.39322 0.18734-0.63507 0.17635-0.96274-0.20305-7.5202-8.7212-10.225-22.696-6.2926-39.035 3.6388-15.118 6.5593-26.637 10.287-34.169z"/>
  <path d="m75.498 200.3c-4.1196 3.1182-7.8775 4.6412-11.555 5.5596-1.5443 0.38491-1.7354-0.14575-0.18289-0.64984 3.539-1.1483 6.6369-2.4341 9.6027-4.6162z"/>
  <path d="m86.811 173.37c-3.4384-2.099-12.756 1.2332-18.109 8.7914-4.1714 5.8882-3.0757 15.253 0.29999 17.231 3.5926 2.1074 12.487-0.0157 17.324-8.003 4.2664-7.043 3.1098-16.416 0.48552-18.019m0.52341-0.84462c3.6729 2.2458 4.1908 12.758 0.0905 19.528-4.9614 8.1904-14.797 10.7-19.015 8.2282-4.6117-2.7037-4.7021-13.243-0.76429-18.803 5.6777-8.015 15.505-11.512 19.69-8.9538"/>
  <path d="m75.324 196.2c5.1157-3.228 10.058-8.3279 10.992-16.713 0.14941-1.3468 0.63876-1.3098 0.57507 0.0416-0.40244 8.6141-5.7295 14.234-11.282 17.174-1.1741 0.62124-1.5037 0.26676-0.28523-0.50214"/>
  <path d="m78.364 199.24c-1.2628 4.5295-3.8676 12.981-5.279 17.494 1.0578 2.844 1.5184 6.5862 1.3901 10.851-0.20854 6.9848-1.836 10.833-3.7569 10.89-1.6708 0.0811-3.4708-3.8363-3.2612-11.048 0.0888-3.0969 0.55845-6.2058 1.8868-9.3812 0.31108-5.4249 0.98119-11.123 1.5618-15.369l1.1372-0.56586c-0.57598 4.1796-1.3781 10.252-1.7114 15.757-0.0236 0.36276-0.0683 0.52245-0.20594 0.86954-1.1317 2.8717-1.5193 5.9547-1.5968 8.6547-0.21142 7.2905 1.5434 10.196 2.1896 10.169 0.98952-0.0304 2.4729-2.9382 2.6852-10.044 0.12092-4.0302-0.29724-7.6098-1.1741-10.208-0.14313-0.42369-0.15962-0.57045-0.0314-0.9803 1.3865-4.4363 3.7873-12.13 5.0547-16.617z"/>
  <path d="m68.148 230.93c-3.336-4.271-3.0489-12.599-0.21691-16.858 0.12747-3.4356 0.15961-6.1145 0.17819-8.6824l1.0458-1.5683c0 2.8006-0.11174 6.2436-0.25745 10.158-0.0131 0.34521-0.0665 0.47074-0.26769 0.81689-2.0187 3.4634-2.436 10.237-0.52245 14.421z"/>
  <path d="m86.045 172.5c-0.10443-9.5769-3.3516-25.76-7.9531-37.945-3.1884-11.344-5.6317-21.323-7.3477-29.348-0.84737-1.1151-1.6532-2.1055-2.6668-3.1273l1.1741-0.0352c0.83724 0.83722 1.5102 1.5674 2.1803 2.436 0.19284 0.24924 0.24098 0.36368 0.32308 0.74491 1.7142 7.9643 4.2784 17.993 7.3412 29.004 4.7362 12.478 8.2661 28.998 8.1776 38.805z"/>
  <path d="m84.769 125.69c6.0812 6.3941 7.3237 19.078-1.2277 25.474l-0.20304-1.2129c6.8796-5.6797 6.4292-16.67 1.1058-23.446z"/>
  <path d="m133.46 138.03c-6.3582-7.9421-27.212-12.23-47.004-9.3914l-0.59171-0.91015c20.474-3.2825 42.998 1.0061 48.921 10.169z"/>
  <path d="m83.562 150.14c12.327 13.874 22.282 18.851 30.995 15.929 1.307-0.43844 1.5046 0.12452 0.23157 0.65723-8.8098 3.6858-19.487-1.2434-31.077-14.683z"/>
  <path d="m101.02 165.37c-4.5812 3.5151-8.327 6.1098-12.652 9.0276l-0.60553-0.87137c4.3208-2.7914 8.1405-5.5061 12.223-8.6686z"/>
  <path d="m89.758 180.66c9.5501-4.4039 17.321-7.1252 26.287-9.3914 5.7876-1.464 9.7033-2.496 13.155-4.2323l1.1142 0.63416c-3.7864 2.1184-7.7566 3.2012-14.003 4.7529-8.7424 2.173-16.665 5.0169-26.561 9.4467z"/>
  <path d="m134.15 138.36c-2.4444 0.35538-6.1587 6.6055-6.7965 13.974-0.83817 9.683 1.5775 14.438 2.9908 14.762 2.2568 0.5197 10.588-4.5157 11.5-12.638 0.99875-8.902-5.7987-16.373-7.6938-16.097m-0.13475-0.98213c2.7508-0.39786 10.129 8.0334 9.0896 17.292-0.99045 8.8107-10.257 14.097-13.068 13.458-2.5716-0.58986-4.7344-7.08-3.9702-15.912 0.54001-6.24 4.1686-14.291 7.9486-14.837"/>
  <path d="m132.05 162.91c4.2442-3.9212 7.1556-11.624 4.5276-18.394-0.49015-1.2637-0.072-1.4548 0.52616-0.23914 3.371 6.8565 0.25669 15.305-4.6809 19.074-0.88246 0.67384-1.2544 0.37383-0.37291-0.44032"/>
  <path d="m61.65 101.63c2.1065-0.0194 4.4067-0.0462 6.6784-0.12734 0.41261-0.0139 0.55568-1e-3 0.94984 0.19107 13.749 6.7236 24.687 10.353 30.564 9.9286 6.1136-0.44307 12.463-3.9369 12.898-5.5929 0.19754-0.75138-1.4446-3.6295-3.4496-6.0711l0.13841-1.5277c2.2736 2.6659 4.7271 6.4744 4.3431 7.8747-0.64337 2.3483-7.859 5.9899-13.865 6.4245-5.6805 0.40892-15.652-2.3464-31.221-10.263-2.5781 0.0398-4.5203 5e-3 -7.0366-0.17262-1.6514-0.11534-1.6542-0.648 0-0.6646"/>
  <path d="m96.128 100.82c6.4088 1.895 12.367 0.25476 12.739-1.0772 0.64616-2.3216-2.9981-7.6051-8.867-8.5837-5.376-0.89722-8.747 3.4486-8.6824 7.1547l-0.99506-0.68491c-0.0636-3.7929 3.6563-8.6483 9.8141-7.62 5.939 0.98953 10.516 6.6304 9.5842 9.9756-0.64335 2.3132-6.2824 3.1754-11.112 2.4342z"/>
  <path d="m93.61 92.177c-0.99965-1.8876-2.5061-3.4449-4.0181-4.2351l-0.021-1.1511c1.8904 0.80677 3.7864 2.7193 4.8535 4.8895z"/>
  <path d="m98.472 90.495c-2.7147-3.3747-5.5421-3.4928-6.6812-1.5868l-0.76153-0.64245c1.3587-2.4489 5.304-2.4664 8.6852 2.2199z"/>
  <path d="m104.11 92.235c-2.0022-3.1661-4.2526-4.08-5.9925-2.9382l-0.76802-0.71262c2.0502-1.632 5.6049-0.98767 8.0455 4.0366z"/>
  <path d="m105.56 93.187c1.8019-5.364 10.504-14.655 17.117-25.427-0.10339-13.14-0.37201-28.099-2.8237-33.838-2.2412-1.6357-4.0984-4.7178-5.1794-8.9381-1.2895-5.0252-0.92121-9.8621 1.5711-10.496 2.1249-0.53908 5.2956 2.6316 6.9138 7.7022 0.99784 3.1245 1.1695 6.5907 0.58801 10.192 0.8252 5.9381 2.5726 14.264 4.44 21.041 0.36923 1.3403-0.22424 1.5156-0.62955 0.18646-2.0095-6.6102-3.8806-14.91-4.7307-20.855-0.0435-0.3-0.0488-0.43569 0-0.7283 0.52246-3.4753 0.27232-6.5686-0.6757-9.5372-1.7317-5.4249-4.584-7.4104-5.6602-7.1335-1.4124 0.35815-2.1221 4.1787-0.78552 9.3914 0.95535 3.7264 2.5763 6.6664 4.5682 8.2504 0.28708 0.22892 0.35905 0.31016 0.48277 0.61846 2.3991 5.9547 2.9049 21.273 2.8957 34.034 0 0.40983-0.0461 0.51322-0.25747 0.85753-6.5547 10.71-14.761 20.103-16.893 25.278z"/>
  <path d="m125.89 34.763c1.9052-2.5653 5.7784-2.2357 6.5944 3.5658 3.6988 5.9972 2.5569 13.866 0.56953 14.338-3.1172 0.74215-7.8203-9.0803-4.7113-15.923 0.46151-1.0145 0.99229-0.76615 0.58523 0.27231-2.5597 6.5252 2.1193 15.206 3.875 14.755 0.93046-0.23908 2.3686-6.7264-0.9914-12.697-0.19205-0.33969-0.26675-0.53723-0.32583-0.88523-0.732-4.332-3.4034-4.9236-4.9957-2.6215z"/>
  <path d="m128.23 37.981c-1.9874-1.3172-3.8501-4.2508-4.8055-7.9661l0.34433-2.5025c0.87415 4.4234 2.699 8.136 4.7677 9.6498z"/>
  <path d="m127.93 40.024c-0.72645 2.2154-0.67106 6.6424-0.49013 11.418l-0.95078-2.4213c-0.14574-5.5532 0.12091-9.5399 1.3809-10.777z"/>
  <path d="m133.44 41.474c1.5739-0.03784 3.1772 1.6754 3.0073 4.6716-0.0792 1.3856-0.0304 2.4757 0.0508 4.0531 0.30736 5.964-4.0624 10.276-5.7988 9.7088-1.7151-0.55938-2.124-4.9523-0.26214-9.3368l0.77905 0.84645c-1.6588 4.4529-1.0486 7.3384-0.18551 7.6181 0.92307 0.30461 4.8083-3.3499 4.5277-8.7765-0.083-1.5979-0.0931-2.773-0.0343-4.1483 0.0895-2.0824-0.76982-3.433-1.8628-3.648z"/>
  <path d="m112.59 103.92c8.0455-6.1449 11.101-11.942 14.755-36.281 0.0435-0.28616 0.0851-0.44399 0.20959-0.71908 1.2231-2.7065 2.5541-5.2559 3.8012-7.4723l1.4187-0.57969c-1.8332 3.1661-3.1024 5.7332-4.4464 8.7295-3.6608 25.883-6.6747 30.793-15.357 37.173z"/>
  <path d="m116.14 78.282c-7.5766 0.74492-11.589 8.8698-9.9968 15.191l-1.1086-0.71813c-1.5156-6.7708 3.2575-15.251 11.801-15.434z"/>
  <path d="m45.455 158.21c1.4778-1.5156 2.7443-2.7296 3.851-3.744-0.01044-0.79292 0.01044-1.5702 0.02355-2.4212l0.89354-0.8926c0 1.0994-0.01312 2.2357 0 3.2068 0.01044 0.46613-0.04526 0.58704-0.36831 0.8852-1.4372 1.3218-3.3766 2.9732-5.2716 5.0547z"/>
  <path d="m55.193 144.73c0.5234 1.9625 1.0311 3.4292 1.6773 4.9624 2.3732-2.1083 6.9775-4.3431 12.036-5.8532 2.5929-0.77353 3.431-9.4e-4 1.4538 2.0584-3.2907 3.4246-7.0366 8.2366-9.0322 11.524 0.648 4.1308 1.537 8.9907 2.6307 13.888 0.60276 2.6981-0.16614 3.0332-2.3492 1.3209-3.564-2.7959-6.8926-6.4301-9.467-10.442-3.6148 1.307-6.6609 2.7258-10.512 4.8424l0.32862-1.0883c3.1495-1.7529 6.2982-3.2086 9.9674-4.6246 0.37479-0.14497 0.66001-0.0655 0.90739 0.31659 2.532 3.9138 5.879 7.6588 9.275 10.384 1.4021 1.1243 1.4584 1.0662 1.092-0.53815-1.1474-5.0058-2.0824-9.6811-2.735-13.756-0.08123-0.50308-0.06835-0.60093 0.16981-0.98122 2.1166-3.3544 5.9234-8.0436 9.1947-11.394 1.1842-1.2129 0.99969-1.26-0.69693-0.76707-4.8406 1.4059-8.9242 3.4486-11.845 5.9141-0.55475 0.46892-0.84092 0.41261-1.0772-0.17165-0.70062-1.7215-1.3144-3.5252-1.6607-4.8627z"/>
  <path d="m103.79 96.958c-2.8302-1.0154-7.3328-1.1169-10.07-0.86492-1.2904 0.11911-1.355-0.30184-0.0857-0.57045 2.7665-0.5843 7.5738-0.42646 10.384 0.90553 1.2471 0.58985 0.95999 0.95538-0.22791 0.52984"/>
 </g>
</svg>
