<?xml version="1.0" encoding="UTF-8"?>
<!-- Created with Inkscape (http://www.inkscape.org/) -->
<svg version="1.1" viewBox="0 0 196.15 146.68" xmlns="http://www.w3.org/2000/svg">
 <g transform="translate(-7.6353 -71.052)" stroke-width="1.3361">
  <path class="cls-4" d="m10.423 214.78a9.4595 9.4595 0 0 1 3.2467-0.2939c0-1.4697 0.18704-5.4112 1.109-6.8808-1.924 1.9774-3.554 5.6784-4.3557 7.1748" fill="#fff9c5"/>
  <path class="cls-4" d="m154.11 137.1-3.6074-11.864c1.9106-4.8099 4.4492-12.893 5.9857-17.997a2.5519 2.5519 0 0 0-0.62799-2.9127 126.93 126.93 0 0 0-28.352-23.074c-1.3361-0.70808-1.5098-0.40095-0.96199 0.72152 5.1974 10.689 12.88 27.71 17.783 39.121-8.6445-8.0165-29.768 4.222-32.734 14.844-5.2508 2.5519-10.301 8.3906-12.947 14.256a51.105 51.105 0 0 1 8.8716-1.0287 5.478 5.478 0 0 0 0.0803-0.85513c3.6208-1.1089 8.3239-2.3916 12.105-3.2734 5.6383 1.1624 10.288 1.0689 12.479-0.52103l18.705 2.2847a42.969 42.969 0 0 0 10.114 1.924 100.99 100.99 0 0 1-6.9476-11.584" fill="#fff9c5"/>
  <path class="cls-5" d="m150.94 146.72a41.499 41.499 0 0 0 10.114 1.924 43.53 43.53 0 0 1-10.114-1.924" fill="#005a9e"/>
  <path class="cls-5" d="m167.36 124.99a62.703 62.703 0 0 0-12.158-13.588c-1.4564 4.6763-3.26 10.181-4.703 13.829l3.6074 11.864a100.78 100.78 0 0 0 6.9476 11.571 106.15 106.15 0 0 0 6.6805-21.538 2.2981 2.2981 0 0 0-0.40095-2.1378" fill="#005a9e"/>
  <path class="cls-2" d="m159.3 127.53c1.3361 2.6722 0.12019 6.9343-4.2488 9.2057-4.0083 2.0442-8.257 1.4029-9.887-1.7502-1.3361-2.6722-0.20048-6.9878 4.222-9.2725 3.888-2.0175 8.3105-1.3361 9.9138 1.8171" fill="#fff"/>
  <path class="cls-6" d="m153.04 131.1c-2.7657 0.85508-4.4759 3.4338-3.888 4.3824 0.41408 0.6948 2.7657 0.73484 4.6095-0.44085a13.254 13.254 0 0 1-0.72152-3.9415" fill="#ef9aa4"/>
  <path class="cls-2" d="m153.21 132.94c-1.6434 0.42772-2.0709 1.5633-1.924 1.8572s1.3361 0.26713 2.2312-0.44085a13.869 13.869 0 0 1-0.30754-1.4163" fill="#fff"/>
  <path class="cls-5" d="m159.3 127.53a5.959 5.959 0 0 0-5.6784-2.9394c-0.89518 3.8746-1.0822 9.5931 1.149 12.265 4.5561-2.2045 6.0124-6.4667 4.5294-9.3526" fill="#005a9e"/>
  <path class="cls-5" d="m155.86 104.32a2.5519 2.5519 0 0 1 0.62799 2.9127c-0.37419 1.2426-0.81504 2.6722-1.3361 4.1686 0.37419 0.28077 0.73484 0.5879 1.1089 0.89517a35.754 35.754 0 0 0 2.405-5.0905 2.2313 2.2313 0 0 0-0.16058-2.4451 92.444 92.444 0 0 0-22.233-23.796c-0.86847-0.64132-1.0288-0.56113-0.82837 0.48124 0.32066 1.6701 0.58789 3.4471 0.85508 5.5314a129.45 129.45 0 0 1 19.507 17.369" fill="#005a9e"/>
  <path class="cls-6" d="m129.87 106.18a35.847 35.847 0 0 1 4.6095 9.4595c3.3936 9.1923 11.397 25.386 16.033 30.383a2.2179 2.2179 0 0 1 0.254 2.6722c-2.5519 4.4091-8.257 4.4358-13.668 0.6547-7.2816-5.1172-16.501-21.778-18.625-35.874-1.0956-7.2549 2.6722-10.274 6.3064-10.355a13.909 13.909 0 0 1 5.1306 3.073" fill="#ef9aa4"/>
  <path class="cls-6" d="m131.66 108.86c-2.9528-5.3443-8.3906-7.1481-16.033-6.0525-12.826 1.8304-19.053 0-33.402-9.7668-8.0166-5.4379-15.004-6.961-24.33-5.9857-13.094 1.3361-18.144-1.8572-18.518-5.0771-0.53443-4.3957 5.184-10.021 13.454-10.488 9.3526-0.52109 20.749 3.2066 30.49 11.544 11.13 9.5129 20.362 13.067 31.077 13.494 12.653 0.52109 18.198 5.999 19.146 12.292h-1.8304" fill="#ef9aa4"/>
  <path class="cls-7" d="m52.43 75.168c0.32067 0.9486-0.76156 2.3782-2.9394 3.1131-2.1778 0.73485-4.0083 0.41408-4.3289-0.57451-0.32066-0.9887 0.58788-2.3515 2.886-3.1265 2.2981-0.77489 4.0751-0.32066 4.3824 0.5879" fill="#f7cfd2"/>
  <path class="cls-5" d="m134.48 115.64c0.33379 0.89517 0.70813 1.8572 1.109 2.8592a11.13 11.13 0 0 1 8.738 2.5519c-1.4029-3.26-3.0329-6.9744-4.7565-10.876a17.57 17.57 0 0 0-7.9497-1.2292 53.136 53.136 0 0 1 2.8592 6.6804" fill="#005a9e"/>
  <path class="cls-5" d="m98.645 150.15c2.6721-5.8654 7.6959-11.704 12.947-14.256 1.1356-4.0083 4.9034-8.3372 9.6065-11.651a60.952 60.952 0 0 1-2.8325-11.343 22.206 22.206 0 0 0-6.587-6.0391 57.666 57.666 0 0 1-9.7267-7.9097 6.3865 6.3865 0 0 0-6.2662-1.8972l-19.707 4.6763a16.394 16.394 0 0 1-4.9302 2.8993 49.435 49.435 0 0 0-8.6178 4.5294c-4.0083 2.4183-10.462 6.0391-13.441 8.2437a11.477 11.477 0 0 0-6.0124 2.0843c-2.6722 1.8572-4.4224 4.516-3.1799 6.106 1.2426 1.5899 4.663 0.69475 7.4821-1.1223 2.2847-1.4831 4.182-3.5674 4.182-5.4379a42.261 42.261 0 0 1 14.39-8.5643 91.201 91.201 0 0 1-9.3526 10.836c-4.9034 0.56118-7.4153 4.9168-6.1994 6.961 0.78829 1.3361 4.5561 2.0309 9.0854-0.48074 4.5293-2.5118 4.9168-4.9435 2.7523-6.9209a35.299 35.299 0 0 1 9.0854-12.172c14.176 0.89518 20.322 0 25.827-5.5448 2.111 6.5736 7.8429 12.599 12.319 16.26-14.31 7.8562-22.379 26.722-20.456 34.444a21.297 21.297 0 0 0 2.2981 5.4379 81.501 81.501 0 0 0-3.1398 9.0453 44.826 44.826 0 0 1-19.186 24.237c-7.108-0.17371-12.332 6.3998-11.17 8.5109 1.0288 1.8572 8.9785-0.46761 13-6.8274 8.885-5.8387 18.144-12.025 22.567-16.581 17.449 3.5674 30.075 6.0525 37.691 1.3361l-0.56114-22.633c-6.2663-7.1748-22.273-8.5243-31.826-6.2663m-6.3597 23.168c0.30753-4.2754 0.44085-8.3639 0.44085-11.811a51.039 51.039 0 0 0 11.931 11.383 67.232 67.232 0 0 1-12.372 0.42771" fill="#005a9e"/>
  <path class="cls-8" d="m95.84 97.28c-0.36056-2.0041-5.3443-4.703-11.397-3.0195-6.0525 1.6834-8.9652 6.5468-8.3238 8.3372 0.37409 1.0421 5.8921 1.7636 11.343 0.18684 6.5736-1.8972 8.6178-4.1953 8.3773-5.5047" fill="#e2eef4"/>
  <path class="cls-8" d="m130.62 156.47c-1.8304 0-5.3444 5.3443-4.8901 11.651 0.41408 5.8521 4.2087 10.983 5.5581 11.076 2.1912 0.13382 8.5109-6.1728 8.591-11.437 0.0667-5.0237-6.4132-11.383-9.2591-11.29" fill="#e2eef4"/>
  <path class="cls-5" d="m43.078 119.49a11.611 11.611 0 0 1 6.0124-2.0977c2.3515-1.7369 6.9209-4.369 10.689-6.5736-3.4872 1.4029-6.6804 2.8325-9.887 4.4626-5.5448 0-9.0587 2.5119-8.8716 5.999a11.424 11.424 0 0 1 2.0709-1.7904" fill="#005a9e"/>
  <path class="cls-4" d="m65.951 110.47a42.261 42.261 0 0 0-14.39 8.5643 2.9795 2.9795 0 0 1-0.10691 0.74823 6.4266 6.4266 0 0 1 4.8767 1.5632h0.22714a91.201 91.201 0 0 0 9.3526-10.836" fill="#fff9c5"/>
  <path class="cls-9" d="m97.015 166.52a21.885 21.885 0 0 1-1.2025-10.221c0.13382-0.84175 0.48074-0.77494 0.89518 0a25.052 25.052 0 0 0 5.5314 7.108 31.224 31.224 0 0 1 13.828-3.3268c1.0689 0 1.2025 0.26713 0.28077 0.96198a56.33 56.33 0 0 0-9.1255 8.8716 20.883 20.883 0 0 0 3.8346 6.961 66.417 66.417 0 0 1-14.042-10.341" fill="#57c1e8"/>
  <g fill="#005a9e">
   <path class="cls-5" d="m88.972 153.85c-1.1089-4.4492 1.109-12.613 5.9322-20.228a173.58 173.58 0 0 0-14.283-12.653c-0.93527-0.7616-1.1758-0.62799-1.1891 0.38732-0.10691 8.8315 2.0308 24.611 4.2888 31.291 1.7369 5.1172 4.0083 8.0165 6.5468 9.1389 0.30753-0.80166 0.62794-1.6033 1.0021-2.4985a21.297 21.297 0 0 1-2.2981-5.4379"/>
   <path class="cls-5" d="m83.147 150.51c-25.239 1.5232-33.963 13.521-33.402 26.107a106.27 106.27 0 0 1-21.257 12.359c0.52107-5.7051 0.82837-10.208 0.85509-15.058 0-1.5632-0.34737-1.7102-1.2025-0.18684-1.7904 3.2333-3.0062 7.8161-6.1059 14.777-1.3361 2.5252-3.1932 6.3197-5.3444 10.595-5.1306 6.9209-8.2838 12.693-8.6846 15.94-0.13362 1.0822 0.12024 1.4697 1.109 1.7636a17.289 17.289 0 0 0 4.0884 0.5879c3.3803 0.10706 5.0504-0.42772 5.0771-1.2159 0-1.5231-5.7719-2.151-7.8028-1.4029a24.584 24.584 0 0 1 9.1923-11.517 59.403 59.403 0 0 1 14.697-10.916 119.77 119.77 0 0 1 22.473-8.7781c12.733 3.7811 23.368-2.9127 31.732-16.581 0.52109-1.7102 1.2024-3.8346 1.7102-5.1974-3.3536-1.8304-5.7852-5.5314-7.1213-11.277"/>
   <path class="cls-5" d="m15.527 213.52c0-2.5786 1.7236-7.0278 4.7966-10.983l-0.70813 0.66804a29.287 29.287 0 0 0-4.5293 4.0083 13.428 13.428 0 0 0-1.4163 7.255c2.1511 0.12019 4.3957 0.68142 4.5561 1.5766 3.3001 0 6.6804-0.70813 6.6804-1.6434 0-1.3361-6.4266-2.1778-9.4328-0.84175"/>
   <path class="cls-5" d="m129.16 155.12a30.209 30.209 0 0 1-3.073-9.3527 10.582 10.582 0 0 0 6.0525-1.2693 26.508 26.508 0 0 0 5.1039 4.9569 29.514 29.514 0 0 1 4.0083 13.134c5.7585-3.7411 11.303-4.3156 18.545-2.6722a27.363 27.363 0 0 0 7.923 0.80166c5.0371-2.6722 8.1769-8.5242 11.905-13.361a4.0751 4.0751 0 0 1-0.44085-5.812 5.3444 5.3444 0 0 1 6.2529-1.5632 3.6609 3.6609 0 0 1 2.2981 4.8634c-0.69475 1.63-2.6722 2.6722-5.3443 2.8325a22.206 22.206 0 0 0-5.7719 9.3526 82.904 82.904 0 0 0 15.405-6.5869 5.2642 5.2642 0 0 1 3.2734-5.6784 6.3331 6.3331 0 0 1 6.9744 1.3361 4.369 4.369 0 0 1-0.73484 6.6805 6.6003 6.6003 0 0 1-6.9209 0c-4.8634 1.443-14.243 5.7719-16.928 8.4307a66.511 66.511 0 0 0 14.63 0.90851 5.3444 5.3444 0 0 1 7.6024-2.0575 4.663 4.663 0 0 1 0.70813 6.9343c-2.9528 3.8479-8.1368 2.8726-9.0988-1.002-8.0165-1.6969-17.236-2.9795-22.794-2.0309-4.3156 1.1089-13.601 6.0124-20.469 5.8921a14.016 14.016 0 0 1-8.6712-4.0083c-1.3361-4.5561-6.5468-9.4862-9.1255-9.3526a7.0546 7.0546 0 0 0-1.3361-1.3361"/>
  </g>
  <path class="cls-4" d="m183.45 147.61a8.8182 8.8182 0 0 1-1.0555 0.10705 22.206 22.206 0 0 0-5.7719 9.3526 82.904 82.904 0 0 0 15.405-6.5869 5.9055 5.9055 0 0 1 0-0.8417c-3.3002 1.1624-7.2283 0.32066-8.5643-1.9908" fill="#fff9c5"/>
  <path class="cls-4" d="m194.76 152.79-0.14695-0.0934c-4.8634 1.443-14.243 5.7719-16.928 8.4307a66.511 66.511 0 0 0 14.63 0.90856 6.6804 6.6804 0 0 1 1.6434-1.7904c-1.2158-1.8705-0.9486-5.1172 0.80165-7.4554" fill="#fff9c5"/>
  <path class="cls-10" d="m59.725 184.25a9.9405 9.9405 0 0 0 15.606-3.0062 21.778 21.778 0 0 1-15.606 3.0062" fill="#c0cad0"/>
  <path class="cls-10" d="m148.27 169.78a13.201 13.201 0 0 1-5.4512-1.6301 7.1481 7.1481 0 0 0 7.0412 4.2488 12.826 12.826 0 0 0 9.7935-5.184 33.603 33.603 0 0 1-11.383 2.5653" fill="#c0cad0"/>
  <path class="cls-11" d="m146.93 122.75a124.35 124.35 0 0 0 5.1707-14.857 3.1665 3.1665 0 0 0-0.6948-3.7811c-5.6249-6.7473-14.563-14.296-24.17-20.763 5.1573 10.689 12.386 26.789 17.089 37.704l0.5077 1.7369c0.46761 1.2158 1.6033 1.1223 2.0977 0" fill="#dbd7ab"/>
  <g fill="#004984">
   <path class="cls-12" d="m159.4 127.74c0 2.8192-2.5519 5.5582-5.9456 6.3197a6.961 6.961 0 0 0 1.3361 2.7924c4.4492-2.1511 5.9322-6.2662 4.6229-9.1121"/>
   <path class="cls-12" d="m154.53 113.31c3.3135 3.3002 10.689 12.025 10.782 13.508 0.14695 1.9507-1.7503 13.147-3.407 20.041l-0.89518 1.6033a63.785 63.785 0 0 0-2.1378-15.165c1.924-3.6876 0.92194-7.1214-2.9127-8.3906a62.302 62.302 0 0 0-3.1665-6.1861c0.61461-1.777 1.2693-3.7411 1.7369-5.3444"/>
   <path class="cls-12" d="m135.79 83.118c0.20047 1.1891 0.38731 2.4584 0.56118 3.8613a129.45 129.45 0 0 1 19.507 17.369c-3.6876-6.1327-13.361-15.659-20.041-21.204"/>
  </g>
  <path class="cls-11" d="m150.47 146.02a2.0041 2.0041 0 0 1 0.44085 0.7349c0.62794 0.22724 1.3361 0.44084 2.1243 0.64132-5.8921-6.6805-11.864-18.705-15.004-28.913a15.285 15.285 0 0 0-2.4718 0c3.8079 9.3527 10.689 23.048 14.884 27.523" fill="#dbd7ab"/>
  <path class="cls-12" d="m135.98 109.16a16.781 16.781 0 0 0-4.3556-0.21361 53.136 53.136 0 0 1 2.8592 6.6804c0.33379 0.89517 0.70813 1.8572 1.109 2.8592a16.995 16.995 0 0 1 2.4717 0 52.735 52.735 0 0 1-2.0843-9.3526" fill="#004984"/>
  <path class="cls-11" d="m121.2 124.24a33.028 33.028 0 0 0-5.7719 5.1172 26.722 26.722 0 0 0 0.0934 5.625c0.46761 4.0083-0.62794 7.2015-4.4625 8.6445a83.265 83.265 0 0 0-11.945 5.5448c-0.16008 0.32066-0.32066 0.64132-0.46761 0.97536a49.836 49.836 0 0 1 8.8716-1.0288 5.478 5.478 0 0 0 0.0803-0.85513c3.6208-1.1089 8.3239-2.3916 12.105-3.2734 5.5982 1.149 10.221 1.0688 12.426-0.49438a71.267 71.267 0 0 1-10.929-20.255" fill="#dbd7ab"/>
  <g fill="#004984">
   <path class="cls-12" d="m106.69 145.7a37.945 37.945 0 0 1-3.0864 3.6876c1.3361-0.13381 2.6054-0.20047 4.0083-0.2136a13.935 13.935 0 0 0 0-3.2734c-0.10706-0.80166-0.30754-0.85508-0.81504-0.17372"/>
   <path class="cls-12" d="m121.2 124.24a62.369 62.369 0 0 1-2.8459-11.343 13.241 13.241 0 0 0-1.0021-1.3361 87.674 87.674 0 0 0-1.924 17.783 32.454 32.454 0 0 1 5.7586-5.1172"/>
   <path class="cls-12" d="m113.28 125.82c0.36055 0.28077 0.98875 0.17371 0.73484-1.002a37.41 37.41 0 0 1-0.61456-4.7565c-0.0934-1.0956-0.30753-1.4964-1.59-2.3649-4.5427-3.033-10.101-9.9272-13.107-15.245-0.73485-1.3361-1.4296-1.3361-2.9394-0.28077-5.1306 3.7544-12.8 5.5582-23.488 5.0104a2.5118 2.5118 0 0 0-2.4584 0.8818c-3.073 2.8993-7.4687 8.5376-8.9384 12.025a0.9219 0.9219 0 0 0 0.14695 1.1223c2.7523 3.3402-8.0165 8.9652-10.916 5.3444a2.4718 2.4718 0 0 0 0.25385 1.6968c0.78829 1.3361 4.5561 2.0308 9.0854-0.48124 4.5293-2.5119 4.9168-4.9435 2.7523-6.921a35.299 35.299 0 0 1 9.0854-12.172c14.176 0.89518 20.322 0 25.827-5.5448 2.111 6.5736 7.8428 12.599 12.319 16.26 0.96198 0.73484 1.8839 1.4029 2.6722 2.0041a31.852 31.852 0 0 0 1.2292 4.4091"/>
   <path class="cls-12" d="m47.38 124.47c2.2847-1.4831 4.182-3.5674 4.182-5.4379a42.261 42.261 0 0 1 14.39-8.5643l0.64132-1.0021c-4.2888 0.53447-12.599 5.5314-15.966 8.698a1.8438 1.8438 0 0 0-0.5478 1.0555c-0.84174 2.9929-8.9251 7.7894-10.488 4.4224a2.1645 2.1645 0 0 0 0.30728 1.9507c1.2292 1.5899 4.6629 0.69475 7.4821-1.1223"/>
  </g>
  <path class="cls-10" d="m76.119 102.62c0.36076 1.0421 5.8921 1.7636 11.343 0.18684 6.5736-1.8973 8.6178-4.1953 8.3773-5.5047-3.0997 3.26-10.689 4.6496-15.298 4.5561-2.8191 0-3.8078-0.74823-3.407-2.6054a4.2488 4.2488 0 0 0-1.0154 3.3669" fill="#c0cad0"/>
  <g fill="#cf858f">
   <path class="cls-13" d="m137 149.39c5.3444 3.7144 10.902 3.7544 13.521-0.40095-15.899-1.5632-29.26-32.066-27.243-45.641-3.1264 0.74822-5.852 3.8479-4.9034 10.168 2.1244 14.096 11.343 30.73 18.625 35.874"/>
   <path class="cls-13" d="m84.122 94.328a13.04 13.04 0 0 1 4.0083-0.61461c-2.3382-1.4029-4.663-2.9795-6.9878-4.7031-6.9343-5.1172-14.283-6.3731-25.519-5.478s-15.739-1.8839-14.924-6.0391a6.6804 6.6804 0 0 0-1.3361 4.4893c0.38747 3.22 5.4379 6.4399 18.532 5.0771 9.3526-0.97532 16.354 0.5478 24.33 5.9857l1.924 1.3361"/>
   <path class="cls-13" d="m130.85 102.83c-3.7143-2.7524-8.6178-3.7945-15.619-2.7791a34.15 34.15 0 0 1-12.519-0.42771 55.234 55.234 0 0 0 4.3156 3.8078 51.693 51.693 0 0 0 8.591-0.61461c7.6825-1.0956 13.12 0.6547 16.033 6.0525h1.8304a12.118 12.118 0 0 0-2.6722-5.999"/>
  </g>
  <g fill="#004984">
   <path class="cls-12" d="m191.53 165.92c0.96198 3.8746 6.146 4.85 9.0988 1.0021a8.1769 8.1769 0 0 0 0.49437-0.76156c-3.1398 2.2713-7.4019 1.5231-8.5643-0.78832-0.30753-0.61461-0.53442-0.81499-1.0021-0.90856-5.6917-1.1757-19.026-2.8459-23.702-1.7369-9.4194-2.1111-21.377-1.9774-26.882 0.28077l0.26713-0.41409a29.514 29.514 0 0 0-4.0083-13.134 26.508 26.508 0 0 1-5.1039-4.9569 10.582 10.582 0 0 1-6.0525 1.2693 30.209 30.209 0 0 0 3.073 9.3527 7.0546 7.0546 0 0 1 1.3361 1.3361c2.5786-0.14695 7.8562 4.7832 9.1255 9.3526a14.016 14.016 0 0 0 8.6712 4.0083c6.8675 0.12018 16.153-4.7965 20.469-5.9055 5.5582-0.92194 14.831 0.34743 22.794 2.0442"/>
   <path class="cls-12" d="m201.54 152.74a4.0884 4.0884 0 0 0 1.9106-3.0597 7.0546 7.0546 0 0 1-8.0165 1.9908 1.3361 1.3361 0 0 0-1.2693-0.13382c-7.2683 2.3649-16.1 6.5602-17.93 9.2057a7.7226 7.7226 0 0 0 1.3361 0.38732c2.6722-2.6722 12.025-6.9877 16.928-8.4307a6.6003 6.6003 0 0 0 6.921 0"/>
   <path class="cls-12" d="m182.43 147.72c2.6721-0.12019 4.6362-1.2025 5.3443-2.8325a3.554 3.554 0 0 0 0.21361-2.0042 6.0525 6.0525 0 0 1-5.5715 3.6876 1.0689 1.0689 0 0 0-0.90856 0.37419 29.487 29.487 0 0 0-6.2529 10.448l1.4163-0.36056a22.206 22.206 0 0 1 5.7719-9.3526"/>
  </g>
  <path class="cls-14" d="m97.015 166.52a66.417 66.417 0 0 0 14.042 10.341 20.883 20.883 0 0 1-3.8346-6.961c0.42771-0.5478 0.92189-1.1357 1.4697-1.7369a40.083 40.083 0 0 1-13.027-9.8737 20.87 20.87 0 0 0 1.3361 8.2303" fill="#4ba8ca"/>
  <path class="cls-12" d="m70.775 194.25a17.022 17.022 0 0 1-5.0638 5.0905c0.68141 1.7904 7.7092-2.0442 10.422-7.3217a40.604 40.604 0 0 0 3.4204-3.6208c-2.8325 1.9507-5.812 3.9148-8.7514 5.852" fill="#004984"/>
  <path class="cls-12" d="m131.03 179.05c-6.921 3.8212-14.697 3.3669-37.691-1.3361-4.8099 4.7698-16.127 12.386-22.567 16.581-4.997 6.8274-10.862 8.0967-12.519 7.2149 1.0956-3.7811 5.8788-6.8408 10.782-7.589a3.0864 3.0864 0 0 0 1.3361-0.52109c12.92-8.5777 20.041-17.957 21.858-35.754-0.254 0-0.70813 0.78827-1.0288 1.6834-3.1131-5.478-3.4872-8.7647-0.80166-16.608a20.643 20.643 0 0 0 5.1974 15.606 20.87 20.87 0 0 0 1.3361 8.2303 66.417 66.417 0 0 0 14.042 10.341 20.883 20.883 0 0 1-3.8346-6.961c0.42771-0.5478 0.92189-1.1357 1.4697-1.7369a54.846 54.846 0 0 0 18.331 5.3443c1.1624 2.6054 2.4718 4.663 4.0083 5.5047m-26.374-6.1594a51.039 51.039 0 0 1-11.931-11.383c0 3.4471-0.13382 7.5489-0.44084 11.811a67.232 67.232 0 0 0 12.372-0.42772" fill="#004984"/>
  <path class="cls-10" d="m131.29 179.2c1.5365 0.0934 5.1039-2.9795 7.1214-6.6805-4.1018 4.5026-9.7535 2.926-12.639-4.0083 0.56113 5.665 4.1953 10.542 5.518 10.689" fill="#c0cad0"/>
  <g fill="#004984">
   <path class="cls-12" d="m90.241 161.79c0.30754-0.80166 0.62794-1.6033 1.002-2.4985a21.297 21.297 0 0 1-2.298-5.4379 19.574 19.574 0 0 1 1.0422-9.9004 99.378 99.378 0 0 1-10.275-23.462c-0.22714 0-0.30728 0.30753-0.30728 0.86846-0.1069 8.8315 2.0308 24.611 4.3022 31.291 1.7236 5.1172 4.0083 8.0165 6.5335 9.1388"/>
   <path class="cls-12" d="m87.396 159.5c-14.002 10.488-29.821 11.21-33.977 3.701a21.524 21.524 0 0 0-3.7143 13.361c-3.4338 5.5448-14.911 12.452-24.397 17.236a8.2838 8.2838 0 0 0-2.4985 1.7503c-6.6804 6.5869-13.361 15.378-14.804 20.442 0.13362 0.37419 0.46761 0.58789 1.0555 0.76161a17.289 17.289 0 0 0 4.0884 0.58784c3.3803 0.10706 5.0504-0.42772 5.0771-1.2158 0-1.5231-5.7719-2.1511-7.8028-1.4029a24.584 24.584 0 0 1 9.1923-11.517 59.643 59.643 0 0 1 14.697-10.916 119.77 119.77 0 0 1 22.526-8.7246c12.733 3.7811 23.368-2.9127 31.732-16.581 0.52109-1.7102 1.2024-3.8346 1.7102-5.1974a10.836 10.836 0 0 1-2.8726-2.2847"/>
   <path class="cls-12" d="m14.98 213.87 0.5478-0.29389c0-2.5787 1.7236-7.0278 4.7966-10.983l-0.70813 0.66803a29.287 29.287 0 0 0-4.5293 4.0083 13.428 13.428 0 0 0-1.4163 7.255c2.1377 0.12018 4.3957 0.68142 4.5561 1.5766a16.915 16.915 0 0 0 6.0525-0.9486c1.0422-1.1357-5.5448-1.7369-9.3526-1.2426"/>
   <path class="cls-12" d="m28.968 172.66a137.32 137.32 0 0 1-3.407 17.369c0.7883-0.28076 1.7636-0.62799 2.886-1.0689 0.52108-5.7051 0.82838-10.208 0.8551-15.058 0-0.84175-0.0935-1.3361-0.33404-1.2559"/>
  </g>
  <g fill="#0f141b">
   <path class="cls-15" d="m160.23 145.7c0.17371-0.0667 0.20048-0.34743 0-0.72146-0.20047-0.37419-0.40095-0.72152-0.5077-0.70814-0.10706 0.0152-0.18685 0.46761 0 0.89518 0.18684 0.42772 0.41408 0.5879 0.53442 0.53442"/>
   <path class="cls-15" d="m153.04 131.38c-2.6721 0.88184-4.1285 3.2868-3.7143 4.0083 0.28077 0.45448 2.3114 0.74822 4.3423-0.56114l0.17372 0.49438c-1.8037 1.1223-4.3423 1.2559-4.9168 0.32066-0.72151-1.1757 1.1757-3.9148 4.0884-4.7698z"/>
   <path class="cls-15" d="m159.57 127.4c1.483 2.8592 0 7.3619-4.369 9.6466-3.7143 1.924-8.4975 1.5766-10.315-1.9507-1.3361-2.6722-0.42772-7.2149 4.369-9.7 4.1419-2.1511 8.698-1.1357 10.315 2.0041m-0.53447 0.26714c-1.4296-2.7523-5.5314-3.6742-9.4862-1.63-4.1686 2.1644-5.4512 6.2128-4.1152 8.7915 1.5633 3.0062 5.4913 3.6475 9.4595 1.5899 4.516-2.3382 5.3444-6.4266 4.1419-8.7514"/>
   <path class="cls-15" d="m154.47 137.02c-2.3382-2.7523-2.0843-8.8315-1.149-12.439h0.62794c-0.84175 3.6075-1.1089 9.4729 1.1357 12.158z"/>
   <path class="cls-15" d="m155.32 111.04a63.504 63.504 0 0 1 12.319 13.722 2.6722 2.6722 0 0 1 0.46761 2.4451 103.03 103.03 0 0 1-6.6804 21.377 0.5478 0.5478 0 0 1-0.66804 0.38732 41.138 41.138 0 0 1-9.7268-1.7904l-0.30753-0.80165a42.14 42.14 0 0 0 10.168 2.0576 111.79 111.79 0 0 0 6.5068-21.377 1.8839 1.8839 0 0 0-0.34743-1.8839 61.767 61.767 0 0 0-11.945-13.361z"/>
   <path class="cls-15" d="m150.08 125.34c2.0042-5.2107 4.2755-12.492 5.999-18.264a2.2714 2.2714 0 0 0-0.58785-2.5653 130.47 130.47 0 0 0-28.138-23.101c-0.85508-0.48074-0.90851-0.40096-0.5478 0.33429 5.7719 11.45 13.494 28.819 18.425 40.791 0.41408 1.0021 0 1.1757-0.42772 0.18684-5.144-11.677-13.054-29.1-18.545-40.697-0.72146-1.5231-0.17371-1.9908 1.3361-1.149 7.6024 4.1018 20.242 13.802 28.499 23.088a3.1131 3.1131 0 0 1 0.72146 3.3402c-1.7904 5.8788-4.0083 12.96-5.959 17.703z"/>
   <path class="cls-15" d="m135.99 86.752c-0.22724-1.9774-0.52109-3.7544-0.80165-5.2375-0.28077-1.4831 0.20047-1.6166 1.3361-0.81499a93.526 93.526 0 0 1 22.406 23.809 2.6722 2.6722 0 0 1 0.18685 2.8592 35.66 35.66 0 0 1-2.4584 5.184l-0.60123-0.52109a34.925 34.925 0 0 0 2.3114-4.9569 1.8705 1.8705 0 0 0-0.16058-2.1377 93.232 93.232 0 0 0-22.059-23.689c-0.44085-0.32066-0.46761-0.29389-0.37419 0.20048 0.2939 1.5766 0.60123 3.3402 0.92189 5.8521z"/>
   <path class="cls-15" d="m155.47 124.7a58.507 58.507 0 0 0-2.7791-5.5715l0.30753-0.80166a57.866 57.866 0 0 1 3.3001 6.5602z"/>
   <path class="cls-15" d="m159.06 132.75a56.116 56.116 0 0 1 2.1779 15.552l-0.53447 0.44084a57.585 57.585 0 0 0-2.111-15.165z"/>
   <path class="cls-15" d="m160.8 148.77a92.872 92.872 0 0 1-6.961-11.53l0.57451-0.21361a102.97 102.97 0 0 0 6.7473 11.37z"/>
   <path class="cls-15" d="m121.31 124.67c-4.4759 3.1799-8.0165 7.2416-9.3526 11.076-0.0934 0.32066-0.12019 0.36056-0.41408 0.50771a31.438 31.438 0 0 0-12.533 13.815l-0.81499 0.14695c2.7523-6.2797 7.8428-12.025 13.107-14.537 1.1357-4.1552 4.9435-8.4975 9.7134-11.838z"/>
   <path class="cls-15" d="m135.47 118.11a11.691 11.691 0 0 1 8.6178 2.2713l0.40095 1.3361a10.822 10.822 0 0 0-8.698-2.7523z"/>
   <path class="cls-15" d="m131.43 108.53a18.131 18.131 0 0 1 7.923 1.1223l0.41408 1.0555a17.008 17.008 0 0 0-8.0165-1.3361z"/>
   <path class="cls-15" d="m132.85 111.51c2.8726-0.76161 6.106-0.37419 7.8161 1.0288l0.37418 1.0288a8.6979 8.6979 0 0 0-7.883-1.3361z"/>
   <path class="cls-15" d="m125.35 103.55c-3.9014-0.17371-7.5489 3.0329-6.5068 9.8737 2.0575 13.668 11.13 30.49 18.425 35.607 5.3443 3.7811 10.809 3.4471 13.094-0.50771a1.777 1.777 0 0 0-0.16058-2.2847c-4.9034-5.2108-12.786-21.591-16.033-30.463a36.074 36.074 0 0 0-4.7832-9.7668l2.0976 1.9908a49.542 49.542 0 0 1 3.3269 7.5355c3.2333 8.6312 11.21 25.118 15.953 30.222a2.5252 2.5252 0 0 1 0.32066 3.1264c-2.6722 4.7164-8.6846 4.6496-14.216 0.76161-7.1748-5.0237-16.621-21.377-18.852-36.074-1.0822-7.1214 2.258-10.234 5.7719-10.689z"/>
   <path class="cls-15" d="m83.561 94.448-1.6167-1.0956a33.643 33.643 0 0 0-24.05-5.8921c-12.947 1.3361-18.558-1.5633-19.026-5.4646-0.5478-4.5427 5.2108-10.395 13.869-10.889 10.448-0.58789 21.377 3.6609 30.73 11.624 10.421 8.9251 19.6 12.973 30.89 13.441s18.398 4.9569 19.494 12.68h-0.74823c-1.1223-6.9744-7.6024-11.477-18.785-11.931-11.731-0.48074-20.816-4.6229-31.318-13.615-9.1389-7.8562-20.816-11.945-30.169-11.41-8.8048 0.5077-13.441 6.5869-13.027 10.034 0.32067 2.7523 4.9435 6.1327 18.024 4.7698 10.047-1.0555 16.701 0.6547 24.611 6.0525l2.1511 1.443z"/>
   <path class="cls-15" d="m106.56 103.01a48.42 48.42 0 0 0 9.0052-0.57452c8.1769-1.1758 13.695 0.89518 16.554 6.4266l-0.76156 0.13382c-2.9127-5.184-8.0165-6.9076-15.699-5.812a54.579 54.579 0 0 1-8.0165 0.6547z"/>
   <path class="cls-15" d="m134.65 127.49c-0.30753 6.6805-0.13382 22.166 7.8562 24.05l-1.9507-0.0666c-5.8521-3.0062-7.0412-14.042-6.5869-24.05 0.25401-5.8654 0.50771-10.809-0.30753-13.134l0.93522 1.4163a72.055 72.055 0 0 1 0 11.731"/>
   <path class="cls-15" d="m95.586 96.692c3.0329-0.44085 4.9168 0.0667 6.6805 1.9507a50.531 50.531 0 0 0 9.7134 7.9096 20.696 20.696 0 0 1 6.3197 5.6918v1.3361a22.633 22.633 0 0 0-6.8542-6.3731 57.545 57.545 0 0 1-9.7401-7.9364 6.1059 6.1059 0 0 0-5.9322-1.8438z"/>
   <path class="cls-15" d="m96.134 97.187c0.28077 1.5766-1.9106 4.0083-8.5777 5.9322-4.7698 1.3361-11.196 1.1223-11.758-0.44085-0.72149-2.0175 2.3515-7.1214 8.5109-8.8315 6.1594-1.7102 11.41 1.1089 11.824 3.3402m-0.5478 0.0934c-0.28076-1.5498-4.6229-4.4625-10.969-2.6721-5.9456 1.6434-8.6712 6.3197-8.1501 7.8161 0.22714 0.64132 4.8901 1.7102 10.943 0 6.2796-1.8037 8.3773-4.0083 8.1769-5.0772"/>
   <path class="cls-15" d="m78.096 100.5a23.635 23.635 0 0 1 15.111-3.407c1.1758 0.14695 1.149 0.49438 0 0.41408a28.672 28.672 0 0 0-14.871 3.3536c-0.70813 0.34742-0.94863 0.0803-0.20043-0.36056"/>
   <path class="cls-15" d="m65.778 110.77a44.853 44.853 0 0 0-13.869 8.3906c0 2.0977-2.3114 4.3022-4.3423 5.6116-3.4872 2.258-6.6804 2.5653-7.9364 1.0021-1.2559-1.5633-0.16033-4.2889 3.22-6.5869a12.025 12.025 0 0 1 6.1326-2.1377c3.1933-2.258 9.5263-5.7318 13.361-8.1769a43.917 43.917 0 0 1 8.6712-4.5694 15.833 15.833 0 0 0 5.0638-3.0463v0.9887a16.287 16.287 0 0 1-4.7431 2.6722 47.164 47.164 0 0 0-8.5911 4.5026c-3.7544 2.3248-10.114 5.8921-13.227 8.0967a0.86846 0.86846 0 0 1-0.62796 0.20048 11.397 11.397 0 0 0-5.5581 2.0442c-3.22 2.1912-4.0083 4.4626-3.1264 5.6116 0.88182 1.149 3.5273 1.0021 7.0278-1.2559 2.445-1.5765 3.8747-3.3669 4.0083-4.9569a0.64132 0.64132 0 0 1 0.25385-0.53442c3.2601-3.0864 10.061-7.3218 14.697-8.5109z"/>
   <path class="cls-15" d="m50.065 128.38c-1.2292-2.0709 0.89517-6.6136 6.3331-7.4153a100.98 100.98 0 0 0 9.5798-10.956c0.62796-0.86846 0.98871-0.64132 0.38747 0.24037a82.276 82.276 0 0 1-9.4462 11.156 0.74821 0.74821 0 0 1-0.52107 0.254c-4.7832 0.66804-6.6804 4.8366-5.7586 6.4266 0.64132 1.0822 3.9415 1.964 8.591-0.62799 4.3156-2.3916 4.6496-4.5828 2.8325-6.2395-0.26723-0.22724-0.26723-0.33379-0.14694-0.61461a37.41 37.41 0 0 1 8.9652-12.025 0.70813 0.70813 0 0 1 0.66805-0.21361c13 0.80165 19.387 0.24037 25.012-5.144 0.53442-0.5077 0.76156-0.52108 1.0555 0.30754 2.5386 7.1748 9.3526 13.855 14.416 17.489a0.69477 0.69477 0 0 1 0.36055 0.56118 26.388 26.388 0 0 0 0.90856 3.4872c0.33379 1.0021 0 1.1356-0.44085 0.16058a23.555 23.555 0 0 1-1.1223-3.5808c-5.0905-3.5673-12.265-10.248-14.79-17.81-5.7185 5.6383-12.025 6.1594-25.546 5.2375a35.446 35.446 0 0 0-8.7915 11.731c1.8972 1.8572 2.0576 4.5293-3.0329 7.3485-4.3289 2.405-8.4842 1.9907-9.513 0.26713"/>
   <path class="cls-15" d="m55.944 121.42a6.1193 6.1193 0 0 0-4.5427-1.3361l0.0935-0.60123a6.48 6.48 0 0 1 5.1707 1.7369z"/>
   <path class="cls-15" d="m40.713 121.53c-0.42756-3.7945 3.1532-6.6804 9.0988-6.6003 3.3269-1.6968 6.6804-3.1932 10.902-4.8366l-1.924 1.4697c-3.1532 1.3361-5.9055 2.5519-8.591 3.9281a0.9219 0.9219 0 0 1-0.5478 0.12018c-5.3444 0-8.2704 2.5786-8.3506 5.3443z"/>
   <path class="cls-15" d="m91.043 159.73a21.711 21.711 0 0 1-2.4852-5.7986c-1.9507-7.8295 6.146-26.895 20.562-34.738l0.61461 0.53441c-14.163 7.8562-22.219 26.722-20.349 34.084a20.79 20.79 0 0 0 2.071 4.9569z"/>
   <path class="cls-15" d="m92.74 160.78c6.961 10.154 21.297 18.144 24.384 17.93a16.447 16.447 0 0 0 4.7164-0.98869c1.0155-0.34743 1.1357-0.0667 0.17372 0.41408a12.025 12.025 0 0 1-4.8767 1.3361c-2.9394 0.18684-16.982-7.2817-24.424-17.262z"/>
   <path class="cls-15" d="m94.25 134.33a44.291 44.291 0 0 1 17.93-12.199l0.16058 0.7349a46.416 46.416 0 0 0-19.093 13.922z"/>
   <path class="cls-15" d="m92.7 162.01h0.40095l0.58785 0.77494h-0.97532z"/>
   <path class="cls-15" d="m90.081 162.16c-2.5252-1.1356-4.8767-3.9014-6.6805-9.3526-2.2446-6.6805-4.3957-22.299-4.222-31.398 0-1.4697 0.5478-1.5899 1.7102-0.6547a179.5 179.5 0 0 1 14.269 12.559l-0.44085 0.65465c-4.1819-4.1552-9.0319-8.4841-14.216-12.72-0.62794-0.5077-0.68139-0.49437-0.69474 0.17371 0 8.9785 2.1244 24.571 4.3556 31.158 1.7636 5.1974 4.0083 7.8161 6.3064 8.885z"/>
   <path class="cls-15" d="m132.4 144.83c-2.1778 1.5498-6.8007 1.6834-12.679 0.48074-3.7411 0.86841-8.0165 2.0843-12.145 3.3402v-0.77489c3.7143-1.1491 8.1769-2.2981 11.851-3.1666a1.0288 1.0288 0 0 1 0.49438 0c5.625 1.0823 9.8737 0.92194 11.945-0.53442z"/>
   <path class="cls-15" d="m120.6 143.54c0.10706-1.7369-1.5632-3.5807-4.9302-5.3443-0.84175-0.44085-0.6948-0.74823 0.17371-0.36056 3.6208 1.5766 5.6517 3.8212 5.2241 5.8253-0.16058 0.76155-0.5077 0.66803-0.46761-0.13382"/>
   <path class="cls-15" d="m107.18 149.16a13.361 13.361 0 0 0 0.0667-3.0597c0-0.45448-0.17371-0.44085-0.42772-0.10705a32.293 32.293 0 0 1-2.7924 3.3536l-0.9887 0.0934a40.51 40.51 0 0 0 3.407-3.9148c0.66804-0.88184 1.1357-0.82836 1.3361 0.30754a13.067 13.067 0 0 1 0.0934 3.3269z"/>
   <path class="cls-15" d="m130.08 156.63c-4.9435-5.4913-18.826-9.2725-33.469-5.7452-1.0689 0.254-1.1758-0.17371-0.10706-0.46761 14.697-4.0083 29.394-0.21361 34.511 6.0124z"/>
   <path class="cls-15" d="m110.44 176.55a18.772 18.772 0 0 1-3.4872-6.3464 0.56116 0.56116 0 0 1 0.12019-0.68136 56.57 56.57 0 0 1 9.0988-8.7113c0.60123-0.45448 0.56113-0.49437-0.12018-0.46761-3.1398 0.14695-8.9518 0.76156-13.454 3.26-0.32066 0.18684-0.44085 0.18684-0.69475 0a24.05 24.05 0 0 1-5.4512-7.1214c-0.26714-0.56113-0.30754-0.52109-0.36056-0.13382-0.41408 2.6722 0 7.9497 1.4964 10.689l-1.0689-0.80165a22.553 22.553 0 0 1-0.97537-9.9271c0.16008-1.0823 0.77494-1.3361 1.3361 0a24.637 24.637 0 0 0 5.3443 6.8274c4.4224-2.5787 10.448-3.1398 13.775-3.2467 1.443 0 1.6701 0.53442 0.45448 1.4564a61.113 61.113 0 0 0-8.9117 8.6979 21.498 21.498 0 0 0 4.0083 7.1347z"/>
   <path class="cls-15" d="m105.09 173.18a65.188 65.188 0 0 1-14.216 0.32066c-1.1757-0.0803-1.1624-0.5478 0-0.50771a77.814 77.814 0 0 0 13.361-0.41408z"/>
   <path class="cls-15" d="m131.51 179.24c-7.923 5.2107-21.752 2.2713-39.829-1.6301-1.3361-0.2939-1.3361-0.78827 0.0934-0.52104 18.037 3.5139 31.024 6.2261 38.747 1.7904z"/>
   <path class="cls-15" d="m130.6 156.07c3.073-0.0667 9.7936 6.3331 9.7 11.651-0.0803 5.7585-6.6804 11.958-9.0453 11.811-1.6969-0.10706-5.5582-5.5047-5.9723-11.424-0.44085-6.4132 3.1665-12.025 5.3443-12.025m0 0.70813c-1.4831 0-4.9034 4.9836-4.4626 11.263 0.44085 6.2796 4.2221 10.689 5.144 10.689 1.7102 0.12018 8.0165-5.7051 8.0165-11.063 0.0803-4.9702-6.3063-10.996-8.7648-10.929"/>
   <path class="cls-15" d="m133.4 175.29c3.2868-4.5961 3.073-10.355-0.36056-15.418-0.44084-0.66804-0.14695-0.88179 0.3343-0.24037 3.9014 5.1573 4.0751 11.357 0.34742 15.913-0.53442 0.64133-0.84175 0.46762-0.32066-0.254"/>
   <path class="cls-15" d="m91.925 173.29c0.36056-4.9836 0.53447-10.181 0.49437-14.443 0-1.149-0.20047-1.1089-0.6547 0a80.286 80.286 0 0 0-3.2734 9.5931c-2.8459 9.7401-9.847 18.411-19.16 24.29a1.0956 1.0956 0 0 1-0.6146 0.18685c-7.1481 0.12018-11.544 6.4399-10.689 8.0165 0.76157 1.3361 8.0833-0.33379 12.292-6.6805a1.1758 1.1758 0 0 1 0.41418-0.40096c8.8984-5.8521 17.797-11.824 22.166-16.26l0.86846 0.13382c-4.5828 4.703-13.561 10.689-22.714 16.768-3.9148 6.4132-12.345 9.0052-13.575 6.7606-1.2292-2.2446 4.1552-9.1522 11.383-9.0319a45.213 45.213 0 0 0 18.919-23.969 66.804 66.804 0 0 1 3.4872-9.7134c0.92189-1.9374 1.6433-1.5231 1.7102 0.32066 0.16058 4.2888 0 9.4328-0.33379 14.483z"/>
   <path class="cls-15" d="m65.965 199.16c0.26723 0.60128 1.8438 0.40096 4.7966-1.7369a16.648 16.648 0 0 0 4.9435-5.4112 0.93526 0.93526 0 0 1 0.26724-0.34743c0.97534-0.9486 1.7503-1.7369 2.6722-2.779l1.7636-0.94866a45.814 45.814 0 0 1-3.9281 4.2889 17.944 17.944 0 0 1-5.2375 5.8921c-3.22 2.3248-5.4379 2.4584-5.7853 1.3361z"/>
   <path class="cls-15" d="m126.38 145.75a30.556 30.556 0 0 0 3.4204 10.007l-1.2025-1.0155a26.722 26.722 0 0 1-2.8325-9.0052z"/>
   <path class="cls-15" d="m140.92 162.75a29.848 29.848 0 0 0-4.3289-13.628l1.2025 0.64132a29.073 29.073 0 0 1 3.741 12.599z"/>
   <path class="cls-15" d="m176.23 157.18a22.366 22.366 0 0 1 5.7719-9.5798 0.64132 0.64132 0 0 1 0.57452-0.24037c2.3649-0.16007 4.1553-1.0956 4.8099-2.6722a3.3135 3.3135 0 0 0-2.0576-4.369 5.0237 5.0237 0 0 0-5.8654 1.4564 3.7678 3.7678 0 0 0 0.28076 5.2642c0.22725 0.24037 0.25401 0.36056 0 0.62794-3.5807 4.7698-6.8942 10.689-11.731 13.361a1.0154 1.0154 0 0 1-0.50771 0.14695 29.18 29.18 0 0 1-7.8562-0.78827c-7.5756-1.7236-12.72-0.96199-18.465 2.5653-0.81503 0.49437-1.1089 0.12018-0.254-0.45448 6.0391-4.0751 11.464-4.5427 18.879-2.8459a28.245 28.245 0 0 0 7.7627 0.81503c4.8233-2.6722 7.923-8.3639 11.53-13a4.4091 4.4091 0 0 1-0.254-6.1059 5.8521 5.8521 0 0 1 6.6805-1.59 4.0083 4.0083 0 0 1 2.5252 5.3444c-0.76156 1.7636-2.779 2.8993-5.5314 3.0329a21.845 21.845 0 0 0-5.5314 8.8717z"/>
   <path class="cls-15" d="m177.33 161.01c2.6722-2.6722 11.758-7.0145 16.995-8.5777 0.28076-0.0934 0.37418-0.0667 0.66803 0.12018a6.1727 6.1727 0 0 0 6.3197-0.12018 4.0083 4.0083 0 0 0 0.72146-6.1193 5.9857 5.9857 0 0 0-6.6003-1.2025 4.9168 4.9168 0 0 0-3.0863 5.1439c0 0.32066 0 0.41408-0.26713 0.56118a78.281 78.281 0 0 1-16.674 6.8274c-0.94865 0.25401-1.0555-0.18684-0.12018-0.45448a89.104 89.104 0 0 0 16.38-6.9343 5.5448 5.5448 0 0 1 3.5006-5.8253 6.8007 6.8007 0 0 1 7.3217 1.443 4.7298 4.7298 0 0 1-0.77494 7.1748 6.8274 6.8274 0 0 1-7.1481 0c-4.7965 1.5098-13.735 5.5581-16.474 8.1502z"/>
   <path class="cls-15" d="m139.49 165.14a13.748 13.748 0 0 0 8.7915 4.2221c6.5335 0.12018 16.127-4.7966 20.375-5.8387 6.5201-1.0555 16.701 0.73485 22.714 2.0175a0.53444 0.53444 0 0 1 0.46761 0.44085 4.0083 4.0083 0 0 0 3.2066 2.9127 5.3444 5.3444 0 0 0 5.2776-2.1644 4.3557 4.3557 0 0 0-0.68142-6.4533 5.0103 5.0103 0 0 0-6.9744 1.8037 0.56116 0.56116 0 0 1-0.57456 0.30754c-5.3443 0.26713-12.426-0.2939-15.512-1.3361-0.86846-0.28076-0.74817-0.66803 0.14695-0.44084a62.876 62.876 0 0 0 15.338 1.0288 5.7051 5.7051 0 0 1 8.0165-2.0175c2.3248 1.6033 2.8058 4.7431 0.73484 7.442a5.9857 5.9857 0 0 1-5.9322 2.4985 4.5828 4.5828 0 0 1-3.6608-3.4204c-5.7719-1.2158-16.38-2.9661-22.446-1.9641-4.2755 1.149-13.361 6.1193-20.562 5.959a14.016 14.016 0 0 1-8.5643-3.8078z"/>
   <path class="cls-15" d="m160.13 167.08a12.586 12.586 0 0 1-10.261 5.7184 7.4287 7.4287 0 0 1-7.4821-4.8232l0.84175 0.34742a6.9877 6.9877 0 0 0 6.6805 3.6609 12.813 12.813 0 0 0 9.3526-4.6496z"/>
   <path class="cls-15" d="m83.187 150.87c-11.824 0.78832-20.496 3.9014-26 8.8048a21.083 21.083 0 0 0-7.108 16.781c0 0.32066 0 0.38732-0.25386 0.56118-7.2282 5.6116-17.917 11.236-23.328 12.987-1.2559 0.40095-1.3361-0.0934-0.16034-0.52109 5.3444-1.8304 15.539-7.6024 22.967-13.04a21.377 21.377 0 0 1 7.2149-17.436c5.959-5.3443 14.697-8.1501 26.468-8.8182z"/>
   <path class="cls-15" d="m28.087 189.16c0.53443-5.7185 0.8551-10.288 0.97535-15.245 0-1.1624-0.14695-1.1624-0.73485 0-1.6968 3.1666-2.9127 7.7627-6.0391 14.804-1.3361 2.5252-3.2066 6.3063-5.3444 10.595-4.997 6.6805-8.257 12.68-8.6311 15.806-0.12024 0.93528 0 1.1758 0.86846 1.443a16.447 16.447 0 0 0 4.0083 0.60128c3.2066 0.14695 4.6496-0.42772 4.6897-0.96199 0.06681-1.0689-5.7051-1.8572-7.6291-1.0288-0.56116 0.24037-0.74821 0-0.21376-0.37419 1.7102-1.149 8.738-0.57451 8.6311 1.4296 0 1.2426-2.2713 1.6033-5.4913 1.4831a16.22 16.22 0 0 1-4.1686-0.56118c-1.3361-0.38732-1.4563-1.0021-1.3361-2.1244 0.41418-3.407 3.6208-9.2457 8.6712-16.033 2.1912-4.2754 4.0083-8.0165 5.3444-10.555 3.0997-6.961 4.3824-11.53 6.2128-14.697 1.0021-1.7636 1.6701-1.59 1.6701 0.32066 0 4.997-0.25385 9.6198-0.7482 14.884z"/>
   <path class="cls-15" d="m10.076 214.86a25.132 25.132 0 0 1 9.3526-11.945c5.7318-5.4379 9.8336-8.4842 14.697-10.916a118.91 118.91 0 0 1 22.366-8.7648 0.96198 0.96198 0 0 1 0.64133 0c12.185 3.2066 22.714-2.4852 31.652-17.262l-0.41409 1.9106c-8.0967 13.361-19.253 20.041-31.532 16.033a122.2 122.2 0 0 0-22.339 8.6846c-4.8233 2.405-8.9384 5.4379-14.697 10.862a23.916 23.916 0 0 0-9.0453 11.196z"/>
   <path class="cls-15" d="m75.812 181a10.221 10.221 0 0 1-8.1234 6.1727 9.6198 9.6198 0 0 1-8.4975-3.0062l1.0154 0.0934a9.2324 9.2324 0 0 0 7.3752 2.0709 9.9271 9.9271 0 0 0 7.2416-4.8634z"/>
   <path class="cls-15" d="m13.309 214.47a12.8 12.8 0 0 1 1.1891-6.6805l1.2158-1.0421a13.441 13.441 0 0 0-1.7102 7.7894z"/>
   <path class="cls-15" d="m15.207 213.69c0-2.3515 1.3361-6.4934 4.1686-10.395l1.7636-1.2292c-4.0083 4.9435-5.3444 9.5397-5.3444 11.397z"/>
   <path class="cls-15" d="m18.093 215.8c3.8079 0 6.4533-0.85508 6.4667-1.3361 0-0.93527-5.9456-1.9374-9.1789-0.57451-0.60124 0.254-0.74821 0-0.18704-0.36056 2.7657-1.5899 10.234-0.86846 10.154 0.9486 0 1.1758-3.6342 1.9106-7.1214 1.8973z"/>
   <path class="cls-15" d="m192 149.94c-3.2868 1.1758-7.4286 0.45448-8.8449-2.2714l0.57452-0.0934c1.3361 2.0843 5.0504 2.8726 8.2704 1.7369z"/>
   <path class="cls-15" d="m193.73 160.4a6.961 6.961 0 0 1 0.77494-7.736l0.48074 0.28077a6.8408 6.8408 0 0 0-0.84175 7.1347z"/>
  </g>
 </g>
</svg>
