<?xml version="1.0" encoding="UTF-8"?>
<!-- Created with Inkscape (http://www.inkscape.org/) -->
<svg version="1.1" viewBox="0 0 196.11 198.44" xmlns="http://www.w3.org/2000/svg">
 <g transform="translate(-5.5713 -30.402)" stroke-width=".91324">
  <path class="cls-6" d="m169.04 143.14a8.2923 8.2923 0 0 0-3.9361-1.8813 8.3745 8.3745 0 0 1-4.1644-1.8265 7.9818 7.9818 0 0 0-5.2512-1.516c-1.3516 0.12771-1.5617 0.91324-1.1233 2.0091a7.306 7.306 0 0 0 2.0457 2.8402 8.4475 8.4475 0 0 1 2.8037 3.2786 12.073 12.073 0 0 0 3.0228 4.0182c2.6393 2.5206 3.653 4.5662 3.1964 7.306a6.9133 6.9133 0 0 0 0.32859 4.1096 10.311 10.311 0 0 1 0.40184 5.4795c-0.47487 2.3653 0.17362 4.0548 1.5525 4.0365 1.379-0.0173 3.7626-1.5708 4.6484-3.3425a2.2192 2.2192 0 0 1 1.5525-1.3516 4.8311 4.8311 0 0 0 2.9224-1.6438c0.76713-0.99545 3.3425-1.2055 5.0137 0a10.886 10.886 0 0 0 5.5343 2 15.416 15.416 0 0 1 5.2329 1.1142c1.8265 0.73061 3.9635 1.5617 5.3242 2.2192 1.3607 0.65753 2.5753 0.41095 1.8265-1.3973a10.959 10.959 0 0 0-3.1324-3.927z" fill="#57c1e8"/>
  <path class="cls-6" d="m184.46 147.66a6.7398 6.7398 0 0 1-0.51143-4.3105c0.37444-1.5343 0.68495-2.8584 0.41095-3.5982-0.51142-1.3516-1.8265-1.9361-2.9224-0.99542-1.7169 1.516-3.242 3.0502-4.4292 3.2968a74.064 74.064 0 0 1 7.4521 5.6073" fill="#57c1e8"/>
  <path class="cls-7" d="m152.8 111.11a12.575 12.575 0 0 0-2.484-1.5251 2.5023 2.5023 0 0 1-1.2694-1.3699 44.009 44.009 0 0 0-7.4521-11.443c-1.2785 4.2375-4.9954 8.3471-8.4384 10.511a89.626 89.626 0 0 0 10.959 6.0457c0.66668 0.31064 1.0046 0.52969 1.2055 1.2328 1.7169 6.0092 6.3105 12.785 16.667 19.772 4.064 2.7397 6.1918 4.411 6.822 7.6073a31.133 31.133 0 0 1 0.39269 8.1736c-3.8904 0.25577-3.7078 4.7124 1.8265 8.8311 3.863 2.8676 7.306 2.621 8.1188 1.4977 1.0411-1.4886 0.13703-6.0822-4.758-8.5754-0.69406-2.8402-1.379-5.9726-2.21-8.3014a46.229 46.229 0 0 1 9.653 12.676c-2.3653 0.66665-1.1781 5.2603 2.9406 8.2831 3.653 2.7397 6.758 3.0502 7.8722 1.7625a3.653 3.653 0 0 0 0.3927-3.0868c3.0411 1.9087 6.5845 2.5571 7.7991 0.78538 1.3699-2-1.2785-7.3059-8.5662-9.4247a132.32 132.32 0 0 0-19.324-15.196 8.685 8.685 0 0 1-2.5114-3.1507 62.722 62.722 0 0 1-3.8539-9.7535z" fill="#005a9e"/>
  <path class="cls-8" d="m178.4 146.39c1.726 2.347 5.3334 7.6713 7.0594 9.6439a15.598 15.598 0 0 1 2.8493 1.1781l0.68494-1.6073c-1.7443-2.7397-7.3516-7.6348-10.594-9.2147" fill="#fff9c5"/>
  <path class="cls-8" d="m174.44 151.95a9.3242 9.3242 0 0 1 4.1096 3.589 16.913 16.913 0 0 1 2.3196 1.4064 2.0183 2.0183 0 0 1 0.91327-0.74887c-2.2923-4.3562-5.4338-9.4795-9.5343-12.548a76.119 76.119 0 0 1 2.2192 8.3014" fill="#fff9c5"/>
  <path class="cls-9" d="m155.65 110.67a3.5434 3.5434 0 0 0-3.79 5.1507c2.5754 5.8174 7.1872 9.306 12.274 11.37 1.5982 0.65754 2.2466 0.28304 2.621-1.6621 1.4977-7.7443-3.7991-14.037-11.105-14.859" fill="#e2eef4"/>
  <path class="cls-7" d="m87.884 100.09c0.15525 6.9498 1.1142 23.589 4.3288 33.498-16.137 3.653-39.927 13.379-40.831 30.649-0.19178 3.5525 1.3607 7.8356 3.3973 11.014-3.1781 7.3882-7.8722 18.904-12.676 28.174-8.411 8.6119-13.233 14.475-23.242 19.48-4.1187-0.33792-12.722 1.7078-12.785 3.9178-0.08218 2.4566 12.886 2.1461 15.525-1.7626 5.2055-2.7397 11.817-8.2192 13.827-9.1325 0.99544-0.44747 2.6119-0.65754 3.1781-0.25577 0.56621 0.40184 0.20092 4.4201-2.274 7.1051-2.4201 0-6.1553 1.2786-6.2466 2.8311-0.09133 1.5525 3.379 2.347 8.6302 1.8721 5.2512-0.47487 7.7535-2.0365 7.6621-3.653-0.0548-0.9863-1.7443-1.7169-3.8996-1.6347 3.3151-8.959 20.932-30.402 19.498-31.05-1.4338-0.64839-7.3608 4.0914-11.872 9.0138 5.6986-10.21 8.8494-14.557 14.329-21.251 15.717 2.2466 23.662-12.228 29.854-33.918a4.274 4.274 0 0 0 4.3288 3.5069c2.3836-0.13703 5.2512-2.2466 7.032-5.7534a50.877 50.877 0 0 0 16.895 25.489c7.443 5.8539 11.607 6.7397 18.703 4.8402a163.82 163.82 0 0 1 13.379 21.58c-5.2694-3.927-14.201-8.9681-14.932-8.1553s6.2649 7.6987 10.046 11.37c7.4703 7.306 9.3699 9.9087 10.311 13.763-1.6073 0.57532-1.8265 1.3607-1.6621 2.3744 0.28304 1.9452 3.8996 2.3196 7.2512 2.064 3.5525-0.27406 6.5297-0.99542 6.3927-2.8037-0.0732-1.2877-2.3014-2.6941-6.5845-2.8493-1.8995-2.0914-2.0183-4.7671-1.0137-5.7443 1.4977-1.4612 8.1462 0.91323 19.653 5.7717-0.19191 1.5525 2.6118 3.2329 8.8768 2.9224 4.137-0.20089 6.4384-1.4612 6.3927-2.6941-0.0456-1.2328-5.5343-3.1781-11.68-1.5251a125.95 125.95 0 0 1-23.662-12.338c-4.2831-6.8767-10.046-16.512-12.904-24.393a18.731 18.731 0 0 1-1.2785-7.032l-7.0685-20.183c-3.3334-5.2147-18.164-10.749-32.877-12.009 3.9452-4.8128 12.74-15.763 16.84-23.196-9.4521 3.0046-28.311 0.5662-38.813-9.8631" fill="#005a9e"/>
  <path class="cls-9" d="m71.08 156.09c8.2192 8.3105-1.4338 23.352-9.9452 22.265-6.0822-0.77627-10.228-14.055-2.1735-20.603 2.3196 3.0502 9.306 1.8265 12.119-1.6621" fill="#e2eef4"/>
  <path class="cls-9" d="m137.65 144.75c-4.8676 1.1507-6.4475 9.7443-4.3105 14.722 3.1507 7.306 10.164 9.8813 12.174 9.5343 2.895-0.51139 7.6713-7.1598 6.3927-13.132-1.5708-7.1142-9.2786-12.301-14.219-11.123" fill="#e2eef4"/>
  <g fill="#fff9c5">
   <path class="cls-8" d="m93.025 104.21c-0.0548 4.8859 0.42922 10.119 2.9132 14.813-0.25569 7.9087 2.6576 21.169 5.169 22.292 1.4521-3.5525 4.6393-11.872 5.3699-11.772 0.7306 0.10045 0.54795 5.4247 0.24658 7.9452 4.0457-6.1279 9.2055-14.21 11.069-18.201 2.9224-1.8265 7.1507-5.79 8.9042-9.3699-9.9544 2.8858-24.174 0.26474-33.671-5.7078"/>
   <path class="cls-8" d="m22.696 224.54a30.603 30.603 0 0 1 9.2421-0.75798 13.964 13.964 0 0 1 4.4292-1.0137c1.7078-2.3014 3.0959-6.2831 2.274-7.1051-0.42009-0.41095-2.1461-0.28303-3.0046 0.21021-2.8311 1.6256-7.9726 5.6347-12.941 8.6667"/>
   <path class="cls-8" d="m170.25 211.26a25.653 25.653 0 0 1 14.292 0.30132 1.3059 1.3059 0 0 1-0.35618-1.2146c-10.813-4.4566-18.53-7.4064-19.881-5.6347-1.2329 1.6164-0.22815 4.4384 1.3516 5.5982a13.352 13.352 0 0 1 4.5662 0.91324"/>
  </g>
  <path class="cls-7" d="m89.025 116.94c-2.0913-2.1005-5.0137-4.6119-5.8082-4.2922-0.79453 0.31962 1.0411 11.461 6.0822 21.498 1.0685-0.23747 1.9087-0.4201 2.9132-0.59361a71.644 71.644 0 0 1-3.1872-16.612" fill="#005a9e"/>
  <g fill="#57c1e8">
   <path class="cls-6" d="m74.377 139.93c3.4521-0.23747 9.4795-1.8265 9.6347-2.4018 0.0913-0.31962-1.7169-0.73061-2.9589-0.8676a75.325 75.325 0 0 0-7.0685 3.0137z"/>
   <path class="cls-6" d="m121.5 134.87c-2.1005 0.45661-3.1781 0.91323-3.2238 1.1781-0.12785 0.79454 4.5114 1.5251 10.1 0.85846a57.534 57.534 0 0 0-6.8767-2.0365"/>
   <path class="cls-6" d="m128.76 137.02c1.1507 2.2009 4.9315 7.0594 5.5434 6.9864 0.61188-0.0732 0.7306-2.822 0.77626-4.4018a40.576 40.576 0 0 0-6.3197-2.5845"/>
  </g>
  <path class="cls-10" d="m93.053 104.18a33.598 33.598 0 0 1-4.8128-3.7808l-0.3927 0.40181c0.15526 2.6667 0.29225 6.8128 0.59361 10.365a37.662 37.662 0 0 0 6.484 5.7717c-1.6438-3.9087-2.0365-9.1324-1.8265-12.785" fill="#004984"/>
  <path class="cls-10" d="m115.64 123.42a8.621 8.621 0 0 0 2.8493-1.3516 94.822 94.822 0 0 0 6.6484-9.2786c-2.7397 3.0046-5.4795 5.5708-7.306 6.5571-0.57535 1.169-1.3699 2.6393-2.2101 4.0731" fill="#004984"/>
  <path class="cls-11" d="m93.053 104.18c-0.16436 3.5982 0.22833 8.8493 1.8265 12.785 6.3927 4.5662 14.813 8.1187 20.712 6.484 0.84019-1.4338 1.6347-2.9041 2.2101-4.0731 1.7717-0.98631 4.5662-3.5525 7.306-6.5571a22.831 22.831 0 0 0 1.3973-2.6758c-9.7626 2.2923-23.297 0.70321-33.48-5.9361" fill="#dbd7ab"/>
  <g fill="#004984">
   <path class="cls-10" d="m83.116 112.73a51.644 51.644 0 0 1 7.306 14.301 29.607 29.607 0 0 0 1.9087 6.484c-0.98631 0.22815-1.9635 0.4201-2.9132 0.67583-2.5845-4.9954-6.9224-17.306-6.2649-21.461"/>
   <path class="cls-10" d="m42.468 222.2c1.8539-6.0365 18.813-28.046 19.617-30.786-3.0959 1.6895-8.6028 7.3882-13.753 12.329 3.8174-8.6758 11.041-19.014 15.973-24.749 16.091 2.3197 25.178-14.301 30.484-36.74 0.30137-1.2877 0.91325-1.5982 2.3744-0.99545 1.7717 0.73972 3.242 0.84931 3.7808 0.0639a7.3973 7.3973 0 0 1-1.7717-3.0959 8.9407 8.9407 0 0 1-5.9909-4.7671 15.069 15.069 0 0 0-3.0868 0.57536c2.3014 2.4932 2.6667 7.8082 0.84932 13.069-4.0092 11.607-10.539 17.68-17.123 20.091-2.7397 9.2603-9.3334 12.256-13.982 10.776-4.1187-1.3059-6.2375-9.4886-4.9041-14.037a10.1 10.1 0 0 1-2.7397-4.5023c-2.2557 5.5891 0.43836 13.206 2.9498 16.511-1.9178 6.5388-6.6484 18.21-9.9452 25.516-1.242 2.7397-1.8265 5.58-1.8265 10.046a23.452 23.452 0 0 1-2.6667 9.6987c-0.49315 1.0137-0.17351 1.3516 0.84018 1.2968 3.4703-0.1643 3.0594 2.9498-3.3425 3.653-3.5069 0.38354-7.306-0.10045-7.8722-1.2238-0.85845 2.4201 2.6575 3.169 8.621 2.5662 4.7032-0.48399 7.5799-2.0274 7.4064-3.7443-0.0731-0.66665-0.91324-1.6347-3.8996-1.5068"/>
   <path class="cls-10" d="m6.2303 226.3c1.9361 2.0457 14.932 0.12771 15.069-2.6941 1.3425 1.3242-0.52968 3.7169-6.2466 4.4566-5.7169 0.73972-9.6347 0.13703-8.822-1.7626"/>
   <path class="cls-10" d="m21.363 223.54c4.3014-2.1552 9.4156-6.548 13.434-8.6484 2.6119-1.3425 4.5023-0.51143 4.4749 1.4429-0.34704-1.0411-1.5251-1.3698-3.9818-0.33792-1.5525 0.65754-9.3516 6.8676-13.827 9.4521a1.5982 1.5982 0 0 0-0.12785-1.9087"/>
   <path class="cls-10" d="m98.934 142.16c4.8128 1.0776 6.6576-1.452 7.9452-9.0411a24.283 24.283 0 0 1-1.169 9.2786c-1.242 3.0137-4.7032 6.064-7.105 6.0914-2.4018 0.0276-3.653-1.3333-4.2831-4.1096 0.15525-0.83105 0.44749-1.8265 0.53881-2.5023 0.15526-1.0228 0.64841-1.105 1.3973-0.76713a12.785 12.785 0 0 0 2.6758 1.0502"/>
  </g>
  <path class="cls-12" d="m55.299 162.81c0.18266 6.3927 3.1964 9.9726 6.8859 10.712 3.9818 0.79453 8.7672-1.7443 11.954-7.7991-1.3242 7.032-7.6256 13.699-13.571 12.466-4.4932-0.96801-7.3608-8.1187-5.2694-15.379" fill="#c0cad0"/>
  <path class="cls-10" d="m165.53 216.08c5.9635-0.47491 7.6165-2.4658 5.8813-3.9726 0.20089 1.2694-3.3151 2.5023-6.0822 2.6302-5.7352 0.25577-6.1553-2.621-4.1827-3.2785 1.1781-0.39272 1.2512-0.7032 0.76712-1.6712-1.3333-2.7397-1.6256-5.105-1.1507-6.8037 0.47488-1.6986-0.5662-8.2192-2.3105-11.315-7.9635-14.201-10.722-20.74-10.603-24.073a4.1461 4.1461 0 0 1-2.5754 1.3698c-2.1096 0.3286-9.4338-2.895-11.872-9.653-10.566-0.21918-23.014-9.0777-26.639-22.119a20.384 20.384 0 0 1-1.032 5.2146c2.3744 10.913 10.53 20.457 19.699 27.863 5.1964 4.1918 10.502 4.4932 15.708 2.8037 3.589 3.3973 11.269 17.16 15.16 24.521a175.34 175.34 0 0 0-16.621-11.023c-0.24645 0.52969 6.6484 8.3014 10.548 11.753 3.8996 3.452 8.3471 7.927 9.8813 13.16-2.6576 1.2055-3.2055 5.2694 5.4795 4.5662" fill="#004984"/>
  <path class="cls-10" d="m163.56 205.18c0.66665-2.1279 2.7397-2.7397 5.1142-2.0183a163.31 163.31 0 0 1 16.146 6.1827 0.91325 0.91325 0 0 1 0.52054 0.9863c-0.17362 2.3653 12.639 2.3014 13.763-0.18259 0.83105 1.5708-1.3972 2.8767-5.7534 3.2146-4.7672 0.38358-8.9133-0.45661-9.1964-2.9772-4.411-1.8995-12.539-5.1233-16.977-6.1096a3.4429 3.4429 0 0 0-3.653 0.91324" fill="#004984"/>
  <path class="cls-12" d="m132.51 156.1c2.6393 6.0457 10.046 7.9726 12.21 7.6165 2.7397-0.43836 6.3928-2.274 6.9498-8.7489 1.5708 5.8813-2.484 13.534-6.1096 13.954-4.7763 0.54794-12.594-5.7078-13.05-12.785" fill="#c0cad0"/>
  <g fill="#004984">
   <path class="cls-10" d="m139.17 101.36a24.703 24.703 0 0 0 6.6941 8.9498 4.9589 4.9589 0 0 1 1.7534 2.8311c2.5297 9.0685 10.868 16.438 18.375 21.653 2.9041 2.0183 3.726 3.7443 4.2831 7.306a38.356 38.356 0 0 1 0.28303 7.8904c0 0.91323-0.26474 1.1689-1.2329 1.2694-1.2603 0.146-1.6804 2.6941 2.1279 5.6895 4.3744 3.4429 7.306 3.0046 7.7991 0.53884 1.3882 5.242-5.2055 4.0731-8.7123 1.0502-4.895-4.2101-4.895-8.1736-1.3699-8.3745 0.0822-3.3516 0.0456-6.758-0.44751-8.7306a7.927 7.927 0 0 0-3.7443-5.0229c-6.7123-4.137-16.676-11.726-19.617-21.397a3.3516 3.3516 0 0 0-1.452-1.6804 71.626 71.626 0 0 1-10.776-6.0457 19.114 19.114 0 0 0 6.0366-5.9361"/>
   <path class="cls-10" d="m172.18 143.23c3.8356 1.7626 8.1096 7.8082 10.557 12.466 0.38358 0.73058 0.3286 1.1689-0.39269 1.4977-0.86757 0.3927-0.20089 3.169 3.5069 6.1462 3.3425 2.6941 6.7306 2.4932 7.2055 0 1.242 3.5708-2.6849 5.3334-7.8813 1.4064-4.7671-3.6074-5.2694-7.516-3.4338-8.548a44 44 0 0 0-9.5617-13.005"/>
   <path class="cls-10" d="m192.29 161.05c4.1553 2.9498 8.1005 2.895 8.9589 1.0959 0.146 2.0457-1.6438 4.895-8.1553 0.91323a7.0685 7.0685 0 0 0-0.80365-2"/>
   <path class="cls-10" d="m178.03 145.87c4.3014 1.6438 9.1324 5.8904 11.708 8.6667 0.47487 0.52966 0.57532 0.96801 0.38354 1.3881a2.7397 2.7397 0 0 0 0.0639 2.5845 9.3242 9.3242 0 0 0-1.8265-1.3151c0.23747-0.58446 0.52965-1.242 0.68491-1.6895a43.16 43.16 0 0 0-10.959-9.6347"/>
  </g>
  <path class="cls-12" d="m151.64 114.25c3.1324 6.5936 11.626 10.594 12.84 10.237 1.2146-0.35618 2.1918-1.6621 2.137-4.5662a11.297 11.297 0 0 1 0 6.3927c-0.36532 1.1964-0.77627 1.3972-1.8265 1.0594-5.0959-1.6164-12.365-7.2512-13.105-13.132" fill="#c0cad0"/>
  <g fill="#4ba8ca">
   <path class="cls-13" d="m155.03 138.06c-0.19191 0.91327 0.91324 2.3562 2.0639 3.1781a12.183 12.183 0 0 1 3.8448 4.137 16.064 16.064 0 0 0 3.7169 4.4566c1.6986 1.5525 2.968 5.0503 2.484 8.1279a5.9544 5.9544 0 0 0 0.4018 3.3699 10.959 10.959 0 0 1 0.29236 5.6438c-0.3286 1.0046-0.19191 2.0731 0.47487 2.3745 0.66669 0.30132 1.8813-0.15533 2.5206-1.5799 0.63928-1.4247 1.726-2.8037 2.7397-2.8037a3.2603 3.2603 0 0 0 2.7397-1.2968c1.2512-1.9361 4.9681-2 7.1051-0.26474 1.1324 0.91323 3.5525 2.9132 5.927 3.4521-2.274 0-5.1781-0.44751-6.8494-1.7443-1.6712-1.2968-4.1735-1.927-5.2146-0.48403a5.4795 5.4795 0 0 1-2.6941 1.5799 2.9863 2.9863 0 0 0-2.1644 1.8904c-0.76713 1.726-3.3973 3.4338-4.9224 2.8219-1.5251-0.61187-1.4612-1.8813-1.0502-4.0731a9.7261 9.7261 0 0 0-0.52054-5.4795 7.306 7.306 0 0 1-0.2285-4.0913c0.30133-1.8265 0.0915-4.3836-3.7352-7.79a11.653 11.653 0 0 1-2.6119-3.589 6.6758 6.6758 0 0 0-2.1918-2.7397c-2.621-1.9544-3.4155-4.4841-2.1187-5.0959"/>
   <path class="cls-13" d="m192.79 166.08a34.868 34.868 0 0 1 4.484 2.073c1.6073 0.98631 2.2374 1.1324 2.6667 0.46576 0.61188 1.0411 0.30133 2.621-1.6986 1.5434a42.009 42.009 0 0 0-7.8539-3.1507c1.4703 0 1.9452-0.35617 2.4018-0.91323"/>
   <path class="cls-13" d="m183.9 139.09a5.4795 5.4795 0 0 1-0.84931 3.5525 4.5662 4.5662 0 0 0-0.64843 3.1964l1.9818 1.653a5.3516 5.3516 0 0 1-0.34703-4.3471c0.61188-1.6712 0.74887-3.2055-0.13703-4.0548"/>
  </g>
  <path class="cls-11" d="m110.72 131.08a26.338 26.338 0 0 1-3.653 3.5799c0 0.72146-0.17352 1.9178-0.31051 2.7397a47.27 47.27 0 0 0 4-6.3014" fill="#dbd7ab"/>
  <path class="cls-11" d="m102.76 137.29a9.2512 9.2512 0 0 1-3.5891 0.91327 8.0548 8.0548 0 0 0 1.7717 3.0959c0.62101-0.63924 1.0228-1.8265 1.8265-4.0365" fill="#dbd7ab"/>
  <g fill="#0f141b">
   <path class="cls-14" d="m91.774 133.55c-2.8219-6.9772-4.0092-21.206-4.411-32.63l0.98631-0.24644c0.43836 11.562 1.7169 25.891 4.1644 32.712z"/>
   <path class="cls-14" d="m57.034 151.88c-6.2192 7.2238-6.7124 15.041-1.9818 23.452 0.54795 0.96804 0.10045 1.1507-0.47489 0.24644-5.2238-8.2192-4.685-16.174 1.0228-23.379z"/>
   <path class="cls-14" d="m73.555 139.29a76.466 76.466 0 0 1 18.557-6.0274c1.5342-0.27406 1.6438 0.32894 0.12785 0.64843a87.261 87.261 0 0 0-17.89 6.0639z"/>
   <path class="cls-14" d="m54.961 175.67a261.19 261.19 0 0 1-15.671 33.58c-0.52055 0.91323-1.0411 0.76712-0.52968-0.20089 4.9589-9.4795 11.872-24.603 15.653-34.356z"/>
   <path class="cls-14" d="m41.272 204.88c-9.2146 9.8904-14.493 14.694-22.055 18.311a0.91325 0.91325 0 0 1-0.60274 0.10942c-5.1142-0.46576-12.192 2.274-12.128 3.516 0 0.6758 2.8219 1.7626 8.3927 0.91324 5.5708-0.84931 7.0137-2.5388 6.5206-3.589-0.31962-0.6758 0-0.84931 0.40183-0.23748 0.91324 1.4064-0.38356 3.4977-6.7763 4.5662-6.3927 1.0685-9.379-0.35614-9.4521-1.6347-0.12785-2.2923 8.1644-4.7215 13.123-4.3014 7.4795-3.589 12.42-7.9635 23.635-20.091z"/>
   <path class="cls-14" d="m21.801 224.53c5.0503-2.5662 11.753-8.3836 13.872-9.0594 1.3699-0.43836 2.7397-0.52054 3.2694-0.0549 0.91324 0.81279 0.19177 4.0274-1.9817 7.306-0.18266 0.28303-0.22833 0.32859-0.57534 0.35617-3.7991 0.31962-5.79 1.8265-5.7808 2.4749 0 0.99546 2.7397 2.0092 8.1188 1.5251 4.9133-0.42924 7.306-1.8265 7.306-3.2786 0-0.7032-1.242-1.5708-4.1644-1.3516-1.0137 0.0821-1.032-0.36529 0-0.51143 2.6027-0.38355 5.0594 0.41095 5.0776 1.8265 0 1.8265-2.1735 3.4795-8.1553 4.0092-6.3927 0.55709-9.0229-0.54795-9.0594-2.2009 0-1.3973 2.7945-2.9498 6.3927-3.1598 2.2009-3.2512 2.7397-6.1644 2.3288-6.5937-0.20092-0.19192-1.3151-0.0911-2.5845 0.35617-2.0274 0.71235-9.1325 6.9498-14.548 9.6348z"/>
   <path class="cls-14" d="m50.998 198.6c4.9133-5.2238 10.374-8.9315 11.324-7.8174 0.94978 1.1142-3.3425 5.9544-7.306 12.064-4.7032 7.306-9.5708 12.785-12.009 19.288l-1.032 0.0732c2.3105-6.3927 7.6987-12.868 12.329-19.772 4.3379-6.4566 7.7717-10.685 7.4156-11.105-0.52055-0.61188-7.306 4.3471-12.128 9.8813z"/>
   <path class="cls-14" d="m66.121 177.35a150.95 150.95 0 0 0-17.352 26.046c-0.52968 0.97716-1.0137 0.75798-0.51142-0.27406a109.12 109.12 0 0 1 16.274-25.169z"/>
   <path class="cls-14" d="m94.66 143.74c0.21918 5.4795 6.2466 6.2831 10.329-0.91324 1.7078-2.9954 1.8265-12.913 1.3699-12.922-0.21918 0-1.4977 3.1781-4.411 10.776-0.6758 1.7717-2.137 2.0183-5.1142 0.91323-1.3973-0.50228-1.5434-0.23747-1.6256 0.48403-0.91325 7.2238-6.0457 20.201-10.265 26.667-5.7169 8.822-12.429 11.717-20.922 10.63l0.53881-0.80365c7.5891 0.6758 13.753-1.516 19.58-10.448 4.1827-6.3927 9.379-19.279 10.201-26.064 0.14611-1.2603 0.7032-2 2.7397-1.242 2.6667 0.98631 3.5525 0.71232 4.0548-0.56624 2.968-7.5251 4.5662-11.187 5.3516-11.142 1.3333 0.0732 0.91325 11.306-0.73973 14.311-4.5662 8.2192-11.406 5.9178-11.452 1.7534z"/>
   <path class="cls-14" d="m88.797 134.21c-3.927-7.5799-7.169-21.416-5.8539-21.918 1.0685-0.4201 4.3197 2.3105 6.137 4.3379l0.11873 1.3882c-2.2466-2.8493-5.379-5.169-5.79-4.9681-0.65754 0.31962 2.2374 13.489 6.3105 20.904z"/>
   <path class="cls-14" d="m93.372 104.41c-0.11874 3.4612 0.56621 10.301 2.8585 14.466a0.24658 0.24658 0 0 1 0 0.10976c0.0913 9.516 3.0868 21.543 5.0685 22.073l-0.69407 0.4475c-2.3105-1.4064-5.0228-13.333-5.105-22.384-2.548-4.4932-3.1507-11.242-2.9315-15.206z"/>
   <path class="cls-14" d="m127.22 109.94c-2.895 6.137-14.53 20.219-20.731 28.74l0.10959-1.4886c5.1507-7.1507 16.922-22.201 19.425-27.059z"/>
   <path class="cls-14" d="m123.78 114.47a27.525 27.525 0 0 1-5.6621 5.1872 181.23 181.23 0 0 1-11.489 18.329v-1.306a170.48 170.48 0 0 0 10.858-17.543 0.18265 0.18265 0 0 1 0.0822-0.0821 29.169 29.169 0 0 0 7.863-7.927z"/>
   <path class="cls-14" d="m115.37 118.3c-6.3927-2.3927-12.311 0.66665-15.269 0.85842-1.2877 0.0915-1.3333-0.26474-0.0639-0.45662 2.968-0.44747 9.0137-3.653 15.525-0.83105 1.1872 0.51143 0.91324 0.84931-0.18266 0.42925"/>
   <path class="cls-14" d="m141.71 96.112a42.009 42.009 0 0 1 7.6439 11.872 2.5845 2.5845 0 0 0 1.2603 1.3151 16.365 16.365 0 0 1 2.7397 1.6712l-0.64842 0.50229a12.018 12.018 0 0 0-2.5023-1.5982 3.0502 3.0502 0 0 1-1.4247-1.516 44.365 44.365 0 0 0-7.4338-11.251z"/>
   <path class="cls-14" d="m187.95 157.01a8.2192 8.2192 0 0 0 0.63928-1.4795 36.018 36.018 0 0 0-9.306-8.3379c2.0639 2.7854 3.4795 4.968 6.5023 8.6393 7.306 2.0092 9.0137 8.6393 7.1964 10.731-1.2694 1.4703-4.9681 0.91324-8.4201-1.7443-4.411-3.3333-5.1598-7.589-3.2877-8.7398a40.713 40.713 0 0 0-8.5206-11.69c0.70321 2 1.4794 4.6941 2.1461 7.4155 5.0868 2.5023 5.7169 7.0503 4.4932 8.7672-1.0594 1.4977-4.9954 1.3881-8.5845-1.3059-5.9544-4.4749-5.6164-9.0594-2.0274-9.4704a29.891 29.891 0 0 0-0.34703-7.8083c-0.59362-3.0411-2.4292-4.411-6.5845-7.1233-9.1324-5.9635-14.32-11.626-16.968-20a1.5343 1.5343 0 0 0-1.0411-1.1324 80.914 80.914 0 0 1-11.324-6.2009l0.91325-0.59361a80.996 80.996 0 0 0 10.822 6.0822 2.1187 2.1187 0 0 1 1.3699 1.4612c1.9909 6.959 7.6713 13.836 16.548 19.525 4.6301 2.9681 6.3288 4.4384 7.0046 7.8631a30.42 30.42 0 0 1 0.4475 8.0913c0 0.52969-0.10941 0.57536-0.5845 0.59362-2.9224 0.13703-3.0868 4.1918 2.2192 8.1279 3.1142 2.3105 6.5754 2.5297 7.3882 1.379 0.81279-1.1507 0.31962-5.4064-4.2375-7.7169a0.66667 0.66667 0 0 1-0.45662-0.59361c-0.57535-2.3836-1.2329-5.5251-1.8813-7.5799-0.35617-1.1416-0.146-1.242 0.85846-0.35617a40.986 40.986 0 0 1 9.1324 12.037c0.23747 0.46573 0.10976 0.66665-0.20089 0.76712-1.8265 0.63013-0.42921 5.0137 3.1507 7.6439 3.5799 2.6302 6.2831 2.8402 7.306 1.6895 1.5251-1.7717-0.32894-7.7078-6.8311-9.4795a0.63014 0.63014 0 0 1-0.40184-0.27406c-2.9041-3.7169-4.274-5.9544-6.685-9.2238-1.0411-1.4156-0.85846-1.4977 0.63013-0.5845a38.101 38.101 0 0 1 10.265 8.7306 0.58448 0.58448 0 0 1 0.0822 0.68495 14.612 14.612 0 0 1-0.73972 1.5708z"/>
   <path class="cls-14" d="m166.78 125.66a65.105 65.105 0 0 0 3.9818 10.21 7.169 7.169 0 0 0 2.3653 3.0502 159 159 0 0 1 19.434 15.343c6.5297 1.8721 10.521 7.2055 8.6576 9.9909-1.0685 1.589-4.5662 1.6986-8.1096-0.81279l-0.21918-0.91323c3.9635 2.895 6.9041 2.2648 7.5799 1.1781 1.379-2.2009-1.9269-6.8859-8.3927-8.7854h-0.0821a152.68 152.68 0 0 0-19.297-15.361 8.3379 8.3379 0 0 1-2.6484-3.2055 58.393 58.393 0 0 1-3.7443-9.3516z"/>
   <path class="cls-14" d="m180.75 157.32a13.881 13.881 0 0 0-1.927-1.1964l-0.65754-1.1507a23.817 23.817 0 0 1 2.9589 1.653z"/>
   <path class="cls-14" d="m163.98 127.49c-5.9726-2.3379-10.119-6.1461-12.457-11.534-1.2968-2.9681-0.13703-6.0731 4.1187-5.6439a12.731 12.731 0 0 1 11.443 15.251c-0.44751 2.3105-1.1598 2.6941-3.105 1.9269m-11.781-11.872c2.4292 5.0868 6.2284 8.6941 12.046 11.196 1.4886 0.63928 1.8265 0.50228 2.1552-1.4155a12.265 12.265 0 0 0-10.822-14.347c-4.1096-0.45662-4.1461 2.9955-3.379 4.6119"/>
   <path class="cls-14" d="m158.68 116.46a20.53 20.53 0 0 0-1.8265-1.7626c-0.62102-0.57536-0.36529-0.85846 0.31065-0.34703a9.5434 9.5434 0 0 1 1.8265 1.7808c0.57532 0.75798 0.25577 1.0046-0.32894 0.32859"/>
   <path class="cls-14" d="m164.97 123.95a44.018 44.018 0 0 0-4.2831-5.5799c-0.60272-0.66668-0.30133-0.91326 0.34703-0.31962a23.525 23.525 0 0 1 4.3379 5.6713c0.37444 0.71231 0 0.91323-0.4018 0.22815"/>
   <path class="cls-14" d="m105.93 141.9a49.005 49.005 0 0 0 18.11 26.685c6.9041 5.2877 11.47 6.0274 19.534 3.3334 1.0046-0.33791 1.1416 0 0.17362 0.42925-7.7535 3.5434-13.425 2.4292-20.365-2.8493-8.8037-6.7489-15.845-16.84-17.945-26.484z"/>
   <path class="cls-14" d="m142.22 145.28c-6.4932-6.959-22.164-11.005-32.557-11.726l0.52968-0.91327c9.7809 0.5845 28.046 5.2238 34.11 13.324z"/>
   <path class="cls-14" d="m129 137.25c-6.6941 0.52054-11.315-0.10942-11.233-1.0868 0.0457-0.48402 1.032-1.0959 3.2877-1.306l1.3607 0.43836c-2.4932 0.11873-3.8174 0.67579-3.8174 0.84019 0 0.1643 3.7626 0.84931 8.9042 0.57536z"/>
   <path class="cls-14" d="m134.4 144.42c-0.91325 0.20986-3.5617-3.4064-6.4932-7.5708l1.2603 0.46576c2.411 3.6073 4.7306 6.3927 5.0228 6.3105 0.29225-0.0821 0.4201-1.8265 0.4201-4.0548l0.68493 0.45661c0 2.0365-0.34703 4.2649-0.91324 4.3927"/>
   <path class="cls-14" d="m132.85 159.66c-2.347-5.4795-0.51142-14.073 4.6941-15.315 5.032-1.1872 12.995 3.5342 14.749 11.434 1.379 6.2557-3.4247 13.105-6.6667 13.635-2.4018 0.38355-9.5982-2.3562-12.785-9.7535m4.9132-14.502c-4.4932 1.0685-6.1553 9.0137-3.9543 14.137 2.9863 6.9315 9.6073 9.6256 11.699 9.2512 2.7397-0.48399 7.1781-6.758 5.8996-12.557-1.5068-6.8219-8.7854-11.982-13.644-10.831"/>
   <path class="cls-14" d="m149.43 161.38c0.43836-3.927 0.0915-6.1005-1.1598-8.8037-0.46577-1.0229-0.13703-1.1964 0.4201-0.21918 1.5068 2.6576 1.8265 5.4064 1.2055 9.0777-0.20088 1.0959-0.59361 1.0593-0.46576-0.0549"/>
   <path class="cls-14" d="m141.65 172.87c3.653 4.0822 9.4338 13.945 14.411 23.68 0.74886 1.4794 0.32894 1.6712-0.47488 0.25577-5.4795-9.6348-11.388-19.881-14.977-23.626z"/>
   <path class="cls-14" d="m151.69 200.38c-8.895-8.8037-13.114-13.324-12.356-14.155 1.1507-1.2603 10.046 4.1735 15.187 8.0822l0.66669 1.3973c-6-4.6758-14.667-9.6256-15.16-9.0046-0.49317 0.62101 9.2329 10.046 12.274 13.05 5.4795 5.4156 7.1598 8.2192 8.1187 11.553l-0.86757 0.46573c-0.91327-3.3151-2.411-6-7.863-11.388"/>
   <path class="cls-14" d="m165.39 216.37c-6.5114 0.32894-7.4978-1.379-7.5617-2.5571-0.0639-1.1781 1.0502-2.3379 3.0046-2.7397 0.91327-0.19191 1.0229 0.17362 0.11874 0.44751-1.4155 0.42921-2.2831 1.4155-2.2375 2.2831 0.0639 1.032 1.4612 2.1279 6.6119 1.8722 4.8128-0.23747 6.3379-1.3881 6.3288-2.4201 0-1.2511-2.7397-2.5571-6.3928-2.6302-0.9863 0-0.9863-0.38355 0-0.46573 3.7717-0.21918 7.306 1.3151 7.306 3.0776 0 1.5891-1.8265 2.8767-7.1781 3.1416"/>
   <path class="cls-14" d="m165.09 210.44c-1.3881-1.3973-2.0913-3.7717-1.4429-5.3973 0.45661-1.1598 1.6438-1.7443 4.8584-0.91324a108.13 108.13 0 0 1 15.799 5.8356c0.24644 0.10942 0.31064 0.23747 0.24644 0.44751-0.35614 1.2694 2.7397 2.8402 7.8996 2.621 5.2786-0.22816 6.5206-1.726 6.5023-2.3288 0-1.3882-6.484-2.5388-11.132-1.3516a0.99544 0.99544 0 0 1-0.69405 0 99.06 99.06 0 0 1-22.658-11.872l-1.0594-1.8265a113.05 113.05 0 0 0 24.219 12.995c5.0411-1.1872 12.073-0.29236 12.192 2.0457 0.0639 1.0685-1.2055 2.7397-7.306 3.032-5.4795 0.24644-9.1324-1.4064-8.7215-3.1233a104.9 104.9 0 0 0-15.416-5.6073c-2.8584-0.77623-3.653-0.30132-3.927 0.36529-0.55706 1.5069 0.29235 3.7443 1.9635 5.0229z"/>
   <path class="cls-14" d="m150.19 164.68c-0.10044 3.0685 0.47488 5.2512 1.9635 8.9863 3.4247 8.6028 7.79 16.164 13.772 25.516 0.7032 1.0959 0.29235 1.3607-0.4201 0.31962-6.2557-9.0594-10.785-16.849-14.228-25.489-1.3333-3.3516-1.9452-5.2603-1.9635-8.0822z"/>
   <path class="cls-14" d="m169.59 211.1a25.379 25.379 0 0 1 14.493-0.0456l0.85842 0.99541a24.776 24.776 0 0 0-14.256-0.5388z"/>
   <path class="cls-14" d="m31.774 224.08a28.968 28.968 0 0 0-10.201 1.1872l1.6712-1.105a28.055 28.055 0 0 1 9.6713-0.70321z"/>
   <path class="cls-14" d="m80.943 136.54c1.6256 0.0549 3.4521 0.45662 3.4612 0.99542 0 0.91324-5.4795 2.0548-9.6804 2.7397l-0.72146-0.56621c4.5662-0.69405 9.5252-1.8813 9.5343-2.137 9e-3 -0.25577-1.6073-0.43836-3.4795-0.38355z"/>
   <path class="cls-14" d="m197.68 165.03a8.6028 8.6028 0 0 1 2.7397 3.653c0.72146 1.8265-0.29236 2.8585-2.3562 1.8265-2.0639-1.032-3.1964-1.3881-5.3151-2.347a13.48 13.48 0 0 0-5.105-1.0502 9.7991 9.7991 0 0 1-5.8265-2.0365c-1.9178-1.4429-3.8813-0.84019-4.4475-0.11873a4.7763 4.7763 0 0 1-3.1233 1.7626c-0.5662 0.11873-0.91323 0.52054-1.2694 1.2329-1.0594 2.1187-3.3699 3.516-5.0411 3.4795-1.8265 0-2.4566-1.9635-1.9544-4.411a10.183 10.183 0 0 0-0.33792-5.3973 6.5754 6.5754 0 0 1-0.37443-4.2922c0.45661-2.5571-0.30133-4.5206-3.0046-7.1051a12.256 12.256 0 0 1-3.1324-3.9909 8.2192 8.2192 0 0 0-2.7397-3.1781 6.7306 6.7306 0 0 1-2.1096-3.0685c-0.46576-1.3973 0-2.3196 1.4703-2.4475 1.8265-0.1643 4.3745 0.4201 5.5251 1.5251a6.2375 6.2375 0 0 0 3.9635 1.7808 6.2923 6.2923 0 0 1 3.7809 1.6712l0.15532 1.105a7.1416 7.1416 0 0 0-3.9635-2.0639 7.2238 7.2238 0 0 1-4.484-1.8813 7.306 7.306 0 0 0-4.9498-1.4703c-0.9863 0.0915-1.1781 0.74886-0.83105 1.5708a6.7672 6.7672 0 0 0 1.9726 2.6576 8.7946 8.7946 0 0 1 2.8676 3.4612 11.671 11.671 0 0 0 2.9772 3.8813c2.8037 2.6758 3.7991 4.9589 3.3151 7.6621a7.9635 7.9635 0 0 0 0.25576 3.9452 10.722 10.722 0 0 1 0.52969 5.6804c-0.45662 2.2557 0.11874 3.653 1.1598 3.653 1.2786 0 3.3699-1.3607 4.274-3.1872a2.6758 2.6758 0 0 1 1.8265-1.5342 4.6393 4.6393 0 0 0 2.8128-1.5799c0.76713-0.99545 3.2603-1.5799 5.3516 0a9.3882 9.3882 0 0 0 5.3881 1.9817 15.525 15.525 0 0 1 5.4064 1.0776c2.1644 0.91327 3.0137 1.2694 5.2146 2.3288 1.2877 0.62102 2 0.43836 1.4064-0.9589a9.9361 9.9361 0 0 0-3.4795-4.1736z"/>
   <path class="cls-14" d="m184.05 147.58a5.8265 5.8265 0 0 1-0.52055-4.2922c0.49317-1.6438 0.78539-2.7397 0.52969-3.4156-0.53883-1.4429-1.7078-1.452-2.3927-0.80365-1.105 1.0228-3.2512 3.2238-4.3836 3.2512l-0.74887-0.53883c1.3242 0.0639 3.2146-1.9361 4.685-3.3425 1.0411-0.99545 2.8128-0.64842 3.4978 1.1781 0.30133 0.82194 0.0915 2.0183-0.38358 3.7717a6.9955 6.9955 0 0 0 0.79453 5.0046z"/>
  </g>
  <g fill="#57c1e8">
   <path class="cls-6" d="m50.504 144.92a11.936 11.936 0 0 0-4.347-5.242 7.4156 7.4156 0 0 1-2.4292-2.3653 7.4247 7.4247 0 0 0-1.6804-2.3379 2.9407 2.9407 0 0 1-0.65754-3.1507c0.34704-0.91327 1.2877-1.2603 3.5343-1.0959 1.8265 0.13703 3.3973 1.2146 5.0868 1.8721a7.0137 7.0137 0 0 0 3.9087 0.60276 3.9818 3.9818 0 0 1 2.7397 0.31065c-1.9726 4.1188-3.5251 6.8494-6.1096 11.406"/>
   <path class="cls-6" d="m45.198 160.68a10.594 10.594 0 0 0-1.6073 4.8859c0 0.99545 0.91324 1.6073 2.3927 1.169 2.0913-0.63013 5.3334-2.1918 6.2192-3.5799 1.4977-2.3744 3.8265-3.9909 5.5708-4.1827a4.5662 4.5662 0 0 1 1.1872-1.1598c-0.91324-1.3516-0.71233-4.0913 1.2877-5.9635a11.644 11.644 0 0 0-6.3105 1.0046c0.79453 3.726-4.4932 7.1325-8.7398 7.8265"/>
   <path class="cls-6" d="m85.938 146.25a9.1325 9.1325 0 0 0 3.0502 1.9726 14.539 14.539 0 0 1 5.3425 4.5662c1.0137 1.4886 0.57534 2.8859-1.4064 3.516a23.817 23.817 0 0 1-5.9726 0.64839 17.014 17.014 0 0 1-6.8037-1.4247 5.9726 5.9726 0 0 0-3.653-0.38355c-1.5616 0.22816-3.0502 0.74887-5.1598 0.49314a4.3562 4.3562 0 0 0-2.2557-6.4658 11.343 11.343 0 0 1 4.8219-2.9954c-0.4201 1.7169 0.21918 3.9178 1.4521 4.7489 2.3288 1.5617 8.3471 1.5342 10.557-4.7032"/>
   <path class="cls-6" d="m65.034 132.6c0.82192-1.379 2.0183-1.7717 3.9635-2.4018a8.621 8.621 0 0 0 3.9726-3.4795c1.6164-2.347 5.4795-3.4703 6.548-2.3836 1.0685 1.0868 0.65754 3.5708-0.2557 5.7991a7.5708 7.5708 0 0 0-0.37443 4.758 7.9178 7.9178 0 0 1-0.12785 4.21 2.0548 2.0548 0 0 0 0.7854 2.4475 19.936 19.936 0 0 0-1.9087 0.85845c-2.6119-1.9726-9.2603-7.1507-12.603-9.8083"/>
  </g>
  <g fill="#4ba8ca">
   <path class="cls-13" d="m41.637 131.4a2.6758 2.6758 0 0 0 1.6164 2.548 2.8311 2.8311 0 0 1 1.5343 1.6347 3.0959 3.0959 0 0 0 1.4703 2.21 10.959 10.959 0 0 1 5.3516 5.3608l-0.91325 1.8265a13.397 13.397 0 0 0-4.9589-5.6896 4.4566 4.4566 0 0 1-2.0822-2.1735 3.4886 3.4886 0 0 0-1.3059-1.9178 2.7397 2.7397 0 0 1-0.66667-3.8082"/>
   <path class="cls-13" d="m43.746 164.02c0.17351 0.91324 1.4429 1.1872 2.9772 0.45662 1.0502-0.50228 3.1324-0.96804 3.8174-2.1735 1.5982-2.8402 4.0274-4.6302 7.9452-5.3516a2.8767 2.8767 0 0 0 0.53881 0.80368 8.0092 8.0092 0 0 0-1.2146 1.2785 8.6576 8.6576 0 0 0-5.3151 3.653 5.0776 5.0776 0 0 1-1.7534 1.7717 21.005 21.005 0 0 1-5.2146 2.411c-2.1005 0.36529-2.4566-1.1507-1.8265-2.8676"/>
   <path class="cls-13" d="m72.011 153.55a10.959 10.959 0 0 0 4.4566 0 6.3927 6.3927 0 0 1 4.2466 0.58446c2.4018 1.4064 7.6073 1.6256 11.151 0.9589 1.726-0.32859 2.5297-1.1781 2.0183-2.8219 1.589 1.6895 1.6073 3.3973-1.1507 4.1096a19.982 19.982 0 0 1-12.329-0.52965 6.6941 6.6941 0 0 0-4.1005-0.53884 16.575 16.575 0 0 1-4.895 0.3286 5.927 5.927 0 0 0 0.60274-2.0639"/>
   <path class="cls-13" d="m79.655 124.68a6.895 6.895 0 0 1-1.8265 4.8859 4.5662 4.5662 0 0 0-0.55708 4.4567 5.1872 5.1872 0 0 1 0.23743 3.4794 9.5526 9.5526 0 0 0-0.35616 4.5662l0.55708 0.32894a7.242 7.242 0 0 1 1.8265-0.77624 2.2831 2.2831 0 0 1-0.63927-2.7397 8.5662 8.5662 0 0 0 0-4.4475 7.379 7.379 0 0 1 0.69406-4.9589c0.7032-1.6073 1.1598-4.0731 0.0913-4.758"/>
  </g>
  <g fill="#0f141b">
   <path class="cls-14" d="m50.24 145.44c-0.58448-1.9909-1.6804-3.5891-4.2557-5.4338a7.7352 7.7352 0 0 1-2.6028-2.4658 5.5251 5.5251 0 0 0-1.6347-2.2557 3.1507 3.1507 0 0 1-0.7306-3.5708c0.2831-0.7032 0.97717-1.6073 3.9361-1.3882 1.8265 0.13703 3.3151 1.3516 5.1872 2.0457a6.3197 6.3197 0 0 0 3.6986 0.40184 3.8813 3.8813 0 0 1 2.968 0.45661l-0.27396 0.73058a2.9863 2.9863 0 0 0-2.484-0.31963c-0.91325 0.26475-2.2374 0.10045-4.1279-0.63927s-3.2512-1.7352-5.0046-1.8721c-2.5662-0.20088-3.0411 0.36529-3.242 0.86757a2.5023 2.5023 0 0 0 0.62101 2.7397 7.5343 7.5343 0 0 1 1.6986 2.4658c0.29225 0.64839 1.2694 1.2511 2.5023 2.1735 2.5662 1.9087 3.653 3.2694 4.2831 5.1507z"/>
   <path class="cls-14" d="m57.345 159.45a9.1325 9.1325 0 0 0-4.8037 3.9909c-0.91325 1.4794-4.4749 3.032-6.4749 3.653-1.6895 0.52058-2.8493-0.0456-2.8767-1.4429a10.448 10.448 0 0 1 1.5891-4.9772l1.032-0.13703c-1.306 2.3744-1.9452 4.0274-1.9178 5.0137 0 0.82191 0.63927 1.2694 2 0.84931 2.0091-0.61187 5.2329-2.274 6.0731-3.5982a9.1325 9.1325 0 0 1 6.0822-4.3288z"/>
   <path class="cls-14" d="m86.075 145.76a8.5206 8.5206 0 0 0 3.0959 2.0091 12.959 12.959 0 0 1 5.4795 4.895c1.1233 1.726 0.91324 3.4338-1.6164 4.0731a21.562 21.562 0 0 1-6.0822 0.7032 18.475 18.475 0 0 1-7.0685-1.4155 5.4064 5.4064 0 0 0-3.3881-0.35617 22.411 22.411 0 0 1-5.6165 0.43835l0.54794-0.91323a20.767 20.767 0 0 0 4.9955-0.4201 6.4566 6.4566 0 0 1 3.7991 0.41095 16.895 16.895 0 0 0 6.685 1.4703 20.283 20.283 0 0 0 5.8813-0.68494c1.726-0.54795 2.1553-1.5525 1.242-2.9315a11.607 11.607 0 0 0-5.2877-4.411 9.2147 9.2147 0 0 1-2.9589-1.8265z"/>
   <path class="cls-14" d="m64.66 132.39c0.91325-1.242 2.3379-1.9726 4.2375-2.5936 1.3151-0.42921 2.5388-1.6255 3.79-3.4429 1.5799-2.3105 5.8265-3.5891 7.1416-2.2831 1.3151 1.3059 0.77625 4-0.137 6.2283a7.2055 7.2055 0 0 0-0.38356 4.5662 7.8996 7.8996 0 0 1-0.0822 4.2557 1.7534 1.7534 0 0 0 0.91325 2.3379l-1.0046 0.31065a2.2466 2.2466 0 0 1-0.79453-2.7397 7.4612 7.4612 0 0 0 0.15526-4.0639 7.8174 7.8174 0 0 1 0.3653-4.9315c0.82192-2.0183 1.4247-4.4932 0.43835-5.4064-1.2055-1.105-4.7306 0.32894-6.0274 2.2192a9.0411 9.0411 0 0 1-4.2375 3.653c-1.8265 0.59361-2.968 1.1964-3.7534 2.3379z"/>
   <path class="cls-14" d="m71.326 155.72c8.9589 8.6759-1.1324 23.991-10.21 22.986-6.3927-0.71235-10.785-14.411-2.3288-21.26l0.46575 0.77624c-7.5434 6.0822-3.726 19.023 2 19.754 7.9726 1.0228 17.525-13.543 9.5252-21.553z"/>
  </g>
  <path class="cls-15" d="m140.26 81.609-49.087-14.183c-4.3197 5.4338-13.991 9.306-30.804 9.9452-6.2192 0.23747-10.667 0.79453-19.388 4.7945a34.274 34.274 0 0 0-18.84 24.585c-2.4201 13.571 1.0046 21.178 6.5845 21.443 3.2968 0.15532 5.4795-2.411 6.2283-12.292 1.4155-19.571 13.918-30.137 31.05-31.626a63.516 63.516 0 0 0 15.763-3.0046c-3.9909 18.265 18.192 30.941 38.512 29.726 22.521-1.3333 25.324-22.639 19.936-29.388" fill="#ef9aa4"/>
  <path class="cls-7" d="m100.97 56.093-6.1735 17.352c-7.4977 14.393 26.484 28.767 34.439 26.968 2.4475-0.54794 6.1096-4.8219 7.6804-9.6987 1.4612-0.91323 2.5571-3.2877 2.8493-5.9818 1.3242-3.2968 1.1142-8.7306 0.13703-8.9955a4.7123 4.7123 0 0 0-2.1279 0.45662c1.5342-7.9909 3.7169-16.438 5.2512-22.731a11.096 11.096 0 0 0-0.0821-5.0411c-1.7078-8.2192-5.6712-17.224-6.3928-17.178-0.72145 0.04556-0.52053 14.502-1.3972 24.009-4.2923 1.8904-9.7169 3.653-14.986 3.2603-3.8174-4.3105-10.046-11.087-11.352-10.639-0.97718 0.32894 1.032 6.5936 2.7397 10.484a31.964 31.964 0 0 1-10.493-2.2557" fill="#005a9e"/>
  <path class="cls-9" d="m108.19 75.308c4.7854 0 13.215 4.5662 13.343 5.5434 0.12785 0.97719-4.7854 5.5525-9.3699 7.306 1.2786-7.2238-0.44749-11.489-3.9726-12.84" fill="#e2eef4"/>
  <path class="cls-9" d="m131.42 79.299c2.5845-1.5617 5.6438-3.3242 8.4841-3.5708-0.57536 1.4247-0.91327 3.5434-1.5069 5.4795-0.96805 3.2603-1.927 6.1735-1.9087 7.306a47.973 47.973 0 0 0-4.7489-4.2375 37.562 37.562 0 0 0-0.31962-4.9863" fill="#e2eef4"/>
  <path class="cls-8" d="m103.23 81.098c-0.51141-10.393-1.5342-18.904-2.5662-27.845a3.2146 3.2146 0 0 0-1.3881-2.6028c-9.6804-8.0914-35.078-20.877-36.073-19.836-0.99544 1.0411 24.101 29.607 34.959 48.219a5.169 5.169 0 0 0-3.3973 3.2603c4.3836 9.0411 24.658 18.996 33.936 18.192a150.92 150.92 0 0 1-16.585-12.155c-2.1827-0.49314-5.2968-2.7397-8.4019-9.5708a22.265 22.265 0 0 0-0.48403 2.3379" fill="#fff9c5"/>
  <path class="cls-8" d="m136.48 89.71a71.233 71.233 0 0 1-6.7672 10.667c2.2831-0.91327 5.4795-4.5662 7.2055-9.6713-0.2102 0-0.42924-0.37443-0.43835-0.99545" fill="#fff9c5"/>
  <path class="cls-1" d="m103.75 78.952c-2.1005 5.2146 0.72147 14.018 3.2786 14.612 1.4886 0.33792 4-0.7945 5.1416-5.4156-1.8996 0-5.4795-2.7397-8.4201-9.1964" fill="#fff"/>
  <path class="cls-15" d="m105.05 81.564c-0.49316 3.653-0.11874 9.2055 1.2603 9.3334 0.80365 0.07317 1.8265-1.3607 1.8996-4.9407a24.594 24.594 0 0 1-3.1598-4.3927" fill="#ef9aa4"/>
  <path class="cls-1" d="m106.32 83.536c-0.40183 1.7717-0.2557 3.653 0.15525 3.653 0.41097 0 0.80366-1.105 0.84932-2.3105z" fill="#fff"/>
  <path class="cls-6" d="m100.96 56.258a41.58 41.58 0 0 0 11.671 2.3014 30.849 30.849 0 0 1 2.9224 6.3927c-4.5662 0-8.6667 0.27406-13.315 2.0183-0.33788-3.9452-0.77626-7.8174-1.2785-10.758" fill="#57c1e8"/>
  <path class="cls-6" d="m119.91 58.513c4.6667 0 11.616-0.91327 17.114-4.3745-0.68494 4.8768-1.0137 11.142-1.2512 15.343a42.402 42.402 0 0 0-9.8357-3.4155c-1.7534-2.411-3.9361-5.169-6.0274-7.5525" fill="#57c1e8"/>
  <path class="cls-7" d="m77.5 142.38c-5.0502-3.726-9.4795-7.3059-13.635-10.648a2.5845 2.5845 0 0 1-0.7854-2.1735c0-3.1872 1.0594-7.5708 2.1644-10.959 1.4247-4.3014 1.2511-8.6758-0.68494-11.808 6.4566 0.11874 15.927-2.21 23.744-6.3197-3.79-2.9498-6.621-8.9863-6.7489-12.785-5.4247 0.46573-13.918 3.8722-19.964 9.3151-2.4932 2.2375-5.4795 3.927-7.0959 5.379-4.6667 1.379-5.8813 7.3608-4.5662 10.046 0.23744 5.8904 4.4475 11.333 6.9041 17.142a3.653 3.653 0 0 1 0.14611 3.1781c-1.8265 3.863-6.2101 11.954-10.046 18.484-4.8859 0.91327-7.5799 4.7215-5.653 7.9087 1.0959 1.8265 4.0183 2.2375 8.3014 0 4.8585-2.5754 5.3425-6.7215 2.7397-7.9818 1.2329-5.4795 5.1507-13.123 5.8448-13.096 1.6804 0.0732 1.8265 8.3014 2.6393 13.269-2.0183 1.6621-2.7397 3.8722-2.137 5.7443 0.78539 2.3105 4.5662 3.2146 8.5662 1.7078 4.2557-1.5891 5.4064-4.8859 4.6119-7.0594-0.65754-1.7717-2.7397-2.7946-5.3151-2.8493-1.6347-2.8219-3.032-11.699-2.4658-11.936 0.56621-0.23748 6.4475 4.7763 10.091 8.4475-0.51142 1.8265-0.27395 4.1279 0.91325 5.2694 1.8813 1.8265 5.4795 1.6895 8.4658-0.7306 2.4932-2.0274 3.2877-5.0868 2.0091-6.9407-1.2785-1.8539-4.6302-2.3105-7.9635-0.62102" fill="#005a9e"/>
  <path class="cls-9" d="m54.103 102.62c-3.4795 1.2329-5.4795 4.8676-4.2101 10.046 1.8904 5.9909 5.032 8.4932 7.7991 8.064 3.589-0.56621 5.5982-5.1507 5.306-10.228-0.32877-5.7352-4.5662-9.7626-8.895-7.863" fill="#e2eef4"/>
  <path class="cls-8" d="m60.285 151.79a13.333 13.333 0 0 0-6.3927 1.0776 3.3242 3.3242 0 0 0-1.589-1.6986c1.1964-4.621 4.6576-13.032 5.9909-13.078 1.3333-0.0456 1.8722 10.338 2.4932 13.251z" fill="#fff9c5"/>
  <path class="cls-8" d="m69.18 149.21a15.525 15.525 0 0 0-2.7397-0.31962c-1.2877-2.5023-3.2877-11.489-2.4658-11.936 0.82192-0.4475 7.306 5.4795 10.091 8.4475l-0.18266 0.77628a9.1325 9.1325 0 0 0-4.7397 3.032" fill="#fff9c5"/>
  <path class="cls-1" d="m136.49 88.523c-0.12771 1.0046 0 2.1005 0.52969 2.1005s2.895-3.3608 2.8585-6.2101c-0.91327 2.2375-2.484 4.5206-3.3882 4.1096" fill="#fff"/>
  <path class="cls-10" d="m106.18 83.189c1.4247 1.1872 5.032 0.56621 6.3927-0.84934a14.238 14.238 0 0 1-0.45662 5.7626c-0.99544 0.19191-3.5525-0.97719-5.927-4.9133" fill="#004984"/>
  <path class="cls-12" d="m112.56 82.34a27.324 27.324 0 0 0 8.895-1.4703c0.137 0.91324-4.0731 5.3607-9.3516 7.2329a13.598 13.598 0 0 0 0.45663-5.7626" fill="#c0cad0"/>
  <path class="cls-12" d="m131.6 81.326a38.776 38.776 0 0 1 6.3927 1.2146 28.776 28.776 0 0 0-1.4795 5.9818 32.813 32.813 0 0 0-4.8219-4.3288c0-1.2146 0-2.1735-0.0639-2.8676" fill="#c0cad0"/>
  <path class="cls-10" d="m137.99 82.541c0.83105 0.26474 2.1918-0.19191 2.9132-2.3379-0.30133 4.2648-3.3334 8.895-4.3745 8.3014 0.15533-1.105 0.98631-4.411 1.4612-5.9635" fill="#004984"/>
  <g fill="#dbd7ab">
   <path class="cls-11" d="m129.58 100.39c1.6986-0.68494 4.6576-3.5617 6.5662-7.6073a14.42 14.42 0 0 1-4.0731 4.3197 22 22 0 0 1-2.4932 3.2877"/>
   <path class="cls-11" d="m107.34 93.792c7.9452 4.5662 17.16 7.306 21.534 6.7671a33.973 33.973 0 0 1-3.0594-1.8995c-4.484-0.33792-10.448-2.3745-16.438-5.4795a7.7078 7.7078 0 0 1-2.0091 0.64839"/>
   <path class="cls-11" d="m105.87 92.997c-4.5662-3.3516-9.4795-7.1324-11.132-10.959a6.0183 6.0183 0 0 1 3.3151-3.2055 227.2 227.2 0 0 0-15.699-22.475c-8.822-11.269-19.863-24.84-19.096-25.671a347.26 347.26 0 0 1 33.635 20.877 3.5891 3.5891 0 0 1 1.5251 2.5845 198.64 198.64 0 0 1 2.5297 24.027c0.0822 1.4521-0.14611 1.8265-1.0411 2.3105-2.1918 1.1507-2.6758 4.4567 4.5662 9.9179a11.297 11.297 0 0 0 1.3699 2.5936"/>
  </g>
  <path class="cls-10" d="m132.08 97.107a8.2192 8.2192 0 0 1-3.3516 1.5251 15.306 15.306 0 0 1-2.9133 0 17.772 17.772 0 0 0 3.242 1.8265 9.7443 9.7443 0 0 0 3.0228-3.4155" fill="#004984"/>
  <path class="cls-10" d="m136.43 31.317a122.68 122.68 0 0 1 4.7124 16.776 9.0137 9.0137 0 0 1 0 5.0046c-1.4886 5.5434-2.4292 9.379-3.653 15.598-0.31962 1.5434-0.91327 1.7443-1.8813 1.2968 0.33792-2.1918 0.68494-12.238 1.4612-15.808-0.76713 0.45662-1.3151 0.79453-2.0183 1.1416 0.78538-7.3973 0.32876-22.274 1.4064-24.009" fill="#004984"/>
  <path class="cls-13" d="m133.8 55.883c-0.51142 4.2648-0.65754 7.0777-0.86759 12.356 0.79453 0.34703 1.7169 0.79453 2.7397 1.3699 0.29225-3.8996 0.77626-11.224 1.3516-15.425a24.402 24.402 0 0 1-3.242 1.6987" fill="#4ba8ca"/>
  <path class="cls-10" d="m108.68 47.974c7.9087 7.0229 18.822 22.612 20.283 27.827 1.105 3.9178 1.927 14.731 1.5069 21.854a13.598 13.598 0 0 1-0.91325 2.7397l-0.71233 0.1643c0.55708-10.712-5.5891-26.064-14.612-35.617h1.242a35.726 35.726 0 0 0-2.8493-6.4932l-1.1324-0.146c-1.4977-3.379-3.3151-9.2786-2.8585-10.365" fill="#004984"/>
  <path class="cls-13" d="m109.86 58.239a21.699 21.699 0 0 1 2.6849 6.7854c0.7306 0 2.0822-0.08215 2.9772-0.04556a32.256 32.256 0 0 0-2.8402-6.4932c-1.1416-0.146-1.9817-0.13703-2.8219-0.24645" fill="#4ba8ca"/>
  <path class="cls-16" d="m113.78 110.86c-16.886-1.4247-35.872-12.667-31.854-29.671 5.5799-1.4521 10.146-6.1918 11.872-9.4338l1.1781 1.7352c-0.66667 1.0137-0.91324 2.5206-1.2785 4.7032-8.6576 22.977 37.836 41.197 49.041 12.785-1.4247 13.571-11.306 21.416-28.95 19.927" fill="#cf858f"/>
  <g fill="#004984">
   <path class="cls-10" d="m88.231 100.39a27.397 27.397 0 0 1-5.3425-7.3973c-3.653 5.0046-12.511 9.6165-19.553 10.566-1.3881 0.19191-1.4795 0.38355-0.52056 1.8265 2.347 3.5617 1.8265 7.6987-0.10959 14.402-1.8813 6.5388-1.3333 10.63 1.1233 12.274-0.77626-0.91324-0.82192-1.9544-0.67581-3.653a47.397 47.397 0 0 1 1.7352-8.6119c1.7078-5.0959 1.8265-9.6074-0.32877-12.977 7.7169 0.52054 18.073-3.2146 23.671-6.4475"/>
   <path class="cls-10" d="m40.97 155.73c-0.2557 2.7397 2.9133 4.3288 7.306 2.0548 4.1644-2.1552 4.8402-4.6667 3.4247-5.4795-0.72146-0.41095-0.82192-0.59361-0.56621-1.4429 2.6119-8.4475 5.7443-14.11 7.2329-14.027 1.8904 0.0915 2.8311 6.9681 3.5069 13.964a2.0274 2.0274 0 0 1-0.78539 1.8265c-1.9361 2.0456-1.2055 5.3881 3.8356 4.6849 2.9224-0.40184 6.7306-2.2375 6.9589-4.8585 0.45662 2.484-1.726 5.9818-6.3927 6.8219-7.306 1.306-9.1324-3.9361-4.8128-7.927-0.46576-4.5662-1.2786-13.379-2.4384-13.306-1.1598 0.0732-4.9407 8.475-5.9087 13.032 2.8767 1.2055 2.3105 5.5982-3.2694 8.2831-5.5799 2.6849-9.0503 1.2694-8.064-3.653"/>
   <path class="cls-10" d="m63.838 136.62c1.0228-1.0868 6.0548 2.7397 11.041 7.2146a1.4247 1.4247 0 0 1 0.52968 1.4886c-0.66667 2.895 0.47489 4.8402 3.7352 4.6758 3.0776-0.146 6.137-2.5114 6.8311-5.1964a7.169 7.169 0 0 1-6.9315 6.959c-4.0092 0.11874-5.6621-1.8265-4.9772-6.4384-2.1918-2.3105-8.2192-7.79-10.228-8.7032"/>
  </g>
  <path class="cls-12" d="m49.637 110.54c3.7626 7.5708 11.562 7.0137 13.041-1.7534 1.2329 5.3516-0.84019 11.096-4.7489 11.817s-7.5617-4.1005-8.2923-10.046" fill="#c0cad0"/>
  <path class="cls-16" d="m21.481 118.86c2.0183 8.7946 9.6165 5.7717 10.594-4 2.3014-22.941 15.525-31.26 30.466-32.959 17.005-1.8995 24.849-4.1553 29.79-12.064l1.3516 1.8265c-4.7306 8.3927-14.137 11.507-26.311 12.466-19.607 1.5343-30.539 12.192-32.292 30.977-0.59361 6.3288-1.169 12.785-5.5799 13.132-4.411 0.34703-7.1781-3.2694-8.0183-9.379" fill="#cf858f"/>
  <path class="cls-10" d="m94.797 73.436a9.6895 9.6895 0 0 0-0.0822 8.7306 5.2877 5.2877 0 0 1 3.3881-3.1415c-0.85845-1.516-2.1644-3.7717-3.306-5.5891" fill="#004984"/>
  <path class="cls-17" d="m26.139 110.39c-0.80366 0-2.0822 0.96805-2.1187 3.8448-0.03652 2.8767 0.97717 4.2375 1.8813 4.2648 0.90411 0.0276 1.8265-0.97716 2.0091-4.0365 0.137-2.8402-0.83106-4.0731-1.7717-4.0731" fill="#f7cfd2"/>
  <g fill="#0f141b">
   <path class="cls-14" d="m125.87 95.171c-0.14611 0.10044 0.0822 0.52969 0.26484 0.96805 0.18266 0.43836 0.42923 0.45662 0.57535 0.39269 0.14611-0.06386 0.15526-0.49317-0.10044-0.8402-0.2557-0.34703-0.62101-0.60273-0.73973-0.52054"/>
   <path class="cls-14" d="m132.07 95.189c0.0913 0.04556 0 0.41095-0.10044 0.71235-0.10045 0.30133-0.23744 0.36529-0.3653 0.33792-0.12785-0.02761-0.16437-0.34703 0-0.63013 0.16437-0.28304 0.37443-0.45662 0.47489-0.4201"/>
   <path class="cls-14" d="m106.83 93.828c-3.5982-1.6804-5.0776-9.6895-3.7808-14.292 0.91324-3.2603 2.9132-4.411 4.5114-4.484 4.6667-0.22815 6.6576 7.5982 4.8128 13.863-1.1872 4.0183-3.9087 5.6713-5.5434 4.9133m-3.0046-13.945c-1.3242 4.6758 0.52968 12 3.3242 13.306 1.4247 0.65754 3.4429-1.2237 4.4201-4.5662 1.5616-5.306 0-13.059-3.9635-12.785-1.6164 0.09147-3.032 1.379-3.7808 4.0548"/>
   <path class="cls-14" d="m107.56 75.052c5.3334-0.34703 14.311 4.411 14.402 5.7717 0.10959 1.589-5.4795 5.8448-10.046 8l0.26484-0.84934c3.8265-1.9909 8.9042-6 8.8494-7.0411 0-0.77627-6.484-4.4475-11.744-5.1416z"/>
   <path class="cls-14" d="m112.08 88.468c-2.5023 0.73972-7.0229-5.1233-8.4384-9.0594l0.35616-0.91324c1.5069 4.2648 6.2101 9.9452 8.3014 9.1324z"/>
   <path class="cls-14" d="m108.47 86.203c-0.1644 3.7626-1.3607 5.0594-2.2009 4.9863-1.4247-0.10942-2.1553-4.5662-1.4703-10.046l0.48402 0.81279c-0.47489 4.5662 0.30136 8.5388 1.0137 8.6119 0.71233 0.07317 1.5342-1.3516 1.6621-5.0411z"/>
   <path class="cls-14" d="m136.56 90.294c-1.8996 3.726-6.2101 10.347-7.2238 10.475-1.8265 0.22815-13.26-8.6211-17.352-12.009l0.24659-0.78542c4.2283 3.7078 15.708 12.365 16.977 12.174 0.69407-0.10044 4.9589-6.484 7.1598-10.959z"/>
   <path class="cls-14" d="m139.75 75.993a21.662 21.662 0 0 0-8.2192 3.8539l-0.10959-0.91324a22.585 22.585 0 0 1 8.5114-3.653z"/>
   <path class="cls-14" d="m102.17 66.477a31.187 31.187 0 0 1 12.868-1.8265 28.256 28.256 0 0 0-2.6119-5.653 45.032 45.032 0 0 1-11.416-2.1826l-0.0822-1.0594a38.42 38.42 0 0 0 11.498 2.274 0.52968 0.52968 0 0 1 0.52055 0.3286 38.219 38.219 0 0 1 2.9133 6.4749c0.19177 0.52969 0 0.64842-0.45663 0.64842-5.5799-0.2102-9.9361 0.62098-13.206 2.0548z"/>
   <path class="cls-14" d="m95.116 73.993a9.2238 9.2238 0 0 0 0.74886 9.2786c8.4384 11.817 27.242 17.808 33.379 16.877 2.0365-0.31065 6.2101-5.7535 7.3699-9.6713h0.78539c-1.1507 4.064-5.1325 9.7444-8.064 10.247-6.2557 1.0685-25.37-4.8219-34.238-16.986a10.256 10.256 0 0 1-0.67581-10.594z"/>
   <path class="cls-14" d="m125.32 65.481a36.274 36.274 0 0 1 10.046 3.4886c0.22832-4.4658 0.65754-9.9452 1.1233-14.009-3.9726 2.4932-10.484 4.0365-16.018 4.0365l-0.84932-0.91323c6.064 0.15532 12.511-1.4521 16.84-4.0913 0.74883-0.45662 0.96801-0.33792 0.84931 0.56621-0.59362 4.6302-0.91324 10.046-1.1781 14.813 0 0.76713-0.21918 0.81279-0.91326 0.47488a33.279 33.279 0 0 0-8.9863-3.2237z"/>
   <path class="cls-14" d="m137.37 76.349c1.3882-7.5252 3.5343-16.703 5.1872-22.986a9.9087 9.9087 0 0 0 0-4.8859c-1.6895-8.2192-5.5434-16.858-5.9452-16.795-0.63929 0.09147-0.26474 17.68-1.0411 23.315l-1.032 0.58447c1.105-7.0046 0.26484-24.594 1.9361-24.868 1.1142-0.19191 5.3881 10.046 6.9498 17.617a11.187 11.187 0 0 1 0.0456 5.1872c-1.4247 5.7626-3.8904 15.525-5.2329 22.475z"/>
   <path class="cls-14" d="m129.15 100.48c2.3653-4.3471 2.5297-19.178 1.3881-24.941-1.3242-6.7489-19.863-28-21.461-27.151-0.62101 0.31962 0.99544 5.7169 3.0502 10.164l-0.99544-0.12771c-1.9452-4.201-3.653-10.274-2.5662-10.868 2.5936-1.443 21.717 21.251 22.831 27.772 1.1142 6.5206 1.105 18.822-1.3607 24.575z"/>
   <path class="cls-14" d="m128.61 100.21c0-12.785-7.5708-27.808-14.941-35.233h1.0959c7.306 7.3059 14.84 21.982 14.411 35.48z"/>
   <path class="cls-14" d="m94.486 81.911a4.1735 4.1735 0 0 1 3.0046-3.1142c-10.42-18.091-35.909-46.219-34.585-48.247 1.1142-1.6895 26.804 11.543 36.667 19.754a3.5708 3.5708 0 0 1 1.5251 2.9407c1.1233 9.443 1.9726 17.059 2.3927 26.639l-0.51142 3.0411c-0.73973-12.831-1.7534-20.612-2.7397-29.562a2.6484 2.6484 0 0 0-1.1598-2.2649c-9.9635-8.5389-34.813-20.95-35.516-20.027-0.7032 0.92238 24.603 29.47 34.886 47.489 0.2831 0.50228 0.21918 0.73972-0.37443 0.91323a4.1827 4.1827 0 0 0-3.0046 3.3608z"/>
   <path class="cls-14" d="m82.377 81.052c-4.0639 18.091 17.717 30.694 37.936 29.516 21.918-1.2786 24.594-21.196 20.037-28.046l0.17361-1.3699c6.1644 7.4978 3.0046 28.886-20.164 30.274-20.575 1.242-43.06-11.607-39.023-29.954z"/>
   <path class="cls-14" d="m112.69 110.87c-21.416-8.3197-27.096-20.42-20.356-33.991 0.54795-1.0868 0.91325-0.91327 0.42923 0.20088-5.7169 13.269-1.2968 25.069 22.712 33.945z"/>
   <path class="cls-14" d="m93.865 72.276c-3.8539 7.1781-12.402 11.105-27.69 12.411-18.804 1.6073-29.452 13.224-30.758 31.27-0.6484 8.9863-2.274 12.932-6.6576 12.731-6.7398-0.31962-9.3516-9.0777-7.032-22.018 2.8859-16.128 17.543-28.913 38.731-29.708 15.069-0.57535 25.352-3.8448 30.137-9.4978l0.53882 0.71235q-7.242 8.7123-30.685 9.6347c-18.037 0.7032-34.813 11.489-37.945 28.977-2.2466 12.566 0.57534 20.74 6.3014 21.005 2.9406 0.14601 5.0685-2.1461 5.7808-11.872 1.4338-19.845 13.607-30.575 31.461-32.082 15.269-1.2877 23.397-5.032 27.306-12.466z"/>
   <path class="cls-14" d="m53.354 102.94c1.8813-2.21 4.7945-3.516 7.8082-6.2831 6.2649-5.7534 14.256-8.8676 20.155-9.4064l0.21007 0.91327c-5.2146 0.48402-13.635 3.653-19.653 9.1324-2.8402 2.5936-5.4795 3.927-6.6302 5.0503z"/>
   <path class="cls-14" d="m64.313 106.42c6.6941 0.15532 16.146-2.4019 23.598-6.3014l0.68494 0.75802c-7.7717 4.2374-17.069 6.484-23.744 6.3927z"/>
   <path class="cls-14" d="m58.112 137.72c1.9909-0.17361 2.1553 8.3379 2.9863 13.279 0.0548 0.36529 0 0.52969-0.21918 0.73061-2.0731 1.7078-2.3288 3.8173-1.8265 5.1872 0.63014 1.8265 4.2009 2.9406 8.0822 1.4886 3.653-1.379 5.0594-4.3288 4.2557-6.5206-0.60274-1.6347-2.0548-2.5571-4.6484-2.6118a0.62101 0.62101 0 0 1-0.66667-0.37444c-1.5616-2.8767-3.2968-11.79-2.1827-12.265 0.91325-0.39269 6.7398 4.6393 10.393 8.3288a0.54795 0.54795 0 0 1 0.15526 0.63928c-0.34704 1.653-0.21918 3.653 0.91324 4.7672 1.4795 1.452 5.0411 1.7169 7.9361-0.63928 2.6028-2.1188 2.7397-5.105 1.8265-6.484-1.2968-1.9178-4.1461-2.1918-7.306-0.62102a0.53882 0.53882 0 0 1-0.7032 0c-4.9315-3.726-8.822-6.8128-13.425-10.566a2.7397 2.7397 0 0 1-0.91325-2.484 38.996 38.996 0 0 1 2.0822-11.05c1.6347-5.1142 1.0685-9.7078-1.4521-12.84-0.6758-0.83105-0.42009-1.0685 0.34704-0.3103 3.1142 3.0776 3.653 8.1644 1.9452 13.425a43.635 43.635 0 0 0-2.3105 10.785 2.0457 2.0457 0 0 0 0.76713 1.927c4.895 4.0731 8.5936 6.822 13.553 10.475 3.306-1.7717 6.6941-1.3059 8.1096 0.91327 1.2877 1.9726 0.62101 5.2329-2.1005 7.452-3.3242 2.7397-7.4247 2.1918-8.9772 0.67583-1.2603-1.2238-1.589-3.7078-1.0502-5.4795-3.726-3.7991-9.0777-8.411-9.4795-8.2192-0.40183 0.19191 1.0046 8.4384 2.5754 11.306 2.9589-0.0639 4.758 1.1963 5.4155 2.9954 0.79452 2.1553 0.17352 5.653-4.8493 7.5343-4.7032 1.7534-8.3836 0.30132-9.1325-1.8265a5.4064 5.4064 0 0 1 2.0639-5.9452c-0.72146-5.4795-1.1598-12.95-2.1096-12.858-0.72147 0.0732-4.064 6.9589-5.4795 12.594 2.6849 1.3882 2.5114 5.2146-2.968 8.4201-4.4018 2.5845-7.7717 1.7534-8.8494 0-1.7534-2.9224-0.09133-7.4704 5.5982-8.3562 3.863-6.5206 8.411-14.612 10.174-18.42 0.52054-1.1142 0.37443-1.653-0.12785-2.9316-1.8265-4.758-8.0548-12.219-6.9041-18.119l0.85845 2.6028c0.64841 4.8219 4.9407 10.694 6.6484 15.251 0.53881 1.4338 0.75799 2.2558 0.16437 3.5343-1.7808 3.8356-6.0822 11.781-9.9635 18.329a0.65754 0.65754 0 0 1-0.53881 0.36529c-5.2786 0.98631-6.5571 4.9133-5.1416 7.306 0.80366 1.3698 3.3151 2.2009 7.7626-0.15533 4.9407-2.6119 4.9955-6.2374 2.7397-7.2603-0.27395-0.12771-0.3653-0.22815-0.27395-0.66665 1.1507-5.0868 4.8493-13.078 6.1827-13.187"/>
   <path class="cls-14" d="m49.454 112.79c-1.7626-7.0228 2.548-10.776 6.6028-10.959 4.347-0.24645 7.0777 3.5799 7.3699 8.6393 0.38356 6.8311-2.8859 10.21-5.6987 10.621-2.8128 0.41095-6.2192-1.7534-8.274-8.2192m6.5662-10.283c-2.8767 0.1643-7.379 3.2329-5.6804 10.046 1.9452 6.1553 5.1142 8.1096 7.306 7.7626 2.968-0.46576 5.1964-4.4749 4.895-9.8265-0.30136-5.3516-3.306-8.1462-6.5571-7.9635"/>
   <path class="cls-14" d="m50.879 109.76a8.8128 8.8128 0 0 1 1.3151-3.8448c0.44749-0.68494 0.758-0.52969 0.41096 0.20986a17.489 17.489 0 0 0-1.2694 3.7169c-0.21003 1.0137-0.53881 0.9589-0.45662-0.0821"/>
   <path class="cls-14" d="m59.966 152.08a13.47 13.47 0 0 0-6.1279 1.1324l-0.22833-0.66669a12.712 12.712 0 0 1 6.895-1.0685z"/>
   <path class="cls-14" d="m73.884 146.53a13.215 13.215 0 0 0-4.5662 2.8584l-0.80365-0.22816a14.219 14.219 0 0 1 5.4795-3.4338z"/>
   <path class="cls-14" d="m136.34 89.034a27.397 27.397 0 0 0-4.685-4.3562l-0.0548-1.0229a29.05 29.05 0 0 1 4.9133 4.5662z"/>
   <path class="cls-14" d="m139.88 75.317c-0.52965 0-1.0685 2.9315-2.0091 6.4475-0.69405 2.5753-1.7626 5.6621-1.7169 6.8219-0.16437 1.516 0.0915 2.484 0.5845 2.5662 1.4338 0.22815 3.4338-4.895 4.0639-8.6484 0.65754-3.8996 0.0732-7.1598-0.91323-7.1872m-2.9407 14.895c-0.15532-0.04556-0.22815-0.38355-0.19191-1.1689 0.58447-0.146 1.7078-1.4338 2.5388-2.8311-0.5388 2.0548-2.1187 4.0639-2.347 4m3.105-7.927c-0.55706 3.1142-2.9224 6.1005-3.2146 5.9178-0.29236-0.18259 0.99545-3.1507 1.8265-6.1918 0.91323-3.5251 1.1507-5.6804 1.3425-5.6712 0.19191 0.01035 0.68491 2.4932 0.0732 5.9452"/>
  </g>
 </g>
</svg>
