<?xml version="1.0" encoding="UTF-8"?>
<!-- Created with Inkscape (http://www.inkscape.org/) -->
<svg version="1.1" viewBox="0 0 151.63 218.79" xmlns="http://www.w3.org/2000/svg">
 <g transform="translate(-23.591 -44.126)">
  <path d="m84.1 83.917c11.508-8.4215 29.336-8.7422 41.397-0.13758-3.5e-4 0.0035 3.5e-4 0.0039 0 0.0053 0.85372-4.2383 2.1047-9.3317 3.4015-13.993-10.05 4.3769-36.4 5.1611-48.122 0.16792 1.3173 4.6514 2.5277 9.5874 3.3235 13.97 0-0.0046 3.53e-4 -0.0088-3.53e-4 -0.01341" fill="#57c1e8"/>
  <path d="m130.49 86.113c10.871 7.6708 10.161 24.996 0.43815 31.652-1.6792-4e-3 -4.1374 0.66287-5.7425 1.7911-2.5435 0.49494-5.0722 1.4926-8.0804 3.1584-12.759 7.0661-31.717 4.9029-41.377-8.5799-4.6369-6.4728-4.9272-19.254 4.2016-26.606z" fill="#ef9aa4"/>
  <path d="m124.78 87.75c0.89429-5.7859 3.2096-15.115 5.3333-22.141 0.47272-1.5639 0.75353-2.0613 1.8355-3.2466 4.8249-5.2843 13.587-12.561 19.906-17.152 1.602-1.1638 2.0027-0.96802 1.1582 0.77329-6.4565 13.313-16.373 30.241-24.049 42.879 2.2345 2.4874 1.7794 9.2551-2.1265 14.492-3.7352 5.0087-10.812 9.1211-20.04 12.834-1.331 0.53587-2.377 0.59831-3.568 0.14429-9.8397-3.7493-16.391-7.5763-20.075-12.221-4.1755-5.2642-4.7219-11.536-2.5954-15.502-8.4797-13.188-15.652-26.149-24.153-42.772-0.73025-1.4273-0.47025-1.8359 1.0428-0.75283 5.9715 4.2736 13.313 10.528 19.866 16.956 1.1797 1.1568 1.6143 1.7607 2.0211 3.0635 2.2761 7.2933 4.5724 16.271 5.4028 22.892l5.0796 12.815c4.6591 5.9566 13.49 11.082 14.943 11.043 1.9805-0.0536 11.053-5.667 14.998-11.24z" fill="#fff9c5"/>
  <path d="m89.379 97.362c1.0439 5.7817 0.42333 9.9617-1.4598 10.301-1.4612 0.26388-4.124-2.7806-5.2709-9.1387-1.1451-6.3489 0.39405-10.138 1.5946-10.383 1.4598-0.29774 4.082 3.3796 5.1361 9.2198" fill="#fff"/>
  <path d="m120.2 97.191c-1.0901 6.3232-0.0963 9.9751 1.694 10.283 1.5145 0.26105 3.9148-2.5823 5.0454-9.1479 1.0686-6.2029-0.18944-10.083-1.5494-10.329-1.488-0.26846-4.1885 3.3828-5.1901 9.193" fill="#fff"/>
  <path d="m88.846 98.647c0.24589 2.8367-0.32632 5.2031-1.2781 5.2853-0.9518 0.0829-1.923-2.1498-2.1689-4.9862-0.10019-1.1532-0.06491-2.2285 0.07585-3.1044" fill="#ef9aa4"/>
  <path d="m121 98.47c-0.54045 2.83 4e-3 5.2783 0.95533 5.3534 0.85795 0.0677 1.8447-1.3861 2.1294-5.0031 0.091-1.1539 0.0476-2.2288-0.10054-3.1037" fill="#ef9aa4"/>
  <path d="m84.737 87.997 5.0796 12.815c4.6591 5.9566 13.49 11.082 14.943 11.043 1.9805-0.0536 11.053-5.667 14.998-11.239l5.0204-12.865c0.18379-1.1889 0.43038-2.5329 0.72001-3.9709-12.061-8.6042-29.89-8.2839-41.397 0.13794 0.26 1.428 0.4766 2.7989 0.63712 4.0799" fill="#005a9e"/>
  <path d="m88.019 100.05c0.0194 0.97543-0.20673 1.771-0.50553 1.777-0.2981 6e-3 -0.55598-0.78-0.57538-1.7554-0.01976-0.97543 0.20638-1.7709 0.50482-1.7769 0.2988-6e-3 0.55633 0.77999 0.57609 1.7554" fill="#fff"/>
  <path d="m89.736 99.873c-0.0829-0.79657-0.19826-1.6323-0.35736-2.5107-1.0541-5.8402-3.6763-9.5176-5.1357-9.2198-0.55069 0.11183-1.1698 0.9779-1.5713 2.4864 0.36336 3.7751 4.3808 8.7679 7.0644 9.2442" fill="#005a9e"/>
  <path d="m121.61 99.731c-0.0773 0.97261 0.1016 1.7801 0.39935 1.8037 0.29739 0.0236 0.60148-0.74542 0.67839-1.718 0.0769-0.97261-0.10125-1.7801-0.39899-1.8038-0.29775-0.02364-0.60149 0.74542-0.67875 1.718" fill="#fff"/>
  <path d="m119.85 99.895c2.6889-0.40746 6.7769-5.7609 7.0693-9.6435-0.37006-1.3593-0.93804-2.1477-1.5261-2.2539-1.488-0.26846-4.1885 3.3828-5.1901 9.193-0.16722 0.96767-0.2794 1.8644-0.35313 2.7044" fill="#005a9e"/>
  <path d="m98.753 92.005c-0.47484-1.6626-13.597-6.3454-15.139-3.4308l0.0035 0.0035c0.20884-0.242 0.42263-0.3944 0.62689-0.43603 1.4598-0.29739 4.0816 3.3796 5.1361 9.2202 0.18309 1.0139 0.31221 1.9748 0.39476 2.878 4.7967-1.8673 9.313-7.0675 8.9796-8.2349" fill="#e2eef4"/>
  <path d="m120.2 97.191c1.0015-5.8102 3.702-9.4615 5.1901-9.193 0.0797 0.01446 0.15946 0.04374 0.23848 0.08326-3.1986-1.8207-14.765 2.6007-14.919 3.9014-0.14252 1.1984 4.1596 6.5165 9.113 8.1979 0.0709-0.91899 0.19192-1.9121 0.37748-2.9894" fill="#e2eef4"/>
  <path d="m104.09 62.575c-1.379 8.0543-2.8127 21.154-2.6871 27.014 0.13406 6.248 2.0465 17.59 3.3577 22.265 1.3592-5.4684 3.1044-16.273 3.2928-22.123 0.1905-5.9083-0.89182-18.163-2.6176-27.05-0.48119-2.479-0.94227-2.4624-1.3458-0.10583" fill="#005a9e"/>
  <path d="m72.739 106.05c-2.6053 6.6841-9.9646 11.95-18.961 16.595-19.891 10.273-29.516 20.757-29.735 36.177-0.11536 8.1273 3.6622 13.1 7.3526 12.978 5.146-0.16969 9.8302-5.7404 11.353-16.547 1.7022-12.079 6.3546-17.819 17.084-25.092 7.6062-5.1555 13.171-10.59 14.815-17.803-0.95285-1.839-1.614-4.0002-1.9096-6.3094" fill="#ef9aa4"/>
  <path d="m29.702 158.68c-0.16828 2.146-1.1194 3.4177-2.1809 3.3348-0.98072-0.0769-1.7695-1.6111-1.6037-3.7313 0.16157-2.0645 1.0883-3.5257 2.1449-3.4428 1.0664 0.0836 1.8098 1.663 1.6397 3.8393" fill="#f7cfd2"/>
  <g fill="#005a9e">
   <path d="m160.1 256.25c-5.1541-2.5598-15.282-14.367-18.688-20.261-3.3108-5.7298-7.4066-18.783-7.2986-25.957 4.0344-3.6033 6.3853-9.5818 5.7848-15.25-1.01-9.537-12.393-22.276-27.355-33.603 5.5002-6.4908 13.872-20.026 15.513-30.152 1.5543 1.2203 3.3024 2.2253 4.9177 2.7813-0.28363 2.5277 1.1275 3.991 4.6235 3.7412 3.2762-0.23424 7.6944-1.4478 13.051-4.6101 2.988 3.4851 7.3148 3.8566 9.5592 1.7815 1.9099-1.7667 0.75636-9.0131-4.9378-15.25 0.85337-6.0473-0.80751-10.141-4.0728-10.923-2.559-0.61277-6.1172 1.9823-7.6052 6.8859-0.40217 1.3257-0.60396 2.5516-0.65158 3.6738-0.8823 0.47237-1.7501 1.0689-2.588 1.748-5.5263-4.1617-11.658-3.6957-15.38-1.1723-1.4637 0.19756-3.1662 0.71826-4.3907 1.2446-0.82797 5.3795-3.9677 12.105-7.994 15.516-1.9399 13.544-8.0511 27.979-11.486 31.968l-8.2906-6.0882c-7.1695 7.1935-14.524 20.327-15.006 25.512l4.8521 20.914c1.1254 0.67981 2.1191 1.1603 3.0872 1.463-0.90064 7.7509-2.8829 18.169-5.37 25.091-3.5585 7.0185-14.468 14.099-19.535 14.745-2.3456-1.0844-5.3767-1.5162-8.0634-1.5081-4.0393 0.0127-6.3504 0.84702-6.4615 1.7604-0.17251 1.4157 3.8876 3.2265 10.183 2.934-0.04974 0.10054-0.08643 0.20356-0.09172 0.31045-0.133 2.8 11.257 3.2441 16.472 1.3342 5.6078-2.0542 9.6231-6.3451 15.39-14.42 4.3208-3.9846 10.426-9.4915 14.381-13.591 1.3511-1.4005 0.85513-1.8581-0.88441-1.149-4.3893 1.7886-10.207 4.6701-14.245 6.9928 2.1142-8.1629 4.3078-14.724 8.9031-22.079 5.2941-1.6944 9.6626-5.3495 10.203-11.841 2.7979 7.106 7.7519 12.255 15.702 13.728 3.568 3.6234 10.951 20.003 11.786 24.713 0.75671 4.2721-1.5138 15.376-4.9375 20.783-2.8356 0.36583-4.5773 1.5208-4.5413 2.3072 0.0557 1.2277 2.7696 2.3763 9.1546 2.1992 4.9992-0.13864 8.5058-1.543 8.5058-2.884 0-0.79163-1.6937-1.6598-4.8659-2.3075-2.0542-3.2082 0.0215-12.372 1.9823-12.834 2.4514-0.57714 10.669 7.282 15.607 13.735-0.77893 1.7533 1.566 3.5916 8.2536 3.7857 5.4462 0.15769 8.7556-1.2185 8.8304-2.3435 0.1083-1.6224-5.9468-4.0016-12.002-3.4248"/>
   <path d="m160.1 256.25c-5.1541-2.5598-15.282-14.367-18.688-20.261-3.3108-5.7298-7.4066-18.783-7.2986-25.957 4.0344-3.6033 6.3853-9.5818 5.7848-15.25-1.01-9.537-12.393-22.276-27.355-33.603 5.5002-6.4908 13.872-20.026 15.513-30.152 1.5543 1.2203 3.3024 2.2253 4.9177 2.7813-0.28363 2.5277 1.1275 3.991 4.6235 3.7412 3.2762-0.23424 7.6944-1.4478 13.051-4.6101 2.988 3.4851 7.3148 3.8566 9.5592 1.7815 1.9099-1.7667 0.75636-9.0131-4.9378-15.25 0.85337-6.0473-0.80751-10.141-4.0728-10.923-2.559-0.61277-6.1172 1.9823-7.6052 6.8859-0.40217 1.3257-0.60396 2.5516-0.65158 3.6738-0.8823 0.47237-1.7501 1.0689-2.588 1.748-5.5263-4.1617-11.658-3.6957-15.38-1.1723-1.4637 0.19756-3.1662 0.71826-4.3907 1.2446-0.82797 5.3795-3.9677 12.105-7.994 15.516-1.9399 13.544-8.0511 27.979-11.486 31.968l-8.2906-6.0882c-7.1695 7.1935-14.524 20.327-15.006 25.512l4.8521 20.914c1.1254 0.67981 2.1191 1.1603 3.0872 1.463-0.90064 7.7509-2.8829 18.169-5.37 25.091-3.5585 7.0185-14.468 14.099-19.535 14.745-2.3456-1.0844-5.3767-1.5162-8.0634-1.5081-4.0393 0.0127-6.3504 0.84702-6.4615 1.7604-0.17251 1.4157 3.8876 3.2265 10.183 2.934-0.04974 0.10054-0.08643 0.20356-0.09172 0.31045-0.133 2.8 11.257 3.2441 16.472 1.3342 5.6078-2.0542 9.6231-6.3451 15.39-14.42 4.3208-3.9846 10.426-9.4915 14.381-13.591 1.3511-1.4005 0.85513-1.8581-0.88441-1.149-4.3893 1.7886-10.207 4.6701-14.245 6.9928 2.1142-8.1629 4.3078-14.724 8.9031-22.079 5.2941-1.6944 9.6626-5.3495 10.203-11.841 2.7979 7.106 7.7519 12.255 15.702 13.728 3.568 3.6234 10.951 20.003 11.786 24.713 0.75671 4.2721-1.5138 15.376-4.9375 20.783-2.8356 0.36583-4.5773 1.5208-4.5413 2.3072 0.0557 1.2277 2.7696 2.3763 9.1546 2.1992 4.9992-0.13864 8.5058-1.543 8.5058-2.884 0-0.79163-1.6937-1.6598-4.8659-2.3075-2.0542-3.2082 0.0215-12.372 1.9823-12.834 2.4514-0.57714 10.669 7.282 15.607 13.735-0.77893 1.7533 1.566 3.5916 8.2536 3.7857 5.4462 0.15769 8.7556-1.2185 8.8304-2.3435 0.1083-1.6224-5.9468-4.0016-12.002-3.4248"/>
   <path d="m164.75 108.87c2.5333-4.8729 1.5134-10.779-1.9466-12.546-2.7386-1.3981-6.7557-0.39582-9.4072 3.8936-4.1448 6.7052 0.3609 14.709 6.4879 12.329 2.7753 3.5694 4.361 8.6522 4.0728 12.726-0.5962 0.93486-1.1476 2.014-1.6637 3.2036 3.7444 0.89853 5.6871-1.4866 5.9528-5.2945 0.3242-4.6507-1.1896-9.4453-3.496-14.312"/>
   <path d="m173.33 102.99c1.9191-4.1935 1.6637-8.2098-0.90135-10.275-2.4927-2.0066-7.6401-0.79622-9.8012 3.5264 2.7351 1.27 4.6609 5.8152 2.8169 11.024 0.96414 0.75601 2.6518 0.64876 3.5966-0.20178 1.4055 3.2089 2.0906 7.0661 1.766 9.8781-0.24729 0.32985-0.49706 0.68827-0.74753 1.077 3.6082 0.17463 6.6777-6.8012 3.2706-15.029"/>
  </g>
  <path d="m165.44 107.27c0.9652 0.69956 2.425 0.68192 3.5962-0.20143 0.97331 2.1269 2.1809 6.8495 1.766 9.8778-0.79269 1.1539-1.856 2.9563-2.5407 4.3621-0.27058-4.3014-1.6581-8.9764-3.514-12.437 0.23389-0.48683 0.44803-1.003 0.6925-1.6013" fill="#fff9c5"/>
  <path d="m158.37 112.91c0.11465 2.6176-1.1839 5.5781-2.9912 6.7056 3.0452 3.4248 5.8208 8.6702 5.6042 12.275 0.70273-2.0369 1.8923-5.1012 2.9736-6.6153 0.46179-4.4203-1.9283-10.148-4.0728-12.726-0.52246 0.21625-0.93698 0.28822-1.5138 0.36054" fill="#fff9c5"/>
  <path d="m129.57 147.25c-2.4924-0.10901-5.3873-0.10866-7.7018-0.013-3.0127 5.5474-6.5366 10.648-9.3246 13.937 2.1706 1.6429 4.2623 3.3161 6.2611 5.0045 4.0312-5.1544 8.7009-12.234 11.582-17.527 0.60466-1.1109 0.47449-1.3451-0.81703-1.4016" fill="#005a9e"/>
  <path d="m120.13 188.18c-4.3067 1.4146-7.2771 10.001-5.0818 16.007 2.1234 5.8102 9.9014 7.8613 13.335 6.5973 3.8209-1.4058 8.2088-8.2973 5.6229-14.889-2.0564-5.2412-9.592-9.1221-13.877-7.7149" fill="#e2eef4"/>
  <path d="m77.494 188c-2.8459 0.91123-5.2366 9.0435-3.496 13.735 2.9556 7.9675 11.081 8.4631 14.633 5.4077 2.9164-2.5086 2.8635-7.4814-0.82868-12.366-4.1751-5.5234-8.5062-7.3544-10.308-6.7776" fill="#e2eef4"/>
  <path d="m126.42 184.27c1.5462-1.9276 3.0843-4.2471 4.0785-6.7423-1.4104-1.6203-2.9545-3.2554-4.6083-4.892-0.0804 3.9409-0.2607 8.1068-0.49671 11.203-0.11501 1.5116 0.10089 1.585 1.0266 0.43145" fill="#57c1e8"/>
  <path d="m119.49 166.76c-1.3095-0.0526-2.4624-0.0483-3.6643 0.0497-1.4877 0.12135-1.2933 0.47837-0.25683 0.89923 3.1337 1.2728 6.7246 2.8885 10.267 4.8729-1.9678-1.9452-4.0915-3.8926-6.3461-5.8219" fill="#57c1e8"/>
  <path d="m103.79 175.38c-7.91 3.3352-15.754-10.385-7.5667-22.16 0.80645-1.1599 1.2806-1.0456 1.2679 0.39265-0.10301 11.798 2.0412 15.688 6.7762 15.926-0.22966 1.851-0.3616 3.6562-0.47731 5.8416" fill="#005a9e"/>
  <g fill="#fff9c5">
   <path d="m74.719 245.94c-2.9034 1.7082-7.0668 3.9229-10.85 5.3266h0.0035c2.5869-0.0808 5.237 0.17886 6.8569 0.85161 2.5989-0.61419 5.2292-3.3454 5.9009-5.4571 0.55174-1.7328-0.2032-1.7254-1.9099-0.72108"/>
   <path d="m155.02 258.23c-4.9375-6.453-13.155-14.312-15.606-13.735-1.9611 0.46179-4.0368 9.6259-1.9823 12.834 0.95462 0.19508 1.7724 0.40993 2.4536 0.63676 3.6848-1.5067 10.61-1.9353 15.132 0.27235 0-4e-3 0-5e-3 4e-3 -8e-3"/>
   <path d="m117.1 122.71c-9.9219 5.4949-23.591 5.4053-33.723-1.2457 0.22013 6.2378 3.6079 13.759 6.9592 16.113 0.99695 5.867 2.4458 13.262 3.8104 19.411 0.52599-1.2651 1.21-2.5312 2.075-3.7751 0.80645-1.1603 1.2806-1.0456 1.2679 0.39264-0.07549 8.6561 1.0604 13.052 3.5398 14.875 3.4212-3.8661 9.604-18.402 11.558-32.043 4.0065-3.3941 7.1349-10.071 7.9816-15.437-1.1 0.46814-2.2433 1.0305-3.4689 1.7092"/>
  </g>
  <path d="m70.321 199.29c-1.0908-4.3949-1.8983-10.363-1.9791-14.811 1.5684 2.957 3.495 7.2284 5.2366 11.168 0.18556-1.3099 0.51294-2.5926 0.9398-3.7253-2.3312-4.6281-4.8948-10.887-5.8551-14.731-0.45967-1.8383-0.59831-4.5872 0.68439-7.4263 2.8836-6.381 5.5866-11.32 8.182-15.682 1.3233-2.2246 1.3077-4.8539 0.61278-8.1837 3.64-3.9134 6.9582-7.8592 9.259-11.655-2.1594-3.4121-3.8664-8.4049-4.0203-12.772 0 0 0.0035-3.5e-4 0.0039 0-0.49848-0.32667-0.98919-0.6671-1.4697-1.0262-4.88 6.3313-8.0525 16.54-9.3377 24.999-8.8805 8.0956-8.8678 12.353-7.6426 30.187-2.37 7.5145-4.1779 13.944-5.5845 20.093-1.6341 1.7378-2.4398 4.1158-2.6836 6.4467-0.48401 4.6186 0.92216 8.0747 2.4807 8.1146 1.8888 0.0487 3.4936-3.2491 4.0196-7.0012 0.37042-2.6448 0.20496-5.5153-0.77576-7.5992 0.36689-3.9769 1.4877-8.5446 2.8755-11.667 0.75353 4.9526 1.4414 10.452 2.0627 15.56-1.1398 2.7954-1.1391 5.5968-0.54716 7.9601 0.95462 3.8114 3.5271 6.5733 5.3767 6.0999 1.5498-0.39652 2.437-3.6481 1.5639-7.6221-0.46672-2.1234-1.5071-4.4665-3.4022-6.7261" fill="#005a9e"/>
  <path d="m69.465 148.54c-3.1531 0.83679-5.9567 3.4117-6.96 6.3221-1.0319 2.9947-0.76835 7.179 1.8634 9.8891-0.11007-7.6119 0.97649-11.625 5.0966-16.211" fill="#e2eef4"/>
  <path d="m89.027 106.78c-0.33408 0.61171-0.92322 0.91863-1.5247 0.90064-2.4218-0.0713-7.0711-9.9945-4.4319-18.108-1.3494-7.7872-5.6127-22.16-7.1988-24.828-1.2404-2.0863-12.753-12.673-19.09-18.172 8.3354 16.268 15.422 29.046 23.775 42.038-2.1265 3.9652-1.5801 10.238 2.5954 15.502 3.4089 4.2982 9.2795 7.8959 17.933 11.38-4.1077-2.2793-8.8515-5.6102-12.058-8.7118" fill="#dbd7ab"/>
  <path d="m153.16 45.672c-7.1554 6.0808-18.367 17.022-19.635 19.271-1.676 2.9743-4.7036 16.115-6.4608 25.578 1.2439 10.653-3.0275 16.926-4.8387 16.944-0.54258 6e-3 -1.1702-0.39511-1.5494-0.93733-2.1142 2.1212-6.3394 5.3552-10.305 8.1527 7.4807-3.3179 13.231-6.9846 16.468-11.325 3.906-5.2377 4.361-12.005 2.1266-14.493 7.6761-12.638 17.592-29.565 24.049-42.879 0.0533-0.11042 0.1016-0.21414 0.14499-0.31186" fill="#dbd7ab"/>
  <g fill="#4ba8ca">
   <path d="m107.48 77.558c0.73977 0.04974 1.4781 0.11783 2.214 0.21096-0.24412-1.6376-0.55774-3.1408-0.92498-4.4718-0.57362 0.02469-1.1504 0.04269-1.7286 0.05821 0.16439 1.4143 0.3115 2.8236 0.43956 4.2026"/>
   <path d="m102.57 73.386c-0.58243-0.0078-1.1649-0.0187-1.7445-0.03598-0.31609 1.4012-0.66181 2.988-0.96908 4.4485 0.74965-0.09878 1.5032-0.17321 2.2595-0.22789 0.13758-1.3797 0.29033-2.7848 0.45402-4.1846"/>
   <path d="m128.9 69.792c-0.48753 0.21237-1.0146 0.41592-1.5752 0.61101-1.3466 3.4618-3.0688 7.8109-4.4887 11.679 0.91228 0.52246 1.8034 1.0848 2.6621 1.6972-3.5e-4 0.0035 3.5e-4 0.0039 0 0.0056 0.85372-4.2383 2.105-9.332 3.4018-13.993"/>
   <path d="m82.119 70.483c-0.46496-0.16686-0.9144-0.34043-1.342-0.52246 1.3176 4.6514 2.5277 9.5871 3.3235 13.97 0-0.0046 3.53e-4 -0.0092 0-0.01341 0.92322-0.67592 1.8916-1.2936 2.89-1.8648-1.6457-3.3694-3.489-7.9424-4.8712-11.57"/>
  </g>
  <g fill="#004984">
   <path d="m104.7 111.65c0.0187 0.0677 0.037 0.139 0.0554 0.20391 1.3592-5.4688 3.1044-16.273 3.2928-22.124 0.19086-5.9083-0.89182-18.163-2.6176-27.05-0.24447-1.2601-0.48401-1.8722-0.71331-1.863 0.67063 16.131 0.63817 32.959-0.0173 50.832"/>
   <path d="m84.309 88.134c1.8274 2.1368 3.2343 6.9335 3.3846 10.731 0.71085 0.53375 1.4136 0.8957 2.0422 1.0072-0.08326-0.79622-0.19861-1.6323-0.35736-2.5107-1.0382-5.7538-3.598-9.4051-5.0694-9.2276"/>
   <path d="m125.21 94.99c0.93133-1.5558 1.5984-3.2547 1.7106-4.7392-0.37007-1.3593-0.93839-2.1474-1.5265-2.2535-0.12912-0.02364-0.26988-0.0067-0.41522 0.02787 0.55703 1.9128 0.69074 4.3826 0.23107 6.9649"/>
  </g>
  <path d="m89.379 97.362c0.18344 1.0139 0.31221 1.9748 0.39476 2.8783 4.7502-1.8493 9.223-6.9649 8.9852-8.1975-2.7386 1.4323-6.2466 2.5707-9.8404 3.2466 0.17427 0.65511 0.32949 1.3473 0.46038 2.0726" fill="#c0cad0"/>
  <path d="m110.74 91.915c-0.42439 1.1469 4.2319 6.6163 9.0886 8.2649 0.0709-0.91863 0.19192-1.9121 0.37748-2.9891 0.15487-0.89994 0.35454-1.7406 0.58032-2.5301-3.0184-0.44168-7.0993-1.3839-10.046-2.7457" fill="#c0cad0"/>
  <path d="m121.37 115.06c-3.7945 1.7198-6.1069 2.9062-10.198 5.2783-11.15 6.465-31.109-1.5095-38.44-14.317 0.39511 3.1126 1.4517 5.9605 2.9919 8.1107 9.6594 13.483 28.617 15.646 41.376 8.5803 3.0085-1.6662 5.5372-2.6638 8.0807-3.1588 1.6051-1.1278 4.0633-1.7939 5.7425-1.7907 7.6359-5.2278 9.7092-17.035 4.9826-25.579 2.4031 10.666-2.5432 17.441-14.537 22.876" fill="#cf858f"/>
  <path d="m72.417 106.81c1.5176 5.7337-2.8296 13.528-14.585 21.19-13.625 8.8812-17.587 15.174-19.084 27.038-1.6094 12.754-10.662 15.653-14.508 7.2072 0.81527 6.0752 4.016 9.6598 7.1554 9.5564 5.146-0.16969 9.8302-5.7404 11.353-16.547 1.7025-12.079 6.3546-17.819 17.084-25.091 7.6062-5.1558 13.171-10.59 14.815-17.803-0.95285-1.8394-1.614-4.0002-1.9096-6.3094-0.09948 0.25506-0.20814 0.5073-0.32138 0.75847" fill="#cf858f"/>
  <path d="m124.98 119.68c-1.4633 0.19756-3.1662 0.71826-4.3903 1.2446-0.37218 2.4162-1.2136 5.1026-2.389 7.6394 1.7762-1.4199 3.3771-3.0561 4.7286-4.8958 2.262-3.0794 5.2529-4.7491 9.8122-5.8607-2.9782-0.26705-5.7295 0.49495-7.7615 1.8725" fill="#004984"/>
  <path d="m120.57 121.01c-1.1 0.46813-2.2433 1.0305-3.4689 1.7092-9.9219 5.4945-23.591 5.4053-33.723-1.2456 0.09631 2.7227 0.79587 5.6896 1.8327 8.3651 9.1493 7.6214 23.566 6.2608 32.984-1.2689 1.162-2.5093 1.9971-5.1643 2.3749-7.5597" fill="#dbd7ab"/>
  <path d="m72.943 213.14c1.034-1.1236 1.4922-3.8837 0.78034-7.124-0.46637-2.1234-1.5071-4.4665-3.4022-6.7261-1.0904-4.3949-1.8983-10.363-1.9791-14.811 1.5684 2.9573 3.495 7.2288 5.237 11.168 0.18521-1.3099 0.51259-2.5929 0.9398-3.7253-2.3315-4.6284-4.8948-10.887-5.8554-14.731-0.45967-1.8383-0.59796-4.5875 0.68474-7.4267 2.8833-6.3807 5.5866-11.32 8.1816-15.682 1.3233-2.2243 1.3077-4.8535 0.61278-8.1834 3.6403-3.9137 6.9582-7.8592 9.259-11.655-1.584-2.5026-2.9217-5.8561-3.5842-9.1892-4.3744 5.4928-8.1474 15.683-9.4583 21.589-0.24306 1.0943-0.4826 1.4637-1.1762 2.2408-5.4896 6.1503-6.8912 13.446-6.967 26.054-0.0053 0.85231-0.09701 1.3836-0.35948 2.1481-1.8761 5.4649-3.9529 13.485-4.8214 18.082-0.08749 0.46284-0.22542 0.72496-0.51611 1.2146-1.5981 2.692-2.9369 10.448-1.1624 13.885 1.797-0.18839 3.3048-3.3708 3.8111-6.9836 0.37077-2.6451 0.20496-5.5153-0.77541-7.5992 0.36689-3.9769 1.7117-9.3916 3.3877-12.771 0.63641 3.3341 2.2306 12.106 2.7312 16.372 0.06738 0.57574 0.0194 0.89077-0.10442 1.4552-1.1578 5.2617 1.5917 12.701 4.5364 12.399" fill="#004984"/>
  <path d="m67.33 199.58c-0.62124-5.1086-1.3092-10.608-2.0627-15.56-1.3875 3.1221-2.5082 7.6902-2.8751 11.667 0.4004 0.85125 0.65864 1.8369 0.8061 2.8818 1.2372 0.4759 2.4956 2.0006 3.327 3.9705 0.14182-0.97402 0.4004-1.9664 0.80469-2.9588" fill="#dbd7ab"/>
  <path d="m73.579 195.64c-1.7417-3.9391-3.6682-8.2106-5.237-11.168 0.08114 4.4482 0.88865 10.416 1.9794 14.811 0.508 0.60572 0.95003 1.2174 1.3406 1.8295 0.44768-1.4912 1.0463-2.7411 1.7649-3.9017 0.02646-0.52282 0.07832-1.0492 0.15205-1.5713" fill="#dbd7ab"/>
  <path d="m61.954 158.71c0.07832 2.1594 0.79869 4.3797 2.4148 6.0438-0.03704-2.5548 0.06597-4.6983 0.3683-6.6001-0.96838 0.44133-1.9015 0.6216-2.7831 0.55633" fill="#c0cad0"/>
  <g fill="#004984">
   <path d="m97.494 153.61c0.0067-0.73096-0.11324-1.1183-0.33796-1.1719-3.3711 7.6789-3.4311 16.036 0.79728 22.436 1.759 1.0866 3.7966 1.3652 5.8395 0.50377 0.11606-2.1858 0.248-3.9906 0.4773-5.8416-4.735-0.23848-6.8792-4.1282-6.7762-15.926"/>
   <path d="m160.21 134.72c-2.2895 2.0246-6.5712 1.7036-9.5592-1.7812-5.3566 3.162-9.7751 4.3755-13.051 4.6098-3.496 0.24976-4.9071-1.2132-4.6232-3.7412-1.6154-0.55598-3.3634-1.5607-4.9181-2.7813-1.6415 10.126-10.013 23.662-15.513 30.152l-1.209-1.0703c5.0599-6.9356 11.264-21.62 13.07-32.623-1.5737-2.0958-1.2686-2.3756 0.59937-0.92075 3.5412 2.758 5.8706 4.1028 8.6007 4.8867 0.22401 2.5241 1.4443 4.2429 5.9425 3.2787 3.6029-0.77223 7.0196-1.936 9.0734-3.1401 0.90735-0.53199 1.5258-0.67804 2.5051-0.23283 2.0895 0.95038 4.2079 0.45296 4.505-1.3317-0.91899-1.487-2.2253-3.1454-3.8562-4.7494-3.496 3.641-9.1532-0.0198-8.8332-6.1683 0.0473-1.1222 0.24941-2.3481 0.65122-3.6738 0.60431-1.9907 1.5519-3.593 2.6331-4.7629-3.1849 9.2759 0.4445 15.804 5.1163 12.88 0.98707-0.61807 1.439-0.67628 2.3798-0.12771 2.075 1.209 3.6943 2.6649 4.8634 4.1353 0.55845 0.70202 0.7366 0.61877 0.88019-0.0166 0.0896-0.39899 0.16263-0.85689 0.17815-1.3063 1.8951 4.0693 1.6482 7.5272 0.5648 8.4857"/>
   <path d="m130.72 147.62c-4.76 2.4652-9.471 5.1414-13.825 7.7766-1.5258 2.238-3.0191 4.2164-4.3455 5.7817 2.1706 1.6429 4.2623 3.3161 6.2611 5.0045 4.0312-5.1548 8.7009-12.234 11.582-17.527 0.27516-0.50482 0.39581-0.82761 0.32702-1.0358"/>
  </g>
  <path d="m151.73 134.01c-0.37253-0.31856-0.73413-0.67205-1.0767-1.0714-5.3566 3.162-9.7751 4.3758-13.051 4.6098-0.56339 0.0406-1.0664 0.0314-1.5233-0.0145 2.7425 2.9905 11.724 2.7658 15.651-3.5239" fill="#c0cad0"/>
  <path d="m160.99 131.89c0.70273-2.0366 1.892-5.1012 2.9736-6.6153 0.13159-1.2587 0.0258-2.6236-0.23353-3.9917-1.3723 1.9004-2.654 3.8294-3.7476 5.7143 0.69638 1.7455 1.094 3.4509 1.0075 4.8927" fill="#dbd7ab"/>
  <path d="m168.27 121.31c0.68474-1.4058 1.748-3.2085 2.5407-4.3621 0.16863-1.2305 0.0667-2.7407-0.17604-4.2429-1.0216 1.1525-2.0708 2.3806-3.1147 3.6572 0.38594 1.6454 0.6477 3.3232 0.75 4.9477" fill="#dbd7ab"/>
  <path d="m87.83 194.82c-3.4054 7.6076-10.444 9.5836-14.406 3.8315 0.0508 1.1074 0.23107 2.1636 0.57326 3.0857 2.9556 7.9675 11.081 8.4631 14.633 5.4081 2.9083-2.5019 2.8614-7.4542-0.80045-12.325" fill="#c0cad0"/>
  <path d="m134.01 195.9c-0.21802-0.55563-0.50095-1.0947-0.8315-1.615-2.5432 8.654-12.281 11.125-18.774 3.696-0.22577 2.122-0.0526 4.2972 0.647 6.2107 2.1234 5.8102 9.9014 7.8613 13.336 6.5976 3.8206-1.4062 8.2084-8.2977 5.6226-14.889" fill="#c0cad0"/>
  <g fill="#004984">
   <path d="m87.03 234.98c0.07832-0.62583 0.2607-1.6168 0.49248-2.2705 2.1142-8.1629 4.3074-14.724 8.9031-22.079 5.2941-1.6944 9.6622-5.3495 10.203-11.841-1.8256-4.9311-3.6167-17.42-2.8353-23.411-1.3092 0.60607-2.836 0.61947-4.1695 0.42121-2.2398 6.5726-7.3674 14.654-12.259 18.427 0.14605 0.18379 0.29175 0.36124 0.43744 0.55386 3.6922 4.8842 3.7454 9.857 0.82903 12.366-1.409 1.2122-3.5387 1.8623-5.7792 1.7117 1.046 0.61842 1.984 1.0679 2.896 1.3526 1.8743 0.90135 2.7753 2.6317 2.0542 5.4437-0.72037 2.812-3.2343 13.681-4.0453 18.521-1.5864 9.4675-6.0046 17.325-11.605 19.167-2.6695 1.3134-13.523 1.4009-15.12-0.72214-0.22366 0.15981-0.42157 0.36725-0.53446 0.6223-0.0063 0.0138-0.01094 0.0282-0.01729 0.042-0.0321 0.0822-0.05821 0.16756-0.07056 0.25964-0.13335 2.8 11.257 3.2438 16.472 1.3338 5.6078-2.0542 9.6231-6.3451 15.39-14.42 4.3208-3.9846 10.426-9.4915 14.381-13.591 0.63324-0.65652 0.85655-1.1024 0.74048-1.3219-5.5019 3.0413-11.788 6.6333-16.362 9.4361"/>
   <path d="m46.811 249.51c1.5222 1.676 8.6794 2.298 13.516 1.9946-1.8648 0.27305-3.5807 1.0128-3.8298 1.735-10.226 0.0243-11.151-3.0092-9.6862-3.7296"/>
   <path d="m141.41 235.99c-3.3644-5.6674-7.1653-18.395-7.2986-25.957 6.8121-6.9218 7.632-14.935 3.193-22.986-1.0139 3.0304-2.3721 5.5174-3.98 7.4831 0.26565 0.44414 0.49495 0.9017 0.6791 1.3705 2.5859 6.5916-1.8023 13.483-5.6229 14.889-3.4339 1.264-11.212-0.78704-13.335-6.5973-0.65616-1.7953-0.84807-3.8206-0.68333-5.8162-3.5627-1.6813-7.0464-4.5328-10.093-8.4945 1.85 13.266 8.2737 20.394 17.708 22.152 5.4719 0.52987 7.3674 1.8263 8.2426 4.633 2.2708 7.282 4.7099 13.919 8.2719 20.026 1.892 3.2445 12.218 14.411 16.597 18.224 1.5833 1.3783 2.4984 1.754 5.1125 1.7254-5.5259-3.7214-15.793-15.603-18.79-20.652"/>
   <path d="m170.72 258.05c1.4072 2.9485-14.109 2.5972-15.685-0.39617-0.64699 2.074 0.51047 4.3173 8.4695 4.4129 7.8934 0.0945 10.583-2.3255 7.2157-4.0167"/>
   <path d="m135.27 256.44c-0.46567-2.19-0.21026-6.3048 1.2471-10.289 0.72002-1.9692 2.063-2.6462 3.8583-1.96-0.73201-0.0554-1.2778 0.26318-1.7318 0.82444-1.838 2.2712-2.8275 9.3084-1.2076 12.311 1.9463 0.39688 4.8429 1.2436 4.8659 2.3075 0.0254 1.2047-2.5954 2.7577-8.7044 2.9199-7.3963 0.1965-9.9296-1.5681-8.6681-2.9023 0.48648 1.3702 8.5002 2.1216 12.507 0.93769 2.201-0.65053 2.0105-1.2495-0.16193-1.8567-1.2256-0.34255-1.809-1.3769-2.0041-2.2927"/>
   <path d="m154.82 112.17c0.72072 1.8383 0.73907 5.0288 0.45049 7.3004l0.10831 0.14428c1.7745-1.1998 2.9344-3.4569 2.9912-6.7056-1.2164 0.1263-2.2885-0.0723-3.55-0.73907"/>
   <path d="m170.06 118.02c3.1535 0.15275 5.8949-5.1562 4.2619-11.988-0.27764 1.4676-0.62159 2.8511-1.0008 4.0661-0.35137 1.1257-0.72143 1.1134-0.9585-0.0466-0.27481-1.3444-0.7246-2.7749-1.2718-4.0083-0.30445-0.6858-0.64982-0.86324-1.536-0.64558-1.1162 0.27411-2.449 0.20461-3.5578-0.25647-0.11889 0.6918-0.29527 1.4012-0.55174 2.1258 0.96379 0.756 2.6518 0.64876 3.5962-0.20179 1.4058 3.2089 2.0906 7.0661 1.766 9.8781-0.24695 0.32985-0.49671 0.68827-0.74754 1.077"/>
   <path d="m154.78 112.06c1.3914 0.95638 3.1676 1.2428 5.1068 0.49001 2.7753 3.569 4.361 8.6522 4.0728 12.726-0.59655 0.93486-1.1476 2.0136-1.6637 3.2032 3.7444 0.89888 5.6871-1.4862 5.9528-5.2941 0.10654-1.5349 0.0102-3.0857-0.24589-4.6496-0.34607 1.0883-0.76447 2.0271-1.2545 2.8138-0.5849 0.93803-0.96978 0.74577-1.0932-0.41064-0.35031-3.2844-1.7099-7.1769-3.1785-10.368-0.46708-1.0149-1.0054-1.0682-1.9152-0.72178-4.3639 1.6612-8.2772-1.5681-7.0873-9.7406-0.0243 0.0384-0.0508 0.073-0.0751 0.11183-1.8669 3.0208-1.9787 6.3048-0.9779 8.7845 1.1098 0.68368 1.8094 1.6965 2.359 3.055"/>
  </g>
  <g fill="#0f141b">
   <path d="m102.44 108.52c-0.24165-0.31715-0.39264-0.50482-0.55845-0.78211-0.15734-0.26317-0.46072-0.17991-0.36371 0.1838 0.09 0.33867 0.2159 0.69144 0.4251 0.94403 0.30233 0.36618 0.78281 0.0293 0.49706-0.34572"/>
   <path d="m107.01 108.5c0.24412-0.31503 0.39722-0.50094 0.5655-0.77717 0.15946-0.26176 0.46214-0.17568 0.3623 0.18697-0.0935 0.33797-0.22225 0.68968-0.43391 0.94051-0.32703 0.38876-0.80293 0.0483-0.49389-0.35031"/>
   <path d="m89.196 99.694c0.06526 2.8321-0.64382 4.4351-1.6051 4.5187-1.113 0.0988-2.1925-1.9597-2.4772-5.2447-0.08326-0.95144-0.07832-1.651 0.0314-2.7347l0.50094 0.60219c-0.04339 0.641-0.0254 1.3169 0.04198 2.087 0.26776 3.0896 1.2601 4.7734 1.8489 4.7223 0.60713-0.0526 1.1927-1.7946 1.0643-4.1808z"/>
   <path d="m88.925 97.438c-1.1599-6.4251-3.6707-9.1232-4.6069-8.9295-0.89817 0.18309-2.4176 3.6548-1.2862 9.9289 1.1384 6.3116 3.5708 9.1207 4.8186 8.8949 1.1797-0.21273 2.3304-2.9372 1.0746-9.8944m0.86078-0.1464c1.1504 6.3712 0.21237 10.371-1.8217 10.738-1.584 0.28575-4.4736-2.5079-5.7242-9.4417-1.1091-6.1489 0.27305-10.475 1.9343-10.813 1.4813-0.30304 4.4006 2.8088 5.6116 9.5172"/>
   <path d="m89.774 100.26c-2.769-0.40429-6.7476-5.1544-7.3427-8.9821l0.53234-1.2968c0.03598 3.6371 4.0636 8.8826 6.7271 9.5021z"/>
   <path d="m121.15 99.396c-0.3108 2.9203 0.45931 4.1212 0.83114 4.1504 0.5842 0.0462 1.4972-1.1003 1.7844-4.7385 0.0511-0.64558 0.0878-1.2368 0.054-1.7914l0.54081-0.7232c0.1016 0.92287 0.0956 1.6958 0.0268 2.5686-0.31644 4.0072-1.4344 5.3259-2.4465 5.2454-0.94862-0.0744-1.6739-1.6422-1.4189-4.3938z"/>
   <path d="m120.62 97.272c-1.143 6.6308-0.078 9.6065 1.3307 9.8492 1.4542 0.25189 3.5366-2.679 4.6027-8.8702 1.1338-6.5825-0.30868-9.7261-1.2354-9.8937-1.1144-0.20461-3.702 3.1373-4.6979 8.9147m-0.83785-0.1591c0.97014-5.6303 3.7835-9.8439 5.6702-9.5021 1.7191 0.3108 2.9206 4.784 1.8835 10.802-1.2933 7.5089-4.1353 9.6467-5.48 9.4132-2.2147-0.38136-3.1951-4.2083-2.0736-10.714"/>
   <path d="m127.14 91.106c-0.55598 3.9575-4.621 8.8032-7.2648 9.1832l0.0138-0.79022c2.667-0.48295 6.731-6.1119 6.7409-9.9945z"/>
   <path d="m89.746 99.861c4.6874-1.9311 8.8272-6.858 8.5612-7.7396-0.41346-1.3702-10.807-5.1012-13.71-3.8058l-1.3899 0.15134c2.063-3.4749 15.41 1.5748 15.975 3.4456 0.40111 1.3264-4.4648 6.9233-9.4107 8.7362z"/>
   <path d="m124.83 88.162c-3.6752-1.0343-13.576 2.9397-13.685 3.9021-0.11359 0.99871 3.968 6.0413 8.6995 7.7562l-0.0706 0.71932c-4.9583-1.596-9.7158-7.166-9.5197-8.6021 0.22472-1.6499 13.009-6.3916 15.888-3.9539z"/>
   <path d="m119.78 101.19c-4.0382 5.4825-12.876 10.907-15.024 10.958-1.6732 0.0399-10.195-4.8267-14.94-10.733l0.01341-1.185c4.6609 6.1584 13.704 11.345 14.907 11.321 1.8426-0.0363 11.231-5.8318 15.076-11.643z"/>
   <path d="m84.348 87.871c-0.83538-6.0385-2.8109-14.15-5.4444-22.589-0.40076-1.2859-0.82197-1.8246-1.9424-2.9238-6.4601-6.3355-13.725-12.706-19.687-16.973-1.0516-0.75248-1.0929-0.69991-0.57679 0.30198 9.2629 17.976 16.183 30.233 24.078 42.575 0.17039 0.26564 0.19085 0.4004 0.0042 0.78281-2.0503 4.2072-0.96379 10.227 2.721 14.872 3.5186 4.4362 9.7709 8.2077 19.828 12.113 0.96873 0.37606 1.8708 0.43004 3.3281-0.16016 9.9159-4.0153 16.436-8.159 19.83-12.71 3.0473-4.0862 4.5547-10.739 2.2825-13.884-0.21131-0.29245-0.25435-0.42545-0.0628-0.74366 7.3769-12.254 17.347-29.246 23.991-42.698 0.56021-1.1345 0.51576-1.1885-0.65334-0.33972-6.2576 4.5459-14.968 11.953-19.747 17.188-1.1056 1.2107-1.3504 1.6178-1.7759 3.0272-1.9995 6.6139-4.3338 15.872-5.3946 22.123l-0.70556-0.15099c1.0093-6.4968 3.2092-15.549 5.2091-22.166 0.49107-1.6249 0.67698-2.0676 1.942-3.4533 5.0239-5.5016 13.973-12.703 20.055-17.122 1.9466-1.415 2.6811-0.85337 1.6986 1.1949-6.4862 13.527-16.434 30.615-23.895 42.698 2.1915 2.6183 1.7561 9.344-2.2927 14.774-3.4463 4.6203-9.8351 8.7623-20.227 12.901-1.428 0.56904-2.3506 0.66746-3.7969 0.12595-10.303-3.859-16.676-7.7431-20.248-12.247-4.318-5.4448-4.8373-11.754-2.758-15.78-7.8888-12.278-14.832-24.438-24.014-42.621-1.0012-1.9826-0.12912-2.3922 1.5769-1.1719 5.9806 4.2806 13.479 10.516 19.955 16.867 1.1635 1.1409 1.7177 1.9519 2.1449 3.3218 2.6342 8.4402 4.4633 16.578 5.2998 22.727z"/>
   <path d="m107.02 72.924c8.8388-0.22895 17.291-1.5109 21.984-3.6308l-0.2473 1.0153c-4.4887 1.9791-12.831 3.2456-21.612 3.4967z"/>
   <path d="m102.52 73.843c-8.2712-0.10548-16.405-1.1476-21.595-3.3747l-0.29386-1.0287c5.2211 2.2814 13.514 3.3898 21.964 3.5108z"/>
   <path d="m104.4 62.638c-1.3028 7.9721-2.7171 21.005-2.5908 26.922 0.13017 6.0621 1.9202 16.833 2.927 21.054 1.1014-4.7893 2.7122-15.482 2.8875-20.917 0.18027-5.607-0.76905-17.762-2.5107-26.971-0.35313-1.869-0.42615-1.8429-0.71296-0.08784m0.043 49.143c-1.4979-5.0327-3.3496-15.746-3.4876-22.182-0.14006-6.5391 1.5162-19.529 2.8088-27.077 0.48154-2.8102 1.403-2.8667 1.9808 0.10901 1.7932 9.2354 2.9009 21.487 2.7192 27.118-0.1845 5.7175-1.9276 16.26-3.3916 22.041z"/>
   <path d="m102.06 78.006c-6.4255 0.48578-12.712 2.6031-17.883 6.3454l-0.16439-0.86854c5.1125-3.7814 11.535-5.909 18.143-6.3602z"/>
   <path d="m107.43 77.118c6.5267 0.43286 12.943 2.4977 18.175 6.2163l-0.21378 0.85831c-5.1703-3.7049-11.455-5.7718-17.876-6.2075z"/>
   <path d="m140.01 121.17c-5.4783-4.0926-11.84-3.768-15.872-0.48719-0.88371 0.71931-1.1783 0.39864-0.36442-0.39899 3.6216-3.5486 10.866-4.342 16.941 0.30021z"/>
   <path d="m130.09 117.81c9.5956-6.307 11.055-23.314 0.27975-31.232l0.44309-0.7433c10.981 7.6338 10.414 25.344 0.80574 31.936z"/>
   <path d="m133.26 88.476c0.42086 3.6537-1.2552 7.8176-3.822 10.073l0.29421-1.5501c2.0295-2.3001 3.1344-6.0339 2.63-9.398z"/>
   <path d="m124.46 120.12c-1.9368 0.43604-4.0806 1.2647-7.1293 2.9782-12.962 7.2852-32.13 5.0564-41.971-8.6801-4.6958-6.5546-5.1869-19.648 4.2545-27.248l0.49918 0.77823c-9.4643 7.8736-7.8627 20.556-4.0072 25.937 9.8944 13.811 29.258 14.928 40.774 8.4765 3.1404-1.7596 5.4709-2.6208 8.9584-3.278z"/>
   <path d="m86.365 123.44c-13.34-7.796-13.584-29.318-6.1147-34.55l-0.28575 1.2665c-6.5073 6.2904-5.5072 27.137 8.5764 33.662z"/>
   <path d="m74.931 112.9c-1.4425 6.447-6.1024 11.665-14.875 17.612-9.7726 6.6241-15.177 12.728-16.88 24.815-1.5575 11.048-6.157 16.801-11.786 16.987-3.8689 0.12982-7.9202-4.7882-7.7964-13.515 0.24836-17.545 12.495-27.486 29.972-36.512 10.763-5.5577 16.919-10.999 19.044-16.985l0.24906 1.4767c-2.3103 5.7404-8.3234 10.774-18.915 16.243-17.397 8.9845-29.226 19.415-29.459 35.8-0.1143 8.1245 3.9317 12.596 6.8876 12.496 4.7833-0.15734 9.4414-5.6007 10.924-16.122 1.8016-12.781 6.8725-18.294 17.307-25.367 8.738-5.9228 13.305-11.509 14.732-17.94z"/>
   <path d="m93.922 157.55c-1.4908-6.2435-2.9122-13.715-3.9388-19.745-3.7239-2.5964-7.0136-10.521-7.0993-16.6l1.0012 0.51682c0.30304 5.7161 3.2717 12.758 6.459 15.383 0.25118 0.20708 0.33655 0.31856 0.39052 0.63323 0.9966 5.8244 2.4966 13.511 3.6537 18.754z"/>
   <path d="m100.75 168.24c3.4731-3.9642 9.3754-18.369 11.447-31.66 0.0444-0.28434 0.0991-0.37465 0.30656-0.55951 4.0023-3.563 6.7754-10.033 7.6426-14.876l0.86466-0.32844c-0.7359 5.2303-3.7274 12.17-8.0846 15.821-1.8299 13.535-8.0056 27.993-11.583 32.04z"/>
   <path d="m92.657 135.58c3.4798-2.6656 8.3227-2.7982 14.108-0.23671 0.99518 0.44097 0.8516 0.80574-0.16898 0.42862-5.8695-2.1689-10.132-2.0962-13.674 0.18556-0.89323 0.57538-1.168 0.31468-0.26423-0.37747"/>
   <path d="m103.69 175.86c-2.3636 0.90875-5.2017 0.74401-7.9089-2.1682-3.967-4.2686-5.2818-12.983 0.16051-20.641 1.016-1.4302 1.8531-1.306 1.8598 0.58561 0.03775 11.485 2.0648 15.175 6.4527 15.502l-0.0952 0.83397c-5.0401-0.30939-7.2796-4.7978-6.9776-16.372 0.02752-1.0569-0.11783-1.0552-0.70661-0.19367-4.9477 7.239-3.7853 15.543 0.02646 19.643 2.1523 2.3156 4.6764 2.9129 7.2281 1.9251z"/>
   <path d="m132.92 134.24c-3.1253-1.0513-6.6492-3.6622-8.3679-6.4318-0.68827-1.1091-0.35666-1.3582 0.42933-0.31679 1.9248 2.5502 5.1407 4.8934 8.0317 5.8988z"/>
   <path d="m128.47 131.35c-1.572 9.785-9.7628 23.25-15.615 30.06l-0.629-0.45931c5.7781-6.9187 13.915-20.465 15.38-30.256z"/>
   <path d="m142.9 119.69c-2.5792 1.4753-4.6704 3.441-6.6954 5.8282-0.76236 0.89817-1.1363 0.64911-0.40993-0.34572 1.7141-2.3477 3.8707-4.7936 7.1402-6.6287z"/>
   <path d="m150.91 133.25c-5.6787 3.4138-9.9949 4.5579-13.295 4.7936-4.2856 0.30692-6.0184-1.9149-4.5427-5.938 0.3757-1.0241 0.81491-0.87877 0.52105 0.16793-0.97508 3.4699 0.47343 5.007 3.9631 4.7583 2.981-0.21308 7.2976-1.2234 12.804-4.3875z"/>
   <path d="m150.23 132.86c-0.66216-0.91652-0.33972-1.1882 0.41275-0.34431 2.981 3.3433 7.0323 3.8566 9.1758 1.8747 1.7194-1.5903 0.6925-8.3298-4.62-14.406-0.31467-0.35983-0.34148-0.45297-0.29492-0.82797 0.68474-5.5192-0.95179-9.512-3.804-10.195-2.486-0.59443-5.7654 2.4546-7.0266 6.611-1.3843 4.5621-0.46284 8.5196 2.0486 10.085 1.4912 0.93028 3.5144 0.91899 5.2768-0.58561 0.30762-0.26246 0.43992-0.26458 0.70238-0.0152 1.808 1.7177 3.2639 3.7948 4.136 5.6857 0.45438 0.98707-0.0268 1.2157-0.48084 0.2279-0.85196-1.8461-2.2165-3.5348-3.9906-5.2063-1.8143 1.5857-4.1406 1.8292-6.1172 0.59655-2.7753-1.7307-4.118-5.9274-2.5492-11.098 1.5191-5.0031 5.2765-7.8105 8.1943-7.1124 3.7606 0.90064 5.2095 5.2123 4.3917 11.19 5.727 6.2473 7.0157 13.686 4.8468 15.691-2.4458 2.2613-7.3826 1.8697-10.302-2.171"/>
   <path d="m152 125.41c-0.57008 1.4266-0.84067 2.2514-1.1451 3.4463-0.26071 1.0227-0.72426 0.96978-0.53552-0.0843 0.21802-1.2188 0.46179-2.0638 0.83785-3.0893z"/>
   <path d="m155.25 119.44c1.7572-1.5275 2.7541-3.8051 2.7838-6.5169l0.68721-0.10583c0.0811 2.9351-1.0305 5.6667-3.0748 7.1374z"/>
   <path d="m152.02 134.27c-4.0862 6.6636-13.723 6.7716-16.523 3.2738l1.1331-0.0155c2.6811 2.4455 10.953 2.3372 14.839-3.7543z"/>
   <path d="m151.88 108.75c-0.87207-2.0567-0.84526-5.6434 1.0961-8.7845 2.4797-4.0104 6.8054-5.6265 9.9977-3.9973 3.7405 1.9096 4.6598 8.0684 2.1939 12.917 2.6448 5.5598 3.81 10.182 3.5211 14.324-0.34608 4.9565-3.0607 6.5878-6.5751 5.6706l0.30974-0.77011c2.848 0.59761 5.026-0.59972 5.3312-4.9671 0.28081-4.0287-0.71296-8.4279-3.2882-13.923-0.11818-0.25188-0.10054-0.43144 0.0346-0.70767 2.3858-4.8747 1.1215-10.258-1.9057-11.804-2.8261-1.4425-6.5497 0.19085-8.7581 3.7641-1.977 3.1972-1.8292 6.4386-0.84349 8.8554z"/>
   <path d="m154.69 111.48c1.4079 1.1282 3.1514 1.3441 4.9036 0.74401 0.32173-0.11006 0.48401-0.0755 0.67451 0.17039 2.679 3.4657 4.3113 8.5863 4.1159 12.675-0.0141 0.2854-0.0487 0.39794-0.21097 0.66076-1.0749 1.7364-2.1699 4.039-3.0759 6.877l-0.12594-1.5744c0.84526-2.4525 1.6108-4.3624 2.5964-5.9196 0.17886-3.9515-1.209-8.6201-3.8015-12.119-1.675 0.60325-3.387 0.46038-4.826-0.34713z"/>
   <path d="m122.08 146.84c2.6113-0.0822 4.9223-0.0554 7.4979 0.0625 1.5917 0.0727 1.8002 0.58913 1.1038 1.9075-2.9566 5.5961-7.5269 12.35-11.534 17.634l-0.66146-0.54328c4.0742-5.2631 8.5369-11.972 11.592-17.4 0.43427-0.77188 0.375-0.83855-0.54222-0.89676-2.6532-0.16863-5.0736-0.0889-7.8719 0.0293z"/>
   <path d="m124.19 260.32c-0.0459-1.0153 1.5441-2.1572 4.7551-2.6846 3.3764-5.5242 5.436-16.454 4.7477-20.339-0.79093-4.4651-8.1202-20.615-11.563-24.35-7.9432-1.4961-13.822-6.6354-16.864-16.254-2.3753-7.5092-2.7083-17.49-1.118-29.102 0.20497-1.4979 0.73025-1.4383 0.57891 0.0656-1.173 11.671-0.73307 21.278 1.6224 28.724 2.8783 9.0992 8.3636 14.183 15.878 15.662 0.27764 0.0547 0.35489 0.0885 0.54575 0.29139 3.7373 3.9691 10.883 20.111 11.729 24.834 0.86995 4.857-1.6785 15.703-4.8623 20.893-0.15487 0.25258-0.27728 0.3429-0.59055 0.3884-3.3881 0.48931-3.9705 1.6164-3.9589 1.8708 0.0346 0.75883 2.0376 2.0373 8.6678 1.8493 5.2793-0.14605 8.062-1.7096 8.062-2.5467 0-0.42439-1.0033-1.24-4.2556-1.8598-0.34678-0.066-0.41169-0.10619-0.56585-0.37007-2.0394-3.4904 0.0857-12.771 2.3019-13.293 2.7002-0.63358 10.976 7.299 15.896 13.754 0.16827 0.22084 0.1718 0.38347 0.1143 0.65794-0.22719 1.0837 1.2778 2.9323 7.9541 3.1256 6.1119 0.17991 8.316-1.3293 8.3615-2.0098 0.0649-0.98813-4.8634-3.4156-11.217-2.9891-0.30938 0.0208-0.43674 0.01-0.73025-0.1457-5.4063-2.8681-15.313-14.569-18.62-20.29-3.3355-5.7725-7.4281-18.63-7.4129-25.952 0-0.36266 0.0434-0.46849 0.31927-0.72919 3.8587-3.6446 5.9461-9.3331 5.3724-14.746-0.89923-8.4878-10.99-20.976-27.718-33.947-0.96838-0.75106-0.65405-1.173 0.33902-0.45367 16.606 12.019 27.469 25.023 28.455 34.329 0.59725 5.6324-1.6489 11.758-5.8879 15.522-0.0141 6.9441 3.894 19.774 7.2379 25.559 3.326 5.757 13.382 17.454 18.416 20.073 6.3193-0.52846 12.519 1.7067 12.374 3.8425-0.12559 1.8598-4.2781 2.8497-9.3165 2.704-7.9061-0.22966-9.2534-2.4342-8.6335-4.1286-4.9823-6.319-12.96-13.957-15.083-13.368-1.8154 0.50412-3.5966 9.1585-1.8517 12.089 2.9552 0.54716 5.049 1.4312 5.049 2.6472 0 1.8429-4.1906 3.1214-8.9609 3.2537-5.9309 0.1644-9.4841-0.7373-9.567-2.5767"/>
   <path d="m139.34 257.85c3.586-1.7402 10.699-2.243 15.304-0.1658l0.31503 0.91934c-4.4464-2.1583-10.981-1.723-14.63-0.46461z"/>
   <path d="m119.9 167.12c-1.4848-0.0892-2.7721-0.0801-4.0453-7e-3 -0.71332 0.0413-0.72108 0.0988-0.14358 0.32632 3.7916 1.4951 7.184 3.1172 9.3645 4.3205l1.3787 1.5953c-3.6537-2.1227-7.087-3.7179-11-5.3541-1.633-0.68297-1.4344-1.343 0.34819-1.488 1.1419-0.0931 2.0645-0.1136 3.362-0.0871z"/>
   <path d="m125.49 172.27c-0.0614 4.62-0.16933 8.3785-0.39899 11.542-0.14252 1.9667 0.39652 2.0549 1.5646 0.65264 1.8277-2.1939 3.2336-4.4651 4.1162-6.6234l-0.5461-0.61807c-0.8636 2.3301-2.2694 4.6013-4.0432 6.8485-0.50236 0.63641-0.55986 0.62653-0.48472-0.22895 0.28504-3.2484 0.43356-6.858 0.54116-10.898z"/>
   <path d="m120.26 188.56c-3.5952 1.1811-7.0446 9.1817-4.7434 15.478 1.9942 5.4546 9.3243 7.614 12.718 6.3648 3.3598-1.2365 7.916-7.5999 5.286-14.305-2.1131-5.3862-9.4259-8.7965-13.26-7.5371m-0.25012-0.75036c4.3878-1.4414 12.294 2.4155 14.44 7.886 2.6942 6.8665-1.863 14.007-5.9059 15.495-3.8005 1.3995-11.838-0.92181-14.002-6.8425-2.2691-6.2078 0.88795-15.033 5.4681-16.538"/>
   <path d="m82.254 120.69c-5.1417 6.797-8.1474 17.41-9.4841 25.405-0.2025 1.2118-0.71155 1.1779-0.57326-0.0543 0.91122-8.1019 4.0721-19.03 9.368-25.871z"/>
   <path d="m72.525 146.01c-8.1291 7.8624-8.2748 12.079-7.2171 29.391 0.01693 0.27834 0.0053 0.34043-0.08819 0.63747-2.37 7.5286-4.1254 13.774-5.4557 19.549-0.05045 0.21907-0.12594 0.3683-0.28998 0.55986-1.6221 1.8926-2.2123 4.2979-2.3996 6.084-0.51153 4.887 1.0135 7.6556 2.0662 7.6824 1.3123 0.0469 2.9598-2.1452 3.598-6.6989 0.387-2.7633 0.14958-5.3128-0.61807-7.2006-0.09525-0.23389-0.11148-0.36301-0.08502-0.62548 0.48013-4.783 1.9537-9.9526 3.7719-13.032 0.54292-0.91969 0.9405-0.68756 0.45014 0.26106-1.6926 3.2734-3.0349 8.2236-3.4851 13.012 0.97578 2.0595 1.2026 4.807 0.79269 7.735-0.72954 5.2014-2.7785 7.3247-4.4386 7.2834-1.984-0.0515-3.3627-4.0386-2.8931-8.5235 0.19579-1.8658 0.89041-4.56 2.7686-6.5867 1.3533-5.9069 3.102-12.254 5.5425-19.995-1.3434-18.166-1.2894-22.089 8.0701-30.607z"/>
   <path d="m65.53 183.63c0.78211 5.1001 1.5494 10.783 2.1502 15.706 0.02716 0.22401 0.01094 0.34748-0.07726 0.57961-1.1462 3.0117-0.86395 5.7415-0.41592 7.5322 1.0283 4.1039 3.5274 6.1838 4.8803 5.8371 1.1257-0.28787 2.1392-3.0946 1.234-7.2108-0.4953-2.255-1.5438-4.3494-3.1242-6.3532-0.1785-0.22649-0.21237-0.30586-0.28434-0.58844-1.3949-5.4836-2.0683-12.636-1.7784-17.012 0.0695-1.0509 0.55562-1.0107 0.52211 0.0416-0.14041 4.4002 0.70626 11.472 2.0267 16.928 1.7261 2.0341 2.9344 4.4672 3.4586 6.8541 0.87207 3.9666 0.04445 7.5512-1.8785 8.0433-1.8683 0.47661-4.7706-1.9297-5.8805-6.3592-0.47378-1.8923-0.73131-4.9357 0.5715-8.1033-0.57468-4.7255-1.1571-10.042-1.9029-14.999z"/>
   <path d="m68.34 185.09c1.1522 2.1876 3.1344 6.5497 5.1252 11.159l0.25047-1.1765c-1.6644-3.7758-3.665-8.0296-5.3823-11.299z"/>
   <path d="m66.35 203.11c-0.80363-2.0764-1.9329-3.6287-3.1242-4.1635l-0.09278-0.75565c1.3137 0.41804 2.7104 1.9054 3.5324 3.7507z"/>
   <path d="m73.426 197.8c-0.5708 0.96449-1.0844 2.2013-1.4965 3.7066l-0.5588-0.77082c0.4639-1.4439 1.1063-2.661 2.0207-4.0573z"/>
   <path d="m87.64 134.67c-2.0055 3.284-4.7946 6.8368-9.0974 11.357 0.83432 3.4611 0.54222 6.284-0.63182 8.2582-3.1468 5.2892-5.6974 10.099-8.2003 15.64-1.2256 2.7111-1.1652 5.1929-0.67169 7.1692 0.89535 3.5814 3.2332 9.4731 5.6801 14.355l-0.39017 0.98037c-2.5294-4.9745-5.1252-11.468-6.0519-15.174-0.51047-2.0429-0.59514-4.8179 0.68792-7.657 2.5107-5.5566 5.0186-10.43 8.1742-15.734 1.0957-1.8419 1.2823-4.305 0.66358-7.6952-0.06244-0.34184-0.03951-0.43215 0.19685-0.69073 4.2136-4.6105 7.1564-8.3929 9.1302-11.671z"/>
   <path d="m64.383 165.2c-3.0501-2.6723-3.4071-7.3798-2.3428-10.468 1.119-3.2473 4.2937-5.8854 7.8211-6.6153l-0.76588 0.89217c-2.7753 0.91934-5.2433 3.2904-6.1722 5.9845-0.90417 2.6236-0.86042 6.5885 1.451 9.2876z"/>
   <path d="m77.224 188.05c0.3422-5.2162 7.8839-18.897 15.643-26.31l-0.07091 1.1546c-6.877 7.3395-14.067 20.074-14.428 25.013z"/>
   <path d="m77.602 188.38c-2.0362 0.65229-5.1544 7.7308-3.1256 13.2 2.9951 8.0726 10.825 7.8835 13.865 5.267 2.8014-2.4098 2.5308-7.1243-0.97966-11.768-4.5141-5.9718-8.5482-7.087-9.76-6.6989m-0.24095-0.75424c2.1258-0.68086 6.7698 1.494 10.83 6.8654 3.5673 4.7188 4.0164 10.141 0.72072 12.976-3.7543 3.2297-12.364 2.6218-15.401-5.5644-1.8369-4.953 0.78846-13.296 3.8502-14.277"/>
   <path d="m81.29 207.05c-0.387-0.21978-0.76835-0.49283-1.1268-0.86007-0.57679-0.59091-0.19015-0.98566 0.39299-0.40217 0.33726 0.3369 0.64841 0.6223 0.99801 0.88441 0.57291 0.42934 0.28998 0.69321-0.26423 0.37783"/>
   <path d="m78.228 203.69c-2.3241-3.7476-2.716-8.7496-2.1142-12.013 0.18556-1.0075 0.58173-0.94297 0.45473 0.0737-0.39405 3.1489 0.133 7.8941 2.1304 11.662 0.50624 0.95462 0.0762 1.1585-0.47096 0.27658"/>
   <path d="m56.361 253.7c-5.3404 0.22154-10.693-1.3314-10.435-3.4396 0.14464-1.1868 2.6878-2.1326 6.8488-2.1452 2.582-4e-3 5.734 0.42969 8.1414 1.5265 4.6359-0.63605 15.511-7.4799 19.075-14.509 2.6352-7.3402 4.4679-17.907 5.2687-24.597-0.94298-0.31432-2.1756-0.93944-3.4255-1.682l1.8651-0.0466c0.78846 0.44415 1.4076 0.71932 2.0609 0.94086 0.39864 0.13511 0.45649 0.21837 0.40393 0.65511-0.8442 7.0379-2.7732 17.697-5.4169 25.057-3.5976 7.0993-14.091 14.013-19.594 14.941-0.29563 0.0501-0.49036 0.0141-0.77364-0.10548-2.2416-0.94333-5.3157-1.3-7.5935-1.3-4.5843 0.0141-6.0805 0.92181-6.1362 1.3787-0.08396 0.68862 2.9792 2.8046 10.12 2.4409z"/>
   <path d="m88.114 239.99c4.1222-3.7765 10.843-9.7843 14.326-13.316 1.0188-1.0322 0.74577-1.2365-0.56515-0.68756-4.3053 1.803-9.5317 4.3988-14.455 7.2344l0.21414-1.0269c4.1148-2.352 9.5754-5.0169 14.015-6.7296 2.0373-0.78599 2.7993-0.10795 1.2009 1.6143-3.3694 3.6311-9.8033 9.5254-14.257 13.636-5.5287 7.7396-9.5119 12.365-15.565 14.566-5.4472 1.9816-17.15 1.6066-16.991-1.754 0.0702-1.4651 3.1814-2.5227 7.8207-2.6952 3.5818-0.13335 6.6199 0.48401 8.1456 1.7695 0.71543 0.60255 0.45085 0.87172-0.34996 0.37465-1.6609-1.0315-4.0072-1.4132-7.7731-1.2933-4.8331 0.15064-7.0735 1.2062-7.1056 1.8743-0.10442 2.1738 10.839 2.8836 15.958 0.9525 5.51-2.0789 9.621-6.5627 15.021-14.104 0.12418-0.17356 0.1718-0.24165 0.36195-0.41592"/>
   <path d="m96.986 210.5c-4.8034 7.645-7.087 14.732-9.6488 24.004-0.29704 1.0767-0.77117 0.98179-0.52-0.12629 2.0786-9.1669 4.6824-16.702 9.0015-23.567z"/>
   <path d="m107.01 199.66c-0.43356 6.4601-5.8759 10.858-13.683 11.996-1.295 0.18873-1.3892-0.22437-0.09313-0.50836 7.4676-1.6383 12.604-6.0187 12.948-13.375z"/>
   <path d="m168.2 120.75c0.50271-1.1832 1.2958-2.625 2.2147-3.9568 0.24342-2.6296-0.32455-6.0904-1.5409-9.1288-1.065 0.74683-2.6356 0.71296-3.5814-4e-3l0.26353-0.77717c0.74048 0.60501 2.16 0.629 3.138-0.0515 0.39688-0.27552 0.54998-0.25012 0.75389 0.20814 1.3906 3.1263 2.0599 6.9931 1.7808 9.7529-0.025 0.25223-0.0787 0.37817-0.23989 0.59866-1.0086 1.378-1.7868 2.6984-2.7242 4.7191z"/>
   <path d="m162.15 96.035c1.9106-4.2178 7.547-6.0487 10.524-3.6502 2.7368 2.2034 3.0212 6.2978 1.0784 10.62 3.4996 8.5609 0.19438 15.87-3.962 15.442l0.49107-0.8329c2.9796-0.16158 5.8819-6.1941 2.7929-14.229-0.12418-0.32174-0.11818-0.46461 6e-3 -0.76059 1.7914-4.2577 1.1003-7.8856-0.90981-9.5758-2.382-2.0027-7.4687-0.34678-9.1077 3.4389z"/>
   <path d="m70.202 251.84c2.5615-0.41557 5.3097-3.0473 6.0992-5.2737 0.41557-1.1719 0.2286-1.2936-1.4312-0.3175-2.3618 1.39-7.0171 3.8869-10.094 5.0179l-1.9191 0.018c3.8375-1.3458 9.0816-4.1279 11.665-5.6476 2.2557-1.3275 3.048-0.78105 2.4426 1.1215-0.77929 2.4504-3.489 4.9498-5.7535 5.613z"/>
  </g>
 </g>
</svg>
