<?xml version="1.0" encoding="UTF-8"?>
<!-- Created with Inkscape (http://www.inkscape.org/) -->
<svg version="1.1" viewBox="0 0 384 266.95" xmlns="http://www.w3.org/2000/svg">
 <g transform="translate(106.84 -19.81)" stroke-width="2.5707">
  <path d="m110.08 193.79c5.1678 5.5958 12.976 12.458 20.614 18.089l35.342 4.9902 29.491-26.121c-4.5532-16.139-26.725-22.901-58.614-16.961l-16.717 5.7048c-2.3174 1.372-4.509 2.6182-6.7889 4.1329-0.16607 3.5856-1.4057 7.6071-3.3277 10.166" fill="#005a9e"/>
  <path d="m211.63 122.99c0.16865 0.69383-3.4172-20.097-3.4172-20.097-1.3214-10.722-3.4197-22.579-5.9706-35.532-0.32018-1.6262-0.51488-1.9439-1.8973-3.1655-11.05-9.7716-25.18-19.917-39.259-27.642-2.7064-1.4862-3.2354-0.93504-1.647 1.5536 8.8832 13.925 18.258 29.067 23.541 38.776-3.4095 2.9982-7.3464 5.54-11.102 6.6462-5.8097-4.7231-12.108-9.1958-18.906-13.252-2.8064-1.6755-2.9982-0.81445-2.0956 1.1425 2.4212 5.2444 4.7231 9.8922 7.9806 16.084-7.3894 2.2863-15.558 2.9424-22.659 2.3031l0.52389 28.465c-0.0292 25.414 43.115 48.992 70.531 40.087 3.255-10.049 5.3688-23.303 4.3768-35.367" fill="#005a9e"/>
  <path d="m170.61 145.72-17.739-20.719c-7.3426-15.825-13.674-29.131-20.569-42.552-1.0945-2.1319-1.8843-2.7259-4.3172-3.4432-18.812-5.5503-41.516-9.1439-62.758-8.9829-3.9825 0.0292-4.0383 0.80794-1.0206 2.5794 29.794 17.484 60.321 35.786 79.03 50.614-2.875-0.85071-4.6413-0.21646-5.5763 1.5588 6.3712 22.707 44.583 41.637 69.639 33.545-11.386-1.599-25.828-6.938-36.689-12.597" fill="#fff9c5"/>
  <path d="m168.86 135.36c2.9866 8.9351 2.3187 16.865-2.1605 18.362-4.4791 1.4978-10.336-4.2069-13.322-13.142-3.2887-9.8351-0.99205-17.779 2.4601-18.932 3.6881-1.232 9.769 3.9825 13.023 13.712" fill="#fff"/>
  <path d="m158.76 136.21c-0.96093 6.5231 3.0411 14.534 6.7161 13.483 1.7248-0.49154 2.657-2.8529 2.4549-5.9472-3.2588-1.5315-6.4647-4.3339-9.1711-7.5359" fill="#ef9aa4"/>
  <path d="m182.2 92.66c5.2287-1.1204 12.98-0.13241 17.595 3.2784-2.1605-9.3603-6.7071-22.233-10.577-25.786-3.91 5.3637-10.891 11.487-17.327 13.383 3.6349 2.9542 7.0678 6.0095 10.308 9.1256" fill="#57c1e8"/>
  <path d="m146.08 110.53c4.8632-5.1236 13.021-10.251 20.038-13.157-1.0803-3.692-2.7013-7.9223-4.4105-10.848-8.1557 3.0994-17.636 4.0123-25.706 3.2537 3.3627 6.7177 6.6565 13.527 10.078 20.752" fill="#57c1e8"/>
  <path d="m155.83 121.63c3.6881-1.232 9.769 3.9825 13.023 13.712 1.1114 3.3277 1.7157 6.5138 1.8065 9.2814 5.3714-7.4734 9.5575-22.17 8.4696-23.715-1.3824-1.9608-20.293-3.6532-24.808 1.7338 0.46295-0.48892 0.97259-0.83256 1.5095-1.0128" fill="#e2eef4"/>
  <path d="m155.83 121.63c-1.4006 0.46815-2.6118 2.0554-3.3354 4.4339 2.7907 7.1467 10.673 16.92 18.168 18.642-0.0817-2.7856-0.68861-6.0043-1.8104-9.3631-3.2537-9.73-9.3346-14.945-13.023-13.712" fill="#005a9e"/>
  <path d="m162.23 139.83c-0.37738 3.3588 0.92981 6.4737 2.0645 6.2688 0.85723-0.15559 1.1697-1.7533 1.0478-3.8231-1.0621-0.71194-2.106-1.5367-3.1123-2.4458" fill="#fff"/>
  <path d="m203.74 120.27c2.6416 1.2216 5.8072 2.2111 8.0339 2.7115 3.6259-7.6953 3.5519-20.146-2.5884-20.146-2.9956 0-7.9624 4.71-9.3526 9.8274 2.6753 3.0851 3.4522 4.8203 3.9074 7.6071" fill="#e2eef4"/>
  <g fill="#ef9aa4">
   <path d="m136.7 118.26c-5.2573-3.8632-11.146-7.9092-17.502-12.077-11.332 19.985 4.3041 54.228 38.822 66.308 13.666 4.784 36.617 1.3176 43.416-12.794-24.137 3.7555-63.765-14.485-64.737-41.437"/>
   <path d="m136.01 89.781c3.4858 0.32827 7.231 0.34223 11.022 2e-3 -2.8231-5.1354-8.7133-7.912-14.946-7.7264 0.0673 0.12579 0.13756 0.25706 0.20873 0.39553 1.2553 2.4406 2.4873 4.885 3.7141 7.3362 0-2e-3 1e-3 -7e-3 1e-3 -7e-3"/>
   <path d="m76.189 70.269c7.4035 0.36576 14.868 1.136 22.183 2.2422-3.6064-3.9177-7.0066-8.7835-10.354-14.491-13.088-22.317-33.308-37.871-56.92-37.478-24.772 0.41367-34.262 13.62-32.406 20.433 1.8895 6.9316 11.758 10.193 30.336 7.5619 18.11-2.5651 36.406 5.4843 47.159 21.731"/>
   <path d="m82.816 83.611c8.6626 19.284 22.244 28.128 37.128 25.327l0.66786-1.8298c-11.439-7.5513-24.423-15.516-37.797-23.497"/>
  </g>
  <path d="m20.747 26.26c0.61984 1.3332-0.68735 3.5442-3.9619 5.0627-3.0552 1.4187-5.7164 1.1321-6.3454-0.22416-0.53817-1.1619 0.27238-3.491 3.7581-5.1082 3.036-1.4083 5.8915-1.1464 6.549 0.26982" fill="#f7cfd2"/>
  <path d="m276.52 44.897c-0.48112-2.3667-5.221-4.7257-13.548-3.0152-10.062 2.0671-13.92 6.2182-11.118 9.1814-5.2598 3.0061-12.154 5.9809-18.897 8.5071-3.0398 1.1361-3.5779 0.61344-1.433-2.0165 2.5871-3.1732 6.1223-6.8264 8.9884-9.3708 12.215-3.7141 17.255-10.02 16.069-12.198-1.1594-2.1242-7.3374-2.5948-14.583 0.85592-11.102 5.2858-12.507 11.307-8.3359 11.919-5.3598 6.0184-13.568 14.164-21.111 20.385-3.3082 0.49408-6.4077 1.1879-9.5122 2.3252 1.2397 6.4282 2.3537 12.578 3.3018 18.441 5.1146-5.7177 10.813-12.452 15.135-18.098 7.9197-6.5712 24.978-14.898 38.3-19.084 11.477-0.0894 17.328-4.9501 16.743-7.8315" fill="#005a9e"/>
  <path d="m208.6 69.858c1.2903-0.28267 2.6002-0.51877 3.9449-0.72105 5.9264-4.8863 12.256-10.958 17.301-16.257 1.1982-4.9395-4.5064-5.8668-12.292-0.56413-7.5112 5.1146-7.9184 10.638-3.5169 10.29-1.398 2.6637-3.2912 5.1835-5.4362 7.2518" fill="#005a9e"/>
  <path d="m231.53 57.545c-2.1436 2.63-1.6054 3.154 1.433 2.0165 6.7447-2.5262 13.637-5.501 18.899-8.5071-0.8585-0.90776-1.0893-1.9258-0.71064-2.9632-1.778-0.2514-3.4794-0.99594-4.6038-2.1942-1.7701 0.8196-3.7763 1.5925-6.0277 2.2772-2.866 2.5444-6.4025 6.1974-8.9896 9.3709" fill="#fff9c5"/>
  <path d="m97.261 187.7c8.6668-11.784 23.335-25.346 33.519-32.606-11.076-11.642-16.444-26.046-14.998-38.234-14.46 10.074-24.784 26.133-34.092 53.997-24.424-3.674-47.563 0.46425-60.822 8.9002-12.092 7.694-17.17 19.918-15.9 31.264-4.33 4.2576-10.377 8.738-16.896 12.902 2.4276-2.4367 1.0491-2.7907-2.1125-1.4512-6.4801 2.7455-16.831 8.0105-28.038 14.221-12.062 3.2861-26.552 7.786-37.894 11.702-3.3899-3.0527-9.6444-3.6753-16.355-1.0154-8.8133 3.4922-10.827 9.1608-9.5212 12.67 1.4161 3.8113 7.7328 5.6282 16.348 3.4663 5.4958-1.3798 10.817-4.3717 13.174-8.8662 11.521-4.7257 23.222-7.5151 32.719-6.6606 2.3278 0.20873 2.8699 1.7468 0.89999 4.0059-6.7812 7.7719-12.745 20.018-13.657 27.666-5.0056 2.6868-3.9812 5.6801 0.92076 6.1326 9.3994 0.86756 23.388-0.0184 23.536-2.0256 0.1113-1.4992-7.6732-4.4169-14.638-4.8539-1.3708-12.6 4.1601-20.203 21.484-32.925 10.87-7.9832 26.439-15.865 40.56-19.485l36.257 1.4888c12.628-6.2637 29.311-22.051 40.578-36.414 1.2605 0.23599 2.5612 0.24526 3.9293 0.0258-0.57059-0.71459-0.40849-1.9919 0.99727-3.9048" fill="#005a9e"/>
  <path d="m111.63 182.86c-8.3696 6.9431-14.159 9.6742-19.29 8.7184-1.5302 1.9504-3.1604 3.9267-4.867 5.9004 10.563 8.2205 25.215 0.79884 25.935-13.859 0.0855-1.7675-0.21387-2.0594-1.7792-0.75994" fill="#005a9e"/>
  <path d="m57.832 215.23c-0.96481-7.2791-15.256-14.92-27.722-12.72-10.9 1.9245-17.22 10.92-16.261 19.202 1.018 8.778 12.123 15.65 23.641 13.2 13.261-2.8206 21.285-12.569 20.342-19.682" fill="#e2eef4"/>
  <path d="m77.778 182.76c-3.2614-3.6907-6.4907-6.803-12.359-10.471 0.84551-0.87924 1.8856-1.7844 3.3563-2.6545-10.29-0.43183-20.044 0.49149-28.565 2.4821 3.8126 1.1218 7.5033 2.5846 10.919 4.1213-1.9854 4.8735-4.0616 11.294-5.3352 17.17-0.57709 2.6663-0.3099 3.0956 1.6016 0.98165 4.4637-4.9357 10.218-10.67 14.934-14.804 4.6413 1.114 9.5536 2.7128 14.257 4.666 2.4095 1.0024 3.0774 0.64452 1.1905-1.4914" fill="#57c1e8"/>
  <path d="m-42.707 251.99c1.9699-2.2591 1.4291-3.7971-0.89999-4.0059-9.4966-0.85465-21.198 1.9348-32.719 6.6604-0.74696 1.4252-1.7948 2.6974-3.0488 3.8166 11.14 1.0011 20.038 9.2904 23.293 19.456 1.5056-7.6668 7.0845-18.718 13.374-25.928" fill="#fff9c5"/>
  <path d="m65.744 169.52c5.1912 0.0855 10.538 0.51354 15.948 1.328 1.3201-3.9514 2.6624-7.6578 4.0318-11.151-8.9688-5.3156-19.991-11.28-30.131-15.97-2.665-1.232-3.1966-0.85589-2.4069 1.3708 3.0514 8.5966 7.6421 18.804 12.557 24.423" fill="#005a9e"/>
  <path d="m218.29 257.03c-13.307-2.2201-33.29-10.621-45.172-20.403-3.0372-9.2722-6.0755-17.503-9.6158-25.617 0 0-22.456-20.658-22.173-20.534-4.3483-17.621-6.558-26.568-12.796-34.295-13.159-16.305-15.173-17.084-16.248-14.138-5.322 14.605-2.4406 24.385 9.4071 39.506 3.7465 4.784 7.0662 9.7806 9.223 14.29-4.5455 11.274-1.1969 21.458 16.144 32.57 5.8732 3.7619 11.801 7.467 18.073 12.37 1.1646 7.6305 0.0609 16.833-4.5868 23.816-4.2704 0.45388-6.9665 2.381-7.0197 3.5506-0.10262 2.2318 5.955 4.1938 15.256 3.9619 8.4449-0.2113 13.003-1.5121 13.098-3.6907 0.0416-0.95574-1.516-2.2318-4.0902-2.9802-2.6169-3.1915-3.5753-7.1598-3.246-12.188 0.13499-2.0671 0.8961-2.6753 2.9709-1.8012 9.0932 3.8321 18.777 9.0804 25.589 14.2-1.9764 0.62118-3.1306 1.7728-3.1306 2.6339 0 1.8674 5.7735 4.7048 16.787 4.2303 7.6344-0.32789 13.142-2.7272 13.142-4.9059 0-0.59395-0.63934-1.2333-1.7339-1.8441 6.0262-0.15044 9.3955-2.0075 9.6107-4.0966 0.25296-2.4601-6.2791-6.5035-19.488-4.6362" fill="#005a9e"/>
  <path d="m160.94 220.96c4.1043-2.1462 3.2694-15.775-1.0803-22.084-6.7033-9.7248-15.664-11.482-21.724-6.4205-5.4609 4.5596-5.3365 15.437 0.3606 20.942 8.9416 8.6421 18.249 9.7534 22.444 7.5619" fill="#e2eef4"/>
  <path d="m167.16 219.91c8.3138 2.5482 20.216 0.86238 28.506-8.4981 5.9123-6.6735 4.5246-17.232 0.84034-19.923-2.3045-1.6833-8.6873-1.8596-18.144 3.985-6.466 3.9956-12.372 10.286-13.681 18.318 0.8507 2.0217 1.6755 4.0565 2.4782 6.1184" fill="#e2eef4"/>
  <path d="m203.1 265.64c-6.8123-5.1197-16.495-10.368-25.589-14.2-2.0749-0.87405-2.8362-0.26578-2.9709 1.8-0.32938 5.0277 0.62896 8.9973 3.2447 12.189 1.0322 0.2996 1.8921 0.68597 2.56 1.101 3.2758-2.5743 12.545-3.3563 22.702-0.87016 0.0184-7e-3 0.0331-0.0147 0.0532-0.0184" fill="#fff9c5"/>
  <path d="m113.46 169.47c-5.2663 5.1755-13.536 14.23-16.202 18.228-1.0802 1.621-1.4096 2.9023-0.99729 3.9033 4.7789-0.91038 10.221-4.2653 15.361-8.7444 1.4265-1.2436 1.8246-1.0647 1.7792 0.75996 1.905-1.3656 4.4701-2.9177 6.7876-4.1329-2.3174-2.8362-5.1976-7.0663-6.728-10.014" fill="#fff9c5"/>
  <path d="m139.04 222.43c-6.9226-1.3383-14.518-1.9828-21.439-2.1838 1.6184 10.001 7.6603 20.054 16.105 24.402 10.7-0.71712 19.399 1.9465 19.353 3.8904-0.0506 2.1501-11.828 3.4365-21.503 1.8441-3.4028-0.56022-3.9876-2.0918-2.8388-3.0046-4.7503-2.892-10.158-8.3112-14.62-13.685-1.5601-1.8791-2.648-1.8389-4.2496-0.30878-3.1527 3.0164-3.6868 12.134-0.10262 16.282 8.93-0.0712 18.124 2.3875 18.124 4.0954 0 2.4808-10.944 4.2886-23.807 2.6118-4.5208-0.59007-4.9668-3.5339-2.1501-5.3259-3.7375-6.9107-0.81962-26.365 3.0722-35.786-0.62896-5.1755-1.3539-10.476-2.2085-15.493 1.7377-0.70938 3.3627-1.7338 4.7943-3.0475 2.6545 5.2066 5.3041 10.723 7.8742 16.225 4.1681-1.2462 8.3891-2.3706 12.507-3.2072 0.79497 0.58876 1.5251 1.1062 2.3784 1.5938 1.28 3.5041 4.3223 7.5125 8.7107 11.098" fill="#005a9e"/>
  <path d="m213.1 105.64c1.9375 4.0876 1.2514 11.778-1.254 17.198 4.8527-3.0138 4.8254-12.735 1.254-17.198" fill="#004984"/>
  <path d="m147.52 122.87c-7.5436-16.042-18.212-36.072-20.572-38.234-4.946-4.5336-44.784-11.092-62.627-11.938 29.753 17.459 60.223 35.732 78.907 50.539-2.8738-0.84942-4.64-0.21542-5.575 1.5588 2.2136 7.8873 8.2698 15.318 16.278 21.32-8.2932-10.305-10.185-16.441-7.0819-19.652 1.2942-1.3383 1.468-1.8998 0.67177-3.5935" fill="#dbd7ab"/>
  <path d="m142.87 122.97c-2.0022-1.621-4.0992-3.2136-6.1418-4.6853-0.11696 1.442 0.18406 4.3483 0.92075 6.5061 0.70935-1.4148 2.3836-2.4795 5.221-1.8207" fill="#004984"/>
  <path d="m167.65 132.25c0.43057 0.9791 0.83775 2.0075 1.2034 3.1033 1.1114 3.3264 1.7157 6.5125 1.8052 9.2814 5.3377-7.4231 9.4992-21.967 8.4889-23.675-3.3781 4.5195-7.3128 8.3762-11.498 11.29" fill="#c0cad0"/>
  <path d="m200.48 113.41c2.1618 2.6272 2.853 4.3002 3.2694 6.8498 2.6416 1.2229 5.8059 2.211 8.0339 2.7115 1.5652-3.3213 2.4393-7.5305 2.4341-11.242-4.3092 1.2255-9.4526 1.918-13.737 1.6807" fill="#c0cad0"/>
  <path d="m157.6 87.879c1.7961 3.4884 3.5313 7.2673 4.902 11.154 1.2268-0.60562 2.4432-1.1646 3.6259-1.6534-1.0803-3.692-2.7013-7.921-4.4105-10.847-1.3396 0.50837-2.7182 0.95319-4.1174 1.3461" fill="#4ba8ca"/>
  <path d="m199.78 95.925c-2.1605-9.3618-6.7071-22.234-10.577-25.789-0.82999 1.1386-1.8052 2.3109-2.8763 3.4704 2.9815 5.5609 6.5593 13.611 8.5655 19.885 1.8116 0.59782 3.4935 1.4032 4.8876 2.4328" fill="#4ba8ca"/>
  <g fill="#004984">
   <path d="m197.7 67.956c-2.1462-3.5586-23.93-20.167-36.74-27.57 5.5555 8.4696 17.223 27.881 22.021 36.511 2.1022-1.634 4.5596-4.5336 6.2249-6.7382 3.7802 4.0046 8.4164 16.789 10.532 25.293l-0.65875 0.75215c2.0905 0.99984 3.6298 0.74568 3.5285-1.7987-0.24525-6.1989-2.7532-22.873-4.9084-26.45"/>
   <path d="m151.4 72.506c18.482 10.456 45.935 39.288 48.714 46.239 2.1605 5.3999 5.6138 27.257 6.3933 37.519-6.3323-19.817-23.676-45.203-41.079-58.645l0.69119-0.25398c-0.74441-2.8581-2.5431-7.5398-4.4118-10.847-0.90002 0.336-1.8273 0.66791-2.8491 0.97522-2.665-4.9136-5.5971-10.955-7.4606-14.99"/>
   <path d="m165.13 142.12c1.8143 1.2462 3.6894 2.1644 5.5388 2.5884-0.0804-2.7856-0.68733-6.0043-1.8091-9.3631-1.0945-3.2732-2.5119-6.0198-4.0472-8.1984 1.3824 5.92 1.4213 11.103 0.31761 14.973"/>
   <path d="m276.52 44.897c-0.0907-0.4461-0.3334-0.89095-0.72102-1.3085-0.89352 3.2653-9.0996 6.3621-14.879 6.9691-1.7391 0.18433-2.9113 0.2893-4.5233 0.89612-10.241 3.8504-25.119 11.064-34.871 16.745-1.9115 1.1114-2.5703 1.8207-3.7491 3.3768-3.6766 4.8552-7.8847 9.6963-12.164 13.965 0.25296 1.4732 0.49539 2.9308 0.7288 4.3704 5.1146-5.7177 10.813-12.452 15.135-18.098 7.9197-6.5712 24.978-14.898 38.3-19.084 11.477-0.0894 17.328-4.9501 16.743-7.8315"/>
   <path d="m230.63 60.707 0.77676-0.65746c-1.5782 0.33965-1.5691-0.41758 0.12819-2.5016 2.5871-3.1732 6.1236-6.8251 8.9896-9.3696 12.215-3.7141 17.255-10.022 16.069-12.198-0.34885-0.6393-1.158-1.1243-2.3083-1.4018 1.9478 3.7866-5.1809 8.3308-13.827 11.011-1.5795 0.4902-1.9984 0.72881-3.2383 1.9841-3.1046 3.1434-7.1961 7.7979-8.7264 10.424-1.0439 1.787-0.28527 2.901 2.1359 2.709"/>
  </g>
  <g fill="#cf858f">
   <path d="m28.069 40.732c-20.193 2.001-27.684-1.0932-28.136-6.6411-1.3798 2.5158-1.7636 4.9539-1.2371 6.8809 1.8895 6.9303 11.757 10.193 30.334 7.5619 18.11-2.5664 36.406 5.483 47.159 21.731 2.556 0.12579 5.1184 0.3176 7.6783 0.5369-7.9871-19.339-32.403-32.388-55.799-30.069"/>
   <path d="m119.94 108.93 0.66786-1.8298c-1.6262-1.0738-3.2899-2.1566-4.9758-3.246-8.6161 0.56279-17.137-6.5411-20.851-13.038-3.936-2.3952-7.93-4.8033-11.968-7.2128 8.6626 19.284 22.244 28.128 37.128 25.327"/>
   <path d="m137.09 121.97c-0.20747-1.2177-0.33859-2.4574-0.38385-3.7141-5.2573-3.8645-11.146-7.9094-17.502-12.079-11.332 19.985 4.3041 54.228 38.825 66.31 6.9495 2.4328 16.299 2.7272 24.706 0.57581-33.097 2.3213-50.647-29.324-45.645-51.095"/>
  </g>
  <path d="m211.63 122.99c0.18281 2.2215 0.25806 4.483 0.24269 6.7578 1.6716-2.9074 2.9074-7.1249 3.2642-11.783-0.59527 2.1385-2.5003 4.8956-3.5067 5.0251" fill="#fff"/>
  <path d="m103.15 180.42c-2.6922 1.0037-5.4375 1.8324-8.056 2.3473-3.3108 0.65096-4.1393 0.96741-6.6539 3.3534-8.5084 8.0714-22.659 19.246-32.398 25.114 0.98039 1.2968 1.6093 2.6442 1.787 3.9786 0.52912 3.9889-1.765 8.8079-6.2182 12.768l0.14267 2e-3c12.628-6.2637 29.311-22.051 40.578-36.414 1.2605 0.23496 2.5612 0.24369 3.9293 0.0257-0.57059-0.71455-0.4085-1.9919 0.99729-3.9046 1.7468-2.3745 3.7439-4.8202 5.8915-7.274" fill="#004984"/>
  <path d="m111.63 182.86c1.4265-1.2436 1.8246-1.0647 1.7792 0.75994 1.905-1.3656 4.4702-2.9177 6.7876-4.1342-1.2696-1.5536-2.7038-3.5246-3.9969-5.4766-3.4663 2.2007-8.1675 4.601-13.054 6.4205-2.5404 2.8853-4.7308 5.5478-5.8796 7.2699-1.0802 1.621-1.4096 2.9036-0.99729 3.9048 4.7789-0.91037 10.222-4.2652 15.361-8.7444" fill="#dbd7ab"/>
  <path d="m37.49 234.92c13.261-2.8205 21.283-12.567 20.342-19.682-0.17508-1.3124-0.78848-2.639-1.7417-3.9164-15.113 16.326-37.383 15.018-40.635 1.6742-1.3681 2.7673-1.9465 5.7902-1.6055 8.7238 1.018 8.7781 12.121 15.651 23.641 13.2" fill="#c0cad0"/>
  <g fill="#004984">
   <path d="m13.848 221.71c-0.3165-2.7285 0.16221-5.5336 1.3292-8.1374-6.4205-3.6259-9.114-10.015-7.6292-18.758-2.3446 5.2146-3.1825 10.816-2.5794 16.217 0.21131 1.6327 0.71454 4.0318 1.018 5.2457-39.429 27.241-55.331 44.673-57.259 59.046-0.35804 2.6599 0.26578 3.5275 1.9219 3.893l2.8064-0.29447c-1.372-12.6 4.1588-20.203 21.483-32.923 10.869-7.9832 26.434-15.864 40.555-19.485-0.87534-1.4952-1.4485-3.1136-1.6444-4.8036"/>
   <path d="m-34 281.99c-0.52652 1.018-4.5388 1.9141-12.283 1.7844-9.2151-0.15448-11.881-1.5601-11.785-3.0087-2.9398 2.3472-1.608 4.6349 2.6247 5.0251 9.3994 0.86756 23.389-0.0184 23.537-2.0256 0.03676-0.48634-0.7638-1.1231-2.0931-1.7754"/>
   <path d="m-41.815 248.73 0.45516-0.42149c-4.4856-4.4987-20.942-2.2668-35.696 4.0604-1.6301 0.699-2.1994 0.98692-3.2809 2.2279-6.0768 6.9768-22.954 9.092-25.654 1.6781-0.34737 1.3876-0.26321 2.6948 0.14525 3.7907 1.4161 3.8126 7.7328 5.6282 16.346 3.4663 5.4958-1.3785 10.817-4.3717 13.176-8.8662 19.058-7.8159 33.522-7.5837 34.509-5.9354"/>
   <path d="m-11.06 223.43c-5.1393 3.8164-19.576 11.223-26.568 13.982 4.9071-3.6727 19.014-11.295 26.822-15.55 0.0866 0.28673 0.10617 1.044-0.25552 1.5679"/>
   <path d="m82.258 169.21c-8.9377-6.501-21.833-17.924-29.306-25.923-0.18817 0.30218-0.0933 0.9039 0.23599 1.8324 3.0514 8.5966 7.6421 18.804 12.557 24.423 5.1912 0.0855 10.538 0.51354 15.947 1.328 0.18818-0.56154 0.37738-1.1075 0.56673-1.6599"/>
  </g>
  <path d="m130.79 155.1-1.9841 1.3941c3.0203 4.2575 6.4529 11.618 7.9094 16.48 3.7349-1.2631 10.135-3.0475 14.09-3.7077-6.8655-2.9113-15.366-9.3266-20.015-14.166" fill="#dbd7ab"/>
  <g fill="#004984">
   <path d="m94.816 191.76c-0.84686 0.0331-1.6742-0.0147-2.4808-0.16478-1.5302 1.9504-3.1617 3.9267-4.867 5.9017 8.9104 6.9341 20.732 2.7362 24.645-7.5475-6.7254 3.8956-13.658 4.0889-17.297 1.8104"/>
   <path d="m115.78 116.88c-7.1999 5.0149-13.374 11.517-18.908 20.219 10.626-8.0598 16.479-5.7228 19.662 2.1929 2.5314 6.2948 7.2531 13.274 12.295 17.246 0.664-0.498 1.3137-0.97393 1.9465-1.4252-11.076-11.642-16.442-26.046-14.997-38.234"/>
   <path d="m165.57 240.42c-7.1765-9.9156-40.874-24.257-32.447-45.812 1.3137-3.3627 0.84295-4.4105-1.4511-7.021-15.161-17.262-21.834-31.57-18.978-46.357-2.7868 8.2647-8.2115 18.341 9.0063 40.318 3.7478 4.784 7.0663 9.7806 9.223 14.29-4.5454 11.273-1.149 21.385 16.144 32.57 6.676 4.3172 13.645 9.3799 18.503 12.012"/>
   <path d="m173 252.12c-0.44998 3.6468-0.58486 9.1374 1.7559 13.954 4.5454 1.2138 4.2742 4.0046-7.4269 3.7802-9.3955-0.18151-12.569-1.8207-11.302-4.0565-1.5756 0.74953-2.4847 1.6729-2.5145 2.3446-0.10096 2.2318 5.955 4.1938 15.256 3.9619 8.4449-0.21131 13.003-1.5121 13.098-3.6907 0.0416-0.95578-1.516-2.2318-4.0902-2.9789-2.6169-3.1915-3.5753-7.1611-3.246-12.189 0.13498-2.0671 0.89612-2.674 2.9709-1.8013 9.0932 3.8334 18.777 9.0804 25.589 14.201 0.804-0.24112 1.5964-0.51873 2.7648-0.6082-5.8059-4.5455-21.198-12.872-27.995-15.572-2.9206-1.1606-4.4105-0.99078-4.8606 2.6545"/>
   <path d="m205.85 265.02c-6.165 2.5197-2.3408 5.5362 9.7223 5.3557 8.6873-0.12984 13.322-2.3849 11.792-4.9966 1.6197 0.67696 2.5197 1.5316 2.5197 2.2072 0 1.9932-4.1848 4.4105-13.142 4.9059-10.62 0.58616-16.9-2.2111-16.787-4.2316 0.0725-1.3072 1.9141-3.1046 5.8953-3.2408"/>
   <path d="m182.51 247.08c8.0765 4.6814 21.071 10.566 28.354 13.277 1.9349 0.72102 3.421 1.3954 6.2118 1.9815 6.0172 1.2605 18.577 1.7274 19.617-2.9164 1.8959 1.7455 1.9867 5.4362-8.0948 6.5606-2.7907-1.8-9.6768-3.3743-15.528-2.8802-6.3907-2.0697-23.494-9.8117-30.56-16.022"/>
   <path d="m120.19 179.5c-2.1371 1.149-4.5532 2.5275-6.7876 4.1342-0.16607 2.7753-0.91163 6.7526-3.329 10.164 5.2326 5.7981 14.255 13.46 20.614 18.091-2.1942-3.6519-2.224-10.096 0.22161-16.055-2.5948-4.9254-6.6007-11.586-10.719-16.335"/>
   <path d="m140.66 173.25c12.841-0.24011 37.748 6.1015 44.948 18.704-9.4693 3.5506-19.006 11.12-20.905 21.842l-1.1944-2.7933c-0.0147-12.92-12.348-24.579-22.173-20.534-0.76774-3.7647-2.717-11.69-4.4144-16.674 1.066-0.26206 2.2189-0.45776 3.7388-0.54462"/>
  </g>
  <path d="m195.67 211.4c1.7144-1.9362 2.8128-4.2005 3.421-6.5035-12.089 12.753-23.915 7.1871-25.371-6.0457-4.4663 3.8347-8.0518 8.8896-9.0362 14.929 0.85201 2.0217 1.6755 4.0565 2.4795 6.1184 8.3138 2.5483 20.215 0.86239 28.506-8.4981" fill="#c0cad0"/>
  <path d="m160.94 220.96c2.5119-1.3137 3.1707-6.9303 2.3083-12.536-8.0015 6.9678-21.831 3.7606-28.529-10.405-1.4485 5.0979-0.19331 11.542 3.7776 15.379 8.9416 8.6421 18.249 9.7534 22.444 7.5619" fill="#c0cad0"/>
  <path d="m153.05 248.52c0.0467-1.9439-8.6524-4.6077-19.353-3.8904-8.4449-4.3483-14.487-14.4-16.105-24.401 6.921 0.19974 14.518 0.84424 21.439 2.1825-4.3871-3.5845-7.4308-7.5943-8.7094-11.097-0.85465-0.48759-1.5847-1.0063-2.3784-1.5951-4.1174 0.83773-8.3398 1.9608-12.508 3.2072-2.569-5.4997-5.2184-11.017-7.8729-16.225-0.88834 0.81443-1.8583 1.5044-2.875 2.0892 1.1347 5.1223 2.2085 9.6588 3.0087 14.213 0.34996 1.9919 0.13352 3.2861-0.53425 5.221-3.482 10.089-5.6724 23.034-3.2498 31.077 0.55505 1.8389 0.14271 2.8516-1.2385 3.1617-1.0764 0.24266-2.1644 1.407-2.084 2.342 0.57322 0.7327 1.7067 1.3202 3.465 1.5497 12.863 1.6768 23.806-0.13076 23.806-2.6118 0-1.7079-9.1945-4.1665-18.123-4.0953-3.5843-4.1473-3.0514-13.264 0.10262-16.282 1.6003-1.5302 2.6897-1.5692 4.2483 0.3088 4.4624 5.374 9.8701 10.793 14.62 13.685-1.1477 0.91427-0.56283 2.4445 2.8388 3.0048 9.6755 1.5925 21.452 0.30585 21.503-1.8441" fill="#004984"/>
  <path d="m128.71 247.36c-4.7503-2.892-10.158-8.3115-14.62-13.687-1.5601-1.8778-2.648-1.8389-4.2496-0.30733-3.1527 3.0164-3.6868 12.133-0.10262 16.282 3.8735-0.0292 7.7979 0.41499 10.998 1.0686 2.0308-1.4162 4.6115-2.0152 7.6732-1.7455-0.40847-0.55893-0.26578-1.1594 0.30106-1.6106" fill="#dbd7ab"/>
  <g fill="#0f141b">
   <path d="m202.46 155.51c0.81959 0.4889 1.2968-0.43705 0.52521-0.89481-0.64196-0.38126-1.1218-0.69769-1.7196-1.1334-0.56542-0.4137-0.98169 0.0984-0.55115 0.58227 0.47205 0.53169 1.1075 1.066 1.7455 1.446"/>
   <path d="m159.14 136.64c-0.70285 6.4958 3.2588 13.442 6.1884 12.621 1.4226-0.3968 2.3446-2.6884 2.0801-5.7943l1.0024 0.38774c0.18281 3.2046-0.81053 5.6853-2.8439 6.2676-4.0992 1.1736-8.5552-7.3012-7.2544-14.325z"/>
   <path d="m155.85 147.6c-1.2048-1.9465-2.2707-4.2341-3.12-6.7745-3.5791-10.705-0.79884-18.471 2.9308-19.717 3.919-1.3059 10.341 3.6804 13.802 14.036 3.1408 9.3943 2.0347 16.981-2.132 18.904 0.0971 0.0147-1.4939-0.72104-1.4939-0.72104 3.1486-0.46943 6.0886-6.6722 2.3705-17.796-3.6984-11.062-9.7832-14.155-12.222-13.338-2.657 0.88704-5.4647 7.786-2.0023 18.144 1.2994 3.8866 3.0748 7.0406 4.9838 9.2722z"/>
   <path d="m170.58 143.66c4.6673-6.9315 8.8624-21.007 7.956-22.372-1.0154-1.5276-16.301-2.9504-22.081 0.40722l-2.7738 0.77291c4.1252-5.903 24.398-4.2704 25.971-1.9504 1.2878 1.8986-3.2797 18.035-8.9701 24.987z"/>
   <path d="m152.82 125.44c2.674 6.8938 10.446 16.916 17.839 18.665l-0.0427 1.2721c-7.7123-1.6417-15.543-11.333-18.393-18.48z"/>
   <path d="m137.45 118.73c0.73272 24.789 42.282 47.663 69.421 39.246 3.5195-11.338 5.0652-24.23 4.1434-35.131l1.2074-0.0804c0.91293 10.904-0.59009 24.007-4.3393 35.383-0.1892 0.56928-0.28267 0.66008-0.8079 0.82993-27.709 8.9441-71.778-14.858-71.043-41.138z"/>
   <path d="m206.42 158.7c-11.699-1.7507-25.861-6.9418-35.786-12.281l0.0609-1.3175c10.404 5.2172 24.929 11.087 36.771 12.746z"/>
   <path d="m166.08 97.236c19.656 16.471 34.732 38.66 41.413 60.922l-0.93629 0.38514c-6.9146-22.019-22.037-43.984-41.686-60.596z"/>
   <path d="m158.22 87.724c-3.137-5.9691-5.3961-10.738-7.7796-16.075-1.2813-2.8686-0.22674-3.6182 2.8167-1.813 23.995 14.231 39.933 32.2 48.989 44.789 1.1503 1.599 1.7313 2.6624 2.2617 5.0912 2.1346 9.7742 3.1241 22.904 3.0347 38.39l-1.0569 0.53687c-0.15816-15.616-1.2359-28.82-3.3794-38.635-0.50061-2.2992-0.91297-3.0113-2.0192-4.548-9.0156-12.531-24.689-30.45-48.377-44.727-1.9945-1.2009-2.0944-1.0971-1.3513 0.4902 2.4679 5.2768 4.8889 10.032 8.1297 16.039z"/>
   <path d="m203.74 119.7c2.6442 1.2384 5.6087 2.1346 7.7161 2.6025 3.264-7.3686 3.0475-18.867-2.2681-18.867-2.4808 0-7.5552 4.5259-8.865 9.8079l-0.95059-1.2372c1.4992-5.0421 6.5112-9.8636 9.7896-9.8636 6.6112 0 6.8498 12.599 3.3419 20.676-0.29039 0.66786-0.58617 0.84423-1.2462 0.68211-2.4536-0.60562-4.9992-1.4563-7.222-2.4938z"/>
   <path d="m211.56 122.61c3.7725-2.6352 4.5778-10.368 2.093-15.223l-0.44998-2.3654c4.2108 4.7904 3.91 15.668-1.4875 18.803z"/>
   <path d="m211.76 128.68c1.4343-2.7038 2.512-6.7876 2.7131-9.6899l1.3305-3.6558c0.0232 5.9524-1.3461 11.964-3.9241 15.571z"/>
   <path d="m207.62 103.17c-1.1749-9.5847-3.1851-20.679-6.1287-35.624-0.23341-1.1866-0.59521-1.7675-1.6638-2.7131-11.555-10.23-25.589-20.308-39.02-27.82-1.9711-1.1023-2.1034-0.99856-0.93888 0.80402 7.7693 12.049 17.881 28.282 23.594 38.619l-1.0907 0.85331c-5.5827-10.468-15.734-26.874-23.415-38.915-2.0425-3.2018-1.0271-4.1588 2.3576-2.3006 13.537 7.4295 27.997 17.306 39.596 27.578 1.4148 1.2514 1.7637 1.9323 2.1009 3.6442 2.9347 14.904 4.601 25.992 5.7786 35.57z"/>
   <path d="m181.56 92.017c5.2717-1.1088 12.923-0.2893 17.285 2.5093-2.2033-8.8351-6.466-19.904-9.568-23.338-3.9904 5.3275-10.493 10.944-16.707 12.9l-1.3967-1.0894c6.4349-1.8155 13.125-7.5655 17.294-13.072 0.5732-0.75735 0.84553-0.76641 1.5342 0 3.7673 4.2172 7.8405 14.912 10.15 24.822 0.42537 1.8259-0.0609 2.0723-1.8778 1.0154-4.5894-2.6714-11.22-3.2707-15.621-2.499z"/>
   <path d="m145.67 109.83c4.8203-4.7773 12.321-9.6068 19.715-12.785-1.0038-3.4079-2.5781-7.2932-3.9385-9.7742-7.567 2.8699-16.523 4.0174-25.174 3.2758l-0.65362-1.5095c8.4398 0.83902 17.844-0.2036 25.595-2.9956 0.6082-0.21902 0.88314-0.084 1.158 0.41627 1.5238 2.7727 3.0606 6.6035 4.2444 10.498 0.20359 0.66914 0.0673 0.84034-0.63543 1.1438-7.4205 3.194-15.24 8.4526-19.578 13.215z"/>
   <path d="m152.59 125.8c-7.5177-15.948-13.785-28.781-20.974-42.971-0.96871-1.9115-1.6638-2.4121-3.8994-3.0722-19.83-5.8498-42.555-9.2099-62.485-9.1464-2.9879 0.0147-2.9943 0.21285-0.72619 1.516 29.462 16.918 62.349 36.601 80.979 52.316 1.4913 1.2592 0.96226 1.9362-0.56281 0.72104-18.937-15.1-51.673-34.56-81.025-52.079-3.7686-2.2513-3.2329-3.5882 1.302-3.6349 20.278-0.20616 43.11 2.9308 63.01 8.7989 2.7337 0.80664 3.6169 1.6768 4.7802 3.9501 7.1804 14.054 13.321 27.015 20.204 42.115z"/>
   <path d="m146.24 89.884c-2.6637-4.4727-7.8614-7.1506-13.833-7.1105l-0.74436-1.42c7.0755-0.2621 13.308 2.91 16.135 8.3943z"/>
   <path d="m83.806 84.151c7.5657 16.232 19.634 26.128 34.216 24.385l-0.56542 1.4745c-12.334 1.3228-26.105-4.7321-35.714-27.054z"/>
   <path d="m75.166 70.115c-10.297-14.874-27.82-23.436-46.072-20.846-18.805 2.6612-29.131-0.29959-31.262-8.1102-2.0373-7.4722 8.0922-20.92 33.264-21.34 22.509-0.38907 43.164 13.392 57.511 37.856 3.6141 6.1637 7.122 10.949 10.813 15.011l-2.1151-0.27091c-3.0164-3.2498-6.4827-8.2349-9.9012-14.064-14.373-24.508-35.491-37.383-56.298-37.056-24.944 0.4163-33.164 13.929-31.663 19.438 1.7494 6.4141 11.538 9.6094 29.457 7.0688 18.971-2.6869 37.318 5.8719 48.036 22.355z"/>
   <path d="m119.87 106.62c-11.129 20.092 5.2858 53.367 38.426 64.966 13.244 4.6375 34.987 1.7779 42.187-11.783l1.7728-0.22674c-6.5711 15.164-30.596 18.629-44.593 13.731-35.542-12.439-51.007-47.246-39.205-67.614z"/>
   <path d="m155.75 172.04c-22.294-10.022-35.347-37.971-27.149-59.511l1.114 0.7366c-8.2323 22.784 8.0611 51.048 30.28 59.254z"/>
   <path d="m137.34 123.94c0.95053-1.5432 2.6442-2.1151 5.0303-1.5302l1.7663 1.6768c-3.5105-1.2151-5.2742-0.47722-6.1313 1.4965z"/>
   <path d="m80.839 170.73c9.267-27.75 19.976-44.635 34.969-54.696l-0.0894 1.8389c-14.358 10.142-24.174 25.925-33.257 53.084z"/>
   <path d="m100.64 131.17c4.6362-3.5105 9.9685-6.5943 14.921-8.6187l0.0232 1.5069c-4.5439 1.9361-9.9454 5.1537-16.606 10.329z"/>
   <path d="m64.785 169.52c-5.5711-6.6033-10.072-18.156-12.119-24.226-1.0128-3.0033-0.1-3.6103 3.1915-2.0866 9.2801 4.2925 20.237 9.9374 30.164 15.821l-0.51225 1.3993c-9.8547-5.9719-20.687-11.674-30.097-16.116-2.1125-0.99726-2.2318-0.93114-1.682 0.60301 2.0619 5.7603 6.9534 18.032 12.893 24.647z"/>
   <path d="m5.254 215.13c-3.7699-13.696 2.3096-28.018 15.043-36.118 15.745-10.019 44.018-13.042 69.115-7.1961 2.534 0.58876 2.3641 1.385-0.18559 0.88704-25.227-4.9331-52.257-2.1774-67.843 7.7408-12.448 7.921-17.965 21.127-15.276 34.452 0.35547 1.7572-0.38776 1.9336-0.85331 0.23599"/>
   <path d="m5.0843 211.91c-9.5395 9.4318-27.959 20.095-41.537 25.689-2.2474 0.9233-2.4303 0.14271-0.33599-0.82091 13.231-6.0925 32.118-17.1 41.694-26.606z"/>
   <path d="m-57.054 280.04c0.68992-7.9935 6.7501-20.416 13.832-28.414 1.621-1.8324 1.3357-2.9074-0.46814-3.0385-8.7431-0.63417-19.726 1.586-32.2 6.5282-2.2085 4.1953-7.1506 7.5657-13.43 9.1413-8.3853 2.1022-15.448 0.47338-17.111-3.9994-1.4862-3.9982 0.88963-10.024 9.7989-13.556 6.8614-2.7195 13.268-2.0814 16.821 0.95058 11.633-4.0084 25.346-8.1984 37.426-11.588 12.281-6.7758 21.481-11.229 28.144-14.065 3.609-1.5354 4.9305-0.67696 3.5506 1.2345l-2.2876 0.9817c2.5781-2.342 2.0606-2.5586-0.85464-1.2903-6.2714 2.7298-15.743 7.6578-27.493 14.107-0.4137 0.22673-0.62768 0.30475-1.0556 0.42145-11.404 3.1228-24.35 7.1259-36.92 11.395-0.70935 0.24112-0.98428 0.14933-1.5367-0.26836-3.2732-2.4665-9.2333-2.8997-15.222-0.52781-9.7351 3.8594-9.9945 9.7053-9.2138 11.806 1.1062 2.9735 6.6449 5.2092 15.562 2.9722 5.9069-1.481 10.346-4.3223 12.627-8.1182 0.2827-0.46946 0.4474-0.61598 0.96351-0.83126 12.425-5.1768 23.767-7.2855 32.545-6.4958 3.0956 0.27752 3.4586 2.521 1.3344 5.0187-6.619 7.7912-12.409 19.522-13.482 27z"/>
   <path d="m-48.694 279.29c-1.5743-0.0427-1.5821-0.81052 0-0.86887 7.3025-0.26981 17.58 3.0008 17.482 5.4311-0.10874 2.7272-14.266 3.4534-24.266 2.5301-5.9213-0.54598-7.2387-4.7904 0.30732-7.7873 1.5549-0.61857 1.8467 0.0712 0.34223 0.78848-5.7202 2.7324-5.2262 5.4169-0.56801 5.846 10.353 0.95578 22.666-0.30069 22.749-1.5212 0.06606-0.95444-7.676-4.1938-16.042-4.4182"/>
   <path d="m-56.35 278.96c-3.3457-11.019-12.901-19.091-23.663-19.915l1.149-1.1139c10.467 0.97912 19.588 8.629 23.065 19.094z"/>
   <path d="m15.804 227.23c-13.194 3.5118-28.809 10.783-40.444 19.327-17.445 12.811-22.618 20.293-21.255 32.429l-1.3681-0.0831c-1.3578-12.473 3.6064-20.099 21.789-33.452 11.656-8.5616 27.005-16.195 40.609-19.583z"/>
   <path d="m57.161 215.31c-0.80924-6.1094-13.807-14.301-26.899-11.99-11.11 1.9608-16.555 11.229-15.736 18.3 0.89225 7.6966 10.897 14.998 22.768 12.472 13.071-2.7791 20.741-12.171 19.866-18.781m1.3059-0.15191c1.0336 7.7953-7.4709 17.765-20.826 20.605-11.987 2.5482-23.44-4.6192-24.528-14.003-0.99336-8.5796 5.4233-18.07 16.833-20.084 12.653-2.2319 27.483 5.6385 28.522 13.482"/>
   <path d="m35.734 230.73c-6.2858 0.0767-11.994-1.2151-16.074-3.7115-1.4965-0.91556-1.2008-1.4096 0.37607-0.66914 4.1992 1.9737 9.5927 3.2408 15.698 3.482 2.084 0.0806 2.0814 0.87409 0 0.89872"/>
   <path d="m87.875 197.03c4.6257 3.3794 10.255 4.0889 15.325 1.7014 5.7722-2.7169 9.1971-8.4254 9.686-15.117 0.0763-1.0465-0.0441-1.1088-0.92596-0.34887-8.3773 7.222-14.248 9.9323-19.342 9.0945-14.396 18.538-31.231 32.609-42.66 37.28l3.002-3.1928c10.159-5.61 24.123-17.41 38.635-35.043 0.39549-0.47985 0.50446-0.5239 1.1373-0.43444 4.7982 0.68084 10.374-1.8895 18.546-8.4876 1.9284-1.5574 2.7051-1.3967 2.6313 1.184-0.24114 8.3722-4.7385 14.022-10.106 16.549-5.2976 2.4938-12.234 1.9063-16.804-2.1397z"/>
   <path d="m128.29 156.03c0.66526-0.50578 1.3176-0.98818 1.9517-1.446l1.0322 0.98946c-0.64579 0.47593-1.3124 0.97524-1.9958 1.4991z"/>
   <path d="m113.96 170.17c-5.9732 5.6645-11.806 11.909-16.206 17.891-1.3137 1.787-1.446 2.7738-0.8922 3.3781l-1.184 0.29298c-0.60299-0.81564-0.47465-2.2448 1.0868-4.3676 4.5038-6.1249 10.426-12.574 16.497-18.403z"/>
   <path d="m135.21 168.8c1.586-0.0257 2.766 0.10612 4.1097 0.44353 1.5108 0.37993 1.3941 0.97261-0.15448 0.75086-1.184-0.16993-2.263-0.22569-3.6-0.16993z"/>
   <path d="m130.61 196.57c-2.1929-4.439-5.4169-9.2904-9.5485-14.565-12.798-16.336-14.879-25.969-9.2061-40.102 0.78458-1.9543 1.5108-1.7001 0.86113 0.30473-4.6879 14.457-2.0996 23.878 9.6081 38.897 4.2912 5.5051 7.2622 10.365 8.9403 14.016z"/>
   <path d="m140.63 190.76c-4.3522-17.073-6.7149-26.005-12.509-34.342-1.0595-1.5237-0.4331-2.0476 0.72494-0.59782 6.3647 7.9508 9.1997 17.248 13.183 34.444z"/>
   <path d="m159.78 264.61c4.2354-6.2287 5.9575-14.799 4.7683-23.491-5.6683-4.4208-12.634-8.7444-17.903-12.118-19.569-12.525-20.934-23.088-15.873-34.056 0.91167-1.9751 1.6729-1.6301 0.85201 0.38644-4.5946 11.298-1.0284 21.671 15.828 32.46 5.1938 3.3239 12.05 7.8146 17.712 12.2 0.47075 0.3632 0.57193 0.61208 0.64713 1.1502 1.232 8.7133-0.4474 17.113-4.4843 23.356z"/>
   <path d="m152.74 268.11c0.0866-1.9271 4.2444-4.618 11.075-4.0097 1.9025 0.16864 1.8506 0.95315-0.0557 0.88963-5.8591-0.19845-9.3955 2.1034-9.4434 3.1799-0.057 1.2281 4.3457 3.6416 14.445 3.3899 8.7133-0.21799 12.306-1.8376 12.364-3.1642 0.0292-0.67176-1.4407-2.0918-4.9072-2.8879-1.9582-0.45002-1.8415-1.1646 0.14271-0.86368 3.6596 0.55634 6.3182 2.2033 6.2493 3.7959-0.11954 2.7324-4.4714 3.9812-13.789 4.2133-10.866 0.2735-16.202-1.883-16.081-4.5426"/>
   <path d="m202.3 265.87c-6.2195-4.7853-15.288-9.8261-24.959-13.977-1.49-0.63933-2.2254-0.3748-2.307 1.3681-0.2514 5.3493 0.84553 9.1814 3.6285 12.272l-1.774-0.23344c-2.3304-3.0372-3.2668-6.9819-2.8362-12.103 0.22983-2.7311 1.3902-3.1578 3.6362-2.2228 9.7495 4.0578 18.954 9.158 26.103 14.399z"/>
   <path d="m179.78 266.28c3.4768-3.0527 13.811-3.7465 24.241-0.91293l-1.8272 0.60947c-8.7171-1.9115-18.045-1.6483-21.492 0.96356z"/>
   <path d="m199.19 268.29c0-1.3266 1.9621-3.1732 5.7318-3.4624 1.9465-0.14933 2.0269 0.60689 0.0975 0.85196-3.1319 0.39945-4.3159 1.9076-4.3159 2.6041 0 0.99593 4.7048 4.111 16.024 3.6259 7.13-0.30619 12.394-2.6688 12.394-4.3249 0-1.4174-6.9768-4.1213-15.76-3.9876-0.47201 7e-3 -0.74567-0.0467-1.2475-0.21028-9.5549-3.1267-22.338-9.9089-31.673-17.277-1.4822-1.171-0.98686-1.8298 0.52916-0.70155 9.796 7.2907 22.278 13.951 31.969 16.875 9.2269-0.38 17.725 2.7843 17.725 5.3416 0 2.801-6.2701 5.1342-13.889 5.4622-12.014 0.52002-17.584-2.5366-17.584-4.7969"/>
   <path d="m163.59 209.65c3.5041 7.8107 6.6125 16.09 10.048 26.637 12.21 10.011 32.154 17.975 44.65 20.076 13.726-1.9971 20.543 2.4847 20.242 5.4038-0.22672 2.2215-3.5118 4.474-9.8169 4.5686l-1.4161-1.1412c6.3246-0.0368 9.542-1.9647 9.7104-3.5974 0.1725-1.6936-5.2637-5.6218-18.094-4.0033-0.55895 0.0699-0.85072 0.0596-1.3759-0.0292-12.809-2.2085-32.514-10.425-44.529-20.249-0.37869-0.30878-0.47722-0.45909-0.62117-0.89351-3.2668-9.9349-6.6061-18.608-8.8662-23.825z"/>
   <path d="m160.58 220.32c3.1293-1.6366 3.1745-14.207-1.4693-20.945-6.8264-9.9063-15.201-10.897-20.556-6.4244-4.9241 4.1084-5.0097 14.536 0.50572 19.867 8.2971 8.0169 17.284 9.7158 21.52 7.5022m0.63542 1.2372c-4.684 2.4471-14.535 0.99464-23.338-7.5138-5.6981-5.5076-6.3362-16.948-0.20102-22.072 6.4686-5.4025 16.012-3.465 22.819 6.4128 4.4948 6.5231 5.3066 20.776 0.71976 23.173"/>
   <path d="m154.95 199.34c-2.3771-1.9089-5.1444-3.4858-8.2012-4.7956-1.4537-0.62245-1.1606-1.3344 0.33966-0.82869 3.2784 1.1049 6.113 2.783 8.4215 4.9447 1.2592 1.1814 0.69511 1.6859-0.56023 0.67953"/>
   <path d="m110.48 193.15c5.1768 5.5712 13.458 12.774 19.863 17.455l0.68476 2.6468c-7.7447-5.6645-16.212-13.09-21.39-18.845z"/>
   <path d="m178.73 173.87c9.4719 3.2666 15.742 9.1282 17.63 17.307l-1.643-0.38517c-2.7105-8.1349-9.7351-13.733-20.181-16.444z"/>
   <path d="m157.91 172.48c-6.2922 0.0232-13.243 0.71326-20.763 2.1112l-0.48762-1.5627c6.2287-1.1827 12.139-1.8752 17.648-2.0956z"/>
   <path d="m166.85 219.14c7.9611 2.5106 19.826 1.1217 28.157-8.2827 5.9043-6.667 4.1511-16.598 1.0893-18.834-1.9128-1.3967-8.0675-1.5095-17.292 4.1925-7.7421 4.7853-12.575 11.451-13.615 18.559l-1.0803-1.8856c1.1606-6.8719 6.2272-13.435 13.775-18.099 8.3464-5.1588 15.778-6.1637 18.988-3.8205 4.2393 3.0969 5.4156 14.204-0.59005 20.984-8.6382 9.7521-20.543 11.201-28.791 8.7354z"/>
   <path d="m171.33 216.62c6.3259-1.8804 11.487-4.9408 15.763-9.0971 1.2929-1.2553 1.8298-0.66266 0.60434 0.66007-4.085 4.4118-9.5899 7.5462-16.166 9.1763-1.7935 0.4448-2.141-0.16221-0.20103-0.73923"/>
   <path d="m191.15 202.3c1.2774-2.1929 2.2526-4.0383 3.1357-6.4426 0.46816-1.28 1.1321-1.053 0.72625 0.24882-0.81314 2.6041-1.6833 4.4804-3.1085 6.7097-0.88442 1.3863-1.6184 0.97002-0.75346-0.51611"/>
   <path d="m128.55 210.29c-5.5205 1.1036-9.8675 2.2188-16.514 4.1614-1.6042 0.46819-2.0101-0.24524-0.26725-0.84161 6.1922-2.1242 10.958-3.355 15.497-4.3599z"/>
   <path d="m113.79 219.73c8.721-0.20489 17.6 0.65487 24.339 1.8544l1.6781 1.7378c-8.5318-1.7287-17.132-2.5651-26.025-2.7157-2.0088-0.0331-1.9997-0.82995 0.0147-0.87664"/>
   <path d="m114.84 213.1c-2.91-6.3622-5.2961-11.367-7.6501-16.058l0.74308-0.67825c2.5029 4.8267 5.0018 9.9531 8.0259 16.427z"/>
   <path d="m103.24 199.55c0.81697 4.5907 1.5004 9.4071 2.259 15.241 0.0557 0.43183 0.0147 0.68471-0.14676 1.1049-3.5974 9.4189-6.3298 27.48-3.0059 34.635 0.25294 0.54466 0.16478 0.82479-0.28528 1.1775-1.7092 1.3383-1.7935 3.491 2.1268 4.002 15.042 1.9634 22.876-0.70806 22.919-1.9388 0.0368-0.97649-7.8056-3.4704-17.019-3.4742-0.52651 0-0.77419-0.0945-1.0854-0.49411-3.8295-4.9395-2.6208-13.984 0.35289-16.83 1.9128-1.8298 3.4198-1.7584 5.147 0.32168 5.5025 6.6279 10.901 11.613 15.302 14.209 1.8143 1.0712 1.4836 1.7805-0.37995 0.79367-4.5323-2.4004-10.249-7.3814-15.756-14.226-1.2204-1.516-2.036-1.6262-3.43-0.23496-3.2588 3.2537-2.9218 11.849-0.19588 15.21 8.5135-0.084 18.564 2.438 18.543 4.7491-0.0293 3.4185-12.621 4.8629-24.659 3.2938-5.5439-0.72363-5.6385-4.2457-2.8542-6.2493-3.5804-7.3192-0.48892-26.434 3.2861-35.65-0.66786-5.929-1.3266-10.699-2.0516-15.253z"/>
   <path d="m118.26 220.24c1.704 10.333 7.921 19.572 15.563 23.723 10.6-0.68729 20.009 2.0477 19.949 4.6025-0.0754 3.1578-14.182 3.7997-22.348 2.4549-4.2807-0.70547-4.8696-2.8244-3.2277-4.0655l1.0206 0.72103c-0.81571 0.58228-0.44742 1.5782 2.4237 2.0503 11.326 1.8661 20.614-0.12211 20.649-1.2411 0.0292-0.9648-6.8745-3.8683-18.071-3.229-0.47722 0.0292-0.82346-0.0368-1.2579-0.26578-7.9948-4.247-14.485-14.186-16.057-24.781z"/>
   <path d="m119.98 250.58c2.0892-1.7351 4.9992-2.4406 8.1698-2.2189l0.53817 1.2449c-2.9049-0.32676-5.2223 0.0634-7.2076 1.2527z"/>
   <path d="m41.051 171.79c2.6041 0.74957 6.3169 2.119 10.135 3.7971 0.63154 0.27606 0.69249 0.46037 0.37738 1.232-2.1203 5.2159-4.0059 11.254-5.2781 16.658-0.3955 1.6781-0.30069 1.7066 0.76513 0.52909 4.4897-4.9655 9.6976-10.355 14.567-14.636 0.49405-0.43311 0.61598-0.45128 1.2605-0.28012 4.6128 1.2255 9.3914 2.7285 13.876 4.6686 1.5652 0.67694 1.7468 0.55766 0.62245-0.69508-3.2421-3.6115-6.6539-6.667-12.102-10.124-0.71327-0.45388-0.75735-0.73789-0.10005-1.3552 0.81699-0.76905 1.7066-1.4732 2.5612-2.0244l2.1527 0.084c-1.6483 0.89355-2.7182 1.778-3.4948 2.5456 5.1794 3.329 8.476 6.4231 11.748 10.199 2.1864 2.5236 1.6094 3.666-1.7689 2.3136-4.5856-1.8364-9.2722-3.3563-13.884-4.4753-4.5699 4.0228-10.145 9.4799-14.747 14.504-2.285 2.4951-3.1578 2.071-2.4302-1.4628 1.1153-5.4051 2.9828-11.517 5.0069-16.703-3.1941-1.4784-7.7693-3.2018-11.247-4.1835z"/>
   <path d="m202.92 70.784c4.6622-1.5406 8.6084-2.2772 13.386-2.5638 2.3044-0.13756 2.3848 0.57839 0.0975 0.87277-4.7568 0.61469-8.686 1.3941-13.237 3.0761z"/>
   <path d="m207.55 70.089c2.8504-2.6246 4.6737-5.1457 6.4737-8.3657 0.88317-1.5782 1.5834-1.254 0.80275 0.37993-1.6132 3.3794-3.3678 5.7891-5.1717 7.5812z"/>
   <path d="m229.01 53.509c1.7611-5.3598-4.1694-5.3493-11.067-0.65099-6.947 4.7308-7.484 9.5626-3.6324 9.1012l-0.58484 1.2851c-4.3262 0.13334-5.4349-5.4868 3.4249-11.521 8.0961-5.5115 14.152-4.2717 13.39 0.65228z"/>
   <path d="m211.46 69.318c8.9636-7.3958 17.044-15.497 22.456-21.482 1.2904-1.4239 1.9038-0.90261 0.66267 0.5654-5.0408 5.9588-13.074 14.06-20.912 20.639z"/>
   <path d="m206.08 88.958c5.3858-6.029 10.664-12.176 14.558-17.235 0.22159-0.2893 0.34112-0.41625 0.62768-0.64842 7.7614-6.2884 24.31-14.471 37.889-18.801 0.40075-0.12819 0.68347-0.16074 1.0958-0.17508 11.079-0.36686 16.13-4.9177 15.69-7.0755-0.36321-1.7961-4.4092-4.1861-12.845-2.4536-8.7392 1.7948-12.762 5.391-10.98 7.8418 0.54854 0.75346 0.46424 1.0025-0.27352 1.4174-5.9447 3.3367-13.33 6.331-18.752 8.3009-3.8722 1.4058-4.6413 0.25808-2.0282-2.9478 2.4121-2.9594 5.7683-6.5866 8.6796-9.2164 0.34994-0.3165 0.46295-0.36958 0.88572-0.50056 13.089-4.085 16.058-10.032 15.419-11.203-0.87536-1.6028-6.5022-2.3667-13.762 1.1983-10.521 5.1678-11.849 10.298-8.3179 10.735l-0.78714 1.1166c-4.1874-0.89484-3.6414-7.2932 8.5058-13.08 7.0326-3.347 13.962-3.2226 15.418-0.55243 1.6534 3.0344-4.5634 9.6197-16.24 13.069-2.9424 2.6208-6.2195 6.0082-8.8637 9.1711-1.4939 1.7896-1.4356 1.9231 0.77806 1.0997 5.3547-1.9893 12.352-4.9148 18.111-8.1467-1.9867-2.626 0.18946-7.2493 11.959-9.6665 8.3385-1.7105 13.659 0.72102 14.243 3.5935 0.82868 4.0902-6.8537 8.6668-17.213 8.5603-13.736 4.3236-30.239 12.558-37.881 18.882-4.028 5.2637-9.9169 12.451-15.561 18.744z"/>
   <path d="m250.94 48.599c-1.966-0.24009-3.8789-1.1619-4.9511-2.4536l1.005-0.57706c1.0336 1.101 2.5508 1.7857 4.3884 2.0476z"/>
   <path d="m136.52 172.25c4.3236-1.3694 8.7768-2.5197 13.067-3.3354l1.883 0.98173c-4.7036 0.84035-9.7248 2.1346-14.61 3.7023z"/>
   <path d="m120.68 180.11c-2.8516 1.433-5.3454 2.8997-7.3038 4.3275l0.0368-1.4952c1.7728-1.3007 3.9501-2.6169 6.4192-3.9033z"/>
  </g>
 </g>
</svg>
