<?xml version="1.0" encoding="UTF-8"?>
<!-- Created with Inkscape (http://www.inkscape.org/) -->
<svg version="1.1" viewBox="0 0 675.2 642.86" xml:space="preserve" xmlns="http://www.w3.org/2000/svg"><g transform="matrix(1.3333 0 0 -1.3333 -49.401 1005.7)"><g transform="matrix(1.0287 0 0 1.0287 256.2 580.88)"><path d="m0 0c-12.423 4.375-30.491 4.658-40.232 0.281-0.284 4.941 0.14 12.002 0.987 18.918 0.814 0.258 2.47 0.843 3.834 1.135 0.195 12.958-0.306 34.215-2.435 34.489-3.41 0.439-14.517-28.789-22.701-59.333-8.038-3.8-16.514-9.499-25.283-19.875-3.653 12.422-9.06 27.767-13.298 36.827l3.118-0.292c-10.718 23.237-19.34 54.949-21.094 54.949-2.191 0-2.614-48.658-0.438-54.218 3.946-10.084 18.268-40.335 32.005-57.141-2.338-0.073-4.768-0.439-4.987-1.242-0.219-0.804-0.384-1.517-0.366-3.562-0.51-3.908 0.965-13.537 4.964-19.09 1.871-2.601 9.596-5.408 9.596-5.408 7.088-10.448 24.483-29.303 28.497-29.008 4.629 0.34 27.231 27.913 34.539 45.84 6.625 3.896 12.666 17.731 15.296 30.299l-0.877 1.071c-0.098 7.794-0.399 14.671-1.125 25.36" fill="#005a9e"/></g><g transform="matrix(1.0287 0 0 1.0287 150.01 563.81)"><path d="m0 0-33.32-20.948c-9.645-11.107-17.112-25.474-22.311-40.237-3.02-8.574-5.128-12.988-9.938-18.804-10.716-12.956-17.684-21.597-27.329-40.108-4.71-0.705-10.538-6.476-13.246-12.422-2.708-5.943-3.415-12.951 0-14.893 3.415-1.943 10.304 2.387 13.952 9.125 3.474 6.417 4.508 9.342 4.361 14.749 9.306 19.191 21.483 33.027 22.848 32.344 1.364-0.68-9.742-24.551-12.763-37.118-12.958-10.23-13.444-25.525-7.21-28.448 6.235-2.923 15.49 5.456 19.096 12.568 3.605 7.111 4.189 14.906-1.558 17.048 1.948 13.346 10.493 40.821 11.983 40.821 1.461 0 7.697-19.193 9.548-29.422-8.185-9.108-8.185-20.068-1.755-23.722 6.431-3.654 14.103 0.365 17.026 8.768 4.256 12.237 0.663 18.123-6.211 17.755-3.873 10.815-6.482 26.609-7.161 35.22-0.22 2.777-0.36 4.4 1.315 6.869 8.33 12.275 18.779 21.628 28.644 26.597 9.864 4.969 21.701 13.299 26.305 24.333-3.8 5.553-9.426 14.712-12.276 19.925" fill="#005a9e"/></g><g transform="matrix(1.0287 0 0 1.0287 274.49 432.52)"><path d="m0 0c-13.299 6.43-29.958 17.974-41.942 24.697-11.984 6.722-29.374 10.668-38.143 3.653l-32.735-33.319c-2.923-8.33 0.112-15.694 9.791-21.19 17.245-9.792 38.435-19.876 61.818-25.72-4.676-8.818-28.643-21.484-47.349-26.256-18.316 5.065-31.86 0.29-32.249-4.288s5.455-9.006 17.147-9.353c16.465-0.487 24.065 2.63 19.583 7.795 11.496 5.163 31.229 13.703 40.043 16.076 2.534 0.68 4.593-0.083 4.359-2.9-0.44-5.286-2.702-15.123-6.502-19.704-8.477-0.244-14.385-3.64-14.907-6.894-0.658-4.092 5.651-8.316 15.564-9.499 11.228-1.341 19.706 1.486 20.095 5.09 0.389 3.605-2.241 5.651-6.918 7.697 5.164 18.024 13.445 40.043 22.798 52.417-4.481 9.643-5.036 30.546 9.547 41.698" fill="#005a9e"/></g><g transform="matrix(1.0287 0 0 1.0287 301.7 516.41)" fill="#005a9e"><path d="m0 0c7.351-13.801 11.4-35.023 4.199-67.129 2.25-6.148 2.85-11.4 1.65-19.801 3.316-4.608 5.533-11.739 4.334-20.729 2.875 0.288 4.909 3.001 6.12 9.442 6.544-17.719 15.997-31.361 24.375-36.622 11.784-7.4 27.817-10.031 42.282-4.969 18.024-7.793 30.885-18.317 46.668-35.756-1.56-11.984-5.846-22.408-14.81-35.462-7.697-0.658-14.712-4.092-14.858-8.549s6.357-9.426 23.091-10.011c16.732-0.585 24.405 2.923 24.697 7.6 0.292 4.676-6.576 9.207-15.271 10.449 1.095 6.722 2.337 14.76 5.042 19.655 2.703 4.896 5.095 5.897 10.887 4.604 10.815-2.411 30.178-9.353 43.257-15.783-11.792-5.896-4.6-16.777 18.634-15.125 15.417 1.095 24.405 6.941 23.382 12.787-1.023 5.845-15.783 8.33-26.743 5.919-15.273 6.137-36.049 14.333-45.743 19.363-5.772 2.996-10.619 6.796-18.218 14.493-1.364 4.969-4.871 11.205-9.158 16.075-4.288 4.871-9.256 17.732-10.814 17.537-1.559-0.196 0.39-11.205 2.825-15.979-6.918 7.014-16.369 17.146-20.557 23.772 6.625 13.154 7.114 30.057-1.365 42.82-13.591 20.458-42.673 36.388-71.463 34.195 3.215 16.953 9.353 52.904 7.161 53.78-2.192 0.877-16.514-24.405-21.483-36.827-2.63 15.783-6.576 31.42-12.714 42.965-1.899-5.845-3.227-9.115-5.407-12.714"/><path d="m0 0c-4.433-8.378-16.026-22.506-25.379-29.032-2.143-14.029-1.85-37.217 3.8-48.323-3.118-2.338-4.968-4.385-6.43-6.624-13.446-9.16-12.137-29.45-6.528-43.55 6.625-16.66 4.693-30.078 1.364-40.726-0.975-3.117-2.477-4.841-4.774-6.723-9.158-7.5-33.321-25.332-49.493-35.658-9.937 1.268-20.557-2.046-21.142-6.236-0.584-4.188 5.164-9.741 17.05-10.325 21.092-1.039 27.366 6.596 17.148 12.664 12.957 9.257 32.984 23.958 40.626 30.251 1.242 1.023 2.404 0.792 2.192-1.242-0.731-7.015-2.558-24.114-7.088-32.809-7.015-1.242-13.226-6.064-13.226-9.499 0-4.567 5.28-8.833 20.971-8.403 16.003 0.438 20.752 4.895 20.826 9.792 0.072 4.895-4.093 7.964-11.034 9.352-0.512 8.915-0.659 22.714-0.219 28.863 0.146 2.046 1.191 3.738 3.58 1.827 6.576-5.261 20.314-19.29 28.717-31.275-2.898-1.294-6.032-3.793-5.846-7.525 0.146-2.923 9.07-4.73 21.117-4.093 12.422 0.658 18.78 3.361 18.56 7.161-0.219 3.8-7.965 7.235-19.218 7.015-11.91 12.348-28.789 29.843-37.704 40.408-1.973 2.338-2.702 4.165-1.827 8.184 1.974 9.06 4.531 18.34 10.596 28.278 15.679 25.691 18.705 37.412 7.307 54.949-2.533 3.898-2.067 8.035-0.779 12.666 5.554 19.972 7.403 49.395-3.167 70.633"/></g><g transform="matrix(1.0287 0 0 1.0287 203.63 447.06)"><path d="m0 0c3.481 7.017-0.911 12.648-6.722 13.737-20.447 3.834-41.038-13.751-36.828-35.364 1.462-7.502 6.473-8.968 13.25-5.554 13.737 6.917 24.259 15.005 30.3 27.181" fill="#e2eef4"/></g><g transform="matrix(1.0287 0 0 1.0287 290.74 439.79)"><path d="m0 0c-13.315 0.486-21.36-13.447-22.208-25.602-1.084-15.518 5.121-26.214 13.893-27.131 9.409-0.985 21.848 11.332 22.755 29.321 0.657 13.018-5.468 23.083-14.44 23.412" fill="#e2eef4"/></g><g transform="matrix(1.0287 0 0 1.0287 348.65 439.74)"><path d="m0 0c-13.052-12.865-10.02-32.876 4.093-45.107 16.075-13.934 34.148-11.84 42.381-2.728 5.456 6.039 7.026 29.488-8.378 42.964-14.884 13.022-31.275 11.593-38.096 4.871" fill="#e2eef4"/></g><g transform="matrix(1.0287 0 0 1.0287 147.11 570.93)"><path d="m0 0c-4.417 0-12.237-2.247-21.239-11.79-9.743-10.325-11.662-23.731-8.477-26.791 4.969-4.774 29.132 7.697 36.341 26.403" fill="#e2eef4"/></g><g transform="matrix(1.0287 0 0 1.0287 254.08 614.81)"><path d="m0 0c-10.055-5.108-23.139-10.864-37.191-13.783-0.836-6.811-1.242-11.595-1.242-18.811 10.217 3.729 25.136 4.784 40.784-0.731-0.729 8.92-1.296 21.812-2.351 33.325" fill="#57c1e8"/></g><g transform="matrix(1.0287 0 0 1.0287 199.62 595.37)"><path d="m0 0c-12.162-2.027-27.933-3.457-44.128-1.648 3.912-9.865 9.67-24.867 12.993-36.623 7.135 7.378 14.109 13.539 25.703 20.271 1.621 5.756 3.406 12.324 5.432 18" fill="#57c1e8"/></g><g transform="matrix(1.0287 0 0 1.0287 242.24 522.2)"><path d="M 0,0 C 3.215,-6.942 7.015,-10.303 11.399,-9.353 20.191,-7.446 25.94,12.641 15.71,30.982 12.934,18.414 5.773,3.288 0,0" fill="#fff"/></g><g transform="matrix(1.0287 0 0 1.0287 250.12 531.5)"><path d="M 0,0 C 1.273,-6.099 4.422,-10.335 7.034,-9.515 10.452,-8.444 9.313,4.957 5.293,12.662 3.416,7.302 2.078,4.423 0,0" fill="#ef9aa4"/></g><g transform="matrix(1.0287 0 0 1.0287 252.11 535.77)"><path d="m0 0c0.067-3.484 2.009-7.974 3.216-7.572s0.937 6.565-1.943 9.849z" fill="#fff"/></g><g transform="matrix(1.0287 0 0 1.0287 246.28 558)"><path d="m0 0c-9.931-3.82-30.172-18.258-30.02-20.932 0.152-2.672 9.931-11.534 26.659-14.208-3.591 8.25-5.576 24.445 3.361 35.14" fill="#e2eef4"/></g><g transform="matrix(1.0287 0 0 1.0287 185.94 532.12)"><path d="m0 0c-9.207 1.754-20.533 3.873-21.629 1.754s7.161-21.994 13.226-27.109c3.434 4.019 8.33 12.422 10.814 15.929-1.607 5.407-1.899 7.453-2.411 9.426" fill="#e2eef4"/></g><g transform="matrix(1.0287 0 0 1.0287 145.2 572.83)"><path d="m0 0c-28.973 19.496-35.958 37.369-36.534 58.068-0.678 24.419 25.185 83.796 104.49 86.417 35.366 1.169 45.157 8.038 58.602 18.706 20.686 16.413 38.08 11.97 40.628 7.308 5.748-10.523-6.333-63.912-90.169-60.649-47.011 1.831-78.51-17.772-85.098-36.549l-1.126 1.621c-2.191-0.292-2.734-45.429-0.244-54.558 1.169-4.288 5.845-14.032 9.45-20.364" fill="#ef9aa4"/></g><g transform="matrix(1.0287 0 0 1.0287 168.21 535.35)"><path d="m0 0c-1.242 1.535-2.996 3.873-4.604 6.138-16.002-38.727 8.55-69.417 36.17-74.532 3.849 0.779 9.498 0.877 14.565-0.876 61.185 5.162 92.557 51.546 92.557 83.105 0 15.784-5.846 32.784-29.083 43.452-1.412-3.994-2.873-8.378-4.432-13.737 5.554-10.326 5.358-29.813-14.029-56.312-3.435-4.311-5.943-6.601-9.158-9.451-12.568-12.763-39.575-35.494-44.282-36.097-1.898-0.242-14.81 11.449-23.893 22.506-8.182 0.474-15.809 11.271-18.001 20.098-1.562 6.291-1.625 12.169-0.535 14.343 0.391 0.779 2.629 1.265 4.725 1.363" fill="#ef9aa4"/></g><g transform="matrix(1.0287 0 0 1.0287 252.54 512.5)"><path d="m0 0c-7.405-7.795-27.767-26.013-39.653-33.612 12.957 14.906 24.455 30.454 30.203 42.7 0.973-4.217 4.969-9.574 9.45-9.088" fill="#fff9c5"/></g><g transform="matrix(1.0287 0 0 1.0287 257.35 554.79)"><path d="m0 0c5.066-6.138 8.087-18.217 4.677-30.786 8.573 9.84 13.932 22.894 16.659 36.339-2.045 4.094-3.155 5.763-5.748 10.815 10.522 29.91 45.254 120.58 43.452 121.98-2.631 2.046-45.762-40.686-60.356-59.771-1.9-2.485-3.079-4.834-2.777-8.915 1.315-17.829 4.24-46.961 4.093-69.661" fill="#fff9c5"/></g><g transform="matrix(1.0287 0 0 1.0287 225.38 295.59)"><path d="m0 0c10.441-0.436 21.626-1.183 31.633-4.725 1.367 0.375 2.531 0.734 3.907 1.051 4.98 9.392 8.14 34.24 6.347 34.498-1.305 0.188-24.051-18.892-41.887-30.824" fill="#fff9c5"/></g><g transform="matrix(1.0287 0 0 1.0287 311.49 291.76)"><path d="m0 0 1.444 0.712c-8.404 11.468-20.395 25.145-29.224 31.603-1.615 1.181-3.067 0.77-3.169-1.927-0.248-6.588-0.427-19.526 0.315-29.091 1.488-0.242 3.477-0.925 5.154-1.546 8.638 1.304 17.835 1.679 25.48 0.249" fill="#fff9c5"/></g><g transform="matrix(1.0287 0 0 1.0287 437.72 298.88)"><path d="m0 0c1.699 8.611 3.285 15.633 5.381 19.939 2.097 4.305 5.39 5.314 10.309 4.248 14.388-3.115 33.817-10.817 43.559-15.802l-1.303-1.021c-10.951-0.6-32.287-4.135-48.203-10.309-3.002 1.472-6.004 2.55-9.743 2.945" fill="#fff9c5"/></g><g transform="matrix(1.0287 0 0 1.0287 331.5 467.18)"><path d="m0 0c-1.347-1.813-2.124-2.902-1.554-3.418 0.57-0.519 5.023-0.519 14.759 3.937-4.815 0.36-9.114 0.257-13.205-0.519" fill="#57c1e8"/></g><g transform="matrix(1.0287 0 0 1.0287 353.02 466.8)"><path d="m0 0c2.952-4.453 9.598-10.075 11.238-8.855 1.813 1.345 1.968 3.781 2.279 5.697-4.713 1.45-8.028 2.226-13.517 3.158" fill="#57c1e8"/></g><g transform="matrix(1.0287 0 0 1.0287 59.966 435.61)"><path d="m0 0c3.215 0 6.28-2.058 8.084-5.302l1.634 1.283c4.531 14.54 13.856 37.043 12.837 37.459-2.388 0.975-16.637-19.558-22.847-32.344z" fill="#fff9c5"/></g><g transform="matrix(1.0287 0 0 1.0287 80.411 433.05)"><path d="m0 0c1.315-0.219 2.528-1.151 3.2-2.037 5.569 4.229 11.024 7.953 15.713 9.454 1.181 1.644 1.987 2.762 2.863 3.957-2.339 10.034-7.477 29.443-9.548 29.421-2.071-0.023-8.501-24.429-12.228-40.795" fill="#fff9c5"/></g><g transform="matrix(1.0287 0 0 1.0287 318.38 696.86)"><path d="m0 0c-16.745-18.215-34.583-38.823-51.143-59.249-2.063-2.543-2.367-3.61-1.862-8.369 2.361-22.24 5.859-52.601 8.331-55.83 10.341 29.135 43.495 113.56 44.674 123.45" fill="#dbd7ab"/></g><g transform="matrix(1.0287 0 0 1.0287 228.24 465.6)"><path d="m0 0 2.593 0.432c6.481-3.802 10.629-6.136 15.21-8.296 6.396-6.827 15.298-15.556 22.47-21.692-13.742 7.173-25.149 17.543-40.273 29.556" fill="#005a9e"/></g><g transform="matrix(1.0287 0 0 1.0287 230.91 466.04)"><path d="m0 0c4.86-2.93 10.891-6.542 15.21-8.296 7.606-8.206 19.476-20.929 27.51-24.459 1.52 1.644 2.678 2.861 4.504 3.896-4.933 13.151-6.516 33.271-3.788 48.787-11.668-9.404-29.024-17.154-43.436-19.928" fill="#dbd7ab"/></g><g transform="matrix(1.0287 0 0 1.0287 305.91 447.66)"><path d="m0 0c-2.633-7.434-3.794-12.236 1.859-19.746 0.697 6.814 0.774 12.701-1.859 19.746" fill="#dbd7ab"/></g><g transform="matrix(1.0287 0 0 1.0287 217.34 637.56)"><path d="m0 0c-8.162-24.682-23.816-78.281-25.766-92.583-0.533-3.909-0.421-5.742 0.457-9.7 2.845-12.794 10.204-38.099 15.358-54.804-3.91 43.405 0.766 80.817 7.343 102.45-0.025 5.732 0.505 13.219 1.261 18.588 1.057 0.303 2.343 0.831 3.628 1.135 0.38 9.981-0.101 34.144-2.281 34.918" fill="#004984"/></g><g transform="matrix(1.0287 0 0 1.0287 135.43 650.2)"><path d="m0 0c1.607-17.245 3.799-47.642 5.115-53.488 1.315-5.845 19.436-42.965 28.789-57.433h0.789c-1.593 5.763-3.189 12.198-3.433 19.247-3.983 13.671-9.316 27.461-13.055 36.533l3.493-0.121c-9.764 18.921-19.019 55.36-21.698 55.262" fill="#004984"/></g><g transform="matrix(1.0287 0 0 1.0287 240.12 542.68)"><path d="m0 0c2.065-4.131 9.01-5.914 13.328-2.909-2.909-6.853-6.756-15.582-11.263-16.614-1.878 5.63-3.286 10.794-2.065 19.523" fill="#004984"/></g><g transform="matrix(1.0287 0 0 1.0287 164.74 516.79)"><path d="m0 0c1.447-1.025 3.557-1.107 5.533-1.178 1.271-2.786 4.035-7.045 6.187-9.62-4.657 0.81-9.012 3.605-11.72 10.798" fill="#004984"/></g><g transform="matrix(1.0287 0 0 1.0287 157.73 550.38)"><path d="m0 0c-7.647-12.541-14.844-19.04-26.144-26.575-20.506-13.673-27.757-26.84-26.374-37.501 1.855 8.933 17.377 26.221 28.355 31.439 9.841 4.676 22.701 11.691 29.034 25.72z" fill="#004984"/></g><g transform="matrix(1.0287 0 0 1.0287 37.967 418.39)"><path d="m0 0c6.625-12.08 19.399 10.86 18.313 16.537-0.229 1.199-0.163 1.859 0.593 3.208 7.088 12.64 20.382 32.865 25.789 31.915-5.773-5.554-16.879-19.583-23.674-33.831 0.949-4.895-1.535-11.18-5.116-16.002-9.97-13.429-15.969-7.885-15.905-1.827" fill="#004984"/></g><g transform="matrix(1.0287 0 0 1.0287 80.636 433.12)"><path d="m0 0c7.307-4.092 5.042-12.129 0-19.656-8.892-13.271-20.638-14.422-20.824-2.459 4.578-7.015 12.567-3.898 18.219 5.261 4.423 7.167 3.73 12.689 0.876 13.639-1.461 0.486-1.821 1.82-1.364 3.898 3.385 15.391 11.437 42.455 15.004 42.768 2.776 0.244 7.655-12.162 12.276-30.201 0.511-1.997 0.07-3.123-0.877-4.481-11.473-16.441 1.607-24.114 11.179-16.295-6.065-8.476-13.153-6.43-15.564-4.384-4.906 4.162-5.528 14.025 2.704 23.236-2.338 9.863-8.111 29.665-9.499 29.519-1.389-0.146-9.572-25.794-12.13-40.845" fill="#004984"/></g><g transform="matrix(1.0287 0 0 1.0287 342.44 523.17)"><path d="m0 0c-6.284-21.629-12.568-37.12-20.606-54.218l-0.292-4.531c4.383 3.362 8.622 4.531 14.029 5.116 2.923 15.198 9.207 53.341 6.869 53.633" fill="#004984"/></g><g transform="matrix(1.0287 0 0 1.0287 307.83 499.3)"><path d="m0 0c4.677-7.631 9.601-24.739 11.2-37.293-6.297-11.641 17.671-65.811 33.649-66.395 17.341-15.393 38.97-10.522 44.038 2.923 4.016-0.47 10.95 1.132 14.551 5.398-0.749-8.107-6.269-17.731-13.371-21.519 15.673-11.646 29.538-26.805 39.542-41.264 0.838-1.213 1.055-2.193 0.585-3.898-3.604-13.055-9.158-24.454-15.78-34.444-1.435-2.164-2.608-3.231-4.923-3.747-7.173-1.594-6.576-6.283 2.669-7.814 12.636-2.09 25.536-1.1 29.628 4.599 1.024-5.846-7.704-10.663-25.007-9.442-16.192 1.144-23.635 5.734-22.911 10.227 0.649 4.023 6.577 7.483 15.203 8.219 7.985 11.929 13.675 24.41 14.132 35.788-9.908 11.193-26.059 27.618-45.788 35.603-22.012-7.048-44.506 1.336-53.223 15.181-6.626 10.523-10.425 17.733-13.836 26.403-0.193-4.872-2.337-8.282-5.65-10.328 0.585 8.477-0.177 14.096-4.716 21.858 1.112 6.592 0.82 12.73-1.422 20.328 3.118 15.002 4.516 31.619 1.43 49.617" fill="#004984"/></g><g transform="matrix(1.0287 0 0 1.0287 428.23 380.71)"><path d="m0 0c1.56-5.455 5.359-15.783 9.744-23.383-3.508 3.606-5.358 5.554-7.307 7.6-1.365 4.581-4.289 15.102-2.437 15.783" fill="#004984"/></g><g transform="matrix(1.0287 0 0 1.0287 443.06 321.28)"><path d="m0 0c3.41 5.651 6.374 7.296 12.764 5.747 15.686-3.799 30.007-9.255 44.523-16.756 2.717-1.404 2.534-2.826 0.488-4.58-9.662-8.28 29.715-12.324 38.484-0.194 0-7.015-8.67-11.888-23.382-12.569-24.412-1.132-29.025 8.706-18.805 14.809-12.08 6.236-30.086 13.141-42.575 15.783-5.066 1.073-7.308 0.683-11.497-2.24" fill="#004984"/></g><g transform="matrix(1.0287 0 0 1.0287 249.13 447.06)"><path d="m0 0c-5.06-17.837-35.847-26.021-56.905-16.481-9.485-6.569-15.623-10.661-20.884-12.123-5.261-1.461-9.207-0.292-10.23 9.646-2.63-7.307-0.625-14.735 6.869-19.291 22.359-13.591 52.416-26.111 72.876-30.057-12.373-10.328-35.027-21.01-54.645-26.499-1.522-0.425-1.939-0.487-3.215-0.11-9.755 2.886-25.758 1.717-30.117-2.912 2.24-6.332 9.62-8.085 18.462-8.304 8.841-0.219 23.456 0.803 18.341 7.891 10.668 5.407 28.934 12.694 40.334 16.222 3.069 0.95 4.311 0.657 3.946-2.923s-1.169-13.517-6.576-19.51c-6.568-0.585-14.522-3.258-14.923-7.334-0.4-4.079 6.55-8.824 17.446-9.358 10.895-0.536 17.779 1.066 18.381 5.144 0.44 2.99-0.968 5.303-6.885 7.755 8.048 24.545 14.917 41.059 22.662 52.458-3.361 9.791-6.576 28.351 9.718 40.993-5.772 3.507-18.11 10.663-24.655 14.793" fill="#004984"/></g><g transform="matrix(1.0287 0 0 1.0287 298.79 511.44)"><path d="m0 0c0.483-11.1-3.265-20.33-9.008-30.564-6.34-11.299-7.573-22.547-4.504-39.733-1.551-0.598-3.322-1.574-5.251-2.69-4.41 12.985-6.127 29.204-3.788 48.787 8.964 7.305 14.996 13.232 22.551 24.2" fill="#004984"/></g><g transform="matrix(1.0287 0 0 1.0287 273.89 390.23)"><path d="m0 0c2.901-7.704 4.342-25.424 0-38.835-1.924-5.941-5.228-10.163-9.32-13.323 2.302 3.179 2.995 4.838 3.983 9.023 3.361 14.249 2.996 25.794-1.827 37.12-9.215 21.643-3.729 38.127 6.795 45.743-7.088-12.715-8.323-29.405 0.369-39.728" fill="#004984"/></g><g transform="matrix(1.0287 0 0 1.0287 190.36 293.45)"><path d="m0 0c5.88-9.659 42.41-9.431 30.994 1.176-1.176 1.094-1.577 2.297-0.42 3.025 12.685 7.981 32.563 21.663 43.091 30.573 2.184 1.85 4.976 1.592 5.208-2.098 0.573-9.132-1.62-24.038-5.292-33.766l-4.146-0.794c5.188 10.011 8.403 34.562 6.795 35.22-1.149 0.47-20.313-16.66-42.088-30.909 2.558-1.534 4.78-4.665 4.165-7.015-0.804-3.068-6.357-6.723-21.336-5.699-13.51 0.922-18.853 6.941-16.971 10.287" fill="#004984"/></g><g transform="matrix(1.0287 0 0 1.0287 252.06 287.1)"><path d="m0 0c-6.906-12.157 39.918-12.354 36.656 0.877 5.437-6.887-1.481-13.927-17.334-14.27-16.952-0.365-29.425 5.003-19.322 13.393" fill="#004984"/></g><g transform="matrix(1.0287 0 0 1.0287 279 324.28)"><path d="m0 0c0.464 4.097 2.821 5.211 5.751 2.8 11.201-9.226 22.527-20.624 30.724-32.446 1.16-1.673 0.846-2.902-0.823-3.637-5.288-2.324-4.248-5.907 10.656-6.022 9.333-0.073 18.714 1.503 20.347 4.855 0.725-2.991-3.173-7.613-17.764-7.976-14.591-0.361-21.751 1.722-22.204 4.532-0.454 2.809 2.899 5.529 6.343 6.887-7.25 10.061-21.623 26.429-28.821 31.45-1.891 1.32-3.149 1.023-4.209-0.443" fill="#004984"/></g><g transform="matrix(1.0287 0 0 1.0287 167.95 535.75)"><path d="m0 0-4.58 6.332c-13.737-35.074 3.214-68.296 36.145-74.92 4.336 0.68 10.036 0.534 14.566-0.927 64.742 5.213 98.062 56.458 91.923 92.215-3.799-41.991-59.721-81.645-100.25-81.645-9.158 6.138-17.439 15.589-23.772 23.09-5.457-0.292-10.449 4.362-13.105 9.817-5.773 7.501-7.104 21.163-4.994 24.478 0.511 0.804 1.414 1.29 4.068 1.56" fill="#cf858f"/></g><g transform="matrix(1.0287 0 0 1.0287 160.69 593.08)"><path d="m0 0c5.115-13.006 7.672-19.875 10.522-31.859l-3.653-4.603c-2.777 11.18-9.04 27.164-13.216 36.855z" fill="#4ba8ca"/></g><g transform="matrix(1.0287 0 0 1.0287 316.68 749.02)"><path d="m0 0c1.948-25.038-36.538-55.015-81.352-53.389-88.561 3.215-123.13-40.154-115.92-85.958 3.345-7.207 11.321-19.814 30.136-31.101-4.531 8.622-8.283 16.137-9.109 19.437-1.462 5.845-1.739 54.245 0.292 54.558 0.633 0.099 0.925-0.559 1.29-1.363 8.111 21.629 40.498 37.992 89.95 36.243 74.386-2.631 92.945 49.395 84.713 61.573" fill="#cf858f"/></g><g transform="matrix(1.0287 0 0 1.0287 276.25 722.3)"><path d="m0 0c-1.318 2.167 0.577 7.441 6.793 11.696 5.227 3.575 11.379 4.11 13.133 1.794 1.484-1.959 0.161-7.663-5.404-11.689-6.443-4.66-12.874-4.514-14.522-1.801" fill="#f7cfd2"/></g><g transform="matrix(1.0287 0 0 1.0287 275.99 580.05)"><path d="m0 0c-0.975-3.215-1.754-5.75-2.534-8.184 1.754-3.409 4.094-7.503 5.749-10.522 0.584 4.871 0.975 13.833-3.215 18.706" fill="#004984"/></g><g transform="matrix(1.0287 0 0 1.0287 170.03 508.37)"><path d="m0 0c0.731-3.727 5.309-9.134 12.032-9.572-1.9 2.192-3.58 4.482-4.603 6.382-1.082 0-4.922 1.386-7.429 3.19" fill="#fff"/></g><g transform="matrix(1.0287 0 0 1.0287 169.96 516.41)"><path d="m0 0c3.625 3.69 9.667 7.754 16.853 11.057 0.519-2.33 0.805-3.896 1.097-5.211-2.118-3.654-6.687-10.968-10.765-15.759-2.33 1.295-4.466 4.995-7.185 9.913" fill="#c0cad0"/></g><g transform="matrix(1.0287 0 0 1.0287 215.8 535.91)"><path d="m0 0c6.279 1.941 13.723 3.496 23.499 5.437-0.518-6.02-0.129-12.689 2.266-18.839-9.387 0.649-24.407 8.351-25.765 13.402" fill="#c0cad0"/></g><g transform="matrix(1.0287 0 0 1.0287 226.4 339.13)"><path d="m0 0c4.662 6.339 6.904 14.913 6.775 20.134-0.063 2.548-1.225 3.468-3.543 2.797-10.316-2.983-30.228-10.614-40.563-16.119l0.727-0.97c9.508 0.184 21.067-0.87 36.604-5.842" fill="#dbd7ab"/></g><g transform="matrix(1.0287 0 0 1.0287 115.93 542.09)"><path d="m0 0c0.59-7.042 5.406-7.398 11.891-2.756 9.255 6.627 15.102 14.128 20.157 25.71 1.764-3.398 2.835-5.152 4.394-7.881-9.645-21.432-30.73-28.623-35.073-26.207-1.754 0.975-2.836 5.512-1.369 11.134" fill="#c0cad0"/></g><g transform="matrix(1.0287 0 0 1.0287 158.43 432.02)"><path d="m0 0c1.559-8.086 7.571-8.7 14.834-4.916 16.465 8.574 30.08 22.452 28.229 30.636 3.799-2.339 4.547-12.426-11.205-26.987-5.164-4.773-14.517-10.911-20.947-12.664-6.43-1.754-10.911-0.096-10.911 13.931" fill="#c0cad0"/></g><g transform="matrix(1.0287 0 0 1.0287 268.15 415.94)"><path d="m0 0c3.39-20.704 27.357-22.312 36.045-2.797-0.651-14.254-12.818-28.66-22.133-26.821-11.107 2.191-14.379 12.18-13.912 29.618" fill="#c0cad0"/></g><g transform="matrix(1.0287 0 0 1.0287 340.49 423.5)"><path d="m0 0c9.938-32.443 51.149-36.828 58.456-14.76 2.484-15.345-7.35-25.851-22.943-24.552-19.291 1.607-36.682 16.66-35.513 39.312" fill="#c0cad0"/></g><g transform="matrix(1.0287 0 0 1.0287 213.25 491.25)"><path d="m0 0c-0.347 0.183-1.248-0.482-1.869-1.505-0.582-0.959-0.603-2.32-0.091-2.539 0.354-0.15 1.169 0.147 1.498 1.315 0.334 1.19 0.809 2.546 0.462 2.729" fill="#0f141b"/></g><g transform="matrix(1.0287 0 0 1.0287 196.52 487.04)"><path d="m0 0c0.245 0.194 1.023-0.121 1.633-0.852 0.593-0.71 0.838-1.701 0.473-1.913-0.219-0.128-0.84 0.036-1.399 0.865-0.56 0.827-0.955 1.701-0.707 1.9" fill="#0f141b"/></g><g transform="matrix(1.0287 0 0 1.0287 241.12 533.35)"><path d="m0 0c1.213-14.098 7.427-19.245 12.082-18.121 5.206 1.26 10.295 10.785 8.475 23.332-2.059 14.21-8.205 19.06-12.565 18.457-5.118-0.71-9.038-11.527-7.992-23.668m-2.484-0.196c-1.232 13.858 3.602 25.118 10.249 26.004 6.15 0.815 13.03-5.716 15.13-20.206 0.751-5.184 0.329-10.199-0.94-14.412-0.061-0.205-7.706-10.953-9.746-11.357-6.358-1.266-13.429 5.74-14.693 19.971" fill="#0f141b"/></g><g transform="matrix(1.0287 0 0 1.0287 258.96 552.69)"><path d="m0 0c-3.012-11.783-8.866-27.717-15.686-30.493l-0.974 1.995c5.323 2.279 11.943 17.094 15.199 30.496z" fill="#0f141b"/></g><g transform="matrix(1.0287 0 0 1.0287 255.95 545.67)"><path d="m0 0c5.529-10 5.018-23.383 1.399-24.211-1.964-0.451-5.491 1.362-7.732 9.353l0.974 2.155c2.244-7.451 5.039-10.324 6.357-9.974 1.922 0.495 2.363 11.52-1.79 20.569z" fill="#0f141b"/></g><g transform="matrix(1.0287 0 0 1.0287 242.85 520.65)"><path d="m0 0c-16.332 2.338-27.923 12.125-27.986 15.125-0.073 3.472 26.013 22.835 34.856 23.086l-3.765-3.027c-9.828-3.946-28.324-17.962-28.46-20.095-0.137-2.119 10.983-10.502 24.515-13.08z" fill="#0f141b"/></g><g transform="matrix(1.0287 0 0 1.0287 262.45 525.05)"><path d="m0 0c6.68 8.835 20.884 34.816 13.197 51.266l1.141 3.096c10.814-17.347-4.464-46.945-15.345-59.408-1.803-2.097-4.481-5.355-6.892-7.321-17.056-17.046-42.842-36.679-45.913-36.761-3.701-0.099-21.085 16.721-29.899 29.639l1.82 1.05c9.129-13.723 25.789-29.05 27.982-28.935 2.401 0.123 26.281 18.365 42.967 35.11 3.799 3.658 7.505 7.784 10.942 12.264" fill="#0f141b"/></g><g transform="matrix(1.0287 0 0 1.0287 207.39 475.67)"><path d="m0 0c10.753 8.456 27.622 33.272 33.71 45.596l1.121-2.387c-5.646-10.709-18.024-29.034-28.255-39.458z" fill="#0f141b"/></g><g transform="matrix(1.0287 0 0 1.0287 215.86 581.43)"><path d="m0 0c-10.814-37.387-9.646-78.989-7.581-102.85l-1.663-0.146c-2.667 21.154-4.298 66.677 7.253 104.38z" fill="#0f141b"/></g><g transform="matrix(1.0287 0 0 1.0287 218.64 601.42)"><path d="m0 0c0.415 19.364-0.877 33.612-1.543 33.731-4.01 0.71-29.052-78.912-29.877-94.306-0.349-6.499 12.913-48.624 20.752-61.964l-2.412 0.584c-9.207 16.295-21.044 55.027-20.898 61.453 0.25 10.969 25.527 98.181 32.885 96.9 2.377-0.416 3.504-16.304 3.577-35.814z" fill="#0f141b"/></g><g transform="matrix(1.0287 0 0 1.0287 256.45 579.25)"><path d="m0 0c-9.061 3.727-28.041 5.731-40.079 1.169-1.313-0.498-1.864-0.171-1.827 1.425 0.183 7.782 0.621 12.166 1.425 18.048 0.126 0.923 0.298 1.106 1.388 1.389 12.607 3.262 25.251 7.197 36.586 13.821l0.399-2.685c-11.252-6.492-23.393-9.931-36.327-13.146-0.716-5.149-1.15-10.045-1.352-16.587 11.072 4.638 31.004 3.062 39.714-0.548z" fill="#0f141b"/></g><g transform="matrix(1.0287 0 0 1.0287 193.62 575.05)"><path d="m0 0c-10.071-5.578-15.695-9.853-23.968-19.119-1.449-1.624-1.971-1.147-2.425 0.491-3.136 11.308-7.521 22.805-12.686 35.761-0.633 1.592-0.312 2.137 1.754 1.95 15.004-1.363 28.643-0.975 43.708 1.847l-0.889-2.822c-15.462-2.565-28.497-2.434-41.941-1.557 4.676-11.497 8.866-22.995 11.497-33.126 7.805 8.773 13.639 12.86 25.992 20.105z" fill="#0f141b"/></g><g transform="matrix(1.0287 0 0 1.0287 170.66 534.75)"><path d="m0 0c-2.15 6.521-3.703 14.322-4.072 20.551l2.197-0.018c0.438-6.211 1.827-14.178 4.067-20.775z" fill="#0f141b"/></g><g transform="matrix(1.0287 0 0 1.0287 156.04 593.37)"><path d="m0 0c-11.116 23.102-18.325 53.499-19.6 53.334-1.219-0.157-0.786-48.511 0.787-53.03 2.089-6.006 17.816-38.951 31.737-56.556l-2.411-0.22c-13.89 17.866-30.03 50.026-31.936 56.056-1.675 5.3-2.358 56.155 1.332 56.568 3.721 0.418 10.73-31.297 23.152-56.152z" fill="#0f141b"/></g><g transform="matrix(1.0287 0 0 1.0287 212.62 465.57)"><path d="m0 0c44.606-0.514 91.593 36.304 93.675 79.322 1.003 20.698-7.605 35.266-27.062 44.315l0.902 2.427c21.276-9.569 30.261-25.485 29.23-46.815-2.053-42.406-46.319-78.897-90.558-81.558z" fill="#0f141b"/></g><g transform="matrix(1.0287 0 0 1.0287 198.69 464.51)"><path d="m0 0c-35.876 7.513-48.21 43.575-35.555 76.271l1.932-2.226c-12.132-32.484 2.264-68.131 39.734-72.547z" fill="#0f141b"/></g><g transform="matrix(1.0287 0 0 1.0287 281.48 593.71)"><path d="m0 0c14.056-9.088 16.338-30.562-11.177-58.385l2.338 6.234c21.142 23.188 20.361 42.284 8.313 50.42z" fill="#0f141b"/></g><g transform="matrix(1.0287 0 0 1.0287 256.43 555.64)"><path d="m0 0c-0.789 26.052-2.866 49.242-4.335 66.861-0.507 6.081 0.398 8.447 3.697 12.413 20.231 24.337 55.921 60.936 61.17 59.153 4.16-1.411-23.755-66.768-42.861-122.98 2.188-3.706 3.284-5.899 4.526-9.26l-0.731-3.397c-1.936 4.822-3.616 7.709-6.211 11.344-0.498 0.699-0.421 1.037-0.127 1.9 18.331 54.273 45.404 119.95 43.957 120.48-2.297 0.836-36.948-33.665-57.669-58.922-3.374-4.113-3.686-5.302-3.241-10.634 1.503-18.049 3.118-42.328 3.879-69.143z" fill="#0f141b"/></g><g transform="matrix(1.0287 0 0 1.0287 234.05 454.8)"><path d="m0 0c-15.941 9.965-30.393 10.938-38.324 6.421l-5.052 0.37c9.127 7.211 26.667 6.704 44.747-4.599 11.489-7.184 26.518-16.584 39.253-23.233l-1.623-2.124c-12.695 6.647-27.569 16.018-39.001 23.165" fill="#0f141b"/></g><g transform="matrix(1.0287 0 0 1.0287 159.44 423.2)"><path d="m0 0c-1.266-6.528 1.895-10.561 8.768-14.907 25.42-16.073 50.707-23.932 67.517-28.548 4.278-1.172 3.664-2.534-0.349-1.616-19.428 4.444-43.445 11.559-69.019 27.728-11.048 6.985-12.178 14.128-8.574 24.358z" fill="#0f141b"/></g><g transform="matrix(1.0287 0 0 1.0287 159.89 425.11)"><path d="m0 0c1.543-7.928 6.688-7.526 11.842-4.93 15.365 7.739 24.345 15.918 29.73 26.772 3.028 6.109 0.7 10.995-5.826 12.217-19.107 3.592-39.76-13.461-35.746-34.059m-1.997-0.632c-4.64 23.824 17.261 40.715 38.013 36.828 6.908-1.295 11.747-6.336 7.272-15.83-5.312-11.271-16.935-21.268-30.672-27.479-7.958-3.596-12.944-2.089-14.613 6.481" fill="#0f141b"/></g><g transform="matrix(1.0287 0 0 1.0287 179.16 455.33)"><path d="m0 0c0.538 0.532 1.791 1.306 2.785 1.542 1.903 0.452 2.254-0.476 0.452-1.247-0.847-0.363-1.76-0.911-2.476-1.382-1.663-1.091-2.338-0.468-0.761 1.087" fill="#0f141b"/></g><g transform="matrix(1.0287 0 0 1.0287 160.68 434.42)"><path d="m0 0c3.723 7.702 7.996 12.898 13.854 17.175 2.208 1.612 2.868 0.728 0.797-1.059-4.929-4.257-9.606-9.882-13.475-16.728-1.207-2.135-2.291-1.694-1.176 0.612" fill="#0f141b"/></g><g transform="matrix(1.0287 0 0 1.0287 238.17 389.74)"><path d="m0 0c-18.321-5.98-53.103 10.022-64.042 21.145-2.392 2.432-1.591 3.238 0.932 0.943 11.176-10.166 45.75-25.072 62.527-19.64 8.77 2.838 13.828 4.724 24.178 7.515l0.291-2.622c-10.13-2.654-15.226-4.537-23.886-7.341" fill="#0f141b"/></g><g transform="matrix(1.0287 0 0 1.0287 243.9 393.29)"><path d="m0 0c2.064-0.749 2.996-1.187 4.511-2.087 2.704-1.605 2.079-2.29-0.594-1.184-2.127 0.878-3.314 1.335-6.292 2.047z" fill="#0f141b"/></g><g transform="matrix(1.0287 0 0 1.0287 233.81 378.63)"><path d="m0 0c-5.223-9.127-29.442-21.558-48.33-26.575-0.638-0.164-0.755-0.146-1.394 0.012-19.141 4.987-30.318-1.368-30.599-4.015-0.252-2.391 3.616-7.211 17.026-7.969 14.87-0.84 21.994 3.361 17.939 6.211-0.758 0.534-0.679 1.096 0.182 1.498 15.655 7.318 29.613 12.68 38.693 15.809 6.476 2.232 7.826 0.634 7.257-4.727-0.609-5.748-2.29-12.397-6.4-18.772-0.285-0.442-0.453-0.576-1.096-0.604-8.756-0.376-13.611-3.851-13.792-6.393-0.194-2.713 3.399-6.787 15.538-8.038 11.023-1.13 17.408 1.644 17.928 4.142 0.45 2.167-1.365 5.163-5.71 6.89-2.937 1.167-2.51 2.15 0.509 1.223 5.381-1.648 8.117-5.733 7.49-8.748-0.75-3.607-8.654-6.713-20.363-5.503-12.744 1.311-18.233 5.869-17.975 10.132 0.244 4.044 6.333 7.892 15.662 8.305 4.214 6.115 5.237 11.669 6.066 17.562 0.487 3.457-0.489 3.925-4.53 2.533-8.869-3.058-21.965-7.984-37.194-15.053 3.775-3.863-2.06-9.228-20.204-8.366-15.529 0.73-19.692 6.1-19.499 10.151 0.246 5.166 14.275 10.857 33.492 5.668 19.95 5.334 41.755 17.302 46.766 25.282z" fill="#0f141b"/></g><g transform="matrix(1.0287 0 0 1.0287 264.83 388.29)"><path d="m0 0c-10.225-15.07-15.161-30.212-21.875-51.542l-2.352 0.875c7.166 21.039 12.135 36.385 23.445 53.274z" fill="#0f141b"/></g><g transform="matrix(1.0287 0 0 1.0287 223.53 339.02)"><path d="m0 0c-10.438 3.462-21.835 4.96-33.393 4.896l-1.096 2.265c13.445 0.365 25.794-1.388 38.362-6.503z" fill="#0f141b"/></g><g transform="matrix(1.0287 0 0 1.0287 249.76 447.1)"><path d="m0 0c-4.283 3.453-18.479 14.281-22.505 17.537l3.36 0.804c3.73-3.021 23.312-18.786 30.398-24.404z" fill="#0f141b"/></g><g transform="matrix(1.0287 0 0 1.0287 264.22 438.69)"><path d="m0 0c-7.073 5.857-11.917 11.09-17.722 17.269-5.762 2.884-10.463 5.484-16.438 9.097l3.032 0.719c5.411-3.24 9.148-5.284 14.574-7.997 0.07-0.034 0.133-0.082 0.186-0.139 7.545-8.035 14.524-15.54 25.235-23.674z" fill="#0f141b"/></g><g transform="matrix(1.0287 0 0 1.0287 274.64 460.23)"><path d="m0 0c-6.796-0.073-12.179-0.534-20.094-2.094-4.598-0.904-5.123 0.229-0.293 1.535 6.211 1.681 12.276 2.557 20.095 2.776z" fill="#0f141b"/></g><g transform="matrix(1.0287 0 0 1.0287 278.46 435.43)"><path d="m0 0c-6.094 14.415-6.191 31.659-4.42 48.495l3.1 2.375c-2.534-19.503-1.257-37.703 3.431-49.351z" fill="#0f141b"/></g><g transform="matrix(1.0287 0 0 1.0287 269.12 413.41)"><path d="m0 0c-1.005-14.402 4.226-25.138 12.938-26.049 7.84-0.827 20.198 8.971 21.177 28.371 0.732 14.498-5.622 21.942-13.171 22.22-11.012 0.402-19.946-10.241-20.944-24.542m12.707-28.255c-10.468 1.093-16.163 13.838-15.145 28.428 1.048 15.019 10.407 26.886 23.614 26.343 10.08-0.368 16.285-10.895 15.609-24.31-0.982-19.393-14.074-31.533-24.078-30.461" fill="#0f141b"/></g><g transform="matrix(1.0287 0 0 1.0287 276.19 428.54)"><path d="m0 0c6.453 5.012 13.92 5.672 19.495 2.439 2.937-1.704 2.412-2.683-0.626-1.169-5.139 2.56-11.424 1.804-18.139-2.377-2.239-1.395-2.995-0.651-0.73 1.107" fill="#0f141b"/></g><g transform="matrix(1.0287 0 0 1.0287 272.09 427.71)"><path d="m0 0c-12.495-11.765-8.995-31.341-4.604-41.285 5.232-11.842 5.597-26.874 1.286-40.774-1.08-3.484-1.483-4.21-3.884-6.336-14.962-13.26-33.591-25.478-50.304-36.519-0.617-0.406-0.82-0.445-1.681-0.365-11.608 1.226-19.496-3.106-19.583-6.442-0.081-3.149 5.728-7.618 17.634-8.135 11.956-0.526 18.615 1.815 18.804 5.455 0.088 1.673-1.267 4.237-3.538 5.315-2.923 1.386-2.35 2.315 0.667 1.147 2.968-1.152 5.493-4.026 5.355-6.657-0.272-5.233-8.499-7.818-21.288-7.258-13.223 0.577-20.42 5.545-20.118 10.279 0.292 4.579 8.549 9.84 22.14 8.305 16.628 10.986 35.649 23.264 50.481 36.408 2.05 1.817 2.578 2.477 3.474 5.366 4.217 13.598 3.54 27.707-1.564 39.262-7.495 16.972-7.672 38.653 12.422 49.979z" fill="#0f141b"/></g><g transform="matrix(1.0287 0 0 1.0287 224.28 296.22)"><path d="m0 0c11.333 7.994 32.192 23.035 40.7 30.13 2.593 2.162 3.854 1.715 3.745-1.699-0.384-11.892-3.088-25.044-6.542-32.613l-2.924-0.759c4.552 8.035 6.817 21.407 7.803 33.61 0.059 0.726-0.074 0.855-0.949 0.109-8.806-7.49-28.667-21.937-38.959-29.363z" fill="#0f141b"/></g><g transform="matrix(1.0287 0 0 1.0287 246.6 281.29)"><path d="m0 0c-0.306 3.872 5.846 9.718 16.702 11.154 3.105 0.411 3.314-0.591 0.267-1.3-10.977-2.547-14.175-7.219-13.973-9.782 0.25-3.174 5.325-7.284 20.24-6.795 14.547 0.494 19.114 4.245 18.999 9.134-0.076 3.142-3.581 7.453-10.956 8.401-3.849 0.496-3.757 1.438 0.114 1.32 8.541-0.263 13.519-5.202 13.629-9.84 0.127-5.288-3.866-10.535-21.786-11.134-16.724-0.557-22.852 3.983-23.236 8.842" fill="#0f141b"/></g><g transform="matrix(1.0287 0 0 1.0287 278.65 292.97)"><path d="m0 0c-0.389 9.547-0.535 19.412 0.056 28.758 0.277 4.382 2.202 4.962 5.259 2.598 8.681-6.713 18.592-17.427 29.041-31.418 0.437-0.584 0.402-1.226-0.621-1.571-3.243-1.091-5.528-3.633-5.528-5.382 0-2.213 6.369-4.553 19.387-4.139 12.857 0.403 18.538 2.959 18.463 5.941-0.058 2.103-5.871 7.088-18.204 6.476-0.766 0.048-1.012 0.189-1.331 0.527-11.745 12.294-25.213 26.313-37.412 40.444-2.379 2.754-2.161 5.652-1.608 8.721 2.046 11.349 5.414 20.213 11.027 29.399 6.147 10.061 12.34 21.186 13.02 30.299 0.722 9.669-0.733 13.946-5.063 20.682-3.276 5.094-4.267 8.268-2.196 15.009 7.131 23.226 4.89 55.767-2.709 69.6l1.467 2.821c9.055-13.635 11.978-46.272 3.379-72.978-1.664-5.172-1.357-8.245 1.937-13.372 4.413-6.864 6.795-12.096 5.87-21.762-0.898-9.378-6.272-19.559-13.616-31.689-5.491-9.068-9.28-18.012-11.168-28.253-0.643-3.491-0.368-5.134 1.169-6.917 12.112-14.031 25.922-28.26 37.611-40.499 12.029 0.114 20.36-4.124 20.408-8.556 0.047-4.318-6.324-7.342-21.044-7.794-14.245-0.438-21.775 1.834-21.775 5.942 0 2.462 2.07 5.188 6.053 6.759-9.972 13.322-18.5 22.99-27.494 30.231-1.691 1.36-2.393 1.043-2.539-1.148-0.547-8.221-0.182-18.889 0.499-29.021z" fill="#0f141b"/></g><g transform="matrix(1.0287 0 0 1.0287 318.73 460.56)"><path d="m0 0c3.24 14.591-2.995 46.566-11.715 65.61l1.341 3.62c11.36-21.369 15.709-52.762 13.461-67.001z" fill="#0f141b"/></g><g transform="matrix(1.0287 0 0 1.0287 306.83 428.43)"><path d="m0 0c0.561 6.396 0.313 11.041-1.118 17.03l1.118 4.074c2.639-8.152 2.879-15.268 2-23.501z" fill="#0f141b"/></g><g transform="matrix(1.0287 0 0 1.0287 401.48 380.35)"><path d="m0 0c11.583 8.047 15.624 31.08 7.531 46.437-11.889 22.559-41.517 38.627-70.042 37.529-14.338-0.555-24.99-10.814-25.01-24.249-2e-3 -2.624-1.033-2.674-1.324-0.066-1.506 13.501 9.045 25.909 26.407 26.58 28.94 1.146 60.636-15.534 72.75-38.516 8.376-15.895 3.999-42.2-9.653-48.865-3.211-1.567-3.797-1.028-0.659 1.15" fill="#0f141b"/></g><g transform="matrix(1.0287 0 0 1.0287 346.18 374.49)"><path d="m0 0c-15.806 7.736-27.458 34.136-33.054 54.611-1.306 4.784-0.383 5.08 1.263 0.404 7.041-20.005 17.676-44.767 33.061-52.297 14.036-6.874 27.322-7.458 40.751-3.111 4.026 1.302 4.333 0.485 0.469-1.24-12.364-5.518-26.205-6.341-42.49 1.633" fill="#0f141b"/></g><g transform="matrix(1.0287 0 0 1.0287 309.73 423.88)"><path d="m0 0c1.479 0.916 2.675 3.66 2.605 7.32l1.621-4.016c-0.492-2.806-1.634-4.718-3.279-5.517z" fill="#0f141b"/></g><g transform="matrix(1.0287 0 0 1.0287 312.04 402.73)"><path d="m0 0c3.799 2.229 6.478 5.14 6.829 10.49l-1.76 4.576c-0.215-5.608-1.442-9.191-4.787-11.545z" fill="#0f141b"/></g><g transform="matrix(1.0287 0 0 1.0287 347.91 467.47)"><path d="m0 0c-7.556-3.281-16.985-6.072-18.37-4.505-0.708 0.799 0.195 2.63 1.899 4.092l2.883 0.39c-1.835-1.386-3.255-2.881-3.031-3.228 0.283-0.439 6.884 1.388 12.524 3.589z" fill="#0f141b"/></g><g transform="matrix(1.0287 0 0 1.0287 364.84 456.58)"><path d="m0 0c-2.094-0.148-8.58 3.035-13.159 10.063l2.734-0.319c3.118-4.579 8.671-7.844 10.036-7.698 0.514 0.055 1.169 1.95 1.509 4.823l1.801-0.8c-0.372-4.101-1.73-5.985-2.921-6.069" fill="#0f141b"/></g><g transform="matrix(1.0287 0 0 1.0287 349.48 438.75)"><path d="m0 0c-11.741-11.57-10.343-30.518 4.156-43.082 14.911-12.924 32.076-12.508 40.589-3.087 6.614 7.321 5.481 29.253-8.323 41.331-15.453 13.519-30.75 10.43-36.422 4.838m2.323-45.152c-13.971 12.108-17.838 33.018-3.955 46.703 7.641 7.53 24.84 8.618 39.807-4.478 14.941-13.071 15.704-36.766 8.251-44.776-8.84-9.499-27.986-11.417-44.103 2.551" fill="#0f141b"/></g><g transform="matrix(1.0287 0 0 1.0287 388.81 373.33)"><path d="m0 0c19.075-8.369 31.352-19.622 46.111-36.866 2.426-2.834 1.464-3.816-0.98-1.222-15.68 16.64-27.955 27.893-47.861 36.812z" fill="#0f141b"/></g><g transform="matrix(1.0287 0 0 1.0287 410.52 390.01)"><path d="m0 0c7.454-11.773 36.058-40.044 44.736-48.393 3.003-2.888 5.236-4.498 7.943-5.992 9.298-5.128 34.465-15.438 48.727-21.199 14.213 3.143 27.214-1.843 27.784-7.407 0.488-4.781-4.29-11.069-21.26-12.943-16.857-1.863-26.794 1.567-28.658 7.396-0.739 2.309-0.198 5.895 4.189 7.939-11.611 6.111-25.95 11.491-39.042 14.681-7.762 1.891-10.104 0.315-12.073-4.405-2.439-5.845-3.242-10.303-4.405-17.4 8.718-1.388 16.069-6.859 15.486-11.876-0.602-5.174-8.586-8.971-25.964-8.086-20.008 1.019-25.045 6.848-24.821 10.764 0.196 3.428 5.699 8.988 15.491 9.427 9.401 15.004 13.762 23.798 14.346 36.17l2.241-2.533c-1.198-12.049-4.774-19.875-14.371-34.539-0.413-0.63-0.764-0.768-1.559-0.877-9.315-1.265-13.299-5.304-13.445-7.867-0.169-2.95 6.126-7.631 22.215-8.451 17.008-0.865 22.878 3.312 23.216 6.446 0.374 3.451-5.877 8.308-14.205 9.484-1.12 0.157-1.303 0.399-1.071 1.802 1.192 7.16 2.727 13.079 4.943 18.515 1.805 4.428 4.348 7.931 14.356 5.492 13.54-3.296 27.406-8.428 41.435-15.443 1.336-0.666 1.746-1.287 0-2.174-4.52-2.299-4.885-4.71-4.352-6.47 1.301-4.298 10.427-7.627 25.829-5.928 14.498 1.6 19.42 6.88 19.033 10.659-0.437 4.329-11.57 8.204-25.153 5.676-0.84-0.139-1.053-0.055-1.803 0.242-14.261 5.757-38.759 15.562-48.153 20.745-2.836 1.563-5.418 3.373-8.5 6.339-8.536 8.212-36.032 35.25-44.228 47.537z" fill="#0f141b"/></g><g transform="matrix(1.0287 0 0 1.0287 447.23 348)"><path d="m0 0c-1.909 4.188-3.875 7.526-9.436 14.77-4.787 6.236-8.221 15.865-8.759 15.668-0.476-0.173 1.364-10.049 4.268-16.23l-3.09 2.585c-2.414 6.793-3.986 15.724-1.964 16.174 2.408 0.534 6.233-10.671 11.175-16.736 6.755-8.289 10.109-14.489 11.681-20.217z" fill="#0f141b"/></g><g transform="matrix(1.0287 0 0 1.0287 496.31 305.49)"><path d="m0 0c-18.74-2.297-37.813-6.444-46.765-10.011l-2.703 1.242c10.156 4.457 31.128 9.134 51.587 11.107z" fill="#0f141b"/></g><g transform="matrix(1.0287 0 0 1.0287 145.47 571.02)"><path d="m0 0c-24.959 16.183-37.381 31.527-38.021 59.888-0.547 24.214 24.376 84.693 105.76 87.383 34.645 1.146 43.709 7.583 57.682 18.672 19.346 15.351 38.346 14.461 42.887 7.049 6.861-11.194-9.311-67.773-91.63-62.475-36.493 2.349-74.354-11.548-84.324-36.828l-1.461 2.704c8.02 21.514 42.05 39.113 85.858 36.315 78.786-5.043 95.03 48.951 89.151 58.646-3.397 5.604-19.885 7.198-39.017-7.5-16.612-12.763-24.794-17.59-59.146-18.727-80.812-2.672-103.97-64.846-103.4-85.292 0.758-27.326 14.016-41.935 34.597-55.953z" fill="#0f141b"/></g><g transform="matrix(1.0287 0 0 1.0287 154.32 556)"><path d="m0 0c-7.039-16.856-31.16-30.681-37.29-24.785-4.457 4.284-1.042 18.686 8.147 28.425 7.616 8.074 15.687 11.705 20.688 11.919l0.813-2.055c-5.316 0-12.166-3.324-19.747-11.508-10.674-11.52-10.596-23.39-8.549-25.356 4.173-4.005 26.78 7.672 34.428 25.892z" fill="#0f141b"/></g><g transform="matrix(1.0287 0 0 1.0287 120.54 548.36)"><path d="m0 0c3.751 5.933 9.051 11.376 14.579 14.278 2.326 1.224 2.887 0.41 0.744-1.095-5.126-3.597-9.567-7.965-14.261-13.975-1.981-2.535-2.861-2.053-1.062 0.792" fill="#0f141b"/></g><g transform="matrix(1.0287 0 0 1.0287 163.66 541.17)"><path d="m0 0c-5.086-9.563-12.592-16.379-26.036-23.099-5.364-2.683-18.916-10.486-28.781-26.226-1.794-2.861-1.743-4.005-1.231-8.236 1.42-11.739 2.875-21.75 6.537-32.373 6.28 0.45 11.745-6.538 6.637-19.035-3.553-8.694-10.774-11.988-16.765-10.344-8.432 2.317-10.287 14.968-0.491 25.677-1.949 9.108-7.546 28.195-8.476 28.204-0.854 9e-3 -9.386-27.93-10.913-39.213 4.927-1.555 6.377-9.784 0.198-19.856-4.663-7.6-13.316-13.384-18.565-11.555-4.817 1.681-6.279 7.657-4.333 15.592 1.589 6.471 5.406 10.561 10.054 14.488 5.275 16.675 13.32 35.125 12.929 35.383-0.782 0.519-12.807-14.618-20.796-31.423 0.877-4.337-1.311-9.449-4.614-14.911-4.704-7.778-11.18-12.048-16.001-9.326-2.861 1.617-3.985 8.641 1.06 17.521 4.132 7.275 8.445 10.883 12.902 11.467 7.025 13.862 13.593 23.505 24.926 37.288 4.847 5.896 7.258 9.294 10.426 17.343 8.378 21.288 12.178 31.128 25.639 47.139l-0.709-4.845c-9.976-12.92-14.945-23.442-22.982-43.123-3.335-8.165-5.823-11.766-10.766-17.779-11.352-13.808-17.634-23.222-24.674-37.162-0.369-0.728-0.52-0.751-1.114-0.785-3.807-0.229-8.033-3.821-11.741-10.568-4.653-8.465-3.274-13.208-1.518-14.199 2.723-1.539 7.569-0.486 12.715 8.125 3.192 5.341 5.238 10.116 4.307 13.701-0.151 0.582-0.135 0.71 0.164 1.297 11.09 21.429 22.782 34.118 24.56 33.216 2.123-1.078-7.991-22.346-12.701-39.453-0.034-0.123-0.115-0.228-0.213-0.31-5.082-4.279-8.175-7.826-9.559-13.594-1.362-5.681-0.84-11.343 3.059-12.703 3.646-1.273 11.652 3.257 15.93 10.408 5.425 9.07 4.538 15.681-0.17 17.163-0.711 0.224-0.763 0.596-0.679 1.274 1.214 9.97 10.593 41.697 13.13 41.836 2.515 0.14 8.581-21.697 10.522-30.25 0.157-0.689 0.015-1.086-0.243-1.363-8.506-9.072-7.563-20.444-0.542-22.37 3.197-0.887 10.455-0.09 14.147 8.946 4.427 10.832 0.034 16.394-5.324 16.15-0.737-0.032-1.043 0.198-1.316 0.974-3.835 10.899-5.332 22.118-6.815 33.254-0.601 4.522-0.353 6.43 1.61 9.561 10.045 16.026 23.793 24.44 29.255 27.171 12.372 6.188 20.463 14.18 25.373 23.764z" fill="#0f141b"/></g><g transform="matrix(1.0287 0 0 1.0287 67.332 429.37)"><path d="m0 0c-1.628 3.073-3.677 4.555-7.453 4.896l-0.073 2.192c4.457-0.147 7.476-2.297 9.353-5.553z" fill="#0f141b"/></g><g transform="matrix(1.0287 0 0 1.0287 99.127 439.36)"><path d="m0 0c-4.318-1.968-8.476-4.238-14.322-9.134l-1.607 1.608c6.284 5.334 10.96 7.964 17.756 10.741z" fill="#0f141b"/></g><g transform="matrix(1.0287 0 0 1.0287 333.35 467.47)"><path d="m0 0c4.53 22.287 9.28 52.392 8.257 52.611-0.812 0.173-11.837-17.683-21.044-38.581l-0.439 4.822c7.356 16.832 19.66 37.426 22.506 36.682 3.264-0.852-2.387-33.198-6.504-55.315z" fill="#0f141b"/></g><g transform="matrix(1.0287 0 0 1.0287 257.35 290.01)"><path d="m0 0c-9.187 3.119-19.496 3.941-29.959 4.482l-2.68 1.85c13.494-0.438 24.868-1.454 35.22-5.261z" fill="#0f141b"/></g><g transform="matrix(1.0287 0 0 1.0287 310.91 291.12)"><path d="m0 0c-9.792 1.084-17.717 0.529-23.975-0.372l-3.182 1.486c8.804 1.115 17.291 2.174 29.279 0.478z" fill="#0f141b"/></g><g transform="matrix(1.0287 0 0 1.0287 169.41 510.15)"><path d="m0 0c-2.82 3.421-6.03 13.395-5.883 19.094 1.991-6.062 7.21-17.803 11.471-22.432-2.001 0.86-3.348 1.388-5.588 3.338m7.607-5.421c0.212-0.018 0.419 0.106 0.708 0.498 3.566 4.852 6.956 9.915 10.462 16.194l-0.608 2.32c-4.506-7.284-7.169-11.374-10.766-16.224-4.81 5.104-13.047 23.611-12.129 25.228 0.742 1.306 13.347-0.724 21.677-2.916l-0.663 2.432c-7.521 1.806-21.605 3.973-22.948 1.756-3.214-5.323 1.9-35.163 20.362-36.444l-1.6 2.277c-3.563 0.849-7.204 3.1-10.525 7.439 1.816-1.203 4.738-2.448 6.03-2.56" fill="#0f141b"/></g></g></svg>
