<?xml version="1.0" encoding="UTF-8"?>
<!-- Created with Inkscape (http://www.inkscape.org/) -->
<svg version="1.1" viewBox="0 0 95.36 93.397" xmlns="http://www.w3.org/2000/svg">
 <g transform="matrix(-1.7126 .49364 .49364 1.7126 85.679 -24.756)">
  <path d="m33.236 48.623c-0.30092 3.0236-1.083 6.4657-2.1474 9.0202-0.75212 1.8055-1.9022 2.7517-4.0841 2.3273-4.0788-0.79375-7.4242-4.4782-9.773-8.9436-0.89888-1.7082-0.34819-3.6879 1.1359-4.8105 1.4693-1.112 3.9575-2.2786 6.6192-3.2801 1.4002-0.32279 4.1709-0.99483 6.3073-1.5582-0.34784 4.1511 0.39934 5.7771 1.942 7.245" fill="#0f141b"/>
  <path d="m31.203 57.358c-4.9671 2.1212-14.297-7.687-13.004-11.003 0.0554-0.0469 0.10936-0.0945 0.16792-0.13864 1.4693-1.1116 3.9578-2.2786 6.6195-3.2801 1.4002-0.32279 4.1709-0.99483 6.3073-1.5582-0.34784 4.1515 0.39935 5.7771 1.942 7.245-0.28963 2.9132-1.0269 6.2128-2.0327 8.7348" fill="#ab0d4e"/>
  <path d="m18.137 47.655c-0.0938-0.49495-0.0801-0.93698 0.0621-1.3007 0.0554-0.0466 0.10936-0.0942 0.16792-0.13828 1.4693-1.1116 3.9578-2.2786 6.6195-3.2801 1.4002-0.32279 4.1709-0.99484 6.3073-1.5582-0.20708 2.4694-0.0261 4.0446 0.47872 5.2253-3.8523-0.91122-9.0004-0.6163-13.636 1.052" fill="#910141"/>
  <path d="m25.126 48.031c-0.62971 1.082-1.107 1.9953-1.6669 2.9284-1.676-1.7388-2.9259-3.8192-3.3697-5.8307 1.2143-0.60254 2.0948-1.0343 3.4032-1.596z" fill="#fff"/>
  <path d="m20.673 46.887c-0.25541-0.5849-0.45403-1.1744-0.58279-1.7579 1.2143-0.60254 2.0948-1.0347 3.4032-1.5963l0.97931 2.6966c-1.2577 0.127-2.5354 0.34396-3.7998 0.65758" fill="#fff"/>
  <path d="m41.626 38.314c4.6288-0.76941 7.6937-0.58173 9.0992 0.30409 1.8052 1.1374 2.5933 2.4903 2.7774 5.1417 0.21307 3.061-1.6845 8.6416-4.3194 10.513-1.4781 1.0499-3.5454 1.4683-5.7062-0.31115-3.4286-2.8226-5.2793-4.8726-7.7848-8.1739-0.32914-1.7727-1.6782-3.7991-2.6158-4.9629 2.1057-0.6357 5.914-1.729 8.5496-2.5114" fill="#0f141b"/>
  <path d="m43.31 53.824c-3.3196-2.7513-5.1541-4.789-7.6182-8.0356-0.32879-1.7727-1.6782-3.7991-2.6158-4.9629 2.1061-0.63536 5.9143-1.729 8.5499-2.5114 3.4054-0.56585 5.963-0.61313 7.6376-0.24659 4.0273 5.1978-1.0298 16.276-5.9535 15.756" fill="#ab0d4e"/>
  <path d="m41.626 38.314c3.4054-0.56586 5.963-0.61313 7.6376-0.24659 0.23671 0.30585 0.44132 0.63217 0.61701 0.97507-5.1343 0.2339-11.648 2.9933-14.306 6.2519-0.4579-1.6436-1.6468-3.4121-2.4984-4.469 2.1057-0.6357 5.914-1.729 8.5496-2.5114" fill="#910141"/>
  <path d="m44.672 43.336c0.89076 0.26952 2.0486 0.57749 2.9594 0.82761 0.3175-2.1357 0.1517-4.373-0.629-6.3419-1.1515 0.0469-2.4888 0.0931-3.4128 0.17639z" fill="#fff"/>
  <path d="m27.68 34.236c-5.9538-7.5625-15.167-14.554-24.773-18.924-0.21485-0.0977-0.4117-3e-3 -0.48119 0.20814-0.23848 0.71755-0.41275 1.3705-0.60537 2.238-0.066 0.29704 0.0776 0.55139 0.39476 0.75071 0.71402 0.44838 1.3988 0.9084 2.2331 1.4238 0.20179 0.12489 0.24095 0.25118 0.18839 0.49107-0.18027 0.81351-0.29422 1.5582-0.38418 2.2955-0.0215 0.17745 0.0804 0.32209 0.23072 0.39935 1.0954 0.5655 2.4589 1.2354 4.1585 2.038-3.6834 1.5522-4.9862 5.9097-3.9116 9.9243 1.7921 6.6936 7.5914 10.648 14.528 9.199 3.3479-0.69955 7.9834-1.8542 12.036-2.902 0.0296-0.42157 0.0988-0.84737 0.2032-1.1963z" fill="#0f141b"/>
  <path d="m8.6415 25.157c0.10301-1.0019 0.23883-1.6171 0.45403-2.5788 0.0758-0.33901-5e-3 -0.52705-0.23813-0.67098-0.49001-0.30303-1.416-0.8509-2.1258-1.2411-0.27093-0.14923-0.29845-0.37818-0.22683-0.62406 0.25506-0.87701 0.48189-1.4658 0.88688-2.485 7.934 4.3353 15.269 10.304 20.288 16.679l3.8174 5.9457c-0.10442 0.3489-0.17357 0.7747-0.2032 1.1963-4.0531 1.0478-8.6886 2.2027-12.036 2.902-0.98072 0.20496-1.9368 0.29809-2.8638 0.29421l-0.98354-0.0399c-0.65934-0.0543-1.3-0.16228-1.9205-0.31785-6.3479-6.0357-8.5228-12.481-4.8482-19.06" fill="#ab0d4e"/>
  <path d="m19.258 44.28c-0.98037 0.20497-1.9368 0.2981-2.8638 0.29422l-0.98319-0.0399c-0.65934-0.0543-1.3003-0.16228-1.9209-0.31786-2.7866-2.6497-4.7688-5.3784-5.805-8.1622 5.8935-1.0453 13.869-0.2988 22.406 1.9364l1.4069 2.1911c-0.10442 0.3489-0.17357 0.7747-0.2032 1.1963-4.0531 1.0478-8.6886 2.2028-12.036 2.902" fill="#910141"/>
  <path d="m13.345 21.192c5.588 3.7871 10.602 8.3033 14.335 13.045l3.8174 5.9454c-0.10442 0.34889-0.17357 0.7747-0.2032 1.1966-4.0531 1.0474-8.6886 2.2024-12.036 2.9016-0.65299 0.13652-1.2965 0.22507-1.9269 0.26776-8.926-7.7332-8.606-15.881-3.9857-23.356" fill="#ee86ad"/>
  <path d="m19.258 44.28c-0.65299 0.13653-1.2965 0.22508-1.9269 0.26776-3.3708-2.9203-5.4218-5.8995-6.422-8.8791 5.4346-0.36054 12.117 0.47237 19.182 2.322l1.4069 2.1911c-0.10442 0.3489-0.17357 0.7747-0.2032 1.1963-4.0531 1.0478-8.6886 2.2028-12.036 2.902" fill="#ce7498"/>
  <path d="m33.006 33.322c2.1332-8.8501 6.204-24.712 12.265-31.506 0.21308-0.23883 0.46638-0.35137 0.71226-0.21096 0.75248 0.43039 1.4873 1.0986 1.996 1.7462 0.26317 0.33479 0.22966 0.59478 0.0332 0.96449-0.52388 0.98672-1.1317 2.0694-1.8034 3.1365 0.91122 0.84455 1.7974 1.7547 2.2973 2.5467 0.26564 0.42157 0.18062 0.63853-0.15734 1.0664-0.95603 1.21-1.3014 1.6704-2.019 2.6723 2.8568-0.85584 5.8699 0.0487 7.8451 3.3419 1.7981 2.9979 2.9877 8.0938 1.578 11.546-1.4771 3.6192-4.3074 6.7942-8.7718 8.141-5.5414 1.6715-9.8284 2.9065-13.954 4.0319-0.25083-0.36195-0.45861-0.61454-0.71861-0.91334z" fill="#0f141b"/>
  <path d="m46.981 36.767c-5.5414 1.6715-9.8284 2.9065-13.954 4.0322-0.25083-0.36231-0.45826-0.61454-0.71826-0.9137l0.69744-6.5631c1.7477-7.2492 4.7953-19.203 9.1719-27.024 0.82797 0.56867 2.0853 1.5138 2.6469 2.262 0.14323 0.1905 0.19227 0.34572 0.0727 0.54433-0.44415 0.73625-0.81704 1.3578-1.2548 2.177 0.99659 0.7754 2.0786 1.6708 2.6868 2.4567 7.3272 3.7437 8.4917 12.747 4.1176 21.436-1.0238 0.66075-2.1766 1.2033-3.466 1.5924" fill="#ab0d4e"/>
  <path d="m50.447 35.174c-1.0238 0.66076-2.1766 1.2033-3.466 1.5924-5.5414 1.6715-9.8287 2.9065-13.954 4.0319-0.25083-0.36195-0.45861-0.61454-0.71826-0.91334l0.29245-2.7541c6.5423-7.1893 13.161-11.438 20.332-13.334 0.32243 3.52-0.52423 7.48-2.4857 11.377" fill="#910141"/>
  <path d="m46.694 36.853c-5.4014 1.6266-9.6136 2.8399-13.667 3.9455-0.25083-0.3623-0.45861-0.61489-0.71826-0.91369l0.69709-6.5631c1.3642-5.66 3.5214-14.187 6.4841-21.377l0.0162-0.0243c12.407 7.7794 11.714 16.753 7.1875 24.933" fill="#ee86ad"/>
  <path d="m46.694 36.853c-5.4014 1.6266-9.6136 2.8399-13.667 3.9455-0.25083-0.3623-0.45861-0.61489-0.71826-0.91369l0.29246-2.7541c5.5026-6.047 11.061-10.012 16.954-12.247 0.56939 4.027-0.71402 8.0878-2.8621 11.969" fill="#ce7498"/>
  <path d="m27.361 33.82c-2.4243 2.727-2.6606 5.9111-1.4566 8.9189-1.0065 0.2487-2.7771 0.70661-4.0919 0.98354l0.16545-1.4743-0.8883-1.6305-0.98566-1.5455 0.82162-1.3261 0.87277-1.555-0.34678-1.898-0.18908-1.8852 1.5568-1.0675 0.98425-0.2734 0.13476-1.0933c1.3621 1.4083 2.1897 2.365 3.4226 3.8463" fill="#fff"/>
  <path d="m37.923 39.431c0.0293-3.4364-1.9262-6.4273-4.6581-7.2245 0.31257-1.1568 0.80963-3.1186 1.2806-4.845l0.68086 0.87312 1.0022-0.17886 1.5924-8e-3 0.69568 1.6669 0.74471 1.7276 1.1762 0.76482 1.3074 0.76976-0.27835 1.9156-0.45578 1.9819 0.65122 1.4725c-1.2093 0.33408-2.3008 0.67451-3.7391 1.0841" fill="#fff"/>
  <path d="m31.497 40.182c-0.46072 2.3132-0.35595 4.2411 0.11007 5.9302 0.39335 1.4288 1.6104 2.686 3.1231 3.6576 0.88477-1.0149 1.245-2.5199 0.92393-4.2153-0.30445-1.6087-2.0447-4.2411-3.3458-5.6691-0.2353 0.0995-0.48471 0.19861-0.81139 0.29668" fill="#72706d"/>
  <path d="m32.86 40.531c0.61524 0.76129 1.2647 1.6976 1.7882 2.619-0.54398 0.94932-2.2888 1.7551-3.3877 1.0943-0.1009-1.0075-0.0773-2.0987 0.10301-3.2964 0.46849 0.42827 1.0932 0.21802 1.4965-0.41698" fill="#c9c8c3"/>
  <path d="m39.736 27.577c-0.41134 0.70061-0.81739 1.4316-1.2192 2.1375-0.67593-0.64629-1.4429-1.2076-2.2878-1.6595 0.44203-0.80292 0.87066-1.5677 1.2432-2.2257 0.83608 0.53304 1.5917 1.1172 2.2638 1.7477" fill="#ab0d4e"/>
  <g fill="#00afcc">
   <path d="m38.742 33.963c-0.42368-0.73307-0.95461-1.4146-1.5688-2.0384 0.44238-0.64982 0.88971-1.4136 1.343-2.2102 0.76518 0.73201 1.4125 1.573 1.9212 2.4924-0.57079 0.58103-1.1585 1.1874-1.6954 1.7561"/>
   <path d="m34.509 27.325c0.60254 0.19473 1.1769 0.44097 1.7198 0.73096-0.38629 0.70167-0.78211 1.4316-1.1603 2.1495-0.36688-0.24271-0.7373-0.45579-1.1289-0.66816 0.19473-0.73448 0.41945-1.6634 0.56938-2.2123"/>
   <path d="m23.835 35.592c-0.29175 0.90628-0.47696 1.8588-0.55598 2.8095-0.62689-0.1711-1.4954-0.41487-2.3534-0.65617 0.0353-1.1748 0.20073-2.3424 0.52599-3.4533 0.78669 0.43215 1.6143 0.88477 2.3834 1.3"/>
  </g>
  <path d="m20.495 29.572c0.5976 0.44133 1.4482 1.0918 2.3244 1.7674-0.61136 0.90699-1.0608 1.9039-1.3677 2.9528-0.87348-0.48049-1.6951-0.93557-2.3244-1.2848 0.30092-1.3021 0.75847-2.504 1.3677-3.4354" fill="#ab0d4e"/>
  <path d="m25.844 32.022c-0.29422 0.31997-0.56304 0.66675-0.80716 1.034-0.65687-0.50976-1.4471-1.1229-2.2172-1.7166 0.32632-0.48331 0.69674-0.94157 1.119-1.3667 0.49953 0.53692 1.4129 1.4951 1.9054 2.0493" fill="#00afcc"/>
  <path d="m43.797 46.497c0.96803 0.41558 1.7381 0.73555 2.8321 1.1804-1.0389 2.3717-2.7153 4.251-4.7717 4.9107-0.84243-0.77399-1.4993-1.3762-2.37-2.3061z" fill="#fff"/>
  <path d="m35.692 45.788c-0.32914-1.7724-1.6782-3.7991-2.6158-4.9625 2.1061-0.63571 5.9143-1.7293 8.5496-2.5118 0.99237-0.16475 1.9124-0.2854 2.7601-0.36477 0.53763 1.5201 0.60254 3.4572 0.28645 5.3866-0.17744 1.0813-0.47448 2.1597-0.87489 3.1612-0.81668 2.0415-2.0644 3.7627-3.6078 4.5307-1.609-1.5868-2.9242-3.1669-4.4976-5.2395" fill="#ee86ad"/>
  <path d="m27.641 50.378c-0.41875 0.88442-0.86149 1.96-1.2764 2.9584 1.785 1.1268 3.7493 1.8168 5.6275 1.785 0.32173-1.0954 0.71367-2.685 0.91792-3.7624z" fill="#fff"/>
  <path d="m22.774 43.829c0.71085-0.30762 1.4545-0.60677 2.213-0.89217 1.4002-0.32279 4.1712-0.99519 6.3073-1.5582-0.34784 4.1511 0.39934 5.7771 1.942 7.245-0.11924 1.2005-0.31574 2.467-0.57468 3.7172-1.6972-0.0624-3.4551-0.82268-5.02-1.9629-0.92252-0.67204-1.7787-1.476-2.515-2.3463-1.1211-1.3243-1.966-2.8018-2.3527-4.2026" fill="#ee86ad"/>
  <path d="m44.033 40.185-0.44345-2.1876c0.92393-0.0833 2.2613-0.12947 3.4131-0.17639 0.19191 0.48366 0.34607 0.9839 0.46567 1.4944-1.1352 0.19932-2.2962 0.49495-3.4354 0.8696" fill="#fff"/>
  <path d="m31.294 41.378c-0.20708 2.4694-0.0261 4.0446 0.47872 5.2254-2.2994-0.54398-5.061-0.65793-7.8998-0.30692-0.49636-0.8188-0.87524-1.6563-1.0993-2.468 0.7105-0.30762 1.4545-0.60643 2.213-0.89218 1.4002-0.32279 4.1709-0.99483 6.3073-1.5582" fill="#ce7498"/>
  <path d="m21.813 43.722 0.16545-1.4746-0.88865-1.6305-0.98566-1.5455 0.82162-1.3257 0.83573-1.4884c1.24 0.18697 2.5065 0.4131 3.7924 0.67521-0.59796 1.8976-0.41698 3.8873 0.35102 5.806-1.0068 0.24871-2.7771 0.70662-4.0919 0.98355" fill="#fff"/>
  <path d="m41.011 36.874 0.65123 1.4725c-1.2093 0.33408-2.3008 0.67451-3.7391 1.0841 0.0187-2.2109-0.78458-4.2362-2.0867-5.6123 1.0724-1.0167 2.1491-1.9562 3.2322-2.824l0.19297 0.44803 1.1762 0.76482 1.3074 0.76941-0.27834 1.9156z" fill="#fff"/>
  <path d="m35.406 44.795c0.14569 1.7071-0.64594 3.1701-0.91158 3.2586-0.30833 0.10336-1.6697-0.21132-2.8586-1.9748 0.46778 1.6612 1.869 3.0413 3.0653 3.6826 0.73342-0.61207 1.5741-2.8247 0.70485-4.9664" fill="#5a5754"/>
  <path d="m37.516 32.29c0.63535-0.5535 1.2721-1.0788 1.9117-1.5808 0.37924 0.4699 0.71826 0.97084 1.01 1.4982-0.57045 0.58068-1.1582 1.1871-1.6951 1.7558-0.3429-0.59267-0.75636-1.1515-1.2266-1.6732" fill="#0099b3"/>
  <path d="m23.279 38.402c-0.62654-0.17075-1.4954-0.41487-2.3534-0.65617 0.0162-0.5334 0.0607-1.0647 0.13299-1.5903 0.82727 0.11606 1.6658 0.24871 2.5153 0.39899-0.14182 0.60784-0.24342 1.2273-0.29492 1.8475" fill="#0099b3"/>
  <path d="m43.307 33.712c-0.59196 0.36547-1.2065 0.7627-1.8412 1.1804-0.2166-0.94333-0.56515-1.8464-1.029-2.6853 0.59514-0.60466 1.1723-1.1815 1.6563-1.657 0.55951 0.98884 0.96661 2.0465 1.2139 3.162" fill="#910141"/>
  <path d="m39.81 38.885c0.10336-0.97543 0.0296-1.8895-0.18838-2.7658 0.63041-0.42086 1.2467-0.83255 1.845-1.2266 0.25541 1.1095 0.3302 2.2744 0.19544 3.4544-0.56127 0.16122-1.2569 0.36547-1.8521 0.53798" fill="#0099b3"/>
  <path d="m18.704 37.117c0.5782 0.16334 1.3949 0.39476 2.2221 0.6283-0.0282 0.96132 0.0303 1.9272 0.16404 2.8716-0.62406-0.06-1.2672-0.12806-1.8958-0.19861-0.29881-0.94933-0.46391-2.1071-0.49036-3.3013" fill="#910141"/>
  <path d="m23.852 43.238c-0.57997 0.13723-1.4587 0.34466-2.0391 0.48401-0.32279-0.97931-0.57044-2.0278-0.72319-3.1052 0.79234 0.0762 1.5543 0.13935 2.2126 0.17286 0.0921 0.86537 0.27623 1.6948 0.54963 2.4483" fill="#0099b3"/>
  <path d="m31.363 41c0.58703 0.32702 1.1081 0.1404 1.5335-0.43216 0.26141 0.32209 0.51682 0.66005 0.78246 1.0209-0.37465 0.65758-1.7254 1.0453-2.5026 0.6597 0.049-0.38594 0.11395-0.82974 0.18662-1.2485" fill="#a6a6a1"/>
  <path d="m31.363 41c0.0497-0.28434 0.10266-0.55704 0.15769-0.78987 0.33267-0.0998 0.5327-0.18204 0.80681-0.30269 0.1972 0.21061 0.38417 0.43216 0.56903 0.6604-0.42545 0.57256-0.9465 0.75918-1.5335 0.43216" fill="#5a5754"/>
  <path d="m41.626 38.314c0.99236-0.1651 1.9124-0.28575 2.7598-0.36477 0.21484 0.60677 0.35313 1.2816 0.42263 1.9946-3.7663 1.1112-7.4087 3.1133-9.2336 5.3506-0.4579-1.6436-1.6468-3.4121-2.4984-4.469 2.1057-0.6357 5.914-1.729 8.5496-2.5114" fill="#ce7498"/>
  <g fill="#0f141b">
   <path d="m31.349 40.228c-0.42122 2.1534-0.42016 4.1208 0.0836 5.9475 0.46567 1.6891 1.9339 2.9415 3.199 3.7066 0.11607 0.0702 0.13124 0.0586 0.21343-0.0335 0.95956-1.071 1.3074-2.6441 0.9899-4.3215-0.31539-1.6665-2.1424-4.3247-3.3786-5.6956l-0.28752 0.12312c1.2206 1.3384 3.0018 3.9949 3.314 5.6441 0.29915 1.5818-1e-3 3.0187-0.78458 3.9896-1.1624-0.78846-2.4613-1.9406-2.9009-3.5341-0.50236-1.8221-0.59973-3.7426-0.16546-5.9023z"/>
   <path d="m31.342 41.084c0.47025 0.40393 1.1938 0.23283 1.6111-0.42792l-0.18027-0.22437c-0.38876 0.62795-1.0146 0.74719-1.3765 0.37642z"/>
   <path d="m31.282 44.404c1.1067 0.647 2.8603-0.10195 3.4473-1.1035l-0.14851-0.29422c-0.50977 0.92075-2.2694 1.7166-3.3401 1.0781z"/>
   <path d="m33.973 40.729c3.7786-1.0756 7.3656-2.0158 13.069-3.7363 4.771-1.4393 7.5625-4.6994 9.0092-8.2434 1.4185-3.4752 0.18662-8.7574-1.6404-11.804-1.7879-2.981-4.6542-4.2097-7.5304-3.5765 0.41452-0.55704 0.83891-1.1342 1.6771-2.1562 0.45967-0.55986 0.514-0.76553 0.14217-1.3547-0.42333-0.67133-1.1328-1.4227-2.2246-2.4402 0.58032-0.92675 1.1691-1.8662 1.7745-3.0057 0.25824-0.48613 0.22719-0.85266-0.0561-1.2136-0.54786-0.69674-1.385-1.4108-2.1057-1.8224-0.29563-0.16969-0.6417-0.10372-0.99025 0.27905-6.3077 6.9233-10.234 22.75-12.278 31.538l0.38911 0.23142c2.1939-8.6625 6.0762-24.418 12.211-31.414 0.20003-0.22789 0.34079-0.25365 0.54046-0.13935 0.69956 0.3997 1.2982 0.91793 1.8306 1.5956 0.18204 0.23142 0.19368 0.38206 7e-3 0.75071-0.56692 1.119-1.1028 2.0556-1.7456 3.0854-0.0854 0.13688-0.0868 0.22507 0.0632 0.36336 1.1127 1.0319 1.7611 1.7688 2.183 2.4373 0.21908 0.34678 0.16193 0.43603-0.16263 0.83926-0.88653 1.1014-1.2605 1.6436-1.9325 2.6367l0.30022 0.30974c3.2223-0.63006 5.6928 0.4131 7.4426 3.3313 1.8027 3.0053 2.9355 7.8835 1.5409 11.298-1.3952 3.4188-4.0534 6.6474-8.5693 8.0098-5.751 1.735-9.3299 2.8141-13.24 3.8781z"/>
   <path d="m50.697 35.041c4.4683-8.727 2.9803-17.915-4.252-21.444-0.62689-0.80327-1.6351-1.6595-2.5396-2.3647 0.40993-0.81244 0.71579-1.2972 1.1398-1.9724 0.15769-0.25188 0.16157-0.56162-0.0459-0.8382-0.62971-0.8389-2.1018-1.9011-2.7143-2.3206l-0.21307 0.38241c0.61312 0.42122 1.9812 1.3631 2.588 2.1713 0.10936 0.1457 0.10901 0.26952 0.0173 0.42192-0.37077 0.61454-0.6731 1.1628-1.1539 2.0525-0.0674 0.12524-0.0501 0.23213 0.0363 0.2981 1.0456 0.79798 2.0196 1.621 2.6465 2.4303 9e-3 0.0116 0.0201 0.0212 0.0332 0.0279 7.0859 3.7994 8.4589 12.47 3.9564 21.446z"/>
   <path d="m34.596 34.779c4.1084-8.3421 8.1432-15.594 11.907-20.889l-0.30022-0.30974c-3.7754 5.2465-7.7925 12.38-11.785 20.931z"/>
   <path d="m52.55 21.49c-5.7612 3.7878-13.664 11.392-19.562 18.857l0.38241-0.0279c5.914-7.191 13.673-14.598 19.275-18.293z"/>
   <path d="m27.821 34.064c-6.0576-7.7604-14.616-14.416-24.81-18.979-0.30092-0.13476-0.67734-0.043-0.81668 0.37747-0.23284 0.70168-0.43498 1.4065-0.63395 2.3019-0.0811 0.36512 0.0346 0.64981 0.49707 0.94156 0.78316 0.4946 1.3578 0.85725 2.2542 1.373 0.14287 0.0829 0.15734 0.17322 0.12135 0.34572-0.13546 0.65053-0.29915 1.4041-0.40428 2.2708-0.0342 0.28045 0.0956 0.51999 0.35419 0.65369 1.0901 0.56304 2.2172 1.0661 3.7924 1.8115-3.8216 1.7223-4.6778 6.313-3.6946 9.9854 1.7879 6.6788 7.4616 10.94 14.834 9.3839 3.3394-0.70485 7.185-1.7113 10.729-2.6444l0.0198-0.39652c-3.6093 0.93203-7.4606 1.8655-10.868 2.5774-7.0732 1.4774-12.598-3.0755-14.202-9.0685-0.9779-3.6534 0.15275-8.0296 3.4445-9.4513l0.24589-0.61842c-1.6627-0.78458-2.8353-1.3698-3.9688-1.9551-0.20391-0.10548-0.2212-0.17251-0.20144-0.37747 0.0684-0.73695 0.18838-1.4351 0.34784-2.1562 0.0681-0.30797-0.0279-0.52599-0.29387-0.68933-0.83008-0.51047-1.4524-0.92216-2.2045-1.4203-0.28328-0.18768-0.33796-0.30515-0.28963-0.55351 0.16227-0.83255 0.30268-1.3504 0.5334-2.045 0.0624-0.18768 0.14393-0.25118 0.36195-0.15099 9.5666 4.3967 18.617 11.369 24.565 18.808z" fill="#0f141b"/>
   <path d="m13.807 44.293c-6.7553-6.4625-8.4145-12.817-4.9953-19.061 6e-3 -0.012 0.0106-0.0254 0.012-0.0388 0.10337-1.0114 0.24554-1.6588 0.45509-2.5954 0.09-0.3997-0.0504-0.67451-0.3302-0.84737-0.51506-0.31821-1.3959-0.86819-2.0895-1.2499-0.19473-0.10725-0.22366-0.18556-0.15275-0.42969 0.25153-0.86571 0.48401-1.4118 0.88159-2.4116l-0.37994-0.2032c-0.40781 1.0259-0.64523 1.6464-0.90205 2.5305-0.10936 0.37606-0.0166 0.66005 0.31538 0.84243 0.69074 0.37994 1.6245 0.9077 2.1371 1.2245 0.17851 0.11042 0.23036 0.23107 0.16827 0.508-0.2099 0.93804-0.34466 1.5385-0.44838 2.5492-3.5782 6.2999-1.9417 12.751 4.7075 19.028z"/>
   <path d="m8.5241 25.318c5.0662 2.2895 13.981 7.5466 18.032 11.029l0.0815-0.31432c-3.7363-3.5112-12.799-8.8254-17.954-11.104z"/>
   <path d="m31.416 40.616c-7.5346-2.3068-17.274-4.9819-24.388-6.9536l0.11394 0.51929c6.8824 1.8207 16.572 4.5755 24.21 6.7074z"/>
   <path d="m35.748 46.148c2.2222 2.9633 4.0054 5.0433 7.5773 7.9823 2.1033 1.73 4.2598 1.549 6.0159 0.3242 2.6307-1.8341 4.6962-7.3985 4.4648-10.722-0.16228-2.3379-0.82762-4.0876-2.9397-5.3608-1.2912-0.77823-3.9709-1.0506-7.8172-0.45826l-2.249 0.72108c4.5978-0.80398 8.1393-0.80892 9.7698 0.21237 1.8715 1.1719 2.5252 2.6088 2.6557 4.9516 0.18168 3.259-1.7487 8.5527-4.1797 10.278-1.5092 1.071-3.399 1.3469-5.4151-0.31292-3.5468-2.9203-5.4102-4.9378-8.007-8.3538z"/>
   <path d="m43.501 53.983c5.1026 0.34008 9.8919-10.739 6.0089-15.86l-0.47625-0.10477c4.0428 5.2324-1.0615 16.227-5.9143 15.635z"/>
   <path d="m34.087 41.456c3.6826 1.2284 11.452 4.119 15.845 5.854l0.12911-0.36653c-4.3088-1.7145-12.179-4.6486-15.937-5.7887z"/>
   <path d="m23.915 43.173c-2.5061 0.99519-4.4954 1.9413-5.7034 2.855-1.62 1.2256-2.1713 3.3404-1.227 5.1361 2.6758 5.0864 6.2276 8.3658 9.9826 9.0477 2.1565 0.39123 3.4904-0.39052 4.3607-2.48 1.0019-2.4056 1.7381-5.5386 2.0112-8.0412l-0.23495-0.93557c-0.43815 3.3782-1.1705 6.2798-2.2313 8.8286-0.774 1.8563-2.0077 2.5026-3.8086 2.1481-3.5451-0.69814-6.9525-3.9067-9.5698-8.848-0.75318-1.4213-0.48931-3.2794 1.047-4.4418 1.4266-1.0792 4.2478-2.4702 7.4232-3.6241z"/>
   <path d="m31.286 57.168c-4.85 2.1615-14.486-7.935-12.846-11.013l-0.45332 0.37676c-1.1183 3.4414 8.1488 13.065 13.129 11.045z"/>
   <path d="m23.443 54.875c2.3686-4.1646 5.1657-9.0502 7.8186-12.23l-0.42262 0.0423c-2.5612 2.9884-5.3481 7.7893-7.6814 11.891z"/>
  </g>
  <path d="m35.277 36.259c-0.56833-2.311-3.0918-4.1158-5.5898-3.344-2.3273 0.71861-3.8396 3.4728-3.0275 5.7111 0.41487 1.1434 2.8861 2.1149 4.7512 1.5889 2.3142-0.65193 4.2125-2.5467 3.8661-3.956" fill="#72706d"/>
  <path d="m34.794 35.078c-0.9271-1.0075-1.9907-1.4584-2.6501-1.1236-0.69638 0.35384-0.74895 2.1403-0.34607 4.5642 0.94121-0.3115 2.5439-0.97896 3.5172-1.8112 0.0328-0.46179-0.26176-1.2287-0.52105-1.6295" fill="#0f141b"/>
  <path d="m29.928 38.987c-0.39722-1.778-1.3289-3.7998-2.2416-3.5705-0.45684 0.11465-0.95391 1.0368-1.2358 2.2028 0.0822 0.75847 0.22472 1.2418 0.56939 1.5466 0.78105 0.0367 1.8715 0.0342 2.9079-0.17885" fill="#0f141b"/>
  <g fill="#fff">
   <path d="m34.792 36.053c-0.23918 0.14146-0.52176 0.3048-0.78211 0.45155-0.16651-0.33267-0.28998-0.63923-0.40852-0.95955 0.24836-0.11113 0.51224-0.23072 0.7486-0.3302 0.1404 0.23354 0.32208 0.57114 0.44203 0.8382"/>
   <path d="m33.342 34.577c0.0984 0.32702 0.2152 0.68474 0.31892 0.96555-0.2854 0.1277-0.61278 0.25082-0.87948 0.38488-0.13229-0.27834-0.22895-0.55845-0.33937-0.91475 0.29421-0.17181 0.59725-0.32456 0.89993-0.43568"/>
   <path d="m32.775 35.892c0.109 0.29599 0.24765 0.64982 0.37253 0.95286-0.20038 0.13829-0.49142 0.31714-0.73448 0.46531-0.13194-0.33761-0.26494-0.59937-0.37571-0.98284 0.20179-0.12453 0.48648-0.30868 0.73766-0.43533"/>
   <path d="m29.259 38.148c-0.30162 0.0508-0.53128 0.085-0.83467 0.12947-0.0561-0.31997-0.1016-0.71649-0.15558-1.0971 0.25612-0.0416 0.53235-0.0829 0.80645-0.12418 0.0787 0.39123 0.12312 0.69039 0.1838 1.0918"/>
   <path d="m28.149 36.215c0.0501 0.34749 0.0744 0.73166 0.11501 1.0213-0.28858 0.0469-0.56833 0.0945-0.84279 0.14394-0.0462-0.3168-0.10619-0.68757-0.13723-1.0135 0.31926-0.0614 0.60078-0.11642 0.86501-0.1517"/>
   <path d="m26.627 37.514c0.24835-0.0473 0.56938-0.10477 0.82268-0.14993 0.0504 0.34466 0.12135 0.72919 0.18309 1.0806-0.24377 0.037-0.54716 0.0653-0.79093 0.1023-0.0815-0.31538-0.14287-0.66816-0.21484-1.0329"/>
  </g>
  <path d="m33.011 40.352c0.53834-0.1651 0.97014 0.1658 1.0887 0.66675 0.1083 0.45861-0.1785 0.96555-0.64664 1.076-0.42369 0.10019-0.85619-0.17427-0.99236-0.67416-0.1143-0.41945 0.11959-0.93663 0.55033-1.0686" fill="#0f141b"/>
  <path d="m30.629 40.944c0.49882-0.16827 0.97261 0.10584 1.0996 0.67981 0.11147 0.50482-0.11889 0.92957-0.59267 1.0481-0.34819 0.0875-0.94686-0.0974-1.082-0.66816-0.10936-0.46532 0.12665-0.90805 0.57503-1.0598" fill="#0f141b"/>
  <path d="m33.139 47.083c0.18239-1.3755 0.84455-2.6899 1.0308-2.6889 0.25012 2e-3 0.61066 1.7187 0.43709 2.9104-0.1965 1.3483-0.77541 2.8402-1.0125 2.7979-0.23742-0.0427-0.67275-1.3832-0.45544-3.0194" fill="#dacda4"/>
  <path d="m32.112 44.789c0.16615 0.0759 0.12876 1.349-0.44027 2.625-0.61877 1.3878-1.5279 2.1551-1.7127 2.0775-0.18485-0.0776-0.10618-1.4439 0.40922-2.6935 0.53023-1.2862 1.591-2.0793 1.7438-2.0091" fill="#dacda4"/>
  <path d="m27.004 39.153c3.12 0.23248 6.4766-0.99272 8.3097-2.4462-0.0861 1.3377-1.8267 2.9228-3.9028 3.5077-1.5681 0.44203-3.5641-0.17427-4.4069-1.0615" fill="#c9c8c3"/>
  <path d="m31.11 18.444c0.41063-0.0141 1.1148 1.2926 0.89888 2.2849-0.22049 1.0111-0.81033 1.8602-1.0647 1.8352-0.35208-0.0356-0.91546-1.2065-0.83291-2.1579 0.0984-1.1328 0.64876-1.9505 0.99871-1.9622" fill="#dacda4"/>
  <path d="m24.45 19.614c0.26776-0.0455 1.1698 0.8883 1.191 2.2592 0.0148 0.9779-0.30833 1.9759-0.48507 2.0175-0.32244 0.0762-1.2294-0.91052-1.409-2.0214-0.15452-0.9532 0.43462-2.2102 0.70308-2.2553" fill="#dacda4"/>
  <g fill="#0f141b">
   <path d="m30.107 20.509c1e-3 -0.0342 1e-3 -0.0688 5e-3 -0.10265 0.0984-1.1328 0.64876-1.9502 0.99871-1.9622 0.41064-0.0141 1.1148 1.2929 0.89888 2.2849-3e-3 0.0123-6e-3 0.024-9e-3 0.0363-0.32138-0.73554-1.3677-1.1896-1.893-0.25647"/>
   <path d="m23.769 21.978c-7e-3 -0.0363-0.0162-0.0723-0.0219-0.10901-0.15452-0.95285 0.43462-2.2098 0.70308-2.255 0.26741-0.0455 1.1698 0.88795 1.191 2.2592 0 7e-3 -3.5e-4 0.0141-3.5e-4 0.0212-0.49812-0.81174-1.2644-0.84349-1.8718 0.0836"/>
   <path d="m34.607 47.304c-0.1965 1.3483-0.77541 2.8402-1.0125 2.7979-0.23742-0.0423-0.67275-1.3832-0.45544-3.0194 5e-3 -0.0377 0.0113-0.0755 0.0173-0.11289 0.54257-0.63782 1.1963-0.37782 1.4587 0.2593-2e-3 0.025-5e-3 0.0508-8e-3 0.0751"/>
   <path d="m29.959 49.491c-0.18309-0.0769-0.10759-1.4122 0.39194-2.6504 0.67663-0.45438 1.233-0.0265 1.2926 0.63182-0.61807 1.3497-1.5025 2.0952-1.6845 2.0186"/>
  </g>
  <g fill="#bfb591">
   <path d="m31.404 20.145c-5e-3 0.61736-0.10865 1.6563-0.45614 2.3844 0.2854-0.0564 0.73978-0.55774 1.0485-1.766-0.13829-0.25118-0.27058-0.43815-0.59232-0.61842"/>
   <path d="m24.951 21.307c0.19685 0.81033 0.26424 1.8768 0.14994 2.5714 0.23988-0.16192 0.57044-0.92286 0.54363-2.0151-0.19791-0.23742-0.27976-0.42792-0.69357-0.55633"/>
   <path d="m34.16 44.389c0.054 0.77682 0.0215 1.6344-0.0624 2.2768 0.1905 0.0988 0.42615 0.29351 0.51611 0.54575 0.12136-0.90135-0.091-2.6352-0.45367-2.8226"/>
   <path d="m32.111 44.775c-0.21626 0.62795-0.54258 1.4333-0.88794 1.9629 0.22401 0.14464 0.37147 0.35242 0.42015 0.75071 0.35313-0.8195 0.70944-2.3001 0.46779-2.7136"/>
  </g>
  <path d="m30.751 39.772c-1.307 0.1651-2.5192-0.0145-3.7648-0.65193 0.97296 0.98707 3.0356 1.524 4.5346 1.089 1.7258-0.50094 3.4907-1.8778 3.829-3.6611-0.7867 1.5279-2.0112 2.5174-3.4237 2.9725-0.14288 0.45191-0.56445 0.69709-1.1751 0.25153" fill="#a6a6a1"/>
  <g fill="#0f141b">
   <path d="m31.86 20.693c0.19332-0.88759-0.45543-2.1107-0.7493-2.1022-0.18556 5e-3 -0.73378 0.64099-0.83714 1.8295-0.0811 0.93381 0.48331 2.0077 0.69286 2.0052 0.16263-2e-3 0.6865-0.78352 0.89358-1.7325m-0.91863 2.0112c-0.42827-0.0427-1.0746-1.2813-0.98213-2.3008 0.10548-1.1631 0.72425-2.0817 1.1444-2.0958 0.55774-0.0187 1.2908 1.4573 1.0724 2.4585-0.26 1.1927-0.92181 1.9688-1.2347 1.9382"/>
   <path d="m30.094 20.824c0.50342-1.186 1.5882-0.58491 1.8553 0.18662l0.0893-0.44133c-0.45368-0.88618-1.5127-0.97155-1.9226-0.27834z"/>
   <path d="m23.895 21.847c0.1785 1.1042 1.0245 1.9597 1.2224 1.9089 0.11889-0.0303 0.38982-0.95391 0.36689-1.8842-0.0321-1.2841-0.87912-2.1579-1.0149-2.1266-0.12594 0.0293-0.73025 1.1381-0.57432 2.1018m1.9138 0.0162c0.0145 0.92534-0.25223 2.0704-0.623 2.1579-0.43462 0.10266-1.4041-0.97931-1.5907-2.1315-0.1531-0.94686 0.44345-2.3375 0.82727-2.4151 0.44379-0.0896 1.367 1.1215 1.3864 2.3887"/>
   <path d="m23.804 22.151c0.60572-0.98602 1.3628-0.8763 1.832-0.0367l0.01-0.43251c-0.52-0.76341-1.3363-0.75988-1.9085 0.13229z"/>
   <path d="m30.831 22.528c-0.0847 2.3837-0.22083 7.2122-0.11923 11.462 8e-3 0.33796 0.27269 0.32738 0.27093-3e-3 -0.0226-4.2383 0.0624-9.0974 0.12171-11.469z"/>
   <path d="m25.053 23.905c0.89182 4.2259 2.1851 7.8422 3.8781 10.781 0.13194 0.22931 0.35454 0.11325 0.22366-0.12805-1.6037-2.9598-2.9143-6.5878-3.8629-10.793z"/>
   <path d="m29.729 33.075c-2.3005 0.71049-3.6354 3.447-2.9016 5.4688 0.39405 1.0855 2.8039 2.0316 4.548 1.5416 2.1657-0.61066 4.0513-2.4687 3.7278-3.7828-0.49953-2.0295-2.8205-4.0174-5.3742-3.2276m-3.2339 5.6155c-0.83149-2.2924 0.6851-5.1971 3.1429-5.9563 2.6614-0.82585 5.274 1.1945 5.8356 3.478 0.35419 1.44-1.5395 3.4237-4.0266 4.1247-1.8524 0.52105-4.4944-0.38665-4.9519-1.6464"/>
   <path d="m27.155 39.297c2.692 0.18168 5.926-0.70308 8.1287-2.4017l0.03-0.35313c-1.7928 1.457-5.341 2.7474-8.4243 2.4712z"/>
   <path d="m32.736 36.003c-0.19861 0.10266-0.43074 0.26071-0.57785 0.3489 0.0882 0.29669 0.17992 0.51858 0.28081 0.77788 0.21343-0.12983 0.40252-0.21979 0.60078-0.33797-0.10583-0.25858-0.21872-0.56373-0.30374-0.78881m-0.71084 0.17569c0.16086-0.0991 0.35348-0.2219 0.57926-0.34326-0.0896-0.23742-0.17745-0.46531-0.26388-0.74189-0.0381-0.12171-9e-3 -0.17074 0.0935-0.22966 0.30657-0.17885 0.4632-0.24694 0.76095-0.3563 0.11712-0.0441 0.18168-0.0236 0.23107 0.097 0.12488 0.30374 0.21942 0.5334 0.30127 0.76482 0.17886-0.0773 0.35383-0.15063 0.52987-0.22471 0.10936-0.0466 0.14711-0.0342 0.20884 0.0684 0.13089 0.21873 0.29352 0.4886 0.42087 0.77082 0.0476 0.10795 0.0321 0.15276-0.0614 0.20779-0.23989 0.14182-0.43463 0.25612-0.69604 0.40287-0.11112 0.0617-0.17533 0.0522-0.23671-0.0575-0.14005-0.25118-0.24412-0.52529-0.34995-0.8121-0.21273 0.0963-0.39864 0.1831-0.57574 0.27058 0.0885 0.23425 0.18768 0.48331 0.29704 0.75001 0.0483 0.11748 0.0441 0.15663-0.0508 0.21696-0.29245 0.18415-0.50835 0.29598-0.72037 0.39123-0.11748 0.0529-0.1718 0.06-0.21837-0.0586-0.1337-0.34255-0.21484-0.51224-0.32703-0.90135-0.03-0.1023-0.0106-0.16016 0.0776-0.21519m1.209-1.4284c-0.22295 0.0843-0.44379 0.17639-0.67345 0.30586 0.0713 0.24765 0.19191 0.53657 0.27799 0.77646 0.19826-0.0981 0.46038-0.21907 0.69991-0.32773-0.0822-0.22225-0.19755-0.49565-0.30445-0.75459m1.0742 0.59161c-0.18344 0.078-0.40851 0.16863-0.59901 0.25329 0.10089 0.26705 0.2106 0.49989 0.33372 0.75283 0.20073-0.1143 0.39829-0.21308 0.62019-0.33443-0.10654-0.22684-0.24412-0.48225-0.3549-0.67169"/>
   <path d="m26.917 38.435c0.1778-0.0261 0.43039-0.0632 0.59901-0.0751-0.0557-0.32209-0.11288-0.62865-0.15063-0.87842-0.1845 0.0332-0.4385 0.078-0.62054 0.11218 0.0568 0.28716 0.10972 0.58879 0.17216 0.84138m-0.39688-0.84702c-0.0219-0.10795 0.0134-0.15452 0.13124-0.18204 0.20249-0.0388 0.42404-0.0772 0.63641-0.115-0.0476-0.3175-0.1009-0.64558-0.127-0.91687-9e-3 -0.0903 6e-3 -0.10725 0.10971-0.13653 0.28787-0.0557 0.5588-0.10371 0.86325-0.14428 0.0903-0.012 0.12347-2e-3 0.13864 0.10654 0.0261 0.18309 0.066 0.60254 0.0952 0.8636 0.21202-0.0342 0.41346-0.067 0.64664-0.10196 0.13935-0.0205 0.15769 0.0265 0.17463 0.11501 0.0822 0.40746 0.12664 0.63712 0.18591 1.0266 0.0187 0.12453 4e-3 0.15099-0.11783 0.17569-0.26917 0.054-0.50306 0.0787-0.78634 0.11994-0.11112 0.0162-0.1584-0.019-0.17674-0.12277-0.0473-0.27022-0.0744-0.58067-0.11748-0.92251-0.2032 0.0332-0.40216 0.0674-0.59795 0.10195 0.0441 0.27764 0.10301 0.58456 0.16757 0.95286 0.0169 0.0998-6e-3 0.14287-0.11713 0.1524-0.19649 0.0162-0.53481 0.0727-0.75494 0.11006-0.0829 0.0138-0.12594-2e-3 -0.15028-0.0952-0.0744-0.28751-0.139-0.66463-0.20356-0.98742m1.5441-1.2598c-0.22507 0.031-0.45614 0.0808-0.67133 0.12065 0.0243 0.24024 0.0751 0.54469 0.11324 0.81527 0.21131-0.0378 0.4258-0.0741 0.64558-0.11042-0.0236-0.17039-0.0607-0.63641-0.0875-0.8255m0.31715 0.93627c0.0452 0.3175 0.0815 0.64594 0.12488 0.89994 0.22119-0.0332 0.41804-0.0607 0.63818-0.0981-0.0466-0.30233-0.0861-0.57961-0.14888-0.89605-0.20566 0.0314-0.4191 0.0624-0.61418 0.0942"/>
   <path d="m31.915 38.474c-0.37817-2.2444-0.31891-4.0954 0.28646-4.403 0.61948-0.31538 1.6655 0.16828 2.5608 1.1416l-0.30127-0.62724c-0.85513-0.75988-1.7311-1.0305-2.3844-0.7433-0.80081 0.35207-0.83538 2.4497-0.39547 4.6983z"/>
   <path d="m30.053 38.957c-0.45578-2.1562-1.476-3.9412-2.4052-3.6798-0.4498 0.11254-0.94686 0.89747-1.2238 1.9696l0.13405 0.43815c0.27905-1.1522 0.77894-2.0239 1.1571-2.1209 0.71543-0.18309 1.6266 1.4711 2.0941 3.4502z"/>
   <path d="m33.041 40.482c-0.29352 0.0896-0.54505 0.43851-0.4191 0.89994 0.11923 0.44062 0.46355 0.67028 0.80398 0.5902 0.38064-0.09 0.61595-0.50412 0.51893-0.91511-0.11606-0.49001-0.5401-0.68721-0.90381-0.57503m-0.72602 0.98425c-0.12806-0.47096 0.0928-1.0509 0.6604-1.2252 0.56797-0.17604 1.1314 0.12029 1.2774 0.73907 0.11924 0.50694-0.20109 1.0964-0.77082 1.2305-0.49389 0.11677-1.0068-0.15628-1.167-0.74436"/>
   <path d="m31.563 41.667c-0.12453-0.56374-0.62089-0.6985-0.91017-0.60078-0.30339 0.10231-0.54257 0.44274-0.43568 0.8957 0.10866 0.46108 0.57644 0.66993 0.88689 0.58173 0.34254-0.0974 0.56409-0.40181 0.45896-0.87665m-1.6559 0.37571c-0.11994-0.508 0.0991-1.0273 0.67134-1.2206 0.62512-0.20849 1.1786 0.1651 1.3137 0.77893 0.13053 0.58949-0.14922 1.0548-0.72319 1.1942-0.63183 0.15416-1.1434-0.24907-1.2619-0.75248"/>
   <path d="m33.302 47.112c-0.22931 1.7293 0.20673 2.8293 0.30057 2.8363 0.0949 8e-3 0.63923-1.2132 0.8516-2.6709 0.17427-1.1956-0.16263-2.6956-0.2928-2.7076-0.0681-7e-3 -0.67593 1.1603-0.85937 2.5421m0.27234 3.1267c-0.3503-0.0625-0.80433-1.5907-0.59478-3.1697 0.19756-1.4873 0.89923-2.819 1.2033-2.8166 0.43321 2e-3 0.76482 1.8708 0.58949 3.0745-0.21555 1.4799-0.87278 2.9683-1.198 2.9118"/>
   <path d="m33.121 47.211c0.5461-0.78599 1.2636-0.44944 1.4587 0.26458l0.0617-0.47978c-0.32914-0.65405-0.98989-0.71931-1.4524-0.23812z"/>
   <path d="m30.521 46.838c-0.51647 1.2531-0.59302 2.4656-0.50024 2.5167 0.0899 0.0497 0.90134-0.66922 1.5028-2.0175 0.52987-1.1878 0.58491-2.3954 0.51752-2.4137-0.0811-0.0222-0.99448 0.63852-1.5201 1.9145m-0.6149 2.787c-0.32067-0.13441-0.20037-1.6284 0.31151-2.8702 0.5528-1.342 1.7053-2.2084 1.9562-2.0941 0.30374 0.13934 0.18944 1.5974-0.35913 2.8268-0.73272 1.6432-1.6909 2.2288-1.9085 2.1375"/>
   <path d="m30.294 47.029c0.6537-0.53057 1.2248-0.0621 1.2446 0.6537l0.19509-0.40993c-0.13194-0.67733-0.63112-0.99518-1.3042-0.63288z"/>
   <path d="m31.928 39.156c0.0808-0.23424-0.0981-0.31044-0.19508-0.0843-0.23284 0.54504-0.93098 0.75882-1.3642 0.37359-0.18873-0.16757-0.3175-0.0219-0.14287 0.16192 0.49354 0.51894 1.4263 0.34714 1.7022-0.4512"/>
  </g>
 </g>
</svg>
