<?xml version="1.0" encoding="UTF-8"?>
<!-- Created with Inkscape (http://www.inkscape.org/) -->
<svg version="1.1" viewBox="0 0 194.81 197.02" xmlns="http://www.w3.org/2000/svg">
 <g stroke-width="1.6107">
  <path d="m94.139 148.55 3.7624 0.62708 4.6583 1.9708 6.0021 3.4042 5.8228 4.8374 1.7917 1.9708 6.1812 17.379-4.2999-2.5979-6.4499-4.5688-6.7187-3.9417-6.1812-8.3312-3.852-7.1666z" fill="#8bc56c"/>
  <path d="m117.74 167.07c-5.4347 1.0149-8.0533 1.1882-13.539-0.36415l2.3151 2.088 6.2708 3.5833 8.5103 5.8228 1.6125 1.3437z" fill="#79ab5e"/>
  <path d="m94.96 149.48c-1.0742 0.65311 4.7567 11.829 14.727 20.825 9.1029 8.1395 20.466 15.331 20.894 14.897 0.64298-0.65058-5.3965-13.818-14.721-23.035-9.9754-9.8591-20.044-13.556-20.9-12.688zm34.981 36.804c-4.317-0.83711-13.919-7.1125-21.07-13.323-9.5221-9.6231-15.376-20.06-15.613-23.724-0.05944-1.0792 0.39356-1.2214 0.83946-1.2654 4.5141-0.65615 14.449 4.5784 22.833 13.113 8.5472 8.6999 14.487 19.802 14.941 23.679 0.22189 1.0767-0.20422 1.9415-1.9316 1.5206z" fill="#0f141b"/>
 </g>
 <g stroke-width="1.9056">
  <path d="m110.69 66.938c1.5245-0.3049 4.8784-0.9147 7.9274-1.2196 3.3539-0.3049 4.5735-0.9147 5.1833-2.4392 0.6098-1.8294-0.3049-4.5735-3.6588-4.8784-3.6588-0.6098-9.147 0.6098-14.635 2.4392l-5.1833 2.4392z" fill="#fffdf7"/>
  <path d="m102.45 62.365s6.098 3.049 7.6225 4.5735c0 0 6.7078-0.9147 9.7568-1.2196 2.7441 0 4.2686-1.5245 3.6588-4.5735-0.3049-3.049-3.049-3.3539-7.9274-2.7441-4.8784 0.6098-8.5372 1.8294-8.5372 1.8294z" fill="#dcdbd6"/>
  <path d="m109.77 66.634c1.8294-0.6098 5.4882-1.2196 8.5372-1.5245s4.2686-0.9147 4.5735-2.1343c0.6098-1.8294-0.3049-3.6588-3.049-3.9637-3.049-0.3049-9.4519 0.9147-15.55 2.7441-0.6098 0 0.3049-1.5245 0.6098-1.5245 3.9637-1.5245 10.671-3.3539 14.94-2.7441 3.9637 0.3049 5.1833 3.6588 4.5735 5.7931-0.9147 2.1343-2.4392 2.7441-5.7931 3.3539-3.049 0.3049-6.098 0.6098-7.6225 0.9147-0.3049 0-1.5245-0.9147-1.2196-0.9147z" fill="#0f141b"/>
  <path d="m183.86 89.806c7.0127-11.281-1.8294-15.855-11.281-18.599-8.8421-2.7441-21.648-2.1343-32.929 2.7441-11.281 5.1833-18.294 12.501-22.563 18.294 0 0 9.4519 12.196 24.697 11.891 15.55-0.3049 42.076-14.33 42.076-14.33z" fill="#3579b7"/>
  <path d="m54.585 90.416c-2.1343-1.5245-3.049-3.049-2.7441-4.5735 1.2196-4.5735 17.074-12.501 32.929-13.72 19.514-1.2196 34.149 0.9147 38.112 12.806 0 0 2.1343 13.111-11.891 17.074-14.33 3.6588-56.406-11.586-56.406-11.586z" fill="#3579b7"/>
 </g>
 <g fill="#ffe792" stroke-width="1.9056">
  <path d="m176.24 64.194c0 3.9637-3.3539 7.6225-7.9274 7.6225-4.2686 0-7.6225-3.6588-7.6225-7.6225 0-3.9637 3.3539-7.6225 7.6225-7.6225 4.5735 0 7.9274 3.6588 7.9274 7.6225z"/>
  <path d="m46.963 73.951c0 3.9637-3.3539 7.6225-7.6225 7.6225-4.5735 0-7.6225-3.6588-7.6225-7.6225 0-4.2686 3.049-7.9274 7.6225-7.9274 4.2686 0 7.6225 3.6588 7.6225 7.9274z"/>
  <path d="m142.09 101.09c-15.855-10.976-39.332-13.111-59.15-3.3539 0 0-10.671 9.4519-6.7078 16.16 3.6588 7.0127 39.027 10.062 49.394 7.6225 10.367-2.4392 26.221-10.062 16.465-20.428z"/>
 </g>
 <path d="m120.44 137.98c0.6098 4.2686 4.5735 27.746 16.769 48.174 4.5735 7.9274 1.8294 8.8421 0.6098 9.4519-1.5245 0.6098-3.6588 0.3049-8.5372-6.4029-13.111-17.379-17.989-46.04-18.599-50.613l4.5735-2.4392z" fill="#8bc56c" stroke-width="1.9056"/>
 <path d="m120.44 137.98c0.6098 4.2686 4.5735 27.746 16.769 48.174 4.5735 7.9274 1.8294 8.8421 0.6098 9.4519-1.5245 0.6098-3.6588 0.3049-8.5372-6.4029-13.111-17.379-17.989-46.04-18.599-50.613z" fill="#79ab5e" stroke-width="1.9056"/>
 <path d="m171.82 70.35c18.837 3.8311 16.146 14.39 13.02 19.071" fill="none" stroke="#0f141b" stroke-width="2.2549"/>
 <g fill="#3579b7" stroke-width="1.9056">
  <path d="m177.46 127.61c-11.891 6.4029-24.087 7.6225-31.405 6.098-7.6225-1.2196-21.343-7.6225-22.563-13.72-1.2196-5.7931 2.7441-10.367 4.8784-12.196 3.3539-2.4392 7.3176-6.098 20.733-7.3176 10.671-1.2196 20.428-7.9274 23.477-9.7568 2.7441-1.5245 9.147-4.8784 16.16 1.8294 6.7078 7.0127 5.1833 18.294 2.4392 23.172-2.7441 4.5735-6.4029 8.2323-13.72 11.891z"/>
  <path d="m48.792 147.13c3.9637 3.9637 9.7568 3.3539 20.428-0.6098 10.671-3.6588 29.88-7.9274 38.112-7.9274 8.2323-0.3049 15.855 0.3049 18.599-3.9637 2.4392-4.2686 3.6588-11.891-6.098-19.514-10.062-7.6225-25.612-5.7931-36.893-3.3539-11.281 2.1343-24.087 9.4519-30.49 18.599-6.7078 8.8421-4.8784 14.94-3.6588 16.769z"/>
  <path d="m80.807 110.54c-3.049 4.5735-9.7568 7.6225-24.087 10.367-14.635 2.4392-22.867 7.9274-29.88 9.7568-7.9274 2.1343-13.111 0.91469-15.245-1.8294-2.7441-3.6588-2.7441-9.147 3.6588-17.989 6.7078-9.147 20.123-16.16 30.185-18.904 9.7568-2.7441 18.904-2.4392 27.746 0.6098s15.55 6.4029 7.6225 17.989z"/>
 </g>
 <g stroke-width="1.9056">
  <path d="m117.09 101.39c-2.7441-4.2686-2.7441-12.501 0-22.867 2.7441-10.671 7.9274-20.733 9.4519-22.867 0.3049 0 0.9147 0.3049 1.2196 0.3049 6.4029 0 10.976-4.8784 10.976-10.671s-4.5735-10.671-10.976-10.671-10.976 4.8784-10.976 10.367c0 2.4392 0.9147 4.8784 2.4392 7.0127-0.91469 1.8294-10.976 16.465-13.416 42.381-0.30489 2.1343-1.5245 3.9637-2.7441 5.1833l6.7078 3.3539z" fill="#ffe792"/>
  <path d="m71.66 115.11c-22.258 0.6098-35.978 8.8421-45.125 11.586-9.4519 2.7441-15.55 0.3049-17.074-2.4392 0 0 0 6.098 6.4029 7.6225 6.4029 1.5245 11.891-0.91469 17.379-3.3539 5.1833-2.4392 21.953-8.2323 29.575-8.5372z" fill="#2a6397"/>
  <path d="m128.07 129.75c-1.8294 4.2686-7.9274 5.7931-15.855 5.1833-17.989-1.8294-43.601 8.2323-51.833 10.367-8.2323 2.4392-13.111-0.91469-13.111-3.049 0 0 0 6.098 5.7931 7.6225 2.1343 0.6098 7.3176 0.3049 16.16-2.7441s25.002-8.5372 42.686-7.9274c4.8784 0 9.4519 0 12.196-2.4392 3.049-2.4392 3.9637-7.0127 3.9637-7.0127z" fill="#2a6397"/>
  <path d="m135.56 133.77 1.5203 1.3936 2.2804 3.8006 2.6604 8.2348 1.5203 11.022-0.76013 9.5016-2.1537 10.135-2.5337 6.9679-1.5203 1.9003-1.647-1.5203-2.6604-8.7414-2.4072-12.415v-11.655l1.5203-9.8818 2.027-6.081z" fill="#79ab5e"/>
 </g>
 <g fill="#2a6397" stroke-width="1.9056">
  <path d="m193.92 106.58c-7.0127 16.769-26.831 21.953-38.417 23.172-11.891 1.2196-26.221-5.4882-29.27-8.2323 0 0 1.2196 3.6588 1.5245 5.1833 0 0 13.416 8.5372 27.746 7.9274 14.33-0.6098 29.27-9.4519 33.844-15.245 2.7441-3.9637 4.5735-12.806 4.5735-12.806z"/>
  <path d="m167.09 94.379c-6.098 3.049-23.477 5.1833-28.661 4.5735 0 0 3.9637 1.8294 4.5735 3.049 0 0 3.3539-0.30489 12.196-2.4392 8.8421-2.1343 11.891-5.1833 11.891-5.1833z"/>
  <path d="m77.453 93.465c2.4392 1.5245 11.281 0.91472 16.769-0.30492 0 0-10.062 3.3539-11.586 4.8784z"/>
 </g>
 <g fill="#dbc77f" stroke-width="1.9056">
  <path d="m122.88 117.86c-2.7441-4.8784-13.416-7.6225-13.416-7.6225 2.7441 0.9147 13.416 1.5245 16.769-0.9147 0 0-3.049 5.1833-3.3539 8.5372z"/>
  <path d="m90.564 109.93c-7.3176-1.2196-6.4029-4.5735-6.4029-4.5735s-3.049 5.4882-3.9637 6.4029c0 0 8.2323-2.1343 10.367-1.8294z"/>
  <path d="m176.24 64.499c-7.6225 6.7078-15.55 0-15.55 0s0.6098 7.0127 7.6225 7.3176c6.7078 0.3049 7.9274-7.3176 7.9274-7.3176z"/>
  <path d="m47.268 74.256c-7.6225 6.7078-15.55 0-15.55 0s0.6098 7.3176 7.6225 7.6225c6.7078 0.3049 7.9274-7.6225 7.9274-7.6225z"/>
  <path d="m117.09 45.596s-0.3049 4.8784 3.9637 7.9274c0.3049 0.3049 0.9147 0.9147 0.9147 1.8294 0.30489 0.9147-0.3049 1.8294-0.3049 2.4392-2.7441 4.5735-6.7078 13.111-8.5372 22.258-2.4392 10.671-3.049 15.855-2.4392 17.684 0.6098 1.5245 3.9637 3.9637 6.7078 3.9637 0 0-4.8784-6.098-0.9147-21.648 2.7441-10.062 8.5372-21.343 10.367-24.392 8.8421 0.9147 11.891-8.5372 11.891-8.5372-12.501 8.8421-21.648-1.5245-21.648-1.5245z"/>
 </g>
 <path d="m138.74 137.37c-3.3539-5.4882-9.4519 17.379-8.8421 26.526-1.2196-15.855 3.6588-29.575 5.7931-30.185 1.2196 0 3.049 3.6588 3.049 3.6588z" fill="#8bc56c" stroke-width="1.9056"/>
 <g fill="#0f141b" stroke-width="1.9056">
  <path d="m168.31 57.182c-3.6588 0-7.0127 3.049-7.0127 7.0127 0 3.6588 3.3539 7.0127 7.0127 7.0127 3.9637 0 7.0127-3.3539 7.0127-7.0127 0-3.9637-3.049-7.0127-7.0127-7.0127zm0 15.245c-4.2686 0-8.5372-3.049-8.5372-8.2323 0-5.1833 3.9637-8.5372 8.5372-8.5372 5.1833 0 8.5372 3.6588 8.5372 8.5372 0 4.8784-3.6588 8.2323-8.5372 8.2323z"/>
  <path d="m89.954 97.123c-25.916-23.782-39.942-23.172-46.345-23.172-1.8294 0-1.8294-0.6098 0-0.9147 6.098-0.3049 21.648-1.5245 47.259 23.172 1.5245 1.8294 0.9147 2.4392-0.9147 0.9147z"/>
  <path d="m39.34 66.634c-3.9637 0-7.0127 3.3539-7.0127 7.3176 0 3.6588 3.049 7.0127 7.0127 7.0127 3.6588 0 7.0127-3.3539 7.0127-7.0127 0-3.9637-3.3539-7.3176-7.0127-7.3176zm0 15.55c-4.2686 0-8.8421-3.049-8.8421-8.2323 0-4.8784 4.2686-8.5372 8.8421-8.5372 4.8784 0 8.5372 3.3539 8.5372 8.2323 0 5.4882-3.9637 8.5372-8.5372 8.5372z"/>
  <path d="m129.29 101.09c7.9274-26.526 25.916-33.539 34.149-35.978 1.8294-0.6098 2.1343 0.3049 0.3049 0.9147-7.6225 3.049-24.087 9.147-33.539 35.368-0.3049 0.91469-1.2196 0.60979-0.9147-0.3049z"/>
  <path d="m125.02 55.047c6.4029 1.5245 13.111-3.049 13.111-9.7568 0-5.4882-4.5735-10.062-10.367-10.062s-10.367 4.2686-10.367 9.7568c0 2.7441 1.2196 5.4882 3.3539 7.3176 0.9147 1.2196 0.3049 1.8294-0.9147 0.9147-2.4392-2.1343-3.9637-4.8784-3.9637-7.9274 0-6.4029 5.4882-11.281 11.891-11.281 6.7078 0 11.891 4.8784 11.891 11.281 0 7.3176-7.3176 12.806-14.635 10.671-1.8294-0.6098-1.8294-1.2196 0-0.9147z"/>
  <path d="m102.76 99.258c1.5245-1.5245 2.1343-3.049 2.1343-5.1833 1.2196-13.111 4.2686-27.441 13.72-42.076 0-0.3049 1.2196 0.3049 1.2196 0.6098-9.147 14.33-12.501 30.795-13.416 41.771-0.3049 2.1343-1.2196 4.2686-3.049 5.4882-0.9147 0.6098-1.2196 0.3049-0.6098-0.6098z"/>
  <path d="m116.78 101.39c-3.3539-3.9637-3.3539-12.501-0.6098-23.477 2.7441-10.671 7.9274-20.123 9.4519-22.258 0.3049-0.3049 1.5245 0 1.2196 0.3049-1.2196 2.1343-6.4029 12.196-9.147 22.563-2.7441 10.671-3.049 18.294-0.3049 22.563 0.9147 0.91469 0.3049 1.2196-0.6098 0.3049z"/>
  <path d="m127.15 123.95c4.2686 4.2686 13.111 7.9274 18.904 9.147 4.2686 0.9147 16.465 1.5245 31.1-6.098 7.0127-3.3539 10.671-6.7078 13.416-11.891 2.4392-4.2686 4.2686-15.245-2.4392-21.953-7.0127-7.0127-13.72-2.1343-16.465-0.3049-3.6588 2.4392-12.501 7.9274-22.258 9.147-11.281 1.2196-15.855 3.049-19.209 5.7931-2.1343 1.2196-7.0127 5.1833-5.7931 11.586l-1.8294-1.5245c0-6.4029 4.2686-10.062 6.098-11.281 3.3539-2.7441 8.2323-5.1833 20.123-6.4029 9.4519-0.9147 18.294-7.0127 21.953-9.4519 2.1343-1.2196 10.671-7.0127 18.904 1.2196 7.3176 7.0127 5.4882 19.514 2.7441 24.087-3.049 5.1833-7.3176 9.4519-14.33 13.111-11.281 5.7931-23.477 7.3176-32.014 5.7931-4.8784-0.60979-13.111-3.6588-18.294-7.9274z"/>
  <path d="m83.246 112.37c-11.586 2.1343-24.087 9.7568-30.185 18.294-3.9637 5.1833-13.72 25.916 15.855 15.245 11.281-3.9637 30.185-7.9274 38.417-8.2323 3.6588 0 15.245 0.60979 17.989-3.3539 1.8294-3.049 4.8784-10.367-5.7931-18.599-9.7568-7.6225-25.916-5.4882-36.283-3.3539zm-32.014 17.379c6.4029-8.8421 19.514-17.074 31.405-19.514 9.7568-1.8294 27.136-4.2686 37.807 3.9637 3.049 2.4392 12.501 11.586 6.4029 21.038-3.3539 5.1833-14.33 4.5735-19.209 4.5735-7.9274 0.3049-27.136 4.2686-37.807 8.2323-29.575 10.367-25.002-9.4519-18.599-18.294z"/>
  <path d="m78.368 112.37c4.2686-4.5735 6.098-10.062 5.1833-12.501-1.8294-4.8784-19.514-12.196-37.807-7.3176-9.7568 2.7441-22.867 9.4519-29.88 18.599-5.4882 7.3176-6.7078 13.111-3.6588 17.074 5.1833 7.0127 21.953-0.91469 22.258-1.2196 5.4882-2.1343 14.94-6.4029 33.844-9.147l-6.4029 3.6588c-11.281 1.2196-21.038 5.1833-26.526 7.6225-4.8784 1.8294-18.904 7.9274-25.002 0-3.3539-4.5735-2.1343-11.281 3.9637-19.209 7.0127-9.4519 20.733-16.465 30.49-19.209 19.209-4.8784 38.417 2.7441 40.552 8.5372 0.9147 3.049-0.3049 7.0127-3.6588 11.891z"/>
  <path d="m114.96 92.245c9.7568 0.9147 19.209 3.9637 26.831 9.4519 0 0 2.1343-0.6098 1.8294-0.9147-8.5372-5.7931-18.599-9.4519-28.661-10.367z"/>
  <path d="m105.81 92.245c-7.6225 0.6098-15.55 2.4392-22.563 6.098-0.3049 0-1.5245-1.2196-0.9147-1.5245 7.6225-3.6588 15.855-5.7931 23.782-6.4029z"/>
  <path d="m162.82 70.597c-7.6225-0.3049-15.855 1.2196-22.867 4.2686-10.976 4.8784-17.989 11.891-21.953 17.379 0 0.3049-2.1343 0.3049-2.1343 0 3.9637-5.7931 11.586-14.025 23.477-19.514 6.7078-3.049 14.635-4.5735 21.953-4.5735z"/>
  <path d="m109.16 73.951c-5.7931-1.5245-14.025-1.8294-24.392-0.9147-15.855 0.9147-31.1 8.8421-32.014 12.806-0.3049 1.2196 0.3049 2.7441 2.4392 3.9637 0.3049 0.3049-1.8294 0.9147-1.8294 0.9147-2.4392-1.8294-3.3539-3.3539-2.7441-5.1833 1.2196-5.1833 18.294-13.416 33.844-14.635 8.8421-0.6098 17.989-0.6098 25.612 1.2196z"/>
  <path d="m117.09 77.915c2.4392 1.8294 4.2686 4.2686 5.1833 7.3176 0.3049 0.3049 1.5245-0.3049 1.5245-0.6098-0.9147-3.9637-3.049-7.0127-6.098-9.147z"/>
  <path d="m132.94 180.06c-10.367-20.428-13.111-41.771-13.111-41.771 0-0.60979 1.8294-0.91469 1.8294-0.3049 0 0 2.1343 16.465 10.062 34.454z"/>
  <path d="m125.63 182.19c-10.671-18.599-14.33-43.601-14.33-43.905s-1.2196 0-1.2196 0.3049 2.7441 22.563 11.891 40.856z"/>
  <path d="m135.69 134.63c-1.2196-0.3049-5.7931 12.196-5.1833 25.612 0.6098 12.196 5.1833 25.612 5.7931 25.612 0.9147 0 6.4029-13.416 6.4029-26.526 0-14.025-5.7931-24.697-7.0127-24.697zm-0.60979 51.528c-2.4392-3.6588-5.7931-16.16-6.4029-25.612-0.3049-12.196 3.3539-24.087 5.7931-26.831 0.78557-0.79426 1.6449-0.57291 2.4392 0.3049 2.7441 2.7441 7.3176 12.806 7.3176 25.307 0 12.196-4.2686 24.087-6.7078 27.136-0.6098 0.91469-1.5245 1.2196-2.4392-0.3049z"/>
 </g>
 <path d="m109.16 9.0077c-0.91469-2.1343-2.7441-3.6588-5.1833-3.9637-2.7441-0.6098-4.8784 0.3049-6.098 2.1343-1.2196-2.4392-3.3539-4.2686-6.4029-4.8784-4.2686-0.6098-7.0127 1.5245-8.2323 4.8784-2.1343-2.1343-6.098-3.049-9.147-1.5245-2.4392 1.2196-3.9637 3.3539-4.2686 5.4882-2.4392-1.5245-5.7931-1.2196-8.2323 0.9147-1.5245 1.5245-2.1343 3.3539-1.8294 5.4882-2.4392 0-5.1833 1.2196-5.4882 3.9637 0 0 5.7931 7.9274 28.356 3.3539 22.563-4.5735 26.526-15.855 26.526-15.855z" fill="#ffe792" stroke-width="1.9056"/>
 <g fill="#fffdf7" stroke-width="1.9056">
  <path d="m118.61 30.96c1.8294 0 8.8421-0.3049 19.818-2.4392 13.416-2.4392 17.074-7.9274 16.16-10.062-1.5245-3.6588-10.367-1.5245-10.367-1.5245 7.0127-2.1343 15.855-11.281 13.111-15.245-2.7441-3.6588-16.465 2.4392-25.307 7.3176-8.5372 4.8784-12.196 8.8421-16.769 13.111l-0.9147 4.8784z"/>
  <path d="m19.827 46.51c-12.501-0.9147-18.904-6.4029-19.209-8.8421-0.3049-3.049 11.586-7.0127 30.49-5.4882 8.2323 0.9147 18.294 3.3539 28.965 7.3176v7.3176c-9.147 5.1833-17.989 8.2323-25.307 9.4519-13.72 2.7441-22.563 0.6098-23.782-2.4392-1.2196-4.2686 6.4029-6.4029 8.8421-7.3176z"/>
  <path d="m98.186 84.013s3.049-6.098 7.0127-7.9274c4.2686-1.8294 7.3176 0 8.2323 0.6098 0 0 0-1.5245 1.5245-3.049v-0.3049c-1.5245-3.049-5.7931-8.8421-13.416-10.671 7.9274-3.049 11.586-7.6225 14.33-12.806 7.9274-13.416 1.2196-25.002-1.5245-28.051l-13.111-9.7568c-23.477-9.147-37.198 6.4029-39.332 9.147l-5.7931 12.806c-0.3049 2.1343-1.8294 15.55 10.976 24.087-1.5245 0.6098-3.9637 3.6588-2.7441 6.098 0.6098 0.9147 1.5245 0.9147 4.5735 1.5245 2.1343 0.3049 9.7568 2.7441 15.245 5.7931-0.3049 1.8294 0 10.976 3.049 16.465 0.3049-1.8294 2.1343-7.3176 10.976-3.9637z"/>
 </g>
 <g stroke-width="1.9056">
  <path d="m103.67 95.904c1.2196 2.1343 5.1833 6.7078 9.4519 9.7568 4.2686 3.049 8.2323 3.9637 9.7568 2.1343 1.2196-2.1343 0.3049-3.9637-3.6588-6.098-3.3539-2.1343-7.3176-5.1833-9.147-8.5372 5.7931-3.9637 7.9274-12.806 4.8784-19.514-1.5245 1.5245-1.5245 3.049-1.5245 3.049-0.9147-0.6098-3.9637-2.4392-8.2323-0.6098-3.9637 1.8294-7.0127 7.9274-7.0127 7.9274-8.8421-3.3539-10.671 2.1343-10.976 3.9637 0.3049 1.2196 0.9147 2.1343 1.5245 2.7441 4.2686 4.8784 10.062 5.7931 14.94 5.1833z" fill="#8bc56c"/>
  <path d="m90.564 43.461c0.9147 3.6588 0.3049 6.7078-1.5245 7.0127-2.1343 0.6098-4.5735-1.5245-5.4882-5.1833-0.9147-3.3539 0-6.7078 1.8294-7.3176 2.1343-0.3049 4.2686 2.1343 5.1833 5.4882z" fill="#525557"/>
  <path d="m105.81 39.193c0.9147 3.6588 0 6.7078-2.1343 7.0127-1.8294 0.6098-3.6588-1.2196-4.5735-4.8784-0.9147-3.9637 0-7.0127 1.8294-7.3176 1.8294-0.6098 3.9637 1.8294 4.8784 5.1833z" fill="#525557"/>
  <path d="m105.2 24.253c-0.9147 3.9637-4.5735 7.0127-8.5372 7.0127-2.4392 0-4.8784-1.2196-6.4029-3.049-0.6098 3.9637-3.9637 7.0127-8.2323 7.0127-3.3539 0-6.098-1.8294-7.3176-4.2686-0.9147 2.7441-3.6588 5.1833-7.0127 5.1833-2.7441 0.3049-5.4882-1.2196-6.7078-3.049-1.2196 2.1343-4.2686 1.5245-6.4029 0-1.8294-1.5245-3.049-3.6588-3.049-5.7931 0-2.7441 1.2196-4.8784 3.3539-6.4029 4.2686-2.4392 7.0127 0 7.3176 1.2196 1.2196-0.9147 2.7441-1.5245 4.5735-1.5245 3.049-0.3049 5.7931 1.2196 7.0127 3.6588 1.2196-3.3539 4.2686-5.7931 8.2323-5.7931 2.7441 0 4.8784 1.2196 6.4029 3.3539 0.6098-3.9637 3.9637-7.3176 8.2323-7.3176 1.2196 0 2.1343 0.3049 3.049 0.6098 1.2196-3.9637 5.4882-7.0127 9.7568-5.7931 4.5735 0.9147 7.0127 5.4882 5.7931 9.7568-1.2196 4.8784-6.4029 7.0127-10.062 5.1833z" fill="#ffe792"/>
  <path d="m83.551 54.133c0.6098 1.5245-0.6098 3.049-3.6588 4.2686-2.7441 0.9147-5.1833 0.3049-5.7931-0.9147-0.3049-0.9147 0-2.7441 3.6588-4.2686 3.049-0.9147 5.4882-0.3049 5.7931 0.9147z" fill="#e9545d"/>
  <path d="m117.09 43.461c0.6098 1.5245-0.3049 3.049-3.3539 4.2686-2.4392 1.2196-4.8784 1.5245-5.4882 0.3049-0.6098-0.9147-0.3049-2.7441 3.3539-4.5735 2.7441-1.2196 4.8784-0.9147 5.4882 0z" fill="#e9545d"/>
  <path d="m76.843 120.3c0.3049 3.9637-3.049 7.9274-7.3176 7.9274-4.5735 0.3049-7.9274-3.3539-8.2323-7.3176 0-3.9637 3.049-7.9274 7.6225-7.9274 4.2686-0.3049 7.6225 3.049 7.9274 7.3176z" fill="#ffe792"/>
  <path d="m157.34 3.5195c0 1.2196-4.8784 6.7078-11.281 10.367-2.4392 1.2196-1.2196 3.049-1.2196 3.049s6.4029-3.049 9.4519-6.4029c2.7441-3.3539 3.049-7.0127 3.049-7.0127z" fill="#dcdbd6"/>
  <path d="m118.92 31.57c-0.60979 4.2686-1.2196 8.2323-2.7441 11.281 0.3049 0.3049 0.6098 0.3049 0.9147 0.9147 0.6098 1.2196-0.3049 2.7441-3.3539 3.9637-0.3049 0.3049-0.6098 0.6098-0.9147 0.6098-3.3539 3.3539-7.6225 6.098-14.33 8.2323-15.855 5.4882-31.1 0.6098-36.893-3.049 0 0 3.9637 3.6588 4.8784 4.2686 0 0 8.5372-1.5245 20.123 7.3176 0 0 10.671 0.3049 18.904-4.5735 8.2323-4.8784 16.16-15.245 13.416-28.965z" fill="#dcdbd6"/>
  <path d="m117.09 43.461c-0.3049-0.3049-0.6098-0.3049-0.9147-0.6098-0.91469 2.1343-2.1343 3.9637-3.3539 5.4882 0.3049 0 0.6098-0.3049 0.9147-0.6098 3.049-1.2196 3.9637-2.7441 3.3539-4.2686z" fill="#c94851"/>
 </g>
 <g fill="#dcdbd6" stroke-width="1.9056">
  <path d="m87.819 73.951s-2.4392 1.5245-3.049 4.5735c0 0-0.60982-3.6588 0-6.4029z"/>
  <path d="m87.515 65.719s10.062 4.5735 21.648 0.9147c0 0-4.2686-3.9637-7.3176-4.2686 0 0-5.1833 2.1343-8.2323 2.4392-2.4392 0.3049-5.4882 0.3049-6.4029 0.3049-0.3049 0 0.3049 0.6098 0.3049 0.6098z"/>
  <path d="m64.342 62.365c0.3049 1.2196 2.4392 1.5245 3.9637 1.8294 1.5245 0.3049 7.6225 1.5245 12.806 4.2686 5.4882 2.4392 7.6225 4.5735 7.3176 5.7931 0 0-6.098-3.6588-10.062-5.1833-3.9637-1.5245-9.7568-3.049-11.281-3.3539-1.8294-0.3049-2.7441-0.9147-3.049-2.1343 0-0.9147 0.3049-1.2196 0.3049-1.2196z"/>
 </g>
 <path d="m110.08 93.16c-1.8294 4.2686-0.3049 8.2323 10.671 15.55 0.9147 0.6098-3.9637 0.6098-11.891-6.4029-1.8294-1.5245-5.1833-6.4029-5.1833-6.4029-13.111 0.9147-16.769-8.5372-16.769-8.5372 0.9147 2.1343 10.671 6.4029 17.684 4.5735s10.976-6.7078 11.891-11.281c0 0-0.3049 7.9274-6.4029 12.501z" fill="#79ab5e" stroke-width="1.9056"/>
 <g fill="#dcdbd6" stroke-width="1.9056">
  <path d="m60.378 46.815c0-0.9147-1.8294-0.9147-3.9637 0.3049-9.7568 4.2686-19.209 7.0127-25.307 7.6225-14.025 1.8294-19.514-1.2196-19.818-2.1343 0 0-0.9147 2.7441 4.5735 3.9637 5.4882 1.2196 10.976 1.8294 22.563-0.9147 11.586-2.7441 21.953-8.8421 21.953-8.8421z"/>
  <path d="m20.437 46.51c0.3049-0.6098 0-1.2196-1.2196-1.5245-1.5245-0.3049-2.7441-0.6098-7.3176-1.8294-4.5735-1.5245-10.671-4.5735-10.671-5.7931 0 0-0.6098 2.1343 3.049 4.5735 3.6588 2.4392 7.3176 3.3539 10.976 4.2686 3.9637 0.9147 5.1833 0.3049 5.1833 0.3049z"/>
  <path d="m154.29 18.46c-0.6098 1.2196-2.4392 3.9637-11.281 6.7078-8.8421 2.7441-22.258 3.9637-24.697 3.9637l0.3049 1.8294s14.94-0.3049 24.697-3.3539c11.891-4.2686 10.976-9.147 10.976-9.147z"/>
 </g>
 <g stroke-width="1.9056">
  <path d="m114.96 14.801c-1.8294 7.6225-10.062 6.098-10.062 6.098-3.049 7.6225-11.891 6.4029-14.33 5.7931-0.6098-0.3049-0.6098-0.3049-1.2196 0.3049-4.8784 5.1833-12.196 3.3539-14.635 2.4392-0.9147-0.3049-0.9147-0.3049-1.5245 0.3049-6.4029 4.2686-13.72 0-13.72 0-3.049 1.2196-7.9274-0.6098-7.9274-2.4392 0 0 0 5.1833 4.5735 6.7078 2.7441 0.6098 4.5735-0.9147 4.5735-0.9147s1.8294 3.049 7.0127 3.049c5.4882 0.3049 7.0127-5.1833 7.0127-5.1833s2.4392 4.8784 9.147 3.9637c4.8784-0.3049 6.4029-6.4029 6.4029-6.4029s4.5735 4.8784 10.062 2.1343c1.8294-0.6098 3.9637-3.049 4.8784-6.4029 0 0 5.1833 1.5245 8.2323-1.5245 2.7441-3.3539 1.5245-7.9274 1.5245-7.9274z" fill="#dbc77f"/>
  <path d="m76.843 120.6c-7.3176 7.0127-15.55 0.6098-15.55 0.6098s0.9147 7.3176 7.9274 7.3176c7.0127-0.3049 7.6225-7.9274 7.6225-7.9274z" fill="#dbc77f"/>
  <path d="m85.685 38.583c-1.8294 0.3049-2.4392 3.6588-1.5245 6.7078 0.9147 3.6588 3.049 5.1833 4.5735 4.8784 1.8294-0.6098 2.4392-3.3539 1.5245-6.7078-0.9147-3.049-3.049-5.4882-4.5735-4.8784zm-2.7441 7.0127c-0.9147-3.3539 0-7.3176 2.4392-7.9274 1.5245-0.6098 4.5735 0.9147 5.7931 5.4882 1.2196 3.9637 0 7.3176-2.1343 7.9274-1.5245 0.3049-4.5735-0.3049-6.098-5.4882z" fill="#0f141b"/>
  <path d="m88.124 41.022c0.3049 0.9147-0.3049 2.1343-1.2196 2.1343-0.9147 0.3049-1.8294-0.3049-2.1343-1.2196-0.3049-1.2196 0.3049-2.1343 1.2196-2.4392s1.8294 0.6098 2.1343 1.5245z" fill="#fff"/>
  <path d="m100.93 34.314c-1.5245 0.6098-2.4392 3.3539-1.5245 6.7078 0.9147 3.3539 2.4392 5.1833 4.2686 4.8784 1.5245-0.6098 2.4392-3.3539 1.5245-6.4029-0.9147-3.6588-2.7441-5.4882-4.2686-5.1833zm-2.4392 7.0127c-0.9147-3.9637 0-7.3176 2.1343-7.9274 1.8294-0.3049 4.5735 1.2196 5.7931 5.7931 1.2196 4.2686-0.6098 7.0127-2.4392 7.6225-1.8294 0.3049-4.5735-0.9147-5.4882-5.4882z" fill="#0f141b"/>
  <path d="m103.37 36.753c0.3049 0.9147-0.3049 2.1343-1.2196 2.1343-0.9147 0.3049-1.8294-0.3049-2.1343-1.2196-0.3049-1.2196 0.3049-2.1343 1.2196-2.4392s1.8294 0.6098 2.1343 1.5245z" fill="#fff"/>
 </g>
 <g fill="#0f141b" stroke-width="1.9056">
  <path d="m73.184 25.472c0.6098-4.2686 4.2686-7.6225 8.8421-7.6225 3.3539-0.3049 6.098 2.1343 7.3176 4.8784 0.6098 1.2196 0 1.5245-0.6098 0.3049-1.5245-2.4392-3.9637-3.9637-6.7078-3.9637-3.9637 0-7.3176 2.7441-7.9274 6.7078-0.3049 1.2196-0.9147 1.2196-0.9147-0.3049z"/>
  <path d="m73.794 30.655c-0.3049-1.2196 0.3049-1.5245 0.9147 0 1.5245 2.4392 4.2686 3.9637 7.3176 3.9637 3.6588 0 7.0127-2.7441 7.6225-6.7078 0.3049-1.2196 0.6098-0.6098 0.9147 0 1.5245 1.8294 3.9637 2.7441 6.098 2.7441 2.4392 0 4.5735-0.9147 6.098-2.7441 1.2196-1.2196 2.1343-3.6588 2.1343-5.4882-0.3049-1.5245 0.6098-1.5245 0.6098 0 0.30489 2.4392-0.3049 4.5735-1.8294 6.4029-1.8294 2.1343-4.2686 3.3539-6.7078 3.3539-2.4392 0-5.1833-1.2196-6.4029-2.7441-0.9147 3.9637-5.1833 6.7078-8.5372 6.7078-3.9637-0.3049-6.7078-2.1343-8.2323-5.4882z"/>
  <path d="m88.124 21.509c0.3049-3.049 2.1343-5.4882 4.5735-6.7078 2.7441-1.5245 5.7931-0.9147 7.9274 0.3049 1.2196 0.6098 0.9147 1.2196-0.3049 0.6098-1.8294-0.9147-4.8784-0.9147-7.3176 0.3049-2.1343 1.2196-3.6588 3.6588-3.9637 6.098 0 0.3049-0.9147 0-0.9147-0.6098z"/>
  <path d="m59.159 17.545c-0.9147-6.7078 6.098-10.367 11.281-6.098 0.9147 0.6098 0.3049 0.9147-0.6098 0.6098-3.9637-3.049-10.367 0-9.4519 5.4882 0 0.3049-0.9147 0.3049-1.2196 0z"/>
  <path d="m53.671 21.509c0.3049-3.6588 4.2686-5.1833 6.7078-4.2686 0.9147 0 0.9147 0.6098 0 0.6098-1.2196 0-5.1833 0.6098-5.4882 3.6588 0 0.3049-1.2196 0.3049-1.2196 0z"/>
  <path d="m108.55 9.0077c-2.4392-4.5735-8.2323-4.5735-10.976-0.6098-0.9147 1.2196-1.5245 0.9147-0.9147-0.6098 3.049-5.1833 10.671-4.5735 13.111 1.2196 0 0.3049-1.2196 0-1.2196 0z"/>
  <path d="m60.074 24.253c1.5245-2.7441 3.9637-4.5735 6.7078-4.5735 3.049-0.3049 6.098 1.5245 7.6225 4.2686 0.3049 0.3049-0.6098 0.9147-0.9147 0.6098-1.5245-2.4392-3.9637-3.6588-6.7078-3.3539-2.4392 0-4.5735 1.2196-5.7931 3.3539-0.9147 0.9147-1.5245 0.6098-0.9147-0.3049z"/>
  <path d="m61.598 34.924c-1.5245-1.5245-2.4392-3.6588-2.4392-5.4882 0-1.2196 0.3049-1.2196 0.6098-0.3049 0.6098 2.1343 1.2196 3.3539 2.7441 4.5735 1.5245 1.5245 3.3539 2.1343 5.1833 1.8294 2.7441 0 5.4882-1.8294 6.4029-4.5735 0-0.3049 0.9147 0.9147 0.9147 0.9147-1.5245 2.7441-3.9637 4.8784-7.0127 5.1833-2.4392 0-4.8784-0.9147-6.4029-2.1343z"/>
  <path d="m105.2 25.167c-0.3049-0.3049 0-1.2196 0.3049-1.2196 3.9637 1.2196 8.2323-1.2196 9.147-5.1833 1.2196-3.9637-1.2196-7.9274-5.1833-8.8421-3.9637-1.2196-7.9274 1.5245-8.8421 5.1833-0.3049 0.3049-1.2196 0-1.2196-0.3049 0.9147-4.2686 5.4882-7.6225 10.367-6.4029 4.8784 1.2196 7.3176 6.4029 6.4029 10.671-1.5245 4.8784-6.7078 7.0127-10.976 6.098z"/>
  <path d="m50.622 27.302c0-2.7441 1.5245-5.4882 3.9637-7.0127 4.5735-2.7441 7.6225 0.3049 8.2323 1.8294 0 0.3049-0.9147 0.6098-1.2196 0.3049-0.3049-1.2196-2.7441-3.049-6.4029-0.9147-1.8294 1.2196-3.049 3.3539-3.049 5.7931 0 3.9637 4.2686 7.0127 7.0127 6.4029 0.6098-0.3049 1.2196-0.6098 1.2196-0.9147 0.3049-0.3049 0.9147 0.9147 0.9147 0.9147-0.3049 0.6098-0.9147 0.9147-1.8294 1.2196-3.3539 0.9147-8.8421-2.1343-8.8421-7.6225z"/>
  <path d="m69.221 10.837c1.8294-7.3176 9.147-8.5372 14.025-4.5735 2.7441-7.0127 12.196-5.4882 14.94 0.3049 0 0.3049-0.9147 1.2196-0.9147 0.9147-2.1343-5.1833-10.976-7.0127-13.416 0-0.3049 0.6098-0.3049 0.6098-0.9147 0-3.9637-3.9637-11.281-2.1343-12.501 3.9637 0 0.3049-1.2196-0.3049-1.2196-0.6098z"/>
  <path d="m78.063 53.828c-0.6098 0-4.2686 1.8294-3.6588 3.6588 0.6098 1.2196 3.3539 1.2196 5.4882 0.3049 2.4392-0.9147 3.9637-2.4392 3.3539-3.6588 0-0.6098-2.1343-1.5245-5.1833-0.3049zm-4.2686 3.9637c-0.9147-1.5245 0.3049-3.6588 3.9637-4.8784 3.3539-1.2196 5.7931-0.3049 6.4029 0.9147 0.6098 1.5245 0 3.6588-3.9637 4.8784-1.5245 0.6098-5.4882 1.2196-6.4029-0.9147z"/>
  <path d="m111.91 43.766c-1.5245 0.9147-3.9637 2.7441-3.6588 3.6588 0.6098 1.2196 2.7441 1.2196 5.4882 0 2.1343-1.2196 3.6588-2.4392 3.049-3.6588-0.6098-0.9147-2.7441-0.9147-4.8784 0zm-0.6098-0.6098c2.7441-1.5245 5.4882-1.2196 6.098 0.3049 0.6098 1.2196 0 3.049-3.3539 4.8784-3.049 1.5245-5.7931 1.2196-6.4029-0.3049-0.6098-1.8294 1.2196-3.6588 3.6588-4.8784z"/>
  <path d="m94.222 54.743c-0.9147-0.3049-0.6098-0.9147 0.3049-0.6098 3.9637 0.9147 7.9274 0 7.9274-0.3049 0.3049-0.6098-0.91469-3.3539-3.049-5.7931-0.3049-0.6098 0-0.9147 0.6098-0.3049 1.5245 0.9147 3.3539 3.049 3.6588 5.4882 0.3049 0.9147 0.3049 1.2196-0.6098 1.8294-0.91469 0.3049-4.5735 1.2196-8.8421-0.3049z"/>
  <path d="m61.293 20.899c0.6098-0.9147 14.94-19.514 40.247-9.4519 0.6098 0 0 1.5245-0.6098 1.2196-23.782-9.147-36.893 7.0127-38.417 9.147-0.3049 0-1.5245-0.6098-1.2196-0.9147z"/>
  <path d="m59.159 47.73c1.8294 3.6588 4.8784 7.6225 8.8421 10.062 0.6098 0.3049-1.5245 0.6098-1.8294 0.6098-3.9637-2.7441-7.0127-5.7931-9.147-10.062z"/>
  <path d="m56.72 38.278c0-1.5245 0-2.7441 0.3049-4.2686h-1.8294v3.6588z"/>
  <path d="m86.6 65.414c-0.6098 0-1.2196-1.2196-0.6098-0.9147 6.4029 0.6098 21.953-2.4392 29.27-14.94 7.3176-12.806 1.2196-24.087-1.5245-27.136-0.3049-0.3049 0.6098-1.5245 0.9147-1.2196 0 0 11.586 12.806 1.8294 29.575-6.4029 10.671-20.733 15.855-29.88 14.635z"/>
  <path d="m118.61 30.046c26.221-1.2196 35.063-7.6225 35.063-10.976 0-1.5245-4.2686-2.1343-6.7078-1.8294-3.3539 0.3049-4.2686-0.3049-0.6098-2.1343 6.7078-3.3539 11.891-10.671 10.367-12.806-2.1343-3.049-22.563 3.049-41.161 20.733l-0.91469-0.6098c11.891-13.416 39.332-26.831 43.296-21.038 2.1343 2.7441-2.4392 10.367-10.367 14.635 3.049 0 7.0127 0 7.6225 2.1343 2.1343 5.7931-13.416 13.111-35.978 13.111-0.3049 0-0.91469-1.2196-0.60979-1.2196z"/>
  <path d="m17.693 47.12c-11.281-1.5245-17.684-7.0127-17.684-9.147-0.6098-5.4882 28.965-12.806 60.37 1.2196 1.2196 0.6098 1.2196 1.2196-0.3049 0.6098-36.283-12.806-58.541-4.5735-58.541-2.1343 0.3049 1.8294 6.7078 7.3176 18.904 8.5372 0.3049 0-2.4392 0.9147-2.7441 0.9147z"/>
  <path d="m10.375 53.828c-1.2196-3.3539 3.6588-6.7078 9.4519-7.6225 1.8294-0.3049 1.8294 0.3049 0.3049 0.9147-1.8294 0.6098-9.147 3.049-8.2323 6.4029 1.2196 3.9637 22.258 6.4029 47.259-6.7078 1.8294-0.9147 2.4392-0.3049 0.6098 0.9147-23.172 13.72-47.564 12.196-49.394 6.098z"/>
  <path d="m88.124 91.33c-4.5735-5.1833-4.8784-17.074-4.5735-19.818 0.3049-0.3049 1.5245 0 1.5245 0.6098-0.3049 1.8294 0 13.416 4.2686 17.989 3.6588 4.2686 9.147 6.098 14.635 5.1833 1.5245 0 1.8294 0.6098 0.3049 0.9147-7.0127 1.5245-12.806-1.2196-16.16-4.8784z"/>
  <path d="m108.86 93.465c6.098-4.2686 8.5372-13.111 5.1833-19.818-3.049-6.4029-8.5372-9.4519-12.806-10.671-0.3049-0.3049 0.3049-1.2196 0.9147-1.2196 4.2686 1.5245 10.062 4.2686 13.416 11.281 3.6588 7.3176 0.9147 17.379-6.098 21.038-0.91469 0.6098-1.5245 0-0.60979-0.6098z"/>
  <path d="m87.515 74.256c-5.7931-3.9637-16.465-7.0127-19.818-7.6225-3.3539-0.9147-5.1833-3.9637-3.6588-6.4029 1.8294-3.6588 7.9274-3.6588 13.416-1.2196 3.6588 1.5245 7.0127 3.049 10.671 7.0127 0.6098 0.9147 0.3049 1.5245-0.6098 0.6098-4.2686-3.049-7.0127-4.8784-10.671-6.4029-5.1833-2.1343-10.062-2.4392-11.586 0.3049-0.9147 1.8294-0.6098 3.6588 2.7441 4.2686 3.3539 0.6098 12.806 3.049 19.818 8.5372 1.2196 0.9147 0.9147 1.5245-0.3049 0.9147z"/>
  <path d="m120.44 109.62c-2.1343 0-4.8784-1.2196-7.6225-3.3539-5.1833-3.3539-9.147-8.8421-9.7568-10.062-0.3049-0.3049 1.2196-0.6098 1.2196-0.3049 1.2196 1.5245 4.8784 6.098 9.147 9.147 2.7441 1.8294 5.1833 3.049 6.7078 3.049 2.1343 0 2.7441-1.5245 2.4392-2.4392 0-0.91469-1.2196-2.1343-3.6588-3.3539-3.049-2.1343-7.6225-4.8784-9.4519-8.8421-0.3049-0.3049 0.9147-0.9147 1.2196-0.6098 1.8294 3.3539 6.098 6.098 9.147 8.2323 2.7441 1.5245 3.9637 2.7441 4.2686 4.2686 0.3049 1.2196-0.3049 4.2686-3.6588 4.2686z"/>
  <path d="m86.6 87.977c0.3049-2.1343 1.5245-3.9637 3.049-4.8784 2.1343-1.2196 5.1833-1.2196 8.5372 0.3049 0.9147-2.1343 3.049-6.4029 6.7078-7.9274s6.7078-0.3049 8.2323 0.6098c0-0.6098 0.6098-2.1343 1.5245-3.049l0.6098 0.9147c-1.2196 1.2196-1.2196 2.7441-1.2196 2.7441-0.3049 0.9147-0.6098 0.6098-0.9147 0.6098-0.91469-0.9147-3.9637-2.4392-7.6225-0.6098-3.9637 1.5245-6.7078 7.6225-6.7078 7.6225-0.3049 0.3049-0.3049 0.3049-0.6098 0.3049-3.3539-1.2196-6.098-1.5245-7.9274-0.6098-1.5245 0.9147-2.4392 2.4392-2.7441 4.2686 0 0.3049-0.9147 0-0.9147-0.3049z"/>
  <path d="m73.184 113.28c8.5372-7.6225 13.416-9.4519 19.514-10.367 2.4392-0.3049 2.7441 0.3049 0.3049 0.9147-6.098 1.8294-10.367 3.3539-18.904 10.671 0 0-1.2196-0.9147-0.9147-1.2196z"/>
  <path d="m68.916 113.59c-3.9637 0-7.0127 3.3539-6.7078 7.3176 0 3.6588 3.3539 6.7078 7.3176 6.7078 3.6588-0.3049 6.7078-3.6588 6.7078-7.3176-0.3049-3.9637-3.6588-7.0127-7.3176-6.7078zm0.6098 15.245c-4.8784 0.3049-8.8421-3.049-9.147-7.9274 0-5.1833 4.2686-8.5372 8.5372-8.8421 4.8784 0 8.8421 3.6588 8.8421 8.2323 0.3049 4.5735-3.3539 8.5372-8.2323 8.5372z"/>
 </g>
 <path d="m124.08 181.65s5.8505 12.087 11.126 14.324c1.0286 0.43622 2.3788 0.45682 3.3089-0.0921 4.6936-2.7706-1.2243-10.594-1.2243-10.594" fill="none" stroke="#0f141b" stroke-width="1.4174"/>
 <g stroke-width="1.6107">
  <path d="m83.669 163.43 4.2104-0.26877 6.4499 1.075 10.392 3.6729 8.4207 4.2104 7.5249 5.6437 6.1812 5.3749 2.6875 3.852 0.53749 1.3437-1.7916 0.53749-4.2999-0.44792-12.81-3.2249-9.2271-3.4938-7.6146-4.927-7.6146-7.2562-3.0458-4.4792z" fill="#8bc56c"/>
  <path d="m84.023 163.43c11.684 13.844 26.436 18.174 45.688 24.545l-0.98541 0.89583-3.2249-0.26875-12.273-2.777-11.915-4.8374-10.212-7.2562-6.4499-6.6292-1.3437-3.1354 0.31354-0.4927z" fill="#79ab5e"/>
  <path d="m84.49 164.27c-0.83442 0.94029 6.9935 11.284 19.171 16.948 11.095 5.1003 25.104 7.2502 25.386 6.7097 0.42306-0.81099-9.1121-11.255-20.736-17.318-12.435-6.4869-23.257-7.4205-23.821-6.3391zm44.264 24.88c-4.3721 0.47036-17.007-2.3379-25.67-6.169-10.954-5.3706-19.171-15.001-20.475-18.433-0.27594-1.093 0.21039-1.6506 1.1451-1.895 3.7655-0.97371 14.179 0.82226 25.262 6.6042 10.813 5.6408 19.56 14.298 21.136 17.871 0.52894 0.96372 0.37621 1.9158-1.3985 2.0216z" fill="#0f141b"/>
 </g>
</svg>
