<?xml version="1.0" encoding="UTF-8"?>
<!-- Created with Inkscape (http://www.inkscape.org/) -->
<svg version="1.1" viewBox="0 0 324.07 283.62" xmlns="http://www.w3.org/2000/svg">
 <path d="m123.53 268.85c-2.1752-4.4775-13.204-30.019-14.098-32.834l4.9551-7.9515 12.316 0.40414c0.38279 2.3023 1.9892 25.21-1.0662 42.489z" fill="#8bc56c"/>
 <path d="m157.33 181.57-9.726 7.116-11.772 32.294c-1.3416 6.4381-9.6365 32.949-15.522 46.256-3.8443 8.692-2.8157 13.304 1.0232 14.71 3.8389 1.4078 8.574-1.279 13.563-11.898 0.55812-1.1896-1.8765-2.4847-1.1198-4.3111 0.48837-1.1824 4.1161-2.719 4.6671-4.1323 6.2163-15.917 15.974-45.736 18.584-70.363z" fill="#fff"/>
 <path d="m103.81 237.17c15.352 15.225 19.829 28.784 18.679 29.681-1.152 0.89621-40.301-13.69-60.13-33.008l15.978-5.778z" fill="#fff"/>
 <path d="m133.74 267.36c-0.36135-1.3291 5.2449-11.003 32.239-19.702 26.996-8.6992 44.906-2.6868 45.034-1.4078 0.1288 1.2808-6.0946 13.2-32.752 21.239-24.178 7.2914-44.138 1.279-44.521-0.12881" fill="#8bc56c"/>
 <g fill="#f2984f">
  <path d="m227.94 128.1c3.6135-0.18053 26.382-8.4935 38.67-29.995 14.495-25.364 6.6456-57.283-10.991-64.529-19.574-8.0534-48.387 0.69941-63.626 21.894-13.458 18.719-21.718 44.283-22.781 53.839l9.0552 22.738 28.967 4.3022z"/>
  <path d="m180.06 80.57c2.1216-8.1643 1.4383-14.246-0.9427-18.733-8.1572-15.379-34.621-15.969-64.662-3.2163-31.477 13.354-47.358 36.065-41.369 53.573 2.3488 6.8656 8.6741 9.7564 13.191 11.924 0 0 30.489 14.44 57.868 4.7673 33.35-11.785 35.915-48.315 35.915-48.315"/>
  <path d="m36.04 201.46c-19.155 0.36155-26.743-3.9749-29.634-6.6868-5.4238-5.0839-7.6634-13.917 3.0715-32.525 8.1303-14.094 27.285-31.623 51.319-36.321 24.033-4.6993 41.741-0.542 56.195 3.6135l-10.132 37.489z"/>
 </g>
 <g fill="#ffe792">
  <path d="m75.073 67.831c0 6.456-5.6438 12.298-13.046 12.298-7.4041 0-13.03-5.9426-13.03-12.298 0-6.3576 5.6456-12.298 13.048-12.298 7.4005 0 13.028 5.8406 13.028 12.298"/>
  <path d="m33.089 122.81c0 6.4559-5.6438 12.298-13.046 12.298-7.4041 0-13.03-5.9425-13.03-12.298 0-6.3576 5.6456-12.298 13.048-12.298 7.4005 0 13.028 5.8406 13.028 12.298"/>
  <path d="m204.81 130.09c-18.071-6.3235-35.598-20.781-35.598-20.781-2.8908 3.0714-17.166 7.7707-21.863 9.0355-4.6993 1.2647-30.359 11.204-30.359 11.204-2.347 1.8068-12.826 9.5775-22.042 32.346 0 0 41.519 11.905 60.857 7.3808 19.337-4.5258 49.006-39.185 49.006-39.185"/>
 </g>
 <g>
  <path d="m198.49 131.17c-17.939 2.6224-38.852 18.404-44.101 30.357-5.2986 12.069-0.69946 29.648 9.9496 38.852 11.601 10.026 39.331 10.937 63.966-1.6279 43.308-22.089 51.778-36.126 49.873-50.415-2.3004-17.253-20.903-25.758-79.688-17.166" fill="#f2984f"/>
  <path d="m154.76 187.01c-8.0677 24.196-21.151 39.834-40.476 47.886-8.6741 3.6135-31.081 2.1681-43.911 0.36155-34.162-4.812-36.187-17.674-36.321-24.575-0.21464-11.094 14.275-29.815 49.15-44.453 34.596-14.52 60.356-7.0463 69.207-1.084l2.5723 11.123z" fill="#f2984f"/>
  <path d="m266.12 143.01c0 7.4255-7.2931 11.933-13.044 11.933-6.0106 0-13.028-4.9014-13.028-11.933 0-6.744 5.6438-12.3 13.044-12.3 7.4023 0 13.028 5.4507 13.028 12.3" fill="#ffe792"/>
 </g>
 <g fill="#79ab5e">
  <path d="m126.05 249.98c-3.2199-6.8442-15.703-12.077-15.703-12.077l3.2217 9.6616s7.4112 11.746 7.6509 14.896c0.23792 3.152 4.8299-12.481 4.8299-12.481"/>
  <path d="m200.13 257.23c-35.428-14.091-65.624 9.2591-65.624 9.2591s-1.7745 1.2772 4.9587 2.9874c6.7315 1.7101 20.345 2.5044 32.806-0.21297 12.461-2.7173 27.86-12.034 27.86-12.034"/>
  <path d="m122.47 266.48c-29.495-7.4792-59.737-31.738-59.737-31.738l26.502 3.3129 15.815-0.53485s19.94 24.087 17.42 28.96"/>
  <path d="m154.85 187.72c-5.7708 18.914-19.014 33.255-19.014 33.255-1.2254 5.8871-8.2627 28.541-13.957 42.555-0.18067 0.44723 1.0107 1.9588 0.83182 2.3899-0.34704 0.83185-2.0625 0.55636-2.3971 1.3112-3.846 8.6938-2.8157 13.304 1.0214 14.712 3.8389 1.4078 8.574-1.2808 13.563-11.898 0.55633-1.1842-1.4991-2.4972-0.74775-4.3111 0.56349-1.3577 3.8961-3.0893 4.5401-4.753 6.2234-16.064 15.765-45.431 18.341-69.742z"/>
 </g>
 <g fill="#dbc77f">
  <path d="m32.576 123.32c-12.549 11.281-25.098 0-25.098 0s0.0055 11.345 12.69 12.127c11.42 0.70479 12.407-12.127 12.407-12.127"/>
  <path d="m74.455 68.043c-12.549 11.281-25.098 0-25.098 0s0.0061 11.345 12.69 12.127c11.422 0.70483 12.407-12.127 12.407-12.127"/>
  <path d="m265.72 143.03c-12.549 11.281-25.099 0-25.099 0s5e-3 11.345 12.69 12.127c11.424 0.70483 12.409-12.127 12.409-12.127"/>
  <path d="m109.89 157.51c-11.461-0.44014-10.359-4.4077-10.799-5.7315l-3.5258 10.139z"/>
  <path d="m158.59 154.43c-7.7135 6.3916-15.42 5.295-21.597 3.9677 0 0 11.899 3.9659 15.205 6.8316z"/>
 </g>
 <g fill="#d18344">
  <path d="m39.999 195c-25.298 2.9516-38.181-7.7726-37.95-9.8297 0 0-3.431 16.232 33.834 16.688z"/>
  <path d="m153.39 183.34s-8.8351 21.724-22.862 33.838c-15.089 13.03-27.434 14.86-48.467 13.03-43.902-3.8174-47.097-13.946-48.011-16.232 0 0 1.3864 11.148 15.774 17.146 14.388 5.9998 53.041 7.5453 62.186 5.2592s24.151-12.951 32.006-25.835c7.8566-12.883 10.826-22.826 10.826-22.826z"/>
  <path d="m126.42 125.04c-34.292 2.0572-52.812-11.66-54.869-16.69 0 0 3.8872 10.975 13.032 15.091 0 0 21.033 0.91229 30.634 6.1715z"/>
  <path d="m270.45 90.897c-3.7977 7.9103-41.135 40.501-74.042 35.439l7.912 3.4811s15.22-2.3022 26.212-1.8783c0 0 16.819-6.3486 27.262-17.107 10.442-10.758 12.656-19.935 12.656-19.935"/>
  <path d="m278.96 155.91c-5.5938 9.0123-21.752 22.684-49.719 35.115-27.967 12.429-48.165 11.186-59.973 5.9032-11.81-5.2825-18.196-25.806-16.781-30.14 0 0-0.77279 10.594 2.1752 19.887 2.9463 9.2931 10.874 18.336 27.035 21.132 16.159 2.796 42.661-4.7906 53.136-10.878 10.477-6.0874 34.518-21.003 39.154-29.831 4.6367-8.8262 4.973-11.188 4.973-11.188"/>
 </g>
 <g>
  <path d="m141.1 259.12c5.9211-15.627 14.311-41.805 16.767-65.232 0.0892-0.84966-1.9087-3.3988-1.9767-2.7727-2.7083 25.559-13.021 56.207-19.023 71.347z"/>
  <path d="m119.04 266.55c-2.4972 5.6492-3.0786 10.508-1.8443 13.416 1.5384 3.6278 6.3969 4.3988 9.2233 3.0196 4.1555-2.0286 7.6402-7.617 10.662-14.053l-2.2951-1.499c-1.3076 3.7655-5.6778 11.42-9.438 13.191-2.3094 1.0858-4.8746 0.53845-5.8889-1.8443-0.67261-1.5849-0.82823-4.9176 1.9552-11.207z"/>
  <path d="m122.69 264.56c5.7923-14.137 13.386-38.539 14.701-44.846 0.1288-0.61716-3.3738 1.0268-3.5008 1.6422-1.1985 5.7565-7.3253 26.282-12.676 39.959z"/>
  <path d="m120.45 267.63c-6.4309-1.5527-21.454-8.1303-21.634-8.218-11.168-5.3522-27.087-14.075-37.743-24.457-0.45079-0.43811 3.329-0.72629 3.9856-0.13437 18.323 16.584 55.673 31.459 56.394 30.79 0.71732-0.66721-5.3022-14.592-18.45-27.631-0.4472-0.44167 1.8908-2.0912 2.3398-1.6476 12.001 11.903 17.048 23.18 18.225 28.246 0.87654 3.7727-1.1592 3.524-3.1162 3.0518"/>
  <path d="m115.42 252.27c-1.9588-4.0321-5.515-11.502-6.7654-15.012-0.12168-0.33822 2.4024-1.1896 2.5777-0.70661 1.3059 3.5706 4.0196 10.996 5.8835 14.831 0.27549 0.56706-1.4991 1.2934-1.6958 0.88727"/>
  <path d="m126.04 250.15c0.92484-5.4328 0.041-17.686-0.38639-20.999-0.0248-0.19523 2.4686-2.4418 2.5724-1.8211 0.33092 1.991 0.73521 11.282 0.50444 17.665-0.059 1.5849-2.796 5.7762-2.6904 5.1555"/>
  <path d="m134.96 266.91c0.24329 1.4955 22.343 5.7118 42.974-0.50803 23.618-7.1232 32.219-18.776 31.818-19.742-0.34886-0.84078-17.667-6.2127-43.421 2.0858-23.695 7.6384-31.613 16.668-31.371 18.164m0.15384 2.5294c-2.4114-0.95522-3.3738-1.9981-1.3327-4.9569 2.9391-4.2592 11.704-11.796 31.734-18.252 23.763-7.6598 40.911-3.5795 44.736-1.8246 2.5616 1.1752 1.6797 3.0285 1.254 3.8425-2.3434 4.4828-11.145 14.182-32.686 20.677-22.044 6.6492-40.094 1.9427-43.705 0.51341"/>
  <path d="m139.2 122.36c-8.5364 3.1287-20.171 7.6241-21.64 8.1912-10.42 7.9962-17.472 21.69-21.552 31.77-0.1789 0.44167-2.3398-0.26824-2.1144-0.85685 6.8942-17.91 18.541-31.809 22.048-33.342 2.4632-1.0786 14.533-5.6366 23.119-8.692z"/>
 </g>
 <path d="m154.64 117.26c5.2181-1.7692 11.763-4.2789 14.611-6.4631 3.914 3.4453 18.602 15.794 35.188 20.371 0.60641 0.16632 1.347-1.9463 0.75311-2.1538-17.663-6.1823-35.076-20.441-35.249-20.584-0.46347-0.38285-1.1431-0.33974-1.5563 0.0964-1.6708 1.7764-8.3056 4.2414-14.225 6.1304z"/>
 <g>
  <path d="m70.249 237.42c-33.079-4.6582-37.63-17.654-37.798-26.448-0.23615-12.148 15.137-32.19 49.9-46.782 28.452-11.941 58.782-8.6223 71.38-0.13437 0.52416 0.35242-0.74772 2.6064-1.2718 2.2557-8.6724-5.8424-34.756-13.327-68.815 0.97135-33.595 14.1-48.666 32.369-48.453 43.378 0.09832 5.0714 0.35956 18.541 35.341 23.468 12.806 1.8032 34.909 3.2182 43.313-0.28446 18.831-7.8459 31.861-23.284 39.832-47.193 0.19877-0.59749 2.3631 0.12322 2.1627 0.72091-8.1912 24.575-21.606 41.496-41.085 49.61-9.8423 4.1037-34.629 1.83-44.507 0.43811"/>
  <path d="m237.66 128.93c-10.572 0-23.697 1.1342-39.009 3.372-17.869 2.6135-38.255 18.377-43.22 29.688-5.0374 11.47-0.61712 28.657 9.6473 37.53 10.579 9.1428 37.061 10.188 62.705-1.7799 42.78-19.964 51.07-35.691 49.263-49.249-1.1216-8.3969-6.4237-19.561-39.385-19.561m-74.731 72.679c-11.288-9.4666-15.187-28.235-9.692-40.752 5.3021-12.084 26.248-28.575 45.12-31.335 15.42-2.254 28.693-3.3416 39.374-3.3416 26.452 0 40.444 7.134 42.405 21.829 2.6762 20.074-17.617 37.738-50.474 52.728-24.797 11.313-53.154 12.257-66.733 0.87116"/>
  <path d="m227.01 127.1c3.6528-0.18407 26.822-8.9424 38.607-29.568 13.309-23.293 7.5096-55.535-10.433-62.91-19.919-8.1947-47.852 1.4543-62.266 21.506-13.749 19.121-21.602 44.55-22.573 53.299-0.0715 0.62787-2.338 0.37574-2.2665-0.25049 0.99463-8.9532 8.1411-35.137 22.037-54.664 16.806-23.622 45.539-31.351 65.966-22.931 19.355 7.9801 27.078 41.065 12.372 66.799-9.7117 16.996-25.005 25.717-35.271 29.425-2.4775 0.89442-6.8012-0.67265-6.1715-0.70485"/>
  <path d="m117.41 58.627c-40.212 16.101-59.69 52.701-29.69 64.978 0 0-4.8478 0.14858-5.998-0.52953-26.335-15.525-3.4543-51.646 32.215-66.78z"/>
 </g>
 <path d="m138.9 48.815c24.278-4.1287 43.789 2.5348 43.564 22.504-0.0355 2.9301-2.8819 6.2878-2.6815 5.0178 3.0822-19.47-13.751-30.505-43.689-23.69z"/>
 <g>
  <path d="m35.093 202.72c-30.911 1.0018-45.109-11.023-27.282-41.925 8.6366-14.971 28.942-32.351 52.936-37.042 24.207-4.7351 43.682 0.31287 57.569 4.88 0.59748 0.19675-2.8496 1.66-3.4614 1.4883-14.137-3.9748-31.115-7.515-53.839-3.0732-23.291 4.5526-42.172 21.246-50.549 35.772-13.543 23.475-9.9138 38.272 25.629 37.398 1.2898-0.0303 0.32377 2.5026-1.0018 2.5026"/>
  <path d="m62.044 56.672c-6.4542 0-11.907 5.1108-11.907 11.159s5.4435 11.159 11.889 11.159c6.4542 0 11.905-5.1108 11.905-11.159s-5.4435-11.159-11.887-11.159m-0.09476 24.928c-8.0463 0-14.093-5.9372-14.093-13.769 0-8.1125 6.8656-13.837 14.221-13.837 8.7511 0 14.134 6.4256 14.134 13.837 0 7.6939-6.3254 13.769-14.263 13.769"/>
  <path d="m20.061 111.65c-6.4542 0-11.907 5.1108-11.907 11.159s5.4435 11.159 11.889 11.159c6.4542 0 11.905-5.1108 11.905-11.159s-5.4435-11.159-11.887-11.159m-0.068 24.912c-7.9461 0-14.119-5.685-14.119-13.753 0-8.1661 6.8746-13.855 14.119-13.855 9.0212 0 14.236 6.5704 14.236 13.855 0 8.2592-6.3844 13.753-14.236 13.753"/>
  <path d="m126.81 127.24c-12.3-25.323-31.604-44.378-57.971-53.721-3.2199-1.1431-2.5545-2.2862 0.72627-1.2862 25.253 7.6992 47.125 26.164 58.698 54.225 1.0465 2.5384-0.26474 3.2289-1.4525 0.78176"/>
  <path d="m106.99 150.62c-30.115-29.82-67.905-25.609-78.239-25.318-2.7191 0.0787-2.7208-0.87116 0-1.3273 10.828-1.8192 51.519-5.905 79.271 25.389 2.5634 2.889 1.6636 3.9265-1.0322 1.2558"/>
  <path d="m253.1 131.85c-6.6742 0-11.903 4.9033-11.903 11.161 0 6.1769 6.2771 10.792 11.887 10.792 4.8657 0 11.905-3.8424 11.905-10.792 0-6.2574-5.2216-11.161-11.889-11.161m0.0735 24.502c-6.8674 0-14.257-5.0302-14.257-13.341 0-7.5597 5.6707-13.787 14.157-13.787 7.9461 0 14.196 6.2502 14.196 13.787 0 7.583-6.6384 13.341-14.096 13.341"/>
  <path d="m245.8 132.77c-10.397-12.746-31.976-15.039-60.343-4.5598-2.5992 0.96065-2.3846 2.1091 0.23274 1.2773 26.459-8.4022 47.701-6.7798 58.098 4.6242z"/>
  <path d="m144.55 57.997c-8.9299 4.041-21.053 7.0356-31.049 7.2306-10.846 0.21297-28.078-3.2807-28.924-10.331-0.63683-5.3165 9.5704-6.4703 9.5704-6.4703-11.697-1.7012-20.897-8.8924-20.559-12.76 0.42397-4.8907 19.727-10.493 42.297-7.506 23.851 3.1555 34.088 8.2806 36.215 9.5578l1.084 9.6992z" fill="#fffdf7"/>
  <path d="m169.74 138.26c-5.8334-8.7868-15.944-5.4435-15.944-5.4435-0.38842-9.1768-7.3111-14.622-14.076-16.567-5.549-1.5939-11.509 0.73161-14.572 6.3146-2.6189 9.7045 0.86939 19.727 5.2181 24.441-6.8674 5.1626-16.697 5.5687-22.566 4.9909-4.5312-0.44876-6.7475 1.093-7.5561 3.651-0.74596 2.3595-0.16638 8.184 9.1231 8.9926 8.1572 0.71016 21.611-1.4883 31.24-9.4219 2.2396 1.4991 14.261 6.7278 25.972 0.40262 0.60463-0.32757 1.1824-0.68512 1.7548-1.0518 2.2611-3.0088 5.8209-9.6562 1.4061-16.309" fill="#8bc56c"/>
  <path d="m216.02 28.039c-29.058-15.89-58.912 3.9605-58.912 3.9605-3.7834 3.0267-14.754 17.906-12.359 36.568 1.9749 15.382 10.889 25.879 14.527 29.589-4.7548-1.8657-15.592-7.8334-23.209-13.656-6.193-4.7351-8.3468-3.5043-9.5936-2.0393-1.796 2.1091-2.4239 6.8209 2.2092 11.461 5.0106 5.0231 11.461 9.1714 13.329 10.021-2.787 1.3989-5.3397 3.0553-8.1482 5.3684-4.7494 3.914-7.4506 8.5471-8.7206 13.254 3.0625-5.583 9.0248-7.9085 14.572-6.3147 6.7672 1.9445 13.688 7.3898 14.078 16.567 0 0 10.111-3.3434 15.942 5.4435 4.4149 6.6527 0.85687 13.3-1.4042 16.309 10.517-6.7118 15.669-19.572 16.946-24.548 3.3594 3.1627 7.5185 6.3058 13.96 8.9854 10.611 4.4149 14.302 0.57422 15.792-2.7173 2.0357-4.499-2.3077-6.481-6.8781-8.4058-10.17-4.2825-16.522-9.7976-21.253-14.116-0.0949-0.0203-0.18762-0.0355-0.28446-0.0594l0.28243 0.0553c1e-3 0 1e-3 1e-3 1e-3 4e-3 32.471 7.1286 49.532-12.801 52.172-15.694l9.1857-25.314s-3.177-28.831-32.235-44.721" fill="#fffdf7"/>
  <path d="m171.15 11.034c-3.6815-1.7405-8.4344-1.8533-13.007 1.0214-6.5043 4.0875-8.7242 11.565-5.7887 16.232 2.932 4.6653 10.617 5.9193 17.119 1.8318 2.2521-1.4132 3.6135-3.5294 4.8066-5.49 2.762 3.0661 6.7905 4.8549 11.409 4.5634 4.3111-0.2718 8.6348-2.3863 11.052-5.7834-0.30222 6.8709 3.3881 12.427 9.5202 15.161 5.1143 2.2808 10.719 1.4793 14.762-1.2039-1.3702 5.5508 0.50985 11.973 6.1823 15.413 4.0715 2.4686 8.896 2.6797 12.976 1.245-0.97491 2.0554-1.5402 4.4739-1.5116 7.0946 0.0517 4.88 2.1072 9.0123 5.0302 11.409l3.8782 2.1788 5.0964-0.54379c4.3505-1.7048 7.7368-6.8746 7.667-13.261-0.0842-7.8047-5.7476-14.584-12.415-13.488 3.3255-6.3951 0.66904-14.372-5.2878-17.985-5.1876-3.1448-11.527-2.7924-15.998 0.01524 1.3202-6.3039-1.9409-13.803-8.7779-16.853-6.9658-3.1037-15.06-0.5635-18.772 4.7852 1.6511-8.2413-5.7351-16.465-15.127-15.872-6.168 0.38792-10.966 4.626-12.674 9.8047" fill="#ffe792"/>
  <path d="m162.6 59.266c-0.43304 3.2056-4.5025 5.0696-9.692 4.3702-4.8084-0.64758-8.2806-3.2521-7.9926-6.7225 0.18762-2.2504 2.2826-5.1465 9.0104-4.4095 5.7494 0.62969 9.0194 4.1948 8.6741 6.7619" fill="#e9545d"/>
  <path d="m219.22 90.783c-1.8533 2.4954-7.7726 2.2826-12.407-1.1395-3.905-2.8836-7.4166-8.6992-4.5616-12.266 1.923-2.4024 7.5114-2.6081 12.835 1.5688 4.6331 3.6385 6.32 8.8942 4.134 11.837" fill="#e9545d"/>
  <path d="m231.96 89.261c5.7405 7.8674 18.928 23.18 31.688 33.176 12.76 9.9943 31.688 17.227 36.154 13.398 5.9372-5.0893-4.6797-16.59-4.6797-16.59 3.6153 3.1913 24.246 12.975 27.436 7.8692 3.1895-5.1036-8.2949-27.008-31.262-39.344-22.969-12.336-41.26-14.248-54.871-15.949z" fill="#fffdf7"/>
 </g>
 <g fill="#dcdbd6">
  <path d="m302.38 130.22c-3.2772 4.05-8.8745 2.49-11.953 1.5437-23.81-7.3253-56.388-39.95-58.528-42.491 0 0 15.502 21.847 34.718 35.165 16.212 11.236 27.242 14.166 32.294 12.338 3.7602-1.3631 3.4686-6.5561 3.4686-6.5561"/>
  <path d="m322.88 127.43c-5.0893 0.74774-20.529-7.2288-24.692-9.726-2.245-1.347-4.4882-0.29867-2.5437 2.0947 1.9463 2.3953 11.799 6.3486 16.609 7.7815 7.0338 2.0947 10.626-0.1501 10.626-0.1501"/>
  <path d="m73.927 35.565c0 1.576 9.0409 7.8584 20.303 9.7349 2.7817 0.46346 1.9481 2.5956 0.37209 2.7817 0 0-8.0946-0.64937-14.093-4.7279-6.9533-4.728-6.583-7.7887-6.583-7.7887"/>
  <path d="m231.9 89.27c-39.906 25.62-80.166-0.49033-83.357-7.2717 0 0 4.2897 11.343 12.248 17.57 0 0 11.647-0.22919 20.643 9.4558l6.6885 5.651s16.491 2.5366 27.908-0.9213c11.416-3.4614 22.718-15.109 22.718-15.109z"/>
  <path d="m179.23 124.26s-1.4204 7.0964-9.0802 14.318c1.5616 2.3398 3.1502 7.1017-0.55098 15.216 0.0506-0.0406 0.10189-0.0735 0.15212-0.11258 11.347-8.9013 15.062-23.377 15.062-23.377z"/>
 </g>
 <g>
  <path d="m170.14 138.58c-5.2467 4.9426-13.416 9.9442-26.06 12.763l-3.0965 4.3952s17.257 6.7815 28.606-1.9427c3.7011-8.1142 2.1126-12.876 0.55094-15.216" fill="#79ab5e"/>
  <path d="m247.86 47.332s11.737-0.14148 12.302 12.726c0 0 1.6958 10.604-7.3522 13.856l-9.0516-1.2719c-7.9174-7.2126-3.8156-18.1-3.8156-18.1-18.522 2.2647-19.1-12.422-19.1-12.422 0.36509 3.2933 17.935 12.445 28.55-2.9284 0 0 0.30577 5.5937-1.533 8.1393" fill="#dbc77f"/>
  <path d="m159.28 98.156c-4.7548-1.8658-15.592-7.8352-23.207-13.658-6.1948-4.7351-8.3486-3.5026-9.5954-2.0375-1.7942 2.1091-2.4239 6.8209 2.2092 11.461 5.0106 5.0213 11.461 9.1714 13.331 10.019 0 0 5.4148-4.8567 18.769-4.3737z" fill="#fffdf7"/>
  <path d="m136.88 31.708c-12.425 24.391-42.398 30.122-42.398 30.122s21.169 9.8208 49.381-4.0052c0 0 3.3434-14.66 8.2323-20.107z" fill="#dcdbd6"/>
 </g>
 <path d="m215.43 134.85c-6.5544 4.6277-22.557-0.19319-27.763-3.4704 0 0 9.6687 8.7922 19.28 10.025 7.5185 0.96417 8.4827-6.5544 8.4827-6.5544" fill="#fff"/>
 <g>
  <path d="m100.23 158.71c10.297 4.5329 29.069-0.11111 40.249-8.0498 1.5939-1.1324 5.5186-0.90341 3.4936 1.4525-6.1644 7.1733-13.994 10.504-21.132 11.991-4.0249 0.83895-12.493 2.3488-17.021 0.42036-4.5294-1.9284-5.5902-5.8137-5.5902-5.8137" fill="#79ab5e"/>
  <path d="m159.49 33.792c-6.4667-0.80498-11.599-6.651-8.9979-14.354 3.0357-8.9925 13.679-12.69 21.012-8.9443 0.49389 0.25202-0.29157 1.6887-0.79423 1.449-6.3737-3.016-15.45 0.61356-18.057 8.3342-2.0697 6.1286 1.4257 10.513 7.0374 11.211 4.4882 0.55815 9.9424-1.0554 13.722-7.2681 0.28954-0.47563 2.0089 0.57067 1.7191 1.0447-4.0035 6.5812-9.9746 9.2341-15.642 8.5274"/>
  <path d="m243.06 73.306c-5.0696-4.1591-7.4828-10.749-4.1394-18.924 0.11111-0.26824 2.4883-0.6744 2.2414-0.17697-2.7459 5.5132-1.4222 14.28 3.6385 18.076 0.44521 0.33264-1.5528 1.1788-1.7406 1.025"/>
  <path d="m252.31 73.225c4.1984-1.6458 7.0874-6.7082 7.0284-12.311-0.0968-8.7922-6.7565-13.254-11.246-12.508-0.54384 0.08923 0.15212-2.0554 0.38994-2.0751 5.7297-0.50799 13.268 4.8532 13.373 14.492 0.0699 6.5222-3.7727 12.302-8.8119 14.275-0.11971 0.05076-1.2504-1.669-0.7334-1.8729"/>
  <path d="m245.98 49.133c4.4202-5.9283 2.3791-15.055-3.8658-18.844-4.6117-2.796-10.479-2.7942-14.94 0.0049-0.98211 0.61538-1.898 0.73343-1.5206-1.059 1.3184-6.2914-2.2092-13.053-8.2019-15.726-6.1894-2.7602-13.892-0.80859-17.536 4.4381-1.2719 1.83-2.2111 1.2093-1.8139-0.771 1.5599-7.7958-5.7082-15.198-14.075-14.67-6.871 0.43304-12.314 6.6527-12.57 12.717-0.10902 2.592-1.3345 2.4453-1.4042-0.15567-0.2145-8.0195 5.871-14.542 13.781-15.039 8.8727-0.54379 16.15 6.8996 16.481 14.431 4.7387-4.592 12.17-6.0553 18.207-3.3648 6.2002 2.7673 10.245 9.9531 9.3825 16.525 4.7619-2.4114 10.878-2.3005 15.538 0.52234 6.9998 4.2485 9.6294 14.534 3.5795 21.924-1.5778 1.932-2.5312 1.0644-1.0411-0.93556"/>
  <path d="m226.27 54.115c-4.9551-3.0053-7.2037-9.0588-6.6062-14.824-4.3111 2.4775-9.8154 2.6815-14.228 0.7137-5.8174-2.5938-9.0266-8.048-9.6312-14.023-2.2056 2.3344-6.0982 4.363-9.9084 4.6045-5.4166 0.34532-11.007-2.66-13.44-7.4005-1.0143-1.9803-0.17697-2.2987 1.1556-0.53487 2.9266 3.8746 7.3397 5.837 12.012 5.5383 4.1859-0.2647 8.1304-2.3202 10.295-5.363 1.4436-2.0375 1.8801-0.69231 1.8246 0.62609-0.27737 6.2771 3.0589 11.585 8.9246 14.198 4.4686 1.9928 9.7546 1.5635 13.796-1.1216 1.4025-0.92486 1.8712-0.2789 1.533 1.0804-1.1592 4.6904 0.16277 10.937 5.7279 14.309 3.812 2.313 8.7493 2.6797 12.955 1.2773 1.6744-0.55992 2.1073 0.20943 0.61894 1.1538-3.7924 2.4078-10.068 2.7745-15.028-0.23427"/>
  <path d="m145.72 56.98c-0.24137 2.8855 2.6904 5.2378 7.2967 5.8585 4.9408 0.66548 8.4631-1.2719 8.7851-3.6796 0.19116-1.4025-1.7835-5.1787-7.964-5.8549-0.16987-0.02028-7.7261-1.0358-8.1178 3.676m7.0391 7.6599c-5.5132-0.74419-8.9621-3.9963-8.6455-7.794 0.179-2.1395 2.0393-6.2109 9.8995-5.3451 6.7905 0.74236 9.7242 5.354 9.3861 7.8727-0.43659 3.2342-4.4668 6.0946-10.64 5.2664"/>
  <path d="m202.88 77.88c-2.2987 2.8693 0.34329 8.1106 4.4131 11.114 4.2843 3.1645 9.76 3.3541 11.282 1.3094 1.9642-2.6475 0.17697-7.4577-3.9873-10.722-4.608-3.6171-9.9245-3.9319-11.708-1.7012m3.3863 12.622c-3.8764-2.8604-7.9872-9.4433-4.6438-13.627 2.1716-2.7155 8.3772-3.1985 14.105 1.2987 4.9265 3.8657 6.6617 9.6938 4.1394 13.089-2.3667 3.1877-9.0963 2.5688-13.601-0.76026"/>
  <path d="m205.62 68.535c2.2593-4.5097 3.186-11.035-0.62608-13.009-4.8514-2.5098-9.7528 4.7709-11.35 6.8763-1.2701 1.6708-2.177 1.0232-1.0894-0.79962 1.7281-2.8854 7.0105-11.153 13.365-7.8638 5.413 2.8013 3.6564 10.73 0.93555 15.375-1.4042 2.3953-2.4186 1.787-1.2343-0.57959"/>
  <path d="m175.72 54.635c1.2486-2.5312 3.0393-8.9961-0.39551-10.49-4.3934-1.9051-8.3522 4.3577-10.13 6.6796-1.5849 2.0733-2.3004 1.3255-1.0876-0.83359 2.406-4.2825 6.8388-9.9424 12.019-7.6921 4.7226 2.0501 3.2253 9.2126 0.79068 13.026-1.297 2.0322-2.1091 1.1663-1.1967-0.69048"/>
  <path d="m182.7 76.603c-7.2645-0.31286-12.747-3.3129-14.887-5.9658-1.0948-1.356-1.1717-2.2611-0.29511-3.4364 1.8318-2.4561 6.4774-6.227 9.0963-7.7189 2.2647-1.2897 2.6064-0.33112 0.54916 1.2576-3.1018 2.3953-8.1661 7.0176-8.2251 7.9854-0.0608 0.96598 5.0446 5.5222 13.998 6.4649 2.7638 0.29005 2.6457 1.5384-0.23629 1.4132"/>
  <path d="m158.57 99.336c-24.878-25.082-15.005-55.943-2.3237-68.094 0.12525-0.11971 2.2289 1.2755 1.7048 1.8014-14.257 14.304-18.779 44.278 4.0231 65.873 0.53841 0.51164-2.6654 1.1664-3.4042 0.42036"/>
  <path d="m188.67 115.21c-0.83719-0.1932-3.9444-3.2915-3.2253-3.1144 27.861 6.8513 45.002-6.4828 52.415-14.679l1.6798 1.5814c-15.881 18.681-37.637 19.253-50.87 16.212"/>
  <path d="m231.88 90.868c-2.0196-2.719-0.39703-3.7727 1.6117-1.1341 25.108 33.008 48.784 43.669 59.699 45.675 4.5652 0.83718 8.302-0.068 6.7297-5.7136-0.54202-1.9534-1.5849-4.0803-2.8192-6.0088-4.1287-6.4434-2.0644-5.4685 2.0286-3.041 7.5722 4.4882 21.105 8.4434 22.615 6.0249 1.5241-2.4382-9.1285-43.918-83.36-53.703-4.3182-0.57062-4.3236-2.1412 0.0588-1.7316 71.889 6.7297 89.332 50.143 85.02 56.59-3.211 4.8048-16.808-0.18964-23.208-3.889 1.0214 1.7048 1.7745 3.4185 2.1806 5.0624 2.0053 8.0695-3.4811 9.8387-9.6598 8.9568-12.01-1.7173-35.419-12.799-60.896-47.088"/>
  <path d="m83.246 55.057c-0.34528-2.5867 2.3327-5.0517 5.6528-6.4094-9.497-2.8479-17.008-8.9639-16.647-13.098 0.59031-6.8209 22.005-11.767 43.721-8.8942 25.035 3.3129 34.822 9.2734 36.564 10.318 0.63324 0.38082-0.49389 2.2754-1.127 1.8962-1.0179-0.61178-10.672-6.0678-35.7-9.3789-24.867-3.2897-40.909 3.601-41.136 6.193-0.22179 2.5616 6.998 8.6205 16.935 10.887 5.2556 1.1985 5.1877 1.8801 0.13057 3.372-3.4113 1.0053-6.2234 3.3344-6.0374 4.8925 0.5009 4.1645 25.232 16.944 58.395 1.9391 0.6762-0.30425 1.6046 1.8837 0.93019 2.1878-34.239 15.488-60.714 3.3541-61.681-3.9051"/>
  <path d="m140.52 156.3c-0.63147-0.38843 0.78352-2.2057 1.4257-1.8318 0.11455 0.068 12.046 6.4345 23.994-0.0203 10.721-5.7923 16.618-18.899 18.126-24.781 0.18255-0.71554 2.4042 0.1643 2.2182 0.88191-1.7262 6.7368-7.5597 20.235-19.076 26.455-8.93 4.8263-20.25 3.2539-26.688-0.703"/>
  <path d="m109.16 166.53c-5.4596-0.47564-8.5131-3.0053-9.6687-4.7351-2.9373-4.3952-0.90337-12.109 8.286-11.445 5.3361 0.38436 18.88 1.118 26.963-7.989 1.7692-1.9946 3.0053-0.89443 1.2003 1.1574-8.9317 10.152-21.98 9.9889-28.258 9.6168-6.9318-0.41123-7.3969 4.4149-5.6635 7.0105 1.2594 1.8855 3.8335 3.0464 7.4416 3.3612 7.243 0.63324 23.568-0.88905 33.684-11.874 1.7388-1.8837 2.7727-0.85686 1.1574 1.2003-7.4506 9.4881-22.303 14.815-35.142 13.697"/>
  <path d="m141.54 104.98c-1.8515-0.84073-8.5471-4.7279-13.805-9.9925-5.2807-5.2932-4.2861-11.062-2.3058-13.39 2.3738-2.7888 6.1036-2.4543 11.445 1.6279 7.7779 5.9461 17.937 11.889 22.364 13.626 0.58673 0.23072-0.2505 2.3506-0.83359 2.1234-4.5526-1.7871-15.085-7.4971-23.031-13.57-5.9998-4.5901-7.3736-2.9784-8.0302-2.2056-1.4364 1.6851-2.0482 5.7172 2.1448 9.9192 4.9784 4.9873 11.313 9.0212 12.994 9.785 0.57421 0.26114-0.79067 2.1466-0.94273 2.0768"/>
  <path d="m198.9 140.25c-9.5793-3.9856-15-10.211-18.602-14.035-2.9051-3.0876-1.8962-4.0339 1.2039-1.1217 4.0696 3.8192 9.0498 9.0605 18.182 12.858 7.4541 3.1001 12.272 2.3845 14.314-2.1323 1.4185-3.1323-0.83187-4.5902-6.2807-6.8853-11.023-4.6421-18.783-11.731-26.423-19.123-1.8407-1.7817-0.91766-2.889 1.0787-1.1216 5.8156 5.1501 15.669 13.45 26.328 17.94 5.1537 2.1699 9.9442 4.8961 7.5561 10.173-3.5222 7.7779-12.329 5.5383-17.357 3.4471"/>
  <path d="m167.66 154.08c2.0644-2.762 5.6134-9.0337 1.406-15.373-5.4148-8.159-14.633-5.2539-15.021-5.1251-0.50455 0.16633-1.0232 0.0305-1.0572-0.72988-0.37727-8.9174-7.218-14.023-13.493-15.826-5.9927-1.7209-11.019 1.5795-13.153 5.3755-0.21824 0.38792-0.60105-2.0733-0.0948-2.6779 2.8675-3.4418 7.9443-6.3111 13.754-4.6421 6.583 1.8926 14.005 7.4917 14.529 16.719 2.8443-0.80676 11.087-1.7441 16.094 5.7959 3.3917 5.1108 2.4829 11.035-0.32403 15.456-1.3541 2.1323-3.329 1.9481-2.6403 1.0286"/>
  <path d="m136.47 52.696c1.8318 3.6636 11.175 25.931 15.52 47.841-6.1465 0.87831-14.123 5.7261-14.123 5.7261-0.40429-2.6832-0.89622-5.2109-1.4543-7.4165-3.0929-12.196-6.5275-24.393-12.885-39.68-8.5847 0.68872-16.459-5.7136-17.89-12.74-1.66-8.1429 4.2754-17.28 14.098-19.282 9.819-2.0017 18.813 3.9588 20.5 12.23 0.93556 4.5991-0.6261 9.5989-3.7655 13.322" fill="#ffe792"/>
  <path d="m131.6 65.334c-0.72091-1.9141-1.279-3.7583-0.77994-5.2217 1.0483-3.0696 1.898-2.9749 4.2789-6.0123 0 0 0.61179-0.52593 0.95346-0.80858 5.27-4.3934 4.8299-13.322 4.8299-13.322s-3.7315 9.8619-16.248 11.272c-12.517 1.4096-19.323-7.3182-19.323-7.3182s-1.0232 13.905 18.007 15.661c0 0 10.831 29.378 14.669 46.351l4.9497-2.7101c-0.25557-1.5062-6.3629-24.677-11.336-37.891" fill="#dbc77f"/>
  <path d="m104.17 46.802c-1.8622-9.1446 5.3505-18.74 15.339-20.778 10.15-2.0679 20.307 3.7154 22.205 13.018 1.1502 5.6456-1.3917 11.483-6.4148 15.654-1.4329 1.1914-2.1735 0.14858-0.80677-1.1216 3.7691-3.499 5.6152-9.1142 4.626-13.973-1.6171-7.9336-10.395-13.13-19.153-11.341-8.7779 1.7889-14.828 10.005-13.209 17.937 1.5957 7.8351 11.146 13.316 19.529 11.953 2.9015-0.47209 3.3917 0.47056 0.44902 1.2558-11.785 3.143-21.096-5.397-22.565-12.604"/>
  <path d="m139.33 105.25c-0.38102-2.474-0.83182-4.7995-1.3255-6.8495-2.5885-10.731-6.6348-23.262-13.202-39.154-0.0715-0.17343-2.5634-0.22515-2.3201 0.35596 6.6456 15.992 10.107 28.786 12.83 39.525 0.59569 2.3452 1.1019 4.9605 1.508 7.692z"/>
  <path d="m153.28 100.24c-1.8157-9.5596-4.1859-17.833-7.1411-26.686-3.5312-10.594-7.3128-18.933-8.5936-21.498-0.28264-0.5653-1.8872 1.4543-1.83 1.576 1.0125 2.1394 4.4131 10.1 7.9461 20.615 3.2432 9.6544 5.4685 18.039 7.1035 26.25z"/>
  <path d="m129.38 147.92c-8.531-9.0516-9.8727-28.557 3.6081-39.664 14.041-11.57 28.477-10.375 35.536-8.1178 3.5258 1.1288 2.9463 2.5723-0.69764 1.6296-6.5919-1.7066-20.16-2.084-33.106 8.5847-12.452 10.261-10.803 27.691-3.3684 35.748 0.50267 0.54384-1.7048 2.1037-1.9713 1.8193"/>
 </g>
</svg>
