<?xml version="1.0" encoding="UTF-8"?>
<!-- Created with Inkscape (http://www.inkscape.org/) -->
<svg version="1.1" viewBox="0 0 194.81 197.02" xmlns="http://www.w3.org/2000/svg">
 <g transform="translate(-5.1218 -47.65)">
  <g transform="matrix(1.6107 0 0 1.6107 -80.526 -76.398)">
   <path d="m111.62 169.24 2.3359 0.38932 2.8921 1.2236 3.7264 2.1135 3.6151 3.0033 1.1124 1.2236 3.8376 10.79-2.6696-1.6129-4.0044-2.8365-4.1713-2.4472-3.8376-5.1724-2.3915-4.4494z" fill="#8bc56c"/>
   <path d="m126.27 180.74c-3.3741 0.6301-4.9999 0.73767-8.4058-0.22608l1.4373 1.2963 3.8932 2.2247 5.2836 3.6151 1.0011 0.83426z" fill="#79ab5e"/>
   <path d="m112.13 169.82c-0.66691 0.40548 2.9532 7.3438 9.1433 12.929 5.6515 5.0534 12.706 9.518 12.972 9.2487 0.39919-0.40391-3.3504-8.5789-9.1398-14.301-6.1932-6.121-12.444-8.416-12.976-7.8775zm21.718 22.85c-2.6802-0.51972-8.6414-4.4158-13.081-8.2716-5.9118-5.9745-9.5459-12.454-9.6931-14.729-0.0369-0.67005 0.24434-0.75828 0.52118-0.78565 2.8026-0.40737 8.9709 2.8425 14.176 8.1409 5.3065 5.4013 8.9941 12.294 9.276 14.701 0.13776 0.66846-0.12679 1.2054-1.1992 0.94403z" fill="#0f141b"/>
   <g transform="matrix(1.1831 0 0 1.1831 -726.72 -407.48)">
    <path d="m717.28 444.64c0.8-0.16 2.56-0.48 4.16-0.64 1.76-0.16 2.4-0.48 2.72-1.28 0.32-0.96-0.16-2.4-1.92-2.56-1.92-0.32-4.8 0.32-7.68 1.28l-2.72 1.28z" fill="#fffdf7"/>
    <path d="m712.96 442.24s3.2 1.6 4 2.4c0 0 3.52-0.48 5.12-0.64 1.44 0 2.24-0.8 1.92-2.4-0.16-1.6-1.6-1.76-4.16-1.44s-4.48 0.96-4.48 0.96z" fill="#dcdbd6"/>
    <path d="m716.8 444.48c0.96-0.32 2.88-0.64 4.48-0.8s2.24-0.48 2.4-1.12c0.32-0.96-0.16-1.92-1.6-2.08-1.6-0.16-4.96 0.48-8.16 1.44-0.32 0 0.16-0.8 0.32-0.8 2.08-0.8 5.6-1.76 7.84-1.44 2.08 0.16 2.72 1.92 2.4 3.04-0.48 1.12-1.28 1.44-3.04 1.76-1.6 0.16-3.2 0.32-4 0.48-0.16 0-0.8-0.48-0.64-0.48z" fill="#0f141b"/>
    <path d="m755.68 456.64c3.68-5.92-0.96-8.32-5.92-9.76-4.64-1.44-11.36-1.12-17.28 1.44-5.92 2.72-9.6 6.56-11.84 9.6 0 0 4.96 6.4 12.96 6.24 8.16-0.16 22.08-7.52 22.08-7.52z" fill="#f2984f"/>
    <path d="m687.84 456.96c-1.12-0.8-1.6-1.6-1.44-2.4 0.64-2.4 8.96-6.56 17.28-7.2 10.24-0.64 17.92 0.48 20 6.72 0 0 1.12 6.88-6.24 8.96-7.52 1.92-29.6-6.08-29.6-6.08z" fill="#f2984f"/>
    <g fill="#ffe792">
     <path d="m751.68 443.2c0 2.08-1.76 4-4.16 4-2.24 0-4-1.92-4-4s1.76-4 4-4c2.4 0 4.16 1.92 4.16 4z"/>
     <path d="m683.84 448.32c0 2.08-1.76 4-4 4-2.4 0-4-1.92-4-4 0-2.24 1.6-4.16 4-4.16 2.24 0 4 1.92 4 4.16z"/>
     <path d="m733.76 462.56c-8.32-5.76-20.64-6.88-31.04-1.76 0 0-5.6 4.96-3.52 8.48 1.92 3.68 20.48 5.28 25.92 4s13.76-5.28 8.64-10.72z"/>
    </g>
    <path d="m722.4 481.92c0.32 2.24 2.4 14.56 8.8 25.28 2.4 4.16 0.96 4.64 0.32 4.96-0.8 0.32-1.92 0.16-4.48-3.36-6.88-9.12-9.44-24.16-9.76-26.56l2.4-1.28z" fill="#8bc56c"/>
    <path d="m722.4 481.92c0.32 2.24 2.4 14.56 8.8 25.28 2.4 4.16 0.96 4.64 0.32 4.96-0.8 0.32-1.92 0.16-4.48-3.36-6.88-9.12-9.44-24.16-9.76-26.56z" fill="#79ab5e"/>
    <path d="m749.36 446.43c9.885 2.0104 8.4726 7.5513 6.8322 10.008" fill="none" stroke="#0f141b" stroke-width="1.1833"/>
    <g fill="#f2984f">
     <path d="m752.32 476.48c-6.24 3.36-12.64 4-16.48 3.2-4-0.64-11.2-4-11.84-7.2-0.64-3.04 1.44-5.44 2.56-6.4 1.76-1.28 3.84-3.2 10.88-3.84 5.6-0.64 10.72-4.16 12.32-5.12 1.44-0.8 4.8-2.56 8.48 0.96 3.52 3.68 2.72 9.6 1.28 12.16-1.44 2.4-3.36 4.32-7.2 6.24z"/>
     <path d="m684.8 486.72c2.08 2.08 5.12 1.76 10.72-0.32 5.6-1.92 15.68-4.16 20-4.16 4.32-0.16 8.32 0.16 9.76-2.08 1.28-2.24 1.92-6.24-3.2-10.24-5.28-4-13.44-3.04-19.36-1.76-5.92 1.12-12.64 4.96-16 9.76-3.52 4.64-2.56 7.84-1.92 8.8z"/>
     <path d="m701.6 467.52c-1.6 2.4-5.12 4-12.64 5.44-7.68 1.28-12 4.16-15.68 5.12-4.16 1.12-6.88 0.48-8-0.96-1.44-1.92-1.44-4.8 1.92-9.44 3.52-4.8 10.56-8.48 15.84-9.92 5.12-1.44 9.92-1.28 14.56 0.32s8.16 3.36 4 9.44z"/>
    </g>
    <path d="m720.64 462.72c-1.44-2.24-1.44-6.56 0-12 1.44-5.6 4.16-10.88 4.96-12 0.16 0 0.48 0.16 0.64 0.16 3.36 0 5.76-2.56 5.76-5.6s-2.4-5.6-5.76-5.6-5.76 2.56-5.76 5.44c0 1.28 0.48 2.56 1.28 3.68-0.48 0.96-5.76 8.64-7.04 22.24-0.16 1.12-0.8 2.08-1.44 2.72l3.52 1.76z" fill="#ffe792"/>
    <path d="m696.8 469.92c-11.68 0.32-18.88 4.64-23.68 6.08-4.96 1.44-8.16 0.16-8.96-1.28 0 0 0 3.2 3.36 4s6.24-0.48 9.12-1.76c2.72-1.28 11.52-4.32 15.52-4.48z" fill="#d18344"/>
    <path d="m726.4 477.6c-0.96 2.24-4.16 3.04-8.32 2.72-9.44-0.96-22.88 4.32-27.2 5.44-4.32 1.28-6.88-0.48-6.88-1.6 0 0 0 3.2 3.04 4 1.12 0.32 3.84 0.16 8.48-1.44s13.12-4.48 22.4-4.16c2.56 0 4.96 0 6.4-1.28 1.6-1.28 2.08-3.68 2.08-3.68z" fill="#d18344"/>
    <path d="m730.33 479.71 0.79778 0.7313 1.1967 1.9944 1.3961 4.3213 0.79778 5.7839-0.39889 4.9861-1.1302 5.3185-1.3296 3.6565-0.79778 0.99722-0.86426-0.79778-1.3961-4.5872-1.2632-6.5152v-6.1163l0.79778-5.1856 1.0637-3.1911z" fill="#79ab5e"/>
    <g fill="#d18344">
     <path d="m760.96 465.44c-3.68 8.8-14.08 11.52-20.16 12.16-6.24 0.64-13.76-2.88-15.36-4.32 0 0 0.64 1.92 0.8 2.72 0 0 7.04 4.48 14.56 4.16s15.36-4.96 17.76-8c1.44-2.08 2.4-6.72 2.4-6.72z"/>
     <path d="m746.88 459.04c-3.2 1.6-12.32 2.72-15.04 2.4 0 0 2.08 0.96 2.4 1.6 0 0 1.76-0.16 6.4-1.28s6.24-2.72 6.24-2.72z"/>
     <path d="m699.84 458.56c1.28 0.79999 5.92 0.48001 8.8-0.16001 0 0-5.28 1.76-6.08 2.56z"/>
    </g>
    <g fill="#dbc77f">
     <path d="m723.68 471.36c-1.44-2.56-7.04-4-7.04-4 1.44 0.48 7.04 0.8 8.8-0.48 0 0-1.6 2.72-1.76 4.48z"/>
     <path d="m706.72 467.2c-3.84-0.64-3.36-2.4-3.36-2.4s-1.6 2.88-2.08 3.36c0 0 4.32-1.12 5.44-0.96z"/>
     <path d="m751.68 443.36c-4 3.52-8.16 0-8.16 0s0.32 3.68 4 3.84c3.52 0.16 4.16-3.84 4.16-3.84z"/>
     <path d="m684 448.48c-4 3.52-8.16 0-8.16 0s0.32 3.84 4 4c3.52 0.16 4.16-4 4.16-4z"/>
     <path d="m720.64 433.44s-0.16 2.56 2.08 4.16c0.16 0.16 0.48 0.48 0.48 0.96 0.16 0.48-0.16 0.96-0.16 1.28-1.44 2.4-3.52 6.88-4.48 11.68-1.28 5.6-1.6 8.32-1.28 9.28 0.32 0.8 2.08 2.08 3.52 2.08 0 0-2.56-3.2-0.48-11.36 1.44-5.28 4.48-11.2 5.44-12.8 4.64 0.48 6.24-4.48 6.24-4.48-6.56 4.64-11.36-0.8-11.36-0.8z"/>
    </g>
    <path d="m732 481.6c-1.76-2.88-4.96 9.12-4.64 13.92-0.64-8.32 1.92-15.52 3.04-15.84 0.64 0 1.6 1.92 1.6 1.92z" fill="#8bc56c"/>
    <g fill="#0f141b">
     <path d="m747.52 439.52c-1.92 0-3.68 1.6-3.68 3.68 0 1.92 1.76 3.68 3.68 3.68 2.08 0 3.68-1.76 3.68-3.68 0-2.08-1.6-3.68-3.68-3.68zm0 8c-2.24 0-4.48-1.6-4.48-4.32s2.08-4.48 4.48-4.48c2.72 0 4.48 1.92 4.48 4.48s-1.92 4.32-4.48 4.32z"/>
     <path d="m706.4 460.48c-13.6-12.48-20.96-12.16-24.32-12.16-0.96 0-0.96-0.32 0-0.48 3.2-0.16 11.36-0.8 24.8 12.16 0.8 0.96 0.48 1.28-0.48 0.48z"/>
     <path d="m679.84 444.48c-2.08 0-3.68 1.76-3.68 3.84 0 1.92 1.6 3.68 3.68 3.68 1.92 0 3.68-1.76 3.68-3.68 0-2.08-1.76-3.84-3.68-3.84zm0 8.16c-2.24 0-4.64-1.6-4.64-4.32 0-2.56 2.24-4.48 4.64-4.48 2.56 0 4.48 1.76 4.48 4.32 0 2.88-2.08 4.48-4.48 4.48z"/>
     <path d="m727.04 462.56c4.16-13.92 13.6-17.6 17.92-18.88 0.96-0.32 1.12 0.16 0.16 0.48-4 1.6-12.64 4.8-17.6 18.56-0.16 0.48-0.64 0.32-0.48-0.16z"/>
     <path d="m724.8 438.4c3.36 0.8 6.88-1.6 6.88-5.12 0-2.88-2.4-5.28-5.44-5.28s-5.44 2.24-5.44 5.12c0 1.44 0.64 2.88 1.76 3.84 0.48 0.64 0.16 0.96-0.48 0.48-1.28-1.12-2.08-2.56-2.08-4.16 0-3.36 2.88-5.92 6.24-5.92 3.52 0 6.24 2.56 6.24 5.92 0 3.84-3.84 6.72-7.68 5.6-0.96-0.32-0.96-0.64 0-0.48z"/>
     <path d="m713.12 461.6c0.8-0.8 1.12-1.6 1.12-2.72 0.64-6.88 2.24-14.4 7.2-22.08 0-0.16 0.64 0.16 0.64 0.32-4.8 7.52-6.56 16.16-7.04 21.92-0.16 1.12-0.64 2.24-1.6 2.88-0.48 0.32-0.64 0.16-0.32-0.32z"/>
     <path d="m720.48 462.72c-1.76-2.08-1.76-6.56-0.32-12.32 1.44-5.6 4.16-10.56 4.96-11.68 0.16-0.16 0.8 0 0.64 0.16-0.64 1.12-3.36 6.4-4.8 11.84-1.44 5.6-1.6 9.6-0.16 11.84 0.48 0.48 0.16 0.64-0.32 0.16z"/>
     <path d="m725.92 474.56c2.24 2.24 6.88 4.16 9.92 4.8 2.24 0.48 8.64 0.8 16.32-3.2 3.68-1.76 5.6-3.52 7.04-6.24 1.28-2.24 2.24-8-1.28-11.52-3.68-3.68-7.2-1.12-8.64-0.16-1.92 1.28-6.56 4.16-11.68 4.8-5.92 0.64-8.32 1.6-10.08 3.04-1.12 0.64-3.68 2.72-3.04 6.08l-0.96-0.8c0-3.36 2.24-5.28 3.2-5.92 1.76-1.44 4.32-2.72 10.56-3.36 4.96-0.48 9.6-3.68 11.52-4.96 1.12-0.64 5.6-3.68 9.92 0.64 3.84 3.68 2.88 10.24 1.44 12.64-1.6 2.72-3.84 4.96-7.52 6.88-5.92 3.04-12.32 3.84-16.8 3.04-2.56-0.32-6.88-1.92-9.6-4.16z"/>
     <path d="m702.88 468.48c-6.08 1.12-12.64 5.12-15.84 9.6-2.08 2.72-7.2 13.6 8.32 8 5.92-2.08 15.84-4.16 20.16-4.32 1.92 0 8 0.32 9.44-1.76 0.96-1.6 2.56-5.44-3.04-9.76-5.12-4-13.6-2.88-19.04-1.76zm-16.8 9.12c3.36-4.64 10.24-8.96 16.48-10.24 5.12-0.96 14.24-2.24 19.84 2.08 1.6 1.28 6.56 6.08 3.36 11.04-1.76 2.72-7.52 2.4-10.08 2.4-4.16 0.16-14.24 2.24-19.84 4.32-15.52 5.44-13.12-4.96-9.76-9.6z"/>
     <path d="m700.32 468.48c2.24-2.4 3.2-5.28 2.72-6.56-0.96-2.56-10.24-6.4-19.84-3.84-5.12 1.44-12 4.96-15.68 9.76-2.88 3.84-3.52 6.88-1.92 8.96 2.72 3.68 11.52-0.48 11.68-0.64 2.88-1.12 7.84-3.36 17.76-4.8l-3.36 1.92c-5.92 0.64-11.04 2.72-13.92 4-2.56 0.96-9.92 4.16-13.12 0-1.76-2.4-1.12-5.92 2.08-10.08 3.68-4.96 10.88-8.64 16-10.08 10.08-2.56 20.16 1.44 21.28 4.48 0.48 1.6-0.16 3.68-1.92 6.24z"/>
     <path d="m719.52 457.92c5.12 0.48 10.08 2.08 14.08 4.96 0 0 1.12-0.32 0.96-0.48-4.48-3.04-9.76-4.96-15.04-5.44z"/>
     <path d="m714.72 457.92c-4 0.32-8.16 1.28-11.84 3.2-0.16 0-0.8-0.64-0.48-0.8 4-1.92 8.32-3.04 12.48-3.36z"/>
     <path d="m744.64 446.56c-4-0.16-8.32 0.64-12 2.24-5.76 2.56-9.44 6.24-11.52 9.12 0 0.16-1.12 0.16-1.12 0 2.08-3.04 6.08-7.36 12.32-10.24 3.52-1.6 7.68-2.4 11.52-2.4z"/>
     <path d="m716.48 448.32c-3.04-0.8-7.36-0.96-12.8-0.48-8.32 0.48-16.32 4.64-16.8 6.72-0.16 0.64 0.16 1.44 1.28 2.08 0.16 0.16-0.96 0.48-0.96 0.48-1.28-0.96-1.76-1.76-1.44-2.72 0.64-2.72 9.6-7.04 17.76-7.68 4.64-0.32 9.44-0.32 13.44 0.64z"/>
     <path d="m720.64 450.4c1.28 0.96 2.24 2.24 2.72 3.84 0.16 0.16 0.8-0.16 0.8-0.32-0.48-2.08-1.6-3.68-3.2-4.8z"/>
     <path d="m728.96 504c-5.44-10.72-6.88-21.92-6.88-21.92 0-0.32 0.96-0.48 0.96-0.16 0 0 1.12 8.64 5.28 18.08z"/>
     <path d="m725.12 505.12c-5.6-9.76-7.52-22.88-7.52-23.04s-0.64 0-0.64 0.16 1.44 11.84 6.24 21.44z"/>
     <path d="m730.4 480.16c-0.64-0.16-3.04 6.4-2.72 13.44 0.32 6.4 2.72 13.44 3.04 13.44 0.48 0 3.36-7.04 3.36-13.92 0-7.36-3.04-12.96-3.68-12.96zm-0.32 27.04c-1.28-1.92-3.04-8.48-3.36-13.44-0.16-6.4 1.76-12.64 3.04-14.08 0.41224-0.4168 0.8632-0.30064 1.28 0.16 1.44 1.44 3.84 6.72 3.84 13.28 0 6.4-2.24 12.64-3.52 14.24-0.32 0.48-0.8 0.64-1.28-0.16z"/>
    </g>
    <path d="m716.48 414.24c-0.48-1.12-1.44-1.92-2.72-2.08-1.44-0.32-2.56 0.16-3.2 1.12-0.64-1.28-1.76-2.24-3.36-2.56-2.24-0.32-3.68 0.8-4.32 2.56-1.12-1.12-3.2-1.6-4.8-0.8-1.28 0.64-2.08 1.76-2.24 2.88-1.28-0.8-3.04-0.64-4.32 0.48-0.8 0.8-1.12 1.76-0.96 2.88-1.28 0-2.72 0.64-2.88 2.08 0 0 3.04 4.16 14.88 1.76s13.92-8.32 13.92-8.32z" fill="#ffe792"/>
    <g fill="#fffdf7">
     <path d="m721.44 425.76c0.96 0 4.64-0.16 10.4-1.28 7.04-1.28 8.96-4.16 8.48-5.28-0.8-1.92-5.44-0.8-5.44-0.8 3.68-1.12 8.32-5.92 6.88-8-1.44-1.92-8.64 1.28-13.28 3.84-4.48 2.56-6.4 4.64-8.8 6.88l-0.48 2.56z"/>
     <path d="m669.6 433.92c-6.56-0.48-9.92-3.36-10.08-4.64-0.16-1.6 6.08-3.68 16-2.88 4.32 0.48 9.6 1.76 15.2 3.84v3.84c-4.8 2.72-9.44 4.32-13.28 4.96-7.2 1.44-11.84 0.32-12.48-1.28-0.64-2.24 3.36-3.36 4.64-3.84z"/>
     <path d="m710.72 453.6s1.6-3.2 3.68-4.16c2.24-0.96 3.84 0 4.32 0.32 0 0 0-0.8 0.8-1.6v-0.16c-0.8-1.6-3.04-4.64-7.04-5.6 4.16-1.6 6.08-4 7.52-6.72 4.16-7.04 0.64-13.12-0.8-14.72l-6.88-5.12c-12.32-4.8-19.52 3.36-20.64 4.8l-3.04 6.72c-0.16 1.12-0.96 8.16 5.76 12.64-0.8 0.32-2.08 1.92-1.44 3.2 0.32 0.48 0.8 0.48 2.4 0.8 1.12 0.16 5.12 1.44 8 3.04-0.16 0.96 0 5.76 1.6 8.64 0.16-0.96 1.12-3.84 5.76-2.08z"/>
    </g>
    <path d="m713.6 459.84c0.64 1.12 2.72 3.52 4.96 5.12s4.32 2.08 5.12 1.12c0.64-1.12 0.16-2.08-1.92-3.2-1.76-1.12-3.84-2.72-4.8-4.48 3.04-2.08 4.16-6.72 2.56-10.24-0.8 0.8-0.8 1.6-0.8 1.6-0.48-0.32-2.08-1.28-4.32-0.32-2.08 0.96-3.68 4.16-3.68 4.16-4.64-1.76-5.6 1.12-5.76 2.08 0.16 0.64 0.48 1.12 0.8 1.44 2.24 2.56 5.28 3.04 7.84 2.72z" fill="#8bc56c"/>
    <path d="m706.72 432.32c0.48 1.92 0.16 3.52-0.8 3.68-1.12 0.32-2.4-0.8-2.88-2.72-0.48-1.76 0-3.52 0.96-3.84 1.12-0.16 2.24 1.12 2.72 2.88z" fill="#525557"/>
    <path d="m714.72 430.08c0.48 1.92 0 3.52-1.12 3.68-0.96 0.32-1.92-0.64-2.4-2.56-0.48-2.08 0-3.68 0.96-3.84 0.96-0.32 2.08 0.96 2.56 2.72z" fill="#525557"/>
    <path d="m714.4 422.24c-0.48 2.08-2.4 3.68-4.48 3.68-1.28 0-2.56-0.64-3.36-1.6-0.32 2.08-2.08 3.68-4.32 3.68-1.76 0-3.2-0.96-3.84-2.24-0.48 1.44-1.92 2.72-3.68 2.72-1.44 0.16-2.88-0.64-3.52-1.6-0.64 1.12-2.24 0.8-3.36 0-0.96-0.8-1.6-1.92-1.6-3.04 0-1.44 0.64-2.56 1.76-3.36 2.24-1.28 3.68 0 3.84 0.64 0.64-0.48 1.44-0.8 2.4-0.8 1.6-0.16 3.04 0.64 3.68 1.92 0.64-1.76 2.24-3.04 4.32-3.04 1.44 0 2.56 0.64 3.36 1.76 0.32-2.08 2.08-3.84 4.32-3.84 0.64 0 1.12 0.16 1.6 0.32 0.64-2.08 2.88-3.68 5.12-3.04 2.4 0.48 3.68 2.88 3.04 5.12-0.64 2.56-3.36 3.68-5.28 2.72z" fill="#ffe792"/>
    <path d="m703.04 437.92c0.32 0.8-0.32 1.6-1.92 2.24-1.44 0.48-2.72 0.16-3.04-0.48-0.16-0.48 0-1.44 1.92-2.24 1.6-0.48 2.88-0.16 3.04 0.48z" fill="#e9545d"/>
    <path d="m720.64 432.32c0.32 0.8-0.16 1.6-1.76 2.24-1.28 0.64-2.56 0.8-2.88 0.16-0.32-0.48-0.16-1.44 1.76-2.4 1.44-0.64 2.56-0.48 2.88 0z" fill="#e9545d"/>
    <path d="m699.52 472.64c0.16 2.08-1.6 4.16-3.84 4.16-2.4 0.16-4.16-1.76-4.32-3.84 0-2.08 1.6-4.16 4-4.16 2.24-0.16 4 1.6 4.16 3.84z" fill="#ffe792"/>
    <path d="m741.76 411.36c0 0.64-2.56 3.52-5.92 5.44-1.28 0.64-0.64 1.6-0.64 1.6s3.36-1.6 4.96-3.36c1.44-1.76 1.6-3.68 1.6-3.68z" fill="#dcdbd6"/>
    <path d="m721.6 426.08c-0.32 2.24-0.64 4.32-1.44 5.92 0.16 0.16 0.32 0.16 0.48 0.48 0.32 0.64-0.16 1.44-1.76 2.08-0.16 0.16-0.32 0.32-0.48 0.32-1.76 1.76-4 3.2-7.52 4.32-8.32 2.88-16.32 0.32-19.36-1.6 0 0 2.08 1.92 2.56 2.24 0 0 4.48-0.8 10.56 3.84 0 0 5.6 0.16 9.92-2.4s8.48-8 7.04-15.2z" fill="#dcdbd6"/>
    <path d="m720.64 432.32c-0.16-0.16-0.32-0.16-0.48-0.32-0.48 1.12-1.12 2.08-1.76 2.88 0.16 0 0.32-0.16 0.48-0.32 1.6-0.64 2.08-1.44 1.76-2.24z" fill="#c94851"/>
    <g fill="#dcdbd6">
     <path d="m705.28 448.32s-1.28 0.79999-1.6 2.4c0 0-0.32001-1.92 0-3.36z"/>
     <path d="m705.12 444s5.28 2.4 11.36 0.48c0 0-2.24-2.08-3.84-2.24 0 0-2.72 1.12-4.32 1.28-1.28 0.16-2.88 0.16-3.36 0.16-0.16 0 0.16 0.32 0.16 0.32z"/>
     <path d="m692.96 442.24c0.16 0.64 1.28 0.8 2.08 0.96s4 0.8 6.72 2.24c2.88 1.28 4 2.4 3.84 3.04 0 0-3.2-1.92-5.28-2.72s-5.12-1.6-5.92-1.76c-0.96-0.16-1.44-0.48-1.6-1.12 0-0.48 0.16-0.64 0.16-0.64z"/>
    </g>
    <path d="m716.96 458.4c-0.96 2.24-0.16 4.32 5.6 8.16 0.48 0.32-2.08 0.32-6.24-3.36-0.96-0.8-2.72-3.36-2.72-3.36-6.88 0.48-8.8-4.48-8.8-4.48 0.48 1.12 5.6 3.36 9.28 2.4s5.76-3.52 6.24-5.92c0 0-0.16 4.16-3.36 6.56z" fill="#79ab5e"/>
    <g fill="#dcdbd6">
     <path d="m690.88 434.08c0-0.48-0.96-0.48-2.08 0.16-5.12 2.24-10.08 3.68-13.28 4-7.36 0.96-10.24-0.64-10.4-1.12 0 0-0.48 1.44 2.4 2.08s5.76 0.96 11.84-0.48 11.52-4.64 11.52-4.64z"/>
     <path d="m669.92 433.92c0.16-0.32 0-0.64-0.64-0.8-0.8-0.16-1.44-0.32-3.84-0.96-2.4-0.8-5.6-2.4-5.6-3.04 0 0-0.32 1.12 1.6 2.4s3.84 1.76 5.76 2.24c2.08 0.48 2.72 0.16 2.72 0.16z"/>
     <path d="m740.16 419.2c-0.32 0.64-1.28 2.08-5.92 3.52s-11.68 2.08-12.96 2.08l0.16 0.96s7.84-0.16 12.96-1.76c6.24-2.24 5.76-4.8 5.76-4.8z"/>
    </g>
    <path d="m719.52 417.28c-0.96 4-5.28 3.2-5.28 3.2-1.6 4-6.24 3.36-7.52 3.04-0.32-0.16-0.32-0.16-0.64 0.16-2.56 2.72-6.4 1.76-7.68 1.28-0.48-0.16-0.48-0.16-0.8 0.16-3.36 2.24-7.2 0-7.2 0-1.6 0.64-4.16-0.32-4.16-1.28 0 0 0 2.72 2.4 3.52 1.44 0.32 2.4-0.48 2.4-0.48s0.96 1.6 3.68 1.6c2.88 0.16 3.68-2.72 3.68-2.72s1.28 2.56 4.8 2.08c2.56-0.16 3.36-3.36 3.36-3.36s2.4 2.56 5.28 1.12c0.96-0.32 2.08-1.6 2.56-3.36 0 0 2.72 0.8 4.32-0.8 1.44-1.76 0.8-4.16 0.8-4.16z" fill="#dbc77f"/>
    <path d="m699.52 472.8c-3.84 3.68-8.16 0.32-8.16 0.32s0.48 3.84 4.16 3.84c3.68-0.16 4-4.16 4-4.16z" fill="#dbc77f"/>
    <path d="m704.16 429.76c-0.96 0.16-1.28 1.92-0.8 3.52 0.48 1.92 1.6 2.72 2.4 2.56 0.96-0.32 1.28-1.76 0.8-3.52-0.48-1.6-1.6-2.88-2.4-2.56zm-1.44 3.68c-0.48-1.76 0-3.84 1.28-4.16 0.8-0.32 2.4 0.48 3.04 2.88 0.64 2.08 0 3.84-1.12 4.16-0.8 0.16-2.4-0.16-3.2-2.88z" fill="#0f141b"/>
    <path d="m705.44 431.04c0.16 0.48-0.16 1.12-0.64 1.12-0.48 0.16-0.96-0.16-1.12-0.64-0.16-0.64 0.16-1.12 0.64-1.28s0.96 0.32 1.12 0.8z" fill="#fff"/>
    <path d="m712.16 427.52c-0.8 0.32-1.28 1.76-0.8 3.52s1.28 2.72 2.24 2.56c0.8-0.32 1.28-1.76 0.8-3.36-0.48-1.92-1.44-2.88-2.24-2.72zm-1.28 3.68c-0.48-2.08 0-3.84 1.12-4.16 0.96-0.16 2.4 0.64 3.04 3.04 0.64 2.24-0.32 3.68-1.28 4-0.96 0.16-2.4-0.48-2.88-2.88z" fill="#0f141b"/>
    <path d="m713.44 428.8c0.16 0.48-0.16 1.12-0.64 1.12-0.48 0.16-0.96-0.16-1.12-0.64-0.16-0.64 0.16-1.12 0.64-1.28s0.96 0.32 1.12 0.8z" fill="#fff"/>
    <g fill="#0f141b">
     <path d="m697.6 422.88c0.32-2.24 2.24-4 4.64-4 1.76-0.16 3.2 1.12 3.84 2.56 0.32 0.64 0 0.8-0.32 0.16-0.8-1.28-2.08-2.08-3.52-2.08-2.08 0-3.84 1.44-4.16 3.52-0.16 0.64-0.48 0.64-0.48-0.16z"/>
     <path d="m697.92 425.6c-0.16-0.64 0.16-0.8 0.48 0 0.8 1.28 2.24 2.08 3.84 2.08 1.92 0 3.68-1.44 4-3.52 0.16-0.64 0.32-0.32 0.48 0 0.8 0.96 2.08 1.44 3.2 1.44 1.28 0 2.4-0.48 3.2-1.44 0.64-0.64 1.12-1.92 1.12-2.88-0.16-0.8 0.32-0.8 0.32 0 0.16 1.28-0.16 2.4-0.96 3.36-0.96 1.12-2.24 1.76-3.52 1.76s-2.72-0.64-3.36-1.44c-0.48 2.08-2.72 3.52-4.48 3.52-2.08-0.16-3.52-1.12-4.32-2.88z"/>
     <path d="m705.44 420.8c0.16-1.6 1.12-2.88 2.4-3.52 1.44-0.8 3.04-0.48 4.16 0.16 0.64 0.32 0.48 0.64-0.16 0.32-0.96-0.48-2.56-0.48-3.84 0.16-1.12 0.64-1.92 1.92-2.08 3.2 0 0.16-0.48 0-0.48-0.32z"/>
     <path d="m690.24 418.72c-0.48-3.52 3.2-5.44 5.92-3.2 0.48 0.32 0.16 0.48-0.32 0.32-2.08-1.6-5.44 0-4.96 2.88 0 0.16-0.48 0.16-0.64 0z"/>
     <path d="m687.36 420.8c0.16-1.92 2.24-2.72 3.52-2.24 0.48 0 0.48 0.32 0 0.32-0.64 0-2.72 0.32-2.88 1.92 0 0.16-0.64 0.16-0.64 0z"/>
     <path d="m716.16 414.24c-1.28-2.4-4.32-2.4-5.76-0.32-0.48 0.64-0.8 0.48-0.48-0.32 1.6-2.72 5.6-2.4 6.88 0.64 0 0.16-0.64 0-0.64 0z"/>
     <path d="m690.72 422.24c0.8-1.44 2.08-2.4 3.52-2.4 1.6-0.16 3.2 0.8 4 2.24 0.16 0.16-0.32 0.48-0.48 0.32-0.8-1.28-2.08-1.92-3.52-1.76-1.28 0-2.4 0.64-3.04 1.76-0.48 0.48-0.8 0.32-0.48-0.16z"/>
     <path d="m691.52 427.84c-0.8-0.8-1.28-1.92-1.28-2.88 0-0.64 0.16-0.64 0.32-0.16 0.32 1.12 0.64 1.76 1.44 2.4 0.8 0.8 1.76 1.12 2.72 0.96 1.44 0 2.88-0.96 3.36-2.4 0-0.16 0.48 0.48 0.48 0.48-0.8 1.44-2.08 2.56-3.68 2.72-1.28 0-2.56-0.48-3.36-1.12z"/>
     <path d="m714.4 422.72c-0.16-0.16 0-0.64 0.16-0.64 2.08 0.64 4.32-0.64 4.8-2.72 0.64-2.08-0.64-4.16-2.72-4.64-2.08-0.64-4.16 0.8-4.64 2.72-0.16 0.16-0.64 0-0.64-0.16 0.48-2.24 2.88-4 5.44-3.36s3.84 3.36 3.36 5.6c-0.8 2.56-3.52 3.68-5.76 3.2z"/>
     <path d="m685.76 423.84c0-1.44 0.8-2.88 2.08-3.68 2.4-1.44 4 0.16 4.32 0.96 0 0.16-0.48 0.32-0.64 0.16-0.16-0.64-1.44-1.6-3.36-0.48-0.96 0.64-1.6 1.76-1.6 3.04 0 2.08 2.24 3.68 3.68 3.36 0.32-0.16 0.64-0.32 0.64-0.48 0.16-0.16 0.48 0.48 0.48 0.48-0.16 0.32-0.48 0.48-0.96 0.64-1.76 0.48-4.64-1.12-4.64-4z"/>
     <path d="m695.52 415.2c0.96-3.84 4.8-4.48 7.36-2.4 1.44-3.68 6.4-2.88 7.84 0.16 0 0.16-0.48 0.64-0.48 0.48-1.12-2.72-5.76-3.68-7.04 0-0.16 0.32-0.16 0.32-0.48 0-2.08-2.08-5.92-1.12-6.56 2.08 0 0.16-0.64-0.16-0.64-0.32z"/>
     <path d="m700.16 437.76c-0.32 0-2.24 0.96-1.92 1.92 0.32 0.64 1.76 0.64 2.88 0.16 1.28-0.48 2.08-1.28 1.76-1.92 0-0.32-1.12-0.8-2.72-0.16zm-2.24 2.08c-0.48-0.8 0.16-1.92 2.08-2.56 1.76-0.64 3.04-0.16 3.36 0.48 0.32 0.8 0 1.92-2.08 2.56-0.8 0.32-2.88 0.64-3.36-0.48z"/>
     <path d="m717.92 432.48c-0.8 0.48-2.08 1.44-1.92 1.92 0.32 0.64 1.44 0.64 2.88 0 1.12-0.64 1.92-1.28 1.6-1.92-0.32-0.48-1.44-0.48-2.56 0zm-0.32-0.32c1.44-0.8 2.88-0.64 3.2 0.16 0.32 0.64 0 1.6-1.76 2.56-1.6 0.8-3.04 0.64-3.36-0.16-0.32-0.96 0.64-1.92 1.92-2.56z"/>
     <path d="m708.64 438.24c-0.48-0.16-0.32-0.48 0.16-0.32 2.08 0.48 4.16 0 4.16-0.16 0.16-0.32-0.48-1.76-1.6-3.04-0.16-0.32 0-0.48 0.32-0.16 0.8 0.48 1.76 1.6 1.92 2.88 0.16 0.48 0.16 0.64-0.32 0.96-0.48 0.16-2.4 0.64-4.64-0.16z"/>
     <path d="m691.36 420.48c0.32-0.48 7.84-10.24 21.12-4.96 0.32 0 0 0.8-0.32 0.64-12.48-4.8-19.36 3.68-20.16 4.8-0.16 0-0.8-0.32-0.64-0.48z"/>
     <path d="m690.24 434.56c0.96 1.92 2.56 4 4.64 5.28 0.32 0.16-0.8 0.32-0.96 0.32-2.08-1.44-3.68-3.04-4.8-5.28z"/>
     <path d="m688.96 429.6c0-0.8 0-1.44 0.16-2.24h-0.96v1.92z"/>
     <path d="m704.64 443.84c-0.32 0-0.64-0.64-0.32-0.48 3.36 0.32 11.52-1.28 15.36-7.84 3.84-6.72 0.64-12.64-0.8-14.24-0.16-0.16 0.32-0.8 0.48-0.64 0 0 6.08 6.72 0.96 15.52-3.36 5.6-10.88 8.32-15.68 7.68z"/>
     <path d="m721.44 425.28c13.76-0.64 18.4-4 18.4-5.76 0-0.8-2.24-1.12-3.52-0.96-1.76 0.16-2.24-0.16-0.32-1.12 3.52-1.76 6.24-5.6 5.44-6.72-1.12-1.6-11.84 1.6-21.6 10.88l-0.48-0.32c6.24-7.04 20.64-14.08 22.72-11.04 1.12 1.44-1.28 5.44-5.44 7.68 1.6 0 3.68 0 4 1.12 1.12 3.04-7.04 6.88-18.88 6.88-0.16 0-0.48-0.64-0.32-0.64z"/>
     <path d="m668.48 434.24c-5.92-0.8-9.28-3.68-9.28-4.8-0.32-2.88 15.2-6.72 31.68 0.64 0.64 0.32 0.64 0.64-0.16 0.32-19.04-6.72-30.72-2.4-30.72-1.12 0.16 0.96 3.52 3.84 9.92 4.48 0.16 0-1.28 0.48-1.44 0.48z"/>
     <path d="m664.64 437.76c-0.64-1.76 1.92-3.52 4.96-4 0.96-0.16 0.96 0.16 0.16 0.48-0.96 0.32-4.8 1.6-4.32 3.36 0.64 2.08 11.68 3.36 24.8-3.52 0.96-0.48 1.28-0.16 0.32 0.48-12.16 7.2-24.96 6.4-25.92 3.2z"/>
     <path d="m705.44 457.44c-2.4-2.72-2.56-8.96-2.4-10.4 0.16-0.16 0.8 0 0.8 0.32-0.16 0.96 0 7.04 2.24 9.44 1.92 2.24 4.8 3.2 7.68 2.72 0.8 0 0.96 0.32 0.16 0.48-3.68 0.8-6.72-0.64-8.48-2.56z"/>
     <path d="m716.32 458.56c3.2-2.24 4.48-6.88 2.72-10.4-1.6-3.36-4.48-4.96-6.72-5.6-0.16-0.16 0.16-0.64 0.48-0.64 2.24 0.8 5.28 2.24 7.04 5.92 1.92 3.84 0.48 9.12-3.2 11.04-0.48 0.32-0.8 0-0.32-0.32z"/>
     <path d="m705.12 448.48c-3.04-2.08-8.64-3.68-10.4-4-1.76-0.48-2.72-2.08-1.92-3.36 0.96-1.92 4.16-1.92 7.04-0.64 1.92 0.8 3.68 1.6 5.6 3.68 0.32 0.48 0.16 0.8-0.32 0.32-2.24-1.6-3.68-2.56-5.6-3.36-2.72-1.12-5.28-1.28-6.08 0.16-0.48 0.96-0.32 1.92 1.44 2.24s6.72 1.6 10.4 4.48c0.64 0.48 0.48 0.8-0.16 0.48z"/>
     <path d="m722.4 467.04c-1.12 0-2.56-0.64-4-1.76-2.72-1.76-4.8-4.64-5.12-5.28-0.16-0.16 0.64-0.32 0.64-0.16 0.64 0.8 2.56 3.2 4.8 4.8 1.44 0.96 2.72 1.6 3.52 1.6 1.12 0 1.44-0.8 1.28-1.28 0-0.48-0.64-1.12-1.92-1.76-1.6-1.12-4-2.56-4.96-4.64-0.16-0.16 0.48-0.48 0.64-0.32 0.96 1.76 3.2 3.2 4.8 4.32 1.44 0.8 2.08 1.44 2.24 2.24 0.16 0.64-0.16 2.24-1.92 2.24z"/>
     <path d="m704.64 455.68c0.16-1.12 0.8-2.08 1.6-2.56 1.12-0.64 2.72-0.64 4.48 0.16 0.48-1.12 1.6-3.36 3.52-4.16s3.52-0.16 4.32 0.32c0-0.32 0.32-1.12 0.8-1.6l0.32 0.48c-0.64 0.64-0.64 1.44-0.64 1.44-0.16 0.48-0.32 0.32-0.48 0.32-0.48-0.48-2.08-1.28-4-0.32-2.08 0.8-3.52 4-3.52 4-0.16 0.16-0.16 0.16-0.32 0.16-1.76-0.64-3.2-0.8-4.16-0.32-0.8 0.48-1.28 1.28-1.44 2.24 0 0.16-0.48 0-0.48-0.16z"/>
     <path d="m697.6 468.96c4.48-4 7.04-4.96 10.24-5.44 1.28-0.16 1.44 0.16 0.16 0.48-3.2 0.96-5.44 1.76-9.92 5.6 0 0-0.64-0.48-0.48-0.64z"/>
     <path d="m695.36 469.12c-2.08 0-3.68 1.76-3.52 3.84 0 1.92 1.76 3.52 3.84 3.52 1.92-0.16 3.52-1.92 3.52-3.84-0.16-2.08-1.92-3.68-3.84-3.52zm0.32 8c-2.56 0.16-4.64-1.6-4.8-4.16 0-2.72 2.24-4.48 4.48-4.64 2.56 0 4.64 1.92 4.64 4.32 0.16 2.4-1.76 4.48-4.32 4.48z"/>
    </g>
   </g>
   <path d="m130.21 189.79s3.6323 7.5039 6.9076 8.8929c0.6386 0.27083 1.4769 0.28362 2.0543-0.0572 2.914-1.7201-0.76013-6.577-0.76013-6.577" fill="none" stroke="#0f141b" stroke-width=".88"/>
   <path d="m105.12 178.48 2.614-0.16686 4.0044 0.66741 6.4516 2.2803 5.228 2.614 4.6718 3.5039 3.8376 3.337 1.6685 2.3915 0.3337 0.83426-1.1123 0.3337-2.6696-0.27809-7.9533-2.0022-5.7286-2.1691-4.7275-3.0589-4.7275-4.505-1.891-2.7809z" fill="#8bc56c"/>
   <path d="m105.34 178.48c7.2542 8.595 16.413 11.283 28.365 15.239l-0.61179 0.55617-2.0022-0.16685-7.6196-1.7241-7.3971-3.0033-6.3404-4.505-4.0044-4.1157-0.83426-1.9466 0.19466-0.30589z" fill="#79ab5e"/>
   <path d="m105.63 179c-0.51805 0.58378 4.3419 7.0056 11.902 10.522 6.8884 3.1665 15.586 4.5013 15.761 4.1657 0.26266-0.5035-5.6572-6.9875-12.874-10.752-7.7203-4.0274-14.439-4.607-14.789-3.9356zm27.481 15.447c-2.7144 0.29202-10.559-1.4515-15.937-3.83-6.8008-3.3343-11.902-9.3134-12.712-11.444-0.17132-0.67861 0.13062-1.0248 0.71096-1.1765 2.3378-0.60453 8.803 0.5105 15.684 4.1002 6.7133 3.5021 12.144 8.877 13.122 11.095 0.32839 0.59832 0.23357 1.1894-0.86825 1.2551z" fill="#0f141b"/>
  </g>
 </g>
</svg>
