<?xml version="1.0" encoding="UTF-8"?>
<!-- Created with Inkscape (http://www.inkscape.org/) -->
<svg version="1.1" viewBox="0 0 67.643 89.652" xmlns="http://www.w3.org/2000/svg">
 <g transform="translate(-1.7959 -1.9576)">
  <path d="m11.016 50.985 22.405-7.3414 4.4734-7.2144 8.6504-14.602c2.9104-3.7997 3.9691-8.6504 2.4061-10.425-1.563-1.7709-5.4474-2.7834-10.633 0.5082 2.1482-4.7698 0.16936-8.3154-1.8594-9.2856-4.3425-2.0789-18.148 5.0432-18.779 16.627-6.1596 0.6314-13.54 6.5446-15.103 12.281-1.5168 5.5552 1.255 9.3048 6.2828 8.019-2.9913 4.4156-4.0461 10.594 2.1558 11.434" fill="#e69d5d"/>
  <path d="m34.171 68.792c0.11546-2.5562 1.3513-5.2703 4.2501-7.7341 0.8585-0.73148 1.2743-1.3012 1.7516-2.1097-6.5984-2.6987-8.3039-9.9516-6.2443-15.461 2.3984-6.4175 9.2317-9.6475 16.084-7.122 5.9863 2.202 9.0469 9.0084 6.6485 15.753-2.1097 5.9286-7.6956 8.7582-13.847 7.6379-0.10804 0.29639-0.18475 0.51584-0.27336 0.73529-0.09603 0.21945-0.11938 0.41577-0.0077 0.67757 0.33873 0.80459 0.61984 1.64 0.81234 2.4946-0.41195-0.02728-1.2396 1.0317-1.5707 2.4523-0.29639-1.4552-1.0009-2.9066-1.3859-2.9412-0.60827-0.05784-1.5399 1.1511-2.4484 2.8026-1.1934 2.1828-2.2174 3.1568-3.7689 2.8142" fill="#fffff2"/>
  <path d="m44.98 79.057c-1.9826-0.03492-2.9412 1.4591-2.9258 3.4186-1.2781-1.7555-2.0789-3.5033-2.3984-4.997-0.17711-0.82772-0.13084-1.4745 0.62366-2.0211 5.1933-3.7535 3.7304-11.676 3.1953-11.788-0.57357-0.11938-1.436 1.1357-1.7478 2.6063-0.28493-1.6015-1.0356-3.0721-1.3358-3.1029-0.47743-0.0502-1.5822 1.1742-2.5678 3.0836-1.1049 2.1289-2.3791 2.9681-3.6534 2.5331-0.08512 1.9557 0.48125 3.8228 1.459 5.4127 0.92779 1.5168 1.3012 2.4061 1.64 3.9691 0.62366 2.8912 2.4523 5.6861 4.304 6.8102-4.5812-1.6053-6.9064-0.35422-7.4569 1.4783-0.45036 1.4937 0.58514 3.8497 3.7843 4.4657 5.355 1.0394 10.876-0.26943 11.507-1.5861 0.8585-1.794-0.3157-10.209-4.4272-10.283" fill="#1a9d6f"/>
  <path d="m57.822 56.619c2.025 3.8536 3.099 7.4531 3.099 12.739 0 2.7179 2.8296 2.9181 4.1885-0.0039 1.2589 2.3368 3.996 2.0327 3.9806-1.3128-0.01964-5.0932-4.9931-10.806-9.5089-14.071-0.39657 0.98934-0.96239 1.7824-1.7593 2.6486" fill="#fffff2"/>
  <path d="m53.341 57.186c2.1058 1.3205 4.7852 0.40038 6.4291-3.5995 1.1896-2.895 0.16172-5.8439-2.2983-6.3713 0.12702 2.7988-1.1742 7.5416-4.1308 9.9708" fill="#fee679"/>
  <path d="m49.766 70.474c-0.8239 1.5399-2.7757 3.1298-3.4263 3.1298-0.60445 0-1.6515-1.3243-2.6794-2.8835 0.24248-1.0125 0.53898-2.6101 0.45811-4.1269 0.95093 1.9249 2.0288 3.9999 2.4061 3.9999 0.37725 0 1.4744-1.6477 2.0943-2.9874 0.36186 0.93543 0.6314 1.6092 1.1472 2.8681" fill="#fffff2"/>
  <path d="m44.735 59.709c4.177 7.8727 7.6186 16.777 9.4627 23.884 0.71609 2.7449 3.7073 1.5014 2.8642-1.2473-2.5331-8.2654-5.8362-16.893-9.2163-22.991" fill="#80c757"/>
  <path d="m36.34 37.748c-0.04583-7.661 3.9152-12.612 8.531-15.079 1.8517-0.99327 3.2492-1.6207 4.9816-2.2521 0.38118-0.14241 0.68139 0.01964 0.66218 0.58514-0.05347 1.8748-0.26561 4.5542-0.97788 6.8294-1.1511 0.29257-1.8171 1.1665-2.1058 2.5716-0.34648 1.6631-0.66218 3.4263-1.101 5.1664-2.3291-0.29257-5.6322 0.26943-8.839 2.741-0.44273-0.31952-0.71216-0.46586-1.1511-0.56211" fill="#80c757"/>
  <path d="m19.25 13.296c-1.8902-1.2897-3.7381 0.09276-3.8921 1.4629-0.1578 1.3975 0.35804 3.0836 2.4985 3.2415 0.02292-1.4629 0.6313-3.2838 1.3936-4.7044" fill="#fee679"/>
  <path d="m11.17 21.51c-1.9326-0.55436-2.2983-3.434-0.42734-4.5003 1.9364-1.1049 4.3271 0.97013 3.3955 3.0605-1.0317 0.4042-1.9095 0.83154-2.9681 1.4398" fill="#fee679"/>
  <path d="m43.844 23.144c9.3395-11.703 1.3936-14.764-6.175-9.659 1.6592-4.3695 0.14623-8.327-2.4407-9.1585-4.5581-1.4667-15.218 5.4859-17.02 15.072 0.25798 0.012 0.71991 0.13477 1.0626 0.23102-4.816-0.5082-16.034 8.3116-15.545 15.106 0.20407 2.7988 1.7593 5.0162 3.8382 4.9238 1.0664-0.0502 2.5639-0.53898 3.6303-1.0548-3.5033 4.5311-4.4965 10.225-2.4638 11.684 0.81998 0.58906 1.5091 0.73147 2.3137 0.69295-0.62366-1.3205-0.17329-2.895 1.6554-4.6274 4.0384-3.8189 10.718-6.2212 18.548-5.3242 0.95475-2.6679 3.176-3.7958 5.0778-3.2569-0.281-4.6774 2.0211-11.237 7.5185-14.629" fill="#c78851"/>
  <path d="m33.641 48.323c0.55436 8.0267 10.329 13.728 19.895 8.5695-2.6063 2.7526-7.0874 3.6726-10.698 2.9566-0.15016 0.27718-0.22709 0.44272-0.29639 0.64286-0.07748 0.20014-0.05347 0.48507 0.0502 0.71609 0.18475 0.4042 0.22327 0.42341 0.36961 0.86232-1.5399 1.0664-3.5995 0.33109-4.7621-0.79302 0.93936-0.7892 1.4937-1.3359 1.9364-2.2906-5.1933-2.6332-6.9295-6.1095-7.0566-10.652z" fill="#ccccc2"/>
  <path d="m34.231 68.621c1.3012 4.1885 6.3213 4.1885 9.2163 2.51-0.62366 1.8017-1.7093 3.1375-3.4417 4.254-1.0818 0.69677-1.1973 1.2897-1.0972 2.7025 0.15016 2.1366 1.6015 5.3203 3.7073 6.6523 0.45811 0.28875 0.71216 0.55436 0.62748 0.86232-2.9374-0.74686-5.1278-3.5302-6.1711-8.2153-0.24248-1.101-0.66982-1.948-1.2242-2.8411-1.3205-2.1289-1.7863-4.0153-1.6169-5.9247" fill="#157d59"/>
  <path d="m34.543 86.052c-0.26943 1.9287 1.409 3.1452 4.2694 3.6495 4.3348 0.75843 9.8168 0.75843 10.575-0.53898-0.09603 1.0548-3.1953 2.1559-7.3222 2.1559-7.6841 0-8.7312-3.2954-7.5224-5.2664" fill="#157d59"/>
  <g fill="#669f46">
   <path d="m52.288 68.803c-0.22709 0.49282-0.64679 0.88545-1.1511 1.0856-0.13084 0.0502-0.17329 0.10367-0.11938 0.23866 1.6169 4.1885 2.8642 7.6571 4.2001 12.989 0.30414 1.2319 1.2242 1.5052 1.8787 0.76607-0.5775 1.6284-2.3714 1.5553-2.8834-0.32727-1.0048-3.6726-3.6919-12.388-5.7477-16.184 0.39656-0.0077 0.88163-0.14241 1.2396-0.41195-0.0502 1.3128 0.84693 2.3637 2.5832 1.844"/>
   <path d="m48.055 59.769c0.22709 0.38882 0.45429 0.79695 0.71991 1.3358-0.71991 0.6852-1.4706 1.871-1.8479 2.7757-0.64679-1.2281-1.2974-2.5793-2.025-3.9152 1.0548 0.10367 2.0558 0.06548 3.1529-0.19632"/>
   <path d="m32.314 33.751c2.2713-3.1144 2.8527-8.4348 1.5514-9.6898-1.9364-1.8594-7.122-0.35422-9.9862 2.3252-4.1616 3.8959-4.9084 8.1576-3.0605 9.967 1.7131 1.6785 5.8516 1.0279 8.7197-0.40038 0.77382 0.93161 1.7478 2.2406 2.587 3.4725 0.69295-0.93543 1.9249-1.7747 3.0066-1.7978-1.255-1.5784-2.0635-2.6756-2.818-3.8767"/>
   <path d="m41.758 24.813c2.9143-1.7478 6.8333-2.2251 8.6658-1.6169-0.13477 1.6977-0.37343 2.8642-0.8777 4.612-1.0586 0.29257-1.8517 1.1934-2.1982 2.8373-0.34648 1.64-0.71216 3.3377-1.0586 4.9277-3.4725-0.23866-6.6793 0.84693-8.8775 2.8103-0.31952-0.34648-0.63904-0.50427-1.0856-0.61209-0.08512-5.3511 2.2791-10.31 5.432-12.958"/>
  </g>
  <g fill="#cbb861">
   <path d="m55.412 54.69c0.69295 0.75068 2.5832 1.0047 3.665 0.50427-1.9518 2.6871-4.0461 3.0952-5.74 1.9711 0.69677-0.6314 1.4321-1.4783 2.075-2.4754"/>
   <path d="m15.272 15.217c0.37725 0.81616 1.7824 1.3205 2.7256 1.2589-0.14634 0.5428-0.16936 0.96239-0.18868 1.486-1.717 0-2.5562-1.486-2.537-2.7449"/>
   <path d="m9.5312 19.326c0.98552 1.1934 3.7496 0.92004 4.7544-0.27336 0 0.23102-0.02292 0.62748-0.06111 0.88163-1.4437 0.71216-2.0943 1.0047-2.9989 1.613-1.1934-0.39657-1.6939-1.4668-1.6939-2.2213"/>
  </g>
  <g fill="#ccccc2">
   <path d="m58.273 56.107c2.4754 3.7496 3.8767 8.8236 3.5495 13.17-0.09603 1.255 1.4898 2.0481 3.1914 0.13477-1.2011 3.0644-4.2309 2.279-4.0961-0.15398 0.24641-4.381-0.73148-7.9574-3.1067-12.635z"/>
   <path d="m65.138 69.371c1.5938 1.5553 3.5918 0.98934 3.8844-1.9249 0.46586 3.0836-1.9326 4.6774-3.9152 1.9826z"/>
   <path d="m44.762 70.286c0.46193 0.67757 1.2974 1.1588 1.7401 1.1819 0.64679 0.03492 2.0789-0.87006 2.6756-2.3329 0.28875 0.70834 0.23484 0.56593 0.58906 1.3397-1.1896 1.998-2.8834 3.176-3.4263 3.1298-0.54279-0.04583-1.8941-1.5861-2.5216-2.7487 0.56211-0.30032 0.54662-0.33491 0.94318-0.56975"/>
  </g>
  <g>
   <path d="m44.886 52.425c0.07312-0.43498 0.36568-0.40038 0.33109 0.03492-0.1232 1.7285 1.5245 2.3098 2.7718 1.2704 0.30796-0.25798 0.50045-0.07312 0.23866 0.23102-1.1896 1.3975-3.7073 0.72373-3.3416-1.5361"/>
   <path d="m42.953 60.004c-0.06111 0.16172-0.1578 0.42734-0.21945 0.56975-0.07748 0.18475-0.10367 0.31952-0.0077 0.53516 0.43116 0.96238 0.67375 1.6746 0.84693 2.5793l-0.45429 0.03492c-0.18093-0.92779-0.37725-1.5899-0.77382-2.4869-0.15016-0.34266-0.10804-0.61209-0.01528-0.82772 0.05784-0.13859 0.16172-0.48125 0.21945-0.63904 0.08512-0.23484 0.15016-0.29257 0.41959-0.25023 6.3598 1.0202 11.349-1.7786 13.378-7.4916 2.5947-7.2952-1.3859-13.59-6.4252-15.441-5.8439-2.1559-13.089 0.01964-15.699 7.0065-2.025 5.4243-0.48125 12.311 6.0133 15.141 0.16936 0.07312 0.22327 0.18475 0.1004 0.38882-0.48507 0.8238-0.89702 1.3628-1.7709 2.1058-6.2943 5.3511-3.7843 11.191-2.7025 12.862 0.87006 1.3359 1.2358 2.1482 1.6631 4.0307 0.79695 3.5264 2.8834 6.3367 5.074 7.1336 0.96632 0.35422 0.84311 0.5428-0.08512 0.32334-2.3984-0.56975-4.766-3.8651-5.5205-7.3492-0.42341-1.9441-0.73911-2.5678-1.5861-3.8651-1.7593-2.7064-3.3647-8.4232 2.8642-13.505 0.79684-0.64679 1.2127-1.1626 1.5784-1.8132-6.5099-2.5177-8.3116-10.163-6.2481-15.688 2.4715-6.6177 9.5551-9.7706 16.488-7.2183 6.5099 2.3945 9.2509 9.6089 6.9719 16.015-2.075 5.8362-7.711 9.0507-14.109 7.8496"/>
   <path d="m49.412 36.133c0.31177 2.6486 0.01528 5.4666-0.89702 7.3607-0.42734 0.87388-0.65061 0.80841-0.30796-0.13084 0.73911-2.0211 0.96631-4.739 0.63904-7.3684z"/>
   <path d="m52.574 37.68c0.8238 2.0288 0.53516 4.6043-0.78145 7.0951-0.52741 0.99327-0.7545 0.90859-0.30032-0.14634 1.1665-2.7025 1.359-5.3935 0.36186-7.3761z"/>
   <path d="m34.205 68.523c1.0664 0.41577 2.3368-0.30796 3.4417-2.3714 1.2396-2.3175 2.0904-3.3069 2.768-3.2338 0.71216 0.07312 1.5899 2.5678 1.5899 4.2925 0.0039 0.67757-0.281 0.68138-0.33109 0.0077-0.11938-1.7324-0.98934-3.7342-1.332-3.7727-0.3157-0.04256-1.1087 0.51202-2.3676 2.945-1.1934 2.3137-2.7295 3.0066-3.8151 2.537z"/>
   <path d="m43.416 63.878c-0.3503-0.08075-1.2127 1.0202-1.5938 2.7256l-0.17329-0.75068c0.30796-1.3821 1.2165-2.5216 1.8941-2.4292 0.97777 0.13477 2.1174 8.4694-3.126 12.261-0.71216 0.51202-0.67757 0.88163-0.48889 1.7478 0.48507 2.2791 1.9672 4.7775 4.1269 7.1451 0.49282 0.53898 0.25405 0.71216-0.23866 0.23102-2.2405-2.1597-3.8767-4.7775-4.3925-7.276-0.21563-1.0472-0.14634-1.6862 0.6852-2.2867 5.0162-3.6303 3.715-11.276 3.3069-11.368"/>
   <path d="m42.19 85.392c-5.0201-1.8594-7.2645-0.49282-7.7495 1.1203-0.40038 1.3282 0.44273 3.5148 3.5264 4.1115 5.5783 1.0856 10.718-0.29639 11.218-1.4321 0.80077-1.8132-0.59288-9.7937-4.2039-9.8592-1.8094-0.01964-2.7025 1.3782-2.7025 3.4532l-0.45811-0.56975c0-2.0365 1.1973-3.4956 3.176-3.4532 4.2463 0.09276 5.6168 8.5618 4.6312 10.706-0.69295 1.5014-6.1788 2.8296-11.792 1.7439-3.28-0.63522-4.5581-2.9566-4.0384-4.8468 0.60827-2.1982 3.4224-3.203 7.1836-1.8363z"/>
   <path d="m49.845 70.764c-0.84311 1.64-2.8142 3.0913-3.511 3.0913-0.74304 0-1.7747-1.359-2.7641-2.8411l0.45036-0.26561c0.95475 1.4822 1.8286 2.5909 2.3137 2.5909 0.56975 0 2.3714-1.359 3.2915-3.1067z"/>
   <path d="m48.69 68.016c-0.71991 1.4821-1.6284 2.8565-2.1828 2.8565-0.60052 0-1.6939-2.3098-2.4523-3.842l0.06111-0.9817c0.99709 2.075 2.1328 4.1616 2.433 4.2001 0.25023 0.03056 1.0471-1.0626 1.8787-2.8604z"/>
   <path d="m48.303 59.696c3.1029 5.5128 6.3174 13.682 8.9776 22.579 0.8777 2.9335-2.5331 4.3964-3.3185 1.3898-1.9172-7.3492-5.4243-16.223-9.378-23.707l0.59288 0.03055c3.919 7.4685 7.3761 16.227 9.2586 23.541 0.60827 2.3714 3.0836 1.128 2.3945-1.1357-2.6987-8.8621-5.9902-17.062-9.0161-22.617z"/>
   <path d="m57.502 46.941c2.4561 0.41577 3.8805 3.5187 2.5524 6.7755-1.7978 4.4272-4.8083 5.0855-6.9757 3.6188l0.47732-0.3503c1.8556 1.0856 4.3156 0.36186 5.9132-3.5264 1.1857-2.895 0.05784-5.5205-1.998-5.9324z"/>
   <path d="m59.679 53.776-0.18093 0.45811c4.5311 3.5071 9.1393 8.6889 9.2702 13.821 0.06875 2.6948-1.9441 3.0798-3.1991 1.64-0.46586-0.53123-0.49663-0.52359-0.90466 0.14634-1.2512 2.0558-3.5533 1.613-3.4571-0.48889 0.21563-4.7852-0.6852-8.1922-3.2107-12.904l-0.37725 0.33109c2.3714 4.5196 3.0798 7.815 2.9104 12.673-0.10367 2.8527 3.4494 3.1606 4.5812 0.36961 1.4128 2.2021 4.3694 1.7131 4.3271-1.7131-0.06111-5.328-5.0008-10.737-9.7591-14.333"/>
   <path d="m32.096 33.499c2.0211-2.8488 2.7834-8.0306 1.5399-9.224-1.6977-1.6323-6.6639-0.37343-9.6051 2.3368-3.7034 3.4147-4.8507 7.711-2.9604 9.5396 1.5245 1.4706 5.4551 1.0009 8.2769-0.41577l0.40038 0.52741c-3.0413 1.5591-7.3645 2.0404-9.1239 0.3157-1.8941-1.8556-1.3436-6.3983 3.0721-10.394 3.3108-2.9951 8.3616-4.0692 10.348-2.3329 1.536 1.3436 0.80077 7.0758-1.5591 10.209z"/>
   <path d="m31.946 39.701c-0.87388-1.2627-1.3282-1.9095-2.1636-3.0451-0.76225-1.024-1.1164-1.3782-1.7824-1.69-0.63141-0.30032-0.53898-0.5082 0.13084-0.30796 0.70834 0.21171 1.3397 0.78146 2.0404 1.6708 0.91622 1.1665 1.4514 1.8633 2.1636 2.8411z"/>
   <path d="m32.697 33.96c0.89702 1.282 1.9826 2.6987 2.818 3.7612l-0.67756 0.04583c-0.79695-1.0202-1.7247-2.4022-2.5293-3.5148-0.70834-0.9817-0.95475-1.6746-1.0048-2.3791-0.06548-0.8239 0.1578-0.86232 0.32727-0.0502 0.15016 0.70452 0.33491 1.0933 1.0664 2.1366"/>
   <path d="m36.07 37.748c-0.02728-6.9026 3.0336-12.388 8.635-15.318 1.8671-0.97777 3.0297-1.5091 5.0008-2.2097 0.77382-0.27718 1.0048-0.20014 1.0125 0.71991 0.01964 3.0298-0.40038 5.3511-0.85075 6.9064l-0.62366 0.09276c0.51202-1.6977 0.95475-4.0345 1.0087-7.0065 0.0077-0.34648-0.05347-0.41577-0.3503-0.30414-1.8902 0.69677-2.8642 1.1203-4.9546 2.2791-5.2125 2.8758-8.3501 8.2346-8.3385 14.964z"/>
   <path d="m39.72 36.868c2.306-3.5726 4.331-6.4984 6.5638-9.1085 0.81616-0.95475 1.0432-0.77764 0.25798 0.20788-2.2098 2.7834-4.0884 5.5629-5.9517 8.5041z"/>
   <path d="m13.836 20.168c0.61984-1.4706-0.24248-3.1953-1.8671-3.1953-1.3243 0-2.1443 0.97788-2.1597 2.229-0.00769 1.0895 0.61984 1.948 1.6015 2.1712l-0.51202 0.32334c-1.024-0.38118-1.6785-1.3243-1.6669-2.4831 0.015278-1.486 1.1472-2.6794 2.7218-2.6794 1.8017 0 2.9566 1.64 2.4754 3.4186z"/>
   <path d="m19.103 13.544c-0.33873-0.31188-0.7892-0.51977-1.3474-0.52359-1.2473 0-2.1674 0.89702-2.1905 2.3021-0.02728 1.3821 0.93543 2.3984 2.1789 2.4176l-0.06111 0.46193c-1.5976-0.02292-2.7333-1.2704-2.7025-2.8989 0.02292-1.5014 1.1472-2.7141 2.7526-2.7141 0.63141 0.0077 1.1703 0.22327 1.6015 0.55818z"/>
   <path d="m11.249 51.293c-2.0943 0.01964-3.7496-0.98552-4.5696-2.6987-1.1588-2.4022-0.48125-5.9324 2.0904-9.1277l0.77382-0.12702c-2.7333 3.6765-3.2954 6.814-2.279 8.9237 0.63904 1.3205 2.0134 2.3252 3.6919 2.4253z"/>
   <path d="m3.2265 38.66c-3.1606-3.7265-0.76225-10.652 4.0461-14.66 4.9931-4.1539 9.4357-5.3588 11.534-4.689 1.0163 0.32727 0.95857 0.50427-0.09276 0.31952-2.4253-0.42734-6.4791 1.1087-10.991 4.8738-5.1856 4.3233-6.3713 10.833-4.0384 13.586 2.0211 2.3868 6.4214 1.4783 10.159-1.3436 0.58896-0.44273 0.75843-0.23102 0.2117 0.26179-3.4879 3.1414-8.6119 4.2732-10.829 1.6515"/>
   <path d="m17.437 19.288c-0.07748-11.16 14.837-19.949 19.688-16.615 3.2646 2.2406 3.2646 7.3645-0.012 11.896-0.42352 0.58896-0.63904 0.44654-0.27718-0.18475 2.7064-4.7236 2.8026-9.1316-0.14634-11.118-4.6197-3.1183-18.59 5.9594-18.737 16.023z"/>
   <path d="m38.494 11.503c3.3262-2.4022 8.2808-3.1837 10.652-0.41577 1.6207 1.8979 1.1703 6.6601-2.3791 10.698l-1.078 0.41577c3.9575-4.381 4.1885-9.1354 2.9143-10.625-2.0211-2.3714-6.9988-1.8132-10.506 1.051z"/>
  </g>
  <path d="m43.589 42.173c1.3051-1.513 1.8402-2.6332 2.1982-4.254 0.68913-3.0605 1.2512-5.7284 1.6669-7.5878 0.41577-1.8633 1.7901-2.8411 3.0605-2.4253 1.2743 0.41577 1.7709 2.0288 1.2242 4.0384-1.0048 3.6996-3.1221 9.3549-6.329 10.837-0.28493-0.74304-0.88163-1.024-1.8209-0.60827" fill="#1a9d6f"/>
  <path d="m53.878 46.618c2.5524-2.0481 4.1693-5.6014 5.278-9.3857 0.66982-2.2829 1.6977-3.5764 3.1568-3.1568 1.3743 0.39264 1.6207 2.4446 1.1049 4.4079-1.205 4.5504-4.8507 7.634-8.2307 9.2933-0.14241-0.81616-0.75068-1.2281-1.3089-1.1588" fill="#1a9d6f"/>
  <path d="m44.66 42.06c-0.98934-0.32727-2.5139 0.88927-3.2222 3.2492-0.73529 2.4484-0.15398 3.7997 0.69295 4.073 0.85075 0.27336 2.2252-0.60827 3.0297-3.0605 0.71609-2.1867 0.46968-3.9421-0.50045-4.2617" fill="#2e3132"/>
  <path d="m54.36 46.684c-0.92397-0.28875-2.306 0.73529-3.0259 2.9566-0.75068 2.3175-0.23484 3.8536 0.5775 4.1115 0.81998 0.26561 2.0904-0.5967 2.9143-2.9335 0.73529-2.0904 0.4735-3.842-0.46586-4.1346" fill="#2e3132"/>
  <path d="m44.487 42.663c-0.2618-0.09276-0.75843 0.1925-1.0586 0.99709-0.31177 0.83929-0.20788 1.5514 0.06548 1.6669 0.33873 0.14241 0.86232-0.16936 1.1934-1.1049 0.33491-0.93936 0.06111-1.4668-0.20014-1.5591" fill="#fff"/>
  <path d="m54.217 47.22c-0.36568-0.09603-0.83929 0.40038-1.0432 1.101-0.23484 0.78145-0.03055 1.2858 0.21945 1.3744 0.32334 0.10804 0.83154-0.17318 1.0626-1.0472 0.23866-0.89702 0.0077-1.359-0.23866-1.4282" fill="#fff"/>
  <path d="m36.957 38c1.7516 0.77764 2.075 3.8266 0.68138 6.6485-1.6169 3.2607-3.7535 4.2694-5.4743 3.3762-1.948-1.0087-2.4176-4.2424-0.84311-7.3453 1.3859-2.741 3.7034-3.5379 5.636-2.6794" fill="#fee679"/>
  <g fill="#fffff2">
   <path d="m15.257 51.312c-1.2704 4.0384 2.46 5.7015 4.2732 2.8719 3.561-5.5513 7.5647-8.1961 12.385-9.1239 0.33491-0.95857 0.87388-2.6101 1.1857-3.8382-7.7495-1.3166-17.974 0.83536-21.751 6.8333-1.6746 2.6679 0.5428 5.1817 3.9075 3.2569"/>
   <path d="m36.829 63.632c-0.281 2.51 0.38118 6.8987 1.3051 8.3539 0.47743 0.7545 1.4321 0.86614 2.5485 0.4042 2.7179-1.1203 5.0432-2.5216 7.1105-4.5889 0.31177-0.31178 0.47732-0.40802 0.8238-0.44273 0.80459-0.07312 1.8633-0.7007 2.4061-2.1443 0.16172-0.44272 0.64286-0.49663 1.101-0.16554 1.4013 1.0048 2.6871 0.36568 1.8902-1.4321-0.49282-1.1203-1.3397-2.0211-2.2944-2.7757-1.4013-1.1049-3.4378-0.13477-4.9392 3.3608-1.1126 2.5986-2.9066 4.2886-5.8208 5.4166-0.73529 0.28493-1.2319 0.18093-1.3936-0.43891-0.42352-1.5976-0.77764-3.6919-0.80841-5.7862-0.02292-1.3821-1.7516-1.3551-1.9287 0.23866"/>
   <path d="m49.675 66.991c-0.06875 1.1549 0.7545 2.0558 1.7901 1.9865 1.4437-0.09603 2.0558-1.6477 1.6631-3.4956-0.34266-0.07311-0.71991-0.2117-1.0356-0.44654-0.51584-0.38118-0.83536-0.26179-1.0163 0.13477-0.35422 0.77764-0.7892 1.4167-1.4013 1.8209"/>
  </g>
  <path d="m37.953 43.857c-1.9326 2.3291-4.6081 2.4176-5.894 0.84311l-0.13084 0.33109c-0.57357 0.12702-1.051 0.27718-1.4513 0.385 0.10804 1.1395 0.8238 2.46 2.1443 2.8103 1.9172 0.5082 4.1962-1.282 5.3319-4.3695" fill="#cbb861"/>
  <g fill="#ccccc2">
   <path d="m11.046 49.073c0.28493 1.8748 1.6631 2.7526 4.2732 2.1482l-0.012 0.06875c-1.8902 1.4706-5.2587 0.53516-4.2617-2.2174"/>
   <path d="m15.317 51.423c-0.18093 2.9682 2.1212 4.0961 3.6072 1.8017 3.0143-4.6582 7.1952-8.2885 13.27-9.0084l-0.26943 0.81616c-5.6245 1.0394-9.4665 4.5773-12.358 9.07-1.5129 2.3522-5.4743 1.998-4.3733-2.6448 0.05347-0.24259 0.13859-0.26561 0.1232-0.03492"/>
   <path d="m39.246 71.77c0.23102 0.11938 0.52359 0.07312 0.90859-0.06111 2.6024-0.89702 5.3434-2.5947 7.0065-4.3117 0.36961-0.385 0.87006-0.64286 1.2358-0.70452 0.93936-0.16173 1.6092-1.051 1.9788-2.1828 0.35422-1.1049 0.8238-1.2435 1.5245-0.61209 1.2666 1.1434 2.1828 0.99327 2.2637 0.06548 0.41195 1.6708-0.88163 1.8979-2.0827 1.0472-0.53898-0.38118-0.92397-0.24641-1.0626 0.19632-0.30795 0.96631-1.2281 1.998-2.3406 2.1443-0.37725 0.04583-0.65825 0.19632-0.90466 0.43891-1.8017 1.7632-4.4118 3.7112-7.4685 4.7005-1.2512 0.4042-2.0404-0.06111-2.2752-0.63522-0.37725-0.9124-0.83536-2.2521-0.90859-3.5572 0 0 0.95475 2.8642 2.1251 3.4725"/>
   <path d="m52.416 65.213c0.32334 0.87388 0.28493 2.3021-0.08839 3.4378-1.0972 0.80077-2.7179-0.03819-2.6756-1.6708 0.65825-0.27336 1.0702-1.0471 1.3051-1.717 0.23866-0.67375 0.72373-0.61984 1.4591-0.0502"/>
  </g>
  <g>
   <path d="m37.904 72.109c-0.90466-1.4283-1.7131-5.79-1.2396-8.5002 0.1004-0.5775 0.38882-0.53123 0.33109 0.0502-0.29257 2.7102 0.48507 6.7871 1.3628 8.1691 0.385 0.60827 1.0856 0.77764 2.2252 0.30414 2.8988-1.1934 5.1394-2.5485 7.0489-4.458 0.40802-0.40802 0.55436-0.49663 0.99327-0.53516 0.71609-0.06548 1.6746-0.60052 2.1982-2.0019 0.21171-0.56211 0.71216-0.79302 1.4282-0.27718 1.2319 0.88927 2.1789 0.29639 1.5245-1.1819-0.42734-0.97013-1.1395-1.794-2.2213-2.6448-1.459-1.1511-3.3069 0.30796-4.5889 3.2954-1.1434 2.6679-2.868 4.3348-5.9517 5.5282-1.0895 0.41959-1.4976 0.1004-1.69-0.61209-0.43891-1.6477-0.75068-3.4994-0.73529-5.8516 0.0077-0.69295 0.30795-0.69295 0.33491 0 0.08839 2.3522 0.43891 4.1693 0.8777 5.7053 0.11546 0.40813 0.37343 0.52741 1.078 0.25797 2.8565-1.1049 4.5966-2.6756 5.6976-5.2664 1.6361-3.842 3.7727-4.6004 5.2972-3.4263 1.2011 0.93161 1.8979 1.8209 2.3522 2.8411 0.82772 1.871-0.53123 2.9412-2.2097 1.7324-0.51202-0.36961-0.67375-0.27336-0.79695 0.05784-0.5775 1.5437-1.7247 2.1905-2.5755 2.2675-0.27718 0.02292-0.48125 0.14634-0.70834 0.385-1.8902 2.0019-4.2501 3.4763-7.1913 4.689-1.1819 0.48889-2.2521 0.40038-2.8411-0.52741"/>
   <path d="m49.938 66.833c-0.09603 1.1511 0.5967 1.9403 1.5399 1.871 1.2435-0.08075 1.7632-1.3936 1.4244-3.3031l0.46586 0.11164c0.43891 2.0558-0.34648 3.588-1.8979 3.6919-1.078 0.06875-2.0712-0.76607-2.0327-2.1366z"/>
   <path d="m31.746 44.861c-5.1086 0.94318-9.0584 3.8844-12.454 9.1508-1.5168 2.3483-4.5658 1.282-3.9421-2.1982 0.12702-0.71216 0.11546-0.77382-0.60827-0.48125-2.9643 1.205-4.5119-0.96239-3.126-3.1221 3.7265-5.8208 13.505-7.969 21.185-6.8025-0.41577 1.051-0.81998 2.4099-1.0548 3.4532m1.3205-3.8574c-7.815-1.3898-18.244 0.69677-22.044 6.8795-1.7747 2.8912 0.61591 5.4974 3.9344 3.8536-1.0702 3.996 2.945 5.713 4.8776 2.7564 3.3916-5.174 6.9834-8.2192 12.015-9.1855 0.18093-0.03492 0.28493-0.11546 0.32334-0.29257 0.26561-1.1395 0.66982-2.4985 1.1203-3.6572 0.09276-0.23102 0.012-0.31188-0.22709-0.35422"/>
   <path d="m41.762 45.363c-0.666 2.2174-0.30032 3.5687 0.44654 3.8112 0.64679 0.20407 1.8787-0.43498 2.6987-2.9374 0.66218-2.0211 0.5775-3.6842-0.31178-3.9768-0.79695-0.26561-2.1251 0.7545-2.8334 3.1029m0.281 4.2155c-1.0047-0.32727-1.5707-1.8517-0.81616-4.3733 0.76989-2.5447 2.3984-3.7304 3.5225-3.3608 1.1973 0.39657 1.3898 2.3406 0.65443 4.5735-0.81616 2.4792-2.2675 3.5148-3.3608 3.1606"/>
   <path d="m51.604 49.744c-0.63522 1.9595-0.38882 3.561 0.37343 3.8074 0.62366 0.20407 1.7593-0.45429 2.5909-2.818 0.80841-2.3137 0.4042-3.6419-0.28875-3.8574-0.83929-0.25798-2.0134 0.83536-2.6756 2.868m0.23866 4.2116c-1.2088-0.38882-1.4013-2.4022-0.7545-4.3925 0.77764-2.3984 2.2482-3.4263 3.33-3.0913 1.1857 0.36961 1.4013 2.3098 0.65061 4.4464-0.97777 2.7988-2.4022 3.3069-3.2261 3.0374"/>
   <path d="m45.277 42.571c3.4494-1.5591 5.4628-7.9651 6.2019-10.706 0.50045-1.8363 0.11938-3.2915-1.0432-3.6726-1.0933-0.35804-2.3522 0.63522-2.6987 2.2021-0.41577 1.8902-1.0047 4.5581-1.69 7.5609-0.45811 2.0096-1.0818 3.0182-2.075 4.1385l-1.0279 0.47732c1.5784-1.5976 2.1636-2.9027 2.587-4.7352 0.67756-2.9335 1.1973-5.5744 1.6554-7.5686 0.47732-2.0981 2.0096-3.126 3.434-2.6602 1.3705 0.44655 1.9942 2.0211 1.3743 4.4041-0.75068 2.9027-2.9643 9.4088-6.5523 11.018z"/>
   <path d="m55.119 47.528c2.1328-1.0048 6.8256-4.0037 8.0806-9.1239 0.51977-2.1559 0.09603-3.7343-0.97395-4.0422-1.078-0.30414-2.0827 0.51584-2.8295 2.9374-1.4437 4.6813-2.9874 7.4954-5.1586 9.3125l-0.82772 0.07312c2.4484-1.8171 4.1154-4.8661 5.4897-9.5474 0.8777-2.9835 2.2752-3.6765 3.511-3.3262 0.95475 0.27336 2.0404 1.7054 1.2473 4.739-1.4668 5.5898-6.3328 8.4425-8.4502 9.4742z"/>
   <path d="m30.773 40.94c1.2242-2.8103 3.6649-4.3656 6.252-3.2145 1.5976 0.70834 2.6255 3.6765 0.90466 7.1413-1.998 4.0345-4.6543 4.0769-5.9016 3.4301-1.0163-0.52741-1.64-1.5707-1.871-2.8373l0.5967-0.11546c0.16936 1.1126 0.66982 2.0096 1.5052 2.4407 1.359 0.70834 3.4263 0.09603 5.1009-3.2838 1.6977-3.434 0.5428-5.7862-0.53123-6.2635-2.2906-1.0202-4.2771 0.5428-5.3203 2.7487z"/>
  </g>
 </g>
</svg>
