<?xml version="1.0" encoding="UTF-8"?>
<!-- Created with Inkscape (http://www.inkscape.org/) -->
<svg version="1.1" viewBox="0 0 172.05 228.79" xmlns="http://www.w3.org/2000/svg">
 <g transform="translate(-103.99 -17.45)">
  <path d="m258.19 115.49c1.0934-2.8294 1.8934-5.7922 2.3681-8.8828 0.35755-2.3494 0.55485-4.7175 0.59189-7.0882 13.248-5.9415 18.478-21.115 12.315-34.475-7.3655-15.976-24.59-20.44-37.222-14.934-3.5041-2.7521-7.3388-5.2268-11.48-7.3575 0.90937-3.4774 1.5948-7.9602 0.64253-8.7948-0.81866-0.71737-4.8988 0.2109-7.9335 2.7361 0.46641-7.6455-0.58659-17.838-2.5601-18.531-2.056-0.72266-8.7282 8.0429-12.147 13.278-1.8347-6.8642-4.9761-13.955-6.8028-13.987-1.6667-0.0302-7.0801 10.328-9.2135 19.707-5.9415 1.3334-11.931 3.3014-17.683 5.9494-12.454-7.9761-29.179-4.7841-37.972 6.8109-8.3948 11.078-8.2588 26.374 0.75199 34.875-0.34137 1.2294-0.6507 2.4827-0.92269 3.7628-0.88802 4.1734-1.16 8.4268-0.81869 12.646-6.5415-1.5681-12.648-0.99207-13.283 0.66673-1.0214 2.6721 8.9549 10.008 16.803 13.328 2.7094 6.2428 6.9255 12.088 12.656 17.11-2.5254-0.21318-4.5921-0.20789-6.8028 0 0.0506-2.9094-1.1014-5.3494-3.1707-6.6135-3.2107-1.96-7.4695-0.57601-9.0775 1.9733-5.0454-1.6373-9.0882 0.48001-10.622 4.2988-1.232 3.0694-0.35997 7.4108 3.4374 9.5389-0.84269 4.2054 0.78669 8.1361 4.1148 9.9042 2.7334 1.4508 6.8748 1.2801 9.4349-1.7253 3.5254 2.8934 10.067 6.6401 15.952 8.3868-3.2054 3.8908-5.9041 8.2935-8.0428 13.187-0.17598 0.31446-0.34931 0.65841-0.53066 1.0293-5.6908-1.8773-11.51-1.7254-16.046-0.0756-4.2134-2.1628-8.7762-2.1681-12.47-0.57374-6.7201 2.9014-10.936 12.59-6.8748 22.152 4.1334 9.7309 12.726 12.576 18.995 10.79 1.368-0.3893 2.5947-0.93863 3.6881-1.6134 4.1121-1.0533 8.2962-1.376 11.174-0.80264 6.2028 5.8161 13.622 10.176 21.555 12.886-1.9253 6.0614 2.1014 12.334 9.3042 13.264 6.4055 0.82932 12.334-2.1894 12.955-9.5042 1.8347 1.5174 3.4294 5.1788 1.7413 8.1788-3.6374 6.4588-2.8267 18.376 12.592 19.219 11.174 0.59491 14.792-7.6935 12.331-14.87 4.5068-2.5308 8.3549-6.8269 9.9336-12.664 1.8294-6.7682-0.43164-13.224-4.8721-21.683 0.0529-1.0401 0.0227-1.7547-0.17084-2.8321 2.1227-7.9495 2.4081-13.59 1.7333-20.483 12.051-9.8348 21.931-23.067 26.905-32.777 4.5628 0.87733 8.4962-0.64253 10.286-4.3255 1.776-3.6507 0.77338-7.2828-1.8934-8.7762 8.8856-1.096 20.376-4.5681 20.472-6.9361 0.0907-2.16-6.4748-5.4054-14.123-5.3761"/>
  <path d="m258.19 115.49c1.0934-2.8294 1.8934-5.7922 2.3681-8.8828 0.35755-2.3494 0.55485-4.7175 0.59189-7.0882 13.248-5.9415 18.478-21.115 12.315-34.475-7.3655-15.976-24.59-20.44-37.222-14.934-3.5041-2.7521-7.3388-5.2268-11.48-7.3575 0.90937-3.4774 1.5948-7.9602 0.64253-8.7948-0.81866-0.71737-4.8988 0.2109-7.9335 2.7361 0.46641-7.6455-0.58659-17.838-2.5601-18.531-2.056-0.72266-8.7282 8.0429-12.147 13.278-1.8347-6.8642-4.9761-13.955-6.8028-13.987-1.6667-0.0302-7.0801 10.328-9.2135 19.707-5.9415 1.3334-11.931 3.3014-17.683 5.9494-12.454-7.9761-29.179-4.7841-37.972 6.8109-8.3948 11.078-8.2588 26.374 0.75199 34.875-0.34137 1.2294-0.6507 2.4827-0.92269 3.7628-0.88802 4.1734-1.16 8.4268-0.81869 12.646-6.5415-1.5681-12.648-0.99207-13.283 0.66673-1.0214 2.6721 8.9549 10.008 16.803 13.328 2.7094 6.2428 6.9255 12.088 12.656 17.11-2.5254-0.21318-4.5921-0.20789-6.8028 0 0.0506-2.9094-1.1014-5.3494-3.1707-6.6135-3.2107-1.96-7.4695-0.57601-9.0775 1.9733-5.0454-1.6373-9.0882 0.48001-10.622 4.2988-1.232 3.0694-0.35997 7.4108 3.4374 9.5389-0.84269 4.2054 0.78669 8.1361 4.1148 9.9042 2.7334 1.4508 6.8748 1.2801 9.4349-1.7253 3.5254 2.8934 10.067 6.6401 15.952 8.3868-3.2054 3.8908-5.9041 8.2935-8.0428 13.187-0.17598 0.31446-0.34931 0.65841-0.53066 1.0293-5.6908-1.8773-11.51-1.7254-16.046-0.0756-4.2134-2.1628-8.7762-2.1681-12.47-0.57374-6.7201 2.9014-10.936 12.59-6.8748 22.152 4.1334 9.7309 12.726 12.576 18.995 10.79 1.368-0.3893 2.5947-0.93863 3.6881-1.6134 4.1121-1.0533 8.2962-1.376 11.174-0.80264 6.2028 5.8161 13.622 10.176 21.555 12.886-1.9253 6.0614 2.1014 12.334 9.3042 13.264 6.4055 0.82932 12.334-2.1894 12.955-9.5042 1.8347 1.5174 3.4294 5.1788 1.7413 8.1788-3.6374 6.4588-2.8267 18.376 12.592 19.219 11.174 0.59491 14.792-7.6935 12.331-14.87 4.5068-2.5308 8.3549-6.8269 9.9336-12.664 1.8294-6.7682-0.43164-13.224-4.8721-21.683 0.0529-1.0401 0.0227-1.7547-0.17084-2.8321 2.1227-7.9495 2.4081-13.59 1.7333-20.483 12.051-9.8348 21.931-23.067 26.905-32.777 4.5628 0.87733 8.4962-0.64253 10.286-4.3255 1.776-3.6507 0.77338-7.2828-1.8934-8.7762 8.8856-1.096 20.376-4.5681 20.472-6.9361 0.0907-2.16-6.4748-5.4054-14.123-5.3761z" fill="none" stroke-linecap="round" stroke-linejoin="round" stroke-miterlimit="10" stroke-width="6.1335"/>
  <path d="m113.73 171.87c-7.6482 2.0454-10.856 13.264-7.7975 21.056 3.6961 9.4162 12.832 12.71 18.664 11.054 8.6429-2.4587 11.691-12.734 8.7175-20.998-2.6374-7.3255-10.219-13.616-19.584-11.112" fill="#515557"/>
  <path d="m150.63 133.93c-4.0214-0.87203-7.6562-1.3094-11.872-0.97068 0.144-6.8802-6.6401-9.9336-11.438-4.6028-10.71-3.1494-13.955 8.8669-6.3495 12.939-2.8587 6.7842 6.3015 14.587 12.747 7.4135 4.7014 3.6348 11.342 7.5602 17.155 8.9175-3.7307 4.6428-6.4295 9.3282-8.0962 13.059 4.0508-0.55712 8.0962-0.55712 11.59-0.31749l43.985 11.432c5.2375 2.4614 11.987 7.9388 15.638 11.987 1.8267-6.1921 2.2241-13.339 1.5094-20.166 9.1309-8.4135 21.195-21.038 27.547-33.422 8.8562 2.1014 15.016-8.5122 7.6695-12.296 7.1255-9.4989-5.2695-15.88-10.39-10.166-2.7468-3.7121-14.027-3.1948-11.947 11.947-7.7948 4.8241-17.366 11.95-19.592 17.811-26.123 2.5227-46.108-3.8294-58.156-13.566" fill="#515557"/>
  <path d="m256.93 116.39c10.08-34.366-8.2429-59.196-32.993-73.316 1.0587-3.6294 1.632-7.9095 0.86666-8.4188-0.76529-0.51176-4.6614 0.12548-8.3015 3.7654 0.70377-6.0028-0.12775-18.838-1.9787-19.347-1.8534-0.51176-9.0056 9.5149-11.878 14.176-1.5973-5.6854-4.7254-14.942-6.7068-14.688-1.9787 0.25626-7.1495 12.387-8.8109 19.795-28.521 5.8641-55.324 28.854-56.036 58.225-0.70399 29.07 28.585 55.761 78.071 50.761 3.0801-6.0082 6.4215-9.7576 19.222-17.662-2.8187-13.579 8.4589-16.475 11.947-11.947 3.1201-3.6374 9.1308-2.7467 11.654 1.1866 1.44 2.2428 0.83197 5.8935-0.66672 7.9416 8.3842-0.37041 19.96-4.4534 20.11-6.2348 0.14967-1.7813-7.0322-4.4667-14.499-4.2374" fill="#fffef7"/>
  <path d="m169.16 110.83c-2.2961 0.78397-3.0881 2.9654-3.1895 4.9734-0.88269 17.054 7.1895 30.329 22.113 31.019 15.651 0.72568 27.609-10.464 28.795-25.974 0.18142-2.368-0.65085-4.1307-2.3014-5.2694-14.024-9.6909-30.87-9.7202-45.417-4.7495" fill="#ee869a"/>
  <g fill="#515557">
   <path d="m168.18 68.482c-8.0775-3.6107-20.139 0.82668-26.329 13.28-6.2881 12.659-4.2694 26.561 4.1174 30.523 9.0855 4.2908 21.046-1.392 27.417-16.467 4.6588-11.027 2.8241-23.747-5.2054-27.337"/>
   <path d="m224.22 73.689c8.9069-2.7121 20.083 4.1014 24.072 17.424 4.0535 13.542-0.66143 27.022-9.6002 29.507-10.254 2.8481-21.355-2.3227-25.507-19.763-2.904-12.198 2.6214-24.609 11.035-27.169"/>
   <path d="m202.39 93.969c-0.53065-5.7441-18.486-6.9628-19.43-1.2693-0.58433 3.5227 4.8215 8.3335 8.5362 8.7175 4.3921 0.45582 11.219-3.9334 10.894-7.4482"/>
  </g>
  <g fill="#674b4a">
   <path d="m132.8 134.1c-2.4481-1.0773-5.7175-0.15724-7.1628 2.8214-1.752 3.6107-0.35468 7.1095 2.08 8.1629 2.4854 1.0747 5.7868-0.18671 7.2722-3.6374 1.32-3.0694 0.24537-6.2775-2.1894-7.3469"/>
   <path d="m236.44 124.68c-2.528 1.248-4.3041 5.9175-1.4907 10.158 2.2587 3.4028 6.1788 3.6134 8.6028 1.9894 2.7361-1.832 3.2934-6.1842 1.3681-9.0402-2.5067-3.7201-5.8402-4.4134-8.4802-3.1068"/>
   <path d="m117.12 184.75c-3.7281 1.2801-5.4108 6.3735-3.6187 10.464 1.7814 4.0614 6.0668 5.6775 9.6295 4.0054 3.8988-1.8267 5.0081-6.9014 2.8374-10.966-1.8134-3.3947-5.8161-4.5467-8.8482-3.5041"/>
  </g>
  <path d="m168.82 44.05c-10.928-7.9362-29.025-4.2508-35.902 4.9468-10.515 14.067-8.1575 29.758 0.45068 35.675 4.1974-15.664 16.864-31.929 35.451-40.622" fill="#515557"/>
  <path d="m236.2 51.17c12.443-5.4721 28.19-0.65841 35.227 12.291 7.0454 12.968 2.848 29.907-11.392 35.529-1.424-20.688-8.3202-34.102-23.835-47.82" fill="#515557"/>
  <path d="m176.38 83.259c-1.2774-14.619-18.694-16.216-24.126 2.3174-5.2534 17.91 3.2747 28.438 17.094 17.814 4.3148-6.5495 6.4721-12.702 7.0322-20.131"/>
  <path d="m236.13 93.409c-1.128-18.846-16.659-21.784-21.888-10.547-3.1947 6.8722-2.464 15.352-0.23736 20.851 5.7495 14.219 23.539 13.326 22.126-10.304"/>
  <path d="m166.19 114.24c4.5254 2.5974 10.76 6.0855 17.216 7.0509 2.4508-2.9708 4.6748-4.7495 7.6428-7.4215 2.8961 4.0054 4.2321 5.4161 6.6802 8.5335 5.6402 0.0756 13.878-1.0401 18.702-4.7495-2.7467-4.0801-14.694-9.7229-24.713-10.019-10.019-0.29633-18.328 1.448-22.115 3.0427-1.4107 0.59491-2.5974 1.2614-3.4134 3.5627"/>
  <path d="m166.19 114.24c4.5254 2.5974 10.76 6.0855 17.216 7.0509 2.4508-2.9708 4.6748-4.7495 7.6428-7.4215 2.8961 4.0054 4.2321 5.4161 6.6802 8.5335 5.6402 0.0756 13.878-1.0401 18.702-4.7495-2.7467-4.0801-14.694-9.7229-24.713-10.019-10.019-0.29633-18.328 1.448-22.115 3.0427-1.4107 0.59491-2.5974 1.2614-3.4134 3.5627" fill="#fff"/>
  <path d="m184.63 229.71c2.1974-1.0987 5.0028-0.93598 8.2588 1.2213 3.2534 2.1548 9.9655 3.2935 16.11-0.0824 2.4801 6.4695-0.39988 14.888-10.984 14.563-11.96-0.36511-15.662-9.0722-13.384-15.702" fill="#515557"/>
  <path d="m213.99 193.78c-3.1281-3.3227-8.1148-8.2588-15.64-11.987 2.9387-8.5548 5.9814-23.619 3.7547-24.582-2.2267-0.9653-14.024 9.3496-20.48 20.259 0.52007-7.7921-0.59189-16.4-1.7814-16.846-1.1866-0.44525-6.9015 7.2721-9.1282 13.95-0.44524-8.7549-2.9681-25.305-5.1201-25.601-2.1547-0.29859-7.9815 9.8989-11.227 21.387-3.4667-0.46111-8.4322-0.23962-11.59 0.31749l-1.0054 2.6374c-4.4534-1.6348-11.283-2.3761-16.475-0.37039 10.982 7.7175 12.763 22.187 2.3734 29.534 4.1548-1.2613 8.3868-1.632 12.171-1.2613 6.9015 7.0509 23.601 16.995 42.374 16.104 3.6373 1.112 4.9894 6.7228 3.7867 9.1281-0.74383 1.4854-0.96539 2.2001-1.3734 3.2508 3.2267-1.3974 5.4561-0.58131 8.7202 1.424 5.9975 3.6828 15.654 2.5121 21.52-4.8988 6.9921-8.8296 5.8614-17.587-0.81602-28.793z" fill="#727171"/>
  <path d="m161.84 214.41c-1.7307 4.9308 0.90401 12.08 8.3549 12.984 7.4535 0.90402 12.195-2.4828 12.422-9.8989-6.7761-0.0756-14.339-0.86403-20.776-3.0854" fill="#dddcd7"/>
  <path d="m113.67 195.55c1.8694 3.8054 6.0028 5.288 9.4615 3.6667 1.4614-0.68562 2.5334-1.8293 3.1841-3.2027-3.9334 1.416-8.6162 1.1787-12.646-0.46413" fill="#503a38"/>
  <path d="m134.43 186.63c-1.024 4.9388-4.1974 7.9762-8.1122 9.3869-0.6507 1.3734-1.7227 2.5147-3.1841 3.2027-3.4587 1.6214-7.5922 0.13833-9.4615-3.6667-4.3388-1.7708-7.9148-5.1575-8.9629-9.8616 0.17598 8.3256 5.6268 18.699 16.296 18.699s13.952-10.024 13.424-17.76" fill="#38393a"/>
  <path d="m134.28 193.13c5.4721-0.98663 7.4455-0.0378 9.5762 2.2801 11.248 12.235 28.049 17.243 38.305 16.795 3.1734-0.13608 5.8695 1.2213 7.8268 6.2321 3.7975 9.7283 23.939 9.4242 29.638-4.0267-0.76008 13.528-16.11 23.254-26.902 16.416-2.6427-1.6748-5.4721-2.432-8.1335-0.83734 3.0401-4.9388 2.3574-9.9549-1.9733-12.486-14.822-0.13077-29.793-4.0827-42.713-16.166-3.6481-0.37872-7.3735-0.22904-12.16 0.91203 3.4214-2.2027 5.3948-5.2454 6.5361-9.1202" fill="#595857"/>
  <g fill="#38393a">
   <path d="m205.83 231.97c1.3547 6.0721 0.51705 10.595-2.9067 12.854-10.808 3.5521-22.088-4.1441-18.088-15.243 2.1334-1.0987 5.4268-0.51706 8.9149 1.808 3.488 2.3254 8.4002 2.3254 12.08 0.5813"/>
   <path d="m117.8 131.98c-0.46398 4.008 2.264 6.6242 4.8988 7.8668 1.5467 0.72795 1.2614 3.0427-0.81602 2.2267-4.4694-1.7547-6.1415-7.1255-4.0828-10.094"/>
   <path d="m121.9 141.82c-0.3707 4.6028 6.4321 9.0935 11.278 4.2481 0.40268-0.40517 0.62137-0.37646 1.128-0.16026 6.5041 2.768 15.11 5.5148 21.883 5.9388-1.7254 1.7253-2.8401 3.0613-5.0108 5.7334-5.4534-1.7814-11.52-4.3974-17.587-8.8482-7.2935 7.1228-14.918-0.72492-12.803-7.2935z"/>
   <path d="m253.91 132.8c-2.6721 4.3788-6.5309 5.1948-10.686 4.6748-1.0027-0.1255-2.1174 0.41575-2.9708 1.5574-7.8642 10.539-19.331 21.336-28.161 28.091-1.8774 1.4347-1.8347 2.3734-0.98935 3.6721 2.4774 3.8001 3.816 6.2161 4.5921 13.067 0.22148-3.8588 0.29103-8.0962 0.068-10.395 9.0535-8.2375 22.483-24.862 27.011-33.025 5.1948 0.3704 10.838-1.408 11.134-7.6428"/>
  </g>
  <path d="m252.71 121.99c4.6321-0.0454 12.827-0.55712 18.403-1.6293 0.55712 1.5013-6.3468 4.7174-19.819 6.7761 0.9867-1.2427 1.4587-3.2587 1.4161-5.1468" fill="#dddcd7"/>
  <g fill="#38393a">
   <path d="m127.3 60.503c0.20002 7.9174 3.4081 14.032 8.1175 17.238-0.80002 2.4054-1.4027 4.1094-2.2054 6.6135-5.6108-3.4054-9.4189-14.931-5.9121-23.851"/>
   <path d="m259.8 91.569c6.3148-1.7041 12.928-8.1175 15.235-16.736 0.39988 9.7202-5.0134 20.344-14.934 24.054 0-2.6054 0.10129-4.7121-0.30161-7.3175"/>
   <path d="m147.7 132.65c9.5522 13.915 36.713 25.603 60.647 20.595-0.33563-1.448 0-4.2321 0.89071-5.9015-22.598 2.7841-44.484-1.8907-61.537-14.694"/>
  </g>
  <path d="m176.38 83.259c-1.2774-14.619-18.694-16.216-24.126 2.3174-5.2534 17.91 3.2747 28.438 17.094 17.814 4.3148-6.5495 6.4721-12.702 7.0322-20.131" fill="#fff"/>
  <path d="m183.35 92.319c1.3947 3.9628 5.7521 6.4428 8.9202 6.6908 2.8721 0.22148 7.2295-1.6454 9.6829-4.6374 0 2.8773-4.2828 7.5121-10.152 6.9841-5.8668-0.53066-9.2136-5.5175-8.4508-9.0375" fill="#38393a"/>
  <path d="m168.94 133.54c11.576-10.464 31.614-9.3496 41.02 4.0081 4.008-5.6215 8.1841-15.64 6.3468-19.814-4.3974 3.0054-11.632 5.3414-18.422 4.6188-2.672-3.3948-4.8428-6.2348-6.6241-8.6828-3.3414 2.728-5.0668 4.8427-7.7922 7.6242-5.3441-1.3894-11.302-3.3388-17.31-7.0668-0.77868 4.2854-0.33336 11.966 2.7814 19.312" fill="#933000"/>
  <path d="m206.54 140.76c3.4454-0.62363 6.8081-1.5414 10.038-2.7734-3.1894 2.672-5.9361 5.7895-7.3468 9.3522-38.441 4.6001-65.455-11.875-74.138-32.134l2.9681 0.81601c7.5415 10.019 19.878 17.883 33.646 22.171 8.1362 10.854 24.537 11.448 34.833 2.5681" fill="#dddcd7"/>
  <path d="m236.13 93.409c-1.128-18.846-16.659-21.784-21.888-10.547-3.1947 6.8722-2.464 15.352-0.23736 20.851 5.7495 14.219 23.539 13.326 22.126-10.304" fill="#fff"/>
  <g fill="#0f141b">
   <path d="m208.64 148.39c-6.5015 0.77868-13.398 0.86667-20.558 0.18898-43.862-4.1388-62.764-33.646-57.156-60.028 6.4001-30.107 31.971-46.241 56.519-51.553l-0.42407 2.104c-22.531 5.0081-47.465 20.686-53.673 49.892-6.1468 28.929 17.459 54.169 55.007 57.713 7.2162 0.6826 14.254 0.50949 20.912-0.43466z"/>
   <path d="m255.16 116.31c1.4053-3.176 2.4053-6.5521 2.9494-10.107 3.8027-24.854-11.731-50.022-36.387-63.561-1.7547-0.96539-1.3653-2.008 0.44524-1.1627 27.219 12.696 42.254 39.841 38.388 65.127-0.51176 3.344-1.4027 6.5441-2.6401 9.5788z"/>
   <path d="m223.22 42.577c0.87732-3.2987 1.3414-7.0695 1.0187-7.2855-0.45583-0.3069-4.2587 0.89872-7.4322 3.4748-1.224 0.99207-1.768 0.54426-0.76265-0.66143 2.9894-3.5841 8.4055-4.9921 9.3602-4.1548 1.0027 0.87732 0.1973 5.7734-0.77875 9.3095z"/>
   <path d="m214.91 18.158c2.0588 0.72266 3.1148 11.8 2.4908 19.52l-1.4907 1.0027c0.48757-8.5362-0.84807-18.296-1.5281-18.491-0.81329-0.23433-8.3042 8.9683-11.691 14.318l-0.66672-1.92c3.0881-4.9681 10.67-15.208 12.886-14.43"/>
   <path d="m195.96 17.449c2.3654 0.0454 6.9308 11.896 8.0134 19.792 0.33865 2.4694-0.37872 2.5867-0.98134 0.23736-1.8827-7.3548-6.1148-17.984-7.0321-17.966-0.55485 8e-3 -6.9868 12.115-8.9309 21.95-0.3893 1.9547-1.224 1.8827-1.0053-0.11716 1.1147-10.163 8.0162-23.931 9.9362-23.897"/>
   <path d="m132.88 85.709c-10.027-8.2775-10.496-24.307-1.7867-35.795 9.0509-11.939 26.518-14.971 39.068-6.0722l-1.8347 1.0294c-11.443-7.7548-27.502-4.3308-35.63 6.3894-8.0082 10.566-7.4748 24.995 0.77601 32.425z"/>
   <path d="m259.93 97.999c10.488-4.6054 18.008-18.08 11.518-32.155-7.0508-15.291-23.456-18.918-34.686-13.899l-1.5307-1.3734c12.71-6.2082 30.67-1.9387 38.235 14.464 6.3335 13.739 0.62969 29.393-13.451 34.958z"/>
   <path d="m251.83 126.1c7.3521-0.86666 18.291-4.2134 18.536-5.4775 0.22904-1.1814-8.9495-4.6668-18.408-3.2854-1.9574 0.28574-2.1468-0.45355-0.24568-0.97869 9.9896-2.7787 20.715 1.7494 20.603 4.5068-0.1013 2.464-12.515 6.1174-21.515 7.0588z"/>
   <path d="m142.79 82.219c-6.2881 12.654-3.7628 25.729 3.6027 29.209 8.9922 4.2428 19.832-1.5813 25.939-16.032 4.4375-10.502 2.8881-22.646-4.576-25.982-8.1095-3.6268-19.264 1.3307-24.966 12.806m2.6721 31.017c-9.1442-4.3201-10.787-19.576-4.5921-32.046 6.4268-12.934 19.382-17.486 27.761-13.579 8.5095 3.9681 10.731 16.75 5.7467 28.553-7.1121 16.827-20.064 21.251-28.915 17.072"/>
   <path d="m168.75 104.3c-4.7121 4.136-9.9922 4.9387-13.654 2.8-5.8348-3.4054-6.5415-12.451-3.5787-21.683 2.9654-9.2482 9.5149-14.995 15.611-14.131 3.816 0.53897 6.9174 3.1707 8.5975 7.7628l-0.33336 5.6215c-0.11188-6.6775-3.8401-11.475-8.4615-11.883-6.3494-0.5624-11.648 6.0508-13.899 13.067-3.4347 10.71-1.0267 17.603 2.9921 19.947 4.0668 2.3814 9.8509 0.29859 14.824-5.6028z"/>
   <path d="m244.51 115.47c4.2881-5.4428 5.4134-14.91 2.664-24.091-3.6587-12.222-13.859-19.432-22.654-16.755-8.4536 2.5734-13.118 14.51-10.358 26.091 2.8347 11.904 8.7122 17.526 15.038 19.144l-0.8613 1.928c-7.5096-2.0667-13.55-9.0962-16.323-20.747-2.9253-12.283 2.6001-25.475 11.907-28.307 9.1628-2.7894 20.915 3.2668 25.352 18.088 2.7201 9.0829 1.6001 18.694-2.5147 24.824z"/>
   <path d="m212.98 97.079c2.9334 12.246 8.8668 15.936 13.315 15.128 5.7867-1.0507 9.9655-9.3069 8.8188-19.595-0.95201-8.5549-5.0801-14.75-10.448-15.411-4.6321-0.56769-8.7549 3.1228-11.414 10.275l3.6188-8.6002c2.3201-2.392 5.0801-3.5681 7.9682-3.2081 6.2775 0.77331 10.776 6.9574 11.875 16.819 1.344 12.048-3.6188 20.096-10.174 21.286-4.9174 0.89599-9.6828-2.4508-12.63-9.7922z"/>
   <path d="m183.74 92.809c-0.54653 2.4348 3.4295 7.6135 7.8402 7.8988 4.8694 0.31749 10.227-3.68 10.016-6.7228-0.30388-4.4215-16.784-5.9575-17.856-1.1761m7.6455 9.3096c-6.2028-0.64253-9.7522-6.3655-9.2909-9.6616 0.86666-6.2321 20.547-5.3467 21.168 1.4107 0.37871 4.1361-6.0241 8.8615-11.878 8.2509"/>
   <path d="m169.91 111.28c-2.9041 1.008-3.392 2.6214-3.4374 6.1228-0.20788 16.734 8.0855 27.913 22.099 28.691 13.424 0.74685 24.075-8.2455 27.145-22.568 0.85336-3.9761 0.48833-5.7814-1.3893-7.2082-11.995-9.1202-30.102-10.011-44.417-5.0375m18.59 36.305c-14.606-0.88805-24.016-12.483-23.222-30.225 0.18444-4.1548 0.83469-5.9735 4.2428-7.2216 13.782-5.0428 32.958-5.0908 45.572 5.2188 2.2321 1.8267 2.6961 3.9494 1.864 8.3895-3.048 16.254-15.219 24.64-28.457 23.838"/>
   <path d="m216.39 118.37c-4.8401 3.6454-12.262 5.1495-18.56 4.6188-0.52234-0.0454-0.65085-0.16026-0.94671-0.50118-2.4614-2.808-3.28-3.9361-5.9014-7.6802-2.5094 2.0721-4.0054 3.5627-6.8722 6.6802-0.32505 0.35226-0.55712 0.49589-1.1681 0.36284-6.4668-1.376-10.678-3.0401-16.819-6.8295l0.22148-1.4827c6.0961 3.7867 10.592 5.6854 16.883 7.0508 2.9334-3.3041 4.1574-4.5654 6.6428-6.7548 1.0747-0.94672 1.4774-0.9734 2.3387 0.25852 2.2533 3.2294 3.328 4.7201 5.7601 7.5041 7.5948 0.58962 14.163-1.6026 17.936-4.2828z"/>
   <path d="m138.81 132.37c2.7974-0.30689 5.2748-0.30689 8.6002 0.0454l2.6027 2.0907c-3.4881-0.77868-8.3495-0.90938-11.174-0.60777z"/>
   <path d="m121.43 142.13c-4.9654-1.7654-6.1975-6.7548-4.8268-10.168 1.5334-3.8214 5.5761-5.9388 10.622-4.2988 1.6054-2.5494 5.8668-3.9334 9.0775-1.9733 2.6427 1.6134 3.7974 5.1388 2.8507 9.1176-0.41069 1.7173-1.096 1.5973-0.99736-0.16555 0.20266-3.5894-0.25868-6.0321-2.7174-7.5334-2.5787-1.5761-5.6828-0.58433-7.4668 1.5013-0.24 0.27971-0.44267 0.35453-0.89602 0.24795-4.4508-1.0534-7.6348 0.56544-8.8802 3.6668-1.1894 2.968-0.5067 6.5041 3.6214 8.6722 1.5174 0.79735 1.0347 1.4374-0.38665 0.93334"/>
   <path d="m150.56 158.35c-6.1335-1.5948-13.232-5.6082-16.963-8.6696-2.5601 3.0055-6.7015 3.1761-9.4322 1.7254-3.4614-1.8347-5.0934-6.0108-4.0134-10.4l1.304 0.59718c-0.60534 3.9601 0.88535 6.8722 3.6267 8.3575 2.3521 1.272 5.3734 0.9307 7.9042-1.448 0.51471-0.4853 0.78935-0.6002 1.4054-0.12548 4.4374 3.4081 11.032 6.9068 17.294 8.4455z"/>
   <path d="m126.18 137.19c-1.504 3.1014-0.61336 6.4135 1.728 7.4268 2 0.86402 4.9948 0.12019 6.5175-3.4187 1.2427-2.8854 0.14136-5.7734-1.8374-6.6402-2.3387-1.032-5.2214 0.18368-6.4081 2.6321m1.272 8.4241c-3.1947-1.2774-4.0134-5.6481-2.4027-8.9708 1.4214-2.9281 5.0054-4.3628 8.0002-3.0561 2.9441 1.2854 3.8934 4.9601 2.5254 8.1415-1.7014 3.9575-5.3254 5.0055-8.1228 3.8854"/>
   <path d="m207.87 154.26c-2.64-7.4188 3.7067-15.155 19.875-25.043-1.1973-5.9174-0.0302-9.6669 3.4934-12.555 3.8828-3.1867 10.726-1.7333 10.451 3.4988-0.0756 1.3653-0.76272 1.2747-1.0054-0.068-0.68789-3.7601-5.4801-4.6988-8.4722-2.1494-2.6934 2.2934-4.1895 4.7254-3.0721 11.502 0.0801 0.4906-0.0529 0.78398-0.47169 1.0693-15.571 10.67-21.099 17.11-19.707 23.233 0.41349 1.8267-0.48001 2.2267-1.0907 0.51478"/>
   <path d="m240.16 117.22c2.8267-2.9921 7.2508-3.3521 10.771-0.41576 3.5094 2.9253 3.8267 9.6695-1.1574 12.206-1.2027 0.61078-1.7387 0.0227-0.4989-0.87732 3.8668-2.8001 3.1201-8.0348 0.66672-9.9789-3.2694-2.5921-6.1682-2.5334-9.0722 0.096z"/>
   <path d="m213 193.5c1.6747-7.7868 2.3201-11.72 1.472-19.814-0.0824-0.79735 0.1149-1.144 0.70377-1.6267 12.115-9.8268 22.203-22.984 26.91-31.881 0.37872-0.71965 0.62364-0.71208 1.376-0.58357 3.8774 0.6637 7.1708-0.65085 8.7495-3.7628 1.7654-3.4748 0.50949-6.5575-2.3067-7.4242l1.0854-0.98935c3.2881 1.152 4.6934 5.1415 2.7414 9.1575-1.7894 3.6828-5.7228 5.2028-10.286 4.3255-4.9734 9.7095-14.854 22.942-26.905 32.777 0.68033 6.9708 0.38401 12.656-1.8027 20.75z"/>
   <path d="m236.71 125.19c-2.416 1.1947-3.6001 5.6268-1.192 9.2588 2.0801 3.1361 5.3894 3.4534 7.7335 1.8854 2.288-1.5333 2.9894-5.4134 1.1093-8.2055-2.4667-3.6587-5.4561-4.0241-7.6508-2.9387m-2.2454 10.035c-2.7441-4.1388-1.6747-9.3415 1.6907-11.006 2.6321-1.3014 6.5175-0.93341 9.3149 3.2161 2.0213 3 1.7494 7.6561-1.5521 9.8668-2.9441 1.9734-7.1522 1.3894-9.4536-2.0774"/>
   <path d="m184.91 229.08c1.8828-1.384 4.9814-1.0427 8.8909 1.4907 6.9254 4.4721 20.736-0.37039 24.286-12.499 1.496-5.1121 0.19729-11.032-4.7068-20.523-0.0454-0.0801-0.0605-0.17311-0.0529-0.26382 0.068-1.056 0.0151-1.7947-0.23736-2.824-4.5947-5.3335-10.507-9.7896-15.096-12.08l0.56543-1.4454c4.7361 2.344 10.928 6.8828 15.827 12.246 0.16782 0.18672 0.32807 0.44826 0.37343 0.69621 0.23963 1.2427 0.28271 1.9867 0.22375 3.1174 4.4374 8.4588 6.7015 14.915 4.8694 21.683-3.5734 13.224-18.808 18.56-26.939 13.296-4.0935-2.648-6.6935-2.672-8.6855-0.59189z"/>
   <path d="m129.43 201.08c4.0054-0.91731 7.4775-1.0667 10.331-0.6637 0.33336 0.0529 0.50405 0.14136 0.82135 0.43466 11.622 10.731 26.689 16.291 41.564 15.654 0.48303 5e-3 0.66672 0.0454 1.112 0.27744 2.7841 1.4214 5.5575 6.8641 3.2428 10.979-3.5494 6.3068-1.7227 16.211 11.23 16.92 9.3576 0.52006 13.288-6.9602 10.451-13.622l1.3627-0.70904c3.1654 7.3788-0.25853 16.486-11.952 15.862-15.419-0.8427-16.23-12.758-12.595-19.216 1.9734-3.5041-0.53066-7.9122-2.6694-8.7495-15.502 0.5677-31.31-5.2214-42.884-16.078-3.5014-0.69621-8.9389-0.068-13.824 1.584z"/>
   <path d="m162.69 214.65c-2.0961 5.6588 1.6933 11 7.9095 11.8 7.8348 1.0187 11.259-3.8801 11.376-9.0295l1.336 0.27743c-0.0877 8.1256-6.2909 11.488-13.011 10.619-7.5388-0.9734-11.606-7.7976-9.0002-14.112z"/>
   <path d="m191.37 244.11c3.1734-1.336 3.9521-4.6748 3.1387-7.6242-0.47472-1.7254 0.23207-1.952 0.96002-0.31748 1.3014 2.9334 0.91202 7.1068-2.232 8.6642z"/>
   <path d="m199.87 245.29c3.7947-1.256 4.3467-4.8001 3.8321-8.7522-0.192-1.4694 0.45356-1.6694 0.97068-0.27968 1.04 2.8054 0.90401 6.8561-1.1014 8.6002z"/>
   <path d="m113.01 173.1c-6.8962 2.9761-9.0269 13.046-6.0241 20.094 3.5441 8.3228 11.294 11.67 17.302 9.9336 9.3389-2.6961 11.147-14.659 7.6615-21.427-4.4108-8.5602-12.291-11.47-18.939-8.6002m-7.4295 20.691c-4.0614-9.5629 0.15202-19.251 6.8748-22.152 6.4695-2.7921 15.614-0.68261 20.87 9.3495 4.0694 7.7682 1.9894 20.531-8.7495 23.592-6.2721 1.7893-14.864-1.0587-18.995-10.79"/>
   <path d="m108.62 175.73c-0.70936 2.8374-0.376 5.5655 1.248 7.2295 1.0347 1.0613 0.44002 1.5627-0.63203 0.78933-1.7414-1.256-2.5494-3.7041-2.3014-6.1654z"/>
   <path d="m120.23 171.44c-2.1334 1.7627-2.1334 5.1388-0.25603 7.7229 1.0507 1.4453 0.34931 1.7921-0.82135 0.58432-2.3547-2.4267-2.3921-6.7681-0.88269-8.4749z"/>
   <path d="m117.37 185.33c-3.4614 1.1894-4.9574 5.8322-3.3094 9.5922 1.7067 3.8961 5.8375 5.1788 8.8269 3.7761 3.3467-1.5707 4.4614-6.2509 2.384-10.136-1.8427-3.4508-5.1388-4.1814-7.9015-3.2321m-4.4988 10.12c-1.936-4.4161-0.35468-9.6935 4.0961-11.222 3.8934-1.336 7.8322 0.3016 9.6322 3.6695 2.2161 4.152 1.4614 9.6295-3.2107 11.822-3.4107 1.5973-8.4215 0.51177-10.518-4.2694"/>
   <path d="m123.93 172.61c5.6348-2.4348 13.614-2.4054 20.838 1.2507 1.6774 0.85064 1.1894 1.5413-0.36269 0.94135-6.6935-2.576-13.723-3.0054-18.486-0.98133z"/>
   <path d="m140.63 172.99c0.51735-1.0801 0.95735-1.9921 1.4507-2.6481 0.08-0.10658 0.19737-0.1731 0.32799-0.19729 4.2668-0.7653 8.1255-0.91202 12.142-0.58357l-0.20803 1.5733c-3.8561-0.36285-6.8801-0.1784-10.784 0.3893-0.45869 0.65311-0.81602 1.2854-1.24 2.0187z"/>
   <path d="m141.46 171.36c4.5868-10.547 11.728-18.84 21.075-24.601 1.816-1.1227 2.3067-0.40292 0.5677 0.83467-9.0242 6.4295-15.486 14.32-19.358 23.201z"/>
   <path d="m196.78 183.37c3.9921-7.6028 5.9468-24.841 5.0588-25.339-0.8774-0.49059-11.232 6.5308-18.766 18.256-1.3973 2.1761-2.1254 2.3067-2.0027-0.66899 0.25853-6.3815-0.72266-13.702-1.4347-13.907-0.65614-0.18974-5.3574 5.9494-7.6561 11.35-1.0401 2.44-1.8507 3.0667-2.0801-0.52309-0.62968-9.8322-3.5334-22.328-4.3628-22.504-0.95201-0.20259-8.2882 9.8349-11.128 23.603-0.45605 2.2027-1.24 2.0827-1-0.15497 1.5574-14.392 10.366-25.779 12.523-25.358 2.0027 0.3893 5.1201 14.859 5.0854 24.31 2.5388-6.5548 7.2082-13.107 9.1762-12.566 1.8214 0.50118 2.4721 8.9228 1.8587 15.915 6.9948-12.632 18.72-20.35 20.822-19.395 1.8773 0.85336-0.31976 20.344-5.2321 27.51-1.3654 1.992-2.0294 1.696-0.86137-0.52839"/>
   <path d="m172.11 99.049c-9.0989 11.038-18.147 3.3654-14.003-11.358 3.664-13.016 15.488-16.456 17.875-4.2588-0.4664 4.8402-1.4641 10.211-3.8721 15.616"/>
   <path d="m212.51 99.509c5.6134 16.134 17.603 10.584 17.102-5.2268-0.45053-14.264-12.019-19.779-16.435-8.1628-0.74383 3.576-1.376 8.2775-0.66672 13.39"/>
   <path d="m209.34 137.98c-4.1868-5.9441-10.704-9.6856-18.358-10.542-7.8989-0.88269-15.947 1.6081-21.536 6.6615-0.30917 0.27969-1.3173-0.83469-1.016-1.1227 6.1495-5.8961 14.275-8.0082 22.718-7.0642 8.0882 0.90137 14.971 4.4321 19.43 11.195 0.23207 0.34924-1.0906 1.0827-1.2374 0.87203"/>
  </g>
  <path d="m172.94 127.98c-1.888-4.0268-11.576-3.8588-18.107-1.0401-6.5308 2.8214-10.019 7.2002-9.7229 14.619 3.6374 2.672 13.123 2.0907 19.219-2.4481 6.6801-4.9708 9.7228-8.7575 8.6108-11.131" fill="#009a64"/>
  <path d="m137.55 104.75c-5.9255-3.3868-18.664-5.2401-19.67-2.4987-1.008 2.7387 9.8349 10.118 19.51 13.907 6.8588 2.6854 1.9414-10.392 0.16003-11.408" fill="#fffef7"/>
  <path d="m117.92 101.91c5.1041 4.0747 13.771 8.6215 20.334 10.939 3.0001 1.0587 2.3734 4.8748-1.672 3.2188-7.1202-2.9201-19.822-11.456-18.662-14.158" fill="#dddcd7"/>
  <path d="m145.65 141.25c4.9201 1.8134 10.616 1.4267 16.555-1.7813 6.4402-3.4748 10.771-9.4082 10.048-11.16-0.89335-2.1627-8.6402-4.1974-17.27-0.55484-5.5014 2.3227-9.5362 6.8242-9.3335 13.496m-0.50133 1.2667c-0.67738-0.26684-0.75735-0.36814-0.82402-1.2533-0.59733-8.0002 4.3468-12.715 9.9362-15.11 7.9469-3.4054 17.891-2.2908 19.454 1.544 1.3681 3.3548-4.1707 9.8589-10.395 13.275-6.2107 3.4054-12.467 3.8134-18.171 1.544" fill="#0f141b"/>
  <path d="m136.47 116.24c-8.0002-2.4374-20.8-11.368-19.651-14.376 0.81868-2.1334 10.696-2.4774 18.904 1.2347 1.7627 0.8 1.4374 1.7254-0.33064 1.1254-8.0295-2.7228-16.499-2.7067-16.726-1.7414-0.34931 1.4907 10.392 9.3681 18.211 12.835 2.3707 1.0507 1.8774 1.6187-0.40805 0.92268" fill="#0f141b"/>
 </g>
</svg>
