<?xml version="1.0" encoding="utf-8"?>
<!-- Generator: Adobe Illustrator 24.0.1, SVG Export Plug-In . SVG Version: 6.00 Build 0)  -->
<svg version="1.1" id="Layer_1" xmlns="http://www.w3.org/2000/svg" xmlns:xlink="http://www.w3.org/1999/xlink" x="0px" y="0px"
	 viewBox="0 0 298.4 479.93" style="enable-background:new 0 0 298.4 479.93;" xml:space="preserve">
<style type="text/css">
	.st0{fill:#9F8C55;}
	.st1{fill:#DAC183;}
	.st2{fill:#4E5144;}
	.st3{fill:#FFFFFF;}
	.st4{fill:#8A694E;}
	.st5{fill:#B7A36F;}
	.st6{fill:#755841;}
	.st7{fill:#867747;}
	.st8{fill:#DBDCDC;}
	.st9{fill:#0F141B;}
	.st10{fill:#80CCE3;}
	.st11{fill:#006688;}
	.st12{fill:#005472;}
</style>
<g id="Honedge">
	<path class="st0" d="M40.25,236.01c13.09,7.26,32.96-0.48,40.1-14.76l4.97-2.62l4.61,4.86c4.69,19.65,25.52,25.96,40.75,18.7
		c-5.47,10.83-11.19,25.11-13.57,34.15c-3.57,0.36-9.76,2.98-16.78,7.74c2.47,19.89,2.47,34.9-4.35,54.92
		c3.64,25.93,4.95,65.29,3.41,95.74c-0.14,2.81-1.46,3.46-3.55,1.54c-13.73-12.62-28.06-29-39.31-45.88
		c-11.94,9.55-32.09,24.49-51.34,31.21c-2.44,0.85-4.25,0.44-3.35-2.78c8.87-31.72,19.05-63.22,34.74-85.57
		c0.17-20.3,4.95-39.57,15.18-54.92c-3.75-3.24-8.02-6.14-12.28-9.04C40.33,256.67,40.67,244.34,40.25,236.01z"/>
	<path class="st1" d="M160.23,233.65c-3.41-3.41-7.5-7.5-11.43-11.43c10.29-28.31-10.4-45.71-29.51-42.64
		c4.89-7.05,8.98-16.6,8.41-23.76c20.58,6.03,39,23.99,55.94,44.57c0.57,6.82,0.68,12.51,0.91,18.42
		C176.49,223.81,168.42,228.36,160.23,233.65z"/>
	<path class="st1" d="M69.2,177.24c-4.64-7.73-6.41-17.53-4.75-24.1c-21.81,5.86-40.88,17.6-56.77,34.71
		c-1.1,1.19-1.05,2.23,0.17,3.73c5.26,6.45,9.08,11.2,16.29,19.18C24.4,181.82,48.41,169.69,69.2,177.24z"/>
	<path class="st2" d="M80.21,187.77c4.11,2.01,13.08,3.44,18.11,2.26c-8.14,8.22-10.73,23.15-8.39,33.46
		c-2.1-2.18-3.35-3.44-4.61-4.86c-1.51,0.92-3.77,2.26-5.62,3.1C84.82,212.93,86.83,198.42,80.21,187.77z"/>
	<path class="st3" d="M53.65,251.98c3.93,3.1,8.08,6.27,11.11,9.67c4.99-4.31,12.09-10.2,17.45-12.62
		c4.84,4.31,8.69,10.5,11.26,15.87c5.59-3.32,13.22-7.25,18.44-9.37c-7.48-5.97-19.35-16.02-27.21-25.88
		C75.87,236.11,66.72,242.46,53.65,251.98z"/>
	<path class="st4" d="M117.12,276.35c-4.48,1.08-10.11,3.21-17.24,7.34c2.88,18.51,2.38,36.64-4.38,55.89
		c2.13,12.5,4.13,33.51,4.25,44.39C102.88,351.58,109.47,299.9,117.12,276.35z"/>
	<path class="st4" d="M38.86,269.05c4,2.25,8.79,5.81,12.9,9.28c-9.02,14.48-16.21,35.1-15.18,54.92
		c-3.97,6.07-9.22,14.2-13.6,24.33C29.73,330.32,38.61,288.56,38.86,269.05z"/>
	<path class="st4" d="M60.74,362.71c-17.01-36.51-3.5-73.15,16.01-89.4C92.38,299.94,87.62,339.32,60.74,362.71z"/>
	<path class="st4" d="M14.85,422.48c6,21.76,24.63,56.77,35.89,55.64C61.99,477,85.87,459.62,98,437.86
		c-10-8.88-27.51-25.88-38.64-43.39C47.24,403.47,29.1,416.35,14.85,422.48z"/>
	<path class="st2" d="M76.86,343.3c-2.59-6.81-5.97-13.56-9.04-17.76c-5.71,4.47-10.14,8.46-14.12,12.66
		c1.14,8.19,3.19,16.49,7.05,24.51C66.65,358.44,71.82,352.16,76.86,343.3z"/>
	<path class="st2" d="M39.25,357.76c-5.34,9.32-11.48,23.76-13.19,32.63c7.05-2.5,15.46-7.16,20.58-13.76
		C43.57,370.16,41.52,365.72,39.25,357.76z"/>
	<path class="st2" d="M83.03,365.04c-3.41,4.78-7.85,10.46-12.51,15.12c4.43,7.85,8.19,12.74,14.78,18.88
		C86.1,390.96,85.53,374.93,83.03,365.04z"/>
	<path class="st2" d="M59.36,394.47c-10.22,7.86-16.14,11.73-24.44,17.3c2.84,12.74,7.05,23.08,15.58,30.7
		c8.98-5.34,21.6-14.89,25.7-26.72C69.84,408.25,64.81,401.27,59.36,394.47z"/>
	<path class="st5" d="M149.96,224.22c9.45-8.94,20.05-18.26,33.84-23.62c0.38,8.3,0.77,12.39,0.77,18.51
		c-8.68,5.23-15.96,9.07-24.39,14.68C156.6,230.35,153.79,227.54,149.96,224.22z"/>
	<path class="st0" d="M125.29,252.53l5.64,4.9c3.26-5.85,7.07-9.86,13.26-12.51c2.99-4.9,7.07-12.17,11.56-15.23l-7.34-7.28
		c-2.58,9.11-12.92,18.02-18.16,20.06C128.01,246.41,126.72,249.13,125.29,252.53z"/>
	<path class="st6" d="M130.93,257.42c3.35-6,8.12-10.72,12.75-11.91c-3.62,6.14-5.2,10.24-7.88,16.85L130.93,257.42z"/>
	<path class="st6" d="M116.91,276.12c2.9,0.85,8.19,4.09,11.77,7.68c-8.87,33.77-17.44,74.58-15.56,157.64
		c-3.14-0.12-9.83-0.88-14.29-3.58c1.48-1.97,2.05-25.62,1.26-45.07C101.45,353.1,110.32,295.11,116.91,276.12z"/>
	<path class="st0" d="M125.29,252.53c-2.53,5.97-5.53,14.55-8.38,23.59c2.04,0.47,6.67,3.05,11.77,7.68
		c1.83-7.07,4.55-14.28,7.41-21.08C132.55,258.77,129.45,255.8,125.29,252.53z"/>
	<path class="st7" d="M59.62,394.42l-3.28-4.4c-8.71,7.12-35.98,28.58-53.96,32.51c3.56,2.44,8.53,4.5,14.24,5.71l-1.69-5.62
		C32.17,414.66,48.19,403.14,59.62,394.42z"/>
	<path class="st6" d="M19.24,420.72c11.7,37.99,26.54,52.37,31.29,52.59c6.73,0.3,31.29-25.11,41.15-41.28l6.31,5.79
		c-11.57,19.46-37.73,40.88-47.46,40.88c-9.73,0-26.51-26.69-35.6-56.07L19.24,420.72z"/>
	<path class="st8" d="M57.03,254.96c11.59-7.98,17.7-12.22,25.8-18.32c6.61,6.36,15.33,14.46,23.44,21.32l5.36-2.24
		c-8.35-6.73-19.07-16.95-26.93-26.05c-8.1,5.86-20.82,14.71-31.42,22.31L57.03,254.96z"/>
	<path class="st9" d="M148.91,223.61c8.31-8.16,17.69-15.72,29.52-21.65c2.23-1.12,2.84,0.16,0.68,1.39
		c-11.37,6.48-20.99,14.26-28.46,21.86L148.91,223.61z"/>
	<path class="st9" d="M149,221.21c4.32,4.06,7.2,6.82,11.21,10.6c7.88-4.59,15.49-8.79,22.72-13.11
		c-0.29-6.49-0.52-11.95-1.32-17.85c-24.78-32.82-48.86-46.73-79.43-49.12c-35.74-2.8-66.12,8.38-93.38,36.99
		c-0.64,0.67-0.59,1.17-0.04,1.9c4.36,5.84,10.81,13.6,15.67,19.15v4.43c-6.48-7.59-14.11-16.55-18.51-22.59
		c-1.3-1.78-1.28-2.55,0.1-4.05c27.19-29.59,58.17-42.25,96.05-39.19c32.14,2.59,57.44,17.99,81.7,50.68
		c0.48,0.65,0.8,1.18,0.9,2.24c0.58,6.15,0.7,10.93,1.13,17.63c0.07,1.04-0.02,1.51-1.04,2.03c-7.69,3.89-15.99,8.67-23.32,13.28
		c-1.22,0.76-1.95,0.64-2.79-0.15c-3.86-3.63-6.76-6.51-10.62-10.21L149,221.21z"/>
	<path class="st9" d="M174.69,198.13c-3.17-3.72-6.57-7.43-10.29-11.08c-1.98-1.94-1.01-2.89,1.09-1.09
		c3.37,2.86,7.39,6.99,10.4,11.2C177.73,199.71,176.61,200.38,174.69,198.13z"/>
	<path class="st9" d="M12.97,188.36c8.66-9.71,20.02-18.44,34.08-25.61c2.6-1.33,3.24-0.05,0.7,1.38
		c-14.99,8.43-24.05,15.87-33.69,25.33C12.15,191.32,11.05,190.51,12.97,188.36z"/>
	<path class="st9" d="M52.21,251.33c8.21-5.8,24.75-17.41,31.49-22.2c0.91-0.65,1.27-0.67,2.18,0.33
		c8.47,9.38,19.91,21.29,27.68,25.73l-2.79,1.05c-7.59-4.95-18.11-15.94-26.26-24.94c-6.68,4.74-22.38,15.86-30.37,21.5
		L52.21,251.33z"/>
	<path class="st9" d="M83.8,218.01c1.27-1.01,1.56-0.88,2.46,0.28c0.62,0.8,1.61,1.77,2.85,3.11l0.53,3.65
		c-1.68-1.79-3.26-3.59-4.75-5.24c-1.41,1.14-3.56,2.32-5.63,3.79l1.9-3.88C82.22,219.13,82.88,218.74,83.8,218.01z"/>
	<path class="st9" d="M58.76,361.96c-13.66-30.92-8.28-64.6,16.03-89.14c1.97-1.98,2.63-1.8,3.88,0.3
		c14.87,24.92,10.26,67.65-15.81,89.81C60.7,364.76,59.96,364.67,58.76,361.96z M76.62,274.54c-23.11,24.19-28.58,58.5-15.67,86.67
		C84.88,341.22,90.12,299.19,76.62,274.54z"/>
	<path class="st9" d="M96.91,335.87c4.99,32.69,5.33,69.7,4.26,99.27c-0.19,5.35-1.68,5.86-5.81,2.44
		c-14.1-11.71-26.21-26.55-39.11-45.52c-18.83,15.22-34.18,24.77-50.87,30.85c-4.6,1.67-6.21,1.1-4.99-4.51
		c4.94-22.77,15.89-56.49,36.06-89.22l0.13,5.81c-16.55,28.45-27.24,61.09-33.38,83.96c-0.49,1.83-0.05,2.01,1.61,1.42
		c15.35-5.47,31.64-15.59,49.84-30.41c1.69-1.38,2.48-1.32,3.84,0.68c11.58,17.07,25.46,33.48,38.21,44.73
		c1.21,1.07,1.56,1.17,1.6-0.42c0.8-28.87-0.23-66.75-3.72-92.95L96.91,335.87z"/>
	<path class="st9" d="M156.91,230.67c-14.95,14.33-27.88,48.05-35.39,91.82c-6.11,35.56-6.87,77-6.86,117.59
		c0,2.62-0.23,3.21-2.85,2.96c-5.85-0.58-9.78-1.67-13.14-3.33c-6.65,11.98-22.25,28.27-39.38,37.72
		c-7.28,4.02-12.18,3.03-17.41-1.75c-9.88-9.03-19.34-25.93-27.93-52.31c-0.43-1.31-0.22-1.6,0.91-2.1
		c12.46-5.56,28.65-16.17,43.21-27.8l1.54,2.13c-11.38,9.09-28.48,20.72-43.32,27.46c8.67,25.5,18.1,41.57,27.7,50.35
		c4.41,4.03,7.78,4.57,14.01,1.14c17.18-9.48,32.03-25,38.36-36.82c0.75-1.4,1.76-1.64,3.33-0.85c3.33,1.66,6.52,2.56,11.7,3.01
		c-0.61-40.62,0.75-81.21,7.05-118.09c7.51-44,19.63-77.17,36.39-93.43L156.91,230.67z"/>
	<path class="st9" d="M20.11,419.94c4.79,14.54,8.45,23.56,14.29,35.13c1.81,3.59,0.59,4.16-1.33,0.79
		c-6.21-10.89-10.31-20.44-15.21-34.91L20.11,419.94z"/>
	<path class="st9" d="M17.36,429.68c-6.79-1.55-13.08-3.75-16.72-6.35l3.02-1.38c3.56,2.11,7.42,3.62,13.08,5.13L17.36,429.68z"/>
	<path class="st9" d="M77.36,417.8c-4.78,10.69-16.37,21.21-26.27,25.96c-0.9,0.43-1.42,0.42-2.17-0.32
		c-8.21-8.05-13.48-18.87-15.47-31.09l2.73-1.82c2.16,13.09,7.17,23.08,14.16,30.2c9.79-4.99,20.44-15.37,24.89-25.69L77.36,417.8z"
		/>
	<path class="st9" d="M92.97,433.32c-4.85,7.76-14.35,18.72-23.84,27.44c-2.47,2.26-3.48,1.52-1.08-1.11
		c9.37-10.23,17.68-20.59,22.4-28.23L92.97,433.32z"/>
	<path class="st9" d="M135.25,264.43c-3.47-4.6-8.73-9.63-10.57-10.4c-3.05-1.27-17.98,4.06-30.17,12.16l-1.13-2.44
		c9.97-6.81,27.76-14.17,32.24-12.28c2.15,0.9,7.3,5.7,10.83,10.15L135.25,264.43z"/>
	<path class="st9" d="M130.09,256.32c3.42-6.83,8.99-10.97,15.46-14.03l-1.53,3.51c-4.87,2.81-9.53,7.39-12.05,12.59L130.09,256.32z
		"/>
	<path class="st9" d="M128.25,285.58c-4.86-4.61-9.69-7.81-11.68-7.85c-2.13-0.04-9.56,3.52-16.03,7.16l-0.51-2.73
		c5.8-3.41,13.83-7.34,16.72-7.25c3.15,0.12,8.27,4.01,12.37,7.68L128.25,285.58z"/>
	<path class="st9" d="M99.91,378.37c1.14-36.75,12.57-109.24,28.94-135.51l4.22-1.91c-19.57,30.74-29.12,99.64-32.19,154.56
		L99.91,378.37z"/>
	<path class="st9" d="M63.87,262.47c-5.97-5.97-14.58-11.96-23.28-16.46l0.09-3.07c9.06,4.59,18.42,11,24.99,17.57L63.87,262.47z"/>
	<path class="st9" d="M51.16,279.87c-3.99-3.47-7.33-5.97-12.02-9.13l0.51-3.16c4.67,3.16,8.74,5.9,12.88,9.47L51.16,279.87z"/>
	<path class="st9" d="M14.29,378.63c15.46-42.47,25.53-103.99,24.53-142.76l3.15,1.05c0.8,37.04-7.44,85.93-17.96,120.84
		L14.29,378.63z"/>
	<path class="st9" d="M65.17,261c0.67-4.88,1.71-14.19,2.34-18.97l2.43-1.8c-0.71,5.26-1.48,13.49-2.16,18.7L65.17,261z"/>
	<path class="st9" d="M93.68,265.22c1.25-8.99,1.71-16.27,1.98-23.47l2.07,1.98c-0.18,5.4-0.63,12.59-1.8,20.05L93.68,265.22z"/>
	<path class="st0" d="M69.09,177.61c-20.8-34.47,8.65-57.41,33.72-53.04c23.44,4.09,33.66,33.88,16.55,55.06
		c28.18-3.13,40.52,28.36,26.15,48.62c-14.36,20.26-33.16,21.13-46.59,9.76c-14.36-12.15-12.15-35.54-0.92-47.51
		c-5.43,0.1-14.3-0.58-18.28-3.19c17.14,25.71-12.79,66.68-44.23,46.28C9.91,216.99,28.56,163.09,69.09,177.61z"/>
	<path class="st3" d="M56.17,192.55c-8.13-1.04-15.43,4.97-15.23,13.15c0.23,9.61,4,14.09,11.16,14.36
		c6.83,0.26,13.24-5.45,13.84-13.06C66.55,199.38,62.92,193.41,56.17,192.55z"/>
	<path class="st3" d="M129.61,200.94c-5.37-5.05-14.19-5.45-19.55-0.35c-6.06,5.76-5.86,16.79-1.56,21.19
		c4.61,4.72,14.43,5.19,19.64-0.52C133.59,215.3,133.94,205,129.61,200.94z"/>
	<path class="st10" d="M97.91,145.24c-8.97-1.05-15.91,3.83-17.39,11.09c-2.1,10.27,1.58,17.76,10.79,19.04
		c8.95,1.24,16.5-3.24,17.69-13.72C109.98,153.11,105.56,146.14,97.91,145.24z"/>
	<path class="st1" d="M95.08,123.55c5.88-16.81,8.53-38.49,6.16-49.69c-0.72-3.4,0.18-4.51,2.17-5.16
		c12.38-4.02,24.87-1.66,35.17,7.43c1.75,1.55,1.32,2.58-0.82,5.47c-9.18,12.38-12.99,39.5-14.43,59.09
		C118.28,130.49,106.94,121.59,95.08,123.55z"/>
	<path class="st11" d="M107.15,68.25c0.39-4.61,4.22-11.1,11.02-11.34c-0.75-16.74,0.87-46.22,5.73-50.09
		c18.31-14.58,77.67,1.47,105.64,57.74c26.03,52.36,23.68,113.12,7.73,173.52c-10.69,40.48-7.79,54.52,2.62,77.04l-32.92,20.64
		l-62.6-16.54c7.68-44.86,31.72-91.08,46.22-116.15c35.42-61.26,19.84-141.23-30.42-185.34c-17.34,3.18-27.91,16.49-31.33,40.37
		c4.61,2.9,6.99,8.02,5.63,14.67C125.95,67.12,117.69,65.46,107.15,68.25z"/>
	<path class="st10" d="M232.8,295.5c-1.89,19.37-16.6,32.84-37.99,31.32c-21.39-1.51-30.44-12.7-29.18-28.43
		c1.26-15.73,15.1-23.77,25.16-22.64c10.06,1.13,14.09,7.42,13.59,14.09c-0.5,6.67-6.17,12.71-13.08,11.95
		c-6.92-0.76-9.31-5.91-9.43-10.07c-5.28,6.04-3.27,22.64,12.45,23.02c15.73,0.38,26.04-12.83,26.42-28.18
		c0.38-15.35-9.18-27.98-27.3-29.81c-9.94-1.01-22.39,0.38-35.1,13.08c-17.54,51.78-27.2,93.81-4.07,161.94
		c1.02,3.01,3.53,5.06,8.07,3.81c4.55-1.25,20.23-4.94,25.7-6.37c2.62-0.68,5.79-2.95,3.98-6.71c-7.5-15.58-12.28-36.84-13.08-51.28
		c5.8,16.6,14.83,36.89,23.31,48.67c2.05,2.84,4.19,3.45,7.28,2.73c7.28-1.71,20.28-5.68,25.7-8.53c2.16-1.14,3.25-3.64,1.36-6.25
		c-7.96-11.03-13.99-21.38-17.28-30.93c8.07,10.46,17.96,22.63,23.99,28.43c2.96,2.84,5.23,3.64,9.44,1.59
		c4.21-2.05,15.63-8.21,20.13-11.14c2.62-1.71,2.62-3.41-0.45-5.8c-3.07-2.39-9.55-8.75-14.33-13.3
		c8.19,5.34,14.22,8.74,17.85,10.46c2.16,1.02,4.94,1.44,6.82,0.11c5.34-3.75,9.79-6.92,12.96-11.94c1.36-2.16,1.8-3.98-1.14-6.14
		C276.16,355.66,237.49,325.01,232.8,295.5z"/>
	<path class="st12" d="M160.04,17.66c-9.02-6.48-20.92-13.13-36.33-10.33c-4.03,7-7.18,31.17-5.17,49.73
		c-2.71,2.8-4.46,6.22-4.46,10.07c6.04-0.18,15.85,2.36,20.31,5.95c1.84-5.78-0.35-11.29-5.6-14.88
		C131.93,34.65,144.54,18.36,160.04,17.66z"/>
	<path class="st5" d="M126.4,68.54c2.74,4.24,1.94,9.18-1.37,18.33c-4.74,13.09-7.94,30.94-9.37,45.64c2.24,1.75,5.1,5.04,7.34,8.65
		c2.12-26.05,7.52-52.14,14.49-59.91C140.73,77.64,139.36,74.4,126.4,68.54z"/>
	<path class="st9" d="M111.71,162.96c-1.49,10.45-9.9,16.01-20.09,14.93c-9.76-1.03-15.53-8.51-15.15-17.57
		c0.44-10.49,9.31-18.93,20.09-18.16C106.06,142.83,113.39,151.21,111.71,162.96z M96.25,147.74c-6.81-0.24-12.72,4.11-13.73,11.96
		c-0.94,7.27,3.55,13.77,10.48,13.82c6.26,0.04,12.12-2.95,13.15-12C106.99,154.03,101.91,147.94,96.25,147.74z"/>
	<path class="st9" d="M68.02,209.6c-2.55,9.19-10.5,13.26-17.63,12.41c-8.01-0.96-14.1-8.17-12.81-17.35
		c1.17-8.31,8.1-15.59,17.08-15.33C65.06,189.64,70.66,200.06,68.02,209.6z M57.73,195.7c-5.2-1.54-11.26,1.71-13.39,6.82
		c-2.46,5.91-1.36,13.18,5.32,15.31c5.51,1.75,11.83-1.83,13.7-8.43C65.23,202.78,63.18,197.32,57.73,195.7z"/>
	<path class="st9" d="M115.21,227.68c-10.37-1.36-14.36-10.8-13.14-18.08c1.56-9.3,9.06-16.39,18.71-15.58
		c9.44,0.8,16.01,8.81,13.19,20.87C131.97,223.42,124.99,228.96,115.21,227.68z M123.94,200.67c-5.26-2.06-11.6,0.55-14.27,5.66
		c-2.58,4.97-2.33,13.6,4.17,16.34c4.8,2.02,12.5-0.57,15.01-7.25C131.39,208.72,129.46,202.83,123.94,200.67z"/>
	<path class="st9" d="M93.67,153.65c0.95-3.06,3.92-1.97,3.39,0.71c-0.94,4.77-1.26,7.05-1.73,11.5c-0.35,3.27-3.73,2.72-3.58-0.28
		C91.97,160.58,92.6,157.08,93.67,153.65z"/>
	<path class="st9" d="M105.88,244.39c-24.22-10.23-21.04-40.59-10.44-52.89c-3.78,0.52-9.93-0.44-12.86-1.69
		c11.65,22-7.96,56.63-38.29,49.31c-18.27-4.41-25.8-22.76-19.48-41.89c6.67-20.18,25.93-27.38,41.7-21.75
		c-14.63-21.18,0.07-56.22,33.23-52.93c27.72,2.75,39.87,35.72,21.78,55.83c20.3-2.05,38.21,18.08,28.79,43.55
		C142.46,243.17,122.6,251.46,105.88,244.39z M98.83,191.09c-10.14,10.96-15.06,41.07,8.3,50.8c12.24,5.1,32.05,0.56,40.2-21.2
		c9.17-24.49-8.33-42.29-28.34-39.92c-1.76,0.21-2.21,0.02-0.92-1.64c19.77-25.34,3.01-51.05-18.44-53.37
		c-30.82-3.33-44.52,29.91-29.53,51.53c1.36,1.96,0.35,2.09-1.28,1.43c-16.08-6.51-34.91,0.66-41.11,19.44
		c-5.91,17.89,1.45,34.08,17.55,37.97c29.66,7.16,45.85-28.05,33.96-47.78c-1.04-1.72-0.46-2.26,1.19-1.62
		c5.63,2.16,11.43,2.84,17.4,2.47C99.99,189.08,100.3,189.51,98.83,191.09z"/>
	<path class="st9" d="M81.89,366.29c2.03,9.84,2.93,19.89,2.78,30.76c-4.15-4.04-8.7-10.06-12.91-16.43
		c38.77-39.34,40.54-104.33,11.34-132.93c-0.7-0.68-0.93-0.69-1.67-0.25c-42.98,25.61-58.67,84.96-36.16,129.2
		c-5.69,5.46-11.53,9.44-17.68,12.11c3.35-10.36,7.46-19.9,12.28-28.51l-0.99-4.45c-6.15,10.08-10.87,21.14-13.51,32.62
		c-0.74,3.21-0.42,3.87,2.84,2.5c6.72-2.81,12.77-6.7,19-12.46c1.16-1.08,1.17-1.23,0.51-2.56c-21.56-43.14-6.31-101.4,34.28-125.79
		c29.44,31.14,21.62,95.02-12.63,129.27c-0.69,0.69-0.68,1.34-0.06,2.27c4.72,7.05,10.53,14.33,14.9,18.14
		c1.59,1.39,2.41,1.28,2.56-1.19c0.75-12.71-0.2-24.33-2.61-35.31L81.89,366.29z"/>
	<path class="st9" d="M77.4,341.75c-2.4-6.18-4.9-11.27-7.45-15.61c-1.57-2.67-2.11-2.78-4.43-0.91c-4.3,3.47-8.42,7.34-12.3,11.55
		l0.53,3.5c4.29-4.98,8.93-9.45,13.91-13.4c2.96,5.52,5.36,10.78,7.91,17.87L77.4,341.75z"/>
	<path class="st9" d="M60.46,216.43c-4.67-5.7-10.77-12.97-14.59-17.3l1.43-1.83c3.83,4.34,9.8,11.32,14.83,17.7L60.46,216.43z"/>
	<path class="st9" d="M130.37,205.51c-5.98,4.38-12.67,9.56-19.77,15.86l-1.59-1.75c6.86-6.06,13.87-11.8,20.25-16.34L130.37,205.51
		z"/>
	<path class="st9" d="M122.04,136.81c2.55-25.06,6.83-46.39,14.39-56.31c1.26-1.65,1.53-2.5,0.36-3.67
		c-7.17-7.16-21.07-11.47-33.72-6.54c-1.41,0.55-1.46,1.27-0.97,3.32c2.64,11,0.6,29.97-5.25,49.66c-0.28,0.94-3.46,1.02-3.16,0.09
		c6.26-19.02,8.06-39.68,5.7-49.11c-0.95-3.81-0.46-4.94,2.35-6.18c12.57-5.58,28.24-2.04,37.32,6.92c2.33,2.3,1.87,4.58-0.25,7.27
		c-7.91,10.06-12.23,33.48-14.27,60.17C124.54,142.42,121.93,137.84,122.04,136.81z"/>
	<path class="st9" d="M162.28,19.71c-15.92,0.23-28.44,13.72-32.28,38.03c5.16,2.91,7.3,9.22,5.69,16.04l-2.3-1.24
		c0.67-5.83-0.44-9.92-5.04-12.62c-1-0.59-1.21-1.21-1.04-2.37c3.74-24.53,15.83-39.55,31.79-40.8L162.28,19.71z"/>
	<path class="st9" d="M253.53,371.15c10.06,7.93,14.44,10.22,22.29,14.57c3.31,1.83,4.25,1.94,7.41-0.43
		c2.94-2.2,8.16-6.48,10.39-9.46c2.41-3.21,2.05-4.09-0.68-6.13c-17.18-12.85-30.82-24.52-46.02-42.26
		c-17.62-20.56-22.22-50.76-12.58-83.89c31.24-107.44,4.69-190.98-46.45-224.32c-24.51-15.98-49.72-20.92-62.3-11.62
		c-4.43,3.27-7.11,23.92-6.26,48.46c0.06,1.61,0.05,1.81-1.21,2.02c-5.38,0.92-8.54,3.99-9.8,9.81l-2.58,0.41
		c0.52-6.67,4.36-11.36,10.88-12.64c-1.41-22.34,1.22-46.2,6.78-50.31c13.51-9.98,39.96-5.89,65.67,10.75
		c52.67,34.07,81.26,115.01,48.44,227.87c-9.48,32.62-5.83,61.49,11.44,81.64c15.11,17.64,28.43,29.06,45.53,41.84
		c4.59,3.44,4.95,5.47,2.16,9.44c-2.45,3.47-8.46,8.21-11.54,10.52c-3.74,2.81-6.12,3.17-10.23,0.94c-4.78-2.6-8.5-4.61-13.9-8.61
		L253.53,371.15z"/>
	<path class="st9" d="M216.79,371.16c11.96,17.04,19.41,24.95,27.26,33.14c2.29,2.39,4.07,2.93,7.41,1.45
		c6.45-2.87,13.31-6.7,19.68-10.39c2.77-1.61,2.66-2.15,0.51-3.92c-15.41-12.74-30.92-31.09-37.6-48.91
		c-1.3-3.46-0.01-3.95,1.44-0.55c6.95,16.22,24.4,36.38,38.17,47.4c3.97,3.17,3.71,5.5-0.66,7.98c-6.08,3.47-13.74,7.86-20.56,11.05
		c-4.18,1.95-7.38,0.85-10.17-2.08c-7.25-7.59-13.47-14.79-21.74-26.47L216.79,371.16z"/>
	<path class="st9" d="M200.37,419.44c-11.62-19.02-19.11-34.15-23.83-53.98c-0.84-3.52,0.48-3.87,1.49-0.4
		c4.91,16.89,12.81,33.29,24.36,52.18c2.42,3.96,3.06,4.54,8.09,3.49c6.23-1.3,14.17-4.04,22.23-7.33c3.91-1.59,3.98-2.53,1.53-5.79
		c-9.13-12.2-16.1-26.83-23.91-50.09c-1.22-3.64,0.04-4.13,1.44-0.56c8.49,21.69,16.98,38.46,24.91,49.35
		c3.42,4.69,2.85,7.42-2.52,9.63c-8.51,3.49-16.41,6.12-22.75,7.44C205.3,424.66,203.39,424.38,200.37,419.44z"/>
	<path class="st9" d="M180.06,374.28c1.39,14.85,6.35,31.96,12.76,46.91c2,4.68,1.1,7.67-3.61,8.86
		c-8.49,2.15-19.19,4.73-25.81,6.56c-5.3,1.46-8.38,0.75-10.42-4.76c-27.59-74.39-16.66-133.76,35.55-227.84
		c37.71-67.96,14.24-137.17-18.47-175.25c-11.81-13.74-26.13-20.18-36.6-21.14c-3.4-0.31-3.34-1.58,0.07-1.55
		c11.11,0.12,26.77,7.68,38.65,21.1c34,38.4,57.6,108.57,18.81,178.36c-42.47,76.42-64.94,142.95-35.44,224.83
		c1.4,3.88,3,4.55,7.12,3.45c7.02-1.87,17.06-4.15,25.34-6.27c3-0.77,3.34-2.58,2.04-5.71c-6.22-14.99-12.35-35.1-12.16-54.16
		L180.06,374.28z"/>
	<path class="st9" d="M233.32,298.23c-1.85,19.9-19.82,30.4-37.95,29.94c-20.81-0.53-32.78-11.73-31.21-29.76
		c1.32-15.2,14.51-25.73,28.06-23.71c7.72,1.15,14.2,6.97,13.56,15.52c-0.68,9.13-8.1,13.13-14.24,12.96
		c-6.09-0.17-9.58-3.64-10.32-8.61c-2.93,6.57-0.04,17.03,11.17,18.51c14.55,1.94,26.72-10.27,27.09-27.12
		c0.33-15.07-8.71-25.13-24.73-27.63c-14.86-2.33-28.43,3.29-37.7,15.07l1.79-5.64c9.42-9.8,22.45-14.22,36.36-12.05
		c16.86,2.64,27.64,14.68,27.29,30.59c-0.41,18.68-13.99,31.21-30.96,29.25c-14.16-1.64-16.37-17.31-10.83-24.03
		c1.18-1.43,1.64-1.24,1.85,0.36c0.62,4.73,2.95,8.94,8.98,9c5.21,0.05,11-3.67,11.77-11.34c0.62-6.24-4.26-11.54-11.51-12.62
		c-11.8-1.76-23.85,7.67-25.07,21.83c-1.34,15.55,9.24,26.28,28.71,26.78c20.52,0.48,36.97-12.94,36.36-34.11L233.32,298.23z"/>
	<path class="st9" d="M108.63,170.97c-5.67,7.69-17.02,14.06-27.97,17.36l-1.61-1.82c10.4-3.41,19.95-8.44,25.55-15.06
		L108.63,170.97z"/>
	<path class="st9" d="M44.52,220c-10.75-6.82-14.02-20.13-11.24-33.94l2.44-2.73c-2.98,14.01,0.38,26.61,6.1,31.51L44.52,220z"/>
	<path class="st9" d="M144.66,229.72c1.25-15.07-8.98-28.1-18.71-32.16l-1.46-2.81c12.38,4.27,22.38,16.38,22.21,31.68
		L144.66,229.72z"/>
</g>
</svg>
