<?xml version="1.0" encoding="UTF-8"?>
<!-- Created with Inkscape (http://www.inkscape.org/) -->
<svg version="1.1" viewBox="0 0 272.49 262.64" xmlns="http://www.w3.org/2000/svg">
 <path d="m191.58 69.833c6.4596-6.2696 13.806-14.682 13.806-17.185 0-6.9478-56.772-51.386-69.141-51.386-12.381 0-69.141 44.438-69.141 51.386 0 2.5033 7.3392 10.916 13.803 17.185z" fill="#fff"/>
 <path d="m136.25 170.47c75.093 0 92.259-10.583 93.146-36.072 1.3369-38.289-67.812-106.43-93.135-106.43s-94.495 68.137-93.162 106.43c0.88345 25.489 18.053 36.072 93.15 36.072" fill="#fff"/>
 <path d="m211.35 147.16c-3.871 1.55-8.366 2.9218-13.628 4.0726-14.182 3.1001-33.852 4.6151-61.623 3.8207v15.418h0.15158c74.984 0 92.209-10.551 93.142-35.964-3.8866 4.8515-9.4123 9.1954-18.042 12.652" fill="#dcdddd"/>
 <path d="m61.145 147.16c3.875 1.55 8.3738 2.9218 13.636 4.0726 14.171 3.1001 33.844 4.6151 61.624 3.8207v15.418h-0.15488c-74.992 0-92.212-10.551-93.146-35.964 3.8866 4.8515 9.4123 9.1954 18.042 12.652" fill="#dcdddd"/>
 <path d="m193.66 146.09-1.705-0.1099c-16.174-15.155-38.331-20.223-55.695-20.223-17.348 0-39.559 5.0684-55.726 20.223l-1.7089 0.1099c-19.297 38.319-12.431 66.545 24.052 83.645 10.92 8.5017 19.177 12.462 23.447 25.815 1.3447-3.4487 2.4994-7.2579 3.2627-11.106 2.7125 5.1032 5.08 10.776 6.6417 17.437h0.022c1.5616-6.6611 3.9292-12.334 6.6417-17.437 0.7634 3.8478 1.9182 7.6569 3.2589 11.106 4.274-13.353 12.528-17.313 23.444-25.815 36.494-17.1 43.365-45.325 24.06-83.645" fill="#2f98ce"/>
 <path d="m104.34 165.69c-10.427 0.055-18.715-9.0093-19.258-18.728-0.63551-11.481 8.2843-19.712 18.336-20.034 11.996-0.37565 19.959 8.5133 19.963 19.111 0 10.579-6.8003 19.592-19.041 19.65" fill="#fff"/>
 <path d="m117.42 140.31c-3.84-1.8948-15.027-6.5679-19.789-7.4011-3.6811 2.4915-6.2772 6.7385-6.285 11.563-0.0275 8.0328 6.0021 13.717 12.919 13.764 8.5633 0.0439 13.616-6.0526 13.794-13.272 0.0429-1.5693-0.18587-3.1465-0.63935-4.6538" fill="#505456"/>
 <path d="m107.35 135.41c-2.2784-0.16696-4.4328 1.5423-4.5723 3.9447-0.12794 2.2552 1.546 4.433 3.8671 4.6306 2.5302 0.21309 4.4948-1.6314 4.5606-4.0222 0.0505-2.3056-1.4221-4.3632-3.8554-4.5531" fill="#fff"/>
 <path d="m116.74 140.65c0.43398 1.4066 0.6006 2.8364 0.56963 4.2973-0.19367 7.7421-5.6611 12.528-12.791 12.528-7.1374 0-12.314-6.0915-12.291-12.989 0.0117-4.3438 2.383-8.397 5.7425-10.85 3.4834 0.63598 17.169 6.0682 18.77 7.0137m2.3326 4.3361c0.0429-1.8444-0.24419-3.5921-0.79435-5.204-4.4173-2.3095-16.08-6.9633-20.505-7.8662-4.1499 2.4838-7.4202 7.498-7.4358 12.559-0.023 8.8504 6.405 14.516 14.027 14.516 8.3541 0 14.492-5.3514 14.709-14.004" fill="#0f141b"/>
 <path d="m85.966 146.93c-0.58127-10.505 7.9395-19.247 18.184-19.247 10.725 0 18.339 7.8933 18.351 18.363 0 9.3657-6.1338 19.018-18.235 19.018-9.1136 0-17.727-7.8197-18.301-18.135m18.184-20.63c-11.834 0-20.626 8.4744-19.944 20.715 0.55798 10.025 8.2107 19.561 20.141 19.561 11.652-0.0439 20.04-8.5675 20.04-20.529-4e-3 -11.326-8.3231-19.747-20.238-19.747" fill="#0f141b"/>
 <path d="m168.16 165.69c10.423 0.055 18.711-9.0093 19.25-18.728 0.63541-11.481-8.2805-19.712-18.332-20.034-11.996-0.37565-19.959 8.5133-19.963 19.111 0 10.579 6.8042 19.592 19.045 19.65" fill="#fff"/>
 <path d="m155.08 140.31c3.8361-1.8948 15.027-6.5679 19.789-7.4011 3.681 2.4915 6.2733 6.7385 6.2849 11.563 0.0275 8.0328-6.0021 13.717-12.915 13.764-8.5594 0.0439-13.624-6.0526-13.802-13.272-0.0384-1.5693 0.18996-3.1465 0.64321-4.6538" fill="#505456"/>
 <path d="m165.14 135.41c2.2784-0.16696 4.4328 1.5423 4.5723 3.9447 0.12794 2.2552-1.5422 4.433-3.8671 4.6306-2.5302 0.21309-4.4909-1.6314-4.5568-4.0222-0.0614-2.3056 1.4221-4.3632 3.8516-4.5531" fill="#fff"/>
 <path d="m174.53 133.63c3.3594 2.4567 5.727 6.5098 5.7347 10.854 0.0275 6.8935-5.1496 12.985-12.283 12.985-7.1296 0-12.593-4.7817-12.787-12.524-0.0384-1.4609 0.12794-2.8907 0.55798-4.3013 1.6042-0.94573 15.294-6.3781 18.777-7.0136m-6.3934 25.358c7.6218 0 14.05-5.6652 14.027-14.516-0.0117-5.0645-3.2897-10.079-7.4358-12.559-4.4289 0.9029-16.092 5.5528-20.505 7.866-0.54632 1.612-0.83697 3.3558-0.79435 5.2042 0.20926 8.6489 6.3508 14.004 14.709 14.004" fill="#0f141b"/>
 <path d="m168.23 165.06c-12.101 0-18.235-9.6525-18.235-19.018 4e-3 -10.466 7.6218-18.359 18.339-18.359 10.249 0 18.77 8.738 18.184 19.243-0.57346 10.315-9.1833 18.135-18.289 18.135m-20.126-19.018c0 11.966 8.3928 20.487 20.044 20.533 11.923 0 19.576-9.5363 20.134-19.565 0.68196-12.237-8.11-20.715-19.948-20.715-11.911 0-20.23 8.4203-20.23 19.747" fill="#0f141b"/>
 <path d="m204.01 187.58c-3.2007 10.962-8.2537 16.751-16.507 22.242 2.0227-5.0414 2.6155-8.0173 2.5265-10.536-6.2969 18.17-27.598 27.4-35.088 26.268 2.5226-3.8594 4.7508-8.0172 6.3783-11.276-17.437 21.816-32.352 22.037-50.107 0 1.5809 3.1077 3.6579 7.2734 6.0837 11.276-6.8975 0.86446-26.551-6.0682-34.859-26.195 0.52702 4.3787 0.96869 6.4556 2.8985 10.462-9.1255-3.5612-14.961-14.988-16.794-21.564 1.6856 17.526 12.892 31.43 34.34 41.478 10.92 8.5017 19.177 12.462 23.447 25.815 1.3447-3.4487 2.4994-7.2579 3.2627-11.106 2.7125 5.1032 5.08 10.776 6.6417 17.437h0.022c1.5616-6.6611 3.9292-12.334 6.6417-17.437 0.7634 3.8478 1.9182 7.6569 3.2589 11.106 4.274-13.353 12.528-17.313 23.444-25.815 21.731-10.183 32.949-24.308 34.406-42.156" fill="#2381af"/>
 <path d="m136.27 133.08c-3.7392 0-7.4009 4.8553-7.4009 12.853 0 8.8542 4.0337 12.512 7.3582 12.512 3.9446 0 7.5869-4.6848 7.5869-12.369 0-8.0405-3.2393-12.997-7.5443-12.997" fill="#e2adc0"/>
 <path d="m143.38 149.49c-0.91498 6.2891-4.274 8.9629-7.1106 8.9629-3.3325 0-6.4634-3.3558-7.343-9.0441 3.4254 6.5991 11.078 6.6455 14.454 0.0768" fill="#c496a8"/>
 <g fill="#0f141b">
  <path d="m202.91 176.48c1.0457 8.308 0.0769 15.884-2.4529 22.653-4.3476 11.652-13.884 21.316-28.888 28.822-2.3444 1.1742-3.1232 2.3172-4.3361 3.4448 16.631-7.2694 29.473-14.729 35.781-31.612 2.4915-6.6688 2.7745-13.57 1.674-22.258-0.58546-0.30647-1.271-0.64367-1.7787-1.0501"/>
  <path d="m186.88 178.34c-1.8678-3.3558-3.6502-3.6231-2.0421-0.74032 7.219 12.896 6.4286 31.817-8.7496 45.705-12.908 11.807-23.622 12.95-29.946 29.76-1.1702-3.2859-2.0577-6.3239-2.6388-9.4742-0.33721 0.70957-1.3447 1.6779-1.7592 2.3057 1.0303 3.561 1.8095 5.5605 2.8055 7.7963 1.4996 3.3907 2.2203 3.2008 3.4294 0.0659 5.669-14.717 18.305-18.724 29.636-29.089 14.973-13.702 17.395-31.701 9.265-46.333"/>
  <path d="m69.58 176.48c-1.0501 8.308-0.0813 15.884 2.4528 22.653 4.3516 11.652 13.888 21.316 28.888 28.822 2.3482 1.1742 3.1271 2.3172 4.3361 3.4448-16.627-7.2694-29.473-14.729-35.778-31.612-2.4955-6.6688-2.7745-13.57-1.6701-22.258 0.57732-0.30647 1.2632-0.64367 1.7709-1.0501"/>
  <path d="m85.618 178.34c1.8717-3.3558 3.6619-3.6231 2.0421-0.74032-7.2113 12.896-6.4286 31.817 8.7574 45.705 12.904 11.807 23.61 12.95 29.942 29.76 1.1664-3.2859 2.0499-6.3239 2.635-9.4742 0.33282 0.70957 1.3446 1.6779 1.7669 2.3057-1.038 3.561-1.8173 5.5605-2.8093 7.7963-1.4996 3.3907-2.2203 3.2008-3.4332 0.0659-5.6613-14.717-18.301-18.724-29.628-29.089-14.95-13.671-17.426-31.655-9.2728-46.333"/>
  <path d="m134.13 258.63c-3.2821-11.299-8.3002-19.243-13.911-27.109-12.295-17.216-17.573-30.663-10.013-52.11 1.3602-3.8555 3.4526-5.0994 2.3134-1.7902-8.8387 25.722-0.21309 38.234 9.4627 52.676 5.5257 8.2653 10.978 16.79 14.268 28.578 3.2822-11.788 8.742-20.313 14.268-28.578 9.6409-14.388 18.255-26.869 9.548-52.42-1.2245-3.5959 0.66234-2.8326 2.1544 1.3214 7.9088 21.963 2.5769 34.204-9.8114 52.203-5.4909 7.9669-10.9 15.953-14.175 27.26-1.5268 5.235-2.5265 5.3862-4.1037-0.0328"/>
 </g>
 <path d="m136.25 42.81c-18.852 0-82.312 60.941-78.952 93.48 0.45727 4.4058 2.4645 12.14 11.575 19.134l11.668-9.4471c16.166-15.151 38.378-20.223 55.73-20.223 17.36 0 39.517 5.0724 55.691 20.223l10.955 9.9858c9.7145-7.1337 11.819-15.155 12.284-19.673 3.3596-32.538-60.097-93.48-78.948-93.48" fill="#e2adc0"/>
 <g fill="#fff798">
  <path d="m149.41 98.24c-1.2866-9.1487 3.4603-15.643 9.5362-15.934 6.7735-0.32512 12.601 5.1576 14.151 12.71 1.8754 9.114-3.0496 16.085-9.2651 16.763-7.3663 0.79415-13.326-5.7272-14.422-13.539"/>
  <path d="m194.64 119.3c-1.5267-5.7892-1.705-12.466 0.67772-13.326 1.6119-0.58875 5.022 1.3602 8.0405 10.025 2.5343 7.2733 1.5306 12.652-0.24055 13.624-2.9566 1.6314-6.9362-4.4368-8.4784-10.323"/>
  <path d="m77.856 119.3c1.5306-5.7892 1.705-12.466-0.68201-13.326-1.6081-0.58875-5.0181 1.3602-8.0405 10.025-2.5381 7.2733-1.5267 12.652 0.24022 13.624 2.9605 1.6314 6.9362-4.4368 8.4823-10.323"/>
  <path d="m123.1 98.24c1.2788-9.1487-3.472-15.643-9.5402-15.934-6.7734-0.32512-12.609 5.1576-14.155 12.71-1.8716 9.114 3.0535 16.085 9.2612 16.763 7.3741 0.79415 13.334-5.7272 14.434-13.539"/>
 </g>
 <path d="m202.91 155.96c3.937-2.8868 6.599-5.9171 8.4358-8.8039-3.871 1.55-8.3661 2.9178-13.628 4.0688z" fill="#c496a8"/>
 <path d="m69.58 155.96c-3.9331-2.8868-6.6029-5.9171-8.4358-8.8039 3.875 1.55 8.3738 2.9178 13.636 4.0688z" fill="#c496a8"/>
 <path d="m191.86 146.87c-19.293-18.061-45.43-20.103-55.598-20.103-10.172 0-36.262 1.9298-55.555 20.003-0.30228 0.27899-0.99198-1.0534-0.69365-1.3407 19.685-18.437 45.899-20.932 56.249-20.932 10.346 0 36.521 2.4954 56.206 20.932 0.30976 0.28669-0.46133 1.581-0.60852 1.4415" fill="#0f141b"/>
 <path d="m136.32 141.24c-1.5732 0-3.1192 1.7282-3.1192 4.5803 0 3.158 1.701 4.4639 3.096 4.4639 1.6662 0 3.1967-1.6701 3.1967-4.4097 0-2.8637-1.3601-4.6345-3.1735-4.6345" fill="#505456"/>
 <g fill="#0f141b">
  <path d="m142.93 146.08c0 7.5444-3.3866 11.737-6.6996 11.737-2.6542 0-6.4748-3.2589-6.4748-11.881 0-8.3776 3.3594-12.222 6.5136-12.222 3.5532 0 6.6608 4.4484 6.6608 12.365m-6.6996 13.004c4.1732 0 8.4664-4.4756 8.4664-13.004 0-8.2498-3.2626-13.5-8.4277-13.5-4.7544 0-8.2843 5.4133-8.2843 13.357 0 9.1178 4.0608 13.148 8.2456 13.148"/>
  <path d="m138.71 145.87c0 2.3288-1.2399 3.84-2.4101 3.84-1.1159 0-2.3133-1.391-2.3133-3.8904 0-2.3443 1.0346-4.0028 2.3326-4.0028 1.2942 0 2.3908 1.7824 2.3908 4.0531m1.4802 7e-3c0-2.7396-1.4724-5.0878-3.871-5.0878-2.3249 0-3.8089 2.356-3.8089 5.0297 0 2.9643 1.7747 4.9172 3.7857 4.9172 2.259 0 3.8942-2.5032 3.8942-4.8591"/>
  <path d="m62.054 163.4c-13.307-5.4637-20.216-14.485-20.719-28.973-0.74791-21.409 20.088-50.886 39.827-71.334 20.735-21.459 43.473-36.006 55.098-36.006 11.617 0 34.352 14.535 55.067 35.983 19.751 20.448 40.582 49.933 39.838 71.357-0.50418 14.465-7.3895 23.474-20.646 28.946-0.38334 0.15475-0.9688-1.7477-0.58106-1.9027 12.625-5.2157 17.968-13.31 18.449-27.101 0.72825-20.94-19.882-50.018-39.412-70.245-20.448-21.169-41.481-34.642-52.715-34.642-11.237 0-32.29 13.481-52.746 34.665-19.53 20.223-40.137 49.289-39.401 70.222 0.48045 13.81 5.8396 21.924 18.518 27.132 0.38752 0.15919-0.48044 1.9452-0.57733 1.8987"/>
  <path d="m176.42 23.498c-14.76-11.237-33.441-23.498-40.172-23.498-6.7346 0-25.164 11.869-39.928 23.102-11.23 8.5443-30.98 24.893-30.98 29.547 0 2.7861 7.5368 10.904 12.532 15.984 0.37203-0.32953 0.93002-1.004 1.4957-1.3988-6.5061-6.5719-11.001-12.861-11.001-14.585 0-2.5265 11.086-13.578 29.632-27.694 18.301-13.93 33.007-22.936 38.25-22.936 5.2352 0 19.944 9.0055 38.25 22.936 18.546 14.116 29.628 25.168 29.628 27.694 0 1.7051-4.3902 7.8778-10.796 14.372 0.29877 0.38334 0.86775 1.2826 1.24 1.67 4.9871-5.0839 12.59-13.245 12.59-16.042 0-4.6538-19.514-20.603-30.74-29.151"/>
  <path d="m135.37 27.971-0.12742-26.71c0-0.4141 2.0189-0.4141 2.0189 0l-0.1241 26.71c0 0.4141-1.767 0.4141-1.767 0"/>
 </g>
 <path d="m257.56 207.43c-7.6917-7.5717-40.889-20.262-52.467-57.547-3.9874-5.2971-8.8387-7.8352-13.287-7.6919 1.7399 27.803 32.484 77.344 41.326 88.458 7.7926 7.0525 32.329 14.105 38.06 13.818-2.1429-12.121-11.365-34.809-13.632-37.037" fill="#fff"/>
 <path d="m67.397 149.88c-11.575 37.285-44.771 49.971-52.467 57.547-2.263 2.2281-11.489 24.912-13.632 37.033 5.7311 0.2867 30.267-6.7657 38.064-13.814 8.8388-11.113 39.587-60.659 41.326-88.458-4.4446-0.1472-9.3038 2.3948-13.291 7.6919" fill="#fff"/>
 <path d="m271.19 244.46c-20.22-8.3739-27.756-12.95-33.58-18.763-12.543-12.539-29.756-40.544-43.771-71.718 7.3237 28.225 31.6 66.994 39.296 76.666 7.7888 7.0486 32.325 14.101 38.056 13.814" fill="#dcdddd"/>
 <path d="m1.2991 244.46c13.903-5.9248 27.396-12.578 33.58-18.763 12.543-12.539 29.767-40.544 43.772-71.718-7.3237 28.225-31.596 66.994-39.292 76.666-7.7964 7.0486-32.333 14.101-38.06 13.814" fill="#dcdddd"/>
 <path d="m271.7 240.69c-2.9876-12.353-10.617-32.627-12.977-34.944-1.802-1.7786-5.3901-3.7664-9.2883-6.2891-12.942-8.3699-33.968-20.991-42.977-48.956-1.9685-6.1108-4.0106-6.7696-2.3095-1.1121 8.866 29.543 30.98 43.837 44.337 52.482 3.8246 2.4684 6.8471 4.4252 8.552 6.0915 1.8909 1.8677 10.753 22.994 13.248 35.731-6.7036-0.36798-29.12-6.8586-36.599-13.57-9.3231-11.749-38.374-59.209-41.016-86.547-0.57777-6.041-2.2514-6.8509-1.8678-1.2167 1.8754 27.532 33.453 82.06 41.764 90.376 5.669 5.2234 24.691 11.559 34.925 12.88 6.0992 0.79085 5.3746-0.13499 4.2082-4.9251" fill="#0f141b"/>
 <path d="m0.78811 240.69c2.9954-12.353 10.625-32.371 12.981-34.693 1.8057-1.7709 5.3939-3.7665 9.2883-6.2851 12.946-8.3739 33.972-21.247 42.981-49.212 1.9685-6.1108 4.0067-6.7696 2.3095-1.1121-8.8659 29.543-30.984 43.837-44.345 52.482-3.8246 2.4684-6.8432 4.4252-8.5443 6.0915-1.891 1.8677-10.753 22.994-13.248 35.731 6.6959-0.36798 29.116-6.8586 36.595-13.57 9.327-11.749 38.374-59.209 41.016-86.547 0.58128-6.041 2.2514-6.8509 1.8639-1.2167-1.8716 27.532-33.449 82.06-41.757 90.376-5.6768 5.2234-24.687 11.559-34.929 12.88-6.0992 0.79085-5.3746-0.13499-4.2121-4.9251" fill="#0f141b"/>
</svg>
