<?xml version="1.0" encoding="UTF-8" standalone="no"?>
<!-- Created with Inkscape (http://www.inkscape.org/) -->

<svg
   version="1.1"
   viewBox="0 0 89.979 98.11"
   id="svg639"
   sodipodi:docname="686-3.svg"
   inkscape:version="1.2.2 (b0a8486, 2022-12-01)"
   xmlns:inkscape="http://www.inkscape.org/namespaces/inkscape"
   xmlns:sodipodi="http://sodipodi.sourceforge.net/DTD/sodipodi-0.dtd"
   xmlns="http://www.w3.org/2000/svg"
   xmlns:svg="http://www.w3.org/2000/svg">
  <defs
     id="defs643" />
  <sodipodi:namedview
     id="namedview641"
     pagecolor="#505050"
     bordercolor="#eeeeee"
     borderopacity="1"
     inkscape:showpageshadow="0"
     inkscape:pageopacity="0"
     inkscape:pagecheckerboard="0"
     inkscape:deskcolor="#505050"
     showgrid="false"
     inkscape:zoom="1.2027316"
     inkscape:cx="101.02004"
     inkscape:cy="38.661992"
     inkscape:window-width="1309"
     inkscape:window-height="527"
     inkscape:window-x="-1"
     inkscape:window-y="127"
     inkscape:window-maximized="0"
     inkscape:current-layer="svg639" />
  <path
     d="m 77.6662,54.8026 c -6.2928,-8.5641 -25.004,-10.345 -38.864,0.17581 -1.3311,6.1626 -4.9533,13.631 -9.2296,18.952 0.77878,2.8179 2.4299,5.6245 5.1968,7.7429 1.4953,2.5318 3.8374,5.1996 7.2246,8.0316 0.33139,1.586 0.22093,3.036 -0.36246,4.2878 3.1266,-1.535 5.0609,-2.7641 7.032,-5.4658 -0.02569,3.8516 -1.6794,5.8028 -4.3444,7.9014 3.9309,-0.55232 8.145,-2.0023 11.931,-4.2537 4.9957,-0.88644 9.4364,-2.9907 12.795,-5.9303 l 0.09063,0.008 c 13.682,-6.4231 13.073,-21.977 8.5301,-31.45"
     fill="#2f98ce"
     id="path537" />
  <path
     d="m 68.8462,46.9356 c -2.5432,0.85817 -4.6219,3.8204 -2.9142,9.1022 1.096,3.3985 4.6899,5.1175 7.6918,4.013 2.2713,-0.83265 4.2764,-4.03 3.0275,-8.0799 -1.3566,-4.3868 -5.2251,-5.9076 -7.8051,-5.0354"
     fill="#ffffff"
     id="path539" />
  <path
     d="m 45.7862,48.5686 c -4.0696,1.3423 -5.8878,6.341 -4.6814,9.5893 1.7502,4.7295 6.4118,6.1172 9.9745,4.9816 4.3132,-1.3764 5.8708,-5.7887 4.7154,-9.5412 -1.2518,-4.0696 -5.8567,-6.3976 -10.008,-5.0297"
     fill="#ffffff"
     id="path541" />
  <path
     d="m 60.7402,49.9786 c -1.2376,0.1726 -2.311,1.9569 -1.7814,5.2874 0.38237,2.3846 1.8437,4.4209 3.5259,4.1773 1.5633,-0.22398 2.1722,-2.6196 1.7615,-5.16 -0.50126,-3.1351 -2.26,-4.4803 -3.5061,-4.3047"
     fill="#e2adc0"
     id="path543" />
  <path
     d="m 44.8872,49.9716 c -2.8236,0.74178 -4.9419,3.6166 -3.8771,7.2444 0.65989,2.26 3.2654,4.7635 6.7743,3.8459 3.4098,-0.89494 4.6389,-4.3529 3.9281,-6.8904 -1.0224,-3.6477 -4.2792,-4.8682 -6.8252,-4.1999"
     fill="#505456"
     id="path545" />
  <path
     d="m 68.3182,47.7566 c -2.1892,0.47284 -3.5769,2.7329 -2.7867,6.6921 0.57776,2.8916 2.9227,4.0527 5.0099,3.6279 2.1977,-0.44715 3.3645,-3.1294 2.7839,-5.7858 -0.77035,-3.5203 -3.4976,-4.8626 -5.0071,-4.5341"
     fill="#505456"
     id="path547" />
  <path
     d="m 44.3592,52.3946 c -0.84112,0.33717 -1.3226,1.2829 -0.92891,2.243 0.36816,0.90065 1.4132,1.2121 2.2515,0.88644 0.73632,-0.28339 1.2603,-1.2971 0.85244,-2.243 -0.37097,-0.85239 -1.2829,-1.2461 -2.175,-0.88643"
     fill="#ffffff"
     id="path549" />
  <path
     d="m 67.4962,49.8146 c -0.76746,0.19266 -1.1215,1.062 -0.92892,1.8918 0.20672,0.87801 1.028,1.3226 1.77,1.1272 0.86094,-0.22398 1.147,-1.1413 0.95722,-1.8776 -0.21242,-0.83546 -1.0252,-1.3367 -1.7983,-1.1413"
     fill="#ffffff"
     id="path551" />
  <path
     d="m 34.3772,66.5536 c -1.2773,2.3789 -2.9737,5.0552 -4.8768,7.2868 0.86377,2.7953 2.26,5.7689 5.0864,7.4936 -3.39,-5.2053 -1.787,-11.359 0.14161,-14.441 z"
     id="path553"
     style="fill:#2381af" />
  <path
     d="m 32.7732,72.5916 c -0.09063,4.8174 4.0725,10.348 6.9895,10.113 0.56356,2.6168 2.0221,5.531 2.2005,6.8394 -5.8057,-4.1688 -10.105,-10.28 -9.19,-16.953"
     id="path555"
     style="fill:#2381af" />
  <path
     d="m 39.3672,78.4766 c 1.2971,8.6151 7.4738,8.6887 9.0852,6.7856 0.11327,1.4726 0.15863,2.342 0.15863,3.322 -1.8522,2.4752 -3.9932,4.0158 -6.9159,5.4205 0.75903,-2.2543 0.84679,-3.4353 -0.17838,-5.9332 -1.028,-2.4979 -2.243,-5.5395 -2.1495,-9.595"
     id="path557"
     style="fill:#2381af" />
  <path
     d="m 48.4272,81.0716 c 1.7077,10.159 11.977,8.2102 18.918,-1.5462 -3.2795,9.5496 -14.146,15.774 -23.019,16.933 2.9453,-2.2769 4.7295,-4.9985 4.2821,-9.2352 -0.29454,-2.8208 -0.3342,-4.3501 -0.18127,-6.1513"
     id="path559"
     style="fill:#2381af" />
  <path
     d="m 75.6082,73.7556 c -1.9711,7.4454 -7.9496,10.855 -10.983,10.926 -2.6366,3.288 -4.3444,4.9448 -7.8929,7.3095 8.8275,-1.1102 18.241,-8.6491 18.876,-18.236"
     id="path561"
     style="fill:#2381af" />
  <path
     d="m 80.6362,66.1786 c -0.66551,6.7686 -3.237,10.317 -6.0634,12.212 -1.0733,2.7216 -2.9453,5.7094 -5.1288,7.539 7.2784,-2.9907 11.815,-10.665 11.192,-19.751"
     id="path563"
     style="fill:#2381af" />
  <path
     d="m 59.3102,56.4316 c 1.3792,2.1071 4.0895,2.6225 5.0156,-0.97137 0,2.5602 -0.61453,3.7921 -1.8267,3.9677 -1.2348,0.18143 -2.5658,-0.6342 -3.1889,-2.9963"
     fill="#c496a8"
     id="path567" />
  <path
     d="m 68.9542,47.3056 c -2.4327,0.82414 -4.2877,3.7298 -2.7074,8.6094 0.96289,2.9793 4.2821,4.8853 7.2274,3.8034 2.3251,-0.85529 3.9139,-4.1376 2.8292,-7.6493 -1.2999,-4.2112 -4.8768,-5.599 -7.3492,-4.7635 m -3.373,8.8077 c -1.821,-5.6273 0.53811,-8.6859 3.1209,-9.5582 2.5262,-0.8524 6.7969,0.50093 8.2866,5.3299 1.2716,4.1178 -0.61742,7.5531 -3.2342,8.5018 -3.0671,1.1102 -6.9753,-0.56677 -8.1733,-4.2736"
     id="path569" />
  <path
     d="m 44.9672,50.2626 c -3.019,0.79556 -4.5058,3.8346 -3.6222,6.845 0.67402,2.2997 3.203,4.4832 6.3693,3.6505 3.1039,-0.81563 4.3472,-4.0441 3.6562,-6.5137 -0.79018,-2.8094 -3.424,-4.7635 -6.4033,-3.9818 m -4.3132,7.0603 c -0.88077,-2.9991 0.45879,-6.6751 4.1858,-7.655 2.7329,-0.71609 6.1342,0.65106 7.1877,4.4152 0.78729,2.8037 -0.61172,6.3409 -4.1688,7.2727 -3.3786,0.88644 -6.3778,-1.2121 -7.2047,-4.0329"
     id="path571" />
  <path
     d="m 68.3902,48.0386 c -2.2118,0.47846 -3.2229,2.866 -2.5347,6.3353 0.46441,2.3195 2.4356,3.8488 4.6417,3.4013 2.1722,-0.44153 2.9482,-3.1691 2.4582,-5.4092 -0.67121,-3.0699 -3.0246,-4.6615 -4.5653,-4.3273 m -3.1974,6.4854 c -0.87227,-4.3982 0.91475,-6.6157 3.0445,-7.0745 2.0929,-0.45919 4.704,1.4896 5.4205,4.7607 0.65138,2.9737 -0.63717,5.6612 -3.0445,6.1512 -2.8037,0.57239 -4.8881,-1.1781 -5.4205,-3.8374"
     id="path573" />
  <path
     d="m 45.9242,48.9186 c -3.7581,1.2376 -5.6641,5.9246 -4.4888,9.1022 1.5661,4.2169 5.834,5.9303 9.5355,4.7522 3.8771,-1.2377 5.6726,-5.16 4.4661,-9.0683 C 54.3608,50.21 50.0901,47.545 45.9242,48.9186 m -5.16,9.3599 c -1.1895,-3.2087 0.3908,-8.5896 4.8966,-10.074 4.4435,-1.467 9.156,1.0677 10.464,5.3157 1.4528,4.7182 -1.1328,8.7652 -4.9504,9.966 -3.7836,1.1866 -8.5811,-0.26893 -10.411,-5.2082"
     id="path575" />
  <path
     d="m 60.7872,50.2786 c -0.9629,0.13326 -1.9938,1.7701 -1.484,4.9363 0.42764,2.682 1.9626,4.1036 3.1521,3.9336 1.3027,-0.18705 1.8267,-2.3364 1.433,-4.8031 -0.52679,-3.2738 -2.141,-4.1999 -3.1011,-4.0668 m -2.1722,5.0411 c -0.56926,-3.5741 0.70236,-5.4517 2.0901,-5.6414 1.4727,-0.20711 3.3673,1.3084 3.8912,4.5709 0.50407,3.1549 -0.47862,5.2562 -2.0702,5.4857 -1.5718,0.22959 -3.4211,-1.3566 -3.9111,-4.4152"
     id="path577" />
  <path
     d="m 59.9962,54.0236 c -0.12748,-0.57239 0.18689,-0.64865 0.39369,-0.10436 0.60321,1.6029 2.3874,1.3282 2.3619,-0.49291 -0.0088,-0.60851 0.33139,-0.6342 0.40212,-0.0321 0.31999,2.7216 -2.631,2.9878 -3.1577,0.62858"
     id="path579" />
  <path
     d="m 44.2542,96.0566 c 3.1492,-2.5574 4.2679,-4.7267 3.9734,-8.7341 -0.54092,-7.4341 -0.19829,-16.041 5.9105,-20.736 0.90909,-0.69682 1.164,-0.45036 0.31148,0.31148 -5.6273,5.0099 -5.9615,13.056 -5.4234,20.388 0.31437,4.3416 -0.84679,6.273 -3.5825,8.6377 12.622,-2.3195 26.848,-13.696 21.311,-30.779 -0.37386,-1.1526 0.01124,-1.2687 0.43326,-0.13326 6.5817,17.751 -8.5726,29.558 -22.668,31.73 -0.88927,0.13567 -1.0054,-0.0875 -0.2662,-0.68558"
     id="path581" />
  <path
     d="m 48.6432,89.0906 c -1.6851,2.3705 -3.5514,3.5995 -6.6525,5.0637 -0.7307,0.3452 -0.76184,0.24324 -0.54092,-0.5186 0.6004,-2.0561 0.67683,-3.2994 -0.62023,-6.2531 -2.1297,-4.8457 -3.625,-14.404 1.6228,-20.176 0.8213,-0.90057 1.0988,-0.70806 0.36254,0.2609 -4.5171,5.9275 -3.3503,14.894 -1.2603,19.649 1.1413,2.5969 1.2716,4.5652 0.64287,6.256 2.5319,-1.331 4.5851,-2.6395 6.4457,-5.4036 z"
     id="path583" />
  <path
     d="m 42.0582,90.1506 c -9.9433,-7.7881 -12.736,-16.25 -6.6383,-24.707 0.71938,-0.99689 1.0337,-0.82983 0.3908,0.22077 -5.0694,8.2951 -3.2654,15.472 6.1031,23.574 z"
     id="path585" />
  <path
     d="m 35.1082,82.2976 c -3.1068,-1.889 -5.1487,-5.0835 -5.9643,-8.0005 l 0.75052,-0.94592 c 0.68534,2.6564 2.1439,5.4998 4.503,7.6408 z"
     id="path587" />
  <path
     d="m 56.9452,91.7346 c 13.033,-2.8179 22.484,-14.282 16.361,-27.403 -0.50696,-1.0875 -0.1331,-1.2461 0.41343,-0.17581 6.9187,13.565 -3.2512,26.324 -18.301,28.499 z"
     id="path589" />
  <path
     d="m 85.1802,36.0956 c -3.8374,-5.8992 -9.0541,-10.872 -14.392,-14.78 1.7559,-3.4523 2.5177,-5.8595 1.9484,-6.7375 -2.4384,-3.7949 -24.446,-15.098 -29.142,-13.999 -1.9654,0.4616 -16.848,17.049 -21.175,26.836 -0.42764,0.96575 -0.31437,1.6256 0.4673,2.4101 1.1923,1.1923 2.6735,2.4128 4.1065,3.3673 -4.0527,6.4486 -6.2617,11.662 -7.2246,17.253 -1.3622,7.9127 3.9479,12.92 11.093,13.353 l 7.9411,-8.8218 c 13.86,-10.518 32.571,-8.7398 38.864,-0.17581 l 4.6106,4.401 c 8.768,-4.149 9.2948,-13.288 2.9028,-23.107"
     fill="#ffffff"
     id="path593" />
  <path
     d="m 32.9722,59.1886 c -6.9583,-1.7842 -7.9241,-7.8023 -6.2447,-13.206 4.1036,-13.203 18.063,-28.391 23.197,-29.085 6.2815,-0.84678 26.587,10.886 33.013,24.268 2.6253,5.4743 1.6709,10.773 -2.3789,13.656 l -2.8944,-0.0161 c -6.5732,-9.156 -25.307,-9.9575 -38.87,0.16698 z"
     fill="#e2adc0"
     id="path595" />
  <path
     d="m 63.4282,30.5476 c -1.9994,0.54911 -3.3418,3.5061 -2.4299,6.8479 0.86661,3.1917 3.6477,4.8258 5.6839,4.2736 1.9315,-0.52101 3.6222,-3.2314 2.5149,-6.7969 -0.87511,-2.8236 -3.6052,-4.922 -5.7689,-4.3245"
     id="path597"
     style="fill:#fff798" />
  <path
     d="m 33.7832,41.5786 c -1.0337,-0.19508 -2.4384,1.5519 -3.1124,4.3586 -0.83262,3.4806 -0.04255,5.3582 0.85245,5.5366 1.0903,0.21836 2.58,-1.5463 3.1237,-4.7097 0.50415,-2.9596 0.12178,-5.0042 -0.86377,-5.1855"
     id="path599"
     style="fill:#fff798" />
  <path
     d="m 78.2602,39.0106 c -0.77878,0.28579 -0.97139,2.0958 0.006,4.9193 1.1158,3.2144 2.2345,4.2367 3.0841,3.9252 0.62585,-0.2296 0.97705,-1.9938 -0.16425,-5.2847 -0.97423,-2.8207 -2.2175,-3.8176 -2.9255,-3.5599"
     id="path601"
     style="fill:#fff798" />
  <path
     d="m 46.9252,31.2416 c -2.3874,-0.0851 -4.9957,2.1212 -5.2704,5.7009 -0.2662,3.4154 2.1665,6.3749 4.772,6.5505 3.203,0.21515 5.2903,-3.0983 5.2704,-6.0209 -0.0281,-3.8233 -2.4979,-6.1513 -4.772,-6.2305"
     id="path603"
     style="fill:#fff798" />
  <path
     d="m 80.0302,53.6766 c -0.88359,-0.4897 -2.7216,-0.71368 -3.2569,-0.26894 6.7997,11.473 4.3982,28.006 -7.638,32.843 -0.35684,4.1037 -0.25769,11.45 0.20961,11.515 0.657,0.0963 10.357,-5.3837 12.229,-9.7536 2.4044,-8.5782 4.7324,-21.427 -1.5435,-34.336"
     fill="#ffffff"
     id="path607" />
  <path
     d="m 89.2572,45.0076 c 0.13311,5.1515 -3.7553,7.6692 -6.9838,8.1648 -0.47292,0.57238 -1.0535,1.1158 -1.7162,1.617 0.63725,1.4444 1.2178,2.9142 1.6851,4.3869 5.6245,-2.5234 7.9581,-6.9697 7.015,-14.169"
     fill="#dcdddd"
     id="path609" />
  <path
     d="m 82.2732,53.1736 c -0.91475,0.14129 -1.7814,0.11881 -2.4837,-0.0562 0.26339,0.55232 0.52108,1.1102 0.76746,1.6709 0.6627,-0.50094 1.2433,-1.0451 1.7162,-1.6171"
     fill="#c496a8"
     id="path611" />
  <path
     d="m 28.0162,56.3816 c -4.0583,-1.4529 -7.7938,-5.2138 -7.3973,-10.346 -2.8434,9.1334 -0.24638,16.621 10.201,17.828 1.011,-1.6539 1.7106,-3.0983 2.3053,-4.5964 -2.1184,-0.48969 -3.962,-1.5406 -5.109,-2.8858"
     fill="#dcdddd"
     id="path613" />
  <path
     d="m 28.0162,56.3816 c 1.147,1.3452 2.9906,2.3959 5.109,2.8858 0.33131,-0.83826 0.62874,-1.6964 0.92892,-2.6168 -1.7417,0.61735 -3.9337,0.48408 -6.0379,-0.26893"
     fill="#c496a8"
     id="path615" />
  <path
     d="m 80.7492,65.2866 c 0.70798,8.7992 -0.18408,15.692 -3.1577,21.223 -2.9736,5.531 -3.3758,5.6811 -8.2016,11.195 -0.49845,-1.2489 -0.43615,-7.4256 -0.18408,-11.464 6.7346,-3.373 11.702,-8.4764 11.543,-20.954"
     fill="#dcdddd"
     id="path617" />
  <path
     d="m 69.4762,85.7796 c 12.144,-6.1852 12.744,-20.467 7.7995,-30.793 -6.1852,-8.3574 -24.475,-10.096 -38.553,0.45357 l 0.20672,-0.93741 c 14.228,-10.685 32.832,-8.499 39.088,0.0321 0.0057,0.008 0.01445,0.0241 0.01686,0.0321 5.1034,10.53 4.7918,26.633 -9.6856,32.373 z"
     id="path619" />
  <path
     d="M 47.7852,11.5726 C 46.6637,7.857 45.3978,3.8015 43.3729,0.6576 l 0.7193,-0.1445 c 2.0193,2.9991 3.4409,7.1906 4.5539,10.881 z"
     id="path621" />
  <path
     d="m 27.3192,33.4196 c -4.0867,6.5137 -6.0379,11.141 -7.0575,17.074 -1.2659,7.3605 3.6165,12.503 10.855,12.908 l -0.47862,0.81282 c -7.2302,-0.40219 -12.795,-5.6698 -11.385,-13.874 1.0337,-5.9954 3.0869,-10.906 7.3831,-17.389 z"
     id="path623" />
  <path
     d="m 82.1182,58.8406 c 8.4395,-4.1234 8.8615,-12.968 2.6706,-22.478 -10.566,-16.236 -31.996,-25.61 -36.539,-24.492 -4.8768,1.2008 -14.509,14.319 -18.629,21.753 -0.49845,0.90056 -0.94591,1.0535 -1.8607,0.52983 -1.6794,-0.96005 -3.6618,-2.4441 -5.2223,-4.0045 -0.97423,-0.97426 -1.028,-1.7842 -0.53811,-2.9114 4.4435,-10.153 19.363,-26.675 21.447,-27.162 4.7267,-1.1073 26.955,10.283 29.652,14.279 0.69955,1.0337 0.08782,3.3418 -1.9031,7.25 l -0.73632,-0.54348 c 1.9654,-3.8403 2.2798,-5.6584 1.8692,-6.2957 -2.4157,-3.7581 -24.211,-14.846 -28.592,-13.772 -1.8692,0.45598 -16.483,16.902 -20.92,26.584 -0.34271,0.74739 -0.29735,1.2546 0.39931,1.9512 1.552,1.5519 3.2427,2.8717 4.8853,3.8998 0.38518,0.24084 0.62023,0.15815 0.81563,-0.19508 3.9479,-7.1141 13.364,-20.852 19.179,-22.192 5.3412,-1.232 26.978,8.6944 37.462,24.8 6.8451,10.518 5.7151,19.739 -3.1946,23.778 z"
     id="path625" />
  <path
     d="m 33.6672,57.7326 c -3.1917,9.0796 -8.9181,14.86 -15.089,15.673 -2.4667,0.32272 -10.17,1.9796 -11.17,2.5687 -3.6052,2.1212 -7.2812,8.2045 -7.0603,8.9946 0.15574,0.56115 9.4789,0.84397 15.927,0.17581 1.2234,-0.12764 1.8012,-0.38774 2.7612,-1.0988 10.524,-7.8165 17.737,-19.088 19.983,-29.974 -1.6511,-0.4616 -4.2198,1.0818 -5.3526,3.6618"
     fill="#ffffff"
     id="path629" />
  <path
     d="m 38.8112,54.6876 c -4.9674,15.494 -17.995,26.381 -22.365,27.72 -5.3866,1.6483 -11.39,2.2883 -16.12,2.4072 -0.03131,0.92047 9.4279,0.86099 15.406,0.44474 1.7927,-0.12443 2.5177,-0.69681 3.5231,-1.4726 5.6216,-4.3246 16.46,-13.962 19.555,-29.099"
     fill="#dcdddd"
     id="path631" />
  <path
     d="m 69.6232,85.7526 c -0.51547,4.9957 -0.31156,11.617 -0.14161,11.665 0.31718,0.0875 9.8555,-5.3611 11.671,-9.5979 2.7782,-9.9235 4.7522,-21.699 -1.7275,-34.905 -0.52679,-1.0734 -0.20672,-1.2348 0.36254,-0.18383 6.9045,12.784 5.0184,25.389 2.2118,35.415 -1.8918,4.4152 -11.892,10.173 -12.753,9.9575 -0.84678,-0.21274 -0.86661,-7.3095 -0.5947,-11.456 z"
     id="path633" />
  <path
     d="m 0.0059,85.1006 c -0.17557,-1.079 3.5712,-7.3803 7.1792,-9.5015 1.0592,-0.62296 9.0201,-2.2628 11.379,-2.5715 6.5081,-0.85818 12.183,-7.1877 15.375,-16.754 0.35114,-1.0507 0.68253,-0.95154 0.38518,0.12203 -2.682,9.7734 -9.0059,16.525 -15.67,17.403 -2.5318,0.33396 -10.142,2.0079 -11.085,2.5631 -3.5995,2.1155 -7.0122,8.0345 -6.9102,8.4622 0.07065,0.28579 9.241,0.58603 15.593,-0.12443 1.2178,-0.13327 1.6822,-0.39658 2.5857,-1.0705 10.671,-7.9212 18.04,-19.334 20.241,-30.957 0.22093,-1.164 0.57487,-1.1045 0.3993,0.0642 -1.7984,11.824 -9.442,23.67 -20.19,31.654 -1.0337,0.76746 -1.77,1.0988 -2.985,1.2036 -6.4599,0.55793 -16.157,0.37972 -16.298,-0.49532"
     id="path635" />
</svg>
