<?xml version="1.0" encoding="UTF-8"?>
<!-- Created with Inkscape (http://www.inkscape.org/) -->
<svg version="1.1" viewBox="0 0 62.219 86.889" xmlns="http://www.w3.org/2000/svg">
 <defs>
  <clipPath id="clipPath10356">
   <path d="M 0,792.109 H 612.156 V 0 H 0 Z"/>
  </clipPath>
 </defs>
 <g transform="translate(-1.4193 -1.3633)">
  <g transform="matrix(.56496 -.19274 -.19274 -.56496 -124.57 524.28)">
   <g clip-path="url(#clipPath10356)">
    <g transform="translate(514.36 666.93)">
     <path d="m0 0c-0.256-2.056-0.623-4.466-1.41-6.532-1.373-3.603-1.545-11.268-1.278-17.642 0.082-1.977-0.48-4.588-2.538-6.96-2.059-2.372-4.499-5.834-6.205-8.525-0.673-0.566-1.523-1.277-2.918-2.162-2.178-1.381-5.485-0.401-7.592 2.35-2.881 3.76-4.533 6.886-2.673 11.372 0.616 1.488 0.784 2.311 0.446 2.833-0.235 0.362-0.406 0.862-0.401 1.207 4e-3 0.345-0.579 0.864-1.178 1.008s-1.965 0.78-2.557 1.025c-0.592 0.246-2.156-0.181-3.242-0.875-1.11-0.711-2.186-2.181-2.523-2.908-0.336-0.728-0.978-1.19-1.645-1.711-0.667-0.522-0.889-2.06-0.637-3.377 0.439-2.305 1.959-5.564 3.965-7.921 0.399-0.47 0.856-0.528 1.053-0.471s0.789-0.189 1.268-0.456c0.339-0.191 1.975-0.923 3.304-1.231s2.701-1.432 3.111-1.949c0.41-0.516 0.864-0.843 1.557-1.096 0.693-0.252 1.67-0.657 2.77-1.183-0.907-0.505-1.69-0.588-2.722-0.71-1.316-0.153-3.626-0.716-5.04-1.031-2.221-0.496-4.451 1.394-7.471 4.483-1.043 1.068-3.376 1.643-4.199 1.498-0.823-0.144-1.545-0.296-2.528-0.409-0.983-0.112-1.233-0.633-1.296-1.37-0.15-1.767-0.357-4.291-0.078-5.794 0.145-0.779 1.03-1.363 1.846-1.736 0.538-0.246 1.168-0.865 1.298-1.89s0.524-3.338 1.114-4.173c0.391-0.551 3.047-1.852 4.223-2.027 4.244-0.633 10.489 2.046 11.834 5.29 0.343 0.829 1.268 1.971 2.442 2.629s2.875 1.583 4.772 2.392c2.017-0.906 2.871-5.872 3.565-10.39 0.648-4.227 5.142-7.626 11.3-8.464 0.61-0.083 1.505-0.047 2.14 0.396 0.781 0.543 1.79 0.887 2.963 0.956 1.796 0.105 2.647 0.616 2.984 1.677 0.252 0.794 0.766 1.116 1.835 1.667 0.97 0.499 1.799 1.161 2.638 2.097 1.096 1.222 0.39 2.631-1.878 2.998-2.47 0.399-5.573 0.61-7.505 0.718-1.933 0.107-3.587 0.55-5.551 1.502-3.382 1.642-6.61 4.301-7.973 8.834-0.155 0.515-0.045 0.892 0.516 1.286 3.678 2.586 7.932 5.082 13.275 7.93 13.525 7.213 17.617 13.918 18.815 25.982 2.503 6.999 6.242 12.372 8.893 15.888 1.659 2.202 1.715 3.467 0.711 4.401-1.006 0.934-2.392 0.951-3.814-0.369-6.375-5.914-13.162-9.432-23.282-4.911z" fill="#854c3b"/>
    </g>
    <g transform="translate(518.93 662.24)">
     <path d="m0 0c-1.64 2.358-3.559 2.415-5.132 0-2.159-3.312-2.442-9.788-2.166-17.273 0.165-4.508-0.269-6.56-2.215-9.024-2.724-3.448-5.758-7.48-7.014-9.67-0.835-1.457-0.109-2.187 1.465-1.486 9.245 4.121 16.068 11.882 18.41 19.65 2.481 8.229-0.277 13.386-3.348 17.803" fill="#cd92be"/>
    </g>
    <g transform="translate(573.08 727.73)">
     <path d="m0 0c-0.843 3.982-11.398 5.363-19.488 3.86-10.211-1.897-18.405-6.858-17.753-11.028 0.65-4.158 10.519-5.151 20.677-2.903 10.704 2.369 17.343 6.387 16.564 10.071" fill="#9fd2f1"/>
    </g>
    <g transform="translate(523.62 702)">
     <path d="m0 0c0.803 4.615 4.42 12.225 14.5 15.907-0.937 0.528-1.712 1.317-1.998 1.985-5.211-1.863-11.121-5.748-13.805-11.664 0.569-2.086 0.901-3.518 1.303-6.228" fill="#854c3b"/>
    </g>
    <g transform="translate(523.85 700.51)">
     <path d="m0 0c-0.28 3.044-0.903 6.147-1.891 9.212-1.264 3.923-2.212 10.003-2.387 14.099-0.175 4.095-1.637 10.943-2.525 14.155-0.677 2.449-3.657 2.947-5.705 1.463-3.834-2.781-8.068-6.779-10.866-10.038-1.609-1.876-2.83-3.036-5.7-3.602-7.853-1.552-16.94-7.502-19.097-18.072-2.315 0.914-5.862 1.309-7.01 1.3-1.148-0.01-1.457 0.083-1.994 0.375-0.839 0.456-2.025-0.097-1.167-1.978 0.799-1.753 2.359-5.937 2.734-8.798 0.375-2.86 3.984-4.946 6.947-5.411-3.169-3.715-4.943-9.499-0.984-11.661 3.96-2.161 9.415-0.295 12.182 5.042 5.682-1.938 15.911-1.772 22.004 0.625 1.375 0.541 10.086-3.847 7.026-11.409l0.406-0.306c2.807 2.397 4.947 5.763 6.337 9.715 2.422 0.71 5.669 0.844 7.174 0.683 1.505-0.162 2.851 0.508 3.878 1.213 4.201 2.883 7.618 5.456 10.643 8.72 0.836 0.902 0.494 1.858-0.645 2.348-5.61 2.418-13.273 3.904-19.36 2.325" fill="#854c3b"/>
    </g>
    <g transform="translate(476.47 680.82)">
     <path d="m0 0c-3.058-5.703-7.522-4.346-9.508-1.018-2.721 4.561-6.705 5.242-8.751 2.899-2.046-2.342-2.023-7.138 2.435-9.853s10.521-2.731 16.163-1.081c5.643 1.649 7.55 2.315 13.015 0.189 5.464-2.127 12.096-3.28 20.436 0.025 1.939-1.012 3.596-2.776 3.999-4.744 0.457-2.232 2.63-2.738 4.213 0.126 1.388 2.512 1.335 3.47 0.08 3.956-1.256 0.485-2.327 2.42-3.001 5.059 1.899 5.42-2.634 10.212-6.898 10.8-6.308-1.998-16.174-2.625-22.383-0.536-1.628-3.175-5.18-6.558-9.8-5.822" fill="#cd92be"/>
    </g>
    <g transform="translate(487.14 686.45)">
     <path d="m0 0c-0.594-4.598 3.296-11.122 9.736-10.764 6.439 0.358 8.527 6.693 8.235 10.616-6.206-1.095-12.811-1.688-17.971 0.148" fill="#e50021"/>
    </g>
    <g transform="translate(511.74 652.86)">
     <path d="m0 0c-2.708-3.234-5.676-4.103-9.18-2.968-5.196 1.682-9.341 1.173-10.138-3.207-0.642-3.533 1.472-6.155 5.116-7.145 5.981-1.626 11.503-0.245 14.278 3.145-0.227 2.829-0.36 7.112-0.076 10.175" fill="#9fd2f1"/>
    </g>
    <g transform="translate(486.3 686.7)">
     <path d="m0 0c-1.394-3.029-5.262-6.384-9.866-5.898 3.788-1.57 7.616-0.675 10.943 2.169-0.453 1.171-0.749 2.099-1.077 3.729" fill="#b27fa5"/>
    </g>
    <g transform="translate(508.27 687.16)">
     <path d="m0 0c-0.982-0.253-2.048-0.512-3.168-0.757 0.042-1.201-0.034-2.307-0.212-3.284 0.603 0.129 1.213 0.265 1.838 0.418 2.956 0.725 8.732-1.946 8.331-8.103 3.428 7.44-4.628 12.284-6.789 11.726" fill="#b27fa5"/>
    </g>
    <g transform="translate(487.21 686.36)">
     <path d="m0 0c-0.029-1.298 0.028-2.063 0.161-3.387 5.524-1.24 10.89-1.265 17.515 0.152 0.178 0.976 0.254 2.082 0.212 3.283-5.407-1.181-12.163-2.009-17.888-0.048" fill="#c6001a"/>
    </g>
    <g transform="translate(472.49 688.03)">
     <path d="m0 0c-0.405-4.219 7.037-7.145 12.99-1.077l0.992-0.372c-3.809-5.851-8.185-6.684-11.545-5.449-3.361 1.235-3.519 4.382-2.437 6.898" fill="#69392b"/>
    </g>
    <g transform="translate(536.92 718.69)">
     <path d="m0 0c-4.919-1.383-11.039-6.106-13.751-12.426l0.454-3.702c2.755 7.874 7.661 12.822 14.36 15.456z" fill="#69392b"/>
    </g>
    <g transform="translate(545.74 675.99)">
     <path d="m0 0c0.504-0.582 0.134-1.652-1.827-3.403-4.341-3.878-6.822-6.32-9.52-9.98 1.134-1.876 1.602-4.544 1.711-7.02 2.168 5.899 6.129 12.958 9.104 16.387 1.24 1.428 1.912 3.289 0.532 4.016" fill="#69392b"/>
    </g>
    <g transform="translate(519.23 637.91)">
     <path d="m0 0c-3.38-5.35-8.747-10.17-15.367-13.121-1.575-0.702-2.445-0.097-1.61 1.36 0.153 0.268 0.291 0.585 0.419 0.94-0.993-0.651-1.892-1.292-2.879-2.023-1.057-1.713 1.434-3.624 3.885-3.344 3.455 2.589 10.279 6.559 15.261 9.209 5.093 2.709 8.3 5.3 10.47 7.521-2.861-1.022-6.759-1.174-10.179-0.542" fill="#69392b"/>
    </g>
    <g transform="translate(502.26 626.15)">
     <path d="m0 0c-0.837-1.456 0.035-2.062 1.61-1.36 6.62 2.951 11.987 7.771 15.367 13.121-3.882 0.718-7.148 2.447-7.578 5.059 0.016-2.92-0.835-5.327-2.65-7.456-2.069-2.425-5.095-6.489-6.749-9.364" fill="#b27fa5"/>
    </g>
    <g transform="translate(475.47 673.43)">
     <path d="m0 0c-4.425-1.281-7.458-1.122-11.927 0.651-3.931 1.56-6.285 5.122-4.863 8.74-2.93-2.439-2.896-7.489 3.526-10.849 4.256-2.227 11.06-1.449 15.476-0.034 5.599 1.795 8.729 1.75 12.161 0 6.128-3.127 15.738-2.592 22.207 0.921-8.109-2.049-14.933-2.225-21.388 0.496-6.112 2.577-7.501 2.302-15.192 0.075" fill="#b27fa5"/>
    </g>
    <g transform="translate(517.73 666.29)">
     <path d="m0 0c-0.58 2.555-2.88 5.139-5.68 6.564-0.54-0.266-1.124-0.537-1.744-0.8 1.419-0.821 3.702-2.843 4.004-4.875 0.302-2.033 1.992-2.264 3.42-0.889" fill="#b27fa5"/>
    </g>
    <g transform="translate(517.56 663.41)">
     <path d="m0 0c0.362 0.912 0.396 1.897 0.171 2.886-1.171-1.049-2.425-1.397-3.342 0.406-0.262-1.383-0.538-3.974-1.477-6.324 1.529 2.938 2.854 4.157 4.648 3.032" fill="#69392b"/>
    </g>
    <g transform="translate(511.61 651.38)">
     <path d="M 0,0 C 1.356,5.513 2.692,8.289 5.214,10.804 5.57,11.159 5.776,11.601 5.945,12.027 4.781,13.134 2.247,12.208 1.246,8.704 0.244,5.2 0.016,3.709 0,0" fill="#b27fa5"/>
    </g>
    <g transform="translate(481.92 628.03)">
     <path d="m0 0c0.344-0.441 0.72-0.437 1.12-0.395 0.399 0.043 0.766-0.075 1.136-0.436 0.37-0.362 1.91-1 2.99-1.239 1.079-0.24 2.554-0.782 3.186-1.598 0.633-0.817 1.37-1.297 2.177-1.527 0.806-0.23 1.847-0.731 2.36-1.082l1.372 0.911c-1.174 0.347-2.724 1.013-3.257 1.234s-1.315 0.592-1.874 1.17c-0.557 0.578-1.97 1.522-3.205 1.721-1.234 0.2-2.552 0.816-3.171 1.245-0.62 0.431-1.106 0.699-1.626 0.652-0.504-0.046-3.496 3.865-4.342 8.099-0.163 0.819-0.089 1.875 0.343 2.667-1.835-0.245-2.22-5.005 2.791-11.422" fill="#69392b"/>
    </g>
    <g transform="translate(472.08 624.55)">
     <path d="m0 0c-0.016-2.213 0.22-4.504 0.456-5.426 0.159-0.62 0.738-1.063 1.333-1.385 1.105-0.596 1.794-1.066 2.061-2.726 0.154-0.966 0.576-2.875 1.063-3.458 0.57-0.683 2.274-1.423 3.396-1.512 2.687-0.212 8.419 0.984 10.092 3.932 0.891 1.569 1.71 2.514 3.229 3.274 1.138 0.569 3.354 1.453 5.236 1.922-2.252-1.251-4.146-2.305-4.879-2.902-0.733-0.598-1.594-1.42-2.021-2.283-1.643-3.32-7.03-6.396-11.925-5.427-0.961 0.19-3.684 1.319-4.099 1.907-0.416 0.588-1.219 3.418-1.285 4.347s-0.476 1.446-1.487 1.935c-1.011 0.488-1.639 1.234-1.685 2.293-0.046 1.06 0.063 3.165 0.515 5.509" fill="#69392b"/>
    </g>
    <g transform="translate(500.26 618.49)">
     <path d="m0 0c2.124-2.406 3.665-6.277 4.408-10.115 0.861-4.449 6.455-6.492 9.173-6.82 0.825-0.099 1.308-0.022 1.897 0.393 0.587 0.416 1.08 0.767 2.233 0.705 1.154-0.062 2.984 0.254 3.34 1.112s0.785 1.241 1.805 1.679c1.603 0.688 3.16 1.43 3.916 2.504-0.192-1.134-1.979-2.689-3.584-3.543-0.622-0.332-1.058-0.879-1.273-1.483-0.216-0.605-0.946-1.446-2.439-1.452-1.494-5e-3 -2.304-0.536-3.136-0.954s-1.842-0.763-3.052-0.504c-4.506 0.964-9.867 3.316-10.674 8.552-0.452 2.926-1.07 6.373-2.614 9.926" fill="#69392b"/>
    </g>
    <g transform="translate(522.19 685.28)">
     <path d="m0 0c-1.059-0.463-2.042-0.576-4.111-0.966-1.493-0.283-5.965 1.674-7.993 2.723 4.913-3.042 6.76-6.901 5.437-10.646l0.214-0.99c2.451 1.897 5.076 5.386 6.453 9.879" fill="#69392b"/>
    </g>
    <g transform="translate(486.21 686.21)">
     <path d="m0 0c-0.865-6.916 5.251-11.755 11.467-11.299 5.544 0.407 8.727 6.301 8.246 11.529-0.495-0.107-1.145-0.253-1.813-0.358 0.585-4.531-2.953-9.41-6.516-9.726-5.305-0.472-10.177 3.895-9.788 9.758-0.533 0.167-1.044 0.343-1.372 0.461-0.06-0.101-0.13-0.225-0.224-0.365" fill="#0f141b"/>
    </g>
    <g transform="translate(499.42 685.39)">
     <path d="m0 0c-0.641-1.485-0.468-2.772 0.223-2.99 0.887-0.281 2.083 1.714 1.73 3.241-0.767-0.126-1.173-0.155-1.953-0.251" fill="#0f141b"/>
    </g>
    <g transform="translate(522.82 685.36)">
     <path d="m0 0c-1.683-5.038-4.094-8.543-6.883-10.396l-0.34 0.938c2.481 1.916 4.469 5.041 5.921 9.164z" fill="#0f141b"/>
    </g>
    <g transform="translate(523.28 700.45)">
     <path d="m0 0c-0.29 2.61-0.83 5.323-1.612 8.005-1.581 5.417-2.283 9.777-2.766 15.526-0.486 5.77-0.963 8.64-2.249 13.371-0.622 2.285-2.912 3.289-4.932 1.825-3.486-2.529-7.19-6.05-11.376-10.808-1.333-1.516-3.012-2.766-5.809-3.293-12.133-2.288-22.666-14.776-17.649-31.747 0.316-1.071-0.183-1.237-0.551-0.184-5.875 16.767 4.34 30.576 17.936 33.091 2.213 0.409 3.724 1.093 5.229 2.804 4.214 4.789 8.013 8.332 11.623 10.87 2.756 1.937 5.561 0.66 6.4-2.246 1.352-4.68 1.9-7.669 2.475-13.49 0.551-5.575 1.167-9.454 2.781-15.21 0.785-2.795 1.324-5.582 1.618-8.245z" fill="#0f141b"/>
    </g>
    <g transform="translate(496.88 700.92)">
     <path d="m0 0c3.838 5.299 5.804 11.605 5.592 18.468-0.037 1.186 0.436 1.207 0.58 0.035 0.782-6.357-1.369-14.112-5.724-18.873-0.713-0.779-1.082-0.505-0.448 0.37" fill="#0f141b"/>
    </g>
    <g transform="translate(487.11 693.73)">
     <path d="m0 0c1.934 0.895 3.505 1.839 5.224 2.991 0.799 0.534 1.035 0.167 0.32-0.486-1.348-1.23-3.37-2.426-5.322-3.042-1.071-0.338-1.309 0.035-0.222 0.537" fill="#0f141b"/>
    </g>
    <g transform="translate(475.6 693.7)">
     <path d="m0 0c-4.609 0.873-6.349 3.234-6.675 4.633-1.011 4.338-1.613 6.328-2.895 9.01-0.776 1.624-0.15 1.962 0.545 1.647 0.584-0.271 1.267-0.455 1.784-0.463 3.135-0.051 4.957-0.425 7.155-1.444l0.24 1.039c-2.301 0.954-4.812 1.383-7.263 1.391-0.649 2e-3 -1.154 0.047-1.538 0.222-1.856 0.846-2.705-0.811-1.709-2.886 1.168-2.434 1.69-4.355 2.634-8.769 0.652-3.046 4.379-4.832 7.009-5.263z" fill="#0f141b"/>
    </g>
    <g transform="translate(486.83 686.36)">
     <path d="m0 0c-3.73-6.525-9.768-7.576-13.58-4.706-3.609 2.719-1.828 8.871 2.85 13.177l0.304-1.051c-3.579-3.448-5.45-9.098-2.537-11.364 2.976-2.319 8.66-1.474 12.171 4.319z" fill="#0f141b"/>
    </g>
    <g transform="translate(486.05 686.42)">
     <path d="m0 0c-1.112 0.458-0.926 0.886 0.224 0.536 6.956-2.116 15.76-1.076 22.014 0.688 2.042 0.575 11.505-4.457 6.742-13.358-0.567-1.058-1.017-0.844-0.522 0.257 3.929 8.72-4.909 12.368-6.114 12.016-6.628-1.934-15.566-2.931-22.344-0.139" fill="#0f141b"/>
    </g>
    <g transform="translate(486.88 685.81)">
     <path d="m0 0c-0.875-4.925 0.17-8.348 3.042-11.087 0.698-0.667 0.402-0.998-0.37-0.449-3.365 2.39-4.755 6.342-3.629 11.793z" fill="#0f141b"/>
    </g>
    <g transform="translate(477.03 680.81)">
     <path d="m0 0c-2.714-5.684-7.888-5.432-10.404-1.282-2.353 3.876-5.856 5.252-8.08 2.817-2.072-2.268-1.889-7.925 5.26-10.457 4.9-1.741 10.691-0.367 15.366 0.983 4.483 1.293 6.61 1.377 11.66-0.764 6.069-2.553 13.534-2.292 20.421 0.652 1.156 0.495 1.389 0.068 0.238-0.53-6.788-3.525-14.842-3.708-21.052-1.069-5.04 2.137-6.866 1.957-10.961 0.775-4.76-1.374-11.043-2.984-16.098-1.188-7.838 2.791-8.621 9.053-5.65 12.306 2.642 2.891 6.752 1.691 9.585-2.978 2.179-3.59 6.528-3.746 8.674 0.958z" fill="#0f141b"/>
    </g>
    <g transform="translate(515.78 677.07)">
     <path d="m0 0c0.793-3.496 2.326-5.109 3.255-5.534 1.124-0.513 1.751-1.439-0.291-4.549-2.389-3.641-4.592-1.784-4.908-0.185-0.523 2.644-2.47 4.317-4.472 4.858l1.239 0.562c1.947-0.822 3.661-2.694 4.172-5.162 0.249-1.201 1.612-1.976 3.171 0.397 1.486 2.266 1.344 2.965 0.667 3.283-1.239 0.583-2.658 2.234-3.308 4.793z" fill="#0f141b"/>
    </g>
    <g transform="translate(512.18 659.37)">
     <path d="m0 0c1.049 3.198 1.5 5.542 1.746 7.556l0.719-1.026c-0.222-1.538-0.343-2.251-0.821-3.822z" fill="#0f141b"/>
    </g>
    <g transform="translate(514.28 661.86)">
     <path d="m0 0c-2.306-3.538-2.383-10.83-2.159-16.935 0.194-5.266-0.411-6.887-2.432-9.327-3.679-4.44-5.89-7.693-6.935-9.515-0.714-1.246-0.406-1.527 0.858-0.982 8.846 3.813 15.599 11.036 18.101 19.455 2.45 8.244-0.158 12.873-3.06 17.047-1.529 2.199-3.028 2.32-4.373 0.257m-12.288-35.378c1.634 2.844 4.042 6.233 6.939 9.743 1.909 2.311 2.447 4.123 2.184 8.7-0.366 6.394-0.172 13.389 2.437 17.475 1.802 2.819 3.824 2.361 5.615 6e-3 3.092-4.067 6.07-9.629 3.512-18.112-2.481-8.233-9.405-16.004-18.743-19.938-2.162-0.911-3.199-0.058-1.944 2.126" fill="#0f141b"/>
    </g>
    <g transform="translate(522.96 647.37)">
     <path d="m0 0c-5.158-1.792-9.52-0.1-11.407 2.878l0.099 1.301c1.686-3.242 5.946-5.124 11.433-3.375z" fill="#0f141b"/>
    </g>
    <g transform="translate(516.33 633.96)">
     <path d="m0 0c-2.436-0.056-5.257 0.926-6.117 3.084l0.417 0.705c0.724-1.977 2.784-3.032 6.226-3.162z" fill="#0f141b"/>
    </g>
    <g transform="translate(519.04 671.53)">
     <path d="m0 0c10.638-4.522 16.964-0.819 22.762 4.784 1.548 1.496 3.237 1.316 4.323 0.306 1.271-1.181 1.067-2.714-0.606-4.934-2.606-3.457-6.094-8.541-8.836-15.756-0.7-12.855-5.912-19.573-18.993-26.326-5.738-2.963-9.796-5.329-13.257-7.762-0.42-0.295-0.476-0.527-0.368-0.887 1.136-3.777 3.732-6.577 7.787-8.544 1.91-0.927 3.571-1.326 5.473-1.411 3.499-0.157 4.691-0.239 7.407-0.734 3.121-0.569 3.536-2.155 2.155-3.695-0.864-0.964-1.703-1.7-2.697-2.212-1.033-0.532-1.491-0.762-1.708-1.442-0.388-1.223-1.172-1.805-3.319-1.93-1.098-0.064-1.743-0.388-2.689-1.047-0.86-0.599-1.57-0.641-2.535-0.51-6.066 0.826-11.045 4.375-11.612 9.021-0.547 4.481-1.459 8.974-3.171 9.99-1.804-0.779-2.889-1.352-4.488-2.307-1.13-0.677-2.001-1.695-2.307-2.443-1.485-3.638-7.381-6.372-12.31-5.602-1.23 0.192-3.939 1.394-4.502 2.19-0.733 1.036-1.076 4.109-1.119 4.44-0.134 1.061-0.392 1.266-1.079 1.58-0.823 0.376-1.944 1.105-2.116 2.034-0.292 1.571-0.057 4.192 0.089 5.905 0.085 0.999 0.474 1.614 1.553 1.737 0.749 0.086 2.013 0.277 2.634 0.388 1.237 0.221 3.34-0.378 4.537-1.604 3.128-3.2 5.004-4.878 6.993-4.394 2.309 0.563 3.525 0.821 5.082 1.008 1.415 0.169 2.339 0.511 3.365 1.105 0.942 0.546 1.205 0.153 0.321-0.485-0.833-0.6-2.005-1.159-3.525-1.404-1.685-0.272-2.796-0.389-5.046-1.075-2.442-0.745-5.066 1.828-7.827 4.655-1.062 1.088-2.852 1.539-3.803 1.368-0.603-0.109-1.799-0.305-2.567-0.393-0.7-0.08-0.813-0.187-0.89-1.088-0.134-1.579-0.292-4.118-0.014-5.611 0.098-0.534 0.543-0.994 1.528-1.444 0.88-0.402 1.319-0.857 1.485-2.164 0.136-1.07 0.61-3.191 1.14-3.94 0.33-0.465 2.897-1.703 4.011-1.871 4.221-0.629 10.011 1.898 11.283 4.964 0.346 0.836 1.337 2.079 2.597 2.808 1.582 0.916 2.756 1.542 4.635 2.344 0.261 0.112 0.366 0.141 0.657-6e-3 2.026-1.024 3.088-5.503 3.865-10.561 0.63-4.102 4.804-7.274 10.785-8.088 0.781-0.105 1.235-0.081 1.825 0.33 0.982 0.684 1.766 0.851 3.208 0.936 1.592 0.093 2.351 0.499 2.632 1.382 0.295 0.932 0.899 1.347 1.934 1.88 0.928 0.478 1.743 1.107 2.558 2.016 1.032 1.152 0.702 1.995-1.613 2.383-2.084 0.349-3.874 0.527-7.455 0.589-1.984 0.035-3.723 0.571-5.71 1.535-4.207 2.041-6.992 5.253-8.177 9.192-0.224 0.745-0.105 1.205 0.616 1.71 3.983 2.785 7.536 4.997 13.257 8.048 12.874 6.865 18.101 14.003 18.722 25.626 1e-3 0.023 9e-3 0.046 0.016 0.069 2.628 7.525 6.097 12.471 8.918 16.074 1.762 2.251 1.501 3.14 0.794 3.797-0.886 0.824-2.01 0.796-3.268-0.396-5.814-5.506-12.578-9.706-22.919-5.244z" fill="#0f141b"/>
    </g>
    <g transform="translate(502.63 626.66)">
     <path d="m0 0c-0.825-0.697-1.532-1.246-2.499-1.9-2.265-1.533-5.647-0.601-7.86 2.287-3.515 4.59-4.693 7.699-2.966 11.864 0.671 1.62 0.811 2.126 0.539 2.528-0.282 0.415-0.496 0.956-0.491 1.354 4e-3 0.333-0.093 0.477-0.891 0.721-1.021 0.314-1.506 0.48-2.634 0.954-0.627 0.263-1.672-0.02-2.837-0.766-1.032-0.661-2.083-2.095-2.415-2.814-0.342-0.738-1.071-1.338-1.709-1.835-0.538-0.419-0.686-1.676-0.441-2.961 0.463-2.43 1.917-5.614 3.75-7.768 0.249-0.293 0.511-0.415 0.779-0.34 0.363 0.106 0.628-5e-3 1.471-0.507 0.863-0.513 1.691-0.885 3.218-1.218 1.484-0.324 2.565-1.069 3.323-2.024 0.383-0.483 0.783-0.708 1.408-0.954 0.854-0.336 1.742-0.704 2.836-1.245l-0.819-0.47c-0.735 0.404-1.51 0.708-2.3 0.977-0.737 0.251-1.265 0.652-1.714 1.219-0.764 0.96-1.499 1.538-2.897 1.825-1.321 0.27-2.377 0.585-3.412 1.252-0.556 0.358-0.821 0.464-1.058 0.445-0.384-0.049-0.847-0.083-1.403 0.532-2.204 2.437-3.608 5.578-4.089 8.096-0.248 1.3-0.098 3.159 0.718 3.795 0.606 0.473 1.348 0.98 1.63 1.59 0.37 0.802 1.486 2.368 2.624 3.097 1.459 0.933 2.762 1.276 3.644 0.871 1.03-0.473 1.562-0.694 2.522-0.999 0.78-0.248 1.447-0.701 1.439-1.382-4e-3 -0.279 0.151-0.713 0.36-1.028 0.512-0.773 0.316-1.455-0.396-3.188-1.717-4.175-0.355-6.946 2.688-10.917 2.024-2.643 4.948-3.658 6.971-2.312 1.756 1.168 2.714 1.973 4.271 3.386z" fill="#0f141b"/>
    </g>
    <g transform="translate(526.83 669.25)">
     <path d="m0 0c2.016-0.67 3.538-1.559 4.638-2.828 0.656-0.758 0.258-0.998-0.404-0.418-1.533 1.34-3.36 2.398-6.493 3.096z" fill="#0f141b"/>
    </g>
    <g transform="translate(535.56 658.48)">
     <path d="m0 0c-0.284 1.275-0.801 2.68-1.437 3.779-0.497 0.859-0.097 1.058 0.514 0.272 0.691-0.89 1.333-2.52 1.49-3.925 0.108-0.967-0.37-1.012-0.567-0.126" fill="#0f141b"/>
    </g>
    <g transform="translate(511.6 641.76)">
     <path d="m0 0c-2.635-2.954-8.148-3.79-12.46-3.065-5.153 0.865-8.259 3.811-7.498 7.847 0.755 4.015 3.691 5.971 11.717 3.558 2.827-0.85 5.923 0.262 8.18 3.06l0.029-1.214c-2.159-2.365-5.376-3.598-8.486-2.679-7.086 2.094-9.599 0.668-10.277-2.93-0.58-3.086 1.587-5.903 6.52-6.748 4.163-0.713 9.488-0.061 12.422 3.474z" fill="#0f141b"/>
    </g>
    <g transform="translate(536.17 719.5)">
     <path d="m0 0c-6.591-2.578-10.911-6.468-13.659-11.847l-0.406 1.271c2.665 5.244 7.523 9.126 13.793 11.313z" fill="#0f141b"/>
    </g>
    <g transform="translate(538.61 717.71)">
     <path d="m0 0c-7.588-2.78-13.285-9.265-14.771-16.453l-0.459 2.17c1.867 6.655 7.459 12.325 14.304 14.782z" fill="#0f141b"/>
    </g>
    <g transform="translate(553.69 731.07)">
     <path d="m0 0c-12.03-2.235-17.763-7.393-17.268-10.564 0.519-3.318 8.821-4.775 20.018-2.297 13.754 3.044 16.648 7.385 16.205 9.478-0.58 2.744-8.162 5.388-18.955 3.383m-18.325-10.773c-0.745 3.95 5.074 9.368 18.124 11.793 9.824 1.825 19.26-0.503 19.949-4.247 0.687-3.729-4.281-7.911-16.809-10.684-12.191-2.698-20.498-0.925-21.264 3.138" fill="#0f141b"/>
    </g>
    <g transform="translate(519.5 684.82)">
     <path d="m0 0c3.716 1.595 6.255 1.699 10.143 1.706 1.007 2e-3 1.548 0.131 2.357 0.583 3.805 2.122 6.985 4.702 11.079 8.517 1.08 1.007 0.964 1.617 6e-3 2.078-9.937 4.783-23.552 3.455-26.8-2.659-1.736-3.268-3.675-5.1-5.935-5.713-1.031-0.279-1.168 0.08-0.2 0.546 2.259 1.086 3.76 2.784 5.225 5.648 3.689 7.215 17.62 7.956 28.091 2.876 1.625-0.789 1.742-1.815 0.187-3.454-3.243-3.418-7.16-6.51-10.964-8.853-0.911-0.561-1.979-0.786-3.18-0.728-3.455 0.169-5.705 0.041-9.866-1.11-1.019-0.282-1.195 0.112-0.143 0.563" fill="#0f141b"/>
    </g>
    <g transform="translate(528.36 647.88)">
     <path d="m0 0c-0.954 1.716-1.884 1.526-2.799 0-5.302-8.836-3.311-17.537 2.704-22.509 6.843-5.657 14.137-4.172 17.47 1.155 3.77 6.025 0.642 10.859-5.66 12.58-5.332 1.456-9.046 3.971-11.715 8.774" fill="#9fd2f1"/>
    </g>
    <g transform="translate(532.66 642.67)">
     <path d="m0 0c-1.679 1.348-3.097 3.044-4.3 5.208-0.953 1.716-1.884 1.526-2.799 1e-3 -3.098-5.165-3.703-10.282-2.472-14.637 3.88 2.361 7.299 5.854 9.571 9.428" fill="#7e6f67"/>
    </g>
    <g transform="translate(533.01 642.27)">
     <path d="m0 0c-2.163-3.629-5.357-6.655-9.824-9.522l-0.268 1.155c4.134 2.797 7.15 5.744 9.235 9.103z" fill="#5d6970"/>
    </g>
    <g transform="translate(525.89 647.63)">
     <path d="m0 0c-4.381-7.501-3.938-16.42 2.69-21.9 6.514-5.385 13.634-3.849 16.736 1.108 3.93 6.28 0.091 10.351-5.358 11.839-5.801 1.583-9.185 3.946-11.926 8.99-0.758 1.395-1.33 1.353-2.142-0.037m2.079-22.595c-7.47 6.175-7.106 15.76-2.777 22.976 1.229 2.049 2.445 1.972 3.5 0.076 2.657-4.783 5.927-7.044 11.542-8.577 7.317-1.996 9.92-7.293 6.161-13.303-3.395-5.426-11.151-7.188-18.426-1.172" fill="#0f141b"/>
    </g>
   </g>
  </g>
 </g>
</svg>
