<?xml version="1.0" encoding="UTF-8" standalone="no"?>
<svg
   version="1.1"
   viewBox="0 0 580.46 598.32"
   id="svg822"
   sodipodi:docname="699.svg"
   inkscape:version="1.2.2 (b0a8486, 2022-12-01)"
   xmlns:inkscape="http://www.inkscape.org/namespaces/inkscape"
   xmlns:sodipodi="http://sodipodi.sourceforge.net/DTD/sodipodi-0.dtd"
   xmlns="http://www.w3.org/2000/svg"
   xmlns:svg="http://www.w3.org/2000/svg">
  <defs
     id="defs826" />
  <sodipodi:namedview
     id="namedview824"
     pagecolor="#505050"
     bordercolor="#eeeeee"
     borderopacity="1"
     inkscape:showpageshadow="0"
     inkscape:pageopacity="0"
     inkscape:pagecheckerboard="0"
     inkscape:deskcolor="#505050"
     showgrid="false"
     inkscape:zoom="0.55781923"
     inkscape:cx="226.77598"
     inkscape:cy="282.34953"
     inkscape:window-width="1315"
     inkscape:window-height="667"
     inkscape:window-x="0"
     inkscape:window-y="25"
     inkscape:window-maximized="0"
     inkscape:current-layer="svg822" />
  <path
     d="m 233.3016,575.76 c 11.171,-12.579 22.529,-16.5 33.7,-13.519 0.322,0.086 0.755,2.713 0.255,2.557 -9.95,-3.107 -21.462,1.122 -31.689,11.617 -0.21,0.217 -2.618,-0.259 -2.266,-0.655 z"
     fill="#ffffff"
     id="path528" />
  <path
     d="m 160.7316,588.95 c 3.529,-7.059 13.5,-14.716 22.906,-14.716 7.6,0 12.1,3.705 14.9,5.7 0.6,0.425 0.428,2.977 0.021,2.637 a 21.249,21.249 0 0 0 -14.841,-5.918 c -8.628,0 -17.952,6.612 -21.217,13.143 -0.164,0.342 -2.005,-0.373 -1.769,-0.846 z"
     fill="#ffffff"
     id="path530" />
  <path
     d="m 404.7116,147.14 c -20.09,-26.756 -39.711,-38.678 -65.4,-54.06 -2.171,-1.3 -3.068,-4.881 -2.635,-7.792 1.89,-12.735 14.617,-19.114 27.484,-11.852 5.28,2.98 11.972,8.721 18.435,15.683 6.9,1.715 13,0.222 17.625,-3.705 4.9,-4.164 13.249,-5.473 24.24,10.638 -2.566,11.19 -5.477,23.3 -8.106,40.762 -5.541,0.75 -11.643,10.326 -11.643,10.326 z"
     fill="#fffbc6"
     id="path532" />
  <path
     d="m 449.3816,132.98 c 10.612,1.239 21.834,7.508 32.414,18.946 56.066,60.608 53.51,190.14 -1.127,287.83 -52.818,94.444 -180.8,102.27 -254.98,60.644 -14.89,-8.354 -28.864,-14.106 -45.812,-17.649 -102.29,-21.386 -179.25,-84.657 -178,-158.18 0.8,-46.641 39.629,-80.887 76.23,-80.267 17.94,0.3 37.622,9.952 37.739,32.67 0.127,24.885 -16.079,34.383 -29.056,32.811 -13.952,-1.692 -20.527,-11.112 -19.715,-21.4 0.534,-6.757 3.744,-11.012 9.576,-10.843 6.525,0.188 13.1,9.764 5.774,21.264 5.986,8.465 24.6,3.332 24.409,-22.015 -0.092,-12.473 -11.163,-21.642 -29.2,-21.92 -22.769,-0.353 -46.133,21.571 -46.282,62.852 -0.135,37.689 37.538,91.135 120.17,82.049 17.93,-1.971 29.823,-8.228 44.4,-17.18 59.243,-36.361 115.42,-58.67 175.4,-34.441 35.246,14.238 54.561,8.7 71.034,-23.294 21.416,-41.594 23.537,-90.124 14.364,-127.58 a 64.952,64.952 0 0 0 -6.759,-8.449 c -16.71,16.8 -38.429,20.594 -52.009,11.077 a 104.57,104.57 0 0 1 16.8,-17.978 c 1.534,-13.229 14.312,-34.282 32.107,-32.811 3.943,-4.976 6.759,-7.886 10.984,-10.609 a 32.743,32.743 0 0 1 -8.466,-5.524 z"
     fill="#6c9bd2"
     id="path534" />
  <path
     d="m 539.4616,213.6 c -3.746,6.291 -5.539,13.92 -2.254,21.973 4.514,11.069 4.806,18.352 -3.5,28.111 a 20.166,20.166 0 0 0 -4.806,9.176 c -2.186,9.03 -3.708,16.47 -6.766,25.646 3.71,-58.569 -9.372,-113.09 -40.347,-146.58 -21.569,-23.317 -45.806,-25.152 -62.1,-6.689 -1.127,0.7 -2.745,1.549 -4.177,2.37 8.074,-78.857 38.427,-144.63 65.152,-146.08 10.421,-0.563 19.433,11.266 21.968,24.643 1.957,10.326 9.443,13.407 19.151,5.914 12.955,-10 26.333,-13.659 33.515,-9.012 7.182,4.647 5.633,20.982 -3.38,37.88 -9.013,16.898 -8.872,36.754 8.872,36.472 19.853,-0.315 25.02,21.264 6.9,36.05 -4.7,3.837 -8.948,7.392 -13.25,10.575 -8.271,11.861 -10.822,27.4 -1.359,35.441 9.793,8.322 11.259,22.884 -2.184,29.13 -4.69,2.179 -7.419,3.194 -11.435,4.973 z"
     fill="#fffbc6"
     id="path536" />
  <path
     d="m 560.7916,97.428 c -17.743,0.282 -17.884,-19.574 -8.872,-36.472 9.012,-16.898 10.561,-33.233 3.38,-37.88 -7.181,-4.647 -20.56,-0.986 -33.515,9.012 -9.709,7.493 -17.195,4.412 -19.151,-5.914 -2.535,-13.378 -11.547,-25.207 -21.968,-24.643 -11.386,0.615 -23.43,12.914 -34.13,32.919 20.246,-12.348 38.62,-8.447 46.1,10.876 2.208,5.7 4.323,9.519 8.8,11.758 2.041,-2.676 4.788,-5.633 7.041,-8.237 22.288,-4.458 28.61,7.979 22.884,23.564 -4.069,11.077 -2.818,26.99 12.392,35.017 18.3,9.66 21.669,20.078 10.688,36.626 4.3,-3.182 8.548,-6.738 13.25,-10.575 18.119,-14.788 12.953,-36.367 -6.899,-36.051 z"
     id="path538"
     style="fill:#d3ddf1" />
  <path
     d="m 550.9016,208.62 c 13.443,-6.247 11.977,-20.809 2.184,-29.13 -9.463,-8.045 -6.912,-23.58 1.359,-35.441 -6.182,4.493 -9.562,6.839 -15.57,10.782 a 24.675,24.675 0 0 0 -0.375,21.968 c 7.511,16.147 6.212,29.656 -8.355,40.462 -2.911,2.16 -4.29,7.5 -0.376,17.837 3.661,9.67 1.877,17.181 -3.661,23.752 l 0.563,1.6 c -1.22,3.661 -2.816,8.449 -3.943,11.266 0.019,1.327 0.023,2.93 0.01,4.693 q 0.11,10.916 -0.595,22.1 c 3.059,-9.176 4.581,-16.615 6.766,-25.646 a 20.166,20.166 0 0 1 4.806,-9.176 c 8.3,-9.759 8.011,-17.041 3.5,-28.111 -3.285,-8.054 -1.492,-15.683 2.254,-21.973 4.013,-1.79 6.744,-2.805 11.433,-4.983 z"
     id="path540"
     style="fill:#d3ddf1" />
  <path
     d="m 400.2216,85.41 c -4.62,3.927 -10.721,5.42 -17.625,3.705 -6.463,-6.962 -13.155,-12.7 -18.435,-15.683 -12.867,-7.262 -25.594,-0.882 -27.484,11.852 -0.433,2.911 0.5,6.429 2.635,7.792 5.68,3.632 16.281,10.307 16.377,9.561 1.681,-13.185 14.655,-16.152 36.1,-2.523 1.627,2.263 2.69,3.65 4.389,6.077 2.848,0.815 4.611,0.543 8.076,-1.238 4.87,-2.5 9.2,-1.765 10.717,1.261 1.321,2.644 3.223,4.612 6.287,3.974 0.6,-2.777 1.2,-5.43 1.788,-7.994 0.55,-2.505 1.033,-4.677 1.413,-6.146 -10.989,-16.111 -19.339,-14.802 -24.238,-10.638 z"
     id="path542"
     style="fill:#d3ddf1" />
  <path
     d="m 456.0916,196.07 c 30,42.388 13.268,129.29 -27.438,160.13 -18.2,13.786 -31.729,12.861 -50.882,3.567 -6.384,-3.1 -7.511,-7.6 -6.666,-10.983 1.254,-5.013 13.23,-8.571 25.77,0.282 7.227,5.1 11.127,1.471 9.153,-3.943 -4.929,-13.519 0.079,-17.017 8.308,-13.941 12.815,4.788 17.52,-2.718 12.533,-12.815 -5.774,-11.688 -6.044,-18.958 7.745,-21.968 20,-4.365 22.953,-31.825 15.068,-42.386 -10.944,-14.658 -9.511,-21.046 -0.563,-33.937 5.541,-7.981 6.496,-15.698 6.972,-24.006 z"
     id="path544"
     style="fill:#d3ddf1" />
  <path
     d="m 470.2516,271.38 c 2.49,-20.527 0.99,-41.145 -5.316,-58.223 l -0.871,0.223 c 0.188,8.544 -6.478,14.364 -6.759,23.094 -0.281,8.73 12.093,22.641 8.637,38.772 -6.759,31.543 -23.564,22.2 -27.648,34.594 -1.048,3.179 2.676,17.79 -3.276,26.119 -4.16,5.821 -14.186,3.453 -17.143,6.692 -2.957,3.239 2.676,14.5 -4.8,22.217 a 69.082,69.082 0 0 0 30.1,-23.2 c 4.456,-6.162 14.1,-20.581 18.313,-33.81 4.213,-13.229 7.909,-28.326 8.763,-36.478 z"
     fill="#fffbc6"
     id="path548" />
  <path
     d="m 416.5216,136.36 a 31.646,31.646 0 0 0 -11.384,9.974 21.129,21.129 0 0 0 -0.046,6.431 56.968,56.968 0 0 0 10.139,-4.929 c 0.493,-4.364 0.728,-8.378 1.291,-11.476 z"
     fill="#6c9bd2"
     id="path550" />
  <path
     d="m 414.7216,181.11 c 17.565,0.732 34.831,-9.579 29.6,-32.264 -16.213,1.545 -27.283,18.533 -29.6,32.264 z"
     fill="#0c1015"
     id="path552" />
  <path
     d="m 426.2216,158.29 c 11.842,2.4 10.383,16.218 2.4,21.195 13.129,-4.377 19.05,-17.935 6.865,-28.317 -3.602,1.976 -5.578,3.689 -9.265,7.122 z"
     fill="#ffffff"
     id="path554" />
  <path
     d="m 426.1416,158.53 c 12.473,1.413 10.315,19.544 0.524,20.2 a 8.751,8.751 0 0 1 -9.362,-7.034 55.438,55.438 0 0 1 8.838,-13.166 z"
     fill="#0076af"
     id="path556"
     style="fill:#0090cb;fill-opacity:1" />
  <path
     d="m 423.3116,162.62 c -1.113,0.94 -0.947,3.214 0.42,4.777 1.311,1.5 3.421,1.982 4.609,0.794 1.116,-1.116 0.759,-3.346 -0.564,-4.761 -1.3,-1.39 -3.313,-1.783 -4.465,-0.81 z"
     id="path558"
     style="fill:#ffffff" />
  <path
     d="m 446.8716,149.11 c 2.817,-3.568 6.853,-8.167 10.984,-10.609 a 28.8,28.8 0 0 1 -8.918,-5.82 c -10.609,-0.376 -19.857,1.994 -29.76,11.968 l -3.286,3.333 c -4.928,2.112 -14.6,5.726 -18.635,9.388 l -1.407,1.737 c -5.069,8.073 -8.311,31.684 2.111,40.79 a 79.016,79.016 0 0 1 16.8,-17.978 c 1.789,-16.193 16.152,-34.124 32.111,-32.809 z"
     id="path560"
     style="fill:#ffffff" />
  <path
     d="m 431.5616,178.4 a 107.36,107.36 0 0 0 16.218,-3.732 76.739,76.739 0 0 0 -3.31,-11.125 c -1.69,4.577 -5.749,11.618 -12.908,14.857 z"
     id="path562"
     style="fill:#ffffff" />
  <path
     d="m 387.9416,514.07 c 3.391,20.818 6.12,44.8 10.291,58.6 1.521,5.028 3.626,6.783 12.749,5.965 0.818,0.233 28.655,-7.486 28.655,-7.486 a 468.37,468.37 0 0 1 -8.538,-50.409 c -1.286,-12.515 -1.285,-21.171 1.4,-28.656 -11.925,8.77 -26.077,16.021 -44.557,21.986 z"
     fill="#6c9bd2"
     id="path566" />
  <path
     d="m 430.7216,581.33 c 0.532,-1.505 -4.1,-8.54 -8.484,-11.638 -3.972,-2.81 -7.463,-4.013 -10.561,0.951 -3.154,5.053 -2.017,7.948 2.241,9 6.856,1.687 16.241,3.282 16.804,1.687 z"
     fill="#ffffff"
     id="path568" />
  <path
     d="m 430.6316,579.87 c 7.053,1.217 12.175,-1.292 11.629,-3.809 -0.365,-1.689 -3.778,-5.62 -6.525,-5.717 -2.073,-0.073 -6.9,1.979 -8.919,3.922 1.409,2.065 2.971,3.565 3.815,5.604 z"
     fill="#ffffff"
     id="path570" />
  <path
     d="m 470.7216,244.51 c 2.519,0.3 4.981,0.665 7.6,1.1 3.639,5.609 8.035,12.657 11.823,19.024 -1.97,5.911 -4.244,14.7 -5.836,20.084 a 49.756,49.756 0 0 0 -5.683,0.985 c -3.942,6.595 -7.275,12.355 -11.369,20.236 1.137,9.55 2.5,17.734 3.941,26.9 a 91.1,91.1 0 0 0 9.4,3.865 208.16,208.16 0 0 1 4.547,27.511 c -5.382,6.062 -10,10.988 -17.2,18.038 -3.713,-0.455 -6.063,-0.834 -10.382,-1.441 -4.774,3.032 -11.747,7.351 -19.478,11.822 -2.5,8.11 -3.864,17.433 -5.228,28.12 3.637,2.955 5.912,4.774 9.777,7.655 -2.427,11.14 -6.216,24.858 -11.824,34.711 a 101.93,101.93 0 0 1 -28.573,5.213 l -68.391,-5.679 a 387.44,387.44 0 0 1 -41.962,-26.484 215.6,215.6 0 0 1 -39.368,30.5 l -76.543,3.29 c -5,1.881 -12.438,4.354 -20.384,6.787 q 11.871,3.393 24.3,6 c 16.948,3.543 30.923,9.294 45.812,17.649 74.177,41.626 202.16,33.8 254.98,-60.647 26.962,-48.228 41.23,-104.22 42.03,-155.84 -1.577,-0.1 -3.126,-0.194 -4.872,-0.291 -1.89,-5.793 -5.438,-16.194 -7.211,-21.869 0.945,-6.146 3.192,-19.386 4.728,-27.779 1.007,-0.652 2.133,-1.423 3.2,-2.178 q -1.838,-9.9 -4.486,-19.27 a 37.322,37.322 0 0 0 -5.922,-5.031 c -2.188,-1.178 -5.556,-1.774 -12.531,-3.074 -8.629,-11.7 -22.1,-24.587 -32.508,-34.516 a 63.012,63.012 0 0 1 -13.139,18.918 c 5.352,5.726 7.7,8.637 9.482,12.58 a 169.42,169.42 0 0 1 11.6,15.34 14.383,14.383 0 0 1 -4.181,3.435 106.48,106.48 0 0 1 3.854,24.341 z"
     fill="#d4ecf3"
     id="path572" />
  <path
     d="m 456.7216,337.15 c -4.694,1.971 -9.106,4.131 -14.082,6.478 a 96.053,96.053 0 0 0 5.445,15.114 89.2,89.2 0 0 0 14.27,-6.383 134.37,134.37 0 0 0 -5.633,-15.209 z"
     id="path574"
     style="fill:#57C3E9" />
  <path
     d="m 378.6216,389.81 a 127.87,127.87 0 0 0 -16.053,15.021 c 4.006,6.2 6.2,9.2 10.232,15.019 7.511,-5.443 12.486,-8.918 18.87,-13.706 a 160.56,160.56 0 0 0 -13.049,-16.334 z"
     id="path576"
     style="fill:#57C3E9" />
  <path
     d="m 297.1416,381.83 c -4.683,4.386 -10.164,10.065 -15.844,16.443 a 74.261,74.261 0 0 0 12.655,15.943 213.37,213.37 0 0 0 17.738,-16.541 c -4.385,-6.478 -7.673,-10.663 -14.549,-15.845 z"
     id="path578"
     style="fill:#57C3E9" />
  <path
     d="m 218.9116,394.69 c -3.389,3.089 -9.568,9.166 -13.453,13.65 3.885,4.984 5.779,6.577 11.06,10.761 5.38,-3.286 8.67,-6.576 14.947,-12.953 a 99.118,99.118 0 0 0 -12.554,-11.458 z"
     id="path580"
     style="fill:#57C3E9" />
  <path
     d="m 158.1316,420.99 a 96.017,96.017 0 0 0 -11.36,12.355 108.52,108.52 0 0 0 10.463,12.656 c 3.987,-4.783 6.576,-8.669 10.564,-12.953 a 92.5,92.5 0 0 0 -9.667,-12.058 z"
     id="path582"
     style="fill:#57C3E9" />
  <path
     d="m 100.2316,410.83 c -2.989,2.293 -4.782,3.885 -8.37,6.577 1.2,3.888 2.891,6.974 5.879,11.36 a 76.928,76.928 0 0 0 10.065,-5.778 132.05,132.05 0 0 0 -7.574,-12.159 z"
     id="path584"
     style="fill:#57C3E9" />
  <path
     d="m 62.4366,390.19 c -3.943,0.563 -6.571,1.124 -9.857,1.877 a 105.32,105.32 0 0 0 2.441,12.3 c 3.473,-0.656 6.759,-1.6 10.8,-2.722 a 70.224,70.224 0 0 0 -3.384,-11.455 z"
     id="path586"
     style="fill:#57C3E9" />
  <path
     d="m 521.0416,250.31 a 53.369,53.369 0 0 1 5.623,10.133 55.343,55.343 0 0 1 -4.1,11.574 c -0.328,-7.307 -0.405,-11.865 -1.523,-21.707 z"
     id="path588"
     style="fill:#57C3E9" />
  <path
     d="m 403.8716,146.52 c -0.657,0.517 -5.68,6.29 -7.511,11.594 2.253,-1.408 7.041,-4.46 8.731,-5.351 -0.141,-2.206 -0.141,-5.4 -0.141,-6.008 z"
     fill="#ffffff"
     id="path592" />
  <path
     d="m 378.6216,389.81 a 130.24,130.24 0 0 1 -2.253,15.772 c -5.633,-0.376 -8.637,-0.376 -13.332,-0.563 a 73.578,73.578 0 0 1 15.585,-15.209 z"
     id="path594"
     style="fill:#BBE4F9" />
  <path
     d="m 297.1416,381.83 a 64.6,64.6 0 0 1 -0.6,14.949 107.02,107.02 0 0 1 -15.247,1.494 c 3.876,-4.497 10.545,-11.515 15.847,-16.443 z"
     id="path596"
     style="fill:#BBE4F9" />
  <path
     d="m 218.9116,394.69 c -0.2,4.882 -0.2,7.771 -0.6,12.157 -4.583,0.7 -8.369,1 -12.854,1.494 a 130.69,130.69 0 0 1 13.454,-13.651 z"
     id="path598"
     style="fill:#BBE4F9" />
  <path
     d="m 158.1316,420.99 c -0.4,4.084 -0.5,7.472 -1.2,11.36 a 70.382,70.382 0 0 1 -10.164,0.995 c 2.815,-3.364 6.762,-8.791 11.364,-12.355 z"
     id="path600"
     style="fill:#BBE4F9" />
  <path
     d="m 100.0816,411.12 c -0.188,3.1 -0.282,6.009 -0.657,9.483 a 45.214,45.214 0 0 1 -7.558,-3.205 73.393,73.393 0 0 1 8.215,-6.278 z"
     id="path602"
     style="fill:#BBE4F9" />
  <path
     d="m 62.4366,390.19 c -1.408,2.535 -2.44,4.412 -4.13,7.041 a 23.928,23.928 0 0 1 -5.727,-5.164 70.717,70.717 0 0 1 9.857,-1.877 z"
     id="path604"
     style="fill:#BBE4F9" />
  <path
     d="m 456.7216,337.15 c -1.971,4.506 -3.1,7.6 -4.6,11.829 -4.13,-1.784 -6.008,-2.628 -9.481,-5.351 4.327,-2.09 8.74,-4.273 14.081,-6.478 z"
     id="path606"
     style="fill:#BBE4F9" />
  <path
     d="m 448.3016,358.6 c 1.281,-3.339 2.447,-6.624 3.821,-9.622 3.91,1.087 6.879,2.115 10.189,3.372 a 64.729,64.729 0 0 1 -14.01,6.25 z"
     id="path610"
     style="fill:#4AA7C7" />
  <path
     d="m 372.8216,419.59 c 1.326,-4.546 2.387,-8.9 3.543,-14 a 103.12,103.12 0 0 0 15.177,0.323 c -3.904,2.993 -13.34,10 -18.72,13.677 z"
     id="path612"
     style="fill:#4AA7C7" />
  <path
     d="m 293.9416,413.99 c 1.017,-7.522 1.649,-11.109 2.6,-17.21 a 88.527,88.527 0 0 1 14.752,0.911 c -3.727,3.978 -12.177,12.849 -17.352,16.299 z"
     id="path614"
     style="fill:#4AA7C7" />
  <path
     d="m 216.5316,418.85 a 84.789,84.789 0 0 0 1.789,-12.014 84.178,84.178 0 0 1 12.9,-0.625 c -3.627,3.809 -10.414,10.501 -14.689,12.639 z"
     id="path616"
     style="fill:#4AA7C7" />
  <path
     d="m 157.2816,445.99 c -0.186,-4.041 -0.464,-9.666 -0.344,-13.644 a 51.3,51.3 0 0 1 11.032,0.819 94.616,94.616 0 0 0 -10.688,12.825 z"
     id="path618"
     style="fill:#4AA7C7" />
  <path
     d="m 97.8896,428.55 c 0.641,-2.95 1.086,-5.261 1.533,-7.943 a 48.771,48.771 0 0 1 8.014,2.35 67.89,67.89 0 0 1 -9.547,5.593 z"
     id="path620"
     style="fill:#4AA7C7" />
  <path
     d="m 55.1786,404.25 c 1.032,-2.509 2.075,-5.067 3.125,-7.013 a 41.623,41.623 0 0 1 7.287,4.247 60.644,60.644 0 0 1 -10.412,2.766 z"
     id="path622"
     style="fill:#4AA7C7" />
  <path
     d="m 400.7616,195.95 q -1.482,1.852 -3.017,3.9 c 15.376,13.618 53.563,-0.054 65.181,-30.186 -18.179,26.11 -46.738,34.922 -62.164,26.286 z"
     fill="#5d87b7"
     id="path626" />
  <path
     d="m 391.2516,184.15 c 0.179,7.093 2.61,12.268 6.492,15.705 q 1.539,-2.045 3.017,-3.9 a 20.073,20.073 0 0 1 -9.509,-11.805 z"
     fill="#d4d5d5"
     id="path628" />
  <path
     d="m 460.7616,204.03 c 6.29,0.282 14.27,-13.237 2.441,-33.8 a 95.508,95.508 0 0 1 -12.955,18.588 c 5.16,5.261 7.323,9.109 10.514,15.212 z"
     fill="#b7ccd2"
     id="path630" />
  <path
     d="m 522.2116,261.25 a 44.513,44.513 0 0 1 4.563,-0.517 c -1.1,3.444 -2.669,7.727 -4.2,11.471 -0.018,-2.969 -0.061,-6.627 -0.363,-10.954 z"
     fill="#4AA7C7"
     id="path632" />
  <path
     d="m 222.5516,514.19 c -0.117,12.046 1.129,45.7 2.925,57.076 0.7,4.444 3.041,5.382 9.357,5.146 l 33.566,-11.813 c -4.561,-10.993 -6.2,-29.473 -3.041,-48.187 -8.3,-2.339 -24.095,-7.369 -33.684,-13.1 a 120.76,120.76 0 0 1 -9.123,10.878 z"
     fill="#5d87b7"
     id="path634" />
  <path
     d="m 234.6116,576.54 c -0.086,-1.716 12.9,-12.323 22.623,-13.519 7.662,-0.941 10.739,0.668 12.464,3.784 0.684,1.237 2.543,3.159 2.276,4.573 -0.967,5.127 -37.269,7.038 -37.363,5.162 z"
     fill="#d4d5d5"
     id="path636" />
  <path
     d="m 423.0216,498.15 c -1.127,9.012 -0.76,15.208 1.5,27.226 3.286,17.462 5.069,24.69 10.234,44.967 a 15.126,15.126 0 0 0 -7.944,3.923 c -7.044,-6.037 -9.756,-7.319 -11.406,-6.83 -4.029,1.2 -6.974,8.914 -4.119,10.98 -7.886,1.316 -11.985,-0.007 -13.143,-5.256 -3.849,-17.462 -7.6,-40.18 -9.951,-58.768 a 174.43,174.43 0 0 0 34.829,-16.242 z"
     fill="#5d87b7"
     id="path638" />
  <path
     d="m 219.1616,468.11 c -11.547,-4.622 -23.589,-8.313 -34.78,-9.389 -104.13,-10 -166.46,-66.227 -182.36,-126.81 3.468,64.479 66.9,120.08 153.56,144.84 7.943,-2.431 15.377,-4.9 20.379,-6.785 z"
     fill="#5d87b7"
     id="path640" />
  <path
     d="m 225.6916,500.4 c 74.177,41.626 202.16,33.8 254.98,-60.647 a 329.55,329.55 0 0 0 26.618,-62.083 c -47.34,102.44 -166.74,148.95 -268.83,99.072 -6.09,-2.974 -12.609,-5.961 -19.294,-8.636 l -43.2,1.858 c -5,1.881 -12.436,4.354 -20.379,6.785 q 11.871,3.393 24.291,6 c 16.95,3.545 30.924,9.296 45.814,17.651 z"
     fill="#b7ccd2"
     id="path642" />
  <path
     d="m 69.8506,281.48 c -2.4267,6.2572 1.4002,11.821 6.9336,12.907 2.6024,0.51113 5.5821,0.0322 8.4664,-1.8304 -0.88465,2.2048 -2.1356,4.2442 -3.7,6.032 -1.443,1.888 -1.306,3.751 0.167,4.719 13.435,8.828 30.2,-4.386 33.854,-19.857 -2.547,23.519 -22.725,30.461 -35.111,24.972 -17.048,-7.557 -14.82,-23.023 -10.61,-26.943 z"
     fill="#5d87b7"
     id="path644" />
  <path
     d="m 410.7616,571.49 c 6.559,2.553 12.674,4.435 19.992,9.971 -1.548,1.365 -10.841,0.446 -17.487,-2.1 -3.097,-1.179 -5.327,-2.589 -2.505,-7.871 z"
     fill="#d4d5d5"
     id="path646" />
  <path
     d="m 428.9316,576.35 c 4.282,-1.822 10.02,-2.277 13.48,-0.728 0.274,2.642 -3.552,5.282 -11.749,4.189 z"
     fill="#d4d5d5"
     id="path648" />
  <path
     d="m 423.2516,167.94 c -1.337,-1.408 -2.042,-4.181 -0.49,-5.66 1.24,-1.183 4.043,-0.973 5.56,0.66 1.484,1.6 1.932,4.356 0.535,5.754 -1.243,1.242 -3.909,1.031 -5.605,-0.754 z m 0.394,-4.737 c -0.852,0.817 -0.253,2.661 0.639,3.68 1.084,1.243 3,1.463 3.607,0.852 0.889,-0.888 0.381,-2.733 -0.6,-3.785 -0.857,-0.911 -2.852,-1.511 -3.645,-0.744 z"
     fill="none"
     id="path650" />
  <path
     d="m 398.8116,200.17 c 4.592,-6.612 8.482,-10.563 16.637,-17.531 a 0.7,0.7 0 0 0 0.213,-0.469 c 1.542,-15.132 16.774,-33.979 31.173,-32.008 a 0.8,0.8 0 0 0 0.863,-0.333 41.437,41.437 0 0 1 10.2,-10.32 c 1.293,-0.972 1.2,-1.428 -0.265,-2.122 a 71.335,71.335 0 0 1 -8.033,-4.433 l -3.336,-0.114 a 50.736,50.736 0 0 0 9.722,5.811 46.278,46.278 0 0 0 -9.549,9.445 c -15.822,-2.1 -32.031,19.337 -32.566,33.353 a 106.2,106.2 0 0 0 -16.757,17.484 z"
     id="path652"
     style="fill:#0c1015" />
  <path
     d="m 445.0316,149.15 c 4.752,19.652 -8.027,34.1 -30.184,32.622 l 0.155,-1.763 c 19.679,1.624 32.985,-11.4 28.386,-30.858 z"
     id="path654"
     style="fill:#0c1015" />
  <path
     d="m 432.9916,176.78 c 11.208,-7.308 9.361,-19.991 2.174,-24.532 l 1.4,-1 c 7.15,4.668 8.284,15.021 2.744,21.658 z"
     id="path656"
     style="fill:#0c1015" />
  <path
     d="m 427.4616,158.06 c 11.988,2.147 10.015,20.9 -0.737,21.486 -4.272,0.23 -8.392,-1.818 -9.693,-6.525 l 0.759,-1.8 a 8.259,8.259 0 0 0 8.819,6.7 c 9.206,-0.58 10.436,-17.609 -0.228,-18.748 z"
     id="path658"
     style="fill:#0c1015" />
  <path
     d="m 444.7416,161.66 a 89.152,89.152 0 0 1 3.763,12.14 c 0.342,1.543 0.155,1.652 -1.336,2.042 -6.361,1.666 -10.488,2.471 -20.516,4.474 l 6.677,-3.076 c 5.121,-0.9 9.059,-1.827 13.476,-3.015 a 42.37,42.37 0 0 0 -2.89,-9.624 z"
     id="path660"
     style="fill:#0c1015" />
  <path
     d="m 438.1516,191.65 a 42.567,42.567 0 0 0 3.008,-3.477 c 1.18,-1.543 2.185,-0.794 1.158,0.784 a 19.453,19.453 0 0 1 -3.288,3.755 c -1.719,1.498 -2.523,0.636 -0.878,-1.062 z"
     id="path662"
     style="fill:#0c1015" />
  <path
     d="m 370.8916,349.63 c -59.5,-23.243 -113.52,-3.071 -174.21,34.177 -13.9,8.531 -26.312,15.317 -44.969,17.367 -80.982,8.908 -121.81,-43.189 -121.67,-83.343 0.133,-37.109 21.046,-64.657 47.6,-64.3 18.418,0.285 30.172,9.411 30.276,23.306 0.2,26.318 -19.523,31.581 -26.135,22.976 -0.45851,-0.45645 -0.49947,-1.185 -0.095,-1.69 6.478,-11.642 0.488,-19.226 -5.032,-19.386 -5.169,-0.155 -8.1,3.615 -8.59,9.787 -0.836,10.6 6.862,18.593 19.011,20.066 13.969,1.693 27.926,-9.5 27.812,-31.613 -0.1,-18.943 -16.171,-31.052 -36.825,-31.4 -34.351,-0.6 -74.166,31.05 -74.987,79 -1.183,69.108 71.451,134.85 177.04,157.12 19.456,4.1 28.032,7.67 46.119,17.758 73.76,41.142 201.42,32.281 253.26,-60.4 54.55,-97.541 55.03,-227.96 1.1,-286.26 -12.118,-13.1 -24.243,-18.784 -35.118,-18.777 -7.853,0 -18.074,4.23 -26.768,12.625 -3.569,3.446 -4.922,3.13 -4.435,-1.549 8.231,-79.345 39.358,-143.94 66.436,-145.08 10.813,-0.457 20.084,10.337 23.055,26.022 1.789,9.435 8.46,11.655 16.991,5.069 15.552,-12 28.249,-13.685 35.252,-9.153 7.737,5.005 7.5,20.339 -2.918,39.867 -8.354,15.666 -9.044,34.688 7.659,34.438 20.071,-0.357 28.449,21.914 7.581,38.4 -19.219,15.185 -30.065,22.478 -51.266,34.7 -2.83,1.632 -3.443,0.677 -0.688,-1.076 20.622,-13.121 31.042,-19.458 50.475,-35.793 17.774,-14.938 11.229,-34.1 -5.984,-33.8 -18.568,0.248 -20.1,-18.892 -9.857,-38.092 8.43,-15.808 9.854,-32.257 3.45,-36.4 -6.991,-4.522 -20.7,-0.182 -32.248,8.731 -10.848,8.37 -18.786,4.677 -20.888,-6.431 -2.441,-12.879 -10.526,-24.039 -20.521,-23.505 -25.084,1.355 -54.7,65.253 -64.133,142.38 7.145,-8.077 17.962,-13.7 28.8,-13.71 11.747,-0.01 24.825,5.925 37.21,19.315 55.878,60.406 54.6,190.49 -0.881,289.49 -52.923,94.449 -180.71,103.69 -256.6,60.921 -18.315,-10.324 -26.988,-13.5 -45.595,-17.321 -5.0214,-1.0316 -9.9698,-2.1613 -14.841,-3.385 -98.859,-24.834 -165.9,-88.374 -164.75,-156.11 0.835,-48.8 42.7,-82.075 78.341,-81.468 21.944,0.372 38.943,14.048 39.045,33.937 0.127,24.7 -15.693,35.679 -30.666,33.867 -12.319,-1.495 -22,-10.059 -21.02,-22.531 0.667,-8.458 5.65,-12.263 10.951,-12.11 6.927,0.2 14.619,9.8 6.9,22.39 5.468,6.935 22.039,2.146 21.86,-21.9 -0.085,-11.518 -10.194,-20.358 -27.774,-20.629 -24.929,-0.386 -44.27,24.472 -44.4,61.664 -0.141,38.964 39.981,89.557 118.43,80.934 18.393,-2.022 29.8,-8.475 43.536,-16.964 60.457,-37.364 115.54,-58.791 176.79,-34.77 z"
     id="path664"
     style="fill:#0c1015" />
  <path
     d="m 558.3016,141.23 c -10.686,12.353 -13.334,30 -4.483,37.387 11.12,9.284 10.977,24.722 -2.606,30.769 -10.28,4.576 -16.827,7.252 -25.283,10.619 -2.521,1 -3.184,-0.176 -0.439,-1.325 9.061,-3.8 15.514,-6.759 25.018,-11.125 10.747,-4.937 11.872,-18.913 1.971,-27.372 -8.651,-7.391 -8.328,-22.686 0.071,-34.941 z"
     id="path666"
     style="fill:#0c1015" />
  <path
     d="m 522.3816,292.86 a 148.88,148.88 0 0 0 5.415,-20.207 c 0.786,-3.653 2.082,-6.19 5.125,-9.765 7.08,-8.323 7.992,-15.449 3.287,-26.976 -3.027,-7.422 -2.451,-14.532 1.9,-21.884 l 3.28,-1.254 c -5.455,7.91 -6.261,14.6 -3.053,22.462 5.483,13.444 5.021,19.075 -3.675,29.3 -2.606,3.061 -3.661,4.952 -4.448,8.508 a 165.35,165.35 0 0 1 -8.024,27.363 z"
     id="path668"
     style="fill:#0c1015" />
  <path
     d="m 469.4616,110.12 c 16.394,-35.907 32.8,-61.559 55.5,-77.052 1.944,-1.327 2.64,-0.371 0.75,1.034 -21.468,15.958 -36.838,41.758 -55.113,76.6 -1.227,2.338 -2.278,1.916 -1.137,-0.582 z"
     id="path670"
     style="fill:#0c1015" />
  <path
     d="m 406.3616,146.43 c 1.679,-2.748 6.009,-7.416 10.427,-8.892 l 0.355,-3.243 c -5.431,2.841 -10.353,6.986 -12.413,11.325 -16.575,-23.163 -37.564,-38.338 -64.667,-53.435 -2.148,-1.2 -2.84,-3.043 -2.291,-6.737 1.718,-11.554 13.6,-17.879 25.938,-10.914 13.06,7.37 30.776,28.664 44.152,51.149 1.608,2.7 2.608,2.154 1.118,-0.616 -12.522,-23.277 -30.358,-44.493 -44.26,-52.554 -12.889,-7.475 -27.329,-1.681 -29.471,12.754 -0.7,4.73 1.03,7.426 3.849,9.012 26.1,14.692 45.531,28.634 63.884,51.962 2.059,2.619 2.346,1.879 3.379,0.189 z"
     id="path672"
     style="fill:#0c1015" />
  <path
     d="m 423.8716,98.225 c -10,-16.578 -18.586,-15.62 -23.376,-11.547 a 17.487,17.487 0 0 1 -16.522,3.849 l -3,-2.91 c 7.134,2.253 12.768,1.408 18.213,-3.1 7.484,-6.193 16.456,-4.291 25.816,10.421 z"
     id="path674"
     style="fill:#0c1015" />
  <path
     d="m 392.8616,101.79 c -23.462,-14.979 -35.321,-10.369 -36.162,1.617 -0.052,0.748 -1.866,-0.447 -1.809,-1.193 0.976,-13.016 13.853,-17.336 35.3,-4.085 z"
     id="path678"
     style="fill:none" />
  <path
     d="m 421.2416,111.09 c -2.529,0.527 -5.084,-0.24 -7.111,-4.3 -1.4,-2.8 -4.579,-3.553 -9.435,-1.056 -3.22,1.653 -5.126,2.136 -7.745,1.549 l -1.267,-2.183 c 3.122,0.991 4.759,0.8 8.237,-0.986 6,-3.083 10.02,-2.074 11.9,1.69 1.6,3.193 3.168,4.014 5.843,3.31 z"
     id="path680"
     style="fill:none" />
  <path
     d="m 501.4416,57.909 c -4.716,-1.934 -7.727,-5.971 -9.7,-11.888 -6.212,-18.643 -27.015,-22.566 -45.543,-10 l 1.893,-3.312 c 18.323,-11.294 38.527,-8.508 45.543,12.539 2.048,6.144 4.55,9.437 8.753,11.179 z"
     id="path682"
     style="fill:none" />
  <path
     d="m 552.5516,145.23 c 12.229,-17.722 7.706,-27.773 -10.492,-37.528 -14.382,-7.71 -16.079,-23.478 -11.547,-35.839 5.892,-16.063 -2.425,-26.089 -22.718,-21.991 l 1.5,-1.971 c 20.654,-4.036 29.723,6.84 23.188,24.667 -3.943,10.751 -2.579,26.216 10.773,33.374 19.8,10.614 22.787,20.94 13.166,36.613 z"
     id="path684"
     style="fill:none" />
  <path
     d="m 540.5816,153.75 c -4.062,7.834 -4.307,16 -1.267,22.249 7.973,16.386 5.448,32.335 -8.661,42.034 -2.88,1.98 -2.8,9.393 -0.563,14.927 3.9,9.624 4.083,18 -3.731,27.037 l -0.845,-1.831 c 6.434,-7.93 5.787,-16.957 2.676,-24.643 -2.34,-5.78 -2.347,-14.048 1.149,-16.452 12.719,-8.744 15.719,-24.438 8,-40.3 -2.961,-6.083 -2.886,-14.246 0.492,-21.545 z"
     id="path686"
     style="fill:none" />
  <path
     d="m 522.6616,285.15 c -1.714,-0.26 -3.63,-0.38 -5.309,-0.488 a 0.641,0.641 0 0 1 -0.56,-0.422 c -2.768,-7.753 -5.264,-15.308 -7.5,-22.755 a 0.64,0.64 0 0 1 -0.014,-0.31 c 1.668,-8.343 3.533,-19.849 4.568,-27.384 a 0.657,0.657 0 0 1 0.238,-0.416 c 0.687,-0.56 3.291,-2.53 4.034,-3.1 l 0.656,2.252 c -0.555,0.445 -2.387,1.952 -2.91,2.394 -1.034,7.5 -2.627,18.076 -4.272,26.334 2.175,7.244 4.22,13.832 6.9,21.357 1.052,0.064 2.722,0.208 4.225,0.329 z"
     id="path690"
     style="fill:#0c1015" />
  <path
     d="m 450.9016,187.88 c 36.382,37.645 24.373,134.54 -21.591,169.36 -19.2,14.544 -33.963,12.315 -51.939,3.591 -7.741,-3.756 -8.226,-9.506 -7.487,-12.462 1.7,-6.8 14.76,-9.206 27.6,-0.141 6.769,4.779 9.241,1.679 7.6,-2.816 -5.665,-15.541 0.792,-18.664 9.668,-15.349 11.729,4.383 15.641,-2.267 11.219,-11.218 -8.253,-16.71 -3.265,-20.883 8.59,-23.471 18.4,-4.017 22.059,-29.982 14.27,-40.415 -11.828,-15.84 -10.709,-20.984 -0.611,-35.533 5.522,-7.955 6.9,-14.694 6.758,-24.738 l 1.924,2.394 c 0.141,9.435 -1.374,15.333 -7.087,23.563 -8.76,12.623 -9.277,19.145 0.892,32.765 8.846,11.847 5.386,39.434 -15.748,43.983 -9.876,2.126 -14.149,6.782 -7.346,20.56 5.1,10.326 0.82,19.329 -13.472,13.988 -6.238,-2.331 -12.221,-0.58 -7.323,12.861 2.259,6.194 -2.143,10.833 -10.373,5.023 -10.873,-7.677 -22.878,-5.981 -24.174,-0.8 -0.657,2.624 -0.247,6.819 6.285,9.99 17.908,8.688 31.24,10.391 49.269,-3.43 43.164,-33.091 56.431,-129.36 21.38,-165.83 z"
     id="path692"
     style="fill:#0c1015" />
  <path
     d="m 469.7916,216.68 c -2.537,-3.854 -6.829,-9.777 -9.608,-13.413 l -2.147,-5.56 c 4.254,5.3 10.732,13.558 13.657,17.753 0.64,0.917 0.676,1.448 0.048,2.146 -1.184,1.315 -2.772,2.646 -4.147,3.9 l -0.584,-2.274 a 27.843,27.843 0 0 0 2.781,-2.552 z"
     id="path694"
     style="fill:#0c1015" />
  <path
     d="m 485.4516,285.23 a 0.654,0.654 0 0 1 -0.56,0.456 c -2.08,0.251 -3.914,0.5 -5.536,0.84 -3.942,6.6 -6.885,11.988 -10.8,19.521 0.955,7.994 2.183,18.306 3.558,26.03 a 95.741,95.741 0 0 0 9.273,3.858 0.639,0.639 0 0 1 0.407,0.459 186.12,186.12 0 0 1 4.76,28.051 0.637,0.637 0 0 1 -0.159,0.488 247.47,247.47 0 0 1 -17.7,18 0.638,0.638 0 0 1 -0.525,0.178 c -2.521,-0.308 -8.059,-0.946 -10.365,-1.281 -6.853,4.342 -10.684,6.762 -18.729,11.5 a 153.71,153.71 0 0 0 -5.163,26.9 c 3.755,3.05 6,4.916 9.615,7.611 a 0.642,0.642 0 0 1 0.242,0.649 c -3.332,15.349 -7.274,27.436 -11.89,35.546 a 0.635,0.635 0 0 1 -0.362,0.293 112.62,112.62 0 0 1 -30.229,5.135 l 0.869,-1.967 a 122.83,122.83 0 0 0 27.938,-5.4 c 4.46,-7.919 8.264,-18.686 11.466,-33.275 -3.531,-2.638 -5.95,-4.4 -9.692,-7.441 a 0.641,0.641 0 0 1 -0.231,-0.577 c 1.172,-10.2 2.491,-20.425 5.089,-28.854 a 0.631,0.631 0 0 1 0.291,-0.365 c 8.633,-4.85 13.017,-7.451 19.908,-11.722 a 0.649,0.649 0 0 1 0.431,-0.095 c 2.2,0.326 7.8,1.116 10.161,1.408 7.356,-7.21 11.509,-11.931 16.372,-17.406 a 197.37,197.37 0 0 0 -4.073,-26.323 93.108,93.108 0 0 1 -9.224,-3.866 0.653,0.653 0 0 1 -0.358,-0.478 c -1.543,-8.465 -3.16,-19.072 -4.124,-27.17 a 0.638,0.638 0 0 1 0.068,-0.37 c 4.02,-7.741 7.387,-13.822 11.437,-20.6 a 0.642,0.642 0 0 1 0.418,-0.3 c 1.515,-0.315 3.883,-0.773 5.446,-0.938 1.227,-4.407 4.183,-15.185 5.445,-19.011 -3.514,-5.9 -7.6,-12.333 -11.313,-18.072 -1.521,-0.244 -3.581,-0.559 -6.383,-0.891 l -0.235,-2.019 c 3.127,0.368 5.985,0.776 7.549,1.038 a 0.646,0.646 0 0 1 0.43,0.283 c 4.272,6.384 8.723,13.123 12.322,19.168 a 0.642,0.642 0 0 1 0.056,0.529 c -1.276,3.834 -4.492,14.261 -5.9,20.48 z"
     id="path696"
     style="fill:#0c1015" />
  <path
     d="m 442.3816,342.6 q 6.731,-3.2 13.824,-6.113 c 0.857,-0.355 1.1,-0.306 1.492,0.581 a 119.69,119.69 0 0 1 5.567,14.662 1.2,1.2 0 0 1 -0.582,1.6 73.449,73.449 0 0 1 -13.825,6.039 c -0.938,0.326 -1.278,0.139 -1.71,-0.764 a 72.326,72.326 0 0 1 -5.349,-14.554 c -0.204,-0.797 0.031,-1.19 0.583,-1.451 z m 1.418,1.6 a 87.768,87.768 0 0 0 4.729,13.462 70.952,70.952 0 0 0 12.7,-5.786 119.38,119.38 0 0 0 -4.912,-13.569 c -3.533,1.5 -8.121,3.634 -12.517,5.893 z"
     id="path698"
     style="fill:#0c1015" />
  <path
     d="m 443.2916,343.32 a 29.5,29.5 0 0 0 8.365,4.552 103.07,103.07 0 0 1 4.254,-10.45 l 1.154,0.548 a 106.74,106.74 0 0 0 -4,10.746 c -0.3,0.909 -0.657,1.113 -1.617,0.741 a 29.051,29.051 0 0 1 -8.558,-4.836 z"
     fill="none"
     id="path702" />
  <path
     d="m 373.9916,420.04 c -1.133,0.789 -1.469,0.8 -2.253,-0.246 -3.309,-4.4 -6.4,-8.883 -9.5,-13.693 -0.794,-1.236 -0.74,-1.658 0.094,-2.583 6.1,-6.748 9.294,-9.2 15.185,-13.859 0.887,-0.7 1.445,-0.7 2.076,0 a 144.02,144.02 0 0 1 12.447,15.315 c 0.73,1.036 0.857,1.461 -0.282,2.345 -4.647,3.616 -12.158,8.826 -17.767,12.721 z m -1.021,-1.355 c 4.846,-3.43 12.357,-8.971 17.238,-12.773 a 117.89,117.89 0 0 0 -11.7,-14.953 120.18,120.18 0 0 0 -14.63,13.967 c 2.945,4.548 6.577,10.159 9.093,13.759 z"
     fill="#0c1015"
     id="path704" />
  <path
     d="m 375.9916,406.39 c -4.413,-0.282 -7.745,-0.471 -12.824,-0.691 l -0.2,-1.293 c 5.136,-0.036 8.516,0.012 12.74,0.246 a 97.1,97.1 0 0 0 2.216,-14.306 l 1.274,0.11 a 89.15,89.15 0 0 1 -1.8,14.618 c -0.18,0.976 -0.446,1.378 -1.406,1.316 z"
     fill="none"
     id="path706" />
  <path
     d="m 522.6116,270.56 c 1.105,-3.268 1.915,-5.873 3.011,-9.744 a 52.382,52.382 0 0 0 -4.16,-8.758 l -0.273,-3.722 a 129.59,129.59 0 0 1 6.364,11.492 2.226,2.226 0 0 1 0.039,1.974 c -1.2,3.667 -3.207,8.834 -4.817,13.3 z"
     fill="#0c1015"
     id="path708" />
  <path
     d="m 292.7216,414.18 a 64.161,64.161 0 0 1 -11.829,-14.74 1.843,1.843 0 0 1 0.234,-2.486 148.1,148.1 0 0 1 14.974,-15.3 c 0.906,-0.834 1.3,-0.9 2.347,0.046 a 90.963,90.963 0 0 1 13.613,14.74 c 0.744,0.977 0.757,1.523 -0.235,2.581 a 124.1,124.1 0 0 1 -16.569,15.208 c -1.171,0.888 -1.594,0.86 -2.535,-0.049 z m -10.092,-15.866 c 3.755,5.868 6.133,9.661 11.427,14.824 a 138.37,138.37 0 0 0 16.267,-15.621 103.14,103.14 0 0 0 -13.129,-14.572 191,191 0 0 0 -14.564,15.368 z"
     fill="#0c1015"
     id="path710" />
  <path
     d="m 281.8016,397.61 a 74.461,74.461 0 0 0 14.019,-1.6 62.628,62.628 0 0 0 0.729,-13.606 l 1.416,-0.1 a 56.367,56.367 0 0 1 -0.408,14.038 1.515,1.515 0 0 1 -1.456,1.408 72.768,72.768 0 0 1 -14.539,1.307 z"
     fill="none"
     id="path712" />
  <path
     d="m 215.4716,419.29 a 42.858,42.858 0 0 1 -10.421,-9.895 c -0.683,-0.873 -0.722,-1.311 0,-2.138 a 137.1,137.1 0 0 1 12.877,-12.848 c 0.809,-0.706 1.2,-0.691 2.14,0.036 a 85.634,85.634 0 0 1 11.683,10.631 1.387,1.387 0 0 1 0,2.176 c -6.46,6.587 -8.716,8.833 -14.068,12.1 a 1.69,1.69 0 0 1 -2.211,-0.062 z m -8.7,-10.979 a 42.451,42.451 0 0 0 9.86,9.754 c 4.885,-3.038 7.431,-5.522 13.51,-11.929 a 81.262,81.262 0 0 0 -11.157,-10.351 c -3.203,2.948 -8.093,7.815 -12.216,12.524 z"
     fill="#0c1015"
     id="path714" />
  <path
     d="m 206.0816,407.65 a 90.836,90.836 0 0 0 11.425,-1.579 c 0.388,-3.239 0.6,-6.759 0.749,-10.7 l 1.4,0.035 a 87.585,87.585 0 0 1 -0.493,11.055 c -0.077,0.8 -0.314,1.043 -1.127,1.2 a 85.424,85.424 0 0 1 -12.11,1.479 z"
     fill="none"
     id="path716" />
  <path
     d="m 156.1516,446.09 a 79.458,79.458 0 0 1 -9.787,-11.652 c -0.691,-0.971 -0.846,-1.325 -0.035,-2.253 5.1,-5.845 6.407,-7.569 10.737,-11.3 0.9,-0.776 1.24,-0.875 2.112,0.036 a 70.864,70.864 0 0 1 9.188,11.195 c 0.6,0.914 0.577,1.17 -0.317,2.147 a 130.78,130.78 0 0 0 -9.682,11.688 c -0.811,1.085 -1.268,1.107 -2.216,0.139 z m 1.056,-1.337 a 148.27,148.27 0 0 1 9.294,-11.864 79.919,79.919 0 0 0 -8.414,-10.738 77.2,77.2 0 0 0 -10.033,11.231 84.046,84.046 0 0 0 9.155,11.37 z"
     fill="#0c1015"
     id="path718" />
  <path
     d="m 147.2416,432.69 a 60.786,60.786 0 0 0 9.016,-1.03 c 0.528,-3.1 0.881,-6.231 1.2,-9.928 l 1.261,0.042 a 97.73,97.73 0 0 1 -0.908,10.238 c -0.141,0.9 -0.472,1.119 -1.161,1.232 a 53.988,53.988 0 0 1 -9.294,0.882 z"
     fill="none"
     id="path720" />
  <path
     d="m 96.7226,428.6 a 39.8,39.8 0 0 1 -5.7,-10.421 c -0.4,-1.05 -0.322,-1.288 0.669,-2.041 3.273,-2.5 4.612,-3.451 7.6,-5.6 0.965,-0.693 1.317,-0.546 1.971,0.317 a 74.055,74.055 0 0 1 7.006,10.914 c 0.653,1.205 0.712,1.57 -0.528,2.358 a 64.077,64.077 0 0 1 -9.083,5.035 c -0.948,0.433 -1.342,0.213 -1.935,-0.562 z m -3.732,-10.843 a 34.807,34.807 0 0 0 5.035,9.892 49.708,49.708 0 0 0 8.414,-5.033 79.8,79.8 0 0 0 -6.408,-10.667 c -2.395,1.916 -4.295,3.449 -7.041,5.808 z"
     fill="#0c1015"
     id="path722" />
  <path
     d="m 98.7316,419.44 c 0.352,-2.922 0.492,-4.964 0.692,-8.117 l 1.247,0.127 a 85.637,85.637 0 0 1 -0.425,8.588 c -0.126,1.184 -0.606,1.4 -1.761,1.022 a 28.112,28.112 0 0 1 -6.418,-2.823 l 0.3,-1.294 a 24.7,24.7 0 0 0 6.365,2.497 z"
     fill="none"
     id="path724" />
  <path
     d="m 65.6926,402.65 a 90.435,90.435 0 0 1 -10.1,2.413 c -0.971,0.185 -1.168,-0.134 -1.416,-0.97 a 64.935,64.935 0 0 1 -2.442,-11.492 c -0.131,-1.039 0.08,-1.294 0.861,-1.472 a 73.133,73.133 0 0 1 9.244,-1.608 c 1.006,-0.113 1.156,-0.117 1.582,0.943 a 57.328,57.328 0 0 1 3.136,10.353 c 0.216,1.008 -0.034,1.582 -0.865,1.833 z m -0.944,-1.666 a 48.868,48.868 0 0 0 -2.831,-9.881 c -3.331,0.554 -5.468,0.97 -8.272,1.692 a 64.588,64.588 0 0 0 1.915,10.661 65.9,65.9 0 0 0 9.187,-2.472 z"
     fill="#0c1015"
     id="path726" />
  <path
     d="m 62.8106,390.83 a 44.99,44.99 0 0 1 -3.558,6.411 c -0.526,0.808 -0.9,0.889 -1.75,0.36 a 17.031,17.031 0 0 1 -4.78,-4.444 l 0.609,-1.245 a 19.849,19.849 0 0 0 4.726,4.218 c 1.555,-2.387 2.432,-3.754 3.635,-5.921 z"
     fill="none"
     id="path728" />
  <path
     d="m 152.9616,476.09 c 7.649,-2.088 14.87,-4.742 23.062,-7.422 l -0.554,2.89 c -7.193,2.336 -12.123,3.689 -18.87,5.587 z"
     id="path730"
     style="fill:#0c1015" />
  <path
     d="m 268.4816,562.14 c -4.025,-11.246 -4.54,-31.448 -1.938,-45.081 l -2.224,-0.8 c -3.064,15.86 -1.994,36.011 1.57,46.386 0.74,2.153 4.812,6.8 4.812,8.428 0,1.119 -4.352,3.324 -9.765,4.2 -18.973,3.072 -33.147,0.867 -34.03,-5.257 -2.334,-16.158 -3.252,-40.753 -2.974,-56.845 l -2.409,1.976 c -0.29,13.332 0.032,39.833 2.285,55.432 0.87056,6.0042 9.9823,8.2347 20.839,8.2114 5.3556,-0.0115 11.136,-0.57145 16.561,-1.4974 6.466,-1.1 11.474,-4.582 11.474,-6.053 0.003,-2.051 -3.379,-6.796 -4.201,-9.1 z"
     id="path732"
     style="fill:#0c1015" />
  <path
     d="m 257.7616,576.63 c -2.89,-3.564 -5.562,-7.05 -8.761,-10.9 l 1.592,-0.889 c 3.509,3.75 6.622,7.729 9.493,11.355 z"
     id="path734"
     style="fill:#0c1015" />
  <path
     d="m 262.5816,575.7 a 99.68,99.68 0 0 1 0.643,-12.676 l 1.733,0.187 c -0.3,4.191 -0.158,7.852 -0.229,12.006 z"
     id="path736"
     style="fill:#0c1015" />
  <path
     d="m 253.3816,465.03 c 12.166,-6.927 25,-17.673 36.98,-28.923 1.2,-1.129 1.657,-1.067 2.881,-0.152 a 281.29,281.29 0 0 0 41.107,25.737 l -0.278,2.211 c -19.574,-10.21 -31.075,-17.461 -42.1,-25.651 -12.134,11.288 -25.066,21.5 -39.711,29.664 z"
     id="path738"
     style="fill:#0c1015" />
  <path
     d="m 413.0016,579.45 c -11.012,1.47 -14.642,0.011 -16.077,-5.725 -3.714,-14.851 -7.532,-38.236 -10.115,-59.052 l 2.394,-0.845 c 2.575,20.833 6.7,44.558 10.421,59.426 0.977,3.908 3.286,5 10.843,4.155 z"
     id="path740"
     style="fill:#0c1015" />
  <path
     d="m 409.1216,577.55 c -1.738,-3.4 3.685,-10.531 6.4,-10.919 3.742,-0.534 17.855,10.173 16.084,15.186 -0.83,2.335 -20.07,0.451 -22.484,-4.267 z m 1.934,-0.9 c 1.737,3.258 18.082,5.332 18.837,4.25 1.469,-2.111 -11.888,-13.1 -14.082,-12.643 -1.891,0.392 -6.205,5.667 -4.756,8.388 z"
     id="path742"
     style="fill:#0c1015" />
  <path
     d="m 430.0016,578.83 a 28.858,28.858 0 0 0 4.225,0.3 c 5.318,-0.044 7.327,-1.807 7.327,-2.546 0,-1.236 -3.9,-5.142 -5.409,-5.133 a 15.034,15.034 0 0 0 -8.333,3.328 l -1.442,-1.328 c 2.058,-1.893 7.49,-3.831 9.81,-3.851 2.32,-0.02 7.109,4.6 7.109,7.23 0,1.971 -3.207,4.182 -9.518,4.24 -0.9,0.008 -1.866,-0.031 -2.893,-0.125 z"
     id="path744"
     style="fill:#0c1015" />
  <path
     d="m 433.4416,492.05 c -2.628,7.791 -2.641,15.891 -2.065,21.99 1.419,15.045 4.795,36.515 9.271,58.748 l -2.61,-1.846 c -4.382,-21.9 -7.512,-41.9 -8.914,-56.761 a 63.96,63.96 0 0 1 1.22,-20.349 z"
     id="path746"
     style="fill:#0c1015" />
  <path
     d="m 403.2116,145.91 c -16.584,16.243 -17.165,46.855 -6.2,55.014 16.542,12.306 51.322,2.878 66.413,-29.519 11.321,10.506 21.955,21.729 31.836,33.6 0.0961,0.11146 0.22931,0.1843 0.375,0.205 4.0624,0.60001 8.066,1.5465 11.967,2.829 2.7467,1.974 5.1461,4.391 7.1,7.152 l -0.763,-3.481 c -1.5638,-1.9642 -3.3737,-3.7192 -5.385,-5.222 -0.0474,-0.0312 -0.0984,-0.0564 -0.152,-0.075 -3.8714,-1.3683 -7.8525,-2.4038 -11.9,-3.095 -11.428,-12.807 -19.22,-21.421 -31.878,-33.255 -1.378,-1.3 -1.887,-1.255 -2.654,0.25 -16.1,31.612 -48.2,40.218 -63.478,28.463 -9.963,-7.668 -7.488,-36.907 5.843,-51.459 z"
     id="path748"
     style="fill:#0c1015" />
  <path
     d="m 181.1916,445.39 c -3.955,12.507 -8.089,37.4 -9.764,46.189 a 36.148,36.148 0 0 1 -3.943,11.406 c -11.8,24.252 -16.335,48.328 -16.335,76.746 0,4.929 1.971,8.872 10.421,9.857 l 38.3,-4.647 c -6.2,-13.378 -1.6,-45.953 8.731,-56.187 22.575,-22.372 42.825,-46.2 55.2,-93.644 4.739,-18.155 -74.072,-16.716 -82.61,10.28 z"
     fill="#6c9bd2"
     id="path752" />
  <path
     d="m 338.1516,442.85 c -7.821,29.2 -10.929,63.232 -11.406,86.6 -0.282,13.8 0.422,26.756 2.535,38.162 a 202.33,202.33 0 0 1 2.816,20.7 c 0.433,3.8 1.971,6.478 7.041,6.337 l 36.187,-4.785 c 0.141,-8.027 0.141,-10.843 -0.986,-15.631 a 103.84,103.84 0 0 1 -2.253,-16.335 c -2.062,-25.777 -3.171,-34.74 5.492,-47.738 6.478,-9.716 24.834,-38.22 32.811,-61.538 3.664,-10.7 -67.198,-24.582 -72.237,-5.772 z"
     fill="#6c9bd2"
     id="path754" />
  <path
     d="m 161.4716,590.15 c -0.094,-2.724 9.388,-14.366 20.748,-14.458 11.36,-0.092 19.245,7.791 19.433,10.984 0.188,3.193 -7.261,4.679 -16.148,5.07 -13.048,0.574 -23.981,-0.079 -24.033,-1.596 z"
     id="path756"
     style="fill:#ffffff" />
  <path
     d="m 336.5616,594.28 a 104.12,104.12 0 0 0 19.34,-4.788 c 10.729,-3.577 18.956,-2.636 19.493,0.109 0.486,2.49 -6.566,6.87 -12.721,7.426 a 75.5,75.5 0 0 1 -26.112,-2.747 z"
     id="path758"
     style="fill:#ffffff" />
  <path
     d="m 375.3816,591.87 c 4.071,0.429 7.362,-0.5 7.434,-1.5 0.072,-1 -4.052,-5.459 -7.2,-6.817 0.339,3.249 0.339,6.833 -0.234,8.317 z"
     id="path760"
     style="fill:#ffffff" />
  <path
     d="m 471.2816,255.57 c -1.5,3.1 -4.507,8.168 -6.572,12.392 a 46.7,46.7 0 0 1 4.6,10.327 c 1.783,-4.413 3.1,-7.417 5.445,-12.487 a 41.185,41.185 0 0 0 -3.473,-10.232 z"
     fill="#57C3E9"
     id="path764" />
  <path
     d="m 403.9216,152.89 c 1.338,1.971 2.535,4.154 3.591,5.914 -3.943,4.365 -6.83,7.252 -9.647,10.28 a 25.239,25.239 0 0 1 -1.549,-10.843 30.774,30.774 0 0 1 7.605,-5.351 z"
     fill="#57C3E9"
     id="path766" />
  <path
     d="m 471.2816,255.57 c -0.095,4.506 -1.714,8.707 -2.652,11.617 a 17.96,17.96 0 0 1 -3.92,0.775 c 1.408,-2.775 4.977,-9.017 6.572,-12.392 z"
     fill="#BBE4F9"
     id="path768" />
  <path
     d="m 474.8216,265.49 a 63.825,63.825 0 0 1 -6.2,1.69 c -0.16,2.3 0.9,6.964 0.768,9.933 a 75.52,75.52 0 0 0 5.432,-11.623 z"
     fill="#4AA7C7"
     id="path770" />
  <path
     d="m 337.7816,444.26 c -3.756,33.423 -3.756,48.818 -3.943,74.352 a 153.9,153.9 0 0 0 4.688,40.306 165.78,165.78 0 0 1 3.2,17.6 c 0.5,4.317 3.739,7.157 8.534,6.488 15.289,-2.131 21.52,0.453 24.7,5.34 a 14.091,14.091 0 0 0 -9.379,-1.492 63.091,63.091 0 0 0 -11.463,3.061 c -6.9,2.489 -12.82,4.536 -17.977,4.412 -2.384,-0.056 -4,-2.068 -4.225,-6.429 -0.422,-8.075 -2.726,-17.991 -3.709,-26.005 a 248.38,248.38 0 0 1 -0.938,-44.688 c 2.25,-28.82 5.258,-52.009 10.512,-72.945 z"
     fill="#5d87b7"
     id="path772" />
  <path
     d="m 153.2616,585.65 c 0.7,2.112 3.239,3.52 8.289,4.377 6.074,-13.389 23.4,-20.008 37.232,-8.24 -5.952,-17.823 3.94,-46.844 9.961,-53.169 15.151,-15.908 30.327,-31.625 41.73,-57.124 -9.9,16.709 -26.543,32.494 -38.678,40.743 -11.888,8.08 -15.424,10.918 -20.3,23.264 -2.112,5.351 -4.441,18.6 -5,26.772 -0.349,5.072 -2.011,6.837 -6.478,7.182 -14.505,1.127 -25.348,9.435 -26.756,16.195 z"
     fill="#5d87b7"
     id="path774" />
  <path
     d="m 375.5116,587.59 a 42.938,42.938 0 0 1 7.284,3.079 13.987,13.987 0 0 1 -7.414,1.083 14.625,14.625 0 0 0 0.13,-4.162 z"
     id="path776"
     style="fill:#d4d5d5" />
  <path
     d="m 338.7116,594.18 c 6.72,0.694 12.816,0.74 16.778,-0.477 9.884,-3.035 14.63,-4.065 19.531,-3.372 -2.538,8.239 -24.994,8.923 -36.309,3.849 z"
     id="path778"
     style="fill:#d4d5d5" />
  <path
     d="m 161.8616,589.9 c 9.778,-7.112 28.533,-10.755 39.735,-2.89 -1.024,6.533 -39.558,6.224 -39.735,2.89 z"
     id="path780"
     style="fill:#d4d5d5" />
  <path
     d="m 398.0016,168.88 a 79.7,79.7 0 0 1 3.006,-11.226 c 1.8,-0.344 4.663,-0.335 6.478,1.079 -3.098,3.379 -5.281,5.781 -9.484,10.147 z"
     fill="#4AA7C7"
     id="path784" />
  <path
     d="m 403.6816,152.72 c -1.264,2.176 -1.831,3.2 -2.676,4.929 a 15.585,15.585 0 0 0 6.478,1.079 c -1.315,-2.015 -2.394,-3.708 -3.802,-6.008 z"
     fill="#BBE4F9"
     id="path786" />
  <path
     d="m 468.3116,277.78 a 45.494,45.494 0 0 0 -4.365,-9.083 c -0.373,-0.633 -0.4,-0.857 0.071,-1.725 2.366,-4.347 4.088,-7.24 6.2,-11.2 0.847,-1.588 1.389,-1.329 2.041,0.071 a 50.322,50.322 0 0 1 3.451,9.294 1.646,1.646 0 0 1 -0.071,1.514 c -2.394,5.139 -3.274,6.829 -5.28,11.125 -0.739,1.584 -1.383,1.84 -2.047,0.004 z m -2.429,-9.916 a 42.63,42.63 0 0 1 3.521,8.12 c 1.514,-3.626 2.394,-5.845 4.271,-10.327 a 32.66,32.66 0 0 0 -2.44,-8.214 c -1.49,2.909 -2.947,6.072 -5.352,10.421 z"
     fill="#0c1015"
     id="path788" />
  <path
     d="m 471.8816,256.8 a 38.6,38.6 0 0 1 -1.352,10.14 1.121,1.121 0 0 1 -0.88,0.845 20.533,20.533 0 0 1 -4.614,0.776 v -1.29 a 24.886,24.886 0 0 0 4.159,-1 45.247,45.247 0 0 0 1.423,-9.75 z"
     fill="none"
     id="path790" />
  <path
     d="m 183.2416,591.67 c -3.661,-5.961 -5.54,-9.34 -8.908,-14.189 l 1.831,-0.563 a 127.3,127.3 0 0 1 9.7,14.706 z"
     id="path792"
     style="fill:#0c1015" />
  <path
     d="m 189.2816,591.62 a 65.467,65.467 0 0 0 1.583,-14.473 l 1.69,0.893 a 63.215,63.215 0 0 1 -0.973,13.439 z"
     id="path794"
     style="fill:#0c1015" />
  <path
     d="m 263.0016,435.08 c -13.123,41.412 -24.87,62.84 -53.364,90.828 a 29.245,29.245 0 0 0 -5.012,6.293 c -9.408,17.645 -10.158,35.447 -8.013,45.772 0.876,4.218 3.962,7.667 3.962,8.709 0,0.86 -5.038,3.64 -15.162,4.084 -24.044,1.067 -33,-4.5 -33,-10.61 0,-27.167 4.044,-51.7 14.41,-72.425 2.442,-4.883 4.478,-7.63 5.54,-13.521 3.285,-18.212 5.256,-29.667 9.07,-47.352 0.735,-3.415 -0.544,-3.608 -1.466,-0.244 -4.92,17.962 -6.854,29.572 -9.952,47.128 -0.9,5.083 -3.412,8.6 -5.351,12.768 -10.816,23.258 -15.492,44.625 -15.208,73.364 0.095,9.421 11.69,14.081 36.144,13 12.42,-0.545 17.055,-4.55 16.91,-6.229 -0.152,-1.77 -2.558,-5.585 -3.24,-9.046 -2.029,-10.293 -1.223,-27.513 7.711,-44.269 a 24.323,24.323 0 0 1 4.506,-5.774 c 28.461,-27.909 42.81,-53.1 52.972,-92.118 0.746,-2.851 -0.566,-3.172 -1.457,-0.358 z"
     id="path796"
     style="fill:#0c1015" />
  <path
     d="m 339.5616,595.64 c -6.018,0.364 -8.8,-1.674 -9.012,-7.369 -0.14,-3.775 -1.955,-16 -3.285,-24.408 -2.753,-17.415 -2.277,-36.958 -0.228,-59.482 1.916,-21.066 3.158,-32.182 9.8,-59.838 0.751,-3.126 2.171,-3.018 1.519,0.126 -5.649,27.193 -7.338,41.462 -8.914,60 -1.907,22.427 -2.736,41.35 0.168,58.627 1.681,10 3.589,20.386 3.755,24.879 0.14,3.751 1.285,5.429 5.281,5.208 z"
     id="path798"
     style="fill:#0c1015" />
  <path
     d="m 336.9616,595.64 c -1.958,-0.557 -2.485,-1.978 -0.282,-2.323 a 93.052,93.052 0 0 0 18.919,-4.986 73.024,73.024 0 0 1 8.549,-2.494 c 2.9,-0.625 11.783,0.927 12.326,3.718 0.419,2.153 -6.183,7.768 -12.225,8.648 -4.111,0.598 -22.423,-1.183 -27.287,-2.563 z m 4.013,-1.2 c 2.265,0.7 20.431,1.682 23.013,1.3 6.076,-0.907 10.757,-5.141 10.573,-6.084 -0.205,-1.052 -6.794,-2.239 -10,-1.654 -1.111,0.2 -5.175,1.246 -8.516,2.358 a 88.276,88.276 0 0 1 -15.07,4.083 z"
     id="path800"
     style="fill:#0c1015" />
  <path
     d="m 374.3916,587.82 c 0.0263,-5.1132 -0.53029,-10.213 -1.659,-15.2 -1.0854,-4.6459 -1.7217,-9.3854 -1.9,-14.153 -0.92966,-14.556 -1.9474,-24.521 -0.70204,-32.845 0.81087,-5.4197 2.5812,-10.143 5.96,-14.985 12.738,-18.258 24.174,-39.9 33.391,-61.725 1.167,-2.763 2.431,-2.224 1.438,0.609 -7.986,22.771 -20.251,44.187 -33.045,62.523 -4.1023,5.8799 -5.7,11.207 -6.0722,18.198 -0.3725,6.9986 0.48323,15.665 1.2842,28.224 0.14041,4.646 0.73016,9.2676 1.761,13.8 1.151,4.786 2.218,14.24 1.655,19.285 l -0.938,-0.422 z"
     id="path802"
     style="fill:#0c1015" />
  <path
     d="m 375.3316,582.34 c 4.154,2.015 8.555,6.508 8.462,8.275 -0.073,1.366 -4.517,2.539 -9.622,2.064 l 1.532,-1.877 c 3.843,0.282 6.045,-0.044 6.2,-0.589 0.13,-0.462 -2.849,-3.864 -6.416,-5.547 z"
     id="path804"
     style="fill:#0c1015" />
  <path
     d="m 343.1916,430.36 c 3.7,-5.526 8.2,-10.032 15.94,-12.5 2.828,-0.9 3.175,-0.083 0.484,1.182 -7.377,3.468 -10.615,6.566 -15.415,12.1 -1.586,1.818 -2.437,1.348 -1.009,-0.782 z"
     id="path806"
     style="fill:#0c1015" />
  <path
     d="m 408.8016,441.35 c -3.684,-9.412 -6.712,-13.285 -14.718,-20.159 -1.968,-1.69 -1.359,-2.416 0.805,-0.99 7.976,5.259 13.186,11.6 15.134,20.775 0.516,2.431 -0.338,2.629 -1.221,0.374 z"
     id="path808"
     style="fill:#0c1015" />
  <path
     d="m 398.8716,169.2 c -0.969,1.025 -1.354,1 -1.854,-0.352 a 24.044,24.044 0 0 1 -1.666,-10.21 1.619,1.619 0 0 1 0.587,-1.432 29.766,29.766 0 0 1 7.369,-4.975 c 0.716,-0.353 0.946,-0.374 1.408,0.3 0.969,1.427 2.6,4.243 3.4,5.61 0.417,0.7 0.381,0.876 -0.141,1.454 -2.505,2.784 -7.245,7.637 -9.103,9.605 z m -0.68,-1.619 c 1.783,-1.868 5.9,-6.318 8.261,-8.919 -0.7,-1.207 -2.033,-3.455 -2.864,-4.718 a 28.36,28.36 0 0 0 -6.451,4.695 22.341,22.341 0 0 0 1.054,8.942 z"
     id="path810"
     style="fill:#0c1015" />
  <path
     d="m 404.3216,146.58 c 0.125,-0.514 1.788,-1.189 1.64,-0.679 a 23.791,23.791 0 0 0 -0.928,5.2 52.786,52.786 0 0 0 10.186,-4.07 c 0.446,-0.286 1.335,1.314 0.881,1.584 -3.778,2.255 -11.833,4.693 -12.322,4.4 -0.435,-0.263 -0.106,-3.77 0.543,-6.435 z"
     id="path812"
     style="fill:#0c1015" />
  <path
     d="m 233.3016,575.76 c 11.171,-12.579 22.529,-16.5 33.7,-13.519 0.322,0.086 0.755,2.713 0.255,2.557 -9.95,-3.107 -21.462,1.122 -31.689,11.617 -0.21,0.217 -2.618,-0.259 -2.266,-0.655 z"
     id="path814"
     style="fill:#0c1015" />
  <path
     d="m 160.7316,588.95 c 3.529,-7.059 13.5,-14.716 22.906,-14.716 7.6,0 12.1,3.705 14.9,5.7 0.6,0.425 0.428,2.977 0.021,2.637 a 21.249,21.249 0 0 0 -14.841,-5.918 c -8.628,0 -17.952,6.612 -21.217,13.143 -0.164,0.342 -2.005,-0.373 -1.769,-0.846 z"
     id="path816"
     style="fill:#0c1015" />
</svg>
