<?xml version="1.0" encoding="UTF-8"?>
<!-- Created with Inkscape (http://www.inkscape.org/) -->
<svg version="1.1" viewBox="0 0 100.63 122.26" xmlns="http://www.w3.org/2000/svg">
 <g transform="translate(-4.4563 -1.6714)">
  <path d="m30.274 104.56c-17.587-5.9872-18.835-19.458-14.344-35.05 0.49896-1.7463-0.49893-1.7463-1.4968-0.87315-9.1056 7.484-13.347 19.708-5.7378 29.936-0.7484-0.3742-1.1226-0.12464-0.49892 1.2474 2.6194 6.6109 13.596 10.977 21.205 10.103-0.12463-1.4968 0-3.1184 0.87316-5.3636z" fill="#f09cb4"/>
  <path d="m5.0779 84.481c1.1226 14.719 14.843 23.076 24.198 23.575 0 0.62368-0.12463 1.1226 0 1.871-9.6045 0.62368-18.71-4.2409-21.329-10.478-0.24957-0.62365 0.12464-1.2473 0.49896-0.99786-2.6194-3.6173-4.241-9.1056-3.3678-13.97z" fill="#d0879d"/>
  <path d="m30.274 104.94c-15.093-4.6152-20.456-16.714-14.719-35.3 0.3742-1.372 0-1.4968-0.99785-0.7484-9.9787 8.1077-13.721 22.577-2.2452 33.678 0.7484 0.74841 0.49892 0.99789-0.3742 0.24957-12.349-10.852-7.8582-27.192 2.2452-34.427 1.7463-1.2473 2.6194-0.62367 1.9957 1.4968-5.2388 18.211-0.62368 29.437 14.344 34.427z" fill="#0f141b"/>
  <path d="m68.567 80.116s-5.3636-4.241-5.4883-4.241c-0.12463 0.12464-10.353 2.4947-10.353 2.4947-1.3721 0.12463-2.37 0.24956-3.742 0.62367-1.1226 1.4968-1.6216 2.9936-2.2452 4.8646-0.7484 1.9957-2.2452 4.3657-4.4904 6.4861-6.7356 6.2367-12.598 13.471-12.972 17.712-0.7484 7.7335 4.8646 13.347 11.85 12.723 3.6173-0.24957 6.4862-1.7463 8.1077-3.8667 1.871-0.3742 5.7378-0.7484 8.4819 0.12463l10.228-2.3699c1.4968-2.4947 3.2431-5.9872 3.2431-7.7335-0.12464-1.6215-0.7484-3.4925-2.8689-5.7378 1.871-9.4798 2.7442-14.843 0.24957-21.08z" fill="#fff"/>
  <path d="m50.855 71.384 11.85 2.8688 7.983-6.4862c2.4947-1.4968 4.1162-7.1098 3.1183-11.85-3.6173-7.7335-9.1056-12.224-13.721-11.226-4.6152 0.99788-6.8604 4.241-7.8582 10.727-0.87313-4.241-2.8689-6.9851-5.3636-6.7356-2.1205 0.24957-3.4925 2.6194-3.8667 5.8625 0.62365 3.3678 0.87312 6.3614 0.87312 9.1056 0.12464 3.8667 2.6194 6.9851 6.9851 7.7335z" fill="#fff"/>
  <path d="m51.604 62.279 0.3742 0.3742c1.4968 3.1183 4.4904 6.9851 6.2367 6.3614 1.7462-0.49895 1.9957-3.9915 0.62365-9.1056-2.2452 1.2474-5.1141 2.1205-7.2346 2.37z" fill="#ed8599"/>
  <path d="m51.604 62.279c1.9957-0.24957 5.613-1.4968 7.2346-2.37 0.12463 0.49896 0.37419 1.3721 0.49895 1.871-2.37 0.12464-4.241 1.7463-4.7399 4.9894-1.1226-1.2474-2.1205-3.1184-2.6194-4.1162z" fill="#923000"/>
  <path d="m44.993 60.158c-0.7484-5.1141 0.3742-7.7335 1.6216-7.983 1.2473-0.24956 3.2431 2.4947 3.4925 6.112-0.24957 1.6215-1.1226 2.7441-2.1205 2.9936-1.1226 0.24957-2.2452-0.24957-2.9936-1.1226z" fill="#7dccf3"/>
  <path d="m58.339 56.042c-0.62368-3.6173 0.49893-8.1077 2.7441-8.3572 2.3699-0.3742 4.8646 2.6194 5.7378 6.3614-0.49892 1.6215-2.2452 2.8689-3.4925 3.1183-1.4968 0.24956-3.4925 0.12464-4.9893-1.1226z" fill="#7dccf3"/>
  <path d="m66.447 39.328c-0.87312-3.9915-3.8667-11.475-5.8625-14.843-0.87316-1.4968-1.871-1.871-3.3678-0.3742-4.9894 4.7399-5.2388 14.22-2.37 19.084 0.87315 1.4968 1.871 1.871 3.8668 1.1226 2.2452-0.62368 5.1141-1.7463 7.3593-2.7442 2.9936 5.613 4.8646 8.2324 5.9872 8.4819 1.2474 0.3742 4.9894-2.1205 7.8582-5.7378 2.8689-3.742 4.3657-8.4819 3.2431-9.4798-1.2473-0.99785-7.8582-0.12463-16.714 4.4904z" fill="#fff"/>
  <g fill="#f09cb4">
   <path d="m75.802 35.336c3.2431-0.24957 1.2474 4.7399-0.37421 6.8604-1.9957 2.8689-4.8646 5.3636-6.9851 3.6173-0.62368-0.99789-1.871-3.1184-2.37-4.241-1.3721 0.62368-3.6173 1.4968-4.7399 1.871-1.7463-0.3742-2.7442-3.2431-2.7442-6.9851 0-4.241 2.6194-7.8582 4.6152-6.6109 0.99785 2.7441 2.6194 6.9851 3.2431 9.355 2.8689-1.3721 5.8625-2.7441 9.355-3.8667z"/>
   <path d="m22.042 19.744c-3.6173-1.4968-9.1056-2.9936-10.478-1.4968-1.1226 1.2473 0.87313 7.8582 4.3657 12.349-1.2473-0.49893-1.871 0.24956-0.24956 2.3699 0.7484-3.9915 2.7441-8.9808 6.3614-13.222z"/>
   <path d="m53.974 41.573c-1.871 0.3742-3.3678 0.87316-5.2388 2.1205-3.8667-5.8625-10.852-14.22-16.091-17.712-5.7378 4.7399-10.103 10.977-9.6045 15.592 4.9894 3.4926 9.4798 5.613 15.592 7.484-1.9957 0-3.1183 0.49895-3.1183 1.2474-0.12463 0.7484 1.372 1.7462 4.8646 1.7462-1.2474 1.1226-1.871 2.37-1.2474 2.9936 0.62367 0.62367 2.2452 0 3.6173-1.7463l0.24957 1.2473c0.3742-3.2431 1.6215-5.613 3.8667-5.8625 2.2452-0.24956 4.4904 2.1205 5.3635 6.6109 0.87316-5.1141 2.9936-9.854 7.6088-10.602 5.2388-0.7484 10.602 3.6173 13.97 11.226-0.24957-1.7463-0.7484-4.3657-1.3721-5.7378-1.1226 0.3742-3.742-3.6173-6.3614-8.6066-2.6194 1.2474-5.8625 2.37-8.2324 2.9936-2.1205 0.3742-2.3699-0.12464-3.8667-2.9936z"/>
   <path d="m64.077 31.345c0.87315 2.6194 1.871 5.4883 2.37 7.8582 3.3678-1.6215 10.602-4.7399 14.968-4.7399 6.9851-7.6088 10.228-18.461 8.2324-18.336 1.6215-4.241 1.9957-8.7314 2.1205-11.6 0.12463-2.37-1.4968-3.1184-3.742-2.1205-9.1056 3.9915-21.08 15.218-23.949 28.938z"/>
  </g>
  <path d="m31.521 27.104c2.4947-2.2452 7.7335-5.613 10.103-7.7335 1.4968-1.2473 1.1226-1.9957-0.24957-2.2452-1.9958-0.3742-3.8668-0.3742-6.8604 0.12464 1.7463-1.871 2.7442-3.2431 3.8668-4.9894 0.7484-1.2473 0.24956-1.871-1.2474-1.4968-3.8667 0.7484-7.1098 2.4947-10.478 4.7399z" fill="#7dccf3"/>
  <path d="m31.646 26.854c0.49892-5.8625-0.99788-9.4798-4.9894-11.351-1.1226 0.87313-2.2452 1.871-3.2431 2.8689l4.7399 11.974c1.2474-1.2473 2.2452-2.1205 3.4926-3.4925z" fill="#5084c4"/>
  <path d="m28.278 30.222c0.49895-4.9893-0.7484-9.7292-4.8646-11.85-1.1226 1.1226-2.2452 2.4947-3.1184 3.6173l4.9894 12.224c0.99789-1.6215 1.7463-2.6194 2.9936-3.9915z" fill="#f09cb4"/>
  <path d="m25.409 34.089c0.12464-6.4862-1.4968-10.602-4.9894-12.224-3.4926 5.1141-5.3636 11.226-4.9894 15.093 0.74841 7.983 7.3593 14.22 11.85 14.719 2.2452 0.24957 5.9872-0.24956 8.2324-1.372 0.12464-0.62368 1.4968-1.2474 3.1183-1.2474-3.9915-1.2473-7.7335-2.8689-10.228-3.9915-1.9957 0-3.3678-0.12463-4.9894-0.62368-0.87315-2.4947-0.49895-6.3614 1.9957-10.353z" fill="#fff"/>
  <path d="m104.12 56.79c1.1226-3.4925 0.87313-8.6066-0.3742-8.8561-1.2473-0.12463-2.3699 2.7442-2.7441 4.6152-0.62369-1.4968-1.6216-3.6173-2.37-3.4926-0.7484 0.24956-0.87313 2.4947-0.99785 3.8668 0 1.4968-0.37421 3.9915-0.62369 5.3635z" fill="#7dccf3"/>
  <path d="m104.24 56.416c-2.4947-1.9957-5.2388-0.74841-7.2346 1.9958-0.12463 0.7484-0.24956 1.871-0.49892 2.6194l6.8604-1.871c0.49896-1.1226 0.62367-1.871 0.87315-2.7442z" fill="#5084c4"/>
  <path d="m103.37 59.16c-1.871-1.372-4.7399-0.49892-6.8604 1.871-0.24957 0.7484-0.3742 1.7463-0.7484 2.4947l6.4861-1.6215c0.3742-0.7484 0.74841-1.7463 1.1226-2.7442z" fill="#f09cb4"/>
  <path d="m102.25 61.655c-1.1226-0.7484-3.742-0.62368-6.6109 2.1205l-0.37421 0.99788c-2.7442-0.37421-5.2388-2.4947-6.9851-6.4862-1.7463-4.1162-5.613-10.228-8.8561-13.347-1.3721 1.6215-3.4925 3.742-5.3636 4.6152 2.3699 2.8689 4.4904 6.112 6.2367 10.353 1.9957 4.4904 6.6109 9.355 10.602 9.4798 5.2388 0.24957 9.355-3.6173 11.351-7.7335z" fill="#fff"/>
  <path d="m31.272 102.94c-0.12463-3.6173-0.99785-5.9872-2.2452-8.1077-0.87313-1.4968-0.3742-2.2452 0.74841-1.871 1.1226 0.24957 2.4947 1.1226 3.4926 1.9957 0.24956-1.6215 0.37419-5.3636 1.2473-5.3636 0.99788 0 2.3699 2.4947 2.4947 5.9872-1.7463 1.9957-3.4926 3.8668-5.7378 7.3593z" fill="#7dccf3"/>
  <path d="m31.147 101.57c0.87316-1.6215 2.1205-2.9936 3.3678-3.1184-1.1226 1.4968-2.2452 2.9937-3.1183 4.241z" fill="#5084c4"/>
  <path d="m65.574 121.15c-0.12464 1.3721-0.74841 2.3699-2.9936 2.4947-3.1183 0.12463-4.4904-2.7442-4.6151-5.1141-0.24957-2.4947-1.1226-5.4883-2.4947-8.2324 2.1205 0.24957 4.2409 2.1205 5.2388 3.2431 0.12463-1.7463 0.62368-3.4926 1.1226-4.4904 0.99789 0.7484 2.3699 2.4946 3.1184 3.6172 0.49895-0.99785 0.99787-1.7462 1.871-3.3678-0.3742 1.6216-0.3742 4.1162-0.12464 5.2388 2.4947 0 3.8668 1.3721 3.8668 2.7442-0.12464 0.87313-1.372 1.1226-2.4947 0.99785 0.87313 1.7463-0.3742 3.2431-2.4947 2.8689z" fill="#f09cb4"/>
  <path d="m51.604 62.279c0.24956 0.3742 0.62367 0.7484 0.87313 0.62365 0.37419-0.12464 0.49895-0.49892 0.49895-0.87313-0.49895 0.12464-0.87316 0.24957-1.3721 0.24957z" fill="#fff"/>
  <path d="m57.466 60.532c0.24957 0.3742 0.62365 0.62365 0.87313 0.62365 0.24956 0 0.49893-0.49893 0.62368-0.87313l-0.12464-0.3742c-0.3742 0.24957-0.87312 0.49892-1.3721 0.62368z" fill="#fff"/>
  <path d="m25.908 33.34c3.1183 4.241 10.977 10.852 18.461 12.723-2.7442-4.4904-10.727-12.473-16.964-14.843z" fill="#5084c4"/>
  <path d="m66.447 39.203c1.7463-6.8604 4.8646-14.968 10.727-19.458 1.2473-0.87313 2.4947-0.3742 2.2452 0.99788-0.7484 4.3657-4.6151 11.974-8.3572 16.34-1.6216 0.74841-3.1184 1.3721-4.6152 2.1205z" fill="#5084c4"/>
  <path d="m51.105 73.131c-20.456 2.3699-39.166 14.344-38.668 30.685 0.24957 7.7335 8.6066 15.716 17.712 9.9787-0.49893-1.3721-0.87314-2.6194-0.87314-3.8668h-1.2473c-1.6216 1.871-5.4883 2.37-7.983 1.3721-4.3657-11.85 12.473-31.183 32.68-32.93-0.74841-1.7463-1.1226-3.2431-1.6216-5.2388z" fill="#fff"/>
  <path d="m70.563 109.93c-0.7484 1.4968-1.7463 3.3678-2.6194 4.7399 0.62365 0.12464 1.1226 0.24956 1.6215 0.62365 3.3678 0.99788 8.3572 0.62368 12.473-3.1183 10.727-9.6045 6.4862-23.076-0.99785-28.19-3.742-2.4947-7.8582-5.9872-9.9787-9.1056-0.3742 1.7463-1.2473 3.6173-2.3699 5.1141 2.6194 3.6173 5.2388 6.4862 9.1056 9.6045 3.742 2.9936 6.6109 6.4862 7.484 8.9808-2.9936 11.476-8.6066 13.845-14.719 11.351z" fill="#fff"/>
  <g fill="#d0879d">
   <path d="m57.965 118.53c0.3742 3.1184 1.871 5.4883 5.2388 4.9894 1.4968-0.12463 2.7441-1.3721 2.2452-3.2431-0.87312 2.7441-5.3636 2.8689-6.3614-1.3721-0.7484-3.6173-1.9957-7.2346-3.742-9.355 1.2473 2.8689 2.1205 5.3636 2.6194 8.9808z"/>
   <path d="m65.324 119.41c0.87313 0.49895 2.6194 0.12463 2.7441-1.2473 0.7484 1.4968-0.24957 3.3678-2.4947 2.9936 0-0.3742 0-1.2473-0.24957-1.7463z"/>
   <path d="m67.32 116.79c1.3721 0.62365 2.7441 0.12463 2.9936-0.74841 0.62368 1.1226 0.12464 2.6194-2.1205 2.2452-0.24957-0.62369-0.3742-0.99789-0.87313-1.4968z"/>
   <path d="m35.513 50.18c0.62365 0.7484 4.2409 1.372 6.6109 0.99786-0.62365 0.37419-0.99785 0.49895-1.372 0.7484-1.7463 0.24956-5.4883-0.37421-5.2388-1.7463z"/>
   <path d="m42.373 52.3c-0.62367 1.4968-2.7441 2.7441-3.3678 2.4947 0.24957 0.99789 1.9958 0.62365 3.6173-1.4968z"/>
  </g>
  <g fill="#e6d4e7">
   <path d="m12.811 98.327c0.12464 4.8646 2.9936 9.2303 6.6109 9.4798 0 1.2473 0.24957 2.7441 0.62368 3.4925 3.4925 0.99787 6.4862 0.24956 7.6088-1.2473h1.6215c0.12465 1.3721 0.24957 2.6194 0.74841 3.8667-8.4819 5.3636-19.833-1.4968-17.213-15.592z"/>
   <path d="m30.025 105.44c-0.3742 12.099 19.583 12.598 20.082 2.2452 2.4947 7.2346-0.99788 12.224-8.8561 13.222-10.353 1.1226-13.721-9.9787-11.226-15.467z"/>
   <path d="m50.356 108.31c1.1226 0.62368 3.2431 0.62368 4.6151 0.49893 1.1226 2.4947 2.4947 5.613 2.7441 8.2324-2.7441-0.62365-5.1141-0.87312-8.4819 0 1.7462-1.871 2.2452-5.3636 1.1226-8.7314z"/>
   <path d="m66.696 109.93c1.4968 0.12463 3.742-1.1226 4.4904-2.6194-0.49892 2.3699-1.7463 4.8646-3.2431 7.3593h-1.372c0-1.1226 0-3.1184 0.12463-4.7399z"/>
   <path d="m86.779 90.718c0.62368 3.4925-0.3742 5.8625-1.871 6.7356l0.3742 0.87313c-2.2452 12.473-10.852 13.97-14.843 11.725-0.87313 1.871-1.4968 2.9936-2.4947 4.6151 0.62365 0.12463 1.2473 0.3742 1.6215 0.74841 3.742 1.1226 8.3572 0.24956 11.6-2.4947 7.3593-6.2367 9.355-14.843 5.613-22.203z"/>
   <path d="m15.431 36.334c0.87316 3.8668 5.1141 5.3636 7.6088 4.8646 0 1.3721 0.12463 2.2452 0.37419 3.1184 1.2473 0.49892 3.2431 0.7484 5.1141 0.7484 2.6194 1.372 6.6109 2.8689 10.103 3.8667-1.6215 0.12464-3.1183 0.49893-3.1183 1.4968-2.7441 1.2473-5.9872 1.4968-7.983 1.2473-7.2346-1.1226-12.349-9.854-12.099-15.342z"/>
   <path d="m45.367 38.829c1.7463-0.87313 4.7399-1.871 7.6088-1.871 0.24956 1.1226 0.12464 2.9936 0.99786 4.4904-1.7463 0.3742-3.742 1.2474-5.2388 2.2452-0.87313-1.2473-2.2452-3.1183-3.3678-4.8646z"/>
   <path d="m79.419 45.065c3.8668 3.742 7.1098 9.355 8.8561 13.097 3.3678 7.6088 8.9808 8.7314 13.97 3.6173-2.2452 4.6152-7.2346 7.8582-10.852 7.6088-3.6173-0.12463-7.7335-2.3699-11.476-10.228-1.2474-2.7442-3.6173-6.9851-5.9872-9.6045 2.1205-1.1226 3.742-2.4947 5.4883-4.4904z"/>
  </g>
  <g fill="#d0879d">
   <path d="m89.772 16.127c-0.24956 3.6173-4.2409 12.848-10.228 18.461 0.49893 0 1.1226-0.12463 1.7463-0.12463 6.3614-6.9851 10.103-17.338 8.4819-18.336z"/>
   <path d="m15.68 33.34c-0.49892-0.87315-0.7484-1.871-0.87312-2.7441 0.3742 0.62365 0.74837 1.1226 1.1226 1.6215z"/>
   <path d="m23.164 39.577c5.9872 4.6152 12.972 7.2346 19.708 9.7292 0.74841 0.24957 0.74841 0.87316 0.24957 1.1226-0.62365-0.62365-2.7441-1.4968-4.6151-1.372-6.112-1.7463-11.351-4.6152-15.467-7.6088z"/>
  </g>
  <path d="m26.906 32.093c5.613 3.2431 12.473 8.7314 17.463 14.095-2.2452-4.1162-10.103-12.099-16.839-15.093z" fill="#4574ab"/>
  <path d="m79.17 21.865c0-1.7463-0.87313-1.871-1.9957-0.7484-3.742 3.742-7.8582 11.101-9.7292 17.712l-0.99788 0.49895c1.4968-6.9851 5.2388-14.968 10.103-19.084 1.871-1.6216 3.4926-1.3721 2.6194 1.6215z" fill="#4574ab"/>
  <path d="m59.462 97.204c0.62366 2.6194 1.7463 2.3699 2.3699 0.12464-0.37419 2.6194-0.7484 5.7377-0.87312 8.1077-0.62368-3.2431-1.2474-6.112-1.4968-8.2324z" fill="#e6d4e7"/>
  <g fill="#0f141b">
   <path d="m53.1 58.163c0-0.37421-1.2473 0-1.1226 0.37417 0.12463 0.37422 1.2473 0 1.1226-0.37417z"/>
   <path d="m45.117 60.034c0.7484 0.87313 1.871 1.1226 2.7441 0.99785 0.99788-0.24956 1.871-1.372 1.9957-2.7441-0.12464-3.4925-2.1205-5.9872-3.2431-5.7378-0.99788 0.12465-2.2452 2.2452-1.4968 7.484zm-0.37421 0.24956v-0.12463c-0.99788-5.1141 0.37421-7.983 1.7463-8.3572 1.3721-0.24957 3.742 2.6194 3.8668 6.4862-0.12463 1.871-1.2474 3.1183-2.37 3.3678-0.99785 0.12463-2.3699-0.12464-3.2431-1.3721z"/>
   <path d="m58.464 55.917c1.6216 1.1226 3.4926 1.2473 4.8646 0.99785 0.99789-0.24956 2.7442-1.2473 3.2431-2.8689-0.87313-3.8668-3.3678-6.3614-5.3636-6.112-2.2452 0.37421-3.2431 4.7399-2.7442 7.983zm-0.3742 0.24957v-0.12464c-0.99786-3.9915 0.62368-8.3572 2.9936-8.7314 2.1205-0.3742 5.2388 2.2452 5.9872 6.6109v0.12464c-0.49892 2.1204-2.2452 3.1183-3.6173 3.3678-1.4968 0.24956-3.4926 0.24956-5.3636-1.2474z"/>
   <path d="m52.352 62.902c1.7463 3.4925 4.6151 6.2367 5.7378 5.9872 1.2474-0.49893 1.9958-3.3678 0.62368-8.6066-2.4947 1.3721-5.7378 2.1205-8.2324 2.3699-0.7484 0-0.87313-0.3742 0-0.3742 2.4947-0.3742 6.112-1.372 8.1077-2.4947 0.24957-0.24956 0.37421-0.12463 0.49893 0.12464 1.7463 5.7378 0.7484 8.8561-0.87312 9.355-1.6216 0.49893-4.7399-2.6194-6.6109-6.8604z"/>
   <path d="m54.473 66.52c0.12464-2.3699 1.7462-4.7399 4.7399-4.9894l0.12464 0.49892c-2.7442 0.12464-4.4904 2.4947-4.4904 4.9894z"/>
   <path d="m53.225 61.905c-0.12464 0.49892-0.24957 1.1226-0.62368 1.2473-0.24957 0.12464-0.87313-0.24957-1.2473-0.74841l0.49893-0.24957c0.24956 0.49896 0.49895 0.62369 0.62368 0.62369 0.12463-0.12464 0.24956-0.37421 0.24956-0.7484z"/>
   <path d="m59.088 60.657c-0.12463 0.3742-0.3742 0.7484-0.62368 0.7484-0.3742 0.12464-0.87312-0.24956-1.2473-0.7484l0.49893-0.12463c0.24956 0.3742 0.49896 0.49895 0.62368 0.49895 0.12463-0.12463 0.3742-0.3742 0.3742-1.1226z"/>
   <path d="m66.322 41.573c2.1205 3.9915 3.8668 6.3614 4.8646 7.484 0.74841 0.7484 1.1226 0.87315 2.2452 0.3742 4.3657-1.9957 9.355-8.4819 9.7292-12.972 0.12464-1.2474-0.24956-1.6216-1.871-1.6216-2.7441 0-7.7335 1.1226-14.469 4.6152-0.49895 0.24956-0.62368 0.12463-0.7484-0.24957-0.87316-4.1162-3.9915-11.476-5.9872-14.719-0.7484-1.3721-1.4968-1.3721-2.8689-0.12464-3.742 3.3678-5.613 12.848-1.9957 18.71 0.7484 1.2474 1.4968 1.4968 3.3678 0.87316 2.9936-0.74841 4.6152-1.3721 7.2346-2.4947 0.24956-0.12464 0.37419-0.12464 0.49892 0.12463zm4.3657 8.1077c-1.1226-1.2473-2.6194-3.742-4.7399-7.7335-2.7441 1.2474-4.2409 1.7463-7.1098 2.7442-2.1205 0.7484-3.2431 0.49893-4.241-1.2474-3.742-5.8625-1.7463-16.091 2.1205-19.583 1.871-1.6215 3.1183-1.3721 3.9915 0.24957 1.9958 3.4925 4.9894 10.602 5.9872 14.843 6.7356-3.6173 11.476-4.7399 14.594-4.7399 2.1205 0 2.7442 0.62365 2.4947 2.2452-0.24957 4.6152-5.2388 11.476-10.103 13.596-1.2473 0.62369-1.9957 0.62369-2.9936-0.37419z"/>
   <path d="m33.143 25.732c5.2388 3.9915 9.9787 9.4798 15.592 17.587 1.7463-1.1226 3.1184-1.7463 4.9894-2.1205l0.37421 0.7484c-1.871 0.37421-3.2431 0.74841-4.9894 1.871-0.3742 0.24957-0.49893 0.24957-0.87313-0.24956-5.7378-8.1077-10.727-13.347-15.841-17.338z"/>
   <path d="m16.054 31.095c-4.4904-5.1141-5.8625-11.475-4.7399-12.972 1.1226-1.6216 6.112-0.49896 10.977 1.3721l-0.62368 0.62368c-4.3657-1.7463-8.8561-2.7441-9.7292-1.6215-0.87313 0.99785 0.3742 6.9851 4.2409 11.974z"/>
   <path d="m15.68 33.715c-2.1205-3.3678-1.2474-3.9915 0.24957-3.2431l0.3742 0.74841c-1.372-0.74841-1.871-0.74841-0.49893 1.6216z"/>
   <path d="m23.04 41.074c4.241 3.3678 9.6045 5.8625 17.089 8.1077h-1.9957c-6.2367-1.871-11.101-4.1162-15.093-7.2346z"/>
   <path d="m40.378 52.3c-2.6194 0.12463-5.2388-0.74841-5.2388-1.9958 0.12464-1.7463 4.8646-2.1205 7.7335-0.37421 0.49893 0.37421 0.3742 0.62368-0.24956 0.37421-2.7441-1.6215-6.8604-0.87313-6.8604 0.12463 0 0.3742 1.9957 1.6215 5.4883 1.2473z"/>
   <path d="m42.747 53.547c-1.1226 1.871-3.2431 2.6194-3.9915 1.6215-0.87313-0.99785 0.7484-3.2431 3.1184-3.9915 0.62365-0.12464 0.7484 0.12464 0.12464 0.3742-1.871 0.7484-3.2431 2.6194-2.7441 3.2431 0.3742 0.62369 2.2452-0.12463 3.3678-1.7462z"/>
   <path d="m26.158 33.216c3.4925 4.3657 10.353 10.103 17.712 12.598-3.8667-5.613-10.353-11.351-16.465-14.344l0.24957-0.49893c6.4862 2.9936 13.097 8.9808 16.839 14.843 0.37419 0.49892 0.24956 0.74839-0.37421 0.49892-7.7335-2.3699-14.843-7.8582-18.336-12.598z"/>
   <path d="m27.904 44.691c-1.6216 0-3.1184-0.24957-4.6152-0.7484l0.24957 0.99785c1.6215 0.3742 3.6173 0.62368 5.8625 0.49895z"/>
   <path d="m45.492 39.203c2.7441-1.2473 5.3636-1.871 7.3593-1.871l-0.12463-0.62368c-2.4947 0-4.9894 0.62368-7.7335 1.871z"/>
   <path d="m26.033 49.182c-2.6194-2.2452-3.742-5.4883-3.3678-8.7314 0.49895-5.3636 4.9894-11.351 12.224-16.59 2.3699-1.7463 4.241-2.8689 6.8604-4.8646 0.99788-0.87316 0.7484-1.3721-0.24957-1.6216-2.37-0.3742-4.7399-0.24956-7.8582 0.3742-0.7484 0.12464-0.87316-0.12464-0.12464-0.3742 2.9936-0.99785 5.7378-1.1226 8.1077-0.62365 1.6215 0.24956 1.9957 1.4968 0.49892 2.7441-2.4947 1.9957-4.3657 3.1183-6.8604 4.9893-6.9851 5.1141-11.226 10.852-11.85 16.091-0.24957 3.1184 0.62368 5.613 2.8689 8.3572 0.49892 0.49893 0.24956 0.74841-0.24957 0.24957z"/>
   <path d="m35.513 50.679c-2.37 0.99785-4.1162 1.4968-6.9851 1.4968-6.3614 0-13.596-8.1077-13.596-15.592 0.12464-10.353 7.8582-22.826 22.078-26.194 2.1205-0.49893 2.6194 0.3742 1.6215 2.1205-0.7484 1.3721-2.1205 3.1183-3.742 4.7399l-0.99787 0.24957c1.6216-1.9957 3.3678-3.9915 4.1162-5.3635 0.62367-1.1226 0.37419-1.3721-0.87314-0.99788-13.97 3.3678-21.205 15.218-21.329 25.446 0 7.2346 7.2346 14.719 12.723 14.719 2.8689 0 4.6152-0.37421 6.9851-1.3721z"/>
   <path d="m63.952 30.971c3.2431-13.596 13.721-23.949 22.826-28.439 3.6173-1.7463 5.613-0.87313 5.3635 2.9936-0.49892 7.1098-2.4947 13.097-6.2367 18.086-0.62368 0.7484-0.87315 0.62368-0.3742-0.24956 3.4925-5.3636 5.2388-10.852 5.7378-17.837 0.24957-3.1183-0.87313-3.8667-4.1162-2.3699-9.2303 4.4904-19.708 15.218-22.826 29.063z"/>
   <path d="m89.523 16.002c0.49893-0.3742 1.2473-0.12464 0.87313 2.1205-0.99785 5.4883-4.6151 12.099-8.7314 16.34h-0.99788c4.241-4.1162 8.1077-10.977 9.1056-16.465 0.24957-1.6215-0.12464-1.7463-0.49896-1.2473z"/>
   <path d="m66.322 38.953c1.4968-7.6088 5.1141-14.843 10.228-19.084 1.9957-1.6215 3.6173-1.1226 2.9936 1.871-0.87315 4.2409-3.8668 9.854-7.8582 15.218l-0.99787 0.3742c4.1162-5.613 7.2346-11.476 8.3572-15.841 0.49896-2.1205-0.37419-2.4947-2.1204-1.1226-4.6152 3.9915-8.6066 11.476-10.103 18.835z"/>
   <path d="m50.98 71.634c-3.9915-0.99788-6.2367-2.8689-6.9851-5.3636-0.24957-1.1226-0.3742-2.4947-0.49892-3.9915-0.12464-3.4926-0.49893-6.4862-1.1226-9.355-0.24956-0.99788 0.12464-0.99788 0.37421-0.12464 0.87313 2.8689 1.2473 5.8625 1.4968 9.355 0.12463 1.7463 0.24957 2.9936 0.49892 3.8668 0.62368 2.2452 2.8689 3.9915 6.2367 4.9894z"/>
   <path d="m72.808 50.055c1.6216 4.7399 1.9958 9.7292 1.1226 12.848-0.7484 2.4946-1.4968 3.9915-3.1183 5.2388l-0.3742-0.62369c1.4968-1.3721 1.9957-2.4947 2.7441-4.8646 0.87315-3.1183 0.49895-7.8582-0.99786-12.473z"/>
   <path d="m42.747 54.046c0.49893-3.742 2.3699-5.4883 4.1162-5.7378 1.871-0.24956 4.3657 1.4968 5.3636 6.2367 0.49896-4.4904 2.37-9.1056 7.6088-10.228 4.241-0.87316 10.353 2.7441 13.97 10.852v1.871c-3.4925-8.9808-9.6045-12.848-13.845-11.974-4.6151 0.99785-6.6109 4.9894-7.484 10.353-0.12464 0.62368-0.37421 0.62368-0.49893 0-1.1226-4.9894-3.2431-6.6109-5.1141-6.3614-2.6194 0.37419-3.6173 3.8668-3.6173 6.8604z"/>
   <path d="m79.544 44.691c4.3657 4.7399 6.8604 8.8561 9.2303 13.721 2.9936 6.3614 7.3593 7.1098 10.852 5.1141 0.62368-0.3742 0.87316 0 0.24957 0.3742-3.742 2.6194-8.9808 1.1226-11.85-5.1141-2.2452-4.8646-4.6152-8.9808-8.8561-13.471z"/>
   <path d="m74.305 49.431c2.7441 3.3678 4.1162 5.4883 5.9872 9.4798 3.2431 6.8604 7.484 10.478 12.099 10.103 5.3636-0.3742 10.353-6.2367 11.6-13.347 0.87313-5.1141 0.12464-7.2346-0.37419-7.3593-0.62368 0-1.871 1.7463-2.6194 5.1141-0.24957 0.87313-0.62369 0.7484-0.49893 0 0.7484-3.9915 2.2452-5.9872 3.2431-5.8625 1.1226 0.12463 1.871 2.9936 0.87316 8.2324-1.2474 7.484-6.6109 13.596-12.099 13.97-4.3657 0.37419-9.4798-2.8689-12.972-10.602-1.871-3.8667-2.9936-5.9872-5.7378-9.355z"/>
   <path d="m94.762 64.649c1.2473-2.7441 1.871-4.9894 2.2452-8.6066 0.37421-2.7441 0.24957-7.2346 1.7463-7.3593 0.74841 0 1.7463 1.7463 2.3699 3.6173l-0.37419 0.87316c-0.62368-2.2452-1.6215-3.742-1.9957-3.742-0.87315 0-0.7484 4.3657-0.99788 6.6109-0.49893 4.1162-0.99788 6.2367-2.1205 8.7314z"/>
   <path d="m49.733 78.744c-0.99788 1.1226-1.7463 2.4947-2.3699 4.1162-0.7484 2.1205-1.871 4.8646-4.9894 7.8582-6.2367 6.112-12.723 12.848-12.723 18.336 0 5.613 3.742 12.099 11.226 11.351 4.8646-0.49892 9.6045-2.9936 9.6045-7.983 0.12463-4.1162-1.7463-7.8582-5.613-11.974-0.62368-0.62368-0.37421-0.87316 0.24956-0.24957 4.241 3.742 6.2367 7.983 6.2367 12.224-0.12464 4.7399-4.1162 8.2324-10.353 8.7314-6.9851 0.62369-12.099-4.4904-12.099-12.099-0.12463-5.613 6.7356-12.723 12.972-18.835 2.9936-2.9936 4.1162-5.4883 4.8646-7.6088 0.37421-1.1226 0.99788-2.3699 1.9957-3.742z"/>
   <path d="m57.84 117.41c-3.2431-0.74841-5.7378-0.74841-8.8561 0l0.37419-0.74841c2.9936-0.62367 5.3636-0.62367 8.3572 0z"/>
   <path d="m57.591 118.28c-0.49894-4.2409-2.2452-7.6088-4.4904-12.349-1.9957-3.8667-2.9936-6.9851-3.8667-11.974-0.12465-0.7484 0.24956-0.87312 0.37419 0 1.2473 5.3636 2.1205 7.7335 4.1162 11.725 2.6194 5.2388 3.8668 7.983 4.4904 12.598 0.37419 2.4947 1.2473 5.3636 4.6151 5.1141 2.7441-0.24956 3.1183-2.8689 1.2473-5.3635-0.62365-0.99789-0.99785-1.9958-1.3721-3.4926-3.1184-12.972-4.241-19.957-5.2388-28.938-0.12464-1.1226 0.24957-1.1226 0.3742 0 1.2473 8.3572 2.4947 16.59 5.3636 28.814 0.3742 1.4968 0.7484 2.3699 1.3721 3.2431 2.3699 3.2431 1.4968 5.9872-1.7463 6.2367-2.6194 0.24956-4.6151-0.87313-5.2388-5.613z"/>
   <path d="m61.832 109.55c-0.49892 1.2473-0.62365 1.9957-0.7484 3.8667-0.12463 0.49896-0.3742 0.62368-0.62365 0.24956-1.2474-1.4968-2.7442-2.3699-4.8646-3.1183l-0.24956-0.7484c2.4947 0.87313 3.9915 1.7462 5.2388 3.2431 0.12464-1.7463 0.3742-2.9936 0.99788-4.4904z"/>
   <path d="m66.696 109.93c-0.49893 1.1226-0.87312 1.7463-1.4968 2.7441-0.24957 0.3742-0.3742 0.49895-0.62368 0.12463-0.99785-1.6216-1.6215-2.2452-2.7441-3.4926l-0.12463-0.87312c1.3721 1.2473 2.1204 2.2452 3.2431 3.742 0.62367-1.1226 1.2474-2.2452 1.871-3.8667z"/>
   <path d="m61.832 123.65c-0.87312-0.87315-1.1226-2.1205-1.1226-3.6173 0-0.74841 0.3742-0.74841 0.49895-0.12464 0.12464 1.7463 0.37421 2.8689 1.4968 3.742z"/>
   <path d="m63.828 123.52c0.3742-0.99785 0.12463-2.6194-0.49896-3.9915-0.24956-0.62368 0.12464-0.7484 0.37421-0.12463 0.62368 1.1226 0.99787 2.6194 0.7484 3.742z"/>
   <path d="m68.692 79.866c2.6194 5.613 1.9958 11.725-0.12463 22.078-1.3721 6.4861-1.871 8.4819-1.7463 12.349 0.12464 1.1226 0.24957 1.871 0.87316 2.6194 2.2452 2.8689 0.12464 4.9894-2.1205 4.6151v-0.62367c1.9957 0.49895 3.4925-1.3721 1.6215-3.742-0.49894-0.7484-0.74841-1.6215-0.87313-2.8688-0.24957-2.9936 0.37419-6.7356 1.4968-12.473 1.9957-10.228 2.7441-15.716 0.49892-21.454z"/>
   <path d="m65.324 119.78c0-0.49893-0.12463-1.1226-0.24956-1.6215-0.24956-0.62368 0.12464-0.7484 0.3742-0.12464 0.3742 0.74841 0.49893 2.1205 0.24957 3.1184z"/>
   <path d="m66.696 121.15c0.7484-1.1226 0.49892-2.3699-0.12463-3.3678-0.24957-0.49893 0-0.74841 0.37419-0.24957 0.74841 0.87316 1.1226 2.2452 0.49893 3.3678z"/>
   <path d="m68.068 117.91c1.1226 0.24957 2.1205 0 2.1205-0.62368 0.12463-1.1226-0.99788-2.4947-3.6173-2.3699v-0.62369c2.7441-0.24956 4.4904 1.4968 4.2409 3.1184-0.12463 0.87314-1.1226 1.3721-2.6194 1.1226z"/>
   <path d="m68.193 118.28c0.24956-0.7484 0.24956-1.4968-0.12464-2.1204-0.24956-0.62369 0-0.7484 0.3742-0.24957 0.49893 0.74841 0.49893 1.7463 0.24957 2.3699z"/>
   <path d="m69.316 118.28c0.3742-0.62365 0.24956-1.372 0-1.871-0.24957-0.62365 0.12464-0.7484 0.3742-0.24956 0.24957 0.49892 0.3742 1.2473 0.24957 1.871z"/>
   <path d="m68.443 100.45c2.1205 2.6194 3.2431 4.7399 2.9936 7.1098-0.12464 1.871-1.2473 3.9915-3.2431 7.1098l-0.62366-0.12464c1.871-3.2431 3.1184-5.613 3.1184-7.1098 0.12463-1.9957-0.74841-3.9915-2.4947-5.9872z"/>
   <path d="m60.709 104.31c0.12463-2.3699 0.24957-4.1162 0.62368-6.2367 0.24957-0.99788 0.49892-1.7463 1.1226-2.7442 1.2473-1.871 2.2452-3.8668 2.8689-7.484 0.12464-0.7484 0.49894-0.7484 0.49894 0.12464-0.49894 3.742-1.4968 5.7378-2.8689 7.7335-0.49893 0.87316-0.74841 1.4968-0.87314 2.4947-0.37419 2.2452-0.7484 4.6151-0.7484 8.9808z"/>
   <path d="m30.274 114.29c-6.7356 3.9915-14.22 0.99786-16.964-5.4883-6.1119-14.594 10.228-32.93 37.794-36.048l0.12463 0.7484c-25.82 2.8689-43.158 20.207-37.046 34.925 2.2452 5.613 8.9808 9.355 15.841 5.1141z"/>
   <path d="m52.976 78.744c-19.334 1.6215-32.181 17.213-33.179 27.317-0.49895 5.3636 1.6215 8.6066 5.3636 8.3572 0.62368-0.12463 0.7484 0.24956 0 0.3742-3.6173 0.74841-6.7356-2.6194-6.112-8.8561 0.99785-10.727 14.469-26.319 33.678-27.94z"/>
   <path d="m28.528 110.05c-1.7462 2.2452-5.8625 2.6194-8.3572 1.6216l-0.24957-0.87315c2.6194 0.87315 5.8625 0.87315 7.6088-0.87313z"/>
   <path d="m36.636 96.082c0-2.37-0.49892-4.4904-1.4968-5.7378-0.3742-0.62365-0.7484-0.62365-0.87313 0.12463-0.3742 1.7463-0.3742 2.7441-0.7484 4.8646-0.12463 0.87312-0.3742 0.7484-0.3742 0 0.12464-2.1205 0-3.3678 0.49892-4.9894 0.37421-1.4968 1.2473-1.6215 1.9957-0.49893 0.99788 1.2473 1.6216 3.3678 1.7463 5.4883z"/>
   <path d="m31.023 103.44c-0.12463-3.3678-0.87313-5.8625-2.3699-8.7314-0.99788-1.6215-0.12464-2.4947 1.2473-2.1205 0.99788 0.24957 2.3699 0.99788 3.4925 2.1205l-0.12463 0.7484c-1.2473-1.2473-2.3699-1.9957-3.4925-2.2452-0.99788-0.24957-1.2474 0.12463-0.62368 1.2473 1.6215 2.8689 2.2452 4.9894 2.4947 8.1077z"/>
   <path d="m68.817 79.492c2.9936 4.4904 6.7356 7.7335 9.9787 10.353 7.3593 6.2367 8.9808 11.725 5.9872 17.962-0.37421 0.74841-0.62365 0.74841-0.37421-0.12463 2.4947-6.6109 0.99788-11.226-6.2367-17.089-3.2431-2.7441-6.9851-6.112-9.7292-10.478z"/>
   <path d="m85.531 99.2c-2.4947 10.977-9.7292 13.845-15.342 11.101l0.24956-0.49895c5.4883 2.37 12.099-0.24957 14.594-12.099z"/>
   <path d="m68.567 114.67c2.4947 0.87315 4.3657 0.87315 6.6109 0.62368 5.2388-0.87313 10.977-5.9872 12.598-13.97 1.3721-6.3614-1.372-12.848-7.1098-16.964-3.9915-2.8689-7.3593-5.4883-9.7292-9.1056l0.12464-0.7484c2.6194 3.742 5.9872 6.2367 10.103 9.1056 5.8625 4.241 8.7314 10.852 7.484 17.837-1.2474 7.1098-7.2346 13.471-13.347 14.594-1.7463 0.24956-3.9915 0-5.3636-0.37421z"/>
   <path d="m12.811 105.81c-2.3699-1.7463-4.1162-3.742-4.9893-5.9872-0.3742-1.1226-0.24957-2.1205 0.49893-1.6215l0.49895 0.7484c-0.74841-0.49896-0.87316-0.24956-0.3742 0.7484 0.7484 1.871 2.2452 3.6173 4.2409 5.1141z"/>
   <path d="m19.422 108.31c3.1183 1.1226 6.6109 1.6215 9.854 1.2473v0.62368c-3.2431 0.3742-6.6109-0.12463-9.854-1.1226z"/>
  </g>
  <path d="m44.868 120.16c-0.12464-1.2473-1.9958-2.3699-3.8668-2.2452-2.1204 0.12464-3.6173 1.871-3.4925 2.8689 0 0.87313 1.871 1.871 3.8668 1.6215 1.9958-0.12464 3.742-1.3721 3.4926-2.2452z" fill="#f09cb4"/>
  <path d="m37.633 120.03c0.37421 1.6215 6.6109 1.4968 7.1098-0.49893 0.62368 1.2473-0.62365 2.7441-3.3678 2.8689-2.6194 0.24957-4.3657-1.1226-3.742-2.3699z" fill="#d0879d"/>
  <g fill="#0f141b">
   <path d="m41.126 118.16c-2.1205 0.12464-3.3678 1.6215-3.3678 2.6194 0 0.7484 1.7463 1.4968 3.6173 1.372 1.9957-0.24956 3.3678-1.372 3.2431-1.9957-0.24957-1.2473-1.871-2.1205-3.4925-1.9957zm-3.9915 2.6194c-0.12463-1.1226 1.3721-2.9936 3.8668-3.2431 2.1204-0.12464 3.9915 1.1226 4.2409 2.4947 0.24957 1.3721-1.6215 2.4947-3.8667 2.7441-2.6194 0.24957-4.241-0.87312-4.241-1.9957z"/>
   <path d="m40.003 122.53c-0.62367-0.87315-0.62367-1.871-0.49892-2.9936 0.12463-0.62368 0.49892-0.49896 0.49892 0.12464-0.12463 0.7484 0 1.7463 0.74841 2.8689z"/>
   <path d="m42.498 122.28c0.12464-1.1226 0-1.871-0.3742-2.7441-0.24957-0.62368 0-0.7484 0.3742-0.24956 0.49893 0.87312 0.62365 1.871 0.62365 2.7441z"/>
  </g>
  <path d="m64.95 69.763c-1.2474 0.87312-3.4926 1.1226-4.3657 1.2473l2.2452 2.2452z" fill="#e6d4e7"/>
  <path d="m60.335 80.864c1.4968 0.24956 2.9936 0.12464 3.9915-0.87312l-1.3721-2.3699s-1.1226 2.1205-2.6194 3.2431z" fill="#e6d4e7"/>
  <path d="m62.83 73.255c-2.1205-2.7441-5.8625-5.1141-8.8561-6.3614-1.3721-0.62368-2.2452-0.37421-2.6194 1.1226-1.2473 5.3636 1.1226 11.101 4.241 13.97 0.87313 0.87316 1.6215 0.87316 2.8689 0.12463 2.1205-1.1226 3.4926-2.8689 4.4904-4.4904 0.99787 1.7463 1.4968 2.8689 2.4947 3.742 0.62368 0.62365 1.1226 0.49893 1.871-0.24957 4.4904-3.8667 5.1141-11.476 2.3699-14.843-0.49892-0.7484-1.2473-0.62365-1.7462-0.12464-1.4968 1.4968-3.2431 3.742-5.1141 7.1098z" fill="#fff"/>
  <path d="m63.578 78.868c1.3721 2.1205 3.6173-1.1226 4.241-4.6152 0.62368-3.3678 0.12463-6.9851-1.7463-6.112-0.99785 1.6216-2.3699 3.6173-3.1183 5.1141-1.6215-1.871-2.9936-2.8689-3.9915-3.742-1.871-1.1226-3.3678-0.87313-1.871 5.4883 0.7484 3.3678 2.8689 5.2388 4.3657 4.7399 0.7484-1.1226 1.2473-1.6215 1.4968-2.1205 0.37419 0.49893 0.49892 0.87313 0.62367 1.2473z" fill="#f09cb4"/>
  <path d="m63.329 77.496c0.87313 1.7463 1.4968 2.7442 2.2452 3.6173 0.37419 0.3742 0.7484 0.49892 1.6215-0.3742 4.3657-3.8667 4.9894-10.977 2.2452-14.344-0.49892-0.49896-0.7484-0.62368-1.372 0-1.4968 1.4968-3.1184 3.742-4.9894 6.8604-0.12463 0.3742-0.37419 0.3742-0.62364 0.12463-1.9958-2.7441-5.613-4.9894-8.6066-6.2367-1.6216-0.62368-1.871-0.49895-2.2452 0.99786-1.2474 5.3636 1.2473 10.977 4.2409 13.596 0.74841 0.7484 1.3721 0.7484 2.4947 0.12464 1.7463-1.1226 3.1183-2.3699 4.3657-4.3657 0.24956-0.24957 0.37419-0.3742 0.62367 0zm-0.37419 0.62369c-1.1226 1.7463-2.4947 3.3678-4.3657 4.3657-1.4968 0.87313-2.2452 0.62365-3.2431-0.24957-3.1184-2.6194-5.7378-8.6066-4.3657-14.22 0.49892-2.1205 1.2473-2.2452 2.9936-1.4968 2.7441 1.1226 6.6109 3.3678 8.8561 6.3614 1.7462-3.2431 3.3678-5.3635 4.8646-6.9851 0.87313-0.74841 1.4968-0.74841 2.2452 0.12463 2.9936 3.6173 2.3699 11.6-2.2452 15.342-1.1226 0.99786-1.871 1.1226-2.6194 0.37421-0.7484-0.99789-1.2474-1.871-2.1205-3.6173z" fill="#0f141b"/>
  <path d="m46.864 52.799c-0.49892 0.12464-0.62368 1.2474-0.3742 2.4947 0.24956 1.3721 0.99788 2.3699 1.4968 2.1205 0.62368-0.12464 0.74841-1.2474 0.49893-2.6194-0.3742-1.2474-1.1226-2.1205-1.6215-1.9958z" fill="#fff"/>
  <path d="m60.46 48.558c-0.62365 0.24956-0.99785 1.3721-0.62365 2.9936 0.49893 1.871 1.4968 2.3699 2.1205 2.2452 0.62368-0.24957 0.99789-1.3721 0.49896-2.9936-0.37421-1.4968-1.3721-2.3699-1.9958-2.2452z" fill="#fff"/>
 </g>
</svg>
