<?xml version="1.0" encoding="UTF-8"?>
<!-- Created with Inkscape (http://www.inkscape.org/) -->
<svg version="1.1" viewBox="0 0 205.75 288.86" xmlns="http://www.w3.org/2000/svg">
 <g transform="translate(-1.8354 -4.6772)">
  <g transform="matrix(2.1118 .039537 -.039537 2.1118 -97.808 -171.4)">
   <path d="m85.188 186.55c-0.39002 0.80747-0.77518 1.5844-1.1633 2.3406-5.9236 5.7738-11.1 9.413-14.676 9.9498-0.88327-0.70302-1.7619-1.4462-2.6366-2.2101 0.4659-4.0037 3.568-8.4703 8.295-12.048 4.0425-3.0659 7.7773-6.4517 11.15-10.067-0.91524 4.4032-1.2479 8.3973-0.96923 12.034m-7.3464 16.224c-0.03714 0.55531-0.03618 1.0947 0.0051 1.6182-0.49442-0.23702-0.9919-0.49782-1.4988-0.78273 0.52263-0.24681 1.0231-0.52881 1.4932-0.8355m53.058-9.1176c-3.8657 4.778-10.557 4.4592-15.981-1.078-1.119-1.8226-1.8812-3.3682-2.3773-5.1345 0.55544-3.4514 0.41921-6.7292-0.23238-10.357 2.7357 3.4454 5.9172 6.6004 9.9184 8.8381 4.7262 2.6454 7.4468 5.2404 8.6719 7.7319m-15.475-25.095c-1.484-1.7177-2.9841-3.6952-4.5206-6.0494 0.019-0.62762 4e-3 -1.2595-0.048-1.8994 2.5074-1.0744 3.8526-3.1091 4.5118-5.4856 0.71366-2.5967 0.426-7.8692-0.54293-11.821-2e-3 -0.0272-6e-3 -0.0476-5e-3 -0.0685 0.26971 0.32565 0.53242 0.56918 0.7841 0.7099 0.83907 0.47288 3.8491 0.0483 7.0227-1.9412 6.6377 13.241 1.8788 24.4-7.202 26.555m-46.399-54.813c1.1198-1.0175 2.4915-2.0136 4.0505-2.9905 0.28474 4.7878 1.4111 9.6453 3.306 14.028-6.1925-0.2215-10.475-2.2052-12.789-4.4601 1.0819-2.3568 3.1437-4.4961 5.4325-6.5773m72.139-17.08c-9.3785 1.8425-21.728 8.7802-29.034 22.674-0.49349-2.0768-1.2416-3.6356-2.3659-4.0486-2.3866-0.88479-7.1358 2.8594-9.1167 8.0735-1.4976-0.82027-3.6535-0.98465-7.9051-0.48192 0.85075-4.7568 1.2031-9.9621 1.1592-15.272-0.01882-1.9702-0.0913-3.867-0.21022-5.6832 4.1476-1.3524 8.3145-2.554 12.148-3.5712 2.7669-0.73537 2.9132-2.4105 1.0513-3.4876-2.1137-1.2179-5.3165-2.2059-8.4204-2.737 2.2896-1.6579 4.1628-3.2055 5.5426-4.693 2.2054-2.3739 0.93056-4.3481-1.9347-3.6327-3.4325 0.84496-7.2893 1.8409-11.247 3.0011-1.2366-3.1268-2.7817-4.9692-4.5-5.0418-2.874-0.12092-6.701 3.9411-9.518 9.9355-4.6062 1.9529-8.7875 4.1919-11.958 6.7619-6.2293 5.0477-8.6905 10.452-8.029 15.657 0.68197 5.3187 3.1887 12.492 5.1102 14.192 2.753 2.4252 7.9439 4.2689 14.099 4.3599 0.82724 1.2028 2.2791 2.404 4.1849 3.0489-1.756 0.60881-2.8387 1.7539-2.5661 2.6702 0.33223 1.099 3.119 1.501 5.4627 0.0836-1.4403 4.3839-2.4564 13.468-1.4996 16.702 0.78018 2.6419 2.6279 4.5242 5.154 5.5396 0.06206 1.2137 0.22413 2.41 0.49645 3.5652-3.3394 4.1966-8.7381 8.1942-16.84 12.735-7.3722 4.1256-9.2592 10.07-8.867 14.7-2.9062-3.0033-5.5254-6.1242-7.5512-9.0019-1.7084-2.4242-2.7648-1.5858-3.0749-0.36261-1.4368 5.6197 2.5884 15.853 9.8931 21.502-0.2352 1.5734 1.3384 4.2735 8.5381 5.7274 2.4328 0.48666 6.7062 0.84159 10.636 0.35618 1.0549 1.3496 2.2874 2.3565 3.6381 3.0699-0.03442 0.24129-0.04836 0.47983-0.02522 0.73316 0.12049 1.3179 1.0885 2.3816 4.1236 2.3678 2.2445-0.0552 4.2714-0.59424 4.8429-1.7649 0.18703 2.6068 1.6218 4.0431 3.7836 4.013 1.1098-0.0138 2.0531-0.27556 2.6658-1.1174 0.53356 0.53131 1.2782 0.85119 2.2295 0.88686 2.4002 0.0999 3.8268-0.56677 4.1099-3.5998 0.0282-0.26179 0.063-0.51391 0.091-0.76873 0.4032 0.0974 0.81399 0.17494 1.2256 0.22127 0.64014 0.72266 2.5767 1.0339 4.7782 0.817 2.7765-0.26718 3.7718-1.0019 3.7609-1.9957-4e-3 -0.32774-0.0856-0.66124-0.23582-0.99709 1.2692-0.98904 2.3399-2.305 3.0861-3.9482 0.69864-1.5423 1.082-3.1488 1.1183-4.7965 6.297 4.9973 14.975 1.6077 15.765-6.8956 0.79466-8.5306-1.8356-13.096-9.971-19.043-2.518-1.8446-4.9222-3.7267-7.3308-6.1381 14.216-2.2079 23.425-18.703 11.221-35.715 1.8249-3.3344 2.3394-6.6813 0.51697-7.6992-0.31233-0.1699-0.78712-0.27297-1.3938-0.30489 6.8033-4.7265 12.432-10.107 14.415-14.843 0.62569-1.5035 0.23688-2.5224-0.66801-2.5122 2.4286-2.8656 3.6105-5.7074 4.37-8.2412 1.2262-4.0796-0.80711-5.8072-4.952-4.9974" fill="#fff"/>
   <path d="m78.442 204.94c-10.213-5.0818-20.725-16.095-24.646-21.867-1.3858-2.0322-2.4646-2.1434-2.6766 0.46178-0.57579 7.1717 3.8681 14.854 10.128 20.072-1.0663 4.7706 12.599 7.3491 18.781 5.9934-1.0852-1.7021-1.5025-2.6877-1.5861-4.6598" fill="#f09cb4"/>
   <path d="m51.433 182.11c0.64982 11.674 13.415 25.589 27.362 25.076 0.3444 0.80929 0.70437 1.6497 1.4732 2.4138-6.3207 1.307-20.017-1.1496-19.027-5.9771-6.4436-5.3397-10.787-13.422-9.8074-21.513" fill="#d0879d"/>
   <path d="m61.062 204.04c-7.4495-5.6023-11.572-16.002-10.126-21.687 0.31014-1.2229 1.3664-2.0579 3.0748 0.366 5.7078 8.1029 16.135 18.179 24.348 21.916l0.09753 0.71299c-9.51-4.1798-19.838-14.7-25.03-22.155-1.0667-1.5241-1.6199-1.517-1.8279-0.50962-1.0255 4.8914 2.3157 14.377 9.8226 20.561 2.2512 1.8638 3.4788 2.3551 6.0763 3.492 0.90286 0.39628 0.65749 0.71966-0.48301 0.39151-2.731-0.78603-4.5735-2.0537-5.952-3.0888" fill="#0f141b"/>
   <path d="m111.69 175.62c0.72175 3.3298 1.3828 7.6509 0.43973 11.623 0.86636 2.7264 1.9737 4.7092 2.9393 6.1892 6.9726 5.68 13.104 4.6574 16.232 4.9e-4 -1.8537-3.1489-5.4118-5.9331-8.8249-7.8628-3.4131-1.9331-7.4685-5.4253-10.786-9.95m-27.309 13.278c0.21209-7e-3 1.1978-2.2406 1.1978-2.2406-0.05466-3.825 0.03185-8.8233 1.0383-13.084-3.6711 3.9885-8.452 8.2165-12.497 11.262-4.6777 3.5245-8.6277 9.621-7.7253 13.861 3.4427 2.1935 11.736-2.9385 17.986-9.7982m26.15-26.397c5.7076 9.2362 11.977 13.226 16.302 16.391 9.4241 6.9013 8.8756 18.129 6.0637 22.154-3.3078 4.73-9.9473 5.1808-14.155 1.3052 0.39568 8.7884-8.0855 13.02-13.598 11.085l-12.195-0.28097c-8.2776 2.6848-14.958-2.7166-14.508-11.032-2.7659 1.6059-5.3568 2.5037-7.7771 2.2768-4.6398-0.42765-7.5211-6.393-8.7863-12.289-1.2721-5.8964 3.7133-12.59 10.192-15.739 6.4725-3.1594 12.586-8.6749 15.755-12.409z" fill="#fff"/>
   <path d="m110.43 160.06c1.7539-0.54051 3.3981-2.0784 4.0797-3.9557 0.58514-1.6174 0.87802-3.5168 0.95451-5.5899 0.0722-1.9368-0.12294-3.9397-0.64261-6.0548-1.6101-4.0905-4.4831-8.1886-8.1337-8.0296-3.6472 0.15888-6.8445 2.7078-8.6326 10.57-1.0538-5.4392-3.1509-10.586-7.5163-10.831-4.3584-0.25191-7.5284 4.6602-8.6701 10.569-0.08568 3.7217-0.44656 7.0732 0.62771 9.2495 1.0744 2.1695 2.7806 3.6549 4.7519 4.3906l11.67 4.8904z" fill="#fff"/>
   <path d="m92.125 101.9c4.112-1.3023 8.5946-2.5592 13.443-3.846 2.9595-0.78422 2.5188-2.2347 1.0648-2.9206-2.3759-1.1268-5.75-2.318-8.9058-2.8301 3.1405-2.25 5.9312-4.6744 6.7047-6.0916 0.77371-1.424 0.0691-2.5104-2.3511-1.9419-4.0604 0.95223-8.5626 2.1812-13.068 3.6286z" fill="#7dccf3"/>
   <path d="m86.835 103.68c1.691-0.60402 3.45-1.1994 5.2905-1.782 1.1209-4.9943 0.66973-10.729-3.1156-14.002-1.7203 0.55574-3.4415 1.1451-5.143 1.7558z" fill="#5084c4"/>
   <path d="m80.765 106.08c1.8994-0.83341 3.9272-1.6254 6.0703-2.3934 1.6892-6.2879-0.06651-11.318-2.9681-14.024-1.9293 0.69596-3.8359 1.4301-5.6718 2.1972z" fill="#f09cb4"/>
   <path d="m112.65 131.34c0.13625-5.6113-0.68453-14.696-2.9888-15.708-1.8359-0.81008-7.047 2.9714-8.8444 8.6621-1.5903 5.0518-1.398 10.874 0.10512 11.63 1.2509 0.62482 5.8575 0.0103 10.814-2.0277 0.73098 4.2654 2.6872 8.7624 4.1208 9.5568 1.2082 0.68173 6.499-0.65643 10.295-5.0508 3.3324-3.852 5.0084-9.3689 3.0498-10.521-1.6062-0.95326-10.064 0.70204-16.552 3.4582" fill="#fff"/>
   <path d="m98.729 163.48c-2.0389-3.0078-5.0806-6.4965-8.4336-7.3696-1.7443-0.45225-3.24 0.0142-3.1778 2.9179 0.08905 4.6111 1.5522 10.619 5.8048 13.8 0.87113 0.6546 1.5355 0.8112 2.5143-0.1729 1.6198-1.6338 2.4895-2.6214 3.652-4.4875 1.152 2.1991 2.1402 3.7243 3.798 5.0034 1.0939 0.85244 1.6867 0.77821 2.7104-0.22518 4.0107-3.9305 6.2453-9.5192 4.099-15.968-0.53778-1.6207-1.6109-1.8137-3.0625-0.99746-3.0492 1.7168-5.4955 3.8138-7.9046 7.4992" fill="#fff"/>
   <path d="m93.389 149.1c0.15627-4.0405-1.5237-8.0683-4.1833-8.1728-2.3528-0.0848-4.5742 4.2787-4.6021 7.9031 0.63153 2.139 2.837 3.7078 4.4501 3.6474 1.7873-0.0656 3.5238-1.2689 4.3353-3.3778" fill="#7dccf3"/>
   <path d="m103.01 149.33c0.13961-5.2767 3.0864-8.2392 4.5585-8.2629 2.2882-0.0363 4.7494 3.4586 4.2919 8.1931-0.46603 1.8634-2.5858 3.0964-4.2382 3.1043-1.7822 7e-3 -3.6192-0.99038-4.6121-3.0345" fill="#7dccf3"/>
   <g fill="#fff">
    <path d="m90.074 142.08c-0.84708 0.0149-1.5873 1.2354-1.6035 3.01-0.01492 1.8327 0.71079 3.2406 1.592 3.2264 0.72062-0.012 1.6441-1.3088 1.563-3.141-0.08255-1.7878-0.74213-3.1085-1.5515-3.0954"/>
    <path d="m106.96 148.49c0.84404-0.0286 1.546-1.339 1.5351-3.1179-0.0164-1.8268-0.76954-3.2185-1.6475-3.1973-0.80631 0.023-1.5218 1.3296-1.5126 3.1664 0.0103 1.8949 0.8119 3.172 1.6251 3.1488"/>
    <path d="m78.195 91.854c-6.0366 2.5206-11.367 5.3904-14.73 8.4427-3.124 2.8343-6.7694 8.1139-6.2703 13.161 0.5058 5.0505 2.9889 12.325 4.747 14.235 1.7653 1.9002 6.6159 4.273 14.167 4.6076-1.0365-2.0694-0.54886-3.7341 3.6785-1.9811-1.0695-1.7665-2.0339-3.2876-2.5422-4.9859-3.2964-0.039-9.6784-0.65142-14.22-4.8789 3.4175-6.3209 9.3846-10.718 17.74-14.38 2.5643-6.555 0.44021-10.706-2.5696-14.221"/>
   </g>
   <g fill="#f09cb4">
    <path d="m106.83 135.6c-2.7671-0.27137-2.7158-3.9909-0.67809-8.1518 1.7284-3.5251 4.9462-6.0766 6.2371-4.0644 0.1044 1.7373 0.3464 5.5679 0.26051 7.9548 1.97-0.90973 5.1212-1.9408 7.4086-2.6224 1.9681 0.27829 2.1416 3.226 0.0288 6.934-1.5289 2.688-5.063 4.9739-6.9334 3.8384-0.49479-1.8106-1.0764-3.6818-1.4176-5.6004-1.2145 0.42419-2.6998 1.0003-4.9061 1.7117"/>
    <path d="m100.75 170.91c2.3112 0.67115 3.9769-2.252 4.6031-6.2441 0.59106-3.7336-0.21651-6.7041-2.0803-6.4875-1.2342 1.0755-3.1132 3.2647-4.4939 5.2335-0.93923-1.3359-3.0182-3.8124-4.4676-5.2081-1.7583-0.44251-2.9272 1.6318-1.5956 6.9189 1.0298 4.09 2.6661 6.5292 4.5808 5.6417 0.62728-0.88563 1.1513-1.6071 1.7922-2.5913 0.65129 1.1497 0.93644 1.6533 1.6614 2.737"/>
    <path d="m99.812 129.22c-2.5198-0.54412-5.872-0.32147-9.3782 1.3816 2.6098-8.3936 3.6181-19.812 2.6183-29.06-5.3762 1.7931-12.562 4.4871-19.528 8.3827 0.16607 4.9958 2.1974 15.128 6.2639 20.392-1.6355-0.66422-3.7305-1.26-4.152-0.19357-0.42133 1.0592 1.1199 4.3863 5.2746 5.5023-1.5943 0.68215-3.1404 1.4614-2.8586 2.634 0.24795 1.0658 3.1924 1.3325 5.5973-0.41388-0.52205 1.5681-1.2839 4.9689-1.5273 7.5935 1.5733-5.3937 4.3594-9.1292 7.9373-9.1436 3.5814-0.018 6.6083 2.9448 7.9913 10.702 1.1835-5.0368 3.881-10.69 8.6326-10.57 4.7515 0.12369 6.9007 4.8995 8.3717 9.0746-0.1454-1.2777-0.25717-2.6602-0.37014-3.3327-0.96162-1.2717-2.5815-5.9429-2.9476-8.2821-3.0739 1.2928-8.6579 3.182-10.815 2.0311-1.2797-0.69067-1.5637-3.3723-1.1112-6.7006"/>
    <path d="m90.549 87.337c-0.69208-2.2808-2.677-5.1572-4.3193-5.149-2.7825 0.01451-6.3438 4.0987-8.8927 9.8076 3.5265-1.361 8.5188-3.3262 13.212-4.6586"/>
    <path d="m111.89 120.7c5.9702-12.607 18.81-22.206 29.74-23.67 3.0096-0.41039 5.0562 0.88034 4.2732 3.6251-0.73291 2.5619-1.8859 6.2478-4.9948 9.5946 1.3488-0.46411 1.7965 0.64473 1.1487 2.1956-1.0528 2.5215-6.7251 9.9211-15.212 15.102-3.1165 0.33201-10.66 1.8924-14.196 3.789 0.13206-3.0171 7e-4 -7.2369-0.75978-10.636"/>
    <path d="m97.963 199.88c-1.2302 1.2804-2.157 2.3515-2.9722 4.2452-0.96799-1.0637-3.0006-2.7024-4.4504-3.074 1.1848 3.3676 2.415 9.2969 2.4329 12.646 0.01411 3.1307 1.2296 4.2599 3.316 4.3505 1.4148 0.0632 2.3062-0.62992 2.7152-1.2832 0.83217 0.92642 1.6909 1.089 2.6205 1.0523 1.9688-0.0838 3.4788-0.57387 3.5158-4.3858 0.0213-2.266 1.8136-9.9436 3.036-13.218-1.1008-0.0605-2.6121 0.6991-5.5203 3.8437-0.65795-1.2693-1.6928-2.6047-2.5564-3.3921-0.2668 2.1698-0.49388 4.8153-0.79388 7.4996-0.3907-3.4357-0.81727-5.8109-1.3431-8.2846"/>
   </g>
   <path d="m86.533 132.61c1.5888-5.7926 1.9555-17.217-2.0516-23.316-0.60688-0.92643-1.3981-1.0631-1.9886 0.51308-1.4665 3.8949-2.6672 14.454 4.0402 22.803" fill="#5084c4"/>
   <path d="m112.71 129.18c1.8913-5.186 7.6617-11.651 12.592-13.71 1.2032-0.49967 1.8969-0.0759 1.4249 1.3062-1.2272 3.5506-3.7551 8.5637-10.077 13.059-1.7345 0.57562-2.9765 1.0055-4.002 1.507 0.0721-0.81365 0.0689-1.3804 0.0625-2.1624" fill="#5084c4"/>
   <path d="m122.94 141.34c5.532 11.989 5.0532 23.619-7.6352 27.672 0.64293 0.63075 1.1769 1.268 1.6374 1.7258 15.346-1.9757 23.43-20.117 11.253-35.431-0.96241 2.1316-2.5538 3.8415-5.2556 6.0331" fill="#fff"/>
   <path d="m84.623 110.14c-0.62947-0.73939-1.1346-0.51907-1.3774 0.73313-1.0421 5.3244-0.18425 14.41 3.1813 21.408-3.8868-4.6648-6.8226-14.571-3.7587-22.856 0.43499-1.1748 1.3553-1.2425 1.9548 0.7145" fill="#4574ab"/>
   <path d="m126.19 117.6c0.54241-1.4583 0.0703-1.6501-1.1426-0.8198-3.9113 2.6772-9.1773 8.0409-12.212 13.899l-0.16082-1.6844c2.5622-5.5821 8.0613-11.205 12.411-13.47 1.3666-0.71648 2.4673-0.0891 1.1046 2.0748" fill="#4574ab"/>
   <path d="m75.833 129.81c0.67248 2.2529 4.0358 4.8161 7.5721 5.4968-0.9507 0.0565-1.856 0.19285-2.3337 0.41056-2.585-0.76103-6.03-3.668-5.2384-5.9073" fill="#d0879d"/>
   <path d="m78.028 138.09c1.2262 0.65181 3.9132-0.15082 5.8241-1.3664 0.61982-0.39413 1.3042 0.10786 0.60716 0.69399-2.3821 2.0067-6.1505 2.2237-6.4312 0.67216" fill="#d0879d"/>
   <path d="m105.08 213.42c10.15 3.1034 18.755-9.6896 10.416-18.852 1.1413 6.4966-3.1934 10.755-9.0798 12.034-0.52633 2.2677-0.96061 4.214-1.3366 6.8175" fill="#e6d4e7"/>
   <path d="m82.729 192.45c-1.3759 7.1031 3.3031 12.096 9.1492 13.724 0.47274 1.8679 0.87327 4.8636 0.99232 7.2431-4.8678 1.8017-11.815-0.87999-13.945-6.2019-2.133-5.3114 0.60636-9.7549 3.8031-14.765" fill="#e6d4e7"/>
   <path d="m92.969 213.49c1.0124 4.2159 5.9751 4.0146 6.4505 0.0418 0.22559 2.6968-0.43927 4.4654-2.8165 4.5128-2.3706 0.0514-3.7242-1.4681-3.634-4.5547" fill="#d0879d"/>
   <path d="m99.429 215.55c1.2119 1.2383 4.7912 1.2922 5.6301-1.1572-0.0221 2.5151-1.5074 3.443-3.2828 3.4541-0.99013 4e-3 -2.1935-0.27497-2.7665-1.1933 0.21286-0.38955 0.27981-0.67765 0.41929-1.1035" fill="#d0879d"/>
   <path d="m96.201 171.73c1.6314 1.2476 3.6295 1.3252 5.134-0.10705-0.74643-0.94095-1.6815-2.3006-2.2474-3.4544-0.78263 1.27-1.4641 2.2428-2.8866 3.5617" fill="#e6d4e7"/>
   <path d="m76.18 132.14c-4.112 0.17932-11.673-1.9616-13.866-4.2948-3.165-3.3628-6.9195-14.868-3.8669-20.862-0.92955 6.4543 3.9437 9.9952 6.9045 9.6172-1.0887 1.3427-1.8095 2.601-2.2513 3.7721 1.6598 2.6754 7.6591 4.8815 13.865 4.7829 0.78475 1.5907 1.5719 3.2155 2.6777 5.0207-3.7991-1.4738-4.8907-0.2606-3.4629 1.9637" fill="#e6d4e7"/>
   <path d="m141.96 110.81c-1.935 4.1504-10.48 12.835-18.277 17.136 0.84634-0.10432 2.4784-0.3412 3.4139-0.34399 6.8134-4.9481 16.246-14.217 14.863-16.792" fill="#d0879d"/>
   <g fill="#e6d4e7">
    <path d="m62.787 186.61c-0.77158 4.2846 1.6184 7.7605 3.8073 8.076-0.31878 1.6289-0.50217 2.6098 0.06351 4.0914 2.1486 1.7583 8.7413-1.2029 17.587-9.3324-1.6116 3.1668-5.637 9.046-5.9441 12.536-4.4484 3.2788-9.5632 3.2058-11.905 0.37996-2.3414-2.8258-6.3305-10.761-3.6088-15.751"/>
    <path d="m129.88 191.52c1.9899 0.34733 4.2126-1.5825 3.4498-4.9101 2.8402 8.1082 0.98347 16.32-5.5682 17.927-2.8718 0.70497-6.4884 0.0829-9.1048-2.4573-0.2597-2.353-1.3033-5.5423-3.8379-8.7528 6.4832 5.6072 13.142 4.6517 16.451 0.20479-0.39035-0.63325-0.78347-1.5189-1.3898-2.0118"/>
    <path d="m96.582 160.67c1.0625 0.42145 3.1223 0.37759 4.394-0.0205-0.73059 0.79031-1.8751 2.2849-2.1993 2.8452-0.4007-0.6268-1.6659-2.1396-2.1947-2.8247"/>
   </g>
   <path d="m116.16 168.79c-0.25106 0.0641-0.49556 0.13526-0.75313 0.18229 0.537 0.64108 1.0718 1.2409 1.6408 1.8419 1.5897-0.30314 3.126-0.75873 4.5879-1.3493z" fill="#7dccf3"/>
   <path d="m119.07 167.54c-0.91387 0.53213-1.886 0.95667-2.9017 1.2434 1.2082 0.56937 3.1035 0.77031 5.479 0.67104 2.0564-0.83542 3.961-1.952 5.6358-3.3725z" fill="#5084c4"/>
   <path d="m119.07 167.54c2.2215 0.47687 4.7729 0.20558 8.2131-1.4579 1.664-1.4038 3.105-3.1079 4.2272-5.105-2.9074 3.0046-6.6335 4.4176-9.7406 4.5556-0.80811 0.75722-1.7232 1.4395-2.6996 2.0073" fill="#f09cb4"/>
   <path d="m92.25 123.4c-0.5063 2.2991-0.91291 4.8914-1.8193 7.2023 1.6099-0.85579 6.1531-2.1962 9.3815-1.3781 0.21326-1.5195 0.4923-3.624 1.1615-5.3209-2.4479-1.1153-4.8522-1.079-8.7237-0.50334" fill="#e6d4e7"/>
   <g fill="#0f141b">
    <path d="m98.773 151.29c-0.01364-0.44448-1.4137-0.43885-1.4192-0.0295 7.86e-4 0.41972 1.4313 0.41907 1.4192 0.0295"/>
    <path d="m112.08 134c0.88548 4.9118 2.8037 8.2982 4.0556 9.0052 0.89977 0.49842 5.7204-0.30792 9.7035-4.9049 3.1909-3.6891 5.0092-8.8295 3.1413-9.9376-1.2811-0.75569-8.9733 0.4108-16.032 3.4126-0.43871 0.18098-0.61062 0.0905-0.59902-0.404 0.13814-5.898-0.7453-14.268-2.8271-15.184-1.8832-0.82512-6.6149 3.1278-8.2952 8.45-1.5867 5.0485-1.4243 10.389-0.0861 11.061 1.261 0.63188 5.1603 0.262 10.3-1.8521 0.39056-0.15536 0.55289-0.10644 0.63778 0.35373m3.5219 9.9449c-1.4836-0.83352-3.4449-5.1634-4.088-9.624-4.4062 2.1126-9.2245 2.8439-10.856 2.0367-1.7857-0.88709-1.9512-6.9172-0.2958-12.196 1.7749-5.6265 6.8921-9.7965 9.4004-8.8739 2.9641 1.09 3.3301 10.192 3.2424 15.562 5.8374-2.5915 14.432-4.3758 16.386-3.2856 2.4639 1.3786 0.66868 6.9977-2.8832 11.109-4.1918 4.8364-9.7177 5.9388-10.906 5.2712"/>
    <path d="m111.72 120.11c7.2539-14.414 19.89-21.576 29.443-23.447 4.1448-0.80969 6.1748 0.91769 4.9519 4.9975-1.1888 3.9716-3.4038 8.687-9.867 13.117-0.9099 0.6243-1.1324 0.30686-0.27508-0.39418 6.2984-5.189 8.205-9.1901 9.2279-12.979 0.91428-3.3621-0.33089-4.5161-3.8508-3.8239-9.5706 1.8742-22.177 9.1831-29.294 23.83z"/>
    <path d="m140.94 110.14c1.4359-0.74843 2.2621 0.37588 1.4705 2.2771-2.035 4.8574-7.9108 10.407-14.959 15.215l-1.4588 0.0411c7.2058-4.8304 13.558-10.885 15.697-15.579 0.63955-1.3802 0.2865-2.0157-1.4368-1.0233z"/>
    <path d="m112.6 128.69c2.271-6.1133 7.8901-11.077 12.121-13.263 2.0046-1.0384 3.0239-0.43094 2.1729 2.0798-1.5599 4.6124-4.8222 8.6304-9.722 12.274l-1.6553 0.32892c5.2802-3.9193 8.9299-8.2157 10.71-12.886 0.62655-1.6434 0.24196-2.0203-1.1284-1.1777-4.4034 2.6965-10.326 7.8832-12.44 14.216z"/>
    <path d="m74.092 109.61c0.22284 7.4109 2.4162 15.005 6.3353 21.077l-1.0707-0.377c-3.7905-5.6996-5.9704-12.955-6.3127-20.021z"/>
    <path d="m93.666 101.51c0.13955 1.9398 0.21706 3.9835 0.2347 6.1039 0.0716 8.113-0.77922 16.017-2.9452 22.386 2.6129-1.2862 6.3135-1.7442 8.9257-1.3168l-0.10142 0.86738c-2.5537-0.43887-6.1519 0.0153-8.7531 1.1446-0.62636 0.2748-1.0858 0.23312-0.83577-0.58177 1.9416-6.2803 2.7073-14.201 2.6347-22.505-0.01655-2.0453-0.08523-3.9556-0.2016-5.7444z"/>
    <path d="m90.066 87.509c-1.1985-3.2554-2.6009-4.8545-3.7941-4.9043-1.9461-0.0996-5.6515 3.4438-8.4673 9.2845l-1.2611 0.38486c2.8437-6.311 6.8252-10.632 9.788-10.508 1.7999 0.08166 3.4085 2.0833 4.6744 5.4807z"/>
    <path d="m82.84 109.94c-1.9993 5.3705-1.2762 15.077 3.4734 22.017 1.6681-6.4934 0.99458-15.819-1.9249-21.977-0.66079-1.3991-1.0655-1.3363-1.5486-0.0399m3.3041 22.873c-5.4593-7.0679-6.2832-17.276-3.9707-23.18 0.7031-1.8016 1.8054-2.014 2.9138 0.0477 3.3372 6.2389 3.6842 16.303 1.6702 23.059-0.12965 0.43607-0.29815 0.47903-0.61338 0.0701"/>
    <path d="m77.391 125.79c-5.8571-0.0239-11.21-1.4936-14.466-4.7737l0.31562-1.0555c2.2672 2.4617 6.8183 4.6888 13.58 4.8391z"/>
    <path d="m92.235 122.94c5.0132-0.62639 7.2492-0.40171 8.8245 0.66684l-0.24353 0.70949c-1.614-0.92283-3.5302-1.1106-8.6551-0.39905z"/>
    <path d="m76.622 132.68c-6.4115 0.0209-11.847-1.8713-14.683-4.3741-1.925-1.7003-4.4318-8.8698-5.1102-14.192-0.66503-5.202 1.7997-10.61 8.0256-15.658 8.8188-7.1437 25.484-11.756 37.223-14.653 2.8687-0.71866 4.1402 1.2554 1.9347 3.6293-1.461 1.5772-3.4735 3.2162-5.9476 4.9914l-0.92404-0.26019c2.6196-1.8459 4.764-3.6687 6.2814-5.3022 1.535-1.6535 0.89533-2.7345-1.0928-2.2384-11.697 2.8918-28.122 7.6716-36.864 14.756-3.972 3.2182-8.4162 8.1596-7.5855 14.654 0.7077 5.596 3.2121 12.055 4.8182 13.579 2.3225 2.2142 7.4015 3.9179 13.457 4.2823z"/>
    <path d="m62.923 126.99c-2.6384-5.1936 0.84819-9.85 5.3845-14.007 7.0752-6.49 24.283-12.106 37.347-15.38 1.9401-0.48748 1.937-1.3989 0.83984-2.0296-2.5899-1.4986-5.9453-2.4093-10.398-3.2645-0.84493-0.16573-0.78864-0.56004 0.06865-0.47922 3.724 0.34843 8.0819 1.5182 10.726 3.0423 1.8653 1.0772 1.7122 2.7521-1.0513 3.4876-12.994 3.4465-29.787 8.9968-36.815 15.389-4.2091 3.8323-7.6835 7.8643-5.6044 13.038 0.37788 0.93309-0.05275 1.0702-0.49762 0.20356"/>
    <path d="m80.808 135.89c-4.0472-1.058-6.3306-4.6739-5.2731-6.1132 1.1215-1.5261 6.8364 0.59981 8.8947 3.7583 0.43396 0.66842 0.24803 0.92916-0.25532 0.31651-2.328-2.8185-7.4674-4.5616-8.0437-3.6813-0.59429 0.91391 1.2058 4.2558 5.8091 5.4365z"/>
    <path d="m77.657 138.39c-0.3996-1.3332 2.082-3.1423 5.3068-3.106 0.84627 0.0121 0.85992 0.35031 0.02869 0.39349-2.9742 0.14205-4.8555 1.8464-4.6369 2.5186 0.24315 0.75497 3.4955 0.90478 5.766-1.0234 0.59552-0.50792 0.80329-0.26267 0.25679 0.30496-2.4569 2.5575-6.3279 2.2183-6.7184 0.91263"/>
    <path d="m87.258 160.91c-2.7804-0.95812-4.8066-2.921-5.6396-5.7352-0.98448-3.3343 0.12338-12.849 1.6235-17.074l0.79872-0.44694c-1.5533 4.9607-2.4112 14.117-1.4821 17.252 0.74877 2.5522 2.1136 3.8122 4.5982 5.0686z"/>
    <path d="m114.5 142.1c1.2231 4.0208 1.6552 10.151 0.86496 13.022-0.69375 2.4982-2.1307 4.636-4.9029 5.6614l-0.15032-0.89207c1.9685-0.9747 3.5067-2.7339 4.1671-5.1512 0.77937-2.8506 0.32253-9.0773-0.86477-13.254z"/>
    <path d="m89.207 141.39c-1.9514-0.0388-4.2636 3.7145-4.3067 7.3898 0.62093 2.0397 2.6942 3.3519 4.1561 3.3211 1.7864-0.0345 3.3059-1.1731 4.0532-3.0792 0.12862-3.5736-1.8794-7.5978-3.9026-7.6317m0.01792-0.82219c2.634 0.046 4.7889 4.5215 4.4041 8.5447-0.0038 0.027-0.0086 0.0539-0.01587 0.078-0.77049 2.3321-2.5215 3.6752-4.5487 3.6616-1.9354-5e-3 -4.039-1.5562-4.6902-3.9484-0.0064-0.0205-0.01206-0.0478-0.01143-0.0687-0.32529-3.3382 2.2045-8.3103 4.859-8.2674"/>
    <path d="m103.32 149.26c0.8818 1.7677 2.4998 2.7828 4.3229 2.7766 1.5773-6e-3 3.5052-1.1056 3.9503-2.8399 0.33209-3.5196-1.6752-7.5745-3.9865-7.566-2.039 0.0337-4.1784 4.1712-4.2866 7.6293m4.2557-8.412c2.7467-0.0704 5.008 4.3881 4.5338 8.4326-0.4953 2.1595-2.7078 3.4033-4.4728 3.4112-2.0246 0.0104-3.9443-1.188-4.8374-3.2598-0.0193-0.0344-0.0249-0.0725-0.0238-0.10971-0.0646-4.054 2.3066-8.413 4.8004-8.474"/>
    <path d="m94.544 154.77c-0.25671-0.64274 0.08465-0.7826 0.38411-0.16571 1.2346 2.5157 5.8849 2.2606 7.325 0.0203 0.35074-0.53904 0.63622-0.37673 0.35537 0.20166-1.2982 2.6267-6.8038 3.0538-8.0647-0.0569"/>
    <path d="m99.419 168.14c1.729 3.0974 3.7573 5.1047 4.6587 5.0978 1.69-0.01 4.8994-4.5316 5.7475-8.2984 0.50813-2.2478 0.48909-4.8803-0.51211-7.884-0.44095-1.331-1.1792-1.5275-2.558-0.74972-3.2957 1.8527-5.4808 3.8927-7.668 7.2401-0.27183 0.41484-0.39966 0.45565-0.69377 0.0264-2.617-3.8719-5.7521-6.5306-8.8005-7.3193-1.104-0.28934-2.1143 1.0556-2.0543 3.918 0.02245 1.0452 0.12484 2.9839 0.76592 5.1403 1.1489 3.8786 4.466 7.6283 5.8079 7.6178 0.94934-0.0118 2.7946-1.9874 4.6138-4.7963 0.28261-0.4355 0.43654-0.44437 0.69274 7e-3m-0.35414 0.6513c-1.888 3.1618-3.8594 4.908-4.9246 4.9132-1.9529 9e-3 -5.2253-3.9748-6.5316-8.1791-0.53489-1.7162-0.82757-3.5548-0.8695-5.437-0.06025-3.1936 1.0802-5.0058 3.1422-4.4483 2.7123 0.72732 6.0058 3.1144 8.8458 7.2866 2.2856-3.3274 4.4592-5.4394 7.723-7.2521 1.8124-1.0067 3.0072-0.66668 3.6298 1.2024 0.93561 2.8071 1.0863 5.6074 0.4867 8.269-1.0116 4.5471-4.1873 8.8578-6.458 8.8811-1.3418 7e-3 -3.0688-1.694-5.0437-5.2358"/>
    <path d="m114.96 168.66c9.4825-1.894 14.536-13.439 7.4505-27.097l0.90352-0.52566c7.0795 14.88 1.8212 26.187-7.8236 28.253z"/>
    <path d="m128.58 134.85c12.778 17.333 3.2084 34.254-11.382 36.188l-0.5793-0.60784c13.499-1.6357 24.039-17.333 11.424-34.644z"/>
    <path d="m115.03 147.31c-0.82572-5.1932-4.1861-10.443-8.4848-10.413-4.2953 0.0303-6.8413 4.1792-8.1395 10.069-0.18509 0.81361-0.49942 0.82121-0.6724 7e-3 -0.99804-4.5772-2.7867-10.322-7.6184-10.277-3.5614 0.0322-6.654 4.079-7.9245 10.632l0.21245-3.414c1.4737-5.3728 4.7383-8.0013 7.7263-8.0371 3.9508-0.0407 7.0116 3.831 7.9252 10.293 0.94084-5.9249 4.2922-10.063 8.4068-10.102 3.995-0.036 7.1612 3.7365 8.4096 8.0516z"/>
    <path d="m78.207 202.54c-1.52 1.0463-3.4647 1.9124-5.3461 2.1524-4.2393 0.54778-8.7734-1.7918-10.982-11.014-1.152-4.7901 0.08839-11.918 8.551-16.662 8.4001-4.702 13.902-8.8262 17.205-13.191l0.32212 0.74031c-3.3668 4.3084-8.8446 8.5528-17.096 13.177-7.9139 4.43-9.2903 11.209-8.129 15.805 2.1386 8.5068 5.6444 10.982 9.9495 10.293 1.9244-0.3106 3.6827-0.88171 5.5375-2.2729z"/>
    <path d="m84.101 189.95c-8.6257 8.317-14.51 11.105-17.704 9.1411l-0.01774-0.75491c3.3234 2.1899 10.152-2.0102 18.313-10.113z"/>
    <path d="m90.217 169.83c-4.3421 5.4054-9.4705 10.398-15.211 14.743-6.7185 5.0841-10.163 11.974-7.4069 16.758 0.49003 0.8512 0.05641 1.0633-0.45634 0.2935-3.1225-4.6484 0.0031-12.163 7.2881-17.68 5.7543-4.3589 11.005-9.2281 15.341-14.661z"/>
    <path d="m118.69 201.56c6.1221 5.586 14.542 2.6118 15.297-5.5205 0.74036-7.9894-1.4797-12.563-9.4555-18.256-4.9219-3.5116-9.1554-7.0945-14.01-14.506l0.0421-1.2891c4.9548 7.7182 9.4657 11.501 14.428 15.13 8.1321 5.9438 10.762 10.506 9.9677 19.04-0.80639 8.694-9.8619 12.048-16.191 6.5516z"/>
    <path d="m108.11 169.9c4.2408 6.2731 8.3246 11.869 14.568 15.267 11.952 6.5136 11.008 13.097 7.5845 17.141-0.63048 0.74555-1.0283 0.47721-0.41247-0.35028 3.4572-4.7051 2.7142-10.261-7.618-16.036-6.482-3.6203-10.802-9.6364-14.573-15.421z"/>
    <path d="m113.96 191.52c5.6897 6.6754 13.156 7.2226 17.201 1.8015l0.36749 0.71778c-3.4754 4.9673-10.816 5.134-16.552-0.35813z"/>
    <path d="m92.97 213.81c-4.7028 1.3117-10.038 0.28943-13.315-4.3326-2.3441-3.3003-2.7989-8.2298 0.64849-13.959 1.7759-2.957 3.5081-6.0451 5.2335-9.7l0.14364 1.3357c-1.5964 3.338-2.9582 6.1471-4.6228 8.9232-3.1668 5.2566-2.5278 10.192-0.67916 12.716 2.8547 3.9133 7.2217 5.4588 12.501 4.2738z"/>
    <path d="m112.22 186.14c0.65207 3.2662 2.0276 5.5233 4.5646 9.3313 2.854 4.2717 3.0323 8.5271 1.287 12.386-2.3815 5.2531-8.0878 7.1249-12.91 5.8318l0.0244-0.80487c5.8289 1.4056 10.294-1.6338 12.025-5.4695 1.6788-3.6939 1.2247-7.6334-1.2855-11.54-2.1874-3.4014-3.1296-5.4303-3.8832-7.8223z"/>
    <path d="m96.367 218.35c-2.1925 0.0324-3.6428-1.452-3.7973-4.1261-0.40717-7.181-1.9092-12.583-4.4111-17.212-3.3588-6.202-3.914-13.678-1.9044-22.991l0.97749-1.0525c-2.2053 9.5767-1.6739 17.386 1.7234 23.668 2.5375 4.6921 3.9141 10.295 4.3291 17.551 0.13799 2.4381 1.1487 3.5475 3.1062 3.4976 1.7726-0.0316 2.6788-0.53346 2.7092-3.5637 0.05981-6.5968-0.98878-11.302-1.9824-15.575-1.8272-7.8556-2.3204-11.294-2.5686-17.184-0.05912-1.4218-0.1311-1.861-0.32536-2.6657-0.21311-0.85303 0.16534-0.94398 0.46449-0.11589 0.30263 0.82506 0.40954 1.5861 0.4799 2.7489 0.34808 5.6465 0.96217 9.1402 2.78 16.968 1.0031 4.2975 1.9092 9.203 1.8443 15.851-0.03097 3.3888-1.4647 4.1748-3.4249 4.2008"/>
    <path d="m95.162 217.94c0.17828-1.0358 0.24522-1.9042 0.12536-3.0207-0.07907-0.7636 0.34261-0.82934 0.47668-0.0709 0.20853 1.1157 0.22871 2.1472 0.09715 3.2049z"/>
    <path d="m97.281 218c0.10405-1.1984 0.11289-1.9389 0.02763-3.1466-0.06426-0.91682 0.3366-0.96607 0.47299-0.0608 0.16898 1.0804 0.23896 2.1442 0.1781 3.0128z"/>
    <path d="m99.194 216.37c0.36597 0.65621 1.0335 1.0418 2.0836 1.0838 2.2706 0.0959 3.2304-0.71455 3.4471-3.019 0.77111-8.2001 3.3072-15.749 5.2013-20.689 2.6054-6.7859 2.4617-11.73 1.3428-18.85l0.82804 1.0628c1.2763 6.3198 1.1476 11.467-1.3801 18.054-1.8832 4.9167-4.5771 12.372-5.3428 20.515-0.28688 3.0329-1.713 3.6963-4.1133 3.5997-1.0602-0.0456-1.8854-0.41523-2.4153-1.0666z"/>
    <path d="m99.034 206.36c0.17139-1.7016 0.35362-3.56 0.54774-5.5647 0.18311-1.8651 0.37162-3.8189 0.5841-5.9835 0.4853-4.8668 1.2319-9.4458 3.2008-15.841 0.26869-0.86915 0.69592-0.76062 0.4711 0.11313-1.7413 6.7677-2.3892 11.025-2.8668 15.862-0.21926 2.1645-0.35018 4.1165-0.53262 5.9816-0.35158 3.6044-0.7208 6.6519-1.0346 9.247z"/>
    <path d="m100.36 217.66c-0.10447-1.0649 4e-3 -2.1471 0.34717-3.2359 0.21467-0.6728 0.60457-0.58279 0.46772 0.11302-0.2388 1.2456-0.27322 2.1356-0.13167 3.2287z"/>
    <path d="m102.44 217.74c-0.28101-1.2033-0.19347-2.2828 0.13846-3.2285 0.22425-0.63155 0.60301-0.53139 0.46731 0.12653-0.21652 1.0687-0.21417 1.8847 0.057 2.9648z"/>
    <path d="m98.004 200.32c-1.1246 0.94902-1.706 1.9999-2.7298 3.9044-0.18445 0.34574-0.33797 0.34109-0.62005 0.0665-1.4383-1.4262-2.6802-2.1226-4.0006-2.8214l-0.22642-0.86026c1.4744 0.68302 2.9598 1.5712 4.475 3.0509 1.0654-2.0398 1.6724-3.0318 2.9644-4.1021z"/>
    <path d="m107.99 200.5c-1.3041 0.11751-3.0364 1.6318-5.0263 3.7631-0.27479 0.28885-0.42961 0.21578-0.5756-0.0378-0.78119-1.3687-1.2782-2.0904-2.4104-3.1419l0.04037-0.88637c1.2864 1.0324 1.9624 2.0428 2.7185 3.4517 2.0895-2.3774 4.0368-3.8921 5.4747-3.8041z"/>
   </g>
   <path d="m92.386 213.67c0.01671-1.2216-2.0911-3.7672-4.3275-3.8622-1.7285-0.0727-4.2347 1.8618-4.0507 3.9019 0.11241 1.2494 1.3138 2.0402 3.731 2.0316 2.1681-0.0128 4.6247-0.76448 4.6473-2.0712" fill="#f09cb4"/>
   <path d="m114.84 212.77c-7e-3 -1.3282-1.9789-3.4122-3.7052-3.3314-1.9689 0.0872-4.3696 2.9296-4.2932 4.014 0.0552 0.76971 1.954 1.3052 4.5267 1.0077 2.1821-0.25135 3.4766-0.84024 3.4717-1.6903" fill="#f09cb4"/>
   <path d="m84.14 212.39c-0.35942 2.389 7.1204 2.3801 7.7452 0.0127 1.5736 1.6931-0.61993 3.3232-3.6436 3.4193-3.0271 0.089-5.1538-1.0403-4.1016-3.4322" fill="#d0879d"/>
   <path d="m107.14 212.63c1.3338 1.2694 7.1134 0.47146 7.4026-1.0728 1.0097 1.4882-0.0744 2.6876-2.9113 2.9089-4.3869 0.35171-5.4674-0.82775-4.4913-1.8362" fill="#d0879d"/>
   <g fill="#0f141b">
    <path d="m84.377 213.69c0.10434 1.1809 1.259 1.7108 3.4031 1.7008 2.11-0.0112 4.1981-0.65448 4.2139-1.7396 0.0133-1.109-1.765-3.3749-3.9332-3.468-1.827-0.0892-3.8452 1.7371-3.6838 3.5068m3.3609 2.4163c-3.0352 0.0136-3.9998-1.0463-4.1203-2.3642-0.21685-2.4269 2.2837-4.3924 4.4724-4.2988 2.4206 0.10048 4.6809 2.4529 4.6576 4.2341-0.02922 1.6342-2.3724 2.362-5.0098 2.4289"/>
    <path d="m86.657 215.73c-0.73874-0.85535-0.79429-2.062-0.46679-3.0694 0.21935-0.6931 0.56152-0.61457 0.46812 0.0994-0.1604 1.2275-0.0075 2.0343 0.89518 2.9014z"/>
    <path d="m89.292 215.59c-0.31564-0.84253-0.49051-1.7285-0.42425-2.8872 0.04075-0.67434 0.43394-0.69349 0.48187-0.0192 0.09133 1.1634 0.23995 1.8882 0.6783 2.7378z"/>
    <path d="m111.15 209.77c-1.674 0.0413-4.0119 2.7323-3.9446 3.6662 0.0293 0.3732 1.2564 1.0076 4.1203 0.67455 2.045-0.2352 3.157-0.6587 3.1571-1.3346-0.011-1.202-1.8023-3.045-3.3328-3.006m-7e-3 -0.67949c1.8618-0.0424 4.0658 2.0212 4.0832 3.7013 0.0105 0.9937-0.98431 1.7282-3.7644 1.9989-2.6567 0.25388-4.9286-0.24822-5.0055-1.3158-0.0948-1.2727 2.4217-4.3268 4.6866-4.3844"/>
    <path d="m109.96 214.53c0.3413-0.8977 0.30972-1.8887-0.15084-2.6843-0.37344-0.63274-0.0278-0.86792 0.40062-0.26404 0.59246 0.84401 0.74931 1.9718 0.42911 2.9726z"/>
    <path d="m112.49 214.28c0.2467-1.0371 0.17474-1.8347-0.16098-2.6846-0.25313-0.64941 0.0855-0.80986 0.43279-0.20892 0.46067 0.79229 0.64905 1.9006 0.43168 2.7542z"/>
    <path d="m80.354 209.37c-4.5346 0.26872-8.1001-0.0167-10.852-0.578-6.2766-1.2758-7.8534-3.4264-7.8727-4.4783-0.28866-0.16918-0.54445-0.39558-0.75433-0.67813-0.42841 1.5163 0.93425 4.4285 8.4904 5.9479 2.5177 0.50276 7.0059 0.86759 11.044 0.30091 0.19918-0.0278 0.14259-0.52841-0.05617-0.51346"/>
   </g>
  </g>
 </g>
</svg>
