<?xml version="1.0" encoding="UTF-8"?>
<!-- Created with Inkscape (http://www.inkscape.org/) -->
<svg version="1.1" viewBox="0 0 258.29 237.78" xmlns="http://www.w3.org/2000/svg">
 <g transform="translate(-1.9171 -34.946)" stroke-width="1.7231">
  <g>
   <path d="m143.76 180.89c21.304-24.657-9.1337-66.943-61.661-62.586-55.27 4.584-66.28 51.12-47.026 66.599-26.494 29.144-16.482 78.909 49.239 79.936 79.891 1.2491 88.129-55.177 59.448-83.949" fill="#d18e09"/>
   <path d="m84.312 264.84c16.467 0.2579 29.882-1.9399 40.565-5.8349 14.622-30.275-50.688-56.465-57.959-55.69-7.895 0.84192-43.437 26.472-29.01 47.988 10.249 7.9517 25.507 13.211 46.404 13.537" fill="#fffbc6"/>
   <path d="m46.318 166.74c3.4432 8.12 1.3161 13.867-2.3934 15.355-3.6957 1.481-10.077-1.0343-13.458-9.0083-2.8607-6.7473-1.8282-13.565 2.725-15.453 3.6047-1.4948 9.6234 0.84355 13.127 9.1062" fill="#f08200"/>
   <path d="m133.21 176.12c-5.0927 8.3931-13.096 9.9566-17.199 7.4689-4.5738-2.7749-6.072-10.788-1.091-19 4.7369-7.8073 12.108-10.051 17.12-7.0119 4.713 2.8608 5.9465 10.67 1.17 18.544" fill="#f08200"/>
   <path d="m32.551 246.45c-4.0996 1.9569-8.1578 5.9808-8.0067 6.5908 0.15786 0.63953 4.0892 1.4672 7.2988 1.1838-0.12559 2.2542 0.32288 5.8658 1.1013 6.2748 0.77658 0.40899 6.2334-0.87117 8.5479-1.8556 1.2439 2.1907 3.4226 5.0531 4.4431 5.2335 0.94672 0.16672 4.4363-2.3899 6.2489-4.6442-8.2763-3.2044-14.783-7.608-19.633-12.783" fill="#d18e09"/>
   <path d="m209.03 132.78c-11.991-16.463-14.086-26.625-11.226-36.669 3.5137-12.347 12.941-21.153 26.382-25.579 1.6649 3.7439 3.4174 6.2455 5.6131 9.108 2.871-3.2059 5.5359-6.8417 7.4775-10.83 4.17 1.8608 9.2695 3.8847 13.63 4.9913 0.13029-4.2524-1.1855-9.5461-3.445-13.319 4.6527-3.7353 9.4568-9.2989 11.776-13.84-5.2937-0.59589-13.482-0.40898-19.193 0.72164-2.2868-4.5652-4.7593-8.0942-8.5873-11.582-1.6134 4.0463-3.1529 8.9498-3.7679 14.353-3.8916-1.5309-8.3828-2.2095-12.51-2.0944 2.0824 5.0925 3.5857 10.001 4.7696 14.919-16.252 6.0496-27.718 19.149-31.208 31.415-3.3144 11.644-2.3729 23.243 12.08 43.087 17.979 24.685 25.197 50.774 15.287 75.278-13.974 34.551-48.569 44.604-67.34 30.485-2.3453 2.7473-5.1288 5.3229-8.3623 7.6715 24.065 18.954 67.858 9.7523 85.31-33.397 10.527-26.025 6.8296-52.433-16.685-84.719" fill="#363433"/>
   <path d="m35.428 234.18c-5.4363-3.4552-10.11-7.4379-13.788-11.905 0.99654 10.866 6.23 21.234 16.261 29.02-3.7508-5.5961-4.1166-11.47-2.4724-17.115" fill="#b67b03"/>
   <path d="m152.58 238.03c-8.1888 3.8383-16.927 6.6888-25.881 8.6269 0.68894 3.9929 0.20774 8.127-1.8265 12.34 13.264-4.8419 22.31-12.304 27.707-20.966" fill="#b67b03"/>
   <path d="m126.7 246.66c-32.864 7.115-68.679 1.8849-91.272-12.479-1.6443 5.6441-1.2783 11.519 2.4724 17.115 10.247 7.9551 25.505 13.216 46.408 13.544 16.47 0.25593 29.883-1.9432 40.567-5.84 2.0342-4.2129 2.5171-8.3468 1.8264-12.34" fill="#ddd8ac"/>
   <path d="m132.02 255.95c-6.1425 3.0465-13.426 5.4415-21.931 6.9758 0.1791 3.6666 1.835 8.163 2.7113 8.388 0.84538 0.21623 4.0892-1.9965 6.4138-4.2026 3.2474 2.2026 9.3691 5.048 10.393 4.8212 0.90718-0.19929 2.0153-3.7198 2.3968-6.8469 3.1563 1.1683 7.273 2.0979 7.6646 1.4192 0.40702-0.7062-3.5394-7.2094-7.6476-10.555" fill="#b67b03"/>
   <path d="m45.939 263.87c0.94499 0.16671 4.4363-2.3899 6.2489-4.6443-7.206-2.7903-13.066-6.4894-17.665-10.816-3.4982 1.1134-7.3055 2.9758-9.7694 4.852 0.8625 0.58742 4.2558 1.2062 7.0908 0.95532-0.12559 2.2543 0.32484 5.8659 1.103 6.2748 0.77665 0.40899 6.2334-0.87117 8.5462-1.8556 1.2457 2.189 3.4243 5.0531 4.4449 5.2335" fill="#b67b03"/>
   <path d="m225.73 217.51c1.0945-2.7078 2.0256-5.4192 2.8074-8.1408-16.709 36.922-45.319 52.346-71.103 45.155-6.7645-1.8866-8.1682-5.2798-6.3348-9.7351-0.79373-0.48452-1.5721-0.99308-2.3179-1.5532-2.347 2.7474-5.1288 5.3211-8.3623 7.6715 24.065 18.954 67.858 9.7523 85.31-33.397" fill="#222221"/>
   <path d="m201.4 120.72c-5.1201-9.8692-5.6803-17.269-3.5926-24.604 3.5137-12.347 12.941-21.153 26.382-25.577 1.6666 3.7439 3.4192 6.2455 5.6132 9.1062 0.14261-0.15824 0.28197-0.32301 0.42395-0.48452-1.6838-2.9294-3.0995-6.8882-3.8332-9.754-0.52751-2.0618-1.0206-2.3401-2.9672-1.7543-21.799 6.5565-38.482 29.966-22.026 53.069" fill="#222221"/>
  </g>
  <path d="m74.232 153.17c-0.07206-0.92784 2.7662-1.1289 2.8589-0.31586 0.11494 1.0223-2.8022 1.0326-2.8589 0.31586" fill="#0f141b"/>
  <path d="m35.687 185.39c-26.038 29.716-14.886 77.62 48.65 78.614 77.332 1.2079 87.188-53.552 58.63-82.672-0.1615-0.16347-0.16867-0.42071-0.026-0.59654 20.477-24.476-9.565-65.779-60.704-61.537-54.363 4.5102-65 50.953-46.589 65.519 1.4776 1.1683 0.92094 1.9604-0.59276 0.84361-20.639-15.209-10.257-63.377 47.018-68.127 52.802-4.3813 84.583 38.244 62.717 63.36 29.041 29.02 20.648 86.168-60.516 84.898-68.899-1.0721-76.224-52.928-49.857-81.273z" fill="#0f141b"/>
  <path d="m76.024 158.25c-1.402 1.8247-3.0344 3.0669-4.7078 3.8314 1.5841 2.1923 3.8847 3.8487 4.7902 3.8401 0.98279-0.0124 3.9862-2.0584 5.7851-4.2216-2.1082-0.65288-4.1494-1.7886-5.8674-3.45" fill="#fff"/>
  <g fill="#0f141b">
   <path d="m62.619 162.3c-1.3006-0.83503-0.78866-1.6357 0.57211-0.90726 3.4312 1.8352 8.4 1.2028 12.046-3.3469 0.57557-0.71989 0.87453-0.68212 1.7336 0.0709 4.5858 4.0205 11.374 4.7781 15.646 1.6494 1.3367-0.9794 1.8504-0.26309 0.62194 0.84701-4.1065 3.7077-12.132 3.0583-17.121-1.3453-4.3658 5.3726-10.299 5.0874-13.498 3.0327"/>
   <path d="m82.434 161.83c-1.737 2.3231-5.0531 4.713-6.3485 4.7266-0.94329 0.0125-3.5085-1.5893-5.2404-4.2627l0.93807-0.46759c1.5069 2.0653 3.6528 3.4191 4.3108 3.4122 0.7302-6e-3 3.5171-1.6426 5.304-3.7543z"/>
   <path d="m45.457 167.11c-3.6012-8.4946-9.2781-9.9276-11.969-8.8108-3.3797 1.402-5.4381 6.8091-2.1907 14.469 3.7405 8.8193 10.008 9.632 12.342 8.6955 3.4896-1.4003 4.993-6.8641 1.8179-14.353m-15.862 6.3177c-2.8246-6.6612-2.0739-14.166 3.3299-16.405 4.5119-1.8693 10.818 1.4312 14.199 9.407 3.2284 7.6131 1.7234 14.433-2.969 16.312-3.878 1.5567-10.879-0.63432-14.56-9.3141"/>
   <path d="m132.4 175.62c4.486-7.3932 3.5719-14.771-0.75088-17.395-4.5943-2.7869-11.379-0.79043-15.979 6.7884-4.871 8.0291-3.2971 15.548 0.74229 17.998 3.3779 2.0498 10.768 1.2113 15.987-7.3915m1.5961 0.96561c-5.4174 8.9293-14.036 10.28-18.366 7.6527-5.0411-3.0583-6.6321-11.647-1.481-20.136 4.6665-7.6939 12.682-10.522 18.346-7.0857 5.8211 3.529 5.8608 12.385 1.5017 19.567"/>
   <path d="m123.55 259.24c3.5652-6.7421 3.1682-13.977-1.3882-21.313-12.527-20.167-50.84-34.518-55.127-33.926-5.6012 0.77316-24.95 13.933-30.288 28.982-2.6941 7.5977-0.95358 14.058 2.646 19.178l-2.9639-1.4794c-3.493-5.371-3.7388-12.075-1.5446-18.265 5.3777-15.165 25.478-29.179 31.941-29.777 5.5549-0.51513 44.292 13.9 57.032 34.41 4.5583 7.34 5.3847 14.847 2.3143 21.54z"/>
   <path d="m52.814 259.46c-1.8058 2.4037-5.565 5.4499-7.0083 5.1855-1.3006-0.23705-3.5256-3.2594-4.5824-5.2387-2.1804 0.88653-7.3932 2.4002-8.6492 1.7937-1.0996-0.53077-1.5154-4.3178-1.3917-6.2936-2.7645 0.13609-7.1527-0.52426-7.4224-1.7096-0.27131-1.1838 4.4207-5.3726 8.3364-7.2575l0.9295 0.99303c-3.8142 1.8574-7.7558 5.4467-7.6801 5.8933 0.04882 0.28524 3.0995 0.99653 5.7851 0.79041 1.2199-0.0925 1.3573 0.0853 1.3298 1.1357-0.05864 2.3126 0.39498 4.7867 0.86251 5.0135 0.73196 0.35232 5.1305-0.65463 7.7129-1.6443 0.55499-0.21491 0.80069-0.13029 1.1529 0.46043 1.3384 2.249 3.0445 4.3177 3.8538 4.4586 0.63568 0.11009 3.6254-1.8075 5.4844-4.0823z"/>
   <path d="m139.26 266.37m-28.529-3.5771c0.14587 3.56 1.7044 7.6424 2.249 7.7523 0.51905 0.10484 3.1253-1.4363 5.5687-3.6734 0.48584-0.44545 0.70784-0.47084 1.3196-0.0755 3.493 2.2524 8.766 4.5393 9.5719 4.347 0.49495-0.11853 1.4484-2.6615 1.9002-5.8314 0.12172-0.85736 0.30022-1.0343 1.2251-0.68902 3.024 1.1323 6.2386 1.7269 6.4328 1.4433 0.2631-0.38683-3.7163-6.6751-7.5478-9.7489l1.1597-0.70445c3.584 2.9913 8.5461 9.9086 7.6801 11.309-0.61868 1.0034-4.6064 0.29697-7.7764-0.96906-0.27874 2.4364-1.249 6.438-2.6512 6.749-1.3934 0.30933-7.4706-2.5669-10.586-4.7936-1.8349 1.8213-5.371 4.4998-6.7042 4.1837-1.5017-0.35753-3.0738-5.3898-3.1684-9.0787z"/>
   <path d="m140.98 250.45c25.274 19.045 67.292 7.6097 83.864-33.368 9.8278-24.301 7.6441-50.698-16.505-83.852-11.005-15.111-14.726-25.698-11.409-37.358 3.4793-12.226 12.568-21.06 26.706-25.864 0.76118-0.2579 1.0189-0.08534 1.3298 0.58221 1.4587 3.1271 3.1684 5.7506 4.8762 7.8571 2.6614-2.9518 4.6424-5.8469 6.7369-9.7092 0.27678-0.51188 0.69065-0.65978 1.5016-0.29567 3.7782 1.701 8.5462 3.5189 12.053 4.3229 0.0125-3.2404-1.1461-7.9517-3.0292-11.56-0.4142-0.79374-0.35037-0.97244 0.2442-1.4879 4.4345-3.8401 8.7505-9.0719 10.575-12.391-4.4879-0.41419-11.373-0.32628-17.269 0.61152-0.74573 0.11853-1.0739-0.03914-1.3746-0.61347-2.3522-4.4879-5.0634-7.9036-7.5066-10.201-1.414 3.4775-2.6494 7.8467-3.3452 12.759-0.15304 1.079-0.45847 1.091-1.2954 0.78866-3.4089-1.2285-7.615-1.8814-10.814-1.8849 1.6237 3.9551 3.1047 8.8794 4.2354 13.725 0.15499 0.66146 0.0723 0.91748-0.65463 1.1976-14.383 5.5255-26.603 17.725-30.354 30.909-2.9294 10.297-2.7182 22.211 11.953 42.352 19.311 26.515 24.995 52.597 15.457 76.188-14.8 36.591-50.526 44.681-68.689 30.635l0.94332-1.1202c19.288 13.704 52.542 2.9242 65.996-30.347 8.7833-21.713 4.5514-47.4-15.072-74.342-14.786-20.301-15.716-31.784-12.268-43.902 3.7679-13.242 15.91-25.739 31.243-31.576-0.96052-3.8504-2.4604-8.4087-4.4276-13.316-0.73715-1.8435-0.47932-2.0239 1.2628-2.0051 4.0892 0.04564 8.4739 0.95694 11.151 1.9432 0.41614-3.7232 1.4054-8.3176 3.2698-12.929 0.65634-1.6237 1.0085-1.6031 2.3418-0.31976 3.1837 3.0687 5.7026 6.5891 7.7267 10.716 4.9638-1.0189 11.783-1.2714 17.927-0.86766 2.0412 0.13416 2.2371 0.36405 1.3127 1.9588-2.78 4.7936-7.4827 9.8176-11.373 12.952 1.89 3.1546 3.2439 7.8605 3.4088 12.18 0.069 1.828-0.14588 2.017-1.8196 1.5446-4.0067-1.1289-8.6595-3.0119-12.331-4.7248-1.7267 3.4174-3.8401 6.5188-6.5891 9.7814-1.1065 1.3126-1.3402 1.2732-2.3384-0.0325-1.8469-2.4158-3.6476-5.4723-4.8074-8.005-12.294 4.28-21.735 12.68-25.224 24.943-2.9604 10.402 0.13937 20.923 11.091 35.959 22.605 31.038 28.265 57.517 16.926 85.556-18.289 45.217-63.597 52.616-86.871 33.485z"/>
   <path d="m47.404 152.84c3.6012-6.5445 10.3-5.2834 13.785-0.84877 0.71989 0.91924 1.4192 0.54639 0.97416-0.66323-2.5996-7.0496-13.823-7.3296-15.962 1.0051-0.32633 1.2697 0.59452 1.6133 1.2027 0.50666"/>
   <path d="m96.632 151.17c3.8676-6.0841 10.843-5.7937 15.484-0.56008 0.72679 0.81784 1.2594 0.52752 0.86765-0.50015-2.8229-7.3691-14.903-8.0271-17.605 0.31585-0.4125 1.2715 0.53258 1.8762 1.2525 0.74399"/>
  </g>
  <g fill="#363433">
   <path d="m37.376 169.86c-4.4621-4.9501-11.374-11.104-18.273-16.508 0.79377-2.1597 1.4536-4.3985 1.8968-6.6441 0.30048-1.5257-0.01383-1.8178-0.99652-0.37967-1.0773 1.579-2.1151 3.4122-3.0531 5.3624-0.92957-0.70615-1.8539-1.3968-2.768-2.0653 1.6632-3.9226 3.091-7.8674 4.0119-11.247 0.60989-2.2388 0.16854-2.457-1.1907-0.55812-1.9517 2.7283-3.8556 6.194-5.5101 9.8847-2.3436-1.6339-4.5703-3.0824-6.56-4.2472-2.3007-1.3453-2.8315-0.73193-1.0584 1.0687 2.0136 2.0446 4.1459 4.1476 6.3194 6.2489-1.4226 3.5806-2.5738 7.2404-3.2732 10.551-0.52399 2.4845-0.10322 2.6889 1.177 0.53077 1.524-2.5669 3.084-5.5874 4.5376-8.7351 0.87798 0.83672 1.756 1.67 2.6339 2.4964-0.88484 2.3367-1.5927 4.7216-2.0067 6.9671-0.38821 2.1082 0.18358 2.1477 1.2095 0.42787 0.98795-1.6546 1.969-3.493 2.8762-5.4467 5.4878 5.1219 10.738 9.8485 14.56 13.251-5.998 4.0582-14.489 11.555-19.988 17.221-1.6426 1.6924-1.2766 2.3076 0.85047 1.0343 7.3641-4.4054 18.613-12.352 24.568-16.841 1.0481-0.79034 1.0034-1.2972 0.03389-2.371"/>
   <path d="m178.53 145.53c-2.3194 0.59264-4.7078 1.2492-7.1391 1.9604-1.1477-4.438-2.7731-8.6817-4.8057-12.227-1.2301-2.1442-1.6803-1.9243-1.6151 0.28004 0.12379 4.2198 0.71311 8.8261 1.6958 13.388-2.4242 0.76457-4.8693 1.5773-7.3245 2.4364-0.99652-2.7697-2.2713-5.3932-3.6855-7.5032-1.146-1.7095-1.5892-1.3298-1.4964 0.2937 0.14263 2.4895 0.66831 5.4998 1.457 8.5444-11.862 4.3591-23.572 9.6767-32.584 15.309-1.5686 0.97928-1.5944 1.6271-0.10816 2.5927 10.397 6.7524 24.456 13.975 35.146 18.351 2.213 0.90719 2.3882 0.31781 0.51708-1.1615-9.5958-7.596-18.08-13.01-26.823-18.139 7.3279-2.9726 16.426-7.0462 25.574-11.428 0.73539 2.0052 1.5618 3.8899 2.4416 5.4913 1.0052 1.8265 1.5068 1.7955 1.646-0.2631 0.14262-2.0945-0.0964-4.4758-0.60631-6.9087 2.311-1.1254 4.6115-2.2627 6.8727-3.4038 1.0842 3.9844 2.4604 7.8314 4.0944 11.237 0.99829 2.0789 1.4038 2.0463 1.5052-0.31585 0.17518-4.1373-0.22858-8.7058-1.1272-13.202 2.5068-1.2955 4.9484-2.5807 7.2644-3.8349 3.4277-1.8556 2.9981-2.493-0.89858-1.4982"/>
   <path d="m53.762 130.42c4.4106-1.4639 17.893-19.342 15.135-32.003-3.3297-15.288-20.753-20.015-35.327-11.24-14.814 8.9207-15.682 23.553-11.829 30.082 6.5977 11.184 27.249 14.745 32.022 13.161"/>
  </g>
  <g>
   <path d="m51.488 124.22c3.3418-1.3728 12.615-17.812 10.168-27.013-2.6701-10.036-13.415-13.017-23.906-7.9721-13.539 6.5117-13.484 18.33-10.254 23.766 5.986 10.079 20.768 12.543 23.992 11.218" fill="#fffbc6"/>
   <path d="m113.31 127.72c8.2248 5.0994 50.316 0.4982 56.712-18.63 3.4484-10.311-3.5978-23.484-22.741-27.066-14.027-2.6235-26.622 2.1459-32.504 9.7334-10.75 13.864-5.1682 33.667-1.4656 35.962" fill="#363433"/>
   <path d="m117.86 122.87c7.7489 3.4569 40.984-2.3916 44.33-18.723 1.9965-9.7489-4.4054-17.286-17.448-19.168-12.367-1.7834-19.388 1.78-25.345 9.8107-8.309 11.204-3.6029 27.159-1.5378 28.079" fill="#fffbc6"/>
   <path d="m53.176 192.18c-0.5361-0.30608-2.2524 0.25268-4.2009 1.3814-1.2972-3.7146-4.3091-8.3175-5.0943-8.2507-0.54809 0.0456-1.4776 1.4931-2.2972 3.445-1.6408-1.469-3.5068-2.3864-4.0806-2.2336-0.63574 0.16672-0.6804 4.1289 0.23862 6.8589-1.8299 0.84538-4.6322 3.2096-5.9808 6.2817-2.9656 6.7541 11.228 19.138 16.036 12.957 4.3315-5.572 6.3761-19.872 5.3797-20.439" fill="#d18e09"/>
   <path d="m108.8 190.45c-3.7319-1.6512-9.6681-2.8934-13.704-3.0447-0.74223-2.9329-2.6048-5.8761-3.3452-5.914-0.74052-0.0325-2.0722 1.6889-2.7096 4.2386-2.1546-1.5464-4.2868-2.4363-5.2954-2.0067-1.0103 0.42787-1.5687 5.981-0.74569 10.048-2.2938-0.4982-4.8641-0.29046-5.2284 0.52556-0.46415 1.0395 1.2526 5.0772 4.7559 7.1889 1.2044 2.1735 2.6339 4.6475 4.6768 6.2627 8.3948 6.6408 30.083-13.544 21.595-17.298" fill="#d18e09"/>
   <path d="m61.757 97.596c-0.02932-0.13223-0.0527-0.26635-0.08769-0.3953-2.6701-10.036-13.415-13.017-23.906-7.9721-9.4413 4.5392-12.268 11.658-12.022 17.396 7.8142-9.735 22.037-15.756 36.016-9.029" fill="#ddd8ac"/>
   <path d="m144.74 85c-12.367-1.7851-19.388 1.7799-25.343 9.8107-0.8573 1.1563-1.5686 2.3625-2.1666 3.5978 15.615-5.8383 32.616-2.4123 43.84 9.0117 0.50147-1.0343 0.88316-2.1186 1.1168-3.2525 1.9965-9.7489-4.4054-17.286-17.448-19.168" fill="#ddd8ac"/>
  </g>
  <g fill="#b67b03">
   <path d="m52.918 191.97c-0.9656 5.462-3.0943 12.993-5.914 18.901-0.90722 1.9002-0.11494 2.433 0.86594 1.9965 5.7077-9.4722 6.0377-20.763 5.048-20.896"/>
   <path d="m43.527 185.44c1.5309 2.2576 3.5995 6.5427 4.2576 8.9533l1.1804-0.82637c-0.47586-2.5652-4.1151-8.1528-5.438-8.1269"/>
   <path d="m37.22 186.66c1.3556 1.0103 2.993 2.4862 3.8694 3.7301 0.14958-0.54836 0.32484-1.1443 0.53949-1.5773-1.6632-1.5291-3.603-2.3761-4.4087-2.1528"/>
   <path d="m78.04 194.07c1.1512 2.0979 2.9777 4.2714 5.0462 5.4914 0.6065 0.35754 0.82984 0.61673 1.1117 1.2079 1.1099 2.3178 2.3127 4.0101 3.6957 5.3434 1.1288 1.0894 0.66664 2.1494-0.65804 1.8643-1.9793-1.9382-3.6838-4.3539-4.5462-6.3468-3.4724-2.2319-5.6012-6.2386-4.6494-7.5598"/>
  </g>
  <g fill="#0f141b">
   <path d="m53.504 129.73c4.1871-1.4054 17.178-18.792 14.472-31.138-3.2628-14.874-19.895-19.23-33.996-10.738-14.486 8.7231-14.852 23.144-11.433 28.939 6.4431 10.921 26.494 14.436 30.957 12.938m-32.642-11.945c-4.2593-7.218-2.8005-22.204 12.232-31.255 14.407-8.675 33.14-4.5084 36.659 11.721 2.7835 12.84-10.716 31.191-15.78 32.871-4.6992 1.5601-26.182-1.5928-33.111-13.338"/>
   <path d="m51.212 123.6c2.7404-1.1271 12.039-16.879 9.5598-26.2-2.5309-9.51-12.783-12.25-22.674-7.493-12.859 6.1819-12.857 17.52-9.7849 22.688 6.0049 10.11 20.279 12.082 22.9 11.005m0.52913 1.2526c-3.5909 1.4776-18.957-1.0979-25.073-11.393-3.4398-5.7902-3.2148-18.192 10.747-24.909 10.948-5.2626 22.374-1.7577 25.093 8.4722 2.5257 9.4963-6.9001 26.239-10.768 27.83"/>
   <path d="m113.67 127.06c8.4636 5.2473 49.327 0.0723 55.456-18.26 3.1906-9.5409-2.9158-22.398-21.997-25.967-13.371-2.5602-25.822 2.0308-31.619 9.5083-10.775 13.895-4.883 32.828-1.8383 34.717m-0.74912 1.28c-4.56-2.8264-9.5015-23.577 1.0756-37.219 6.656-8.5822 20.294-12.309 33.411-9.8812 18.778 3.5137 27.294 16.707 23.477 28.119-6.5737 19.659-49.511 24.22-57.965 18.98"/>
   <path d="m118.17 122.29c7.5135 3.4707 39.967-2.6134 43.148-18.304 1.8573-9.1561-4.0308-16.384-16.682-18.227-10.805-1.5601-18.199 1.0928-24.528 9.6251-8.5359 11.508-2.9587 26.432-1.9382 26.904m-0.61543 1.1872c-2.7335-1.304-7.2506-18.032 1.0412-29.213 6.5531-8.8331 14.374-11.728 26.272-10.012 13.769 1.9965 20.279 10.024 18.21 20.136-3.4295 16.725-37.594 22.871-45.522 19.09"/>
   <path d="m36.859 170.29c-4.2302-4.6253-10.615-10.573-17.751-16.219-0.56697-0.44871-0.62025-0.66837-0.39355-1.2869 0.8075-2.1942 1.4879-4.4328 1.8006-5.883 0.1101-0.51058-0.0055-0.55811-0.28538-0.12047-0.77148 1.2148-1.6512 2.8246-2.6237 4.8281-0.34334 0.7113-0.69754 0.76463-1.28 0.32171-0.66661-0.50666-1.39-1.0584-2.055-1.5515-0.65462-0.48582-0.72676-0.64603-0.46414-1.2834 1.6941-4.0979 2.9363-7.5892 3.9621-10.826 0.2562-0.80233 0.06057-0.88485-0.41054-0.18756-1.7044 2.5291-3.5204 5.8383-5.2318 9.5374-0.27665 0.6011-0.65808 0.73883-1.2594 0.32171-2.225-1.5498-4.1511-2.8692-6.1562-4.0978-1.3333-0.81614-1.5481-0.64083-0.52575 0.38358 1.8745 1.8746 3.9174 3.828 6.139 5.9293 0.44324 0.41745 0.4588 0.65463 0.24545 1.2079-1.433 3.7215-2.5102 7.0497-3.2199 10.062-0.24402 1.0344-0.13597 1.1117 0.37114 0.21686 1.3746-2.4364 2.8539-5.395 4.2679-8.4397 0.35747-0.76625 0.69587-0.78 1.2783-0.22142 0.66666 0.63561 1.3865 1.3315 2.0515 1.9621 0.48264 0.45848 0.53949 0.59459 0.28342 1.2886-0.9227 2.4981-1.5189 4.553-1.9088 6.4396-0.19433 0.93819-0.09788 0.95877 0.40182 0.12697 0.79721-1.3298 1.7405-3.1648 2.6391-5.1596 0.35213-0.77831 0.65286-0.77316 1.3264-0.14589 4.1735 3.8795 9.0581 8.1923 13.915 12.513 0.76632 0.68387 0.78175 1.0412-0.03389 1.6082-6.1957 4.3024-14.584 11.79-19.705 16.737-0.83504 0.80755-0.68727 0.97596 0.31123 0.35427 7.529-4.6923 18.382-12.627 24.321-16.944 0.51546-0.37447 0.6151-0.78866-0.0055-1.469m0.99829-0.83848c1.3333 1.5412 1.2268 2.3041-0.12904 3.34-5.725 4.3744-17.111 12.372-24.709 16.75-3.3504 1.9295-4.3108 1.2955-1.4725-1.8711 4.9311-5.4998 13.077-12.597 19.319-16.908-4.8984-4.3676-9.1354-8.3674-13.338-12.283-0.73191 1.6786-1.5996 3.3418-2.6339 4.8384-1.9621 2.8385-2.6632 2.5533-2.1563-0.79373 0.32972-2.1873 0.9261-4.2371 1.8985-6.749-0.65975-0.62194-1.1632-1.0945-1.823-1.7216-1.1821 2.7268-2.7268 5.6407-4.2765 8.0668-2.189 3.4278-2.9037 2.9553-2.139-0.89168 0.65293-3.2851 1.6872-6.6288 3.1443-10.311-2.2422-2.0858-4.1649-3.9258-6.053-6.0308-2.658-2.9604-1.8642-3.8659 1.7044-1.8694 1.9347 1.0824 3.9105 2.3195 6.0771 3.8832 1.4278-3.2818 3.3814-6.8022 5.3109-9.3881 2.0153-2.6974 2.89-1.9758 2.1116 0.99823-0.92094 3.5224-2.1151 6.9551-3.8504 10.927 0.68381 0.50146 1.213 0.86596 1.9071 1.3917 0.93814-1.9295 1.8384-3.3814 2.8178-4.78 1.6185-2.3093 2.3505-1.7422 1.933 0.76287-0.33311 2.0136-0.92264 4.1373-1.7164 6.3417 7.2266 5.5926 13.895 11.47 18.073 16.297"/>
   <path d="m178.63 145.96c-2.0429 0.55682-4.3058 1.2113-6.6975 1.9399-0.65977 0.20123-0.97074 0.11466-1.2096-0.72855-1.2388-4.3796-2.7438-8.4379-4.5255-11.684-0.75088-1.3659-0.8883-1.3298-0.79726 0.0456 0.2579 3.9209 0.79035 8.333 1.701 12.867 0.14587 0.73194-0.039 0.96223-0.66661 1.1615-2.146 0.68204-4.4397 1.4467-6.5891 2.1924-0.63431 0.22012-0.88139 0.15825-1.1254-0.47216-1.0687-2.78-2.2524-5.2799-3.4364-7.1715-0.60957-0.97589-0.78859-0.8625-0.69579 0.026 0.23835 2.2749 0.73017 5.2111 1.4707 8.1544 0.15629 0.61672 0.0195 0.81268-0.59786 1.0515-5.4105 2.093-10.607 4.2563-15.44 6.4627-6.2756 2.865-11.938 5.8027-16.659 8.7534-0.9484 0.59263-0.93467 0.95186-0.0456 1.5309 9.8536 6.3985 23.903 13.79 34.91 18.465 0.7251 0.30804 0.76632 0.11522 0.0808-0.41418-8.9362-6.8915-18.547-13.02-26.131-17.463-1.4021-0.82128-1.4072-1.3316 0.21491-1.9948 6.9395-2.8367 15.427-6.5531 24.378-10.788 0.63041-0.29892 0.91917-0.25398 1.2079 0.52035 0.71481 1.9209 1.4948 3.8521 2.1769 5.0961 0.61022 1.1117 0.78527 1.1408 0.82473-0.0788 0.0521-1.7679-0.16671-4.0204-0.63365-6.3847-0.12697-0.64799-0.0125-0.87449 0.57243-1.158 2.0394-0.99478 4.2009-2.0584 6.2026-3.0635 0.67189-0.33669 0.9742-0.21816 1.2113 0.63237 1.091 3.914 2.4106 7.6784 3.8401 10.738 0.54118 1.1528 0.66661 1.1219 0.67183-0.14588 0.0124-3.7833-0.31455-8.3312-1.1512-12.711-0.11009-0.57244-0.0124-0.86244 0.6239-1.1769 2.6855-1.3264 4.8917-2.4483 6.8949-3.5171 2.1151-1.1289 1.9227-1.3711-0.58221-0.68726m-0.22337-0.92607c5.5532-1.268 5.8521-0.35558 1.2371 2.4656-2.0429 1.2474-4.2061 2.3934-6.8744 3.6717 0.88484 4.2438 1.2869 8.926 1.0326 12.912-0.21686 3.4018-0.82474 3.7284-2.488 0.52946-1.6185-3.1167-2.9673-6.646-3.9758-10.68-2.0103 1.0086-3.8573 1.9226-5.9054 2.9208 0.52229 2.469 0.65633 4.6733 0.48779 6.6682-0.24944 2.9363-1.1701 2.8194-2.5703 0.49625-0.79725-1.3264-1.6202-3.0258-2.3128-5.0497-8.7626 4.3058-16.855 7.9242-23.827 10.78 6.9757 4.1511 16.015 9.9241 25.717 17.605 3.7713 2.9844 3.0978 3.8349-1.0979 2.1511-11.29-4.5326-25.352-11.74-35.268-18.349-2.0205-1.347-1.7526-2.4981 0.0925-3.6888 8.3896-5.4174 19.629-10.505 32.315-15.087-0.71305-2.5755-1.2525-5.584-1.3281-8.175-0.0808-2.8573 0.75251-3.0428 2.4261-0.61672 1.4175 2.0567 2.6442 4.4276 3.5978 7.096 2.1787-0.75773 4.1923-1.4278 6.364-2.1168-0.99478-4.3332-1.5429-8.7798-1.5858-12.984-0.0326-3.5788 0.70621-3.7129 2.5755-0.58221 1.9931 3.3383 3.6528 7.34 4.7611 11.811 2.2267-0.72164 4.3039-1.244 6.627-1.7748"/>
   <path d="m48.179 211.34c3.3092-5.3314 5.2576-18.154 4.5686-18.508-0.2562-0.13223-1.8659 0.1791-3.9123 1.3952-1.1546 0.68726-1.5016 0.0651-0.42077-0.76977 1.8556-1.4295 4.2524-2.2766 5.1889-1.8092 1.6082 0.80578-1.0206 14.97-4.6957 20.179-1.1821 1.6752-1.8435 1.3093-0.7285-0.48778"/>
   <path d="m48.489 193.85c-1.2611-3.6853-4.0308-7.7866-4.6063-7.7866-0.35069 0-1.6391 2.2009-2.5429 4.7507-0.59622 1.6821-1.2422 1.4656-0.83332-0.27156 0.68896-2.9328 2.2645-5.8674 3.3624-5.9002 1.2663-0.039 4.3865 5.1527 5.6116 8.6251z"/>
   <path d="m41.408 189.37c-1.5755-1.4742-3.2163-2.2524-3.5017-2.1168-0.35896 0.17194-0.38476 3.1906 0.32635 5.6064 0.22012 0.74568 0.15297 0.93635-0.55669 1.3092-1.9519 1.0223-3.804 2.7542-4.9501 4.7197-0.98449 1.6907-1.6598 1.3969-0.77834-0.40052 1.2078-2.4673 3.3555-4.4362 5.1303-5.3606-0.97417-2.9604-0.84189-6.9156 0.20456-7.2713 0.77665-0.2644 3.0257 0.95532 4.5858 2.3847z"/>
   <path d="m86.242 207.39c-1.7199-1.4879-3.0531-3.23-4.1166-5.3881-3.5788-1.9862-5.7523-6.4483-5.0393-7.9758 0.47775-1.0223 3.1202-1.3573 5.2439-0.89519-0.91577-3.596-0.27132-9.3484 1.0567-9.9928 1.1047-0.53597 3.3074 0.17844 5.3674 1.7044 0.74741-2.3934 2.0052-4.0446 3.1081-3.9981 1.2233 0.0521 3.1098 3.3297 3.7542 6.0616 4.225 0.239 9.1114 1.2096 12.371 2.7421 1.7696 0.83162 1.4983 1.4845-0.34059 0.8076-3.2199-1.1856-7.5806-2.0619-11.993-2.3367-0.81612-0.0521-0.99482-0.13416-1.1958-0.8642-0.71475-2.6048-2.261-4.9398-2.7285-4.9706-0.30245-0.0195-1.2164 1.1151-1.8882 3.1924-0.33506 1.0395-0.61333 1.1494-1.4999 0.52426-1.9571-1.3762-3.7508-1.8469-4.2233-1.5463-0.55837 0.35558-1.1615 4.7954-0.57902 8.7591 0.16509 1.122 0.0638 1.3058-1.1391 1.122-1.9862-0.30414-3.725 6e-3 -3.9088 0.38488-0.29372 0.6063 1.103 4.0532 4.084 6.1321 0.33169 0.23185 0.48264 0.366 0.67013 0.72334 1.0601 2.0343 2.2628 3.7181 3.6236 5.2008 1.2096 1.3179 0.61166 1.6856-0.62714 0.61347"/>
  </g>
 </g>
</svg>
