<?xml version="1.0" encoding="UTF-8"?>
<!-- Created with Inkscape (http://www.inkscape.org/) -->
<svg version="1.1" viewBox="0 0 77.054 76.958" xmlns="http://www.w3.org/2000/svg">
 <g fill="#fff">
  <path d="m66.469 37.685c-1.0556-2.6571-1.5841-5.232-1.6175-8.1004-13.725-0.20587-25.083-8.8235-28.607-20.833-0.067943 15.151 7.759 31.277 30.224 28.934"/>
  <path d="m58.075 30.679c-1.5009-0.17451-3.2752 1.8517-3.7766 5.4125-0.60614 4.3043 0.41697 6.9095 2.0278 7.1691 1.4943 0.24028 3.1262-2.0679 3.7018-6.0601 0.49856-3.4583-0.48528-6.3505-1.953-6.5215"/>
  <path d="m49.58 28.503c-1.1594-0.24262-3.0422 1.2591-3.6577 4.1427-0.71994 3.3713 0.41251 5.6816 1.4983 5.9727 1.3484 0.36236 3.1058-1.1258 3.7589-4.5038 0.60199-3.1158-0.14469-5.3074-1.5994-5.6118"/>
  <path d="m42.721 23.243c-1.3361-0.18902-2.8878 1.6535-3.2029 4.691-0.33959 3.2724 0.90251 5.6759 2.0822 5.8588 1.0966 0.16988 2.6045-1.7659 2.9074-5.4941 0.27217-3.3549-0.85263-4.9233-1.7867-5.0558"/>
  <path d="m17.044 61.657c2.7137 0.15624 4.3124-1.1015 6.7243-4.0982 1.6833-2.091 3.5842-4.308 5.5993-4.1648 2.0144 0.14322 2.5424 1.3149 3.6161 2.6095 1.0737 1.295 2.3691 1.8027 3.6963 1.8219 1.4976 0.02105 3.4196-0.66361 4.7561-2.524 0.57855 3.2718 2.4779 5.7027 4.4927 5.8459 3.9352 0.27966 6.3117-5.6429 6.6002-11.122 1.3878 0.69778 2.8383 1.9253 4.4744 5.4271-0.08611-1.104-0.01725-2.3211 0.17602-3.736 1.7785-13.013-9.609-26.955-29.896-25.252-15.266 1.2818-27.223 14.967-20.059 32.065 0.91-1.7058 1.3439-3.7434 1.5476-5.7496 2.6802 4.4418 5.1146 8.6955 8.2721 8.8777"/>
  <path d="m1.6112 68.111c-1.8295 1.0722-1.6142 2.4903 1.319 2.6443 3.0423 0.16004 4.764 0.8601 6.2054 2.5955 3.0669 3.6934 20.575 3.7179 26.777 1.5643 2.8031-0.97274 3.7034-1.0975 7.5894-0.02667 6.4114 1.7665 10.658 1.6734 15.378 0.30048 3.7578-1.093 5.0356-1.5124 7.9949-1.6986 10.719-0.67516 11.611-2.9631 7.5345-4.1119-6.7276-1.8957-11.171-4.1506-14.758-8.1348-1.6944-1.882-2.478-3.6113-2.6475-5.7918-1.6361-3.5019-3.0866-4.7293-4.4744-5.4271-0.28844 5.4792-2.665 11.402-6.6005 11.122-2.0144-0.14322-3.9138-2.574-4.4927-5.8459-1.3361 1.8604-3.2581 2.5451-4.7557 2.524-1.3271-0.01916-2.6227-0.52696-3.6967-1.8219-1.0737-1.2946-1.6013-2.4663-3.6161-2.6095s-3.9158 2.0738-5.5993 4.1648c-2.4115 2.9967-4.0106 4.2548-6.7239 4.0982-3.1575-0.18224-5.5919-4.436-8.2721-8.8778-0.20374 2.0062-0.63757 4.0439-1.5476 5.7496 0.14923 0.35597 0.30344 0.71289 0.47002 1.0716 0.25228 4.268-1.0806 5.58-6.0835 8.5113"/>
  <path d="m48.545 41.864c-2.6282-0.33171-6.3914 3.0013-7.1143 8.5248-0.78561 5.9988 1.5088 10.356 4.349 10.727 3.0836 0.40298 5.7871-3.5126 6.534-9.3782 0.69659-5.4679-1.3085-9.5641-3.7687-9.874"/>
  <path d="m6.5579 40.719c2.8254 2.5812 3.2524 12.843 0.6663 17.81-2.2448-4.0215-3.0478-11.305-0.6663-17.81"/>
  <path d="m67.421 66.814c-5.6898-2.5806-9.6629-6.2738-10.654-11.527-0.51535-1.2739-1.1503-2.3021-1.7924-3.1103-0.90236 0.27156-1.8343 0.53141-2.7865 0.78041-0.87422 5.1531-3.256 8.2056-5.574 8.2511-2.0157 0.03982-4.567-1.557-5.2804-6.0617-6.5855 0.97415-13.578 1.4159-20.171 1.1463-1.3255 2.6858-2.7532 5.4434-4.1191 5.3645-2.6113-0.15036-4.7277-3.0864-6.8978-6.6094-0.56208-0.11234-1.118-0.22976-1.6631-0.35729-0.2483 1.3688-0.59611 2.5585-1.3162 3.9259 0.30072 0.70165 0.5274 0.98431 0.6585 1.3012-0.28305 3.3251-0.22849 4.1787-3.1158 6.1338-1.2519 0.84762-1.0217 2.1044 1.2059 2.0197 2.8763-0.10944 6.1715 0.90888 8.6271 3.0016 3.9389 3.3569 12.965 2.8057 20.895-1.3251 4.2291-2.2027 7.3773-1.5901 12.219 0.66168 4.3032 2.0006 10.922 1.6952 19.932-1.2032 2.2377-0.71979 2.2435-1.2986-0.1681-2.3923"/>
  <path d="m41.462 55.126c0.55767 3.448 2.2992 5.726 4.3173 5.9898 2.8614 0.37393 5.3942-2.9715 6.3417-8.1415-3.3213 0.86685-6.9227 1.5947-10.659 2.1517"/>
  <path d="m7.2251 58.529c0.55956-1.075 0.9779-2.3985 1.2613-3.8379-0.99554-0.23277-1.9605-0.4916-2.8927-0.77657 0.36675 1.7753 0.92863 3.3549 1.6314 4.6145"/>
  <path d="m41.462 55.126c-2.7543 0.41027-5.5813 0.7279-8.4218 0.93927 1.0627 1.2458 2.3353 1.7411 3.6395 1.7596 1.4976 0.02146 3.42-0.66328 4.7561-2.5237z"/>
  <path d="m10.146 55.048c2.1701 3.5231 4.2865 6.4591 6.8978 6.6094 2.7133 0.15661 4.3124-1.1015 6.7239-4.0982 0.32022-0.39757 0.64846-0.79992 0.98398-1.1894-5.1415-0.015254-10.13-0.42976-14.606-1.3219"/>
  <path d="m57.004 55.452c-0.08611-1.104-0.01725-2.3211 0.17602-3.736 0.01226-0.08499 0.02061-0.17018 0.03116-0.25509-0.69917 0.23679-1.4168 0.46693-2.1537 0.68937 0.62278 0.79452 1.2689 1.8507 1.9465 3.3018"/>
 </g>
 <g fill="#0f141b">
  <path d="m16.771 42.173c-0.32912-0.01185-0.70502 0.60036-0.76211 1.6585-0.06269 1.1739 0.19108 1.8752 0.4647 1.8981 0.46733 0.03925 0.7894-0.69571 0.84912-1.7955 0.05921-1.0905-0.24377-1.7502-0.5517-1.7611"/>
  <path d="m27.887 42.332c-0.3733 0.0011-0.70368 0.82441-0.72495 1.7773-0.0229 0.9758 0.28481 1.8364 0.66871 1.8359 0.33309-2.39e-4 0.69473-0.6679 0.70894-1.8976 0.01328-1.1422-0.33581-1.7154-0.65268-1.7155"/>
  <path d="m66.911 73.132c-3.0977 0.1972-4.6043 0.70701-8.0706 1.7213-5.0904 1.49-8.61 1.5859-15.212-0.27412-3.533-0.99515-4.6615-1.031-7.8314 0.01641-6.4204 2.1226-23.872 2.1852-26.406-1.4531-1.4297-2.0526-3.0638-2.626-6.3734-2.7944-2.5762-0.12925-2.5618-1.1246-1.2194-1.9114 3.9863-2.3354 5.9454-3.7475 6.2027-6.2767 0.45465-4.4721-3.1628-7.535-2.359-15.441 1.1303-11.114 10.404-18.917 21.693-19.864 18.046-1.5162 31.479 10.495 29.52 24.82-0.61038 4.4667-0.0051 7.0041 2.487 9.7725 3.8365 4.2603 7.8404 6.3363 15.02 8.278 1.367 0.36972 2.0555 0.71925 1.9906 1.1886-0.12783 0.92128-2.2515 1.7604-9.4444 2.2188m7.6949-4.0862c-6.8137-2.0432-11.187-4.1958-14.706-8.1035-2.3272-2.5842-3.0383-4.4876-2.397-9.1841 2.1001-15.363-11.766-27.189-30.227-25.638-12.281 1.0306-21.406 9.3172-22.506 20.132-0.95642 9.4048 2.9387 12.062 2.5465 15.917-0.18607 1.8291-1.9778 3.3243-5.8698 5.6044-2.1874 1.2815-2.0527 3.1767 1.4911 3.3371 2.5792 0.1387 4.5177 0.84181 5.9388 2.5537 3.5767 4.3066 19.825 3.9123 27.123 1.541 2.6072-0.84745 4.3987-0.86063 7.4349-0.02402 7.8413 2.1602 9.7224 1.9972 15.494 0.31597 3.1888-0.92925 5.169-1.5471 7.9153-1.7112 7.2239-0.43263 10.001-1.4059 10.198-2.8311 0.10432-0.75244-0.47047-1.3197-2.4364-1.9093"/>
  <path d="m7.0349 58.293c2.188-3.6901 1.9815-15.457-0.62025-17.137l0.24287-0.85568c3.2153 1.8394 3.3259 14.829 0.73212 18.777z"/>
  <path d="m41.717 50.446c-0.80552 6.1542 1.695 9.9632 4.1587 10.285 2.7517 0.35938 5.3598-3.2072 6.1006-9.0243 0.69021-5.4205-1.0128-9.1602-3.4914-9.4729-2.5276-0.31379-6.0964 3.0845-6.7679 8.2117m3.9971 11.082c-3.2262-0.4214-5.5454-4.6629-4.6959-11.153 0.81676-6.238 4.9934-9.2773 7.5892-8.9488 2.715 0.34288 4.9151 3.8674 4.0893 10.354-0.85815 6.7381-3.8241 10.167-6.9826 9.7479"/>
  <path d="m41.547 55.691c-3.0159 3.3133-6.7042 3.6119-9.4837-0.31747-1.6353-2.3124-4.1912-2.5285-7.5399 1.7395-5.8942 7.5139-10.612 6.5734-15.794-4.0685l0.11282-1.108c5.4641 11.365 9.9863 11.459 15.237 4.7655 3.4891-4.4478 6.364-4.7008 8.4874-1.7209 2.3563 3.307 5.5906 3.4353 8.8365 0.07466z"/>
  <path d="m57.172 57.647c-1.0714-3.998-2.4983-6.0435-4.6954-7.2325l0.0201-0.84696c2.2904 1.1552 3.7008 2.9683 4.5922 5.9606z"/>
 </g>
 <g fill="#fff">
  <path d="m22.888 0.73128c-1.6354-0.9514-3.7301 0.24482-5.3638 1.9988-2.5175 2.7026-3.5909 7.6978-4.3611 15.137-0.33166-0.30683-0.68323-0.45869-1.0472-0.4169-2.4396 0.27957-3.6475 11.46 0.10241 17.209 1.1667 1.7887 6.8576-0.95431 6.7894-4.4479-0.17762-9.0957 1.5356-15.535 3.9398-21.825 1.6797-4.395 1.5073-6.7449-0.05952-7.6558"/>
  <path d="m53.335 2.3444c-1.0304-1.057-2.9443-0.97444-4.9827-0.014476-4.1561 1.9577-8.1882 7.4762-11.397 16.868-0.43137-1.2415-1.0063-2.0102-1.6689-2.0258-2.9631-0.06931-5.5338 9.7757-2.6994 17.577 0.89925 2.4741 3.9467 2.1901 6.2211-4.0637 3.271-8.9946 7.7509-16.509 12.168-21.196 3.1111-3.3016 3.517-5.9565 2.3585-7.1441"/>
  <path d="m22.984 0.65307c1.0428 2.327 0.23744 4.6078-1.6509 8.427-2.4116 4.8789-4.28 15.416-3.7988 21.528 0.10035 1.2723 1.7783 1.2913 1.6744-0.32399-0.4744-7.3599 1.146-15.781 3.2639-20.698 2.3097-5.3619 2.0023-7.9765 0.51153-8.9328"/>
  <path d="m12.323 17.554c2.2504 2.6208 2.5247 9.7543 1.9949 15.166-0.13134 1.3438 1.2772 1.2436 1.3723-0.10955 0.47072-6.6543-0.52514-14.255-3.3672-15.056"/>
  <path d="m35.231 17.139c2.2692 3.4204 1.5767 11.675-0.28434 16.672-0.46409 1.2462 0.95009 1.6804 1.3989 0.41136 2.8473-8.0443 1.5401-16.582-1.1145-17.083"/>
  <path d="m38.93 30.779c3.251-8.4699 6.5006-15.749 12.037-21.206 2.4807-2.4456 3.8281-5.2434 2.7577-6.7332 0.078476 1.7418-1.0089 3.5478-3.5054 5.9048-5.5713 5.2602-9.929 12.992-12.679 20.66l-0.20528 0.86404c-0.39137 1.2474 1.0547 1.9167 1.5948 0.5098"/>
 </g>
 <g fill="#0f141b">
  <path d="m32.4 34.819c-3.0285-6.7606-1.0266-18.168 2.9713-18.075 3.1019 0.05889 3.872 10.796 1.143 17.144-0.38625 0.89902-0.70663 0.78601-0.37293-0.1281 2.5915-7.1051 1.0876-16.211-0.87524-16.238-2.693-0.06319-5.0908 9.573-2.4912 17.156 0.30743 0.89664 8e-4 0.97811-0.37486 0.14047"/>
  <path d="m12.047 34.763c-4.0448-5.6305-3.0194-17.347 0.029184-17.697 2.8018-0.31885 4.6751 8.217 3.6026 15.608-0.12362 0.85485-0.47622 0.81805-0.39572-0.04011 0.71094-7.5829-1.0603-15.029-3.1556-14.784-2.139 0.24551-3.3115 10.721 0.26267 16.708 0.39662 0.6657 0.08624 0.80194-0.34314 0.20401"/>
  <path d="m12.834 17.615c0.56831-6.8886 1.6371-12.26 4.3695-15.206 2.267-2.4423 4.5005-2.8364 5.8817-2.0329 1.6103 0.93606 2.1596 3.2001 0.20369 8.1199-2.0395 5.1301-3.9783 11.648-4.0824 21.71-0.0091 0.89788-0.37949 0.90134-0.39883 0.01167-0.22394-10.154 1.8825-16.767 3.8647-21.953 1.645-4.3029 1.3463-6.4362 0.020823-7.2066-1.1787-0.68504-2.8998-0.275-4.928 1.9022-2.5779 2.7674-3.6692 8.0286-4.3193 15.145z"/>
  <path d="m36.784 18.638c2.931-9.0161 6.8916-14.633 11.3-16.711 2.5404-1.1971 4.8933-0.61027 5.6309 0.14576 1.2408 1.2726 1.189 3.8701-2.48 7.6873-5.1876 5.3986-8.8153 12.297-12.239 20.982-0.35983 0.91326-0.68421 0.82751-0.37693-0.11708 2.8501-8.7638 7.383-16.389 12.096-21.391 3.3335-3.5383 3.4392-5.4954 2.3488-6.6136-0.82177-0.84206-2.4836-0.93366-4.5473 0.037812-4.3905 2.0683-8.3118 7.9627-11.37 17.024z"/>
 </g>
 <g fill="#fff">
  <path d="m17.044 61.657c2.7137 0.15624 4.3124-1.1015 6.7243-4.0982 1.6833-2.091 3.5842-4.308 5.5993-4.1648 2.0144 0.14322 2.5424 1.3149 3.6161 2.6095 1.0737 1.295 2.3691 1.8027 3.6963 1.8219 1.4976 0.02105 3.4196-0.66361 4.7561-2.524 0.57855 3.2718 2.4779 5.7027 4.4927 5.8459 3.9352 0.27966 6.3117-5.6429 6.6002-11.122 1.3878 0.69778 2.8383 1.9253 4.4744 5.4271-0.08611-1.104-0.01725-2.3211 0.17602-3.736 1.7785-13.013-9.609-26.955-29.896-25.252-15.266 1.2818-27.223 14.967-20.059 32.065 0.91-1.7058 1.3439-3.7434 1.5476-5.7496 2.6802 4.4418 5.1146 8.6955 8.2721 8.8777"/>
  <path d="m1.6112 68.111c-1.8295 1.0722-1.6142 2.4903 1.319 2.6443 3.0423 0.16004 4.764 0.8601 6.2054 2.5955 3.0669 3.6934 20.575 3.7179 26.777 1.5643 2.8031-0.97274 3.7034-1.0975 7.5894-0.02667 6.4114 1.7665 10.658 1.6734 15.378 0.30048 3.7578-1.093 5.0356-1.5124 7.9949-1.6986 10.719-0.67516 11.611-2.9631 7.5345-4.1119-6.7276-1.8957-11.171-4.1506-14.758-8.1348-1.6944-1.882-2.478-3.6113-2.6475-5.7918-1.6361-3.5019-3.0866-4.7293-4.4744-5.4271-0.28844 5.4792-2.665 11.402-6.6005 11.122-2.0144-0.14322-3.9138-2.574-4.4927-5.8459-1.3361 1.8604-3.2581 2.5451-4.7557 2.524-1.3271-0.01916-2.6227-0.52696-3.6967-1.8219-1.0737-1.2946-1.6013-2.4663-3.6161-2.6095s-3.9158 2.0738-5.5993 4.1648c-2.4115 2.9967-4.0106 4.2548-6.7239 4.0982-3.1575-0.18224-5.5919-4.436-8.2721-8.8778-0.20374 2.0062-0.63757 4.0439-1.5476 5.7496 0.14923 0.35597 0.30344 0.71289 0.47002 1.0716 0.25228 4.268-1.0806 5.58-6.0835 8.5113"/>
  <path d="m48.545 41.864c-2.6282-0.33171-6.3914 3.0013-7.1143 8.5248-0.78561 5.9988 1.5088 10.356 4.349 10.727 3.0836 0.40298 5.7871-3.5126 6.534-9.3782 0.69659-5.4679-1.3085-9.5641-3.7687-9.874"/>
  <path d="m6.5579 40.719c2.8254 2.5812 3.2524 12.843 0.6663 17.81-2.2448-4.0215-3.0478-11.305-0.6663-17.81"/>
  <path d="m67.421 66.814c-5.6898-2.5806-9.6629-6.2738-10.654-11.527-0.51535-1.2739-1.1503-2.3021-1.7924-3.1103-0.90236 0.27156-1.8343 0.53141-2.7865 0.78041-0.87422 5.1531-3.256 8.2056-5.574 8.2511-2.0157 0.03982-4.567-1.557-5.2804-6.0617-6.5855 0.97415-13.578 1.4159-20.171 1.1463-1.3255 2.6858-2.7532 5.4434-4.1191 5.3645-2.6113-0.15036-4.7277-3.0864-6.8978-6.6094-0.56208-0.11234-1.118-0.22976-1.6631-0.35729-0.2483 1.3688-0.59611 2.5585-1.3162 3.9259 0.30072 0.70165 0.5274 0.98431 0.6585 1.3012-0.28305 3.3251-0.22849 4.1787-3.1158 6.1338-1.2519 0.84762-1.0217 2.1044 1.2059 2.0197 2.8763-0.10944 6.1715 0.90888 8.6271 3.0016 3.9389 3.3569 12.965 2.8057 20.895-1.3251 4.2291-2.2027 7.3773-1.5901 12.219 0.66168 4.3032 2.0006 10.922 1.6952 19.932-1.2032 2.2377-0.71979 2.2435-1.2986-0.1681-2.3923"/>
  <path d="m41.462 55.126c0.55767 3.448 2.2992 5.726 4.3173 5.9898 2.8614 0.37393 5.3942-2.9715 6.3417-8.1415-3.3213 0.86685-6.9227 1.5947-10.659 2.1517"/>
  <path d="m7.2251 58.529c0.55956-1.075 0.9779-2.3985 1.2613-3.8379-0.99554-0.23277-1.9605-0.4916-2.8927-0.77657 0.36675 1.7753 0.92863 3.3549 1.6314 4.6145"/>
  <path d="m41.462 55.126c-2.7543 0.41027-5.5813 0.7279-8.4218 0.93927 1.0627 1.2458 2.3353 1.7411 3.6395 1.7596 1.4976 0.02146 3.42-0.66328 4.7561-2.5237z"/>
  <path d="m10.146 55.048c2.1701 3.5231 4.2865 6.4591 6.8978 6.6094 2.7133 0.15661 4.3124-1.1015 6.7239-4.0982 0.32022-0.39757 0.64846-0.79992 0.98398-1.1894-5.1415-0.015254-10.13-0.42976-14.606-1.3219"/>
  <path d="m57.004 55.452c-0.08611-1.104-0.01725-2.3211 0.17602-3.736 0.01226-0.08499 0.02061-0.17018 0.03116-0.25509-0.69917 0.23679-1.4168 0.46693-2.1537 0.68937 0.62278 0.79452 1.2689 1.8507 1.9465 3.3018"/>
 </g>
 <g fill="#0f141b">
  <path d="m16.771 42.173c-0.32912-0.01185-0.70502 0.60036-0.76211 1.6585-0.06269 1.1739 0.19108 1.8752 0.4647 1.8981 0.46733 0.03925 0.7894-0.69571 0.84912-1.7955 0.05921-1.0905-0.24377-1.7502-0.5517-1.7611"/>
  <path d="m27.887 42.332c-0.3733 0.0011-0.70368 0.82441-0.72495 1.7773-0.0229 0.9758 0.28481 1.8364 0.66871 1.8359 0.33309-2.39e-4 0.69473-0.6679 0.70894-1.8976 0.01328-1.1422-0.33581-1.7154-0.65268-1.7155"/>
  <path d="m66.911 73.132c-3.0977 0.1972-4.6043 0.70701-8.0706 1.7213-5.0904 1.49-8.61 1.5859-15.212-0.27412-3.533-0.99515-4.6615-1.031-7.8314 0.01641-6.4204 2.1226-23.872 2.1852-26.406-1.4531-1.4297-2.0526-3.0638-2.626-6.3734-2.7944-2.5762-0.12925-2.5618-1.1246-1.2194-1.9114 3.9863-2.3354 5.9454-3.7475 6.2027-6.2767 0.45465-4.4721-3.1628-7.535-2.359-15.441 1.1303-11.114 10.404-18.917 21.693-19.864 18.046-1.5162 31.479 10.495 29.52 24.82-0.61038 4.4667-0.0051 7.0041 2.487 9.7725 3.8365 4.2603 7.8404 6.3363 15.02 8.278 1.367 0.36972 2.0555 0.71925 1.9906 1.1886-0.12783 0.92128-2.2515 1.7604-9.4444 2.2188m7.6949-4.0862c-6.8137-2.0432-11.187-4.1958-14.706-8.1035-2.3272-2.5842-3.0383-4.4876-2.397-9.1841 2.1001-15.363-11.766-27.189-30.227-25.638-12.281 1.0306-21.406 9.3172-22.506 20.132-0.95642 9.4048 2.9387 12.062 2.5465 15.917-0.18607 1.8291-1.9778 3.3243-5.8698 5.6044-2.1874 1.2815-2.0527 3.1767 1.4911 3.3371 2.5792 0.1387 4.5177 0.84181 5.9388 2.5537 3.5767 4.3066 19.825 3.9123 27.123 1.541 2.6072-0.84745 4.3987-0.86063 7.4349-0.02402 7.8413 2.1602 9.7224 1.9972 15.494 0.31597 3.1888-0.92925 5.169-1.5471 7.9153-1.7112 7.2239-0.43263 10.001-1.4059 10.198-2.8311 0.10432-0.75244-0.47047-1.3197-2.4364-1.9093"/>
  <path d="m7.0349 58.293c2.188-3.6901 1.9815-15.457-0.62025-17.137l0.24287-0.85568c3.2153 1.8394 3.3259 14.829 0.73212 18.777z"/>
  <path d="m41.717 50.446c-0.80552 6.1542 1.695 9.9632 4.1587 10.285 2.7517 0.35938 5.3598-3.2072 6.1006-9.0243 0.69021-5.4205-1.0128-9.1602-3.4914-9.4729-2.5276-0.31379-6.0964 3.0845-6.7679 8.2117m3.9971 11.082c-3.2262-0.4214-5.5454-4.6629-4.6959-11.153 0.81676-6.238 4.9934-9.2773 7.5892-8.9488 2.715 0.34288 4.9151 3.8674 4.0893 10.354-0.85815 6.7381-3.8241 10.167-6.9826 9.7479"/>
  <path d="m41.547 55.691c-3.0159 3.3133-6.7042 3.6119-9.4837-0.31747-1.6353-2.3124-4.1912-2.5285-7.5399 1.7395-5.8942 7.5139-10.612 6.5734-15.794-4.0685l0.11282-1.108c5.4641 11.365 9.9863 11.459 15.237 4.7655 3.4891-4.4478 6.364-4.7008 8.4874-1.7209 2.3563 3.307 5.5906 3.4353 8.8365 0.07466z"/>
  <path d="m57.172 57.647c-1.0714-3.998-2.4983-6.0435-4.6954-7.2325l0.0201-0.84696c2.2904 1.1552 3.7008 2.9683 4.5922 5.9606z"/>
 </g>
 <g fill="#fff">
  <path d="m22.888 0.73128c-1.6354-0.9514-3.7301 0.24482-5.3638 1.9988-2.5175 2.7026-3.5909 7.6978-4.3611 15.137-0.33166-0.30683-0.68323-0.45869-1.0472-0.4169-2.4396 0.27957-3.6475 11.46 0.10241 17.209 1.1667 1.7887 6.8576-0.95431 6.7894-4.4479-0.17762-9.0957 1.5356-15.535 3.9398-21.825 1.6797-4.395 1.5073-6.7449-0.05952-7.6558"/>
  <path d="m53.335 2.3444c-1.0304-1.057-2.9443-0.97444-4.9827-0.014476-4.1561 1.9577-8.1882 7.4762-11.397 16.868-0.43137-1.2415-1.0063-2.0102-1.6689-2.0258-2.9631-0.06931-5.5338 9.7757-2.6994 17.577 0.89925 2.4741 3.9467 2.1901 6.2211-4.0637 3.271-8.9946 7.7509-16.509 12.168-21.196 3.1111-3.3016 3.517-5.9565 2.3585-7.1441"/>
  <path d="m22.984 0.65307c1.0428 2.327 0.23744 4.6078-1.6509 8.427-2.4116 4.8789-4.28 15.416-3.7988 21.528 0.10035 1.2723 1.7783 1.2913 1.6744-0.32399-0.4744-7.3599 1.146-15.781 3.2639-20.698 2.3097-5.3619 2.0023-7.9765 0.51153-8.9328"/>
  <path d="m12.323 17.554c2.2504 2.6208 2.5247 9.7543 1.9949 15.166-0.13134 1.3438 1.2772 1.2436 1.3723-0.10955 0.47072-6.6543-0.52514-14.255-3.3672-15.056"/>
  <path d="m35.231 17.139c2.2692 3.4204 1.5767 11.675-0.28434 16.672-0.46409 1.2462 0.95009 1.6804 1.3989 0.41136 2.8473-8.0443 1.5401-16.582-1.1145-17.083"/>
  <path d="m38.93 30.779c3.251-8.4699 6.5006-15.749 12.037-21.206 2.4807-2.4456 3.8281-5.2434 2.7577-6.7332 0.078476 1.7418-1.0089 3.5478-3.5054 5.9048-5.5713 5.2602-9.929 12.992-12.679 20.66l-0.20528 0.86404c-0.39137 1.2474 1.0547 1.9167 1.5948 0.5098"/>
 </g>
 <g fill="#0f141b">
  <path d="m32.4 34.819c-3.0285-6.7606-1.0266-18.168 2.9713-18.075 3.1019 0.05889 3.872 10.796 1.143 17.144-0.38625 0.89902-0.70663 0.78601-0.37293-0.1281 2.5915-7.1051 1.0876-16.211-0.87524-16.238-2.693-0.06319-5.0908 9.573-2.4912 17.156 0.30743 0.89664 8e-4 0.97811-0.37486 0.14047"/>
  <path d="m12.047 34.763c-4.0448-5.6305-3.0194-17.347 0.029184-17.697 2.8018-0.31885 4.6751 8.217 3.6026 15.608-0.12362 0.85485-0.47622 0.81805-0.39572-0.04011 0.71094-7.5829-1.0603-15.029-3.1556-14.784-2.139 0.24551-3.3115 10.721 0.26267 16.708 0.39662 0.6657 0.08624 0.80194-0.34314 0.20401"/>
  <path d="m12.834 17.615c0.56831-6.8886 1.6371-12.26 4.3695-15.206 2.267-2.4423 4.5005-2.8364 5.8817-2.0329 1.6103 0.93606 2.1596 3.2001 0.20369 8.1199-2.0395 5.1301-3.9783 11.648-4.0824 21.71-0.0091 0.89788-0.37949 0.90134-0.39883 0.01167-0.22394-10.154 1.8825-16.767 3.8647-21.953 1.645-4.3029 1.3463-6.4362 0.020823-7.2066-1.1787-0.68504-2.8998-0.275-4.928 1.9022-2.5779 2.7674-3.6692 8.0286-4.3193 15.145z"/>
  <path d="m36.784 18.638c2.931-9.0161 6.8916-14.633 11.3-16.711 2.5404-1.1971 4.8933-0.61027 5.6309 0.14576 1.2408 1.2726 1.189 3.8701-2.48 7.6873-5.1876 5.3986-8.8153 12.297-12.239 20.982-0.35983 0.91326-0.68421 0.82751-0.37693-0.11708 2.8501-8.7638 7.383-16.389 12.096-21.391 3.3335-3.5383 3.4392-5.4954 2.3488-6.6136-0.82177-0.84206-2.4836-0.93366-4.5473 0.037812-4.3905 2.0683-8.3118 7.9627-11.37 17.024z"/>
 </g>
 <path d="m17.044 61.657c2.7137 0.15624 4.3124-1.1015 6.7243-4.0982 1.6833-2.091 3.5842-4.308 5.5993-4.1648 2.0144 0.14322 2.5424 1.3149 3.6161 2.6095 1.0737 1.295 2.3691 1.8027 3.6963 1.8219 1.4976 0.02105 3.4196-0.66361 4.7561-2.524 0.57855 3.2718 2.4779 5.7027 4.4927 5.8459 3.9352 0.27966 6.3117-5.6429 6.6002-11.122 1.3878 0.69778 2.8383 1.9253 4.4744 5.4271-0.08611-1.104-0.01725-2.3211 0.17602-3.736 1.7785-13.013-9.609-26.955-29.896-25.252-15.266 1.2818-27.223 14.967-20.059 32.065 0.91-1.7058 1.3439-3.7434 1.5476-5.7496 2.6802 4.4418 5.1146 8.6955 8.2721 8.8777" fill="#e7d5e8"/>
 <path d="m1.6112 68.111c-1.8295 1.0722-1.6142 2.4903 1.319 2.6443 3.0423 0.16004 4.764 0.8601 6.2054 2.5955 3.0669 3.6934 20.575 3.7179 26.777 1.5643 2.8031-0.97274 3.7034-1.0975 7.5894-0.02667 6.4114 1.7665 10.658 1.6734 15.378 0.30048 3.7578-1.093 5.0356-1.5124 7.9949-1.6986 10.719-0.67516 11.611-2.9631 7.5345-4.1119-6.7276-1.8957-11.171-4.1506-14.758-8.1348-1.6944-1.882-2.478-3.6113-2.6475-5.7918-1.6361-3.5019-3.0866-4.7293-4.4744-5.4271-0.28844 5.4792-2.665 11.402-6.6005 11.122-2.0144-0.14322-3.9138-2.574-4.4927-5.8459-1.3361 1.8604-3.2581 2.5451-4.7557 2.524-1.3271-0.01916-2.6227-0.52696-3.6967-1.8219-1.0737-1.2946-1.6013-2.4663-3.6161-2.6095s-3.9158 2.0738-5.5993 4.1648c-2.4115 2.9967-4.0106 4.2548-6.7239 4.0982-3.1575-0.18224-5.5919-4.436-8.2721-8.8778-0.20374 2.0062-0.63757 4.0439-1.5476 5.7496 0.14923 0.35597 0.30344 0.71289 0.47002 1.0716 0.25228 4.268-1.0806 5.58-6.0835 8.5113" fill="#a59aca"/>
 <path d="m48.545 41.864c-2.6282-0.33171-6.3914 3.0013-7.1143 8.5248-0.78561 5.9988 1.5088 10.356 4.349 10.727 3.0836 0.40298 5.7871-3.5126 6.534-9.3782 0.69659-5.4679-1.3085-9.5641-3.7687-9.874" fill="#6dbb5a"/>
 <path d="m6.5579 40.719c2.8254 2.5812 3.2524 12.843 0.6663 17.81-2.2448-4.0215-3.0478-11.305-0.6663-17.81" fill="#6dbb5a"/>
 <path d="m67.421 66.814c-5.6898-2.5806-9.6629-6.2738-10.654-11.527-0.51535-1.2739-1.1503-2.3021-1.7924-3.1103-0.90236 0.27156-1.8343 0.53141-2.7865 0.78041-0.87422 5.1531-3.256 8.2056-5.574 8.2511-2.0157 0.03982-4.567-1.557-5.2804-6.0617-6.5855 0.97415-13.578 1.4159-20.171 1.1463-1.3255 2.6858-2.7532 5.4434-4.1191 5.3645-2.6113-0.15036-4.7277-3.0864-6.8978-6.6094-0.56208-0.11234-1.118-0.22976-1.6631-0.35729-0.2483 1.3688-0.59611 2.5585-1.3162 3.9259 0.30072 0.70165 0.5274 0.98431 0.6585 1.3012-0.28305 3.3251-0.22849 4.1787-3.1158 6.1338-1.2519 0.84762-1.0217 2.1044 1.2059 2.0197 2.8763-0.10944 6.1715 0.90888 8.6271 3.0016 3.9389 3.3569 12.965 2.8057 20.895-1.3251 4.2291-2.2027 7.3773-1.5901 12.219 0.66168 4.3032 2.0006 10.922 1.6952 19.932-1.2032 2.2377-0.71979 2.2435-1.2986-0.1681-2.3923" fill="#8f85af"/>
 <path d="m41.462 55.126c0.55767 3.448 2.2992 5.726 4.3173 5.9898 2.8614 0.37393 5.3942-2.9715 6.3417-8.1415-3.3213 0.86685-6.9227 1.5947-10.659 2.1517" fill="#5da34e"/>
 <path d="m7.2251 58.529c0.55956-1.075 0.9779-2.3985 1.2613-3.8379-0.99554-0.23277-1.9605-0.4916-2.8927-0.77657 0.36675 1.7753 0.92863 3.3549 1.6314 4.6145" fill="#5da34e"/>
 <g fill="#c8b8c9">
  <path d="m41.462 55.126c-2.7543 0.41027-5.5813 0.7279-8.4218 0.93927 1.0627 1.2458 2.3353 1.7411 3.6395 1.7596 1.4976 0.02146 3.42-0.66328 4.7561-2.5237z"/>
  <path d="m10.146 55.048c2.1701 3.5231 4.2865 6.4591 6.8978 6.6094 2.7133 0.15661 4.3124-1.1015 6.7239-4.0982 0.32022-0.39757 0.64846-0.79992 0.98398-1.1894-5.1415-0.015254-10.13-0.42976-14.606-1.3219"/>
  <path d="m57.004 55.452c-0.08611-1.104-0.01725-2.3211 0.17602-3.736 0.01226-0.08499 0.02061-0.17018 0.03116-0.25509-0.69917 0.23679-1.4168 0.46693-2.1537 0.68937 0.62278 0.79452 1.2689 1.8507 1.9465 3.3018"/>
 </g>
 <g fill="#0f141b">
  <path d="m16.771 42.173c-0.32912-0.01185-0.70502 0.60036-0.76211 1.6585-0.06269 1.1739 0.19108 1.8752 0.4647 1.8981 0.46733 0.03925 0.7894-0.69571 0.84912-1.7955 0.05921-1.0905-0.24377-1.7502-0.5517-1.7611"/>
  <path d="m27.887 42.332c-0.3733 0.0011-0.70368 0.82441-0.72495 1.7773-0.0229 0.9758 0.28481 1.8364 0.66871 1.8359 0.33309-2.39e-4 0.69473-0.6679 0.70894-1.8976 0.01328-1.1422-0.33581-1.7154-0.65268-1.7155"/>
  <path d="m66.911 73.132c-3.0977 0.1972-4.6043 0.70701-8.0706 1.7213-5.0904 1.49-8.61 1.5859-15.212-0.27412-3.533-0.99515-4.6615-1.031-7.8314 0.01641-6.4204 2.1226-23.872 2.1852-26.406-1.4531-1.4297-2.0526-3.0638-2.626-6.3734-2.7944-2.5762-0.12925-2.5618-1.1246-1.2194-1.9114 3.9863-2.3354 5.9454-3.7475 6.2027-6.2767 0.45465-4.4721-3.1628-7.535-2.359-15.441 1.1303-11.114 10.404-18.917 21.693-19.864 18.046-1.5162 31.479 10.495 29.52 24.82-0.61038 4.4667-0.0051 7.0041 2.487 9.7725 3.8365 4.2603 7.8404 6.3363 15.02 8.278 1.367 0.36972 2.0555 0.71925 1.9906 1.1886-0.12783 0.92128-2.2515 1.7604-9.4444 2.2188m7.6949-4.0862c-6.8137-2.0432-11.187-4.1958-14.706-8.1035-2.3272-2.5842-3.0383-4.4876-2.397-9.1841 2.1001-15.363-11.766-27.189-30.227-25.638-12.281 1.0306-21.406 9.3172-22.506 20.132-0.95642 9.4048 2.9387 12.062 2.5465 15.917-0.18607 1.8291-1.9778 3.3243-5.8698 5.6044-2.1874 1.2815-2.0527 3.1767 1.4911 3.3371 2.5792 0.1387 4.5177 0.84181 5.9388 2.5537 3.5767 4.3066 19.825 3.9123 27.123 1.541 2.6072-0.84745 4.3987-0.86063 7.4349-0.02402 7.8413 2.1602 9.7224 1.9972 15.494 0.31597 3.1888-0.92925 5.169-1.5471 7.9153-1.7112 7.2239-0.43263 10.001-1.4059 10.198-2.8311 0.10432-0.75244-0.47047-1.3197-2.4364-1.9093"/>
  <path d="m7.0349 58.293c2.188-3.6901 1.9815-15.457-0.62025-17.137l0.24287-0.85568c3.2153 1.8394 3.3259 14.829 0.73212 18.777z"/>
  <path d="m41.717 50.446c-0.80552 6.1542 1.695 9.9632 4.1587 10.285 2.7517 0.35938 5.3598-3.2072 6.1006-9.0243 0.69021-5.4205-1.0128-9.1602-3.4914-9.4729-2.5276-0.31379-6.0964 3.0845-6.7679 8.2117m3.9971 11.082c-3.2262-0.4214-5.5454-4.6629-4.6959-11.153 0.81676-6.238 4.9934-9.2773 7.5892-8.9488 2.715 0.34288 4.9151 3.8674 4.0893 10.354-0.85815 6.7381-3.8241 10.167-6.9826 9.7479"/>
  <path d="m41.547 55.691c-3.0159 3.3133-6.7042 3.6119-9.4837-0.31747-1.6353-2.3124-4.1912-2.5285-7.5399 1.7395-5.8942 7.5139-10.612 6.5734-15.794-4.0685l0.11282-1.108c5.4641 11.365 9.9863 11.459 15.237 4.7655 3.4891-4.4478 6.364-4.7008 8.4874-1.7209 2.3563 3.307 5.5906 3.4353 8.8365 0.07466z"/>
  <path d="m57.172 57.647c-1.0714-3.998-2.4983-6.0435-4.6954-7.2325l0.0201-0.84696c2.2904 1.1552 3.7008 2.9683 4.5922 5.9606z"/>
 </g>
 <path d="m22.888 0.73128c-1.6354-0.9514-3.7301 0.24482-5.3638 1.9988-2.5175 2.7026-3.5909 7.6978-4.3611 15.137-0.33166-0.30683-0.68323-0.45869-1.0472-0.4169-2.4396 0.27957-3.6475 11.46 0.10241 17.209 1.1667 1.7887 6.8576-0.95431 6.7894-4.4479-0.17762-9.0957 1.5356-15.535 3.9398-21.825 1.6797-4.395 1.5073-6.7449-0.05952-7.6558" fill="#e7d5e8"/>
 <path d="m53.335 2.3444c-1.0304-1.057-2.9443-0.97444-4.9827-0.014476-4.1561 1.9577-8.1882 7.4762-11.397 16.868-0.43137-1.2415-1.0063-2.0102-1.6689-2.0258-2.9631-0.06931-5.5338 9.7757-2.6994 17.577 0.89925 2.4741 3.9467 2.1901 6.2211-4.0637 3.271-8.9946 7.7509-16.509 12.168-21.196 3.1111-3.3016 3.517-5.9565 2.3585-7.1441" fill="#e7d5e8"/>
 <g fill="#c8b8c9">
  <path d="m22.984 0.65307c1.0428 2.327 0.23744 4.6078-1.6509 8.427-2.4116 4.8789-4.28 15.416-3.7988 21.528 0.10035 1.2723 1.7783 1.2913 1.6744-0.32399-0.4744-7.3599 1.146-15.781 3.2639-20.698 2.3097-5.3619 2.0023-7.9765 0.51153-8.9328"/>
  <path d="m12.323 17.554c2.2504 2.6208 2.5247 9.7543 1.9949 15.166-0.13134 1.3438 1.2772 1.2436 1.3723-0.10955 0.47072-6.6543-0.52514-14.255-3.3672-15.056"/>
  <path d="m35.231 17.139c2.2692 3.4204 1.5767 11.675-0.28434 16.672-0.46409 1.2462 0.95009 1.6804 1.3989 0.41136 2.8473-8.0443 1.5401-16.582-1.1145-17.083"/>
  <path d="m38.93 30.779c3.251-8.4699 6.5006-15.749 12.037-21.206 2.4807-2.4456 3.8281-5.2434 2.7577-6.7332 0.078476 1.7418-1.0089 3.5478-3.5054 5.9048-5.5713 5.2602-9.929 12.992-12.679 20.66l-0.20528 0.86404c-0.39137 1.2474 1.0547 1.9167 1.5948 0.5098"/>
 </g>
 <g fill="#0f141b">
  <path d="m32.4 34.819c-3.0285-6.7606-1.0266-18.168 2.9713-18.075 3.1019 0.05889 3.872 10.796 1.143 17.144-0.38625 0.89902-0.70663 0.78601-0.37293-0.1281 2.5915-7.1051 1.0876-16.211-0.87524-16.238-2.693-0.06319-5.0908 9.573-2.4912 17.156 0.30743 0.89664 8e-4 0.97811-0.37486 0.14047"/>
  <path d="m12.047 34.763c-4.0448-5.6305-3.0194-17.347 0.029184-17.697 2.8018-0.31885 4.6751 8.217 3.6026 15.608-0.12362 0.85485-0.47622 0.81805-0.39572-0.04011 0.71094-7.5829-1.0603-15.029-3.1556-14.784-2.139 0.24551-3.3115 10.721 0.26267 16.708 0.39662 0.6657 0.08624 0.80194-0.34314 0.20401"/>
  <path d="m12.834 17.615c0.56831-6.8886 1.6371-12.26 4.3695-15.206 2.267-2.4423 4.5005-2.8364 5.8817-2.0329 1.6103 0.93606 2.1596 3.2001 0.20369 8.1199-2.0395 5.1301-3.9783 11.648-4.0824 21.71-0.0091 0.89788-0.37949 0.90134-0.39883 0.01167-0.22394-10.154 1.8825-16.767 3.8647-21.953 1.645-4.3029 1.3463-6.4362 0.020823-7.2066-1.1787-0.68504-2.8998-0.275-4.928 1.9022-2.5779 2.7674-3.6692 8.0286-4.3193 15.145z"/>
  <path d="m36.784 18.638c2.931-9.0161 6.8916-14.633 11.3-16.711 2.5404-1.1971 4.8933-0.61027 5.6309 0.14576 1.2408 1.2726 1.189 3.8701-2.48 7.6873-5.1876 5.3986-8.8153 12.297-12.239 20.982-0.35983 0.91326-0.68421 0.82751-0.37693-0.11708 2.8501-8.7638 7.383-16.389 12.096-21.391 3.3335-3.5383 3.4392-5.4954 2.3488-6.6136-0.82177-0.84206-2.4836-0.93366-4.5473 0.037812-4.3905 2.0683-8.3118 7.9627-11.37 17.024z"/>
 </g>
</svg>
