<?xml version="1.0" encoding="UTF-8"?>
<!-- Created with Inkscape (http://www.inkscape.org/) -->
<svg version="1.1" viewBox="0 0 74.213 102.14" xmlns="http://www.w3.org/2000/svg">
 <path d="m27.389 21.52c3.0122-0.27696 6.0247 0.79646 8.0326 2.493 9.7986-6.3708 20.827-9.6932 34.138-7.7209 2.805 0.41529 4.5012 2.4927 4.3629 4.1545-0.24961 2.9931-5.413 4.5126-11.01 2.9778-9.1853-2.5185-16.481-2.0427-25.512 2.398 4.6294 5.1449 6.0637 13.909-0.97722 20.818-6.1369 6.021-8.6379 14.022-7.7486 21.355 1.4466-4.6039 4.8636-7.3997 9.4383-7.0892 10.663 0.72361 13.752 14.6 5.4794 21.655 0.95324 0.50198 1.2883 0.61234 1.912 0.70456 1.1429 1.0009 1.5001 2.1232 1.3154 2.3891-0.18443 0.2656-1.1155-0.22008-1.7734-0.60064-0.87362-0.50598-1.0027-0.3821-0.79615 0.48445 0.36242 1.5225 0.03348 2.58-0.41562 2.8047-0.72544 0.36273-2.4939-0.03104-4.2587-2.6316-0.97567-1.4377-2.1705-1.2437-2.2505 0.3117-0.17306 3.3586-0.56684 5.8169-1.5926 5.8169-1.0387 0-1.9729-1.505-3.67-5.1243-2.8739-6.1283-5.8513-11.841-9.3138-16.654-3.3042-4.5925-5.7671-4.8938-9.6108-1.3956 0.47739-0.70824 0.98306-1.4039 1.5207-2.078 2.2249-2.7915 3.9239-5.6318 5.3779-8.5401 2.3826-4.7656-0.30002-10.353-3.797-13.85-2.8579-2.8579-3.7131-5.0702-3.6356-8.1018 0.14294-5.5719 5.1769-11.991 11.775-13.978 5.6414-12.751 18.833-21.926 28.354-21.926 3.7048 0 6.7514 1.8004 6.5091 4.0856-0.24222 2.2849-2.8739 3.6009-7.4439 3.3583-11.076-0.58743-18.766 5.263-24.41 13.884" fill="#e7d5e8"/>
 <path d="m34.495 45.749c-0.45617-0.38363-1.8475 0.1288-2.6922 1.5462-0.84472 1.4177-0.97321 3.0211-0.45771 3.3362 0.51551 0.31539 1.6772-1.2815 2.3052-2.2907 0.73037-1.1743 1.2025-2.291 0.84472-2.5917" fill="#d7e8af"/>
 <path d="m38.693 36.411c-0.6938-0.14602-1.9142 1.2443-2.2732 3.0626-0.35905 1.8183-0.26344 4.0672 0.62217 4.211 0.88531 0.14325 2.0577-1.5314 2.3448-3.4696 0.28679-1.9375 0.21547-3.6125-0.6938-3.804" fill="#d7e8af"/>
 <path d="m20.822 28.064c-0.77587-0.24777-2.0774 0.69225-2.9083 2.8161-0.98951 2.5277-0.42329 4.0115 0.2536 4.3395 0.71562 0.34614 2.2007-0.42081 3.1394-3.0239 0.71531-1.9852 0.59973-3.7856-0.48476-4.1317" fill="#6dbb5a"/>
 <path d="m32.432 29.541c-1.0863-0.39009-2.7008 0.76173-3.4625 3.2778-0.77188 2.5496-0.13833 4.1548 0.60004 4.4317 0.94956 0.35597 2.4374-0.43435 3.3469-3.1161 0.84166-2.4816 0.4156-4.2704-0.48446-4.5934" fill="#6dbb5a"/>
 <path d="m13.469 90.946c1.6676 0.91912 2.2591 1.351 3.0362 2.0248 0.75743 0.65629 0.50782 1.1773-0.46171 1.4777-2.2631 0.69994-3.5265 2.2422-3.3469 3.4622 0.23085 1.5696 2.2117 2.3166 5.886 1.9157 2.5391-0.27697 5.5046-0.32615 8.5404 0.94617 3.1391 1.3157 5.9518 1.4724 9.3483-1.0621 1.5465-1.154 3.6205-2.2357 7.7095-1.9849 5.2626 0.32338 9.3833-1.2865 8.2635-5.1243-1.3894-4.7631 4.3057-9.814 8.3904-10.941 1.004-0.27696 1.0498-0.81092-0.27697-1.2118-3.6703-1.1079-7.9982-0.65784-10.664 1.6618-0.98921 0.86133-2.7733 1.4435-4.3893 1.1783 1.177 1.1309 1.5121 2.1229 1.3154 2.3888-0.19612 0.2656-1.1155-0.24314-1.7731-0.6237-0.87393-0.50598-1.003-0.3821-0.79647 0.48446 0.36243 1.5225 0.03348 2.58-0.41559 2.8047-0.72547 0.36273-2.4939-0.03104-4.2584-2.6316-0.97598-1.438-2.1708-1.2437-2.2508 0.3117-0.17307 3.3586-0.56653 5.8169-1.5926 5.8169-1.0387 0-1.9729-1.505-3.67-5.1243-2.8736-6.1283-5.8513-11.841-9.3138-16.654-3.3042-4.5925-5.7671-4.8938-9.6108-1.3956-5.5252 8.1887-6.8802 18.304 0.33107 22.28" fill="#a59aca"/>
 <path d="m26.316 21.809c4.9374-9.3357 14.216-16.749 22.886-16.492 5.8513 0.17306 8.7599-0.8309 9.4522-2.943 2.4238 3.4275-2.1742 5.7474-7.4784 5.2626-9.1574-0.83705-18.524 4.686-24.167 14.45-0.61479 1.0639-1.1604 0.60834-0.69225-0.27697" fill="#c8b8c9"/>
 <path d="m36.183 24.913c8.0474-5.0176 17.415-6.5783 27.283-4.3626 3.8726 0.86963 9.2788 0.79647 10.283-1.177 1.0153 3.0893-3.2025 6.2048-11.945 3.67-8.2404-2.3891-18.207-0.86102-25.206 3.3583-0.84258 0.50813-1.3965-0.877-0.4156-1.4887" fill="#c8b8c9"/>
 <path d="m31.346 50.631c0.51551 0.3151 1.6772-1.2815 2.3052-2.2907 0.25084-0.40393 0.47032-0.79984 0.63724-1.1592-0.93971 0.4322-1.92 0.76603-2.9175 1.0092-0.43558 1.1331-0.43312 2.1911-0.0249 2.4407" fill="#bac998"/>
 <path d="m8.6112 79.93c-0.05748 4.9162 4.2415 8.2573 8.5881 9.1703 2.1798 0.45833 3.3857 1.3516 3.4333 3.0872 0.05902 2.1346 0.96154 2.9197 3.2762 2.8031 2.0679-0.10332 3.5603 0.06984 4.9451 0.69319 2.0113 0.90498 4.1717 0.6732 5.4182-0.1577 2.0636-1.3762 3.4266-1.9836 5.9214-1.5434 4.6798 0.82569 7.8205-0.25298 8.4104-2.5197 1.6062-6.1738 5.9531-10.269 13.135-10.369-0.0551 0.34675-0.5487 0.41652-1.15 0.63877-6.3954 2.3667-9.2717 7.5159-8.2131 10.64 1.2044 3.5526-1.8727 5.6721-7.9023 5.4022-3.3718-0.15092-5.4434 0.0135-7.9939 1.9526-2.6645 2.0261-5.1397 2.7758-9.1804 1.0771-2.0245-0.85117-4.4634-1.4608-7.2091-1.1318-4.0284 0.48261-6.8082 0.38424-7.4098-1.6609-0.43528-1.4801 0.57914-2.691 3.413-3.5409 1.095-0.32831 1.8318-1.2373-1.5511-2.8656-5.8304-2.8056-6.5257-6.9804-5.9309-11.676" fill="#8f85af"/>
 <path d="m14.167 73.813c0.65844 1.7156 4.6715 4.3506 7.9471 4.8704 1.075 0.17061 0.84073 0.94248-0.53088 0.85396-3.0331-0.19551-8.2874-3.4767-7.4163-5.7244" fill="#8f85af"/>
 <path d="m31.613 76.744c1.1773 1.8352 2.1647 3.2344 3.2891 4.2587 2.6624 2.4257 7.5764 2.4702 8.7596 1.5235 3.5477-2.8382 5.0555-8.7599 4.6398-10.803-0.55424 3.0813-3.0125 4.2934-4.6743 4.12-1.6095 1.4638-4.3856 1.893-6.3708 1.0159-0.6692 0.50752-3.9009 1.0156-5.6435-0.11558" fill="#c8b8c9"/>
 <path d="m34.288 47.182c-0.16692 0.35904-0.3864 0.75528-0.63724 1.1592-0.62802 1.0089-1.79 2.6058-2.3052 2.2907-0.40822-0.24961-0.41068-1.3077 0.0249-2.441-5.2408 1.2751-10.955 0.03692-13.677-2.686 2.5459 3.5412 4.6405 8.1463 2.0439 12.82 2.031 2.1238 8.4018 0.36948 11.126-3.6009 1.3387-2.7235 3.0469-5.4013 4.5587-6.9244 1.604-1.6163 2.525-2.5363 3.3217-3.8563-1.2705 1.411-2.7992 2.477-4.4551 3.2384" fill="#c8b8c9"/>
 <g fill="#0f141b">
  <path d="m27.128 21.878c3.0137-0.28741 6.1031 0.4946 8.9963 3.1106l0.34521-0.51458c-2.8855-2.5529-6.0112-3.4152-8.9253-3.2154z"/>
  <path d="m25.065 21.637c-7.1162 1.7024-12.703 8.3849-12.859 14.459-0.08853 3.4536 1.0289 5.547 3.8372 8.3557 3.339 3.339 4.5962 6.637 4.5953 9.4405-0.0016 3.1029-1.4681 6.451-6.3032 12.516-6.7108 8.4184-9.4297 20.81-0.94648 24.946 1.517 0.7396 2.366 1.2465 2.9461 1.7804 0.54409 0.50044 0.57698 0.806-0.35596 1.095-2.9633 0.91696-3.8929 2.2452-3.6749 3.7263 0.27727 1.8822 2.4475 2.6319 6.3072 2.2102 2.955-0.32247 5.3503-0.43496 8.4135 0.84811 4.2181 1.7685 6.2522 1.4786 9.6252-1.0387 1.4826-1.1057 3.4687-2.1871 7.5309-1.9388 6.9158 0.42943 9.6409-1.8146 8.569-5.488-0.4322-1.4804-0.2413-3.0835 0.67504-4.7259 1.6842-3.0193 4.8301-5.211 7.4615-5.9552 1.4408-0.4073 1.6627-1.0528-0.26836-1.636-3.9292-1.1859-8.1915-0.76818-10.915 1.6012-1.7285 1.5041-3.817 1.6111-5.748 0.66214 8.8816-7.8291 4.1204-21.927-6.3773-21.891-4.6657 0.0153-8.1141 3.0718-8.9462 7.1384l0.24715 1.545c0.51151-4.6887 3.9722-8.0455 8.6904-8.0612 9.6105-0.03204 14.573 12.961 6.0059 21.024-0.24746 0.23239-0.27082 0.3741 0.11774 0.58805 1.9907 1.0949 4.4361 1.1561 6.3625-0.52042 2.4521-2.1336 6.6303-2.8121 10.468-1.6538 1.177 0.35536 1.1408 0.53979 0.23331 0.79616-2.8351 0.80291-6.0219 2.8019-7.8605 6.0262-1.1254 1.9735-1.2081 3.6196-0.7519 5.1833 0.956 3.2787-2.3362 5.1732-7.9631 4.8298-4.4487-0.27543-5.6371 0.28035-7.8598 1.9391-2.9104 2.1714-5.6423 2.5446-9.0366 1.0731-2.9814-1.2923-5.2879-1.4137-8.7252-1.0387-3.4598 0.37656-5.2457-0.19857-5.4704-1.7251-0.16753-1.1374 0.78263-2.3227 3.0623-3.0279 1.383-0.42882 1.4774-1.2185 0.55116-2.0018-0.67504-0.57144-1.4368-1.0215-3.1348-1.8785-7.2927-3.6792-5.8461-15.077 1.3218-24.068 5.3017-6.6506 6.2297-10.058 6.2638-12.789 0.0415-3.315-1.6178-6.8359-4.7521-9.9701-2.6968-2.6965-3.5969-4.7803-3.5163-7.9057 0.14386-5.6131 5.3048-12.175 12.167-13.875z"/>
  <path d="m37.13 25.992c4.6048 5.0727 6.0407 13.786-0.81676 20.536-10.298 10.135-10.815 25.694-1.71 34.38 0.54133 0.51643 0.7436 0.31816 0.2241-0.2201-8.6772-8.9938-7.9324-24.165 1.8521-33.766 7.2838-7.147 5.8449-15.842 1.0344-21.211z"/>
  <path d="m40.17 80.652c2.1054-1.1214 3.26-3.3482 3.2243-6.5451-0.05377-4.7859-4.1782-5.0428-5.6112-1.9787-0.26897 0.57576-0.50321 0.48354-0.29203-0.11526 1.335-3.7853 6.5516-3.1853 6.4713 2.1115-0.05011 3.3282-1.3255 5.8707-3.6645 6.8147-0.53242 0.21488-0.69011 0.01264-0.12788-0.28711"/>
  <path d="m22.151 79.739c-4.2442-0.16045-9.4242-3.9-8.3999-6.0413 0.68181-1.4248 5.3272-1.2674 9.2093 2.8797 0.40608 0.43374 0.21026 0.6271-0.22378 0.22133-4.0497-3.7896-7.8817-3.7795-8.3538-2.793-0.74513 1.5579 3.6377 4.918 7.7944 5.42 0.54317 0.06552 0.51428 0.33384-0.02613 0.31323"/>
  <path d="m24.996 20.535c5.4797-11.452 17.112-20.052 27.427-20.521 4.7013-0.20995 7.1553 1.9741 7.1553 4.1788 0 2.4438-3.0684 4.1016-8.1479 3.7038-5.4366-0.42513-15.732 0.91727-24.396 14.456-0.37318 0.58313-0.69441 0.4033-0.31847-0.21426 8.1522-13.394 19.004-15.223 24.757-14.773 4.9273 0.38609 7.4615-1.3455 7.4615-3.2298 0-1.8278-2.3209-3.7921-6.511-3.6045-10.138 0.46079-21.82 9.2437-27.375 20.948z"/>
  <path d="m37.464 22.432c9.2256-5.6816 19.25-7.8709 30.728-6.59 4.7053 0.52535 6.2663 2.8093 5.9896 4.9165-0.4033 3.073-5.8565 4.5646-11.824 2.7872-8.7605-2.6107-17.623-1.5754-25.495 2.8124-0.60988 0.33967-0.82598 0.07472-0.17798-0.31477 7.6342-4.5922 17.071-5.6869 25.915-3.0515 5.7056 1.7008 10.62 0.22994 10.958-2.3544 0.24838-1.8902-1.5364-3.8406-5.4532-4.2587-11.554-1.2348-21.501 0.88285-31.057 6.9306z"/>
  <path d="m18.148 30.951c-0.97168 2.4841-0.4531 3.7143 0.13126 3.9968 0.65937 0.31938 1.9572-0.46386 2.8173-2.8502 0.74667-2.0719 0.55055-3.4834-0.33844-3.7675-0.62494-0.19889-1.8195 0.59941-2.6101 2.6209m-0.12019 4.5427c-0.96092-0.39316-1.3642-2.1232-0.3492-4.7176 0.92803-2.3719 2.2932-3.2993 3.2544-2.9919 1.0553 0.3366 1.5748 1.8511 0.60035 4.5535-0.97076 2.6928-2.5698 3.5391-3.5056 3.156"/>
  <path d="m20.339 28.025c0.0092-0.46754 0.12542-1.0113 0.28496-1.4546 0.16384-0.45526 0.40085-0.39686 0.30402 0.07871-0.0999 0.49184-0.13464 0.88991-0.12603 1.3802z"/>
  <path d="m29.195 32.899c-0.75097 2.481-0.11651 3.8394 0.53149 4.0822 0.75957 0.28496 2.0657-0.26988 2.9679-2.9289 0.80539-2.3746 0.43497-3.9679-0.38885-4.2636-1.007-0.36211-2.3869 0.72115-3.1106 3.1103m0.28527 4.6396c-1.0301-0.3861-1.5871-2.0694-0.76296-4.7936 0.82167-2.7122 2.4911-3.9264 3.8213-3.449 1.0719 0.38517 1.5647 2.2031 0.63908 4.9316-1.0658 3.1413-2.6722 3.6949-3.6974 3.311"/>
  <path d="m32.037 29.44c0.18505-0.60312 0.32338-0.9563 0.54717-1.3356 0.21764-0.36917 0.42452-0.30463 0.29663 0.10355-0.15585 0.49613-0.25084 0.80354-0.33752 1.3793z"/>
  <path d="m14.434 37.412c-0.06364-0.64523 0.21026-0.68611 0.31047-0.0459 0.88346 5.6315 2.9584 8.3013 6.9373 5.2556 2.7878-2.1343 4.6079-2.3786 7.1227-1.1208 2.599 1.2991 3.9851 0.55056 4.9765-2.3085 0.2121-0.6108 0.44819-0.5444 0.30218 0.08636-0.75559 3.2569-2.3888 4.2409-5.5027 2.6836-2.0906-1.0452-4.1526-0.81553-6.6478 1.0949-4.8418 3.7057-6.9742-0.31323-7.4987-5.6453"/>
  <path d="m36.632 39.694c-0.37165 1.7045-0.12173 3.6021 0.52657 3.7788 0.4448 0.12235 1.5988-1.157 1.9464-3.0918 0.41651-2.3178 0.06984-3.6162-0.45772-3.7097-0.52718-0.09157-1.5889 1.067-2.0153 3.0226m0.38916 4.3282c-0.97937-0.26682-1.3077-2.3725-0.85856-4.4311 0.45064-2.0679 1.6412-3.6663 2.5646-3.5037 0.9517 0.16754 1.2791 1.8573 0.82443 4.3853-0.40207 2.2369-1.6836 3.7798-2.5305 3.5495"/>
  <path d="m32.063 47.343c-1.008 1.3741-0.9388 2.8511-0.5607 3.0002 0.23178 0.09102 0.91574-0.50782 1.797-1.9123 0.87424-1.3928 1.153-2.3313 0.97323-2.4847-0.3243-0.27727-1.1678-0.02273-2.2096 1.3968m-0.85887 3.5268c-0.60312-0.37626-0.63324-2.2769 0.52688-3.8588 1.181-1.6098 2.3716-1.884 2.8855-1.4887 0.53979 0.41562-0.15308 1.9514-0.90497 3.1493-1.0627 1.6931-2.0132 2.5071-2.5074 2.1982"/>
 </g>
 <path d="m10.699 74.115c-5.0432-2.0762-10.357-0.78018-10.397 0.75467-0.040265 1.5348 3.5388 3.1053 9.3876 1.8053 1.5511-0.34458 1.8465-2.2154 1.0095-2.56" fill="#a59aca"/>
 <path d="m25 23.586c0.6231-7.6862-2.3922-14.522-4.5599-14.039-1.5115 0.3363-1.49 10.051 2.4364 14.431 0.60004 0.66951 2.0583 0.41344 2.1235-0.39224" fill="#e7d5e8"/>
 <path d="m32.732 26.564c-0.29818-6.6933 3.5504-14.963 6.4861-13.411 2.3949 1.2659-1.6852 10.41-4.2931 13.734-0.78724 1.003-2.1469 0.71562-2.193-0.32308" fill="#e7d5e8"/>
 <path d="m0.4415 74.614c0.76081 1.1491 5.5657 1.8176 8.3317 1.3688 1.3504-0.21978 1.7346 0.69843 0.34613 0.90007-5.3632 0.77956-8.8807-0.11743-8.6778-2.2689" fill="#8f85af"/>
 <path d="m39.287 13.199c0.18505 2.7235-1.8462 8.217-4.8701 13.018-0.4073 0.64678 0.13188 1.1958 0.78479 0.23086 4.1087-6.0705 5.7702-11.864 4.0853-13.249" fill="#c8b8c9"/>
 <g fill="#0f141b">
  <path d="m22.609 23.852c-4.2338-5.1129-3.9829-14.173-2.272-14.646 2.1699-0.60034 5.5169 5.7013 4.8102 14.072-0.05074 0.60158-0.3406 0.58313-0.31354-0.01995 0.3784-8.4811-2.9486-13.843-4.2934-13.448-1.1281 0.32768-1.6572 8.3123 2.3159 13.848 0.3781 0.5272 0.14079 0.66275-0.24715 0.19428"/>
  <path d="m34.945 26.523c4.3417-6.7126 5.5412-12.618 4.0309-13.136-2.2511-0.77125-5.958 5.0976-6.0628 12.876-0.0086 0.61694-0.29388 0.61787-0.31447 0.0022-0.25452-7.6044 3.5634-14.516 6.574-13.481 2.094 0.71715 1.0645 6.807-3.9664 13.913-0.39131 0.55209-0.64369 0.41744-0.26128-0.17399"/>
  <path d="m5e-4 74.85c0.055332-1.9769 5.7855-3.1112 10.588-0.96708 0.56162 0.25084 0.45771 0.50199-0.11712 0.2908-5.0711-1.8594-9.7829-0.5773-9.8186 0.71961-0.039035 1.379 3.3303 2.5788 8.7737 1.6987 0.64646-0.10454 0.69626 0.1743 0.05564 0.30893-5.5507 1.169-9.5349-0.10754-9.4814-2.0509"/>
 </g>
</svg>
