<?xml version="1.0" encoding="UTF-8"?>
<!-- Created with Inkscape (http://www.inkscape.org/) -->
<svg version="1.1" viewBox="0 0 236.25 318.46" xmlns="http://www.w3.org/2000/svg">
 <g transform="translate(-14.743 -17.07)">
  <g transform="matrix(.9006 0 0 -.9006 145.94 196.18)">
   <path d="m0 0-19.143 4.232c-13.035-9.623-30.006-21.783-44.091-43.042-21.933 1.587-38.586 6.428-39.63 30.445 6.385-0.176 13.795 5.106 16.271 13.735 2.712 9.448 2.055 19.491-6.123 23.445-7.962 3.85-22.62-4.653-31.475-16.674-24.456-33.075-21.191-128.61 55.912-115.89 4.083-7.407 8.721-13.455 11.956-17.38 6.561-7.961 6.212-16.36 3.675-19.072-5.809-6.209-2.067-12.631 5.249-13.734 4.636-0.701 15.048 2.072 14.085 8.66-0.526 3.587 3.878 12.247 14.377 15.747 11.155 3.718 28.833 25.432 28.344 54.59-0.233 13.881-8.048 34.993-21.579 51.907 2.915 7.757 6.818 16.615 12.172 23.034" fill="#e6d4e7"/>
  </g>
  <g transform="matrix(.9006 0 0 -.9006 188.37 86.802)">
   <path d="m0 0c0.028 1.355-0.477 2.353-1.518 2.815-1.574 0.7-3.054 2.926-2.274 7.262 3.233 17.965-11.019 30.664-27.032 31.494-23.288 1.206-46.887-24.001-28.17-65.788 13.078-29.199 18.283-44.484 11.903-62.03 2.211 1.433 7.017 3.525 11.059 4.345 1.475 22.924-8.79 46.72-15.205 59.085-7.08 13.645-6.795 20.996-1.809 27.207 3.486 4.341 10.585 4.693 20.996-1.254 13.296-7.594 25.746-6.595 32.05-3.136" fill="#e6d4e7"/>
  </g>
  <g transform="matrix(.9006 0 0 -.9006 188.61 86.607)">
   <path d="m0 0c-7.349-4.986-22.094-3.461-31.845 2.537-23.182 14.26-28.884-6.267-22.133-20.208 6.641-13.715 20.115-41.355 17.672-64.447l-11.081-39.543c-3.733-5.249-9.215-13.297-11.898-23.445 31.961-41.411 23.562-77.686 2.333-99.732 49.69-3.266 77.161 36.277 78.152 72.902 0.986 36.384-17.176 87.864-42.021 132.31-0.35 4.812-2.013 12.685-1.662 14.609 0.907-1.426 2.314-1.736 3.673-1.399 1.435 0.356 2.554 1.717 2.1 7.611-0.12 1.562 0.157 2.806 1.614 3.196 9.278 2.49 13.053 8.499 15.096 15.613" fill="#a499c9"/>
  </g>
  <g transform="matrix(.9006 0 0 -.9006 246.91 147.69)">
   <path d="m0 0c-10.615 1.167-19.247-1.924-27.995-9.682-8.748-7.756-20.763-15.397-33.186-13.822 2.45-6.474 7.057-17.962 8.923-25.02 5.249 1.458 12.563 5.094 17.497 8.982 1.321 1.04 2.245 1.371 2.982 0.799 4.094 2.194 6.953 5.079 9.276 8.276 0.029 2.322 1.13 3.38 2.268 2.656 2.78 1.853 4.965 4.856 6.723 8.29-0.316 2.257 0.013 3.391 1.264 4.999 1.998 2.569 7.833 6.414 11.022 7.407 6.685 2.081 6.494 6.536 1.226 7.115" fill="#e6d4e7"/>
  </g>
  <g transform="matrix(.9006 0 0 -.9006 187.76 166.81)">
   <path d="m0 0c-1.23 5.346-9.041 8.865-22.746 8.982-14.619 0.124-34.15-8.571-41.06-23.037-4.314-9.034-2.649-25.136 10.623-21.698 6.835 1.77 13.942 9.255 18.09 14.517-0.637-2.201-1.143-4.47-1.521-6.71 2.814-0.838 7.528 0.497 10.601 5.026 1.801 0.095 4.601 1.921 6.995 5.166 0.533 2.962 1.304 5.742 2.279 7.839 4.432 4.142 9.784 6.256 14.055 6.999 2.683 0.467 4.141 1.633 2.684 2.916" fill="#e6d4e7"/>
  </g>
  <g transform="matrix(.9006 0 0 -.9006 164.44 184.77)">
   <path d="m0 0c-2.508-2.449-6.648-1.632-8.632 0.759-4.374-15.513-2.855-28.442 0.819-28.201 3.693 0.241 6.659 9.869 7.688 22.643 0.424-4.784 2.482-7.871 4.48-7.326 1.208 0.329 1.587 1.271 1.696 6.175 0.057 2.619 0.345 5.456 0.828 8.143-1.853-2.511-4.423-3.143-6.879-2.193" fill="#d6e6ae"/>
  </g>
  <g transform="matrix(.9006 0 0 -.9006 228.68 172.74)">
   <path d="M 0,0 C 0.54,-0.344 1.086,-1.078 1.527,-2.283 2.84,-5.87 4.183,-10.119 6.559,-9.938 9.047,-9.75 8.573,-0.621 7.083,6.334 6.924,7.077 6.804,7.717 6.724,8.29 4.966,4.856 2.78,1.854 0,0" fill="#d6e6ae"/>
  </g>
  <g transform="matrix(.9006 0 0 -.9006 219.11 183.82)">
   <path d="m0 0c2.144-5.074 3.368-16.315 6.08-16.491 3.701-0.238 3.894 13.517 2.362 24.846-0.062 0.467-0.082 0.893-0.077 1.29-2.323-3.197-5.181-6.082-9.276-8.276 0.337-0.262 0.634-0.711 0.911-1.369" fill="#d6e6ae"/>
  </g>
  <g transform="matrix(.9006 0 0 -.9006 27.847 195.99)">
   <path d="m0 0c-19.392-33.856-35.5-127.38 78.258-127.07-1.768 3.397-3.867 6.663-6.434 9.579-2.566 2.916-6.531 8.515-8.981 13.531-66.605-12.831-79.319 59.373-62.843 103.96" fill="#a499c9"/>
  </g>
  <g transform="matrix(.9006 0 0 -.9006 129.03 81.247)">
   <path d="m0 0c0.674 26.948 30.29 49.742 56.186 26.559 6.765 15.313-1.166 34.781-10.158 39.233-8.539 4.227-17.895 0.445-24.84-4.184-11.484 13.532-30.164 9.845-43-1.959-12.415-11.416-25.595-32.062-34.693-53.875-11.817-28.33-18.302-39.847-29.686-39.397-8.836 0.351-11.723 5.045-11.373 13.502 0.583-1.283 1.983-2.333 2.974-2.275 1.471 0.087 3.506 1.769 3.091 8.749-0.364 6.128-1.641 10.213-4.607 10.265-3.325 0.058-7.058-6.707-6.766-17.38 0.292-10.674 7.232-21.696 21.638-21.522 16.764 0.204 26.633 13.405 39.659 37.21 10.148 18.547 22.513 30.095 34.527 35.81-7.465-12.947-15.163-32.077-17.497-47.59-3.581-23.817-16.951-35.295-25.542-29.936 3.181 0.652 6.545 3.146 6.034 5.626-0.571 2.773-4.077 4.159-9.134 1.55-4.682-2.418-5.458-5.688-4.647-8.726 0.652-2.446 3.733-5.59 11.905-5.382 12.803 0.327 23.455 12.476 30.254 28.623 3.914 9.296 8.273 21.005 15.675 25.099" fill="#e6d4e7"/>
  </g>
  <g transform="matrix(.9006 0 0 -.9006 201.05 196.01)">
   <path d="m0 0c7.819-23.949 10.498-49.34 4.049-70.38-7.33-23.915-23.412-44.457-51.932-50.931 6.211-2.537 9.977-5.249 9.798-9.186-0.187-4.142 6.934-8.752 17.497-9.448 7.961-0.525 16.097 0.437 16.359 3.237 0.263 2.799-2.799 4.199-5.511 5.336-2.712 1.138-4.199 2.888-1.225 6.037 2.975 3.149 8.295 6.078 17.964 8.689 15.98 4.316 29.217 20.6 30.677 42.926 1.225 18.722-7.316 38.42-19.48 49.807-5.482 5.133-13.18 15.515-18.196 23.913" fill="#e6d4e7"/>
  </g>
  <g transform="matrix(.9006 0 0 -.9006 154.09 272.28)">
   <path d="m0 0c19.711-9.071 44.793-9.005 54.299 9.39-14.989-41.351-50.968-49.828-72.718-48.102 9.369 9.648 16.284 22.475 18.419 38.712" fill="#8e84ae"/>
  </g>
  <g transform="matrix(.9006 0 0 -.9006 93.057 302.43)">
   <path d="m0 0c-4.143 5.212-7.322 9.865-9.667 14.466-46.023-9.191-65.335 22.657-68.124 54.015-3.48 8.747-4.921 18.611-3.743 29.152-16.097-61.705 11.081-107.55 87.367-106.38-1.399 2.566-2.217 4.2-5.833 8.749" fill="#8e84ae"/>
  </g>
  <g transform="matrix(.9006 0 0 -.9006 84.351 289.4)">
   <path d="m0 0c-2.698 5.292-4.289 10.518-4.913 16.445-28.434-2.227-53.598 13.406-63.211 37.57 2.789-31.359 22.101-63.206 68.124-54.015" fill="#c7b7c8"/>
  </g>
  <g transform="matrix(.9006 0 0 -.9006 46.337 187.75)">
   <path d="m0 0c-2.093-11.972 14.65-16.325 24.026-4.27-3.347-8.622-11.338-15.569-19.924-13.227-5.7 1.555-7 9.367-4.102 17.497" fill="#c7b7c8"/>
  </g>
  <g transform="matrix(.9006 0 0 -.9006 78.981 265.24)">
   <path d="m0 0c9.974-27.645 63.98-35.285 83.401-7.116 0.891-12.936-12.408-39.179-29.161-46.424-8.302-3.59-13.68-9.255-13.123-14.523 0.788-7.436-8.207-10.267-14.26-9.098-7.698 1.488-10.781 7.453-5.423 12.948 3.412 3.499 2.974 12.16-4.987 21.783-17.007 20.558-16.097 32.544-16.447 42.43" fill="#c7b7c8"/>
  </g>
  <g transform="matrix(.9006 0 0 -.9006 201.58 267.34)">
   <path d="m0 0c11.981-12.434 31.459-4.5 37.326 5.483-2.07-24.32-16.085-39.21-32.514-43.217-7.174-1.75-17.934-7.5-17.934-11.548 0-2.362 3.674-3.149 6.123-4.549 3.835-2.192 3.073-5.617-1.399-6.299-19.233-2.933-30.357 3.457-30.357 9.274 0 2.606-1.885 5.661-9.624 8.66 20.083 3.158 43.13 23.533 48.379 42.196" fill="#c7b7c8"/>
  </g>
  <g transform="matrix(.9006 0 0 -.9006 186.29 92.303)">
   <path d="m0 0c-1.575-2.975-6.824-7.961-11.606-8.894-1.696-0.331-2.799-1.108-2.624-3.091 0.437-4.968 0.164-8.083-2.451-8.165-1.866-0.058-2.798 0.525-3.499 1.691 0.817-4.725 2.275-12.772 1.983-15.864-0.291-3.091-1.691-4.257-3.441-4.257-1.749 0-3.616 1.224-3.908 6.823-9.798 2.45-11.022 27.47-11.022 27.47 10.1-6.313 28.432-4.111 36.568 4.287" fill="#8e84ae"/>
  </g>
  <g transform="matrix(.9006 0 0 -.9006 154.11 97.971)">
   <path d="m0 0c5.172-3.839 14.103-5.455 21.942-3.475-0.444-0.97-0.444-1.495-0.363-2.587 0.317-4.243 0.244-7.396-2.505-7.597-1.657-0.121-2.531 0.169-3.286 1.378 0.053-4.206 1.911-12.215 1.749-15.747-0.111-2.462-1.061-4.22-3.151-4.22-2.389 0-3.896 1.923-4.122 6.021-0.283 5.133-0.12 12.246-0.687 15.761-0.646-4.324-1.455-6.021-3.515-6.021-2.061 0-3.182 1.864-3.516 4.849-0.484 4.324-1.132 8.243-2.546 11.638" fill="#d6e6ae"/>
  </g>
  <g transform="matrix(.9006 0 0 -.9006 40.494 93.964)">
   <path d="m0 0c0.788-5.792 6.067-4.886 6.855 0.315 0.119-4.728-0.749-8.509-3.034-8.628-2.284-0.118-4.451 2.482-3.821 8.313" fill="#c7b7c8"/>
  </g>
  <g transform="matrix(.9006 0 0 -.9006 156.11 40.381)">
   <path d="m0 0c10.396 4.115 22.498 0.065 20.792-15.047-4.84 2.799-9.565 5.132-18.547 5.132-0.407 5.424-0.67 6.153-2.245 9.915" fill="#c7b7c8"/>
  </g>
  <g transform="matrix(.9006 0 0 -.9006 134.05 51.175)">
   <path d="m0 0c-9.857-9.577-20.037-31.389-23.384-48.035-3.783-18.81-14.339-36.382-28.267-36.73-5.653-0.141-9.575 1.003-11.439 4.649-1.302-3.719 4.743-7.253 11.345-7.067 14.806 0.418 26.84 16.8 33.568 35.707 3.31 9.3 7.374 14.224 12.833 18.412 0.185 10.787 5.393 24.177 17.295 30.873-3.998 1.766-6.278 2.655-11.951 2.191" fill="#c7b7c8"/>
  </g>
  <g transform="matrix(.9006 0 0 -.9006 81.226 123.31)">
   <path d="M 0,0 C -1.77,0.239 -1.551,2.24 0.132,2.143 3.937,1.924 7.349,2.974 8.53,6.226 10.206,3.092 5.668,-0.766 0,0" fill="#c7b7c8"/>
  </g>
  <g transform="matrix(.9006 0 0 -.9006 156.61 183.93)">
   <path d="m0 0c-10.816-11.647-24.437-13.647-30.824-9.448 2.713-10.148 10.874-8.505 16.651-5.424 1.75 0.933 8.982 5.658 13.531 12.073z" fill="#c7b7c8"/>
  </g>
  <g transform="matrix(.9006 0 0 -.9006 198.82 187.32)">
   <path d="M 0,0 C 2.1,-0.087 11.985,1.575 19.684,5.336 16.884,3.149 14.26,-0.525 1.05,-4.199 0.612,-2.887 0,0 0,0" fill="#c7b7c8"/>
  </g>
  <g transform="matrix(.9006 0 0 -.9006 162.94 108.8)">
   <path d="m0 0c-0.169-3.154-1.118-4.909-3.164-5.176-2.659-0.347-4.201 1.304-4.768 5.905-0.661 5.368-1.428 8.953-2.959 12.731-0.639 1.578-3e-3 1.854 0.729 0.316 1.793-3.774 2.813-7.156 3.455-12.814 0.41-3.615 1.459-4.915 3.403-4.663 1.433 0.187 2.518 1.612 2.429 8.717z" fill="#0f141b"/>
  </g>
  <g transform="matrix(.9006 0 0 -.9006 145.16 164.88)">
   <path d="m0 0c6.58 17.675 1.278 32.95-11.811 62.169-19.541 43.628 5.721 68.456 28.958 67.261 16.934-0.878 31.164-13.315 27.664-32.763-0.687-3.81-0.201-5.557 1.927-6.502 1.922-0.855 2.694-2.605 1.51-6.037-2.385-6.914-8.426-11.458-13.96-13.024-2.309-0.654-2.394-0.967-2.252-2.834 0.377-4.955 0.138-8.154-3.062-8.577-2.751-0.359-5.086 1.948-4.787 7.078 0.101 1.733 0.763 1.721 0.792-0.018 0.073-4.302 1.649-5.853 3.792-5.567 1.716 0.227 2.558 1.218 2.126 6.907-0.228 3.01 0.632 3.463 3.061 4.15 4.787 1.354 10.896 6.467 12.932 12.373 0.962 2.789 0.599 3.768-0.659 4.327-2.717 1.208-3.462 3.678-2.69 7.963 3.108 17.274-10.549 29.791-26.437 30.614-22.565 1.175-45.781-23.443-27.339-64.694 13.298-29.745 18.372-45.23 12.056-61.897z" fill="#0f141b"/>
  </g>
  <g transform="matrix(.9006 0 0 -.9006 129.05 193.23)">
   <path d="m0 0c-29.678-20.399-54.132-45.247-54.381-79.384-0.123-16.995 3.931-27.931 15.874-42.57 7.035-8.625 8.887-18.499 4.675-22.752-4.911-4.962-1.29-10.026 4.64-11.488 4.166-1.029 14.007 1.409 13.891 6.794-0.125 5.758 3.342 12.646 14.063 16.948 16.759 6.728 29.266 34.007 28.315 54.445-0.83 17.851-8.261 34.014-23.144 54.139-1.022 1.382-0.51 1.787 0.621 0.494 16.02-18.327 24.22-36.634 25.059-54.662 1.132-24.316-12.991-49.318-30.268-56.048-10.079-3.927-13.359-10.027-13.245-15.29 0.172-7.923-11.796-9.332-15.756-8.359-6.489 1.599-11.74 7.387-5.143 14.049 3.859 3.896 1.733 12.452-4.932 20.622-12.077 14.803-17.214 26.77-17.089 43.977 0.25 34.537 25.368 59.548 56.34 80.791z" fill="#0f141b"/>
  </g>
  <g transform="matrix(.9006 0 0 -.9006 102.44 334.52)">
   <path d="m0 0c0.264 2.99 1.129 6.17 2.684 9.01 0.832 1.521 1.371 1.316 0.736-0.295-1.276-3.239-1.711-5.76-1.885-8.917z" fill="#0f141b"/>
  </g>
  <g transform="matrix(.9006 0 0 -.9006 188.39 87.234)">
   <path d="m0 0c-6.983-3.915-19.944-4.25-32.632 3.237-9.96 5.879-16.725 5.148-20.324 0.525-4.399-5.651-3.247-14.669 0.014-20.938 12.915-24.836 18.589-45.667 17.598-64.032l-1.393-0.509c1.341 17.606-4.635 39.114-17.562 63.972-3.945 7.59-4.3 16.599 0.293 22.498 3.938 5.059 10.804 5.965 21.899-0.583 12.382-7.306 25.684-6.647 32.022-2.975z" fill="#0f141b"/>
  </g>
  <g transform="matrix(.9006 0 0 -.9006 155.16 90.388)">
   <path d="m0 0c-0.163 1.267 0.467 1.358 0.784 0.123 1.702-6.613 8.998-9.221 16.784-5.204 1.273 0.657 1.582 0.129 0.408-0.68-7.097-4.887-16.888-2.695-17.976 5.761" fill="#0f141b"/>
  </g>
  <g transform="matrix(.9006 0 0 -.9006 124.48 52.974)">
   <path d="m0 0c-9.255-14.712-16.391-31.991-18.766-47.752-4.134-27.438-19.165-36.725-27.587-30.415l1.634 0.233c7.749-4.602 21.001 5.846 24.699 30.386 2.432 16.142 8.74 32.341 16.959 46.173z" fill="#0f141b"/>
  </g>
  <g transform="matrix(.9006 0 0 -.9006 147.84 25.089)">
   <path d="m0 0c7.645 5.125 15.287 7.316 21.992 5.591 12.231-3.147 21.853-23.191 13.833-40.95l-1.167 0.787c7.129 16.45-2.104 35.747-13.09 38.573-6.266 1.614-13.338-0.504-20.479-5.219z" fill="#0f141b"/>
  </g>
  <g transform="matrix(.9006 0 0 -.9006 129.17 81.784)">
   <path d="m0 0c-5.658-4.674-8.214-8.314-11.811-17.322-9.881-24.747-20.94-36.087-34.963-36.379-5.686-0.114-10.088 1.591-11.52 4.957-1.437 3.383-0.109 8.154 5.541 10.702 4.924 2.221 8.533 0.516 9.128-2.099 0.962-4.23-5.512-7.407-9.417-6.212-1.191 0.364-1.001 0.982 0.229 0.76 3.559-0.642 8.528 2.321 7.875 5.19-0.451 1.982-3.216 3.086-7.407 1.195-4.772-2.152-5.968-5.978-4.679-9.02 1.158-2.732 4.593-4.312 10.25-4.19 13.659 0.285 23.728 11.124 33.476 35.533 3.717 9.308 7.18 14.152 13.342 19.072z" fill="#0f141b"/>
  </g>
  <g transform="matrix(.9006 0 0 -.9006 134.61 216.68)">
   <path d="m0 0c2.199 7.925 6.018 15.298 11.346 22.248l3.672 2.502c-7.614-9.894-11.457-17.517-13.794-26.363z" fill="#0f141b"/>
  </g>
  <g transform="matrix(.9006 0 0 -.9006 164.47 186.4)">
   <path d="m0 0c0.476-5.822 2.118-9.854 3.791-9.74 1.054 0.072 1.635 0.776 1.633 5.015-3e-3 6.739 0.85 11.69 2.945 16.448 0.02 0.046 0.05 0.087 0.085 0.123 3.88 3.959 9.323 6.612 14.495 7.574 3.166 0.59 3.246 1.554 1.313 2.421-3.882 1.74-8.69 1.925-14.562 0.981-1.896-0.304-2.028 0.385-0.155 0.779 5.91 1.244 11.149 1.128 15.184-0.681 2.911-1.304 3.459-3.718-1.633-4.666-4.996-0.929-9.827-3.411-13.56-7.144-2.019-4.621-2.798-9.225-2.829-15.835-0.029-6.105-1.24-6.488-2.975-6.532-2.164 0-3.649 3.365-4.024 7.203z" fill="#0f141b"/>
  </g>
  <g transform="matrix(.9006 0 0 -.9006 157.11 210.2)">
   <path d="m0 0c-5.247 0.686-5.614 14.42-0.527 30.147 0.553 1.711 1.239 1.512 0.761-0.222-4.317-15.68-3.662-27.665-0.03-28.205 2.25-0.335 7.176 9.093 7.476 25.696 0.031 1.754 0.749 1.747 0.794-8e-3 0.391-15.219-4.107-27.954-8.474-27.408" fill="#0f141b"/>
  </g>
  <g transform="matrix(.9006 0 0 -.9006 156.04 187.04)">
   <path d="m0 0c-7.267-9.763-18.403-16.802-24.674-14.13-6.6 2.815-8.456 10.644-5.481 20.384 3.967 12.991 22.08 25.927 44.812 25.927 14.409 0 22.626-7.236 21.212-10.91l-1.118 1.362c-0.478 2.554-7.055 8.058-20.086 8.058-22.831 0-39.979-13.356-43.334-24.875-2.753-9.455-0.511-16.305 4.607-18.488 5.699-2.43 17.219 4.913 24.554 15.398z" fill="#0f141b"/>
  </g>
  <g transform="matrix(.9006 0 0 -.9006 98.521 311.68)">
   <path d="m0 0c-50.648-0.56-93.024 21.267-93.024 74.304 0 54.482 35.087 90.556 52.694 83.678 7.812-3.052 11.648-14.268 6.293-26.874-4.49-10.567-14.817-14.124-20.961-11.459-5.018 2.177-7.001 10.03-3.556 18.991 2.531 6.576 7.201 9.875 10.846 8.566 4.508-1.62 4.314-10.776-2.463-14.706-1.329-0.77-1.648-0.286-0.439 0.66 5.056 3.961 5.506 11.124 1.998 12.384-2.899 1.043-6.462-1.818-8.69-7.611-2.302-5.984-1.866-14.6 3.062-16.738 4.727-2.055 14.576 0.304 18.808 10.673 4.69 11.489 1.158 21.752-5.642 24.408-14.947 5.835-49.851-26.228-49.851-81.972 0-50.235 38.982-72.541 90.083-72.12z" fill="#0f141b"/>
  </g>
  <g transform="matrix(.9006 0 0 -.9006 137.96 306.52)">
   <path d="m0 0c38.162-1.087 64.474 19.581 74.365 58.298 7.825 30.626-6.472 84.072-39.238 145.08l0.215 2.946c34.765-63.905 49.43-116.63 41.239-148.94-10.948-43.172-40.768-60.888-78.123-59.051z" fill="#0f141b"/>
  </g>
  <g transform="matrix(.9006 0 0 -.9006 54.137 203.84)">
   <path d="m0 0c0.519-19.399 12.389-28.265 39.153-29.511l-0.737-1.576c-27.394 0.934-39.63 10.985-40.166 31.087z" fill="#0f141b"/>
  </g>
  <g transform="matrix(.9006 0 0 -.9006 84.877 290.61)">
   <path d="m0 0c-73.64-13.06-81.196 73.435-61.137 109.94l8.481 9.756c-27.201-25.901-27.687-131.95 51.857-117.99z" fill="#0f141b"/>
  </g>
  <g transform="matrix(.9006 0 0 -.9006 199.24 190.58)">
   <path d="m0 0c6.556 1.383 12.707 4.394 18.436 9.167 1.585 1.319 2.952 1.172 4.077-1.293 2.311-5.068 3.575-16.105 5.686-16.01 1.682 0.077 3.454 5.042 1.779 25.428-0.336 4.084 3.044 4.606 4.374 1.197 2.866-7.356 3.999-8.094 4.694-7.933 1.7 0.405 1.749 6.455-0.204 17.322-0.465 2.58-0.117 3.927 1.459 5.658 3.355 3.688 7.699 6.295 12.471 8.018 4.848 1.751 4.186 5.102-0.334 5.497-10.785 0.942-18.956-2.601-26.432-9.273-11.921-10.638-22.41-15.453-33.953-14.828l-0.699 1.827c11.459-0.722 21.92 3.698 33.792 14.291 8.653 7.723 17.017 10.084 27.388 9.178 6.202-0.541 6.739-5.879 0.573-7.887-3.889-1.266-8.002-3.6-11.756-7.727-1.465-1.611-1.745-2.34-1.342-4.579 1.97-10.954 2.512-18.473-0.642-19.012-2.277-0.39-3.484 2.146-6.036 8.951-0.853 2.279-2.458 1.889-2.217-0.612 1.984-20.5 0.348-26.938-2.885-27.178-3.719-0.277-3.932 10.56-6.795 17.176-0.596 1.375-1.161 1.575-2.216 0.641-5.504-4.863-11.945-7.915-18.693-9.798z" fill="#0f141b"/>
  </g>
  <g transform="matrix(.9006 0 0 -.9006 159.25 305.05)">
   <path d="m0 0c7.022-2.984 9.305-5.5 9.246-9.713-0.037-2.765 5.075-7.153 15.501-8.007 12.08-0.992 16.135 0.525 16.563 1.916 0.414 1.346-0.574 2.88-5.209 4.866-3.209 1.376-3.914 3.787-1.503 6.665 3.289 3.927 8.376 6.418 19.105 9.802 31.879 10.055 41.33 58.412 10.925 90.324-6.464 6.782-12.665 13.656-18.429 24.554l-1.456 6.627c6.129-12.879 13.682-22.164 20.838-29.675 31.725-33.295 23.532-82.537-11.47-93.579-10.436-3.292-14.951-5.011-18.404-8.918-1.674-1.895-1.679-3.423 0.983-4.571 5.067-2.187 7.217-4.422 6.537-6.635-0.854-2.775-7.509-4.008-18.627-3.096-8.921 0.731-17.238 4.546-17.11 9.786 0.072 2.952-1.085 4.904-9.772 8.542z" fill="#0f141b"/>
  </g>
  <g transform="matrix(.9006 0 0 -.9006 193.3 321.3)">
   <path d="m0 0c-0.558 2.169-1.549 3.316-3.322 4.48-1.171 0.768-0.871 1.283 0.397 0.686 2.089-0.982 3.948-2.749 4.445-4.98z" fill="#0f141b"/>
  </g>
  <g transform="matrix(.9006 0 0 -.9006 161.34 101.31)">
   <path d="m0 0c0.875-4.024 1.251-8.02 1.224-14.202-0.05-11.028 0.797-15.103 5.155-14.999 3.755 0.104 4.614 3.428 2.624 14.052-0.533 2.852-0.678 3.98-0.875 6.036l-1.137 1.706c0.24-2.996 0.399-4.489 0.941-7.895 1.337-8.405 1.225-12.403-1.651-12.482-3.11-0.101-3.718 4.132-3.85 13.536-0.079 5.782-0.535 10.194-1.644 14.394-0.395 1.498-1.091 1.251-0.787-0.146" fill="#0f141b"/>
  </g>
  <g transform="matrix(.9006 0 0 -.9006 109.39 27.526)">
   <path d="m0 0c-12.482-11.34-25.595-32.062-34.692-53.875-11.818-28.33-18.302-39.847-29.687-39.396-8.836 0.35-11.723 5.044-11.373 13.501 0.583-1.283 1.983-2.333 2.975-2.274 1.47 0.086 3.506 1.768 3.09 8.748-0.364 6.129-1.64 10.213-4.607 10.265-3.324 0.058-7.058-6.707-6.766-17.38s7.233-21.696 21.638-21.522c16.765 0.204 26.634 13.405 39.659 37.21 10.149 18.547 22.513 30.095 34.528 35.81 6.503 2.479 15.513 4.841 24.855 0.561 0.719-0.531 1.507-1.144 1.857-2.106 0.349-0.962 13.384 2.712 13.297 5.249s-1.312 7.611-4.024 14.435c-6.312 15.883-17.014 21.696-26.857 21.696-6.655 0-15.63-3.417-23.893-10.922" fill="#e6d4e7"/>
  </g>
  <g transform="matrix(.9006 0 0 -.9006 36.379 98.896)">
   <path d="m0 0c1.462-21.986 32.606-28.285 47.653 1.81 23.64 47.277 35.965 59.546 55.641 61.355 14.824 1.363 23.202-11.259 20.733-13.589-0.328-0.31-1.771 0.739-3.397 1.517-19.143 7.056-40.354-5.663-54.344-28.714-13.714-22.595-23.135-44.935-44.368-44.935-14.032 0-21.694 8.045-21.918 22.556" fill="#c7b7c8"/>
  </g>
  <g transform="matrix(.9006 0 0 -.9006 41.727 100.27)">
   <path d="m0 0c-0.419-6.542 1.973-11.639 10.746-11.848 9.802-0.255 15.933 7.504 27.038 33.965 20.238 48.217 41.328 71.45 63.537 70.214 13.56-0.754 23.188-11.709 27.966-30.43l-0.044-5.205c-4.083 20.166-14.408 33.145-27.995 33.9-20.82 1.169-43.087-23.24-62.283-68.978-10.677-25.437-17.402-35.12-28.214-34.88-9.228 0.22-12.839 5.804-11.764 15.179z" fill="#0f141b"/>
  </g>
  <g transform="matrix(.9006 0 0 -.9006 144.28 53.521)">
   <path d="m0 0c-18.603 7.833-41.156-7.199-56.604-34.098-14.751-25.689-23.332-39.309-41.193-39.723-10.967-0.249-21.838 6.143-22.565 21.573-0.441 9.342 2.277 18.387 7.245 18.681 2.82 0.17 4.742-2.928 5.143-9.359 0.495-7.904-1.006-10.861-3.487-11.103-2.42-0.238-4.737 3.372-4.224 9.412 0.132 1.546 0.808 1.513 0.793-0.039-0.056-5.856 1.704-7.931 3.315-7.774 1.712 0.167 2.879 2.551 2.441 9.562-0.353 5.651-2.047 7.872-3.953 7.76-4.343-0.257-6.349-8.904-5.961-17.14 0.59-12.518 9.108-20.313 21.305-20.018 17.434 0.404 25.479 13.449 40.085 38.883 17.714 30.844 40.662 42.597 59.183 34.378 4.566-2.055 2.931-2.891-1.523-0.995" fill="#0f141b"/>
  </g>
  <g transform="matrix(.9006 0 0 -.9006 179.01 60.003)">
   <path d="M 0,0 C 10.849,1.644 17.266,19.185 11.219,21.134 6.552,22.639 4.499,5.364 -4.25,2.72 -7.098,1.859 -2.571,-0.39 0,0" fill="#e6d4e7"/>
  </g>
  <g transform="matrix(.9006 0 0 -.9006 161.31 53.369)">
   <path d="m0 0c9.71 12.389 0.963 27.084-2.89 26.234-3.721-0.821 0.802-14.086-1.019-25.837-0.388-2.501 2.406-2.315 3.909-0.397" fill="#e6d4e7"/>
  </g>
  <g transform="matrix(.9006 0 0 -.9006 160.47 85.219)">
   <path d="m0 0c2.323 1.865 3.821 5.861 4.172 11.293 0.525 8.137-2.275 12.249-5.948 12.511-3.995 0.285-8.382-3.92-8.924-11.198-0.402-5.393 0.93-9.649 3.088-11.964 2.46-2.64 5.228-2.557 7.612-0.642" fill="#fff"/>
  </g>
  <g transform="matrix(.9006 0 0 -.9006 161.29 66.802)">
   <path d="m0 0c-2.542 0.248-4.87-3.645-5.074-9.682-0.214-6.326 1.381-8.804 3.557-8.981 2.159-0.175 4.608 3.383 4.783 9.273 0.194 6.53-0.874 9.157-3.266 9.39" fill="#6dba5a"/>
  </g>
  <g transform="matrix(.9006 0 0 -.9006 161.29 66.802)">
   <path d="m0 0c-1.996 0.069-3.07-1.808-3.149-4.199-0.091-2.717 1.363-4.499 3.033-4.433 1.473 0.059 2.913 1.395 2.915 4.025 4e-3 3.073-1.163 4.55-2.799 4.607" fill="#fff"/>
  </g>
  <g transform="matrix(.9006 0 0 -.9006 138.49 73.84)">
   <path d="m0 0c-2.741-0.641-3.887-5.053-2.1-12.014 1.692-6.59 5.933-10.884 8.515-10.09 3.033 0.933 3.266 6.241 1.342 13.064-1.863 6.603-4.955 9.696-7.757 9.04" fill="#6dba5a"/>
  </g>
  <g transform="matrix(.9006 0 0 -.9006 133.92 96.059)">
   <path d="m0 0c-1.119-1.741 0.627-6.364 4.316-8.806 4.14-2.742 8.713-2.898 9.74-0.992 0.816 1.517-0.583 5.716-5.016 8.69-4.423 2.968-7.816 3.01-9.04 1.108" fill="#6dba5a"/>
  </g>
  <g transform="matrix(.9006 0 0 -.9006 178.92 60.315)">
   <path d="M 0,0 C -2.18,-0.357 -2.543,1.679 -0.744,2.187 6.081,4.111 12.613,12.802 13.079,19.917 15.646,14.493 9.433,1.545 0,0" fill="#c7b7c8"/>
  </g>
  <g transform="matrix(.9006 0 0 -.9006 67.49 277.81)">
   <path d="m0 0c-3.14 0.071-6.418-4.463-6.768-11.928-0.42-9.022 2.2-14.213 5.582-14.439 3.138-0.209 6.068 4.883 6.487 13.253 0.363 7.251-2.232 13.045-5.301 13.114" fill="#5da24e"/>
  </g>
  <g transform="matrix(.9006 0 0 -.9006 51.282 275.24)">
   <path d="m0 0c-2.445 0.278-6.05-3.193-6.766-9.277-0.838-7.115 1.953-11.675 4.255-12.068 2.86-0.489 6.207 2.93 6.906 10.045 0.643 6.562-1.326 10.951-4.395 11.3" fill="#5da24e"/>
  </g>
  <g transform="matrix(.9006 0 0 -.9006 37.587 266.63)">
   <path d="m0 0c-2.801 0.133-5.654-3.978-5.72-10.324-0.069-6.836 2.965-11.569 5.442-11.718 2.301-0.14 5.047 4.157 4.952 11.928-0.085 6.993-2.716 10.021-4.674 10.114" fill="#5da24e"/>
  </g>
  <g transform="matrix(.9006 0 0 -.9006 160.24 84.949)">
   <path d="m0 0c2.302 2.274 3.429 5.851 3.761 10.994 0.43 6.685-1.599 11.485-5.337 11.752-4.176 0.296-7.752-4.174-8.224-10.498-0.36-4.843 0.496-8.894 2.74-11.64 1.033-1.262 0.54-1.72-0.587-0.532-2.561 2.695-3.789 7.129-3.407 12.259 0.58 7.783 5.046 12.379 9.623 12.044 3.512-0.251 7.077-3.711 6.445-13.502-0.346-5.357-1.895-9.419-4.495-11.477-1.24-0.981-1.726-0.591-0.519 0.6" fill="#0f141b"/>
  </g>
  <g transform="matrix(.9006 0 0 -.9006 157.19 75.521)">
   <path d="m0 0c-0.187-5.533 0.975-8.255 3.092-8.427 2.051-0.155 4.05 3.664 4.199 8.69 0.211 7.11-0.989 8.704-2.654 8.864-1.808 0.176-4.436-3.183-4.637-9.127m3.004-9.623c-2.548 0.103-4.293 2.546-4.054 9.623 0.257 7.575 3.302 10.614 5.716 10.382 2.36-0.23 3.881-2.167 3.646-10.09-0.193-6.453-2.942-10.011-5.308-9.915" fill="#0f141b"/>
  </g>
  <g transform="matrix(.9006 0 0 -.9006 138.61 74.46)">
   <path d="m0 0c-2.338-0.546-3.245-4.859-1.615-11.209 1.824-7.11 6.021-10.12 7.77-9.578 2.222 0.683 2.937 4.846 0.861 12.203-1.858 6.589-4.802 9.103-7.016 8.584m-2.812-11.472c-1.881 7.33-0.703 12.225 2.509 12.977 3.067 0.715 6.478-2.413 8.544-9.74 2.266-8.034 1.721-13.005-1.633-13.968-2.703-0.776-7.292 2.439-9.42 10.731" fill="#0f141b"/>
  </g>
  <g transform="matrix(.9006 0 0 -.9006 134.5 96.453)">
   <path d="m0 0c-0.736-1.146 0.058-5.169 4.054-7.815 4.125-2.73 7.956-2.561 8.69-1.196 0.674 1.252-0.532 4.992-4.783 7.845-4.348 2.917-7.125 2.465-7.961 1.166m3.325-8.952c-4.431 2.933-5.991 7.751-4.637 9.856 1.27 1.976 5.128 2.262 10.148-1.108 4.77-3.201 6.331-7.527 5.249-9.536-1.135-2.107-5.672-2.582-10.76 0.788" fill="#0f141b"/>
  </g>
  <g transform="matrix(.9006 0 0 -.9006 67.505 278.51)">
   <path d="m0 0c-3.007 0.036-5.833-3.703-6.183-11.169-0.409-8.759 2.117-13.425 5.016-13.619 2.789-0.179 5.396 3.704 5.832 12.423 0.409 8.156-2.203 12.336-4.665 12.365m-1.196-26.392c-3.954 0.132-6.847 6.042-6.415 15.282 0.403 8.621 4.196 12.751 7.552 12.714 3.02-0.035 6.691-4.423 6.211-13.998-0.457-9.149-3.443-14.128-7.348-13.998" fill="#0f141b"/>
  </g>
  <g transform="matrix(.9006 0 0 -.9006 45.759 283.68)">
   <path d="m0 0c-0.737-6.262 1.315-10.809 3.762-11.227 2.892-0.488 5.477 2.506 6.153 9.39 0.647 6.599-1.29 10.149-3.85 10.44-2.106 0.245-5.369-2.688-6.065-8.603m3.528-12.686c-2.67 0.456-5.982 4.827-5.015 13.037 0.838 7.127 5.14 10.087 7.727 9.797 3.564-0.405 5.809-5.046 5.104-12.247-0.807-8.219-4.703-11.118-7.816-10.587" fill="#0f141b"/>
  </g>
  <g transform="matrix(.9006 0 0 -.9006 37.302 285.83)">
   <path d="m0 0c2.324-0.07 4.438 3.515 4.346 11.14-0.086 7.029-2.026 9.4-4.054 9.447-2.295 0.055-4.978-3.096-5.045-9.651-0.066-6.562 2.007-10.853 4.753-10.936m0.044-1.589c-3.568 0.108-6.272 5.15-6.196 12.496 0.076 7.401 3.621 11.285 6.547 11.169 2.246-0.107 5.307-2.674 5.409-10.994 0.105-8.66-2.305-12.774-5.76-12.671" fill="#0f141b"/>
  </g>
  <g transform="matrix(.9006 0 0 -.9006 161.02 53.154)">
   <path d="m0 0c8.93 12.667 0.929 26.013-2.385 25.264-3.135-0.708 1.108-15.281-0.814-25.159-0.297-1.522-1.067-1.441-0.786 0.106 1.775 9.831-3.766 25.286 1.22 26.569 5.058 1.302 13.328-15.222 3.399-27.257-0.774-0.939-1.386-0.588-0.634 0.477" fill="#0f141b"/>
  </g>
  <g transform="matrix(.9006 0 0 -.9006 178.95 59.65)">
   <path d="m0 0c10.291 2.28 16.43 19.121 11.034 19.996-3.892 0.631-6.473-15.879-15.085-18.042-1.36-0.341-1.588 0.279-0.265 0.748 8.439 2.99 9.671 20.365 15.919 18.781 6.873-1.743 0.349-20.498-11.471-22.266-1.383-0.207-1.437 0.493-0.132 0.783" fill="#0f141b"/>
  </g>
  <g transform="matrix(.9006 0 0 -.9006 240.92 151.14)">
   <path d="m0 0c2.816 1.026 6.867 1.633 10.308 1.749 0.337 0.012 0.444-0.968 0.117-1-3.186-0.318-6.882-0.516-10.337-1.606-1.034-0.325-1.113 0.484-0.088 0.857" fill="#0f141b"/>
  </g>
 </g>
</svg>
