<?xml version="1.0" encoding="UTF-8"?>
<!-- Created with Inkscape (http://www.inkscape.org/) -->
<svg version="1.1" viewBox="0 0 364.79 289.07" xmlns="http://www.w3.org/2000/svg">
 <g stroke-width="1.5985">
  <path d="m218.7 66.707c-0.56363-6.1241-3.7881-10.831-4.6606-13.533-2.4674-7.6512-7.2642-24.414-7.7416-37.003-0.44911-11.909 2.2037-14.869 7.6513-15.056 6.4127-0.22083 7.4223 6.4457 7.2117 10.361 4.4905 0.45894 9.5759 1.2393 10.562 2.2262 0.98773 0.98695 2.2206 1.9738 1.4804 7.1579-0.74103 5.1839-1.1442 7.8778-3.6099 8.1245-1.4853 0.14821-4.7453 0.02964-7.9713-0.19661 0.0844 1.5361-0.0198 3.556 0.11206 5.1315 3.6567 0.1072 6.4918 0.84096 7.1182 1.7296 0.51122 0.7273 2.473 13.335 1.7256 14.069-0.56689 0.5572-3.2261 0.97812-5.4782 1.2563 2.3899 4.6494 4.4106 11.219 5.6507 17.011 13.302-6.0733 31.923-3.4406 50.129 7.7658 0 0 12.438 7.7747 16.768 13 15.817 15.111 27.321 43.517 27.321 66.926 0 24.583-10.266 50.459-31.276 67.041 0 0-7.1747 5.7741-11.776 8.197-16.538 10.072-36.35 15.732-57.09 15.732-21.151 0-41.033-5.7499-57.512-16.591-3.4204-2.2924-12.297-10.071-12.297-10.071-29.11-31.182-31.696-53.385-30.902-72.071 0.19914-2.227 0.18865-5.7459 0.18865-5.7459 8.4883-49.922 63.081-91.76 94.397-75.461m13.521 13.566c-0.0969 3.0116 0.24454 3.6559 1.1764 5.025 2.0093 2.9519 8.3559 6.9545 11.806 9.8606 12.687 10.683 20.002 22.118 20.002 36.748 0 20.213-18.993 34.625-38.217 34.601-23.654-0.0248-39.945-14.669-39.945-36.976 0-11.558 5.6323-23.413 17.711-32.803 6.3434-4.9299 10.822-8.5075 13.44-11.18 1.3732-1.4006 1.4627-2.993 1.3514-4.1396-0.40559-4.1212-6.291-7.448-15.682-7.448-7.1158 0-16.682 3.264-24.984 8.0681-21.725 12.573-36.687 32.966-41.321 55.356 0 0-1.5941 3.2043-1.4844 6.7619-1.7934 16.309 1.0273 43.271 22.329 64.628 0 0 7.186 7.819 10.739 10.551 10.594 10.293 29.021 16.392 55.96 16.392 21.13 0 40.331-6.5353 55.396-17.147 5.2862-3.4332 11.777-9.7025 11.777-9.7025 13.784-13.854 21.573-32.844 21.573-53.23 0-23.13-7.8866-41.462-24.588-58.605-2.4278-2.914-15.64-13.183-15.64-13.183-14.036-9.5147-31.011-11.989-41.402-3.5801" fill="#eef3f6"/>
  <path d="m238.3 110.67c0.6854 5.666-1.0087 8.3786-2.5424 8.6051-1.5852 0.23121-4.0776-3.1019-4.7533-7.702-0.73134-4.9419-0.0494-8.3914 2.3415-8.7437 2.0135-0.29494 4.3268 2.627 4.954 7.8408" fill="#ed8599"/>
  <path d="m231.24 167.16c3.006 4.6219 10.341 15.227 9.8606 25.534-0.4619 9.8752-7.5134 13.29-12.483 13.639-4.9702 0.34679-13.654-1.4135-16.18-11.907-2.7488-11.413 6.4708-22.304 10.054-27.619z" fill="#ed8599"/>
  <path d="m230.12 174.64c-1.4756 0.26826-5.4943 7.1433-4.5106 12.506 0.8378 4.5742 3.8906 4.9106 5.5452 4.8308 1.5224-0.0742 4.6179-1.2668 4.2187-6.6966-0.4283-5.804-4.909-10.702-5.2533-10.64" fill="#eef3f6"/>
  <path d="m1.2515 204.43 5.0292-10.058 8.5495-8.0466 25.649-12.573 18.357-8.5495 10.058-15.59 5.7835-6.2864 9.8069-4.2748 15.087-6.0349 21.877 43.503-1.5088 5.532-9.8069 5.532-10.813 5.0292-4.2748 1.0058-16.094-1.2573-13.83-2.0117-17.099 7.7952-19.112 8.801-6.5378 2.766-4.2748 0.50292-9.8069-1.7603z" fill="#ffe792"/>
  <path d="m3.9546 205.82 11.001 4.149 6.9151-0.1258 6.4122-2.8288 27.345-12.007 9.8069-4.9034 20.179 3.3319 10.875-0.25146 6.4122-2.2002 17.161-8.7381 1.0058-5.1548-4.5263 2.2002-13.767 7.2293-4.9663 2.0117-4.5263 0.44005-22.82-1.8859-4.8405-0.81723-15.087 6.7264-20.683 9.3668-8.1724 3.2061-2.2003 0.44005h-4.9034l-6.7894-0.50292z" fill="#dbc77f"/>
  <path d="m103.72 141.69 13.83 27.787-12.196 5.532-8.0466 3.2689-3.7718 0.88011-5.532 0.12565-10.938-1.383-8.2981-1.6344-4.0232-0.8801 3.5204-6.1607 5.6578-8.1724 5.4064-6.7894 4.4005-3.7718 6.2864-2.6402z" fill="#e6a048"/>
  <path d="m113.33 159.45 2.6226 4.8452 8.0014-2.4004-0.44452-6.3566z" fill="#dbc77f"/>
  <path d="m98.886 131.91s-6.5394 2.5766-13.547 5.576c-4.3314 1.8541-9.0992 3.708-12.203 6.1996-3.0053 2.4123-5.7552 6.271-8.4272 10.048-3.8105 5.3856-7.1428 10.414-7.338 10.716-0.29174 0.14339-8.7832 4.3805-18.87 9.0497-4.2163 1.9518-8.6219 3.9561-12.579 5.7136-4.0282 1.7889-7.5907 3.3255-9.8329 4.6593-2.3541 1.4004-4.9668 3.3273-7.1401 5.8546-1.1971 1.3921-3.7488 4.7349-5.8281 7.9432-1.0396 1.6041-1.9444 3.1631-2.4852 4.5364-0.27037 0.68664-0.46554 1.3212-0.48079 2.0106-0.01519 0.68731 0.30119 1.6247 1.0677 2.0636 0.02011 0.0128 2.579 1.5492 7.2026 3.1345 5.4221 1.8592 12.096 2.496 16.221 0.77738 6.7288-2.8025 16.807-7.3438 25.333-11.246 8.334-3.8143 15.091-6.9192 15.921-7.3134 7.3212 1.0076 14.122 1.902 21.202 2.6864 1.8112 0.2007 3.4727 0.26645 5.1014 0.27785 1.4708 0.01 2.9921 6e-3 4.8986-0.24352 2.5988-0.33972 6.3385-2.1711 10.637-4.3771 4.2983-2.2061 8.9739-4.8103 12.616-6.7093 0.25021-0.13044 0.45249-0.33712 0.57758-0.59007 1.1393-2.2953 1.4695-3.5368 2.0293-5.2325 0.10975-0.33116 0.0851-0.69216-0.0687-1.0053-7.1695-14.555-14.248-29.104-22.353-43.926-0.32085-0.5892-1.0301-0.84747-1.6548-0.60255zm-0.14049 2.9379c7.7314 14.212 14.65 28.028 21.564 42.069-0.43453 1.3439-0.83758 2.5844-1.6239 4.2254-3.6329 1.9048-8.0701 4.3696-12.16 6.4689-4.2382 2.1752-8.2341 3.9022-9.7658 4.1024-1.7336 0.22662-3.0846 0.23488-4.5364 0.22478-1.5694-0.0112-3.1282-0.0772-4.8266-0.26537-7.2098-0.79876-14.42-1.6068-21.842-2.6349-0.25803-0.0352-0.52072 6e-3 -0.75554 0.1186-0.36274 0.17357-7.4143 3.4743-15.929 7.3711-8.5145 3.8968-18.559 8.6241-25.217 11.397-1.1165 0.46499-2.9163 0.72872-4.9571 0.75678-3.1133 0.0428-6.8608-0.6096-9.8966-1.4157-1.119-0.29713-2.1801-0.69851-3.0037-1.0196-2.3653-0.92206-3.487-1.7893-3.627-1.8726 0.02418-0.19023 0.32038-0.92253 0.4967-1.3704 0.41399-1.0514 1.5215-2.493 2.5115-4.0205 1.9799-3.055 4.6934-5.9729 5.769-7.2237 1.9091-2.2201 4.349-4.2031 6.5442-5.509 4.0312-2.398 13.449-6.2853 22.01-10.248 10.285-4.7611 19.513-9.0935 19.513-9.0935 0.21634-0.10614 0.39978-0.26912 0.53075-0.47143 0 0 3.4508-5.6713 7.3371-11.164 2.6843-3.7938 5.5333-7.476 7.9995-9.4554 2.4826-1.9927 7.0858-3.9921 11.504-5.8832 6.3871-2.7339 11.41-4.7103 12.36-5.0858z" color="#000000" fill="#0f141b" stroke-linejoin="round" style="-inkscape-stroke:none"/>
  <path d="m187.12 240.17c-1.32 11.244-6.611 20.138-13.642 20.745-4.2123 0.3646-8.5914-2.406-11.867-7.2504-8.1649 9.2776-28.872 32.875-30.116 33.974-1.5102 1.3409-5.5209-0.0198-8.0802-2.9559-2.5585-2.9383-1.9746-7.4843-0.0919-9.547 0.47974-0.5249 1.5836-1.7804 4.6452-4.796-1.0353-4.6791-3.0068-13.415-3.0068-13.939 0-0.70151 15.298-17.515 15.764-17.515 0.31449 0 2.3747 8.1811 3.6519 13.688 5.8313-6.3909 11.214-12.539 11.964-13.286-0.46768-2.1199-1.1248-4.6486-1.3184-6.8764-1.3296-15.353 4.0469-30.082 13.335-30.884 8.6293-0.74665 16.388 10.853 18.523 25.008 0 0 0.23625 2.8947-0.0613 3.4334-13.897-5.3767-18.244-11.538-18.244-11.538-1.1716 2.74-1.6667 7.6021-1.2377 12.564 0.3556 4.1091 1.2498 7.815 2.4818 10.427 4.4195-0.56206 5.9483-5.1073 5.9483-6.4144 0 0 8.8398 4.4002 11.348 5.1598" fill="#3e3a39"/>
  <path d="m292.14 241.69c1.8287 1.2675 47.579 34.874 49.157 35.817 1.5804 0.94421 4.9243-1.3538 6.6603-5.0605 1.42-3.0279 1.2442-7.2271-0.37151-8.3487-2.2158-1.5368-4.4679-3.114-4.4679-3.114 1.6901-4.788 5.3661-15.402 4.9195-15.843-0.57894-0.56684-15.639 4.7742-15.639 4.7742s-5.9611-17.393-7.1553-17.551c-0.91117-0.121-3.6647 9.0027-4.7776 13.469 0 0-25.616-17.692-27.195-18.654 0.83533-17.929-4.7768-34.925-11.93-34.919-3.4204 5e-3 -7.057 4.309-10.614 16.394-0.3379 1.1434-1.3385 1.8683-3.0084 1.5482-1.6707-0.32112-3.7929-0.83539-4.8864 1.1571-1.0918 1.9924-2.8245 11.06 1.3377 16.372 0 0 8.1326-3.3664 10.853-5.5765-0.91438-2.7914 1.6215-5.8524 3.0867-5.854 2.4511-3e-3 3.9147 5.4492 3.9211 11.484 0.01 6.032-1.0644 10.95-3.5156 10.952-1.2522 3e-3 -3.1407-2.0021-3.8866-3.7656l-6.4296 2.9754c1.0595 13.258 7.1214 22.472 13.517 22.459 4.634-5e-3 8.9188-8.7301 10.425-18.715" fill="#ce7240"/>
 </g>
 <g transform="matrix(1.5985 0 0 1.5985 36.204 -112.15)" fill="#3e3a39">
  <path d="m115.79 152.03c0 2.7214-1.0855 4.5187-2.5696 4.5187-1.5279 0-2.6457-1.8386-2.6457-4.5616 0-2.9096 1.5032-4.5621 2.6508-4.5621 1.657 0 2.5645 2.1262 2.5645 4.605"/>
  <path d="m137.4 151c0 2.4419-0.94227 3.9754-2.1151 3.9754-1.4053 0-2.2987-1.4614-2.2987-3.9754 0-2.6876 1.248-4.0405 2.3032-4.0405 1.5269 0 2.1106 1.7509 2.1106 4.0405"/>
  <path d="m128.53 155.13c0-1.7973-1.4765-3.4236-3.4195-3.4236-1.9431 0-3.4241 1.654-3.4241 3.4236 0 1.3594 0.87521 2.6427 2.158 3.1688-1.3428 2.9434-3.4907 7.6447-3.364 7.9408 0.14773 0.34351 5.5084 1.2566 7.5165-0.85097 0.37074-0.38792-1.1536-4.7255-1.7716-7.0409 1.361-0.48073 2.3048-1.7887 2.3048-3.2178"/>
  <path d="m173.68 139.97c2.0803-2.0505 3.8619-3.2435 4.2281-4.1969 0.53318-1.3902 1.1345-7.7481 1.1597-13.011l-6.7039-8.4921c-3.3797-0.65272-14.523-0.64719-15.723-0.14742-0.68653 0.28557-10.277 10.698-10.483 11.501-0.20336 0.80254-0.61993 4.102-0.31175 5.183 0.41114 1.4452 13.706 17.605 14.302 18.027 0.59523 0.4217 2.6442 1.0845 3.2773 0.89335 0.22035-0.0665 2.6714-2.2987 4.9429-4.4451-1.8089-4.6337-5.9871-9.1448-5.9871-9.1448l-0.82575 0.88426s-4.9041-5.6264-4.7154-6.149c0.19007-0.5231 6.7831-6.6898 7.1967-6.6172 0.41515 0.072 4.5706 6.4108 4.5706 6.4108l-0.54075 0.56547s4.5974 5.6875 5.6133 8.7388"/>
 </g>
 <g transform="matrix(1.5985 0 0 1.5985 36.204 -112.15)">
  <path d="m195.16 90.438c0.34302-0.43128 9.4374-1.7282 9.6896-1.4149 0.25157 0.31375-1.9118 9.9948-2.5388 10.652-0.627 0.65677-24.557 23.877-25.028 23.835-0.47115-0.0408-4.9883-6.0628-5.0655-6.4053-0.0782-0.34302 0.14865-2.8309 0.14865-2.8309s6.8613-6.6721 7.0807-6.9481c0.21849-0.27537 5.6002 1.4003 5.6002 1.4003s1.1556-9.2462 1.4719-9.4985c0.31677-0.2528 7.7294 0.09673 7.7294 0.09673s0.56801-8.4547 0.91152-8.8866" fill="#dcdbd6"/>
  <path d="m41.557 158.22 0.1875 0.375c-0.0043 2e-3 -0.0054 2e-3 -0.0098 4e-3 -0.27594 0.12775-0.68846 0.3149-1.2031 0.54297-1.0293 0.45613-2.4709 1.0817-4.0742 1.7676-2.3026 0.985-5.1853 2.1202-7.0965 3.2564-1.5896 0.94503-3.67 3.1784-5.2238 5.0815-2.5951 3.1785-6.4116 10.009-6.5332 10.227l-39.586 18.129 0.36133 0.7871 39.709-18.048c0.19816 0.054 5.3356 1.3112 10.471 2.0543 2.5124 0.36358 4.9835 0.47773 6.8438 0.34766 2.4608-0.17205 6.4072-1.6996 9.7408-3.2514 2.1984-0.97292 4.5058-2.1127 6.6124-3.2617l-9.0446-17.637-0.0098 0.0137c-0.0334-0.0599-0.07024-0.12493-0.07031-0.125-1.14e-4 -1.1e-4 -0.14043-0.0956-0.14062-0.0957-1.94e-4 -8e-5 -0.09347-0.0254-0.09375-0.0254zm0.57617 1.1484 8.2324 16.412c-0.30911 0.16848-2.5659 1.4065-5.666 2.8496-3.3042 1.5381-7.2238 3.1028-9.3574 3.252-1.771 0.12383-4.2004 0.0139-6.6582-0.34179-4.9426-0.71531-9.6285-1.9118-10.051-2.026 0.52474-0.9286 3.9697-6.7581 6.2918-9.6022 1.5141-1.8545 3.652-4.1643 4.9953-4.9629 1.7964-1.0679 4.5529-2.2479 6.8789-3.243 1.6063-0.68716 3.0478-1.3151 4.082-1.7734 0.51712-0.22915 0.93267-0.41728 1.2168-0.54882 0.01503-7e-3 0.02087-9e-3 0.03516-0.0156z" color="#000000" fill="#0f141b" style="-inkscape-stroke:none"/>
  <path d="m62.468 166.11c4.4889-3.0876 7.3904-6.5036 6.4835-8.369-1.2419-2.554-8.6893-1.1859-16.464 2.5928-6.1087 2.9701-11.222 6.5006-12.298 9.2336-0.5463 1.3902 0.90142 2.156 2.3966 1.7297 1.4608-0.41769 2.333-1.651 3.0256-2.4369 0.81768-0.92716 3.6274-3.6062 8.1723-5.8146 3.8554-1.8745 9.8485-3.4412 10.216-2.5938 0.16846 0.3899-0.03984 1.1012-1.532 2.0434 0 0-0.40708 2.3264 0 3.6148" fill="#ffe792"/>
 </g>
 <g transform="matrix(1.5985 0 0 1.5985 36.204 -112.15)" fill="#fff">
  <path d="m120.46 182.5c-0.59119 0-1.139 0.8434-1.139 1.8069 0 0.94681 0.5791 1.7292 1.1138 1.7292 0.58009 0 1.0467-0.82776 1.0467-1.7292 0-0.90043-0.48073-1.8069-1.0215-1.8069"/>
  <path d="m112.43 131.69c-0.38891-0.44139-1.88-0.12764-3.4175 1.1395-1.4361 1.1819-1.7847 3.015-1.3181 3.5457 0.48678 0.55132 2.6806 9e-3 3.812-1.1885 1.2263-1.2984 1.4114-2.9438 0.9236-3.4967"/>
  <path d="m99.362 112.87c-0.24313-0.62549-1.8861-0.94279-3.5764-0.2355-1.6893 0.70721-2.6331 2.3184-2.2785 3.0256 0.3536 0.70773 2.3577 0.4323 3.6153-0.11806 1.7125-0.74908 2.507-1.9844 2.2397-2.672"/>
  <path d="m109.7 73.5c0 0.76926 0.64821 1.4447 1.9441 1.4447 1.0356 0 1.6812-0.65881 1.6812-1.474 0-0.64212-0.59622-1.3261-1.71-1.3261-1.0608 0-1.9153 0.72689-1.9153 1.3554"/>
 </g>
 <g transform="matrix(1.5985 0 0 1.5985 36.204 -112.15)" fill="#cacfd2">
  <path d="m153.72 214.62c-10.347 6.3009-22.74 9.8415-35.716 9.8415-13.232 0-25.669-3.5971-35.979-10.379-0.79095-5.2284 1.1476-6.713 1.1476-6.713 6.6272 6.4396 18.156 10.255 35.008 10.255 13.219 0 25.23-4.0884 34.655-10.727 0 0 1.6046 2.8712 0.88426 7.7218"/>
  <path d="m161.09 209.49c3.9421-3.1113 7.2673-6.7543 10.009-10.732-2.8445 0.70619-5.1921-0.7718-6.0618-3.6798-1.4492 2.0354-3.0558 3.9633-4.831 5.748 0 0 0.88377 7.3365 0.88377 8.6641"/>
  <path d="m74.333 207.78c-8.1557-8.7357-12.978-16.343-15.777-23.133 1.5547 0.90747 4.4234 0.82122 6.4582-2.1867 2.1474 6.2126 5.7303 12.581 11.441 18.307 0 0-2.0873 5.0423-2.1216 7.0121"/>
  <path d="m94.769 156.98s1.6611 16.262 24.982 17.321c18.321 0.83382 23.15-16.155 23.15-16.155-21.985 18.988-45.469 0.49989-47.799-1.8321"/>
 </g>
 <path d="m241.16 195.77c-14.835 11.464-29.217-3.5963-29.441-6.5175 0 0-1.4683 14.039 13.486 17.08 13.259 2.6979 15.956-10.563 15.956-10.563" fill="#ce7486" stroke-width="1.5985"/>
 <path d="m233.75 171.73c-5.3919 4.7186-14.609 0.22476-14.609 0.22476l3.3712-4.9452 8.7664-0.44758z" fill="#ce7486" stroke-width="1.5985"/>
 <g transform="matrix(1.5985 0 0 1.5985 36.204 -112.15)" fill="#2f2826">
  <path d="m87.111 217.2c-0.68855 4.1343-3.4448 3.6919-3.4448 3.6919s1.3282 2.7562 2.7557 2.8541c1.7373 0.11991 2.5166-2.161 2.678-5.0196z"/>
  <path d="m88.391 211.35c-1.1809-4.6766-3.4453-6.0053-4.0355-5.7591 0 0-1.0825 0.19718-1.3786 1.5753 0 0 3.8887 3.3958 4.7744 3.9386z"/>
  <path d="m81.175 222.52-21.322 24.003s0.60431 1.5425 0.46963 2.8162c0 0 19.244-21.657 20.249-22.864 1.0053-1.2056 0.6033-3.9547 0.6033-3.9547"/>
  <path d="m93.647 224.4s-2.8157 5.0287-6.4365 5.9003c-3.6203 0.87116-6.035-2.8818-6.4365-3.7545l-1.9446 2.5479s3.0165 5.2284 7.6431 4.4915c4.6266-0.73647 7.1745-9.1852 7.1745-9.1852"/>
 </g>
 <path d="m309.56 103.5c-7.7351-1.2272-9.0864 6.0161-9.0864 6.0161s-10.144-12.588-11.74-13.816l7.2432-7.7351s12.601 13.57 13.583 15.535" fill="#cacfd2" stroke-width="1.5985"/>
 <path d="m298.52 108.22c-1.2345 0.9547-2.09 1.6151-2.09 1.6151l-2.8399-3.7728 2.369-1.7547z" fill="#2f2826" stroke-width="1.5985"/>
 <g transform="matrix(1.5985 0 0 1.5985 36.204 -112.15)" fill="#a95c32">
  <path d="m190.52 240.8-33.553-24.511s-1.0724 1.876 1.0709 3.4821c2.1434 1.6071 32.548 23.642 32.548 23.642z"/>
  <path d="m194.27 235.71c-0.74806 0.0247-2.6785 1.3408-3.2142 3.2152-0.53519 1.875-1.2722 4.6221 0.53571 4.9555 1.8079 0.33544 3.2813-2.3431 3.8176-3.6834 0.5357-1.3398 0.87115-4.554-1.139-4.4874"/>
  <path d="m153.81 207.17c-0.81617-2.9978-2.2816-3.9104-3.2258-3.6496-1.2283 0.33949-2.9943 1.4523-3.4624 6.4754l1.539-0.93826s0.20089-3.5486 2.2104-3.6158c0.79092-0.0247 1.3948 0.90243 1.8356 2.0364 0.68252 1.7499 1.5759 1.43 1.1032-0.30812"/>
  <path d="m158.1 220.44s-0.54479 4.6816-2.6992 8.5244c-2.4773 4.4204-8.0149-1.0749-9.0202-4.3058 0 0 2.9464 8.9067 7.3667 8.6389 4.4203-0.26795 6.2953-10.714 6.2953-11.117z"/>
 </g>
 <path d="m142.3 148.42c-3.7422 0.57008-4.2299-2.1158-4.2299-2.1158l-1.5457 1.7901-0.0815 5.1259s3.3357-2.1973 5.8572-4.8001" fill="#dbc77f" stroke-width="1.5985"/>
 <g transform="matrix(1.5985 0 0 1.5985 36.204 -112.15)" fill="#cacfd2">
  <path d="m123.02 78.894c0 0.32386-0.65324-0.8091-0.76725-0.2559-0.43379 2.0717-0.89233 7.6078-1.5647 8.0114-0.85401 0.51201-6.486 0-7.0832-0.08561-0.59724-0.0853-1.878 0.1709-1.0245 0.93875 0.85301 0.76824 8.7897 1.3655 9.7285 0.59724 0.93825-0.76775 0.71125-9.2059 0.71125-9.2059"/>
  <path d="m118.98 91.599c0.25621 2.0485 1.2808 6.656 0.85401 8.1067-0.21387 0.73243-1.5365 1.0235-2.56 1.194-1.0235 0.1709-2.9867 1.2802-1.194 1.2802 1.7912 0 4.8632-0.34151 5.461-0.93875 0.42473-0.42424 0.11497-5.5619-0.59675-8.192-0.29298-1.0739-1.9642-1.4502-1.9642-1.4502"/>
  <path d="m123.11 117.29s9.8288-4.159 22.588 2.5519c0 0-14.177-5.577-23.155 0.37782z"/>
  <path d="m124.46 187.38c-0.51503 0.51504-1.2348 1.1839-2.5212 1.2863-1.2863 0.10291-3.19-0.61743-3.4987-1.646 0 0 0.56396 3.189 3.4987 3.189 2.6241 0 2.5212-2.8293 2.5212-2.8293"/>
 </g>
 <path d="m238.6 113.11c-0.98774 1.5618-1.399 2.4666-3.127 2.7133-1.7296 0.2465-3.7841-1.5627-4.0308-2.8786 0 0 1.5642 6.9087 4.5244 6.4152 2.9617-0.49254 2.6335-6.2498 2.6335-6.2498" fill="#ce7486" stroke-width="1.5985"/>
 <g transform="matrix(1.5985 0 0 1.5985 36.204 -112.15)" fill="#0f141b">
  <path d="m115.13 91.458c-0.0831-0.99524-0.15143-1.9885-0.2052-2.9585-0.0278-0.52007 1.8553-0.62447 1.882-0.10508 0.055 0.95188 0.12053 1.9285 0.20336 2.905 0.0433 0.51955-1.8392 0.64972-1.88 0.15823"/>
  <path d="m110.67 84.865c-0.1573-1.4931-0.34552-3.8977 0.0871-5.9019 0.24477-1.1385 0.81213-1.0068 0.7849 0.157-0.0389 1.768-0.0433 4.206-9e-3 5.7843 0.0405 1.8351-0.67391 1.7731-0.86358-0.03925"/>
  <path d="m113.6 112.11c-0.88025-2.6422-2.2816-6.2212-3.0982-8.3998-4.606-12.285-6.8789-27.897-3.0589-32.005 1.824-1.9622 5.1977-2.0793 7.1054-0.22345 1.4886 1.4487 1.7776 3.9209 1.8089 5.3833 5.3561 0.60784 5.9927 0.90997 6.719 1.4543 0.72739 0.54427 1.5784 1.705 1.1057 5.0186-0.40557 2.8354-0.64212 5.6416-3.1002 5.8877-1.5269 0.15329-5.4534-0.36471-7.9685-1.0719-1.2096-0.33999-1.1768-1.0745 0.0788-0.9428 2.5998 0.27382 6.5752 0.51757 7.8187 0.39296 0.71831-0.0717 0.81565-1.1123 1.304-4.5328 0.37783-2.6488-0.0464-3.2006-0.58564-3.6027-0.53875-0.40254-1.9421-0.76976-6.1107-1.1965-0.81617-0.08375-0.8994 0.01854-0.84543-0.98816 0.0399-0.75866 0.0701-3.3393-1.2469-4.6816-1.2207-1.2434-3.9043-0.92818-4.8738 0.11497-2.9418 3.1618-0.81768 16.947 3.5038 30.413 0.91909 2.8611 2.3325 6.5541 2.7653 9.2654 0.0828 0.51451-1.1658 0.18018-1.3211-0.28618"/>
  <path d="m116.73 101.63c1.6742-0.25929 3.7681-0.70569 4.0455-1.0013 0.27691-0.29576-0.85548-7.3132-1.0548-7.6547-0.20119-0.3415-2.0863-1.0099-5.8978-1.0492-1.2147-0.01236-1.196-0.87972 0-1.0215 2.9857-0.35359 6.5732-0.26949 7.4742 1.0084 0.34253 0.48728 0.73246 2.8864 0.9988 4.8133 0.62901 4.5565 0.31022 4.8713-0.0278 5.2042-0.54529 0.53519-2.7486 0.84038-5.6955 0.64367-1.1617-0.0773-1.5163-0.68403 0.15731-0.9428"/>
  <path d="m79.08 220.86c-0.9453-0.55337-1.3135-0.76068-2.1892-1.0361-0.59069-0.18606-0.45802-0.79297 0.16142-0.7153 0.9221 0.11496 1.8901 0.57656 2.4187 1.1748 0.62701 0.70822 0.2749 0.96699-0.39094 0.57657"/>
  <path d="m83.307 234.01c-1.8402-0.71527-3.6359-2.2836-5.175-4.3765-0.23154-0.31425 0.90697-1.1546 1.1395-0.83886 1.988 2.7028 4.3104 4.0804 6.5445 3.8912 3.7752-0.32636 6.9258-5.1316 7.8414-11.958 0.05096-0.38792 1.1516-0.12764 1.1143 0.26177-0.56749 5.859-2.793 10.454-5.864 12.417-1.6934 1.0805-3.8503 1.2843-5.6007 0.6038"/>
  <path d="m67.15 227.7c2.0016-2.1928 3.9179-4.3401 5.3172-5.9084 0.94783-1.0613 1.7973-1.9153 1.9173-2.1363-0.39648-1.2767-0.90344-3.419-0.94631-6.9627-0.05195-4.2968 0.73798-8.1466 1.7554-10.628 1.6606-4.0491 4.3986-6.541 7.4167-6.8028 5.5725-0.47668 10.844 6.8028 12.021 16.675 0.21439 1.8038-0.48627 1.8649-0.80759 0.0773-1.5572-8.6737-6.3548-15.486-11.088-15.067-2.4631 0.21325-4.6186 2.278-6.0683 5.8121-0.93673 2.282-1.7262 5.9674-1.7373 9.8843-0.0061 2.0813 0.20731 4.2286 0.73546 6.265l0.18259 0.80557c0.05297 0.23643-0.01978 0.48374-0.1922 0.65424-0.19622 0.19625-1.0512 1.1536-2.1332 2.3663-1.4023 1.5713-3.3227 3.7222-5.3273 5.92-0.13923 0.15175-1.308-0.66536-1.0452-0.95389"/>
  <path d="m85.693 224.03c-2.616-0.83735-4.0022-5.1669-4.3593-9.2972-0.29712-3.4362 0.05096-7.6512 1.4997-9.3194 0.48829-0.56293 1.0018-0.70266 1.3468-0.72185 0.5125-0.0185 1.5204 0.10848 2.3759 1.6959 0.46761 0.86764 0.0777 1.1325-0.61137 0.42878-0.64214-0.65726-1.3433-1.2833-2.0435-0.47517-0.82475 0.95186-1.5133 4.1732-1.1587 8.2706 0.43129 4.9767 1.9844 7.9796 3.3025 8.3539 0.53217 0.15082 0.8419 0.0773 1.0628-0.0989 0.61793-0.49535 0.59876-0.0705 0.48627 0.35309-0.11803 0.44188-0.7516 1.1784-1.9012 0.81012"/>
  <path d="m151.39 233.66c-3.243-1.6182-6.3599-7.1422-6.9158-14.1-0.0309-0.38842 1.1385-0.40103 1.1925-0.0154 0.88377 6.3024 3.8085 11.109 6.3871 12.401 1.0088 0.50595 1.9264 0.63659 2.9479-0.17646 1.8613-1.486 3.6718-5.6431 4.4102-10.524 0.0575-0.38538 1.0956-0.20366 1.0684 0.18698-0.32182 4.7361-2.2291 10.128-4.777 12.003-1.2737 0.93625-2.6578 1.0508-4.3134 0.225"/>
  <path d="m148.96 217.74c-0.13969-0.36471 0.90797-0.78793 1.082-0.43836 0.9766 1.9759 2.0853 1.878 2.5413-3e-3 0.27599-1.142 0.49687-2.7335 0.49434-4.6433-1e-3 -1.8402-0.22191-3.5431-0.61944-4.7936-0.85098-2.6715-1.8962-1.8861-2.6266 0.8192-0.1023 0.37732-1.3993 0.73848-1.3549 0.34858 0.39649-3.4846 2.1716-4.3997 2.911-4.38 2.6997 0.0717 3.2576 5.5129 3.2596 8.0134 3e-3 2.0414-0.18666 3.7828-0.54983 5.0388-0.95438 3.2985-3.868 3.352-5.1376 0.0389"/>
  <path d="m113.28 147.76c-1.142 0.0185-2.2316 1.4986-2.2316 4.2226 0 2.3698 0.93268 4.2524 2.1918 4.2524 1.2162 0 2.0813-1.8649 2.0813-4.2095 0-1.991-0.74252-4.2856-2.0414-4.2655m-0.0569 9.2558c-1.8356 0-3.1179-2.0702-3.1179-5.0332 0-3.1093 1.6198-5.0337 3.1224-5.0337 1.8165 0 3.0362 2.0399 3.0362 5.0766 0 2.9383-1.2505 4.9903-3.0407 4.9903"/>
  <path d="m123.49 134.69c-1.4598 0.17771-1.3085 3.5421-1.0648 5.1851 0.28 1.9057 1.0593 3.5068 1.6737 4.2372 0.5155 0.61742 1.0179 0.55487 1.363-0.12115 0.3869-0.75817 0.6699-2.3517 0.40606-4.5303-0.36722-3.0488-1.6187-4.7709-2.3779-4.7709m0.19316 10.255c-1.081-0.80762-2.0581-2.7285-2.3779-4.9046-0.29669-2.0132-0.19007-5.798 1.9431-6.1122 1.7499-0.25065 3.3378 2.043 3.7429 5.3969 0.31731 2.6245-0.0831 4.3724-0.81212 5.294-0.59524 0.75211-1.6419 0.96295-2.4959 0.32587"/>
  <path d="m118.5 134.77c-7.6174 2.2155-12.908 10.601-12.954 17.068-0.0388 5.2693 1.6752 9.9186 4.8254 13.092 2.9393 2.9615 7.0863 4.5268 11.991 4.5268 4.5616 0 9.0636-1.9678 12.353-5.3984 3.2263-3.3686 4.9712-7.8152 4.7855-12.201-0.30257-7.1256-4.7194-13.67-10.894-16.355 0.56245 1.588 0.96548 3.305 1.1859 5.069 0.5428 4.3598-1.2943 7.9271-4.273 8.2979-3.0291 0.37781-5.5351-1.8154-6.5516-5.7192-0.46154-1.7751-0.91856-4.3104-0.46759-8.3806m3.8619 35.819c-11.687 0-18.487-7.9867-18.413-18.382 0.0575-7.8399 6.4688-16.767 15.087-18.745 0.84291-0.18852 0.73443 0.28062 0.68804 0.62701-0.58766 4.3664-0.12702 6.9844 0.33897 8.7766 0.8762 3.3625 2.8682 5.1856 5.3172 4.8819 2.2997-0.28711 3.7444-3.3777 3.2884-7.0353-0.21387-1.7262-0.54628-3.8766-1.6066-6.9808-0.31629-0.92561 0.21294-1.2606 0.64317-0.38335 0.11496 0.23303 0.31022 0.65272 0.41716 0.89434 7.0928 2.5519 12.456 9.728 12.793 17.665 0.41817 9.8682-7.4807 18.682-18.554 18.682"/>
  <path d="m135.29 147.24c-0.73901 0-1.8351 1.3226-1.8351 3.757 0 2.161 0.64768 3.7585 1.7741 3.7585 0.79648 0 1.6949-1.483 1.6949-3.7585 0-1.3332-0.2083-3.757-1.6339-3.757m-9e-3 8.2031c-1.7075 0-2.7703-1.7035-2.7703-4.4461 0-2.9302 1.4296-4.5121 2.7754-4.5121 0.96449 0 2.6221 0.89536 2.5812 4.5121-0.0278 2.618-1.0643 4.4461-2.5862 4.4461"/>
  <path d="m121.46 166.17c1.198 0.13382 4.325 0.24322 5.7561-0.54177 0.62901-0.34703 0.59524-0.5256 0.47316-1.0371-0.21942-0.92613-0.85401-2.5378-1.198-3.6713-0.27135-0.88983-0.53519-1.7574-0.71932-2.447-0.0912-0.33848-0.0807-0.43132 0.29854-0.566 1.1718-0.41463 1.991-1.5552 1.991-2.7739 0-1.6006-1.3514-3.1734-2.9489-3.1734-1.7665 0-2.9514 1.7473-2.9514 3.1734 0 1.1582 0.76624 2.2821 1.8639 2.733 0.53973 0.21943 0.33544 0.36168 0.19378 0.75616-0.12146 0.33946-2.2351 4.7744-3.0584 6.7306-0.32234 0.76772-0.16379 0.7657 0.29947 0.81716m-0.8323 0.66282c-0.50493-0.16379-0.68604-0.27783-0.44139-1.0416 0.50041-1.5647 2.1928-5.5296 3.2728-7.3955-1.4603-0.61992-2.2412-1.8694-2.2412-3.2627 0-2.1115 1.7837-3.8957 3.8947-3.8957 2.1458 0 3.8907 1.7478 3.8907 3.8957 0 1.4906-1.0079 2.903-2.387 3.3626 0.47971 1.2994 1.8291 5.5876 1.881 6.3957 0.0429 0.63961-0.0464 0.80254-0.59422 1.2136-1.8084 1.3534-5.5397 1.2934-7.2754 0.7279"/>
  <path d="m109.14 191.94c-1.599-6.6439 3.1668-12.834 5.8161-16.558 0.34555-0.48376 0.65828-0.9236 0.9231-1.3155 0.24601-0.36725 1.5759 0.52863 1.3277 0.89486-0.26918 0.40353-0.59118 0.85401-0.94378 1.3514-2.4914 3.4992-6.6605 9.3582-5.2314 15.293 1.645 6.829 7.5443 7.0792 9.3062 6.9516 3.1023-0.21726 6.7109-2.503 7.0454-7.8868 0.38789-6.2368-2.8632-11.19-6.1682-15.729l1.7832-0.16782c2.0394 3.1149 6.5743 9.3224 6.2751 15.697-0.29916 6.4396-5.0832 9.5928-8.8422 9.8369-4.5278 0.29268-9.849-2.3789-11.291-8.3675"/>
  <path d="m121.25 179.73c-0.44692-0.0155-2.8495 4.4173-2.2987 7.4232 0.32688 1.7776 1.2333 2.6417 2.7714 2.6417 0.79748 0 2.6493-0.54022 2.4021-3.6884-0.23241-2.9827-2.4288-6.3604-2.8748-6.3765m0.47267 11.008c-1.2813 0.0278-3.181-0.59221-3.699-3.414-0.65776-3.593 1.7529-7.1801 2.3951-7.8474 0.63405-0.66331 0.91251-0.63707 1.4522-0.16348 1.1239 0.98616 2.9832 3.8377 3.1961 6.7236 0.20768 2.8309-1.2006 4.6534-3.3444 4.7013"/>
  <path d="m83.602 220.59c2.4808-0.64972 3.0029-3.0846 3.0029-3.536 0-0.38994 0.99171-0.24076 0.99171 0.14927 0 1.254-0.55891 3.8897-3.6334 4.2387-0.06153 6e-3 -0.73899-0.75312-0.36117-0.85199"/>
  <path d="m81.153 221.92c-0.57404-0.69005-1.025-0.42068-0.59876 0.36823 0.66686 1.2389 0.11148 2.8344-0.61389 3.8115-0.2487 0.33344-2.0606 2.3315-4.5242 5.1316-4.2645 4.8491-11.521 13.127-14.75 16.722-0.29357-1.3635-0.81264-2.1741-1.769-3.0987-0.83938-0.81064-1.9834-1.3716-2.9015-1.5562-0.87872-0.17493-1.1335 0.0912-0.31981 0.46457 0.75917 0.34907 1.6828 0.89687 2.3839 1.5683 1.1441 1.0956 1.654 2.3991 1.5501 3.3202-0.09482 0.82878-0.86308 1.1042-1.3458 1.0729-0.86258-0.055-2.0883-0.69005-3.1729-1.9325-1.3892-1.596-1.3539-3.6839-0.04542-5.0584 0.29258-0.3072 0.99121-1.0815 2.4162-2.505 0.19622-0.19687-0.08524-1.9063-0.3642-1.6319-1.881 1.8513-2.7774 2.8067-3.1199 3.2092-1.7706 2.0778-1.7827 4.8128 0.04688 6.9142 1.1763 1.3484 3.012 2.2316 4.438 2.2745 0.67342 0.0216 1.3877-0.22498 1.9385-0.7763 0.4217-0.4217 8.1355-9.0233 16.076-18.053 2.3663-2.6906 4.1222-4.6937 4.5369-5.2461 0.88174-1.1748 1.4977-3.3636 0.13821-4.9999"/>
  <path d="m57.269 240.94c-0.28702-0.93924-1.8185-7.4177-2.3027-9.6372-0.18664-0.85703-0.28399-0.84945 0.35563-1.6878 0.57858-0.75919 1.8235-2.2089 4.5015-5.1694 2.2477-2.4838 3.5255-3.8554 4.2841-4.612 1.6051-1.6056 1.8901-0.73295 2.2094 0.28 0.8772 2.7784 2.8046 10.654 2.6871 11.245-0.06153 0.30813-3.4967 3.7671-6.1702 6.7216-1.4038 1.5511-2.0056 0.9191-0.65324-0.68399 1.3372-1.5859 4.7068-5.4236 5.4004-6.3448-0.2159-1.2823-2.218-10.58-2.3698-10.615-0.15233-0.0368-9.0561 10.017-9.104 10.232-0.04688 0.21603 1.8619 9.3501 1.9703 9.8682 0.30315 1.4558-0.39396 1.7609-0.80861 0.40303"/>
  <path d="m194.53 240.4c-0.5019 1.0704-1.142 1.9118-1.8921 2.3981-0.68301 0.44188-1.6717 0.52159-1.706-0.95287-0.0216-0.87722 0.18605-2.1605 0.66332-3.1784 0.37682-0.80255 0.87922-1.5451 1.6853-2.214 1.0674-0.88578 1.6006 0.0216 1.702 0.5796 0.16658 0.89789 0.0813 2.2276-0.45248 3.3676m0.66483-5.6058c-0.90546-0.65022-2.7401-1.8997-2.7401-1.8997l-0.47213 1.3927 1.4346 0.99623c-1.0992 0.40557-2.1696 1.6485-2.8052 2.9499-0.59524 1.2177-0.89588 2.4576-0.88426 3.8437-0.29824-0.17306-14.146-10.339-21.219-15.539-5.7641-4.2382-10.086-7.3773-10.749-7.8863-0.79952-0.61542-0.79498-2.1302 0.1196-4.0506 0.29855-0.6275 0.80054-1.0411 1.3912-1.2934 0.93622-0.40001 1.8659 0.0309 2.4858 0.45097 3.1613 2.1448 11.135 7.6396 15.669 10.772 0.12208 0.0844 1.1239-0.94276 0.80255-1.1647-0.61288-0.4222-14.456-10.001-16.988-11.684 0.72234-9.1927-1.3055-17.29-4.5762-20.713-1.65-1.7272-3.7646-1.987-5.3359-0.86661-1.9189 1.367-3.7782 5.1492-5.296 10.388-0.0878 0.30504-0.29113 0.62599-1.2086 0.44693-0.91807-0.17956-2.7713-0.54177-3.6707 1.1052-0.81466 1.484-2.393 7.2709 0.85855 9.7194 1.0825 0.81618 1.6071 0.24725 0.67695-0.73647-1.9168-2.0243-0.87067-7.2547-0.29546-8.3034 0.34756-0.63609 0.9645-0.62802 2.1615-0.39648 1.197 0.23148 2.4223-0.0479 2.8354-1.4356 1.7282-5.8116 3.3247-8.3156 4.6196-9.2553 1.1128-0.80508 2.501-0.44139 3.5497 0.65878 2.953 3.0902 4.839 11.151 4.5676 19.335-1.3256-0.17864-2.958 0.80153-3.6309 2.2528-1.2232 2.6346-0.99876 4.9243 0.45752 5.9342 0.41868 0.29113 5.3349 4.1722 10.861 8.2358 12.563 9.2382 19.415 14.12 22.48 16.161 0.65881 0.43836 1.5294 0.35967 1.7948 0.27938 1.3211-0.40553 2.7592-1.8497 3.5754-3.5926 0.96549-2.0571 0.89437-5.126-0.46963-6.1041"/>
  <path d="m191.06 234.71c1.1788-3.7716 3.4856-10.064 3.187-10.38-0.29915-0.3173-5.3374 1.6364-8.7176 2.8349-0.62499 0.2185-0.75211 6e-3 -0.90644-0.43685-1.3474-3.9316-3.3282-9.9065-3.7802-9.9212-0.45045-0.0124-1.5123 5.1432-2.7194 8.8266-0.36117 1.1022-1.083 0.9347-0.85553-0.20645 1.0028-5.0095 1.7388-7.5432 2.3179-9.1408 0.90444-2.501 1.7358-1.6344 2.5721 0.0389 0.69156 1.3842 1.7741 4.0607 3.5729 9.2689 4.3966-1.5511 6.7579-2.2896 8.0649-2.6003 2.0666-0.4913 2.1907 0.11435 1.8089 1.7509-0.35664 1.5279-1.365 4.4657-3.7787 10.289-0.39901 0.96548-1.1032 0.75412-0.76573-0.32386"/>
  <path d="m188.11 234.36c-1.1037-0.70016-6.1374-4.0188-7.2199-5.01-1.084-0.99221-0.35411-1.1491 0.50038-0.58917 0.85503 0.55941 6.0487 3.9956 7.1024 4.9495 1.0538 0.9559 0.72035 1.3473-0.38285 0.64972"/>
  <path d="m40.043 171.21c-0.49485-0.54377-0.60632-1.2949-0.30569-2.0591 1.5224-3.8665 9.1418-8.1829 12.438-9.784 7.4404-3.6153 15.812-5.2183 17.41-1.9294 1.249 2.5645-2.6518 6.4658-6.7175 9.2614-0.32183 0.22097-1.1234-0.94428-0.80154-1.1652 4.8118-3.3086 7.1165-6.3478 6.5536-7.5034-0.85854-1.768-7.744-1.2112-15.817 2.7133-6.4547 3.1361-10.793 6.6181-11.709 8.9446-0.32183 0.81819 0.45802 1.1748 1.2984 0.93421 1.0573-0.30225 1.5794-1.0306 2.389-1.8734 0.80861-0.84343 3.3913-3.7565 8.6944-6.3337 2.4884-1.2101 6.6509-2.614 9.0727-2.8581 1.2111-0.1227 1.8437 0.15081 2.1005 0.61946 0.29459 0.53871 0.29258 1.5975-1.8038 2.9227-0.32839 0.2083-1.086-0.9877-0.75514-1.195 0.33696-0.21325 0.58312-0.40051 0.76371-0.55942 0.27642-0.24323 0.55084-0.48475-0.16748-0.38993-1.7645 0.23055-5.5482 1.4608-8.5259 2.9091-4.1061 1.9945-7.0777 4.3255-8.315 5.7117-0.58211 0.65124-1.4528 1.6848-2.9222 2.1035-0.59271 0.16905-2.0798 0.41314-2.8798-0.46911"/>
  <path d="m159.74 149.41c-1.3534-1.1647-12.736-14.168-14.574-18.41-0.53875-1.2439 0.0652-4.8163 0.30874-5.5508 0.75613-2.2861 9.678-11.342 10.895-11.979 1.9784-1.0346 12.707-0.57203 16.101 0.31578 0.37831 0.0989 0.14309 1.2525-0.24106 1.1788-3.3787-0.65275-14.283-0.58766-15.318-0.18852-0.96196 0.65173-9.6039 10.118-10.093 11.098-0.19162 0.77733-0.53927 3.874-0.29175 4.7396 0.55036 1.4916 13.287 16.974 14.063 17.669 0.45801 0.32185 2.0884 0.80103 2.5786 0.77431 0.33748-0.2491 2.2392-1.9506 4.7487-4.323 0.70569-0.66635 1.6293 0.45449 0.92614 1.1193-4.1116 3.8851-4.9989 4.4995-5.2133 4.551-1.1299 0.26949-3.4084-0.57809-3.8912-0.99373"/>
  <path d="m173.7 139.11c0.70417-0.69361 3.1708-2.7249 3.5446-3.591 0.52107-1.2036 1.0881-7.4777 1.1133-12.761 1e-3 -0.38891 1.1012-0.8091 1.1163-0.41867 0.23303 5.5951-0.22344 12.172-0.90797 13.686-0.65525 1.4492-3.3257 3.7848-4.0142 4.4627-0.13783 0.13567-1.1304-1.1037-0.85199-1.3781"/>
  <path d="m172.91 116.9c0.0751 0.30009 4.15 5.6799 4.3991 5.7076 0.24756 0.0278 23.167-22.037 24.492-23.426 0.456-0.71023 3.0079-9.8253 2.8879-10-0.1199-0.17616-8.9844 1.2732-9.1897 1.5234-0.20521 0.24971-0.30628 5.1502-0.54276 8.6631-0.0247 0.38539-0.37884 0.67039-0.73848 0.65877-0.0408-2e-3 -7.0863-0.61186-7.337-0.36165-0.25126 0.25126-0.66786 5.4488-1.1304 9.1448-0.0702 0.54931-0.52413 0.70872-0.91254 0.58714-2.0081-0.62549-4.7588-1.4018-5.0771-1.3821-0.3178 0.0185-6.6237 6.2242-6.711 6.5793-0.0878 0.35411-0.21603 2.0061-0.14031 2.3058m3.3656 6.6262c-1.7277-1.7443-4.6978-6.0199-4.7457-6.2701-0.1363-0.69308 0.15823-3.3091 0.34654-3.4932 0.4318-0.42674 6.6585-6.8698 7.4752-7.1332 0.72386-0.23302 3.6551 0.73193 5.1013 1.1693 0.90648-7.4146 1.2757-8.7832 1.6182-9.1252 0.46509-0.46608 6.2701-0.14433 7.5211-0.09024 0.48073-7.5967 0.8646-8.3988 1.018-8.5905 0.68096-0.85703 9.227-1.7297 9.8848-1.7297 0.16596 0 1.1567-0.14464 1.0608 1.1708-0.0525 0.7158-0.2967 2.101-0.95389 4.9409-1.198 5.1765-1.6343 5.6335-1.7766 5.7838-0.34858 0.36369-6.657 6.493-12.578 12.185-8.2611 7.9392-11.086 10.568-12.174 11.438-0.72185 0.57808-1.0356 0.51046-1.7978-0.2562"/>
  <path d="m174.35 119.52 30.316-30.816c0.18203-0.18574 0.72891 0.35967 0.54681 0.54582l-30.225 30.998c-0.0933 0.0943-0.82019-0.54124-0.63811-0.72738"/>
  <path d="m162.82 139.59c-3.5754-3.9018-5.5316-6.2948-6.3765-7.5771-0.7158-1.0876-0.47619-1.2475 0.0807-1.8911 1.3317-1.54 5.524-5.3626 6.5172-6.0754 1.0184-0.72992 1.2681-0.57103 1.996 0.33946 0.65726 0.82375 3.2672 4.492 5.2224 7.7244 0.52716 0.87267-0.0559 1.3252-0.65775 0.50292-1.8972-2.5938-4.9909-6.495-5.7233-7.4298-1.3741 1.0775-5.4307 4.8688-6.4653 6.0471 0.66635 1.0558 3.5366 4.3442 6.0285 7.8742 0.60429 0.85605-0.0368 1.1254-0.62197 0.48528"/>
  <path d="m160.28 135.98 1.3221-1.2338c0.26794-0.28588 1.3009 0.67945 1.0336 0.96495l-1.3231 1.2339c-0.13876 0.14927-1.2999-0.67948-1.0326-0.96499"/>
  <path d="m162.2 138.27 0.82374-0.88377c0.26733-0.28587 1.3009 0.67948 1.0336 0.96499l-0.82524 0.88376c-0.13876 0.14927-1.2999-0.67948-1.0321-0.96498"/>
  <path d="m152.58 118.35c-10.996-6.768-21.827-8.6717-29.814-5.2572 0.059 0.29546 0.0909 0.51099 0.11188 0.69967 0.16534 1.5249-0.61592 1.6566-0.98968 0.14989-1.1032-4.44-2.784-8.5536-4.2594-11.423-0.23858-0.46306 1.3357-0.91604 1.5744-0.45298 1.5143 2.9444 2.6326 6.7155 3.2642 9.4324 7.4661-3.6743 20.15-2.0914 31.101 5.3868 0.43026 0.29298-0.83333 1.5597-0.98869 1.4649m-98.442 40.549c3.8206-22.474 21.575-41.304 37.092-47.533 9.9439-3.9916 17.925-3.3681 24.507 1.0754 1.5683 1.0578 1.0063 1.7413-0.65929 0.83787-6.1768-3.353-14.44-3.9028-23.388-0.0742-14.663 6.2736-31.382 23.669-35.448 45-0.06657 0.34956-2.1913 1.2066-2.1035 0.69357m65.225 16.227c-15.011 0.14741-25.981-9.3325-25.981-23.717 0-7.9766 3.6168-15.453 11.428-21.703 4.1515-3.3217 7.28-5.2965 8.828-6.8744 0.47668-0.48676 0.65526-1.0537 0.57858-1.8382-0.18605-1.8916-3.7409-3.6238-9.3194-3.6238-7.9281 0-34.194 10.077-40.837 38.925-0.11704 0.50743-1.939 0.39546-1.8331-0.11497 5.1876-25.066 29.39-40.696 42.67-40.696 6.1041 0 10.424 2.214 10.749 5.5099 0.13011 1.3347-0.24323 2.4591-1.1097 3.3424-1.6218 1.6545-3.6329 2.7144-8.3196 6.5425-6.7801 5.5361-10.899 12.931-10.899 20.312 0 13.257 9.6856 22.188 24.047 22.188 6.0759 0 12.71-2.621 17.111-7.0156 3.8291-3.8236 5.8524-8.5557 5.8524-13.687 0-8.1965-3.5406-14.989-11.897-22.268-1.6374-1.426-6.1768-4.2095-7.4969-6.1717-0.73495-1.0936-1.1723-2.6563-0.6245-6.4844 0.25466-1.7892 1.1864-1.6192 1.1829 0.18914 0 0.23396 2e-3 0.45703 3e-3 0.6704 6.5763-4.0642 16.584-2.8697 25.571 3.2223 0.43177 0.29144-0.62803 1.8543-1.0593 1.5602-8.8018-5.9674-18.405-7.173-24.35-3.2828 0.0349 1.769 0.26733 2.4899 0.49485 2.8763 1.2248 2.0884 4.949 4.0561 8.2222 6.9193 8.6586 7.5725 11.824 13.969 11.824 22.764 0 5.6426-2.0465 10.796-6.2358 14.98-4.7477 4.7391-11.517 7.403-18.599 7.4732m-43.573 26.305c-15.686-15.728-15.131-35.244-14.505-40.932 0.05699-0.51704 1.9178-0.57857 1.8619-0.0609-0.60279 5.4781-1.1158 24.528 13.979 39.661 0.36823 0.36873-1.1511 1.5173-1.3352 1.3322m83.749-1.2717c8.5264-8.5713 13.222-20.161 13.222-32.634 0-14.171-4.8451-26.089-15.298-36.818-0.36267-0.37328 0.76725-1.3332 1.14-0.969 10.81 10.597 16.261 23.47 16.261 37.973 0 12.975-5.1079 24.852-13.988 33.779-0.18358 0.18513-1.705-0.96044-1.3362-1.3297m-85.637 8.7968c-17.99-18.731-20.393-33.932-19.869-46.247 0.02259-0.52059 1.937-0.49636 1.9148 0.0216-0.50645 11.905 1.4538 25.523 19.078 44.402 0.35562 0.38187-0.93572 2.0182-1.1239 1.8215m86.606-0.2083c12.027-9.4919 19.348-24.895 19.348-41.199 0-14.564-7.6311-32.315-17.366-41.616-0.37732-0.36014 0.8091-1.475 1.1849-1.1153 10.073 9.6235 18.177 27.728 18.177 42.76 0 16.877-8.2822 33.137-20.759 42.983-0.17152 0.13661-0.99471-1.4886-0.58513-1.8124m-42.191 10.118c-16.479 0-28.609-3.8418-35.797-10.823-0.37328-0.3637 0.94076-1.7151 1.3145-1.3544 6.7271 6.5354 18.605 10.13 34.351 10.13 12.512 0 24.308-3.7908 34.112-10.694 0.42776-0.29855 1.5118 1.2414 1.0871 1.541-10.124 7.1306-22.165 11.2-35.067 11.2m-0.14371 6.6343c-13.402 0-25.823-3.4791-36.299-10.371-0.43482-0.28588 0.23961-2.1257 0.67392-1.8371 10.166 6.6878 22.43 10.223 35.461 10.223 12.617 0 24.798-3.3555 35.224-9.7048 0.45045-0.2698 1.427 1.3413 0.98313 1.6112-10.725 6.5294-23.08 10.079-36.043 10.079"/>
 </g>
 <ellipse cx="27.803" cy="198.04" rx="3.8673" ry="4.3563" fill="#e6a048" stop-color="#000000"/>
 <ellipse cx="49.806" cy="188.7" rx="3.8673" ry="4.3563" fill="#e6a048" stop-color="#000000"/>
 <ellipse cx="49.806" cy="188.43" rx="4.3087" ry="4.3087" fill="none" stop-color="#000000" stroke="#0f141b" stroke-linecap="round" stroke-linejoin="round" stroke-width="1.4198"/>
 <ellipse cx="27.847" cy="198.04" rx="4.2261" ry="4.3151" fill="none" stop-color="#000000" stroke="#0f141b" stroke-linecap="round" stroke-linejoin="round" stroke-width="1.4071"/>
 <g transform="matrix(1.5985 0 0 1.5985 36.204 -112.15)" fill="#0f141b">
  <path d="m53.312 180.23s-3.2515 1.7073-6.8262 3.5606c-2.9805 1.5452-6.2014 3.2252-7.9121 3.7324-1.934 0.57348-6.2986 0.27943-10.664-0.17578-4.8471-0.50543-9.3672-1.1699-9.3672-1.1699-0.06836-0.01-0.13802-7e-3 -0.20508 0.01-0.4365 0.1067-1.153 0.42091-2.291 0.92188-1.138 0.50096-2.6215 1.1765-4.3105 1.9512-3.3781 1.5493-7.5764 3.4955-11.436 5.2285-3.599 1.6162-7.7113 3.4985-9.8881 4.0516-1.2653 0.32156-3.0217 0.10836-5.2739-0.0203-1.6984-0.097-3.2475-0.12354-4.5314-0.25986-0.64193-0.0682-1.1906-0.13568-1.5977-0.19727-0.3461-0.0523-0.5335-0.10572-0.57617-0.11132 0.0059-0.0733 0.02135-0.19521 0.0957-0.38672 0.17347-0.44679 0.54676-1.0822 0.9707-1.7168s0.89937-1.278 1.2891-1.7949c0.19484-0.25845 0.36747-0.48582 0.50391-0.66797s0.22383-0.29443 0.30078-0.42773l-0.92188-0.53125c1e-3 -2e-3 -0.09881 0.14649-0.23047 0.32226s-0.30693 0.40279-0.50391 0.66406c-0.39395 0.52256-0.8803 1.1793-1.3242 1.8438-0.44392 0.66448-0.84515 1.3288-1.0762 1.9238-0.11551 0.29751-0.19755 0.57628-0.18359 0.88477 0.01395 0.30849 0.21798 0.69575 0.54883 0.84179 0.27737 0.12245 0.51531 0.14365 0.94726 0.20899 0.43195 0.0653 0.96422 0.0226 1.6167 0.0919 1.305 0.13857 3.0071 0.24919 4.7231 0.34719 2.2603 0.1291 4.4308 0.38561 6.2051-0.16369 2.2937-0.71011 5.7519-2.3186 9.3438-3.9316 3.8677-1.7369 8.0667-3.6828 11.441-5.2305 1.6873-0.77385 3.1694-1.449 4.2969-1.9453 1.092-0.48073 1.8708-0.78293 2.0488-0.83399 0.13086 0.0192 4.4705 0.65542 9.2734 1.1562 4.3828 0.45703 8.6749 0.84934 11.078 0.13672 1.9613-0.58157 5.1236-2.2638 8.0996-3.8066 3.5777-1.8548 6.8301-3.5644 6.8301-3.5644z" color="#000000" stroke-linejoin="round" style="-inkscape-stroke:none"/>
  <path d="m54.529 166.72c-1.9758 1.0086-4.1291 1.8828-6.5195 2.584l0.41211 1.4062c2.4783-0.72699 4.7191-1.6369 6.7734-2.6855z" color="#000000" style="-inkscape-stroke:none"/>
  <path d="m54.854 170.32c-0.43238 0.24539-1.4439 0.62305-2.5547 0.98242s-2.345 0.72327-3.3594 1.041l0.43945 1.3965c0.99435-0.31148 2.2331-0.67479 3.3711-1.043s2.1498-0.71771 2.8262-1.1016z" color="#000000" style="-inkscape-stroke:none"/>
 </g>
 <ellipse cx="38.871" cy="181.06" rx="3.8673" ry="4.3563" fill="#e6a048" stop-color="#000000"/>
 <ellipse cx="38.833" cy="181.2" rx="4.3087" ry="4.3087" fill="none" stop-color="#000000" stroke="#0f141b" stroke-linecap="round" stroke-linejoin="round" stroke-width="1.4198"/>
 <ellipse cx="49.451" cy="176.17" rx="3.8673" ry="4.3563" fill="#e6a048" stop-color="#000000"/>
 <ellipse cx="49.54" cy="176.17" rx="4.3087" ry="4.3087" fill="none" stop-color="#000000" stroke="#0f141b" stroke-linecap="round" stroke-linejoin="round" stroke-width="1.2596"/>
</svg>
