<?xml version="1.0" encoding="UTF-8"?>
<!-- Created with Inkscape (http://www.inkscape.org/) -->
<svg version="1.1" viewBox="0 0 77.159 78.043" xmlns="http://www.w3.org/2000/svg">
 <g transform="translate(-1.7432 -1.3361)">
  <path d="m27.952 18.008c0.36366 1.2968 1.5077 3.0469 4.1442 3.9699 5.6076 1.961 13.022 1.8562 17.822-0.44824 1.5973-0.76648 2.8827-2.4358 2.9471-3.3929 3.3374 2.2729 4.0129 4.6152 3.8184 7.4222-0.09096 1.3044-1.5177 3.8727-2.788 4.9018 0.44953 1.1238 1.1693 3.057 1.4837 4.4965 1.6643-1.5734 3.7768-2.4724 5.8009-2.158 2.0228 0.31427 3.057 0.76393 5.0811 2.3373 1.3208 1.0278 7.1949 3.5974 9.6673 1.5746 0.92933-0.7614 1.5013-1.764 1.5733-2.9232 1.1693 2.0683 1.5291 4.7655 0.13531 7.5535 0.1353-0.08989 0.58589-0.35861 0.58589-0.35861 0.67302 5.3955-3.8285 8.4134-7.7353 8.1836-1.1655 2.4118-5.4574 5.6354-9.1723 5.9802-4.9788 0.46342-10.485-2.086-12.996-6.835 1.5292 8.2745-2.8764 13.4-7.8224 15.738-6.3413-2.7868-8.5447-8.0485-8.1849-15.064-2.6138 3.3512-8.2354 5.8248-11.376 5.8021-5.2529-0.03798-8.5889-1.9332-10.837-5.7566-3.0128 0.13637-5.5319-1.3928-6.5206-3.057-0.9887-1.6642-1.3031-3.0128-1.1693-4.9005 0.18058 0 0.80939 0.26881 0.80939 0.26881-1.0783-2.3827-1.8435-4.451-0.17929-7.3287 0.34852 2.0923 1.8966 3.3386 3.6871 3.3727 2.4282 0.04404 4.451-0.1804 6.835-1.9345 4.643-3.4169 8.1836-3.3714 11.916-0.40404 0.2688-1.485 1.0783-3.7326 1.6175-4.6316-4.2717-3.4169-3.8411-9.0561 0.8561-12.409" fill="#61532f"/>
  <path d="m45.84 28.796c0.69828-0.08191 1.5367 1.317 1.7476 2.634 0.21082 1.317 0.15785 3.1063-0.63136 3.3171-0.79045 0.21082-1.6743-1.9155-1.7489-2.9762-0.11239-1.6036 0.16428-2.9206 0.6326-2.9749" fill="#f9bf3e"/>
  <path d="m34.74 28.955c0.52652 0.10489 0.86874 1.0998 0.65914 2.9206-0.25377 2.2047-0.83592 3.0999-1.5721 3.0166-0.69703-0.07691-0.74374-1.7918-0.55182-3.2717 0.12886-0.99752 0.67556-2.8234 1.4648-2.6656" fill="#f9bf3e"/>
  <path d="m63.652 54.428c1.2135 3.3853 0.77783 10.573-1.5329 13.733-4.3437 5.941-9.8087 10.451-12.967 11.051-1.5342-1.2778-2.6201-3.0027-3.1947-3.9611-3.4497 0.51142-8.623 0.63894-11.561-0.06298-0.70333 1.5973-1.9812 3.6404-2.8121 3.7692-0.66922 0.1034-10.328-5.3968-13.222-10.222-3.2351-5.3905-3.0659-9.9009-1.6617-14.372 4.3184 1.3435 11.789-0.40657 15.395-5.4296-0.06447 7.0269 1.2778 11.498 8.2404 15.266 6.5155-3.5129 8.7909-9.2619 8.0497-15.586 3.9599 5.6847 9.8933 7.5358 15.266 5.8135" fill="#f19975"/>
  <path d="m44.085 35.568c-1.096-0.6427-3.0848-1.8259-3.653-2.0153-1.3258 0.52022-3.4093 1.7994-3.9295 2.2729 0.47354 2.1314 1.9408 4.5685 3.6454 4.7111 1.7046 0.14138 3.2325-2.3853 3.9371-4.9687" fill="#923000"/>
  <path d="m42.582 34.694c-0.09595 0.46087-0.39523 2.6794-0.26629 2.7552 0.12885 0.07447 1.4824-1.6996 1.6592-1.9332-0.20725-0.15033-1.3928-0.82203-1.3928-0.82203" fill="#fff"/>
  <path d="m38.077 34.837c0.07585 0.6351 0.18935 2.5532 0.01074 2.5532-0.17682 0-1.1541-1.3094-1.3826-1.7665 0.25377-0.20223 1.0657-0.70964 1.3713-0.78666" fill="#fff"/>
  <path d="m37.62 38.561c0.67553 1.0783 1.5632 1.8953 2.5279 1.9748 1.0051 0.0834 1.9483-0.76014 2.6984-1.9963-0.88892-0.74625-1.7552-1.0935-2.5608-1.0745-0.87504 0.01787-1.9559 0.32464-2.6656 1.096" fill="#ed8599"/>
  <path d="m42.495 34.804c-0.05798 0.25377-0.10489 0.51141-0.16036 0.7311 0.45078-0.41541 1.3422 0.06798 0.56568 1.3726 0.45962-0.35472 1.1086-1.1831 0.92557-1.3675-0.09596-0.09595-1.1705-0.71215-1.3309-0.73616" fill="#dbdcdc"/>
  <path d="m38.032 34.856c0.06691 0.25235 0.12241 0.50887 0.18434 0.72603-0.46467-0.39898-1.3385 0.1149-0.51643 1.3902-0.47226-0.33824-1.1491-1.144-0.97228-1.3334 0.09234-0.09989 1.1453-0.75384 1.3044-0.78287" fill="#dbdcdc"/>
  <g fill="#524524">
   <path d="m54.56 19.656c1.5001 2.264 0.50509 7.2833-1.7678 8.58 0.36241 0.53285 1.0228 1.7893 1.1932 2.1731 2.7678-2.5987 4.3147-7.6393 0.57454-10.753"/>
   <path d="m28.195 28.209c-2.6643-2.1883-3.4005-5.7516-1.3789-9.2872-1.5759 1.5317-2.884 4.0002-2.6416 6.3135 0.25627 2.4257 1.2349 4.172 2.8966 5.2364 0.38389-1.0215 0.74121-1.7943 1.1238-2.2627"/>
   <path d="m47.065 44.42c5.2945 9.0296 19.418 9.2266 23.455 4.4473-0.76772 2.0468-4.6821 6.2567-10.027 6.3135-5.124 0.05542-9.5435-2.3524-12.087-6.6721-0.27919-0.61241-0.9508-3.4207-1.341-4.0886"/>
   <path d="m78.266 40.95c-2.3486 6.2163-12.739 7.3237-20.917 1.788 1.1769 3.0595 3.2414 5.2351 7.1545 6.0471 2.2501 0.46592 4.3866 0.31927 6.2554-0.4268-0.14639 0.35113-0.31426 0.67932-0.46342 0.93693 5.8766-0.42551 7.8856-2.8095 7.9702-8.3452"/>
   <path d="m77.541 34.281c1.9597 6.4587-8.4374 8.6937-14.372 2.9888 2.5002 5.8703 6.465 6.3994 14.419 4.095 1.1958-2.0229 1.7476-4.922-0.04649-7.0838"/>
   <path d="m47.716 56.528c-1.8941 4.5482-5.1278 6.5837-7.186 7.5409-3.1984-1.1743-6.2302-3.6745-7.6709-7.9954-1.0834-3.2527-1.1326-7.9588 0.76142-11.672-0.71342 3.5684 0.22478 9.4728 3.408 12.733 3.1025 3.177 4.1745 3.3171 7.2769-0.07585 2.4257-2.6529 2.956-7.4285 3.259-11.218 1.0619 2.956 1.5784 7.2618 0.1514 10.688"/>
   <path d="m33.43 44.42c-6.0635 8.2101-18.204 9.5801-23.614 4.1151 1.6983 3.9914 6.7605 6.8603 12.374 6.0686 4.4396-0.62502 7.8666-2.7868 10.186-6.0433-0.08978-0.54169 1.0531-4.1404 1.0531-4.1404"/>
   <path d="m2.4107 41.073c-0.13637 1.7173 0.52907 5.4637 3.1227 6.9222 1.4483 0.81569 2.8966 1.2223 4.6164 1.2223-0.2702-0.27166-0.3788-0.81447-0.3788-0.81447 2.3991 0.76269 5.042 0.67936 7.6217-0.13637 2.581-0.81443 4.9334-2.4433 5.9297-5.8387-7.8767 6.9524-18.269 4.3121-20.912-1.3549"/>
   <path d="m2.9249 34.177c-1.2539 2.5064-1.0645 5.1101 0.21215 6.8565 1.0657 1.1074 2.1504 1.5051 5.5786 1.6175 4.0848 0.13386 7.4108-1.49 8.6028-5.3223-5.2806 4.6417-14.734 3.3638-14.394-3.1517"/>
  </g>
  <path d="m64.097 56.642c-2.7994 1.735-10.725 0.60738-13.25-2.312-0.62252 4.1846-4.6228 10.496-10.278 12.023-5.1266-1.4041-10.035-7.1936-10.142-12.386-4.8387 2.8146-9.8832 3.9548-14.133 1.8347 0.05691-0.62251 0.5215-1.5518 0.5215-1.5518 6.037 1.3422 13.048-1.2981 15.56-5.6898-0.7412 6.7075 1.6617 12.904 8.0813 15.578 7.0017-3.73 8.9286-9.5258 8.0876-15.26 3.7553 5.8034 10.746 7.2946 15.213 5.7769z" fill="#d08466"/>
  <path d="m49.787 78.979c8.2518-3.9636 12.179-8.9841 14.189-15.474-8.9121 10.564-37.246 9.767-47.767 0.56317 3.0103 7.2037 8.0611 11.111 14.386 14.531 0.93188 0.50379 1.2804 0.43056 1.6567 0.05436 0.47984-0.47984 1.5746-2.0898 2.1176-3.5293 2.8499 0.84096 8.6761 0.7349 11.51 0.08202 0.49374 0.83716 1.8448 2.687 2.7679 3.6378 0.4167 0.42809 0.65283 0.36874 1.1402 0.13494" fill="#d08466"/>
  <g fill="#0f141b">
   <path d="m53.743 30.133c2.0481-2.1011 2.8626-4.3361 2.6037-6.3249-0.3157-2.4244-1.865-4.3715-3.3323-5.364-1.1074 3.6404-6.9234 5.167-12.599 5.167-5.6759 0-11.484-1.562-12.593-5.2036-1.4673 0.9925-2.908 2.9762-3.2237 5.4006-0.29422 2.2666 0.39899 4.3513 2.4218 6.2883 0.09234 0.08702-0.15892 0.61747-0.25377 0.53665-2.259-1.9433-3.1871-4.4725-2.8739-6.8843 0.33466-2.562 2.1555-4.6998 3.7086-5.7541 0.45207-0.30568 0.54803-0.28527 0.68186 0.1693 1.0102 3.427 6.9386 4.8096 12.132 4.8096 5.2125 0 11.169-1.2943 12.119-4.7655 0.10596-0.38763 0.22586-0.40657 0.58589-0.21475 1.8372 0.97862 3.5899 3.1315 3.9308 5.7554 0.31426 2.4118-0.84475 4.7276-2.9459 6.8843-0.04436 0.04542-0.45078-0.41036-0.36241-0.50003"/>
   <path d="m25.13 35.703c0.28026-2.61 1.562-5.8464 2.9396-7.5876 0.3472-0.43814 0.5884-0.3182 0.30425 0.16178-1.2412 2.0923-2.3625 5.1518-2.8992 7.4752-0.1489 0.65028-0.4167 0.62126-0.34468-0.04936"/>
   <path d="m55.217 35.752c-0.52781-2.3499-1.3953-5.1013-2.5658-7.1974-0.3157-0.56571-0.06553-0.81193 0.3497-0.24483 1.3864 1.889 2.3928 4.7857 2.5974 7.2845 0.05936 0.73111-0.22335 0.86624-0.38134 0.15785"/>
   <path d="m32.725 56.536c-1.4749-3.9283-1.3536-8.6407 1.3625-13.843 0.46466-0.89147 0.77023-0.72227 0.35363 0.17037-2.1074 4.5079-2.5342 9.1319-0.89021 13.512 1.3675 3.6442 3.9876 6.3489 6.9095 7.4335 2.5166-1.0341 5.8665-4.5773 6.9903-7.9689 1.4673-4.427 0.88771-9.1798-1.6971-13.383-0.3725-0.60738-0.11991-0.75385 0.27166-0.15928 3.7452 5.6822 3.36 10.138 2.1845 13.686-1.3119 3.9598-4.6417 7.162-7.7694 8.498-3.3613-1.2943-6.2731-4.1076-7.7151-7.9462"/>
   <path d="m77.234 41.188c1.2438-2.0999 1.437-4.547 0.40532-6.7605-0.23982 1.2286-0.92933 2.2855-2.0216 2.8057-2.5721 1.2248-6.9689-0.05436-9.4615-1.8801-4.1126-3.0128-7.3123-2.855-10.6-0.31677-0.0984 0.07585-0.43056-0.43184-0.33324-0.50637 3.7464-2.8916 6.835-2.8777 11.196 0.31821 2.3411 1.7148 6.6153 2.9762 9.0068 1.8385 1.0342-0.49245 1.6731-1.4218 1.8865-2.5633 0.12241-0.65659 0.24984-0.69196 0.61622-0.01075 1.4218 2.6454 1.2021 4.893-0.11383 7.1141-0.04149 0.07053-0.64399 0.06691-0.58085-0.03904"/>
   <path d="m70.578 48.84c4.3639-0.16429 7.5383-2.3953 7.4815-7.5434-6.4158 3.4093-13.618 1.4937-14.91-3.6328-0.19077-0.75764 0.08096-0.88265 0.3132-0.14783 1.2665 4.0103 7.2391 6.6608 14.55 3.2552 0.37125-0.1718 0.51771-0.11633 0.52655 0.32572 0.11991 5.768-3.0128 8.2618-8.2113 8.4563-0.0032 0 0.12635-0.70838 0.25019-0.71343"/>
   <path d="m48.51 49.165c-0.06298-0.10489-0.02511-1.0998 0.03574-0.99376 4.6909 7.8818 16.248 9.6496 21.879 0.55058-6.1771 1.8701-11.902-0.9963-13.214-5.9751-0.2058-0.78412 0.09734-0.9104 0.34612-0.16536 1.6857 5.0773 7.9942 7.277 12.959 5.6493 0.55179-0.1804 0.697-0.04649 0.48614 0.3497-5.4359 10.239-18.092 7.9311-22.491 0.58465"/>
   <path d="m2.7431 41.119c-1.2791-2.158-1.3397-4.3273-0.13133-6.7163 0.38513-0.76268 0.6263-0.78036 0.83339 0.10596 0.37376 1.6011 1.7425 2.4509 3.8689 2.6163 1.9685 0.1514 4.345-0.49624 6.8249-2.3133 4.2641-3.1252 7.4815-3.0936 11.248-0.13136 0.09734 0.07585-0.03798 0.61117-0.13243 0.53285-3.4144-2.7729-6.9348-2.7009-10.78 0.14031-2.5052 1.8511-5.0672 2.6239-7.2265 2.4345-2.5292-0.21977-3.8841-1.341-4.2578-3.2527-0.98112 2.2198-0.87505 4.5609 0.56948 6.7542 0.06819 0.1034-0.7753-0.09989-0.81697-0.17038"/>
   <path d="m10.358 49.529c-5.4082-0.06691-8.3187-3.326-8.2682-8.296 0.00649-0.62885 0.12248-0.64653 0.57074-0.44068 2.6681 1.2349 5.1531 1.7375 8.0485 1.365 2.8954-0.37375 5.5004-2.2375 6.4019-4.5722 0.26129-0.67556 0.43944-0.62252 0.26773 0.06298-0.64019 2.5583-3.3399 4.725-6.5585 5.1316-3.2186 0.40658-5.6443-0.1668-8.2492-1.4824-0.049254 4.547 2.8196 7.383 7.4209 7.556 0.2235 0.0074 0.46973 0.67556 0.36618 0.67556"/>
   <path d="m9.6965 48.716c-0.21593-0.49499-0.11238-0.6326 0.43059-0.4874 4.5381 1.2185 11.262-0.23373 12.909-5.5269 0.21226-0.68316 0.51897-0.67807 0.35113 0.03574-1.4231 6.0686-8.868 7.5535-13.253 5.9145 3.9523 7.4815 16.216 7.8502 22.261-0.55937 0.07053-0.09989-0.02862 0.98743-0.10234 1.0847-6.2504 8.2152-19.007 7.7467-22.596-0.45962"/>
   <path d="m45.949 29.075c-0.43309 0.0734-0.62122 1.3637-0.41286 2.8196 0.2688 1.8776 0.93563 2.7502 1.3119 2.6933 0.41036-0.06447 0.71973-1.0771 0.4167-3.0128-0.29923-1.9054-0.89526-2.5696-1.3158-2.5001m0.93442 5.8589c-0.64019 0.06447-1.5241-0.99751-1.8082-2.98-0.2842-1.9736 0.17038-3.182 0.8056-3.2868 0.77277-0.12993 1.5872 1.0114 1.884 2.831 0.40911 2.5014-0.25879 3.3727-0.88138 3.4358"/>
   <path d="m33.459 31.859c-0.23372 1.3751-0.14138 2.7527 0.44699 2.8512 0.50508 0.08585 0.99247-1.067 1.1743-2.6832 0.22228-1.985 0.0011-2.8777-0.375-2.9206-0.32572-0.03649-0.87882 0.60358-1.2463 2.7527m0.37755 3.1871c-0.76393-0.12886-1.1314-1.5279-0.83717-3.2578 0.39899-2.3335 1.1528-3.1126 1.7779-3.0204 0.58336 0.08447 1.0266 1.0127 0.77278 3.2691-0.26273 2.3449-1.1503 3.1062-1.7135 3.009"/>
   <path d="m44.54 36.079c-1.3511-0.80813-2.855-1.6718-4.0987-2.3196-1.0632 0.48234-3.1643 1.6768-4.1606 2.3031-0.4268 0.27023-0.57706 0.08702-0.18434-0.22729 1.0329-0.83337 3.1037-1.9938 4.1669-2.4837 0.1693-0.0784 0.21225-0.0734 0.36494 0.0032 1.5102 0.76519 2.908 1.5695 4.1151 2.5393 0.34863 0.28169 0.18685 0.40912-0.2033 0.18326"/>
   <path d="m42.225 37.567c-0.27024-0.1174-0.28276-1.2362 0.04042-2.8966l0.3725 0.21476c-0.20724 0.65913-0.3788 2.192-0.24876 2.2539 0.14639 0.07053 1.1629-1.3258 1.3423-1.7059 0.05191-0.11239 0.3788 0.12635 0.31427 0.2348-0.69955 1.1642-1.5733 2.0064-1.8208 1.8991"/>
   <path d="m36.498 35.714c-0.05798-0.10988 0.35113-0.28777 0.41036-0.17789 0.40532 0.75129 1.0935 1.6807 1.2211 1.62 0.13243-0.06298 0.05542-1.298-0.16036-2.211-0.02862-0.12241 0.35113-0.29529 0.36999-0.1718 0.22478 1.4243 0.29673 2.6807-0.07447 2.7906-0.38384 0.11239-1.2488-0.89021-1.7665-1.8499"/>
   <path d="m40.265 40.692c-1.6415 0-3.2515-1.9572-3.9131-4.8639-0.0251-0.11489 0.39648-0.28527 0.423-0.16787 0.6882 3.0179 2.2767 4.6708 3.4901 4.6708 1.192 0 2.9762-2.0809 3.5267-4.7667 0.02862-0.14031 0.4167 0.0834 0.38763 0.22336-0.54424 2.6592-2.3562 4.9043-3.9144 4.9043"/>
   <path d="m42.597 38.776c-0.95714-1.3713-3.778-1.4105-4.72-0.12241-0.15284 0.20833-0.43184-0.04798-0.27775-0.25627 1.1667-1.5973 4.1278-1.5241 5.2819 0.13136 0.06798 0.09734-0.24125 0.30818-0.2842 0.24769"/>
   <path d="m48.475 78.945c-1.2021-1.1124-2.4332-2.7628-2.884-3.6997-0.05436-0.11096 0.53032-0.3411 0.58336-0.22871 0.39018 0.80939 1.7261 2.754 2.6403 3.5987 0.33575 0.31069 0.44194 0.29422 0.80686 0.13887 4.6177-1.9711 12.202-7.6886 13.983-15.611 0.60988-2.7098 0.48611-5.5736-0.22477-8.5069-0.02862-0.11991 0.65913-0.22586 0.68816-0.10489 0.72732 3.0015 0.96094 5.9309 0.33466 8.7101-1.7615 7.8351-8.8515 13.532-14.606 15.995-0.58085 0.24876-0.80813 0.18434-1.322-0.29171"/>
   <path d="m23.021 70.618c-0.53919-0.44323-0.33574-0.67431 0.25878-0.25628 8.9728 6.364 24.43 6.8363 32.926 0.10234 0.79175-0.62756 1.0519-0.37379 0.29673 0.2978-8.565 7.6191-25.5 6.412-33.482-0.14389"/>
   <path d="m31.024 79.097c-13.213-6.6178-17.572-14.377-14.734-24.774 0.03223-0.11991 0.67932 0.10596 0.6465 0.22586-2.5595 9.3806 1.5026 17.635 14.289 24.039 0.29422 0.14783 0.50887 0.12241 0.73996-0.08191 0.77403-0.68436 1.865-2.7098 2.1011-3.4977 0.03649-0.11883 0.71848 0.01074 0.68186 0.12742-0.25521 0.8536-1.6478 3.0734-2.4863 3.8146-0.41796 0.36871-0.78918 0.37125-1.2374 0.14639"/>
   <path d="m58.454 68.094c0.86878-1.1099 1.4723-2.2766 2.0431-3.6517 0.40912-0.98617 0.57451-0.78541 0.2978 0.20582-0.38386 1.3713-0.89397 2.3903-2.0064 3.5975-0.4735 0.51263-0.745 0.37122-0.33466-0.1514"/>
   <path d="m61.495 58.961c0.0032-1.1743-0.15677-2.5987-0.39398-3.7528-0.05436-0.2688 0.54045-0.30925 0.60233 0.0011 0.23874 1.2109 0.31821 2.6706 0.16036 3.9245-0.09096 0.72352-0.3725 0.83716-0.36871-0.17288"/>
   <path d="m21.61 69.182c-1.1579-0.99122-2.0595-2.8941-2.3537-4.5836-0.15641-0.90539 0.06553-1.067 0.32822-0.10096 0.46976 1.7274 1.1794 3.1075 2.1845 4.3942 0.37755 0.47984 0.36111 0.73616-0.15892 0.29028"/>
   <path d="m18.496 60.49c-0.43814-2.2186-0.25377-4.2187 0.20582-5.9044 0.03223-0.1199 0.57201-0.0011 0.53919 0.1174-0.44953 1.6516-0.6465 3.7325-0.44319 5.9638 0.0684 0.76139-0.15534 0.56567-0.30174-0.17682"/>
   <path d="m34.83 75.307c-7.1646-3.8285-11.725-11.781-9.6622-21.359 0.0251-0.12134 0.75258-0.37505 0.72352-0.25521-2.0897 8.4942 1.9029 17.323 9.3301 21.29 0.10846 0.05798-0.35861 0.34111-0.39144 0.32321"/>
   <path d="m44.808 75.124c7.9007-3.254 11.608-12.776 9.714-21.016-0.02862-0.11991 0.61747 0.0074 0.6427 0.12742 1.956 9.2531-2.3524 17.994-9.6635 21.004-0.02862 0.01074-0.8081-0.0684-0.69321-0.11489"/>
   <path d="m40.209 75.55c0-0.75384 0.09489-3.898 0.10738-4.8084 0.02149-1.2955 0.36616-1.3726 0.41291 0.01074 0.04691 1.3915 0.14389 4.4283 0.14389 4.797 0 0.12384-0.66418 0.12384-0.66418 0"/>
   <path d="m40.352 68.68c-0.08989-1.3839-0.2842-3.4346-0.20974-4.6935 0.0074-0.12241 0.65913-0.12742 0.66417-0.0074 0.05691 1.149-0.07085 3.2666-0.1514 4.6884-0.02862 0.54169-0.26773 0.54929-0.30316 0.01075"/>
  </g>
  <path d="m42.285 26.225c-1.4988-2.5898-2.2375-6.2087-1.1819-8.6735 6.0685 1.5506 9.4905-1.2602 10.384-5.4764 1.1036-5.1986-2.5103-9.9956-7.9563-10.477-4.5117-0.39648-8.7657 2.533-10.412 5.9738-2.1579 4.5066-2.1718 12.488 6.7391 18.747 1.0215 0.57455 2.5545 1.0544 2.4269-0.09489" fill="#61532f"/>
  <g fill="#524524">
   <path d="m41.239 7.4992c0.04404 1.7034 0.63515 2.5443 1.6036 3.0406 0.92302 0.47476 1.9471 0.55683 2.6655 0.15641 0.75889-0.42175 0.5291-2.3979-0.99122-3.5318-1.6604-1.2362-3.302-0.58464-3.278 0.33466"/>
   <path d="m51.231 12.392c-3.7338 5.2617-13.323 3.8929-13.721-2.9775-1.2034 2.0582-0.60863 5.0104 1.1099 6.6216 1.7173 1.6099 4.975 2.6933 8.3642 1.4256 2.2754-0.85106 3.6505-2.6529 4.2465-5.0697"/>
   <path d="m38.486 15.724c-0.62505 4.3462 0.05691 7.4146 2.3865 10.339 0.74121 0.93188 1.7337 0.56567 1.3347-0.11239-1.7046-2.8979-2.0999-5.5104-1.0796-8.4942-0.76772-0.25521-1.9332-0.83467-2.6416-1.7324"/>
  </g>
  <path d="m39.073 25.96c-5.4195-3.8942-7.8805-8.873-7.354-14.661 0.52906-5.8173 5.2579-9.9627 11.124-9.9627 4.8437 0 9.1003 4.0659 9.1685 8.7089 0.06947 4.845-3.1782 8.0864-7.4689 8.1722-4.3904 0.0884-7.2328-1.9837-7.7934-5.5812-0.4773-3.062 1.3688-5.9448 4.2187-6.6986 0.35364-0.093403 0.51392 0.028617 0.46091 0.3889-0.48488 3.2338 1.7539 4.9953 4.47 4.3071 0.58336-0.14783 0.48994 0.11347-0.09234 0.29028-3.3474 1.0177-5.3615-1.6163-4.8299-4.5925-2.0557 0.61242-4.201 3.2616-3.7313 6.2113 0.54299 3.403 3.297 5.2099 7.2871 5.1316 3.8652-0.07691 6.9234-3.4586 6.8628-7.6242-0.06447-4.4094-3.9409-8.0623-8.5523-8.0623-5.6026 0-9.9223 3.9207-10.422 9.4223-0.51142 5.6266 1.7274 10.3 6.9487 14.312 0.46342 0.35614 0.1804 0.5821-0.29673 0.23874" fill="#0f141b"/>
  <path d="m41.875 25.774c-1.8966-3.0545-2.0405-5.5571-1.0165-8.3338 0.04298-0.11097 0.6276 0.06191 0.58085 0.17181-0.95711 2.2299-0.93312 4.768 0.73616 8.1204 0.32071 0.64524 0.05798 0.61872-0.30066 0.04149" fill="#0f141b"/>
  <path d="m54.748 56.592c3.1492 0.37755 4.6152 2.8802 4.417 5.2238-0.29279 3.4383-2.8449 5.2288-5.6039 4.6998-2.2577-0.4331-3.8689-2.5987-3.4661-5.6026 0.30066-2.2426 2.586-4.5697 4.6531-4.321" fill="#f9bf3e"/>
  <path d="m25.024 57.161c2.6719-0.43689 4.4157 0.61622 5.0798 3.0381 0.82457 3.0002-0.2842 5.9347-3.2754 6.5067-2.4067 0.45708-4.4245-1.4799-5.1758-3.6101-0.63516-1.8019 0.6364-5.4877 3.3714-5.9347" fill="#f9bf3e"/>
  <g fill="#0f141b">
   <path d="m50.359 60.772c-0.60863 2.5987 0.94576 4.9751 3.4308 5.5067 2.1971 0.46846 4.7023-1.2703 5.018-3.879 0.33216-2.735-1.0872-5.0432-3.3752-5.4902-1.7905-0.3472-4.3841 0.92178-5.0735 3.8626m3.2818 5.984c-2.9169-0.5657-4.4472-3.7654-3.8525-6.085 0.88893-3.4598 3.7666-4.5849 5.7301-4.1998 2.5241 0.49118 4.2528 2.9345 3.8917 5.9082-0.33717 2.7855-2.836 4.9473-5.7693 4.3765"/>
   <path d="m25.051 57.343c-2.1529 0.51263-3.6025 3.0948-3.1568 5.3753 0.42806 2.187 2.4446 3.8828 4.5205 3.7515 2.259-0.14533 4.1467-2.6883 3.653-5.3652-0.4672-2.5279-2.4964-4.3626-5.0167-3.7616m-3.6682 5.4612c-0.48743-2.4913 1.0947-5.4107 3.5671-5.941 2.8714-0.61492 5.1708 1.1996 5.7024 4.1252 0.59345 3.2679-1.8398 5.8501-4.2098 6.0004-2.2287 0.14282-4.5647-1.6567-5.0597-4.1846"/>
   <path d="m22.765 63.022c-0.8119-2.0582-0.0734-4.2806 1.5721-5.7744 0.08947-0.0834 0.39143 0.1034 0.30066 0.18576-1.62 1.4736-1.9749 3.8753-1.3839 5.4246 1.091 2.8664 4.3248 3.2944 6.7062 0.7463 0.08447-0.08947 0.30174 0.19077 0.22586 0.2867-2.1352 2.6857-6.085 2.5216-7.4209-0.86873"/>
   <path d="m50.501 64.292c-0.0884-0.08585 0.06053-0.38134 0.15284-0.29815 2.413 2.1441 5.9549 1.514 6.7744-1.7564 0.49749-1.9862-0.52026-5.2617-3.0343-5.398-0.0934-0.0032-0.06553-0.35722 0.06298-0.33716 2.9131 0.43563 4.0192 3.6063 3.4459 5.8602-0.97983 3.8512-5.047 4.1997-7.402 1.9294"/>
  </g>
 </g>
</svg>
