<?xml version="1.0" encoding="UTF-8"?>
<!-- Created with Inkscape (http://www.inkscape.org/) -->
<svg version="1.1" viewBox="0 0 95.695 106.58" xmlns="http://www.w3.org/2000/svg">
 <g transform="translate(-3.2324 -3.0924)">
  <g transform="matrix(1.7547 0 0 -1.7547 91.403 65.364)">
   <path d="m0 0c-0.992 0.921-3.967 2.338-4.995 2.94-0.852 0.499-1.873 1.197-2.176 2.371 0.655 1.766 1.128 3.171 1.22 3.864 0.213 1.594 0.703 12.836 0.036 13.212-0.567 0.319-6.941-2.346-9.139-2.728-0.166-0.028-0.368-0.074-0.589-0.132-0.745 2.056-1.153 4.321-1.465 5.056-1.099 2.586-6.802 10.591-7.616 10.627-0.815 0.035-5.431-6.16-6.199-8.396-0.39-1.132-0.618-4.991-1.204-7.756-0.248-1.17-0.7-2.622-1.417-3.933-1.63-2.976-3.295-6.305-4.322-9.6-2.232-1.522-4.724-2.859-5.03-3.294-0.425-0.602-1.453-3.754-2.303-4.923-1.983-1.559-4.676-3.826-4.746-4.428-0.071-0.602 1.842-3.755 2.444-4.357 0.491-0.491 5.514-3.236 9.371-5.175 1.253-1.226 2.273-2.061 2.637-2.121 0.425-0.072 4.499 2.16 6.73 3.329 3.755-1.063 7.972-3.072 8.573-3.118 0.46-0.035 2.231 1.169 4.357 2.126 2.054-0.46 5.702-1.417 6.092-1.417s2.905 1.877 4.286 3.118c1.453-0.851 2.833-1.469 3.472-1.453 1.452 0.036 5.963 7.33 5.986 8.041 0.035 1.098-3.011 7.226-4.003 8.147" fill="#ccecf9"/>
  </g>
  <g transform="matrix(1.7547 0 0 -1.7547 29.123 98.306)">
   <path d="m0 0c7.904-4.165 19.697-4.417 27.09-0.771 2.256-1.774 4.51-3.102 5.028-2.875 0.722 0.317 0.835 4.291 0.633 6.429-0.848 0.279-1.747 0.722-2.67 1.253-1.178-0.974-3.785-2.999-4.278-3.062-0.494-0.064-4.123 0.93-6.143 1.364-1.553-0.643-3.831-2.086-4.299-2.086s-6.06 2.395-8.631 3.077c-1.57-0.811-5.839-3.304-6.73-3.329" fill="#fff"/>
  </g>
  <g transform="matrix(1.7547 0 0 -1.7547 29.172 98.311)">
   <path d="m0 0c0.476-0.287 0.88-0.485 1.183-0.614-1.23-0.952-2.836-2.122-3.451-2.042-0.712 0.091-3.191 4.203-3.965 6.582 0.895-0.469 2.501-1.255 3.517-1.736 1.191-1.245 2.047-2.009 2.716-2.19" fill="#fff"/>
  </g>
  <g transform="matrix(1.7547 0 0 -1.7547 24.496 94.584)">
   <path d="m0 0c1.253-1.226 2.306-2.061 2.67-2.121 0.425-0.071 4.466 2.16 6.697 3.329" fill="#ccecf9"/>
  </g>
  <g transform="matrix(1.7547 0 0 -1.7547 21.463 57.91)">
   <path d="m0 0c-1.518 0.489-5.185 1.519-5.455 1.273-0.27-0.244-0.167-4.219 0.836-6.843 0.476 1.08 1.313 3.357 1.647 3.628 0.335 0.27 2.007 1.338 2.972 1.942" fill="#ccecf9"/>
  </g>
  <g transform="matrix(1.7547 0 0 -1.7547 54.641 73.272)">
   <path d="m0 0c-2.362-0.326-3.652-3.002-3.231-5.67 0.449-2.853 2.629-4.588 5.004-4.099 2.377 0.49 3.515 3.123 3.03 5.758-0.522 2.835-2.395 4.344-4.803 4.011" fill="#aa88ba"/>
  </g>
  <g transform="matrix(1.7547 0 0 -1.7547 83.211 70.824)">
   <path d="m0 0c-1.446-0.213-2.261-2.462-1.773-5.381 0.566-3.382 2.461-4.114 3.885-3.771 1.347 0.323 2.13 2.325 1.572 4.991-0.69 3.295-2.386 4.353-3.684 4.161" fill="#aa88ba"/>
  </g>
  <g transform="matrix(1.7547 0 0 -1.7547 54.199 75.61)">
   <path d="m0 0c-1.382-0.267-2.304-1.961-1.886-4.25 0.372-2.038 1.74-2.97 3.219-2.729 1.439 0.236 2.432 1.744 2.028 3.936-0.467 2.535-2.011 3.303-3.361 3.043" fill="#ffbc18"/>
  </g>
  <g transform="matrix(1.7547 0 0 -1.7547 82.483 73.139)">
   <path d="m0 0c-0.867-0.101-1.644-1.231-1.396-3.685 0.227-2.237 1.522-3.444 2.339-3.332 1.091 0.152 1.695 1.787 1.433 3.71-0.289 2.124-1.441 3.414-2.376 3.307" fill="#ffbc18"/>
  </g>
  <g transform="matrix(1.7547 0 0 -1.7547 74.311 96.67)">
   <path d="m0 0c-0.353 1.584-0.208 3.834 0.25 5.502 0.383 3.256-0.547 7.43-2.501 8.979l2.201 2.051c3.453-5.317 10.69-6.092 11.613-8.518-0.553-1.989-1.005-3.263-1.575-4.403-0.872-1.006-1.691-1.877-2.079-1.927-0.754-0.101-2.079 0.485-3.604 1.424-1.191-0.989-3.48-2.947-4.305-3.108" fill="#e7f6fc"/>
  </g>
  <g transform="matrix(1.7547 0 0 -1.7547 47.825 3.5062)">
   <path d="m0 0c1.831-3.297 5.039-10.005 5.488-11.354 0.449-1.348 0.78-3.571 1.135-5.369 0.79 0.433 1.729 0.853 2.601 1.003-0.671 1.811-1.068 4.302-1.543 5.231-1.609 3.151-6.712 10.317-7.681 10.489" fill="#e7f6fc"/>
  </g>
  <g transform="matrix(1.7547 0 0 -1.7547 35.753 27.392)">
   <path d="m0 0c0.238-1.338 0.388-2.001 0.688-3.238 0.3-1.239 1.099-4.025 1.526-5.96-0.453-1.132-1.294-3.906-2.087-5.432-0.327-0.629-0.949-1.651-1.308-2.414-0.402-0.855-0.629-1.258-1.182-2.112 0.428-1.534 0.921-3.086 1.233-4.954 0.151-0.906-1.716-10.46-1.66-12.071 0.025-0.729 0.377-2.053 1.056-3.411-0.704-0.285-1.676-0.817-1.978-0.788-0.52 0.05-1.526 0.973-2.833 2.23-2.129 0.989-8.584 4.442-9.17 5.012-0.587 0.571-1.593 2.23-2.046 3.068 0.151 0.804 1.576 1.442 3.052 1.609 1.21 0.138 2.396 0.453 3.302 1.693 0.802 1.941 1.611 3.374 2.722 5.146 1.129 1.799 2.282 3.871 2.688 5.621 0.692 2.98 3.031 7.381 4.137 9.367 1.107 1.987 1.633 3.914 1.86 6.634" fill="#b0cdd8"/>
  </g>
  <g transform="matrix(1.7547 0 0 -1.7547 11.965 55.741)">
   <path d="m0 0c0.814-1.323 1.425-2.171 2.34-3.324-0.458-0.966-0.966-2.408-1.475-3.408-0.78 1.373-1.289 5.698-0.865 6.732" fill="#b0cdd8"/>
  </g>
  <g transform="matrix(1.7547 0 0 -1.7547 94.6 82.608)">
   <path d="m0 0c0.785 0.463 1.5 1.013 2.249 1.75-0.382-1.261-2.432-4.341-3.907-6.287 0.672 1.344 1.3 3.281 1.658 4.537" fill="#b0cdd8"/>
  </g>
  <g transform="matrix(1.7547 0 0 -1.7547 73.299 48.15)">
   <path d="m0 0c1.521-0.244 2.834-0.47 4.336-0.789-0.751-2.928-3.154-8.652-4.355-12.012-0.257-0.721-0.894-0.948-1.651-0.488-1.915 1.163-5.744 3.81-7.921 5.668 2.684 2.196 6.851 5.763 9.591 7.621" fill="#b0cdd8"/>
  </g>
  <g transform="matrix(1.7547 0 0 -1.7547 59.45 103.95)">
   <path d="m0 0c-1.756 1.035-1.961 2.626-1.961 3.421-0.57 0.066-6.656 2.799-8.6 3.118-1.677-0.923-5.365-2.867-6.739-3.32 4.476-2.497 10.946-3.772 17.3-3.219" fill="#dbdcdc"/>
  </g>
  <g transform="matrix(1.7547 0 0 -1.7547 29.231 98.311)">
   <path d="m0 0c0.476-0.287 0.88-0.485 1.182-0.614-1.229-0.952-2.835-2.122-3.45-2.042-0.712 0.091-3.192 4.203-3.965 6.582 0.895-0.469 2.501-1.255 3.516-1.736 1.191-1.245 2.047-2.009 2.717-2.19" fill="#dbdcdc"/>
  </g>
  <g transform="matrix(1.7547 0 0 -1.7547 85.549 104.71)">
   <path d="m0 0c-0.352-0.139-3.055 1.094-5.004 2.866 0.311 0.16 0.806 0.462 1.18 0.638 0.831 0.392 1.318 0.602 2.343 1.279 0.754-1.106 1.419-3.314 1.481-4.783" fill="#dbdcdc"/>
  </g>
  <g transform="matrix(1.7547 0 0 -1.7547 80.1 80.266)">
   <path d="m0 0c0.566-3.382 2.461-4.114 3.885-3.771 1.277 0.305 2.045 2.123 1.646 4.581-1.556 0.776-3.538 1.621-5.373 2.883-0.321-0.952-0.401-2.239-0.158-3.693" fill="#d3c3dd"/>
  </g>
  <g transform="matrix(1.7547 0 0 -1.7547 80.034 79.604)">
   <path d="m0 0c0.227-2.237 1.521-3.444 2.338-3.332 1.091 0.151 1.696 1.786 1.434 3.71-0.051 0.372-0.129 0.718-0.228 1.036-0.986 0.484-2.031 1.032-3.043 1.697-0.413-0.572-0.655-1.586-0.501-3.111" fill="#ffdc95"/>
  </g>
  <g transform="matrix(1.7547 0 0 -1.7547 54.63 79.056)">
   <path d="m0 0c-0.307-6e-3 -0.501-0.344-0.484-0.745 0.015-0.356 0.252-0.63 0.552-0.608 0.304 0.024 0.496 0.308 0.472 0.67-0.025 0.383-0.248 0.688-0.54 0.683" fill="#0d141b"/>
  </g>
  <g transform="matrix(1.7547 0 0 -1.7547 81.527 76.398)">
   <path d="m0 0c-0.187-0.054-0.327-0.391-0.238-0.78 0.071-0.312 0.316-0.574 0.589-0.51 0.165 0.039 0.38 0.313 0.26 0.747-0.111 0.403-0.375 0.61-0.611 0.543" fill="#0d141b"/>
  </g>
  <g transform="matrix(1.7547 0 0 -1.7547 81.527 76.398)">
   <path d="m0 0c-0.187-0.054-0.327-0.391-0.238-0.78 0.071-0.312 0.316-0.574 0.589-0.51 0.165 0.039 0.38 0.313 0.26 0.747-0.111 0.403-0.375 0.61-0.611 0.543" fill="#87969d"/>
  </g>
  <g transform="matrix(1.7547 0 0 -1.7547 54.265 75.886)">
   <path d="m0 0c-1.232-0.237-2.078-1.884-1.682-4.052 0.35-1.917 1.586-2.807 2.936-2.587 1.345 0.219 2.23 1.657 1.849 3.724-0.45 2.438-1.939 3.139-3.103 2.915m-2.112-4.118c-0.414 2.268 0.483 4.145 2.037 4.444 1.508 0.291 3.131-0.586 3.607-3.174 0.417-2.26-0.614-3.88-2.209-4.14-1.418-0.231-3.018 0.588-3.435 2.87" fill="#0d141b"/>
  </g>
  <g transform="matrix(1.7547 0 0 -1.7547 54.68 73.605)">
   <path d="m0 0c-1.859-0.257-3.47-2.412-2.991-5.456 0.474-3.004 2.688-4.339 4.697-3.925 2.083 0.429 3.332 2.756 2.827 5.502-0.583 3.169-2.691 4.133-4.533 3.879m-3.543-5.568c-0.449 2.847 1.093 5.63 3.517 5.965 2.428 0.335 4.557-1.159 5.108-4.155 0.54-2.933-0.91-5.517-3.295-6.009-2.206-0.453-4.826 0.999-5.33 4.199" fill="#0d141b"/>
  </g>
  <g transform="matrix(1.7547 0 0 -1.7547 82.524 73.427)">
   <path d="m0 0c-0.725-0.084-1.455-1.164-1.221-3.482 0.228-2.254 1.462-3.294 2.119-3.204 0.943 0.131 1.498 1.668 1.243 3.54-0.307 2.254-1.498 3.221-2.141 3.146m-1.635-3.531c-0.255 2.521 0.612 3.744 1.594 3.858 0.934 0.109 2.278-1.102 2.599-3.458 0.275-2.023-0.408-3.729-1.626-3.89-0.938-0.123-2.336 1.2-2.567 3.49" fill="#0d141b"/>
  </g>
  <g transform="matrix(1.7547 0 0 -1.7547 79.654 79.623)">
   <path d="m0 0c0.231-2.29 1.629-3.612 2.567-3.489 1.219 0.16 1.901 1.866 1.626 3.889-0.044 0.326-0.11 0.625-0.189 0.907-0.163 0.079-0.329 0.16-0.496 0.243 0.116-0.342 0.209-0.729 0.268-1.165 0.255-1.871-0.3-3.408-1.242-3.539-0.658-0.091-1.891 0.949-2.119 3.203-0.148 1.461 0.087 2.43 0.463 2.968-0.103 0.066-0.206 0.134-0.309 0.204-0.457-0.613-0.726-1.67-0.569-3.221" fill="#87969d"/>
  </g>
  <g transform="matrix(1.7547 0 0 -1.7547 83.262 71.125)">
   <path d="m0 0c-1.194-0.177-2.072-2.155-1.567-5.172 0.534-3.194 2.254-3.942 3.596-3.621 1.223 0.294 1.936 2.147 1.391 4.753-0.663 3.17-2.244 4.214-3.42 4.04m-2.079-5.271c-0.483 2.887 0.307 5.384 2.036 5.639 1.307 0.195 3.211-0.805 3.949-4.332 0.543-2.595-0.215-4.82-1.785-5.197-1.626-0.391-3.627 0.47-4.2 3.89" fill="#0d141b"/>
  </g>
  <g transform="matrix(1.7547 0 0 -1.7547 79.615 80.375)">
   <path d="m0 0c0.572-3.42 2.573-4.28 4.2-3.89 1.453 0.349 2.208 2.282 1.883 4.623-0.175 0.09-0.356 0.18-0.542 0.271 0.457-2.483-0.247-4.24-1.434-4.525-1.342-0.322-3.062 0.426-3.596 3.621-0.241 1.443-0.164 2.645 0.111 3.529-0.134 0.09-0.266 0.182-0.398 0.275-0.383-1.028-0.474-2.414-0.224-3.904" fill="#87969d"/>
  </g>
  <g transform="matrix(1.7547 0 0 -1.7547 81.351 84.215)">
   <path d="m0 0c-1.257-0.712-2.155-1.161-3.617-1.757-0.132-0.052-0.181-0.053-0.333 7e-3 -2.547 0.983-4.168 1.474-6.406 2.064l0.012 0.403c2.351-0.591 4.013-1.062 6.58-1.999 1.433 0.561 2.308 0.949 3.605 1.635z" fill="#0d141b"/>
  </g>
  <g transform="matrix(1.7547 0 0 -1.7547 75.004 87.298)">
   <path d="m0 0c1.462 0.596 2.36 1.045 3.617 1.757l-0.159 0.352c-1.285-0.679-2.157-1.066-3.569-1.62-0.01-0.11-0.021-0.219-0.034-0.328-0.017-0.062-0.033-0.129-0.049-0.194 0.062-9e-3 0.113 1e-3 0.194 0.033" fill="#87969d"/>
  </g>
  <g transform="matrix(1.7547 0 0 -1.7547 69.81 71.357)">
   <path d="m0 0c-3.161 1.758-6.335 4.119-8.119 5.85-0.402 0.39-0.223 0.566 0.21 0.21 1.849-1.522 4.958-3.896 8.027-5.771 0.669-0.409 0.531-0.649-0.118-0.289" fill="#0d141b"/>
  </g>
  <g transform="matrix(1.7547 0 0 -1.7547 73.195 69.941)">
   <path d="m0 0c1.776 5.179 4.045 10.359 4.202 11.809 0.203 1.874 0.601 12.646 0.085 12.935-0.419 0.235-6.739-2.301-8.927-2.665-1.055-0.176-2.372-0.6-3.148-1.101-0.556-0.36-0.707-0.129-0.158 0.242 0.733 0.494 2.176 1.046 3.243 1.261 2.239 0.453 8.693 3.142 9.305 2.779 0.867-0.516 0.263-11.574 0.061-13.531-0.176-1.697-2.376-6.789-4.374-11.841-0.285-0.72-0.545-0.632-0.289 0.112" fill="#0d141b"/>
  </g>
  <g transform="matrix(1.7547 0 0 -1.7547 25.298 95.467)">
   <path d="m0 0c-4.646 2.323-9.369 4.889-9.979 5.485-0.617 0.605-2.673 3.902-2.594 4.574 0.086 0.735 2.973 3.059 4.903 4.543 0.807 1.073 1.851 4.389 2.268 4.944 0.294 0.391 2.801 1.802 5.059 3.262 1.097 3.671 2.799 6.971 4.232 9.589 0.82 1.499 1.251 3.026 1.426 3.839 0.576 2.679 0.823 6.68 1.178 7.812 0.643 2.049 5.393 8.617 6.457 8.596 0.947-0.019 6.803-8.331 7.833-10.838 0.317-0.77 0.828-3.234 1.531-5.035l-0.521-0.165c-0.671 1.807-1.106 4.284-1.425 5.037-1.181 2.792-6.806 10.428-7.418 10.448-0.645 0.02-5.206-5.91-5.931-8.187-0.357-1.121-0.653-5.076-1.22-7.752-0.174-0.826-0.589-2.465-1.424-3.99-1.433-2.617-3.278-5.985-4.371-9.492-0.028-0.091-0.073-0.142-0.148-0.193-2.252-1.551-4.62-2.887-4.855-3.225-0.364-0.523-1.558-3.774-2.378-4.894-6e-3 -8e-3 -0.014-0.016-0.021-0.022-2.057-1.637-4.538-3.904-4.589-4.336-0.063-0.542 1.749-3.534 2.347-4.133 0.458-0.458 4.893-2.935 8.697-4.861z" fill="#0d141b"/>
  </g>
  <g transform="matrix(1.7547 0 0 -1.7547 13.131 68.197)">
   <path d="m0 0c-0.987 2.564-1.326 7.044-0.863 7.362 0.354 0.244 3.446-0.586 5.853-1.381l-0.452-0.256c-2.004 0.611-4.832 1.404-5.071 1.222-0.245-0.186 0.026-4.147 0.772-6.444z" fill="#0d141b"/>
  </g>
  <g transform="matrix(1.7547 0 0 -1.7547 14.647 76.736)">
   <path d="m0 0c0.55 1.979 1.697 4.375 3.071 6.303 0.352 0.493 0.556 0.36 0.226-0.149-1.266-1.955-2.386-4.257-3.024-6.229-0.28-0.869-0.523-0.824-0.273 0.075" fill="#0d141b"/>
  </g>
  <g transform="matrix(1.7547 0 0 -1.7547 29.696 98.186)">
   <path d="m0 0c8.726-4.493 20.905-3.781 27.475-0.324 0.753 0.396 0.895 0.181 0.168-0.259-6.337-3.843-19.664-4.48-28.456 0.463z" fill="#0d141b"/>
  </g>
  <g transform="matrix(1.7547 0 0 -1.7547 79.041 55.379)">
   <path d="m0 0c0.215-1.167 1.171-1.976 2.188-2.553 1.035-0.588 4.002-2.08 5.006-2.988 1.173-1.063 4.174-7.245 4.139-8.344-0.024-0.734-4.594-8.181-6.257-8.238-0.597-0.021-1.966 0.594-3.463 1.477-1.302-1.245-3.856-3.138-4.305-3.148-0.406-0.01-4.046 1.027-6.076 1.477-1.998-0.914-3.921-2.287-4.401-2.236-0.625 0.068-4.886 2.135-8.532 3.241-2.748-1.592-6.336-3.474-6.768-3.439-0.984 0.082-6.245 5.4-8.59 9.314-0.41 0.683-0.21 0.826 0.234 0.165 2.58-3.844 7.599-8.785 8.425-8.921 0.325-0.046 3.757 1.674 6.554 3.198 0.08 0.044 0.107 0.046 0.214 0.017 3.748-1.011 7.906-2.964 8.514-3.016 0.394-0.033 2.154 1.137 4.194 2.022 0.105 0.045 0.134 0.046 0.23 0.026 2.106-0.45 5.624-1.323 6.004-1.319 0.323 3e-3 2.615 1.639 4.125 2.919 0.116 0.1 0.181 0.109 0.3 0.043 1.597-0.895 2.758-1.277 3.335-1.269 1.281 0.015 5.676 6.957 5.701 7.728 0.033 1.033-2.992 7.201-3.887 7.97-0.997 0.857-3.889 2.318-4.947 2.919-0.927 0.526-1.868 1.149-2.205 2.222z" fill="#0d141b"/>
  </g>
  <g transform="matrix(1.7547 0 0 -1.7547 91.947 65.992)">
   <path d="m0 0c0.654-2.087 1.346-4.384 1.87-6.857 0.153-0.726-0.076-0.767-0.265-0.059-0.652 2.441-1.379 4.791-2.272 7.595z" fill="#0d141b"/>
  </g>
  <g transform="matrix(1.7547 0 0 -1.7547 90.749 91.481)">
   <path d="m0 0c0.701 1.339 1.474 3.129 1.937 4.609 0.217 0.692 0.447 0.627 0.267-0.074-0.328-1.276-0.559-2.108-1.098-3.227z" fill="#0d141b"/>
  </g>
  <g transform="matrix(1.7547 0 0 -1.7547 59.127 58.99)">
   <path d="m0 0c2.652 2.33 5.393 4.547 7.552 6.001 0.631 0.425 0.771 0.204 0.168-0.26-1.999-1.535-4.753-3.752-7.544-5.976-0.499-0.398-0.683-0.211-0.176 0.235" fill="#0d141b"/>
  </g>
  <g transform="matrix(1.7547 0 0 -1.7547 53.302 57.314)">
   <path d="m0 0c0.579 3.813 1.424 8.399 2.263 12.146 0.16 0.714 0.414 0.678 0.285-0.042-0.687-3.847-1.526-8.474-2.272-12.146-0.149-0.736-0.39-0.708-0.276 0.042" fill="#0d141b"/>
  </g>
  <g transform="matrix(1.7547 0 0 -1.7547 48.684 21.571)">
   <path d="m0 0c0.068 2.803-0.125 5.628-0.239 7.826-0.043 0.814 0.214 0.844 0.296 0.034 0.216-2.13 0.421-5.035 0.239-7.871-0.045-0.7-0.313-0.691-0.296 0.011" fill="#0d141b"/>
  </g>
  <g transform="matrix(1.7547 0 0 -1.7547 35.976 52.636)">
   <path d="m0 0c0.62 1.517 1.224 3.227 1.695 4.611 0.413 1.213 1.752 2.719 2.492 3.46 0.441 0.441 1.881 4.208 2.619 6.639 0.183 0.603 0.415 0.526 0.26-0.084-0.629-2.48-2.109-6.362-2.615-6.867-0.726-0.728-2.004-2.099-2.414-3.265-0.462-1.315-1.132-3.179-1.777-4.611-0.262-0.581-0.507-0.487-0.26 0.117" fill="#0d141b"/>
  </g>
  <g transform="matrix(1.7547 0 0 -1.7547 36.784 33.434)">
   <path d="m0 0c-0.185 0.716 0.038 0.779 0.258 0.074 0.58-1.856 1.134-4.011 1.494-5.695l-0.26-0.512c-0.494 2.213-1.014 4.276-1.492 6.133" fill="#0d141b"/>
  </g>
  <g transform="matrix(1.7547 0 0 -1.7547 33.491 69.338)">
   <path d="m0 0c-0.327 1.488-0.729 2.904-1.243 4.579-0.044 0.144-0.033 0.202 0.032 0.296 0.374 0.544 0.763 1.105 1.156 1.936 0.236 0.499 0.426 0.429 0.235-0.088-0.323-0.873-0.665-1.496-1.039-2.043 0.507-1.675 0.85-3.117 1.119-4.621 0.102-0.573-0.137-0.619-0.26-0.059" fill="#0d141b"/>
  </g>
  <g transform="matrix(1.7547 0 0 -1.7547 31.673 99.636)">
   <path d="m0 0c-1.887-1.495-3.283-2.262-3.721-2.2-0.629 0.088-3.084 3.554-4.175 7.065l0.516-0.263c1.142-3.224 3.343-6.203 3.735-6.254 0.368-0.048 1.47 0.507 3.192 1.879z" fill="#0d141b"/>
  </g>
  <g transform="matrix(1.7547 0 0 -1.7547 86.917 93.635)">
   <path d="m0 0c0.229-2.736 0.015-6.24-0.657-6.557-0.6-0.283-2.945 1.025-5.356 3.001l0.359 0.193c2.485-1.909 4.389-2.866 4.776-2.687 0.393 0.183 0.674 3.412 0.463 6.226z" fill="#0d141b"/>
  </g>
  <g transform="matrix(1.7547 0 0 -1.7547 86.851 93.573)">
   <path d="m0 0c-0.608-0.626-1.168-1.062-1.812-1.471-0.62-0.394-0.786-0.227-0.174 0.244 0.554 0.428 1.003 0.837 1.519 1.383z" fill="#0d141b"/>
  </g>
  <g transform="matrix(1.7547 0 0 -1.7547 35.894 99.043)">
   <path d="m0 0c0.915-3.157 2.857-5.686 3.586-5.729s2.948 2.749 4.024 5.146c0.83 1.852-7.902 1.589-7.61 0.583" fill="#dbdcdc"/>
  </g>
  <g transform="matrix(1.7547 0 0 -1.7547 42.065 109.67)">
   <path d="m0 0c-0.854 0.02-2.822 3.209-3.512 5.557-0.232 0.788 6e-3 0.841 0.302 0.076 0.876-2.27 2.581-5.039 3.269-5.055 0.702-0.016 2.217 1.981 3.679 4.543 0.471 0.825 0.704 0.698 0.294-0.159-1.274-2.657-3.118-4.983-4.032-4.962" fill="#0d141b"/>
  </g>
 </g>
</svg>
