<svg xmlns="http://www.w3.org/2000/svg" viewBox="0 0 341.92 499.71"><path d="M131.42 302.48l-54-4.36-22 18.13a43.7 43.7 0 0 0-4.34 12.14c-7.33-7-13.63-11.27-18.13-11.82.89 3.94 1.13 7.72-1.3 11s-2.59 5.62-1.89 10.52c1.93 13.58 7.18 34 11 44.4 4.73 12.85 13.87 33.89 19.46 44.93.79-5.2.87-11.9-.31-14.35a23 23 0 0 0-5.36-6.3 10.57 10.57 0 0 1-3.23-4c-7.88-17-13.62-35.47-14.43-43.59-1.34-13.5-3.35-17.81-2.28-19.94 8.16 5.26 16.36 15 26.07 20 2.07 1.06 2.9 1.06 3.66-.71A206.53 206.53 0 0 1 75 338.31c6.92 3.55 15 6.62 24.71 6.8 1 2.72 1.47 4.36 2.25 6.5a1.81 1.81 0 0 1-.71 2.47 1.85 1.85 0 0 1-.29.13 29.67 29.67 0 0 0-4.13 2.19c.35 1.12-6.21 6.21-14.84 13.71 2.72 3.08 5 7 4.91 8-.12 2-2.71 4.56-4.85 6.39a7.55 7.55 0 0 0-2.72 4.79c-2.66 12.88-6.44 41.06-2.82 59.9.71-18.6 3.73-46 6.78-57.77a17.59 17.59 0 0 1 7.33-10.57c7-5.12 17.91-8.93 25.46-10.4a5.67 5.67 0 0 0 5-5.36 93.64 93.64 0 0 1 5.21-20.57c4.2-.32 8.62-2.3 13.84-.59 8.92 2.91 16.89 5.26 24 11.72 6.5 13.18 11.64 20.75 17.91 27.19s10.94 8.34 18.21 8.93 15.07 1.06 21.93 1.06c3.25 0 5.83 0 7.68 3 13.48 21.24 32.58 54.63 36.42 65.07 1.1 3 1.26 3.62.79 5.51s0 3.73 2.13 6.07c5 5.52 13.55 10.48 14.81 9.62s.32-8-5.2-18.52-24.58-43.81-32.63-58.33c-1.12-2-.06-2.45.95-1.09s4.19 6.33 6.91 10.47c-7.15-15-11.88-26.19-14.24-32-1.85-4.54-3.34-5.93-7.75-7-5.63-1.34-10.51-5.17-14-13-4.26-9.45-15.54-39.18-17.5-40.94-3.15-2.84-11-6.86-13.47-7.25-7.26-1.18-19.09 1.08-23.41.79-9.23-.64-22.07-5.44-31.69-11z" fill="#4d555b"/><path d="M87.93 151l40.36 2.21 28.45 9.62L154 164c0 .62-.74 1.42-2.72 2.6-2.21 4.47-3.77 7.48-7.44 9.24-5.24 2.49-8.35 3.81-11.41 10.32a6.62 6.62 0 0 0 5.61-1.51c6.36-5.42 19.07-16.9 20.22-16.26 1.37.75-10.75 20.08-16.69 27.58-1.35 1.7-2 2.07-5 1.93-5.14-.24-7.74-.5-10.74-.66-1.5 3.16-2.46 6.16-4.6 8.19a18.27 18.27 0 0 0-5.09 8.14c-3.75 11.94-14.81 48.62-.31 71.87a24.61 24.61 0 0 1 4.83 4.51 3.53 3.53 0 0 0 3.37-1.41c6.68-8.64 19.38-25.08 20.81-24.85 1.22.19.47 5.16-1.62 9.65 4.18-4.73 8.54-8.36 10.17-7.76 2.62 1-20.26 32.8-32.55 53.64-2.33 4-5 4.37-8.59 4.13a84.12 84.12 0 0 0-11 .06c-2.74.26-5.26 1.32-7.7 7.87-1.42-2.8-2-4.06-2.88-6-7.61-5.13-10.8-13.44-13.24-22.82-2.56 5.4-4.26 19-3.94 28.17a8.18 8.18 0 0 1-.67 2.88 45.89 45.89 0 0 1-5.32-7.09C64.3 321.33 57 316 47.63 312.59S36.25 304.31 34.12 298c-4.2-12.29-9.19-31.42-7.51-31.92.59-.18 1.71 1.83 2.84 4.08-.18-2.07-.06-4.55.59-4.55s2.36 3.54 4.67 8c4.7 9.16 7.77 14 14.07 13.24a110.37 110.37 0 0 0 17-3.25 4.74 4.74 0 0 0 2.9-2.84c6-12.12 13.48-27.84 16.08-35.29s9.46-26.84 9-37.72c-.47-1.69-.71-3.19-1-4.29a46.56 46.56 0 0 0-10.48.55c-4.83.83-7 .92-8.36-1.58a25.92 25.92 0 0 1-2.76-7.25c-.63-2.76.24-4.21 2.52-5.46 3.16-1.71 5.76-2.89 8.36-5.18a30.27 30.27 0 0 0-4.4-2.32 4.3 4.3 0 0 1-2.64-4.3c1.36-10.23 5.15-30.92 6.74-30.74s1.21 18.09 1.07 24c-.06 2.54 1.12 3.61 2.72 4 .23-1.77.53-4.49 1.3-4.55s1.65 1.07 2.24 2.13c1.13-1.48 1.72-2.13 2.31-2.78a4.08 4.08 0 0 0 .71-2.95c-.18-5.21-1.77-7.87-1.24-9.88a55.77 55.77 0 0 0-2.92-6.15z" fill="#1068b2"/><path d="M95.23 191.21a19.53 19.53 0 0 0 2.77-4.65c1.35-3.19 5.24-5.06 14-4.08-4.35 5.36-9.52 7.94-12.26 8.18a38 38 0 0 0-4.51.55z" fill="#fff"/><path d="M102 190.08c-1.16-1.93-1.17-5.17 1.35-6.71s5.55-.28 5.12 2.7a21 21 0 0 1-6.47 4.01z" fill="#004278"/><path d="M145.18 139.63c1.82-7.23 6.26-17.63 7.89-24.63a22.09 22.09 0 0 1 2.17-5.66c1.54-3 2.49-4.61 4.5-8.16 1.59-2.81 1.65-4.61 2-8.16a232.72 232.72 0 0 1 4-24.47 187.46 187.46 0 0 0 3.9-24.36c.59-5.57.35-12.06-.83-20.57-.69-4.95-4-4.26-4-.24a85.44 85.44 0 0 1-2.48 20.46c-3.67 13.33-7 27-10.09 38.62a19.38 19.38 0 0 1-2.52 5.83c-2.7 4.22-4.89 7.57-9.07 14.82a12.2 12.2 0 0 0-1.26 5.13c-.37 3.85-5.78 17.91-11 30.58.47-3.26.91-6.62 1.36-10.09.85-6.64 2-13.32 3-19.39a17.43 17.43 0 0 0-.47-8.75c-1-3.39-3.08-9.62-4.65-15-2.36-8-2.92-22.85-.56-42.72a43.91 43.91 0 0 0-.78-16.47c-1.26-5-2.13-12.93-2.92-19.31-.69-5.62-3.7-4.65-3.63.47a244.44 244.44 0 0 1-1.41 32.24c-.16 1.29-1.27 10.09-1.82 12.45a34.89 34.89 0 0 0-1 7.81 150 150 0 0 1-1.89 20.73 8.52 8.52 0 0 0 .63 4.65 53.18 53.18 0 0 1 2.76 9 31.14 31.14 0 0 1 .15 9.54 202.16 202.16 0 0 1-3.59 20.14 55.1 55.1 0 0 0-2.57-5.37c-.58-9.27-3.3-15.94-8.1-23.28a119.42 119.42 0 0 1-9.62-16.71 99.19 99.19 0 0 1-6-17c-1.73-7.64-2.96-11.58-5.28-19.31a31.27 31.27 0 0 0-4.89-10.17c-3.94-5.83-11.27-16.71-18.28-24.9-2.43-2.84-4.26-.48-3.47 1.26a238.76 238.76 0 0 0 11.18 22.2c1.48 2.52 3.08 4.65 4.18 8 2.39 7.36 4.83 22.53 5.54 30a46.28 46.28 0 0 0 7.28 20.76 69.92 69.92 0 0 1 8.12 16.61 124.21 124.21 0 0 1 3.57 15.23 62.11 62.11 0 0 0-8.34-6.57 9.84 9.84 0 0 0-4.48-4.81c-6.9-3.7-17-12.06-26.36-22.7-8.73-10-16.2-21.52-23.41-36.65-3.16-6.62-4.61-8.52-8-12.3-6.51-7.19-14.19-15-20.34-21.75-2.08-2.29-4.49-1.3-3.19 1.18a155.83 155.83 0 0 0 17 25.42c2.19 2.63 3.42 4.14 4.61 7.09a340.24 340.24 0 0 0 21.4 42.09 29.65 29.65 0 0 0 4.61 5.91c6.56 6.56 11.35 10.41 18 16.32a32.27 32.27 0 0 1 6.27 7.92c6.17 10 13.74 23.63 17.58 34.68a12.57 12.57 0 0 1 .93-4.06c2.3 2.19 5.18 11.18 5.38 15.13a2.45 2.45 0 0 1-1.19 2.37 33.63 33.63 0 0 0-7.49 8.29 13 13 0 0 1-4.2 4.25c-1.3.95-2.07 1.78-3.55 2.84a55.34 55.34 0 0 1-6.8 3.72c-1.89.89-2 1.42-1.47 3.73s2.18 6.68 3.07 6.74 2.9-2.9 3.37-6c4.49-2.37 8.28-4.38 10.29-6.33a15.29 15.29 0 0 0 3.13-3.72A9.92 9.92 0 0 1 96 180.5c1-3 2.07-7 3-7.15s1.89 2.66 3.66 4.55c2.5-1 4.75-1.83 6-2.38a5.19 5.19 0 0 0 2.52-2.17c4.18-6.39 9.22-10.54 14.31-11.62-3.59 5.83-8.72 15.36-11.79 19.07-7.17 8.67-11.56 9.59-15.33 10-5 .61-7.12 1.4-9 2.8 7.37.16 13.17.33 17.93.9a2.42 2.42 0 0 0 2.48-.9c2.57-4.26 7.69-9.78 15.57-8.44a10.92 10.92 0 0 1-.39-10.32 33.34 33.34 0 0 1 4.81-8.1c1.35-1.42 2.13-1.94 4.13-1.83 5.62.29 11.93.61 15.37-.44 1.7-.51 4.16-1.34 4.78-.49 4.95-1.86 12.62-4.29 16.23-5.14a41.33 41.33 0 0 0 10.33-3.79 44.56 44.56 0 0 1 7.48-3.31 16.54 16.54 0 0 1 7.88-.23c5.92 1 11.71 2.09 15.14 3.07a16.24 16.24 0 0 0 11.51-.87C240.31 145 259 138 272.71 134.57a72.14 72.14 0 0 0 15.29-5.95c11.23-6.39 37.45-15.58 48.11-18 7.39-1.66 6.7-5.64.24-4.73-3.37.47-21.52 2.48-28.49 4.37-18.33 5-33.46 9.11-43.75 12.06-4.77 1.37-11.67 3.74-18.69 6.29 9.46-7.65 21.56-17.28 31.7-23.43a62.83 62.83 0 0 1 10.29-5.28c17.49-6.62 28.25-12.18 35.15-17.3 1.68-1.25 1.62-3.76-2.05-2.6-13.22 4.21-33.51 10.79-45.17 14.86 6.32-4.22 10.78-7.5 14.45-11.17a74.13 74.13 0 0 1 16.31-12.18c5.3-2.74 4.68-5.7-1.65-3.66-7 2.25-10.52 4.37-16.91 8.28s-15.37 8.74-19 9.81-6.8 2.06-9.93 4.61l-1.26 1c3.88-3.89 6.15-6 8-7.71a27.18 27.18 0 0 1 7.8-5.08c5.32-2.25 16.79-8.28 19.86-10.64s1.35-3.37-2.72-2.37c-14.9 3.67-30.62 11-40.08 18.21s-15.49 11.7-24.94 17c-1.9 1.07-3.7 4.15-7 5.09-7.76 2.2-25.81 6.78-29.6 6.78-2.52 0-4 .6-6 2.88-2.5.22-6 .82-7 1.38a25.47 25.47 0 0 0-5.21 5.46c-3.74.77-8.39 1.79-9.31 2.57a22 22 0 0 0-4.24 6.21c-2.4.72-4.41 2.12-9.26 8.26z" fill="#fff9c1"/><path d="M98.41 151.36c2.17-.37 2.92-19.08 1.58-23.8s-16.18-15.49-17.73-14.82c-2.57 1.1 3.23 14.93 5.36 20.25 2.27 5.7 6.85 19.01 10.79 18.37z" fill="#fff46d"/><path d="M113.86 126.45c-.52-5.45-9.4-19.41-10.8-19.15-1.73.31-3.15 18.76-2.75 21.75s8.67 19.57 10.56 19.24c2.2-.4 3.55-16.08 2.99-21.84z" fill="#f8bfc6"/><path d="M125.92 105.56c-1.82-.34-8.67 14.91-9 17.11-.71 5 2.52 23.09 4.65 23.09s8-14.74 8.27-22.15-2.66-17.81-3.92-18.05z" fill="#c69fca"/><path d="M135.07 145.45c2 .37 10.24-12.38 11.66-16.08s3.07-18.13 1.1-18.68-2.83 1.79-4 3.39c-2.28 3.07-3.46 4.41-5.83 7.33-2.64 3.25-3.78 4.76-3.78 9.22a82.13 82.13 0 0 1-.63 10.4c-.26 2.05.21 4.18 1.48 4.42z" fill="#7f9fd2"/><path d="M171.32 143.24c.1-2.44-25.3-4.49-28.45-3.15s-13.79 16.08-12.38 17.65 8.67-1.74 11.75-3.31a54.29 54.29 0 0 1 15-5.2c7.76-1.42 14-4.02 14.08-5.99z" fill="#fff46d"/><path d="M147.58 139.58c2-3 5.24-6.61 7.51-7.61 3.39-1.5 21-2.92 21.36-1.89.24.78-5.15 5.62-8.75 6.7-3.94 1.18-6.22 2-8 3.56a114.13 114.13 0 0 0-12.12-.76z" fill="#f8bfc6"/><path d="M156.84 131.32c1.49-3.07 2.74-5.26 4.24-6.21s19.49-4.7 20.1-3.78c.31.47-4.36 5.47-7.75 8.38a137.6 137.6 0 0 0-16.59 1.61z" fill="#c69fca"/><path d="M170.14 122.68c1.89-2.52 4-4.9 5.28-5.53s8.84-1.89 9.14-1.1c.4 1-1.4 2.92-5.17 5.18a54.62 54.62 0 0 0-9.25 1.45z" fill="#7f9fd2"/><path d="M51.89 101.24c1.67 6.84 3.64 14.37 6.85 17.57s9.62 7.71 19.18 11.6c-4.69-7.65-6.35-11.29-9.62-14.37s-10.3-8.88-16.41-14.8z" fill="#fbbb76"/><path d="M81.49 85.39c-.43 9.93 1.49 20.14 7 24.61a40.18 40.18 0 0 1 6 6.16 96.45 96.45 0 0 0-13-30.77z" fill="#f05b40"/><path d="M114.67 74.6c-3.88 5.92-6.34 17.31-1 26.58a26.83 26.83 0 0 1 2.9 7.95c1.61-9.93 2-13.95-1.85-22.75-1.28-2.84-1.34-5.55-.05-11.78z" fill="#8680bc"/><path d="M154.51 73.79c-4.13 4.94-8.64 11.47-9.31 21.71 4.13-6.29 5.61-8.94 6.41-11a78.08 78.08 0 0 0 2.9-10.71z" fill="#00bedf"/><path d="M177 156.74c9.55 4.44 18.56 7.4 24.54 7.15s19.55-5.18 26.46-12.64c-8.88 4.69-12.46 4.5-17.46 3.08a105.25 105.25 0 0 0-15.23-3.14 18.81 18.81 0 0 0-11.31 2.16c-2.56 1.28-4.64 2.22-7 3.39z" fill="#fbbb76"/><path d="M106.11 183.26a1.06 1.06 0 0 0-.93 1.16c0 .87.4 1.3.79 1.33a1.07 1.07 0 0 0 1-1.08c.09-.84-.32-1.37-.86-1.41z" fill="#fff"/><path d="M133.37 299.58c12.06 7.51 27 12.59 48.65 13.89-6.86.77-10.76 1.18-13.89 1.48a30.63 30.63 0 0 1-11-.65c-7.56-1.77-16.55-5.44-25.06-10l-.65-1.83zM185.16 313.89c2 .23 5.08.17 7-1.78a60.55 60.55 0 0 1 10.17-7.86c4.2-2.39 9.51-3.37 20.63 3.84-6.74-2.18-9.46-2.3-12.77-.53a72.68 72.68 0 0 0-9.93 6.44c-3 2.31-4.44 3.08-7.92 2.84a29.6 29.6 0 0 0-7.18-2.95z" fill="#1068b2"/><path d="M110.79 286.83a4.86 4.86 0 0 1 2.65-2.45c.79-.12 5.19 2.71 7.22 5.56a39.77 39.77 0 0 1-9.87-3.11zM20.78 324c-.86-2.74-2-2.45-2.13.31a105.52 105.52 0 0 0 2.87 32.16 410.34 410.34 0 0 0 16.26 49.89 8.51 8.51 0 0 1 .77 4.42 44.5 44.5 0 0 1-1.06 6.7c-.54 2.24-.25 3.86 1.65 6.26 3.61 4.55 9.83 9 14.48 10.17 1.92.5 2.43-.07 2.19-2.48-.49-5-3.94-12.67-7.92-20-8.39-15.55-20.58-56.86-23.29-70.76-1.77-9.17-2.44-12.28-3.82-16.67zM68.19 388.61c-1.48 13.69-4 59.94-1.62 76.53a9.4 9.4 0 0 1-.39 4.34c-1.86 5.2-.79 8.31 1.26 11.11 5.28 7.24 11.26 12 12.29 11.51s.16-6.23-2-14.9c-4-15.56-7-45.64-5.91-62.52a242.44 242.44 0 0 0 .48-25c-.07-1.7-1.51-7.55-2.36-7.6s-1.44 3.65-1.75 6.53zM280.14 456.85c3.35 2.31 5.1 4.12 5.63 5.11 1.21 2.25 1.87 7.16 1.46 11a107.92 107.92 0 0 0-7.09-16.11z" fill="#4d555b"/><path d="M77.81 458.13a24.59 24.59 0 0 0 6.19 9.31c1.38 1.42 2.27 3.28 2.2 6.49s-.41 8.67-1 13.37a117 117 0 0 1-7.39-29.17zM191.93 316.68c2 .44 5.08.25 6.78-1.22 4.57-3.94 8.67-6.7 11.71-7.92 4.12-1.66 7.79-1.44 12.33.44 8.32 5 11.47 6.93 15.88 9.57s12.39 3.53 21.13 1.3c13.42-3.43 24.53-11.94 30.5-20.27.36 4.43-1.95 11.19-4.73 15.74a37.09 37.09 0 0 0 8.28-6.58c-1.77 9.85-8.67 21.36-20.45 26.21 5 1 11.07 1.85 17.06.67-5.48 9.14-15.61 15.92-29.05 11.58 2.53 3.08 6.74 5.48 12.26 6.7-11.27 5.52-22.54 2.33-31.65-3.78a19.55 19.55 0 0 0 8 10.44c-7.18-1.18-17.57-5.68-30.35-21-3.11-3.75-8.39-7.57-14-6.43-1.7-4.13-3.47-8.9-5.12-10.32a24.93 24.93 0 0 0-8.58-5.13z" fill="#4d555b"/><path d="M79.89 491.78c1.42-.58-.79-9.3-2.6-17.1-4.55-19.57-6.23-47.68-5.44-62.68.43-8 .63-11.89.4-22.35-.09-3.61-1.72-7.62-2.36-7.6s-1.37 3.11-1.73 5.82a51.42 51.42 0 0 1-2.48-8.15 7.13 7.13 0 0 1 1.32-6.25c6-7.34 29.5-18.26 30.27-17.08.44.67-8.51 7.74-15.37 13.95 2.42 2.82 5.34 6.63 5 8s-2.54 4.29-5.59 6.93a4.39 4.39 0 0 0-1.63 2.87C76.49 403 74.17 422.92 75.36 438c1.53 19.51 4.15 34.87 7.8 44.1 3.19 8.08 3.4 15.46 2.17 16.2s-6.86 1-12.93-11.67c2.68 2.87 5.76 5.86 7.49 5.15zM33.15 316.53a51.87 51.87 0 0 1 10.41 5.12c-4.7-3.9-9.74-7.87-11.51-8.39-3.71-1.11-11.55-.55-13.56.78s-6.93 8.24-6.86 9.86c.2 4.25 7.18 15.52 7.69 20.21-1.11-9.53-1.5-21.44.25-21.77 1.25-.24 3.14 7.8 4.79 16.26 2.72 13.91 13.84 54.4 23.77 72.63 6.87 12.67 8.7 20.77 7.41 22.54-.4.55-2.92.24-6.7-2 4.65 6 11.66 9.38 13.71 7.1 1.53-1.71 1.42-4.38-4.65-16.56-15.09-30.31-24.22-57.16-28.22-84.9a13.25 13.25 0 0 1 2-9.87c1.98-2.91 2.57-6.54 1.47-11.01zM241 392.42c-1.37-2.16-2.75-1.83-1.23.84 4.53 7.95 34.67 61.67 39.87 72 3.86 7.64 5.91 15.88 4.49 16.87-.78.55-3.07-.47-5.91-2.29 3.39 5.36 9.33 9.61 10.72 8.83 1.82-1 .84-11.46-4.81-23.65-3.05-6.59-14.68-25.2-25.63-43.07-3.29-5.36-6.19-10.77-9.2-15.63-3.3-5.32-5.91-10.11-8.3-13.9zM73.32 329.12c-5.2-20.88.14-47.95 12.8-66.23-2.82 15.26-5.12 39.41 4.57 62.39-5.91-4.45-11-12-13.22-23.09-2.74 6.47-4.15 17.37-4.15 26.93z" fill="#fff9c1"/><path d="M17.54 30.76C11.92 25.14 2.65 13.9 1.07 15.36c-.54.42-.59 1.05 0 2.36 3.24 7.17 10.85 17.81 17.4 26-4.95-9.57-.93-12.96-.93-12.96zM132.9 107.57c.35-2.71-.12-4.84-1.18-8.63-.64-2.24-3.5-10.11-4.93-17.65a77.61 77.61 0 0 1-1.18-13.09c-1.07 10.53-8.91 6.15-10.33-2.48a70 70 0 0 1-.94 12.18c-.71 3.43-.83 5.32.94 9.69s2.58 9.1 1.75 17c5.41-7.54 14.97-5.76 15.87 2.98zM121.19 3.26c-1.1.15-1.57 2.05-1.49 3.86a206.11 206.11 0 0 1-.59 23.18c2.89-6.3 6.34-7.3 6.34-7.3-1-5.75-1.73-14.51-2.29-17-.64-2.79-1.38-2.78-1.97-2.74zM82.89 110.06c-9.23-5.32-18.21-12.89-27.2-23.1 1.2 5.44-5.85 7.35-11.95 5.27.76 1.19 1.44 2.19 2 2.93 5 6.31 18.76 17 23.18 21.44a47.27 47.27 0 0 1 5.23 7.68c-.21-7.36 3.76-14.96 8.74-14.22zM169.9 38.06c-.39-6.78-.55-18.33-3.39-18-1.26.16-1.81 1.46-1.81 4.06s-.35 8.4-.94 13.36c-.16 1.32-.76 4-1.61 7.49 2.2-5.14 4.32-6.56 7.75-6.91zM141.53 101.66a11.18 11.18 0 0 0-2 6.62 3.41 3.41 0 0 1-.05.55c6.07-6 13.91-1.79 13.72 6a25.39 25.39 0 0 1 5.6-12.06c2.26-3 2.68-5.6 2.84-10.37-2.51 3.43-7-1.39-10-8a18.91 18.91 0 0 1-2 4.36c-1.64 2.38-4.33 6.64-8.11 12.9zM126.28 150.85c-2.72 2.36-10 2.48-11.71 1.06-1.65 3.19-6.38 4.49-9.1 4-2.66 1.75-6.58 2.89-10.81 3.59a33.54 33.54 0 0 1 2.1 9.94 11.77 11.77 0 0 0 9.45-1.1c.61-.39 1-.14 1.51.2a6 6 0 0 0 8-1c1.16-1.44 2.28-2.45 5.43-4.42a32 32 0 0 1 10.09-8 32 32 0 0 1 3.31-5.91c-3.94 1.49-7.31 2.12-8.27 1.64zM67.34 18.19c-3.9-5-10.05-13.3-11.72-12.25-.56.55-.87 1.34-.08 3.15A230.38 230.38 0 0 0 65.9 29.83c-1.81-7.5-.25-10.72 1.44-11.64zM91.32 74.12c-.13 6.25-9.95 4-14.79-2.62.94 6.16 2.85 11.36 7.62 18.62a71.86 71.86 0 0 1 9.3 22.55 37.41 37.41 0 0 1 3.62-8c1.88-3.2 6.15-5.28 10.05-1.5-3.7-8.01-11.94-18.02-15.8-29.05zM125.21 185.19c-2.54-.33-4.61-.38-6.38.36 1.57-2.28 3.18-4.52 4.78-6.62a14.08 14.08 0 0 0 1.6 6.26zM341.14 106.79c-.2-.91-3.47-1.93-26.17 2 1.42 2.72.24 6.14-4.32 9.59 10.18-3.87 19.81-6.71 24.8-7.59 5.45-.99 5.89-2.23 5.69-4zM233.43 133.07c-3.74 1.73-11.32 4.93-13.75 5.36a18.07 18.07 0 0 1-5.87-.08c-2.05 6.15-10.36 9.26-16.67 8.63a32.47 32.47 0 0 0-21 4.22c-4.82 2.66-15.13 4.89-23.25 7.41a64.2 64.2 0 0 0-14.43 6.46c3.58.36 9 0 11.24-.73s4-1.19 4.61-.37a175.5 175.5 0 0 1 17.34-5.52 51.71 51.71 0 0 0 11.19-4.73c3.46-1.9 6.73-3.21 11.11-2.68a119.41 119.41 0 0 1 16.87 3.39c4.51 1.29 7.88 1.26 13.16-1.34 5.45-2.68 17-7.81 22.39-10.09-13.17 2.27-18.09-4.34-12.94-9.93z" fill="#d4cea2"/><path d="M138.45 165.07a60.66 60.66 0 0 0-6 4.18 57.25 57.25 0 0 0-8.85 9.68 14.53 14.53 0 0 0 1.6 6.26c1 .12 2 .29 3.19.48 1.66-2 3.67-5 5.92-8.28 1.79-2.65 4.73-4.08 7.27-4.91a17.55 17.55 0 0 0 6.32-3.54c2-1.66 6.15-4.14 6.39-5-.57-.72-2.38-.49-4 .24-3.12 1.43-8.66 1.35-11.84.89z" fill="#0d5695"/><path d="M323.76 80.5c-.93-2.48-18.21 4.31-22 5.62 0 0-4.52 5.46-11.17 12.66 13.23-4.68 25.45-11.1 30.58-15.25 2.43-1.94 2.98-2.32 2.59-3.03zM229.25 120c-1.5 1.11-8.73 4.67-10.74 5a44.59 44.59 0 0 1-8.33.27c1.74 6-4.73 9.7-14.82 10-6.3.2-16.94.85-22.32 2.86 11.7-.24 33 .2 42.42.45a18.19 18.19 0 0 0 7.8-1.18c3.63-1.51 16.93-6.77 22.18-8.77-17.9 2.84-20.5-2.75-16.19-8.63z" fill="#d4cea2"/><path d="M246.6 110.37c-5.28 2.84-22.34 8.57-24.36 6.55-.75-.76-.55-3.39 2.68-6.47-2 1.42-5.2 2.92-7.09 4.26s-3.94 1.5-7.25 1.65c-2 4-9 7.18-18.18 8.72 7.17.07 17.86.13 21.9.2s5.61-.65 8.61-2.09 18.49-9.84 23.69-12.82z" fill="#d4cea2"/><path d="M212 116.09a10 10 0 0 0 5.81-1.38c2.08-1.31 16.51-9.16 20.33-11.59-11.66 5.36-21.54 5.61-16 .7-3.27 2.15-9 3.7-14.16 4.82.89 4.31-6.7 6.54-15.9 8.56a169.91 169.91 0 0 1 19.92-1.11zM309.53 67.67c-.69-2-13.42 2.78-19 6.56 0 0-2.48 8.58-14.27 20.3a173.49 173.49 0 0 0 13.64-11 95.64 95.64 0 0 1 16.16-12c1.54-.88 3.94-2.32 3.47-3.86zM294.52 65.84c-1.07-1.89-15.27 3-21.34 5.38-.71 3.6-3 7.21-6.51 11.35a34.19 34.19 0 0 1 5.94-3.72c8.82-3.47 22.93-11.59 21.91-13.01z" fill="#d4cea2"/><path d="M147.73 169c-.57 2.6-1.26 5.19-3 6.13-3.65 1.93-8.15 4.53-9.38 6.2a37.79 37.79 0 0 0-3 4.8l-3.93-.41c2.33-3.19 3.77-5.33 5.43-7.59s2.3-3.83 6.3-5.07a20.7 20.7 0 0 0 7.58-4.06zM96.76 169.46a26 26 0 0 1-4.71-2c0-3.15 0-4.58-.72-6.48s-1.13-5.23.12-7.55c2.08 1.43 5.27 10.41 5.31 16.03zM99.11 173.39a61.27 61.27 0 0 0-1.64 8.39c-.18 1.34-2.45 1.14-2-.74 1.11-4.04 2.12-7.04 3.64-7.65zM87 170.51c-.2 3.77.78 7.88.29 10a31.68 31.68 0 0 1-2.94 2.61 8.39 8.39 0 0 0 1.15-4.31c-.12-5 .65-8.12 1.5-8.3z" fill="#0d5695"/><path d="M71.93 192.29c1 4.65 2.23 8.5 3.51 8.33 12.83-1.65 19.92-1.12 25.83.42 2.68.69 6.17 1.32 8.49-.28s5.21-3.93 6.86-5.18c2.29-1.74 3.94-2.92 7.17-2.45 6.74 1 13.19 1.23 14.68.48 2.91-1.45 16.11-19.65 20.11-25.66-.93 4.31-11.45 21-17.4 28.18-1.32 1.58-2.24 1.77-4.36 1.72a145.42 145.42 0 0 1-14.74-1.19 4.3 4.3 0 0 0-3.9 1 57 57 0 0 1-9.34 7.09 6 6 0 0 1-5.5.53A48.52 48.52 0 0 0 83 204c-3.25.41-6.61.85-7.68.06-2.25-1.67-5.54-10.18-3.39-11.77zM80.76 148.05c-.87 9.14-2.76 28-2.13 29.22s3.49 2.37 6.62 3a10.33 10.33 0 0 1-1.42 3.07l-1.71 1.3a29.08 29.08 0 0 0-4.67-2.25c-1.42-.53-2.61-2.6-2.37-4.84a202.64 202.64 0 0 1 5.68-29.5z" fill="#0d5695"/><path d="M90.24 228.52c1.88 7.53 10.82 7.79 21.9-1.63 2.91-9.76 4.59-16.6 8-20 2.6-2.6 4.41-6.18 5.87-9.8-1.81-.18-4-.44-5.12-.44a4.83 4.83 0 0 0-3.27 1.36 75.36 75.36 0 0 1-7.9 6.23 6.75 6.75 0 0 1-6.63 1 46.7 46.7 0 0 0-10.24-1.68c.39 1.85.79 3.75 1 5.61a81.69 81.69 0 0 1-3.61 19.35zM93.7 331.15c1.26-5 4.35-7.41 7.57-7.81a104.63 104.63 0 0 1 11.88-.07c4 .21 6-1.21 8.59-5.44 17.45-28.85 34.13-51.63 31.73-52.42-8.28 12.89-30.5 44.93-40 48.36-3.93 1.42-9.46 1.18-14.5-.3-3.7-1.09-7.49-.41-11.45 2.6 1.57 4.79 3.48 10.47 6.18 15.08zM26.73 266.18c2.89 10.11 9.57 28.67 13 35.09 3.21 6.07 11.12 8.36 21 10.89 3.83 1 7.79 2 10.81 4.56.35 5.38 2.89 13.9 1.42 17-5.56-5.91-4.88-12.82-23.65-20.46-7.78-3.16-12.12-7-14-12.47-5.63-16.17-10.65-34.55-8.58-34.61z" fill="#0d5695"/><path d="M87.5 315.72a16.36 16.36 0 0 1-3.79 2c2.1 2.6 4.58 5.93 7.14 7.7a73.59 73.59 0 0 1-3.35-9.7zM74.14 318a5.11 5.11 0 0 1-2.49-1.24 52.62 52.62 0 0 0 1.82 11.69c.23-3.84.53-8.17.67-10.45z" fill="#d4cea2"/><path d="M34.67 339.36q6.69 4.81 12.87 10.29c3.1 2.88 9.29 8 13.62 9.84 1.59.68 2.6.36 3.18-.91a167.53 167.53 0 0 1 10.59-20.05 62.56 62.56 0 0 0 24.9 6.69c-1.66-5.36-3.49-14.41-3.16-19.82a32.07 32.07 0 0 0-3 5.75 30.58 30.58 0 0 1-3-6 30.16 30.16 0 0 1-7.24-7.41c-3.54 2.11-6.23 1.83-9.34.29-.65 5.68-.28 14.07-1.24 15.73-3.33-3.47-5.64-10-12.65-14.54a79.82 79.82 0 0 0-4.33 14.16c-6.45-4.12-10.29-6.25-15.14-8.83-2-1.05-3-.69-3.31 1.2a14.2 14.2 0 0 1-3.3 7.54c-5 5.57-3.33 11.74-2.42 16.3 5.85 29.21 17.47 55.83 28.47 77.71.75-4 1-11.53-.44-14.37a21.15 21.15 0 0 0-5.68-6.52 12.54 12.54 0 0 1-3.45-5.1c-8.2-17.74-14.08-37.42-14.35-46.51-.1-5.37-2.19-13.3-1.58-15.44zM37.36 419c3.86 2.68 11.17 3.39 15.16 2.08 2.49 4.88 4.06 11.21 2.79 12.6-1.9 2.1-18.67-8.06-17.95-14.68z" fill="#373d41"/><path d="M134.51 316.33a21 21 0 0 1-3.51 12.45c-7.18 11.91-9.78 17.5-14 31.22-.88 2.88-2.11 4.21-5.76 5a134.35 134.35 0 0 0-26.32 8.59c1.59 2.21 2.13 3.25 2.06 4.4-.09 1.75-1.39 3.26-5.13 6.84a7.62 7.62 0 0 0-2.37 4c-4.57 23.18-6 42.33-2.76 59.67.79-21.91 3.7-56.2 9-62.82s17-12.77 29.88-15.13c3-.55 5.06-2.21 5.51-5.28 2-13.32 6.14-23.38 11.59-35.08 2.68-5.74 3.23-7.48 1.81-13.86zM78 459.23a26 26 0 0 0 5.75 8.2c3.23 3.31 2.84 6.38 1.34 19.23-2.91-7.09-6.38-17.5-7.09-27.43zM65.15 475.31c4.1 3.07 8.83 2.52 12.46 1.18 1.65 6.39 3.42 14.64 2.2 15.45-1.65 1.06-14.26-10.56-14.66-16.63zM139.66 343.88c4.88 7.33 12 19.09 15.77 26.1 5.5 10.26 12.39 12.6 27.22 13.39a109 109 0 0 1-18.42-27.69c-6.61-5.54-15.18-9.11-24.57-11.8zM203.35 391.92c4.85 23.05 9.8 41.57 16.29 60.3a14.83 14.83 0 0 1 .94 5.43c0 2 .08 6.31.79 7.65s9.09 6.24 13.8 8.12c2.53 1 2.84-.23 1.89-2.21-2.45-5-6.52-12.27-9.54-17.73a41.46 41.46 0 0 1-3.78-8.6 420 420 0 0 1-12.14-49.57c-.4-2.37.65-2.87 1.42-.08 3.47 12.53 8.21 33.23 12.84 45.95 3.79 10.38 10.17 21.84 13.88 29.54.24-5.3-.05-11.48-.79-14.21-.83-3.07-1.77-4-3.7-5.2a10.39 10.39 0 0 1-4.65-6.15c-6.23-21.32-10.73-36.06-13.8-52.22-4.72-.31-8.13-.53-13.45-1.02z" fill="#373d41"/><path d="M211.7 396.47c-.41-2.86.61-4.2 1.59-.41 3.08 11.88 10.09 39 13.21 46.62 8.83 21.52 18 34.53 15.76 36.65-1.83 1.73-9.1-3.65-13.32-8.83 3.68 1.87 7.68 3.81 8.47 3.06 1.15-1.09-5.12-11.08-10.2-20.79a62.45 62.45 0 0 1-4.21-10.88c-4.86-16-10.1-37.09-11.3-45.42z" fill="#d4cea2"/><path d="M285.8 461.7a6.21 6.21 0 0 1-2.34 2.43 60.11 60.11 0 0 1 3.94 9.58c0-3.71-.64-9.3-1.6-12.01zM233.43 401.45c-4.85-7.91-5.83-8.49-9.61-8.47a197.06 197.06 0 0 1-25-1.42c-8.5-1.07-13.58-4.4-19.68-11.94-9.38-11.58-18-29.82-20.66-36.81-1-2.68-1.88-4.25-1.57-6 .73-4 22.18 3.7 34 29.64 4.83 10.56 8.17 15.2 16.59 17.5a68.1 68.1 0 0 0 12.07 1.5c7.29.43 10.15 3.39 13.56 8.7 10.76 16.79 31.45 56.43 36.41 67.28 1.7 3.7.78 4.9 3.17 6.62a7.33 7.33 0 0 0 8.14-.24c2.53 6.07 5 13.4 3.23 14.27s-9.1-3.75-15.52-10.17a6.61 6.61 0 0 1-1.42-5.68 9.53 9.53 0 0 0-.95-5.75c-7.69-16.94-23.38-44.84-32.76-59.03zM199.83 321.19c2.29-.06 3.59-.67 6-2.16 5.18-3.26 8.07-3.09 14.33-.85 19.22 6.9 40 24.24 69.91 16.8-7.11 11.66-19.23 14.85-28.39 11.24 3 4.14 5.91 5.09 11.59 6.68-8.91 4.77-18.74 4-30.92-3.43.08 2.56 3.61 7.16 7.15 10.11-10.22-2.24-21.69-11.43-28.31-19.15-6.45-7.51-11.65-9.7-15.31-8.4-2.04-4.78-4.13-9.03-6.05-10.84z" fill="#373d41"/><path d="M55.35 434.52c2.07.07 5.37-2 5.14-6.82 2.14 5.33 3.82 9.89 2.47 11-3.15 2.65-8-.36-14.77-7.22 2.65 1.52 5.34 2.97 7.16 3.04zM79.73 492.57c2 .14 4.87-1.63 4.89-6.7 1.46 5.6 2.35 11.57.51 12.57S77 497 72.6 487c2.48 2.87 5.99 5.49 7.13 5.57zM284.26 482.68c1.58-.05 3.69-2.39 3.88-6.61 1.63 6.13 2.73 11.69.77 12.31s-6.9-2.87-10.45-8.48c1.97 1.54 4.36 2.83 5.8 2.78zM11.87 324.05a6.69 6.69 0 0 0 6.7.87 148.67 148.67 0 0 0 .31 17.66c-1.65-7.18-7.88-15.77-7.01-18.53zM20.46 323.66c1.89 1.58 9 2.52 12.77-.16-.08 2.05-1.26 3-2.44 5.6s-1.67 4.81-.95 8.91c1.36 7.73-4.23 8.26-5.83.06-.87-4.46-1.88-10.86-3.55-14.41zM65.77 376.6c1.3 3.14 2.37 4.62 3.85 5.81-.59.89-1.07 2.43-1.36 5.45a21.71 21.71 0 0 1-2.49-11.26zM70.51 382.82c4.69.18 13.11-2.84 15.78-6.22 1.78 1.6-.71 4.89-4.42 8.27-1.34 1.22-2.29 2.65-3 6.81-1.71 10-6.51 9.49-6.51.24a22.25 22.25 0 0 0-1.85-9.1z" fill="#d4cea2"/><path d="M30.2 265.92c.43 3.39 1.18 7.1 1.77 10l-2.52-5.73c-.08-2.19-.04-4.19.75-4.27zM144.84 263.68a86.91 86.91 0 0 1-3.55 11.47l2.05-2c1.66-4.27 2.72-9.35 1.5-9.47z" fill="#0d5695"/><path d="M78.63 193.94c-2.25 3-4.37 3.13-6.44-.41 1.18 3.84 2.3 6.38 3.19 6.44s2.36-3.07 3.25-6.03z" fill="#d4cea2"/><path d="M133.13 329.26c2.25.35 20.46 4.49 24.48 6.5a8.64 8.64 0 0 0-.06 3.72c.35 1 5.32 13.89 6 15.2-9.28-6.51-24.06-11.24-26.54-11.3a82.63 82.63 0 0 0-10.64 1.17s1.95-5.48 3.19-8z" fill="#373d41"/><path d="M58.3 107.38a32.9 32.9 0 0 0 3.94 8c1.34 1.57 7.25 4.8 9.77 6.07a29.54 29.54 0 0 0-4.1-5.76c-1.34-1.38-9.61-8.31-9.61-8.31z" fill="#fdce99"/><path d="M85.49 92.8c0 1.41.23 6.38 1.3 8.63a24.16 24.16 0 0 0 5.32 6.5c-.47-2.84-2.37-7.09-3.19-9.1a56 56 0 0 0-3.43-6.03z" fill="#f48a6d"/><path d="M114.45 85.94a26.71 26.71 0 0 0-.23 6.86 24.51 24.51 0 0 0 3.19 7.21 20.84 20.84 0 0 0-.83-7.57c-.58-2.13-2.13-6.5-2.13-6.5z" fill="#a49fce"/><path d="M185.16 153a51.48 51.48 0 0 0 13.71 4.26c3.55.36 9.34-1.38 12.18-2.64-3.31-1-16-3.39-18.45-3.39s-7.44 1.77-7.44 1.77z" fill="#fdce99"/><path d="M155.12 134.65c-.7-.12-4 4.14-4.25 5l6.26.24s-1.3-5.12-2.01-5.24zM173.21 131.34c-.07-.37-4.37-.36-4.73.12s-1.53 3.31-.94 3.43 5.79-2.96 5.67-3.55z" fill="#fad2d6"/><path d="M162.1 127c-.35.06-3.43 4-3 4.14a32.69 32.69 0 0 0 4.5-.83s-.79-3.46-1.5-3.31zM178.3 123.06c-.42-.42-4.26.36-4.38.83s0 2.25.59 2.36 4.14-2.83 3.79-3.19z" fill="#d5b9d9"/><path d="M176.41 118.69a10.78 10.78 0 0 0-3.55 3.43l4.37-.83c0-.83-.47-2.72-.82-2.6zM182.67 117.15c0-.28-2-.08-2 .24s-.39 1.42 0 1.42 2.08-1.26 2-1.66z" fill="#a1b7de"/><path d="M231.83 149.34c-9.79 9.25-20.77 14.09-28.14 15.22s-18.95-3.07-27.58-7.3l1.92-1c6.1 2.82 18.21 7.74 25.57 6.62 6.35-1 16.43-5.45 23.94-11.62zM52.62 102c1.84 6.44 4.32 14.06 8 17.38a64.6 64.6 0 0 0 16.63 10.13l1.1 2.44c-8.49-4-15-8-18.83-11.47-4.22-3.84-6.54-11.86-8.83-20.33z" fill="#ba8c58"/><path d="M82.18 87.24c-.1 10.24 2.68 18.63 6.78 22.19a28.17 28.17 0 0 1 5 5l.67 3.43a31.77 31.77 0 0 0-6.78-7.25c-4.67-4-7.64-13-6.93-25.62z" fill="#b2422d"/><path d="M114.34 76.18c-3.28 6.76-4.29 17-.06 24.3a24.68 24.68 0 0 1 2.48 6.92l-.65 4.43a37.44 37.44 0 0 0-3.43-10.46c-4.85-9.11-3.1-20 1.95-28.73z" fill="#676290"/><path d="M154.18 74.94c-4.88 6.78-7.35 13.11-8.16 19.57l-1.83 2.54c.53-9.22 3.31-16.43 10.7-25.12z" fill="#0090a9"/><path d="M102.82 185.57c-.09.11.59 1 1.08 1.29s1.34.69 1.47.54-.69-1-1-1.24a3.1 3.1 0 0 0-1.55-.59z" fill="#061922"/><path d="M105.48 184.85c-.11-.09-1.28.93-1.62 1.36a7.18 7.18 0 0 0-1.06 1.94c.1.12 1.39-1 1.69-1.36a6.47 6.47 0 0 0 .99-1.94zM279.46 455.33c3.59 2.56 6.3 5.14 7 6.38 1 1.79 1.81 7.65 1.61 13.13l-1.37-3.72c-.34-4.83-1.13-7.95-1.59-8.85a22.74 22.74 0 0 0-4.33-4.38z" fill="#061922"/><path d="M106 186c-.5-.05-1-.56-1-1.6a1.31 1.31 0 0 1 1.15-1.43c.81 0 1.27.75 1.21 1.69a1.3 1.3 0 0 1-1.26 1.34zm.14-2.5c-.28 0-.64.32-.64.9s.28 1 .55 1.06a.83.83 0 0 0 .73-.83c0-.56-.27-1.09-.69-1.11z" fill="none"/><path d="M101.6 190.19a4.73 4.73 0 0 1 1.92-7.33c2.64-1.15 5.49-.09 5.41 2.63l-1.1 1c.71-2.39-1.21-4.11-4-2.82a3.92 3.92 0 0 0-1.78 5.25 3.76 3.76 0 0 0 .62.91z" fill="#061922"/><path d="M93.82 191.72c1.75-1.59 2.4-3.16 3.49-5.32 2-3.88 5.13-5.18 15-4.61l-1 1.32c-9.44-.64-11.55 1-13 4a25.41 25.41 0 0 1-2.27 4.08zM82.69 184a10.22 10.22 0 0 1 1.52-2.79 4.8 4.8 0 0 0 .53-2.88c0-3 .58-8.21 1.76-8.43 1-.17 2.15 1.32 3.13 3.1.72 1.28-.06 1.91-.78.63s-1.62-2.28-1.88-2.23-.88 2.82-.82 6.84a5.81 5.81 0 0 1-.73 3.58 8.69 8.69 0 0 0-.88 1.35z" fill="#061922"/><path d="M85.46 175.82c-3-.88-3.54-2-3.49-4 .21-8.12.18-23.69-.43-23.73-.77-.06-5 21.27-5.69 29.3-.26 3 .7 3.83 2.25 4.44a40 40 0 0 1 4.8 2.2l-1.54 1.08a24.37 24.37 0 0 0-4-1.89c-2.4-.94-3.4-2.55-3.11-5.94.72-8.29 5-31.69 7.56-31.26 1.68.29 1.81 16.81 1.58 25.74 0 1.54.56 2.16 2.13 2.63zM72.37 191.05c.2 3.41 2.35 8.11 3 8.14s2-2.66 2.76-5.22a.48.48 0 0 1 .26-.31c7.38-3.86 11.45-6.69 12.87-9.07a11.6 11.6 0 0 1 5.08-5.15l-.34 1.81a9.52 9.52 0 0 0-3.7 3.9c-1.56 2.56-5.45 5.62-13 9.58-.8 2.73-2.55 6.31-3.92 6.31s-3.37-4.34-4-7.95z" fill="#061922"/><path d="M95.49 180.44c1.27-5.31 2.37-7.94 3.41-8 1.21-.07 2.44 3.14 3.85 4.88 1.24 1.53.44 2.2-.83.68-1.55-1.87-2.51-3.95-2.89-3.94s-1.06 1.28-2.5 6.64c-.53 2.02-1.53 1.8-1.04-.26z" fill="#061922"/><path d="M88.65 172.42a28.08 28.08 0 0 1 2.19-3 2.58 2.58 0 0 0 .56-1.89 30.4 30.4 0 0 0-1-7.1 12.1 12.1 0 0 1 .24-7c.47-1.43.78-1.52 1.65-.21 2.43 3.64 4.41 9.87 5.06 15 .2 1.61 0 2.18-1.12 3-4.23 3-6.36 5.72-7.48 8.07a10.68 10.68 0 0 1-3.4 4c-1.49 1.08-3.12 2.28-4.67 3.58a37.89 37.89 0 0 1-7.06 4.13 2.93 2.93 0 0 0-1.85 2.57c-.14 2 1.22 6.6 3.15 9.23.85 1.16 2.47 1.29 8.06.55a50.49 50.49 0 0 1 20.61 1.3c2.91.82 4.31 0 6.13-1.28a96.56 96.56 0 0 0 8.44-6.5 3.67 3.67 0 0 1 3.11-.85 156.44 156.44 0 0 0 16.48 1 2.81 2.81 0 0 0 2.79-1.26c7.17-9.46 18-26.45 17.24-26.84s-11.07 9.46-19.06 16.19a6.78 6.78 0 0 1-5.44 1.92 67.27 67.27 0 0 1-8.24-1.18c-5.72-1.06-11.26 1.91-14.64 7.95-.66 1.2-1 1.59-2.57 1.45a155.78 155.78 0 0 0-17.14-1c-3.29 0-3.24-.6-.92-1.78a22.87 22.87 0 0 1 8.49-2.33c5-.39 7.69-2.55 10.68-5.44 8.27-8 8.74-12.47 15.06-21.81a18.14 18.14 0 0 0-6.44 3.78 35 35 0 0 0-6.21 7.51 5.37 5.37 0 0 1-2.54 1.89c-1.46.58-4.33 1.73-5.94 2.31l-.81-1.12c1.75-.62 4.74-1.73 6.28-2.34a3.88 3.88 0 0 0 1.92-1.39 38.53 38.53 0 0 1 6.44-7.9c2.78-2.47 4.65-3.16 7.8-4.34 1.9-.69 2.46-.39 1.13 1.57-7.3 10.64-7.17 14.65-15.85 23-3.16 3-6.07 5.14-11.46 5.56a19.64 19.64 0 0 0-7.1 1.77c6.83.07 11 .1 16.7.59a1.09 1.09 0 0 0 1.24-.68c3.56-6.35 10-9.7 16-8.57a68 68 0 0 0 8.16 1.07c2 0 2.68-.44 4.29-1.72 8.24-6.56 19.83-17.39 21.25-16.58 2.16 1.24-9.76 19.6-17 29.49-1.06 1.44-1.89 1.76-4.06 1.73a158 158 0 0 1-16.69-1.21 2.25 2.25 0 0 0-2.11.57 102.76 102.76 0 0 1-8.46 6.84c-2.49 1.71-4.31 2.31-7.35 1.45a48.59 48.59 0 0 0-20-1.34c-5.87.78-8.08.64-9.48-1.26-1.92-2.62-3.68-7.9-3.51-10.29a4.31 4.31 0 0 1 2.52-3.8c2.94-1.5 5.48-2.6 7.15-4s3.13-2.48 4.67-3.57a8.48 8.48 0 0 0 2.93-3.22c1.2-2.54 4-5.65 7.92-8.63a1.49 1.49 0 0 0 .68-1.77c-.6-4.47-2.25-10.73-4.41-13.87a10.29 10.29 0 0 0 0 5.56 32.35 32.35 0 0 1 1 7.71 3.25 3.25 0 0 1-.74 2.49 28.5 28.5 0 0 0-2.45 3.43z" fill="#061922"/><path d="M72.55 190.93a11.7 11.7 0 0 0 2.75 1.62c2.09.87 1.66 1.47-.27.79a11.84 11.84 0 0 1-3.18-1.59zM166.23 141.29c2.1-1.15 5.08-2.85 6.17-3.39a12.78 12.78 0 0 1 5.47-.92c7 0 28.2.31 39.8.57a12.9 12.9 0 0 0 6-1.39c9.39-4 29.73-11.47 40.32-14.52 11-3.17 27.58-7.61 43.77-12 6.18-1.68 25.9-4 28.49-4.28 7.14-.63 7.95 4 0 5.92-11.07 2.67-36.91 11.81-47.94 18.08a72.59 72.59 0 0 1-15.52 5.94c-14.4 3.6-33.1 10.89-50 19.28a16.4 16.4 0 0 1-12 .83c-3.5-1-9.52-2.12-15-3.07a15.82 15.82 0 0 0-7.61.39 42.73 42.73 0 0 0-7.33 3.23 40.92 40.92 0 0 1-10.44 3.78c-3.56.84-11.18 3.41-16 5.23l-.65-1.76c4.94-1.85 12.53-4.45 16.22-5.32a40.41 40.41 0 0 0 10.17-3.66 44.3 44.3 0 0 1 7.65-3.31 17.83 17.83 0 0 1 8.31-.28c5.52 1 11.7 2.1 15.25 3.11a13.51 13.51 0 0 0 10.64-.85c17-8.43 36-15.49 50.47-19.11a71.18 71.18 0 0 0 15.25-5.85c11.35-6.45 37.22-15.36 48.33-17.9 6.36-1.45 6-4.24.5-3.56-2.77.34-22.34 2.83-28.44 4.49-16.18 4.42-32.61 8.86-43.65 12-10.55 3-30.83 11.05-40.2 15a15 15 0 0 1-6.68 1.51c-11.59-.3-32.77-.82-39.79-.82a10.73 10.73 0 0 0-4.75.8c-.92.45-2.61 1.38-4.49 2.39z" fill="#061922"/><path d="M127.38 185.68c2.44-3 4.1-5.59 6.27-8.82 1.56-2.34 3.3-3.45 7.84-5.13a17.48 17.48 0 0 0 5.28-2.91c2.74-2.26 6.79-4.19 6.58-4.57-.08-.16-.92 0-3 .71-6.2 2-15.78.15-18.41 1.1-2.81 1-6.25 8.27-7.09 11.55a8.17 8.17 0 0 0 1.77 7.8l-2.28-.2a10.08 10.08 0 0 1-1.11-8c.81-3.16 4.9-11.41 8.28-12.69 2.61-1 12.29.95 18.52-.94 3.31-1 4.8-.73 5.12 0 .65 1.44-4.66 4-7.44 6.42a18.2 18.2 0 0 1-5.68 3.15c-4.08 1.51-5.48 2.38-7.09 4.69-2 2.88-4 5.77-5.84 8z" fill="#061922"/><path d="M131.27 186.12c.8-1.33 1.54-2.55 2.18-3.59 1.67-2.7 4-4.59 10.72-7.88 1.84-.9 4.1-3.23 5.91-7.25l2.25-1.26c-1.69 4.48-4.84 8.54-7.57 9.89-6.2 3.05-8.44 4.85-10 7.33-.56.9-1.18 1.94-1.85 3.06zM126.82 197.29c-.92 1.77-1.74 3.44-2.35 4.88a14.83 14.83 0 0 1-3 4.39c-2 2.13-3.19 3.25-4.35 6.53-8.19 23.26-12.39 54.8 0 73.26L114.5 285c-11.25-19-7.57-48.79 1.08-72.39a18.36 18.36 0 0 1 4.61-7.18 12 12 0 0 0 2.7-3.91c.56-1.3 1.28-2.79 2.09-4.36zM124.11 197c-1.22 1.54-1.77 2.25-2.8 3.6-1.31 1.72-2.08 1.28-.86-.65.82-1.29 1.33-2.12 2.16-3.3zM120.09 196.76a14.81 14.81 0 0 1-4.69 7.45c-1.79 1.51-4.79 3.7-8.67 6.66a8.24 8.24 0 0 0-2.92 3.87c-1.1 2.87-1.94 2.65-1-.34a8.74 8.74 0 0 1 3.07-4.64c3.75-3 6.54-5.07 8.55-6.77a11 11 0 0 0 3.63-5.17zM100.89 223.34C99 228.48 97 234.11 95 240.11c-1.29 3.85-2.17 3.65-1-.31a137 137 0 0 1 5.88-16.8c1.36-3.14 2.2-2.85 1.01.34zM93.63 203.53c1.56 8.29 2.31 13.4 1.26 17.57-.8 3.15-1.67 3-1-.25.83-4.3-.1-9-1.91-17.28z" fill="#061922"/><path d="M29 269.55c-.23-3 0-4.68.83-4.88 2-.47 6.4 13.18 11.79 18.86 2.38 2.51 3.63 2.87 6.65 2.75a72.41 72.41 0 0 0 17.53-3.52c1.1-.35 1.36-.65 2.1-2.22 2.75-5.82 6.8-13.83 11.12-22.81 3.42-7.1 8.38-22.46 10.39-29.53 2.58-9.07 3.69-14 3.54-22.09l1.35 5.71c-.19 5-1.26 10.11-3.17 16.85-2 7.11-7 22.77-10.53 29.89-4.38 8.91-8.47 17-11.19 22.81a4.75 4.75 0 0 1-3 2.87 76.53 76.53 0 0 1-18 3.34 8.62 8.62 0 0 1-7.68-3.16c-4.81-5.18-9.79-17.89-10.41-17.77-.29.06-.35 2 0 6z" fill="#061922"/><path d="M71.74 333.45c-1.5-1.92-2.07-2.64-4.55-6.32-2.76-4.13-7.39-8.92-20.19-13.95-6-2.39-10.13-5.85-12.16-11.24-4.58-12.17-11.34-35.82-8.65-36.68 1.4-.44 3.14 2.87 5.5 9.48 1 2.65-.07 3-1 .37-2-5.56-3.61-8.19-3.85-8.1-1 .38 4.68 21.94 9.41 34.36 2 5.14 5.67 8.2 11.37 10.45 13.15 5.18 17.89 10.44 20.58 14.42 2.1 3.12 3.2 4.81 4.43 6.27.41-1.64.2-3.29-.44-6.18-5-22.3 3.45-49.73 12.56-62.9 1.66-2.41 2.32-1.94 1.89.68-4.31 26.37-2.18 47.86 6.88 65.69 1.92-5.1 4.59-7 7.59-7.11 4.36-.2 8-.23 12.59-.06 3.38.13 4.79-.93 8-6.05 10.84-17.39 19.49-30.85 25.46-39.91 4.78-7.26 6.13-10.48 5.78-10.73-.56-.42-5 2.62-10.2 8.73-1.6 1.88-2.38 1.2-.81-.71 5.49-6.66 10.34-10.46 12.11-9.27 1.42 1-1.36 6.08-5.76 12.75-6 9.05-14.43 22.42-25.26 39.8-3.36 5.4-5.63 7-9.39 6.78a117.88 117.88 0 0 0-12.47 0c-3 .13-5 2.46-6.52 6.65-.76 2-1.16 2-2.12.09-9.69-19.05-11.65-40.55-7.31-65.64C77 277.49 68.68 305.82 73.37 326c.85 3.65.77 5.18.35 6.89s-.81 2.05-1.98.56z" fill="#061922"/><path d="M124.44 289.18a3.58 3.58 0 0 1-3.63 1.53A43.75 43.75 0 0 1 109 287c-1.9-.85-1.52-1.75.41-1a48 48 0 0 0 11.51 3.29 2.1 2.1 0 0 0 2.36-1c10.62-13.52 19.85-26 21.82-25.61 1.66.37 1 4.54-1.13 9.9l-1.7 1.76c2.21-6.59 2.73-9.48 2.24-9.61s-9.68 10.77-20.07 24.45z" fill="#061922"/><path d="M119.89 290c-2.45-2.63-5.2-4.84-6.44-4.81-.61 0-1.39.8-2 2.24l-1.39-.65c.76-1.22 2-3 3.43-3 1.72 0 5.26 3.07 8.48 6.29zM104.15 271.89a59.58 59.58 0 0 0 2.49 12.25c.67 2-.23 2.24-1 .37a36.74 36.74 0 0 1-2.56-12.51c-.08-2.06.82-2.18 1.07-.11zM85.3 113.78a8.56 8.56 0 0 0-3.32-3c-7.55-4-17.26-12.34-26.52-22.9C46.56 77.76 39.38 66.43 32 51c-3.14-6.57-4.45-8.3-7.81-12S6.69 20.25 3.79 17.07c-1.82-2-3-1.2-2.1.58A157.68 157.68 0 0 0 18.81 42.9a24.19 24.19 0 0 1 4.61 7.27 338.67 338.67 0 0 0 21.36 41.88 28.4 28.4 0 0 0 4.61 5.75c6.54 6.35 11.4 10.55 17.85 16.24a32.74 32.74 0 0 1 6.5 8c5.54 9 13.17 22.88 17.16 33.79l-.32 3.38c-3.9-11.2-12.36-26.44-18.28-36a31.11 31.11 0 0 0-6-7.74c-6.62-5.9-11.55-9.9-18.13-16.32A30 30 0 0 1 43.32 93a336.46 336.46 0 0 1-21.26-42.24 23.05 23.05 0 0 0-4.44-7A157.61 157.61 0 0 1 .53 18.19c-1.8-3.43 1.3-5.16 4.21-2s16.94 17.87 20.39 21.67 4.91 5.79 8.1 12.49A155.87 155.87 0 0 0 56.8 86.84c8.8 10.06 18.44 18.4 25.89 22.39 2.63 1.41 4 3.33 5.5 6.5zM101 141.89c2.23 4.15 4.13 8.31 4.78 12.17.53 3.19-.36 3.36-1.06.19a41.84 41.84 0 0 0-4.1-10.1zM106.74 162.9c-.07-.66-.22-1.64-.34-2.22-.33-1.68.57-1.86 1-.21a8.25 8.25 0 0 1 .35 2.32c.09 1.82-.84 1.89-1.01.11zM114.09 163.91a10.57 10.57 0 0 1-.31-6.39c.47-1.89 1.37-1.72 1 .19a12.87 12.87 0 0 0 .26 5.82c.62 1.87-.27 2.14-.95.38zM109.91 116.74c-.78-7.47-3.16-13.51-7.87-20.71a119.81 119.81 0 0 1-9.66-17 95.52 95.52 0 0 1-5.86-17.09c-1.62-7.35-3-12.11-5.17-19.27a30.23 30.23 0 0 0-4.76-10c-3.91-5.79-11.43-16.83-18.33-24.9-1.79-2.09-3.3-1.41-2.41.55a227.33 227.33 0 0 0 11.31 22.29 45.82 45.82 0 0 1 4.18 8.12c2.37 7.27 4.87 22.5 5.6 30.18.67 7.1 3.71 14.18 7.6 20.1a71.58 71.58 0 0 1 8.16 17.2 132.22 132.22 0 0 1 3.66 16.44l-2.12-1.89a115.41 115.41 0 0 0-3.31-14.19 67 67 0 0 0-7.81-16.22A48.89 48.89 0 0 1 75.44 69c-.72-7.63-3.1-22.67-5.44-29.87a44.46 44.46 0 0 0-4.06-7.84A227 227 0 0 1 54.79 9c-1.33-2.92 1.44-5.58 4.49-2 7 8.12 14.33 19 18.26 24.85a32.21 32.21 0 0 1 5.08 10.43c2.2 7.19 3.63 11.86 5.26 19.24A99.38 99.38 0 0 0 94 78.33 115.08 115.08 0 0 0 103.54 95c5.74 8.79 8.14 16.29 8.36 26.2zM114 133.41a57.79 57.79 0 0 1 1.14 16.8c-.18 2.81-1.13 2.75-1.07-.07a59.43 59.43 0 0 0-.61-11.77zM123.93 7c.71 5.83 1.84 14.83 2.94 19.23A44.88 44.88 0 0 1 127.7 43c-2.19 18.41-1.59 33.82.88 42.45 1.85 6.46 3.29 11.07 4.48 15a17.63 17.63 0 0 1 .51 9c-.3 1.87-2.45 14.81-3 19.39a256.17 256.17 0 0 1-4.24 25.37c-.62 2.68-1.62 2.51-1-.22 1.61-7.73 2.44-15.34 3.72-25.27.59-4.6 2.58-17.64 2.87-19.51a15.49 15.49 0 0 0-.47-8.32c-1.22-4.09-2.34-8.43-4.39-15.09-2.68-8.7-2.78-24.41-.57-43a43.91 43.91 0 0 0-.79-16.39C124.53 22 123.43 13 122.71 7.15c-.56-4.6-2.41-4.23-2.34.4A254.48 254.48 0 0 1 119 39.86c-.64 5.71-1.19 10.17-1.74 12.51a34.19 34.19 0 0 0-1.06 7.73 136.23 136.23 0 0 1-1.58 20.67 8.34 8.34 0 0 0 .63 4.44 52.54 52.54 0 0 1 2.75 9.17 32.34 32.34 0 0 1 .15 9.82 211.58 211.58 0 0 1-4.22 21.59l-.91-2.68c1.44-6.28 2.65-13.43 3.35-19.24a30.54 30.54 0 0 0-.09-9.35 50.71 50.71 0 0 0-2.69-8.79 9.41 9.41 0 0 1-.68-5 148.16 148.16 0 0 0 1.92-20.6 35.91 35.91 0 0 1 1-8c.53-2.3 1.17-6.91 1.77-12.34a251 251 0 0 0 1.53-32.2c-.13-6.14 4.05-6.65 4.8-.59z" fill="#061922"/><path d="M144.29 139.69c1.85-7.8 6.47-17.78 8.08-24.63a29 29 0 0 1 1.73-6c1.46-2.81 3-5 4.85-8.23 1.38-2.45 1.56-3.9 1.93-7.69a237.94 237.94 0 0 1 4.25-24.59A185.66 185.66 0 0 0 169 44.08c.59-5.61.35-12-.81-20.35-.57-4.13-2.82-4.11-2.82-.33A87.12 87.12 0 0 1 163 44c-2.22 8.08-8.71 34-9.92 38.56a21.5 21.5 0 0 1-2.72 6.23c-2.44 3.81-5.06 8-8.87 14.66-.82 1.41-1 2.45-1.18 4.76-.5 5.22-9.54 26.82-12.22 33.21l.61-5.41c5-12.09 9.49-24.21 9.83-27.8.27-2.74.38-3.5 1.54-5.51 3.82-6.64 6.46-11.07 8.91-14.9a20.72 20.72 0 0 0 2.56-5.6c1.54-5.12 7.9-30.47 10.13-38.56a84.15 84.15 0 0 0 2.58-20.29c0-5.19 4.47-5.48 5.26.19 1.17 8.43 1.47 15 .87 20.67a188.68 188.68 0 0 1-3.87 24.56 227.66 227.66 0 0 0-3.9 24.35c-.37 3.8-.63 5.94-2 8.43-1.81 3.2-3.39 5.21-4.84 8a23.67 23.67 0 0 0-2.05 5.64c-1.66 6.92-6 17.05-7.8 24.39zM130.89 156.17a28.08 28.08 0 0 0-8.22 6.8l-3.78 1.83c4.61-5.74 7.88-8.92 13-11.29z" fill="#061922"/><path d="M110.85 149.31c-2.82.47-11-17.53-11.33-20.22-.24-1.79.75-22 3.49-22.52 2.22-.41 11.3 14.49 11.73 19.81.49 6.04-.59 22.38-3.89 22.93zm-7.69-41.24c-.92.19-2.39 17.65-2 20.8.45 3.47 8.13 18.6 9.51 18.37s3-14.07 2.34-20.73c-.46-5.33-8.96-18.62-9.85-18.44z" fill="#b99097"/><path d="M126 104.86c2.33.13 5 12 4.69 18.81-.3 7-6.32 23.36-9.23 23.28s-6.1-19.37-5.39-24.35c.4-2.88 7.13-17.9 9.93-17.74zm-.14 1.41c-1.14-.21-7.75 13.86-8.12 16.49-.77 5.44 2.69 22 3.93 22 1.4 0 7-13.27 7.29-21.09.3-7.03-2.24-17.23-3.1-17.4z" fill="#957999"/><path d="M143.34 113.6c2.36-3.27 3.45-3.86 4.71-3.58 2.66.59 1.1 15.39-.53 19.64-1.23 3.21-9.78 17.05-12.6 16.88-1.87-.12-2.44-3.32-2.14-5.51a52.65 52.65 0 0 0 .65-10.42c-.14-4.57 1-6.34 3.88-9.68a89.92 89.92 0 0 0 6.03-7.33zm1 1.07a67.23 67.23 0 0 1-5.7 7.33c-3 3.59-3.69 4.52-3.69 8.61a77.78 77.78 0 0 1-.59 10.46c-.23 2 0 3.28.83 3.35 1.34.12 8.75-10.4 10.63-15.36 1.79-4.7 2.94-17.3 1.79-17.7-.67-.24-1.47.48-3.24 3.31z" fill="#617aa0"/><path d="M181.29 115.94c2.66-3.18 4.56-3.93 7.41-3.93 3.67 0 21.27-4.44 29.34-6.74 3.09-.88 4.91-4 6.86-5.07 9.47-5.31 15.7-9.83 25-16.89 9.87-7.53 25.72-14.59 40.31-18.18 5.81-1.42 6.58.78 3.11 3.46-3.14 2.41-14.48 8.41-19.91 10.73a26.47 26.47 0 0 0-7.62 5c-1.53 1.38-3.07 2.78-5.29 5l-6.21 4.52c4.91-5 8.11-8.24 10.58-10.46a28.36 28.36 0 0 1 8.07-5.17c5.25-2.22 16.67-8.29 19.66-10.59 2.2-1.69 1.84-2.24-2.22-1.24-14.46 3.56-30 10.76-39.75 18.21-9.3 7.09-15.49 11.71-25 17.1-2.06 1.17-3.73 4.22-7.15 5.15-8.15 2.2-26 6.82-29.81 6.82-2.27 0-3.25.32-5.23 2.29zM91.28 326.78c-8.51-6-12.21-14.81-13.89-22.67-2.24 6.42-3 15.16-3.38 26.93l-1.13-4.12c.25-8.42.68-15.67 3.44-23.5 1-2.8 1.57-2.94 2.3.15 1.84 7.89 5 15.29 11.87 20.95zM64.18 322.42a26.29 26.29 0 0 0 2.24 6c1.28 2.57.51 2.91-.93.53a23.41 23.41 0 0 1-3.13-8.27zM50.24 327.78a41.34 41.34 0 0 1 4.54-12l1.52.85c-1.71 2.86-4.15 8.55-4.64 12.45z" fill="#061922"/><path d="M19 346.32a35.67 35.67 0 0 0-4-11.51 45.63 45.63 0 0 1-4.09-10.19c-.45-2.23 4.06-8.46 6.33-10.8s10.37-2.59 14.65-1.38 17 12.73 24.68 20.55c1.69 1.7 1 2.42-.75.76-8-7.64-20.49-18.68-24.22-19.71-3.9-1.07-11.47-.69-13.17 1.07-2.64 2.74-6.18 7.95-5.87 9.5a41.6 41.6 0 0 0 3.73 9.24 35 35 0 0 1 2.62 7.15z" fill="#061922"/><path d="M53.57 434.6c-4.72-1.23-11.32-5.69-15-10.37-1.89-2.38-2.63-3.89-1.93-6.85a42.17 42.17 0 0 0 1.1-6.7 7.26 7.26 0 0 0-.67-4 410.37 410.37 0 0 1-16.23-49.94A106.13 106.13 0 0 1 18 324.29c.19-3.33 2.38-3.82 3.43-.47 1.37 4.38 2.08 7.23 3.9 16.59C28.15 355 40.56 396 48.68 411c4.87 9 7.45 16 7.88 20.42.33 3.42-.27 3.89-2.99 3.18zM19.32 324.41a103.66 103.66 0 0 0 2.95 31.92 407.36 407.36 0 0 0 16.12 49.58 10.3 10.3 0 0 1 1 5 42.45 42.45 0 0 1-1.07 6.82c-.44 1.93-.35 3 1.54 5.4 3.58 4.51 9.47 8.91 14 10.09 1.24.32 1.43 0 1.26-1.69-.41-4.27-3.08-10.85-7.88-19.75-8.24-15.16-20.5-56.35-23.35-71-1.81-9.31-2.39-12.25-3.74-16.59-.22-.66-.71-1.91-.83.22z" fill="#061922"/><path d="M50.1 432.52c5.86 5.62 10.25 7.14 11.85 5.75 2.06-1.78-2-9.57-8.5-23.26-12.93-27-20.29-50-24.36-76.71-.72-4.73-.44-7.91 1.48-10.52 2.19-3 2.84-6.33 1.79-10.54-.34-1.39 0-1.83 1.58-1.19a44.42 44.42 0 0 1 7.49 3.75l5.36 4.81c-6.31-4-8.56-5.24-12.85-7 .94 4.22.36 8-1.83 11-1.66 2.24-2.31 5.12-1.64 9.49 4.06 26.59 11.46 49.22 24.33 76.18 8.42 17.62 11.06 23.33 8.31 25.58-2.36 1.91-8.72.06-16.88-9.37z" fill="#061922"/><path d="M59.79 426.91c.79-5.59.16-11.82-.94-13.83a19 19 0 0 0-5.85-6.49 7.65 7.65 0 0 1-2.19-3.16c-5.55-11.55-14-34.22-15.17-48.76a102.55 102.55 0 0 0-1.83-12.34c-.67-3.56 1.16-7.08 3.69-10.65a8.56 8.56 0 0 0 1.86-5.06c.14-3.16 1.16-3.16 1.08 0a9 9 0 0 1-1.78 5.76c-2 2.79-4.07 6.55-3.48 9.64A106 106 0 0 1 37 354.68c1.14 14.4 9.51 36.6 15 48.08a7.89 7.89 0 0 0 2 2.68c3 2.64 5.69 5.26 6.5 7 1.1 2.33 1.74 9.58.32 16.2zM95.77 356.15c2.25-1.24 3.38-1.86 5.15-2.75.62-.31.63-.66.38-1.32-1.72-4.7-5.87-16.06-5.61-25.18l1.86-1.9c-.61 10.67 3.66 22 5.29 26.8.46 1.36.44 2.15-1 2.88s-2.88 1.39-4.66 2.48z" fill="#061922"/><path d="M67.85 389.72a54.16 54.16 0 0 1-2.9-9.89 8.55 8.55 0 0 1 1.52-6.83c5.7-7 30-19.35 31.54-17.07.84 1.2-8.64 8.71-15.08 14.44 3.53 3.85 5.19 7 4.92 8.23-.34 1.59-2.36 4.22-5.88 7.24a4.45 4.45 0 0 0-1.57 2.45c-2.9 13.59-5.47 33.7-4.21 49.63 1.56 19.85 4.2 35 7.72 43.86 3.09 7.83 4.2 16.15 2 17.46-3.17 1.9-9.42-1.73-15-14.07l2.44 2.29c6.08 10.3 9.87 11 11.43 10 1.1-.73 1.19-6.41-2.21-15-3.56-9-6.31-24.34-7.88-44.29-1.27-16 1.37-36.47 4.29-50.13a5.76 5.76 0 0 1 2.09-3.35c2.93-2.49 4.65-5 5-6.44.16-.67-.83-3.1-4.46-7.24-.5-.56-.44-.93.17-1.48 6.83-6.11 14.45-12.13 14.22-12.42-.58-.71-22.91 10.18-28.3 16.8a6.79 6.79 0 0 0-1.24 5.66 46.21 46.21 0 0 0 1.79 7.43z" fill="#061922"/><path d="M69.87 383.07c.4 0 1.64 5.09 1.7 6.68a238 238 0 0 1-.52 24.91c-1 16.41 1.75 46.34 6 62.78 2.8 11 2.84 13.68 2.45 13.87-.71.33-6.2-4.23-11.31-11.23-1.74-2.38-3-5-1.15-10.33a10.71 10.71 0 0 0 .4-4.77c-2.27-15.93-.21-61.3 1.46-76.79.1-1.69.54-5.09.97-5.12zm-4.05 82a8.92 8.92 0 0 1-.43 4.1c-1.91 5.34-1.19 8.41 1.42 12 5.37 7.35 11.42 12.4 13.24 11.67 1.65-.67 1.06-5.25-1.54-15.69-4.07-16.33-7.13-46.14-6.06-62.46a243.24 243.24 0 0 0 .55-25c-.09-2.12-1.75-8.31-3.08-8.39-1-.1-2 3.5-2.33 6.52-1.59 15.63-4.05 61.3-1.77 77.32z" fill="#061922"/><path d="M131.89 301.62a98.4 98.4 0 0 1 3.93 15.78c.67 3.82.52 7.67-1.06 10.73-7.13 13.79-10.86 22.73-12.86 37.19-.48 3.47-2.3 5.09-5.4 5.79-20.63 4.66-28 12.35-30.24 15.43-3 4-5.68 19.29-8.06 44.43-1.22 13-.6 25.12.83 28.5a20.72 20.72 0 0 0 5.31 7.6 7.85 7.85 0 0 1 2.66 6.15 112.37 112.37 0 0 1-1.44 15.53l-1-2.72a91.47 91.47 0 0 0 1-12.81 6.72 6.72 0 0 0-2.09-5.12 22.3 22.3 0 0 1-5.6-8.1c-1.66-3.93-2.38-17.27-1.25-29.16 2.43-25.7 5.37-41 8.5-45.3 2.35-3.17 10.17-11.14 31.16-15.88 2.53-.57 3.71-1.52 4.14-4.61 2-14.61 5.67-23.75 12.85-37.65 1.62-3.13 1.73-5.86 1.07-9.66A100.27 100.27 0 0 0 131 303.1z" fill="#061922"/><path d="M250.74 410a602.657 602.657 0 0 1-11.5-26.73c-1.69-4.26-3.27-5.8-6.59-6.48-5.31-1.1-9.9-4.49-13.24-9.94-3.56-5.8-7.65-16.53-11.26-25.93-3.09-8-6.05-15.29-7.92-17.92s-7.69-5.33-12.36-7.06c-3.42-1.27-13.46-.49-21.51.19-8.82.75-24-4.8-33.82-10.52l-.67-2.29c9.62 5.88 25.74 11.72 34.37 11s18.91-1.48 22.55-.13c5 1.87 11.06 4.87 13 7.57s4.83 10.17 8.07 18.62c3.59 9.36 7.45 19.83 11 25.55 3.18 5.19 7.18 8.35 12.19 9.38 3.76.78 5.77 2.63 7.66 7.37 2.44 6.09 8.9 21.48 15.87 35.69z" fill="#061922"/><path d="M159.24 330.33c5.38-7 11.71-11.09 20.82-13.72 2.43-.7 2.71.2.34 1-8.78 3-14.68 6.93-20.33 13.39-1.44 1.67-2.24 1.18-.83-.67zM230.28 471.21c4.81 5.24 10.48 8.1 11.29 7.52 2.11-1.53-10-20.21-16.31-37.32-4.7-12.82-9.25-33.65-12.76-46-.36-1.29-.55-1.19-.34 0 2.24 13.45 7.12 32.7 12.24 49.33a39.79 39.79 0 0 0 3.78 8.39c2.81 5.07 7.4 13.59 9.47 17.85 1.59 3.28.69 4.37-2.67 3.07-5.92-2.31-13.49-6.56-14.35-8.2-.71-1.33-.76-4.46-.68-8.15a13.48 13.48 0 0 0-.95-5.21c-6.09-17.58-11.34-36.87-16.35-60.49l1.51.12c5 23.42 10.06 42.36 16.11 59.81a15.32 15.32 0 0 1 1.14 5.79c-.12 3.71.08 5.91.69 7.14s8.43 6 13.32 7.91c1.54.62 1.71.24 1-1.23-2.06-4.24-6.67-12.6-9.47-17.66a41.34 41.34 0 0 1-3.82-8.79 423.79 423.79 0 0 1-12.06-49.67c-.58-3.46 1.45-3.9 2.46-.3 3.49 12.37 8.48 33 12.95 45.81 6.39 18.35 20.19 36.38 16.41 39.49-1.84 1.52-10.09-3.19-15.41-10.76z" fill="#061922"/><path d="M239.15 469.44a52.46 52.46 0 0 0-.91-12.38c-.39-2.4-.88-3.36-2.32-4.37-3.28-2.29-4.85-3.75-5.84-7-5.85-19.37-10.57-35.88-14.07-52.88l1.45.06c3.49 16.86 8.07 33.14 13.88 52.39.9 3 2.16 4 5.36 6.27 1.88 1.31 2.51 2.87 3 5.2.91 4.7 1 7.8.63 15.21zM126.57 343.55c1.78-.22 3.59-.47 5.41-.76a21.5 21.5 0 0 1 10.28.94c9.58 2.86 17.56 6.57 21.06 10l2.27 5.24c-3.8-5.87-15.07-10.69-24.19-13.37-4.29-1.26-5.84-1.33-9.27-.79-2.13.34-4.23.63-6.32.87zM100.21 346.3c-11.68-1-21.26-3.87-27.26-8.74-2.71-2.2-2.15-3 .72-1 6 4.17 15 6.79 25.94 7.72z" fill="#061922"/><path d="M183.2 384.39a77.56 77.56 0 0 1-14.61-2.21c-5.77-1.4-10-4.6-13.91-11.53-5.37-9.55-8.11-14.52-16.11-26.85l2.37.63c7.13 10.92 10.07 16 15.29 25.3 3.41 6.06 7.25 9.44 12.69 10.88a55.58 55.58 0 0 0 12.81 2.05zM76 338.94A180.7 180.7 0 0 0 65 359c-.9 1.93-2.23 2.42-4.21 1.38a64.76 64.76 0 0 1-13.21-9.5A114.64 114.64 0 0 0 34.37 340l.48-1.42a100.83 100.83 0 0 1 13.67 11.15 61.1 61.1 0 0 0 12.81 9c1.33.64 1.59.68 2.2-.64 2.63-5.61 7.15-14.38 10.77-20.29zM133.58 299c11.9 8 31 12.9 54.35 14.14a4.67 4.67 0 0 0 3.61-1.36 67.74 67.74 0 0 1 11.23-8.42c3.58-2.15 8.82-3.21 18.72 3 6.35 4 10.74 6.6 18 10.88 10.15 6 35.14.67 49.65-18.18 1.46-1.9 2-1.76 1.95.69-.08 5.12-2.22 10.47-5.3 15.35-1.91 3-2.67 2.58-.93-.54 2.91-5.21 4.52-9.68 4.92-14.22-14.09 18.1-39.92 24.9-51.15 18.16-7.25-4.35-11.5-6.8-17.86-10.76-9.16-5.71-14.17-4.78-17.22-2.92a69.42 69.42 0 0 0-11.19 8.32 5.76 5.76 0 0 1-4.36 1.57c-23.59-1.26-43.19-6.25-55.25-14.34z" fill="#061922"/><path d="M286 313.5a34.38 34.38 0 0 0 6.23-5.32c2.31-2.35 2.82-2 2 1.18-2.46 10-8.81 20.13-20.85 25.27-3 1.3-3.61.52-.43-1 11.23-5.28 17.35-15.2 19.84-24.26a24.71 24.71 0 0 1-7.69 6z" fill="#061922"/><path d="M274.22 333.68a47.06 47.06 0 0 0 15.21.35c2.07-.26 2.37 0 1.07 1.89-8.28 12.33-21.64 14.85-30.54 10.2-2.73-1.43-2.29-2.17.54-.93 8.76 3.81 19.84 1.9 28.54-9.71-5.52.67-9.58.56-16.87-1z" fill="#061922"/><path d="M205.08 331.15c5-1 10.43 1.29 15.6 7.27 9.23 10.64 18.14 17.28 27.1 20.12a18 18 0 0 1-6.11-7.61c-1.39-3.14-.73-3.39 1.73-1.85 11.23 7.05 20.25 7 28.18 4-5-1.18-8.35-3.31-11.9-7.57l2.87 1.19c2.33 2.24 4.54 3.78 9.78 5.16 2.71.71 3 1.28.12 2.4-10.76 4.14-17.74 3-29.17-3.39a18.94 18.94 0 0 0 6 7.25c2.53 2.09 2 2.72-.87 2-9.76-2.28-19.56-9.51-29.09-20.51-4.94-5.71-8.73-7.53-13.47-6.68zM199.17 320.51a6.42 6.42 0 0 0 4.67-1.3c5.55-3.81 10-4.14 15.72-2 13.93 5.22 23.17 6.32 35.47 5 2.87-.31 3 .64.15 1.07-12 1.81-21.73 1-36.27-4.58-5.12-2-9.43-1.23-14.25 2.07a6.22 6.22 0 0 1-4 1.54zM224.7 309.51c-8.15-3.13-10.87-2.68-13.71-1.3-4.61 2.25-6.56 3.49-11.77 7.86a7.35 7.35 0 0 1-5.08 1.72l-2.78-1.89a8 8 0 0 0 7-1.3c5.18-4.26 7.33-5.68 12.06-7.87 2.58-1.19 5-1.71 10.34 0zM279.46 480.39c2.68 4.1 8.16 7.7 9 7.29 2.21-1.12-1.66-20.3-13.46-37.71-2.87-4.24-9.85-15.93-16.73-27.12-4.13-6.71-15-25.66-17.86-30.32-.86-1.36-.94-1-.28.22 10.21 19.77 32.52 57.58 39 69.83 4.55 8.61 7.3 18.75 5.67 20.14-2.26 1.93-15.56-7.68-17.89-11.82-.87-1.56-.84-2.88-.51-5s.2-2.59-1.14-5.67c-6.61-15.13-21.73-42.21-35.32-63.05-1.81-2.77-2.9-3.49-5.47-3.49a254.09 254.09 0 0 1-26.17-1.33c-6.74-.68-11.74-3.39-17.85-10-9-9.78-16.19-22.77-23-40.59a8.34 8.34 0 0 1-.4-5.57c.64-2 1.3-1.79 1 .26a9.49 9.49 0 0 0 .74 4.85c6.76 17.4 14.39 30.59 22.86 39.91 5.87 6.47 10.27 8.88 16.75 9.53a255.35 255.35 0 0 0 26.08 1.5c3 0 4.47.93 6.53 4.08 13.62 20.89 29 48.1 35.61 63.27 1.42 3.27 1.64 4.21 1.3 6.39s-.21 2.61.47 3.86c2.64 4.85 14.3 12.58 15.45 11.63.81-.68-1.12-8.68-6.15-18.21-6.47-12.24-28.38-50-38.51-70-1.56-3.08.08-4.58 2.32-1 2.92 4.65 13.75 23.15 17.88 29.87 6.88 11.17 13.91 22.65 16.73 26.89C289 468.38 293 487.8 289.44 489.55c-2.21 1.06-8.87-4-12.77-10.88z" fill="#061922"/><path d="M181.78 118.76c1.5-1.18 2.2-2.09 2.07-2.32s-5.75.36-7.92 1.3c-1 .43-3.07 2.37-4.92 4.89l-2.17.51c2.17-3.23 4.86-6.13 6.31-6.86 1-.52 9.49-2 10.08-.51a2.29 2.29 0 0 1-.57 2z" fill="#617aa0"/><path d="M180.37 121.23c3.26-3 5.51-3.29 7.66-3.16a48.37 48.37 0 0 0 8.25-.17c3.89-.34 11.57-1 17.62-1a8.2 8.2 0 0 0 5.1-1.74c7-4.58 31-16.85 39.94-24 3-2.42 5.92-3.45 9.74-4.56s12.71-5.93 19.22-9.91c6.08-3.71 9.69-6 16.75-8.22 5.39-1.74 6 0 1.18 2.48a74.82 74.82 0 0 0-16.47 12.25c-4 4-9.3 7.72-16.57 12.53l4.58-1.43a85.21 85.21 0 0 0 12.84-10.12 73.8 73.8 0 0 1 16.17-12.09c6.14-3.18 4.59-7-2.18-4.85-7.17 2.31-10.77 4.56-16.91 8.32-6.54 4-15.41 8.69-18.91 9.71-3.95 1.14-7.16 2.08-10.29 4.65-9 7.39-32.83 19.14-40 23.77a6.42 6.42 0 0 1-4.27 1.43 168.8 168.8 0 0 0-17.56 1 42.78 42.78 0 0 1-8 .27c-3.63-.21-5.78 1.14-10.18 4.88z" fill="#061922"/><path d="M177.19 125.51c2.12-1.76 3.1-3.52 3-3.67-.46-.5-16.79 2.8-18.56 4-1 .69-2.46 2.51-4 5.52l-1.85.35c1.53-3.27 3.11-6.28 4.88-7.41 1.08-.68 20.22-5 21.17-3.34.34.59-.64 2.57-2.56 4.58z" fill="#957999"/><path d="M176.34 125.64c1-.85 2.34-1.19 4.61-1.17 11.08.11 21.89 0 32.7-.15 4.3 0 6-.12 10.44-2.6 9.91-5.47 28.93-15.83 37.84-21 3.71-2.15 8.66-4.94 11.74-6 12.3-4.37 35.17-11.64 46.74-15.29 3.94-1.24 5.1 2.15 2.72 3.82-6.07 4.26-15 9.59-35.67 17.42a50.7 50.7 0 0 0-9.34 4.69c-9.19 5.57-21 15-30.74 22.74l-3.82 1.18c10-8.21 23.88-19.1 33.86-25.14a51.66 51.66 0 0 1 9.58-4.72c13.83-5.23 28.06-12.14 35.08-17.11 1.13-.8 1.73-2.69-1.42-1.69-11.56 3.65-34.34 11.13-46.66 15.49-3 1.06-7.76 3.83-11.43 6-8.91 5.13-27.83 15.77-37.75 21.24-4.56 2.52-6.65 2.72-11.23 2.76-10.76.09-21.75.08-32.82.06-2 0-3 .18-3.67.82-1.14 1.1-1.93 1.93-2.79 2.91h-2.41c1.95-1.9 2.98-3 4.44-4.26z" fill="#061922"/><path d="M158.24 140.21c1.91-1.66 5.36-3 9.3-4.18 3.13-.94 8.18-5.21 8-5.6-.33-.67-16.84.87-20.14 2.33-1.78.79-4.92 4-7.17 7h-2c2.1-3 6.16-7.44 8.51-8.47 3.15-1.38 21.87-3.39 22.43-1.42.37 1.35-5.57 6.54-9.27 7.65a25.92 25.92 0 0 0-7.33 3z" fill="#b99097"/><path d="M129.51 158.33c-1.77-2.32 9.24-17.48 13.08-19.07 3-1.24 29.68.2 29.56 4-.08 2.66-7.81 5.47-14.7 6.74a53.17 53.17 0 0 0-14.9 5.08c-5.42 2.79-11.48 5.3-13.04 3.25zm13.71-17.41c-3.27 1.51-12.74 14.79-11.9 16.11.57.9 4.45-.31 10.52-3.35 6.62-3.31 9.9-4.25 15.45-5.2 8.7-1.48 13.22-4 13.21-5.24-.02-1.63-23.74-3.96-27.28-2.32zM86.78 133.19C82.26 121.72 79 113.07 82 112c2.36-.83 17.43 10.19 18.86 15.24 1.19 4.21 1.7 24.29-2.19 25.07-4.37.91-8.21-9.8-11.89-19.12zm1.58-.54c3.64 9.24 6.81 18.45 9.84 17.72 1.71-.41 2.65-17 1-22.57-1.25-4.34-15-14.8-16.68-14.39-1.25.32 1.23 7.59 5.84 19.24z" fill="#c0b653"/><path d="M43.64 77.18c2.13.86 2.62.66 2.44-1.39-1.22-14-2.92-23.19-4.89-29.58S29.84 14.06 25.51 5.31c-.85-1.71-2.27-2.2-2 1.1A152.85 152.85 0 0 0 30 36.91a82.3 82.3 0 0 1 4.93 22.5C35.7 69 38 74.93 43.64 77.18zM245.22 131.28c-1.08 1.22-1 2.22 1 2.42 10.11 1 19.71-3.24 27.37-11.7 18.72-20.69 28.73-30.94 50.56-49 1.86-1.53.41-3.43-2.83-1.57-16.16 9.22-41.35 26.16-53 36-10.32 8.85-17.55 17.57-23.1 23.85z" fill="#f6945a"/><path d="M243.68 115.34c-1 1.48-1 2.47.71 2.21 6.54-1 15.2-3 20.57-11 12.93-19.55 24.26-34 45.09-52.3 2-1.73.29-3.9-2.53-2.44C284 64 256.76 96.34 243.68 115.34z" fill="#ec1c24"/><path d="M254.91 100.36a15.11 15.11 0 0 1-6.19 2.21c-1.57.16-2.4.16-1.18-1.81 3.23-5.21 8.59-17.19 14.66-26.88s12.72-18.75 19.94-23.57c1.42-.94 2.05-.34.95 1.5a145.27 145.27 0 0 0-13.64 31.82" fill="#7961a9"/><path d="M252.49 91.08c-3.39 2.68-6.37 3.77-9 3.61-1.26-.08-1.88-.35-1.18-1.89 5.52-12.06 16.1-31.12 25.77-39.41 1.66-1.42 2.44-.72 1.58 1-4.1 8.28-8.75 17.1-9.93 24.2z" fill="#00acdc"/><path d="M84.56 67.48c.91.73 2.2 1.16 2.31-.85.68-12.92.13-25.92-2.31-36.63s-5.34-23.28-7-27.88c-.69-1.88-2.22-1.79-2 .78.59 9.32 1 17.53 1.71 24.8 1 10.88 1.56 18.4 1.65 25.3.08 7.3 1.79 11.4 5.64 14.48z" fill="#ec1c24"/><path d="M122.27 58.07c.6 1.33 2 1.63 2.66.17 3.5-7.61 7.18-17.61 8.55-24.8a243.15 243.15 0 0 0 3.33-27.7c.09-2.4-1-2.63-1.88-.17-2.48 7.09-3.5 11.2-5.13 17.18a131.42 131.42 0 0 1-6.58 18.48c-2.48 5.47-2.91 12.48-.95 16.84z" fill="#7961a9"/><path d="M162.38 65.17c.57 1.49 1.48 1.77 2.48-.34a150.57 150.57 0 0 0 8.47-21.47c3-9.49 4.19-17.28 3.76-23.09-.17-2.3-1.72-2.48-2.31-.08a143.66 143.66 0 0 1-10.09 26.68c-3.85 7.78-3.42 15.39-2.31 18.3z" fill="#00acdc"/><path d="M97.63 148.76c.64-.11 1.73-15.92 1.1-16.08s-6.46 4.73-6.46 5.67 4.41 10.57 5.36 10.41zM83.6 115.18c-.63.16 1.41 5.83 1.89 6s2.44-3.23 2-3.86-3.26-2.32-3.89-2.14z" fill="#fff8b7"/><path d="M110.24 145c.56-.28 2.05-13.24 1.57-13.71s-5.83 4.41-6 5.36 3.8 8.64 4.43 8.35zM103.62 110.14c-.48.15-1.26 6.22-1 6.7s3.55-2.37 3.55-3-2.08-3.84-2.55-3.7z" fill="#fad2d6"/><path d="M121.9 142.77c.47.08 5.36-12.3 4.89-12.77s-6.78 2.52-7.09 3.31 1.3 9.3 2.2 9.46zM125.69 108.09c-.62-.16-3.47 5.2-3.31 5.67s4.57-.31 4.57-.94-.63-4.58-1.26-4.73z" fill="#d5b9d9"/><path d="M135.62 142.93c.45.13 8.19-11 8.19-12.14s-7 .31-7.48 1.1-1.82 10.72-.71 11.04zM147 112.82c-.45-.23-4.34 4.8-4.18 5.43s4.18 0 4.18-.78.6-4.34 0-4.65z" fill="#a1b7de"/><path d="M132.66 155.81c.44.22 9.34-3.43 9.7-4s.35-8.27-.36-8.27-10 11.92-9.34 12.27zM168.84 143.75c.1.34-6.86 3.08-7.57 3s.83-4.26 1.3-4.38 6.03.56 6.27 1.38z" fill="#fff8b7"/><path d="M253.22 129.05c-.75 1.2 7.56-.31 10.4-3.31 1.1-1.16 3.89-5.63 9.77-11.66 9.35-9.59 21.45-20.36 21-20.65s-13.43 8.88-24.28 18.28c-8.85 7.64-15.83 15.65-16.89 17.34z" fill="#f9b284"/><path d="M251 112.66c-.54 1.07 5.36-.47 6.78-2.52.63-.91 5-7.81 9.93-14.51 6.2-8.39 13.14-16.85 12.61-17s-7.9 6.94-15.13 15.29c-6.57 7.57-12.98 16.34-14.19 18.74z" fill="#f05b40"/><path d="M255.11 96.26c-.39 1 4.81-1.57 6.07-3.94s8.7-21.31 8.27-21.59c-.59-.4-13.24 22.7-14.34 25.53z" fill="#8d79b7"/><path d="M247.82 89.72c-.23 1 4.49-.71 5.44-2.72s7.68-19.62 7.09-19.62-12.06 20.33-12.53 22.34zM164 59.45c.41-1 3-6.33 5.09-11.7 2.2-5.8 3.79-11.58 3.54-11.7s-2.34 5.43-4.49 10.16a59.3 59.3 0 0 1-3.31 6c-1.55 2.63-1.55 8.9-.83 7.24z" fill="#00bee4"/><path d="M123.4 53.23c1.77-3.27 5.4-13.52 6.66-17.74.45-1.51 2.61-10.34 2.09-10.4-.35 0-2.74 8.49-3.27 10.05a88.69 88.69 0 0 1-5.44 12.49c-.44.83-.75 6.9-.04 5.6z" fill="#8d79b7"/><path d="M84.15 63.32c0-1.27-1.1-24.83-1.26-26.49s-2.53-12.45-3-12.45 1 10.4 1.11 12.69.55 19.23.55 20.89c0 2.3 2.6 7.27 2.6 5.36z" fill="#f05b40"/><path d="M42.85 73.41c-.24-1.17-3.79-24-4.42-26.41s-6-16.47-6.46-16.31 3.69 14.52 4.18 16.71c.94 4.25 3.15 20.88 3.31 22.3s3.78 5.68 3.39 3.71z" fill="#f9b284"/><path d="M257.93 81.06c1.55-6.94 6.9-18.14 11.24-26.91.55-1.11.42-1.26-.68-.33-10 8.56-20.48 28.49-25.31 39-.38.84-.14 1 .46 1.05 2.41.14 6.25-1.37 9.58-4.31l-.94 2.77c-2.88 2-6.31 3.29-8.81 3.12s-2.84-1.08-2-3c6-13.19 16.78-31.45 26.25-39.57 2.61-2.23 3.91-1.15 2.46 1.78a190.67 190.67 0 0 0-9.42 21.6z" fill="#0083a7"/><path d="M268 85a173.87 173.87 0 0 1 14.6-33.56c.53-.91.41-1-.14-.64-7.15 4.75-13.41 13.51-19.66 23.49-6 9.67-11.32 21.25-14.51 26.54-.48.79-.42 1.07.73.87a23.39 23.39 0 0 0 6.61-2.49l-1.84 2.68a15.32 15.32 0 0 1-5 1.46c-3.07.3-3.54-.74-2.16-3 3.13-5.13 8.83-17 15-26.85 6.39-10.19 13-18.91 20.22-23.71 2.19-1.46 3.64-.89 1.81 2.33a174.91 174.91 0 0 0-13.37 30.61z" fill="#5c4881"/><path d="M43.3 77.94c-6.12-2.45-8.44-8.19-9.27-18.51A81.67 81.67 0 0 0 29.25 37a149 149 0 0 1-6.37-30.48c-.35-4.17 1.5-4.87 3.17-1.51 4.47 9 13.45 33.4 16 41.05 2.28 7 4.1 16.71 5 29.71.09 2.96-.82 3.34-3.75 2.17zM24.16 6.4a151.71 151.71 0 0 0 6.55 30.31 82.63 82.63 0 0 1 5.06 22.69c.82 10.23 3.15 15.12 8.14 17.12 1.24.5 1.52.32 1.42-.85-1.12-12.84-2.77-22.2-4.93-29.18-1.85-6-11-31.81-15.45-40.8-.64-1.3-.95-1.03-.79.71zM246.12 134.53c-2.65-.27-3.49-1.59-1.55-3.78 5.79-6.52 12.76-14.85 23.27-23.85 11.08-9.49 36.06-26.23 53.19-36 4.14-2.36 6.14.42 3.46 2.63-22.4 18.52-32.36 29.24-50.28 49-9.5 10.54-19.71 12.83-28.09 12zM321.59 72c-17.08 9.75-41.67 26.71-52.76 36.12-10.43 8.85-17.12 17.08-23 23.69-.64.72-.3 1 .5 1.1 7.89.79 17.8-1.82 26.5-11.43 18-19.85 28.58-30.54 50.84-48.92 1.62-1.3.13-1.8-2.08-.56z" fill="#b76f42"/><path d="M242.82 115c11.3-16.41 39.24-50.62 64.47-63.75 3.88-2 5.78 1.19 3.07 3.57-20.87 18.34-32.08 33.18-44.77 52.28-5.22 7.86-13.34 10.17-21.08 11.23-3.08.43-3.46-.8-1.69-3.33zm65-62.6c-24.62 12.76-52.24 47.1-63.49 63.43-.57.83-.32 1.07.38 1 7.51-1.32 14.52-3.21 19.49-10.7 12.8-19.24 24.56-33.78 45.52-52.24 1.68-1.54 0-2.53-1.93-1.53zM85.31 29.87c2.27 9.8 3.21 22.52 2.45 36.76-.13 2.53-1.45 3.13-3.66 1.5-4.21-3.13-5.9-7.43-6-15.13-.1-6.81-.51-14.33-1.63-25.23-.54-5.27-1.15-16.21-1.62-24.86-.18-3.28 2.15-4.09 3.28-1 1.54 4.27 4.79 17.65 7.18 27.96zm-1.54.32C81.5 20.4 78.47 6.62 77 2.44c-.52-1.43-.93-1.16-.83.44.56 9 1.35 19.61 1.89 24.86 1.12 10.94 1.57 18.47 1.65 25.31S81.21 63.77 85 66.8c.86.68 1.13.45 1.18-.48.69-14.14-.18-26.42-2.41-36.13z" fill="#b01117"/><path d="M129.07 22.61c1.34-4.94 3.08-11 5.26-17.25 1.27-3.63 3.24-3.07 3.12.4a248.53 248.53 0 0 1-3.17 27.88c-1.51 7.89-5.61 18.44-8.63 25-1.1 2.39-2.94 2.32-4.07-.21-2-4.49-1.74-11.74.83-17.43a130.2 130.2 0 0 0 6.66-18.39zm1.46.39A131.89 131.89 0 0 1 124 41.6c-2.42 5.35-2.89 12-1 16.18.48 1.07.85 1 1.27.07 3-6.51 6.93-16.76 8.41-24.56 1.31-6.86 3.3-20.62 3.55-27.54 0-1.41-.19-1.44-.7 0-2.18 6.25-3.67 12.33-5 17.25z" fill="#5c4881"/><path d="M161.75 65.46c-1.17-3.06-1.63-11 2.27-18.86a142.54 142.54 0 0 0 10.08-26.49c.87-3.53 3.31-3.89 3.61.12.44 6.07-.65 14-3.61 23.38a153.3 153.3 0 0 1-8.63 21.67c-1.39 2.91-2.82 2.55-3.72.18zm13.65-45.08a143.72 143.72 0 0 1-10 26.87c-3.75 7.58-3.4 14.75-2.3 17.61.28.74.59.63 1.09-.41a149.57 149.57 0 0 0 8.42-21.31c2.92-9.26 4.28-16.89 3.85-22.82-.16-1.88-.59-1.83-1.06.06z" fill="#0083a7"/></svg>