<svg xmlns="http://www.w3.org/2000/svg" viewBox="0 0 419.48 442.46"><path d="M238.94 103.33a27 27 0 0 0 6.94 3.51c18.65 6.28 50.93 20 66.75 31.84s49.1 59.27 66 83.42c18.35 3.57 30.75 24.14 30.09 25.45s-14-3.13-24.7-7.21a56.78 56.78 0 0 1 1.92 10 222.64 222.64 0 0 0 15.42 18.85 6.2 6.2 0 0 0 4.54 2.22c1.91.15 5.85.1 9.58-.05 2.21-.09 2.92.65 3.17 3.12 1.51 14.79-4.08 35.54-6.15 35.14-1.26-.25-2.37-9.48-5.44-19.46a5.59 5.59 0 0 0-3-3.88c-1.86-1.16-5.84-2.42-10.18-3.28a4.24 4.24 0 0 1-3.27-2c-1.62-2.54-4.69-7.26-6.66-9.83a1.17 1.17 0 0 0-1.59-.49 1 1 0 0 0-.27.19c-.56.4-.86.65-1.92 1.31.81 1.71 2.22 5 3 6.65a11.34 11.34 0 0 0 3 4.38c3 2.74 10.3 9.6 15.07 14.7a6.2 6.2 0 0 1 2 5.38c-.72 14.79-16.67 35.49-17.79 34.81s2.77-12.65 2.42-26.81a5.53 5.53 0 0 0-1.84-4.42c-2.47-2.37-8.52-7.81-12.8-11.24a8.44 8.44 0 0 1-2.67-3.47 95.38 95.38 0 0 1-4.2-11.19c-.41-1.35-1.31-1.67-2.57-1.67a37.77 37.77 0 0 1-6.95-.8c.65 3.07 1.76 7.2 2.72 10.43a11.55 11.55 0 0 0 2.27 4.33c1.66 2.12 6.8 7.46 10.68 11.19 1.47 1.41 2 2.83 1.31 5.4-4.72 18.5-20 35.13-21.57 34.32s4-13.81 5.09-29.38c.17-2.45-.52-3.8-1.6-4.76a147.59 147.59 0 0 1-12.43-12.83 9 9 0 0 1-2-5.31c-.52-5.15-1.42-13.58-1.95-18.75a4.94 4.94 0 0 0-1.92-3.77c-9.37-8-18-35.58-21.77-46.37s-7.77-20.36-14.79-38.37c-1.61 1.75-3.76 3.73-4.8 3.56s-6.15-12.06-8.24-17.94c-3.73 6-10.95 12.56-12.23 12.39s-7.05-11.25-9.64-17.3c-1.82 4.94-6.25 13.11-7.36 13.11s-8.12-10.29-10.43-14.32c-2-.45-4-1.06-5.8-1.51-2.87 15.62-5.54 19.56-10.33 27.67a51 51 0 0 0 .9 9.22c-2.16.46-4.13 4.14-4.28 8.27-4.08 4.33-2.82 14.82 5.05 21.71l-.76 1.09s-1.93 8.52-2.11 8.59 3.81 7.87 3.81 7.87c3.37 2 4.06 10.52 3.48 16.06l.69 10.81 5.16.71c.91 7.15 3.73 15 7.26 23.48a10.09 10.09 0 0 1 .88 5.95c-5.72 51-15.46 80.38-34.25 93.1a17.07 17.07 0 0 0-1.91 4.08 5.42 5.42 0 0 1-2.37 3.12 64.51 64.51 0 0 0-8 7.41c-1.37 13.91-5 23-10.74 28.94-1.26 1.31-2.32 1.1-3.88-.41-7.82-7.56-7.21-30.14-5.95-30.69.6-.27 3.88 2.37 6.2 4.78a48.83 48.83 0 0 1 1.8-13.86c-1.92 1.26-7 1.21-10.14 1.21-1.36 0-2.16.46-2.47 1.67-1.28 5.14-3.32 16.33-4.28 20.91-.46 2.22-1.46 3.06-4.28 3.53-18.21 3-38.11-4.13-37.86-6.55.16-1.55 22.28-5.9 31.5-7.71-.1-7.66 1.26-19.26 3.43-25.1a68.14 68.14 0 0 1-8.31 3.53 2.93 2.93 0 0 0-1.77 2.57 117.16 117.16 0 0 1-3.78 15c-.71 2-2.32 2.62-4.48 2.67-15.84.37-34.88-15.12-34.33-16.38.43-1 17.19 3 28.28 3.32.8-5.54 2.37-12.55 3.37-16.88.43-1.83 2-2.62 3.63-3 4.44-1.11 10.94-3.42 14.23-5.37a27.74 27.74 0 0 1-1.14-9.28c-16.87 5.58-37 1.08-37.1-.47s17.07-10.21 27.09-13.37a59.65 59.65 0 0 1 15.79-2.69c9.81-12.43 21.17-33.4 28.63-51.48a19.12 19.12 0 0 1 3.99-6.68c4.93-5.55 13.81-22.5 4.16-58.73-4.66 6.48-7.39 13.73-7.59 19.73-.08 2.62-1.16 3.72-3.45 4-3.36.39-8.55.82-12.29 1a11.19 11.19 0 0 0 .62 5.47c1.14 2.38.86 4.08-3.55 8.74l-7.2-2.4c.38-4.42-2.31-10-6-14a17.16 17.16 0 0 0-6-3.17s-5.76-15.94-6-16.09c5.14-1.34 12.73 4.47 17.72 10.47 3.3 4 10.42 2.59 15.89.67 2.4-.84 2.71-1.68 2.4-4.13-.9-7-1.39-12.72.43-16.75 1.34-3 6.1-6.39 10.37-8.88a68.19 68.19 0 0 0-3.09-9.45 4.36 4.36 0 0 0-2.93-2.57c-8.58-2.86-20.36-8.52-29.28-13.61-.46 1.61-1.46 3.93-2 4.08s-1.26-.6-2.27-1.81c-.9.85-1.76 1.56-2.57 2.32 1.26 4.53 2.73 11.59 1.87 13.15s-11.75 1.06-17.39.61c1.91 4.89 2.82 14 2.17 15.27s-9.63 1.31-17.29.65c1.36 6.76 1.31 16.3.64 17.44s-10.35.27-20.63-1.27c-2.73 8-5.47 11.86-9.65 16.24-5.94 6.23-14 20.52-23.89 46.37 11.05 10.65 17.65 34.65 15.47 35.83-1.39.78-15.06-13.54-22.89-23.35a40 40 0 0 1-6.08 7.76 55.38 55.38 0 0 1-1.7 8.93c2 4.37 4.53 9.62 7.12 15.34a2.32 2.32 0 0 1-.38 2.81 81.62 81.62 0 0 0-6.48 8.88 4.62 4.62 0 0 0-.63 3.51c.83 7.43 6.25 15.07 5.43 16.14-1.1 1.45-12-4.47-18.62-17.7-.87-1.75-.8-3.12.65-5-3.58 2.61-6.47 4.62-10.89 7.64-1.35.92-1.45 1.25-1.53 2.93-.25 5.23 1.85 19.62.16 20.07-2.25.59-10.13-13.91-11.86-25.05-.31-2 0-3.1 1.49-4.22 2.09-1.58 7.19-5.31 10-7.56a2.53 2.53 0 0 0 1-2.81c-.69-4.44-1.12-7.44-1.53-11a18.24 18.24 0 0 1-4.54-5.31c-.17 3.4-.36 10-.56 13.57a3.32 3.32 0 0 1-1.68 2.89c-3.18 2.12-8.23 5-12.18 7.14a3.83 3.83 0 0 0-2.17 3.58c-1 9 .81 25.9-.91 26.16-1.5.22-12.35-15-12.36-35.64 0-1.69.31-2.5 2.25-3.6 2.8-1.58 8.53-5 11.66-7.15a3.07 3.07 0 0 0 1.58-2.79c.78-11.54 2.15-42.88 3.09-48.59s7.17-21.76 11.8-28.83c3.51-5.34 25.79-34 28.31-36.41s13.31-9.32 19.26-12.85a11.7 11.7 0 0 0 4.65-5.24c4.31-8.51 17.47-26.35 26.3-41.54-5.6-10.58-3.38-22.58-.81-39.51.26-1.7 1.51-2 2.72-.86 3.42 3.28 9 10.69 12.3 15.57a26.63 26.63 0 0 1 2.1-2.75 22.49 22.49 0 0 0-2.49-8.67 18.81 18.81 0 0 1-2.58-7.33c-.75-6.13-1.75-16.36-1.89-21.06-.08-2.79 2.22-3.69 2.62-.41.59 4.72 1.85 13.44 2.63 19.89a10.37 10.37 0 0 0 1.54 4.37 62.25 62.25 0 0 1 4 8.61 69.7 69.7 0 0 1 8.33-6.81 77 77 0 0 1 5.23-18.78c-.45-6.23.44-13.15 1.81-17l19.24-13.83 46.48 17.44c9.23 1.04 21.8 8.16 28.25 12.6zM48.79 336.55c.65 5.31 1.81 13.39 2.06 17.07 1.52-1.59 3-3.35 3-4.4s-2.68-8.56-5.06-12.67z" fill="#30363a"/><path d="M180.19 177.5a15.55 15.55 0 0 1 2.84 2.47 51.21 51.21 0 0 0 4.63 3.94 4.42 4.42 0 0 0 2.62.69 45.32 45.32 0 0 1 8.85.87c.68.13 1.1-.19.65-.87-1-1.61-1.86-3-2.9-4.85a31.08 31.08 0 0 1-6.48-3.09c-1.82-1.27-3.16-1.24-4.7-.27a11.05 11.05 0 0 1-5.51 1.11zM196.64 173.02a107 107 0 0 0 6.57 9.41c.55.7 1.22 1.07 2 .3 2.93-2.82 5.49-6.47 5.85-9.68.15-1.36.89-2 2-3 3.84-3.43 8.43-8.13 9.33-10.84a47.87 47.87 0 0 0 2.52-10.94c.05-1.56.86-3.22 2.62-3.07a77.29 77.29 0 0 0 16.13-1.46 19.8 19.8 0 0 1 7.36-.1 2.73 2.73 0 0 1 1.91 1.06c2.22 2.52 4.94 4.23 6.15 4.13a8.29 8.29 0 0 0 3.23-1.56 4.79 4.79 0 0 1 2.92-.76c1.92.1 4.09.2 5.45.2a6.55 6.55 0 0 1 3.22.91 10.79 10.79 0 0 0 4 .86 29.2 29.2 0 0 1 10.06 2.49c-9.85-8.11-42-26.78-60.26-33.31a13.7 13.7 0 0 1-5.24-3.29c-6.32-6-16.22-8.23-21.46-8 .66 4.89 4.15 9.61 7.41 12.8 11 10.68 11.67 20.84-6.58 44.56-1.59 2.06-2.08 3.68-1.51 5.67a49.67 49.67 0 0 0 2.48 6.79 23.12 23.12 0 0 1-6.16-3.17z" fill="#e50044"/><path d="M226.91 196.27c7.87-7.93 12.59-18.08 15.46-33.7 1.76.45 3.83 1.06 5.8 1.51 2.31 4 9.32 14.32 10.43 14.32s5.54-8.17 7.36-13.11c2.59 6.05 8.37 17.14 9.64 17.3s8.5-6.41 12.23-12.39c2.09 5.88 7.2 17.77 8.24 17.94s3.19-1.81 4.8-3.56c-1.38-3.43-3-7.19-4-9.75a26.82 26.82 0 0 1-1.54-8.6 18.2 18.2 0 0 0-2.64-8.82 51.26 51.26 0 0 1-10.15-3.86c-4.74-2.37-16.92-2.06-23.69-.56-1.36.3-3 .51-3.58-.5s-2.87-4.29-3.88-4.69-4.64-.66-5.74-.15a10.79 10.79 0 0 1-4.09.75c-3.88.11-8.82.41-10.28.31a4.26 4.26 0 0 0-3.28 1.31 5.52 5.52 0 0 0-1.61 3.63c-1 8.62-3.12 15.92-5.79 17.39-3.68 2-5.85 4.05-7.31 6.9-2.12 4.13-4.67 10.79-4.54 12.3.25 2.82 3 9.15 6.15 14.42.66 1.1.71 3.32-.1 5.34s-1.66 4.18-1.36 5.19a10 10 0 0 0 1.51 2.92 2 2 0 0 0 1.81 1c1-.1 3.49 2.36 3.33 5.65-.15 3.07-.16 8.07 1 10.88a5.34 5.34 0 0 1-.2 4.34c-.76 2-.61 6.09.25 10.38.2 1 .81 1.56 1.51 1.51s2.16 1.6 2 4.24a78 78 0 0 0 1 10c.55 4.23.91 9-.56 11.74-.5 1-.52 2.92.41 3.68 3.62 3 6.81 6.09 7.86 8.12 1.61 3.12 2 7.15 2.22 10.43.19 3.67 2.57 7.68 4.73 7.91a8.28 8.28 0 0 1 6.86 6c.75-6.85.2-16.38-1.56-21.62a66.92 66.92 0 0 1-2.93-15.81 10.54 10.54 0 0 0 .62-2l-4.52-.62-.69-10.81c.58-5.54-.11-14-3.48-16.06 0 0-4-7.8-3.81-7.87s2.11-8.59 2.11-8.59l.76-1.09c-7.87-6.89-9.13-17.38-5-21.71-1.02-3.47-2.09-7.71-1.76-11.54zM201.24 393.87c.62-7.45 2-18.38 5-24.68.74 10 2.22 16.66 5.31 22.78 14.72-6.38 29.21-28.66 33.92-69a7.4 7.4 0 0 0-1.91-3.16 6.11 6.11 0 0 1-1.78-2.76 14 14 0 0 0-4.47-6.11c-1.71-1.19-3.09-3.62-3.09-7.63a5.25 5.25 0 0 0-1.64-4.41c-3.55-3.94-9-9.66-9.8-9.53s-2.73 4.06-3.81 6.84a5 5 0 0 0-.27 3.61c1 4.41 2.16 11.95.2 13.35-3.42 2.44-6.83 5.09-8.22 7.37s-2.88 7.77-3.48 12.23c-.26 1.88-1.57 1.75-1.32-.13.57-4.17 1-7.5 1.25-12.1a5.18 5.18 0 0 1 .92-3 19 19 0 0 1 3.62-3.55c1.7-1.31 3.31-4.3 2.57-10.25a5.52 5.52 0 0 1 .8-4c1.82-2.89 3.41-8 2.42-9.61-.33-.54-3.15.32-5.3 1.14a4.27 4.27 0 0 0-2.44 2.09 4.45 4.45 0 0 1-2.69 2.41 10.29 10.29 0 0 0-3.83 1.57 7.73 7.73 0 0 0-1.77 4 3.44 3.44 0 0 1-1.16 2.62 10.6 10.6 0 0 0-2.32 3 10 10 0 0 1-5.47 4.45c-4.54 8.81-13.81 26.28-22.08 36.7a25.63 25.63 0 0 0 8-1.83c2.22-.86 6-1.41 8-.2a63.3 63.3 0 0 0-18.7 12.7c-4.13 4.13-3.34 9.11-1.9 15.14 3.31-6.22 7.35-11.46 12.74-14.28a67.46 67.46 0 0 0-6.76 19.2 40.21 40.21 0 0 0 6.1 8.16l2.42-.45c3.83-8.11 7.36-14.31 11.7-19.25-2.37 7.31-4.09 16-3.48 21.37a16.84 16.84 0 0 0 3.83 5 3.4 3.4 0 0 0 2.82 1 25.58 25.58 0 0 0 6.07-.8z" fill="#e50044"/><path d="M219.54 256.37a4.22 4.22 0 0 1-.76-2.77 13.75 13.75 0 0 0-.55-3.83 109.79 109.79 0 0 1-1.2-18.65 14.31 14.31 0 0 0-2.37-8.47c-1.82-2.42-3.67-4.86-5.09-6.65-.76-1-1.06-1.31-.81-2.47a45.53 45.53 0 0 1 1.76-5.45 3 3 0 0 0 0-2.62 107.88 107.88 0 0 0-5.79-12.55 5.29 5.29 0 0 0-4.3-2.94 68.49 68.49 0 0 0-13.76-1.46c-1.46.05-2.18-.09-3-1-2.57-2.82-5-5.73-6.25-6.86-1.66-1.51-3.23-1.76-7.11-1.56-1 3.83-2.16 8-3.07 11.09 8.92 5.09 20.7 10.75 29.28 13.61a4.36 4.36 0 0 1 2.93 2.57 68.19 68.19 0 0 1 3.09 9.45c-4.27 2.49-9 5.92-10.37 8.88-1.82 4-1.33 9.76-.43 16.75.31 2.45 0 3.29-2.4 4.13-5.47 1.92-12.59 3.3-15.89-.67-5-6-12.58-11.81-17.72-10.47.24.15 6 16.09 6 16.09a17.16 17.16 0 0 1 6 3.17c3.74 3.93 6.43 9.55 6.05 14l7.2 2.4c4.41-4.66 4.69-6.36 3.55-8.74a11.19 11.19 0 0 1-.62-5.47c3.74-.19 8.93-.62 12.29-1 2.29-.27 3.37-1.37 3.45-4 .2-6 2.93-13.25 7.59-19.73 9.65 36.23.77 53.18-4.16 58.73a19.12 19.12 0 0 0-3.93 6.68c-.56 1.37-1.15 2.75-1.76 4.14 2.44-3.12 5-6 6.43-6 1.66 0 6.77-3.3 7.56-7.87.25-1.46 1.56-2.92 3-2.57s2-.23 3.33-1.11 2.32-1.51 2.93-2a1.44 1.44 0 0 0 .47-2 2.4 2.4 0 0 1-.45-2.47c1-3.58 1.81-6.35 1.86-8.67a24.36 24.36 0 0 0-.55-6.65 22.09 22.09 0 0 0-2.43-4.99zM93.72 265.19a4.73 4.73 0 0 1-.61-4.13 10.89 10.89 0 0 0-.2-4.51 6 6 0 0 1 .8-4.23 117.64 117.64 0 0 1 6.59-11.22c1.26-2 1.07-3.16.74-4a6.46 6.46 0 0 1-.27-3.43c-4 7.06-9.54 13.51-10.62 15.73-.84 1.73-6.72 5-10.28 6.52-1.6.7-2.15 1.81-2.49 3.56-.62 3.24-1.61 6.86-2.62 10.35a9.88 9.88 0 0 1-3.63 5.24 76.47 76.47 0 0 0-7.39 6.66c-1.59 1.62-2.49.06-1.14-1.28 3-3 6.92-7.8 8.33-10.62.75-1.51 1.75-8.13 1.75-10.15a4.47 4.47 0 0 1 1.95-4.1 22 22 0 0 0 4.43-5c.77-1.27 1.36-1.57 3.3-2.22a15 15 0 0 0 5-3.49c.55-.61 1-1.21 1.68-1.28 2.08-.21 7-7.86 10.21-14.72 1.5-3.25 1.28-8.87.47-9.27s-5 2-7.73 3.76a8.16 8.16 0 0 1-3.22 1.48 38.52 38.52 0 0 0-9.88 3.5 51.82 51.82 0 0 0-5.65 4.36c-1.29 1.05-3.76 1.55-4.9 1a6.74 6.74 0 0 0-4-.07 7.15 7.15 0 0 1-4.4-.47c-14.59 20.91-35.19 67.81-33 87a79.26 79.26 0 0 0 13-9.83c-1.78 6.49-4.42 11.38-9.25 17.36 2.41 2.44 6.16 4.45 8.17 3.87s5-5.27 6.67-8.61a32 32 0 0 1 6.71-8.8 55.51 55.51 0 0 1-3.4 16.46c4.51-.19 8-4.14 9.91-9 1.18-2.95 2.61-6.16 3.72-7.5a24.34 24.34 0 0 1 .29 9.16c6.14-6 8.06-10.75 6.44-13.7a34.45 34.45 0 0 1-3.22-8c6.68 6.05 9.28 4.23 10.28 1.69 4.67-11.96 10.15-26.18 17.46-38.07zM164.9 194.24l-1.87-1.78a6.11 6.11 0 0 0 1.87 1.78z" fill="#e50044"/><path d="M109.78 240.63c10.28 1.54 19.95 2.42 20.63 1.27s.72-10.68-.64-17.44c7.66.66 16.63.66 17.29-.65s-.26-10.38-2.17-15.27c5.64.45 16.53 1 17.39-.61s-.61-8.62-1.87-13.15c.81-.76 1.67-1.47 2.57-2.32-2.36-3.94-6.5-10.91-9.07-13.52-2.65 5.05-5.51 11.4-7.62 14.28-1.3 1.78-3 .91-3.22-1a24 24 0 0 0-2.48-7.93 4.63 4.63 0 0 0-1.18 2c-.13.6-1.14 1.21-2.08 1.68-3.21 1.6-6.12 3.63-11.16 6.79-.67 1.94-1.14 3.29-1.48 4.16a1.63 1.63 0 0 1-1.81 1.14c-1 0-4 2-7.46 4.44a8.72 8.72 0 0 0-2.49 2.35c-1.23 2-4.77 7.73-4.9 8.87a5.43 5.43 0 0 1-1.28 3.09c-2.07 2.56-1.68 5.92-.47 13.71a5.09 5.09 0 0 1-.4 3.43c-2.13 4.25-4.64 8.87-6.59 12.84a6.24 6.24 0 0 0-.74 3.49c.1 1.77.17 3.5.35 6 .42-.49.83-1 1.23-1.38 4.18-4.41 6.9-8.25 9.65-16.27zM114.9 171.34c-5.67 6.58-11.28 14.95-21.25 30.37a16.63 16.63 0 0 1-5.62 5.78c-10 6.15-21.8 14.86-23.48 19.76 2.42.41 4 .67 6.65 1.08 1.06.16 1.68-.2 2.82-1.21a41.4 41.4 0 0 1 7.93-5.65 6 6 0 0 1 3.5-1c3.29.15 6.38-1.54 10.68-3.89a7.87 7.87 0 0 1 2.82-1c2.21-.3 5.08-2.16 5.65-3.5.81-1.88 4.84-6.65 7-9.61a4.48 4.48 0 0 1 1.75-1.54c2.32-1.27 5.37-2.89 7.52-4.17a4.36 4.36 0 0 0 2.49-3.29 2.73 2.73 0 0 1 1.21-2.29c.79-.6 1.75-1.27 2.82-1.94a131.82 131.82 0 0 0-12.49-17.9zM137.19 130.48a21.64 21.64 0 0 0-6.78 6.45 44 44 0 0 0 6.92 34.81c2.18 3.19 3.69 5.34 4.37 7.39a44 44 0 0 0 .57-9.17c-3.9-10.48-5.85-23.27-5.08-39.48z" fill="#e50044"/><path d="M151.54 169.68a6.26 6.26 0 0 1 .2 2.82 110.84 110.84 0 0 1-5.89 21c3.22-3.78 8-16 12.4-21.88a6.74 6.74 0 0 0 1.26-3.78c.25-6.4.05-15.47-.76-20a2.13 2.13 0 0 1 .55-2.82c4.79-4.08 9.78-10.44 11.4-11.24 2.42-6.86 4.48-13.46 9.12-18.7-3-1.67-9.73-4.59-10.94-4.24a10.36 10.36 0 0 0-4.48 2.32c-2.63 2.83-5.29 13.56-5.5 18.8a12.63 12.63 0 0 1-1.31 6.1 96.62 96.62 0 0 0-5.8 13.86c2.83 3.58 4.34 6.81 4.24 9.88s-1.77 5.25-4.49 7.88zM186.25 124.9a26.32 26.32 0 0 1-5.64-8.9c-1.35 3-4 8.26-3.8 10.18s-.8 3.76-1.61 5.57-.56 2.84 1.34 1.92a7.76 7.76 0 0 1 2.93-.87c.67 0 2.65.1 2.82-1.31s1.58-2.73 3.56-3.2c.07-1.14.24-2.25.4-3.39z" fill="#e50044"/><path d="M181.09 137.67c-2.28-.49-6.13-1-7.62-.32a12.31 12.31 0 0 0-5 5.37 7.63 7.63 0 0 0-.25 6.55c.9 2.49 2.89 7.94 3.87 11.44.61-5.74 3.34-7.57 9.85-7.28a43.55 43.55 0 0 1-.85-15.76z" fill="#e50044"/><path d="M152.03 151.97c-1.17 2.85-2.29 6.24-2.26 7.68a45.21 45.21 0 0 0 1.81 10.06c2.71-2.68 4.7-5.53 4.57-8.56a16.41 16.41 0 0 0-4.12-9.18z" fill="#00b7de"/><path d="M150.21 159.14c-.27.24-.06 1.43.75 2.38 1 1.15 2 1.4 2.25 1.2s.14-1.46-.77-2.49-1.98-1.33-2.23-1.09z" fill="#fff"/><path d="M156.03 175.2l-1 1.88c3.94 3.8 8.47 13.48 9.45 13.24s1.47-4.8 1.61-7.46c-3.46-.3-6.42-2.65-10.06-7.66z" fill="#923000"/><path d="M158.75 147.85a129.14 129.14 0 0 1 .76 19.76 6.83 6.83 0 0 1-1.26 4c-.91 1.31-1.33 2.14-2.2 3.56 3.41 4.4 6.43 7.5 10 7.66.55-4.67 1-11.94.5-14.19-1.3-5.87-5.78-16.67-7.8-20.79z" fill="#ed8599"/><path d="M202.51 215.97a34.4 34.4 0 0 0-1.3-4.7c-8.8.79-17.13 7.08-18.05 13.31-.78 5.33 2.34 15.89 8.17 19.93.49-.74.59-1.62.28-3.88-.65-4.86-1-12.23.33-15.35 1.47-3.57 6.73-7.57 10.57-9.31z" fill="#30363a"/><path d="M249.76 232.29c-.06-2.68 0-6.69 1.41-9.2 4-7-5.57-18.28-7.93-18s-3.89 8.19-3.09 12.29 1.41 8.2 2.15 10.76-.06 5-1.07 5.31-2.44-1.45-4.57-4c-4.37-5.31-7.93-15.45-8-21.67-3.16 4.4-4.7 11.33 5.38 22.08l-1.09.72a6.62 6.62 0 0 1 2.51 8.1 17.72 17.72 0 0 0-.81 8.36c3.54 2.37 3.64 10.14 3.44 15.78a43.74 43.74 0 0 1 2 5.44 2.47 2.47 0 0 0 1.92 2.07c.8.1 1.71 2.52 1.56 4.64a78.8 78.8 0 0 1 5.24-12.6 6.7 6.7 0 0 0 .91-3.63c0-1.06-.05-3.33 0-4.89-1 .6-1.49.1-1.56-.86-.9-11.14-1.61-18.45 1.6-20.7z" fill="#e50044"/><path d="M242.35 205.62c-1.93-5.41-7.66-7.4-10.41-5.68s-4.38 8.39-2.39 14.75c2.16 6.94 6.25 14.76 9.38 17.81 2 2 3.6 1 3.51-2.61 0-1.94-1.67-8.64-2.16-12.77-.54-4.51.28-9 2.07-11.5z" fill="#30363a"/><path d="M170.29 267.86c-3.15-.82-5.34-2.62-5.79-2.27s2 6.35 8.46 10a2.9 2.9 0 0 0 3.53-.2c1.82-1.26 4.63-4 4.49-5.14-.1-.81-2.42-2.62-3.83-3.33s-2.37-.55-3 .26c-.83 1.11-1.92 1.19-3.86.68zM161.32 242.66c-1.36 2.72 1.41 11.19.86 11.64-1.11.91-8-4.46-9.33-9.67-.35-1.42.91-9.42 2.42-9.83 1.67-.46 4.79 1.37 6.15 3.37.96 1.42.8 2.69-.1 4.49z" fill="#888"/><path d="M153.23 239.77a3.7 3.7 0 0 0-4.65 2.39l-.06.2c-1.21 3.63-1.8 9.15-1 10.73 2.67 5.35 11.62 6.57 11.79 5.7.06-.25-1.73-1.44-3.52-3.43-.91-1-1.09-3.26-.6-6.32-1.28-1.77-2.38-3.85-2.42-4.72a15.52 15.52 0 0 1 .46-4.55zM239.78 267.5c-.77-2.7-3.51-8.19-4.08-8s-.71 10.68 0 13c.85 2.87 3.23 5.47 4.64 5.37 3.64-.24 3.4-6.93 1.5-7.54-1.03-.36-1.58-1.14-2.06-2.83zM235.62 233.89a5.68 5.68 0 0 1-.05 4.64c-2.47 6.6.76 15 .35 15.42-.76.86-6.66-4-7.86-8.06s-1.11-10.61.45-13.41c1.76-3.18 5.04-3.38 7.11 1.41zM248.57 254.15c1.09.34 7.26-6.8 7.56-15.62.14-3.95-1.09-6.93-3.58-7.16-2.22-.2-4.66 1.22-4.89 6-.42 8.87.47 16.6.91 16.78zM172.03 174.72c4.43 2.72 10 3.89 13.66 1.69a3.84 3.84 0 0 1 4.28 0 34 34 0 0 0 6.94 3.51 32 32 0 0 1-2-8 33.74 33.74 0 0 0 7.9 4.44 34 34 0 0 1-2.52-7 6.24 6.24 0 0 1 1.27-5.57c16.22-20.59 19.19-33.14 7.29-44.26-12.44-11.63-7.73-23.68-4.23-25.4 22-10.81 26.13-43.8 6.32-49.06-7.59-2-9.66-6.34-9.21-11.49.92-10.53-5.44-14.79-20.9-10.89-6.63 1.67-10-1.12-10.48-8.74a16.15 16.15 0 0 0 .62-7.59 6.44 6.44 0 0 1 1.86-6c-3 .4-4.63 1.76-5.29 4.84a26.18 26.18 0 0 1-3.78 8.62c-8.26 13.65-9.42 31.9 9.63 28.93 7.76-1.21 12.52 4.38 12.5 8.72-.05 8.06-6.66 8.77-9.13 10a7.65 7.65 0 0 0-5-9.62c1.31 2.67 1.21 5.14-.95 8.17s-5.5 7.66-10.44 10.63c-14.74 8.88-17.94 16.69-17.12 33.49 2.56-5.31 4-8 5.18-9.29s2.37-1.67 3.27-.26c3.53 5.55 5.5 13.36 5.3 21.43a20.1 20.1 0 0 1 2.87-6.81 21.07 21.07 0 0 0 2.47-4.33c.65-1.57 3.63-7.41 4.28-8.93a9.77 9.77 0 0 0 .66-4c.1-3.63.5-9.17.6-11.14s1.87-2.62 2-.1 0 11.29 0 14.12a8 8 0 0 1-1 3.83c-1.31 2.62-3 6.4-3.68 8.26a7 7 0 0 0-.55 3.38 6.4 6.4 0 0 1-.36 3c1.77-1.27 3.55-2.37 4.69-2.42 1.68-.06 8.47 2.83 9.88 3.67a5.32 5.32 0 0 1 2.55 3.09 23.54 23.54 0 0 0 4.91 7.46 41.86 41.86 0 0 0 0 9.88 28.87 28.87 0 0 0-4.1-6.52 13.84 13.84 0 0 1-.4 6.58 33.71 33.71 0 0 0 .22 18.18c-7-.3-9.08 2.57-10 7.31 1.63 4.31 2.08 7.63-.01 14.19zM259.17 111.81a67.59 67.59 0 0 0 10.41 10.64 12.42 12.42 0 0 0 5.7 2.68c2.15.4 12.88 4 15.52 5.64a7.1 7.1 0 0 0 4.18.92 29.91 29.91 0 0 1 7.5.41c-8.66-5.13-29.06-15.58-43.31-20.29zM319.4 144.89a40.64 40.64 0 0 0 3 11.51 175.23 175.23 0 0 1 8.68 34.57 4.12 4.12 0 0 0 1.95 3.1c5 4.13 12.72 10.54 15.58 13.72a2.58 2.58 0 0 0 2.61.85 34.51 34.51 0 0 1 7.46-.36c1.06.11 1.8-.25 1.82-1.05 0-3.43.15-7.26 0-11.09-14.3-19.41-30.54-41.07-41.1-51.25z" fill="#888"/><path d="M162.28 207.97c.86-1.56-.61-8.62-1.87-13.15.81-.76 1.67-1.47 2.57-2.32-2.36-3.94-6.5-10.91-9.07-13.52-2.65 5.05-5.51 11.4-7.62 14.28-1.3 1.78-3 .91-3.22-1a24 24 0 0 0-2.48-7.93 4.63 4.63 0 0 0-1.18 2c-.13.6-1.14 1.21-2.08 1.68-3.21 1.6-6.12 3.63-11.16 6.79-.67 1.94-1.14 3.29-1.48 4.16a1.63 1.63 0 0 1-1.81 1.14c-1 0-4 2-7.46 4.44a8.72 8.72 0 0 0-2.49 2.35c-.82 1.34-2.67 4.34-3.85 6.52 3.53 5.56 4.18 15 .08 29 .2-.56.41-1.13.62-1.73 10.28 1.54 19.95 2.42 20.63 1.27s.72-10.68-.64-17.44c7.66.66 16.63.66 17.29-.65s-.26-10.38-2.17-15.27c5.64.38 16.53.9 17.39-.62zM93.65 201.71a16.63 16.63 0 0 1-5.62 5.78c-1.55.95-3.15 2-4.74 3 8.81-4.16 17.2-4.68 22.6-.6 1.59-2.26 4.11-5.32 5.66-7.45a4.48 4.48 0 0 1 1.75-1.54c2.32-1.27 5.37-2.89 7.52-4.17a4.36 4.36 0 0 0 2.49-3.29 2.73 2.73 0 0 1 1.21-2.29c.79-.6 1.75-1.27 2.82-1.94a133.09 133.09 0 0 0-12.48-17.88c-5.63 6.64-11.24 14.96-21.21 30.38zM129.54 187.97q1.47-.76 3-1.38a3.42 3.42 0 0 0 1.81-1.34 54 54 0 0 0 3.35-5.36 21.21 21.21 0 0 1-4-5 64.78 64.78 0 0 1-6.11-15.85c-1.82 1.54-3.46 3-5 4.39 1.05 8.4 4.23 17.78 6.95 24.54zM251.03 143.67a2.73 2.73 0 0 1 1.91 1.06c2.22 2.52 4.94 4.23 6.15 4.13a8.29 8.29 0 0 0 3.23-1.56 4.79 4.79 0 0 1 2.92-.76c1.92.1 4.09.2 5.45.2a6.55 6.55 0 0 1 3.22.91 10.79 10.79 0 0 0 4 .86 29.2 29.2 0 0 1 10.06 2.51c-9.85-8.11-42-26.78-60.26-33.31a13.52 13.52 0 0 1-3.4-1.75 29.36 29.36 0 0 1-12.41 7.07c7.37 9.47 6 19.84-10.06 40.72-1.59 2.06-2.08 3.68-1.51 5.67a49.67 49.67 0 0 0 2.48 6.79 23.27 23.27 0 0 1-6.11-3.19 107 107 0 0 0 6.57 9.41c.55.7 1.22 1.07 2 .3 2.93-2.82 5.49-6.47 5.85-9.68.15-1.36.89-2 2-3 3.84-3.43 8.43-8.13 9.33-10.84a47.87 47.87 0 0 0 2.52-10.94c.05-1.56.86-3.22 2.62-3.07a77.29 77.29 0 0 0 16.13-1.46 19.74 19.74 0 0 1 7.31-.07zM199.43 206.37a68.19 68.19 0 0 1 3.09 9.45l-.14.08.13.1c.54 2.05 1 3.46 1.35 5.14-7.53 2.28-8.81 10.25-7.06 28.36.21 2.08-1.74 2.22-3.69 2.42s-5.91.71-8.81 1c-2.21.2-2.94 1.08-3.07 3a25.11 25.11 0 0 0 .45 5.47c.47 2.42-.43 4.57-2.58 6.59a7.77 7.77 0 0 1 1.81 1.81 22 22 0 0 0 2-2c1.68-2.08 2.22-3.43 2.09-4.7a5.49 5.49 0 0 0-.58-1.68c-.61-1.14-.81-3.93-.67-5.65 5.54-.33 9.61-.6 12.33-.94a3.4 3.4 0 0 0 3.34-2.71 1.7 1.7 0 0 0 .06-.31v-.08a8.69 8.69 0 0 0 .07-.88 25.53 25.53 0 0 1 .42-3.71 37.62 37.62 0 0 1 7.17-16 115.54 115.54 0 0 1 4.3 28.87c2.66 8.85 6 14.74 8.94 17.24a4.13 4.13 0 0 1 .13-.61c1-3.58 1.81-6.35 1.86-8.67a24.36 24.36 0 0 0-.55-6.65 22.29 22.29 0 0 0-2.32-4.94 4.22 4.22 0 0 1-.76-2.77 13.75 13.75 0 0 0-.55-3.83 110.8 110.8 0 0 1-1.16-18.65 14.31 14.31 0 0 0-2.37-8.47c-1.82-2.42-3.67-4.86-5.09-6.65-.76-1-1.06-1.31-.81-2.47a45.53 45.53 0 0 1 1.76-5.45 3 3 0 0 0 0-2.62 107.88 107.88 0 0 0-5.79-12.55 5.29 5.29 0 0 0-4.3-2.94 68.49 68.49 0 0 0-13.76-1.46c-1.46.05-2.18-.09-3-1-2.57-2.82-5-5.73-6.25-6.86-1.66-1.51-3.23-1.76-7.11-1.56-1 3.83-2.16 8-3.07 11.09 8.92 5.09 20.7 10.75 29.28 13.61a4.37 4.37 0 0 1 2.91 2.58zM162.18 239.18a30.17 30.17 0 0 1 11.37 13.34c2.15 5-.16 6.87-3.38 4.32a13.42 13.42 0 0 0-8.6-6.42c-.7-3.27-1.26-5.89-.5-7.21a7.74 7.74 0 0 0 1.11-4.03zM235.31 239.38a24.1 24.1 0 0 1 6.05 6.16c.94 1.32 1.73 1.37 2.77.14a19.09 19.09 0 0 0 3.54-6.11 77.31 77.31 0 0 0 .29 11.59 44 44 0 0 1-.81 8.57c-.4 1.27-3.32 6.67-4.23 11.29-.75-.89-2.31-.89-2.92-2.81a47.43 47.43 0 0 0-1.87-5.16c.41-5.37.14-13.19-3.48-16.06a22.68 22.68 0 0 1 .66-7.61z" fill="#c6003a"/><path d="M252.12 217.58c-2.29 3.56-7.26 3.76-11.5 1.74.88 5.72 3.07 13 .54 14.05-3 1.28-12.37-14.65-12.5-25.64-3.36 4.81-4.23 12.35 5.75 22.43 2.11.81 5.22 5.31 8.77 9.53.8.95 1.68.86 2.11-.16 1.21-2.82 2.37-5.39 4.49-7.35-.96-6.41 3.06-11.36 2.34-14.6z" fill="#c6003a"/><path d="M169.08 98.25c5.46-2.29 11.85-2.87 18.18.44s6.47 10.93 2.82 16.8c-2.41 3.9-3.49 6.65-3.89 9.28-1.68-1.21-4.3-5.78-4.91-7.4a5 5 0 0 0-2.69-3.09c-1.34-.67-8-3.49-9.61-3.36s-2.82 1-4.63 2.22a5.29 5.29 0 0 0 .35-2.64c-.46-3.43 2.42-8.06 4.38-12.25zM156.48 107.97a32.34 32.34 0 0 1 7.38-6.87c-1.28 3-2.39 5.93-3.6 7.4a17.88 17.88 0 0 0-3.27 8 40.63 40.63 0 0 0-.51-8.53z" fill="#717171"/><path d="M199.74 146.42c-4.21 1.06-10.33-4.11-12.21-8.75 1.37 4.59 2.39 14.87 1.05 21.23-.28 1.34-.71 1.15-1.36 0-3-5.12-4.94-15.5-4.12-21.87.47-3.69.33-5.44-.54-7.72a15.76 15.76 0 0 1-.86 5.74 28.26 28.26 0 0 0-.68 3 40.64 40.64 0 0 0 .92 15.1c-7-.3-9.08 2.57-10 7.31 1.71 4.34 2.16 7.66.1 14.22 4.43 2.72 10 3.89 13.66 1.69a3.84 3.84 0 0 1 4.28 0 34 34 0 0 0 6.94 3.51 32 32 0 0 1-2-8 33.74 33.74 0 0 0 7.9 4.44 34 34 0 0 1-2.52-7 6.24 6.24 0 0 1 1.27-5.57c16.22-20.59 19.19-33.14 7.29-44.26-12.44-11.63-7.73-23.68-4.23-25.4 13-6.39 19.75-20.54 19-32.13-3.21 12.85-9.92 21.72-18.54 26.36-7.3 3.94-8.79 9-7.79 16.39.94 7 2.75 11.29 6.74 17.14 5.84 8.72 3.16 22.7-4.3 24.57zM203.23 67.42c-.13 6-3.22 12.34-6.94 16.42-1.32 1.45.18 3.3 1.91 1.36 5.71-6.44 6.12-13.93 5.03-17.78zM173.66 52.97a11.33 11.33 0 0 1 .41 9.62 19.57 19.57 0 0 1 2.57-1.23c.76-3.39.05-6.65-2.98-8.39zM166.03 10.24c-8.61 20-3.85 29.94 7.87 28.89 8.7-.77 17.64 4.86 11.93 16.1 1.76-7.7-4.55-13.8-12.79-12.41-10.08 1.7-15-3.37-14.92-10.7.02-10.53 4.09-15.4 7.91-21.88z" fill="#717171"/><path d="M235.53 271.97c-3.65 4.42-7.32 6.33-10.66 6.6a3.33 3.33 0 0 1 .26-.81c1.47-2.78 1.11-7.51.56-11.74a78 78 0 0 1-1-10c.14-2.64-1.24-4.29-2-4.24s-1.31-.5-1.51-1.51c-.86-4.29-1-8.42-.25-10.38a5.34 5.34 0 0 0 .2-4.34c-1.17-2.81-1.16-7.81-1-10.88.16-3.29-2.32-5.75-3.33-5.65a2 2 0 0 1-1.81-1 10 10 0 0 1-1.51-2.92c-.3-1 .55-3.18 1.36-5.19s.76-4.24.1-5.34c-3.11-5.27-5.9-11.6-6.15-14.42-.13-1.51 2.42-8.17 4.54-12.3 1.46-2.85 3.63-4.89 7.31-6.9 2.67-1.47 4.83-8.77 5.79-17.39a5.52 5.52 0 0 1 1.6-3.59 4.26 4.26 0 0 1 3.28-1.31c1.46.1 6.4-.2 10.28-.31a10.79 10.79 0 0 0 4.09-.75c1.1-.51 4.73-.25 5.74.15s3.28 3.68 3.88 4.69 2.22.8 3.58.5c6.77-1.5 18.95-1.81 23.69.56a51.26 51.26 0 0 0 10.15 3.86 18.2 18.2 0 0 1 2.64 8.82 26.82 26.82 0 0 0 1.54 8.6c1 2.56 2.62 6.32 4 9.75-1.61 1.75-3.76 3.73-4.8 3.56s-6.15-12.06-8.24-17.94c-3.73 6-10.95 12.56-12.23 12.39s-7.05-11.25-9.64-17.3c-1.82 4.94-6.25 13.11-7.36 13.11s-8.12-10.29-10.43-14.32c-2-.45-4-1.06-5.8-1.51-2.87 15.62-7.59 25.77-15.46 33.7-.33 3.83.74 8.07 1.75 11.46-4.08 4.33-2.82 14.82 5.05 21.71l-.76 1.09c-1.8-1.34-4.63.5-5.21 3.82s-.63 9.17.45 12c1.57 4.18 7 8.23 7.63 7.5.45-.5-.85-3.23-1.17-6.89 3.37 2 4.06 10.52 3.48 16.06-1-2-1.91-3.61-2.36-3.56s-1.18 8.19-.27 12.56z" fill="#c6003a"/><path d="M159.79 236.6c-1.6 2-2.11 4.79-2 8.05 0 3-2.74 3.82-4.83-.5.32 3.8 7 11.07 9.17 10.21.92-.36-1.08-5.81-1.08-8.17a9.61 9.61 0 0 1 1-5c.59-1.17-.26-3.35-2.26-4.59z" fill="#717171"/><path d="M153.03 245.53a29.68 29.68 0 0 0-1.34 6.1c-.27 1.92-3.07 2.21-4.5-.42-.68 5.28 11.28 9.28 11.67 7.54.15-.65-1.59-1.94-2.63-2.92s-1.74-3.31-1-6.75a14.14 14.14 0 0 1-2.2-3.55zM164.8 266.05c2.45 3.36 7.81 6 8.92 5.94s3.13-1.51 5.49-3.73c1.94 1.1 1.85 2.32 1.13 3.39-1.59 2.36-4.58 4.51-5.85 4.39-4.36-.43-10.13-8-9.69-9.99zM227.22 238.7c.49 6.33 5.78 7.53 7.63 1.47-1.25 6.93 1.72 13.35 1 13.71-1.16.53-9.4-4.22-8.63-15.18zM256.24 240.39c-3.22 6-6.65 5.56-8.51.33-.22 5.23.22 13 1.15 13.26s6.49-5.79 7.36-13.59zM235.77 259.49c.55 4.36 1.27 9.71 2.69 12.33a3.91 3.91 0 0 0 4.63 1.91c.11 2.61-1.47 4.09-2.73 4.09-2.41 0-4.39-2.87-4.8-6.06-.53-4.25-.6-9.06.21-12.27z" fill="#717171"/><path d="M165.91 166.45c-3.62 1.42-6.29 6.36-6.64 12.56a30 30 0 0 1-3.24-3.79c2.62-4 3.36-5.4 3.48-7.66a115.91 115.91 0 0 0-.81-19.71 174.77 174.77 0 0 1 7.21 18.6z" fill="#ce7486"/><path d="M30.31 327.79c-.78 6.18-1.28 11.49-2.05 15.66a3.7 3.7 0 0 1-1.95 2.75c-4 2.63-9 5.25-11.56 6.66s-2.89 2.75-3 5.44c-.37 15.19.68 23.14.47 23.19s-2.82-2-5.28-6.45c1.35 4.2 5.22 9.84 6.05 9.44 1.55-.74 0-20.63.94-26.45.33-2.09.67-2.46 2.42-3.42 3.6-2 8.8-5.22 11.8-7a2.78 2.78 0 0 0 1.68-2.49c.34-4.32.61-12.89.48-17.33zM47.88 332.77c.27 5.77.55 15.12.67 18a3.33 3.33 0 0 1-1.52 3.37c-3.29 2.48-8.55 6.12-11.41 8.23a4.69 4.69 0 0 0-2.11 4.18c.51 11.2 1.7 17.68 1.51 17.79s-3.07-2.67-5.29-6c1.86 4 4.89 9.14 6.05 8.87 1.46-.36-.46-15-.11-20.27a2.93 2.93 0 0 1 1.57-2.77c4.18-2.77 10.18-7.1 12.45-8.92 1-.81 1.26-1.71 1.06-3.48-.62-5.8-1.95-14.94-2.87-19zM60.53 332.62c1.43 3.89 4.42 11.82 5.44 14.71.36 1 0 1.7-.84 2.8-1.91 2.69-4.33 6.09-5.52 8.16a6.36 6.36 0 0 0-1 4.57c1.35 8.53 5.2 13.87 5 14.17s-4-1.21-7.29-4.08c2.33 3 8.42 7.31 9.56 6.17s-3.6-6.58-5.14-16.2a4.48 4.48 0 0 1 .78-3.58 81.58 81.58 0 0 1 6.09-8.13c1.44-1.54 1.17-2.45.3-4.37a158.19 158.19 0 0 0-7.38-14.22zM74.48 305.28c6.09 6.64 14.74 21.65 17 33.56.87-7.29-2.61-19.9-15.23-35.79a5.67 5.67 0 0 1-1.77 2.23zM152.85 96.97c-1-1.88-2.08-1.51-3.56 1.21-8.43 15.53-14.18 44.16-5.51 74.06-11.61-23.6-7.66-59.27 3.83-76.27 2.04-3.06 3.36-3.42 5.24 1zM111.93 122.14c-1.77 9.88-2.93 22.54-2.09 29.57 1.77 14.83 14.28 26.4 18.72 38.23a4.27 4.27 0 0 1-1.82-1.87 135.42 135.42 0 0 0-10-14.36c-5.79-7.24-10.17-17.17-10.43-22-.45-8.37 1.51-25 2.27-29.13.45-2.15 1.53-2.5 3.35-.44zM241.35 207.76c-5.4-8.35-12.55-7.16-11.84 5.24-1.43-5.56-.86-12.29 3.26-13.43 3.74-1 7.79 2.07 9.62 5.8a12.35 12.35 0 0 0-1.04 2.39zM201.64 212.97c-11.63 1.53-18.54 10.48-17.94 17.54-2.49-8.81 5-17.41 17.41-19.29zM378.21 222.69c15.64 5.67 28.54 22.91 28.34 23.31-.11.22-3 0-8.4-1.21 4.07 2.09 9.85 3.35 10.53 2.75 1.53-1.37-15.15-25.07-30.47-24.85zM203.93 393.72c-4.91 3.43-7.45 5.61-8.4 7.46-1.09 2.12-1.75 8.52-2.15 15.22-.81-.81-1.46-1.41-2.22-2.12.5-5.14 1.09-13.37 2.37-14.51a43.29 43.29 0 0 1 10.4-6.05zM193.73 417.61c-3.43-2.87-6.85-5.09-7.36-4.89s0 20.47 6.6 28.58c-9.67-5.85-9.44-31.47-7.91-31.91 1.06-.3 5.49 4.34 8.67 8.22zM180.83 386.91a29.91 29.91 0 0 1-7.71 2.12c-1.8.3-2.18.84-2.42 2a112.72 112.72 0 0 0-2.67 22l-2.52.56c.11-9.53 1.38-20.16 3.23-24.65.71-1.71 1.51-2.16 3.08-2.07a64.51 64.51 0 0 0 9.01.04zM168.43 413.38c-11.8 3.22-30.42 8-30.42 8.32 0 .61 4.11 3.17 10.36 4.78-5.8-.75-13.91-3.58-13.86-5.24s21.06-5.9 33.92-7.86zM166.21 374.26c-3 2.42-8.17 4.74-14.26 6.86a2.19 2.19 0 0 0-1.77 2c-1.41 5.5-2.27 9.88-3.43 16.28l-2.16-.2c.85-5 2.53-14.25 3.32-16.63a4.12 4.12 0 0 1 2.78-3.07c5.54-1.66 10.93-3.37 15.52-5.24zM128.03 404.41c-5.94-3.08-11.94-7.46-11.59-8.57s15.07 2.57 30.7 3.88c-11 1.41-26.31-2.12-26.46-1.79s3.45 3.43 7.35 6.48zM171.21 348.27c-13.06 1.88-40.38 14.77-40.32 15.25s4.89 2.64 12.07 3.06c-7.71.23-15.19-.89-15.31-2.42s19.27-11.84 32.79-15.13a45.76 45.76 0 0 1 10.77-.76zM381.15 243.97a182.64 182.64 0 0 0 19.18 27.25c1.83 2.14 2.93 2.21 5.15 2.32 3 .15 5.09.25 8.21.2 1.75 0 2.33.49 2.57 2 2 12.69-2.82 30.93-3.43 30.88s-2.38-4.35-3.25-7.78c.68 4.71 1.87 10.34 2.75 10.6 2.22.66 8-20.29 6.35-35-.25-2.26-1.26-3.31-3.27-3.17a69.54 69.54 0 0 1-9.13.05 6.54 6.54 0 0 1-4.63-1.92 233.85 233.85 0 0 1-20.5-25.43zM374.76 259.17c2.83 9.62 4.57 15.26 6.39 20.37a13.24 13.24 0 0 0 3.22 5.24c5.31 5 11.63 11.49 15.19 15.12 1.34 1.36 1.63 2.89 1.21 5-2.74 14.16-12.74 28.63-13.19 28.43s.21-7.47.55-12.45c-1.35 8.14-3.5 16.74-2.75 17.19 1 .61 13.78-14.14 17.95-33.8a7.14 7.14 0 0 0-1.95-6.32c-4.37-4.57-13.28-13-15.46-15.19a11.84 11.84 0 0 1-2.49-3.42c-2.89-5.98-6.25-13.71-8.67-20.17zM353.57 259.97a146.43 146.43 0 0 0 3.74 29.26 10.15 10.15 0 0 0 2.15 4.82c3.55 4.24 5.89 6.84 10.2 11.21a4.54 4.54 0 0 1 1.27 4.71c-3.74 15.26-16.22 31-16.73 30.72s1.08-7.35 1.59-12.86c-2.16 6.84-4.18 15.83-3.68 16.34s13.55-10.2 21.79-34a5.06 5.06 0 0 0-1.52-5.95c-3.61-3.42-9.18-9.5-10.7-11.28a9.14 9.14 0 0 1-2.22-4.24c-2.43-8.81-4.75-17.68-5.89-28.73z" fill="#5d6970"/><path d="M179.23 132.83h.24c.67 0 2.65.1 2.82-1.31s1.58-2.73 3.56-3.2c.07-1.14.24-2.25.4-3.39a18.88 18.88 0 0 1-2.94-3.67c-1.15 3.76-2.51 7.71-4.08 11.57zM172.09 160.71c.61-5.74 3.34-7.57 9.85-7.28a43.55 43.55 0 0 1-.85-15.76 30.88 30.88 0 0 0-3.7-.56 75.8 75.8 0 0 1-8.36 14.44c1 2.75 2.32 6.52 3.06 9.16z" fill="#c6003a"/><path d="M289.85 153.55a27.2 27.2 0 0 0-2.92-3.33c-1.36-.35-4.09-.81-5.19-1.06s-4.74-.55-5.95-.86-3.08-1.21-3.68-1.36-3-.15-4-.2a40 40 0 0 0-4.24-.05 9.45 9.45 0 0 0-2.57 1.21 9.8 9.8 0 0 1-2.27 1 10.44 10.44 0 0 1-4.23-2.12c-1.31-1.11-2.22-2.52-2.77-2.77a24.63 24.63 0 0 0-6.35-.5c-1.72.2-6.15 1.05-7.11 1.15s-5.85.66-7.21.66-4 .05-4.53.05a1.91 1.91 0 0 0-1.87 1.46c-.15 1.06-.6 5-.86 6.25s-1.56 6.35-2.16 7.21a71.3 71.3 0 0 1-4.79 5.9c-1.31 1.31-5.8 5.29-6 6.1a14.12 14.12 0 0 1-1.36 4.38c-2.08 3.43-4.71 6.5-5.54 6.5s-3.63-4-4.54-5.39-2.67-4.23-2.67-4.23-1.87-1.36-2.07-1.21.66 4.94 1.61 6.95 3.48 5.85 3.33 6.05-5.09-.55-6.2-.55-4.23.15-5-.21a47.36 47.36 0 0 1-4.49-3.37c-.85-.71-3.93-3.53-3.93-3.53-2.06-.4-6.35-1.31-8.31-2.92l-1.77 4.38c1.67-.1 4.44-.15 5.35.45a38.62 38.62 0 0 1 4.53 4.14 49.24 49.24 0 0 0 4.39 4.63c.6.36 5 .26 7.51.46s9.93 1.26 10.68 1.91a31.44 31.44 0 0 1 4.69 7.51c1.26 3 3.48 7.92 3.43 8.42s-2.42 7.21-2.22 7.91 7.21 9.13 7.66 11.5a37.57 37.57 0 0 1 .61 7.41c-.1 1.66.2 6.65.3 8.56a82.7 82.7 0 0 0 1.16 8.42 12.86 12.86 0 0 1 .45 2.82 5.06 5.06 0 0 0 .25 2.47c.41.86 2.42 4.14 2.93 6.15a30.08 30.08 0 0 1 0 9.28c-.46 2.27-1.21 4.84-1.52 5.84a7.5 7.5 0 0 0 4.38 1.62 13.4 13.4 0 0 0 1.22-4.24 53.43 53.43 0 0 0-.15-6.2c-.2-2-.91-7.05-1.06-8.72a21 21 0 0 1-.15-3.17 7.44 7.44 0 0 0-.56-3.33 2.55 2.55 0 0 0-1.71-1.16 2.18 2.18 0 0 1-1.4-1.75 53.79 53.79 0 0 1-.56-8.12c.16-1.21 1.16-3.78 1.11-4.68s-1.31-3.48-1.41-5.55.05-6.9-.15-8.16a6.25 6.25 0 0 0-1.21-3.43c-.86-1-2.77-1-3.17-1.31s-2.27-2.87-2.27-4 1.06-3.58 1.41-4.79.91-3.08.7-4-3.22-5.7-4.08-7.77-2.67-6.95-2.62-8.21 1.82-6.35 2.82-8.62 3.08-5.9 4.54-7.21 4.84-3.17 5.39-3.88c1.6-2 2.94-5.6 3.73-9.78.51-2.67.91-6.9 1.21-7.91.73-2.43 1.9-3.79 3.83-3.93.71-.05 5.5-.15 6.91-.15s5 0 5.64-.1a28.68 28.68 0 0 0 3.53-1.06c.76-.26 4.69-.05 5.19.4s3.78 4.59 4.09 4.89a3.09 3.09 0 0 0 2.31.45c1.11-.15 4.29-.8 6.51-1.06s12.6-.2 14.11.21a17.63 17.63 0 0 1 3.68 1.21c.65.4 7.56 3.32 10.13 3.73-.89-1.27-1.74-2.79-2.5-3.69zM105.93 209.9a15.38 15.38 0 0 1 3.15 3.44 61.73 61.73 0 0 1 4.16-7c.81-.91 8.17-6.39 9.22-6.35a3.69 3.69 0 0 0 1.71-.2c.36-.26 1.68-4.84 2-5.09s6.72-4.29 7.53-4.69 5.29-2.72 5.49-3.18a16.93 16.93 0 0 1 1.36-2.77 26.82 26.82 0 0 0-2.9-4.2c-1.13 1.93-3.35 5.73-4.25 6.22s-3.83 1.66-3.83 1.66c.1.76.1 2.07-.46 2.27s-1.2-.17-1.73-.82c-1.24.82-3.31 2.23-3.71 2.94s-.3 2.31-.81 2.92a36.55 36.55 0 0 1-6 3.83 25.08 25.08 0 0 0-4.63 2.67c-.66.66-2.77 3.73-3.43 4.49s-2.87 3.86-2.87 3.86z" fill="#232528"/><path d="M226.95 196.64a28.11 28.11 0 0 0 .05 4c.2 1.21 1.66 6.76 1.66 6.76.45-4.6 2.42-7.71 4.11-7.86-.23-2.37-.88-9.38-.88-9.38-1.21 1.81-4.94 6.48-4.94 6.48zM181.7 135.08l-.61 2.59c-1.12-.2-2.9-.47-3.7-.56.66-1.31 1.34-3 1.84-4.28.74-.05 2.3 0 3-1a21 21 0 0 1-.53 3.25zM183.2 129.86l2.67 4.08c-.05-2.27-.09-4.38 0-5.65a9.34 9.34 0 0 0-2.67 1.57z" fill="#232528"/><path d="M180.19 177.5a15.55 15.55 0 0 1 2.84 2.47 51.21 51.21 0 0 0 4.63 3.94 4.42 4.42 0 0 0 2.62.69 45.32 45.32 0 0 1 8.85.87c.68.13 1.1-.19.65-.87-1-1.61-1.86-3-2.9-4.85a31.08 31.08 0 0 1-6.48-3.09c-1.82-1.27-3.16-1.24-4.7-.27a11.05 11.05 0 0 1-5.51 1.11z" fill="#c6003a"/><path d="M150.64 161.89c-.91-1-1.28-2.59-.75-3.09s1.76-.28 2.91 1 1.25 2.82.68 3.25-1.59.31-2.84-1.16zm-.12-2.36c-.16.16.18 1 .79 1.69s1.37 1.29 1.61 1.1-.14-1-.82-1.79-1.33-1.24-1.58-1z" fill="none"/><path d="M142.1 171.1c-4.37-10.45-6-21.47-5.83-36.63.2-14.17 5.09-31.82 11.57-39.82 1.73-2.12 3.27-2.06 4.5.07 6 10.49 6.09 18.15 4 36.55-.33 2.81-1.15 2.73-.91-.09 1.55-18.51 1.62-25.5-4-35.83-.78-1.43-1.44-1.54-2.75.09-6.11 7.57-10.84 25.07-11 39.06-.19 15.27 1.44 26 5.42 36.15.57 1.46.84 1.6.84-.49 0-18.72 3.63-37.87 9.15-47.28 1.22-2.08 1.9-1.69.8.45-5 9.7-8.67 28.38-8.87 46.85-.07 3.58-1.6 4.08-2.92.92z" fill="#0f141b"/><path d="M156.89 114.42a12 12 0 0 1 2.35-5.41 15.58 15.58 0 0 0 2.38-4.1c1-2.28 2.65-5.72 4.36-9.08a5.14 5.14 0 0 0 .64-2.1c.17-2.31.51-9.35.69-12.88.14-2.91 2.78-3.09 2.91-.5.25 5.29.17 10.29 0 14.51a9.06 9.06 0 0 1-1 4.27c-1.18 2.49-2.14 4.56-3.5 7.76a6.38 6.38 0 0 0-.47 3.73 5.31 5.31 0 0 1-1.07 3.9c-2.41 3.9-4.45 13.35-4.45 18.12 0 2.8-1.21 5.39-2.36 7.74-3.78 7.71-7.3 17.29-7.22 19.45a52.71 52.71 0 0 0 2.16 10.91v.11c.27 4.59-3.6 16.87-5.56 21.94-1.21 3.13-4 2.38-4.35-.57-.63-5.33-2.69-9.31-7-13.61-3.42-3.44-8-14.87-8.5-20.33-.43-4.69-.78-6.38-2.88-8.35-.49-.46-.73-.37-.8 0-1.86 12.5 1.34 23.23 6.49 36.81 1.39 3.65-1.36 5.3-3.1 2.16a119.05 119.05 0 0 0-10.58-15.21 48.59 48.59 0 0 1-9.48-17.72c-2.12-6.79-.75-18.87 1.38-33 .53-3.54 2.2-3.76 4.58-1.21a94.17 94.17 0 0 1 12.82 17.28c.15-6.69-.72-9.09-3.39-14.49a16.91 16.91 0 0 1-1.75-5.64c-.9-6.47-1.39-12.21-1.94-21.8-.21-3.75 3.34-4 3.73-.32.48 4.44 1.64 12.76 2.65 20.16a9.51 9.51 0 0 0 1.38 3.9 54.08 54.08 0 0 1 3.91 8.07 15.59 15.59 0 0 1 .85 9.13c-2.15 12.43.27 23.56 8.17 35.17a27.89 27.89 0 0 1 2.59 4.2 60.08 60.08 0 0 0 .11-9l1.17 2.84a43.21 43.21 0 0 1-.36 7.19c-.23 2-.73 2-1.51.2a22.12 22.12 0 0 0-2.86-4.76c-8.37-11.58-10.8-23.39-8.6-36.07a13.47 13.47 0 0 0-.64-8.27 58.39 58.39 0 0 0-3.73-8.07 11 11 0 0 1-1.54-4.33c-1-7.4-2.17-15.83-2.65-20.29-.23-2.16-1.74-2-1.61.25.54 9.57 1.13 15.19 2 21.63a14.93 14.93 0 0 0 1.62 5.17c2.9 5.88 3.88 8.27 3.55 16.25-.09 2.1-.63 2.16-1.63.38a100.18 100.18 0 0 0-13.28-17.9c-1.62-1.77-2.13-1.41-2.41.49-3 19.65-2.89 27.33-1.32 32.38a47.63 47.63 0 0 0 9 17.33 120.75 120.75 0 0 1 10.68 15.56c1.08 2 2.21 1.31 1.21-1.21-5.51-13.88-8.61-24.5-6.55-37.34.23-1.45.82-2 2.42-.67 2.19 1.79 3 4.13 3.46 9 .46 4.62 5.18 16.4 8.21 19.46 4.48 4.51 6.69 8.94 7.34 14.41.2 1.64 1.22 2.07 2 .23 1.71-4.24 5.85-16.81 5.62-21.25a47.46 47.46 0 0 1-2.2-11.06c-.06-2.6 3.43-12.4 7.1-20.24 1.11-2.37 2.2-4.5 2.2-7.09 0-4.89 2.34-14.65 4.82-18.68a4.16 4.16 0 0 0 .87-3.22 7.59 7.59 0 0 1 .71-4.3c1.35-3.21 2.24-5.19 3.42-7.7a7.91 7.91 0 0 0 1-3.89c.13-4.2.26-9.19 0-14.44-.06-1.26-.71-1.21-.8.52-.17 3.54-.51 10.6-.67 12.92a6.35 6.35 0 0 1-.71 2.52c-1.7 3.34-3.26 6.66-4.25 8.93a18.08 18.08 0 0 1-2.62 4.47c-1.89 2.43-2.46 5.46-3.53 13.34z" fill="#0f141b"/><path d="M123.12 136.54c.83-1.16 1.68-2.27 2.53-3.31l.26 2c-.65.86-1.3 1.76-1.95 2.71zM109.89 163.04c-10.08 17.66-17.49 25.5-26.54 41.57a11.86 11.86 0 0 1-5.14 5.09c-5.5 3.28-16.47 10.41-19 13-5.29 5.29-20.47 25.91-27 34.72-4.25 5.74-11.25 22.27-12.33 30.8-1.12 8.84-2.36 33.72-3 46.76-.09 1.82-.19 2.51-1.55 3.46a124.48 124.48 0 0 1-11.94 7.43c-1.54.87-2 1.17-2 2.25-.47 20.85 10.87 35.69 11.48 35.52s-.59-13.3.4-25.4c.17-2.12.56-2.81 1.85-3.53 6.49-3.67 8.83-5 13.17-7.8.87-.55.92-.83 1-2.25.22-3.8.57-10.92.85-17a.52.52 0 0 1 .1-.26c4.2-5.24 6.78-9.56 8.53-15.15a54.45 54.45 0 0 1-12.8 9c-2 1.08-2.41.33-.42-.82 5-2.87 7.4-4.63 13.45-9.87 1.41-1.22 1.83-1.19 1.26.82-1.79 6.3-4.37 10.81-9 16.59-.32 6-.51 12.86-.73 16.83-.12 2.16-.49 2.53-1.65 3.27-4.35 2.76-6.65 4-13.15 7.69-.84.47-1.14 1.26-1.25 2.58-1.07 12.89 1.4 26.6-1.17 27.35-1.84.55-14-15.62-13.28-37.43.06-1.76.67-2.54 2.62-3.59a112.56 112.56 0 0 0 12-7.26c.89-.61.89-1.1 1-2.48.65-13.06 1.67-38 2.79-46.83 1.09-8.65 8.3-25.71 12.61-31.53 6.53-8.83 21.8-29.65 27.14-35 2.6-2.6 13.93-9.8 19.46-13.1a9.65 9.65 0 0 0 4.49-4.5c9.13-16.51 16.4-24.07 27-42.72zM129.32 129.12a52.88 52.88 0 0 1 8.71-7.15l-.27 1.9a48.08 48.08 0 0 0-7.84 6.61z" fill="#0f141b"/><path d="M26.35 320.52c-2.44-19.77 17.55-65.76 33-87.46.38-.53.56-.63 1.13-.43 2 .71 2.67.73 3.88.48a7.13 7.13 0 0 1 4.31.17 4.25 4.25 0 0 0 4.26-.95 60.82 60.82 0 0 1 5.79-4.44 39.89 39.89 0 0 1 10.06-3.55 7.63 7.63 0 0 0 3-1.37c3.22-2.15 7.14-4.34 8.27-3.78 1.28.64 1.32 6.64-.23 10-2.82 6.12-8.17 14.75-10.69 15-.42 0-.8.35-1.34 1.14a12.15 12.15 0 0 1-5.25 3.64c-1.88.62-2.34.86-3 2a22 22 0 0 1-4.5 5.11 3.85 3.85 0 0 0-1.73 3.68c0 1.91-1 8.75-1.84 10.39-1.45 2.9-5.5 7.73-8.5 10.73-1.08 1.08-.68 1.68.44.53a78.12 78.12 0 0 1 7.48-6.72 9.21 9.21 0 0 0 3.37-5c.93-3.23 2-6.94 2.6-10.26.37-1.94 1-3.18 2.82-4 3.7-1.6 9.3-4.69 10-6.22.95-2.05 6.16-7.93 10.16-14.91 1.09-1.89 1.39-1.8 1.33.18a5 5 0 0 0 .37 2.42c.34.82.62 2.27-.79 4.49a119.63 119.63 0 0 0-6.52 11.17 5.41 5.41 0 0 0-.76 3.9 11 11 0 0 1 .21 4.71 4.07 4.07 0 0 0 .44 3.54l-.69 1c-1.14-1.41-1.34-2.62-.87-4.74a10.27 10.27 0 0 0-.15-4.31 6.58 6.58 0 0 1 .81-4.57 119.55 119.55 0 0 1 6.61-11.25c1.16-1.84 1.07-2.81.78-3.5a5 5 0 0 1-.37-1.7c-3 5.36-8.41 11.74-9.58 14.06-1 2-6.83 5.15-10.56 6.77-1.42.63-1.81 1.45-2.15 3.17-.64 3.35-1.68 7.11-2.62 10.37a10.54 10.54 0 0 1-3.86 5.52 75.62 75.62 0 0 0-7.36 6.61c-2.57 2.63-4.18.31-1.83-2 3-2.95 6.77-7.65 8.18-10.46.71-1.43 1.63-7.94 1.63-9.94a5.16 5.16 0 0 1 2.16-4.55 21.1 21.1 0 0 0 4.37-4.82c.87-1.43 1.63-1.78 3.6-2.44a12.6 12.6 0 0 0 4.81-3.41 3 3 0 0 1 2-1.44c1.72-.17 6.37-7.12 9.71-14.38 1.44-3.13 1.31-8.07.71-8.4s-3.81 1.34-7.14 3.58a8.67 8.67 0 0 1-3.45 1.57 38.42 38.42 0 0 0-9.71 3.42 63.29 63.29 0 0 0-5.59 4.34 5.28 5.28 0 0 1-5.29 1.06 6.57 6.57 0 0 0-3.78 0 6.85 6.85 0 0 1-4.22-.29c-14.69 21-34.77 66.91-32.78 85.87z" fill="#0f141b"/><path d="M98.32 258.97c-.18-2.48-.22-5-.31-6.6a7 7 0 0 1 .79-3.76c1-2.12 5.55-10.91 6.54-12.89a4.52 4.52 0 0 0 .35-3.11c-1.21-7.79-1.59-11.37.62-14.1a4.89 4.89 0 0 0 1.18-2.89c.1-.85 1.56-3.63 4.89-9a9.45 9.45 0 0 1 2.72-2.55c3.38-2.34 6.45-4.5 7.73-4.5.81 0 1.13-.17 1.38-.83.33-.87.75-2.25 1.41-4.16a.45.45 0 0 1 .19-.24c3-1.9 8.85-5.64 11.2-6.82 1.56-.78 1.8-1.22 1.83-1.38a5.69 5.69 0 0 1 1.43-2.33l.69 1.09a3.65 3.65 0 0 0-1 1.56c-.14.65-1 1.39-2.42 2.12-2.31 1.15-7.95 4.71-10.92 6.6-.63 1.85-1.08 3.16-1.41 4-.44 1.15-1 1.48-2.32 1.48-1 0-3.82 2-7.19 4.35a8 8 0 0 0-2.35 2.25c-3.08 5-4.73 7.86-4.8 8.53a6 6 0 0 1-1.38 3.4c-2 2.42-1.47 5.77-.31 13.27a5.74 5.74 0 0 1-.45 3.8c-1 2-5.64 10.69-6.68 12.8a5.63 5.63 0 0 0-.6 3.2c.07 1.37.16 3.23.3 5.37zM122.42 162.66c1.59-1.47 3.27-2.94 5.1-4.49l.4 1.54c-1.9 1.62-3.62 3.15-5.24 4.67zM127.78 189.61a34.83 34.83 0 0 0-2.88 2 2.16 2.16 0 0 0-1 1.88c0 1.11-.49 2.39-2.77 3.75-1.68 1-5.49 3.08-7.47 4.16a4.22 4.22 0 0 0-1.65 1.43c-2.1 2.92-5.88 7.41-6.79 9.45-.8 1.8-3 3.41-6.16 3.84a7.59 7.59 0 0 0-2.68.94c-4.35 2.4-7.54 4.08-10.95 3.91a5.45 5.45 0 0 0-3.24 1 41 41 0 0 0-7.82 5.58c-1.47 1.3-2.17 1.54-3.22 1.34-2.4-.45-3.5-.62-6.05-1-1.08-.15-1.28-.26-.91-1.22 2.14-5.43 13.26-13.33 23.64-19.7a15.55 15.55 0 0 0 5.35-5.55c9.73-15.36 15.65-24 21.41-30.68l.84 1.18c-5.62 6.53-11.44 15-21.35 30.34a16.83 16.83 0 0 1-5.78 5.78c-10.1 6.18-20.83 14.11-23 18.8l6 .94c.84.14 1.2-.1 2.36-1.12a41.55 41.55 0 0 1 8.05-5.69 6.43 6.43 0 0 1 3.77-1c3.15.13 6.19-1.6 10.4-3.91a8.24 8.24 0 0 1 3-1.07c2.86-.38 4.58-1.75 5.19-3.18.76-1.81 4.8-6.7 7-9.67a5.44 5.44 0 0 1 2-1.75c2-1.08 5.82-3.16 7.49-4.15 1.9-1.13 2.24-1.83 2.24-2.76a3.27 3.27 0 0 1 1.42-2.75c1-.72 2-1.38 3-2zM129.43 187.4a28.69 28.69 0 0 1 2.81-1.31 3.15 3.15 0 0 0 1.63-1.29 42.53 42.53 0 0 0 3.39-5.3l.79 1a46.71 46.71 0 0 1-3.27 5.08 4.35 4.35 0 0 1-2.12 1.56 27.13 27.13 0 0 0-3 1.38zM31.03 327.15c2.41 2.87 6 4.22 7.6 3.9 1.91-.37 4.08-4.09 6.25-8a37.83 37.83 0 0 1 6.55-8.94c1.3-1.37 1.61-1.13 1.45.74a63.43 63.43 0 0 1-4 17.61c.56 3.94 2 14.43 2.63 19.5.22 1.77 0 2.88-1.3 3.83-3.14 2.28-9.58 6.94-13 9.16-.78.51-.85.71-.88 2-.12 7.47 2.2 20.8-.26 21.37-1.69.39-9.69-10.27-12.56-25.11-.6-3.08-.46-4.34 1.31-5.6 3.21-2.3 7.45-5.5 10.36-7.86.81-.65.91-1 .73-2.11-.46-2.94-.94-6.15-1.47-10.79a20 20 0 0 1-3.93-4.68v-2.12a24.13 24.13 0 0 0 5 6.11.47.47 0 0 1 .14.29c.53 4.73 1.07 8 1.54 11a2.9 2.9 0 0 1-1.16 3.28c-2.92 2.37-7.21 5.68-10.44 8-1.1.79-1.2 1.3-.65 4.16 2.66 13.82 10.09 23.56 10.75 23.35s-.83-11.83-.66-19.27c0-1.83.25-2.32 1.26-3 3.35-2.2 10-7.12 13.13-9.39.79-.57.85-1.24.69-2.47-.64-5.12-2-15.71-2.53-19.64a.41.41 0 0 1 0-.22 68.86 68.86 0 0 0 4.11-16.72 30.27 30.27 0 0 0-5.81 8.07c-2.45 4.43-4.73 8.19-7 8.63-2 .38-5.66-1.05-8.16-3.73z" fill="#0f141b"/><path d="M47.38 356.82c-1.56 1.51-1.57 2.86-.58 4.74 8.44 16 18.84 19.57 20 18.37s-3.84-7.52-5.51-16.91c-.27-1.53-.26-1.88.48-3.07a47.2 47.2 0 0 1 6.35-8.52c1.37-1.52 1.36-2.31.69-3.89-1.46-3.47-5.27-11.14-7.18-15.09 1.78-6.32 2.5-13.13 1.56-17.71-.34-1.67-.73-1.77-1.68-.2a26.66 26.66 0 0 0-2.36 4.68c-2.76 7.18-6.12 10.75-10.12 10.88l-.36 1.27c4.82 0 8.51-3.78 11.57-11.81a20.76 20.76 0 0 1 2-4c.61 4.24-.24 11.18-1.86 16.86a.38.38 0 0 0 0 .33c1.91 3.94 5.68 11.88 7.14 15.33a1.91 1.91 0 0 1-.34 2.52 55.83 55.83 0 0 0-6.42 8.78 4.37 4.37 0 0 0-.7 3.89c1.69 9.64 5.78 15 5.34 15.34-.65.47-9.91-3.36-17.3-17.61-.87-1.68-.66-2.35.27-3.33a53.54 53.54 0 0 0 5.19-6.26 3.7 3.7 0 0 0 .48-3.92 68.93 68.93 0 0 0-5.55-13.31l.35 3.13a63.16 63.16 0 0 1 4.1 10.52 2.61 2.61 0 0 1-.34 2.85c-.64.89-1.22 1.66-1.82 2.39 0 1.36-2.4 2.78-3.4 3.75z" fill="#0f141b"/><path d="M130.41 224.67c1.21 7.61 1.72 16.62.66 17.78-1.3 1.42-12.79.21-21-1.2-2.12 6.7-4.86 11.51-8.62 15.27-10.12 10.12-17.88 30.14-24.19 46.27-1.8 4.58-4.74 5.21-10.25.29a43.71 43.71 0 0 0 2.79 6.16c1.75 3.43.1 8.37-7.23 15.46l.08-2c5.62-6.18 7.48-9.92 6-12.8a44.38 44.38 0 0 1-3.07-7.53c-.62-1.95-.06-1.93 1.28-.79 5 4.29 7.39 4.59 9 .44 6.68-17 14.33-36.33 24.58-46.59 3.73-3.72 6.28-7.84 8.55-14.64.25-.77.54-.82 1.23-.68 7.28 1.31 18.82 1.9 19.61 1.23.58-.48.34-8.83-.64-16.76z" fill="#0f141b"/><path d="M145.46 208.6c1.88 4.94 3.44 14.08 2.27 15.7-1.52 2.09-10.63 1.51-18.23.65-2.68-.3-2.63-1.11.06-.91 8.22.62 16.07.32 16.84-.75.62-.85-.18-9.31-2.07-14.81zM167.51 189.24c6.2 4.24 17.31 9.94 29.56 14a4.4 4.4 0 0 1 3.06 3 94.46 94.46 0 0 1 3.93 14c.53 2.42-.28 2.58-.89.22a97.9 97.9 0 0 0-4.35-13.91 2.87 2.87 0 0 0-2.22-2 131.77 131.77 0 0 1-29.52-14z" fill="#0f141b"/><path d="M163.32 192.9l-2.16 2c1.52 5.87 2.78 12 1.87 13.64s-11.49 1.31-17.91.47c-2.38-.31-2.31-1.16.09-.91 6.25.58 15.7.4 16.31-.53s-.22-6.89-1.59-12.57a.82.82 0 0 1 .31-1l2.28-2.17zM152.03 150.9c3 3.43 4.59 7.17 4.63 10.27 0 3.81-1.93 6.56-5 9.28l-.36-1.22c2.67-2.54 4.22-4.73 4.18-8.07 0-2.72-1.49-5.82-3.9-8.62z" fill="#0f141b"/><path d="M159.56 149.56a108.1 108.1 0 0 1 .52 18.52 6.88 6.88 0 0 1-1.21 3.69 140.74 140.74 0 0 0-8.91 16.37c-1.86 3.82-3.47 6.4-5.1 6.64l1.17-2.11a27.63 27.63 0 0 0 2.78-5.2 137.15 137.15 0 0 1 9-16.33 5.66 5.66 0 0 0 1-3.16 106.87 106.87 0 0 0-.81-21z" fill="#0f141b"/><path d="M181.03 138.31c-3.63-.78-5.66-.91-7.21-.43-1.15.36-2.73 1.8-4.6 4.6a6.13 6.13 0 0 0-.54 6.14c1.57 4.26 3.1 8.5 4.5 13.28a18.13 18.13 0 0 1-.44 12.59c-3.66 9.27-5.33 20.48-7.71 20.48s-7-9.95-11.47-15.5l.68-1.2c4.91 6 9.37 15.34 10.74 15.29 1.16 0 3.21-11 6.43-19.53a17.37 17.37 0 0 0 .31-11.77q-2.1-7.12-4.27-13.21a7.4 7.4 0 0 1 .8-7.27c1.76-2.63 3.61-4.68 5.25-5.16 1.81-.54 5.19-.13 7.73.4zM180.91 116.77c-1 2-1.92 4.27-2.72 6a6.16 6.16 0 0 0-.84 3.66 8.29 8.29 0 0 1-1.32 4.84c-1.13 1.88-.87 2.31.31 1.86a9.39 9.39 0 0 1 4-.9c.5 0 1.18-.11 1.72-1.44a5.33 5.33 0 0 1 3.88-3.13v1.31a3.75 3.75 0 0 0-3 2.5 2.54 2.54 0 0 1-2.7 1.89 9.25 9.25 0 0 0-3.58.88c-2.23.84-3.42-.34-1.58-3.4a7.37 7.37 0 0 0 1.2-4.28 7.64 7.64 0 0 1 1-4.26c.82-1.75 2-4.41 3-6.44z" fill="#0f141b"/><path d="M180.03 115.69c-4.14 4.41-6.86 12.44-8.9 18.45a.58.58 0 0 1-.18.23c-3.17 2.21-7.2 7.8-11.5 11.23-.76.61-.72 1.15-.2 2.18 2.8 5.61 6.39 14.22 7.85 20.43.85 3.63-.56 22.63-2.57 23-1.25.24-5.5-9-9.78-13.64l.5-1.21c4.74 5.29 8.46 13.32 9.08 13.24.92-.12 2.11-17.69 1.31-21.2a101.51 101.51 0 0 0-7.43-20.1c-.77-1.53-.76-2.63.54-3.63 4.29-3.3 8.3-9.12 11.4-11.2 2-5.79 4.47-13.73 9.17-18.6zM185.48 133.97a30.76 30.76 0 0 1 .8-12.08c.59-2.24 1.35-2 .89.24a41.75 41.75 0 0 0 .09 15.44z" fill="#0f141b"/><path d="M164.51 112.19a10.91 10.91 0 0 1 4.26-2c1.31-.2 7.42 2.18 10.51 3.89a5.57 5.57 0 0 1 2.64 3.21 24.45 24.45 0 0 0 4.28 7l-.17 1.68a25.54 25.54 0 0 1-5.35-8.17 4.15 4.15 0 0 0-2-2.61c-3.25-1.8-8.76-3.75-9.71-3.61-1.34.21-3.65 1.8-5.52 3.12zM186.14 163.27c-5.67-5.3-7.47-20.3-5.11-28.4a12 12 0 0 0 .54-6c-.25-1.68.08-2 1.29-.48a32.24 32.24 0 0 1 7 18.59c.13 1.85-.68 1.93-.91.09-.82-6.38-2.34-11.22-6.07-16.6a10.68 10.68 0 0 1-.51 4.69c-2.24 7.73-.63 21.81 4.39 27.4 1.68 1.91 1.11 2.33-.62.71z" fill="#0f141b"/><path d="M172.64 161.69c.14-5.62 2.82-8.16 9.35-7.78l-.22-1.21c-6.5-.44-9.42 2-10.12 6.54z" fill="#0f141b"/><path d="M179.28 163.76c-2.73-1.2-4.53-1.88-7.15-2.77l-.22-1.64a54.77 54.77 0 0 1 7.74 3.57c2.14 1.22 1.72 1.75-.37.84zM166.16 183.57c-4 0-7.75-4.3-10.47-7.95l.58-.88c3.65 5 7.07 7.76 10 7.58z" fill="#0f141b"/><path d="M170.85 11.97c.23 8.65 3.18 11.9 10.18 10.12 16.73-4.25 22.28 1.91 21.52 11-.55 6.55 2.59 10 8.22 11.31 20 4.63 17.85 39.79-6.12 50.72-3.52 1.61-6.34 14.23 4.23 23.64 7.64 6.8 9.51 13.7 7 22.54-1.7 6-6.64 14.11-14 23.36a4.89 4.89 0 0 0-1 4.77 36.17 36.17 0 0 0 2.23 6.07c.59 1.33.27 1.62-1.09 1.14a24.13 24.13 0 0 1-6.46-3.7 39 39 0 0 0 1.92 6.69c.33.88-.08 1.11-1 .75a42.49 42.49 0 0 1-6.57-3.3 3.15 3.15 0 0 0-3.62-.18c-3.89 2-9.19 1.49-14.47-1.6l.4-1.27c5 3 9.91 3.68 13.55 1.78a4.23 4.23 0 0 1 4.8.32 38.73 38.73 0 0 0 5.46 2.84 31.87 31.87 0 0 1-1.64-6.6c-.2-1.18 0-1.45 1.32-.52a29.06 29.06 0 0 0 6 3.44 39.16 39.16 0 0 1-2-5.69 6.12 6.12 0 0 1 1.17-5.74c7.29-9.16 11.86-17.13 13.53-23 2.42-8.48.24-15.28-6.5-21.24-11-9.65-8.88-23.37-3.88-25.65 21.66-9.88 25.6-43.77 6.41-48.2-6.42-1.48-10.09-5.94-9.53-12.58.7-8.44-4.75-13.65-19.65-9.86-7 1.78-10.89-.55-11.29-8.72z" fill="#0f141b"/><path d="M171.27 64.37a13.94 13.94 0 0 1 6.76-4.12c4.4-1.42 7.6-4 7.22-8.57-.46-5.68-5.7-9.13-12.15-8.17-18.28 2.75-19.4-15.18-9.66-30.1a21.56 21.56 0 0 0 3.5-8c.52-2.66 2-4.67 5-5.28 1.8-.36 2.06 0 .81 1.38s-1.64 3-1.08 5.85-.38 6-1.24 8.13a18 18 0 0 0-1 9c.37 2.75-.32 2.89-.9.16a16.82 16.82 0 0 1 .68-9.6c.82-2 1.78-4.94 1.28-7.46-.34-1.73-.75-4.06.91-6.25-2 .59-2.88 1.88-3.36 4.2a22.91 22.91 0 0 1-3.69 8.43c-8.24 12.75-9 30.87 8.51 28.24 7.79-1.17 13.32 3.23 13.81 9.33.42 5.12-3.07 8.19-8.31 9.88a15.64 15.64 0 0 0-6.42 3.55c-1.37 1.26-1.99.85-.67-.6z" fill="#0f141b"/><path d="M142.5 106.05c-.94-18.23 3.06-26.56 13.41-33.23 6.43-4.15 9.86-6.48 13.71-12.24 2.72-4.06 2.79-5.74 1.78-7.89-.72-1.55-.44-1.78.94-1.15 3.9 1.79 6.1 5.26 4.88 9.62l-1.38.7c1.51-4.33-.41-7.76-3.26-9.11 1 2.16.79 4.22-1.88 8.41-3.89 6.08-8.06 8.9-14 12.76-8.14 5.26-13.22 11.75-13.07 29.37zM197.97 84.31a19.46 19.46 0 0 0 5.06-15.59c-2.3 5.2-5.49 9-10.66 13.27-2 1.66-2.57 1.13-.65-.65 5.06-4.68 7.95-8 10.55-13.73.91-2 1.52-1.75 1.79.2 1 7.36-1 12.51-5.41 17.11-1.74 1.8-2.39 1.37-.68-.61zM76.54 302.56c15.02 17.41 17.49 36.29 15.49 37.46-1.78 1.08-16.93-14.92-23.61-23.75l.68-1.33c6.94 9.22 21.49 23.77 22.06 23.34.76-.57-1.21-17.61-15.19-34.51zM181.11 177.45c2.29 1.85 3.59 3.65 6.77 5.88a3.75 3.75 0 0 0 2.42.71 43.52 43.52 0 0 1 8.67.88c.36.07.33 0 .18-.27a47.68 47.68 0 0 1-2.82-4.84l.32-1.67c1.54 2.88 2.48 4.46 3.63 6.25 1 1.61.63 2-1.18 1.64a42.82 42.82 0 0 0-8.82-.86 4.26 4.26 0 0 1-2.8-.7c-3.59-2.46-4.88-4.51-8.37-7.08zM198.03 173.97a97.38 97.38 0 0 0 5.62 8.05c.58.74.7.8 1.28.24 3.27-3.16 5.34-6.49 5.64-9.22a5 5 0 0 1 2.08-3.31c3.92-3.5 8.42-8.07 9.26-10.61a46.56 46.56 0 0 0 2.44-10.8c.09-2.77 1.11-3.84 3.25-3.65a76.68 76.68 0 0 0 15.93-1.46 21.27 21.27 0 0 1 7.63 0 3.21 3.21 0 0 1 2.16 1.21c2.16 2.45 4.72 4 5.72 3.92a9.27 9.27 0 0 0 3-1.45 5.37 5.37 0 0 1 3.24-.84c1.64.09 4 .17 5.4.17a7.16 7.16 0 0 1 3.46 1 10.16 10.16 0 0 0 3.81.77 27.64 27.64 0 0 1 8.69 2l1.68 1.86a26.86 26.86 0 0 0-10.44-2.7 10.79 10.79 0 0 1-4.18-.94 6 6 0 0 0-3-.84c-1.45 0-3.82-.15-5.47-.24a4.19 4.19 0 0 0-2.66.71 9.8 9.8 0 0 1-3.43 1.68c-1.44.1-4.28-1.82-6.5-4.34a2.56 2.56 0 0 0-1.69-.94 19.37 19.37 0 0 0-7.2.15 76.36 76.36 0 0 1-16.31 1.49c-1.35-.12-1.92.36-2 2.54-.09 2.81-1.43 7.71-2.55 11.06-1 2.94-5.61 7.66-9.51 11.15-1.06 1-1.6 1.45-1.73 2.62-.34 3-2.63 6.64-6.1 10-1 1-1.7.92-2.68-.33-2.29-2.92-4.87-6.85-7.14-10.32z" fill="#0f141b"/><path d="M293.03 158.1a51.24 51.24 0 0 1-10.72-4c-4.45-2.23-16.14-2.14-23.29-.55-1.5.33-3.47.56-4.24-.71s-2.76-4.2-3.55-4.51a10.1 10.1 0 0 0-5.37-.2 10.72 10.72 0 0 1-4.26.8c-3.79.08-7 .43-10.33.31-2.53-.1-4 1.46-4.36 4.46-.82 7.43-2.72 16-6.07 17.84-3.57 2-5.66 3.89-7.06 6.63-2.21 4.32-4.48 10.71-4.36 12 .24 2.63 2.66 8.79 5.9 14.26.82 1.39 1.06 3.07 0 5.72-.68 1.7-1.55 4-1.29 4.82a10.66 10.66 0 0 0 1.36 2.72 1.66 1.66 0 0 0 1.42.76c1.5-.06 4 1.82 3.8 6.3-.14 2.79-.27 7.86.9 10.66a5.72 5.72 0 0 1-.2 4.67c-.7 1.82-.59 5.8.28 10.13.15.74.55 1.16 1 1.15 1.16-.09 2.68 1.45 2.5 4.71a91.19 91.19 0 0 0 1 9.9c.57 4.3 1.06 9.16-.48 12.08-.7 1.33-.53 2.31.28 3 4.09 3.36 7 6.42 7.94 8.32a27.37 27.37 0 0 1 2.48 10.6c.18 3.43 2.19 7.1 4.11 7.35a8.08 8.08 0 0 1 6.47 4.53c.5-6.83-.35-14.85-1.86-19.34a66.6 66.6 0 0 1-2.86-15.71l1-2a70.82 70.82 0 0 0 3 17.39c1.71 5.09 2.48 13.55 1.67 20.89-.21 1.94-.74 1.84-1.39.28-1.49-3.56-3.92-4.76-6.17-5s-4.9-3.85-5.14-8.35c-.17-3.13-.63-7-2.24-10.15-.92-1.79-3.74-4.66-7.74-7.94-1.37-1.12-1.48-2.69-.6-4.36 1.42-2.71 1.17-7.57.65-11.48a89.64 89.64 0 0 1-1-10.07c.15-2.69-.85-3.72-1.53-3.75-1 .06-1.75-.68-2-1.88-.91-4.56-1-8.64-.23-10.64s.63-3 .21-4c-1.24-3-1.26-8.2-1.12-11.06.18-3.59-1.55-5.1-2.74-5a2.34 2.34 0 0 1-2.25-1.09 11.12 11.12 0 0 1-1.71-3.25c-.33-1.09.5-3 1.51-5.52.84-2.1.83-3.67.13-4.86-3.3-5.58-6.16-11.89-6.4-14.64-.16-1.78 2.73-8.76 4.68-12.58 1.49-2.91 3.8-5.17 7.56-7.23 2.34-1.28 4.53-8 5.52-16.94.39-3.46 1.9-5.6 5.47-5.42 2.95.15 6.41-.15 10.28-.27a10.91 10.91 0 0 0 4-.66 10.56 10.56 0 0 1 6 .08c1.27.5 3.84 4.2 4.24 4.86s1.35.63 2.95.28c6.44-1.43 19-1.92 24.05.59a47.33 47.33 0 0 0 9.27 3.56zM190.14 440.14c-7.85-9.85-7.28-30.86-5.57-31.64 1.43-.64 8.93 6.93 13.3 12.66 1.46 1.91.79 2.42-.72.56-4.28-5.25-11.18-11.51-11.74-11.23-.83.4-1.22 19.59 5.73 28.73 1.58 2.08 2.18 2.15 3.75.48 5.84-6.22 9-16 10.68-31.9.21-2 1-2 .91.07-.86 16.22-4.71 26.54-10.7 32.92-2.25 2.4-3.35 2.24-5.64-.65z" fill="#0f141b"/><path d="M190.59 413.97c.07-5.38 1.06-13.77 2.69-14.92a48 48 0 0 1 9.86-5.53c1.9-.84 2.26 0 .37.84a42.94 42.94 0 0 0-9.43 5.76c-1 .77-2.17 8.29-2.32 14.86z" fill="#0f141b"/><path d="M192.97 310.5a9 9 0 0 0 4.54-3.93 10.53 10.53 0 0 1 2.42-3.05 2.93 2.93 0 0 0 1-2.27 8.29 8.29 0 0 1 1.86-4.36 12.18 12.18 0 0 1 4.19-1.66 3.63 3.63 0 0 0 2.23-2.12 5.44 5.44 0 0 1 2.78-2.46c3.16-1.34 5.55-1.74 6-1 1.17 1.88-.72 7.52-2.46 10.29a4.89 4.89 0 0 0-.76 3.7c.93 7.13-1.33 9.63-2.72 10.7a18.66 18.66 0 0 0-3.54 3.45 4.77 4.77 0 0 0-.9 2.77c-.23 4.47-.69 7.69-1.29 12.12-.16 1.15.24 1.18.4 0 .58-4.22 1.93-9.87 3.5-12.44s5.18-5.35 8.28-7.56c1.5-1.06.91-7.1-.36-12.75a5.62 5.62 0 0 1 .38-3.91c0-.07 2.7-7.15 4.16-7.36 1.24-.18 6.18 5.27 10.25 9.78a6.11 6.11 0 0 1 1.85 4.87c0 4.57 1.71 6.43 2.79 7.18a14.76 14.76 0 0 1 4.71 6.37 5.3 5.3 0 0 0 1.58 2.49 6.41 6.41 0 0 1 2.1 3.37.89.89 0 0 1 0 .23c-4 36.12-16.38 61.79-33.7 69.32-.79.34-1.12.28-1.58-.63-2.86-5.66-4.19-10.81-4.82-20.21-2.76 7.1-3.55 15.6-4.21 23.26l-1.24.57c.59-8.23 1.45-17.46 4.84-25 .95-2.12 1.47-1.62 1.61.27.74 9.93 2.07 14.78 4.93 20.59 16.69-7.55 28.78-32.71 32.92-68a4.31 4.31 0 0 0-1.5-2.82 6.53 6.53 0 0 1-2-3 13.59 13.59 0 0 0-4.25-5.89c-1.23-.85-3.43-3.1-3.43-8.08a4.63 4.63 0 0 0-1.44-4.05c-4.47-5-8.71-9.31-9.31-9.2s-2.11 3.06-3.4 6.35a4.37 4.37 0 0 0-.25 3.29c.8 3.59 2.58 12.2 0 14-3.05 2.13-6.69 4.82-8.1 7.13-1.3 2.13-2.69 7.25-3.33 12-.47 3.45-2.91 3-2.46-.27.61-4.4 1.06-7.59 1.29-12a5.73 5.73 0 0 1 1-3.31 19.91 19.91 0 0 1 3.73-3.72c1.24-.95 3.13-3.38 2.34-9.71a6.14 6.14 0 0 1 .9-4.4c1.68-2.67 3.17-7.58 2.41-8.89-.2-.34-2.06.08-4.66 1.2a3.71 3.71 0 0 0-2.08 1.79 4.92 4.92 0 0 1-3.08 2.65 9.05 9.05 0 0 0-3.59 1.65 6.65 6.65 0 0 0-1.59 3.45 4.26 4.26 0 0 1-1.36 3.05 10 10 0 0 0-2.19 2.87 10.66 10.66 0 0 1-6.03 4.76z" fill="#0f141b"/><path d="M170.61 178.51c3.68-.3 5.44 0 7.13 1.72 2 2 3.88 4.07 6.29 6.83.7.81 1.29.93 2.67.89a69.36 69.36 0 0 1 13.86 1.43c2.43.47 3.24 1 4.64 3.23a115 115 0 0 1 5.83 12.68 3.5 3.5 0 0 1 0 3 39 39 0 0 0-1.63 5.15 2 2 0 0 0 .58 2.16c1.35 1.7 3.2 4.1 5.19 6.75 1.85 2.47 2.42 6.27 2.34 8.86a78.81 78.81 0 0 0 1.24 18.4 17.43 17.43 0 0 1 .54 4 3.23 3.23 0 0 0 .69 2.52 22.09 22.09 0 0 1 2.39 5 24.31 24.31 0 0 1 .58 6.8 41.73 41.73 0 0 1-1.84 8.77 2 2 0 0 0 .33 2.07c.72.92.87 1.71-.51 2.75-.43.32-2.7 1.77-3.47 2.29-1.06.71-1.86 1.29-3.31.93-1.15-.29-2 .72-2.21 2.07-.82 4.76-5.75 8.26-8.16 8.34-1 0-3.35 2.15-6.88 7l1.31-3.42c2.73-3.33 4.37-4.67 5.54-4.7 1.58 0 6.23-2.7 7-7.35.39-2.29 1.92-3.51 3.55-3.1 1.05.26 1.58-.05 2.6-.73.76-.52 2.79-1.86 3.2-2.17.68-.51.65-.91.37-1.26a2.91 2.91 0 0 1-.52-2.9c.93-3.33 1.87-6.35 1.91-8.52a24 24 0 0 0-.5-6.5 21.44 21.44 0 0 0-2.27-4.79 4.44 4.44 0 0 1-.86-3.17 18.76 18.76 0 0 0-.55-3.73 103.24 103.24 0 0 1-1.25-18.67 13.93 13.93 0 0 0-2.26-8.2c-2.07-2.81-3.81-5-5.1-6.62-1-1.22-1.15-1.63-.88-2.87a41.7 41.7 0 0 1 1.82-5.43 2.81 2.81 0 0 0 0-2.37 97 97 0 0 0-5.85-12.42 4.68 4.68 0 0 0-3.86-2.67 65.49 65.49 0 0 0-13.61-1.46c-1.94.07-2.57-.09-3.45-1.16a71.94 71.94 0 0 0-6.26-6.8c-1.46-1.41-2.81-1.61-6.75-1.41zM192.91 401.38c-1.94 1-4.31 1-9.95 1-1.3 0-1.54.19-1.78 1.14-1.42 5.6-2.92 14-3.78 19.05-.75 4.43-1.78 5.68-6.05 6.2-21.46 2.61-38.64-5.14-38.56-7.66s23.15-6.4 34.75-8.26c1.88-.3 2.05.54.18.9-11.78 2.27-32.57 6.77-32.61 7.65s15.91 8.5 36.14 5.76c3.22-.44 4-1.24 4.64-4.94.86-5.09 2.55-13.44 4-19.07.41-1.62.86-2.1 3.06-2.08 5.61 0 8.71-.11 10.48-1.52z" fill="#0f141b"/><path d="M201.27 394.43c-2.65.63-6.59.88-8 .4-1.83-.61-4.82-4.9-5.37-5.75a.41.41 0 0 1-.08-.24c-.16-6.14.8-11.68 2.93-19.21-3.67 5-5.71 8.9-9.82 17.27a.38.38 0 0 1-.29.23 26.37 26.37 0 0 1-8.54.61c-1.67-.13-2.15.15-2.68 1.61-2.67 7.32-3.12 19.8-3.18 24.2l-1.36.38c.05-4.24.44-17.44 3.19-25 .74-2 1.62-2.74 4.1-2.55a25 25 0 0 0 7.76-.4c3.93-7.93 6.09-12 10.86-18.22 1.66-2.16 2.25-1.87 1.51.71-2.59 9-3.36 14.08-3.23 20 1.51 2.28 3.48 4.88 4.57 5.24s4.91.24 7.77-.43z" fill="#0f141b"/><path d="M144.03 399.28a166.21 166.21 0 0 1 3.07-16.47c.56-2.37 1.14-3.4 4.09-4.17a62.43 62.43 0 0 0 14.26-5.12 34 34 0 0 1 12.11-14.22c1.57-1.06 2.17-.87 1.29.91-3.36 6.76-5.74 13.06-6.46 18.51a32.9 32.9 0 0 0 6.23 8l-1.49.2a39.65 39.65 0 0 1-5.94-7.76.45.45 0 0 1-.07-.3c.85-6 3.45-12.37 6.11-18a35.43 35.43 0 0 0-10.84 13.34.41.41 0 0 1-.2.21 70 70 0 0 1-14.71 5.41c-2.15.6-2.63 1.49-3.08 3.23-1.45 5.63-2 9.13-3.19 16.2z" fill="#0f141b"/><path d="M168.72 389.16a48.65 48.65 0 0 1-8 3.51 1.47 1.47 0 0 0-1.1 1.38 93.57 93.57 0 0 1-3.89 16c-.65 1.94-1.91 2.83-5.07 2.88-16.51.24-36.57-15.55-35.65-17.76.7-1.69 14.16 2.62 31.63 3.78 2.1.14 2 .9-.05.91-17.16-.76-29.12-3.76-29.21-3.53-.16.4 16.28 14.81 33.15 15.09 2.13 0 3.13-.37 3.66-1.85a87.51 87.51 0 0 0 4.15-15.76 2.6 2.6 0 0 1 1.94-2.4 56.22 56.22 0 0 0 9.4-4.05zM165.15 374.33c-1.68-7.43-2.24-12 2.27-16.15 7.23-6.66 10.94-9.22 17.72-12.15a10 10 0 0 0-5.94.69c-4.34 1.65-6.76 1.89-13.39 2.29-12 .73-37.45 13.76-37.32 15.06.11 1 21.68 4.84 36.33-.2v1.42c-14.45 5.34-38.38 1.72-38.31-1.08.07-2.55 26.05-15.74 39.31-16.43 6.29-.33 8.75-.73 13-2.18a11.26 11.26 0 0 1 7.31-.47c1.84.48 1.37 1.19-.1 1.78-6.57 2.61-10.81 5.78-17.55 12.06-4 3.76-3.58 7.54-2.18 14.45z" fill="#0f141b"/><path d="M169.64 347.97c14.87-20.27 25-41.09 29.64-54a12.81 12.81 0 0 1 3.11-4.67c12-12 8.43-45.13 4.4-57.79-.6-1.88.21-2.14.87-.28 4.42 12.57 8.42 46.59-4.18 59.12a10 10 0 0 0-2.76 3.93c-4.58 12.81-14.6 33.73-29.32 53.57z" fill="#0f141b"/><path d="M207.31 232.08c-4.78 6.95-6.72 12.32-6.93 18.34-.11 3.27-1.45 4.82-4.18 5.09-3.25.33-6.78.67-11.8.87a10.21 10.21 0 0 0 .76 5 4.69 4.69 0 0 1-.29 5.06 29.64 29.64 0 0 1-3.84 4.23l-.57-1.26a30.09 30.09 0 0 0 3.36-3.86 3.12 3.12 0 0 0 .19-3.47 12.23 12.23 0 0 1-.91-6.09c0-.69.3-.91.91-.93 5.21-.2 8.74-.5 12.06-.83 2.24-.23 2.87-1.55 3-3.91.21-6.21 2.4-12 7.89-19.68z" fill="#0f141b"/><path d="M172.71 276.18c-6.17-3.23-9.92-10.15-8.64-11.14.78-.61 3 1.46 6.4 2.27 2 .46 2.59.33 3.3-.61s2-1.38 3.92-.32 4.06 2.69 4.06 3.85c0 1.54-2.46 4-5 5.75a3.46 3.46 0 0 1-4.04.2zm-7.61-9.86c-.31.23 2.68 5.59 8.14 8.65 1.17.65 1.78.53 2.92-.23 2.37-1.56 4.11-3.61 4-4.38s-1.39-1.92-3.23-2.93c-1.27-.7-1.84-.38-2.29.23-.87 1.15-2.28 1.4-4.46.83-3-.8-4.84-2.34-5.08-2.17zM152.12 244.78c-.43-1.75.81-10 2.93-10.61 1.77-.55 5.33 1.37 6.83 3.58 1.17 1.73 1 3.12 0 5.16-1.49 3.1 1.79 10.86.76 11.92-1.42 1.42-9.08-4.26-10.52-10.05zm3.38-9.28c-.82.22-2.5 6.91-2 8.95 1.15 4.6 7.34 9.88 8.09 9.3.35-.28-2.29-8.47-.86-11.29.91-1.79 1-2.63.18-3.81-1.25-1.84-4.04-3.52-5.41-3.15z" fill="#0f141b"/><path d="M155.64 249.63c-.4 2.52-.13 4.48.57 5.34 1.6 2 3.87 3.13 3.7 4-.3 1.61-10.69-.27-13-5.68-.8-1.85-.24-7.36 1-11.19.71-2.15 2.1-3.73 5.44-3l-.2 1.35c-2.31-.52-3.36.24-4 2-1.21 3.63-1.85 8.86-1.14 10.28 2.35 4.7 10 6.08 10.12 5.68s-1.23-.86-2.83-2.72c-1.29-1.51-1.31-4.2-.63-7.39zM173.08 268.05c.56-3.54-1.17-8.09-5.51-13.51-.88-1.11-2.82-2.39-5.78-3.43l-.27-1.41c3.26 1.21 6 2.77 7.06 4.06 4.23 5.08 6.12 9.5 6 13.14zM160.93 244.18a14.51 14.51 0 0 1 3.87 2c1.61 1.16 1.08 1.67-.51.76a13.13 13.13 0 0 0-3.34-1.37zM155.03 234.17c3-1.34 10.77.41 18.57 10 1.63 2 4 2.8 8.23 2.55a22.45 22.45 0 0 0 7.68-1.89c1.85-.75 1.92-1.53 1.54-3.9-1.17-7.39-1-13.32.49-16.58 1.31-2.78 4.16-5.19 10.61-9.14l.4 1.42c-5.89 3.46-8.56 5.87-9.63 8.17-1.43 3.11-1.78 8.49-.65 15.93.53 3.45.07 4.31-2.31 5.28a24.1 24.1 0 0 1-8 2.06c-3.93.23-7.12-.39-9.24-3-6.18-7.49-12.3-10-15.56-10z" fill="#0f141b"/><path d="M190.55 244.97c-6.8-5.75-8.93-16-7.91-20.67 1.31-6 8.27-12.73 18.36-13.5l.37 1.3c-9.62.85-16 7-17.29 12.5-1 4.18 1.1 13.68 7.31 19.46zM240.32 278.52c-1.74 0-4.41-2-5.37-6-.65-2.67-.51-13.38.57-13.75s3.69 4.73 4.8 8.58c.5 1.73.88 2.05 1.59 2.3 2.87 1.02 2.91 8.74-1.59 8.87zm0-1.43c3.06 0 2.71-5.86 1.25-6.28-1.16-.34-1.82-1.35-2.33-3.18-.65-2.28-2.73-7.15-3.18-7.06s-.44 9.33.27 11.62c.94 3.14 2.7 4.93 4 4.9z" fill="#0f141b"/><path d="M234.74 246.1c3.46 2.86 4.74 9 4 18.25l-1-2.05c.18-7.59-.68-12.09-2.81-14.5z" fill="#0f141b"/><path d="M227.5 246.06c-1.17-4-1.23-10.81.47-13.88 2-3.6 5.94-3.86 8.25 1.48a6.22 6.22 0 0 1-.13 5.07c-2.74 7 1 15 .28 15.65-1.18 1.13-7.41-3.41-8.87-8.32zm1.53-13.26c-1.43 2.58-1.62 8.84-.45 13 1.23 4.34 6.41 7.95 6.7 7.59s-2.71-8.82-.3-15a4.81 4.81 0 0 0 0-4.16c-1.62-3.88-4.14-4.64-5.95-1.43zM248.34 254.76c-1.16-.37-1.69-10.26-1.36-17.32.18-3.91 2.36-7.1 5.63-6.8 2.64.24 4.33 2.94 4.18 8-.28 8.83-6.61 16.7-8.45 16.12zm0-17.37c-.39 8.22.29 15.84.63 16 .74.25 6.26-6.51 6.55-14.82.13-3.72-.81-6.3-3-6.5-2-.22-4 1-4.2 5.32z" fill="#0f141b"/><path d="M250.26 253.15c-.1 2.3 0 4.32 0 5.85a7 7 0 0 1-1 4 41.77 41.77 0 0 0-4.55 11.39 104.29 104.29 0 0 0 7.57 24.4 10.39 10.39 0 0 1 .64 5.57c-6.75 65.52-20.33 83.13-34.24 93a14.35 14.35 0 0 0-1.71 3.91 5.32 5.32 0 0 1-2.34 3.39 43.69 43.69 0 0 0-9 8.33l.26-2.42a42.45 42.45 0 0 1 7.83-7.2 5 5 0 0 0 1.69-2.56 21.23 21.23 0 0 1 2.09-4.38.58.58 0 0 1 .14-.17c13.39-9.37 26.64-26.74 33.76-92a8 8 0 0 0-.47-4.67 99.53 99.53 0 0 1-7.64-24.95 45.24 45.24 0 0 1 4.74-12.29 5.69 5.69 0 0 0 .92-3.4c0-1.36.05-3.07.18-4.92zM248.03 235.06a28.88 28.88 0 0 0-2.06 4.22c-.81 2-2 2.22-3.32.68-2-2.36-4.07-4.93-5.4-6.6-2.2-2.76-3.87-3.25-5.23-3h-2.53c2.69-1.93 5.89-1.31 8.67 2.18 1.32 1.66 3.55 4.68 5.17 6.55.87 1 1.18 1 1.74-.33 1-2.43 2.88-6.09 4.6-7.3z" fill="#0f141b"/><path d="M241.82 206.04c-2.37-5-6.29-6.17-8.67-5.69s-3.83 4.05-3.83 7.78c0 12.63 10.23 25.27 11.64 24.67.87-.37.82-1.73-1.51-15.73-.75-4.46 1.18-12.4 3.6-12.87 1.5-.3 6.34 5 7.91 8.17 2.12 4.31 2.27 7.38 1 10.43a17.61 17.61 0 0 0-1.46 9l-1.39.89a20.54 20.54 0 0 1 1.54-10.36c1.17-2.72.9-5.79-.83-9.32-1.65-3.36-5.65-7.31-6.48-7.21-1.39.16-3.2 6.94-2.51 11.11 2.06 12.4 2 16.39.62 17-2.43 1-13.3-13.17-13.41-25.72 0-4.36 1.61-8.72 4.92-9.38 2.5-.5 7.23.94 9.85 6.28z" fill="#0f141b"/><path d="M228.86 208.52a11 11 0 0 0-1.7 8c.65 4 4 10.31 8.9 14.31l-2.83-1c-3.74-3.7-6.77-8.94-7.44-13.15-.57-3.53.15-6.59 2.8-10.64z" fill="#0f141b"/><path d="M266.33 166.23c-2.72 6.18-6.18 13.23-7.66 13.25-1.92 0-7.5-9.42-10.86-14.83-1.41-.34-2.75-.65-4.84-1.28-2.41 15-7.27 24.27-15.43 33.52a25.17 25.17 0 0 0 1.46 9.57l-.34 2.78c-2-5-2.67-8.28-2.49-13a.42.42 0 0 1 .12-.3c8.11-8.74 12.49-18 15.54-33.49.1-.51.41-.68 1-.51 2.39.73 4.07 1.23 5.63 1.61a.43.43 0 0 1 .28.21c3.29 5.68 9 14 9.81 14s4.17-6.22 7.19-12.84z" fill="#0f141b"/><path d="M232.21 199.86a53.94 53.94 0 0 1-.92-8.69l1.35-2.09a58.34 58.34 0 0 0 1.11 10.38zM288.14 170.97c-4.74 6.21-10.66 13-12.6 12.7-2.15-.3-7.06-10.86-10.38-18.87-.75-1.82 0-2.17.84-.37 3.57 8 8.69 17.24 9.77 17.36 1.24.13 6.63-5.16 11.93-12.14z" fill="#0f141b"/><path d="M300.97 185.48c-2 2.22-4 3.89-5.27 3.57-1.55-.41-5.8-11.16-8.58-19.8-.67-2.06.14-2.33.87-.29 3 8.53 7.25 17.9 8.31 18.21.46.13 2.05-.88 4.2-3.1z" fill="#0f141b"/><path d="M344.29 297.21a94.67 94.67 0 0 0 11.74 12.2 5.56 5.56 0 0 1 2 5.07c-.82 13.69-5.74 28.65-5.45 28.75.81.25 15-15.19 20.17-32.31.95-3.15.8-4.43-.7-5.88-3.88-3.74-7.7-7.93-11.23-12a9.16 9.16 0 0 1-1.91-3.7 140.5 140.5 0 0 1-5.87-29c-.29-3.11.59-3.18.91-.07 1 9.9 3.1 17.95 6.3 28.67a7.74 7.74 0 0 0 1.65 3.36c3.51 4 7.43 7.94 11.29 11.66 2 2 2.1 3.93 1 7.46-5.76 19.21-20.48 34.51-22.55 33.6s4.1-15.89 5-30.61a3.87 3.87 0 0 0-1.62-3.83 97.3 97.3 0 0 1-12-12.44 9.72 9.72 0 0 1-2.42-5.14c-.63-5.52-1.5-13.83-2.14-20.4a3.58 3.58 0 0 0-1.35-2.25c-7.76-7.41-12.1-18.86-18-35.3-9.56-26.52-11.72-32.3-21.81-56.72a32.4 32.4 0 0 1-2.88-13.36c-.12-4.28-3.49-9.95-8.75-14.79-7.63-7-40.45-24.79-59.56-32.32a10 10 0 0 1-3-1.77 36.8 36.8 0 0 0-22.08-9.12l-.45-1.41a36.75 36.75 0 0 1 23.56 9.34 7.71 7.71 0 0 0 2.55 1.49c19.17 7.57 52.28 25.55 60 32.62 5.43 5 9.11 11.42 9.24 15.94s.52 7.15 2.88 12.85c10.1 24.44 12.45 30.31 22 56.84 5.88 16.32 10.07 27.3 17.45 34.45a4.91 4.91 0 0 1 1.77 3.38c.63 6.57 1.44 14.76 2.07 20.27a8.19 8.19 0 0 0 2.19 4.47z" fill="#0f141b"/><path d="M356.44 277.69a34.7 34.7 0 0 0 7.73 1 2.56 2.56 0 0 1 2.82 2.14 115.8 115.8 0 0 0 4.21 11.23 6.42 6.42 0 0 0 2 2.74c4.43 3.63 9.3 7.63 13.77 12.1a5.36 5.36 0 0 1 1.51 4c.65 12.61-2.73 25.93-2.5 26.11.59.46 14.91-19 16.45-32.87.19-1.66.25-3.32-1.06-4.79a222.57 222.57 0 0 0-16.28-16.23 9.58 9.58 0 0 1-2.16-3 200.38 200.38 0 0 1-8.82-21.34c-.83-2.33 0-2.61.86-.3 3.07 8 5 12.2 9.11 20.88a8.2 8.2 0 0 0 1.95 2.61 229 229 0 0 1 16.68 16.44c1.55 1.74 1.36 4.12 1.16 6-1.48 14.39-16.55 35.79-18.93 34.67-1.7-.79 2.53-12.08 2.1-28.05a3.93 3.93 0 0 0-1.19-3.22c-4.44-4.44-9.13-8.5-13.37-12a7.71 7.71 0 0 1-2.42-3.17c-1.75-4.09-3.38-8.53-4.33-11.59-.26-.85-.56-1-1.62-1.07a46.72 46.72 0 0 1-7.27-.79z" fill="#0f141b"/><path d="M412.4 310.55c-1.95-.2-2.69-10.92-5.88-20-.77-2.2-1.15-2.83-2.69-3.6a36.32 36.32 0 0 0-10-3.22 5 5 0 0 1-3.9-2.56 115 115 0 0 0-6.52-9.56.7.7 0 0 0-1-.24l-.12.09c-.76.53-1.21.88-2 1.41l-.58-1.31c.58-.38 1.21-.73 1.94-1.21 1.12-.73 1.53-1 2.52.3 2.27 2.91 5.25 7.23 6.73 9.68a3.64 3.64 0 0 0 3.06 2.05 37.64 37.64 0 0 1 10.35 3.29c1.75.88 2.54 1.91 3.36 4.51 2.66 8.44 4.18 18.65 4.84 18.71 1 .1 6.46-15.1 5.44-33.63-.13-2.36-.69-3.29-2.93-3.18-1.89.09-4.16.11-7.46.09s-4.83-.53-6-1.79a168.61 168.61 0 0 1-20.53-26.14c-1.45-2.2-.75-2.67.76-.52a194.59 194.59 0 0 0 20.72 25.62c1 1.06 2 1.46 5.13 1.46 2.92 0 4.27 0 7.43-.12 2.66-.11 4.17.9 4.33 4.52.82 18.21-4.75 35.59-7 35.35z" fill="#0f141b"/><path d="M385.09 249.4a65.84 65.84 0 0 0-5.1-18.67c-1.18-2.8-.55-3.08.83-.37a57.85 57.85 0 0 1 5.78 21z" fill="#0f141b"/><path d="M210.97 90.24c7.34.55 19.17 5.73 28.91 13a14.51 14.51 0 0 0 3.77 2.09c31.57 11.13 53 21.24 68.91 32.59 15.61 11.11 50.17 59.41 66.31 83.55 17.73 3.4 32.1 24.57 30.75 26.86-.93 1.58-17-3.49-25.62-7.38l-.3-1.67c9.33 4.18 23.86 8.5 24.35 7.92s-12.21-21.1-29.95-24.45a.46.46 0 0 1-.3-.19c-16.11-24-50.65-72.3-66.19-83.36-15.87-11.29-37.05-21.26-68.53-32.36a16.19 16.19 0 0 1-4.1-2.29c-10.09-7.31-22.59-12.57-29.67-12.8z" fill="#0f141b"/><path d="M361.11 197.03c.05 3.76-.05 7-.11 10.25 0 1.54-.59 1.8-2 1.67a24.23 24.23 0 0 0-7.69.39 2.84 2.84 0 0 1-2.9-.8c-3.63-3.63-13.05-11.73-16.63-14.55a3.84 3.84 0 0 1-1.52-3 164.22 164.22 0 0 0-8.06-32.54 57.53 57.53 0 0 1-3.8-14.24l1.73 1.48a52.51 52.51 0 0 0 3.49 12.28 165.32 165.32 0 0 1 8.07 32.8c.13 1 .19 1.59.94 2.18 3.59 2.84 12.9 10.9 16.55 14.55a1.65 1.65 0 0 0 1.87.62 24.17 24.17 0 0 1 8-.38c.57.09.72-.09.73-.63.07-3.6 0-6.84 0-11.82zM303.83 133.23a31.16 31.16 0 0 0-9.81-.9 6.85 6.85 0 0 1-3.57-.84 93.32 93.32 0 0 0-16.7-6.05 13.43 13.43 0 0 1-5-2.66 88.08 88.08 0 0 1-11.41-11.52l2.47.75a79.71 79.71 0 0 0 9.64 9.63 12.57 12.57 0 0 0 4.64 2.55 108 108 0 0 1 16.9 6.05 5.37 5.37 0 0 0 2.89.81 30.54 30.54 0 0 1 7.33.44zM130.32 135.97a20.34 20.34 0 0 1 6.76-6.32l-.07 1.58a22.32 22.32 0 0 0-6.88 7.23z" fill="#0f141b"/><path d="M221.3 375.27c3.73 21.17 27.44 36.25 28.43 35.39.81-.71-3.93-33.37-18-41.64-7.32-4.29-10.78-8.06-16.12-15.62a52.72 52.72 0 0 0 2.62 9.88 58.49 58.49 0 0 1 3.07 11.99zM328.86 233.91c-22.2 13.32-28.32 53.05-25.3 55.27 1.38 1 33.14-28.06 32.63-52.38-.1-4.5-2.85-5.58-7.33-2.89zM26.71 287.2c-5.46-5.56-13.9-10.13-14.38-9.81-1 .67 2.48 18.08 4.3 20.43 8.27 10.73 19.35 17.47 26.61 19.82-2.75-9.88-8.87-22.67-16.53-30.44z" fill="#30363a"/><path d="M12.46 277.66c18.57 11.52 28.8 37.31 28.57 37.59s-3.9-1-8.51-3a41.69 41.69 0 0 0 10.51 5.27c-2-10.89-14-32.11-21.91-38a10.53 10.53 0 0 0-8.66-1.86zM227.03 366.4c16.73 13.41 21.34 40.87 20.83 41.16s-4.43-1.07-9.68-5c4.17 4.1 8 7.19 11.56 8.2 0-17.54-10.47-37.45-17.27-41.26-1.66-.98-3.07-1.79-5.44-3.1zM328.79 234.16c-17.52 14.06-25.2 51.56-24.12 52 .89.39 6.12-4 10.3-8.1-4.5 6-10.21 11.49-11.44 11-2.65-1.09 1.22-39.93 25.26-54.9z" fill="#5d6970"/><path d="M215.25 354.71c-.47-2.86-.15-2.92 1.58-.54 5.31 7.29 7.67 10.09 15.16 14.28 14.75 8.27 19.87 42 18.31 43s-26.61-14.23-29.67-36a48.83 48.83 0 0 0-3-12 38.25 38.25 0 0 1-2.38-8.74zm1.41 1.07a33.69 33.69 0 0 0 2.15 7.22 53.51 53.51 0 0 1 3.06 12.14c3.48 20.74 26.54 35.27 27.29 34.7s-4-32.07-17.88-40.25c-6.92-4.07-9.98-7.09-14.62-13.81zM303.11 289.97c-4.49-1.61 3.3-43.76 24.31-55.74 2.1-1.19 2.49-.51.46.79-20 12.84-26.54 52.15-24 53.2 1.71.71 31.28-29.27 31.76-49.86.07-2.86.82-2.86.92 0 .7 20.5-29.98 52.87-33.45 51.61zM42.29 317.97c-7-2.27-18.13-8.72-26.27-19.57-1.75-2.34-5.91-20.73-4.2-21.81 1.11-.7 7.22.46 9.73 2.26 7 5 17.85 22.75 22 37.74.53 1.79.4 1.91-1.26 1.38zm-29.43-39.8c-.74.51 2.67 17.08 4.34 19.26 8.11 10.51 18.24 16.82 25.17 19.28-3.9-13.27-15.32-31.82-21.5-36.38-2.71-2-7.41-2.58-8-2.17z" fill="#0f141b"/></svg>