<svg xmlns="http://www.w3.org/2000/svg" viewBox="0 0 417.71 469.6">
  <title>Zygarde</title>
  <g>
    <path d="M115.33,329.45a12.9,12.9,0,0,0-3.65-4.45c-16.47-13.23-24.28-37.92-15.14-73.69C78.48,239.45,44.26,217.61,20.73,201c-1.26-9.13-1.38-15.31-2.26-25.32-6-4.51-10.89-8.14-15.77-12.14-.67-5.26-1.42-11-2-16,4.67,0,9.26-.17,15.52-.09,4.42,3.42,8.34,7,13.35,11.1,9.18-1.58,15.27-3.09,23-5.09,12.17,11.68,28,27.23,40.49,39.74a72.38,72.38,0,0,1,11.14-8.08c-14.2-19-23.86-32-37.61-51.85,3.25-13,5.75-22.16,7.88-32.92C68.71,90.21,61.58,78.35,57,70.81c1.38-6.38,1.88-9.39,3.25-15.77,5.14,1.88,9.27,3.5,16.15,6.3,4.67,9,11,21,16.52,30.87C100,93.7,111,95.86,120.36,97.53c11.82,30,21.61,54.69,30.32,76.41l2.28.17c1-1.06,1.82-1.81,4.36-4.25-3.25-27.29-6.48-59.94-8.92-84.51,7.67-8.68,18-20.36,29.37-32.88.67-14.35.5-23,1-35.21A183.38,183.38,0,0,1,192.12.91c3.51,4.17,6.84,8.34,12,14.85-.84,9.34-2.34,23-3.51,35.05,9.85,13,19,25.2,28.21,37-5.91,31.18-16,77.53-22.22,107.79l1.25,1.36C228,160,248.53,122.2,264.36,95c13.52-3.17,24.2-5.51,36.72-8.34,6.51-8.85,11.51-16.19,18.19-25.37,4.51-1,8.68-1.67,16.69-3,.67,5.84.83,10.68,1,18.19C331.64,83.18,326,90,319,99c-.17,12.35-.17,24.53,0,36.77-24.16,28.64-55,64.64-80.38,95.49,25.85-21.7,68-55.82,93.73-74.12,9.18,4.77,18.19,9.45,29.2,15,8-4.17,13.86-7.51,21.2-11.85a154.19,154.19,0,0,1,18.86,6.35c-3.09,7.3-4.84,11.68-7.85,18.06-6.63,2.63-13.14,5.38-21.15,9.14-6.13,10.89-10.52,19.4-18.28,34.17-27.28,9.26-76.72,26.91-107.64,39.18q.12,3,.07,5.83c-2,1.17-3,1.8-4.78,2.76a123.86,123.86,0,0,1-4.09,15.86A130.44,130.44,0,0,1,224.5,298c-1.76-3.26-3.42-5.43-5.34-8.51,1.16-4.68,1.83-7.43,2.92-11.94a78.15,78.15,0,0,0-8.26-9.09c-4.68,2.67-6.93,4.09-12,7.42-.67,3.93-1.42,7.18-2.59,12.52-3.92,1.92-8.59,3.92-13,6.09-1.51,6.09-2.34,9.35-3.51,14.69-4,1.83-8.51,4.09-13.1,5.84-.92,4.84-1.5,7.76-2.92,13.77a47,47,0,0,1-8.76,5.67c-2.67-2.83-4.34-4.84-6.76-7.59.42-5,.75-8,1.33-12.69a48.63,48.63,0,0,0-11.09-7.84c-.57-3.54-1.53-10.13-2.15-14-3.55-1.8-7.55-3.89-11.22-5.69A46,46,0,0,0,121,294c.56,4.84,1,8.11,2.09,13.52a46.4,46.4,0,0,0-6.6,7.33,91,91,0,0,0,1.92,11.73C117.14,327.69,116.45,328.4,115.33,329.45Z" transform="translate(0.01 -0.06)" style="fill: #3e2f33"/>
    <path d="M289.46,429.14c-9.26-15.27-21.15-31.42-31.42-32-8.7-.53-17.08,6-25.78,17.65-7.76,10.39-22,28.78-38.43,29.16-16.75.38-23.48-12.21-22.78-33.79.63-19.28,15.77-50.57,27.47-66.86a8,8,0,0,1,2.6-1.6c.53.14,1.21.35,2,.58,33.45-22.89,43.63-45,43.61-69.23-2,1.17-3,1.8-4.78,2.76a123.86,123.86,0,0,1-4.09,15.86A129.36,129.36,0,0,1,224.5,298c-1.76-3.26-3.42-5.43-5.34-8.51,1.16-4.68,1.83-7.43,2.92-11.94a78.15,78.15,0,0,0-8.26-9.09c-4.68,2.67-6.93,4.09-12,7.42-.67,3.93-1.42,7.18-2.59,12.52-3.92,1.92-8.59,3.92-13,6.09-1.51,6.09-2.34,9.35-3.51,14.69-4,1.83-8.51,4.09-13.1,5.84-.92,4.84-1.5,7.76-2.92,13.77a47,47,0,0,1-8.76,5.67c-2.67-2.83-4.34-4.84-6.76-7.59.42-5,.75-8,1.33-12.69a48.63,48.63,0,0,0-11.09-7.84c-.57-3.54-1.53-10.13-2.15-14-3.55-1.8-7.55-3.89-11.22-5.69A46,46,0,0,0,121,294c.56,4.84,1,8.11,2.09,13.52a46.4,46.4,0,0,0-6.6,7.33,91,91,0,0,0,1.92,11.73c-1.19,1.18-1.88,1.89-3,2.94,3.62,5.09,5.71,15.59,2,25.59-7.8,21.18-22.78,45.31-17.35,78.11,3.68,22.26,34.12,36,61.41,35.21,23.07-.63,50-11.89,69.83-36.38,17.71,18.57,46.65,23.31,74.2,23.2,29.37-.13,48.9-1.17,60.58-9,17.41-11.69,36.21-20.9,48.9-23.69a25.69,25.69,0,0,0,1.91-11.85,115.46,115.46,0,0,0-16,.16c-4.32,1-11.29,3.28-18.75,5.82l-1.09-3.5A140.35,140.35,0,0,1,402.84,407a33.78,33.78,0,0,0,1.51-7.52,91,91,0,0,0-15.82-.94,107.21,107.21,0,0,0-25.93,5.78,35.42,35.42,0,0,0-.17-7.35,54,54,0,0,0-11,.67A133,133,0,0,0,318.25,411c-8.84,4.9-15.73,7.51-24.41,8.83,4.82,7,12.45,17.52,26.22,23.9-4.13.32-11,.17-14-.52-3.44-4-6.4-7.7-9.51-11.56C294.13,430.81,292,430,289.46,429.14Z" transform="translate(0.01 -0.06)" style="fill: #6fb92c"/>
    <path d="M319.81,443.63c-29.08-13.83-34-45.52-49-58.55-13.14-11.39-39.05-13.77-61.33-11.76-10.53.94-22.44,9.55-32.27,23.11,6-19.36,15.41-40.09,25.9-54.19-.78-.23-1.46-.44-2-.58a8,8,0,0,0-2.6,1.6c-11.7,16.29-26.84,47.58-27.47,66.86-.7,21.58,6,34.17,22.78,33.79,16.4-.38,30.67-18.77,38.43-29.16C241,403.1,249.34,396.57,258,397.1c10.27.62,22.16,16.77,31.42,32,2.58.88,4.67,1.67,7.09,2.5,3.11,3.86,6.07,7.56,9.51,11.56C310.32,443.76,315.93,444.55,319.81,443.63Z" transform="translate(0.01 -0.06)" style="fill: #3e2f33"/>
    <path d="M147.21,179.83c-12.13,16.66-18.45,42-20,67.07C137.93,225.28,143.84,203.24,147.21,179.83Z" transform="translate(0.01 -0.06)" style="fill: #fff"/>
    <path d="M183,203.59c2.83-3.92,4.92-6.67,7.34-9.68,4.42,2.25,7.51,3.76,11.93,6,.5,3.25,1,6.34,1.42,10.76-1.75,2.51-3.76,5.18-6.18,8.1a99.91,99.91,0,0,1,1,10.51c-3.09,4-5.59,7.6-9.27,12.43-4.25-.75-7.42-1.5-12.1-2.5-3.25,3.34-5.42,5.59-8.76,9.35-5,0-8.84.08-13.93.08-1.59-4.5-2.51-7.59-4.43-13.1,5.76-4.92,9.85-8.43,13.69-12,4.76,1.17,7.76,1.84,11.6,2.59,3.84-3.5,7.26-6.59,10.35-10C184.69,211.1,184,208.18,183,203.59Z" transform="translate(0.01 -0.06)" style="fill: #6fb92c"/>
    <path d="M163.75,223.53c4.76,1.17,7.76,1.84,11.6,2.59,3.84-3.5,7.26-6.59,10.35-10-1-5-1.67-7.93-2.67-12.52-5.43-1.75-9.68-2.92-14.52-4a66,66,0,0,0-8.93,9C161.25,214.11,162.41,218.61,163.75,223.53Z" transform="translate(0.01 -0.06)" style="fill: #fff"/>
    <path d="M91.86,194.08c.23,3.46.4,5.15.8,8.76-2.26,4.76-3.34,7.34-5.26,11.93.5,5.68,1,8.18,1.42,11.35,2,.17,3.84.42,6.34.59,1.42,4.67,2.17,7.09,3.59,11.43a85.06,85.06,0,0,0,9.51,1.75,75.78,75.78,0,0,1,7.14-8.45c-1.68-4.76-3.55-10.39-5.06-15.71A81.8,81.8,0,0,1,121,205.09c-1-5.38-1.87-9.57-2.25-13.76a65.62,65.62,0,0,0-9.51.12c-.31-3.07-.63-5.76-.94-8.39A73.1,73.1,0,0,0,91.86,194.08Z" transform="translate(0.01 -0.06)" style="fill: #6fb92c"/>
    <path d="M322.79,226.7c5.26-2,12.1-4.5,17.19-6.5,1.84-3.76,3.51-6.93,4.93-9.93a55.66,55.66,0,0,0-8.68-3c-4.76,1.84-11.18,4.51-16.27,6.34-1.59,2.84-2.84,5.76-4.68,8.68C318,224,319.62,225,322.79,226.7Z" transform="translate(0.01 -0.06)" style="fill: #6fb92c"/>
    <path d="M330.47,191.16c.33-4.17.5-6.43.92-10-3-.84-5.51-1.34-8.76-2.09-5.68,3.42-10.6,6.76-15.69,10.18a45.37,45.37,0,0,0-1.5,9.34c2.58.67,4.84,1.34,7.67,2.34C319,197.58,323.79,194.83,330.47,191.16Z" transform="translate(0.01 -0.06)" style="fill: #6fb92c"/>
    <path d="M300.74,144.6a81.48,81.48,0,0,0-1.48-9.95c-3.29.34-7.33.74-10.35,1.15-3,4-7.4,9.68-12.57,16.33,0,3.23.13,6.32.27,8.88,3.56,0,5.64-.07,9.47-.27C290.66,155.49,294.76,151.26,300.74,144.6Z" transform="translate(0.01 -0.06)" style="fill: #6fb92c"/>
    <path d="M276.27,126.52c-1.21-4.3-1.95-6.45-3-10.22a91.07,91.07,0,0,0-10.22,3.09c-3.76,5.18-6.79,9.42-9.88,14.32.34,3.09,1.08,6.86,1.88,10.69,2.63-.4,5.79-1.14,9.68-2C269.28,136.33,272.44,131.7,276.27,126.52Z" transform="translate(0.01 -0.06)" style="fill: #6fb92c"/>
    <path d="M211.67,103.74A55.42,55.42,0,0,0,204.41,96c-2.33,1.44-5.41,3.63-8.69,5.82-.41,4.86-1.31,13.08-2.2,18.35a50.09,50.09,0,0,0,7.26,8,40.84,40.84,0,0,0,8.63-5.61C210,116.75,210.92,110,211.67,103.74Z" transform="translate(0.01 -0.06)" style="fill: #6fb92c"/>
    <path d="M177.3,100.73c-2.4-2.26-6.37-5.82-8.91-7.88-2.67,2.74-4.86,5-7.94,8.42a177.84,177.84,0,0,0,.34,19.86c2.54,2.88,4.45,4.86,7.6,8.29,2.88-2.95,5.07-5.21,8.5-8.22C177.09,113.67,177.23,108.46,177.3,100.73Z" transform="translate(0.01 -0.06)" style="fill: #6fb92c"/>
    <path d="M120.56,118.82c-3.39-1.3-5.77-2.15-9.16-3.46a57.86,57.86,0,0,0-2.92,9.08c2.61,5,5.54,9.85,8.31,15.46a45.14,45.14,0,0,0,7.07,1.77c1.08-2.69,1.93-4.54,3.24-7.15C125,129.06,123.25,124.67,120.56,118.82Z" transform="translate(0.01 -0.06)" style="fill: #6fb92c"/>
    <path d="M94.86,133.44c-3.31-.69-7.23-1.23-10.61-1.85-.77,4.16-1.08,6.7-1.77,9.77,3.69,5.7,6.69,10,9.92,14.7a66.12,66.12,0,0,1,8.16,1.23,42.45,42.45,0,0,0,2.07-10.46C99.86,142.06,97.17,137.36,94.86,133.44Z" transform="translate(0.01 -0.06)" style="fill: #6fb92c"/>
    <path d="M72.94,191.75c-.08-3.23-.23-6.54-.54-9A142,142,0,0,0,61.63,173c-3.15.16-5.62.39-8.08.62.16,3.08.39,5.31.54,8.31,3.85,3.54,8.62,7.61,12.23,10.84A20.67,20.67,0,0,0,72.94,191.75Z" transform="translate(0.01 -0.06)" style="fill: #6fb92c"/>
    <path d="M42.24,194.6c-2.3.77-5.61,2.08-7.69,2.92a63.59,63.59,0,0,0,1.77,7.7c3.62,2.46,9.54,6,13.85,9.15a60.77,60.77,0,0,0,7.38-2.08c-.46-2.46-1-5.07-1.54-7.69C51.47,201.14,47.71,198.45,42.24,194.6Z" transform="translate(0.01 -0.06)" style="fill: #6fb92c"/>
    <path d="M139.07,292.22c-4.06-2.06-7.3-3.7-11.11-5.71a45.7,45.7,0,0,0-7.2,7.51,113,113,0,0,0,2.37,13.53c4,2,7.2,3.65,11.41,5.81,2.88-3.14,4.17-4.37,6.85-7.05C140.35,300.71,139.69,297,139.07,292.22Z" transform="translate(0.01 -0.06)" style="fill: #fff"/>
    <path d="M202.6,322c-2.22-2.27-4.28-4.44-6.83-6.93-2.86,1-5,1.88-8.83,3.36-1.25,3.63-2.76,9.1-4.39,13.6a74.34,74.34,0,0,1,5.69,6.83c3-1,6.18-2.17,9.54-3.63A137.49,137.49,0,0,1,202.6,322Z" transform="translate(0.01 -0.06)" style="fill: #fff"/>
    <path d="M141.55,417c2.59,3,4.26,4.84,7,7.76a103.92,103.92,0,0,0,11.27-4.59c1.25-4.92,2.08-9.43,3.17-14.68-1.75-2-3.26-3.84-4.84-6-4.28,1.46-8,2.7-12.65,4.21C144.06,408.48,143.2,411.15,141.55,417Z" transform="translate(0.01 -0.06)" style="fill: #fff"/>
    <path d="M219.38,391.73a93,93,0,0,1,6.08-7.23,58.36,58.36,0,0,0-3.17-5.68c-3.32.95-6,1.89-9.67,3-2.23,2.44-4.26,4.67-6.22,7.17a55.94,55.94,0,0,1,4.6,5.13c-2.09,2-4.33,4.46-6.69,7.23a60.52,60.52,0,0,0,2.84,7.5,64.06,64.06,0,0,0,9.59-2,104.88,104.88,0,0,1,7-9.25C222,395.24,221,394,219.38,391.73Z" transform="translate(0.01 -0.06)" style="fill: #6fb92c"/>
    <path d="M98.47,307.48c-6.63.39-12.28.73-18.56,1.71-3.15,4.2-5.68,8.2-8.41,12.08-9.45,1.68-16.39,2.73-26,4.84a88.6,88.6,0,0,1-11.67-6.94c3.68-3.36,6.62-6.62,10.62-10.4,6.72-.74,11.24-1.26,17.12-2.31,4.94-4.83,9.67-9,14.08-14,7.67,0,11.93.09,18.24.19C95,298,95.86,302.07,98.47,307.48Z" transform="translate(0.01 -0.06)" style="fill: #3e2f33"/>
    <path d="M115.82,329.91c-6.65,4.12-14.48,8.18-24,13a47.59,47.59,0,0,1-13.66-4.41c3.27-5.11,5.47-8.37,9.25-13.87,6.12-2.24,12.42-4.48,18-6.46C107.6,322.41,112.84,325,115.82,329.91Z" transform="translate(0.01 -0.06)" style="fill: #3e2f33"/>
    <path d="M92.92,282.89c-7.93-2.12-13.56-3.66-21.94-6-5.36,1.79-8.72,2.95-13.45,4.42-7-2.84-12.29-4.42-19.12-6.73-1.26-3.26-2.53-6.72-3.89-10.29-5.15-2.11-10.09-3.89-15.24-5.89-2.1-4.09-3.67-6.72-5.88-10.82,4-1.47,7.25-2.94,11.66-4.62,7.88,2.52,12.93,4.51,20.07,7.25a90.57,90.57,0,0,0,4.94,11.24c3.78,1.36,6.3,2.41,11.14,4,3.78-1.58,7.14-3.36,10.29-4.94,7.41,2.15,16,5.47,22,7.7A81.88,81.88,0,0,0,92.92,282.89Z" transform="translate(0.01 -0.06)" style="fill: #3e2f33"/>
    <path d="M226.09,402.92a48.33,48.33,0,0,1-7.38,1.21c-.62.87-1.26,1.79-2,2.8a64.06,64.06,0,0,1-9.59,2c-.88-2-1.42-3.29-2-4.92-11-1.19-21.68-4.83-26.88-10.58-4.3,16.07-.72,37.32,10.51,42.34,3,1.32,5.87,1,9.92-.13,11-3.14,23.35-20.26,28.44-31C227.85,403.11,227.3,402.61,226.09,402.92Z" transform="translate(0.01 -0.06)" style="fill: #301e21"/>
    <path d="M216.74,406.93c.71-1,1.35-1.93,2-2.8a69.72,69.72,0,0,1-13.55-.16c.57,1.63,1.11,2.88,2,4.92A64.71,64.71,0,0,0,216.74,406.93Z" transform="translate(0.01 -0.06)" style="fill: #5fa125"/>
    <path d="M271.31,416.12c22.39,28.84,32,31.68,64.54,31.68a52.18,52.18,0,0,0,28.75-8.56,140.5,140.5,0,0,1,40-17.59c8.57-2.17,10.47-3.12,12.18-11a26.1,26.1,0,0,1-1.95,11.65c-17.07,5-33.4,13.61-46.44,22.31-9.26,6.17-20.26,9.2-31.79,9.76-34,1.67-82,2.52-105.41-22.36,4.77-6.09,7.36-9.68,9.36-13.69,3.78-7.56,12.24-13.52,17.27-13.18C261.55,405.36,265.8,409,271.31,416.12Z" transform="translate(0.01 -0.06)" style="fill: #5fa125"/>
    <path d="M116.6,330.13c8.62,8.63,13.57,23.6,5.48,42.5-9.4,22-10.1,46.85-.79,59.92C135.88,453,197,472.7,242.07,415.81c-15.23,29-48,52.27-79.73,52.44-26.48.13-53.79-10.91-60.4-28.81-7.86-21.28-1.2-44.9,10.8-72.68C117.85,354.92,122.51,344.34,116.6,330.13Z" transform="translate(0.01 -0.06)" style="fill: #5fa125"/>
    <path d="M381,413.62a124.22,124.22,0,0,0-15.18,8.43c5.33-1.81,11.56-3.92,16-5.51C381.53,415.39,381.3,414.55,381,413.62Z" transform="translate(0.01 -0.06)" style="fill: #5fa125"/>
    <path d="M373.07,412.12c24.78-6.95,28.41-7.89,31.28-12.68a27.52,27.52,0,0,1-1.66,7.38c-5.55,1.42-15.6,3.94-21.71,6.35A70.49,70.49,0,0,0,373.07,412.12Z" transform="translate(0.01 -0.06)" style="fill: #5fa125"/>
    <path d="M350.35,406.49a92.31,92.31,0,0,0-8.76,6.75c4-1.94,9.45-4.44,13-6A23.55,23.55,0,0,0,350.35,406.49Z" transform="translate(0.01 -0.06)" style="fill: #5fa125"/>
    <path d="M348.81,406c6.7-2.4,12.37-5.17,13.65-9a36.25,36.25,0,0,1,.14,7.29c-3.3,1.14-5.74,2.08-8,3A30.11,30.11,0,0,0,348.81,406Z" transform="translate(0.01 -0.06)" style="fill: #5fa125"/>
    <path d="M13.55,247.69c2,.47,5.7,3.78,7.64,7.4a1.37,1.37,0,0,0,.86.75c4.53,1.76,9,3.43,13.94,5.3.54.2.65.28.85.78,1.3,3.34,2.45,6.45,3.68,9.55.16.39.38.53.86.7,4.76,1.66,10.47,3.83,15.49,5.7a1.37,1.37,0,0,0,1.05,0c4.39-1.43,8.72-2.93,12.54-4.4a1.25,1.25,0,0,1,1.07,0c6.37,1.76,15.46,4.48,21.33,6.1v3.13c-7-1.88-13.81-3.7-21.86-5.89-3.63,1.3-8.09,2.88-13.43,4.51-5.39-2-12.81-4.71-19.07-6.68-1.46-3.71-2.67-6.8-4-10.22-5.09-2-10.8-4.38-15.06-6C17.26,254.28,15.64,251.07,13.55,247.69Z" transform="translate(0.01 -0.06)" style="fill: #301e21"/>
    <path d="M34.12,319.18c3.3-.16,6.53,1,11.29,3.16a1.67,1.67,0,0,0,1.33.11c5.47-1.05,15.61-3,22.21-4.06a1,1,0,0,0,.86-.55c2.26-3.54,5.4-8.21,8-12a1,1,0,0,1,1-.58c4.85-.53,11.61-.85,18.34-.94l1.38,3.07A159.9,159.9,0,0,0,80.12,309c-3.35,4.42-5.57,7.86-8.45,12.14-7.45,1.35-17.81,3.2-26.13,4.89A94.29,94.29,0,0,1,34.12,319.18Z" transform="translate(0.01 -0.06)" style="fill: #301e21"/>
    <path d="M78.34,338.31c3.56-.61,7.37.13,12.17.85a2,2,0,0,0,1.41-.18,185,185,0,0,0,21.76-12.22,24.07,24.07,0,0,1,2,3c-4.8,3.17-17.4,10-23.91,13.1A53.09,53.09,0,0,1,78.34,338.31Z" transform="translate(0.01 -0.06)" style="fill: #301e21"/>
    <path d="M354.17,228.12c-35.92,11.89-79.86,28.49-107.74,39,.4-13.38-6.57-25.88-11.38-32.93,19.79-16.75,43.34-35.58,53.39-43.53a138.23,138.23,0,0,1,21.49,43.83,3.09,3.09,0,0,0,3.66,2.41,3.62,3.62,0,0,0,.56-.17c11.64-4.1,25.51-8.86,35.65-12.6a1.66,1.66,0,0,0,1.08-.94c6.26-11.31,12.37-22.23,18.47-32.45a1.73,1.73,0,0,1,1-.84c5.27-2.26,13-5.83,18.42-8.1.62-.26.71-.54,1.17-1.12,2.57-3.24,9.7-11.5,11.73-14-2.49,5.45-4.78,11.47-8.13,18.12-6.6,2.57-13.21,5.41-20.83,9C367.88,202.69,359.51,217.86,354.17,228.12Z" transform="translate(0.01 -0.06)" style="fill: #301e21"/>
    <path d="M235.23,147.08a140.52,140.52,0,0,1,41.22,29.39c.4.41.66.4,1,0,8.5-9.62,24.79-27.9,35.18-41.9a1.92,1.92,0,0,0,.51-1.44c.4-9.77.51-22.94.76-33.31a6.79,6.79,0,0,1,1.5-4.21C321.06,89,326.23,82.88,331,76.67c1.29-1.68,1.47-3.73,2.06-5.79a110.86,110.86,0,0,0,2.85-12.6,120.59,120.59,0,0,1,.95,17.92c-5.42,7.37-11.92,15.35-17.76,22.85-.21,11.67-.2,25.6-.07,36.7-19.11,22.87-63.25,74.22-79.9,95.13l-3.88,3.35a78.51,78.51,0,0,0-7.2-8.57l.5-.75a39.5,39.5,0,0,0-4.83-9.95c-1.62.83-2.83,1.37-4.25,2-3.08-7.19-5.08-12.28-11.59-19.88C216.24,181.48,226.43,162.33,235.23,147.08Z" transform="translate(0.01 -0.06)" style="fill: #301e21"/>
    <path d="M206,57.65a296.92,296.92,0,0,0,15.29,28.73c1.27,2.11,1.92,3.4,1.38,6.16-3.19,16.41-6.1,31.18-9.25,45.42-.16.72-.51.85-1.18.67a137.08,137.08,0,0,0-58.67-3c1,10.28,2.69,23.27,4,34.19,4.86-4.66,6.73-6.32,10.32-9.25.47,4.19,1.13,9.25,1.53,15.51,17.18,1.93,31.57,12,37.14,19.72,4-16.9,17.1-81,22.27-107.88C222.81,80.07,212.73,66.74,206,57.65Z" transform="translate(0.01 -0.06)" style="fill: #301e21"/>
    <path d="M137,139.53a136,136,0,0,0-43.6,22.58c-.5.38-.65.27-1-.16-4.81-6.63-13.09-18.16-20-28.36A3.92,3.92,0,0,1,72,130c2.47-9.57,5.18-21.06,6.68-29.91a1.75,1.75,0,0,0-.28-1.33c-4.84-8-10.66-19-16.79-28.68a2.2,2.2,0,0,1-.22-1.24,134.64,134.64,0,0,0-1.16-13.75c-1,5.11-1.76,8.9-3.35,15.55,6.52,11,11.49,19.29,17.48,29.59-2.41,11.28-4.49,20.88-7.83,33,10.09,14.77,27,37.3,37.38,51.66,7.76-3.84,15.1-7.1,24.53-8.6,2.28-2.81,15-18.28,15-18.28L146,173.79a28.74,28.74,0,0,0,4.73.15C147.85,166.77,139.94,146.57,137,139.53Z" transform="translate(0.01 -0.06)" style="fill: #301e21"/>
    <path d="M76.65,177.2c-1.59,1.66-3.16,3.37-4.69,5.12l.44.43c.31,2.46.46,5.77.54,9a20.65,20.65,0,0,1-6.62,1c-.54-.48-1.1-1-1.69-1.49q-4.69,6.15-9,13l.41.31c.54,2.62,1.08,5.23,1.54,7.69a60.77,60.77,0,0,1-7.38,2.08l-.34-.24c-.09.18-.18.34-.28.52-4.58-3.17-14.07-9.53-21.79-14.52a4.91,4.91,0,0,1-2.32-4c-.69-6.47-1.33-14.78-1.9-21.52a1.75,1.75,0,0,0-1-1.63c-5-3.51-9.63-6.73-15.16-11.07a2,2,0,0,1-.8-1.32,79.87,79.87,0,0,0-5.7-12.7c.57,4.95,1.2,10.2,1.91,15.33C8,167.59,12.3,171,18.39,175.68c.67,8.55,1.21,16.44,2.34,25.16,20.73,14.52,40.55,28.16,61,40.8-1-5.26-1.84-10.43-2.63-15-1.67-1.12-2.92-1.83-4.63-2.87-1-7.81-1.8-16.19-2.09-23.45a67.38,67.38,0,0,1,8.18-7.1,66.5,66.5,0,0,1,3.34,9.6,77.14,77.14,0,0,1,8.92-9.68C88.57,188.78,82,182,76.65,177.2Z" transform="translate(0.01 -0.06)" style="fill: #301e21"/>
    <path d="M72.94,191.75c-.08-3.23-.23-6.54-.54-9l-.44-.43q-3.76,4.27-7.33,8.94c.59.51,1.15,1,1.69,1.49A20.65,20.65,0,0,0,72.94,191.75Z" transform="translate(0.01 -0.06)" style="fill: #5fa125"/>
    <path d="M57.55,212.29c-.46-2.46-1-5.07-1.54-7.69l-.41-.31q-3,4.72-5.77,9.84l.34.24A60.77,60.77,0,0,0,57.55,212.29Z" transform="translate(0.01 -0.06)" style="fill: #5fa125"/>
    <path d="M103.09,255.08a91.15,91.15,0,0,1,5.32,8.29c7.54,3.05,24.69,6.33,32.74,7,3.74-1.16,10-5.18,14.5-8.18,13.53-.4,29.07-3.51,39.14-7.42,3.57-3.86,8.4-9,13.18-13.35,2-.23,3.45-.35,6.39-.64a65.31,65.31,0,0,0,14-16.54c-3.88,4.41-10.25,9.11-14.69,12.33a1.92,1.92,0,0,1-1.33.5c-1.88.08-3.84.12-6.21.12a1.29,1.29,0,0,0-1.1.46c-4.07,4.08-8.73,8.89-13,13.47a2.64,2.64,0,0,1-1.07.66c-8.3,2.67-23.9,5-35.89,6a58.3,58.3,0,0,1-14.3,7.87,2.69,2.69,0,0,1-1.48.24c-5.4-.29-21-3.25-27.52-5.57a2.34,2.34,0,0,1-1.18-.92c-2-3.12-4.45-6.67-6.09-9.13-6.89-4.72-10.53-7.51-15.86-11.8a1.82,1.82,0,0,1-.74-1.08,89.3,89.3,0,0,1-2.53-11.9,1,1,0,0,0-.52-.87c-1.64-1.08-2.91-1.87-4.14-2.81a1.13,1.13,0,0,1-.5-1c-.19-7.44,1.28-13.56,3.77-18a87.89,87.89,0,0,0-3.34-9.6,83.87,83.87,0,0,0-8.39,7c.77,9.21,1.15,13.78,2,23.54a40.75,40.75,0,0,1,4.7,2.84c.75,4,1.67,9.93,2.84,15.06C88.61,246.57,99.61,253,103.09,255.08Z" transform="translate(0.01 -0.06)" style="fill: #301e21"/>
    <path d="M132.87,269.43c10.89,14.14,21.63,23,31.8,22.4,22.53-1.25,53.19-33.92,56-57.32-2.55,2.72-4,4.07-6.59,6.47-2.52.18-4,.23-6.06.41-4.72,4.39-9.16,9-13.18,13.35a134,134,0,0,1-39.14,7.42c-4,2.72-10.16,6.72-14.5,8.18C138.81,270.15,136.6,269.94,132.87,269.43Z" transform="translate(0.01 -0.06)" style="fill: #301e21"/>
    <path d="M235.43,211.77a35.67,35.67,0,0,1-.84-6c2.32-2.66,5.56-6.66,7.77-8.75a.56.56,0,0,0,.17-.4c.08-3.49.15-6.11.39-8.79,2.85-2,4.86-3.57,7.83-5.76a42.84,42.84,0,0,1,5.29.85c-.06,1.92-.16,4.51-.26,6.94a73.92,73.92,0,0,1-6.16,6.23.52.52,0,0,0-.2.4c-.16,2.75-.24,4.84-.3,7.71-2.28,3-4,5.12-6.42,7.81C241.7,212.06,237,211.94,235.43,211.77Zm7.64,1.93a.76.76,0,0,0,.7-.35c2.53-2.84,4.39-5.09,6.81-8.28a1.16,1.16,0,0,0,.22-.72c-.06-3.35-.11-5.36,0-7.37a84.33,84.33,0,0,0,6.26-6.14.91.91,0,0,0,.32-.9v-7.38a.75.75,0,0,0-.6-.84c-1.94-.52-3.64-.86-5.81-1.23a1.25,1.25,0,0,0-.93.1c-3,2.24-5.21,3.94-8.15,6.06a.94.94,0,0,0-.46.81c-.27,2.84-.25,5.52-.27,8.8-2.2,2.08-5.65,6-8.19,8.75a41.09,41.09,0,0,0,1.08,8.26c1.46.25,8.22.45,9,.43Z" transform="translate(0.01 -0.06)" style="fill: #0f141b"/>
    <path d="M241.85,195.85c2.7.14,6,.05,8.81,0l-.54,1.6c-2.84.11-5.6,0-8.8-.16Z" transform="translate(0.01 -0.06)" style="fill: #0f141b"/>
    <path d="M292.42,250.06a51.27,51.27,0,0,0,2.41-8.31,70,70,0,0,0-6.9-3.25c-4.7,2.16-8.5,4-13,6.42a40.37,40.37,0,0,0-2.55,6.34c2.09,1.11,4.58,2.54,6.62,3.71l-1.65.67c-2-1.12-3.78-2.11-6-3.3-.51-.27-.65-.49-.46-1.07a66.31,66.31,0,0,1,2.51-6.82,1.27,1.27,0,0,1,.68-.72c4.66-2.52,8.43-4.33,13.27-6.55a1,1,0,0,1,1-.07c3.12,1.37,4.93,2.2,7.42,3.55.47.26.61.49.48,1.17a47.87,47.87,0,0,1-1.91,7.54Z" transform="translate(0.01 -0.06)" style="fill: #0f141b"/>
    <path d="M126.37,246.73c2.19-29.37,8.19-50.09,20.23-67.28.84-1.2,1.47-.88,1.28.44-3.68,26.33-9.56,46.73-20,67.3C126.59,249.7,126.19,249.13,126.37,246.73Zm19.77-64.23c-9.51,15.27-15.64,35.61-18,60.89C136.63,225.18,142.39,205,146.14,182.5Z" transform="translate(0.01 -0.06)" style="fill: #0f141b"/>
    <path d="M133.75,249.14c10.31-9.58,20.15-17.95,29.12-25.81-1.89-6-2.44-8.46-4.18-14.18-.17-.57-.13-.76.2-1.13a121.49,121.49,0,0,1,11-11c-.7-10.38-1.71-24.61-2.8-34.6a210.22,210.22,0,0,0-19.63,18.47c-.47.49-.85.27-1-.28a186.69,186.69,0,0,1-3.59-20.46,311.12,311.12,0,0,0-23.31,30.22c.58,5.29,1.25,9.58,2,14.34a.92.92,0,0,1-.33,1,78.65,78.65,0,0,0-9.87,10.12C114,225,117.76,236.71,121,247c1.07,3.44.16,3.73-1.08.35-3.72-10.16-7.73-22.13-10.48-31.06-.23-.74-.23-1,.22-1.44A102,102,0,0,1,120,204.75c-.85-4.79-1.56-9.05-2.37-14.4a1,1,0,0,1,.2-.89,318.31,318.31,0,0,1,24.94-32.1c1.09-1.23,1.39-1.14,1.59.42,1.11,8.7,1.93,13.57,3.29,20.31A244.72,244.72,0,0,1,166.84,160c1.13-1,1.68-.81,1.84.66,1.13,10.05,2.39,25.73,3.1,36.5a1.26,1.26,0,0,1-.51,1.26A95.63,95.63,0,0,0,160.2,208.9c1.62,5.45,2.52,8.12,4.45,14.3a1,1,0,0,1-.44,1.34C155,232.32,144.72,241.22,134.5,250,132.13,252,131.34,251.39,133.75,249.14Z" transform="translate(0.01 -0.06)" style="fill: #0f141b"/>
    <path d="M169.37,198.86c4.87,1.23,8.72,2.35,13.4,3.86,2.76-3.8,4.45-6.37,6.8-9.3.41-.51.65-.58,1.35-.22,4.37,2.28,7.05,3.7,11.53,6a.88.88,0,0,1,.63.82c.67,3.56,1.08,6.09,1.58,10.34a1.1,1.1,0,0,1-.24,1c-2.23,2.92-3.71,4.7-6.17,7.71.56,3.44.93,6.26,1.26,10a1.09,1.09,0,0,1-.23.87c-3.15,4-5.45,7.26-9.2,12.24a.91.91,0,0,1-1.07.43c-4.33-.79-6.88-1.48-11.59-2.58-3.07,3.15-5,5.35-8.28,9.06a1,1,0,0,1-.94.38c-4.85-.08-8.7-.11-13.53,0-.54,0-.7-.07-.91-.62-1.73-4.57-2.86-7.83-4.59-12.52l1.44-1.18c1.88,5.28,2.92,8.47,4.37,12.9,5-.14,8.4-.21,13.1-.24,3.28-3.6,5.22-5.63,8.42-8.79a1,1,0,0,1,1.11-.33c4.92,1,7.55,1.58,11.32,2.23,3.48-4.58,5.74-7.89,8.74-11.83-.16-3.73-.4-6.44-.76-10.08a.94.94,0,0,1,.21-.8c2.19-2.78,3.74-5,5.64-7.68-.39-3.93-.64-6.71-1.17-10-4.3-2.19-6.83-3.32-11-5.38-2.29,2.85-4,4.9-6.71,8.7a1,1,0,0,1-1.28.44c-4.91-1.55-8.89-2.61-14.88-4Z" transform="translate(0.01 -0.06)" style="fill: #0f141b"/>
    <path d="M183.66,203.26c.86,3.81,1.76,7.57,3,12.86a.54.54,0,0,1-.17.52c-3.51,3.27-5.8,5.55-10.47,10.3a1,1,0,0,1-1,.25c-4.63-1-7.2-1.72-11.3-2.71l.31-1.6c4,.8,7,1.49,11,2.3,4.4-4.47,6.56-6.38,9.79-9.39-1-4.57-1.73-8.27-2.53-12.15Z" transform="translate(0.01 -0.06)" style="fill: #0f141b"/>
    <path d="M197.5,219.61c-4.59-1.08-7.72-1.62-12.05-2.58l.37-1.76c4.8,1,7.68,1.71,12.1,2.84Z" transform="translate(0.01 -0.06)" style="fill: #0f141b"/>
    <path d="M176.51,239.71c-.74-5.55-1.13-8.65-2.13-13.63l1.71-.42c.87,4.94,1.29,8.3,1.88,13.63Z" transform="translate(0.01 -0.06)" style="fill: #0f141b"/>
    <path d="M92.41,193.7C80.71,182,65.2,166.86,52.27,154.44c-7.13,1.86-13,3.2-22.28,4.81a1.43,1.43,0,0,1-1.32-.37c-4.78-3.95-8.48-7.14-12.76-10.49-6-.22-10.42-.15-14.4-.15C2.2,152.77,3,158.07,3.61,163c4.43,3.64,10,8.15,15.19,12.07a.89.89,0,0,1,.41.8c.8,10.07,1.2,15.57,2.43,24.6,22.15,15.88,47.36,32.27,60,40.32l-.12,1.67C69,234.46,43,218.09,20.52,202a1.31,1.31,0,0,1-.74-1.14c-1.26-9.24-1.37-14.76-2.1-24.73-5.31-4-10.94-8-15.45-11.72a1.55,1.55,0,0,1-.53-1.12C1.07,158.11.41,152.77,0,147.83c-.06-.74.1-1.12,1-1.16,4.81-.2,8.67-.22,14.8-.22a1.67,1.67,0,0,1,1.32.41c4.41,3.5,7.86,6.9,12.64,10.84,9.25-1.61,14.82-3.14,22-5,.8-.22,1.1-.21,1.62.29,13,12.46,28.38,27.78,40.14,39.6Z" transform="translate(0.01 -0.06)" style="fill: #0f141b"/>
    <path d="M151.85,175.14c-1.93,0-3.84-.06-5.73,0l-.27-2.13q4-.12,8.05.06Z" transform="translate(0.01 -0.06)" style="fill: #0f141b"/>
    <path d="M169.27,174.78c25.33,4.65,41.32,17.7,51,41.91l-1.46.63c-10-23.81-25.75-36-49.39-40.37Z" transform="translate(0.01 -0.06)" style="fill: #0f141b"/>
    <path d="M127.91,177.22c-17.82,3.79-33,12.59-43.33,26.1-.74,1-1,1-1.33-.15a70.65,70.65,0,0,0-2.91-8.75c-2.37,1.76-4.52,3.81-7.19,6.18.62,9.29,1.12,16.09,1.9,22.64,1.68,1,2.63,1.65,4.16,2.65a.92.92,0,0,1,.53.83c.92,5,1.62,9.21,2.69,14.34,8.08,5.72,13.55,9.14,20.78,13.37a.43.43,0,0,1,.16.14,73,73,0,0,1,5.44,7.95c8.64,3.62,22.11,6,32.06,6.94A56,56,0,0,0,155,261.71a1.35,1.35,0,0,1,.74-.3c14.5-.8,26.83-3.14,38.45-7.25,6.17-6.39,8.67-8.86,12.94-13.16a1.29,1.29,0,0,1,1-.45c2.15-.1,3.55-.17,5.59-.41a199.78,199.78,0,0,0,14-15.24,47.94,47.94,0,0,0-4.16-8.92,52.83,52.83,0,0,1-5.74,2.6.81.81,0,0,1-1.11-.24c-2.74-3-4.54-4.8-7.78-7.89-1.83.39-3.17.63-5.65,1.05l.38-1.53c2-.37,3.21-.62,5.13-1.06.53-.12.72-.12,1.08.23,3.3,3.19,5.11,5.11,7.7,7.93a55.63,55.63,0,0,0,5.74-2.71c.64-.35.84-.31,1.24.31a46.79,46.79,0,0,1,4.63,10,.82.82,0,0,1-.16,1,175.89,175.89,0,0,1-14,15.76,1.14,1.14,0,0,1-1,.44c-2.23.09-4,.17-5.83.23-4.32,4.13-6.8,6.62-12.79,12.94a1.72,1.72,0,0,1-.73.49,135.07,135.07,0,0,1-39,7.32,58.71,58.71,0,0,1-14.18,8.37,1.64,1.64,0,0,1-.9.1c-10.33-1.12-24-3.53-32.56-7.26a1.07,1.07,0,0,1-.69-.64,66.6,66.6,0,0,0-5-7.87,241.41,241.41,0,0,1-20.88-13.13,1.26,1.26,0,0,1-.58-.91c-1.13-5.71-1.67-9.8-2.57-14.46A43,43,0,0,0,74,224.43c-.37-.2-.41-.37-.45-.75-.81-6.71-1.52-13.56-2.16-23.13,0-.6,0-.71.42-1.09,2.92-2.59,5.75-5,8.37-6.88.58-.42.89-.25,1.08.23a85.42,85.42,0,0,1,2.93,8.65c10.11-13.67,26.26-22.94,45.36-26.67Z" transform="translate(0.01 -0.06)" style="fill: #0f141b"/>
    <path d="M173.3,260.32a112.58,112.58,0,0,1-5.79-11.51l1.63-.82a98.6,98.6,0,0,0,5.73,12Z" transform="translate(0.01 -0.06)" style="fill: #0f141b"/>
    <path d="M154.87,262.65c-.53-5.17-.87-9.15-1.11-13.9l1.55-.05c.19,4.77.41,8.59.91,13.44Z" transform="translate(0.01 -0.06)" style="fill: #0f141b"/>
    <path d="M119,192a77.78,77.78,0,0,0-9.89.34c-.7.06-1-.35-1-1-.21-3.76-.54-6.09-.54-8.1l1.55-.84c.12,2.55.47,5.06.66,8.14a63.51,63.51,0,0,1,8.94,0Z" transform="translate(0.01 -0.06)" style="fill: #0f141b"/>
    <path d="M115.59,232.43a67.61,67.61,0,0,0-6.68,8.13.55.55,0,0,1-.53.23c-3.63-.6-6.52-1.1-9.61-1.84-.51-.12-.63-.19-.8-.71-1.35-4.13-2.09-6.25-3.46-10.75-2.13-.22-3.67-.33-5.6-.66-.63-.12-.73-.22-.83-.82-.52-3-1-5.52-1.52-10.87a1.8,1.8,0,0,1,.14-1c1.85-4.41,2.91-6.74,5.14-11.46-.36-3.32-.6-4.77-.71-7.82l1.46-1.35c.19,3.69.33,5.52.79,9.11a1.16,1.16,0,0,1,0,.69c-2.24,4.74-3.2,7.26-5,11.63.37,5.48.81,8,1.16,10.46,1.93.21,3.56.32,5.7.37a.73.73,0,0,1,.86.62c1.41,4.63,1.92,7.09,3.25,11.15a59.11,59.11,0,0,0,8.57,1.3,80.38,80.38,0,0,1,7.2-8.22Z" transform="translate(0.01 -0.06)" style="fill: #0f141b"/>
    <path d="M110.51,216.4a73,73,0,0,1-7.83,0c-.59,0-.66-.17-.82-.69-1.22-4.18-2.09-8.06-2.82-11.25-2.22-.42-4-.6-6.5-.85v-1.53c2.43.11,4.37.26,7.1.59.54.07.8.26.94.91.83,4,1.48,7.32,2.59,11.32,2.33,0,4.5,0,7.42-.14Z" transform="translate(0.01 -0.06)" style="fill: #0f141b"/>
    <path d="M98.83,203.4a149.83,149.83,0,0,1,9.7-12.76L110,192a132.83,132.83,0,0,0-9.58,12.58Z" transform="translate(0.01 -0.06)" style="fill: #0f141b"/>
    <path d="M94.31,226.49c2-2.94,5.9-8.72,7.82-11.59l1.33.92c-1.92,2.87-6,8.86-8,11.8Z" transform="translate(0.01 -0.06)" style="fill: #0f141b"/>
    <path d="M87.9,245.94c3.47-2.84,6.71-5.25,10.47-8.45l1,1.14c-3.83,3.19-7.06,5.86-9.94,8.31Z" transform="translate(0.01 -0.06)" style="fill: #0f141b"/>
    <path d="M102.21,254.68c2.2-6.64,3.41-10.3,5.29-15l1.63.46c-1.88,4.79-3.34,8.41-5.75,15.62Z" transform="translate(0.01 -0.06)" style="fill: #0f141b"/>
    <path d="M228.57,225.07c7.44,7.23,12,15.24,15.34,24.73,1.8,5,.77,5.33-1.07.37a64.74,64.74,0,0,0-15.31-23.77Z" transform="translate(0.01 -0.06)" style="fill: #0f141b"/>
    <path d="M257.72,406c-5.53-.07-11.88,5.24-16.09,12.53-21.26,36.82-55.4,50.41-80.22,51.09-28.66.8-59.13-12.38-63.33-35.67-5.81-32.18,10.59-57.36,18.35-79.22,4.88-13.73.2-24.35-5.31-29-19.29-16.43-24.72-39.3-15.44-74.89l1.77,1.09c-7.92,33.07-2.54,57.47,14.82,72.52,6,5.16,11,15.94,6,31C110.67,378,96,400.15,101.2,433c3.09,19.38,30.91,34.92,60.17,34.13,24.51-.67,57.77-13.9,78.74-49.56,4.86-8.26,11.65-13.22,17.63-13.24,3.35,0,8.21,3.63,13.45,10.49,2.56,3.36,1.84,3.94-.89.72C265.11,409.37,260.35,406,257.72,406Z" transform="translate(0.01 -0.06)" style="fill: #0f141b"/>
    <path d="M355.34,228.25a1.37,1.37,0,0,1-1,.81c-25.48,8.65-75.13,26.1-106.88,38.68,1.29,31.31-11.24,52.53-42.8,74.62-7.43,5.2-25.41,44.34-26.74,58.27-1.66,17.38,2.43,28.76,10.5,33.78,3,1.84,2.26,2.72-.63,1.19-8.88-4.71-13.66-17.24-11.95-35.11,1.34-14.1,20.15-54.3,27.67-59.67,30.8-22,43.4-43.44,42.24-73.35,0-.69.11-.9.71-1.14,31.66-12.56,81.38-30.56,107-39.27,5.78-11,13.13-24.22,18.27-33.35a1.25,1.25,0,0,1,.6-.58c7.14-3.35,13.27-6.31,20.62-9.22,3-6.19,4.65-10.28,7.41-16.85a148.49,148.49,0,0,0-17.56-5.8c-7.24,4.28-12.89,7.32-20.88,11.48a1.11,1.11,0,0,1-1.06-.06c-10.67-5.34-19-9.4-28.51-14.33-29,21-75.08,57.67-96.74,76.49l-.88-1.33c21.78-18.91,66.83-55.8,96.65-77a1.1,1.1,0,0,1,1.47,0c9.52,4.95,17.91,9.35,28.57,14.69,7.91-4.13,13.22-7.26,20.45-11.53a1.2,1.2,0,0,1,1.15-.19,153.65,153.65,0,0,1,18.68,6.43c.54.22.7.47.37,1.24-3,7-4.54,11.25-7.45,17.71a1.57,1.57,0,0,1-.92.83c-7.36,2.91-13.45,5.49-20.59,8.83C368.1,203.52,361.08,217.29,355.34,228.25Z" transform="translate(0.01 -0.06)" style="fill: #0f141b"/>
    <path d="M199.86,434.26a46.3,46.3,0,0,0,10.47-7.41c2.4-2.18,3-1.57.79.82a28.64,28.64,0,0,1-10.8,7.62C197.48,436.32,197,435.74,199.86,434.26Z" transform="translate(0.01 -0.06)" style="fill: #0f141b"/>
    <path d="M288.89,429.62C276.07,409.28,266.1,398.51,258,398c-7.84-.47-16.29,5.22-25.19,17.14-7,9.42-21.82,29.44-39,29.83-14.47.34-24.55-8.14-23.68-34.86.66-20.15,16.74-52.13,27.63-67.29l.08-.09a9,9,0,0,1,2.77-1.79,1.22,1.22,0,0,1,.92,0c.4.11,1.67.53,2.21.69l-1.19,1.31c-.45-.13-1.06-.4-1.41-.5a6.92,6.92,0,0,0-2.16,1.38c-11,15.66-26.47,46.93-27.1,66.35-.71,21.69,6.77,33.07,21.93,32.75,16.65-.38,31.47-20.1,37.85-28.64,9.87-13.21,17.88-18.62,26.41-18.09s19.07,11.43,32.05,32.67Z" transform="translate(0.01 -0.06)" style="fill: #0f141b"/>
    <path d="M321.65,444.52a53.05,53.05,0,0,1-15.2-.57,1.34,1.34,0,0,1-.89-.48c-3.65-3.88-5.44-5.84-9.62-11a61.85,61.85,0,0,1-6-2.38,56.86,56.86,0,0,0-1.95,8.76,33.93,33.93,0,0,0,6,8.54c1.73,1.81.9,2.42-.8.8a34.33,34.33,0,0,1-6.77-8.54,1.16,1.16,0,0,1-.17-.94,66.62,66.62,0,0,1,2.49-9.62c.19-.6.52-.76,1.11-.5a42.9,42.9,0,0,0,6.62,2.22,1.39,1.39,0,0,1,.91.62c4.17,5.21,6,7.51,9.27,11.12a55.7,55.7,0,0,0,12.37.74Z" transform="translate(0.01 -0.06)" style="fill: #0f141b"/>
    <path d="M237.16,391.9c8.85-7.76,17.38-10.31,25.18-7.74,3.58,1.19,3.33,2-.33,1.09-7.1-1.8-15.21.87-24.14,7.53C235.35,394.66,234.66,394.09,237.16,391.9Z" transform="translate(0.01 -0.06)" style="fill: #0f141b"/>
    <path d="M178.06,393.68c9.69-12.73,21.2-20.49,31.42-21.41,24.25-2.18,49.4.88,61.92,12,17.14,15.16,20.56,50,56.28,61.88,3.95,1.31,3.41,2.18-.35,1.08-35.8-10.42-40.11-46.26-57.18-61.35-11.89-10.51-35.14-13.79-60.55-11.57-10.43.9-22.34,10.55-32.21,23.43Z" transform="translate(0.01 -0.06)" style="fill: #0f141b"/>
    <path d="M361.64,404.78a32.11,32.11,0,0,0-.05-6.93,50.76,50.76,0,0,0-10,.6,131.56,131.56,0,0,0-32.9,13.27c-8.91,4.94-16.07,7.62-24.57,8.93l-.91-1.6c8.63-1.28,15.59-3.84,24.64-8.85,11.59-6.42,22.22-11.1,33.36-13.85A45.08,45.08,0,0,1,362.4,396a.89.89,0,0,1,.94.84v.05a32.6,32.6,0,0,1,.13,7.12Z" transform="translate(0.01 -0.06)" style="fill: #0f141b"/>
    <path d="M379.05,413c8.86-3.7,20.13-6.05,23.09-6.62a26.74,26.74,0,0,0,1.19-6.07,107.07,107.07,0,0,0-14.2-.95c-13.93,1-28.37,5.55-45.31,13.65-3.63,1.74-4.09.83-.5-1,17-8.75,31.69-13.19,45.81-14.18h.09a107.47,107.47,0,0,1,15,.78c.69.08.93.33.87,1a32.39,32.39,0,0,1-1.62,7.6c-.16.48-.44.62-1,.72a138.6,138.6,0,0,0-21.38,6.29Z" transform="translate(0.01 -0.06)" style="fill: #0f141b"/>
    <path d="M381.21,416.93a20.11,20.11,0,0,0-1-2.92c-2.9-.38-6.18-.65-9.94-.81a98.11,98.11,0,0,0-13.79,3.71c-3.67,1.27-4,.38-.39-1.07a74.9,74.9,0,0,1,13.74-4.27,2.09,2.09,0,0,1,.5,0c3.67.11,7.36.37,10.52.77.47.06.56.13.78.64a28.61,28.61,0,0,1,1.15,3.38Z" transform="translate(0.01 -0.06)" style="fill: #0f141b"/>
    <path d="M232,431.08c14.43,15.38,37.56,22.63,73.38,23,28.52.33,48.4-.84,60.11-8.7,17.59-11.81,36.26-20.79,48.81-23.63a26.17,26.17,0,0,0,1.72-10.4,110.88,110.88,0,0,0-15.14.13c-6.74,1.63-20.84,6.29-32.21,10.31-4.75,1.68-5.12.75-.38-1.07,11.62-4.45,25.43-9.13,32.31-10.79a105.93,105.93,0,0,1,16.13-.21.88.88,0,0,1,.92.84v.08a27.21,27.21,0,0,1-1.94,11.9,1.09,1.09,0,0,1-.84.71c-12.44,2.81-30.91,11.64-48.44,23.6-11.63,7.95-31.11,9.88-61,9.54-36-.41-59.88-7.54-74.82-23.63Z" transform="translate(0.01 -0.06)" style="fill: #0f141b"/>
    <path d="M353.67,407.81a25.44,25.44,0,0,0-5.07-.6,84.43,84.43,0,0,0-16.38,4.37c-3.7,1.31-4.26.5-.39-1.07,7.16-2.9,10.79-4.16,16.69-5.21h.05a30.52,30.52,0,0,1,7.76,1.3Z" transform="translate(0.01 -0.06)" style="fill: #0f141b"/>
    <path d="M141.57,305.5a56.68,56.68,0,0,1,11.33,8.05c.35.33.4.47.32,1.08-.6,4.61-.78,6.9-1.19,11.84,2.16,2.66,3.38,4.12,6.06,7.1a39.13,39.13,0,0,0,7.86-5.39c1.39-5.88,1.76-8.39,2.66-13.15.11-.59.24-.68.63-.83,4.69-1.79,8.49-3.51,12.82-5.59,1-4.36,2.15-9.82,3.24-14.25.12-.51.23-.62.6-.79,4.38-2.09,8.56-3.7,12.69-5.7.87-4,1.47-8.05,2.26-12a1,1,0,0,1,.5-.81c5.15-3.38,7.31-4.56,12-7.25.44-.24.66-.21,1.1.21a72.66,72.66,0,0,1,8.22,8.87,1,1,0,0,1,.19,1.06c-1.07,4.43-1.59,6.77-2.72,11.3a88.53,88.53,0,0,1,4.71,7.76,117,117,0,0,0,12.27-6,121.32,121.32,0,0,0,4-15.34.93.93,0,0,1,.54-.73c1.82-1,3.62-1.89,5.15-2.79l-.05,1.88c-1.12.73-2.4,1.4-4.08,2.37a119.53,119.53,0,0,1-3.85,15.37,1.16,1.16,0,0,1-.59.82c-4.48,2.49-7.33,3.39-13.21,6-.65.29-.91.11-1.21-.41a86.33,86.33,0,0,0-5.28-8,1.05,1.05,0,0,1-.21-1.06c1.15-4.58,1.77-6.94,2.82-11.29a71.69,71.69,0,0,0-7.39-8.38c-4.35,2.49-6.21,3.83-11,7-.74,3.57-1.75,7.92-2.74,12a.89.89,0,0,1-.6.75c-4.3,1.92-8.08,3.81-12.35,5.93-1.12,4.51-2.52,9.51-3.5,14a1,1,0,0,1-.67.84c-4.26,2.15-7.93,3.77-12.4,5.73-.88,4.64-1.48,7.34-2.87,13.24a1.25,1.25,0,0,1-.52.73,45.61,45.61,0,0,1-8.64,5.32.82.82,0,0,1-1.14-.18c-2.89-3-4.49-4.64-6.81-7.31a1,1,0,0,1-.26-.88c.61-5.63.84-7.46,1.53-12.14a50.81,50.81,0,0,0-11-7.47Z" transform="translate(0.01 -0.06)" style="fill: #0f141b"/>
    <path d="M141.89,307c-2,2-4,3.82-6.72,6.72a.76.76,0,0,1-1,.19c-4.2-2.22-7.41-3.53-11.37-5.53a.87.87,0,0,1-.56-.75,110.1,110.1,0,0,1-2.38-13.35,1,1,0,0,1,.27-1,53,53,0,0,1,7.26-7.26.77.77,0,0,1,1-.17c4.06,2.09,6.91,3.57,10.93,5.51a.83.83,0,0,1,.55.79c.62,4.77,1.34,8.41,2.33,13.81A1,1,0,0,1,141.89,307Zm-1.43-1c-1-5.16-1.56-8.57-2.16-13.14-4-2-6.74-3.64-10.24-5.47a40.68,40.68,0,0,0-6.29,6.95A110.72,110.72,0,0,0,123.89,307c3.74,1.89,6.19,3.13,10.5,5.47C136.67,310,138.55,307.87,140.46,306Z" transform="translate(0.01 -0.06)" style="fill: #0f141b"/>
    <path d="M135.25,313.2a124.59,124.59,0,0,1,1.19,13.22,1.09,1.09,0,0,1-.39.94c-2.82,2.32-5.07,4.22-8,6.45-.56.41-.69.4-1.15,0a87.21,87.21,0,0,0-9-6.39c-.38-.23-.39-.34-.48-.75a96.65,96.65,0,0,1-1.75-11.62,1.05,1.05,0,0,1,.25-1,59.16,59.16,0,0,1,7-7.5l1,1.56a46.09,46.09,0,0,0-6.68,6.86,103.76,103.76,0,0,0,2,10.92c2.94,2.21,5,3.68,8.28,6.25a68.84,68.84,0,0,0,7.19-6.13,115.13,115.13,0,0,0-.8-12.85Z" transform="translate(0.01 -0.06)" style="fill: #0f141b"/>
    <path d="M114.91,328.56c.79-.75,1.8-1.63,2.92-2.71l1,1.38c-1.17,1.08-2.12,2-3,2.8Z" transform="translate(0.01 -0.06)" style="fill: #0f141b"/>
    <path d="M203.2,321.31a1,1,0,0,1,.19,1.21,136.14,136.14,0,0,0-4.76,12.83,1.12,1.12,0,0,1-.71.81,76.67,76.67,0,0,1-9.32,3.36.81.81,0,0,1-1-.37,65.17,65.17,0,0,0-5.55-6.42,1,1,0,0,1-.22-1.19c1.59-4.54,2.93-9.44,4.2-13.27.15-.45.27-.55.72-.72,3.79-1.44,5.64-2.06,8.51-3.09a.94.94,0,0,1,1.22.22C199,317.12,201.58,319.65,203.2,321.31Zm-1.69.87c-1.54-1.59-4.12-4.43-5.92-6.21-2.53,1-4.66,1.73-7.86,3.17-1.19,3.53-2.71,8.35-4.17,12.61a67.26,67.26,0,0,1,4.9,6.14,50.84,50.84,0,0,0,8.59-3.4Q199,328.22,201.51,322.18Z" transform="translate(0.01 -0.06)" style="fill: #0f141b"/>
    <path d="M200.38,341.82a8.46,8.46,0,0,0-3.25-5.93l1-1.5a9.12,9.12,0,0,1,3.71,7.34Z" transform="translate(0.01 -0.06)" style="fill: #0f141b"/>
    <path d="M182.94,332.81c-3.57,1.64-5.54,2.86-9,4.43a.9.9,0,0,1-1.16-.13,50.8,50.8,0,0,1-6.85-7.73l1.17-1.5a47.27,47.27,0,0,0,6.46,7.92c3.55-1.78,5.17-2.91,8.64-4.66Z" transform="translate(0.01 -0.06)" style="fill: #0f141b"/>
    <path d="M226,385.13c-2.24,2.49-3.56,3.79-5.71,6.6,1.32,1.83,2.28,3,4,5.35.37.5.42.75,0,1.29a99.78,99.78,0,0,0-6.72,8.87,1.29,1.29,0,0,1-.81.56,59.89,59.89,0,0,1-9.29,1.75.82.82,0,0,1-1-.58,47.4,47.4,0,0,1-2.88-7.18,1,1,0,0,1,.19-1.08c2.27-2.55,4.37-4.8,6.31-6.58a29.27,29.27,0,0,0-4.25-4.51c-.46-.38-.45-.68-.11-1.11,1.91-2.45,3.84-4.58,6.21-7.17a1.29,1.29,0,0,1,.67-.4l9.34-2.71a.75.75,0,0,1,1,.33c1,1.53,2.39,3.76,3.27,5.44A.87.87,0,0,1,226,385.13Zm-1.56-.76c-.8-1.53-1.64-3.51-2.42-4.71-3,.8-5.36,1.83-8.91,2.93-2.18,2.37-3.77,4.14-5.54,6.35a50.33,50.33,0,0,1,3.87,4.64c.35.48.35.73-.08,1.16a60.88,60.88,0,0,0-6.07,6.86,38.57,38.57,0,0,0,2.31,6.52,60,60,0,0,0,8.68-2,103.51,103.51,0,0,1,6.38-8.5c-1.37-2.12-2-3-3.71-5.36-.36-.49-.33-.67.06-1.18,2.27-3,3.39-4.46,5.41-6.71Z" transform="translate(0.01 -0.06)" style="fill: #0f141b"/>
    <path d="M219.56,392.39c-2.72.74-5.45,1.45-8.44,2.5l-.36-1.4c2.93-1,5.65-1.74,8.47-2.47Z" transform="translate(0.01 -0.06)" style="fill: #0f141b"/>
    <path d="M162.29,442.24c3.91.07,5.94.09,10,.29.43,0,.51.1.86.46a61.23,61.23,0,0,0,8,7.35c.47.35.55.66.25,1.29-1.23,2.53-2.36,4.62-3.76,7.2-.22.41-.38.53-.81.52a105.82,105.82,0,0,1-11.79-.94,1.51,1.51,0,0,1-1-.46,116.42,116.42,0,0,1-8.62-8c-.54-.56-.5-.79,0-1.25,2.63-2.62,4-4.1,5.88-6A1.13,1.13,0,0,1,162.29,442.24Zm17.44,9.1a65,65,0,0,1-7.72-7.12c-3.8-.2-6.24-.38-9.82-.53-1.85,1.8-2.84,3.3-5.12,5.62,2.09,2.13,4.5,4.32,8.1,7.39,4.66.59,7.57,1,11.36,1.23C177.8,455.57,178.56,453.75,179.73,451.34Z" transform="translate(0.01 -0.06)" style="fill: #0f141b"/>
    <path d="M147.83,425.11c-2.6-2.81-4.32-4.56-6.44-6.93a77.75,77.75,0,0,1-9.47,4.21,1.11,1.11,0,0,1-1.16-.16,44.71,44.71,0,0,1-8.23-7.18c-.29-.33-.31-.6-.2-1.16,1.2-6.19,2.33-11.41,4.11-15.33a1.41,1.41,0,0,1,.86-.86c3.26-1.33,7.48-3.07,11-4.45,2.29-4.76,3.86-9,5.37-12.69a.54.54,0,0,1,.31-.3c4-1.57,6.76-2.41,11.1-3.94a1,1,0,0,1,1.23.33,50.63,50.63,0,0,1,7.05,8,1.15,1.15,0,0,1,.17,1.3c-1.32,4.13-2.73,8.05-4.54,13.42,1.42,1.92,2.78,3.37,4.6,5.46.31.35.38.53.25,1.17-1.11,5.25-1.81,9.41-3.06,14.36a1.15,1.15,0,0,1-.72.81,80.41,80.41,0,0,1-11,4.21C148.36,425.6,148.25,425.55,147.83,425.11Zm-5.55-8.6c2.42,2.81,3.78,4.57,6.49,7.45a97.22,97.22,0,0,0,10.35-4.42c1.19-4.66,1.92-8.8,2.92-13.76a54.94,54.94,0,0,1-4.26-5.59,1,1,0,0,1-.18-1.13c1.57-5.22,3-9.42,4.16-13.55a49.11,49.11,0,0,0-6.44-7.73c-4.06,1.44-6.53,2.56-10.27,4-1.47,3.29-3.29,7.64-5.45,12a1.64,1.64,0,0,1-.91.88c-3.35,1.38-7.54,3.24-10.61,4.62-1.82,3.89-2.88,8.68-4,14.76a44.11,44.11,0,0,0,7.42,6.9,81.76,81.76,0,0,0,9.5-4.64.85.85,0,0,1,1.2.1.44.44,0,0,1,.08.11Z" transform="translate(0.01 -0.06)" style="fill: #0f141b"/>
    <path d="M158.49,400.19c-3.39,1.14-7.75,2.59-12.51,4.38a1.12,1.12,0,0,1-1.51-.46,85.33,85.33,0,0,1-6.25-9.89l1.12-.88a66.46,66.46,0,0,0,6.39,9.31c4.46-1.5,9.06-2.76,12.35-3.88Z" transform="translate(0.01 -0.06)" style="fill: #0f141b"/>
    <path d="M140.64,417.29c1.09-4.44,2.91-11,4.08-14.39l1.47.83c-1.34,4.09-2.84,9.48-3.93,13.9Z" transform="translate(0.01 -0.06)" style="fill: #0f141b"/>
    <path d="M92.92,283.67c-7.93-2.13-13.6-3.51-21.92-5.79-3.64,1.22-9.38,2.94-13.08,4.1a1,1,0,0,1-.79,0c-6.59-2.54-11.66-4.19-18.82-6.48-.61-.2-.69-.33-.85-.77-1.26-3.36-2.34-6.53-3.59-9.79-5.13-2.12-9.1-3.54-14.71-5.57a1.11,1.11,0,0,1-.78-.69c-2.18-4.25-3.22-6.28-5.5-10.47-.34-.62-.24-1,.38-1.27,4.92-2.07,6.84-2.77,11.19-4.75a1.55,1.55,0,0,1,1.16,0c7,2.25,13.67,4.87,19.68,7.17a1.09,1.09,0,0,1,.75.75A82.46,82.46,0,0,0,50.58,261c3.56,1.31,5.86,2.18,10.61,3.72,3.66-1.68,6.66-3.41,9.74-5a1,1,0,0,1,.94-.06c7.75,2.46,16.07,5.49,21.66,7.76l-.17,1.67c-6.08-2.38-14.15-5.22-21.77-7.51-3,1.48-6,2.84-9.87,4.53a1,1,0,0,1-.88.06c-5-1.6-7-2.46-10.93-3.86a1.16,1.16,0,0,1-.65-.6A77.13,77.13,0,0,1,44.42,251c-5.94-2.28-12.43-4.8-19.31-7-4.22,1.59-6.8,2.54-10.64,4,2,3.57,3.41,5.56,5.5,9.64l14.65,6a1.09,1.09,0,0,1,.73.81c1.41,3.76,2.52,6.39,3.73,9.5,7.3,2.38,11.69,4,18.52,6.69,3.61-1.12,9.41-3.27,13-4.49a1.38,1.38,0,0,1,.94,0c8.29,2.27,13.52,3.87,21.31,6Z" transform="translate(0.01 -0.06)" style="fill: #0f141b"/>
    <path d="M98.86,308.21c-7.12.44-11.42.81-18.29,1.81-3,3.93-5.36,7.18-8.32,11.56a.8.8,0,0,1-.64.45c-9.66,1.64-15.92,2.85-25.85,5a1.11,1.11,0,0,1-.92-.14,87.69,87.69,0,0,1-11.47-7.07c-.57-.42-.57-.79,0-1.28,3.84-3.67,6.31-6.17,10.36-10.44a.9.9,0,0,1,.73-.33c6.7-.63,11-1.13,16.78-2,5.38-5,8.81-8.52,13.57-13.79a1.06,1.06,0,0,1,1-.44c8,.15,12.64.3,18,.44L94,293.5c-5.82-.06-10.17-.16-17.93-.08-4.85,5.06-8.64,8.75-13.88,13.6a1.32,1.32,0,0,1-.78.32c-5.65,1.09-10,1.65-16.6,2.37-4,3.82-6.42,6.15-9.86,9.39a83.63,83.63,0,0,0,10.64,6.1c9.66-2,16.13-3,25.54-4.58,2.77-4.21,5.06-7.68,7.93-12a1,1,0,0,1,.89-.51,162.74,162.74,0,0,1,18.19-1.32Z" transform="translate(0.01 -0.06)" style="fill: #0f141b"/>
    <path d="M116.16,330.59c-6.85,4.3-14,8-23.89,13.11a1.45,1.45,0,0,1-1.08.12,47.64,47.64,0,0,1-13.31-4.64c-.57-.31-.68-.62-.33-1.18,3.22-5.09,5-7.85,8.91-13.81a1.35,1.35,0,0,1,.81-.61c5.16-1.88,12.44-4.26,17.3-6l1.13,1.33c-4.81,1.72-12.63,4.6-17.73,6.46-3.76,5.47-5.86,8.25-8.79,12.83a51.84,51.84,0,0,0,12.48,3.72c9.77-4.88,16.79-8.43,23.71-12.72Z" transform="translate(0.01 -0.06)" style="fill: #0f141b"/>
    <path d="M235.73,233.63c25.57-31.36,57.64-69.12,82.18-98.3-.16-12.25.1-23.42.27-35.79a1.5,1.5,0,0,1,.37-1.11c7.1-9.06,12.41-15.89,17.53-22.49a126.74,126.74,0,0,0-.75-16.76c-6.59,1.1-11.51,2.06-15.49,2.94-6.56,9.07-11.42,15.9-18,24.88a1.29,1.29,0,0,1-.75.5c-12.51,2.79-22.77,5.35-35.93,8.43-15.32,26.36-37.45,66.38-56.73,101.78l-1-1.39c19.18-35.79,40.55-75.13,55.9-101.52a1.27,1.27,0,0,1,1.06-.81c13.57-3.1,23.77-5.27,36.08-8.06,6.36-8.58,11-15.59,17.76-24.84a1.54,1.54,0,0,1,1.12-.72c4.09-.91,8.95-1.5,16.24-2.72.72-.12,1,.14,1.1.78a172.41,172.41,0,0,1,1.13,17.74,1.32,1.32,0,0,1-.38,1.1c-5.34,6.73-10.7,13.18-17.62,22.09-.17,12.35,0,23.89.18,36.14a1.76,1.76,0,0,1-.5,1.29c-23.38,27.76-52.62,61.57-77.64,91.8Z" transform="translate(0.01 -0.06)" style="fill: #0f141b"/>
    <path d="M206,194.83c6.14-30.43,15.56-76,21.67-106.6-7.93-10.23-19.22-25.69-27.6-36.76a1.37,1.37,0,0,1-.33-1c1.12-12.49,2.54-24.71,3.31-34.26-4.63-5.83-7.5-9.9-11-14a170.64,170.64,0,0,0-12.36,15.5c-.44,11.91-.56,20.27-1.2,34.57a1.47,1.47,0,0,1-.48,1.13c-10.89,12-20.14,22.84-28.57,32.36,2.36,23.76,5.23,56.73,8.41,83.48l-1.27,1.36c-3.39-26.79-6.87-60.74-9.26-84.77a1.32,1.32,0,0,1,.43-1.37c8.42-9.53,18.19-20.26,29.1-32.3.64-13.75.25-22.21.77-34.46a1.88,1.88,0,0,1,.4-1.31c4.74-6.54,7.72-9.65,13.24-15.86.57-.65.94-.64,1.51,0,3.63,4.33,7,8.28,11.9,14.45a1.59,1.59,0,0,1,.34,1.39c-.93,9.67-2.45,21.57-3.67,34.14,8.42,11.14,20.07,26.24,28,36.53a1.62,1.62,0,0,1,.24,1.57c-6.07,31.36-16.07,77-22.44,107.65Z" transform="translate(0.01 -0.06)" style="fill: #0f141b"/>
    <path d="M149.86,173.84c-9-22.29-19-46.85-30.19-75.4C110.8,96.62,99.91,94.49,93,93a1.24,1.24,0,0,1-1.09-.8C85.8,81.36,79.22,69,75.64,62.12c-6.12-2.48-9.88-4.24-14.92-6.1-1.11,5.72-1.47,8.19-2.82,14.52,4.38,7.1,11.09,18.8,17,29.19a1.14,1.14,0,0,1,.13,1c-2.19,10.78-4.21,19.36-7.52,32.27,13.21,19.1,24.07,33.9,37.31,51.66l-1.32.83C90.21,167.65,79.25,153.25,66,134a1.15,1.15,0,0,1-.23-1.28c3.39-13,5.9-21.76,7.93-32.39C67.71,90,60.64,78.7,56.3,71.67a1.54,1.54,0,0,1-.3-1.44c1.51-6.45,1.92-8.86,3.35-15.27.2-.88.46-.93,1.28-.63,5.4,2,9.25,3.28,15.74,5.91a1.43,1.43,0,0,1,.85.82c3.52,6.79,10,19.59,16.08,30.47,6.87,1.43,17.78,3.42,26.92,5a1.2,1.2,0,0,1,1.1.91c11.4,29,21.06,53.9,30.09,76.45Z" transform="translate(0.01 -0.06)" style="fill: #0f141b"/>
    <path d="M315.14,223c-.63-.38-.68-.62-.31-1.27,1.8-3.18,2.84-5.52,4.17-8.26a1.21,1.21,0,0,1,.81-.73c5.05-1.88,11-4.28,16-6.18a1.24,1.24,0,0,1,1,0,77.23,77.23,0,0,1,8.3,3.07c.56.24.67.5.28,1.32-1.42,3-2.53,5.5-4.34,9.34a1.33,1.33,0,0,1-.92.85c-5.05,2-11.53,4.2-16.86,6.28a1,1,0,0,1-1.1-.06C319.51,225.85,317.13,224.19,315.14,223Zm1.14-.93c1.93,1.17,3.84,2.34,6.58,3.71,5.05-1.87,11.59-4.26,16.52-6.25,1.74-3.51,3.37-6.25,4.6-8.88a48.75,48.75,0,0,0-7.66-2.44c-4.63,1.8-10.85,4.21-15.76,6.08-1.38,2.5-2.69,5.14-4.28,7.71Z" transform="translate(0.01 -0.06)" style="fill: #0f141b"/>
    <path d="M331.43,191a1.13,1.13,0,0,1-.67,1c-6.74,3.68-11,6.15-17,9.57a1.46,1.46,0,0,1-1.32.06,71.64,71.64,0,0,0-7-2.31c-.58-.15-.75-.37-.71-1a46.45,46.45,0,0,1,1.23-9.25,1.15,1.15,0,0,1,.62-.87c4.84-3.26,10-6.7,15.36-9.91a1.26,1.26,0,0,1,1.23-.15c2.63.73,5.34,1.4,8.24,2.26.58.17.73.4.66,1.06C331.72,184.78,331.52,186.83,331.43,191Zm-1.77-.43c.21-3.27.56-5.8,1-8.9-2.5-.57-4.89-1.11-7.81-1.67-5.22,3.15-10.35,6.65-15.12,9.85a32.7,32.7,0,0,0-1.47,8.14c2.36.55,4.4,1.1,6.82,1.88C318.78,196.65,323.31,194.13,329.66,190.57Z" transform="translate(0.01 -0.06)" style="fill: #0f141b"/>
    <path d="M306.45,198.94c-3.5,2.1-5.52,3.14-8.89,5.05-2.16,1.22-2.87.45-.6-1,3.25-2,5.22-3.27,8.44-5.41Z" transform="translate(0.01 -0.06)" style="fill: #0f141b"/>
    <path d="M315.62,223.08c-3.92,1.33-7.22,2.34-11,3.81-2.66,1.05-3.25.27-.45-1a112.2,112.2,0,0,1,11-4.42Z" transform="translate(0.01 -0.06)" style="fill: #0f141b"/>
    <path d="M340.62,194a.59.59,0,0,1,.34.71c-1.56,5.08-2.58,8.5-3.9,12.73l-2,.17c1.6-5,2.8-8.42,4.08-12.47a96.89,96.89,0,0,0-9.26-3.13l.7-1.76C333.89,191.37,337.09,192.53,340.62,194Z" transform="translate(0.01 -0.06)" style="fill: #0f141b"/>
    <path d="M339.84,194c3.06-1.05,5.62-2.07,8.5-3.35s3.15-.39.48,1a59.55,59.55,0,0,1-8.54,3.86Z" transform="translate(0.01 -0.06)" style="fill: #0f141b"/>
    <path d="M299,133.94c.68-.06.88.06,1,.78a85.68,85.68,0,0,1,1.65,9.54,1.31,1.31,0,0,1-.38,1.16c-6.07,6.7-9.75,10.39-14.39,15.78a1.44,1.44,0,0,1-1.16.5,74.24,74.24,0,0,1-9,.06c-.69,0-.94-.31-1-.93-.3-2.74-.39-5.55-.49-8.45a1.19,1.19,0,0,1,.34-1c5.08-6.53,9-11.75,12.2-15.92a1.32,1.32,0,0,1,1.17-.67C292.21,134.53,295.69,134.19,299,133.94Zm-.34,1.52c-3,.39-6.53.85-9.24,1.16-3.14,4.13-7.23,9.5-12.19,15.87,0,3,0,5.47.11,7.72,2.62-.05,4.91-.11,8.31-.41,4.42-5,8.18-8.91,14.18-15.55a66.76,66.76,0,0,0-1.18-8.79Z" transform="translate(0.01 -0.06)" style="fill: #0f141b"/>
    <path d="M254.29,144.28a70,70,0,0,1-2.07-10.13,1.3,1.3,0,0,1,.23-1.11c3.2-5.08,6.09-9.17,9.62-14a1.43,1.43,0,0,1,.89-.65c3.5-1,6.07-1.71,9.87-2.6.77-.19,1,0,1.19.6,1,3.64,1.64,5.64,3,9.56a1.27,1.27,0,0,1-.18,1.31c-3.89,5.14-6.7,9.17-11.06,15.4a1.42,1.42,0,0,1-1.06.73c-3.44.58-6.63,1.3-9.35,1.73C254.57,145.22,254.47,144.94,254.29,144.28ZM254.22,134c.38,3.28.76,6.35,1.38,9.64a85.88,85.88,0,0,0,8.67-2c4.23-5.72,7.24-10.33,11-15.3-.94-3.88-1.56-5.85-2.42-9.15a68,68,0,0,0-9.12,3C260.27,124.89,257.34,129,254.22,134Z" transform="translate(0.01 -0.06)" style="fill: #0f141b"/>
    <path d="M255.91,144.58c-2.94,4.06-4.5,6.32-7.46,11-1.79,2.84-2.7,2.41-1-.59a127.11,127.11,0,0,1,7.12-11.36Z" transform="translate(0.01 -0.06)" style="fill: #0f141b"/>
    <path d="M277.48,161.16c-1.81,2.46-4,5.26-6.51,9-1.88,2.72-2.7,2.33-1-.61a90.66,90.66,0,0,1,6.26-9.39Z" transform="translate(0.01 -0.06)" style="fill: #0f141b"/>
    <path d="M288.27,136.56a75.5,75.5,0,0,1-2.63-9.7,88.24,88.24,0,0,1-9.89.6l.35-1.85a96,96,0,0,0,9.89-.22c.54,0,.86,0,1,.85a68,68,0,0,0,2.69,9.39Z" transform="translate(0.01 -0.06)" style="fill: #0f141b"/>
    <path d="M285.08,126.05a87.65,87.65,0,0,0,6.27-7.34c2-2.51,2.66-1.95.9.7a70.61,70.61,0,0,1-5.76,7.49Z" transform="translate(0.01 -0.06)" style="fill: #0f141b"/>
    <path d="M200.25,128.77a47.82,47.82,0,0,1-7.33-7.85,1.35,1.35,0,0,1-.25-1.25c.84-5,1.65-12.29,2.1-17.62a1,1,0,0,1,.53-1.06c3.07-1.94,5.76-3.76,8.39-5.42a1,1,0,0,1,1.41,0l0,0a55.11,55.11,0,0,1,7.19,7.38,1.15,1.15,0,0,1,.18,1c-.82,6.25-1.49,12.48-2.12,18.32a1.23,1.23,0,0,1-.62,1.12,45.52,45.52,0,0,1-8.45,5.39A.83.83,0,0,1,200.25,128.77Zm-5.79-8.87a41.52,41.52,0,0,0,6.46,7.42,37,37,0,0,0,7.64-5.3c.67-5.64,1.45-11.93,2.21-17.94a42.48,42.48,0,0,0-6.42-7.17c-2.2,1.42-4.73,3.26-7.76,5.51C196.13,107.68,195.28,115,194.46,119.9Z" transform="translate(0.01 -0.06)" style="fill: #0f141b"/>
    <path d="M169.05,129.74c-.48.49-.79.54-1.35-.06-3.21-3.46-4.9-5-7.35-7.73a1.39,1.39,0,0,1-.47-1.12,163.3,163.3,0,0,1-.34-19.16,1.49,1.49,0,0,1,.43-1.25c3-3.06,5-5.25,7.75-7.87.51-.48.86-.51,1.33-.13,2.56,2.08,6.15,5.13,8.57,7.41a1.26,1.26,0,0,1,.53,1.25c-.06,7.63-.1,12-.31,19.75a1.46,1.46,0,0,1-.59,1.28C173.94,125,171.78,126.94,169.05,129.74Zm-7.4-9c2.4,2.72,4,4.75,6.75,7.66,2.63-2.69,4.46-4.83,7.63-7.63.2-7.5.35-12.23.42-19.63-2.31-2.33-5.44-5.21-8-7.3-2.62,2.69-4.28,4.75-7.07,7.85a167.81,167.81,0,0,0,.27,19Z" transform="translate(0.01 -0.06)" style="fill: #0f141b"/>
    <path d="M169.13,128.94c.07,4,.27,9.1.79,15.07.28,3.22-.65,3.3-1.13.12a122.3,122.3,0,0,1-1.22-15.41Z" transform="translate(0.01 -0.06)" style="fill: #0f141b"/>
    <path d="M201.53,127.88c-.24,5.43-.76,9.8-1.42,15.57-.36,3.15-1.38,3.06-1.12-.12.45-5.61.85-10.29,1-15.68Z" transform="translate(0.01 -0.06)" style="fill: #0f141b"/>
    <path d="M195.46,102.79c-3.92-3.84-6.27-6.12-9.39-9a76.89,76.89,0,0,1-8.51,7.72l-.92-1.38a80.06,80.06,0,0,0,8.72-7.63.93.93,0,0,1,1.27-.3,1.15,1.15,0,0,1,.23.21c3.09,3,5.77,5.33,9.52,8.85Z" transform="translate(0.01 -0.06)" style="fill: #0f141b"/>
    <path d="M185.27,92.93a101,101,0,0,1,1.19-13.22c.42-2.65,1.4-2.54,1.12.13-.49,4.72-.62,8.55-.71,13Z" transform="translate(0.01 -0.06)" style="fill: #0f141b"/>
    <path d="M123.49,142.32a44.83,44.83,0,0,1-6.66-1.5,1.37,1.37,0,0,1-1-.88c-2.9-5.78-5.25-9.68-7.9-14.66a1.52,1.52,0,0,1-.23-1.34,65.2,65.2,0,0,1,3-8.59c.32-.8.52-.84,1.21-.58,3.35,1.24,5.61,2,8.59,3.1.57.21.75.31,1,.82,2.74,5.93,4.35,9.87,6.37,15.18a1.16,1.16,0,0,1,0,1.22c-1.37,2.75-2.1,4-3.12,6.54C124.38,142.29,124.21,142.42,123.49,142.32Zm-6.1-3.16a40.29,40.29,0,0,0,6,1.72c.94-2.3,1.51-3.91,2.76-6.41-2-5.13-3.63-9.21-6.26-14.93-3-1.27-5-2.09-8.1-3.28a53.16,53.16,0,0,0-2.45,8C112.08,129.24,114.7,133.84,117.39,139.16Z" transform="translate(0.01 -0.06)" style="fill: #0f141b"/>
    <path d="M103.29,146.12a1.47,1.47,0,0,1,.23,1.06,37.9,37.9,0,0,1-2.17,10.08c-.28.84-.42.92-1.21.75a58.31,58.31,0,0,0-7.78-1,1.3,1.3,0,0,1-1-.69c-2.83-4.13-6.25-9.16-9.51-14.19a1.34,1.34,0,0,1-.22-1.19c.78-3.54,1.16-5.42,1.82-9.07.17-1,.41-1.09,1.36-.92,3.78.69,6.91,1.06,9.91,1.52a1.18,1.18,0,0,1,1,.73C97.23,135.7,101.54,143.1,103.29,146.12Zm-1.58,1c-1.7-2.93-5.95-10.33-7.42-12.83l-9.48-1.87c-.5,3.51-.79,5.64-1.38,8.69,3.2,4.92,6.68,10,9.49,14.11a49.52,49.52,0,0,1,7.16,1.19,41.4,41.4,0,0,0,1.63-9.3Z" transform="translate(0.01 -0.06)" style="fill: #0f141b"/>
    <path d="M101.12,156.61a79.9,79.9,0,0,1,5.84,9.46c1.37,2.56.53,3-1,.59-2.16-3.41-4.31-6.36-6.34-9.13Z" transform="translate(0.01 -0.06)" style="fill: #0f141b"/>
    <path d="M124.39,141a73,73,0,0,1,5.08,11.09c1,2.84.06,3.16-1.05.43A96.26,96.26,0,0,0,123,141.73Z" transform="translate(0.01 -0.06)" style="fill: #0f141b"/>
    <path d="M108.76,125.28a45.48,45.48,0,0,1-11.18-.42,38.54,38.54,0,0,1-2,9.06L94,133.21a39.67,39.67,0,0,0,2.13-8.85c.07-.76.32-1,1.08-1,4.55.54,8.55.71,11.35.17Z" transform="translate(0.01 -0.06)" style="fill: #0f141b"/>
    <path d="M96.62,125.4c-2.09-4.42-3.76-7.67-5.56-11-1.29-2.37-.38-2.89,1-.56,1.9,3.25,3.94,6.55,6,10.22Z" transform="translate(0.01 -0.06)" style="fill: #0f141b"/>
    <path d="M66.58,193.64a1.11,1.11,0,0,1-.94-.35c-3.57-3.17-8.16-7.07-12-10.62a1.06,1.06,0,0,1-.43-.92c-.23-3.45-.25-5-.32-7.78,0-.9,0-1.08.8-1.15,2.42-.23,4.73-.5,7.59-.71a1.23,1.23,0,0,1,1.1.29,127.63,127.63,0,0,1,10.49,9.51A1.44,1.44,0,0,1,73.4,183a80.94,80.94,0,0,1,.27,8.53.93.93,0,0,1-.75,1A24.86,24.86,0,0,1,66.58,193.64Zm.08-1.72a17,17,0,0,0,5.54-.72,71.27,71.27,0,0,0-.63-8,131.74,131.74,0,0,0-10.26-9.36c-2.78.09-5,.23-7,.38.22,2.67.35,4.65.63,7.2C58.68,184.89,63.11,188.82,66.66,191.92Z" transform="translate(0.01 -0.06)" style="fill: #0f141b"/>
    <path d="M49.43,215c-4.36-3.13-9.75-6.34-13.35-8.82a1.46,1.46,0,0,1-.75-1.11c-.54-2.26-1-4.59-1.45-7.12-.11-.69,0-.87.68-1.16,2.63-1.13,4.41-1.88,7.23-3a1,1,0,0,1,1.11.1c5.69,4,9,6.47,13.44,9.83a1.27,1.27,0,0,1,.62,1c.41,2.5.78,4.72,1.25,7.3.12.63-.1.86-.68,1.06-2.32.82-4.49,1.53-6.89,2.13A1.14,1.14,0,0,1,49.43,215ZM37.12,204.63c3.63,2.52,9.14,5.87,13.27,8.81,2.15-.47,4-.92,6.38-1.59-.65-2.16-1.06-4.47-1.52-6.69-4.25-3.25-7.67-5.77-13.14-9.62-2.32.79-4.4,1.54-6.8,2.4C35.81,200.15,36.36,202.07,37.12,204.63Z" transform="translate(0.01 -0.06)" style="fill: #0f141b"/>
    <path d="M54.71,182.67c-4.78.32-7.55.5-11.44,1.06-.12,3.42,0,7.94,0,11.21H41.53c.06-3.75.09-8,.29-11.53,0-.78.26-1,.8-1.07,4.34-.56,6.9-.82,11.44-1.26Z" transform="translate(0.01 -0.06)" style="fill: #0f141b"/>
    <path d="M42.47,184.17c-3.95-3.18-6.87-5.54-10.79-8.57-3.09-2.39-2.61-3.14.66-.92,3.79,2.56,7.27,5.12,11.16,8.11Z" transform="translate(0.01 -0.06)" style="fill: #0f141b"/>
    <path d="M57.74,211.47a77.41,77.41,0,0,1,9.09,6.84c2,1.81,1.29,2.46-.71.89A106.3,106.3,0,0,0,57,212.83Z" transform="translate(0.01 -0.06)" style="fill: #0f141b"/>
    <path d="M76.77,196.35c-1.28-1.23-2.85-2.69-4.37-4.11l.94-1.25c1.52,1.38,3.12,2.95,4.53,4.4Z" transform="translate(0.01 -0.06)" style="fill: #0f141b"/>
    <path d="M220.62,321.19c6,5.57,13.2,12,19,16.85.64,5.27,1,8.19,1.36,14.25a85.5,85.5,0,0,1-16.82-2.71c-6.41-5.7-12.66-11.83-17.08-16.17C205.1,331.5,218.67,319.39,220.62,321.19Z" transform="translate(0.01 -0.06)" style="fill: #6fb92c"/>
    <path d="M236.23,301.57c10.51,3.68,20.81,7.33,28.4,9.91,1.84,4.84,3.09,8.43,5.68,14.69,5.34,2.84,8.76,4.42,14.35,7.34a127.88,127.88,0,0,1,5.59,12.69c-4.42,1.25-8.09,2.25-11.85,3.17-6.84-3.84-14.18-7.76-21.86-11.35a92.15,92.15,0,0,0-4.17-11.6c-7.93-4.26-15.63-8-24.54-12.17C225.84,313.31,233.23,300.52,236.23,301.57Z" transform="translate(0.01 -0.06)" style="fill: #6fb92c"/>
    <path d="M240.84,291.85c9.51.4,18,.86,28.72,1.28A148.35,148.35,0,0,1,282,305.89c10.93-.5,19.36-1.16,28.12-1.75,2.25-3.75,3.92-6.51,5.76-9.26,5.84-1.34,15.69-3.84,22.36-5.68,3.34-4.84,5.26-8.34,8.26-12.43-3.42-3-7.84-6.17-11.6-8.84-7.92,1.92-15.94,4-26.11,6.34-2.42,3.75-4.76,7.34-7.68,11.35-4.34.66-9.6,1.08-14.69,1.33-4.17-3.67-7.51-6.67-11.26-10.6-10.18.17-19.61.22-30.78.71C242.87,277.12,239,291.78,240.84,291.85Z" transform="translate(0.01 -0.06)" style="fill: #6fb92c"/>
    <path d="M206.72,333.14c.36-1.13,3.09-.79,4.85.72,3,2.59,9.17,7.71,13.72,11.32a3,3,0,0,0,.93.56c3,1.17,13.33,5,14.59,6.38-3.76.09-12-.62-16.56-2.63C219.53,345.2,213.07,339.27,206.72,333.14Z" transform="translate(0.01 -0.06)" style="fill: #5fa125"/>
    <path d="M227.17,314c-.21-1.29,1.58-2.17,3.75-1.29,6.72,2.71,16.3,7,23.31,10.23a1.71,1.71,0,0,1,.94,1c1.44,3.18,2.78,6.69,4.06,10.45a1.51,1.51,0,0,0,.94,1c5.52,2.78,12.12,5.89,18,9.43a1.55,1.55,0,0,0,1.3.26c3.51-.49,8.34-.19,10.59,1-3.71,1.09-7.13,2.3-11.47,3.26C272.44,346,264,341.4,256.66,338c-1.33-4-2.71-8-4.38-11.81C245.69,322.75,232.76,316.24,227.17,314Z" transform="translate(0.01 -0.06)" style="fill: #5fa125"/>
    <path d="M239.45,291.77c-.37-1.75,1.44-2.61,4-2.66,7.54-.15,17.29-.1,25,.11a4.45,4.45,0,0,1,3.31,1.2c4.47,4.12,7.52,7.22,11.33,11a1.29,1.29,0,0,0,1.09.35c6-.3,14.75-.75,22.24-1.17a1,1,0,0,0,.82-.48c1.84-2.58,3.34-4.69,5-7a4.91,4.91,0,0,1,3-2.07c5-1.16,14.63-3.44,19.73-4.94a1.39,1.39,0,0,0,.8-.54c2.58-3.55,7.92-8.43,10.85-8.93-2.63,3.69-5.2,7.7-8.2,12.39-6.82,1.81-14.15,3.88-22.53,5.82-2.82,4.44-3.82,5.76-5.76,9.07-6.82.51-17.27,1.51-27.85,1.88C278,301,274.83,298,269.58,293,260,292.58,252.91,292.15,239.45,291.77Z" transform="translate(0.01 -0.06)" style="fill: #5fa125"/>
    <path d="M240.77,353a75.57,75.57,0,0,1-16.65-2.44,2,2,0,0,1-1-.53c-6.52-5.8-10.66-10.27-15.37-15.08-2-2-1.28-2.74.8-.81,4.66,4.31,9.57,8.8,16,14.54a86.42,86.42,0,0,0,15.55,2.81c-.44-5.38-.78-8-1.39-13-6.22-5.22-11.25-10-17-15.5-2.51-2.4-1.85-3.12.76-.84,6.36,5.53,11.14,9.66,17.4,14.92a1.5,1.5,0,0,1,.6,1.06c.72,5.42.78,7.83,1.19,14C241.75,352.8,241.48,353,240.77,353Z" transform="translate(0.01 -0.06)" style="fill: #0f141b"/>
    <path d="M290.87,345.75c.29.73.09,1-.6,1.19-5.06,1.43-8,2.46-11.36,3.28a1.48,1.48,0,0,1-1.28-.15c-7-4-14.58-8.2-21.24-11.32a1,1,0,0,1-.67-.79,71.14,71.14,0,0,0-4-10.87c-7.55-4.15-13.18-7.22-22.35-11.5-3.29-1.54-2.85-2.46.48-1,9.31,4,14.63,6.62,22.68,10.86a1.35,1.35,0,0,1,.71.68,91.37,91.37,0,0,1,4,11.38c6.56,3.08,14.2,6.86,21.4,10.87,3.15-.78,6.06-1.36,10.67-2.66-1.59-3.94-3.17-7.43-5.25-11.47-5.5-2.88-8.5-4.48-13.78-7.28a1.54,1.54,0,0,1-.75-.87c-2.52-6.31-3.81-9.2-5.58-13.79-7.59-2.76-15.39-5.68-25.88-9.52-3.32-1.22-3-2.17.37-1.07,10.53,3.45,18.8,6.29,26.24,8.82a1.21,1.21,0,0,1,.94.88c1.93,5,2.86,8,5.35,14.18,5.06,2.66,8.52,4.14,14,7a1.56,1.56,0,0,1,.75.79C287.77,337.5,289.24,341.74,290.87,345.75Z" transform="translate(0.01 -0.06)" style="fill: #0f141b"/>
    <path d="M282.32,306.66a1,1,0,0,1-1.09-.45A141.81,141.81,0,0,0,269.17,294c-10.29-.55-18.07-1.11-27.25-1.57-3.46-.17-3.43-1.16,0-1.13,9.37.06,17,.46,27.11.85a1.87,1.87,0,0,1,1.22.42,142.12,142.12,0,0,1,12,12.54c10.73-.38,18.79-1.28,27.26-1.87,2.16-3.34,3.41-5.63,5.54-8.57a1.35,1.35,0,0,1,.9-.69c5.89-1.34,14.88-3.73,21.66-5.58,3.17-4.63,5.11-7.87,7.85-11.53-3.41-2.85-6.51-5-10.76-8-7.9,1.89-15.33,3.86-25.41,6.16-2.44,3.79-4.69,6.92-7.54,10.84a.89.89,0,0,1-.69.41,139.94,139.94,0,0,1-14.44,1.38,1.33,1.33,0,0,1-.91-.33c-3.84-3.38-7.13-6.12-10.93-10.07-9.77.1-18.41.31-29.67.31-2.54,0-2.6-1,0-1.14,11.24-.45,19.77-.9,29.9-1a.87.87,0,0,1,.77.33,144.92,144.92,0,0,0,10.89,10.42c5.62-.28,10.23-.66,14-1.23,2.82-3.88,4.75-7.21,7.19-11a1.11,1.11,0,0,1,.91-.66c10.14-2.28,17.71-4.2,25.62-6.17a1.26,1.26,0,0,1,1.19.25c4.17,3,7.54,5.57,11.17,8.7.46.4.52.78.07,1.41-2.74,3.82-4.61,7.16-7.64,11.95a1.47,1.47,0,0,1-1,.71c-6.71,1.84-15.56,4-21.91,5.37-1.81,2.72-3.41,5.32-5.35,8.85a1.13,1.13,0,0,1-1.1.66C301.22,305.56,293,306.29,282.32,306.66Z" transform="translate(0.01 -0.06)" style="fill: #0f141b"/>
  </g>
</svg>
