<?xml version="1.0" encoding="UTF-8"?>
<!-- Created with Inkscape (http://www.inkscape.org/) -->
<svg version="1.1" viewBox="0 0 117.96 75.975" xmlns="http://www.w3.org/2000/svg">
 <g transform="translate(-1.2178 -1.1707)">
  <g transform="matrix(.55753 0 0 -.55753 43.149 66.777)">
   <path d="m 0,0 c 0.88,-2.033 5.007,-10.247 6.175,-10.41 1.169,-0.163 12.092,3.691 16.926,6.678 -1.741,0.804 -6.588,3.13 -7.569,3.204 C 7.861,-1.521 0,0 0,0" fill="#08aa83"/>
  </g>
  <g transform="matrix(.55753 0 0 -.55753 54.378 68.172)">
   <path d="m0 0c-1.525-1.398-12.882-8.461-13.757-8.168-0.876 0.293-5.305 7.289-6.68 10.804 3.065-0.995 7.487-1.466 8.916-1.437 1.428 0.028 5.399 0.356 6.758 0.757 2.062-0.519 4.763-1.956 4.763-1.956" fill="#009374"/>
  </g>
  <g transform="matrix(.55753 0 0 -.55753 46.435 72.956)">
   <path d="m0 0c-1.564 0.378-6.673 11.099-6.719 11.207-0.136 0.322 1.452 0.732 1.59 0.409 1.58-3.707 4.57-9.791 5.395-10.484 1.826-0.306 10.451 3.436 16.117 6.667 0.304 0.174 1.405-0.874 1.1-1.048-4.712-2.686-15.056-7.341-17.483-6.751" fill="#0f141b"/>
  </g>
  <g transform="matrix(.55753 0 0 -.55753 86.21 43.694)">
   <path d="m0 0c3.831 25.131-7.498 47.314-30.375 55.508-25.033 8.967-48.099-1.455-60.76-22.067 0.392-1.578 1.208-5.104 1.19-7.279-3.663 2.91-8.534 4.117-10.012 3.404s0.685-9.371 4.164-12.408c-4.919 0.461-12.089-1.486-12.544-3.608-0.454-2.122 3.544-6.268 5.563-7.781-2.716-0.924-6.226-2.548-6.077-3.788 0.15-1.24 2.756-4.171 6.2-5.407 0.852-14.203 8.417-20.855 10.166-20.429 0.556 0.135 2.665 3.471 3.577 7.591 1.576-4.257 4.481-9.667 7.018-9.119s3.382 4.915 3.876 8.157c-1.027 1.657-1.862 3.008-1.877 3.753-0.032 1.596 7.46 10.507 16.283 9.276 5.032-0.702 8.612-5.214 9.941-9.185 3.84 4.134 8.745 6.022 12.513 5.16 9.965-2.28 13.905-11.375 13.846-11.779-0.109-0.748-1.188-2.758-3.024-4.163-0.446-2.557-0.653-7.719 0.975-8.308 1.627-0.589 5.687 1.481 7.52 3.072-0.382-2.68 0.028-7.643 1.218-8.055 1.188-0.411 6.37 1.557 13.432 15.06 2.173 0.106 5.702 0.798 5.875 1.485 0.172 0.687-1.306 3.143-3.573 4.59 2.786 0.553 8.519 2.905 8.489 4.334-0.028 1.428-3.666 3.096-5.041 3.503 2.27 1.475 6.779 5.978 6.379 7.275-0.398 1.297-4.942 1.208-4.942 1.208" fill="#f8d6b5"/>
  </g>
  <g transform="matrix(.55753 0 0 -.55753 44.096 66.888)">
   <path d="m0 0c2.778-0.865 8.356-1.448 13.679-0.347 3.434-0.801 9.221-4.29 14.403-5.429 8.33-1.831 22.854 1.676 26.583 10.103-0.642 0.982-1.636 4.069-0.966 7.874-1.712-1.402-5.639-3.905-7.52-3.072-1.881 0.832-1.19 6.626-0.791 8.436-2.636-1.793-9.64-5.849-14.816-4.958s-8.391 6.295-9.552 8.385c-1.827-1.901-5.364-5.265-11.657-4.46-6.293 0.806-11.841 7.843-11.841 7.843-0.622-3.059-2.077-7.997-3.876-8.158-1.798-0.16-5.743 4.36-7.011 8.747-0.883-2.442-2.406-7.071-3.584-7.219s-3.187 0.869-4.988 3.878c2.19-9.781 11.004-18.221 21.937-21.623" fill="#fff"/>
  </g>
  <g transform="matrix(.55753 0 0 -.55753 56.191 51.435)">
   <path d="m0 0c-0.605 4.387-4.6 8.855-10.137 9.616-7.527 1.035-15.73-6.944-15.916-8.988-0.228-2.513 6.992-10.669 13.192-11.668 5.058-0.815 10.379 1.394 12.393 4.909 0.731-3.9 6.793-8.72 10.063-9.027 7.899-0.743 16.706 6.951 16.969 9.103 0.179 1.457-5.14 9.696-13.284 11.666-2.829 0.684-9.701-0.862-13.28-5.611" fill="#08aa83"/>
  </g>
  <g transform="matrix(.55753 0 0 -.55753 59.361 16.012)">
   <path d="m0 0c-10.643 3.405-25.024-0.975-30.082-15.332-4.147-11.769 0.919-26.268 11.986-30.615 7.564-2.972 14.617-0.246 16.049-0.751 2.253-0.794 6.514-7.97 15.269-10.647 10.99-3.362 24.662 5.063 27.313 16.301 2.95 12.508-1.336 25.182-12.347 29.956-7.397 3.208-14.175 0.338-15.43 0.934s-4.439 7.493-12.758 10.154" fill="#fff"/>
  </g>
  <g transform="matrix(.55753 0 0 -.55753 55.261 21.447)">
   <path d="m0 0c-2.836 1.414-6.634-0.745-9.417-6.854-2.33-5.113-1.253-10.623 1.493-11.731 2.88-1.163 6.437 0.429 9.233 6.819 2.501 5.718 1.573 10.329-1.309 11.766" fill="#3e3b3a"/>
  </g>
  <g transform="matrix(.55753 0 0 -.55753 53.94 24.254)">
   <path d="m0 0c-1.054 0.414-2.653-0.83-3.574-3.055-0.985-2.378-0.918-4.34 0.237-4.889 1.233-0.586 2.687 0.674 3.577 2.915 1.011 2.542 0.56 4.714-0.24 5.029" fill="#fff"/>
  </g>
  <g transform="matrix(.55753 0 0 -.55753 74.39 29.406)">
   <path d="m0 0c-3.606 1.36-7.548-2.27-9.492-7.788-1.662-4.717-1.831-9.351 1.477-10.923 3.347-1.591 7.82 2.074 9.517 6.576 2.542 6.742 1.402 11.04-1.502 12.135" fill="#3e3b3a"/>
  </g>
  <g transform="matrix(.55753 0 0 -.55753 73.107 32.322)">
   <path d="m0 0c-0.953 0.408-2.629-0.806-3.531-3.284-0.889-2.443-0.755-4.061 0.362-4.633 1.326-0.68 2.829 0.806 3.626 2.998 0.695 1.911 0.78 4.39-0.457 4.919" fill="#fff"/>
  </g>
  <g transform="matrix(.55753 0 0 -.55753 65.472 23.564)">
   <path d="m0 0c-3.813 1.642-11.37-4.753-14.243-11.845-3.425-8.455-1.493-17.423 1.743-18.733 4.065-1.647 12.21 4.088 14.983 12.108 2.606 7.532 1.655 16.688-2.483 18.47" fill="#fff"/>
  </g>
  <g transform="matrix(.55753 0 0 -.55753 58.373 40.615)">
   <path d="m0 0c3.432-1.55 10.063 1.892 13.537 8.335-3.96-2.187-8.048-2.991-10.402-1.933-2.965 1.332-4.908 6.059-5.727 8.974-1.65-5.798-0.718-13.88 2.592-15.376" fill="#f19750"/>
  </g>
  <g transform="matrix(.55753 0 0 -.55753 62.295 31.415)">
   <path d="m0 0c0.844-0.263 4.222-3.645 6.503-8.167-3.539-2.16-7.086-3.228-10.402-1.933-2.68 1.047-4.824 5.267-5.733 9.254 1.579 0.311 7.944 1.371 9.632 0.846" fill="#91341e"/>
  </g>
  <g transform="matrix(.55753 0 0 -.55753 61.606 33.352)">
   <path d="m0 0c2.798-1.221 4.504-4.156 4.229-6.394-2.129-0.695-4.216-1.203-6.893-0.231-2.676 0.971-3.809 3.979-4.637 5.779 1.1 0.955 4.338 2.138 7.301 0.846" fill="#eb8498"/>
  </g>
  <g transform="matrix(.55753 0 0 -.55753 39.179 67.012)">
   <path d="m0 0c-1.013-2.686 0.167-5.776 0.721-5.765 0.326 6e-3 2.496 3.406 3.422 3.704 0.043-2.144 0.689-8.796 1.437-8.92 0.748-0.125 5.109 3.178 5.865 7.341 1.464-0.949 2.134-8.766 2.929-8.89s3.661 3.336 4.064 6.514c0.403 3.177-0.851 5.25-0.851 5.25-4.013 0.199-11.112 0.942-15.405 3.513-0.921-0.531-1.828-1.808-2.182-2.747" fill="#f19750"/>
  </g>
  <g transform="matrix(.55753 0 0 -.55753 57.34 69.455)">
   <path d="m0 0c-0.741-0.248-2.82-1.175-2.784-2.946 0.059-2.99 1.89-4.906 2.893-4.836 0.931 0.066 1.352 4.642 3.778 4.551 2.425-0.092 3.726-2.209 3.897-3.791 0.172-1.581 0.16-5.637 0.957-5.9 0.798-0.264 4.692 0.839 5.194 6.023 0.653-0.033 1.8-1.502 2.008-2.57s0.909-3.43 1.378-3.608c0.47-0.177 2.585 1.264 3.002 6.027 0.417 4.762-2.001 6.811-2.001 6.811-3.852-0.823-7.521-1.455-10.74-1.334-3.219 0.122-7.582 1.573-7.582 1.573" fill="#f19750"/>
  </g>
  <g transform="matrix(.55753 0 0 -.55753 9.1887 2.1008)">
   <path d="m0 0c-1.983-1.721-2.159-14.646 6.875-26.772-13.415 4.671-17.896 4.216-19.494 2.095-2.732-3.624 1.352-20.005 12.929-28.017-5.692-1.295-13.28-4.12-12.967-7.283 0.814-8.262 22.65-27.16 48.196-20.227 7.359 1.997 13.482 20.496 12.663 31.763-0.871 11.97-7.302 22.478-17.19 32.904-13.143 13.857-26.943 19.069-31.012 15.537" fill="#f8d6b5"/>
  </g>
  <g transform="matrix(.55753 0 0 -.55753 115.5 31.709)">
   <path d="m0 0c-2.292 5.065-17.154 7.245-33.45 0.759-7.795-3.102-12.946-7.905-18.301-14.039-8.782-10.058-15.562-27.016-10.779-35.826 3.089-5.689 10.949-11.89 20.979-14.185 11.402-2.608 24.443 0.935 26.168 5.994 0.561 1.642-1.925 6.84-6.611 10.494 17.588 0.353 27.56 5.636 27.822 10.253 0.201 3.533-6.147 10.981-21.266 12.998 12.578 6.993 17.245 19.56 15.438 23.552" fill="#f8d6b5"/>
  </g>
  <g transform="matrix(.55753 0 0 -.55753 17.444 14.651)">
   <path d="m0 0c-1.14-1.54 2.238-15.987 6.249-20.321-10.123 3.462-17.708 3.324-18.687 1.397-1.278-2.515 4.167-13.411 12.107-18.029-3.949-0.639-11.824-3.08-11.78-5.27 0.081-4.042 11.47-17.156 26.673-16.851 0.792 0.015 5.431 1.087 6.309 1.431-0.06 0.698-0.182 2.125-0.182 2.125-1.453 0.406-6.468 4.127-6.448 5.433 0.021 1.306 3.994 3.017 6.498 3.672-1.608 1.18-5.988 5.753-5.755 8.089 0.233 2.335 8.65 3.343 12.331 3.37-2.946 2.784-5.387 10.643-3.931 12.428s6.249-0.916 10.012-3.404c-0.089 1.35-1.511 8.706-2.025 9.561-2.122 3.531-5.477 7.199-11.555 10.582-10.547 5.874-18.735 7.247-19.816 5.787" fill="#08aa83"/>
  </g>
  <g transform="matrix(.55753 0 0 -.55753 86.571 40.708)">
   <path d="m0 0c12.312 10.332 28.626 8.832 30.783 5.154 1.085-1.848-3.252-12.748-12.8-15.607 11.566-3.447 17.857-10.33 17.758-11.576-0.177-2.209-11.178-6.549-21.762-5.719 7.534-4.535 10.689-9.898 10.354-11.166-0.912-3.453-25.09-7.097-34.983 5.949 1.268 1.828 2.816 5.215 2.816 5.215 2.358 0.171 5.458 0.544 5.874 1.485 0.416 0.94-3.572 4.589-3.572 4.589 3.341 0.751 8.45 3.215 8.489 4.334 0.04 1.12-5.042 3.504-5.042 3.504 2.33 1.6 6.597 5.787 6.38 7.275-0.216 1.487-4.942 1.208-4.942 1.208 0.477 1.437 0.647 5.355 0.647 5.355" fill="#08aa83"/>
  </g>
  <g transform="matrix(.55753 0 0 -.55753 41.739 50.823)">
   <path d="m0 0c3.163-4.247 8.403-8.804 14.131-9.738 2.705-0.441 7.168 0.405 9.862 2.512 1.292 1.011 1.92 0.926 2.929-0.376 2.39-3.084 5.949-6.005 9.202-6.403 5.206-0.638 12.756 3.173 16.324 7.225-0.231-2.369-4.037-5.856-7.128-7.165-4.658-1.972-8.294-2.71-10.269-2.319-4.6 0.91-8.042 4.858-9.803 8.442-3.768-3.922-7.621-5.072-12.187-4.315-1.839 0.305-5.968 1.652-9.466 5.621-3.497 3.97-3.595 6.516-3.595 6.516" fill="#009374"/>
  </g>
  <g transform="matrix(.55753 0 0 -.55753 34.647 56.994)">
   <path d="m0 0c4.682-8.042 18.299-14.448 29.474-13.206 4.723 0.525 7.335-0.101 9.559-2.543 6.228-6.835 24.117-1.217 31.424 7.342 0.201-0.742 1.157-5.011 1.157-5.011-3.776-6.588-14.817-11.88-25.149-10.354-6.483 0.958-13.781 5.472-16.457 5.605-2.291-0.419-9.301-1.056-14.685 0.887-12.534 4.524-18.624 14.542-20.31 21.157 2.491-3.368 4.987-3.877 4.987-3.877" fill="#dbdcdb"/>
  </g>
  <g transform="matrix(.55753 0 0 -.55753 56.471 35.144)">
   <path d="M 0,0 C 0.066,-3.335 2.917,-6.719 5.084,-7.169 8.36,-7.849 14.171,-5.01 15.763,-3.537 12.014,-8.708 7.024,-10.953 3.646,-9.808 0.267,-8.664 0,0 0,0" fill="#d08244"/>
  </g>
  <g transform="matrix(.55753 0 0 -.55753 69.202 58.381)">
   <path d="M 0,0 C -0.352,-6.187 8.705,-1.783 14.255,5.04 12.658,1 6.729,-7.281 1.148,-6.129 -0.911,-5.705 0,0 0,0" fill="#d6ba9d"/>
  </g>
  <g transform="matrix(.55753 0 0 -.55753 75.752 58.457)">
   <path d="m0 0c-0.449-0.848-1.267-6.598 0.042-6.758 1.74-0.213 9.311 6.95 9.38 11.049l2.052-0.053c-4.148-8.917-10.666-16.124-13.336-15.214-0.861 0.294-1.754 3.788-1.218 8.056z" fill="#d6ba9d"/>
  </g>
  <g transform="matrix(.55753 0 0 -.55753 36.67 52.519)">
   <path d="m 0,0 c 0.875,-2.68 5.175,-7.006 6.536,-6.705 0.928,0.205 3.008,4.97 2.777,7.202 l 1.529,-1.895 C 10.503,-3.083 9.457,-9.158 7.275,-9.487 3,-10.132 0,0 0,0" fill="#d6ba9d"/>
  </g>
  <g transform="matrix(.55753 0 0 -.55753 29.724 49.955)">
   <path d="m0 0c0.76-3.37 5.958-9.56 7.827-9.165 1.3 0.274 3.54 6.348 3.508 7.963 0.34-1.485 1.071-3.832 1.071-3.832-0.526-1.688-2.152-7.376-3.577-7.591s-4.523 2.457-6.266 5.654c-1.742 3.197-2.563 6.971-2.563 6.971" fill="#d6ba9d"/>
  </g>
  <g transform="matrix(.55753 0 0 -.55753 2.2898 34.774)">
   <path d="m0 0s-1.854-3.642 6.254-11.248c5.8-5.441 12.594-8.199 15.662-9.381 4.89-1.882 10.355-2.708 15.524-2.609-5.344 1.38-10.838 4.121-15.111 7.519-12.482 3.851-21.494 11.261-22.329 15.719" fill="#d6ba9d"/>
  </g>
  <g transform="matrix(.55753 0 0 -.55753 28.979 45.604)">
   <path d="m0 0s-2.011 1.079-3.201 1.583c-7.964-0.985-15.65 0.059-22.34 2.124 4.272-3.399 9.767-6.14 15.111-7.52 3.817 0.073 7.473 0.648 10.612 1.688z" fill="#009374"/>
  </g>
  <g transform="matrix(.55753 0 0 -.55753 98.166 63.553)">
   <path d="m0 0c-11.32 0.649-23.896 3.742-30.428 9.801l-1.02-1.792c1.113-1.545 2.295-2.944 3.523-4.228 8.902-5.144 21.432-5.922 27.925-3.781" fill="#009374"/>
  </g>
  <g transform="matrix(.55753 0 0 -.55753 98.166 63.553)">
   <path d="m0 0c-6.493-2.141-19.023-1.363-27.925 3.781 7.734-8.08 17.504-11.135 26.177-10.962 9.512 0.191 17.284 3.458 17.549 8.12-4.201-0.944-9.826-1.282-15.801-0.939" fill="#d6ba9d"/>
  </g>
  <g transform="matrix(.55753 0 0 -.55753 102.09 57.653)">
   <path d="M 0,0 C 8.319,-0.664 28.879,6.333 29.562,10.35 29.627,7.084 27.245,4.172 19.659,2.072 16.755,1.268 10.565,-0.037 6.718,-0.3 2.87,-0.564 0,0 0,0" fill="#d6ba9d"/>
  </g>
  <g transform="matrix(.55753 0 0 -.55753 115.21 31.195)">
   <path d="m 0,0 c 1.355,-3.2 -7.808,-19.733 -16.832,-25.32 4.857,2.645 10.637,6.642 14.05,12.213 C 3.115,-3.48 0,0 0,0" fill="#d6ba9d"/>
  </g>
  <g transform="matrix(.55753 0 0 -.55753 2.1531 15.859)">
   <path d="m 0,0 c -1.825,-2.596 6.68,-22.108 13.014,-27.612 -2.1,0.921 -8.184,5.754 -11.045,13.109 C -2.421,-3.218 0,0 0,0" fill="#d6ba9d"/>
  </g>
  <g transform="matrix(.55753 0 0 -.55753 9.499 2.0251)">
   <path d="m0 0c-2.965-1.86 2.545-19.52 7.84-28.369-1.842 1.952-7.144 9.117-8.319 15.059-1.176 5.943-1.537 8.422-1.263 10.292 0.273 1.87 1.742 3.018 1.742 3.018" fill="#d6ba9d"/>
  </g>
  <g transform="matrix(.55753 0 0 -.55753 41.596 69.614)">
   <path d="m0 0c1.273 1.563 5.573 0.997 6.308-0.759 0.223 0.47 0.85 1.741 0.85 1.741s0.866-1.38 1.019-1.983c1.316 1.751 4.624 1.817 6.056 0.121 0.17 0.842-0.113 3.354-1.027 4.734-2.189-0.044-10.589 0.44-13.989 2.656-1.021-0.254-3.118-2.58-2.828-7.748 1.276 1.424 2.821 3.413 3.419 3.844z" fill="#d08244"/>
  </g>
  <g transform="matrix(.55753 0 0 -.55753 62.92 70.383)">
   <path d="m0 0c-1.259-0.025-6.534 0.429-8.18 1.142-3.237-0.984-3.53-4.584-1.676-7.072 0.805 1.694 2.152 4.284 4.015 4.322 2.469 0.049 3.67-2.811 3.867-4.584 0.861 2.766 4.733 3.109 5.905 0.771 0.821 0.856 4.351 3.816 6.222 1.15 0.161 1.262 0.063 3.87-1.839 5.696-2.272-0.558-5.472-1.368-8.314-1.425" fill="#d08244"/>
  </g>
  <g transform="matrix(.55753 0 0 -.55753 34.619 57.348)">
   <path d="m0 0c-4.126-0.083-9.982 8.723-10.677 21.116-0.02 0.349 1.243 0.134 1.263-0.208 0.639-11.387 6.535-19.697 9.389-19.64 0.573 0.213 2.478 4.137 3.059 7.817 0.056 0.346 1.102-0.705 1.047-1.051-0.389-2.466-2.132-7.995-4.081-8.034" fill="#0f141b"/>
  </g>
  <g transform="matrix(.55753 0 0 -.55753 85.841 43.768)">
   <path d="m0 0c3.979 25.501-7.769 47.107-29.927 55.043-26.385 9.452-48.591-3.209-60.013-21.814-0.184-0.297-0.976 1.396-0.88 1.549 13.621 21.76 37.683 29.926 61.321 21.46 22.757-8.152 35.119-30.146 31.043-56.277-0.048-0.308-1.598-0.307-1.544 0.039" fill="#0f141b"/>
  </g>
  <g transform="matrix(.55753 0 0 -.55753 74.391 64.787)">
   <path d="m0 0c-1.536 1.206-1.709 5.122-1.191 7.889 0.054 0.293 1.564 1.398 1.475 1.06-0.725-2.749-0.495-7.172 0.498-7.951 1.773-0.865 7.513 4.785 12.395 14.282 0.037 0.072 1.624 0.111 1.465-0.202-5.5-10.796-11.997-17.155-14.642-15.078" fill="#0f141b"/>
  </g>
  <g transform="matrix(.55753 0 0 -.55753 40.589 58.278)">
   <path d="m0 0c-3.74-0.075-8.167 7.48-8.946 16.134-0.264 2.928 0.678 2.979 0.977 0.067 0.786-7.672 5.103-14.847 7.832-14.793 0.794 0.016 2.387 1.691 3.319 7.867 0.052 0.347 1.174-0.7 1.132-0.948-0.889-5.249-2.339-8.287-4.314-8.327" fill="#0f141b"/>
  </g>
  <g transform="matrix(.55753 0 0 -.55753 69.607 62.149)">
   <path d="m0 0c-1.562 0.827-2.08 4.557-0.986 9.115 0.082 0.34 1.547 1.077 1.464 0.737-1.207-4.923-0.486-8.215 0.241-8.6 2.372-1.262 10.277 4.815 12.177 9.941 0.902 2.43 1.769 2.045 0.872-0.414-2.651-7.261-10.891-12.304-13.768-10.779" fill="#0f141b"/>
  </g>
  <g transform="matrix(.55753 0 0 -.55753 56.493 55.448)">
   <path d="m0 0c1.492-3.307 6.347-7.067 9.113-7.328 7.421-0.694 15.933 5.711 16.282 8.549 0.055 1.001-4.751 9.025-12.805 10.973-3.163 0.763-8.486-0.869-11.837-4.441-1.16-1.237-1.8-0.779-2.166 0.509-1.383 4.868-6.481 8.097-10.837 8.009-6.821-0.136-13.575-6.984-13.713-8.501-0.184-2.035 6.675-10.02 12.662-10.985 4.057-0.654 8.496 0.613 10.982 3.526 1.024 1.2 1.699 1.066 2.319-0.311m8.994-8.59c-3.656 0.344-8.388 3.943-10.22 8.236-2.885-3.525-7.773-5.01-12.378-4.268-6.282 1.013-13.907 9.37-13.621 12.507 0.302 3.327 9.501 10.763 16.781 9.681 4.654-0.692 8.928-4.339 10.252-8.968 3.735 4.002 9.039 5.997 13.07 5.023 8.525-2.062 14-10.721 13.775-12.554-0.487-3.975-10.375-10.344-17.659-9.657" fill="#0f141b"/>
  </g>
  <g transform="matrix(.55753 0 0 -.55753 53.556 53.071)">
   <path d="m0 0c-2.371 0.335-7.668 1.195-8.698 1.423-1.533 0.339-1.441 1.168 0.105 0.934 0.653-0.1 8.072-1.04 8.637-1.091 1.615-0.147 1.607-1.5-0.044-1.266" fill="#0f141b"/>
  </g>
  <g transform="matrix(.55753 0 0 -.55753 62.539 54.426)">
   <path d="m0 0c-1.27 0.135-6.506 0.744-7.948 0.96-1.589 0.238-1.373 1.488 0.193 1.252 1.483-0.222 6.77-1.113 7.861-1.339 2.055-0.427 1.873-1.083-0.106-0.873" fill="#0f141b"/>
  </g>
  <g transform="matrix(.55753 0 0 -.55753 32.439 34.17)">
   <path d="m0 0c-3.889 3.34-5.087 11.524-4.234 12.811 1.048 1.579 6.428 0.483 11.398-3.702 1.608-1.355 0.963-2.133-0.685-0.841-4.377 3.434-8.994 4.263-9.461 3.708-0.373-0.847 0.384-8.257 3.62-11.218 1.413-1.294 0.832-2.02-0.638-0.758" fill="#0f141b"/>
  </g>
  <g transform="matrix(.55753 0 0 -.55753 29.833 41.247)">
   <path d="m0 0c-3.579 1.249-8.552 7.078-7.973 9.613 0.511 2.237 7.08 3.954 13.334 3.634 0.351-0.018 0.381-0.992 0.037-0.974-7.165 0.37-11.782-2.21-11.97-3.035-0.217-0.948 2.929-6.643 6.917-8.408 1.625-0.719 1.092-1.331-0.345-0.83" fill="#0f141b"/>
  </g>
  <g transform="matrix(.55753 0 0 -.55753 28.757 45.782)">
   <path d="m0 0c-3.128 1.025-6.669 4.068-6.703 5.77-0.027 1.403 1.887 2.657 6.585 4.043 0.263 0.077 1.49-0.9 1.152-0.993-3.536-0.959-6.369-2.455-6.356-3.054 0.018-0.929 3.146-3.813 5.671-4.866 1.58-0.658 1.338-1.453-0.349-0.9" fill="#0f141b"/>
  </g>
  <g transform="matrix(.55753 0 0 -.55753 84.766 48.441)">
   <path d="m0 0c3.753 1.722 7.052 6.552 6.798 7.118-0.201 0.45-2.929 0.83-4.529 0.798-1.826-0.037-1.783 0.964 0.042 1.039 2.328 0.096 5.626 0.16 5.933-1.479 0.278-1.486-3.064-6.151-7.881-8.361-1.359-0.622-1.955 0.156-0.363 0.885" fill="#0f141b"/>
  </g>
  <g transform="matrix(.55753 0 0 -.55753 83.386 52.496)">
   <path d="M 0,0 C 3.08,0.436 7.828,3.012 8.037,3.88 8.069,4.521 4.518,6.562 3.11,6.735 2.763,6.778 4.171,7.73 4.455,7.642 6.201,7.103 9.529,5.45 9.446,3.817 9.346,1.859 3.599,-0.558 0.157,-0.968 -1.371,-1.15 -1.845,-0.262 0,0" fill="#0f141b"/>
  </g>
  <g transform="matrix(.55753 0 0 -.55753 81.461 56.316)">
   <path d="m0 0c-1.932 0.323-1.81 1.214 0.123 0.906 2.952-0.457 6.238 0.463 6.48 1.117 0.204 0.553-1.857 3.044-3.647 3.971-0.31 0.161 1.165 0.593 1.468 0.418 2.234-1.28 4.105-4.151 3.535-5.103-0.557-0.933-4.312-1.92-7.959-1.309" fill="#0f141b"/>
  </g>
  <g transform="matrix(.55753 0 0 -.55753 93.995 46.76)">
   <path d="m0 0c11.846 0.795 17.821 13.221 16.885 15.788-2.111 3.207-19.918 4.442-29.737-5.776-0.242-0.253-0.575 1.226-0.402 1.395 9.909 9.72 28.338 9.452 31.219 5.041 1.77-2.708-4.303-16.783-17.945-17.523-2.422-0.131-2.459 0.911-0.02 1.075" fill="#0f141b"/>
  </g>
  <g transform="matrix(.55753 0 0 -.55753 94.994 56.465)">
   <path d="m0 0c-0.369 0.039-1.832 1.413-1.472 1.376 10.02-1.104 21.528 3.275 21.493 4.977-0.026 1.28-9.888 9.748-18.309 10.608-0.348 0.036 1.377 1.063 1.759 0.998 11.163-1.898 18.129-10.411 17.81-11.806-0.724-3.17-11.705-7.166-21.281-6.153" fill="#0f141b"/>
  </g>
  <g transform="matrix(.55753 0 0 -.55753 81.755 60.915)">
   <path d="m0 0c-0.534 0.423-0.929 2.505-0.675 2.264 11.651-11.1 32.582-7.322 33.053-4.753 0.196 1.07-3.615 7.509-12.105 11.666-2.597 1.271-2.267 2.167 0.401 0.988 9.687-4.28 13.37-11.714 12.929-13.009-1.09-3.194-20.726-7.355-33.603 2.844" fill="#0f141b"/>
  </g>
  <g transform="matrix(.55753 0 0 -.55753 106.2 44.871)">
   <path d="m0 0c12.523 6.972 18.576 20.203 15.779 24.034-4.076 5.58-21.465 4.257-32.439-0.415-6.571-2.797-12.918-7.17-17.623-13.568-0.206-0.281-0.69 1.198-0.521 1.418 4.81 6.255 11.11 10.701 17.664 13.481 12.748 5.407 29.594 5.788 33.943-0.168 2.696-3.692-0.87-17.135-16.282-25.654-1.67-0.922-2.182-0.053-0.521 0.872" fill="#0f141b"/>
  </g>
  <g transform="matrix(.55753 0 0 -.55753 102.91 58.087)">
   <path d="m0 0c-2.59 0.166-2.66 1.138-0.085 1.101 14.053-0.202 27.162 4.233 27.707 9.444 0.52 4.973-11.434 12.743-21.218 12.547-0.35-7e-3 0.867 1.209 1.188 1.195 10.793-0.489 22.159-8.204 21.563-13.883-0.746-7.128-18.048-11.113-29.155-10.404" fill="#0f141b"/>
  </g>
  <g transform="matrix(.55753 0 0 -.55753 92.487 67.477)">
   <path d="m0 0c-8.231 1.724-16.279 6.429-21.751 14.564-0.133 0.199 0.854 1.008 0.944 0.87 5.275-7.941 13.148-12.325 21.147-13.996 13.632-2.847 24.116 2.206 24.762 5.808 0.415 2.315-2.957 7.576-6.797 9.714-0.306 0.17 1.527 0.48 1.832 0.273 3.685-2.517 7.126-7.478 6.619-10.312-0.928-5.173-14.172-9.557-26.756-6.921" fill="#0f141b"/>
  </g>
  <g transform="matrix(.55753 0 0 -.55753 35.712 28.855)">
   <path d="m0 0c-1.595 25.351-37.911 53.647-46.93 47.38-1.926-1.34-2.23-14.139 6.962-26.158 1.945-2.542 1.085-3.241-0.856-0.692-8.866 11.637-10.167 25.786-6.902 28.061 10.164 7.078 47.81-22.446 49.045-49.357 0.016-0.35-1.309 0.605-1.319 0.766" fill="#0f141b"/>
  </g>
  <g transform="matrix(.55753 0 0 -.55753 14.762 46.79)">
   <path d="m0 0c-12.978 4.605-24.169 14.882-23.491 20.876 0.327 2.892 6.97 5.78 12.73 6.731-11.447 8.349-15.911 24.514-12.318 28.562 2.485 2.797 10.039 1.817 19.79-2.389 0.251-0.108 1.029-1.771 0.706-1.628-11.318 5.017-17.656 4.839-19.25 3.044-3.202-3.608 1.909-19.113 11.532-26.353 1.7-1.28 1.58-2.157-0.053-2.449-5.301-0.95-11.346-3.864-11.556-5.725-0.585-5.172 10.672-15.305 22.357-19.278 9.704-3.3 18.953-2.84 25.221-0.824 0.432 0.139 0.322-1.093 0.019-1.194-6.389-2.131-16.63-2.587-25.687 0.627" fill="#0f141b"/>
  </g>
  <g transform="matrix(.55753 0 0 -.55753 17.055 35.44)">
   <path d="m0 0c-10.716 6.73-14.021 17.013-12.177 19.146 2.005 2.318 10.505 1.54 18.078-1.401-5.363 8.38-7.155 19.05-5.475 20.219 4.153 2.889 24.442-4.739 31.838-16.31 0.495-0.775 0.176-2.976 0.075-2.642-3.085 10.23-28.324 20.926-31.143 17.941-0.845-0.896 0.508-10.326 5.745-18.488 1.353-2.107 0.851-2.823-1.375-1.951-7.343 2.877-15.122 3.427-16.6 1.718-1.036-1.205 2.239-10.951 11.618-17.359 2.159-1.476 1.637-2.268-0.584-0.873" fill="#0f141b"/>
  </g>
  <g transform="matrix(.55753 0 0 -.55753 24.498 47.869)">
   <path d="m0 0c-12.76-0.256-26.018 12.349-25.606 17.479 0.219 2.764 7.059 4.663 11.773 5.4 0.213 0.034 1.956-0.982 1.609-1.03-6.167-0.851-11.706-3.163-11.816-4.541-0.207-2.681 11.543-17.181 26.542-16.204 0.35 0.023-1.626-1.086-2.502-1.104" fill="#0f141b"/>
  </g>
  <g transform="matrix(.55753 0 0 -.55753 60.508 70.639)">
   <path d="m0 0c-4.022 0.434-7.004 2.064-9.643 3.358-2.247 1.101-5.19 2.167-7.343 2.314-0.35 0.024 1.971 1.06 2.402 0.974 1.888-0.379 3.651-1.244 5.499-2.15 2.545-1.247 5.43-2.662 9.231-3.072 8.889-0.957 20.197 2.127 24.593 9.883 0.173 0.304 1.277-0.321 1.104-0.625-4.957-8.745-17.253-11.61-25.843-10.682" fill="#0f141b"/>
  </g>
  <g transform="matrix(.55753 0 0 -.55753 42.711 66.916)">
   <path d="m0 0c-9.992 3.482-18.399 13.049-20.659 23.043-0.077 0.342 1.672-1.425 1.957-2.267 2.925-8.609 10.523-16.377 19.268-19.424 6.29-2.192 14.356-1.921 18.174-0.277 1.764 0.759 2.076-0.089 0.335-0.879-4.791-2.174-12.554-2.468-19.075-0.196" fill="#0f141b"/>
  </g>
  <g transform="matrix(.55753 0 0 -.55753 58.338 41.714)">
   <path d="m0 0c1.488-0.518 8.034-8.474 15.243-10.64 10.359-3.112 21.623 3.561 25.666 13.251 4.392 10.528 1.288 26.432-11.137 31.819-3.849 1.67-7.498 1.802-12.61 1.028-1.438-0.218-2.324-0.331-2.841-0.085-0.464 0.221-0.918 0.8-1.669 1.76-1.768 2.257-5.057 6.459-11.009 8.363-12.262 3.922-24.826-2.264-29.291-14.939-4.163-11.816 1.278-25.72 11.62-29.815 7.46-2.953 14.37-0.166 16.028-0.742m14.866 36.518c0.943-0.323 8.044 2.313 15.41-0.924 12.343-5.425 17.344-20.55 12.065-33.708-4.666-11.632-17.64-17.113-27.469-13.738-7.685 2.639-14.208 10.317-15.294 10.656-1.018 0.317-9.011-2.081-16.07 0.758-11.098 4.462-17.344 18.625-12.787 31.558 4.725 13.413 18.532 19.711 31.308 15.584 8.543-2.76 11.979-9.892 12.837-10.186" fill="#0f141b"/>
  </g>
  <g transform="matrix(.55753 0 0 -.55753 50.332 25.415)">
   <path d="m0 0c-2.14-4.696-1.203-9.929 1.154-10.88 2.436-0.984 5.793 0.492 8.413 6.485 2.463 5.628 1.357 9.766-1.008 10.945-2.2 1.097-5.888-0.688-8.559-6.55m0.68-12.057c-3.509 1.417-4.236 7.641-1.962 12.632 3.027 6.645 7.566 8.525 10.406 7.11 3.439-1.714 4.224-6.995 1.731-12.693-2.701-6.174-6.622-8.483-10.175-7.049" fill="#0f141b"/>
  </g>
  <g transform="matrix(.55753 0 0 -.55753 69.431 33.865)">
   <path d="m0 0c-0.87-2.471-2.5-8.405 1.152-10.141 2.504-1.19 6.836 1.412 8.651 6.227 2.183 5.794 1.739 10.236-1.131 11.319-2.49 0.939-6.644-1.648-8.672-7.405m0.608-11.286c-3.227 1.533-3.96 5.825-1.879 11.731 2.454 6.964 7.103 9.386 10.389 8.146 2.729-1.028 4.934-5.049 1.951-12.963-2.196-5.826-7.061-8.529-10.461-6.914" fill="#0f141b"/>
  </g>
  <g transform="matrix(.55753 0 0 -.55753 57.859 30.301)">
   <path d="m0 0c-3.043-7.513-1.974-16.544 1.394-17.908 3.408-1.381 11.038 2.741 14.146 11.728 2.545 7.363 1.488 16.12-2.136 17.68-2.896 1.248-10.536-4.419-13.404-11.5m0.917-19.083c-4.81 1.949-5.37 11.467-2.092 19.559 3.619 8.938 11.48 13.742 15.081 12.189 4.729-2.036 5.396-11.847 2.832-19.259-3.594-10.394-11.767-14.13-15.821-12.489" fill="#0f141b"/>
  </g>
  <g transform="matrix(.55753 0 0 -.55753 60.139 37.441)">
   <path d="m0 0c-3.092 1.226-5.403 5.407-6.095 9.126-0.065 0.351 0.992 1.96 1.029 1.612 0.368-3.505 2.728-8.446 5.533-9.559 2.679-1.063 6.563-0.15 9.447 2.216 0.273 0.223 1.075-0.759 0.806-0.981-3.174-2.601-7.87-3.545-10.72-2.414" fill="#0f141b"/>
  </g>
  <g transform="matrix(.55753 0 0 -.55753 65.533 36.123)">
   <path d="m0 0c-1.189 2.879-4.49 7.078-6.001 7.796-0.84 0.399-7.942-0.396-9.459-0.772-0.339-0.085 0.176 1.321 0.516 1.405 1.077 0.269 8.058 1.191 9.487 0.512 1.952-0.927 5.074-4.756 6.304-7.73 0.133-0.324-0.744-1.459-0.847-1.211" fill="#0f141b"/>
  </g>
  <g transform="matrix(.55753 0 0 -.55753 62.02 31.306)">
   <path d="M 0,0 C 0.607,1.279 1.614,3.54 2.27,4.951 3.128,6.799 4.091,6.499 3.347,4.635 2.822,3.319 1.824,0.887 1.146,-0.544 1.038,-0.769 -0.15,-0.316 0,0" fill="#0f141b"/>
  </g>
  <g transform="matrix(.55753 0 0 -.55753 63.555 36.786)">
   <path d="m0 0c0.324 4.081-4.902 8.208-10.101 5.06-0.298-0.182-1.014 1.036-0.714 1.218 5.458 3.309 12.607-0.964 12.182-6.282-0.025-0.327-1.395-0.345-1.367 4e-3" fill="#0f141b"/>
  </g>
  <g transform="matrix(.55753 0 0 -.55753 39.532 70.551)">
   <path d="m0 0c-0.927 0.107-1.775 2.603-1.431 5.436 0.205 1.815 1.273 3.356 2.732 4.019 0.191 0.087 1.264-0.918 0.927-1.01-1.484-0.402-2.2-1.686-2.463-3.077-0.31-1.631 0.079-3.961 0.373-4.002 0.237-0.032 2.239 3.485 3.546 3.511 0.349 7e-3 0.375-1.253 0.025-1.269-0.815-0.034-2.488-3.75-3.709-3.608" fill="#0f141b"/>
  </g>
  <g transform="matrix(.55753 0 0 -.55753 42.013 73.444)">
   <path d="m0 0c-1.369 0.611-1.143 9.26-1.623 11-0.387 1.396 0.456 1.792 0.88 0.25 0.514-1.867 0.864-9.87 1.389-10.074 0.824-0.322 5.105 3.962 5.368 7.554 0.124 1.704 1.063 1.709 0.938-0.029-0.307-4.292-4.797-9.663-6.952-8.701" fill="#0f141b"/>
  </g>
  <g transform="matrix(.55753 0 0 -.55753 47.16 74.32)">
   <path d="m0 0c-1.047 0.175-1.32 1.707-1.733 4.025-0.292 1.644-0.621 3.483-1.233 4.709-0.078 0.157 0.367 1.847 0.576 1.568 1.054-1.409 1.554-4.081 1.906-6.054 0.197-1.112 0.482-2.989 0.739-2.983 0.364 7e-3 1.771 1.592 2.668 3.932 0.61 1.591 1.36 4.588-0.466 6.779-0.224 0.269 1.279 0.422 1.41 0.219 1.424-2.2 1.324-4.96 0.409-7.369-0.703-1.853-2.841-5.064-4.276-4.826" fill="#0f141b"/>
  </g>
  <g transform="matrix(.55753 0 0 -.55753 61.879 76.87)">
   <path d="m0 0c-0.975 0.718-0.069 3.595-0.935 6.213-0.663 2.006-1.565 3.318-2.982 3.289-2.64-0.052-2.836-4.238-3.734-4.568-1.133-0.416-3.794 2.066-3.849 4.772-0.039 1.942 0.854 3.247 2.659 3.891 0.362 0.13 1.76-0.881 1.415-0.941-2.001-0.349-2.84-1.224-2.805-2.925 0.033-1.653 1.56-3.735 2.109-3.555 0.441 0.146 0.818 4.528 4.18 4.595 1.858 0.037 3.402-1.577 4.166-4.25 0.891-3.12 0.03-5.125 0.664-5.562 0.881-0.607 4.672 1.944 4.546 7.159-0.04 1.652 0.825 1.743 0.868 0.079 0.176-6.85-4.745-9.344-6.302-8.197" fill="#0f141b"/>
  </g>
  <g transform="matrix(.55753 0 0 -.55753 66.925 77.134)">
   <path d="m0 0c-0.839 0.179-1.08 1.208-1.386 2.512-0.354 1.513-0.796 3.397-2.092 3.989-0.317 0.146 0.207 1.3 0.529 1.154 1.86-0.852 2.402-3.165 2.799-4.854 0.129-0.555 0.191-1.499 0.46-1.545 0.385-0.066 2.253 2.265 2.162 6.822-0.05 2.454-0.793 4.236-2.082 5.089-0.34 0.225 0.504 1.309 1.291 0.594 1.041-0.946 2.109-2.618 2.17-5.64 0.094-4.748-2.337-8.448-3.851-8.121" fill="#0f141b"/>
  </g>
 </g>
</svg>
