<?xml version="1.0" encoding="UTF-8"?>
<!-- Created with Inkscape (http://www.inkscape.org/) -->
<svg version="1.1" viewBox="0 0 227.49 191.43" xmlns="http://www.w3.org/2000/svg">
 <defs>
  <clipPath id="clipPath29252">
   <path d="M 0,725.669 H 1031.811 V 0 H 0 Z"/>
  </clipPath>
  <clipPath id="clipPath29297">
   <path d="M 0,725.669 H 1031.811 V 0 H 0 Z"/>
  </clipPath>
  <clipPath id="clipPath29312">
   <path d="M 0,725.669 H 1031.811 V 0 H 0 Z"/>
  </clipPath>
  <clipPath id="clipPath29327">
   <path d="M 0,725.669 H 1031.811 V 0 H 0 Z"/>
  </clipPath>
  <clipPath id="clipPath29342">
   <path d="M 0,725.669 H 1031.811 V 0 H 0 Z"/>
  </clipPath>
  <clipPath id="clipPath29357">
   <path d="M 0,725.669 H 1031.811 V 0 H 0 Z"/>
  </clipPath>
  <clipPath id="clipPath29372">
   <path d="M 0,725.669 H 1031.811 V 0 H 0 Z"/>
  </clipPath>
  <clipPath id="clipPath29387">
   <path d="M 0,725.669 H 1031.811 V 0 H 0 Z"/>
  </clipPath>
  <clipPath id="clipPath29402">
   <path d="M 0,725.669 H 1031.811 V 0 H 0 Z"/>
  </clipPath>
  <clipPath id="clipPath28155">
   <path d="M 0,725.669 H 1031.811 V 0 H 0 Z"/>
  </clipPath>
  <clipPath id="clipPath29417">
   <path d="M 0,725.669 H 1031.811 V 0 H 0 Z"/>
  </clipPath>
  <clipPath id="clipPath29432">
   <path d="M 0,725.669 H 1031.811 V 0 H 0 Z"/>
  </clipPath>
  <clipPath id="clipPath29447">
   <path d="M 0,725.669 H 1031.811 V 0 H 0 Z"/>
  </clipPath>
  <clipPath id="clipPath29462">
   <path d="M 0,725.669 H 1031.811 V 0 H 0 Z"/>
  </clipPath>
  <clipPath id="clipPath29477">
   <path d="M 0,725.669 H 1031.811 V 0 H 0 Z"/>
  </clipPath>
  <clipPath id="clipPath29492">
   <path d="M 0,725.669 H 1031.811 V 0 H 0 Z"/>
  </clipPath>
  <clipPath id="clipPath29507">
   <path d="M 0,725.669 H 1031.811 V 0 H 0 Z"/>
  </clipPath>
  <clipPath id="clipPath29522">
   <path d="M 0,725.669 H 1031.811 V 0 H 0 Z"/>
  </clipPath>
  <clipPath id="clipPath29537">
   <path d="M 0,725.669 H 1031.811 V 0 H 0 Z"/>
  </clipPath>
  <clipPath id="clipPath29552">
   <path d="M 0,725.669 H 1031.811 V 0 H 0 Z"/>
  </clipPath>
  <clipPath id="clipPath29567">
   <path d="M 0,725.669 H 1031.811 V 0 H 0 Z"/>
  </clipPath>
  <clipPath id="clipPath29582">
   <path d="M 0,725.669 H 1031.811 V 0 H 0 Z"/>
  </clipPath>
  <clipPath id="clipPath29597">
   <path d="M 0,725.669 H 1031.811 V 0 H 0 Z"/>
  </clipPath>
  <clipPath id="clipPath29612">
   <path d="M 0,725.669 H 1031.811 V 0 H 0 Z"/>
  </clipPath>
  <clipPath id="clipPath29627">
   <path d="M 0,725.669 H 1031.811 V 0 H 0 Z"/>
  </clipPath>
  <clipPath id="clipPath29642">
   <path d="M 0,725.669 H 1031.811 V 0 H 0 Z"/>
  </clipPath>
  <clipPath id="clipPath29657">
   <path d="M 0,725.669 H 1031.811 V 0 H 0 Z"/>
  </clipPath>
  <clipPath id="clipPath29672">
   <path d="M 0,725.669 H 1031.811 V 0 H 0 Z"/>
  </clipPath>
  <clipPath id="clipPath29687">
   <path d="M 0,725.669 H 1031.811 V 0 H 0 Z"/>
  </clipPath>
  <clipPath id="clipPath29702">
   <path d="M 0,725.669 H 1031.811 V 0 H 0 Z"/>
  </clipPath>
  <clipPath id="clipPath29717">
   <path d="M 0,725.669 H 1031.811 V 0 H 0 Z"/>
  </clipPath>
  <clipPath id="clipPath29732">
   <path d="M 0,725.669 H 1031.811 V 0 H 0 Z"/>
  </clipPath>
  <clipPath id="clipPath29747">
   <path d="M 0,725.669 H 1031.811 V 0 H 0 Z"/>
  </clipPath>
  <clipPath id="clipPath29762">
   <path d="M 0,725.669 H 1031.811 V 0 H 0 Z"/>
  </clipPath>
  <clipPath id="clipPath29777">
   <path d="M 0,725.669 H 1031.811 V 0 H 0 Z"/>
  </clipPath>
  <clipPath id="clipPath29792">
   <path d="M 0,725.669 H 1031.811 V 0 H 0 Z"/>
  </clipPath>
  <clipPath id="clipPath29807">
   <path d="M 0,725.669 H 1031.811 V 0 H 0 Z"/>
  </clipPath>
  <clipPath id="clipPath29822">
   <path d="M 0,725.669 H 1031.811 V 0 H 0 Z"/>
  </clipPath>
  <clipPath id="clipPath29837">
   <path d="M 0,725.669 H 1031.811 V 0 H 0 Z"/>
  </clipPath>
  <clipPath id="clipPath29852">
   <path d="M 0,725.669 H 1031.811 V 0 H 0 Z"/>
  </clipPath>
  <clipPath id="clipPath29867">
   <path d="M 0,725.669 H 1031.811 V 0 H 0 Z"/>
  </clipPath>
  <clipPath id="clipPath29882">
   <path d="M 0,725.669 H 1031.811 V 0 H 0 Z"/>
  </clipPath>
  <clipPath id="clipPath29897">
   <path d="M 0,725.669 H 1031.811 V 0 H 0 Z"/>
  </clipPath>
  <clipPath id="clipPath29912">
   <path d="M 0,725.669 H 1031.811 V 0 H 0 Z"/>
  </clipPath>
  <clipPath id="clipPath29927">
   <path d="M 0,725.669 H 1031.811 V 0 H 0 Z"/>
  </clipPath>
  <clipPath id="clipPath29942">
   <path d="M 0,725.669 H 1031.811 V 0 H 0 Z"/>
  </clipPath>
  <clipPath id="clipPath29957">
   <path d="M 0,725.669 H 1031.811 V 0 H 0 Z"/>
  </clipPath>
  <clipPath id="clipPath29972">
   <path d="M 0,725.669 H 1031.811 V 0 H 0 Z"/>
  </clipPath>
  <clipPath id="clipPath29987">
   <path d="M 0,725.669 H 1031.811 V 0 H 0 Z"/>
  </clipPath>
  <clipPath id="clipPath30002">
   <path d="M 0,725.669 H 1031.811 V 0 H 0 Z"/>
  </clipPath>
  <clipPath id="clipPath30017">
   <path d="M 0,725.669 H 1031.811 V 0 H 0 Z"/>
  </clipPath>
  <clipPath id="clipPath30032">
   <path d="M 0,725.669 H 1031.811 V 0 H 0 Z"/>
  </clipPath>
  <clipPath id="clipPath27570">
   <path d="M 0,725.669 H 1031.811 V 0 H 0 Z"/>
  </clipPath>
  <clipPath id="clipPath27555">
   <path d="M 0,725.669 H 1031.811 V 0 H 0 Z"/>
  </clipPath>
  <clipPath id="clipPath27585">
   <path d="M 0,725.669 H 1031.811 V 0 H 0 Z"/>
  </clipPath>
  <clipPath id="clipPath27600">
   <path d="M 0,725.669 H 1031.811 V 0 H 0 Z"/>
  </clipPath>
  <clipPath id="clipPath27540">
   <path d="M 0,725.669 H 1031.811 V 0 H 0 Z"/>
  </clipPath>
  <clipPath id="clipPath27525">
   <path d="M 0,725.669 H 1031.811 V 0 H 0 Z"/>
  </clipPath>
  <clipPath id="clipPath27510">
   <path d="M 0,725.669 H 1031.811 V 0 H 0 Z"/>
  </clipPath>
  <clipPath id="clipPath27495">
   <path d="M 0,725.669 H 1031.811 V 0 H 0 Z"/>
  </clipPath>
 </defs>
 <g transform="translate(-14.136 -69.637)">
  <path transform="matrix(8.4177 -1.6855 -1.6855 -8.4177 -2550.5 5283.3)" d="m433.18 523.9c2.113 0.501 4.106 2.286 3.836 3.186-0.332 1.111-5.07 1.278-8.187-1.193-0.04-0.556-0.128-1.118-0.267-1.678 0.707 0.268 1.117 0.123 1.197-0.02 0.086-0.157-0.308-1.095-0.75-1.462 0.365-0.147 0.652-0.399 0.653-0.507 3e-3 -0.204-0.512-0.8-1.09-1.009 0.299-0.32 0.428-0.724 0.388-0.835-0.073-0.203-0.708-0.405-1.395-0.422-0.049-0.16-0.107-0.309-0.17-0.447 1.841-2.985 5.761-2.389 5.923-1.839 0.126 0.426-0.515 1.638-1.601 2.314 2.332-0.017 4.241 1.253 4.308 2.03 0.055 0.652-1.478 1.705-2.845 1.882" clip-path="url(#clipPath29252)" fill="#fbd8b5"/>
  <path transform="matrix(8.4177 -1.6855 -1.6855 -8.4177 -2550.5 5283.3)" d="m426.07 518.69c-0.254-0.28-0.478-0.437-0.568-0.401-0.143 0.058-0.316 1.156-0.296 1.926 0.053 0.109 0.086 0.217 0.096 0.325 0.05 0.56-1.028 2.185-2.418 2.338-0.959 0.106-2.082-0.398-2.729-1.164-0.383 1.204-1.126 1.772-2.177 1.938-1.544 0.241-3.315-0.947-3.358-1.678-7e-3 -0.136 0.035-0.308 0.117-0.496-0.264-0.812-0.817-1.55-1.154-1.6-0.137-0.021-0.303 0.128-0.462 0.388 0.016-1.445-0.21-2.168-0.443-2.213-0.056-0.046-0.121-0.068-0.192-0.074 0.997-1.824 3.663-3.154 6.181-1.634 1.932-1.733 5.97-0.48 7.394 2.017-9e-3 0.085-4e-3 0.207 9e-3 0.328" clip-path="url(#clipPath29297)" fill="#fff"/>
  <path transform="matrix(8.4177 -1.6855 -1.6855 -8.4177 -2550.5 5283.3)" d="m429.66 522.23c-1e-3 0.108-0.288 0.36-0.653 0.507 0.442 0.367 0.836 1.305 0.75 1.462-0.08 0.143-0.491 0.288-1.197 0.02 1.176 4.743-1.233 9.543-6.408 10.498-6.719 1.241-11.416-2.907-12.094-9.718-0.476-4.774 1.867-7.558 2.626-6.939 0.233 0.045 0.459 0.768 0.443 2.212 0.159-0.26 0.325-0.409 0.461-0.388 0.338 0.051 0.89 0.789 1.154 1.601-0.082 0.188-0.123 0.359-0.116 0.495 0.043 0.732 1.814 1.92 3.358 1.678 1.051-0.165 1.793-0.733 2.177-1.938 0.646 0.767 1.77 1.27 2.728 1.165 1.39-0.154 2.469-1.778 2.419-2.339-0.01-0.108-0.043-0.216-0.097-0.325-0.019-0.769 0.154-1.868 0.297-1.926 0.089-0.036 0.313 0.122 0.568 0.402-0.024-0.205-0.021-0.416 0.03-0.442 0.154-0.077 1.039 0.359 1.457 1.71 0.687 0.016 1.322 0.218 1.395 0.421 0.04 0.111-0.089 0.515-0.389 0.835 0.579 0.209 1.094 0.805 1.091 1.009" clip-path="url(#clipPath29312)" fill="#fbd8b5"/>
  <path transform="matrix(8.4177 -1.6855 -1.6855 -8.4177 -2550.5 5283.3)" d="m421.91 532.34c-2.405 2.312-6.697 1.463-7.718-2.29-0.699-2.574 0.394-4.954 2.616-5.594 0.928-0.266 1.936-0.145 3.106 0.217 0.327 0.101 0.544 0.097 0.75-0.14 0.872-0.997 1.507-1.403 2.75-1.583 1.096-0.158 3.781 0.627 4.301 3.431 0.63 3.397-1.625 6.464-5.098 5.766-0.363-0.073-0.476-0.031-0.707 0.193" clip-path="url(#clipPath29327)" fill="#fff"/>
  <path transform="matrix(8.4177 -1.6855 -1.6855 -8.4177 -2550.5 5283.3)" d="m418.69 528.9c-0.266-1.374-0.911-1.74-1.478-1.624-0.607 0.125-0.998 0.908-0.753 2.093 0.23 1.129 0.911 1.784 1.542 1.665 0.643-0.12 0.917-0.947 0.689-2.134" clip-path="url(#clipPath29342)" fill="#3e3a39"/>
  <path transform="matrix(8.4177 -1.6855 -1.6855 -8.4177 -2550.5 5283.3)" d="m425.83 527.41c-0.229-1.116-0.89-1.701-1.428-1.588-0.587 0.12-0.892 0.947-0.674 2.004 0.226 1.094 0.835 1.672 1.436 1.549 0.596-0.124 0.873-0.966 0.666-1.965" clip-path="url(#clipPath29357)" fill="#3e3a39"/>
  <g fill="#fff">
   <path transform="matrix(8.4177 -1.6855 -1.6855 -8.4177 -2550.5 5283.3)" d="m417.95 529.08c-0.07-0.402-0.259-0.599-0.442-0.569-0.181 0.028-0.303 0.322-0.235 0.717 0.071 0.399 0.267 0.608 0.461 0.575 0.191-0.033 0.287-0.318 0.216-0.723" clip-path="url(#clipPath29372)"/>
   <path transform="matrix(8.4177 -1.6855 -1.6855 -8.4177 -2550.5 5283.3)" d="m425.02 527.55c-0.086-0.422-0.277-0.576-0.433-0.544-0.139 0.028-0.223 0.306-0.135 0.686 0.093 0.402 0.31 0.564 0.441 0.53 0.118-0.03 0.218-0.225 0.127-0.672" clip-path="url(#clipPath29387)"/>
   <path transform="matrix(8.4177 -1.6855 -1.6855 -8.4177 -2550.5 5283.3)" d="m422.7 527.31c0.088 0.247 0.161 0.512 0.209 0.8 0.303 1.817-0.127 3.2-0.897 3.366-0.916 0.195-2.079-0.886-2.432-2.598-0.047-0.222-0.078-0.436-0.098-0.641 0.616-1.377 2.114-1.892 3.218-0.927" clip-path="url(#clipPath29402)"/>
  </g>
  <path transform="matrix(8.4177 -1.6855 -1.6855 -8.4177 -2550.5 5283.3)" d="m420.51 525.39c0.721-0.172 1.75 0.549 2.209 1.708-1.105-0.964-2.642-0.56-3.255 0.816-0.133-1.4 0.445-2.38 1.046-2.524" clip-path="url(#clipPath28155)" fill="#f3994f"/>
  <path transform="matrix(8.4177 -1.6855 -1.6855 -8.4177 -2550.5 5283.3)" d="m420.16 521.72c-0.383 1.204-1.126 1.773-2.177 1.938-1.544 0.241-3.314-0.947-3.358-1.678-0.039-0.69 1.188-2.309 2.615-2.371 1.412-0.062 2.185 0.371 2.727 1.163 0.237-1.04 1.034-1.909 2.352-1.945 1.492-0.039 2.914 0.898 2.989 1.719 0.049 0.56-1.029 2.185-2.419 2.338-0.959 0.106-2.082-0.398-2.729-1.164" clip-path="url(#clipPath29417)" fill="#00ab84"/>
  <path transform="matrix(8.4177 -1.6855 -1.6855 -8.4177 -2550.5 5283.3)" d="m433.37 522.02c9e-3 0.294-1.531 1.201-2.838 1.519 1.823 0.603 2.845 2.434 2.816 2.572-0.069 0.322-2.487 0.434-4.543-0.413-0.047-0.492-0.127-0.988-0.251-1.483 0.706 0.269 1.117 0.124 1.197-0.019 0.086-0.157-0.309-1.095-0.75-1.462 0.364-0.148 0.652-0.399 0.653-0.507 3e-3 -0.204-0.513-0.8-1.091-1.009 0.3-0.32 0.429-0.724 0.389-0.835-0.073-0.204-0.708-0.405-1.395-0.422-0.041-0.131-0.086-0.253-0.136-0.368 1.181-1.113 3.678-1.304 3.783-1.056 0.098 0.234-0.562 1.302-1.535 2.379 1.624-0.042 3.689 0.725 3.701 1.104" clip-path="url(#clipPath29432)" fill="#00ab84"/>
  <path transform="matrix(8.4177 -1.6855 -1.6855 -8.4177 -2550.5 5283.3)" d="m414.04 516.37c-0.3-0.196-0.541-0.519-0.619-0.873-0.141-0.644 0.163-1.461 0.37-1.498 0.426-0.079 1.019 0.258 1.471 1.051-0.066-0.686 0.356-1.529 0.652-1.571 0.348-0.049 0.938 0.493 1.098 1.19 0.075 0.319 0.079 0.699-0.087 1.058-1.056-0.141-2.064 0.132-2.885 0.643" clip-path="url(#clipPath29447)" fill="#f3994f"/>
  <path transform="matrix(8.4177 -1.6855 -1.6855 -8.4177 -2550.5 5283.3)" d="m421.74 515.6c-1.159-0.163-2.288 0.049-3.07 0.75-0.337-0.203-0.677-0.353-1.014-0.46 0.64-0.35 1.282-0.83 1.715-1.371 0.469-0.585 0.923-1.125 1.057-1.132 0.247-0.013 0.539 0.477 0.495 1.056 0.395-0.42 0.969-1.011 1.105-0.998 0.195 0.014 0.791 1.371-0.288 2.155" clip-path="url(#clipPath29462)" fill="#f3994f"/>
  <path transform="matrix(8.4177 -1.6855 -1.6855 -8.4177 -2550.5 5283.3)" d="m413.56 515.84c-0.264-0.109-0.698-0.106-0.875-0.064-0.178 0.043-0.365 1.348-0.165 2.123 0.173-0.245 0.97-1.218 1.496-1.498z" clip-path="url(#clipPath29477)" fill="#00ab84"/>
  <path transform="matrix(8.4177 -1.6855 -1.6855 -8.4177 -2550.5 5283.3)" d="m412.82 517.44c-0.057-0.507-0.015-1.219-0.016-1.641 0.189-0.045 0.577-0.042 0.719-0.011 0.123 0.18 0.343 0.419 0.516 0.583 9e-3 8e-3 -0.425 0.252-0.599 0.419-0.176 0.168-0.62 0.65-0.62 0.65" clip-path="url(#clipPath29492)" fill="#009573"/>
  <path transform="matrix(8.4177 -1.6855 -1.6855 -8.4177 -2550.5 5283.3)" d="m419.53 527.63c0.444-2.274 1.574-2.54 3.028-0.629-0.474-1.145-1.244-1.72-2.042-1.61-0.574 0.079-1.086 1.034-0.986 2.239" clip-path="url(#clipPath29507)" fill="#d28444"/>
  <path transform="matrix(8.4177 -1.6855 -1.6855 -8.4177 -2550.5 5283.3)" d="m414.69 522.03c0.36-0.849 1.404-1.869 2.398-1.979 1.061-0.116 2.062 0.221 2.635 0.811 0.248 0.255 0.382 0.247 0.508-0.097 0.288-0.779 0.99-1.382 1.848-1.484 1.199-0.145 2.613 0.418 3.173 1.268-0.122-1.104-1.804-1.839-3.222-1.703-1.095 0.105-1.906 1.029-2.065 1.941-0.475-0.863-1.764-1.334-2.948-1.167-1.069 0.15-2.4 1.367-2.327 2.41" clip-path="url(#clipPath29522)" fill="#009573"/>
  <path transform="matrix(8.4177 -1.6855 -1.6855 -8.4177 -2550.5 5283.3)" d="m413.02 518.92c1.256-1.775 3.665-2.459 5.527-1.705 0.444 0.18 0.608 0.139 1.101-0.053 1.532-0.596 4.369-0.154 5.677 1.649 0.012-0.223 0.118-0.509 0.193-0.525 0.076-0.016 0.324 0.152 0.527 0.361l-0.012-0.264c-0.849-2.04-5.278-4.005-7.327-2.036-2.533-1.572-5.371-0.124-6.218 1.651l0.036 0.107c0.132-0.141 0.422 0.051 0.496 0.815" clip-path="url(#clipPath29537)" fill="#dcdddd"/>
  <g fill="#d9bb9e">
   <path transform="matrix(8.4177 -1.6855 -1.6855 -8.4177 -2550.5 5283.3)" d="m410.2 522.45c0.36-1.472 1.2-3.333 1.79-3.607 0.124-0.261 0.368-0.727 0.635-0.8-0.839-0.342-2.251 1.924-2.425 4.407" clip-path="url(#clipPath29552)"/>
   <path transform="matrix(8.4177 -1.6855 -1.6855 -8.4177 -2550.5 5283.3)" d="m411.8 519.68c0.499-1.228 1.075-1.662 1.123 0.873l0.201-0.282c0.058-0.845-0.092-2.071-0.408-2.195-0.318-0.124-0.775 0.576-0.916 1.604" clip-path="url(#clipPath29567)"/>
   <path transform="matrix(8.4177 -1.6855 -1.6855 -8.4177 -2550.5 5283.3)" d="m412.62 522.1c0.636-1.989 1.157-2.243 2.014-0.309l0.091-0.318c-0.193-0.826-0.893-1.588-1.168-1.584-0.272 5e-3 -0.818 0.887-0.937 2.211" clip-path="url(#clipPath29582)"/>
   <path transform="matrix(8.4177 -1.6855 -1.6855 -8.4177 -2550.5 5283.3)" d="m425.38 520.6c0.189-1.623 0.231-2.254 1.259-1.014-0.245-0.59-0.93-1.325-1.117-1.297-0.188 0.029-0.316 1.19-0.299 1.968z" clip-path="url(#clipPath29597)"/>
   <path transform="matrix(8.4177 -1.6855 -1.6855 -8.4177 -2550.5 5283.3)" d="m427.48 519.91c-0.336-0.648-0.824-0.954-1.168-0.967-0.079-0.094-0.175-0.202-0.263-0.296-3e-3 -0.164 5e-3 -0.335 0.102-0.388 0.17-0.094 1.01 0.433 1.329 1.651" clip-path="url(#clipPath29612)"/>
   <path transform="matrix(8.4177 -1.6855 -1.6855 -8.4177 -2550.5 5283.3)" d="m436.96 527.17c-0.405-1.181-2.089-2.375-4.202-2.926-0.321-0.084-0.295-0.437-0.017-0.469 2.08 0.305 4.627 2.294 4.219 3.395" clip-path="url(#clipPath29627)"/>
   <path transform="matrix(8.4177 -1.6855 -1.6855 -8.4177 -2550.5 5283.3)" d="m435.97 522.13c-0.703-1.154-2.942-1.827-4.665-1.756-0.346 0.014-0.353-0.304-0.152-0.4 2.563-0.223 4.876 1.14 4.817 2.156" clip-path="url(#clipPath29642)"/>
   <path transform="matrix(8.4177 -1.6855 -1.6855 -8.4177 -2550.5 5283.3)" d="m428.43 518.92c0.946-1.054 3.19-1.711 4.915-1.2-1.332-1.154-5.027-0.232-5.932 1.814 0.276-0.185 0.713-0.462 1.017-0.614" clip-path="url(#clipPath29657)"/>
  </g>
  <g fill="#d28444">
   <path transform="matrix(8.4177 -1.6855 -1.6855 -8.4177 -2550.5 5283.3)" d="m413.4 515.41c0.52 0.159 1.121-0.163 1.341-1.034 0.185 0.154 0.441 0.493 0.523 0.645-0.012-0.34 0.018-0.595 0.112-0.798 0.368 0.48 1.133 0.635 1.605 0.247 0.096 0.343 0.11 0.943-0.037 1.242-1.059-0.083-1.875 0.058-2.915 0.669-0.257-0.165-0.56-0.578-0.629-0.971" clip-path="url(#clipPath29672)"/>
   <path transform="matrix(8.4177 -1.6855 -1.6855 -8.4177 -2550.5 5283.3)" d="m420.43 515.55c-0.407-0.012-0.815-0.467-0.563-0.898 0.22-0.372 0.482-0.699 0.611-0.694 0.108 4e-3 0.347 0.32 0.382 0.751 0.178-0.697-0.086-1.358-0.392-1.338-0.305 0.019-0.584 0.571-0.968 1.001-0.632 0.705-1.147 1.179-1.807 1.511 0.348 0.12 0.68 0.28 0.993 0.45 0.392-0.342 0.954-0.657 1.744-0.783" clip-path="url(#clipPath29687)"/>
   <path transform="matrix(8.4177 -1.6855 -1.6855 -8.4177 -2550.5 5283.3)" d="m420.67 515.29c0.597-0.469 1.263-1.264 1.346-1.262 0.12 3e-3 0.276 0.094 0.334 0.481 0.045-0.48-0.168-1.065-0.318-1.063-0.15 3e-3 -0.767 0.604-1.156 1.044-0.032 0.318-0.041 0.534-0.206 0.8" clip-path="url(#clipPath29702)"/>
  </g>
  <path transform="matrix(8.4177 -1.6855 -1.6855 -8.4177 -2550.5 5283.3)" d="m427.55 519.9c1.089-0.897 3.017-1.391 3.659-1.363-0.453-0.122-1.114-0.095-2.222 0.2-1.111 0.294-1.574 0.796-1.574 0.796z" clip-path="url(#clipPath29717)" fill="#009573"/>
  <g fill="#0f141b">
   <path transform="matrix(8.4177 -1.6855 -1.6855 -8.4177 -2550.5 5283.3)" d="m412.85 518.09c-0.735-1.067-3.406 1.552-2.955 6.928 0.548 6.558 5.203 11.13 12.278 9.825 5.359-0.989 7.753-5.986 6.412-10.865-0.148-0.541-0.316-0.498-0.173 0.044 1.259 4.787-1.182 9.629-6.288 10.571-6.542 1.21-11.256-2.898-11.926-9.611-0.451-4.537 1.627-7.098 2.34-6.869z" clip-path="url(#clipPath29732)"/>
   <path transform="matrix(8.4177 -1.6855 -1.6855 -8.4177 -2550.5 5283.3)" d="m413.24 520.14c3e-3 -1.33-0.203-2.162-0.546-2.207-0.385-0.053-0.93 0.852-1.047 1.733-0.066 0.484 0.094 0.508 0.17 0.026 0.122-0.757 0.614-1.534 0.837-1.504 0.132 0.017 0.379 0.521 0.34 2.252z" clip-path="url(#clipPath29747)"/>
   <path transform="matrix(8.4177 -1.6855 -1.6855 -8.4177 -2550.5 5283.3)" d="m414.81 521.34c-0.274-0.787-0.837-1.527-1.216-1.585-0.5-0.075-1.233 1.458-1.149 3.028 0.032 0.608 0.186 0.599 0.179-9e-3 -0.021-1.563 0.696-2.798 0.941-2.761 0.305 0.048 0.855 0.819 1.099 1.636z" clip-path="url(#clipPath29762)"/>
   <path transform="matrix(8.4177 -1.6855 -1.6855 -8.4177 -2550.5 5283.3)" d="m425.57 518.42c0.074-0.031 0.781 0.556 1.232 1.574 0.178 0.402 0.328 0.34 0.161-0.067-0.414-1.017-1.223-1.883-1.511-1.766-0.206 0.082-0.358 1.132-0.364 1.87l0.25 0.364c-0.057-0.845 0.141-1.938 0.232-1.975" clip-path="url(#clipPath29777)"/>
   <path transform="matrix(8.4177 -1.6855 -1.6855 -8.4177 -2550.5 5283.3)" d="m428.59 524.34c0.689 0.261 1.196 0.103 1.295-0.07 0.143-0.256-0.345-1.238-0.832-1.613-0.286-0.22-0.383-0.124-0.105 0.141 0.447 0.426 0.752 1.205 0.685 1.342-0.058 0.121-0.476 0.196-1.097-0.053z" clip-path="url(#clipPath29792)"/>
   <path transform="matrix(8.4177 -1.6855 -1.6855 -8.4177 -2550.5 5283.3)" d="m429.09 522.81c0.351-0.131 0.72-0.426 0.721-0.581 5e-3 -0.258-0.587-0.918-1.233-1.102-0.409-0.116-0.479-6e-3 -0.056 0.167 0.547 0.224 1.021 0.762 1.009 0.921-6e-3 0.066-0.238 0.294-0.617 0.432z" clip-path="url(#clipPath29807)"/>
   <path transform="matrix(8.4177 -1.6855 -1.6855 -8.4177 -2550.5 5283.3)" d="m428.67 521.26c0.3-0.316 0.479-0.769 0.422-0.929-0.094-0.267-0.804-0.463-1.451-0.483-0.411-1.294-1.32-1.836-1.598-1.697-0.089 0.045-0.118 0.203-0.093 0.425l0.258 0.261c-0.065-0.217-0.051-0.463-0.028-0.481 0.039-0.028 0.827 0.274 1.258 1.596 0.034 0.104 0.053 0.114 0.179 0.119 0.691 0.032 1.183 0.256 1.222 0.366 0.024 0.067-0.085 0.413-0.389 0.749z" clip-path="url(#clipPath29822)"/>
   <path transform="matrix(8.4177 -1.6855 -1.6855 -8.4177 -2550.5 5283.3)" d="m418.76 516.41c1.938-1.703 5.943-0.347 7.252 2.132l0.117-0.32c-1.443-2.503-5.579-3.731-7.564-1.946z" clip-path="url(#clipPath29837)"/>
   <path transform="matrix(8.4177 -1.6855 -1.6855 -8.4177 -2550.5 5283.3)" d="m412.62 518c1.003-1.789 3.718-3.077 6.192-1.461 0.425 0.277 0.517 0.137 0.1-0.152-2.521-1.753-5.471-0.474-6.569 1.593z" clip-path="url(#clipPath29852)"/>
   <path transform="matrix(8.4177 -1.6855 -1.6855 -8.4177 -2550.5 5283.3)" d="m420.73 524.57c0.524-0.705 1.35-1.25 2.195-1.42 1.905-0.383 4.19 0.841 4.637 3.254 0.488 2.628-0.764 4.937-2.865 5.557-0.624 0.183-1.323 0.219-2.074 0.067-0.376-0.074-0.562-0.022-0.812 0.219-0.623 0.597-1.375 0.977-2.162 1.143-2.167 0.456-4.601-0.709-5.326-3.379-0.715-2.632 0.563-4.889 2.507-5.412 0.853-0.229 2.061-0.188 3.001 0.155 0.169 0.061 0.408 0.136 0.52 0.108 0.132-0.034 0.264-0.137 0.379-0.292m-0.155-0.167c-0.092 0.113-0.172 0.202-0.261 0.223-0.077 0.018-0.209-0.033-0.352-0.086-1.061-0.397-2.244-0.42-3.118-0.206-2.457 0.605-3.498 3.215-2.806 5.762 0.773 2.845 3.373 4.031 5.657 3.546 0.84-0.178 1.637-0.582 2.285-1.21 0.224-0.218 0.29-0.232 0.611-0.168 0.848 0.169 1.629 0.122 2.315-0.1 2.191-0.704 3.432-3.157 2.941-5.81-0.486-2.621-3.05-3.883-4.965-3.436-0.941 0.221-1.714 0.757-2.307 1.485" clip-path="url(#clipPath29867)"/>
   <path transform="matrix(8.4177 -1.6855 -1.6855 -8.4177 -2550.5 5283.3)" d="m416.58 529.35c-0.246-1.202 0.174-1.849 0.653-1.947 0.605-0.124 1.097 0.396 1.316 1.532 0.244 1.27-0.1 1.896-0.576 1.985-0.511 0.098-1.162-0.448-1.393-1.57m0.599-2.184c-0.636 0.131-1.133 0.921-0.861 2.237 0.223 1.088 0.911 1.905 1.694 1.757 0.683-0.129 1.059-0.946 0.802-2.28-0.283-1.468-1.021-1.84-1.635-1.714" clip-path="url(#clipPath29882)"/>
   <path transform="matrix(8.4177 -1.6855 -1.6855 -8.4177 -2550.5 5283.3)" d="m423.85 527.8c-0.217-1.049 0.078-1.762 0.569-1.863 0.401-0.083 1.017 0.31 1.262 1.503 0.212 1.026-0.071 1.715-0.544 1.813-0.555 0.115-1.083-0.466-1.287-1.453m0.524-2.102c-0.684 0.141-1.001 1.109-0.784 2.167 0.237 1.145 0.914 1.77 1.588 1.631 0.663-0.137 0.999-1.018 0.775-2.11-0.273-1.324-1.039-1.798-1.579-1.688" clip-path="url(#clipPath29897)"/>
   <path transform="matrix(8.4177 -1.6855 -1.6855 -8.4177 -2550.5 5283.3)" d="m419.71 528.85c-0.422-2.042 0.337-3.22 0.828-3.337 0.691-0.164 1.915 0.732 2.231 2.616 0.298 1.787-0.1 3.078-0.792 3.225-0.739 0.158-1.903-0.743-2.267-2.504m0.768-3.583c-0.762 0.182-1.462 1.583-1.039 3.631 0.38 1.843 1.617 2.9 2.602 2.689 0.884-0.189 1.302-1.673 0.996-3.501-0.337-2.018-1.652-3.035-2.559-2.819" clip-path="url(#clipPath29912)"/>
   <path transform="matrix(8.4177 -1.6855 -1.6855 -8.4177 -2550.5 5283.3)" d="m422.48 526.73c-0.943-0.617-2.317-0.366-3.038 0.909-0.016 0.03 0.061 0.531 0.061 0.531 0.564-1.473 2.159-1.992 3.231-0.897 0 0-0.203-0.51-0.254-0.543" clip-path="url(#clipPath29927)"/>
   <path transform="matrix(8.4177 -1.6855 -1.6855 -8.4177 -2550.5 5283.3)" d="m420.97 526.59c0.2 0.331 0.341 0.715 0.429 1.218 0.085 0.482 0.231 0.455 0.175-0.033s-0.166-0.887-0.357-1.235z" clip-path="url(#clipPath29942)"/>
   <path transform="matrix(8.4177 -1.6855 -1.6855 -8.4177 -2550.5 5283.3)" d="m420.1 520.73c0.306-1.088 1.097-1.736 2.219-1.764 1.225-0.032 2.781 0.728 2.859 1.594 0.035 0.401-0.89 2.035-2.3 2.189-0.869 0.098-1.915-0.336-2.576-1.04-0.161-0.172-0.212-0.148-0.282 0.05-0.355 0.998-1.01 1.603-2.059 1.767-1.409 0.222-3.171-0.875-3.211-1.558-0.036-0.621 1.121-2.169 2.491-2.231 1.342-0.058 2.154 0.477 2.589 1.057 0.137 0.182 0.202 0.173 0.27-0.064m-0.182-0.221c-0.501-0.657-1.349-1.092-2.69-1.034-1.478 0.064-2.783 1.732-2.738 2.515 0.046 0.791 1.904 2.053 3.511 1.8 1.087-0.17 1.838-0.805 2.205-1.845 0.69 0.746 1.778 1.178 2.702 1.076 1.486-0.164 2.578-1.888 2.523-2.491-0.094-1.045-1.845-1.874-3.116-1.839-1.141 0.031-2.069 0.672-2.397 1.818" clip-path="url(#clipPath29957)"/>
   <path transform="matrix(8.4177 -1.6855 -1.6855 -8.4177 -2550.5 5283.3)" d="m418.09 521.3c-0.419 0.1-0.386 0.221 0.024 0.172 0.422-0.051 0.674-0.079 1.082-0.1 0.351-0.02 0.341-0.261-0.011-0.235-0.408 0.033-0.709 0.07-1.095 0.163" clip-path="url(#clipPath29972)"/>
   <path transform="matrix(8.4177 -1.6855 -1.6855 -8.4177 -2550.5 5283.3)" d="m421.96 520.75c-0.379 0.025-0.715 0.063-1.066 0.119-0.306 0.051-0.262 0.289 0.042 0.233 0.379-0.07 0.683-0.125 1.044-0.18 0.428-0.065 0.41-0.201-0.02-0.172" clip-path="url(#clipPath29987)"/>
   <path transform="matrix(8.4177 -1.6855 -1.6855 -8.4177 -2550.5 5283.3)" d="m428.81 525.82c1.996 0.841 4.596 0.775 4.695 0.338 0.063-0.277-1.152-2.205-3.009-2.723-0.456-0.127-0.527 0.013-0.05 0.174 1.772 0.6 2.768 2.368 2.752 2.467-0.024 0.156-2.256 0.411-4.399-0.486z" clip-path="url(#clipPath30002)"/>
   <path transform="matrix(8.4177 -1.6855 -1.6855 -8.4177 -2550.5 5283.3)" d="m430.68 523.61c1.282-0.338 2.861-1.237 2.849-1.612-0.017-0.543-2.405-1.258-3.914-1.174-0.432 0.024-0.44 0.194 8e-3 0.182 1.54-0.042 3.58 0.711 3.589 1.026 6e-3 0.206-1.408 1.091-2.808 1.429z" clip-path="url(#clipPath30017)"/>
   <path transform="matrix(8.4177 -1.6855 -1.6855 -8.4177 -2550.5 5283.3)" d="m429.81 520.92c0.863-0.959 1.672-2.146 1.54-2.459-0.152-0.364-2.78-0.086-3.982 1.036l0.094 0.192c1.084-1.068 3.514-1.254 3.614-1.076 0.069 0.127-0.479 1.14-1.557 2.314z" clip-path="url(#clipPath30032)"/>
   <path transform="matrix(8.4177 -1.6855 -1.6855 -8.4177 -2550.5 5283.3)" d="m427.45 519.62c1.848-2.976 5.589-2.333 5.719-1.893 0.094 0.321-0.46 1.567-1.674 2.262l0.417 6e-3c1.048-0.678 1.698-1.892 1.561-2.36-0.191-0.644-4.318-1.273-6.145 1.767z" clip-path="url(#clipPath27570)"/>
   <path transform="matrix(8.4177 -1.6855 -1.6855 -8.4177 -2550.5 5283.3)" d="m431.47 519.91c-0.482 0.033-0.473 0.189 0.014 0.179 2.415-0.054 4.305 1.238 4.367 1.951 0.051 0.596-1.453 1.606-2.922 1.779l0.47 0.162c1.298-0.238 2.833-1.229 2.768-1.98-0.078-0.91-2.221-2.256-4.697-2.091" clip-path="url(#clipPath27555)"/>
   <path transform="matrix(8.4177 -1.6855 -1.6855 -8.4177 -2550.5 5283.3)" d="m428.84 526.05c3.164 2.476 7.969 2.288 8.333 1.075 0.27-0.897-1.666-2.895-4.105-3.336-0.453-0.083-0.515 0.057-0.034 0.172 2.124 0.502 4.06 2.316 3.828 3.095-0.291 0.969-4.861 1.187-8.038-1.296z" clip-path="url(#clipPath27585)"/>
   <path transform="matrix(8.4177 -1.6855 -1.6855 -8.4177 -2550.5 5283.3)" d="m414.16 516.3c-0.311-0.189-0.546-0.494-0.62-0.835-0.137-0.63 0.181-1.331 0.283-1.35 0.397-0.073 1.002 0.276 1.46 1.184l-0.025-0.468c-0.458-0.764-1.085-1.026-1.489-0.951-0.31 0.057-0.615 0.994-0.474 1.638 0.079 0.357 0.33 0.71 0.64 0.916z" clip-path="url(#clipPath27600)"/>
   <path transform="matrix(8.4177 -1.6855 -1.6855 -8.4177 -2550.5 5283.3)" d="m415.9 513.36c-0.392 0.049-0.919 1.157-0.677 1.94 0.117 0.382 0.258 0.346 0.161-0.041-0.177-0.712 0.305-1.628 0.546-1.659 0.291-0.036 0.802 0.419 0.957 1.099 0.063 0.268 0.088 0.642-0.094 1.019l0.256 0.034c0.178-0.401 0.148-0.824 0.083-1.107-0.171-0.737-0.811-1.338-1.232-1.285" clip-path="url(#clipPath27540)"/>
   <path transform="matrix(8.4177 -1.6855 -1.6855 -8.4177 -2550.5 5283.3)" d="m417.78 515.95c0.572-0.301 1.284-0.855 1.681-1.352 0.571-0.712 0.859-1.077 0.984-1.093 0.233-0.033 0.624 0.836 0.173 1.604-0.178 0.302-0.044 0.382 0.149 0.088 0.552-0.845 0.12-1.992-0.35-1.933-0.195 0.023-0.471 0.347-1.141 1.182-0.409 0.512-1.022 1.005-1.748 1.391z" clip-path="url(#clipPath27525)"/>
   <path transform="matrix(8.4177 -1.6855 -1.6855 -8.4177 -2550.5 5283.3)" d="m420.91 514.62c0.561-0.618 1.017-1.072 1.111-1.057 0.103 0.017 0.705 1.254-0.437 2.005l0.307 0.051c1.039-0.84 0.44-2.274 0.152-2.297-0.164-0.015-0.634 0.437-1.116 0.95z" clip-path="url(#clipPath27510)"/>
   <path transform="matrix(8.4177 -1.6855 -1.6855 -8.4177 -2550.5 5283.3)" d="m412.53 515.76c-0.153 0.252-0.302 1.698-0.131 2.361 0.016 0.061 0.222-0.224 0.213-0.265-0.169-0.728 0.041-1.844 0.112-1.969 0.175-0.035 0.561-0.03 0.783 0.062 0.06 0.024-1e-3 -0.289-0.044-0.301-0.284-0.074-0.844-0.035-0.933 0.112" clip-path="url(#clipPath27495)"/>
  </g>
 </g>
</svg>
