<?xml version="1.0" encoding="UTF-8"?>
<!-- Created with Inkscape (http://www.inkscape.org/) -->
<svg version="1.1" viewBox="0 0 89.411 101.95" xmlns="http://www.w3.org/2000/svg">
 <g transform="translate(-54.598 -110.69)">
  <path d="m106.64 111.49c-25.049-2.1472-42.941 13.715-49.27 36.493-3.2213 11.577-2.3853 23.35 0.73041 31.879 3.1283 8.564 6.6797 12.234 9.1583 10.187 0.04059 7e-3 0.0784 0.0269 0.12073 0.0228 1.5133-0.0259 4.3019-4.7364 5.0172-11.078 0.62251 1.3382 1.4537 2.1861 2.4665 2.2655 1.8477 0.13756 5.6244-3.1386 7.0283-9.7632-1.0893-1.7457-1.6902-3.2125-1.5877-3.7332 0.2626-1.3417 5.9749-6.7342 12.091-7.168 4.9808-0.35235 10.969 4.9909 13.137 9.2992 1.6657-3.2142 6.3979-6.3697 11.065-5.8945 6.9144 0.71044 12.459 10.301 12.162 11.811-0.17233 0.89093-1.3223 2.2584-3.0026 3.5283 0.21414 4.1455 1.2381 6.6087 2.9016 6.5671 1.2796-0.0302 2.8369-1.0966 4.1174-3.1378-6e-3 3.0782-0.9933 6.1714-2.5165 9.1626 8.8655-5.8467 13.277-18.06 13.088-31.248-0.47536-32.893-19.318-47.7-36.708-49.193" fill="#fbd8b5"/>
  <path d="m108.59 124.26c-2.1143 0.99138-3.2576 0.65383-4.3609-0.59796-10.354-11.689-34.355-4.4318-34.454 16.461-0.09497 20.445 18.56 27.86 31.428 19.661 0.92854-0.58863 1.9483-0.73895 3.0262 0.29842 3.0292 2.9201 6.7233 4.7708 10.465 5.2518 10.01 1.2852 20.164-5.6336 21.408-18.591 1.8644-19.411-14.619-28.523-27.513-22.484" fill="#fff"/>
  <path d="m92.118 139.8c-0.96438 5.4572-3.9193 8.1261-6.5591 7.5909-3.0671-0.62556-4.5487-4.3292-3.6268-9.5521 0.92434-5.2379 3.7428-8.2224 6.6584-7.7162 3.0512 0.52654 4.4237 4.5799 3.5276 9.6774" fill="#3e3a39"/>
  <path d="m125.23 144.49c-0.69841 5.3867-3.3427 7.9383-5.8889 7.6093-2.5468-0.32805-4.3792-3.4059-3.6686-8.9141 0.71768-5.5731 3.4228-8.1494 5.9394-7.8218 2.5227 0.32388 4.307 3.7912 3.6181 9.1266" fill="#3e3a39"/>
  <g fill="#fff">
   <path d="m88.641 139.19c-0.35475 2.2781-1.2486 3.055-2.0424 2.9745-0.88781-0.0863-1.3717-1.5296-1.0283-3.6394 0.34078-2.0733 1.2174-2.984 2.0456-2.8587 0.87679 0.13151 1.3133 1.6637 1.0251 3.5236"/>
   <path d="m121.93 144.02c-0.29532 2.0491-1.1439 2.7502-1.898 2.641-0.60778-0.0877-1.2394-1.2231-0.96806-3.1169 0.27075-1.8642 1.1137-2.8588 1.8496-2.7422 0.6573 0.10018 1.3127 1.1754 1.0165 3.218"/>
   <path d="m95.927 141.26c0.04092 4.2224 3.1535 8.2129 7.4746 8.6284 5.3301 0.51081 8.3678-2.007 8.8769-5.1392 1.6467-10.167-2.6965-17.03-6.1954-17.468-4.659-0.58219-10.213 8.4401-10.156 13.978"/>
  </g>
  <path d="m103.4 149.89c-4.3212-0.41528-7.4337-4.4061-7.4746-8.6284-1e-3 -0.0209 7.8e-5 -0.0428 0.0023-0.0643-1.7243 9.3337 2.8438 15.928 7.0445 16.163 3.8947 0.21767 7.998-4.0355 9.0956-11.766-0.88065 2.7213-3.8198 4.7615-8.6674 4.2964" fill="#f3994f"/>
  <path d="m103.4 149.89c-2.8264-0.27217-5.1324-2.081-6.405-4.4766 0.56392 5.9854 2.9147 9.1242 6.0196 9.4514 1.4141 0.15104 3.1604-0.51768 4.8323-1.8534-0.31574-1.2691-0.7208-2.2913-1.2579-3.2081-0.95203 0.15698-2.0115 0.19989-3.189 0.0867" fill="#ee869a"/>
  <path d="m111.53 148.47c0.39299-1.3461 0.61812-2.4144 0.7512-3.7218-0.39724 2.4388-3.0188 4.58-6.3762 5.1327 0.69571 0.875 1.5853 2.1515 1.9455 3.128 1.3556-1.0911 2.6613-2.6251 3.6795-4.5389" fill="#932f00"/>
  <path d="m132.5 185.54c0.13671-0.865 0.20848-1.7605 0.21071-2.692-1.2695 1.9839-2.7943 3.024-4.057 3.0535-1.6634 0.0423-2.6875-2.4215-2.9015-6.5663 1.6811-1.27 2.8303-2.6374 3.0025-3.529 0.29681-1.5094-5.2474-11.101-12.162-11.811-4.6672-0.47519-9.3993 2.681-11.065 5.8952-2.1674-4.3084-8.1564-9.6516-13.137-9.3-6.1161 0.43444-11.829 5.8262-12.091 7.1687-0.10169 0.52064 0.49836 1.9876 1.5877 3.7332-1.404 6.6246-5.1807 9.9-7.0277 9.7624-1.0134-0.0785-1.8446-0.92641-2.4664-2.2648-0.71531 6.3421-3.5041 11.052-5.0179 11.079-0.0415 3e-3 -0.07916-0.0156-0.12074-0.0228-0.35017 0.28949-0.72278 0.45097-1.1095 0.51496 4.9222 12.499 18.823 17.732 31.048 9.3307 8.3753 5.7376 28.049 2.3959 33.868-9.699 0.66266-1.5354 1.1594-3.0912 1.4393-4.6514" fill="#fff"/>
  <path d="m74.084 205.07c-1.4073 0.62925-2.51 0.7241-3.2819 0.34078-0.93414-0.46094-2.195-4.5564-2.6311-10.867 1.2905 2.4537 4.8031 5.8812 6.7597 6.6894-0.45654 1.1557-0.68637 2.2674-0.84674 3.8363" fill="#00ab84"/>
  <g fill="#d9bb9e">
   <path d="m57.128 175.1c1.9332 6.2451 4.9858 11.557 8.1351 11.926 0.63631 1.6439 1.2602 2.6576 1.9338 2.9581-3.7593 3.3592-9.4904-8.2228-10.069-14.884"/>
   <path d="m64.375 182.43c1.5142 6.2074 4.2947 8.1991 7.2392-4.9435l0.75424 1.5889c-0.2103 4.5829-3.2014 10.685-4.9081 10.847-1.7071 0.15914-2.6004-2.7718-3.0853-7.4928"/>
   <path d="m71.434 173.42c2.1634 8.6955 5.9836 6.5405 9.6121-3.1116l0.85882 1.101c-1.5564 5.9354-4.4189 9.8986-6.9543 9.8294-1.6491-0.0463-3.6451-3.2913-3.5166-7.8188"/>
  </g>
  <path d="m98.103 151.39c2.1808-0.8639 7.0771 0.48412 8.3307 2.4535 0.4783-0.25973 0.89309-0.52153 1.4206-0.86119-0.13882-0.71974-1.3508-2.3458-1.8162-3.066-4.302 0.8066-8.4186-2.1891-10.202-5.8198-0.1223 1.2492 0.53492 5.0278 2.2667 7.2935" fill="#cf7487"/>
  <path d="m68.833 189.09c5.3325 8.1252 16.33 11.425 26.097 6.3679 1.8452-0.95655 2.5774-1.0388 4.3068-0.31513 10.581 4.4314 22.597 1.0654 29.969-9.2564 1.1004-0.2328 2.439-1.279 3.3946-2.6471-0.54383 17.003-24.398 23.714-35.283 16.627-13.297 8.987-27.159 1.9872-31.281-9.3218 0.22249-0.0143 0.69606-0.20263 0.93036-0.44397 0.48776 0.0634 1.1312-0.10231 1.8661-1.0108" fill="#dcdddd"/>
  <path d="m127.02 178.21c0.50996 7.2339 4.381 6.8766 7.6187-1.6975-0.60294 5.5281-2.8777 9.6962-6.0919 9.3721-2.3083-0.23526-2.9128-3.5442-2.8102-6.5825z" fill="#d9bb9e"/>
  <path d="m141.48 173.63c-2.4352 6.4646-6.314 10.685-8.884 11.679-0.47594 2.1407-0.93765 3.8555-2.2361 6.3042 4.8429-2.5726 9.9923-10.315 11.12-17.984" fill="#d9bb9e"/>
  <path d="m70.511 197.59c-0.12691 2.9364 0.04103 5.1726 0.65242 7.7781 0.97554 0.30337 2.0483 0.16451 2.8496-0.24794 0.11043-1.2617 0.54105-2.7597 0.90944-3.818-1.7873-1.1714-3.0355-2.0985-4.4115-3.7122" fill="#009573"/>
  <path d="m74.93 201.23c-1.8974 5.1071 0.18617 9.5808 1.9391 9.7873 1.0736 0.12363 4.5242-2.0114 5.1328-7.2394-2.5164-0.37171-4.9071-1.2378-7.072-2.5479" fill="#d28444"/>
  <path d="m82.06 203.79c0.0223 5.7385 2.622 8.3574 4.0139 8.2972 1.5216-0.0697 4.6365-4.1972 2.9453-8.5657-2.3676 0.51736-4.7122 0.59293-6.9592 0.26845" fill="#d28444"/>
  <g fill="#0f141b">
   <path d="m67.898 190.17c-0.93807 0.92454-2.1442 1.2777-3.5216 0.62549-6.2585-2.9517-13.331-22.893-7.7584-42.94 6.9634-25.047 26.336-39.132 50.031-36.937 18.998 1.7598 36.891 17.555 37.354 49.751 0.21184 14.697-5.1973 26.658-14.211 32.146l0.60765-1.6136c8.0135-5.6902 12.445-16.825 12.248-30.519-0.45284-31.479-18.231-47.09-36.064-48.62-23.365-2.0046-42.107 12.69-48.619 36.122-5.4463 19.582 1.2552 38.568 6.7856 41.56 0.80474 0.43278 1.4983 0.40413 2.0413 2e-3z"/>
   <path d="m72.838 179.78c-0.81253 6.2613-3.7108 10.829-5.4415 10.869-2.0333 0.0372-3.8858-5.7609-4.2821-11.741-0.15434-2.3535 0.49994-2.4521 0.773-0.10809 0.75354 6.4103 2.6192 10.712 3.485 10.696 1.2489 1.6e-4 4.0008-4.835 4.5718-11.525z"/>
   <path d="m82.28 172.09c-1.498 6.5853-5.4103 9.9385-7.4579 9.7798-3.1924-0.24092-4.4821-6.1287-3.998-11.256 0.21076-2.2228 0.8851-2.1982 0.80368 0.0317-0.21587 5.8134 1.4621 9.9211 3.2667 10.055 1.6834 0.12421 5.2692-3.2861 6.5528-9.9312z"/>
   <path d="m126.26 178.97c0.21364 4.7443 1.3495 6.3383 2.3916 6.3145 2.209-0.0548 5.5379-3.5459 6.1695-10.944 0.19635-2.3084 0.92178-2.2669 0.79212 0.0452-0.41468 7.6485-4.1771 12.109-6.9663 12.165-1.5154 0.038-3.2254-1.7532-3.452-6.8195z"/>
   <path d="m97.625 199.57c9.8711 6.4068 33.739 0.51176 34.473-15.883l1.1941-1.5093c0.72391 19.077-26.585 25.285-36.576 18.046z"/>
   <path d="m66.699 190.47c4.8712 12.212 18.339 17.241 30.566 8.8892 1.6143-1.1039 2.0278-0.50577 0.45366 0.65842-12.157 9.0263-27.028 3.9569-32.204-9.3664z"/>
   <path d="m104.53 159.58c3.5927 3.4893 7.0206 5.0905 11.041 5.3008 9.316 0.4953 18.54-6.4224 19.667-18.184 1.2804-13.322-6.106-21.666-15.063-23.389-4.1027-0.78513-7.3203-0.39092-11.018 1.3547-1.1725 0.55619-2.1941 0.909-2.9692 0.77319-0.52436-0.0904-1.2137-0.66014-2.1112-1.5944-2.0134-2.0887-5.9445-4.7774-11.49-5.1075-10.367-0.61596-21.743 6.9456-22.179 21.358-0.55825 18.347 17.104 27.725 30.454 19.223 0.5412-0.34216 1.1045-0.56436 1.7074-0.55483 0.60948 9e-3 1.309 0.18596 1.9602 0.81954m-0.61256 0.95595c-0.51012-0.48638-0.94076-0.64837-1.3082-0.6744-0.36591-0.025-0.70931 0.12843-1.1611 0.41647-13.979 8.9038-33.031-0.69756-32.381-20.138 0.50305-15.061 12.551-23.395 23.658-22.587 8.6592 0.63179 12.646 6.6841 13.712 6.8257 1.5234 0.20008 5.6034-3.6301 13.822-2.2382 9.6766 1.6402 17.824 10.7 16.482 24.663-1.2551 13.075-12.085 20.051-22.03 19.277-4.1559-0.32075-7.4316-2.3314-10.793-5.5454"/>
   <path d="m82.534 137.92c-0.85889 4.8853 0.66163 8.4065 3.1223 8.9098 2.2123 0.44859 4.8967-1.8441 5.8358-7.1612 0.92864-5.2672-0.65657-8.5947-3.0051-9.0044-2.1978-0.38084-4.9671 1.6583-5.953 7.2558m2.9284 10.032c-3.123-0.63741-5.1047-4.7787-4.1518-10.199 1.1247-6.3554 4.6864-8.6548 7.326-8.1961 3.0996 0.53588 5.1124 4.5195 4.0865 10.342-1.0173 5.7641-4.3562 8.6437-7.2606 8.053"/>
   <path d="m116.25 143.26c-0.66887 5.1659 0.96787 8.022 3.135 8.3028 2.1787 0.28008 4.5295-1.9084 5.1984-7.1133 0.64462-5.001-0.86938-8.2436-3.0482-8.5251-1.769-0.228-4.5401 1.5648-5.2852 7.3356m2.978 9.4205c-2.9972-0.38678-4.9374-3.8832-4.2033-9.5621 0.77665-5.9985 3.8694-8.6823 6.6278-8.3279 3.3417 0.43412 4.8241 4.957 4.2003 9.7779-0.83381 6.4722-4.1682 8.4312-6.6249 8.1121"/>
   <path d="m96.503 141.27c0.03689 4.106 4.318 7.7938 7.9333 8.1432 4.1257 0.39445 6.6858-1.432 7.229-4.784 1.5245-9.4226-2.4627-16.41-5.6393-16.808-3.8316-0.48034-9.5777 7.6533-9.523 13.449m7.7838 9.3864c-5.0415-0.48621-8.9872-4.981-9.0285-9.3828-0.06309-6.3664 6.0716-15.157 10.907-14.551 4.2919 0.53627 8.2853 8.5331 6.7278 18.155-0.64848 3.9872-3.9046 6.2325-8.6065 5.7794"/>
   <path d="m104.2 150.04c0.59226-1.4255 0.90529-2.9062 1.0132-4.0388 0.16406-1.7586 0.8441-1.6339 0.79294 0.13026-0.0284 1.1231-0.22251 2.6244-0.59997 3.9074z"/>
   <path d="m112.8 145.34c-1.1429 7.4543-4.9511 12.863-9.8392 12.59-5.1627-0.29122-9.687-7.6163-7.55-18.563l0.74854 4.4052c-0.62254 7.6672 3.4731 12.821 6.8677 13.011 3.5606 0.19419 6.7985-3.631 8.0724-9.1466z"/>
   <path d="m96.457 145.08c0.59568 5.0708 3.3647 8.8902 6.6455 9.2351 2.1871 0.23117 5.7393-1.9148 8.012-6.0195l-0.68447 2.7599c-1.7829 2.4614-4.8968 4.6633-7.4831 4.3882-3.6987-0.3909-7.1189-4.73-7.4452-11.329z"/>
   <path d="m107.5 153.33c-0.62703-1.3788-1.2839-2.403-2.1617-3.3096l0.91994-0.18888c0.97525 0.84692 1.6081 1.8161 2.0404 2.8546z"/>
   <path d="m68.789 195.37c0.50822 5.9698 1.6864 9.2044 2.2429 9.481 0.73796 0.36569 1.7757 0.21159 3.1863-0.49972l-0.03377 1.2863c-1.4619 0.67308-2.7571 0.79283-3.7375 0.30921-1.197-0.59388-2.5691-5.6171-2.9635-12.31z"/>
   <path d="m75.394 201.49c-1.7081 4.6428 0.0071 8.8222 1.5333 9.0043 1.1519 0.12609 4.0218-2.2568 4.5314-6.8512l1.1177 0.1687c-0.56834 5.0786-3.9417 7.9812-5.7901 7.7709-2.2308-0.26159-4.4081-5.3006-2.3909-10.653z"/>
   <path d="m82.6 203.82c0.02726 5.0832 2.2459 7.7698 3.4625 7.7132 1.0708-0.012 4.047-3.7222 2.3902-7.8871l1.1088-0.24125c1.6997 4.5197-1.4385 9.121-3.4536 9.2412-1.9935 0.0888-4.6462-3.1956-4.6417-8.9427z"/>
  </g>
  <path d="m105.53 169.89c-2.1674-4.3084-8.1564-9.6516-13.137-9.3-6.1161 0.43444-11.829 5.8262-12.091 7.1687-0.30297 1.5411 5.5721 11.411 11.953 12.202 4.8912 0.60363 9.7275-0.9458 13.073-5.2179 1.6308 3.9299 5.9867 7.6676 11.844 7.7513 5.4831 0.0791 11.182-4.6063 11.585-6.6876 0.29681-1.5094-5.2474-11.101-12.162-11.811-4.6672-0.47519-9.3994 2.681-11.065 5.8952" fill="#00ab84"/>
  <path d="m127.61 188.4c-1.7157-0.69156-4.0957 0.11648-5.3792 1.3946-0.087-2.3725-1.267-5.3134-2.9165-5.6928-3.0567-0.699-7.6683 1.8143-10.037 8.958-2.7844 8.3934-0.44255 12.931 2.949 13.767 4.8815 1.2109 7.8561-2.847 7.5798-4.1418-0.0839-0.36939-1.5133-1.3105-3.5126-1.8808 1.0345-1.9417 3.4267-3.8722 5.893-5.1732 0.42809 1.5524 1.2125 3.2552 1.6981 3.5292 0.71749 0.4066 4.8181-1.3713 5.6812-4.9788 0.71931-2.9961-0.19934-5.083-1.9557-5.7818" fill="#f3994f"/>
  <path d="m80.467 167.58c6.5273 11.556 15.97 13.032 23.852 6.4238 0.88223-0.73638 1.3586-0.82373 1.9999 0.17079 4.311 6.6767 13.239 9.517 22.254 1.4526-1.4308 4.0067-6.8039 6.7678-11.509 6.8705-4.7048 0.10334-9.5939-3.0079-11.72-7.6864-4.1896 4.6777-8.4638 6.0125-13.291 5.152-7.9006-1.4029-11.755-10.263-11.585-12.383" fill="#009573"/>
  <g fill="#d28444">
   <path d="m114.31 190.05c1.3281 5.3996 4.5545 4.9822 7.5705 0.35195 0.24127 3.6448-3.5209 5.9637-5.1179 5.7974-1.5923-0.16483-2.7281-2.1838-2.4526-6.1493"/>
   <path d="m122.4 191.32c1.1707 5.9451 2.7326 7.6311 7.072 1.6042-0.3062 4.8424-4.081 6.598-5.3622 6.3019-1.0334-0.23942-2.3812-4.472-2.3775-6.8761z"/>
   <path d="m108.73 196.89c0.36196 7.8812 6.0147 9.7543 10.877 5.7781 0.0335 2.0271-2.9015 4.7817-6.3427 4.2833-4.5313-0.65828-6.0102-4.8131-4.5341-10.061"/>
   <path d="m116.32 196.11c-1.2855 1.3372-1.8992 2.7905-2.5233 4.1577 1.0465 0.15296 1.8172 0.33938 2.501 0.53628 0.72236-1.4946 3.4082-3.9867 5.8303-5.1342-0.18355-0.77575-0.42682-2.4065-0.40117-3.3233-1.1526 2.6094-3.6369 4.1634-5.4067 3.7635"/>
  </g>
  <g fill="#0f141b">
   <path d="m105.98 174.92c1.6731 3.3647 5.4115 6.8881 11.181 6.9715 5.1779 0.0738 10.673-4.3294 11.031-6.1637 0.20236-1.0338-4.4362-10.362-11.61-11.098-4.0917-0.41582-8.4171 2.0185-10.402 5.1702-0.50519 0.80823-0.8505 0.77124-1.3126-0.0266-2.2108-3.7968-7.6787-8.8926-12.421-8.5578-6.3028 0.45274-11.416 5.6655-11.61 6.6526-0.154 0.79371 4.0271 10.577 11.497 11.505 4.0956 0.5087 8.7087-0.46906 12.293-4.6595 0.53254-0.62493 0.89845-0.70754 1.3543 0.20653m11.18 8.2079c-6.0543-0.0884-10.196-3.7287-11.953-7.4048-3.664 4.3398-8.6204 5.3818-12.994 4.8428-8.2629-1.0258-12.84-11.324-12.536-12.865 0.32366-1.66 6.5419-7.2636 12.668-7.6978 4.8993-0.34623 10.695 4.4438 13.19 8.857 2.2759-3.5917 7.0284-5.8849 11.122-5.4657 7.6476 0.78322 13.056 10.662 12.696 12.504-0.48165 2.4571-6.8306 7.3009-12.194 7.229"/>
   <path d="m101.97 171.71c-1.2877-0.54465-2.8238-0.96815-4.1058-1.1274-1.759-0.21969-1.69-0.93684 0.08036-0.82668 1.3762 0.086 3.0484 0.43607 4.4241 0.98394 1.407 0.56307 0.88123 1.513-0.39816 0.97014"/>
   <path d="m114.11 173.42c-1.6735-0.41164-3.0729-0.58505-4.6736-0.68401-1.7587-0.10347-1.698-1.1579 0.0611-1.0597 1.5281 0.0835 3.2083 0.3984 4.8091 0.91212 1.5753 0.50521 1.2659 1.1896-0.19714 0.83152"/>
   <path d="m112.05 207.38c-3.8019-0.93873-6.2656-5.7126-3.35-14.497 2.335-7.0408 7.0715-10.146 10.749-9.2979 2.5293 0.57893 3.6828 5.0612 3.2735 7.5428-0.50279 3.0152-4.113 5.9696-6.1426 5.688-1.2708-0.18051-3.1887-3.0723-2.9334-6.1482 0.13523-1.6606 0.83078-1.6116 0.79088 0.0529-0.0618 2.6837 1.5975 4.9007 2.3216 5.0004 1.3812 0.19867 4.4067-2.1183 4.8413-4.74 0.31763-1.9115-0.68597-5.9622-2.4461-6.3663-2.7492-0.62991-7.1322 1.842-9.3719 8.5953-2.5062 7.5535-0.77768 12.228 2.6128 13.067 4.8412 1.1948 7.0546-2.8683 6.8784-3.4795-0.12019-0.4184-2.32-1.6615-5.0489-2.0101-1.6689-0.21658-1.5886-0.90291 0.0898-0.79049 3.1302 0.20926 5.85 1.6755 6.0462 2.5725 0.42169 1.9526-3.2923 6.0481-8.3104 4.81"/>
   <path d="m122.17 189.1c1.3894-1.222 3.8346-1.9296 5.6434-1.2067 2.1602 0.86428 2.989 3.3541 2.2642 6.3818-0.99402 4.1305-5.5432 5.9208-6.4713 5.3987-0.98178-0.55627-2.1626-3.9016-2.1209-5.9958 0.0315-1.6266 0.65044-1.6184 0.76967 3e-3 0.1443 1.9518 1.2748 4.6975 1.8946 5.0086 0.42035 0.20747 3.9886-1.1654 4.8139-4.6224 0.63058-2.6191-0.0189-4.5584-1.5654-5.1755-1.5202-0.60796-3.9329 0.16383-5.1332 1.5967z"/>
   <path d="m122.33 196.09c-2.4936 1.3457-4.4865 3.0995-5.5215 4.8493l-1.047-0.25292c1.1792-2.3127 3.8846-4.3573 6.2976-5.5418z"/>
  </g>
 </g>
</svg>
