<?xml version="1.0" encoding="UTF-8"?>
<!-- Created with Inkscape (http://www.inkscape.org/) -->
<svg version="1.1" viewBox="0 0 462.99 321.3" xmlns="http://www.w3.org/2000/svg" xmlns:cc="http://creativecommons.org/ns#" xmlns:dc="http://purl.org/dc/elements/1.1/" xmlns:rdf="http://www.w3.org/1999/02/22-rdf-syntax-ns#">
 <metadata>
  <rdf:RDF>
   <cc:Work rdf:about="">
    <dc:format>image/svg+xml</dc:format>
    <dc:type rdf:resource="http://purl.org/dc/dcmitype/StillImage"/>
   </cc:Work>
  </rdf:RDF>
 </metadata>
 <g transform="translate(-323.7 -429.26)">
  <g transform="matrix(5.6737 0 0 -5.6737 754.59 549.68)">
   <path d="m0 0c4.162 3.649 6.758 9.822 4.509 11.458-1.228 0.893-4.804-0.113-7.05-1.425 3.329 4.752 3.083 9.904 1.888 10.637-3.189 1.956-14.402-6.362-17.727-15.149-5.304 8.394-15.133 12.25-24.783 8.331-9.933-4.033-14.358-11.205-12.521-20.129-1.723 2.333-4.774 4.584-7.17 5.573-4.479 1.847-9.963 2.133-11.236-0.026-1.052-1.784 1.629-6.536 5.432-8.564-2.589-0.575-7.081-2.513-6.951-4.849 0.143-2.561 6.811-4.117 9.912-4.112-0.908-0.909-2.457-2.743-2.314-3.792 0.254-1.858 6.251-3.337 10.496-2.09 2.225 0.653 5.642 3.301 6.378 5.047 1.68-2.797 3.781-5.17 5.928-5.848 0 0.429 0.317 0.949 0.542 1.017 0.046 1.333-0.859 4.045-1.943 5.378l0.073 0.022c-0.21 0.245-0.379 0.495-0.482 0.74 0.129 1.94 2.14 4.629 3.738 5.301 2.014 0.848 4.583 0.021 5.829-1.288 0.296 2.851 2.232 4.281 3.886 4.667 2.144 0.5 5.702 0.19 7.56-1.858-0.11-0.55-0.269-1.066-0.461-1.555 0.873-3.29 1.887-4.863 3.448-4.561 0.647 0.125 1.354 1.328 1.689 3.054 0.163-2.225 1.236-3.688 2.218-3.645 0.635 0.028 1.182 0.873 1.573 1.917l2e-3 -1e-3c-0.057-0.456-0.199-2.224 0.342-2.253 0.91-0.048 2.274 4.218 2.72 6.227l0.013-1e-3c10.038-3.987 19.774 7.318 19.284 10.487-0.22 1.427-3.058 1.719-4.822 1.29" fill="#f8d6b5"/>
  </g>
  <g transform="matrix(5.6737 0 0 -5.6737 487.82 650.94)">
   <path d="m0 0c0.129 1.94 2.14 4.628 3.738 5.301 2.014 0.848 4.583 0.021 5.829-1.288 0.296 2.851 2.232 4.281 3.886 4.667 2.143 0.5 5.702 0.19 7.56-1.858-0.676-3.38-3.062-5.66-5.322-6.294-1.841-0.516-4.049-0.079-5.343 1.119-0.802-1.943-1.818-3.511-3.928-4.16-2.718-0.837-5.759 0.949-6.42 2.513" fill="#08aa83"/>
  </g>
  <g transform="matrix(5.6737 0 0 -5.6737 507.1 498.19)">
   <path d="m0 0c1.782 3.135 6.156 4.694 9.104 4.694 5.081 0 10.517-4.762 10.517-10.179 0-5.914-4.371-11.193-11.109-11.193-1.858 0-3.396 0.387-4.14 0.681-0.317 0.124-0.655 0.016-0.903-0.301-1.836-2.358-4.594-4.586-7.586-4.586-3.611 0-7.328 4.417-7.328 9.485 0 6.333 3.304 9.325 6.272 10.623 1.014 0.444 2.861 0.368 3.817 0.177 0.528-0.106 1.017 2e-3 1.356 0.599" fill="#fff"/>
  </g>
  <g transform="matrix(5.6737 0 0 -5.6737 539.18 713.21)">
   <path d="m0 0c-0.451 0.366-1.436 0.422-1.802-0.141-0.545-0.838 1.098-3.21 2.567-3.183 0.733 0.013 2.034 0.952 2.163 1.924 0.449 3.4-4.27 8.868-6.34 8.447-0.917-0.187-1.521-1.191-1.375-2.016-2.034 0.422-2.244-0.518-2.382-1.209-0.127-0.641 0.402-2.815 1.888-3.335 1.099-0.385 1.873 0.02 1.705 2.047 0.535-0.704 1.689-1.267 2.14-0.591 0.422-0.281 1.408-1.211 1.436-1.943" fill="#f19750"/>
  </g>
  <g transform="matrix(5.6737 0 0 -5.6737 501.01 685.88)">
   <path d="m0 0c-1e-3 -2e-3 -3e-3 -3e-3 -5e-3 -4e-3 6e-3 3e-3 6e-3 4e-3 5e-3 4e-3" fill="#fff"/>
  </g>
  <g transform="matrix(5.6737 0 0 -5.6737 657.03 652.2)">
   <path d="m0 0c-0.542 0.029-0.399 1.797-0.342 2.253h-2e-3c-0.391-1.043-0.938-1.888-1.574-1.916-0.982-0.043-2.054 1.42-2.217 3.645-0.336-1.726-1.043-2.929-1.689-3.054-1.562-0.302-2.575 1.271-3.448 4.561-0.992-2.519-2.969-4.208-4.861-4.739-1.841-0.516-4.049-0.079-5.343 1.12-0.802-1.943-1.818-3.512-3.928-4.161-2.292-0.705-4.808 0.455-5.939 1.773l-0.073-0.022c1.085-1.333 1.956-4.064 1.912-5.398 2e-3 1e-3 4e-3 1e-3 4e-3 1e-3 0.316 0.298 0.873 0.438 1.943 0.216-0.147 0.824 0.458 1.829 1.374 2.015 1.814 0.369 5.658-3.78 6.283-7.1 1.795 0.082 4 1.206 4.473 1.914 2.503-0.976 5.168-0.787 7.238 0.734 2.925 2.148 5.623 5.336 6.308 8.178-0.04-0.013-0.08-0.022-0.119-0.02" fill="#fff"/>
  </g>
  <g transform="matrix(5.6737 0 0 -5.6737 518.89 698.83)">
   <path d="m0 0c0.084-0.338 0.112-1.098 0-1.38 0.253-0.197 1.831-1.013 2.225-1.07 0.309 0.141 0.873 0.141 1.351-0.084 0.085 0.479-0.732 1.746-1.436 1.943-0.451-0.451-1.437-0.254-2.14 0.591" fill="#dbdcdb"/>
  </g>
  <g transform="matrix(5.6737 0 0 -5.6737 500.98 685.9)">
   <path d="m0 0v2e-3c-5e-3 -2e-3 -9e-3 -5e-3 0-2e-3" fill="#fff"/>
  </g>
  <g transform="matrix(5.6737 0 0 -5.6737 566.38 710.74)">
   <path d="m0 0c0.922 0.238 2.08 0.91 2.55 1.427 0.819-0.462 3.699-0.91 4.776-0.392 0.293-0.434 1.288-1.111 1.971-0.923 0.965 0.265 1.482 2.071 1.594 3.145 1.175-1.411-0.21-9.199-2.195-9.981-1.878-0.741-7.868 4.881-8.696 6.724" fill="#08aa83"/>
  </g>
  <g transform="matrix(5.6737 0 0 -5.6737 645.06 546.35)">
   <path d="m0 0c-0.05 0.478 0.076 2.212 0.252 2.614 2.412 3.82 9.299 8.319 12.289 7.64 0.565-1.582-0.251-5.504-1.809-7.891 2.328 1.538 6.111 1.888 7.791 0.578-0.234-2.685-2.853-6.184-4.323-6.886 0.779-0.076 3.92-1.156 3.996-1.609-0.377-3.619-7.993-8.545-13.27-6.886-0.24 0.075-0.083 0.011-0.083 0.011l0.058 0.316c0.653 0.025 3.418 1.885 3.368 2.915-0.036 0.73-2.363 1.181-2.865 1.206 0.879 0.478 2.739 2.891 2.588 3.569-1.157 1.057-4.113 0.929-5.177 0.679 0.955 1.256 1.734 4.976 1.257 5.479-1.157 0.201-3.091-0.504-4.072-1.735" fill="#08aa83"/>
  </g>
  <g transform="matrix(5.6737 0 0 -5.6737 439.29 589.73)">
   <path d="m0 0c-1.801 2.371-7.856 4.086-10.902 2.393-0.241-2.291 3.062-6.002 4.587-6.205-1.913-0.462-5.511-2.564-6.094-3.612 0.859-2.7 6.791-2.995 7.601-2.659-1.142-0.747-3.095-2.73-3.324-3.878 5.185-2.836 10.033-1.642 12.566 1.863l-0.201 0.685c-0.665-0.243-2.814 0.355-2.947 0.644 0.111 0.398 0.509 1.595 1.13 1.905-0.731-0.044-2.792 0.886-3.236 1.751 0.134 0.664 1.574 1.396 1.973 1.462-0.931 0.333-2.682 2.505-2.682 2.881 0.178 0.487 1.396 0.82 2.15 0.532-0.266 0.576-0.577 1.662-0.621 2.238" fill="#08aa83"/>
  </g>
  <g transform="matrix(5.6737 0 0 -5.6737 550.2 499.44)">
   <path d="m0 0c1.695 0.636 3.332-1.461 3.914-3.154 0.744-2.162 0.549-4.645-0.957-5.237-1.591-0.625-3.284 1.463-3.867 3.21-0.605 1.81-0.459 4.668 0.91 5.181" fill="#3e3b3a"/>
  </g>
  <g transform="matrix(5.6737 0 0 -5.6737 556.17 515.68)">
   <path d="m0 0c0.526 0.221 1.12-0.417 1.324-1.169 0.206-0.758 0.127-1.623-0.351-1.777-0.604-0.194-1.079 0.514-1.273 1.206-0.193 0.689-0.183 1.537 0.3 1.74" fill="#fff"/>
  </g>
  <g transform="matrix(5.6737 0 0 -5.6737 473.13 532.85)">
   <path d="m0 0c1.573 0.483 2.839-1.454 3.377-3.61 0.392-1.563 0.25-4.131-1.191-4.64-1.468-0.52-2.922 1.911-3.314 3.478-0.409 1.644-0.326 4.325 1.128 4.772" fill="#3e3b3a"/>
  </g>
  <g transform="matrix(5.6737 0 0 -5.6737 476.88 547.62)">
   <path d="m0 0c0.387 0.131 0.86-0.392 1.082-1.162 0.128-0.443 0.257-1.497-0.311-1.667-0.413-0.124-0.865 0.522-1.046 1.136-0.159 0.541-0.249 1.516 0.275 1.693" fill="#fff"/>
  </g>
  <g transform="matrix(5.6737 0 0 -5.6737 538.4 556.38)">
   <path d="m0 0c-0.492-1.442-1.504-3.78-2.415-4.236-0.706-0.353-3.166 0.752-3.846 1.331 1.473-1.74 3.379-2.918 4.706-2.108 1.184 0.723 1.882 2.333 1.555 5.013" fill="#f19750"/>
  </g>
  <g transform="matrix(5.6737 0 0 -5.6737 502.18 571.82)">
   <path d="m0 0c0.593 2.885 2.207 3.217 3.54 2.987-1.247-0.88-2.139-2.077-1.965-3.99z" fill="#91341e"/>
  </g>
  <g transform="matrix(5.6737 0 0 -5.6737 522.26 554.87)">
   <path d="m0 0c0.368 0.041 1.841 0 2.619-0.512-0.097-0.776-1.466-3.951-2.189-3.99-0.989-0.052-1.818 0.157-2.395 0.512-0.224 1.534 0.451 2.967 1.965 3.99" fill="#eb8498"/>
  </g>
  <g transform="matrix(5.6737 0 0 -5.6737 511.02 571.95)">
   <path d="M 0,0 C 0.716,0.682 1.964,1.296 4.214,1.282 4.424,1.804 4.571,2.262 4.6,2.498 3.823,3.009 2.35,3.05 1.982,3.009 0.797,2.208 0.127,1.156 0,0" fill="#ce7486"/>
  </g>
  <g transform="matrix(5.6737 0 0 -5.6737 334.72 553.35)">
   <path d="m0 0c0-1.414 2.91-6.902 6.098-8.926-4.795 2.134-7.096 6.477-6.098 8.926" fill="#d6ba9d"/>
  </g>
  <g transform="matrix(5.6737 0 0 -5.6737 326.39 626.49)">
   <path d="M 0,0 C -1.33,-2.661 5.627,-5.073 10.423,-4.657 7.54,-4.269 0.555,-2.495 0,0" fill="#d6ba9d"/>
  </g>
  <g transform="matrix(5.6737 0 0 -5.6737 434.99 677)">
   <path d="m0 0c-1.817-1.409-7.623-2.038-11.315-0.298 1.398-1.501 6.429-2.485 10.129-1.399 1.399 0.411 3.27 1.611 4.649 2.879-1.066-0.761-2.508-0.983-3.463-1.182" fill="#d6ba9d"/>
  </g>
  <g transform="matrix(5.6737 0 0 -5.6737 459.02 654.7)">
   <path d="m0 0c-0.991-1.575-2.488-2.981-4.265-3.943 2.148 0.394 3.969 1.562 5.223 3.297l-0.201 0.685c-0.173-0.063-0.446-0.069-0.757-0.039" fill="#009374"/>
  </g>
  <g transform="matrix(5.6737 0 0 -5.6737 489.11 653.26)">
   <path d="m0 0c0.963-1.444 3.708-2.868 6.191-2.104 2.11 0.649 3.126 2.217 3.928 4.16 1.295-1.198 3.502-1.635 5.343-1.119 2.26 0.634 4.646 2.915 5.322 6.294l-2e-3 1e-3c-0.846-1.782-2.764-4.189-4.502-5.147-1.466-0.809-4.387-0.595-5.821 0.361-0.622 0.414-0.897 0.13-0.997-0.305-0.292-1.259-1.735-3.092-3.715-3.521-1.405-0.305-3.876 0.04-5.747 1.38" fill="#009374"/>
  </g>
  <g transform="matrix(5.6737 0 0 -5.6737 489.01 654.57)">
   <path d="m0 0c0.732-2.59 1.352-5.406-0.844-5.068 0.676-0.732 2.165-1.424 2.518-1.444-0.17 0.401 0.257 0.934 0.491 1.009 0.073 2.062-1.791 5.334-2.165 5.503" fill="#d6ba9d"/>
  </g>
  <g transform="matrix(5.6737 0 0 -5.6737 633.83 630.29)">
   <path d="m0 0c4e-3 5e-3 7e-3 0.01 0 0-8e-3 -0.011-4e-3 -5e-3 0 0 0.215-2.101 1.223-3.5 2.172-3.457 0.498 0.022 0.941 0.549 1.298 1.278-1.368 0.167-2.843 1.015-3.47 2.179" fill="#d6ba9d"/>
  </g>
  <g transform="matrix(5.6737 0 0 -5.6737 633.16 631.13)">
   <path d="m0 0c-1.97-2.435-4.257 0.058-5.054 1.8 0.871-3.26 1.882-4.819 3.437-4.519 0.604 0.117 1.26 1.174 1.617 2.719" fill="#d6ba9d"/>
  </g>
  <g transform="matrix(5.6737 0 0 -5.6737 654.79 642.75)">
   <path d="m0 0c-0.03-0.682 0.01-1.578 0.395-1.598 0.423-0.023 0.944 0.888 1.425 2.071-0.499-0.376-1.141-0.517-1.82-0.473" fill="#d6ba9d"/>
  </g>
  <g transform="matrix(5.6737 0 0 -5.6737 750.55 433.06)">
   <path d="m0 0c0.744-1.571-0.772-8.6-2.371-11.164 2.756 2.619 4.654 10.289 2.371 11.164" fill="#d6ba9d"/>
  </g>
  <g transform="matrix(5.6737 0 0 -5.6737 779.64 484.68)">
   <path d="m0 0c1.303-1.498-3.075-10.595-4.631-11.633 3.335 2.178 7.593 10.152 4.631 11.633" fill="#d6ba9d"/>
  </g>
  <g transform="matrix(5.6737 0 0 -5.6737 672.53 616.87)">
   <path d="M 0,0 0.003,0.013 C -0.111,0.046 0,0 0,0" fill="#d6ba9d"/>
  </g>
  <g transform="matrix(5.6737 0 0 -5.6737 727.78 604.4)">
   <path d="m0 0c-2.985-1.339-6.114-1.989-8.701-1.462-1.107-0.372-1.034-0.722-1.034-0.722 3.971-0.795 6.97 0.263 9.735 2.184" fill="#009374"/>
  </g>
  <g transform="matrix(5.6737 0 0 -5.6737 727.76 604.42)">
   <path d="M 0,0 C -2.612,-1.815 -6.179,-3.027 -9.14,-2.345 0.286,-5.536 9.27,4.387 9.559,7.941 7.749,4.837 4.005,1.798 0,0" fill="#d6ba9d"/>
  </g>
  <g transform="matrix(5.6737 0 0 -5.6737 531.49 689.17)">
   <path d="m0 0c-0.136-1.453-1.544-1.758-2.728-1.167-0.172-1.075-2.056-1.576-2.985-0.281 0.169-1.155 1.756-3.007 3.154-2.309 0.394 0.197 0.479 1.605 0.338 2.055 0.535-0.563 1.689-1.126 2.14-0.591 0.366-0.169 1.38-1.182 1.437-1.943 0.168 0.057 0.76-0.225 1.097-0.506 0.085 0.731-0.651 3.306-2.453 4.742" fill="#d08244"/>
  </g>
  <g transform="matrix(5.6737 0 0 -5.6737 529.75 718.48)">
   <path d="m0 0c0.31-0.648 2.703-1.915 4.168-1.126-0.535-0.789-1.267-1.38-2.168-1.212-0.901 0.17-1.831 0.986-2 2.338" fill="#d08244"/>
  </g>
  <g transform="matrix(5.6737 0 0 -5.6737 620.5 709.21)">
   <path d="m0 0c0-0.732-0.141-6.476-2.506-6.476-2.196 0.563-6.646 4.9-6.899 6.194 0.676 0.282 2.074 0.991 2.416 1.439 1.836-0.706 4.137-0.739 4.776-0.392 0.299-0.54 1.227-1.216 2.213-0.765" fill="#009374"/>
  </g>
  <g transform="matrix(5.6737 0 0 -5.6737 543.92 690.59)">
   <path d="m0 0c2.301-0.895 3.301 0.868 4.233 1.111 1.622 0.423 2.656-1.193 7.074 0.187 1.057 0.33 5.005 0.967 6.92 5.782 0.282 0.085 0.91 0.591 1.313 1.351 0.01-0.45 0.039-1.745 0.461-1.773-0.704-2.844-4.284-6.546-4.955-7.096-1.718-1.408-4.055-2.985-8.538-1.687-1.712-1.269-3.064-1.861-4.303-1.889-0.337 0.957-0.46 2.437-2.205 4.014" fill="#dbdcdb"/>
  </g>
  <g transform="matrix(5.6737 0 0 -5.6737 441.57 602.89)">
   <path d="m0 0c-3.549 10.058 0.827 19.017 11.831 23.485 8.847 3.593 18.873 1.105 24.968-8.187 0.087-0.132-0.186-0.694-0.274-0.563-6.199 9.157-15.552 11.692-24.429 8.087-11.18-4.54-14.884-13.093-11.645-22.695 0.05-0.151-0.41-0.245-0.451-0.127" fill="#12161c"/>
  </g>
  <g transform="matrix(5.6737 0 0 -5.6737 643.39 547.1)">
   <path d="m0 0c-0.072 4.271 2.323 8.633 4.416 11.342 4.283 5.546 11.885 10.868 14.809 9.072 1.614-0.99 1.15-6.81-2.253-11.424-0.516-0.697-0.88-0.43-0.375 0.248 3.333 4.487 3.33 9.903 2.204 10.595-3.429 2.1-18.105-9.348-18.315-19.373-2e-3 -0.126-0.483-0.617-0.486-0.46" fill="#12161c"/>
  </g>
  <g transform="matrix(5.6737 0 0 -5.6737 753.07 549.7)">
   <path d="m0 0c4.37 3.782 6.432 9.793 4.591 11.133-1.071 0.779-4.315-0.05-6.796-1.379-0.141-0.075 0.208 0.65 0.434 0.764 2.075 1.045 5.382 2.171 6.76 1.168 2.388-1.736-0.017-7.958-4.688-12.017-0.704-0.611-0.991-0.265-0.301 0.331" fill="#12161c"/>
  </g>
  <g transform="matrix(5.6737 0 0 -5.6737 672.7 618.4)">
   <path d="m0 0c-0.047 0.018 0.117 0.462 0.137 0.454 9.628-3.759 19.227 7.202 18.778 10.235-0.173 1.167-2.777 1.609-4.379 1.219-0.155-0.037 0.183 0.47 0.396 0.506 2.009 0.341 4.578-0.143 4.811-1.641 0.515-3.34-9.312-14.764-19.743-10.773" fill="#12161c"/>
  </g>
  <g transform="matrix(5.6737 0 0 -5.6737 672.18 592.34)">
   <path d="m0 0c0.882 0.495 2.616 2.279 2.905 3.553-1.592 0.815-3.462 0.886-4.767 0.545-0.679-0.177-0.608 0.051-0.305 0.432 0.521 0.655 1.46 3.308 1.225 5.095-1.361-0.107-3.072-0.669-3.942-2.059-0.427-0.685-0.773-0.446-0.339 0.246 1.044 1.664 2.958 2.346 4.51 2.402 0.142 3e-3 0.264-0.092 0.292-0.229 0.335-1.601-0.42-4.055-1.061-5.291 1.429 0.213 3.413 0.142 4.92-0.702 0.1-0.056 0.158-0.167 0.145-0.282-0.166-1.525-2.342-3.57-3.404-4.142-0.612-0.33-0.778 0.097-0.179 0.432" fill="#12161c"/>
  </g>
  <g transform="matrix(5.6737 0 0 -5.6737 677.38 590.77)">
   <path d="m0 0c-0.185 0.015-0.626-0.483-0.469-0.469 1.044 0.085 2.738-0.586 2.784-0.938 0.046-0.351-1.883-2.47-3.088-2.577-0.127-0.011-0.232-0.106-0.256-0.232-0.502-2.634-2.023-6.5-2.495-6.332-0.194 0.069-0.256 1.231-0.147 2.098 0.02 0.157-0.508-0.382-0.538-0.84-0.074-1.095 0.118-1.879 0.633-1.879 1.221 1e-3 2.626 5.05 2.979 6.736 1.391 0.292 3.53 2.104 3.487 3.088-0.028 0.615-1.283 1.214-2.89 1.345" fill="#12161c"/>
  </g>
  <g transform="matrix(5.6737 0 0 -5.6737 604.05 623.82)">
   <path d="m0 0c-0.036 0.191 0.309 0.969 0.33 0.812 0.356-2.596 1.641-4.81 3.097-4.57 0.847 0.14 1.689 2.852 1.783 4.281 0.06 0.914 0.451 0.984 0.412 8e-3 -0.067-1.712-0.776-4.654-2.025-4.921-1.503-0.322-2.945 0.91-3.597 4.39" fill="#12161c"/>
  </g>
  <g transform="matrix(5.6737 0 0 -5.6737 632.55 634.65)">
   <path d="m0 0c-0.083 0.375 0.385 1.264 0.38 1.105-0.036-1.295 0.954-3.593 1.999-3.531 0.798 0.035 1.751 2.036 1.987 3.876 0.103 0.794 0.498 0.763 0.383-0.062-0.22-1.59-0.937-4.404-2.332-4.466-0.974-0.049-1.946 0.961-2.417 3.078" fill="#12161c"/>
  </g>
  <g transform="matrix(5.6737 0 0 -5.6737 717.94 487.45)">
   <path d="m0 0c-0.056 0.188-0.206 0.244-0.319 0.252-3.506 0.258-9.251-3.569-12.049-7.348-0.23-0.31-0.232-1.262-0.155-1.123 2.238 4.071 8.724 7.934 11.917 7.826 0.728-2.413-1.055-6.961-2.564-8.295-0.599-0.53-0.338-0.912 0.274-0.403 1.769 1.475 3.734 6.243 2.896 9.091" fill="#12161c"/>
  </g>
  <g transform="matrix(5.6737 0 0 -5.6737 718.3 571.42)">
   <path d="m0 0c3.741 1.667 5.677 6.925 5.335 7.254-1.011 0.973-5.07 1.196-8.008-1.214-0.122-0.101 0.337 0.856 0.704 1.076 2.522 1.509 6.193 1.856 7.699 0.55 0.814-0.706-1.644-6.4-5.553-8.041-0.59-0.248-0.758 0.116-0.177 0.375" fill="#12161c"/>
  </g>
  <g transform="matrix(5.6737 0 0 -5.6737 672.74 618.15)">
   <path d="m0 0c-0.029 7e-3 0.068 0.457 0.099 0.451 2.923-0.676 6.378 0.136 9.261 2.068 2.185 1.465 3.79 4.042 3.635 4.597-0.093 0.329-2.99 1.295-3.839 1.324-0.159 6e-3 0.274 0.393 0.43 0.368 1.089-0.173 3.834-0.841 3.987-1.599 0.178-0.891-1.098-3.261-3.89-5.165-2.801-1.91-6.519-2.779-9.683-2.044" fill="#12161c"/>
  </g>
  <g transform="matrix(5.6737 0 0 -5.6737 489.31 650.64)">
   <path d="m0 0c0.793-1.707 3.946-2.902 6.077-2.248 2.111 0.65 3.052 2.23 3.751 3.921 0.122 0.296 0.217 0.326 0.46 0.102 1.281-1.186 3.611-1.362 5.09-0.948 2.029 0.569 4.343 2.544 5.059 5.854-1.491 1.536-4.902 2.305-7.164 1.608-1.559-0.48-3.405-1.667-3.684-4.359-0.048-0.454-0.239-0.436-0.495-0.168-1.349 1.418-3.874 1.836-5.472 1.169-1.573-0.656-3.454-3.054-3.622-4.931m-0.512-0.164c-0.019 0.041-0.025 0.087-0.022 0.131 0.141 2.123 2.201 4.95 3.903 5.64 1.716 0.697 4.077 0.234 5.764-1.148 0.486 2.627 2.336 4.109 3.992 4.548 2.147 0.57 5.838 0.048 7.837-2.045 0.063-0.066 0.087-0.16 0.069-0.25-0.727-3.633-3.201-5.936-5.428-6.56-1.774-0.499-3.747-0.267-5.413 1.01-0.739-1.693-1.772-3.389-3.957-4.053-2.42-0.736-5.763 0.59-6.745 2.727" fill="#12161c"/>
  </g>
  <g transform="matrix(5.6737 0 0 -5.6737 447.34 623.74)">
   <path d="m0 0c-1.156 0.582-3.491 2.466-3.187 3.379 0.146 0.437 1.25 0.927 2.394 0.577 0.367-0.112 0.314-0.522-0.057-0.422-0.887 0.239-1.591-0.099-1.689-0.38-0.092-0.265 1.494-2.095 2.714-2.715 0.503-0.258 0.329-0.693-0.175-0.439" fill="#12161c"/>
  </g>
  <g transform="matrix(5.6737 0 0 -5.6737 453.22 641.26)">
   <path d="m0 0c-1.008 0.095-2.883 0.75-3.524 1.799-0.046 0.075-0.055 0.168-0.023 0.251 0.241 0.634 1.122 1.226 2.005 1.514 0.112 0.036 0.578-0.305 0.423-0.338-0.741-0.159-1.552-0.755-1.83-1.251 0.598-0.787 2.182-1.454 2.991-1.526 0.604-0.054 0.559-0.507-0.042-0.449" fill="#12161c"/>
  </g>
  <g transform="matrix(5.6737 0 0 -5.6737 366.8 675.44)">
   <path d="m0 0c-0.177 1.296 1.411 2.999 2.171 3.694 0.14 0.128 0.811 0.037 0.68-0.054-0.458-0.317-2.342-2.359-2.182-3.532 0.201-1.476 6.017-3.07 10.083-1.87 2.405 0.709 5.519 3.264 6.241 4.979 0.063 0.147 0.406-0.424 0.363-0.506-0.937-1.782-4.112-4.319-6.449-4.999-4.06-1.181-10.59-0.032-10.907 2.288" fill="#12161c"/>
  </g>
  <g transform="matrix(5.6737 0 0 -5.6737 413.62 615.06)">
   <path d="m0 0c-3.566 0.17-6.778 4.05-6.795 6.866-1e-3 0.111 0.064 0.212 0.163 0.26 2.536 1.217 7.787 0.878 10.908-2.193 0.144-0.141 0.288-0.993 0.184-0.875-2.811 3.209-8.025 3.694-10.574 2.592 0.124-2.344 2.986-6.025 6.167-6.199 0.924-0.052 0.822-0.493-0.053-0.451" fill="#12161c"/>
  </g>
  <g transform="matrix(5.6737 0 0 -5.6737 367.14 632.8)">
   <path d="m0 0c-0.015 0.052-0.014 0.108 2e-3 0.159 0.339 1.131 4.047 3.075 5.997 3.613 0.211 0.058 0.828-0.293 0.67-0.313-1.676-0.215-5.635-2.459-6.088-3.391 0.663-1.847 5.709-3.238 8.572-1.891 0.605 0.284 0.804-0.133 0.165-0.413-3.277-1.44-8.699 0-9.318 2.236" fill="#12161c"/>
  </g>
  <g transform="matrix(5.6737 0 0 -5.6737 392.42 670.78)">
   <path d="m0 0c-0.089 0.055-0.141 0.154-0.136 0.259 0.062 1.202 1.862 2.867 3.041 3.736 0.254 0.188 1.165 0.218 1.026 0.141-1.079-0.594-3.211-2.539-3.47-3.743 4.123-2.429 10.056-1.554 12.024 2.026 0.078 0.138 0.295-0.388 0.257-0.451-2.266-3.794-8.391-4.658-12.742-1.968" fill="#12161c"/>
  </g>
  <g transform="matrix(5.6737 0 0 -5.6737 367.35 605.33)">
   <path d="m0 0c-4.694 2.15-7.233 7.3-6.124 9.18 1.398 2.371 7.16 1.967 11.63 0.123 2.52-1.039 5.377-3.201 6.85-5.08 0.166-0.212 0.203-1.16 0.119-1.026-1.198 1.895-4.524 4.477-7.188 5.575-4.685 1.933-9.707 1.967-10.817 0.085-0.988-1.675 1.841-6.649 5.66-8.425 0.585-0.272 0.448-0.697-0.13-0.432" fill="#12161c"/>
  </g>
  <g transform="matrix(5.6737 0 0 -5.6737 381.71 654.92)">
   <path d="m0 0c-3.92-1e-3 -10.065 1.505-10.222 4.312-0.148 2.669 4.699 4.542 6.848 5.001 0.175 0.037 0.719-0.39 0.562-0.41-1.783-0.234-6.861-2.176-6.729-4.537 0.138-2.483 6.86-3.852 9.59-3.85 1.208 1e-3 1.188-0.516-0.049-0.516" fill="#12161c"/>
  </g>
  <g transform="matrix(5.6737 0 0 -5.6737 478.32 503.83)">
   <path d="m0 0c-2.783-1.218-6.086-4.049-6.086-10.406 0-4.728 3.422-9.198 7.041-9.198 3.498 0 6.328 3.1 7.375 4.446 0.32 0.411 0.802 0.562 1.235 0.391 0.774-0.305 2.278-0.631 4.02-0.631 5.245 0 10.82 3.822 10.82 10.905 0 4.992-5.067 9.892-10.229 9.892-4.071 0-7.6-2.343-8.854-4.548-0.478-0.841-0.954-0.881-1.662-0.74-1.054 0.211-2.459 0.415-3.66-0.111m0.955-20.179c-3.915 0-7.616 4.75-7.616 9.773 0 3.013 0.822 8.47 6.445 10.886 1.296 0.557 2.745 0.444 3.989 0.195 0.489-0.097 0.81 0.04 1.049 0.46 1.787 3.143 6.152 4.839 9.354 4.839 5.453 0 10.804-5.184 10.804-10.467 0-6.544-4.899-11.48-11.395-11.48-1.82 0-3.378 0.399-4.237 0.738-0.2 0.077-0.408 0-0.572-0.211-1.099-1.412-4.07-4.733-7.821-4.733" fill="#12161c"/>
  </g>
  <g transform="matrix(5.6737 0 0 -5.6737 503.78 510.84)">
   <path d="m0 0c-2.407-0.954-2.104-5.969-1.259-8.508 0.868-2.604 3.954-5.105 5.37-4.432 2.778 1.316 1.618 6.144 1.2 7.579-0.937 3.227-3.672 6.011-5.311 5.361m-1.804-8.69c-0.881 2.647-1.32 8.07 1.592 9.224 1.91 0.758 4.827-1.543 6.075-5.734 0.46-1.543 1.655-6.665-1.534-8.177-1.513-0.716-5.011 1.32-6.133 4.687" fill="#12161c"/>
  </g>
  <g transform="matrix(5.6737 0 0 -5.6737 501.24 569.48)">
   <path d="m0 0c0.181 0.849 0.777 2.011 1.479 2.436 1.33 0.808 4.268 0.488 5.013-0.071 0.159-0.12-0.058-0.758-0.139-0.621-0.396 0.675-3.491 0.858-4.576 0.201-0.718-0.435-1.406-1.902-1.321-2.43 0.025-0.157-0.506 0.249-0.456 0.485" fill="#12161c"/>
  </g>
  <g transform="matrix(5.6737 0 0 -5.6737 509.65 557.17)">
   <path d="m0 0c-0.145 0.261-0.539 1.507-0.619 1.83-0.151 0.606 0.313 0.756 0.491 0.139 0.082-0.288 0.561-1.482 0.672-1.681 0.077-0.139-0.492-0.383-0.544-0.288" fill="#12161c"/>
  </g>
  <g transform="matrix(5.6737 0 0 -5.6737 522.21 582.26)">
   <path d="M 0,0 C -0.954,0 -2.313,0.68 -3.187,1.232 -3.334,1.324 -3.453,2.007 -3.325,1.913 -2.234,1.115 -0.191,0.331 0.397,0.648 1.079,1.016 2.37,3.566 2.37,4.364 2.37,4.523 2.83,4.052 2.783,3.857 2.504,2.682 1.469,0.574 0.67,0.142 0.488,0.043 0.258,0 0,0" fill="#12161c"/>
  </g>
  <g transform="matrix(5.6737 0 0 -5.6737 509.45 576)">
   <path d="M 0,0 C -0.092,1.391 0.631,2.813 1.78,3.57 2.012,3.723 2.792,3.621 2.647,3.556 1.208,2.907 0.312,1.304 0.545,-0.218 0.569,-0.375 0.007,-0.104 0,0" fill="#12161c"/>
  </g>
  <g transform="matrix(5.6737 0 0 -5.6737 550.78 500.97)">
   <path d="m0 0c-1.112-0.453-1.327-2.977-0.719-4.794 0.696-2.084 2.327-3.509 3.469-3.061 1.361 0.535 1.453 2.878 0.773 4.855-0.77 2.241-2.247 3.519-3.523 3m-1.276-4.99c-0.622 1.861-0.49 4.865 1.074 5.528 1.373 0.582 3.325-0.529 4.301-3.366 0.757-2.202 0.607-4.876-1.139-5.562-1.336-0.525-3.289 0.568-4.236 3.4" fill="#12161c"/>
  </g>
  <g transform="matrix(5.6737 0 0 -5.6737 473.61 534.41)">
   <path d="m0 0c-1.219-0.374-1.289-2.853-0.896-4.425 0.38-1.525 1.72-3.699 2.902-3.279 1.232 0.436 1.379 2.819 1.008 4.299-0.606 2.423-1.813 3.773-3.014 3.405m1.69-8.334c-1.462 0-2.81 2.182-3.204 3.761-0.44 1.764-0.301 4.617 1.345 5.122 1.252 0.384 2.936-0.597 3.741-3.814 0.416-1.665 0.267-4.401-1.374-4.981-0.165-0.059-0.336-0.088-0.508-0.088" fill="#12161c"/>
  </g>
  <g transform="matrix(5.6737 0 0 -5.6737 549.78 631.06)">
   <path d="m0 0c0.661 0.252 2.093 0.777 2.466 0.902 0.579 0.197 0.817-0.355 0.221-0.556-0.335-0.114-1.848-0.562-2.552-0.773-0.672-0.2-0.787 0.179-0.135 0.427" fill="#12161c"/>
  </g>
  <g transform="matrix(5.6737 0 0 -5.6737 519.89 640.35)">
   <path d="m0 0c0.796 0.326 1.984 0.672 2.781 0.84 0.691 0.145 0.804-0.244 0.137-0.431-0.771-0.218-1.906-0.727-2.676-1.07-0.615-0.274-0.884 0.398-0.242 0.661" fill="#12161c"/>
  </g>
  <g transform="matrix(5.6737 0 0 -5.6737 527.81 713.68)">
   <path d="m0 0c0.144 0.288 0.452 0.487 0.868 0.561 0.533 0.096 1.275-0.055 2.012-0.625 0.517-0.4 0.228-0.756-0.283-0.369-0.794 0.602-1.849 0.645-2.083 0.177-0.224-0.81 0.875-2.731 2.369-2.627 0.372 0.027 1.62 1.085 1.739 1.659 0.332 1.604-0.64 3.282-1.506 4.436-1.545 2.057-3.503 4.378-4.948 3.541-0.985-0.574-0.65-2.43 0.152-3.626 0.336-0.5 1.482-1.098 1.786-0.997 0.399 0.132 0.64 1.451 0.291 2.375-0.228 0.608 0.157 0.787 0.397 0.189 0.448-1.122 0.424-2.554-0.386-3.053-0.725-0.448-2.364 0.717-2.626 1.108-1.26 1.879-0.954 3.815 0.104 4.428 1.825 1.061 3.957-1.183 5.749-3.569 0.938-1.249 1.925-3.134 1.55-4.949-0.169-0.816-1.607-2.067-2.26-2.115-2.249-0.156-3.322 2.66-2.925 3.456" fill="#12161c"/>
  </g>
  <g transform="matrix(5.6737 0 0 -5.6737 538 711.69)">
   <path d="m0 0c-0.327 0.554-1.183 1.331-1.441 1.46-0.142 0.071 0.349 0.463 0.404 0.423 0.501-0.356 1.453-1.396 1.585-2.053 0.031-0.156-0.479 0.052-0.548 0.17" fill="#12161c"/>
  </g>
  <g transform="matrix(5.6737 0 0 -5.6737 505.1 709.65)">
   <path d="m0 0c-1.259 1.244-1.714 2.483-1.411 3.619 0.295 1.106 1.67 1.424 2.525 1.055 0.142-0.062 0.087-0.723-0.028-0.614-0.498 0.471-1.757 0.25-1.98-0.584-0.246-0.923 0.227-1.951 1.329-3.039 0.529-0.523 1.308-0.367 1.491-0.239 0.224 0.157 0.428 1.131 0.094 1.728-0.077 0.138 0.567-0.122 0.614-0.359 0.149-0.743 0.072-1.663-0.396-1.935-0.438-0.255-1.529-0.332-2.238 0.368" fill="#12161c"/>
  </g>
  <g transform="matrix(5.6737 0 0 -5.6737 499.8 685.75)">
   <path d="m0 0c0.114 1.625-1.191 3.983-2.06 5.511-0.243 0.428 0.771-0.619 0.945-0.798 0.741-1.353 1.571-2.909 1.611-4.422 3e-3 -0.135-0.507-0.449-0.496-0.291" fill="#12161c"/>
  </g>
  <g transform="matrix(5.6737 0 0 -5.6737 497.89 692.73)">
   <path d="m0 0c-2.537 0.496-5.45 4.304-6.316 6.516-1.01-0.128-2.193 0.04-2.939 0.599-0.08 0.06-0.123 0.158-0.114 0.257 0.059 0.618 0.545 1.36 1.094 1.874 0.094 0.087 0.662-0.024 0.534-0.116-0.496-0.354-0.912-1.117-1.03-1.652 0.676-0.435 1.674-0.654 2.516-0.494 0.134 0.027 0.268-0.047 0.319-0.172 0.683-1.658 3.87-5.884 6.032-6.323 0.155-0.032-0.077-0.493-0.096-0.489" fill="#12161c"/>
  </g>
  <g transform="matrix(5.6737 0 0 -5.6737 529.8 713.08)">
   <path d="m0 0c-0.606 0.174-1.443 0.514-1.902 0.789-0.087 0.051 0.028 0.691 0.15 0.59 0.357-0.293 1.664-0.94 2.205-1.001 0.158-0.018-0.287-0.426-0.453-0.378" fill="#12161c"/>
  </g>
  <g transform="matrix(5.6737 0 0 -5.6737 556.43 711.37)">
   <path d="m0 0c1.319 0.156 2.961 0.751 4.013 1.567 0.065 0.051 0.63-0.133 0.509-0.236-1.135-0.974-2.951-1.807-4.476-1.986-0.058-6e-3 -0.099 0.649-0.046 0.655" fill="#12161c"/>
  </g>
  <g transform="matrix(5.6737 0 0 -5.6737 574.42 700.33)">
   <path d="m0 0c-0.561 0.396-0.262 0.773 0.284 0.387 1.436-1.016 4.018-1.302 5.372-0.916 0.066 0.019 0.499-0.53 0.349-0.585-1.335-0.497-4.211-0.147-6.005 1.114" fill="#12161c"/>
  </g>
  <g transform="matrix(5.6737 0 0 -5.6737 628.74 690.5)">
   <path d="M 0,0 C 2.026,1.775 4.295,4.547 4.769,6.71 4.777,6.745 5.3,6.828 5.27,6.672 4.787,4.19 2.286,0.97 0.001,-0.91 -0.053,-0.954 -0.14,-0.122 0,0" fill="#12161c"/>
  </g>
  <g transform="matrix(5.6737 0 0 -5.6737 565.53 711.96)">
   <path d="m0 0c-0.078 0.138 0.45 0.317 0.529 0.179 1.088-1.913 6.546-7.001 8.28-6.279 1.674 0.701 2.735 6.595 2.266 9.188-0.015 0.086 0.407 0.467 0.444 0.311 0.591-2.462-0.31-9.219-2.446-10.112-1.92-0.805-7.461 3.881-9.073 6.713" fill="#12161c"/>
  </g>
  <g transform="matrix(5.6737 0 0 -5.6737 604.45 654.82)">
   <path d="m0 0c-0.074 1.21 0.861 2.62 2.198 2.254 1.338-0.367 2.218-2.694 2.108-6.084s-0.55-5.808-1.833-5.973c-1.282-0.165-2.4 1.539-2.51 2.437s0.074 2.474 0.751 2.602c-0.036 0.329-0.604 1.502-0.788 1.722-0.073-0.293-0.348-0.733-0.567-0.751-0.22-0.018-1.192 0.018-1.65 0.531s-1.154 1.924-0.989 2.657 0.568 1.613 1.228 1.631c0.659 0.019 1.667-0.586 2.052-1.026" fill="#f19750"/>
  </g>
  <g transform="matrix(5.6737 0 0 -5.6737 586.47 663.2)">
   <path d="m0 0c1.127-1.634 2.733-1.488 3.239 0.281 0.562-0.534 2.027-0.957 3.153 0.733-0.085-0.536-0.367-1.38-0.563-1.634 0.282-1.098 0.45-3.463 0.169-4.308-0.422 0.76-1.582 1.703-2.114 1.64-0.083 0.444-0.48 1.396-0.789 1.722-0.076-0.245-0.275-0.671-0.645-0.743-0.711-0.139-1.839 0.476-2.45 2.309" fill="#d08244"/>
  </g>
  <g transform="matrix(5.6737 0 0 -5.6737 605 695.47)">
   <path d="m0 0c0.169-0.648 2.76-2.618 3.632-1.239-0.478-2.196-2.759-1.83-3.632 1.239" fill="#d08244"/>
  </g>
  <g transform="matrix(5.6737 0 0 -5.6737 604.33 701.38)">
   <path d="m0 0c-0.606 1.243-0.29 3.239 0.413 3.678 0.673 0.423 2.1-0.533 2.955-2.53 0.235-0.548-0.2-0.716-0.434-0.189-0.456 1.03-1.786 2.376-2.163 2.143-0.396-0.247-0.766-1.799-0.254-2.85 0.443-0.909 1.342-1.736 2.133-1.493 0.902 0.277 1.39 2.983 1.39 5.393 0 4.799-1.225 6.218-2.457 6.061-0.704-0.092-1.368-0.992-1.263-2.436 0.084-1.139 1.017-2.228 1.471-2.181 0.342 0.029 0.947 1.059 1.124 1.794 0.185 0.765 0.633 0.754 0.453-0.057-0.202-0.904-0.793-2.335-1.529-2.398-0.646-0.059-1.983 1.309-2.092 2.801-0.131 1.799 0.78 2.832 1.752 2.958 1.691 0.221 3.116-1.34 3.116-6.542 0-0.552-0.023-5.414-1.766-5.95-0.965-0.298-2.131 0.326-2.849 1.798" fill="#12161c"/>
  </g>
  <g transform="matrix(5.6737 0 0 -5.6737 590.01 674.34)">
   <path d="m0 0c-0.761 0.742-1.095 2.333-1.02 2.889 0.114 0.847 0.623 1.552 1.255 1.818 0.526 0.22 1.562-0.148 2.182-0.799 0.132-0.139-1e-3 -0.885-0.075-0.745-0.371 0.701-1.559 1.149-1.884 1.014-0.51-0.215-0.811-0.847-0.883-1.378-0.06-0.445 0.297-1.743 0.888-2.318 0.495-0.483 1.211-0.616 1.364-0.543 0.273 0.13 0.798 1.518 0.798 1.969 0 0.159 0.43-0.331 0.372-0.568-0.175-0.73-0.582-1.805-0.963-1.941-0.435-0.156-1.469 0.051-2.034 0.602" fill="#12161c"/>
  </g>
  <g transform="matrix(5.6737 0 0 -5.6737 606.96 682.14)">
   <path d="m0 0c-0.051 0.26-0.346 0.986-0.56 1.421-0.08 0.163 0.152 0.639 0.245 0.511 0.211-0.292 0.777-1.489 0.863-1.759 0.048-0.151-0.523-0.3-0.548-0.173" fill="#12161c"/>
  </g>
 </g>
</svg>
