<?xml version="1.0" encoding="UTF-8"?>
<!-- Created with Inkscape (http://www.inkscape.org/) -->
<svg version="1.1" viewBox="0 0 293.26 279.55" xmlns="http://www.w3.org/2000/svg" xmlns:cc="http://creativecommons.org/ns#" xmlns:dc="http://purl.org/dc/elements/1.1/" xmlns:rdf="http://www.w3.org/1999/02/22-rdf-syntax-ns#">
 <defs>
  <clipPath id="clipPath13540-8-1">
   <path d="m800.16 653.48h85.039v45.354h-85.039z"/>
  </clipPath>
 </defs>
 <metadata>
  <rdf:RDF>
   <cc:Work rdf:about="">
    <dc:format>image/svg+xml</dc:format>
    <dc:type rdf:resource="http://purl.org/dc/dcmitype/StillImage"/>
   </cc:Work>
  </rdf:RDF>
 </metadata>
 <g transform="translate(-77.555 -359.17)">
  <g transform="matrix(15.857 0 0 -15.857 -12849 11123)">
   <g transform="translate(12.8 -.6)" clip-path="url(#clipPath13540-8-1)">
    <g transform="translate(813.69 662.16)">
     <path d="m0 0c-0.129-0.192-0.443-0.264-0.753-0.199h-2e-3l0.011-0.029c-0.3-0.1-0.854 0.028-0.952 0.452-0.072 0.299 0.173 0.747 0.471 0.902 0.14 9e-3 0.655 0.186 0.737 0.231 0.124 0 0.508 0.115 0.642 0.193-0.16-0.292-0.647-0.997-0.154-1.55" fill="#d28444"/>
    </g>
    <g transform="translate(816.23 665.72)">
     <path d="m0 0c0.509 0.059 0.83-0.165 0.866-0.752 0.018-0.287-0.041-0.946-0.322-0.929-0.172 0.012-0.135 0.284-0.293 0.447-0.126 0.129-0.408 0.085-0.723-0.134-0.253-0.176-0.475-0.445-0.523-0.765-0.037-0.245 0.258-0.641 0.586-0.735 0.133-0.039 0.144-0.107 0.078-0.215-0.226-0.367-0.848-0.508-1.23-0.436l7e-3 -0.013c-0.323-0.364-0.894-0.166-1.09 0.165-0.207 0.351-0.056 1.012 0.403 1.419 0.965 0.391 1.769 1.127 2.241 1.948" fill="#f3994f"/>
    </g>
    <g transform="translate(817.71 669.38)">
     <path d="m0 0c-0.115 0.117-0.57 0.803-0.687 0.957-0.233-0.047-2.553-0.395-2.989-0.403 0.25 0.166 0.508 0.403 0.531 0.579-0.302 0.372-1.329 0.699-2.021 0.259 0.104 0.113 0.502 0.766 0.417 0.901-0.235 0.364-1.694 0.058-2.2-0.327 0.269 0.536 0.283 1.228 0.166 1.423-0.354 0.271-1.626-0.196-1.942-1.287-0.104 1.503 0.114 3.433 1.47 4.955-2.071 0.572-5.77 0-6.761-3.071l0.085-0.026c0.093 0.353 0.479 0.936 0.915 1.006 0.881 0.147 1.454-1.371 1.686-3.368 0.125-1.077-0.012-2.921-0.936-3.115-0.291-0.061-0.924 0.228-1.138 0.466 0 0-0.055 0.269-0.075 0.38 0.112-0.706 0.357-1.651 0.627-2.286 0.123 0.35 0.567 0.645 0.856 0.704 0.609 0.121 1.619-0.102 1.857-0.543 0.059-0.106 0.069-0.309 0.071-0.52 0.303-0.491 0.919-0.998 1.429-0.798 0.478 0.187 0.474 1.219 0.352 1.661 0.447-0.684 1.266-1.134 1.64-0.932 0.506 0.274 0.463 1.269 0.411 1.742 0.609-0.657 1.395-1.157 1.898-0.805 0.457 0.32 0.324 1.303 0.053 1.761 0.512-0.784 1.056-0.928 1.335-0.841 0.28 0.087 0.3 0.794 0.048 1.368 0.252-0.355 0.742-0.675 0.994-0.489 0.193 0.142 0.213 0.448 0.125 0.739 0.549-0.388 1.445-0.389 1.783-0.09" fill="#fbd8b5"/>
    </g>
    <g transform="translate(804.31 668.33)">
     <path d="M 0,0 C 0.214,-0.237 0.848,-0.526 1.139,-0.466 2.063,-0.272 2.199,1.572 2.074,2.649 1.843,4.646 1.27,6.164 0.389,6.018 -0.048,5.947 -0.434,5.364 -0.526,5.012 -1.322,4.923 -1.852,3.27 -1.72,2.33 -1.533,0.98 -0.68,0.572 -0.078,0.402 -0.063,0.307 0,0 0,0" fill="#fff"/>
    </g>
    <g transform="translate(804.43 672.57)">
     <path d="m0 0c0.257 0.066 0.526-0.487 0.638-1.189 0.074-0.473 0.085-1.275-0.226-1.327-0.28-0.046-0.538 0.773-0.608 1.198-0.065 0.404-0.088 1.244 0.196 1.318" fill="#3e3a39"/>
    </g>
    <g transform="translate(804.54 671.76)">
     <path d="m0 0c0.127 0.024 0.196-0.253 0.223-0.421 0.01-0.071 0.048-0.442-0.077-0.476-0.121-0.033-0.205 0.318-0.216 0.384-0.012 0.065-0.071 0.485 0.07 0.513" fill="#fff"/>
    </g>
    <g transform="translate(804.32 668.71)">
     <path d="m0 0c0.124 0.238-0.076 1.417-0.15 1.568-0.062-0.12-0.801-0.828-0.959-0.958 0.177-0.197 0.574-0.529 1.109-0.61" fill="#f3994f"/>
    </g>
    <g transform="translate(804.99 665.39)">
     <path d="m0 0c0.309-0.584 1.15-1.034 1.658-0.777 0.754 0.378 1.17 1.171 0.932 1.965-0.305 0.438-1.503 0.731-1.987 0.537-0.632-0.254-1.068-0.858-0.603-1.725" fill="#00ab84"/>
    </g>
    <g transform="translate(815.87 669.55)">
     <path d="m0 0c0.619-1.248 2.896-3.358 4.352-3.788 0.81-0.238 0.668 0.146 0.346 0.441-0.444 0.404-1.923 2.061-2.844 3.197-0.286-0.218-0.964-0.479-1.854 0.15" fill="#00ab84"/>
    </g>
    <g transform="translate(808.99 671.49)">
     <path d="m0 0c0.315 1.091 1.588 1.558 1.941 1.287 0.118-0.195 0.104-0.887-0.166-1.423 0.506 0.385 1.965 0.691 2.201 0.327 0.085-0.135-0.313-0.788-0.417-0.901 0.692 0.44 1.718 0.113 2.021-0.259-0.023-0.167-0.253-0.386-0.488-0.55 0.508 0.021 0.967 0.095 1.348 0.147 1.231 0.289 2.324 1.116 2.493 1.828-0.745 0.323-1.679 0.47-2.412 0.174 0.557 0.541 1.34 1.518 1.124 2.235-0.889 0.157-2.606-0.013-3.599-0.979 0.374 0.55 0.677 2.26 0.233 2.716-3.095-0.403-4.383-3.117-4.279-4.602" fill="#00ab84"/>
    </g>
    <g transform="translate(815.43 670.08)">
     <path d="m0 0c0.98 0.126 2.06 0.336 2.854 0.699 1.11 0.509 1.877 1.361 1.892 1.907 0.013 0.477-1.569 0.956-2.294 0.834 0.766 0.508 1.92 1.776 1.613 2.507-0.332 0.793-2.574 0.586-3.945-0.015 0.904 0.992 1.367 2.397 0.979 2.874-0.602 0.737-3.246-0.063-4.911-1.33-1.398-1.062-2.874-3.177-2.64-5.669l0.012-5e-3c0.121 1.525 1.437 3.837 4.275 4.207 0.443-0.455 0.141-2.166-0.233-2.716 0.993 0.966 2.71 1.137 3.598 0.979 0.217-0.717-0.566-1.694-1.123-2.234 0.733 0.295 1.667 0.149 2.411-0.175-0.169-0.712-1.257-1.574-2.488-1.863" fill="#fbd8b5"/>
    </g>
    <g transform="translate(808.99 671.49)">
     <path d="m0 0c0.315 1.091 1.588 1.558 1.941 1.287 0.118-0.195 0.104-0.887-0.166-1.423 0.506 0.385 1.965 0.691 2.201 0.327 0.085-0.135-0.313-0.788-0.417-0.901 0.692 0.44 1.718 0.113 2.021-0.259-0.023-0.167-0.253-0.386-0.488-0.55 0.508 0.021 0.967 0.095 1.348 0.147 1.231 0.289 2.324 1.116 2.493 1.828-0.745 0.323-1.679 0.47-2.412 0.174 0.557 0.541 1.34 1.518 1.124 2.235-0.889 0.157-2.606-0.013-3.599-0.979 0.374 0.55 0.677 2.26 0.233 2.716-3.095-0.403-4.383-3.117-4.279-4.602" fill="#00ab84"/>
    </g>
    <g transform="translate(814.08 669.97)">
     <path d="M 0,0 C 0.508,0.021 0.967,0.095 1.349,0.146 1.888,0.272 2.398,0.501 2.818,0.78 2.057,0.585 1.241,0.47 0.434,0.413 0.349,0.275 0.176,0.123 0,0" fill="#009573"/>
    </g>
    <g transform="translate(811.6 677.53)">
     <path d="m0 0c0.057 0.464-0.048 1.611-0.52 1.768-0.673 0.222-2.416-1.119-2.935-2.708 0.371 0.054 1.584 0.083 2.295-0.178 0.256 0.366 0.869 0.973 1.16 1.118" fill="#fbd8b5"/>
    </g>
    <g transform="translate(805.57 664.78)">
     <path d="m0 0c0.355-0.226 0.772-0.324 1.075-0.171 0.754 0.378 1.191 1.219 0.883 2.024-0.078-0.754-0.479-1.509-1.16-1.771-0.324-0.124-0.592-0.097-0.798-0.082" fill="#009573"/>
    </g>
    <g transform="translate(816.01 669.46)">
     <path d="m0 0-0.133 0.087c0.619-1.248 2.897-3.358 4.352-3.787 0.47-0.139 0.618-0.067 0.597 0.073-1.601 0.454-3.804 2.339-4.816 3.627" fill="#009573"/>
    </g>
    <g transform="translate(815.94 669.42)">
     <path d="m0 0c0.07-0.274 0.048-0.555-0.137-0.689-0.252-0.186-0.742 0.134-0.994 0.489 0.252-0.574 0.233-1.282-0.048-1.369-0.279-0.086-0.823 0.058-1.335 0.842 0.272-0.459 0.405-1.442-0.052-1.761-0.503-0.353-1.289 0.148-1.899 0.804 0.053-0.473 0.096-1.467-0.411-1.741-0.374-0.202-1.192 0.247-1.64 0.931 0.122-0.441 0.126-1.474-0.351-1.661-0.51-0.2-1.126 0.306-1.428 0.797-0.026-0.607-0.408-1.158-0.998-1.454-0.104-0.053-0.228-0.076-0.355-0.072 1.654-1.441 4.478-1.87 6.826-1.055l-0.096 0.017c0.918 0.14 1.982 0.734 2.656 1.464 0.778 0.837 1.233 2.153 1.211 3.211-0.408 0.438-0.742 0.875-0.949 1.247" fill="#fff"/>
    </g>
    <g transform="translate(816.09 669.18)">
     <path d="m0 0c0.105-1.935-1.459-4.732-3.986-5.119-0.174-0.026-0.419-0.095-0.57-0.147-1.356-0.46-3.264-0.053-4.796 0.745l-0.089-0.048c-0.105-0.053-0.229-0.076-0.356-0.072 1.654-1.441 4.479-1.87 6.826-1.055l-0.095 0.017c0.918 0.14 1.982 0.734 2.656 1.464 0.777 0.838 1.232 2.153 1.211 3.212-0.322 0.346-0.598 0.691-0.801 1.003" fill="#dcdddd"/>
    </g>
    <g transform="translate(816.01 665.38)">
     <path d="m0 0c-0.482-0.676-1.189-1.263-2.016-1.599-0.459-0.407-0.609-1.068-0.402-1.419 0.195-0.33 0.767-0.529 1.09-0.164l-7e-3 0.013c0.382-0.073 1.004 0.068 1.23 0.436 0.066 0.108 0.054 0.175-0.079 0.215-0.328 0.094-0.623 0.49-0.586 0.735 0.048 0.32 0.271 0.589 0.524 0.765 0.314 0.218 0.597 0.263 0.723 0.134 0.158-0.163 0.121-0.435 0.293-0.448 0.222-0.012 0.304 0.397 0.322 0.709-0.244 0.435-0.7 0.578-1.092 0.623" fill="#d28444"/>
    </g>
    <g transform="translate(809.07 665.27)">
     <path d="m0 0c0.299 0.117 0.408 0.563 0.419 0.992-0.403-0.473-1.081-0.805-1.851-0.145l2e-3 -0.049c0.304-0.491 0.919-0.998 1.43-0.798" fill="#d9bb9e"/>
    </g>
    <g transform="translate(815.88 669.57)">
     <path d="m0 0c0.031-0.431-0.396-0.7-0.743-0.686 0.235-0.18 0.503-0.276 0.667-0.154 0.193 0.142 0.213 0.448 0.125 0.739 0.549-0.388 1.445-0.389 1.783-0.09-0.043 0.042-0.128 0.161-0.228 0.302-0.579-0.346-1.336-0.221-1.604-0.111" fill="#d9bb9e"/>
    </g>
    <g transform="translate(810.03 666.29)">
     <path d="M 0,0 C 0.387,-0.288 0.802,-0.422 1.036,-0.294 1.307,-0.147 1.42,0.201 1.459,0.567 1.133,0.083 0.471,-0.069 0,0" fill="#d9bb9e"/>
    </g>
    <g transform="translate(812.15 667.15)">
     <path d="m0 0c0.443-0.307 0.896-0.444 1.225-0.212 0.272 0.19 0.334 0.615 0.285 1.024-0.175-0.494-0.776-0.89-1.51-0.812" fill="#d9bb9e"/>
    </g>
    <g transform="translate(813.95 668.1)">
     <path d="m0 0c0.328-0.257 0.624-0.302 0.808-0.245 0.194 0.06 0.261 0.415 0.204 0.816-0.127-0.383-0.557-0.663-1.012-0.571" fill="#d9bb9e"/>
    </g>
    <g transform="translate(803.25 669.35)">
     <path d="m0 0-0.035-0.03c0.178-0.198 0.574-0.529 1.109-0.61 0.028 0.054 0.05 0.368 0.05 0.5-0.392-0.086-0.783-0.066-1.124 0.14" fill="#d28444"/>
    </g>
    <g transform="translate(816.95 670.76)">
     <path d="m0 0c-0.428-0.298-0.955-0.548-1.515-0.681 0.981 0.126 2.06 0.337 2.854 0.7 1.091 0.499 1.849 1.33 1.89 1.876-0.69-0.946-1.877-1.543-3.229-1.895" fill="#d9bb9e"/>
    </g>
    <g transform="translate(817.5 673.33)">
     <path d="M 0,0 C 0.64,0.424 1.922,2.108 1.631,3.018 2.565,2.75 2,1.169 0,0" fill="#d9bb9e"/>
    </g>
    <g transform="translate(816.35 679.07)">
     <path d="m0 0c0.299-0.646-0.463-2.618-1.179-3.412 1.392 1.111 1.945 3.268 1.179 3.412" fill="#d9bb9e"/>
    </g>
    <g transform="translate(811.15 679.27)">
     <path d="m0 0c0.185-0.3 0.213-1.642-0.01-2.088l0.463 0.353c0.127 0.729-0.191 1.715-0.453 1.735" fill="#d9bb9e"/>
    </g>
    <g transform="translate(803.59 673.35)">
     <path d="m0 0c1.017 3.165 4.571 3.818 6.888 3.176l-0.117-0.161c-2.278 0.593-5.577-0.212-6.587-2.924-0.037-0.099-0.199-0.139-0.184-0.091" fill="#0d131a"/>
    </g>
    <g transform="translate(810.5 671.09)">
     <path d="m0 0c0.412 0.486 0.488 1.475 0.355 1.623-0.224 0.251-1.586-0.402-1.832-1.253-0.014-0.047-0.058 0.253-0.015 0.344 0.365 0.756 1.551 1.405 1.99 1.105 0.279-0.191 0.158-1.261-0.383-1.91-0.156-0.187-0.269-0.094-0.115 0.091" fill="#0d131a"/>
    </g>
    <g transform="translate(812.27 670.6)">
     <path d="m0 0c0.288 0.229 0.66 0.881 0.582 1.041-0.107 0.213-1.483 0.193-2.115-0.424l0.125 0.286c0.827 0.549 2.025 0.529 2.191 0.247 0.136-0.234-0.381-1.035-0.707-1.275-0.214-0.157-0.274-0.032-0.076 0.125" fill="#0d131a"/>
    </g>
    <g transform="translate(813.69 669.84)">
     <path d="m0 0c0.252 0.107 0.781 0.521 0.766 0.668-0.031 0.266-1.264 0.632-1.941 0.202l0.14 0.229c0.744 0.29 1.912-0.018 1.984-0.371 0.057-0.273-0.588-0.735-0.906-0.868-0.255-0.104-0.288 0.038-0.043 0.14" fill="#0d131a"/>
    </g>
    <g transform="translate(808.91 671.41)">
     <path d="M 0,0 C -0.089,2.5 1.99,4.433 4.236,4.783 4.357,4.802 4.426,4.804 4.504,4.685 4.859,4.121 4.592,2.639 4.203,1.958 4.018,1.638 3.9,1.703 4.071,2.02 4.404,2.631 4.602,4.145 4.303,4.553 1.645,4.18 0.097,1.956 0.138,0.016 0.148,-0.47 0.018,-0.478 0,0" fill="#0d131a"/>
    </g>
    <g transform="translate(815.52 672.24)">
     <path d="m0 0c0.613 0.613 1.139 1.424 1.035 2.03-0.834 0.168-2.469-0.064-3.46-0.897l0.077 0.259c1.116 0.818 2.67 0.981 3.475 0.813l0.074-0.066c0.243-0.806-0.578-1.735-1.097-2.238-0.284-0.276-0.375-0.173-0.104 0.099" fill="#0d131a"/>
    </g>
    <g transform="translate(815.4 670.15)">
     <path d="m0 0c1.127 0.265 2.158 1.061 2.383 1.738-0.752 0.305-1.631 0.395-2.24 0.181l0.123 0.187c0.662 0.168 1.572 0.108 2.317-0.215l0.054-0.108c-0.17-0.713-1.053-1.367-2.096-1.753-0.183-0.068-0.591-0.042-0.541-0.03" fill="#0d131a"/>
    </g>
    <g transform="translate(808.93 671.74)">
     <path d="m 0,0 c -0.295,2.719 1.258,4.864 2.652,5.923 0.807,0.617 1.873,1.12 2.87,1.4 C 6.584,7.624 7.415,7.611 7.723,7.236 8.197,6.652 7.481,4.939 6.416,3.956 6.125,3.688 6.027,3.78 6.321,4.051 7.373,5.025 7.896,6.586 7.516,7.052 6.977,7.713 4.442,7.018 2.748,5.727 1.477,4.759 0.078,2.869 0.12,0.566 0.123,0.431 0.005,-0.049 0,0" fill="#0d131a"/>
    </g>
    <g transform="translate(808.05 676.65)">
     <path d="m0 0c0.645 1.977 2.443 2.989 3.076 2.779 0.498-0.163 0.602-1.238 0.574-1.767l-0.195-0.113c0.06 0.501-0.053 1.512-0.467 1.637-0.638 0.194-2.183-0.876-2.774-2.52z" fill="#0d131a"/>
    </g>
    <g transform="translate(803.86 671.39)">
     <path d="m0 0c-0.074 0.308-0.122 0.816-0.103 1.167 0.014 0.283 0.081 0.259 0.086-0.014 8e-3 -0.322 0.055-0.842 0.1-1.145 0.029-0.215-0.03-0.231-0.083-8e-3" fill="#0d131a"/>
    </g>
    <g transform="translate(803.34 669.31)">
     <path d="m0 0c0.354-0.33 0.746-0.465 0.919-0.508 0.05 0.385-0.03 1.007-0.111 1.328-0.208-0.245-0.628-0.658-0.808-0.82m0.993-0.915c0.228-0.289 0.836-0.494 1.091-0.435 0.754 0.179 0.971 1.845 0.839 2.994-0.286 2.443-0.969 3.393-1.547 3.297-0.356-0.059-0.719-0.521-0.831-0.858l-0.146-0.134c-0.581-0.191-1.229-1.393-1.064-2.582 0.079-0.561 0.29-0.956 0.536-1.233 0.301 0.234 0.774 0.693 0.904 0.871l0.126-3e-3c0.085-0.169 0.308-1.365 0.161-1.644l-0.097-0.048c-0.16 0.025-1.607 0.3-1.848 2.028-0.189 1.358 0.694 2.644 1.279 2.778 0.126 0.388 0.499 0.958 0.952 1.032 0.814 0.136 1.523-1.066 1.802-3.467 0.146-1.247-0.046-3.025-1.035-3.235-0.265-0.058-0.718 0.075-1.074 0.375z" fill="#0d131a"/>
    </g>
    <g transform="translate(804.45 672.48)">
     <path d="m0 0c-0.168-0.039-0.233-0.712-0.15-1.221 0.079-0.495 0.327-1.142 0.524-1.114 0.207 0.028 0.26 0.671 0.17 1.221-0.105 0.668-0.391 1.15-0.544 1.114m-0.297-1.241c-2e-3 0.013-0.212 1.301 0.251 1.422 0.404 0.104 0.674-0.548 0.788-1.268 1e-3 -0.013 0.173-1.348-0.339-1.431-0.287-0.048-0.582 0.56-0.7 1.277" fill="#0d131a"/>
    </g>
    <g transform="translate(817.6 673.45)">
     <path d="m0 0c0.965 0.512 2.014 1.943 1.774 2.512-0.261 0.626-2.163 0.715-3.831-0.017l0.158 0.243c1.669 0.647 3.623 0.64 3.932-0.101 0.336-0.805-1.019-2.283-1.972-2.773-0.362-0.187-0.415-0.052-0.061 0.136" fill="#0d131a"/>
    </g>
    <g transform="translate(813.98 669.85)">
     <path d="M 0,0 0.239,0.2 C 2.036,0.339 3.39,0.612 4.264,1.012 5.381,1.523 6.09,2.356 6.101,2.835 6.116,3.36 4.464,3.705 3.855,3.588 l 0.192,0.17 C 4.914,3.833 6.413,3.417 6.396,2.843 6.381,2.219 5.415,1.335 4.339,0.842 3.419,0.42 1.905,0.137 0,0" fill="#0d131a"/>
    </g>
    <g transform="translate(806.1 664.53)">
     <path d="m0 0 0.302 0.036c1.571-1.329 4.245-1.756 6.488-1.051l0.363-0.05c-1.759-0.729-4.994-0.904-7.153 1.065" fill="#0d131a"/>
    </g>
    <g transform="translate(804.77 666.37)">
     <path d="m0 0c-0.299 0.643-0.555 1.536-0.65 2.359l0.212-0.04c0.088-0.701 0.334-1.52 0.559-2.09z" fill="#0d131a"/>
    </g>
    <g transform="translate(805.62 666.99)">
     <path d="m0 0c-0.642-0.257-0.894-0.912-0.546-1.56 0.234-0.442 0.779-0.811 1.242-0.779 0.975 0.067 1.375 1.216 1.182 1.883-0.313 0.43-1.395 0.651-1.878 0.456m0.699-2.549c-0.772 4e-3 -1.205 0.5-1.389 0.848-0.401 0.746-0.27 1.553 0.615 1.901 0.631 0.251 1.904-0.101 2.121-0.565 0.267-0.565-0.149-2.186-1.347-2.184" fill="#0d131a"/>
    </g>
    <g transform="translate(807.66 665.9)">
     <path d="m0 0 0.059 0.183c0.263-0.428 0.846-0.894 1.315-0.71 0.397 0.156 0.426 1.085 0.304 1.531-0.068 0.247 0.029 0.289 0.166 0.075 0.441-0.672 1.199-1.046 1.5-0.881 0.477 0.259 0.418 1.308 0.383 1.63-0.024 0.208 0.043 0.202 0.16 0.073 0.552-0.597 1.31-1.104 1.777-0.777 0.389 0.272 0.295 1.172 0.025 1.624-0.187 0.314-0.046 0.409 0.138 0.095 0.271-0.455 0.481-1.523-0.044-1.892-0.441-0.307-1.138-0.047-1.857 0.656 0.035-0.564-8e-3 -1.355-0.474-1.607-0.368-0.2-1.058 0.154-1.545 0.706 0.041-0.51-0.02-1.283-0.459-1.454-0.462-0.18-1.027 0.163-1.448 0.748" fill="#0d131a"/>
    </g>
    <g transform="translate(813.59 668.33)">
     <path d="m0 0-0.072 0.301c0.31-0.461 1.026-0.803 1.205-0.67 0.319 0.237 0.168 0.979-0.039 1.317-0.156 0.255-0.035 0.343 0.114 0.087 0.237-0.407 0.472-1.259 0.037-1.582-0.282-0.209-0.893 0.104-1.245 0.547" fill="#0d131a"/>
    </g>
    <g transform="translate(814.93 668.94)">
     <path d="m0 0-0.111 0.35c0.243-0.345 0.744-0.6 0.931-0.463 0.244 0.18 0.119 0.659-0.05 0.941-0.114 0.185 4e-3 0.24 0.123 0.06 0.285-0.441 0.334-0.968 0.049-1.184-0.237-0.179-0.627-9e-3 -0.942 0.296" fill="#0d131a"/>
    </g>
    <g transform="translate(820.21 665.69)">
     <path d="m0 0c-1.436 0.413-3.457 2.281-4.222 3.405l0.012 0.356c0.579-1.042 2.844-3.199 4.241-3.611 0.408-0.121 0.462-0.09 0.494-0.042 0.034 0.048-0.029 0.187-0.219 0.358-0.692 0.62-3.289 3.561-3.619 4.19l0.238 0.041c0.423-0.712 2.866-3.562 3.487-4.13 0.09-0.08 0.387-0.377 0.285-0.561-0.096-0.18-0.447-0.075-0.697-6e-3" fill="#0d131a"/>
    </g>
    <g transform="translate(815.97 669.4)">
     <path d="m0 0-0.063 0.226c0.455-0.415 1.361-0.523 1.749-0.172l0.098-0.1c-0.445-0.394-1.185-0.394-1.784 0.046" fill="#0d131a"/>
    </g>
    <g transform="translate(812.31 663.42)">
     <path d="m0 0c-0.364 0.06-0.341 0.196 0.028 0.141 0.944-0.141 2.354 0.498 3.24 1.458 0.726 0.785 1.24 2.104 1.211 3.184l0.194-0.157c-0.016-1.103-0.476-2.364-1.209-3.159-1.063-1.15-2.52-1.618-3.464-1.467" fill="#0d131a"/>
    </g>
    <g transform="translate(811.89 662.36)">
     <path d="m0 0c-0.068 0.285 0.141 0.688 0.414 0.909l0.219-0.032c-0.268-0.139-0.485-0.578-0.424-0.829 0.066-0.294 0.437-0.44 0.689-0.422l0.231-0.091c-0.418-0.216-1.039 0.085-1.129 0.465" fill="#0d131a"/>
    </g>
    <g transform="translate(812.93 661.87)">
     <path d="m0 0c-0.449 0.094-0.469 0.72-0.276 1.122 0.122 0.253 0.229 0.22 0.122-0.012-0.157-0.339-0.087-0.865 0.191-0.928 0.276-0.063 0.553 6e-3 0.656 0.16l0.155-0.103c-0.146-0.216-0.502-0.313-0.848-0.239" fill="#0d131a"/>
    </g>
    <g transform="translate(814.16 661.91)">
     <path d="m0 0c-0.266 0.025-0.529 0.188-0.656 0.402-0.214 0.362-0.074 0.943 0.274 1.363l0.251 0.039c-0.445-0.397-0.539-1.009-0.363-1.307 0.098-0.167 0.303-0.292 0.513-0.311 0.104-0.01 0.264-3e-3 0.389 0.103l0.168-0.052c-0.152-0.174-0.351-0.258-0.576-0.237" fill="#0d131a"/>
    </g>
    <g transform="translate(814.38 662.23)">
     <path d="m0 0c-0.277 0.227-0.348 0.805-0.118 1.288 0.114 0.243 0.22 0.228 0.114-0.012-0.196-0.456-0.058-0.985 0.12-1.132 0.109-0.089 0.364-0.125 0.63-0.081 0.32 0.056 0.604 0.213 0.719 0.402l-0.024 0.078c-0.363 0.104-0.707 0.525-0.662 0.828 0.046 0.311 0.234 0.617 0.543 0.833 0.354 0.247 0.678 0.295 0.844 0.123 0.082-0.087 0.129-0.41 0.234-0.419 0.208-0.017 0.405 1.045 4e-3 1.38-0.127 0.103-0.308 0.141-0.545 0.117l0.112 0.192c0.228 6e-3 0.414-0.051 0.552-0.168 0.477-0.4 0.217-1.774-0.134-1.714-0.252 0.042-0.207 0.382-0.357 0.483-0.092 0.064-0.309 0.057-0.604-0.145-0.267-0.188-0.456-0.442-0.496-0.702-0.029-0.191 0.248-0.552 0.533-0.633 0.033-0.01 0.138-0.039 0.175-0.132l-0.044-0.221c-0.145-0.236-0.455-0.421-0.83-0.484-0.172-0.029-0.609-0.011-0.766 0.119" fill="#0d131a"/>
    </g>
    <g transform="translate(805.33 665.57)">
     <path d="m0 0c0.258 0.037 0.721 0.105 0.928 0.174 0.228 0.076 0.275-0.029 0.039-0.118-0.313-0.119-0.631-0.193-0.946-0.235-0.187-0.027-0.198 0.154-0.021 0.179" fill="#0d131a"/>
    </g>
   </g>
  </g>
 </g>
</svg>
