<?xml version="1.0" encoding="UTF-8"?>
<!-- Created with Inkscape (http://www.inkscape.org/) -->
<svg version="1.1" viewBox="0 0 131.32 97.213" xmlns="http://www.w3.org/2000/svg">
 <g transform="translate(-15.503 -14.687)">
  <g transform="matrix(.92283 1.1953 1.1953 -.92283 101.2 53.607)">
   <path d="m0 0c-7.963 4.39-17.062 6.87-27.572 1.595-10.433-5.9-16.21-16.345-14.851-28.57 1.223-11.002 14.051-27.17 27.893-27.981 5.588-0.328 9.051 0.695 10.081 2.407 3.439 0.522 0.097 3.169-3.818 6.109 2.114 0.952 2.354 2.644 0.394 5.89-0.807-0.158-1.425-0.1-2.033 0.214-1.04 1.04-3.716 5.109-1.375 9.613 1.692 3.255 4.238 4.526 6.347 4.473-1.146 2.438-0.951 6.366 0.814 8.405 2.634 3.042 6.429 3.718 9.557 2.596 1.132-1.859 1.292-3.99 1.292-3.99 2.891-0.459 3.628-0.103 2.153 3.56-0.351 0.87-1.854 3.266-1.854 3.266s3.828-2.154 4.701-2.889c0.874-0.735 1.815-0.529 1.193 1.192s-1.953 4.513-3.197 5.472c0.781 2.458 0.845 5.048-2.157 3.525-0.365 2.776-1.413 5.217-3.142 3-1.599 2.642-3.555 5.138-4.426 2.113" fill="#f8d6b5"/>
  </g>
  <g transform="matrix(.92283 1.1953 1.1953 -.92283 98.129 79.133)">
   <path d="m0 0c7.937 0.566 13.193 9.753 13.673 15.386 0.639 7.485-2.19 8.597-9.044 5.938 1.238 2.625 2.865 12.77-0.62 15.821-4.449 2.012-10.46-3.469-10.823-6.452-1.187 3.532-7.15 14.418-12.587 12.287-6.814-3.474-4.181-22.508 1.505-28.387 0.983-0.37 1.143-0.322 1.143-0.322-3.553 5.322-2.422 13.25 0.688 15.977 4.711-1.232 7.576-7.106 7.667-9.477 2.355 3.369 6.008 6.328 8.443 6.242 1.722-1.641 3.786-6.904 0.876-11.752 2.351 1.188 4.56 2.314 6.823 1.444 3.257-3.712-0.927-13.142-7.744-16.705" fill="#f8d6b5"/>
  </g>
  <g transform="matrix(.92283 1.1953 1.1953 -.92283 66.358 80.001)">
   <path d="m0 0c5.119 0.84 9.34 6.808 5.704 13.698-7.76 2.323-13.156-4.674-10.37-11.002-6.59-0.208-9.588-8.875-5.014-14.292 10.283-1.394 11.494 8.323 9.68 11.596" fill="#08aa83"/>
  </g>
  <g transform="matrix(.92283 1.1953 1.1953 -.92283 99.853 73.202)">
   <path d="m0 0c0.932 3.884 0.141 4.708-2.234 3.429-0.425 4.328-2.006 4.59-3.361 2.967-1.482 3.654-3.702 4.287-4.13 2.242-1.228 0.827-2.78 1.592-4.617 2.328-2.822 2.703-2.932 10.328-0.241 14.929 0.701 1.198 0.931 1.519 2.164 1.006 2.543-1.057 6.357-6.127 6.461-9.391 1.336 2.367 4.067 4.544 6.519 5.784 1.054 0.535 2.126 0.8 2.974-1.058 1.601-3.508 1.834-7.773-0.203-10.279 0.917 0.621 3.542 1.544 5.122 1.752 1.389 0.183 2.309-0.023 2.624-2.096 1.004-6.593-5.231-14.028-8.978-14.571 0 0-1.413 2.412-2.1 2.958" fill="#08aa83"/>
  </g>
  <g transform="matrix(.92283 1.1953 1.1953 -.92283 65.488 60.349)">
   <path d="m0 0c5.178 2.74 8.438 8.984 6.119 14.905-2.671 6.815-10.439 10.438-17.376 8.464-5.993-1.705-9.392-6.611-9.13-11.712 0.091-1.764-0.272-1.327-1.309-1.746-5.263-2.123-9.867-10.286-4.838-18.622 6.033-9.999 18.986-8.868 23.604-1.345 1.723 2.806 2.569 7.109 2.185 8.292-0.385 1.182 0.745 1.764 0.745 1.764" fill="#fff"/>
  </g>
  <g transform="matrix(.92283 1.1953 1.1953 -.92283 61.283 101.07)">
   <path d="m0 0c5.178 1.498 8.948 8.073 7.77 15.12-0.909 5.425-3.644 9.369-3.644 9.369l-6.175 3.355s2.777-3.643 2.887-5.482c0.111-1.839-1.013-1.693-2.831-1.467 0.62-3.941-1.26-7.891-6.997-9.708 2.132-5.986-1.178-11.833-7.822-11.64 0.947-1.312 2.992-4.821-0.242-5.707 0.841-0.531 8.441-6.021 4.01-6.233 8.96 0.978 13.437 8.151 13.044 12.393" fill="#fff"/>
  </g>
  <g transform="matrix(.92283 1.1953 1.1953 -.92283 67.532 103.58)">
   <path d="M 0,0 C 1.594,-0.083 4.789,0.253 5.959,0.345 7.129,0.436 8.267,1.419 6.173,3.084 9.265,3.751 9.234,5.661 7.799,6.759 6.953,7.405 5.304,8.063 3.98,8.022 3.823,7.128 2.742,2.43 0,0" fill="#d28444"/>
  </g>
  <g transform="matrix(.92283 1.1953 1.1953 -.92283 53.865 104.19)">
   <path d="m0 0c-1.448-2.708-4.431-5.218-7.42-6.221 1.626-3.121 5.54-3.744 6.32-2.968 1.007 1.001 0.48 2.751-0.402 3.814 1.529-0.409 2.991-0.443 3.992 0.631 0.816 0.875-0.932 3.81-2.49 4.744" fill="#d28444"/>
  </g>
  <g transform="matrix(.92283 1.1953 1.1953 -.92283 78.461 48.961)">
   <path d="m0 0c0.835 1.75-1.035 4.467-3.524 5.568-2.49 1.101-5.221 1.416-6.381-0.245-1.159-1.66 1.597-4.533 3.525-5.613 1.928-1.079 5.398-1.773 6.38 0.29" fill="#3e3b3a"/>
  </g>
  <g transform="matrix(.92283 1.1953 1.1953 -.92283 50.103 43.491)">
   <path d="m0 0c-2.11 1.277-5.468 1.97-6.768 0.071-1.298-1.899 0.574-4.72 3.516-6.367 2.943-1.647 5.411-1.275 6.432 0.067 1.02 1.343 0.347 4.094-3.18 6.229" fill="#3e3b3a"/>
  </g>
  <g transform="matrix(.92283 1.1953 1.1953 -.92283 44.499 40.342)">
   <path d="m0 0c-0.375-0.651 0.624-1.766 1.629-2.298 0.782-0.414 2.147-0.773 2.599-0.073 0.502 0.785-0.631 1.78-1.412 2.217-1.388 0.776-2.452 0.787-2.816 0.154" fill="#fff"/>
  </g>
  <g transform="matrix(.92283 1.1953 1.1953 -.92283 76.762 37.146)">
   <path d="m0 0c-0.354-0.608 0.577-1.554 1.541-2.119 0.742-0.435 1.953-0.633 2.312-0.088 0.399 0.613-0.263 1.521-1.309 2.125-0.761 0.439-2.143 0.775-2.544 0.082" fill="#fff"/>
  </g>
  <g transform="matrix(.92283 1.1953 1.1953 -.92283 69.235 50.473)">
   <path d="m0 0c0.618-1.232 0.951-3.057 0.038-4.489s-3.988-3.243-5.23-3.188c2.001-0.29 4.913-0.828 6.859 1.725 1.945 2.554-1.667 5.952-1.667 5.952" fill="#f19750"/>
  </g>
  <g transform="matrix(.92283 1.1953 1.1953 -.92283 67.681 52.574)">
   <path d="m0 0c-1.787 1.679-5.108 0.798-6.155-1.662-0.255-0.599 0.018-2.909 0.9-4.065 1.068 0.05 3.69 1.303 4.547 2.435s0.708 3.292 0.708 3.292" fill="#eb8498"/>
  </g>
  <g transform="matrix(.92283 1.1953 1.1953 -.92283 67.717 52.289)">
   <path d="m0 0c-0.09 1.006-0.304 1.883-0.882 2.398-0.327 0.292-5.353-0.292-5.139-4.194 1.687 2.321 4.013 3.472 6.021 1.796" fill="#91341e"/>
  </g>
  <g transform="matrix(.92283 1.1953 1.1953 -.92283 89.059 93.333)">
   <path d="m0 0s1.669-8.497-0.913-12.205c-2.583-3.708-5.154-5.17-6.273-5.485-0.02-1.286-0.598-5.886-4.503-8.941-3.906-3.055-7.888-3.368-7.888-3.368 0.301 0.348 1.853 1.251-0.969 3.196 4.409-0.074 10.014 5.038 10.936 8.898 0.418 1.748 1.382 2.802 3.129 3.689 3.653 1.855 7.326 9.693 6.481 14.216" fill="#dbdcdb"/>
  </g>
  <g transform="matrix(.92283 1.1953 1.1953 -.92283 144.78 46.974)">
   <path d="m0 0c3.838-1.691 2.744-13.348 1.746-18.15 1.346 2.619 2.24 6.172 2.449 9.458 0.229 3.596-0.739 8.983-4.195 8.692" fill="#d6ba9d"/>
  </g>
  <g transform="matrix(.92283 1.1953 1.1953 -.92283 128.13 42.758)">
   <path d="m0 0c0.065 1.71-5.604 13.751-12.383 12.359 5.799-0.974 11.768-11.059 11.983-13.996z" fill="#d6ba9d"/>
  </g>
  <g transform="matrix(.92283 1.1953 1.1953 -.92283 135.56 74.512)">
   <path d="m0 0c0.899-1.119 1.204-3.095 0.947-6.104-0.479-5.632-5.736-14.819-13.673-15.386 1.8 0.941 3.413 2.292 4.758 3.838 5.947 3.668 9.53 10.338 7.968 17.652" fill="#d6ba9d"/>
  </g>
  <g transform="matrix(.92283 1.1953 1.1953 -.92283 98.255 78.442)">
   <path d="m0 0s-0.296 0.504-0.682 1.104c2.092 0.503 4.046 1.329 5.796 2.415-1.683-1.957-3.601-3.3-5.114-3.519" fill="#009374"/>
  </g>
  <g transform="matrix(.92283 1.1953 1.1953 -.92283 87.796 73.684)">
   <path d="m0 0c2.785-3.477 2.751-10.53-3.373-12.983-0.602-0.241-1.579-0.453-1.848-0.701-0.268-0.248 0.06-0.966 0.268-1.558 1.678-4.769-2.263-11.861-10.468-9.772 7.009 0.344 10.469 2.929 9.275 9.805-0.288 1.655-0.134 2.193 1.18 2.661 5.866 2.088 6.944 6.27 4.966 12.548" fill="#009374"/>
  </g>
  <g transform="matrix(.92283 1.1953 1.1953 -.92283 67.09 53.048)">
   <path d="m0 0c-2.152-0.569-4.116-3.004-4.668-5.12l-0.596-0.105s-1.549 2.81-0.9 4.065c1.06 2.046 4.08 3.437 6.155 1.662z" fill="#cf7487"/>
  </g>
  <g transform="matrix(.92283 1.1953 1.1953 -.92283 98.606 77.655)">
   <path d="m0 0c1.09-2.001 1.908-3.968 1.4-4.475-0.507-0.506-2.904 1.404-3.919 1.996 2.559-0.81 3.285-0.035 2.519 2.479" fill="#d6ba9d"/>
  </g>
  <g transform="matrix(.92283 1.1953 1.1953 -.92283 91.76 76.278)">
   <path d="m0 0c1.024-1.706 2.127-4.099 1.333-5.003s-2.718 0.274-2.718 0.274c0.012 0.187 0.075 0.076 0.031 0.479 2.062-0.45 2.406 1.442 1.354 4.25" fill="#d6ba9d"/>
  </g>
  <g transform="matrix(.92283 1.1953 1.1953 -.92283 44.233 80.222)">
   <path d="m0 0c2.144-4.134 1.676-4.98-1.893-5.752 1.685 0.034 3.882 0.243 4.44 1.329 0.557 1.085-1.466 4.379-1.466 4.379z" fill="#d6ba9d"/>
  </g>
  <g transform="matrix(.92283 1.1953 1.1953 -.92283 38.252 87.857)">
   <path d="m0 0c2.444-4.556 0.846-6.68-5.71-8.15 3.652-0.139 7.01 0.587 8.629 2.231 2.018 0.846 2.835 1.555-2.919 5.919" fill="#d6ba9d"/>
  </g>
  <g transform="matrix(.92283 1.1953 1.1953 -.92283 34.331 96.449)">
   <path d="m0 0c-4.955-4.494-16.449-1.803-22.987 3.318-10.808 8.465-20.162 23.919-10.958 39.617 7.658 13.059 23.76 17.707 38.561 9.011 0.167-0.099 0.267 0.791 0.173 0.848-13.866 8.418-30.813 5.038-39.338-9.505-9.591-16.356-0.21-32.082 10.883-40.769 5.876-4.603 18.319-8.299 24.299-2.876 0.128 0.119-0.364 0.6-0.633 0.356" fill="#0f141b"/>
  </g>
  <g transform="matrix(.92283 1.1953 1.1953 -.92283 65.53 59.783)">
   <path d="m0 0c2.427 1.433 4.207 3.099 5.307 4.962 2.95 5 0.927 12.403-4.328 15.843-5.705 3.734-13.07 3.218-17.514-1.225-2.061-2.06-3.465-4.452-3.222-8.803 0.029-0.529-0.059-0.753-0.57-0.969-3.106-1.32-5.516-3.629-6.856-6.562-3.07-6.723 1.098-14.26 6.721-17.387 5.265-2.927 11.616-2.08 15.804 2.108 2.746 2.745 4.151 6.176 3.755 10.568-0.066 0.713 0.163 1.027 0.903 1.465m-20.816-14.837c-5.896 3.278-10.24 11.288-7.003 18.374 1.436 3.145 4.041 5.565 7.218 6.915 0.111 0.047 0.155 0.115 0.145 0.287-0.247 4.425 1.124 7.033 3.427 9.336 4.676 4.676 12.499 5.284 18.479 1.37 5.618-3.678 7.745-11.27 4.46-16.838-1.161-1.966-3.024-3.715-5.554-5.21-0.451-0.266-0.601-0.371-0.562-0.798 0.416-4.611-1.162-8.332-3.957-11.127-4.156-4.156-10.651-5.647-16.653-2.309" fill="#0f141b"/>
  </g>
  <g transform="matrix(.92283 1.1953 1.1953 -.92283 41.139 87.874)">
   <path d="m0 0c0.544 0.978 0.19 2.427-1.147 4.7-0.098 0.167-1.199 0.128-1.101-0.039 1.181-2.007 2.04-3.595 1.637-4.32-1.035-1.863-7.168-0.877-9.185-0.059-1.208 0.487-1.471-0.16-0.263-0.649 2.394-0.97 8.792-1.908 10.059 0.367" fill="#0f141b"/>
  </g>
  <g transform="matrix(.92283 1.1953 1.1953 -.92283 36.775 98.325)">
   <path d="m0 0c0.377 1.107-1.131 2.589-5.596 5.814-0.156 0.113-0.88-0.143-0.723-0.256 3.786-2.735 5.888-4.65 5.657-5.332-0.301-0.881-4.521-0.753-6.322-0.699-1.2 0.036-1.221-0.662-0.022-0.699 3.825-0.116 6.591-0.047 7.006 1.172" fill="#0f141b"/>
  </g>
  <g transform="matrix(.92283 1.1953 1.1953 -.92283 67.535 80.157)">
   <path d="m0 0c1.544 0.499 2.878 1.284 3.888 2.293 2.573 2.573 2.948 6.326 1.06 10.58-3.081 0.897-6.187 0.158-8.338-1.992-2.138-2.138-2.799-5.133-1.775-7.798 0.434-1.128 0.561-1.031-0.65-1.236-1.499-0.254-2.835-0.936-3.894-1.994-2.487-2.488-3.415-7.252-0.423-11.593 3.304-0.363 5.761 0.153 7.876 2.268 2.009 2.009 2.488 4.993 1.48 8.379-0.254 0.847-0.183 0.784 0.776 1.093m-10.37-12.417c-0.098 0.015-0.187 0.064-0.244 0.145-5.374 7.587-9e-3 14.626 4.983 14.761-2.817 6.619 3.208 13.392 10.937 11.007 0.095-0.029 0.173-0.098 0.215-0.189 3.007-6.617 0.587-12.65-5.746-14 2.599-7.331-2.445-12.957-10.145-11.724" fill="#0f141b"/>
  </g>
  <g transform="matrix(.92283 1.1953 1.1953 -.92283 87.013 83.071)">
   <path d="m0 0c1.305 1.543-1.514 6.253-3.676 8.415-0.875 0.875-1.321 0.428-0.446-0.447 1.217-1.217 4.508-6.249 3.505-7.433-0.237-0.285-1.011-0.196-2.35-0.061-0.193 0.019-0.247-0.911-0.054-0.931 1.723-0.172 2.588-0.052 3.021 0.457" fill="#0f141b"/>
  </g>
  <g transform="matrix(.92283 1.1953 1.1953 -.92283 96.83 82.249)">
   <path d="m0 0c-0.309 1.3-2.056 4.328-3.331 5.309 0.626 1.712 0.95 3.648 0.117 4.124-0.564 0.323-1.606 0.061-2.296-0.267-0.173 1.459-0.973 3.575-1.618 3.79-0.631 0.21-1.518-0.42-1.989-0.952-0.069-0.076 0.101-1.137 0.189-0.964 0.281 0.556 1.221 1.261 1.496 1.169 0.323-0.191 1.324-2.351 1.248-3.631-0.027-0.459 0.208-0.598 0.576-0.287 0.449 0.379 1.56 0.683 1.964 0.452 0.259-0.148 0.337-1.461-0.437-3.441-0.064-0.162 1e-3 -0.345 0.152-0.431 1.026-0.587 2.924-3.67 3.248-5.033 0.324-1.365 0.219-1.441-1.086-0.636-1.248 0.769-3.226 1.964-4.693 2.797-0.047 0.026 0.497-1.095 0.722-1.225 1.271-0.735 2.514-1.497 3.604-2.169 2.432-1.498 2.687-0.933 2.134 1.395" fill="#0f141b"/>
  </g>
  <g transform="matrix(.92283 1.1953 1.1953 -.92283 101.66 61.941)">
   <path d="m0 0c0.138 1.965-2.271 4.712-3.462 4.771-0.037 2e-3 -0.074-1e-3 -0.109-0.012-0.718-0.197-1.288-1.264-1.11-2.076 0.301-1.364 0.722-1.369 0.596 0.032-0.042 0.466 0.403 1.122 0.727 1.267 0.847-0.187 2.77-2.361 2.66-3.933-0.096-1.368 0.61-1.313 0.698-0.049" fill="#0f141b"/>
  </g>
  <g transform="matrix(.92283 1.1953 1.1953 -.92283 77.07 103.08)">
   <path d="m0 0c1.825 5.3 0.682 11.66-3.008 17.223-0.107 0.161-1.086-0.055-0.978-0.216 3.568-5.38 5.078-11.687 3.324-16.779-1.23-3.568-3.817-6.132-6.845-7.141-0.457-0.152-0.389-1.214 0.069-1.062 3.544 1.182 6.236 4.485 7.438 7.975" fill="#0f141b"/>
  </g>
  <g transform="matrix(.92283 1.1953 1.1953 -.92283 62.632 100.39)">
   <path d="m0 0c-0.112 1.352-0.715 1.312-0.603-0.04 0.524-6.293-4.867-11.709-11.384-12.655-0.311-0.045-1.534-1.121-1.342-1.107 7.256 0.541 13.945 6.403 13.329 13.802" fill="#0f141b"/>
  </g>
  <g transform="matrix(.92283 1.1953 1.1953 -.92283 50.974 111.79)">
   <path d="m0 0c0.307 0.734 0.375 2.348-2.612 4.897-0.147 0.126-0.602-0.406-0.454-0.532 1.906-1.628 2.894-3.241 2.503-4.178-0.505-1.213-2.639-0.91-4.19-0.486-0.186 0.051 0.101-0.665 0.287-0.717 2.053-0.56 3.915-0.304 4.466 1.016" fill="#0f141b"/>
  </g>
  <g transform="matrix(.92283 1.1953 1.1953 -.92283 42.1 111.88)">
   <path d="m0 0c1.233 1.233 0.35 3.442-1.195 4.758-0.8 0.681-1.221 0.226-0.454-0.383 1.179-0.937 2.208-3.104 1.181-4.015-1.015-0.892-4.915 0.642-5.851 2.891-0.075 0.179-0.802-0.088-0.727-0.266 1.205-2.894 5.649-4.383 7.046-2.985" fill="#0f141b"/>
  </g>
  <g transform="matrix(.92283 1.1953 1.1953 -.92283 110.93 85.881)">
   <path d="m0 0c5.49 5.49 6.655 15.534 4.231 17.997-1.406 1.427-4.162 1.374-7.991-0.148-0.176-0.071-0.643-1.141-0.466-1.066 3.822 1.613 6.458 1.747 7.711 0.474 1.96-1.99 1.402-11.216-4.061-16.678-2.427-2.427-5.456-3.821-8.163-3.925-0.193-8e-3 -7e-3 -1.087 0.186-1.079 3.457 0.133 6.207 2.079 8.553 4.425" fill="#0f141b"/>
  </g>
  <g transform="matrix(.92283 1.1953 1.1953 -.92283 80.931 110.18)">
   <path d="m0 0c1.121 2.156-2.088 3.896-4.877 3.976-0.194 5e-3 -0.214-0.695-0.02-0.7 1.841-0.052 5.253-1.315 4.359-3.036-0.247-0.476-1.141-0.712-2.175-1.078-0.183-0.065 0.052-0.724 0.234-0.66 1.44 0.511 2.09 0.751 2.479 1.498" fill="#0f141b"/>
  </g>
  <g transform="matrix(.92283 1.1953 1.1953 -.92283 77.203 109.87)">
   <path d="m0 0c-0.802 1.148-2.688 2.352-4.04 2.577-0.19 0.032-0.328-0.721-0.138-0.753 1.175-0.196 2.905-1.223 3.604-2.224 0.755-1.081 0.311-1.334-0.981-1.448-0.309-0.027-4.974-0.236-5.7-0.342-0.191-0.027-0.301-0.845-0.109-0.817 0.699 0.103 5.559 0.434 5.87 0.462 1.81 0.159 2.404 1.24 1.494 2.545" fill="#0f141b"/>
  </g>
  <g transform="matrix(.92283 1.1953 1.1953 -.92283 126.24 65.943)">
   <path d="m0 0c2.828 5.679 3.009 14.926-0.186 17.361-2.74 2.089-10.82-1.399-11.761-7.792-0.247-1.683 0.442-1.784 0.692-0.102 0.892 6.056 8.244 8.731 10.398 7.09 2.314-1.765 3.077-10.208 0.317-16.309-0.705-1.56-0.157-1.647 0.54-0.248" fill="#0f141b"/>
  </g>
  <g transform="matrix(.92283 1.1953 1.1953 -.92283 99.637 44.16)">
   <path d="m0 0c-6.563 7.193-6.771 27.197-0.613 27.626 4.192 0.293 9.202-5.932 11.139-12.521 0.054-0.185 0.498 0.786 0.444 0.971-1.775 6.033-7.279 12.971-11.715 12.661-7.591-0.531-6.948-21.342 0.227-29.209 0.13-0.143 0.644 0.333 0.518 0.472" fill="#0f141b"/>
  </g>
  <g transform="matrix(.92283 1.1953 1.1953 -.92283 68.359 76.132)">
   <path d="m0 0c-0.067 0.876 1.207 3.247 1.877 3.79 0.67 0.546 0.398 0.889-0.275 0.344-1.064-0.861-2.393-2.98-2.299-4.188 0.046-0.595 0.736-0.455 0.697 0.054" fill="#0f141b"/>
  </g>
  <g transform="matrix(.92283 1.1953 1.1953 -.92283 55.877 76.697)">
   <path d="m0 0c0.538 1.142 2.113 3.4 3.166 4.163 0.411 0.294 0.042 0.805-0.367 0.508-1.275-0.925-2.652-3.085-3.229-4.495-0.368-0.902 0.031-1.022 0.43-0.176" fill="#0f141b"/>
  </g>
  <g transform="matrix(.92283 1.1953 1.1953 -.92283 59.521 29.757)">
   <path d="m0 0c-1.595-2.923 2.79-7.38 5.978-9.11 3.257-1.766 8.669-3.105 10.298 0.343 1.436 3.045-2.971 7.372-6.32 8.926-2.852 1.322-8.589 2.348-9.956-0.159m5.645-9.725c-3.894 2.112-7.942 6.742-6.177 9.977 1.56 2.861 6.766 2.405 10.782 0.541 4.15-1.924 8.211-6.312 6.576-9.776-1.639-3.478-6.806-3.115-11.181-0.742" fill="#0f141b"/>
  </g>
  <g transform="matrix(.92283 1.1953 1.1953 -.92283 43.84 35.697)">
   <path d="m0 0c-1.178-1.782 1.052-4.592 3.219-5.742 2.185-1.16 5.557-2.032 6.575 0.139 0.707 1.511-0.963 4.11-3.484 5.463-2.247 1.205-5.175 1.856-6.31 0.14m2.891-6.36c-2.61 1.384-4.905 4.378-3.397 6.659 1.408 2.129 4.902 1.382 7.147 0.178 2.931-1.574 4.595-4.394 3.709-6.289-1.133-2.418-4.774-1.974-7.459-0.548" fill="#0f141b"/>
  </g>
  <g transform="matrix(.92283 1.1953 1.1953 -.92283 56.571 51.507)">
   <path d="m0 0c-1.192 1.336-1.003 4.685-0.163 5.897 0.685 0.992 2.531 1.614 4.274 1.595 0.194-2e-3 -0.243 0.699-0.369 0.694-1.856-0.076-3.629-0.862-4.398-1.973-0.983-1.418-1.32-5.05 0.134-6.679 0.128-0.144 0.646 0.327 0.522 0.466" fill="#0f141b"/>
  </g>
  <g transform="matrix(.92283 1.1953 1.1953 -.92283 64.276 55.047)">
   <path d="m0 0c0.687 1.511 0.55 3.411-0.343 5.049-0.069 0.127-0.915 0.163-0.811 0 0.948-1.498 1.233-3.448 0.599-4.841-0.548-1.207-3.322-2.637-4.797-2.782-0.592-0.059 0.15-0.741 0.728-0.612 1.923 0.431 4.094 2.019 4.624 3.186" fill="#0f141b"/>
  </g>
  <g transform="matrix(.92283 1.1953 1.1953 -.92283 68.144 51.686)">
   <path d="m0 0c-1.75 1.273-4.48 0.361-5.935-1.773-0.108-0.16 0.151-0.854 0.26-0.695 1.312 1.924 3.791 3.676 5.766 1.565 0.132-0.141 0.064 0.79-0.091 0.903" fill="#0f141b"/>
  </g>
  <g transform="matrix(.92283 1.1953 1.1953 -.92283 63.924 45.427)">
   <path d="m0 0c-0.643 0.523-1.394 0.918-2.125 1.234-0.808 0.348-1.107-0.111-0.3-0.459 0.674-0.29 1.39-0.836 1.984-1.318 0.14-0.114 0.591 0.421 0.441 0.543" fill="#0f141b"/>
  </g>
  <g transform="matrix(.92283 1.1953 1.1953 -.92283 75.637 32.712)">
   <path d="m0 0c-0.876-1.581 1.355-3.924 3.527-5.075 1.98-1.048 4.737-1.849 5.775 0.012 0.683 1.228-0.485 3.638-3.19 5.148-2.265 1.265-5.318 1.345-6.112-0.085m3.2-5.693c-2.161 1.144-4.958 3.733-3.729 5.949 0.989 1.786 4.235 1.973 6.982 0.441 2.831-1.58 4.346-4.28 3.377-6.018-1.078-1.937-3.713-1.917-6.63-0.372" fill="#0f141b"/>
  </g>
  <g transform="matrix(.92283 1.1953 1.1953 -.92283 125.73 72.348)">
   <path d="m0 0c-2.243 0.535-4.616-0.416-6.435-1.506-0.245-0.147-0.474-1.135-0.313-1.028 1.846 1.231 4.365 2.357 6.755 1.595 2.646-4.822-2.317-13.96-8.091-15.473-0.187-0.049 0.061-0.858 0.247-0.809 5.193 1.361 11.447 10.497 8.865 16.297-0.277 0.622-0.473 0.791-1.028 0.924" fill="#0f141b"/>
  </g>
  <g transform="matrix(.92283 1.1953 1.1953 -.92283 113.66 66.73)">
   <path d="m0 0 0.012 0.012c4.048 4.446 3.474 10.081 1.19 13.647-0.311 0.487-0.471 0.607-1.016 0.587-2.73-0.096-7.329-4.026-8.556-6.25-0.093-0.17 0.533-0.807 0.625-0.638 1.307 2.368 5.803 6.158 7.979 5.978 2.284-3.323 3.278-8.641-0.62-12.922-0.898-0.987-0.552-1.352 0.386-0.414" fill="#0f141b"/>
  </g>
  <g transform="matrix(.92283 1.1953 1.1953 -.92283 111.31 53.223)">
   <path d="m0 0c1.641 4.791-2.881 12.126-6.949 13.331-0.597 0.177-0.764 0.158-1.304-0.376-3.287-3.254-3.695-11.563-0.961-15.686 0.166-0.251 1.362-0.646 1.234-0.501-3.54 3.995-2.908 12.798 0.527 15.638 3.832-0.797 8.383-7.898 6.9-12.226-0.488-1.424 0.113-1.474 0.553-0.18" fill="#0f141b"/>
  </g>
 </g>
</svg>
