<?xml version="1.0" encoding="UTF-8"?>
<!-- Created with Inkscape (http://www.inkscape.org/) -->
<svg version="1.1" viewBox="0 0 308.92 339.95" xmlns="http://www.w3.org/2000/svg" xmlns:cc="http://creativecommons.org/ns#" xmlns:dc="http://purl.org/dc/elements/1.1/" xmlns:rdf="http://www.w3.org/1999/02/22-rdf-syntax-ns#">
 <metadata>
  <rdf:RDF>
   <cc:Work rdf:about="">
    <dc:format>image/svg+xml</dc:format>
    <dc:type rdf:resource="http://purl.org/dc/dcmitype/StillImage"/>
   </cc:Work>
  </rdf:RDF>
 </metadata>
 <g transform="translate(276.23 -486.96)">
  <g transform="matrix(30.106 -1.7538 -1.7538 -30.106 -11.59 725.88)">
   <path d="m0 0c-0.07-0.097-0.554-0.705-0.847-0.6-0.223 0.079-0.261 0.488-0.236 0.8-0.31-0.285-0.808-0.558-1.154-0.536-0.526 0.033-0.998 0.253-1.239 0.772-0.23-0.326-0.706-0.752-1.27-0.717-0.46 0.029-0.955 0.504-1.202 0.883l-4e-3 -1e-3c0.035-0.196 0.022-0.827-0.179-0.949-0.2-0.121-0.583 0.182-0.686 0.338-0.052-0.519 0.763-1.932 1.878-2.002 0.539-0.034 0.948 0.075 1.406 0.321 0.281-0.241 0.829-0.491 1.452-0.531 1.644-0.103 2.128 1.928 2.081 2.222" fill="#fff"/>
  </g>
  <g transform="matrix(30.106 -1.7538 -1.7538 -30.106 -15.645 538.93)">
   <path d="m0 0c-1.417 1.764-3.121 2.074-4.702 1.737-1.17-0.25-2.245-0.934-2.951-1.865-0.999-1.317-1.38-3.8-0.872-5.243 0.393-1.116 1.197-1.999 2.179-2.271-0.372 0.312-0.726 1.147-0.697 1.436 0.103-0.157 0.485-0.459 0.686-0.338 0.2 0.121 0.213 0.753 0.177 0.948l6e-3 2e-3c-0.077 0.117-0.13 0.225-0.151 0.307 0.288 0.433 0.816 0.957 1.514 0.913 0.264-0.017 0.951-0.241 1.187-0.782 0.187 0.454 0.712 0.735 1.192 0.705 0.662-0.042 1.21-0.658 1.398-1.176-0.032-0.108-0.134-0.24-0.275-0.369-0.026-0.312 0.012-0.721 0.236-0.801 0.293-0.104 0.776 0.503 0.847 0.6 0.042-0.265-0.207-1.121-0.702-1.677 1.254 0.425 2.119 2.297 2.209 3.734 0.087 1.371-0.346 2.976-1.281 4.14" fill="#fdd1b0"/>
  </g>
  <g transform="matrix(30.106 -1.7538 -1.7538 -30.106 -42.23 720.37)">
   <path d="m0 0c0.018-0.251 0.121-0.499 0.269-0.549 0.178-0.062 0.482 0.063 0.738 0.371-0.112-0.283-0.551-0.739-0.85-0.664-0.3 0.076-0.264 0.681-0.236 0.801z" fill="#d1ae94"/>
  </g>
  <g transform="matrix(30.106 -1.7538 -1.7538 -30.106 -143.42 529.72)">
   <path d="m0 0c-0.144-0.173-0.221-0.192-0.39-0.107-0.43 0.214-0.99 0.305-1.493 0.148-0.739-0.231-1.361-0.897-1.582-1.697-0.367-1.336 0.543-3.019 2.084-3.116 0.713-0.045 1.412 0.318 1.793 0.682 0.097 0.093 0.207 0.091 0.297 0.046 0.52-0.26 1.132-0.292 1.629-0.136 1.219 0.384 1.901 1.989 1.519 3.053-0.521 1.447-1.776 1.96-2.828 1.711-0.491-0.116-0.848-0.365-1.029-0.584" fill="#fff"/>
  </g>
  <g transform="matrix(30.106 -1.7538 -1.7538 -30.106 -196.79 709.18)">
   <path d="m0 0c0.088-0.351 0.751-1.153 1.353-1.19 0.564-0.036 1.04 0.39 1.27 0.716 0.24-0.519 0.713-0.739 1.238-0.772 0.504-0.031 1.328 0.559 1.43 0.905-0.188 0.518-0.736 1.135-1.398 1.177-0.48 0.03-1.005-0.251-1.192-0.705-0.236 0.541-0.923 0.765-1.187 0.782-0.698 0.044-1.226-0.48-1.514-0.913" fill="#00b48d"/>
  </g>
  <g transform="matrix(30.106 -1.7538 -1.7538 -30.106 -139.46 793.35)">
   <path d="m0 0c-0.275-0.086-0.573-0.061-0.832 7e-3l-1e-3 5e-3 -3e-3 -4e-3c-0.301 0.08-0.549 0.219-0.64 0.31-0.286-0.168-0.397-0.427-0.409-0.663-0.014-0.285 0.159-0.53 0.245-0.558 0.18-0.058 0.401 0.282 0.651 0.356h2e-3c0.037-0.271 0.25-0.434 0.383-0.443 0.116-7e-3 0.212 0.162 0.349 0.284 0.192 0.174 0.286 0.371 0.255 0.706" fill="#cc7c4b"/>
  </g>
  <g transform="matrix(30.106 -1.7538 -1.7538 -30.106 -55.211 794.62)">
   <path d="m0 0s-1e-3 5e-3 0 0" fill="#cc7c4b"/>
  </g>
  <g transform="matrix(30.106 -1.7538 -1.7538 -30.106 -37.054 784.34)">
   <path d="m0 0c-0.473-0.354-0.931-0.431-1.585-0.269-0.059-0.22-0.027-0.504 0.119-0.698 0.119-0.16 0.389-0.314 0.458-0.306 0.072 8e-3 0.219 0.173 0.298 0.297 0.089 0.138 0.118 0.272 0.119 0.399 0.091-0.389 0.515-0.728 0.677-0.689 0.077 0.019 0.191 0.222 0.22 0.368 0.053 0.262-0.031 0.769-0.306 0.898" fill="#cc7c4b"/>
  </g>
  <g transform="matrix(30.106 -1.7538 -1.7538 -30.106 -89.067 541.44)">
   <path d="m0 0c0.298 0.081 0.649-0.304 0.78-0.79 0.099-0.367 0.095-1.008-0.303-1.112-0.438-0.116-0.691 0.481-0.758 0.776-0.096 0.418-0.121 1.017 0.281 1.126" fill="#414042"/>
  </g>
  <g transform="matrix(30.106 -1.7538 -1.7538 -30.106 -83.188 558.96)">
   <path d="m0 0c0.107 0.036 0.215-0.128 0.256-0.324 0.024-0.113 0.04-0.371-0.084-0.406-0.107-0.031-0.213 0.132-0.26 0.314-0.039 0.154-0.026 0.377 0.088 0.416" fill="#fff"/>
  </g>
  <g transform="matrix(30.106 -1.7538 -1.7538 -30.106 -197.47 569.79)">
   <path d="m0 0c0.33 0.092 0.666-0.405 0.757-0.875 0.092-0.483 0.088-1.02-0.321-1.113-0.368-0.084-0.677 0.429-0.776 0.783-0.126 0.447-0.074 1.09 0.34 1.205" fill="#414042"/>
  </g>
  <g transform="matrix(30.106 -1.7538 -1.7538 -30.106 -192.47 588.5)">
   <path d="m0 0c0.144 0.05 0.234-0.229 0.253-0.331 0.031-0.18 0.03-0.365-0.078-0.399-0.106-0.034-0.222 0.139-0.256 0.329-0.021 0.116-0.047 0.357 0.081 0.401" fill="#fff"/>
  </g>
  <g transform="matrix(30.106 -1.7538 -1.7538 -30.106 -154.85 609.86)">
   <path d="m0 0c0.207-0.191 0.686-0.537 0.94-0.469s0.639 0.652 0.703 0.933c0.044-0.303 0.026-1.401-0.598-1.53-0.388-0.08-0.933 0.604-1.045 1.066" fill="#f7955b"/>
  </g>
  <g transform="matrix(30.106 -1.7538 -1.7538 -30.106 -253.79 734.11)">
   <path d="m0 0c0.215-0.4 0.845-0.789 1.326-0.761 0.033-0.134 0.403-0.736 0.538-0.845-0.532-0.037-1.776 1.201-1.864 1.606" fill="#d1ae94"/>
  </g>
  <g transform="matrix(30.106 -1.7538 -1.7538 -30.106 -221.09 732.61)">
   <path d="m0 0c0.252-0.188 0.524-0.271 0.647-0.212 0.122 0.058 0.251 0.221 0.338 0.546 0.019-0.135 0.012-0.832-0.185-0.872-0.196-0.04-0.574 0.101-0.8 0.538" fill="#d1ae94"/>
  </g>
  <g transform="matrix(30.106 -1.7538 -1.7538 -30.106 -17.847 755.99)">
   <path d="m0 0c0.273 4e-3 0.628 0.191 0.907 0.489-0.126-0.188-0.757-0.991-1.286-1.153 0.096 0.136 0.329 0.519 0.379 0.664" fill="#d1ae94"/>
  </g>
  <g transform="matrix(30.106 -1.7538 -1.7538 -30.106 -153.98 742.65)">
   <path d="m0 0c0.564-0.036 1.041 0.391 1.27 0.716 0.241-0.519 0.713-0.738 1.239-0.771 0.503-0.032 1.327 0.558 1.43 0.905l-1e-3 1e-3c-0.318-0.305-1.09-0.749-1.429-0.728-0.605 0.038-0.911 0.283-1.129 0.661-0.053 0.09-0.185 0.077-0.233 7e-3 -0.187-0.272-0.629-0.579-1.133-0.547-0.579 0.037-1.136 0.668-1.367 0.946 0.089-0.351 0.751-1.152 1.353-1.19" fill="#009776"/>
  </g>
  <g transform="matrix(30.106 -1.7538 -1.7538 -30.106 -123.28 632.52)">
   <path d="m0 0c-0.172-0.045-0.58 0.172-0.87 0.483 0.214-0.399 0.611-0.8 0.913-0.738 0.405 0.083 0.555 0.574 0.598 0.992-0.136-0.397-0.357-0.663-0.641-0.737" fill="#cc7c4b"/>
  </g>
  <g transform="matrix(30.106 -1.7538 -1.7538 -30.106 -115.03 771.22)">
   <path d="m0 0c-0.579 0.036-0.782-0.193-1.491-0.149-0.576 0.037-1.316 0.454-1.651 0.812 0.287-0.602 0.926-1.324 1.715-1.374 0.539-0.034 0.948 0.076 1.406 0.321 0.281-0.241 0.829-0.491 1.452-0.53 0.926-0.059 1.484 0.561 1.787 1.166-0.267-0.294-1.025-0.685-1.732-0.64-0.739 0.046-0.955 0.36-1.486 0.394" fill="#d1d3d4"/>
  </g>
  <g transform="matrix(30.106 -1.7538 -1.7538 -30.106 -192.51 781.82)">
   <path d="m0 0c-0.96 0.218-2.01 1.161-2.304 2.274-0.745 2.82 0.264 6.403 3.912 7.228 3.64 0.825 6.295-2.528 6.079-5.951-0.093-1.489-1.029-3.341-2.304-3.796-0.035-0.013 0.061 0.146 0.103 0.164 0.917 0.404 1.92 1.866 2.032 3.642 0.208 3.298-2.321 6.588-5.882 5.81-3.198-0.699-4.562-3.988-3.774-7.02 0.269-1.036 1.17-1.916 1.999-2.197 0.043-0.015 0.144-0.155 0.139-0.154" fill="#061922"/>
  </g>
  <g transform="matrix(30.106 -1.7538 -1.7538 -30.106 -70.358 798.44)">
   <path d="m0 0c-0.651 0.041-1.177 0.314-1.452 0.533-0.48-0.25-0.893-0.356-1.406-0.324-1.014 0.064-1.851 1.136-1.961 2.108-4e-3 0.037 0.129-0.091 0.136-0.125 0.222-1.083 1.118-1.803 1.834-1.848 0.499-0.032 0.895 0.041 1.369 0.295 0.024 0.013 0.054 0.01 0.075-8e-3 0.248-0.212 0.767-0.456 1.413-0.497 1.22-0.077 1.901 1.127 2.029 2.086 9e-3 0.062 0.129 0.213 0.126 0.176-0.065-1.039-0.771-2.484-2.163-2.396" fill="#061922"/>
  </g>
  <g transform="matrix(30.106 -1.7538 -1.7538 -30.106 -210.74 746.17)">
   <path d="m0 0c-0.363 0.262-0.626 0.811-0.693 1.345-0.022 0.171 0.069 0.174 0.089 6e-3 0.093-0.756 0.683-1.447 1.063-1.353 0.112 0.064 0.252 0.675 0.149 0.949-0.013 0.035 0.133-0.072 0.139-0.17 0.019-0.326-0.074-0.864-0.256-0.91-0.109-0.027-0.298-7e-3 -0.491 0.133" fill="#061922"/>
  </g>
  <g transform="matrix(30.106 -1.7538 -1.7538 -30.106 -35.82 747.7)">
   <path d="m0 0c-0.18 0.046-0.332 0.357-0.309 0.773 1e-3 0.027 0.119 0.121 0.115 0.084-0.047-0.423 0.116-0.698 0.214-0.723 0.301-0.077 0.89 0.529 1.023 1.228 0.044 0.228 0.135 0.219 0.091-0.013-0.12-0.643-0.696-1.463-1.134-1.349" fill="#061922"/>
  </g>
  <g transform="matrix(30.106 -1.7538 -1.7538 -30.106 -195.1 709.27)">
   <path d="m0 0c0.107-0.329 0.736-1.068 1.298-1.103 0.513-0.032 0.974 0.314 1.213 0.651 0.03 0.043 0.074 0.08 0.116-0.01 0.259-0.56 0.782-0.696 1.178-0.703 0.501-9e-3 1.26 0.517 1.378 0.827-0.196 0.514-0.745 1.065-1.353 1.103-0.473 0.03-0.954-0.246-1.122-0.654-0.052-0.125-0.088-0.084-0.124-1e-3 -0.23 0.526-0.91 0.712-1.131 0.726-0.729 0.046-1.253-0.543-1.453-0.836m1.291-1.269c-0.646 0.041-1.308 0.909-1.396 1.258-5e-3 0.018-2e-3 0.038 9e-3 0.053 0.2 0.301 0.738 0.996 1.558 0.944 0.264-0.017 0.895-0.254 1.184-0.738 0.228 0.392 0.718 0.706 1.198 0.675 0.674-0.042 1.233-0.673 1.437-1.233 5e-3 -0.014 5e-3 -0.029 1e-3 -0.042-0.116-0.391-0.9-0.963-1.473-0.957-0.599 7e-3 -1.022 0.293-1.25 0.736-0.273-0.341-0.745-0.729-1.268-0.696" fill="#061922"/>
  </g>
  <g transform="matrix(30.106 -1.7538 -1.7538 -30.106 -148.45 709.2)">
   <path d="m0 0c0.167-0.018 0.465-0.031 0.637-0.028 0.152 3e-3 0.154-0.137-6e-3 -0.135-0.176 3e-3 -0.491 0.053-0.639 0.077-0.166 0.026-0.154 0.103 8e-3 0.086" fill="#061922"/>
  </g>
  <g transform="matrix(30.106 -1.7538 -1.7538 -30.106 -100.44 712.57)">
   <path d="m0 0c-0.159 0.016-0.148 0.151 4e-3 0.134 0.203-0.022 0.582-0.049 0.764-0.054 0.158-3e-3 0.162-0.089 0-0.092-0.226-4e-3 -0.643-1e-3 -0.768 0.012" fill="#061922"/>
  </g>
  <g transform="matrix(30.106 -1.7538 -1.7538 -30.106 -187.69 825.57)">
   <path d="m0 0c-0.128 0.041-0.309 0.329-0.293 0.632 8e-3 0.168 0.087 0.469 0.406 0.682 0.016 0.011 0.128-0.047 0.096-0.066-0.309-0.181-0.361-0.474-0.368-0.623-0.014-0.267 0.157-0.461 0.204-0.476 0.065-0.021 0.165 0.05 0.268 0.133 0.1 0.081 0.21 0.16 0.334 0.196 0.036 0.011 0.076-0.09 0.04-0.1-0.098-0.029-0.196-0.099-0.289-0.191-0.116-0.115-0.269-0.229-0.398-0.187" fill="#061922"/>
  </g>
  <g transform="matrix(30.106 -1.7538 -1.7538 -30.106 -155.95 826.7)">
   <path d="m0 0c-0.322 0.02-0.639 0.541-0.278 1.1 0.02 0.031 0.118-0.016 0.097-0.047-0.279-0.418-0.089-0.881 0.191-0.893 0.087-4e-3 0.223 0.191 0.3 0.257 0.169 0.145 0.272 0.347 0.246 0.635-4e-3 0.037 0.098 0.054 0.101 0.017 0.031-0.332-0.027-0.556-0.258-0.752-0.07-0.06-0.223-0.33-0.399-0.317" fill="#061922"/>
  </g>
  <g transform="matrix(30.106 -1.7538 -1.7538 -30.106 -65.107 826.45)">
   <path d="m0 0c-6e-3 -1e-3 7e-3 0 0 0" fill="#061922"/>
  </g>
  <g transform="matrix(30.106 -1.7538 -1.7538 -30.106 -53.863 793.86)">
   <path d="m0 0c-8e-3 0.036-0.112 0.012-0.104-0.024 0.041-0.198 0.056-0.415-0.089-0.642-0.098-0.152-0.201-0.239-0.247-0.242-0.049-4e-3 -0.286 0.115-0.398 0.264-0.123 0.164-0.175 0.419-0.116 0.638 0.01 0.036-0.102 0.062-0.112 0.026-0.071-0.261-0.028-0.546 0.121-0.745 0.113-0.15 0.388-0.35 0.509-0.347 0.122 4e-3 0.308 0.255 0.358 0.343 0.158 0.277 0.122 0.514 0.078 0.729" fill="#061922"/>
  </g>
  <g transform="matrix(30.106 -1.7538 -1.7538 -30.106 -53.603 807.39)">
   <path d="m0 0c-0.024 0.058 0.028 0.261 0.036 0.225 0.081-0.362 0.465-0.731 0.632-0.673 0.063 0.022 0.136 0.15 0.165 0.294 0.052 0.257-0.026 0.726-0.257 0.834-0.034 0.016 0.071 0.084 0.088 0.072 0.278-0.185 0.344-0.7 0.301-0.932-0.029-0.152-0.148-0.398-0.267-0.427-0.184-0.045-0.551 0.249-0.698 0.607" fill="#061922"/>
  </g>
  <g transform="matrix(30.106 -1.7538 -1.7538 -30.106 -146.48 546.54)">
   <path d="m0 0c-0.46-0.134-0.532-1.159-0.439-1.697 0.111-0.648 0.682-1.483 1.102-1.372 0.502 0.133 0.638 1.086 0.495 1.724-0.235 1.048-0.866 1.43-1.158 1.345m-0.594-1.725c-0.083 0.45-0.036 1.683 0.57 1.844 0.485 0.128 1.142-0.505 1.327-1.428 0.134-0.665-7e-3 -1.719-0.605-1.89-0.405-0.116-1.125 0.564-1.292 1.474" fill="#061922"/>
  </g>
  <g transform="matrix(30.106 -1.7538 -1.7538 -30.106 -154.58 607.2)">
   <path d="m0 0c0.209-0.268 0.723-0.53 0.922-0.477 0.257 0.069 0.591 0.624 0.683 0.943 0.011 0.035 0.058-0.163 0.033-0.224-0.128-0.312-0.388-0.773-0.681-0.849-0.203-0.052-0.597 0.113-0.867 0.356-0.072 0.065-0.113 0.28-0.09 0.251" fill="#061922"/>
  </g>
  <g transform="matrix(30.106 -1.7538 -1.7538 -30.106 -128.16 622.39)">
   <path d="m0 0c-0.015 0.052-0.057 0.338-0.088 0.531-0.034 0.207 0.064 0.223 0.098 0.018 0.031-0.185 0.11-0.472 0.124-0.52 0.01-0.036-0.126-0.057-0.134-0.029" fill="#061922"/>
  </g>
  <g transform="matrix(30.106 -1.7538 -1.7538 -30.106 -88.528 543.11)">
   <path d="m0 0c-0.423-0.114-0.266-0.9-0.23-1.055 0.1-0.441 0.375-0.805 0.675-0.726 0.305 0.08 0.374 0.593 0.256 1.03-0.157 0.58-0.516 0.801-0.701 0.751m-0.361-1.085c-0.057 0.247-0.182 1.061 0.327 1.199 0.249 0.067 0.679-0.143 0.865-0.83 0.163-0.604 2e-3 -1.095-0.352-1.189-0.387-0.102-0.719 0.286-0.84 0.82" fill="#061922"/>
  </g>
  <g transform="matrix(30.106 -1.7538 -1.7538 -30.106 -196.82 571.71)">
   <path d="m0 0c-0.348-0.097-0.422-0.627-0.286-1.112 0.091-0.326 0.369-0.819 0.689-0.746 0.371 0.085 0.347 0.595 0.265 1.021-0.112 0.58-0.422 0.905-0.668 0.837m-0.432-1.164c-0.161 0.574-0.013 1.18 0.396 1.294 0.293 0.081 0.719-0.248 0.849-0.924 0.133-0.694-0.027-1.119-0.38-1.195-0.341-0.074-0.736 0.366-0.865 0.825" fill="#061922"/>
  </g>
  <g transform="matrix(30.106 -1.7538 -1.7538 -30.106 -199.4 533.3)">
   <path d="m0 0c-0.719-0.224-1.319-0.89-1.533-1.668-0.188-0.682-0.036-1.472 0.402-2.086 0.399-0.56 0.987-0.897 1.63-0.938 0.679-0.042 1.357 0.296 1.735 0.657 0.105 0.101 0.245 0.122 0.373 0.058 0.476-0.237 1.083-0.275 1.576-0.124 1.208 0.368 1.822 1.896 1.461 2.96-0.497 1.464-1.792 1.91-2.742 1.685-0.609-0.144-0.911-0.481-0.99-0.576-0.162-0.195-0.266-0.227-0.472-0.125-0.471 0.235-0.997 0.295-1.44 0.157m0.476-4.817c-0.685 0.043-1.301 0.379-1.725 0.972-0.46 0.646-0.626 1.502-0.429 2.222 0.227 0.821 0.88 1.491 1.642 1.729 0.472 0.147 1.056 0.097 1.536-0.143 0.157-0.078 0.195-0.046 0.308 0.091 0.229 0.276 0.629 0.497 1.068 0.6 0.834 0.198 2.347-0.086 2.91-1.763 0.384-1.146-0.329-2.755-1.569-3.116-0.528-0.154-1.167-0.101-1.673 0.151-0.078 0.039-0.155 0.028-0.22-0.034-0.4-0.382-1.129-0.755-1.848-0.709" fill="#061922"/>
  </g>
 </g>
</svg>
