<?xml version="1.0" encoding="UTF-8"?>
<!-- Created with Inkscape (http://www.inkscape.org/) -->
<svg version="1.1" viewBox="0 0 289.94 326.17" xmlns="http://www.w3.org/2000/svg" xmlns:cc="http://creativecommons.org/ns#" xmlns:dc="http://purl.org/dc/elements/1.1/" xmlns:rdf="http://www.w3.org/1999/02/22-rdf-syntax-ns#">
 <metadata>
  <rdf:RDF>
   <cc:Work rdf:about="">
    <dc:format>image/svg+xml</dc:format>
    <dc:type rdf:resource="http://purl.org/dc/dcmitype/StillImage"/>
   </cc:Work>
  </rdf:RDF>
 </metadata>
 <g transform="translate(-79.698 -315.28)">
  <g transform="matrix(18.918 0 0 -18.918 -14749 17655)">
   <g transform="translate(796.19 902.15)">
    <path d="m0 0c1.438 0.719 2.82 2.924 2.82 5.659 0 2.262-0.618 4.224-1.648 5.669-1.348 1.893-3.654 2.978-5.277 2.978-5.605 0-8.094-5.026-8.094-8.568 0-4.522 2.924-6.186 3.285-6.054 0.21 0.075 0.574 1.498 0.404 2.136 0.184-0.197 0.545-0.409 0.713-0.355 0.169 0.053 0.502 0.632 0.563 0.848-0.158 0.178-0.403 0.602-0.387 0.69 0.133 0.805 1.016 1.64 2.115 1.64 0.869 0 1.497-0.307 1.824-0.965 0.579 0.804 1.084 1.143 1.805 1.143 1.475 0 2.114-1.676 2.114-1.773 0-0.074-0.348-0.602-0.772-0.877 0.074-0.162 0.26-0.452 0.424-0.475 0.164-0.021 0.739 0.486 0.922 0.866-0.01-0.353-0.061-0.978-0.218-1.401-0.155-0.422-0.593-1.161-0.593-1.161" fill="#fbd8b5"/>
   </g>
   <g transform="translate(797 904.71)">
    <path d="m0 0c0-2.37-1.727-3.858-3.758-3.858-0.469 0-1.1 0.208-1.475 0.484-0.521-0.308-1.125-0.573-2.029-0.573-1.146 0-2.089 0.613-2.463 1.069 0.136 0.12 0.322 0.587 0.381 1.032s0.049 0.828 0.024 1.104c0.168-0.176 0.515-0.396 0.713-0.355 0.199 0.039 0.427 0.463 0.562 0.848 0.199-0.245 0.867-0.833 1.604-0.833 0.92 0 1.681 0.46 1.959 1.025 0.339-0.385 0.994-0.8 1.562-0.8 0.664 0 1.246 0.182 1.574 0.466 0.082-0.17 0.297-0.473 0.424-0.475 0.423-7e-3 0.922 0.866 0.922 0.866" fill="#fff"/>
   </g>
   <g transform="translate(791.84 902.03)">
    <path d="m0 0c-0.431 0-1.04-0.237-2.227-0.237-0.89 0-1.499 0.193-2.024 0.733-0.085-0.323-0.214-0.607-0.314-0.698 0.374-0.456 1.316-1.069 2.462-1.069 0.904 0 1.508 0.265 2.029 0.574 0.375-0.277 1.007-0.485 1.475-0.485 1.441 0 2.729 0.749 3.356 2.03-0.842-0.722-2.074-1.115-2.93-1.115-0.98 0-1.397 0.267-1.827 0.267" fill="#dcdddd"/>
   </g>
   <g transform="translate(790.69 906.79)">
    <path d="m0 0c-1.021 0-1.861-0.664-2.115-1.639 0.189-0.792 1.218-1.514 2.041-1.514 0.841 0 1.493 0.412 1.781 0.856 0.105 0.155 0.147 0.164 0.316-0.013 0.308-0.31 0.881-0.613 1.465-0.613 1.061 0 1.865 0.579 2.255 1.328-0.321 1.061-1.202 1.766-2.077 1.766-0.65 0-1.354-0.345-1.842-1.18-0.416 0.742-0.881 1.009-1.824 1.009" fill="#00ab84"/>
   </g>
   <g transform="translate(794.31 904.12)">
    <path d="m0 0c-0.656 0-1.287 0.279-1.563 0.554-0.178 0.179-0.332 0.161-0.445 0.01-0.293-0.391-0.848-0.772-1.711-0.772-0.699 0-1.465 0.636-1.998 1.154 0.238-0.76 1.223-1.435 2.018-1.435 0.841 0 1.493 0.412 1.781 0.855 0.105 0.156 0.147 0.164 0.316-0.012 0.308-0.311 0.881-0.614 1.465-0.614 1.061 0 1.865 0.58 2.255 1.329l-0.013 0.039c-0.523-0.585-1.4-1.108-2.105-1.108" fill="#009573"/>
   </g>
   <g transform="translate(790.2 914.88)">
    <path d="m0 0c-1.87 0-3.451-1.832-3.451-3.819 0-1.648 1.24-3.691 3.423-3.691 0.814 0 1.619 0.358 2.106 0.766 0.155 0.131 0.253 0.154 0.45-9e-3 0.428-0.347 1.248-0.638 1.862-0.638 1.615 0 3.099 1.381 3.099 3.47 0 1.848-1.504 3.807-3.346 3.807-0.624 0-1.331-0.204-1.792-0.568-0.127-0.099-0.202-0.093-0.328-0.015-0.088 0.057-0.938 0.697-2.023 0.697" fill="#fff"/>
   </g>
   <g transform="translate(789.53 912.75)">
    <path d="m0 0c0.527 0 0.9-0.708 0.9-1.707 0-0.683-0.377-1.402-0.853-1.402-0.517 0-0.936 0.734-0.936 1.499 0 1.136 0.516 1.61 0.889 1.61" fill="#3e3a39"/>
   </g>
   <g transform="translate(789.58 911.84)">
    <path d="m0 0c0.125 0 0.229-0.271 0.229-0.597 0-0.321-0.122-0.53-0.237-0.53-0.123 0-0.215 0.225-0.215 0.512 0 0.308 0.094 0.615 0.223 0.615" fill="#fff"/>
   </g>
   <g transform="translate(795.01 912.69)">
    <path d="m0 0c0.498 0 0.809-0.655 0.809-1.414 0-0.835-0.307-1.388-0.748-1.388-0.411 0-0.821 0.454-0.821 1.377 0 0.918 0.397 1.425 0.76 1.425" fill="#3e3a39"/>
   </g>
   <g transform="translate(795.06 911.86)">
    <path d="m0 0c0.113 0 0.239-0.207 0.239-0.571 0-0.327-0.095-0.553-0.229-0.553-0.139 0-0.258 0.261-0.258 0.553 0 0.356 0.153 0.571 0.248 0.571" fill="#fff"/>
   </g>
   <g transform="translate(789.16 900.32)">
    <path d="m0 0c0-0.414 0.318-0.935 0.668-0.935 0.466 0 0.708 0.452 0.708 0.895 0 0.15-0.028 0.389-0.134 0.534-0.351-0.041-0.804-0.093-1.22-4e-3 -0.415 0.088-0.905 0.245-1.134 0.378-0.118-0.238-0.23-0.504-0.238-0.757-0.013-0.424 0.146-0.84 0.504-0.972 0.223-0.082 0.437 0.062 0.541 0.186 0.245 0.281 0.305 0.675 0.305 0.675" fill="#d28444"/>
   </g>
   <g transform="translate(794.99 901.25)">
    <path d="m0 0c0.412-0.155 0.643-0.554 0.604-1.053-0.015-0.193-0.332-0.51-0.456-0.51-0.125 0-0.474 0.243-0.584 0.365-0.056-0.215-0.121-0.467-0.296-0.474-0.175-8e-3 -0.382-0.03-0.598 0.215-0.217 0.244-1.011 1.142-1.011 1.142 0.334-0.102 0.891-0.125 1.345-0.021 0.452 0.104 0.996 0.336 0.996 0.336" fill="#d28444"/>
   </g>
   <g transform="translate(787.23 904.72)">
    <path d="m 0,0 c 0.166,-0.386 0.86,-0.838 1.046,-0.78 0.163,0.052 0.4,0.288 0.564,0.617 L 1.729,-0.297 C 1.654,-0.55 1.38,-1.041 1.194,-1.113 1.009,-1.189 0.571,-0.936 0.378,-0.698 0.186,-0.461 0,0 0,0" fill="#d9bb9e"/>
   </g>
   <g transform="translate(787.44 904.25)">
    <path d="m0 0c-8e-3 -0.216-0.359-1.155-0.75-1.3-0.422-0.157-1.113 0.052-1.463 0.484 0.574-0.919 1.721-1.763 2.047-1.606 0.113 0.053 0.336 0.64 0.395 1.1 0.06 0.459 0.052 1.002 0.052 1.002-0.14 0.126-0.281 0.32-0.281 0.32" fill="#d9bb9e"/>
   </g>
   <g transform="translate(795.87 904.42)">
    <path d="m0 0c0.066-0.105 0.148-0.231 0.26-0.253 0.111-0.022 0.712 0.29 0.838 0.52-0.149-0.304-0.608-0.869-0.883-0.848-0.276 0.024-0.424 0.476-0.424 0.476z" fill="#d9bb9e"/>
   </g>
   <g transform="translate(796.89 903.67)">
    <path d="m 0,0 c 0.337,-0.216 0.792,-0.019 1.179,0.475 -0.444,-0.948 -1.27,-1.683 -1.862,-1.949 0.268,0.436 0.426,0.733 0.526,1 C -0.06,-0.207 0,0 0,0" fill="#d9bb9e"/>
   </g>
   <g transform="translate(792.09 916.55)">
    <path d="m0 0c-5.637 0-8.262-4.925-8.262-8.67 0-4.529 2.969-6.337 3.489-6.149 0.289 0.106 0.591 1.486 0.49 2.15l-0.225 0.12c0.163-0.613-0.171-2.01-0.306-2.05-0.149-0.043-0.85 0.677-1.104 1.363-0.193 0.524-0.319 0.475-0.123-0.055 0.154-0.417 0.408-0.829 0.67-1.123-0.084 0.053-0.176 0.113-0.275 0.189-2.178 1.645-2.345 4.67-2.345 5.555 0 3.516 2.477 8.468 7.991 8.468 3.022 0 6.825-2.866 6.825-8.547 0-2.67-1.313-4.76-2.649-5.507l-0.156-0.291c1.523 0.762 3.044 2.9 3.044 5.798 0 5.477-3.519 8.749-7.064 8.749" fill="#0d131a"/>
   </g>
   <g transform="translate(786.85 905.78)">
    <path d="m0 0c-0.047 0.397 0.088 0.409 0.133 0.015 0.163-1.324 0.939-2.136 1.398-2.08 0.094 0.024 0.399 0.47 0.499 0.808l0.158-0.163c-0.127-0.33-0.42-0.819-0.631-0.846-0.491-0.062-1.354 0.615-1.557 2.266" fill="#0d131a"/>
   </g>
   <g transform="translate(789.74 900.64)">
    <path d="m0 0c-0.938 0-2.088 0.512-2.576 1.129l0.212 0.081c0.426-0.537 1.509-0.99 2.364-0.99 0.779 0 1.537 0.252 1.934 0.522 0.4 0.274 0.488 0.141 0.094-0.138-0.537-0.381-1.262-0.604-2.028-0.604" fill="#0d131a"/>
   </g>
   <g transform="translate(793.24 900.74)">
    <path d="m0 0c-0.499 0-1.124 0.209-1.53 0.509l0.114 0.121c0.37-0.237 0.99-0.422 1.421-0.422 1.781 0 3.586 1.24 3.656 3.614l0.231 0.281c0-2.305-1.512-4.103-3.892-4.103" fill="#0d131a"/>
   </g>
   <g transform="translate(796.08 903.71)">
    <path d="m0 0c-0.16 0-0.322 0.212-0.508 0.558l0.178 0.094c0.089-0.17 0.26-0.421 0.342-0.421 0.277 0 1.092 0.882 1.162 1.75 0.031 0.422 0.176 0.417 0.144-7e-3 -0.072-0.937-0.869-1.974-1.318-1.974" fill="#0d131a"/>
   </g>
   <g transform="translate(788.67 905.15)">
    <path d="m0 0c0.189-0.717 1.143-1.413 1.938-1.413 0.759 0 1.388 0.363 1.677 0.776 0.186 0.269 0.265 0.276 0.481 0.051 0.279-0.292 0.83-0.597 1.404-0.597 0.926 0 1.725 0.461 2.147 1.239-0.309 0.961-1.131 1.654-1.969 1.654-0.645 0-1.242-0.355-1.658-0.979-0.14-0.209-0.211-0.234-0.365 7e-3 -0.378 0.595-0.816 0.801-1.643 0.801-0.954 0-1.76-0.617-2.012-1.539m1.938-1.628c-0.903 0-1.942 0.787-2.139 1.604l2e-3 0.05c0.267 1.025 1.154 1.736 2.211 1.736 0.91 0 1.406-0.263 1.826-0.936 0.457 0.692 1.118 1.103 1.84 1.103 0.951 0 1.843-0.772 2.176-1.854l-8e-3 -0.077c-0.453-0.866-1.33-1.397-2.346-1.397-0.701 0-1.354 0.417-1.64 0.778-0.276-0.51-0.987-1.007-1.922-1.007" fill="#0d131a"/>
   </g>
   <g transform="translate(792.02 905.1)">
    <path d="m0 0c-0.199 0.053-0.82 0.106-1.215 0.097-0.402-0.011-0.398 0.141 0.016 0.148 0.355 6e-3 1.013 0.013 1.253-0.051 0.243-0.067 0.144-0.25-0.054-0.194" fill="#0d131a"/>
   </g>
   <g transform="translate(792.9 905.28)">
    <path d="m0 0c0.182 0.035 0.623 0.065 0.957 0.031 0.303-0.029 0.297-0.172-5e-3 -0.155-0.296 0.018-0.746-0.041-0.914-0.074-0.216-0.044-0.304 0.148-0.038 0.198" fill="#0d131a"/>
   </g>
   <g transform="translate(790.2 914.78)">
    <path d="m0 0c-1.786 0-3.351-1.737-3.351-3.718 0-1.506 1.157-3.589 3.323-3.589 0.849 0 1.631 0.4 2.043 0.743 0.078 0.067 0.168 0.128 0.277 0.128 0.09 0 0.186-0.043 0.301-0.137 0.418-0.339 1.222-0.615 1.797-0.615 1.877 0 2.998 1.712 2.998 3.369 0 1.714-1.418 3.706-3.245 3.706-0.63 0-1.31-0.215-1.732-0.546l-0.228-0.096-0.213 0.074-0.037 0.024c-0.796 0.544-1.49 0.657-1.933 0.657m-0.028-7.51c-2.36 0-3.557 2.133-3.557 3.759 0 2.173 1.657 3.954 3.585 3.954 0.472 0 1.209-0.12 2.046-0.691l0.03-0.021 0.107-0.044 0.105 0.052c0.463 0.363 1.172 0.59 1.855 0.59 2.125 0 3.475-2.228 3.475-3.937 0-2.174-1.475-3.544-3.228-3.544-0.623 0-1.469 0.292-1.926 0.663l-0.172 0.091-0.148-0.082c-0.437-0.363-1.268-0.79-2.172-0.79" fill="#0d131a"/>
   </g>
   <g transform="translate(789.53 912.65)">
    <path d="m0 0c-0.304 0-0.786-0.41-0.786-1.509 0-0.733 0.395-1.398 0.833-1.398 0.387 0 0.752 0.633 0.752 1.302 0 0.93-0.337 1.605-0.799 1.605m0.047-3.11c-0.551 0-1.051 0.748-1.051 1.601 0 1.255 0.606 1.71 1.004 1.71 0.589 0 1.023-0.743 1.023-1.806 0-0.712-0.413-1.505-0.976-1.505" fill="#0d131a"/>
   </g>
   <g transform="translate(795.01 912.59)">
    <path d="m0 0c-0.316 0-0.66-0.506-0.66-1.324 0-0.876 0.372-1.276 0.721-1.276 0.378 0 0.648 0.529 0.648 1.287 0 0.748-0.305 1.313-0.709 1.313m0.061-2.802c-0.444 0-0.94 0.463-0.94 1.478 0 0.991 0.463 1.525 0.879 1.525 0.526 0 0.921-0.623 0.921-1.502 0-0.89-0.354-1.501-0.86-1.501" fill="#0d131a"/>
   </g>
   <g transform="translate(788.4 899.36)">
    <path d="m0 0c-0.34 0-0.705 0.418-0.705 0.996 0 0.334 0.17 0.713 0.289 0.871l0.156-0.127c-0.088-0.118-0.228-0.455-0.228-0.744 0-0.487 0.252-0.814 0.488-0.814 0.35 0 0.644 0.37 0.679 0.864 0.017 0.269 0.173 0.26 0.151-0.015-0.043-0.606-0.367-1.031-0.83-1.031" fill="#0d131a"/>
   </g>
   <g transform="translate(789.83 899.31)">
    <path d="m0 0c-0.35 0-0.656 0.385-0.743 0.793l0.106 0.18c0.066-0.35 0.355-0.793 0.637-0.793 0.274 0 0.607 0.395 0.607 0.793 0 0.146-0.031 0.358-0.115 0.475l0.196 0.068c0.111-0.194 0.127-0.469 0.127-0.552 0-0.518-0.452-0.964-0.815-0.964" fill="#0d131a"/>
   </g>
   <g transform="translate(793.54 899.78)">
    <path d="m0 0c-0.145 0.17-0.848 0.96-0.972 1.094l0.297-0.03c0.256-0.292 0.718-0.821 0.819-0.938 0.118-0.141 0.393-0.274 0.53-0.223 0.127 0.046 0.25 0.383 0.246 0.479-0.012 0.254-0.143 0.59-0.346 0.708l0.207 0.098c0.232-0.208 0.354-0.569 0.365-0.792 6e-3 -0.126-0.149-0.58-0.404-0.674-0.217-0.079-0.56 0.063-0.742 0.278" fill="#0d131a"/>
   </g>
   <g transform="translate(795.13 899.61)">
    <path d="m 0,0 c -0.155,0 -0.462,0.196 -0.607,0.329 l 0.099,0.186 C -0.396,0.387 -0.073,0.186 0,0.183 0.076,0.194 0.344,0.455 0.355,0.6 0.388,1.056 0.188,1.413 -0.184,1.552 L 0.018,1.681 C 0.388,1.48 0.61,1.072 0.572,0.585 0.556,0.359 0.189,0 0,0" fill="#0d131a"/>
   </g>
   <g transform="translate(791.26 909.84)">
    <path d="m0 0c0.157-0.206 0.947-0.815 1.35-0.79 0.401 0.025 0.748 0.311 0.887 0.428-0.042-0.396-0.674-1.012-1.11-0.947-0.436 0.066-0.996 0.732-1.127 1.309" fill="#f3994f"/>
   </g>
   <g transform="translate(792.51 910.49)">
    <path d="m0 0c0.217-0.019 0.871-0.532 0.854-1.09 0.137 0.072 0.304 0.419 0.339 0.567-0.131 0.2-0.531 0.627-1.193 0.523" fill="#932f00"/>
   </g>
   <g transform="translate(792.51 910.49)">
    <path d="m0 0c0.236-0.036 0.88-0.427 0.854-1.09-0.174-0.311-0.602-0.372-0.817-0.364-0.219 9e-3 -1.122 0.56-1.283 0.799 0.178 0.245 0.977 0.68 1.246 0.655" fill="#cf7487"/>
   </g>
   <g transform="translate(793.36 909.52)">
    <path d="m0 0c-0.719 0.418-1.288 0.22-1.678-0.04 0.323-0.221 0.729-0.438 0.865-0.444 0.215-9e-3 0.643 0.052 0.817 0.363z" fill="#ee869a"/>
   </g>
   <g transform="translate(791.22 909.93)">
    <path d="m0 0c0.518 0.469 1.005 0.7 1.548 0.7 0.378 0 0.81-0.369 0.994-0.626l-0.141-0.108c-0.178 0.251-0.582 0.532-0.853 0.532-0.497 0-0.956-0.206-1.44-0.647z" fill="#0d131a"/>
   </g>
   <g transform="translate(792.59 908.97)">
    <path d="m 0,0 c -0.438,0 -1.182,0.573 -1.374,0.843 l 0.141,0.092 C -1.07,0.706 -0.354,0.201 0,0.201 c 0.352,0 0.822,0.301 0.994,0.803 L 1.168,0.938 C 0.96,0.327 0.419,0 0,0" fill="#0d131a"/>
   </g>
   <g transform="translate(793.25 909.41)">
    <path d="m0 0c0 0.357-0.412 1.003-0.829 1.003l0.138 0.128c0.461-0.101 0.839-0.632 0.888-1.045z" fill="#0d131a"/>
   </g>
   <g transform="translate(792.68 910.54)">
    <path d="m0 0c0.011 0.074 0.016 0.317 0.03 0.476 0.037 0.389 0.158 0.374 0.168-0.015 8e-3 -0.209 0.012-0.405 2e-3 -0.487z" fill="#0d131a"/>
   </g>
   <g transform="translate(792.41 913.45)">
    <path d="m0 0c-0.579 0-1.205-1.042-1.205-2.726 0-0.963 0.672-2.063 1.26-2.063 0.652 0 1.263 1.161 1.263 2.061 0 1.641-0.793 2.728-1.318 2.728m0.055-4.965c-0.673 0-1.479 1.047-1.479 2.239 0 1.949 0.762 2.909 1.424 2.909 0.703 0 1.54-1.261 1.54-2.911 0-1.052-0.731-2.237-1.485-2.237" fill="#0d131a"/>
   </g>
  </g>
 </g>
</svg>
