<?xml version="1.0" encoding="UTF-8"?>
<!-- Created with Inkscape (http://www.inkscape.org/) -->
<svg version="1.1" viewBox="0 0 298.49 236.06" xmlns="http://www.w3.org/2000/svg" xmlns:cc="http://creativecommons.org/ns#" xmlns:dc="http://purl.org/dc/elements/1.1/" xmlns:rdf="http://www.w3.org/1999/02/22-rdf-syntax-ns#">
 <defs>
  <clipPath id="clipPath13046-8-8">
   <path d="m800.16 653.48h85.039v45.354h-85.039z"/>
  </clipPath>
 </defs>
 <metadata>
  <rdf:RDF>
   <cc:Work rdf:about="">
    <dc:format>image/svg+xml</dc:format>
    <dc:type rdf:resource="http://purl.org/dc/dcmitype/StillImage"/>
   </cc:Work>
  </rdf:RDF>
 </metadata>
 <g transform="translate(-77.607 -504.62)">
  <g transform="matrix(13.423 0 0 -13.423 -10990 9720.7)">
   <g clip-path="url(#clipPath13046-8-8)">
    <g transform="translate(844.8 672.12)">
     <path d="m0 0c-0.737 0.786-2.239 2.175-2.955 2.688-0.122 0.088-0.153 0.12-0.245 0.254-0.973 1.411-1.453 2.126-2.225 2.272-0.845 0.159-1.442 0.025-2.451-0.478-0.676-0.335-1.379-0.476-2.235-0.45 1.075 2.488 0.019 5.368-3.173 6.383-1.242 1.734-2.899 3.08-3.17 2.974-0.101-0.04-0.147-0.995-0.123-2.018-0.64 0.668-1.707 1.268-1.824 1.223-0.094-0.036 0.146-2.334 0.328-3.44-1.289-1.359-1.768-3.74-1.199-5.769l-0.053-0.167c-0.133-0.1-0.303-0.187-0.338-0.317-0.26-0.963 1.93-3.496 6.246-2.043-0.996-0.663-2.726-1.647-3.692-2.14-1.23-0.349-1.478-1.316-0.985-1.784 0.354-0.333 1.212-0.371 1.729 0.327 1.618 0.556 4.296 1.932 5.807 3.044 0.106 0.077 0.135 0.083 0.291 0.041 1.364-0.36 3.155-0.165 4.524 0.571 1.801-0.284 3.525-1.012 4.665-2.18 0.774-0.876 1.509-0.859 1.803-0.472 0.295 0.391 0.123 1.04-0.725 1.481" fill="#3d4e57"/>
    </g>
    <g transform="translate(828.33 679.38)">
     <path d="m0 0c-0.022 0.09-1.009 0.087-2.233-0.269 0.078 0.306 0.169 0.607 0.269 0.915 0.861 0.329 1.418 0.646 1.418 0.71 0 0.106-0.463 0.229-1.089 0.19 0.081 0.201 0.169 0.411 0.265 0.627 0.076 0.17-0.023 0.179-0.116 0.093-0.93-0.857-1.827-2.897-1.462-5.184 0.067-0.106 0.146-0.049 0.174 0.095 0.095 0.494 0.177 0.939 0.265 1.356 1.3 0.544 2.531 1.369 2.509 1.467" fill="#e8382f"/>
    </g>
    <g transform="translate(825.13 675.25)">
     <path d="m0 0c0.022 0.095 0.144 0.232 0.274 0.304 0.194 0.048 0.422 0.025 0.765-0.064-0.065 0.404-0.086 0.823-0.072 1.036s0.041 0.287 0.164 0.419c0.438 0.468 1.089 0.95 1.576 1.109 0.837-0.789 0.907-1.854 0.297-3.081 0.829-0.228 1.483-0.434 2.198-0.668-0.245-0.178-0.474-0.313-0.834-0.49 0.184-0.511 0.36-0.929 0.681-1.475-0.489 0.17-0.816 0.298-1.185 0.461-0.074-0.326-0.127-0.617-0.176-0.882l-0.099-0.015c-0.219 0.363-0.374 0.625-0.548 0.937-2.167 0.279-3.194 1.756-3.041 2.409" fill="#e8382f"/>
    </g>
    <g transform="translate(829.5 681.68)">
     <path d="m0 0c-0.088 1.069-0.572 2.722-1.111 3.39 0.127-0.775 0.31-2.116 0.383-3.051 0.251-0.11 0.44-0.193 0.728-0.339" fill="#dddcd6"/>
    </g>
    <g transform="translate(827.34 674.34)">
     <path d="m0 0c0.447 0.037 1.203 2.012 0.521 3.704l-0.018 0.017c-0.524-0.171-1.341-0.812-1.627-1.166 0.101-1.261 0.696-2.59 1.124-2.555" fill="#fff200"/>
    </g>
    <g transform="translate(826.61 677.28)">
     <path d="m0 0-0.164-0.15c7e-3 -0.386 0.057-0.746 0.122-1.05l0.245 0.08c-0.063 0.402-0.137 0.832-0.203 1.12" fill="#3d4e57"/>
    </g>
    <g transform="translate(826.91 675.13)">
     <path d="m0 0c0.035 0.017-0.02 0.499-0.1 1.033l-0.245-0.08c0.124-0.59 0.302-0.975 0.345-0.953" fill="#e8382f"/>
    </g>
    <g transform="translate(825.12 675.09)">
     <path d="M 0,0 C 0.122,-0.026 0.254,0.02 0.283,0.142 0.304,0.229 0.242,0.33 0.143,0.361 0.045,0.3 -0.012,0.173 0,0" fill="#3d4e57"/>
    </g>
    <g transform="translate(838.99 677.28)">
     <path d="m0 0c1.18 0.696 1.711 2.171 1.523 3.563-0.31 2.27 1.051 3.758 2.854 4.198 0.38 0.427 0.814 0.978 1.092 1.442 0.019-0.309 0.019-0.612-0.012-0.909 0.693 0.229 1.474 0.445 2.211 0.44-0.419-0.434-0.867-0.873-1.318-1.289 0.321-0.168 0.713-0.39 1.02-0.651-0.531-0.062-0.966-0.117-1.331-0.143 0.1-0.166 0.162-0.316 0.236-0.52-0.421 0.231-0.806 0.411-1.17 0.553-1.845-0.081-2.7-1.627-2.501-3.079 0.267-1.964-0.347-3.356-1.475-4.074" fill="#3d4e57"/>
    </g>
    <g transform="translate(825.24 674.63)">
     <path d="m0 0c-0.214-0.146-0.382-0.265-0.556-0.409 0.18-0.107 0.278-0.155 0.502-0.248-0.272-0.223-0.453-0.427-0.624-0.668 0.426-0.013 0.68-0.037 0.995-0.019 0-0.254 6e-3 -0.427 0.044-0.713 0.216 0.194 0.623 0.532 0.947 0.778-0.67 0.366-1.11 0.853-1.308 1.279" fill="#e8382f"/>
    </g>
    <g transform="translate(828.18 672.83)">
     <path d="m0 0c-0.286 0.032-0.523 0.09-0.776 0.173-0.184-0.042-0.352-0.09-0.562-0.171-0.88-0.199-1.368-0.815-1.315-1.149 0.101-0.642 1.154-0.674 1.619-0.194 0.504 0.206 1.013 0.381 1.525 0.503-0.191 0.315-0.334 0.558-0.491 0.838" fill="#3d4e57"/>
    </g>
    <g transform="translate(826.84 672.83)">
     <path d="m0 0-0.048-0.014c0.57-0.208 0.819-0.853 0.488-1.275 0.317 0.125 0.634 0.238 0.955 0.333 0.176 0.365 0.028 0.751-0.249 0.981-0.206 0.034-0.391 0.083-0.584 0.146-0.184-0.042-0.352-0.09-0.562-0.171" fill="#e8382f"/>
    </g>
    <g transform="translate(831.63 671.08)">
     <path d="m0 0c0.257 0.767-0.314 1.578-0.918 1.724-0.303-0.186-0.629-0.383-0.961-0.577 0.616-0.114 1.208-1.073 0.908-1.643 0.323 0.158 0.649 0.325 0.971 0.496" fill="#e8382f"/>
    </g>
    <g transform="translate(828.48 669.65)">
     <path d="M 0,0 C 0.326,0.115 0.693,0.262 1.082,0.43 1.323,0.928 0.935,1.865 0.323,2.04 -0.09,1.81 -0.475,1.604 -0.783,1.447 -0.174,1.348 0.277,0.582 0,0" fill="#e8382f"/>
    </g>
    <g transform="translate(840.98 672.8)">
     <path d="M 0,0 C 0.375,-0.137 0.737,-0.297 1.08,-0.476 1.602,-0.39 2.215,0.294 2.169,0.917 1.832,1.222 1.504,1.504 1.227,1.728 1.27,1.009 0.602,0.176 0,0" fill="#e8382f"/>
    </g>
    <g transform="translate(843.64 671.19)">
     <path d="m0 0c0.415 0.016 0.993 0.495 1.09 1.006-0.221 0.231-0.498 0.507-0.799 0.795-0.053-0.48-0.616-1.123-1.012-1.195 0.26-0.185 0.5-0.387 0.721-0.606" fill="#e8382f"/>
    </g>
    <g transform="translate(825.15 675.11)">
     <path d="m0 0c0.265-0.935 1.494-1.836 2.877-2.007l0.155-0.252c-1.548 0.127-2.958 1.194-3.032 2.259" fill="#c92e27"/>
    </g>
    <g transform="translate(827.52 682.17)">
     <path d="m0 0c-0.306-0.207-0.502-0.343-0.784-0.627-0.155 0.898-0.39 2.944-0.331 3.405 0.41-0.538 0.866-1.28 1.095-1.778-0.011-0.281 2e-3 -0.685 0.02-1" fill="#28343b"/>
    </g>
    <g transform="translate(828.57 683.89)">
     <path d="m0 0c0.107 0.104 0.387-0.011 0.587-0.64-0.112 0.52-0.417 1.418-0.765 1.782 0.06-0.311 0.121-0.703 0.178-1.142" fill="#b5b5b0"/>
    </g>
    <g transform="translate(829.78 673.12)">
     <path d="m0 0c0.661 0.083 1.264 0.188 2.063 0.455-0.145-0.121-0.28-0.226-0.422-0.327-0.446-0.159-1.037-0.306-1.52-0.374z" fill="#28343b"/>
    </g>
    <g transform="translate(825.58 672.57)">
     <path d="M 0,0 C 0.101,0.257 0.507,0.702 0.767,0.886 L 0.95,0.769 C 0.583,0.487 0.271,0.234 0,0" fill="#c92e27"/>
    </g>
    <g transform="translate(824.59 673.35)">
     <path d="m0 0c0.291 0.049 0.614 0.077 0.916 0.081 0.078 0 0.119-0.056 0.105-0.156-0.314 2e-3 -0.859 0.01-1.021 0.075" fill="#c92e27"/>
    </g>
    <g transform="translate(825.24 673.95)">
     <path d="m0 0-0.018 0.165c-0.179 0.054-0.303 0.089-0.505 0.134 0.152-0.108 0.367-0.232 0.523-0.299" fill="#c92e27"/>
    </g>
    <g transform="translate(828.27 671.88)">
     <path d="M 0,0 C 0.154,0.04 0.299,0.077 0.42,0.107 0.243,0.396 0.025,0.734 -0.119,0.97 L -0.243,0.975 C -0.01,0.75 0.141,0.391 0,0" fill="#28343b"/>
    </g>
    <g transform="translate(827.42 672.07)">
     <path d="m0 0c-0.086-0.046-0.18-0.083-0.283-0.105-0.117-0.023-0.139-0.039-0.244-0.147-0.51-0.524-1.428-0.369-1.144 0.376-0.407-0.337-0.268-0.897 0.335-1.016 0.33-0.066 0.756 0.016 1.063 0.32l0.191 0.088c0.078 0.166 0.099 0.334 0.082 0.484" fill="#28343b"/>
    </g>
    <g transform="translate(828.03 672.86)">
     <path d="m0 0-0.142 0.019c8e-3 -0.337-0.175-0.641-0.468-0.804 0.016-0.15-4e-3 -0.318-0.082-0.484 0.263 0.108 0.618 0.209 0.935 0.294 0.141 0.391-0.01 0.75-0.243 0.975" fill="#c92e27"/>
    </g>
    <g transform="translate(830.13 672.44)">
     <path d="M 0,0 C 0.421,0.256 0.882,0.547 1.247,0.781 0.771,0.618 0.265,0.502 -0.229,0.435 -0.163,0.296 -0.089,0.152 0,0" fill="#28343b"/>
    </g>
    <g transform="translate(829.01 672.8)">
     <path d="m0 0h-0.013c-0.063-0.28-0.111-0.534-0.153-0.767 0.268 0.058 0.538 0.099 0.809 0.12 0.123 0.073 0.256 0.153 0.394 0.238-0.412 0.147-0.709 0.263-1.037 0.409" fill="#28343b"/>
    </g>
    <g transform="translate(829.3 672.11)">
     <path d="M 0,0 C 0.117,0.018 0.236,0.031 0.354,0.04 0.477,0.113 0.61,0.193 0.748,0.277 0.437,0.389 0.189,0.484 -0.057,0.585 0.051,0.381 0.064,0.146 0,0" fill="#c92e27"/>
    </g>
    <g transform="translate(830.13 672.44)">
     <path d="M 0,0 0.233,0.145 C 0.212,0.26 0.188,0.372 0.153,0.498 0.024,0.473 -0.104,0.452 -0.229,0.435 -0.163,0.296 -0.089,0.152 0,0" fill="#c92e27"/>
    </g>
    <g transform="translate(830.72 671.08)">
     <path d="m0 0c-0.358-0.182-0.723-0.356-1.09-0.52 0.015-0.146 0-0.308-0.028-0.452 0.37 0.16 0.735 0.327 1.096 0.498 0.035 0.15 0.042 0.322 0.022 0.474" fill="#28343b"/>
    </g>
    <g transform="translate(828.56 670.11)">
     <path d="m0 0-0.182-0.071c-0.161-0.061-0.211-0.11-0.298-0.203-0.549-0.586-1.622-0.451-1.456 0.518-0.281-0.422-0.19-0.991 0.397-1.235 0.328-0.137 1.077-4e-3 1.417 0.512l0.067 0.025c0.045 0.162 0.063 0.316 0.055 0.454" fill="#28343b"/>
    </g>
    <g transform="translate(829.63 670.56)">
     <path d="m0 0c-0.354-0.159-0.712-0.309-1.072-0.447 8e-3 -0.138-0.01-0.292-0.055-0.454 0.367 0.142 0.734 0.292 1.099 0.449 0.028 0.144 0.043 0.306 0.028 0.452" fill="#c92e27"/>
    </g>
    <g transform="translate(831.68 671.59)">
     <path d="m0 0c-0.314-0.175-0.633-0.346-0.953-0.509 0.019-0.153 0.013-0.324-0.023-0.474 0.324 0.155 0.642 0.315 0.951 0.476 0.029 0.153 0.038 0.336 0.025 0.507" fill="#c92e27"/>
    </g>
    <g transform="translate(845.62 671.3)">
     <path d="m0 0c-0.076-0.657-0.806-0.742-1.467-0.087l-0.113 0.109c-0.117-0.068-0.254-0.118-0.387-0.15l0.125-0.122c0.399-0.409 0.748-0.662 1.239-0.662 0.494 0 0.787 0.525 0.603 0.912" fill="#28343b"/>
    </g>
    <g transform="translate(842.5 672.52)">
     <path d="m0 0c-0.126-0.094-0.269-0.166-0.415-0.209 0.297-0.162 0.576-0.337 0.836-0.525 0.121 0.05 0.247 0.116 0.357 0.199-0.254 0.196-0.513 0.374-0.778 0.535" fill="#28343b"/>
    </g>
    <g transform="translate(838.09 673.92)">
     <path d="m0 0c-0.233 0.032-0.304-0.043-0.466-0.189-0.633-0.581-1.832-0.653-3.035-0.492-0.268 0.038-0.334 0.027-0.518-0.107-0.737-0.533-1.571-1.076-2.394-1.542 0.013-0.17 4e-3 -0.353-0.025-0.507 0.992 0.52 1.885 1.062 2.584 1.58 0.101 0.076 0.171 0.097 0.302 0.057 1.097-0.333 3.11-0.242 4.494 0.572 0.69-0.084 1.36-0.257 1.99-0.494 0.161 0.063 0.308 0.162 0.43 0.261-0.989 0.427-2.084 0.687-3.362 0.861" fill="#28343b"/>
    </g>
    <g transform="translate(841.45 673.06)">
     <path d="m0 0c-0.122-0.1-0.27-0.198-0.431-0.261 0.372-0.142 0.73-0.305 1.066-0.489 0.146 0.043 0.289 0.115 0.415 0.208-0.339 0.207-0.687 0.385-1.05 0.542" fill="#c92e27"/>
    </g>
    <g transform="translate(843.28 671.98)">
     <path d="m0 0c-0.11-0.083-0.236-0.148-0.357-0.199 0.267-0.193 0.513-0.398 0.736-0.614 0.133 0.032 0.269 0.082 0.387 0.151-0.25 0.24-0.506 0.461-0.766 0.662" fill="#c92e27"/>
    </g>
    <g transform="translate(843.73 671.11)">
     <path d="m0 0c-1.14 1.168-2.864 1.896-4.665 2.181-0.357-0.193-0.746-0.347-1.144-0.466 0.746-0.219 1.755-0.664 2.13-0.854 0.263-0.135 0.396-0.205 0.737-0.298 0.388-0.107 1.187-0.495 1.466-0.7 0.813-0.874 1.649-0.585 1.68-0.075z" fill="#28343b"/>
    </g>
    <g transform="translate(840.37 671.81)">
     <path d="m0 0c0.476 0.096 0.847 0.462 0.977 0.846-0.316 0.128-0.638 0.243-0.97 0.339-0.103-0.351-0.511-0.695-0.883-0.771 0.375-0.159 0.643-0.31 0.876-0.414" fill="#c92e27"/>
    </g>
    <g transform="translate(842.2 671.01)">
     <path d="m0 0c0.294 0.194 0.526 0.542 0.55 0.905-0.238 0.162-0.494 0.31-0.76 0.446-0.035-0.402-0.26-0.754-0.578-0.932 0.303-0.139 0.611-0.3 0.788-0.419" fill="#c92e27"/>
    </g>
    <g transform="translate(834.9 676.4)">
     <path d="m0 0c-0.125-0.252-0.361-0.511-0.514-0.632 0.086 0.172 0.228 0.477 0.289 0.632z" fill="#28343b"/>
    </g>
    <g transform="translate(839.5 677.66)">
     <path d="m0 0c0.329-0.215 0.764-0.181 1.149 0.178 0.704 0.647 0.955 1.883 0.898 3.149 0.346-1.871-0.232-3.366-1.336-4.129-0.318 0.299-0.596 0.475-1.066 0.497 0.103 0.081 0.228 0.197 0.355 0.305" fill="#28343b"/>
    </g>
    <g transform="translate(841.52 681.49)">
     <path d="M 0,0 C 0.074,1.898 1.32,2.626 2.482,2.695 L 2.688,2.662 C 3.041,2.478 3.555,2.146 3.744,1.926 3.277,2.167 2.898,2.358 2.581,2.458 1.132,2.41 0.245,1.481 0,0" fill="#28343b"/>
    </g>
    <g transform="translate(844.97 683.91)">
     <path d="M 0,0 C -0.051,0.096 -0.016,0.165 0.08,0.174 0.543,0.221 1.027,0.235 1.369,0.185 0.882,0.094 0.233,0.034 0,0" fill="#28343b"/>
    </g>
    <g transform="translate(846.61 686.02)">
     <path d="m0 0c-0.431-0.308-0.904-0.714-1.342-1.12l0.036-0.219c0.495 0.466 0.915 0.904 1.306 1.339" fill="#28343b"/>
    </g>
    <g transform="translate(844.41 686.38)">
     <path d="m0 0c-0.025-0.332-0.063-0.579-0.102-0.777l0.127-0.084c0.029 0.261 0.031 0.529-0.025 0.861" fill="#28343b"/>
    </g>
    <g transform="translate(828.81 671.88)">
     <path d="m0 0c-0.208 0.469-0.583 1.173-0.813 1.645-0.061 0.122-0.191 0.095-0.198 9e-3 0.242-0.47 0.718-1.26 1.011-1.654" fill="#c92e27"/>
    </g>
    <g transform="translate(830.17 672.39)">
     <path d="m0 0c-0.326 0.176-0.659 0.336-1.043 0.527-0.088 0.042-0.182 7e-3 -0.191-0.106 0.455-0.18 0.797-0.316 1.234-0.421" fill="#c92e27"/>
    </g>
    <g transform="translate(830.31 674.34)">
     <path d="m0 0c-0.328-0.16-0.541-0.262-0.818-0.379-0.063-0.029-0.078-0.081-0.041-0.177 0.345 0.152 0.683 0.378 0.859 0.556" fill="#c92e27"/>
    </g>
    <g transform="translate(827.6 683.74)">
     <path d="m0 0c0-0.443 0.033-1.085 0.086-1.432 0.019-0.136-0.055-0.196-0.155-0.199-0.068 0.643-0.046 1.402 0.069 1.631" fill="#28343b"/>
    </g>
    <g transform="translate(831.48 682.88)">
     <path d="m0 0c3.475-1.042 4.558-4.293 3.022-6.975-0.139-0.242-0.263-0.197-0.13 0.055 1.397 2.669 0.365 5.685-2.8 6.744z" fill="#0d131a"/>
    </g>
    <g transform="translate(828.24 682.16)">
     <path d="m0 0c-0.194 1.329-0.162 3.636 0.051 3.725 0.342 0.144 2.254-1.482 3.448-3.271 0.166-0.251 0.069-0.327-0.101-0.077-1.253 1.818-3.039 3.252-3.259 3.165-0.1-0.039-0.172-2.038-4e-3 -3.531 0.035-0.309-0.091-0.317-0.135-0.011" fill="#0d131a"/>
    </g>
    <g transform="translate(828.83 682.06)">
     <path d="m0 0c0.227-0.096 0.346-0.147 0.59-0.261-0.1 0.983-0.488 2.324-0.945 3.056 0.146-0.828 0.292-1.957 0.355-2.795m-0.129-0.013c-0.07 0.869-0.208 2.129-0.357 2.974-0.03 0.161 0.017 0.165 0.117 0.036 0.555-0.72 1.019-2.334 1.111-3.381l-0.096-0.065c-0.253 0.132-0.48 0.236-0.704 0.336z" fill="#0d131a"/>
    </g>
    <g transform="translate(828.23 683.65)">
     <path d="m0 0c-0.623 0.679-1.709 1.278-1.782 1.251-0.069-0.024 0.15-2.246 0.341-3.312l-0.168-0.148c-0.178 1.173-0.405 3.534-0.248 3.587 0.153 0.052 1.197-0.492 1.826-1.131z" fill="#0d131a"/>
    </g>
    <g transform="translate(828.23 672.76)">
     <path d="m0 0c-2.258 0.265-3.357 1.814-3.174 2.527 0.042 0.164 0.267 0.268 0.378 0.354l0.028 0.113c-0.74 2.438 0.119 5.326 1.998 6.449-0.05 0.487-0.046 1.018 0.024 1.562l0.113 0.041c0.235-0.167 0.457-0.373 0.653-0.573l2e-3 -0.159c-0.245 0.245-0.443 0.418-0.653 0.569-0.052-0.434-0.06-0.966-0.017-1.435l-0.043-0.1c-1.755-1.043-2.609-3.891-1.941-6.321 0.032-0.121 0.011-0.171-0.079-0.237-0.08-0.058-0.279-0.16-0.314-0.288-0.159-0.585 0.784-2.066 2.945-2.344z" fill="#0d131a"/>
    </g>
    <g transform="translate(829.87 672.94)">
     <path d="m0 0c0.504 0.074 1.054 0.205 1.646 0.406l-0.289-0.239c-0.454-0.145-0.884-0.244-1.291-0.308z" fill="#0d131a"/>
    </g>
    <g transform="translate(825.11 675.14)">
     <path d="m0 0c0.135-0.032 0.223 0.024 0.241 0.104 0.015 0.066-0.018 0.148-0.128 0.165l0.091 0.071c0.109-0.041 0.164-0.149 0.14-0.258-0.035-0.156-0.205-0.213-0.338-0.181z" fill="#0d131a"/>
    </g>
    <g transform="translate(825.38 676.61)">
     <path d="m0 0c0.059-0.176 0.096-0.143 0.115-0.033 0.092 0.475 0.182 0.926 0.264 1.324l0.07 0.078c1.275 0.538 2.416 1.319 2.412 1.379-3e-3 0.05-0.956 0.054-2.111-0.293l-0.082 0.074c0.087 0.323 0.164 0.599 0.254 0.878l0.072 0.075c0.781 0.293 1.326 0.601 1.325 0.647-1e-3 0.05-0.38 0.154-0.988 0.126l-0.072 0.086c0.078 0.196 0.171 0.418 0.262 0.623l-0.025 0.078 0.084 0.12c0.073 0 0.133-0.119 0.066-0.266-0.085-0.192-0.125-0.301-0.201-0.486 0.635 0.029 1.037-0.147 1.043-0.283 2e-3 -0.129-0.683-0.489-1.439-0.775-0.09-0.269-0.142-0.455-0.217-0.738 1.151 0.328 2.162 0.314 2.192 0.17 0.035-0.161-1.288-1.03-2.518-1.542-0.081-0.4-0.159-0.805-0.271-1.304-0.047-0.248-0.176-0.256-0.225-0.193z" fill="#0d131a"/>
    </g>
    <g transform="translate(828.62 671.95)">
     <path d="m0 0c-0.296 0.489-0.481 0.828-0.764 1.368-0.134 0.259-0.055 0.304 0.086 0.045 0.319-0.589 0.476-0.841 0.821-1.399 0.045 0.256 0.103 0.549 0.17 0.841l0.096 0.04c0.361-0.156 0.652-0.265 1.009-0.39-0.282 0.496-0.422 0.844-0.592 1.319l0.043 0.106c0.3 0.147 0.501 0.261 0.704 0.407-0.671 0.226-1.223 0.393-2.065 0.623l-0.043 0.102c0.578 1.204 0.499 2.208-0.264 2.957-0.427-0.154-1.047-0.569-1.512-1.062-0.119-0.13-0.141-0.188-0.153-0.383-0.016-0.221 9e-3 -0.621 0.069-1.018l-0.088-0.075c-0.316 0.086-0.6 0.117-0.796 0.056l0.172 0.141c0.15 0.028 0.337 4e-3 0.583-0.059-0.054 0.366-0.077 0.727-0.06 0.963 0.014 0.22 0.027 0.307 0.169 0.455 0.466 0.492 1.13 0.967 1.587 1.128l0.099-0.019c0.831-0.785 0.938-1.855 0.327-3.083 0.759-0.209 1.392-0.402 2.104-0.634 0.115-0.037 0.124-0.074 0.024-0.145-0.232-0.159-0.468-0.293-0.783-0.445 0.161-0.432 0.327-0.807 0.571-1.245 0.125-0.23 0.054-0.277-0.162-0.198-0.348 0.125-0.632 0.241-0.94 0.377-0.044-0.196-0.095-0.476-0.139-0.725-0.043-0.241-0.146-0.258-0.273-0.048" fill="#0d131a"/>
    </g>
    <g transform="translate(826.6 673.32)">
     <path d="m0 0c-0.296-0.225-0.677-0.553-0.929-0.776-0.096-0.084-0.127-0.067-0.14 0.046-0.032 0.242-0.035 0.422-0.031 0.636-0.259-7e-3 -0.519-5e-3 -0.913 0.017-0.109 6e-3 -0.122 0.04-0.065 0.121 0.161 0.223 0.36 0.425 0.557 0.595-0.179 0.079-0.255 0.111-0.404 0.197l-0.01 0.134c0.159 0.129 0.334 0.252 0.545 0.396l0.053-0.111c-0.202-0.139-0.324-0.224-0.473-0.345 0.141-0.079 0.219-0.123 0.395-0.197l0.016-0.118c-0.209-0.173-0.358-0.33-0.524-0.553 0.315-0.019 0.562-0.029 0.854-0.019l0.083-0.077c0-0.21 7e-3 -0.345 0.033-0.567 0.222 0.195 0.544 0.459 0.835 0.682z" fill="#0d131a"/>
    </g>
    <g transform="translate(827.96 677.96)">
     <path d="m0 0c0.647-1.686-0.12-3.632-0.628-3.671-0.476-0.036-1.083 1.283-1.18 2.521l0.118 0.136c0.11-1.347 0.704-2.569 1.062-2.536 0.369 0.034 1.139 1.971 0.451 3.639z" fill="#0d131a"/>
    </g>
    <g transform="translate(826.49 677.16)">
     <path d="m0 0c0.018-1.062 0.35-1.927 0.386-1.911 0.024 0.012-0.163 1.327-0.318 1.98l0.106 0.098c0.258-1.276 0.349-2.204 0.262-2.238-0.151-0.054-0.52 0.966-0.557 1.967z" fill="#0d131a"/>
    </g>
    <g transform="translate(828.85 672.09)">
     <path d="m0 0c0.306 0.063 0.597 0.104 0.88 0.124l-0.272-0.171c-0.221-0.022-0.396-0.038-0.626-0.088z" fill="#0d131a"/>
    </g>
    <g transform="translate(828.72 671.93)">
     <path d="m0 0c-0.469-0.107-0.983-0.262-1.545-0.488-0.532-0.538-1.631-0.451-1.736 0.205-0.069 0.43 0.509 1.071 1.353 1.256 0.17 0.068 0.307 0.107 0.478 0.149l0.223-0.086c-0.223-0.045-0.418-0.102-0.631-0.185-0.877-0.199-1.318-0.819-1.273-1.09 0.09-0.566 1.054-0.615 1.498-0.179l0.057 0.036c0.535 0.22 1.034 0.383 1.5 0.492z" fill="#0d131a"/>
    </g>
    <g transform="translate(825.66 671.39)">
     <path d="m0 0c-0.035 0.183-5e-3 0.334 0.082 0.453 0.106 0.141 0.159 0.104 0.068-0.048-0.079-0.138-0.085-0.283-0.019-0.498z" fill="#0d131a"/>
    </g>
    <g transform="translate(825.99 671.2)">
     <path d="m0 0c-0.029 0.177 6e-3 0.354 0.09 0.491 0.098 0.16 0.158 0.125 0.073-0.041-0.063-0.12-0.093-0.289-0.048-0.478z" fill="#0d131a"/>
    </g>
    <g transform="translate(827.18 671.51)">
     <path d="m0 0c0.41 0.416 0.125 1.097-0.472 1.295l0.152 0.046c0.55-0.215 0.785-0.839 0.503-1.273z" fill="#0d131a"/>
    </g>
    <g transform="translate(828.17 671.85)">
     <path d="m0 0c0.211 0.386 0.027 0.802-0.275 1.016l0.171-0.013c0.257-0.231 0.403-0.607 0.235-0.965z" fill="#0d131a"/>
    </g>
    <g transform="translate(829.3 672.67)">
     <path d="m0 0c0.09-0.197 0.096-0.407 0.041-0.552l-0.096-0.012c0.075 0.138 0.06 0.397-0.064 0.607z" fill="#0d131a"/>
    </g>
    <g transform="translate(830.31 672.56)">
     <path d="m0 0c-0.022 0.128-0.045 0.241-0.08 0.365l0.097 0.021c0.032-0.114 0.053-0.215 0.076-0.33z" fill="#0d131a"/>
    </g>
    <g transform="translate(830.09 672.36)">
     <path d="m0 0c-0.81-0.482-1.653-0.955-2.353-1.304l-0.058-0.024c-1.117-0.331-1.396-1.241-0.931-1.682 0.339-0.321 1.157-0.316 1.629 0.302l0.052 0.041c1.724 0.615 4.305 1.982 5.765 3.037 0.138 0.099 0.176 0.105 0.358 0.057 1.378-0.365 3.109-0.144 4.394 0.522l0.225-0.032c-1.322-0.762-3.208-1.05-4.643-0.67-0.135 0.036-0.158 0.036-0.244-0.026-1.45-1.072-4.023-2.395-5.814-2.992-0.531-0.707-1.438-0.713-1.826-0.346-0.504 0.479-0.302 1.522 1.027 1.901 0.662 0.339 1.489 0.819 2.289 1.294z" fill="#0d131a"/>
    </g>
    <g transform="translate(830.09 672.51)">
     <path d="m0 0c0.314 0.188 0.625 0.377 0.916 0.56 0.676 0.425 1.109 0.774 1.295 1.045 0.223 0.322 0.416 0.5 0.777 0.661 0.196 0.087 0.227 0.019 0.037-0.077-0.341-0.168-0.494-0.337-0.722-0.67-0.194-0.282-0.643-0.647-1.327-1.078-0.293-0.183-0.605-0.374-0.922-0.564z" fill="#0d131a"/>
    </g>
    <g transform="translate(826.54 669.54)">
     <path d="m0 0c-0.031 0.276 0.059 0.507 0.229 0.579 0.144 0.061 0.173 0 0.035-0.076-0.139-0.077-0.205-0.327-0.131-0.679z" fill="#0d131a"/>
    </g>
    <g transform="translate(827.06 669.12)">
     <path d="m0 0c-0.064 0.226 0.01 0.471 0.18 0.595 0.146 0.108 0.189 0.058 0.054-0.064-0.15-0.135-0.187-0.344-0.115-0.553z" fill="#0d131a"/>
    </g>
    <g transform="translate(834.72 676.47)">
     <path d="m0 0c0.823-0.024 1.52 0.119 2.186 0.45 1.106 0.549 1.619 0.642 2.486 0.487 0.822-0.148 1.391-0.967 2.299-2.291 0.09-0.131 0.119-0.154 0.234-0.235 0.715-0.515 2.173-1.927 2.908-2.711 0.826-0.43 1.114-1.127 0.764-1.583-0.292-0.387-1.08-0.52-1.93 0.444-1.255 1.285-3.277 2.12-5.581 2.321-0.268 0.023-0.26 0.114 7e-3 0.097 2.342-0.151 4.402-0.997 5.674-2.3 0.659-0.746 1.392-0.89 1.711-0.472 0.322 0.425-0.018 1.03-0.705 1.387l-0.011 0.01c-0.731 0.779-2.24 2.162-2.954 2.674-0.131 0.095-0.176 0.139-0.269 0.274-0.901 1.298-1.444 2.096-2.171 2.229-0.849 0.157-1.434 0.03-2.417-0.458-0.754-0.375-1.445-0.481-2.286-0.452z" fill="#0d131a"/>
    </g>
    <g transform="translate(842.26 674.49)">
     <path d="m0 0c0.039-0.713-0.616-1.527-1.205-1.718l-0.151 0.055c0.61 0.153 1.321 1.02 1.252 1.751z" fill="#0d131a"/>
    </g>
    <g transform="translate(843.2 673.67)">
     <path d="m0 0c0.033-0.629-0.578-1.293-1.068-1.385l-0.123 0.075c0.517 0.064 1.154 0.791 1.086 1.402z" fill="#0d131a"/>
    </g>
    <g transform="translate(843.98 672.95)">
     <path d="m0 0c-0.059-0.481-0.615-1.103-1.004-1.188l-0.105 0.077c0.389 0.038 0.99 0.735 1.017 1.198z" fill="#0d131a"/>
    </g>
    <g transform="translate(844.77 672.15)">
     <path d="m0 0c-0.115-0.532-0.681-0.976-1.089-1.008l-0.093 0.097c0.391-0.017 1.012 0.472 1.096 0.994z" fill="#0d131a"/>
    </g>
    <g transform="translate(845.64 670.87)">
     <path d="m0 0c-0.213-0.141-0.479-0.097-0.651 0.048-0.14 0.114-0.105 0.165 0.046 0.07 0.236-0.15 0.441-0.127 0.62 0.03z" fill="#0d131a"/>
    </g>
    <g transform="translate(845.22 670.41)">
     <path d="m0 0c-0.229-1e-3 -0.436 0.071-0.615 0.228-0.151 0.13-0.11 0.183 0.051 0.065 0.244-0.174 0.49-0.228 0.77-0.154z" fill="#0d131a"/>
    </g>
    <g transform="translate(843.99 670.8)">
     <path d="m0 0c-0.056-0.491-0.942-0.828-1.806 0.104-0.269 0.195-1.018 0.571-1.441 0.685-0.336 0.092-0.49 0.172-0.744 0.301-0.403 0.204-1.466 0.648-2.231 0.869l0.26 0.098c0.734-0.228 1.664-0.642 2.046-0.836 0.255-0.131 0.395-0.193 0.724-0.292 0.439-0.13 1.188-0.492 1.488-0.712l6e-3 -3e-3c0.797-0.869 1.607-0.542 1.581-0.058z" fill="#0d131a"/>
    </g>
    <g transform="translate(840.42 672.98)">
     <path d="m0 0c-0.098-0.357-0.48-0.691-0.857-0.79l-0.156 0.07c0.379 0.048 0.813 0.402 0.916 0.746z" fill="#0d131a"/>
    </g>
    <g transform="translate(841.39 672.64)">
     <path d="m0 0c-0.113-0.381-0.48-0.755-0.945-0.862l-0.156 0.07c0.504 0.079 0.89 0.473 1.009 0.829z" fill="#0d131a"/>
    </g>
    <g transform="translate(841.35 671.45)">
     <path d="m0 0c0.327 0.168 0.555 0.528 0.59 0.933l0.096-0.051c-0.037-0.4-0.253-0.751-0.572-0.931z" fill="#0d131a"/>
    </g>
    <g transform="translate(842.8 671.89)">
     <path d="m0 0c-0.022-0.372-0.27-0.742-0.564-0.912l-0.083 0.066c0.315 0.207 0.53 0.568 0.549 0.913z" fill="#0d131a"/>
    </g>
    <g transform="translate(843.25 670.4)">
     <path d="m0 0c-0.119 0.042-0.215 0.114-0.304 0.219-0.127 0.149-0.079 0.193 0.062 0.056 0.156-0.149 0.305-0.215 0.529-0.223z" fill="#0d131a"/>
    </g>
    <g transform="translate(843.82 670.63)">
     <path d="m0 0c-0.199-0.032-0.422 0.013-0.563 0.185-0.125 0.151-0.073 0.196 0.063 0.057 0.135-0.136 0.331-0.167 0.563-0.126z" fill="#0d131a"/>
    </g>
    <g transform="translate(838.99 677.4)">
     <path d="m0 0c1.032 0.673 1.604 2.023 1.414 3.438-0.281 2.076 0.851 3.779 2.878 4.283 0.401 0.45 0.854 0.957 1.102 1.375 0.081 0.136 0.127 0.122 0.132-0.03 0.012-0.307 6e-3 -0.573-0.016-0.817 0.591 0.192 1.38 0.413 2.104 0.422 0.139 1e-3 0.157-0.031 0.053-0.138-0.441-0.452-0.848-0.844-1.231-1.199 0.366-0.192 0.659-0.37 0.917-0.574 0.126-0.101 0.123-0.138-0.03-0.156-0.447-0.052-0.942-0.103-1.199-0.123 0.076-0.133 0.135-0.274 0.197-0.444 0.041-0.111 4e-3 -0.126-0.093-0.074-0.448 0.24-0.78 0.355-1.153 0.499-1.773-0.084-2.578-1.542-2.382-2.962 0.252-1.834-0.243-3.297-1.374-4.076l-0.148 0.106c1.108 0.766 1.601 2.156 1.357 3.948-0.206 1.508 0.709 3.061 2.541 3.141l0.066-0.01c0.368-0.149 0.655-0.28 1.023-0.476-0.057 0.145-0.096 0.226-0.169 0.357l0.063 0.096c0.332 0.025 0.778 0.077 1.162 0.131-0.233 0.18-0.508 0.351-0.883 0.547l-0.014 0.114c0.435 0.4 0.778 0.743 1.202 1.177-0.696-0.02-1.436-0.232-2.028-0.426l-0.095 0.074c0.023 0.249 0.027 0.443 0.011 0.672-0.246-0.382-0.587-0.819-0.973-1.252l-0.083-0.05c-1.967-0.499-3.048-2.102-2.773-4.124 0.189-1.407-0.345-2.782-1.35-3.489z" fill="#0d131a"/>
    </g>
    <g transform="translate(831.57 671.05)">
     <path d="m0 0c0.269 0.816-0.342 1.602-0.92 1.716l0.121 0.072c0.625-0.168 1.151-0.999 0.92-1.73z" fill="#0d131a"/>
    </g>
    <g transform="translate(830.58 670.54)">
     <path d="m0 0c0.35 0.582-0.281 1.563-0.887 1.644l0.116 0.077c0.617-0.143 1.177-1.065 0.921-1.648z" fill="#0d131a"/>
    </g>
    <g transform="translate(829.49 670.05)">
     <path d="m0 0c0.284 0.475-0.113 1.441-0.737 1.606l0.114 0.07c0.608-0.206 0.973-1.103 0.764-1.615z" fill="#0d131a"/>
    </g>
    <g transform="translate(828.42 669.63)">
     <path d="m0 0c0.307 0.585-0.187 1.389-0.822 1.427l0.175 0.076c0.593-0.116 1.034-0.882 0.778-1.464z" fill="#0d131a"/>
    </g>
    <g transform="translate(825.77 673.91)">
     <path d="m0 0 0.107 0.08c0.012 0.09 0.045 0.102 0.111 0.024 0.151-0.178 0.389-0.247 0.417-0.051 0.013 0.125 0.081 0.125 0.083-1e-3 3e-3 -0.27-0.28-0.303-0.527-0.07l-0.095-0.082z" fill="#0d131a"/>
    </g>
   </g>
  </g>
 </g>
</svg>
