<?xml version="1.0" encoding="UTF-8"?>
<!-- Created with Inkscape (http://www.inkscape.org/) -->
<svg version="1.1" viewBox="0 0 169.07 196.48" xmlns="http://www.w3.org/2000/svg">
 <g transform="translate(-11.378 -11.55)">
  <g transform="matrix(-1.5829 1.5592 1.5592 1.5829 100.27 196.31)">
   <path d="m0 0c-1.902-1.989-4.917-4.466-7.837-6.526-5.321-3.753-9.434-7.131-11.641-9.696 4.376-3.264 9.271-9.37 11.082-14.991 3.32 2.613 6.669 6.014 9.244 9.216 3.034 3.773 5.195 7.934 8.636 12.081 1.537-0.201 2.87 0.358 3.514 1.175 0.773 0.977 0.837 2.164-1.655 4.494-2.132 1.994-3.458 2.144-4.936 1.146 1.043 1.582 0.868 2.66-1.128 4.875-1.508 1.674-3.525 2.151-4.601 1.075-0.618-0.618-0.865-1.821-0.678-2.849" fill="#3e4e57"/>
  </g>
  <g transform="matrix(-1.5829 1.5592 1.5592 1.5829 84.095 161.5)">
   <path d="m0 0c2.274-0.81 5.385-4.116 6.132-6.36 1.069 1.239 2.267 2.935 3.079 4.126-0.609 2.266-3.884 5.452-5.647 5.927-0.537 2.099-3.401 5.27-5.981 5.775-1.414-1.004-2.74-1.979-3.964-2.919 2.336-0.891 5.517-4.388 6.381-6.549" fill="#e73830"/>
  </g>
  <g transform="matrix(-1.5829 1.5592 1.5592 1.5829 84.656 194.64)">
   <path d="m0 0c-0.619 1.671-3.135 4.52-5.189 4.751-1.045-1.018-2.32-2.125-3.685-3.219 2.253-0.579 5.058-3.316 5.729-4.903 1.603-0.739 4.38-3.275 5.143-5.089 0.819 1.186 1.689 2.382 2.656 3.578-0.673 2.055-2.772 4.327-4.654 4.882" fill="#e73830"/>
  </g>
  <g transform="matrix(-1.5829 1.5592 1.5592 1.5829 64.066 150.09)">
   <path d="m0 0c2.045 1.344 4.161 1.896 6.212 1.889 6.192-0.02 11.228 5.699 10.684 11.639 0.216 1.003-0.057 2.244-1.38 3.534-0.709-0.515-1.824-0.961-3.041-0.722-4.232-5.486-8.41-12.856-12.475-16.34" fill="#3e4e57"/>
  </g>
  <g transform="matrix(-1.5829 1.5592 1.5592 1.5829 105.6 151.54)">
   <path d="m0 0c1.203 2.467 2.143 5.262 2.24 7.998 0.227 6.308 5.469 11.01 10.534 9.737 1.12 0.324 3.023-0.386 3.845-2.144-0.581-0.484-1.005-1.629-0.769-2.919-4.424-4.564-13.02-9.934-15.85-12.672" fill="#3e4e57"/>
  </g>
  <g transform="matrix(-1.5829 1.5592 1.5592 1.5829 114.43 198.64)">
   <path d="m0 0c-8.675 11.657-20.156 8.925-27.577-2.647-6.15-9.59-9.59-12.256-13.396-11.719-2.903 1.441-5.44 3.204-8.58 5.827 0.022-1.311 0.324-2.773 0.753-3.934-2.172-0.452-3.72-0.839-5.999-1.57 1.505-1.118 3.527-2.237 5.354-3.032-0.602-0.559-1.398-1.268-2.344-1.956 1.312-0.323 2.473-0.409 4.086-0.474-0.236-0.795-0.43-1.763-0.569-2.677 2.687 0.897 4.456 1.712 7.825 3.115 7.41-0.058 10.626 3.03 17.148 12.647 6.655 9.814 12.594 10.415 17.887 4.97 1.631 1.161 3.575 1.768 5.412 1.45" fill="#3e4e57"/>
  </g>
  <g transform="matrix(-1.5829 1.5592 1.5592 1.5829 64.049 142.74)">
   <path d="m0 0c-1.974 2.139-3.678 7.966-2.293 10.341-2.374-1.165-7.651 1.748-9.597 4.4-0.888-0.755-1.838-1.729-2.283-2.314 4.171-2.671 9.631-10.662 11.107-14.996 0.903 0.674 2.144 1.681 3.066 2.569" fill="#28333a"/>
  </g>
  <g transform="matrix(-1.5829 1.5592 1.5592 1.5829 85.805 184.85)">
   <path d="m0 0c-1.502-1.791-3.065-3.61-4.215-4.995l0.242-0.275c1.236 1.127 3.04 2.749 4.819 4.392-0.186 0.11-0.365 0.21-0.529 0.285-0.078 0.184-0.186 0.384-0.317 0.593" fill="#28333a"/>
  </g>
  <g transform="matrix(-1.5829 1.5592 1.5592 1.5829 103.11 200.32)">
   <path d="m0 0c0.925 0.925 2.557 0.148 3.956-1.161 1.506-1.408 1.829-2.495 1.006-3.779-0.316-0.491-0.764-1.105-1.297-1.796 0.196-0.325 0.356-0.636 0.458-0.913 0.281-0.083 0.566-0.208 0.853-0.362 0.552 0.55 1.044 1.056 1.437 1.49 0.983 1.087 2.327 0.577 4.123-1.22 1.682-1.682 1.973-3.069 1.032-3.999 1.893 1.01 2.231 2.317-0.172 4.913-1.724 1.864-3.371 2.661-5.193 1.742 0.994 1.437 0.355 3-1.419 4.773-2.133 2.133-4.259 1.993-4.784 0.312" fill="#28333a"/>
  </g>
  <g transform="matrix(-1.5829 1.5592 1.5592 1.5829 86.806 195.37)">
   <path d="m0 0c-0.847-1.096-1.908-2.386-3.004-3.691 0.131-0.21 0.239-0.41 0.317-0.593 0.165-0.076 0.343-0.175 0.529-0.286 1.236 1.142 2.458 2.292 3.469 3.295-0.287 0.153-0.572 0.278-0.853 0.361-0.103 0.278-0.262 0.589-0.458 0.914" fill="#c82e28"/>
  </g>
  <g transform="matrix(-1.5829 1.5592 1.5592 1.5829 57.794 194.22)">
   <path d="M 0,0 C 0.595,1.189 -0.22,3.018 -1.795,4.24 -1.2,4.394 -0.749,4.582 -0.407,4.856 1.311,3.359 1.476,0.683 0,0" fill="#28333a"/>
  </g>
  <g transform="matrix(-1.5829 1.5592 1.5592 1.5829 102.85 199.23)">
   <path d="m0 0c-0.55 1.563-2.984 3.05-4.504 2.412 1.267 1.486 3.679 1.497 5.11-1.234-0.22-0.242-0.517-0.738-0.606-1.178" fill="#28333a"/>
  </g>
  <g transform="matrix(-1.5829 1.5592 1.5592 1.5829 124.49 187.95)">
   <path d="m0 0c1.259 1.211 0.77 3.634-1.687 4.918-6.418 3.355-14.294-0.354-19.696-8.121 8.735 14.483 21.108 13.42 27.789 3.532-1.76 0.352-3.989-0.539-5.158-1.506-0.393 0.383-0.799 0.782-1.248 1.177" fill="#28333a"/>
  </g>
  <g transform="matrix(-1.5829 1.5592 1.5592 1.5829 178.75 107.46)">
   <path d="m0 0c1.579-2.107 6.1-5.352 7.994-6.265 1.399-0.673 4.216 0.414 6.624 2.823-2.93-1.896-5.03-2.447-6.184-2.004-1.633 0.628-6.769 3.974-8.434 5.446" fill="#28333a"/>
  </g>
  <g transform="matrix(-1.5829 1.5592 1.5592 1.5829 178.7 90.849)">
   <path d="M 0,0 C 1.681,0.278 3.739,0.646 5.591,0.883 6.077,0.945 6.297,1.395 6.091,1.834 4.027,1.399 1.312,0.665 0,0" fill="#28333a"/>
  </g>
  <g transform="matrix(-1.5829 1.5592 1.5592 1.5829 166.39 87.943)">
   <path d="M 0,0 C 0.83,0.266 1.77,0.818 2.483,1.322 2.826,1.564 2.814,1.984 2.334,2.222 1.652,1.476 0.641,0.531 0,0" fill="#28333a"/>
  </g>
  <g transform="matrix(-1.5829 1.5592 1.5592 1.5829 156.06 88.879)">
   <path d="M 0,0 C 0.278,0.811 0.588,1.564 0.871,2.169 1.003,2.453 0.704,2.814 0.307,2.782 0.053,1.851 -0.035,0.676 0,0" fill="#28333a"/>
  </g>
  <g transform="matrix(-1.5829 1.5592 1.5592 1.5829 69.03 189.36)">
   <path d="m0 0-0.69-0.933c3.165-2.232 4.149-7.192 0.472-10.353 3.677 1.57 6.937 6.682 6.234 10.309-0.782-2.066-3.988-1.863-6.016 0.977" fill="#28333a"/>
  </g>
  <g transform="matrix(-1.5829 1.5592 1.5592 1.5829 100.34 190.77)">
   <path d="m0 0-1.097-0.968c-3.075 3.462-7.977 3.462-10.557-0.107 1.268 5.784 6.436 9.045 10.36 7.888-3.136-0.75-2.921-5.695 1.294-6.813" fill="#28333a"/>
  </g>
  <g transform="matrix(-1.5829 1.5592 1.5592 1.5829 85.622 202.64)">
   <path d="m0 0c1.347 0.812 2.781 0.494 4.854-1.443 2.592-2.421 2.593-3.754 1.691-4.897-0.678-0.858-2.087-1.444-3.639-1.276-3.389-4.047-5.484-8.25-8.47-12.019-2.958-3.732-6.124-6.729-9.422-9.284l-0.214 0.592c3.151 2.489 6.365 5.849 9.084 9.164 3.032 3.7 5.208 7.779 8.592 11.92 0.156 0.191 0.234 0.23 0.467 0.206 1.405-0.141 2.54 0.335 3.128 1.079 0.565 0.715 0.891 1.745-1.629 4.104-2.194 2.051-3.612 2.021-5.12 0.741z"/>
  </g>
  <g transform="matrix(-1.5829 1.5592 1.5592 1.5829 94.639 208.01)">
   <path d="m0 0c2.467-2.739 2.382-3.875 0.274-6.391-2.895-3.457-9.821-10.18-13.282-14.068-0.697-0.783-0.98-0.537-0.312 0.271 3.339 4.036 10.305 10.852 13.175 14.184 1.882 2.184 1.91 3.175-0.287 5.613-1.666 1.841-3.48 1.737-4.172 1.044-0.714-0.713-0.887-2.025-0.581-3.02 0.239-0.772-0.111-0.892-0.416-0.145-0.496 1.218-0.2 2.857 0.557 3.613 1.201 1.202 3.38 0.742 5.044-1.101"/>
  </g>
  <g transform="matrix(-1.5829 1.5592 1.5592 1.5829 106.49 140.15)">
   <path d="m0 0c2.146 2.601 6.183 5.908 11.706 9.804 3.111 2.195 5.882 4.488 7.955 6.559l0.169-0.661c-1.934-2.001-4.689-4.36-7.704-6.487-5.48-3.866-9.553-7.224-11.622-9.577z"/>
  </g>
  <g transform="matrix(-1.5829 1.5592 1.5592 1.5829 104.29 162.6)">
   <path d="m0 0c2.234-0.86 5.372-4.14 6.321-6.523 2.29-0.825 5.389-4.034 6.157-6.343l-0.44-0.455c-0.716 2.266-3.829 5.523-6.021 6.341-0.056 0.021-0.101 0.063-0.122 0.118-0.918 2.233-4.166 5.654-6.408 6.487z"/>
  </g>
  <g transform="matrix(-1.5829 1.5592 1.5592 1.5829 102.55 173.48)">
   <path d="m0 0c2.425-0.578 5.28-3.491 5.906-5.77 1.864-0.542 4.986-3.632 5.633-5.857l-0.395-0.573c-0.522 2.166-3.69 5.398-5.55 5.976-0.072 0.022-0.128 0.076-0.147 0.148-0.538 2.087-3.442 5.268-6.023 5.653z"/>
  </g>
  <g transform="matrix(-1.5829 1.5592 1.5592 1.5829 68.206 183.69)">
   <path d="m0 0c-0.705 1.698-3.337 4.298-5.085 5.106-0.047 0.021-0.083 0.06-0.104 0.107-0.708 1.599-3.566 4.328-5.753 4.818l0.488 0.415c2.249-0.616 4.966-3.315 5.692-4.919 1.638-0.762 4.255-3.098 5.12-5.015z"/>
  </g>
  <g transform="matrix(-1.5829 1.5592 1.5592 1.5829 100.25 194.87)">
   <path d="m0 0c2.097-0.317 4.53-3.146 5.141-4.77 2.046-0.621 4.051-2.991 4.664-4.874l-0.415-0.448c-0.656 2.014-2.749 4.314-4.537 4.869-0.063 0.02-0.112 0.066-0.136 0.127-0.724 1.807-3.289 4.543-5.201 4.636z"/>
  </g>
  <g transform="matrix(-1.5829 1.5592 1.5592 1.5829 70.637 207.03)">
   <path d="m0 0c-0.176-0.718-0.755-1.286-1.265-1.589-0.627-0.372-0.781-0.124-0.224 0.348 0.442 0.374 0.935 0.975 1.033 1.731z"/>
  </g>
  <g transform="matrix(-1.5829 1.5592 1.5592 1.5829 77.353 207.24)">
   <path d="m0 0c-0.065-0.845-0.767-1.558-1.333-1.792-0.604-0.25-0.725 0.027-0.173 0.375 0.543 0.343 0.98 0.974 0.971 1.782z"/>
  </g>
  <g transform="matrix(-1.5829 1.5592 1.5592 1.5829 91.468 207.01)">
   <path d="m0 0c-0.676-0.122-1.288-0.458-1.809-1.136-0.478-0.623-0.745-0.441-0.341 0.233 0.453 0.758 1.09 1.236 1.775 1.399z"/>
  </g>
  <g transform="matrix(-1.5829 1.5592 1.5592 1.5829 96.697 207.35)">
   <path d="m0 0c-0.75-0.201-1.456-0.77-1.973-1.407-0.458-0.567-0.715-0.366-0.329 0.251 0.442 0.705 1.047 1.226 1.766 1.555z"/>
  </g>
  <g transform="matrix(-1.5829 1.5592 1.5592 1.5829 66.023 202)">
   <path d="m0 0c1.544-1.508 2.013-3.645 0.97-4.891-1.394-1.667-4.879-0.734-6.123 1.58l0.404 0.522c1.031-2.197 4.099-3.084 5.275-1.677 0.647 0.773 0.588 2.557-0.951 4.071z"/>
  </g>
  <g transform="matrix(-1.5829 1.5592 1.5592 1.5829 63.857 201.16)">
   <path d="m0 0c-0.229-0.985-0.846-1.91-1.77-2.635-0.683-0.537-0.891-0.302-0.274 0.309 0.885 0.878 1.4 1.882 1.565 2.907z"/>
  </g>
  <g transform="matrix(-1.5829 1.5592 1.5592 1.5829 103.61 201.42)">
   <path d="m0 0c-0.797 1.657-2.547 2.655-4.016 1.879-2.774-1.466-0.871-5.819 1.992-6.035l-0.598-0.538c-2.983 0.561-5.058 5.351-1.682 7.118 1.839 0.963 3.881-0.323 4.755-2.037z"/>
  </g>
  <g transform="matrix(-1.5829 1.5592 1.5592 1.5829 104.91 202.42)">
   <path d="m0 0c-0.803-0.695-1.729-1.176-2.606-1.413-0.832-0.224-0.936 0.103-0.125 0.394 0.932 0.337 1.607 0.757 2.373 1.482z"/>
  </g>
  <g transform="matrix(-1.5829 1.5592 1.5592 1.5829 100.63 196.75)">
   <path d="m0 0c-0.256-0.203-0.54-0.35-0.846-0.432-0.7-0.188-0.827 0.106-0.157 0.383 0.334 0.137 0.574 0.331 0.906 0.637z"/>
  </g>
  <g transform="matrix(-1.5829 1.5592 1.5592 1.5829 59.268 199.44)">
   <path d="m0 0c0.624-3.052-0.4-6.409-2.515-8.881-2.094-2.45-5.194-3.942-8.396-3.931-2.43 8e-3 -4.724-0.661-6.839-2.31l1.431 1.606c1.673 1.045 3.475 1.46 5.416 1.453 2.809-8e-3 5.742 1.334 7.794 3.733 1.626 1.902 2.553 4.254 2.539 6.744z"/>
  </g>
  <g transform="matrix(-1.5829 1.5592 1.5592 1.5829 105.78 150.07)">
   <path d="m0 0c1.559 2.974 2.31 5.942 2.399 8.455 0.127 3.562 1.627 6.661 4.503 8.704 2.124 1.509 4.581 2.06 6.91 1.165l-0.892-0.398c-1.899 0.384-3.857-0.184-5.573-1.404-2.316-1.644-4.064-4.614-4.19-8.124-0.084-2.356-0.819-5.096-2.14-7.607z"/>
  </g>
  <g transform="matrix(-1.5829 1.5592 1.5592 1.5829 115.1 198.08)">
   <path d="m0 0c-8.244 10.906-19.431 8.834-26.949-2.891-6.036-9.413-9.509-12.346-13.553-11.833-0.097 0.012-0.163 0.032-0.266 0.08-2.804 1.323-5.228 3.089-8.064 5.419 0.068-1.062 0.268-2.02 0.64-3.09 0.096-0.275 0.053-0.406-0.243-0.469-1.84-0.385-3.17-0.74-5.292-1.407 1.169-0.826 2.861-1.774 4.667-2.605 0.395-0.182 0.442-0.292 0.137-0.576-0.484-0.45-1.057-0.982-1.796-1.545 1.036-0.22 1.91-0.296 3.295-0.354 0.368-0.016 0.414-0.152 0.337-0.446-0.203-0.773-0.331-1.424-0.427-2.066 1.97 0.67 5.21 2.046 7.262 2.906 0.112 0.047 0.195 0.065 0.314 0.065 7.161-0.025 10.273 2.98 16.77 12.56 6.449 9.51 12.596 10.933 18.397 4.947l-0.5-0.347c-4.906 5.004-10.657 4.913-17.369-4.983-6.567-9.682-9.835-12.822-17.345-12.774-2.366-1.048-5.275-2.221-7.734-3.071-0.369-0.128-0.508-0.075-0.434 0.375 0.126 0.761 0.259 1.522 0.491 2.309-1.492 0.055-2.345 0.153-3.662 0.411-0.472 0.092-0.585 0.288-0.147 0.614 0.742 0.553 1.41 1.119 1.909 1.576-1.707 0.765-3.54 1.794-4.887 2.748-0.528 0.373-0.542 0.512 0.113 0.72 2.175 0.692 3.579 1.033 5.577 1.422-0.384 1.109-0.644 2.508-0.695 3.658-0.023 0.521 0.115 0.593 0.544 0.238 3.16-2.623 5.683-4.353 8.404-5.707 3.795-0.516 7.324 2.654 13.074 11.62 7.514 11.717 19.294 14.657 28.191 2.448z"/>
  </g>
  <g transform="matrix(-1.5829 1.5592 1.5592 1.5829 127.9 129.67)">
   <path d="m0 0c-6.645 0.163-14.631-3.008-24.653-10.12-7.94-4.528-15.24-12.052-14.827-13.737 0.301-1.233 9.795-3.508 16.633-3.465l0.324 0.321c-1.797-1.123-3.22-1.984-4.586-2.714 2.415-1.703 4.829-2.92 8.553-4.136-0.033-3.341-0.033-7.147 0.468-9.452 1.76 1.272 2.602 1.928 4.53 3.595-2.515-5.741-5.659-15.397-4.84-16.267 0.797-0.848 11.549 1.474 19.247 5.731 11.892 5.429 19.184 11.938 21.382 19.417z" fill="#3e4e57"/>
  </g>
  <g transform="matrix(-1.5829 1.5592 1.5592 1.5829 100.87 82.089)">
   <path d="m0 0c-0.936-0.606-1.786-1.196-2.557-1.764-3.679 5.228-6.456 7.081-6.891 6.804-0.514-0.329 0.138-4.478 3.196-9.905-2.26-2.21-2.963-3.72-2.738-4.024 0.254-0.343 2.136-0.496 5.062 0.329 3.682-5.384 6.726-8.059 7.246-7.805 0.478 0.235-0.093 4.416-2.763 9.56 0.857 0.425 1.757 0.921 2.69 1.495 5.709-8.824 9.58-11.955 9.976-11.732 0.62 0.351-0.14 5.308-5.75 14.78 3.58 3.062 4.633 5.56 4.305 6.033-0.343 0.498-3.052 0.606-7.293-1.295-6 8.939-10.271 11.825-10.563 11.627-0.377-0.256 0.604-4.661 6.08-14.103" fill="#e73830"/>
  </g>
  <g transform="matrix(-1.5829 1.5592 1.5592 1.5829 126.25 128.62)">
   <path d="m0 0c-1.005 4.091-1.263 13.208-0.451 16.224 0.887-0.801 1.962-2.005 2.779-3.338 1.075 2.279 2.236 4.257 3.441 5.977 0.644-2.279 1.01-4.451 1.182-7.375 1.183 1.225 2.301 2.086 3.376 2.559-0.215-3.526-1.814-10.409-3.423-14.817 4.013-1.847 7.496-5.221 10.691-9.911 3.126-4.59 4.802-8.948 5.097-13.058 4.636 0.618 10.781 1.045 15.138 0.334-0.865-1.112-1.977-2.039-3.059-2.75 2.688-0.896 5.222-2.133 7.849-3.771-2.349-0.679-5.223-0.957-8.807-0.957 0.71-1.391 1.074-2.359 1.606-3.709-4.11 1.267-10.971 3.616-14.153 4.945-1.811-3.417-5.779-7.182-8.307-7.844-1.132-0.297-1.704-0.215-2.428 0.934-2.118 3.363-4.548 8.588-5.283 11.579-0.215 0.875 0.093 1.613 0.667 2.108 1.315 1.137 2.584 1.932 4.643 2.775-1.628 1.652-3.22 3.802-3.896 6.137-1.539-1.583-3.452-2.679-5.149-3.229-0.879-0.284-1.418-0.058-2.045 0.55-2.709 2.623-5.741 6.386-8.094 10.07-0.583 0.912-0.412 1.774 0.654 2.917 2.387 2.559 5.634 3.527 7.972 3.65" fill="#e73830"/>
  </g>
  <g transform="matrix(-1.5829 1.5592 1.5592 1.5829 80.512 98.712)">
   <path d="m0 0c-0.343-1.733 3.866-10.759 5.602-12.928 5.84 1.64 10.837 8.489 7.147 12.978-2.553 3.104-7.638 4.016-12.749-0.05" fill="#fff100"/>
  </g>
  <g transform="matrix(-1.5829 1.5592 1.5592 1.5829 131.87 105.99)">
   <path d="m0 0c-0.068-1.662 7.787-11.163 9.239-11.721 5.88 3.63 7.184 9.005 4.653 12.226-3.151 4.01-8.439 3.755-13.892-0.505" fill="#fff100"/>
  </g>
  <g transform="matrix(-1.5829 1.5592 1.5592 1.5829 81.82 122.21)">
   <path d="m0 0c0.697 0.512-0.794 2.616-1.472 2.125-0.619-0.45 0.958-2.501 1.472-2.125" fill="#3e4e57"/>
  </g>
  <g transform="matrix(-1.5829 1.5592 1.5592 1.5829 80.058 45.018)">
   <path d="m0 0c-1.936-3.613-4.646-10.772-3.935-11.482 0.774-0.775 8.547 2.031 14.224 5.386-3.387 0.677-7.419 3.354-10.289 6.096" fill="#dcdbd6"/>
  </g>
  <g transform="matrix(-1.5829 1.5592 1.5592 1.5829 127.83 53.08)">
   <path d="m0 0c-1.29 3.354-1.064 7.838-0.549 11.063-5.514-3.064-11.547-8.644-11.32-9.257 0.296-0.804 6.192-1.677 11.869-1.806" fill="#dcdbd6"/>
  </g>
  <g transform="matrix(-1.5829 1.5592 1.5592 1.5829 56.419 99.69)">
   <path d="m0 0c1.17 0.915 1.986 1.144 2.216 0.872 0.182-0.217-0.176-0.932-1.37-1.857-1.253-0.97-2-1.039-2.19-0.781-0.183 0.25 0.273 0.928 1.344 1.766" fill="#fff8b0"/>
  </g>
  <g transform="matrix(-1.5829 1.5592 1.5592 1.5829 58.072 41.091)">
   <path d="m0 0c-5.486-1.972-8.68-0.921-8.244 2.249-1.086-2.248-1.919-5.045-1.492-5.528 0.55-0.624 6.436 1.436 9.736 3.279" fill="#b4b4b0"/>
  </g>
  <g transform="matrix(-1.5829 1.5592 1.5592 1.5829 138.06 44.724)">
   <path d="m0 0c-2.737 1.153-3.295 2.91 1.034 7.496-2.4-1.414-7.101-5.507-6.938-6.195 0.162-0.688 3.703-1.151 5.904-1.301" fill="#b4b4b0"/>
  </g>
  <g transform="matrix(-1.5829 1.5592 1.5592 1.5829 54.964 124.96)">
   <path d="m0 0c-0.795 8.278-9.396 19.073-15.181 21.933-0.881 0.436-1.16 0.858-0.752 1.784 1.318 2.992 3.462 9.483 4.312 13.923 0.209-1.855-1.693-11.176-3.178-14.66 8.499-3.983 15.74-16.384 15.854-23.045 3.773 0.581 11.723 0.887 14.691 0.113-3.871 0.064-11.485-0.682-14.09-1.231-1.091-0.23-1.535-0.078-1.656 1.183" fill="#c82e28"/>
  </g>
  <g transform="matrix(-1.5829 1.5592 1.5592 1.5829 12.251 147.22)">
   <path d="m0 0c-2.602 1.196-5.532 2.337-7.777 2.939-0.531 0.143-0.649 0.722-0.101 1.032 2.2-0.63 6.573-2.684 7.878-3.971" fill="#c82e28"/>
  </g>
  <g transform="matrix(-1.5829 1.5592 1.5592 1.5829 16.837 128.72)">
   <path d="m0 0c-0.656 1.187-1.415 2.298-1.844 3.013-0.243 0.405-0.019 0.797 0.466 0.849 0.703-1.379 1.269-2.731 1.378-3.862" fill="#c82e28"/>
  </g>
  <g transform="matrix(-1.5829 1.5592 1.5592 1.5829 146.44 166.76)">
   <path d="m0 0c0.322-2.365 0.559-4.859 0.526-6.935-8e-3 -0.557 0.536-0.889 0.979-0.397-0.193 2.193-0.753 5.806-1.505 7.332" fill="#c82e28"/>
  </g>
  <g transform="matrix(-1.5829 1.5592 1.5592 1.5829 152.25 153.16)">
   <path d="m0 0c0.883-1.197 1.794-2.528 2.206-3.43 0.207-0.452 0.7-0.388 0.906 0.083-1.217 1.661-2.134 2.702-3.112 3.347" fill="#c82e28"/>
  </g>
  <g transform="matrix(-1.5829 1.5592 1.5592 1.5829 124.16 40.256)">
   <path d="M 0,0 C 1.387,0.161 3.718,1.186 4.705,1.738 5.163,1.994 5.197,2.377 4.939,2.592 4.746,2.617 4.149,2.568 3.923,2.528 2.322,1.5 1.138,0.686 0,0" fill="#28333a"/>
  </g>
  <g transform="matrix(-1.5829 1.5592 1.5592 1.5829 87.445 46.442)">
   <path d="m0 0c-0.091 0.412-0.569 0.585-1.057 0.193-0.992-0.798-2.916-2.682-3.79-3.814 1.121 0.519 3.637 2.54 4.847 3.621" fill="#28333a"/>
  </g>
  <g transform="matrix(-1.5829 1.5592 1.5592 1.5829 68.383 21.327)">
   <path d="m0 0c0.567-0.51 7.311 1.692 13.153 5.055-3.576 1.1-6.826 3.352-9.329 5.716-1.967-3.584-4.299-10.345-3.824-10.771m14.009 4.821c-5.367-3.149-13.423-6.22-14.446-5.238-0.797 0.765 1.832 8.006 3.817 11.713 0.244 0.454 0.358 0.431 0.714 0.1 2.577-2.391 6.038-4.864 9.684-5.836 0.764-0.204 0.755-0.432 0.231-0.739"/>
  </g>
  <g transform="matrix(-1.5829 1.5592 1.5592 1.5829 129.05 52.887)">
   <path d="m0 0c-1.161 3.055-0.865 7.568-0.496 10.172-5.471-3.197-10.764-8.255-10.628-8.604 0.187-0.483 4.675-1.419 11.124-1.568m0.201 10.644c-0.495-3.157-0.731-7.561 0.544-10.842 0.133-0.34 0.011-0.447-0.294-0.439-6.409 0.146-11.743 1.047-12.143 2.015-0.4 0.967 6.591 7.058 11.405 9.584 0.442 0.232 0.555 0.107 0.488-0.318"/>
  </g>
  <g transform="matrix(-1.5829 1.5592 1.5592 1.5829 127.16 129.12)">
   <path d="m0 0c-6.954 0.053-14.717-3.151-24.506-9.986-8.144-4.676-15.042-11.959-14.683-13.345 0.242-0.936 9.242-3.287 16.304-3.338 1.033-8e-3 1.005-0.456-0.028-0.48-6.972-0.16-16.621 1.995-16.982 3.612-0.449 2.013 7.121 9.797 15.002 14.107 9.94 7.246 17.974 10.426 24.763 10.224z"/>
  </g>
  <g transform="matrix(-1.5829 1.5592 1.5592 1.5829 43.762 115.88)">
   <path d="m0 0c-2.232-7.821-9.57-14.353-21.629-19.542-8.137-4.567-18.687-6.721-19.665-5.691-0.959 1.009 1.877 10.038 4.409 15.569-1.35-1.181-2.1-1.818-3.419-2.766-0.553-0.397-0.654-0.356-0.774 0.299-0.438 2.38-0.54 5.827-0.4 9.075-3.507 1.234-5.668 2.169-8.22 3.899-0.554 0.375-0.558 0.587 0.024 0.879 1.311 0.657 2.044 1.068 3.587 1.986l0.858-0.099c-1.634-1.085-2.626-1.706-3.876-2.359 2.406-1.659 4.306-2.547 7.906-3.794 0.232-0.081 0.309-0.194 0.303-0.415-0.114-3.268-0.013-6.521 0.407-8.77 1.476 1.045 2.213 1.633 3.862 2.992 0.699 0.576 0.914 0.416 0.564-0.403-2.708-6.331-5.279-14.98-4.696-15.589 0.56-0.586 10.921 1.415 18.807 5.776 12.124 5.439 18.834 11.967 21.199 19.239z"/>
  </g>
  <g transform="matrix(-1.5829 1.5592 1.5592 1.5829 133.83 157.38)">
   <path d="m0 0c-0.162 2.649-0.444 4.424-1.009 6.528-1.156-1.666-2.055-3.282-3.015-5.248-0.219-0.448-0.3-0.482-0.612-0.024-0.794 1.165-1.485 1.997-2.29 2.782-0.63-3.228-0.428-11.446 0.537-15.515 0.061-0.257-0.064-0.404-0.377-0.43-2.395-0.188-5.37-1.192-7.631-3.583-1.019-1.076-1.184-1.621-0.597-2.54 2.308-3.615 5.326-7.355 8.031-9.974 0.724-0.701 1.074-0.715 1.749-0.516 1.824 0.536 3.455 1.608 4.964 3.067 0.289 0.28 0.458 0.195 0.555-0.133 0.679-2.285 2.271-4.389 3.672-5.79 0.33-0.331 0.226-0.503-0.092-0.637-1.832-0.768-2.985-1.465-4.406-2.708-0.627-0.549-0.748-1.043-0.564-1.79 0.704-2.867 3.022-7.99 5.217-11.474 0.567-0.901 1.055-1.105 2.165-0.803 2.365 0.646 6.149 4.193 8.046 7.606 0.111 0.2 0.191 0.265 0.431 0.164 3.071-1.271 9.266-3.481 13.501-4.732-0.332 0.966-0.646 1.704-1.264 2.975-0.202 0.415-0.136 0.521 0.327 0.527 3.367 0.048 5.826 0.314 7.907 0.806-2.467 1.505-4.322 2.347-7.065 3.38-0.461 0.174-0.504 0.293-0.075 0.582 1.092 0.734 1.793 1.435 2.519 2.239-4.142 0.536-9.83 0.18-14.49-0.388-0.291-0.035-0.404 0.042-0.431 0.371-0.281 3.404-2.774 9.451-5.04 12.778-2.532 3.717-7.474 8.33-10.402 9.723-0.326 0.155-0.353 0.248-0.243 0.55 1.529 4.256 3.005 10.72 3.312 14.13-0.937-0.527-1.62-1.1-2.776-2.174-0.392-0.364-0.518-0.33-0.554 0.251m-0.511 7.114c0.62-2.232 0.9-4.072 1.019-6.658 1.063 1.024 2.044 1.782 2.971 2.239 0.422 0.209 0.539 0.066 0.514-0.39-0.211-3.902-1.572-9.838-3.356-14.372 2.97-1.404 8.034-6.273 10.591-10.027 2.577-3.784 4.919-9.388 5.212-12.905 4.081 0.663 10.616 1.012 14.576 0.322 0.579-0.102 0.63-0.264 0.281-0.68-0.777-0.927-1.616-1.679-2.628-2.339 2.415-0.819 4.737-1.851 7.149-3.38 0.761-0.483 0.663-0.643-0.075-0.85-2.385-0.669-4.74-0.895-8.158-0.83 0.516-1.024 0.927-1.895 1.348-3.118 0.212-0.614 0.103-0.709-0.564-0.518-4.736 1.362-9.929 3.233-13.622 4.757-1.824-3.502-5.769-7.225-8.348-7.87-1.288-0.322-2.08-0.057-2.828 1.132-2.215 3.515-4.587 8.801-5.3 11.704-0.216 0.881 0.033 1.733 0.813 2.408 1.334 1.153 2.524 1.914 4.314 2.653-1.334 1.425-2.717 3.226-3.524 5.507-1.399-1.36-3.143-2.417-4.931-2.996-0.951-0.307-1.612-0.105-2.374 0.633-2.726 2.638-5.852 6.455-8.178 10.096-0.673 1.055-0.673 1.889 0.67 3.329 2.463 2.642 5.529 3.504 7.935 3.678-0.997 3.979-1.325 12.161-0.461 15.771 0.159 0.662 0.256 0.736 0.73 0.286 0.896-0.849 1.637-1.758 2.364-2.862 0.88 1.952 1.916 3.741 3.136 5.468 0.386 0.548 0.542 0.47 0.724-0.188"/>
  </g>
  <g transform="matrix(-1.5829 1.5592 1.5592 1.5829 82.377 122.31)">
   <path d="m0 0c0.164 0.114 0.131 0.521-0.286 1.117-0.407 0.582-0.766 0.677-0.887 0.589-0.114-0.084-0.071-0.384 0.311-0.94 0.45-0.655 0.758-0.839 0.862-0.766m0.299-0.419c-0.338-0.228-0.955 0.024-1.561 0.882-0.542 0.769-0.561 1.415-0.206 1.666 0.391 0.275 1.07-0.021 1.581-0.75 0.534-0.762 0.63-1.496 0.186-1.798"/>
  </g>
  <g transform="matrix(-1.5829 1.5592 1.5592 1.5829 81.026 99.715)">
   <path d="m0 0c5.159 3.969 10.181 2.933 12.806-0.257 3.85-4.684-1.12-11.755-7.142-13.439l-0.391 0.545c5.645 1.515 10.528 8.251 7.035 12.499-2.703 3.291-7.695 3.629-12.438-0.243z"/>
  </g>
  <g transform="matrix(-1.5829 1.5592 1.5592 1.5829 132.43 106.77)">
   <path d="m0 0c5.534 4.312 10.839 4.323 14.065 0.215 2.692-3.425 1.359-8.883-4.485-12.512l-0.73 0.335c5.641 3.439 7.184 8.636 4.672 11.833-3.215 4.093-8.485 3.315-13.55-0.698z"/>
  </g>
  <g transform="matrix(-1.5829 1.5592 1.5592 1.5829 88.255 105.53)">
   <path d="m0 0c-0.251 0.37-2.724 0.478-6.781-1.282-0.229-0.099-0.306-0.079-0.444 0.129-5.433 8.189-9.911 11.503-10.095 11.386-0.208-0.133 0.974-4.845 6.051-13.575 0.144-0.247 0.08-0.322-0.121-0.451-0.898-0.582-1.615-1.082-2.406-1.666-0.208-0.152-0.309-0.141-0.468 0.081-3.62 5.06-6.167 6.721-6.415 6.551-0.247-0.169 0.108-3.857 3.161-9.361 0.138-0.248 0.08-0.315-0.052-0.448-2.181-2.189-2.641-3.406-2.536-3.568 0.166-0.254 1.758-0.395 4.612 0.347 0.14 0.036 0.247 0.019 0.371-0.162 3.741-5.434 6.508-7.652 6.794-7.519 0.276 0.129-0.214 4.069-2.754 9.036-0.104 0.202-0.049 0.319 0.153 0.419 0.88 0.437 1.666 0.889 2.561 1.439 0.194 0.121 0.28 0.096 0.411-0.105 5.793-8.9 9.352-11.595 9.555-11.466 0.28 0.179-0.214 4.802-5.745 14.188-0.117 0.197-0.127 0.316 0.072 0.491 3.614 3.189 4.224 5.319 4.076 5.536m0.677 0.468c0.451-0.657-0.582-3.357-4.139-6.39 5.116-8.633 6.447-14.449 5.44-15.018-0.621-0.351-5.036 3.386-10.296 11.595-0.785-0.477-1.25-0.775-2.025-1.165 2.415-4.673 3.197-9.355 2.413-9.739-0.686-0.335-4.148 2.498-7.591 7.643-3.089-0.871-4.931-0.439-5.246-0.045-0.359 0.451 0.602 2.431 2.593 4.31-2.988 5.193-3.696 9.738-2.948 10.216 0.732 0.468 3.86-1.831 7.213-6.633 0.701 0.512 1.154 0.816 1.935 1.326-4.992 8.648-6.476 13.888-5.782 14.358 0.752 0.511 6.137-4.16 10.961-11.509 4.077 1.865 7.043 1.673 7.472 1.051"/>
  </g>
  <g transform="matrix(-1.5829 1.5592 1.5592 1.5829 68.999 113.65)">
   <path d="m0 0c-0.248 0.303-1.947-0.403-4.285-1.854 0.325-0.484 0.64-0.949 0.977-1.438 2.283 1.688 3.504 3.052 3.308 3.292" fill="#e73830"/>
  </g>
  <g transform="matrix(-1.5829 1.5592 1.5592 1.5829 104.67 120.3)">
   <path d="m0 0c-0.176 0.276-1.808-0.173-4.362-1.711 0.333-0.595 0.605-1.074 0.919-1.61 2.439 1.625 3.622 3.042 3.443 3.321" fill="#e73830"/>
  </g>
  <g transform="matrix(-1.5829 1.5592 1.5592 1.5829 71.289 93.408)">
   <path d="m0 0c1.479 0.842 2.763 1.693 3.819 2.475-0.337 0.489-0.652 0.953-0.977 1.438-1.046-0.65-2.22-1.447-3.449-2.371 0.173-0.468 0.364-0.999 0.607-1.542" fill="#3e4e57"/>
  </g>
  <g transform="matrix(-1.5829 1.5592 1.5592 1.5829 107.22 101.6)">
   <path d="M 0,0 C 1.271,0.621 2.36,1.261 3.278,1.872 2.965,2.408 2.692,2.887 2.359,3.481 1.366,2.884 0.238,2.126 -1.004,1.176 -0.606,0.684 -0.327,0.348 0,0" fill="#3e4e57"/>
  </g>
  <g transform="matrix(-1.5829 1.5592 1.5592 1.5829 83.58 129.41)">
   <path d="m0 0c1.673-0.143 2.708-1.707 1.566-3.004-0.385-0.438-0.654-0.208-0.315 0.268 0.741 1.04-0.068 2.212-1.557 2.243-0.293 6e-3 -0.373 0.114-0.257 0.41 0.488 1.25-0.431 2.559-1.604 2.25-0.62-0.164-0.731 0.161-0.134 0.392 1.551 0.597 2.78-1.061 2.301-2.559"/>
  </g>
  <g transform="matrix(-1.5829 1.5592 1.5592 1.5829 75.345 95.364)">
   <path d="m0 0c4.426 3.267 7.454 4.622 7.975 3.976 0.495-0.617-1.996-3.266-7.079-6.234l-0.302 0.604c4.366 2.47 6.912 5.022 6.771 5.219-0.166 0.232-3.502-1.33-7.172-4.19z"/>
  </g>
  <g transform="matrix(-1.5829 1.5592 1.5592 1.5829 111.39 101.94)">
   <path d="m0 0c4.635 3.488 7.703 4.56 8.144 3.872 0.387-0.604-1.502-3.012-6.639-5.592l-0.439 0.508c4.383 2.089 6.627 4.455 6.477 4.67-0.143 0.205-3.116-0.844-7.14-3.948z"/>
  </g>
  <g transform="matrix(-1.5829 1.5592 1.5592 1.5829 78.62 97.898)">
   <path d="m0 0c0.704-2.867 3.022-7.99 5.217-11.474l-0.52-0.383c-2.215 3.515-4.628 8.796-5.342 11.699z"/>
  </g>
  <g transform="matrix(-1.5829 1.5592 1.5592 1.5829 129.45 105.46)">
   <path d="m0 0c2.309-3.615 5.326-7.355 8.031-9.975l-0.468-0.459c-2.726 2.638-5.786 6.462-8.112 10.103z"/>
  </g>
 </g>
</svg>
