<?xml version="1.0" encoding="UTF-8"?>
<svg version="1.1" viewBox="0 0 323.2 339.65" xml:space="preserve" xmlns="http://www.w3.org/2000/svg" xmlns:cc="http://creativecommons.org/ns#" xmlns:dc="http://purl.org/dc/elements/1.1/" xmlns:rdf="http://www.w3.org/1999/02/22-rdf-syntax-ns#"><metadata><rdf:RDF><cc:Work rdf:about=""><dc:format>image/svg+xml</dc:format><dc:type rdf:resource="http://purl.org/dc/dcmitype/StillImage"/></cc:Work></rdf:RDF></metadata><defs><clipPath id="clipPath32618-1"><path d="M 0,792.109 H 612.156 V 0 H 0 Z"/></clipPath></defs><style type="text/css">
	.st0{fill:#37434D;}
	.st1{fill:#EF2D38;}
	.st2{fill:#FFF31A;}
	.st3{fill:#D3D2C8;}
	.st4{fill:#FFFA99;}
	.st5{fill:#282F37;}
	.st6{fill:#C6242D;}
	.st7{fill:#A7A59E;}
	.st8{fill:#191A21;}
</style><g transform="matrix(2.6698 .36692 .36692 -2.6698 -353.72 2005.3)"><g clip-path="url(#clipPath32618-1)"><g transform="translate(142.73 657.58)"><path d="m0 0c-0.896 1.297-1.062 5.823 3.509 8.005-4.318 1.695-9.613 4.484-13.787 7.26-2.244-1.904-4.973-3.463-8.223-4.562-1.254-0.424-2.478-0.797-3.677-1.121 5.487-3.872 14.826-7.775 22.259-9.681-0.026 0.034-0.057 0.064-0.081 0.099" fill="#3e4e57"/></g><g transform="translate(68.195 668.21)"><path d="m0 0c-1.088-1.542-2.583-3.07-4.227-4.427-0.038-2.193-0.277-4.487-0.538-6.265-0.629-4.299 0.578-6.691 2.723-6.935 2.544-0.29 4.695 1.885 5.139 6.598 0.267 2.854 0.547 4.54 0.68 5.688 0.171 1.467 1.083 2.739 2.449 3.669-2.263 0.525-4.428 1.115-6.226 1.672" fill="#3e4e57"/></g><g transform="translate(94.257 684.15)"><path d="m0 0c5.75 0.496 12.674 1.803 17.987 3.158 1.294 0.33 2.169-0.206 3.007-1.337 1.144-1.542 2.048-4.807 1.71-7.196 1.963 1.826 5.467 3.289 8.65 3.186-1.552 2.216-2.037 4.772-1.945 6.802 0.065 1.433 0.318 1.904 1.317 2.483 3.251 1.883 7.323 3.599 11.675 5.384 1.274-1.743 3.079-5.174 3.771-8.084 0.983 9.027-2.178 19.238-8.631 27.39-0.122 10.426-5.886 20.708-7.758 20.751-1.515 0.035-7.957-8.499-11.071-15.829-0.363 1.3-0.873 2.539-1.583 3.902-2.338-1.585-4.905-4.952-5.329-8.459-2.478 2.069-5.373 3.891-8.201 5.249-0.407-1.896-0.432-4.023-0.171-6.468-4.332 5.651-12.664 13.137-13.93 12.752-2.113-0.643-4.463-16.165-3.38-27.925 0.897-13.29 5.256-24.241 13.553-30.01 0.504 0.314 1.022 0.623 1.419 0.838-2.777 5.546-3.41 10.669-1.09 13.413" fill="#3e4e57"/></g><g transform="translate(135.85 701.23)"><path d="m0 0c-0.322 0.864-6.979 1.611-16.672-0.789-0.519 1.338-1.072 2.558-1.643 3.66 6.467 2.48 10.108 4.982 9.872 5.555-0.247 0.597-5.671 0.667-12.65-1.16-2.687 3.462-5.211 4.726-6.013 4.38-0.508-0.219-0.331-2.608 0.52-6.118-7.729-2.83-12.3-6.095-12.151-6.693 0.205-0.83 6.125-0.309 13.574 1.78 0.38-1.144 0.809-2.336 1.285-3.559-11.428-3.794-19.247-7.679-19.089-8.45 0.173-0.852 9.18-0.795 21.812 2.5 2.512-4.67 4.881-7.14 5.43-6.976 0.597 0.179 1.617 3.602 0.795 8.784 9.567 3.072 15.224 6.301 14.93 7.086" fill="#e73830"/></g><g transform="translate(124.23 668.28)"><path d="m0 0c5.957 2.015 10.176 5.564 12.84 9.984 3.833-2.076 12.474-6.804 16.586-9.167-0.867 2.049-1.778 3.835-3.135 5.978 3.476-0.54 6.772-1.232 10.046-1.966-1.983 2.635-4.914 5.035-7.955 6.869 2.134 0.959 4.105 1.987 5.877 3.109-4.447 2.132-12.396 3.18-18.615 2.155 0.252 1.079 0.434 2.183 0.555 3.305-0.691 2.91-2.497 6.341-3.77 8.084-4.353-1.786-8.425-3.501-11.676-5.385-0.999-0.579-1.252-1.049-1.316-2.482-0.092-2.03 0.392-4.586 1.945-6.803-3.184 0.103-6.688-1.36-8.651-3.185 0.338 2.388-0.566 5.653-1.71 7.196-0.837 1.131-1.712 1.666-3.006 1.336-5.314-1.354-12.238-2.661-17.988-3.157-2.32-2.745-1.686-7.868 1.09-13.413-0.396-0.215-0.915-0.524-1.419-0.838 7.109-4.943 17.108-6.082 30.302-1.62" fill="#e73830"/></g><g transform="translate(112.24 687.31)"><path d="m0 0c-5.313-1.354-12.237-2.662-17.987-3.158-0.01-0.011-0.018-0.026-0.029-0.038-0.392-7.666 4.775-15.111 12.619-13.567 7.966 1.568 10.32 8.72 7.417 16.439-0.574 0.399-1.216 0.529-2.02 0.324" fill="#fff100"/></g><g transform="translate(136.53 696.58)"><path d="m0 0c-4.305-1.766-8.33-3.467-11.55-5.333-0.554-0.321-0.875-0.615-1.064-1.054 1.247-6.563 4.668-12.123 8.882-10.755 4.711 1.53 6.511 8.718 3.732 17.142" fill="#fff100"/></g><g transform="translate(103.29 685.39)"><path d="m0 0c-0.648-0.115-1.299-0.226-1.948-0.331 0.261-2.262 0.705-4.283 1.192-5.957 0.735 0.234 1.48 0.473 2.239 0.716-0.305 1.653-0.784 3.556-1.483 5.572" fill="#3e4e57"/></g><g transform="translate(104.85 674.04)"><path d="m0 0c0.444 0.11 0.541 2.425-0.078 5.773-0.76-0.243-1.504-0.481-2.239-0.716 0.931-3.198 2.024-5.13 2.317-5.057" fill="#e73830"/></g><g transform="translate(127.89 692.79)"><path d="m0 0c-0.566-0.28-1.124-0.562-1.658-0.848 0.251-1.88 0.705-3.777 1.195-5.412 0.619 0.214 1.256 0.446 1.858 0.656-0.279 1.707-0.727 3.657-1.395 5.604" fill="#3e4e57"/></g><g transform="translate(129.41 681.84)"><path d="m0 0c0.317 0.091 0.357 2.337-0.135 5.349-0.601-0.211-1.238-0.443-1.857-0.657 0.826-2.752 1.755-4.76 1.992-4.692" fill="#e73830"/></g><g transform="translate(122.84 676.38)"><path d="M 0,0 C 0.304,-0.98 3.019,-0.046 2.692,0.892 2.366,1.828 -0.239,0.769 0,0" fill="#3e4e57"/></g><g transform="translate(117.95 718.2)"><path d="M 0,0 C 3.35,-0.176 8.107,-1.008 11.229,-2.007 11.31,5.427 7.796,15.18 6.178,15.282 5.008,15.356 1.248,8.787 0,0" fill="#dcdbd6"/></g><g transform="translate(96.257 711.77)"><path d="m0 0c-2.575 4.009-9.968 12.574-11.018 12.17-1.563-0.602-1.418-15.156 2e-3 -21.656 3.266 3.254 7.672 6.933 11.016 9.486" fill="#dcdbd6"/></g><g transform="translate(93.928 669.9)"><path d="m0 0c-6.157 4.578-9.715 10.386-12.202 20.485-3.679 1.668-7.291 2.374-10.599 2.25-7.068 4.758-8.984 13.432-6.382 23.182 3.68 13.785 1.042 24.631-9.547 31.473-2.369 4.271-4.765 7.333-7.291 9.818 0.201-2.352 0.262-3.482 0.452-5.346-3.648 0.843-7.027 1.261-10.662 1.178 1.485-2.47 2.675-4.413 4.445-6.485-1.494-1.462-2.665-2.461-4.208-3.499 2.131-0.672 4.018-1.023 6.036-1.233-0.453-1.476-0.776-2.593-0.946-4.109 2.251 1.049 4.643 2.406 6.445 3.944 7.425-0.907 12.195-12.287 8.392-24.609-2.755-8.924-1.401-19.238 5.526-26.409-3.556-1.994-6.045-5.353-7.23-9.654-1.107-4.014-2.813-7.965-5.056-10.666-4.41-5.309-6.284-11.588-6.25-18.573-2.144-4.396-0.236-8.547 2.309-9.017 2.921-0.539 6.188 1.771 6.165 6.918 0.469 2.457 0.691 4.111 1.081 6.14 0.321 1.676 1.366 3.317 3.613 4.315 3.574 1.589 7.822 4.871 10.176 8.206 5.206-1.614 13.463-3.511 18.34-3.278 2.017 1.6 5.007 3.514 7.393 4.969" fill="#3e4e57"/></g><g transform="translate(50.779 669.81)"><path d="m0 0c-1.369-1.713-2.48-3.523-3.354-5.424 0.947-3.628 4.205-6.585 8.305-6.02 0.564 0.632 1.306 1.197 2.289 1.634 0.778 0.346 1.588 0.776 2.403 1.265-4.31-0.341-8.709 4.566-9.643 8.545" fill="#e73830"/></g><g transform="translate(53.342 649.64)"><path d="m0 0c0.321 1.692 0.527 3.006 0.754 4.332-2.892-1.103-6.883 0.941-8.746 3.725-0.346-1.949-0.509-3.965-0.499-6.047-0.019-0.038-0.031-0.077-0.05-0.115 1.879-1.642 5.929-2.917 8.541-1.895" fill="#e73830"/></g><g transform="translate(63.891 661.92)"><path d="m0 0c-0.08-1.266-0.208-2.506-0.352-3.606 1.396-1.825 4.996-2.264 7.765-0.996 0.144 1.504 0.289 2.679 0.413 3.619-2.339-1.261-6.261-0.603-7.826 0.983" fill="#e73830"/></g><g transform="translate(68.195 668.21)"><path d="m0 0c-0.708-1.003-1.589-1.999-2.57-2.946 1.564-0.892 4.591-1.266 7.067-0.452 0.426 0.654 1.013 1.238 1.729 1.726-2.263 0.525-4.428 1.115-6.226 1.672" fill="#e73830"/></g><g transform="translate(124.17 650.8)"><path d="m0 0c-3.758-1.972-4.618-5.661-3.203-7.884 1.115-1.752 4.179-2.319 8.502-0.113 3.613 1.843 4.415 4.947 3.322 7.068-1.146 2.224-4.813 2.928-8.621 0.929" fill="#3e4e57"/></g><g transform="translate(145.34 665.08)"><path d="m0 0c-3.76-2.511-3.653-5.98-2.604-7.499 1.683-2.437 6.004-2.545 9.836 0.959 2.455 2.245 2.48 4.441 1.625 5.736-1.783 2.7-6.132 2.623-8.857 0.804" fill="#3e4e57"/></g><g transform="translate(134.2 671.73)"><path d="m0 0c-4.199-0.605-7.921-5.226-4.952-9.383 1.181-0.539 2.394-1.058 3.62-1.551-1.038 3.784 0.903 7.591 5.462 8.535-1.414 0.768-2.809 1.577-4.13 2.399" fill="#e73830"/></g><g transform="translate(142.73 657.58)"><path d="m0 0c-0.896 1.297-1.062 5.823 3.509 8.005-1.448 0.568-3.007 1.261-4.595 2.034-4.258-1.197-5.291-6.148-3.027-8.916 1.437-0.464 2.847-0.877 4.194-1.222-0.026 0.034-0.057 0.064-0.081 0.099" fill="#e73830"/></g><g transform="translate(125.94 651.54)"><path d="m0 0c-4.269 2.036-10.01 8.383-14.901 14.028-2.453-0.177-4.328-0.036-6.162 0.252-1.245-1.423-3.231-4.273-4.055-5.583 4.494-5.675 13.728-13.396 20.079-17.211-1.259 2.127-0.767 6.666 5.039 8.514" fill="#3e4e57"/></g><g transform="translate(125.94 651.54)"><path d="m0 0c-1.333 0.636-2.811 1.693-4.36 3.018-4.669 0.254-7.11-4.974-5.2-8.516 1.592-1.151 3.126-2.178 4.521-3.016-1.259 2.127-0.767 6.666 5.039 8.514" fill="#e73830"/></g><g transform="translate(114.63 661.5)"><path d="m0 0c-5.218 0.909-8.602-2.403-7.684-7.711 1.372-1.272 2.824-2.541 4.3-3.764-1.43 4.183 2.268 8.504 7.09 7.558-1.231 1.233-2.477 2.562-3.706 3.917" fill="#e73830"/></g><g transform="translate(100.02 679.2)"><path d="m0 0c0.51-1.687 0.29-2.922-0.326-3.098-0.538-0.153-1.397 0.971-1.861 2.556-0.534 1.825-0.134 2.81 0.396 2.949 0.552 0.145 1.296-0.77 1.791-2.407" fill="#fff8b0"/></g><g transform="translate(115.72 649.09)"><path d="m0 0c-1.647 1.315-3.147 2.628-4.675 4.094-0.219-0.954-0.129-2.067 0.151-3.155 1.737-1.422 3.458-2.74 5.006-3.848-0.358 1.069-0.51 2.08-0.482 2.909" fill="#28333a"/></g><g transform="translate(111.73 664.77)"><path d="m0 0-0.687 0.801c-1.951-0.102-4.34-0.076-6.162 0.252-1.108-1.307-2.735-3.559-4.054-5.583 1.431-1.971 3.661-4.281 6.149-6.56-0.261 1.419-0.187 2.925 0.067 3.956-1.788 3.395 0.329 7.115 4.687 7.134" fill="#28333a"/></g><g transform="translate(111.05 653.19)"><path d="m0 0c-0.935 0.897-1.881 1.851-2.88 2.897-0.476 0.499-0.848 1.022-1.127 1.553-0.254-1.031-0.327-2.537-0.066-3.956 1.36-1.246 2.796-2.482 4.223-3.649-0.279 1.088-0.369 2.201-0.15 3.155" fill="#c82e28"/></g><g transform="translate(120.75 643.3)"><path d="m0 0c-0.305 0.887-0.407 1.637-0.406 2.348-1.723 1.214-3.225 2.33-4.622 3.446-0.029-0.829 0.124-1.84 0.482-2.909 1.855-1.327 3.463-2.353 4.546-2.885" fill="#c82e28"/></g><g transform="translate(120.34 645.67)"><path d="m0 0c1.66-4.562 13.185-1.475 12.092 4.568 1.859-2.103 0.644-5.898-3.507-7.745-6.572-2.923-8.943 0.587-8.585 3.177" fill="#28333a"/></g><g transform="translate(137.46 661.56)"><path d="m0 0c-0.993 0.414-2.006 0.89-3.081 1.449-0.664 0.345-1.215 0.778-1.664 1.263-0.227-1.062-0.197-2.231 0.072-3.449 1.946-0.792 3.859-1.492 5.584-2.041-0.502 0.906-0.796 1.958-0.911 2.778" fill="#28333a"/></g><g transform="translate(133.39 671.53)"><path d="m0 0c0.158 0.116 0.316 0.231 0.493 0.335-0.406 0.29-1.01 0.698-1.409 0.961-2.302-2.187-7.268-4.645-11.902-5.627 2.148-1.573 5.225-3.248 8.487-4.755-2.118 4.278 0.24 7.969 4.331 9.086" fill="#28333a"/></g><g transform="translate(133.39 671.53)"><path d="m0 0c-4.091-1.117-6.449-4.808-4.331-9.086 1.229-0.568 2.484-1.112 3.727-1.618-0.27 1.218-0.299 2.387-0.073 3.449-1.996 2.157-1.837 5.405 0.677 7.255" fill="#c82e28"/></g><g transform="translate(142.21 659.99)"><path d="m0 0c-1.642 0.414-3.169 0.915-4.748 1.572 0.115-0.82 0.409-1.871 0.911-2.778 1.666-0.529 3.16-0.921 4.34-1.123-0.427 0.675-0.557 1.646-0.503 2.329" fill="#c82e28"/></g><g transform="translate(142.21 659.99)"><path d="m0 0c2.091-4.791 12.205-0.65 11.959 4.294 1.441-2.297-0.59-5.774-3.737-7.308-6.417-3.125-8.691 1.122-8.222 3.014" fill="#28333a"/></g><g transform="translate(153.79 669.12)"><path d="m0 0c-1.688 2.09-11.055 7.525-16.723 10.257-0.722 0.349-1.218-0.112-0.964-0.623 4.266-2.275 14.866-8.038 17.687-9.634" fill="#c82e28"/></g><g transform="translate(105.68 666.73)"><path d="m0 0c11.793-0.496 25.425 3.44 30.496 12.022l0.788-0.461c-5.638-11.412-25.592-13.719-32.177-12.572z" fill="#c82e28"/></g><g transform="translate(160.66 673.16)"><path d="m0 0c-2.458 1.426-6.816 2.311-9.869 2.892-0.665 0.127-1.016-0.363-0.633-0.952 2.296-0.35 7.843-1.293 10.502-1.94" fill="#c82e28"/></g><g transform="translate(158.15 683.25)"><path d="m0 0c-1.717-0.779-4.336-1.909-5.815-2.464-0.464-0.174-0.437-0.697 0.019-0.978 1.512 0.645 4.835 2.425 5.796 3.442" fill="#c82e28"/></g><g transform="translate(84.258 712.55)"><path d="M 0,0 C 0.13,6.423 3.849,8.234 6.77,6.077 4.586,8.435 1.732,11.556 0.996,11.374 0.016,11.13 -0.413,5.109 0,0" fill="#b4b4b0"/></g><g transform="translate(120.4 727.58)"><path d="M 0,0 C 2.078,2.411 6.285,1.781 7.759,-3.358 6.889,1.299 4.705,5.921 3.712,5.864 2.84,5.813 0.796,2.32 0,0" fill="#b4b4b0"/></g><g transform="translate(98.123 721.4)"><path d="m0 0c0.03-2.767 0.42-6.125 1.02-8.19l-1.466 1.878c-0.189 2.36-0.065 5.233 0.446 6.312" fill="#28333a"/></g><g transform="translate(111.12 724.61)"><path d="m0 0c0.84-2.582 1.369-5.343 1.538-7.575 0.066-0.855 0.666-1.01 1.04-0.56-0.255 3.449-1.53 7.335-2.578 8.135" fill="#28333a"/></g><g transform="translate(84.268 681.53)"><path d="m0 0c0.749-2.87 1.471-5.375 2.367-7.84 1.257-3.456-0.088-5.159-3.339-5.426-4.685-0.386-9.69 0.09-14.346 1.11-0.199-0.419-0.4-0.693-0.721-1.075 3.935-1.255 11.668-3.324 18.185-3.41 1.991 1.526 5.381 3.815 7.609 5.065-3.134 1.844-7.408 7.056-9.755 11.576" fill="#28333a"/></g><g transform="translate(53.282 649.54)"><path d="m0 0c0.8-6.827-8.04-10.077-9.089-3.145 2.456-5.009 8.105-0.98 7.351 2.847 0.465 0.01 1.094 0.111 1.738 0.298" fill="#28333a"/></g><g transform="translate(52.843 656.6)"><path d="m0 0c-0.187-1.055-0.362-1.93-0.547-2.896 0.511 4e-3 1.119 0.073 1.73 0.217 0.157 0.938 0.301 1.728 0.437 2.216 0.246 0.886 0.631 1.609 1.13 2.208-0.805-0.048-1.514-7e-3 -2.156 0.105-0.269-0.523-0.467-1.131-0.594-1.85" fill="#28333a"/></g><g transform="translate(68.665 669.24)"><path d="m0 0c-2.868-3.336-6.346-5.818-10.639-7.631 0.747-0.277 1.502-0.423 2.326-0.418 3.651 2.112 7.013 5.359 8.313 8.049" fill="#28333a"/></g><g transform="translate(51.557 649.31)"><path d="M 0,0 C 0.621,0.031 1.271,0.174 1.744,0.331 2.018,1.782 2.256,3.332 2.469,4.607 1.858,4.463 1.25,4.394 0.739,4.39 0.516,3.222 0.281,1.92 0,0" fill="#c82e28"/></g><g transform="translate(56.796 661.12)"><path d="m0 0c-1.606-0.61-2.702-1.384-3.359-2.67 0.642-0.112 1.351-0.153 2.156-0.105 0.594 0.711 1.352 1.241 2.27 1.618 0.831 0.341 1.667 0.76 2.489 1.235-0.825-5e-3 -1.579 0.141-2.327 0.418-0.403-0.171-0.811-0.338-1.229-0.496" fill="#c82e28"/></g><g transform="translate(65.588 665.2)"><path d="m0 0c-0.524-0.519-1.086-1.039-1.68-1.546-0.011-0.638-0.038-1.252-0.075-1.857 1.247-0.972 3.034-1.499 4.802-1.499 0.016 0.233 0.029 0.475 0.043 0.732 0.084 1.54 2.267 0.77 3.21 1.938 0.149 0.504 0.485 1.202 0.907 1.858-3.009-0.836-5.436-0.435-7.207 0.374" fill="#28333a"/></g><g transform="translate(63.48 658.28)"><path d="m0 0c-0.041-0.303-0.085-0.608-0.132-0.918-0.484-3.219 0.463-6.506 2.605-6.793 2.186-0.293 4.076 1.041 4.912 4.106-1.41-2.485-3.168-1.374-2.828 0.746 0.064 0.401 0.121 0.762 0.173 1.109-1.744-0.031-3.458 0.552-4.73 1.75" fill="#28333a"/></g><g transform="translate(68.154 668.18)"><path d="m0 0c-0.638-0.923-1.524-1.952-2.565-2.982 1.771-0.81 4.198-1.21 7.207-0.374 0.472 0.732 1.054 1.411 1.612 1.703-2.394 0.583-4.685 1.199-6.254 1.653" fill="#c82e28"/></g><g transform="translate(63.834 661.8)"><path d="m0 0c-0.072-1.186-0.191-2.332-0.354-3.524 1.273-1.198 2.987-1.781 4.731-1.75 0.207 1.361 0.335 2.403 0.425 3.774-1.768 1e-3 -3.555 0.528-4.802 1.5" fill="#c82e28"/></g><g transform="translate(58.075 716.67)"><path d="m0 0c-2.296-13.825 3.436-21.71 7.735-23.99 0.853-0.451 0.874-1.087 0.012-1.408-0.871-0.324-1.534-0.628-2.28-1.106-6.31 6.68-9.041 16.962-5.467 26.504" fill="#28333a"/></g><g transform="translate(58.289 717.51)"><path d="m0 0c3.157 13.133-2.12 23.527-8.831 24.056-2.044-1.744-4.496-3.183-6.451-3.702 2.077 1.325 3.908 2.899 5.429 4.441 0.353 0.357 0.472 0.433 0.951 0.413 8.195-0.349 13.537-12.828 8.902-25.208" fill="#28333a"/></g><g transform="translate(38.25 743.19)"><path d="m0 0c1.515-0.266 4.135-0.599 5.658-0.646 0.427-0.014 0.523-0.561 0.348-0.897-1.693 0.138-4.906 0.875-6.006 1.543" fill="#28333a"/></g><g transform="translate(37.962 753.07)"><path d="m0 0c1.204-1.736 3.2-4.206 4.46-5.589 0.407-0.447 0.351-0.876-0.09-1.244-1.709 1.89-3.973 5.314-4.37 6.833" fill="#28333a"/></g><g transform="translate(48.245 756.71)"><path d="m0 0c0.255-1.449 0.586-3.179 0.869-4.573 0.12-0.594-0.312-0.776-0.813-0.654-0.14 1.813-0.165 3.843-0.056 5.227" fill="#28333a"/></g><g transform="translate(124.05 677.18)"><path d="m0 0c-0.739-0.25-0.973-0.555-0.923-0.717 0.073-0.236 0.434-0.355 1.232-0.077 0.717 0.249 0.973 0.555 0.89 0.792-0.055 0.161-0.344 0.291-1.199 2e-3m-1.498-0.901c-0.123 0.397 0.178 1.021 1.26 1.441 1.027 0.4 1.827 0.177 2.012-0.358 0.193-0.553-0.313-1.163-1.266-1.499-1.107-0.389-1.832-0.142-2.006 0.416" fill="#0f141b"/></g><g transform="translate(112.8 721.38)"><path d="m0 0c2.92 6.918 9.426 15.792 11.267 15.755 2.143-0.043 8.025-10.521 8.12-21.056 7.155-8.817 10.449-20.639 8.215-30.408 5.965 0.855 13.658-0.072 18.184-2.232 0.464-0.222 0.496-0.42 0.053-0.695-1.556-0.965-3.344-1.903-5.343-2.801 3.05-1.843 5.706-4.182 7.506-6.546 0.446-0.587 0.344-0.8-0.341-0.641-3.109 0.724-5.959 1.346-9.311 1.903 1.127-1.758 2.059-3.509 2.901-5.479 0.271-0.634 0.11-0.809-0.554-0.435-5.313 2.991-12.217 6.92-16.663 9.342-1.138 0.62-0.904 1.076 0.249 0.488 4.565-2.327 11.321-6.047 15.783-8.592-0.843 1.823-1.492 3.064-2.61 4.91-0.27 0.446-0.202 0.612 0.393 0.517 3.512-0.565 6.356-1.143 9.046-1.741-1.779 2.088-4.197 4.16-7.093 5.938-0.461 0.283-0.497 0.493 0.031 0.736 2.083 0.958 3.615 1.747 5.072 2.689-4.473 1.934-12.087 2.807-17.566 1.86-0.611-0.106-0.763 0.142-0.649 0.703 1.943 9.575-0.833 20.829-8.051 30.155-0.035 0.042-0.053 0.094-0.054 0.149-0.122 10.488-5.927 20.354-7.368 20.366-1.297 0.012-7.899-8.573-10.891-15.97z" fill="#0f141b"/></g><g transform="translate(80.761 699.95)"><path d="m0 0c1.842-23.963 14.873-40.919 43.337-31.275 5.383 1.824 9.922 5.175 12.627 9.786l0.698-0.399c-2.807-4.589-7.06-8.119-13.073-10.153-29.338-9.92-43.06 7.649-44.385 31.962-1.062 11.886 1.161 27.668 3.707 28.371 1.615 0.445 11.199-8.329 15.044-14.05 0.992-1.476 0.566-1.801-0.481-0.363-4.315 5.926-13.325 13.883-14.363 13.577-1.678-0.496-4.149-15.263-3.111-27.456" fill="#0f141b"/></g><g transform="translate(97.303 715.54)"><path d="m0 0c-0.257 2.156-0.188 4.237 0.138 5.945 0.093 0.495 0.236 0.592 0.764 0.331 2.815-1.389 5.293-3.005 7.613-4.848 0.593 3.394 2.999 6.418 5.133 8.006 0.449 0.333 0.638 0.295 0.878-0.172 1.272-2.442 1.789-4.665 1.987-7.279 0.103-1.386-0.274-1.431-0.49-0.045-0.418 2.681-0.911 4.47-2.079 6.725-2.124-1.573-4.263-4.627-4.859-7.882-0.078-0.423-0.263-0.505-0.611-0.22-2.321 1.89-4.903 3.572-7.659 4.923-0.348-1.828-0.358-3.838-0.052-6.424z" fill="#0f141b"/></g><g transform="translate(124.13 733.12)"><path d="m0 0c-0.866 0.018-4.529-6.239-5.77-14.586 3.309-0.202 7.443-0.914 10.451-1.833-0.094 7.398-3.484 16.395-4.681 16.419m4.811-17.238c-3.006 0.923-7.645 1.731-10.953 1.927-0.379 0.023-0.465 0.118-0.408 0.505 1.321 8.985 5.161 15.612 6.56 15.526 1.866-0.117 5.464-9.953 5.392-17.582-5e-3 -0.4-0.233-0.485-0.591-0.376" fill="#0f141b"/></g><g transform="translate(85.343 723.61)"><path d="m0 0c-1.085-0.41-1.223-13.472 0.14-20.552 3.306 3.249 7.295 6.498 10.287 8.794-2.749 4.238-9.721 12.025-10.427 11.758m-0.229 0.668c1.33 0.488 8.417-7.855 11.376-12.157 0.224-0.324 0.231-0.474-0.062-0.699-3.321-2.54-7.606-6.15-10.931-9.434-0.398-0.393-0.559-0.312-0.673 0.23-1.333 6.35-1.536 21.39 0.29 22.06" fill="#0f141b"/></g><g transform="translate(140.26 687.58)"><path d="m0 0c-0.521 2.989-2.437 6.689-3.758 8.554-4.224-1.734-8.111-3.349-11.305-5.2-0.882-0.512-1.138-1.114-1.187-2.183-0.101-2.223 0.619-4.613 1.811-6.454 0.352-0.544 0.2-0.69-0.395-0.69-2.825 0-6.063-1.245-8.098-2.943-0.554-0.464-0.745-0.329-0.689 0.318 0.2 2.357-0.651 5.427-1.671 6.803-0.807 1.088-1.551 1.423-2.635 1.152-5.855-1.467-12.646-2.701-17.867-3.16-2.014-2.599-1.533-7.313 1.215-12.905l-0.611-0.348c-3.047 5.864-3.474 11.11-1.207 13.797 0.147 0.175 0.222 0.209 0.484 0.232 5.184 0.465 12.026 1.679 17.814 3.136 1.401 0.352 2.332-0.078 3.37-1.478 1.043-1.408 1.963-4.246 1.826-6.664 2.002 1.646 4.89 2.735 7.607 2.771-1.221 1.925-1.756 4.334-1.659 6.468 0.064 1.433 0.344 2.14 1.48 2.798 3.211 1.861 7.39 3.646 11.621 5.384 0.296 0.121 0.434 0.106 0.628-0.161 1.287-1.77 2.79-4.612 3.551-7.39z" fill="#0f141b"/></g><g transform="translate(114.76 686.63)"><path d="m0 0c2.936-7.822 5e-3 -14.871-7.889-16.42-7.958-1.567-13.382 5.83-13.049 13.509l0.775 0.499c-0.313-7.946 4.988-14.667 12.164-13.253 7.732 1.525 10 8.59 6.96 16.313z" fill="#0f141b"/></g><g transform="translate(101.66 685.11)"><path d="m0 0c0.717-6.146 2.863-10.79 3.141-10.711 0.334 0.094 0.219 5.039-1.833 10.944l0.756 0.068c2.376-7.588 2.136-11.571 1.231-11.796-0.959-0.237-3.336 4.625-4.042 11.305z" fill="#0f141b"/></g><g transform="translate(137 696.31)"><path d="m0 0c2.826-8.792 0.602-15.65-4.127-17.185-4.012-1.3-7.699 2.938-9.193 10.426l0.574 1.139c1.347-7.484 4.757-11.988 8.415-10.836 4.698 1.481 6.054 8.853 3.49 16.639z" fill="#0f141b"/></g><g transform="translate(129.48 681.47)"><path d="m0 0c-0.742-0.299-2.917 4.77-3.665 10.284l0.714 0.371c0.574-4.682 2.637-9.926 2.82-9.886 0.254 0.055-0.098 5.65-1.763 10.399l0.71 0.268c1.991-6.693 2.032-11.093 1.184-11.436" fill="#0f141b"/></g><g transform="translate(81.832 689.9)"><path d="m0 0c-3.502 1.612-7.127 2.412-10.509 2.313-0.236-5e-3 -0.284 0.019-0.459 0.135-6.749 4.449-9.24 13.301-6.496 23.579 3.792 14.206 0.668 24.584-9.391 31.082-0.034 0.022-0.062 0.053-0.082 0.087-2.112 3.704-4.02 6.485-6.567 9.081 0.12-1.628 0.179-2.464 0.324-4.292 0.032-0.398-0.102-0.485-0.486-0.398-3.557 0.809-6.611 1.173-9.909 1.148 1.407-2.331 2.469-4.014 4.005-5.841 0.216-0.257 0.258-0.414 0.025-0.642-1.361-1.332-2.258-2.189-3.505-3.06 1.723-0.512 3.18-0.838 5.098-1.031 0.373-0.037 0.463-0.203 0.365-0.52-0.382-1.248-0.661-2.181-0.829-3.391 1.728 0.828 3.971 2.085 5.686 3.567 0.243 0.211 0.326 0.213 0.593 0.173 7.674-1.146 12.301-12.77 8.514-25.037-3.016-9.768-0.779-19.468 5.356-25.971 0.333-0.355 0.306-0.55-0.042-0.752-3.59-2.086-5.87-5.389-6.973-9.395-1.228-4.454-3.08-8.284-5.145-10.768-4.203-5.059-6.219-11.045-6.217-18.338 0-0.038-7e-3 -0.075-0.024-0.109-2.068-4.241-0.151-8.14 2.065-8.549 2.576-0.477 5.666 1.504 5.734 6.389 2e-3 0.163 1e-3 0.248 0.036 0.427 0.461 2.344 0.673 3.942 1.032 5.989 0.358 2.041 1.409 3.543 3.822 4.617 4.175 1.854 8.338 5.397 10.5 8.553 0.815 1.189 1.194 0.947 0.473-0.3-2.001-3.458-6.56-7.254-10.62-9.058-2.418-1.075-3.186-2.714-3.414-3.952-0.368-1.992-0.622-3.531-1.126-6.129 0.015-5.975-3.923-7.707-6.589-7.215-2.767 0.511-4.847 4.933-2.594 9.455-0.067 7.356 2.082 13.665 6.291 18.733 2.208 2.657 3.732 6.002 4.982 10.535 1.18 4.286 3.477 7.653 6.928 9.684-5.497 5.962-8.472 15.699-5.176 26.374 3.668 11.885-0.795 23.087-7.947 24.119-1.884-1.587-4.197-2.88-6.222-3.836-0.647-0.305-0.754-0.188-0.674 0.402 0.175 1.29 0.489 2.496 0.887 3.694-1.882 0.171-3.756 0.553-5.526 1.08-0.733 0.219-0.759 0.426-0.16 0.837 1.257 0.864 2.472 1.805 3.82 3.112-1.599 1.9-2.729 3.681-4.208 6.172-0.298 0.5-0.216 0.603 0.386 0.613 3.269 0.05 6.545-0.283 10.131-1.088-0.159 1.4-0.286 2.596-0.446 4.663-0.073 0.964 0.15 1.011 0.794 0.355 2.613-2.654 5.03-5.894 7.124-9.661 10.217-6.63 13.494-17.395 9.647-31.806-2.642-9.902-0.494-18.138 6.007-22.66 3.366 0.113 7.023-0.693 10.51-2.242z" fill="#0f141b"/></g><g transform="translate(51.008 670.13)"><path d="m0 0c0.993-4.402 5.759-9.194 9.973-8.491l-1.103-0.67c-3.903-0.194-8.477 4.652-9.334 8.558z" fill="#0f141b"/></g><g transform="translate(47.626 664.79)"><path d="m0 0c0.888-3.937 4.503-6.741 8.378-6.078l-0.592-0.676c-3.78-0.416-7.17 2.237-8.187 5.957z" fill="#0f141b"/></g><g transform="translate(45.435 658.11)"><path d="m0 0c1.766-2.799 5.858-5.011 8.73-3.788l-0.14-0.696c-2.904-1.027-6.829 0.902-8.765 3.674z" fill="#0f141b"/></g><g transform="translate(44.845 651.89)"><path d="m0 0c1.79-1.68 5.959-2.989 8.515-1.932l-0.068-0.657c-2.613-0.933-6.697 0.204-8.627 1.966z" fill="#0f141b"/></g><g transform="translate(46.021 643.15)"><path d="m0 0c0.804 0.106 1.582 1.124 1.84 2.25 0.225 0.978 0.624 0.897 0.482-0.095-0.163-1.138-0.787-2.22-1.659-2.583z" fill="#0f141b"/></g><g transform="translate(48.897 642.65)"><path d="m0 0c0.717 0.484 1.298 1.429 1.454 2.453 0.163 1.064 0.547 1.025 0.488-0.05-0.044-0.811-0.275-1.509-0.722-2.066z" fill="#0f141b"/></g><g transform="translate(74.878 666.44)"><path d="m0 0c-1.565-0.951-2.381-2.127-2.57-3.634-0.132-1.051-0.397-2.811-0.688-5.661-0.558-5.48-3.156-7.164-5.532-6.893-2.548 0.29-3.634 3.073-3.013 7.318 0.241 1.648 0.467 3.906 0.485 5.863l0.795 0.671c-0.026-2.275-0.344-4.967-0.587-6.627-0.604-4.124 0.506-6.341 2.426-6.559 2.139-0.244 4.277 1.427 4.738 6.307 0.263 2.787 0.523 4.619 0.656 5.675 0.176 1.397 1.012 2.789 2.363 3.763z" fill="#0f141b"/></g><g transform="translate(64.904 651.01)"><path d="m0 0c0.478 0.32 0.807 0.792 1.019 1.297 0.334 0.796 0.689 0.673 0.463-0.162-0.146-0.539-0.449-1.06-0.853-1.397z" fill="#0f141b"/></g><g transform="translate(66.722 650.56)"><path d="m0 0c0.618 0.487 1.061 1.036 1.366 1.615 0.471 0.891 0.831 0.723 0.446-0.208-0.206-0.493-0.463-0.904-0.859-1.317z" fill="#0f141b"/></g><g transform="translate(71.286 656.98)"><path d="m0 0c-2.712-1.179-6.271-0.85-7.809 0.943l0.09 0.845c1.309-1.962 4.914-2.449 7.768-1.114z" fill="#0f141b"/></g><g transform="translate(71.649 660.57)"><path d="m0 0c-2.408-1.167-6.212-0.522-7.762 0.948l0.046 0.771c1.415-1.621 5.535-2.367 7.822-0.995z" fill="#0f141b"/></g><g transform="translate(72.472 664.45)"><path d="m0 0c-2.124-0.624-5.21-0.545-7.038 0.59l0.392 0.439c1.586-0.875 4.689-1.169 7.083-0.286z" fill="#0f141b"/></g><g transform="translate(68.418 668.55)"><path d="m0 0c5.055-1.557 13.813-3.556 18.633-3.194l-0.921-0.813c-4.574-0.186-13.128 1.708-18.207 3.306z" fill="#0f141b"/></g><g transform="translate(121.27 642.45)"><path d="m0 0c-7.001 4.036-16.59 12.215-20.588 17.379l0.377 0.672c4.502-5.694 13.49-13.191 19.594-16.942z" fill="#0f141b"/></g><g transform="translate(124.34 650.45)"><path d="m0 0c-3.688-1.935-4.285-5.436-3.085-7.321 1.003-1.575 3.956-2.111 8.061-0.016 3.593 1.834 4.056 4.816 3.138 6.597-0.942 1.83-4.164 2.814-8.114 0.74m-3.692-7.737c-1.48 2.326-0.786 6.259 3.338 8.424 3.783 1.986 7.789 1.5 9.124-1.09 1.259-2.446 0.168-5.696-3.493-7.563-4.082-2.085-7.629-1.876-8.969 0.229" fill="#0f141b"/></g><g transform="translate(127.9 642.08)"><path d="m0 0c0.156 1.3-0.911 2.533-1.837 2.977-1.017 0.487-0.824 0.859 0.222 0.438 1.305-0.525 2.304-1.961 2.261-3.157z" fill="#0f141b"/></g><g transform="translate(131.41 644.17)"><path d="m0 0c0.303 1.539-0.312 2.986-1.229 3.974-0.75 0.809-0.477 1.086 0.345 0.351 0.953-0.854 1.618-2.208 1.563-3.69z" fill="#0f141b"/></g><g transform="translate(125.53 651.38)"><path d="m0 0c-4.251 2.153-9.833 8.231-14.922 14.148l0.861 0.068c5.126-5.908 10.748-12.043 14.879-13.888z" fill="#0f141b"/></g><g transform="translate(114.93 661.15)"><path d="m0 0c-5.435 1.1-8.709-2.393-7.626-7.696l-0.697 0.65c-0.864 5.396 2.923 8.509 7.736 7.73z" fill="#0f141b"/></g><g transform="translate(118.63 657.23)"><path d="m0 0c-5.084 1.108-8.513-3.357-6.97-7.505l-0.801 0.589c-1.304 4.104 2.52 8.36 7.129 7.621z" fill="#0f141b"/></g><g transform="translate(121.91 654.25)"><path d="m0 0c-4.863 0.474-7.247-5.141-4.99-8.548l-1.016 0.669c-1.613 3.613 0.89 8.527 5.333 8.485z" fill="#0f141b"/></g><g transform="translate(145.53 664.75)"><path d="m0 0c-3.599-2.403-3.384-5.693-2.503-6.969 1.576-2.281 5.635-2.338 9.303 1.017 2.263 2.069 2.358 4.036 1.533 5.286-1.486 2.25-5.458 2.585-8.333 0.666m-3.103-7.39c-1.259 1.826-1.047 5.537 2.693 8.034 2.788 1.863 7.44 1.995 9.364-0.919 0.943-1.429 0.966-3.774-1.692-6.206-3.882-3.55-8.511-3.592-10.365-0.909" fill="#0f141b"/></g><g transform="translate(150.32 656.91)"><path d="m0 0c-0.11 1.529-0.877 2.546-2.016 3.17-1.024 0.56-0.843 0.908 0.225 0.436 1.367-0.604 2.229-1.865 2.4-3.253z" fill="#0f141b"/></g><g transform="translate(153.41 659.49)"><path d="m0 0c-0.06 1.671-0.617 2.797-1.887 3.507-1.11 0.621-0.932 0.98 0.221 0.439 1.148-0.539 2.025-1.462 2.243-3.322z" fill="#0f141b"/></g><g transform="translate(143.08 657.09)"><path d="m0 0c-8.17 2.008-17.69 6.151-23.013 9.956l0.885 0.254c5.13-3.568 13.985-7.447 21.609-9.439z" fill="#0f141b"/></g><g transform="translate(132.71 673.08)"><path d="m0 0c4.249-2.816 9.581-5.626 13.894-7.295l-0.759-0.397c-4.238 1.645-9.501 4.433-13.653 7.194z" fill="#0f141b"/></g><g transform="translate(134.56 671.49)"><path d="m0 0c-4.294-0.446-8.104-5.164-4.809-9.36l-0.993 0.437c-2.665 4.097 0.885 8.614 5.052 9.392z" fill="#0f141b"/></g><g transform="translate(138.69 669.11)"><path d="m0 0c-4.565-0.811-6.599-4.604-5.5-8.458l-0.67 0.287c-1.043 4.089 1.259 7.628 5.442 8.604z" fill="#0f141b"/></g><g transform="translate(142.04 667.42)"><path d="m0 0c-4.457-1.056-5.413-6.274-2.884-8.89l-0.97 0.262c-2.131 2.788-1.076 7.678 3.078 9.007z" fill="#0f141b"/></g><g transform="translate(115.02 692.38)"><path d="m0 0c2.357-4.424 4.641-6.664 4.98-6.551 0.402 0.134 1.369 3.028 0.592 8.159-0.052 0.347-0.011 0.427 0.361 0.547 9.903 3.202 14.548 6.134 14.413 6.578-0.183 0.592-6.482 1.359-15.987-0.962-0.333-0.08-0.426-2e-3 -0.553 0.318-0.454 1.146-0.993 2.339-1.516 3.365-0.168 0.33-0.106 0.482 0.232 0.613 6.155 2.397 9.535 4.715 9.387 5.051-0.147 0.334-4.787 0.547-11.957-1.299-0.282-0.072-0.373-0.037-0.552 0.184-2.528 3.136-4.787 4.373-5.447 4.08-0.357-0.158-0.09-2.712 0.588-5.481 0.088-0.363 0.026-0.465-0.326-0.595-7.255-2.686-11.786-5.771-11.672-6.214 0.081-0.308 4.353-0.417 12.92 1.964 0.321 0.089 0.438 0.028 0.557-0.322 0.352-1.055 0.766-2.222 1.173-3.277 0.119-0.309 0.077-0.474-0.261-0.586-11.002-3.667-18.75-7.458-18.611-8.02 0.075-0.305 6.917-0.87 21.095 2.689 0.311 0.077 0.433 0.044 0.584-0.241m5.229-7.486c-0.88-0.24-3.795 2.922-5.854 6.892-12.626-3.28-21.763-3.236-21.998-2.076-0.253 1.242 9.452 5.699 18.985 8.856-0.398 1.033-0.654 1.756-1 2.787-7.216-2.004-13.467-2.541-13.751-1.422-0.31 1.223 6.617 5.142 12.035 7.098-0.681 2.695-1.008 5.886-0.125 6.267 0.973 0.418 3.817-0.95 6.355-4.289 6.888 1.805 12.643 1.633 12.974 0.833 0.414-1.001-4.447-3.951-9.688-5.965 0.516-1.017 0.8-1.777 1.248-2.912 9.506 2.381 16.471 1.517 16.886 0.405 0.446-1.191-6.215-4.827-14.852-7.613 0.821-5.043-0.412-8.641-1.215-8.861" fill="#0f141b"/></g><g transform="translate(105.57 666.67)"><path d="m0 0c-3.889-4.453-8.034-11.658-12.546-21.436-0.645 2.606-1.099 4.866-1.592 7.583-2.635-2.126-5.599-4.228-8.463-6.159 0.124 2.978 1.41 6.925 3.041 10.78-3.274-0.129-5.752-0.277-8.51-0.457 4.178 4.45 10.988 9.969 18.595 14.132 1.572 0.859 10.979-2.72 9.475-4.443" fill="#e73830"/></g><g transform="translate(77.516 657.09)"><path d="M 0,0 C 1.77,0.731 5.918,1.118 8.254,1.168 8.802,1.18 8.971,0.781 8.765,0.265 6.343,0.312 2.863,0.127 0,0" fill="#c82e28"/></g><g transform="translate(82.962 647.04)"><path d="M 0,0 C 2.441,1.901 4.812,3.9 7.58,6.249 8.101,6.69 8.633,6.502 8.773,5.792 6.916,4.488 1.201,0.381 0,0" fill="#c82e28"/></g><g transform="translate(92.92 645.61)"><path d="m 0,0 c 1.238,6.363 7.743,17.231 12.018,21.906 0.632,0.691 1.304,0.429 1.316,-0.07 C 9.174,17.195 2.704,5.84 0,0" fill="#c82e28"/></g><g transform="translate(92.62 645.24)"><path d="m0 0c-0.623 2.596-1.074 4.849-1.405 6.997-2.156-1.721-4.421-3.425-7.919-5.8-0.554-0.375-0.719-0.258-0.683 0.336 0.17 2.699 1.209 6.302 2.92 10.335-2.785-0.061-4.561-0.229-7.923-0.484-0.724-0.055-0.772 0.155-0.298 0.67 4.711 5.108 11.587 10.347 18.648 14.065 1.248 0.656 1.491 0.214 0.266-0.485-6.697-3.826-13.169-8.851-17.86-13.501 2.615 0.221 4.331 0.29 7.51 0.367 0.426 0.011 0.527-0.126 0.372-0.51-1.655-4.113-2.655-7.427-2.885-9.894 3.114 2.112 5.281 3.682 7.75 5.636 0.417 0.331 0.543 0.303 0.65-0.252 0.475-2.483 0.83-4.212 1.381-6.326 4.294 9.528 8.207 16.021 12.214 20.45 0.953 1.052 1.303 0.744 0.41-0.358-3.689-4.553-7.688-11.371-12.356-21.281-0.329-0.698-0.625-0.663-0.792 0.035" fill="#0f141b"/></g><g transform="translate(124.09 674.02)"><path d="m0 0c-0.554-0.895-1.167-1.579-1.747-1.941-0.042-1.469 0.579-2.81 1.32-2.749 0.827 0.067 1.78 1.456 1.869 3.895-0.448 0.076-0.946 0.325-1.442 0.795" fill="#ed8599"/></g><g transform="translate(122.72 670.42)"><path d="m0 0c-0.125 1.282 1.924 2.87 2.641 1.502 0.1 0.352 0.199 0.882 0.213 1.258-0.527 0.118-1.127 0.465-1.466 0.798-0.383-0.529-1.223-1.58-1.821-1.923 0-0.39 0.149-1.14 0.433-1.635" fill="#ce7486"/></g><g transform="translate(120.22 672.46)"><path d="m0 0c-0.333 0.8 0.043 0.989 0.44 0.218 0.5-0.97 1.689-0.76 3.128 1.479 0.172 0.267 0.328 0.267 0.544 0.071 1.324-1.197 2.551-0.698 2.712 0.475 0.113 0.813 0.486 0.801 0.49-0.017 0.011-1.633-1.797-2.509-3.373-1.112-1.46-2.268-3.252-2.765-3.941-1.114" fill="#0f141b"/></g><g transform="translate(125.85 673.19)"><path d="m0 0c-0.091-2.727-1.155-4.062-2.173-4.142-1.049-0.085-1.691 1.4-1.659 2.871l0.631 0.38c-0.094-1.591 0.546-2.704 0.988-2.668 0.557 0.042 1.498 1.15 1.576 3.68z" fill="#0f141b"/></g></g></g></svg>
