<?xml version="1.0" encoding="UTF-8"?>
<!-- Created with Inkscape (http://www.inkscape.org/) -->
<svg version="1.1" viewBox="0 0 586.07 710.16" xml:space="preserve" xmlns="http://www.w3.org/2000/svg"><g transform="matrix(1.3333 0 0 -1.3333 -99.929 1056.2)"><g transform="translate(307.58 381.69)"><path d="m0 0c1.956-19.023 5.191-43.285 8.585-64.216 2.88 24.974 5.61 48.909 7.559 66.504-5.028-1.613-10.387-2.401-16.144-2.288m39.235-105.08c-4.152-0.84-11.404-1.296-16.894-0.608-3.157-4.544-9.289-8.277-18.568-10.051-21.492-4.11-30.688 5.388-33.799 15.429-22.808-8.681-37.164 1.321-40.904 23.03-7.723 19.491-12.761 40.075-14.533 59.86-3.307-5.521-6.237-10.183-8.186-14.302-2.494 9.647-4.659 23.199-3.899 33.819-9.543-5.637-21.152-11.995-32.041-17.216-4.92-19.101-4.586-50.682 2.338-70.973 17.542-14.77 12.165-32.065-8.799-34.187-26.817-2.715-36.918 15.069-33.182 27.903-7.29 22.875-11.399 53.64-12.318 103.32-0.722 38.972 1.99 72.255 20.004 101.9 14.365 23.638 49.938 31.16 79.376 15.708l143.94-117.16c-5.533-26.048-12.845-62.919-17.085-87.13 14.321-3.842 16.593-24.888-5.447-29.343" fill="#3e4e57"/></g><g transform="translate(451.72 429.53)"><path d="m0 0c25.512 27.476 41.744 70.532 47.095 128.95 6.501 44.281 0.765 108.92-9.6 111.77-11.104 3.055-55.426-29.925-75.449-57.35 2.289 9.338 5.717 20.007 8.957 27.437-16.197-1.334-31.248-6.097-43.252-15.624-12.004 14.1-26.101 25.15-37.723 30.295-1.336-9.717-3.049-18.1-5.527-25.531-7.915 40.687-32.685 81.116-39.759 81.411-8.833 0.367-46.506-55.807-57.955-104.52-16.799-62.897-18.045-112.58-0.828-148.23z" fill="#3e4e57"/></g><g transform="translate(378.37 537.73)"><path d="m0 0c1.115 6.865 1.89 13.454 2.381 19.676 27.015-2.077 49.537-0.455 49.954 2.316 0.44 2.921-22.491 17.929-49.511 24.606-0.871 16.067-3.816 26.158-6.555 26.55s-10.625-7.809-18.701-22.871c-33.029 2.112-57.578-5.657-58.132-9.347-0.384-2.561 17.655-10.71 47.085-16.431-1.891-5.61-3.634-11.642-5.136-18.068-47.331 4.957-80.768-1.223-81.331-4.046-0.707-3.531 29.241-19.707 77.427-29.867 0.168-24.62 6.866-41.844 10.15-42.338 3.578-0.538 15.137 10.503 24.19 36.559 50.891-6.861 86.859-4.995 87.16-1.055 0.299 3.849-35.783 23.914-78.981 34.316" fill="#e73830"/></g><g transform="translate(454.58 482.88)"><path d="m0 0c6.412-17.722 3.099-40.641-4.438-54.719 25.472-18.602 43.907-34.856 62.339-60.163-7.707 0-17.591 0.67-24.969 1.842 1.845-13.072 3.185-24.636 5.365-36.366-9.22 5.028-19.61 12.403-30.334 20.949-2.346-8.716-4.864-18.433-8.045-28.155-10.892 26.311-26.715 61.239-36.649 78.298-23.631-11.144-51.842-13.991-84.015-8.454-29.579 5.091-52.708 14.704-69.869 28.699-15.77-20.614-42.586-60.332-50.128-74.913-2.848 8.378-4.017 21.789-3.851 33.686-15.756-9.049-24.468-13.073-38.546-20.784 3.52 12.406 10.557 30.336 18.435 42.234-14.079-0.503-28.32 2e-3 -37.708 1.846 22.289 17.428 59.996 38.543 85.973 46.254-4.84 25.045-1.847 52.704 13.448 67.014 17.763-7.373 59.512-24.49 73.53-31.152 5.19-2.463 7.164-6.921 5.868-13.407-1.343-6.704-4.862-17.429-9.889-26.143 13.07 3.351 27.82 1.508 41.394-7.207-0.501 10.055 0.535 24.957 3.689 33.016 1.992 5.092 4.339 6.687 9.382 6.871 22.795 0.837 58.784 0.754 79.018 0.754" fill="#e73830"/></g><g transform="translate(329.7 485.21)"><path d="m0 0c-1.041 1.562-2.558 2.83-4.576 3.786-14.019 6.662-55.763 23.778-73.53 31.152-15.413-30.268-6.315-70.097 17.405-79.331 22.766-8.861 51.872 3.18 60.701 44.393" fill="#fff100"/></g><g transform="translate(295.91 449)"><path d="M 0,0 C 1.909,-0.463 6.906,9.909 10.889,22.817 7.613,23.98 4.338,24.931 0.72,25.95 -2.034,12.44 -1.68,0.407 0,0" fill="#e73830"/></g><g transform="translate(304.87 497.92)"><path d="m0 0c-4.018-6.844-6.649-15.154-8.24-22.97 3.618-1.019 6.893-1.969 10.169-3.133 2.278 7.385 4.231 15.597 5.078 23.096-2.211 0.958-4.559 1.964-7.007 3.007" fill="#3e4e57"/></g><g transform="translate(454.29 482.88)"><path d="m0 0c-20.288 0-56.036 0.079-78.724-0.754-3.215-0.118-5.333-0.821-6.963-2.628-3.761-39.597 8.81-63.885 38.133-63.404 23.092 0.382 45.481 23.865 47.554 66.786" fill="#fff100"/></g><g transform="translate(384.78 436.39)"><path d="M 0,0 C 1.63,-0.336 5.734,7.569 8.807,21.687 5.754,22.205 2.16,22.868 -1.092,23.339 -2.451,10.186 -1.571,0.327 0,0" fill="#e73830"/></g><g transform="translate(387.96 482.47)"><path d="m0 0c-2.206-7.89-3.551-15.775-4.273-22.739 3.252-0.471 6.845-1.135 9.898-1.652 1.484 6.814 2.726 15.052 3.33 24.548-3.063-0.044-6.056-0.097-8.955-0.157" fill="#3e4e57"/></g><g transform="translate(332.79 432.48)"><path d="M 0,0 C -0.845,-4.694 10.867,-6.515 11.532,-1.949 12.191,2.607 0.659,3.676 0,0" fill="#28333a"/></g><g transform="translate(319.92 628.93)"><path d="m0 0c-2.703 27.563-18.771 64.187-23.964 63.852-8.355-0.538-34.105-49.971-40.559-84.632 19.608 11.396 41.773 17.796 64.523 20.78" fill="#dcdbd6"/></g><g transform="translate(429.4 606.79)"><path d="m0 0c17.375-8.424 38.173-23.954 52.119-40.932 7.5 31.402 7.751 88.467 3.293 90.023-6.077 2.12-42.299-27.448-55.412-49.091" fill="#dcdbd6"/></g><g transform="translate(126.44 377.24)"><path d="m0 0c0.432-12.313 1.091-23.378 1.983-33.336 14.514-4.871 33.721-5.203 46.483 0.801 0.438 8.062 1.472 15.631 3.078 21.862 0.108 0.051 0.217 0.106 0.324 0.157l0.748 12.471c-16.263-5.475-37.631-5.966-52.616-1.955" fill="#e73830"/></g><g transform="translate(180.16 296.14)"><path d="m0 0c-2.385 7.172-3.96 15.693-4.79 24.562-11.52-5.137-30.786-7.936-43.335-4.925 1.719-9.887 3.79-18.494 6.225-26.186 14.191-3.814 31.605-0.992 41.9 6.549" fill="#e73830"/></g><g transform="translate(256.56 374.69)"><path d="m0 0c-8.449-3.382-19.718-4.78-30.567-3.818-1.475-2.561-2.706-5.06-4.007-7.105 0.373-3.345 0.932-7.991 1.569-12.133 9.645-4.772 27.702-3.814 38.264 1.523-2.106 7.73-3.869 15.257-5.259 21.533" fill="#e73830"/></g><g transform="translate(236.4 304.6)"><path d="m0 0c10.822-1.706 26.618 1.206 36.117 7.351-1.831 7.394-4.412 17.062-5.818 23.287-8.818-6.735-30.491-9.977-39.307-3.238 1.943-6.894 5.48-18.914 9.008-27.4" fill="#e73830"/></g><g transform="translate(310.59 355.84)"><path d="m0 0c-11.891-10.156-34.562-13.74-47.418-8.587-2.015 8.798-4.587 19.379-6.61 27.44 13.501-4.18 38.449-0.472 50.877 7.704 0.99-8.14 2.337-19.865 3.151-26.557" fill="#e73830"/></g><g transform="translate(276.32 295.7)"><path d="m0 0c12.032-5.153 31.259-2.178 42.41 6.882-1.276 6.851-3.594 20.615-4.851 28.566-9.839-10.195-34.476-12.498-44.66-7.423 2.946-10.107 5.023-18.601 7.101-28.025" fill="#e73830"/></g><g transform="translate(317.35 309.33)"><path d="m0 0c9.859-8.101 25.452-8.788 35.002-3.379 0.903 5.719 3.302 18.337 4.193 24.117-12.867-4.195-29.017-2.436-38.571 4.242-0.244-3.763-1.174-12.133-1.732-16.411 0.373-2.694 0.73-5.328 1.108-8.569" fill="#e73830"/></g><g transform="translate(361.41 354.32)"><path d="m0 0c-11.777-5.01-31.46-2.603-40.898 3.195 1.222 8.653 1.866 15.101 2.753 23.362 11.426-4.48 31.292-5.274 43.418-0.874-1.893-8.815-3.447-16.698-5.273-25.683" fill="#e73830"/></g><g transform="translate(146.99 496.41)"><path d="m0 0c-34.493 13.766-43.084 66.578-11.912 102.86 26.862 31.27 34.187 76.421-4.415 105.95-17.59 3.608-34.578 9.02-50.964 15.785 6.614 3.458 12.33 6.013 18.943 7.667-7.665 7.215-13.531 12.627-21.044 20.444 7.965 0.451 17.136-0.601 26.155-2.104 0 15.483 0 26.758 0.303 43.144 10.671-9.021 19.09-18.49 29.161-31.419 5.863 10.673 9.021 16.085 15.185 26.157 2.101-15.634 4.022-41.251 4.775-61.695 38.211-40.472 42.734-87.229 6.201-135.16-22.502-29.525-19.582-62.681 13.458-72.674-8.426-2.194-20.015-10.202-25.846-18.961" fill="#3e4e57"/></g><g transform="translate(267.12 642.3)"><path d="M 0,0 C 16.929,32.049 34.186,37.729 43.737,20.761 40.594,32.073 32.484,50.107 28.839,50.234 22.546,50.45 8.266,23.18 0,0" fill="#b4b4b0"/></g><g transform="translate(458.2 637.86)"><path d="m0 0c13.741 9.384 28.019 1.21 28.418-32.854 2.012 18.938 2.073 49.227-1.615 50.903s-20.097-10.842-26.803-18.049" fill="#b4b4b0"/></g><g transform="translate(422.03 640.87)"><path d="m0 0c-5.342-6.032-11.563-17.283-13.959-27.856-0.609-2.69 2.021-4.203 4.689-2.655 2.01 7.258 5.588 21.605 9.27 30.511" fill="#28333a"/></g><g transform="translate(342.47 655.27)"><path d="m0 0c1.32-6.599 1.444-16.151-1.296-27.341-0.912-3.719-4.109-3.202-5.303-1.536 2.661 9.247 4.336 17.044 6.599 28.877" fill="#28333a"/></g><g transform="translate(454.83 326.01)"><path d="m0 0c-0.502 16.843-17.049 53.789-31.757 80.813-2.092 3.845-4.159 4.458-8.361 2.301-36.805-18.882-109.04-9.627-146.41 18.823-3.001 2.284-7.271 2.247-9.554-0.628-15.585-19.609-41.602-57.19-45.122-76.924 13.071 21.745 36.952 57.441 50.277 74.535 40.85-33.434 117.02-40.599 153.6-20.11 11.187-20.111 31.717-63.791 37.329-78.81" fill="#c82e28"/></g><g transform="translate(153.08 408.14)"><path d="m 0,0 c 8.772,-0.133 23.659,0.263 35.351,1.527 2.891,0.31 4.456,-2.126 2.793,-4.652 C 26.513,-3.923 6.78,-3.059 0,0" fill="#c82e28"/></g><g transform="translate(171.34 363.79)"><path d="m 0,0 c 7.542,6.724 23.063,15.586 35.004,22.53 2.509,1.461 4.679,0.286 4.934,-2.01 C 30.899,14.938 8.703,4.254 0,0" fill="#c82e28"/></g><g transform="translate(492.89 334.94)"><path d="m0 0c-8.523 6.665-17.941 13.893-27.03 22.062-2.091 1.878-4.031 0.901-4.589-1.696 8.076-7.291 21.169-15.906 31.619-20.366" fill="#c82e28"/></g><g transform="translate(512.5 369.3)"><path d="m0 0c-8.543 1.195-16.085 2.634-22.712 4.509-2.45 0.693-4.15-1.197-3.671-4.072 8.103-1.317 18.359-1.674 26.383-0.437" fill="#c82e28"/></g><g transform="translate(317.92 333.88)"><path d="m0 0c5.726-3.227 12.558-5.264 20.178-5.831 0.862 7.73 1.809 15.853 2.785 23.693-7.36 0.466-14.581 2.541-20.179 5.542-0.855-7.621-1.817-15.768-2.784-23.404" fill="#28333a"/></g><g transform="translate(318.92 301.97)"><path d="m0 0c14.077-7.709 16.258-18.268 11.062-25.642 14.749-2.68 31.171 2.011 33.098 13.996-11.141-8.465-28.236-1.593-27.285 12.258-6.215 0.298-13.01 2.575-18.254 6.162 0.442-2.355 0.908-4.687 1.379-6.774" fill="#28333a"/></g><g transform="translate(320.7 357.29)"><path d="m0 0c5.598-3.001 12.818-5.076 20.179-5.542 1.149 9.285 2.332 18.135 3.44 25.379-7.813 0.167-14.903 1.531-21.223 3.478-0.506-5.773-1.371-14.152-2.396-23.315" fill="#c82e28"/></g><g transform="translate(315.91 318.73)"><path d="m0 0c0.401-2.907 0.981-6.474 1.634-9.985 5.244-3.588 12.039-5.865 18.254-6.162 0.388 7.096 1.223 16.481 2.301 25.475-7.62 0.568-14.452 2.605-20.177 5.831-0.684-5.442-1.371-10.625-2.012-15.159" fill="#c82e28"/></g><g transform="translate(269.57 323.24)"><path d="m0 0c3.413-0.866 6.865-1.445 10.056-1.747-1.93 7.623-3.878 15.518-5.759 23.314-3.509 0.236-7.007 0.822-10.182 1.778 1.972-7.831 3.961-15.712 5.885-23.345" fill="#28333a"/></g><g transform="translate(276.64 294.91)"><path d="m0 0c-3.177-20.879 11.873-31.463 29.285-29.881 16.99 1.547 28.391 9.446 25.725 22.953-4.875-18.723-46.639-17.82-44.987 5.335-3.275 0.224-6.7 0.871-10.078 1.817 0.02-0.073 0.04-0.153 0.055-0.224" fill="#28333a"/></g><g transform="translate(263.91 424.94)"><path d="m0 0c-3.708-4.792-10.987-14.734-14.361-20.147 1.8-8.142 4.325-18.692 7.197-30.362 3.306-0.77 6.821-1.221 10.474-1.359-1.154 4.28-2.451 10.054-3.519 14.348-1.15 4.624-0.036 7.157 6.033 7.955 11.29 1.486 27.421-0.432 37.158-4.919 0.106-2.831 0.235-4.892 0.601-9.005 5.83 0.227 11.141 0.985 15.87 2.366-0.073-0.945-0.162-2.029-0.265-3.208 6.32-1.947 13.41-3.311 21.224-3.478 0.164 1.085 0.33 2.152 0.491 3.157 0.511 3.177 1.672 4.328 5.176 5.809 5.012 2.117 11.096 3.303 18.745 3.284l0.757 4.011c-38.65-0.668-81.322 11.813-105.58 31.548" fill="#28333a"/></g><g transform="translate(263.69 346.59)"><path d="m0 0c3.175-0.956 6.673-1.542 10.182-1.777-2.39 9.871-4.663 19.541-6.651 28.257-3.653 0.138-7.168 0.589-10.474 1.359 2.171-8.825 4.543-18.292 6.943-27.839" fill="#c82e28"/></g><g transform="translate(276.58 295.14)"><path d="m0 0c3.378-0.945 6.802-1.593 10.078-1.816-3e-3 2.862-4.559 18.374-7.034 28.174-3.19 0.302-6.642 0.881-10.055 1.747 2.529-10.047 4.936-19.651 7.011-28.105" fill="#c82e28"/></g><g transform="translate(254.69 329.97)"><path d="m0 0c-1.77 6.307-3.487 12.813-5.137 19.469-7.203-1.342-16.128-1.128-25.751 1.334 1.089-6.563 2.586-13.277 4.255-19.622 7.882-4.041 18.856-3.237 26.633-1.181" fill="#28333a"/></g><g transform="translate(276.45 290.73)"><path d="m0 0c-8.729-2.706-14.572 4.256-14.695 10.817-0.043 2.318-0.113 3.837-0.333 5.274-6.992-2.237-15.511-3.432-24.436-2.874 0.84-20.767 21.23-32.124 40.374-22.428-0.836 2.683-1.174 6.367-0.91 9.211" fill="#28333a"/></g><g transform="translate(261.42 306.82)"><path d="m0 0c-0.192 1.262-0.496 2.46-1.015 4.079-1.951 6.096-3.86 12.477-5.715 19.073-7.777-2.055-18.751-2.86-26.633 1.181 2.926-11.14 6.354-21.12 8.912-27.01 4e-3 -0.067 0.011-0.13 0.015-0.197 8.925-0.558 17.444 0.637 24.436 2.874" fill="#c82e28"/></g><g transform="translate(226.62 371.12)"><path d="M 0,0 C 7.275,11.581 16.639,25.028 22.904,33.9 24.451,27.071 27.827,11.562 29.869,3.535 20.189,-0.11 8.973,-1.271 0,0" fill="#28333a"/></g><g transform="translate(256.74 374.43)"><path d="m0 0 0.943-4.284c-8.906-1.915-10.571-10.903-8.135-20.698-7.204-1.342-16.129-1.128-25.752 1.334-0.751 4.534-1.311 8.994-1.58 13.197 1.255 2.104 2.772 4.556 4.404 7.148 8.621-1.315 20.964-0.271 30.12 3.303" fill="#c82e28"/></g><g transform="translate(135.84 341.8)"><path d="m0 0c-2.522 0.584-5.032 1.316-7.365 2.084 0.998-9.738 2.274-19.256 3.83-28.243 2.647-0.413 5.331-0.754 7.91-0.944-1.669 8.092-3.138 17.272-4.375 27.103" fill="#28333a"/></g><g transform="translate(137.34 474.08)"><path d="m0 0c-9.112-14.032-12.761-54.314-11.184-96.757 2.235-0.499 4.415-0.944 6.521-1.329-2.278 36.648-1.272 75.212 4.663 98.086" fill="#28333a"/></g><g transform="translate(148.46 287.95)"><path d="m0 0c-3.631 0.304-6.725 0.689-10.382 1.498-1.991-17.376 8.931-27.14 26.327-28.155 17.425-1.018 26.57 5.124 25.284 17.392-6.919-17.904-45.166-12.606-41.229 9.265" fill="#28333a"/></g><g transform="translate(132.67 375.99)"><path d="m0 0c-2.106 0.385-4.286 0.83-6.521 1.329 0.417-11.142 1.192-22.43 2.322-33.434 2.333-0.768 4.843-1.5 7.365-2.084-1.359 10.808-2.431 22.397-3.166 34.189" fill="#c82e28"/></g><g transform="translate(140.22 314.7)"><path d="m0 0c-2.58 0.189-5.264 0.53-7.91 0.943 1.625-9.397 3.55-18.218 5.778-26.119-5e-3 -0.028-5e-3 -0.052-9e-3 -0.077 3.658-0.809 6.752-1.194 10.383-1.498-3.068 5.82-5.853 15.173-8.242 26.751" fill="#c82e28"/></g><g transform="translate(138.47 601.78)"><path d="m0 0c-29.915-42.609-15.46-79.06 4.022-89.367 7.284-3.852 18.603-0.503 21.494 6.41 2.662-1.279 5.783-2.513 8.297-3.518-11.232-3.353-19.777-11.062-25.139-19.106-36.248 14.005-43.239 72.776-8.674 105.58" fill="#28333a"/></g><g transform="translate(81.278 721.82)"><path d="m0 0c15.838-4.274 31.299-7.542 46.517-9.458 2.3-0.289 4.354-1.1 6.13-2.465 14.657-11.25 25.963-30.07 24.78-52.683-4.275 20.991-12.947 36.703-27.652 48.015-12.569 2.262-40.097 9.552-49.775 16.591" fill="#28333a"/></g><g transform="translate(262.81 488.23)"><path d="m0 0c-1.527-9.671-4.803-15.103-7.011-14.84-1.748 0.208-3.206 6.8-1.63 16.469 1.837 11.287 5.091 14.571 7.216 14.25 1.759-0.263 3.04-5.683 1.425-15.879" fill="#fff8b0"/></g><g transform="translate(79.269 749.66)"><path d="m0 0c6.472-5.593 15.584-12.694 21.428-17.032 2.056-1.523 2.194-4.317-0.879-4.964-7.227 6.536-16.968 15.208-20.549 21.996" fill="#28333a"/></g><g transform="translate(103.31 745.48)"><path d="M 0,0 C 2.671,-0.786 5.416,-0.05 5.152,3.927 4.303,16.623 3.3,28.311 1.979,44.086 0.723,33.088 0.062,15.271 0,0" fill="#28333a"/></g><g transform="translate(148.34 782.9)"><path d="m0 0c-4.275-10.181-7.164-17.157-10.275-24.258-1.31-2.981-3.953-2.651-5.72-0.849 3.771 7.48 12.224 20.079 15.995 25.107" fill="#28333a"/></g><g transform="translate(236.76 606.84)"><path d="m0 0c11.38 48.436 49.273 106.56 59.987 106.23 7.586-0.232 31.266-38.511 39.72-77.733 1.543 6.133 2.402 11.911 3.452 19.653 0.279 2.036 1.046 2.468 2.891 1.576 11.819-5.7 25.734-16.662 36.968-29.655 11.207 8.306 25.88 13.792 42.371 15.453 2.819 0.28 3.526-0.429 2.328-3.037-3.075-6.707-4.921-11.902-7.301-19.727 21.446 26.93 60.842 55.668 72.728 52.539 11.814-3.11 17.722-68.218 10.767-113.87-4.943-59.048-21.366-103.63-49.009-131.89l-0.428 5.961c24.718 28.667 39.637 68.552 45.74 126.29 6.001 46.674-0.032 107.38-8.39 109.71-9.588 2.667-51.322-28.363-73.043-55.708-3.031-3.827-4.089-2.746-3.114 1.473 2.187 9.469 4.784 17.512 7.626 24.267-15.907-1.584-28.165-6.539-39.064-14.457-1.333-0.97-2.125-1.012-3.062 0.073-10.954 12.724-23.44 22.744-34.846 28.483-1.227-8.539-2.901-16.046-5.024-22.83-1.368-4.368-2.531-4.736-3.524 8e-3 -8.421 40.027-32.789 79.54-38.115 79.413-7.747-0.186-44.861-55.332-56.075-103.06-17.451-66.553-14.518-112.43-3.618-139.67l0.531-12.147c-19.35 35.992-18.89 85.095-0.496 152.66" fill="#0f141b"/></g><g transform="translate(463.83 355.32)"><path d="m0 0c10.275-8.147 19.011-14.268 26.822-18.743-1.691 9.168-3.31 19.273-4.582 32.574-0.171 1.755 0.294 2.428 2.164 2.119 7.604-1.26 14.613-1.668 21.116-1.668-17.986 23.452-35.749 39.039-59.707 56.876-1.217 0.909-1.355 1.606-0.707 2.946 6.401 13.203 9.957 34.492 4.356 51.635-23.316 0.189-59.526-0.057-77.648-0.722-4.189-0.153-6.319-1.439-7.98-5.688-2.965-7.574-3.96-19.883-3.691-32.283 0.045-2.196-0.893-2.38-2.789-1.222-12.19 7.455-25.093 10.107-39.126 6.89-3.099-0.711-3.492 0.067-2.035 2.75 4.486 8.236 8.075 18.697 9.356 25.087 1.089 5.448-0.016 9.135-4.941 11.472-11.901 5.657-51.557 21.947-72.346 30.544-14.695-15.216-16.133-41.459-12.528-63.633 0.303-1.874-0.089-2.449-1.611-2.913-25.974-7.954-61.237-28.121-82.016-43.497 6.268-0.994 19.356-2.136 33.186-1.437 2.302 0.115 2.853-0.656 1.478-2.842-7.099-11.264-13.383-26.683-16.534-37.514 11.194 5.886 19.691 10.28 34.657 18.627 2.046 1.137 2.67 0.788 2.657-1.735-0.065-11.18 0.98-21.432 2.97-28.486 9.329 17.472 33.618 52.117 48.302 71.412 1.048 1.365 1.774 1.442 3.138 0.31 17.326-14.407 39.996-23.302 68.472-28.202 31.424-5.409 60.235-2.45 82.28 8.19 1.365 0.658 1.952 0.469 2.738-0.875 10.199-17.5 25.199-49.953 34.985-74.214 2.411 7.426 4.924 16.308 6.716 23.445 0.504 2.012 1.155 2.142 2.848 0.797m-0.516-3.378c-1.695-7.154-3.958-16.036-6.971-25.617-1.151-3.658-2.328-3.658-3.806-0.094-10.394 24.965-25.464 59.068-35.225 76.083-23.58-10.841-52.135-13.773-83.711-8.045-29.269 5.311-52.487 14.329-69.436 28.333-14.587-19.534-38.722-54.978-48.66-73.169-1.669-3.059-2.784-2.609-3.604 0.252-2.421 8.426-3.594 20.577-3.363 31.449-13.89-8.024-22.474-12.252-35.689-19.431-3.184-1.732-3.826-0.926-2.732 2.648 3.594 11.856 10.788 28.787 17.117 39.2-11.254-0.565-25.579 0.094-34.821 1.603-3.048 0.496-3.053 1.613-0.679 3.499 21.846 17.357 57.181 36.932 84.661 45.609-4.471 22.807-2.616 51.245 13.414 66.782 1.028 0.997 1.547 1.144 3.005 0.539 21.099-8.768 61.383-25.382 73.152-30.973 5.842-2.774 8.189-7.74 6.642-15.466-1.272-6.363-4.255-15.306-8.606-23.528 12.364 2.419 25.876-0.031 36.852-6.426-0.284 10.311 0.835 23.159 3.792 30.716 2.279 5.823 5.096 7.803 10.841 8.013 17.909 0.66 54.489 1.001 78.747 0.942 1.446-5e-3 1.867-0.255 2.349-1.633 6.461-18.446 2.605-41.152-4.424-54.551 23.463-16.86 43.251-33.688 60.906-58.422 2.346-3.289 1.867-4.254-1.924-4.225-8.425 0.067-14.548 0.744-21.903 2.064 1.373-11.488 3.132-22.133 5.375-34.564 0.467-2.59-0.563-2.955-2.802-1.682-8.012 4.559-18.04 11.516-28.497 20.094" fill="#0f141b"/></g><g transform="translate(295.96 691.17)"><path d="m0 0c-6.034-0.234-30.956-45.436-38.07-79.665 17.567 9.789 36.809 15.669 60.053 18.994-3.26 28.098-18.659 60.801-21.983 60.671m-42.44-82.424c6.404 33.594 32.317 85.18 42.464 85.708 6.653 0.346 22.71-37.654 25.581-64.703 0.205-1.939-0.078-2.413-2.102-2.687-23.197-3.197-45.248-10.493-62.692-20.254-3.06-1.709-3.771-0.787-3.251 1.936" fill="#0f141b"/></g><g transform="translate(484.25 654.41)"><path d="m0 0c-4.412 1.696-38.914-25.546-52.45-46.975 17.798-8.863 36.014-22.902 48.871-37.935 7.277 32.885 6.025 83.969 3.579 84.91m-4.541-89.144c-12.72 14.972-32.909 30.78-50.626 39.623-1.709 0.854-1.937 1.75-0.995 3.208 15.433 23.848 50.964 51.654 57.382 49.412 5.884-2.055 4.556-62.266-2.281-91.732-0.597-2.583-1.752-2.549-3.48-0.511" fill="#0f141b"/></g><g transform="translate(334.11 432.16)"><path d="m0 0c-0.21-1.17 0.984-2.341 4.179-2.828 2.8-0.43 4.477 0.19 4.654 1.398 0.118 0.802-0.938 1.946-3.682 2.405-3.604 0.602-4.992-0.072-5.151-0.975m3.771-5.437c-5.454 0.841-6.951 3.697-6.539 5.971 0.403 2.235 3.54 3.956 8.366 3.158 4.182-0.692 6.373-3.107 6.028-5.515-0.416-2.859-3.849-4.238-7.855-3.614" fill="#0f141b"/></g><g transform="translate(330.89 482.86)"><path d="m0 0c-9.547-41.966-40.372-51.913-62.783-43.188-24.942 9.712-33.171 48.599-19.375 78.59l4.524 1.257c-15.241-29.726-5.309-68.565 16.34-76.829 25.681-9.802 51.125 7.887 58.651 44.349z" fill="#0f141b"/></g><g transform="translate(306.39 497.4)"><path d="m0 0c-10.559-17.785-11.332-45.683-9.889-45.993 1.634-0.352 12.089 23.997 13.911 44.139l3.267-1.404c-4.609-27.466-13.966-47.442-18.005-46.578-4.598 0.982-4.295 27.677 7.251 50.907z" fill="#0f141b"/></g><g transform="translate(455.89 480.66)"><path d="m0 0c-2.54-45.22-27.179-65.574-49.434-65.94-31.899-0.533-42.949 25.711-40.014 61.929l4.076 4.309c-3.869-37.523 7.079-63.25 36.204-62.766 20.94 0.344 43.333 21.449 45.862 65.006z" fill="#0f141b"/></g><g transform="translate(398.87 482.55)"><path d="m0 0c-2.839-32.447-10.277-48.31-14.269-47.556-4.611 0.872-4.399 23.488 1.42 47.416l3.514 0.159c-6.015-20.806-5.946-43.64-4.352-43.872 1.709-0.245 8.692 17.845 10.198 43.903z" fill="#0f141b"/></g><g transform="translate(179.85 367.37)"><path d="m0 0c-4.777-17.855-5.288-49.413 1.874-70.697 17.309-14.777 13.709-34.463-10.014-36.864-27.069-2.75-39.25 14.738-35.2 29.631-7.668 23.725-11.665 55.749-12.543 103.13-0.748 40.374 2.283 73.713 20.061 102.97 15.349 25.267 52.563 32.013 81.636 16.435l0.126-4.085c-28.902 15.323-63.742 9.133-78.149-14.58-17.313-28.496-20.453-61.963-19.733-100.79 0.879-47.37 4.312-77.653 11.657-102.02 0.275-0.911 0.26-1.392 0.063-2.262-2.553-11.3 6.139-27.767 31.738-25.17 19.235 1.948 23.929 17.043 8.263 31.046-0.497 0.443-0.82 0.964-1.036 1.602-7.149 20.952-7.059 51.038-2.64 69.602z" fill="#0f141b"/></g><g transform="translate(159.68 261.54)"><path d="m0 0c2.955 6.787 2.263 13.573-0.947 18.032-2.632 3.661-1.519 4.78 1.654 1.571 3.943-3.987 5.735-12.44 2.468-19.886z" fill="#0f141b"/></g><g transform="translate(174.48 261.82)"><path d="m0 0c3.282 5.442 4.085 11.658 1.754 17.919-1.636 4.403-0.281 5.14 2.028 1.045 3.004-5.326 3.035-12.272 0.176-17.958z" fill="#0f141b"/></g><g transform="translate(176.09 376.84)"><path d="m0 0c-15.794-4.651-35.527-4.776-49.563-1.048l-0.125 2.89c14.481-3.938 35.272-3.495 50.905 1.383z" fill="#0f141b"/></g><g transform="translate(174.75 343.15)"><path d="m0 0c-13.182-5.897-32.008-5.693-46.211-0.754l-0.339 3.058c15.398-5.351 34.812-4.744 46.674 0.754z" fill="#0f141b"/></g><g transform="translate(175.5 319.23)"><path d="m0 0c-11.005-5.203-30.531-8.272-43.154-4.902l-0.544 2.973c12.452-3.197 32.324-0.392 43.447 4.903z" fill="#0f141b"/></g><g transform="translate(180.86 294.97)"><path d="m0 0c-10.974-8.745-30.247-10.518-42.691-6.746l-0.378 2.932c13.953-4.002 31.53-1.316 41.812 6.328z" fill="#0f141b"/></g><g transform="translate(278.05 279.82)"><path d="m0 0c-20.807-7.894-38.737-1.319-42.923 24.176-7.585 19.175-12.567 38.787-14.454 57.965l2.828 4.178c1.636-19.702 6.629-40.973 14.426-60.796 0.177-0.449 0.266-0.836 0.358-1.329 3.382-18.371 15.369-30.047 38.822-21.051z" fill="#0f141b"/></g><g transform="translate(264 278.32)"><path d="m0 0c1.41 4.56 0.912 9.835-1.89 14.754-2.653 4.669-1.217 5.575 1.925 1.219 3.297-4.567 4.463-10.646 3.201-15.691z" fill="#0f141b"/></g><g transform="translate(250.76 406.72)"><path d="m0 0c6.812-30.702 19.22-79.449 27.225-110.18 0.211-0.825 0.192-1.083 0.093-1.759-1.758-12.185 3.98-33.002 32.964-27.213 23.072 4.607 25.81 22.499 7.385 32.586-0.771 0.42-1.018 0.864-1.195 1.853-4.933 27.276-10.088 65.737-12.004 90.97-0.633 8.288 1.819 8.469 2.545 0.188 2.001-24.187 7.53-63.682 12.412-90.498 20.266-10.267 19.58-32.903-8.657-38.301-33.136-6.343-39.047 18.397-36.372 31.293-8.078 30.332-19.757 76.861-27 107.21z" fill="#0f141b"/></g><g transform="translate(307.59 383.55)"><path d="m0 0c10.307-0.283 18.383 1.925 27.495 7.259 4.585 2.682 5.652 0.895 1.32-2.168-8.224-5.814-17.836-9.093-28.657-8.956z" fill="#0f141b"/></g><g transform="translate(307.59 380.85)"><path d="m0 0c-12.464-7.993-37.126-11.801-50.968-7.729-8.49-3.309-20.303-4.944-31.266-3.614l1.949 2.702c10.33-0.778 20.743 0.636 28.815 3.866 0.242 0.095 0.515 0.105 0.762 0.03 13.586-4.201 38.561-0.197 50.425 7.888z" fill="#0f141b"/></g><g transform="translate(262.2 351.77)"><path d="m0 0c-10.066-5.149-28.056-6.568-38.257-1.848l-0.461 3.369c9.047-4.846 27.36-4.105 38.024 1.284z" fill="#0f141b"/></g><g transform="translate(266.81 333.62)"><path d="m0 0c-9.003-6.3-28.704-9.625-38.583-3.794l-0.959 3.993c8.187-7.127 30.552-3.696 38.815 2.739z" fill="#0f141b"/></g><g transform="translate(235.94 306.06)"><path d="m0 0c10.968-1.947 26.945 1.284 36.073 7.228l0.661-2.829c-8.516-5.479-24.018-9.332-35.822-7.321z" fill="#0f141b"/></g><g transform="translate(310.76 354.2)"><path d="m0 0c-11.28-9.502-33.654-13.524-46.978-8.674l-0.816 3.332c12.934-5.622 36.18-1.434 47.386 8.641z" fill="#0f141b"/></g><g transform="translate(314.16 329.52)"><path d="m0 0c-9.402-9.787-33.627-12.344-44.409-7.532l-0.741 3.465c9.234-5.284 35.476-3.214 44.727 7.639z" fill="#0f141b"/></g><g transform="translate(319.33 301.3)"><path d="m0 0c-10.424-8.979-30.489-12.156-42.781-7.141l-0.107 2.97c12.148-5.136 31.368-1.897 42.039 7.106z" fill="#0f141b"/></g><g transform="translate(299.7 264.93)"><path d="m0 0c3.518 4.148 3.236 10.213 0.895 13.688-2.624 3.895-1.15 5.048 1.802 1.395 3.147-3.895 3.869-10.33 0.821-15.113z" fill="#0f141b"/></g><g transform="translate(317.2 267.47)"><path d="m0 0c2.003 3.898 2.452 9.176 0.633 13.86-1.862 4.8-0.267 5.559 2.066 0.967 2.111-4.143 2.549-9.265 1.167-13.319z" fill="#0f141b"/></g><g transform="translate(315.16 322.68)"><path d="m0 0c2.252 19.554 4.753 42.392 6.784 60.741l3.456 1.1c-2.33-21.033-5.789-50.504-8.224-71.605z" fill="#0f141b"/></g><g transform="translate(330.81 277.56)"><path d="m0 0c5.196-0.562 11.029-0.314 15.742 0.628 19.247 3.85 18.603 22.436 5.563 26.113-1.231 0.345-1.587 0.865-1.351 2.199 4.405 25.201 11.681 62.241 16.936 86.979l3.489 0.094c-5.596-25.326-12.805-61.284-17.252-86.571 14.799-4.996 16.31-27.243-6.913-32.049-5.096-1.056-12.412-1.257-18.256-0.536z" fill="#0f141b"/></g><g transform="translate(335.96 275.64)"><path d="m0 0c2.254 3.665 2.514 7.479 1.6 10.374-1.266 4.01 0.553 4.635 2.155 0.746 1.179-2.856 1.567-7.106-0.361-11.089z" fill="#0f141b"/></g><g transform="translate(347.9 276.93)"><path d="m0 0c3.143 3.771 3.834 8.076 3.372 10.923-0.602 3.721 1.11 4.133 2.219 0.535 0.82-2.659 0.884-6.65-1.349-10.296z" fill="#0f141b"/></g><g transform="translate(353.78 305.21)"><path d="m0 0c-9.019-5.625-25.202-6.096-35.886 1.979l-0.595 3.991c9.78-8.689 25.895-9.134 35.003-3.677z" fill="#0f141b"/></g><g transform="translate(356.36 328.59)"><path d="m0 0c-11.282-3.613-27.81-3.142-38.43 4.117l0.345 3.079c9.344-6.799 25.825-8.536 38.587-4.147z" fill="#0f141b"/></g><g transform="translate(361.01 352.69)"><path d="m0 0c-11.187-4.463-30.544-2.828-40.506 3.235l0.254 3.079c9.187-5.889 29.638-8.248 40.943-3.016z" fill="#0f141b"/></g><g transform="translate(366.16 378.33)"><path d="m0 0c-11.469-3.99-31.612-3.645-42.892 1.069l0.218 2.859c11.784-4.731 31.914-5.084 43.333-0.722z" fill="#0f141b"/></g><g transform="translate(146.23 494.82)"><path d="m0 0c-35.949 13.848-44.311 68.515-12.412 105.64 26.733 31.119 32.887 74.595-3.865 103.23-16.344 3.369-33.906 8.703-50.604 15.708-2.736 1.149-2.612 1.952-0.168 3.239 5.366 2.828 10.535 5.058 16.488 6.756-6.345 5.625-12.316 11.092-18.908 17.89-2.656 2.742-2.489 3.649 1.124 3.663 8.297 0.035 15.648-0.593 24.353-2.071 0 14.43-0.129 24.198 0.157 40.357 0.059 3.391 0.774 3.708 3.314 1.52 10.378-8.962 18.756-18.367 27.292-29.244 4.336 8.535 7.603 14.318 13.476 23.539 2.275 3.566 3.166 3.296 3.711-1.042 2.149-17.144 3.991-39.267 4.526-60.048 39.652-41.778 41.841-90.038 6.064-136.97-23.956-31.43-16.944-62.565 14.99-70.921l-5.185-1.76c-31.144 10.039-36.794 43.225-12.664 74.882 34.939 45.832 33.053 91.09-5.538 132.36-0.632 0.672-0.82 1.032-0.868 2.134-0.738 19.545-2.274 41.525-4.12 56.591-4.86-7.458-7.758-12.827-12.624-21.668-1.021-1.858-1.885-1.726-3.14-0.147-8.873 11.172-17.42 20.81-26.155 28.477-0.251-14.72-0.314-24.175-0.158-39.436 0.016-1.782-0.604-2.319-2.459-2.006-9.073 1.535-15.458 2.229-21.516 2.131 5.72-6.002 11.439-11.594 17.975-17.5 1.85-1.671 1.532-2.399-0.784-3.026-6.005-1.627-10.027-3.26-15.179-5.869 16.017-6.465 31.443-11.049 47.209-14.316 0.467-0.098 0.918-0.243 1.458-0.655 36.967-28.029 33.899-73.703 4.342-108.11-30.856-35.916-21.289-87.553 11.847-100.4z" fill="#0f141b"/></g><g transform="translate(346.33 470.12)"><path d="m0 0c3.01-0.345 13.349 9.479 22.153 34.386 0.481 1.358 0.978 1.635 2.484 1.433 53.033-7.063 83.841-4.251 84.037-2.189 0.255 2.679-35.214 22.246-76.371 32.327-1.598 0.391-1.866 0.964-1.632 2.455 0.933 5.918 1.582 12.56 2.072 18.41 0.129 1.605 0.638 2.025 2.27 1.9 23.466-1.806 46.711-0.29 46.97 1.399 0.311 2.055-21.745 16.105-47.103 22.53-1.322 0.336-1.524 0.578-1.602 2.148-0.818 16.36-3.991 23.664-5.258 23.877-1.6 0.268-9.515-7.28-17.022-21.432-0.373-0.706-0.909-0.991-1.833-0.951-33.74 2.163-55.206-5.747-55.461-7.86-0.166-1.335 15.888-9.104 44.726-14.79 1.335-0.268 1.878-0.906 1.384-2.377-1.758-5.274-3.493-11.156-4.828-16.689-0.351-1.467-0.849-2.049-2.656-1.866-45.984 4.66-77.992-1.345-78.208-3.203-0.188-1.614 25.786-17.2 75.15-27.731 1.278-0.271 1.825-0.694 1.845-2.184 0.31-24.314 6.717-39.343 8.883-39.593m-0.752-4.493c-4.816 0.709-12.053 20.256-11.926 42.941-45.676 9.749-78.64 26.88-77.63 31.908 0.978 4.912 41.5 10.509 82.099 6.079 1.292 5.415 2.386 8.963 4.096 14.151-26.029 5.08-47.309 13.803-46.665 18.075 0.746 4.973 26.019 13.316 58.955 11.347 7.805 14.839 16.663 23.259 20.595 22.979 3.524-0.25 7.64-10.173 8.268-26.889 26.037-6.494 50.14-22.562 49.468-27.045-0.688-4.583-28.688-5.632-50.212-4.053-0.491-5.811-1.121-10.138-2.049-16.014 42.681-10.421 79.297-30.905 78.908-35.992-0.46-5.929-40.408-7.516-87.846-1.064-8.288-24.886-21.444-37.103-26.061-36.423" fill="#0f141b"/></g><g transform="translate(335.74 420.12)"><path d="m0 0c1.179-0.027 3.3-3.361 5.732-8.732 1.5-3.319-0.435-4.087-2.04-1.021-1.994 3.815-3.502 6.328-3.973 6.359-0.382 0.026-2.828-2.042-5.229-4.69-2.101-2.312-3.613-0.997-1.723 1.491 2.897 3.828 5.817 6.629 7.233 6.593" fill="#0f141b"/></g></g></svg>
