<?xml version="1.0" encoding="UTF-8"?>
<!-- Created with Inkscape (http://www.inkscape.org/) -->
<svg version="1.1" viewBox="0 0 172.07 176.8" xmlns="http://www.w3.org/2000/svg">
 <g transform="translate(-18.591 -57.38)" stroke-width="3.3786">
  <path d="m190.12 123.47c-4.3179 0.61485-9.3587 1.9528-12.883 3.3448-0.14559-2.2906-0.0958-4.4529 0.0287-6.5477-2.6758 1.5846-4.9564 3.3685-6.8653 5.1085-0.8514-1.8852-1.2804-3.0745-1.9934-5.5882-3.1961 4.3583-6.105 9.7675-9.1459 17.065-9.6154 7.8923-12.71 18.298-8.916 41.063 4.703 28.225-3.9429 37.158-20.913 36.924 0.01 3.7908-1.0812 7.4058-3.1995 10.203 20.461 5.257 42.881-8.8993 35.63-48.631-3.3786-18.518-1.8346-28.144 4.7875-32.813 6.4734-2.8109 13.673-3.5745 22.711-3.1657-2.0373-1.7536-3.8144-3.1185-6.4429-4.6118 2.5982-4.0745 5.649-9.1964 7.2032-12.352" fill="#3d4e57"/>
  <g fill="#28343b">
   <path d="m133.87 214.66c-0.88875 5.4429 3.5171 8.4735 10.747 5.0679 13.308-6.2707 19.116-20.224 15.322-41.394-2.7738-15.467-4.0104-29.576 5.176-36.134 0.51715-0.37159 0.86863-0.55739 1.6217-0.85427 6.7098-2.6556 16.437-3.1894 22.393-1.1082-9.8722-0.14175-15.616 0.72689-22.478 3.3144-8.1524 5.8281-7.4936 19.19-4.5205 34.624 6.3721 33.1-11.886 53.111-35.955 46.83 1.7535-2.3041 3.1758-6.0476 3.2198-10.109 1.1758-7e-3 3.3211-0.0575 4.4732-0.23656"/>
   <path d="m168.16 119.96c-0.0191 2.1589 0.23272 4.3483 0.63208 5.6152 0.21645 0.68572 0.95579 1.0372 1.8717 0.25379-0.70965-1.2434-1.9462-3.9969-2.5035-5.8686"/>
   <path d="m176.98 120.43c-0.67519 1.9021-1.0913 3.9867-1.3413 5.6895-0.16855 1.1217 0.57462 1.517 1.892 1.1217-0.34764-1.6386-0.64166-4.6725-0.55068-6.8112"/>
   <path d="m189.75 123.24c-2.7333 3.5036-5.3145 7.1998-7.8012 10.751-0.69912 1-0.27391 1.8379 0.80446 2.3852 2.9157-4.8381 4.9902-8.5681 6.9971-13.136"/>
  </g>
  <path d="m129.41 214.26c15.981 0.0191 25.056-7.5309 20.268-36.249-3.6286-21.765-1.1386-33.181 9.0411-41.59 2.8448-6.818 5.6118-11.896 8.6187-16.146 1.1115-1.5777 1.3548-1.3683 1.8413 0.27677 0.42905 1.4427 0.79777 2.6185 1.3852 3.9699 1.7839-1.588 3.48-2.8752 5.7774-4.3381 1.2196-0.77383 1.4899-0.59474 1.4189 0.85428-0.0958 1.9123-0.10438 3.4192-0.0287 5.0037 2.8583-1.115 7.2707-2.3346 11.051-2.9765 2.044-0.34764 2.2805-0.13888 1.3649 1.6285-1.6893 3.2738-4.3213 7.6626-6.4497 10.947 2.2873 1.3818 3.507 2.2468 5.2064 3.6522 1.7062 1.4089 1.5372 1.8008-0.66942 1.7265-9.0208-0.31796-15.569 0.65506-21.312 3.1388-5.801 4.1184-8.0343 12.778-4.4868 32.221 7.541 41.344-16.626 54.713-36.597 49.239l0.79393-1.0067c19.528 4.9226 41.763-8.808 34.597-48.064-3.3921-18.619-1.7838-28.373 4.8551-33.259 0.26336-0.18867 0.38212-0.24326 0.70295-0.38213 5.8178-2.4867 12.703-3.4394 20.728-3.1488-1.4934-1.267-2.517-2.0475-4.3684-3.1286-0.79012-0.45971-0.95293-0.70967-0.42907-1.5372 2.0474-3.2469 4.5982-7.5714 6.2774-10.825-3.0036 0.47312-7.4329 1.588-10.744 2.7975-1.3176 0.48268-1.598 0.28731-1.6521-0.96624-0.0671-1.5305-0.0574-3.1184 0.0574-4.7672-1.9528 1.2163-3.7739 2.5846-5.5443 4.1625-0.76712 0.679-0.99324 0.63878-1.3852-0.21931-0.6656-1.463-1.0237-2.4225-1.544-4.1827-2.7704 4.034-5.5071 9.0411-8.2877 15.666-0.16855 0.39553-0.25283 0.51716-0.5842 0.79681-7.7099 6.6119-12.572 15.163-8.3822 40.3 4.9361 29.61-5.0207 37.955-21.437 37.607z" fill="#0f141b"/>
  <path d="m136.17 68.572c-2.0846-0.44246-13.714 10.646-20.755 21.468-0.1178-3.561-0.71636-6.9396-1.7771-9.7168-3.2029 1.7164-8.612 5.9193-12.065 9.1897-1.4392-5.9023-5.8314-11.643-9.0511-12.879-0.96633 0.83799-1.7839 2.9022-2.3583 5.4564-6.4531-11.656-17.221-24.458-20.373-23.978-2.7468 0.41851-10.109 19.312-9.7269 34.83-8.4296 12.18-14.001 30.542-9.6898 45.827l4.1963 12.254c6.8213 11.281 20.778 17.619 29.333 18.967 8.0208 1.2602 18.853 1.6994 29.782-1.2163l14.335-8.46c11.45-8.7877 16.738-25.883 16.842-45.743 1.8717-22.376-6.7065-45.58-8.6931-45.999" fill="#3d4e57"/>
  <path d="m63.898 92.526c0.13887-10.315 4.1049-28.329 6.8112-28.728 2.4461-0.35818 10.129 13.676 12.051 23.785-5.7841 0.81788-13.143 2.3886-18.863 4.9428" fill="#dddcd6"/>
  <path d="m117.75 95.871c3.7638-7.6357 14.521-21.346 16.295-20.701 2.4461 0.88875 5.0814 21.319 2.8178 34.181-5.6051-4.7571-12.396-9.5141-19.113-13.481" fill="#dddcd6"/>
  <path d="m94.407 115.26c0.63495-1.9156 1.196-3.73 1.6758-5.4226 10.801 2.1725 21.272 2.6658 21.549 0.78436 0.1925-1.2872-8.6999-5.4564-19.684-8.6762 0.89833-5.0679 0.69913-8.0512-0.32083-8.433-1.6015-0.60143-5.1253 2.044-8.5884 6.2875-9.0681-1.5372-19.913-1.642-20.194-0.50375-0.28348 1.1656 6.345 4.5881 15.501 7.5004-0.97982 1.8008-1.8481 3.6928-2.5339 5.6186-13.16-2.2298-24.292-1.5237-24.974 0.66273-0.52003 1.6723 7.9363 5.8348 22.836 9.7776-0.57462 7.3451 0.72306 13.443 2.1487 13.754 0.63496 0.14174 4.534-3.4799 8.4701-11.281 18.383 3.5644 33.58 2.6048 33.813 1.2163 0.29402-1.7366-12.271-6.7369-29.698-11.285" fill="#e8382f"/>
  <path d="m150.86 174.56c-7.0679-5.3686-16.889-11.42-26.596-16.085 3.4191-9.0141 3.2096-18.619 0.44917-21.981-10.859-0.82459-22.704-2.2298-32.586-3.6995-2.2434 2.7636-4.8584 8.7674-4.1422 14.119-2.436-2.6488-8.3991-4.605-13.805-4.0982 2.1285-3.1184 2.7906-8.7472 1.8514-13.71-7.1254-3.6455-12.69-5.872-20.957-8.2809-3.5645 3.4056-5.1085 10.994-4.3009 18.18-10.349-0.0767-23.491 3.4022-28.319 6.3145 3.3448 1.2231 5.382 2.1319 8.3349 3.686-3.4596 2.115-9.3823 8.0377-11.588 12.048 4.578-1.5339 10.46-3.2029 15.693-4.4124-1.4899 3.0238-2.9765 6.372-4.0069 9.977 6.6422-4.7334 15.423-10.828 23.626-15.717 6.7943 11.355 20.819 17.741 29.407 19.089 8.0512 1.2636 18.937 1.6961 29.907-1.2534 7.4701 8.068 13.67 19.005 17.66 22.207 0.14172-3.9934 0.27676-6.1592 0.53725-9.3688 4.3483 2.3516 8.835 5.024 12.68 7.7573-1.7468-5.3956-3.4428-9.95-5.9261-14.656 4.2266 0.17525 7.7133 0.2059 12.082-0.11493" fill="#e8382f"/>
  <path d="m62.344 147.43c5.9531 1.7366 13.315-6.3315 13.072-18.63-6.8348-3.4562-12.318-5.6355-20.346-7.9701-3.3549 14.802-0.49992 24.336 7.2741 26.6" fill="#fff200"/>
  <path d="m105.79 159.05c12.328 1.9157 20.532-10.092 18.18-22.609-10.653-0.83129-22.18-2.2096-31.836-3.6455-3.73 14.17-0.16855 24.099 13.656 26.255" fill="#fff200"/>
  <path d="m74.845 150.98c-0.16856 0.69912 0.52003 1.544 1.8346 1.8481 1.4562 0.33424 2.3887 0.10153 2.5542-0.51045 0.17909-0.62825-0.385-1.4866-1.7805-1.8717-1.6285-0.44629-2.4832 0.0287-2.6083 0.53345" fill="#3d4e57"/>
  <path d="m69.135 125.81c-1.8345 8.3045-2.2501 17.433-1.0202 17.538 1.071 0.0862 3.6725-6.4329 4.0712-16.146-1.0271-0.4865-2.0407-0.94909-3.051-1.3919" fill="#e8382f"/>
  <path d="m67.885 132.93c0.9395 0.22984 2.6454 0.60814 3.6353 0.80446 0.30742-1.9528 0.54014-4.1421 0.64166-6.5375-1.0305-0.49033-2.0441-0.95292-3.0543-1.392-0.52674 2.3887-0.93568 4.8381-1.223 7.1254" fill="#3d4e57"/>
  <path d="m109.61 135.06c-2.5238 7.6289-2.5948 18.092-1.5035 18.214 1.2501 0.13217 4.4259-6.497 4.7199-17.863-1.0744-0.11493-2.1454-0.22985-3.2164-0.35147" fill="#e8382f"/>
  <g fill="#3d4e57">
   <path d="m108.06 141.82c1.0406 0.15227 3.0475 0.42618 4.1928 0.53345 0.30455-2.0575 0.52387-4.3718 0.59091-6.9396-1.0744-0.11492-2.1454-0.22985-3.2164-0.35148-0.70294 2.1286-1.2163 4.4732-1.5677 6.7572"/>
   <path d="m57.31 168.88c-0.46257-3.5441-4.6725-6.051-11.409-5.0409-7.2437 1.0812-9.4871 5.0139-9.1222 7.9126 0.37542 3.0205 3.0069 5.0409 10.325 4.5915 7.3822-0.453 10.697-3.74 10.207-7.4633"/>
   <path d="m122.96 199.97c-7.0139-6.6862-9.5208-11.173-12.291-19.579-1.7096-5.1862-2.811-7.5884-4.8854-10.045-8.112 1.0846-15.792 0.60143-21.863-0.34764-0.98998-0.15898-2.061-0.38884-3.1759-0.67902-6.6929 5.3246-15.048 6.0476-19.045 1.0812-3.3651-4.1827-7.2673-7.2775-13.724-6.7707l-0.88875 12.73c3.1657 4.328 10.085 10.305 13.852 11.295 3.909 1.0339 14.43-0.65891 19.893-3.9461 1.4054 1.0305 1.6993 1.8616 1.7366 4.4563 0.07662 6.2808 0.05746 8.0478-2.6421 10.328-6.5984 5.5679-8.5174 13.433-5.9463 18.43l0.10822 0.0479c-2.0002 0.75658-3.3921 2.1454-3.4259 3.9935-0.03831 1.919 1.0879 3.3076 3.0374 4.1894-0.51046 1.8887 0.02872 3.8686 1.4426 5.1658 2.0137 1.8481 6.4767 3.0306 10.136 3.2671 3.9632 0.25666 6.4734-1.7603 8.3485-7.6018l0.03834 0.0191 1.9528 0.42905 0.0862-0.01c0.36489 2.1588 2.7603 3.9529 7.4363 4.2637 6.2605 0.40895 9.4904-0.69242 9.8317-3.3278 0.12451-0.96967-0.11492-2.0035-0.64549-2.9833 5.9666 3.534 10.714 4.1354 12.808 1.9765 6.1862-6.3889 5.8956-18.687-2.1792-26.383"/>
  </g>
  <g fill="#e8382f">
   <path d="m47.073 176.35c10.112-0.32467 13.481-7.8789 6.7775-12.018 2.7636 0.89162 5.4631 2.838 6.7065 4.9023 2.3548 5.7571-2.1826 11.845-10.798 10.264-1.0947-1.1218-1.8987-2.1454-2.686-3.1488"/>
   <path d="m64.81 172.8c3.3414 6.2943-0.43288 13.109-8.8993 12.284 2.0238 1.2197 4.1828 2.2671 5.2909 2.5238 1.2365 0.28347 4.4934 0.35434 6.2267 0.0479 4.5949-2.2839 7.0511-9.2572 1.8278-13.927-1.2906-0.0479-2.8076-0.31796-4.4461-0.9328"/>
   <path d="m81.67 219.87c4.0542 0.46927 8.6728 1.571 12.217 5.0004 0.7269-2.4292 2.0745-6.5984 2.5913-8.9938-2.8954-1.2535-8.4025-3.1928-12.315-3.2434-0.65507 2.2231-1.3447 4.5171-2.4934 7.2369"/>
   <path d="m86.568 203.11c3.5577 0.19251 8.8485 0.96968 12.66 2.2536 0.68955-2.7874 1.5135-6.4531 2.169-9.1357-3.7435-1.2839-9.5276-2.5204-13.261-2.5677-0.30455 2.5001-0.81405 5.8854-1.5677 9.4498"/>
  </g>
  <path d="m112.31 224.36c1.0609 1.919 0.96632 4.3584-0.97973 5.4023 3.1488 0.63208 10.19-0.21931 12.183-2.2906-3.2502 0.1791-7.0882-0.45586-11.203-3.1117" fill="#28343b"/>
  <path d="m58.188 125.77c-0.72977-0.0574-1.4765 1.071-1.7129 3.9867-0.21261 2.615 0.15898 4.3989 0.83799 4.4496 0.7269 0.0479 1.5102-1.4224 1.74-4.1523 0.23655-2.8076-0.13504-4.23-0.8648-4.284" fill="#fff9b0"/>
  <path d="m97.954 136.28c-1.142-0.0671-2.3109 1.4764-2.6826 5.4733-0.33424 3.5914 0.23943 6.0443 1.3041 6.1119 1.1386 0.0671 2.3617-1.9562 2.7231-5.7098 0.37543-3.8448-0.20589-5.8044-1.3446-5.8753" fill="#fff9b0"/>
  <path d="m75.149 68.809c-2.7163-0.54397-7.0139 0.94238-9.085 7.5444 1.1758-5.1321 3.0306-12.288 4.5374-12.47 1.2163-0.14557 2.6961 1.6352 4.5476 4.9259" fill="#b5b5b0"/>
  <path d="m128.9 80.127c2.6961-0.89833 6.193 0.60527 7.8924 6.3889-0.27007-4.4665-1.4495-11.112-2.8144-11.379-0.98318-0.18963-3.3211 2.6217-5.078 4.9901" fill="#b5b5b0"/>
  <path d="m113.26 80.6c0.33806 3.6995 0.43288 8.7066 0.25666 12.335l1.9732-2.9157c0.0384-2.4731-1.3515-8.6999-2.2299-9.4195" fill="#28343b"/>
  <path d="m92.819 76.748c-1.3683 5.4632-1.9055 9.1357-1.8819 13.491 0.0096 1.4359-1.5947 1.5136-1.9392 0.36872-0.04787-3.5037 1.6048-11.818 3.8211-13.859" fill="#28343b"/>
  <g fill="#c92e27">
   <path d="m56.06 149.96c13.497 17.579 33.965 21.65 56.057 17.058l1.544 1.5272c-26.407 7.1254-49.341-1.6791-59.132-17.532z"/>
   <path d="m31.126 149.32c1.2028-0.82746 1.2129-1.8447-0.0096-2.3211-2.4866-0.96967-5.5847-1.7366-8.4093-1.8211 2.9022 1.1622 6.0849 2.6792 8.4194 4.1422"/>
   <path d="m19.132 160.77c4.9936-2.9765 9.7642-4.8043 14.22-5.9801 1.4427-0.38212 2.5778 0.385 1.9697 2.061-5.1084 1.2872-11.96 2.7501-16.19 3.9191"/>
   <path d="m30.991 166.11c3.9428-4.5206 16.606-13.23 23.991-17.815 1.3481-0.83416 2.4799-0.0574 2.0508 1.294-9.3655 5.6997-19.802 12.251-26.042 16.521"/>
   <path d="m131.44 190.57c-2.6455-5.0341-11.636-20.285-18.082-25.221-1.2433-0.95578-2.4325-0.18196-2.0981 1.0304 8.639 7.7438 17.491 23.255 20.18 24.191"/>
   <path d="m144.58 188.68c-3.7232-3.5576-6.6862-5.8213-11.055-8.2606-1.0811-0.60143-1.9461-7e-3 -2.0542 1.054 3.3853 1.544 8.9633 4.6118 13.109 7.2065"/>
   <path d="m150.66 174.19c-4.0442-0.43575-7.9296-0.79775-11.173-1.1758-1.1723-0.13886-1.794 0.6589-1.1723 1.9292 4.355-0.13887 9.4836-0.34477 12.345-0.75372"/>
   <path d="m54.675 179.32c-1.2096-1.196-2.3279-2.5035-3.2806-3.8009-1.7671 0.5411-2.9394 0.70583-4.3787 0.77383 0.98318 1.1961 2.0137 2.3616 3.0678 3.4664 1.767 0.0191 3.3346-0.16186 4.5915-0.4396"/>
  </g>
  <path d="m61.668 183.98c-2.3549-0.73265-4.8145-2.517-6.9768-4.6591-1.2568 0.27677-2.8245 0.46257-4.5915 0.43959 2.0643 2.1758 4.2266 4.1117 6.3281 5.5577 2.1183-0.0479 4.1287-0.5411 5.6017-1.2467-0.12163-0.0287-0.24613-0.0574-0.36105-0.0958" fill="#28343b"/>
  <path d="m71.264 183.51c-3.6016 0.90887-6.9971 1.1285-9.237 0.56121-1.4697 0.70583-3.4834 1.1994-5.6017 1.2467 1.6217 1.1149 3.2096 1.9393 4.6995 2.3548 1.5981 0.44916 3.8854 0.4731 6.4261 0.16856 1.5575-1.3446 2.9697-2.9123 3.7131-4.3313" fill="#c92e27"/>
  <path d="m105.76 170.23c-7.0139 1.0643-19.606 0.77383-25.241-1.0102-0.7403 0.82458-1.4156 1.4122-2.3312 1.9427 3.6151 1.294 3.8786 7.7471 0.6589 9.4533-2.4123 1.2737-5.0577 2.2468-7.6051 2.8853-0.74701 1.419-2.1556 2.9867-3.7131 4.3314 4.4294-0.53057 9.6256-2.0677 13.278-4.159 0.68954 0.1178 1.5136 1.8075 1.6453 3.2434 0.13504 1.4393 0.15227 4.5105 0.09769 6.264-0.05746 1.7535-0.85427 3.8279-2.4765 5.149-7.3281 5.9868-8.5816 14.18-6.0949 18.572 2.686-0.76329 5.9463-0.59475 8.7674 0.3917 0.37159-1.1285 0.61484-2.0069 0.98318-3.0745-4.9733-5.1084-2.7096-14.579 4.1185-18.704 0.57463-3.2468 0.78436-5.8314 0.8514-8.7877 3.5948-3.8076 11.413-1.6454 10.122 4.9868-0.24326 1.2602-0.47311 2.436-0.68954 3.5509 1.1521 0.29688 2.213 0.5976 3.284 0.93568 0.92227-3.9563 1.7434-7.7335 2.3887-11.088 2.2434-2.1015 4.3313-4.4564 5.9328-7.3417-0.80065-2.2941-2.5137-5.9193-3.9766-7.541" fill="#28343b"/>
  <path d="m93.799 214.76c0.81787 0.33807 1.7805 0.76042 2.6252 1.1961 0.93567-3.4597 1.8784-7.0309 2.7806-10.585-0.90504-0.27677-1.8954-0.55738-2.936-0.80063-0.69912 3.2265-1.4494 6.345-2.4697 10.19" fill="#28343b"/>
  <path d="m96.265 204.56c1.0372 0.24038 2.0305 0.52003 2.9359 0.79776 0.78436-3.0947 1.5406-6.176 2.2366-9.1526-1.071-0.33807-2.1352-0.63878-3.284-0.93568-0.69625 3.561-1.2771 6.4734-1.8886 9.2912" fill="#c92e27"/>
  <path d="m91.501 223.01c0.92897 0.5842 1.6048 1.0845 2.4089 1.9224 0.80447-2.8178 1.6488-5.8416 2.4934-8.9634-0.84086-0.43576-1.8041-0.8581-2.6252-1.196-0.63496 2.3954-1.3751 5.0712-2.2771 8.237" fill="#c92e27"/>
  <path d="m96.4 215.95c0.46258 2.0913 1.0203 3.9867 1.8649 5.5746 6.149-2.9224 11.791-1.1284 14.095 2.8144 2.365 1.3582 5.1118 2.3346 7.3991 3.0813 2.2873 0.747 4.9463-0.1791 6.4565-2.1658 3.534-4.6455 5.024-13.501-0.10439-21.393 1.5507 21.157-29.282 18.146-23.316-2.9259-1.0305 1.0406-2.4461 2.4732-3.4089 3.8347-0.82459 3.115-1.9157 7.247-2.9867 11.18" fill="#28343b"/>
  <path d="m112.31 224.36c1.1826 1.7129 0.93567 4.5645-1.1217 5.426 2.1285 0.21931 5.372 0.13503 7.6289-0.3036 0.0287-0.6589 0.0575-1.5406-0.14558-2.3886-1.936-0.61103-4.4159-1.6488-6.3619-2.7333" fill="#c92e27"/>
  <g fill="#28343b">
   <path d="m93.63 225.85 1.9596 0.56121c-0.20591-1.4764 0.6656-3.7535 2.6826-4.882-0.73264-1.5373-1.6218-3.5712-1.8076-5.6963-0.86193 3.061-1.7196 6.301-2.8346 10.017"/>
   <path d="m71.432 218.92c0.30455 1.6691 2.0305 2.7907 4.338 3.1218-1.1217 0.98998-1.5609 1.5778-2.044 3.007-2.7569-0.67231-3.9496-3.7131-2.294-6.1288"/>
   <path d="m74.642 223.51c-1.2163 5.5882 9.4904 8.0512 12.568 6.6964 2.1927-0.96288 3.5171-4.382 4.284-7.2234 0.73648 0.44246 1.6826 1.088 2.4089 1.9224-1.2196 3.4292-1.9291 5.2368-3.1995 6.649-1.2703 1.419-3.8853 2.2164-6.4396 1.936-2.5542-0.28062-6.8517-1.5002-8.9566-2.9292-2.1048-1.4292-2.4629-5.0612-0.6656-7.0512"/>
   <path d="m96.603 223.14c-0.0096 6.274 15.082 6.1895 15.785 1.7332 1.8346 2.8516 0.11779 6.6255-9.0613 5.8686-7.4261-0.61198-8.8891-4.6252-6.7234-7.6018"/>
  </g>
  <g fill="#0f141b">
   <path d="m68.054 143.91c-1.6792-0.0574-1.6927-8.8283 0.49705-18.434l1.1353 0.53057c-1.8582 8.0579-2.0812 16.596-1.4832 16.663 0.48268 0.0575 3.0238-6.4329 3.3786-15.761l1.2196 0.52003c-0.3917 8.8789-2.8313 16.545-4.7469 16.481"/>
   <path d="m108.02 153.88c-1.9258-0.0977-1.3818-11.964 0.98653-18.893l1.1927 0.10439c-2.5678 7.5849-2.4935 17.474-1.9394 17.488 0.60143 0.01 3.6895-6.1964 3.9664-17.241l1.2299 0.12832c-0.25665 11.224-3.5408 18.504-5.4362 18.413"/>
   <path d="m123.7 158.17c3.3076-8.9701 2.9292-18.021 0.66273-21.035-9.8688-0.75371-21.596-2.1927-31.978-3.6793-1.8514 2.3989-4.2232 7.5951-3.8853 12.619 0.10822 1.6453-0.2806 1.8109-1.6623 0.64836-2.6387-2.2198-7.6592-3.605-12.126-3.4529-2.4799 0.0862-2.5102-0.8313-0.0067-1.0035 4.6489-0.32083 9.6694 0.88875 12.541 3.2131-0.25666-5.1388 2.2366-10.278 4.1252-12.795 0.39553-0.53056 0.53057-0.56791 1.3176-0.44916 10.352 1.5237 21.363 2.8042 31.597 3.5712 0.65889 0.0479 0.83128 0.10439 1.1589 0.5708 2.7873 3.9766 2.7231 13.514-0.59857 22.265z"/>
   <path d="m130.22 190.71c-4.2807-4.0475-10.457-15.089-18.011-23.008-1.6927-1.7704-1.0609-2.3752 0.68285-0.65219 8.0174 7.9329 14.362 19.018 17.991 22.468 0.13217-2.8448 0.28061-4.8821 0.50376-7.389 0.11492-1.3278 0.38882-1.3582 1.6048-0.69911 4.1117 2.2366 8.0883 4.5882 10.48 6.2031-1.3312-3.9732-2.7636-7.7673-4.9462-12.166-0.53056-1.0778-0.2806-1.4359 1.1014-1.3819 3.7637 0.14175 6.3145 0.13888 9.5175-0.0574-6.622-4.899-16.342-10.697-25.836-15.498-2.4124-1.223-2.0677-2.0136 0.385-0.88491 9.2809 4.2705 19.015 10.051 26.586 15.673 1.8785 1.3987 1.7096 1.7806-0.4396 1.9123-3.6894 0.22602-6.5781 0.17239-10.085 0.0384 1.8684 3.6387 3.4732 7.6862 5.0712 12.487 0.8581 2.5643 0.33806 2.6286-1.6825 1.2434-3.4698-2.3717-7.2842-4.7165-10.629-6.5308-0.19249 2.4462-0.2739 4.3348-0.35434 7.4194-0.0479 2.0102-0.59091 2.098-1.9392 0.81786"/>
   <path d="m114.27 169.25c-10.42 2.8582-20.606 2.9259-30.448 1.3784-10.082-1.5845-23.555-8.4971-29.995-19.336l1.3379-0.81119c6.0849 10.251 19.258 17.271 28.897 18.782 8.3147 1.3075 18.65 1.6859 29.258-1.115z"/>
   <path d="m50.147 138.41c-0.71923-7.3282 0.91269-14.231 4.2638-17.873 0.3984-0.43288 0.60144-0.44246 1.3211-0.22601 7.6356 2.2536 13.386 4.5375 20.244 8.0208 0.52674 0.27006 0.66943 0.44246 0.7767 1.1014 0.81117 4.9361 0.07662 10.308-1.8751 13.322l-1.3751 0.0191c2.0542-3.0914 2.9022-8.1999 1.9866-13.301-7.0984-3.6218-12.484-5.676-20.231-7.9769-2.8955 2.9529-4.6185 9.6898-3.9597 16.795 0.10822 1.1082-0.17526 1.24-1.0744 1.2603-9.6459 0.19632-20.89 3.0137-26.356 5.6692 2.3312 0.86863 3.9462 1.5643 6.4598 2.8684 1.267 0.66272 1.2467 0.97647 0.13216 1.7941-3.2705 2.3887-8.0781 7.3484-9.862 10.068 3.0374-1.0473 8.3552-2.5001 13.021-3.6252 1.7197-0.41564 2.2063-0.35818 1.3312 1.4832-1.1994 2.5373-2.3279 5.2875-2.8887 7.1592 9.3317-6.6254 14.616-10.021 22.988-14.984 2.3752-1.4089 2.8584-0.61483 0.50662 0.8313-8.4126 5.176-13.274 8.4803-22.944 15.345-2.4967 1.7772-2.7569 1.5373-1.8819-1.25 0.94238-2.99 2.1421-5.6828 3.0915-7.4532-4.0037 0.95578-8.96 2.3718-13.22 3.7638-2.2704 0.74031-2.5137 0.27008-1.2534-1.6758 2.6015-4.0205 7.6694-8.8215 10.328-10.524-2.2637-1.169-3.6455-1.74-6.2977-2.7333-2.017-0.75371-2.1623-1.0946-0.22602-2.098 5.7165-2.9529 17.511-5.7268 26.995-5.7841"/>
   <path d="m76.027 129.08c0.23272 12.47-7.4836 20.744-13.808 18.9-8.4093-2.4494-10.967-12.301-7.889-26.64l1.3379-0.45298c-3.1117 13.731-0.91556 23.653 6.8349 25.91 5.7098 1.6656 12.622-6.5679 12.298-18.39z"/>
   <path d="m124.61 136.45c2.5103 13.545-6.6457 25.15-18.903 23.238-13.156-2.0474-18.19-11.45-14.389-26.133l1.4054-0.64837c-3.9225 14.903 0.80064 23.606 13.149 25.532 11.44 1.7838 19.886-9.4803 17.484-22.005z"/>
   <path d="m75.352 151.08c-0.07662 0.34477 0.17239 0.92895 1.4798 1.2332 1.2095 0.27678 1.8514 0.16856 1.9393-0.14558 0.11205-0.39553-0.28348-0.90215-1.4426-1.2197-1.3515-0.36872-1.9089-0.13216-1.9765 0.13216m1.2264 2.2569c-1.6724-0.38883-2.4495-1.5002-2.186-2.4799 0.27678-1.0237 1.5913-1.3751 3.213-0.93279 1.6961 0.46927 2.3955 1.544 2.1116 2.544-0.21931 0.80063-1.3919 1.267-3.1387 0.86863"/>
   <path d="m57.513 113.3c-0.26337 0.87822 7.1829 5.0274 21.839 8.8384 0.75371 0.1992 0.96632 0.385 0.90503 1.2839-0.50375 7.7335 1.0102 12.342 1.6487 12.42 0.4664 0.0479 3.9192-3.2198 7.6322-10.558 0.29402-0.59091 0.53727-0.68571 1.3346-0.53344 20.545 3.8989 32.374 2.1116 32.468 1.6285 0.20974-1.0474-10.97-5.7605-28.782-10.44-0.71636-0.1829-0.88875-0.43957-0.64837-1.1622 0.52386-1.5846 1.0676-3.3246 1.5-4.828 0.18292-0.61868 0.37829-0.78341 1.1859-0.62539 11.298 2.2163 20.028 2.2738 20.251 1.1994 0.17527-0.72019-7.4261-4.4834-18.69-7.835-0.76042-0.22602-0.88492-0.38212-0.74989-1.1758 0.79394-4.7368 0.57463-7.1085 0.0099-7.318-1.2434-0.4664-4.1861 1.5745-7.6525 5.7503-0.32466 0.38882-0.60814 0.52386-1.1623 0.42904-8.8722-1.4865-18.802-1.4899-19.008-0.83415-0.14557 0.45586 5.3281 3.6556 14.612 6.5612 0.81405 0.24996 0.9261 0.62155 0.55451 1.2804-0.9261 1.6488-1.4933 2.8921-2.2197 4.9429-0.21261 0.60814-0.41852 0.81118-1.2399 0.67903-12.906-2.1185-23.255-1.463-23.789 0.29687m24.174 24.072c-1.9562-0.32083-3.1725-7.3281-2.7062-14.008-14.535-3.8888-23.623-8.2234-22.934-10.433 0.96958-3.0948 13.954-3.0779 25.407-1.1825 0.58803-1.5981 1.1555-3.105 1.9596-4.5713-8.4633-2.7974-15.734-6.3044-15.305-8.0511 0.3984-1.6488 12.156-1.4122 20.687 0.0066 4.0982-5.1084 7.541-6.7842 9.1492-6.2436 1.5541 0.52674 1.3413 4.9631 0.72307 8.6052 10.159 3.0137 20.008 7.3855 19.724 9.308-0.37542 2.5102-11.234 1.8548-21.873-0.24708-0.42618 1.4832-0.82075 2.7468-1.3379 4.3179 17.629 4.5138 30.096 9.6188 29.721 11.842-0.33808 1.9934-16.846 2.7028-34.215-0.61867-3.7638 7.3653-7.9734 11.44-9.0006 11.274"/>
   <path d="m49.336 139.12c-4.4597-15.704 1.088-34.097 10.095-46.439-0.17526-16.146 7.1153-34.796 10.288-35.283 3.5103-0.52386 14.372 12.335 20.728 23.941l-0.36489 1.7805c-6.6422-11.926-17.545-24.728-20.163-24.326-1.7501 0.2672-9.3012 16.991-9.1999 33.772 0 0.47981-0.04789 0.66944-0.2605 0.98662-7.7201 11.703-13.643 29.4-9.4803 44.668z"/>
   <path d="m70.791 64.417c-2.0407 0.31412-5.9835 16.967-6.2605 27.164 5.7537-2.534 13.23-3.9192 17.477-4.5476-1.9867-9.8046-9.3858-22.626-11.217-22.616m-0.18962-1.2399c2.9833-0.33806 10.426 13.606 12.592 23.339 0.29401 1.3244 0.09769 1.6521-1.3379 1.8751-4.1793 0.63495-10.953 1.9224-16.717 4.3178-1.4495 0.60143-1.9123 0.51045-1.8617-1.0237 0.34477-10.014 4.2064-28.15 7.3248-28.508"/>
   <path d="m127.35 160c10.761-8.1424 16.761-24.143 16.876-45.445 1.7771-21.278-6.4362-44.827-8.2134-45.324-1.4122-0.3984-14.264 11.166-21.43 23.059-1.5002 2.4799-2.2536 1.9731-0.80447-0.53727 6.4496-11.149 19.832-24.471 22.586-23.9 2.392 0.50662 11.045 24.39 9.1762 46.746 0.33423 21.315-5.5645 37.752-16.812 46.104z"/>
   <path d="m118.56 95.601c6.5781 3.7942 12.589 8.1458 17.876 12.572 1.9394-13.274-0.96622-31.972-2.5778-32.451-1.142-0.34094-11.142 11.896-15.298 19.879m17.221 13.68c-5.2064-4.3448-11.609-8.8316-17.998-12.643-0.72978-0.43575-0.79777-0.69242-0.46641-1.3414 3.8347-7.47 14.528-21.579 16.93-20.711 3.0577 1.1149 5.2909 21.971 3.3414 34.134-0.20592 1.2839-0.64549 1.5305-1.8075 0.56123"/>
   <path d="m45.958 164.46c-6.6659 0.99669-8.9262 4.5645-8.5917 7.22 0.32753 2.615 2.6793 4.5307 9.6864 4.0948 7.4836-0.45588 10.021-3.7165 9.6155-6.8078-0.38883-2.9799-3.8279-5.5409-10.71-4.507m-9.7945 7.389c-0.4597-3.6759 2.6691-7.5579 9.6662-8.6019 7.247-1.0845 11.582 1.9832 12.048 5.5645 0.52386 3.98-2.8921 7.6086-10.781 8.0951-7.0747 0.43289-10.457-1.2534-10.933-5.0577"/>
   <path d="m42.073 176.15c-1.463-1.8414-1.3514-4.6185 0.61484-6.3483 1.2434-1.0948 1.6454-0.68956 0.56792 0.56121-1.6588 1.9224-1.4392 4.6084 0.55068 6.024z"/>
   <path d="m49.032 176.08c-2.3413-1.4832-2.294-4.1387-0.95291-5.5341 0.99668-1.0305 1.4562-0.69626 0.64166 0.48938-1.1453 1.6623-0.4597 3.7841 2.0407 4.774z"/>
   <path d="m81.568 169.46c-6.5376 5.6253-15.991 6.8451-20.424 1.3414-2.2468-2.7908-4.534-5.2706-8.4803-6.1895l-4.7232-1.5778c7.0679-0.55068 11.244 3.186 14.254 6.9261 3.7266 4.632 11.578 4.0171 17.896-0.92226z"/>
   <path d="m73.189 217.26c-2.3819-4.6523-1.1183-13.278 6.2605-19.302 2.3954-1.9528 2.5238-3.3854 2.436-9.7979-0.0383-2.4799-0.31796-3.1556-1.0812-3.73-5.4599 3.2265-15.987 4.9091-20.052 3.8346-4.1422-1.0946-11.092-7.1389-14.393-11.855l1.3717-0.12834c2.99 3.953 9.7844 9.781 13.386 10.73 3.7705 0.99669 13.605-0.62154 19.015-3.632 0.63208-0.35148 0.78053-0.37446 1.4055 0.0862 1.0068 0.74701 1.5913 2.0913 1.6251 4.659 0.09577 6.5916-0.03831 8.5106-2.8516 10.886-6.1422 5.1895-8.2099 12.737-5.6084 17.7z"/>
   <path d="m97.312 212.57c-0.35435 3.0847 0.16568 6.1456 1.7399 8.639l-1.2636 0.63879c-0.82746-1.3244-1.3852-2.7772-1.6926-4.2942z"/>
   <path d="m99.644 203.38c1.6015-2.115 3.632-3.8482 5.9733-4.899 1.9664-0.88874 2.2941-0.22313 0.3917 0.79777-3.1725 1.6994-5.6423 4.578-7.1423 7.8485z"/>
   <path d="m96.4 224.83c-0.75371 2.4866 1.446 4.9158 6.7977 5.2706 6.3112 0.41851 8.906-0.69626 9.1864-2.8549 0.32467-2.5137-2.5002-6.0849-6.9193-6.5174-4.6928-0.45299-8.2438 1.3987-9.0647 4.1016m6.7167 6.4226c-6.1761-0.40511-8.906-3.3414-7.8586-6.7943 1.0575-3.4867 5.4631-5.4226 10.325-4.9463 4.8212 0.46641 8.4633 4.3956 8.0038 7.9363-0.43576 3.3854-5.0814 4.1591-10.47 3.8043"/>
   <path d="m98.157 229.53c-0.94237-1.8852-0.42521-4.1793 1.1623-5.3753 1.3177-0.98988 1.7366-0.47311 0.50664 0.62825-1.2704 1.1352-1.6454 3.5509-0.20591 5.2537z"/>
   <path d="m103.97 230.78c-1.1791-2.1453-0.64548-4.7368 0.74032-5.9936 1.081-0.97982 1.5507-0.50662 0.57078 0.57463-1.1116 1.2197-1.419 3.6523-0.0384 5.4734z"/>
   <path d="m106.37 170.1c1.9326 2.1928 3.1928 4.7402 4.9564 10.092 2.6387 8.0072 4.828 12.325 12.092 19.248 8.3315 7.9397 8.7437 20.903 2.24 27.478-2.0508 2.0813-6.9396 1.8549-12.964-1.6082l-0.74319-1.9325c6.318 3.8719 10.825 4.2468 12.656 2.3582 5.8348-6.024 5.7841-17.741-2.1657-25.322-7.3552-7.0105-9.808-11.859-12.44-19.856-1.8481-5.6052-2.9022-7.8248-5.0949-10.301z"/>
   <path d="m125.66 226.93c-2.338 2.7536-9.2438 4.0645-15.717 3.4327l1.9157-1.0102c4.1117 0.14557 8.5646-0.55068 11.301-1.909z"/>
   <path d="m117.99 229.46c0.34477-0.85141 0.16856-1.9022-0.38212-2.5542l1.5068 0.43576c0.21643 0.59855 0.25666 1.2636 0.11109 1.9089z"/>
   <path d="m73.527 225.71c-2.2536-0.92226-3.5307-2.5947-3.4867-4.7672 0.09577-4.9496 7.9194-6.3585 12.869-4.2233l-0.41181 1.1724c-5.105-2.2198-11.176-0.42618-11.244 3.0812-0.02872 1.534 0.83799 2.8279 2.615 3.6421z"/>
   <path d="m72.446 224.49c-0.61485-2.2198-0.21932-4.186 1.125-5.2841 1.1792-0.96967 1.5508-0.50375 0.50662 0.60814-1.1115 1.1859-1.2061 3.0508-0.37542 5.3179z"/>
   <path d="m76.534 221.42c0.27007-0.64549 0.71636-1.3919 1.3379-1.9122 1.2299-1.0238 1.7028-0.60143 0.60527 0.56407-0.24326 0.26051-0.40894 0.53345-0.57079 0.78725z"/>
   <path d="m49.336 178.95c10.362 1.642 13.883-6.7235 9.2202-11.717l2.8009 2.696c1.669 5.1997-2.2806 11.16-10.984 10.21z"/>
   <path d="m65.351 173.04c3.5712 6.1828-0.84469 13.051-8.389 12.538l-1.6285-1.2332c8.3248 1.4765 12.92-5.9531 8.2336-12.139z"/>
   <path d="m65.824 187.87c6.8383-3.3752 7.5545-10.744 2.0947-14.166h1.7671c4.5137 3.4495 4.1252 10.426-1.446 13.967z"/>
   <path d="m114.85 90.803c-0.0671-3.561-0.6455-6.9633-1.517-9.5817-2.6252 1.5002-7.2437 4.9597-10.774 8.1762-1.0304 0.9395-1.4189 0.64166-1.767-0.49993-1.6453-5.4463-5.3584-10.149-8.1119-11.521-1.5035 1.7298-2.6218 6.6794-2.9124 11.987-0.12163 2.2063-0.89833 2.1893-0.89162-0.01916 0.0096-5.2132 1.0675-10.629 2.8448-12.849 0.52386-0.6589 0.71924-0.68284 1.473-0.28731 3.0305 1.571 7.1187 6.6355 8.7032 12.227 2.615-2.5542 7.5207-6.3889 10.801-8.291 1.027-0.60144 1.3649-0.49705 1.7501 0.66943 0.89546 2.6825 1.3784 5.6895 1.517 8.4261z"/>
   <path d="m95.657 225.64c-0.60814-0.15897-1.2028-0.29401-1.7941-0.40893l-0.56121 1.419c0.88204 0.15898 1.7806 0.36488 2.7028 0.62538z"/>
   <path d="m85.251 234.16c-3.4834-0.22602-8.3621-1.4663-10.545-3.4664-1.9596-1.8008-2.3447-4.551-1.142-6.9193 0.84086-1.6556 3.0002-3.8482 7.7099-4.3078 3.5982-9.335 6.0139-20.744 6.7302-30.732 0.21261-2.9664 1.0946-2.9393 0.98318 0.0287-0.37542 10.095-3.1049 21.832-6.6964 31.08-0.20974 0.54398-0.385 0.63496-1.0541 0.71253-4.0914 0.46928-5.8923 2.3448-6.6254 3.7874-0.89545 1.7568-0.63208 4.1151 0.88875 5.5071 2.0238 1.8582 6.4971 2.9224 9.8283 3.1387 4.0847 0.2605 6.3956-2.3042 8.1086-8.335 4.551-16.035 8.0681-30.536 11.818-49.635 0.54686-2.7974 1.4189-2.6048 0.9328 0.20303-3.3549 19.383-7.1355 33.674-11.693 49.733-2.2231 7.8315-5.1152 9.4702-9.2437 9.2032"/>
   <path d="m75.825 230.88c-0.42235-1.7873-0.03831-3.5711 1.0676-4.6928 1.223-1.2332 1.8548-0.60431 0.63496 0.62824-1.017 1.0305-1.2602 2.8718-0.61868 4.5679z"/>
   <path d="m81.568 233.04c-0.9261-1.7365-0.52003-3.8143 0.60144-5.0509 1.1285-1.2569 1.7906-0.64836 0.6589 0.59762-0.87534 0.96967-1.4325 3.061-0.0383 4.676z"/>
   <path d="m93.765 225.61c-2.1217-2.6421-6.1625-4.355-12.261-5.1625l0.2059-1.0068c6.0578 0.76042 10.011 2.3954 12.366 4.9259z"/>
   <path d="m96.299 216.45c-4.1388-2.098-8.7641-2.9629-12.197-3.3076l0.24996-1.0102c3.4529 0.35818 8.0984 1.1926 12.214 3.3076z"/>
   <path d="m99.069 205.81c-4.0138-1.1521-9.3115-2.0813-12.589-2.2265l0.1925-1.0203c3.3346 0.16185 8.5849 1.0642 12.599 2.2501z"/>
   <path d="m101.3 196.82c-4.1388-1.5372-8.808-2.4629-13.227-2.6522l0.067-1.0338c4.4631 0.18964 9.2168 1.1285 13.325 2.6792z"/>
   <path d="m77.852 158.17c-2.2029 1.7366-4.7571 0.53056-4.8246-1.6589-0.0383-1.2061 0.53727-1.2568 0.79681-0.0767 0.32466 1.4798 2.0913 2.1522 3.7706 0.64837 0.45299-0.40224 0.69912-0.37158 0.95579 0.21645 1.1826 2.6826 3.7097 3.132 5.5983 1.5373 1.1723-0.98997 1.6555-0.6522 0.6589 0.52674-2.115 2.4968-6.051 1.3379-6.9565-1.1926"/>
  </g>
 </g>
</svg>
