<?xml version="1.0" encoding="UTF-8"?>
<!-- Created with Inkscape (http://www.inkscape.org/) -->
<svg version="1.1" viewBox="0 0 158.71 192.32" xmlns="http://www.w3.org/2000/svg">
 <g transform="translate(-20.161 -10.013)">
  <g transform="matrix(2.015 0 0 2.015 13.372 5.5578)">
   <g>
    <path d="m45.056 75.762c0.3503 3.4094 0.92914 7.758 1.5359 11.508 0.5179-4.4756 1.0078-8.7633 1.3556-11.919-0.90121 0.29216-1.8608 0.43176-2.8915 0.41161m7.032 18.831c-0.74635 0.14968-2.0461 0.231-3.0311 0.1065-0.5636 0.81489-1.6628 1.4851-3.3256 1.8024-3.8511 0.73623-5.4986-0.96471-6.0572-2.7645-4.0846 1.5562-6.6588-0.23604-7.329-4.1253-1.3861-3.4931-2.2873-7.1843-2.6046-10.728-0.59404 0.99011-1.1195 1.8253-1.4673 2.5615-0.44681-1.7263-0.83267-4.1557-0.70069-6.0598-1.7085 1.0104-3.7876 2.1503-5.7373 3.0845-0.88344 3.4246-0.82505 9.0832 0.41636 12.719 3.1428 2.6477 2.1807 5.7474-1.5765 6.1282-4.8056 0.48502-6.6156-2.701-5.9454-5.0011-1.3074-4.0999-2.0436-9.6138-2.2061-18.514-0.13198-6.9837 0.35542-12.95 3.5845-18.26 2.5716-4.237 8.9461-5.585 14.221-2.8153l25.792 20.994c-0.99006 4.6685-2.3 11.274-3.0616 15.615 2.5691 0.68795 2.9753 4.4578-0.97228 5.2575" fill="#3e4e57"/>
    <path d="m70.886 67.19c4.5721-4.9224 7.4788-12.64 8.4384-23.109 1.1652-7.9332 0.13708-19.517-1.7212-20.027-1.9903-0.54834-9.9311 5.3615-13.521 10.276 0.41126-1.673 1.0282-3.5845 1.607-4.9173-2.9016 0.23891-5.6002 1.0942-7.753 2.8002-2.1477-2.526-4.6736-4.5061-6.7578-5.4276-0.23862 1.7414-0.54834 3.2418-0.99007 4.5746-1.4191-7.2909-5.8566-14.536-7.1259-14.589-1.5816-0.06477-8.3318 10.002-10.385 18.733-3.0083 11.271-3.2317 20.174-0.14724 26.562z" fill="#3e4e57"/>
    <path d="m57.742 47.801c0.19804-1.2312 0.33764-2.4117 0.42651-3.5262 4.8386 0.37348 8.875 0.0813 8.9512-0.41377 0.0787-0.52532-4.0313-3.2139-8.8725-4.4121-0.15486-2.8763-0.68291-4.6863-1.1754-4.7574-0.48998-0.072-1.904 1.4014-3.351 4.0999-5.9175-0.37851-10.317 1.0129-10.416 1.6755-0.0712 0.45983 3.1631 1.9192 8.4384 2.9448-0.34016 1.0053-0.6524 2.0842-0.92406 3.2368-8.479-0.88857-14.473 0.21804-14.572 0.72602-0.12694 0.63181 5.2397 3.5312 13.874 5.3514 0.0302 4.4121 1.2312 7.499 1.8202 7.5879 0.64225 0.0935 2.7112-1.8836 4.336-6.5522 9.1187 1.2287 15.564 0.89361 15.618 0.18782 0.0532-0.6901-6.4126-4.2851-14.153-6.1485" fill="#e73830"/>
    <path d="m71.4 57.629c1.1475 3.1758 0.55597 7.2832-0.79459 9.8067 4.5619 3.3332 7.8672 6.245 11.17 10.779-1.381 0-3.153-0.11945-4.4756-0.3303 0.33254 2.3431 0.57116 4.4147 0.96214 6.5166-1.6501-0.90124-3.516-2.2213-5.4352-3.7546-0.4214 1.5638-0.87075 3.3053-1.4419 5.0468-1.9497-4.7142-4.7878-10.974-6.5674-14.031-4.237 1.9953-9.2914 2.5082-15.054 1.5156-5.3006-0.91138-9.4462-2.6351-12.52-5.1433-2.8255 3.6937-7.6336 10.812-8.9842 13.424-0.51028-1.5028-0.71846-3.9044-0.69054-6.0369-2.8229 1.6222-4.3842 2.3432-6.9076 3.7242 0.6321-2.2213 1.8938-5.4352 3.3027-7.5676-2.5234 0.0914-5.0747 0-6.7578-0.3303 3.9983-3.125 10.754-6.9076 15.409-8.2886-0.86821-4.4883-0.33253-9.4462 2.4092-12.01 3.1834 1.3226 10.665 4.3892 13.175 5.5824 0.93167 0.44184 1.2846 1.2413 1.051 2.4041-0.23862 1.2007-0.86821 3.1225-1.772 4.6837 2.3432-0.59871 4.9859-0.27129 7.4179 1.2921-0.0889-1.8024 0.0965-4.473 0.66261-5.9175 0.35542-0.91138 0.77682-1.1982 1.6806-1.2312 4.0846-0.14967 10.533-0.13456 14.16-0.13456" fill="#e73830"/>
    <path d="m49.021 57.212c-0.18789-0.2792-0.45947-0.50732-0.81997-0.67787-2.5107-1.1931-9.9946-4.2623-13.178-5.5824-2.762 5.4225-1.1322 12.561 3.12 14.216 4.0796 1.5867 9.2939-0.57137 10.878-7.9561" fill="#fff100"/>
    <path d="m42.967 63.7c0.34268 0.0835 1.2363-1.7745 1.9522-4.0898-0.58893-0.20796-1.1754-0.37851-1.8227-0.56129-0.49502 2.4218-0.43155 4.5771-0.12946 4.6508" fill="#e73830"/>
    <path d="m44.57 54.933c-0.71845 1.2261-1.1906 2.7163-1.4749 4.1176 0.64736 0.1799 1.2338 0.35045 1.8227 0.55842 0.40615-1.3226 0.75651-2.7924 0.90882-4.138-0.396-0.16983-0.81743-0.35045-1.2566-0.53827" fill="#3e4e57"/>
    <path d="m71.345 57.629c-3.6353 0-10.04-0.0144-14.107 0.13457-0.57375 0.0216-0.95452 0.14752-1.2465 0.47206-0.67277 7.0954 1.579 11.447 6.834 11.36 4.1354-0.072 8.149-4.275 8.5196-11.967" fill="#fff100"/>
    <path d="m58.89 65.959c0.29194 0.0576 1.0281-1.3557 1.579-3.8867-0.54834-0.0914-1.1932-0.21084-1.7745-0.29432-0.24373 2.3559-0.0838 4.1227 0.19545 4.1812" fill="#e73830"/>
    <path d="m59.46 57.703c-0.39348 1.414-0.63462 2.8255-0.76666 4.0745 0.58389 0.0835 1.2287 0.20293 1.7745 0.2972 0.26655-1.221 0.48999-2.6985 0.59908-4.3994-0.55086 7e-3 -1.0865 0.0144-1.607 0.0288" fill="#3e4e57"/>
    <path d="m49.573 66.661c-0.15234 0.84288 1.9497 1.1678 2.0664 0.35045 0.11679-0.81747-1.9471-1.0079-2.0664-0.35045" fill="#3e4e57"/>
    <path d="m47.268 31.457c-0.48235-4.9401-3.3637-11.502-4.2928-11.442-1.4978 0.09643-6.113 8.9537-7.2706 15.166 3.516-2.0436 7.4889-3.191 11.563-3.7242" fill="#dcdbd6"/>
    <path d="m66.888 35.425c3.1149 1.5105 6.839 4.2928 9.3396 7.3341 1.3429-5.6256 1.3886-15.851 0.589-16.13-1.0891-0.38067-7.5778 4.9173-9.9286 8.7963" fill="#dcdbd6"/>
   </g>
   <g fill="#e73830">
    <path d="m12.597 76.559c0.07613 2.206 0.19544 4.1887 0.35541 5.9733 2.5996 0.87332 6.0419 0.93427 8.3292-0.14176 0.07872-1.4445 0.26151-2.8027 0.55345-3.9196l0.05613-0.0288 0.13457-2.234c-2.9169 0.98248-6.7426 1.0688-9.4284 0.35045"/>
    <path d="m22.221 91.091c-0.42651-1.2846-0.70824-2.8103-0.85805-4.3994-2.0639 0.91894-5.5164 1.4216-7.7631 0.88087 0.3072 1.772 0.6778 3.3129 1.1145 4.6914 2.5437 0.68507 5.6611 0.1799 7.5067-1.1728"/>
    <path d="m35.914 77.016c-1.513 0.60663-3.5338 0.85806-5.4758 0.68507-0.26654 0.45983-0.48739 0.90627-0.71846 1.2718 0.0662 0.59944 0.16753 1.4318 0.2818 2.1756 1.7288 0.85554 4.963 0.68291 6.8543-0.27417-0.37571-1.3835-0.69054-2.7341-0.94182-3.8587"/>
    <path d="m32.301 89.575c1.9395 0.30727 4.7701-0.21588 6.471-1.3175-0.3275-1.3252-0.79205-3.0565-1.0408-4.1735-1.5816 1.2084-5.4656 1.7897-7.0447 0.58144 0.34779 1.2363 0.98245 3.3891 1.6146 4.9097"/>
    <path d="m45.597 80.395c-2.1324 1.8202-6.1942 2.4624-8.4993 1.5384-0.36046-1.5765-0.81998-3.4728-1.183-4.9173 2.4193 0.7489 6.8898 0.0863 9.1162-1.381 0.17767 1.4596 0.41888 3.5591 0.56612 4.7599"/>
    <path d="m39.454 91.171c2.1578 0.92405 5.6027 0.39075 7.6006-1.2338-0.23099-1.2262-0.64477-3.6938-0.87075-5.1179-1.7618 1.8252-6.1765 2.2391-8.0017 1.3302 0.52804 1.81 0.9012 3.3332 1.2718 5.0214"/>
    <path d="m46.807 88.729c1.7669 1.4521 4.5619 1.5764 6.2729 0.60663 0.16249-1.0256 0.59152-3.2875 0.75143-4.3233-2.3076 0.75149-5.1991 0.4368-6.9127-0.75904-0.0432 0.67283-0.2107 2.1731-0.30972 2.9397 0.0662 0.48214 0.13198 0.95449 0.19804 1.5359"/>
    <path d="m54.703 80.668c-2.1121 0.89872-5.6383 0.46703-7.329-0.57353 0.21832-1.5486 0.33253-2.7062 0.4925-4.1862 2.0461 0.80215 5.6103 0.94686 7.7809 0.1576-0.34016 1.579-0.61692 2.993-0.94436 4.6025"/>
   </g>
   <g>
    <path d="m16.279 55.205c-6.1841-2.4675-7.72-11.929-2.135-18.433 4.8132-5.6027 6.1257-13.693-0.7895-18.986-3.1555-0.64765-6.1993-1.6146-9.134-2.8281 1.1855-0.61958 2.2086-1.0789 3.3941-1.3759-1.3734-1.2922-2.4244-2.2619-3.7699-3.6607 1.4267-0.08132 3.0717 0.1065 4.6838 0.37564 0-2.7747 0-4.7954 0.05613-7.73 1.9141 1.6145 3.4195 3.3129 5.2245 5.6281 1.051-1.9116 1.6171-2.8813 2.7239-4.6862 0.37571 2.8026 0.72097 7.3925 0.85552 11.056 6.8467 7.2529 7.6565 15.63 1.1094 24.221-4.0313 5.2905-3.5084 11.233 2.4117 13.023-1.5105 0.39075-3.5871 1.8278-4.6304 3.3966" fill="#3e4e57"/>
    <path d="m37.808 29.061c3.0311-5.7424 6.1232-6.7604 7.8367-3.7191-0.5636-2.0284-2.0157-5.2601-2.6706-5.2829-1.1271-0.03598-3.6861 4.8487-5.1661 9.002" fill="#b4b4b0"/>
    <path d="m72.047 29.856c2.4625-1.6806 5.0214-0.21588 5.0925 5.887 0.35794-3.3942 0.37067-8.8218-0.28942-9.1213-0.66003-0.29936-3.5998 1.942-4.8031 3.2342" fill="#b4b4b0"/>
    <path d="m65.566 29.317c-0.9596 1.0814-2.0715 3.0971-2.5005 4.9909-0.10917 0.48213 0.36045 0.75393 0.84028 0.4771 0.35793-1.2998 1.0002-3.8714 1.6603-5.4682" fill="#28333a"/>
    <path d="m51.309 26.738c0.2361 1.183 0.25891 2.894-0.23352 4.8996-0.16249 0.66492-0.7362 0.57353-0.94944 0.27417 0.47724-1.6578 0.77681-3.054 1.183-5.1738" fill="#28333a"/>
   </g>
   <g fill="#c82e28">
    <path d="m71.444 85.739c-0.0889-3.0184-3.0565-9.6391-5.6916-14.483-0.37571-0.68795-0.74382-0.79718-1.4978-0.41162-6.5953 3.384-19.54 1.7262-26.237-3.3739-0.5382-0.40874-1.3023-0.40083-1.711 0.11441-2.7925 3.5134-7.4534 10.248-8.0855 13.785 2.3406-3.8968 6.6207-10.294 9.007-13.356 7.3214 5.9886 20.972 7.2732 27.526 3.6023 2.003 3.6023 5.684 11.431 6.6893 14.122"/>
    <path d="m17.37 71.022c1.5714 0.0216 4.2395-0.0504 6.3339-0.27417 0.5179-0.0504 0.79966 0.38067 0.50012 0.83517-2.0842 0.14249-5.618-0.0144-6.834-0.56129"/>
    <path d="m20.642 78.971c1.3506-1.2058 4.1329-2.7925 6.2729-4.0364 0.44933-0.26409 0.83775-0.0504 0.88345 0.35765-1.6196 1.0003-5.5977 2.9169-7.1564 3.6785"/>
    <path d="m78.264 84.141c-1.5282-1.1956-3.2164-2.4904-4.8437-3.9551-0.37571-0.33533-0.72097-0.15975-0.81997 0.3044 1.4445 1.3074 3.7927 2.8509 5.6637 3.6505"/>
    <path d="m81.777 77.982c-1.5308-0.21301-2.8839-0.47207-4.0694-0.80726-0.43918-0.12449-0.74381 0.213-0.65751 0.72853 1.4521 0.23603 3.2901 0.29936 4.7269 0.0784"/>
   </g>
   <g>
    <path d="m46.908 84.328c1.0256 0.57856 2.2518 0.94441 3.6175 1.046 0.15234-1.3861 0.3249-2.8432 0.49754-4.2471-1.3175-0.0813-2.6122-0.4548-3.6175-0.99256-0.15234 1.3658-0.32497 2.8255-0.4976 4.1937" fill="#28333a"/>
    <path d="m47.089 90.049c2.5208 1.381 2.9118 3.2748 1.9801 4.5949 2.6427 0.47998 5.585-0.36053 5.9328-2.5082-1.9979 1.5156-5.062 0.28712-4.8919-2.1959-1.1119-0.0504-2.3304-0.46199-3.2697-1.1043 0.0812 0.42169 0.16249 0.84029 0.24877 1.2135" fill="#28333a"/>
    <path d="m47.407 80.135c1.0053 0.53827 2.2974 0.9088 3.6175 0.99256 0.20566-1.6628 0.41888-3.2494 0.61685-4.5466-1.4013-0.0288-2.6732-0.27418-3.8029-0.62462-0.0914 1.0358-0.24625 2.5361-0.43155 4.1786" fill="#c82e28"/>
    <path d="m46.549 87.045c0.0712 0.52027 0.17516 1.1602 0.29195 1.7897 0.93928 0.64261 2.1578 1.051 3.2697 1.1043 0.0712-1.2718 0.22084-2.9524 0.41377-4.567-1.3658-0.10147-2.5894-0.46487-3.615-1.0434-0.12183 0.97485-0.24625 1.9039-0.36045 2.7163" fill="#c82e28"/>
   </g>
   <g fill="#28333a">
    <path d="m38.246 86.236c0.6093 0.15472 1.2287 0.25906 1.7999 0.31447-0.34527-1.3683-0.69306-2.7823-1.0307-4.1786-0.62707-0.0432-1.2541-0.14968-1.8253-0.31951 0.35542 1.4039 0.71083 2.8153 1.0561 4.1837"/>
    <path d="m39.511 91.312c-0.56863 3.7419 2.1299 5.6383 5.2473 5.3539 3.0464-0.27633 5.0874-1.6907 4.6127-4.1126-0.87583 3.3561-8.3597 3.1936-8.0627-0.95449-0.58641-0.0432-1.2008-0.1576-1.8075-0.32742 5e-3 0.0144 8e-3 0.0288 0.0101 0.0432"/>
    <path d="m37.23 68.013c-0.66513 0.85806-1.9674 2.6402-2.5742 3.6099 0.32239 1.4597 0.77682 3.3484 1.2896 5.4402 0.59404 0.1396 1.2262 0.21804 1.8786 0.24394-0.20819-0.76667-0.43918-1.7999-0.63211-2.5717-0.20566-0.82755-5e-3 -1.282 1.0814-1.4242 2.0233-0.26626 4.9148 0.0763 6.6588 0.88094 0.0202 0.50733 0.0432 0.87584 0.10917 1.6146 1.0434-0.0432 1.9954-0.17774 2.8433-0.42385-0.013 0.16767-0.0281 0.36268-0.0453 0.57353 1.1297 0.35045 2.4015 0.59368 3.8028 0.62462 0.0281-0.19573 0.0561-0.38571 0.0863-0.56633 0.0914-0.56849 0.29957-0.77682 0.9266-1.0408 0.90121-0.38067 1.9877-0.59367 3.3586-0.58864l0.13709-0.71817c-6.9254 0.11946-14.572-2.1172-18.92-5.6535"/>
   </g>
   <g>
    <path d="m37.19 82.053c0.57115 0.16982 1.1982 0.27705 1.8253 0.31734-0.42652-1.7668-0.83521-3.5008-1.1906-5.062-0.65499-0.0288-1.2871-0.10651-1.8786-0.24395 0.38837 1.5816 0.81489 3.2773 1.2439 4.9883" fill="#c82e28"/>
    <path d="m39.501 91.272c0.6067 0.16983 1.2185 0.28425 1.8075 0.32527 0-0.51309-0.81743-3.2926-1.2617-5.0468-0.57115-0.0576-1.1906-0.15975-1.7999-0.31519 0.45444 1.7999 0.88345 3.521 1.2541 5.0366" fill="#c82e28"/>
    <path d="m35.579 85.03c-0.31735-1.1296-0.62448-2.2974-0.91899-3.4906-1.2922 0.24107-2.8915 0.20293-4.6178-0.23891 0.19545 1.1779 0.46458 2.3813 0.76412 3.5185 1.4115 0.72349 3.3789 0.57856 4.7726 0.21084" fill="#28333a"/>
    <path d="m39.476 92.062c-1.5612 0.48501-2.6097-0.76164-2.6326-1.9396-8e-3 -0.41377-0.0202-0.68794-0.0612-0.94434-1.2515 0.40082-2.7772 0.61455-4.3766 0.51524 0.14975 3.7216 3.8054 5.755 7.2325 4.0186-0.14723-0.47998-0.2107-1.1398-0.16249-1.6501" fill="#28333a"/>
    <path d="m36.784 89.179c-0.0353-0.22595-0.0889-0.44184-0.18026-0.73112-0.3503-1.0916-0.69305-2.2365-1.0256-3.417-1.3912 0.36772-3.3611 0.5102-4.7701-0.21301 0.52294 1.9954 1.1373 3.7852 1.5943 4.8412 0 0.0144 3e-3 0.0216 3e-3 0.036 1.5993 0.0993 3.1276-0.11442 4.3791-0.51524" fill="#c82e28"/>
    <path d="m30.549 77.656c1.3048-2.074 2.9829-4.4857 4.105-6.0749 0.27928 1.2236 0.88344 4.0034 1.2465 5.4402-1.7313 0.65485-3.7419 0.8631-5.3514 0.6347" fill="#28333a"/>
    <path d="m35.946 77.065 0.17011 0.76667c-1.5968 0.34254-1.8964 1.9548-1.4572 3.7089-1.2922 0.24107-2.8915 0.20293-4.6152-0.23891-0.13456-0.81237-0.2361-1.6121-0.28431-2.366 0.22595-0.37564 0.49753-0.81489 0.78951-1.2795 1.546 0.23604 3.7572 0.0504 5.3971-0.59151" fill="#c82e28"/>
   </g>
   <g fill="#28333a">
    <path d="m14.281 82.909c-0.45184-0.10435-0.90121-0.23603-1.3201-0.37348 0.18026 1.7466 0.40874 3.45 0.68795 5.062 0.47473 0.0734 0.95452 0.13457 1.4166 0.16983-0.29957-1.4521-0.56101-3.0971-0.78444-4.859"/>
    <path d="m14.548 59.206c-1.6323 2.5158-2.2848 9.7331-2.003 17.339 0.40111 0.0885 0.7895 0.16767 1.1678 0.23891-0.40615-6.5674-0.22848-13.478 0.83521-17.577"/>
    <path d="m16.542 92.56c-0.64988-0.0504-1.2058-0.1245-1.8583-0.26914-0.35793 3.1149 1.5968 4.864 4.7168 5.0468 3.12 0.18279 4.7599-0.91894 4.5289-3.1174-1.2388 3.2088-8.0906 2.2594-7.3874-1.6602"/>
   </g>
   <path d="m13.713 76.783c-0.37571-0.072-0.76666-0.14968-1.1678-0.23891 0.07362 1.9954 0.21322 4.0186 0.41637 5.9912 0.41637 0.13673 0.86821 0.26914 1.3201 0.37348-0.24373-1.937-0.43666-4.0136-0.56864-6.1257" fill="#c82e28"/>
   <path d="m15.064 87.767c-0.46206-0.036-0.94182-0.0964-1.4166-0.16983 0.29194 1.6856 0.63462 3.2646 1.0358 4.6812v0.0144c0.6524 0.14464 1.2084 0.21588 1.8583 0.26914-0.55086-1.0434-1.0484-2.7189-1.4775-4.793" fill="#c6242d"/>
   <g>
    <path d="m14.752 36.322c-5.359 7.6361-2.7696 14.168 0.72097 16.016 1.3049 0.69082 3.3332 0.0885 3.8511-1.15 0.47724 0.22811 1.0358 0.45191 1.4876 0.62966-2.0131 0.60159-3.5465 1.9827-4.5061 3.4246-6.4938-2.5107-7.7453-13.041-1.5536-18.92" fill="#28333a"/>
    <path d="m4.5029 14.811c2.8382 0.76667 5.6078 1.3531 8.3368 1.6958 0.41126 0.05037 0.77935 0.19789 1.0992 0.44184 2.6249 2.0156 4.6508 5.3869 4.4401 9.4411-0.76666-3.7623-2.3203-6.5776-4.9554-8.6059-2.2543-0.4037-7.1843-1.711-8.9207-2.9727" fill="#28333a"/>
    <path d="m37.034 56.671c-0.27417 1.7338-0.86312 2.7062-1.2566 2.6579-0.31224-0.036-0.57627-1.2186-0.29195-2.9499 0.33001-2.0233 0.91136-2.6122 1.2922-2.5539 0.31483 0.0432 0.54331 1.018 0.2564 2.8458" fill="#fff8b0"/>
   </g>
   <g fill="#28333a">
    <path d="m4.1434 9.8221c1.1601 1.0028 2.7925 2.2746 3.8409 3.054 0.36556 0.27129 0.39096 0.77171-0.15997 0.8885-1.2947-1.1703-3.0387-2.7265-3.681-3.9425"/>
    <path d="m8.4497 10.572c0.47724 0.1396 0.97229 0.0072 0.92406-0.70306-0.14975-2.2746-0.33253-4.3716-0.56612-7.197-0.22596 1.97-0.34527 5.1636-0.35793 7.9002"/>
    <path d="m16.519 3.8647c-0.76666 1.8253-1.2845 3.0742-1.8405 4.3462-0.23358 0.53539-0.70831 0.4771-1.0256 0.15256 0.6778-1.3378 2.1908-3.5972 2.8661-4.4984"/>
   </g>
   <path d="m32.366 35.415c2.0385-8.6796 8.8293-19.093 10.749-19.037 1.3607 0.04318 5.6027 6.9025 7.1183 13.932 0.27417-1.0992 0.43155-2.1349 0.61685-3.521 0.0511-0.36556 0.18789-0.444 0.5179-0.28424 2.1197 1.0231 4.6152 2.988 6.6283 5.3133 2.0081-1.4876 4.6355-2.4701 7.5905-2.767 0.50517-0.0504 0.63211 0.0763 0.41889 0.54331-0.55338 1.2007-0.88344 2.1324-1.3099 3.5363 3.8435-4.8259 10.903-9.9768 13.033-9.4157 2.1172 0.55554 3.1758 12.223 1.9294 20.405-0.88598 10.581-3.8282 18.57-8.7811 23.635l-0.0761-1.0687c4.4274-5.1382 7.1005-12.284 8.1947-22.632 1.0764-8.3622-5e-3 -19.243-1.5054-19.659-1.7161-0.4771-9.1949 5.0823-13.087 9.9844-0.54582 0.68507-0.73365 0.49222-0.55849-0.26409 0.39349-1.6984 0.85552-3.1403 1.3658-4.3512-2.8509 0.28425-5.0468 1.1728-6.999 2.5919-0.23862 0.17486-0.38333 0.18278-0.54834-0.0144-1.9649-2.2797-4.2014-4.0745-6.245-5.1052-0.22085 1.5308-0.52042 2.8763-0.90121 4.0923-0.24373 0.78193-0.45184 0.84792-0.63211-3e-3 -1.5079-7.1716-5.8744-14.252-6.8289-14.229-1.3886 0.03598-8.0398 9.9133-10.048 18.468-3.1276 11.926-2.6021 20.146-0.64988 25.028l0.0964 2.1756c-3.4678-6.4481-3.3865-15.247-0.0889-27.356"/>
   <path d="m73.056 80.488c1.843 1.4596 3.4094 2.5563 4.8082 3.3586-0.30461-1.6424-0.59404-3.455-0.82252-5.8362-0.0281-0.31519 0.0533-0.43392 0.38838-0.38067 1.3632 0.22595 2.6198 0.29935 3.7851 0.29935-3.224-4.204-6.4075-6.9965-10.7-10.193-0.21833-0.16263-0.24373-0.28712-0.12694-0.52819 1.1475-2.366 1.7846-6.1816 0.7819-9.2508-4.1811-0.036-10.667 7e-3 -13.917 0.12665-0.75143 0.0288-1.1322 0.25906-1.4292 1.0206-0.53057 1.3556-0.70832 3.5617-0.66262 5.783 0.0101 0.39579-0.15738 0.42673-0.49754 0.22092-2.1832-1.3353-4.4984-1.81-7.0117-1.2338-0.55597 0.12665-0.62706-0.0144-0.36304-0.49509 0.8022-1.475 1.4445-3.351 1.6755-4.4934 0.19292-0.97738-3e-3 -1.6374-0.88599-2.0563-2.135-1.0154-9.2406-3.9348-12.965-5.4758-2.6326 2.729-2.8915 7.4305-2.2441 11.406 0.0532 0.33534-0.018 0.4368-0.28942 0.52028-4.6533 1.4267-10.974 5.0391-14.696 7.7936 1.1221 0.1799 3.4678 0.38355 5.9454 0.25906 0.41126-0.0216 0.51279 0.11658 0.26402 0.50804-1.2718 2.0207-2.3965 4.7827-2.9626 6.7248 2.0081-1.056 3.5312-1.843 6.2095-3.3383 0.36808-0.20293 0.47984-0.14248 0.47984 0.30944-0.013 2.003 0.17263 3.8409 0.53056 5.1052 1.673-3.1302 6.0242-9.3396 8.6567-12.797 0.1853-0.24395 0.31734-0.25906 0.561-0.0576 3.1047 2.5818 7.1691 4.176 12.269 5.0544 5.6307 0.96975 10.794 0.43896 14.744-1.4673 0.24625-0.11946 0.35031-0.0864 0.48998 0.15759 1.8304 3.1352 4.5188 8.9512 6.2704 13.297 0.43155-1.3303 0.88344-2.922 1.2058-4.2014 0.0889-0.35764 0.20559-0.38355 0.50775-0.14176m-0.0914 0.60447c-0.30209 1.2845-0.70823 2.8763-1.249 4.5923-0.20566 0.65484-0.41637 0.65484-0.68291 0.0144-1.8608-4.473-4.5644-10.584-6.311-13.632-4.2243 1.9421-9.3421 2.4675-15.001 1.4394-5.2473-0.94945-9.4056-2.5666-12.444-5.0773-2.6148 3.5008-6.938 9.8524-8.7176 13.115-0.29958 0.54618-0.50265 0.46702-0.64736-0.0432-0.43407-1.5105-0.64484-3.6886-0.60419-5.6357-2.4878 1.4368-4.0237 2.1959-6.3948 3.4804-0.57115 0.31231-0.68543 0.16767-0.48739-0.47206 0.64225-2.1249 1.9319-5.1585 3.0667-7.0244-2.0157 0.0993-4.5848-0.0144-6.2399-0.28929-0.54582-0.0885-0.54582-0.28712-0.12183-0.62678 3.9146-3.1098 10.246-6.6182 15.171-8.1718-0.79966-4.0872-0.4671-9.1847 2.4041-11.967 0.1853-0.1799 0.27669-0.20581 0.53568-0.0964 3.7851 1.5714 11.002 4.5466 13.112 5.5494 1.0459 0.49725 1.4673 1.3886 1.1881 2.7722-0.22848 1.1399-0.76159 2.7417-1.5409 4.2167 2.2162-0.43392 4.6381 5e-3 6.603 1.15-0.0511-1.8482 0.14975-4.1507 0.68032-5.5038 0.40873-1.0434 0.91136-1.3988 1.9446-1.4368 3.2063-0.11658 9.761-0.17774 14.11-0.16767 0.25891 0 0.33512 0.0432 0.4214 0.29216 1.1576 3.3052 0.4671 7.3747-0.79204 9.7762 4.204 3.021 7.7479 6.0369 10.914 10.469 0.42141 0.58864 0.33253 0.76156-0.34526 0.75653-1.5105-0.0144-2.6072-0.13457-3.9247-0.3706 0.24625 2.0588 0.56101 3.9678 0.96214 6.1942 0.0838 0.46487-0.099 0.53035-0.50013 0.30224-1.4368-0.81741-3.2342-2.0639-5.1077-3.6023"/>
   <path d="m42.974 20.304c-1.0814 0.04318-5.5469 8.1439-6.8213 14.277 3.1479-1.7542 6.5953-2.8077 10.761-3.4042-0.58389-5.0367-3.3459-10.896-3.9399-10.873m-7.6032 14.77c1.1475-6.0191 5.7906-15.262 7.6082-15.359 1.1932-0.05757 4.0694 6.7477 4.5848 11.594 0.0353 0.35045-0.0151 0.43392-0.37823 0.48213-4.1583 0.57353-8.1058 1.8811-11.233 3.6302-0.54834 0.30727-0.67528 0.14248-0.58137-0.34757"/>
   <path d="m76.715 26.891c-0.79205-0.3044-6.9736 4.5771-9.398 8.4181 3.1885 1.5867 6.4532 4.1049 8.7582 6.7984 1.3048-5.8947 1.0789-15.049 0.63973-15.216m-0.81236 15.973c-2.2797-2.6808-5.8998-5.5139-9.073-7.098-0.3072-0.15472-0.34527-0.31447-0.17768-0.57641 2.7646-4.275 9.134-9.2558 10.284-8.8547 1.0535 0.36844 0.8149 11.157-0.40874 16.438-0.10916 0.46199-0.31475 0.45983-0.62447 0.0914"/>
   <path d="m49.809 66.718c-0.0381 0.21085 0.17767 0.41882 0.7489 0.50733 0.50264 0.0763 0.8022-0.036 0.8352-0.25115 0.0202-0.14464-0.16752-0.35045-0.66002-0.43176-0.64736-0.1065-0.89359 0.0144-0.92406 0.17486m0.6778 0.97479c-0.97737-0.15256-1.2465-0.66276-1.1703-1.0713 0.0712-0.40082 0.63211-0.70809 1.4978-0.56633 0.74636 0.12449 1.1424 0.55626 1.0789 0.98752-0.0736 0.51524-0.68795 0.76156-1.4064 0.64981"/>
   <path d="m49.234 57.633c-1.711 7.5194-7.2351 9.3041-11.251 7.7377-4.468-1.7389-5.9429-8.7075-3.4728-14.082l0.81236-0.22596c-2.7316 5.3286-0.95198 12.287 2.927 13.767 4.6025 1.7567 9.1619-1.4114 10.51-7.9458z"/>
   <path d="m44.843 55.028c-1.8913 3.186-2.0309 8.1871-1.772 8.2429 0.29195 0.0576 2.1654-4.3004 2.4929-7.9103l0.58641 0.25114c-0.8276 4.9224-2.5056 8.5019-3.2266 8.347-0.82506-0.17486-0.77174-4.9605 1.2998-9.1238z"/>
   <path d="m71.635 58.027c-0.45695 8.1033-4.8716 11.749-8.8598 11.815-5.7144 0.0964-7.6946-4.6051-7.1691-11.096l0.73112-0.77178c-0.69557 6.7223 1.2668 11.332 6.4862 11.249 3.7521-0.0648 7.7656-3.8434 8.22-11.65z"/>
   <path d="m61.416 57.689c-0.50769 5.816-1.843 8.6567-2.5589 8.5221-0.82506-0.15759-0.78444-4.209 0.25639-8.4968l0.62959-0.0288c-1.0789 3.7267-1.0662 7.819-0.77936 7.8622 0.30461 0.0432 1.5562-3.1987 1.8278-7.8672z"/>
   <path d="m22.167 78.329c-0.85551 3.1987-0.9469 8.8547 0.33764 12.668 3.0997 2.6503 2.4574 6.1765-1.7948 6.608-4.8513 0.49221-7.0345-2.6427-6.3085-5.3108-1.3759-4.2522-2.0918-9.992-2.2467-18.481-0.13457-7.2351 0.40874-13.208 3.5947-18.453 2.7519-4.5264 9.4183-5.7373 14.628-2.9448l0.023 0.73371c-5.1788-2.7468-11.421-1.6374-14.003 2.6122-3.1022 5.1051-3.6658 11.101-3.5363 18.06 0.15738 8.4892 0.77428 13.917 2.0867 18.281 0.05109 0.16479 0.04821 0.25115 0.01295 0.40586-0.45695 2.0258 1.1018 4.9757 5.6865 4.5112 3.4474-0.35045 4.2903-3.054 1.48-5.5647-0.0889-0.0784-0.14471-0.16982-0.18278-0.28712-1.282-3.7546-1.2668-9.1441-0.47221-12.472z"/>
   <path d="m18.552 97.294c0.53057-1.216 0.40615-2.432-0.16752-3.2317-0.47221-0.65772-0.27417-0.85554 0.29446-0.28208 0.70572 0.71313 1.0281 2.2289 0.44429 3.5642z"/>
   <path d="m21.205 97.243c0.58641-0.97486 0.73112-2.0893 0.31476-3.2114-0.29446-0.78949-0.05109-0.92153 0.36304-0.18782 0.5382 0.95449 0.54331 2.1984 0.03022 3.219z"/>
   <path d="m21.492 76.632c-2.828 0.83266-6.3669 0.85547-8.8801 0.18781l-0.02303-0.51811c2.597 0.70593 6.3186 0.62678 9.1213-0.24899z"/>
   <path d="m21.254 82.669c-2.3635 1.056-5.7373 1.0206-8.2835 0.13457l-0.05829-0.54834c2.7595 0.95959 6.2374 0.85043 8.3648-0.13457z"/>
   <path d="m21.388 86.955c-1.97 0.93168-5.4707 1.4826-7.7326 0.87836l-0.09643-0.53323c2.2314 0.57353 5.7906 0.072 7.7834-0.87836z"/>
   <path d="m22.35 91.302c-1.9674 1.5663-5.4225 1.8862-7.6514 1.211l-0.06836-0.52531c2.5005 0.71601 5.651 0.23387 7.494-1.1348z"/>
   <path d="m39.764 94.017c-3.7292 1.414-6.9406 0.23603-7.6895-4.3335-1.3607-3.4347-2.2543-6.9482-2.5919-10.385l0.50516-0.7489c0.29699 3.5287 1.1906 7.3417 2.5868 10.893 0.0331 0.0813 0.0482 0.14968 0.0633 0.23891 0.6067 3.2926 2.7544 5.3844 6.9584 3.7724z"/>
   <path d="m37.247 94.287c0.25387-0.81748 0.16248-1.7618-0.33765-2.6453-0.47472-0.83518-0.22084-0.99767 0.34527-0.21589 0.58893 0.81741 0.79713 1.9065 0.57375 2.8102z"/>
   <path d="m34.875 71.277c1.2185 5.5012 3.4424 14.237 4.8792 19.743 0.0381 0.14752 0.0353 0.19573 0.018 0.31735-0.31735 2.1832 0.71083 5.9124 5.9048 4.8766 4.1354-0.82755 4.6254-4.0338 1.3226-5.8414-0.13708-0.0734-0.18026-0.15472-0.21322-0.3303-0.88344-4.8894-1.8075-11.782-2.1502-16.303-0.1142-1.4851 0.32749-1.5181 0.45443-0.036 0.36045 4.3334 1.3506 11.411 2.2238 16.217 3.6328 1.8406 3.5109 5.8947-1.5511 6.8619-5.9378 1.1373-6.9964-3.2952-6.5166-5.6078-1.4496-5.4351-3.5414-13.772-4.8386-19.212z"/>
   <path d="m45.056 75.428c1.8481 0.0504 3.2951-0.34541 4.9275-1.2998 0.82252-0.48214 1.0129-0.15975 0.23611 0.38859-1.4724 1.0408-3.1961 1.6298-5.1331 1.6044z"/>
   <path d="m45.056 75.913c-2.2314 1.4318-6.6512 2.1147-9.134 1.3861-1.5206 0.59151-3.6353 0.88598-5.6027 0.64764l0.3503-0.48501c1.8532 0.1396 3.7165-0.11442 5.1636-0.69299 0.0453-0.0144 0.0914-0.0144 0.13708-5e-3 2.4345 0.75401 6.9101 0.036 9.035-1.414z"/>
   <path d="m36.922 81.124c-1.8024 0.92154-5.0265 1.1753-6.8543 0.3303l-0.0812-0.60159c1.6196 0.86569 4.8995 0.73364 6.8111-0.23099z"/>
   <path d="m37.75 84.377c-1.612 1.1297-5.1432 1.7263-6.9152 0.68003l-0.17012-0.71601c1.4673 1.2769 5.4733 0.66276 6.9558-0.49006z"/>
   <path d="m32.22 89.315c1.9624 0.34757 4.8259-0.231 6.4633-1.2947l0.11931 0.50516c-1.5282 0.98241-4.3055 1.673-6.4202 1.3124z"/>
   <path d="m45.627 80.688c-2.0233 1.7035-6.0318 2.4244-8.4181 1.5536l-0.14723-0.59655c2.3178 1.0078 6.4836 0.25906 8.4917-1.5486z"/>
   <path d="m46.237 85.112c-1.6856 1.7542-6.0267 2.2111-7.9586 1.3506l-0.13457-0.62174c1.6577 0.94693 6.3567 0.5764 8.017-1.3683z"/>
   <path d="m47.161 90.168c-1.8659 1.6095-5.4631 2.1781-7.6666 1.2795l-0.018-0.53323c2.1756 0.92146 5.6205 0.34037 7.5321-1.2719z"/>
   <path d="m43.643 96.686c0.63211-0.74379 0.58138-1.8303 0.15997-2.4523-0.46961-0.69802-0.20566-0.90375 0.32239-0.24898 0.56611 0.69586 0.69557 1.8506 0.14975 2.7062z"/>
   <path d="m46.78 96.229c0.36045-0.69802 0.44169-1.6425 0.1142-2.4853-0.33253-0.85806-0.0482-0.99514 0.37067-0.16982 0.37823 0.74126 0.45695 1.6578 0.20818 2.3863z"/>
   <path d="m46.415 86.337c0.40363-3.5033 0.85298-7.5981 1.216-10.886l0.61944-0.19574c-0.41637 3.7673-1.0383 9.0502-1.4724 12.83z"/>
   <path d="m49.219 94.422c0.93167 0.10146 1.975 0.0576 2.8204-0.11154 3.45-0.69011 3.3332-4.0212 0.99768-4.6812-0.22084-0.0576-0.28431-0.15472-0.24373-0.39363 0.79205-4.5162 2.0944-11.155 3.0362-15.587l0.62707-0.0144c-1.0053 4.539-2.2974 10.982-3.092 15.511 2.6503 0.89613 2.9194 4.8843-1.2388 5.7449-0.9139 0.18782-2.2238 0.22596-3.2748 0.0964z"/>
   <path d="m50.141 94.766c0.40363-0.65772 0.45184-1.3404 0.28683-1.8583-0.22595-0.71817 0.099-0.83266 0.38838-0.13457 0.2107 0.51309 0.2792 1.2744-0.0662 1.9878z"/>
   <path d="m52.283 94.535c0.5636-0.67499 0.68795-1.4471 0.60167-1.9573-0.10665-0.6678 0.20055-0.74134 0.40111-0.0964 0.14471 0.4771 0.15486 1.1932-0.24373 1.8456z"/>
   <path d="m53.334 89.467c-1.6171 1.0078-4.5137 1.0941-6.4303-0.35549l-0.10665-0.71313c1.7516 1.5562 4.6406 1.6374 6.2729 0.65772z"/>
   <path d="m53.798 85.278c-2.0233 0.64764-4.9858 0.56345-6.8873-0.73875l0.0633-0.5505c1.673 1.2185 4.6254 1.5282 6.9127 0.74378z"/>
   <path d="m54.631 80.958c-2.0055 0.79963-5.4733 0.50732-7.2579-0.58144l0.0432-0.55051c1.6476 1.056 5.3133 1.48 7.3392 0.54043z"/>
   <path d="m55.553 76.364c-2.0563 0.71313-5.6637 0.65268-7.6844-0.19286l0.0381-0.5102c2.1096 0.84792 5.7195 0.91138 7.7656 0.12665z"/>
   <path d="m16.142 55.49c-6.4405-2.4828-7.9408-12.277-2.2238-18.933 4.7904-5.5748 5.8921-13.366-0.69054-18.496-2.9321-0.60447-6.0775-1.5587-9.0705-2.8153-0.48998-0.20581-0.4671-0.35045-0.02806-0.58144 0.9596-0.50517 1.8862-0.90376 2.9524-1.2084-1.1373-1.0104-2.2061-1.9878-3.3865-3.2063-0.47724-0.49221-0.4468-0.65484 0.20056-0.65772 1.4851-0.0051 2.8026 0.1065 4.3639 0.3706 0-2.5843-0.02303-4.3359 0.02807-7.23 0.01008-0.60663 0.13709-0.66492 0.59404-0.27417 1.8583 1.607 3.3611 3.2926 4.8894 5.2423 0.77682-1.5308 1.3632-2.5666 2.4168-4.2192 0.40615-0.63973 0.56612-0.59152 0.66254 0.18782 0.38844 3.0717 0.71846 7.0345 0.81236 10.759 7.1031 7.4864 7.4991 16.135 1.0865 24.546-4.2928 5.6332-3.0362 11.213 2.6859 12.708l-0.92914 0.31735c-5.5799-1.7999-6.5928-7.7479-2.2695-13.419 6.2602-8.2125 5.9226-16.323-0.99006-23.718-0.1142-0.12161-0.14975-0.18494-0.15738-0.38355-0.13198-3.5033-0.40874-7.4407-0.73874-10.139-0.87075 1.3353-1.3912 2.2974-2.2619 3.8816-0.18278 0.33246-0.33764 0.30943-0.56101 0.02878-1.5917-2.003-3.1225-3.7318-4.6888-5.1052-0.04534 2.6377-0.05613 4.3334-0.02806 7.0676 0.0025 0.32023-0.10916 0.41665-0.4417 0.36052-1.6247-0.27705-2.7671-0.40082-3.8536-0.38355 1.0231 1.0764 2.0487 2.0792 3.219 3.1377 0.33253 0.2972 0.27669 0.42889-0.1396 0.54115-1.0764 0.29216-1.7948 0.5836-2.7189 1.0535 2.8686 1.1576 5.6332 1.9776 8.4587 2.564 0.08376 0.01439 0.16501 0.04318 0.26151 0.11658 6.6233 5.024 6.0749 13.208 0.77936 19.375-5.5317 6.4354-3.8155 15.689 2.1223 17.989z"/>
   <path d="m52 59.915c0.5382 0.0576 2.3914-1.6984 3.9679-6.1613 0.0889-0.24395 0.17767-0.29216 0.4468-0.25618 9.5021 1.2643 15.024 0.76163 15.059 0.39074 0.0453-0.47997-6.3085-3.9856-13.686-5.7931-0.28684-0.072-0.33513-0.1727-0.29195-0.43896 0.16501-1.0611 0.2818-2.2517 0.37319-3.2977 0.0202-0.28928 0.11168-0.36268 0.40615-0.34253 4.204 0.32526 8.3698 0.0504 8.4155-0.24899 0.0561-0.36844-3.8968-2.8864-8.4409-4.039-0.23862-0.0576-0.27417-0.10434-0.28684-0.38571-0.14723-2.9296-0.71586-4.2395-0.94182-4.2776-0.28684-0.0504-1.7034 1.3048-3.0514 3.8409-0.0662 0.12665-0.16249 0.17774-0.33002 0.16982-6.0444-0.38571-9.8905 1.0307-9.9387 1.409-0.0252 0.23891 2.8509 1.6323 8.017 2.6503 0.23862 0.0504 0.33512 0.16263 0.24877 0.42673-0.31735 0.94441-0.62707 1.9979-0.86567 2.9905-0.0633 0.26122-0.15234 0.36557-0.47473 0.33534-8.2404-0.83518-13.978 0.23891-14.016 0.57353-0.0331 0.28928 4.6203 3.0819 13.467 4.968 0.22848 0.0504 0.32497 0.12449 0.33001 0.39362 0.0561 4.3537 1.2033 7.0472 1.5917 7.0929m-0.13708 0.80474c-0.86313-0.12665-2.1578-3.6277-2.135-7.6946-8.1845-1.7466-14.092-4.8158-13.912-5.717 0.17515-0.88087 7.4382-1.8836 14.714-1.0916 0.231-0.96723 0.42652-1.6044 0.73367-2.5335-4.666-0.91139-8.479-2.4752-8.3648-3.2393 0.13457-0.89102 4.6634-2.3863 10.566-2.0334 1.3988-2.6605 2.9854-4.1684 3.6912-4.1177 0.62959 0.0432 1.3683 1.8228 1.48 4.8183 4.666 1.1628 8.9867 4.0415 8.8649 4.8463-0.12183 0.82251-5.1407 1.0078-8.9969 0.72601-0.0889 1.0408-0.20307 1.8177-0.36808 2.8686 7.6489 1.8684 14.211 5.5393 14.14 6.4506-0.0813 1.0636-7.2402 1.348-15.742 0.1907-1.4851 4.4604-3.8435 6.6486-4.6711 6.5268"/>
   <path d="m50.047 69.539c-1.8151 1.1906-3.3662 0.39866-3.3028-1.0586 0.0281-0.61167 0.34016-0.59656 0.40874 7e-3 0.12946 1.1297 1.2642 1.4724 2.7442 0.52316 0.23099-0.14752 0.31224-0.14464 0.47724 0.0885 0.83521 1.1804 1.8786 1.3607 2.8534 0.63182 0.50517-0.37564 0.71846-0.11154 0.2564 0.31735-1.0104 0.94434-2.4802 0.92153-3.4373-0.51308"/>
  </g>
 </g>
</svg>
