<?xml version="1.0" encoding="UTF-8"?>
<!-- Created with Inkscape (http://www.inkscape.org/) -->
<svg version="1.1" viewBox="0 0 163.45 171.92" xmlns="http://www.w3.org/2000/svg">
 <g fill="#3e4e57" stroke-width=".5095">
  <path class="st0" d="m135.79 153.02c-0.96805-1.9361-0.3057-8.0501 6.2668-10.139-5.5026-3.1079-12.075-7.8972-17.221-12.432-3.4136 2.1399-7.3877 3.7193-11.973 4.5855-1.7832 0.35665-3.5155 0.6114-5.1459 0.81519 6.6744 6.2668 18.495 13.349 28.124 17.323 0-0.051-0.051-0.10191-0.051-0.15284"/>
  <path class="st0" d="m37.302 124.38c-1.7832 1.8851-4.076 3.6684-6.5216 5.1459-0.45855 2.9551-1.2228 6.0121-1.9361 8.3558-1.6813 5.6554-0.5095 9.12 2.3437 9.8843 3.3627 0.86614 6.6744-1.6304 8.2029-7.8972 0.9171-3.8212 1.6304-6.0121 1.987-7.5406 0.5095-1.9361 1.987-3.4646 4.025-4.4836-2.9551-1.1718-5.7573-2.3946-8.101-3.4646"/>
  <path class="st0" d="m75.515 107.88c7.8463 0.45854 17.425 0 24.864-0.8152 1.7832-0.2038 2.9041 0.7133 3.7703 2.3946 1.2738 2.2927 1.8342 6.8782 0.9171 10.037 3.006-2.0889 7.9991-3.3627 12.279-2.6494-1.6813-3.3117-1.8342-6.8273-1.3247-9.5276 0.35664-1.9361 0.76424-2.4965 2.2418-3.1079 4.7383-1.9361 10.547-3.4646 16.762-4.9931 1.3756 2.5984 3.1589 7.5406 3.5155 11.617 3.057-11.973 0.76424-26.341-6.3687-38.569 1.8342-14.062-3.9741-29.041-6.4706-29.449-2.038-0.35665-12.381 9.9352-17.985 19.208-0.25475-1.8342-0.66235-3.6174-1.3756-5.5535-3.4646 1.6813-7.5915 5.7573-8.8143 10.394-2.9551-3.2608-6.4706-6.2668-10.037-8.6615-0.9171 2.4965-1.3756 5.3497-1.4776 8.7124-4.7383-8.4577-14.572-20.125-16.355-19.87-2.9551 0.45855-9.12 20.94-9.9352 36.99-1.3247 18.087 2.4456 33.678 12.483 43.053 0.76425-0.3057 1.4775-0.66235 2.0889-0.86615-2.5475-8.0501-2.4456-15.081 1.2228-18.342"/>
 </g>
 <g stroke-width=".5095">
  <path class="st1" d="m134.88 92.851c-0.25475-1.2228-9.12-3.5155-22.622-2.1399-0.45855-1.8851-0.96804-3.6684-1.5285-5.2478 9.171-2.0889 14.572-4.7893 14.368-5.6045-0.2038-0.86614-7.4896-1.987-17.272-0.86614-2.9551-5.1969-6.114-7.3877-7.2858-7.0311-0.7133 0.2038-0.96805 3.4646-0.45855 8.3558-10.954 2.3437-17.731 5.8592-17.68 6.6744 0.1019 1.1718 8.2029 1.5794 18.648 0.2038 0.30569 1.6304 0.66234 3.3117 1.0699 5.044-16.151 2.9041-27.411 6.6744-27.36 7.7444 0.05095 1.1718 12.228 2.8532 29.857 0.8152 2.4965 6.7763 5.1969 10.547 5.9611 10.445 0.86614-0.1019 2.8532-4.5345 2.7513-11.668 13.553-2.3437 21.807-5.6045 21.552-6.7254" fill="#e73830"/>
  <path class="st1" d="m112.86 135.03c8.4067-1.5794 14.775-5.5535 19.208-11.005 4.7383 3.5155 15.489 11.566 20.584 15.54-0.76425-2.9551-1.6813-5.5026-3.057-8.6615 4.5855 1.3756 8.8653 2.9551 13.145 4.5855-2.1399-3.9231-5.6554-7.7444-9.3748-10.801 3.057-0.86615 5.9102-1.8851 8.5086-3.057-5.6045-3.7193-16.1-6.6744-24.66-6.4706 0.56045-1.4266 1.019-2.8532 1.3756-4.3307-0.35665-4.076-2.1399-9.0181-3.5155-11.617-6.2159 1.5794-12.024 3.1079-16.762 4.9931-1.4776 0.6114-1.8851 1.1718-2.2418 3.1079-0.5095 2.7003-0.35665 6.2668 1.3247 9.5276-4.2798-0.76425-9.2729 0.56045-12.279 2.6494 0.9171-3.1589 0.3057-7.7444-0.9171-10.037-0.91709-1.6813-1.987-2.5984-3.7703-2.3946-7.4387 0.8152-17.017 1.2228-24.864 0.8152-3.6684 3.2608-3.7703 10.292-1.1209 18.291-0.56045 0.2038-1.3247 0.5095-2.0889 0.86615 8.6105 8.0501 21.857 11.515 40.505 7.9991" fill="#e73830"/>
  <path class="st2" d="m100.38 107.11c-7.4387 0.8152-17.017 1.2228-24.864 0.8152l-0.05095 0.051c-1.987 10.241 3.5155 21.297 14.419 20.686 11.056-0.56045 15.591-9.7824 13.145-20.737-0.66234-0.66235-1.5285-0.96805-2.6494-0.8152" fill="#fff100"/>
  <path class="st2" d="m134.93 99.271c-6.1649 1.5794-11.922 3.057-16.61 4.9931-0.8152 0.35665-1.2738 0.66235-1.6304 1.2228 0.4076 9.0691 3.9741 17.221 9.9352 16.202 6.6235-1.1718 10.394-10.547 8.3048-22.418" fill="#fff100"/>
  <path class="st0" d="m87.946 107.98c-0.9171 0.051-1.7832 0.051-2.7003 0.051-0.10191 3.1079 0.15284 5.9102 0.45855 8.2539 1.0256 0.32726 2.2078 0.65416 3.1589-0.56044-0.1019-2.2418-0.35665-4.8912-0.91709-7.7444" fill="#3e4e57"/>
  <path class="st1" d="m87.846 123.57c0.61139-0.051 1.1718-3.1589 1.019-7.7953-1.0699 0.2038-2.1399 0.35665-3.1589 0.56045 0.66234 4.4326 1.7323 7.2858 2.1399 7.2349" fill="#e73830"/>
  <path class="st0" d="m122.49 102.73c-0.8152 0.25475-1.6304 0.56044-2.3946 0.81519 0 2.5984 0.2038 5.2478 0.56045 7.5406 0.86615-0.15284 1.7832-0.35665 2.6494-0.5095-0.051-2.3946-0.25475-5.095-0.8152-7.8463" fill="#3e4e57"/>
  <path class="st1" d="m122.49 117.76c0.45855-0.051 0.9171-3.1079 0.86615-7.2349-0.86615 0.15283-1.7323 0.35664-2.6494 0.50949 0.56045 3.8722 1.4266 6.7763 1.7832 6.7254" fill="#e73830"/>
  <path class="st0" d="m112.56 123.87c0.2038 1.3756 4.076 0.66235 3.8212-0.66234-0.30569-1.3756-3.9741-0.45855-3.8212 0.66234" fill="#3e4e57"/>
  <path class="st3" d="m113.99 66.557c4.4836 0.86614 10.75 2.9041 14.724 4.8402 1.5285-9.9862-1.3247-23.845-3.5155-24.303-1.4775-0.3057-7.8463 7.8463-11.209 19.463" fill="#dcdbd6"/>
  <path class="st3" d="m83.516 71.041c-2.7003-5.9102-11.005-18.851-12.534-18.495-2.1908 0.5095-4.8402 20.176-4.1269 29.194 5.044-3.7703 11.668-7.8972 16.661-10.699" fill="#dcdbd6"/>
  <path class="st0" d="m72.356 127.03c-7.4387-7.3368-11.107-15.845-12.534-29.958-4.6364-2.9551-9.3748-4.5855-13.858-5.095-8.6105-7.7953-9.5276-19.819-4.1779-32.455 7.5915-17.883 6.114-33.015-6.8273-44.275-2.3946-6.2159-4.9931-10.801-7.9482-14.623-0.15286 3.2098-0.3057 4.7383-0.4076 7.2858-4.7383-1.8342-9.2219-3.057-14.164-3.6174 1.5285 3.6174 2.7513 6.4706 4.7383 9.5786-2.2927 1.6813-4.076 2.8022-6.3178 3.9231 2.7513 1.3247 5.1969 2.1399 7.8972 2.8022-0.9171 1.8851-1.5285 3.3627-2.0889 5.3497 3.2098-0.96805 6.7254-2.3437 9.4257-4.076 9.8333 2.6494 14.062 18.902 6.5725 34.799-5.4516 11.515-5.5535 25.679 2.3946 36.684-5.1969 1.987-9.171 6.063-11.617 11.617-2.2418 5.1969-5.2988 10.19-8.8653 13.4-6.9801 6.3178-10.699 14.419-11.973 23.845-3.7193 5.5026-1.9361 11.464 1.3756 12.585 3.8212 1.2738 8.6615-1.1718 9.6295-8.152 1.1209-3.2098 1.7323-5.4007 2.6494-8.0501 0.76425-2.1908 2.4965-4.2288 5.7064-5.1459 5.1459-1.4775 11.464-5.044 15.285-9.12 6.7254 3.1589 17.476 7.3368 24.099 7.9482 3.1079-1.7323 7.4896-3.7193 11.005-5.2478" fill="#3e4e57"/>
 </g>
 <g fill="#e73830" stroke-width=".5095">
  <path class="st1" d="m14.171 118.88c-2.1908 2.038-4.025 4.2798-5.5535 6.6744 0.56045 5.095 4.3817 9.6805 10.037 9.7314 0.86615-0.76425 1.987-1.3756 3.4136-1.7832 1.1209-0.30569 2.2927-0.76424 3.4646-1.2228-5.9102-0.4076-10.903-7.8463-11.362-13.4"/>
  <path class="st1" d="m13.713 146.55c0.76425-2.2418 1.2737-3.9741 1.8342-5.7064-4.1269 0.91709-9.12-2.5984-11.056-6.7254-0.86615 2.5475-1.4266 5.2478-1.8342 8.0501-0.05095 0.051-0.05095 0.10191-0.1019 0.15284 2.2418 2.6494 7.4387 5.1459 11.158 4.2288"/>
  <path class="st1" d="m30.322 132.03c-0.35665 1.6813-0.76425 3.3117-1.1718 4.7893 1.5285 2.7513 6.3178 4.025 10.292 2.8532 0.45855-1.987 0.9171-3.5665 1.2737-4.7893-3.4136 1.2228-8.6105-0.4076-10.394-2.8532"/>
 </g>
 <g stroke-width=".5095">
  <path class="st1" d="m37.302 124.38c-1.1209 1.2228-2.5475 2.3946-4.025 3.4646 1.9361 1.5285 5.9611 2.5984 9.4257 1.987 0.7133-0.8152 1.5794-1.4776 2.6494-1.987-2.9041-1.1718-5.7064-2.3946-8.0501-3.4646" fill="#ef2d38"/>
  <path class="st0" d="m109.45 158.57c-5.4516 1.9361-7.3368 6.7254-5.8592 10.037 1.1718 2.5475 5.1969 3.9231 11.464 1.7832 5.2478-1.7832 6.8782-5.8083 5.8592-8.8653-1.1209-3.2608-5.9611-4.8912-11.464-2.9551" fill="#3e4e57"/>
  <path class="st0" d="m140.73 143.39c-5.5535 2.6494-6.063 7.3877-4.9421 9.6295 1.7832 3.6174 7.5915 4.5855 13.451 0.6114 3.7193-2.5475 4.1779-5.5026 3.3117-7.4387-1.9361-3.9741-7.7953-4.6874-11.82-2.8022" fill="#3e4e57"/>
  <path class="st1" d="m126.98 132.33c-5.7573 0-11.668 5.5026-8.4577 11.718 1.4775 0.96805 3.006 1.8851 4.5855 2.8022-0.66235-5.2988 2.6494-10.037 9.0181-10.445-1.7832-1.3756-3.5155-2.7513-5.1459-4.076" fill="#e73830"/>
  <path class="st1" d="m135.79 153.02c-0.96805-1.9361-0.3057-8.0501 6.2668-10.139-1.8342-1.019-3.8212-2.2927-5.8083-3.6174-5.9611 0.8152-8.3048 7.2858-5.8083 11.413 1.8342 0.91709 3.6684 1.7323 5.4007 2.4456 0 0-0.051-0.051-0.051-0.10191" fill="#e73830"/>
  <path class="st0" d="m112 157.96c-5.3497-3.5665-11.871-13.196-17.374-21.756-3.3627-0.25475-5.8592-0.76424-8.2539-1.5285-1.9361 1.6813-5.1969 5.1459-6.5216 6.7254 4.9421 8.5086 15.947 20.686 23.743 27.054-1.3247-3.1079 0.2038-9.12 8.4067-10.496" fill="#3e4e57"/>
  <path class="st1" d="m112 157.96c-1.6813-1.1209-3.4646-2.8022-5.2988-4.8912-6.2668-1.2228-10.547 5.3497-8.6615 10.496 1.9361 1.8851 3.7703 3.5155 5.5026 4.9421-1.2738-3.1589 0.25475-9.171 8.4577-10.547" fill="#e73830"/>
  <path class="st1" d="m98.646 142.32c-6.8782-2.2418-12.075 1.5794-11.82 8.9162 1.5794 1.987 3.3117 3.9741 5.095 5.9102-1.1209-5.9102 4.6874-11.005 11.005-8.8143-1.4776-1.8852-2.9041-3.9231-4.2798-6.0121" fill="#e73830"/>
  <path class="st4" d="m82.346 115.67c0.35665 2.3946-0.15284 3.9741-1.019 4.1269-0.76424 0.10191-1.6813-1.5794-2.038-3.8212-0.35665-2.5475 0.35665-3.8212 1.1209-3.9231 0.76424-0.051 1.5794 1.3247 1.9361 3.6174" fill="#fff8b0"/>
  <path class="st5" d="m97.726 159.29c-1.9361-2.0889-3.7193-4.1269-5.5026-6.4197-0.45855 1.2228-0.56045 2.7513-0.4076 4.2798 2.038 2.2418 4.1269 4.3817 6.0121 6.1649-0.3057-1.5285-0.3057-2.9041-0.10191-4.025" fill="#28333a"/>
  <path class="st5" d="m95.336 137.38-0.76425-1.2228c-2.6494-0.25474-5.8592-0.71329-8.2539-1.5285-1.7323 1.5285-4.3817 4.2798-6.5216 6.7254 1.5285 2.9551 4.1269 6.4706 7.0311 10.037-0.10191-1.987 0.3057-3.9741 0.86615-5.2988-1.7832-4.8912 1.7832-9.5276 7.6425-8.7124" fill="#28333a"/>
  <path class="st6" d="m92.226 152.87c-1.07-1.3756-2.1908-2.8532-3.3117-4.4326-0.56045-0.76425-0.96804-1.5285-1.2228-2.2928-0.56045 1.3247-0.9171 3.3627-0.86615 5.2988 1.5794 1.9361 3.3117 3.8722 4.9931 5.7064-0.2038-1.5285-0.1019-3.057 0.4076-4.2798" fill="#c82e28"/>
  <path class="st6" d="m103.39 168.05c-0.25475-1.2738-0.25475-2.2927-0.10191-3.2608-2.0889-1.987-3.9231-3.7703-5.5535-5.5535-0.2038 1.1209-0.2038 2.4965 0.10191 4.025 2.2418 2.1908 4.1779 3.8722 5.5535 4.7893" fill="#c82e28"/>
 </g>
 <g fill="#28333a" stroke-width=".5095">
  <path class="st5" d="m103.29 164.79c1.3756 6.4706 17.476 4.5345 17.17-3.8212 2.0889 3.2098-0.25475 8.101-6.2159 9.7824-9.3748 2.6494-11.922-2.5475-10.954-5.9611"/>
  <path class="st5" d="m129.42 146.65c-1.2737-0.76424-2.5475-1.5794-3.8722-2.5475-0.8152-0.6114-1.4775-1.2737-1.987-2.038-0.5095 1.3756-0.7133 2.9551-0.56045 4.6874 2.4965 1.4266 4.9421 2.7513 7.133 3.8212-0.5095-1.3247-0.7133-2.8022-0.7133-3.9231"/>
  <path class="st5" d="m125.86 132.43c0.25475-0.15284 0.45855-0.25475 0.7133-0.35665-0.5095-0.45855-1.2228-1.1209-1.6814-1.5794-3.5155 2.4965-10.699 4.8912-17.119 5.2988 2.5984 2.5475 6.4197 5.4007 10.547 8.0501-2.0889-6.1649 1.8342-10.699 7.5406-11.413"/>
 </g>
 <g stroke-width=".5095">
  <path class="st6" d="m125.86 132.43c-5.7064 0.7133-9.6295 5.2478-7.5915 11.413 1.5285 1.019 3.1079 1.987 4.6874 2.9041-0.15284-1.6813 0.051-3.2608 0.56045-4.6874-2.2418-3.2608-1.3756-7.6425 2.3437-9.6295" fill="#c82e28"/>
  <path class="st6" d="m135.54 149.66c-2.1399-0.86615-4.076-1.8342-6.114-3.006 0 1.1209 0.2038 2.5984 0.7133 3.9231 2.1399 1.019 4.076 1.8342 5.6554 2.3437-0.45855-0.96805-0.45855-2.3437-0.25475-3.2608" fill="#c82e28"/>
  <path class="st5" d="m135.54 149.66c1.8851 6.8782 16.355 3.2098 16.966-3.5155 1.5285 3.3627-1.8851 7.6934-6.4197 9.12-9.2729 3.057-11.566-3.1079-10.547-5.6045" fill="#28333a"/>
 </g>
 <g fill="#c82e28" stroke-width=".5095">
  <path class="st6" d="m152.91 139.57c-1.8851-3.1589-13.451-12.279-20.584-17.068-0.91709-0.6114-1.6813-0.10191-1.4266 0.66235 5.2988 3.9231 18.495 13.756 22.01 16.406"/>
  <path class="st6" d="m87.586 133.56c15.794 2.9551 34.952 0.25475 43.409-10.343l0.96804 0.76424c-9.7824 14.317-37.142 13.604-45.804 10.75z"/>
  <path class="st6" d="m162.95 135.44c-3.057-2.3946-8.7634-4.4326-12.737-5.8083-0.86614-0.3057-1.4266 0.3057-1.019 1.1718 3.006 0.9171 10.292 3.2608 13.756 4.6364"/>
  <path class="st6" d="m161.47 121.38c-2.4456 0.7133-6.2159 1.7323-8.3048 2.1908-0.66235 0.15284-0.7133 0.86615-0.15284 1.3247 2.1399-0.56045 6.9801-2.3437 8.4577-3.5155"/>
 </g>
 <path class="st7" d="m67.516 67.678c1.4266-8.6105 6.7763-10.343 10.292-6.8782-2.4965-3.6174-5.7573-8.3558-6.7763-8.2539-1.3756 0.15284-3.1079 8.2029-3.5155 15.132" fill="#b4b4b0" stroke-width=".5095"/>
 <path class="st7" d="m119.13 54.38c3.2608-2.8532 8.8143-1.1718 9.7824 6.0121-0.25475-6.4706-2.3437-13.094-3.6684-13.196-1.2228-0.10191-4.6364 4.1779-6.114 7.1839" fill="#b4b4b0" stroke-width=".5095"/>
 <g fill="#28333a" stroke-width=".5095">
  <path class="st5" d="m87.896 58.405c-0.5095 3.7193-0.6114 8.3558-0.2038 11.26l-1.6304-2.8022c0.2038-3.2098 0.9171-7.082 1.8342-8.4577"/>
  <path class="st5" d="m106.04 56.622c0.61139 3.6174 0.81519 7.4896 0.61139 10.496-0.051 1.1718 0.7133 1.4775 1.2738 0.96805 0.35665-4.7383-0.66235-10.19-1.8851-11.464"/>
  <path class="st5" d="m61.554 109.51c0.45855 4.025 0.96805 7.5406 1.6813 11.005 1.019 4.8912-1.1209 6.9292-5.5535 6.6744-6.4197-0.35665-13.043-1.987-19.106-4.2288-0.35665 0.50949-0.66235 0.86614-1.1718 1.3247 5.044 2.4456 15.081 6.7254 23.845 8.101 2.9551-1.6813 7.9991-4.1269 11.209-5.3497-3.8722-3.1079-8.6105-10.954-10.903-17.527"/>
  <path class="st5" d="m13.662 146.7c-0.25475 9.3748-12.788 12.024-12.839 2.4965 2.3437 7.2349 10.75 2.8532 10.445-2.4456 0.6114 0.10191 1.4775 0.051 2.3946-0.051"/>
  <path class="st5" d="m14.426 137.07c-0.45855 1.3756-0.86615 2.5475-1.2737 3.8212 0.7133 0.10191 1.5285 0.10191 2.3946 0.051 0.4076-1.2228 0.76425-2.2927 1.019-2.9041 0.5095-1.1209 1.1718-2.038 1.9361-2.7513-1.0699-0.10191-2.038-0.3057-2.9041-0.56045-0.5095 0.66235-0.86615 1.4266-1.1718 2.3437"/>
  <path class="st5" d="m38.168 123.06c-4.4836 3.9231-9.6805 6.6235-15.794 8.2539 0.96805 0.5095 1.9361 0.86615 3.057 1.019 5.2988-2.1399 10.445-5.8592 12.737-9.2729"/>
 </g>
 <g stroke-width=".5095">
  <path class="st6" d="m11.267 146.65c0.86615 0.10191 1.7323 0 2.3946-0.1019 0.66235-1.8852 1.2737-3.9741 1.7832-5.6045-0.86615 0.051-1.6813 0.051-2.3946-0.051-0.45855 1.5285-1.019 3.2608-1.7832 5.7573" fill="#c82e28"/>
  <path class="st6" d="m20.591 131.77c-2.2927 0.5095-3.9231 1.3756-5.044 2.9551 0.86615 0.25475 1.7832 0.45855 2.9041 0.56045 0.9171-0.86615 2.038-1.4266 3.3627-1.7323 1.1718-0.3057 2.3946-0.71329 3.5665-1.1718-1.1209-0.15284-2.0889-0.5095-3.057-1.019-0.56045 0.10191-1.1209 0.25475-1.7323 0.4076" fill="#c82e28"/>
  <path class="st5" d="m33.226 127.95c-0.8152 0.61139-1.6813 1.1718-2.5475 1.7832-0.15284 0.86615-0.3057 1.6813-0.45855 2.4965 1.4775 1.5285 3.8212 2.5984 6.1649 2.9551 0.05095-0.3057 0.15284-0.6114 0.2038-0.96805 0.4076-2.038 3.2098-0.6114 4.6874-1.987 0.3057-0.66235 0.86615-1.5285 1.5794-2.3437-4.1779 0.5095-7.3877-0.5095-9.6295-1.9361" fill="#28333a"/>
  <path class="st5" d="m29.048 136.87c-0.10191 0.4076-0.25475 0.8152-0.35665 1.2228-1.2737 4.2288-0.6114 8.8653 2.1908 9.6295 2.9041 0.81519 5.7064-0.6114 7.3877-4.5855-2.3946 3.057-4.5345 1.2228-3.6684-1.5285 0.15286-0.5095 0.3057-1.019 0.45855-1.4775-2.2927-0.3057-4.5345-1.3756-6.0121-3.2608" fill="#28333a"/>
  <path class="st6" d="m37.251 124.38c-1.019 1.1209-2.4456 2.3437-4.025 3.5155 2.2418 1.4266 5.4516 2.4456 9.6295 1.8851 0.76425-0.9171 1.6813-1.6813 2.4965-1.987-3.1079-1.2228-6.063-2.4965-8.101-3.4136" fill="#c82e28"/>
  <path class="st6" d="m30.22 132.18c-0.3057 1.5794-0.7133 3.1079-1.1718 4.6874 1.4775 1.8342 3.6684 2.9551 6.063 3.2608 0.56045-1.7832 0.9171-3.1589 1.2737-4.9931-2.3437-0.35665-4.6874-1.3756-6.1649-2.9551" fill="#c82e28"/>
 </g>
 <g fill="#28333a" stroke-width=".5095">
  <path class="st5" d="m32.972 57.132c-5.7573 18.189 0.45855 29.908 5.8083 33.831 1.0699 0.76424 0.96804 1.6304-0.25475 1.8851-1.2228 0.25475-2.1908 0.56045-3.2608 1.07-7.2349-10.241-8.9162-24.609-2.2927-36.786"/>
  <path class="st5" d="m33.43 56.011c6.7763-17.119 1.6813-32.149-7.2858-34.136-3.1079 1.9361-6.6744 3.4136-9.4257 3.7703 3.057-1.3756 5.8083-3.1589 8.152-4.9421 0.56045-0.4076 0.7133-0.5095 1.3756-0.35665 11.005 2.038 15.794 19.87 7.1839 35.665"/>
  <path class="st5" d="m11.369 17.544c1.987 0.66235 5.4516 1.5794 7.4896 1.9361 0.56045 0.10191 0.6114 0.86615 0.3057 1.2737-2.2418-0.45855-6.4706-2.0889-7.7953-3.2098"/>
  <path class="st5" d="m12.846 4.195c1.2737 2.5984 3.5155 6.2668 4.9421 8.4067 0.45855 0.66235 0.3057 1.2737-0.35665 1.6813-1.9361-2.9041-4.3307-7.9991-4.5855-10.088"/>
  <path class="st5" d="m27.418 1.24c0.05095 1.987 0.15284 4.3817 0.3057 6.3178 0.05095 0.8152-0.56045 0.96805-1.2228 0.7133 0.15286-2.4456 0.5095-5.1969 0.9171-7.0311"/>
 </g>
 <g fill="#0f141b" stroke-width=".5095">
  <path class="st8" d="m114.34 123.01c-1.0699 0.2038-1.4266 0.56044-1.3756 0.76424 0.051 0.35665 0.5095 0.56045 1.6304 0.35665 1.019-0.2038 1.4266-0.56045 1.3756-0.91709-0.051-0.2038-0.4076-0.4076-1.6304-0.2038m-2.1908 0.91709c-0.1019-0.56045 0.4076-1.3247 1.987-1.6813 1.4776-0.35665 2.4965 0.10191 2.6494 0.86614 0.15284 0.76425-0.66234 1.5285-1.987 1.7832-1.5794 0.3057-2.5475-0.15284-2.6494-0.96805"/>
  <path class="st8" d="m107.67 61.259c5.2478-8.7634 15.743-19.463 18.189-19.055 2.8532 0.45855 8.8143 15.743 6.9292 29.958 7.9482 13.247 10.139 29.806 5.2478 42.594 8.2029 0 18.393 2.7003 24.099 6.5216 0.56045 0.4076 0.6114 0.66235-0.051 0.96805-2.2927 1.019-4.8912 1.9361-7.7444 2.7513 3.7703 3.057 6.8782 6.7254 8.8653 10.292 0.45854 0.86614 0.30569 1.1718-0.6114 0.81519-4.076-1.5794-7.7444-2.9551-12.177-4.3307 1.1718 2.5984 2.0889 5.1459 2.8532 7.9482 0.25474 0.9171 0 1.1209-0.8152 0.45855-6.5725-5.044-15.132-11.668-20.686-15.794-1.4266-1.0699-1.019-1.6304 0.4076-0.6114 5.7064 4.025 14.113 10.343 19.616 14.623-0.76424-2.6494-1.4266-4.4326-2.5984-7.133-0.3057-0.66234-0.15284-0.86614 0.6114-0.6114 4.6364 1.4266 8.3558 2.7513 11.871 4.076-1.987-3.1589-4.8912-6.4197-8.4067-9.3748-0.56045-0.45855-0.56045-0.76425 0.2038-0.96805 3.006-0.9171 5.1969-1.6813 7.3368-2.6494-5.6554-3.4646-15.743-6.114-23.335-5.8592-0.8152 0-1.019-0.35664-0.7133-1.0699 4.4326-12.534 2.8532-28.226-5.044-42.186-0.051-0.05095-0.051-0.15284-0.051-0.2038 1.8342-14.164-4.076-28.583-6.0121-28.889-1.7323-0.25475-12.279 10.037-17.731 19.463z"/>
  <path class="st8" d="m60.332 84.033c-2.1399 32.659 12.177 58.032 52.427 50.491 7.5915-1.4266 14.368-5.095 18.902-10.75l0.86615 0.66235c-4.6874 5.6554-11.056 9.5786-19.565 11.158-41.473 7.7444-56.605-18.597-53.701-51.612 0.86615-16.202 6.8782-37.091 10.445-37.55 2.2927-0.3057 13.502 13.349 17.578 21.807 1.0699 2.1908 0.4076 2.5475-0.7133 0.4076-4.6874-8.8143-15.285-21.297-16.762-21.042-2.3437 0.35665-8.5086 19.769-9.4767 36.429"/>
  <path class="st8" d="m85.656 66.15c0.051-2.9551 0.56044-5.7573 1.3247-7.9991 0.2038-0.66235 0.45855-0.76425 1.07-0.3057 3.5155 2.3946 6.5725 5.095 9.3238 7.9991 1.4775-4.4836 5.2988-8.101 8.4577-9.7824 0.66235-0.35665 0.91709-0.25475 1.1718 0.4076 1.2228 3.5155 1.5285 6.6235 1.2738 10.19-0.10191 1.8851-0.66235 1.8851-0.66235-0.05095-0.051-3.7193-0.35665-6.2159-1.5285-9.4767-3.1589 1.7323-6.6235 5.4007-8.0501 9.6805-0.2038 0.56045-0.45855 0.6114-0.86615 0.2038-2.7513-3.006-5.9102-5.7573-9.3748-8.101-0.8152 2.3946-1.2228 5.095-1.3247 8.6615z"/>
  <path class="st8" d="m125.19 47.604c-1.1718-0.2038-7.2858 7.5406-10.598 18.546 4.4326 0.9171 9.8333 2.6494 13.756 4.4836 1.2737-9.9862-1.5285-22.775-3.1589-23.029m3.1589 24.201c-3.8722-1.8342-9.9862-3.8212-14.368-4.6874-0.5095-0.10191-0.6114-0.25475-0.45855-0.76425 3.5155-11.871 9.9352-20.074 11.82-19.667 2.4965 0.5095 5.4516 14.47 3.8722 24.762-0.051 0.45855-0.35664 0.56045-0.86614 0.35665"/>
  <path class="st8" d="m71.082 53.005c-1.5285 0.35665-4.2288 17.934-3.7703 27.717 5.095-3.7703 11.056-7.3368 15.54-9.8843-2.8532-6.2159-10.75-18.087-11.769-17.832m-0.2038-0.96804c1.8851-0.4076 9.8333 12.228 12.992 18.546 0.25475 0.45855 0.2038 0.66235-0.2038 0.9171-4.9421 2.8022-11.413 6.8273-16.559 10.598-0.6114 0.45855-0.8152 0.3057-0.86615-0.45855-0.56045-8.7124 2.0889-29.041 4.6364-29.602"/>
  <path class="st8" d="m138.19 112.11c-0.10191-4.1269-1.987-9.4767-3.4136-12.228-6.0121 1.5285-11.566 2.9551-16.253 4.8402-1.2738 0.5095-1.7323 1.2737-2.038 2.7003-0.56045 3.006-0.051 6.3178 1.1718 9.0691 0.35665 0.8152 0.15284 0.96805-0.66235 0.86615-3.8212-0.56045-8.4067 0.5095-11.515 2.3946-0.8152 0.5095-1.07 0.3057-0.86615-0.56045 0.7133-3.1589 0.15284-7.4387-0.96804-9.4767-0.86615-1.6304-1.8342-2.2418-3.3117-2.038-8.152 0.86614-17.578 1.2228-24.711 0.81519-3.2098 3.1079-3.4646 9.5786-0.86615 17.629l-0.76425 0.3057c-3.006-8.5086-2.5475-15.642 1.019-18.851 0.2038-0.2038 0.35665-0.25475 0.7133-0.2038 7.082 0.35665 16.559 0.051 24.609-0.8152 1.9361-0.2038 3.1079 0.56045 4.2798 2.6494 1.1209 2.0889 1.8342 6.114 1.1718 9.3238 3.006-1.8342 7.133-2.7513 10.801-2.2927-1.2738-2.8532-1.5285-6.1649-0.96805-9.0181 0.35665-1.9361 0.86615-2.8022 2.5475-3.4646 4.6874-1.8851 10.649-3.5155 16.712-5.044 0.4076-0.10191 0.6114-0.051 0.8152 0.35665 1.3756 2.6494 2.9041 6.7763 3.3627 10.649z"/>
  <path class="st8" d="m103.64 108.49c2.4456 11.107-2.8532 20.074-13.807 20.635-11.005 0.56045-16.915-10.445-14.979-20.737l1.1209-0.50949c-1.9361 10.648 3.9231 20.737 13.858 20.227 10.699-0.56045 15.132-9.6805 12.534-20.635z"/>
  <path class="st8" d="m85.706 108.03c-0.2038 8.4067 1.7832 15.081 2.1908 15.03 0.45854-0.051 1.2737-6.7763-0.35665-15.132l1.019 0.051c1.7323 10.699 0.66235 15.998-0.61139 16.151-1.3247 0.15284-3.6174-6.8782-3.2608-15.998z"/>
  <path class="st8" d="m135.49 99.721c2.1399 12.381-2.1908 21.195-8.8653 22.367-5.6554 0.96805-9.8333-5.4516-10.394-15.794l0.96804-1.4266c0.4076 10.343 4.1269 17.068 9.2729 16.202 6.6235-1.0699 9.8843-10.75 7.8972-21.756z"/>
  <path class="st8" d="m122.49 118.27c-1.0699 0.25474-3.006-6.9801-2.9551-14.572l1.019-0.35665c-0.10191 6.4197 1.6304 13.909 1.8851 13.858 0.35665 0 0.96805-7.6425-0.35665-14.368l1.019-0.2038c1.3756 9.4257 0.6114 15.336-0.6114 15.642"/>
  <path class="st8" d="m59.873 97.741c-4.3817-2.8532-9.12-4.6364-13.705-5.1459-0.3057-0.051-0.4076-0.1019-0.6114-0.25475-8.2539-7.2858-9.8843-19.718-4.2288-33.015 7.8463-18.444 5.6045-33.015-6.6744-43.715-0.05095-0.05095-0.05095-0.1019-0.10191-0.15285-2.1399-5.4007-4.1779-9.5276-7.133-13.502-0.15286 2.1908-0.2038 3.3627-0.4076 5.8592-0.05095 0.56045-0.25475 0.6114-0.7133 0.45855-4.6364-1.7832-8.6615-2.8532-13.145-3.4646 1.4266 3.4136 2.5475 5.9102 4.2798 8.6615 0.25475 0.4076 0.25475 0.6114-0.1019 0.86615-2.0889 1.5285-3.4646 2.4965-5.2988 3.4646 2.2418 1.019 4.1269 1.7323 6.6744 2.3437 0.5095 0.10191 0.56045 0.35665 0.4076 0.76425-0.76425 1.6304-1.3247 2.8022-1.7832 4.4326 2.4965-0.76425 5.7573-2.038 8.3558-3.7193 0.35665-0.25475 0.45855-0.2038 0.8152-0.10191 10.139 3.006 14.113 19.565 6.6744 35.41-5.9611 12.585-4.7893 26.086 2.2418 36.022 0.4076 0.56045 0.3057 0.8152-0.2038 1.019-5.2478 2.1399-8.9672 6.114-11.209 11.311-2.4965 5.7573-5.7573 10.598-9.0181 13.502-6.6235 6.0121-10.496 13.705-11.922 23.539 0 0.051 0 0.10191-0.05095 0.15284-3.6174 5.2988-1.7832 10.954 1.1718 11.922 3.3627 1.1209 7.8972-0.9171 8.9672-7.4896 0.05095-0.2038 0.05095-0.35665 0.1019-0.56045 1.0699-3.057 1.6813-5.1969 2.5475-7.8972 0.86615-2.7003 2.5984-4.4836 6.063-5.5026 5.9611-1.6813 12.279-5.6554 15.794-9.5276 1.3247-1.4266 1.7832-1.07 0.56045 0.5095-3.3627 4.2798-10.241 8.5086-16.049 10.19-3.4646 0.96804-4.8402 3.057-5.3497 4.6874-0.86615 2.5984-1.5285 4.6364-2.7003 8.0501-1.1209 8.0501-6.7763 9.6295-10.292 8.4577-3.6174-1.2228-5.6045-7.5915-1.6813-13.247 1.3247-9.9352 5.4516-18.036 12.075-24.048 3.4646-3.1589 6.1649-7.3877 8.7124-13.247 2.3946-5.5535 6.1649-9.6295 11.209-11.718-6.2668-9.0691-8.4067-22.775-1.9361-36.531 7.2349-15.336 3.3627-31.283-6.063-34.034-2.8532 1.7832-6.2159 3.057-9.12 3.9741-0.9171 0.3057-1.0699 0.10191-0.8152-0.66235 0.45855-1.6813 1.1209-3.2608 1.8851-4.7893-2.4965-0.6114-4.9421-1.4775-7.2349-2.4965-0.96804-0.4076-0.96804-0.7133-0.05095-1.1718 1.8851-0.9171 3.6684-1.9361 5.7573-3.4646-1.7832-2.8532-2.9551-5.5026-4.4836-9.12-0.3057-0.7133-0.2038-0.86615 0.6114-0.76425 4.4326 0.56045 8.7634 1.6304 13.451 3.4136 0.05095-1.9361 0.10191-3.5665 0.3057-6.3687 0.10191-1.3247 0.4076-1.3247 1.1209-0.3057 3.006 4.076 5.6554 8.9162 7.7444 14.368 12.483 10.903 14.826 26.035 6.8782 44.734-5.4516 12.839-4.1269 24.354 3.7703 31.691 4.5345 0.50949 9.3238 2.2927 13.756 5.044z"/>
  <path class="st8" d="m14.528 118.47c0.5095 6.114 6.0121 13.502 11.82 13.349l-1.6304 0.7133c-5.2988-0.5095-10.547-7.8972-10.954-13.349z"/>
  <path class="st8" d="m8.923 125.05c0.45855 5.5026 4.7893 9.9352 10.139 9.7824l-0.9171 0.8152c-5.1969-0.15285-9.2219-4.3817-9.8843-9.5786z"/>
  <path class="st8" d="m4.694 133.61c1.8342 4.1269 6.9292 7.8972 11.056 6.7763l-0.3057 0.91709c-4.1269 0.8152-9.0181-2.5475-11.107-6.6235z"/>
  <path class="st8" d="m2.707 141.91c2.0889 2.5984 7.4387 5.1969 11.107 4.2288l-0.2038 0.86615c-3.7193 0.76425-8.9672-1.5794-11.26-4.2798z"/>
  <path class="st8" d="m2.605 153.88c1.1209 0 2.3437-1.2228 2.9041-2.7003 0.5095-1.2737 1.019-1.0699 0.6114 0.2038-0.45855 1.5285-1.4775 2.8532-2.7513 3.1589z"/>
  <path class="st8" d="m6.427 155.11c1.0699-0.5095 2.038-1.6814 2.4456-3.006 0.4076-1.4266 0.9171-1.2737 0.66235 0.15284-0.2038 1.07-0.66235 1.987-1.3756 2.6494z"/>
  <path class="st8" d="m46.015 128.05c-2.2927 0.96805-3.6174 2.3946-4.1779 4.3817-0.4076 1.3756-1.0699 3.7193-2.038 7.4896-1.7832 7.2858-5.6554 9.0691-8.7634 8.2539-3.3627-0.86615-4.3307-4.8402-2.6494-10.445 0.66235-2.1908 1.3756-5.1969 1.7832-7.7953l1.2228-0.76425c-0.45855 3.057-1.4266 6.6235-2.0889 8.8143-1.6304 5.4516-0.56045 8.6615 1.987 9.3238 2.8532 0.76425 6.063-1.1209 7.5915-7.5915 0.9171-3.7193 1.5794-6.114 1.987-7.5406 0.5095-1.8342 1.8851-3.5665 3.9231-4.6364z"/>
  <path class="st8" d="m29.558 146.96c0.7133-0.35665 1.2228-0.9171 1.6304-1.5794 0.6114-1.019 1.0699-0.76425 0.6114 0.3057-0.3057 0.71329-0.8152 1.3247-1.4266 1.7323z"/>
  <path class="st8" d="m31.953 147.87c0.9171-0.56045 1.6304-1.1718 2.1399-1.9361 0.8152-1.1209 1.2737-0.81519 0.56045 0.35665-0.4076 0.6114-0.8152 1.1209-1.4266 1.6304z"/>
  <path class="st8" d="m39.34 140.13c-3.8722 1.0699-8.6105-0.051-10.343-2.7513l0.3057-1.1209c1.3756 2.9041 6.1649 4.2288 10.241 3.006z"/>
  <path class="st8" d="m40.512 135.34c-3.4646 1.1209-8.4577-0.5095-10.292-2.7513l0.2038-1.019c1.5794 2.4456 6.9801 4.2288 10.343 2.8532z"/>
  <path class="st8" d="m42.346 130.24c-3.006 0.45855-7.133-0.25475-9.3748-2.1399l0.6114-0.5095c1.987 1.4775 6.114 2.4965 9.4767 1.7323z"/>
  <path class="st8" d="m37.71 123.98c6.5216 3.057 17.934 7.4387 24.507 7.8972l-1.4266 0.9171c-6.2159-0.6114-17.374-4.8402-23.895-7.9482z"/>
  <path class="st8" d="m103.95 169.27c-8.6615-6.7763-20.023-19.667-24.405-27.36l0.6114-0.8152c4.9931 8.5596 15.642 20.38 23.131 26.596z"/>
  <path class="st8" d="m109.6 159.08c-5.3497 1.8852-6.8273 6.5216-5.5535 9.2729 1.07 2.2927 4.9421 3.6174 10.852 1.5794 5.1969-1.7832 6.3687-5.7064 5.5026-8.3048-0.9171-2.5984-5.095-4.5855-10.801-2.5475m-6.4706 9.7314c-1.5285-3.4136 0.15284-8.6105 6.114-10.699 5.4516-1.9361 10.801-0.5095 12.075 3.2098 1.2228 3.5665-0.86615 7.6934-6.1649 9.5276-5.8592 2.038-10.598 1.0699-12.024-2.038"/>
  <path class="st8" d="m112.81 171.05c0.45855-1.7323-0.76425-3.5665-1.8851-4.3817-1.2738-0.86614-0.96805-1.3247 0.40759-0.56045 1.6304 0.96805 2.7513 3.1079 2.4456 4.6874z"/>
  <path class="st8" d="m117.91 168.91c0.7133-2.038 0.15284-4.076-0.86615-5.6045-0.86614-1.2228-0.4076-1.5285 0.5095-0.4076 1.1209 1.3247 1.7832 3.3117 1.3756 5.2988z"/>
  <path class="st8" d="m111.39 158.06c-5.2988-3.7193-11.668-12.992-17.425-21.959l1.1718 0.051c5.7573 8.9672 12.177 18.291 17.374 21.603z"/>
  <path class="st8" d="m98.956 142.88c-7.133-2.5475-12.177 1.5285-11.769 8.9162l-0.8152-1.019c-0.1019-7.4387 5.5535-10.903 11.922-8.9162z"/>
  <path class="st8" d="m103.18 148.84c-6.6235-2.4965-12.126 2.9041-10.852 8.7634l-0.96805-0.96805c-0.96804-5.8083 4.9931-10.801 11.056-8.9162z"/>
  <path class="st8" d="m107.06 153.53c-6.4706-1.5794-10.75 5.5535-8.3558 10.547l-1.2228-1.1209c-1.4776-5.1969 2.8532-11.311 8.8143-10.394z"/>
  <path class="st8" d="m140.94 143.9c-5.2988 2.5475-5.6554 7.0311-4.7383 8.9162 1.6813 3.3627 7.133 4.2288 12.737 0.4076 3.4646-2.3437 3.9231-4.9931 3.057-6.8273-1.5285-3.3117-6.8273-4.5345-11.056-2.4965m-5.6045 9.3748c-1.3756-2.7003-0.35665-7.6425 5.1459-10.292 4.1269-1.987 10.394-1.2738 12.432 3.057 1.019 2.089 0.56045 5.2988-3.4646 8.0501-5.9102 3.9741-12.126 3.1589-14.113-0.81519"/>
  <path class="st8" d="m145.88 155.36c0.15284-2.0889-0.7133-3.6174-2.0889-4.6874-1.2738-0.96805-0.96805-1.3756 0.4076-0.56045 1.7323 1.0699 2.6494 2.9551 2.5984 4.8402z"/>
  <path class="st8" d="m150.52 152.51c0.25475-2.2418-0.3057-3.8722-1.8851-5.095-1.3756-1.07-1.07-1.4776 0.35665-0.56045 1.4266 0.96805 2.4456 2.3437 2.3946 4.8912z"/>
  <path class="st8" d="m136.15 153.73c-10.649-4.2798-22.673-11.668-29.143-17.832l1.2738-0.15284c6.2159 5.8083 17.425 12.737 27.309 16.864z"/>
  <path class="st8" d="m125.25 130.19c5.1969 4.6364 11.82 9.4257 17.323 12.534l-1.1209 0.4076c-5.4007-3.057-11.973-7.7953-17.017-12.33z"/>
  <path class="st8" d="m127.44 132.69c-5.8592-0.2038-11.922 5.4007-8.2539 11.718l-1.2738-0.76425c-2.8022-6.0121 2.8532-11.464 8.6105-11.668z"/>
  <path class="st8" d="m132.53 136.71c-6.3178 0.2038-9.7824 4.9421-9.0181 10.343l-0.86615-0.5095c-0.6114-5.7064 3.1589-10.037 8.9672-10.547z"/>
  <path class="st8" d="m136.71 139.62c-6.2159 0.56045-8.5086 7.4387-5.6045 11.413l-1.2738-0.56045c-2.3437-4.1779 0.051-10.547 5.9102-11.566z"/>
  <path class="st8" d="m105.12 100.79c2.3437 6.4197 4.9931 9.8843 5.4516 9.7824 0.56045-0.1019 2.4456-3.8212 2.3437-10.903 0-0.45854 0.051-0.56045 0.6114-0.66234 13.96-2.3946 20.788-5.5026 20.686-6.114-0.15284-0.8152-8.4577-3.057-21.756-1.7832-0.45855 0.051-0.56045-0.10191-0.7133-0.5095-0.4076-1.6304-0.86614-3.3627-1.3756-4.8402-0.15284-0.45855-0.051-0.66235 0.4076-0.76425 8.7634-2.038 13.756-4.5345 13.604-4.9931-0.15284-0.45855-6.3687-1.6304-16.355-0.56045-0.4076 0.05095-0.5095 0-0.7133-0.35665-2.8022-4.6874-5.6045-6.8273-6.5725-6.5216-0.5095 0.15284-0.66235 3.6174-0.25475 7.4896 0.051 0.5095-0.051 0.6114-0.56045 0.7133-10.292 2.2418-17.017 5.5026-16.915 6.114 0.051 0.4076 5.8083 1.3756 17.781-0.15284 0.45854-0.051 0.61139 0.051 0.71329 0.56045 0.25475 1.4776 0.6114 3.1589 0.96805 4.6364 0.10191 0.45855 0 0.66235-0.45855 0.7133-15.54 2.8532-26.698 6.4706-26.647 7.2349 0.05095 0.40761 9.171 2.4966 28.939 0.40761 0.5095 0.051 0.66235 0.1019 0.8152 0.50949m5.6045 11.107c-1.2228 0.15284-4.5345-4.6874-6.5725-10.394-17.629 1.987-29.958 0.2038-30.06-1.4266-0.10191-1.7323 13.807-5.8592 27.309-8.3048-0.35664-1.4775-0.56044-2.4965-0.81519-3.9741-10.139 1.3247-18.648 0.86615-18.8-0.7133-0.2038-1.6813 9.8843-5.6554 17.578-7.2349-0.4076-3.7703-0.25475-8.152 1.019-8.4577 1.3756-0.35665 4.9421 2.038 7.7444 6.9801 9.6295-1.1209 17.374 0.2038 17.629 1.3756 0.35665 1.4266-6.7763 4.4836-14.215 6.1649 0.50949 1.4775 0.76424 2.5475 1.1209 4.1779 13.247-1.3756 22.52 1.1209 22.826 2.7003 0.35665 1.6813-9.3238 5.2988-21.501 7.3877 0.20379 6.9292-2.1399 11.566-3.2608 11.718"/>
 </g>
 <path class="st1" d="m87.386 133.66c-6.114 5.2478-13.043 14.164-21.042 26.494-0.35665-3.6174-0.56045-6.7763-0.66235-10.547-3.9741 2.3437-8.3558 4.6364-12.585 6.6744 0.7133-3.9741 3.2098-9.0691 6.1649-13.96-4.4326-0.45855-7.7953-0.7133-11.566-1.019 6.4706-5.1969 16.712-11.311 27.768-15.489 2.2927-0.81519 14.317 5.8083 11.922 7.8463" fill="#e73830" stroke-width=".5095"/>
 <g fill="#c82e28" stroke-width=".5095">
  <path class="st6" d="m47.747 141.15c2.5475-0.66234 8.2029-0.35664 11.362 0 0.7133 0.10191 0.86615 0.66235 0.5095 1.3247-3.2608-0.5095-7.9482-0.9171-11.871-1.3247"/>
  <path class="st6" d="m53.148 155.77c3.6684-2.089 7.2349-4.3307 11.413-6.9801 0.76425-0.50949 1.4775-0.15286 1.5285 0.86615-2.7513 1.3756-11.209 5.8083-12.941 6.114"/>
  <path class="st6" d="m66.344 159.59c2.9041-8.3558 13.756-21.756 20.431-27.207 0.96805-0.8152 1.8342-0.3057 1.7832 0.35665-6.5725 5.4516-17.476 19.514-22.214 26.851"/>
 </g>
 <path class="st8" d="m65.834 160.05c-0.35665-3.6174-0.5095-6.7254-0.56045-9.6805-3.2608 1.8851-6.6235 3.7703-11.769 6.3178-0.8152 0.4076-1.019 0.2038-0.86614-0.56045 0.76425-3.6174 2.8532-8.2539 5.9102-13.349-3.7703-0.45855-6.2159-0.56045-10.801-0.86615-0.96805-0.051-1.019-0.35665-0.25475-0.96804 7.3368-5.9611 17.629-11.718 27.819-15.387 1.7832-0.66235 2.038 0 0.25475 0.71329-9.7824 3.8722-19.463 9.4257-26.647 14.775 3.5665 0.2038 5.9102 0.45855 10.19 0.96805 0.56045 0.051 0.66235 0.25475 0.4076 0.76425-3.006 5.2478-4.9931 9.5276-5.8083 12.788 4.5855-2.2418 7.8463-3.9231 11.515-6.114 0.6114-0.35665 0.76425-0.3057 0.8152 0.45855 0.15284 3.4136 0.3057 5.8592 0.66235 8.8143 7.6425-12.024 14.164-20.023 20.38-25.22 1.4775-1.2228 1.8851-0.76424 0.45855 0.56045-5.8592 5.4516-12.534 13.858-20.737 26.341-0.45855 0.7133-0.86615 0.6114-0.96805-0.35665" fill="#0f141b" stroke-width=".5095"/>
 <path class="st8" d="m111.69 131.21c0.86615-1.5285 2.089-3.1589 2.6494-3.2098 0.5095-0.051 1.07 0.96804 1.4266 1.987 0.35665 1.019-0.2038 1.2228-0.6114 0.2038-0.25475-0.7133-0.6114-1.2228-0.7133-1.2228-0.2038 0-1.1718 1.2228-2.0889 2.5475-0.6114 0.8152-1.1209 0.56045-0.66235-0.3057" fill="#0f141b" stroke-width=".5095"/>
</svg>
