<?xml version="1.0" encoding="UTF-8"?>
<!-- Created with Inkscape (http://www.inkscape.org/) -->
<svg version="1.1" viewBox="0 0 291.51 374.48" xmlns="http://www.w3.org/2000/svg" xmlns:cc="http://creativecommons.org/ns#" xmlns:dc="http://purl.org/dc/elements/1.1/" xmlns:rdf="http://www.w3.org/1999/02/22-rdf-syntax-ns#">
 <metadata>
  <rdf:RDF>
   <cc:Work rdf:about="">
    <dc:format>image/svg+xml</dc:format>
    <dc:type rdf:resource="http://purl.org/dc/dcmitype/StillImage"/>
   </cc:Work>
  </rdf:RDF>
 </metadata>
 <g transform="translate(89.311 -378.93)">
  <g transform="matrix(5.4341 0 0 -5.4341 150.64 524)">
   <path d="m0 0c1e-3 0.133 2e-3 0.266-2e-3 0.397-0.119 4.05-1.931 8.369-3.924 10.411l-10.971 3.259c-6.572-2.373-11.916-8.868-11.666-15.053-2.833-2.095-5.668-5.843-3.529-7.971 1.407-1.399 3.807-0.392 5.41 1.896 2.734-4.2 7.932-6.132 12.275-5.958 5.01 0.2 8.838 3.243 10.845 7.034 1.466-0.631 3.305-0.193 3.837 0.927 0.794 1.67-0.38 4.132-2.275 5.058" fill="#0c5fac"/>
  </g>
  <g transform="matrix(5.4341 0 0 -5.4341 87.218 380.74)">
   <path d="m0 0c2.115 0.085 3.824-1.206 3.925-3.737 0.071-1.764-1.731-3.659-3.559-3.733-2.554-0.102-3.844 1.689-3.92 3.586-0.079 1.988 1.681 3.809 3.554 3.884" fill="#ec86ad"/>
  </g>
  <g transform="matrix(5.4341 0 0 -5.4341 103.09 415.79)">
   <path d="m0 0c1.241-1.288 4.867-7.162 5.324-12.151 0.3-3.274-0.478-6.188-3.445-6.593-5.926-0.81-10.486 8.176-8.471 11.596 0.97 1.646 1.858 4.618 1.839 6.603 1.082-0.448 3.044-1.079 4.753 0.545" fill="#fff"/>
  </g>
  <g transform="matrix(5.4341 0 0 -5.4341 32.451 504.19)">
   <path d="m0 0c0.459-1.774 2.019-4.065 4.088-3.471 1.87 0.536 1.805 3.736 1.43 5.225-0.549 2.184-2.227 4.743-3.824 4.238-2.077-0.656-2.216-3.975-1.694-5.992" fill="#fff"/>
  </g>
  <g transform="matrix(5.4341 0 0 -5.4341 40.494 491.2)">
   <path d="m0 0c0.436-1.579 1.619-2.893 2.458-2.633 0.791 0.245 0.98 2.295 0.573 3.532-0.623 1.895-1.602 2.95-2.499 2.61-0.883-0.334-0.937-2.041-0.532-3.509" fill="#3e3b3a"/>
  </g>
  <g transform="matrix(5.4341 0 0 -5.4341 41.737 481.57)">
   <path d="M 0,0 C 0.151,-0.624 0.601,-0.948 1.081,-0.829 1.619,-0.695 1.826,-0.098 1.65,0.46 1.449,1.095 0.881,1.551 0.459,1.422 0.101,1.313 -0.139,0.573 0,0" fill="#fff"/>
  </g>
  <g transform="matrix(5.4341 0 0 -5.4341 76.702 393.15)">
   <path d="m0 0c0.107-0.375 0.579-0.637 1.242-0.422 0.687 0.223 0.804 0.721 0.677 1.076-0.133 0.372-0.68 0.48-1.134 0.332-0.453-0.148-0.895-0.601-0.785-0.986" fill="#f6c9da"/>
  </g>
  <g transform="matrix(5.4341 0 0 -5.4341 120.64 499.76)">
   <path d="m0 0c0.705 1.595 0.661 4.018-0.162 6.195-1.186-0.741-3.648-0.69-5.24-0.075-0.59-1.623-0.603-3.298-0.223-4.685 1.719 1.121 4.283 0.638 5.625-1.435" fill="#92331e"/>
  </g>
  <g transform="matrix(5.4341 0 0 -5.4341 108.11 509.34)">
   <path d="m0 0c1.079 0.043 1.849 0.73 2.306 1.763-1.342 2.073-3.906 2.557-5.625 1.436 0.52-1.901 1.78-3.26 3.319-3.199" fill="#ec8599"/>
  </g>
  <g transform="matrix(5.4341 0 0 -5.4341 184.18 697.02)">
   <path d="m0 0c-6.045 3.963-9.764 7.957-11.167 14.748l-3.446 0.145-0.016-0.63-14.096 2.378c-0.75-1.72-3.333-4.33-5.729-6.16-2.454 0.801-6.275-0.686-4.837-2.31-1.25 0.421-3.42 0.965-5.422 0.821-2.84-0.205-5.285-1.325-5.355-2.745-0.09-1.826 2.914-2.818 5.798-2.648 2.229 0.131 4.849 0.947 6.296 2.76 1.829-1.387 4.14-2.716 6.837-3.656-0.505-0.925-1.032-1.792-1.582-2.594-3.72-5.424-1.833-8.904 2.309-9.851 4.63-1.059 8.787 0.972 9.463 6.502 0.206 1.679 0.301 3.451 0.32 5.204 2.502 0.786 4.659 2.408 6.052 4.838 1.189-5.8 4.936-11.901 7.913-13.57 2.821-1.583 5.951-2.041 8.29-0.428 2.557 1.762 0.912 5.531-1.628 7.196" fill="#0c5fac"/>
  </g>
  <g transform="matrix(5.4341 0 0 -5.4341 126.78 632.24)">
   <path d="m0 0c-1.01 0.236-2.767-2.109-2.673-5.627 0.07-2.662 4.637-11.856 9.554-12.858 3.062-0.624 6.595 0.781 6.01 3.48 2.049-2.968-1.539-6.074-6.23-4.912-6.237 1.544-10.358 11.421-10.493 14.796 0.513 0.986 1.579 3.651 1.446 6.13l2.079 0.635z" fill="#015295"/>
  </g>
  <g transform="matrix(5.4341 0 0 -5.4341 -4.1763 723.71)">
   <path d="m0 0c0.015-1.242 2.232-3.168 5.709-3.36 3.631-0.199 6.256 0.94 7.761 3.864-1.309-4.365-4.138-6.1-7.675-5.655-3.286 0.414-6.13 2.308-5.795 5.151" fill="#015295"/>
  </g>
  <g transform="matrix(5.4341 0 0 -5.4341 -28.2 657.37)">
   <path d="m0 0c2.205-2.053 4.973-3.679 7.879-4.693l0.805 1.471c-2.687 0.451-5.612 1.484-8.684 3.222" fill="#015295"/>
  </g>
  <g transform="matrix(5.4341 0 0 -5.4341 119.83 582.7)">
   <path d="m0 0c3.077-0.695 7.847-4.408 7.207-5.232-0.355-0.459-3.304 0.666-4.603 0.047-1.035-0.493-0.457-1.84-2.273-2.528-3.145-1.192-5.034 0.85-6.842 0.882-2.079 0.038-4.091-1.473-6.925-0.718-2.4 0.64-3.092 2.713-4.435 3.206-1.199 0.439-6.719-0.626-6.998 0.561-0.22 0.94 5.001 3.942 8.743 4.407 5.28-3.709 11.57-3.739 16.126-0.625" fill="#bce1e8"/>
  </g>
  <g transform="matrix(5.4341 0 0 -5.4341 46.768 747.19)">
   <path d="m0 0c-0.524 1.093 0.063 5.392 0.247 6.462 0.185 1.07-1.06 1.223-1.344 0.098-0.241-0.954-1.05-5.381-0.399-7.1 0.504-9e-3 1.038 0.173 1.496 0.54" fill="#fff"/>
  </g>
  <g transform="matrix(5.4341 0 0 -5.4341 17.107 748.1)">
   <path d="m0 0c-1.049 2.184 0.229 6.218 0.368 6.619 0.25 0.718-0.651 1.187-1.094 0.158-0.533-1.236-1.252-4.756-0.686-6.277 0.096-0.209 0.8-0.56 1.412-0.5" fill="#fff"/>
  </g>
  <g transform="matrix(5.4341 0 0 -5.4341 174.09 740.59)">
   <path d="m0 0c0.889 1.806-1.872 5.694-2.139 6.037-0.537 0.693-1.547 0.611-1.026-0.294 0.299-0.519 2.82-4.72 2.023-5.662 0.103-0.135 0.853-0.201 1.142-0.081" fill="#fff"/>
  </g>
  <g transform="matrix(5.4341 0 0 -5.4341 197.67 728.38)">
   <path d="m0 0c-2e-3 1.948-2.165 4.164-3.233 4.931s-1.265 0.069-0.739-0.441c1.192-1.155 3.615-3.4 3.085-5.715 0.321 0.08 0.811 0.728 0.887 1.225" fill="#fff"/>
  </g>
  <g transform="matrix(5.4341 0 0 -5.4341 8.8041 595.41)">
   <path d="M 0,0 C 0.167,-0.373 0.984,-0.186 1.518,0.01 2.291,0.294 2.777,0.794 2.612,1.116 2.447,1.439 1.665,1.382 1.092,1.157 0.52,0.932 -0.209,0.467 0,0" fill="#dff0f4"/>
  </g>
  <g transform="matrix(5.4341 0 0 -5.4341 122.98 596.9)">
   <path d="m0 0c-0.138-0.334 0.499-0.837 1.206-1.065 0.769-0.247 1.315-0.213 1.438 0.108 0.138 0.36-0.769 0.88-1.179 1.016-0.41 0.135-1.294 0.355-1.465-0.059" fill="#dff0f4"/>
  </g>
  <g transform="matrix(5.4341 0 0 -5.4341 80.828 594.86)">
   <path d="m0 0c4.158 0.087 10.354 3.023 12.464 9.799-3.424-7.462-18.913-7.885-22.622 1.321 7e-3 -1.778-0.898-4.242-1.677-5.142 0.956-1.755 6.107-6.098 11.835-5.978" fill="#015295"/>
  </g>
  <g transform="matrix(5.4341 0 0 -5.4341 147.27 547.4)">
   <path d="m0 0c0.327-0.476 2.115-1.238 3.181-0.235-0.26-1.225-2.006-2.418-4.003-1.411z" fill="#015295"/>
  </g>
  <g transform="matrix(5.4341 0 0 -5.4341 25.517 534.05)">
   <path d="m0 0c-1.019-5.02-6.318-7.785-7.729-5.863 1.567-4.676 7.575-0.269 7.729 5.863" fill="#015295"/>
  </g>
  <g transform="matrix(5.4341 0 0 -5.4341 68.652 406.77)">
   <path d="m0 0c0.272-1.047 2.825-1.635 4.189-1.213 1.363 0.423 2.913 1.911 2.739 3.974 1.451-2.932-0.9-5.096-2.545-5.392-1.644-0.296-4.067 0.481-4.383 2.631" fill="#cd7497"/>
  </g>
  <g transform="matrix(5.4341 0 0 -5.4341 115.65 494.38)">
   <path d="m0 0c-1.358 0.59-3.277 0.283-3.996-1.31l-0.711 1.756c2.016 1.286 4.128 0.221 4.707-0.446" fill="#d07487"/>
  </g>
  <g transform="matrix(5.4341 0 0 -5.4341 26.712 580.3)">
   <path d="m 0,0 c 1.207,-1.787 4.376,-4.762 11.084,-4.263 3.999,0.297 6.77,2.596 7.267,3.385 -0.303,0.212 -1.336,0.465 -1.336,0.465 C 13.012,-3.67 5.569,-3.309 1.01,0.184 0.709,0.141 0,0 0,0" fill="#a3c3c9"/>
  </g>
  <g transform="matrix(5.4341 0 0 -5.4341 -87.681 660.87)">
   <path d="m0 0c0.352-1.95 7.682-2.807 11.308 0.21l0.642-0.526c-3.079-4.091-12.624-3.541-11.95 0.316" fill="#015295"/>
  </g>
  <g transform="matrix(5.4341 0 0 -5.4341 36.808 625.1)">
   <path d="m0 0c0.826-1.355 3.845-1.745 5.836-0.738l-0.155 1.094c-2.153-0.722-4.267-0.47-5.41 0.681z" fill="#015295"/>
  </g>
  <g transform="matrix(5.4341 0 0 -5.4341 101.76 625.36)">
   <path d="m0 0c-1e-3 -7e-3 -3e-3 -0.014-4e-3 -0.021-1.138 0.375-2.39 1.055-3.304 1.011-1.271-0.061-2.355-0.336-3.061-0.575l0.451-2.549c1.777 0.918 3.139 1.599 4.623 0.882 0.584-0.282 0.8-0.858 0.496-1.673-0.858-2.299-2.47-4-4.7-4.903l0.022-3.361c4.145 1.242 7.324 4.622 7.835 10.904z" fill="#015295"/>
  </g>
  <g transform="matrix(5.4341 0 0 -5.4341 38.636 750.13)">
   <path d="m0 0c0.504-9e-3 1.039 0.174 1.496 0.54-0.127 0.266-0.188 0.722-0.206 1.273-0.483-0.132-0.991-0.228-1.531-0.28 0.02-0.603 0.092-1.139 0.241-1.533" fill="#dbdddc"/>
  </g>
  <g transform="matrix(5.4341 0 0 -5.4341 9.4344 745.38)">
   <path d="m0 0c0.096-0.21 0.8-0.561 1.412-0.5-0.212 0.441-0.328 0.958-0.378 1.505-0.451 0.136-0.866 0.3-1.24 0.485 1e-3 -0.58 0.061-1.101 0.206-1.49" fill="#dbdddc"/>
  </g>
  <g transform="matrix(5.4341 0 0 -5.4341 167.89 740.15)">
   <path d="M 0,0 C 0.103,-0.135 0.853,-0.2 1.142,-0.081 1.324,0.29 1.351,0.748 1.28,1.245 0.874,1.218 0.46,1.225 0.048,1.266 0.189,0.706 0.206,0.244 0,0" fill="#dbdddc"/>
  </g>
  <g transform="matrix(5.4341 0 0 -5.4341 192.84 735.03)">
   <path d="m0 0c0.321 0.08 0.812 0.728 0.887 1.225 0 0.406-0.099 0.824-0.258 1.239-0.143-0.355-0.372-0.67-0.667-0.943 0.127-0.496 0.156-1.007 0.038-1.521" fill="#dbdddc"/>
  </g>
  <g transform="matrix(5.4341 0 0 -5.4341 87.562 382.65)">
   <path d="m0 0c-1.758-0.07-3.408-1.632-3.333-3.532 0.072-1.791 1.409-3.417 3.625-3.328 1.849 0.073 3.346 1.713 3.276 3.459-0.078 1.947-1.409 3.487-3.568 3.401m0.313-7.376c-1.927-0.077-4.125 1.347-4.224 3.821-0.089 2.226 1.765 4.153 3.849 4.236 2.343 0.094 4.12-1.644 4.217-4.059 0.082-2.061-1.594-3.908-3.842-3.998" fill="#0f141b"/>
  </g>
  <g transform="matrix(5.4341 0 0 -5.4341 66.159 454.04)">
   <path d="m0 0c0.907 1.539 1.818 4.493 1.849 6.487 3e-3 0.143 0.463-0.039 0.464-0.181 0.021-2.138-0.99-4.971-1.919-6.549-1.82-3.088 2.501-12.032 8.255-11.247 3.266 0.446 3.383 4.182 3.185 6.349-0.438 4.788-3.887 10.634-5.217 12.015-0.099 0.103 0.287 0.464 0.387 0.362 1.458-1.485 4.953-7.401 5.402-12.308 0.371-4.059-0.958-6.479-3.694-6.852-6.317-0.862-10.846 8.303-8.712 11.924" fill="#0f141b"/>
  </g>
  <g transform="matrix(5.4341 0 0 -5.4341 79.762 436.01)">
   <path d="m0 0c-0.044-0.454-0.254-1.296-0.383-1.772-0.152-0.566 0.33-0.742 0.488-0.171 0.14 0.507 0.264 1.414 0.309 1.94 0.063 0.734-0.346 0.722-0.414 3e-3" fill="#0f141b"/>
  </g>
  <g transform="matrix(5.4341 0 0 -5.4341 92.032 468.04)">
   <path d="m0 0c-1.045-3.197 0.288-7.447 2.926-7.342 2.369 0.095 3.294 3.897 2.092 7.391-1.347-0.64-3.449-0.618-5.018-0.049m2.969-7.858c-3.141-0.06-4.68 4.437-3.32 8.181 0.063 0.173 0.125 0.234 0.336 0.152 1.595-0.616 3.858-0.634 4.972 0.063 0.221 0.14 0.281 0.133 0.378-0.128 1.399-3.697 0.612-8.149-2.366-8.268" fill="#0f141b"/>
  </g>
  <g transform="matrix(5.4341 0 0 -5.4341 70.957 445.53)">
   <path d="m0 0c-7.611-2.748-12.519-8.612-12.156-15.515l0.508 0.4c-0.058 5.798 4.661 12.028 11.503 14.499 0.133 0.048 0.28 0.665 0.145 0.616" fill="#0f141b"/>
  </g>
  <g transform="matrix(5.4341 0 0 -5.4341 129.59 463.46)">
   <path d="m0 0c-0.1 0.102-2e-3 -0.763 0.113-0.898 1.919-2.249 3.33-6.363 3.433-9.852 0.201-6.78-5.319-12.882-12.089-13.153-3.997-0.16-9.273 1.643-12.035 5.851l-0.305-0.501c2.9-4.247 8.27-6.029 12.36-5.866 8.23 0.329 12.963 7.658 12.784 13.712-0.115 3.877-2.059 8.451-4.261 10.707" fill="#0f141b"/>
  </g>
  <g transform="matrix(5.4341 0 0 -5.4341 47.107 523.78)">
   <path d="m0 0c-1.496 0.43-2.576 2.032-2.966 3.54-0.567 2.193-0.369 5.64 1.86 6.345 0.469 0.149 0.985 0.042 1.483-0.236 1.304-0.728 2.311-2.701 2.694-4.226 0.281-1.116 0.303-3.147-0.447-4.44-0.339-0.585-0.551-0.5-0.256 0.129 0.553 1.18 0.482 3.075 0.203 4.184-0.369 1.467-1.327 3.278-2.446 3.902-0.368 0.206-0.711 0.185-1.04 0.081-1.886-0.597-2.015-3.657-1.513-5.596 0.359-1.387 1.28-3.038 2.504-3.426 0.609-0.193 0.54-0.433-0.076-0.257" fill="#0f141b"/>
  </g>
  <g transform="matrix(5.4341 0 0 -5.4341 43.872 473.22)">
   <path d="m0 0c-0.628-0.238-0.794-1.713-0.373-3.24 0.397-1.438 1.454-2.683 2.15-2.476 0.759 0.239 0.746 2.137 0.388 3.226-0.55 1.671-1.476 2.75-2.165 2.49m-0.87-3.377c-0.428 1.552-0.37 3.366 0.715 3.776 0.832 0.317 2.097-0.563 2.81-2.728 0.549-1.67 0.132-3.545-0.736-3.813-0.9-0.278-2.32 1.065-2.789 2.765" fill="#0f141b"/>
  </g>
  <g transform="matrix(5.4341 0 0 -5.4341 -14.014 573.96)">
   <path d="M 0,0 C -2.778,2.764 1.904,7.91 5.618,9.529 6.45,9.893 6.598,9.578 5.755,9.197 2.451,7.71 -1.83,2.709 0.428,0.464 2.559,-1.656 6.843,2.34 7.081,6.991 7.127,7.892 7.452,7.881 7.419,6.99 7.212,1.46 2.51,-2.498 0,0" fill="#0f141b"/>
  </g>
  <g transform="matrix(5.4341 0 0 -5.4341 142.98 557.6)">
   <path d="m0 0c-0.128 0.063 0.075 0.463 0.203 0.399 1.002-0.5 2.7-0.214 3.216 0.871 0.697 1.466-0.043 3.343-1.796 4.526-0.118 0.08-0.056 0.578 0.064 0.499 2.194-1.426 3.11-3.543 2.274-5.301-0.656-1.379-2.592-1.677-3.961-0.994" fill="#0f141b"/>
  </g>
  <g transform="matrix(5.4341 0 0 -5.4341 84.424 621.22)">
   <path d="m0 0c-2.244 0.022-3.819-1.604-6.989-0.763-2.381 0.631-3.285 2.858-4.441 3.31-1.147 0.449-6.905-0.777-7.232 0.641-0.313 1.353 5.402 4.239 8.702 4.649 0.145 0.016 0.528-0.311 0.386-0.329-4.005-0.497-8.689-3.32-8.464-4.107 0.252-0.878 5.515-0.071 6.767-0.457 1.2-0.37 2.321-2.536 4.428-3.112 2.544-0.696 4.558 0.692 6.852 0.683 1.825-6e-3 3.665-1.924 6.737-0.849 1.521 0.532 1.149 1.951 2.25 2.436 1.226 0.54 4.248-0.401 4.485-0.02 0.408 0.654-3.816 4.035-6.981 4.757-0.139 0.032 0.172 0.355 0.31 0.325 2.871-0.624 8.031-4.368 7.146-5.473-0.49-0.611-3.597 0.59-4.725-0.02-0.867-0.468-0.412-1.866-2.282-2.577-3.247-1.233-5.473 0.891-6.949 0.906" fill="#0f141b"/>
  </g>
  <g transform="matrix(5.4341 0 0 -5.4341 -27.22 659.55)">
   <path d="m0 0c1.532-1.393 4.046-3.188 7.517-4.426l0.324 0.502c-3.502 1.179-6.035 2.844-7.606 4.165-0.571 0.48-0.796 0.269-0.235-0.241" fill="#0f141b"/>
  </g>
  <g transform="matrix(5.4341 0 0 -5.4341 112.73 627.5)">
   <path d="m0 0c-0.094-4.79-3.254-8.972-7.391-10.405l-0.025-0.645c4.723 1.527 7.817 5.184 7.931 11.04 3e-3 0.142-0.513 0.152-0.515 0.01" fill="#0f141b"/>
  </g>
  <g transform="matrix(5.4341 0 0 -5.4341 -20.787 649.75)">
   <path d="m0 0c2.399 0.875 7.356 5.478 8.497 7.546 0.069 0.124 0.432-0.293 0.364-0.418-1.25-2.265-5.968-6.53-8.742-7.433-0.789-0.257-0.877 0.029-0.119 0.305" fill="#0f141b"/>
  </g>
  <g transform="matrix(5.4341 0 0 -5.4341 18.641 751.75)">
   <path d="m0 0c-5.125 1.173-5.923 5.291-2.469 10.327 2.471 3.603 4.412 8.407 5.718 13.961 0.033 0.139 0.51-0.14 0.477-0.279-1.321-5.616-3.262-10.318-5.77-13.974-3.213-4.685-2.236-8.376 2.169-9.384 4.91-1.122 8.581 1.683 9.135 6.211 0.726 5.93 0.078 13.131-0.535 16.525-0.025 0.14 0.483 0.232 0.508 0.091 0.618-3.424 1.272-10.692 0.539-16.678-0.663-5.419-4.315-8.047-9.772-6.8" fill="#0f141b"/>
  </g>
  <g transform="matrix(5.4341 0 0 -5.4341 37.096 749.97)">
   <path d="m0 0c-0.705 1.862 0.238 6.361 0.433 7.134 0.351 1.393 2.079 1.13 1.849-0.205-0.233-1.349-0.73-5.348-0.27-6.306 0.062-0.129-0.402-0.351-0.465-0.224-0.7 1.435 0.264 6.562 0.273 6.614 0.13 0.752-0.696 0.949-0.917 0.071-0.258-1.02-1.065-5.246-0.39-6.981 0.052-0.133-0.473-0.21-0.513-0.103" fill="#0f141b"/>
  </g>
  <g transform="matrix(5.4341 0 0 -5.4341 16.298 748.38)">
   <path d="m0 0c-0.208 0.443-0.391 1.126-0.434 1.913-0.066 1.204 0.345 3.232 0.784 4.769 0.146 0.513-0.433 0.728-0.715 0.072-0.499-1.158-0.986-3.265-0.98-4.627 2e-3 -0.693 0.189-1.296 0.366-1.733 0.054-0.132-0.498 0.103-0.547 0.236-0.151 0.407-0.279 1.072-0.274 1.702 8e-3 1.123 0.578 3.565 0.964 4.461 0.543 1.261 1.965 0.934 1.579-0.175-0.498-1.475-0.808-3.43-0.764-4.76 0.023-0.695 0.22-1.35 0.476-1.883 0.062-0.128-0.41-0.071-0.455 0.025" fill="#0f141b"/>
  </g>
  <g transform="matrix(5.4341 0 0 -5.4341 147.27 735.26)">
   <path d="m0 0c-3.37 1.89-6.867 8.413-7.915 13.27-0.031 0.139 0.401 0.652 0.431 0.512 1.07-4.952 4.485-11.407 7.742-13.233 3.033-1.702 5.876-1.815 7.939-0.394 2.297 1.584 0.792 5.11-1.535 6.635-7.852 5.148-10.322 10.182-11.001 13.473-0.029 0.14 0.452 0.457 0.481 0.317 0.66-3.195 3.097-8.233 10.801-13.283 2.857-1.873 4.55-5.799 1.688-7.77-2.1-1.448-5.057-1.532-8.631 0.473" fill="#0f141b"/>
  </g>
  <g transform="matrix(5.4341 0 0 -5.4341 173.56 740.24)">
   <path d="m0 0c0.162 0.25 0.226 0.674 0.226 0.99-1e-3 1.429-1.606 3.804-2.487 4.911-0.391 0.49-0.963 0.33-0.654-0.182 1.089-1.799 2.185-3.605 2.26-4.709 0.018-0.268-0.067-0.846-0.209-1.03-0.044-0.056-0.65-0.036-0.569 0.082 0.112 0.162 0.266 0.698 0.237 0.954-0.112 0.976-1.309 3.2-2.128 4.55-0.7 1.153 0.797 1.444 1.504 0.47 1.018-1.401 2.516-3.505 2.523-5.054 2e-3 -0.315-0.075-0.736-0.182-1.002-0.021-0.05-0.598-0.1-0.521 0.02" fill="#0f141b"/>
  </g>
  <g transform="matrix(5.4341 0 0 -5.4341 190.95 736.46)">
   <path d="m0 0c0.106 0.464 0.127 1.197 0.012 1.66-0.361 1.443-1.863 3.183-2.892 4.182-1.002 0.972 0.199 1.435 1.299 0.544 0.748-0.606 1.92-1.798 2.531-2.873 0.207-0.364 0.389-0.783 0.444-1.231 0.033-0.271-0.335-1.134-0.331-0.991 0.01 0.423-0.024 0.923-0.169 1.348-0.446 1.303-1.946 2.924-2.893 3.607-0.632 0.456-1.107 0.308-0.535-0.219 1.331-1.225 2.539-2.672 2.939-3.994 0.137-0.453 0.232-1.329 0.153-1.662-0.032-0.135-0.59-0.51-0.558-0.371" fill="#0f141b"/>
  </g>
  <g transform="matrix(5.4341 0 0 -5.4341 -89.298 663)">
   <path d="m0 0c0.084 1.704 2.886 2.839 5.603 3.034 1.85 0.135 3.884-0.347 4.979-0.731-0.701 1.712 2.858 2.765 5.324 2.137 0.138-0.035-0.172-0.285-0.311-0.258-2.314 0.454-5.555-0.838-4.427-2.112 0.407-0.459 0.052-0.416-0.384-0.272-0.878 0.295-2.991 0.783-5.157 0.628-2.81-0.203-5.053-1.252-5.111-2.451-0.081-1.631 2.849-2.541 5.525-2.379 2.466 0.145 4.708 1.069 5.955 2.497 0.093 0.108 0.431-0.112 0.34-0.222-1.336-1.614-3.662-2.636-6.264-2.79-3.456-0.205-6.166 1.011-6.072 2.919" fill="#0f141b"/>
  </g>
  <g transform="matrix(5.4341 0 0 -5.4341 119.51 500.52)">
   <path d="m0 0c-0.973 1.73-3.693 2.607-5.183 1.37-0.11-0.091-0.244 0.369-0.165 0.422 1.656 1.094 4.17 0.592 5.528-1.307 0.081-0.112-0.133-0.568-0.18-0.485" fill="#0f141b"/>
  </g>
 </g>
</svg>
