<?xml version="1.0" encoding="UTF-8"?>
<!-- Created with Inkscape (http://www.inkscape.org/) -->
<svg version="1.1" viewBox="0 0 294.5 231.51" xmlns="http://www.w3.org/2000/svg" xmlns:cc="http://creativecommons.org/ns#" xmlns:dc="http://purl.org/dc/elements/1.1/" xmlns:rdf="http://www.w3.org/1999/02/22-rdf-syntax-ns#">
 <defs>
  <clipPath id="clipPath12748-3-7">
   <path d="m800.16 653.48h85.039v45.354h-85.039z"/>
  </clipPath>
 </defs>
 <metadata>
  <rdf:RDF>
   <cc:Work rdf:about="">
    <dc:format>image/svg+xml</dc:format>
    <dc:type rdf:resource="http://purl.org/dc/dcmitype/StillImage"/>
   </cc:Work>
  </rdf:RDF>
 </metadata>
 <g transform="translate(-74.567 -522.72)">
  <g transform="matrix(13.003 0 0 -13.003 -10948 9346.9)">
   <g clip-path="url(#clipPath12748-3-7)">
    <g transform="translate(847.82 675.29)">
     <path d="m0 0c0.213 0.603 0.813 0.856 1.339 0.73 0.434-0.101 0.776-0.416 0.857-0.835 0.053-0.269-0.194-1.117-0.413-1.271-0.336-0.233-0.799-0.268-1.154-0.114-0.574 0.244-0.84 0.902-0.629 1.49" fill="#ee86ae"/>
    </g>
    <g transform="translate(857.32 678.49)">
     <path d="m0 0c-2.106 0.084-3.838-1.46-4.969-2.886l-7e-3 -4e-3c0.727-0.711 1.08-2.66 0.319-4.194 0.974-0.575 1.98-1.044 2.784-1.344 2.305-0.859 4.547-0.362 5.163 0.43 0.596 1.061 0.859 2.477 0.859 3.586 0 2.437-2.041 4.328-4.149 4.412" fill="#005ead"/>
    </g>
    <g transform="translate(852.35 675.6)">
     <path d="m0 0c-0.327-0.244-1.818-0.442-2.278-0.392 0.019-0.24-0.175-1.06-0.439-1.332 0.526-0.797 1.84-1.766 3.035-2.47 0.761 1.534 0.409 3.484-0.318 4.194" fill="#fff"/>
    </g>
    <g transform="translate(854.44 675.8)">
     <path d="m0 0c0.615 0 0.851-1.283 0.783-2.141-0.064-0.85-0.563-1.797-1.104-1.661-0.433 0.107-0.751 1.104-0.692 1.983 0.068 1.035 0.561 1.819 1.013 1.819" fill="#fff"/>
    </g>
    <g transform="translate(854.13 675.16)">
     <path d="m0 0c0.246 0 0.312-0.684 0.288-1.231-0.028-0.592-0.161-1.064-0.395-1.064-0.238 0-0.359 0.709-0.33 1.097 0.027 0.371 0.109 1.198 0.437 1.198" fill="#3e3a39"/>
    </g>
    <g transform="translate(854.13 675.07)">
     <path d="m0 0c0.135-7e-3 0.146-0.404 0.125-0.6-0.021-0.19-0.094-0.528-0.254-0.51-0.142 0.017-0.154 0.392-0.129 0.57 0.026 0.177 0.127 0.548 0.258 0.54" fill="#fff"/>
    </g>
    <g transform="translate(848.74 675.8)">
     <path d="m0 0c0.16-0.016 0.245-0.185 0.202-0.354-0.042-0.167-0.204-0.236-0.337-0.202-0.128 0.035-0.228 0.169-0.185 0.329 0.033 0.129 0.17 0.245 0.32 0.227" fill="#f7c9da"/>
    </g>
    <g transform="translate(870.18 663.77)">
     <path d="m0 0c-0.041 0.65-0.985 1.155-1.972 1.463 0.788 0.315 0.979 0.792 0.861 1.182-0.201 0.671-1.378 0.871-2.204 0.708-0.549-0.108-1.401-0.38-1.631-1.135-1.133 0.61-2.938 2.449-3.688 3.449l-5.518-1.67 0.21-0.255-1.075-0.431c-0.414-1.063-1.949-2.017-3.684-2.012-0.405 1e-3 -0.923-0.181-0.962-0.602-0.074-0.863 1.658-1.052 3.202-0.791-0.271-0.113-0.553-0.208-0.837-0.291-0.2-0.057-1.643-0.334-1.697-1.182-0.09-1.409 4.129-1.592 5.548-0.621 1.061 0.725 1.556 1.899 1.773 3.218 1.39-1.286 3.515-1.464 6.985-0.277 0.159-0.767 0.989-1.566 2.34-1.721 0.969-0.11 2.407 0.052 2.349 0.968" fill="#005ead"/>
    </g>
    <g transform="translate(854.84 666.44)">
     <path d="m0 0c0.185-0.093 0.76-0.464 0.445-1.167-0.688-1.535-4.538-1.597-4.735-0.672-0.439-1.243 2.551-1.18 3.421-0.833 1.48 0.593 2.475 2.494 2.63 3.315-0.213-0.218-1.205-0.645-1.532-0.261z" fill="#005197"/>
    </g>
    <g transform="translate(851.37 662.62)">
     <path d="m0 0c-0.375-1.168 3.393-1.449 4.737-0.827 1.93 0.89 2.475 3.321 2.567 5.153 0.022-4.291-1.576-5.396-2.521-5.741-1.977-0.723-5.866-0.207-4.783 1.415" fill="#005197"/>
    </g>
    <g transform="translate(860.9 671.11)">
     <path d="m0 0c0.748 0.117 2.99-0.407 2.99-0.714 0-0.234-0.497-0.144-0.603-0.325-0.11-0.179 0.09-0.387-0.047-0.531-0.361-0.386-1.09-0.145-1.733-0.542-0.64-0.397-0.755-1.098-1.369-1.38-1.181-0.54-1.552 0.126-2.543-0.08-0.993-0.207-1.199-0.884-2.093-0.893-0.532-6e-3 -0.712 0.658-1.198 0.73-0.488 0.071-1.211-0.307-1.416 0-0.457 0.673 1.461 2.146 2.461 2.714 2.86-1.009 4.519-0.223 5.249 0.337 0.122 0.094 0.228 0.485 0.302 0.684" fill="#bce2e8"/>
    </g>
    <g transform="translate(855.41 668.96)">
     <path d="m0 0c0.15-0.135-0.877-1.061-1.028-0.927-0.153 0.134 0.86 1.079 1.028 0.927" fill="#e0f1f4"/>
    </g>
    <g transform="translate(861.95 670.6)">
     <path d="M 0,0 C -0.016,-0.168 0.979,-0.303 0.996,-0.151 1.013,0 0.017,0.187 0,0" fill="#e0f1f4"/>
    </g>
    <g transform="translate(850.92 663.9)">
     <path d="M 0,0 C 0.06,0.457 0.645,0.751 1.327,0.793 1.514,0.804 1.452,0.995 1.09,0.956 0.24,0.869 -0.184,0.64 -0.262,0.235 -0.257,0.143 -0.176,0.007 0,0" fill="#fff"/>
    </g>
    <g transform="translate(852.34 661.22)">
     <path d="m0 0c-0.045 0.948 0.5 1.176 1.119 1.575 0.302 0.193 0.09 0.34-0.348 0.139-0.822-0.38-1.391-0.817-1.306-1.499 0.063-0.145 0.312-0.312 0.535-0.215" fill="#fff"/>
    </g>
    <g transform="translate(854.14 661)">
     <path d="m0 0c-0.021 0.138-0.033 0.366 0.115 0.563 0.227 0.304 0.803 0.733 0.998 0.865 0.192 0.131-0.131 0.251-0.314 0.152-0.698-0.369-1.502-0.813-1.375-1.569 0.072-0.075 0.412-0.102 0.576-0.011" fill="#fff"/>
    </g>
    <g transform="translate(847.81 674.71)">
     <path d="m0 0c0.37-0.78 1.575-0.873 2.074-0.215 0 0-0.156-0.491-0.304-0.593-0.662-0.456-1.755-0.125-1.77 0.808" fill="#ce7497"/>
    </g>
    <g transform="translate(849.75 674.04)">
     <path d="m0 0-0.168-0.142c0.713-0.858 1.809-1.761 3.059-2.518l0.191 0.41c-1.154 0.604-2.228 1.375-3.082 2.25" fill="#dcdddd"/>
    </g>
    <g transform="translate(852.83 671.79)">
     <path d="m0 0-0.191-0.411c2.707-1.636 6.134-2.585 7.976-0.895 0 0 0.483 0.933 0.588 1.346-1.555-2.082-5.258-1.671-8.373-0.04" fill="#005197"/>
    </g>
    <g transform="translate(860.11 672.39)">
     <path d="m0 0c-0.272-0.755-1.462-0.818-1.958-0.243 0.559-1.202 2.207-0.938 1.958 0.243" fill="#005197"/>
    </g>
    <g transform="translate(854.79 669.76)">
     <path d="m0 0c2.704-1.127 5.543-0.635 5.891 0.751-1.335-1.196-3.575-1.105-5.37-0.415z" fill="#a2c4ca"/>
    </g>
    <g transform="translate(858.69 666.72)">
     <path d="m0 0c0.199-1.355 3.656-2.943 6.773-1.83l0.059-0.402c-2.967-0.944-5.545-1.174-7.009 0.315 0 0 0.2 1.525 0.177 1.917" fill="#005197"/>
    </g>
    <g transform="translate(865.46 664.98)">
     <path d="m0 0c0.191-1.261 1.854-1.789 2.975-1.784 0.893 4e-3 1.503 0.194 1.752 0.659 0.107-0.594-0.765-1.13-1.817-1.139-1.395-0.013-3.043 0.91-2.91 2.264" fill="#005197"/>
    </g>
    <g transform="translate(866.51 665.56)">
     <path d="M 0,0 C 0.812,-0.078 2.463,0 2.516,0.853 2.813,0.383 2.16,-0.229 1.637,-0.358 1.336,-0.201 0.405,-0.05 0,0" fill="#005197"/>
    </g>
    <g transform="translate(850.92 663.9)">
     <path d="m0 0c0.012 0.098 0.051 0.187 0.105 0.269-0.115 0.047-0.214 0.101-0.293 0.162l-0.074-0.196c5e-3 -0.092 0.086-0.228 0.262-0.235" fill="#dcdddd"/>
    </g>
    <g transform="translate(851.8 661.43)">
     <path d="m0 0c0.063-0.145 0.313-0.312 0.535-0.215-8e-3 0.176 4e-3 0.327 0.033 0.46-0.197 0.052-0.377 0.118-0.525 0.193-0.048-0.135-0.064-0.28-0.043-0.438" fill="#dcdddd"/>
    </g>
    <g transform="translate(853.57 661.01)">
     <path d="m0 0c0.072-0.076 0.412-0.102 0.576-0.011-0.017 0.118-0.029 0.303 0.063 0.479-0.196-5e-3 -0.393 1e-3 -0.589 0.013-0.058-0.145-0.078-0.305-0.05-0.481" fill="#dcdddd"/>
    </g>
    <g transform="translate(847.92 675.27)">
     <path d="m0 0c-0.196-0.552 0.039-1.162 0.563-1.385 0.356-0.152 0.805-0.091 1.073 0.094 0.189 0.133 0.433 0.955 0.386 1.197-0.074 0.375-0.388 0.67-0.801 0.767-0.523 0.124-1.044-0.172-1.221-0.673m0.485-1.55c-0.591 0.255-0.925 0.92-0.681 1.609 0.222 0.622 0.842 0.938 1.445 0.794 0.48-0.113 0.844-0.471 0.932-0.916 0.054-0.281-0.188-1.173-0.45-1.356-0.335-0.235-0.844-0.302-1.246-0.131" fill="#0d131a"/>
    </g>
    <g transform="translate(852.61 671.48)">
     <path d="m0 0c0.767 1.458 0.277 3.63-0.271 4.031l0.096 0.093c0.673-0.492 1.075-2.741 0.304-4.208z" fill="#0d131a"/>
    </g>
    <g transform="translate(851.23 674.84)">
     <path d="m0 0c0.148 9e-3 0.136 0.181-0.012 0.163-0.122-0.017-0.353-0.025-0.504-0.018-0.209 9e-3 -0.22-0.108-2e-3 -0.134 0.147-0.018 0.38-0.019 0.518-0.011" fill="#0d131a"/>
    </g>
    <g transform="translate(850.55 674.16)">
     <path d="m0 0c0.213-0.1 0.51-0.173 0.657-0.187 0.131-0.014 0.148 0.174 0.019 0.185-0.155 0.015-0.422 0.058-0.619 0.115-0.163 0.049-0.209-0.042-0.057-0.113" fill="#0d131a"/>
    </g>
    <g transform="translate(857.33 678.6)">
     <path d="m0 0c-2.181 0.121-3.905-1.527-5.037-2.933-0.177-0.218-1.7-0.422-2.236-0.386l0.016-0.145c0.52-0.036 2.143 0.163 2.34 0.408 1.08 1.341 2.797 2.959 4.906 2.844 2.948-0.16 5.478-3.273 3.221-7.848-0.125-0.253-1.258-0.847-2.653-0.843-2.641 0.011-6.769 2.334-8.201 4.219l-0.111-0.085c1.233-1.724 5.411-4.31 8.321-4.31 1.749 0 2.665 0.69 2.798 0.943 2.18 4.217 0.112 7.94-3.364 8.136" fill="#0d131a"/>
    </g>
    <g transform="translate(851.42 672.28)">
     <path d="m0 0c0.291 0.153 0.502 0.403 0.575 0.69 0.048 0.182 0.159 0.142 0.116-0.046-0.074-0.33-0.236-0.588-0.55-0.775z" fill="#0d131a"/>
    </g>
    <g transform="translate(857.87 673.37)">
     <path d="m0 0c0.021 0.221 0.131 0.217 0.119 0-0.096-1.492 0.914-2.186 1.662-1.755 0.553 0.321 0.591 1.59-0.897 2.63-0.16 0.112-0.081 0.2 0.079 0.095 1.84-1.201 1.51-2.579 0.932-2.913-0.76-0.44-2.068 0.132-1.895 1.943" fill="#0d131a"/>
    </g>
    <g transform="translate(854.46 672.12)">
     <path d="m0 0c0.334 0.215 0.609 0.909 0.66 1.564 0.073 0.944-0.219 2.019-0.69 2.019-0.378 0-0.869-0.64-0.944-1.732-0.049-0.725 0.144-1.532 0.472-1.827 0.135-0.121 0.088-0.188-0.057-0.074-0.375 0.301-0.606 1.121-0.552 1.915 0.072 1.1 0.576 1.918 1.088 1.918 0.647 0 0.988-0.998 0.89-2.243-0.051-0.653-0.372-1.384-0.808-1.632-0.174-0.101-0.223-0.013-0.059 0.092" fill="#0d131a"/>
    </g>
    <g transform="translate(854.13 675.1)">
     <path d="m0 0c-0.133 0-0.307-0.318-0.363-1.142-0.035-0.504 0.113-1.023 0.259-1.023 0.131 0 0.278 0.352 0.306 0.996 0.041 0.881-0.088 1.169-0.202 1.169m-0.104-2.313c-0.287 0-0.435 0.757-0.406 1.187 0.057 0.801 0.231 1.271 0.511 1.271 0.228 0 0.417-0.382 0.375-1.323-0.026-0.544-0.159-1.135-0.48-1.135" fill="#0d131a"/>
    </g>
    <g transform="translate(860.98 671.16)">
     <path d="m0 0-0.044-0.133c0.801 0.125 2.847-0.402 2.849-0.632 3e-3 -0.16-0.453-0.097-0.576-0.295-0.087-0.147 0.045-0.379-0.048-0.502-0.232-0.312-1.028-0.134-1.696-0.541-0.642-0.394-0.791-1.074-1.371-1.353-1.042-0.502-1.654 0.105-2.512-0.091-1.015-0.235-1.345-0.866-2.087-0.87-0.43-3e-3 -0.69 0.626-1.188 0.701-0.355 0.053-1.102-0.207-1.344-6e-3 -0.47 0.386 1.078 1.817 2.426 2.584l-0.181 0.053c-0.844-0.478-3.004-2.094-2.398-2.75 0.294-0.318 1.149 0.025 1.476-0.021 0.46-0.067 0.648-0.769 1.209-0.761 0.903 0.016 1.202 0.729 2.107 0.92 0.852 0.18 1.387-0.477 2.576 0.064 0.696 0.316 0.709 0.996 1.371 1.406 0.578 0.359 1.486 0.17 1.756 0.538 0.157 0.213-0.048 0.385 0.049 0.554 0.105 0.186 0.63 0.023 0.639 0.358 9e-3 0.387-2.26 0.894-3.013 0.777" fill="#0d131a"/>
    </g>
    <g transform="translate(851.08 662.17)">
     <path d="m0 0c0.045 0.707 0.71 0.957 1.779 1.267 1.331 0.385 2.882 1.161 3.644 3.531l0.202 0.103c-0.84-2.611-2.256-3.353-3.8-3.799-1.139-0.329-1.572-0.659-1.6-1.102-0.08-1.246 3.886-1.544 5.365-0.534 1.627 1.111 1.904 3.393 1.939 5.222 4e-3 0.312 0.114 0.291 0.114-0.023 9e-3 -2.857-0.624-4.479-1.938-5.377-1.59-1.086-5.803-0.818-5.705 0.712" fill="#0d131a"/>
    </g>
    <g transform="translate(850.44 664.44)">
     <path d="m0 0c0.039 0.447 0.544 0.669 1.033 0.673 1.788 0.015 3.063 0.919 3.49 1.708l0.138-0.102c-0.522-0.965-1.816-1.672-3.624-1.751-0.318-0.014-0.834-0.161-0.864-0.542-0.078-0.895 2.21-1.003 3.501-0.525l-0.868-0.4c-0.869-0.149-2.9-0.137-2.806 0.939" fill="#0d131a"/>
    </g>
    <g transform="translate(850.86 663.93)">
     <path d="m0 0c0.055 0.423 0.541 0.738 1.315 0.792 0.169 0.012 0.11 0.091-0.067 0.088-0.894-0.021-1.344-0.296-1.389-0.742l-0.101 0.109c0.086 0.446 0.557 0.694 1.448 0.723 0.39 0.014 0.482-0.252 0.187-0.268-0.582-0.035-1.208-0.291-1.272-0.785z" fill="#0d131a"/>
    </g>
    <g transform="translate(852.25 661.23)">
     <path d="m0 0c-0.048 1.01 0.562 1.226 1.188 1.63 0.171 0.109 0.019 0.176-0.255 0.047-0.99-0.467-1.366-0.88-1.29-1.513l-0.182 0.059c-0.097 0.802 0.635 1.192 1.359 1.53 0.467 0.221 0.817 7e-3 0.473-0.21-0.801-0.504-1.162-0.738-1.123-1.583z" fill="#0d131a"/>
    </g>
    <g transform="translate(854.06 660.98)">
     <path d="m0 0c-0.042 0.241 2e-3 0.459 0.128 0.627 0.232 0.309 0.807 0.692 1.004 0.863 0.078 0.066-0.093 0.116-0.246 0.041-0.871-0.425-1.407-0.851-1.297-1.51l-0.167-0.01c-0.132 0.784 0.622 1.237 1.307 1.573 0.377 0.187 0.773 0.027 0.535-0.165-0.224-0.176-0.786-0.614-0.997-0.895-0.099-0.132-0.127-0.311-0.094-0.508z" fill="#0d131a"/>
    </g>
    <g transform="translate(865.27 665.87)">
     <path d="m0 0c-1.104 0.559-2.703 2.21-3.549 3.171l0.197 0.091c0.824-0.955 2.319-2.553 3.395-3.151 0.19-0.105 0.148-0.208-0.043-0.111" fill="#0d131a"/>
    </g>
    <g transform="translate(858.52 664.67)">
     <path d="m0 0 0.049 0.242c1.368-1.192 3.194-1.472 6.886-0.374l0.028-0.167c-3.126-0.93-5.346-1.113-6.963 0.299" fill="#0d131a"/>
    </g>
    <g transform="translate(868.14 665.28)">
     <path d="m0 0c0.515 0.213 0.862 0.531 0.862 0.866 0 0.555-0.823 0.884-1.465 0.91-0.982 0.042-2.076-0.486-2.242-1.088l-0.126 0.067c0.275 0.814 1.429 1.203 2.382 1.184 0.711-0.018 1.664-0.393 1.664-1.079 0-0.378-0.332-0.696-0.908-0.934z" fill="#0d131a"/>
    </g>
    <g transform="translate(867.83 662.69)">
     <path d="m0 0c-1.64 0.186-2.52 1.274-2.413 2.208 0.025 0.232 0.147 0.222 0.123-0.013-0.092-0.883 0.836-1.857 2.31-2.026 1.288-0.145 2.226 0.369 2.226 0.876 0 0.858-2.29 1.668-3.524 1.746-0.22 0.014-0.209 0.12 3e-3 0.108 0.546-0.034 1.413-0.169 2.202-0.482 0.671-0.265 1.538-0.786 1.538-1.359 0-0.52-0.7-1.259-2.465-1.058" fill="#0d131a"/>
    </g>
    <g transform="translate(854.42 668.11)">
     <path d="m0 0 2e-3 -0.084v0.084z" fill="#0d131a"/>
    </g>
   </g>
  </g>
 </g>
</svg>
