<?xml version="1.0" encoding="UTF-8"?>
<!-- Created with Inkscape (http://www.inkscape.org/) -->
<svg version="1.1" viewBox="0 0 296.37 259.6" xmlns="http://www.w3.org/2000/svg" xmlns:cc="http://creativecommons.org/ns#" xmlns:dc="http://purl.org/dc/elements/1.1/" xmlns:rdf="http://www.w3.org/1999/02/22-rdf-syntax-ns#">
 <defs>
  <clipPath id="clipPath10708-5-1">
   <path d="m785.34 712.64h73.702v42.52h-73.702z"/>
  </clipPath>
 </defs>
 <metadata>
  <rdf:RDF>
   <cc:Work rdf:about="">
    <dc:format>image/svg+xml</dc:format>
    <dc:type rdf:resource="http://purl.org/dc/dcmitype/StillImage"/>
   </cc:Work>
  </rdf:RDF>
 </metadata>
 <g transform="translate(-76.534 -509.37)">
  <g transform="matrix(14.016 0 0 -14.016 -11532 10786)">
   <g clip-path="url(#clipPath10708-5-1)">
    <g transform="translate(844.68 727.71)">
     <path d="m0 0c0.176 1.733-0.504 3.317-1.695 4.27-2.165 1.727-5.468 1.196-6.586-0.121-1.065-1.023-1.584-2.075-1.543-3.029l5e-3 -0.086c-0.778-0.204-1.002-0.873-0.888-1.344 0.09-0.371 0.744-0.875 1.416-0.669 0.536-1.163 1.444-2.195 2.579-2.843 0.782-0.446 2.712-0.692 3.696-0.334 0.897 0.325 2.334 1.883 2.701 2.787 0.44-0.875 1.813-1.986 2.493-1.143 0.822 1.017-0.49 1.885-2.178 2.512" fill="#005ead"/>
    </g>
    <g transform="translate(834.92 732.78)">
     <path d="m0 0c0.795 0.06 1.562-0.566 1.557-1.562-2e-3 -0.846-0.832-1.499-1.588-1.472-0.951 0.032-1.516 0.767-1.453 1.591 0.057 0.767 0.633 1.381 1.484 1.443" fill="#ee86ae"/>
    </g>
    <g transform="translate(834.74 729.75)">
     <path d="m0 0c0.033-0.682 0.717-2.621 1.385-3.196 0.73-0.626 2.445-0.977 3.331 0.813 0.649 1.312 0.366 2.788-0.487 3.386-0.536 0.377-2.375 0.893-2.547 0.942 0.113-1.119-0.494-2.041-1.682-1.945" fill="#fff"/>
    </g>
    <g transform="translate(835.32 729.78)">
     <path d="m0 0c0-0.547 1.164-3.528 2.936-3.644-0.988-0.394-2.011 0.062-2.405 0.678-0.392 0.617-1.084 1.95-1.109 2.932 0.147-0.02 0.386-6e-3 0.578 0.034" fill="#dcdddd"/>
    </g>
    <g transform="translate(842.04 730.22)">
     <path d="m0 0c0.686-0.176 1.009-1.491 0.716-2.447-0.269-0.873-0.919-1.699-1.554-1.598-0.62 0.099-0.975 1.274-0.734 2.281 0.324 1.363 0.969 1.922 1.572 1.764" fill="#fff"/>
    </g>
    <g transform="translate(841.73 729.82)">
     <path d="m0 0c0.268-0.07 0.447-0.648 0.216-1.369-0.24-0.764-0.57-1.054-0.873-0.981-0.334 0.081-0.408 0.851-0.258 1.358 0.213 0.714 0.551 1.086 0.915 0.992" fill="#3e3a39"/>
    </g>
    <g transform="translate(841.4 728.78)">
     <path d="m0 0c0.179-0.055 0.394 0.114 0.454 0.374 0.056 0.244-0.026 0.504-0.178 0.541-0.158 0.039-0.381-0.152-0.462-0.384-0.083-0.243 0.029-0.48 0.186-0.531" fill="#fff"/>
    </g>
    <g transform="translate(835.31 732.27)">
     <path d="m0 0c0.195 0 0.32-0.135 0.32-0.339 0-0.153-0.109-0.312-0.312-0.312-0.154 0-0.308 0.143-0.308 0.334 0 0.185 0.151 0.317 0.3 0.317" fill="#f7c9da"/>
    </g>
    <g transform="translate(837.86 727.75)">
     <path d="m0 0c-0.177 0.359-0.441 0.695-0.701 0.897-0.323-0.372-1.166-0.695-1.72-0.267l0.229-0.192c0.096-0.424 0.526-1.158 1.018-1.597-0.019 0.617 0.299 1.246 1.174 1.159" fill="#932f00"/>
    </g>
    <g transform="translate(837.74 726.31)">
     <path d="m0 0c0.486 0.277 0.424 0.892 0.153 1.446-0.877 0.088-1.195-0.541-1.175-1.158 0.34-0.304 0.71-0.466 1.022-0.288" fill="#ee869a"/>
    </g>
    <g transform="translate(848.51 717.24)">
     <path d="m0 0c-2.188 0.574-4.818 1.942-5.396 4.446 0 0-6.319 1.725-6.388 1.577-1.463 0.602-2.382 2.741-2.821 3.596-1.506 2.919-5.737 1.603-5.508-0.288 0.213-1.752 4.011-4.821 7.567-5.171-0.487-1.43-0.69-2.673-0.802-3.782-1.465 0.834-5.275 0.098-5.271-0.987 5e-3 -1.018 3.605-1.207 5.26 0.289 0.246-0.11 0.56-0.157 0.918-0.15 2.316-0.816 4.463-1.039 4.908-0.295 0.308 0.515-0.819 1.092-1.85 1.223 1.172 0.631 2.238 1.538 2.715 2.567 6e-3 -2.483 1.504-4.602 3.301-5.247 1.773-0.636 4.137 0.462 4.137 1.305 0 0.495-0.509 0.85-0.77 0.917" fill="#005ead"/>
    </g>
    <g transform="translate(849.13 716.83)">
     <path d="m0 0c-0.046-0.784-1.677-1.546-3.386-1.405-1.648 0.137-3.604 2.801-3.558 4.567 0.012 0.481 0.583 0.918 1.109 0.959l-0.094 0.398c-0.252-0.239-0.884-0.411-1.136-0.384-6e-3 -0.074-0.028-0.195-0.053-0.319-0.067-0.171-0.131-0.361-0.147-0.435-0.07-2.722 2.206-5.57 4.35-5.459 2 0.104 3.627 1.074 2.915 2.078" fill="#005197"/>
    </g>
    <g transform="translate(836.47 723.35)">
     <path d="m0 0c0.122-0.332-0.073-0.438-0.368-0.438-0.835 0-2.291 2.053-2.928 3.351-0.487 0.996-1.56 1.622-3.117 1.313-1.035-0.205-1.886-0.822-1.399-1.777 1.1-2.144 5.168-4.424 7.391-4.449 0.515 0.014 0.885-0.04 1.137 0.094-0.252 0.224-0.41 0.714-0.423 0.899-0.014 0.186 0.038 0.795-0.293 1.007" fill="#005197"/>
    </g>
    <g transform="translate(842.93 724.38)">
     <path d="m0 0c0.41-0.084 2.824-1.578 2.592-2.201-0.118-0.317-1.505 0.213-1.802 0.028-0.31-0.194-0.194-0.855-1.06-1.124-1.338-0.417-1.319 0.204-2.554 0.194-0.996-7e-3 -1.096-0.714-2.405-0.166-1.407 0.587-0.58 1.722-1.283 2.285-0.608 0.486-1.433 1.189-1.593 1.735 0.186 0.122 1.222 0.131 1.548 0.052 1.254-1.775 4.874-2.653 6.557-0.803" fill="#bce2e8"/>
    </g>
    <g transform="translate(831.78 728.42)">
     <path d="m0 0c-0.189-0.221-0.306-0.487-0.297-0.762 0.02-0.511 0.45-1.295 0.865-1.932 0.205-0.318-0.243-0.431-0.502-0.186-0.482 0.455-1.086 1.609-1.086 2.118 0 0.362 0.086 0.62 0.332 0.845 0.145 0.03 0.503 0.01 0.688-0.083" fill="#fff"/>
    </g>
    <g transform="translate(829.77 728.22)">
     <path d="m0 0c-0.205-0.199-0.347-0.475-0.343-0.737 6e-3 -0.625 0.754-1.689 1.236-2.198 0.231-0.244-0.118-0.411-0.404-0.133-0.437 0.422-1.399 1.306-1.381 2.083 6e-3 0.216 0.112 0.464 0.259 0.669 0.101 0.148 0.487 0.316 0.633 0.316" fill="#fff"/>
    </g>
    <g transform="translate(843 723.4)">
     <path d="m0 0c-0.125-0.176 0.335-0.467 0.464-0.538 0.146-0.084 0.557-0.251 0.62-0.138 0.074 0.124-0.323 0.417-0.434 0.491-0.113 0.075-0.548 0.335-0.65 0.185" fill="#e0f1f4"/>
    </g>
    <g transform="translate(835.43 724.87)">
     <path d="m0 0c-0.052-0.148 0.307-0.315 0.483-0.381 0.177-0.064 0.484-0.167 0.519-0.046 0.038 0.12-0.361 0.325-0.444 0.362-0.085 0.037-0.511 0.196-0.558 0.065" fill="#e0f1f4"/>
    </g>
    <g transform="translate(846.14 714.88)">
     <path d="m0 0c0.238 0.83-0.129 1.453-0.334 1.69-0.148 0.171 0.256 0.264 0.404 0.111 0.5-0.517 0.746-1.213 0.471-1.808-0.129-0.019-0.405-0.03-0.541 7e-3" fill="#fff"/>
    </g>
    <g transform="translate(848.31 715.34)">
     <path d="m0 0c0.087 0.614-0.037 1.085-0.797 1.606-0.231 0.16 0.152 0.261 0.41 0.1 0.709-0.441 0.926-0.81 0.854-1.443-0.041-0.146-0.377-0.308-0.467-0.263" fill="#fff"/>
    </g>
    <g transform="translate(833.52 731.45)">
     <path d="m0 0c0.069-0.493 0.545-1.117 1.4-1.186 0.858-0.07 1.411 0.562 1.541 0.947-0.015-0.816-0.625-1.469-1.564-1.465-0.938 0-1.618 1.01-1.377 1.704" fill="#ce7497"/>
    </g>
    <g transform="translate(833.97 727.76)">
     <path d="m0 0c0.023-0.269 0.663-0.754 1.248-0.608l0.178-0.447c-0.726-0.193-1.603 0.417-1.426 1.055" fill="#005197"/>
    </g>
    <g transform="translate(844.24 726.77)">
     <path d="m0 0c0.386-0.632 2.151-1.902 2.72-1.394 0.039-1.033-2.264-0.401-2.72 1.394" fill="#005197"/>
    </g>
    <g transform="translate(835.46 726.61)">
     <path d="m0 0c0.967-1.585 3.674-2.737 5.77-2.195 1.132 0.293 2.15 1.116 2.981 2.312l0.162-0.463c-0.184-0.593-1.735-2.581-2.759-2.758-2.51-0.431-4.545 0.147-6.154 3.104" fill="#005197"/>
    </g>
    <g transform="translate(836.9 727.33)">
     <path d="M 0,0 C 0.512,0.176 1.067,-0.116 1.131,-0.695 1.252,-0.136 1.117,0.167 0.962,0.399 0.64,0.55 0.197,0.271 0,0" fill="#cf7487"/>
    </g>
    <g transform="translate(837.68 717.06)">
     <path d="m0 0c0.271-0.509 2.877-1.012 3.367-0.428-0.306-1.352-4.263-0.158-4.943 0.126 0.486 0.018 1.256 0.146 1.576 0.302" fill="#005197"/>
    </g>
    <g transform="translate(841.73 720.93)">
     <path d="m0 0 0.024 0.02c-0.502 0.027-0.727 0.329-1.561 0.319-1.047-0.013-1.285-0.433-2.065-0.319-0.451 0.066-0.767 0.331-1.06 0.57l-0.597-0.159c0.161-0.358 0.823-1.073 1.683-1.019 0.859 0.051 1.232 0.489 1.972 0.449 0.444-0.023 0.51-0.332 0.373-0.591-0.814-1.554-3.425-3.016-5.13-3.023-0.178 0-0.27-0.027-0.422-0.122-0.973-0.605-4.486-0.988-4.988-0.103-0.636-1.563 3.626-1.563 5.212-0.065 1.688-0.576 6.274 1.229 6.926 4.059-0.115-0.028-0.24-0.029-0.367-0.016" fill="#005197"/>
    </g>
    <g transform="translate(832.35 725.72)">
     <path d="m0 0c-0.396 0.607-0.803 1.345-0.858 1.854-0.224 0.051-0.469 0.076-0.73 0.072 4e-3 -0.511 0.604-1.659 1.086-2.112 0.259-0.244 0.707-0.132 0.502 0.186" fill="#dcdddd"/>
    </g>
    <g transform="translate(830.26 725.15)">
     <path d="m0 0c0.286-0.278 0.635-0.111 0.403 0.133-0.458 0.484-1.155 1.469-1.228 2.101-0.209-0.088-0.395-0.194-0.543-0.323 0.106-0.731 0.962-1.518 1.368-1.911" fill="#dcdddd"/>
    </g>
    <g transform="translate(846.68 714.87)">
     <path d="m0 0c0.084 0.184 0.12 0.378 0.113 0.574-0.187-0.023-0.381-0.038-0.576-0.039-2e-3 -0.164-0.023-0.341-0.078-0.528 0.136-0.037 0.412-0.027 0.541-7e-3" fill="#dcdddd"/>
    </g>
    <g transform="translate(848.31 715.34)">
     <path d="M 0,0 C 0.09,-0.045 0.426,0.117 0.467,0.263 0.493,0.483 0.48,0.671 0.428,0.84 0.31,0.74 0.166,0.644 0.004,0.558 0.033,0.383 0.029,0.199 0,0" fill="#dcdddd"/>
    </g>
    <g transform="translate(836.29 725.21)">
     <path d="m0 0c0.149-0.716 1.194-2.267 3.594-2.431 2.008-0.136 2.848 0.67 3.132 1.656-0.483-0.402-0.706-0.686-1.238-0.864-1.043-0.353-2.384-0.3-3.535 0.178-0.744 0.308-1.336 0.799-1.953 1.461" fill="#a2c4ca"/>
    </g>
    <g transform="translate(834.94 732.67)">
     <path d="m0 0c-0.744-0.037-1.313-0.547-1.374-1.355-0.048-0.663 0.512-1.441 1.33-1.469 0.691-0.027 1.412 0.54 1.463 1.382 0.05 0.852-0.678 1.48-1.419 1.442m-0.05-3.014c-0.986 0.03-1.616 0.85-1.568 1.701 0.043 0.818 0.659 1.538 1.592 1.568 0.866 0.027 1.665-0.606 1.665-1.654 0-0.917-0.801-1.641-1.689-1.615" fill="#0d131a"/>
    </g>
    <g transform="translate(836.06 726.48)">
     <path d="m0 0c-0.598 0.514-1.364 2.289-1.41 3.226l0.179-4e-3c0.033-0.641 0.694-2.511 1.354-3.077 0.944-0.813 2.398-0.77 3.164 0.777 0.598 1.206 0.458 2.677-0.404 3.252-0.586 0.39-1.785 0.75-2.44 0.897l-0.072 0.212c0.596-0.123 2.102-0.598 2.602-0.948 0.936-0.657 1.18-2.204 0.533-3.514-0.795-1.605-2.465-1.716-3.506-0.821" fill="#0d131a"/>
    </g>
    <g transform="translate(837.42 730.81)">
     <path d="m0 0c0.099-0.037 0.549-0.224 0.69-0.288 0.2-0.093 0.28 0.089 0.077 0.172-0.352 0.143-0.59 0.206-0.715 0.235-0.172 0.04-0.198-0.062-0.052-0.119" fill="#0d131a"/>
    </g>
    <g transform="translate(837.27 730.26)">
     <path d="m0 0c0.111-0.062 0.517-0.316 0.694-0.432 0.142-0.09 0.234 0.084 0.097 0.173-0.149 0.097-0.547 0.29-0.717 0.363-0.168 0.073-0.217-0.028-0.074-0.104" fill="#0d131a"/>
    </g>
    <g transform="translate(835.79 728.11)">
     <path d="m0 0c0.254-0.822 1.262-2.077 1.875-1.729 0.705 0.403 0.145 1.597-0.494 2.151-0.368-0.364-0.846-0.547-1.381-0.422m-0.199 0.066-0.139 0.097c-0.168 0.149-0.103 0.236 0.082 0.116 0.498-0.323 1.265-0.035 1.562 0.307l0.129 0.014c0.762-0.593 1.364-1.986 0.534-2.46-0.727-0.413-1.953 0.933-2.168 1.926" fill="#0d131a"/>
    </g>
    <g transform="translate(836.63 726.71)">
     <path d="m0 0c-0.052 0.474 0.396 1.171 1.138 1.111l0.074-0.16c-0.55 0.117-1.186-0.458-1.05-1.07z" fill="#0d131a"/>
    </g>
    <g transform="translate(841.73 726.33)">
     <path d="m0 0c0.375 0.266 0.729 0.85 0.925 1.483 0.31 1.009-6e-3 2.205-0.637 2.316-0.594 0.106-1.164-0.425-1.459-1.667-0.181-0.753-0.034-1.603 0.275-1.991 0.175-0.221 0.102-0.303-0.091-0.089-0.385 0.429-0.55 1.299-0.356 2.117 0.356 1.487 1.073 1.941 1.68 1.814 0.861-0.179 1.109-1.552 0.796-2.574-0.179-0.585-0.585-1.222-1.083-1.501-0.127-0.072-0.17 7e-3 -0.05 0.092" fill="#0d131a"/>
    </g>
    <g transform="translate(840.93 728.81)">
     <path d="m0 0c-0.158-0.527-0.062-1.18 0.17-1.239 0.279-0.069 0.555 0.287 0.756 0.917 0.202 0.632 0.082 1.189-0.145 1.249-0.224 0.058-0.552-0.157-0.781-0.927m0.129-1.406c-0.359 0.103-0.463 0.872-0.293 1.443 0.246 0.832 0.662 1.125 0.986 1.041 0.302-0.08 0.542-0.688 0.295-1.467-0.254-0.798-0.637-1.117-0.988-1.017" fill="#0d131a"/>
    </g>
    <g transform="translate(843.09 732.1)">
     <path d="m0 0c-2.057 1.641-5.233 1.408-6.71-0.13l0.094-0.174c1.049 1.232 4.282 1.804 6.445 0.075 1.228-0.979 1.83-2.505 1.675-4.124l0.187-0.079c0.198 1.728-0.393 3.397-1.691 4.432" fill="#0d131a"/>
    </g>
    <g transform="translate(841.64 723.64)">
     <path d="m0 0c-0.956-0.348-2.85-0.11-3.617 0.329-1.639 0.933-2.826 2.722-3.037 4.529-0.01 0.111-0.198 0.602-0.196 0.548 0.073-2.177 1.143-4.105 3.141-5.242 0.98-0.559 2.908-0.658 3.775-0.342 1.223 0.445 2.244 1.721 2.719 2.757l-0.111 0.228c-0.299-0.85-1.661-2.438-2.674-2.807" fill="#0d131a"/>
    </g>
    <g transform="translate(844.34 726.62)">
     <path d="m0 0c0.234-0.819 1.788-2.144 2.444-1.345 0.684 0.838-0.383 1.733-2.199 2.391-0.319 0.114-0.27 0.252 0.041 0.142 1.912-0.671 3.227-1.607 2.34-2.709-0.75-0.926-2.439 0.322-2.77 1.474-0.079 0.28 0.066 0.321 0.144 0.047" fill="#0d131a"/>
    </g>
    <g transform="translate(833.87 727.37)">
     <path d="m0 0c-0.178 0.578 0.244 1.255 0.928 1.453l0.03-0.176c-0.592-0.173-0.884-0.755-0.756-1.203 0.129-0.448 0.786-0.757 1.201-0.644l0.096-0.161c-0.645-0.156-1.351 0.249-1.499 0.731" fill="#0d131a"/>
    </g>
    <g transform="translate(837.67 721.02)">
     <path d="m0 0c-1.408 0.616-0.737 1.952-1.225 2.278l-0.027 0.199c0.77-0.427-0.016-1.729 1.324-2.303 0.988-0.422 1.513 0.156 2.369 0.175 1.085 0.023 1.288-0.553 2.51-0.193 0.767 0.225 0.738 0.903 1.055 1.108 0.363 0.236 1.639-0.323 1.728-0.061 0.179 0.494-1.945 1.951-2.486 2.061l0.145 0.151c0.668-0.263 2.808-1.672 2.582-2.314-0.182-0.507-1.551 0.22-1.871 3e-3 -0.26-0.18-0.235-0.899-1.072-1.158-1.27-0.391-1.511 0.27-2.591 0.213-0.837-0.044-1.342-0.641-2.441-0.159" fill="#0d131a"/>
    </g>
    <g transform="translate(836.37 725.08)">
     <path d="m0 0c-0.313 0.098-1.186 0.045-1.464 1e-3l-0.092 0.16c0.26 0.053 1.011 0.114 1.423 0.043z" fill="#0d131a"/>
    </g>
    <g transform="translate(828.27 726.54)">
     <path d="m0 0c-0.097 0.817 0.617 1.646 1.732 1.988 1.359 0.418 3.122 0.064 3.993-1.618 0.058-0.118 1.054-2.581 2.421-3.412 0.028-0.016 0.297-0.357 0.028-0.199-1.254 0.735-1.853 1.974-2.653 3.518-0.824 1.583-2.445 1.877-3.729 1.481-1.024-0.314-1.638-0.991-1.55-1.714 0.217-1.791 4.531-5.248 8.17-5.154 0.323 0.01 0.434-0.111 0.025-0.136-3.587-0.216-8.198 3.281-8.437 5.246" fill="#0d131a"/>
    </g>
    <g transform="translate(831.77 725.49)">
     <path d="m0 0c-0.504 0.488-1.118 1.654-1.118 2.173 0 0.39 0.112 0.666 0.321 0.856l0.253-0.026c-0.24-0.182-0.367-0.479-0.367-0.833 0-0.472 0.59-1.626 1.064-2.074 0.248-0.231 0.483-0.086 0.354 0.116-0.391 0.6-0.879 1.4-0.9 1.949-0.01 0.284 0.081 0.561 0.299 0.811l0.222-0.063c-0.185-0.214-0.326-0.5-0.316-0.736 0.013-0.401 0.308-1.053 0.849-1.884 0.289-0.444-0.295-0.643-0.661-0.289" fill="#0d131a"/>
    </g>
    <g transform="translate(830.1 725.13)">
     <path d="m0 0c-0.494 0.454-1.33 1.351-1.315 2.075 4e-3 0.222 0.094 0.445 0.196 0.586l0.287 0.18c-0.209-0.249-0.293-0.45-0.307-0.708-0.035-0.66 0.788-1.612 1.305-2.068 0.215-0.188 0.498-0.111 0.297 0.085-0.51 0.49-1.243 1.597-1.234 2.164 3e-3 0.278 0.113 0.556 0.312 0.759l0.26 0.084c-0.199-0.191-0.385-0.578-0.383-0.803 7e-3 -0.589 0.721-1.63 1.207-2.142 0.343-0.36-0.189-0.612-0.625-0.212" fill="#0d131a"/>
    </g>
    <g transform="translate(829.8 716.63)">
     <path d="m0 0c0 1.313 4.056 1.786 5.332 1.106v-0.158c-1.471 0.683-5.143-5e-3 -5.143-0.948 0-0.874 3.581-1.08 5.103 0.345l0.103 0.015c1.755-0.776 6.443 1.716 6.775 3.864l0.164 5e-3c-0.38-2.463-4.967-4.729-6.966-4.042-1.701-1.57-5.368-1.376-5.368-0.187" fill="#0d131a"/>
    </g>
    <g transform="translate(835.11 717.66)">
     <path d="m0 0c0.016 1.146 0.449 3.041 0.787 3.671l0.246-7e-3c-0.384-0.718-0.863-2.75-0.908-3.672-0.019-0.378-0.13-0.367-0.125 8e-3" fill="#0d131a"/>
    </g>
    <g transform="translate(835.98 716.72)">
     <path d="m0 0 0.418 0.036c2.473-0.744 4.099-0.822 4.454-0.225 0.242 0.402-0.72 1.011-1.776 1.067l0.197 0.123c0.924-0.091 2.197-0.68 1.812-1.324-0.541-0.906-3.024-0.356-5.105 0.323" fill="#0d131a"/>
    </g>
    <g transform="translate(845.11 714.91)">
     <path d="m0 0c-1.862 0.667-3.479 3.198-3.324 5.105l0.199 0.373c-0.295-1.921 1.275-4.577 3.191-5.264 1.176-0.421 2.747-0.015 3.479 0.5 0.334 0.234 0.502 0.496 0.502 0.706 0 0.429-0.278 0.703-0.699 0.812-2.795 0.731-4.784 2.284-5.36 4.135l0.162 0.111c0.207-0.669 1.227-2.977 5.277-4.035 0.537-0.141 0.864-0.445 0.864-1.01 0-1.132-2.576-2.049-4.291-1.433" fill="#0d131a"/>
    </g>
    <g transform="translate(846.05 714.91)">
     <path d="m0 0c0.057 0.205 0.081 0.426 0.066 0.647-0.023 0.305-0.205 0.759-0.379 0.959-0.218 0.251 0.317 0.486 0.637 0.124 0.295-0.336 0.467-0.696 0.512-1.054 0.029-0.233 0.029-0.46-0.05-0.662l-0.202-0.019c0.089 0.227 0.102 0.442 0.078 0.676-0.041 0.359-0.219 0.73-0.523 1.045-0.134 0.138-0.399 0.059-0.304-0.056 0.19-0.247 0.401-0.699 0.43-0.999 0.02-0.207 0-0.432-0.07-0.677z" fill="#0d131a"/>
    </g>
    <g transform="translate(848.22 715.33)">
     <path d="m0 0c0.032 0.202 0.025 0.553-0.026 0.722-0.083 0.259-0.346 0.58-0.739 0.82-0.342 0.21 0.105 0.425 0.564 0.173 0.408-0.225 0.707-0.48 0.805-0.804 0.048-0.157 0.048-0.345 0.026-0.54l-0.176-0.147c0.034 0.231 0.046 0.465 5e-3 0.638-0.086 0.337-0.439 0.633-0.789 0.809-0.209 0.107-0.467 0.035-0.304-0.069 0.426-0.269 0.677-0.522 0.781-0.841 0.05-0.147 0.064-0.518 0.041-0.686z" fill="#0d131a"/>
    </g>
   </g>
  </g>
 </g>
</svg>
