<?xml version="1.0" encoding="UTF-8"?>
<!-- Created with Inkscape (http://www.inkscape.org/) -->
<svg version="1.1" viewBox="0 0 611.85 557.73" xml:space="preserve" xmlns="http://www.w3.org/2000/svg"><defs><clipPath id="clipPath1979"><path d="M 0,841.89 H 595.276 V 0 H 0 Z"/></clipPath></defs><g transform="matrix(1.3333 0 0 -1.3333 -109.51 975.65)"><g clip-path="url(#clipPath1979)"><g transform="translate(184.11 571.47)"><path d="m0 0c-10.582-8.838-29.863-9.516-39.878 4.314-8.607 11.887-3.306 28.969 6.489 36.519 2.103-3.479 14.167-24.395 27.641-32.777 0.692-2.837 4.323-7.09 5.748-8.056" fill="#0c5fac"/></g><g transform="translate(166.85 640.99)"><path d="m0 0c-4.408-41.167 2.009-69.085 62.659-104.83 37.399-22.046 103.84-18.557 123.31-1.206 22.094 19.682 35.508 56.697 32.538 97.605-3.668 50.488-43.627 91.311-99.615 96.401-53.021 4.82-112.07-24.205-118.89-87.966" fill="#0c5fac"/></g><g transform="translate(360.45 629.74)"><path d="m0 0c52.746-6.156 77.224-35.571 60.651-57.037-14.396-18.651-48.3-5.43-65.471 36.953z" fill="#0c5fac"/></g><g transform="translate(298.75 678.03)"><path d="m0 0c14.329-2.875 21.921-29.857 14.329-55.956-5.337-18.348-20.738-43.81-38.467-39.055-17.391 4.667-20.751 35.496-15.691 53.836 7.524 27.281 24.686 44.21 39.829 41.175" fill="#fff"/></g><g transform="translate(290.16 665.35)"><path d="m0 0c6.123-1.479 9.097-11.386 4.243-29.836-3.069-11.66-11.961-24.325-18.969-22.322-8.535 2.436-7.982 18.328-4.953 29.982 3.755 14.453 12.218 23.976 19.679 22.176" fill="#3e3b3a"/></g><g transform="translate(289.1 662.77)"><path d="m0 0c3.894-1.045 4.919-7.136 3.092-13.193-1.653-5.463-6.162-9.968-10.386-8.503-3.824 1.329-4.962 6.554-2.743 12.936 2.078 5.968 6.712 9.651 10.037 8.76" fill="#fff"/></g><g transform="translate(164.14 701.83)"><path d="m0 0c15.665-10.191 44.607-12.135 55.653-17.044 20.873-9.274 25.761-48.251 18.204-68.726-16.214-43.927-46.081-47.536-62.999-33.749-23.935 19.502-36.331 58.958-37.227 78.747" fill="#fff"/></g><g transform="translate(130.82 728.15)"><path d="m0 0c21.54 0 33.113-16.141 32.317-36.205-0.638-16.101-14.327-30.012-33.134-30.272-18.045-0.248-31.705 16.507-31.705 32.523 0 19.151 15.41 33.954 32.522 33.954" fill="#ec86ad"/></g><g transform="translate(125.15 720.68)"><path d="m0 0c4.674 0 8.331-3.486 8.331-9.028 0-5.151-4.381-8.396-8.761-8.542-4.754-0.159-8.426 3.519-8.426 8.141 0 5.755 4.715 9.429 8.856 9.429" fill="#f6c9da"/></g><g transform="translate(432.07 404.01)"><path d="m0 0c-7.014 27.629-32.75 74.461-49.634 91.712-3.334-0.239-6.316-0.875-8.727-2.137-15.502-8.117-8.634-17.028-33.749-23.931-26.235-7.21-40.516 8.05-53.54 8.745-11.506 0.612-34.976-14.421-53.232-7.211-0.613 0.242-1.158 0.517-1.694 0.797-7.309-29.863-36.054-65.353-85.46-83.291-31.23-11.338-60.669-12.211-60.669-28.644 0-18.498 45.357-20.91 63.256-20.485 75.585 1.789 92.573 40.57 114.65 87.514 7.456-11.314 19.462-23.287 31.892-29.373 28.5-13.951 79.856-14.398 124.69-5.524 13.473-18.774 39.787-34.643 58.565-37.9 11.94-2.072 58.745 16.868 59.274 27.848 0.597 12.331-58.479 38.986-105.62 21.88" fill="#0c5fac"/></g><g transform="translate(85.94 365.77)"><path d="m0 0c14.77-17.724 82.682-15.946 113.69-0.591 30.058 14.887 48.327 48.426 43.478 79.964-1.67 10.855-13.36 12.525-18.37 10.855l6.763 15.991c3.268-1.981 12.402-3.503 17.443-2.866 0.591-4.431 6.951-33.476 14.469-41.046-13.288-37.503-34.541-66.093-57.877-77.073-45.703-21.504-129.99-12.675-119.59 14.766" fill="#015295"/></g><g transform="translate(431.41 393.29)"><path d="m0 0c10.446-11.36 34.695-28.118 49.678-29.447 15.075-1.337 48.264 12.644 55.072 20.547 7.295-10.943-44.104-31.501-56.508-31.501-12.403 0-47.937 20.255-59.8 39.297-133.37-26.252-164.4 26.537-170.34 76.005 2.567 0.621 30.236 9.917 35.961 10.235 9.106 0.506 33.571-13.218 50.764-10.119 29.009 5.229 25.972 27.322 46.886 27.322 4.384-3.373 7.757-8.434 8.601-11.806-22.769 6.24-23.612-30.358-53.294-32.887-19.316-1.647-31.006 3.336-41.044 4.284-3.856 0.362-9.818-2.499-8.771-7.989 8.879-46.535 95.293-54.786 134.84-50.543 3.682 0.398 5.703-0.939 7.965-3.398" fill="#015295"/></g><g transform="translate(356.29 474.43)"><path d="m0 0c13.396-22.843 28.702-86.939 21.285-126.51-4.777-25.469-43.826-32.082-78.723-32.106-24.504-0.022-48.606 7.147-53.786 12.684-3.637 3.89-5.936 9.033-5.936 15.842 0 18.101 39.818 22.816 55.895 51.517 11.244 20.071 17.339 52.596 11.338 73.996l19.021 9.573z" fill="#0c5fac"/></g><g transform="translate(239.35 347.03)"><path d="m0 0c11.259-18.977 116.71-36.81 138.94 11.521 2.842-13.956-9.053-44.849-79.605-43.678-62.288 1.034-59.445 25.845-59.332 32.157" fill="#015295"/></g><g transform="translate(362.85 545.92)"><path d="m0 0c-28.302-37.066-102.45-28.764-138.38-6.735-21.22-8.353-57.645-38.395-51.875-45.752 7.026-8.956 38.571 3.232 46.329-1.382 5.677-3.375 2.159-16.081 14.266-20.862 18.256-7.21 41.727 7.823 53.232 7.211 13.025-0.695 27.306-15.956 53.54-8.745 25.116 6.903 18.247 15.814 33.749 23.931 16.108 8.437 57.372-10.739 63.049 6.291 5.392 16.174-53.747 40.408-73.907 46.043" fill="#bce1e8"/></g><g transform="translate(260.53 321.85)"><path d="m0 0c-1.593 3.581-1.91 8.363-1.112 11.148 3.382 11.798 20.1 26.536 24.04 30.197 5.909 5.487 16.174 2.134 11.158-4.429-4.183-5.48-17.894-19.802-19.881-26.565-1.758-5.975 0.196-11.337 0.994-13.126-5.182-0.347-12.873 1.313-15.199 2.775" fill="#fff"/></g><g transform="translate(101.79 344.92)"><path d="m0 0c-1.329 2.249-2.018 7.273-1.046 10.25 2.715 8.313 32.409 15.082 39.77 18.662 8.84 4.301 0.155 6.576-9.932 3.804-15.563-4.279-34.251-8.034-39.844-16.748-1.473-2.294-1.756-4.903-1.169-7.993-0.025-1.764 9.457-6.919 12.221-7.975" fill="#fff"/></g><g transform="translate(100.75 355.17)"><path d="m0 0c0.206 0.63 0.583 1.249 1.077 1.86-4.125 1.194-7.732 2.666-10.651 4.428-0.139-0.192-0.306-0.373-0.432-0.57-1.473-2.294-1.756-4.903-1.169-7.993-0.019-1.341 5.455-4.64 9.297-6.61 0.904-0.392 1.838-0.773 2.813-1.135-1.252 2.336-1.878 7.132-0.935 10.02" fill="#dbdddc"/></g><g transform="translate(333.01 320.27)"><path d="m0 0c-0.347 0.691-2.182 5.213-1.194 10.342 1.845 9.605 7.703 25.038 8.221 27.889 0.797 4.376-8.858 5.169-11.41 1.269-3.591-5.493-10.971-19.579-13.721-28.96-1.139-3.887-0.992-8.153 1.194-12.529 5.343-1.471 12.743-0.372 16.91 1.989" fill="#fff"/></g><g transform="translate(365.63 520.18)"><path d="m0 0c-2.736-2.959 4.221-7.461 7.689-9.281 3.773-1.974 11.299-4.718 12.798-1.66 1.297 2.65-5.569 6.962-8.354 8.355-2.78 1.39-10.008 4.887-12.133 2.586" fill="#dff0f4"/></g><g transform="translate(210.28 516.4)"><path d="m0 0c1.582-0.937-1.371-6.171-4.774-9.745-3.918-4.114-11.547-8.459-13.725-6.365-1.603 1.539 3.921 8.187 6.227 10.373 2.638 2.501 9.598 7.323 12.272 5.737" fill="#dff0f4"/></g><g transform="translate(98.377 690.99)"><path d="m0 0c5.359-14.504 23.055-23.25 41.104-16.286 13.405 5.175 23.357 20.195 20.707 34.823 10.742-18.357-3.198-40.972-16.35-46.098-27.136-10.578-45.932 12.259-45.461 27.561" fill="#cd7497"/></g><g transform="translate(145.5 664.88)"><path d="m0 0c2.324-18.946 47.366-85.976 70.245-82.401-11.439-11.439-29.892-8.78-37.378-2.96-26.808 20.842-42.195 59.373-40.375 83.037 0 0 5.543 1.788 7.508 2.324" fill="#dbdddc"/></g><g transform="translate(141.21 596.96)"><path d="m0 0c-1.018-16.796 23.771-26.115 36.643-17.339l6.076-8.757c-17.163-15.858-52.088 0.47-42.719 26.096" fill="#015295"/></g><g transform="translate(211.99 578.73)"><path d="m0 0c37.406-39.381 135.71-47.701 157.12 7.328l9.653-10.724c-1.789-9.116-19.126-40.218-28.778-43.792-102.93-38.121-161.05 33.067-170.16 46.652 7.149-5.006 23.773-3.932 32.173 0.536" fill="#015295"/></g><g transform="translate(355.63 609.66)"><path d="m0 0c19.415-27.752 52.458-47.45 66.322-32.324-14.64-29.594-55.45-2.492-66.322 32.324" fill="#015295"/></g><g transform="translate(209.21 531.5)"><path d="m0 0c13.954-17.235 43.226-27.905 79.066-27.905 43.227 0 86.313 16.929 88.368 37.481l-13.793 4.845c-10.937-17.843-30.603-25.715-74.431-25.715-29.66 0-49.974 9.833-63.952 18.98-2.709-0.036-13.153-5.582-15.258-7.686" fill="#a3c3c9"/></g><g transform="translate(260.53 321.85)"><path d="m0 0c2.326-1.462 10.017-3.122 15.199-2.775-0.745 1.671-2.459 6.467-1.256 11.962-5.19 1.084-10.042 2.376-14.405 3.818-0.243-0.623-0.474-1.246-0.65-1.857-0.798-2.785-0.481-7.567 1.112-11.148" fill="#dbdddc"/></g><g transform="translate(316.1 318.28)"><path d="m0 0c5.343-1.471 12.743-0.372 16.91 1.989-0.316 0.63-1.846 4.454-1.368 9.013-5.646-0.943-11.48-1.489-17.353-1.691-0.286-2.976 0.214-6.113 1.811-9.311" fill="#dbdddc"/></g><g transform="translate(308.27 462.97)"><path d="m0 0c20.454-7.066 41.28-4.09 49.461 7.81l-1.644 5.422c-6.021-4.061-27.027-12.464-50.693-4.201 0.42-2.52 3.247-8.659 2.876-9.031" fill="#015295"/></g><g transform="translate(285.93 731.18)"><path d="m0 0c-43.672 3.975-79.183-13.719-99.371-37.611 1.658-0.204 3.118-0.699 4.369-1.416 23.449 26.67 60.433 37.299 94.149 34.237 63.01-5.731 99.364-53.856 97.938-100.67l5.44-1.658c1.639 50.012-35.09 100.99-102.52 107.12" fill="#0f141b"/></g><g transform="translate(375.81 576.7)"><path d="m0 0c-5.515-16.156-13.991-30.217-25.006-40.034-9.311-8.293-30.629-13.582-55.1-13.579-25.194 0-49.05 5.731-65.328 15.322-23.368 13.777-38.478 25.859-48.07 38.544-0.769 1.018-8.531 5.46-7.84 4.308 9.418-15.657 25.776-30.879 53.568-47.262 16.9-9.963 41.79-15.706 67.709-15.706 25.824 0 48.328 5.53 58.512 14.604 11.146 9.932 20.172 23.669 25.938 39.776z" fill="#0f141b"/></g><g transform="translate(358.12 607.73)"><path d="m0 0c13.708-30.923 45.459-52.883 60.604-33.261 15.619 20.233-10.903 47.372-55.801 53.507-7.765 1.052-6.928 4.525 0.934 3.445 60.458-8.302 74.614-40.831 59.451-60.469-15.554-20.145-48.758-9.257-68.084 35.331-2.733 6.3 0.178 7.592 2.896 1.447" fill="#0f141b"/></g><g transform="translate(129.79 663.76)"><path d="m0 0c-13.819 0.081-29.023 12.935-29.023 30.871 0 17.232 14.576 31.289 29.899 31.4 17.387 0.126 31.032-12.378 30.342-33.164-0.518-15.622-14.141-29.207-31.218-29.107m1.501 67.025c-18.944 0-35.902-15.926-35.902-36.653 0-16.372 14.301-34.462 33.974-34.939 20.381-0.493 35.647 14.675 36.353 32.511 0.985 24.881-16.19 39.081-34.425 39.081" fill="#0f141b"/></g><g transform="translate(172.75 580.9)"><path d="m0 0c-24.338 19.832-35.909 59.031-36.844 79.677-0.05 1.153 3.722 1.865 3.772 0.713 0.9-19.897 12.48-57.2 35.898-76.143 19.747-15.975 46.207-6.561 60.378 31.83 8.014 21.714 2.497 56.57-17.004 65.903-8.576 4.103-37.063 6.26-55.598 17.395-0.325 0.196-0.842 4.178 0.144 3.574 17.107-10.472 50.473-13.575 57.078-16.794 21.866-10.651 28.249-48.399 19.661-71.665-15.741-42.648-46.407-51.67-67.485-34.49" fill="#0f141b"/></g><g transform="translate(191.91 681.14)"><path d="m0 0c2.992-0.841 12.472-3.556 14.308-3.953 5.816-1.259 6.817 2.48 1.225 3.997-1.787 0.49-11.379 2.27-14.448 2.961-6.322 1.434-7.259-1.268-1.085-3.005" fill="#0f141b"/></g><g transform="translate(189.31 666.97)"><path d="m0 0c4.217-2.158 11.412-6.149 15.657-8.457 4.299-2.34 6.385 1.419 2.281 3.667-3.909 2.149-12.119 5.887-16.752 7.8-5.245 2.162-6.089-0.501-1.186-3.01" fill="#0f141b"/></g><g transform="translate(287.2 585.53)"><path d="m0 0c11.252 5.761 19.568 23.553 23.458 36.926 7.649 26.307-0.567 50.178-13.635 52.797-15.494 3.114-28.984-12.459-36.373-38.638-4.114-14.574-2.497-37.66 6.199-47.584 2.942-3.359 1.295-5.225-1.723-2.008-11.024 11.718-12.179 36.028-8.215 50.388 8.114 29.417 23.915 47.934 41.871 44.344 18.126-3.636 24.627-32.544 16.5-60.48-4.272-14.682-14.768-31.699-27.186-38.057-3.019-1.545-4.631 0.401-0.896 2.312" fill="#0f141b"/></g><g transform="translate(272.38 643.1)"><path d="m0 0c-3.103-11.937-2.811-26.063 3.624-27.9 5.068-1.45 13.144 9.574 16.162 21.043 4.561 17.334 2.026 26.523-2.336 27.578-6.128 1.49-13.684-6.223-17.45-20.721m4.567-32.207c-0.712 0-1.414 0.099-2.089 0.29-10.913 3.119-8.897 21.695-6.141 32.307 4.262 16.4 14.16 25.469 21.891 23.604 6.311-1.526 12.029-9.486 6.077-32.098-3.048-11.586-11.627-24.103-19.738-24.103" fill="#0f141b"/></g><g transform="translate(142.5 574.24)"><path d="m0 0c-9.331 12.885-3.595 30.997 7.158 39.291 0.911 0.701 2.606-2.116 1.691-2.818-9.217-7.11-13-22.904-5.299-33.542 7.2-9.945 25.447-13.118 35.15-5.012 0.884 0.737 3.885-2.388 3.001-3.127-12.225-10.211-32.847-7.019-41.701 5.208" fill="#0f141b"/></g><g transform="translate(286.15 476.59)"><path d="m0 0c-12.022 0.517-31.553-15.279-54.381-7.535-11.35 3.853-9.932 19.322-13.832 21.276-7.668 3.842-42.167-8.335-48.042 1.162-6.855 11.08 35.346 41.4 51.169 48.074 0.42 0.177 5.369-3.04 4.268-3.386-18.57-5.818-54.892-35.144-50.347-41.513 4.881-6.838 37.044 3.277 44.802-0.9 6.151-3.31 3.97-15.796 13.63-20.082 18.062-8.015 40.41 6.774 52.968 6.591 10.749-0.157 29.947-14.926 52.81-8.474 22.013 6.21 20.567 17.434 33.434 23.601 16.453 7.882 56.521-9.293 61.747 5.376 4.484 12.595-38.26 32.139-71.499 42.666-1.099 0.349 2.229 3.682 2.538 3.578 16.88-5.799 80.758-29.716 74.291-48.288-6.123-17.587-50.993 0.418-65.174-6.764-10.45-5.291-10.424-18.69-34.002-24.643-27.237-6.875-42.376 8.745-54.38 9.261" fill="#0f141b"/></g><g transform="translate(296.09 399.58)"><path d="m0 0c-22.285 10.91-40.803 39.393-44.098 69.222-0.124 1.146-4.247 0.658-4.146-0.49 2.839-31.947 20.426-59.758 46.407-72.48 0.057-0.028 1.879 3.73 1.837 3.748" fill="#0f141b"/></g><g transform="translate(421.58 394.11)"><path d="m0 0c-14.113-2.898-28.399-4.499-42.151-5.41l0.244-4.199c14.854 0.987 29.554 3.553 42.636 6.542 6.216 1.418 5.578 4.366-0.729 3.067" fill="#0f141b"/></g><g transform="translate(478.08 352.03)"><path d="m0 0c-20.576 3.484-47.48 22.417-59.513 38.762-0.682 0.928 3.129 1.918 3.853 1.022 11.865-14.689 36.613-31.506 56.222-34.907 13.646-2.352 55.71 17.341 56.001 25.138 0.439 11.881-58.669 35.993-101.58 20.425-1.392-0.509-2.419 0.204-2.734 1.448-6.707 26.423-40.548 84.763-50.328 90.055-1.013 0.55 5.227 1.38 6.274 0.467 13.558-11.832 39.071-59.506 46.926-88.259 47.723 15.882 108.53-8.722 107.81-23.649-0.576-11.864-46.057-33.361-62.936-30.502" fill="#0f141b"/></g><g transform="translate(82.135 360.14)"><path d="m0 0c0.288 18.934 30.418 18.877 63.111 30.746 54.357 19.733 78.475 59.565 84.11 80.12 0.306 1.111 4.332 9e-3 4.027-1.105-5.848-21.326-30.616-62.653-86.574-82.97-27.94-10.141-59.604-11.077-59.529-26.791 0.058-11.97 27.853-19.1 61.057-18.3 71.704 1.696 90.006 36.184 113.27 85.672l2.837-3.912c-21.893-46.568-40.241-84.619-115.86-86.408-38.974-0.917-66.697 6.699-66.45 22.948" fill="#0f141b"/></g><g transform="translate(357.64 476.27)"><path d="m0 0c-0.584 0.994-3.733-1.906-3.148-2.9 13.258-22.608 27.773-86.287 20.541-124.86-4.951-26.408-50-30.358-76.509-30.369-24.597-7e-3 -47.117 7.213-51.6 12.007-3.615 3.865-5.235 8.312-5.229 14.148 0.015 16.862 42.975 25.085 55.624 50.851 10.274 20.925 17.308 52.913 11.081 74.972-0.317 1.111-4.672 2.123-4.306 1.031 7.234-21.599-1.275-55.516-10.887-74.278-13.943-27.216-56.797-30.973-56.74-52.271 0.018-6.847 2.351-13.329 6.663-17.94 5.902-6.306 30.934-13.24 55.394-13.231 64.772 0.024 79.294 21.503 81.658 34.108 7.518 40.102-8.65 105.04-22.542 128.73" fill="#0f141b"/></g><g transform="translate(273.91 318.92)"><path d="m0 0c-1.323 2.748-2.453 8.421-1.323 13.243 1.735 7.404 17.739 24.001 19.916 27.063 3.865 5.433-2.068 8.253-9.389 1.454-9.731-9.039-21.18-21.691-22.414-26.87-0.681-2.855 0.3-8.561 1.71-11.728 0.466-1.053-4.232-0.014-4.413 0.538-1.276 3.876-2.02 8.968-1.135 12.352 1.659 6.346 13.807 18.049 23.163 27.334 10.314 10.235 23.555 5.102 15.774-4.391-2.528-3.083-16.825-19.426-19.066-26.3-1.232-3.78 1.237-12.056 1.846-13.433 0.469-1.056-4.532 0.455-4.669 0.738" fill="#0f141b"/></g><g transform="translate(98.48 347.9)"><path d="m0 0c-0.554 2.451-0.63 5.299 0.063 7.648 2.174 7.36 29.149 15.166 39.708 18.917 7.182 2.552 3.411 4.321-5.971 2.138-11.281-2.624-34.943-8.266-40.115-16.676-1.442-2.343-1.533-5.538-0.256-8.499 0.456-1.057-2.947 1.686-3.209 2.808-0.638 2.745-0.395 5.325 0.853 7.414 4.963 8.307 24.271 12.506 37.716 16.352 18.133 5.187 23.579-0.991 14.342-5.493-6.294-3.069-36.73-11.359-38.903-18.326-0.729-2.341-0.328-6.026 0.74-7.837 0.589-0.992-4.65 0.142-4.968 1.554" fill="#0f141b"/></g><g transform="translate(313.92 317.01)"><path d="m0 0c-2.279 4.559-2.849 10.041-1.45 14.807 2.879 9.823 10.763 23.078 14.228 28.376 3.653 5.585 16.463 4.557 15.4-2.064-0.292-1.798-7.019-21.474-8.229-27.91-0.908-4.837 1.258-9.716 1.28-9.755 0.514-1.031-3.487-2.155-4.001-1.127-0.026 0.053-2.602 5.304-1.377 11.671 1.205 6.272 7.701 24.046 8.267 27.371 0.436 2.569-5.382 3.72-7.657 0.251-3.343-5.112-10.839-18.035-13.602-27.464-1.091-3.719-0.095-9.013 2.255-12.999 0.587-0.994-4.75-1.889-5.114-1.157" fill="#0f141b"/></g><g transform="translate(201.65 619.92)"><path d="m0 0c-3.986 5.115-8.108 9.311-10.68 11.408-9.484-8.05-23.379-8.16-30.327-7.168 0.53-7.931 10.885-25.375 23.084-35.024-2.224 18.823 4.548 26.215 17.923 30.784" fill="#92331e"/></g><g transform="translate(207.07 584.57)"><path d="m0 0c11.897 7.507 3.588 23.787-5.421 35.35-13.375-4.569-20.148-11.961-17.923-30.784 7.716-6.101 16.166-9.094 23.344-4.566" fill="#ec8599"/></g><g transform="translate(184.24 603.42)"><path d="M 0,0 C 1.765,7.388 9.153,15.881 18.416,16.542 23.82,11.248 26.356,4.631 27.569,-1.985 22.937,6.727 7.829,7.719 0,0" fill="#d07487"/></g><g transform="translate(159.49 623.2)"><path d="M 0,0 C -4.679,1.412 -4.141,3.833 0.206,2.811 8.453,0.878 24.243,4.36 31.143,9.882 35.204,13.131 37.329,11.269 33.455,7.893 23.167,-1.072 9.606,-2.9 0,0" fill="#0f141b"/></g><g transform="translate(159.56 623.4)"><path d="m0 0c-0.212 1.204 3.078 0.998 3.292-0.206 2.95-16.719 27.881-44.398 43.428-36.356 8.932 4.626 3.837 27.213-15.181 42.665-0.949 0.771 1.517 2.829 2.469 2.056 18.001-14.623 28.843-42.057 15.185-49.128-17.08-8.85-45.125 17.917-49.193 40.969" fill="#0f141b"/></g><g transform="translate(181.7 592.48)"><path d="m 0,0 c -2.032,13.879 6.645,26.638 18.443,28.454 1.209,0.191 3.092,-2.179 1.884,-2.373 C 9.951,24.415 -0.082,10.469 3.768,-2.305 4.12,-3.476 0.162,-1.111 0,0" fill="#0f141b"/></g></g></g></svg>
