<?xml version="1.0" encoding="UTF-8"?>
<!-- Created with Inkscape (http://www.inkscape.org/) -->
<svg version="1.1" viewBox="0 0 198.98 168.12" xmlns="http://www.w3.org/2000/svg">
 <g transform="translate(-5.9155 -41.331)">
  <g transform="matrix(.55341 0 0 .55341 5.9155 41.331)">
   <g>
    <path class="st0" d="m198.13 1.85c-40-2.1-65.1 23.6-71.3 53.7-5.9 29.1 7.1 75.3 60.4 78.6 38.8 2.4 74.9-25.3 78-57.4 2.9-29.7-23-72.5-67.1-74.9" fill="#0c5fac"/>
    <path class="st1" d="m184.53 24.85c-8.2-0.3-19.5 12.3-21.2 29.3-1.4 13.1 3.3 27 11.2 28.5 6.4 1.2 20.1-7.9 22.5-25.9 2-15.9-4-31.5-12.5-31.9" fill="#fff"/>
    <path class="st2" d="m181.23 43.25c-3.8-0.5-8.1 5.3-9.7 15.9-1.6 10.8 1.3 18.7 4.8 19.3 3.9 0.7 10.1-6.1 11.4-16.8 1.3-10.8-2.9-18-6.5-18.4" fill="#3e3b3a"/>
    <path class="st1" d="m180.93 44.65c-2.5-0.2-4.9 2.6-5.6 7.3-0.6 3.9 0.8 7.5 3 7.9 2.9 0.6 5.5-2 5.9-7 0.5-4.4-0.8-8-3.3-8.2" fill="#fff"/>
    <path class="st0" d="m266.63 80.95c9.4 7 9.1 19.5 4.5 24.7-5 5.7-12.9 6.3-18.3 0.8 2.5-3.2 8.9-13.1 9.4-20 1.4-1.6 4.4-5.5 4.4-5.5" fill="#0c5fac"/>
    <path class="st3" d="m233.63 122.55c23.4 1.9 45.4 20.4 42.9 24.9-1.6 2.8-22.8-2.1-29 0.5-3.2 1.4-4.2 10.4-13.2 13.8s-26.7-3.6-29.8-4.4c-7.5-2-11-1.6-17.5 0.8-8.1 3-20.9 4.8-31.7 1.7-11.4-3.2-17.5-9.9-19.9-18.9-0.7-2.5-2.9-4.7-6.6-4.5-17.8 1.2-36.7-4.8-36.8-9.3-0.2-6.4 21.1-16.4 46.4-17.2 9.1 11.5 21.4 20.5 40.2 23.4 11.2 1.8 19.2 1.1 30.6-1.2 13.6-2.7 24.4-9.6 24.4-9.6" fill="#bce1e8"/>
    <path class="st4" d="m244.33 124.45c-3.5-1-7.1-1.7-10.7-2 0 0-10.7 6.9-24.4 9.7-11.4 2.3-19.4 3-30.6 1.2-18.7-2.9-31-11.9-40.2-23.4-2.7 0.1-5.3 0.3-7.9 0.5 21.5 39 67.7 44.5 113.8 14" fill="#a3c3c9"/>
    <path class="st0" d="m133.73 151.55c-20.8 23.4-51.1 36.7-77.3 33.2-15.2-2.1-35.2-13.4-46.5-27.9-7.2-9.2-9.2-18.9-6.6-23.3 3.9-6.5 14.7-10.1 23.4-7.7 7.2 2 37.5 10.9 41.7 11.8 15.8 3.4 29.6 2.9 46-1.2 4.2 0 11.9 0 13.4-0.1 3.6-0.2 6.5 1.3 7 3.1 0.4 1.3 1.3 4.6 2.2 6.2-1.3 2-3.3 5.9-3.3 5.9" fill="#0c5fac"/>
    <path class="st5" d="m134.83 139.65c-0.5-1.8-3.4-3.3-7-3.1-1.5 0.1-9.3 0.1-13.4 0.1-4.3 1.1-8.3 1.9-12.4 2.4 16.9 10.9 2 33.7-28 36.5-31.5 3-56.6-18.5-71.4-40.7-1.6 4.8 0.6 13.6 7.2 22 11.3 14.4 31.3 25.8 46.5 27.9 26.2 3.6 56.5-9.8 77.3-33.2 0 0 2-4 3.3-5.8-0.8-1.5-1.7-4.8-2.1-6.1" fill="#015295"/>
    <path class="st0" d="m245.13 150.45c4.3 2.5 22.7 7.6 30.4 8.6 16.4 2 23.1-1.2 41.4-6.2 15.2-4.1 28.3-4.8 36.7 1.1 6.5 4.6 7 23-5.4 38.3-17.4 21.6-59.7 30.8-85.4 15-16.6-10.2-49.9-44.4-56.3-48.4 4.6 0.9 19.9 5 26.2 3.7 9-1.9 12.4-12.1 12.4-12.1" fill="#0c5fac"/>
    <path class="st5" d="m353.63 153.95c-1.2-0.8-2.4-1.5-3.8-2.1 7.5 45.9-55.5 65.7-86.9 46.2-18.9-11.7-21.4-28-11.2-45-2.9-1-5.3-1.9-6.6-2.6 0 0-3.4 10.2-12.4 12-6.3 1.3-21.6-2.9-26.2-3.7 6.4 4 39.7 38.3 56.3 48.4 25.7 15.8 67.9 6.6 85.4-15 12.3-15.2 11.9-33.6 5.4-38.2" fill="#015295"/>
    <path class="st0" d="m206.73 263.65c4.5-3.8 16-11.1 19.4-13 16.3-9.4 28.3-10.5 32-3.3 5.9 11.7-1.8 31.9-13.8 37-9.5 4.1-33.1-0.4-45.5-11.8-8.5 20.6-27.6 32.5-42.4 29.1-16.4-3.8-23.6-20.7-22.3-29.7 1.1-8.1 10.3-14.9 19.8-12.9 8.2 1.7 13.6 5.8 33.9 8.9-32.9-26.5-53.5-62.2-57-79.3-3.4-16.6-0.3-35.1 6.3-42.8 2 3.8 7.2 12.3 19.5 14.6s20.6 0.6 24.9-0.5c4.2-1.1 8.6-3.1 11.6-3.7 2.9-0.6 7.2-0.6 13.1 1.5 2.3 2.3 7.7 7.2 9.5 8.9-4.5 11.7-8.6 33.7-9.6 45.8-0.4 5-1.4 21.6-1.2 28.6 0.1 13.7 1.8 22.6 1.8 22.6" fill="#0c5fac"/>
    <path class="st5" d="m158.63 172.35c12.8 4.5 27.7-7.7 35.5-5.8 7.7 1.8 13.5 7.8 15.5 21.6 1.3-5.5 4.4-17.6 5.9-21.5-1.8-1.6-7.1-6.6-9.5-8.9-5.9-2.1-10.1-2.1-13.1-1.5-2.9 0.6-7.3 2.6-11.6 3.7-4.2 1.1-12.5 2.8-24.9 0.5-12.3-2.3-17.5-10.8-19.5-14.6-4.3 5-7.9 15.9-7.9 32.3 9-9.6 17.4-10.1 29.6-5.8" fill="#015295"/>
    <path class="st1" d="m338.93 200.95c1-2.9 0.5-6.3-1.6-9.4-3.4-4.8-16.3-10.9-24.6-11.6-8.9-0.8-15 5.8-6.3 7.2 18.9 3 25 13.7 22.1 19.9 5.3-2.2 10.4-6.1 10.4-6.1" fill="#fff"/>
    <path class="st6" d="m328.53 207.05c5.4-2.2 10.4-6.2 10.4-6.2 1-2.9 0.5-6.3-1.6-9.4-0.3-0.5-0.8-1-1.3-1.5-2.9 2.5-6.1 4.8-9.6 6.7 2.8 3.7 3.4 7.6 2.1 10.4" fill="#dbdddc"/>
    <path class="st1" d="m357.33 172.95c-2.9-9-16.5-12.8-31.9-9.7-5.8 1.2-4.9 5.6-0.1 5.5 17.6-0.4 26.4 4.4 28.3 14.7 1.8-2.7 3.7-10.5 3.7-10.5" fill="#fff"/>
    <path class="st6" d="m357.33 172.95c-1.1-3.4-3.7-6-7.3-7.9-0.4 3-1.2 5.8-2.2 8.5 3.2 2.4 5.1 5.7 5.9 9.9 1.7-2.7 3.6-10.5 3.6-10.5" fill="#dbdddc"/>
    <path class="st1" d="m19.226 166.55c-3-8.4-2.9-17.2-0.9-20.3 2.8-4.5 7.8-7.3 19.9-9.2 6.7-1.1 2.5-4.9-3.8-5-10.3-0.2-19.3 4.3-22.6 9.7-1.7 2.7-1.7 9.1 1.5 19.1 1.4 1.9 5.9 5.7 5.9 5.7" fill="#fff"/>
    <path class="st6" d="m13.226 160.85c1.6 1.9 6 5.7 6 5.7-1.8-5.1-2.5-10.2-2.3-14.2-2.2-2.2-4.3-4.4-6.2-6.8-0.3 3.4 0.4 8.5 2.5 15.3" fill="#dbdddc"/>
    <path class="st1" d="m38.326 178.95c-3.5-4.1-4.1-11-1-15.5 4.3-6.1 9.4-7.9 20.8-9 7.9-0.7 4.3-5.8-2.4-6.3-13-1-21.2 2.4-25.8 10.6-2.9 5-2.3 10.5 1 16.1 1.6 1.7 7.4 4.1 7.4 4.1" fill="#fff"/>
    <path class="st6" d="m28.526 162.15c-1.1 4.1-0.2 8.4 2.4 12.8 1.7 1.6 7.4 4 7.4 4-2.7-3.1-3.7-8-2.5-12.1-2.6-1.4-5-3-7.3-4.7" fill="#dbdddc"/>
   </g>
   <g fill="#015295">
    <path class="st5" d="m133.33 274.35c1.4 7.1 14 18.7 27.5 19.6 13.5 1 24.5-6.4 34.5-21.5 2.2-3.4 3.3-3.8 6-1.3 6.1 5.4 26.6 11 39.4 6.5 13.6-4.7 20.4-21 18.4-28 3.4 15.4-4.3 31.4-16.5 35.3-12.6 4.1-35.2-3.9-43.8-11.7-9.1 19.4-23.4 28.4-37.4 29.2-8.3 0.5-18.1-5.9-22.3-11.7-5.1-7.4-5.8-16.4-5.8-16.4"/>
    <path class="st5" d="m130.33 73.35c10.3 50.6 87.5 61.8 115.3 40-17.6 17.3-53.3 25.4-75.8 18.3-25.4-8-41-30.1-44.5-53.4z"/>
    <path class="st5" d="m256.53 101.45c4.8 4.3 15 1.7 17.8-5.8-1.5 15.1-12.5 18.1-21.6 10.7 1.9-2.4 3.8-4.9 3.8-4.9"/>
   </g>
   <path class="st7" d="m128.23 56.55c-5.3 21 2.3 45.1 19.3 61.4 8.9 8.6 21.8 13.9 36.1 15 38.3 2.9 75.6-21.1 79.9-55.9 3.9-32.2-23.6-71.5-66-73.9-29.2-1.7-59.3 13.5-69.3 53.4m55.2 78.7c-14.9-1.1-28.9-6.9-38.2-15.8-17.6-16.9-25.5-42.3-20-64 9.9-39.3 39-57.3 72.2-55.3 44.9 2.6 72.8 45.3 68.9 77.6-4.7 38-44.9 60.4-82.9 57.5"/>
   <path class="st7" d="m186.53 76.15c15.9-15.6 9.6-48.7-1.9-50-3.8-0.4-8.3 2.4-12.1 7.7-6.9 9.4-11.2 25.8-5.1 41.4 1.5 3.7-0.1 4.2-1.6 0.4-12.3-29.6 8-53.5 19-52.3 14.5 1.6 21 37.2 3 54.2-3 2.8-4.2 1.5-1.3-1.4"/>
   <path class="st7" d="m172.73 59.35c-1.5 10.2 1.3 17.5 3.9 18 3.1 0.6 8.6-4.6 10-15.8 1.1-8.6-1.4-16.6-5.5-17.1-2.8-0.4-6.7 3.8-8.4 14.9m3.4 20.3c-4.7-0.9-7.6-10.2-6-20.7 1.8-12 7.2-17.4 11.3-16.9 5.7 0.7 9 9.8 7.8 19.8-1.6 12.9-9.3 18.6-13.1 17.8"/>
   <path class="st7" d="m251.93 107.25c-0.5-0.5 1.2-2.1 1.7-1.7 4.3 4.4 11.4 5 16.5-0.7 5.1-5.8 2.9-17.5-4.3-22.9-0.5-0.4 0.9-2.3 1.4-1.9 8.5 6.2 11.2 19.8 5.1 26.5-5.3 6-14.3 7.2-20.4 0.7"/>
   <path class="st7" d="m204.23 158.45c-7.3-2-10.6-1.5-16.8 0.8-7.7 2.9-20.9 5.4-32.6 2.1-11.1-3.2-18-10.2-20.6-20.1-0.5-1.9-2.2-3.9-5.4-3.6-24.5 2.1-38.7-5.2-38.9-10.2-0.3-7.9 24.9-18.4 47-18.6 0.7 0 2.4 2.2 1.8 2.2-32 1.6-45.7 12.6-45.6 16.1 0.1 2.3 11.4 9.8 35.6 8.1 4.7-0.3 7.1 2.7 7.8 5.4 2.4 9.2 8.7 15.1 19.1 18.1s23 1.3 31-1.7c6.6-2.5 10.4-3 18.2-0.9 6.5 1.7 21.8 7.2 29 4.4 5.3-2 7.6-6.1 9.4-9.3 1.2-2.1 2.2-3.8 3.8-4.5 5.4-2.3 27.4 1.7 28.5 0 1.7-2.8-19.5-21.2-41.9-23-0.7-0.1 2-2.1 2.5-2.1 24.3 2.7 45.6 20.9 41.8 26.3-2.6 3.7-24.9 0-29.9 1-1.9 0.4-3.5 11.3-12.9 14.6-9.3 3.1-21.4-2.4-30.9-5.1"/>
   <path class="st7" d="m56.226 186.35c-35.4-4.8-62.9-40.5-54.8-54.1 4.2-7 16.3-10 25.5-7.5 2.5 0.7 39 11.2 41.7 11.8 14.5 3.2 27.5 3 43-0.5 0.8-0.2 4.2 1.4 3.6 1.5-17 4.2-31.4 4.8-47 1.3-2.8-0.6-39.3-11.2-41.8-11.9-8.1-2.2-18.4 1.1-22 7.2-7.2 12 19.6 44.9 52.3 49.3 25.5 3.5 55.4-9.4 76.2-32.8 0.4-0.5 0.7 2.8 0.1 3.4-23.7 25.6-52.3 35.7-76.8 32.3"/>
   <path class="st7" d="m309.83 215.25c-16.9 3.4-35 1.6-48.1-6.5-10.4-6.4-27.1-22.9-39.6-34.6-7.4-6.9-17.5-15.9-19.8-17.3-0.6-0.3 4.3 0.6 4.9 0.9 2.5 1.6 8.7 7.4 16.6 14.7 12.4 11.6 29.5 27.5 39.7 33.8 11.8 7.2 28.1 9.5 44.9 6.4 16.2-3.1 30.7-10.9 38.9-21.1 11.8-14.6 10.8-32.9 5.6-36.6-7.5-5.3-19.3-5.6-43.6 1.3-12.8 3.7-19.9 5.7-33.9 4-7.7-0.9-25.8-6.3-30.3-8.8-0.6-0.3 0.5-2.4 1.1-2.1 4.2 2.4 22.2 7.7 29.5 8.6 13.6 1.7 20.5-0.7 33.1-4.3 25.9-7.4 36.9-7.4 45.9-1.1 6.4 4.5 8 25.1-5.1 41.3-9.1 11-24.4 18.3-39.8 21.4"/>
   <path class="st7" d="m327.13 206.95c1-2 1-4.8-0.3-7.3-1.4-2.6-6.2-9-20.7-11.3-5.1-0.8-5.4-3.3-5.2-4.3 0.4-2.9 5.5-5.8 11.8-5.3 8.8 0.8 21.9 7 25.5 12.1 1.9 2.7 2.7 5.9 2.1 8.9-0.1 0.5-2.9 1.7-2.7 1.1 0.9-2.7 0.4-6.1-1.4-8.6-3.2-4.5-15.8-10.4-23.8-11.1-5.5-0.5-9.3 1.7-9.5 3.2-0.1 0.5 1.3 1.3 3.6 1.7 10.9 1.7 19.1 6.3 22.4 12.6 1.4 2.6 1.7 5.4 1 7.8 0 0.4-3 1.1-2.8 0.5"/>
   <path class="st7" d="m352.53 183.65c-1.8-9.8-10.4-14.2-27.1-13.8-3.2 0.1-4.9-1.6-5.1-3.3-0.2-1.6 1-3.8 5-4.6 14.8-3 27.7 0.4 32.2 8.1 0.4 0.8-1 3.7-1.2 3.1-2.6-8.2-15.5-11.9-30.5-8.9-2.8 0.6-3.3 1.5-3.3 2 0.1 0.5 0.9 1.2 2.9 1.1 17.3-0.4 26.6 4.1 29.2 14.2 0 0.7-2 2.8-2.1 2.1"/>
   <path class="st7" d="m189.13 269.65c-20.4-12.7-54.1-53.1-59.8-81.2-3.1-15.3-1.1-33.4 6.5-43 0.4-0.5 2.1 1.1 1.8 1.7-6 9.1-8.2 26.2-5.3 40.7 5.6 27.5 39 68.1 57.9 80.3 3.4 2.1 2.4 3.6-1.1 1.5"/>
   <path class="st7" d="m205.83 265.05c-5.1-27.5-1-75.9 8.4-99 0.3-0.6 2.6 1.8 2.6 2-9.2 23-13.3 69.3-9.1 96.5 0.6 3.8-1.2 4.3-1.9 0.5"/>
   <path class="st7" d="m155.93 303.15c-15-3.5-25.3-19.8-23.6-31.9 1.4-10.1 11.6-16.1 22-13.9 8 1.7 19.7 7.6 32.9 9.7 0.5 0.1 2.5 2.4 1.9 2.3-17.1-2.1-27.7-7.7-35.5-9.2-8.8-1.7-17.1 3.1-18.4 12-1.1 7.9 5.2 24.6 21.4 28.4 14.5 3.4 31.7-8.1 40.2-26.3 1.3-2.7 2-3.1 4.6-1 12.8 10.3 34.3 13.5 42.4 10.1 14.9-6.4 20.8-35.4 8.8-39-5.6-1.7-14.8 0.9-25.9 7.3-3.6 2.1-14.9 9.3-19.2 12.9-0.5 0.4-0.9-1.7-0.7-1.9 5.3-4.6 15.8-11.6 18.8-13.3 11.7-6.7 21.2-9.8 27.5-7.9 15.1 4.5 9 36.8-8.1 44.2-9.8 4.2-32.8-0.4-45.6-11.1-9.8 21.6-28.9 32-43.5 28.6"/>
   <path class="st7" d="m17.526 165.15c-2.5-8.3-2.2-16.4-0.2-19.6 3.2-5.1 9-7.9 20.7-9.8 1.6-0.3 2.4-0.5 2.4-0.8 0.1-0.7-2.6-1.8-6-1.9-10.4-0.2-18.7 4.4-21.6 9.1-0.6 1-2.4 6.1 1.6 18.8 0.2 0.6-2.7-1.3-2.9-2-2.4-8.5-2.7-14.9-0.8-18.1 3.8-6.1 13.7-10.4 23.7-10.2 4 0.1 8 1.7 8.1 4.2 0.1 1.1-0.4 2.6-4.2 3.2-12.6 2-16.7 4.9-19.1 8.7-1.5 2.5-1.9 11.4 1.2 20 0.3 0.7-2.8-1-2.9-1.6"/>
   <path class="st7" d="m36.526 178.55c-3.1-4.6-3.2-11.4-0.2-15.8 4.8-6.8 10.8-8.5 21.7-9.5 2.8-0.3 3.4-1 3.4-1.2 0-0.7-2.1-2.4-5.8-2.7-12.4-1-20.3 2.2-24.7 10-2.5 4.4-2.1 10.5 2 16.5 0.4 0.5-3.5-1.2-3.7-1.6-3-5.8-3.1-11.2-0.4-16.1 4.8-8.4 13.8-12.2 26.9-11.2 4.5 0.3 7.6 2.6 7.7 5.1 0 1.1-0.3 3.2-5.2 3.6-11.6 1-16.1 2.9-19.9 8.5-2.7 3.9-1.8 11 1.9 15.3 0.4 0.5-3.4-0.5-3.7-0.9"/>
   <g>
    <path class="st8" d="m109.63 120.65c0.2 1.1 3.8 1.5 7.9 0.6 4.1-0.8 7.2-2.9 7-3.8s-5.3-0.8-8-0.2c-2.7 0.5-7.2 2.1-6.9 3.4" fill="#dff0f4"/>
    <path class="st8" d="m235.43 132.25c-0.8 1.3 2.8 4 5.3 5 2.4 1 6.7 1.7 7.3 0.6 0.7-1.1-3.1-3.7-5.8-4.8s-6.3-1.7-6.8-0.8" fill="#dff0f4"/>
    <path class="st1" d="m256.13 27.85c-9.6 3.9-32.5 7.1-40.2 14-20.8 18.8-17.3 49.8 2.7 62.2 10.2 6.3 32 2.3 48.2-24.3 3.7-6.1 8.1-18.5 8.5-26.2 0.5-10.4-13.4-28-19.2-25.7" fill="#fff"/>
    <path class="st9" d="m272.33 11.35c13-2.7 23 7.3 24.8 16.4 2.4 11.9-4.3 23.3-16.1 25.6-10.8 2.2-22.2-5-24.8-17.4-2.4-12.3 5.3-22.4 16.1-24.6" fill="#ec86ad"/>
    <path class="st6" d="m268.03 52.25c-7.6 27.7-20.6 41.4-43.1 53.9 13.3 2.4 25.4-4.6 37.2-19.7 2-2.5 11.8-18.9 13.1-32.9-3.9-0.1-7.2-1.3-7.2-1.3" fill="#dbdddc"/>
    <path class="st10" d="m235.33 83.65c4.3 3.4 6.7 6.1 8.4 12.7 3-2.4 12.4-11.9 15.5-23.8-15.8 2-25.7-0.7-30.4-5.6-1.9 2.1-4.6 6.7-5.6 13 2.6-0.1 8.9 1.1 12.1 3.7" fill="#92331e"/>
    <path class="st11" d="m236.73 84.55c2.4 2 6 6 7.1 11.7-2.4 2-8.9 7.3-13.8 6.1-4.9-1.1-8.4-13.4-7-22.2 4.7 0.2 9.5 0.8 13.7 4.4" fill="#ec8599"/>
    <path class="st0" d="m135.73 49.55c-15.5 1.7-29.5 5.5-39.3 13.1-7.2 5.5-7.8 14.5-2 21.5 4 4.8 13.3 7.4 22.7 1.2 8-5.2 17.2-16.3 20.2-22.8 0.9-1.9 2.2-13.4-1.6-13" fill="#0c5fac"/>
    <path class="st5" d="m92.526 81.75c8.4 6.4 34.9-9 44.6-19.2-5.6 10.6-19.7 25.2-27.5 26.3-11.7 1.6-17.1-7.1-17.1-7.1" fill="#015295"/>
    <path class="st12" d="m256.93 37.85c5.4 12 31.5 13 40.3-1.8-4.1 13.4-12.1 18.2-22 17.4-5.4-0.4-8.5-2.1-12.4-5.6-3.8-3.4-5.9-10-5.9-10" fill="#cd7497"/>
    <path class="st13" d="m223.93 93.95c2.2-5.6 8.2-9 13.8-8.5-5-3.4-9.4-5.3-14.4-5.5-1.4 5 0.6 14 0.6 14" fill="#d07487"/>
   </g>
   <path class="st7" d="m92.826 85.55c-4.9-5.2-6.2-14.8 0.4-21.8 7.3-7.7 21.6-12.8 40.2-14.8 4.5-0.5 4.7 1.3 0.3 1.9-18.5 2.6-31.5 7.6-38.4 14.9-5.3 5.6-4 13-0.1 17.2 5.3 5.6 13.9 6.1 20.9 1.2 6.7-4.7 15.3-13.8 18.7-19.6 2.6-4.5 4.1-3.7 1.8 1-3.4 6.7-11.7 15.9-18.8 20.9-7.8 5.5-18 6.5-25-0.9"/>
   <path class="st7" d="m232.53 107.65c-19.9 2.4-35.4-18.5-31.4-41.8 2.4-13.7 11.6-25.3 22-29.8 7.7-3.4 22.1-5.1 32.7-9.3 0.6-0.2 0.3 2-0.1 2.2-7.9 3.3-22.3 5.5-31.8 9.3-9.8 3.9-17.9 15.3-20.2 28.2-3.5 20.4 10.6 41 28.3 38.8 17.7-2.1 37.3-23.4 42.4-51.8 0.1-0.6 1.9-0.2 1.8 0.4-4.3 31.7-25.3 51.6-43.7 53.8"/>
   <path class="st7" d="m230.13 103.55c-8.2-2.3-12.6-22-3.1-36.4 1.1-1.6 2.3-1.7 4.1 0 5 4.6 20 7.4 30.7 3.8 3.3-1.1 3.9 0.4 0.4 1.7-10.1 3.8-27.3 2.4-33.3-4.2-8.9 13.4-4.7 31.6 1.7 33.4 4.4 1.2 19.8-8.2 27.1-28.9 0.2-0.6 3.5-1 3.3-0.4-7.9 22.1-24.4 32.8-30.9 31"/>
   <path class="st7" d="m242.83 96.55c-1.4-7.4-9.2-15.7-19.3-15.3-0.7 0-0.6-1.9 0-1.9 11.7-0.9 19.6 7.6 21.2 16.3 0.1 0.6-1.8 1.6-1.9 0.9"/>
   <path class="st7" d="m272.93 12.45c-10.7 2.2-17.3 12.5-15.1 23.5 2.3 11.3 12.5 18.5 23.3 16.3 10.3-2.1 16.8-13 14.5-24.2-2.2-10.7-12.4-17.7-22.7-15.6m8.6 42.1c-12.7 2.6-24-5.2-26.6-18-2.6-12.9 5.3-23.9 17.5-26.4 11.7-2.4 23.7 5 26.2 17.3 2.7 13.1-5.5 24.7-17.1 27.1"/>
   <path class="st14" d="m268.43 17.85c2.9-0.6 5.1 1.3 5.8 4.5 0.5 2.6-0.6 5.1-3.6 5.7-2.7 0.6-5.2-1.3-5.7-4-0.5-2.8 0.9-5.7 3.5-6.2" fill="#f6c9da"/>
   <path class="st7" d="m247.93 33.85c-1 0.3-9.9 3-11 3.6-1.6 0.8-1.2 2.1 0.5 1.8 2.5-0.3 9-3 11.1-4.2 1.4-0.7 0.8-1.6-0.6-1.2"/>
   <path class="st7" d="m238.63 45.35c-1.6 0.9-0.5 2.7 1.2 1.9 2.8-1.3 9-4.5 11-6 0.8-0.5 0.7-1.6-0.6-1.1-2.3 0.9-9.2 3.9-11.6 5.2"/>
  </g>
 </g>
</svg>
