<?xml version="1.0" encoding="UTF-8"?>
<!-- Created with Inkscape (http://www.inkscape.org/) -->
<svg version="1.1" viewBox="0 0 210.61 191.98" xmlns="http://www.w3.org/2000/svg">
 <g transform="translate(-7.3415 -68.211)">
  <path d="m92.919 82.145c0.52886 2.2018 7.1434 8.7276 12.783 5.9038-2.3783 2.6515-7.6981 6.2694-10.135 4.8533-4.849-2.8195-2.6473-10.757-2.6473-10.757" fill="#dab750"/>
  <path d="m171.15 141.77c4.8533 4.0591 13.707 4.3701 18.3-1.9833 3.9499-5.4542 1.5169-13.295-2.9792-16.758-0.966 1.5968-6.5005 11.194-12.686 15.043-0.31446 1.3068-1.9833 3.2566-2.6346 3.6978" fill="#005ead"/>
  <path d="m179.07 109.86c2.0211 18.896-0.92073 31.708-28.758 48.113-17.165 10.118-47.659 8.5217-56.593 0.55466-10.144-9.0301-16.3-26.019-14.938-44.798 1.6851-23.17 20.023-41.907 45.722-44.243 24.334-2.2145 51.433 11.11 54.567 40.373" fill="#005ead"/>
  <path d="m118.53 92.859c-6.5762 1.3152-10.06 13.707-6.5762 25.678 2.454 8.4208 9.5175 20.107 17.657 17.926 7.9797-2.143 9.5218-16.291 7.2022-24.708-3.4582-12.518-11.333-20.291-18.283-18.896" fill="#fff"/>
  <path d="m180.31 81.935c-7.1896 4.6768-20.468 5.5719-25.54 7.8241-9.5764 4.2566-11.824 22.149-8.3536 31.544 7.4418 20.161 21.149 21.817 28.91 15.489 10.988-8.9503 16.678-27.061 17.09-36.141" fill="#fff"/>
  <path d="m90.215 115.02c-24.212 2.828-35.444 16.329-27.838 26.174 6.6098 8.5637 22.17 2.496 30.048-16.959z" fill="#005ead"/>
  <path d="m122.48 98.678c-2.8069 0.68072-4.1725 5.2273-1.9454 13.699 1.4077 5.3492 5.492 11.161 8.7065 10.24 3.9163-1.1135 3.66-8.4124 2.2691-13.762-1.7186-6.6308-5.6054-11.001-9.0301-10.177" fill="#3e3a39"/>
  <path d="m122.96 99.864c-1.7858 0.47903-2.2565 3.2734-1.4161 6.0509 0.76112 2.5128 2.828 4.5802 4.7651 3.9079 1.7565-0.6135 2.2817-3.0128 1.2607-5.9416-0.95409-2.7355-3.0843-4.4289-4.6096-4.0171" fill="#fff"/>
  <path d="m195.61 69.859c-9.8915 0-15.199 7.4081-14.833 16.615 0.28944 7.3913 6.5762 13.774 15.207 13.896 8.2822 0.11351 14.552-7.5762 14.552-14.93 0-8.7906-7.0719-15.581-14.925-15.581" fill="#ee86ae"/>
  <path d="m198.21 73.285c-2.1472 0-3.8238 1.601-3.8238 4.1432 0 2.3657 2.0086 3.849 4.0213 3.9205 2.1808 0.07147 3.8658-1.6178 3.8658-3.7398 0-2.6431-2.164-4.3239-4.0633-4.3239" fill="#f7c9da"/>
  <path d="m57.345 218.62c3.2188-12.682 15.026-34.175 22.775-42.096 1.5337 0.11316 2.9035 0.40343 4.0087 0.98744 7.114 3.7272 3.9582 7.8115 15.493 10.98 12.039 3.307 18.59-3.6936 24.569-4.0129 5.2777-0.27729 16.056 6.6182 24.435 3.307 0.27753-0.10482 0.52885-0.23954 0.77303-0.36556 3.3532 13.711 16.552 29.994 39.226 38.23 14.329 5.2021 27.843 5.6055 27.843 13.144 0 8.4922-20.817 9.6016-29.032 9.4041-34.692-0.81937-42.486-18.623-52.618-40.167-3.4246 5.1979-8.9334 10.686-14.64 13.48-13.081 6.4081-36.654 6.614-57.227 2.538-6.1854 8.6141-18.262 15.9-26.876 17.396-5.4837 0.94968-26.964-7.7443-27.208-12.782-0.27753-5.6601 26.842-17.892 48.479-10.043" fill="#005ead"/>
  <path d="m208.93 245.75c0.61343-1.0336 0.92907-3.3406 0.47883-4.7062-1.2438-3.8112-14.875-6.9249-18.249-8.5637-4.0591-1.975-0.0715-3.0212 4.555-1.748 7.1435 1.9665 15.724 3.6894 18.287 7.6897 0.67655 1.0504 0.80638 2.2481 0.53838 3.6684 0.0119 0.80258-4.3407 3.1767-5.6097 3.6599" fill="#fff"/>
  <path d="m216.2 236.18c-6.7778 8.1351-37.944 7.3157-52.176 0.26895-13.795-6.8325-22.182-22.224-19.955-36.7 0.76946-4.9794 6.1307-5.7483 8.4334-4.9794l-3.1052-7.3451c-1.5001 0.91181-5.6937 1.6094-8.0091 1.3194-0.26919 2.0338-3.1892 15.363-6.6391 18.833 6.0971 17.216 15.854 30.338 26.561 35.377 20.981 9.8705 59.664 5.8156 54.891-6.7736" fill="#005197"/>
  <path d="m57.645 223.55c-4.7945 5.2105-15.926 12.9-22.8 13.514-6.9165 0.60926-22.149-5.803-25.275-9.4293-3.3448 5.0214 20.241 14.455 25.935 14.455 5.6895 0 22.002-9.299 27.447-18.035 61.211 12.047 75.455-12.177 78.178-34.885-1.1721-0.28575-13.879-4.5508-16.505-4.6936-4.1768-0.23524-15.409 6.0677-23.296 4.6432-13.312-2.4036-11.917-12.539-21.523-12.539-2.0086 1.5421-3.5549 3.8658-3.9457 5.4164 10.45-2.8616 10.837 13.934 24.46 15.094 8.8705 0.75637 14.236-1.5295 18.842-1.9665 1.769-0.16807 4.5046 1.1472 4.0255 3.6641-4.0759 21.359-43.739 25.149-61.887 23.203-1.6892-0.18486-2.6178 0.4244-3.6558 1.559" fill="#005197"/>
  <path d="m92.127 186.3c-6.1475 10.488-13.173 39.902-9.7697 58.063 2.1934 11.69 20.115 14.724 36.129 14.732 11.249 0.0131 22.308-3.2734 24.687-5.8198 1.6682-1.7816 2.7271-4.1432 2.7271-7.2695 0-8.3074-18.279-10.471-25.657-23.645-5.16-9.2066-7.9544-24.136-5.2021-33.961l-8.7317-4.3911z" fill="#005ead"/>
  <path d="m136.08 256.33c0.73135-1.6472 0.87786-3.8364 0.50861-5.118-1.5505-5.4122-9.2234-12.177-11.03-13.858-2.7103-2.5128-7.425-0.9791-5.1223 2.0338 1.9203 2.517 8.2107 9.0889 9.1268 12.194 0.80639 2.7397-0.0834 5.2021-0.45858 6.0257 2.3784 0.15544 5.9081-0.60926 6.9753-1.2774" fill="#fff"/>
  <path d="m102.81 257.06c0.15961-0.31517 1.0005-2.3909 0.54672-4.7441-0.8445-4.4121-3.5338-11.492-3.7733-12.804-0.36091-2.0086 4.0676-2.3699 5.2399-0.57984 1.643 2.517 5.034 8.9839 6.2989 13.291 0.52052 1.7816 0.44905 3.744-0.5503 5.7483-2.4498 0.67656-5.8491 0.17224-7.7611-0.9118" fill="#fff"/>
  <path d="m145.8 244.78c-5.1642 8.7066-53.563 16.892-63.765-5.2945-1.3026 6.4123 4.1515 20.59 36.536 20.052 28.586-0.47907 27.284-11.866 27.229-14.757" fill="#005197"/>
  <path d="m89.115 153.49c12.988 17.014 47.016 13.203 63.509 3.0927 9.7403 3.8322 26.456 17.623 23.809 20.993-3.2229 4.1138-17.703-1.4791-21.262 0.63867-2.6052 1.5464-0.99221 7.3829-6.5468 9.5722-8.3788 3.3112-19.153-3.5843-24.43-3.307-5.9794 0.31934-12.535 7.3199-24.573 4.0129-11.53-3.1683-8.3746-7.2527-15.493-10.98-7.3871-3.8742-26.33 4.9248-28.935-2.891-2.475-7.4249 24.666-18.548 33.923-21.132" fill="#bce2e8"/>
  <path d="m209.41 241.04c-0.0953-0.28992-0.26443-0.5715-0.4955-0.84879 1.8951-0.55041 3.5549-1.227 4.8911-2.038 0.0715 0.0929 0.13936 0.17224 0.19772 0.26467 0.67656 1.0504 0.80639 2.2481 0.53839 3.6684 8e-3 0.61771-2.5044 2.1262-4.2692 3.0338-0.4157 0.17652-0.84093 0.35721-1.2943 0.52099 0.57531-1.0757 0.86952-3.2776 0.43238-4.6012" fill="#dcdddd"/>
  <path d="m87.835 165.31c1.2564 1.353-1.9371 3.4204-3.5296 4.2608-1.7313 0.90347-5.1853 2.1598-5.8702 0.76053-0.59675-1.2186 2.5547-3.1977 3.8322-3.8364 1.2774-0.63451 4.597-2.2439 5.5676-1.185" fill="#e0f1f4"/>
  <path d="m159.14 167.04c-0.72659 0.43285 0.62653 2.8321 2.1892 4.4709 1.7985 1.8909 5.2988 3.8826 6.303 2.9246 0.73134-0.70597-1.8026-3.7608-2.8616-4.7609-1.206-1.1472-4.4037-3.3616-5.6306-2.6347" fill="#e0f1f4"/>
  <path d="m210.5 86.909c-2.4582 6.6602-10.581 10.673-18.863 7.4754-6.1518-2.3699-10.724-9.2654-9.505-15.976-4.9288 8.4166 1.4665 18.8 7.5049 21.153 12.451 4.8533 21.081-5.6265 20.863-12.652" fill="#ce7497"/>
  <path d="m188.87 98.895c-1.0672 8.6939-21.741 39.461-32.238 37.818 5.2483 5.2483 13.72 4.0297 17.153 1.3572 12.304-9.5638 19.367-27.246 18.531-38.112 0 0-2.5422-0.8194-3.4456-1.0631" fill="#dcdddd"/>
  <g fill="#005197">
   <path d="m190.84 130.07c0.46692 7.7065-10.913 11.984-16.821 7.9586l-2.7859 4.0171c7.8788 7.2779 23.905-0.2143 19.607-11.976"/>
   <path d="m158.35 138.44c-17.165 18.077-62.282 21.892-72.111-3.3616l-4.4289 4.9164c0.81948 4.1852 8.778 18.464 13.211 20.102 47.239 17.493 73.913-15.178 78.098-21.409-3.2859 2.2901-10.917 1.7985-14.77-0.24792"/>
   <path d="m92.427 124.24c-8.9083 12.736-24.073 21.779-30.435 14.833 6.7147 13.585 25.447 1.1471 30.435-14.833"/>
  </g>
  <path d="m159.63 160.11c-6.4039 7.9082-19.842 12.808-36.293 12.808-19.833 0-39.612-7.7737-40.558-17.203l6.3366-2.2229c5.0131 8.1897 14.043 11.799 34.158 11.799 13.614 0 22.939-4.513 29.351-8.7066 1.2439 0.0168 6.0384 2.5632 7.0048 3.5255" fill="#a2c4ca"/>
  <path d="m136.08 256.33c-1.0672 0.6681-4.5969 1.4329-6.9753 1.2774 0.34423-0.76899 1.1304-2.9708 0.57531-5.492 2.3826-0.50004 4.6096-1.0925 6.614-1.7564 0.1072 0.28575 0.21797 0.57567 0.2942 0.85296 0.37044 1.2816 0.22274 3.4708-0.50861 5.118" fill="#dcdddd"/>
  <path d="m110.57 257.97c-2.4498 0.67656-5.8492 0.17224-7.7611-0.9118 0.1465-0.28575 0.8445-2.0422 0.6301-4.1348 2.5927 0.43285 5.2694 0.68073 7.9587 0.77733 0.13459 1.3656-0.0953 2.8027-0.82783 4.2692" fill="#dcdddd"/>
  <path d="m114.16 191.57c-9.3872 3.2398-18.947 1.8783-22.699-3.5885l0.75278-2.4834c2.7648 1.8615 12.404 5.7189 23.266 1.9287-0.19297 1.1555-1.4918 3.9709-1.3195 4.1432" fill="#005197"/>
  <g fill="#0f141b">
   <path d="m124.42 68.468c20.048-1.8237 36.343 6.2946 45.609 17.262-0.76113 0.0966-1.4288 0.32356-2.0044 0.65132-10.765-12.24-27.737-17.119-43.213-15.715-28.918 2.6305-45.604 24.72-44.949 46.205l-2.496 0.75636c-0.7516-22.951 16.106-46.344 47.054-49.159"/>
   <path d="m83.165 139.37c2.5338 7.4165 6.4206 13.871 11.476 18.375 4.2735 3.807 14.06 6.2316 25.292 6.2274 11.564 0 22.51-2.6262 29.981-7.0257 10.724-6.324 17.661-11.875 22.065-17.69 0.35257-0.47063 3.912-2.5086 3.5969-1.9792-4.3239 7.1854-11.829 14.173-24.586 21.691-7.7568 4.5718-19.182 7.2106-31.074 7.2106-11.854 0-22.182-2.5422-26.859-6.7022-5.1138-4.5634-9.257-10.866-11.904-18.262z"/>
   <path d="m91.29 125.13c-6.2946 14.19-20.867 24.267-27.817 15.266-7.1686-9.2864 5.0004-21.741 25.611-24.561 3.5591-0.47904 3.1767-2.0758-0.4288-1.58-27.746 3.807-34.246 18.737-27.288 27.754 7.1392 9.2444 22.38 4.244 31.25-16.216 1.2521-2.891-0.0834-3.4877-1.3279-0.66392"/>
   <path d="m181.76 86.051c-0.31922-9.5427 5.9417-15.278 13.921-15.22 7.03 0.05038 13.724 6.5005 13.724 14.413 0 8.2317-6.9795 14.131-13.32 14.169-7.8367 0.04205-14.085-6.1938-14.325-13.362m-2.1683 0.53786c0.33232 8.1813 7.3325 15.144 16.686 14.921 9.0301-0.22271 15.594-8.5259 15.594-16.039 0-9.5091-7.782-16.825-16.476-16.825-8.3662 0-16.253 6.5173-15.804 17.943"/>
   <path d="m176.36 137.44c11.169-9.1015 16.48-27.09 16.909-36.57 0.0238-0.52525-1.706-0.85301-1.7312-0.32356-0.41213 9.131-5.7274 26.25-16.476 34.948-9.0594 7.3283-21.203 3.0086-27.708-14.606-3.681-9.9714-1.147-25.968 7.8031-30.254 3.9372-1.8825 17.01-2.87 25.519-7.9838 0.1465-0.09243 0.38592-1.9119-0.0715-1.6388-7.8494 4.8071-23.166 6.2358-26.199 7.7107-10.03 4.8827-12.963 22.208-9.0217 32.885 7.2275 19.581 21.296 23.72 30.973 15.833"/>
   <path d="m167.57 91.435c-1.3699 0.38659-5.7189 1.6304-6.5635 1.8153-2.6683 0.57568-3.1305-1.1387-0.5634-1.8363 0.81949-0.2227 5.2231-1.0421 6.6307-1.3572 2.8994-0.65971 3.3322 0.57987 0.49551 1.3783"/>
   <path d="m168.76 97.939c-1.9371 0.98327-5.2357 2.8195-7.1854 3.8827-1.975 1.0715-2.933-0.65551-1.0458-1.6892 1.7942-0.98747 5.5592-2.7019 7.6855-3.5801 2.4077-0.98747 2.7944 0.23111 0.54672 1.3867"/>
   <path d="m123.83 135.31c-5.1643-2.6431-8.9839-10.808-10.766-16.947-3.5087-12.072 0.26086-23.031 6.2568-24.237 7.114-1.4287 13.303 5.7231 16.694 17.737 1.8909 6.6896 1.147 17.283-2.8405 21.838-1.3573 1.5421-0.60032 2.3951 0.78614 0.92444 5.0592-5.3786 5.5886-16.539 3.7733-23.128-3.723-13.505-10.98-21.997-19.22-20.354-8.32 1.6724-11.299 14.938-7.5719 27.763 1.9581 6.7358 6.7778 14.547 12.476 17.464 1.3824 0.71014 2.1262-0.18068 0.41213-1.0589"/>
   <path d="m122.63 99.384c-2.0044 0.47903-3.1642 4.6978-1.072 12.656 1.3824 5.2609 5.0886 10.324 7.4165 9.6604 2.954-0.8488 3.0884-7.3325 1.6598-12.808-1.7228-6.6518-5.1938-10.198-8.0048-9.5091m-3.1474 13.224c-2.7312-10.375-0.1072-14.026 2.7902-14.724 3.5464-0.86141 8.0931 3.3028 10.047 10.829 1.2606 4.8701 2.1893 13.396-2.8153 14.825-0.31088 0.0924-0.63486 0.13446-0.96242 0.13446-3.723 0-7.6602-5.7441-9.0595-11.064"/>
   <path d="m190.25 140.49c4.282-5.908 1.6515-14.224-3.2859-18.031-0.42047-0.31935-1.1976 0.96647-0.7778 1.2984 4.2314 3.2566 5.9668 10.509 2.433 15.392-3.307 4.5634-11.677 6.0173-16.136 2.3027-0.40379-0.34456-1.7774 1.0883-1.3782 1.4287 5.6139 4.6894 15.077 3.2229 19.144-2.3909"/>
   <path d="m124.32 185.31c5.5173-0.23953 14.48 7.0131 24.956 3.4582 5.2104-1.769 4.5591-8.8662 6.3491-9.7654 3.5213-1.7606 19.354 3.828 22.052-0.52945 3.1431-5.0886-16.224-19.001-23.489-22.069-0.18939-0.0798-2.4624 1.3951-1.9539 1.5547 8.5216 2.6725 25.191 16.131 23.107 19.052-2.244 3.1389-17.001-1.5001-20.565 0.41594-2.8238 1.5169-1.8236 7.2526-6.2567 9.215-8.2907 3.681-18.543-3.1053-24.309-3.0212-4.9333 0.0715-13.745 6.8535-24.237 3.8869-10.102-2.849-9.4377-8.0006-15.346-10.833-7.551-3.6179-25.943 4.2692-28.338-2.4708-2.0591-5.7778 17.56-14.745 32.813-19.581 0.50385-0.15548-1.0208-1.6892-1.1637-1.6388-7.7443 2.6599-37.066 13.64-34.095 22.166 2.8069 8.0678 23.405-0.19749 29.914 3.1011 4.7903 2.4288 4.782 8.5763 15.602 11.312 12.501 3.1557 19.447-4.0129 24.96-4.2524"/>
   <path d="m119.76 220.66c10.232-5.0088 18.728-18.081 20.241-31.776 0.0596-0.52528 1.9455-0.29838 1.9035 0.22691-1.3027 14.661-9.3789 27.431-21.304 33.263-0.0238 0.0167-0.86118-1.706-0.83974-1.7144"/>
   <path d="m62.163 223.17c6.4753 1.332 13.035 2.0632 19.346 2.4834l-0.11911 1.9287c-6.8156-0.45381-13.564-1.6346-19.569-3.0044-2.8532-0.64713-2.559-2.0044 0.3359-1.4077"/>
   <path d="m36.229 242.48c9.446-1.601 21.792-10.287 27.313-17.787 0.31089-0.42856-1.4371-0.88238-1.769-0.47478-5.4458 6.7484-16.804 14.463-25.805 16.026-6.261 1.0799-25.565-7.9586-25.699-11.534-0.20607-5.4584 26.926-16.522 46.617-9.3789 0.63844 0.23537 1.1137-0.0929 1.2564-0.66393 3.0801-12.127 18.615-38.906 23.103-41.335 0.46215-0.24787-2.3993-0.63034-2.8825-0.21428-6.219 5.4332-17.93 27.313-21.535 40.512-21.905-7.2863-49.815 4.0045-49.483 10.854 0.26086 5.4458 21.136 15.308 28.885 13.997"/>
   <path d="m217.95 238.76c-0.1346-8.6897-13.963-8.6687-28.969-14.115-24.947-9.0553-36.015-27.338-38.604-36.768-0.13936-0.50849-1.9876-8e-3 -1.849 0.5042 2.6851 9.7864 14.052 28.754 39.738 38.079 12.82 4.66 27.355 5.0844 27.321 12.299-0.0238 5.492-12.782 8.7654-28.023 8.3956-32.91-0.78162-41.31-16.606-51.991-39.318l-1.2984 1.7942c10.047 21.371 18.464 38.839 53.172 39.658 17.892 0.41606 30.612-3.0759 30.502-10.53"/>
   <path d="m91.507 185.46c0.26443-0.45382 1.7102 0.87404 1.4454 1.3278-6.0845 10.379-12.745 39.604-9.4251 57.307 2.2734 12.119 22.947 13.934 35.112 13.938 11.291 0 21.628-3.3112 23.683-5.5088 1.6555-1.7774 2.4036-3.8154 2.3994-6.4963-4e-3 -7.7401-19.724-11.514-25.527-23.338-4.7188-9.6058-7.946-24.288-5.0886-34.406 0.14651-0.51265 2.1472-0.9791 1.979-0.47478-3.3195 9.9125 0.58007 25.481 4.9963 34.091 6.3996 12.493 26.065 14.215 26.04 23.989-8e-3 3.1431-1.0756 6.1181-3.059 8.2317-2.7103 2.8952-14.194 6.0803-25.422 6.0719-29.729-8e-3 -36.393-9.8621-37.478-15.648-3.4498-18.409 3.9667-48.214 10.345-59.084"/>
   <path d="m129.93 257.68c0.60986-1.2606 1.1304-3.8658 0.60986-6.0761-0.79805-3.3994-8.1434-11.013-9.1393-12.421-1.7774-2.4918 0.94575-3.7902 4.3071-0.67227 4.4667 4.1558 9.7192 9.9587 10.286 12.337 0.31564 1.311-0.13817 3.9289-0.78138 5.3828-0.21797 0.48324 1.9371 4e-3 2.0212-0.2437 0.58842-1.7816 0.92908-4.1222 0.52052-5.6727-0.76112-2.912-6.3366-8.2821-10.631-12.547-4.7314-4.6936-10.808-2.3405-7.24 2.017 1.1637 1.4119 7.7232 8.9124 8.7527 12.072 0.56697 1.7312-0.56697 5.534-0.84927 6.1643-0.21797 0.48324 2.08-0.21011 2.1431-0.34042"/>
   <path d="m210.45 244.38c0.25609-1.1261 0.29421-2.433-0.0238-3.5129-1.0005-3.3742-13.379-6.9585-18.228-8.6771-3.2944-1.1724-1.5631-1.9833 2.744-0.98326 5.1768 1.2018 16.035 3.7944 18.409 7.656 0.66345 1.0715 0.70157 2.538 0.12149 3.8995-0.2144 0.48324 1.3488-0.77315 1.4665-1.29 0.29778-1.2606 0.18462-2.4414-0.38711-3.4036-2.2775-3.8112-11.144-5.7357-17.312-7.5006-8.3242-2.3825-10.82 0.44965-6.5803 2.517 2.891 1.4077 16.858 5.2147 17.854 8.4124 0.33589 1.0715 0.14651 2.7649-0.34066 3.5969-0.26919 0.44964 2.1346-0.0667 2.2775-0.71432"/>
   <path d="m111.57 258.56c1.0506-2.0926 1.3111-4.6096 0.66821-6.7946-1.3236-4.5088-4.9416-10.593-6.53-13.026-1.6765-2.5632-7.5552-2.0884-7.0677 0.94968 0.1346 0.82354 3.2188 9.8537 3.7776 12.812 0.4157 2.2145-0.57531 4.4541-0.58841 4.4709-0.23941 0.47478 1.601 0.99172 1.8362 0.51682 8e-3 -0.0214 1.1887-2.4288 0.63487-5.3491-0.55507-2.8826-3.538-11.039-3.7986-12.568-0.2013-1.1808 2.4709-1.706 3.5171-0.11316 1.5337 2.3489 4.9752 8.278 6.2399 12.606 0.50384 1.706 0.0476 4.1348-1.0375 5.9668-0.26442 0.44964 2.185 0.86558 2.3489 0.52945"/>
   <path d="m185.14 124.54c-4.3071 3.1641-12.699 4.4962-17.611 2.0422-4.0634-2.0338-6.6098-5.2525-8.0133-9.1099-1.1387-3.1263-2.5927-2.7313-1.5884 0.50004 1.4623 4.6894 4.3784 8.3578 8.5805 10.434 4.6685 2.3069 10.967 2.1178 15.955-0.54626 0.60032-0.31514 3.1052-3.6305 2.6767-3.3196"/>
  </g>
 </g>
</svg>
