<?xml version="1.0" encoding="UTF-8"?>
<!-- Created with Inkscape (http://www.inkscape.org/) -->
<svg version="1.1" viewBox="0 0 92.353 94.036" xmlns="http://www.w3.org/2000/svg">
 <g stroke-width=".26458">
  <path class="st0" d="m79.15 14.705c-3.4925-1.905-8.9165-0.44979-12.118-1.1642-4.2333-7.5935-12.7-12.991-22.781-12.991-11.668 0-23.945 11.668-23.945 24.368 0 1.905 0.15875 3.7835 0.58208 5.5562-2.9104 1.7462-9.2075 6.1383-10.954 11.086-1.3229 3.9423 1.3229 6.7204 2.4871 7.1438 2.4871 0.87312 5.1065-0.74083 6.8527-3.4925 1.1642-1.905 2.9104-7.3025 3.6512-9.4985 3.7835 7.3025 11.827 12.7 23.204 12.7 12.991 0 23.786-10.954 23.786-23.654 0-1.7462-0.29104-3.4925-0.58208-5.2652 1.4552 1.614 3.9423 3.4925 6.1383 4.3921 2.6194 0.87312 6.4294 1.3229 7.8846-1.4552 1.7992-2.9104-0.39688-5.6885-4.2069-7.7258" fill="#1869b3"/>
  <path class="st1" d="m26.763 17.033c2.0373-0.44979 4.0746 3.0692 5.3975 8.599 1.1642 5.3975 1.1642 10.213-1.7462 11.245-2.9104 1.0319-5.1065-5.3975-5.8473-9.3398-0.42333-3.0692-0.42333-9.9219 2.196-10.504" fill="#fff"/>
  <path class="st1" d="m34.489 15.128c-1.614 4.3921-1.4552 9.0488 0.15875 13.441 2.196 5.9796 8.599 10.372 14.314 8.7577 6.5617-2.0373 8.9165-10.081 7.0115-17.806-0.87312-3.9423-4.0746-7.3025-5.6885-8.1756" fill="#fff"/>
  <path class="st2" d="m27.213 19.071c1.3229-0.29104 2.7781 2.4871 3.4925 5.8473 0.87312 4.0746 0.15875 6.7204-1.1642 7.0115-1.614 0.58208-2.7781-3.0692-3.3602-5.6885-0.58208-3.2279-0.15875-6.8792 1.0319-7.1702" fill="#424143"/>
  <path class="st1" d="m57.719 8.9899c2.196-0.74083 5.5562 2.9104 6.8527 8.0169 0.87312 3.0692 1.905 10.213-0.58208 11.245-2.4871 1.0319-5.5562-4.9742-6.7204-8.9165-0.87312-3.0427-2.196-9.4721 0.44979-10.345" fill="#fff"/>
  <path class="st2" d="m58.434 11.186c1.3229-0.58208 3.0692 3.0692 3.6512 5.2652 0.58208 2.3283 1.0319 6.4294-0.15875 6.8527-1.4552 0.58208-3.3602-3.0692-3.9423-5.5562-0.58208-2.3283-0.87312-6.1119 0.44979-6.5617" fill="#424143"/>
  <path class="st1" d="m58.143 14.255c0.29104 1.0319 0.87312 1.7462 1.614 1.614 0.74083-0.15875 0.87312-1.1642 0.58208-2.196-0.29104-1.0319-1.1642-2.196-1.7462-1.905-0.44979 0.15875-0.74083 1.4552-0.44979 2.4871" fill="#fff"/>
  <path class="st3" d="m37.717 4.6243c3.2015-1.7462 8.7577-1.3229 11.377 3.4925 2.3283 4.3921-0.44979 9.0488-4.0746 10.504-4.2333 1.4552-9.0488-0.44979-10.372-3.9423-1.3229-3.4925-0.87312-7.8581 3.0692-10.054" fill="#f387ae"/>
  <path class="st4" d="m40.336 5.6297c0.58208 0.58208 0.44979 1.614-0.44979 2.3283-1.0319 1.0319-2.196 1.0319-2.7781 0.44979-0.44979-0.44979 0-1.4552 0.74083-2.196 0.74083-0.71438 1.905-0.87312 2.4871-0.58208" fill="#f9c1d3"/>
  <path class="st5" d="m52.295 30.897c0.44979-2.3283 0-5.1065-1.1642-7.4348-1.7462 3.3602-8.4667 4.3656-11.668 2.196-0.15875 2.0373 0.58208 4.9742 2.0373 7.3025 1.614-2.6458 5.8473-6.5881 10.795-2.0638" fill="#8d351d"/>
  <path class="st6" d="m47.771 36.004c2.6194-0.44979 4.0746-2.4871 4.5244-5.1065-4.9742-4.5244-9.2075-0.58208-10.795 2.0373 1.3229 2.0373 3.519 3.6512 6.2706 3.0692" fill="#f3859c"/>
  <path class="st1" d="m27.345 19.653c0.58208-0.15875 1.4552 0.87312 1.614 2.0373 0.29104 1.1642-0.15875 2.0373-0.74083 2.196-0.87312 0.15875-1.614-0.58208-1.7462-1.7462 0-1.1642 0.29104-2.3283 0.87312-2.4871" fill="#fff"/>
  <path class="st0" d="m81.505 78.046c-7.4348-4.2333-15.901-14.896-18.838-21.881-1.0319 0.15875-2.0373 0.15875-2.9104 0.44979-3.2015 0.87312-4.9742 2.9104-9.6308 3.3602-4.3656 0.58208-7.1438-1.3229-10.213-1.1642-1.1642 0.15875-2.9104 0.58208-4.8154 1.1642-0.15875 0.74083-0.29104 1.4552-0.44979 2.196-1.905 2.196-3.9423 4.6831-4.6831 5.1065-4.2333-0.29104-8.3079 2.9104-8.3079 4.0746 0 1.0319 0.87312 1.905 1.3229 2.196-2.4871-2.0373-7.0115-3.0692-10.081-3.2015-5.9796-0.44979-11.668 1.0319-12.118 3.0692-0.74083 2.6194 4.3656 5.9796 10.504 6.5617 3.9423 0.44979 9.4985-0.74083 12.7-2.6194 0.44979 0.74083 0.87312 1.4552 1.614 2.0373-0.74083 0.44979-1.3229 0.87312-1.905 1.3229-2.3283 1.3229-6.8527 3.9423-6.8527 7.8846 0 4.3921 5.5562 4.2333 10.663 4.6831 10.795 0.87312 16.775-0.58208 18.389-7.8846 6.2706 0.29104 11.959-2.3283 14.314-6.7204 2.4871 5.9796 5.6885 11.377 8.7577 12.541 7.3025 2.7781 21.881 3.0692 22.622-2.7781 0.71438-5.4504-5.715-7.911-10.081-10.398" fill="#1869b3"/>
  <g fill="#0e5797">
   <path class="st7" d="m17.132 86.804c0 3.4925 13.282 4.3921 20.585 3.3602 4.3921-0.58208 7.5935-2.4871 8.3079-4.8154-1.614 7.4348-7.8846 8.599-18.547 7.8846-6.8527-0.60854-11.959-1.1906-10.345-6.4294"/>
   <path class="st7" d="m64.122 86.063c2.4871 2.196 8.599 4.2333 17.806 3.6512 6.2706-0.44979 9.2075-1.905 9.4985-3.6512 1.614 3.6512-1.3229 7.1438-8.7577 7.3025-7.5935 0-16.801-1.1642-18.547-7.3025"/>
   <path class="st7" d="m57.56 71.617c-1.7462 4.0746-6.2706 5.9796-11.668 6.4294 0.29104 1.905 0.44979 5.8473 0.15875 7.3025 6.1383 0.44979 11.245-2.196 14.023-6.4294z"/>
  </g>
  <path class="st8" d="m62.376 42.433c5.6885-0.29104 19.844 4.8154 19.42 6.5617-0.29104 1.4552-4.8154 0.29104-6.8527 1.614-2.0373 1.3229-1.905 3.0692-4.3921 4.5244-2.6194 1.3229-7.8846 0.58208-10.795 1.4552-3.2015 0.87312-4.9742 2.9104-9.6308 3.3602-4.3656 0.58208-7.1438-1.3229-10.213-1.1642-2.196 0.15875-6.1383 1.905-9.3398 1.7462-2.6194-0.15875-3.6512-1.7462-5.3975-1.905-2.0373-0.15875-4.0746 1.614-5.9796 1.1642-4.6831-1.4552 10.795-11.377 16.484-12.832 8.89 2.1696 19.553 2.1696 26.696-4.5244" fill="#b1e0e4"/>
  <path class="st9" d="m67.059 47.54c-0.29104 0.44979 0.44979 1.0319 1.3229 1.4552 1.1642 0.29104 2.0373 0.13229 2.3283-0.15875 0.29104-0.58208-0.74083-1.1642-1.4552-1.4552-0.74083-0.29104-1.7727-0.42333-2.196 0.15875" fill="#d5eef0"/>
  <path class="st9" d="m31.129 53.069c0.58208 0.15875-0.29104 1.4552-1.1642 2.196-1.0319 1.0319-2.196 2.0373-2.9104 1.7462-0.44979-0.29104 0.15875-1.4552 1.0319-2.196 0.87312-1.0054 2.3283-1.8785 3.0427-1.7462" fill="#d5eef0"/>
  <g fill="#fff">
   <path class="st1" d="m24.144 92.625c-0.74083-3.0692 0.44979-5.3975 2.6194-7.8846 0.87312-0.87312-0.44979-1.1642-1.7462-0.29104-0.58208 0.29104-4.3656 2.7781-3.6512 7.7258"/>
   <path class="st1" d="m33.325 93.074c-0.74083-3.0692 0.29104-6.2706 2.7781-8.7577 0.74083-0.74083-1.1642-1.0319-2.0373-0.13229-3.3602 2.7781-4.0746 5.9796-2.9104 9.0488 0.13229-0.02646 1.2965-0.02646 2.1696-0.15875"/>
   <path class="st1" d="m78.859 92.783c0.87312-3.4925-0.15875-5.8473-3.3602-8.7577-1.0319-1.0319-3.0692-0.44979-2.196 0.58208 2.6194 3.0692 3.7835 5.3975 3.2015 8.0169 0.47625 0.15875 1.4817 0.29104 2.3548 0.15875"/>
   <path class="st1" d="m86.903 92.043c1.1642-4.3921 0.29104-6.2706-2.9104-8.7577-1.0319-0.87312-3.4925-0.44979-2.3283 0.44979 3.2015 2.3283 4.0746 5.1065 3.0692 8.9165 0.42333-0.02646 1.5875-0.15875 2.1696-0.60854"/>
  </g>
  <path class="st10" d="m44.12 18.938c5.6885-1.7462 6.8527-8.599 4.2333-11.536 0.74083 2.9104-0.15875 7.1438-5.2652 8.599-3.6512 1.1642-8.0169-0.87312-8.7577-5.1065-2.0108 3.3602 3.81 10.081 9.7896 8.0433" fill="#ca6f91"/>
  <path class="st11" d="m51.422 33.093 0.87312-2.196c-2.7781-3.3602-6.8527-1.905-8.1756-0.74083 2.3548-0.87312 6.006-0.13229 7.3025 2.9369" fill="#ca6f82"/>
  <path class="st7" d="m9.6973 44.471c2.4871 6.5617 10.213-1.905 12.7-10.081 5.2652 6.1383 18.838 10.372 28.178 7.7258 11.245-3.0692 18.547-13.864 18.547-23.786 2.9104 2.4871 11.959 6.4294 14.446 3.3602-0.15875 3.3602-7.8846 4.8154-14.023-1.905 1.7462 11.668-3.3602 23.945-16.775 27.887-10.081 3.0692-23.945-1.614-29.924-11.959-3.519 16.642-11.986 15.028-13.15 8.7577" fill="#0e5797"/>
  <path class="st12" d="m31.446 48.704c2.6194 2.196 11.827 4.2333 18.68 3.0692 8.4667-1.4552 13.573-4.0746 16.642-8.7577-0.58208-0.44979-4.0746-0.87312-4.6831-0.74083-6.4294 6.7204-18.256 7.4348-26.432 4.5244-1.5875 0.58208-3.6248 1.4552-4.2069 1.905" fill="#92babf"/>
  <path class="st7" d="m0.78089 73.231c2.7781 4.9742 18.256 5.5562 22.331 2.7781 0.29104-0.15875 0.58208-0.29104 1.0319 0 0.74083 0.58208 2.0373 1.3229 3.9423 1.3229l-2.4871 2.196-1.7462-2.196c-7.4612 5.08-23.812 2.5929-23.072-4.101" fill="#0e5797"/>
  <path class="st7" d="m34.648 62.7c0.74083-2.0373 7.5935-3.6512 9.4985 0.74083 2.6194 1.905 9.7896 0.87312 11.086-1.1642 0-3.3602 5.5562-5.1065 8.4667-3.6512l-0.58208-2.3283c-4.2333-0.87312-7.8846 3.2015-12.832 3.7835-4.9477 0.58208-7.4348-1.4552-10.504-1.3229-2.196 0.15875-4.2333 1.1642-4.9742 1.3229z" fill="#0e5797"/>
  <g fill="#d2d3d4">
   <path class="st13" d="m21.365 92.201 2.7781 0.44979c-0.29104-0.87312-0.29104-1.7462-0.15875-2.6194-0.87312-0.15875-1.7462-0.29104-2.4871-0.44979-0.13229 0.71438-0.29104 1.5875-0.13229 2.6194"/>
   <path class="st13" d="m33.325 93.074c-0.15875-0.87312-0.29104-1.7462-0.15875-2.6194-0.87312 0.15875-1.7462 0.15875-2.6194 0.15875 0 0.87312 0.29104 1.7462 0.58208 2.6194 0.15875-0.02646 1.3229-0.02646 2.196-0.15875"/>
   <path class="st13" d="m76.531 92.625c0.44979 0.15875 1.4552 0.29104 2.3283 0.15875 0.29104-1.0319 0.29104-2.0373 0.29104-2.9104-1.0319 0-1.905 0-2.6194-0.13229 0.15875 1.0054 0.29104 2.0108 0 2.884"/>
   <path class="st13" d="m84.707 92.625c0.44979 0 1.614-0.15875 2.196-0.58208 0.29104-1.1642 0.44979-2.196 0.44979-3.0692-0.58208 0.15875-1.3229 0.29104-2.196 0.44979 0 1.0319 0 2.0373-0.44979 3.2015"/>
  </g>
  <g fill="#0c1b23">
   <path class="st14" d="m68.938 18.938c3.2015 12.7-6.4294 29.051-22.781 29.051-11.536 0-20.002-5.9796-23.363-13.123-0.44979-0.87312-1.0319-0.74083-0.58208 0.29104 3.9423 8.3079 11.245 13.864 23.945 13.864 17.357 0 26.855-16.192 23.363-30.215-0.42333-1.9315-1.1642-1.9315-0.58208 0.13229"/>
   <path class="st14" d="m79.468 14.387c-4.9742-2.0373-9.3398-0.44979-12.118-1.1642-4.6831-9.7896-18.971-16.192-30.348-11.827-12.832 4.8154-18.971 18.256-16.484 28.76-4.9742 3.0692-9.6308 7.1438-10.954 11.245-1.1642 3.3602 0.15875 6.8527 2.7781 7.8846 2.7781 1.0319 5.6885-0.87312 7.4348-3.7835 1.4552-2.3283 3.0692-7.8846 3.3602-9.0488 0-0.29104-0.44979-1.1642-0.58208-1.0319-0.29104 1.1642-2.196 7.3025-3.6512 9.4985s-3.9423 4.0746-6.1383 3.2015c-1.7462-0.58208-3.2015-3.4925-2.196-6.4294 1.3229-3.9423 6.4294-8.4667 10.213-10.663 0.58208-0.29104 0.58208-0.44979 0.44979-1.0319-2.196-9.6044 3.7835-22.886 16.325-27.57 8.9165-3.2015 22.781 0 28.892 10.795 0.15875 0.29104 0.44979 0.58208 0.87312 0.74083 2.6194 0.58208 7.8846-0.58208 11.668 1.1642 4.0746 1.905 5.1065 4.6831 3.7835 7.0115-1.3229 2.4871-4.6831 2.196-7.1438 1.1642-1.614-0.58208-4.8154-2.196-6.4294-4.6831 0 0 0.29104 1.3229 0.44979 1.4552 1.614 2.196 3.6512 3.3602 5.6885 4.2333 3.3602 1.3229 7.1438 1.0319 8.599-1.4552 1.6404-2.9104 0.05292-6.5617-4.4715-8.4667"/>
   <path class="st14" d="m28.668 36.877c-2.3283-1.3229-4.0746-6.1383-4.5244-9.3398-0.44979-2.4871-0.58208-10.663 2.4871-11.377 1.905-0.44979 4.3921 2.7781 5.9796 9.4985 0.58208 3.2015 1.3229 8.4667-0.87312 10.795-0.74083 0.74083-1.0319 0.29104-0.29104-0.44979 1.3229-1.614 1.4552-5.2652 0.29104-10.081-1.3229-6.1383-3.3602-8.599-4.8154-8.3079-2.0373 0.44979-2.3283 6.5617-1.7462 9.7896 0.58208 3.6512 1.905 7.8846 3.6512 9.0487 0.71438 0.42333 0.55562 0.87312-0.15875 0.42333"/>
   <path class="st14" d="m30.255 61.113c-2.4871-0.15875-3.7835-1.905-5.1065-2.0373-2.0373-0.15875-4.0746 1.7462-6.1383 1.1642-5.8473-1.614 10.663-12.118 15.901-13.573 0.15875 0 1.4552 0.44979 1.3229 0.58208-7.4348 2.0373-19.711 11.245-16.775 11.959 1.7462 0.44979 3.7835-1.1642 5.8473-1.0319 1.4552 0.15875 2.9104 1.7462 5.2652 1.905 3.3602 0.15875 7.1438-1.7462 9.3398-1.7462 3.2015 0 6.2706 1.7462 10.213 1.1642 4.6831-0.74083 6.7204-2.6194 9.4985-3.3602 2.3283-0.58208 8.7577-0.44979 10.663-1.4552 2.3283-1.3229 2.4871-3.2015 4.5244-4.5244 1.905-1.0319 6.2706-0.29104 6.5617-1.1642 0.44979-1.4552-12.991-6.5617-19.262-6.2706-0.15875 0 0.58208-0.74083 0.87312-0.74083 4.8154-0.15875 19.711 4.5244 19.42 7.1438-0.29104 2.0373-5.1065 0.44979-7.1438 1.7462-1.7462 1.0319-2.196 3.2015-4.5244 4.5244-2.4871 1.4552-8.3079 0.87312-10.795 1.614-2.3283 0.74083-5.2652 2.9104-9.7896 3.4925-4.2333 0.58208-7.4348-1.3229-10.372-1.3229-2.0638 0.18521-6.006 2.0638-9.525 1.9315"/>
   <path class="st14" d="m27.504 93.815c-3.6513-0.15875-11.377-0.15875-11.377-5.2652 0-4.2333 4.9742-7.0115 7.3025-8.3079 7.3025-4.2333 9.7896-10.663 11.245-20.002 0-0.29104 0.74083-0.29104 0.74083-0.15875-1.4552 9.7896-3.7835 16.484-11.536 21.008-2.0373 1.3229-6.4294 3.6512-6.4294 7.3025s5.6885 4.0746 10.081 4.2333c10.213 0.44979 16.484 0 17.965-7.4348 0.74083-3.6512-1.1642-19.711-1.905-23.072-0.29104-1.0319 0.44979-1.1642 0.58208-0.15875 0.87312 3.4925 3.0692 19.553 2.3283 23.363-1.9315 8.6254-8.9429 9.2075-18.997 8.4931"/>
   <path class="st14" d="m68.805 91.752c-6.5617-2.4871-12.7-21.167-13.864-29.342-0.15875-1.1642 0.58208-1.1642 0.74083 0 0.87312 7.3025 7.8846 25.823 13.573 28.178 5.5562 2.3283 20.876 3.6512 21.749-2.3283 0.58208-4.6831-4.5244-6.7204-9.6308-9.6308-7.7258-4.3921-16.933-16.06-18.838-22.199-0.15875-0.29104 0.87312-0.29104 0.87312 0 2.0373 5.9796 10.954 16.933 18.389 21.167 4.0746 2.3283 11.245 5.2652 10.504 10.954-0.74083 5.9796-14.446 6.4294-23.495 3.2015"/>
   <path class="st14" d="m25.599 71.908c2.4871-2.3283 8.1756-9.2075 8.9165-10.504 0.15875-0.29104-0.15875 1.4552-0.29104 1.7462-1.3229 2.196-5.9796 7.1438-8.3079 9.0488-0.76729 0.74083-1.1906 0.44979-0.3175-0.29104"/>
   <path class="st14" d="m30.414 66.934c-4.0746-0.29104-8.599 2.196-9.0488 4.2333 0 0.44979 0 0.74083 0.29104 1.1642-8.7577-4.6831-20.876-2.0373-21.59 1.0319-0.74083 3.0692 4.8154 6.4294 11.245 7.0115 0.58208 0.15875 1.3229 0.15875 1.905 0.15875 3.7835 0 8.0169-1.1642 10.663-2.7781 0.29104-0.15875-0.15875-0.87312-0.44979-0.74083-2.7781 1.905-8.0169 2.9104-11.959 2.4871-6.006-0.58208-10.689-3.6512-10.107-5.9796 0.74083-3.3602 14.605-4.5244 21.167 0.15875 0.58208 0.29104 1.0319 0.15875 0.58208-0.29104-0.58208-0.44979-1.1642-1.1642-1.0319-2.0373 0.29104-1.4552 3.9423-3.7835 7.5935-3.6512 0.15875-0.02646 1.0319-0.76729 0.74083-0.76729"/>
   <path class="st14" d="m23.562 77.173c0.44979 0.87312 1.0319 1.7462 1.7462 2.3283l0.74083-0.44979c-0.74083-0.74083-1.4552-1.4552-2.0373-2.196-0.44979-0.71438-0.89958-0.26458-0.44979 0.3175"/>
   <path class="st14" d="m59.757 78.337c-2.4871 4.5244-8.1756 6.8527-13.732 6.5617v0.87312c6.8527 0.44979 11.959-2.3283 14.155-6.4294 0.15875-0.13229-0.29104-1.2965-0.42333-1.0054"/>
   <path class="st14" d="m23.853 84.767c-1.3229 1.1642-2.4871 3.0692-2.7781 4.5244-0.15875 0.87312-0.29104 1.905-0.15875 2.9104 0.15875 0.29104 1.0319 0.44979 0.87312 0.15875-0.15875-1.0319 0-2.196 0-2.9104 0.29104-1.614 1.614-3.6512 3.0692-4.6831 1.0319-0.87312 2.3283-0.58208 1.614 0.13229-1.0319 0.87312-2.6194 3.2015-2.9104 4.6831-0.15875 1.0319 0 2.3283 0.15875 3.0692 0 0.29104 1.0319 0.29104 0.87312 0-0.29104-1.0319-0.29104-1.905-0.15875-2.9104 0.29104-1.3229 1.905-3.6512 2.7781-4.6831 1.5875-1.614-1.4817-2.0638-3.3602-0.29104"/>
   <path class="st14" d="m30.123 93.074c-0.29104-1.0319-0.15875-2.4871 0-3.3602 0.15875-1.4552 1.3229-3.6512 3.2015-5.5562 1.3229-1.4552 4.3656-1.0319 3.2015 0.29104-1.1642 1.3229-2.6194 3.7835-2.7781 5.2652-0.15875 1.0319 0 2.6194 0.15875 3.3602 0.15875 0.29104-1.0319 0.29104-1.0319 0.15875-0.29104-1.0319-0.29104-2.3283-0.15875-3.4925 0.29104-1.4552 1.905-4.2333 2.7781-5.2652 0.58208-0.58208-0.58208-0.87312-1.4552 0-1.3229 1.1642-2.7781 3.4925-3.0692 5.2652-0.15875 1.1642 0 2.4871 0.15875 3.4925 0.15875 0.29104-1.0054-0.02646-1.0054-0.15875"/>
   <path class="st14" d="m78.568 92.625c0.74083-3.3602-0.15875-5.3975-3.3602-8.3079-0.87312-0.87312-2.0373-0.44979-1.3229 0.44979 2.6194 2.9104 3.4925 5.1065 2.9104 7.8846 0 0.29104-0.87312 0.15875-0.87312-0.15875 0.44979-2.3283-0.29104-4.5244-2.9104-7.5935-1.1642-1.4552 1.1642-2.4871 2.7781-1.0319 3.3602 3.0692 4.3921 5.3975 3.4925 9.0488 0.02646 0.15875-0.84667 0-0.71438-0.29104"/>
   <path class="st14" d="m84.283 92.625c0.87312-3.4925 0.29104-6.1383-2.7781-8.4667-1.614-1.1642 0.74083-2.4871 2.9104-0.87312 3.2015 2.3283 4.0746 4.5244 3.0692 8.7577-0.15875 0.29104-1.0319 0.44979-0.87312 0.13229 1.0319-3.9423 0.29104-5.9796-2.9104-8.599-1.1642-0.87312-2.3283-0.44979-1.3229 0.29104 2.6194 2.0373 3.9423 4.3921 2.7781 8.7577 0 0.15875-1.0319 0.29104-0.87312 0"/>
   <path class="st14" d="m38.14 4.9153c-3.7835 2.196-4.2333 6.5617-3.0692 9.4985 1.1642 3.3602 5.6885 5.3975 9.6308 3.9423 3.6512-1.4552 5.8473-6.2706 3.9423-10.081-2.1696-4.101-6.8527-5.3975-10.504-3.3602m-4.0746 9.9219c-1.1642-3.3602-0.87312-8.3079 3.4925-10.795 4.0746-2.3283 9.4985-1.1642 11.959 3.7835 1.0319 2.0373 1.1642 4.3921 0.44979 6.4294-0.87312 2.196-2.7781 3.9423-4.9742 4.8154-4.3656 1.614-9.4721-0.44979-10.927-4.2333"/>
   <path class="st14" d="m34.198 28.701c-1.614-4.5244-1.7462-9.9219 0-14.155 0.15875-0.15875 0.44979 0.87312 0.44979 1.0319-1.4552 4.3921-1.0319 8.9165 0.44979 12.832 2.196 5.9796 8.599 9.9219 13.732 8.4667 6.5617-2.0373 8.3079-10.213 6.7204-17.357-0.87312-3.6512-3.7835-7.0115-5.3975-7.7258-0.15875-0.15875-0.15875-1.0319 0.15875-0.87312 1.7462 1.0319 5.2652 4.6831 6.1383 8.4667 1.7462 7.5935-0.15875 16.351-7.3025 18.389-6.0325 1.7198-12.462-2.6458-14.949-9.0752"/>
   <path class="st14" d="m51.29 14.255c0.44979 0.58208 1.3229 2.0373 1.905 2.7781 0.29104 0.58208 1.1642 0.15875 0.87312-0.44979-0.58208-0.87312-1.905-2.196-2.3283-2.6194-0.74083-0.58208-1.0319-0.15875-0.44979 0.29104"/>
   <path class="st14" d="m34.78 18.039c-0.29104 0.87312-0.87312 2.6194-0.87312 3.3602 0 1.0319 0.87312 0.87312 0.87312 0 0.15875-0.87312 0.29104-2.196 0.58208-3.2015 0.15875-0.58208-0.42333-0.74083-0.58208-0.15875"/>
   <path class="st14" d="m29.382 31.612c-0.74083 0.15875-2.196-2.3283-2.7781-5.5562-0.58208-3.2015-0.58208-6.2706 0.74083-6.5617 1.0319-0.29104 2.196 1.7462 2.9104 5.3975 0.74083 3.9688 0.15875 6.4294-0.87312 6.7204m1.614-6.694c-0.58208-2.9104-2.196-6.5617-3.7835-6.1383-1.7462 0.29104-1.905 4.8154-1.4552 7.4348 0.58208 3.2015 2.0373 6.5617 3.9423 6.1383 1.7462-0.44979 2.0373-3.6512 1.2965-7.4348"/>
   <path class="st14" d="m61.503 27.828c-1.905-1.614-3.7835-5.2652-4.6831-8.4667-0.29104-0.87312-2.7781-9.9219 0.74083-11.086 1.7462-0.58208 5.5562 1.614 7.5935 8.599 0.58208 2.3283 1.1642 6.7204 0.44979 9.4985-0.29104 1.0319-0.87312 0.87312-0.58208-0.15875 0.58208-2.4871-0.15875-6.7204-0.87312-9.0488-1.4552-5.3975-4.6831-8.3079-6.2706-7.7258-1.905 0.58208-1.3229 6.1383-0.29104 9.7896 0.87312 2.9104 2.6194 6.5617 4.3921 8.1756 0.84667 0.58208 0.39688 1.1642-0.47625 0.42333"/>
   <path class="st14" d="m58.592 11.477c-1.0319 0.29104-0.74083 3.3602-0.15875 6.1383 0.87312 3.2015 2.4871 5.6885 3.3602 5.3975 1.0319-0.44979 0.29104-4.5244-0.15875-6.4294-1.0054-3.7835-2.1696-5.3975-3.0427-5.1065m-1.0319 6.4294c-0.58208-2.6194-1.0319-6.5617 0.74083-7.3025 1.0319-0.29104 3.0692 1.4552 4.2333 5.6885 0.44979 1.7462 1.1642 6.7204-0.44979 7.3025-1.7462 0.87312-3.6512-2.7781-4.5244-5.6885"/>
   <path class="st14" d="m39.754 26.214c0.15875 4.2333 3.2015 10.213 8.0169 9.3398 4.2333-0.74083 5.3975-6.7204 3.3602-11.377-2.9104 3.3602-8.1756 3.6512-11.377 2.0373m-0.58208-0.58208c0-0.29104 0.29104-0.44979 0.58208-0.29104 3.0692 2.0373 9.4985 1.0319 11.086-2.196 0.15875-0.29104 0.44979-0.29104 0.58208 0 2.4871 4.8154 2.0373 12.25-3.4925 13.282-4.9742 1.0319-9.2075-4.5244-8.7577-10.795"/>
   <path class="st14" d="m41.5 32.353c1.905-3.4925 7.3025-5.3975 10.663-2.0373 0.15875 0.15875 0 1.0319-0.15875 0.74083-3.2015-3.3602-8.3079-1.3229-10.081 1.905-0.13229 0.13229-0.55562-0.44979-0.42333-0.60854"/>
  </g>
 </g>
</svg>
