<?xml version="1.0" encoding="UTF-8"?>
<!-- Created with Inkscape (http://www.inkscape.org/) -->
<svg version="1.1" viewBox="0 0 295.92 288.96" xmlns="http://www.w3.org/2000/svg" xmlns:cc="http://creativecommons.org/ns#" xmlns:dc="http://purl.org/dc/elements/1.1/" xmlns:rdf="http://www.w3.org/1999/02/22-rdf-syntax-ns#">
 <metadata>
  <rdf:RDF>
   <cc:Work rdf:about="">
    <dc:format>image/svg+xml</dc:format>
    <dc:type rdf:resource="http://purl.org/dc/dcmitype/StillImage"/>
   </cc:Work>
  </rdf:RDF>
 </metadata>
 <g transform="translate(-181.68 -356.88)">
  <g transform="matrix(3.8854 0 0 -3.8854 437.94 575.54)">
   <path d="m0 0c-2.692-0.792-7.733-3.985-11.639-7.865-0.396 2.595-1.874 8.26-3.985 11.357-1.795 0.388-4.434 0.915-5.349 2.182l-8.973-2.111c-0.246-0.211-0.493-0.352-0.798-0.568-1.461-3.504 0.16-7.207 2.768-9.672-0.515-0.696-0.928-1.74-1.047-2.698l0.952-1.719c1.668-0.324 3.953 0.052 5.691 1.144 2.667-1.684 6.386-1.557 10.636-0.026 10.847 1.24 20.823 6.783 20.533 8.366-0.202 1.097-6.111 2.398-8.789 1.61" fill="#2e3b42"/>
  </g>
  <g transform="matrix(3.8854 0 0 -3.8854 381.47 443.15)">
   <path d="m0 0c-1.822 3.943-5.964 6.354-10.778 7.171 3.519-1.314 7.218-3.732 8.479-6.782-3.56-1.488-4.375-2.89-3.897-5.518-5.713 8.903-15.325 9.253-21.748 1.998 2.021-0.41 3.659-0.71 5.981-0.929-12.601-8.181-23.241-3.359-20.194 8.494-5.4-10.497 2.816-31.248 21.677-29.419 1.413 0.137 2.604 0.564 3.556 1.183 0.465-0.153 1.029-0.227 1.539-0.206 0.113-0.239 0.216-0.458 0.316-0.671-1.699-2.038-3.666-5.599-4.038-7.766 1.372 0.317 2.498 0.88 3.694 1.936 0.942-2.217 1.769-3.915 2.895-5.675 1.249 1.777 2.067 3.704 2.736 6.238 2.225-0.748 3.281-1.091 4.864-1.408-1.104 2.569-3.435 5.788-5.48 7.759l-0.194 0.018c-0.246 0.633-0.434 1.106-0.668 1.741 11.472 6.423 14.529 14.761 11.26 21.836" fill="#fff"/>
  </g>
  <g transform="matrix(3.8854 0 0 -3.8854 296.13 458.93)">
   <path d="m0 0c-2.322 0.219-3.96 0.519-5.981 0.928 6.423 7.255 16.036 6.905 21.748-1.997-0.478 2.628 0.337 4.03 3.897 5.518-1.261 3.05-4.96 5.468-8.479 6.781-5.522 0.938-11.929-0.223-16.74-3.581-7.95-5.55-12.668-5.489-14.639 0.845-3.047-11.853 7.593-16.675 20.194-8.494" fill="#d93b20"/>
  </g>
  <g transform="matrix(3.8854 0 0 -3.8854 216.83 427.64)">
   <path d="m0 0c-4.954-10.625 3.293-30.781 21.894-28.976 6.598 0.64 8.369 7.563 3.519 11.12-3.225-6.587-11.534-2.338-10.71 6.945-9.164-3.806-16.95 1.019-14.703 10.911" fill="#2e3b42"/>
  </g>
  <g transform="matrix(3.8854 0 0 -3.8854 465.42 471.59)">
   <path d="m0 0c-3.257-1.111-6.207-2.477-9.61-4.81 8.503 7.896 12.469 15.353 11.968 22.475-0.156 2.214-1.213 2.563-3.238 1.161-2.125-1.471-3.885-3.125-5.676-5.186-1.276-0.296-2.122-0.49-3.366-0.882 0.959 6.681 0.576 12.653-1.163 15.288-0.645 0.978-1.331 1.189-1.907 1.065-1.977-2.153-3.769-7.866-4.585-16.408-1.478-15.465-4.223-26.286-9.554-31.564-1.644-1.628-1.186-2.653 1.267-3.59 5.067-1.935 11.891-0.298 15.06 3.445 1.17 1.382 0.76 2.147-0.957 2.434-0.917 0.152-1.821 0.18-2.818 0.122 7.478 2.634 15.094 8.527 17.183 14.479 0.627 1.785-0.48 2.696-2.604 1.971" fill="#fff"/>
  </g>
  <g transform="matrix(3.8854 0 0 -3.8854 377.68 493.2)">
   <path d="m0 0c-1.209-4.687-2.76-8.268-5.184-11.187-0.814-0.98-1.327-1.737-1.578-2.567 0.354-0.474 0.91-1.23 1.373-2.049l0.163 0.073c-0.547 0.663-0.332 1.434 0.675 2.431 5.331 5.279 8.076 16.099 9.554 31.565 0.804 8.419 2.574 14.199 4.518 16.424-0.448-0.25-0.837-0.541-1.103-0.843-2.083-2.365-3.97-6.825-5.21-15.475-0.441-3.074-0.847-5.881-1.256-8.451 0.746-3.549-0.287-7.25-1.952-9.921" fill="#2e3b42"/>
  </g>
  <g transform="matrix(3.8854 0 0 -3.8854 211.36 453.43)">
   <path d="m0 0c0.012 0.814 0.071 1.615 0.182 2.392-1.613 2.294-3.005 4.285-4.323 5.422-0.641 0.553-1.235 0.676-1.718 0.5 1.275-0.675 3.8-4.622 5.859-8.314" fill="#2e3b42"/>
  </g>
  <g transform="matrix(3.8854 0 0 -3.8854 318.06 564.56)">
   <path d="m0 0c-0.158-0.607-0.317-1.425-0.345-2.019-1.899-1.962-4.338-3.186-6.9-3.352-3.123-0.202-3.618 1.664-2.297 2.631 0.71 0.52 1.953 1.17 3.582 1.989-5.928-1.696-13.643-1.012-18.63 3.112-1.321 1.093-1.442 2.509-0.234 3.185 1.182 0.66 3.66 0.893 7.086 0.598-5.837 1.58-13.097 5.72-16.264 10.958-1.597 2.643-0.194 4.272 1.654 3.871 2.123-0.462 3.493-0.95 5.873-2.053-6.734 4.385-9.134 10.872-7.963 16.43 0.166 0.789 0.571 1.368 1.116 1.565 1.276-0.674 3.801-4.622 5.859-8.313-0.148-10.021 7.16-22.235 20.64-22.446 1.726-1.471 3.673-2.343 5.922-2.631-0.95-1.852-1.579-3.445-1.888-4.721 1.013 0.301 1.696 0.589 2.789 1.196" fill="#fff"/>
  </g>
  <g transform="matrix(3.8854 0 0 -3.8854 341.53 534.62)">
   <path d="m0 0c1.489-0.084 2.643-0.435 3.697-1.104-0.385-0.485-0.853-1.154-1.154-1.907-0.87 1.154-1.774 2.175-2.543 3.011" fill="#2e3b42"/>
  </g>
  <g transform="matrix(3.8854 0 0 -3.8854 325.14 611.87)">
   <path d="m0 0c-0.862-0.422-1.584-0.686-2.428-0.897-3.906 5.7-9.466 4.662-10.539 2.727 2.21 0.567 5.303 0.047 7.299-1.894-4.673 1.414-8.346-0.75-7.686-2.311 1.992 1.501 6.068 1.438 8.392-0.669 2.018-1.829 2.818-3.693 2.692-5.437 1.057 0.803 1.177 2.183 0.57 4.015 1.183-0.838 1.792-1.888 2.351-3.539 0.522 2.042-0.211 4.028-2.252 5.735 0.964 0.075 1.612 0.205 2.481 0.423 0.886 0.221 0.095 2.325-0.88 1.847" fill="#8a8c8e"/>
  </g>
  <g transform="matrix(3.8854 0 0 -3.8854 325.63 522.33)">
   <path d="m0 0c-12.371-3.308-25.368 2.154-29.194 15.277 2.291-17.24 17.498-22.897 26.639-18.721 0.88 0.386 2.063 1.916 2.555 3.444" fill="#222c33"/>
  </g>
  <g transform="matrix(3.8854 0 0 -3.8854 323.1 539.05)">
   <path d="m0 0c-1.774-1.746-3.605-5.352-3.89-7.708 1.378 2.356 3.028 4.425 4.67 5.923 0.048-0.129 0.193-0.451 0.266-0.677 1.457-0.305 3.469 1.418 3.985 3.092-0.129 0.193-0.258 0.354-0.389 0.484l-0.291 0.053c-0.211 0.475-0.475 1.214-0.656 1.727 3.974 2.071 7.816 5.389 9.779 8.592-3.873-3.6-8.306-5.975-12.822-7.183-0.492-1.528-1.676-3.058-2.556-3.444 0.528-0.106 1.127-0.246 1.514-0.211z" fill="#d1d3d4"/>
  </g>
  <g transform="matrix(3.8854 0 0 -3.8854 320.78 561.03)">
   <path d="m0 0c0.468 0.402 1.174 0.332 1.366-0.297 0.387-1.27 1.023-3.134 1.847-5.139-0.992 1.216-2.506 3.772-3.213 5.436" fill="#d1d3d4"/>
  </g>
  <g transform="matrix(3.8854 0 0 -3.8854 342.36 559.36)">
   <path d="m0 0c0.16 0.501 0.552 0.716 0.977 0.521 1.378-0.633 2.711-1.154 4.176-1.722-1.366 0.093-3.847 0.772-5.153 1.201" fill="#d1d3d4"/>
  </g>
  <g transform="matrix(3.8854 0 0 -3.8854 314.68 550.89)">
   <path d="m0 0c-2.262 0.284-4.219 1.157-5.954 2.635 0.862-0.013 1.749 0.019 2.662 0.108 0.025 3e-3 0.049 7e-3 0.075 0.01 1.301-0.84 2.41-1.428 3.796-1.759-0.251-0.413-0.369-0.633-0.579-0.994" fill="#222c33"/>
  </g>
  <g transform="matrix(3.8854 0 0 -3.8854 239.19 519.57)">
   <path d="m0 0c3.374-3.194 7.896-5.338 13.476-5.425 1.726-1.471 3.673-2.343 5.922-2.631-0.95-1.852-1.579-3.445-1.888-4.721 1.013 0.301 1.696 0.59 2.789 1.196-0.159-0.607-0.317-1.425-0.345-2.018-1.899-1.962-4.338-3.187-6.9-3.353-3.123-0.202-3.618 1.664-2.297 2.631 0.71 0.52 1.953 1.17 3.582 1.99-5.928-1.697-13.643-1.013-18.63 3.111-1.321 1.093-1.442 2.509-0.234 3.185 1.181 0.66 3.66 0.893 7.086 0.599-5.837 1.579-13.988 6.251-16.244 11.563 3.355-3.755 9.161-5.616 13.683-6.127" fill="#d1d3d4"/>
  </g>
  <g transform="matrix(3.8854 0 0 -3.8854 184.99 427.29)">
   <path d="m0 0c0.106-4.469 3.8-10.662 7.636-12.844 0.282-1.302 0.88-3.026 1.513-4.223-5.862 2.904-10.926 9.328-9.149 17.067" fill="#d1d3d4"/>
  </g>
  <g transform="matrix(3.8854 0 0 -3.8854 474.42 471.97)">
   <path d="m0 0c-2.388-5.252-17.73-14.225-24.007-9.464-1.532-4.391-4.139-8.104-5.547-9.476-1.407-1.373-1.126-2.428 0.704-3.203 8.03-3.396 17.116 2.35 16.19 5.126-2.97-1.363-7.89-1.363-7.782-0.368 15.163 3.749 22.506 15.353 20.442 17.385" fill="#d1d3d4"/>
  </g>
  <g transform="matrix(3.8854 0 0 -3.8854 306.89 616.8)">
   <path d="m0 0c-3.76 1.625-7.467 0.928-8.634-0.889 2.634 1.132 5.175 1.222 7.918-0.53 1.909-1.22 3.05-3.461 3.209-5.637 0.623 0.995 0.226 3.449-0.49 4.443 1.246-0.504 2.666-1.949 3.289-3.832 0.083 1.463-0.869 3.28-2.374 4.309-1.009 0.691-1.367 1.243-1.934 2.304-2.031 3.807-6.233 4.465-9.061 3.121 3.647 0.318 6.313-0.809 8.077-3.289" fill="#636466"/>
  </g>
  <g transform="matrix(3.8854 0 0 -3.8854 329.44 614.45)">
   <path d="m0 0c-0.759-0.402-1.788-0.713-2.699-0.838-0.41-0.056-0.541-0.574-0.27-0.884 1.24 0.073 1.979 0.284 2.573 0.449s0.691 0.507 0.396 1.273" fill="#636466"/>
  </g>
  <g transform="matrix(3.8854 0 0 -3.8854 332.68 584.18)">
   <path d="m0 0c3.861-5.348 10.518-7.261 14.769-6.304 5.195 0.057 13.825 2.696 19.781 6.426 0.563 0.352 0.571 0.716 0.203 0.925 0.93-7e-3 1.345-0.607 0.902-1.103-2.192-2.454-12.62-7.06-20.01-7.632-3.146-1.049-7.34-1.999-10.847-0.098-1.377-0.689-4.097-1.637-5.605-1.047 0.202 0.351 0.167 0.931-0.22 1.459 0.317 0.757 0.81 1.39 1.425 1.83-3.8 2.868-5.695 7.07-4.161 10.592 0.396 0.299 0.66 0.475 0.906 0.739 0.669-1.812 1.738-3.921 2.857-5.787" fill="#222c33"/>
  </g>
  <g transform="matrix(3.8854 0 0 -3.8854 381.05 508.84)">
   <path d="m0 0c-0.769-0.061-1.598 0.222-1.84 0.809-1.058-3.101-2.401-5.793-4.21-7.972-0.814-0.98-1.327-1.737-1.578-2.566 0.354-0.475 0.91-1.231 1.373-2.05l0.163 0.074c-0.547 0.663-0.332 1.433 0.675 2.431 2.178 2.156 4.012 5.33 5.417 9.274" fill="#222c33"/>
  </g>
  <g transform="matrix(3.8854 0 0 -3.8854 354.54 539.98)">
   <path d="m0 0c-1.164 0.682-2.355 1.062-3.52 0.984-0.393-0.027-0.447 6e-3 -0.571 0.312-0.178 0.446-0.468 1.142-0.647 1.608-0.104 0.269-0.06 0.404 0.216 0.56 10.425 5.868 14.55 13.766 11.061 21.316-3.644 7.886-17.743 9.779-26.9 3.387-8.389-5.856-13.033-5.12-14.932 0.191-4.368-9.736 3.16-29.808 21.695-28.008 6.167 0.598 7.737 6.888 3.688 10.128-1.319-2.47-3.644-3.539-5.971-2.831-3.259 0.992-5.727 4.905-5.358 10.115l0.957 0.363c-0.517-4.94 1.773-8.807 4.638-9.68 2.141-0.652 3.961 0.365 5.188 2.679 0.219 0.416 0.345 0.458 0.699 0.201 5.004-3.63 3.316-11.128-3.756-11.813-19.054-1.845-27.388 18.732-22.156 29.814 0.324 0.685 0.58 0.705 0.843-0.042 2.022-5.752 6.324-5.794 14.016-0.424 8.998 6.281 24.028 5.085 28.113-3.754 3.674-7.951-0.591-16.232-11.15-22.196 0.156-0.418 0.279-0.773 0.436-1.175 1.366 0.04 2.609-0.364 3.906-1.121z" fill="#061922"/>
  </g>
  <g transform="matrix(3.8854 0 0 -3.8854 378.9 561.8)">
   <path d="m0 0c1.81-3.08 3.221-6.969 3.859-11.109l-0.594-0.553c-0.686 4.448-2.238 8.527-4.255 11.741z" fill="#061922"/>
  </g>
  <g transform="matrix(3.8854 0 0 -3.8854 344.52 415.82)">
   <path d="m0 0c3.124-1.349 6.325-3.567 7.542-6.545l-0.654-0.317c-1.345 3.379-5.489 5.723-9.257 6.974z" fill="#061922"/>
  </g>
  <g transform="matrix(3.8854 0 0 -3.8854 218.59 427.46)">
   <path d="m0 0c-0.948-4.413-0.147-8.079 2.751-10.162 3.781-2.718 10.118-1.893 16.205 1.835-1.844 0.186-3.369 0.438-4.941 0.76-0.572 0.117-0.638 0.333-0.278 0.728 6.717 7.367 16.324 6.76 21.988-1.732l0.202-1.656c-5.523 9.409-14.972 9.963-21.22 3.299 1.616-0.343 3.084-0.566 5.014-0.79 0.987-0.115 0.988-0.348 0.256-0.824-6.358-4.139-13.496-5.421-17.768-2.349-2.844 2.044-4.069 5.907-2.895 10.838z" fill="#061922"/>
  </g>
  <g transform="matrix(3.8854 0 0 -3.8854 317.01 534.49)">
   <path d="m0 0c0.34-0.094 0.701-0.135 1.075-0.132 0.281 4e-3 0.368-0.038 0.501-0.329 0.382-0.833 0.594-1.366 0.931-2.218 0.472-1.193 0.076-1.342-0.495-0.231-0.389 0.759-0.587 1.142-1.035 2.019-0.62 2e-3 -1.369 0.148-1.841 0.35z" fill="#061922"/>
  </g>
  <g transform="matrix(3.8854 0 0 -3.8854 323.4 540.47)">
   <path d="m0 0c-1.513-1.902-3.212-4.843-3.742-6.953 1.186 0.41 1.951 0.771 2.996 1.62 0.296 0.241 0.422 0.217 0.578-0.142 0.862-1.984 1.628-3.55 2.615-5.041 1.052 1.67 1.735 3.141 2.41 5.583 0.091 0.328 0.16 0.389 0.494 0.274 1.906-0.654 2.83-0.922 4.09-1.186-1.153 2.458-3.212 5.214-5.326 7.25l0.87 0.084c2.089-1.969 4.251-5.213 5.343-7.638 0.198-0.437 0.06-0.611-0.444-0.488-1.624 0.397-2.768 0.709-4.527 1.386-0.625-2.463-1.518-4.302-2.622-6.015-0.234-0.364-0.428-0.338-0.656 0.027-1.133 1.82-1.982 3.544-2.669 5.308-1.041-0.869-2.012-1.368-3.36-1.76-0.467-0.135-0.634-0.036-0.536 0.425 0.513 2.424 2.394 5.887 4.202 7.952z" fill="#061922"/>
  </g>
  <g transform="matrix(3.8854 0 0 -3.8854 303.96 539.83)">
   <path d="m0 0c1.168-0.739 2.27-1.228 3.576-1.524l-0.376-0.66c-1.463 0.354-2.718 1.016-4.163 1.993z" fill="#061922"/>
  </g>
  <g transform="matrix(3.8854 0 0 -3.8854 314.06 552.16)">
   <path d="m0 0c-2.346 0.31-4.533 1.293-6.275 2.91l0.957 0.059c1.673-1.359 3.508-2.082 5.668-2.336z" fill="#061922"/>
  </g>
  <g transform="matrix(3.8854 0 0 -3.8854 222.03 496.78)">
   <path d="m0 0c-7.605 3.966-11.547 10.988-10.08 17.96 0.395 1.875 1.981 2.49 3.371 1.291 1.32-1.14 2.694-3.018 4.286-5.282l-0.266-0.937c-1.574 2.239-3.129 4.586-4.405 5.686-1.192 1.029-2.038 0.411-2.306-0.877-1.269-6.124 2.106-12.728 8.813-16.64z" fill="#061922"/>
  </g>
  <g transform="matrix(3.8854 0 0 -3.8854 211.31 455.91)">
   <path d="m0 0c-2.519 4.567-5.216 8.655-6.248 8.819l0.823 0.211c1.231-0.832 3.532-4.357 5.46-7.788z" fill="#061922"/>
  </g>
  <g transform="matrix(3.8854 0 0 -3.8854 218.29 493.96)">
   <path d="m0 0c-2.87 1.364-4.348 1.876-6.753 2.399-1.841 0.401-2.401-1.374-1.256-3.268 3.543-5.861 12.6-10.625 18.859-11.505 1.686-0.237 1.596-0.635-0.06-0.475-6.383 0.616-15.836 5.594-19.451 11.574-1.78 2.944-0.163 4.95 2.049 4.468 1.791-0.39 2.989-0.839 4.685-1.578z" fill="#061922"/>
  </g>
  <g transform="matrix(3.8854 0 0 -3.8854 253.3 542.34)">
   <path d="m0 0c-3.73 0.4-6.73 0.197-8.003-0.515-0.973-0.543-0.871-1.588 0.303-2.56 5.543-4.584 14.188-4.739 19.943-2.633 1.078 0.394 1.231-7e-3 0.172-0.447-5.645-2.345-14.771-2.283-20.57 2.513-1.701 1.407-1.496 3.045-0.205 3.767 1.13 0.632 3.239 0.897 6.11 0.733z" fill="#061922"/>
  </g>
  <g transform="matrix(3.8854 0 0 -3.8854 316.24 574.79)">
   <path d="m0 0c-1.927-1.864-4.294-2.975-6.749-3.134-3.595-0.237-4.191 2.123-2.59 3.294 0.567 0.415 1.335 0.834 2.556 1.461l2.514 0.484c-1.921-0.961-3.732-1.87-4.578-2.488-1.198-0.878-0.541-2.14 2.047-1.97 2.508 0.162 4.961 1.406 6.873 3.428z" fill="#061922"/>
  </g>
  <g transform="matrix(3.8854 0 0 -3.8854 320.24 563.03)">
   <path d="m0 0c-2.188-4.865 1.612-10.091 5.993-11.994 1.199-0.521 0.959-0.861-0.174-0.447-4.259 1.558-8.429 6.52-6.835 11.761z" fill="#061922"/>
  </g>
  <g transform="matrix(3.8854 0 0 -3.8854 324.04 612.33)">
   <path d="m0 0c0.089 1.025 0.501 2.183 1.114 2.985l0.467-0.412c-0.472-0.648-0.874-1.535-1.002-2.406z" fill="#061922"/>
  </g>
  <g transform="matrix(3.8854 0 0 -3.8854 330.03 617.71)">
   <path d="m0 0c1.635-0.236 3.624 0.214 5.145 1.147 0.218 0.133 0.327 0.135 0.561-3e-3 2.444-1.452 5.871-1.447 10.055 0.031 0.142 0.051 0.233 0.069 0.384 0.086 11.448 1.358 20.128 6.965 19.959 7.91-0.131 0.707-5.533 2.091-8.247 1.293-2.646-0.778-7.3-3.676-11.55-7.688-1.073-1.013-1.417-0.63-0.378 0.417 3.992 4.027 9.368 7.375 11.73 8.07 2.703 0.794 9.116-0.562 9.362-1.94 0.362-2.025-10.088-7.551-20.909-8.795-4.4-1.581-8.148-1.592-10.748-0.027-1.742-1.035-4.082-1.445-5.991-0.934z" fill="#061922"/>
  </g>
  <g transform="matrix(3.8854 0 0 -3.8854 319.99 630.41)">
   <path d="m0 0c0.513-1.663 0.239-3.058-0.632-3.775-0.426-0.35-0.549-0.213-0.552 0.234-0.019 1.798-0.846 3.391-2.659 5.035-2.217 2.01-5.827 2.02-7.852 0.83-0.377-0.223-0.515-0.174-0.61 0.119-0.547 1.702 2.825 3.899 7.545 2.68l0.574-0.759c-4.376 1.411-7.608-0.416-7.683-1.569 2.081 1.47 6.119 1.259 8.455-0.859 1.75-1.587 2.692-3.266 2.715-5.072 0.544 0.75 0.558 1.911 0.017 3.56z" fill="#061922"/>
  </g>
  <g transform="matrix(3.8854 0 0 -3.8854 326.53 642.54)">
   <path d="m0 0c-0.63 1.76-1.336 2.697-2.642 3.555-0.727 0.477-0.553 0.771 0.218 0.369 1.344-0.701 2.151-1.768 2.626-3.102 0.059 1.604-0.725 3.164-2.256 4.505-0.396 0.346-0.312 0.546 0.138 0.584 0.866 0.078 1.54 0.21 2.335 0.409 0.228 0.057 0.317 0.313 0.087 0.826-0.224 0.502-0.456 0.626-0.751 0.483-0.793-0.388-1.469-0.632-2.287-0.871-0.304-0.089-0.434-9e-3 -0.593 0.216-3.305 4.655-7.943 4.501-9.595 3.117 2.429 0.504 5.508-0.297 7.368-2.635 0.796-1.001 0.469-1.27-0.37-0.304-1.9 2.187-4.983 2.809-7.279 2.395-0.67-0.121-0.692 0.086-0.417 0.483 1.41 2.044 6.855 2.841 10.749-2.701 0.769 0.202 1.383 0.443 2.162 0.824 0.641 0.314 1.163 0.1 1.551-0.799 0.358-0.831 0.136-1.444-0.45-1.591-0.7-0.175-1.16-0.28-1.864-0.361 1.705-1.6 2.303-3.424 1.844-5.359-0.162-0.685-0.376-0.597-0.574-0.043" fill="#061922"/>
  </g>
  <g transform="matrix(3.8854 0 0 -3.8854 364.42 591.47)">
   <path d="m0 0c0.189 0.901 0.603 0.827 0.471-0.086-0.097-0.667-0.249-1.619-0.344-2.342l-0.428 1.047c0.133 0.542 0.209 0.941 0.301 1.381" fill="#061922"/>
  </g>
  <g transform="matrix(3.8854 0 0 -3.8854 380.58 487.47)">
   <path d="m0 0c-1.306-5.613-2.944-9.655-5.636-12.897-0.828-0.997-1.393-1.824-1.617-2.721l-0.546 0.68c0.281 0.832 0.803 1.605 1.572 2.532 2.223 2.676 3.69 5.895 4.848 10.135z" fill="#061922"/>
  </g>
  <g transform="matrix(3.8854 0 0 -3.8854 384.25 450.4)">
   <path d="m0 0c0.351 2.266 0.707 4.724 1.091 7.399 1.108 7.731 2.874 12.835 5.377 15.672 1.297 1.471 2.622 1.257 3.628-0.258 2.297-3.459 2.328-12.031 0.106-20.908-0.337-1.349-0.818-1.239-0.514 0.118 1.927 8.634 1.945 17.18-0.192 20.368-0.762 1.138-1.638 1.201-2.52 0.198-2.373-2.693-3.967-7.651-5.061-15.287-0.503-3.505-0.964-6.647-1.435-9.479z" fill="#061922"/>
  </g>
  <g transform="matrix(3.8854 0 0 -3.8854 411.46 534.15)">
   <path d="m0 0c0.748 0.014 1.455-0.03 2.191-0.153 2.214-0.369 2.426-1.485 1.129-3.015-3.495-4.128-10.613-5.343-15.408-3.512-2.789 1.065-3.137 2.438-1.372 4.186 4.785 4.737 7.786 14.613 9.382 31.315 0.739 7.74 2.391 13.55 4.478 16.227l0.923 0.178c-2.161-2.088-3.879-8.228-4.666-16.463-1.613-16.884-4.486-26.639-9.656-31.758-1.247-1.235-1.328-2.106 1.151-3.054 4.889-1.867 11.511-0.297 14.642 3.399 0.901 1.064 0.871 1.592-0.739 1.86-1.194 0.199-2.412 0.174-3.719 0.043z" fill="#061922"/>
  </g>
  <g transform="matrix(3.8854 0 0 -3.8854 432.37 485.94)">
   <path d="m0 0c2.508 1.606 5.016 2.899 8.393 4.051 2.351 0.802 3.799-0.251 3.048-2.448-2.171-6.347-10.954-13.182-19.945-15.35-1.427-0.344-1.534 0.08-0.117 0.464 8.707 2.363 17.207 8.957 19.363 15.097 0.488 1.39-0.198 2.196-2.125 1.538-3.939-1.345-7.243-2.968-11.144-5.859z" fill="#061922"/>
  </g>
  <g transform="matrix(3.8854 0 0 -3.8854 437.71 418.96)">
   <path d="m0 0c2.024 2.351 3.932 4.189 6.025 5.637 2.204 1.525 3.663 1.145 3.849-1.511 0.531-7.544-3.797-15.526-13.548-23.928-1.386-1.194-1.748-0.877-0.344 0.402 9.211 8.389 13.643 16.138 13.125 23.49-0.128 1.817-0.798 2.131-2.662 0.84-1.906-1.32-3.397-2.69-5.228-4.667z" fill="#061922"/>
  </g>
  <g transform="matrix(3.8854 0 0 -3.8854 365.88 604.49)">
   <path d="m0 0c-1.09 4.36-4.038 6.977-6.299 6.791 1.714-1.456 2.752-2.977 3.455-5.065-3.775 2.837-6.826 1.964-7.044 0.597 1.711 0.921 5.379-0.551 6.615-3.414 0.887-2.054 0.986-5.349-0.07-7.495 0.985 0.105 2.006 1.407 2.287 4.117 0.812-1.284 1.345-3.103 1.514-5.279 1.197 1.536 0.264 6.869-0.458 9.748" fill="#8a8c8e"/>
  </g>
  <g transform="matrix(3.8854 0 0 -3.8854 368.81 619.16)">
   <path d="m0 0c0.302 0.148 0.514 0.273 0.803 0.461 0.456 0.297 0.166 1.726-0.365 2.018-0.27 0.148-0.598 0.262-0.962 0.33 0.237-1.162 0.336-1.606 0.524-2.809" fill="#8a8c8e"/>
  </g>
  <g transform="matrix(3.8854 0 0 -3.8854 368.04 613.77)">
   <path d="m0 0c0.462 0.052 0.82 0.113 1.195 0.174 0.069-0.322 0.052-0.819-0.122-0.976-0.175-0.157-0.619-0.489-0.916-0.637-0.026 0.488-0.07 0.968-0.157 1.439" fill="#636466"/>
  </g>
  <g transform="matrix(3.8854 0 0 -3.8854 342.52 578.59)">
   <path d="m0 0c4.212-1.16 7.169-12.26 6.551-16.247-0.261 1.535-0.617 3.924-1.497 5.328-0.262 0.357-0.726 0.239-0.765-0.303-0.093-1.274-0.545-3.062-1.469-3.96 1.011 2.587 0.756 5.685-0.062 7.32-1.847 3.695-5.623 4.051-6.563 3.642 1.1 1.214 4.276 0.721 7.276-1.979-0.475 2.718-2.297 5.018-3.471 6.199" fill="#636466"/>
  </g>
  <g transform="matrix(3.8854 0 0 -3.8854 355.5 600.05)">
   <path d="m0 0c-3.278 2.719-5.974 2.405-6.751 1.607 1.846 0.552 5.162-0.825 6.425-3.718 0.841-1.926 1.058-5.016 0.089-7.223 0.652 0.493 1.296 1.48 1.593 3.544 0.082 0.567 0.28 0.624 0.573 0.125 0.705-1.202 1.181-2.597 1.342-4.274 0.317 1.508 0.139 4.623-0.885 8.719-0.969 3.874-3.365 6.252-5.353 6.603 1.694-1.439 2.595-3.14 3.211-5.4 0.236-0.865-0.171-0.984-0.422-0.124-0.696 2.379-1.811 3.977-3.474 5.49-0.361 0.329-0.324 0.527 0.177 0.552 2.297 0.111 5.295-2.376 6.448-6.989 1.133-4.532 1.336-8.408 0.467-9.767-0.312-0.489-0.508-0.39-0.564 0.128-0.186 1.708-0.53 3.139-1.117 4.374-0.334-2.344-1.288-3.409-2.203-3.579-0.516-0.095-0.556 2e-3 -0.365 0.471 0.903 2.206 0.698 5.283-0.091 7.113-1.045 2.421-4.184 4.021-6.015 3.404-0.496-0.167-0.61-0.059-0.504 0.327 0.413 1.523 3.656 2.26 7.194-0.593z" fill="#061922"/>
  </g>
  <g transform="matrix(3.8854 0 0 -3.8854 368.56 618.07)">
   <path d="m0 0c0.28 0.139 0.432 0.246 0.693 0.416 0.298 0.194 0.065 1.304-0.324 1.517-0.225 0.124-0.467 0.221-0.752 0.284l-0.151 0.62c0.389-0.046 0.772-0.158 1.187-0.369 0.607-0.309 1.093-2.002 0.356-2.527-0.323-0.231-0.55-0.37-0.923-0.548z" fill="#061922"/>
  </g>
  <g transform="matrix(3.8854 0 0 -3.8854 414.82 419.22)">
   <path d="m0 0c-4.504-1.987-9.029-4.336-12.551-6.449-1.693-1.016-2.581-3.207-2.013-5.254 3.09 1.06 8.09 3.651 13.3 6.975-0.33 1.2-0.078 3.134 1.264 4.728" fill="#8a8c8e"/>
  </g>
  <g transform="matrix(3.8854 0 0 -3.8854 414.82 419.22)">
   <path d="m0 0c-1.342-1.594-1.594-3.528-1.264-4.728 3.956 2.524 8.034 5.47 11.489 8.493-3.046-0.821-6.629-2.178-10.225-3.765" fill="#2e3b42"/>
  </g>
  <g transform="matrix(3.8854 0 0 -3.8854 358.23 464.69)">
   <path d="m0 0c0.21-0.825 0.875-1.922 1.881-2.69 2.905-2.216 6.878-4.418 11.223-6.011-0.187 0.488-0.277 0.89-0.328 1.425-4.602 2.158-9.162 4.722-12.776 7.276" fill="#636466"/>
  </g>
  <g transform="matrix(3.8854 0 0 -3.8854 407.87 492.96)">
   <path d="m0 0c0.051-0.535 0.141-0.937 0.329-1.425 2.698-0.989 5.539-1.745 8.359-2.119-2.754 0.937-5.729 2.157-8.688 3.544" fill="#222c33"/>
  </g>
  <g transform="matrix(3.8854 0 0 -3.8854 454.55 404.59)">
   <path d="m0 0c-3.558-4.363-15.166-14.297-18.805-16.021-1.752 0.625-4.088 0.578-5.127-0.06l-0.637 0.732c6.848 2.295 17.65 9.462 24.569 15.349" fill="#8d3103"/>
  </g>
  <g transform="matrix(3.8854 0 0 -3.8854 423.89 494.22)">
   <path d="m0 0c0.66-0.686 1.24-1.478 1.61-2.138 0.95-0.343 1.636-0.501 2.718-0.818-1.161 1.082-2.586 2.243-4.328 2.956" fill="#8d3103"/>
  </g>
  <g transform="matrix(3.8854 0 0 -3.8854 361.53 466.89)">
   <path d="m0 0c2.037 0.752 4.569 0.563 7.348-0.965 4.457-2.45 8.775-5.418 10.32-8.094-6.52 2.446-12.756 5.655-17.668 9.059" fill="#f3859b"/>
  </g>
  <g transform="matrix(3.8854 0 0 -3.8854 389.73 470.52)">
   <path d="m0 0c2.696-1.59 4.563-4.24 4.885-5.853-3.042 1.383-8.41 4.033-12.189 6.798 1.474 0.53 4.649 0.621 7.304-0.945" fill="#c96f82"/>
  </g>
  <g transform="matrix(3.8854 0 0 -3.8854 358.23 464.69)">
   <path d="m0 0c3.09 1.06 8.09 3.651 13.3 6.975-0.143 0.521-0.176 1.182-0.058 1.893-4.791-2.626-9.516-5.009-13.327-6.721-0.131-0.696-0.114-1.43 0.085-2.147" fill="#636466"/>
  </g>
  <g transform="matrix(3.8854 0 0 -3.8854 409.91 437.59)">
   <path d="M 0,0 C 3.956,2.524 8.034,5.47 11.489,8.493 11.316,8.446 11.135,8.392 10.958,8.342 7.532,6.183 3.72,3.965 -0.059,1.893 -0.177,1.182 -0.144,0.522 0,0" fill="#222c33"/>
  </g>
  <g transform="matrix(3.8854 0 0 -3.8854 343.8 475.47)">
   <path d="m0 0c-1.255 5.623-4.813 7.466-6.849 6.582-2.137-0.929-2.776-5.471 0.103-9.811 0.451-0.68 0.806-0.729 0.329 0.206-2.098 4.113-1.658 7.788-0.041 8.535 1.758 0.812 4.498-0.748 6.088-5.635 0.325-1 0.576-0.8 0.37 0.123" fill="#061922"/>
  </g>
  <g transform="matrix(3.8854 0 0 -3.8854 361.58 468.67)">
   <path d="m0 0c0.294-0.603 0.533-0.857 1.268-1.418 3.571-2.723 9.024-5.616 15.738-7.382-6.309 2.523-11.799 5.303-17.006 8.8m20.127-10.065c-7.865 1.219-15.35 5.041-19.35 8.091-1.145 0.874-1.813 2.134-2.005 2.889-0.121 0.477 0.111 0.718 0.558 0.396 5.754-4.14 13.844-8.181 20.936-10.644 1.267-0.44 1.187-0.938-0.139-0.732" fill="#061922"/>
  </g>
  <g transform="matrix(3.8854 0 0 -3.8854 449.27 407.44)">
   <path d="m0 0c-6.929-2.05-15.5-6.355-21.227-9.791-1.704-1.022-2.215-3.094-1.927-4.427 5.457 2.019 15.507 7.734 23.154 14.218m-23.798-14.842c-0.593 2.353 0.272 4.545 2.162 5.678 5.437 3.262 15.317 8.098 22.927 10.231 0.933 0.261 1.069 0.071 0.308-0.588-7.77-6.708-18.979-13.505-24.883-15.547-0.301-0.104-0.436-0.081-0.514 0.226" fill="#061922"/>
  </g>
  <g transform="matrix(3.8854 0 0 -3.8854 428.59 502)">
   <path d="m0 0c-1.377 2.232-4.892 4.934-10.086 7.789-2.439 1.341-4.742 1.708-6.849 0.996l-0.64 0.502c2.352 0.924 4.982 0.639 7.839-0.931 4.466-2.455 9.131-5.639 10.576-8.551z" fill="#061922"/>
  </g>
  <g transform="matrix(3.8854 0 0 -3.8854 438.97 505.81)">
   <path d="m0 0c-1.231 1.083-2.324 1.839-3.729 2.725l-1.221 1.485c2.159-1.161 4.303-2.66 6.118-4.413z" fill="#061922"/>
  </g>
  <g transform="matrix(3.8854 0 0 -3.8854 379.74 466.14)">
   <path d="m0 0c3.286 1.415 14.848 11.064 18.785 15.728l0.709-0.141c-3.605-4.42-14.771-13.958-18.608-15.946z" fill="#061922"/>
  </g>
  <g transform="matrix(3.8854 0 0 -3.8854 408.89 438.18)">
   <path d="m0 0c-0.409 1.267-0.145 3.141 1.01 4.665l1.101 0.448c-1.583-1.649-1.883-3.663-1.61-4.803z" fill="#061922"/>
  </g>
  <g transform="matrix(3.8854 0 0 -3.8854 407.84 498.11)">
   <path d="m0 0c-0.162 0.465-0.24 0.897-0.285 1.466l0.584-0.269c0.073-0.519 0.19-0.942 0.387-1.416z" fill="#061922"/>
  </g>
 </g>
</svg>
