<?xml version="1.0" encoding="UTF-8"?>
<!-- Created with Inkscape (http://www.inkscape.org/) -->
<svg version="1.1" viewBox="0 0 399.69 245.17" xmlns="http://www.w3.org/2000/svg">
 <defs>
  <clipPath id="clipPath1352-1">
   <path d="M 0,841.89 H 595.28 V 0 H 0 Z"/>
  </clipPath>
  <clipPath id="clipPath1367-1">
   <path d="M 0,841.89 H 595.28 V 0 H 0 Z"/>
  </clipPath>
  <clipPath id="clipPath1382-7">
   <path d="M 0,841.89 H 595.28 V 0 H 0 Z"/>
  </clipPath>
  <clipPath id="clipPath1397-9">
   <path d="M 0,841.89 H 595.28 V 0 H 0 Z"/>
  </clipPath>
  <clipPath id="clipPath1412-8">
   <path d="M 0,841.89 H 595.28 V 0 H 0 Z"/>
  </clipPath>
  <clipPath id="clipPath1427-3">
   <path d="M 0,841.89 H 595.28 V 0 H 0 Z"/>
  </clipPath>
  <clipPath id="clipPath1457-6">
   <path d="M 0,841.89 H 595.28 V 0 H 0 Z"/>
  </clipPath>
  <clipPath id="clipPath1472-0">
   <path d="M 0,841.89 H 595.28 V 0 H 0 Z"/>
  </clipPath>
  <clipPath id="clipPath1487-4">
   <path d="M 0,841.89 H 595.28 V 0 H 0 Z"/>
  </clipPath>
  <clipPath id="clipPath1502-4">
   <path d="M 0,841.89 H 595.28 V 0 H 0 Z"/>
  </clipPath>
  <clipPath id="clipPath1517-0">
   <path d="M 0,841.89 H 595.28 V 0 H 0 Z"/>
  </clipPath>
  <clipPath id="clipPath1532-7">
   <path d="M 0,841.89 H 595.28 V 0 H 0 Z"/>
  </clipPath>
  <clipPath id="clipPath1547-9">
   <path d="M 0,841.89 H 595.28 V 0 H 0 Z"/>
  </clipPath>
  <clipPath id="clipPath1562-5">
   <path d="M 0,841.89 H 595.28 V 0 H 0 Z"/>
  </clipPath>
  <clipPath id="clipPath1577-8">
   <path d="M 0,841.89 H 595.28 V 0 H 0 Z"/>
  </clipPath>
  <clipPath id="clipPath1592-4">
   <path d="M 0,841.89 H 595.28 V 0 H 0 Z"/>
  </clipPath>
  <clipPath id="clipPath1607-2">
   <path d="M 0,841.89 H 595.28 V 0 H 0 Z"/>
  </clipPath>
  <clipPath id="clipPath1622-6">
   <path d="M 0,841.89 H 595.28 V 0 H 0 Z"/>
  </clipPath>
  <clipPath id="clipPath1637-3">
   <path d="M 0,841.89 H 595.28 V 0 H 0 Z"/>
  </clipPath>
  <clipPath id="clipPath1652-7">
   <path d="M 0,841.89 H 595.28 V 0 H 0 Z"/>
  </clipPath>
  <clipPath id="clipPath1667-1">
   <path d="M 0,841.89 H 595.28 V 0 H 0 Z"/>
  </clipPath>
  <clipPath id="clipPath1697-6">
   <path d="M 0,841.89 H 595.28 V 0 H 0 Z"/>
  </clipPath>
 </defs>
 <g transform="matrix(2.3076 0 0 2.3076 -42.189 -225.61)" fill="#3f3b3a">
  <path transform="matrix(.35278 0 0 -.35278 0 297)" d="m422 481.03c-2.765-0.33-4.3755 1.2101-4.7235 5.8141-0.16 2.112 2.0762 4.5596 0.37749 5.8942-1.967-2.09-3.9235-6.8242-3.2505-13.297 0.943-9.057 6.1006-14.261 9.4476-13.906 3.862 0.401 6.7313 6.0346 5.9673 14.514-0.382 4.241-2.474 7.6007-3.837 9.9057-0.073 0.037-0.148 0.071-0.221 0.108-1.1721-0.16065-0.84892-1.868-0.78392-2.878 0.302-4.756-0.46047-5.8551-2.9765-6.1541" clip-path="url(#clipPath1352-1)"/>
  <path transform="matrix(.35278 0 0 -.35278 0 297)" d="m471.19 486.12c1.151-9.437 6.852-13.87 10.002-13.477 2.811 0.342 7.4181 3.7329 5.9031 16.156-0.824 6.749-4.9636 12.68-6.1206 12.137 0.843-1.1 0.92759-2.5518 1.1446-4.5888 0.506-4.732-0.55511-6.3794-2.9591-6.6364-2.287-0.244-4.4454 1.0974-4.9274 5.6064-7e-3 0.065-0.46964 0.62418-0.47464 0.69018-0.497-0.429-1.3882-0.67131-1.8942-1.0803-0.338-2.27-0.76918-5.6896-0.39518-8.7506" clip-path="url(#clipPath1367-1)"/>
  <path transform="matrix(.35278 0 0 -.35278 0 297)" d="m232.99 276.21c-1.859-2.449-0.47888-7.1655 0.79212-7.4695 8.141-1.951 13.709-2.7954 19.826-3.6764-4.183 4.606-9.9483 10.608-14.283 13.311-1.706 1.064-4.8538-0.21187-6.3348-2.1649m15.743-5.1517c5.562-0.917 10.708-1.0076 16.24-1.6166-5.297 4.966-11.762 9.7422-16.635 11.551-2.442 0.905-5.2897-1.1774-5.6817-4.2714 1.68-1.337 4.3453-4.0713 5.9653-5.6633m12.979 2.069c-3.066 2.588-7.2143 5.4769-10.151 7.0669 0.468 1.872 3.2037 3.7538 5.8687 2.3628 4.89-2.56 10.806-6.8702 14.388-9.8142-3.028 0.22-7.1741 0.18204-10.217 0.49604" clip-path="url(#clipPath1382-7)"/>
  <path transform="matrix(.35278 0 0 -.35278 0 297)" d="m312.02 288c-1.683 0.12-3.2383-1.6248-3.3493-3.0188-0.159-2.002 0.79287-4.0533 2.1479-4.3033 5.53-1.02 14.504-1.0256 18.942-0.75356-5.203 4.099-11.69 7.6236-17.74 8.0756m26.851-1.4407c-4.2 2.874-10.375 6.8977-16.275 8.3777-0.819 0.205-2.4263-1.8303-2.5233-3.2853 3.953-0.972 8.7018-3.3854 12.159-5.4084 1.709-0.178 6.2964-0.044 6.9741 0.20439m-12.723-3.3759c-2.912 1.857-6.8628 3.471-9.9688 4.337 0.06 1.939 1.7593 3.7772 3.5483 3.3602 5.779-1.354 12.071-4.8492 16.316-7.9492-2.663 0.049-6.4612-0.11196-10.007 0.25204" clip-path="url(#clipPath1397-9)"/>
  <path transform="matrix(.35278 0 0 -.35278 0 297)" d="m515.61 305.25c4.366-3.709 9.2858-9.1154 12.94-13.77 2.499 11.816-4.911 23.518-7.433 23.553-1.656 0.022-4.0814-3.8406-5.4704-7.0626-0.44091-0.026-0.0417-0.35457-0.0367-0.38057 0.11-0.572 0.0268-1.776 0.11178-2.339m13.643-3.3185c2.8176 0.0639 7.7503-3.062 11.745-6.353-2.827 10.672-8.1184 20.333-9.6044 20.449-1.056 0.081-6.4105-3.1844-7.8535-5.9874 0.996-1.786 3.6337-6.494 4.0962-8.666m-13.909-9.3826c-3.141 4.338-5.6788 7.1059-9.3078 11.211-1.571 1.774 0.0214 9.6162 2.4444 10.189 2.848 0.675 6.8438-1.4654 7.5398-5.0604 1.135-5.863 0.67561-12.15-0.67639-16.34" clip-path="url(#clipPath1412-8)"/>
 </g>
 <g transform="matrix(2.3076 0 0 2.3076 -42.189 -225.61)" fill="#ee869a">
  <path transform="matrix(.35278 0 0 -.35278 0 297)" d="m519.31 526.46c-0.319 0.596-1.2996 0.79587-1.6836 1.3889-5.367 8.304-14.983 9.7227-21.392 6.3497 1.719-2.673 2.5141-5.5326 4.2461-8.2496 4.791-7.513 10.215-16.332 14.152-23.865 5.946 4.516 9.3394 15.378 4.5984 24.219" clip-path="url(#clipPath1427-3)"/>
  <path transform="matrix(.35278 0 0 -.35278 0 297)" d="m369.84 509.28c-1.2343 0.0277 0.0367-0.21922 0.0287-0.24722-2.987-10.709 3.22-21.069 12.553-23.658 2.631 6.916 5.4264 15.066 7.0994 22.108 1.046 4.398 1.1494 8.691 1.7064 12.712-8.546 1.665-18.788-2.0328-21.332-10.971" clip-path="url(#clipPath1457-6)"/>
  <path transform="matrix(.35278 0 0 -.35278 0 297)" d="m447.55 480.9c2.543 0.759 3.8936 0.64413 4.2316-0.48987 0.344-1.152-0.66451-1.9822-3.1645-2.6792-2.681-0.748-3.8346-0.70896-4.1536 0.36004-0.272 0.912 0.36428 2.0509 3.1653 2.8879m17.828-3.2299c-0.852 4.989-6.9211 8.3533-14.638 7.5003-7.816-0.863-12.198-7.0633-11.737-11.202-1.1138-0.12348-0.11148-0.024-0.10948-0.036 0.43-3.675 6.0568-7.083 14.273-6.121 8.786 1.029 12.898 6.2265 12.516 9.4965-0.019 0.163-0.27795 0.42748-0.30495 0.58548" clip-path="url(#clipPath1472-0)"/>
 </g>
 <g transform="matrix(2.3076 0 0 2.3076 -42.189 -225.61)" fill="#fff">
  <path transform="matrix(.35278 0 0 -.35278 0 297)" d="m422.04 480.15c2.516 0.299 4.622 2.281 4.32 7.037-0.065 1.01-0.273 1.988-0.598 2.878-0.65188 1.432-4.2069 4.0681-6.152 3.532-0.673-0.223-1.323-0.647-1.916-1.278-0.95-1.373-1.382-3.36-1.222-5.472 0.348-4.604 2.803-7.027 5.568-6.697" clip-path="url(#clipPath1487-4)"/>
  <path transform="matrix(.35278 0 0 -.35278 0 297)" d="m479.16 489.06c2.405 0.257 4.348 2.557 3.843 7.289-0.218 2.037-0.839 3.604-1.683 4.704-0.399 0.326-0.805 0.92956-1.211 1.1256-1.987-2.273-6.0907-4.9281-6.35-6.6616 5e-3 -0.066 6e-3 -0.132 0.013-0.198 0.483-4.508 3.101-6.502 5.388-6.259" clip-path="url(#clipPath1502-4)"/>
  <path transform="matrix(.35278 0 0 -.35278 0 297)" d="m412.54 448.56c-1.12-1.568-1.81-3.296-2.153-5.039 5.225-4.964 10.521-9.049 15.891-13.188-3.051 6.35-6.047 14.52-8.144 23.426-2.297-1.522-4.201-3.25-5.594-5.199m85.499 0.049c-2.2-4.328-4.955-8.095-7.72-11.153-1.776-1.964-3.552-3.63-5.191-4.963 5.532 0.017 9.753 2.67 11.831 7.77 0.461 1.132 0.789 2.256 1 3.362 0.328 1.722 0.343 3.394 0.08 4.984m-0.585 2.267c-1.275 3.492-4.119 6.393-8.384 8.204-0.505-9.702-2.613-18.224-5-25.261 4.083 3.456 9.535 9.251 13.384 17.057m-11.204 9.199c-5.234 1.438-11.977 2.385-19.279 2.738 2.543-9.048 5.009-18.447 6.048-26.461 4.712 5.723 10.832 13.508 14.333 23.371-0.365 0.12-0.72 0.247-1.102 0.352m-45.118 1.431c2.892-7.567 8.272-16.833 14.714-24.95 3.36 7.323 7.266 18.292 9.049 26.344-7.762 0.251-16.041-0.173-23.763-1.394m-21.267-6.679c5.217-7.476 11.688-14.234 18.876-21.485 0.498 8.962 0.882 18.446 0.466 27.838-7.392-1.316-14.173-3.39-19.342-6.353m20.551-22.063c4.75 1.461 9.366 2.46 13.774 2.998-6.279 7.986-10.691 16.073-13.289 22.183 0.321-8.245 0.059-15.426-0.485-25.181m33.653 2.102c1.208-0.296 2.391-0.625 3.523-1.013 1.485-0.51 2.911-0.86 4.284-1.086 2.854 8.205 4.594 15.738 5.374 22.628-3.018-7.49-8.099-14.329-13.181-20.529m-45.177-6.125c1.241 0.337 2.542 0.776 3.932 1.337 1.657 0.668 3.297 1.263 4.928 1.82-7.004 7.114-12.835 13.315-17.561 19.875 1.667-6.032 4.485-14.009 8.701-23.032m-15.434 3.7c3.913-3.596 7.781-4.976 12.693-4.275-5.892 4.472-11.304 8.933-16.004 13.366-0.165-3.616 1.114-7.072 3.311-9.091m52.505 28.055c2.418-9.29 4.256-16.811 5.4-25.054-4.235 0.764-8.854 0.997-13.768 0.647 3.458 7.637 6.816 17.409 8.368 24.407" clip-path="url(#clipPath1517-0)"/>
 </g>
 <path transform="matrix(.81408 0 0 -.81408 -42.189 459.75)" d="m404.94 277.71c-0.473-1.936 1.5641-6.6866 3.5701-7.3276 8.652-2.76 14.522-3.626 22.294-4.457-5.167 5.239-12.178 11.931-20.395 14.374-2.979 0.883-4.9021-0.59727-5.3901-2.5893m34.31-9.6173c-4.027 6.046-9.5631 11.279-16.339 14.775-2.894 1.494-5.4596-0.0913-4.6916-5.1563 3.168-1.968 6.8653-5.0654 9.5353-7.5924 3.959-1.12 8.0164-1.4527 11.495-2.1047m-13.323 14.338c0.529 0.751 2.2849 1.4036 3.8709 0.65662 6.242-2.935 11.843-7.7656 15.957-12.255-1.82 0.2-5.6854 0.0367-7.8494 0.12069-3.092 4.097-7.7049 8.6106-11.979 11.32" clip-path="url(#clipPath1532-7)" fill="#3f3b3a"/>
 <path transform="matrix(.81408 0 0 -.81408 -42.189 459.75)" d="m81.761 428.29c0.817 4.851 1.701 8.251 3.008 11.839 0.999 2.742 2.008 2.404 1.17-0.39-1.095-3.651-1.843-6.96-2.727-11.721-0.751-4.044-2.14-3.822-1.451 0.272m9.68-6.031c0.431 4.014 0.975 6.62 2.008 10.666 0.853 3.345 1.904 3.084 1.199-0.294-0.826-3.956-1.189-6.336-1.733-10.576-0.477-3.715-1.876-3.544-1.474 0.204m-27.591-21.338c4.886-25.591 21.736-44.82 45.06-54.25 26.387-10.665 67.261-7.76 104.14 32.464 34.106 37.207 61.717 47.592 105.76 37.855-4.377 1.546-8.641 3.236-12.65 4.941-29.995 12.754-60.034 0.43-87.717-30.945-30.33-34.373-74.167-41.62-100.13-18.771-24.715 21.75-18.535 52.514-0.037 77.401 8.857 11.917 20.536 22.488 33.005 30.073-0.024 2e-3 -0.05 1e-3 -0.075 2e-3 -7.989 0.437-18.302-2.338-27.759-8.314-0.124-0.16-0.25-0.319-0.374-0.478-1.587-2.051-2.666-2.883-2.946-2.661-0.273 0.217 0.222 1.446 1.773 3.545 6.391 8.651 13.927 18.004 20.634 25.682 3e-3 3e-3 5e-3 6e-3 8e-3 9e-3 -11.409-1.58-20.822-5.857-33.7-15.02-0.621-1.663-1.253-3.332-1.904-5.009-1.148-2.959-2.042-4.239-2.353-4-0.29 0.223-0.072 1.771 0.942 4.561 4.216 11.607 7.889 22.852 9.963 29.755-0.018-8e-3 -0.038-0.017-0.057-0.025-9.358-3.835-24.17-16.722-36.831-34.767-15.305-21.813-27.465-51.162-23.046-81.167 10.522-71.457 74.379-97.874 159.72-76.989-0.038 1.399 0.04 2.968 0.221 4.683-48.673-11.362-94.85-8.035-124.1 15.127-19.432 15.392-29.179 37.773-29.877 66.227-0.108 4.463-6e-3 6.824 0.31 7.174 0.37 0.412 1.036-1.961 2.017-7.103" clip-path="url(#clipPath1547-9)" fill="#ffee7d"/>
 <path transform="matrix(.81408 0 0 -.81408 -42.189 459.75)" d="m455.42 413.53c18.278 2.343 33.054 8.617 43.888 18.093-0.409 1.719-1.071 3.308-1.966 4.77-3.573-5.288-9.86-7.049-17.461-5.248-1.063 0.252-1.1437 1.6748-2.2557 2.0668-10.948 3.865-28.494 2.6255-44.491-3.7485-3.644-1.452-6.4296-3.3813-9.1936-3.4543-4.737-0.124-8.416 1.625-11.829 4.736-1.682-1.976-2.851-4.058-3.414-6.214 12.516-8.666 28.634-13.319 46.722-11.001" clip-path="url(#clipPath1562-5)" fill="#ffee7d"/>
 <path transform="matrix(.81408 0 0 -.81408 -42.189 459.75)" d="m456.52 362.8c-0.227-2.701-0.37744-2.6997-0.28344 0.0233 0.116 3.343 0.0527 5.842-0.0663 8.971-0.107 2.807 0.11548 2.8577 0.30848 0.0557 0.204-2.959 0.0973-5.713-0.18174-9.05m-8.9945 8.9792c-0.85-3.044-2.2383-5.8328-5.7363-8.2498-2.428-1.677-2.2024-2.1548 0.20856-0.12878 2.469 2.077 4.492 5.3722 5.36 8.2802 0.741 2.485 0.86574 2.5427 0.16774 0.0427m8.2471 40.365c-8.861-1.135-18.352 0.0972-25.969 1.7412 0.354-23.919-6.576-44.871-19.007-59.557 5.545-12.319 10.677-29.143 13.614-43.575 7.351 2.904 16.04 6.5216 21.742 10.583 28.691 20.432 34.606 52.603 32.93 96.373-6.748-2.443-15.301-4.4825-23.309-5.5095" clip-path="url(#clipPath1577-8)" fill="#ddce6d"/>
 <path transform="matrix(.81408 0 0 -.81408 -42.189 459.75)" d="m284.07 322.61c-4.789-4.074-12.234-9.6575-17.564-12.529 33.974-9.179 79.455-13.625 115.73-9.6063-3.578 8.911-8.3079 21.809-10.145 30.041-23.861-7.595-55.086-10.173-88.02-7.9063" clip-path="url(#clipPath1592-4)" fill="#ddce6d"/>
 <path transform="matrix(.81408 0 0 -.81408 -42.189 459.75)" d="m439.15 487.5c-0.789 1.397-0.67673 2.5975-1.2397 4.0615-1.785 4.639-2.551 9.7743-2.867 13.825-0.318 4.062-0.57123 4.1002 0.0648 0.0742 0.671-4.251 0.76625-9.0079 2.9562-13.921 0.629-1.413 2.8607-4.3726 3.6847-5.7186 3.118-0.499 6.3028-0.40552 9.3318-0.11152 1.914 0.185 4.3151 0.89349 6.3681 1.6145 0.652 1.495 1.7636 4.5219 2.0976 6.1949 0.987 4.927 0.0834 9.7764-0.79462 14.536-0.609 3.3-0.61358 3.4583 0.18942 0.19934 1.212-4.926 1.5175-9.8712 0.89852-14.425-0.227-1.665 0.2571-3.266-0.3049-4.777 16.103 7.126 35.03 28.471 32.396 48.196-0.465 3.477-2.1068 8.2471-3.9528 11.542-5.75 10.26-24.651 15.808-45.477 14.187-22.668-1.762-46.659-12.208-47.5-28.174-0.034-0.656-0.11482-2.4994-0.0958-3.1634 0.52495-18.691 22.787-39.341 44.245-44.141" clip-path="url(#clipPath1607-2)" fill="#ffee7d"/>
 <path d="m43.288 73.684c-6.5946-0.29116 6.0303-18.23 9.1766-27.466-2.38 7.1234-5.3162 18.719-7.7916 23.919-0.53856 1.1313-0.57018 2.3354-0.91088 2.9972-0.14003 0.27198 0.04108 0.57236-0.47412 0.54961z" fill="#ddce6d"/>
 <g transform="matrix(2.3076 0 0 2.3076 -42.189 -225.61)" fill="#cf7240">
  <path transform="matrix(.35278 0 0 -.35278 0 297)" d="m410.03 357.37c0.304-0.162 0.749-0.84224 1.277-1.8412 11.857 14.364 17.769 34.139 17.482 57.185-8.804 2.187-16.65 6.027-23.364 10.987-6.463 4.775-12.09 12.592-16.279 18.972-8.3796-24.724-22.206-37.049-65.288-27.677-42.109 10.495-73.393 3.2861-110.03-36.681-36.111-39.395-77.356-43.72-105.8-32.273-23.831 9.591-40.048 29.869-44.709 52.12 0.179-1.85-0.85923-6.0218-0.61323-7.8048 3.208-23.179 13.422-40.732 30.104-53.944 26.98-21.37 71.697-26.54 122.95-14.751 0.894 6.229 2.908 13.973 5.482 22.045 2.662 8.352 6.0315 15.825 9.2675 23.557 1.192 2.847 1.4551 3.9274 1.3381 2.5194-0.046-0.559-0.69892-0.63065-1.1269-1.7766-1.618-4.334-3.1135-8.639-4.6275-13.176-5.309-15.903-9.9329-32.369-9.5119-40.573 0.236-4.603 4.227-27.292 8.366-39.122 0.959-2.741 3.7266-4.6823 7.2376-5.6283-0.387 2.012 0.20595 5.3563 1.76 7.2753 2.239 2.765 3.8618 3.0151 6.3208 1.4751 0.547-0.343 1.8754-1.0564 2.4224-1.4464 0.855 3.941 2.3843 3.8098 4.5104 4.4744 0.574-0.214 3.8415-0.57748 4.4425-0.85548 0.56039-0.78135-0.10648 0.10948-0.10348 0.10848 0.563 1.826 2.2344 3.108 3.9284 3.278-1.676 5.11-2.686 11.117-2.92 16.753-0.117 2.806-0.15987 3.8442 2.7941 5.3452 0.423 0.215 1.7868 0.86692 2.3098 1.0659 6.744 2.559 14.013 6.462 21.117 11.443 6.063 4.251 10.792 8.6151 14.966 14.299 0.776 1.055 1.2875 1.935 1.7105 2.231 0.931 0.651 0.33261 1.1197-1.2054-1.3143-1.688-2.669-3.979-5.7634-6.287-8.1634-0.831-0.864-0.80317-1.8195-1.6952-2.6455 33.416-1.776 63.202 0.18573 85.481 7.2467-0.157 0.811-0.37083 2.3064-0.49383 3.0784-0.193 1.218-0.26817 2.4698-0.36617 3.5728-0.328 3.687-0.7391 4.2872-0.1271 2.8472 0.183-0.431 0.0637-0.86252 0.25868-1.7635 0.078-0.365 0.31365-1.8566 0.39065-2.2986 3.258-18.811 18.379-55.691 22.736-59.456 2.085-1.798 7.7338-3.8466 12.231-5.1226-0.936 1.871-2.0133 5.3026-1.6153 6.9276 0.313 1.277 1.0128 2.1452 1.8748 2.7642 1.224 0.879 2.0809 0.44538 4.2229-0.19362 2.152-0.639 4.8346-1.8313 6.7936-2.8833-0.381 5.633 0.63049 8.0508 4.5905 6.0088 0.557-0.288 2.5079-1.4701 3.0469-1.7781 0.438 0.731 2.1256 2.0183 2.8586 2.2483-1.836 18.466-8.5788 48.549-16.839 70.489-0.56 1.487-1.1381 1.4662-1.0561 1.9352 0.049 0.281-0.43562 1.0724-0.21862 0.95644" clip-path="url(#clipPath1622-6)"/>
  <path transform="matrix(.35278 0 0 -.35278 0 297)" d="m369.2 509.44c3.044 10.916 12.955 13.522 22.437 11.733 0.931-0.174 0.97531-0.47853 0.85131-1.3535-1.473-10.561-4.8768-22.615-9.1748-33.935-0.339-0.904-0.17861-0.96126-0.95361-0.74726-11.237 3.116-16.409 12.256-13.048 24.302m125.74 25.829c8.142 4.374 17.484 2.33 23.57-7.085 6.187-9.574 5.4809-19.872-3.3611-26.45-0.869-0.648-0.83535-0.38126-1.2454 0.41274-5.721 11.11-12.784 21.89-19.227 31.891-0.448 0.695-0.36474 0.69009 0.43126 1.1191m4.2163-90.363c-0.07-2.172 0.34283-3.2842-0.54817-5.4702-0.081-0.199-0.178-0.378-0.265-0.57 1.164-1.619 2.032-3.413 2.579-5.375 12.795 12.179 20.593 29.174 20.442 49.617-0.02 2.754-0.0425 5.0634-0.31552 7.9394-0.069 0.726 0.48792 1.7266 0.93892 2.2036 11.204 11.928 12.992 30.182 4.5196 42.308-8.764 12.544-26.998 16.015-38.114 12.397 5.0997-15.238 1.1041-31.938-8.0684-45.038 3.195-1.696 5.5993-5.8883 6.5773-13.89 1.509-12.373-1.5062-16.133-5.8242-16.66-4.247-0.518-8.8986 3.5654-10.153 13.846-0.284 2.334-0.66344 5.3774-0.48644 7.4674-4.066-3.006-10.012-6.2806-14.205-7.6886 5.173-0.958 8.7966-3.9513 9.3276-8.4763 0.554-4.747-3.0421-9.4044-12.508-10.512-8.803-1.031-13.777 1.7372-14.387 6.9462-0.42 3.594 1.74 8.43 7.103 10.914-5.52 0.392-12.74 2.4494-18.051 4.7834 0.997-2.339 1.477-5.9934 1.776-9.3214 0.969-10.768-1.5504-14.385-5.9064-14.837-4.576-0.477-8.9821 4.1399-10.009 14.026-0.865 8.316 1.7509 13.497 5.1319 15.303-14.086 9.736-24.281 26.039-24.336 39.489-15.406 2.405-31.226-7.3829-34.815-21.221-4.358-16.799 2.952-33.257 19.332-39.811 0.784-0.313 1.5531-1.2239 1.5821-2.1479 0.057-1.893 3e-3 -2.7787 0.26205-4.6577 2.142-15.551 12.295-30.365 25.764-40.436 0.651 2.256 3.1543 4.4737 4.9523 6.5127 0.02 0.023-0.0695-0.0107-0.0495 0.0113-3.352 4.56-3.791 11.159 7e-3 16.519 15.032 16.318 55.498 16.085 74.877 11.967 9.492-2.618 13.094-9.259 12.871-16.25" clip-path="url(#clipPath1637-3)"/>
  <path transform="matrix(.35278 0 0 -.35278 0 297)" d="m503.47 342.3c-3.418 1.76-4.593 2.8545-5.781 5.5025-6.084 13.573-7.6025 30.812-4.1835 46.862 2.786 13.086 3.2671 22.899 3.8251 32.927-1.344-0.975-4.0627-2.3639-5.4997-3.2559-3.89-2.415-7.3416-5.1849-11.885-6.9689 1.459-34.788-1.279-62.173-18.105-82.851 4.315-9.289 10.3-16.708 23.133-20.906 8.039-2.63 13.092-5.277 17.808-8.566-0.53 3.386 0.638 8.39 4.081 9.205 2.85 0.677 6.433-0.573 8.214-3.825 1.327 2.509 2.2827 3.6643 4.2367 4.2073 0.265 0.074 0.86544 0.34296 1.1284 0.33996 1.551-0.02 4.2908-1.4705 5.9408-3.7355 1.167 1.961 3.6648 4.4439 5.2298 5.0129-5.116 9.267-17.986 20.931-28.143 26.163" clip-path="url(#clipPath1652-7)"/>
  <path transform="matrix(.35278 0 0 -.35278 0 297)" d="m289.16 303.61c3.134-8.937 7.058-16.335 8.935-17.603 1.907-1.288 5.79-2.69 9.695-3.538-0.166 0.764-0.207 1.664-0.123 2.722 0.212 2.672 1.722 3.959 4.54 3.74 1.11-0.082 2.221-0.264 3.33-0.49 0.168 2.583 1.342 3.783 3.58 3.672 0.082 0.677 0.58231 0.31766 0.84631 0.85766 0.525 1.078 1.4832 2.0879 2.4502 2.2259 0.317 1.014 0.84448 3.1086 1.1275 4.1476-0.775 0.068-2.219 0.0976-2.993 0.17058-10.67 1.007-21.22 2.1563-31.388 4.0953" clip-path="url(#clipPath1667-1)"/>
 </g>
 <g stroke-width="2.3076">
  <path d="m257.62 45.694c5.7118-3.3784 11.433-4.8684 17.647 1.9252l1.9893-12.578-4.8772-0.25668-8.7274 2.5668-4.1071 5.0055z" fill="#cf7386"/>
  <path d="m381.26 31.848c-7.3394-4.0379-12.121-3.2796-15.359 0.37213l-5.0602-7.8138 3.2671-1.452 6.4434-0.0907 4.3561 1.9058 3.9931 3.4485z" fill="#cf7386"/>
  <path d="m292.51 107.75-3.3378 6.2904 5.1587 3.7515 13.25 4.7186 12.161 1.815 12.342-0.9075 13.431-3.2662 11.616-5.6274 8.283-6.2451-3.9936-8.487c-19.473 16.172-47.348 20.508-68.91 7.9576z" fill="#ddce6d"/>
  <path d="m267.45 77.493 0.54497 5.2637 2.5412 9.4386 5.9899 9.4375 7.8048 8.8936 4.6388 3.3735 3.9186-5.9267c-10.507-5.9936-19.548-15.961-25.439-30.479z" fill="#aa5c32"/>
  <path d="m382.71 66.416c-3.2445 12.392-9.8572 22.827-18.404 30.811l-0.01 2.0034-1.629 3.5166 0.57956 1.0876 0.36968 0.11449 1.1269 2.6939 0.80612 1.5121 2.639-1.9903 7.6237-10.527 6.1713-15.972 0.72623-13.25z" fill="#aa5c32"/>
  <path d="m349.09 107.91 4.7687 0.98976 7.6226-3.9936 1.4525-1.9963 1.1985-5.5009c-4.5444 4.2137-9.6293 7.7388-15.042 10.501z" fill="#ddd"/>
  <path d="m8.6385 136.2-6.6208 5.7501 2.7666 14.388 7.7012 16.941 12.834 15.915 15.659 11.038 20.278 6.9307 21.562 2.8227h16.684l25.155-3.8494 9.497-1.5407-0.25637-5.904 5.3901-20.535c-0.42748 0.20145-0.85767 0.40046-1.2915 0.59744-0.21689 0.0985-0.43506 0.19707-0.6535 0.29455-0.21844 0.0974-0.43711 0.19361-0.65707 0.28976-0.21996 0.0962-0.44159 0.19223-0.66303 0.2874-0.22144 0.0951-0.44368 0.18876-0.6666 0.28263-0.22292 0.0939-0.44583 0.18761-0.67018 0.28024-0.22437 0.0928-0.44916 0.18507-0.67496 0.27664-0.67735 0.27468-1.3614 0.54455-2.0511 0.80852-0.45981 0.17607-0.92298 0.3488-1.3881 0.51993-0.23254 0.0856-0.46498 0.17077-0.69879 0.2552-0.23383 0.0845-0.46849 0.16846-0.70357 0.2516-0.94031 0.33251-1.8906 0.65461-2.8502 0.96713-0.23988 0.0782-0.48045 0.15576-0.72146 0.23254-0.241 0.0768-0.48291 0.15346-0.72503 0.22891-0.72637 0.22684-1.457 0.44789-2.193 0.66303-0.736 0.21507-1.4767 0.42394-2.2216 0.62726-0.24833 0.0678-0.49723 0.135-0.7465 0.20146-0.24927 0.0665-0.4987 0.13176-0.74889 0.19684-0.50038 0.13015-1.0034 0.25797-1.5073 0.38278-0.50396 0.12485-1.0095 0.24674-1.5168 0.36609-0.25368 0.0598-0.50754 0.1193-0.762 0.17768-0.25449 0.0584-0.50914 0.11608-0.76441 0.17284-0.25526 0.057-0.51074 0.11262-0.76677 0.16823-0.25603 0.0556-0.51241 0.11054-0.76916 0.16453-0.77028 0.16246-1.5441 0.31901-2.3205 0.46866-1.0353 0.19961-2.0757 0.38761-3.1208 0.56405-0.52253 0.0882-1.047 0.17284-1.5717 0.2552-0.52468 0.0824-1.0498 0.162-1.5765 0.2385-0.26332 0.0383-0.52685 0.0755-0.79061 0.11215-0.52755 0.0734-1.0556 0.14376-1.5848 0.21114-0.52923 0.0674-1.0601 0.13177-1.5908 0.19315-1.3268 0.15346-2.6572 0.28839-3.9913 0.40305-0.26681 0.0231-0.53433 0.0443-0.80137 0.0655-0.26704 0.0208-0.53415 0.0422-0.80135 0.0621-0.80167 0.0593-1.6034 0.11238-2.4064 0.15738-0.26766 0.0138-0.53597 0.0284-0.80374 0.0418-0.26778 0.0138-0.5359 0.0263-0.80375 0.0381-0.26785 0.0115-0.53585 0.0233-0.80375 0.0335-0.26789 9e-3 -0.5358 0.0185-0.80374 0.0275s-0.53581 0.0161-0.80375 0.0231-0.53583 0.0138-0.80374 0.0185c-0.26792 5e-3 -0.53586 9e-3 -0.80375 0.0138-0.26787 5e-3 -0.53474 7e-3 -0.80254 9e-3 -0.53563 5e-3 -1.0723 5e-3 -1.6075 1e-3 -0.80284-5e-3 -1.605-0.0161-2.4064-0.0358-1.6028-0.0392-3.2016-0.10961-4.795-0.21115-0.5311-0.0339-1.0611-0.0713-1.5908-0.11215-0.26482-0.0208-0.52976-0.0411-0.79419-0.0632-0.52888-0.0443-1.0577-0.0928-1.5848-0.14422-0.26358-0.0258-0.52632-0.0524-0.78944-0.0799-0.78935-0.0826-1.5764-0.17284-2.3612-0.27188-0.26159-0.033-0.52365-0.0676-0.78466-0.10269-0.26102-0.0349-0.52065-0.0706-0.78108-0.10731-0.26044-0.0367-0.52125-0.0736-0.78108-0.11215-0.25984-0.0385-0.51949-0.0778-0.77871-0.11815-0.51841-0.0808-1.0357-0.16591-1.5514-0.254-0.51573-0.0881-1.0302-0.17976-1.5431-0.27546-0.51289-0.0958-1.0237-0.19499-1.5336-0.29812-0.25492-0.0517-0.50906-0.10384-0.7632-0.15738-0.50826-0.10707-1.0155-0.21807-1.5204-0.33269-0.25248-0.0575-0.50445-0.11607-0.75605-0.17538-0.7548-0.17792-1.506-0.36511-2.2526-0.56048-0.24885-0.0651-0.49741-0.13084-0.74532-0.19799-0.24791-0.0671-0.49482-0.135-0.74174-0.20399-0.74075-0.20723-1.477-0.42373-2.2085-0.64872-0.24382-0.075-0.48707-0.15069-0.72981-0.22777-0.4855-0.15391-0.96904-0.31139-1.4501-0.4734-0.24052-0.081-0.47971-0.16385-0.71908-0.24687-0.47874-0.16615-0.9558-0.33618-1.4298-0.51038-0.47401-0.17423-0.94523-0.35185-1.4143-0.53424-0.46907-0.1823-0.93604-0.36864-1.4-0.55928-0.69593-0.28598-1.3863-0.58131-2.0702-0.88603-0.22797-0.10154-0.45432-0.204-0.68091-0.30765-0.22658-0.10362-0.45336-0.20907-0.67853-0.31483-0.45036-0.21161-0.897-0.42749-1.3416-0.64752-1.7783-0.88015-3.5101-1.8283-5.1885-2.8465-0.20979-0.12738-0.41913-0.25571-0.62726-0.38516-0.41625-0.25896-0.82839-0.52169-1.2378-0.78944-0.20471-0.13384-0.40877-0.26937-0.61175-0.40545-0.20298-0.13615-0.40457-0.27311-0.6058-0.41143-0.20122-0.13822-0.4016-0.278-0.60102-0.41855-0.19942-0.14054-0.39862-0.28174-0.59624-0.42454-0.19762-0.14284-0.39451-0.28665-0.59029-0.43169-0.39158-0.29006-0.77859-0.58452-1.1627-0.88363-0.38408-0.29912-0.76479-0.60287-1.1412-0.91107-0.18821-0.15415-0.3754-0.30987-0.56168-0.46626-0.74506-0.62555-1.4741-1.2694-2.1871-1.9318-0.71292-0.66243-1.41-1.343-2.0893-2.0428-0.50943-0.52484-1.0092-1.0602-1.499-1.6063-0.32651-0.36409-0.64842-0.73301-0.96593-1.1066-0.15876-0.18692-0.31575-0.37485-0.47223-0.56405-0.15648-0.18923-0.31211-0.37959-0.46628-0.57121-0.15417-0.19153-0.30726-0.38434-0.4591-0.57836-1.3666-1.7461-2.6381-3.5897-3.8064-5.5344-0.12983-0.21599-0.2591-0.43374-0.38637-0.65229-0.12726-0.21854-0.25335-0.43841-0.37804-0.65945-0.24934-0.4421-0.49335-0.88945-0.73219-1.3416-0.11942-0.22615-0.23741-0.45354-0.35417-0.68211-0.11677-0.22869-0.23173-0.45816-0.34582-0.68927-0.57042-1.1555-1.1071-2.3427-1.6087-3.562-0.10032-0.24387-0.19945-0.48935-0.29693-0.73578-0.0975-0.24644-0.19393-0.49393-0.28859-0.74292-0.0947-0.24902-0.18726-0.49849-0.27904-0.75009-0.0918-0.2516-0.18301-0.50542-0.27188-0.75963-0.26665-0.76258-0.51945-1.5369-0.75962-2.3228-0.32023-1.0481-0.61658-2.1163-0.88842-3.2067-0.068-0.2726-0.13428-0.54757-0.19914-0.82283-0.38925-1.6515-0.72284-3.3498-0.99812-5.098-4e-3 -0.0265-8e-3 -0.0533-0.012-0.0798z" fill="#aa5c32"/>
  <path d="m15.822 80.608-6.6743 12.835-5.1338 13.604-3.0802 14.888v14.374l3.8505 20.022 7.7012 16.941 12.834 15.915 15.659 11.038 20.278 6.9307 21.562 2.8227h16.684l25.155-3.8493 9.497-1.5407-0.25637-5.9041 9e-3 -0.0381-25.993 4.4505-17.606 0.72623-18.514-1.4525-17.969-3.9936-15.972-7.9862-12.887-10.709-7.4412-9.8012-6.8975-18.332-1.4239-12.214c-0.26145-1.2862-0.49344-2.5975-0.68807-3.94-0.0853-0.58816-0.16398-1.1814-0.23611-1.7804-0.14427-1.1981-0.2612-2.4177-0.35178-3.6599-0.0453-0.62103-0.0841-1.2484-0.11568-1.8806-0.0948-1.8964-0.12731-3.8424-0.0954-5.8397 0.0212-1.3315 0.0708-2.6858 0.15025-4.0628 0.0397-0.68847 0.0873-1.3822 0.14192-2.0821 0.10915-1.3999 0.24775-2.8231 0.41738-4.2691 0.0848-0.72305 0.17764-1.4523 0.27786-2.187 0.1002-0.7347 0.20737-1.4752 0.32316-2.2216 0.1158-0.74642 0.2393-1.498 0.37086-2.2562 0.26314-1.5164 0.55865-3.0571 0.88604-4.621 0.16368-0.7819 0.33511-1.5697 0.51515-2.3635 1.2602-5.557 2.9235-11.408 5.0216-17.563z" fill="#ddce6d"/>
  <path d="m279.31 28.894c18.153 33.458 60.284 50.726 79.315-4.492l-0.77005 8.4706-5.1338 11.551-6.9305 8.4706-8.8557 6.9305-6.8022 3.4654-6.6739 1.1551-6.9305-0.38502-8.3423-2.3102-7.9574-4.8772-8.8557-6.5456-7.7006-9.8824-3.3368-7.4439z" fill="#ddce6d"/>
  <path d="m314.66 72.647c3.2083 6.0024 17.502 6.7798 22.139-2.246l-0.57756 4.4279-3.6578 2.8878-5.0696 1.7968-6.6097-0.64173-3.401-1.6043z" fill="#cf7386"/>
 </g>
 <g transform="matrix(2.3076 0 0 2.3076 -42.189 -225.61)" fill="#aa5c32">
  <path d="m173.67 146.93c0.30352 5.3708-1.3893 10.247-1.7673 14.691-0.52159 6.1325 0.66232 12.853 2.2982 15.886 0.59107 1.0957 2.114 1.4329 4.1632 2.7508 2.4564 1.5798 4.0803 3.1788 5.5127 5.4245l-1.424 1.1391-0.52836 1.1124-1.1402-1.1124-1.5851-0.52836-1.0567 0.55617-0.36151 1.3626 0.0278 1.5295v0.47274l-4.2547-2.4194-4.7275-1.7519-3.5873-2.3915-2.4472-3.6151-0.41713-1.2236 2.4472-3.5595 2.614-5.8398 1.0289-4.8665 0.6396-7.2024-0.11123-7.9533z"/>
  <path d="m113.01 191.05-0.27806 2.5028 0.19463 0.52836-0.9733 0.41713-0.30589 0.88988-2.2803 0.0278-0.52836 0.83425 0.16685 1.5851-2.5306-0.52837-2.1691-1.1123-1.7241-3.4205-1.168-2.8087-0.13904-0.58398z"/>
  <path d="m141.32 145.44c11.274 12.561 4.4455 24.363 3.2258 25.361l0.55617 0.88988 1.0567-1.1123 3.5595-6.7297 1.5573-7.119 0.38932-5.8398-6.0623-2.1691z"/>
  <path d="m101.11 182.11c10.776 0.53047 23.48-0.36677 29.926-3.0099l0.31462 1.6518-4.09 0.94385-10.697 1.6518-10.146 0.23597-6.4497-0.31462z"/>
  <path d="m130.92 178.59c2.6214 5.4876 4.1126 10.5 7.7566 16.227 0.69981 1.0998 1.275 2.107 2.2328 2.5014 0.47274 0.19466 2.3073 0.80499 2.8025 0.6823 0.34754-0.0861-1.0011 0.38932-1.0011 0.38932l-0.0556 1.446 1.0567 1.6129-1.168-0.11124-2.4472-0.94549-2.2803-2.7809-3.059-6.5072-2.1691-6.396z"/>
  <path d="m79.7 170.91c-0.47028 14.656 10.524 17.04 17.575 14.349l-3.2814 2.3359-4.4935 1.4699s-0.86452 0.3053-1.5424 0.7587c-0.44723 0.29911-0.79103 0.7182-0.83084 0.95903-0.23522 1.4231 1.5718 9.2497 1.5275 7.1016l-1.5017-0.3337-1.168 0.3337-0.27809 0.83426v0.61179l-1.891-1.0011-1.5573 1.1124-0.38932 1.2792 0.27808 1.5017-1.7241-0.55617-0.94549-0.88988-1.7798-6.7297-1.3904-8.0089 0.16685-3.4483 2.2803-8.2314z"/>
 </g>
 <path d="m57.82 90.115c4.0343-12.763 19.399-19.506 21.599-19.24z" fill="#ddce6d"/>
 <path d="m56.25 78.176c-7.731-0.20076 12.712-19.129 15.145-19.637z" fill="#ddce6d"/>
 <path transform="matrix(.81408 0 0 -.81408 -42.189 459.75)" d="m446.58 372.01c-0.867-2.907-2.89-6.036-5.36-8.112-2.41-2.027-1.688-2.663 0.74-0.987 3.498 2.417 5.165 5.597 6.015 8.64 0.698 2.5-0.653 2.945-1.395 0.459m-363.36 56.007c0.884 4.761 1.632 8.07 2.727 11.721 0.838 2.795-0.171 3.132-1.17 0.39-1.307-3.587-2.191-6.988-3.008-11.839-0.689-4.094 0.7-4.316 1.451-0.272m413.03 106.18c1.719-2.674 3.46-5.375 5.193-8.092 4.79-7.514 9.505-15.15 13.442-22.683 5.946 4.516 8.157 13.486 3.416 22.327-0.319 0.595-0.669 1.19-1.052 1.783-5.368 8.303-14.59 10.038-20.999 6.665m-2.394-0.16c-0.448 0.695-0.309 1.135 0.487 1.564 8.142 4.374 18.877 2.553 24.963-6.862 6.187-9.573 4.812-21.321-4.03-27.899-0.869-0.647-1.337-0.437-1.747 0.357-5.721 11.111-13.23 22.838-19.673 32.84m-38.123-162.25c0.119-3.129 0.238-5.628 0.122-8.971-0.094-2.723 1.004-2.78 1.231-0.079 0.279 3.337 0.33 6.092 0.126 9.05-0.193 2.802-1.586 2.808-1.479 0m-64.496 148.41c-8.546 1.665-17.895-2.2-20.44-11.138-8e-3 -0.028-0.019-0.052-0.027-0.08-2.987-10.709 2.162-20.177 11.494-22.767 2.631 6.917 4.869 14.231 6.543 21.273 1.045 4.398 1.873 8.691 2.43 12.712m2.324 0.565c-1.474-10.561-5.267-24.9-9.565-36.22-0.339-0.903-0.736-1.017-1.511-0.803-11.238 3.116-17.524 13.817-14.163 25.863 3.044 10.916 14.626 14.414 24.109 12.625 0.931-0.174 1.254-0.589 1.13-1.465m146.78-223.96c-2.827 10.671-7.338 17.992-8.824 18.107-1.056 0.081-2.676-1.567-4.119-4.371 0.996-1.786 1.85-3.929 2.424-6.325 3.375-1.887 6.524-4.121 10.519-7.411m-19.213 17.223c-1.656 0.022-3.747-2.893-5.135-6.115 5e-3 -0.025 0.013-0.048 0.018-0.074 0.11-0.572 0.194-1.135 0.279-1.698 4.366-3.709 8.394-8.558 12.048-13.213 2.499 11.816-4.688 21.065-7.21 21.1m-0.793 1.94c0.265 0.073 0.53 0.12 0.793 0.116 1.551-0.019 3.399-1.359 5.049-3.624 1.167 1.962 2.773 3.776 4.339 4.345-5.117 9.266-17.764 19.705-27.921 24.937-3.417 1.759-4.592 2.742-5.781 5.391-6.083 13.573-7.713 31.481-4.295 47.531 2.787 13.085 3.714 21.783 4.272 31.811-1.345-0.975-2.725-1.918-4.163-2.81-3.89-2.414-8.122-4.515-12.665-6.299 1.46-34.789-1.278-62.173-18.105-82.851 4.316-9.289 10.301-16.708 23.133-20.906 8.039-2.63 13.093-5.278 17.808-8.567-0.529 3.387 0.638 8.391 4.081 9.206 2.85 0.677 6.433-0.574 8.214-3.826 1.327 2.51 3.287 5.002 5.241 5.546m-6.365-8.418c-0.696 3.595-3.8 5.401-6.648 4.726-2.423-0.573-3.458-6.743-1.887-8.517 3.629-4.104 5.275-6.204 8.416-10.542 1.352 4.19 1.254 8.47 0.119 14.333m-36.203 108.99c-6.748-2.443-14.142-4.215-22.15-5.242-8.862-1.135-17.147-0.698-24.764 0.945 0.354-23.919-6.103-43.452-18.534-58.137 5.545-12.32 9.889-27.725 12.826-42.157 7.351 2.904 13.99 6.364 19.692 10.426 28.691 20.431 34.606 50.395 32.93 94.165m-67.475-61.79c-0.56 1.487-0.744 2.491-0.662 2.961 0.049 0.28 0.195 0.362 0.412 0.247 0.304-0.163 0.749-0.724 1.276-1.723 11.858 14.364 17.77 33.43 17.482 56.475-8.803 2.188-16.649 6.027-23.363 10.987-6.464 4.775-11.868 10.586-16.057 16.966-6.149-24.725-23.431-37.495-65.956-26.897-42.109 10.495-72.167 3.731-108.8-36.235-36.111-39.395-78.135-44.36-106.57-32.913-23.831 9.592-40.049 28.924-44.71 51.175 0.18-1.85 0.402-3.658 0.649-5.441 3.207-23.178 12.161-40.732 28.843-53.944 26.98-21.369 71.697-26.54 122.95-14.75 0.895 6.229 2.909 13.972 5.482 22.045 2.663 8.351 5.921 17.051 9.157 24.782 1.192 2.847 2.124 3.371 2.007 1.962-0.047-0.558-0.253-1.411-0.681-2.557-1.619-4.333-3.225-8.861-4.74-13.398-5.309-15.903-9.486-31.924-9.065-40.128 0.236-4.602 4.003-27.291 8.143-39.121 0.959-2.741 1.719-3.679 5.231-4.625-0.388 2.012-0.017 4.576 1.536 6.494 2.24 2.765 5.312 3.461 7.77 1.922 0.548-0.343 1.095-0.722 1.643-1.113 0.854 3.941 3.721 5.26 6.74 4.14 0.574-0.213 1.165-0.465 1.767-0.743 2e-3 -1e-3 5e-3 -2e-3 7e-3 -3e-3 0.564 1.825 1.901 2.885 3.595 3.055-1.677 5.109-2.686 10.56-2.921 16.195-0.116 2.806 0.51 4.737 3.463 6.237 0.424 0.216 0.895 0.422 1.419 0.621 6.743 2.559 14.458 6.462 21.562 11.443 6.064 4.251 11.684 9.284 15.859 14.967 0.775 1.055 1.399 1.712 1.822 2.009 0.931 0.651 0.89-0.442-0.649-2.876-1.688-2.669-3.756-5.205-6.064-7.605-0.831-0.864-1.695-1.708-2.586-2.534 33.415-1.776 62.571 0.974 84.85 8.035-0.157 0.811-0.293 1.597-0.415 2.368-0.193 1.219-0.347 2.391-0.446 3.495-0.327 3.686 0.129 4.838 0.74 3.399 0.184-0.431 0.38-1.099 0.574-2.001 0.079-0.364 0.157-0.752 0.233-1.194 3.259-18.811 19.247-56.243 23.603-60.008 2.085-1.798 4.897-3.216 9.394-4.492-0.937 1.87-1.225 4.199-0.827 5.824 0.312 1.276 0.934 2.224 1.796 2.843 1.224 0.879 2.948 1.076 5.09 0.437 2.151-0.639 4.204-1.516 6.162-2.568-0.38 5.633 2.68 7.025 6.641 4.983 0.557-0.287 1.089-0.603 1.628-0.911 0.438 0.732 1.021 1.23 1.755 1.461-1.836 18.466-8.5 48.313-16.76 70.252m16.675-72.715c4.274-2.709 7.941-6.119 11.033-10.216 2.164-0.084 4.847-0.236 6.667-0.436-4.115 4.489-8.533 7.743-14.775 10.678-1.586 0.747-2.396 0.726-2.925-0.026m11.273-13.628c-4.027 6.045-8.696 10.175-15.472 13.67-2.894 1.495-4.356 0.698-3.588-4.367 3.168-1.968 6.077-4.357 8.747-6.883 3.959-1.12 6.834-1.769 10.313-2.42m-8.603-1.852c-5.167 5.239-10.996 10.512-19.213 12.955-2.979 0.883-4.035 0.191-4.523-1.802-0.473-1.936 0.697-5.583 2.703-6.224 8.652-2.759 13.261-4.098 21.033-4.929m-49.285 35.026c-3.578 8.911-6.888 18.656-8.726 26.889-23.86-7.595-54.612-9.859-87.547-7.592-4.788-4.074-10.185-7.608-15.514-10.479 33.974-9.178 75.514-12.837 111.79-8.818m-57.747-7.754c-0.819 0.205-1.423-0.604-1.52-2.059 3.953-0.972 7.81-2.605 11.267-4.628 1.709-0.178 3.175-0.267 5.079-0.353-4.2 2.874-8.926 5.56-14.826 7.04m12.333-10.445c-4.245 3.1-9.088 5.146-14.867 6.5-1.789 0.417-2.485 0.027-2.545-1.911 3.106-0.866 6.165-2.258 9.077-4.115 3.546-0.363 5.672-0.425 8.335-0.474m-6.842-2.784c-5.202 4.099-10.017 5.84-16.067 6.292-1.683 0.12-2.235-0.51-2.347-1.904-0.158-2.002 0.125-3.05 1.48-3.3 5.53-1.02 12.497-1.36 16.934-1.088m-15.88 8.332c1.11-0.083 2.221-0.265 3.33-0.49 0.168 2.582 1.342 3.783 3.58 3.671 0.082 0.678 0.267 1.303 0.531 1.844 0.525 1.078 1.365 1.812 2.332 1.95 0.317 1.014 0.608 2.005 0.891 3.044-0.775 0.067-1.549 0.136-2.323 0.209-10.67 1.008-21.22 2.512-31.388 4.451 3.134-8.938 7.058-16.336 8.935-17.603 1.907-1.289 5.79-2.69 9.695-3.539-0.166 0.765-0.207 1.664-0.123 2.723 0.212 2.672 1.722 3.959 4.54 3.74m-59.637-8.525c2.937-1.59 6.082-3.81 9.149-6.398 3.043-0.314 5.294-0.499 8.321-0.719-3.582 2.944-8.049 5.805-12.939 8.365-2.664 1.391-4.062 0.624-4.531-1.248m10.737-10.195c-5.297 4.966-10.09 8.07-14.962 9.879-2.442 0.905-3.953-0.397-4.345-3.491 1.681-1.337 3.342-2.845 4.962-4.437 5.562-0.917 8.813-1.342 14.345-1.951m-23.753 7.038c-1.706 1.064-3.739 0.457-5.22-1.496-1.858-2.449-1.186-6.089 0.085-6.393 8.141-1.951 12.094-2.756 18.21-3.637-4.182 4.606-8.739 8.823-13.075 11.526m-24.056 42.242c-48.674-11.362-94.851-8.035-124.1 15.128-19.432 15.391-29.179 37.772-29.876 66.226-0.108 4.463-6e-3 6.824 0.309 7.174 0.371 0.412 1.037-1.961 2.017-7.103 4.887-25.591 21.736-44.82 45.06-54.25 26.387-10.665 67.261-7.759 104.14 32.464 34.106 37.207 61.717 47.592 105.76 37.855-4.377 1.547-8.64 3.236-12.65 4.941-29.995 12.754-60.034 0.43-87.717-30.945-30.33-34.373-74.166-41.619-100.13-18.771-24.715 21.75-18.534 52.514-0.037 77.401 8.858 11.917 20.536 22.488 33.005 30.073-0.024 2e-3 -0.05 1e-3 -0.074 3e-3 -7.99 0.436-18.303-2.338-27.76-8.315-0.124-0.159-0.25-0.318-0.373-0.478-1.588-2.051-2.667-2.883-2.946-2.661-0.274 0.217 0.221 1.446 1.772 3.545 6.391 8.651 13.927 18.004 20.634 25.682 3e-3 3e-3 5e-3 6e-3 8e-3 9e-3 -11.409-1.58-20.821-5.857-33.7-15.02-0.621-1.663-1.253-3.332-1.904-5.009-1.148-2.959-2.042-4.238-2.352-4-0.291 0.223-0.073 1.771 0.941 4.561 4.216 11.607 7.889 22.852 9.963 29.755-0.018-8e-3 -0.038-0.017-0.056-0.025-9.359-3.835-24.171-16.722-36.832-34.767-15.305-21.813-27.465-51.162-23.046-81.167 10.523-71.457 74.379-97.874 159.72-76.989-0.037 1.399 0.04 2.968 0.222 4.683m191.29 106.43c0.652 2.255 1.929 4.417 3.727 6.456 0.02 0.023 0.042 0.045 0.062 0.067-3.352 4.561-3.568 11.94 0.23 17.3 11.799 16.651 56.724 17.533 76.103 12.189 9.492-2.618 13.651-9.036 13.428-16.026-0.07-2.173-0.549-4.399-1.44-6.586-0.081-0.199-0.178-0.378-0.265-0.57 1.164-1.619 2.032-3.412 2.579-5.375 12.795 12.179 19.534 29.174 19.383 49.617-0.02 2.754-0.154 5.565-0.427 8.441-0.069 0.726 0.042 1.002 0.493 1.479 11.204 11.928 13.549 29.569 5.077 41.695-8.764 12.544-24.602 16.461-35.717 12.843 7.608-14.402 1.773-31.547-8.793-44.313 3.195-1.696 5.878-6.167 6.856-14.169 1.509-12.373-2.398-16.969-6.716-17.496-4.247-0.518-9.679 4.29-10.933 14.571-0.284 2.334-0.329 4.597-0.152 6.687-4.067-3.006-8.34-5.332-12.533-6.74 5.172-0.958 8.295-4.007 8.826-8.533 0.554-4.746-3.711-10.352-13.177-11.46-8.803-1.031-14.948 2.629-15.558 7.838-0.42 3.594 1.74 8.207 7.103 10.691-5.52 0.392-11.068 1.892-16.379 4.226 0.997-2.338 1.7-5.212 1.999-8.541 0.969-10.768-2.275-15.054-6.631-15.506-4.576-0.477-9.651 4.754-10.678 14.639-0.865 8.316 1.305 13.553 4.686 15.359-14.086 9.736-24.504 24.813-24.559 38.263-15.406 2.405-28.328-6.714-31.917-20.551-4.358-16.8 2.952-32.366 19.332-38.92 0.784-0.313 0.94-0.555 0.969-1.479 0.057-1.893 0.226-3.782 0.485-5.661 2.141-15.551 11.069-30.365 24.537-40.435m18.974 64.147c-2.104 1.057-4.159 2.24-6.152 3.532-0.30323-0.10048-0.75734-0.31127-1.1262-0.57695-0.44976-0.32398-0.78983-0.70105-0.78983-0.70105-1.8408-2.0048-3.0464-5.2142-2.62-12.875 0.943-9.057 5.376-13.481 8.723-13.126 3.863 0.401 5.729 5.31 4.965 13.789-0.52431 5.3184-1.7073 7.7041-3 9.958m25.358-5.826c-7.815-0.863-11.718-6.061-11.257-10.199 1e-3 -0.012 0-0.025 1e-3 -0.037 0.431-3.674 5.166-7.082 13.381-6.121 8.787 1.03 11.673 6.116 11.29 9.386-0.019 0.163-0.054 0.315-0.081 0.473-0.852 4.989-5.617 7.35-13.334 6.498m28.994 17.582s0.406-0.196 0 0l-3.7337-3.8922-3.6123-3.2488c-0.17-0.141-0.337-0.287-0.508-0.425-0.338-2.271-0.379-4.965-5e-3 -8.027 1.15-9.436 5.792-13.535 8.943-13.143 2.811 0.342 6.581 3.288 5.067 15.711-1.1038 8.1859-3.8465 11.932-6.151 13.025m-84.185 30.527c0.525-18.691 21.762-40.05 43.22-44.85-0.789 1.397-1.465 2.834-2.028 4.298-1.785 4.639-2.551 9.459-2.867 13.509-0.318 4.063 0.69 4.179 1.326 0.153 0.671-4.25 1.791-9.401 3.981-14.315 0.629-1.412 1.363-2.795 2.187-4.141 3.118-0.499 6.224-0.643 9.253-0.349 1.914 0.186 3.921 0.658 5.974 1.379 0.652 1.495 1.132 3.103 1.467 4.776 0.987 4.927 0.714 10.407-0.164 15.167-0.609 3.3 0.49 3.616 1.293 0.357 1.212-4.926 1.754-9.951 1.135-14.504-0.227-1.665-0.61-3.266-1.173-4.777 16.104 7.126 33.77 28.392 31.135 48.117-0.464 3.477-1.554 6.907-3.4 10.202-5.75 10.26-23.942 15.886-44.768 14.265-22.668-1.761-45.713-11.34-46.554-27.306-0.034-0.656-0.036-1.317-0.017-1.981m68.967-69.458c-7.762 0.251-16.041-0.172-23.763-1.393 2.892-7.568 8.272-16.833 14.714-24.951 3.36 7.324 7.266 18.293 9.049 26.344m1.068-2.404c-1.552-6.998-4.91-16.77-8.368-24.407 4.914 0.35 9.533 0.117 13.768-0.647-1.144 8.243-2.982 15.764-5.4 25.054m21.389-0.772c-0.365 0.119-0.72 0.247-1.102 0.351-5.234 1.438-11.977 2.385-19.279 2.738 2.543-9.047 5.009-18.447 6.048-26.461 4.712 5.724 10.832 13.509 14.333 23.372m-0.102-4.329c-3.018-7.49-8.099-14.328-13.181-20.529 1.208-0.296 2.391-0.624 3.523-1.013 1.485-0.509 2.911-0.86 4.284-1.085 2.854 8.204 4.594 15.738 5.374 22.627m3.069-17.938c-1.776-1.964-3.552-3.631-5.191-4.964 5.532 0.017 9.753 2.67 11.831 7.77 0.461 1.133 0.789 2.256 1 3.362 0.328 1.722 0.343 3.395 0.079 4.984-2.199-4.327-4.954-8.095-7.719-11.152m7.135 13.419c-1.275 3.493-4.119 6.393-8.384 8.204-0.505-9.701-2.613-18.223-5-25.261 4.083 3.456 9.535 9.251 13.384 17.057m-57.038-18.112c4.75 1.461 9.366 2.46 13.774 2.998-6.279 7.986-10.691 16.074-13.289 22.184 0.321-8.246 0.059-15.426-0.485-25.182m-30.269 8.768c-0.165-3.615 1.114-7.072 3.311-9.09 3.913-3.596 7.781-4.977 12.693-4.276-5.892 4.473-11.304 8.934-16.004 13.366m7.987 12.228c-2.297-1.523-4.201-3.25-5.594-5.2-1.12-1.568-1.81-3.295-2.153-5.039 5.225-4.964 10.521-9.049 15.891-13.188-3.052 6.351-6.047 14.52-8.144 23.427m2.057-1.986c1.666-6.032 4.485-14.01 8.701-23.032 1.241 0.337 2.542 0.775 3.932 1.336 1.657 0.669 3.297 1.264 4.928 1.82-7.004 7.114-12.835 13.315-17.561 19.876m18.55-18.431c0.498 8.962 0.882 18.445 0.465 27.837-7.391-1.316-14.172-3.389-19.341-6.353 5.217-7.475 11.688-14.234 18.876-21.484m60.568-1.716c-0.409 1.719-1.071 3.309-1.966 4.77-3.573-5.287-9.86-7.049-17.461-5.247-1.063 0.252-2.147 0.56-3.259 0.952-10.948 3.865-27.156 2.514-43.153-3.86-3.644-1.452-6.764-2.155-9.528-2.228-4.737-0.125-8.416 1.625-11.829 4.736-1.682-1.977-2.851-4.058-3.414-6.214 12.516-8.666 28.634-13.319 46.722-11.001 18.278 2.343 33.054 8.617 43.888 18.092m41.578-137.72c-3.732 3.105-7.415 5.855-10.591 7.796 0.476-3.319 0.398-6.997-0.549-10.798-0.352-1.418-0.923-1.568-1.947-0.261-3.321 4.238-7.22 8.907-11.175 12.51 0.315-4.412-0.203-8.446-1.527-11.745-0.502-1.255-1.018-1.445-1.814-0.363-3.053 4.149-5.217 6.618-8.21 9.996-6.564 4.883-12.528 7.833-20.879 10.564-13.324 4.361-19.553 10.867-24.187 20.745-3.791-4.294-8.219-8.295-13.412-11.993-6.086-4.334-13.147-7.983-20.942-11.005 1.77-9.148 2.957-17.786 3.511-24.862 0.479-0.115 0.982-0.275 1.534-0.536 6.591-3.096 12.157-7.499 16.542-12.872 1.117-1.368 1.003-1.863-1.103-1.649-2.113 0.213-4.717 0.348-6.746 0.44 0.419-0.62 0.838-1.239 1.233-1.887 1.109-1.816 0.751-1.999-1.169-1.659-3.572 0.629-6.215 1.187-8.837 1.832 0.527-0.542 1.047-1.086 1.553-1.628 1.679-1.798 1.577-2.232-0.62-2.017-9.636 0.961-15.11 2.187-23.756 5.039-0.184 0.061-0.361 0.137-0.533 0.223-6.348 1.531-10.54 3.356-13.29 5.49-2.413 1.872-7.691 11.924-12.671 23.968-18.013-1.959-37.268-2.005-56.273-0.463-0.338-1.131-0.735-2.14-1.115-3.19 6.113-1.672 11.795-5.193 16.873-8.944 1.701-1.259 1.777-1.801-0.799-1.78-1.617 9e-3 -2.906 0.037-4.303 0.129 0.719-0.514 1.418-1.038 2.08-1.578 1.463-1.194 1.271-1.784-0.887-1.794-2.218-0.01-4.543 0.033-7.445 0.242 0.43-0.331 0.866-0.652 1.288-1.002 1.696-1.41 1.498-1.86-0.83-1.988-6.149-0.331-13.942-0.068-19.163 0.821-0.514 0.087-0.937 0.248-1.311 0.451-5.365 1.087-10.22 2.459-12.683 4.121-3.106 2.099-7.758 12.748-10.237 19.875-7.108 1.418-14.012 3.051-20.623 4.877-2.952-1.477-5.845-2.754-8.549-3.78-3.037-1.152-3.56-2.159-3.449-4.824 0.241-5.782 1.081-10.709 2.834-16.313 0.413-0.134 0.833-0.308 1.258-0.531 5.206-2.724 10.951-6.775 14.858-10.364 1.449-1.327 1.274-1.836-0.794-1.785-2.683 0.066-5.284 0.208-7.893 0.464 0.632-0.582 1.259-1.174 1.875-1.779 1.527-1.498 1.398-2-0.843-1.834-5.229 0.383-9.055 0.788-13.841 1.498 1.346-1.414 2.653-2.846 3.891-4.242 1.484-1.672 1.256-2.146-0.954-1.844-7.2 0.984-12.413 1.788-20.749 3.784-0.486 0.117-0.913 0.439-1.269 0.897-5.008 1.133-6.978 2.394-8.337 6.279-3.821 10.918-7.675 31.169-8.477 38.055-82.758-20.966-151.47 2.463-162.69 78.668-8.371 56.859 41.283 110.79 63.332 118.64 1.466 0.522 2.221 0.592 1.61-1.437-2.006-6.657-4.611-14.543-7.629-22.813 12.245 8.541 22.041 12.298 34.425 13.87 2.027 0.255 2.243-0.196 0.997-1.619-6.842-7.817-12.921-15.084-18.681-22.347 8.04 4.385 17.339 6.695 26.721 5.669 2.237-0.245 2.434-0.798 0.357-2.109-39.417-24.882-68.336-74.965-33.886-105.28 25.336-22.297 67.54-14.299 96.661 18.703 30.853 34.965 60.305 43.967 90.284 31.217 14.277-6.07 33.181-11.862 46.992-11.55 19.315 1.385 29.382 12.231 33.81 30.984-5.244 8.874-8.207 18.669-8.438 28.208-16.833 6.716-25.33 23.758-20.687 41.651 3.967 15.295 18.983 24.58 34.867 22.163 1.716 17.285 26.395 27.426 48.741 29.163 21.39 1.662 39.327-4.077 46.558-14.913 12.219 4.177 29.784 0.578 39.408-13.199 9.168-13.12 5.866-32.889-5.52-44.819 2.863-27.502-5.86-49.207-23.506-63.253-0.461-12.223-1.628-20.244-4.556-33.997-3.367-15.804-1.86-32.927 4.122-46.269 0.986-2.2 1.905-3.159 4.965-4.54 11.841-5.35 24.194-16.954 29.291-27.075 3.206-2.412 7.489-11.9 9.648-21.42 0.449-1.976-0.227-2.343-1.744-1.08m-449.44 128.35c0.43 4.014 0.975 6.62 2.007 10.666 0.853 3.345 1.904 3.084 1.199-0.294-0.826-3.956-1.189-6.336-1.733-10.576-0.477-3.715-1.876-3.544-1.473 0.204" clip-path="url(#clipPath1697-6)" fill="#0e0f0f"/>
 <path d="m323.98 67.593c-0.53403 0-1.1503 0.0921-1.8252 0.29307-2.281 0.6822-3.0869 1.9294-2.8656 2.6718 0.17492 0.58613 0.91908 0.96631 2.0539 0.96631 0.55033 0 1.1918-0.0895 1.905-0.2882 2.0344-0.56739 3.0488-1.6924 2.7678-2.6295-0.18484-0.62196-0.93376-1.0135-2.036-1.0135" fill="#f8d1d6" stroke-width="2.3076"/>
</svg>
