<?xml version="1.0" encoding="UTF-8"?>
<!-- Created with Inkscape (http://www.inkscape.org/) -->
<svg version="1.1" viewBox="0 0 342.83 332.71" xmlns="http://www.w3.org/2000/svg">
 <g transform="translate(1.7734 .23417)" stroke-width=".87031">
  <path class="st0" d="m30.939 187.04c-8.2679 16.188-18.015 33.246-31.418 42.645 9.4864 0 20.104-4.2645 32.027-11.575" fill="#8a694f"/>
  <path class="st0" d="m282.55 272.94c-51.174 3.3942-76.5-0.60921-121.23-34.116 21.932 9.4864 47.519 12.532 64.925 6.7014-13.751-4.0034-23.15-8.8771-35.073-17.667 11.923-0.8703 20.104-3.0461 26.544-6.7014-34.725-11.923-54.568-24.369-70.669-49.695 10.705-7.3106 15.23-19.495 12.532-32.636-2.4369-11.314-10.357-23.498-24.369-33.507-2.1758-8.8771-2.785-20.104-2.785-27.415 7.0495-2.4369 12.532-10.966 11.923-19.234-1.5666-0.8703-2.785-1.5666-4.2645-2.1757 1.8276-1.8277 3.3942-3.3942 4.8737-5.2218-2.1758-6.0922-5.8311-11.314-10.096-14.36-0.95734 17.406-20.104 31.679-40.817 32.027-17.667 0.34811-45.691-15.23-52.392-33.855-9.7474 0.87029-18.276 7.9198-21.061 16.188 1.5666 1.8276 3.0461 4.0034 4.6126 6.4402-2.1758 0.87033-4.0034 2.1758-5.4829 3.6553 1.2184 9.4864 7.3106 16.188 14.012 18.886 0.60921 10.096 1.5666 21.061 3.0461 32.027-5.4829-6.4403-10.357-10.966-15.84-15.579 1.2184 7.9198 4.6126 19.234 7.3106 27.415-5.2218-1.8276-9.7474-2.4368-14.969-2.4368 6.7014 10.705 17.058 31.679 19.234 48.128-13.751 69.799 17.406 105.13 65.795 121.58 65.186 22.28 170.93 11.575 226.11-20.452-13.229 0.174-22.019 0.52218-41.862 2.0017" fill="#8a694f"/>
  <path class="st1" d="m115.27 87.736c-12.184-3.6553-45.082-2.698-54.568 0.95732-4.6126 1.8276-5.8311 5.2218-4.8737 8.2679 0.60921 2.785 3.3942 4.8737 11.314 3.3942 10.705-2.1758 28.633-3.0461 40.556-1.2184 7.0495 0.87029 12.184 0.26118 13.142-4.0034 0.52219-3.4813-1.5666-6.1792-5.57-7.3976" fill="#fff"/>
  <path class="st2" d="m111.01 263.8c-28.372-25.587-38.99-71.278-22.889-143.51 3.3942-3.0461 5.4829-5.2218 9.1382-9.4863 3.6553 3.0461 6.0921 5.2218 9.4864 7.0495 0.34812-3.0461 0.34812-6.0922 0.34812-9.4864 4.8737-2.4368 9.4864-5.4829 12.532-8.2679 1.8277-2.1758 2.1758-4.2645 1.2184-5.2218-0.95734 4.2645-6.4403 4.8737-13.142 4.0034-11.923-1.8276-29.852-0.95734-40.556 1.2184-7.6587 1.4795-10.966 0-11.575-4.2645-8.529 6.4403-15.579 21.671-17.406 39.338-0.95734 8.529-3.0461 20.713-5.2218 31.07-15.23 72.236 15.84 108.44 65.186 125.24 37.771 12.794 89.555 14.621 136.81 7.6587-47.693 1.8276-101.04-14.882-123.93-35.334" fill="#e5d25b"/>
  <path class="st3" d="m40.686 45.004c-14.969 1.2184-18.886 23.15-2.1758 28.372 0.34812-9.1382 1.2184-19.495 2.1758-28.372" fill="#403a3a"/>
  <path class="st3" d="m129.63 51.444c0.95734 6.7014 1.2184 12.793 1.5666 19.234 4.6126-2.1758 7.3106-7.9198 7.0495-13.403 0-3.6553-1.8277-7.6587-5.8311-10.357-0.95734 1.8277-1.5666 2.698-2.785 4.5256" fill="#403a3a"/>
  <path class="st2" d="m91.254 1.14c-29.242-2.1758-52.741 13.142-56.396 35.683 2.1758-0.87033 4.2645-1.2184 6.7014-1.4795 6.7014 18.625 34.725 34.116 52.392 33.855 21.323-0.34814 40.817-15.578 41.166-33.507 0-14.447-19.843-32.985-43.863-34.551" fill="#e5d25b"/>
  <path class="st1" d="m57.396 55.099c-4.8737 6.0921-1.8276 17.058 6.4403 18.886 6.7014 1.8276 12.532-1.5666 14.36-7.6587-7.0495-2.698-14.36-6.3533-20.8-11.227" fill="#fff"/>
  <path class="st4" d="m102.48 68.241c-2.785 0.6092-5.8311 0.8703-8.529 0.8703-4.0034 0-8.529-0.60923-13.142-1.8277-1.2184 0.95737-2.1758 2.1758-2.1758 3.6553-0.60921 4.8737 4.0034 9.1382 12.532 10.096 8.2679 0.60921 13.751-2.785 14.012-7.6587 0.34812-1.8277-0.87031-3.6553-2.698-5.1348" fill="#ee869b"/>
  <path class="st1" d="m104.66 67.632c1.2184 3.3942 4.0034 5.8311 7.3106 6.4402 4.8737 0.60923 9.1382-3.0461 10.096-8.8771 0-1.8276 0-3.6553-0.60921-5.2218-4.9608 3.3942-10.705 6.0922-16.797 7.6587" fill="#fff"/>
  <path class="st2" d="m312.75 256.84c7.3106-5.483 14.969-14.36 19.843-22.28-15.84 7.3106-30.809 12.794-47.258 17.667 4.6126-3.6553 10.096-9.4864 11.575-14.36-32.898 21.671-65.534 23.15-92.949 10.705-13.751-0.34814-28.981-3.6553-42.645-9.7475 44.821 33.507 70.06 37.51 121.23 34.116 14.012-0.87028 22.541-1.4795 30.809-1.8276 9.7475-5.4829 20.104-13.403 26.544-20.104-10.096 2.4369-18.625 4.2645-27.154 5.8311" fill="#e5d25b"/>
  <path class="st0" d="m131.72 313.76c1.5666-9.1382 2.1758-17.406 1.2184-24.978-8.2679-11.923-20.452-30.2-25.587-41.166-3.0461-6.4402 32.898-16.797 45.43-12.793l2.4368 1.2184c5.8311 11.314 16.449 36.901 17.667 41.166 1.5666 5.2218-8.2679 39.947-11.923 42.993-2.1758 1.8276-4.0034 2.4369-6.7014 3.3942l-18.276-4.8737z" fill="#8a694f"/>
  <path class="st0" d="m38.51 244.65c2.4369 9.4864 6.7014 21.061 10.096 29.852 3.3942 8.8772 1.5666 13.751-3.3942 21.323l2.4369 6.0921 14.36 4.6127c4.8737 0.34811 9.7474-1.2184 11.923-3.0461 2.785-2.6979 6.4403-10.966 7.9198-18.625-18.973-9.1382-34.203-22.28-43.341-40.208" fill="#8a694f"/>
  <path class="st3" d="m59.224 297.65c-1.5666 0-3.6553 0.8703-5.8311 2.785-0.60922-2.1758-2.1758-4.2645-4.0034-4.0034-0.34812 0-1.2184 0.34813-2.1758 0.87031-0.60921-0.87031-1.2184-1.8276-1.8276-1.8276-1.5666 0-13.403 7.3106-17.406 12.532 3.0461-0.87033 6.4403-1.8276 10.096-2.785-1.8276 1.5666-3.3942 3.3942-4.6126 4.8737 4.8737-1.5666 8.2679-2.4369 12.184-3.0461-1.2184 1.2184-2.4369 2.4368-3.3942 3.6553 7.3106-1.2184 18.886-3.6553 19.843-4.8737 2.3498-2.0887-0.08704-8.1809-2.872-8.1809" fill="#403a3a"/>
  <path class="st3" d="m151.83 314.71c-1.8276 0-3.6553 1.8276-5.831 4.8737-0.95734-2.785-2.785-5.8311-4.6126-5.8311-1.2184 0-2.785 1.5666-4.6126 4.0034-0.95733-2.4368-1.8276-4.6126-3.3942-4.8737-2.1758 0-10.096 9.1382-13.751 14.621 4.8737-1.8276 10.096-4.2645 14.969-6.7014-1.8276 3.0461-3.3942 6.4403-4.0034 9.4864 4.6126-3.0461 8.8771-5.4829 14.012-8.2679-1.5666 2.785-2.785 6.0922-3.6553 9.7474 4.0034-2.785 9.1382-5.8311 12.794-7.9198 2.3498-1.2184 0.8703-9.1382-1.9147-9.1382" fill="#403a3a"/>
  <path class="st5" d="m42.514 35.256c13.142 20.452 35.944 30.2 51.174 29.852 19.234 0 36.553-11.923 40.556-29.242 0.34812 23.15-27.763 33.855-40.556 33.246-23.15-0.8703-46.648-17.928-51.174-33.855" fill="#c1b14c"/>
  <g fill="#755741">
   <path class="st6" d="m45.56 44.394c2.785 5.483 6.0922 10.096 10.096 14.012l1.8276-3.6553c-4.3515-2.959-8.2679-6.6143-11.923-10.357"/>
   <path class="st6" d="m104.31 67.893c-0.34812 0-0.95735 0-1.2184 0.34814 1.5666 1.5666 2.1758 3.0461 2.1758 4.6126 0.95734 0 1.8276-0.34815 2.785-0.60923-1.5666-1.3055-2.785-2.5239-3.7423-4.3515"/>
   <path class="st6" d="m80.285 67.022c-0.60921-0.34811-1.2184-0.60921-1.8277-0.60921-0.95734 1.8277-1.8276 3.6553-3.0461 4.8737 1.2184 0.34811 2.1758 0.60921 3.3942 0.95732-0.34812-1.9147 0.26108-3.7423 1.4795-5.2218"/>
   <path class="st6" d="m130.24 57.275c-0.34813-2.1758-0.34813-3.9164-0.60922-5.8311-2.785 3.0461-5.4829 5.8311-8.529 7.9198 0.60922 1.8276 0.95734 4.0034 0.60922 5.831 3.0461-2.1757 6.0921-4.8737 8.529-7.9198"/>
  </g>
  <path class="st7" d="m78.458 66.413c-7.3106-2.4369-14.36-6.4403-21.061-11.575l-1.8276 3.6553c5.8311 5.8311 12.532 10.096 19.843 12.794 1.2184-1.2184 2.4369-3.0461 3.0461-4.8737" fill="#d2d3d4"/>
  <path class="st8" d="m103.09 68.241c-7.6587 1.5666-15.23 0.8703-22.889-1.2184-1.2184 1.5666-1.8276 3.3942-1.5666 5.2218 8.8771 2.698 18.015 2.698 26.544 0.60923 0.087-1.5666-0.5222-3.1331-2.0888-4.6126" fill="#ce7487"/>
  <path class="st7" d="m121.11 59.364c-5.2218 4.2645-10.966 7.0495-16.797 8.529 0.95734 1.8277 2.1758 3.0461 3.6553 4.2645 4.8737-1.5666 9.4864-4.0034 13.751-7.0495 0.26107-1.7406 0-3.9164-0.60922-5.744" fill="#d2d3d4"/>
  <path class="st9" d="m30.591 50.835c2.4369-0.60921 7.3106 0.60923 8.8771 3.6553 0.60922-3.3942 0.95734-6.7014 1.2184-9.4864-4.2645 0-7.9198 2.785-10.096 5.8311" fill="#2f2a28"/>
  <path class="st9" d="m135.99 50.573c-2.4368-0.34811-5.2218 3.0461-5.831 6.7014-0.34813-1.8277-0.60922-3.9164-0.60922-5.8311 0.95733-1.2184 2.1758-3.0461 2.785-4.8737 1.2184 1.2184 2.4369 2.1758 3.6553 4.0034" fill="#2f2a28"/>
  <g fill="#755741">
   <path class="st6" d="m21.452 97.136c2.785 7.6587 7.6587 20.452 10.966 28.981-1.8276-0.87031-3.0461-1.5666-4.6126-1.8276-2.959-10.357-5.744-21.323-6.3532-27.154"/>
   <path class="st6" d="m13.533 121.85c6.7014 4.8737 16.797 24.108 20.452 40.556l-1.5666 6.4402c-4.5256-20.539-12.184-36.379-18.886-46.997"/>
   <path class="st6" d="m0.13 229.07c9.7474-2.785 21.323-9.7474 29.242-18.276 0.34812 2.785 0.60921 5.2218 0.95734 8.2679-7.3106 4.8737-22.019 11.227-30.2 10.009"/>
   <path class="st6" d="m82.113 204.1c10.096 13.751 26.805 23.759 42.645 30.2-15.23-1.8277-28.372-7.9198-41.166-20.104-0.2611-3.1331-0.8703-6.7884-1.4795-10.096"/>
   <path class="st6" d="m100.39 113.32c-3.3942 4.6126-8.8771 15.84-10.966 21.671-0.60923 1.2184 0 2.1758 0.95734 1.8277l1.5666-0.95734c2.1758-6.4403 5.8311-14.969 9.7474-21.671z"/>
   <path class="st6" d="m110.4 129.42c-7.9198 3.6553-19.495 21.932-26.805 34.464-1.2184 1.8276 0 3.6553 1.2184 3.3942 7.0495-10.705 14.621-25.674 25.587-37.858"/>
   <path class="st6" d="m185.42 223.59c7.6587 0.95736 20.713-0.26117 31.418-2.6979-4.0034 3.6553-16.449 7.0495-25.935 7.0495-2.1758-1.5666-3.6553-2.785-5.483-4.3516"/>
   <path class="st6" d="m151.83 234.56c-0.95735-2.1758 1.5666-4.6126 4.8737-2.785 22.28 11.575 46.3 16.188 68.58 13.751-17.058 5.8311-47.258 3.0461-73.454-10.966"/>
  </g>
  <path class="st5" d="m132.94 288.52c-3.3942-4.2645-8.2679-11.314-12.184-18.015-7.0495-3.9164-12.184-8.8771-15.578-12.794-33.507 0.34811-73.454-26.805-75.891-52.741 0 54.829 42.384 86.247 103.91 94.776 0.087-3.9164 0.087-7.5717-0.26107-11.227" fill="#c1b14c"/>
  <path class="st6" d="m120.76 270.5c-3.3942-5.2218-6.0922-9.7475-7.9198-13.142-2.4369 0.26116-5.2218 0.26116-7.6587 0.26116 3.3942 4.0904 8.616 8.9642 15.578 12.881" fill="#755741"/>
  <path class="st6" d="m237.2 299.13c33.507-5.483 64.925-15.23 85.899-27.763-66.404 20.104-116.36 18.276-155.09-6.4403 1.8276 3.6553 4.2645 10.357 4.8737 12.532 0.34814 1.5666-0.60923 7.6587-2.1758 14.36 19.843 5.4829 43.951 8.2679 66.491 7.3106" fill="#755741"/>
  <g fill="#c1b14c">
   <path class="st5" d="m237.2 299.13c-22.541 0.87031-46.648-1.8276-66.404-7.3106-0.95732 3.9164-2.1758 8.2679-3.0461 11.314 21.932 1.2184 46.3-0.34811 69.451-4.0034"/>
   <path class="st5" d="m339.55 250.75c-10.357 7.3106-24.108 16.188-35.334 20.713 2.4368 0 5.8311 0 9.1382-0.34814 7.5717-4.5256 20.713-13.403 26.196-20.365"/>
   <path class="st5" d="m331.89 234.56c-5.8311 6.4403-17.058 17.667-26.544 23.498 2.1757-0.34811 4.8737-0.60919 7.6587-0.87031 9.1382-8.2679 16.449-16.797 18.886-22.628"/>
   <path class="st5" d="m296.56 238.56c-4.8737 5.8311-10.966 10.705-17.406 15.23 2.1758-0.60922 4.0034-0.95737 6.7014-1.8277 4.6126-4.2645 9.2252-8.8771 10.705-13.403"/>
  </g>
  <g fill="#755741">
   <path class="st6" d="m46.169 295.83c6.0922-5.2218 9.1382-11.314 6.4403-19.843-2.1758-6.4403-3.6553-11.314-5.8311-18.625 8.2679 10.096 22.889 21.061 35.073 27.763-1.5666 7.9198-5.8311 17.058-8.2679 18.625-2.4369 1.8276-8.8771 3.0461-11.575 2.4369 2.4369-2.4369 0.34812-8.2679-2.1758-8.529-1.5666-0.34814-4.0034 1.2184-6.4403 2.4368-0.95734-2.1758-2.4369-3.6553-3.6553-4.0034-0.95734 0-1.5666 0.60918-2.4369 1.2184-0.26108-0.60923-0.52218-1.2184-1.1314-1.4795"/>
   <path class="st6" d="m128.07 280.6c10.357 10.966 28.633 10.096 37.51 2.4369 2.1758-1.8277 4.0034-2.4369 3.3942 1.4795-2.1758 12.532-5.483 25.326-8.529 32.288-0.60923 1.8276-2.785 3.6553-5.2218 4.6126 0-2.1758-1.2184-6.4403-2.785-6.7014-1.5666 0-3.6553 1.2184-6.0922 4.6126-1.2184-2.785-3.6553-5.4829-4.8737-5.2218-1.2184 0-2.785 1.2184-4.6126 3.6553-0.60921-2.1758-1.5666-4.2645-2.785-4.6126-0.60922-0.34811-1.5666 0-2.4369 0.60922 1.2184-7.9198 2.4369-22.28 1.2184-24.717-0.52218-1.1314-2.6109-5.1348-4.7867-8.442"/>
   <path class="st6" d="m140.25 159.62c6.0922 1.5666 18.886-7.3106 19.234-18.886 2.785 10.705-1.5666 22.889-12.532 30.809-2.4369-3.7423-4.8737-8.2679-6.7014-11.923"/>
  </g>
  <g fill="#c1b14c">
   <path class="st5" d="m70.19 109.67c0 2.785 0.60921 7.3106 0.95734 7.3106s5.2218-2.698 8.529-5.483c-4.8737 5.2218-7.0495 6.7014-9.7474 8.8771-0.60921-2.5239-0.60921-7.6587 0.26108-10.705"/>
   <path class="st5" d="m81.504 111.15c3.0461 3.6553 6.4403 6.0921 6.7014 6.0921 0.60921 0 4.8737-2.785 8.2679-6.4402-2.4369 3.6553-7.3106 9.1382-8.2679 9.1382-0.60921 0.0872-5.2218-5.1348-6.7014-8.7901"/>
   <path class="st5" d="m97.955 110.54c3.0461 2.1758 6.7014 4.2645 7.0495 4.0034 0.34812-0.26118 1.2184-4.0034 1.8276-7.9198v10.966c-2.785-1.5666-6.1792-3.6553-8.8771-7.0495"/>
   <path class="st5" d="m69.58 109.32c-5.4829 0-13.142-2.4368-14.36-0.26118-1.5666 2.698 6.0921 17.667 22.28 17.667 4.8737 0 7.3106-0.60922 9.4864-1.2184l1.2184-5.2218c-2.1758-2.1758-6.0921-6.7014-7.3106-9.1382-3.0461 2.785-10.096 9.1382-10.705 8.8771-0.95734 0-1.2184-4.0034-0.95734-6.0922 0.34812-2.4369 0.34812-4.6126 0.34812-4.6126"/>
  </g>
  <path class="st6" d="m87.25 125.51c1.2184-0.34811 7.9198-4.2645 6.7014-1.2184-0.60921 1.8276 2.1758 0.26117 2.1758 0.26117l5.4829-10.357-4.2645-3.3942c-2.1758 2.785-7.6587 8.529-9.1382 9.7474z" fill="#755741"/>
  <path class="st6" d="m95.779 125.77c8.2679-3.0461 13.751-6.7014 20.713-22.541-3.3942 1.8276-9.4864 5.2218-9.4864 5.2218s-0.34813 8.2679-0.95734 8.529c-0.60921 0.34811-4.6126-2.698-4.6126-2.698z" fill="#755741"/>
  <g fill="#0f141b">
   <path class="st10" d="m33.637 37.432c3.3942-24.978 29.242-39.338 57.614-37.51 23.759 1.8276 44.821 20.104 44.821 35.683-0.34813 18.886-20.104 33.855-42.036 34.464-18.276 0.34811-46.039-14.969-53.002-33.855-8.8771 1.2184-16.797 7.6587-19.234 15.23 1.5666 1.8276 2.785 3.6553 4.0034 5.8311 0.60922 0.6092 0.34812 0.95734-0.34812 1.5666-2.1758 0.8703-3.6553 1.8276-4.8737 3.0461 1.5666 10.966 8.8771 16.449 15.23 18.625 2.1758 0.8703 2.1758 1.8277-0.34812 1.2184-6.7014-1.5666-15.23-8.2679-16.797-19.843 0-0.60923 0-0.87033 0.60921-1.2184 1.2184-1.2184 2.785-2.1758 4.6126-3.0461-1.2184-1.8277-2.1758-3.3942-4.0034-5.2218-0.34812-0.60923-0.34812-0.60923 0-1.2184 2.785-9.1382 11.923-15.579 21.323-16.797 0.60922 0 0.95734 0 1.2184 0.60923 6.7014 18.015 34.464 33.855 51.522 33.507 22.28-0.60921 39.947-16.797 39.947-32.898 0.34813-13.403-18.276-31.679-42.645-33.246-31.418-2.1758-52.741 14.621-55.439 34.116z"/>
   <path class="st10" d="m86.989 68.85c0.34812-5.831-5.4829-17.058-11.314-24.978-1.8276-2.4368-0.95734-3.0461 0.95734-0.60921 6.0921 7.9198 12.184 19.843 11.923 25.587z"/>
   <path class="st10" d="m97.607 68.85c4.2645-12.532-0.34812-27.415-2.785-34.464-0.60921-2.1757 0-2.4369 0.95734-0.60918 2.785 6.7014 7.6587 22.28 3.6553 35.073z"/>
   <path class="st10" d="m109.79 66.065c3.6553-6.7014 6.7014-16.188 7.0495-22.541 0-2.785 0.95734-2.785 0.95734 0 0.34813 6.7014-2.1758 14.969-5.8311 21.671z"/>
   <path class="st10" d="m58.005 55.447c-4.2645 5.8311-1.8276 16.188 5.8311 18.015 5.4829 1.4795 11.575-0.60921 13.751-7.3106l1.2184 0.34811c-2.1758 7.3106-8.529 10.096-15.23 8.529-9.1382-2.4369-11.923-14.012-6.7014-20.452z"/>
   <path class="st10" d="m81.765 67.283c-1.5666 0.95737-2.1758 2.4369-2.4369 4.0034-0.34812 4.2645 4.2645 8.2679 11.923 8.8771 7.3106 0.60923 12.794-2.1758 13.142-6.7014 0.34813-1.8277-0.60921-3.6553-2.4368-4.8737l1.5666-0.60923c1.8276 1.5666 2.785 3.6553 2.785 5.8311-0.60921 5.4829-7.0495 8.529-14.969 7.9198-8.2679-0.60921-14.012-4.8737-13.403-10.705 0-1.5666 0.95734-3.0461 2.1758-4.0034z"/>
   <path class="st10" d="m105.27 67.632c1.2184 3.0461 3.6553 5.2218 7.0495 5.8311 6.7014 0.60918 10.705-7.3106 8.2679-13.142l1.5666-0.87032c2.785 6.7014-1.8276 16.188-10.096 15.23-4.0034-0.34811-6.7014-3.0461-8.2679-6.7014z"/>
   <path class="st10" d="m55.307 59.712c-0.95734-0.26118-1.8276-0.60921-3.0461-0.8703-2.1758-0.60921-2.1758-1.2184 0.34812-0.87032 1.2184 0.34814 2.1758 0.34814 3.0461 0.87032z"/>
   <path class="st10" d="m55.568 65.456c-1.5666-0.34811-2.4369-0.34811-3.6553-0.34811-3.0461-0.34814-2.785-0.87033 0-1.2184 1.2184 0 2.4369 0.34811 3.3942 0.34811z"/>
   <path class="st10" d="m72.017 67.283c-2.1758-0.26116-4.2645-0.60918-7.3106-0.87029-2.785-0.34811-2.785-1.2184 0-1.2184 3.0461 0 4.8737 0.34814 7.6587 0.60921 2.0887 0.26118 2.0887 1.8277-0.34812 1.4795"/>
   <path class="st10" d="m80.546 67.022c-2.1758 2.4369-4.6126 5.8311-7.3106 9.7474-1.5666 2.4369-2.4369 2.1758-0.95732-0.60923 2.1758-4.0034 4.6126-7.0495 6.7014-9.7474z"/>
   <path class="st10" d="m104.92 69.72c2.1758 2.4369 4.2645 5.4829 7.0495 8.8771 1.5666 2.4369 0.95734 3.0461-0.95734 0.8703-2.1758-2.785-3.6553-4.6126-5.4829-7.0495z"/>
   <path class="st10" d="m121.37 59.973c1.2184 0 2.1758-0.34811 3.6553-0.34811 1.8277 0 1.8277 0.60921 0 0.95734-1.2184 0.34814-2.1758 0.60921-3.3942 0.60921z"/>
   <path class="st10" d="m121.98 64.847c1.2184 0 2.1758 0.34811 3.3942 0.34811 1.8276 0.34814 1.5666 1.2184 0 0.87033h-3.6553z"/>
   <path class="st10" d="m108.92 66.065h5.8311c2.4369 0 2.4369 1.2184-0.34812 1.2184-2.4369 0-4.6126 0.34815-7.6587 0z"/>
   <path class="st10" d="m39.729 45.961c-6.7014 1.2184-10.705 7.0495-11.314 11.923-0.60922 7.3106 4.2645 12.532 9.1382 14.36 0.34812-9.8345 1.3055-18.973 2.1758-26.283m-1.4795 28.372c-6.4403-2.1758-12.184-7.9198-11.314-16.449 0.60922-6.4403 5.2218-12.794 13.403-13.751 0.95734-0.34815 1.2184 0 1.2184 1.2184-0.95734 7.3106-2.1758 18.625-2.1758 28.024-0.26108 0.95734-0.52218 1.2184-1.1314 0.95734"/>
   <path class="st10" d="m139.64 55.708 4.2645-4.2645c-1.8276-5.2218-5.2218-10.357-9.1382-13.403l0.34812-2.1757c4.6126 3.3942 8.529 9.1382 10.357 15.23 0.34812 0.60921 0.34812 0.87032 0 1.2184-1.2184 0.95732-2.785 2.785-4.0034 4.0034 0.95734 0.60923 1.8276 0.87033 3.0461 1.5666 0.60921 0.34814 0.60921 0.60921 0.60921 1.2184 0.34813 8.8771-4.8737 16.797-11.923 19.234 0 7.0495 0.60922 18.886 2.785 27.763l-1.8276-1.2184c-2.1758-8.8771-2.785-20.104-2.785-26.544 0-0.8703 0-0.8703 0.95734-1.2184 6.4403-2.4369 11.314-10.096 11.314-17.667-1.5666-0.95734-2.4369-1.2184-3.6553-1.8276-0.95734-0.69625-0.95734-0.95732-0.34812-1.9147"/>
   <path class="st10" d="m132.68 45.961c4.0034 2.785 6.0921 6.4403 6.4403 11.314 0.34812 6.4403-3.0461 11.575-7.3106 14.36-1.2184 0.60921-1.5666 0.34811-1.5666-0.8703 0-5.2218-0.60922-10.966-1.5666-18.276l1.5666-1.8277c0.95733 7.6587 1.5666 13.142 1.8276 18.886 3.3942-2.1758 5.4829-7.0495 5.2218-12.184 0-3.6553-1.8276-7.0495-5.2218-9.7474z"/>
   <path class="st10" d="m60.79 89.564c-4.2645 1.5666-4.8737 4.6126-4.2645 7.3106 0.60922 2.4369 3.3942 4.0034 10.357 2.785 12.184-2.4368 30.809-2.785 40.817-1.2184 7.0495 0.87033 11.575-0.34811 12.184-3.6553 0.34813-2.4369-0.95734-4.8737-4.8737-6.0921-12.184-4.0034-44.212-3.1331-54.22 0.8703m-5.8311 7.5717c-1.2184-4.0034 0.95734-7.3106 5.4829-9.1382 9.4864-3.6553 42.036-4.8737 55.177-0.8703 4.8737 1.5666 6.4403 4.6126 5.831 7.9198-0.60921 4.0034-4.6126 6.0921-14.012 4.8737-11.923-1.8276-27.763-1.2184-40.208 1.2184-7.3976 1.2184-11.314 0-12.271-4.0034"/>
   <path class="st10" d="m118.06 98.354c0-2.4369 0-4.2645 0.34812-6.7014-1.8276 2.4369-3.0461 4.6126-5.2218 7.6587h-1.8276c-0.34813-3.6553-0.34813-7.0495-0.95734-10.705-1.8276 3.3942-3.3942 6.4403-5.8311 10.096l-1.2184-0.34815c-1.2184-4.2645-2.4368-7.9198-3.6553-11.314-2.1758 4.0034-3.6553 7.3106-5.2218 10.966h-1.8276c-2.4369-3.6553-4.8737-7.9198-6.4403-10.966-1.5666 4.2645-3.0461 7.6587-4.8737 11.314l-1.5666 0.34815c-2.1758-3.3942-4.6126-7.3106-6.0921-10.705-1.2184 4.0034-2.1758 7.9198-3.3942 11.575l-1.5666 0.34811c-3.0461-2.785-5.2218-6.0921-7.3106-9.7474-0.60922 2.4369-1.8276 7.0495-2.785 10.096l-1.2184-0.60923c0.95734-3.0461 2.4369-8.2679 3.3942-10.966l1.2184-0.60921c1.8276 4.6126 4.2645 7.9198 7.3106 10.705 0.95734-3.3942 2.1758-7.6587 3.3942-12.532h1.2184c2.1758 3.9164 4.2645 7.6587 6.4403 10.966 1.8276-4.0034 3.3942-7.3106 4.8737-11.575h1.5666c1.5666 3.3942 4.0034 7.3106 6.7014 11.314 1.5666-4.0034 3.3942-7.3106 5.4829-11.314h1.5665c0.95734 3.3942 2.785 8.2679 3.6553 11.314 2.1758-3.6553 4.0034-7.0495 5.8311-10.357l1.5666 0.34811c0.34812 4.0034 0.60921 7.0495 1.2184 10.705 2.1758-3.3942 3.6553-5.483 5.4829-8.2679l1.2184 0.87029c-0.34813 2.785 0 4.8737 0 7.3106z"/>
   <path class="st10" d="m107.09 107.49c4.8737-2.4369 9.1382-5.2218 11.923-7.9198 1.5666-1.5666 1.8276-2.785 1.2184-3.6553l0.60922-2.1758c1.8276 1.4795 1.8276 4.6126-0.60922 7.0495-3.0461 2.785-7.9198 6.0922-13.142 8.529z"/>
   <path class="st10" d="m68.71 120.63c-0.34811-3.6553 0-6.7014 0.60923-10.705 0.34812-2.4368 1.2184-2.4368 0.95734 0.34814-0.34812 4.0034-0.34812 5.2218 0 8.8771 3.0461-2.4369 5.8311-4.6127 10.096-8.268 0.60921-0.60918 0.60921-0.60918 1.2184 0.34816 2.1758 3.3942 4.0034 5.2218 6.7014 7.9198 3.0461-2.785 5.2218-4.6127 8.529-8.529 0.34811-0.60922 0.60921-0.60922 1.2184 0 3.0461 2.785 5.4829 4.2645 8.2679 6.0922 0.34812-3.6553 0.34812-6.0922 0.34812-9.7474 0.34813-2.4369 1.2184-2.4369 1.2184 0v10.966c-0.34811 1.2184-0.60921 1.2184-1.5666 0.60921-2.785-1.8276-5.4829-4.0034-8.8771-7.0495-2.785 3.6553-5.2218 6.7014-8.2679 9.4864-0.60921 0.60922-0.95734 0.60922-1.5666 0-2.785-2.4368-4.8737-5.4829-7.0495-8.8771-4.0034 3.6553-7.0495 6.4403-10.357 8.8771-0.8703 0.87031-1.2184 0.52218-1.4795-0.34811"/>
   <path class="st10" d="m132.94 300.96c-12.184-1.8276-24.108-4.6126-35.073-8.529-56.309-19.147-79.72-60.312-65.708-126.11 2.4369-11.923 4.6126-23.498 5.2218-31.07 1.8276-17.058 8.529-33.246 18.276-40.208v1.8276c-8.529 6.7014-14.969 22.28-16.449 38.381-0.95734 8.529-2.4369 18.886-5.2218 31.418-14.621 67.971 12.184 106 64.577 124.02 10.705 3.3942 22.28 6.4403 34.725 8.2679z"/>
   <path class="st10" d="m168.28 301.92c54.568 2.1758 114.88-8.8771 152.91-29.852-10.096 0-19.495 0.34811-38.729 1.8276-52.392 3.3942-78.937-0.95734-124.28-36.292l5.483 2.1757c42.993 31.07 68.58 35.683 118.8 32.288 19.234-1.2184 28.372-1.8277 40.817-1.5666 2.785 0 2.785 0.6092 0.34814 1.8276-37.51 21.323-99.041 34.116-155.96 32.027z"/>
   <path class="st10" d="m171.06 290.95c25.326 6.7014 53.611 9.4864 76.761 5.2218l-4.8737 2.4369c-22.541 3.0461-48.476 0.34811-72.236-5.8311z"/>
   <path class="st10" d="m122.32 272.94c-30.2-17.667-55.787-59.703-34.725-153.26h1.5666c-21.323 95.995 7.3106 134.03 31.07 149.87z"/>
   <path class="st10" d="m39.12 203.49c-0.34812-3.0461 0-5.8311 0.34812-7.9198 0.60922-2.1758 1.5666-2.1758 1.2184 0-0.60921 2.4368-0.60921 5.2218-0.34812 7.6587 0.34812 2.3498-0.60922 2.698-1.2184 0.26116"/>
   <path class="st10" d="m50.086 202.53c-0.34812-4.0034-0.34812-7.3106 0-10.705 0.34812-2.4369 1.2184-2.4369 0.95734 0 0 3.3942 0 6.7014 0.34812 10.705 0.26108 2.785-0.95734 3.0461-1.3055 0"/>
   <path class="st10" d="m64.097 203.49c-0.60922-2.4368-0.95734-4.6126-0.95734-7.3106-0.34812-2.785 0.60921-2.785 0.95734 0 0.34812 2.785 0.60922 4.6126 1.2184 7.0495 0.60921 2.3498-0.26108 2.698-1.2184 0.26116"/>
   <path class="st10" d="m35.813 111.5c-1.5666-9.7474-2.785-21.323-3.3942-31.679l1.8276 0.87029c0.95734 9.4864 1.8276 21.671 3.3942 32.637z"/>
   <path class="st10" d="m27.283 123.94c-3.6553-10.966-5.4829-18.625-7.3106-27.154-0.34812-1.8276 0-2.1757 1.5666-0.60918 6.0922 5.2218 11.575 10.096 16.797 17.406 2.1758 2.4369 1.2184 3.0461-0.60921 0.60923-6.0922-6.7014-10.966-11.314-15.579-15.23 1.2184 6.4403 3.6553 14.621 7.0495 25.935z"/>
   <path class="st10" d="m31.809 172.42c-1.8276-16.188-11.923-38.381-19.234-49.956-0.60922-0.8703-0.34812-1.5666 0.95734-1.5666 6.4403 0 13.142 1.5666 19.843 5.2218 2.785 1.2184 2.4369 2.1758-0.34812 0.87033-7.0495-2.698-11.923-3.9164-18.276-4.2645 6.0922 10.096 15.578 28.633 18.015 45.43z"/>
   <path class="st10" d="m91.254 136.13c2.785-8.2679 5.4829-15.578 9.7474-22.541l1.2184 1.2184c-4.2645 6.7014-6.7014 13.403-9.1382 20.452z"/>
   <path class="st10" d="m86.641 165.37c-1.8276 2.785-2.785 2.4368-0.95734-0.60922 5.2218-8.529 14.012-24.978 23.498-34.725-5.2218 0.60922-11.314 2.785-17.058 6.0921-2.1758 1.2184-2.785 0.60923-0.60921-0.60922 5.4829-4.2645 12.532-6.7014 19.495-7.3106 1.8276 0 1.8276 0.34816 0.60922 1.8277-10.966 11.314-18.886 26.805-24.978 35.334"/>
   <path class="st10" d="m146.34 170.59c10.357-7.3106 14.969-18.625 12.184-31.679-2.785-12.184-11.575-23.498-24.717-33.507-3.0461-2.1758-2.785-3.3942 0.60921-1.2184 13.751 8.8771 23.759 21.932 26.196 34.464 3.0461 14.012-2.1758 26.544-13.142 33.507z"/>
   <path class="st10" d="m-0.47922 228.81c12.794-9.7474 22.28-25.587 30.2-40.817l-0.34812 4.0034c-7.3106 14.012-15.579 28.024-26.805 36.553 7.3106-0.60921 16.449-3.3942 27.763-10.357l0.34812 1.8276c-10.966 6.7014-21.671 10.357-30.461 10.705-2.5239 0.17401-2.5239-0.69626-0.69625-1.9147"/>
   <path class="st10" d="m83.94 212.89c9.1382 9.4864 24.978 18.015 38.729 20.452-16.797-13.142-32.288-32.027-38.381-44.473-1.2184-3.0461-0.60921-3.6553 0.95734-0.60921 7.3106 12.184 22.889 31.418 40.817 45.691 2.1758 1.8276 2.1758 2.1758-0.60921 1.8276-15.578-2.4369-31.418-9.7474-41.166-20.104z"/>
   <path class="st10" d="m190.29 227.25c11.314-1.2184 18.886-2.6979 25.326-6.0921-47.867-16.188-66.404-34.116-85.638-81.635-0.95734-2.785 0-3.3942 1.2184-0.60923 21.671 48.128 38.729 64.577 86.247 81.026 2.1758 0.60921 2.1758 1.2184 0.34811 2.1758-6.4403 3.9164-15.23 5.8311-25.587 6.7014z"/>
   <path class="st10" d="m154.61 236.38c-4.0034-1.8277-3.3942-2.785 0.60921-1.2184 24.108 11.314 49.346 14.969 67.623 10.357-14.012-4.2645-25.326-10.705-38.99-22.28-2.785-2.785-2.4369-3.6553 0.95733-1.2184 15.23 11.575 25.587 18.015 40.817 22.541 2.4369 0.87033 2.4369 1.2184 0 2.1758-18.886 5.831-48.215 2.1758-71.017-10.357"/>
   <path class="st10" d="m283.5 252.57c4.6127-3.3942 10.096-9.1382 11.923-12.794-27.763 18.276-62.14 24.369-93.558 8.8771l4.0034-0.34811c29.242 12.794 61.879 7.9198 90.164-10.705 2.1758-1.2184 2.4369-0.87033 1.5666 1.2184-2.1758 4.8737-6.4403 9.7475-10.357 12.794z"/>
   <path class="st10" d="m311.18 257.1c7.6587-5.4829 14.621-13.751 19.234-20.713-18.015 8.2679-33.246 13.751-50.913 18.015-4.0034 0.87033-4.2645 0-0.34812-1.2184 17.667-4.8737 33.855-10.705 51.783-18.886 2.4368-0.8703 3.0461-0.60923 1.5666 1.5666-4.6127 7.6587-11.314 15.578-18.276 21.061z"/>
   <path class="st10" d="m311.53 271.11c9.4864-5.2218 19.234-12.184 25.935-18.886-14.36 4.2645-24.717 6.0921-38.119 7.3106-4.6126 0.60918-4.6126-0.60921 0-1.2184 13.142-1.8277 23.15-4.0034 39.599-8.2679 2.4369-0.60922 2.785 0 0.95734 1.8276-6.4403 7.3106-16.188 14.36-24.978 19.234z"/>
   <path class="st10" d="m44.603 295.83c4.6126-7.9198 6.4403-12.532 3.0461-21.061-4.0034-10.357-8.529-22.541-10.357-32.288l2.4369 4.2645c2.4369 8.529 6.0922 18.625 9.7474 27.415 3.6553 9.4863 1.2184 14.969-3.3942 21.671z"/>
   <path class="st10" d="m59.224 298.52c-3.3942 0-10.357 5.4829-14.969 11.314 9.4863-1.8276 16.797-3.6553 17.406-4.6126 1.8276-1.8276-0.26108-6.7014-2.4369-6.7014m-17.058 11.575c4.8737-6.0922 12.794-13.403 17.058-13.403 3.6553 0 6.0922 7.0495 3.6553 9.7475-1.2184 1.2184-12.184 3.3942-19.495 4.8737-1.8276 0.34816-2.0887 0-1.2184-1.2184"/>
   <path class="st10" d="m44.951 308.01c-3.3942 0.60922-6.4403 1.2184-10.357 2.785-2.1758 0.60921-2.4369 0.26117-1.2184-1.2184 4.2645-5.483 14.012-13.751 16.188-14.012 1.8276 0 3.6553 1.8276 4.6126 4.2645l-1.5666 0.95736c-0.60922-2.1758-1.8276-3.6553-3.0461-3.6553-1.5666 0.26117-9.1382 6.7014-13.751 11.923 4.2645-1.5666 6.7014-2.1758 10.966-2.785z"/>
   <path class="st10" d="m37.292 306.18c-2.4369 0.60921-5.2218 1.2184-8.2679 2.1758-2.4369 0.87031-2.4369 0.26118-0.95734-1.2184 4.6126-5.4829 15.578-12.184 17.406-12.184 0.95734 0 1.8276 0.8703 2.785 2.1758l-1.5666 0.8703c-0.60921-0.8703-0.95734-1.5666-1.2184-1.5666-0.95734 0-10.357 5.4829-14.969 10.096 2.785-0.87034 5.2218-1.5666 8.529-2.4369z"/>
   <path class="st10" d="m82.722 285.12c-1.5666 7.6587-5.2218 15.84-8.2679 18.886-2.4369 2.4369-9.7474 3.6553-14.36 3.0461l2.1758-1.2184c4.0034 0 8.8771-1.2184 10.966-3.0461 2.785-2.785 6.0922-10.096 7.6587-18.276z"/>
   <path class="st10" d="m152.18 315.58c-3.3942 0-7.3106 5.8311-9.7474 14.36 3.3942-2.1758 7.6587-4.6126 10.966-6.7014 1.8276-0.95737 0.60922-7.6587-1.2184-7.6587m-0.34811-1.8276c3.6553 0 5.2218 9.1382 2.4369 10.966-3.3942 1.8276-7.6587 4.2645-12.184 7.0495-1.8276 1.2184-2.1758 0.87033-1.5666-1.2184 3.3942-11.575 8.2679-16.449 11.314-16.797"/>
   <path class="st10" d="m144.26 323.24c-4.0034 1.8276-7.3106 3.6553-12.532 7.0495-1.8277 1.2184-2.1758 0.95734-1.5666-0.87029 2.1758-7.3106 7.9198-16.188 11.314-16.188 2.1758 0 4.2645 2.785 5.2218 5.4829l-0.95733 1.5666c-1.2184-3.0461-3.0461-5.4829-4.2645-5.4829-2.1758 0-7.3106 7.6587-9.7474 14.012 4.6126-3.0461 7.9198-5.2218 13.403-7.9198z"/>
   <path class="st10" d="m133.55 313.76c-1.5666 0-7.6587 6.4403-11.575 12.184 4.8737-2.1757 9.1382-4.2645 13.403-6.0921l-1.2184 2.1758c-4.0034 1.8276-8.529 4.0034-13.142 5.8311-2.4369 0.95733-2.4369 0.34811-1.2184-1.2184 4.2645-6.4403 11.314-14.36 13.751-14.36 1.8276 0 3.0461 2.4368 4.0034 4.8737l-1.2184 1.2184c-0.95735-2.785-1.5666-4.6126-2.785-4.6126"/>
   <path class="st10" d="m130.85 314.71c1.5666-10.705 1.8276-18.276 1.2184-24.978 0-0.60921 0-0.60921-0.34812-0.87031-8.529-12.532-18.886-28.024-24.369-39.599-1.2184-3.3942-0.60921-3.6553 1.2184-0.60922 5.8311 11.314 16.188 26.805 24.978 39.599 0.34812 0.34812 0.34812 0.34812 0.34812 0.95733 0.95734 8.2679 0 16.797-1.2184 24.108z"/>
   <path class="st10" d="m156.09 236.38c5.8311 11.314 16.188 35.944 17.667 40.556 1.8276 5.483-8.268 40.556-12.184 44.212-2.4369 1.8276-5.2218 2.6979-8.2679 3.3942l1.5666-1.8276c2.1758-0.60923 3.6553-1.4795 5.4829-3.0461 4.0034-3.3942 13.142-37.162 11.314-42.036-1.2184-4.2645-11.923-30.809-17.667-41.775z"/>
   <path class="st10" d="m259.4 260.14c2.4368-0.3481 6.7014-1.5666 9.4863-2.1757 3.6553-1.2184 4.0034-0.34814 0.34814 1.2184-2.785 0.95732-7.0495 1.8277-9.4864 2.1758-2.785 0.34812-2.785-0.87029-0.34811-1.2184"/>
   <path class="st10" d="m267.32 263.8c3.6553-0.60918 11.314-1.8276 14.969-2.785 4.6126-1.2184 4.8737 0.34811 0 1.5666-3.6553 0.60923-11.314 2.1758-14.969 2.4368-3.6553 0.60923-3.9164-0.87029 0-1.2184"/>
  </g>
 </g>
</svg>
