<?xml version="1.0" encoding="UTF-8"?>
<!-- Created with Inkscape (http://www.inkscape.org/) -->
<svg version="1.1" viewBox="0 0 106.33 98.988" xmlns="http://www.w3.org/2000/svg">
 <g stroke-width=".26458">
  <path class="st0" d="m60.475 47.676c-0.97896 2.5929-3.8365 4.5773-6.1913 1.7462-0.37042 0.60855-3.5983 6.1912-4.101 6.0854-0.37042-0.23812 0.97896-4.5773 1.3758-6.3235-0.60854 1.4817-2.4871 6.0854-2.8575 5.8208-0.37042-0.13229 0.60854-4.7096 1.2435-6.5617-2.3548 0.60854-3.5983-0.74084-3.5983-2.7252-1.4817 2.9633-2.5929 6.0854-3.3602 8.8106 0.50271 3.5983 0.50271 8.3079-1.2435 12.515-0.87312 2.2225-5.08 5.3446-8.1756 8.9165l0.23812 0.50271c1.9844-1.614 4.4715-2.5929 7.0644-2.4871 2.8575 0.13229 6.5617 2.3548 8.8106 5.3446-1.7462-4.2069-2.7252-8.8106-1.9844-11.774 0.74083-2.8575 4.8419-6.9321 9.3133-9.7896 2.0902-3.0162 3.0956-6.6146 3.466-10.081" fill="#fffab1"/>
  <path class="st1" d="m45.58 45.93c-0.13229 2.3548 1.1112 4.4715 3.7306 3.9688-0.23812 1.4817-0.74083 5.9531-0.37042 6.0854 0.50271 0 1.614-2.4871 1.614-2.4871 0 0.87312-0.13229 2.4871 0.23812 2.5929 0.37042 0.23813 3.2279-4.4714 3.5983-5.2123 2.1167 1.8521 4.9477 0.97896 6.1912-2.1167l0.37042-0.60855-15.266-2.7252z" fill="#ddd698"/>
  <path class="st2" d="m63.435 37.993c-0.13229 1.8521-3.5983 3.5983-7.4348 3.3602-2.7252-0.23812-5.5827-1.2435-6.4558-3.3602-3.2279 3.7306-6.0854 8.1756-8.1756 11.668h0.23812c0.50271 0.87312 0.97896 2.5929 1.3758 4.8419 0.74083-2.7252 1.8521-5.8208 3.3602-8.8106 0 1.9844 1.2435 3.3602 3.5983 2.7252-0.50271 1.8521-1.614 6.4558-1.2435 6.5617 0.37042 0.23813 2.2225-4.3392 2.8575-5.8208-0.37042 1.7462-1.7462 6.0854-1.3758 6.3235 0.50271 0.13229 3.7306-5.4504 4.101-6.0854 2.3548 2.8575 5.2123 0.87312 6.1913-1.7462-0.37042 3.466-1.3758 7.0644-3.466 10.054 2.9633-1.7462 5.9531-2.9898 8.3079-3.0956-0.13229-3.7042-1.0054-12.515-1.8785-16.616" fill="#674598"/>
  <path class="st3" d="m65.315 54.608c-0.37042-6.1912-1.2435-14.261-1.8521-16.616-0.13229 1.8521-3.5983 3.5983-7.4348 3.3602-2.7252-0.23812-5.5827-1.2435-6.4558-3.3602-0.13229 0.1323-0.23812 0.23813-0.23812 0.23813 1.2435 4.7096 7.0644 5.4504 11.668 4.2069 0.50271-0.13229 0.74084 0.1323 0.74084 0.50271 0.60854 3.9688 1.2435 10.16-0.23813 12.647 1.614-0.50271 4.101-0.37042 5.4504 1.2435z" fill="#5a3985"/>
  <path class="st2" d="m15.338 82.024c-1.2435 3.466 2.8575 13.388 4.8419 13.282 1.8521-0.13229 1.8521-8.9165 1.3758-12.144 2.4871 1.1112 5.3446 1.1112 8.4402 0.13229l-4.736-5.7415z" fill="#674598"/>
  <path class="st3" d="m21.529 83.134c2.4871 1.1112 5.3446 1.1112 8.4402 0.13229l-4.7096-5.715-8.0698 3.5983c-0.13229 3.9688 0.87312 11.536 3.0956 14.129 1.7462-0.47625 1.7462-9.0223 1.2435-12.144" fill="#5a3985"/>
  <path class="st2" d="m41.611 49.661c1.2435 2.3548 2.9633 10.425 0.13229 17.357-1.4817 3.7306-11.774 9.6838-11.536 16.378-12.515-9.4192-6.8263-29.528 11.404-33.734" fill="#674598"/>
  <path class="st3" d="m24.016 66.144c-1.3758 6.3235 0.37042 12.885 6.1913 17.251-0.13229-4.101 3.5983-7.9375 6.9321-11.165-5.08-0.635-13.123-3.0956-13.123-6.0854" fill="#5a3985"/>
  <path class="st2" d="m47.696 67.524c-1.4817 6.1912 4.7096 19.844 9.0488 21.59 9.181 3.8365 17.621-6.9321 17.992-14.261 0.50271-8.8106-6.4558-15.372-9.4192-20.214-6.0854 0.23812-16.51 8.1756-17.621 12.885" fill="#674598"/>
  <path class="st2" d="m47.696 67.524c-1.1112 3.7306 0.87312 8.1756 4.3392 9.6838 4.2069 1.8521 8.9165-0.23812 10.53-4.2069 1.7462-3.7306 0.23813-9.181-4.4715-10.795-4.2069-1.5081-9.0488 0.60854-10.398 5.3181" fill="#674598"/>
  <path class="st3" d="m47.458 70.114c0 4.2069 2.9633 6.4558 4.5773 7.0644 4.5773 1.9844 10.16-0.74084 11.165-6.1912-2.3548 3.3602-12.779 2.9898-15.743-0.87313" fill="#5a3985"/>
  <path class="st2" d="m56.745 89.084c-2.3548-0.87312-5.08-5.08-7.0644-9.7896-2.2225-2.9633-5.9531-5.2123-8.8106-5.3446-6.1912-0.23813-11.536 5.4504-10.663 10.795 0.97896 6.4558 10.16 10.16 16.854 10.16 6.8262 0 11.668-2.1167 14.129-5.08-1.3494 0.13229-2.9633 0.0265-4.445-0.74084" fill="#674598"/>
  <path class="st3" d="m56.745 89.084c-1.7462-0.60854-3.7306-3.2279-5.4504-6.4558-2.4871-2.2225-5.9531-4.3392-9.9219-5.2123-4.3392-0.74083-8.0698 0.74083-10.53 2.9898-0.60854 1.3758-0.87312 2.8575-0.60854 4.3392 0.97896 6.4558 10.16 10.16 16.854 10.16 6.8262 0 11.668-2.1167 14.129-5.08-1.3758 0.13229-2.9898 0.0265-4.4715-0.74084" fill="#5a3985"/>
  <path class="st4" d="m58.121 39.871c1.614 0.60854 1.9844 2.7252 1.3758 5.08-0.50271 2.1167-2.2225 4.2069-4.2069 3.7306-1.7462-0.37042-2.7252-2.5929-1.614-5.5827 0.84667-2.1167 2.6988-3.7306 4.445-3.2279" fill="#fff"/>
  <path class="st5" d="m59.735 42.834c0-1.4817-0.50271-2.5929-1.614-2.9633-1.614-0.50271-3.3602 0.87312-4.2069 2.7252 1.8521 0.47625 3.9423 0.47625 5.8208 0.23813" fill="#d2d3d4"/>
  <path class="st4" d="m49.178 46.936c-1.2435-0.60854-1.4817-2.4871-0.37042-4.9477 1.1112-2.7252 2.5929-4.101 3.9688-3.5983 1.3758 0.50271 1.614 2.1167 0.60854 5.08-0.84667 2.5929-2.831 4.2069-4.2069 3.466" fill="#fff"/>
  <path class="st6" d="m52.776 38.363c-1.2435-0.50271-2.7252 0.74083-3.7306 3.0956 0.87312 2.2225 2.4871 2.5929 4.3392 1.9844 1.0054-2.9633 0.76729-4.5773-0.60854-5.08" fill="#0cb9df"/>
  <path class="st7" d="m52.776 38.363c-0.87312-0.37042-1.9844 0.23813-2.8575 1.4817 0.87312 1.3758 2.2225 2.2225 3.7306 2.7252 0.60854-2.3283 0.37042-3.8365-0.87312-4.2069" fill="#07a1c2"/>
  <path class="st0" d="m66.425 5.766-0.37042-0.23812c-1.2435 0.74083-2.5929 2.2225-3.9688 4.101 0 0 0.50271-2.9898 1.1112-4.7096l-0.23812-0.13229c-7.5671 5.4504-14.764 21.696-13.758 32.12 0.37042 2.7252 3.5983 4.2069 6.8262 4.4715 3.9688 0.23813 7.4348-1.4817 7.4348-3.466-0.0265-3.1485-3.4925-9.3398 2.9633-32.147" fill="#fffab1"/>
  <path class="st6" d="m20.153 95.304c0.87312-0.13229 1.3758-2.4871 1.614-5.2123-0.50271 0.97896-1.1112 1.7462-1.614 1.8521-1.2435 0.1323-3.0956-1.7462-4.2069-3.5983 1.1112 3.5983 3.0956 7.0644 4.2069 6.9585" fill="#0cb9df"/>
  <path class="st1" d="m16.317 81.914c1.614 1.7462 4.101 2.3548 5.3446 1.3758l-3.5983-2.4871z" fill="#ddd698"/>
  <path class="st2" d="m70.025 84.504-1.4817 2.1167c1.2435 0.50271 2.8575 0.74083 4.4715 0.74083-1.4817 1.8521-3.8365 7.1967-2.4871 8.1756 1.4817 1.1112 8.3079-4.9477 10.292-9.7896z" fill="#674598"/>
  <path class="st3" d="m70.505 95.544c1.4817 1.1112 8.3079-4.9477 10.292-9.7896l-10.795-1.2435-1.4817 2.1167c2.1167 0.87312 4.5773 0.87312 6.1912 0.60854-0.60854 0.50271-3.7042 5.5827-4.2069 8.3079" fill="#5a3985"/>
  <path class="st6" d="m70.505 95.544c0.97896 0.74083 3.9688-1.3758 6.5617-4.2069-1.7462 1.2435-3.5983 1.9844-4.8419 1.4817-0.60855-0.23813-1.1112-1.1112-0.97896-2.3548-0.97896 2.1167-1.5875 4.4715-0.74084 5.08" fill="#0cb9df"/>
  <path class="st2" d="m28.593 63.424c1.4817-4.8419 6.1912-7.329 10.292-5.9531 3.5983 1.2435 4.8419 5.4504 3.466 9.181-1.7462 4.5773-5.9531 7.1967-10.16 5.715-3.7306-1.3758-4.5773-5.5827-3.5983-8.9429" fill="#674598"/>
  <path class="st7" d="m31.08 79.664c-0.50271 0.87312-0.74083 1.8521-0.87312 2.8575 3.3602 7.5671 17.251 8.9165 23.072 3.3602-0.50271-0.74084-1.1112-1.4817-1.614-2.3548-3.9688 6.3236-19.103 3.7042-20.585-3.8629" fill="#07a1c2"/>
  <path class="st7" d="m57.989 89.584c-0.37042-0.13229-0.87312-0.23812-1.2435-0.50271-0.23812 0-0.50271-0.13229-0.74083-0.37041-2.1167 3.7306-12.885 7.4348-22.701 1.3758 2.9633 2.5929 7.4348 4.3392 11.536 4.7096 6.4558 0.23813 11.298-1.1112 13.15-5.2123" fill="#07a1c2"/>
  <path class="st3" d="m42.352 66.644c-3.466 3.0956-11.906 3.0956-14.023-1.8521-0.50271 2.9633 0.60854 6.4558 3.8365 7.5671 4.2333 1.4817 8.4667-1.1377 10.186-5.715" fill="#5a3985"/>
  <path class="st7" d="m77.095 91.334c-1.7462 1.2435-3.5983 1.9844-4.8419 1.4817-0.13229 0-0.37041-0.23813-0.5027-0.50271-0.60855 1.2435-0.97896 2.3548-1.2436 3.2279 1.0054 0.74083 3.9688-1.3494 6.5881-4.2069" fill="#07a1c2"/>
 </g>
 <g fill="#ddd698" stroke-width=".26458">
  <path class="st1" d="m66.425 5.766h-0.13229c-2.7252 3.9688-8.3079 20.823-5.08 34.713 1.3758-0.74084 2.2225-1.614 2.2225-2.5929 0-3.1221-3.466-9.3133 2.9898-32.12"/>
  <path class="st1" d="m54.893 34.394c-0.37042-7.8052 3.3602-19.606 7.4348-25.188 0-0.97896 0.50271-3.0956 0.87312-4.3392h-0.13229c-5.8208 7.8317-11.165 22.701-8.1756 29.528"/>
  <path class="st1" d="m37.404 71.994c-1.2435 1.2435-2.5929 2.5929-3.8365 3.9688l0.23812 0.50271c1.9844-1.614 4.4715-2.5929 7.0644-2.4871 2.8575 0.13229 6.5617 2.3548 8.8106 5.3446-0.74083-1.9844-1.3758-3.9688-1.7462-5.8208-3.2279 0.34396-7.8052-0.39688-10.53-1.5081"/>
 </g>
 <path class="st3" d="m47.829 72.834c0.97896 7.0644 6.1912 15.266 8.9165 16.245 9.181 3.8365 18.097-7.329 18.097-16.378-0.87312 2.3548-8.0698 2.8575-13.388 2.1167-5.08 1.614-11.404 0-13.626-1.9844" fill="#5a3985" stroke-width=".26458"/>
 <path class="st7" d="m20.153 91.944c-0.50271 0-1.1112-0.23812-1.7462-0.74083 0.50271 1.7462 1.1112 3.2279 1.8521 4.101 0.87312-0.23812 1.2435-2.8575 1.4817-5.2123-0.44979 0.97896-1.0848 1.7462-1.5875 1.8521" fill="#07a1c2" stroke-width=".26458"/>
 <g fill="#0f141b" stroke-width=".26458">
  <path class="st8" d="m28.964 63.554c-1.3758 4.2069 0.74083 7.5671 3.3602 8.546 3.5983 1.2435 7.9375-0.87313 9.6838-5.5827 1.3758-3.7306 0.13229-7.5671-3.2279-8.6783-3.7306-1.3494-8.3344 0.87313-9.816 5.715m3.0956 9.181c-2.8575-1.1112-5.3446-4.7096-3.8365-9.4192 1.614-5.3446 6.9321-7.4348 10.795-6.0854 3.2279 1.1112 5.2123 5.2123 3.5983 9.5515-1.7462 4.9477-6.3235 7.4348-10.557 5.9531"/>
  <path class="st8" d="m47.934 67.624c-0.97896 3.5983 0.87312 7.9375 4.2069 9.3133 4.2069 1.7462 8.4402-0.50271 10.054-4.101 1.4817-3.3602 0.60854-8.6783-4.101-10.425-3.9423-1.3494-8.7842 0.635-10.16 5.2123m3.9688 9.9219c-3.5983-1.614-5.715-6.1912-4.5773-10.16 1.4817-4.7096 6.4558-7.0644 10.901-5.4504 5.08 1.7462 6.3235 7.6994 4.8419 11.165-1.9844 4.3392-6.9321 6.1912-11.165 4.445"/>
  <path class="st8" d="m65.795 5.264c-5.4504 3.0956-11.906 18.6-11.165 28.019 0.13229 1.9844 0.50271 1.8521 0.37042 0-0.37042-8.8106 5.9531-24.315 11.033-27.411-6.4558 20.955-2.9633 30.004-2.9633 32.253 0 1.4817-2.9633 3.0956-7.0644 2.8575-2.8575-0.23813-6.0854-1.3758-6.4558-4.2069-0.97896-9.7896 5.8208-25.797 13.282-31.618-0.50271 1.1112-0.87313 2.7252-0.97896 4.5773l1.1112-1.3758c0.13229-1.2435 0.23812-2.3548 0.60854-3.2279 0.23813-0.87312-0.23812-1.1112-0.97896-0.60854-7.6994 5.8208-15.002 22.437-13.758 32.359 0.37042 3.2279 4.101 4.5773 7.1967 4.8419 5.08 0.37042 8.0698-2.2225 7.8052-3.7306-1.4817-8.3079-0.97895-18.838 2.9633-32.12 0.23812-0.74084 0-1.2435-1.0054-0.60854"/>
  <path class="st8" d="m59.735 41.088-0.60854 0.13229c0.37042 0.87313 0.50271 2.1167 0.13229 3.5983-0.50271 1.9844-2.2225 3.9688-3.8365 3.5983-1.7462-0.37042-2.2225-2.8575-1.3758-5.2123 0.37042-0.74084 0.60854-1.3758 1.1112-1.8521l-0.74083-0.13229c-0.37042 0.37042-0.74083 1.1112-0.97896 1.7462-1.1112 2.9633-0.37042 5.5827 1.8521 6.0854 1.8521 0.37041 3.8365-1.2435 4.5773-4.101 0.34396-1.5081 0.34396-2.8575-0.13229-3.8629"/>
  <path class="st8" d="m56.507 44.316c-0.13229 0.23812-0.13229 0.5027 0 0.60854 0.13229 0 0.23812-0.13229 0.23812-0.37042 0.13229-0.37042 0-0.50271 0-0.60854-0.13229 0-0.23812 0.13229-0.23812 0.37042m0.37042-0.87313c0.23812 0 0.37042 0.50271 0.23812 1.1112-0.23812 0.60854-0.50271 0.97896-0.74083 0.87313-0.37042 0-0.37042-0.60855-0.23812-1.1112 0.23812-0.60855 0.47625-0.97896 0.74083-0.87313"/>
  <path class="st8" d="m53.147 43.337c-0.74083 2.2225-2.5929 3.9688-3.8365 3.3602-1.1112-0.50271-1.1112-2.2225-0.23812-4.5773 0.50271-1.1112 0.97896-1.8521 1.4817-2.4871l-0.37042-0.50271c-0.60854 0.60854-1.2435 1.614-1.7462 2.7252-1.1112 2.7252-0.87312 4.7096 0.74083 5.4504 1.3758 0.60854 3.5983-0.74084 4.5773-3.8365 0.23812-0.87313 0.50271-1.614 0.50271-2.2225l-0.60854-0.23813c-0.13229 0.84667-0.37042 1.5875-0.50271 2.3283"/>
  <path class="st8" d="m49.31 41.221-0.37042 0.87313c0.60854 1.614 2.3548 2.3548 4.2069 1.7462l0.23812-0.60855c-1.8521 0.71438-3.8365-0.39687-4.0746-2.0108"/>
  <path class="st8" d="m50.66 43.443c-0.13229 0.13229-0.13229 0.13229-0.13229 0.23813-0.13229 0.37041-0.13229 0.74083 0.13229 0.87312 0.13229 0.13229 0.50271-0.23812 0.74083-0.60854v-0.23813z"/>
  <path class="st8" d="m41.875 49.528c0-0.23813-0.13229-0.23813-0.37042-0.23813-9.3133 2.2225-16.378 8.6783-18.098 17.119-1.3758 6.694 1.1112 13.15 6.4558 17.119v-0.87312c-4.8419-3.8365-6.8263-9.9219-5.4504-16.113 1.614-8.0698 8.0698-14.393 17.119-16.484 0.74083 1.7462 1.9844 6.3236 1.2435 11.536l0.37042 2.8575c1.3229-6.1119-0.05292-12.674-1.27-14.923"/>
  <path class="st8" d="m37.774 72.234-1.614 0.50271c-2.2225 2.2225-4.5773 4.5773-5.715 7.329l1.1112-0.74083c1.3758-2.6194 4.101-4.9742 6.2177-7.0908"/>
  <path class="st8" d="m65.185 54.979c-5.715 0.23813-15.875 8.0698-17.119 12.647-1.4817 6.0854 4.5773 19.473 8.8106 21.22 8.4402 3.466 16.986-6.694 17.357-14.023 0.50271-8.3079-5.8208-14.737-9.0488-19.844m-8.5725 34.475c-4.4715-1.8521-10.901-15.505-9.3133-22.066 1.1112-4.7096 11.668-12.885 17.992-13.018 0.13229 0 0.23813 0 0.37042 0.13229 2.2225 3.7306 10.054 11.298 9.5515 20.346-0.37042 7.3025-8.7842 18.706-18.6 14.605"/>
  <path class="st8" d="m49.681 38.495-0.37042-0.74083c-3.3602 3.9688-5.8208 7.6994-8.3079 11.906l0.74083 0.37042c2.3548-4.3392 4.4715-7.6994 7.9375-11.536"/>
  <path class="st8" d="m50.183 38.866c-3.9688 5.08-6.0854 10.663-7.1967 14.499l0.23812 1.614c1.3758-4.8419 3.0956-10.054 7.4348-15.637z"/>
  <path class="st8" d="m60.345 40.982-0.60854 0.23812c1.1112 4.8419 0.60854 10.795-3.2279 16.748l1.4817-0.87313c2.9633-5.08 3.3602-11.404 2.3548-16.113"/>
  <path class="st8" d="m63.705 37.49-0.37041 1.3758c0.74083 4.3392 1.3758 12.039 1.614 15.637l0.87313 0.50271c-0.13229-3.7306-1.27-13.547-2.1167-17.515"/>
  <path class="st8" d="m54.523 49.29c-0.23812-0.23812-0.37042-0.23812-0.50271 0.13229-0.50271 0.87313-2.5929 4.3392-3.5983 5.4504 0.13229-0.87312 1.2435-5.08 1.3758-5.5827 0.23812-0.87312 0-0.97896-0.50271-0.13229-0.13229 0.23813-1.8521 4.3392-2.3548 5.2123 0.13229-1.2435 0.74083-4.101 1.2435-5.8208 0.13229-0.50271 0.13229-0.50271-0.37042-0.37042-2.2225 0.50271-3.466-0.97896-3.0956-2.8575l-0.60854 0.97896c0.23812 1.9844 1.4817 2.7252 3.466 2.4871-0.50271 1.8521-1.4817 6.3236-0.97896 6.5617 0.23812 0.13229 0.87312-0.50271 1.614-2.1167-0.37042 1.4817-0.23812 2.3548-0.13229 2.4871 0.60854 0.23812 3.0956-3.8365 4.2069-5.8208 1.7462 1.7462 4.4715 1.8521 5.9531-1.2435l0.13229-1.4817c-0.89958 3.2279-3.8629 4.4714-5.8473 2.1167"/>
  <path class="st8" d="m43.728 52.386-0.13229 0.60854c1.3758-0.50271 3.2279-0.50271 5.08-0.13229l0.13229-0.60854c-1.8521-0.37042-3.5983-0.23813-5.08 0.13229"/>
  <path class="st8" d="m52.168 53.127-0.37042 0.50271c2.3548 0.87312 4.4715 1.9844 5.4504 3.3602l0.37042-0.50271c-1.1112-1.3758-3.0956-2.6194-5.4504-3.3602"/>
  <path class="st8" d="m43.357 59.314v0.60854c2.5929-0.74083 5.8208 0.13229 7.9375 2.2225l0.23812-0.50271c-2.3548-2.3283-5.2123-3.0692-8.1756-2.3283"/>
  <path class="st8" d="m42.114 67.524-0.37042 0.60855c1.7462-0.37042 4.4715 0.13229 5.5827 1.2435v-0.74084c-1.3758-1.1112-3.466-1.3758-5.2123-1.1112"/>
  <path class="st8" d="m61.715 90.094h-1.1377c-2.7252 2.8575-7.5671 4.5773-13.52 4.5773-7.0644 0-15.505-4.101-16.484-9.9219-0.87312-5.2123 4.4715-10.663 10.292-10.425 2.7252 0.13229 6.9321 2.5929 9.0488 5.8208l-0.87312-2.1167c-2.3548-2.5929-5.715-4.3392-8.0698-4.3392-6.5617-0.37042-12.144 5.4504-11.298 11.165 0.87312 5.3446 8.4402 10.425 17.357 10.425 8.2285 0.0265 12.7-2.9633 14.684-5.1858"/>
  <path class="st8" d="m31.319 79.424-0.37042 0.87313c2.4871 7.6994 16.748 9.3133 20.823 3.5983l-0.23812-0.60854c-4.0746 5.5562-18.23 3.9423-20.214-3.8629"/>
  <path class="st8" d="m30.34 82.154-0.13229 1.2435c3.9688 6.9321 17.357 8.3079 23.204 2.8575l-0.37042-0.60854c-5.715 5.5562-19.606 3.9423-22.701-3.4925"/>
  <path class="st8" d="m55.766 88.714c-2.1167 3.0956-12.409 7.329-22.807 0.87312l2.5929 1.9844c8.9165 4.3392 18.6 0.87312 20.717-2.4871z"/>
  <path class="st8" d="m58.227 89.854-0.60854-0.23813c-1.9844 3.8365-6.8262 5.4504-15.134 4.8419l3.9688 0.60854c6.0854-0.0265 10.16-1.7462 11.774-5.2123"/>
  <path class="st8" d="m19.545 81.644-0.74083 0.23813c3.8365 2.9633 7.5671 2.8575 11.404 1.614l-0.60854-0.37042c-3.7306 1.0054-7.4613 0.37042-10.054-1.4817"/>
  <path class="st8" d="m25.736 79.164-0.74083 0.37042c0.60854 0.23812 1.2435 0.5027 1.7463 0.74083l-0.60854-0.97896c-0.13229-0.13229-0.26458-0.13229-0.39688-0.13229"/>
  <path class="st8" d="m21.899 83.394-0.87312-0.37041c0.74083 3.9688 0.50271 11.906-0.87312 12.039-1.614 0-5.2123-8.6783-4.5773-12.277l-0.87312 0.23813c-0.37042 4.3392 3.5983 12.779 5.4504 12.647 2.249-0.26458 2.1167-9.6838 1.7462-12.277"/>
  <path class="st8" d="m20.153 91.574c-1.2435 0.13229-3.2279-1.8521-4.2069-3.7306l0.50271 1.7462c1.4817 1.9844 2.9633 2.7252 3.7306 2.5929 0.50271 0 1.1112-0.60854 1.3758-1.2435l0.13229-1.3758c-0.39688 1.4023-1.0319 2.0108-1.5346 2.0108"/>
  <path class="st8" d="m21.397 83.024c-0.97896 0.74083-2.7252 0.5027-4.101-0.60855l-0.74083 0.1323c1.7462 1.7462 3.9688 1.7462 4.9477 1.2435z"/>
  <path class="st8" d="m69.025 86.354-0.60854 0.60854c3.2279 1.2435 7.329 0.74083 9.0488-0.50271h-1.2436c-1.7462 0.635-4.4714 0.76729-7.1967-0.10583"/>
  <path class="st8" d="m70.765 95.304c-0.97896-0.74083 0.97896-5.5827 2.5929-7.8052h-0.97895c-2.3548 3.7306-3.0956 7.5671-1.9844 8.3079 1.4817 1.2435 7.6994-4.101 10.16-8.6783l-0.37042-0.97896c-1.9844 4.1804-8.3079 10.028-9.4192 9.1546"/>
  <path class="st8" d="m72.385 92.574c-0.60855-0.23812-0.97896-1.3758-0.74084-2.7252l-0.60854 1.614c0.13229 0.87313 0.60854 1.4817 1.1112 1.7462 0.97896 0.37042 2.4871 0 3.466-0.60854l1.9844-2.2225c-1.7462 1.6933-3.9688 2.6723-5.2123 2.196"/>
 </g>
 <g stroke-width=".26458">
  <path class="st0" d="m17.693 59.584c5.8208-0.37041 18.098 2.3548 17.727 5.5827-0.37042 2.2225-17.119 1.4817-24.315-1.614 3.0956 0.23813 5.715-2.3548 6.5881-3.9688" fill="#fffab1"/>
  <path class="st1" d="m35.42 65.164c-4.9477 0.60854-16.986-1.7462-19.473-3.466-1.2435 1.1112-2.9633 1.9844-4.8419 1.8521 7.1967 3.0956 23.945 3.8365 24.315 1.614" fill="#ddd698"/>
  <path class="st0" d="m76.455 58.714c-5.715 0.60854-20.823 7.4348-19.606 10.901 0.74083 2.4871 19.711-2.9633 26.035-7.329-3.2014 0.0265-5.2917-2.0902-6.4294-3.5719" fill="#fffab1"/>
  <path class="st2" d="m1.553 45.93c0-0.13229 0-0.13229-0.13229-0.23812-1.2435 9.4192 4.2069 17.357 9.4192 17.859 5.08 0.37042 9.3133-5.715 9.0488-11.165-0.97896 0-15.478-0.60854-18.336-6.4558" fill="#674598"/>
  <path class="st3" d="m17.798 52.889-1.4817-0.74084c-3.7306-0.50271-9.3133-1.4817-12.515-3.8365 0 5.2123 1.7462 13.653 5.9531 15.002 0.37042 0.13229 0.74083 0.13229 1.1112 0.23812 3.8365 0.10584 6.694-6.8263 6.9321-10.663" fill="#5a3985"/>
  <path class="st2" d="m73.365 43.205c-1.8521 8.4402 1.9844 17.727 8.1756 18.971 7.8052 1.4817 13.652-6.9321 15.372-13.653-2.3283 1.8785-22.304-3.5719-23.548-5.3181" fill="#674598"/>
  <path class="st3" d="m76.455 44.819-0.97896-0.13229c-1.2435 7.6994 1.1112 15.505 5.5827 17.357 0.13229 0 0.37042 0.13229 0.50271 0.13229 0.87312 0.13229 1.614 0.23813 2.3548 0.13229 4.5773-0.97896 9.181-8.6783 10.901-13.388-4.2069 0-13.388-2.3548-18.362-4.101" fill="#5a3985"/>
  <path class="st6" d="m16.819 53.868c6.5617 1.614 16.616-2.8575 21.696-7.8052 1.614-1.4817 2.5929-3.466 2.9633-5.3446l0.37042-0.23812c3.0956-5.9531 3.2279-11.536 0.23812-16.616-4.5773-8.1756-18.098-8.6783-27.781-3.466-12.144 6.4558-16.113 18.732-12.779 25.559 2.8575 5.8208 9.9219 8.4402 13.891 7.6994z" fill="#0cb9df"/>
  <path class="st6" d="m80.055 49.026c2.3548 1.614 5.2123 2.3548 8.3079 2.3548 12.885 0 17.489-15.134 17.489-27.411 0-9.6838-6.694-24.553-20.717-23.574-7.6994 0.50271-15.637 6.3235-16.484 14.764l-0.37042 1.4817c-0.60854 1.614-0.97895 3.8365-0.97895 6.8262 0 9.3133 3.8364 19.473 10.425 24.051z" fill="#0cb9df"/>
  <path class="st2" d="m4.913 78.924c-3.9688 4.2069-4.101 17.859-2.9633 18.362 1.4817 0.87312 8.546-12.409 8.1756-14.023-0.635-2.9633-4.4715-5.2123-5.2123-4.3392" fill="#674598"/>
  <path class="st3" d="m10.125 83.264c-0.23812-1.1112-0.87312-2.1167-1.7462-2.8575-0.60854 3.5983-4.7096 14.87-6.5617 16.854h0.13229c1.4817 0.89958 8.546-12.382 8.1756-13.996" fill="#5a3985"/>
  <path class="st2" d="m28.964 75.694c-0.50271-2.1167-17.489-0.97896-21.696 1.4817 0.74083-0.23813 1.614-0.1323 2.2225 0.5027 1.1112 0.87313 1.3758 3.9688 0.97896 5.4504 5.3446 0.635 19.235-4.5773 18.494-7.4348" fill="#674598"/>
  <path class="st0" d="m9.49 77.684c-1.3758-1.3758-3.7306-0.23812-4.2069 0.97896 1.2435-0.13229 4.3392 1.8521 4.8419 4.5773v0.13229l0.23812 0.1323c0.60854-1.1112 0.37042-4.8154-0.87312-5.8208" fill="#fffab1"/>
  <path class="st6" d="m3.299 85.244c-0.37042-0.1323-0.87312 0.5027-1.3758 1.1112-0.87312 5.08-0.74083 10.53 0 10.901 0.60854 0.37042 2.3548-1.9844 4.101-4.8419 0.50271-4.445-1.614-7.0379-2.7252-7.1702" fill="#0cb9df"/>
  <path class="st2" d="m83.915 80.164h0.23812c-6.3235-2.3548-26.776-0.97896-27.04 1.7462-0.23812 2.7252 20.823 5.08 22.701 4.2069-1.2435-3.466 1.9844-6.4558 4.101-5.9531" fill="#674598"/>
  <path class="st0" d="m80.315 85.754c0-1.8521 3.2279-4.7096 5.08-4.101-0.1323-0.97896-0.74084-1.3758-1.4817-1.4817-2.1167-0.50271-5.715 2.8575-3.8365 6.4558l0.37042-0.23813c-0.13229-0.26458-0.13229-0.39687-0.13229-0.635" fill="#fffab1"/>
  <path class="st2" d="m80.315 85.754c0-2.1167 4.2069-5.4504 5.8208-3.7306 1.7462 1.9844 4.9477 15.743 3.3602 16.616-1.9844 1.0054-9.181-10.769-9.181-12.885" fill="#674598"/>
  <path class="st3" d="m89.365 98.634c-2.4871-2.1167-7.0644-11.668-8.1756-14.87-0.60854 0.74083-0.87312 1.3758-0.87312 1.9844 0 2.1167 6.9321 13.388 9.0488 12.885" fill="#5a3985"/>
  <path class="st6" d="m86.745 86.994c-0.74083 0.23812-2.8575 3.5983-2.8575 6.0854 2.1167 3.2279 4.5773 6.0854 5.5827 5.5827 0.97896-0.50271 0.23812-5.4504-0.87313-9.9219-0.60854-1.1377-1.3494-1.8786-1.8521-1.7462" fill="#0cb9df"/>
  <path class="st3" d="m79.815 86.124c-0.23813-0.87312-0.37042-1.9844 0-3.2279-3.7306 0.74084-11.906 0.1323-15.743-0.87312-1.7462-0.50271-2.8575-1.8521-0.37042-2.2225-1.4817 0-6.4558 0.87312-6.5617 2.1167-0.26458 2.7252 20.823 5.08 22.675 4.2069" fill="#5a3985"/>
  <path class="st1" d="m79.815 83.024c-0.37042 1.1112-0.37042 2.3548 0.23812 3.5983l0.37042-0.23813c-0.13229-0.23812-0.13229-0.37041-0.13229-0.60854 0-0.60854 0.37041-1.4817 0.97896-2.1167-0.58209-0.15875-1.0848-0.39688-1.4552-0.635" fill="#ddd698"/>
 </g>
 <g fill="#07a1c2" stroke-width=".26458">
  <path class="st7" d="m89.365 98.634c-1.3758-1.1112-3.3602-4.4715-4.9477-7.8052-0.23813 0.74084-0.50271 1.4817-0.50271 2.2225 1.9844 2.9898 4.2069 5.715 5.4504 5.5827z"/>
  <path class="st7" d="m105.74 22.382c-1.4817 10.425-8.1756 17.119-16.245 18.098-12.039 1.3758-19.473-4.8419-22.066-14.87 0.50271 8.6783 4.2069 17.727 10.292 21.96l2.3548 1.4817c2.3548 1.614 5.2123 2.3548 8.3079 2.3548 12.885 0 17.489-15.134 17.489-27.411-0.0265-0.50271-0.0265-1.1377-0.1323-1.614"/>
  <path class="st7" d="m38.515 46.062c1.614-1.4817 2.5929-3.466 2.9633-5.3446l0.37042-0.23812c1.7462-3.3602 2.4871-6.694 2.3548-9.7896-2.4871 5.8208-8.8106 11.536-18.362 14.129-12.409 3.466-23.204-2.7252-23.945-11.298-1.8521 4.4714-1.9844 9.0488-0.37042 12.409 2.8575 5.8208 9.9219 8.4402 13.891 7.6994l1.3758 0.23812c6.5881 1.614 16.642-2.8575 21.722-7.8052"/>
 </g>
 <g stroke-width=".26458">
  <path class="st1" d="m56.877 69.504c0.60854 2.9633 19.976-2.9898 26.035-7.1967-1.4817 0-3.2279-0.50271-4.3392-1.2435-5.08 3.3602-18.23 9.181-21.696 8.4402" fill="#ddd698"/>
  <path class="st3" d="m28.964 75.694c-0.13229-0.60854-1.8521-0.97896-4.3392-1.1112 3.7306 2.7252-9.7896 5.2123-14.129 4.9477 0.23812 1.2435 0.23812 2.7252 0 3.5983 5.3181 0.635 19.209-4.5773 18.468-7.4348" fill="#5a3985"/>
  <path class="st1" d="m8.141 80.034c1.9844 2.1167 2.2225 3.466 2.2225 3.466 0.23812-0.74084 0.37042-2.4871 0.13229-3.9688-0.635 0.5027-1.614 0.635-2.3548 0.5027" fill="#ddd698"/>
  <path class="st7" d="m5.786 88.714c-1.3758 3.8365-2.9633 7.4348-3.9688 8.546h0.13229c0.60854 0.37042 2.3548-1.9844 4.101-4.8419 0.10583-1.4552-0.02646-2.5664-0.26458-3.7042" fill="#07a1c2"/>
 </g>
 <g fill="#aedef0" stroke-width=".26458">
  <path class="st9" d="m27.72 19.763c0.50271 0.74084-0.37042 1.9844-2.5929 2.5929-1.9844 0.60854-4.2069 0.60854-4.5773-0.50271-0.37042-0.97896 0.97896-1.9844 2.8575-2.5929 2.0902-0.47625 3.8365-0.23812 4.3127 0.50271"/>
  <path class="st9" d="m90.615 8.121c-1.2435 0.60854-2.8575-0.60855-3.8365-2.1167-0.97896-1.3758-1.3758-2.9898-0.23813-3.466 1.3758-0.37042 3.2279 0.74083 4.2069 2.2225 0.84667 1.3758 1.1112 2.8575-0.13229 3.3602"/>
  <path class="st9" d="m71.005 13.942c3.5983-0.74083 6.1912 3.9688 6.694 8.0698 0.13229 1.7462 0.87313 1.4817 0.74083-0.13229-0.23812-4.7096-3.8364-9.9219-7.4348-7.9375"/>
  <path class="st9" d="m37.404 33.415c-2.5929-0.74083-5.715 0.74084-7.4348 2.8575-0.74083 0.97896 0.23812 1.3758 0.60854 0.74084 1.1112-1.8786 3.9688-3.7306 6.8262-3.5983"/>
 </g>
 <g fill="#0f141b" stroke-width=".26458">
  <path class="st8" d="m42.616 23.599c-4.8419-8.546-18.732-8.8106-28.522-3.5983-13.15 7.0644-16.245 19.473-12.779 26.3 2.9633 5.8208 10.16 8.4402 14.261 7.6994 4.9477-0.74084 9.3133-6.8262 11.165-13.018 1.8521-5.715 6.0854-8.9165 10.53-8.0698 4.7096 0.87313 5.715 8.3079 0.87312 12.885-4.3392 4.2069-14.261 9.4192-21.696 7.6994l-1.1112 0.37041c6.8262 2.3548 17.727-1.9844 23.442-7.4348 4.9477-4.7096 4.4715-13.15-1.3758-14.261-5.08-0.97896-9.5515 2.7252-11.404 8.546-2.3548 7.1967-6.4558 11.906-10.663 12.515-4.3392 0.74084-10.53-2.2225-13.282-7.4348-3.8365-7.5671 1.8521-19.473 12.409-25.056 9.181-4.8419 22.701-4.9477 27.279 3.2279 2.7252 4.9477 2.5929 10.795 0.23812 15.372l-0.50271 2.4871c3.9952-6.3235 4.2333-12.753 1.1377-18.23"/>
  <path class="st8" d="m19.306 54.37c-0.74083 4.4715-4.101 9.181-8.4402 8.8106-4.3392-0.37042-9.9219-7.1967-9.0488-16.378l-0.74083-1.8521c-1.4817 9.4192 3.8365 18.362 9.7896 18.838 5.2123 0.50271 8.6783-4.8419 9.4192-9.4192z"/>
  <path class="st8" d="m18.169 59.214-0.50271 0.87312c6.4558-0.60854 17.727 2.3548 17.357 5.08-0.13229 1.3758-14.129 1.614-22.807-1.614l-1.7462 0.1323c7.329 3.466 24.791 4.101 25.188 1.4817 0.635-3.0956-10.53-6.0854-17.489-5.9531"/>
  <path class="st8" d="m85.135 0.051c-8.9165 0.60855-16.748 7.329-17.251 16.616l1.2435-2.1167c1.2435-7.8052 8.6783-13.282 16.007-13.758 13.52-0.97896 20.082 13.388 20.082 23.072 0 14.023-5.4504 27.173-16.854 27.279-7.0644 0-11.668-4.5773-12.039-9.7896-0.50271-8.6783 3.9688-11.906 3.9688-17.727 0-6.1912-4.101-11.404-7.5671-11.404-2.5929 0-5.08 2.8575-5.715 7.5671-1.2435 10.901 3.2279 25.056 13.15 29.633l-1.9844-1.8521c-7.329-4.8419-11.404-17.251-10.16-27.781 0.50271-3.7306 2.3548-6.8262 4.7096-6.8262 2.9633-0.13229 6.694 5.08 6.694 10.663s-4.5773 8.8106-3.9688 17.859c0.50271 6.1912 5.715 10.292 12.885 10.292 13.52 0 17.992-15.743 17.992-27.914 0.0265-10.927-7.4083-24.818-21.193-23.812"/>
  <path class="st8" d="m96.195 49.29c-1.9844 6.8262-7.9375 13.891-14.499 12.515-5.8208-1.1112-9.5515-9.9219-7.9375-17.859l-0.74083-0.97896c-1.9844 8.3079 1.8521 18.23 8.546 19.606 7.8052 1.4817 14.023-6.5617 15.875-14.129z"/>
  <path class="st8" d="m57.115 69.504c-0.97896-3.2279 13.15-9.6838 19.341-10.425l-0.50271-0.74084c-5.2123 0.60854-20.717 7.4348-19.473 11.404 0.97896 2.8575 20.214-2.5929 26.908-7.1967l-1.4817-0.13229c-6.4294 4.101-24.051 9.0752-24.791 7.0908"/>
  <path class="st8" d="m5.151 79.294c-3.7306 3.9688-4.101 17.251-3.0956 17.727 1.1112 0.60855 7.9375-12.277 7.6994-13.652-0.635-2.6988-3.9688-4.8154-4.6038-4.0746m-3.466 18.23c-1.2435-0.60854-0.87313-14.87 2.9633-18.971 0.87312-0.97896 5.2123 1.4817 5.9531 4.5773 0.37042 1.7462-6.9321 15.505-8.9165 14.393"/>
  <path class="st8" d="m29.334 75.564c-0.60854-2.4871-18.971-1.2435-22.939 1.614l2.1167-0.23813c5.9531-2.1167 19.711-2.7252 20.082-1.1112 0.60854 2.4871-12.409 7.4348-17.859 6.9321l-0.23812 0.74084c5.6885 0.635 19.473-4.8154 18.838-7.9375"/>
  <path class="st8" d="m9.755 77.314c-1.3758-1.2435-4.101-0.23813-4.8419 1.2435h0.74083c0.87312-1.1112 2.4871-1.614 3.5983-0.60854 0.87312 0.74083 1.2435 3.3602 0.97896 4.8419l0.23812 1.1112c0.89958-1.2435 0.50271-5.4769-0.71438-6.5881"/>
  <path class="st8" d="m3.431 84.874c-0.50271 0-0.97896 0.37042-1.2435 0.74083l-0.23812 1.2435c0.37042-0.74083 0.87312-1.3758 1.3758-1.3758 0.97896 0.23813 3.0956 3.0956 2.3548 7.4348l0.74083-1.4817c0.10583-3.8365-1.7727-6.3236-2.9898-6.5617"/>
  <path class="st8" d="m56.877 81.914c-0.37042 3.0956 20.082 5.5827 23.442 4.4714l-0.23813-0.74083c-3.3602 1.1112-22.807-1.614-22.569-3.7306 0.13229-1.8521 16.378-3.5983 25.056-1.7462l1.9844-0.23813c-5.1065-2.4871-27.437-1.2435-27.675 1.9844"/>
  <path class="st8" d="m84.025 79.794c-2.5929-0.50271-5.8208 2.7252-4.4715 6.3235l0.60855-0.23812c-0.97896-2.7252 1.7462-5.8208 3.7306-5.4504 0.37042 0.13229 0.87313 0.37042 1.1112 0.97896l0.74083 0.13229c-0.21166-0.87313-0.84666-1.614-1.7198-1.7462"/>
  <path class="st8" d="m80.685 85.754c0 1.614 6.9321 13.52 8.6783 12.515 1.2435-0.60855-1.7462-14.023-3.5983-15.875-1.2435-1.3494-5.08 1.5081-5.08 3.3602m-0.74083 0c-0.13229-2.5929 4.5773-5.9531 6.4558-3.9688 1.9844 2.1167 5.08 16.113 3.3602 17.119-2.5135 1.2435-9.816-11.033-9.816-13.15"/>
  <path class="st8" d="m86.645 86.724c-0.97896 0.23813-2.7252 3.7306-2.9633 5.4504l0.60855 0.97896c-0.1323-2.1167 1.7462-5.715 2.5929-5.8208 0.37042-0.13229 1.4817 1.1112 1.8521 2.3548l-0.50271-1.9844c-0.23813-0.47625-1.1112-1.0848-1.5875-0.97896"/>
 </g>
</svg>
