<?xml version="1.0" encoding="UTF-8"?>
<!-- Created with Inkscape (http://www.inkscape.org/) -->
<svg version="1.1" viewBox="0 0 92.129 83.512" xmlns="http://www.w3.org/2000/svg">
 <g stroke-width=".26458">
  <path class="st0" d="m34.369 34.702c-4.154 0.07937-8.255 0-11.139-0.26458-1.1377-0.10583-1.5875-0.39688-2.249-1.614-2.0902-3.81-3.1221-7.911-3.2279-12.991 5.5033-2.4606 12.859-5.2917 18.838-6.7733-2.249-12.144-17.462-16.087-27.49-10.081 1.2435 4.9212 3.1485 11.324 4.6567 15.769-6.2971 5.9002-9.7631 14.235-9.8954 19.367-0.18521 6.7204 5.8737 16.536 7.8052 17.304 1.614 0.66146 5.424 0.39688 8.255-0.87312l13.679-7.964z" fill="#8c93c8"/>
  <path class="st1" d="m20.399 49.254c-9.3398-0.10583-13.758-13.758-6.641-30.506-6.2971 5.9002-9.7631 14.235-9.8954 19.367-0.18521 6.7204 5.8737 16.536 7.8052 17.304 1.614 0.66146 5.424 0.39688 8.255-0.84667-0.05292-1.7727 0.10583-3.519 0.47625-5.3181" fill="#d2cde6"/>
  <path class="st1" d="m23.548 17.398c4.3392-1.6933 9.0223-3.3073 13.044-4.3392-2.249-12.144-17.462-16.087-27.49-10.081 0.87312 3.3602 2.0638 7.4877 3.2015 11.139 3.1485-3.0427 10.583-0.02646 11.245 3.2808" fill="#d2cde6"/>
 </g>
 <g fill="#8c93c8" stroke-width=".26458">
  <path class="st0" d="m86.545 60.181 3.81 3.5983c-1.1112-1.5875-2.3548-2.7517-3.81-3.5983"/>
  <path class="st0" d="m86.492 60.128c-1.1642-1.5346-6.4294-2.3548-12.515-2.2754-5.0271 0.07937-8.3608 0.15875-14.42-0.26458-3.8629-0.21167-8.3608-7.4348-9.1281-14.526-0.3175-3.1485-0.21167-5.1329 1.1112-7.2496 2.3548-3.81 2.4871-7.964 0.68792-10.954 3.0427 2.8575 7.8846 8.4667 11.404 12.621 1.3229-0.66146 2.196-1.5081 2.884-2.7781-3.6777-3.9952-8.6254-8.0169-13.388-11.112 3.519 0.66146 10.53 3.6248 15.584 6.1912 0.18521-1.4552 0.02646-3.2544-0.50271-4.6831-4.5773-1.4288-10.292-2.3812-16.166-2.9369 3.9952-1.1112 8.3608-1.8785 11.88-2.3548-2.3548-7.1967-10.557-12.435-19.42-9.3133 0.635 2.6458 1.2171 5.715 1.5875 8.2815-2.4871-3.2279-6.1912-6.2442-10.107-8.0698 0.26458 0.84667 0.44979 1.4552 0.635 2.3548-0.74083 0.21167-1.2965 0.37042-2.2754 0.58208 2.8575 1.1642 6.1912 2.8575 9.0488 5.1329-3.4131-1.5875-8.5725-2.7517-12.277-2.54-0.9525 0.9525-1.5081 3.3602-0.84667 4.4979 3.7835-0.39688 8.255-0.44979 12.621 0.02646-4.8419 0.68792-8.8106 5.1065-8.2815 12.091 0.07937 1.2435-0.44979 2.4871-1.2171 3.3602-1.4552 1.6404-2.54 3.9158-2.3019 5.9267l12.144 20.981c2.4077 2.1167 5.6356 2.1696 7.8581 0.74083 0.18521-0.10583 0.29104-0.21167 0.44979-0.37042 3.4396-0.79375 6.3765-2.5929 11.245-3.519 6.3765-1.1642 12.938-1.7198 16.933-1.5346 2.831 0.10583 5.0271 0.66146 6.8527 1.6933z"/>
  <path class="st0" d="m86.492 60.128c-1.1642-1.5346-6.4294-2.3548-12.515-2.2754-5.0271 0.07937-8.3608 0.15875-14.42-0.26458-3.8629-0.21167-8.3608-7.4348-9.1281-14.526-0.3175-3.1485-0.21167-5.1329 1.1112-7.2496 2.3548-3.81 2.4871-7.964 0.68792-10.954 3.0427 2.8575 7.8846 8.4667 11.404 12.621 1.3229-0.66146 2.196-1.5081 2.884-2.7781-3.6777-3.9952-8.6254-8.0169-13.388-11.112 3.519 0.66146 10.53 3.6248 15.584 6.1912 0.18521-1.4552 0.02646-3.2544-0.50271-4.6831-4.5773-1.4288-10.292-2.3812-16.166-2.9369 3.9952-1.1112 8.3608-1.8785 11.88-2.3548-2.3548-7.1967-10.557-12.435-19.42-9.3133 0.635 2.6458 1.2171 5.715 1.5875 8.2815-2.4871-3.2279-6.1912-6.2442-10.107-8.0698 0.26458 0.84667 0.44979 1.4552 0.635 2.3548-0.74083 0.21167-1.2965 0.37042-2.2754 0.58208 2.8575 1.1642 6.1912 2.8575 9.0488 5.1329-3.4131-1.5875-8.5725-2.7517-12.277-2.54-0.9525 0.9525-1.5081 3.3602-0.84667 4.4979 3.7835-0.39688 8.255-0.44979 12.621 0.02646-4.8419 0.68792-8.8106 5.1065-8.2815 12.091 0.07937 1.2435-0.44979 2.4871-1.2171 3.3602-1.4552 1.6404-2.54 3.9158-2.3019 5.9267l12.144 20.981c2.4077 2.1167 5.6356 2.1696 7.8581 0.74083 0.18521-0.10583 0.29104-0.21167 0.44979-0.37042 3.4396-0.79375 6.3765-2.5929 11.245-3.519 6.3765-1.1642 12.938-1.7198 16.933-1.5346 2.831 0.10583 5.0271 0.66146 6.8527 1.6933z"/>
 </g>
 <g fill="#bbe2e8" stroke-width=".26458">
  <path class="st2" d="m35.983 10.704c0.15875 0.39688 0.21167 0.76729 0.3175 1.1377 0.18521-0.26458 0.3175-0.50271 0.47625-0.74083-0.23812-0.13229-0.50271-0.29104-0.79375-0.39688"/>
  <path class="st2" d="m35.242 14.011c0.07937-0.21167 0.18521-0.44979 0.26458-0.66146-0.3175 0.07937-0.68792 0.18521-1.1642 0.29104 0.26458 0.10583 0.58208 0.26458 0.89958 0.37042"/>
  <path class="st2" d="m31.089 16.26c-0.9525 0.9525-1.5081 3.3602-0.84667 4.4979 0.84667-0.07937 1.7198-0.15875 2.5929-0.18521 0.15875-1.4288 0.58208-3.1485 1.0583-4.2598-0.9525-0.10583-1.905-0.13229-2.8046-0.05292"/>
  <path class="st2" d="m64.955 27.955c1.3229 0.635 2.6458 1.2171 3.81 1.8256 0.18521-1.4552 0.02646-3.2544-0.50271-4.6831-1.0319-0.3175-2.0902-0.635-3.2279-0.87312 0.23812 1.1906 0.23812 2.4342-0.07937 3.7306"/>
  <path class="st2" d="m63.765 31.871c-0.74083 0.9525-1.6404 1.905-2.7252 2.5929 0.92604 1.0319 1.7992 2.0638 2.5929 3.0162 1.3229-0.66146 2.196-1.5081 2.884-2.7781-0.79375-0.9525-1.7462-1.905-2.7517-2.831"/>
 </g>
 <g stroke-width=".26458">
  <path class="st1" d="m54.716 21.499c3.2279-0.76729 6.4823-1.3229 9.234-1.6933-2.3548-7.1967-10.557-12.435-19.42-9.3133 0.47625 2.0108 0.92604 4.2862 1.2965 6.3765 3.4925-1.1642 8.1492 1.1377 8.89 4.6302" fill="#d2cde6"/>
  <path class="st2" d="m49.98 14.514c1.0583-0.635 2.196-0.68792 3.1221-0.3175 1.0319 0.39688 1.7727 1.3229 1.7992 2.6458 1.4023-0.21167 2.4606 0.3175 2.9369 1.1642 0.47625 0.79375 0.39688 1.905-0.39688 2.884 2.3019-0.47625 4.5508-0.84667 6.5352-1.1112-2.3548-7.1967-10.557-12.435-19.42-9.3133 0.3175 1.4023 0.66146 2.884 0.92604 4.445 0.29104-0.92604 0.97896-1.5081 1.7992-1.6933 0.97896-0.23812 2.1431 0.13229 2.6988 1.2965" fill="#bbe2e8"/>
  <path class="st3" d="m45.72 32.347c-0.76729 1.7198-0.58208 3.1221 0.44979 3.5454 0.87312 0.39688 2.1167-0.15875 2.9633-2.1167 0.15875-0.29104 0.26458-0.58208 0.3175-0.87312-1.5081 1.1377-3.3073 0.58208-3.7306-0.55562" fill="#403c3b"/>
  <path class="st0" d="m48.763 30.045c-0.74083-0.3175-2.1167 0.15875-3.0427 2.249v0.07937c0.39688 1.1377 2.196 1.6933 3.7306 0.55562 0.39688-1.4552 0.05292-2.5665-0.68792-2.884" fill="#8c93c8"/>
  <path class="st3" d="m34.978 27.981c-0.21167 0.87312-0.39688 1.8256-0.39688 2.5665 0.07937 0.37042 0.21167 0.58208 0.47625 0.66146 0.58208 0.18521 1.4552-0.39688 2.0638-2.2754-0.82021 0.37042-1.7727 0.02646-2.1431-0.9525" fill="#403c3b"/>
  <path class="st0" d="m36.856 25.627c-0.37042-0.10583-0.79375 0-1.2171 0.58208-0.26458 0.50271-0.47625 1.1377-0.635 1.7727 0.3175 0.97896 1.2965 1.3229 2.0902 0.9525h0.02646c0.60854-1.9315 0.3175-3.1221-0.26458-3.3073" fill="#8c93c8"/>
  <path class="st4" d="m36.698 29.04c0.21167 0.47625-0.15875 1.1642-0.74083 1.0319-0.44979-0.10583-0.58208-0.79375-0.21167-1.1642 0.3175 0.18521 0.60854 0.18521 0.9525 0.13229" fill="#fff"/>
  <path class="st5" d="m41.831 29.754c-0.18521-0.92604-0.84667-1.2435-1.5875-1.1377-2.54 0.39688-5.6356 4.2069-4.736 9.0488 0.15875 0.66146 0.50271 0.66146 0.84667 0.07937 1.614-3.0692 2.884-5.5298 5.4504-5.7944 0.18521-0.66146 0.15875-1.5346 0.02646-2.196" fill="#f6b2b2"/>
  <path class="st2" d="m49.318 33.035c1.1377-0.39688 2.249-1.0583 3.0692-1.9315 1.1112 1.4288 0.26458 3.2279-1.3494 4.3656-0.635-0.50271-1.2965-1.4288-1.7727-2.3019" fill="#bbe2e8"/>
  <path class="st2" d="m51.223 33.511c0.44979 0.07937 1.1377 0.07937 1.7198-0.15875" fill="#bbe2e8"/>
  <path class="st4" d="m47.149 33.485c-0.26458 0.47625-0.10583 1.0583 0.3175 1.2171 0.635 0.18521 1.2171-0.66146 0.92604-1.2965-0.42333 0.10583-0.87312 0.15875-1.2435 0.07938" fill="#fff"/>
  <path class="st2" d="m16.96 9.4606c1.1642-1.5081 2.8575-1.8785 4.1804-1.3494 1.1377 0.47625 1.9844 1.6404 1.905 3.4131 1.7727-0.55562 3.3073-0.07938 4.101 0.9525 0.68792 0.92604 0.84667 2.249-0.07937 3.5983 3.2544-1.1642 6.5617-2.249 9.525-3.0162-2.249-12.144-17.463-16.087-27.49-10.081 0.55562 2.1167 1.2171 4.5508 1.905 6.9321 0.39688-1.5346 1.4023-2.3812 2.4871-2.54 1.2435-0.21167 2.6458 0.52917 3.466 2.0902" fill="#bbe2e8"/>
  <path class="st5" d="m42.439 76.929c2.884-3.5983 6.2442-8.546 8.8371-13.203-0.07937 0.07937-0.15875 0.10583-0.21167 0.18521-0.68792 0.44979-1.5346 0.76729-2.4077 0.92604-2.0108 3.7306-5.0535 8.2815-7.911 11.906-0.50271 0.10583-1.2965 0-2.2754-0.15875-2.6723-0.44979-5.7679 0.68792-6.2971 3.7042 0.66146-0.37042 1.2965-0.58208 1.905-0.74083-0.44979 0.68792-0.66146 1.5081-0.44979 2.4077 1.2171-0.84667 2.249-1.5081 3.519-2.196-1.1377 1.1377-1.4552 2.4871-1.0583 3.519 1.614-1.614 4.0746-3.3338 5.9002-4.3392 1.4552-0.76729 2.8575-1.1377 3.9158-0.92604-0.3175-1.1112-1.561-1.6404-3.466-1.0848" fill="#f6b2b2"/>
  <path class="st5" d="m62.23 72.14c-1.4552-3.519-3.519-6.9585-6.059-10.16-0.58208 0.21167-1.1642 0.44979-1.7198 0.66146 2.249 2.4606 5.1329 6.8262 6.3765 10.001-0.26458 0.76729-0.97896 0.79375-1.9844 0.50271-2.3812-0.74083-5.2123-0.07937-6.2971 1.8256 0.26458 0.02646 0.50271 0.07937 0.79375 0.10583-0.18521 0.29104-0.29104 0.58208-0.37042 0.92604 0.3175-0.10583 0.79375-0.26458 1.2435-0.3175-0.15875 0.37042-0.21167 0.76729-0.18521 1.2171 1.2965-0.66146 3.1485-1.2965 4.6567-1.4023 1.4023-0.07937 2.0108-0.29104 3.3602-1.1112 1.1377-0.68792 2.6723-0.87312 4.2598-0.635-0.07937-1.27-1.7727-2.1431-4.0746-1.614" fill="#f6b2b2"/>
  <path class="st6" d="m38.153 32.453c-0.29104 0.26458-0.635 0.3175-0.74083 0.18521-0.10583-0.10583 0-0.39688 0.26458-0.66146 0.3175-0.26458 0.635-0.29104 0.68792-0.18521 0.13229 0.15875 0.07937 0.39688-0.21167 0.66146" fill="#fce0de"/>
  <path class="st7" d="m90.355 63.78c-2.4077-3.519-5.5827-5.0535-10.663-5.2917-4.6302-0.21167-12.859 0.74083-17.383 1.6404 6.2971 0.44979 10.186 3.0427 14.605 7.3025 1.7198 1.6933 4.2069 2.884 7.3025 3.1485 7.8581 0.60854 9.181-2.3812 6.1383-6.7998" fill="#7a7fae"/>
  <path class="st8" d="m90.567 64.123c-1.5081 3.1221-10.186 4.0746-14.949 2.0902 0.44979 0.39688 0.84667 0.79375 1.2965 1.2171 1.7198 1.6933 4.2069 2.884 7.3025 3.1485 7.6465 0.60854 9.1017-2.2225 6.35-6.4558" fill="#b6b1c7"/>
  <path class="st9" d="m77.152 67.669c1.6933 1.5346 4.101 2.6723 7.0379 2.9369 6.2971 0.47625 8.4402-1.3494 7.4348-4.3656-0.79375 2.4077-8.0962 4.0481-14.473 1.4288" fill="#a2c4c9"/>
  <path class="st7" d="m19.923 54.519c-2.831 1.2965-6.641 1.5346-8.255 0.87312-1.9315-0.76729-7.9904-10.61-7.8052-17.304 0.10583-3.9688 2.196-9.816 6.059-15.028-0.26458 3.3338 2.196 6.2442 6.006 7.329 1.6933 0.47625 2.0902 0.84667 2.7517 2.0902 1.3494 2.4871 1.8256 2.9633 4.1804 3.2279 2.7781 0.26458 7.0379 0.3175 10.769 0.18521-1.9315 2.4077-2.7517 4.0217-2.5665 6.2971z" fill="#7a7fae"/>
  <path class="st8" d="m11.668 55.419c1.614 0.66146 5.424 0.39688 8.255-0.84667-0.02646-1.7727 0.10583-3.519 0.47625-5.3181-7.7258-0.07937-12.065-9.4192-9.3398-22.119-0.84667-1.1642-1.2435-2.5929-1.1377-4.0746-3.8629 5.2123-5.9531 11.086-6.059 15.028-0.18521 6.7204 5.8737 16.563 7.8052 17.33" fill="#b6b1c7"/>
  <path class="st9" d="m19.95 52.799c-2.5929 0.39688-5.6092-0.07937-7.4348-1.1642-5.2388-3.2544-7.4877-14.473-5.2123-24.448-2.196 3.9952-3.3602 7.964-3.4396 10.927-0.18521 6.7204 5.8737 16.536 7.8052 17.304 1.614 0.66146 5.424 0.39688 8.255-0.84667 0-0.58208 0-1.1906 0.02646-1.7727" fill="#a2c4c9"/>
  <path class="st7" d="m36.38 37.85c2.1167 1.8785 6.006 2.54 11.033 1.7198 1.5346-0.21167 1.9315 0.37042 0.15875 0.79375-2.7517 0.74083-6.7204 2.6723-9.9483 4.4979-0.76729 0.44979-1.3494 0.50271-2.0902 0.07937-1.3229-0.79375-2.831-1.7198-4.4715-2.831-0.15875-2.0638 0.87312-4.3392 2.1696-5.715 0.635-0.66146 1.1642-1.3229 1.3229-2.7517 0 1.1642 0.29104 2.1696 0.84667 3.0427 0.05292 1.5346 0.50271 1.905 0.97896 1.1642" fill="#7a7fae"/>
  <path class="st10" d="m37.333 35.945c1.4023-1.614 2.5929-2.196 3.2279-2.4606 0.84667-0.29104 1.1642-0.79375 1.2965-1.5081-2.0373 0.10583-3.2808 1.7992-4.5244 3.9688" fill="#d59a9c"/>
  <path class="st7" d="m49.609 46.502c0.15875 4.2069-0.15875 8.6519-2.196 13.176-0.3175 0.68792-0.10583 1.1642 0.39688 1.3494 1.8785 0.74083 3.7835 0.02646 4.101-1.1642 2.0108 4.3392-4.8154 7.0379-8.6254 3.3073 4.3392-6.5881 5.7415-10.213 6.3235-16.669" fill="#7a7fae"/>
  <path class="st7" d="m52.255 61.319c5.0271-0.92604 7.1967-1.905 16.431-2.4077-5.3446 0.92604-8.8371 1.7198-10.636 2.3812-1.8256 0.66146-4.8683 1.8256-6.6675 2.3812 0.60854-0.66146 0.87312-1.2965 0.87312-2.3548" fill="#7a7fae"/>
 </g>
 <g fill="#d59a9c" stroke-width=".26458">
  <path class="st10" d="m47.466 66.928c0.44979 0.26458 0.47625 1.0319 0.07937 1.6404-1.905 3.0692-3.2544 5.1329-5.7679 8.3344-0.26458 0.3175-0.02646 0.635 0.26458 0.50271 2.8575-3.4925 7.0115-9.4721 9.2075-13.6-0.79375 0.635-1.7727 0.92604-2.5929 1.0583-0.42333 0.74083-0.68792 1.1906-1.1906 2.0638"/>
  <path class="st10" d="m32.306 80.131c0.79375-1.5875 2.2754-2.54 4.8154-2.4871-1.5346 0.29104-2.4871 0.97896-3.1221 1.9844-0.58208 0.07937-1.0583 0.23812-1.6933 0.50271"/>
  <path class="st10" d="m33.708 81.877c0.37042-1.5875 2.196-3.5983 5.2388-3.4131-0.79375 0.44979-1.2965 0.74083-1.905 1.3494-1.2965 0.71438-2.3019 1.3494-3.3338 2.0638"/>
  <path class="st10" d="m36.116 83.2c-0.15875-2.7252 7.7258-6.5617 9.6308-5.2917-1.7198 0-3.2015 0.635-5.2388 1.905-1.4552 0.92604-3.0692 2.2225-4.3921 3.3867"/>
  <path class="st10" d="m55.51 62.218c2.196 2.2754 5.0535 7.3819 6.1912 10.054 0.15875 0.3175 0.26458 0.37042 0.58208 0.3175 1.8785-0.29104 3.0427 0.07937 3.9688 1.1112-1.7992-0.18521-3.1221-0.02646-4.3921 0.84667-0.84667 0.50271-1.8785 0.87312-2.9633 0.9525-1.6933 0.10583-3.5454 0.58208-4.8419 1.4023 0-0.39688 0.02646-0.79375 0.18521-1.2171-0.37042 0.07937-0.87312 0.21167-1.2435 0.29104 0.02646-0.26458 0.15875-0.55562 0.3175-0.84667-0.21167-0.07937-0.50271-0.10583-0.76729-0.15875 0.92604-1.614 3.3602-2.4871 5.9796-1.8785 0.21167 0 0.55562 0.07937 0.74083 0.15875 0.66146 0.18521 1.4288 0 1.5346-0.635-1.0583-2.9369-4.2069-7.6994-6.2971-10.001 0.3175-0.13229 0.60854-0.21167 1.0054-0.39688"/>
 </g>
 <g fill="#0f141b" stroke-width=".26458">
  <path class="st11" d="m84.931 59.467c-3.1485-1.0583-5.3446-1.4552-10.927-1.4023-4.9742 0.07937-8.4667 0.15875-14.446-0.21167-3.9952-0.26458-8.546-7.7258-9.3133-14.737-0.3175-3.0692-0.21167-5.2123 1.1377-7.4348 2.7252-4.3392 2.54-9.234-0.47625-12.25-0.50271-0.55562-0.3175-0.76729 0.21167-0.21167 3.1221 3.0427 3.4925 8.1492 0.66146 12.726-1.3494 2.1696-1.4288 4.154-1.1112 7.1438 0.76729 7.1173 5.2388 14.049 8.9429 14.288 5.9531 0.37042 9.3927 0.29104 14.34 0.21167 6.641-0.07937 9.4192 0.635 12.568 2.2754z"/>
  <path class="st11" d="m30.85 41.978c-0.15875-1.7992 0.74083-3.9952 2.3812-5.8738 0.79375-0.92604 1.2171-1.9844 1.1377-3.2279-0.66146-9.1281 5.7679-13.229 11.589-12.197 0.87312 0.15875 0.84667 0.39688-0.02646 0.26458-5.6356-0.87312-11.774 3.2279-11.139 11.959 0.10583 1.2435-0.3175 2.54-1.2171 3.519-1.7727 1.9315-2.4606 4.2069-2.2754 5.9002z"/>
  <path class="st11" d="m45.905 32.347c-0.84667 1.905-0.50271 3.0427 0.29104 3.4131 0.84667 0.37042 1.9315-0.10583 2.7781-2.0638 0.74083-1.6933 0.50271-3.2015-0.29104-3.519-0.74083-0.3175-1.9579 0.34396-2.7781 2.1696m0.18521 3.7042c-1.1642-0.47625-1.3229-2.0108-0.55562-3.81 1.0319-2.3812 2.54-2.6723 3.3073-2.3548 1.0583 0.44979 1.2965 2.1167 0.47625 3.9688-0.89958 2.1167-2.3283 2.5929-3.2279 2.196"/>
  <path class="st11" d="m34.66 30.045c-0.02646 0.50271 0.15875 0.9525 0.44979 1.0319 0.39688 0.10583 1.2435-0.18521 1.8785-2.196 0.58208-1.9315 0.29104-2.9369-0.15875-3.0692-0.47625-0.15875-0.87312 0.10583-1.2171 0.74083l0.26458-0.76729c0.29104-0.29104 0.66146-0.39688 1.0583-0.26458 0.66146 0.21167 1.0319 1.4287 0.37042 3.4925-0.635 2.0638-1.6404 2.5929-2.3019 2.4077-0.18521-0.07937-0.37042-0.26458-0.47625-0.47625z"/>
  <path class="st11" d="m49.398 33.114c-1.4288 1.0319-3.2544 0.635-3.7835-0.58208l0.21167-0.39688c0.29104 1.1112 2.0638 1.7992 3.6777 0.50271z"/>
  <path class="st11" d="m37.068 29.146c-0.74083 0.26458-1.7198 0.02646-2.1167-0.87312l0.15875-0.47625c0.29104 0.92604 1.1642 1.4023 2.0902 0.92604z"/>
  <path class="st11" d="m37.597 35.496c0.79375-1.0319 1.8256-1.7992 2.9369-2.196 0.58208-0.21167 0.87312-0.50271 1.1112-1.2435 0.18521-0.66146 0.10583-1.614 0-2.2754-0.15875-0.74083-0.635-1.0583-1.3229-0.9525-2.3812 0.37042-5.4504 4.0746-4.5773 8.8106 0.07937 0.50271 0.26458 0.44979 0.50271 0.02646 1.8256-3.4925 3.0692-5.6885 5.6356-5.8738l-0.07937 0.39688c-2.3019 0.15875-3.5454 2.3548-5.2917 5.6356-0.39688 0.74083-0.97896 0.74083-1.1377-0.18521-0.9525-4.8419 2.1696-8.8371 4.8419-9.234 0.84667-0.15875 1.614 0.26458 1.7992 1.2965 0.15875 0.74083 0.18521 1.7992 0 2.4606-0.21167 0.79375-0.58208 1.2171-1.4023 1.5346-1.1642 0.39688-2.1696 1.1377-3.519 2.7781z"/>
  <path class="st11" d="m49.477 33.141c0.50271 0.84667 1.0583 1.5875 1.614 2.0638 1.614-1.2171 1.9315-2.7781 1.2965-3.7835-0.82021 0.82021-1.7727 1.3229-2.9104 1.7198m-0.05292-0.3175c1.0583-0.39688 2.0108-0.97896 2.7781-1.7992 0.15875-0.18521 0.26458-0.18521 0.39688 0.02646 0.87312 1.2435 0.58208 3.1221-1.4023 4.4979-0.18521 0.15875-0.26458 0.10583-0.39688 0-0.55562-0.50271-1.1642-1.3494-1.5875-2.1696z"/>
  <path class="st11" d="m52.652 33.617c-0.44979 0.15875-0.9525 0.10583-1.4552 0-0.55562-0.10583-0.50271-0.29104 0.07937-0.21167 0.58208 0.07938 0.97896 0.02646 1.5346-0.15875z"/>
  <path class="st11" d="m42.28 20.917c-3.9688-0.39688-8.0962-0.3175-11.906 0.07937-0.21167 0.02646-0.26458 0-0.3175-0.15875-0.635-1.2965-0.15875-3.5983 0.84667-4.6567 0.10583-0.10583 0.15875-0.15875 0.29104-0.15875 4.0217-0.21167 10.292 1.3229 13.679 3.3602 0.68792 0.44979 0.58208 0.66146-0.15875 0.26458-3.3602-1.9844-9.4985-3.4396-13.494-3.2279-0.84667 0.87312-1.3229 3.0692-0.79375 4.101 4.1804-0.44979 8.8371-0.37042 13.044 0.15875z"/>
  <path class="st11" d="m34.687 13.562c2.6458 1.1112 6.1912 2.884 9.1546 5.3975l-1.0319-0.39688c-2.3548-1.7727-5.6092-3.4925-8.8106-4.8154z"/>
  <path class="st11" d="m46.143 19.065c-2.5665-3.3338-6.2442-6.2971-10.107-8.1492l-0.10583-0.47625c3.8629 1.7727 7.62 4.7625 10.16 8.0169z"/>
  <path class="st11" d="m51.7 22.081c3.5454-0.97896 7.964-1.8785 11.959-2.4077-1.2171-3.5454-3.9688-6.641-7.4348-8.3608-3.5454-1.7727-7.6729-1.9844-11.43-0.68792 0.55562 2.6723 1.1112 5.5298 1.4552 8.255 0.15875 0.97896-0.10583 1.0319-0.26458 0.02646-0.44979-2.7252-0.97896-5.6092-1.6404-8.2815-0.02646-0.21167 0-0.26458 0.21167-0.3175 4.0746-1.4023 8.255-1.1642 11.88 0.635 3.6248 1.7992 6.4294 5.0271 7.6994 8.8371 0.07938 0.18521 0 0.26458-0.21167 0.29104-4.0217 0.50271-8.0962 1.2965-11.404 2.196z"/>
  <path class="st11" d="m52.996 23.404c3.4925 0.55562 10.372 3.4925 15.584 6.006 0.15875-1.3494-0.02646-2.9633-0.47625-4.1804-4.2069-1.3229-9.7631-2.2754-16.087-2.9369-0.92604-0.10583-0.92604-0.37042 0-0.26458 6.35 0.50271 11.906 1.5081 16.219 2.7781 0.15875 0.02646 0.18521 0.07938 0.26458 0.21167 0.55562 1.4552 0.68792 3.1221 0.47625 4.736 0 0.26458-0.10583 0.29104-0.3175 0.18521-5.4504-2.7781-12.144-5.5298-15.134-6.1648z"/>
  <path class="st11" d="m51.991 24.436c3.2015 2.884 8.255 8.7312 11.695 12.753 1.1377-0.55562 2.0638-1.4288 2.5929-2.4606-3.5983-3.9158-8.4667-7.8846-13.335-11.112-0.635-0.39688-0.47625-0.635 0.15875-0.21167 4.9477 3.1221 9.816 7.1437 13.573 11.086 0.10583 0.10583 0.15875 0.21167 0.07937 0.37042-0.68792 1.2965-1.6404 2.1696-2.9369 2.831-0.15875 0.07937-0.26458 0.07937-0.37042-0.07937-3.5983-4.2069-8.3344-9.7631-11.007-12.277z"/>
  <path class="st11" d="m54.557 21.526c-0.74083-3.3338-5.3446-5.6356-8.7577-4.4715l-0.02646-0.3175c3.6777-1.2171 8.3608 1.1112 9.1281 4.736z"/>
  <path class="st11" d="m45.376 14.646c0.26458-0.76729 0.97896-1.4023 1.8256-1.614 0.92604-0.21167 2.196 0.02646 2.8575 1.27 0.92604-0.55562 2.196-0.66146 3.0692-0.29104 1.1377 0.39688 1.8785 1.4023 1.905 2.6458 1.2965-0.15875 2.4077 0.29104 2.9633 1.2435 0.50271 0.87312 0.39688 2.0638-0.3175 2.9369l-0.50271 0.10583c0.79375-0.92604 0.97896-1.9844 0.47625-2.831-0.47625-0.84667-1.4552-1.2965-2.6723-1.1377-0.18521 0.02646-0.21167 0-0.21167-0.18521-0.07937-1.1377-0.68792-2.0108-1.7198-2.4077-0.92604-0.3175-1.9315-0.26458-2.884 0.26458-0.18521 0.10583-0.21167 0.07938-0.29104-0.07938-0.55562-0.97896-1.5875-1.4023-2.5665-1.1377-0.92604 0.21167-1.5346 0.92604-1.7727 1.8256z"/>
  <path class="st11" d="m57.864 14.382c-0.55562 0.39688-0.68792 0.26458-0.15875-0.18521 0.47625-0.44979 0.97896-0.84667 1.5346-1.2171l0.21167 0.21167c-0.55562 0.42333-1.0319 0.79375-1.5875 1.1906"/>
  <path class="st11" d="m52.229 9.7516c-0.37042 0.74083-0.58208 1.1642-0.87312 1.8256-0.21167 0.58208-0.44979 0.50271-0.21167-0.07938 0.21167-0.66146 0.39688-1.1112 0.76729-1.7992z"/>
  <path class="st11" d="m19.923 54.757c-2.831 1.2965-6.5617 1.5875-8.3608 0.97896-1.9844-0.66146-8.1756-10.927-7.9904-17.674 0.15875-5.1329 3.6777-13.467 9.9748-19.394-1.4552-4.3392-3.3602-10.716-4.6302-15.584-0.026458-0.18521 0-0.21167 0.18521-0.37042 5.5033-3.2015 12.859-3.6248 18.653-0.97896 4.8154 2.1696 8.0698 6.1648 9.0223 11.245 0.02646 0.21167 0 0.26458-0.18521 0.29104-6.1648 1.5875-13.652 4.4715-18.627 6.6675 0.10583 4.9742 1.1377 8.9958 3.2015 12.753 0.58208 1.0583 0.97896 1.4023 2.0902 1.5081 2.7252 0.21167 6.6675 0.26458 11.139 0.21167l-0.15875 0.44979c-4.445 0.10583-8.3344 0-11.033-0.21167-1.2435-0.15875-1.7727-0.47625-2.4606-1.7198-2.0902-3.81-3.0692-8.0169-3.2279-13.044 0-0.15875 0.02646-0.21167 0.21167-0.29104 5.0271-2.196 12.435-5.1329 18.547-6.6675-0.87312-4.7625-3.9952-8.5725-8.7312-10.742-5.8738-2.6458-12.938-2.196-18.23 0.92604 1.2171 4.8154 3.0692 11.139 4.5508 15.505 0.07937 0.18521 0.07937 0.21167-0.07938 0.3175-6.1648 5.7944-9.6308 14.129-9.7896 19.182-0.15875 6.4558 5.8208 16.351 7.6994 17.119 1.5346 0.66146 5.3975 0.37042 8.1756-0.87312v0.39688z"/>
  <path class="st11" d="m9.4721 49.545c-0.37042 0.84667-0.58208 1.5875-0.79375 2.4077l-0.26458-0.39688c0.15875-0.635 0.37042-1.2171 0.635-1.7992z"/>
  <path class="st11" d="m13.652 55.736c2.0108-1.4552 3.7042-3.4925 4.8683-6.006 0.37042-0.87312 0.635-0.79375 0.21167 0.10583-1.0319 2.54-2.5929 4.4715-4.4979 5.9531z"/>
  <path class="st11" d="m18.494 0.25306c-0.44979 1.905-0.635 3.0427-0.87312 4.736-0.15875 0.97896-0.39688 0.9525-0.26458-0.026458 0.18521-1.6933 0.37042-2.8575 0.76729-4.6831h0.37042z"/>
  <path class="st11" d="m30.93 3.9043c-1.6933 1.0583-3.2544 2.4606-4.5773 3.81-0.68792 0.68792-0.87312 0.55562-0.18521-0.21167 1.2965-1.3229 2.7781-2.7252 4.445-3.8629z"/>
  <path class="st11" d="m26.802 16.181c0.84667-1.2171 0.9525-2.5665 0.15875-3.5983s-2.2754-1.3494-3.7835-0.92604c-0.26458 0.07938-0.29104 0-0.29104-0.21167 0-1.614-0.76729-2.6723-1.8785-3.1485-1.1112-0.44979-2.6723-0.21167-3.8894 1.2171-0.18521 0.21167-0.26458 0.18521-0.37042 0-0.74083-1.4023-1.9844-2.1167-3.2544-1.9315-1.1377 0.18521-2.0638 1.1642-2.3812 2.6723l-0.18521-0.58208c0.39688-1.4023 1.3494-2.3019 2.54-2.4871 1.3494-0.21167 2.7517 0.58208 3.519 2.0108 1.1112-1.3494 2.7781-1.7992 4.2069-1.2435 1.2965 0.55562 2.0638 1.7727 2.0108 3.3602 1.4288-0.39688 3.0692-0.18521 4.0746 1.0583 0.76729 0.97896 0.84667 2.4606 0.02646 3.6248z"/>
  <path class="st11" d="m23.389 17.451c-0.58208-3.0427-7.8846-6.2442-11.086-3.1485l-0.10583-0.37042c3.2544-3.0692 10.742-0.02646 11.509 3.3602z"/>
  <path class="st11" d="m43.339 63.039c2.196 1.9315 5.2123 2.196 7.5935 0.68792 1.614-1.0583 1.614-3.7306-0.635-6.2706-0.55562-0.635-0.37042-0.76729 0.18521-0.21167 2.4606 2.5929 2.54 5.6356 0.66146 6.8527-2.3548 1.5081-5.6092 1.4288-8.0698-0.74083z"/>
  <path class="st11" d="m51.647 63.303c3.2279-0.74083 6.2706-2.5929 11.086-3.4925 6.4823-1.1642 12.859-1.7727 16.986-1.5875 5.1594 0.21167 8.3608 1.7727 10.848 5.3975 3.3602 4.8419 1.3229 7.7787-6.35 7.1967-3.0692-0.26458-5.5827-1.4023-7.4877-3.2279-5.1329-4.9477-8.6254-6.7469-15.002-7.3025l1.3494-0.29104c5.6356 0.635 8.8635 2.3812 13.97 7.3025 1.6933 1.6404 4.3392 2.8575 7.1967 3.0692 7.5142 0.58208 8.9165-2.1696 5.9531-6.4823-2.3812-3.4131-5.3975-4.9477-10.478-5.2123-4.101-0.18521-10.53 0.44979-16.907 1.5875-4.8683 0.87312-8.0698 2.8575-11.562 3.5983z"/>
  <path class="st11" d="m83.529 70.526c-0.9525-0.9525-1.9315-1.7992-3.2015-2.831-0.635-0.50271-0.47625-0.68792 0.15875-0.18521 1.3229 1.0319 2.4077 1.905 3.6248 3.0427z"/>
  <path class="st11" d="m89.8 70.156c-0.9525-1.0583-2.0108-2.0108-3.3073-3.0162-0.50271-0.39688-0.37042-0.58208 0.18521-0.18521 1.2435 0.92604 2.4606 1.9315 3.4925 3.0162z"/>
  <path class="st11" d="m33.92 79.787c-0.635 0.10583-1.1112 0.29104-1.6404 0.635-0.29104 0.15875-0.3175 0.02646-0.29104-0.18521 0.50271-2.9633 3.519-4.2862 6.4823-3.81 1.0319 0.18521 1.7198 0.26458 2.1167 0.18521 2.9369-3.7306 5.8738-8.1492 7.8581-11.774l0.44979-0.02646c-1.9315 3.5983-4.9742 8.2021-7.9904 11.986-0.07937 0.10583-0.15875 0.15875-0.21167 0.15875-0.55562 0.07937-1.3229 0-2.2754-0.15875-2.9369-0.50271-5.5033 0.97896-6.059 3.2015 0.55562-0.29104 1.1112-0.44979 1.7992-0.58208z"/>
  <path class="st11" d="m36.83 80.131c-0.84667 0.47625-1.7198 1.0583-3.0427 1.9844-0.26458 0.15875-0.3175 0.10583-0.37042-0.15875-0.21167-0.9525 0-1.9315 0.68792-2.7781 0.76729-0.97896 2.0638-1.5875 3.3338-1.5875 0.58208 0 0.58208 0.21167 0 0.26458-1.2435 0.02646-2.3812 0.66146-3.0427 1.5346-0.635 0.74083-0.79375 1.6933-0.68792 2.3019 1.2435-0.87312 2.196-1.4552 3.6248-2.196z"/>
  <path class="st11" d="m42.571 76.718c1.9315-0.50271 3.1221 0.15875 3.4396 1.2965 0.07937 0.21167 0.02646 0.29104-0.21167 0.21167-0.97896-0.15875-2.3019 0.18521-3.7835 0.9525-1.6404 0.87312-4.101 2.54-5.8208 4.2069-0.18521 0.18521-0.29104 0.15875-0.3175-0.02646-0.55562-1.614 0.3175-3.6248 2.9369-4.8683 0.58208-0.29104 0.66146-0.07937 0.10583 0.21167-2.4606 1.2435-3.1221 3.2279-2.7781 4.2862 1.7727-1.6933 4.101-3.2544 5.7679-4.154 1.4552-0.79375 2.7517-1.1112 3.7835-0.9525-0.3175-0.79375-1.4288-1.3229-3.3602-0.74083z"/>
  <path class="st11" d="m51.594 63.541c-2.9633 5.2123-6.059 9.869-9.1281 13.52-0.44979 0.55562-0.66146 0.39688-0.21167-0.18521 2.9633-3.7042 6.0854-8.3344 8.7312-12.991z"/>
  <path class="st11" d="m54.16 75.871c-0.37042 0.10583-0.76729 0.18521-1.0583 0.29104-0.26458 0.10583-0.3175 0.02646-0.29104-0.21167 0.50271-2.4077 4.2069-3.4925 6.6675-2.831 0.50271 0.15875 0.97896-0.07937 1.1377-0.47625-1.2965-3.2544-4.2069-7.5935-6.35-9.9483l0.37042-0.15875c2.0902 2.3548 5.0271 6.641 6.2971 9.9483 0.07937 0.15875 0.07937 0.15875 0 0.26458-0.21167 0.58208-0.87312 0.87312-1.5875 0.68792-2.54-0.68792-5.5827 0.50271-6.1119 2.3019 0.29104-0.10583 0.635-0.18521 1.1112-0.26458z"/>
  <path class="st11" d="m53.287 75.236c-0.26458-0.02646-0.47625-0.02646-0.66146-0.07937-0.26458 0-0.29104-0.10583-0.18521-0.29104 0.9525-1.7727 3.8629-2.7252 6.9585-1.6933l-1.6933-0.02646c-1.7992-0.26458-3.9688 0.37042-4.8683 1.7198 0.18521 0 0.3175 0.02646 0.58208 0.07937z"/>
  <path class="st11" d="m56.356 61.901c2.4077 3.1221 4.4715 6.5352 5.9796 10.001 2.4077-0.44979 3.9952 0.47625 4.1804 1.8256 0 0.18521-0.07937 0.21167-0.26458 0.21167-1.5346-0.26458-3.0162-0.07937-4.101 0.635-1.3494 0.84667-1.905 1.0319-3.4396 1.1377-1.3229 0.07937-2.9369 0.50271-4.4715 1.2965-0.29104 0.15875-0.3175 0.07937-0.3175-0.15875-0.15875-1.9315 1.5346-3.2279 4.9742-3.0162 0.66146 0.07937 0.66146 0.29104 0 0.26458-3.3338-0.18521-4.6831 1.1112-4.6567 2.54 1.4023-0.74083 3.1221-1.2171 4.445-1.3229 1.4023-0.07937 2.0108-0.29104 3.3073-1.1112 1.0319-0.635 2.5665-0.87312 4.1804-0.635-0.21167-0.92604-1.6404-1.7727-3.9158-1.27-0.07937 0-0.10583-0.02646-0.15875-0.07937-1.5081-3.519-3.5983-7.0644-6.0854-10.186z"/>
 </g>
 <g stroke-width=".26458">
  <path class="st0" d="m47.625 40.258c-2.7517 0.76729-6.8527 2.884-10.081 4.6567-0.66146 0.39688-1.1642 0.50271-1.8256 0.10583-2.7517-1.5875-4.6302-2.7517-6.5352-4.2598-1.614-1.2171-2.6458-1.8785-4.101-2.5665-4.8683-2.3019-8.9429-4.8683-11.906-7.7787-1.6404 0.26458-4.154 1.5081-5.3446 3.0162-0.635-0.29104-1.2171-0.58208-1.8256-0.87312-2.8575 1.0319-5.6356 5.2387-5.7679 8.1492 3.0162 0.15875 7.329 0.58208 11.192 1.1377-3.6248 0.39688-7.329 1.0583-11.112 2.0902-0.21167 2.831 0.37042 7.0644 1.6404 9.6044 5.3181-3.0162 12.197-6.4558 20.32-9.9748-6.2971 13.573 1.614 28.099 5.9531 28.919 7.6994 1.4552 21.087-12.33 21.272-25.85 0.05292-4.101-0.58208-6.694-1.8785-6.3765" fill="#8c93c8"/>
  <path class="st1" d="m20.717 35.945c-2.9633-1.6933-5.5298-3.519-7.5406-5.5033-1.6404 0.26458-4.154 1.5081-5.3446 3.0162-0.635-0.29104-1.2171-0.58208-1.8256-0.87312-2.8575 1.0319-5.6356 5.2388-5.7679 8.1492 3.0162 0.15875 7.329 0.58208 11.192 1.1377-3.6248 0.39688-7.329 1.0583-11.112 2.0902-0.21167 2.831 0.37042 7.0644 1.6404 9.6044 3.81-2.1696 8.5196-4.5508 13.864-7.0644-1.7727-2.7517-0.23812-8.5725 4.8948-10.557" fill="#d2cde6"/>
  <path class="st1" d="m32.491 62.086c-8.8635-0.92604-11.668-9.4192-10.054-18.918-6.4823 13.52 1.2435 28.443 5.7679 29.342 7.6994 1.4552 21.087-12.33 21.272-25.85v-0.07937c-3.519 12.25-10.213 16.192-16.986 15.505" fill="#d2cde6"/>
 </g>
 <g fill="#bbe2e8" stroke-width=".26458">
  <path class="st2" d="m30.85 66.558c-4.9477-0.74083-8.9429-4.2862-10.742-8.8371 0.97896 7.9904 5.2917 14.235 8.0962 14.764 4.9742 0.9525 12.33-4.4715 16.933-12.065-4.4715 5.1065-9.7102 6.8262-14.288 6.1383"/>
  <path class="st2" d="m8.6519 38.141c0.3175-1.1642 1.9844-2.3019 4.6302-2.0902l0.74083 0.3175c-0.66146-0.92604-0.39688-1.7727 0.26458-2.2754 0.635-0.50271 1.6404-0.74083 2.7252-0.50271-1.4023-0.97896-2.6723-2.0638-3.81-3.1485-1.6404 0.26458-4.154 1.5081-5.3446 3.0162-0.635-0.29104-1.2171-0.58208-1.8256-0.87312-2.8575 1.0319-5.6356 5.2388-5.7679 8.1492 2.831 0.10583 6.7733 0.50271 10.425 1.0319-1.7727-0.97896-2.3548-2.4871-2.0373-3.6248"/>
  <path class="st2" d="m11.668 41.819c-3.7042 0.44979-7.5142 1.0583-11.377 2.1167-0.21167 2.831 0.37042 7.0644 1.6404 9.6044 3.0427-1.7198 6.5881-3.5983 10.636-5.5298-6.059 0.21167-5.8208-4.8948-0.89958-6.1912"/>
 </g>
 <g fill="#0f141b" stroke-width=".26458">
  <path class="st11" d="m7.5935 33.379c1.2171-1.5875 3.6777-2.7781 5.4504-3.1221 0.15875-0.02646 0.18521 0 0.29104 0.10583 2.7781 2.6723 6.6675 5.1594 11.8 7.62 1.5346 0.74083 2.5929 1.4023 4.154 2.5929 1.8785 1.4288 3.7042 2.6458 6.5352 4.2598 0.55562 0.29104 0.97896 0.26458 1.6404-0.10583 3.1221-1.7727 7.0115-3.81 9.9483-4.5508 0.68792-0.18521 0.76729 0.07937 0.07937 0.26458-2.831 0.84667-6.7204 2.9369-9.816 4.6831-0.79375 0.44979-1.4023 0.47625-2.0638 0.10583-2.8575-1.614-4.6831-2.8575-6.5881-4.2862-1.5346-1.1642-2.4871-1.7992-4.0217-2.54-5.1594-2.4871-9.0488-5.0271-11.88-7.7258-1.614 0.26458-3.8894 1.4288-5.0535 2.8575z"/>
  <path class="st11" d="m20.902 36.051c-5.0271 1.8785-6.6675 7.6729-4.9742 10.345l-0.29104 0.15875c-1.7727-2.7517-0.21167-8.6519 4.9212-10.716z"/>
  <path class="st11" d="m10.795 41.925c-3.2279-0.44979-7.2231-0.84667-10.53-0.97896-0.21167 0-0.26458-0.07938-0.26458-0.26458 0.079375-2.7781 2.831-7.1438 5.8208-8.2815 0.15875-0.07937 0.15875-0.07937 0.29104 0 3.7042 1.8256 7.62 3.7835 11.615 5.4504l-0.29104 0.29104c-4.0217-1.6933-7.7787-3.519-11.483-5.3446-2.7781 1.0319-5.3446 5.1594-5.5298 7.6994 2.884 0.15875 7.0644 0.58208 11.483 1.2435z"/>
  <path class="st11" d="m22.199 43.777c-7.4083 3.2279-13.864 6.4823-20.082 9.8954-0.21167 0.15875-0.29104 0.07937-0.37042-0.10583-1.3229-2.6723-1.8785-6.8262-1.6404-9.5779 0-0.18521 0.026458-0.21167 0.26458-0.29104 3.9952-1.0583 7.8846-1.7727 12.621-2.196 0.97896-0.07937 1.0319 0.15875 0.02646 0.29104-4.736 0.50271-8.6519 1.2435-12.462 2.3019-0.21167 2.4077 0.37042 6.6675 1.5346 9.1017 5.8737-3.3073 12.753-6.5881 20.241-9.869z"/>
  <path class="st11" d="m28.046 72.828c-4.8419-0.9525-12.33-16.14-5.8738-29.475 0.39688-0.79375 0.635-0.68792 0.26458 0.10583-6.1912 13.388 1.5081 27.966 5.7944 28.813 7.3819 1.4023 20.69-12.065 21.114-25.638 0-0.87312 0.26458-0.92604 0.26458 0-0.13229 13.811-13.679 27.702-21.564 26.194"/>
  <path class="st11" d="m23.363 67.775c0.39688-3.2015 1.2171-6.0854 2.249-8.0169 0.37042-0.68792 0.58208-0.58208 0.21167 0.10583-0.97896 1.9844-1.6933 4.8683-2.1167 8.4402z"/>
  <path class="st11" d="m31.512 72.326c1.0583-2.1167 1.7992-6.7469 1.9844-9.4721 0.07937-1.1112 0.3175-1.1112 0.26458 0-0.10583 2.5665-0.66146 6.9585-1.7198 9.3133z"/>
  <path class="st11" d="m42.862 63.594c0.55562-2.3548 0.66146-3.7835 0.635-5.1329-0.02646-0.9525 0.21167-0.9525 0.29104 0 0.02646 1.3494 0.02646 2.7252-0.39688 4.5773z"/>
  <path class="st11" d="m13.758 36.316c-0.50271-0.79375-0.37042-1.7992 0.39688-2.3812 0.635-0.47625 1.6933-0.68792 2.5665-0.55562l0.55562 0.44979c-1.1112-0.29104-2.1696-0.10583-2.884 0.44979-0.68792 0.55562-0.76729 1.3494-0.10583 2.249z"/>
  <path class="st11" d="m10.266 41.687c-1.5875-0.84667-2.1696-2.4606-1.8256-3.5983 0.3175-1.1112 1.8256-2.3548 4.445-2.249l0.635 0.37042c-2.7781-0.3175-4.3656 0.92604-4.6567 1.9844-0.3175 1.1112 0.44979 2.6723 2.1167 3.4925z"/>
  <path class="st11" d="m12.25 48.196c-2.1167 0.07938-4.2069-0.66146-4.445-2.4871-0.18521-1.3494 0.79375-2.9369 3.0427-3.7835l1.3494-0.10583c-2.7781 0.635-4.2069 2.4077-3.9952 3.8629 0.21167 1.614 2.3548 2.3548 4.6302 2.1696z"/>
 </g>
</svg>
