<?xml version="1.0" encoding="UTF-8"?>
<!-- Created with Inkscape (http://www.inkscape.org/) -->
<svg version="1.1" viewBox="0 0 96.246 108.04" xmlns="http://www.w3.org/2000/svg">
 <g stroke-width=".26458">
  <path class="st0" d="m90.346 75.758c-0.52917-4.6302-2.9633-9.3662-7.6994-13.282l-43.312-9.7896c-7.8052 0.21167-14.552 6.8527-16.642 12.965-2.54 3.5719-3.7835 6.8527-2.54 8.1227 0.21167 0.21167 0.84667 0.21167 1.4817-0.10583-1.5875 3.8894-1.27 6.7469-0.10583 6.8527 0.635 0.10583 1.5875-1.0583 2.6458-2.54-1.3758 4.101-0.635 8.2285 0.42333 8.3344 0.635 0 1.3758-0.9525 2.2225-2.6458-0.52917 4.101 0.52917 6.3235 1.0583 6.3235 0.74083 0 1.5875-1.27 2.7517-3.7835-0.10583 6.006 1.905 9.1546 3.1485 9.0752 0.635-0.10583 1.27-0.84667 1.905-2.8575-0.21167 2.4342-0.10583 4.3127 0.84667 4.736 0.84667 0.42333 2.6458-0.42333 4.5244-2.8575-1.1642 2.7517-1.0583 4.8419-0.10583 5.371 1.27 0.74083 3.6777 0 6.7469-3.7835-1.0583 2.3283-1.0583 4.3127-0.42333 4.9477 1.3758 1.27 4.4185 0.21167 7.276-3.0427-0.52917 1.27-0.3175 2.4342 0.10583 2.8575 1.4817 1.27 5.1594 0.42333 8.8635-4.4185-0.74083 2.3283-1.1642 4.736-0.10583 5.1594 0.84667 0.42333 3.0427-0.9525 6.1119-4.3127-0.3175 1.3758-0.42333 2.9633 0.3175 3.1485 0.84667 0.3175 2.8575-0.84666 4.9477-3.2544 0.52917 0.84667 1.5875 1.0583 2.6458 0.42333 1.5875-0.9525 3.1485-2.54 4.6302-4.5244 1.27-0.74083 2.54-1.7992 3.5719-3.2544 3.5454-3.7571 5.3446-8.7048 4.7096-13.864" fill="#fff5d7"/>
  <path class="st1" d="m47.14 49.511c0.21167-0.42333 0.42333-0.74083 0.635-0.9525-3.466-1.27-8.6519-4.8419-12.224-9.6838-2.54-3.2544-4.101-4.8419-6.641-6.4294-3.3602-2.1167-2.6458-4.3127 0.52917-4.6302 6.7469-0.52917 11.589 1.6933 17.489 7.0644 1.4817 1.3758 2.8575 2.0108 4.3127 2.2225 1.1642 0.10583 2.4342-0.10583 3.3602-0.52917 0.84667-0.42333 1.1642-0.9525 0.9525-2.2225-0.74083-3.3602-0.74083-7.1702 0.42333-9.5779l4.8419-8.7577 23.283 5.371-0.42333 9.1546c-0.10583 1.3758-0.52917 3.1485-1.4817 4.4185-1.1642 1.5875-1.5875 2.4342-2.0108 4.101l-0.74083 13.07c-0.10583 0.52917-0.21167 1.0583-0.3175 1.5875l-3.0427 4.101-25.506-1.5875z" fill="#ee86a7"/>
  <path class="st2" d="m66.322 21.386c0-0.635-0.21167-0.9525-1.0583-1.27-3.8894-1.7992-8.0169-1.6933-10.53 0.635-2.1167 1.7992-2.7517 5.4769-1.905 7.6994 0.9525-2.3283 2.9633-3.7835 4.9477-4.4185 1.0583 0.74083 2.0108 1.7992 2.7517 2.4342 1.4817 1.5875 3.7835 1.7992 4.9477-0.21167 0.74083-1.4023 1.0583-2.884 0.84667-4.8683" fill="#f5b2b2"/>
  <path class="st3" d="m87.489 24.852c2.0108-2.9633-0.635-7.3819-5.371-6.5352-0.21167-3.6777-3.2544-5.4769-7.276-3.466-1.0583-3.8894-6.1119-4.736-8.4402-1.4817-2.0108-2.8575-6.9585-2.4342-7.0644 0.52917-3.6777-0.635-5.5827 2.7517-3.1485 5.7944 2.54-1.1642 5.9002-1.0583 9.0752 0.42333 0.74083 0.3175 0.9525 0.52917 1.0583 1.0583 2.4342 2.2225 5.371 2.0108 8.3344-0.42333 0.52917 4.6302 3.7835 6.7469 5.9002 5.0535-0.3175 2.54 1.5875 4.6302 3.1485 4.736 0 1.27-0.52917 3.0427-1.27 4.101 2.3283 0.52917 5.371-0.74083 4.9477-3.5719 2.9633-1.1642 2.7517-5.0535 0.10583-6.2177" fill="#fadce2"/>
  <path class="st4" d="m70.423 24.746c-0.635 2.3283 0 4.4185 1.4817 4.8419 1.3758 0.42333 3.0692-0.74083 3.6777-3.3602-1.561-2.3283-3.7835-2.4342-5.1594-1.4817" fill="#3f3a3c"/>
  <path class="st5" d="m72.54 24.217c-0.52917 1.5875-0.42333 2.9633 0.10583 3.0692 0.52917 0.10583 1.0583-0.9525 1.1642-2.6458-0.42333-0.3175-0.84667-0.42333-1.27-0.42333" fill="#fff"/>
  <path class="st3" d="m79.816 54.141c-1.6933-1.3758-4.4185-1.27-5.9002 0.84667-0.9525-1.7992-2.6458-2.8575-4.3127-2.7517-1.4817 0.21167-2.8575 1.0583-3.8894 2.8575-0.52917-1.7992-1.905-3.0427-3.3602-3.466-1.4552-0.42333-3.1485-0.10583-4.4185 1.3758l-0.42333-0.52917-7.1702-2.0108c-1.1642-1.1642-2.9633-1.27-4.5244-0.52917l-5.6885 5.0535c-0.42333 1.905 2.9633 3.9952 7.6994 1.3758-0.3175 1.6933 0.84667 3.0427 2.7517 3.2544 1.6933 0.21167 4.101-0.52917 6.5352-2.6458-0.42333 3.0427 1.1642 4.8419 3.1485 5.1594 2.0108 0.3175 4.3127-0.635 5.5827-3.1485 1.3758 3.2544 4.101 4.9477 6.3235 4.8419 1.6933-0.10583 3.1485-1.4817 3.1485-4.2069 2.54 2.4342 6.1119 3.8894 7.1702 3.1485 0.79375-0.50271 1.4288-5.4504-2.6723-8.6254" fill="#fadce2"/>
  <path class="st2" d="m64.311 101.37c-0.42333 0.10583-0.74083 0.10583-0.9525 0-1.0583-0.42333-0.635-2.8575 0.10583-5.1594-1.1642 1.5875-2.3283 2.6458-3.3602 3.466-0.52917 1.1642-1.5875 2.2225-2.9633 2.54-2.7517 0.52916-3.0427 2.7517-2.4342 4.5244 1.4817-1.0583 3.466-1.27 4.736-2.4342-0.10583 0.10583 0 0.3175 0 0.635 0.10583 0.84666 0.635 2.0108 1.4817 2.8575 1.4817-0.84667 2.4342-2.1167 2.4342-4.101 1.1642 2.0108 4.5244 2.8575 5.1594 3.466 0.3175-0.9525 0.42333-3.1486-0.42333-4.101-0.82021-1.0848-2.196-1.5875-3.7835-1.6933" fill="#f5b2b2"/>
  <path class="st3" d="m27.957 28.133c-8.0169 0-13.494-1.4817-18.23-5.7944-2.1167-1.7992-3.8894-2.1167-5.1594-1.27-0.9525 0.74083-1.27 2.1167-0.42333 3.9952 1.0583 2.6458 3.466 4.101 6.7469 4.4185 2.54 0.3175 7.3819-0.10583 8.8635-0.10583 1.4817 0 4.5244 0.52917 6.9585 0.52917-0.13229-0.74083 0.39688-1.3758 1.2435-1.7727" fill="#fadce2"/>
  <path class="st0" d="m19.755 29.376c-1.4817 0-6.3235 0.42333-8.8635 0.10583-0.3175 0-0.635-0.10583-0.9525-0.10583-3.9952-0.10583-6.9585 0.74083-8.4402 2.1167-2.0108 1.905-1.4817 3.7835 1.27 4.5244 1.905 0.42333 4.4185 0.10583 7.1702-1.5875 3.8894-2.3283 8.9694-3.9952 14.235-4.6302-1.7992-0.21167-3.4925-0.42333-4.4185-0.42333" fill="#fff5d7"/>
  <path class="st3" d="m26.793 30.223c-5.1594 0.3175-10.107 4.736-12.435 10.53-0.84667 2.2225-2.4342 2.7517-3.5719 2.4342-1.0583-0.3175-1.6933-1.4817-1.4817-2.9633 0.42333-3.466 4.5244-7.5935 9.0752-9.3662 2.0108-0.52917 4.6302-0.9525 5.9002-1.0583 0.9525 0.10583 1.6933 0.10583 2.4342 0.10583z" fill="#fadce2"/>
  <path class="st0" d="m94.13 20.433c1.4817-2.1167 1.7992-3.9952 1.3758-4.9477-0.635-1.0583-2.1167-1.905-3.8894-1.27 1.1642-2.1167 0.52917-4.6302-1.0583-5.2652-0.84667-0.3175-2.1167-0.10583-3.466 0.635 0.74083-2.0108-0.10583-3.8894-1.4817-4.4185-1.3758-0.42333-3.2544 0-5.0535 1.3758 0.3175-2.54-0.42333-4.3127-2.1167-4.736-1.7992-0.52917-3.6777 0.42333-4.736 2.2225 0-2.3283-0.635-3.5719-2.0108-3.6777-1.5875-0.10583-3.6777 1.0583-4.8419 3.9952-0.3175-2.2225-1.27-3.0427-2.54-3.0427s-2.54 1.27-2.9633 2.8575c-0.9525-2.0108-2.2225-2.0108-3.3602-0.52917-0.84667 1.1642-1.27 2.6458-1.27 4.101-1.0583 1.5875-1.1642 4.4185 0.3175 6.4294 0.635-0.3175 1.3758-0.3175 2.3283-0.21167 0.10583-2.9633 5.0535-3.3602 7.0644-0.52917 2.3283-3.2544 7.3819-2.4342 8.4402 1.4817 3.9952-2.0108 7.0644-0.21167 7.276 3.466 4.736-0.84667 7.3819 3.5719 5.371 6.5352 2.6458 1.1642 2.8575 5.0535-0.10583 6.2177v0.10583c2.1167-0.84667 3.1485-1.3758 4.8419-2.2225 1.27-0.635 2.1167-1.6933 2.1167-2.9633 0.9525-0.9525 1.5875-2.3283 1.5875-3.6777-0.02646-1.5081-0.66146-2.249-1.8256-1.9315" fill="#fff5d7"/>
  <path class="st6" d="m58.623 20.116c0.21167 0.3175-0.10583 0.635-0.84667 1.0583-0.635 0.3175-1.27 0.3175-1.3758 0.10583-0.21167-0.3175 0.10583-0.74083 0.84667-1.0583 0.635-0.3175 1.27-0.3175 1.3758-0.10583" fill="#fbdbd9"/>
  <path class="st7" d="m55.368 18.105c0.42333-1.6933 2.4342-2.0108 3.6777-0.84667 0.10583 0.10583 0.21167 0.10583 0.21167 0 1.4817-2.2225 4.736-2.4342 6.8527 0.10583 0.10583 0.10583 0.10583 0.10583 0.21167 0 2.54-2.3283 6.8527-1.7992 8.2285 0.9525 0.10583 0.10583 0.10583 0.21167 0.21167 0.10583 3.1485-1.1642 5.7944 0.21167 6.641 3.2544 0 0.10583 0.10583 0.21167 0.21167 0.10583 2.54-0.21167 4.6302 1.27 4.736 4.101 0 0 0 0.10583 0.10583 0.10583 2.1167 1.0583 2.4342 3.1485 0.9525 5.0535 0 2.7517-1.905 3.9952-4.9477 3.466 0.74083-1.27 1.27-2.6458 1.27-3.9952-1.905-0.3175-3.1485-2.0108-3.1485-4.6302-2.3283 1.6933-5.2652-0.635-5.9002-5.1594-2.54 2.2225-6.006 2.9633-8.3344 0.42333-0.10583-0.52917-0.3175-0.84667-0.9525-1.0583-3.1485-1.3758-6.1119-1.6933-9.1546-0.42333-0.44979-0.50271-0.76729-1.0319-0.87312-1.561" fill="#d8bec4"/>
  <path class="st8" d="m90.875 15.168c2.6458-0.635 5.1594 0.52917 3.5719 4.6302-0.52917 0.74083-0.635 0.9525-0.9525 1.4817 1.5875-0.52917 2.7517 1.6933 0.84667 4.6302-0.10583 1.3758-0.635 2.3283-1.7992 2.8575-1.1642 0.635-3.3602 1.5875-4.6302 2.1167 2.1167-1.5875 2.3283-4.4185-0.3175-6.006 1.905-3.2544-0.84667-7.1702-5.4769-6.5352-0.21167-4.4185-4.3127-5.0535-7.276-3.5719-1.1642-4.101-6.3235-4.4185-8.4402-1.3758-2.8575-3.3602-7.0644-2.0108-7.1702 0.52917-0.74083-0.10583-1.5875 0-2.3283 0.10583-0.21167-0.42333-0.42333-0.84667-0.74083-1.5875 0-1.1642 0.3175-2.3283 0.84667-2.8575 0.10583 0.74083 0.3175 1.5875 0.74083 2.3283 1.1642 0.10583 2.8575-0.52917 4.101-1.7992 1.1642 1.0583 3.466 1.27 4.8419 0.3175 1.3758 1.1642 3.7835 0.74083 5.5827 0.21167 0.74083 1.4817 3.6777 2.3283 5.6885 1.6933 0.3175 1.27 2.54 2.8575 5.2652 2.7517 0.47625 2.0638 3.8629 4.3921 7.6465 0.07937" fill="#dcd4bb"/>
 </g>
 <g fill="#cf7492" stroke-width=".26458">
  <path class="st9" d="m81.271 36.335c-0.42333-4.2069-2.7517-7.1702-5.9002-9.0752 0.21167-0.9525 0.42333-1.905 0.52917-2.8575 1.3758 2.2225 3.1485 2.4342 4.6302 1.4817 0 2.0108 0.84667 4.2069 3.1485 4.6302-0.07937 3.2015-1.2435 3.9158-2.4077 5.8208"/>
  <path class="st9" d="m70.317 25.169c-1.3758-0.42333-2.7517-0.635-4.2069-0.74083 0.21167-1.0583 0.3175-2.8575 0.21167-3.7835 1.0583 1.1642 3.1485 2.4342 5.1594 1.7992-0.52917 0.82021-0.84667 1.561-1.1642 2.7252"/>
  <path class="st9" d="m58.94 24.958c-1.27 0.3175-2.54 0.74083-3.466 1.3758 0.10583-0.52917 0.21167-1.1642 0.3175-1.4817 0.635-0.3175 1.27-0.635 1.905-0.84667 0.50271 0.21167 0.82021 0.52917 1.2435 0.9525"/>
 </g>
 <path class="st10" d="m57.67 24.005c0.9525 0.74083 2.1167 1.6933 2.8575 2.54 1.4817 1.7992 4.2069 1.4817 5.0535-0.635-1.27-2.4342-5.0535-2.9633-7.911-1.905" fill="#d49a9c" stroke-width=".26458"/>
 <g fill="#cf7492" stroke-width=".26458">
  <path class="st9" d="m27.322 28.741c-0.3175 0.9525 0.10583 1.7992 2.0108 2.7517 2.9633 1.5875 6.006 4.101 7.8052 6.2177 2.2225 2.8575 4.2069 3.8894 6.7469 4.5244-0.9525 0.9525-1.5875 1.6933-2.1167 2.8575-2.4342-1.7992-4.9477-4.3127-6.4294-6.4294-1.4817-2.0108-5.1594-5.4769-6.4294-6.2177-2.3283-1.1642-2.6458-3.175-1.5875-3.7042"/>
  <path class="st9" d="m46.505 48.135 1.1642 0.42333-0.52917 0.9525c1.0583-0.10583 2.1167 0 3.1485 0.9525-0.42333-2.8575 0.74083-6.641 3.2544-8.6519-2.831 0.9525-5.6621 3.7042-7.0379 6.3235"/>
  <path class="st9" d="m56.612 48.453c3.5719 2.0108 10.53 3.0427 16.642 2.9633 2.2225 0 2.8575-0.9525 0.74083-2.9633 2.1167 1.7992 3.5719 2.9633 5.4769 3.6777l-0.3175 1.4817c-1.5875-0.74083-3.8894-0.52917-5.2652 1.3758-2.1167-3.8894-6.4294-3.1485-8.2285 0-1.7992-4.101-5.5827-4.5244-7.6994-2.0108l-0.52917-0.42333c0.02646-1.2435-0.82021-3.5719-0.82021-4.101"/>
 </g>
 <g fill="#d8bec4" stroke-width=".26458">
  <path class="st7" d="m47.775 56.364c-4.2069 2.6458-8.2285 0.635-7.6994-1.27 1.4817 1.905 4.4185 0.52917 5.0535-2.3283 0.10583-0.9525 0.3175-1.7992 0.635-2.8575 1.6933-0.74083 3.0427-0.635 4.5244 0.3175 0.10583 1.1642 0.74083 2.4342 1.4817 3.3602-3.2544 0.635-4.3127 4.101-1.6933 4.736 1.7992 0.42333 4.2069 0.10583 6.9585-1.6933-2.2225 2.3283-5.1594 3.466-7.4877 2.7517-1.3494-0.39688-1.9844-1.6404-1.7727-3.0162"/>
  <path class="st7" d="m75.265 58.798v0.84667c2.1167 1.905 5.0535 3.7835 6.9585 3.2544 0.9525-0.3175 1.7992-3.9952-1.4817-7.911-1.905-2.3283-4.8419-2.54-6.8527-0.10583-2.2225-3.7835-6.3235-3.1485-8.2285 0.10583-1.6933-4.5244-6.006-4.3127-7.6994-2.0108l-0.52917-0.52917c0.10583 1.0583-0.52917 2.2225-1.27 2.54 0.21167 0.21167 0.52917 0.42333 0.74083 0.635 0.21167 0.21167 0.3175 0.21167 0.635-0.10583 2.0108-2.2225 5.4769-2.3283 7.911 0.84667 0.21167 0.3175 0.3175 0.3175 0.52917 0 2.0108-2.6458 5.4769-2.8575 8.4402-0.3175l-0.3175-0.84667c1.0583-1.27 4.4185-1.6933 6.3235 1.27 2.3283 3.466 0.02646 5.6885-5.1594 2.3283"/>
  <path class="st7" d="m57.141 57.21c0.3175 4.8419 6.1119 4.9477 8.3344 2.0108-0.84667 2.2225-2.8575 3.1485-5.1594 2.9633-2.3283-0.23812-3.5983-2.7781-3.175-4.9742"/>
  <path class="st7" d="m66.216 59.512c4.2069 5.371 8.4402 3.3602 8.9694 0.10583 0.21167 2.7517-1.3758 3.9952-2.8575 4.2069-1.905 0.23812-4.736-1.1377-6.1119-4.3127"/>
 </g>
 <g fill="#dcd4bb" stroke-width=".26458">
  <path class="st8" d="m82.118 92.611c1.905-0.84667 2.7517-2.0108 3.7835-3.5719 7.911-7.5935 4.9477-20.241-3.1485-26.564-0.21167 0.42333-0.9525 0.74083-2.1167 0.3175-2.2225-0.74083-4.101-1.905-5.371-3.1485 0 1.4817-0.52917 2.8575-1.3758 3.466 1.1642 1.905 1.6933 5.4769 1.0583 8.9694 2.2225 0.84667 2.8575 10.319 0.9525 14.764 0.9525-1.3758 2.6458-6.006 2.8575-8.546 3.1485 4.5244-2.2225 16.007-6.641 19.923-1.0583 0.9525-2.3283 1.4817-2.6458 0.635-0.42333 1.27 0.42333 1.7992 1.7992 0.9525 1.4817-0.74083 2.1167-1.3758 3.466-2.7517 0.52917 0.84667 1.6933 1.0583 3.3602-0.10583"/>
  <path class="st8" d="m19.941 71.418c0 1.0583 0.9525 1.0583 1.6933-0.10583 1.905-2.9633 4.101-5.5827 6.8527-7.1702-3.0427 3.1485-5.371 6.1119-6.8527 9.5779-1.1642 0.44979-2.4077-0.07937-1.6933-2.3019"/>
  <path class="st8" d="m20.787 78.694c0.42333 1.1642 1.4817 0.84667 3.7835-1.905l-0.42333 1.1642c-0.9525 1.5875-1.905 2.54-2.54 2.54-0.71438 0-1.0319-0.74083-0.82021-1.7992"/>
  <path class="st8" d="m23.645 83.96c0.21167 0.9525 0.635 1.1642 0.84667 1.1642 0.3175 0 0.9525-0.635 1.4817-1.7992 0.21167-0.42333 1.1642-4.3127 2.8575-6.5352-1.0583 2.8575-1.6933 4.8419-2.0108 6.9585-0.9525 1.5875-1.7992 2.54-2.1167 2.54-0.42333 0-1.1642-0.9525-1.0583-2.3283"/>
  <path class="st8" d="m27.217 88.722c0.52917 1.0583 1.905-0.84667 3.3602-3.8894v1.27c-1.0583 2.3283-2.0108 3.8894-2.7517 3.8894-0.18521 0.07937-0.60854-0.55562-0.60854-1.27"/>
  <path class="st8" d="m31.979 93.141c1.1642 1.905 2.6458 1.7992 3.8894-2.6458-0.21167 2.54-1.0583 4.6302-2.1167 4.736-0.635 0.02646-1.27-0.50271-1.7727-2.0902"/>
  <path class="st8" d="m35.868 95.257c0.635 2.1167 3.0427 0.84667 5.9002-2.2225-1.6933 2.8575-3.7835 4.3127-4.9477 4.101-0.74083 0-1.1642-0.635-0.9525-1.8785"/>
  <path class="st8" d="m40.499 97.03c0 1.905 1.3758 2.3283 3.2544 1.0583 3.1485-2.2225 6.2177-6.006 8.3344-9.5779-2.9633 6.4294-7.1702 10.954-9.6837 11.377-1.905 0.3175-2.3283-0.84667-1.905-2.8575"/>
  <path class="st8" d="m47.034 98.935c0.10583 1.1642 0.9525 1.905 2.54 1.27 2.1167-0.84666 3.8894-1.905 5.9002-3.8894-1.5875 2.7517-4.101 4.6302-6.006 4.9477-2.0108 0.3175-2.8575-0.42334-2.4342-2.3283"/>
  <path class="st8" d="m54.522 98.618c0.21167 2.0108 3.6777 2.9633 9.1546-2.9633-2.2225 3.7835-5.1594 5.2652-6.9585 5.371-1.8785 0.23813-2.7252-0.60854-2.196-2.4077"/>
  <path class="st8" d="m62.935 99.464c0.21167 1.905 4.2069 0 7.3819-3.6777-2.0108 2.7517-4.2069 4.6302-5.5827 5.371-1.3758 0.71438-2.0902 0.10584-1.7992-1.6933"/>
 </g>
 <g fill="#d49a9c" stroke-width=".26458">
  <path class="st10" d="m64.205 101.58c2.9633 0.84666 3.8894 2.4342 4.2069 5.371-1.3758-0.635-3.3602-1.27-5.0535-3.1485 0 1.6933-0.9525 3.466-2.3283 3.9952-0.84667-0.74084-1.6933-2.0108-1.6933-3.3602-0.9525 0.84666-3.7835 1.5875-4.736 2.3283-0.42333-2.6458 0.3175-4.101 2.6458-4.6302 1.27-0.3175 2.1167-1.0583 2.8575-2.4342 1.3758-1.1642 2.4342-2.1167 3.3602-3.3602-1.3494 3.7571-0.74083 5.3181 0.74083 5.2388"/>
  <path class="st10" d="m41.028 94.305c-0.84667 1.0583-1.6933 1.905-2.54 2.3283-0.42333 0.635-0.74083 1.27-0.74083 1.6933-0.10583 0.84667 0.52917 4.4185 1.5875 4.8419 0.74083-0.84667 1.0583-2.4342 0.9525-4.3127-0.21167-0.97896-0.10583-2.6723 0.74083-4.5508"/>
  <path class="st10" d="m40.922 99.676c0.74083 2.0108 2.0108 3.466 3.2544 4.3127 0.52917-1.0583 0.3175-2.9633 0-4.8419-1.3494 0.84667-2.5135 0.9525-3.2544 0.52917"/>
  <path class="st10" d="m47.246 100.84c-0.635-0.635-0.635-2.6458 0.42333-4.9477-1.0583 1.3758-2.1167 2.3283-2.9633 2.9633 0.84667 0.635 1.27 1.4817 1.7992 2.7517 0.42333 0.74083 0.635 1.4817 1.0583 1.6933 0.52917-0.3175 0.84667-1.1642 0.9525-2.0108-0.52917-0.0265-0.9525-0.23813-1.27-0.4498"/>
 </g>
 <path class="st9" d="m74.656 20.751c-1.0583 0.9525-2.1167 1.4817-3.1485 1.7992-0.42333 0.74083-0.84667 1.4817-1.0583 2.2225 1.3758-0.9525 3.5719-0.84667 5.1594 1.4817 0.21167-0.52917 0.21167-1.0583 0.3175-1.6933-0.66146-0.97896-1.1642-2.249-1.27-3.81" fill="#cf7492" stroke-width=".26458"/>
 <g fill="#0f141b" stroke-width=".26458">
  <path class="st11" d="m76.112 24.852c-0.3175 3.8894-2.54 5.5827-4.3127 5.0535-2.1167-0.635-2.6458-4.4185-0.635-7.3819l0.74083-0.10583c-2.3283 3.0427-1.5875 6.4294 0.10583 6.9585 1.6933 0.52917 3.466-1.5875 3.5719-5.2652z"/>
  <path class="st11" d="m75.582 26.545c-1.5875-2.3283-3.8894-2.6458-5.2652-1.4817l0.21167-0.74083c1.4817-0.84667 3.6777-0.52917 5.1594 1.5875z"/>
  <path class="st11" d="m57.988 23.899c0.9525 0.52917 1.905 1.4817 2.7517 2.4342 1.3758 1.4817 3.466 1.5875 4.4185-0.3175 0.74083-1.27 1.0583-2.6458 0.9525-4.5244-0.10583-0.52917-0.21167-0.74083-0.9525-1.0583-3.8894-1.7992-7.8052-1.5875-10.213 0.52917-1.905 1.5875-2.54 4.736-2.1167 6.8527 1.3758-2.7517 3.9952-4.3127 7.1702-4.5244 2.3283-0.10583 4.6302 0.635 5.7944 2.3283l-0.3175 0.635c-0.9525-1.7992-3.2544-2.54-5.4769-2.4342-2.8575 0.21167-5.2652 1.6933-6.5352 3.9952-0.74083 1.0583-0.9525 0.84667-1.1642-0.21167-0.42333-2.3283 0.3175-5.4769 2.2225-7.0644 2.54-2.2225 6.8527-2.54 10.954-0.635 0.84667 0.3175 1.0583 0.52917 1.1642 1.4817 0.10583 2.0108-0.21167 3.6777-0.9525 5.0535-1.1642 2.1167-3.7835 2.0108-5.371 0.21167-1.0583-1.0583-1.905-1.905-2.9633-2.54z"/>
  <path class="st11" d="m46.822 49.511c0.10583-0.3175 0.21167-0.52917 0.42333-0.84667-3.2544-1.27-8.3344-4.736-12.012-9.5779-2.6458-3.3602-3.9952-4.8419-6.4294-6.3235-3.6777-2.3283-2.7517-4.8419 0.635-5.1594 6.4294-0.635 11.483 1.3758 17.701 6.9585 2.6458 2.4342 5.2652 2.6458 7.3819 1.6933 0.74083-0.42333 0.9525-0.74083 0.74083-1.7992-0.74083-3.5719-0.74083-6.9585 0.21167-9.2604l0.84667-0.52917c-1.0583 2.2225-1.27 6.006-0.42333 9.6837 0.21167 1.27-0.10583 2.0108-1.1642 2.54-2.1167 0.9525-5.2652 0.84667-8.0169-1.6933-6.2177-5.5827-10.954-7.5935-17.277-7.0644-2.9633 0.3175-3.3602 2.2225-0.3175 4.101 2.4342 1.4817 3.9952 3.0427 6.641 6.5352 3.6777 4.8419 8.7577 8.3344 12.012 9.4721 0.3175 0.10583 0.3175 0.21167 0.10583 0.52917-0.10583 0.21167-0.21167 0.42333-0.3175 0.74083z"/>
  <path class="st11" d="m84.023 30.646c-0.10583 1.27-0.635 3.1485-1.5875 4.5244-1.1642 1.5875-1.4817 2.3283-1.905 3.9952l-0.635-0.21167c0.42333-1.7992 0.9525-2.6458 2.0108-4.2069 0.9525-1.27 1.3758-2.9633 1.4817-4.2069z"/>
  <path class="st11" d="m66.216 20.327c2.4342 2.3283 5.2652 2.6458 8.1227 0.3175 0.42333-0.21167 0.42333-0.10583 0.52917 0.3175 0.42333 2.8575 1.7992 4.4185 3.0427 4.9477 0.84667 0.3175 1.6933 0.3175 2.4342-0.21167 0.3175-0.21167 0.52917-0.21167 0.42333 0.21167-0.10583 2.54 1.5875 4.3127 3.0427 4.4185 0.84667 0.10583 0.84667 0.42333 0 0.42333-1.6933 0.10583-3.5719-1.7992-3.466-4.5244-0.635 0.52917-1.7992 0.635-2.6458 0.21167-1.6933-0.74083-2.9633-2.7517-3.2544-5.2652-2.8575 2.3283-5.7944 2.0108-8.1227-0.10583z"/>
  <path class="st11" d="m82.647 34.35c2.3283 0.52917 4.736-0.84667 4.4185-3.1485l0.52917-0.21167c0.52917 3.0427-2.6458 4.5244-5.371 3.8894z"/>
  <path class="st11" d="m87.594 24.64c1.3758 0.52917 2.2225 1.905 2.2225 3.3602 0 1.4817-0.9525 2.8575-2.54 3.2544-0.74083 0.21167-0.84667-0.10583-0.10583-0.42333 1.27-0.52917 2.0108-1.4817 2.1167-2.8575 0-1.3758-0.74083-2.4342-1.905-2.9633z"/>
  <path class="st11" d="m82.118 17.999c2.6458-0.3175 4.6302 0.635 5.5827 2.2225 1.0583 1.4817 0.9525 3.3602 0 4.736-0.52917 0.74083-0.84667 0.635-0.3175-0.21167 0.84667-1.3758 0.74083-2.8575-0.10583-4.2069-0.9525-1.4817-2.8575-2.4342-5.1594-2.0108z"/>
  <path class="st11" d="m74.762 14.639c2.0108-1.0583 3.9952-1.1642 5.4769-0.21167 1.27 0.74083 2.1167 2.1167 2.1167 3.7835 0 1.0583-0.3175 1.0583-0.42333 0-0.10583-1.4817-0.84667-2.6458-2.0108-3.3602-1.3758-0.74083-3.1485-0.74083-5.0535 0.21167z"/>
  <path class="st11" d="m74.656 14.956c-0.42333-1.6933-1.6933-2.8575-3.3602-3.2544-1.905-0.3175-3.6777 0.42333-4.8419 1.905-0.52917 0.84667-0.84667 0.635-0.3175-0.21167 1.1642-1.7992 3.1485-2.6458 5.2652-2.2225 1.905 0.3175 3.2544 1.7992 3.6777 3.6777 0.07937 0.9525-0.21167 1.0583-0.42333 0.10583"/>
  <path class="st11" d="m66.216 13.475c-1.0583-1.5875-3.2544-2.1167-4.8419-1.5875-1.27 0.3175-1.7992 1.0583-1.7992 2.2225-0.10583 0.9525-0.42333 0.9525-0.42333 0-0.10583-1.3758 0.74083-2.4342 2.0108-2.8575 1.7992-0.42333 4.101 0 5.371 1.905z"/>
  <path class="st11" d="m56.003 19.798c-1.1642-1.3758-1.4817-3.1485-0.74083-4.6302 0.74083-1.27 2.2225-1.7992 4.101-1.4817v0.42333c-1.6933-0.21167-2.9633 0.3175-3.5719 1.3758-0.74083 1.27-0.42333 2.8575 0.74083 4.101z"/>
  <path class="st11" d="m87.383 30.858c4.4185-1.4817 6.5352-3.0427 6.641-4.6302l0.635-0.42333c0 2.6458-2.7517 4.3127-7.276 5.5827z"/>
  <path class="st11" d="m89.499 28.133c0.3175-0.10583 0.52917-0.10583 0.84667-0.21167 0.84667-0.21167 0.9525 0.21167 0.10583 0.42333-0.3175 0.21167-0.635 0.21167-0.9525 0.3175z"/>
  <path class="st11" d="m94.236 20.116c1.1642-0.21167 2.0108 0.42333 2.0108 2.2225 0 2.2225-1.4817 4.2069-3.6777 5.2652-0.9525 0.42333-1.1642 0.10583-0.21167-0.3175 2.0108-1.0583 3.2544-3.0692 3.2544-4.9477 0.10583-1.5875-0.635-1.905-1.6933-1.5875z"/>
  <path class="st11" d="m91.722 13.898c1.6933-0.42333 3.2544 0 3.9952 1.4817 0.635 1.27 0 3.466-1.6933 5.5827-0.74083 0.9525-1.0583 0.74083-0.42333-0.21167 1.6933-2.4342 2.1167-4.2069 1.5875-5.0535-0.635-1.27-2.1167-1.7992-3.7835-1.1642z"/>
  <path class="st11" d="m87.171 9.2677c1.27-0.74083 2.6458-0.9525 3.466-0.52917 1.905 0.635 2.54 3.7835 0.84667 6.006-0.635 0.84667-0.9525 0.74083-0.3175-0.21167 1.3758-2.2225 0.74083-4.736-0.74083-5.2652-0.84667-0.3175-2.3283-0.10583-3.3602 0.635z"/>
  <path class="st11" d="m80.557 6.1986c1.7992-1.3758 3.6777-1.7992 5.1594-1.27 1.6933 0.52917 2.3283 2.9633 1.5875 4.736-0.42333 1.0583-0.74083 0.9525-0.42333-0.10583 0.52917-1.7992-0.10583-3.6777-1.3758-4.101-1.3758-0.52917-3.2544 0-4.9477 1.3758z"/>
  <path class="st11" d="m73.598 3.685c1.27-1.7992 3.1485-2.6458 4.8419-2.2225 1.905 0.52917 2.7517 2.4342 2.2225 5.2652-0.10583 0.9525-0.52917 0.9525-0.3175-0.10583 0.21167-2.4342-0.3175-4.101-2.0108-4.6302-1.6933-0.42333-3.5719 0.635-4.6302 2.4342z"/>
  <path class="st11" d="m66.745 3.8967c1.27-2.9633 3.466-3.9952 4.9477-3.8894 1.4817 0.10583 2.3283 1.4817 2.2225 3.9952-0.10583 1.0583-0.42333 1.0583-0.52917 0.10583 0-2.4342-0.635-3.466-1.7992-3.466-1.3758-0.10583-3.3602 0.9525-4.6302 3.9952z"/>
  <path class="st11" d="m64.311 1.5683c-1.1642 0-2.4342 1.27-2.8575 2.8575l-0.3175-0.635c0.635-1.5875 1.905-2.8575 3.2544-2.8575 1.4817 0 2.3283 1.0583 2.6458 3.2544 0.10583 0.9525-0.3175 0.9525-0.42333 0.10583-0.39688-2.196-1.2435-2.7252-2.3019-2.7252"/>
  <path class="st11" d="m56.823 9.7969c-0.635-2.3283-0.3175-4.6302 0.9525-6.3235 1.3758-1.7992 2.8575-1.4817 3.6777 0.42333 0.42333 0.9525 0.10583 1.1642-0.3175 0.21167-0.84667-1.5875-1.7992-1.7992-2.9633-0.3175-1.1642 1.5875-1.4817 3.7835-0.9525 5.9002 0.34396 1.0319-0.07937 1.1377-0.39688 0.10583"/>
  <path class="st11" d="m56.823 8.2094c-0.9525 1.5875-0.84667 3.9952 0.42333 5.7944l-0.42333 0.10583c-1.5875-2.0108-1.4817-5.1594-0.10583-6.8527z"/>
  <path class="st11" d="m58.517 13.898c-0.3175-0.52917-0.42333-0.84667-0.635-1.27-0.52917-1.1642-0.21167-1.27 0.3175-0.21167 0.21167 0.42333 0.42333 0.84667 0.74083 1.3758z"/>
  <path class="st11" d="m61.903 11.464c-0.21167-0.84667-0.42333-1.6933-0.52917-2.54-0.10583-1.27 0.21167-1.3758 0.42333-0.10583 0.10583 0.9525 0.3175 1.6933 0.635 2.6458z"/>
  <path class="st11" d="m66.639 13.051c-0.21167-1.1642-0.21167-2.8575-0.10583-4.5244 0-1.1642 0.42333-1.1642 0.42333 0-0.10583 1.6933 0 2.9633 0.10583 3.9952z"/>
  <path class="st11" d="m71.905 11.57c0.21167-1.1642 0.42333-2.2225 0.635-3.3602s0.635-1.0583 0.42333 0.10583c-0.21167 1.0583-0.42333 2.2225-0.52917 3.466z"/>
  <path class="st11" d="m76.641 14.215c0.74083-1.0583 1.0583-1.7992 1.6933-2.9633 0.52917-1.1642 0.84667-0.9525 0.3175 0.21167-0.52917 1.1642-0.84667 1.7992-1.3758 2.6458z"/>
  <path class="st11" d="m81.8 16.729c0.84667-1.0583 1.3758-1.905 2.0108-2.8575 0.52917-0.9525 0.84667-0.74083 0.3175 0.21167-0.635 1.0583-1.27 2.0108-2.1167 3.2544z"/>
  <path class="st11" d="m86.457 19.269c0.635-0.42333 1.27-0.84667 1.905-1.4817 0.84667-0.74083 1.0583-0.42333 0.3175 0.3175s-1.27 1.0583-1.7992 1.4817z"/>
  <path class="st11" d="m87.806 24.323c0.9525-0.21167 1.7992-0.52917 2.6458-1.0583 0.84667-0.52917 1.0583-0.21167 0.21167 0.3175-0.9525 0.635-1.905 1.0583-3.0692 1.27z"/>
  <path class="st11" d="m26.793 30.223c-1.7992 0-5.4769-0.52917-7.0644-0.52917s-6.4294 0.42333-8.9694 0.10583c-3.466-0.3175-5.7944-2.0108-6.9585-4.6302-0.84667-2.0108-0.52917-3.466 0.635-4.3127 1.27-0.9525 3.2544-0.635 5.371 1.27 4.5244 4.101 9.7896 5.7944 18.653 5.7944l-0.9525 0.52917c-8.3344-0.10583-13.6-1.905-18.018-5.9002-2.1167-1.7992-3.7835-1.905-4.736-1.1642-0.9525 0.635-1.1642 1.905-0.42333 3.5719 0.9525 2.2225 3.1485 3.7835 6.5352 4.2069 2.6458 0.3175 7.3819-0.10583 8.8635 0 1.5875 0 4.736 0.42333 6.9585 0.52917z"/>
  <path class="st11" d="m78.863 53.506c0.10583-0.52917 0.10583-0.9525 0.21167-1.5875l0.74083 0.3175c-0.10583 0.635-0.21167 1.0583-0.3175 1.6933z"/>
  <path class="st11" d="m73.81 54.776c1.3758-2.1167 4.2069-2.4342 6.2177-0.84667 4.2069 3.2544 3.5719 8.4402 2.54 9.1546-0.9525 0.635-4.6302-0.635-7.276-3.2544v-0.52917c2.54 2.54 6.006 3.8894 6.9585 3.2544 0.74083-0.42333 1.3758-5.1594-2.6458-8.2285-1.7992-1.3758-4.2069-1.0583-5.5827 0.84667z"/>
  <path class="st11" d="m25.126 29.905c-5.371 0.52917-10.742 2.3283-15.081 4.8419-2.8575 1.6933-5.4769 2.0108-7.3819 1.4817-2.8575-0.74083-3.5719-2.8575-1.3758-4.9477 1.3758-1.3758 4.101-2.1167 7.6994-2.2225l1.905 0.635c-4.3127-0.21167-7.6994 0.52917-9.1546 2.0108-1.905 1.7992-1.27 3.3602 1.1642 3.9952 1.905 0.42333 4.3127 0 6.8527-1.4817 3.5719-2.2225 8.546-3.8894 13.282-4.6302z"/>
  <path class="st11" d="m26.899 30.54c-4.9477 0.21167-9.8954 4.4185-12.33 10.319-0.9525 2.54-2.7517 2.8575-3.8894 2.54-1.27-0.3175-1.905-1.6933-1.6933-3.2544 0.42333-3.0427 3.8894-6.8527 7.6994-8.7577l2.9633-0.74083c-4.9477 1.5875-9.5779 5.9002-10.107 9.5779-0.21167 1.3758 0.42333 2.4342 1.27 2.6458 1.0583 0.3175 2.4342-0.10583 3.2544-2.2225 2.54-6.006 7.6994-10.425 12.753-10.636z"/>
  <path class="st11" d="m57.776 52.765c1.1642-1.3758 2.9633-1.905 4.6302-1.4817 1.4817 0.42333 2.7517 1.6933 3.2544 3.2544 1.0583-1.4817 2.4342-2.4342 3.8894-2.54 1.905-0.21167 3.7835 1.0583 4.736 3.1485 0.42333 1.0583 0.10583 1.27-0.42333 0.21167-0.9525-1.905-2.6458-2.9633-4.3127-2.8575-1.3758 0.21167-2.7517 1.0583-3.6777 2.54-0.21167 0.42333-0.3175 0.42333-0.42333 0-0.52917-1.5875-1.7992-2.7517-3.2544-3.1485-1.4817-0.52917-3.1485 0-4.2069 1.27z"/>
  <path class="st11" d="m54.204 51.204c-1.5875 0-3.0427 0.635-4.2069 1.7992-0.635 0.74083-0.9525 0.52917-0.21167-0.3175 1.0583-1.3758 2.7517-2.1167 4.4185-2.1167 1.6933 0 3.2544 0.9525 3.8894 2.4342 0.42333 0.84667 0 1.0583-0.3175 0.21167-0.635-1.27-1.9844-2.1167-3.5719-2.0108"/>
  <path class="st11" d="m50.421 50.887c-1.0583-1.27-2.9633-1.4817-4.736-0.635l0.21167-0.635c1.5875-0.74083 3.2544-0.52917 4.4185 0.42333z"/>
  <path class="st11" d="m47.669 56.681c-3.1485 1.6933-6.006 1.3758-7.276 0.10583-0.52917-0.52917-0.74083-1.3758-0.52917-2.0108l0.42333 0.42333c0 0.42333 0.10583 0.84667 0.52917 1.1642 1.1642 1.1642 3.7835 1.4817 6.9585-0.21167z"/>
  <path class="st11" d="m65.793 59.512c-1.3758 2.4342-3.7835 3.2544-5.5827 2.9633-1.7992-0.3175-3.6777-1.7992-3.466-4.9477-2.1167 1.6933-4.3127 2.6458-6.3235 2.4342-2.2225-0.3175-3.2544-1.905-2.8575-3.6777 0.21167-0.9525 0.52917-0.84667 0.42333 0.10583-0.3175 1.5875 0.84667 2.7517 2.54 2.9633 1.905 0.21167 4.2069-0.74083 6.3235-2.54 0.3175-0.3175 0.42333-0.21167 0.42333 0.21167-0.3175 3.0427 1.3758 4.6302 3.0692 4.8419 1.6933 0.3175 3.8894-0.42333 5.1594-2.8575 0.21167-0.3175 0.3175-0.42333 0.52917 0 1.4817 3.2544 4.2069 4.6302 6.006 4.5244 2.0108-0.10583 3.0692-1.6933 3.0692-4.101 0-0.84667 0.42333-0.84667 0.42333 0 0.10583 2.3283-0.84667 4.5244-3.3602 4.736-1.9579 0-4.789-1.1642-6.3765-4.6567"/>
  <path class="st11" d="m22.163 66.153c2.0108-6.7469 9.2604-13.6 17.171-13.917l0.10583 0.74083c-7.3819 0.21167-13.811 6.006-16.219 12.012z"/>
  <path class="st11" d="m21.528 73.958c-0.635 0.3175-1.3758 0.3175-1.6933 0-2.6458-2.6458 4.5244-13.07 11.906-17.171 1.3758-0.74083 1.5875-0.42333 0.21167 0.42333-7.6994 4.6302-13.705 14.34-11.695 16.219 0.3175 0.3175 0.9525 0.3175 1.4817-0.21167z"/>
  <path class="st11" d="m24.068 78.589c-0.9525 1.4817-1.905 2.2225-2.54 2.2225-2.6458-0.21167-1.6933-9.7896 7.5935-17.277 1.0583-0.84667 1.3758-0.52917 0.3175 0.3175-8.9694 7.6994-9.3662 16.219-7.911 16.325 0.52917 0.10583 1.5875-0.9525 2.8575-2.9633z"/>
  <path class="st11" d="m26.793 84.277c-1.0583 1.905-1.6933 2.3283-2.2225 2.3283-1.4817-0.10583-2.1167-4.9477-0.3175-9.2604 0.42333-1.1642 0.74083-1.0583 0.3175 0.10583-1.6933 4.5244-0.74083 8.546 0 8.546 0.42333 0 1.1642-0.74083 2.3283-2.8575z"/>
  <path class="st11" d="m27.852 90.283c-1.4817 0-3.6777-7.4877 3.8894-18.653 0.74083-1.1642 1.0583-0.9525 0.3175 0.21167-7.4877 11.695-4.736 17.806-4.2069 17.806 0.52917 0 1.3758-0.9525 2.7517-4.101v1.27c-1.1642 2.4342-2.0108 3.466-2.7517 3.466"/>
  <path class="st11" d="m30.392 85.759c0.10583-1.4817 0.52917-1.4817 0.42333 0-0.21167 6.3235 1.905 9.2604 2.9633 9.1546 0.52917-0.10583 1.3758-0.84667 2.0108-3.7835 0.3175-1.5875 0.635-1.4817 0.3175 0.10583-0.52917 3.1485-1.4817 4.2069-2.3283 4.2069-1.614 0.21167-3.7042-3.3602-3.3867-9.6838"/>
  <path class="st11" d="m35.974 91.553c-0.3175 2.6458-0.21167 4.8419 0.635 5.2652 0.9525 0.42333 2.9633-0.635 4.9477-3.6777 0.84667-1.0583 1.1642-0.9525 0.42333 0.3175-2.4342 3.5719-4.6302 4.4185-5.5827 3.8894-0.84667-0.3175-1.27-1.5875-1.0583-4.2069z"/>
  <path class="st11" d="m41.663 93.458c-1.4817 3.1485-1.4817 5.4769-0.635 5.9002 1.7992 0.9525 6.006-0.84667 11.589-11.8 0.52917-1.0583 0.84667-0.84667 0.3175 0.21167-5.5827 11.377-10.107 13.282-12.118 12.118-1.0583-0.52917-1.1642-2.6458-0.21167-5.0535z"/>
  <path class="st11" d="m48.198 95.257c-1.3758 2.6458-1.27 4.8419-0.74083 5.371 1.4817 1.27 5.0535-0.3175 7.911-4.2069 0.635-0.9525 0.9525-0.74083 0.3175 0.3175-3.2544 4.5244-7.0644 5.6885-8.6519 4.3127-0.635-0.635-0.635-2.54 0.10583-4.6302z"/>
  <path class="st11" d="m55.051 97.136c-0.84667 1.3758-0.635 2.8575-0.21167 3.2544 1.27 1.1642 4.9477 0.42334 8.7577-4.6302 0.74083-0.9525 1.0583-0.74083 0.3175 0.21167-3.7835 5.371-7.911 6.3235-9.4721 4.8419-0.52917-0.52917-0.635-1.5875-0.3175-2.6458z"/>
  <path class="st11" d="m63.782 96.078c-0.9525 2.54-1.0583 4.6302-0.3175 5.0535 0.84667 0.3175 3.3602-1.3758 6.8527-5.4769 0.84667-0.9525 1.1642-0.74083 0.3175 0.3175-3.1485 4.101-6.2177 6.2177-7.3819 5.6885-1.1642-0.52916-0.9525-2.8575-0.21167-4.9477z"/>
  <path class="st11" d="m69.788 96.713c-0.52917 2.4342-0.21167 3.0427 0.10583 3.1485 1.5875 0.52916 8.1227-5.1594 11.271-14.87 0.42333-1.3758 0.84667-1.27 0.42333 0.10583-3.0692 10.001-9.7896 16.007-11.906 15.372-0.635-0.21167-0.84667-1.27-0.52917-3.0427z"/>
  <path class="st11" d="m74.947 96.713c0.42333 0.84667 1.3758 0.84667 2.3283 0.3175 4.736-2.7517 9.7896-11.271 9.7896-21.484 0-1.4817 0.42333-1.3758 0.42333 0 0.10583 10.425-5.0535 19.076-10.001 22.013-1.27 0.74083-2.4342 0.52917-2.9633-0.42333z"/>
  <path class="st11" d="m82.223 92.4c3.3602-2.1167 6.1119-6.8527 6.8527-13.07 0.10583-1.3758 0.52917-1.27 0.3175 0-0.635 6.7469-3.466 12.118-7.6994 14.023z"/>
  <path class="st11" d="m82.858 62.158c4.4185 3.7835 7.276 8.546 7.911 13.494 0.635 5.6885-1.4817 11.271-5.9002 14.975l1.3758-2.1167c3.0692-3.5719 4.3127-8.1227 3.7835-12.753-0.635-4.8419-3.1485-9.2604-7.4877-12.965z"/>
  <path class="st11" d="m82.118 62.899c0.84667 1.0583 1.4817 2.1167 2.0108 3.2544 0.42333 1.0583 0.10583 1.1642-0.42333 0.21167-0.52917-1.27-1.27-2.3283-2.1167-3.3602z"/>
  <path class="st11" d="m80.451 62.793c1.6933 2.4342 2.8575 6.006 3.2544 9.6838 0 1.1642-0.3175 1.1642-0.42333 0-0.52917-3.6777-1.905-7.5935-3.6777-9.8954z"/>
  <path class="st11" d="m76.535 60.676c0.74083 1.1642 1.27 2.2225 1.7992 3.7835 0.42333 1.0583 0 1.1642-0.3175 0.21167-0.635-1.5875-1.4817-3.3602-2.54-4.8419z"/>
  <path class="st11" d="m76.112 86.182c2.2225-4.8419 3.0427-9.6838 2.8575-17.171 0-1.3758 0.42333-1.3758 0.42333 0 0.42333 7.5935-0.52917 12.541-2.9633 17.277-0.635 1.27-0.9525 1.27-0.3175-0.10583"/>
  <path class="st11" d="m74.127 62.899c1.27 2.54 1.6933 5.2652 1.27 8.2285-0.21167 1.3758-0.52917 1.3758-0.42333-0.10583 0.3175-2.8575-0.10583-5.2652-1.27-7.6994z"/>
  <path class="st11" d="m69.471 63.11c1.1642 3.3602 0.9525 7.5935-0.74083 13.07-0.42333 1.1642-0.84667 1.0583-0.42333-0.21167 1.5875-5.5827 1.6933-9.8954 0.3175-13.282z"/>
  <path class="st11" d="m60.21 62.158c-0.84667 3.0427-2.4342 6.3235-4.8419 10.425-0.74083 1.3758-1.0583 1.1642-0.3175-0.21167 2.4342-4.3127 3.7835-7.3819 4.6302-10.319z"/>
  <path class="st11" d="m57.035 58.904c-4.4185 6.1119-8.546 13.176-10.213 17.701-0.52917 1.27-0.9525 1.1642-0.42333-0.10583 1.6933-4.736 6.006-12.012 10.53-18.441z"/>
  <path class="st11" d="m52.511 59.406c-2.1167 1.905-3.5719 3.1485-5.371 5.0535-0.84667 0.9525-1.1642 0.74083-0.3175-0.21167 1.6933-1.905 2.9633-3.1485 4.6302-4.6302z"/>
  <path class="st11" d="m47.775 57.634c-3.2544 1.4817-5.5827 3.2544-8.6519 6.1119-0.9525 0.9525-1.27 0.74083-0.3175-0.3175 3.0692-2.9633 5.4769-4.9477 8.8635-6.4294z"/>
  <path class="st11" d="m40.499 56.469c-2.1167 0.9525-3.7835 1.7992-5.5827 2.9633-1.1642 0.74083-1.3758 0.52917-0.21167-0.3175 1.6933-1.27 3.3602-2.2225 5.4769-3.0427z"/>
  <path class="st11" d="m59.469 104.62c-1.27 1.0583-3.1485 1.3758-4.5244 2.2225-0.42333 0.21166-0.42333 0.21166-0.52917-0.10584-0.635-2.1167 0.10583-4.3127 2.7517-4.8419 1.1642-0.3175 2.1167-1.0583 2.54-2.0108l0.84667-0.52917c-0.52917 1.5875-1.6933 2.7517-3.2544 3.0427-2.4342 0.52916-2.8575 2.4342-2.4342 3.8894 1.3758-0.84667 3.466-1.1642 4.6302-2.4342v0.7673z"/>
  <path class="st11" d="m60.739 107.88c-0.9525-0.84667-1.3758-2.1167-1.5875-2.9633-0.3175-1.905 0.9525-2.4342 1.27-3.0427 0.3175-0.74083 0.635-0.635 0.3175 0.21167-0.21167 0.74083-1.27 1.0583-1.0583 2.7517 0.10583 0.74084 0.52917 1.7992 1.3758 2.6458 1.6933-1.0583 2.3283-2.6458 1.905-4.9477-0.10583-0.74084 0.3175-0.84667 0.42333 0 0.52917 2.4342-0.21167 4.2069-2.1167 5.371-0.3175 0.18521-0.3175 0.18521-0.52917-0.0265"/>
  <path class="st11" d="m64.734 101.16c1.6933 0.21167 2.8575 0.74084 3.5719 1.6933 0.84667 0.9525 0.84667 3.1485 0.42333 4.3127-0.10583 0.3175-0.21167 0.3175-0.52917 0.10583-0.74083-0.635-3.466-1.27-4.8419-3.1485l0.10583-0.74084c1.3758 2.2225 4.4185 2.8575 4.9477 3.3602 0.21167-1.27 0-2.8575-0.52917-3.466-0.84667-1.0583-2.1167-1.5875-4.101-1.7992z"/>
  <path class="st11" d="m40.604 99.253c0 1.905-0.42333 3.1485-1.0583 3.9952-0.10583 0.21167-0.21167 0.21167-0.42333 0.10584-1.1642-0.74084-1.7992-4.101-1.6933-5.0535 0.10583-0.42333 0.21167-0.9525 0.635-1.3758l1.0583-0.635c-0.74083 0.74083-1.0583 1.5875-1.1642 2.0108-0.10583 1.0583 0.635 3.9952 1.27 4.5244 0.74083-0.84667 0.9525-2.4342 0.84667-4.6302z"/>
  <path class="st11" d="m44.388 99.041c0.42333 2.3283 0.52917 3.9952 0 5.0535-0.10583 0.21167-0.21167 0.3175-0.42333 0.10583-1.4817-1.0583-2.8575-2.8575-3.466-4.736l0.74083 0.3175c0.84667 2.0108 2.0108 3.2544 2.8575 3.7835 0.3175-0.84666 0.21167-2.2225-0.21167-4.3127z"/>
  <path class="st11" d="m48.727 101.26c-0.10583 0.9525-0.42333 1.7992-0.9525 2.1167-0.10583 0.21167-0.21167 0.21167-0.42333 0-0.42333-0.3175-0.74083-1.0583-1.0583-1.6933-0.52917-1.1642-0.9525-2.1167-1.7992-2.7517l0.42333-0.3175c0.84667 0.635 1.27 1.5875 1.7992 2.7517 0.3175 0.635 0.635 1.3758 0.84667 1.5875 0.3175-0.3175 0.52917-0.84667 0.635-1.6933z"/>
 </g>
 <g stroke-width=".26458">
  <path class="st1" d="m67.169 37.075c-3.1485 0.52917-3.1485 2.7517-0.10583 5.1594 3.1485 2.3283 6.006 4.8419 8.9694 7.6994 3.8894 3.8894 11.06 3.8894 13.07 0.42333 1.3758-2.4342 0.635-5.4769-2.9633-8.0169-5.7944-4.2069-13.494-6.2177-18.971-5.2652" fill="#ee86a7"/>
  <path class="st3" d="m65.052 38.134c-5.7944 0.10583-9.8954 2.0108-12.33 4.6302-3.2544 3.466-3.2544 8.0169-0.84667 11.165 1.27 1.5875 2.9633 1.7992 4.101 1.27 1.3758-0.74083 2.0108-2.2225 1.1642-4.4185-1.0583-3.1485-0.52917-6.006 1.1642-8.1227 1.3758-1.7992 3.6777-3.0427 6.4294-3.5719 0-0.3175 0.10583-0.635 0.3175-0.9525" fill="#fadce2"/>
  <path class="st0" d="m64.099 38.24c-5.4769-0.74083-11.06 0.10583-15.584 2.3283-5.4769 2.6458-8.7577 6.641-9.1546 10.954-0.21167 2.6458 0.74083 4.2069 2.1167 4.4185 1.3758 0.21167 3.1485-0.84667 3.6777-3.5719 1.0583-5.2652 3.7835-8.546 8.546-10.53 2.3019-2.0108 5.8738-3.3867 10.398-3.5983" fill="#fff5d7"/>
  <path class="st3" d="m48.516 40.541c4.4185-2.1167 10.319-3.0427 15.69-2.4342-4.8419-1.4817-11.06-0.9525-15.796 1.1642-3.6777 1.5875-6.5352 4.2069-7.3819 7.4877 1.5875-2.4077 4.101-4.5244 7.4877-6.2177" fill="#fadce2"/>
  <path class="st9" d="m65.158 38.345c-0.10583 0.635 0.635 1.6933 1.6933 2.4342 3.7835 2.54 7.3819 5.0535 10.53 7.911 3.6777 3.2544 10.319 3.0427 12.012-0.52917 0.3175 6.5352-9.8954 5.5827-13.6 1.6933-1.7992-2.0108-6.8527-6.3235-8.8635-7.8052-1.8785-1.4023-2.5135-2.9633-1.7727-3.7042" fill="#cf7492"/>
 </g>
 <g fill="#0f141b" stroke-width=".26458">
  <path class="st11" d="m67.169 37.393c-3.0692 0.52917-2.6458 2.54 0.10583 4.5244 3.0427 2.3283 5.9002 4.736 8.9694 7.6994 3.8894 3.8894 10.742 3.7835 12.541 0.52917 1.27-2.2225 0.52917-4.9477-2.9633-7.4877-5.6885-4.101-13.07-6.2177-18.653-5.2652m8.5196 12.753c-3.0427-2.9633-5.7944-5.4769-8.7577-7.6994-3.466-2.6458-3.1485-5.0535 0.10583-5.5827 5.6885-1.0583 13.494 0.9525 19.288 5.1594 3.6777 2.7517 4.5244 5.9002 3.0692 8.546-2.2225 3.8894-9.5779 3.6777-13.705-0.42333"/>
  <path class="st11" d="m64.84 39.298c-2.8575 0.52917-5.0535 1.905-6.3235 3.5719-1.6933 2.1167-2.1167 4.8419-1.0583 7.8052 0.74083 2.3283 0.10583 3.9952-1.3758 4.736-1.27 0.635-3.0427 0.3175-4.4185-1.3758-2.6458-3.3602-2.4342-8.0169 0.74083-11.483 2.7517-2.9633 7.3819-4.736 12.859-4.6302l-0.42333 0.52917c-5.1594 0.10583-9.3662 1.6933-11.906 4.5244-3.1485 3.3602-3.0427 7.8052-0.84667 10.742 1.1642 1.3758 2.6458 1.6933 3.7835 1.1642 1.27-0.635 1.6933-2.1167 0.9525-4.101-1.0583-2.9633-0.52917-6.006 1.1642-8.3344 1.4817-1.7992 3.8894-3.1485 6.7469-3.6777z"/>
  <path class="st11" d="m63.041 38.345c-4.6302-0.42333-9.8954 0.3175-14.446 2.54-5.371 2.6458-8.6519 6.4294-8.9694 10.742-0.21167 2.4342 0.74083 3.8894 1.905 4.101 1.3758 0.10583 2.8575-0.9525 3.2544-3.3602 1.0583-5.4769 4.101-9.0752 9.2604-11.06l-0.84667 0.9525c-4.3127 2.0108-6.8527 5.2652-7.8052 10.213-0.52917 2.8575-2.54 3.9952-3.9952 3.7835-1.5875-0.21167-2.54-2.0108-2.3283-4.736 0.3175-4.3127 3.6777-8.546 9.2604-11.271 4.8419-2.3283 10.848-3.0427 16.431-2.2225z"/>
  <path class="st11" d="m63.676 38.24c-4.6302-1.27-10.53-0.74083-15.187 1.3758-4.2069 1.7992-6.2177 4.4185-7.0644 6.641l-0.84667 1.0583c0.635-3.466 3.3602-6.4294 7.6994-8.3344 4.9477-2.2225 11.695-2.54 16.536-0.9525z"/>
 </g>
</svg>
