<?xml version="1.0" encoding="UTF-8"?>
<!-- Created with Inkscape (http://www.inkscape.org/) -->
<svg version="1.1" viewBox="0 0 83.174 83.567" xmlns="http://www.w3.org/2000/svg">
 <g stroke-width=".26458">
  <path class="st0" d="m14.634 26.993c-1.5875 0.47625-2.4077 1.6404-2.3812 3.2279 1.8785-0.66146 4.154-0.9525 6.4558-0.68792 0.18521-0.635 0.635-1.2965 1.3229-1.8256-1.8785 0.10583-2.9633-0.84667-3.0427-2.5665-0.10583-1.614 1.2435-2.54 2.831-2.0638-1.1377-0.97896-1.3494-2.884-0.55562-3.7835 0.9525-0.97896 2.9369-0.84667 4.154 0.44979-1.7727-5.3181-5.1594-7.2231-7.5406-5.7679-1.7992 1.1377-2.0108 4.0746-0.18521 6.006-2.249-0.68792-4.2069 0.635-4.3656 2.884-0.15875 2.0373 1.1906 3.8894 3.3073 4.1275" fill="#fbee00"/>
  <path class="st1" d="m23.895 29.718c0.02646 0.55562 0.15875 1.0319 0.29104 1.5346-0.39688-0.26458-0.84667-0.47625-1.2965-0.66146 0.34396-0.21167 0.66146-0.50271 1.0054-0.87312m26.247 14.896c-1.1642-0.58208-2.7781-0.55562-4.3392-0.10583 0.15875-0.44979 0.18521-0.84667 0.10583-1.2171 1.9844-3.8894 1.905-9.1281-2.0108-12.356 1.4287-4.2598 0.44979-9.4192-3.3073-12.383-5.0535-3.9688-13.097-3.2544-16.563 2.0902-0.9525-2.0638-3.6248-2.54-4.7625-1.3229-0.79375 0.87312-0.58208 2.7781 0.55562 3.7835-1.5875-0.47625-2.9369 0.44979-2.831 2.0638 0.07937 1.7198 1.1642 2.6723 3.0427 2.5665-0.68792 0.55562-1.1377 1.2171-1.3229 1.8256-4.9742-0.55562-9.816 1.4552-11.086 4.2069-1.5875 3.3602 0.47625 6.4294 3.0163 7.9904l25.479 19.262c0.26458 1.1642 1.0319 1.8256 2.1167 1.905 1.8785 0.10583 3.7042-0.9525 4.2862-3.2279 0.47625 1.3494 1.2965 1.8785 2.0638 1.8785 1.2435-0.02646 3.0427-2.3019 2.6723-5.424 0.97896 0.97896 2.0108 1.2435 2.831 0.84667 1.2171-0.55562 1.8785-3.4396-0.47625-6.6675 1.2171 0.50271 2.2754 0.635 2.7517 0.26458 0.74083-0.635 0.60854-4.5508-2.2225-5.9796" fill="#fff9b1"/>
  <path class="st2" d="m33.023 23.05c0.37042 2.0638-0.26458 3.2015-1.1112 3.3602-0.92604 0.15875-1.9315-0.76729-2.3019-2.831-0.3175-1.9315 0.18521-3.1485 1.1112-3.3073 0.89958-0.15875 1.8785 0.74083 2.3019 2.7781" fill="#413d3b"/>
  <path class="st3" d="m32.123 23.05c0.15875 0.87312-0.10583 1.4552-0.55562 1.5346-0.37042 0.07938-0.79375-0.3175-0.9525-1.2435-0.15875-0.79375 0.15875-1.4023 0.50271-1.4552 0.39688-0.05292 0.82021 0.26458 1.0054 1.1642" fill="#fff"/>
 </g>
 <g fill="#fbee00" stroke-width=".26458">
  <path class="st0" d="m29.61 23.58c-0.10583-0.74083-0.10583-1.4023-0.02646-1.8785-0.37042-0.76729-1.0583-1.0319-1.6933-0.79375-0.635 0.21167-0.87312 1.0319-0.55562 1.9315-0.92604 0.15875-1.2965 1.0319-1.1377 1.6933 0.15875 0.58208 0.74084 1.0319 1.614 0.55562-0.02646 0.76729 0.39688 1.27 0.9525 1.3494 0.50271 0.10583 1.1642-0.21167 1.4552-1.1112-0.23812-0.42333-0.47625-1.0054-0.60854-1.7462"/>
  <path class="st0" d="m36.277 33.078c-0.9525-0.44979-1.0319 0-0.58208 0.66146 1.7198 2.4077 5.2388 6.2971 6.35 6.2442 1.2965-0.15875 3.3073-4.154 2.5665-6.7733-0.15875-0.50271-0.39688-0.55562-0.55562-0.02646-0.44979 1.614-1.4552 3.0692-2.1167 3.1485-0.635 0.02646-3.6512-2.3019-5.6621-3.2544"/>
  <path class="st0" d="m35.616 48.953c-0.58208-1.5346-2.0638-2.4077-3.4925-2.3812 1.6933-1.614 1.7198-4.5773 0.10583-6.1119-1.6404-1.5875-4.1804-1.614-5.6356-0.07937-0.02646-1.6404-0.9525-3.1221-2.5665-3.81-2.5665-1.1377-5.1594-0.10583-6.2442 2.4871-0.97896-2.2754-3.2279-2.9369-4.9212-2.4871-2.0638 0.55562-3.2544 2.3812-2.7252 4.9212-2.0902-1.4023-5.0535-0.87312-6.4294 0.635-1.5875 1.7198-1.5875 4.8683 0.29104 6.5352-2.5665 0.50271-3.9158 2.4871-3.8629 4.6302 0.079375 2.0638 1.5875 3.81 3.7835 4.1804-0.97896 1.4552-0.84667 3.6248-0.079375 4.736 0.9525 1.3229 2.5929 1.905 4.4715 1.4552 0.18521 1.7992 1.1642 3.0692 2.4077 3.6248 1.614 0.68792 3.6777 0.3175 4.9477-1.2435 0.9525 1.4288 2.8575 2.1167 4.3392 1.8256 1.5346-0.29104 2.8575-1.5081 3.3338-3.4925 1.8256 1.2435 3.9158 1.4023 5.3975 0.26458 1.4288-1.1377 1.7198-2.8575 0.92604-4.6302 2.196 0.50271 3.9688-0.39688 4.6567-2.3548 0.50271-1.3229 0.37042-3.1485-0.3175-4.445 1.8256-0.97896 2.1696-2.8575 1.614-4.2598"/>
  <path class="st0" d="m83.003 17.547c-0.15875-1.8256-1.7198-3.0427-3.9952-2.8575 1.7198-1.1642 2.4077-3.519 1.2435-5.424-1.1112-1.7992-2.884-2.249-4.8683-1.27 1.1642-2.4871 0.39688-5.1065-1.7198-5.9796-2.1167-0.84667-4.3392 0.026458-5.3975 1.7992-0.92604-2.5665-3.0692-3.9158-5.2917-3.519-2.0108 0.37042-3.2544 2.0108-3.5454 3.9687-1.4023-1.2171-3.2279-1.5346-4.6302-0.97896-1.9844 0.74083-2.7517 2.7517-2.196 4.6831-1.4552-0.55562-3.0427 0.079375-3.8894 1.5081-0.97896 1.6933-0.55562 3.9688 0.76729 4.9213-1.3494 0.635-1.9844 1.7992-2.0902 3.2279-0.07937 1.7198 0.87312 3.519 2.54 3.8894-0.635 1.0583-0.50271 2.4077 0.15875 3.2544 0.55562 0.74083 1.5081 1.1377 2.54 0.97896 1.5875-1.7198 3.4396-3.9688 4.2069-6.1648 0.74083 0.635 1.905 0.87312 3.0162 0.55562-0.07937 2.4871 1.5346 4.101 4.0217 3.6777-0.44979 1.5346 0 3.3602 1.7198 4.0217-0.97896 2.2754-3.2279 4.8419-4.9477 6.059 0.3175 1.0319 1.1112 1.614 2.0108 1.7198 1.1112 0.15875 2.3548-0.50271 3.0162-1.9844 0.68792 1.7992 2.249 2.54 3.5454 2.3019 1.3229-0.26458 2.4077-1.3494 2.5665-3.3073 1.2965 1.0583 3.1221 0.9525 4.2598 0.10583 1.2171-0.9525 1.5081-3.0162 0.76729-4.4979 2.2754 0.18521 4.1804-1.1112 4.6302-3.1221 0.29104-1.4023-0.21167-2.884-1.614-3.5454 2.0902-0.60854 3.3073-2.2225 3.175-4.0217"/>
 </g>
 <g stroke-width=".26458">
  <path class="st3" d="m34.028 53.213c1.2435-0.76729 1.9315-2.196 1.7992-3.3602 3.7835-1.1377 4.154-2.54 3.2279-3.8629 2.5929-1.1642 4.9477-0.74083 6.059 1.5875 2.3019 4.9742-5.2123 11.589-10.821 10.16 0.635-1.3229 0.39688-3.1221-0.26458-4.5244" fill="#fff"/>
  <path class="st1" d="m65.62 27.813c-1.4552-0.39688-2.4606-2.2754-1.7727-4.0217-2.54 0.3175-4.0746-0.97896-4.0217-3.6777-0.9525 0.26458-2.1696 0.18521-2.9633-0.44979-2.1167 4.8683-7.911 9.816-12.647 11.562 1.7198 1.3494 3.1485 3.9952 3.0162 7.3025l10.054-1.9844c0.37042-0.66146 0.58208-1.2171 0.74083-1.7727 2.2754-0.02646 5.2652-2.54 7.5935-6.9585" fill="#fff9b1"/>
  <path class="st4" d="m23.419 19.743c-0.18521-0.66146-0.44979-1.2435-0.68792-1.7992-3.2279-2.249-7.1173-0.10583-6.5881 2.54-1.6404 1.0583-1.8256 5.1329-0.29104 6.5881-0.21167 0.9525 0.10583 1.905 0.97896 2.3812 0.635-0.02646 1.2965 0 1.905 0.07937 0.18521-0.635 0.635-1.2965 1.2965-1.8256-1.8256 0.10583-2.9369-0.84667-3.0162-2.5665-0.10583-1.614 1.2435-2.54 2.831-2.0638-1.1377-0.97896-1.3494-2.884-0.55562-3.7835 0.92604-0.97896 2.9104-0.84667 4.1275 0.44979" fill="#c3d700"/>
  <path class="st0" d="m40.564 18.526c3.7835 2.9633 4.7625 8.1492 3.3338 12.382 0.15875 0.10583 0.29104 0.26458 0.44979 0.37042 0.87312-0.74083 1.1377-3.1221 0.58208-3.81 0.76729-0.18521 1.4288-1.2965 1.2965-3.3073-0.18521-2.4606-1.0319-2.884-2.3812-2.831 2.4077-3.9688 1.614-6.4823-0.68792-8.2815-0.68792-0.55562-1.3494-0.10583-1.6404 0.635-0.50271 1.3494-1.1377 2.3812-2.0638 4.0217 0.37042 0.26458 0.74083 0.52917 1.1112 0.82021" fill="#fbee00"/>
  <path class="st4" d="m44.929 27.469c0.58208-1.905 0.18521-5.1329-1.1112-6.1119 0.02646-0.55562-0.02646-1.1642-0.21167-1.6933-0.47625-0.26458-1.1642-0.37042-2.0108-0.18521 2.6458 2.7252 3.4396 6.7204 2.6458 10.292 0.39688-0.635 0.60854-1.3758 0.68792-2.3019" fill="#c3d700"/>
  <path class="st0" d="m41.04 71.893c-0.50271-1.4552-1.6404-2.1696-3.3602-2.1696-0.79375-1.9315-2.7781-2.4606-4.3392-2.0108-1.905 0.55562-2.831 2.3548-2.4871 4.445-1.1642 0.9525-1.5081 2.54-1.0319 3.6248 0.44979 1.0319 1.5346 1.7727 3.1485 1.5346 1.0319 1.5346 2.831 2.0638 4.2598 1.614 1.2435-0.39688 2.249-1.5081 2.249-3.2544 1.4552-0.60854 2.0373-2.3548 1.561-3.7835" fill="#fbee00"/>
  <path class="st5" d="m30.642 60.119c0.87312 3.3073 1.3494 5.3975 2.1167 8.6519 0.10583 0.47625 0.58208 0.635 1.0319 0.50271 0.44979-0.10583 0.79375-0.37042 0.66146-0.9525-0.635-2.3812-1.1377-4.6567-1.6933-7.3025-0.55562-0.15875-1.3229-0.58208-1.5875-0.87312-0.13229 0-0.37042 0-0.52917-0.02646" fill="#f5b2b2"/>
  <path class="st5" d="m43.315 79.063c-0.50271-0.3175-0.9525-0.26458-1.4023 0.15875-0.18521-0.10583-0.44979-0.07937-0.76729 0.02646-0.97896 0.29104-2.1696 0.02646-3.2544-0.635h0.02646c-0.9525 0.55562-2.196 0.635-3.3338 0.10583-0.26458 0.15875-0.50271 0.29104-0.74083 0.47625-1.6933-0.02646-2.3019 0.9525-2.1696 1.6933 3.3338-0.37042 6.1648 0.50271 7.6994 2.4606 0.44979-0.55562 0.58208-1.2171 0.44979-1.905 1.0319-0.18521 1.9844 0.44979 2.9633 1.6933 0.39688-0.47625 0.39688-1.1642 0.15875-1.9844 0.76729 0.18521 1.4552 0.47625 2.249 0.92604 0.10583-1.1112-0.66146-2.3019-1.8785-3.0162" fill="#f5b2b2"/>
 </g>
 <g fill="#fef7aa" stroke-width=".26458">
  <path class="st6" d="m22.863 47.392c-0.50271 0.39688-0.29104 0.76729 0.26458 0.47625 1.0583-0.58208 1.905-1.1377 2.7252-1.7992 0.21167-0.18521 0.10583-0.29104-0.15875-0.18521-1.0054 0.3175-1.9844 0.87312-2.831 1.5081"/>
  <path class="st6" d="m16.672 43.794c-0.07937-0.55562-0.39688-0.55562-0.39688 0-0.07937 1.1377-0.02646 2.4077 0.29104 3.1221 0.15875 0.29104 0.29104 0.18521 0.29104-0.07937 0.02646-1.1112-0.05292-1.905-0.18521-3.0427"/>
  <path class="st6" d="m11.407 49.033c0.37042 0.29104 0.58208 0.10583 0.26458-0.29104-0.68792-0.87312-1.4023-1.614-2.1696-2.196-0.29104-0.21167-0.47625-0.02646-0.26458 0.21167 0.60854 0.82021 1.4023 1.6669 2.1696 2.2754"/>
  <path class="st6" d="m58.793 11.118c0.18521 0.635 0.74083 0.55562 0.58208-0.15875-0.15875-0.84667-0.50271-1.6933-0.97896-2.0902-0.3175-0.29104-0.55562-0.079375-0.3175 0.29104 0.34396 0.68792 0.52917 1.2435 0.71438 1.9579"/>
  <path class="st6" d="m66.863 9.1334c0-0.39688-0.3175-0.44979-0.39688-0.026458-0.18521 1.0319-0.29104 1.7727-0.47625 2.7781-0.02646 0.3175 0.10583 0.3175 0.26458 0.07938 0.50271-0.87312 0.68792-1.9844 0.60854-2.831"/>
  <path class="st6" d="m71.335 14.213c-0.37042 0.21167-0.29104 0.58208 0.18521 0.55562 1.0319-0.07938 2.2754-0.29104 3.0692-0.58208 0.29104-0.10583 0.29104-0.29104-0.02646-0.37042-1.0319-0.26458-2.4871-0.02646-3.2279 0.39688"/>
 </g>
 <g fill="#c3d700" stroke-width=".26458">
  <path class="st4" d="m29.716 60.013c2.196 0.50271 3.9688-0.39688 4.6567-2.3548 0.50271-1.3229 0.37042-3.1485-0.3175-4.445 2.3812-1.3229 2.196-4.0217 0.92604-5.3446 0.29104 2.4606-1.614 4.4979-3.8629 4.101-0.21167-0.02646-0.26458 0-0.26458 0.18521-0.10583 3.9688-3.9158 5.2388-6.0854 2.8575-0.15875-0.10583-0.18521-0.10583-0.26458 0.02646-2.0902 4.736-7.3025 4.3921-8.6254 0.74083-0.07937-0.26458-0.15875-0.29104-0.3175-0.10583-3.1485 2.6458-7.3819 1.4552-8.2021-1.2965-0.079375-0.18521-0.15875-0.21167-0.37042-0.10583-2.4871 1.1377-5.9531 0.07938-6.641-2.3548-0.66146 2.54 0.9525 5.0271 3.6248 5.5033-0.97896 1.4552-0.84667 3.6248-0.079375 4.736 0.9525 1.3229 2.5929 1.905 4.4715 1.4552 0.18521 1.7992 1.1642 3.0692 2.4077 3.6248 1.614 0.68792 3.6777 0.3175 4.9477-1.2435 0.9525 1.4288 2.8575 2.1167 4.3392 1.8256 1.5346-0.29104 2.8575-1.5081 3.3338-3.4925 1.8256 1.2435 3.9158 1.4023 5.3975 0.26458 1.4288-1.1112 1.7198-2.831 0.92604-4.5773"/>
  <path class="st4" d="m32.97 77.317c1.0319 1.5346 2.831 2.0638 4.2598 1.614 1.2435-0.39688 2.249-1.5081 2.249-3.2544 1.1642-0.47625 1.7992-1.6933 1.7198-2.884-0.50271 0.97896-1.7198 1.27-2.3812 0.84667-0.21167-0.10583-0.29104-0.10583-0.39688 0.07937-0.9525 1.5875-3.6248 1.8785-4.9742 0.84667-0.15875-0.10583-0.21167-0.07937-0.37042 0.07937-0.76729 0.97896-2.4606 1.1377-3.4131 0.39688 0.13229 1.4552 1.3229 2.5135 3.3073 2.2754"/>
  <path class="st4" d="m56.253 20.828c-1.1112 1.9844-2.5665 3.6777-3.6777 4.8683-1.0319 0.15875-1.9844-0.26458-2.54-0.97896-0.66146-0.84667-0.76729-2.196-0.15875-3.2544-1.6404-0.37042-2.5929-2.1696-2.54-3.8894 0.10583-1.3229 0.74083-2.5665 2.0902-3.2279 0.47625 0.37042 1.1112 0.635 1.8256 0.79375 0.39688 0.07938 0.44979 0.18521 0.21167 0.44979-1.2435 1.4817 0.05292 6.0854 4.789 5.2388"/>
  <path class="st4" d="m79.219 21.648 0.58208-0.10583c3.3073 1.7992 1.4552 6.9585-3.0162 6.6675 1.5875 3.7835-1.7198 6.5881-5.0271 4.3921-0.39688 3.6777-4.3921 4.6831-6.1119 0.97896-1.5346 2.9369-4.2598 2.3548-5.0271 0.26458 1.9844-1.4288 3.6777-3.519 4.9742-6.059-1.2965-0.50271-2.4077-1.8785-1.6933-4.154 0.79375 2.884 5.2388 4.154 7.5406 0.79375 0.10583-0.18521 0.18521-0.18521 0.3175-0.07938 3.2808 2.3548 7.4877 0.97896 7.4612-2.6988"/>
 </g>
 <path class="st7" d="m35.616 51.308c1.2435 2.4077 6.3765 2.884 9.6044 0.02646-0.9525 3.4131-6.4823 7.62-10.927 6.3765 0.44979-0.9525 0.50271-3.1221-0.26458-4.4979 0.66146-0.42333 1.2965-1.0319 1.5875-1.905" fill="#dddede" stroke-width=".26458"/>
 <path class="st7" d="m31.118 60.119c3.1221 2.7781 8.2815 0.18521 8.8106-3.1485-1.6404 0.87312-3.7306 1.1642-5.6092 0.76729-0.44979 1.2435-1.5346 2.3812-3.2015 2.3812" fill="#dddede" stroke-width=".26458"/>
 <g fill="#ded799" stroke-width=".26458">
  <path class="st8" d="m31.303 62.712c-0.21167-0.97896-0.47625-1.905-0.66146-2.5929-0.3175 0-0.66146-0.07937-0.92604-0.10583 0.39688 0.74083 0.47625 1.6404 0.37042 2.4871 0.29104 0.13229 0.71438 0.21167 1.2171 0.21167"/>
  <path class="st8" d="m32.758 61.018c0.10583 0.55562 0.21167 1.0583 0.3175 1.5346 0.87312-0.21167 1.7198-0.66146 2.249-1.3494-0.9525 0.15875-1.7992 0.07937-2.5665-0.18521"/>
  <path class="st8" d="m22.413 36.121c0.92604 0.10583 1.9315 0.47625 2.7781 0.9525-2.1696-2.0638-4.8419-3.2279-7.4877-3.4131 2.3019 0.71438 3.6777 1.5081 4.7096 2.4606"/>
  <path class="st8" d="m38.844 45.725c2.54-2.9369 6.4294-4.101 6.2442-1.0319 3.2279-0.37042 5.6356 0.635 6.5352 3.2544 0.76729 2.3812 0.15875 2.9369-0.76729 2.7252-0.55562-0.15875-1.3229-0.44979-2.0638-0.84667 2.831 5.7679 1.1642 7.3819 0.10583 7.2496-0.76729-0.10583-1.6404-0.84667-2.249-1.6933-0.02646 2.884-0.97896 5.6885-2.249 6.006-0.87312 0.21167-2.0108-1.5875-2.3019-3.2544-0.10583 1.905-1.1642 4.154-2.54 4.5773-1.614 0.50271-3.1221-0.10583-3.4396-1.7727 1.905-0.74083 3.2279-1.8256 3.7835-4.0217 5.0271-2.5665 6.5617-7.0644 5.1329-9.5779-1.2171-2.0108-3.2544-2.5929-5.9002-1.4023z"/>
  <path class="st8" d="m56.73 19.928c0.47625 0.47625 1.3494 0.84667 2.196 0.87312 0.15875 0 0.21167 0.02646 0.21167 0.18521 0.15875 1.4023 0.92604 3.4396 3.2279 3.7306 0.18521 0 0.26458 0.02646 0.26458 0.26458-0.02646 0.97896 0.50271 2.2754 1.2965 3.0692 0.18521 0.15875 0.18521 0.26458 0.07937 0.44979-1.1112 2.249-3.6248 4.9742-5.7944 5.5033l-0.26458 0.74083c3.0692-0.18521 5.9002-3.3602 7.6729-6.9321-1.4023-0.55562-2.3019-2.1167-1.7727-4.0217-2.3019 0.39688-4.2069-1.1112-4.0217-3.6777-1.0319 0.26458-2.0902 0.18521-2.9369-0.47625-0.05292 0.07937-0.07937 0.13229-0.15875 0.29104"/>
  <path class="st8" d="m57.947 34.216c-0.3175 0.68792-0.66146 1.2171-1.1377 1.7198 0.10583 0.15875 0.26458 0.3175 0.39688 0.55562 0.37042-0.47625 0.71438-1.3229 0.74083-2.2754"/>
 </g>
 <path class="st9" d="m32.176 60.833c0.39688 2.0108 1.1112 4.9477 1.6933 7.4348 0.10583 0.55562 0.10583 0.87312-0.02646 0.92604-0.50271 0.18521-0.97896 0-1.1377-0.58208-0.37042-1.8256-1.5875-6.5881-2.0638-8.4667l0.47625-0.02646c0.34396 0.3175 0.58208 0.42333 1.0583 0.71438" fill="#d49a9c" stroke-width=".26458"/>
 <path class="st8" d="m35.537 48.821c2.0902-0.26458 3.7042-1.1377 3.7042-2.4077 0.58208 1.0319 0.15875 2.4077-3.3602 3.4396-0.10583-0.42333-0.18521-0.74083-0.34396-1.0319" fill="#ded799" stroke-width=".26458"/>
 <g fill="#d49a9c" stroke-width=".26458">
  <path class="st9" d="m36.595 79.539c0.47625 0.55562 1.1112 0.66146 1.5346 0.66146s1.4552 0.97896 1.2171 3.1221c-1.8256-2.1696-4.8683-2.7517-7.6994-2.4077-0.02646-0.76729 0.47625-1.6404 2.1696-1.6933 0.21167-0.15875 0.47625-0.3175 0.68792-0.50271 0.87312 0.39688 2.0108 0.55562 3.2015 0.02646-0.29104 0.3175-0.635 0.58208-1.1112 0.79375"/>
  <path class="st9" d="m37.442 79.036c1.1377 0.55562 2.3548 0.97896 3.6777 0.76729 0.37042-0.07937 0.47625 0 0.66146 0.26458 0.55562 0.79375 1.0319 1.9315 1.0319 3.0427-0.66146-0.84667-1.7198-1.7992-2.9369-1.6404-0.21167-0.76729-0.47625-1.2435-0.74083-1.5346-0.21167-0.26458-0.55562-0.37042-1.0319-0.29104-0.44979 0.10583-0.84667 0.10583-1.3229-0.15875 0.23812-0.13229 0.44979-0.3175 0.66146-0.44979"/>
  <path class="st9" d="m42.336 79.618c0.58208-0.26458 1.9844 0.55562 2.7781 2.3548-0.58208-0.26458-1.5081-0.635-2.1696-0.76729-0.13229-0.55562-0.39688-1.1906-0.60854-1.5875"/>
 </g>
 <g fill="#0f141b" stroke-width=".26458">
  <path class="st10" d="m30.748 20.484c-0.84667 0.15875-1.2435 1.3229-0.9525 3.0692 0.37042 2.1167 1.3494 2.7781 2.0902 2.6723 0.74083-0.15875 1.3229-1.1112 0.92604-3.1485-0.42333-2.0902-1.3758-2.7517-2.0638-2.5929m-1.3229 3.1485c-0.3175-1.905 0.15875-3.3338 1.2435-3.519 0.84667-0.15875 2.0638 0.47625 2.54 2.9369 0.44979 2.196-0.3175 3.3602-1.2965 3.5454-0.87312 0.15875-2.0902-0.60854-2.4871-2.9633"/>
  <path class="st10" d="m27.176 22.892c-0.39688-0.97896-0.10583-1.8785 0.66146-2.1696 0.66146-0.26458 1.4023 0.02646 1.7992 0.74083l-0.10583 0.50271c-0.3175-0.74083-0.9525-1.1112-1.5875-0.87312-0.50271 0.18521-0.76729 0.87312-0.44979 1.7198z"/>
  <path class="st10" d="m26.012 24.585c-0.21167-0.76729 0.26458-1.7727 1.4023-1.8785 0.50271-0.07937 0.50271 0.18521 0 0.29104-0.76729 0.15875-1.1642 0.84667-1.0319 1.4552 0.15875 0.635 0.68792 0.84667 1.3494 0.50271 0.50271-0.26458 0.635-0.02646 0.15875 0.26458-0.74083 0.44979-1.6669 0.26458-1.8785-0.635"/>
  <path class="st10" d="m30.298 25.564c-0.29104 0.84667-0.97896 1.1642-1.5875 1.0583-0.55562-0.07937-1.1112-0.58208-1.1112-1.4552l0.3175-0.10583c-0.02646 0.66146 0.37042 1.1377 0.84667 1.2171 0.47625 0.07938 1.0583-0.26458 1.2965-1.0583z"/>
  <path class="st10" d="m45.855 42.921c1.8256-3.7042 1.6933-8.5725-2.0108-11.774-0.15875-0.10583-0.18521-0.18521-0.15875-0.3175 1.4552-4.5508 0.21167-9.3133-3.2544-12.065-4.9477-3.8894-12.621-3.2279-16.14 1.8785-0.18521 0.29104-0.29104 0.26458-0.47625-0.02646-1.0319-1.8785-3.4131-2.1696-4.3656-1.1377-0.84667 0.92604-0.44979 3.0427 0.92604 3.81 0.635 0.37042 0.50271 0.58208-0.10583 0.29104-1.6404-0.79375-2.196-3.2544-1.1377-4.3921 1.2171-1.3229 3.9158-0.79375 4.9212 1.1112 3.5983-5.2123 11.562-5.9796 16.722-1.905 3.5454 2.831 4.9477 7.7788 3.4131 12.515 4.101 3.4925 3.8894 9.0223 1.7992 12.859z"/>
  <path class="st10" d="m20.006 23.342c-1.6404-0.635-2.884 0.37042-2.831 1.7992 0.10583 1.6404 1.1112 2.4606 2.9369 2.4077 0.68792 0 0.68792 0.26458 0.02646 0.29104-2.0108 0.18521-3.3073-0.84667-3.4131-2.6723-0.07937-1.7198 1.2965-2.6723 2.8575-2.3019z"/>
  <path class="st10" d="m18.524 29.506c0.15875-0.635 0.55562-1.2435 1.2171-1.7992l0.55562 0.02646c-0.76729 0.55562-1.2171 1.2171-1.4023 1.8256z"/>
  <path class="st10" d="m22.757 30.485c0.39688-0.26458 0.79375-0.635 1.2171-1.0319 0.58208-0.635 0.76729-0.44979 0.21167 0.21167-0.37042 0.39688-0.76729 0.74083-1.1377 1.0319z"/>
  <path class="st10" d="m23.921 31.147c-0.10583-0.44979-0.18521-0.79375-0.21167-1.2171l0.39688-0.39688c0.02646 0.66146 0.18521 1.2965 0.37042 1.905z"/>
  <path class="st10" d="m23.154 19.532c-1.6933-4.8154-4.8683-6.7733-7.1967-5.3446-2.0108 1.2965-1.8785 4.7625 0.76729 6.4823 0.76729 0.50271 0.58208 0.68792-0.15875 0.26458-2.8575-1.6404-3.2015-5.6356-0.84667-7.1173 2.5929-1.614 6.2442 0.50271 7.964 6.1648z"/>
  <path class="st10" d="m15.852 20.246c-2.3812-0.84667-4.2069 0.58208-4.3392 2.6458-0.15875 2.249 1.4552 3.9688 3.6777 3.9952 0.92604 0.02646 0.92604 0.29104 0 0.29104-2.4077 0.07938-4.2598-1.8256-4.101-4.2862 0.15875-2.3019 2.1696-3.7042 4.3921-3.1485z"/>
  <path class="st10" d="m12.015 30.3c-0.02646-1.5875 0.76729-2.7781 2.249-3.3338l0.79375 0.10583c-1.6933 0.39688-2.5929 1.5346-2.5929 3.1221z"/>
  <path class="st10" d="m9.6603 41.254c-2.0638-1.4552-3.7306-4.445-2.3019-7.62 1.9315-4.2862 12.462-6.8527 19.076-0.97896 0.68792 0.635 0.47625 0.84667-0.21167 0.26458-6.4823-5.6356-16.51-3.0692-18.336 0.9525-1.4288 3.1221 0.39688 5.8208 2.3812 7.3819z"/>
  <path class="st10" d="m22.122 36.121c-1.1112-1.0319-2.6458-1.7727-4.3656-2.1167-0.97896-0.26458-0.9525-0.47625 0.02646-0.3175 1.905 0.29104 3.8894 1.3494 5.1065 2.54z"/>
  <path class="st10" d="m35.881 33.687c1.9844 2.831 5.2917 6.1648 6.1119 6.0854 1.1112-0.07937 3.1485-3.8894 2.4077-6.4823-0.07937-0.37042-0.10583-0.37042-0.21167-0.02646-0.44979 1.6404-1.5081 3.2015-2.2754 3.2544-0.68792 0.07937-3.81-2.3812-5.715-3.2544-0.66146-0.3175-0.76729-0.18521-0.3175 0.42333m-0.34396 0.15875c-0.635-0.92604-0.26458-1.4023 0.79375-0.92604 1.6933 0.76729 4.9477 3.2279 5.5298 3.2015 0.58208-0.02646 1.5346-1.3494 1.9844-3.0162 0.21167-0.74083 0.66146-0.68792 0.87312 0.02646 0.74083 2.5929-1.2171 6.8527-2.7252 7.0115-1.2171 0.13229-4.7625-3.9423-6.4558-6.2971"/>
  <path class="st10" d="m45.591 44.614c0.37042-0.97896 0.10583-1.9315-0.3175-2.1696-1.4552-0.68792-4.1804 0.26458-5.9531 2.196-0.58208 0.66146-0.76729 0.47625-0.21167-0.18521 1.9844-2.3548 4.8419-3.1221 6.35-2.3812 0.58208 0.29104 0.92604 1.1642 0.55562 2.3812z"/>
  <path class="st10" d="m48.316 49.773c-0.79375-0.50271-0.66146-0.76729 0.18521-0.26458 1.7198 1.1112 3.3073 1.2171 3.7306 0.84667 0.635-0.47625 0.50271-4.2069-2.196-5.5827-1.1377-0.58208-2.7517-0.58208-4.445-0.07937-0.68792 0.21167-0.76729-0.02646-0.10583-0.26458 1.8256-0.635 3.5454-0.635 4.736-0.02646 3.0427 1.5346 3.0427 5.6356 2.2754 6.2706-0.74083 0.635-2.6194 0.13229-4.1804-0.89958"/>
  <path class="st10" d="m49.851 50.355c2.2754 3.1485 1.6933 6.1912 0.3175 6.8262-1.1377 0.50271-2.7252-0.02646-4.0217-2.3019-0.39688-0.68792-0.18521-0.87312 0.26458-0.15875 1.1642 1.905 2.5929 2.54 3.6248 2.0638 1.1377-0.55562 1.7198-3.4131-0.74083-6.5881z"/>
  <path class="st10" d="m47.469 56.309c0.3175 3.1221-1.5081 5.424-2.8575 5.4504-1.0583 0-2.1167-0.92604-2.4871-3.1485-0.15875-0.84667 0.10583-0.87312 0.29104-0.07937 0.37042 1.8256 1.2171 2.7781 2.196 2.7781 1.1642-0.02646 2.884-2.3019 2.4606-5.424z"/>
  <path class="st10" d="m42.627 59.96c-0.58208 2.1696-2.4606 3.3073-4.3921 3.1485-1.1642-0.07937-2.0108-0.79375-2.2754-2.0902l0.37042-0.10583c0.18521 1.0319 0.84667 1.6933 1.9315 1.7727 2.0902 0.15875 3.7306-1.1377 4.1804-3.3338z"/>
  <path class="st10" d="m33.023 62.341c0.97896-0.18521 1.7198-0.635 2.0902-1.1377l0.44979-0.07937c-0.29104 0.76729-1.2171 1.3494-2.4077 1.614z"/>
  <path class="st10" d="m31.33 62.897c-0.39688 0-0.84667-0.02646-1.2965-0.10583l0.07937-0.44979c0.39688 0.07938 0.76729 0.10583 1.1377 0.15875z"/>
  <path class="st10" d="m35.801 49.668c2.196-0.55562 3.3602-1.5081 3.4396-2.4606 0.07937-0.76729-0.3175-1.2965-1.1642-1.6933-0.68792-0.3175-0.58208-0.58208 0.15875-0.29104 0.97896 0.39688 1.5346 1.1642 1.4552 2.0108-0.10583 1.1642-1.5081 2.249-3.8629 2.7781z"/>
  <path class="st10" d="m34.399 57.552c5.3975 1.4023 12.674-5.0271 10.478-9.869-0.9525-2.1167-3.0692-2.7252-5.715-1.5081l-0.26458-0.3175c3.0162-1.4023 5.3446-0.55562 6.3765 1.614 2.4077 5.2388-5.3181 11.88-11.007 10.451z"/>
  <path class="st10" d="m40.114 56.811c-0.26458 1.905-1.7727 3.5983-3.81 4.3392-1.8256 0.66146-3.8894 0.47625-5.4504-0.97896l0.58208-0.02646c1.2435 0.97896 2.9369 1.2965 4.7625 0.635 1.8256-0.68792 3.2279-2.249 3.4925-3.7042z"/>
  <path class="st10" d="m17.73 38.846c1.0319-2.6458 3.81-3.5983 6.3765-2.4606 2.1167 0.92604 3.1485 3.1485 2.4606 5.424-0.21167 0.68792-0.44979 0.635-0.26458-0.07937 0.50271-2.1696-0.39688-4.101-2.3548-4.9477-2.6723-1.1642-5.1329 0-6.059 2.4871z"/>
  <path class="st10" d="m8.4168 63.823c-1.8785 0.39688-3.6248-0.026459-4.6831-1.5346-0.76729-1.0583-0.92604-3.2544 0-4.736-2.1696-0.39688-3.6777-2.196-3.7306-4.2862-0.079375-2.2754 1.4023-4.154 3.7306-4.736-1.614-1.4552-1.8785-4.6567-0.10583-6.5617 1.2965-1.4288 4.154-2.0902 6.35-0.84667-0.39688-2.2754 0.74083-4.1804 2.884-4.736 1.6933-0.47625 3.9952 0.15875 5.0271 2.4871 0.3175 0.74083 0.07938 0.84667-0.26458 0.10583-1.0319-2.1167-3.0692-2.5929-4.6567-2.196-2.196 0.58208-3.0427 2.4871-2.6458 4.5773 0.07937 0.29104-0.02646 0.3175-0.3175 0.18521-2.0638-1.2435-4.8683-0.66146-6.059 0.66146-1.5081 1.6933-1.5875 4.5508 0.15875 6.1912 0.26458 0.26458 0.26458 0.3175-0.10583 0.39688-2.1167 0.50271-3.6248 2.1696-3.5454 4.445 0.026458 1.9844 1.4552 3.5454 3.4925 3.9952 0.29104 0.02646 0.3175 0.10583 0.15875 0.37042-0.87312 1.4288-0.68792 3.4131 0 4.3921 0.97896 1.3494 2.54 1.8256 4.2862 1.4552z"/>
  <path class="st10" d="m29.901 60.039c0.79375 1.8256 0.47625 3.6248-0.97896 4.7625-1.4288 1.1112-3.5454 1.0319-5.3975-0.18521-0.47625 1.8785-1.7727 3.1221-3.4131 3.4396-1.5346 0.29104-3.3602-0.39688-4.3921-1.7992-1.2171 1.5081-3.2544 1.9315-5.0271 1.1642-1.4023-0.58208-2.196-1.8256-2.4077-3.6248-0.10583-0.87312 0.15875-0.92604 0.29104-0.02646 0.26458 1.6404 0.97896 2.7252 2.3019 3.2544 1.6404 0.74083 3.519 0.29104 4.6831-1.1112 0.10583-0.15875 0.18521-0.15875 0.37042 0.02646 0.92604 1.2435 2.6458 1.9315 4.101 1.6404 1.5875-0.29104 2.7517-1.5081 3.2015-3.2544 0.02646-0.21167 0.15875-0.26458 0.29104-0.10583 1.7992 1.1642 3.7835 1.2435 5.1329 0.18521 1.4023-1.0583 1.6933-2.6723 0.84667-4.4979z"/>
  <path class="st10" d="m34.187 53.107c0.74083 1.3229 0.92604 3.2015 0.39688 4.6302-0.92604 2.4077-3.0162 2.9369-4.8683 2.4077-0.87312-0.26458-0.84667-0.50271 0.02646-0.29104 2.0108 0.47625 3.7306-0.37042 4.445-2.2754 0.44979-1.2435 0.37042-3.0692-0.3175-4.2862z"/>
  <path class="st10" d="m26.594 40.169c1.4288-1.4552 4.0746-1.5346 5.7944 0.15875 1.6404 1.5875 1.5875 4.4979 0.15875 6.1119 1.3229 0.07937 2.7252 0.97896 3.3073 2.4606 0.635 1.6404-0.10583 3.6248-1.7727 4.4715-0.68792 0.3175-0.84667 0.15875-0.10583-0.29104 1.4023-0.79375 2.0638-2.54 1.4288-4.0217-0.50271-1.4023-1.7992-2.249-3.1221-2.3019-0.37042 0-0.39688-0.10583-0.18521-0.3175 1.4552-1.614 1.5346-4.2862 0-5.7944-1.7198-1.614-4.154-1.5081-5.4504 0z"/>
  <path class="st10" d="m57.074 19.77c-2.0902 4.9477-8.1492 10.001-12.674 11.615l-0.34396-0.34396c4.5508-1.6404 10.663-6.5881 12.647-11.562z"/>
  <path class="st10" d="m57.1 36.28c0.3175-0.55562 0.55562-1.1377 0.74083-1.7727 0.26458-0.9525 0.58208-0.87312 0.39688 0.07937-0.15875 0.76729-0.37042 1.4023-0.87312 2.196z"/>
  <path class="st10" d="m58.026 34.507c2.2754-0.02646 5.2388-2.5929 7.3819-6.7733l0.39688 0.18521c-2.249 4.3392-5.2917 7.1173-7.8581 7.0644z"/>
  <path class="st10" d="m66.493 28.21c-1.0583-0.07937-1.9315-0.58208-2.4606-1.3494-0.50271-0.79375-0.68792-1.8256-0.44979-2.8575-1.1112 0.15875-2.0902-0.10583-2.831-0.74083-0.74083-0.66146-1.1377-1.6933-1.1377-2.9369-1.614 0.39688-3.2544-0.37042-3.6248-1.6933-0.18521-0.66146 0.07937-0.74083 0.26458-0.07937 0.37042 1.1377 1.9315 1.7727 3.4396 1.4023 0.21167-0.02646 0.29104 0 0.29104 0.21167-0.02646 1.1642 0.37042 2.1167 1.0583 2.7517 0.68792 0.635 1.5875 0.79375 2.6723 0.68792 0.21167-0.02646 0.29104 0 0.26458 0.26458-0.26458 0.97896-0.10583 1.9844 0.39688 2.7517 0.47625 0.68792 1.1642 1.1377 2.1167 1.2435 0.87312 0.15875 0.87312 0.37042 0 0.34396"/>
  <path class="st10" d="m49.665 14.452c-1.2435 0.50271-1.9844 1.7198-2.0638 3.1221-0.10583 1.7198 0.87312 3.3073 2.3019 3.7042 0.18521 0.02646 0.21167 0.10583 0.15875 0.29104-0.58208 1.0583-0.44979 2.2754 0.15875 3.0427 0.55562 0.68792 1.5081 1.0583 2.4606 0.92604l-0.39688 0.39688c-0.87312 0.02646-1.7992-0.3175-2.3812-1.0583-0.68792-0.87312-0.74083-2.2754-0.21167-3.3073-1.5081-0.44979-2.5929-2.1696-2.4871-4.0217 0.10583-1.614 0.9525-2.7517 2.1696-3.3073z"/>
  <path class="st10" d="m52.602 8.128c-1.1377-0.47625-2.7517-0.18521-3.7042 1.4552-1.0319 1.7198-0.39688 4.154 1.0583 4.8683 0.84667 0.44979 0.68792 0.635-0.10583 0.29104-1.7992-0.79375-2.4606-3.5454-1.3494-5.424 0.87312-1.4552 2.4871-2.1167 4.0217-1.5875z"/>
  <path class="st10" d="m59.376 4.4238c-1.3494-1.1377-3.0692-1.5346-4.5508-0.97896-1.8256 0.74083-2.5929 2.6458-2.0902 4.4979 0.21167 0.9525-0.02646 0.97896-0.29104 0.079375-0.66146-2.1167 0.3175-4.2069 2.2754-4.9477 1.5081-0.58208 3.3602-0.18521 4.736 0.97896z"/>
  <path class="st10" d="m79.722 21.384c1.9315-0.50271 3.2015-2.0638 3.0427-3.81-0.15875-1.7198-1.614-2.831-3.6248-2.7252-0.44979 0-0.47625-0.15875-0.15875-0.37042 1.5875-1.2435 2.0638-3.4396 1.0583-5.1329-1.0319-1.6933-2.6723-2.0902-4.4979-1.3229-0.37042 0.18521-0.44979 0.10583-0.29104-0.21167 1.0319-2.4871 0.21167-4.8419-1.6933-5.6092-1.9844-0.79375-4.0217-0.079375-5.1065 1.5875-0.18521 0.29104-0.29104 0.26458-0.37042 0-0.9525-2.3548-2.9633-3.7042-5.1065-3.3073-1.905 0.3175-3.2279 1.9315-3.4925 4.0746-0.10583 0.92604-0.37042 0.87312-0.29104-0.026458 0.21167-2.3812 1.6404-4.0746 3.7042-4.445 2.249-0.44979 4.3921 0.92604 5.3446 3.3338 1.2171-1.7727 3.4396-2.4077 5.424-1.614 2.0638 0.79375 3.0427 3.2544 1.9844 5.8208 1.8256-0.76729 3.6248-0.29104 4.736 1.5081 1.0583 1.7727 0.68792 4.0217-0.92604 5.3446 2.1167 0 3.5454 1.2171 3.7042 3.0427 0.15875 2.0108-1.2435 3.6777-3.4396 4.154-0.84667 0.18521-0.87312-0.05292 0-0.29104"/>
  <path class="st10" d="m80.013 21.463c1.4023 0.74083 1.8785 2.3019 1.5875 3.6777-0.39688 2.0108-2.2754 3.3602-4.5508 3.2544 0.68792 1.5875 0.26458 3.5983-0.92604 4.4979-1.2435 0.9525-3.3602 0.87312-4.4715-0.18521-0.44979-0.44979-0.29104-0.58208 0.18521-0.21167 1.2965 0.9525 2.9369 0.87312 4.0746 0.02646 1.1112-0.87312 1.4023-2.7252 0.74083-4.1804-0.10583-0.26458-0.02646-0.3175 0.26458-0.29104 2.196 0.07937 3.8894-1.1377 4.2862-3.0162 0.26458-1.2965-0.15875-2.831-1.6404-3.4925z"/>
  <path class="st10" d="m60.778 33.74c0.26458 0.84667 0.9525 1.5081 1.8785 1.614 1.1377 0.15875 2.196-0.55562 2.7781-1.7727 0.15875-0.3175 0.26458-0.3175 0.39688 0 0.68792 1.6933 2.1167 2.3019 3.3338 2.0902 1.1112-0.18521 2.3019-1.1112 2.4606-3.2015l0.29104 0.26458c-0.15875 2.0638-1.3494 3.1221-2.6723 3.3602-1.2965 0.21167-2.8575-0.44979-3.6248-2.1167-0.635 1.2435-1.7992 1.9315-3.0162 1.7992-1.0583-0.10583-1.7992-0.76729-2.1696-1.8256z"/>
  <path class="st10" d="m44.162 31.226c0.76729-0.66146 1.1112-2.7517 0.66146-3.5983-0.10583-0.21167-0.10583-0.26458 0.15875-0.37042 0.635-0.26458 1.1642-1.2171 1.0319-3.0692-0.15875-2.249-0.87312-2.6458-2.0638-2.6458-0.3175 0-0.39688-0.10583-0.21167-0.37042 2.0108-3.4396 1.7727-5.9796-0.74083-7.911-0.50271-0.39688-1.0319-0.21167-1.3229 0.50271-0.50271 1.3229-1.1377 2.4871-2.0902 4.0746l-0.3175-0.21167c0.87312-1.5346 1.5081-2.7252 2.0108-3.9952 0.3175-0.87312 1.1377-1.3229 2.0108-0.68792 2.6723 1.9844 2.9369 4.8683 0.84667 8.255 1.2435-0.02646 2.1167 0.58208 2.3019 3.0162 0.15875 2.0902-0.55562 3.1485-1.2435 3.3602 0.44979 0.79375 0.29104 2.4871-0.3175 3.4396z"/>
  <path class="st10" d="m32.573 68.797c-0.55562-2.249-1.4552-6.1119-2.1167-8.6783h0.37042c0.66146 2.54 1.5875 6.3765 2.1167 8.6254 0.07937 0.29104 0.37042 0.47625 0.79375 0.37042 0.47625-0.10583 0.58208-0.37042 0.47625-0.74083-0.58208-2.3548-1.1112-4.6567-1.6404-7.3819l0.37042 0.10583c0.55562 2.6723 1.0583 4.8683 1.6933 7.1967 0.10583 0.44979 0 0.9525-0.79375 1.1642-0.58208 0.15875-1.1112-0.07937-1.27-0.66146"/>
  <path class="st10" d="m32.573 68.294c-1.2171 0.74083-1.7992 2.1167-1.5875 3.7306 0.02646 0.15875 0.02646 0.18521-0.07938 0.29104-1.1642 0.9525-1.3229 2.4077-0.87312 3.3602 0.44979 1.0583 1.4552 1.614 2.831 1.4552 0.15875-0.02646 0.21167 0 0.29104 0.10583 0.92604 1.3494 2.54 1.905 4.0217 1.4288 1.3229-0.39688 2.0902-1.4552 2.1167-3.0162l0.3175-0.10583c0 1.6933-0.87312 3.0692-2.3548 3.519-1.4023 0.44979-3.3073-0.02646-4.3921-1.614-1.5081 0.15875-2.7517-0.44979-3.2544-1.614-0.44979-1.0583-0.21167-2.7781 1.0319-3.81-0.26458-1.8785 0.44979-3.4396 1.7992-4.2069z"/>
  <path class="st10" d="m34.187 67.368c1.3494-0.07937 2.8575 0.55562 3.5454 2.196 0.3175 0.68792 0.10583 0.79375-0.21167 0.10583-0.74083-1.5081-2.0108-2.0108-3.2279-1.9315z"/>
  <path class="st10" d="m37.6 69.538c1.8256-0.02646 3.1221 0.76729 3.6248 2.2754 0.66146 1.905-0.39688 3.5454-1.7198 3.9688-0.50271 0.18521-0.66146-0.02646-0.07937-0.26458 1.1112-0.39688 1.9844-1.905 1.4023-3.5983-0.47625-1.3494-1.4552-1.9844-3.0692-2.0638z"/>
  <path class="st10" d="m38.288 76.549c0.50271-0.26458 0.79375-0.74083 0.84667-1.4023 0.07937-0.55562 0.29104-0.50271 0.29104 0-0.02646 0.79375-0.44979 1.4288-1.0319 1.6404-0.50271 0.18521-0.60854 0-0.10583-0.23812"/>
  <path class="st10" d="m36.965 79.354c0.37042 0.18521 0.74083 0.18521 1.1377 0.07938 0.50271-0.15875 0.92604-0.07938 1.3229 0.55562 0.79375 1.2171 0.79375 2.54 0.15875 3.4396-0.15875 0.18521-0.21167 0.18521-0.37042 0-1.4552-1.7992-4.154-2.7252-7.4083-2.3548-0.26458 0-0.29104-0.02646-0.29104-0.21167-0.10583-0.9525 0.68792-1.8785 2.3019-1.8256 0.18521-0.15875 0.37042-0.26458 0.58208-0.39688l0.39688 0.18521c-0.26458 0.15875-0.58208 0.37042-0.79375 0.50271-0.07937 0.07937-0.10583 0.07937-0.21167 0.07937-1.3229-0.02646-1.9844 0.74083-1.9315 1.3229 3.3073-0.3175 5.9796 0.50271 7.5406 2.3548 0.47625-0.68792 0.47625-1.7198-0.26458-2.8575-0.3175-0.47625-0.55562-0.50271-0.9525-0.44979-0.50271 0.15875-1.0583 0.10583-1.5346-0.18521z"/>
  <path class="st10" d="m38.209 78.481c-0.37042 0.47625-0.87312 0.87312-1.4023 1.1112-0.55562 0.29104-0.74083 0.07937-0.10583-0.21167 0.26458-0.15875 0.55562-0.3175 0.79375-0.55562z"/>
  <path class="st10" d="m39.823 81.259c0.97896-0.18521 1.9315 0.3175 2.9633 1.5875 0.3175-0.58208 0.10583-1.7727-0.76729-3.2544-0.18521-0.3175-0.26458-0.3175-0.84667-0.15875-1.0583 0.29104-2.3548 0.02646-3.4925-0.74083l0.37042-0.18521c1.0319 0.635 2.1167 0.84667 3.0427 0.55562 0.66146-0.18521 0.9525-0.18521 1.2435 0.3175 0.74083 1.2171 1.3229 2.884 0.635 3.81-0.10583 0.15875-0.21167 0.18521-0.37042 0-0.9525-1.2171-1.8256-1.7198-2.7517-1.5875z"/>
  <path class="st10" d="m42.918 80.968c0.76729 0.18521 1.4023 0.44979 2.0902 0.79375 0-0.76729-0.635-1.8785-1.7992-2.5665-0.47625-0.29104-0.76729-0.21167-1.1377 0.10583l-0.3175-0.21167c0.50271-0.47625 1.0319-0.635 1.6933-0.21167 1.2965 0.76729 1.9844 1.9315 1.9315 3.1485-0.02646 0.21167-0.15875 0.29104-0.37042 0.15875-0.66146-0.37042-1.3229-0.635-1.9844-0.79375z"/>
 </g>
 <path class="st5" d="m37.018 22.998c-0.10583-2.4077 2.0108-5.5827 4.2598-5.9002 2.1167-0.3175 3.6777 1.4288 4.154 3.519 0.15875 0.55562-0.21167 0.74083-0.66146 0.15875-0.635-0.79375-1.3229-1.3494-2.1696-1.4023-1.8521-0.10583-3.9423 1.4288-5.5827 3.6248" fill="#f5b2b2" stroke-width=".26458"/>
 <path class="st5" d="m37.018 22.998c-0.07937 1.6404 2.196 4.3392 4.6302 6.2971-0.79375-2.54-3.4925-6.3765-4.6302-6.2971" fill="#f5b2b2" stroke-width=".26458"/>
 <g stroke-width=".26458">
  <path class="st11" d="m40.722 23.447c0.68792-1.3229 1.8256-3.2015 2.9633-3.7306-1.5346-0.74083-3.1221-0.37042-5.7944 2.249 0.9525-0.02646 1.9844 0.3175 2.3812 1.1377 0.15875 0.07937 0.29104 0.18521 0.44979 0.34396" fill="#933000"/>
  <path class="st11" d="m40.564 26.86c0.39688 0.66146 0.79375 1.6404 1.1112 2.4606 0.74083-1.9315 0.58208-4.9212-1.4023-6.2442 0.635 0.9525 0.76729 2.3548 0.29104 3.7835" fill="#933000"/>
  <path class="st12" d="m37.124 22.892c0.21167-0.29104 0.47625-0.635 0.74083-0.92604 2.4077-0.02646 3.3338 1.6404 2.7517 4.7625-0.82021-1.3494-2.3548-3.3602-3.4925-3.8365" fill="#f0859a"/>
 </g>
 <g stroke-width=".26458">
  <path class="st0" d="m56.306 35.618-5.8738-1.7198c-1.8785-0.29104-3.519 1.7198-2.9369 4.5508-0.76729 1.0583-0.76729 2.5929-0.10583 3.5983 0.68792 1.0583 2.0108 1.614 3.3602 1.0319 1.3494 1.1112 3.5454 0.74083 4.2598-0.66146l1.2965-2.0108c1.9315-1.0054 1.614-3.9423 0-4.789" fill="#fbee00"/>
  <path class="st5" d="m60.011 28.501c-0.635-0.47625-1.7198-0.39688-2.54 0.29104-0.97896 0.79375-1.9844 2.831-2.4871 4.6302-0.10583-2.884 0.3175-5.7679 1.6933-8.0169-1.2171 0.10583-2.3548 1.0319-2.7781 1.9315-0.74083 1.4288-1.0583 3.8629-0.87312 6.2971-0.76729-2.2754-1.2171-4.8154-1.0583-6.9321-1.2965 0.58208-2.196 2.831-1.905 4.9477 0.97896 7.1438 5.0535 12.25 7.5142 11.695-0.10583-0.74083-0.39688-1.4552-0.92604-2.249-0.74083-1.0319-0.79375-3.2544-0.15875-6.1648 0.66146-2.9104 2.0108-5.4769 3.519-6.4294" fill="#f5b2b2"/>
  <path class="st5" d="m47.522 42.259c-1.7727 2.5929-3.0427 4.3921-4.7625 6.5617-0.55562 0.68792-0.44979 1.3229-0.07937 1.5081 0.44979 0.26458 0.87312 0.02646 1.5081-0.76729 1.614-2.0638 3.0427-4.154 4.4979-6.4294-0.42333-0.18521-0.82021-0.47625-1.1642-0.87312" fill="#f5b2b2"/>
  <path class="st13" d="m40.458 23.289c-0.635-0.21167-1.4023 0.37042-1.5346 1.1112-0.47625-0.55562-1.2965-1.3229-1.8785-1.4288 0.3175-0.39688 0.58208-0.66146 0.87312-1.0319 1.1906-0.10583 1.9844 0.47625 2.54 1.3494" fill="#cf7487"/>
  <path class="st14" d="m40.828 18.262c-0.21167 0.10583-0.47625 0.10583-0.50271 0-0.07937-0.10583 0.02646-0.29104 0.29104-0.39688 0.26458-0.15875 0.47625-0.10583 0.50271-0.02646 0.02646 0.13229-0.02646 0.29104-0.29104 0.42333" fill="#fbdbd9"/>
  <path class="st4" d="m47.496 38.449c-1.5346 2.2754-0.10583 5.4504 3.2279 4.6302 1.2435 0.9525 3.4131 0.9525 4.2598-0.68792-1.3229-1.1112-3.1485-3.7042-3.8894-6.5352-0.3175 0.79375-0.29104 1.7198-0.15875 2.4077-0.37042 1.1377-2.5929 1.6933-3.3073 0.68792z" fill="#c3d700"/>
  <path class="st4" d="m56.042 39.164c0.635-0.02646 1.2171-0.44979 1.5081-1.4023 0.15875 1.2435-0.29104 2.0902-1.2965 2.5665-0.10583-0.21167-0.18521-0.74083-0.21167-1.1642" fill="#c3d700"/>
 </g>
 <g fill="#d49a9c" stroke-width=".26458">
  <path class="st9" d="m46.808 43.344c0.29104 0.29104 0.37042 0.76729-0.07937 1.4288-1.1377 1.6933-2.7252 3.8629-4.0217 5.5033 0.26458 0.21167 0.68792 0.26458 1.2171-0.37042 1.6933-2.1696 3.519-4.6302 4.7625-6.7733-0.47625-0.26458-0.74083-0.44979-1.1642-0.87312-0.21167 0.29104-0.39688 0.58208-0.71438 1.0848"/>
  <path class="st9" d="m51.888 26.808c-0.635 0.9525-1.3494 2.3548-1.2435 4.101 0.21167 4.8154 3.3602 10.345 5.715 11.668 0.37042 0.18521 0.74083 0.3175 1.1112 0.29104l0.15875 0.44979c-3.2544 0.635-7.329-6.8527-7.62-12.382-0.13229-1.9844 0.92604-3.9688 1.8785-4.1275"/>
  <path class="st9" d="m54.428 26.781c-0.84667 1.5875-1.0583 5.2388-0.74083 7.1967 0.07937 0.39688-0.21167 0.58208-0.39688 0.47625l-0.29104-0.68792c-0.21167-4.5773 0.74083-6.5352 1.4288-6.985"/>
  <path class="st9" d="m57.841 28.713c-1.1642 1.2435-2.0902 3.6248-2.4077 5.5298-0.02646 0.21167-0.26458 0.44979-0.37042 0.39688 0-0.39688-0.02646-0.84667-0.07938-1.27 0.76729-2.249 1.8521-4.3921 2.8575-4.6567"/>
 </g>
 <g fill="#0f141b" stroke-width=".26458">
  <path class="st10" d="m44.85 20.669c-0.66146-0.92604-1.4552-1.4288-2.249-1.4552-1.7198-0.10583-3.7042 1.1112-5.3975 3.2015 0.21167-2.0108 1.9844-4.7625 4.0746-5.1065 2.0108-0.29104 3.4925 1.4552 3.9158 3.3602 0.10583 0.34396 0.07937 0.50271-0.34396 0m0.74083-0.07937c-0.50271-2.249-2.1696-3.9952-4.3392-3.7042-2.3019 0.3175-4.4979 3.4396-4.4715 5.9796-0.07938 1.8785 2.196 4.5508 4.5508 6.4558 0.3175 0.26458 0.44979 0.21167 0.58208-0.15875 0.87312-2.4871 0.21167-5.1594-1.7727-6.4294l0.29104 0.68792c1.3229 1.1642 1.9315 3.3073 1.1642 5.6356-2.1696-1.7198-4.2862-4.6831-4.445-6.006 1.6404-2.1167 3.5454-3.6248 5.3975-3.519 0.79375 0.07938 1.4288 0.55562 2.0108 1.3229 0.58208 0.79375 1.2171 0.60854 1.0319-0.26458"/>
  <path class="st10" d="m43.818 19.849c-0.87312 0.26458-1.8785 1.7727-3.0162 3.7042l-0.29104-0.26458c1.0319-1.7727 1.9844-3.2279 2.9369-3.6777z"/>
  <path class="st10" d="m37.997 21.807c2.6723-0.21167 3.6777 3.0162 2.6723 5.3181l-0.26458-0.39688c0.68792-2.249-0.18521-4.9213-2.7781-4.4979z"/>
  <path class="st10" d="m48.898 43.212c-1.2965 1.905-2.7781 4.2069-4.5508 6.4558-0.76729 0.97896-1.3229 1.0583-1.7727 0.79375-0.39688-0.21167-0.58208-0.9525 0.02646-1.7992 1.7992-2.2754 3.1221-4.101 4.8154-6.5881l0.21167 0.3175c-1.6404 2.4606-2.9369 4.2598-4.736 6.5352-0.47625 0.635-0.39688 1.1112-0.10583 1.2435 0.26458 0.15875 0.58208 0.10583 1.2435-0.76729 1.7198-2.196 3.2279-4.3921 4.4979-6.35z"/>
  <path class="st10" d="m55.169 42.524c-0.29104 0.635-0.92604 1.1112-1.614 1.27-0.9525 0.26458-2.0638 0.10583-2.831-0.55562-1.4552 0.635-2.8575-0.10583-3.519-1.0583-0.76729-1.1377-0.66146-2.8575 0.21167-3.9688l0.10583 0.44979c-0.55562 0.87312-0.635 2.3019 0 3.2544 0.58208 0.84667 1.6933 1.5875 3.0692 1.0319 0.15875-0.02646 0.18521-0.02646 0.29104 0.02646 0.635 0.47625 1.5346 0.66146 2.54 0.39688 0.66146-0.18521 1.1377-0.55562 1.4288-1.1112z"/>
  <path class="st10" d="m50.459 34.031c-1.7992-0.29104-3.3073 1.7992-2.8575 4.3656 0.15875 0.87312-0.10583 0.92604-0.26458 0.02646-0.58208-2.9369 1.1377-4.9742 3.0427-4.736z"/>
  <path class="st10" d="m51.121 36.174c-0.15875 0.50271-0.18521 0.9525-0.15875 1.4552 0.10583 0.87312-0.10583 0.87312-0.26458 0.02646-0.10583-0.68792-0.02646-1.3494 0.21167-2.0108z"/>
  <path class="st10" d="m56.227 40.248c0.76729-0.44979 1.2171-1.1642 1.2171-2.196 0-0.9525-0.47625-1.8256-1.1377-2.249l0.07937-0.3175c0.87312 0.44979 1.4552 1.4288 1.4552 2.5929 0.02646 1.1377-0.55562 2.0638-1.5346 2.4871z"/>
  <path class="st10" d="m52.787 33.131c-0.07937-2.3019 0.21167-4.4979 0.92604-5.8738 0.47625-0.97896 1.5875-1.8256 2.831-2.0638 0.37042-0.02646 0.44979 0 0.21167 0.39688-1.2171 2.1696-1.7727 5.0535-1.5875 8.3873 0.02646 0.87312-0.21167 0.87312-0.29104 0-0.21167-3.3602 0.21167-6.1648 1.4552-8.3873-0.87312 0.18521-1.905 1.0319-2.3019 1.8256-0.74083 1.4552-1.0319 3.9952-0.79375 6.5881z"/>
  <path class="st10" d="m54.931 33.025c0.47625-1.6933 1.4288-3.5454 2.4077-4.3921 0.79375-0.66146 1.905-0.76729 2.6458-0.3175 0.26458 0.15875 0.29104 0.21167 0 0.44979-1.4023 0.97896-2.6723 3.4131-3.3338 6.2706-0.66146 2.9633-0.635 5.0271 0.10583 6.059 0.47625 0.66146 0.84667 1.4288 0.92604 2.1696 0.02646 0.26458 0.02646 0.3175-0.21167 0.37042-2.7252 0.39688-6.6675-4.8419-7.6729-11.906-0.29104-2.0638 0.44979-4.1804 1.9315-5.0535 0.29104-0.15875 0.37042-0.10583 0.37042 0.21167-0.10583 2.0108 0.21167 4.4979 1.0583 6.9056 0.3175 0.92604 0.07937 1.0319-0.26458 0.10583-0.87312-2.2754-1.2965-4.6831-1.1642-6.7733-0.9525 0.58208-1.7992 2.6458-1.5346 4.5773 0.9525 6.9321 4.8683 11.88 7.1173 11.589-0.07937-0.66146-0.37042-1.27-0.84667-1.9844-0.76729-1.0583-0.79375-3.6248-0.18521-6.35 0.66146-2.9369 2.0638-5.3446 3.4131-6.3765-0.58208-0.29104-1.4552-0.10583-2.1167 0.44979-0.9525 0.79375-2.0638 2.9633-2.5665 4.9477z"/>
  <path class="st10" d="m41.49 29.242c-0.9525-2.831-3.3338-5.8738-4.445-6.0854l-0.07937-0.37042c1.2965 0 3.8894 3.4396 4.7625 6.2971z"/>
 </g>
</svg>
