<?xml version="1.0" encoding="UTF-8"?>
<!-- Created with Inkscape (http://www.inkscape.org/) -->
<svg version="1.1" viewBox="0 0 336.13 315.53" xmlns="http://www.w3.org/2000/svg">
 <g transform="translate(37.185 7.4744)" stroke-width=".83046">
  <path class="st0" d="m161.04 142.92c-1.4118-1.744-2.0762-3.3219-2.0762-5.9794 0.0832-19.018-4.9828-33.136-21.26-37.952-17.855-5.315-31.973 3.488-35.876 16.609-3.571 11.71-2.4914 20.928 5.0658 32.471 3.0727 4.8167 3.9032 8.7199 2.9066 15.198-5.398 32.886-39.447 44.347-79.642 31.059 0.33219 2.9897 0.24913 6.0624-0.49828 9.3012 1.4948-0.91354 3.2388-0.58133 5.1489 0.91351 4.9828 3.9032 7.5572 11.128 7.3912 23.17-0.0831 6.4776 1.744 10.547 6.0624 12.457 1.9931 0.24921 3.9032 0.24921 6.0624 0 13.703-1.5779 24.997-8.7199 34.049-19.018-2.0762 8.969 1.744 12.872 11.71 12.125 5.7302-0.58133 12.872-4.7336 18.519-9.8826 43.683 3.7371 59.711-56.804 42.437-80.472" fill="#ea545d"/>
  <path class="st1" d="m129.4 124.15c-4.0693-0.33218-9.8826-1.2457-14.367-2.4084 1.1626 8.0555 5.9794 12.208 10.547 11.627 2.9067-0.33221 4.7337-4.6506 3.8202-9.2182" fill="#3f3b3a"/>
  <path class="st2" d="m120.1 122.91c0.24922 3.8201 2.3253 5.6472 4.0693 5.398 1.1627-0.0832 1.9931-2.3253 0.83048-4.5676-1.5779-0.24922-3.3219-0.66438-4.8998-0.83046" fill="#fff"/>
  <path class="st3" d="m114.7 121.58c-0.99656-3.571 1.4948-7.4742 5.5641-7.3912 3.8201 0.24922 8.6369 4.1523 9.7995 10.049-4.1523-0.41523-10.713-1.3287-15.364-2.6575" fill="#8d94c9"/>
  <path class="st1" d="m178.89 160.03c-0.83046-0.99656-1.4948-1.5779-3.0727-2.9066-2.6575 2.0762-5.3981 3.6541-8.1386 5.0658 0.24922 3.0727 0.24922 6.6437 0.0832 8.6368 3.3218-0.99656 5.5641-1.827 8.969-3.8201 2.5744-1.4118 3.7371-4.8998 2.1592-6.9759" fill="#3f3b3a"/>
  <path class="st1" d="m196.75 137.94c-1.1627-0.24922-2.3253-0.33218-3.6541-0.24922 11.71-1.4118 20.679-12.789 19.765-28.9-0.0832-2.1592-1.827-2.9897-5.7302-1.744 2.3253-1.2457 4.2354-3.2388 5.9794-6.5606 2.9066-5.6472 2.9066-16.775-0.0832-23.585-1.4118-3.3219-4.4845-4.4015-6.6437-2.9066-1.827 1.4118-3.488 2.4914-5.398 4.2354 2.6575 7.059 3.6541 15.198 2.4914 24.499-2.4914 23.253-13.37 43.35-27.488 54.229 7.2251 3.8202 19.018-2.0762 23.336-13.37 1.1627-3.3219 0.0832-5.0658-2.5744-5.6472" fill="#3f3b3a"/>
  <path class="st0" d="m205.55 64.447c-0.91351 4.4845-3.488 9.0521-6.5607 13.62-1.744 2.4914-3.571 2.7406-6.3115 0.58133-4.8167-3.8201-12.872-10.381-14.948-13.786-1.5779-2.6575 0.91351-16.692 4.8167-20.928 1.5779-1.5779 3.0727-1.9931 6.0624-0.49828 9.0521 4.7336 20.014 14.118 21.426 18.436 0.99656 2.9897 0.33217 7.4742-1.827 11.627-0.66438-0.0832-1.5779 0.24922-3.2388 1.5779 3.2388-5.8132 3.1558-9.5503 0.58133-10.63" fill="#ea545d"/>
  <path class="st0" d="m143.35 37.457c6.5607-0.24922 13.038 0.91351 17.606 4.5676-0.66435-2.9066 1.1627-4.1523 4.4015-3.488 6.3115 1.2457 11.045 3.3219 15.862 7.142v0.0832c0.49828-0.83046 0.9135-1.4948 1.4118-2.0762 1.5779-1.5779 3.0727-1.9931 6.0624-0.49828 0.91351 0.49828 1.827 0.99656 2.9066 1.5779 0.24922-11.377-1.5779-30.976-3.0727-32.803-3.571-4.0693-15.613-9.3012-29.232-7.9725-1.4948-3.3219-2.7406-5.6472-4.5676-8.3877-1.1627-1.9931-2.4914-2.4914-4.7337-2.4914-10.049-0.08305-20.596 1.1627-29.897 4.8167-3.3218 1.4118-3.3218 3.488-0.9135 5.6472 10.215 9.5504 19.599 22.007 23.834 33.717 0 0.16604 0.16604 0.16604 0.33221 0.16604" fill="#ea545d"/>
  <path class="st1" d="m27.911 226.14c2.4084 3.488 5.0658 6.0624 8.1386 8.3047 4.7337 3.3219 8.3877 5.0658 12.208 5.6472-4.4015-1.827-6.2285-5.9794-6.0624-12.457 0.24913-11.959-2.4084-19.184-7.3912-23.17-1.9931-1.4948-3.654-1.827-5.1489-0.91351 2.7405-16.443-6.5607-27.239-10.381-22.589 0.24912-7.3911-4.4015-13.37-7.8064-13.204-3.3219 0.0832-6.6437 6.5607-5.7302 15.198l0.24912-0.0832c3.6541-0.83046 8.1386 2.1592 13.121 12.457 5.8133 12.125 4.0693 18.353 8.8029 30.81" fill="#3f3b3a"/>
  <path class="st0" d="m-17.1 189.43c-2.0762 3.0727-0.49828 13.786 5.8963 19.599 0.83047 5.8963 16.028 21.426 35.129 27.655 4.9828 0.24922 9.8826 0.0832 14.699-0.49828-8.969-5.5641-14.616-13.703-17.274-22.921-3.2388-11.045-8.5538-19.931-11.045-22.173-1.5779-1.5779-2.4084-2.4914-3.488-3.9032-4.1523-1.827-8.0555-3.8202-12.125-6.2285-5.2319-0.7474-11.377 4.7337-11.793 8.4708" fill="#ea545d"/>
  <path class="st1" d="m-23.246 171.24c-4.4845 2.3253-7.5572 6.8098-8.7199 11.128-1.827-0.58133-2.9066 0.0832-3.571 2.0762-2.3253 6.2285 0.33219 17.606 5.0658 22.09 1.4948 1.4948 2.4914 2.1592 4.2354 2.6575-0.91351 0.58133-1.2457 1.744-0.91351 3.488 2.4084 11.543 25.661 22.672 50.991 23.917-19.101-6.2285-34.298-21.758-35.129-27.655-6.3115-5.7302-7.9725-16.443-5.8963-19.599 0.49828-3.654 6.5607-9.2182 11.876-8.5538-3.9032-2.4084-7.9725-5.315-12.623-8.969-1.9101-1.4948-3.2388-1.6609-5.315-0.5813" fill="#3f3b3a"/>
  <path class="st2" d="m99.834 125.48c0.24912-3.2388 0.83046-6.4776 1.9931-10.049 1.9931-6.5607 6.4776-11.959 12.623-15.198-6.0624-2.7405-13.121-0.24921-16.609 5.315-3.9862 6.4776-3.3219 15.364 1.9931 19.931" fill="#fff"/>
  <path class="st2" d="m99.917 125.15c-2.0762 2.9897-2.6575 7.059-1.1626 10.547 1.4948 3.8201 4.2354 5.315 7.2251 5.0658 2.3253-0.0832 4.2354-3.0727 4.1523-8.5538-0.24912-4.4015-1.9931-5.9794-2.9897-5.7302-0.91351 0.0832-1.4948 1.5779-1.1626 3.571 0.49828 2.3253-1.4118 2.9066-2.4084 0.91351-2.0762-3.8201-1.2457-10.547 3.3219-11.045 3.3219-0.24921 7.4742 3.2388 8.1386 11.627 0.66437 9.0521-3.654 14.367-8.7199 14.616-3.3219 0.24922-8.886-1.827-11.128-8.5538-1.9931-5.9794 0-12.789 4.9828-16.36-0.0831 1.4948-0.24915 2.3253-0.24915 3.9032" fill="#fff"/>
  <path class="st4" d="m127.57 287.42c-1.2457-1.4948-2.7405-1.827-5.0658-1.9931-6.5607-0.33217-14.948-2.0761-19.018-4.5675-3.3219-12.872-7.142-35.461-8.5538-47.918-2.6575-0.3322-4.4845-1.2457-5.7302-2.9066 1.4948 14.367 4.7336 33.136 7.4742 48.914-6.3115-2.6575-12.54-1.4948-13.62 1.1627 16.028 2.9066 30.395 16.443 31.641 27.156 2.9066-1.827 4.2354-5.5641 3.8202-9.3012 0-0.33218-0.0832-0.58133-0.0832-0.83046 3.0727 1.4948 5.8963 3.9862 8.0555 7.7233 1.2457-2.4914 1.1626-6.0624 0.0829-9.2182 1.1627 0.83046 2.1592 1.5779 2.9897 2.4914 1.0796-3.6541 0.33221-7.8894-1.9931-10.713" fill="#f6b2b2"/>
  <path class="st4" d="m79.238 262.68c0.24912-2.9066-1.744-6.0624-5.0658-8.5538-1.1626-0.91351-1.9931-0.99656-3.0727-0.66435-2.6575 0.91351-6.2285 0.91351-8.5538 0-1.2457-0.49828-1.4948-0.91354-1.4118-2.0762 0.58133-3.8202 2.3253-8.7199 5.1489-14.367-2.4084 0.91351-4.7337 1.5779-7.2251 2.1592-2.3253 4.8167-4.2354 8.6369-6.8929 12.623-5.8963-0.33218-9.7995 0.83045-11.71 2.9066 9.3012-0.49828 30.395 8.1386 36.374 17.855 0.24913-2.9897-0.0831-5.7302-1.4948-8.1386 1.744 0.66435 3.2388 1.4118 4.7337 2.4914 0.0831-1.4118-0.24912-2.9067-0.83046-4.2354" fill="#f6b2b2"/>
  <path class="st5" d="m120.76 116.68c-0.49828-0.58133-0.66439-0.33218-0.49828 0.24922 0.91351 1.827 1.2457 2.9066 1.9931 4.8167 0.49828 0.99656 1.827 0.91351 1.2457-0.58133-0.66438-1.744-1.5779-3.1558-2.7406-4.4845" fill="#d3d5e4"/>
  <path class="st6" d="m117.77 180.46c0.33218 5.398 1.1627 9.5504 3.2388 14.616 0.99656 2.4914 0.99656 3.488-0.49828 5.5641-5.398 7.7233-15.613 12.208-26.16 12.789-1.827 2.7405-3.654 5.1489-5.9794 7.9725-2.9066 8.5538 2.9066 13.454 12.457 11.627 6.3115-1.1627 13.454-5.1489 17.938-9.8826 8.1386 1.1627 18.187-0.5813 25.329-6.0624-6.5607-4.1523-10.547-8.7199-12.208-11.959-1.744-3.2388-0.91351-5.9794 2.4914-7.7234-2.6575-0.33218-4.8167-0.66438-6.2285-1.4118-3.571-2.2423-7.9725-9.1351-10.381-15.53" fill="#ca4851"/>
  <path class="st6" d="m158.38 137.03c-0.49828 14.533-8.3877 21.841-18.27 20.845 9.2182 5.8963 17.108 9.4673 27.488 13.121 0.66438-10.215-1.4948-21.177-6.8929-28.402-0.91351-1.3287-2.0762-3.1558-2.3253-5.5641" fill="#ca4851"/>
  <path class="st7" d="m8.229 170.33c3.488-1.9931 9.4673 1.827 9.5504 12.789 1.744-1.9931 3.8201-1.5779 5.6472 1.1626 2.6575 4.0693 5.9794 12.457 4.5676 20.928 3.571-1.827 11.543 5.1489 11.71 16.443 0.33219 9.5504 1.744 15.447 6.0624 17.523-8.6368-2.1592-15.114-8.3047-18.436-13.371-3.8201-10.464-3.3219-28.568-15.779-41.191-1.827-1.827-3.9032-1.9931-5.9794-1.5779-0.33219-3.7371 0.24912-9.8825 2.6575-12.706" fill="#302a28"/>
  <path class="st6" d="m19.025 195.24c-4.9828-10.215-9.4673-13.204-13.121-12.457l-0.24912 0.0832c0.33218 2.6575 0.83046 4.2354 3.2388 6.5607 5.8963 5.9794 8.969 13.121 13.786 27.239 1.1626 3.2388 2.7405 6.2285 4.7336 8.969l0.49828 0.33221c-4.7336-12.291-2.9897-18.519-8.886-30.727" fill="#ca4851"/>
  <path class="st6" d="m9.5578 191.26c5.1489 8.6369 6.6437 14.118 8.5538 24.748 1.5779 10.049 3.8201 17.025 9.3012 20.679 3.654 0 7.5572 0 10.713-0.83046-6.8098-4.2354-13.62-12.457-15.613-19.35-4.0693-13.287-9.0521-23.087-12.955-25.246" fill="#ca4851"/>
  <g fill="#d4999c">
   <path class="st8" d="m95.432 237.6c-1.5779 0.0832-2.4084 2.9067-2.0762 5.9794 1.1626 8.969 3.9032 25.661 5.6472 35.461 0.33219 1.5779-0.91351 2.3253-1.9931 1.744-3.488-19.101-6.6437-39.613-7.8064-50.658 1.4118 1.827 3.3219 2.7406 5.9794 2.9067 0 1.3287 0 2.6575 0.24913 4.5675"/>
   <path class="st8" d="m83.141 279.95c8.6368-1.744 24.416 7.8064 30.478 15.53 2.6575 3.2388 3.0727 7.9725 1.2457 11.543-2.2423-11.876-17.025-24.167-31.724-27.073"/>
   <path class="st8" d="m116.53 292.08c4.9828 0.99656 9.6334 5.398 10.049 12.457-1.744-2.3253-4.4015-5.5641-8.0555-7.225-0.24921-1.9101-0.83048-3.488-1.9931-5.232"/>
   <path class="st8" d="m123.09 289.67c2.7406 1.2457 5.3981 4.0693 6.4776 8.1386-0.83045-0.66439-1.5779-1.2457-2.9066-2.0762-1.0796-2.4914-1.9931-4.4015-3.571-6.0624"/>
   <path class="st8" d="m63.459 237.93c-2.4084 4.8167-4.4015 10.713-4.5676 13.038-0.24913 1.5779 0.58133 2.3253 2.9897 2.7405 1.744 0.66439 6.4776 0.83046 8.6368 0.0832 1.5779 0 3.2388 1.1627 5.315 4.0693-2.1592-1.5779-3.8201-2.0762-5.5641-1.827 3.571 1.9931 8.3877 6.8098 9.4673 10.381-1.4948-0.66438-3.488-1.5779-4.1523-1.9931-2.7405-3.9032-4.4015-4.9828-7.142-4.8167 3.654 1.2457 7.225 7.7234 8.0555 12.208-5.6472-8.0555-24.167-16.942-36.042-17.025 2.4084-2.0762 6.2285-3.2388 11.876-2.9066 2.1592-3.571 5.0658-8.969 6.8098-12.623 1.5779-0.33217 2.4914-0.58133 4.3184-1.3287"/>
  </g>
  <g fill="#302a28">
   <path class="st7" d="m206.55 74.33c2.3253-0.0832 4.0693 1.2457 4.8167 4.1523 2.4084 8.3877 2.9897 21.26-2.4083 27.239-1.2457 1.2457-3.9032 2.6575-6.2285 2.9897 1.744-11.377 1.4948-22.34-1.744-30.478 1.4948-1.2457 2.7406-2.1592 5.5641-3.9032"/>
   <path class="st7" d="m204.89 75.327c2.7406-3.2388 3.6541-9.6334 0.83049-10.962-0.83049 2.9897-3.2388 8.7199-5.5641 11.876l0.66435 2.0762c1.5779-1.3287 2.3253-2.0762 4.0693-2.9897"/>
   <path class="st7" d="m207.46 107.38c2.0762-0.91351 3.0727-0.49828 3.3218 2.6575 0.33221 7.8064-3.2388 20.679-10.796 25.163-2.3253 1.2457-4.8167 2.3253-7.4742 2.4914 5.0658-9.5504 8.886-20.263 10.132-28.9 1.5779-0.33217 2.9066-0.74743 4.8167-1.4118"/>
   <path class="st7" d="m195.67 138.11c1.827 0.66439 2.4914 3.0727 1.4118 5.5641-2.9897 7.225-9.2182 13.038-15.114 14.284-1.4948 0.24922-4.2354 0-6.0624-0.83046 5.3981-4.4845 12.623-12.125 16.36-19.101 1.2457-0.33217 1.9101-0.33217 3.4049 0.0832"/>
   <path class="st7" d="m177.81 159.12c0.5813 1.9931 0.24922 4.4015-2.1592 6.3115-1.9931 1.4948-4.2354 3.0727-7.7234 4.8167 0-3.2388 0-5.7302-0.49828-8.0555 2.7406-1.4118 5.8963-3.2388 8.3047-4.9828 0.7474 0.66436 1.4118 1.0796 2.0762 1.9101"/>
  </g>
  <path class="st6" d="m181.97 44.765c3.8202 0.24922 20.679 11.876 21.675 15.198 0.66435 2.9897-6.4776 19.184-9.6334 19.35-6.0624-4.4845-15.613-13.038-16.443-14.699-1.6609-3.654 1.3287-14.782 4.4015-19.848" fill="#ca4851"/>
  <path class="st6" d="m200.07 76.237c3.3218 7.4742 4.4845 16.36 3.3218 26.575-2.9897 27.655-17.606 50.908-35.793 59.378-0.33218-6.6437-3.3219-15.281-6.8929-19.682-1.4948-1.827-1.744-3.0727-1.744-5.7302-0.0832-10.381-1.9931-21.509-6.6437-27.738l1.4118-3.0727c0.99656-4.9828 0.99656-15.779 0.24922-22.755l-1.2457-6.8098c-1.9931-9.3012-4.5676-21.094-7.059-29.565 12.457 0.66438 23.502 3.2388 32.554 7.5572-0.66438 3.6541-1.5779 8.969-0.49828 10.381 3.654 4.7337 11.294 11.294 15.114 14.035 3.0727 2.3253 4.8998 1.744 7.2251-2.5744" fill="#ca4851"/>
  <g fill="#302a28">
   <path class="st7" d="m168.26 83.711c-2.3253-4.1523-8.6369-7.4742-14.035-7.5572-3.0727 0-3.2388 2.0762-1.9931 3.6541 0.83046 1.1627 1.2457 2.0762 1.5779 3.3219 6.0624 1.827 10.962 5.398 14.118 10.132 1.4118-3.4049 1.4948-7.3081 0.33221-9.5504"/>
   <path class="st7" d="m173 112.61c2.3253-1.4118 4.1524-3.571 4.8167-5.8963 1.2457-4.1523 0.49828-10.132-3.571-16.942-1.5779-2.7405-4.1523-2.0762-6.2285 3.488 3.6541 5.232 5.232 11.876 4.9828 19.35"/>
   <path class="st7" d="m176.82 130.22c2.0761-2.9897 3.488-10.049 2.4084-14.616-0.83049-3.571-2.9066-4.4015-6.2285-2.9066-0.49828 9.5504-4.1523 20.346-11.377 31.226 1.744 2.4084 2.9897 5.0658 3.8201 7.5572 4.2354-2.9066 7.7234-8.1386 8.1386-12.54 0.0832-2.0761-1.1627-4.8167-2.6575-6.8098l0.0832-0.49828c1.5779 1.9101 3.9862 1.4948 5.8133-1.4118"/>
  </g>
  <path class="st6" d="m153.56 7.5605c10.049-1.5779 23.917 0.9135 30.81 6.0624 1.9931 1.4948 3.571 17.523 3.8202 29.565-2.9897-1.827-4.9828-1.1626-7.059 2.4914-4.1523-3.2388-9.0521-5.7302-14.284-6.8929-3.1558-8.4708-9.7165-24.333-13.287-31.226" fill="#ca4851"/>
  <path class="st6" d="m155.89 4.5708c-1.4948-2.9066-2.4084-4.7337-3.3219-6.4776-0.91351-1.827-1.744-2.1592-3.8201-2.1592-13.62 0.33219-27.488 3.6541-30.81 6.4776 4.1523 5.0658 17.108 15.115 24.831 34.963 6.2285 0.0832 12.872 0.49828 18.27 4.8167-0.99656-3.2388 1.5779-4.5675 5.8963-3.3218-3.2388-8.886-8.886-22.589-13.37-31.641-0.66435-1.6609-0.0832-2.3253 2.3253-2.6575" fill="#ca4851"/>
  <g fill="#d2d3d4">
   <path class="st9" d="m154.98 113.52 2.1592-0.49828c0.49828-5.5641-5.0658-9.4673-8.3047-7.9725 2.5745 2.4084 4.6506 5.315 6.1454 8.4708"/>
   <path class="st9" d="m96.014 110.78c-0.24912 3.9032 2.1592 6.5607 4.9828 7.4742-0.33219 0.99656-0.49828 1.827-0.66437 3.2388-0.91352 0.49827-1.5779 0.99655-2.4084 1.827-2.1592-2.4084-3.3219-7.2251-1.9101-12.54"/>
   <path class="st9" d="m100.08 121.75c-0.24913 1.2457-0.33219 2.6575-0.33219 4.1523-0.66437 0.91351-1.1626 1.9931-1.4948 3.654-1.2457 0.33221-2.3253 1.827-2.1592 3.488 0.083 4.7337 3.3219 10.132 8.886 11.045 3.571 0.58133 7.7233-0.58133 9.5504-6.0624-1.1626 5.315-5.1489 9.4673-10.381 8.0555-10.547-2.8236-13.287-16.775-4.0693-24.333"/>
   <path class="st9" d="m104.65 121.5c-1.827 3.488-0.0831 9.0521 0.99656 7.9725 0.91352 2.9897-0.91351 3.9862-2.1592 0.99656-1.827-4.2354-0.58133-7.8064 1.1626-8.969"/>
  </g>
  <path class="st7" d="m181.22 45.762c-4.8167-3.8201-9.5504-5.8963-15.862-7.142-3.2388-0.66438-5.0658 0.5813-4.4015 3.488-4.5675-3.6541-11.045-4.8167-17.606-4.5676-2.9897 0.0832-3.488 2.6575-0.66439 5.315 1.2457 1.2457 2.1592 2.6575 2.9897 4.0693 12.457 0.66438 23.502 3.2388 32.554 7.5572 0.66435-3.3219 1.9101-6.6438 2.9897-8.7199" fill="#302a28"/>
  <g fill="#0f141b">
   <path class="st10" d="m106.48 146.16c0.24912 0.49828 0.58133 0.91351 0.91351 1.4118 3.488 5.315 4.0693 9.0521 2.9897 15.779-2.3253 13.454-9.0521 23.585-19.599 29.897-14.948 8.886-37.205 9.6334-60.79 1.744l-0.0831-1.4118c23.502 7.4742 45.26 7.142 60.043-1.827 10.215-6.0624 16.775-16.111 18.852-28.651 1.1626-6.5607 0.33219-10.132-2.6575-14.699-0.58133-0.66435-0.91352-1.4118-1.4118-2.0761z"/>
   <path class="st10" d="m101.41 139.35c-3.0727-7.7234-3.2388-15.198-0.49828-24.084 3.9032-13.038 18.27-22.423 36.79-17.025 14.865 4.4845 22.007 16.775 21.841 38.7 0 2.3253 0.58133 3.8202 1.827 5.5641 10.464 14.367 8.7199 40.61-1.9931 59.046-5.5641 9.3012-18.519 24.997-41.689 22.589l1.4948-1.4118c21.675 1.827 33.468-12.872 38.783-22.007 10.796-18.519 12.125-43.849 2.1592-57.302-1.4118-1.9931-2.0762-3.571-2.0762-6.5607 0.0832-21.426-6.6437-33.053-20.845-37.205-17.938-5.315-31.226 3.8202-34.963 16.111-2.7405 9.0521-2.6575 16.609 0.99656 24.748z"/>
   <path class="st10" d="m120.18 114.85c-3.654-0.0832-5.7302 3.488-5.0658 6.3115 4.4015 1.1627 9.7995 1.9931 14.035 2.4084-1.1626-4.9828-5.6472-8.6368-8.969-8.7199m-6.2285 6.6437c-0.83046-3.571 1.5779-7.9725 6.2285-7.7233 4.0693 0.0832 8.886 4.2354 10.215 10.049 0.24922 0.83046 0 0.99656-0.91351 0.99656-4.2354-0.49828-10.381-1.4118-14.699-2.4914-0.58133-0.16604-0.66437-0.33221-0.83047-0.83048"/>
   <path class="st10" d="m129.98 124.24c0.83046 4.4015-0.91354 9.2182-4.4015 9.6334-4.8167 0.5813-10.049-3.8202-11.128-12.457l1.2457 0.49828c1.1627 7.7233 5.6472 11.377 9.7995 10.796 2.4084-0.24922 4.2354-4.0693 3.2388-8.7199z"/>
   <path class="st10" d="m97.757 124.4c-4.0693-4.9828-4.4015-12.872-0.49828-19.101 4.0693-6.4776 11.627-8.3047 17.938-5.315l-1.4948 0.83046c-5.6472-2.3253-12.125-0.0832-15.447 5.1489-3.3219 5.398-3.2388 12.623 0.24912 17.357z"/>
   <path class="st10" d="m99.335 127.56c-0.99656 2.1592-1.1627 5.1489 0 8.0555 1.4948 3.6541 4.4015 4.7337 6.6437 4.5676 1.744-0.0832 3.654-2.4914 3.488-7.8064-0.0831-4.1523-1.4948-5.5641-2.1592-5.3981-0.58133 0.0832-0.99656 1.1627-0.66438 2.9067 0.58133 3.2388-2.0762 3.9032-3.488 1.4948-2.3253-4.2354-1.2457-11.543 3.8202-11.959 3.488-0.33221 8.1386 3.3218 8.7199 12.208 0.66438 8.969-3.654 14.948-9.3012 15.198-3.8201 0.24922-9.4673-1.9931-11.71-8.886-2.1592-6.3115 0.24913-13.454 5.1489-16.942l-0.24913 1.5779c-4.1523 3.6541-5.398 9.7995-3.654 14.865 2.1592 6.5607 7.4742 8.3047 10.464 8.1386 4.7337-0.24922 8.7199-5.398 8.0555-13.952-0.58133-7.7233-4.1523-11.377-7.4742-11.045-4.2354 0.3322-4.5676 6.8098-2.9066 10.049 0.83047 1.4948 1.744 1.2457 1.4118-0.49828-0.49828-2.4084 0.33219-4.1524 1.5779-4.2354 1.4118-0.24922 3.571 1.4948 3.654 6.3115 0.24913 5.8963-2.1592 8.969-4.7337 9.0521-3.3219 0.24922-6.3115-1.4118-7.9725-5.315-1.4948-3.8201-0.83046-7.9725 1.1627-11.128z"/>
   <path class="st10" d="m156.47 112.36c0-4.4015-4.2354-7.7234-7.142-6.8098l-0.99656-0.99656c3.654-1.827 9.7995 2.4084 9.4673 8.3047z"/>
   <path class="st10" d="m152.98 105.47c0.99656-5.0658 0.99656-14.948 0.0832-22.173-0.0832-0.91351 0-1.1627 0.91351-0.91351 21.841 6.8098 26.575 34.298 7.9725 62.119l-0.66435-1.2457c17.357-25.911 13.62-52.485-6.8098-59.129 0.91354 7.2251 0.66438 17.523-0.33217 22.173z"/>
   <path class="st10" d="m171.42 131.3c1.4118 1.5779 3.3219 1.2457 4.9828-1.4118 1.9931-2.9067 3.3219-9.5504 2.3253-14.118-0.66439-3.2388-2.4084-3.9032-5.7302-2.4084v-1.1627c3.6541-1.4948 6.0624-0.49828 6.8929 3.3219 0.99656 4.7337-0.49828 11.876-2.4084 15.114-2.1592 3.3218-4.7336 3.3218-6.0624 1.9931z"/>
   <path class="st10" d="m165.19 151.06c4.1523-2.9897 7.4742-8.0555 7.8064-12.208 0.0832-1.827-0.83045-3.9032-2.0762-5.6472l0.49828-1.1627c1.4948 1.827 2.9067 4.5676 2.7406 6.8929-0.49828 4.5676-4.0693 10.132-8.6369 13.121z"/>
   <path class="st10" d="m178.06 54.98c-8.3877-4.1524-19.101-6.8098-31.641-7.4742 2.4083 8.5538 4.8167 19.599 6.8098 28.734l-1.1627 0.49828c-2.0762-9.4673-4.4015-20.263-7.142-29.482-0.24922-0.83045 0-1.1626 0.91351-0.99656 12.789 0.66439 23.668 3.3219 32.471 7.5572z"/>
   <path class="st10" d="m200.49 75.655c3.488 7.8064 4.7337 16.942 3.571 27.239-2.9897 27.073-17.357 51.074-36.457 59.96l-0.0832-1.4118c18.436-8.7199 32.222-31.724 35.295-58.714 0.99656-9.5504 0-18.187-3.0727-25.661z"/>
   <path class="st10" d="m161.12 43.021c-4.1523-3.488-10.215-5.1489-17.855-4.9828-2.4914 0.0832-2.4914 2.0762-0.33217 4.2354 1.4118 1.2457 2.4084 2.7406 3.0727 4.2354l-1.1626 0.66435c-0.83049-1.4948-1.4948-2.7405-2.7406-4.0693-3.2388-3.2388-2.4084-6.3116 1.1627-6.4776 7.3912-0.24922 13.454 1.4948 17.357 4.4015z"/>
   <path class="st10" d="m180.97 46.343c-4.8167-3.8201-9.5504-5.8963-15.779-7.142-3.3219-0.66435-4.4015 0.83049-3.488 3.488 1.2457 3.571 3.571 5.8963 7.225 8.0555l-3.488-0.91351c-2.4914-1.827-3.9032-3.8201-4.9828-6.6437-1.4118-3.9032 0.66439-6.0624 4.9828-5.315 6.3116 1.4118 11.045 3.571 16.028 7.4742z"/>
   <path class="st10" d="m205.8 63.617c2.9067 1.9931 3.0727 5.6472 0.24922 10.796l-2.1592 1.2457c3.571-5.5641 3.571-9.0521 1.5779-10.796z"/>
   <path class="st10" d="m207.46 73.583c2.0762-3.8201 3.2388-8.3046 2.0762-11.71-1.4118-4.0693-11.876-13.121-21.177-17.938-2.9897-1.5779-4.1523-0.91351-5.315 0.33217-3.8201 4.1524-6.0624 17.855-4.7336 20.18 2.3253 3.8201 11.876 11.294 14.699 13.62 2.9066 2.1592 4.1523 1.5779 5.398-0.33217 4.0693-5.7302 6.2285-10.464 7.059-14.699 0.49828-2.7406 1.2457-2.6575 0.9135 0.0832-0.58133 4.4845-2.6575 9.3012-6.8098 15.447-1.827 2.4914-4.0693 3.2388-7.3912 0.58133-3.9032-2.9897-12.789-9.8826-15.198-14.035-1.5779-2.7405 0.91351-17.025 5.0658-21.509 1.9931-2.0762 3.8201-2.3253 6.8098-0.66439 8.886 4.4845 20.18 14.035 21.758 18.769 1.1626 3.8202 0.0832 8.3047-1.744 11.959z"/>
   <path class="st10" d="m202.73 108.13c4.0693-0.91351 7.142-2.6575 9.7995-7.9725 2.7405-5.315 2.7405-16.194-0.0832-23.004-1.2457-3.0727-3.9032-3.9032-5.7302-2.4914-1.9931 1.2457-3.571 2.4914-5.5641 4.2354l-0.41523-1.1627c1.827-1.5779 3.3218-2.9066 5.1489-4.1523 2.6575-1.827 6.2285-0.49828 7.5572 2.9897 3.2388 7.3911 2.9066 18.602 0.0832 24.167-3.2388 6.2285-7.142 7.8064-11.128 8.6369z"/>
   <path class="st10" d="m176.32 156.71c6.8929 3.488 18.187-2.6575 22.173-13.204 0.99656-2.7405 0.49828-4.4015-1.9931-4.9828-1.4118-0.33217-2.9066-0.33217-4.5676-0.24922l0.58133-1.1627c1.744-0.0832 2.9897-0.0832 4.2354 0.24922 3.2388 0.66435 4.4015 2.9066 2.9897 6.5607-4.7337 12.291-17.357 17.606-24.416 13.703z"/>
   <path class="st10" d="m166.19 170.49c4.2354-1.2457 6.4776-1.9931 10.132-4.0693 2.1592-1.2457 3.488-4.0693 2.0761-5.9794-0.83046-0.99656-1.4948-1.5779-3.0727-2.9897l0.99656-0.66435c1.4948 1.2457 2.1592 1.827 2.9897 2.9066 1.9931 2.4914 0.5813 6.2285-2.4084 7.9725-3.2388 1.827-5.6472 2.7405-8.3877 3.571z"/>
   <path class="st10" d="m90.117 200.31c1.744-1.4948 2.9066-2.4084 4.0693-3.2388 0.99656-0.58133 1.4948 0.0832 0.49828 0.83046-0.99656 0.83045-2.0762 1.4948-4.1523 2.9066-1.4118 0.9135-1.6609 0.58133-0.41523-0.49828"/>
   <path class="st10" d="m89.204 220.24c-2.4084 9.4673 1.4118 13.038 10.796 12.208 9.8826-0.83048 23.004-12.291 27.073-20.845 0.99656-1.9931 1.827-1.5779 0.91354 0.49828-3.571 8.7199-17.689 20.928-28.07 21.841-9.0521 0.66436-14.367-2.6575-12.291-11.959z"/>
   <path class="st10" d="m18.693 181.79c0.33219-7.7233-4.2354-13.371-7.2251-13.204-2.7405 0.0832-6.0624 6.8098-4.9828 14.948 0.33219 2.4084 0.99656 3.6541 2.9066 5.5641 5.9794 5.8963 9.2182 13.204 14.035 27.488 2.3253 6.6437 7.142 13.038 13.121 17.274 6.6437 4.7336 11.543 6.3115 17.689 5.5641 17.938-2.1592 32.72-13.454 44.845-34.215 1.2457-1.9931 1.9931-1.4948 0.91352 0.49828-11.71 21.094-27.488 32.886-45.676 35.129-6.4776 0.83046-11.71-0.66438-18.769-5.7302-6.0624-4.2354-11.294-11.128-13.62-17.938-4.8167-14.035-7.8064-21.177-13.703-26.907-1.9931-1.827-2.9897-3.8201-3.3219-6.3115-1.2457-9.5504 2.4084-16.692 6.3115-16.942 3.571-0.0832 8.7199 5.6472 8.6369 13.62z"/>
   <path class="st10" d="m28.908 204.05c1.4948-7.8064 0.0831-16.028-3.9032-20.928-2.9066-3.6541-5.398-3.3219-7.3912 2.1592-0.66438 2.0762-1.4118 1.827-0.91352-0.33218 1.827-6.8098 5.8963-7.225 9.5504-2.9066 3.9032 4.9828 5.5641 12.872 4.0693 21.177z"/>
   <path class="st10" d="m46.186 239.67c-3.0727-1.827-4.9828-5.5641-4.8167-12.125 0.24912-11.294-1.9931-18.436-7.059-22.423-3.488-2.7406-5.8963-1.1627-7.4742 3.8201-0.83047 2.1592-1.4948 1.9931-0.91352-0.33218 1.827-6.8929 5.8963-7.4742 9.3012-4.7337 5.315 4.2354 7.8064 11.876 7.5572 23.668-0.083 7.225 2.4084 11.377 7.8064 12.54z"/>
   <path class="st10" d="m41.032 214.92c1.5779 1.4118 4.1523 2.1592 6.2285 2.0762 2.1592-0.24922 2.1592 0.58133 0.0831 0.91351-2.0762 0.24921-4.4015-0.24922-5.9794-1.4118z"/>
   <path class="st10" d="m-32.63 182.12c1.4948-4.9828 4.5676-9.4673 9.2182-11.71 2.3253-1.1626 3.9032-0.9135 5.9794 0.66439 9.0521 7.225 15.198 11.128 23.917 15.114l0.99656 1.827c-9.6334-4.1523-16.609-8.3877-25.744-15.613-1.827-1.4118-2.9897-1.4118-4.7337-0.58133-4.2354 2.3253-7.059 6.3116-8.3877 10.796z"/>
   <path class="st10" d="m-26.651 209.69c-1.4118-0.33217-2.7405-0.99656-4.4015-2.6575-4.9828-4.8167-7.7233-16.111-5.1489-22.755 0.91351-2.4914 2.6575-3.2388 5.1489-2.1592 5.1489 2.3253 10.132 4.7336 16.028 8.0555 2.9066 1.5779 2.4084 2.3253-0.49828 0.83045-5.9794-3.2388-10.713-5.398-16.028-7.7234-1.9931-0.83046-2.6575-0.49828-3.488 1.4948-2.1592 6.0624 0.58133 17.108 4.9828 21.426 1.9931 1.9931 2.7405 2.3253 4.4845 2.7406z"/>
   <path class="st10" d="m39.621 236.68c-31.309 4.1523-64.776-9.6334-67.683-24.084-0.49828-2.6575 0.49828-4.4845 3.571-4.5676 4.8167-0.24922 9.0521 0 16.692 0.66435 2.7405 0.24922 2.7405 1.1627-0.08305 0.91354-7.3912-0.58133-11.543-0.58133-16.194-0.33221-2.3253 0.0832-2.7405 1.1627-2.4084 3.2388 2.6575 12.457 32.803 26.243 64.361 23.004z"/>
   <path class="st10" d="m95.598 233.11c1.4948 12.623 5.315 35.129 8.3877 48.084 0.58133 1.827-0.33219 2.0762-0.83047 0.24922-3.488-13.038-7.3912-35.793-8.7199-48.416z"/>
   <path class="st10" d="m89.951 230.87c1.4948 13.371 4.2354 30.478 7.3912 48.25 0.33218 2.3253-0.58133 2.3253-0.91352 0.24922-3.2388-17.357-6.2285-35.295-7.7233-49.828z"/>
   <path class="st10" d="m96.844 279.62c-6.6437-2.7405-11.876-1.1627-12.872 0.24922 16.111 3.2388 29.482 16.194 31.309 26.492 2.0762-1.5779 3.0727-4.5675 2.7406-8.1386-0.49828-3.9032-2.1592-6.6437-4.5676-7.2251-1.5779-0.33218-2.9066-0.99656-4.2354-2.3253-1.4948-1.4118-0.99656-1.9931 0.58132-0.66438 1.2457 1.1627 2.1592 1.5779 3.9032 1.9931 2.9897 0.66438 4.9828 3.6541 5.5641 8.0555 0.49828 4.1523-0.91351 7.5572-3.8202 9.6334-0.66437 0.58133-0.91351 0.49828-1.1626-0.49828-1.4948-9.8826-15.114-23.253-30.81-26.326-0.91352-0.24922-0.99656-0.49828-0.58133-1.1627 1.5779-2.4914 7.7233-3.6541 13.786-1.2457z"/>
   <path class="st10" d="m118.35 296.56c3.2388 1.4948 5.8963 3.9032 8.0555 7.2251 0.66435-2.1592 0.66435-5.5641-0.66438-8.6369-1.827-4.2354-3.8201-5.9794-6.8929-5.9794-1.827 0-3.9032-0.66439-5.5641-1.5779-1.827-0.99656-1.4948-1.744 0.49828-0.83046 1.5779 0.91351 3.488 1.2457 5.1489 1.2457 3.488 0 5.8963 2.0762 7.8064 6.6438 1.4948 3.3218 1.5779 7.142 0.33217 10.381-0.33217 0.83046-0.66435 0.66438-1.1626-0.0832-2.0762-3.0727-4.4845-5.5641-7.3912-7.142z"/>
   <path class="st10" d="m103.4 280.2c3.9032 2.6575 12.54 4.4015 19.184 4.7336 2.7406 0.0832 4.0693 0.58133 5.3981 2.3253 2.3253 2.6575 3.2388 7.225 2.0761 11.045-0.24922 0.83045-0.49828 0.83045-0.99656 0.24922-0.5813-0.66439-1.4118-1.4118-2.3253-1.9931l-0.49828-1.4948c1.2457 0.66438 2.1592 1.2457 2.9897 2.0762 0.66438-2.9897 0.0832-6.4776-2.1592-9.3012-0.99656-1.1627-2.0761-1.5779-4.7336-1.827-6.3116-0.33218-14.533-1.827-18.769-4.4015z"/>
   <path class="st10" d="m67.03 236.85c-2.9066 5.6472-4.8167 10.796-5.315 14.699-0.083 0.66438 0 0.99656 0.99656 1.4948 2.4084 0.99656 5.6472 0.83049 8.1386 0 1.1626-0.49828 2.1592-0.33218 3.571 0.66438 3.9032 2.9066 5.8963 6.6438 5.1489 9.8826l-0.91351-1.827c-0.24912-2.1592-2.0762-4.9828-4.9828-7.142-1.2457-0.91351-1.744-0.91351-2.6575-0.58133-2.7405 0.91354-6.4776 0.91354-8.886 0-1.4948-0.66435-1.827-1.4948-1.744-2.6575 0.49828-3.9032 2.0762-8.6369 4.8167-14.035z"/>
   <path class="st10" d="m75.003 263.59c1.744 0.66438 3.0727 1.2457 4.4845 2.3253-0.0831-3.571-2.4914-6.4776-5.8963-8.6369-1.1627-0.83046-1.744-0.91351-2.9066-0.83046-2.4914 0.24922-4.8167 0-6.8098-0.66438-1.5779-0.58134-1.4118-1.2457 0.24915-0.83046 1.9931 0.66435 4.0693 0.66435 6.4776 0.49828 1.4118-0.24922 2.4084 0 3.6541 0.91351 4.4015 2.9066 6.3115 6.4776 6.3115 10.381 0 0.91351-0.24913 0.99656-1.1626 0.49828-1.1627-0.83045-2.4084-1.4948-3.8202-2.0762z"/>
   <path class="st10" d="m59.805 239.09c-2.4084 5.0658-4.4845 8.969-6.8929 12.789-0.24912 0.49828-0.58132 0.58133-0.91351 0.58133-4.5676-0.24922-7.7233 0.33218-10.049 1.744 9.4673 0.24922 27.987 7.8064 34.381 16.692 0-2.9897-0.66437-6.3116-4.0693-9.4673-0.99656-0.91354-1.744-1.4118-2.9897-1.4948-1.9931-0.24922-3.654-0.99656-5.315-1.9931-1.9931-1.2457-1.4948-1.827 0.49828-0.66438 1.4948 0.9135 3.2388 1.4118 5.0658 1.5779 1.4118 0.0832 2.4084 0.66435 3.571 1.744 3.0727 2.7406 4.5676 7.059 4.2354 11.71-0.0831 1.2457-0.49828 1.2457-1.1626 0.24922-6.3115-9.2182-25.994-17.357-35.544-17.357-0.99656 0-1.1626-0.33218-0.49828-0.99656 2.4084-2.3253 6.4776-3.0727 11.71-2.9066 2.3253-3.6541 4.2354-7.2251 6.3115-11.876z"/>
   <path class="st10" d="m142.19 37.623c-3.9032-10.713-12.623-23.004-23.668-33.302-3.0727-2.9897-2.4084-5.398 0.99656-6.8929 8.886-3.654 19.101-5.315 30.395-4.8167 2.6575 0.08305 3.9032 0.66437 5.315 2.9066 1.827 2.9066 3.2388 5.315 4.7336 8.7199l-1.4118 0.0829c-1.4948-3.2388-2.6575-5.398-4.4845-8.1386-1.1626-1.827-1.827-2.1592-4.2354-2.1592-11.294-0.08305-21.426 1.4948-29.565 4.8167-2.6575 0.99656-2.9066 2.4084-0.66439 4.5676 11.128 10.381 20.18 23.17 24.084 34.049z"/>
   <path class="st10" d="m166.35 38.786c-4.2354-11.377-9.8826-23.834-13.371-31.226-0.91351-2.0762-0.0829-3.0727 1.2457-3.488 15.198-3.2388 30.229 2.6575 34.63 7.7233 1.744 1.9931 3.488 22.755 3.2388 33.468l-1.2457-0.66435c0.24921-11.627-1.744-30.478-3.0727-31.973-3.8202-4.4845-18.104-10.215-33.053-7.059-0.66438 0.0832-0.91351 0.49828-0.33217 1.5779 3.488 7.4742 9.052 20.346 13.37 31.89z"/>
   <path class="st10" d="m26.998 225.06c-4.2354-11.128-2.9897-17.938-8.5538-29.565-5.7302-11.627-9.7995-12.623-12.623-11.876l-0.08305-1.4118c2.9066-0.66439 7.5572 0 13.786 12.54 6.0624 12.457 4.4845 21.675 9.7995 33.136z"/>
   <path class="st10" d="m167.6 92.763c1.2457-3.3219 1.1627-6.8929 0.24921-8.7199-2.3253-3.9032-8.5538-7.142-13.703-7.2251-2.3253 0-2.4914 1.4118-1.4118 2.7406 0.83046 1.1626 1.4118 2.1592 1.5779 3.571l-1.2457 0.24921c-0.0832-1.4118-0.49828-2.0762-1.2457-3.0727-1.5779-2.0762-0.99656-4.5676 2.4083-4.5676 5.6472 0.0832 12.291 3.6541 14.616 7.8064 1.4118 2.4083 1.1626 6.4776-0.49828 10.381z"/>
   <path class="st10" d="m173 111.95c1.827-1.1627 3.571-2.9897 4.2354-5.315 1.4118-4.4845 0.0832-10.381-3.488-16.443-1.4948-2.4084-3.571-1.4948-5.398 3.488l-0.83049-0.9135c2.4084-6.0624 5.5641-5.9794 7.142-3.2388 3.8201 6.3115 5.0658 12.789 3.6541 17.523-0.91354 2.4914-2.7406 4.8167-5.5641 6.2285z"/>
   <path class="st10" d="m209.29 106.05c2.6575-0.5813 4.0693 0.58133 4.1523 2.7406 1.1627 17.606-9.4673 28.9-21.26 29.565l0.58134-1.2457c10.713-0.99655 20.512-11.543 19.433-28.319-0.0832-1.4948-0.99656-1.9931-2.7406-1.5779-1.1627 0.24922-2.1592 0.58133-3.488 0.99656z"/>
   <path class="st10" d="m22.347 236.68c-19.101-6.6437-32.803-20.346-34.049-27.488-6.5607-5.6472-8.3047-16.194-5.9794-19.931 0.66437-4.5675 6.0624-9.2182 11.627-8.969l1.827 1.2457c-4.9828-1.2457-11.543 4.0693-12.291 7.8064 0 0.24922-0.08305 0.33221-0.24912 0.58133-1.5779 2.9897 0 13.121 5.7302 18.436 0.24916 0.24921 0.33219 0.33217 0.33219 0.83045 1.5779 5.9794 16.942 21.509 36.707 27.488z"/>
  </g>
  <path class="st4" d="m146.01 128.89c-1.4948 1.1626-3.0727 0.99656-4.4015 0-4.8167-4.1523-5.1489-12.457-1.5779-15.779 3.9032-3.654 14.699-2.9066 22.423 2.3253 7.059 4.7336 10.132 13.454 8.5538 18.187-0.49828 1.4118-1.1626 1.1627-1.9931-0.24922-4.4015-8.2216-16.111-9.8826-23.004-4.4845" fill="#f6b2b2"/>
  <path class="st8" d="m138.87 125.15c0.66435 1.4118 1.5779 2.6575 2.7405 3.6541 1.2457 0.99656 2.9066 1.1626 4.4015 0 4.2354-3.3219 10.547-3.9032 15.613-1.9931-6.2285-4.0693-16.942-4.4845-22.755-1.6609" fill="#d4999c"/>
  <path class="st0" d="m134.71 154.88c19.931 11.627 35.71 19.433 53.482 19.35 10.962-5.5641 18.852-10.547 24.084-14.533l6.2285-4.0693c5.398-3.2388 9.0521-6.4776 12.623-9.2182 25.578 24.084 12.291 58.963-18.686 72.085-35.544 14.948-69.759-7.3912-85.704-44.181-4.5676-10.713-0.0832-24.167 7.9725-19.433" fill="#ea545d"/>
  <g fill="#3f3b3a">
   <path class="st1" d="m212.69 178.55c2.4084 0 4.2354-0.0832 5.9794-0.49828 1.9931-0.49828 3.0727-1.9931 3.8201-4.7337 1.2457-5.398-0.66438-13.62-3.3218-16.775-1.4118-1.827-2.4914-1.744-3.8202-0.58133-1.1626 0.99656-1.827 1.9931-3.0727 3.6541 3.2388 6.8929 2.9897 13.287 0.41526 18.935"/>
   <path class="st1" d="m132.97 162.77c-2.4914-1.827-5.315-0.83048-5.0658 2.4084 0.0832 2.9897 2.0762 6.2285 4.5676 8.3047 1.5779 1.2457 3.488 2.0762 5.315 1.744-0.83046 0.91351-0.91351 2.4084-0.33218 4.1523 0.99656 3.3219 5.1489 7.142 8.3877 8.7199 2.4083 1.1626 4.5676 0.66435 7.142-1.1627-0.5813 1.4948-0.91351 2.7406-0.5813 3.571 1.744 4.5676 11.294 9.2182 15.613 7.9725 2.4084-0.66438 3.9032-2.6575 4.2354-5.315-14.45-4.2354-28.485-15.862-39.281-30.395"/>
   <path class="st1" d="m216.85 180.46c-1.5779-0.66438-2.9066-0.99656-4.4015-1.4948-4.4015 8.969-14.865 15.281-26.326 16.028-4.4845 0.24922-9.0521-0.33217-13.703-1.744 0.33221 4.4015 0.99656 7.3912 3.6541 8.7199 5.6472 3.0727 16.194 1.827 20.263-1.2457 1.4948-1.1626 1.4948-2.4083 0.99656-3.8201-0.49828-0.91351-0.9135-1.827-1.4118-2.9066 2.9897 3.0727 5.315 4.4015 6.6437 4.2354 3.571-0.0832 13.703-7.7233 15.862-13.454 1.0796-2.4084 0.24922-3.654-1.5779-4.3184"/>
   <path class="st1" d="m245.66 193.91c3.9032-0.99656 8.1386-3.0727 9.6334-5.5641 4.2354-7.4742 2.7405-22.921 0.83046-26.575-0.91351-1.744-1.827-1.4948-3.3219-0.66438-0.66438-10.132-7.7233-18.852-13.952-20.679-1.5779-0.49828-3.0727-0.24922-3.9032 1.1627-0.99656 1.4948-2.0762 2.9066-3.8201 4.9828 25.578 24.084 12.291 58.963-18.686 72.084-35.544 14.948-69.759-7.3912-85.704-44.181-0.83046-1.827-1.5779-2.3253-3.3219-1.9931-1.4948 0.24921-2.9066 0.83045-3.9032 1.4118-1.1627 0.58133-1.744 1.9931-1.744 3.8202 0.33218 7.4742 7.9725 17.523 11.045 18.519 1.9931 0.66438 3.8201 0.99656 5.6472 0.99656-3.0727 1.4118-4.0693 4.4845-2.9897 6.8929 3.488 7.9725 14.533 14.533 17.108 14.948 1.744 0.24922 4.1523 0 6.5607-0.83049-2.4084 2.0762-2.3253 4.4845 0 6.4776 8.7199 7.3912 19.682 9.7995 26.907 8.886 2.6575-0.33218 5.9794-2.9897 8.6369-5.9794-0.3322 1.744-0.3322 3.2388 0.0832 4.5676 0.5813 2.1592 2.1592 3.3219 5.8963 3.9032 14.284 1.9931 26.907-3.8201 28.402-8.6368 0.83046-2.4914 0.99656-5.398 0.83046-7.9725 0.99656 1.5779 2.9066 2.9897 4.9828 2.9897 8.1386 0 17.855-11.627 20.928-20.346 1.4118-3.9862-0.0832-7.3081-6.1455-8.2216"/>
  </g>
  <g fill="#ea545d">
   <path class="st0" d="m281.21 123.99c-3.8201-6.2285-16.609-13.952-28.402-15.613-1.1627-0.0832-1.744 0.49828-2.0762 1.5779-2.4084 10.132-8.0555 22.921-12.872 30.146 0.33217 0.0832 0.66438 0.0832 0.99656 0.24922 6.2285 1.827 13.204 10.547 13.952 20.679 1.1627-0.58133 1.9931-0.91351 2.6575-0.24922 10.132-7.2251 20.18-20.679 25.163-31.641 1.4118-2.6575 1.4118-3.8201 0.58134-5.1489"/>
   <path class="st0" d="m297.07 161.86c-0.58133-2.9066-1.827-3.488-4.4015-4.2354-7.8064-2.3253-23.17-1.2457-36.457 4.2354 1.827 3.8202 3.2388 19.018-0.91351 26.492-1.2457 2.0762-4.4015 3.8202-7.7233 4.9828 17.025-2.0762 31.973-0.83046 43.849 2.1592 1.827 0.49828 2.3253 0.24922 2.9897-1.5779 3.8202-10.298 4.4015-22.256 2.6575-32.056"/>
   <path class="st0" d="m271.74 206.62c-5.398-4.1523-13.786-8.3877-21.509-11.128 2.1592 1.5779 2.4914 3.9032 1.5779 6.5607-2.4083 6.6437-8.7199 15.198-15.198 18.769 0.24922 0.0832 0.5813 0.33218 0.83046 0.58133-1.9931 2.3253-2.9066 3.571-4.2354 5.6472-0.9135 1.2457-1.1626 2.3253 0.24922 2.9897 4.9828 2.3253 11.876 3.488 18.27 1.4948 5.5641-1.5779 16.36-9.5504 20.845-19.599 1.2457-2.6575 0.91351-3.9032-0.83046-5.315"/>
  </g>
  <path class="st11" d="m151.82 117.34c-0.3322 0.83046-0.99656 1.1626-2.1592 0.83046-1.4948-0.58133-1.744-1.4118-1.4948-2.0762 0.24922-0.66435 0.99656-1.2457 2.1592-0.91351 1.2457 0.41523 1.6609 1.4948 1.4948 2.1592" fill="#fcdfdd"/>
  <path class="st6" d="m237.36 221.4c2.7406 1.744 6.0624 3.9032 8.3046 5.7302 1.9931 1.5779 1.744 3.0727-0.83045 3.2388-3.6541 0.24922-8.3877-0.99656-11.876-2.9066 1.2457-1.9101 2.6575-3.9862 4.4015-6.0624" fill="#ca4851"/>
  <g fill="#0f141b">
   <path class="st10" d="m169.43 133.12c-4.0693-7.8064-19.101-13.62-30.229-8.7199-1.5779-3.9032-0.99656-8.6369 1.2457-10.796 3.3218-3.0727 13.454-3.0727 21.675 2.3253 7.059 4.8167 9.7995 13.37 8.3877 17.606-0.24922 0.41523-0.58133 0.41523-1.0796-0.41522m-23.834-4.8167c-1.4118 0.99656-2.4914 0.91351-3.571 0-0.99656-0.83049-1.744-1.744-2.3253-2.7406 4.5676-1.9931 11.543-2.1592 17.025-0.33218-3.8201-0.41523-7.9725 0.66438-11.128 3.0727m17.191-13.454c-8.0555-5.398-19.184-6.0624-23.253-2.3253-3.654 3.488-3.9032 12.125 1.5779 16.942 1.4118 1.1627 3.488 1.2457 5.1489 0 6.6438-5.315 18.104-3.571 22.173 4.2354 0.99656 1.9931 2.4084 1.827 2.9897 0.0832 1.827-5.1489-1.4948-14.118-8.6368-18.935"/>
   <path class="st10" d="m137.37 175.81c-1.5779 0.0832-3.3219-0.49828-5.315-1.9931-2.6575-2.0761-4.5675-5.6472-4.8167-8.5538-0.0832-3.571 2.7406-5.1489 5.8963-3.0727 0.24922 0.0832 0.33221 0.24922 0.49828 0.49828 16.028 20.928 35.212 32.554 52.569 31.641 18.27-0.99656 33.634-16.775 25.994-33.468-4.4845 3.2388-11.876 7.9725-23.336 13.952-0.24922 0.0832-0.49828 0.0832-0.66436 0.0832-17.274 0.0832-33.053-7.142-53.399-19.433-2.3253-1.4118-1.9931-2.0762 0.49828-0.83045 20.845 11.959 35.295 18.769 52.569 18.852 0.0832 0 0.24922-0.0832 0.3322-0.0832 11.377-5.7302 19.184-10.713 23.585-13.952 0.83049-0.66436 1.1627-0.66436 1.5779 0.3322 7.9725 17.855-7.7233 34.547-27.156 35.71-16.36 0.99656-37.039-10.049-53.482-32.222-2.4084-1.744-4.4015-0.58133-4.2354 1.9931 0.24922 2.4914 1.9931 5.8963 4.4015 7.8064 1.744 1.4118 3.488 2.0762 5.398 1.5779z"/>
   <path class="st10" d="m143.35 174.81c-1.827 0.0832-2.9897 0.24922-4.1524 0.33221-1.5779 0.24922-1.9931 1.827-1.2457 4.1523 0.99656 2.9897 4.9828 6.6437 8.3046 8.3047 2.4914 1.2457 4.7336 0.33217 7.142-1.5779l-0.66439 1.827c-2.4914 1.827-4.5676 2.0762-7.059 0.83049-3.3218-1.5779-7.4742-5.315-8.7199-8.969-0.91354-2.7406-0.24922-5.315 2.0761-5.5641 0.99656-0.0832 2.0762-0.24922 3.488-0.33221z"/>
   <path class="st10" d="m154.73 184.36c-1.4948 2.9066-2.0762 5.1489-1.744 6.0624 1.5779 4.4015 11.045 8.6369 14.948 7.5572 2.3253-0.66438 3.488-2.6575 3.8202-4.9828l1.1626 0.33218c-0.49828 2.9066-2.0761 4.9828-4.7336 5.6472-4.4015 1.2457-14.533-3.3218-16.36-8.3046-0.58133-1.5779 0.83046-4.7337 2.0762-7.059z"/>
   <path class="st10" d="m172.91 193.33c0.49828 4.5676 1.2457 7.059 3.488 8.1386 5.5641 2.9897 15.613 1.827 19.682-1.2457 1.1627-0.9135 1.4118-1.744 0.83046-3.2388-0.49828-1.1627-0.99656-2.3253-1.827-3.6541l0.99656-0.49828c0.66438 1.4118 1.4118 2.4914 1.827 3.8202 0.83048 2.0761 0.24921 3.488-1.1626 4.4845-4.2354 3.2388-15.281 4.4015-20.845 1.4118-2.9897-1.5779-3.654-5.1489-4.0693-9.3012z"/>
   <path class="st10" d="m195.42 192.59c3.488 3.9032 5.9794 5.1489 7.2251 5.1489 3.488-0.0832 13.204-7.5572 15.281-13.204 0.66439-1.827 0.49828-2.9066-1.2457-3.6541-1.5779-0.58133-2.9067-0.99656-4.4845-1.4948l0.49828-0.91351c1.5779 0.49828 2.9066 0.83046 4.4015 1.4118 2.4083 0.99656 2.9897 2.6575 2.0762 5.0658-2.3253 6.0624-12.623 13.786-16.443 13.952-1.4118 0.0832-3.571-0.99656-6.0624-3.488z"/>
   <path class="st10" d="m212.86 177.97c2.4914 0 4.1523-0.0832 5.7302-0.49828 1.5779-0.33217 2.7405-1.4948 3.3218-4.2354 1.2457-5.3981-0.66438-13.204-3.0727-16.36-1.2457-1.4948-1.9931-1.5779-3.0727-0.49828-1.1626 0.99656-1.5779 1.744-2.9897 3.571l-0.99656-0.58133c1.2457-1.827 2.0762-2.7405 3.2388-3.9032 1.5779-1.4118 3.0727-1.4118 4.7336 0.66438 2.6575 3.3219 4.7337 11.627 3.488 17.274-0.83046 3.2388-2.1592 4.7337-4.2354 5.1489-1.744 0.33217-3.6541 0.33217-6.4776 0.33217z"/>
   <path class="st10" d="m133.63 197.65c-1.2457 0-2.9897-0.3322-5.0658-0.91353-4.0693-1.4118-11.128-11.377-11.377-19.184-0.0832-2.1592 0.83048-3.6541 2.0762-4.4015 1.2457-0.74744 2.7406-1.1627 4.1523-1.4118 1.744-0.33221 2.9066 0.0832 3.8201 2.3253 15.613 35.876 49.413 58.797 85.04 43.766 30.644-12.872 43.267-47.087 18.769-70.59-3.0727 2.4914-6.3116 5.0658-12.125 8.969l-0.99656-0.9135c6.0624-4.0693 9.2182-6.4776 12.54-9.3012 0.49828-0.49828 0.66439-0.58133 1.1627 0 26.243 24.997 11.627 60.292-19.018 73.081-35.544 14.948-70.341-7.3912-86.285-44.513-0.83046-1.744-1.4118-1.9931-2.9066-1.744-1.2457 0.24922-2.4084 0.66439-3.6541 1.4118-0.91351 0.5813-1.4118 1.744-1.2457 3.2388 0.24922 7.059 7.4742 17.025 10.547 18.104 2.0762 0.83046 4.0693 1.1626 6.5607 0.99656z"/>
   <path class="st10" d="m154.48 218.99c-2.0761 0.58133-4.0693 0.9135-5.9794 0.58133-2.9897-0.58133-13.786-6.5607-17.606-15.281-1.2457-2.9066 0-7.059 4.7336-7.9725 1.9931-0.33218 2.0762 0.24922 0.24922 0.83048-3.8202 1.1626-4.7337 4.2354-3.8202 6.6437 3.488 7.8064 14.533 14.118 16.692 14.533 2.0762 0.33218 4.8167 0 7.3911-0.99656z"/>
   <path class="st10" d="m190.52 228.54c-2.3253 2.6575-5.5641 5.1489-8.3046 5.5641-8.1386 0.99656-19.018-1.5779-27.655-8.886-2.9897-2.4914-2.9897-6.6437 3.488-9.3012 2.0762-0.83046 2.3253 0 0.3322 0.9135-5.1489 2.3253-5.315 5.315-2.9066 7.3912 9.0521 7.7234 20.014 9.5504 26.575 8.6369 2.4084-0.24922 5.8963-2.7406 8.7199-6.3115z"/>
   <path class="st10" d="m226.56 219.99c0.24922 2.4914 0 5.315-0.83048 7.5572-1.5779 5.0658-14.699 11.128-29.149 9.052-3.571-0.49828-5.6472-1.9931-6.3115-4.4015-0.58134-1.9931-0.49828-4.2354 0.49828-7.059 0.66435-1.744 1.4118-1.4948 0.9135 0.33221-0.66438 2.4914-0.83048 4.4845-0.24921 6.3115 0.58133 1.827 1.9931 2.9897 5.398 3.488 13.952 1.9931 26.243-3.6541 27.738-8.3047 0.91351-2.6575 0.99656-5.5641 0.58133-8.6369z"/>
   <path class="st10" d="m223.99 216.09c-0.24922-1.9931 0.58133-2.1592 0.91351-0.0832 0.49828 2.6575 2.7406 5.7302 5.9794 5.7302 7.4742 0.0832 17.108-10.962 20.346-19.931 1.4948-4.2354-0.83045-7.142-7.3911-7.5572-1.827-0.24922-1.744-0.99656 0-0.91351 7.5572 0.33221 10.381 4.1524 8.6369 8.969-3.0727 8.6369-13.038 20.928-21.758 20.845-3.4049 0-6.1454-3.488-6.7268-7.0589"/>
   <path class="st10" d="m244.5 193.66c3.9032-0.91354 8.7199-3.0727 10.215-5.6472 4.1523-7.142 2.7406-22.34 0.83046-25.911-0.5813-1.2457-1.2457-1.1627-2.0761-0.83046-2.0762 1.1626-3.571 2.0761-5.5641 3.2388-1.827 1.1627-2.1592 0.58133-0.49828-0.66439 1.827-1.4118 3.3218-2.4083 5.5641-3.571 1.4118-0.83048 2.9066-0.49828 3.8201 1.1626 2.0762 4.0693 3.571 19.765-0.91351 27.239-1.4118 2.4083-5.315 4.4015-8.969 5.398z"/>
   <path class="st10" d="m230.47 145.91c1.744-1.5779 2.9897-3.3219 3.9032-4.8167 0.91351-1.2457 2.7406-1.9931 4.8167-1.4118 6.3116 1.9931 13.454 10.796 14.118 21.094l-1.2457 0.5813c-0.58133-10.132-7.7234-18.602-13.371-20.346-1.744-0.49828-2.9066 0.0832-3.3218 0.91351-0.99656 1.5779-2.4084 3.3219-4.0693 4.9828z"/>
   <path class="st10" d="m237.11 140.1c5.315-7.9725 10.547-20.346 12.872-30.229 0.49828-1.5779 0.99656-2.4084 2.9066-2.0762 12.872 1.827 24.748 9.2182 28.9 15.862 0.91351 1.4118 0.91351 2.9066-0.58133 5.8963-4.7337 10.049-14.616 24.167-25.329 31.724l-1.1627-0.83048c10.962-7.5572 20.596-21.509 25.329-31.558 1.2457-2.7406 1.1627-3.571 0.58133-4.5676-3.6541-5.8963-15.779-13.454-27.821-15.281-0.9135-0.0829-1.1627 0.0832-1.4118 1.1627-2.3253 9.5504-7.9725 22.423-12.872 30.063z"/>
   <path class="st10" d="m255.88 161.28c13.952-5.7302 29.731-6.6437 37.205-4.4015 2.9066 0.83048 4.2354 1.744 4.8167 4.7337 1.9931 10.962 1.1627 22.34-2.6575 32.554-0.83048 2.1592-1.5779 2.6575-3.8202 2.0761-9.4673-2.4084-25.329-4.9828-45.842-2.0761l3.571-1.744c19.018-2.1592 33.468 0 42.437 2.3253 1.4118 0.3322 1.5779 0.24921 2.0762-1.1626 3.571-9.6334 4.4845-21.26 2.6575-31.641-0.49828-2.4084-1.2457-2.9897-3.8202-3.8201-7.3912-2.1592-22.423-1.4118-36.125 4.2354z"/>
   <path class="st10" d="m248.99 194.5c8.6368 2.9066 18.27 7.4742 23.668 11.627 1.9931 1.4948 2.4083 3.0727 0.99656 6.0624-4.4015 9.6334-15.613 18.187-21.841 20.014-6.0624 1.827-13.121 0.99656-18.685-1.5779-1.744-0.83046-1.827-2.1592-0.66438-3.9032 1.4948-2.0762 2.4084-3.2388 4.4015-5.5641l1.1627 0.58133c-2.0762 2.4084-2.9897 3.571-4.4015 5.6472-0.66438 0.99656-0.66438 1.5779 0.0829 2.0762 5.5641 2.6575 12.125 3.0727 17.855 1.4948 5.398-1.744 16.028-9.5504 20.346-19.184 1.1626-2.4914 0.9135-3.3218-0.58134-4.4845-4.9828-3.8201-12.54-7.8064-20.346-10.796z"/>
   <path class="st10" d="m237.28 220.49c2.9897 1.827 4.9828 3.3218 7.5572 5.6472 2.0762 1.744 1.5779 2.3253-0.58134 0.66438-2.6575-1.9931-5.1489-3.6541-8.1386-5.7302z"/>
  </g>
 </g>
</svg>
