<?xml version="1.0" encoding="UTF-8"?>
<!-- Created with Inkscape (http://www.inkscape.org/) -->
<svg version="1.1" viewBox="0 0 181.97 244.06" xmlns="http://www.w3.org/2000/svg">
 <g>
  <g>
   <path d="m132.65 68.741c4.5413-13.742-3.7779-27.94-16.672-29.317-3.7465-11.363-15.185-15.912-25.327-13.776-6.5246-14.041-23.577-24.907-35.199-25.068 4.6418 8.9161 6.2593 19.306 5.2945 27.609-9.6735-9.4093-21.865-12.898-26.809-10.125 3.8943 3.604 7.457 10.203 8.7083 16.335-21.755-1.0181-44.31 16.551-41.809 35.909 3.744-5.0613 9.5077-9.4675 15.548-12.389-5.5333 11.889-6.7116 27.194-3.8354 41.939 2.2511-10.619 6.7426-19.066 11.02-23.933 0.35631 5.6631 1.0622 12.064 1.9554 17.991 4.1652-7.9985 9.9138-13.933 15.205-18.274 0.85019-1.4736 1.7653-2.9009 2.7679-4.264l58.973 6.5063c4.8553 1.0707 10.951 4.966 12.48 7.385 3.7151 2.5601 6.6001 4.6962 9.0519 6.6548-0.78176 2.0638-1.3183 4.5544-1.4439 6.9197 3.1168 4.5293 9.3031 10.053 14.868 14.806 9.5363-9.9254 9.6513-33.364-4.777-44.908" fill="#eeefef"/>
   <path d="m129.43 163.91c-2.4977-3.9998-2.7982-7.3004-2.5206-13.113 0.3937-8.2352-2.6374-18.886-8.6526-27.942 1.1049-1.2704 3.1588-3.9268 4.9378-7.5678-0.33972-0.28645-0.6791-0.57185-1.0185-0.85725-3.6558 1.8708-9.0699 3.4354-14.613 2.2719-6.7423-5.1985-17.321-8.534-22.573-19.584-1.699-3.575-3.4495-6.6255-5.4934-8.5587-2.37-0.53446-4.6136-1.0601-6.6259-1.5561-0.75989-9.2809-10.04-14.555-17.02-12.664-1.4379 3.1704-2.7552 5.3971-3.3256 5.5929-0.48859 0.16792-1.7741-0.64171-3.3757-2.0779 0.55104 7.5374 0.36125 20.419-1.2569 26.613-1.2442-3.0776-2.7019-5.8942-4.5226-9.3098-0.99377 3.4198-1.7459 6.7695-2.6229 10.434-0.14922-1.923-0.39617-3.9843-0.95885-6.3197 0.52141 4.27-0.27305 8.5147-2.4476 13.077-1.2079 2.5347-1.0234 3.658 0.65722 5.2977 3.2512 3.1715 9.3073 4.1995 12.279 2.8363 1.5988-0.73272 3.1133-2.3181 5.48-4.8345 6.1292-2.8568 12.363-7.3293 16.859-12.507-0.23707 0.75777-0.47414 1.439-0.7426 2.104 8.6558 4.5459 9.5296 20.815 0.75671 23.279 5.3792 4.1656 12.747 3.8181 17.419-4.1434 0.30762 2.7661-0.86431 6.5151-4.3709 9.5095 4.0326 1.4736 9.3775-1.1522 14.237-7.771 2.3922 0.86925 4.1645 2.3213 5.4335 4.3847 4.2852 6.9649 8.153 19.136 9.6682 27.332 1.088 5.8882 3.091 8.9613 8.6723 9.6474 2.5379 0.31327 4.3543 0.74366 6.4978 1.5395-0.39722-1.669-0.64099-3.6968-0.75741-5.1142" fill="#eeefef"/>
   <path d="m59.27 79.142c-0.90417 5.2218-2.9164 11.028-5.5407 15.934 4.4842 3.5348 10.366 2.5502 12.43-2.6444 2.1244-5.346-0.76129-11.531-6.889-13.289" fill="#e73656"/>
   <path d="m69.105 88.65c3.0529-0.93027 6.1203 2.2288 5.2846 5.9295-1.1391 5.0458-6.065 9.8792-13.075 15.355 7.5985-7.258 9.7391-18.905 7.7904-21.285" fill="#fff"/>
   <path d="m38.666 110.5c-2.6652 5.7983 5.927 8.945 9.5649 8.1178 1.511-0.3436 4.0097-1.9925 5.7252-3.8439 2.3096-2.4927 3.9345-4.0471 6.7151-6.7486 4.6676-4.535 9.235-14.019 8.3947-19.035 1.5018 2.6106 0.74753 10.978-6.3736 19.703 7.5265-5.5714 15.469-13.429 9.7875-21.415 2.9658 0.51224 5.6554 1.0587 7.3766 1.4393 1.5928 2.0789 3.7454 5.2818 5.3866 8.8611 3.3189 7.2383 12.113 12.42 22.275 19.141 4.1187 1.0703 10.609 0.23883 14.436-2.4698l1.0961 0.9151c-1.4189 3.3253-3.3598 6.0844-4.6609 7.8003 5.7291 8.824 9.3553 20.668 8.431 28.125-0.58879 4.7459 0.23424 9.1842 2.5612 12.547 0.15275 1.8186 0.32984 3.4032 0.75035 5.3904-2.328-0.94192-4.1388-1.3575-6.5786-1.6454-4.1116-0.48542-7.2503-2.5016-8.0476-6.9642-1.7438-9.7603-5.9372-22.714-10.163-29.814-1.1409-1.9163-2.7838-3.55-5.4031-4.4249-4.1921 6.1592-9.8055 8.3799-12.408 8.0557 3.4484-2.092 4.2658-6.7737 2.9799-10.565-3.7426 7.0997-10.372 8.709-15.676 6.2516 5.244-2.419 6.833-8.9101 3.3401-18.083-1.3621-2.5964-3.7073-5.5714-6.1606-6.3758l0.68756-2.4215c-3.0501 4.1018-11.631 10.394-17.009 12.622-2.1519 2.3657-4.6179 4.9015-6.4742 5.176-4.7883 0.70767-9.0043-1.2171-10.812-2.7185-2.5167-2.0899-2.4617-3.7592 0.25824-7.6193" fill="#c9c9ca"/>
   <path d="m63.577 107.49c5.6706-4.6729 9.3288-8.9045 10.262-13.037 0.76024-3.3662-2.0542-6.1267-4.5879-5.3767l-0.23213-0.8583c3.2068-1.0386 6.8562 2.2292 5.8942 6.4904-1.2143 5.377-6.6167 10.633-14.724 16.732z" fill="#0d131a"/>
   <path d="m66.057 103.89c0.73801-0.055 1.1003-0.091 1.7219-0.22119-0.0942-1.0615-0.1517-1.9505-0.32209-2.7887l0.45332-0.87453c0.95885 0.15275 1.832 0.16086 2.7556 0.1337-0.55739-1.2545-0.93663-2.075-1.676-3.3934l0.23989-0.91828c1.3864-0.0702 2.9146-0.33443 4.246-0.64982-1.0738-2.1361-2.9005-4.6708-4.4048-6.477l0.86043-0.22507c1.4898 1.7254 3.2403 4.2503 4.4189 6.4551l-0.35101 0.99942c-1.5268 0.38523-2.8586 0.57079-4.1314 0.64946 0.75635 1.3554 1.2192 2.2493 1.7992 3.5433l-0.60607 0.90558c-0.87383 0.0332-1.8433-4e-3 -2.776-0.1591 0.15593 0.89958 0.26494 1.6962 0.37324 2.7386l-0.76517 0.86255c-0.70556 0.13299-1.4242 0.17638-2.2952 0.2353z" fill="#0d131a"/>
   <path d="m143.01 190.96c4.9978-2.8988 9.119-5.3724 10.268-8.5478 2.7323-7.5431 4.1458-28.068 2.2535-36.393 1.3892 3.236 2.6744 6.6012 3.9264 10.702-1.5092-9.6545-3.9649-18.213-6.8813-25.66-2.9094-7.4298-5.503-10.298-11.455-14.636-5.951-4.3385-13.363-10.978-17.458-16.072-1.7787-2.2126-2.4483-3.7116-3.3429-6.0508-3.2057-8.3785-9.7342-14.469-17.993-16.39 2.1982-1.1726 4.0516-2.4712 5.2857-3.8481-6.8474-2.1544-15.514-4.2788-24.237-5.4395 5.7284-2.7513 10.762-5.3255 14.687-7.4951-8.8004-1.6468-20.938-1.5004-30.182 1.3557-1.8055-3.2085-4.8687-7.7103-6.0791-8.6088-1.2104-0.89888-12.941-7.0774-14.193-6.6809-1.2513 0.39652-8.962 14.055-8.522 15.743 0.73625 2.8258 2.432 5.8395 4.3857 8.5351-3.2205 3.9822-6.3786 11.388-7.8782 16.816 2.5065 3.6389 3.6311 7.6031 4.3318 11.749 0.3944 1.7596 0.66922 3.634 0.81844 5.557 0.87701-3.665 1.6291-7.0146 2.6229-10.434 1.8207 3.4156 3.2784 6.2322 4.5226 9.3098 1.6182-6.1941 1.808-19.076 1.2569-26.613 1.6016 1.4362 2.8871 2.2458 3.3757 2.0779 0.57045-0.1958 1.8877-2.4225 3.3256-5.5929 6.9797-1.8912 16.26 3.3828 17.02 12.664 2.0122 0.49601 4.2559 1.0216 6.6259 1.5561 2.044 1.9332 4.1282 4.8436 5.4934 8.5587 3.2089 8.7341 22.573 19.584 22.573 19.584s4.783-3.1718 8.6981-7.2058c6.6675 5.4783 13.76 11.578 21.316 18.207-0.10548 2.3855 1.3074 5.728 3.7246 9.7465 4.4796 7.4461 9.6675 23.746 9.1874 39.081-0.0903 2.8868-0.47766 4.8151-1.8669 6.5698-2.4532 3.0988-4.1466 5.4031-5.6109 7.855" fill="#ae0a34"/>
   <path d="m153.28 182.41c-1.1501 3.1754-5.2702 5.6494-10.268 8.5478-0.50201 0.84102-0.9779 1.6979-1.4471 2.6113-0.59725 1.1635-1.5399 2.3523-2.9916 2.5188-11.543 1.3282-13.765 12.568-11.583 16.165 2.4931 4.1102 7.7206 4.8419 12.258 2.6102 0.59619 2.728 2.6437 4.5939 5.5164 4.7692 1.5459 0.0949 3.4826-0.85407 5.231-2.667 8.8 2.3467 13.062-7.7107 10.65-27.848 0.89041-11.898 0.32984-22.701-1.1857-32.399-1.2524-4.1007-2.5382-7.4658-3.9268-10.702 1.8923 8.3248 0.47801 28.85-2.2535 36.393" fill="#eeefef"/>
   <path d="m44.373 194.3c0.12806-4.3596 0.98496-8.6759 2.7086-13.565 4.2965-12.192 9.2505-24.676 15.143-39.451 1.6192-4.0615 1.9593-6.5606 2.8635-10.974 1.3702-6.689 5.0472-19.59 7.5417-27.15-5.0183 5.7577-9.616 8.7863-15.203 11.511-0.69603 6.1757-1.1264 9.905-2.5852 14.911-0.85055 2.9178-1.3674 5.049-2.7474 7.8895-2.2909 4.717-4.7184 10.905-7.3953 18.308-2.5005 16.11-3.7073 32.826-0.32667 38.521" fill="#ae0a34"/>
   <path d="m30.821 192.5c-6.6855 12.591-8.4677 19.842-8.0091 24.162 0.41204 3.8798 2.8882 5.2423 5.5809 4.6038 1.0792 1.0058 2.7658 1.7247 5.1756 1.8962 2.7114 0.19367 4.7604-0.629 5.7633-2.908 0.66816 0.23636 1.3857 0.41169 2.1654 0.50059 3.2572 0.36795 7.3279-1.2072 8.7312-6.2685 1.0661-3.8474-0.78211-7.523-4.554-8.0462-0.95779-4.3702-1.415-8.2726-1.301-12.138-3.3807-5.6938-2.1738-22.41 0.32667-38.521-1.9971 5.5238-4.1324 11.722-6.4562 18.504-2.2384 6.5331-3.9677 11.709-7.4228 18.216" fill="#eeefef"/>
  </g>
  <path d="m23.206 214.4c0.91849 1.7984 1.6696 3.5 3.7542 3.5039l1.3904 3.4483-2.1969 0.0556-2.8921-2.4194z" fill="#c9c9ca"/>
  <g>
   <path d="m137.52 113.65c0.47343-0.5087 0.87913-1.0022 1.2344-1.4009 1.1786-3.2815 1.6295-6.9878 1.6122-10.047-3.4858 1.3652-6.8351 3.2357-10.012 5.2119 2.2927 2.1629 4.7657 4.3102 7.1656 6.2364" fill="#5a5649"/>
   <path d="m82.288 169.14c7.8542-3.0314 21.228-9.6093 26.533-14.532-11.929 3.2565-22.732 4.3727-32.755 5.4254 1.6404-6.6227 8.0179-14.381 14.953-19.532-18.004 4.0682-28.437 13.777-27.314 22.182 0.69885 5.2285 6.2823 9.1147 15.316 12.343 4.8927 1.7487 7.7724 3.2283 10.38 5.3142-3.804 9.3334-9.5229 14.539-15.054 14.275-12.263-0.58385-17.421 0.99836-18.631 5.2797l1.821 5.2066 18.115 8.3531c6.689-1.0866 8.9023-2.8053 10.188-5.5365 3.1482-6.6904 10.699-18.84 18.242-25.92 2.7136-2.5467 2.4656-5.7369 0.13617-7.0919-1.9519-1.1356-3.9201-2.6233-5.9514-4.3755-7.3106 1.2132-13.679 0.20531-15.978-1.3921" fill="#eeefef"/>
   <path d="m122.64 167.32c-4.7928-0.93345-6.6118-3.9762-7.6295-9.482-1.5152-8.1954-5.3827-20.367-9.6675-27.332-1.2696-2.0634-3.0409-3.5154-5.4338-4.3847-0.16193 0.22013-0.32456 0.42439-0.48754 0.6357 2.3185 3.6802 4.2242 7.2588 5.8332 11.879-5.1498 0.2293-9.9109 0.88476-14.24 1.8627-6.9349 5.1506-13.312 12.908-14.952 19.531 10.023-1.052 20.826-2.1685 32.754-5.4254-5.3047 4.9223-18.679 11.501-26.533 14.532 2.2987 1.5977 8.6677 2.6053 15.978 1.3924 1.1871-0.18556 2.3897-0.41663 3.6033-0.71014 10.019-2.4172 14.414-3.4283 20.775-2.4984" fill="#ae0a34"/>
   <path d="m142.07 181.24c-0.74718-5.9831-0.30409-17.617 1.0583-24.307 2.6501 5.4677 5.3164 11.299 7.3805 17.152-0.0981-14.593-4.972-29.581-9.2128-36.632-2.4179-4.0192-3.8308-7.3611-3.7253-9.7465-2.8769-2.5238-5.5365-4.8436-8.0966-7.0517-4.2309 2.0436-8.2437 2.2856-11.224 2.2034 5.1777 6.912 9.4453 20.398 8.6536 28.432-0.49565 5.0338 0.51082 9.748 2.3506 11.678 0.18909 2.0553 0.51999 4.1099 0.9966 6.1207 4.5653 8.3968 8.0821 12.05 11.819 12.15" fill="#ae0a34"/>
  </g>
 </g>
 <g fill="#eeefef">
  <path d="m144.41 188.76c1.1539-1.7131 2.4938-3.4907 4.2108-5.6582 1.3885-1.7551 1.7762-3.683 1.8669-6.5698 0.0247-0.81421 0.031-1.6312 0.0254-2.4497-2.0641-5.8536-4.73-11.685-7.3805-17.153-1.3621 6.6897-1.8055 18.324-1.0583 24.307-3.737-0.10019-7.2542-3.7532-11.819-12.15 1.9819 8.3605 6.5133 15.962 14.155 19.674"/>
  <path d="m164.42 162.98c4.2739-2.8974 6.2364-6.3306 6.9737-9.6428-2.5033 0.67381-4.7389 0.8322-6.8143 0.46567 7.505-4.1871 8.4141-13.41 6.8248-18.71-3.7059 4.221-10.309 7.56-14.878 7.1632 0.46355 1.9978 1.1952 5.0211 1.6013 7.3995 2.3664 2.5439 4.7526 7.8077 6.2925 13.324"/>
  <path d="m157.98 148.85c6.2604 8.9461 8.6752 20.508 8.2494 30.161 0.58314 1.3141 1.2559 2.5464 2.0108 3.6805 1.1031 1.6563 1.3395 2.45 1.3448 4.916 0.0212 9.7808 1.2457 23.057 6.4721 29.27 4.172 4.9597 5.6547 8.5326 5.0959 13.399l-6.7197 1.6605c-3.3013 0.65969-9.3945 0.62195-12.554-0.15875l-8.17-2.4208c-1.6535-3.2614-0.042-9.144 5.7034-13.487 2.1505-1.6249 2.1819-3.4103 1.1762-8.1654 0.91863-4.6274 0.97896-10.863 0.0533-18.587 0.9345-13.702 0.69215-22.35-2.6624-40.268"/>
 </g>
 <path d="m154.09 228.38-0.80274 1.6856c9.5804 4.5599 19.383 5.1449 28.439 0.89062l-0.79297-1.6875c-8.5329 4.0083-17.648 3.4879-26.844-0.88867z" color="#000000" fill="#0d131a" style="-inkscape-stroke:none"/>
 <g fill="#5a5649">
  <path d="m166.85 225.52-2.2417 0.82587-1.4158 2.2023 0.15731 4.09 1.5731 4.9159 2.281 4.1294 1.927 1.8484 1.2978-2.8315 1.4158-5.6238 0.0393-4.444-1.1405-3.5001-2.0057-1.5338z"/>
  <g>
   <path d="m128.79 201.43c-2.5816 0.2279-5.1724-1.2552-7.0404-4.8024-2.1735 4.741-0.19896 13.376 5.0084 15.169-1.0192-2.31-0.62477-6.7659 2.032-10.367"/>
   <path d="m56.551 206.37c-2.3357 1.4944-4.1928 2.128-6.9674 2.5615 0.94474 1.5032 1.2146 3.5052 0.64453 5.5626-0.40464 1.4598-1.0354 2.6208-1.8006 3.5373 5.1058-0.64276 9.6301-6.2593 8.1234-11.661"/>
   <path d="m25.527 93.915c-0.89323-5.927-1.5991-12.328-1.9554-17.991-4.2771 4.8676-8.7683 13.315-11.02 23.933 3.271 16.77 11.786 32.817 25.106 42.293-6.5483-24.091-7.0185-49.009 3.0748-66.51-5.2917 4.342-11.041 10.275-15.206 18.275"/>
   <path d="m39.156 62.602c3.8128 4.191 9.9265 9.5934 11.689 9.1927 1.5639-0.3556 7.2739-12.206 10.268-15.111-0.71085 8.4628-7.1039 22.506-8.5901 23.248-1.4862 0.7426-12.439-10.511-13.367-17.33"/>
  </g>
 </g>
 <g fill="#c9c9ca">
  <path d="m131.33 106.73c7.0026-9.0544 6.677-25.292 0.18132-35.315 2.1156-5.0165 2.7044-9.163 1.7396-14.603-0.24518 7.3628-3.2096 13.678-6.4354 15.941 3.8107-14.486-2.1431-27.361-14.071-33.336 1.5092 2.9714 2.2426 8.9292 2.087 12.337-3.2498-15.343-12.417-23.198-26.507-25.373 2.89 4.1882 5.025 13.716 5.0024 18.819-5.3545-21.93-21.678-37.385-37.665-44.338 5.7563 12.278 6.1016 20.416 4.6348 30.645-7.3628-7.7223-19.492-13.608-26.066-13.219 3.537 4.0774 7.3096 9.6739 8.3806 16.175 14.281 1.2499 28.457 11.084 33.258 26.217 7.0802-0.88829 15.09-1.143 21.874 0.44662-3.9864 2.4324-8.6476 4.8599-14.373 7.4895 8.5958 1.277 16.535 2.9806 24.099 5.3844-1.233 1.2912-2.6416 2.5037-4.7868 3.7045 4.5935 1.3741 9.6344 4.4506 12.96 8.0952 2.5936 1.7293 5.5827 3.8054 8.3107 6.0396-0.80469 2.5615-1.2164 4.2407-1.3709 7.0506 0.29881 0.4378 0.63324 0.89076 1.0015 1.3586 2.7242-1.5857 6.1838-2.7062 9.4661-2.739-0.35596 2.5308-1.543 6.6192-3.4061 9.3271 0.14146 0.14182 0.28433 0.28505 0.42862 0.42863z"/>
  <path d="m0.78484 70.081c1.7886-5.678 7.3215-11.884 16.012-15.164 1.5734-0.59373 2.6102 0.49671 2.2405 1.7865-7.9686 3.6269-12.813 6.907-18.252 13.378"/>
  <path d="m19.03 56.731c-0.97437 0.33161-2.0055 0.85619-2.7834 1.2492-5.2412 11.829-6.519 26.904-3.75 41.49 0.90099-3.2678 1.8821-6.3564 2.7619-8.7969-0.89994-12.398 0.77752-24.234 3.7715-33.943"/>
 </g>
 <g fill="#403b2f">
  <path d="m37.72 141.81c-14.877-15.282-21.201-33.764-22.462-51.14-0.87948 2.4405-1.8606 5.5291-2.7616 8.7969 3.1454 16.569 11.512 32.508 25.224 42.344"/>
  <path d="m123.66 100.35c1.5815 1.9678 3.6608 4.1663 5.9577 6.374 1.5261-2.1685 2.8243-5.4113 3.471-9.2438-3.0614 0.031-6.3824 0.79163-9.4809 2.8018 0.018 0.0233 0.0328 0.0448 0.0522 0.0681"/>
  <path d="m116.4 109.51c-1.0301 0.81316-2.1654 2.026-2.2617 2.0564-1.9911 1.9325-3.8234 3.5521-6.5765 5.1361 4.476 1.1052 10.345 0.14957 14.536-2.3361-1.5879-1.3328-4.0686-3.5172-5.6981-4.8563"/>
 </g>
 <g>
  <path d="m48.204 76.791c-3.7264 5.8314-7.1586 14.827-8.2973 24.551-0.23742-5.4374-1.8609-9.204-4.3127-13.057 1.567-5.3897 4.1208-12.023 7.9061-16.909 1.4676 2.1562 2.5795 3.4262 4.7039 5.4144" fill="#8f0027"/>
  <path d="m33.92 95.798c1.252 2.3805 3.5556 4.699 6.1697 6.6636-0.17004-4.421-1.3106-9.6485-4.4958-14.176-0.67839 2.4356-1.2414 4.8024-1.6739 7.5124" fill="#c9c9ca"/>
  <path d="m33.845 96.011c1.3384 2.0588 2.8776 3.7518 4.9138 5.4388-2.4232 1.688-4.3617 3.4791-5.7058 4.8327 0.0928-3.7345 0.34996-6.9021 0.79199-10.271" fill="#8f0027"/>
  <path d="m50.699 71.885c0.36371 2.5435 0.94615 5.467 1.7604 8.1065-3.5839-0.50623-11.567-10.915-13.35-17.233 3.3958 3.4565 9.2728 8.745 11.589 9.1267" fill="#403b2f"/>
 </g>
 <g fill="#8f0027">
  <path d="m61.377 57.412c-0.17392 5.5954-0.65652 10.972-1.8722 16.606-1.0788-0.0589-2.5594 0.12559-3.8622 0.42157 2.2172-4.3095 4.524-10.968 5.7344-17.028"/>
  <path d="m103.72 78.229c-3.3641 2.7284-8.4741 5.8124-11.908 7.1476-1.0192-0.89394-2.2535-1.9304-3.1288-2.685 4.384-0.9398 9.4672-2.5492 13.692-4.7357z"/>
  <path d="m97.808 61.018c-6.441 1.7953-12.311 3.9642-17.172 6.2251-1.7508 0.81491-1.0841 2.5001 0.42862 2.468 4.1667-2.0073 11.944-5.6797 16.744-8.6932"/>
  <path d="m107.28 73.832c-6.0092 3.6287-12.647 6.0233-19.563 6.96-2.1138 0.2861-1.7713 2.0295-0.81774 2.1918 7.4627-1.0915 17.497-5.1213 20.38-9.1518"/>
  <path d="m99.075 92.51c-10.334-1.8623-21.417-4.3265-26.191-5.5005l0.0483-0.48754c5.5901 0.86889 14.763 2.6123 21.517 3.5676 1.0657 0.15029 1.2696-0.0875 0.22613-1.5236 1.7177 1.3349 3.1009 2.462 4.3991 3.944"/>
  <path d="m151.1 185.08c1.2778-1.5593 2.3121-5.3749 2.6208-11.842 0.45931-9.6626-2.437-24.739-10.09-37.5-2.4006-4.0026-3.3539-6.9779-3.575-9.9935-0.18309-2.5012-1.718-1.5314-4.6567-4.083-6.9963-6.0745-13.382-11.25-20.823-17.791-1.2488-1.0978-1.7801-1.1056-3.2671-1.3663-6.2145-1.0922-12.182-4.5403-14.567-8.3358-0.39476-0.62759-0.31362-0.82338 0.29351-0.8583 0.79269-0.0452 1.6708-0.11924 2.5509-0.18803-7.9689-1.7826-13.409-2.9538-19.729-4.4062 1.7713 2.2754 3.8594 5.5266 4.9812 8.4032 3.3683 8.6385 22.722 19.582 22.722 19.582s5.4187-3.906 8.6984-7.2058c6.9723 5.8628 15.42 13.029 21.224 18.385 0.51188 3.1457 1.8094 5.9027 3.7299 9.513 6.4491 12.126 9.9339 28.092 9.1056 40.856-0.18168 2.7954-0.97296 4.2228-2.6846 6.301-1.7713 2.1512-3.1097 4.1607-4.2683 6.0272 2.3047-1.1744 4.5254-2.444 6.4008-3.8421 0.4117-0.51964 0.8509-1.0668 1.3332-1.6556"/>
 </g>
 <g fill="#c9c9ca">
  <path d="m138.33 196.71c2.782-0.22931 5.0821-0.70838 6.4431-2.8695 1.5614-2.4821 2.8564-4.3991 4.9932-7.1014-1.8747 1.3981-4.0954 2.6677-6.4008 3.8421-0.75706 1.2203-1.4393 2.3809-2.1078 3.4749-0.83891 1.3712-1.5085 2.1255-2.9277 2.654"/>
  <path d="m127.41 204.6c-0.91299 7.8363 10.628 12.839 18.698 1.862-2.2313 6.6548-7.2041 10.419-14.032 9.338-5.334-0.84455-7.1275-6.0268-4.6655-11.2"/>
  <path d="m152.6 213.18c2.5689 0.58067 7.0386-1.464 8.1216-10.081 0.0801 10.846-4.5328 15.546-10.554 13.827 0.86219-1.1342 1.6411-2.37 2.4328-3.7462"/>
 </g>
 <g>
  <g>
   <path d="m142.07 181.05c-0.10301-0.87419-0.19438-1.7053-0.26035-2.6352-6.8954-10.858-7.8899-28.914-0.12453-40.339-2.1925-3.4523-4.378-8.1728-4.1134-10.503-2.1026-1.8591-5.5852-4.6994-8.109-6.9169-2.6928 1.6337-7.7611 2.3992-11.072 2.3103 5.025 7.9862 8.8399 17.539 8.4437 27.552-0.21696 5.4875 0.19121 10.475 2.4282 12.48 0.13088 2.0764 0.46672 4.2788 1.0188 6.4999 5.0811 8.8314 8.7006 11.801 11.788 11.552" fill="#8f0027"/>
   <path d="m144.46 188.69c0.88477-1.366 1.7208-2.565 2.9849-4.1148-2.1657-1.5656-4.0541-3.6774-5.6346-6.1655 0.0663 0.92992 0.15804 1.7614 0.26105 2.6352-3.0875 0.24871-6.7074-2.721-11.789-11.552 1.8962 7.6186 6.3782 15.459 14.177 19.197" fill="#c9c9ca"/>
   <path d="m168.67 225.64c-3.9568-0.87877-5.7633 2.2112-4.9251 6.2068l-1.2636-0.1905c-0.10795-4.5791-3.5264-7.5628-5.2313-7.287-1.1363 0.18415-2.7725 2.1269-3.4431 4.9209-2.2444-3.0727 0.65652-9.4555 5.6409-13.546 1.9928-1.6355 2.2624-3.611 1.1123-7.6158 0.96379-6.1175 0.87242-13.194 0.0243-18.931 0.35383-7.2626 0.75388-16.551 0.0705-24.956 3.1214 4.6725 4.8627 13.686 4.7198 21.915-0.37112 1.2495-0.6597 2.6786-0.7045 4.2436-0.16404 5.7362 0.35243 17.157 1.7173 21.864 1.7699 6.1027 2.5107 9.7448 2.2825 13.376" fill="#c9c9ca"/>
  </g>
  <path d="m166.64 225.49c1.769 5.9696 2.4166 11.939 2.3915 17.909l-2.8365-3.3926-2.7252-6.7297-0.27809-4.6162 1.446-2.614z" fill="#403b2f"/>
  <path d="m141.78 213.09c3.0057 5.5454 10.241 1.2844 12.013-2.9477l-2.7809 5.6173-3.6151 3.4483-2.8921 0.38932-3.337-1.3904-1.9466-3.059z" fill="#c9c9ca"/>
  <path d="m115.01 157.84c-1.5152-8.1954-5.3827-20.367-9.6675-27.332-1.2696-2.063-3.041-3.5151-5.4338-4.3843-0.16192 0.22013-0.32491 0.42439-0.48754 0.63535 2.3185 3.6805 4.2242 7.2591 5.8332 11.879-6.387 1.0933-12.653 2.9235-18.317 5.2582-5.2271 4.832-9.5645 10.844-10.875 16.136 10.023-1.0527 20.826-2.1689 32.754-5.4254-5.3047 4.9223-18.679 11.501-26.533 14.532 2.2987 1.5977 8.6677 2.6053 15.978 1.3924 1.1871-0.18556 2.3897-0.41663 3.6033-0.71014 10.019-2.4172 14.414-3.4283 20.775-2.4984-4.7928-0.9345-6.6118-3.9769-7.6295-9.482" fill="#8f0027"/>
 </g>
 <g fill="#c9c9ca">
  <path d="m108.82 154.6c-11.928 3.2565-22.732 4.373-32.755 5.4254 1.3106-5.2913 5.6483-11.304 10.875-16.136-11.791 4.8588-20.963 11.905-23.185 19.053 0.85161 5.0934 6.386 8.9045 15.264 12.077 4.8927 1.7484 7.7724 3.2279 10.38 5.3139-3.804 9.3334-9.5229 14.539-15.054 14.275-12.263-0.58385-17.421 0.99836-18.631 5.2797l9e-3 0.0261c1.1927 0.0117 2.3823 1.9046 2.8025 4.3092 1.639-1.5886 3.2971-2.7069 4.7699-2.7891 2.2511-0.12488 3.9423 2.5262 4.4549 6.3373 2.2257-1.9671 4.4006-3.4159 5.3509-3.4015 3.5835 0.054 5.0161 7.5138 2.4391 9.0276 3.1231-0.4706 7.0619-1.3755 9.1842-3.7218 2.5682-8.733 8.9087-20.337 15.951-28.603 1.7625-2.0687 1.2658-3.962-0.34361-4.844-2.5993-1.4256-4.8715-3.0455-7.414-5.1848-4.9417 0.14005-8.9186-0.72249-10.632-1.9128 7.8539-3.0311 21.228-9.6093 26.533-14.532"/>
  <path d="m171.4 153.34c-2.5414 2.3756-4.5639 4.4027-7.9576 5.9718 0.36654 1.2104 0.70309 2.5195 0.98425 3.671 2.7598-1.8038 6.0251-4.9519 6.9734-9.6428"/>
  <path d="m171.12 135.21c-0.0709 7.3798-1.518 12.067-6.8947 16.178-1.0104 0.77294-1.0844 1.8158-0.34466 2.6042 6.2823-2.0645 9.6763-10.813 7.2394-18.782"/>
 </g>
 <path d="m57.315 114.96c-0.58914 6.9303-1.9777 14.623-4.3078 19.812 3.6661 1.9332 5.7908 7.0203 2.8109 14.418-4.4122 10.953-7.8412 20.222-11.749 32.61-0.6925 2.195-1.1603 4.3702-1.4231 6.5398 0.31327 2.1992 0.89994 4.5819 1.9607 6.1835 0.13406-5.4508 0.99977-10.349 3.1549-15.924 6.0427-15.633 11.628-30.177 13.843-35.781 1.499-3.7917 2.1234-6.072 2.9485-9.9328 1.9142-8.957 5.2945-21.961 8.0606-29.747-4.4369 4.8719-9.3084 8.6124-15.299 11.821" fill="#8f0027"/>
 <path d="m45.154 206.54c-0.40463-4.4993-0.63782-8.3806-0.54821-12.017-1.0608-1.602-1.6475-3.9843-1.9604-6.1838-0.72813 6.0046 0.15557 11.966 2.5086 18.201" fill="#c9c9ca"/>
 <g fill="#403b2f">
  <path d="m140.11 102.32c-1.6327 4.1737-2.3312 6.0752-4.3519 9.7772-1.8246-1.4803-4.227-3.4766-5.4091-4.6838 2.8127-1.759 5.993-3.652 9.761-5.0934"/>
  <path d="m123.15 115.25c-1.4185 2.9725-2.6674 5.2828-4.7473 7.118 3.7066 0.57644 6.7748 0.1397 11.19-1.6207-2.1992-1.8965-4.3215-3.7098-6.4428-5.4973"/>
  <path d="m76.846 210.65c0.0444-3.1934-1.3113-6.241-3.743-6.2784-0.95073-0.0145-3.1256 1.4344-5.3509 3.4015-0.51259-3.811-2.2038-6.4622-4.4549-6.3373-1.4728 0.0822-3.1309 1.2005-4.7703 2.7891-0.42192-2.4162-1.6203-4.3159-2.8183-4.3109-1.2816 6e-3 -6.3599 3.7155-7.9566 7.2358 0.75918 0.43956 1.3741 1.0478 1.8309 1.7752 2.7746-0.43321 4.6316-1.0668 6.9674-2.5612 0.73025 2.618 0.042 5.2867-1.4411 7.4161 3.7648-1.7187 6.9931-2.8007 10.397-3.8516-1.8609 1.9392-3.4551 4.0322-3.9896 5.648 3.6805-0.58667 7.5639-1.0834 11.51-1.5039 2.6755-0.28469 3.7867-1.0823 3.8195-3.4223"/>
 </g>
 <g>
  <path d="m66.312 208.54c-2.6695 1.0815-8.1274 2.5552-11.322 4.5671l0.35481 0.7552c3.368-1.789 8.5471-3.303 11.328-4.4297z" color="#000000" fill="#0d131a" style="-inkscape-stroke:none"/>
  <g>
   <path d="m56.473 206.64c-0.76483 1.7364-3.8943 4.5748-6.0039 5.4949-0.0706 1.9219-0.73166 4.1134-1.899 5.7199 3.8358-0.066 9.4435-4.8588 7.9029-11.215" fill="#403b2f"/>
   <path d="m121.72 196.71c0.24236 2.9633 1.7678 7.0623 4.9488 9.1274-0.50906 1.5526-0.67698 3.8509-0.10936 5.6293-4.7847-1.1536-6.7783-9.5451-4.8394-14.757" fill="#403b2f"/>
   <path d="m120.77 89.406c0.96238 0.65793 3.2388 2.5171 3.2388 2.5171-0.44626 1.6274-1.3441 4.6694-1.5145 6.7631-0.80998-1.0647-1.9667-3.6058-2.7012-5.4363-0.73378-1.8316-2.3089-5.117-3.8171-6.954 1.8549 1.1673 3.7722 2.4119 4.7939 3.1101" fill="#8f0027"/>
  </g>
 </g>
 <g fill="#0d131a">
  <path d="m56.617 88.724c0.25717 0.30269 0.65299 0.64664 1.2273 0.99801 1.3123 0.80186 2.1389 0.82691 2.3118 0.54434 0.16934-0.27764-0.17533-1.1518-1.4788-1.9484-0.67098-0.40993-1.2386-0.61066-1.6566-0.67699l0.2353-0.70273c0.55809 0.084 1.2023 0.31891 1.8556 0.71932 1.5857 0.96908 2.068 2.3308 1.6669 2.9866-0.44414 0.72672-1.8757 0.63712-3.3426-0.25894-0.4646-0.28398-0.83608-0.5722-1.1243-0.85619z"/>
  <path d="m58.392 83.093c5.1488 1.191 7.4189 5.8575 5.5816 9.7483-1.4626 3.0978-6.6636 3.1821-9.0241-0.1591l0.42157-0.97896c2.0814 3.3909 6.6379 3.2025 7.8077 0.72567 1.4298-3.0282-0.11712-7.2468-5.0285-8.401z"/>
  <path d="m35.795 87.347c5.4398 8.8681 6.2145 16.451 2.0299 25.231-1.0943 2.2962-0.99801 3.206 0.53869 4.7057 3.1581 3.0808 8.9524 3.9744 11.639 2.7513 2.5167-1.1458 5.243-5.0091 12.387-11.926 3.6036-3.489 8.4646-14.112 6.4184-19.232-0.70062-1.7533-0.11748-2.0073 0.67345-0.2921 2.5626 5.5552-2.692 16.881-6.3606 20.308-7.0796 6.6142-9.5282 10.758-12.602 12.142-3.1644 1.4249-9.694 0.2032-12.949-2.9711-1.8651-1.8193-2.0793-3.2198-0.78352-5.938 3.7659-7.9019 3.5878-14.799-1.4404-23.267z"/>
  <path d="m39.648 96.881c0.60007 1.9607 0.96978 3.7218 1.2516 6.0106 0.76447-3.0018 1.2502-5.0288 1.9773-7.5759 0.3175-1.1123 0.47378-1.0707 1.0544-0.0275 1.5762 2.8346 2.7153 4.9759 3.8446 7.6348 1.1585-5.8491 1.3871-17.436 0.75635-25.524l1.1532 0.87913c0.56938 7.4281 0.4565 19.048-1.2816 26.089-0.32667 1.3243-0.51576 1.3765-1.059 0.036-1.2044-2.9722-2.4585-5.4913-3.8559-8.128-0.70344 2.648-1.4443 5.8812-2.2013 9.0463-0.45791 1.9163-0.82127 1.9639-1.0375 0.0416-0.13088-1.1656-0.32068-2.5037-0.47802-3.404z"/>
  <path d="m39.324 61.797c4.1631 5.0613 10.018 9.5762 11.341 9.489 1.0569-0.0695 5.5894-9.1468 9.6079-14.359 1.1483-1.4891 1.4217-1.4471 1.2248 0.2928-1.1042 9.7451-7.0739 22.781-8.8346 23.33-1.887 0.58773-11.919-8.986-14.132-17.485-0.44168-1.6954 7.1942-15.981 8.8713-16.493 1.5766-0.48083 13.77 6.1408 14.739 6.8608 1.3141 0.97579 4.2079 5.3037 5.9761 8.424 9.7786-2.9545 21.28-2.8734 29.603-1.3501 1.5649 0.28646 1.6817 0.54822 0.127 1.4037-4.5402 2.5008-9.2646 4.8595-15.185 7.4471-1.9988 0.87312-2.232 0.33584-0.28787-0.65264 6.0999-3.1013 9.997-5.0811 14.078-7.3099-7.3999-1.2457-19.203-1.18-28.144 1.4792-0.57397 0.17074-0.7172 0.10936-0.98601-0.34961-1.935-3.3024-4.7946-7.3134-5.8995-8.134-1.397-1.0368-12.595-6.8816-13.639-6.5144-1.1345 0.39864-8.5693 13.385-8.1411 14.973 2.1318 7.9047 11.661 16.863 12.705 16.527 0.75036-0.24165 6.8749-12.566 8.1509-21.234-2.9997 4.0308-7.9887 14.239-9.6008 14.443-1.7515 0.22119-8.176-5.0539-11.855-9.4516z"/>
  <path d="m84.043 68.271c7.6147 0.94792 16.649 3.0812 22.994 5.0112 1.4753 0.44838 1.446 0.75636 0.58244 1.5956-4.1226 4.0086-12.442 7.0891-19.198 8.2197-1.8821 0.31468-2.1488-0.28258-0.14816-0.72708 6.75-1.499 14.701-4.4743 18.289-8.0754-6.2872-1.9516-15.246-4.154-23.955-5.2776z"/>
  <path d="m89.19 82.531c3.3475 2.7919 6.4692 5.4804 9.9469 9.2544 1.1158 1.2097 1.0717 1.5783-0.57679 1.2742-9.7458-1.797-18.031-3.5846-25.572-5.5054-0.53446-0.13582-0.58385-0.24906-0.64065-0.71014-1.0604-8.6099-9.5807-13.881-16.7-11.91l0.41028-1.1804c7.0524-1.7776 16.423 3.4371 17.263 12.85 6.756 1.6591 15.858 3.6283 24.524 5.2744-2.6063-2.9122-6.216-6.0628-9.7547-9.0773z"/>
  <path d="m34.067 94.977c1.5194 2.57 3.4117 4.874 5.9355 6.8721l-0.17462 1.3282c-2.5227-1.942-4.5473-4.0093-6.0766-6.5169z"/>
  <path d="m32.98 105.59c1.803-1.972 3.2502-3.1164 5.3626-4.4341l0.94015 0.80539c-2.3227 1.4305-4.0996 2.9616-6.3479 5.455z"/>
  <path d="m17.032 57.596c-12.202 26.624-3.0476 65.818 19.726 83.25-7.6302-28.496-5.2987-54.295 6.4117-69.797l0.57221 0.79516c-11.316 15.568-13.296 41.409-5.7023 69.763 0.38347 1.4316 0.13723 1.6132-1.0795 0.73942-24.945-17.919-33.253-58.572-21.217-84.157z"/>
  <path d="m40.256 76.661c-5.1301 4.4471-10.176 9.9649-14.073 17.192-0.79481 1.475-1.0583 1.4168-1.2636-0.12418-0.8696-6.5211-1.4619-11.474-1.7508-16.56-3.8439 4.7392-8.2292 13.436-10.352 24.046l-0.53163-2.5298c1.989-9.1486 5.9658-17.304 10.658-22.801 0.84561-0.9906 1.0527-0.93451 1.1441 0.37323 0.4184 5.9531 1.0019 10.687 1.7321 15.954 3.695-6.6252 8.8244-12.276 15.333-17.538z"/>
  <path d="m60.695 28.843c-9.9215-9.6749-21.361-12.452-25.869-10.639 3.7271 3.6597 6.9148 9.8852 8.1844 15.738 0.16439 0.75812 0.0614 0.9024-0.83785 0.88088-22.073-0.52952-41.854 16.923-40.938 34.064 4.0012-4.8757 9.5448-8.9468 16.136-11.848 2.051-0.90276 2.3223-0.29598 0.3048 0.6798-6.3465 3.067-12.107 7.3036-16.184 12.652-0.85337 1.1204-1.1603 1.0633-1.3254-0.32879-2.3453-19.785 20.618-37.078 41.955-36.079-1.4968-5.654-4.421-11.485-8.3393-15.226-0.7306-0.6978-0.7426-0.86642 0.18768-1.3458 5.1774-2.6691 17.426 0.82726 26.868 10.182z"/>
  <path d="m90.202 25.762c-6.5063-13.359-22.989-23.977-33.789-24.592 4.2862 8.1696 6.0198 19.491 4.5438 28.402-0.44767 2.7023-1.1229 2.5926-0.74401-0.12594 1.2259-8.788-0.83961-19.718-5.1322-28.316-0.47131-0.94297-0.39934-1.1666 0.6731-1.1254 12.01 0.46284 28.879 11.067 35.364 25.566z"/>
  <path d="m115.48 39.368c-4.4069-11.193-15.836-15.431-26.251-12.797 3.5532 5.9433 4.3427 10.356 4.5625 17.035 0.079 2.4338-0.57573 2.4624-0.74436 0.0501-0.37712-5.4208-1.1832-10.586-4.9756-16.784-0.53057-0.86607-0.45402-0.98566 0.43145-1.2686 11.541-3.6848 24.324 1.5903 28.013 13.884z"/>
  <path d="m139.78 214.58c0.44591 2.2775 2.1417 4.2023 5.0123 4.372 3 0.18344 7.2221-3.7952 8.9542-9.9536 0.70979-2.522 1.1839-2.3795 0.70838 0.18733-1.24 6.6841-6.1295 11.343-9.7522 11.12-3.205-0.20144-5.3728-2.2881-6.0297-5.1139z"/>
  <path d="m126.35 212.57c-2.3149-3.8146-0.1979-15.772 12.162-17.136 1.1945-0.13194 1.6305-0.52105 2.4839-2.1826 1.9216-3.7387 3.9553-6.6132 7.0718-10.55 1.4291-1.8055 1.6849-3.1411 1.7808-6.2085 0.45791-14.639-4.5642-30.714-9.3373-38.649-2.8258-4.6979-3.6894-8.194-3.2766-10.66 0.39688-2.3689 0.92322-2.3156 0.76412 0.1016-0.1584 2.394 1.0435 5.3146 3.7913 9.8831 4.8204 8.0137 9.7543 24.404 9.2869 39.445-0.0921 2.9566-0.51647 5.0617-1.9932 6.9264-3.0903 3.9052-5.0804 6.6287-6.979 10.322-0.97155 1.8902-2.1167 2.6635-3.4974 2.8296-11.133 1.3398-12.954 12.134-11.069 15.239 3.9201 6.4618 14.888 3.738 18.416-5.2906 0.8121-2.0764 1.3603-1.8785 0.70485 0.25435-3.2448 10.561-16.032 12.728-20.31 5.6755"/>
  <path d="m127 212.44c-5.8868-1.5649-7.9357-10.402-5.8099-15.802 0.38665-0.98178 0.59867-0.9652 1.1377 0.0145 1.8292 3.3193 4.2697 4.6461 6.9621 4.2386l-0.8128 1.028c-2.6017 0.13794-5.026-1.3243-6.6509-4.2608-1.282 3.998 0.30163 11.664 4.7269 13.516z"/>
  <path d="m159.61 158.92c-1.0005-3.4833-1.8352-6.2181-3.1348-9.4618 1.2718 9.434-0.28752 26.422-2.7118 33.116-1.2855 3.549-5.4666 5.9468-11.158 9.1013l0.80186-1.4679c4.6835-2.7238 8.3644-5.2091 9.3754-8.0014 2.4617-6.797 4.0291-25.549 2.5097-35.156-0.41839-2.6444 0.0166-2.685 1.0396-0.23248 0.96873 2.322 2.105 5.0719 2.9404 7.7957z"/>
  <path d="m106.87 117.06c-3.3877-1.942-11.167-7.4186-13.898-9.5211-3.5052-2.6984-6.5807-6.0907-8.5482-10.203-1.4623-3.0565-3.5055-6.8524-5.9161-8.9352l1.8175 0.29351c1.6789 1.7198 3.3129 4.2891 5.1911 8.2412 1.8658 3.9271 4.8927 6.9719 8.0719 9.652 2.7499 2.3195 11.895 8.2374 14.534 9.6714l-1.2527 0.80116"/>
  <path d="m113.43 83.581c5.395 3.6738 7.8994 5.3982 10.766 7.7209l-0.4512 1.2605c-2.9309-2.4377-4.8764-3.8305-8.1513-6.1045z"/>
  <path d="m122.06 98.222c0.28046-2.8109 0.883-5.3033 2.1872-7.8063 0.85937-1.6492 1.3938-1.3278 0.62547 0.36548-1.1148 2.4557-1.6902 5.4797-1.8288 8.5224z"/>
  <path d="m123.27 99.845c2.7411-1.7882 6.1105-2.7848 9.5409-2.8653 0.68333-0.0162 0.82938 0.0945 0.72002 0.78528-0.60113 3.8241-1.9036 7.1409-3.4872 9.3691l-0.8442-0.79551c1.5007-2.1523 2.6645-5.0758 3.2904-8.3199-3.2152 0.0952-6.1623 1.1225-8.5658 2.6822z"/>
  <path d="m122.55 114.78c-4.5254 2.7531-10.461 3.4452-14.739 2.5781-1.5272-0.30938-1.3832-0.63852-0.15451-1.3374 2.3072-1.3137 6.5338-5.2959 8.219-6.9098l0.91758 0.68827c-2.1915 2.365-5.4486 5.1428-7.7992 6.658 4.0202 0.59302 8.8367-0.25259 12.634-2.4892z"/>
  <path d="m130.09 121.2c-4.1772 1.7346-7.4373 2.3058-11.775 1.8281-0.99201-0.10936-1.0238-0.49636-0.12347-1.3899 1.6609-1.6482 3.1909-3.8488 4.5544-6.7546l0.85266 0.7172c-1.2114 2.6427-2.4472 4.9195-4.0587 6.4675 3.4996 0.139 5.5795-0.36089 9.5635-1.7395z"/>
  <path d="m129.96 107.02c2.9086-1.8016 6.3041-3.7116 9.9886-5.2003 0.71049-0.28645 0.90099-0.21942 0.89817 0.63606-0.0176 3.3091-0.36054 5.9503-1.1578 8.5482l-1.7194 1.9234c1.3518-3.4583 1.8316-6.96 1.8994-9.996-3.6029 1.4605-6.5617 3.2113-9.1606 4.8835z"/>
  <path d="m135.58 112.04c0.6791-1.3451 1.3959-2.8727 2.1742-4.6845 0.9592-2.2327 1.4485-2.0324 0.58738 0.24236-0.7553 1.9953-1.4609 3.6294-2.1756 5.0334z"/>
  <path d="m56.374 114.81c6.6968-3.3637 12.765-7.9961 17.104-13.299 1.3949-1.705 1.9149-1.2312 0.55739 0.50341-4.6877 5.9895-11.462 11.362-18.989 14.494z"/>
  <path d="m57.995 114.59c-0.65582 6.4957-1.0111 9.8852-2.6155 15.148-0.61348 2.0119-1.3963 5.1576-2.7813 8.0095-3.8947 8.0165-8.141 20.278-13.785 36.755-2.1615 6.3112-4.1208 11.955-7.4708 18.264-5.8173 10.955-8.3795 18.875-7.8532 23.83 0.40322 3.798 2.6913 4.5247 4.4044 4.2065l1.0315 0.95462c-3.2868 0.96026-6.3758-0.61842-6.8456-5.0451-0.54681-5.1551 2.1227-12.972 8.1936-24.474 3.3112-6.2734 5.2299-11.876 7.3822-18.16 5.7214-16.705 8.6455-26.066 13.892-36.865 1.3656-2.8116 2.1583-5.8036 2.7305-7.7848 1.4108-4.8849 1.6951-8.3785 2.3636-14.297z"/>
 </g>
 <path d="m33.692 209.27c-0.22247 1.0011 1.3471 6.8559 7.2362 7.7868 6.1772 0.97643 8.888-3.6181 8.888-3.6181l-0.07866 2.5956-3.2248 4.2474-3.1462 0.47193-4.4833-0.39327-3.1462-2.6743-2.045-4.326s-0.38932-1.4204 5e-6 -4.09z" fill="#c9c9ca"/>
 <g fill="#0d131a">
  <path d="m73.439 102.38c-2.5806 7.9079-6.4198 21.166-7.789 28.065-0.89888 4.5297-1.2171 7.1053-2.8307 11.144-6.2477 15.641-11.068 27.537-15.229 39.346-3.0184 8.564-3.4808 15.78-1.4757 25.057 3.5941 0.62688 5.9397 4.3579 4.735 8.7062-1.4608 5.2684-5.9919 7.2196-9.453 6.7807-5.6702-0.64135-8.5961-5.4585-8.3898-10.614 0.21802-5.4508 1.2224-5.4966 1.1296 0.0494-0.0818 4.8574 2.7185 8.6847 7.4542 9.2206 3.2008 0.31573 6.6862-1.1825 7.9809-5.8529 1.0545-3.8047-0.85266-6.6527-3.732-7.2739-0.5715-0.12242-0.65864-0.22754-0.7486-0.66534-1.9837-9.6044-1.7096-16.794 1.4527-25.766 4.1656-11.821 8.8008-23.853 15.043-39.504 1.573-3.9441 1.9424-6.3673 2.8459-10.852 1.5804-7.8497 5.3072-19.929 7.3674-26.26z"/>
  <path d="m72.107 104.8c9.1094 4.6119 9.8097 20.84 1.6909 23.892 4.7713 3.2826 12.245 2.4882 16.531-5.6085 1.1666-2.2038 1.724-1.906 0.67698 0.35701-4.4207 9.5539-12.863 10.035-18.363 5.8963-1.088-0.81844-1.0633-1.0209 0.26387-1.531 7.5837-2.9157 6.5684-17.491-1.1296-21.975z"/>
  <path d="m90.55 123.7c0.45825 2.6688-0.39688 6.8845-3.7567 9.9275 3.2512 0.66358 9.1063-1.8669 14.409-10.047 1.1486-1.7716 1.6926-1.3832 0.60889 0.42933-5.1086 8.5415-10.949 11.963-16.109 10.509-0.97084-0.27305-0.94227-0.55104-0.21731-1.1945 3.1757-2.8162 4.1899-5.9563 4.0626-8.2804z"/>
  <path d="m55.036 200.01c1.1331-4.4118 5.6801-6.5786 19.345-5.9281 5.346 0.25541 10.728-5.0211 14.259-13.557-2.5336-1.9876-5.1188-3.1986-9.827-4.8814-10.037-3.5863-15.143-7.681-15.843-12.918-1.3854-10.367 14.014-23.338 41.362-24.689-1.3889-3.8992-2.7584-6.6901-5.3072-10.75l0.83785-1.0079c2.6141 4.1434 4.1691 7.2397 5.9161 11.943 0.29598 0.79869 0.0864 1.0227-0.91617 1.0753-26.012 1.3561-41.777 13.648-40.484 23.32 0.6096 4.5604 5.6265 8.5415 14.83 11.83 4.6542 1.6623 7.5202 3.1528 10.293 5.2409 0.5394 0.40463 0.58843 0.56444 0.29845 1.2464-3.8149 9.0142-9.5476 14.505-15.498 14.221-13.647-0.65017-17.14 1.7187-18.021 4.8764z"/>
  <path d="m98.971 170.39c1.7417 1.5642 3.5641 2.8801 5.5069 4.0104 2.9221 1.6997 2.733 5.5365 2e-3 8.0991-7.8931 7.4094-15.18 19.507-18.098 25.706-1.706 3.6255-4.9512 5.0906-11.55 5.9485l1.2005-1.4019c6.3013-1.0672 8.0754-2.6547 9.2364-5.122 2.9782-6.3274 10.386-18.607 18.346-26.077 2.5146-2.3608 2.2832-5.038 0.28469-6.1888-2.0641-1.1885-4.0227-2.6391-6.3691-4.7082z"/>
  <path d="m48.824 217.48c4.662-1.0739 8.2822-5.9228 7.4302-10.358-1.7646 1.0636-3.7264 1.8729-6.4357 2.2789l-0.4833-0.91969c2.7919-0.43039 4.7621-1.1783 6.8802-2.4931 0.50024-0.31115 0.67345-0.25788 0.86148 0.43004 1.5998 5.8558-3.4526 11.795-9.1256 12.189z"/>
  <path d="m58.044 204.68c-0.37394-2.4945-1.4026-4.178-2.3862-4.166-1.5416 5e-3 -6.0258 3.8294-7.5431 6.8545l-0.79057-0.45614c1.8694-3.8308 6.9557-7.5731 8.3975-7.5791 1.4337 9e-3 2.8346 2.0204 3.2223 4.512z"/>
 </g>
 <path d="m26.849 213.6c0 1.1012 0.47193 4.6013 5.1126 5.2699 4.6406 0.66856 6.1351-1.8091 6.1351-1.8091l0.35395 3.8934-1.9664 1.2978-3.5001 0.58991-3.5001-0.8652-2.3793-2.6743-0.41294-3.6968s-0.07866-0.74722 0.15731-2.0057z" fill="#c9c9ca"/>
 <path d="m39.021 220.17-1.2781 1.8484 1.9467 0.2163 3.1265-1.0422z" fill="#403b2f"/>
 <g fill="#0d131a">
  <path d="m73.439 102.38c-2.5806 7.9079-6.4198 21.166-7.789 28.065-0.89888 4.5297-1.2171 7.1053-2.8307 11.144-6.2477 15.641-11.068 27.537-15.229 39.346-3.0184 8.564-3.4808 15.78-1.4757 25.057 3.5941 0.62688 5.9397 4.3579 4.735 8.7062-1.4608 5.2684-5.9919 7.2196-9.453 6.7807-5.6702-0.64135-8.5961-5.4585-8.3898-10.614 0.21802-5.4508 1.2224-5.4966 1.1296 0.0494-0.0818 4.8574 2.7185 8.6847 7.4542 9.2206 3.2008 0.31573 6.6862-1.1825 7.9809-5.8529 1.0545-3.8047-0.85266-6.6527-3.732-7.2739-0.5715-0.12242-0.65864-0.22754-0.7486-0.66534-1.9837-9.6044-1.7096-16.794 1.4527-25.766 4.1656-11.821 8.8008-23.853 15.043-39.504 1.573-3.9441 1.9424-6.3673 2.8459-10.852 1.5804-7.8497 5.3072-19.929 7.3674-26.26z"/>
  <path d="m67.283 208.23c-0.43709-3.756-1.9872-6.3384-3.9874-6.2209-1.7956 0.0988-4.172 1.8884-6.5592 4.8528l-1.2562 0.0169c2.7002-3.4865 5.546-5.9496 7.8454-6.0374 2.3336-0.0885 4.3723 2.5213 4.9202 6.5447z"/>
  <path d="m73.074 204.94c-1.7932-0.0272-9.0826 6.4124-10.804 10.05 3.708-0.59267 6.6851-1.003 10.738-1.4393 2.4239-0.26 3.2459-1.0813 3.2717-2.9178 0.048-3.4392-1.573-5.6698-3.2057-5.6931m-11.937 10.216c1.3021-3.9388 9.5867-11.444 11.958-11.41 1.9442 0.031 4.3568 2.2698 4.2912 6.9755-0.0416 2.9714-1.6605 3.5638-4.3201 3.8467-3.9628 0.42298-6.8958 0.77364-11.144 1.415-1.0033 0.15134-1.0044-0.16404-0.78493-0.82726"/>
  <path d="m100.27 125.6c2.2779 0.84526 4.1173 2.1805 5.5436 4.4997 4.3053 6.9974 8.3114 19.515 9.8058 27.595 1.1455 6.1958 3.2152 8.4501 8.1767 9.0608 2.4165 0.29774 4.137 0.77823 6.2911 1.561l0.20285 1.5148c-2.268-0.89394-4.1748-1.4492-6.677-1.7572-6.1263-0.75318-8.0825-3.7888-9.2629-10.172-1.4831-8.0236-5.3068-20.11-9.5712-27.042-1.2718-2.068-2.8169-3.3708-5.2172-4.2288z"/>
  <path d="m129.4 164.82c-2.9482-4.2563-3.356-7.5847-3.0473-14.054 0.41275-8.6332-2.9383-19.319-8.7588-27.978l1.4055 0.13123c5.8064 8.5806 8.8156 19.269 8.4035 27.898-0.24941 5.2098 0.0963 8.7058 1.893 11.847z"/>
  <path d="m92.273 140.3c-7.2609 5.2066-13.791 13.252-15.499 19.127 10.224-1.1123 18.48-2.081 31.405-5.2804 2.0204-0.50024 2.3816-0.19721 0.70556 1.1889-7.6796 6.3489-20.896 12.456-29.132 15.115-1.9981 0.64488-2.2966 0.0836-0.21978-0.71649 7.8609-3.0265 21.252-9.4978 27.074-14.008-11.085 2.9037-19.355 3.8333-30.211 4.8719-0.99907 0.0956-1.0781-0.0991-0.85443-0.92287 1.7251-6.3521 7.2891-13.653 14.257-18.977z"/>
  <path d="m82.715 168.94c3.877 1.6531 10.893 2.1992 18.999 0.24447 8.6759-2.093 13.099-3.2173 18.713-2.7333l3.1845 1.621c-7.0139-1.2132-11.552-0.0349-21.629 2.3961-8.2479 1.9918-15.994 1.4238-20.636-0.95038z"/>
  <path d="m144.04 189.36c-15.786-7.62-18.373-30.876-13.129-44.26 0.70943-1.8115 1.3296-1.6076 0.70626 0.23671-4.5805 13.557-1.639 35.679 13.183 42.823z"/>
  <path d="m141.43 180.57c-0.73483-5.9115-0.29739-16.438 0.96697-23.2 0.39969-2.1368 0.61418-2.1851 1.6168-0.0885 2.1992 4.5995 4.7233 10.193 6.6234 15.437l-0.16122 2.9739c-2.5587-7.0781-4.9403-12.659-7.0922-17.002-1.0993 6.52-1.4026 16.253-0.77506 22.301 0.0751 0.72531-0.055 0.85972-0.74577 0.81245-3.2773-0.22508-6.8111-2.6342-11.401-11.205l-0.32456-2.9517c4.7099 8.8819 8.2331 12.622 11.293 12.923"/>
  <path d="m78.793 49.119c-2.4761-4.4383-5.8473-7.3501-10.625-9.0138-1.6591-0.5775-1.4168-1.2961 0.26-0.76588 5.0228 1.5886 8.5104 4.5113 10.928 9.4844 0.91757 1.8881 0.42933 2.0722-0.56233 0.29527"/>
  <path d="m180.6 229.18c0.22789-3.9511-1.1702-7.2986-5.0345-11.918-5.7588-6.8838-6.6463-21.518-6.6643-29.641-5e-3 -2.4352-0.10336-2.9662-1.1684-4.5646-0.66675-1.0012-1.112-1.7424-1.6115-2.9203l0.20214-2.2313c0.69956 1.7134 1.439 3.0064 2.4275 4.4602 1.1176 1.6461 1.4898 2.7443 1.4954 5.2564 0.0173 8.0363 0.92181 22.55 6.2971 28.898 5.4183 6.3994 5.9888 10.194 5.074 15.348z"/>
 </g>
 <g>
  <path d="m176.65 225.49-2.2803 1.8354-1.1124 3.2814 0.44494 3.8932 1.9466 2.614 3.9488 4.2269 0.72302 0.83426 0.88988-3.2258 0.27809-5.3393-0.72303-4.2825-1.3904-2.6696-1.168-1.1124z" fill="#5a5649"/>
  <path d="m160.99 206.26c1.3233 6.0431 1.2915 8.1513-1.2644 10.084-5.3139 4.016-6.7698 9.4566-5.6536 12.229l-0.58985 1.6126c-2.1992-3.0776-1.1246-9.7374 5.4695-14.722 1.6792-1.2693 2.0098-2.4744 1.2026-6.4879z" fill="#0d131a"/>
  <path d="m157.13 223.88-2.5028 2.3359-1.6129 4.4494-0.27809 5.3392 0.88988 4.4494 4.505-4.5606 4.1157-4.2825-0.16685-2.5028-1.891-3.6151z" fill="#5a5649"/>
 </g>
 <g fill="#0d131a">
  <path d="m164.26 162.44c3.2191-2.2814 5.4977-5.0712 6.3479-8.3224-2.1396 0.47201-4.2898 0.50835-6.0847 0.18026-0.88548-0.16298-0.86854-0.46707-0.0776-0.94544 6.7511-4.077 7.8253-12.241 6.6629-17.094-3.4742 3.8329-9.9459 7.0344-14.642 6.5687l-0.30833-1.1561c4.3131 0.43427 10.715-2.4285 14.664-6.7903 0.70626-0.78105 0.89288-0.7426 1.1571 0.25153 1.5656 5.8547 0.51682 14.225-5.9312 18.347 1.7096 0.054 3.1306-0.11747 5.0087-0.6925 0.85972-0.26352 1.15-0.19897 0.93098 0.7179-1.0054 4.2129-3.4668 7.3798-7.4239 10.038z"/>
  <path d="m44.333 195.08c-4.0516-5.34-2.5813-23.278-0.43039-37.722l1.5974-3.2487c-3.2106 19.887-3.4516 34.11-1.052 39.4z"/>
  <path d="m59.386 78.539c6.6379 1.803 9.5426 8.5778 7.3283 14.152-2.2595 5.6857-8.8068 6.5504-13.246 2.8878l0.58103-1.0107c4.2975 3.4209 9.7575 2.0655 11.519-2.3686 1.7402-4.3794-0.17991-10.68-6.3849-12.493z"/>
 </g>
 <path d="m48.074 110.99c-0.95214-1.3099-10.538 2.0676-10.509 4.3618 0.0272 2.1689 5.3478 3.8075 8.013 2.8392 1.9255-0.69956 3.6883-5.5601 2.4962-7.2009" fill="#3f3c3a"/>
 <path d="m38.114 114.75c0.31079 1.7575 4.6323 2.801 6.8816 2.0754 1.27-0.41028 2.9612-2.8956 3.0145-4.7039 0.45649 2.5555-0.7807 5.2483-2.3294 5.9662-2.4504 1.1359-9.301-0.53199-7.5667-3.3376" fill="#2f2c28"/>
 <g fill="#0d131a">
  <path d="m38.073 115.36c0.0208 1.6644 4.614 3.3584 7.3198 2.3746 1.7032-0.61877 3.2269-5.1184 2.2931-6.4043-0.31186-0.43144-2.4412-0.0699-5.2137 1.0135-3.0752 1.2019-4.4065 2.3731-4.3991 3.0162m-1.083 0.0166c-0.018-1.4168 2.3103-2.8596 5.1446-3.9705 2.6561-1.0414 5.6194-1.6542 6.3235-0.68545 1.4411 1.9826-0.45085 7.1222-2.7354 7.9523-2.7471 0.99801-8.7002-0.6738-8.7327-3.2964"/>
  <path d="m126.35 212.57c-2.3149-3.8146-0.1979-15.772 12.162-17.136 1.1945-0.13194 1.6305-0.52105 2.4839-2.1826 1.9216-3.7387 3.9553-6.6132 7.0718-10.55 1.4291-1.8055 1.6849-3.1411 1.7808-6.2085 0.45791-14.639-4.5642-30.714-9.3373-38.649-2.8258-4.6979-3.6894-8.194-3.2766-10.66 0.39688-2.3689 0.92322-2.3156 0.76412 0.1016-0.1584 2.394 1.0435 5.3146 3.7913 9.8831 4.8204 8.0137 9.7543 24.404 9.2869 39.445-0.0921 2.9566-0.51647 5.0617-1.9932 6.9264-3.0903 3.9052-5.0804 6.6287-6.979 10.322-0.97155 1.8902-2.1167 2.6635-3.4974 2.8296-11.133 1.3398-12.954 12.134-11.069 15.239 3.9201 6.4618 14.888 3.738 18.416-5.2906 0.8121-2.0764 1.3603-1.8785 0.70485 0.25435-3.2448 10.561-16.032 12.728-20.31 5.6755"/>
  <path d="m53.142 95.405c2.8272-5.3375 4.7833-11.148 5.7499-16.765 0.32103-1.8658 1.155-1.7078 0.88054 0.16545-0.85055 5.8081-3.041 11.853-6.0071 16.969-0.87066 1.5011-1.4559 1.2026-0.62336-0.36936"/>
  <path d="m137.55 128.43c-9.4576-8.3002-16.923-14.773-26.246-22.255-2.5393-0.35242-4.185-0.82268-5.6508-1.421-1.8112-0.73942-1.6203-1.2873 0.24236-0.6865 1.6556 0.5341 3.0113 0.81068 5.4342 1.0636 0.254 0.0268 0.38806 0.0699 0.6149 0.25188 9.1486 7.3431 16.469 13.549 25.71 21.657z"/>
  <path d="m137 113.25c9.3341-9.7617 9.3931-32.764-4.518-44.018l0.34714-1.0213c14.912 11.55 15.452 35.294 5.135 45.785z"/>
  <path d="m150.39 216.49c6.9296 1.6976 12.207-5.8949 9.6344-27.084-0.0268-0.2159-0.0325-0.31785-0.0187-0.50765 1.5275-20.749-1.2097-40.103-8.086-57.663-2.896-7.3946-5.3333-10.057-11.189-14.326-6.4742-4.7202-13.734-11.488-17.574-16.264-1.815-2.2578-2.4836-3.8125-3.3881-6.1782-3.1997-8.3619-9.9716-14.379-18.155-16.165l1.3861-0.76906c7.4341 1.8538 14.128 6.8591 17.815 16.496 0.90064 2.3541 1.5406 3.8125 3.2801 5.9764 3.8086 4.7378 10.939 11.24 17.374 15.93 6.0995 4.4457 8.8307 7.4549 11.715 14.82 6.9296 17.694 9.6972 37.124 8.0514 58.374 2.716 22.691-2.7947 30.843-11.687 28.339z"/>
  <path d="m130.09 73.519c8.999-16.216-1.9378-33.771-16.549-33.683 1.3568 3.5768 1.868 7.1251 1.7851 10.898-0.0441 1.9907-0.67733 1.9628-0.74295-0.0279-0.12347-3.7504-0.76059-7.0781-2.2031-10.75-0.40534-1.0305-0.26987-1.1783 0.77964-1.2072 16.947-0.46954 27.17 18.949 17.562 35.203-1.216 2.0567-1.814 1.6969-0.63183-0.43321"/>
  <path d="m157.95 147.79c8.5316 11.032 10.143 26.206 8.1234 36.504-0.52388 2.6712-1.0343 2.5615-0.75001-0.1531 1.0823-10.331-0.51823-23.625-7.3131-33.994z"/>
 </g>
 <g>
  <path d="m159.52 224.88c-5.9012 5.191-5.2921 13.107-5.7286 15.573l5.0056-5.1724 4.0505-4.3904-1.4921-3.6741z" fill="#403b2f"/>
  <path d="m157.11 223.5c-1.4065 0.6048-2.4239 1.8753-3.1504 3.4238-0.72652 1.5485-1.1729 3.394-1.4082 5.2539-0.23533 1.8599-0.2585 3.7321-0.11719 5.332s0.42122 2.9111 0.91016 3.7441c0 0 0.16459 0.29682 0.31156 0.31911 0.2442 0.037 0.49117-0.27223 0.49117-0.27223 3.5572-4.7361 5.666-6.2916 8.4766-8.9043 0.30507-0.28358 0.51887-0.62151 0.41211-1.082-0.0907-0.39131-0.0624-0.84002-0.18945-1.3144-0.254-0.94886-0.73424-2.0369-1.3262-3.0606s-1.2898-1.9791-2.0195-2.6504c-0.36484-0.33563-0.73717-0.60244-1.1348-0.76172s-0.84862-0.20246-1.2559-0.0273zm0.38086 0.88672c0.12844-0.0552 0.27925-0.0576 0.51563 0.0371 0.23637 0.0947 0.53156 0.29258 0.83984 0.57618 0.61656 0.5672 1.2839 1.4623 1.8398 2.4238 0.55599 0.96152 1.0062 1.9936 1.2285 2.8242 0.11118 0.41532 0.16347 0.78086 0.15625 1.0391-7e-3 0.25821-0.0744 0.3772-0.10352 0.40429-2.5864 2.4043-4.7733 4.2089-7.9688 8.3066-0.24312-0.66135-0.4998-1.398-0.60351-2.5723-0.13466-1.5246-0.11285-3.3397 0.11328-5.127 0.22613-1.7872 0.65918-3.5474 1.3242-4.9648s1.5504-2.4709 2.6582-2.9473z" color="#000000" fill="#0d131a" style="-inkscape-stroke:none"/>
  <path d="m176.21 225.87c2.4765 4.8656 3.0169 10.607 3.8934 16.046l-3.0282-3.3035-3.3428-4.7586-0.47192-3.6574 0.82587-2.7922z" fill="#403b2f"/>
 </g>
 <g fill="#0d131a">
  <path d="m166.77 224.89c-2.0323 0.16071-3.2672 1.5839-3.7012 3.1832s-0.19288 3.5785 0.375 5.623c1.1358 4.089 3.5766 8.413 5.4238 10.17 0 0 0.21959 0.22518 0.45481 0.19346 0.16981-0.0229 0.31863-0.34581 0.31863-0.34581 2.5342-5.4722 3.0392-8.3916 2.8164-11.828-0.12866-1.9848-0.68782-3.7111-1.6543-4.9434-0.96648-1.2323-2.3802-2.1831-4.0332-2.0524zm0.0369 1.0022c1.3476-0.10657 2.4336 0.61961 3.2385 1.6459 0.80491 1.0263 1.33 2.571 1.4492 4.4102 0.19143 2.9529-0.80339 6.6752-2.4375 10.535-1.562-1.786-3.6924-5.4765-4.6836-9.0449-0.54242-1.9529-0.72778-3.804-0.37305-5.1113 0.35474-1.3074 1.0834-2.2987 2.8064-2.4349z" color="#000000" style="-inkscape-stroke:none"/>
  <path d="m177.06 225.1c-0.73195-0.12731-1.4336 0.21129-2.0137 0.73438-0.5801 0.52309-1.0737 1.2521-1.4375 2.0742-0.42995 0.97156-0.68807 2.0375-0.82031 2.9316-0.0661 0.44708-0.1009 0.85009-0.10547 1.1836-5e-3 0.3335-0.0147 0.56133 0.10938 0.8418 1.354 3.0604 4.223 6.6772 7.3398 10.139 0 0 0.20094 0.24497 0.52589 0.15565 0.27827-0.0765 0.314-0.4369 0.314-0.4369 0.0256-0.28915 0.23234-1.5305 0.41796-3.1289 0.18563-1.5984 0.35478-3.603 0.3125-5.6113-0.0423-2.0084-0.28932-4.0202-0.97265-5.6543-0.68334-1.6342-1.8691-2.9153-3.6699-3.2285zm-0.16407 0.94922c1.446 0.25151 2.3385 1.204 2.9434 2.6504 0.60484 1.4464 0.85758 3.3619 0.89844 5.3027 0.0409 1.9409-0.12402 3.908-0.30664 5.4805-0.1182 1.0178-0.18724 1.4594-0.27148 2.043-2.7929-3.1736-5.3243-6.4286-6.4844-9.0508 0.0278 0.0628-0.0311-0.16046-0.0273-0.4375 4e-3 -0.27703 0.0349-0.64376 0.0957-1.0547 0.12154-0.82184 0.3667-1.8219 0.74805-2.6836 0.31699-0.7163 0.75376-1.3446 1.2012-1.748 0.44741-0.40344 0.87054-0.5598 1.2031-0.50195z" color="#000000" style="-inkscape-stroke:none"/>
  <path d="m44.949 220.13c-0.59169 0.32306-1.8903 0.85519-3.3184 1.2305-1.428 0.37528-3.0057 0.59185-4.1562 0.37304l-0.16016 0.84961c1.3848 0.26336 3.0415 8e-3 4.5371-0.38476 1.4956-0.39304 2.811-0.92601 3.5117-1.3086z" color="#000000" style="-inkscape-stroke:none"/>
  <path d="m26.521 211.58c-0.10601 1.8571-0.03751 1.6793-0.18359 3.4356-0.08752 1.0522-0.20336 2.2873-0.03982 3.7832 0.08846 0.8091 0.34862 1.1592 0.63943 1.5762 0.32625 0.46783 0.81981 0.78149 0.96094 0.93554 1.1387 1.243 3.34 2.0739 5.6348 2.1562 2.2947 0.0824 4.7451-0.66675 6.0449-2.873l-0.91797-0.53907c-1.0571 1.7942-3.0459 2.421-5.0898 2.3477-2.044-0.0734-3.985-1.0251-4.8867-1.8125-0.04666-0.0407-0.09682-0.0811-0.14936-0.12234-0.2609-0.20464-0.5803-0.42956-0.81939-0.81907-0.2504-0.40794-0.37565-0.64966-0.39165-0.90456-0.08819-1.4045 0.02082-2.541 0.07915-3.6736 0.09056-1.7581 0.06588-1.5739 0.12265-3.4297 0.01769-2.4702-0.63862-2.7723-1.0035-0.0605z" color="#000000" style="-inkscape-stroke:none"/>
 </g>
</svg>
