<?xml version="1.0" encoding="UTF-8"?>
<!-- Created with Inkscape (http://www.inkscape.org/) -->
<svg version="1.1" viewBox="0 0 169.83 113.51" xmlns="http://www.w3.org/2000/svg">
 <defs>
  <clipPath id="clipPath1255">
   <path d="M 0,841.89 H 595.28 V 0 H 0 Z"/>
  </clipPath>
  <clipPath id="clipPath1225">
   <path d="M 0,841.89 H 595.28 V 0 H 0 Z"/>
  </clipPath>
  <clipPath id="clipPath1420">
   <path d="M 0,841.89 H 595.28 V 0 H 0 Z"/>
  </clipPath>
  <clipPath id="clipPath1435">
   <path d="M 0,841.89 H 595.28 V 0 H 0 Z"/>
  </clipPath>
  <clipPath id="clipPath1450">
   <path d="M 0,841.89 H 595.28 V 0 H 0 Z"/>
  </clipPath>
  <clipPath id="clipPath1375">
   <path d="M 0,841.89 H 595.28 V 0 H 0 Z"/>
  </clipPath>
  <clipPath id="clipPath1315">
   <path d="M 0,841.89 H 595.28 V 0 H 0 Z"/>
  </clipPath>
  <clipPath id="clipPath1390">
   <path d="M 0,841.89 H 595.28 V 0 H 0 Z"/>
  </clipPath>
  <clipPath id="clipPath1405">
   <path d="M 0,841.89 H 595.28 V 0 H 0 Z"/>
  </clipPath>
  <clipPath id="clipPath1345">
   <path d="M 0,841.89 H 595.28 V 0 H 0 Z"/>
  </clipPath>
  <clipPath id="clipPath1360">
   <path d="M 0,841.89 H 595.28 V 0 H 0 Z"/>
  </clipPath>
  <clipPath id="clipPath1330">
   <path d="M 0,841.89 H 595.28 V 0 H 0 Z"/>
  </clipPath>
  <clipPath id="clipPath1285">
   <path d="M 0,841.89 H 595.28 V 0 H 0 Z"/>
  </clipPath>
  <clipPath id="clipPath1300">
   <path d="M 0,841.89 H 595.28 V 0 H 0 Z"/>
  </clipPath>
 </defs>
 <g transform="matrix(-1 0 0 1 191.04 -84.789)">
  <path transform="matrix(-.35278 0 0 -.35278 212.26 297)" d="m156.27 428.43c-0.932 0.567-5.3864 3.6485-6.4474 4.1945-17.54 9.015-40.78 12.993-57.376 13.126 3.831-1.449 10.789-6.5298 14.346-9.6918 9.314-8.278 16.836-14.944 25.444-23.722 4.61 5.985 14.989 13.599 23.403 16.409" clip-path="url(#clipPath1255)" fill="#933000"/>
  <path transform="matrix(-.35278 0 0 -.35278 212.26 297)" d="m132.86 411.43c12.354-11.679 26.02-13.757 31.825-8.2119 3.251 3.104 2.5954 16.918-8.4596 25.38-8.608-2.634-18.493-10.858-23.365-17.168" clip-path="url(#clipPath1225)" fill="#ef869a"/>
  <path transform="matrix(-.35278 0 0 -.35278 212.26 297)" d="m191.14 495.25c-2.372-5.07-9.0732-7.1607-14.655-6.9627 0.962-0.986 2.8292-3.8349 3.1272-4.7559 1.242-3.837 0.0627-7.9464-2.6563-13.225-3.49-6.785-2.3214-16.55 3.0876-19.586 6.507-3.648 14.951-1.989 18.688 2.343 6.736 7.818 21.9 10.899 28.881 7.0947 4.105-2.239 10.95-1.4494 14.571 4.2406 2.874 4.518 1.2134 13.835-2.3196 17.79-7.08 7.924-12.961 15.826-7.9188 24.115-13.31 2.785-31.373 4.9679-43.577 4.6919 3.592-4.631 5.2739-11.065 3.0869-15.747" clip-path="url(#clipPath1420)" fill="#00b9ef"/>
  <g fill="#197fc4">
   <path transform="matrix(-.35278 0 0 -.35278 212.26 297)" d="m461.98 427.32c-11.692 69.034-65.39 122.95-138.15 139.35-35.83 8.077-81.386 8.2438-122.37 1.8948 26.924-10.739 51.65-33.514 62.729-59.59 44.987 41.834 93.245 25.701 99.526-9.5224 21.859 1.371 35.622-0.80269 42.447-7.4947 4.275-4.188 5.9677-9.5701 5.6387-17.575 15.095-2.892 26.86-11.384 31.799-22.328 3.477-7.703 3.0897-15.274-0.89131-22.276 7.567-3.119 16.445-9.9788 19.854-14.953-0.322 2.689-0.41169 9.2667-0.90369 12.174" clip-path="url(#clipPath1435)"/>
   <path transform="matrix(-.35278 0 0 -.35278 212.26 297)" d="m173.79 542.07c-11.65-5.07-22.066-23.611-24.13-39.151 23.441 10.149 63.973 9.4567 98.25-0.16131-0.404 0.879-3.0352 8.0642-3.4842 8.9422-15.971 31.214-49.92 38.441-70.636 29.424" clip-path="url(#clipPath1450)"/>
   <path transform="matrix(-.35278 0 0 -.35278 212.26 297)" d="m324.07 566.92c13.815-3.115 29.806-7.9809 42.048-13.566-1.16 2.557-3.2619 8.8343-4.8989 11.247-3.302 4.868-9.7256 10.297-14.634 14.31-6.815 1.767-12.11 2.1181-19.057 2.7501-6.826 0.62-6.535 0.51738 0.29896 0.61738 4.848 0.071 10.665-0.49492 15.188-1.0689-6.714 4.219-18.061 10.907-26.094 13.016-36.627 9.612-81.697-0.82029-116.61-22.409 13.693 2.142 31.957 2.1992 45.319 2.5112 27.388 0.638 53.852-1.8671 78.435-7.4081" clip-path="url(#clipPath1375)"/>
  </g>
  <path transform="matrix(-.35278 0 0 -.35278 212.26 297)" d="m313.11 426.08c26.945-2.646 43.989-13.183 52.7-24.798 15.437-2.7 29.998-7.296 42.852-14.137 18.99-10.103 32.245-12.835 40.777-9.5-0.346 0.012-0.693 0.013-1.035 0.054-5.128 0.614-7.9935 3.1382-11.714 10.467-3.442 6.78-6.4118 19.865-5.6548 32.855-5.338-0.922-10.161 0.74409-14.077 5.1601-5.119 5.772-8.3161 16.313-11.555 32.595-6.5717-6.6571-13.559-8.6832-20.513-3.6167-8.338 7.173-15.225 14.48-22.387 24.692-17.912-25.351-52.82-20.644-90.511-2.06-1.4405-18.134-3.2287-37.257-8.0439-52.728-5.731-14.52-14.316-28.603-24.843-37.949 13.317 4.792 29.696 10.204 44.488 12.883-0.645 0.893-1.292 1.784-1.916 2.703-2.219 3.266-2.764 5.355-2.161 5.85 0.607 0.498 2.378-0.618 4.784-3.779 4.837-6.355 10.005-11.967 15.308-16.841 25.62-23.547 54.444-29.466 65.04-14.344-4.965 3.496-10.58 6.704-17.306 9.834-8.913 4.146-7.872 6.618 1.228 2.918 6.906-2.809 12.841-5.92 17.981-9.297 2.906 7.468-0.157 19.193-11.787 29.09-8.759 7.453-22.367 13.869-41.975 16.634-5.693 0.802-7.934 2.129-6.863 2.899 0.755 0.543 3.142 0.812 7.184 0.415" clip-path="url(#clipPath1315)" fill="#dcdddd"/>
  <path transform="matrix(-.35278 0 0 -.35278 212.26 297)" d="m260.01 392.4c-7.395-2.096-16.378-6.0427-23.277-8.7047-4.618-1.782-10.481-4.0839-14.948-5.6239 6.482-40.289 33.511-57.232 55.35-50.05-0.35 5.142-3.4119 14.338-7.9289 19.177-4.557 4.884-3.1239 3.3137 1.8201-1.1863 4.95-4.507 7.4741-10.906 8.2951-16.382 12.287 7.413 13.659 41.521-19.312 62.77" clip-path="url(#clipPath1390)" fill="#b5b6b6"/>
  <path transform="matrix(-.35278 0 0 -.35278 212.26 297)" d="m229.46 434.49c-21.864-10.931-56.059-4.692-74.439 31.222-16.752 32.735-7.272 67.381 17.199 78.031 24.352 10.597 58.968-0.99 75.325-32.957 15.191-29.685 6.319-64.098-18.085-76.296m36.631 73.545c-2.335-2.207-3.772-2.014-4.944 0.933-10.999 27.654-33.68 47.438-63.141 57.958-25.098-4.57-50.403-12.457-75.099-24.386-46.026-22.228-63.392-66.376-55.185-105.31 3.314 4.639 8.135 7.621 13.649 8.723l-0.07 0.016c20.296 5.45 49.555-0.881 70.481-11.637 20.342-10.454 20.995-26.417 14.437-32.676-8.279-7.898-21.663-6.081-36.132 8.716-9.018 9.223-15.313 15.954-24.881 24.459-14.289 12.696-30.115 8.764-36.286-2.577 0.5-1.844 1.035-3.679 1.651-5.491 8.845-26.023 23.725-42.834 43.843-51.525 28.267-12.212 66.882-8.379 113.7 8.582 14.256 9.8 25.403 23.674 32.522 40.004 7.119 16.332 10.219 35.112 8.342 54.737-0.348 3.655 0.719 3.886 4.009 1.68 43.068-28.872 85.094-22.071 88.135 10.92 3.402 36.909-46.173 63.06-95.034 16.87" clip-path="url(#clipPath1405)" fill="#fff"/>
  <path d="m174.14 165.33s-50.139-21.173-74.879-20.372c-5.2722 0.17077-11.325 1.3446-17.106 3.271-13.225 4.407-20.884 11.673-24.266 11.595 0 0-1.9092 0.76532-4.9946 0.51126-2.2891-0.1885-4.6013-2.0844-4.6013-2.0844l2.6743 4.8766 4.7193 2.045 8.3374-1.4158 12.427-6.607 8.1801-1.5731 27.686 0.62923 14.472 4.09 18.248 6.1351 11.326 1.7304 8.4947-0.62923z" fill="#dcdddd"/>
  <path d="m100.64 144.94c-4.2485 0.11152-0.92499 8e-3 -1.3751 0.0222-5.2722 0.17077-11.326 1.3447-17.106 3.2711-13.056 4.3508-20.687 11.488-24.134 11.594l-0.44648 1.0232-2.8319 1.9668-3.3032 0.3142-1.3989-1.6898 0.92708 1.6898 4.7191 2.0454 8.3375-1.4159 12.427-6.6068 8.1804-1.573 27.686 0.62891 14.472 4.0902 3.715 1.249-6.7024-6.0415-4.0788-8.0744c-6.9715-1.5228-13.585-2.6373-19.088-2.4929z" fill="#b5b6b6"/>
  <g fill="#fff">
   <path transform="matrix(-.35278 0 0 -.35278 212.26 297)" d="m440.5 387.8c2.407-3.154 5.247-4.983 8.288-5.346 4.716-0.581 8.662 1.763 10.962 7.314 0.121 0.291 0.255 0.555 0.367 0.865 1.259 4.316 1.805 9.547 1.722 15.585-1.852 9.399-8.548 16.183-19.925 21.276-1.994 0.89-2.303 1.344-1.305 3.302 3.324 6.511 3.859 14.147 0.73 21.08-4.563 10.11-15.141 17.377-29.336 20.089-1.896 0.367-2.292 0.809-2.239 2.64 0.227 7.065-1.107 12.067-5.047 15.932-6.21 6.088-18.193 8.282-38.914 7.38 0.192-2.379 0.21-4.825 7e-3 -7.336-0.265-3.296-0.879-6.316-1.758-9.108 8.657-11.557 13.138-17.005 21.915-24.168 6.834-5.582 11.985-4.649 18.128 4.015 2.369 3.34 3.557 3.299 4.059-1.03 2.042-17.627 5.946-26.514 10.837-32.297 3.669-4.341 6.82-5.385 11.788-4.8 2.186 0.257 2.611 0.041 2.534-2.457-0.474-15.711 2.535-26.843 7.187-32.936" clip-path="url(#clipPath1345)"/>
   <path transform="matrix(-.35278 0 0 -.35278 212.26 297)" d="m521.7 410.18c-22.698 0.108-40.063-1.049-56.027-4.026 0.132-19.458-5.968-31.423-19.328-33.596-1.631-0.265-3.374-0.378-5.223-0.347 2.634-17.729 2.007-38.206-2.399-72.347-2.193-16.986 13.766-22.428 22.616-1.651 3.048 7.151 6.091 13.773 9.131 19.965 1.365 2.779 2.728 5.477 4.092 8.064-0.361 8.168-0.742 14.991-1.435 22.541-0.669 7.297 2.105 7.588 3.188 0.345 0.888-5.944 1.431-10.664 1.811-16.336 10.432 18.527 20.848 31.471 31.317 38.987-5.686 0.607-10.204 1.733-16.733 3.805-7.192 2.282-6.396 4.917 0.922 3.072 7.684-1.938 13.786-2.888 21.553-3.329 0.546 0.289 1.092 0.612 1.639 0.871 29.722 14.099 22.496 33.934 4.876 33.982" clip-path="url(#clipPath1360)"/>
   <path transform="matrix(-.35278 0 0 -.35278 212.26 297)" d="m233.21 504.83c-4.043-6.137-0.235-12.964 8.153-22.352 6.22-6.969 5.687-14.342 2.572-19.237-4.472-7.032-10.67-8.258-17.509-4.531-5.768 3.158-19.554 0.76-26.034-6.758-5.666-6.576-13.291-7.783-20.926-3.494-7.162 4.022-8.718 13.875-3.763 23.499 2.489 4.838 3.079 8.509 1.973 11.392-0.634 1.654-1.921 2.704-7.003 5.08-4.122 1.927-7.149 5.215-8.863 8.866-1.164 2.484-1.706 5.133-1.583 7.639-3.051-0.904-5.973-1.953-8.775-3.127-0.569-10.497 1.738-22.254 7.855-34.208 16.978-33.173 47.858-38.556 68.04-28.472 18.826 9.416 29.15 35.406 19.466 62.056-4.547 1.39-9.086 2.607-13.603 3.647" clip-path="url(#clipPath1330)"/>
   <path transform="matrix(-.35278 0 0 -.35278 212.26 297)" d="m172.25 491.81c0.299-0.14 0.556-0.279 0.839-0.418l-0.018 0.024c6.808-2.729 14.618-0.175 16.734 4.349 1.579 3.381 1.09 9.297-3.807 13.464-7.792-0.448-15.212-1.523-22.088-3.267-0.305-2.034 0.051-4.545 1.169-6.967 1.308-2.836 3.653-5.541 7.171-7.185" clip-path="url(#clipPath1285)"/>
  </g>
  <path d="m50.94 163.08 2.0076 0.15865 4.5052-1.6686 0.66869-1.7472c-0.07922 5e-3 -0.15651 7e-3 -0.23151 6e-3 0 0-1.9092 0.76514-4.9945 0.51108-2.2891-0.1885-4.6013-2.0841-4.6013-2.0841z" fill="#dcdddd"/>
  <path d="m103.19 147.01 9.8318 6.4497-5.9778 7.0789-4.9552 4.1687-5.1126 2.7529-6.1351 1.5731-4.7193-0.47192-3.3822-2.8316-1.3371-2.9102 1.4158-5.5058 3.4608-4.0114 5.3485-3.0675 5.6631-2.3596z" fill="#dcdddd"/>
  <path d="m85.039 153.84c11.428-0.69642 17.864 4.0057 22.303 6.8965l5.8954-7.5639-9.3437-6.2848-9.6218 1.7798z" fill="#b5b6b6"/>
  <path d="m44.44 183.58c10.146 10.933 9.5172 1.0225 9.5172 1.0225s-0.18839-8.2593 0.05562-12.132c0.31126-4.9401 0.88824-7.7677 0.88824-7.7677l2.517 0.15731-0.15731 3.1462-0.15731 13.529 1.3371 10.382-0.62924 4.1687-1.4944 1.0225-1.8877 0.55058-2.9102-1.0225-2.4383-3.7754-2.7529-6.5283z" fill="#dcdddd"/>
  <path d="m84.061 98.293c20.498-5.94 31.808-4.8511 34.849-4.4112l-19.119 3.4236-17.589 5.1415z" fill="#146daa"/>
  <path transform="matrix(-.35278 0 0 -.35278 212.26 297)" d="m516.83 376.2c-0.547-0.259-1.093-0.582-1.638-0.871-7.768 0.441-13.87 1.391-21.554 3.328-7.317 1.846-8.114-0.789-0.922-3.071 6.529-2.072 11.047-3.198 16.733-3.805-10.468-7.516-20.885-20.46-31.317-38.987-0.38 5.671-0.923 10.392-1.811 16.336-1.083 7.242-3.857 6.952-3.188-0.346 0.693-7.549 1.074-14.372 1.435-22.54-1.363-2.587-2.727-5.286-4.091-8.064-3.041-6.193-6.084-12.814-9.132-19.965-8.85-20.777-24.809-15.335-22.616 1.651 4.406 34.14 5.033 54.618 2.399 72.346 1.849-0.03 3.593 0.083 5.223 0.348 13.36 2.173 19.46 14.138 19.328 33.596 15.964 2.977 33.329 4.134 56.027 4.026 17.62-0.048 24.846-19.883-4.876-33.982m-151.02 25.081c-8.71 11.614-25.755 22.151-52.7 24.797-4.042 0.397-6.429 0.128-7.184-0.415-1.07-0.77 1.17-2.097 6.863-2.899 19.608-2.765 33.216-9.18 41.976-16.634 11.629-9.897 14.692-21.622 11.786-29.09-5.14 3.377-11.074 6.488-17.981 9.297-9.1 3.701-10.141 1.229-1.228-2.918 6.726-3.13 12.341-6.337 17.306-9.834-10.596-15.122-39.42-9.203-65.04 14.344-5.303 4.874-10.471 10.486-15.308 16.841-2.406 3.161-4.177 4.277-4.784 3.779-0.603-0.495-0.058-2.583 2.161-5.85 0.625-0.919 1.271-1.81 1.916-2.703-14.791-2.679-29.164-6.529-42.481-11.322 10.528 9.347 19.112 21.869 24.843 36.389 5.93 15.024 8.833 32.14 7.599 50.051 35.237-23.489 76.388-23.96 88.726 1.837 7.162-10.212 12.488-16.181 20.826-23.354 8.738-7.519 17.063-5.047 21.851 2.057 1.901-16.06 5.767-25.263 10.886-31.035 3.916-4.415 8.294-6.527 13.631-5.606-0.757-12.99 1.321-22.731 4.764-29.511 3.721-7.328 9.038-11.191 14.166-11.804 0.343-0.042 0.689-0.043 1.035-0.055-8.532-3.335-21.787-0.603-40.777 9.5-12.854 6.841-27.415 11.438-42.852 14.138m-86.49-69.193c-0.822 5.476-4.014 11.652-8.965 16.159-4.944 4.499-6.823 2.503-2.265-2.381 4.517-4.84 7.132-10.246 7.482-15.387-21.839-7.182-45.077 6.417-51.56 46.706 4.467 1.54 8.992 3.173 13.61 4.955 6.899 2.661 14.098 5.047 21.493 7.144 32.971-21.249 32.491-49.783 20.205-57.196m-147.08 82.141c-8.608 8.778-15.183 15.129-24.497 23.407-3.558 3.162-7.363 5.404-11.194 6.853 16.596-0.133 35.738-5.056 53.277-14.072 1.061-0.545 2.047-1.104 2.98-1.671-8.414-2.81-15.956-8.533-20.566-14.517m30.872-9.116c-5.805-5.545-15.687-5.359-28.041 6.32 4.872 6.31 12.55 12.327 21.158 14.961 11.055-8.462 10.134-18.177 6.883-21.281m-48.696-29.874c-20.117 8.692-34.998 25.503-43.842 51.526-0.616 1.811-1.152 3.646-1.651 5.49 6.171 11.341 21.997 15.274 36.286 2.578 9.567-8.505 15.862-15.237 24.881-24.459 14.469-14.798 27.852-16.614 36.132-8.717 6.557 6.259 5.905 22.223-14.437 32.677-20.926 10.756-50.186 17.087-70.481 11.636l0.069-0.016c-5.513-1.102-10.335-4.083-13.648-8.723-8.207 38.931 9.158 83.078 55.185 105.31 24.695 11.928 50 19.815 75.099 24.385 29.461-10.52 52.142-30.303 63.141-57.958 1.171-2.947 2.608-3.139 4.944-0.932 48.86 46.189 98.436 20.038 95.033-16.871-3.04-32.991-45.066-39.792-88.134-10.919-3.29 2.205-4.358 1.975-4.01-1.68 1.878-19.626-1.222-38.405-8.342-54.737-7.119-16.331-18.265-30.204-32.522-40.005-46.82-16.961-85.436-20.794-113.7-8.582m202.29 216.76c8.033-2.109 15.59-5.453 22.304-9.672-4.523 0.574-8.779 0.694-13.627 0.623-6.834-0.1-6.902-2.004-0.076-2.624 6.947-0.632 14.472-1.652 21.287-3.419 4.908-4.013 9.102-8.55 12.404-13.418 1.637-2.413 3.07-4.9 4.23-7.457-12.242 5.585-25.335 10.005-39.15 13.12-24.583 5.541-51.047 8.492-78.435 7.854-13.362-0.312-26.944-1.484-40.637-3.626 34.908 21.589 75.073 28.231 111.7 18.619m143.07-165.3c0.492-2.907 0.897-5.702 1.219-8.391-3.409 4.974-8.819 8.997-16.386 12.115 3.982 7.003 4.053 15.834 0.576 23.538-4.939 10.943-16.388 18.805-31.483 21.697 0.329 8.005-1.68 14.333-5.954 18.52-6.826 6.692-20.589 9.181-42.448 7.811-6.28 35.222-55.799 51.986-100.79 10.152-11.08 26.076-31.707 45.384-58.63 56.123 40.979 6.348 81.175 3.975 117.01-4.103 72.758-16.403 125.19-68.429 136.89-137.46m0.348-36.055c-0.112-0.309-0.246-0.574-0.366-0.865-2.301-5.551-6.246-7.895-10.963-7.314-3.041 0.363-5.88 2.192-8.288 5.346-4.652 6.094-7.661 17.225-7.186 32.936 0.076 2.498-0.348 2.714-2.535 2.457-4.968-0.585-8.119 0.459-11.788 4.8-4.891 5.784-8.795 14.67-10.837 32.297-0.502 4.329-1.69 4.37-4.059 1.03-6.143-8.664-11.293-9.597-18.128-4.015-8.777 7.164-13.258 12.611-21.915 24.168 0.879 2.792 1.493 5.812 1.759 9.108 0.202 2.512 0.184 4.957-8e-3 7.336 20.722 0.903 32.705-1.292 38.914-7.379 3.941-3.866 5.275-8.868 5.047-15.933-0.053-1.831 0.343-2.272 2.239-2.64 14.195-2.711 24.774-9.978 29.336-20.089 3.129-6.933 2.594-14.569-0.73-21.08-0.998-1.958-0.689-2.412 1.306-3.302 11.377-5.092 18.072-11.877 19.924-21.276 0.083-6.038-0.463-11.269-1.722-15.585m61.703 23.691c-22.73 0.199-40.245-1.341-56.246-4.305-0.244 5.329-0.9 11.149-1.965 17.437-9.356 55.238-43.974 100.4-93.989 125.51-6.572 19.549-28.02 38.025-51.729 44.248-41.125 10.796-88.271 1.099-123.38-25.674-24.535-4.725-49.329-12.637-73.753-24.435-55.552-26.828-69.548-81.05-55.59-122.11 21.291-62.645 75.789-75.412 154.84-49.172 7.435-46.017 35.772-58.785 59.06-49.922 17.535 6.674 19.765 41.676-15.173 64.697 7.525 1.981 15.233 3.649 23.024 4.994 27.903-34.938 70.909-46.741 83.859-22.278 3.188 6.02 2.799 14.451-1.689 22.838 13.72-2.594 26.474-6.75 37.574-12.655 12.029-6.404 22.065-9.957 30.261-10.981 2.705-17.617 1.818-37.842-2.615-72.188-3.002-23.244 20.103-29.685 31.102-3.878 19.405 45.534 34.747 66.981 53.334 75.796 34.922 16.569 24.598 41.894 3.072 42.084m-362.51 53.276c-6.118 11.954-8.425 23.711-7.855 34.208 2.802 1.174 5.723 2.223 8.774 3.127-0.123-2.506 0.419-5.155 1.583-7.638 1.714-3.652 4.741-6.939 8.863-8.866 5.083-2.376 6.369-3.426 7.003-5.081 1.106-2.882 0.517-6.554-1.973-11.392-4.954-9.623-3.398-19.477 3.763-23.499 7.635-4.289 15.261-3.082 20.927 3.494 6.479 7.519 20.265 9.916 26.033 6.758 6.84-3.727 13.037-2.501 17.51 4.531 3.115 4.896 3.647 12.268-2.573 19.237-8.388 9.389-12.195 16.216-8.153 22.352 4.517-1.039 9.056-2.257 13.603-3.647 9.684-26.65-0.64-52.64-19.465-62.056-20.183-10.084-51.063-4.701-68.04 28.472m22.192 16.564c-0.298 0.92-0.905 1.877-1.866 2.863 5.582-0.197 11.022 2.209 13.394 7.278 2.187 4.682 1.451 10.486-2.142 15.117 12.205 0.276 25.222-0.962 38.533-3.746-5.042-8.289 2.1-17.769 9.179-25.693 3.534-3.955 4.563-9.803 1.689-14.322-3.621-5.69-8.258-5.848-12.363-3.609-6.982 3.804-23.406 0.408-30.142-7.411-3.737-4.332-9.66-5.99-16.166-2.342-5.409 3.035-5.948 11.224-2.457 18.008 2.719 5.28 3.583 10.019 2.341 13.857m-17.592 21.798c6.876 1.743 14.295 2.819 22.088 3.267 4.896-4.168 5.385-10.084 3.806-13.464-2.115-4.524-9.925-7.079-16.734-4.349l0.019-0.024c-0.283 0.139-0.54 0.277-0.839 0.418-3.519 1.644-5.863 4.348-7.172 7.185-1.117 2.421-1.473 4.933-1.168 6.967m10.192 32.951c20.716 9.017 53.404 1.158 69.375-30.055 0.449-0.878 0.873-1.757 1.277-2.637-34.277 9.618-69.449 9.996-92.89-0.153 2.064 15.54 10.588 27.775 22.238 32.845m73.445-28.135c-16.357 31.967-50.973 43.555-75.325 32.957-24.471-10.649-33.952-45.296-17.2-78.031 18.38-35.913 52.576-42.153 74.44-31.222 24.403 12.199 33.276 46.611 18.085 76.296" clip-path="url(#clipPath1300)" fill="#0f141b"/>
 </g>
</svg>
