<?xml version="1.0" encoding="UTF-8"?>
<!-- Created with Inkscape (http://www.inkscape.org/) -->
<svg version="1.1" viewBox="0 0 97.94 82.329" xmlns="http://www.w3.org/2000/svg">
 <g transform="translate(-1.681 -1.9766)">
  <g transform="matrix(.8142 0 0 -.8142 76.008 73.176)">
   <path d="m0 0c-4.212 4.796-7.651 15.938-9.043 23.535-5.308-10.936-22.984-10.007-29.136-2.515-1.262-4.062-4.173-13.401-7.343-19.021 1.137-0.761 4.122-1.464 6.428-1.398l24.135-0.464c4.566-0.014 6.976 2.283 5.561 6.878 2.752-4.38 6.192-6.751 9.398-7.015" fill="#8dbcb9"/>
  </g>
  <g transform="matrix(.8142 0 0 -.8142 92.897 62.789)">
   <path d="m0 0c-5.953 5.469-11.122 14.177-13.048 28.266-1.444 10.573-4.578 18.859-10.273 24.303-0.025-1.118 0.552-2.673 1.432-3.909l-0.318-0.165c-2.709 3.226-8.705 1.644-10.086-4.645-0.188-0.858-0.567-0.906-1.042-0.153-5.062 8.029-14.83 7.921-20.606-0.438-0.64-0.926-0.869-0.875-1.207 0.177-2.157 6.7-8.295 8.002-11.819 5.524-3.09 0.935-5.213 0.497-5.089-1.502-1.799 3.407-5.187 3.567-7.087 2.068-0.165 0.084-0.341 0.176-0.525 0.27-4.081-5.164-6.694-12.465-8.77-22.476-2.691-12.975-6.39-19.788-13.021-26.206-2.994-2.898-3.917-4.889-3.942-7.372-3.954-2.806-6.462-5.626-6.115-6.559 0.312-0.834 3.317-1.104 7.621-0.545 0.249-2.029 0.979-3.805 2.065-5.129 2.329-2.842 7.357-3.414 11.89-0.814 0.693-1.058 1.63-1.901 2.743-2.511 6.07-3.33 15.035-0.522 19.714 8.529 6.707 12.977 11.416 28.246 12.599 43.172 1.237-13.569 5.891-18.227 11.944-18.255 6.005-0.028 9.977 4.103 11.109 14.334 1.519-17.941 6.081-33.934 12.416-40.329 4.709-4.756 10.989-6.601 15.66-3.377 2.232 1.54 3.479 3.623 3.728 5.924 3.721 2.386 3.428 8.693 0.027 11.818" fill="#a2d7d5"/>
  </g>
  <g transform="matrix(.8142 0 0 -.8142 34.229 24.149)">
   <path d="m0 0c-0.124 1.999 1.999 2.437 5.089 1.502 3.523 2.478 9.662 1.176 11.818-5.523 0.339-1.053 0.568-1.104 1.207-0.177 5.777 8.359 15.544 8.466 20.607 0.438 0.474-0.753 0.853-0.706 1.042 0.152 1.381 6.289 7.377 7.872 10.086 4.645l0.318 0.165c-0.88 1.237-1.457 2.791-1.433 3.91-4 3.824-9.181 6.168-16.289 7.256 1.972 4.429 1.618 8.792 0.586 9.372-1.246 0.7-5.401-1.69-9.598-7.945-3.056 5.396-8.327 9.046-10.223 8.06-0.602-0.313-0.856-1.456-0.795-3.009-1.836 1.094-3.345 1.116-3.691 0.758-0.738-0.762 0.714-4.737 3.175-7.333-9.003-1.283-15.111-4.365-19.511-9.932 0.183-0.095 0.36-0.187 0.525-0.271 1.9 1.499 5.287 1.34 7.087-2.068" fill="#ba8ebe"/>
  </g>
  <g transform="matrix(.8142 0 0 -.8142 66.98 41.648)">
   <path d="m0 0c-1.132-10.231-5.104-14.363-11.109-14.334-6.053 0.028-10.707 4.686-11.944 18.255-0.571-7.207-1.971-14.491-4.014-21.561 3.339-3.933 9.069-5.861 14.636-5.7 6.25 0.181 12.275 2.995 14.467 8.531-0.909 4.654-1.599 9.65-2.036 14.809" fill="#ba8ebe"/>
  </g>
  <g transform="matrix(.8142 0 0 -.8142 68.109 50.524)">
   <path d="m0 0c-0.834-5.232-4.029-5.912-6.434-4.014-0.482 0.767-0.655 1.26-0.89 1.812 1.726 1.532 3.792 3.872 4.531 6.563 0.704-0.194 1.596-0.551 2.178-0.872 0.185-1.315 0.395-2.417 0.615-3.489" fill="#ffe992"/>
  </g>
  <g transform="matrix(.8142 0 0 -.8142 53.05 53.571)">
   <path d="m0 0c-2.933-2.266-7.524-1.506-8.638 2.146 0.426 1.576 0.867 3.562 1.117 4.72 0.882 0.261 2.709 0.702 3.839 0.906 0.773-1.925 2.781-5.066 4.608-5.943-0.378-0.831-0.571-1.288-0.926-1.829" fill="#ffe992"/>
  </g>
  <g transform="matrix(.8142 0 0 -.8142 51.589 49.922)">
   <path d="m0 0c0.088-2.171-0.787-3.366-1.781-3.451-0.942-0.08-2.064 0.93-2.281 3.505-0.095 1.112 0.045 2.171 0.367 2.911 0.594 0.141 1.211 0.254 1.807 0.326 0.745-1.493 1.066-2.071 1.888-3.291" fill="#a2d7d5"/>
  </g>
  <g transform="matrix(.8142 0 0 -.8142 50.521 49.971)">
   <path d="m0 0c0.104-1.081-0.239-1.557-0.588-1.562-0.354-6e-3 -0.76 0.437-0.815 1.5-0.057 1.058 0.202 1.556 0.557 1.592 0.364 0.035 0.741-0.435 0.846-1.53" fill="#ffe992"/>
  </g>
  <g transform="matrix(.8142 0 0 -.8142 63.66 50.955)">
   <path d="m0 0c0.232-1.148 0.91-1.872 1.665-1.933 1.062-0.086 2.042 0.751 2.098 3.626 0.028 1.494-0.376 2.751-0.978 3.357-0.54-1.836-1.658-3.904-2.785-5.05" fill="#a2d7d5"/>
  </g>
  <g transform="matrix(.8142 0 0 -.8142 64.528 49.811)">
   <path d="m0 0c-0.011-0.858 0.275-1.233 0.567-1.258 0.345-0.028 0.727 0.295 0.82 1.506 0.07 0.913-0.101 1.371-0.375 1.526-0.357-0.776-0.641-1.23-1.012-1.774" fill="#ffe992"/>
  </g>
  <g transform="matrix(.8142 0 0 -.8142 61.695 64.978)">
   <path d="m0 0c-1.904 1.738-2.832 3.435-3.191 5.575-0.904-0.142-1.823-0.234-2.748-0.261-3.186-0.092-6.423 0.503-9.237 1.763-0.224-3.08-1.514-4.818-3.69-6.581-2.151-1.743-2.037-4.622 0.088-5.52 1.896-0.802 4.36-0.246 6.048 1.853 1.51-2.984 6.637-3.545 8.493-7e-3 1.467-2.779 5.27-2.261 5.874-0.732 0.451 1.144 0.101 2.321-1.637 3.91" fill="#ba8ebe"/>
  </g>
  <g transform="matrix(.8142 0 0 -.8142 66.567 75.183)">
   <path d="m0 0c-2.734 1.591-4.981 4.079-6.57 7.386-1.307-0.096-2.837 0.428-3.651 1.969-1.855-3.538-6.982-2.977-8.493 7e-3 -1.556-1.934-3.769-2.555-5.592-2.013-1.628-2.995-4.036-5.599-6.978-7.097-2.527-1.285-2.87-2.98-2.362-4.316 0.805-2.115 4.969-2.373 7.816-1.01 0.151-0.653 0.475-1.231 0.851-1.623 1.358-1.416 3.974-1.647 6.275-0.755 2.211 0.857 3.81 1.43 5.59 1.458 1.266 0.02 2.539-0.404 4.434-1.229 1.968-0.857 4.468-0.685 5.43 0.737 0.265 0.39 0.426 0.816 0.501 1.26 2.731-0.569 4.619 0.483 4.928 1.736 0.31 1.265-0.175 2.324-2.179 3.49" fill="#ba8ebe"/>
  </g>
  <g transform="matrix(.8142 0 0 -.8142 53.308 12.917)">
   <path d="m0 0c1.481 2.207 2.954 3.923 4.299 5.202-1.467 4.424-4.201 7.739-5.204 7.777-1.119 0.042-3.444-1.997-5.264-6.112 2.103-1.427 4.476-3.876 6.169-6.867" fill="#ffe992"/>
  </g>
  <g transform="matrix(.8142 0 0 -.8142 29.975 20.12)">
   <path d="m0 0c-3.711 1.956-6.886 2.602-7.588 2.005-0.414-0.353-0.521-1.313-0.029-2.417 1.347-0.453 3.831-1.524 5.155-2.231 0.613 0.809 1.705 1.95 2.462 2.643" fill="#d2cee6"/>
  </g>
  <g transform="matrix(.8142 0 0 -.8142 2.101 73.225)">
   <path d="m0 0c0.299-0.802 3.09-1.079 7.126-0.604 0.092 2.175-0.703 4.992-1.887 6.522-3.441-2.584-5.56-5.056-5.239-5.918" fill="#d2cee6"/>
  </g>
  <g transform="matrix(.8142 0 0 -.8142 83.886 18.424)">
   <path d="m0 0c-0.889 1.146-4.35 0.694-8.829-1.105 0.64-0.728 1.291-2.011 1.558-3.386 2.061 0.644 4.127 0.895 5.319 0.388 1.986 1.905 2.436 3.478 1.952 4.103" fill="#d2cee6"/>
  </g>
  <g transform="matrix(.8142 0 0 -.8142 74.318 20.382)">
   <path d="m0 0c0.928-0.914 1.704-1.878 2.405-2.87 0.668 0.297 1.372 0.563 2.076 0.784-0.267 1.375-0.918 2.657-1.558 3.385-0.936-0.376-1.913-0.807-2.923-1.299" fill="#a2d7d5"/>
  </g>
  <g transform="matrix(.8142 0 0 -.8142 19.283 35.883)">
   <path d="m0 0c-4.989 0.716-7.316 0.237-7.506-0.753-0.123-0.642 0.382-1.686 2.259-2.369 1.405 0.55 3.501 0.655 6.066 0.437 0.136 0.933-0.09 2.142-0.819 2.685" fill="#d2cee6"/>
  </g>
  <g transform="matrix(.8142 0 0 -.8142 21.84 36.323)">
   <path d="m0 0c-1.15 0.229-2.188 0.404-3.141 0.541 0.73-0.543 0.955-1.752 0.82-2.685 0.569-0.048 1.153-0.106 1.766-0.186 0.171 0.731 0.35 1.547 0.555 2.33" fill="#a2d7d5"/>
  </g>
  <g transform="matrix(.8142 0 0 -.8142 94.982 68.907)">
   <path d="m0 0c-0.26-1.758-1.097-3.347-2.588-4.303-0.055-0.501-0.165-0.989-0.314-1.467 3.712-0.607 7.885-0.116 8.111 0.852 0.16 0.686-2.673 3.135-5.209 4.918" fill="#d2cee6"/>
  </g>
  <g transform="matrix(.8142 0 0 -.8142 61.966 39.964)">
   <path d="m0 0c-1.192 1.442-4.278 1.23-5.988-0.47-1.379-4.189 1.599-6.492 4.986-5.253 1.663 1.101 2.341 4.101 1.002 5.723" fill="#d2cee6"/>
  </g>
  <g transform="matrix(.8142 0 0 -.8142 51.361 10.084)">
   <path d="m0 0c1.284-0.514 3.25-0.526 4.768-0.215-0.833-1.076-1.635-2.148-2.385-3.212-0.841 1.357-1.388 2.124-2.383 3.427" fill="#dec653"/>
  </g>
  <g transform="matrix(.8142 0 0 -.8142 41.356 8.1404)">
   <path d="m0 0c0.97-1.533 2.658-3.201 4.205-4.132 0.282-1.354 0.831-3.007 1.594-4.356 0.311-0.55-1.779-0.304-2.594 0.651-2.973 3.489-3.838 6.61-3.205 7.837" fill="#a179a4"/>
  </g>
  <g transform="matrix(.8142 0 0 -.8142 45.189 6.32)">
   <path d="m0 0c0.084-2.306 0.991-6.04 2.448-8.478 0.725-1.212 0.173-2.637-1.379-2.45-2.468 4.958-2.697 10.408-1.069 10.928" fill="#a179a4"/>
  </g>
  <g transform="matrix(.8142 0 0 -.8142 60.913 6.3875)">
   <path d="m0 0c0.094-2.403-0.547-5.846-1.864-8.252-0.581-1.063 0.081-2.227 1.206-1.985 2.757 5.195 1.838 9.877 0.658 10.237" fill="#a179a4"/>
  </g>
  <g transform="matrix(.8142 0 0 -.8142 45.942 52.094)">
   <path d="m0 0c-0.442-1.881-0.877-3.604-1.254-5.015 0.277-0.307 0.632-0.573 0.908-0.803 0.903 0.962 1.797 2.114 2.626 3.379-1.007 0.573-1.746 1.46-2.28 2.439" fill="#a179a4"/>
  </g>
  <g transform="matrix(.8142 0 0 -.8142 48.254 38.724)">
   <path d="m0 0c-0.205-3.178-0.886-7.262-1.693-11.215 1.175 0.272 2.591 0.615 3.874 0.897-1.145 2.825-1.958 6.732-2.181 10.318" fill="#a179a4"/>
  </g>
  <g transform="matrix(.8142 0 0 -.8142 48.505 47.473)">
   <path d="m0 0c-0.697-0.164-1.384-0.326-2.002-0.469-0.367-1.796-0.76-3.562-1.146-5.206 0.534-0.98 1.273-1.866 2.28-2.439 0.514 0.785 1.003 1.615 1.453 2.47-0.886 1.178-1.168 3.428-0.585 5.644" fill="#dec653"/>
  </g>
  <g transform="matrix(.8142 0 0 -.8142 49.808 48.685)">
   <path d="m0 0c0.225 0.023 0.436-0.177 0.597-0.498 0.117 0.328 0.229 0.656 0.33 0.983-0.229 0.434-0.447 0.916-0.656 1.431-0.607-0.133-1.244-0.281-1.872-0.428-0.583-2.216-0.3-4.466 0.585-5.643 0.276 0.521 0.53 1.053 0.773 1.59-0.386 0.988-0.279 2.511 0.243 2.565" fill="#8dbcb9"/>
  </g>
  <g transform="matrix(.8142 0 0 -.8142 49.808 48.685)">
   <path d="m0 0c-0.522-0.054-0.629-1.577-0.243-2.565 0.31 0.684 0.594 1.374 0.84 2.067-0.161 0.321-0.372 0.521-0.597 0.498" fill="#dec653"/>
  </g>
  <g transform="matrix(.8142 0 0 -.8142 66.969 41.657)">
   <path d="m0 0c-0.288-2.888-0.665-4.637-1.344-6.466 0.705-0.266 1.425-0.551 2.22-0.915-0.395 2.773-0.73 5.517-0.876 7.381" fill="#a179a4"/>
  </g>
  <g transform="matrix(.8142 0 0 -.8142 66.798 56.682)">
   <path d="M 0,0 C 0.994,1.183 1.829,2.52 2.319,3.501 2.118,4.539 1.899,5.805 1.678,7.173 1.38,5.864 0.894,4.663 0.154,3.844 0.362,2.629 0.347,1.323 0,0" fill="#a179a4"/>
  </g>
  <g transform="matrix(.8142 0 0 -.8142 68.164 50.842)">
   <path d="m0 0c-0.201 1.246-0.402 2.575-0.591 3.9-0.698 0.32-1.337 0.577-1.96 0.816 0.838-1.013 1.303-3.539 0.307-5.688 0.323-0.725 0.576-1.518 0.721-2.357 0.739 0.818 1.225 2.019 1.523 3.329" fill="#dec653"/>
  </g>
  <g transform="matrix(.8142 0 0 -.8142 65.875 46.921)">
   <path d="m0 0c-0.19-0.514-0.407-1.037-0.649-1.591 0.521-0.536 0.55-1.754 0.265-2.537 0.354-0.497 0.679-1.051 0.95-1.659 0.966 2.083 0.51 5.384-0.566 5.787" fill="#8dbcb9"/>
  </g>
  <g transform="matrix(.8142 0 0 -.8142 65.346 48.216)">
   <path d="m0 0c-0.199-0.455-0.416-0.929-0.657-1.445 0.322-0.313 0.632-0.684 0.923-1.093 0.285 0.784 0.255 2.001-0.266 2.538" fill="#dec653"/>
  </g>
  <g transform="matrix(.8142 0 0 -.8142 45.465 68.077)">
   <path d="m0 0c0.709 5.41 12.565 8.396 18.644 4.997-0.884 1.213-1.66 2.78-1.862 4.336-3.86-0.654-8.43-0.076-12.09 1.604-2e-3 -2.39-1.17-4.64-3.178-6.231-2.008-1.592-2.349-3.754-1.514-4.706" fill="#a179a4"/>
  </g>
  <g transform="matrix(.8142 0 0 -.8142 45.814 68.299)">
   <path d="m0 0c1.731-0.928 4.919-0.377 6.295 1.926l0.426-0.993c-1.316-1.998-5.097-3.297-6.721-0.933" fill="#a179a4"/>
  </g>
  <g transform="matrix(.8142 0 0 -.8142 51.342 67.082)">
   <path d="m0 0c1.892-2.663 6.889-2.167 8.476-0.036-0.39-2.038-2.392-3.086-4.387-3.02-2.077 0.068-3.734 1.203-4.089 3.056" fill="#a179a4"/>
  </g>
  <g transform="matrix(.8142 0 0 -.8142 58.604 66.831)">
   <path d="m0 0c1.807-2.36 4.421-2.345 5.333-0.786-0.086-3.088-4.822-2.488-5.808-0.08z" fill="#a179a4"/>
  </g>
  <g transform="matrix(.8142 0 0 -.8142 39.27 77.286)">
   <path d="m0 0c0.423-2.014 3.692-2.657 7.617-0.791-0.098-0.588-0.049-0.956 7e-3 -1.716-5.4-2.064-8.256-0.111-7.624 2.507" fill="#a179a4"/>
  </g>
  <g transform="matrix(.8142 0 0 -.8142 46.255 77.12)">
   <path d="m0 0c-1.039-2.929 2.062-5.204 5.925-3.6 4.284 1.779 7.139 2.066 10.514 0.191 2.768-1.539 5.856-0.334 4.974 2.861 2.33-2.884-0.671-6.369-5.453-4.173-3.107 1.428-5.001 1.572-8.757 0.034-6.692-2.74-9.554 1.49-7.203 4.687" fill="#a179a4"/>
  </g>
  <g transform="matrix(.8142 0 0 -.8142 64.244 77.965)">
   <path d="m0 0c2.052-0.554 4.651-0.034 4.492 1.789 1.4-1.956-0.149-4.305-4.334-3.525 0.035 0.544 2e-3 1.217-0.158 1.736" fill="#a179a4"/>
  </g>
  <g transform="matrix(.8142 0 0 -.8142 23.774 18.639)">
   <path d="m0 0c0.896-0.986 3.068-2.738 5.382-4.392-1.271 0.504-4.391 1.978-5.564 2.316-0.227 0.854-0.241 1.664 0.182 2.076" fill="#b6b1c7"/>
  </g>
  <g transform="matrix(.8142 0 0 -.8142 13.384 36.477)">
   <path d="m0 0c1.606-0.663 3.807-1.347 6.171-1.768-1.586-4e-3 -3.345-0.22-4.318-0.59-1.279 0.376-2.342 1.63-1.853 2.358" fill="#b6b1c7"/>
  </g>
  <g transform="matrix(.8142 0 0 -.8142 8.8133 63.868)">
   <path d="m0 0c-1.011-2.107-0.819-5.487-0.141-6.659-0.496-2.064-0.71-3.791-0.504-5.328-2.713-0.346-6.378-0.563-7.419 0.327 0.793 1.402 3.547 3.687 5.973 5.025-0.159 3.314 0.661 5.708 2.091 6.635" fill="#fff"/>
  </g>
  <g transform="matrix(.8142 0 0 -.8142 8.8133 63.868)">
   <path d="m0 0c-1.43-0.927-2.25-3.321-2.091-6.635-0.065-0.036-0.132-0.075-0.198-0.113 0.765-1.547 1.232-3.607 1.172-5.296 0.16 0.019 0.318 0.037 0.472 0.057-0.206 1.537 8e-3 3.264 0.504 5.328-0.678 1.172-0.87 4.552 0.141 6.659" fill="#8dbcb9"/>
  </g>
  <g transform="matrix(.8142 0 0 -.8142 6.9496 69.362)">
   <path d="m0 0c-2.376-1.351-5.004-3.548-5.775-4.913 0.981-0.839 4.296-0.692 6.947-0.384 0.06 1.69-0.407 3.749-1.172 5.297" fill="#b6b1c7"/>
  </g>
  <g transform="matrix(.8142 0 0 -.8142 9.3906 67.813)">
   <path d="m0 0c-1.896-7.316 5.354-12.532 11.313-9.192 0.064-1.26 0.461-2.593 1.309-3.941-9.65-5.255-16.834 2.463-12.622 13.133" fill="#8dbcb9"/>
  </g>
  <g transform="matrix(.8142 0 0 -.8142 19.074 72.336)">
   <path d="M 0,0 C 0.085,-10.01 20.013,-16.808 32.115,22.491 25.491,-1.504 19.85,-11.481 8.266,-11.384 0.233,-11.317 -1.48,-6.73 0,0" fill="#8dbcb9"/>
  </g>
  <g transform="matrix(.8142 0 0 -.8142 69.023 54.332)">
   <path d="m0 0c11.794-38.144 29.204-26.4 27.562-16.169 4.603-6.884-1.071-13.304-6.345-13.531-10.903-0.47-18.499 11.943-21.217 29.7" fill="#8dbcb9"/>
  </g>
  <g transform="matrix(.8142 0 0 -.8142 92.563 62.544)">
   <path d="m0 0c1.379-2.71 1.341-6.05-0.111-8.198 0.355-1.36 0.585-2.418 0.513-3.695 4.108 1.947 3.283 9.25-0.402 11.893" fill="#8dbcb9"/>
  </g>
  <g transform="matrix(.8142 0 0 -.8142 94.158 71.307)">
   <path d="m0 0c1.569-0.836 4.31-1.678 6.228-1.91-0.441-0.844-2.823-1.552-8.121-0.92 0.162 0.457 0.247 1.105 0.242 1.416 0.709 0.514 1.133 0.903 1.651 1.414" fill="#b6b1c7"/>
  </g>
  <g transform="matrix(.8142 0 0 -.8142 83.848 18.467)">
   <path d="m0 0c-1.812-1.538-3.232-2.489-5.702-4 1.32 0.367 2.953 0.323 3.803-0.043 1.207 1.103 2.525 3.283 1.899 4.043" fill="#b6b1c7"/>
  </g>
  <g transform="matrix(.8142 0 0 -.8142 59.153 44.852)">
   <path d="m0 0c0.19-0.337 0.642-0.561 1.466-0.439 0.305 0.204 0.575 0.432 0.826 0.671-0.809-0.27-1.591-0.343-2.292-0.232" fill="#8dbcb9"/>
  </g>
  <g transform="matrix(.8142 0 0 -.8142 61.15 44.624)">
   <path d="m0 0c2.16 1.43 2.051 4.397 0.915 5.189 0.288-1.892-0.888-3.195-2.751-3.928-0.573-0.226-0.912-1.018-0.616-1.541 0.747-0.119 1.586-0.037 2.452 0.28" fill="#b6b1c7"/>
  </g>
  <g transform="matrix(.8142 0 0 -.8142 60.759 13.775)">
   <path d="m0 0c17.179-2.699 24.376-13.651 26.872-31.912 1.717-12.56 6.094-21.737 12.86-27.953 3.905-3.587 3.919-10.372-0.344-12.712l0.063 1.118c2.915 2.216 3.014 7.927-0.305 10.977-6.929 6.364-11.527 16.345-13.185 28.482-2.362 17.286-8.761 28.586-26.177 31.263z" fill="#0f141b"/>
  </g>
  <g transform="matrix(.8142 0 0 -.8142 44.137 14.419)">
   <path d="m0 0c-17.075-2.308-23.775-11.093-28.151-32.198-2.686-12.945-6.177-19.636-13.106-26.342-3.639-3.522-3.833-5.217-3.901-7.714-0.042-1.516-0.596-1.516-0.701-3e-3 -0.219 3.136 0.869 5.278 3.966 8.277 7.443 7.204 10.403 14.11 12.867 25.988 4.402 21.228 11.491 30.145 28.396 32.659z" fill="#0f141b"/>
  </g>
  <g transform="matrix(.8142 0 0 -.8142 19.877 78.872)">
   <path d="m0 0c-4.274-2.458-9.859-2.368-12.564 0.932-3.44 4.198-3.299 12.328 3.088 19.133 6.54 6.968 9.923 13.707 11.815 23.136 1.954 9.732 2.972 13.598 4.959 17.037 0.835 1.444 1.369 1.097 0.527-0.343-1.98-3.386-2.775-6.732-4.7-16.894-1.757-9.27-5.781-16.837-12.011-23.473-6.152-6.555-5.871-14.253-2.849-17.94 2.262-2.761 7.02-3.109 11.223-0.716z" fill="#0f141b"/>
  </g>
  <g transform="matrix(.8142 0 0 -.8142 48.352 39.903)">
   <path d="m0 0c-1.006-11.569-4.797-26.968-12.375-41.578-5.104-9.84-14.564-11.967-20.387-8.773-4.224 2.315-6.427 8.085-1.403 16.592 4.403 7.455 5.777 10.092 8.085 15.814 2.657 6.586 5.035 15.768 6.719 26.65 0.254 1.64 0.866 1.545 0.621-0.097-1.634-10.945-3.787-20.061-6.542-26.887-2.424-6.009-4.433-9.578-8.069-15.907-4.322-7.522-3.05-13.032 1.116-15.317 6.143-3.37 14.722 0.013 19.052 8.364 7.381 14.232 11.83 29.9 12.811 44.885z" fill="#0f141b"/>
  </g>
  <g transform="matrix(.8142 0 0 -.8142 57.937 53.65)">
   <path d="m0 0c-7.932 0.037-12.411 7.689-12.576 24.443-0.019 1.84 0.566 1.865 0.627 0.026 0.52-15.721 4.296-23.606 12.012-23.642 7.423 1e-3 11.539 6.884 11 24.149-0.052 1.664 0.518 1.694 0.61 0.034 1.066-19.221-4.255-25.061-11.673-25.01" fill="#0f141b"/>
  </g>
  <g transform="matrix(.8142 0 0 -.8142 67.168 40.29)">
   <path d="m0 0c1.487-19.833 6.533-35.587 12.531-41.643 5.065-5.115 11.148-5.996 15.015-3.329 4.593 3.169 4.779 8.795 0.382 13.644-4.412 4.864-7.3 8.973-8.591 14.607-2.43 10.594-3.788 16.155-4.27 23.326-0.142 2.12 0.447 2.183 0.627 0.067 0.606-7.113 1.881-12.485 4.485-23.178 1.318-5.416 3.631-8.975 8.402-14.236 5.078-5.599 4.378-11.714-0.484-15.069-3.867-2.668-10.312-2.57-16.271 3.448-6.018 6.076-10.615 21.098-12.316 39.336z" fill="#0f141b"/>
  </g>
  <g transform="matrix(.8142 0 0 -.8142 68.76 54.317)">
   <path d="m0 0c-1.73-4.011-6.469-7.964-14.601-8.198-4.893-0.154-11.133 1.371-14.83 5.605l0.321 1.016c3.062-3.715 8.58-5.93 14.496-5.773 8.405 0.243 12.86 4.757 14.32 8.877z" fill="#0f141b"/>
  </g>
  <g transform="matrix(.8142 0 0 -.8142 43.868 73.041)">
   <path d="m0 0c-2.083-0.033-4.381 0.451-6.231 1.343l0.447 0.885c1.971-0.939 4.414-1.484 6.668-1.244z" fill="#0f141b"/>
  </g>
  <g transform="matrix(.8142 0 0 -.8142 76.28 73.616)">
   <path d="m0 0c-5.551 0.305-10.601 5.848-13.186 14.358-0.479 1.576 0.078 1.764 0.608 0.206 2.377-6.986 6.797-12.742 11.804-13.484z" fill="#0f141b"/>
  </g>
  <g transform="matrix(.8142 0 0 -.8142 68.949 68.22)">
   <path d="m0 0c0.856-3.621-0.892-6.403-5.771-6.457l-0.856 0.999c5.355-0.245 7.029 2.706 4.93 7.664z" fill="#0f141b"/>
  </g>
  <g transform="matrix(.8142 0 0 -.8142 51.468 67.894)">
   <path d="m0 0c-1.425-1.919-4.007-2.856-6.392-1.848-2.186 0.924-2.944 4.005-0.157 6.263 2.124 1.722 3.416 3.467 3.564 6.432l0.69-0.327c-0.125-3.274-1.686-5.031-3.778-6.791-1.83-1.538-1.689-4.044 0.022-4.768 1.642-0.693 3.933-0.348 5.694 1.811z" fill="#0f141b"/>
  </g>
  <g transform="matrix(.8142 0 0 -.8142 50.985 67.41)">
   <path d="M 0,0 C -0.38,1.02 0.104,1.214 0.548,0.221 1.832,-2.655 7.036,-3.332 8.769,0.146 9.244,1.103 9.701,0.891 9.305,-0.102 7.659,-4.224 1.45,-3.9 0,0" fill="#0f141b"/>
  </g>
  <g transform="matrix(.8142 0 0 -.8142 59.389 60.385)">
   <path d="m0 0c0.36-2.12 1.255-3.636 3.1-5.32 1.878-1.715 2.325-2.991 1.773-4.389-0.727-1.841-5.056-2.322-6.519 0.482l0.453 0.814c1.306-2.825 4.771-2.184 5.255-0.959 0.32 0.813 0.253 1.802-1.539 3.439-1.911 1.745-2.891 3.491-3.254 5.799z" fill="#0f141b"/>
  </g>
  <g transform="matrix(.8142 0 0 -.8142 45.632 79.647)">
   <path d="m0 0c-3.141-1.466-7.495-1.04-8.364 1.243-0.573 1.504-0.233 3.435 2.61 4.882 2.735 1.392 5.092 3.759 6.776 6.839l0.802-0.215c-1.743-3.24-4.354-5.969-7.23-7.433-2.232-1.135-2.573-2.525-2.116-3.725 0.668-1.758 4.487-2.186 7.321-0.771z" fill="#0f141b"/>
  </g>
  <g transform="matrix(.8142 0 0 -.8142 59.361 81.385)">
   <path d="m0 0c-1.922 0.91-3.09 1.238-4.266 1.219-1.723-0.027-3.153-0.531-5.444-1.464-2.236-0.911-5.102-0.894-6.785 0.861-1.234 1.285-1.576 3.764 0.306 5.359 1.015 0.861 1.398 0.45 0.472-0.506-1.291-1.333-1.146-3.083-0.063-4.214 1.294-1.348 3.728-1.505 5.789-0.706 2.255 0.874 3.924 1.44 5.746 1.469 1.441 0.024 2.553-0.375 4.591-1.263 1.854-0.807 4.001-0.614 4.854 0.649 0.809 1.194 0.646 2.43-0.347 3.897-0.785 1.159-0.403 1.492 0.539 0.457 1.393-1.534 1.546-3.505 0.584-4.929-0.984-1.452-3.716-1.899-5.976-0.829" fill="#0f141b"/>
  </g>
  <g transform="matrix(.8142 0 0 -.8142 61.546 69.115)">
   <path d="m0 0c1.441-3.124 3.562-5.453 6.38-7.093 2.127-1.238 2.771-2.453 2.402-3.954-0.424-1.724-2.931-2.669-5.443-2.035l0.117 0.8c2.252-0.547 4.158 0.253 4.458 1.473 0.249 1.013-0.062 1.878-2.004 3.008-2.877 1.674-5.155 4.346-6.756 7.73z" fill="#0f141b"/>
  </g>
  <g transform="matrix(.8142 0 0 -.8142 23.359 20.331)">
   <path d="m0 0c-0.392 1.069-0.279 2.163 0.26 2.595 0.818 0.656 3.982 0.178 8.117-2.053l-0.537-0.563c-4.115 2.153-6.635 2.271-7.016 1.974-0.362-0.284-0.33-1.228 0.175-2.239z" fill="#0f141b"/>
  </g>
  <g transform="matrix(.8142 0 0 -.8142 14.586 38.611)">
   <path d="m0 0c-1.622 0.588-2.326 1.909-2.182 2.655 0.251 1.311 3.154 2.096 11.188 0.496l-0.169-0.679c-8.192 1.63-10.052 0.612-10.16 0.043-0.101-0.522 0.511-1.534 2.366-2.074z" fill="#0f141b"/>
  </g>
  <g transform="matrix(.8142 0 0 -.8142 60.878 44.514)">
   <path d="m0 0c1.577 0.917 2.274 3.734 0.943 5.346-1.33 1.607-5.531 0.919-6.396-2.24-0.416-1.519-0.889-1.417-0.577 0.128 0.747 3.717 5.929 4.761 7.687 2.638 1.533-1.851 0.757-5.317-1.369-6.402-1.366-0.698-1.713-0.298-0.288 0.53" fill="#0f141b"/>
  </g>
  <g transform="matrix(.8142 0 0 -.8142 81.957 21.655)">
   <path d="m0 0c1.965 1.847 2.367 3.252 2.002 3.723-0.726 0.936-4.785 0.646-11.149-2.435l-0.522 0.513c6.064 2.99 11.134 4.04 12.389 2.423 0.572-0.74 0.114-2.606-1.941-4.53z" fill="#0f141b"/>
  </g>
  <g transform="matrix(.8142 0 0 -.8142 8.3482 74.021)">
   <path d="m0 0c-4.357-0.538-7.727-0.35-8.145 0.774-0.435 1.167 2.428 4.319 6.59 7.244l-1e-3 -0.978c-3.938-2.792-5.888-5.341-5.685-5.888 0.178-0.477 2.53-0.891 7.145-0.29z" fill="#0f141b"/>
  </g>
  <g transform="matrix(.8142 0 0 -.8142 95.035 68.533)">
   <path d="m0 0c3.444-2.36 5.826-4.63 5.621-5.508-0.297-1.277-5.171-1.806-8.717-1.134l0.241 0.794c3.89-0.627 7.401 0.035 7.525 0.583 0.094 0.418-1.894 2.284-4.843 4.35z" fill="#0f141b"/>
  </g>
  <g transform="matrix(.8142 0 0 -.8142 54.072 52.303)">
   <path d="m0 0c-0.704-1.348-1.454-2.337-2.463-3.369-0.931-0.952-1.383-0.636-0.43 0.406 0.992 1.083 1.588 2.013 2.251 3.352z" fill="#0f141b"/>
  </g>
  <g transform="matrix(.8142 0 0 -.8142 52.418 54.293)">
   <path d="m0 0c-2.591-1.517-6.732-0.907-7.974 2.325l0.33 1.284c0.838-3.782 5.7-4.743 8.655-2.069z" fill="#0f141b"/>
  </g>
  <g transform="matrix(.8142 0 0 -.8142 50.172 47.482)">
   <path d="m0 0c-1.315-0.282-3.007-0.676-4.091-0.979l0.174 0.859c1.136 0.304 2.451 0.594 3.661 0.866z" fill="#0f141b"/>
  </g>
  <g transform="matrix(.8142 0 0 -.8142 49.863 48.965)">
   <path d="m0 0c-0.178-0.031-0.314-0.323-0.263-1.294 0.049-0.929 0.273-1.211 0.479-1.208 0.154 2e-3 0.358 0.25 0.263 1.236-0.1 1.035-0.291 1.299-0.479 1.266m0.226-3.094c-0.55-9e-3 -1.08 0.47-1.148 1.773-0.071 1.32 0.347 1.858 0.857 1.909 0.484 0.038 1.054-0.264 1.203-1.803 0.126-1.308-0.348-1.87-0.912-1.879" fill="#0f141b"/>
  </g>
  <g transform="matrix(.8142 0 0 -.8142 51.858 50.394)">
   <path d="m0 0c-0.076-2.065-1.072-3.11-2.067-3.195-1.134-0.099-2.433 0.924-2.677 3.795-0.088 1.04 0.033 2.046 0.321 2.833l0.796 0.168c-0.359-0.694-0.513-1.814-0.417-2.949 0.201-2.365 1.136-3.265 1.901-3.196 0.883 0.075 1.656 1.202 1.459 3.519z" fill="#0f141b"/>
  </g>
  <g transform="matrix(.8142 0 0 -.8142 64.792 49.769)">
   <path d="m0 0c-0.032-0.744 0.101-1.007 0.268-1.016 0.166-9e-3 0.391 0.185 0.47 1.215 0.05 0.646-9e-3 1.04-0.132 1.202l0.324 0.521c0.284-0.21 0.534-0.689 0.453-1.746-0.112-1.447-0.706-1.814-1.163-1.781-0.367 0.025-0.749 0.335-0.849 1.096z" fill="#0f141b"/>
  </g>
  <g transform="matrix(.8142 0 0 -.8142 66.511 47.183)">
   <path d="m0 0c0.403-0.735 0.631-1.769 0.607-2.954-0.062-3.316-1.278-4.033-2.462-3.943-1.009 0.083-1.653 0.852-1.915 1.999l0.538 0.579c0.145-1.078 0.745-1.861 1.423-1.917 1.081-0.084 1.684 1.183 1.724 3.287 0.026 1.382-0.328 2.458-0.781 3.003z" fill="#0f141b"/>
  </g>
  <g transform="matrix(.8142 0 0 -.8142 65.959 46.641)">
   <path d="m0 0c0.744-0.277 1.306-0.498 2.021-0.835l0.113-0.906c-0.883 0.427-1.512 0.712-2.357 1.026z" fill="#0f141b"/>
  </g>
  <g transform="matrix(.8142 0 0 -.8142 62.309 52.111)">
   <path d="m0 0c0.516-1.173 1.077-2.134 1.768-2.925 0.779-0.892 0.325-1.204-0.438-0.398-0.761 0.806-1.402 1.765-1.935 2.947z" fill="#0f141b"/>
  </g>
  <g transform="matrix(.8142 0 0 -.8142 68.255 51.379)">
   <path d="m0 0c-1.068-4.5-3.963-4.96-6.052-3.755l-0.681 1.358c2.471-2.266 5.637-1.388 6.289 4.191z" fill="#0f141b"/>
  </g>
  <g transform="matrix(.8142 0 0 -.8142 45.46 14.59)">
   <path d="m0 0c-1.886 4.162-2.564 9.665-0.837 10.563 2.378 1.237 7.7-3.065 10.498-7.834 4.03 5.834 8.173 8.624 9.794 7.711 1.354-0.762 1.562-5.669-0.492-9.974-0.503-1.054-1.06-0.809-0.624 0.276 1.914 4.77 1.331 8.463 0.64 8.851-0.838 0.473-4.637-1.325-8.87-7.505-0.346-0.505-0.609-0.477-0.896-5e-3 -3.127 5.142-7.992 8.437-9.548 7.625-0.908-0.473-0.893-4.988 0.959-9.47 0.518-1.255-0.08-1.439-0.624-0.238" fill="#0f141b"/>
  </g>
  <g transform="matrix(.8142 0 0 -.8142 44.365 9.2003)">
   <path d="m0 0c-1.901 1.191-3.189 1.127-3.38 0.932-0.487-0.502 0.633-4.152 3.157-6.884 0.923-0.999 0.444-1.335-0.497-0.465-2.623 2.428-4.377 6.985-3.372 8.022 0.508 0.526 2.311 0.333 4.07-0.668z" fill="#0f141b"/>
  </g>
  <g transform="matrix(.8142 0 0 -.8142 56.498 8.8564)">
   <path d="m0 0c-1.48 4.547-4.169 7.484-4.839 7.509-0.827 0.036-3.046-1.68-4.868-5.87l-0.757 0.505c1.792 4.026 4.235 6.378 5.678 6.304 1.336-0.049 4.103-3.72 5.525-7.974z" fill="#0f141b"/>
  </g>
  <g transform="matrix(.8142 0 0 -.8142 25.002 78.61)">
   <path d="m0 0c0.33-1.065 0.205-2.29-1.124-3.123-2.553-1.599-8.681-3.864-9.262-3.336-0.584 0.529 1.251 4.54 2.791 7.401 0.647 1.2 1.021 1.765 1.704 1.873 2.673 0.423 5.284-0.857 5.891-2.815" fill="#a2d7d5"/>
  </g>
  <g transform="matrix(.8142 0 0 -.8142 22.885 43.802)">
   <path d="m0 0c-6.976 0.947-11.382 3.712-11.057 5.431 0.357 1.883 5.161 2.396 12.867 0.853 4.344-0.869 3.47-7-1.81-6.284" fill="#a2d7d5"/>
  </g>
  <g transform="matrix(.8142 0 0 -.8142 27.476 28.143)">
   <path d="m0 0c-5.728 2.928-10.553 7.914-9.797 9.488 0.686 1.429 4.544 0.94 12.876-3.584 3.004-1.631 0.6-7.785-3.079-5.904" fill="#a2d7d5"/>
  </g>
  <g transform="matrix(.8142 0 0 -.8142 12.946 78.241)">
   <path d="m0 0c0.172-1.128-0.396-1.448-1.682-2.07-3.291-1.592-7.464-2.139-7.918-1.638-0.597 0.663 1.116 3.71 3.605 7.219 0.503 0.708 0.918 1.075 1.564 1.021 1.555-0.129 4.096-2.327 4.431-4.532" fill="#8dbcb9"/>
  </g>
  <g transform="matrix(.8142 0 0 -.8142 49.941 56.878)">
   <path d="m0 0c-0.234 0.148-0.45 0.257-0.674 0.32-0.19-1.527-0.198-4.209 0.149-4.391 0.354-0.186 2.217 0.712 3.73 2.47-1.083 0.408-2.16 0.936-3.205 1.601" fill="#fff"/>
  </g>
  <g transform="matrix(.8142 0 0 -.8142 61.515 58.284)">
   <path d="M 0,0 C 1.287,-1.158 2.781,-2.12 3.167,-1.919 3.547,-1.721 3.543,0.436 3.38,2.345 3.033,2.17 2.111,0.754 0,0" fill="#fff"/>
  </g>
  <g transform="matrix(.8142 0 0 -.8142 60.403 58.661)">
   <path d="m0 0c-1.299 1.435-2.438 2.393-2.924 2.417-0.654 0.033-2.307-1.328-3.493-2.692 2.294-0.376 4.51-0.247 6.417 0.275" fill="#fff"/>
  </g>
  <g transform="matrix(.8142 0 0 -.8142 19.487 20.413)">
   <path d="m0 0c-0.613-1.278 2.438-4.828 6.683-7.666 2.197 0.729 3.512 3.276 2.824 5.832-5.995 2.908-8.922 3.052-9.507 1.834" fill="#d2cee6"/>
  </g>
  <g transform="matrix(.8142 0 0 -.8142 13.92 39.394)">
   <path d="m 0,0 c -0.281,-1.486 2.987,-3.681 8.372,-4.921 1.863,1.283 2.557,4.036 1.701,6.244 C 4.005,2.194 0.312,1.644 0,0" fill="#d2cee6"/>
  </g>
  <g transform="matrix(.8142 0 0 -.8142 35.42 39.379)">
   <path d="m0 0c-4.441 1-8.693 0.132-8.927-1.668-0.253-1.947 2.832-3.849 6.622-4.8 2.173 0.801 3.363 3.771 2.305 6.468" fill="#d2cee6"/>
  </g>
  <g transform="matrix(.8142 0 0 -.8142 41.346 24.294)">
   <path d="m0 0c-3.464 2.279-7.813 2.756-8.619 1.08-0.758-1.58 1.517-5.197 4.626-7.088 2.932 0.034 5.121 2.793 3.993 6.008" fill="#d2cee6"/>
  </g>
  <g transform="matrix(.8142 0 0 -.8142 63.537 22.639)">
   <path d="m0 0c-1.673 1.434-5.173 0.25-7.689-2.81-0.182-3.171 1.866-5.047 4.742-5.183 3.887 2.593 4.078 7.023 2.947 7.993" fill="#d2cee6"/>
  </g>
  <g transform="matrix(.8142 0 0 -.8142 82.926 22.191)">
   <path d="m0 0c-0.956 1.369-4.761 0.972-8.894-0.942-1.044-2.314 0.016-5.573 3.098-6.154 4.858 2.962 6.614 5.925 5.796 7.096" fill="#d2cee6"/>
  </g>
  <g transform="matrix(.8142 0 0 -.8142 84.58 39.366)">
   <path d="m0 0c-0.375 1.497-4.89 1.976-9.366 0.583-0.996-2.206 0.162-5.771 2.737-6.315 4.423 1.37 7.123 3.757 6.629 5.732" fill="#d2cee6"/>
  </g>
  <g transform="matrix(.8142 0 0 -.8142 8.0683 75.423)">
   <path d="m0 0c-2.67-3.434-4.187-6.537-3.59-7.197 0.611-0.677 6.044 0.313 8.715 2.073-0.576 3.084-3.031 5.179-5.125 5.124" fill="#b6b1c7"/>
  </g>
  <g transform="matrix(.8142 0 0 -.8142 19.239 77.101)">
   <path d="m0 0c-1.487-2.174-3.822-7.932-3.356-8.354 0.539-0.49 5.249 0.983 8.66 2.984 1.47 3.65-1.615 6.639-5.304 5.37" fill="#d2cee6"/>
  </g>
  <g transform="matrix(.8142 0 0 -.8142 87.15 78.898)">
   <path d="m0 0c3.617-1.729 7.196-2.806 7.668-2.36 0.467 0.442-1.169 6.888-3.784 8.619-4.18 0.233-5.699-3.431-3.884-6.259" fill="#d2cee6"/>
  </g>
  <g transform="matrix(.8142 0 0 -.8142 90.18 39.332)">
   <path d="m0 0c-0.293 1.694-4.215 1.965-8.359 1.019 1.809-0.494 1.992-1.994 0.815-3.446 0.323-0.811 0.759-1.519 1.292-1.942 3.504 1.271 6.48 3.058 6.252 4.369" fill="#d2cee6"/>
  </g>
  <g transform="matrix(.8142 0 0 -.8142 84.038 41.308)">
   <path d="m0 0c-0.554-0.683-1.404-1.356-2.532-1.909-0.939-0.46-1.033-1.39 0.3-1.082 1.169 0.271 2.375 0.633 3.524 1.049-0.533 0.423-0.969 1.13-1.292 1.942" fill="#fff"/>
  </g>
  <g transform="matrix(.8142 0 0 -.8142 9.6841 74.596)">
   <path d="m0 0c0.646-0.178 0.811-1.18-0.183-1.795-1.404-0.871-4.14-4.043-5.146-6.357-0.586 0.455 0.809 3.891 3.719 7.491 0.5 0.619 1.078 0.807 1.61 0.661" fill="#fff"/>
  </g>
  <g transform="matrix(.8142 0 0 -.8142 9.6841 74.596)">
   <path d="m0 0c-0.532 0.146-1.11-0.042-1.61-0.661-0.098-0.12-0.189-0.239-0.282-0.359 0.647-1e-3 1.324-0.204 1.968-0.576 0.30956 0.27541 0.44289 0.59322 0.44318 0.87424 3.4665e-4 0.34446-0.19921 0.63365-0.51918 0.72176" fill="#8dbcb9"/>
  </g>
  <g transform="matrix(.8142 0 0 -.8142 5.3451 81.234)">
   <path d="m 0,0 c 1.006,2.314 3.742,5.487 5.146,6.357 0.101,0.062 0.181,0.13 0.259,0.2 C 4.761,6.929 4.084,7.131 3.438,7.132 0.724,3.667 -0.566,0.44 0,0" fill="#d2cee6"/>
  </g>
  <g transform="matrix(.8142 0 0 -.8142 50.296 57.111)">
   <path d="m0 0c-0.396-1.148-0.687-2.538-0.81-3.825-0.333 0.266-0.618 2.874-0.271 4.436 0.417-0.165 0.647-0.275 1.081-0.611" fill="#dcdddd"/>
  </g>
  <g transform="matrix(.8142 0 0 -.8142 63.479 57.226)">
   <path d="m0 0c0.259-0.938 0.475-1.991 0.609-3.273 0.355 0.176 0.633 2.351 0.361 4.259-0.393-0.42-0.631-0.694-0.97-0.986" fill="#dcdddd"/>
  </g>
  <g transform="matrix(.8142 0 0 -.8142 55.806 58.283)">
   <path d="m0 0c1.52-0.315 3.404-0.224 4.99 0.173l0.473-0.58c-1.628-0.645-4.503-0.675-6.116-0.299z" fill="#dcdddd"/>
  </g>
  <g transform="matrix(.8142 0 0 -.8142 28.591 26.417)">
   <path d="m0 0c-0.84 0.374-1.654 0.778-2.455 1.204-0.502-0.672-1.18-1.189-1.976-1.469 1.268-0.843 2.649-1.676 4.107-2.406 1.302 0.127 1.686 2.066 0.324 2.671" fill="#8dbcb9"/>
  </g>
  <g transform="matrix(.8142 0 0 -.8142 26.592 25.437)">
   <path d="m0 0c-2.993 1.595-5.738 3.591-8.432 6.292-0.901-1.496 2.028-4.817 6.456-7.761 0.796 0.28 1.474 0.797 1.976 1.469" fill="#b6b1c7"/>
  </g>
  <g transform="matrix(.8142 0 0 -.8142 25.018 78.185)">
   <path d="m0 0c-0.337 0.992-1.795 0.659-1.645-0.525 0.015-0.109 9e-3 -0.222-9e-3 -0.336 0.314-0.868 0.32-1.902-0.082-3.003 7e-3 5e-3 0.016 0.01 0.025 0.015 1.915 1.163 2.235 2.308 1.711 3.849" fill="#8dbcb9"/>
  </g>
  <g transform="matrix(.8142 0 0 -.8142 23.671 78.885)">
   <path d="m0 0c-0.297-1.831-4.615-4.295-8.721-5.933 0.249-0.708 5.347 0.938 8.639 2.93 0.402 1.101 0.396 2.135 0.082 3.003" fill="#b6b1c7"/>
  </g>
  <g transform="matrix(.8142 0 0 -.8142 87.082 75.135)">
   <path d="m0 0c-0.35 0.835-1.396 1.004-1.88 0.01-0.61-1.256 0.103-3.498 1.93-4.569-0.956 1.537-0.936 3.303-0.05 4.559" fill="#8dbcb9"/>
  </g>
  <g transform="matrix(.8142 0 0 -.8142 93.436 80.727)">
   <path d="m0 0c-3.776 1.68-7.491 3.854-7.692 6.403-0.014 0.173-0.055 0.327-0.113 0.465-0.885-1.256-0.906-3.022 0.05-4.558 3e-3 -3e-3 6e-3 -5e-3 9e-3 -7e-3 2.967-1.726 7.562-3.033 7.746-2.303" fill="#b6b1c7"/>
  </g>
  <g transform="matrix(.8142 0 0 -.8142 40.698 28.36)">
   <path d="m0 0c-0.098 0.037-0.187 0.08-0.281 0.118-0.701-0.639-1.62-1.045-2.644-1.117 0.883-0.531 1.861-0.999 2.962-1.347 1.187 0.206 1.271 1.853-0.037 2.346" fill="#8dbcb9"/>
  </g>
  <g transform="matrix(.8142 0 0 -.8142 38.095 29.186)">
   <path d="m0 0c1.133 0.014 2.151 0.437 2.915 1.132-3.294 1.303-5.728 3.304-7.261 6.185-0.454-0.569-0.388-1.68 0.165-2.929 0.8-1.547 2.341-3.268 4.181-4.388" fill="#b6b1c7"/>
  </g>
  <g transform="matrix(.8142 0 0 -.8142 23.475 42.501)">
   <path d="m0 0c-0.685 0.063-1.385 0.157-2.087 0.273-0.309-0.509-0.704-0.957-1.181-1.306 1.438-0.369 2.811-0.63 3.867-0.752 0.98 0.489 0.588 1.675-0.599 1.785" fill="#8dbcb9"/>
  </g>
  <g transform="matrix(.8142 0 0 -.8142 21.776 42.278)">
   <path d="m0 0c-3.631 0.601-7.33 1.869-9.326 3.481-0.12-1.993 4.252-3.788 8.145-4.787 0.477 0.349 0.871 0.796 1.181 1.306" fill="#b6b1c7"/>
  </g>
  <g transform="matrix(.8142 0 0 -.8142 35.815 43.287)">
   <path d="m0 0c-0.26 0.018-0.526 0.045-0.797 0.076-0.414-0.708-0.994-1.275-1.692-1.611 1.248-0.376 1.951-0.527 3.47-0.752 1.082 0.69 0.518 2.181-0.981 2.287" fill="#8dbcb9"/>
  </g>
  <g transform="matrix(.8142 0 0 -.8142 35.166 43.225)">
   <path d="m0 0c-3.06 0.351-6.69 1.499-8.349 3.134 0.112-2.163 2.519-3.661 6.657-4.745 0.698 0.336 1.278 0.903 1.692 1.611" fill="#b6b1c7"/>
  </g>
  <g transform="matrix(.8142 0 0 -.8142 59.567 30.022)">
   <path d="m0 0c0.683 0.284 1.292 0.658 1.845 1.082-1.06 0.063-2.004 0.363-2.762 0.881-0.706-0.698-0.367-1.889 0.917-1.963" fill="#8dbcb9"/>
  </g>
  <g transform="matrix(.8142 0 0 -.8142 63.423 22.837)">
   <path d="m0 0c0.049-3.041-2.314-5.374-5.143-6.527-0.21-0.086-0.377-0.202-0.51-0.334 0.757-0.518 1.702-0.819 2.761-0.882 3.424 2.371 4.249 6.448 2.892 7.743" fill="#b6b1c7"/>
  </g>
  <g transform="matrix(.8142 0 0 -.8142 74.735 28.169)">
   <path d="M 0,0 C -1.102,-0.493 -1.173,-1.939 0.043,-2.06 1.5,-1.439 2.87,-0.594 4.197,0.264 3.461,0.414 2.84,0.715 2.341,1.122 1.584,0.734 0.801,0.359 0,0" fill="#8dbcb9"/>
  </g>
  <g transform="matrix(.8142 0 0 -.8142 82.926 22.191)">
   <path d="m0 0c-1.275-2.3-4.198-4.413-7.719-6.22 0.515-0.42 1.157-0.731 1.923-0.875 4.858 2.961 6.614 5.924 5.796 7.095" fill="#b6b1c7"/>
  </g>
  <g transform="matrix(.8142 0 0 -.8142 84.052 41.339)">
   <path d="m0 0c-0.904-0.785-2.068-1.587-3.002-2.073-0.432-0.225-0.326-1.201 0.474-1.058 0.877 0.157 2.276 0.646 3.769 1.26-0.509 0.419-0.926 1.094-1.241 1.871" fill="#a2d7d5"/>
  </g>
  <g transform="matrix(.8142 0 0 -.8142 84.038 41.308)">
   <path d="m0 0c0.323-0.812 0.759-1.519 1.292-1.942 2.968 1.075 6.69 3.018 6.205 4.517-2.091-0.88-4.989-1.862-7.497-2.575" fill="#b6b1c7"/>
  </g>
  <g transform="matrix(.8142 0 0 -.8142 77.49 42.89)">
   <path d="m0 0c-0.428-0.107-0.861-0.211-1.303-0.309-1.468-0.324-1.334-1.651-0.547-1.981 1.353 0.241 2.607 0.562 3.751 0.937-0.781 0.213-1.422 0.706-1.901 1.353" fill="#8dbcb9"/>
  </g>
  <g transform="matrix(.8142 0 0 -.8142 84.469 39.443)">
   <path d="m0 0c-1.477-1.883-4.707-3.263-8.571-4.233 0.479-0.647 1.12-1.14 1.901-1.353 4.196 1.376 6.832 3.533 6.67 5.586" fill="#b6b1c7"/>
  </g>
  <g transform="matrix(.8142 0 0 -.8142 27.33 28.378)">
   <path d="m0 0c-5.669 2.768-11.004 7.977-10.045 9.972 0.789 1.646 4.898 1.378 13.435-3.475 1.461-0.83 1.18-1.391-0.297-0.588-8.61 4.673-11.868 4.687-12.35 3.684-0.561-1.167 3.696-5.992 9.572-9.004 1.512-0.775 1.11-1.285-0.315-0.589" fill="#0f141b"/>
  </g>
  <g transform="matrix(.8142 0 0 -.8142 22.875 44.087)">
   <path d="m0 0c-7.31 0.971-11.852 3.785-11.459 5.858 0.367 1.944 4.967 2.785 13.377 1.083 1.804-0.365 1.682-0.984-0.129-0.651-7.549 1.387-12.054 0.99-12.357-0.614-0.233-1.233 3.517-3.887 10.662-5.014 1.825-0.287 1.592-0.886-0.094-0.662" fill="#0f141b"/>
  </g>
  <g transform="matrix(.8142 0 0 -.8142 35.626 45.32)">
   <path d="m0 0c-4.846 0.479-9.995 2.853-9.628 5.677 0.312 2.405 6.036 3.227 11.094 1.491 1.673-0.574 1.48-1.163-0.203-0.622-5.197 1.669-9.827 0.383-10.003-0.972-0.24-1.849 3.848-4.231 8.815-4.9 1.688-0.227 1.472-0.826-0.075-0.674" fill="#0f141b"/>
  </g>
  <g transform="matrix(.8142 0 0 -.8142 39.704 30.214)">
   <path d="M 0,0 C -4.501,1.321 -8.065,6.333 -7.011,8.531 -5.802,11.048 1.122,9.43 4.34,5.75 5.621,4.285 5.254,3.897 3.884,5.279 0.233,8.959 -5.425,9.825 -6.22,8.171 -6.966,6.616 -4.056,2.029 0.177,0.636 1.834,0.091 1.549,-0.455 0,0" fill="#0f141b"/>
  </g>
  <g transform="matrix(.8142 0 0 -.8142 60.388 29.318)">
   <path d="m0 0c4.168 2.353 4.619 6.966 3.594 7.846-1.721 1.474-6.067-0.227-8.473-4.537-0.716-1.282-1.188-1.025-0.519 0.282 2.49 4.865 7.385 6.764 9.517 4.934 1.527-1.311 1.063-6.578-3.84-9.046-1.533-0.772-1.873-0.378-0.279 0.521" fill="#0f141b"/>
  </g>
  <g transform="matrix(.8142 0 0 -.8142 75.379 29.211)">
   <path d="m0 0c7.573 3.738 9.593 7.389 8.917 8.355-0.976 1.396-6.655 0.854-12.769-3.506-1.19-0.849-1.509-0.412-0.349 0.478 5.729 4.393 12.404 5.581 13.86 3.497 1.192-1.706-1.747-5.912-9.408-9.359-1.289-0.581-1.626-0.144-0.251 0.535" fill="#0f141b"/>
  </g>
  <g transform="matrix(.8142 0 0 -.8142 76.874 44.351)">
   <path d="m0 0c6.325 1.309 9.475 4.257 9.034 6.018-0.268 1.073-5.197 1.907-10.674-0.277-1.563-0.623-1.766-0.162-0.239 0.541 5.662 2.609 11.366 1.801 11.802-0.103 0.609-2.657-3.31-5.719-9.818-6.761-1.495-0.239-1.73 0.246-0.105 0.582" fill="#0f141b"/>
  </g>
  <g transform="matrix(.8142 0 0 -.8142 4.8322 81.543)">
   <path d="M 0,0 C -0.72,0.796 0.556,3.524 3.625,7.77 4.135,8.475 4.562,8.779 5.443,8.679 6.544,8.551 6.533,7.967 5.43,8.029 4.923,8.058 4.746,7.918 4.309,7.3 0.86,2.439 0.567,0.819 0.778,0.628 1.095,0.343 4.632,0.661 8.104,2.341 9.495,3.014 9.47,3.346 9.364,3.991 9.206,4.965 9.668,5.125 9.973,4.188 10.338,3.064 10.015,2.331 8.467,1.573 5.545,0.143 0.714,-0.791 0,0" fill="#0f141b"/>
  </g>
  <g transform="matrix(.8142 0 0 -.8142 16.229 84.206)">
   <path d="m0 0c-0.901 0.817 1.685 5.984 2.755 7.974 0.652 1.211 1.049 1.754 2.014 1.988 1.191 0.289 1.301-0.263 0.14-0.625-0.552-0.172-0.837-0.666-1.414-1.742-2.159-4.024-3.036-6.679-2.804-6.893 0.369-0.342 5.975 1.703 8.686 3.402 1.096 0.686 1.344 1.578 1.033 2.632-0.35 1.192 0.219 1.381 0.616 0.205 0.541-1.602 0.208-2.712-1.229-3.613-2.36-1.478-9.008-4.043-9.797-3.328" fill="#0f141b"/>
  </g>
  <g transform="matrix(.8142 0 0 -.8142 86.925 79.158)">
   <path d="m0 0c-2.109 1.012-2.567 3.552-1.758 4.905 0.583 0.974 0.956 0.778 0.526-0.273-0.478-1.164-0.095-3.069 1.603-3.885 3.844-1.846 7.003-2.687 7.193-2.452 0.234 0.289-0.635 3.993-2.112 6.233-0.877 1.33-1.275 1.781-2.12 2.102-1.108 0.422-1.038 0.858 0.11 0.58 1.018-0.245 1.778-0.813 2.71-2.166 1.392-2.014 2.762-6.853 2.109-7.471-0.563-0.53-4.384 0.564-8.261 2.427" fill="#0f141b"/>
  </g>
  <g transform="matrix(.8142 0 0 -.8142 49.804 57.111)">
   <path d="m0 0c-0.506 0.328-0.855 0.434-1.475 0.256-1.074-0.309-1.242 0.168-0.195 0.558 0.733 0.273 1.295 0.236 2.015-0.221 6.411-4.071 14.03-2.97 16.999 0.404 0.411 0.466 1.026 0.538 1.667 0.402 0.963-0.204 0.888-0.761-0.078-0.586-0.519 0.095-0.824 0.012-1.115-0.332-3.033-3.583-11.195-4.773-17.818-0.481" fill="#0f141b"/>
  </g>
  <g transform="matrix(.8142 0 0 -.8142 52.88 58.273)">
   <path d="m0 0c-1.578-1.875-3.765-2.981-4.333-2.685-0.54 0.284-0.571 2.839-0.346 4.794l0.753-0.192c-0.196-1.501-0.241-3.768-1e-3 -3.915 0.202-0.123 1.813 0.75 3.141 2.254z" fill="#0f141b"/>
  </g>
  <g transform="matrix(.8142 0 0 -.8142 60.072 58.729)">
   <path d="m0 0c-1.439 1.573-2.269 2.114-2.535 2.119-0.464 7e-3 -1.85-1.02-3.067-2.388l-0.834 0.174c1.167 1.404 3.018 3.018 3.921 3.017 0.684-2e-3 2.117-1.405 3.311-2.722z" fill="#0f141b"/>
  </g>
  <g transform="matrix(.8142 0 0 -.8142 64.564 56.235)">
   <path d="m0 0c0.152-1.675 0.162-4.513-0.429-4.79-0.497-0.233-2.286 0.778-3.717 2.116l0.778 0.33c1.198-1.081 2.364-1.818 2.594-1.726 0.17 0.068 0.233 1.723 0.056 3.627z" fill="#0f141b"/>
  </g>
  <g transform="matrix(.8142 0 0 -.8142 82.935 38.326)">
   <path d="m0 0c4.967 1.273 8.975 0.782 9.316-1.174 0.325-1.868-4.142-4.29-10.012-5.672-1.14-0.268-1.408 0.227-0.147 0.574 5.581 1.531 9.51 3.798 9.304 4.982-0.181 1.049-3.071 1.722-7.335 0.848z" fill="#0f141b"/>
  </g>
 </g>
</svg>
