<?xml version="1.0" encoding="UTF-8"?>
<!-- Created with Inkscape (http://www.inkscape.org/) -->
<svg version="1.1" viewBox="0 0 367.57 499.83" xmlns="http://www.w3.org/2000/svg" xmlns:cc="http://creativecommons.org/ns#" xmlns:dc="http://purl.org/dc/elements/1.1/" xmlns:rdf="http://www.w3.org/1999/02/22-rdf-syntax-ns#">
 <metadata>
  <rdf:RDF>
   <cc:Work rdf:about="">
    <dc:format>image/svg+xml</dc:format>
    <dc:type rdf:resource="http://purl.org/dc/dcmitype/StillImage"/>
   </cc:Work>
  </rdf:RDF>
 </metadata>
 <g stroke-width="2.4815">
  <path d="m171.81 231.85s-6.2683 9.596-8.1244 12.149c5.8812-0.85115 12.38-1.7817 12.38-1.7817-2.4765-4.5635-4.2558-10.368-4.2558-10.368" fill="#ca6e77"/>
  <path d="m264.25 262.3c-19.743-12.35-44.101-20.261-68.378-18.949 7.5388-12.216 10.358-29.656 8.9111-43.382-3.4915 9.1741-13.946 12.4-20.681 10.474l-0.0273-0.75189c-2.8711 6.2211-6.2782 12.685-11.852 21.319 0.7246 4.4568 2.2656 8.6952 4.0945 11.569-4.4096-0.33748-9.2039 0.58067-13.571 2.6502-12.365 19.098-42.002 50.672-61.109 65.598 21.485 2.4393 45.732-8.9185 53.26-33.039 16.978-0.83378 25.274-8.6828 29.359-22.641 2.5956 14.291 13.909 23.582 30.644 21.046 0.66256 17.874 13.909 30.575 30.969 36.637 18.832 6.6951 42.315 5.3005 58.635-6.1492-6.1144-16.05-20.989-32.329-40.255-44.382" fill="#fcd4db"/>
  <path d="m268.1 151.26c-24.502 11.983-47.498 30.84-62.953 52.871 0.134 10.919-2.3897 28.361-9.6183 39.262 11.934-0.34493 30.982 0.94545 44.409 7.2435 29.939-14.519 53.955-38.292 65.641-65.39-9.8838-15.378-22.775-26.594-37.478-33.987" fill="#f3858e"/>
  <path d="m312.52 137.91c-14.48 1.4467-29.718 6.164-44.414 13.353 14.703 7.3924 27.594 18.609 37.478 33.987 6.5065-15.09 9.2039-31.207 6.9358-47.34" fill="#fff"/>
  <path d="m198.03 69.49c-7.1591-0.79408-60.184 9.9583-72.363 40.379-14.169 5.6429-38.639 10.735-58.276 13.35 2.2582 12.829 12.894 30.972 25.696 37.942 5.9829-3.762 10.713-9.2436 13.035-16.393 7.313 1.3996 14.559 0.9132 20.961-4.968 7.2534 15.477 25.128 30.249 57.871 35.91 30.718 5.3104 67.651-13.105 68.375-37.302 1.0546-35.15-49.136-68.234-55.3-68.919" fill="#fcd4db"/>
  <path d="m249.42 60.96c-0.14145 1.6378-0.35982 3.4443-0.66504 4.6156-7.7745-14.388-17.284-21.549-25.051-22.095-3.3997 10.976-5.5486 24.837-4.7372 39.22 7.2931 5.906 15.197 13.467 21.587 22.008 7.7324-11.246 13.254-25.803 13.427-36.173 0.11415-6.8986-1.9306-9.4074-4.561-7.576" fill="#fcd4db"/>
  <path d="m248.75 65.58c0.30522-1.1688 0.5236-2.9778 0.66504-4.6156 2.4195-20.721-3.7148-40.074-10.122-40.473-4.8861-0.30522-11.259 8.9979-15.594 22.994 7.7671 0.54841 17.276 7.7075 25.051 22.095" fill="#f3858e"/>
  <path d="m203.42 90.08c-5.4022 0.55834-8.6108 7.5041-7.6455 16.398 1.1043 10.194 6.442 14.616 10.621 14.102 4.8414-0.59556 8.7225-7.2485 7.4743-16.482-1.4616-10.807-6.2881-14.447-10.45-14.018" fill="#7eccae"/>
  <path d="m176.15 156.11c5.432-4.7794 2.8388-18.634-6.3378-29.416-9.6456-11.338-21.74-14.378-26.388-12.296-8.2287 3.69-10.308 24.026 0.85115 35.848 9.8813 10.464 28.098 9.1865 31.875 5.8638" fill="#f3858e"/>
  <path d="m162.48 135.58c-1.5013 7.4569-4.4245 10.497-6.5834 10.02-1.5385-0.33997-3.4542-4.8737-1.8611-12.095 1.5261-6.9184 4.9754-10.46 6.6554-10.127 2.3351 0.46156 2.9877 6.2385 1.7892 12.202" fill="#2d3a41"/>
  <path d="m171.93 141.45c-0.76927 3.7471-3.3624 5.3675-5.5114 4.8315-2.072-0.51863-3.2185-3.1143-2.4319-7.0152 0.71963-3.5634 3.0696-5.3948 5.2955-4.9382 2.1515 0.44171 3.4245 3.3327 2.6478 7.1219" fill="#fff"/>
  <path d="m67.391 123.22c-10.482 1.3946-19.589 2.0845-25.014 1.7718-8.1641-0.469-10.06 0.88341-9.4297 8.9756 1.4293 18.455 13.941 30.14 31.349 32.768 10 1.5112 20.579-0.40696 28.79-5.5734-12.8-6.9705-23.438-25.11-25.696-37.942" fill="#fff"/>
  <path d="m296.13 148.92c-15.949-3.4716-32.545-10.68-44.818-24.13 1.4045 4.4617 2.1515 9.0252 2.0125 13.628-0.17618 5.906-2.5212 11.462-6.3948 16.418 5.9829 10.951 17.874 18.882 30.773 22.75 9.9856-6.4618 17.281-19.172 18.428-28.666" fill="#fcd4db"/>
  <path d="m327.86 158.45c1.0422-4.767-0.61045-6.8092-5.1814-6.7844-7.9408 0.0447-17.13-0.70475-26.542-2.7545-1.1464 9.4967-8.4421 22.204-18.428 28.669 21.415 6.4221 45.607 1.6428 50.151-19.13" fill="#fff"/>
  <path d="m100.74 154.18c-3.1689 4.489-8.6852 8.2609-15.159 10.623-7.7348 7.6554-14.097 16.921-17.502 23.842 6.0077 12.283 14.13 24.614 24.502 35.289 5.4618-2.2805 11.574-3.8984 18.318-4.6826 0.0695-20.018 8.0996-35.21 19.467-45.543-9.524-7.3899-19.859-14.455-29.627-19.529" fill="#f3858e"/>
  <path d="m195.87 243.36c-2.3152 3.5684-8.1542 4.5957-11.517 3.0324-2.9728 0.66505-6.7571-0.47893-8.0872-3.7669-3.0721-0.53601-9.323 0.62285-13.522 2.613-3.2061 4.9531-7.5835 10.75-12.628 16.874 4.494 5.9109 13.281 6.7249 22.165 1.5261 6.0573-3.5436 8.9061-9.5712 11.924-8.6877 13.772 19.577 37.213 17.916 41.448 7.5562 2.3996-5.8613-1.0249-14.586-13.11-18.629-5.5238-0.61541-11.1-0.82137-16.673-0.51863" fill="#fff"/>
  <path d="m204.78 199.97c-0.76678-7.2733-2.7296-13.507-5.829-17.363-3.4493 3.2756-7.4172 9.7945-10.981 18.189-1.2929 3.0473-2.5361 5.9432-3.8984 8.8962l0.0248 0.75189c6.7373 1.9256 17.192-1.3003 20.683-10.474" fill="#f3858e"/>
  <path d="m102.3 310.6c-4.8786 3.7843-10.551 8.0748-17.125 13.05-4.6876 6.9904-9.1394 14.991-13.204 23.319-0.0025 21.621 10.45 43.868 29.584 53.687 8.0773-4.8762 16.093-11.04 23.232-18.671 0.4169-13.226 4.3997-52.561 8.9806-77.758-7.6678 4.6776-21.011 8.2634-31.468 6.3725" fill="#f3858e"/>
  <path d="m71.969 346.97c-12.805 26.229-21.743 55.72-21.889 67.326 5.4543 3.5386 28.706 0.11166 51.474-13.636-19.135-9.8193-29.587-32.066-29.584-53.69" fill="#fff"/>
  <path d="m313.58 365.12c-7.8142-17.251-18.117-34.892-29.882-49.873-15.308 3.6329-32.793 0.73949-42.826-4.5337 3.8587 16.978 6.4296 53.117 6.2062 78.167 5.3824 6.0375 11.44 11.358 17.76 15.986 19.043-3.4741 42.324-20.887 48.742-39.746" fill="#f3858e"/>
  <path d="m328.85 427.09c1.7768-14.224-4.2831-37.709-15.271-61.966-6.4172 18.859-29.699 36.272-48.742 39.746 26.301 19.259 57.243 26.411 64.013 22.219" fill="#fff"/>
  <path d="m240.58 310.4c6.9333 30.803 8.5264 84.247 4.6429 128.76-1.479 16.978-3.1267 24.018-13.308 28.939-21.706 10.492-39.617 15.321-50.541 12.07-7.7472-2.3078-9.3974-6.5586-8.4768-12.1 10.852-65.365 22.445-140.27 18.929-198.26 3.1068 4.5014 13.819 7.916 23.066 6.3874-0.01 13.398 11.996 29.897 25.688 34.205" fill="#f3858e"/>
  <path d="m174.53 457.72c-5.6603 3.2036-11.055 3.6131-19.008 0.93304-8.1195-2.7371-15.981-6.2782-24.763-11.35-3.9282-2.2706-4.9332-4.5039-5.571-10.112-3.9778-34.999 2.2011-100.28 8.7498-133.23 9.323-4.6454 18.016-16.078 20.956-26.175 5.4221-0.24814 10.978-1.2432 15.966-3.9481-0.21589 6.6628 3.3699 18.192 9.3428 25.157-2.7495 27.182-0.17371 55.372 6.9135 75.574-3.0845 22.455-9.127 63.221-12.586 83.15" fill="#f3858e"/>
  <path d="m222.19 472.55c-5.5511 16.06-18.944 28.515-23.971 25.81-2.2954-1.2333-2.1291-9.5637-0.92064-17.847 5.4146-0.78415 17.698-4.3625 24.892-7.9631" fill="#7eccae"/>
 </g>
 <g fill="#fcd4db" stroke-width="2.4815">
  <path d="m179.25 313.42c-3.1416 21.713-0.34493 53.697 5.1442 80.406 1.0323-7.1294 1.9654-13.74 2.7222-19.247-5.839-16.641-8.6058-38.704-7.8664-61.159"/>
  <path d="m179.42 427.24c-13.264-57.558-13.921-107.92-7.2857-144.38-0.90823-3.3575-1.3574-6.5288-1.278-9.0203-1.2804 0.69234-2.5981 1.273-3.9431 1.7569-12.388 48.521-7.5115 112.11 7.2981 182.29z"/>
  <path d="m198.18 274.26c-2.8835-1.1862-5.169-2.7396-6.3502-4.4493 3.5163 57.988-8.0773 132.89-18.929 198.26-0.90327 5.4469 0.68986 9.6431 8.1046 11.976 15.47-81.904 23.649-151.88 17.174-205.79"/>
  <path d="m208.71 477.55c10.785-56.429 15.762-143.64 4.097-201.11-2.0572 0.17867-4.1466 0.134-6.1839-0.0943 7.6256 57.603 2.3103 137.98-9.9136 204.14 3.6974-0.59556 7.7125-1.5882 12.001-2.9406"/>
  <path d="m233.49 467.25c9.2014-52.955 7.9706-115.1-0.12408-160.33-2.5832-1.6676-5.0201-3.7247-7.2261-6.04 5.7273 50.667 6.8862 104.64-2.417 170.96 2.6676-1.1613 6.9805-3.1813 9.7672-4.5908"/>
 </g>
 <g stroke-width="2.4815">
  <path d="m136.94 124.05c-2.8339 7.2435-6.1665 12.286-9.854 15.75 3.7123 8.3428 12.06 17.003 20.405 22.673 3.3054-1.2606 8.6604-3.3078 12.44-4.0945-19.237-4.8092-24.564-18.581-22.991-34.329" fill="#fff"/>
  <path d="m225.03 156.26c-3.4245 2.0026-13.936 4.9977-17.79 4.9407-4.5213-0.0695-20.552-5.293-28.483-10.281-0.77423 2.4765-1.7792 4.7992-3.8687 6.4246 16.554 1.3053 21.023 6.7199 19.343 19.033 9.596 1.0844 31.959-2.8612 43.024-12.844-4.566 1.1613-9.0525 0.62037-10.447-0.6179-1.3921-1.2383-2.2433-3.9481-1.7792-6.6554" fill="#fff"/>
  <path d="m234.04 342.99c6.1368 27.13 8.8912 76.981 5.9333 118.61 3.283-4.7744 4.3128-11.561 5.2608-22.435 3.8835-44.508 2.2879-97.952-4.6454-128.76-13.693-4.3054-25.698-20.807-25.688-34.203-9.2461 1.5286-19.956-1.8859-23.066-6.3899 0.51863 8.5314 0.69978 17.435 0.61541 26.614 21.587 7.7596 35.942 21.592 41.59 46.565" fill="#ca6e77"/>
  <path d="m179.54 307.42c0.17122-2.8091 0.38463-5.6156 0.66752-8.4123-5.973-6.9681-9.5612-18.495-9.3428-25.16-4.9878 2.7048-10.546 3.6999-15.968 3.9505-2.9406 10.097-11.633 21.53-20.954 26.172-6.5487 32.949-12.728 98.233-8.7498 133.23 0.63526 5.6057 1.6403 7.8415 5.571 10.112 8.7795 5.0722 16.643 8.6108 24.76 11.348 3.9754 1.3425 7.3105 1.9083 10.36 1.742-6.9581-44.292-8.916-75.671-8.916-108.22 0-22.857 7.7522-38.304 22.572-44.769" fill="#ca6e77"/>
  <path d="m93.086 161.16c-1.9381-1.0546-3.8165-2.3922-5.633-3.9009-20.122 9.5513-50.206-1.8735-54.466-28.011-0.19108 1.2333-0.19108 2.7768-0.04218 4.7173 1.4318 18.452 13.944 30.138 31.351 32.768 10 1.5088 20.579-0.40945 28.79-5.5734" fill="#d1d2d4"/>
  <path d="m106.12 144.77c-2.3227 7.1492-7.0524 12.631-13.035 16.393-1.9381-1.0546-3.8165-2.3897-5.633-3.9009 6.2782-2.9803 11.596-7.9755 14.837-15.236 0.95042-2.1266 2.1142-2.2855 4.2161-1.8165 9.8193 2.1936 22.867-3.3277 31.168-20.649-2.8016 17.738-16.164 29.22-31.552 25.21" fill="#cfb1b9"/>
  <path d="m327.25 156.57c-3.9977 7.7299-10.933 12.447-17.899 15.291 1.9654 1.742 3.0498 2.6205 4.7024 4.1689 5.7893-1.0323 13.269-11.432 13.197-19.46" fill="#d1d2d4"/>
  <path d="m262.84 161.71c-3.1714-2.5659-6.5735-5.8737-9.5587-9.2138-1.0348 1.479-2.8587 3.5014-4.3873 4.8811 2.1192 3.3997 6.5586 9.1691 11.192 11.584 0.39207-2.3177 1.3202-4.6925 2.7545-7.2509" fill="#cfb1b9"/>
  <path d="m198.44 94.77c-2.6825 17.229 8.1492 29.508 14.961 17.127-0.72211 4.8488-4.5411 9.0798-8.4619 8.6654-7.102-0.74693-12.484-15.991-6.499-25.793" fill="#68a991"/>
  <path d="m250.71 60.31c3.7694 5.9209-2.1539 28.964-12.489 41.131l2.2606 3.2284c14.859-21.212 16.259-43.605 10.229-44.359" fill="#cfb1b9"/>
  <path d="m194.79 170.84c13.224 0.84619 25.942-1.479 36.049-6.5338 1.7544 0 3.3029 0 4.9531-0.30771-8.5612 7.3155-24.413 13.068-41.374 12.586 0.20845-1.6502 0.43427-4.0622 0.37223-5.7447" fill="#d1d2d4"/>
  <path d="m141.77 147.2c-3.6528-3.7024-7.5041-8.4793-9.9806-12.504-1.3425 1.8562-2.8885 3.6106-4.5387 5.0548 2.1664 6.5015 12.38 18.366 20.738 22.597 3.1962-1.3425 8.5612-3.1987 12.276-3.9208-7.4271-1.6527-15.427-5.8415-18.495-11.226" fill="#d1d2d4"/>
  <path d="m198.99 176.68c-1.3797 0.12407-3.4319 0-4.6876-0.0422-0.71219 4.4791-2.0944 12.35-4.1888 18.423 2.8066-4.9407 5.8613-9.6307 8.6679-12.561 0.12408-2.4269 0.16626-4.1863 0.20845-5.8191" fill="#68a991"/>
  <path d="m312.15 138.05c-1.9579 4.3153-3.9555 8.4669-5.9903 12.45 2.3996 0.43178 4.7818 0.6427 7.3725 0.78167 0-4.2037-0.45412-9.2287-1.3822-13.231" fill="#d1d2d4"/>
  <path d="m263.9 206.55c-19.951 16.298-40.895 21.271-60.616 15.636-1.0844 6.1913-3.3897 14.172-7.4222 21.17 12.484-0.34741 28.17 0.84619 44.65 7.2634 12.311-6.7497 24.09-13.633 34.81-24.289-4.1019-5.427-8.1517-12.162-11.422-19.78" fill="#ca6e77"/>
  <path d="m86.178 164.56c-0.201 0.0769-0.39456 0.16378-0.59804 0.23822-7.7348 7.6554-14.097 16.921-17.5 23.842 6.0077 12.283 14.13 24.614 24.502 35.289 5.4593-2.2805 11.574-3.8984 18.316-4.6826 0.0273-7.9706 1.335-15.162 3.5932-21.599-0.0298-0.0248-0.0571-0.0546-0.0571-0.0546-9.7771-9.5265-21.249-22.807-28.257-33.034" fill="#ca6e77"/>
  <path d="m85.58 164.8c-8.2138 2.9952-17.974 3.7222-26.465 0.74445 2.1316 7.38 5.1169 15.229 8.9657 23.095 3.4021-6.9184 9.7647-16.187 17.5-23.84" fill="#d1d2d4"/>
  <path d="m145.39 267.99c13.822 7.8763 31.838 0.76927 37.692-12.216-0.402 13.1-14.254 21.852-28.182 22.016-3.9406 18.82-30.793 37.396-52.598 32.808 16.566-14.239 33.766-31.838 43.089-42.607" fill="#cfb1b9"/>
  <path d="m170.86 273.84c0.67745 14.867 9.8764 31.92 21.604 32.912 0.0695-10.154 0.51615-26.597-0.74941-36.937-4.1664-3.8687-7.0673-10.34-7.514-15.102-1.3375 7.2906-6.6678 15.862-13.341 19.127" fill="#68a991"/>
  <path d="m247.08 388.88c5.3848 6.04 11.44 11.358 17.76 15.988 6.7323-1.2283 13.993-4.2037 20.852-8.3651-25.557-27.862-30.709-60.39-13.261-79.718-12.005 0.56082-23.932-2.0621-31.557-6.0698 3.8612 16.978 6.432 53.117 6.2062 78.165" fill="#ca6e77"/>
  <path d="m327.93 427.52c-17.497-8.6778-31.629-19.445-42.243-31.016-6.8614 4.159-14.12 7.1343-20.852 8.3627 25.272 18.505 54.811 25.825 63.095 22.654" fill="#d1d2d4"/>
  <path d="m102.3 310.6c-3.1763 2.4616-6.6951 5.1442-10.574 8.0872 2.7743 18.45 0.29282 40.682-11.023 61.566 4.963 8.6083 11.971 15.847 20.852 20.403 8.0773-4.8762 16.093-11.04 23.232-18.671 0.4169-13.226 4.3997-52.561 8.9806-77.758-7.6678 4.6776-21.011 8.2634-31.468 6.3725" fill="#ca6e77"/>
  <path d="m50.785 414.66c6.5214 2.891 28.865-0.77919 50.769-14.006-8.8813-4.5585-15.889-11.795-20.852-20.405-6.6628 12.296-16.398 24.108-29.917 34.411" fill="#d1d2d4"/>
  <path d="m184.73 210.6c-2.68 10.953-3.3451 23.626-0.31763 35.813 1.6725 0.34741 3.1689-1.4765 2.7793-3.896-1.7495-10.866-0.70723-21.393 1.8586-31.57-1.5162 0.0819-2.9803-0.0372-4.3203-0.34741" fill="#cfb1b9"/>
  <path d="m189.05 210.94c2.417-9.586 6.1814-18.859 10.273-27.803l-0.0298-0.0447c-6.0152 4.2186-12.457 18.869-14.564 27.5 1.34 0.31019 2.8041 0.42682 4.3203 0.34741" fill="#ca6e77"/>
  <path d="m176.26 242.62c1.3301 3.2855 5.1144 4.432 8.0872 3.7669-2.211-11.303-2.3152-28.637 0.78167-37.716-3.819 7.4271-8.8738 15.991-12.896 23.006 0.92808 4.5411 2.072 7.648 4.0275 10.943" fill="#cfb1b9"/>
  <path d="m185.29 255.37c2.2979 9.1865 15.209 18.919 28.319 16.988 3.087-0.4566 4.3526 0.24815 5.0598 2.9555 7.6232 29.205 42.704 44.476 85.83 30.547-21.254 19.604-86.356 13.929-89.657-29.508-15.088 1.8239-29.89-8.2138-29.552-20.984" fill="#cfb1b9"/>
  <path d="m172.7 469.05c-3.9232 1.1961-12.244-3.9878-16.777-10.365 6.4296 3.1217 13.824 1.9926 18.604-0.94297-0.88341 4.4196-1.273 7.2212-1.8264 11.308" fill="#68a991"/>
  <path d="m219.24 479.45c-7.1045 0.11415-20.678 5.1243-22.577 14.671-0.2283-4.7-0.2283-9.1691 0.57323-13.524 6.5313-1.4889 17.763-4.9283 24.639-8.0227-0.91567 2.752-1.2606 4.1267-2.6354 6.8762" fill="#68a991"/>
 </g>
 <g fill="#cfb1b9">
  <g stroke-width="2.4815">
   <path d="m159.97 330.45c1.9232-6.0648 4.767-11.149 8.5016-15.192 0.62534-11.72 1.8785-22.567 3.6677-32.396-0.90823-3.3575-1.3599-6.5288-1.278-9.0227-1.2804 0.69482-2.6006 1.2755-3.9431 1.7594-4.2458 16.626-6.4618 35.024-6.9482 54.851"/>
   <path d="m137.45 301.89c-1.1514 0.7916-2.3227 1.4914-3.5064 2.0795-6.5487 32.947-12.728 98.23-8.7498 133.23 0.65264 5.7372 2.3674 8.2808 6.6182 10.7-3.1887-50.511-1.871-98.362 5.638-146.01"/>
   <path d="m158.25 459.45c-8.8614-69.748-13.852-140.22-0.14393-181.94-1.072 0.11415-2.144 0.201-3.2135 0.25063-1.4343 4.9283-4.2434 10.169-7.8242 14.787-8.0822 39.486-7.9458 102.9-1.6204 162.19 3.3699 1.4666 8.6704 3.5684 12.802 4.7124"/>
   <path d="m200.12 299.59c-0.335-8.7969-0.97275-17.249-1.943-25.336-2.881-1.1862-5.169-2.7371-6.3502-4.4493 0.51863 8.5314 0.69978 17.433 0.61541 26.614 2.6701 0.95786 5.2285 2.015 7.6778 3.1714"/>
   <path d="m239.92 388.57c0.0596-29.356-2.2954-57.834-6.5512-81.626-2.5857-1.6676-5.0226-3.7247-7.2286-6.04 0.97771 8.648 1.8189 17.398 2.5014 26.284 2.2631 4.7 4.0697 9.9409 5.3948 15.8 2.6602 11.762 4.6851 27.8 5.8836 45.583"/>
  </g>
  <path d="m212.81 276.45c-2.0571 0.17866-4.1465 0.13142-6.1863-0.0943 1.1886 8.963 2.0621 18.482 2.6428 28.41 3.0522 2.0596 5.8662 4.3525 8.4345 6.9109-1.0894-12.526-2.6949-24.405-4.891-35.227"/>
 </g>
 <g fill="#0f141b" stroke-width="2.4815">
  <path d="m203.46 91.05c-3.8166 0.39456-7.6008 5.8191-6.5785 15.264 1.0869 10.02 6.107 13.678 9.4421 13.271 3.8314-0.47149 7.5785-5.9556 6.3055-15.36-1.4194-10.507-6.0028-13.504-9.1691-13.174m-8.8416 15.534c-1.0968-10.144 3.0721-16.911 8.6679-17.487 5.3998-0.55586 10.311 4.1267 11.762 14.857 1.3648 10.09-3.1664 16.964-8.5512 17.624-5.0077 0.6179-10.77-4.767-11.879-14.993"/>
  <path d="m128.25 138.79c7.1641 15.348 25.001 30.148 56.874 35.657 31.299 5.4072 66.117-13.819 66.695-36.031 0.89086-34.173-47.809-66.775-53.888-67.715-6.7323-1.0397-57.615 10.058-70.477 38.369l-3.6726 1.5162c11.579-32.255 67.065-42.915 74.343-42.205 6.5784 0.63774 57.777 34.466 56.692 70.12-0.73949 24.358-37.066 44.21-70.097 38.5-32.756-5.6628-51.218-20.261-58.856-36.096z"/>
  <path d="m143.9 115.46c-7.6629 3.4369-8.6456 23.326 1.3003 33.865 9.3751 9.931 26.54 9.2287 30.272 5.9457 3.9654-3.489 3.7818-15.619-6.5363-27.746-8.725-10.254-20.594-14.055-25.036-12.065m-0.58812 35.729c-11.728-12.425-9.4744-33.944-0.39952-38.012 5.4047-2.4195 18.264 1.5336 27.756 12.69 10.092 11.862 11.792 26.068 6.0598 31.145-3.9406 3.4915-23.004 5.2062-33.416-5.8241"/>
  <path d="m224.9 157.73c-3.5634 1.7644-14.363 4.5858-17.547 4.5461-3.9158-0.0521-21.666-5.4866-28.939-10.097l0.40697-2.283c6.9879 4.3947 23.847 9.9781 28.515 10.04 4.4965 0.0571 13.817-2.6924 17.854-4.896z"/>
  <path d="m217.55 81.78c-1.5906-31.359 11.752-63.315 21.778-62.653 8.5984 0.53848 15.648 27.88 9.0897 51.732-1.407 5.1218-2.7966 4.6975-1.5485-0.46404 6.0226-24.892-1.8983-48.216-7.6852-48.575-6.7373-0.4293-21.026 26.527-18.998 61.643z"/>
  <path d="m239.77 103.7c7.6579-11.209 12.966-25.093 13.135-35.15 0.12407-7.5735-1.8735-7.9557-3.5014-6.6157l0.0596-1.9926c2.3723-1.5137 5.7174-0.13648 5.571 8.6083-0.17371 10.412-5.8241 25.748-13.755 37.22z"/>
  <path d="m136.74 127.37c-7.6827 18.854-20.055 20.636-29.867 18.653-5.8812 17.586-25.813 24.713-42.838 22.14-18.388-2.7768-31.138-15.698-32.282-34.101-0.51863-8.3329 1.6626-10.718 10.67-10.204 15.931 0.90575 62.174-6.6157 83.957-15.358 5.7198-2.2979 6.2484-0.51367 0.59556 1.9381-21.631 9.3801-69.499 16.532-84.651 15.658-7.5065-0.42682-8.8242 1.3226-8.3205 7.787 1.2929 16.571 12.559 28.746 30.527 31.46 17.142 2.5857 34.818-4.69 40.404-20.656 0.34741-0.99012 0.69731-1.1514 1.9554-0.94049 13.179 2.1986 23.162-3.1044 30.45-24.264z"/>
  <path d="m249.72 156.6c13.249 23.718 69.621 34.974 76.917 1.613 0.85612-3.9257 0.0472-5.3203-3.8711-5.3203-24.683 0.27296-54.66-7.7894-71.301-26.252l-0.64519-4.1242c18.093 20.847 47.198 27.994 72.006 27.939 5.3129 0 7.3105 2.7073 6.1516 8.2808-7.447 35.801-67.293 24.736-81.267-0.268z"/>
  <path d="m103.03 309.86c19.678 1.6626 42.982-8.6505 50.762-31.957 0.28786-0.86852 0.44171-1.067 1.5088-1.1415 14.772-1.0348 23.388-7.1145 27.366-20.423 1.4517-4.8488 1.7842-5.0623 3.025 0.33252 3.1093 13.492 14.11 20.438 28.532 18.581 1.3946-0.17867 1.608 0.0546 1.6849 1.3326 0.93553 15.579 12.293 28.629 30.371 35.054 19.023 6.7596 41.374 4.8935 56.777-5.4171-6.1839-15.217-20.532-30.748-39.674-42.722-20.852-13.043-44.607-19.887-66.603-19.083-2.3624 0.0868-2.6329-0.34245-1.6825-2.0448 10.626-19.018 11.579-45.895 3.7322-58.169-7.7944 9.4049-18.524 32.619-14.355 58.122 0.87597 5.3724-0.5906 5.5834-1.6452 0.25311-4.6925-23.698 3.5138-48.62 14.889-60.35 1.0695-1.0968 1.4343-1.1613 2.4368 0.14393 8.8192 11.482 8.4644 41.605-2.3723 59.839 22.371-0.91816 46.081 5.8166 67.281 19.078 19.247 12.038 34.16 28.043 40.337 44.451 0.46404 1.2383 0.44915 1.474-0.66753 2.2557-16.197 11.333-40.136 12.946-59.283 6.1392-18.743-6.6628-30.632-20.323-31.592-36.756-14.256 1.8661-26.294-5.5139-29.79-18.609-4.355 12.693-13.467 19.103-28.438 19.964-7.9507 25.212-33.349 36.079-54.958 33.098z"/>
  <path d="m197.73 183.24c0.15882-2.4666 0.24319-4.5833 0.21589-6.6653l2.1986-0.0372c0.0273 2.0969 0 4.3774-0.15882 6.8415z"/>
  <path d="m163.98 243.7c3.2508-1.5857 6.6554-2.206 10.447-2.3202-1.4467-2.6354-2.4765-5.6107-2.9406-8.7845l1.7346-2.6974c0.45907 3.8761 1.6179 8.0872 3.4046 11.013 1.3226 2.1639 0.98764 2.7966-1.3474 2.7892-4.1838-0.0198-8.8341 1.0025-12.924 3.0473z"/>
  <path d="m192.19 307.92c-12.065-1.0323-21.773-17.924-22.46-33.525l2.3425-1.1986c0.97771 16.405 10.321 31.145 20.157 32.384z"/>
  <path d="m172.13 281.69c4.7372 3.6428 13.316 4.566 20.234 1.876l-0.0198 1.9728c-6.2807 2.3674-13.914 2.1614-19.847-1.1589z"/>
  <path d="m311.95 151.1c0.0943-3.9059-0.10422-7.7994-0.61293-11.658-8.519 0.93553-17.266 3.025-25.989 6.0921l-4.3352-1.34c10.172-3.7768 20.532-6.3402 30.746-7.4395 1.5137-0.16378 1.8165 0 2.0274 1.4889 0.60549 4.2682 0.86604 8.5612 0.79408 12.857z"/>
  <path d="m309.73 178.43c-9.9111 29.341-34.391 56.268-67.998 72.715l-3.015-1.2978c32.59-15.926 57.218-42.31 67.703-70.775z"/>
  <path d="m251.94 162.08c-18.266 11.752-34.786 27.138-46.779 44.176l-0.17618-4.0002c11.728-16.48 27.51-31.195 45.168-42.533z"/>
  <path d="m129.26 174.68c-8.0128-6.3824-18.331-13.668-29.21-19.249l1.7395-2.2234c10.968 5.7397 20.976 13.013 29.579 19.634z"/>
  <path d="m91.206 224.55c-14.909-15.274-27.321-37.327-33.577-59.236l2.9927 0.58316c6.3129 21.577 18.202 41.719 33.118 57.511z"/>
  <path d="m124.63 384.26c-25.932 27.408-65.234 36.222-74.971 31.495-0.79904-0.38712-1.0075-0.86853-0.95786-1.9306 0.7519-16.678 15.385-59.946 33.505-88.121l4.9903-2.5733c-19.917 29.887-35.265 75.095-35.865 90.399 8.1195 3.5882 46.25-4.5188 73.435-33.582z"/>
  <path d="m247.28 387.14c27.716 31.431 71.859 43.146 80.358 39.056 2.7346-24.944-18.264-75.949-45.421-110.5l2.9406-0.63775c27.021 34.242 47.595 85.527 45.037 111.68-0.12408 1.2234-0.31515 1.412-1.1762 1.7842-10.678 4.6057-54.893-7.6381-81.815-37.379z"/>
  <path d="m135.08 303.3c-6.504 33.691-12.824 97.627-8.7423 133.52 0.61044 5.3848 1.9529 7.5711 5.3898 9.5563 8.4669 4.891 15.874 8.2857 24.214 11.097 7.7472 2.6155 13.212 2.2582 18.832-1.3946l-0.2407 3.0746c-5.6578 3.2557-10.777 3.6652-19.361 0.76926-8.4297-2.8413-16.432-6.5909-24.984-11.529-4.5387-2.6229-5.772-5.298-6.437-11.147-4.0399-35.565 2.2334-99.607 8.648-132.31z"/>
  <path d="m186.13 376.25c-7.2559-20.338-9.9756-50.786-7.035-78.281l2.0646 2.4468c-2.5162 25.969 0.15881 51.576 6.2459 70.748z"/>
  <path d="m242.11 311.13c6.5412 29.954 8.2857 82.726 4.3203 128.17-1.7495 20.048-4.1838 25.21-14.08 29.994-21.016 10.157-39.307 15.859-51.382 12.264-7.5785-2.2557-10.571-7.112-9.4297-13.986 11.529-69.442 22.673-141.36 18.892-199.03l2.7371 2.5113c3.1813 57.298-7.3626 128.48-19.075 197.05-0.92809 5.432 1.0447 8.8317 7.6703 10.804 10.177 3.0324 27.028-1.1489 49.58-12.05 8.9657-4.3327 10.983-8.9384 12.633-27.837 4.0027-45.873 2.2334-97.985-4.6528-128.97z"/>
  <path d="m172.64 470.15c-4.695 1.2755-13.78-4.7273-18.239-11.534l3.2855 0.268c4.2905 5.901 12.169 10.326 15.323 8.9185z"/>
  <path d="m223.53 472.25c-5.6082 16.792-19.887 30.331-25.942 27.066-2.8413-1.5286-2.7272-10.462-1.5311-18.877l2.4368-0.37719c-1.2755 8.5314-1.3301 16.368 0.3747 17.284 3.6652 1.9579 15.715-7.8713 21.879-24.47z"/>
 </g>
 <g stroke-width="2.4815">
  <path d="m332.66 377.2c3.2681-1.3301 12.956 2.8636 13.078 7.2435 7e-3 0.20844-0.0322 0.45163-0.0943 0.70971 18.04-18.184 27.589-70.924 14.569-128.92-17.065-76.021-77.187-108.57-94.917-96.57-12.206 8.2584-9.3875 60.846 29.847 83.768-2.1093 29.021 9.9583 51.933 26.071 63.355-10.857 22.309-2.8215 50.657 11.447 70.415" fill="#f3858e"/>
  <path d="m60.475 277.12c-27.741 6.7398-40.987 45.55-36.317 65.41 2.2656 9.6257 6.8886 12.715 16.095 8.4594 35.495-16.408 74.51-47.645 104.53-82.733 25.929-30.302 45.779-63.39 49.61-92.453 1.5857-12.03-4.5411-16.599-15.219-18.157-28.083-4.1019-68.249 16.559-68.403 61.439-35.719 4.1615-53.809 31.565-50.298 58.035" fill="#f3858e"/>
  <path d="m159.08 43.69c-13.378-1.4293-25.083 2.4145-35.94 11.033-2.0894-3.7644-3.6826-7.8267-4.3128-9.7101-5.7993-6.5785-8.7448-1.7743-5.8414 7.7869 4.2136 13.864 16.792 33.515 34.897 42.337 12.147 5.9184 25.631-0.67993 22.75-16.095-2.5237-13.512-6.6579-25.309-11.554-35.351" fill="#fcd4db"/>
  <path d="m159.08 43.69c-14.621-29.986-36.061-44.344-41.88-42.044-6.1045 2.4095-5.4196 24.661 1.6279 43.367 0.6303 1.8835 2.2234 5.9457 4.3128 9.7101 10.857-8.6182 22.562-12.462 35.94-11.033" fill="#f3858e"/>
  <path d="m160.69 40.72c-3.2433 0.70971-1.6477 17.993 4.3327 36.108 8.6654 26.252 15.581 31.455 18.435 30.073 2.6354-1.273 1.9306-16.229-4.2458-34.322-6.0325-17.671-14.316-32.781-18.522-31.86" fill="#7eccae"/>
  <path d="m226.65 50.54c-4.5312 0-7.2708 15.102-7.4768 30.84-0.25559 19.455 0.58563 32.339 4.0771 32.453 3.9158 0.12656 8.7175-13.457 9.1766-32.029 0.42434-17.246-2.0398-31.264-5.7769-31.264" fill="#7eccae"/>
  <path d="m251.63 125.28c-3.082-1.0571-10.661 5.0449-16.648 12.107-8.5984 10.142-12.293 21.09-8.6058 25.252 2.2706 2.5609 17.591 3.1217 26.388-9.6456 8.4024-12.199 5.0498-25.592-1.134-27.713" fill="#f3858e"/>
  <path d="m238.97 146.52c-1.7023 6.5288-3.8687 9.0401-5.7472 8.6009-1.5013-0.35237-2.2036-4.2359-0.72212-10.048 1.4442-5.6553 3.6404-8.2014 5.4717-7.844 1.4889 0.29282 2.6279 3.0324 0.99756 9.2907" fill="#2d3a41"/>
 </g>
 <g fill="#fff" stroke-width="2.4815">
  <path d="m253.76 145.11c-0.92808 3.6329-2.9158 5.0399-4.6106 4.5759-1.5311-0.41938-2.8562-2.7172-1.7197-6.6752 0.97771-3.4021 3.0274-4.6776 4.7471-4.2657 1.6229 0.3896 2.5535 2.5634 1.5832 6.365"/>
  <path d="m64.607 285.05c-5.1863-31.627 17.053-57.995 51.767-58.097 1.9182-0.01 2.206-0.37719 2.1167-2.1713-1.2408-24.753 11.68-51.685 35.547-64.613-22.16 6.9954-43.027 26.751-43.138 59.077-35.716 4.1615-53.809 31.562-50.298 58.035-29.716 7.2187-42.99 50.657-34.952 69.7-0.79408-29.034 15.043-52.851 37.493-59.611 1.5311-0.45411 1.7395-0.6303 1.4641-2.3202"/>
  <path d="m64.607 285.05c-5.1863-31.627 17.053-57.995 51.767-58.097 1.9182-0.01 2.206-0.37719 2.1167-2.1713-1.2408-24.753 11.68-51.685 35.547-64.613-22.16 6.9954-43.027 26.751-43.138 59.077-35.716 4.1615-53.809 31.562-50.298 58.035-29.716 7.2187-42.99 50.657-34.952 69.7-0.79408-29.034 15.043-52.851 37.493-59.611 1.5311-0.45411 1.7395-0.6303 1.4641-2.3202"/>
  <path d="m332.66 377.2c1.067-0.43426 2.8091-0.28041 4.69 0.27793-15.06-30.669-12.906-54.318-4.767-72.653 0.64271-1.4467 0.64767-1.8462-0.62782-2.8934-18.053-14.82-25.751-39.739-24.679-63.497 0.072-1.6105-0.21838-2.1366-1.3624-2.6626-23.388-10.737-49.374-44.064-43.225-73.308-8.9111 13.663-3.6627 59.866 32.453 80.966-2.1093 29.021 9.9583 51.933 26.071 63.355-10.857 22.309-2.8215 50.657 11.447 70.415"/>
 </g>
 <g stroke-width="2.4815">
  <path d="m332.21 377.43c2.7247-1.9802 13.398 2.4244 13.527 7.0177 0.12903 4.5957-16.162 21.274-21.311 23.738-3.4741 1.6601-4.5684 0.71964-3.4443-3.0646 4.1788-14.075 8.8192-25.939 11.229-27.691" fill="#7eccae"/>
  <path d="m40.382 351.15c-13.303 6.4122-25.917 10.455-33.314 12.013-6.1839 1.3028-7.9458-0.90575-3.5758-6.5363 4.5734-5.8911 12.723-13.455 19.805-19.108 1.1465 12.033 5.6802 18.477 17.085 13.631" fill="#7eccae"/>
  <path d="m259.34 186.97c-5.5834 4.6082-12.058 9.787-15.494 12.884-12.209-4.7992-27.001-9.864-39.513-12.467-5.8514-1.2184-7.4073 4.2161-2.1465 6.8663 11.244 5.6628 25.835 12.1 36.476 16.393 3.0746 1.2383 4.7173 1.4095 8.3254-1.0298 5.0474-3.4146 9.3255-6.7075 14.442-11.641-1.005-3.7744-1.6899-7.4718-2.0894-11.005" fill="#fff"/>
  <path d="m160.77 40.82c-1.1589 14.035 10.956 50.025 17.755 59.519 2.5063 3.4989 5.0548 3.4046 6.0698-0.28041 1.139 8.9979-3.0051 9.7945-8.4421 1.7246-11.368-16.864-20.77-54.548-15.383-60.963" fill="#68a991"/>
  <path d="m225.16 51.54c-4.4369 10.936-3.9208 42.816-2.1664 56.127 0.469 3.5734 2.479 4.3277 4.6429 0-2.7867 7.5314-6.2881 8.3701-7.3254 0.51615-3.0969-23.42-1.2383-51.173 4.8488-56.643" fill="#68a991"/>
  <path d="m114.18 41.9c-2.4765 8.9359 15.614 41.022 33.701 52.221-30.041-13.998-40.486-51.36-33.701-52.221" fill="#cfb1b9"/>
  <path d="m204.63 187.63c-0.51119 2.139 0.56826 4.1317 3.8637 5.6231 10.375 4.695 18.423 8.3056 30.093 12.474 2.8711 1.0249 4.2558 0.92808 6.8986-0.86853 5.8687-3.9878 9.39-6.6033 14.549-11.388 0.21837 1.8611 0.76678 3.6106 1.2035 5.0325-4.8141 4.489-10.723 8.7547-13.896 10.725-3.1738 1.9703-5.6404 2.5063-8.6456 1.3127-6.8936-2.7346-29.138-12.316-36.987-16.634-4.3774-2.407-3.6453-7.7001 2.9207-6.2782" fill="#d1d2d4"/>
  <path d="m329.65 357.73c-6.5934-13.517-7.8366-31.026-2.8562-43.203 3.5783-8.7522 1.9827-12.065-4.9208-16.946-10.698-7.5636-20.055-26.904-21.284-42.684-0.61789-7.9135 0.69234-11.988-3.0597-14.698-19.912-14.37-33.289-39.992-38.627-59.998 0.20101 19.718 10.187 48.01 36.24 63.231-2.1118 29.021 9.9583 51.93 26.071 63.353-10.859 22.311-2.824 50.657 11.447 70.415 1.0646-0.43426 2.8165-0.27297 4.6925 0.28289l-2e-3 -5e-3c-3.4076-6.9358-5.9263-13.509-7.7006-19.748" fill="#d1d2d4"/>
  <path d="m345.74 384.44c5e-3 0.21093-0.0347 0.45411-0.0943 0.71219 4.633-4.6702 8.7001-11.631 11.973-20.361-7.3899 8.7299-16.817 9.3776-23.611 0.18115-1.6428-2.2259-3.0944-4.6652-4.355-7.246 1.7743 6.2385 4.293 12.812 7.7001 19.748l2e-3 7e-3c3.8786 1.1489 8.3031 4.0076 8.385 6.9581" fill="#ca6e77"/>
  <path d="m1.095 362.11c9.6754-3.8711 16.834-8.0326 25.058-14.127 1.3549 2.8066 4.355 6.1913 9.8689 4.9357-16.06 7.4495-33.669 13.063-34.927 9.1915" fill="#68a991"/>
  <path d="m333.13 376.87c6.4196 9.4942-1.1266 20.706-11.986 31.475 2.6949 2.2954 18.405-11.862 23.46-20.966 1.9678-3.5436 0.59804-8.4197-11.474-10.509" fill="#68a991"/>
  <path d="m24.356 343.83c3.7148 4.6429 9.1369 5.1888 17.058 0.92064 57.725-31.106 142.21-110.33 152.9-174.36-2.6825 68.095-103.25 160.47-155.38 181.17-8.39 3.3327-12.819 0.31515-14.581-7.7299" fill="#ca6e77"/>
 </g>
 <g fill="#0f141b" stroke-width="2.4815">
  <path d="m345.53 383.48c16.641-17.777 26.366-68.805 13.249-126.99-17.418-77.262-77.641-106.58-92.721-95.893-11.641 8.2485-8.1741 61.186 31.959 83.53 3.695 2.0572 3.1887 3.3376-0.63775 1.5286-40.471-19.132-47.843-76.807-32.791-86.994 19.232-13.013 80.043 21.435 97.014 97.267 13.487 60.261 2.4269 114.72-16.507 131.67z"/>
  <path d="m296.22 244.05c-1.5261 27.751 9.2982 49.662 25.291 61.534 0.95041 0.69978 1.0546 0.96282 0.51119 2.149-10.201 22.368-1.5782 50.325 11.876 69.189l-2.3301 1.1192c-14.147-19.43-22.892-47.905-11.924-70.849-15.688-11.182-28.222-34.163-25.631-64.38z"/>
  <path d="m332.84 378.36c-2.1688 1.5212-6.5561 12.455-10.871 26.986-0.73701 2.4815-0.43178 3.0448 2.1266 1.8189 5.4345-2.6006 20.448-18.485 20.43-22.731-0.0174-3.5758-9.3701-7.6976-11.685-6.0747m-12.961 26.463c4.5064-15.169 9.1071-26.54 11.626-28.359 3.2681-2.3599 15.318 2.4865 15.38 7.9904 0.062 5.4866-17.15 22.351-22.15 24.721-4.4568 2.1118-6.231 0.27544-4.8563-4.3526"/>
  <path d="m160.96 41.66c-1.6601 0.46652-1.6899 14.214 5.1069 34.801 8.2411 24.969 14.651 30.669 16.906 29.579 1.6502-0.79657 1.8586-13.008-5.0102-33.118-6.9035-20.232-14.45-31.979-17.003-31.262m2.8835 35.421c-6.303-19.095-7.5413-36.379-3.4046-37.329 4.6082-1.0596 13.033 12.375 19.904 32.513 5.772 16.901 7.3204 33.716 3.561 35.535-3.3327 1.613-10.742-2.489-20.06-30.718"/>
  <path d="m223.35 112.83c2.3748 0.0397 7.3477-10.484 7.854-31.009 0.54593-22.259-2.8959-30.289-4.5734-30.289-3.0895 0-6.1144 11.497-6.3576 29.843-0.3623 27.659 1.7098 31.433 3.0771 31.455m-0.13648 1.9926c-3.5337-0.0571-5.5685-6.9854-5.2211-33.448 0.25311-19.51 4.0076-31.815 8.658-31.815 4.0324 0 7.5289 11.301 7.0102 32.279-0.43922 17.765-5.3427 33.066-10.447 32.984"/>
  <path d="m235.87 138.15c-9.2287 10.884-11.554 20.537-8.6852 23.775 1.4517 1.6353 15.554 3.1912 24.47-9.7498 7.9706-11.569 5.0077-23.852-0.34741-25.691-2.4418-0.82882-9.3304 4.4592-15.437 11.666m-10.35 25.148c-4.0424-4.561-0.51119-16.07 8.5116-26.713 7.3849-8.7125 14.946-13.512 18.068-12.44 7.1318 2.4443 10.323 16.926 1.6651 29.637-8.5116 12.497-25.088 13.082-28.244 9.5166"/>
  <path d="m110.52 220.46c-33.887 4.5858-51.903 30.324-48.846 56.36 0.14144 1.201-0.05707 1.402-1.1638 1.6973-26.155 6.978-39.555 44.421-35.014 63.73 2.1291 9.055 5.9755 11.519 14.41 7.6207 34.868-16.117 73.482-46.893 103.92-82.468 28.478-33.282 45.952-65.298 49.407-91.5 1.3202-10.033-2.5138-15.15-14.025-16.83-27.728-4.0473-66.013 16.368-67.221 59.546-0.0397 1.402-0.43178 1.7048-1.469 1.8438m-87.52 122.56c-4.566-19.403 7.6902-59.134 36.389-66.623-3.3674-26.966 15.281-53.893 50.392-58.169 0.4839-45.635 41.267-65.812 69.643-61.673 12.745 1.8611 17.842 7.7671 16.289 19.559-3.7446 28.408-21.907 60.655-49.757 93.203-30.562 35.721-70.02 66.926-105.06 83.125-8.8044 4.0697-15.157 2.206-17.894-9.4223"/>
  <path d="m40.891 352.43c-14.621 6.571-26.125 10.256-33.679 11.819-7.9209 1.6403-9.0897-2.5237-4.623-8.2783 4.8786-6.2881 13.698-14.164 20.892-20.1l0.09678 3.0374c-5.8117 4.5833-14.594 12.39-19.209 18.338-3.4716 4.4742-2.9505 6.0251 2.5138 4.8166 7.2261-1.5956 17.911-4.8017 28.187-9.787z"/>
  <path d="m259.49 188.12c-5.8216 4.4568-11.321 9.06-15.733 12.901-3.0498 2.6577-4.3104 1.5112-1.1266-1.3003 4.2582-3.7595 10.623-8.8987 16.609-13.807z"/>
  <path d="m243.21 200.67c-8.9756-3.5188-24.932-9.4247-39.034-12.36-4.5163-0.94049-6.0499 2.8388-1.5484 5.1069 10.159 5.1193 24.465 11.39 36.433 16.214 2.8413 1.1489 4.0771 1.3946 7.5041-0.9256 4.7967-3.2458 9.0947-6.5785 14.524-11.844l0.61789 2.2234c-5.226 5.0027-9.5786 8.2634-14.259 11.43-3.4716 2.35-5.5635 2.5286-9.3131 1.0149-12.003-4.8389-26.227-11.313-36.416-16.447-6.3378-3.1962-4.1292-10.082 2.8636-8.6282 14.485 3.0125 31.091 9.122 39.997 12.628z"/>
  <path d="m158.78 46.26c-10.956-24.813-34.143-46.019-41.126-43.384-5.5908 2.1068-4.6627 29.887 5.8092 50.543 2.412 4.757 1.2556 5.3054-1.3499 0.78912-11.211-19.433-13.589-50.647-5.4444-53.866 8.5339-3.3649 32.237 18.773 43.069 41.652z"/>
  <path d="m119.64 47.42c-2.685-3.6602-4.757-4.7049-5.7496-4.2583-1.206 0.54345-1.6279 3.8612 0.0819 9.3553 4.4096 14.187 17.924 33.801 33.046 41.032 4.432 2.1192 3.628 3.2681-0.64519 1.479-16.906-7.0698-30.557-28.602-34.463-41.913-1.7743-6.0474-1.3102-10.921 1.0596-11.986 1.3971-0.63278 3.4964 0.07941 5.3154 1.9529z"/>
 </g>
</svg>
