<?xml version="1.0" encoding="UTF-8"?>
<!-- Created with Inkscape (http://www.inkscape.org/) -->
<svg version="1.1" viewBox="0 0 90.432 98.589" xmlns="http://www.w3.org/2000/svg">
 <g transform="translate(-.5078 -1.0998)">
  <g transform="matrix(.3298 0 0 -.3298 10.976 63.375)">
   <path d="m0 0c-0.712-0.838-1.464-1.58-2.233-2.277 18.142-7.801 43.098 1.546 48.605 24.744-1.009-0.162-2.054-0.292-3.178-0.347-19.529-0.956-29.607-6.106-43.194-22.12" fill="#fff"/>
  </g>
  <g transform="matrix(.3298 0 0 -.3298 38.985 31.513)">
   <path d="m0 0c-0.449-3.893-1.048-7.187-2.246-12.129-3.594-4.267-8.311-10.706-9.658-14.075-2.727-6.816-2.824-19.354-1.423-28.749 5.915 7.861 15.348 21.562 16.022 23.808s1.048 11.978 1.199 17.744c2.694 5.166 4.492 8.733 6.962 12.639 5.504 0.158 11.75 1.053 18.194 2.184 5.859 1.03 9.941 2.937 12.124 7.975 1.597 9.618 3.137 18.66 4.319 25.793 3.584 21.614 0.404 33.824-11.336 45.458-13.594 13.472-33.965 14.556-50.035 0.478-9.047-7.925-23.734-8.571-29.346-3.744-2.158 1.858-4.82 3.09-6.793 3.142-3.702 0.101-15.998-8.891-16.821-17.837-0.323-3.512 2.179-11.925 9.201-15.357 1.158 4.069 3.591 8.419 6.105 10.773 0.877-4.748 2.313-8.857 4.677-13.093 2.243 3.224 4.929 6.733 7.144 9.127 1.814 1.962 3.121 2.627 6.608 2.45 5.828-0.296 13.309-1.317 19.618-2.704 0.993-2.703 2.102-5.106 3.812-7.787 3.096 2.648 5.331 4.602 8.84 7.123 1.359-2.024 2.694-3.502 4.199-4.96-14.293-14.408-25.485-26.119-34.45-33.201-1.378 1.519-2.989 3.126-3.405 2.849-0.416-0.278-0.624-3.813-0.581-5.783-1.065-0.72-2.095-1.358-3.093-1.912-2.526-1.401-5.823-1.317-5.645-2.448 0.356-2.269 9.239-1.54 12.216-0.206 13.324 5.972 35.111 27 44.452 29.464-0.278-7.637-7.794-20.481-16.378-33.682 1.422-1.382 3.244-2.519 5.518-3.34" fill="#30363a"/>
  </g>
  <g transform="matrix(.3298 0 0 -.3298 62.768 69.196)">
   <path d="m0 0c-5.731 11.091-15.713 24.77-30.132 42.517-9.763 12.017-10.314 16.373-7.392 38.448 1.659 12.536 4.189 28.264 6.586 42.695-2.183-5.038-6.265-6.946-12.125-7.975-6.443-1.132-12.689-2.026-18.193-2.184-2.471-3.907-4.268-7.474-6.963-12.64-0.15-5.765-0.524-15.498-1.198-17.743-0.674-2.246-10.107-15.947-16.022-23.808-1.401 9.395-1.304 21.933 1.422 28.749 1.348 3.369 6.065 9.807 9.659 14.075 1.198 4.941 1.796 8.236 2.246 12.129-2.275 0.821-4.096 1.958-5.518 3.34-7.224-11.111-15.205-22.474-20.271-31.2-7.378-12.707-12.096-23.621-14.122-33.84-37.831-12.401-54.179-37.583-53.793-47.304 0.176-4.465 13.821-12.976 27.559-16.308 0.613-0.148 1.164-0.32 1.685-0.498 4.629 1.529 7.354 5.529 8.715 10.115 10.65 2.455 20.58 4.972 30.312 7.906 12.209-9.793 31.084-14.031 45.748-13.838 11.127-8.29 24.86-15.534 33.865-17.776 14.346-3.572 27.739 6.161 17.932 25.14" fill="#595857"/>
  </g>
  <g transform="matrix(.3298 0 0 -.3298 17.727 73.004)">
   <path d="m0 0c2.298-0.794 3.678-1.854 3.874-2.9 0.438-2.334-2.202-5.869-7.134-7.841-15.768-1.58-26.829-8.072-30.048-14.89 3.921 1.961 7.368 3.195 11.087 3.996-4.476-3.11-7.908-7.077-9.7-11.344 7.317 4.941 14.413 9.31 22.654 11.442-5.851-4.79-10.711-10.814-13.366-16.502 8.249 7.902 19.133 15.181 29.53 20.727-6.484-6.406-11.485-13.715-12.51-18.266 4.039 2.243 8.783 5.32 12.63 9.808 1.726 2.015 4.422 4.617 6.217 6.155 2.412 2.066 3.224 3.675 3.719 6.346 0.641 3.461 2.051 9.192 3.526 12.95 0.776 1.977-0.041 3.312-1.539 4.487-3.423 2.686-6.761 4.626-10.225 5.947-1.361-4.586-4.086-8.586-8.715-10.115" fill="#30363a"/>
  </g>
  <g transform="matrix(.3298 0 0 -.3298 78.614 95.994)">
   <path d="m0 0c-4.312 14.592-16.701 31.095-23.36 36.946-2.372 2.084-4.429 4.451-5.966 6.613-2.003 2.815-4.228 6.159-6.496 9.792-1.392-7.201-8.816-8.673-14.718-6.194 1.512-2.257 2.932-4.59 4.322-6.907 0.647-1.078 0.792-4.097 0.72-6.182-6.758-6.685-13.73-17.753-16.317-24.582 8.05 7.691 12.938 12.004 20.126 15.669-0.719-10.279-0.935-24.727 1.006-34.501 1.509 11.861 3.665 26.741 8.338 33.353 6.109-10.638 11.357-20.125 16.676-30.188-0.647 9.631-4.672 24.367-8.769 32.273 7.834-6.685 16.962-16.964 24.438-26.092" fill="#30363a"/>
  </g>
  <g transform="matrix(.3298 0 0 -.3298 66.8 78.399)">
   <path d="m0 0c-3.023 4.846-6.123 10.205-8.875 15.523-0.193-7.675-5.602-12.317-12.654-13.289 2.568-2.492 4.775-5.388 6.811-8.428 5.903-2.479 13.326-1.007 14.718 6.194" fill="#595857"/>
  </g>
  <g transform="matrix(.3298 0 0 -.3298 34.782 10.907)">
   <path d="M 0,0 C 9.809,11.368 25.546,14.133 38.334,8.596 32.58,16.914 23.568,20.657 15.978,19.167 7.738,17.549 0.948,10.857 0,0" fill="#a499c9"/>
  </g>
  <g transform="matrix(.3298 0 0 -.3298 26.111 26.449)">
   <path d="m0 0c-1.201 1.248-3.743 3.269-4.251 2.899-0.334-0.243-0.139-3.28 0.555-5.591-0.806-1.611-1.479-2.775-2.279-4.085 1.105 0.421 3.149 0.692 4.849 1.634 0.998 0.554 2.028 1.192 3.093 1.913-0.033 1.541 0.087 4.036 0.341 5.183-0.795-0.691-1.569-1.347-2.308-1.953" fill="#e7380e"/>
  </g>
  <g transform="matrix(.3298 0 0 -.3298 27.076 25.625)">
   <path d="m0 0c0.666-0.307 1.917-1.57 3.026-2.793 8.965 7.082 20.158 18.793 34.451 33.201-1.505 1.458-2.84 2.936-4.2 4.96-3.508-2.521-5.744-4.475-8.84-7.123-0.524 0.822-0.977 1.615-1.402 2.401-10.397-0.495-21.055-7.697-25.563-13.815-1.941-2.634-0.699-4.53 3.05-3.12 7.013 2.638 12.052 3.65 16.842 3.618-4.984-5.596-11.703-12.345-17.364-17.329" fill="#e7380e"/>
  </g>
  <g transform="matrix(.3298 0 0 -.3298 18.811 36.477)">
   <path d="m0 0c-5.422 0.942-10.813 1.752-16.454 2.393-5.893 5.663-15.929 12.927-23.802 15.594 4.572-5.9 10.334-11.31 15.154-15.442-12.09 2.45-21.273 1.837-28.697-0.076 10.225-1.075 15.756-2.108 25.025-4.744-11.02-3.75-17.984-9.336-24.489-16.989 9.107 4.744 20.739 9.49 29.157 11.402-6.045-5.816-11.862-14.081-11.939-21.963 5.434 7.346 14.311 18.06 21.811 21.121 7.377-1.948 12.936-3.852 19.265-6.494 0.397 5.68-1.315 10.815-5.031 15.198" fill="#30363a"/>
  </g>
  <g transform="matrix(.3298 0 0 -.3298 24.66 42.322)">
   <path d="m0 0c5.091 0.77 11.384 2.615 18.18 5.818 4.218 7.141 10.226 15.91 16.142 24.828-12.342-4.242-26.308-9.88-36.907-15.81-5.223 1.06-10.2 2.028-15.151 2.888 3.715-4.383 5.427-9.517 5.031-15.198 0.983-0.41 1.982-0.835 3.012-1.284 4.239-1.848 5.728-1.842 9.693-1.242" fill="#595857"/>
  </g>
  <g transform="matrix(.3298 0 0 -.3298 54.388 16.564)">
   <path d="m0 0c-0.211-3.147-0.605-6.498-1.209-10.136-0.484-2.924-1.031-6.18-1.615-9.653 8.641 5.336 15.921 15.066 17.835 24.638-6.056 0-10.612-1.583-15.011-4.849" fill="#30363a"/>
  </g>
  <g transform="matrix(.3298 0 0 -.3298 53.388 23.498)">
   <path d="m0 0c-0.623-3.705-1.286-7.64-1.966-11.72 19.013-2.503 35.08 4.873 46.171 15.701-16.058 8.461-32.281 5.698-44.205-3.981" fill="#30363a"/>
  </g>
  <g transform="matrix(.3298 0 0 -.3298 89.454 24.327)">
   <path d="m0 0c-14.557-3.05-22.043-5.546-35.214-12.616-15.56-8.353-16.219-23.821-8.18-36.601 5.408-8.596 8.319-16.775 6.516-26.757-3.012-16.686-28.768-31.485-71.757-20.547 13.121-16.305 22.312-29.071 27.717-39.53 0.359-0.697 0.679-1.377 0.978-2.049 54.523 9.966 86.502 39.922 60.253 84.724-11.467 19.573-9.427 34.521 20.935 50.048 3.624 1.854 2.749 4.165-1.248 3.328" fill="#595857"/>
  </g>
  <g transform="matrix(.3298 0 0 -.3298 89.454 24.327)">
   <path d="m0 0c-8.237-1.726-14.211-3.276-20.231-5.576-21.77-11.283-28.386-22.867-23.439-37.034 1.787-5.118 3.872-10.5 5.481-17.053 1.782-5.112 2.379-10.394 1.311-16.311-3.012-16.686-28.768-31.485-71.757-20.547 3.641-4.524 6.968-8.767 10.007-12.772 22.902-4.46 52.421-0.829 65.771 14.325 11.324 12.854 11.987 27.928-1.386 49.772-7.842 12.808-5.654 20.673 0.871 26.717 9.548 8.845 21.638 14.848 36.243 18.409-0.59 0.276-1.558 0.345-2.871 0.07" fill="#e7380e"/>
  </g>
  <g transform="matrix(.3298 0 0 -.3298 27.134 25.562)">
   <path d="m0 0c0.901-0.832 1.524-1.525 2.772-2.98 9.082 6.585 29.715 28.09 34.448 33.292-1.365 1.449-2.857 3.283-4.008 4.988-2.473-1.748-5.371-4.178-8.825-7.162-1.084-3.805-3.427-5.922-7.674-6.439-7.424-0.903-15.189-3.953-20.039-7.844 0.81-0.981 2.247-0.852 4.179-0.129 5.36 2.005 10.752 3.525 15.817 3.369-5.371-6.558-10.848-11.688-16.67-17.095" fill="#c82f08"/>
  </g>
  <g transform="matrix(.3298 0 0 -.3298 24.771 25.64)">
   <path d="m0 0c0.998-1.209 1.55-2.017 2.441-3.312 0.492-0.712 1.204-0.741 1.975 0.128 0.51 0.573 0.955 1.188 1.443 2.038-0.063-2.123-0.062-3.206 0.022-4.586-2.781-1.72-5.138-2.823-7.663-3.46 1.252 1.974 1.677 2.908 2.037 4.097-0.552 2.059-0.488 3.821-0.255 5.095" fill="#c82f08"/>
  </g>
  <g transform="matrix(.3298 0 0 -.3298 59.14 14.908)">
   <path d="m0 0c-3.688-7.687-10.629-16.082-16.729-20.704l-0.646-4.512c10.405 6.765 17.168 18.294 17.375 25.216" fill="#232528"/>
  </g>
  <g transform="matrix(.3298 0 0 -.3298 52.904 26.453)">
   <path d="m0 0c12.762-1.896 32.394 3.332 44.951 13.173-7.996-11.276-31.026-19.214-45.515-15.736z" fill="#232528"/>
  </g>
  <g transform="matrix(.3298 0 0 -.3298 42.566 18.987)">
   <path d="m0 0c7.69 1.845 8.612-11.012-8.182-22.516 3.568 7.198 9.719 17.963 8.182 22.516" fill="#232528"/>
  </g>
  <g transform="matrix(.3298 0 0 -.3298 30.941 34.152)">
   <path d="m0 0c1.054-5.592-0.919-9.604-6.146-12.521-5.584-3.116-10.021-4.486-14.788-5.363-1.953-0.36-3.35-0.432-5.082-0.036-2.162 0.495-4.174 0.977-6.102 1.451 0.339-1.528 0.474-3.361 0.306-5.774 1.364-0.579 2.707-1.174 4.006-1.799 2.074-0.999 5.036-1.278 7.989-0.845 5.76 0.845 12.904 2.842 18.818 5.607 4.609 7.528 11.138 17.743 16.207 25.04-5.53-1.92-9.985-3.456-15.208-5.76" fill="#3e3a39"/>
  </g>
  <g transform="matrix(.3298 0 0 -.3298 20.348 39.583)">
   <path d="m0 0c-5.692 1.397-10.618 2.712-16.271 4.028-2.602 0.606-3.501 0.55-5.415-0.652-5.99-3.763-15.479-14.79-18.782-23.238 6.835 9.14 15.593 18.203 21.583 20.585 6.805-1.873 13.279-3.982 19.192-6.497 0.168 2.413 0.032 4.246-0.307 5.774" fill="#232528"/>
  </g>
  <g transform="matrix(.3298 0 0 -.3298 1.6962 42.452)">
   <path d="m 0,0 c 6.736,5.362 22.45,11.948 26.192,12.557 1.872,0.304 2.811,-0.731 2.545,-1.794 C 20.292,8.369 8.663,4.048 0,0" fill="#232528"/>
  </g>
  <g transform="matrix(.3298 0 0 -.3298 1.4891 35.631)">
   <path d="m0 0c7.263 0.412 18.78-0.661 24.09-2.43 1.261-0.42 1.565-1.719 0.693-2.495-9.133 2.461-17.072 4.097-24.783 4.925" fill="#232528"/>
  </g>
  <g transform="matrix(.3298 0 0 -.3298 5.725 30.694)">
   <path d="m0 0c6.064-4.194 12.373-9.809 16.394-13.621 0.818-0.776 0.346-2.028-0.78-1.941-5.13 4.02-11.247 10.433-15.614 15.562" fill="#232528"/>
  </g>
  <g transform="matrix(.3298 0 0 -.3298 27.139 47.328)">
   <path d="m0 0c-4.716-27.581 20.907-54.369 47.307-51.78 0.474 2.254 1.086 4.767 1.587 6.59 26.052-34.888 58.677-40.342 60.187-23.988 6.564-10.027-0.02-28.892-23.336-20.966-9.115 3.1-20.874 10.158-30.024 16.813-16.083-0.971-36.879 5.961-45.475 13.448-8.734-2.635-21.766-6.239-30.5-8.041-0.6-4.013-3.015-9.137-6.775-10.471-19.602 4.803-30.314 14.069-30.935 17.172-0.462 2.31 0.648 5.823 2.126 8.687 6.932-4.713 37.71 2.589 51.02 23.847-0.463 7.209 1.595 22.904 4.818 28.689" fill="#3e3a39"/>
  </g>
  <g transform="matrix(.3298 0 0 -.3298 65.975 80.017)">
   <path d="m0 0c-3.071 4.741-5.613 8.64-8.491 12.926-2.116-3.294-6.757-5.371-10.431-5.718 2.226-2.395 4.76-5.767 6.918-8.88 4.297-1.146 9.292-0.765 12.004 1.672" fill="#3e3a39"/>
  </g>
  <g transform="matrix(.3298 0 0 -.3298 63.577 84.698)">
   <path d="m0 0c-6.937-6.935-11.831-15.42-16.318-24.886 6.771 7.425 14.034 12.321 20.153 15.748-0.815-8.159-0.326-24.233 1.061-34.595 1.305 9.873 3.181 25.782 8.322 33.534 4.161-7.343 11.75-20.724 16.644-29.536-0.164 6.69-3.263 19.419-8.566 31.25 6.975-5.431 15.783-15.151 23.559-24.84-6.098 12.03-17.184 26.133-25.925 32.835-2.342 1.795-5.261 4.802-6.855 7.262-1.78 2.751-3.349 5.179-4.803 7.421-2.711-2.437-7.707-2.818-12.003-1.672 1.404-2.024 2.651-3.939 3.549-5.399 0.939-1.528 1.426-5.082 1.182-7.122" fill="#232528"/>
  </g>
  <g transform="matrix(.3298 0 0 -.3298 59.085 63.479)">
   <path d="m0 0c54.334-9.07 88.076 26.306 74.472 59.958 12.88-22.223 6.034-42.412-4.258-52.989-13.336-13.707-35.44-22.351-58.283-26.303-3.828 8.151-7.98 14.518-11.931 19.334" fill="#3e3a39"/>
  </g>
  <g transform="matrix(.3298 0 0 -.3298 19.004 73.961)">
   <path d="m0 0c-0.055 1.062 0.019 1.445-2.279 2.239 3.588 1.733 5.759 6.191 7.12 10.777 3.464-1.322 6.802-3.262 10.225-5.948 1.498-1.175 2.315-2.509 1.538-4.487-1.474-3.757-2.884-9.488-3.525-12.95-0.495-2.671-1.308-4.28-3.719-6.346-1.795-1.538-4.491-4.139-6.217-6.154-3.847-4.488-8.591-7.566-12.63-9.809 1.025 4.552 6.026 11.861 12.51 18.266-10.397-5.546-21.281-12.824-29.53-20.727 2.655 5.689 7.515 11.712 13.366 16.503-8.241-2.133-15.337-6.501-22.654-11.442 1.792 4.266 5.224 8.234 9.7 11.343-3.719-0.8-6.185-1.211-10.107-3.171 7.716 6.185 13.646 9.261 24.807 11.306 2.514 0.461 4.749 1.11 5.095 2.773 5.026 2.669 6.412 5.655 6.3 7.827" fill="#232528"/>
  </g>
  <g transform="matrix(.3298 0 0 -.3298 16.602 10.852)">
   <path d="m0 0c0.938-5.191 5.504-11.32 9.412-12.133-0.281-0.813-0.624-1.939-0.969-3.033-5.379 1.876-10.255 10.069-8.443 15.166" fill="#232528"/>
  </g>
  <g transform="matrix(.3298 0 0 -.3298 40.211 6.4837)">
   <path d="m0 0c-1.195-1.213-2.495-1.178-3.05-0.606-0.484 0.5-0.471 1.944 0.816 3.171 1.223 1.167 2.359 1.327 3.084 0.624 0.589-0.572 0.395-1.926-0.85-3.189" fill="#afcee5"/>
  </g>
  <g transform="matrix(.3298 0 0 -.3298 18.569 9.7949)">
   <path d="M 0,0 C -0.915,-1.433 -0.259,-2.043 0.924,-0.762 2.311,0.74 3.743,2.057 5.269,3.166 5.799,3.552 5.562,3.908 4.944,3.697 3.05,3.05 0.882,1.382 0,0" fill="#0f141b"/>
  </g>
  <g transform="matrix(.3298 0 0 -.3298 39.503 16.066)">
   <path d="m0 0c-1.9 1.816-3.372 3.689-4.985 6.12-1.254 1.89-0.342 2.493 1.047 0.698 1.751-2.267 2.913-3.532 4.732-5.178 2.693 2.226 5.511 5.234 8.168 8.422 1.127 1.352 1.431 1.171 1.539-0.539 0.203-3.197 0.514-5.182 1.142-7.502 8.157 4.495 17.132 12.373 17.173 15.354 0.015 0.997-1.262 2.091-5.255 2.824-2.46 0.451-2.325 1.506 0.168 1.246 4.749-0.494 6.849-2.375 6.908-4.121 0.138-4.108-10.521-12.745-18.837-17.194-1.076-0.577-1.279-0.369-1.537 0.504-0.526 1.796-0.994 4.388-1.202 7.245-2.183-2.669-4.737-5.271-7.585-7.891-0.612-0.563-0.853-0.581-1.476 0.012" fill="#0f141b"/>
  </g>
  <g transform="matrix(.3298 0 0 -.3298 53.665 19.843)">
   <path d="m0 0c3.539 21.189 0.454 33.001-11.195 44.544-13.501 13.382-32.762 14.09-48.544 0.265-9.013-7.898-24.793-8.849-30.751-3.722-2.143 1.844-4.207 2.887-6.072 2.937-3.166 0.113-14.884-7.97-15.698-16.798-0.322-3.503 2.053-10.739 7.606-13.962 1.192 3.745 3.54 7.49 5.814 9.8 0.911 0.926 1.345 0.828 1.613-0.477 0.902-4.355 2.057-7.629 3.993-11.281 2.336 3.298 4.41 6.075 6.307 8.128 1.839 1.989 3.611 2.948 7.418 2.755 5.773-0.294 13.273-1.35 19.457-2.685 0.62-0.133 0.802-0.303 1.033-0.928 0.927-2.484 1.784-4.426 3.061-6.508 2.723 2.332 4.885 4.125 8.145 6.464l0.954-1.421c-3.019-2.168-5.912-4.599-8.492-6.795-0.847-0.72-1.202-0.632-1.684 0.135-1.429 2.266-2.653 4.442-3.671 7.163-6.131 1.325-13.208 2.308-18.941 2.599-3.296 0.168-4.388-0.401-6.084-2.235-1.911-2.067-4.403-5.217-6.775-8.579-0.727-1.031-1.182-1.049-1.75 0-1.993 3.683-3.386 7.477-4.265 11.663-1.948-2.272-3.66-5.613-4.701-8.957-0.343-1.093-0.658-1.285-1.694-0.754-7.093 3.634-9.953 12.265-9.6 16.102 0.854 9.276 13.847 18.947 18.058 18.807 2.546-0.069 5.121-1.472 7.401-3.434 5.479-4.713 19.003-3.93 27.924 3.884 15.085 13.216 36.643 14.011 51.498-0.71 11.985-11.877 15.259-24.677 11.642-46.334-2.988-17.895-8.751-51.57-10.984-68.441-2.964-22.403-2.267-25.977 7.209-37.641 15.537-19.123 24.995-32.328 30.345-42.684 10.382-20.096-3.879-30.568-19.218-26.744-11.325 2.82-29.563 13.313-40.83 23.729-3.109 2.875-2.242 3.917 0.988 1.178 12.196-10.34 29.254-20.003 40.411-22.782 13.555-3.371 25.917 5.475 16.535 23.632-5.31 10.276-14.535 23.353-30.016 42.406-10.095 12.428-10.281 17.478-7.417 39.131 2.237 16.893 7.981 50.646 10.97 68.55" fill="#0f141b"/>
  </g>
  <g transform="matrix(.3298 0 0 -.3298 42.653 63.845)">
   <path d="m0 0c1.038 5.585 2.464 10.001 4.89 14.345 1.381 2.473 2.479 1.92 1.224-0.624-2.448-4.968-3.777-8.652-4.996-13.961-0.868-3.785-1.834-3.615-1.118 0.24" fill="#0f141b"/>
  </g>
  <g transform="matrix(.3298 0 0 -.3298 46.056 72.005)">
   <path d="m0 0c-18.602-0.448-42.956 6.162-53.632 20.673-2.059 2.8-0.989 3.553 1.246 0.894 11.556-13.742 32.722-19.195 49.765-19.246z" fill="#0f141b"/>
  </g>
  <g transform="matrix(.3298 0 0 -.3298 39.672 15.812)">
   <path d="m0 0c-11.188-11.333-26.289-26.959-34.39-33.258-0.722-0.564-1.109-0.468-1.56 0.112-1.18 1.518-1.924 2.452-2.117 2.372-0.241-0.101-0.258-2.327-0.245-4.332 4e-3 -0.727-0.122-0.989-0.653-1.341-2.009-1.33-4.139-2.41-6.478-3.063-1.253-0.35-1.039-0.653 0.233-0.843 2.676-0.403 7.002 0.28 9.247 1.288 12.788 5.745 33.922 25.865 44.166 29.343 1.16 0.395 1.566 0.167 1.534-1.142-0.338-14.122-25.494-46-36.592-65.158-13.759-23.751-17.677-39.218-14.097-56.969 0.643-3.191-0.592-3.445-1.363-0.333-4.366 17.599-0.585 34.428 13.397 58.463 11.468 19.711 34.527 48.858 36.653 62.959-6.516-1.785-30.501-23.482-43.133-29.094-2.658-1.18-9.731-1.957-12.184-0.627-1.675 0.909-1.801 2.924 1.561 3.795 2.008 0.52 4.519 1.735 5.994 2.819-0.027 3.311 0.425 5.802 0.971 6.141 0.503 0.312 1.915-0.155 4.004-2.409 7.994 6.14 22.224 20.956 33.615 32.639z" fill="#0f141b"/>
  </g>
  <g transform="matrix(.3298 0 0 -.3298 34.826 15.824)">
   <path d="m0 0c-9.886-0.363-20.504-6.868-25.298-13.375-1.514-2.053-0.507-2.766 2.098-1.785 7.371 2.773 12.616 3.743 18.247 3.449 2.811-0.147 2.683-1.387-0.139-1.37-5.561 0.035-10.437-1.016-17.64-3.726-4.642-1.743-6.591 0.918-3.987 4.454 4.875 6.617 15.668 13.618 25.765 14.243z" fill="#0f141b"/>
  </g>
  <g transform="matrix(.3298 0 0 -.3298 27.313 25.843)">
   <path d="m0 0c5.672 5.128 12.852 12.274 17.8 17.862l-2.479 0.053c-5.748-6.396-13.326-13.773-18.924-18.561-1.728 1.849-4.038 3.067-4.87 2.513-0.773-0.516-0.416-3.969 0.208-6.274-0.83-1.644-1.611-2.882-2.582-4.453l2.271 0.294c0.668 1.106 1.215 2.033 1.839 3.25 0.253 0.494 0.263 0.868 0.095 1.45-0.48 1.681-0.836 3.873-0.634 3.965 0.225 0.104 1.404-0.831 2.841-2.391 0.572-0.619 1.233-0.525 1.803-0.035 0.482 0.415 0.984 0.853 1.499 1.312l0.245 1.177z" fill="#0f141b"/>
  </g>
  <g transform="matrix(.3298 0 0 -.3298 34.563 11.113)">
   <path d="m0 0c0.143 11.368 8.104 18.907 16.531 20.562 8.105 1.59 16.942-2.348 22.578-10.323 1.157-1.64 0.852-2.136-1.007-1.401-12.997 5.139-27.586 1.76-36.963-8.625-2.109-2.335-3.09-1.694-0.952 0.821 9.314 10.958 23.307 14.648 36.709 9.746-5.385 6.238-12.985 9.61-20.053 8.222-8.525-1.673-14.327-8.745-15.404-17.539z" fill="#0f141b"/>
  </g>
  <g transform="matrix(.3298 0 0 -.3298 37.965 8.3698)">
   <path d="m0 0c-0.693 2.634-0.657 6.155-0.347 8.821l1.715 1.005c-0.436-2.442-0.499-6.449 0.069-9.116z" fill="#0f141b"/>
  </g>
  <g transform="matrix(.3298 0 0 -.3298 25.751 52.275)">
   <path d="m0 0c-38.454-12.718-52.767-37.81-52.44-46.028 0.108-2.744 11.211-11.726 26.601-15.458 4.161-1.01 5.954-2.503 6.26-4.13 0.541-2.875-2.162-6.474-7.179-8.642-0.513-0.223-0.76-0.231-1.213-0.278-14.935-1.601-24.17-7.365-27.693-12.182 3.154 1.68 6.517 2.599 10.502 3.379l-2.842-2.357c-2.84-0.717-5.51-1.638-8.706-3.174-1.958-0.943-2.343-0.47-1.443 1.193 4.025 7.44 16.125 13.501 30.338 14.944 4.716 1.914 6.732 5.033 6.406 6.768-0.119 0.642-1.01 1.903-4.812 2.746-14.967 3.315-28.356 12.464-28.542 17.139-0.45 11.346 18.229 36.542 55.23 48.558z" fill="#0f141b"/>
  </g>
  <g transform="matrix(.3298 0 0 -.3298 14.286 80.463)">
   <path d="m0 0c-6.135-1.79-13.187-5.811-20.534-10.709-1.979-1.321-2.375-0.759-1.552 1.069 3.881 8.619 13.306 15.151 23.834 17.015 3.028 0.536 3.254-0.597 0.247-1.233-9.759-2.064-17.014-7.471-21.508-14.27 6.643 4.403 13.563 8.403 21.853 10.312z" fill="#0f141b"/>
  </g>
  <g transform="matrix(.3298 0 0 -.3298 21.105 69.518)">
   <path d="m0 0c3.218-1.332 6.09-2.979 9.271-5.476 2.5-1.961 2.781-3.793 2.011-5.753-1.387-3.533-2.866-9.099-3.552-12.803-0.595-3.212-1.38-4.544-4.126-6.885-2.127-1.813-4.421-4.011-6.151-6.03-3.841-4.481-8.598-7.43-12.38-9.592-1.989-1.141-2.051-0.45-1.631 1.003 1.129 3.885 4.26 9.109 9.04 14.387-9.687-5.615-16.577-10.853-24.802-17.998-1.409-1.225-2.242-1.258-1.247 0.901 4.066 8.832 11.641 16.36 20.06 21.112 2.765 1.561 3.344 0.57 0.638-1.083-7.088-4.329-12.611-10.18-17.147-16.754 7.016 6.2 15.385 11.913 25.088 17.181 3.127 1.701 3.745 0.952 1.269-1.563-5.298-5.383-9.021-10.894-10.898-15.168 3.303 1.923 7.218 4.723 10.744 8.839 1.772 2.067 4.386 4.676 6.169 6.204 2.467 2.113 2.839 3.179 3.352 5.943 0.697 3.763 2.009 9.324 3.425 12.929 0.479 1.221 0.407 2.138-1.265 3.449-3.663 2.874-7.474 4.997-11.195 6.291z" fill="#0f141b"/>
  </g>
  <g transform="matrix(.3298 0 0 -.3298 20.796 69.661)">
   <path d="m0 0c-0.603-4.154-2.669-8.622-6.643-11.395l-2.444 0.832c4.246 2.727 6.484 6.155 7.285 10.303z" fill="#0f141b"/>
  </g>
  <g transform="matrix(.3298 0 0 -.3298 30.901 67.351)">
   <path d="m0 0c-13.686-4.07-26.486-7.166-38.911-9.526-4.361-0.828-4.487 0.482-0.318 1.459 12.327 2.887 25.036 5.938 37.358 9.832z" fill="#0f141b"/>
  </g>
  <g transform="matrix(.3298 0 0 -.3298 63.918 72.564)">
   <path d="m0 0c5.187-10.712 11.713-20.828 15.981-26.83 1.65-2.319 3.787-4.761 5.922-6.637 7.185-6.314 19.159-22.59 23.658-38.088 0.446-1.537-0.148-1.723-1.09-0.577-7.107 8.638-16.195 18.642-21.935 23.927 3.758-8.237 6.225-18.478 7.104-28.337 0.251-2.835-0.416-2.968-1.759-0.472-5.497 10.222-9.969 18.425-15.679 28.388-4.226-6.912-6.306-22.337-7.472-31.489-0.36-2.829-1.323-2.838-1.795-0.055-1.952 11.508-1.552 26.086-0.995 32.839-6.063-3.234-10.859-7.266-18.237-14.374-1.734-1.671-2.392-1.208-1.503 0.892 3.196 7.546 9.109 17.567 15.79 24.247 0.061 2.491-0.215 4.588-0.624 5.268-3.163 5.255-6.768 11.294-11.494 15.727l2.6 0.367c4.451-4.442 7.782-9.936 10.783-15.002 0.795-1.342 0.791-5.025 0.756-6.446-0.014-0.71-0.099-0.864-0.548-1.3-5.857-5.687-11.522-14.568-14.523-20.484 5.876 5.927 10.631 9.698 17.036 13.066 1.167 0.613 1.773 0.456 1.698-0.918-0.457-8.18-0.919-17.699 0.154-28.495 1.581 11.794 3.381 21.615 7.339 27.819 0.674 1.055 1.277 1.233 2.022-0.061 5.397-9.414 9.889-17.626 14.507-26.292-1.285 8.8-4.577 20.047-7.981 27.241-1.473 3.116-1.012 3.524 1.593 1.256 8.085-7.031 14.894-14.911 21.203-22.558-4.87 11.992-15.46 26.934-21.948 32.634-2.207 1.937-4.53 4.334-6.233 6.73-4.008 5.633-9.718 14.459-14.78 24.115z" fill="#0f141b"/>
  </g>
  <g transform="matrix(.3298 0 0 -.3298 66.919 78.54)">
   <path d="m0 0c-0.504-2.421-3.521-6.262-4.552-6.756-2.044-0.981-8.358-0.791-9.936-0.202l-1.11 2.392c1.954-0.968 8.42-1.357 10.356-0.337 1.429 0.754 3.638 4.445 3.96 6.983z" fill="#0f141b"/>
  </g>
  <g transform="matrix(.3298 0 0 -.3298 30.386 40.861)">
   <path d="m0 0c-7.466-3.417-13.306-4.794-17.242-5.39-3.977-0.6-5.907-0.632-10.295 1.335-7.694 3.448-13.672 5.599-21.737 7.738-7.273-3.091-15.914-13.506-20.782-20.015-1.435-1.918-1.978-1.731-1.834 0.638 0.492 8.077 6.188 15.751 10.225 19.732-7.119-1.936-16.916-5.84-25.68-10.352-2.201-1.137-2.46-0.143-1.069 1.464 6.664 7.72 12.995 12.313 21.608 15.733-7.207 2.043-11.898 2.847-21.549 4.057-2.932 0.367-2.999 1.009-0.135 1.714 7.293 1.796 16.052 2.304 25.584 0.485-5.274 4.559-9.198 8.86-12.669 13.159-1.436 1.779-0.962 2.254 1.192 1.468 7.934-2.898 17.562-9.914 23.323-15.256 10.358-1.184 19.728-2.902 30.957-5.177 12.77 7.112 29.014 13.098 37.762 16.083l-1.456-2.513c-8.888-3.082-23.443-8.459-35.407-15.09-0.493-0.274-0.916-0.283-1.399-0.185-10.978 2.22-20.562 3.968-30.689 5.136-0.615 0.072-0.805 0.22-1.107 0.506-5.417 5.144-13.434 11.086-20.525 14.243 3.592-4.117 7.606-8.18 12.728-12.626 1.842-1.598 1.359-2.035-0.757-1.655-8.803 1.581-15.874 1.85-23.165 0.763 7.889-0.945 12.279-1.886 19.991-4.068 1.873-0.536 1.817-1.14 0.111-1.781-8.655-3.252-14.654-6.938-21.09-13.629 8.244 4.14 17.127 7.734 25.339 9.551 1.673 0.371 2.227-0.026 0.712-1.536-5.47-5.452-10.088-12.116-11.096-18.466 5.771 7.598 13.373 16.246 20.222 19.226 0.462 0.2 0.602 0.217 1.163 0.066 8.031-2.134 14.057-4.256 21.992-7.715 4.036-1.76 5.333-1.745 9.305-1.144 4.146 0.627 10.855 2.238 18.96 6.169z" fill="#0f141b"/>
  </g>
  <g transform="matrix(.3298 0 0 -.3298 20.195 41.412)">
   <path d="m0 0c0.354 5.692-1.584 10.713-5.486 15.183l2.507-0.331c3.642-4.328 5.086-9.731 4.635-15.443z" fill="#0f141b"/>
  </g>
  <g transform="matrix(.3298 0 0 -.3298 52.779 27.076)">
   <path d="m0 0c18.456-2.339 33.8 4.639 44.606 14.626-14.551 7.326-30.696 5.235-42.891-4.99l0.33 2.426c12.892 10.126 29.056 11.531 44.019 3.718 1.09-0.572 1.171-1.022 0.122-2.045-11.787-11.487-28.271-18.15-46.394-15.554z" fill="#0f141b"/>
  </g>
  <g transform="matrix(.3298 0 0 -.3298 53.471 22.721)">
   <path d="m0 0c8.103 5.147 14.826 14.604 16.674 22.633-5.53-0.13-9.515-1.863-13.984-5.131l0.123 2.296c4.193 3.099 8.744 4.535 14.448 4.611 1.315 0.018 1.549-0.217 1.305-1.422-2.073-10.312-9.474-19.779-18.774-25.309z" fill="#0f141b"/>
  </g>
  <g transform="matrix(.3298 0 0 -.3298 52.57 29.029)">
   <path d="m0 0c-2.138-3.994-5.77-5.781-11.946-6.865-7.67-1.347-11.679-1.725-17.918-2.21-2.076-3.312-4.111-7.214-6.507-12.135-0.122-4.634-0.378-15.314-1.119-17.786-0.684-2.277-10.081-15.605-16.009-23.546-1.293-1.729-1.691-1.481-1.935 0.3-1.301 9.57-1.504 21.939 1.307 28.965 1.317 3.293 6.061 9.514 9.886 14.071 1.268 4.701 1.716 7.399 2.161 11.101-2.077 0.807-3.811 1.858-5.197 3.18l1.052 1.559c1.391-1.398 3.439-2.481 5.671-3.288 0.276-0.099 0.446-0.373 0.412-0.663-0.448-3.889-1.222-7.534-2.35-12.204-0.109-0.453-0.257-0.724-0.459-0.966-3.728-4.467-7.947-10.505-9.201-13.639-2.657-6.642-2.719-18.074-1.82-26.203 5.306 7.229 13.849 20.013 14.436 21.974 0.7 2.331 1.22 13.121 1.337 17.044 0.012 0.447 0.082 0.685 0.266 1.042 2.125 4.097 4.477 8.964 6.554 12.331 0.316 0.512 0.55 0.664 1.318 0.697 6.15 0.278 10.206 0.796 17.768 2.125 6.183 1.085 10.802 3.276 12.322 9.843z" fill="#0f141b"/>
  </g>
  <g transform="matrix(.3298 0 0 -.3298 62.942 69.49)">
   <path d="m0 0c33.938 6.024 57.228 19.86 65.382 37.468 6.018 12.992 4.353 28.399-5.701 45.561-12.482 21.305-7.85 36.387 21.494 51.394 2.542 1.301 2.23 2.242-0.6 1.64-14.465-3.072-21.468-5.33-34.983-12.586-14.114-7.578-16.113-21.951-7.764-35.226 6.271-9.969 8.313-18.375 6.713-27.481-3.033-17.267-29.178-32.195-71.766-21.742l-1.864 2.72c42.834-11.151 68.559 2.85 71.545 19.38 1.581 8.763-0.365 16.464-6.453 26.144-8.687 13.806-6.945 29.552 8.705 37.955 13.652 7.329 21.23 9.655 35.474 12.639 5.198 1.09 6.516-2.692 1.825-5.107-30.663-15.784-31.023-30.464-20.333-48.708 9.923-16.938 12.431-33.089 5.788-47.432-8.909-19.235-32.181-32.456-66.475-38.955z" fill="#0f141b"/>
  </g>
  <g transform="matrix(.3298 0 0 -.3298 56.706 60.002)">
   <path d="m0 0c28.137-5.773 54.763 1.364 65.802 13.898 11.455 13.002 11.289 27.935-1.46 48.761-7.102 11.596-6.8 20.226 1.109 27.553 9.365 8.675 20.958 14.784 35.634 18.463l1.785-1.265c-15.028-3.597-26.971-9.574-36.428-18.335-6.833-6.329-7.645-14.339-0.71-25.665 12.978-21.198 13.599-36.922 1.317-50.864-13.157-14.934-42.89-19.166-65.749-14.695z" fill="#0f141b"/>
  </g>
  <g transform="matrix(.3298 0 0 -.3298 76.256 42.676)">
   <path d="m0 0c-1.377 4.499-3.058 8.933-4.436 12.798-5.221 14.649 2.681 26.017 20.292 36.024l7.25 1.747c-23.071-10.693-31.191-22.57-25.977-37.222 2.548-7.158 3.984-11.109 5.718-17.786z" fill="#0f141b"/>
  </g>
  <g transform="matrix(.3298 0 0 -.3298 58.692 40.579)">
   <path d="m0 0c0.408 1.772 0.955 4.229 1.503 6.043-5.949-4.068-12.304-9.186-18.811-14.969-11.31-0.273-20.92-4.226-28.006-10.563 7.835 1.84 15.059 3.135 24.326 4.157-8.041-5.792-16.422-15.946-18.058-22.282 6.338 7.019 13.425 12.06 20.648 16.762-4.361-8.041-8.586-20.238-8.927-27.461 4.702 9.608 10.631 19.761 15.128 26.031-0.818-8.45-1.227-19.285 0.341-25.691 2.863 10.017 4.702 20.716 7.155 32.845 7.916 4.721 16.052 9.652 22.976 14.167-5.638 1.335-12.256 1.513-18.275 0.961" fill="#30363a"/>
  </g>
  <g transform="matrix(.3298 0 0 -.3298 69.389 35.366)">
   <path d="m0 0c-16.968 7.087-38.18 10.475-60.313 6.12-8.23-1.62-8.889-21.689-1.324-20.367 8.738 1.527 21.005 3.609 30.703 4.481-0.547-1.814-1.094-4.271-1.503-6.043 6.019 0.553 12.637 0.374 18.276-0.961 6.667 4.348 12.211 8.311 15.319 11.319 2.45 2.37 2.037 4.117-1.158 5.451" fill="#595857"/>
  </g>
  <g transform="matrix(.3298 0 0 -.3298 62.787 36.329)">
   <path d="m0 0c-12.118 0.485-24.643-0.3-36.266-1.683-7.12-0.847-8.7-6.128-6.555-9.859 10.772 2.284 22.071 4.063 31.848 4.531 4.274 2.928 7.695 5.079 10.973 7.011" fill="#3e3a39"/>
  </g>
  <g transform="matrix(.3298 0 0 -.3298 68.816 35.397)">
   <path d="m0 0c1.624-1.113 1.757-2.695 0.047-4.129-4.185-3.509-10.456-7.704-16.936-11.751 1.338-0.21 2.739-0.496 4.126-0.881 6.729 4.42 12.611 8.581 15.5 11.332 2.911 2.773 1.764 4.872-2.737 5.429" fill="#3e3a39"/>
  </g>
  <g transform="matrix(.3298 0 0 -.3298 56.941 44.395)">
   <path d="m0 0c-1.582-0.918-2.204-1.825-2.482-3.479-1.11-6.585-2.842-19.409-4.09-31.748 3.05 10.329 6.099 24.539 7.139 31.61 6.646 3.98 15.187 9.221 22.677 14.14-1.388 0.384-2.788 0.67-4.126 0.88-6.889-4.302-14.01-8.439-19.118-11.403" fill="#232528"/>
  </g>
  <g transform="matrix(.3298 0 0 -.3298 49.767 56.058)">
   <path d="m 0,0 c 3.084,9.185 8.908,19.851 12.442,25.683 0.735,1.211 2.334,1.137 2.842,-0.104 C 10.813,18.751 3.188,6.204 0,0" fill="#232528"/>
  </g>
  <g transform="matrix(.3298 0 0 -.3298 46.052 52.584)">
   <path d="m 0,0 c 4.575,7.244 12.481,13.532 18.508,17.209 1.197,0.73 2.305,0.208 2.253,-1.04 C 14.263,11.889 6.654,6.62 0,0" fill="#232528"/>
  </g>
  <g transform="matrix(.3298 0 0 -.3298 43.989 46.8)">
   <path d="M 0,0 C 6.845,3.067 16.504,5.199 23.043,5.799 24.442,5.928 25.164,5 24.833,3.951 16.55,2.773 8.127,1.82 0,0" fill="#232528"/>
  </g>
  <g transform="matrix(.3298 0 0 -.3298 49.444 56.273)">
   <path d="m0 0c0.703 7.397 3.913 17.026 7.589 24.449-5.726-3.807-10.999-7.625-17.461-14.337-1.81-1.88-2.398-1.662-1.621 0.856 1.89 6.133 8.526 14.381 15.847 20.205-7.408-0.885-13.394-1.937-20.51-3.579-2.264-0.518-3.1-0.221-0.844 1.757 7.535 6.605 16.918 9.748 27.407 10.187 10.601 9.774 19.044 15.263 27.511 20.086 3.39 1.931 4.117 0.53 0.699-1.354-7.742-4.268-16.289-10.557-26.875-19.903-0.566-0.5-1.072-0.651-1.704-0.675-9.464-0.355-17.509-3.115-24.309-8.119 6.563 1.485 12.525 2.455 20.566 3.372 2.461 0.281 2.74-0.18 0.609-1.765-6.773-5.067-13.298-13.108-15.785-17.879 5.756 5.842 11.618 9.993 17.654 13.786 1.718 1.08 2.257 0.693 1.264-1.251-4.158-8.134-6.931-16.452-8.052-22.379 4.171 8.053 8.907 16.233 12.917 21.894 1.088 1.541 1.834 1.333 1.639-0.767-0.695-7.609-0.943-16.538-0.207-21.578 1.976 7.533 3.935 17.761 6.089 29.357 0.115 0.615 0.241 0.768 0.83 1.121 16.002 9.552 31.607 19.183 37.758 25.134 1.908 1.846 1.826 2.849-0.936 3.992-19.351 8.006-38.068 9.993-57.556 6.521-3.757-0.669-4.018 0.725-0.273 1.484 19.622 3.975 39.124 1.942 58.506-6.385 4.446-1.909 4.238-4.253 1.419-6.946-6.312-6.026-21.895-15.859-38.038-25.492-2.088-11.247-4.346-22.291-7.096-31.993-0.501-1.764-1.255-1.793-1.69 0.131-1.491 6.614-1.104 16.34-0.503 22.578-3.743-5.545-9.024-14.58-13.116-22.862-0.971-1.968-1.954-2.015-1.728 0.354" fill="#0f141b"/>
  </g>
  <g transform="matrix(.3298 0 0 -.3298 58.724 38.929)">
   <path d="m0 0c-7.657-0.596-18.563-2.075-27.68-3.848-3.511-0.683-4.055 0.626-0.277 1.49 9.116 2.085 20.669 3.703 30.997 4.457z" fill="#0f141b"/>
  </g>
  <g transform="matrix(.3298 0 0 -.3298 64.427 41.124)">
   <path d="m0 0c-4.821 1.062-10.794 1.297-16.932 0.792-1.296-0.107-1.495 0.335-1.268 1.219 0.403 1.583 0.89 3.291 1.459 5.233l1.975 1.23c-0.734-2.425-1.136-4.211-1.542-5.857 6.688 0.535 13.215 0.048 18.335-1.248z" fill="#0f141b"/>
  </g>
 </g>
</svg>
