<?xml version="1.0" encoding="UTF-8"?>
<!-- Created with Inkscape (http://www.inkscape.org/) -->
<svg version="1.1" viewBox="0 0 81.154 89.316" xmlns="http://www.w3.org/2000/svg">
 <path class="st0" d="m68.695 9.4705c-0.71438-0.23812-1.6404-0.21167-2.6723 0.026458 0.66146-0.87312 1.1642-1.8521 1.1112-2.6723-0.21167-3.9423-6.059-6.7469-7.62-6.0325-0.68792 0.3175-1.0848 1.6933-1.4023 3.519-0.50271-2.1167-1.1906-3.7571-2.3548-3.9952-1.3758-0.26458-4.3656 1.9315-6.3235 4.736-0.58208 0.82021-0.74083 1.7462-0.47625 2.9633l1.0319 10.716c0.76729 1.561 2.1167 2.7252 2.9633 2.6723 1.2965-0.10583 3.0692-0.89958 4.3656-2.4342 0.26458 1.8256 0.87312 3.7042 1.7727 4.2862 0.76729 0.47625 2.196 0.29104 3.3867-0.37042l7.8581-11.483c-0.37068-0.9525-0.84667-1.6669-1.6404-1.9315" fill="#fff" stroke-width=".26458"/>
 <g stroke-width=".26458">
  <path class="st1" d="m78.352 26.007c0.84667-2.7252-0.34396-8.5196-2.3019-8.9429-0.42333-0.07938-1.0319 0.60854-1.5081 1.4288 0.02646-1.5081-0.29104-2.7517-0.89958-3.7306-2.3548-3.7571-5.9267-4.8683-7.4083-3.8365-0.74083 0.52917-1.2171 2.5135 0.39688 5.3181-1.4288-1.1642-2.8046-1.6669-3.4925-1.5875-2.249 0.3175-1.9579 7.8317 0.47625 9.869 0.44979 0.39688 0.87312 0.66146 1.2435 0.84667-1.1377 0.58208-1.3494 1.9579-1.1377 3.2544 0.52917 3.2279 2.6458 5.9796 4.3392 5.7679 1.1377-0.13229 2.6458-2.0108 3.2808-4.4185 0.44979 1.561 1.3758 2.9898 2.4606 3.466 1.9844 0.89958 4.2862-1.27 4.3656-3.9158 0-0.66146-0.55562-1.7462-1.4817-2.54 0.74083 0.13229 1.3756-0.07938 1.6669-0.97896" fill="#ef87b4"/>
  <path class="st2" d="m62.345 77.31c1.9579 1.1112 4.3656 0.79375 5.08-0.21167 0.60854-0.87312 0.635-2.3548 0.23812-4.3656 0.66146 1.3229 1.4817 2.4871 2.3548 2.4871 1.1377 0 2.3283-1.4023 3.0162-2.9898 0.635-1.5081 0.84667-3.2015 0.15875-3.9688-0.29104-0.29104-1.3758-0.55562-2.6723-0.60854 1.0583-0.34396 1.8521-0.87312 2.0902-1.4552 0.39688-0.9525-0.05292-6.9585-2.2754-6.9585-0.97896 0-2.0108 0.87312-2.9104 2.6723 0.79375-4.2333 0.52917-6.5617-0.76729-6.7998-3.0162-0.60854-7.1173 3.6777-6.6146 6.694 0.15875 0.87312 0.635 1.905 1.2965 2.7781-1.2435-0.635-2.249-0.87312-2.8575-0.58208-1.0054 0.50271-1.4023 3.6248-0.13229 6.35z" fill="#e8390e"/>
  <path class="st3" d="m79.648 42.464c-0.52917-0.15875-1.7198 0.18521-2.831 1.4817 0.10583-2.1431-0.21167-4.101-0.79375-4.9212-1.1377-1.561-3.2279-2.9104-5.3181-2.7252-1.561 0.13229-1.905 1.2171-1.3758 3.2808-0.50271-0.55562-1.0583-0.84667-1.5081-0.76729-0.87312 0.13229-1.6404 2.1431-1.8256 4.3921-0.18521 2.1167 0.15875 4.4185 1.4023 5.6356 0.39688 0.37042 0.82021 0.60854 1.4817 0.82021-1.4817 0.15875-2.3548 0.89958-2.6988 1.8256-0.42333 1.0848-0.02646 2.884 0.66146 4.5244 0.84667 1.9844 2.1431 3.7571 2.9633 3.7306 0.82021-0.05292 2.1696-1.0054 3.1485-3.0427 0.10583 2.5929 1.561 4.9477 2.8046 4.9212 1.614-0.02646 3.2544-4.2862 3.2015-7.1967 0-0.68792-0.44979-1.7198-1.0319-2.6194 0.58208 0.29104 1.2435 0.29104 1.6669 0 1.0057-0.68792 2.3286-8.6254 0.05292-9.3398" fill="#fff200"/>
 </g>
 <g stroke-width=".26458">
  <path class="st0" d="m60.36 70.616c-1.0848-1.0583-2.0902-0.74083-2.7517 0.74083-0.10583 0.23812-0.21167 0.47625-0.3175 0.71438 0.18521-1.3758-0.07937-2.3283-0.76729-2.7781-1.1112-0.74083-3.4131-0.29104-5.5033 0.66146-2.249 1.0319-4.2333 2.6723-4.2333 4.0746 0 0.13229 0.02646 0.23812 0.02646 0.37042-1.3494 0.26458-2.7517 0.82021-3.466 1.6669-0.87312 1.0319-0.76729 5.6092 0.55562 6.5617 0.44979 0.34396 1.1906 0.50271 1.9844 0.39688-0.37042 1.2435-1.2435 2.6458-2.4606 3.6512 1.3758 1.4023 4.4185 1.905 5.9796 0.79375 0.92604-0.635 1.5875-1.561 2.0902-2.54 0.10583 1.4552 0.60854 2.6988 1.4552 2.9104 2.6458 0.68792 7.3025-2.6988 7.2231-4.9477-0.02646-0.60854-1.2435-1.6669-2.5135-2.0373 2.5135-0.66146 4.2598-1.9579 4.5773-3.2015 0.50271-1.7727-0.37042-5.6092-1.8785-7.0379" fill="#fff"/>
  <path class="st1" d="m44.194 80.723c0.47625-0.52917 0.84667-1.27 0.9525-2.2754 0.44979-4.3127-3.9158-7.964-5.9796-7.62-0.9525 0.15875-1.6404 0.9525-2.0902 2.0902-0.05292-1.0848-0.37042-2.1431-1.0583-2.8575-1.5875-1.614-8.7048 0.52917-8.4931 3.7571 0.02646 0.58208 0.21167 1.2171 0.55562 1.8256-1.7462-0.29104-3.3867 0.52917-3.8365 1.4023-1.0848 2.0902 1.905 7.1438 3.9158 7.4612 0.37042 0.05292 0.74083 0.05292 1.1377 0-0.52917 0.74083-0.44979 1.561 0.05292 2.1696 1.6933 2.0902 5.715 2.9104 6.8262 1.9315 0.47625-0.44979 0.84667-1.1377 0.82021-2.1696 1.1642 1.0848 3.0956 1.8785 4.4185 1.4817 2.1696-0.60854 4.2598-3.2808 4.6038-5.0271 0.18547-1.1642-0.52917-2.0638-1.8256-2.1696" fill="#ef87b4"/>
  <path class="st3" d="m32.552 66.435c-0.21167-1.27-1.1377-1.9844-2.54-1.8256 0.13229-0.3175 0.21167-0.635 0.29104-0.9525 0.71438-3.2808-0.82021-8.4931-2.9633-9.181-2.3283-0.76729-5.371 1.4817-6.9321 6.2177-0.29104-1.6404-0.87312-3.3867-2.0108-4.1804-1.8256-1.27-4.2069-0.52917-6.2706 1.2965-2.0902 1.8256-2.5665 4.789-1.7198 6.5087 0.44979 0.89958 1.0583 1.3229 1.905 1.561-1.7198 0.29104-2.6987 1.0848-2.9104 2.3283-0.44979 2.3812 1.7992 7.5671 4.0217 7.4877 0.9525-0.02646 2.196-0.55562 3.0956-1.614-0.37042 2.2754-0.23812 4.3921 0.50271 5.1065 1.8256 1.7462 7.276 0.42333 8.0169-1.4817 0.34396-0.89958 0.07937-2.3548-0.39688-3.6512 1.4552 1.3229 2.831 1.7727 4.0746 1.5081 2.8048-0.55562 4.3923-5.9796 3.8365-9.1281" fill="#fff200"/>
  <path class="st4" d="m30.727 22.012c-0.3175 0.58208-0.79375 0.9525-1.3229 1.0054-1.6669 0.18521-3.2015-3.1485-2.8046-6.8262v-0.02646c-3.3867 0.18521-6.35-0.84667-7.8052-3.0692-1.8256 1.3758-3.3602 2.0108-4.4185 2.0638-1.2965 2.0108-1.905 4.2598-1.8256 6.5088 0.15875 5.6885 4.6567 11.165 11.668 11.298 4.0746 0.07937 8.9429-2.196 10.901-7.4612-1.1115 0.10583-3.1485-1.1642-4.3921-3.4925" fill="#edee96"/>
  <path class="st5" d="m26.599 16.191s0-0.02646 0.02646-0.02646c-3.3867 0.18521-6.35-0.84667-7.8052-3.0692-1.9315 1.4552-3.4131 2.1167-4.4979 2.0902-0.97896 1.5081-1.4023 3.6512-0.82021 5.424 0.89958-0.15875 1.905 0.635 2.2225 2.5135 1.0054-0.47625 2.8575 0 3.7042 2.1431 1.0583-1.1112 3.3867-1.1377 4.2598 1.1112 2.0638-0.52917 3.8365-1.7727 4.8683-3.5454-1.2965-0.76729-2.3019-3.5719-1.9579-6.641" fill="#fed23f"/>
  <path class="st4" d="m17.763 14.868c-0.74083-0.29104-1.8521 0.52917-2.5929 2.3548-0.52917 1.2965-0.18521 2.4077 0.37042 2.6723 0.50271 0.23812 1.1906 0.05292 1.9844-1.6669 0.8464-1.8256 0.76729-3.1485 0.23812-3.3602" fill="#edee96"/>
  <path class="st4" d="m24.8 17.699c-0.89958-0.21167-2.0373 0.92604-2.6194 3.2544-0.3175 1.2435-0.02646 2.196 0.76729 2.4342 0.82021 0.23812 1.7462-0.21167 2.249-1.7462 0.74083-2.3548 0.37068-3.7306-0.39688-3.9423" fill="#edee96"/>
  <path class="st6" d="m20.223 22.514c0.13229-0.58208-2.4606-1.9315-2.884-1.7198-0.34396 0.15875-0.15875 1.5081 0.68792 1.9844 0.89958 0.50271 2.1169 0.13229 2.196-0.26458" fill="#f2879c"/>
 </g>
 <g fill="#fff" stroke-width=".26458">
  <path class="st0" d="m17.709 15.027c-0.34396-0.18521-0.89958 0.05292-1.27 0.66146-0.34396 0.58208-0.29104 1.2435-0.02646 1.4552 0.29104 0.21167 0.82021 0.05292 1.2171-0.58208 0.52943-0.84667 0.34396-1.4023 0.07937-1.5346"/>
  <path class="st0" d="m24.721 17.831c-0.39688-0.10583-1.0054 0.29104-1.2171 1.1906-0.18521 0.84667 0.10583 1.4552 0.52917 1.5875 0.42333 0.10583 0.92604-0.34396 1.1377-1.1642 0.23812-0.89958-0.02646-1.5081-0.44979-1.614"/>
  <path class="st0" d="m19.641 66.356c-0.60854-1.7992-2.3283-3.7042-3.9952-4.445 0.07937 2.1696 1.0054 4.1275 2.6194 5.4769-1.5081 0.55562-2.8046 1.7727-3.7042 3.3073 1.4288-0.05292 2.7781-0.3175 3.9952-0.89958-0.05292 2.0638 0.44979 4.101 1.7462 5.3181 0.3175-1.6669 0.42333-3.3867 0.26458-5.2123 1.2965 0.74083 3.7571 0.97896 5.0535 0.37042-1.3494-1.0848-3.1221-1.9579-4.9212-2.4871 1.9844-1.2965 3.8629-3.4396 4.5508-5.2652-2.0106 0.34396-4.3656 1.8521-5.6092 3.8365"/>
  <path class="st0" d="m35.701 79.4c-0.47625-1.8256-1.5875-3.6248-2.7781-4.3921-0.18521 1.3494 0.05292 3.2808 0.82021 4.8948-1.2171 0.58208-2.6194 0.87312-3.7306 1.1112 1.1906 0.76729 2.3812 1.0054 3.9158 0.79375-0.13229 1.2435-0.02646 2.6987 0.47625 3.5454 0.635-0.60854 1.0319-1.7462 1.0583-2.8575 1.4817 1.27 3.3602 1.5081 4.8948 1.3229-1.4552-0.89958-2.5135-1.8785-3.3867-2.8046 1.6669-0.74083 2.7781-2.4606 3.1221-4.0746-1.5079 1.1906-2.6723 1.7727-4.3921 2.4606"/>
  <path class="st0" d="m52.291 79.056c-1.5875 0.07937-3.3338-0.07937-5.1065-0.50271 0.79375 1.4023 2.6723 2.3019 4.7625 1.9579-1.3494 0.87312-2.5665 2.6458-3.0956 4.0217 1.4023-0.15875 3.0427-1.614 4.0217-3.175 0.84667 1.1906 1.9579 2.0373 3.519 2.3548-0.71438-1.5081-1.5081-2.5135-2.5929-3.5454 2.1431-0.60854 3.8894-1.8785 4.4715-3.2544-1.5081-0.10583-3.0956 0.52917-4.6038 1.905 0.10583-1.561-0.52917-3.4131-1.614-4.1804-0.39714 1.1377-0.31776 2.6723 0.23812 4.4185"/>
  <path class="st0" d="m74.78 49.767c0.37042-2.4606 0.15875-5.0535-0.68792-7.3554-0.60854 2.3019-0.68792 4.736-0.10583 7.0115-0.9525-1.4023-2.6458-3.0692-3.9952-3.466 0.97896 1.8256 2.2754 3.466 3.7571 4.7096-1.3758 0.92604-2.5665 2.4871-3.2015 4.1804 1.1906-0.18521 2.7781-1.3494 3.5983-2.831 0.21167 1.7462 0.87312 3.3073 1.7462 4.2598 0.3175-0.97896 0-3.2808-0.68792-5.2388 1.1642-0.76729 2.1696-1.8256 2.6458-2.831-1.1115 0.10583-2.2492 0.74083-3.0692 1.561"/>
  <path class="st0" d="m72.531 23.573c0.635-2.2754 0.15875-5.424-1.27-6.641-0.26458 1.905-0.23812 3.8365 0.26458 6.2442-1.27-1.4817-3.4925-2.3548-5.0535-2.249 0.68792 1.4023 2.4871 2.6723 4.1275 3.2279-1.2965 1.0054-2.0902 2.54-2.4077 4.1275 1.2171-0.55562 2.7252-2.0108 3.3867-3.466 0.42333 1.7727 1.4288 3.3073 2.7517 4.0746-0.02646-1.3229-0.42333-3.0956-1.614-4.2862 1.0848-0.10583 2.2754-0.44979 2.831-1.614-1.0851-0.52917-2.1963-0.34396-3.0162 0.58208"/>
 </g>
 <g stroke-width=".26458">
  <path class="st4" d="m54.804 7.1422c-5.1329 1.9579-8.7312 0.92604-14.579-3.0692-5.08-3.466-10.16-4.4715-15.928-2.5929-5.5033 1.7727-7.7258 6.7204-5.9002 10.848 2.0902 4.7096 10.028 5.1065 16.378 1.2435l4.3656 6.9321c2.1696 1.905 6.2442 1.9844 8.0698 1.2435 1.6404-0.66146 1.9579-1.905 0.60854-2.6723 1.5875 0.02646 3.2808-0.50271 4.5244-1.561 1.6669-1.3758 1.2435-2.5929-0.66146-2.5929-1.1642 0-2.1167-0.05292-3.0692-0.23812 3.6512-0.21167 7.3025-2.0902 8.3608-5.4504 0.63474-2.1431-0.39688-2.7781-2.1696-2.0902" fill="#edee96"/>
  <path class="st7" d="m41.813 18.043c-0.02646-0.68792-1.0054-1.7198-2.7517-1.905 0.42333-0.37042 0.66146-0.82021 0.635-1.27-0.02646-0.76729-1.561-2.0638-4.101-1.9579-2.6194 1.9579-6.2706 3.1221-9.0223 3.2808-0.39688 3.7042 1.1377 7.0115 2.8046 6.8262 0.52917-0.05292 1.0054-0.42333 1.3229-1.0054 1.4288 2.6723 3.9423 3.9688 4.8154 3.3338 0.37042-0.26458 0.58208-0.74083 0.66146-1.2965 0.9525 0.76729 2.1696 0.97896 2.6723 0.58208 0.68792-0.52917 0.44979-2.4606-0.39688-3.7042 1.9317-0.50271 3.3869-1.8256 3.3602-2.884" fill="#fff9b1"/>
  <path class="st7" d="m18.635 5.978c-1.9844-1.0054-3.519-1.0054-3.9952-0.58208-0.39688 0.34396-0.29104 1.5081 0.29104 2.4077-2.8046-0.66146-4.8683 0.21167-5.1065 1.2171-0.18521 0.76729 0.44979 2.4342 2.0638 2.9633-1.3229 0.74083-1.7462 1.7198-1.5875 2.3812 0.21167 0.79375 1.6404 1.2435 3.3338 0.74083 1.0054 0.3175 2.884-0.23812 5.1858-1.9844-1.3494-2.1167-1.3494-4.9212-0.18521-7.1437" fill="#fff9b1"/>
  <path class="st4" d="m29.245 27.012c-1.3758 4.3921-5.5562 9.1281-10.001 10.266l-5.0006-3.9688c0.23812-0.71438 1.3494-1.0848 3.6248-1.27 3.175-0.26458 7.0908-2.1696 9.5779-5.5827 0.92604-1.27 2.2228-0.87312 1.7992 0.55562" fill="#edee96"/>
  <path class="st4" d="m13.608 26.139c-0.39688-0.89958-0.71438-1.8256-0.87312-2.7781-2.8575 2.196-4.2862 6.1648-3.7042 10.028l4.3392-0.07937c0.42333-0.9525 0.39688-1.7198 0.18521-2.5135-0.34396-1.3758-0.3175-3.0692 0.05292-4.6567" fill="#edee96"/>
  <path class="st2" d="m23.795 50.56c0.71438-0.21167 1.3494-0.60854 1.7992-1.3494 2.3812-3.8365 1.6933-9.869-1.8256-10.266-1.2965-0.15875-3.2808 0.55562-4.8419 1.6933 0.79375-1.4817 1.0583-2.9633 0.71438-3.8894-1.7727-4.4715-10.769-5.5827-12.726-2.6988-0.68792 1.0319-0.635 3.8894 0.052917 6.3235-1.3494-1.0319-3.0427-1.5875-4.445-1.2171-1.4817 0.42333-2.6723 3.2544-2.0373 7.0908 0.47625 2.9369 1.8521 5.6885 3.5719 5.8473 0.42333 0.05292 0.84667-0.02646 1.2965-0.15875-1.1112 1.4023-1.7198 3.0162-1.3494 4.445 0.76729 2.9369 8.2021 4.9477 10.028 2.0108 0.29104-0.47625 0.42333-1.27 0.34396-2.3019 0.82021 1.27 2.249 2.5665 3.5719 2.6723 3.3338 0.23812 7.5142-2.3812 7.911-5.5562 0.15901-1.2171-0.63474-2.1431-2.0638-2.6458" fill="#e8390e"/>
  <path class="st0" d="m13.582 46.459c-0.9525-1.6404-1.6933-4.2598-1.9579-6.641-1.3229 1.7462-1.5346 4.6038-0.74083 6.8262-1.7992-1.0054-3.9688-1.4023-6.0325-1.0054 1.1377 1.6404 3.4925 3.0427 6.3235 3.0427-1.4023 1.3758-2.0108 3.6777-1.7992 5.4769 1.2171-0.76729 2.4871-1.9844 3.2544-4.0481 1.27 1.6669 3.0162 2.831 5.1594 3.2015-0.58208-1.7727-2.196-3.6248-3.9952-4.6831 2.3283 0.07937 4.9212-0.84667 6.1912-2.6988-1.9317-0.39688-4.2862-0.23812-6.4029 0.52917" fill="#fff"/>
 </g>
 <g fill="#d3edfb" stroke-width=".26458">
  <path class="st8" d="m62.054 15.715c-0.87312-0.97896-1.8256-1.7727-2.9898-2.4077 0.87312 0 1.2965-0.39688 1.1642-1.0054-0.15875-0.74083-0.68792-0.89958-1.6404-0.71438-0.76729 0.15875-1.9844 0.18521-2.9898 0-0.26458 0.29104-0.55562 0.55562-0.87312 0.82021 2.5135 0.89958 5.4504 2.54 7.0115 4.445 0.07964-0.42333 0.15875-0.79375 0.3175-1.1377"/>
  <path class="st8" d="m74.383 37.437c0.05292-1.27-0.07937-2.5665-0.37042-3.9158-0.39688-0.13229-0.87312-0.42333-1.3229-0.9525 0.42333 1.5346 0.58208 2.7252 0.635 4.2598 0.37015 0.15875 0.71438 0.37042 1.0583 0.60854"/>
  <path class="st8" d="m72.981 56.646c-0.37042 0.76729-0.76729 1.3758-1.1906 1.8521-0.55562 2.0373-1.1112 3.519-1.905 4.9742-1.1112 2.0638-2.249 3.0956-3.81 3.4396-0.76729 0.18521-0.92604 0.3175-1.1112 0.71438-0.15875 0.39688-0.21167 0.60854-0.29104 0.92604-0.10583 0.47625 0.18521 0.66146 0.84667 0.44979 0.44979-0.13229 0.76729-0.26458 1.1642-0.47625-1.4288 1.5081-3.1485 2.9369-5.1065 4.1275 0.10583 0.29104 0.21167 0.60854 0.3175 0.92604 5.8208-3.519 9.3662-9.234 11.192-15.637-0.02646-0.42333-0.07964-0.84667-0.10583-1.2965"/>
 </g>
 <g fill="#cdcf84" stroke-width=".26458">
  <path class="st9" d="m40.94 19.657c2.4077 1.6404 6.8792 1.4817 7.5671 0.10583 1.1377 1.9844-4.9477 3.8365-9.0752 0.87312 0.60881-0.3175 1.0319-0.58208 1.5081-0.97896"/>
  <path class="st9" d="m53.217 15.582c-0.55562 1.4552-4.0217 3.1485-6.7998 2.5665-0.50271-0.10583-0.82021 0.3175-0.50271 0.60854 4.4183 1.1642 8.0962-1.7992 7.3025-3.175"/>
  <path class="st9" d="m46.761 14.18c5.424-0.37042 10.028-3.5983 10.16-6.6675 0.68792 3.4925-3.3073 6.7204-8.2021 7.1702-0.58208-0.10583-1.402-0.34396-1.9579-0.50271"/>
  <path class="st9" d="m17.974 9.8409c1.0054 4.0217 4.4979 5.6621 8.4931 5.3975 6.8262-0.44979 12.356-4.8419 11.827-9.0223 2.249 3.8629-4.4185 9.7896-11.827 9.9748-6.35 0.15875-8.6516-3.2544-8.4931-6.35"/>
  <path class="st9" d="m29.827 4.364c1.0583 0.15875 1.4552 2.0108 0.58208 3.5719-0.44979 0.47625-0.92604 1.1642-1.3229 1.7727-0.29104 0.15875-0.68792-0.15875-0.29104-0.71438 1.1112-1.561 2.064-3.2544 1.0319-4.6302"/>
  <path class="st9" d="m24.403 9.7351c-0.18521 0.23812-0.60854 0.079375-0.52917-0.39688 0.15875-1.2965-0.10583-2.831-0.79375-3.466 0.82021 0.15875 1.561 1.4023 1.5875 2.8575-0.13229 0.3175-0.21167 0.71438-0.26458 1.0054"/>
 </g>
 <g fill="#dcd699" stroke-width=".26458">
  <path class="st10" d="m26.573 16.164c3.6512-0.34396 6.7998-1.4288 9.1546-3.2808 0.21167 0 0.60854 0.07937 0.79375 0.10583-2.1696 2.1696-5.9531 3.519-8.7577 3.8894-0.26458 0.02646-0.3175 0.13229-0.3175 0.37042-0.02646 3.0956 1.4552 6.0325 3.0162 4.9477-1.2965 2.0902-4.0479 0.29104-3.8894-6.0325"/>
  <path class="st10" d="m13.106 14.021c0.47625 0.89958 2.831 0.42333 5.2388-1.7198 0.13229 0.3175 0.26458 0.55562 0.42333 0.79375-4.3656 3.175-6.1383 2.0373-5.6621 0.92604"/>
  <path class="st10" d="m10.433 13.704c0.21167 0.71438 1.2435 1.0054 2.54 0.66146 0.02646 0.26458 0.21167 0.55562 0.50271 0.68792-2.4074 0.74083-3.4131-0.3175-3.0427-1.3494"/>
  <path class="st10" d="m10.01 8.809c0.10583 1.0848 1.0583 2.3813 2.54 2.6458 0.42333 0.07938 0.55562 0.52917 0.15875 0.68792-2.3286-0.29104-3.1485-2.0902-2.6988-3.3338"/>
  <path class="st10" d="m14.773 5.5017c-0.10583 0.52917 0.23812 1.7727 0.89958 2.4342-0.26458-0.079375-0.50271-0.13229-0.82021-0.18521-0.31776-0.58208-0.60854-1.905-0.07938-2.249"/>
  <path class="st10" d="m39.485 14.55c-0.07937 1.27-2.5929 2.1167-5.2388 2.1696-0.60854 0-0.79375 0.39688-0.50271 0.635 4.1278 0.29104 6.7469-1.5081 5.7415-2.8046"/>
  <path class="st10" d="m41.443 17.54c0.21167 1.0848-1.8256 2.6458-3.9952 2.9104-0.47625 0.05292-0.55562 0.52917-0.21167 0.66146 3.7039-0.37042 5.1329-2.4606 4.2069-3.5719"/>
  <path class="st10" d="m36.045 22.276c0.87312 1.3758 2.9104 2.1431 3.2015 1.0848 0.23812 1.5875-1.2435 2.0373-2.9898 0.71438 0.02672-0.66146-0.02646-1.2171-0.21167-1.7992"/>
  <path class="st10" d="m31.124 20.795c1.3229 2.9104 4.2598 4.6831 4.9742 3.3073 0 3.0692-4.445 0.34396-5.371-2.1167 0.15849-0.3175 0.26458-0.60854 0.39688-1.1906"/>
 </g>
 <path class="st11" d="m17.895 13.757c1.7198 2.4606 4.8419 3.7835 8.599 3.4925 0-0.23812 0.02646-0.76729 0.07937-1.0848-3.466 0.18521-5.9796-0.71438-7.7788-3.0692-0.34422 0.3175-0.55589 0.47625-0.89958 0.66146" fill="#d9b636" stroke-width=".26458"/>
 <g fill="#cdcf84" stroke-width=".26458">
  <path class="st9" d="m19.191 31.828c1.4023-0.29104 2.884-0.87312 4.2862-1.7462-4.445-0.05292-8.89-2.249-10.742-6.985 0.58235 4.2862 3.2015 7.2231 6.4558 8.7312"/>
  <path class="st9" d="m33.77 25.213c-1.27 1.905-3.2279 3.2808-5.4769 4.0746-0.635 1.2435-1.4817 2.4606-2.4606 3.5719 3.9158-0.47625 7.62-2.831 9.234-7.3554-0.44979 0.02646-0.92631-0.13229-1.2965-0.29104"/>
  <path class="st9" d="m18.106 34.659c4.5508-0.23812 8.8635-4.1804 10.583-7.8846 0.18521-0.37042 0.52917-0.37042 0.635-0.13229-1.4817 4.5508-5.3181 9.2604-9.6044 10.504-0.21167-0.82021-0.82021-1.7727-1.614-2.4871"/>
  <path class="st9" d="m11.016 25.028c0.87312 0 1.2171 1.0848 0.84667 2.1431-0.52917 1.4817-0.68792 3.7306-0.50271 5.2917 0.66146 0.02646 1.6669 0.15875 2.249 0.29104 0.21167-0.58208 0.18521-1.1906-0.05292-1.9844-0.37042-1.3494-0.3175-2.9898 0.05292-4.6038-0.39688-0.89958-0.66146-1.614-0.89958-2.7252-0.60881 0.37042-1.1112 0.92604-1.6933 1.5875"/>
 </g>
 <path class="st12" d="m17.286 21.641c0.71438-0.3175 2.0108 0.55562 2.2225 1.3229 0.37042-0.07937 0.74083-0.3175 0.74083-0.50271 0-0.52917-2.4077-1.905-2.884-1.6404-0.13229 0.10583-0.18547 0.52917-0.07937 0.82021" fill="#d07588" stroke-width=".26458"/>
 <g fill="#dcdede" stroke-width=".26458">
  <path class="st13" d="m43.48 86.729c2.884 2.3283 6.9056 1.6669 8.2021-2.2754-1.5875 2.6194-4.154 3.3073-6.4029 2.249-0.23812-0.10583-0.23812-0.3175-0.10583-0.58208 0.42333-0.79375 0.87312-2.0373 0.9525-3.1221-0.50297 1.1642-1.5613 2.8046-2.6458 3.7306"/>
  <path class="st13" d="m51.894 84.242c0.18521 1.2435 0.58208 2.4342 1.561 2.6458 2.196 0.44979 5.8473-2.249 6.059-3.81 0.05292-0.42333 0.02646-0.84667-0.34396-1.2435 0.66146 0.26458 1.0319 0.71438 1.0319 1.27-0.07937 2.5665-5.1065 5.6621-7.4348 4.6831-0.76729-0.3175-1.2171-1.7727-1.2171-2.7781 0.13229-0.3175 0.21167-0.47625 0.34396-0.76729"/>
  <path class="st13" d="m46.02 82.443c0.37042 0.05292 1.0054 0.07937 1.4552 0-0.50271 0.3175-1.0848 0.50271-1.5346 0.55562z"/>
  <path class="st13" d="m56.762 80.59c2.4077-0.74083 4.3921-2.1431 4.6831-3.0692 0.44979-1.4288 0.52917-2.196 0.3175-3.6512 0.47625 1.1377 0.97896 2.7252 0.39688 4.0217s-2.5135 2.5135-4.5244 2.9898c-0.29104-0.13229-0.58182-0.18521-0.87312-0.29104"/>
 </g>
 <g fill="#c72f07" stroke-width=".26458">
  <path class="st14" d="m6.4115 51.566c-1.1112 1.6669-1.5081 3.2015-1.27 4.3921 0.34396 1.7992 4.9213 3.2279 7.0115 2.54 1.1642-0.37042 1.7727-1.561 1.6933-3.3867l0.55562 0.97896c0.05292 1.7727-0.34396 3.1485-2.0108 3.519-3.8894 0.87312-7.8317-1.3758-8.3079-3.1221-0.39688-1.3494 0.23812-3.3073 1.2171-4.5244z"/>
  <path class="st14" d="m0.48513 43.813c0.37042 2.9369 1.9315 6.6675 3.4131 7.1967 0.87312 0.3175 1.9315 0.29104 3.175 0.02646-0.9525 0.66146-2.3283 1.3229-3.4131 0.9525-2.2757-0.79375-3.5457-5.5562-3.175-8.1756"/>
  <path class="st14" d="m13.794 54.767c1.27 1.5081 2.7517 2.831 4.3392 2.9898 2.5929 0.29104 6.9321-2.196 7.4612-5.5033 0.89958 3.2808-3.7571 6.9321-7.7258 6.5352-1.2703-0.13229-3.2017-1.6669-4.0746-4.0217"/>
  <path class="st14" d="m20.567 50.296c1.5346 0.05292 3.0162-0.39688 3.7571-1.0583 1.2435-1.1377 2.3548-3.9423 2.3812-5.9796 0.39688 1.9844-0.15875 4.9742-1.4288 6.3235-1.1906 1.2435-2.9631 1.4288-4.7096 0.71438"/>
 </g>
 <g fill="#e1d201" stroke-width=".26458">
  <path class="st15" d="m10.301 60.667c1.5346 0.26458 3.8629-0.44979 4.6302-2.0902 0.10583-0.23812 0.21167-0.23812 0.39688-0.07937 1.2435 1.0319 3.1221 1.561 4.789 0.9525l-0.26458-0.79375c-1.614 0.58208-3.81 0.05292-5.4504-2.4871 0.18521 2.1431-0.79375 3.7042-3.81 3.6777z"/>
  <path class="st15" d="m20.938 59.397c2.0373-0.71438 4.3656-2.249 4.789-4.789-0.82021 1.2435-2.4077 2.884-4.2598 3.5454-0.15902 0.3175-0.31776 0.79375-0.52917 1.2435"/>
  <path class="st15" d="m9.7188 70.245c1.0848 2.884 2.884 4.4185 3.5454 4.4715 0.79375 0.07937 2.2225-0.34396 3.3602-1.4552l-0.10583 0.84667c-1.1112 1.0583-2.4606 1.7198-3.3867 1.561-1.3758-0.23812-2.9895-2.5665-3.4131-5.424"/>
  <path class="st15" d="m16.73 73.473c-0.02646 1.905 0.23812 3.7042 0.84667 4.7625 0.97896 1.6669 6.1383 0.52917 6.7204-0.97896 0.23812-0.66146 0.15875-2.4871-0.29104-3.7835l0.52917 0.47625c0.68792 1.4023 1.0054 3.3338 0.13229 4.2598-1.8785 2.0902-6.6675 2.3019-7.8052 0.82021-0.68765-0.84667-0.79375-3.9952-0.13229-5.5562"/>
  <path class="st15" d="m24.271 73.579c1.7992 1.0848 3.5454 1.27 4.445 0.87312 1.8785-0.84667 3.4131-4.2069 3.6777-7.0908 0.3175 4.445-1.5346 7.5671-3.5454 8.1492-1.1906 0.34396-3.3338-0.26458-4.5773-1.9315"/>
 </g>
 <g stroke-width=".26458">
  <path class="st14" d="m5.8824 39.792c0.37042 0.97896 1.1906 2.2754 2.0108 2.9369-0.34396-0.74083-0.68792-1.5346-0.89958-2.3283-0.39688-0.29104-0.68765-0.42333-1.1112-0.60854" fill="#c72f07"/>
  <path class="st15" d="m10.354 63.445c0.42333 1.0583 1.561 1.9579 3.2544 2.2225-0.58208 0.07937-1.0583 0.13229-1.4552 0.23812-1.0586-0.39688-1.7201-1.2171-1.7992-2.4606" fill="#e1d201"/>
  <path class="st15" d="m26.785 66.62c2.4871-0.74083 3.6248-4.0217 3.1221-7.5406 1.2965 4.1804 0.29131 7.5406-3.1221 7.5406" fill="#e1d201"/>
 </g>
 <g fill="#cd739b" stroke-width=".26458">
  <path class="st16" d="m24.35 79.876c0.97896-0.42333 1.9315-1.5081 2.0108-3.0956 0-0.26458 0.07937-0.3175 0.34396-0.23812 0.58208 0.15875 1.2171 0.18521 1.8785-0.02646-0.21167-0.26458-0.39688-0.58208-0.44979-0.82021-0.3175-0.02646-0.71438-0.07937-0.97896-0.15875-0.82021 0.13229-1.3229 0.26458-1.9844 0.60854 0.10583 1.3494-0.23812 2.196-1.1642 2.7252 0.07937 0.3175 0.15902 0.60854 0.34396 1.0054"/>
  <path class="st16" d="m29.007 76.86c1.8256-0.50271 3.2015-2.5135 3.5454-6.35-1.1906 3.6248-2.884 5.1594-4.3921 5.1594 0.2114 0.50271 0.42307 0.82021 0.84667 1.1906"/>
  <path class="st16" d="m25.012 81.014c1.9579 2.6194 4.101 3.3602 6.6675 2.3548-0.92604 0.9525-3.0427 1.3758-3.81 1.0583-1.2433-0.50271-2.1164-1.7992-2.8575-3.4131"/>
  <path class="st16" d="m29.96 84.374c-1.1906 2.4077 3.7571 4.154 5.3446 3.6777 0.55562-0.18521 1.1112-0.97896 1.1112-2.0902l0.50271 0.47625c0.02646 1.3494-0.58208 2.196-1.3229 2.4606-1.6404 0.60854-4.9212-0.52917-6.2177-2.0373-0.635-0.74083-0.66146-1.6404-0.21167-2.3283 0.29131-0.07937 0.50297-0.07937 0.79375-0.15875"/>
  <path class="st16" d="m36.654 86.014c1.3229 0.76729 2.9633 1.1906 4.154 1.0848 1.7727-0.15875 4.0217-2.3019 4.9742-4.5773-0.02646 2.5929-3.0692 5.3975-4.789 5.5033-1.6137 0.07937-3.4925-0.76729-4.3392-2.0108"/>
  <path class="st16" d="m41.284 81.596c2.2225-0.44979 3.7306-2.2225 3.3073-5.6885 1.6404 3.2279-0.60854 6.35-3.3073 5.6885"/>
 </g>
 <g stroke-width=".26458">
  <path class="st13" d="m45.385 77.204c0.26458 1.4023 0.15875 3.0162-0.21167 3.81-0.3175-0.18521-0.60854-0.3175-1.0054-0.3175 0.68792-0.84667 1.1115-2.0108 1.2171-3.4925" fill="#dcdede"/>
  <path class="st13" d="m46.073 74.611c0.23812 0.58208 1.0054 1.4288 1.8785 1.7198-0.52917-0.58208-1.0054-1.2965-1.0848-1.9315-0.23839 0.05292-0.50297 0.13229-0.79375 0.21167" fill="#dcdede"/>
  <path class="st17" d="m71.631 59.292c0.3175 0.15875 0.34396 0.60854 0.15875 1.1642-1.27 3.5719-4.2333 9.4456-9.9219 12.674l0.07937 0.42333c6.1648-3.2279 9.7631-10.451 11.218-15.69-0.07937-0.3175-0.21167-0.76729-0.18521-1.1642-0.29104 0.74083-0.76729 1.3758-1.1906 1.8785-0.05265 0.15875-0.07937 0.47625-0.15875 0.71438" fill="#bed5e2"/>
  <path class="st17" d="m64.726 68.499c0.635-0.02646 1.7727-0.37042 2.7252-0.76729-0.18521 0.21167-0.55562 0.66146-0.71438 0.84667-0.60854 0.26458-1.1642 0.47625-1.5346 0.52917-0.52943 0.05292-0.55562-0.13229-0.47625-0.60854" fill="#bed5e2"/>
 </g>
 <g fill="#e1d201" stroke-width=".26458">
  <path class="st15" d="m73.087 56.117c0.34396 1.9579 1.8256 3.7042 2.54 3.7042 0.97896 0 2.884-2.4606 3.0692-5.6356 0.34396 3.7835-1.4817 7.3819-2.9369 7.3554-1.27-0.02646-2.8308-2.3019-2.6723-5.424"/>
  <path class="st15" d="m66.366 51.592c0.15875 2.5135 2.2225 6.4823 3.4396 6.641 1.0583 0.13229 2.3812-1.1642 3.1485-2.4871l0.02646 0.92604c-0.76729 1.5875-2.3283 2.9633-3.175 2.9898-1.3496 0.02646-4.5776-5.2917-3.4396-8.0698"/>
  <path class="st15" d="m66.314 42.385c-0.05292 3.4131 1.0583 6.4558 4.2862 7.2231-0.71438-0.05292-1.2965-0.02646-1.905 0-2.3812-0.60854-3.1488-4.4185-2.3812-7.2231"/>
  <path class="st15" d="m77.294 51.275c1.4288 0.37042 2.6194 0.05292 3.2808-3.466-0.15875 2.3548-0.58208 3.7042-1.0848 3.9952-0.47625 0.3175-1.27 0.23812-2.196-0.52917"/>
 </g>
 <path class="st17" d="m73.404 33.204c0.29104 1.2965 0.39688 2.6988 0.44979 3.81l-0.52917-0.23812c-0.05292-1.2171-0.21167-2.8575-0.635-4.2333 0.18521 0.29104 0.4236 0.50271 0.71438 0.66146" fill="#bed5e2" stroke-width=".26458"/>
 <g fill="#cd739b" stroke-width=".26458">
  <path class="st16" d="m65.546 25.61c-2.4077 1.7992 0.74083 7.5406 2.3283 7.4612 0.89958-0.05292 2.9898-1.905 3.6777-5.1858 0.13229 2.884-2.0108 6.4823-3.6248 6.5088-2.4606 0.05292-4.3127-4.5244-4.3127-6.5088 0-1.0054 0.42333-2.1431 1.2171-2.5135 0.18521 0.07937 0.37042 0.15875 0.71438 0.23812"/>
  <path class="st16" d="m71.684 28.256c0.34396 2.0638 1.8785 4.1275 2.9898 4.2069 1.5346 0.05292 3.2015-2.0108 3.175-3.6248 0.74083 2.3812-1.0848 4.9212-3.2544 4.8154-1.4552-0.07937-2.7781-1.7198-3.2544-3.7835 0.13256-0.60854 0.23812-1.0319 0.34396-1.614"/>
  <path class="st16" d="m75.785 26.245c1.0848 0.34396 2.4077-0.18521 2.6194-2.2225 0.10583 1.905-0.18521 3.0956-1.6404 3.0427-0.26432-0.23812-0.635-0.55562-0.97896-0.82021"/>
  <path class="st16" d="m62.054 20.583c0.84667 2.6723 2.5929 4.3392 5.0006 4.8419-2.884 0.60854-4.6302-1.4817-5.0006-4.8419"/>
  <path class="st16" d="m66.022 14.815c1.6404 1.1112 3.0692 2.9898 3.466 4.6831-0.84667-1.27-1.9844-2.5665-2.8575-3.3073-0.26432-0.58208-0.47625-1.0319-0.60854-1.3758"/>
 </g>
 <g stroke-width=".26458">
  <path class="st15" d="m70.176 36.59c-0.635 0.58208-0.52917 2.3283 0.21167 4.3656-0.34396-0.52917-0.74083-1.0848-1.1112-1.4288-0.31724-1.7198-0.13203-2.6988 0.89958-2.9369" fill="#e1d201"/>
  <path class="st17" d="m57.503 12.513c0.71438 0 2.0108-0.07937 2.7252-0.26458 0.07938 0.52917-0.02646 0.97896-1.0848 1.0583-0.60881-0.3175-1.0319-0.55562-1.6404-0.79375" fill="#bed5e2"/>
  <path class="st17" d="m55.174 12.037c2.1696 0.84667 4.9477 2.2225 6.641 4.154l-0.07937 0.66146c-1.614-1.9315-5.0006-3.7835-7.0644-4.4185z" fill="#bed5e2"/>
 </g>
 <g fill="#dcdede" stroke-width=".26458">
  <path class="st13" d="m50.941 18.413c0.79375 1.1112 1.4288 1.7462 2.0373 1.8256 0.9525 0.10583 3.0162-0.44979 4.6302-1.7992-1.27 1.5875-4.101 3.0162-4.789 2.9369-1.0319-0.13229-2.0902-1.2171-2.7517-2.6194 0.26458-0.13229 0.50297-0.18521 0.87312-0.34396"/>
  <path class="st13" d="m62.45 22.911c-1.0319 0.50271-2.4871 0.87312-3.3602 0.3175-1.0054-0.66146-1.7198-3.2015-1.7992-4.2862 0.21167-0.21167 0.37042-0.42333 0.58208-0.68792 0.50271 1.6404 1.27 3.4131 1.9579 3.6777 0.21167 0.07937 0.68792 0.05292 1.2435-0.07938 0.15875-0.02646 0.18521-0.10583 0.18521-0.29104-0.10583-1.4023-0.13229-3.6248 0.18521-4.7096-0.02619 1.7462 0.3175 4.3656 1.0054 6.059"/>
  <path class="st13" d="m49.592 5.2372c-0.18521 0.66146-0.05292 1.7992 0.21167 2.831-0.23812 0-0.60854-0.026458-0.79375-0.052917-0.21167-0.9525-0.18521-2.1696 0.58208-2.7781"/>
 </g>
 <g fill="#c72f07" stroke-width=".26458">
  <path class="st14" d="m57.847 67.467c0.3175 1.0054 0.79375 1.8785 1.3758 2.54-0.3175-0.02646-0.58208 0.07937-0.84667 0.26458-0.34396-0.74083-0.55589-1.8785-0.52917-2.8046"/>
  <path class="st14" d="m62.45 76.093c1.6933 0.92604 3.175 0.87312 3.7835 0.37042 0.71438-0.58208 1.1906-2.3548 0.84667-4.8419 0.18521 0.34396 0.3175 0.55562 0.44979 0.79375 0.60854 2.1167 0.52917 4.2333-0.39688 4.9212-1.1642 0.89958-3.4925 0.84667-4.789-0.02646 0.07937-0.34396 0.10583-0.76729 0.10583-1.2171"/>
  <path class="st14" d="m67.319 71.727c0.82021 1.1112 1.8785 2.1167 2.7517 2.0108 1.1377-0.13229 3.1485-2.4871 3.2808-4.445 0.34396 3.1221-1.905 5.9002-3.2544 5.9002-1.2168 0.02646-2.249-1.8785-2.7781-3.466"/>
  <path class="st14" d="m69.171 67.864c2.3548-1.1377 3.3867-2.6723 2.9633-5.9267 0.60854 1.7198 0.71438 3.6248 0.42333 4.2598-0.39688 0.84667-1.9577 1.614-3.3867 1.6669"/>
  <path class="st14" d="m66.022 55.032c0.02646 1.0583 0.74083 2.6723 1.7462 4.0217 0.05292-0.3175 0.13229-0.79375 0.13229-1.1377-0.55562-0.82021-1.1642-1.9844-1.4288-2.8575z"/>
  <path class="st14" d="m68.563 60.191c0.55562 0.55562 1.7198 0.76729 2.5929 0.29104l0.23812-0.68792-0.52917-0.47625c-0.635 0.47625-1.1906 0.50271-1.6404 0.21167-0.23839 0.15875-0.45006 0.37042-0.66146 0.66146"/>
 </g>
 <g fill="#0f141b" stroke-width=".26458">
  <path class="st18" d="m15.381 17.302c-0.52917 1.27-0.21167 2.2225 0.21167 2.4342 0.44979 0.21167 0.97896-0.05292 1.7198-1.614 0.9525-2.0108 0.66146-2.9633 0.34396-3.0956-0.47652-0.18521-1.4817 0.29104-2.2754 2.2754m0.05292 2.7517c-0.79375-0.37042-1.0054-1.7462-0.50271-2.9369 0.76729-1.9315 2.0373-2.7781 2.884-2.4342 0.74083 0.29104 0.76729 1.7727-0.10583 3.6248-0.82021 1.7992-1.6669 2.0373-2.2754 1.7462"/>
  <path class="st18" d="m16.625 15.768c-0.34396 0.55562-0.26458 1.1112-0.07937 1.2435 0.15875 0.13229 0.58208 0.05292 0.9525-0.55562 0.39688-0.66146 0.34396-1.1642 0.13229-1.27-0.23839-0.13229-0.66146 0.02646-1.0054 0.58208m-0.29131 1.5081c-0.37042-0.29104-0.39688-1.1112-0.02646-1.6933 0.37042-0.635 1.0319-0.9525 1.5081-0.71438 0.39688 0.18521 0.55562 0.87312 0.02646 1.7727-0.47599 0.74083-1.1374 0.89958-1.5081 0.635"/>
  <path class="st18" d="m23.689 19.075c-0.18521 0.76729 0.07937 1.27 0.42333 1.3758 0.29104 0.07938 0.68792-0.21167 0.89958-1.0319 0.18521-0.82021-0.02646-1.3229-0.3175-1.4023-0.37042-0.10583-0.8464 0.34396-1.0054 1.0583m0.34422 1.6933c-0.52917-0.13229-0.89958-0.82021-0.68792-1.7727 0.23812-1.0054 0.89958-1.4288 1.4288-1.3229 0.55562 0.13229 0.82021 0.82021 0.60854 1.7992-0.26485 1.0583-0.89985 1.4288-1.3494 1.2965"/>
  <path class="st18" d="m22.419 21.006c-0.29104 1.1642-0.05292 2.0108 0.58208 2.196 0.74083 0.21167 1.5081-0.15875 1.9844-1.6669 0.79375-2.4871 0.34396-3.519-0.21167-3.6512-0.635-0.15875-1.7195 0.50271-2.3548 3.1221m0.47625 2.5665c-0.89958-0.23812-1.2435-1.4288-0.9525-2.6723 0.66146-2.7252 1.9844-3.5983 2.9104-3.3867 0.87312 0.21167 1.3229 1.6669 0.52917 4.1804-0.55536 1.7992-1.6933 2.0902-2.4871 1.8785"/>
  <path class="st18" d="m17.419 20.98c-0.18521 0.10583-0.02646 1.2965 0.68792 1.6933 0.74083 0.39688 1.8785 0.13229 1.9579-0.18521 0.02646-0.15875-0.44979-0.58208-1.1642-0.97896-0.87312-0.47625-1.4023-0.58208-1.4817-0.52917m0.52917 1.9579c-1.0319-0.55562-1.1642-2.0638-0.71438-2.2754 0.23812-0.10583 0.79375 0 1.7992 0.55562 1.0319 0.55562 1.4023 1.0319 1.3494 1.3494-0.10583 0.58208-1.5081 0.87312-2.4342 0.37042"/>
  <path class="st18" d="m26.018 32.622c3.4925-0.55562 7.276-2.884 8.7577-7.1173l0.66146-0.05292c-1.5875 4.5244-5.5033 7.329-9.8954 7.7258z"/>
  <path class="st18" d="m18.821 31.934c-4.0481-2.0373-6.4823-6.1383-6.5881-10.239-0.07938-2.3548 0.58208-4.5508 1.8521-6.5088l0.58208-0.02646c-1.27 1.9844-1.905 4.2069-1.8256 6.5617 0.10583 4.3392 2.7517 8.255 6.7998 10.054z"/>
  <path class="st18" d="m28.769 22.938c-1.0583 1.7992-2.7781 3.0692-4.9477 3.5983-0.21167 0.05292-0.26458 0.02646-0.34396-0.15875-0.79375-1.9315-2.831-1.9844-3.8894-1.0319-0.18521 0.15875-0.26458 0.15875-0.37042-0.05292-0.79375-1.8785-2.4871-2.4342-3.466-2.0108-0.13229 0.05292-0.18521 0.02646-0.21167-0.10583-0.3175-1.7992-1.27-2.5135-2.0638-2.3812-0.07937 0-0.13229-0.02646-0.15875-0.10583-0.34396-0.92604-0.39688-2.1167-0.02646-3.5454l0.71438-1.1906c-0.635 1.8785-0.74083 3.175-0.39688 4.445 0.87312-0.07937 1.905 0.66146 2.2225 2.4606 1.1112-0.37042 2.831 0.15875 3.6248 2.0902 1.2171-1.0319 3.4131-0.92604 4.3127 1.1906 1.9315-0.55562 3.6248-1.8256 4.6038-3.4396z"/>
  <path class="st18" d="m26.837 16.138c-0.42333 3.7571 1.1377 6.7998 2.54 6.641 0.92604-0.10583 1.8256-1.3494 1.4288-3.5454-0.18521-1.0319 0.10583-1.0848 0.3175-0.05292 0.47625 2.2754-0.39688 3.9423-1.7198 4.0746-1.7992 0.21167-3.4925-3.2279-3.0692-7.1173z"/>
  <path class="st18" d="m30.833 21.774c1.4023 2.6988 3.81 3.9158 4.5508 3.3602 0.9525-0.68792 0.84667-2.9633-0.66146-5.424-0.44979-0.76729-0.23812-0.92604 0.26458-0.18521 1.614 2.4342 1.9315 5.1065 0.68792 6.006-0.97896 0.71438-3.519-0.39688-5.1065-3.2808z"/>
  <path class="st18" d="m38.718 20.848c0.89958 1.3229 1.1377 3.3338 0.3175 3.9688-0.55562 0.42333-1.8256 0.3175-2.884-0.47625l0.07937-0.55562c0.89958 0.82021 2.0638 1.0054 2.54 0.635 0.50271-0.39688 0.47625-2.0638-0.47625-3.4396z"/>
  <path class="st18" d="m39.22 15.953c1.6933 0.21167 2.8046 1.1906 2.831 2.1167 0.02646 1.4023-2.0108 2.8575-4.154 3.1221-0.87312 0.10583-0.97896-0.15875-0.05292-0.3175 2.1431-0.34396 3.7306-1.8521 3.7042-2.831 0-0.58208-0.92604-1.5875-2.7252-1.7198z"/>
  <path class="st18" d="m35.886 12.698c2.249-0.02646 3.9952 1.1112 4.0746 2.1696 0.07937 1.6669-2.5135 2.7781-5.5298 2.6458-0.87312-0.02646-0.89958-0.3175 0-0.3175 3.4396 0 5.1065-1.2435 5.0535-2.3019-0.02646-0.74083-1.6669-1.8785-4.0746-1.7462z"/>
  <path class="st18" d="m18.926 13.254c-2.8575 2.1431-5.2652 2.6458-6.0854 1.5875-0.39688-0.50271 0.05292-2.1696 1.8785-3.0427 0.71438-0.34396 0.79375-0.13229 0.13229 0.26458-1.5875 0.92604-1.7992 2.2754-1.5875 2.5135 0.58208 0.76729 2.5929 0.52917 5.4504-1.6669z"/>
  <path class="st18" d="m12.18 12.037c-1.4023 0.74083-1.7992 1.6669-1.6404 2.249 0.13229 0.52917 1.1112 1.1112 2.831 0.66146l0.58208 0.26458c-2.0108 0.68792-3.6512 0.13229-3.8894-0.79375-0.15875-0.68792 0.18521-1.7198 1.5346-2.54z"/>
  <path class="st18" d="m12.206 12.222c-2.0373-0.42333-2.8575-2.3283-2.6194-3.2544 0.29104-1.1377 2.5135-2.1167 5.5827-1.27 0.74083 0.21167 0.66146 0.50271-0.07937 0.3175-2.8046-0.71438-4.789 0.18521-5.0271 1.0848-0.21167 0.92604 0.68792 2.5135 2.196 2.8046 0.68765 0.13229 0.55536 0.42333-0.05292 0.3175"/>
  <path class="st18" d="m18.53 6.1632c-1.8521-0.92604-3.3338-0.92604-3.7306-0.58208-0.3175 0.26458-0.23812 1.4287 0.39688 2.2754l-0.55562-0.052917c-0.55562-0.89958-0.635-2.1431-0.18521-2.5665 0.58208-0.52917 2.3812-0.42333 4.2598 0.58208z"/>
  <path class="st18" d="m48.004 14.524c3.466-0.07938 7.62-1.7727 8.7312-5.371 0.58208-1.905-0.18521-2.4342-1.8521-1.7992-4.9212 1.905-8.546 1.1377-14.737-3.1221-5.1065-3.4925-10.213-4.2862-15.716-2.5135-5.1594 1.6669-7.5406 6.4294-5.7679 10.477 1.9844 4.5244 9.6308 5.0535 16.034 1.1377 3.9423-2.4077 4.445-6.2706 3.3867-7.3025-1.614-1.5875-5.7944-0.50271-8.3873 3.1485-0.635 0.87312-0.84667 0.74083-0.26458-0.18521 2.5135-4.0217 7.2496-5.1065 9.0223-3.3073 1.3229 1.3229 0.79375 5.3975-3.5454 8.0698-6.7204 4.101-14.711 3.3073-16.775-1.3494-1.7727-3.9687 0.18521-9.2604 6.1119-11.192 5.715-1.8521 10.742-1.0054 16.14 2.6723 6.059 4.1275 9.6308 4.8683 14.367 3.0162 1.905-0.74083 3.1485-0.026458 2.4342 2.3548-1.0319 3.3337-4.6038 5.1594-7.8846 5.5033z"/>
  <path class="st18" d="m29.801 8.5445c1.2171-1.7992 1.0583-3.6248-0.10583-4.1804-1.4023-0.66146-4.0481 1.4552-4.9742 4.6567-0.29104 1.0583-0.55562 0.97896-0.3175-0.10583 0.84667-3.6248 3.9158-5.7415 5.4769-5.0006 1.2435 0.58208 1.561 2.1696 0.84667 3.7042z"/>
  <path class="st18" d="m24.509 9.0736c-0.10583-2.0638-1.0583-3.4925-2.1431-3.2015-1.27 0.34396-1.7462 2.5929-1.3494 5.0006 0.13229 0.82021-0.15875 0.84667-0.3175 0.05292-0.55562-2.6987 0.05292-5.1329 1.5875-5.5562 1.1642-0.3175 2.3812 0.92604 2.54 2.9633z"/>
  <path class="st18" d="m46.523 19.048c-0.89958-0.21167-0.84667-0.44979 0.05292-0.29104 2.0373 0.39688 4.101-0.15875 5.6092-1.4288 1.4817-1.2435 1.1906-2.1696-0.52917-2.196-1.5081 0-2.8575-0.21167-4.2598-0.58208-1.0054-0.26458-0.92604-0.50271 0.07937-0.29104 1.4817 0.34396 2.7517 0.39688 4.2333 0.39688 2.0108 0.02646 2.7781 1.3758 0.82021 3.0162-1.6933 1.3758-3.9161 1.905-6.006 1.3758"/>
  <path class="st18" d="m48.163 19.048c1.27 0.82021 0.87312 2.196-0.87312 2.9104-1.8256 0.74083-6.006 0.635-8.2021-1.2171l0.44979-0.18521c2.1167 1.614 5.8208 1.6933 7.5935 0.97896 1.614-0.635 1.7727-1.7992 0.26458-2.4606z"/>
  <path class="st18" d="m14.191 32.86c0.44979-0.50271 1.4817-0.84667 3.6777-1.0319 2.7781-0.23812 6.6675-1.7992 9.3662-5.2652 0.55562-0.71438 0.79375-0.55562 0.26458 0.18521-2.6458 3.7042-6.7469 5.2652-9.6044 5.5298-1.8785 0.15875-2.7517 0.42333-3.1221 0.76729z"/>
  <path class="st18" d="m19.668 36.934c4.3392-1.4023 7.8581-5.8738 9.3133-9.7896 0.29104-0.76729 0.55562-0.66146 0.29104 0.10583-1.3494 4.1275-5.08 8.7312-9.4985 10.107z"/>
  <path class="st18" d="m13.767 26.457c-0.3175 1.5081-0.29104 3.0162 0.05292 4.2598 0.18521 0.79375 0.21167 1.4023 0.02646 2.0373l-0.47625-0.10583c0.18521-0.68792 0.15875-1.0848-0.02646-1.8521-0.34396-1.4023-0.3175-3.3602 0.10583-5.0271z"/>
  <path class="st18" d="m8.7134 32.833c-0.39688-3.7306 1.0848-7.5935 3.9423-9.7631l0.10583 0.52917c-2.54 2.0108-3.9423 5.5827-3.5719 9.1281z"/>
  <path class="st18" d="m18.53 40.956c0.82021-1.561 1.2171-3.0427 0.79375-4.101-1.6669-4.2069-10.398-5.2917-12.197-2.6458-0.82021 1.2171-0.60854 5.2652 0.66146 7.8846 0.42333 0.89958 0.18521 1.0054-0.29104 0.13229-1.4023-2.54-1.7727-6.9321-0.84667-8.3344 2.0373-3.0162 11.456-1.9579 13.256 2.7781 0.42333 1.0848-0.07938 2.884-0.60854 3.7571z"/>
  <path class="st18" d="m7.0468 40.718c-1.5346-1.1377-3.1221-1.6404-4.445-1.27-1.2435 0.34396-2.4871 2.9898-1.8521 6.7733 0.47625 2.9104 1.8256 5.4504 3.3602 5.5827 0.79375 0.07937 1.561-0.13229 2.5135-0.60854s1.0319-0.29104 0.15875 0.29104c-0.9525 0.635-1.9579 0.97896-2.7517 0.89958-1.4552-0.13229-3.2015-2.1431-3.8629-6.0854-0.52917-3.175 0.18521-6.7998 2.2754-7.3819 1.3229-0.37042 3.0692 0.10583 4.445 1.1642z"/>
  <path class="st18" d="m14.667 56.46c0.07937 0.92604-0.02646 1.5875-0.37042 2.1167-1.8521 2.9369-9.6573 1.2171-10.53-2.1431-0.34396-1.27 0.13229-2.9898 1.3229-4.445l0.635-0.15875c-1.1906 1.5081-1.7198 3.2544-1.4288 4.4715 0.71438 2.7517 7.8317 4.5508 9.4985 1.9315 0.3175-0.50271 0.44979-1.3758 0.29104-2.54z"/>
  <path class="st18" d="m24.139 50.428c1.4288 0.55562 2.1431 1.5875 1.9844 2.831-0.42333 3.519-4.9212 6.059-8.2021 5.8208-1.6404-0.13229-3.466-1.9579-4.154-3.7835-0.3175-0.84667-0.07937-0.92604 0.29104-0.10583 0.68792 1.5346 2.4871 3.2279 3.8894 3.3337 3.4396 0.26458 7.2231-2.4871 7.5671-5.3181 0.15875-1.1906-0.66146-2.0373-2.196-2.54z"/>
  <path class="st18" d="m20.858 50.64c-0.82021-0.21167-0.74083-0.47625 0.07937-0.3175 1.5875 0.34396 3.4131 0.29104 4.3921-1.27 2.3812-3.81 1.5875-9.4456-1.5875-9.7896-1.5875-0.18521-4.101 0.87312-5.6885 2.3812-0.635 0.60854-0.84667 0.37042-0.21167-0.23812 1.7198-1.7727 4.2598-2.884 6.006-2.6988 3.7306 0.42333 4.4715 6.7204 1.9844 10.689-1.0583 1.6404-3.1488 1.7462-4.9742 1.2435"/>
  <path class="st18" d="m5.1947 45.798c1.3229 1.561 3.4925 2.5929 5.8473 2.7252 0.47625 0.02646 0.52917 0.10583 0.21167 0.44979-1.2171 1.4023-1.6933 3.3867-1.6669 4.9212 1.2965-0.92604 2.196-2.1167 2.884-3.6777 0.15875-0.34396 0.21167-0.34396 0.44979-0.07937 1.3229 1.561 2.831 2.54 4.6567 2.9633-0.66146-1.5081-1.9315-3.0427-3.5983-4.154-0.52917-0.37042-0.47625-0.44979 0.13229-0.47625 2.2225-0.10583 4.3921-0.89958 5.6356-2.4077-1.8521-0.3175-3.9688-0.10583-5.9002 0.52917-0.29104 0.07937-0.34396 0.05292-0.44979-0.13229-0.92604-1.4817-1.6404-4.0217-1.8521-6.1119-0.92604 1.561-1.1377 4.1275-0.47625 6.1119 0.13229 0.42333 0.05292 0.52917-0.42333 0.29104-1.773-0.89958-3.8896-1.1642-5.4504-0.9525m4.0217 8.2285c-0.13229-1.6669 0.26458-3.6512 1.561-5.1329-2.4606-0.05292-4.736-1.2171-5.9267-3.0162-0.21167-0.29104-0.18521-0.34396 0.18521-0.42333 1.614-0.3175 3.6248-0.23812 5.5562 0.79375-0.71438-2.2754-0.37042-4.7096 0.82021-6.4294 0.26458-0.39688 0.37042-0.37042 0.42333 0.10583 0.26458 2.1431 1.0319 4.8683 1.8256 6.2706 2.0373-0.76729 4.3127-0.89958 6.2177-0.47625 0.37042 0.07937 0.42333 0.13229 0.15875 0.47625-1.1377 1.561-3.2015 2.5665-5.5298 2.6194 1.6404 1.0848 2.884 2.6988 3.4396 4.2598 0.15875 0.42333 0.10583 0.44979-0.29104 0.39688-1.9579-0.3175-3.6248-1.3229-4.9212-2.9633-0.635 1.6669-1.6933 2.9104-3.0427 3.7306-0.37068 0.21167-0.4236 0.15875-0.47625-0.21167"/>
  <path class="st18" d="m25.594 54.185c0.60854-0.15875 1.2435-0.13229 1.8256 0.05292 2.1696 0.68792 3.9423 5.9002 3.1485 9.4985-0.34396 1.5875-1.1377 2.9104-3.466 3.1221-0.84667 0.07937-0.84667-0.13229-0.02646-0.29104 2.0638-0.37042 2.5929-1.5346 2.9104-2.9633 0.74083-3.3867-0.89958-8.2285-2.7517-8.8106-0.60854-0.21167-1.2435-0.18521-1.8785 0.05292z"/>
  <path class="st18" d="m21.864 58.022c-0.635 1.0319-1.1642 2.2225-1.5875 3.5719-0.26458 0.87312-0.50271 0.79375-0.26458-0.07937 0.34396-1.27 0.76729-2.3812 1.2435-3.3073z"/>
  <path class="st18" d="m10.91 59.821c-0.76729 1.5346-0.82021 3.2544-0.26458 4.3921 0.44979 0.92604 1.1642 1.4288 2.2225 1.5875l-1.0583 0.18521c-0.71438-0.18521-1.3494-0.79375-1.6669-1.5081-0.58208-1.2171-0.58208-3.0427 0.18521-4.736z"/>
  <path class="st18" d="m20.117 58.577c0.21167 0.58208 0.34396 1.2171 0.44979 1.7727l-0.29104 0.71438c-0.13229-0.76729-0.3175-1.6404-0.66146-2.4342z"/>
  <path class="st18" d="m16.466 74.452c-0.79375 0.89958-2.0108 1.4817-3.0692 1.5346-2.5135 0.10583-4.789-5.4504-4.3392-7.8052 0.26458-1.5081 1.7198-2.4606 4.154-2.54 0.79375-0.02646 0.79375 0.26458 0.02646 0.3175-2.1696 0.18521-3.3602 0.92604-3.5983 2.3283-0.39688 2.2225 1.7462 7.1967 3.7835 7.1438 0.82021-0.02646 2.0902-0.47625 3.0692-1.614z"/>
  <path class="st18" d="m24.932 74.267c0.47625 1.2171 0.71438 2.6458 0.34396 3.5454-0.82021 2.1431-6.5617 3.4131-8.4931 1.5875-0.89958-0.87312-0.92604-3.3338-0.39688-5.715 0.15875-0.71438 0.42333-0.66146 0.3175 0.05292-0.37042 2.4871-0.21167 4.5508 0.47625 5.2123 1.7727 1.6933 6.8792 0.39688 7.5671-1.3494 0.37042-0.9525 0.05292-2.4871-0.47625-3.7835z"/>
  <path class="st18" d="m30.066 64.372c1.5081-0.18521 2.5135 0.68792 2.7517 2.0373 0.52917 3.1221-0.9525 8.8371-4.0746 9.4721-1.3758 0.29104-2.9369-0.3175-4.4979-1.9579-0.52917-0.55562-0.37042-0.71438 0.21167-0.23812 1.5875 1.3758 2.831 1.8785 4.1804 1.5875 2.6194-0.52917 4.154-5.6356 3.6248-8.7842-0.23812-1.2965-1.1377-1.7992-2.3548-1.6404z"/>
  <path class="st18" d="m18.741 69.954c0.02646 2.0108 0.55562 3.7571 1.4552 4.789 0.23812-1.561 0.34396-3.0162 0.21167-4.6302-0.02646-0.39688 0.05292-0.47625 0.42333-0.29104 1.2435 0.60854 3.2808 0.79375 4.445 0.39688-1.2171-0.87312-2.7517-1.614-4.4185-2.196-0.47625-0.15875-0.47625-0.23812-0.05292-0.52917 1.7992-1.2965 3.4131-3.1485 4.154-4.736-1.8785 0.47625-3.8629 1.8785-5.0535 3.4925-0.26458 0.37042-0.39688 0.37042-0.55562 0-0.68792-1.5875-2.0638-3.2015-3.5454-4.0217 0.18521 1.9579 1.0054 3.6248 2.3812 4.9212 0.3175 0.29104 0.3175 0.34396-0.07937 0.52917-1.2435 0.55562-2.3812 1.5081-3.2544 2.8575 1.2965-0.10583 2.3812-0.34396 3.4396-0.82021 0.39688-0.15875 0.44979-0.13229 0.44979 0.23812m1.3756 5.1858c-1.1377-1.0583-1.7727-2.7781-1.7462-5.08-1.0848 0.47625-2.3548 0.74083-3.6512 0.76729-0.39688 0-0.39688-0.10583-0.23812-0.39688 0.89958-1.5081 2.0108-2.5665 3.3867-3.1485-1.5081-1.2171-2.3283-3.1221-2.4077-5.2652-0.02646-0.3175 0.02646-0.39688 0.42333-0.23812 1.614 0.76729 3.1221 2.3812 3.7835 4.101 1.2171-1.8256 3.3867-3.2279 5.4504-3.5719 0.34396-0.05292 0.37042 0 0.26458 0.3175-0.68792 1.7727-2.3812 3.81-4.2598 5.0535 1.7462 0.55562 3.3073 1.3494 4.5244 2.3548 0.23812 0.21167 0.23812 0.26458-0.05292 0.39688-1.2171 0.52917-3.3867 0.44979-4.8154-0.23812 0.13229 1.7198 0.02646 3.2015-0.3175 4.8154-0.02646 0.34396-0.13203 0.34396-0.34396 0.13229"/>
  <path class="st18" d="m36.971 72.468c0.44979-0.97896 1.1112-1.7462 2.1431-1.905 2.2754-0.37042 6.7469 3.4925 6.2971 7.911-0.29104 2.5665-2.1431 3.5719-3.8629 3.4131-0.71438-0.05292-0.71438-0.3175 0-0.3175 1.4817 0 3.0427-0.84667 3.2808-3.1485 0.39688-3.9688-3.5719-7.6465-5.6356-7.3025-0.89958 0.15875-1.614 1.0054-2.1167 2.4342z"/>
  <path class="st18" d="m28.346 75.643c0.44979 0.82021 1.1642 1.6404 2.1431 2.1696 0.68792 0.37042 0.52917 0.60854-0.13229 0.29104-1.1906-0.58208-2.0638-1.4817-2.5665-2.4342z"/>
  <path class="st18" d="m32.526 69.425c1.4817-0.29104 2.9633-0.26458 3.6512 0.44979 1.3229 1.3494 1.3494 3.81 0.635 5.6885-0.29104 0.71438-0.52917 0.60854-0.29104-0.13229 0.50271-1.6669 0.44979-3.8894-0.76729-5.1329-0.50271-0.52917-1.7992-0.635-3.3073-0.29104z"/>
  <path class="st18" d="m27.631 75.802c-0.9525-0.05292-1.8256 0.21167-2.4342 0.60854l-0.10583-0.55562c0.47625-0.23812 1.0583-0.42333 1.7198-0.47625z"/>
  <path class="st18" d="m24.298 78.633c0.10583 0.71438 0.37042 1.5346 0.79375 2.3812 0.92604 1.7992 2.2225 3.0956 3.0956 3.2279 1.0583 0.15875 2.0108-0.07938 3.2015-0.76729 0.68792-0.39688 0.82021-0.18521 0.18521 0.29104-1.2965 0.89958-2.5665 1.1642-3.519 1.0319-1.2435-0.18521-2.6988-1.9844-3.466-3.4925-0.42333-0.82021-0.68792-1.5875-0.82021-2.3019z"/>
  <path class="st18" d="m37.156 86.649c0 0.9525-0.18521 1.5875-0.89958 2.196-1.2171 1.0848-5.424 0.23812-7.1967-1.9579-0.635-0.76729-0.55562-1.7462-0.13229-2.3548l0.60854-0.05292c-0.50271 0.60854-0.52917 1.4288 0 2.0373 1.614 1.9844 5.3975 2.7517 6.4029 1.8521 0.58208-0.50271 0.79375-1.1112 0.76729-2.1167z"/>
  <path class="st18" d="m44.326 80.511c1.5081 0.15875 2.1431 1.3229 1.905 2.4606-0.37042 1.905-2.5929 4.6567-4.789 5.2652-1.4288 0.39688-3.519-0.42333-4.8154-1.8256-0.52917-0.55562-0.3175-0.74083 0.23812-0.23812 1.0054 0.97896 3.0427 1.8785 4.445 1.4817 2.1431-0.60854 4.0746-3.2808 4.3656-4.789 0.21167-1.1377-0.47625-1.8521-1.6933-1.905z"/>
  <path class="st18" d="m34.114 81.966c-0.07938 1.0319-0.02646 2.2754 0.34396 3.0956 0.47625-0.60854 0.74083-1.4287 0.82021-2.4077 0.02646-0.39688 0.13229-0.42333 0.44979-0.18521 1.4552 1.1112 3.0162 1.2965 4.101 1.27-1.2171-0.74083-2.1696-1.6404-2.9104-2.4342-0.21167-0.23812-0.21167-0.3175 0.13229-0.50271 1.4817-0.79375 2.3548-2.1696 2.7252-3.3602-1.27 1.0054-2.4077 1.5346-3.8629 2.1167-0.3175 0.13229-0.37042 0.05292-0.44979-0.21167-0.50271-1.6669-1.3758-3.1221-2.4077-3.9952-0.07937 1.3758 0.23812 2.9633 0.79375 4.3392 0.13229 0.29104 0.13229 0.37042-0.15875 0.50271-1.0583 0.44979-2.1167 0.74083-3.175 0.92604 1.1112 0.55562 1.9844 0.68792 3.2544 0.55562 0.29104-0.05292 0.37042 0 0.34396 0.29104m-3.9423-1.1642c1.0583-0.23812 2.249-0.52917 3.3338-0.97896-0.71438-1.4552-0.97896-3.2279-0.76729-4.7096 0.05292-0.34396 0.10583-0.39688 0.39688-0.18521 1.2171 0.84667 2.249 2.4342 2.6988 4.2069 1.5346-0.635 2.5929-1.1906 3.9688-2.196 0.44979-0.3175 0.52917-0.26458 0.39688 0.23812-0.39688 1.7462-1.4817 3.2544-2.9104 3.8894 0.82021 0.82021 1.6933 1.6669 2.9369 2.4606 0.47625 0.3175 0.47625 0.42333-0.07937 0.50271-1.5346 0.15875-3.2015-0.13229-4.4979-1.1377-0.05292 1.0319-0.44979 1.905-1.0054 2.4871-0.23812 0.23812-0.29104 0.21167-0.44979-0.05292-0.47625-0.84667-0.58208-2.1431-0.47625-3.3073-1.2171 0.15875-2.4606 0.02646-3.6512-0.76729-0.42333-0.26458-0.37042-0.34396 0.10583-0.44979"/>
  <path class="st18" d="m44.459 74.902c0.71438-0.37042 1.5346-0.58208 2.3548-0.74083l0.07937 0.44979c-0.74083 0.15875-1.5346 0.39688-2.2225 0.76729z"/>
  <path class="st18" d="m45.994 82.813c0.34396-0.02646 0.68792-0.10583 1.0319-0.23812 0.79375-0.29104 0.89958-0.10583 0.13229 0.29104-0.39688 0.21167-0.82021 0.34396-1.2435 0.42333z"/>
  <path class="st18" d="m43.665 86.517c1.3494 1.3494 4.154 1.7727 5.6356 0.71438 0.87312-0.60854 1.5346-1.3494 2.1696-2.5665 0.37042-0.71437 0.60854-0.58208 0.29104 0.15875-0.52917 1.3229-1.2965 2.2754-2.196 2.9104-1.614 1.1112-4.8154 0.71438-6.35-0.84667z"/>
  <path class="st18" d="m51.761 84.665c0.07938 1.561 0.58208 2.7252 1.3494 2.9104 2.54 0.66146 6.9321-2.5665 6.8527-4.6567-0.02646-0.50271-1.2171-1.6669-2.5929-1.9844-0.89958-0.18521-0.82021-0.50271 0.05292-0.3175 1.5875 0.3175 3.0692 1.5081 3.0956 2.3019 0.07938 2.4342-4.7625 5.9531-7.5671 5.2387-0.97896-0.26458-1.4552-1.4817-1.614-2.884z"/>
  <path class="st18" d="m57.318 80.776c2.4342-0.60854 4.3656-1.905 4.6831-3.2015 0.39688-1.614-0.37042-5.3181-1.8521-6.7469-1.0054-0.97896-1.7727-0.58208-2.3283 0.66146-0.52917 1.1377-1.1112 2.3283-1.7992 3.3602-0.47625 0.71438-0.71438 0.52917-0.26458-0.18521 0.71438-1.1377 1.0848-2.1431 1.614-3.3867 0.74083-1.7727 2.0902-1.9315 3.175-0.87312 1.5346 1.4817 2.4606 5.424 1.9844 7.329-0.34396 1.3758-2.1167 2.6194-4.5508 3.2544z"/>
  <path class="st18" d="m57 72.6c0.34396-1.614 0.05292-2.6194-0.635-3.0692-0.9525-0.635-2.9633-0.34396-5.2123 0.68792-2.3019 1.0583-4.0481 2.5665-4.0481 3.81 0 0.55562 0.13229 1.1377 0.66146 1.7992 0.55562 0.68792 0.37042 0.79375-0.23812 0.21167s-0.97896-1.2965-0.97896-2.0108c0-1.5081 2.1431-3.2808 4.3656-4.3127 2.196-1.0054 4.6038-1.4288 5.7679-0.635 0.635 0.44979 0.9525 1.3758 0.87312 2.5135z"/>
  <path class="st18" d="m51.761 80.855c-1.1377 0.89958-2.1696 2.3283-2.6458 3.4396 1.2965-0.37042 2.6458-1.7198 3.4925-2.9104 0.18521-0.26458 0.26458-0.26458 0.47625 0 0.87312 1.0848 1.7462 1.7462 2.9369 2.0902-0.58208-1.1377-1.3229-2.1167-2.249-2.9898-0.34396-0.3175-0.29104-0.39688 0.10583-0.52917 1.905-0.635 3.4131-1.6404 4.0481-2.831-1.3758 0.02646-2.6988 0.60854-4.0217 1.7462-0.39688 0.3175-0.47625 0.29104-0.47625-0.18521 0-1.4552-0.50271-2.884-1.3229-3.6777-0.26458 1.0319-0.15875 2.2754 0.26458 3.8365 0.07937 0.34396 0.05292 0.39688-0.29104 0.42333-1.5346 0.05292-2.9898-0.05292-4.5508-0.44979 0.92604 1.1906 2.4606 1.6669 4.0746 1.5346 0.66119-0.05292 0.71411 0.05292 0.15875 0.50271m-3.0427 3.519c0.44979-1.2171 1.3494-2.6723 2.54-3.5983-1.7992 0.13229-3.3867-0.68792-4.154-2.0108-0.21167-0.37042-0.18521-0.44979 0.26458-0.34396 1.6933 0.37042 3.175 0.47625 4.6302 0.44979-0.52917-1.6404-0.58208-3.0162-0.18521-4.1275 0.10583-0.29104 0.15875-0.29104 0.42333-0.10583 0.9525 0.74083 1.6404 2.249 1.614 3.7835 1.3758-1.2435 2.7517-1.7198 4.2862-1.6669 0.34396 0.02646 0.37042 0.05292 0.21167 0.42333-0.60854 1.3494-2.196 2.5135-4.1804 3.0956 1.1112 1.0319 1.7462 2.0373 2.3019 3.2015 0.18521 0.39688 0.18521 0.47625-0.29104 0.39688-1.3229-0.29104-2.4342-0.9525-3.3073-2.1696-0.87312 1.3758-2.3812 2.7252-3.8629 2.9898-0.37042 0.05292-0.42333 0-0.29104-0.3175"/>
  <path class="st18" d="m61.551 72.521c1.9579-1.2171 3.7571-2.6723 5.3975-4.3921 0.635-0.66146 0.84667-0.47625 0.21167 0.21167-1.5875 1.7992-3.4925 3.3338-5.4769 4.5508z"/>
  <path class="st18" d="m73.246 58.365c-1.9844 6.7469-5.7415 12.197-11.271 15.452l-0.10583-0.39688c5.3446-3.2279 9.1546-8.7577 11.139-15.875z"/>
  <path class="st18" d="m66.525 68.869c-0.29104 0.15875-0.58208 0.23812-0.89958 0.34396-0.9525 0.3175-1.2171-0.05292-1.1112-0.635 0.05292-0.37042 0.10583-0.58208 0.26458-1.0054 0.13229-0.37042 0.3175-0.635 1.2965-0.87312 1.4552-0.34396 2.54-1.2965 3.6248-3.3602 0.71438-1.3758 1.27-2.6988 1.7992-4.6038l0.58208-0.47625c-0.58208 2.196-1.1906 3.7835-1.9844 5.3181-1.1642 2.1431-2.3283 3.1485-3.9688 3.5454-0.66146 0.15875-0.79375 0.26458-0.9525 0.60854-0.18521 0.39688-0.21167 0.55562-0.29104 0.89958-0.05292 0.23812 0.05292 0.37042 0.635 0.21167 0.52917-0.15875 0.92604-0.3175 1.4817-0.60854z"/>
  <path class="st18" d="m66.657 55.376c-1.2965-0.26458-2.831 0.34396-4.2333 1.7198-1.5346 1.4817-2.2754 3.3602-2.0638 4.6567 0.15875 0.89958 0.66146 2.0108 1.4552 2.9898l-0.79375-0.29104c-0.635-0.76729-1.1377-1.7992-1.27-2.6458-0.23812-1.4817 0.52917-3.4396 2.249-5.1065 1.3229-1.27 3.0162-2.0373 4.3921-1.9315z"/>
  <path class="st18" d="m68.086 58.313c-0.05292 1.4817-0.37042 3.3867-0.92604 5.6092-0.18521 0.71438-0.47625 0.635-0.3175-0.07937 0.60854-2.7517 0.87312-4.8154 0.79375-6.1912z"/>
  <path class="st18" d="m58.164 70.457c-1.3229-2.8575-0.97896-6.1648 0.23812-6.7733 0.82021-0.39688 2.4342 0.18521 4.6831 1.6404 0.79375 0.50271 0.66146 0.76729-0.15875 0.29104-2.4077-1.4552-3.7306-1.6669-4.2862-1.4023-0.84667 0.42333-1.2171 3.3338 0 5.9267z"/>
  <path class="st18" d="m67.98 73.182c0.37042 1.9315 0.23812 3.2544-0.3175 4.0746-0.89958 1.27-3.5719 1.3494-5.3446 0.34396l0.07937-0.58208c2.0638 1.1906 4.2333 0.74083 4.8154-0.10583 0.60854-0.84667 0.635-2.3283 0.13229-4.736z"/>
  <path class="st18" d="m70.917 67.414c1.1377 0.07937 2.1696 0.3175 2.4606 0.635 0.79375 0.87312 0.60854 2.6723-0.07937 4.2862-0.60854 1.4288-1.905 3.175-3.2544 3.175-0.89958 0-1.7992-1.0848-2.8046-3.3867-0.34396-0.76729-0.07937-0.89958 0.29104-0.13229 1.1112 2.3283 1.9844 2.9369 2.5135 2.9369 1.1112 0 2.1167-1.3758 2.7252-2.831 0.68792-1.6404 0.76729-3.0427 0.21167-3.6777-0.23812-0.26458-1.4817-0.58208-2.9369-0.55562z"/>
  <path class="st18" d="m69.541 59.688c-0.76729 0.39688-1.5081 1.3494-2.1696 2.831l0.07937-1.1377c0.50271-0.92604 1.0583-1.5875 1.614-2.0108z"/>
  <path class="st18" d="m71.341 60.032c-0.21167-0.29104-0.47625-0.47625-0.74083-0.55562l0.50271-0.37042c0.15875 0.07937 0.26458 0.21167 0.39688 0.34396z"/>
  <path class="st18" d="m72.214 60.747c0.79375 1.9579 0.92604 4.8948 0.66146 5.5562-0.3175 0.76729-1.6933 1.5081-3.466 1.7992-0.76729 0.13229-0.82021-0.13229-0.07937-0.3175 1.614-0.39688 2.7252-1.0319 2.9898-1.7198 0.23812-0.60854 0.18521-2.9104-0.37042-4.6302z"/>
  <path class="st18" d="m78.273 51.857c0.58208 0.84667 0.9525 1.7727 0.97896 2.5135 0.07937 2.7781-1.5346 7.4348-3.4925 7.4877-1.4023 0.02646-3.0162-2.54-2.9633-5.4769 0.02646-0.89958 0.29104-0.89958 0.3175 0 0.07937 2.8575 1.614 4.9212 2.6458 4.9212 1.3229-0.02646 2.9633-3.81 2.884-6.9056-0.02646-0.68792-0.39688-1.8256-1.1112-2.7781z"/>
  <path class="st18" d="m76.818 43.602c1.1112-1.2171 2.3283-1.5875 2.9104-1.4023 2.54 0.79375 1.1377 9.0752 0 9.7896-0.58208 0.37042-1.4552 0.3175-2.2225-0.26458-0.76729-0.58208-0.66146-0.71438 0.18521-0.26458 0.68792 0.37042 1.27 0.37042 1.7462 0.05292 0.89958-0.58208 2.1431-8.1227 0.13229-8.7312-0.42333-0.13229-1.614 0.10583-2.7781 1.561z"/>
  <path class="st18" d="m69.039 39.342c-0.52917-1.9579-0.02646-3.175 1.6669-3.3073 2.1431-0.18521 4.3921 1.2435 5.5562 2.8575 0.82021 1.1112 1.0583 4.2333 0.47625 7.2496-0.18521 0.97896-0.47625 0.92604-0.34396-0.07937 0.44979-2.8046 0.10583-5.8473-0.60854-6.8527-1.0054-1.4023-2.9369-2.7781-5.0535-2.5929-1.6933 0.13229-1.5875 1.5875-1.0848 3.2808z"/>
  <path class="st18" d="m68.456 49.74c-0.50271-0.13229-0.89958-0.39688-1.2435-0.74083-1.1642-1.1112-1.7198-3.2544-1.5081-5.8473 0.18521-2.2225 1.0054-4.4715 2.0902-4.6302 1.4023-0.21167 3.0692 2.3019 3.7042 4.8154 0.21167 0.87312-0.07937 0.9525-0.3175 0.07938-0.68792-2.4077-2.3019-4.4979-3.3073-4.3656-0.55562 0.07937-1.3758 1.6669-1.5875 4.1275-0.18521 2.2754 0.26458 4.4185 1.2965 5.3975 0.44979 0.42333 0.89958 0.71438 1.7992 0.92604z"/>
  <path class="st18" d="m73.007 57.069c-0.92604 1.905-2.3019 2.8575-3.175 2.9104-0.84667 0.05292-2.1696-1.3494-3.2279-3.8894-0.71438-1.6933-1.1112-3.5983-0.68792-4.7625 0.55562-1.4552 2.196-2.1431 4.2862-1.8785 0.9525 0.13229 0.92604 0.39688-0.02646 0.34396-1.9844-0.15875-3.2544 0.50271-3.7306 1.7462-0.3175 0.82021-0.13229 2.4606 0.66146 4.3127 0.84667 1.9844 2.0108 3.5454 2.7252 3.519 0.71438-0.02646 2.1431-0.89958 3.1221-3.175z"/>
  <path class="st18" d="m74.33 52.148c0.26458 1.4817 0.76729 2.831 1.4288 3.7042 0.10583-1.0848-0.15875-2.8575-0.71438-4.6302-0.07937-0.26458-0.05292-0.34396 0.15875-0.50271 1.0054-0.74083 1.7992-1.5081 2.2754-2.3283-0.84667 0.21167-1.7462 0.71438-2.4342 1.3494-0.39688 0.34396-0.50271 0.3175-0.44979-0.21167 0.26458-2.196 0.10583-4.4715-0.50271-6.5088-0.42333 2.0373-0.39688 4.1804 0 6.1119 0.13229 0.635-0.07937 0.66146-0.42333 0.18521-0.92604-1.2435-2.249-2.54-3.3338-3.0692 1.0054 1.6933 2.0902 2.9633 3.3338 4.101 0.26458 0.23812 0.26458 0.3175 0 0.50271-1.2171 0.87312-2.249 2.2225-2.9104 3.7042 1.0848-0.34396 2.2754-1.3229 3.0692-2.54 0.3175-0.39688 0.4236-0.34396 0.50271 0.13229m1.3229 4.154c-0.79375-0.87312-1.4023-2.1696-1.6404-3.7571-0.82021 1.2435-2.1167 2.196-3.3338 2.4606-0.39688 0.07937-0.42333 0-0.29104-0.34396 0.66146-1.6404 1.7198-3.0956 3.0162-3.9952-1.3494-1.0848-2.4871-2.5665-3.519-4.4979-0.21167-0.39688-0.13229-0.47625 0.26458-0.34396 1.2171 0.42333 2.54 1.5346 3.4396 2.7517-0.42333-2.0108-0.3175-3.9952 0.26458-6.0854 0.13229-0.47625 0.23812-0.47625 0.39688 0 0.82021 2.1431 1.0848 4.4979 0.76729 6.7469 0.74083-0.66146 1.6933-1.0848 2.5929-1.2171 0.37042-0.05292 0.44979-0.02646 0.26458 0.34396-0.47625 1.0054-1.3758 1.9579-2.5135 2.7252 0.68792 1.9315 0.89958 4.0217 0.635 5.1065 0 0.26458-0.10557 0.34396-0.34396 0.10583"/>
  <path class="st18" d="m73.087 36.723c-0.05292-1.5081-0.21167-2.7781-0.71438-4.4979l0.635 0.60854c0.39688 1.5081 0.47625 2.6458 0.52917 4.0746z"/>
  <path class="st18" d="m74.251 33.574c0.29104 1.3494 0.42333 2.6723 0.34396 3.9952l-0.42333-0.29104c0.02646-1.27-0.10583-2.54-0.39688-3.8365z"/>
  <path class="st18" d="m63.403 24.763c-2.4871-2.0902-2.9369-10.001-0.3175-10.372 1.2435-0.18521 4.2862 1.3758 6.2971 4.8419 0.39688 0.66146 0.13229 0.84667-0.26458 0.15875-2.0373-3.3338-5.0271-4.5773-5.9796-4.445-1.9315 0.26458-1.6404 7.4877 0.635 9.3662 1.2171 1.0319 1.7992 1.2435 3.0692 1.1112 0.97896-0.10583 0.97896 0.21167 0.02646 0.3175-1.3232 0.13229-2.1698 0.07937-3.466-0.97896"/>
  <path class="st18" d="m65.096 25.451c-1.0583 0.55562-1.2965 1.8785-1.0848 3.1485 0.55562 3.3073 2.6458 5.6621 4.0481 5.5033 1.1377-0.13229 3.1485-2.7252 3.4131-5.9796 0.07937-0.79375 0.34396-0.76729 0.3175 0.02646-0.13229 3.3338-2.0902 6.3235-3.7042 6.5352-1.9315 0.21167-4.1275-2.8046-4.6567-5.9796-0.26458-1.614 0.15875-2.9104 1.1642-3.4396z"/>
  <path class="st18" d="m71.473 29.579c0.44979 1.7198 1.4023 3.1485 2.4342 3.5983 1.7992 0.82021 3.9158-1.1906 3.9688-3.6777 0.02646-0.79375-0.66146-2.0373-1.8521-2.831-0.74083-0.50271-0.58208-0.71438 0.15875-0.26458 1.4288 0.84667 2.2754 2.2225 2.249 3.1221-0.07937 2.831-2.5665 5.1594-4.7625 4.1804-1.0319-0.44979-1.9579-1.7992-2.4606-3.4131z"/>
  <path class="st18" d="m74.489 18.149c0.47625-0.87312 1.1377-1.4552 1.5875-1.3494 2.1696 0.47625 3.3867 6.4823 2.5135 9.3133-0.26458 0.84667-0.84667 1.2965-1.6933 1.1377l-0.52917-0.55562c0.82021 0.29104 1.4288-0.02646 1.6669-0.76729 0.84667-2.7252-0.3175-8.1756-2.1167-8.5725-0.26458-0.05292-0.97896 0.74083-1.4288 1.6404z"/>
  <path class="st18" d="m66.26 16.032c-1.4552-2.5135-1.0583-4.7096-0.21167-5.3181 1.5346-1.1113 5.3446-0.05292 7.8317 3.9423 0.89958 1.4552 1.0583 3.1221 0.71438 5.4504-0.13229 0.79375-0.39688 0.76729-0.3175-0.02646 0.18521-2.1696-0.10583-3.9158-0.87312-5.1329-2.3812-3.8365-5.7944-4.6038-6.985-3.7835-0.68792 0.50271-1.1377 2.54 0.635 5.3975z"/>
  <path class="st18" d="m50.253 18.652c0.71438 1.4552 2.0108 2.5135 2.6988 2.4871 1.1112-0.07938 2.9898-0.84667 4.3392-2.4077 0.66146-0.76729 0.87312-0.55562 0.23812 0.23812-1.4288 1.8256-3.3338 2.6194-4.5508 2.7252-1.0054 0.07937-2.4606-1.1642-3.2015-2.831z"/>
  <path class="st18" d="m62.583 23.123c-1.2435 0.66146-2.831 0.84667-3.6512 0.34396-0.9525-0.60854-1.5346-2.4077-1.8256-4.3127l0.37042-0.37042c0.34396 1.9315 0.92604 3.7042 1.7198 4.2069 0.635 0.39688 1.9579 0.29104 3.1485-0.37042z"/>
  <path class="st18" d="m66.181 9.2324c0.97896-0.23812 1.905-0.26458 2.5929-0.026458 1.0319 0.34396 1.5346 1.2965 1.905 2.3548l-0.68792-0.23812c-0.37042-0.9525-0.71438-1.3758-1.3758-1.561-0.71438-0.23812-1.6404-0.23812-2.7517 0.026458z"/>
  <path class="st18" d="m58.005 3.8878c0.29104-1.9315 0.79375-3.0692 1.4023-3.3337 1.7198-0.79375 7.7788 2.0902 8.0169 6.2706 0.05292 1.1377-0.76729 2.3283-1.7462 3.3602-0.635 0.68792-0.84667 0.52917-0.23812-0.21167 0.71438-0.84667 1.4288-2.0637 1.3758-3.1221-0.21167-3.7571-5.7944-6.4294-7.1967-5.7944-0.66146 0.3175-1.0583 1.8256-1.3494 3.7042z"/>
  <path class="st18" d="m48.745 8.0417c-0.26458-1.1112-0.21167-2.1696 0.44979-3.1485 1.9844-2.8575 5.1329-5.1594 6.641-4.8683 1.5875 0.3175 2.2754 2.9633 2.6458 5.0006 0.18521 1.0054-0.10583 1.0583-0.3175 0.052917-0.39688-1.8256-1.1906-4.2598-2.4342-4.4979-1.27-0.23812-4.1275 1.9315-6.006 4.6037-0.58208 0.82021-0.71438 1.7198-0.50271 2.884z"/>
  <path class="st18" d="m54.883 12.249c2.3283 0.84667 5.2652 2.4077 6.9056 4.3656l-0.10583 0.55562c-1.5081-1.9315-4.5773-3.6512-7.1437-4.5773z"/>
  <path class="st18" d="m61.974 15.953c-1.2965-1.4817-2.6458-2.4871-4.7096-3.3338-0.79375-0.34396-0.68792-0.635 0.10583-0.3175 1.9579 0.79375 3.4396 1.7198 4.7625 3.175z"/>
  <path class="st18" d="m55.73 11.402c1.0054 0.18521 2.1431 0.10583 2.831-0.02646 0.9525-0.18521 1.6404-0.05292 1.8521 0.89958 0.15875 0.71438-0.23812 1.1377-1.0848 1.2171l-0.60854-0.37042c0.9525 0.05292 1.4023-0.29104 1.2965-0.76729-0.13229-0.55562-0.50271-0.71438-1.3758-0.55562-0.76729 0.15875-2.1431 0.21167-3.2279 0z"/>
  <path class="st18" d="m71.817 24.975c0.47625 1.561 1.2965 2.831 2.3283 3.5719-0.13229-1.3229-0.55562-2.7252-1.4023-3.6512-0.34396-0.37042-0.3175-0.44979 0.18521-0.52917 1.1377-0.15875 1.9315-0.58208 2.3548-1.3229-0.9525-0.34396-1.7462-0.18521-2.4871 0.50271-0.44979 0.39688-0.52917 0.23812-0.42333-0.23812 0.39688-2.0108 0.13229-4.7096-1.0054-6.006-0.18521 1.8521-0.05292 3.6248 0.29104 5.5562 0.10583 0.60854-0.02646 0.68792-0.44979 0.23812-1.27-1.27-3.1485-1.9844-4.445-2.0108 0.79375 1.2435 2.3019 2.2225 3.6248 2.7781 0.47625 0.21167 0.47625 0.26458 0.13229 0.58208-0.9525 0.89958-1.6933 2.0373-2.0902 3.4925 1.1112-0.635 2.249-1.8785 2.884-3.0427 0.26458-0.44979 0.37042-0.42333 0.50271 0.07937m2.3021 3.9952c-1.1906-0.66145-2.1431-1.9315-2.5929-3.6248-0.66146 1.27-1.9844 2.5135-3.1485 3.0427-0.34396 0.15875-0.39688 0.07938-0.34396-0.23812 0.34396-1.6404 1.0848-3.0427 2.1696-3.9158-1.4023-0.52917-3.0956-1.6933-3.8365-3.1221-0.13229-0.29104-0.07937-0.34396 0.23812-0.34396 1.3758-0.05292 3.2279 0.47625 4.6038 1.8256-0.42333-1.9579-0.44979-3.5983-0.15875-5.5033 0.05292-0.42333 0.15875-0.39688 0.42333-0.15875 1.4023 1.3229 1.7727 3.9952 1.3494 6.1119 0.74083-0.58208 1.8256-0.68792 2.7252-0.23812 0.23812 0.10583 0.23812 0.13229 0.10583 0.37042-0.44979 0.89958-1.27 1.4552-2.54 1.5875 0.97896 1.0583 1.3758 2.6458 1.3758 4.0217 0.02646 0.3175-0.07964 0.34396-0.37042 0.18521"/>
 </g>
</svg>
