<?xml version="1.0" encoding="UTF-8"?>
<!-- Created with Inkscape (http://www.inkscape.org/) -->
<svg version="1.1" viewBox="0 0 113.48 158.8" xmlns="http://www.w3.org/2000/svg">
 <g transform="translate(-2.8006 -1.7418)">
  <path d="m89.432 84.434c1.2539-0.26869 2.5078-0.53739 2.7765-0.80609 0.98523-0.71652 1.6122-1.5226 1.9704-2.4182 1.7913-0.44784 3.3139-1.7018 3.4035-2.06 0.0895-0.53739-2.3287-3.493-2.8661-3.9409 0.71651-0.2687 1.3435-0.62695 1.9704-1.0748 0.35825 0 0.71653 0.0895 1.1643 0.0895 3.1348-0.71653 10.927-7.5235 11.823-11.733-0.0895-2.06 0.26869-4.2096 0.98522-4.5678 0.71653-0.35826 1.5226 0.0895 2.1496 0.71653 0-0.17921-0.0895-0.2687-0.0895-0.35826-2.3287-9.9417-12.27-17.823-28.75-15.763-2.3287 0.2687-9.7626 3.1348-11.643 3.6722-2.5974 0.71651-10.569 1.9704-14.868 4.0304-6.0009 2.9556-9.7626 7.7026-10.39 8.5982-7.0756 4.6574-15.226 15.674-17.555 26.69-0.80609 3.5826-0.89566 11.733 0 17.465 0-2.3287 0.62695-3.5826 1.7913-3.8513 2.7765-0.44782 2.7765 6.18 4.0304 6.0904 0.98522 0 2.06-6.6278 7.3443-6.4487 4.6574 0.1792 3.8513 5.9113 4.747 5.9113 1.0748-0.0895 2.9556-6.0904 6.6278-4.9261 2.3287 0.80608 2.2391 4.2095 1.8809 6.7174 0.80609-2.06 1.9704-4.2096 3.1348-6.5383 2.5078-0.0895 3.6722 1.4331 3.3139 2.9557 1.9704-1.8809 6.0009-2.7765 5.7322 0.0895 1.3435-1.4331 3.5826-2.5078 4.6574-2.5078 2.2391-0.62695 7.1652-3.1348 9.2252-5.1052 3.3139-1.3435 7.4339-7.613 7.4339-10.927z" fill="#3f3927"/>
  <path d="m66.861 71.089-15.137-0.71651c6.3591 4.7469 11.106 9.3148 11.106 16.57 0 3.4035-1.6122 8.4191-3.7617 12.987 2.5078-0.0895 3.6722 1.4331 3.3139 2.9557 1.9704-1.8809 6.0009-2.7765 5.7322 0.0895 1.3435-1.4331 3.5826-2.5078 4.6574-2.5078 2.2392-0.62695 7.1652-3.1348 9.2252-5.1052 2.2391-0.89565 4.8365-4.0304 6.2696-7.0756z" fill="#302816"/>
  <path d="m96.597 69.566c6.8965-7.2548 10.569-16.48 9.8522-17.017-0.26869-0.26869-4.4783-0.0895-7.4339 0.80609 1.3435-4.8365 1.2539-8.6878 0.71653-8.867-0.44784-0.1792-4.5678 1.3435-7.1652 3.9409 0.44783-1.9704-0.35826-6.0904-0.80609-6.2696-0.71651-0.1792-5.1948 2.5974-6.6278 4.3887-0.35828-1.7913-1.4331-5.2844-1.9704-5.2844s-3.8513 1.6122-4.6574 2.5974l-1.0748 2.5974c-3.0452 0.1792-7.0756 3.0452-8.9565 5.4635-0.71653-0.80608-1.0748-2.8661-1.7018-3.493-2.3287-1.9704-4.5678-2.2391-5.0156-2.06-0.44783 0.1792-0.80608 4.9261-0.26869 6.3591-2.7765-1.1643-7.8818-2.06-8.5087-1.1643-0.35825 0.53739 1.0748 3.8513 2.9556 6.2696-3.4035-0.35825-6.8965 0.44784-6.9861 0.80609-0.2687 0.89564 2.5078 4.0304 5.1948 5.9113-4.12 0.1792-6.8069 1.0748-6.8965 1.5226-0.0896 1.0748 7.7026 8.1504 18.45 10.569-2.1496 1.9704-4.0304 4.9261-3.9409 5.2843 0.0895 0.53739 3.493 1.4331 6.0904 1.4331-1.0748 2.3287-1.8809 6.0904-1.3435 6.6278 0.44783 0.35827 4.2991-0.5374 6.807-1.7913 0.89564 2.8661 2.7765 8.4191 3.493 8.5087 0.80608 0.1792 3.1348-1.8809 4.3887-4.0304 0.35826 1.2539 0.71653 2.5974 0.80609 2.7765 3.6722-1.6122 6.9861-7.3444 7.4339-11.017-1.5226 0.2687-3.0452 0.53739-3.493 0.44781-1.7018-0.35825-3.9409-2.2391-4.8365-3.7617-0.1792-0.35826-0.53739-1.8809-0.35827-2.5974 0.35827-2.1496 2.8661-4.12 4.6574-4.5678-0.26869-0.2687-3.1348-0.62697-3.4035-0.62697 0.0895-0.0895 0.89564-0.71651 1.0748-2.5974l5.4635-0.98522c0 0.44783 0.26869 1.9704 1.3435 2.687-0.0895 0.0895-0.80608 0.89565-0.80608 1.0748 0.89566-0.0895 2.1496 0.1792 2.5974 0.71652 0.44784 0.44782 2.5974 2.9556 2.7765 3.7617 0.1792 1.2539 0.0895 2.3287-0.2687 3.2244 1.7913-0.44784 3.3139-1.7018 3.4035-2.06 0.0895-0.53739-2.3287-3.493-2.8661-3.9409 2.4183-0.98521 4.8365-3.493 4.8365-3.8513 0-0.26869-1.8809-1.0748-2.9556-1.7913z" fill="#fff"/>
  <path d="m66.145 66.79h-0.44783c1.1643 4.2991 10.658 6.8965 19.346 5.6426 3.0452-0.44783 6.9861-0.98522 9.7626-4.6574l0.0895-0.1792c-5.6426 5.6426-24.183 5.3739-28.75-0.80608z" fill="#dbdcdc"/>
  <path d="m47.426 6.1541c-3.0452-4.12-9.9417-6.0904-20.869 0-25.884 14.42-31.796 53.739-8.5983 79.086 3.3139-3.8513 7.3443-5.2844 12.808-4.6574l0.53739-0.80611c-15.226-9.8522-14.778-36.901 11.285-55.083 7.7922-5.4635 8.4191-13.793 4.8365-18.54z" fill="#3f3927"/>
  <path d="m21.094 60.341c-0.17914-11.464 6.2696-25.078 21.496-35.647 7.4339-5.1948 8.4191-13.077 5.2843-17.913 0.62696 6.6278-1.2539 9.7626-5.8217 12.987-8.0609 5.6426-24.362 20.51-20.958 40.573z" fill="#302816"/>
  <path d="m30.498 107.45c-1.8809-5.0156-1.9704-17.197-0.98522-21.943 0.35826-1.6122 0.80608-3.2243 1.433-4.8365-2.4183-0.35827-5.7322-0.0895-7.4339 0.62695-13.166 5.4635-10.121 23.556-4.2991 28.303 2.5078 2.06 6.807 2.4183 11.375 1.1644 0-1.1644-0.0896-2.2391-0.0896-3.3139z" fill="#fff"/>
  <path d="m37.842 25.679c-2.4183-0.44781-5.1052 2.3287-6.0904 2.06-1.6122-0.44784 0.2687-2.8661-1.7017-4.4783-1.9704-1.5226-3.8513 0.53739-4.747-0.53739-0.80609-1.0748 0.80609-2.5974 0.08956-4.9261-0.62696-2.5078-2.687-1.1643-3.3139-2.2391-0.62696-1.0748 2.06-4.2096 1.0748-5.4635-0.2687-0.44781-0.89565-0.62695-1.7017-0.62695-5.2843 4.12-9.4939 9.3148-12.539 15.226-0.35826 1.8809-0.53739 4.0304-0.08956 4.6574 0.35826 0.35825 1.0748-0.35825 1.5226 0.35825 1.1643 1.8809-1.1643 5.1052 1.1643 6.807 1.8809 1.3435 2.5974-0.2687 3.8513 0.7165 1.0748 0.89567-0.44782 3.4035 2.5078 5.1052 2.06 1.2539 2.9556-1.7913 5.1052-1.3435 0.89565 0.1792 0.89565 1.5226 1.5226 1.7018 0.44783 0.0895 1.0748-0.26869 1.7017-0.80608 2.8661-4.9261 6.9861-9.7626 12.45-14.241 0.35826-0.98522 0.17913-1.7018-0.80609-1.9704z" fill="#fff"/>
  <path d="m30.587 110.59 0.0896 0.17921c-3.2244 0.89564-6.2696 0.9852-8.6878 0.26869 1.9704 4.7469 5.6426 14.689 5.3739 16.301-0.17914 1.8809-4.0304 8.1504-6.7174 10.031-2.5078 1.7017-6.3591 0.9852-7.8817 1.2539-0.71652 0.0895-1.5226 0.98522-1.6122 1.7018-0.17914 1.8809 1.7017 2.3287 3.8513 2.2391 0 0 0.62696 0.2687 0.80609 0.35826 0.89565 0.35827 2.5078 0.26869 3.6722 0.0895 0 0 0.44783-0.0895 0.62696 0 0.2687 0.2687 2.8661 0.35826 4.6574 0.1792 0.08956 0.1792 0.2687 0.35828 0.44782 0.44784 0.44783 0.26869 3.4035 0.0895 3.8513 0.0895 0.62695-0.0895 4.2991-1.1643 4.747-1.7017 0.17913-0.1792 0.62695-1.1643 0.98521-2.06 0.0896 1.0748 0.62696 1.8809 1.6122 1.8809 0.62695 0 0.62695-0.62695 1.3435-1.3435 0.62696-0.53739 1.7017-1.2539 2.5078-1.8809-6.0009-5.7322-9.0461-17.465-9.673-28.034z" fill="#3f3927"/>
  <path d="m96.239 65.625c-2.8661 7.7026-25.616 7.9713-30.273 0.89565-2.06-3.2244-1.1643-17.107 10.479-19.794 17.286-3.9408 20.869 15.943 19.794 18.898z" fill="#d6e6ae"/>
  <path d="m89.88 70.193c0-4.6574-1.2539-10.748-4.4783-15.047 0.1792 0.71653 1.1644 8.5087 1.0748 9.7626-0.1792-0.62695-3.2243-7.4339-4.2096-8.7774 0.0895 1.1643 1.3435 13.524 1.3435 15.226 0.9852 0 4.8365-0.35825 6.2696-1.1643z" fill="#f2973a"/>
  <path d="m91.671 74.224c-0.44781-0.53739-1.7017-0.80608-2.5974-0.71652 0-0.1792 0.7165-0.98523 0.80608-1.0748-0.62697-0.44783-0.98522-1.1643-1.1644-1.7017-1.7913 0.44782-3.7617 0.71651-5.8217 0.80609-0.26869 1.2539-0.80608 1.7017-0.89566 1.7913 0.26869 0 3.1348 0.35827 3.4035 0.62697-1.7913 0.44781-4.2991 2.4183-4.6574 4.5678-0.1792 0.71651 0.1792 2.2391 0.35825 2.5974 0.89565 1.5226 3.1348 3.4035 4.8365 3.7617 0.80609 0.0895 5.7322-0.80608 6.2696-1.2539 2.06-1.5226 2.5974-3.1348 2.2392-5.6426-0.1792-0.80609-2.3287-3.3139-2.7765-3.7617z" fill="#3f3927"/>
  <path d="m108.96 85.777 2.5974-0.0895c5.3739-7.7026 5.1948-18.092 1.2539-27.049-0.62695-0.62697-1.433-1.0748-2.1496-0.71652-0.71651 0.35825-1.0748 2.5078-0.9852 4.5678-0.89567 4.2096-8.6878 11.017-11.823 11.733 6.4487 0.89564 10.479 5.7322 11.106 11.554z" fill="#fff"/>
  <path d="m54.054 99.75c-3.6722-1.1644-5.553 4.8365-6.6278 4.9261-0.89566 0-0.0896-5.7322-4.747-5.9113-5.2843-0.1792-6.3591 6.4487-7.3443 6.4487-1.2539 0.0895-1.2539-6.5383-4.0304-6.0904-1.1643 0.2687-1.7913 1.5226-1.7913 3.8513 0.17914 1.7913 0.53739 3.3139 0.98522 4.4782 0.17913 13.793 4.6574 31.169 14.868 34.124l11.733-4.7469c3.7617-2.7765-1.8809-18.898-2.3287-25.705 0.1792-1.6122 0.53739-3.1348 1.1644-4.6574 0.35826-2.5078 0.44781-5.9113-1.8809-6.7174z" fill="#fff"/>
  <path d="m77.788 150.09c-0.44781-0.80608-1.3435-0.44783-3.0452-1.5226-1.433-0.98521-2.7765-2.2391-3.1348-2.4183-0.35826-0.1792-1.433-0.62695-2.4183-1.2539h0.35827c1.7017 0.1792 3.2244-1.6122 3.2244-2.2391 0-0.9852-2.1496-1.1643-4.0304-2.4183-1.9704-1.3435-3.2243-2.3287-3.493-2.3287-0.35827-0.1792-1.5226 0.35825-5.1052-0.62697-3.0452-0.80609-3.8513-1.7913-4.5678-2.06-3.5826-1.0748-7.3444-0.17921-9.9417 3.8513-0.62696 0.98522-0.71652 2.8661-1.7017 5.0156-0.98521 2.2391-2.5078 3.493-2.8661 3.8513-0.2687 0.1792-0.62696 1.3435-1.6122 2.1496-1.8809 1.433-4.2096 3.0452-2.5974 5.2844 1.1643 1.7913 5.8217-0.62697 7.9713-5.1052 0.98522-0.53739 1.8809-1.4331 2.5974-2.3287 0.53739-0.1792 1.6122-0.44783 2.2391-0.2687 0.17914 1.7913 0.2687 4.6574 0.2687 5.1948 0 0.71653 0.53739 2.1496 0.35826 4.4783-0.0896 1.3435 1.5226 3.1348 2.7765 2.687 1.7018-0.71653 3.0452-2.5974 2.2391-4.8365-0.35827-0.98522-0.1792-3.493-0.35827-4.747 0-0.44782-0.53739-1.9704-0.71651-3.493 0.44781-0.53739 1.3435-0.53739 2.4183-0.0895 1.7913 1.9704 5.0156 5.553 5.4635 6.0009 0.53739 1.8809 1.9704 3.5826 3.3139 4.2096 2.5078 1.0748 5.1948 0.1792 4.5678-2.4183 0-0.2687-1.2539-0.89565-1.8809-1.7913-0.44781-0.53739-0.9852-2.06-1.1643-2.3287-0.1792-0.0895-0.98522-0.62697-1.6122-1.2539-0.53739-0.53739-0.80608-1.1643-0.89564-1.2539-0.0895-0.0895-0.53739-0.53739-1.0748-0.9852 1.433 0 3.4035 2.5078 5.1052 2.687 6.5382 6.807 9.8522 1.7913 9.3148 0.35826z" fill="#3f3927"/>
  <path d="m80.207 97.511-0.35825-0.53739c-2.3287 1.5226-5.4635 3.0452-7.0757 3.493-1.0748 0-3.3139 1.0748-4.6574 2.5078 0.2687-2.8661-3.7617-1.9704-5.7322-0.0895 0.35826-1.5226-0.80608-3.0452-3.3139-2.9557-1.1643 2.3287-2.3287 4.4783-3.1348 6.5383-0.62697 1.5226-0.98522 3.0452-1.1644 4.6574 0.0895 0.89564 0.2687 1.9704 0.44783 3.2244 1.9704 0.44783 8.3296 0.89564 10.21 0.53739 6.9861 2.8661 11.554 3.3139 16.749 4.8365-0.53739 3.0452 1.0748 6.3591 3.1348 7.4339 1.0748 0.62695 6.18 2.3287 7.1652 2.3287 1.7913 0 6.0904-0.62695 7.3443-1.5226 1.7913-1.3435 6.3591-5.8217 6.3591-9.7626 0-11.017-16.749-18.719-25.974-20.69z" fill="#fff"/>
  <path d="m80.834 107.18c1.433-4.3887 11.643-3.6722 20.152 0.62695-5.7322-5.3739-14.868-9.0461-20.779-10.3l-0.35828-0.53739c-2.3287 1.5226-5.4635 3.0452-7.0756 3.493-1.0748 0-3.3139 1.0748-4.6574 2.5078 0.2687-2.8661-3.7617-1.9704-5.7322-0.0895 0.35828-1.5226-0.80608-3.0452-3.3139-2.9557-1.1643 2.3287-2.3287 4.4782-3.1348 6.5383-0.62695 1.5226-0.9852 3.0452-1.1643 4.6574 0.0895 0.89566 0.2687 1.9704 0.44783 3.2243 1.9704 0.44784 8.3296 0.89567 10.21 0.5374 6.9861 2.8661 11.554 3.3139 16.749 4.8365-0.53739 3.0452 1.0748 6.3591 3.1348 7.4339 1.0748 0.62695 6.18 2.3287 7.1652 2.3287 1.7913 0 6.0904-0.62697 7.3444-1.5226 1.3435-0.98522 4.2095-3.7617 5.6426-6.7174-9.3148 1.6122-26.69-7.3443-24.63-14.062z" fill="#dbdcdc"/>
  <path d="m96.687 74.134c-0.62695 0.44783-1.2539 0.80608-1.9704 1.0748 0.53739 0.44783 2.9556 3.4035 2.8661 3.9409-0.0895 0.35825-1.6122 1.6122-3.4035 2.06-0.35827 0.89564-0.98522 1.7017-1.9704 2.4182-0.26869 0.2687-1.5226 0.5374-2.7765 0.80609-0.0895 3.1348-3.7617 9.4043-7.4339 11.017l-0.80609 0.80609c4.747 7.0756 18.719 9.3148 24.541 0.9852 6.9861-10.031 2.3287-22.391-9.0461-23.108z" fill="#d6e6ae"/>
  <path d="m105.73 97.242c2.5078-3.493 3.493-7.3443 3.2244-10.837-2.06 9.3148-16.57 10.569-21.227 3.0452-0.89567 2.3287-3.9409 5.1948-5.7322 6.0009l-0.80609 0.80609c4.747 7.0756 18.719 9.3148 24.541 0.9852z" fill="#b9c897"/>
  <g fill="#3f3927">
   <path d="m97.224 132.26c-1.4331-1.4331-4.747-1.4331-5.7322-1.8809-0.2687-0.0895-0.44782-1.1644-0.44782-1.1644-1.9704-0.53739-4.9261-1.6122-5.7322-2.06-2.06-1.0748-3.6722-4.3887-3.1348-7.4339-3.3139-0.98522-6.3591-1.5226-9.9417-2.5078 0 1.2539 0.1792 3.1348 0.1792 4.6574 0.0895 2.4183-0.1792 4.5678 0.1792 5.6426 0.53739 1.2539 2.4183 1.9704 3.3139 4.2096 0.35827 0.9852 1.7018 0.89564 2.3287 0.35825 0.62695 1.8809 2.06 4.0304 3.2244 4.3887 1.0748 0.35828 6.7174 0.98523 7.0756 0.2687 0.0895-0.1792 0.17921-0.44781 0.17921-0.71651 1.433 0.53739 3.4035 0.62695 4.0304-0.35827 1.5226 0.1792 2.06-0.0895 2.3287-0.2687 0.0895-0.0895 0.0895-0.1792 0.1792-0.35825 0.35827 0.26869 1.1644 0.44783 1.6122 0.26869 0.53739-0.26869 1.1644-2.2391 0.35828-3.0452z"/>
   <path d="m108.96 86.225c-0.89565 0.1792-2.06 0.44783-2.3287 0.71653-0.71651 0.80608-0.71651 2.5078 0.1792 3.3139 0.71653 0.62697 4.3887 0.71653 5.1052 0.2687 0.53739-0.44782 1.0748-2.5974 0.80609-3.4035-0.1792-0.62698-0.89565-1.0748-1.2539-1.2539-0.53739-0.2687-1.8809-0.35826-2.5078-0.44784z"/>
   <path d="m108.6 91.51c-0.0895 0.44783-1.5226 3.7617-1.9704 4.2991-1.0748-0.44784-2.5078-0.62695-3.3139-0.35826-0.62697 0.1792-1.6122 1.6122-1.5226 2.5078 0.0895 0.44783 0.98522 0.98522 1.9704 1.433l-1.3435 1.0748c-1.8809-3.3139-4.7469-2.9557-5.2843-1.2539-1.4331-0.89567-2.8661-0.62697-3.1348 0.35825v0.2687c-1.5226-1.5226-2.7765-1.433-3.3139-0.2687-0.1792 0.44784 0.1792 0.89565 0.0895 1.5226 0 0.80608 0 1.7017 0.44784 2.1496 0.44781 0.44781 2.2391 0.35825 3.493 0.44781 0.0895 0.2687 0.0895 0.44783 0.1792 0.53739 0.1792 0.1792 3.0452-0.0895 4.3887-0.80608 0.0895 0.26869 0.2687 0.44783 0.5374 0.44783 0.7165 0.26869 3.2243-1.433 3.493-1.7913 0.1792-0.2687 0.89564-1.9704 0.9852-2.4183 0.44783 0.1792 1.6122 0.71653 2.1496 0.53739 1.0748-0.1792 3.5826-3.4035 3.8513-4.6574 0.1792-1.0748-0.98523-3.3139-1.7018-4.0304z"/>
  </g>
  <path d="m82.983 71.357c-0.44783 2.5974-3.2243 3.6722-4.9261 3.5826-2.1496-0.0895-3.6722-2.1496-4.12-4.12 1.0748 0.2687 6.6278 1.0748 9.0461 0.53739z" fill="#fff100"/>
  <path d="m73.937 70.82c0.0895 0.44784 0.26869 0.89567 0.44781 1.3435 2.5078 0.44783 5.2844 0.71653 8.0609 0.53739 0.2687-0.35825 0.44783-0.80609 0.53739-1.3435-2.4183 0.53739-7.9713-0.26869-9.0461-0.53739z" fill="#ded000"/>
  <path d="m93.91 68.402c-0.0895 2.2392-0.89567 3.7617-2.06 4.2096-1.0748 0.35826-2.5974-0.0895-3.1348-2.06 1.3435-0.2687 4.3887-1.5226 5.1948-2.1496z" fill="#fff100"/>
  <path d="m89.163 71.626c1.6122-0.53739 3.3139-1.3435 4.747-2.7765v-0.44784c-0.80609 0.62695-3.8513 1.8809-5.1948 2.1496 0.0895 0.44783 0.2687 0.80608 0.44782 1.0748z" fill="#ded000"/>
  <path d="m89.163 70.551c0.35827 1.1644 1.433 1.6122 2.1496 1.2539 0.71653-0.35826 0.80609-1.5226 0.53739-2.2391z" fill="#f2973a"/>
  <path d="m89.163 70.551c0.0895 0.35827 0.26869 0.62697 0.53739 0.89566 0.71652-0.26869 1.5226-0.62697 2.2391-1.0748 0.0895-0.26869 0-0.62697-0.0895-0.80609z" fill="#d18331"/>
  <path d="m76.176 71.268c0 3.3139 3.8513 3.0452 4.0304 0.26869z" fill="#f2973a"/>
  <path d="m76.445 72.432c1.0748 0.17921 2.1496 0.2687 3.3139 0.2687 0.26869-0.2687 0.35827-0.71651 0.44783-1.1643l-4.0304-0.26869c0 0.53739 0.0895 0.89564 0.26869 1.1643z" fill="#d18331"/>
  <g fill="#009f51">
   <path d="m100.09 49.593c2.4183-0.62694 6.18 0.71653 6.18 1.0748 0 0.35827-3.5826 2.3287-6.7174 1.9704z"/>
   <path d="m107.88 49.504c-0.2687 1.9704 0.0895 7.3443-0.35826 10.3 2.8661-2.06 3.2244-5.9113 2.2391-8.3296z"/>
   <path d="m72.862 48.071c-2.5078-12.539-8.7774-24.362-9.673-24.183-1.0748 0.1792-0.89567 14.33 4.0304 25.526 0.1792 0.1792 0.71651 1.433 1.1643 2.4183 0.0895 0.1792 1.5226-1.7018 2.4183-2.4183 0.98522-0.71653 2.06-1.2539 2.06-1.3435z"/>
   <path d="m77.34 46.548c2.9556-4.8365 4.4783-24.093 3.3139-24.362-1.1644-0.26869-8.4191 12.539-8.4191 26.332 0.62697-0.35825 3.8513-1.7913 5.1052-1.9704z"/>
   <path d="m51.187 72.522c0.89565 0.2687 1.433 4.9261 0.2687 8.5983-1.1644 3.8513-4.4783 7.1652-5.1948 6.807-0.98522-0.44783-1.1644-5.2844 0-8.7774 1.1644-3.4035 3.9409-6.8965 4.9261-6.6278z"/>
   <path d="m37.574 94.286c0.0896-0.89564 3.6722-3.0452 8.0609-2.5974 3.8513 0.35825 7.613 3.3139 7.613 4.2095-0.0895 0.62697-4.4783 2.06-8.24 1.7018-3.1348-0.35828-7.5235-2.3287-7.4339-3.3139z"/>
  </g>
  <path d="m81.46 94.286c-2.06 3.6722-7.8818 4.6574-8.1504 4.4783-0.17921-0.1792 2.06-3.4035 2.4182-3.6722 0.0895 0.26869 0.71653 1.7018 1.1644 1.6122 1.1643-0.0895 3.6722-2.9556 4.2095-3.7617z" fill="#008c46"/>
  <path d="m70.713 100.91c-5.6426 0.1792-8.1504-1.433-8.0609-1.6122 0-0.1792 1.9704-0.80609 5.0156-0.71653 1.8809 0 4.3887 0.62697 7.3443 0.98522-0.44782 0.2687-3.3139 1.2539-4.2991 1.3435z" fill="#008c46"/>
  <path d="m90.148 70.372-0.80609 0.1792c0.0895 0.2687 0.1792 0.53739 0.35826 0.71653 0.44783 0.0895 0.62695-0.1792 0.71652-0.44783 0 0-0.1792-0.2687-0.26869-0.44781z" fill="#fff"/>
  <path d="m77.34 71.626-1.1643-0.1792c0.0895 0.62697 0.1792 1.0748 0.44783 1.433 0.35825 0 0.71651-0.0895 0.89564-0.53739-0.1792-0.1792-0.1792-0.53739-0.1792-0.71652z" fill="#fff"/>
  <path d="m77.251 71.537c0 0.53739 0.26869 1.1643 0.80609 1.2539 0.53739 0 0.89564-0.44781 0.89564-1.0748z" fill="#302816"/>
  <path d="m91.223 70.014c0.0895 0.53739 0 0.89564-0.35827 0.98522-0.26868 0.1792-0.71651-0.0895-0.89565-0.53739z" fill="#302816"/>
  <path d="m65.607 45.921c1.7913 2.2391 5.9113 1.6122 6.6278-0.1792l0.53739 2.5974s-3.5826 2.5078-4.3887 3.8513l-1.7017-3.493z" fill="#008c46"/>
  <path d="m72.773 45.921c0.44784 0.26869 4.4783-0.80609 6.807-5.9113l-2.06 6.6278s-3.5826 0.89567-4.6574 1.4331c-1.0748 0.53739-0.1792 0-0.1792 0z" fill="#008c46"/>
  <path d="m87.103 71.089c-0.26869 0-0.62695 0.0895-0.98522 0.1792h-0.35826c-0.44783 0.0895-0.89564 0.0895-1.2539 0.1792h-0.2687c-0.35825 0.0895-0.71651 0.0895-1.0748 0.0895h-0.2687c-0.0895 0.53739-0.26869 0.89565-0.44781 1.1643 0.89565-0.0895 1.7913-0.1792 2.5974-0.26869 1.2539-0.1792 2.687-0.35826 4.0304-0.80609-0.1792-0.26869-0.2687-0.62695-0.35826-0.89564-0.44783 0.0895-0.80608 0.1792-1.2539 0.26869-0.0895 0-0.2687 0-0.35826 0.0895z" fill="#302816"/>
  <path d="m80.923 78.254c1.0748 2.1496 3.4035 5.4635 5.4635 5.3739 1.433 0 2.3287-1.0748 3.7617-1.0748 1.5226 0 3.5826 0.2687 4.2991-2.1496-0.0895 0.89564-1.5226 3.2243-2.2391 3.4035-0.80608 0.2687-5.2844 1.3435-6.5383 1.0748-0.89565-0.1792-3.4035-1.7017-4.5678-3.5826-0.53739-0.80608-0.26869-2.1496-0.1792-3.0452z" fill="#302816"/>
  <g fill="#dbdcdc">
   <path d="m49.127 58.46c1.433 1.9704 7.613 5.4635 10.39 6.18-0.35827 0.35827-4.5678-0.1792-5.2844-0.0895-2.5078-1.2539-5.6426-5.1052-5.1052-6.0904z"/>
   <path d="m53.158 51.474c1.7913 3.4035 4.4782 5.6426 5.1052 6.6278l-2.06-0.2687c-1.5226-1.5226-3.9409-4.747-3.0452-6.3591z"/>
   <path d="m47.515 65.984c2.5974 2.4183 12.987 7.7922 19.883 9.2252l-1.7017 1.5226c-8.0609-1.6122-18.719-8.6878-18.182-10.748z"/>
   <path d="m61.846 81.657c1.1643 0.35825 3.8513 0.44781 6.0904 0.1792 0.98522-0.1792 2.06 0.1792 2.1496 1.1644-2.1496 0.62695-7.613 0.0895-8.24-1.3435z"/>
   <path d="m66.772 89.718c0.62695-0.0895 4.0304-1.6122 5.8217-2.687 0.62695-0.35826 1.8809-0.5374 2.2391 0.1792-1.8809 1.2539-7.5235 3.4035-8.0609 2.5078z"/>
   <path d="m81.819 91.331c-1.2539-0.35827-2.7765 2.7765-4.9261 5.1052 1.0748 0.1792 4.0304-2.3287 4.9261-5.1052z"/>
   <path d="m89.342 85.688c0.0895-0.2687 0.0895-0.53739 0.0895-0.71651l0.1792-0.53739c-1.0748 0.35825-3.1348 0.53739-3.8513 0.35825-1.433-0.26869-3.3139-1.6122-5.0156-3.493 0.44783 2.06 2.5078 4.5678 4.4783 5.1052 0.80609 0.26869 1.5226 0.62695 1.3435 1.6122-0.26869 1.7913-2.8661 5.6426-4.3887 6.8965 2.3287 0.53739 6.0904-6.0009 7.0756-9.0461z"/>
   <path d="m94.447 79.418c0.53739 0.0895 2.5078-0.1792 2.9556-0.2687-0.17921 0.44783-1.6122 1.8809-3.1348 1.9704-1.5226 0.1792-0.0895 0.0895-0.0895 0.0895s0.2687-0.89564 0.2687-1.7913z"/>
   <path d="m99.463 71.089c-0.98522 0.80608-2.1496 1.6122-3.8513 2.3287-1.5226 0.62695-1.3435 1.6122-1.3435 1.7017 1.1643 0 3.8513-1.7017 5.0156-3.2244 0.2687-0.35825 0.0895-0.44781 0.1792-0.80608z"/>
   <path d="m95.97 69.387c-0.2687-0.35828 0.35827-1.9704 1.5226-3.1348 2.7765-3.0452 7.1652-9.9417 8.8669-13.883 1.2539 2.2391-7.8817 16.122-10.39 17.017z"/>
   <path d="m99.553 44.578c-0.2687 1.6122-1.7913 8.4191-2.8661 9.9417l2.3287-1.1644c0.44783-1.3435 1.6122-8.5087 0.53739-8.7774z"/>
   <path d="m91.492 42.428c0.35825 1.6122 0.44783 3.3139 0.26869 4.8365-0.0895 0.98521 0.1792 1.6122 0.53739 1.7913 0.80609-1.7913 0.2687-6.8965-0.80608-6.6278z"/>
   <path d="m62.025 46.369c-0.0895 1.6122 0.0895 3.2243 0.35827 5.1948 0.1792 0.71651-0.0895 1.3435-0.53739 1.6122-0.80608-0.62697-0.71653-6.807 0.1792-6.807z"/>
   <path d="m82.983 41.264c0.44781 1.3435 0.80609 3.5826 0.71651 5.1948l1.3435 0.44781c0.1792-2.5974-1.6122-5.4635-2.06-5.6426z"/>
   <path d="m115.5 71.357c-1.2539 6.6278-4.2991 10.479-7.3443 11.554l0.62695 2.3287c0.44783 0 2.687 0.62695 2.687 0.62695 2.1496-2.3287 4.2991-8.6878 4.0304-14.51z"/>
   <path d="m14.466 98.854c2.5078 6.807 8.7774 9.3148 15.316 5.9113l0.98522 2.7765-0.0896 3.2243c-12.181 3.4035-15.853-4.9261-16.211-11.912z"/>
  </g>
  <path d="m25.303 131.9c3.2243-1.1643 9.8522 0.1792 11.823 2.687-3.5826-3.493-6.7174-19.346-6.4487-24.003-3.3139 1.1643-7.0757 1.1643-8.4191 0.62695 0.35826 1.0748 5.553 14.241 5.1948 15.943-0.26869 1.7017-2.1496 4.7469-2.1496 4.7469z" fill="#302816"/>
  <path d="m38.648 27.65c0.35826-0.98522 0.17914-1.7018-0.80609-1.9704-1.5226-0.26869-3.1348 0.71653-4.3887 1.4331-3.6722 3.7617-7.4339 8.5982-9.8522 14.241 0.35826 0.53739 0.44782 1.2539 0.89565 1.3435 0.44783 0.0895 1.0748-0.26869 1.7017-0.80608 2.8661-4.9261 6.9861-9.7626 12.45-14.241z" fill="#dbdcdc"/>
  <path d="m8.017 70.104c1.433 3.9409 9.4939 11.733 14.599 11.823-1.0748 0.2687-3.6722 2.5078-4.4783 3.2244-1.7913-1.2539-7.4339-8.1504-10.121-15.047z" fill="#302816"/>
  <path d="m36.051 132.44c1.1643 2.2391 6.6278 6.9861 10.479 5.553-0.89565 0.44783-1.7017 2.5078-1.7017 3.4035-3.8513-1.1643-7.7026-5.6426-8.7774-8.9565z" fill="#dbdcdc"/>
  <path d="m55.128 135.22c2.06-0.35828 2.5078-5.8218 2.4183-9.5835 1.2539 3.5826 1.0748 9.4043 0 10.748-0.62697-0.44784-1.4331-0.98523-2.4183-1.1643z" fill="#dbdcdc"/>
  <g fill="#302816">
   <path d="m98.657 70.82c1.9704-1.7913 3.7617-6.18 4.12-9.7626-0.71652 1.3435-5.0156 7.1652-6.4487 8.4191z"/>
   <path d="m106.45 87.479c0.0895 1.7017 3.0452 3.0452 5.9113 2.5974-0.0895 0.62695-0.35825 0.5374-0.62695 0.62695-0.35825 0.0895-4.2991 0.35826-4.9261-0.26869-0.62697-0.53739-0.71653-1.6122-0.35828-2.9556z"/>
   <path d="m106.81 97.242c-2.2391-0.9852-3.6722-0.44781-4.2096 1.4331 0.35827 0.26869 0.62697 0.44781 1.1644 0.71651l-1.5226 0.98522c-2.6869-2.06-5.0156-0.35825-4.6574 0.62695-1.433-1.5226-3.493-0.62695-3.493 0.0895-1.1644-1.0748-2.5078-0.98522-3.3139-0.53739 0 0.1792 0.0895 0.35825 0 0.53739 0 0.80609 0 1.7017 0.44783 2.1496 0.44783 0.44781 2.2391 0.35825 3.493 0.44781 0.0895 0.26869 0.0895 0.44783 0.1792 0.53739 0.1792 0.1792 3.0452-0.0895 4.3887-0.80609 0.0895 0.2687 0.26869 0.44783 0.53739 0.44783 0.71652 0.2687 3.2243-1.433 3.493-1.7913 0.1792-0.26869 0.89564-1.9704 0.98522-2.4183 0.44781 0.1792 1.6122 0.71652 2.1496 0.53739 0.62694-0.0895 1.7017-1.1643 2.5974-2.4183-0.71651 0-1.433-0.1792-2.2391-0.53739z"/>
   <path d="m90.775 130.83c-0.1792-0.1792-0.80609-0.71651-0.9852-1.9704-1.7913-0.53739-3.8513-1.3435-4.4783-1.7017-2.06-1.0748-3.6722-4.3887-3.1348-7.4339-2.4182-0.71653-4.0304-1.0748-6.3591-1.6122-1.9704 2.2391-2.7765 6.8965-3.0452 9.673 0.5374 1.1643 2.2392 1.8809 3.1348 3.9409 0.35826 0.9852 1.7017 0.89564 2.3287 0.35825 0.62695 1.8809 2.06 4.0304 3.2244 4.3887 1.0748 0.35828 6.7174 0.98523 7.0756 0.2687 0.0895-0.1792 0.1792-0.44781 0.1792-0.71651 1.433 0.53739 3.4035 0.62695 4.0304-0.35827 1.5226 0.1792 2.06-0.0895 2.3287-0.2687 0.0895-0.0895 0.0895-0.1792 0.1792-0.35825 0.1792 0.1792 1.1643 0.26869 1.5226 0.26869 0.35826-1.9704-0.62697-2.9556-1.8809-3.4035-1.7018-0.62695-3.9409-0.89564-4.12-1.0748z"/>
   <path d="m38.469 136.56c-1.7913 2.9556-2.9556 3.3139-3.4035 2.3287l-0.17914 1.7913c0.2687 0.62695 0.71652 1.1643 1.5226 1.1643 0.62695 0 0.62695-0.62695 1.3435-1.3435 0.62695-0.53739 1.7017-1.2539 2.5078-1.8809-0.62696-0.62695-1.1644-1.3435-1.7913-2.06z"/>
   <path d="m32.916 140.5c-0.44782 0.5374-3.3139 1.6122-4.4782 1.7018-1.0748 0-4.12 0.0895-3.7617-1.7018-0.62696 1.4331-0.35826 2.5974 0.53739 3.1348 0.44783 0.2687 3.4035 0.0895 3.8513 0.0895 0.62696-0.0895 4.2991-1.1643 4.747-1.7017 0.0896-0.17921 0.44782-0.80609 0.71652-1.5226l0.17913-2.4183c-0.53739 0.98523-1.1643 1.8809-1.7913 2.4183z"/>
   <path d="m24.318 141.31c-1.0748 0.71653-4.5678 0.35828-5.1052-0.26869 0 0.62697 0.44783 1.8809 1.0748 2.1496 0.2687 0.1792 2.5974 0.1792 4.3887 0.0895z"/>
   <path d="m14.734 140.59c0.44783 0.80609 3.1348 0.98523 4.4783 0.53739l0.62696 1.8809c-0.98522 0.0895-3.8513 0.2687-4.2096-0.0895-0.35826-0.35828-1.0748-1.5226-0.89565-2.3287z"/>
   <path d="m11.331 140.14c0.08956 0.53739 1.7017 1.2539 3.2243 0.71653l0.71652 1.7017c-1.1643 0-4.3887 0.0895-3.9409-2.4183z"/>
   <path d="m66.772 142.83c1.7913 1.2539 4.9261 0.44783 5.8217-0.44784 0.62697 0.80609-1.2539 2.5078-3.3139 2.687z"/>
   <path d="m61.04 144.62c0.5374 0.26869 3.1348 1.2539 4.0304 1.7017 0.35827 0.0895 1.1644 0.80608 1.9704 1.2539 0.98521 0.5374 1.8809 0.80609 2.06 0.98521 0.44783 0.1792 4.3887 5.1948 8.6878 2.4183-0.35827 1.433-2.1496 2.8661-4.4783 1.9704-2.4183-0.89566-4.8365-3.2243-4.8365-3.2243-1.2539-0.1792-4.0304-2.5078-4.747-2.3287z"/>
   <path d="m54.233 146.77c-0.0895-0.35825-0.62695-1.3435 0.35828-1.433 0.89564-0.1792 1.7017 1.2539 1.7017 1.2539-0.35826-0.0895-1.6122-0.26869-2.06 0.1792z"/>
   <path d="m69.817 154.92c-0.5374 2.1496-5.4635 0.89566-7.7922-2.2391 0.0895 1.6122 1.9704 4.6574 5.2844 5.0156 1.6122 0.0895 2.9556-0.53739 2.5078-2.7765z"/>
   <path d="m50.381 156.71c0.0896 1.433 4.3887 1.8809 4.9261 0.44783 0.0895 2.4182-4.2991 5.2843-4.9261-0.44783z"/>
   <path d="m49.754 147.49c0.26869-2.1496-1.3435-1.7913-2.06 0.1792z"/>
   <path d="m36.32 154.03c0.26869 0.62694 2.2391 0.62694 3.3139 0.0895 3.4035-1.8809 3.9409-4.12 4.4783-4.6574 0.44782-0.53739 1.7017-0.71653 3.9409-2.7765 0.62696-0.44784 1.0748-0.53739 1.5226-0.44784l0.17914 1.433c-0.44783-0.0895-1.8809 0-2.2391 0.26869-0.2687 0.2687-1.6122 1.6122-2.687 2.3287-0.71653 1.8809-4.12 5.3739-6.4487 5.7322-1.0748 0.1792-1.8809-0.2687-2.06-1.9704z"/>
  </g>
  <g fill="#0f141b">
   <path d="m67.757 98.227c-3.3139 0-5.4635 0.62694-5.553 0.98522 0 0.26869 1.9704 2.06 7.9713 1.9704 0.35827 0 1.1644-0.62695 0.98522-0.5374-5.1948 0.2687-7.9713-1.1643-7.9713-1.2539 0.0895-0.17921 2.4183-0.5374 4.4783-0.44782 2.1496 0.0895 4.12 0.53739 6.5382 0.71651l0.89567-0.35825c-3.2244-0.35826-5.2844-0.98523-7.3444-1.0748z"/>
   <path d="m80.834 46.638c-15.047 0-16.838 15.853-14.42 19.615 4.5678 6.8965 26.601 6.3591 29.377-0.89564 0.80609-2.1496-1.7913-18.719-14.957-18.719zm-15.226 20.242c-2.4183-3.5826-1.1643-21.137 15.137-21.137 13.524 0 17.197 16.57 15.943 19.973-2.8661 7.7026-26.422 8.24-31.079 1.1643z"/>
   <path d="m74.654 58.191v-1.6122c0.0895-0.89565 0.44784-0.89565 0.53739-0.0895 0 0.44781 0.0895 1.1643 0 1.7017-0.0895 1.0748-0.35825 1.0748-0.53739 0z"/>
   <path d="m72.504 57.385c0-0.62695 0.0895-1.3435 0.35827-1.8809 0.35826-0.7165 0.80609-0.7165 0.5374 0.0895-0.17921 0.44781-0.35828 1.3435-0.44784 1.8809-0.1792 0.9852-0.53739 0.9852-0.44783-0.0895z"/>
   <path d="m89.7 54.34c-0.35828-0.44783-0.89567-1.1643-1.2539-1.5226-0.80609-0.89565-0.53739-1.1643 0.35825-0.35825 0.35828 0.35825 0.89567 0.98522 1.2539 1.5226 0.71653 1.1643 0.53739 1.3435-0.35825 0.35825z"/>
   <path d="m85.67 54.967c-0.44784-0.62695-0.71653-0.44781-0.5374 0.2687 0.0895 0.53739 0.71653 5.3739 1.0748 8.3296-0.98523-2.5078-3.0452-6.7174-3.7617-7.7026-0.35825-0.53739-0.62695-0.53739-0.53739 0.26869 0.0895 0.98521 1.1643 13.166 1.2539 15.137h0.89564c0-1.7017-0.80608-10.121-1.3435-13.793 1.2539 2.4183 3.2243 6.8069 3.4035 7.3443 0.26869 0.98522 0.7165 0.80608 0.7165-0.2687 0-0.98522-0.35825-5.6426-0.89564-8.24 2.5078 4.0304 3.493 10.031 3.493 13.883l0.89565-0.26869c-0.0895-4.12-1.433-10.658-4.6574-14.957z"/>
   <path d="m77.967 75.298c-2.2392-0.1792-3.7617-1.9704-4.3887-4.2991-0.0895-0.1792 0.89567 0 0.89567 0.1792 0.44781 1.6122 1.6122 3.3139 3.5826 3.4035 2.4182 0.1792 4.0304-1.1643 4.3887-2.8661 0-0.1792 0.89567-0.1792 0.89567 0-0.44784 1.9704-2.5078 3.7617-5.3739 3.5826z"/>
   <path d="m93.552 68.939c0 1.4331-0.62697 2.9556-1.8809 3.4035-0.98522 0.44783-2.06-0.0895-2.5974-1.6122 0-0.1792-0.71653 0-0.62695 0.17921 0.62695 1.8809 2.1496 2.4182 3.493 1.9704 1.6122-0.62695 2.2391-2.687 2.3287-4.3887z"/>
   <path d="m88.984 70.731c-0.0895-0.1792 0.44783-0.26869 0.44783-0.0895 0.35826 0.80609 1.0748 1.1643 1.7017 0.89564 0.71653-0.26869 0.80609-0.98522 0.53739-1.7017 0-0.1792 0.53739-0.35827 0.62695-0.1792 0.1792 0.71653 0.0895 1.9704-0.9852 2.4183-0.80609 0.35825-1.9704-0.26869-2.3287-1.3435z"/>
   <path d="m79.759 71.716c-0.0895 1.0748-0.62695 1.6122-1.433 1.7017-1.0748 0-1.7913-0.80609-1.7913-1.9704l-0.71651-0.0895c0.1792 1.7017 1.2539 2.5974 2.4183 2.5974 1.1643-0.0895 2.1496-0.80608 2.2391-2.2391z"/>
   <path d="m94.806 77.896c-0.1792-0.98522-2.1496-3.0452-2.8661-3.8513-0.44783-0.53739-1.6122-0.80609-2.4183-0.80609 0.0895-0.0895 0.35825-0.44781 0.62695-0.53739l-0.71653-0.44781c-0.0895 0.1792-0.53739 0.71651-0.71651 1.2539-0.0895 0.26869-0.0895 0.35827 0.35826 0.26869 0.89564 0 1.9704 0.2687 2.4183 0.71653 0.98522 1.1643 2.5078 2.9556 2.5974 3.493 0.35826 2.5078-0.26869 3.9409-2.1496 5.3739-0.44783 0.35825-5.2844 1.2539-5.9113 1.0748-1.6122-0.26869-3.6722-1.9704-4.5678-3.493-0.0895-0.2687-0.44784-1.7017-0.35828-2.3287 0.35828-1.8809 2.687-3.9408 4.3887-4.2991 0.35825-0.0895 0.53739-0.35825 0.1792-0.53739-0.53739-0.35825-2.2391-0.71651-3.0452-0.80608l-0.71653 0.71652c0.35828 0 1.8809 0.1792 2.5974 0.2687-1.7017 0.89564-3.7617 2.687-4.12 4.5678-0.1792 0.80609 0.0895 2.3287 0.35825 2.7765 0.89565 1.6122 3.2244 3.5826 5.1052 3.9409 0.80608 0.1792 6.0008-0.89565 6.6278-1.2539 2.06-1.7017 2.687-3.3139 2.3287-6.0904z"/>
   <path d="m87.64 79.956c-0.26869-0.1792-0.62697-0.44784-0.80608-0.62695-0.44784-0.53739 0.1792-1.0748 0.62695-0.53739 0.1792 0.1792 0.44783 0.44781 0.53739 0.7165 0.44783 0.71653 0.26869 0.98523-0.35826 0.44784z"/>
   <path d="m91.044 78.971c0-0.1792 0.0895-0.44781 0.0895-0.7165 0-0.80609 0.89564-0.71653 0.80608 0.1792-0.0895 0.26869-0.1792 0.53739-0.26869 0.71653-0.44783 0.80608-0.80609 0.71652-0.62697-0.17921z"/>
   <path d="m82.356 80.941c-0.35825-0.71653 0-0.80609 0.35826-0.1792 0.44783 0.71653 2.5974 2.4183 3.7617 2.4183 1.5226 0 1.7018-0.62695 3.493-0.89565 1.0748-0.26869 1.6122 0 2.3287-0.0895 0.62695-0.1792 1.2539-0.80609 1.8809-1.9704 0.2687-0.62695 0 0.71653-0.44783 1.433-0.35826 0.44783-0.80609 0.98522-1.3435 1.1644-0.44781 0.0895-1.2539-0.1792-2.3287 0-1.8809 0.44781-2.2391 1.0748-3.5826 1.1643-0.89564 0-3.4035-1.433-4.12-3.0452z"/>
   <path d="m61.219 82.105c-0.26869-1.0748 3.3139-5.2844 5.4635-6.6278 0.89564-0.62695 1.1643-0.26869 0.35825 0.44784-2.2391 1.9704-4.8365 5.6426-4.747 5.9113 0 0.17921 3.8513 1.5226 6.9861 1.0748 0.89567-0.0895 1.0748 0.26869 0.0895 0.53739-2.5974 0.80608-7.9713-0.53739-8.1504-1.3435z"/>
   <path d="m66.234 90.256c-0.89567-0.89564 0.1792-5.1052 1.1643-6.8069 0.0895-0.1792 0.98522-0.0895 0.89564 0.0895-1.6122 2.8661-1.6122 5.9113-1.5226 6.0904 0.26869 0.35825 4.8365-0.80609 7.1652-2.1496 0.89567-0.62695 1.2539-0.2687 0.35828 0.44783-1.8809 1.3435-7.2548 3.1348-8.0609 2.3287z"/>
   <path d="m76.714 97.152c-1.0748-0.26869-3.0452-6.2696-3.7617-8.6878l0.89565-0.44783c0.53739 2.5078 2.4183 8.1504 3.0452 8.24 0.44784 0.1792 3.0452-1.9704 4.2991-4.2991 0.53739-0.89566 0.98522-0.71653 0.53739 0.2687-1.1643 2.5974-4.0304 5.1052-5.0156 4.9261z"/>
   <path d="m99.911 71.357c0-0.35825-2.5078-1.6122-3.4035-2.1496-0.71653-0.53739-0.89566-0.0895-0.35827 0.44783 0.71652 0.62695 2.8661 1.6122 2.8661 1.7913 0 0.1792-2.1496 2.4182-4.3887 3.3139-0.44783 0.1792-0.44783 0.44781-0.0895 0.7165 0.89566 0.89567 2.687 3.3139 2.5974 3.5826-0.0895 0.2687-1.433 1.2539-2.5078 1.5226l-0.2687 0.98522c1.2539-0.2687 3.493-1.6122 3.5826-2.3287 0.0895-0.53739-1.5226-2.8661-2.5078-3.8513 2.06-1.0748 4.6574-3.3139 4.4782-4.0304z"/>
   <path d="m106.72 52.191c-0.53739-0.53739-6.8965-0.0895-9.4939 1.7017-0.9852 0.62695-0.62695 0.98522 0.35827 0.44783 2.3287-1.2539 7.4339-1.6122 8.5983-1.5226 0 1.433-3.5826 9.3148-10.031 16.211l0.89566 0.53739c7.613-8.1504 10.39-16.749 9.673-17.376z"/>
   <path d="m99.821 44.13c-0.53739-0.2687-4.12 0.98522-6.6278 3.1348 0-1.8809-0.35826-4.4783-0.98523-5.2844l-1.2539-0.0895c-1.5226 0.62695-4.2096 2.4183-5.553 3.7617-0.44783-1.6122-1.3435-4.747-2.2391-4.747-0.62697 0-3.2244 1.2539-4.747 2.8661l-0.35825 1.5226c1.433-1.7913 4.7469-3.5826 5.0156-3.5826 0.26869 0.0895 1.1644 2.5078 1.4331 4.6574 0 0.1792 0.9852 0.53739 1.0748 0.35828 1.3435-1.6122 5.7322-4.2991 6.0008-4.12 0.2687 0.0895 0.98523 4.0304 0.62695 5.7322-0.1792 0.62695 0.0895 1.0748 0.71653 0.44781 2.3287-2.3287 6.2696-4.0304 6.6278-3.8513 0.26869 0.0895 0.0895 4.8365-1.0748 8.5087l1.1643-0.44783c1.0748-3.4035 1.3435-8.4191 0.1792-8.867z"/>
   <path d="m106.63 50.757c0-0.7165-3.7617-2.06-6.3591-1.6122l-0.1792 0.89567c2.2391-0.71653 5.7322 0.53739 5.6426 0.7165 0 0.0895-3.0452 1.7913-6.0009 1.5226l-0.26869 0.80608c3.1348 0.17921 7.1652-1.5226 7.1652-2.3287z"/>
   <path d="m65.16 76.911c-8.5983-1.5226-18.54-9.0461-18.271-10.927 0.0896-1.0748 6.18-2.5078 12.181-1.433 1.3435 0.1792 1.2539 0.62695 0 0.53739-6.7174-0.53739-11.375 0.80609-11.375 1.0748-0.0896 0.80609 8.6878 8.3296 18.182 9.9417 0.2687 0.0895-0.7165 0.80609-0.7165 0.80609z"/>
   <path d="m53.247 64.461c-2.7765-1.6122-4.9261-5.1948-4.6574-5.9113 0.17914-0.71653 5.9113-1.7913 9.2252-0.71653 0.89564 0.35826 0.80609 0.80609-0.0895 0.62695-3.4035-0.7165-8.24-0.0895-8.3296 0.35828-0.0895 0.35825 2.2391 4.0304 5.4635 5.4635 0.1792 0.0895-1.4331 0.2687-1.6122 0.1792z"/>
   <path d="m61.577 46.011c-0.71653 0.26869-0.98523 4.0304-0.71653 6.0904-2.687-1.0748-7.4339-1.8809-8.24-0.80608-0.53739 0.89564 0.71653 4.0304 2.5974 6.2696 0 0 1.5226 0.1792 1.433 0.0895-2.3287-2.5974-3.5826-5.4635-3.3139-5.8217 0.35825-0.62697 4.9261 0.0895 7.9713 1.3435 0.53739 0.1792 0.71651 0.0895 0.53739-0.53739-0.35827-1.3435 0-5.7322 0.0895-5.9113 0.1792-0.0895 2.1496-0.2687 4.8365 1.7017 0.53739 0.35825 0.35826-0.62695-0.35825-1.1643-1.7018-1.2539-4.12-1.6122-4.8365-1.2539z"/>
   <path d="m73.4 47.712c-2.4183-12.002-8.9565-24.63-10.3-24.272-1.8809 0.35825-0.89564 18.271 5.0156 28.93l0.5374-1.0748c-6.18-12.36-5.7322-26.69-5.3739-26.78 0.62695-0.1792 6.7174 11.464 9.1356 23.735 0.0895 0.26869 0.98523-0.2687 0.98523-0.53739z"/>
   <path d="m80.834 21.649c-1.433-0.2687-7.7026 9.7626-8.867 22.929-0.0895 1.3435 0.80608 2.687 0.80608 2.3287 0.44784-12.897 7.0756-24.272 7.7026-24.093 0.53739 0.1792-0.53739 17.107-3.6722 24.093l0.98522-0.1792c3.0452-6.5383 4.6574-24.63 3.0452-25.078z"/>
   <path d="m113.08 58.102c-2.8661-12.27-15.584-18.003-29.019-15.943l0.2687 0.80609c2.06-0.35828 4.12-0.44784 6.18-0.35828 0.35826 0 0.80609-0.44781 1.0748-0.35825 0.2687 0 0.35826 0.44783 0.5374 0.44783 8.9565 0.89565 17.465 5.7322 20.063 15.226 0 0.0895 0.1792 0.71653 0.2687 0.80609 4.12 9.3148 3.493 19.883-1.3435 26.78l0.89565 0.44781c5.3739-7.7922 5.6426-17.644 1.0748-27.855z"/>
   <path d="m46.441 58.908c-0.0896 0.1792 1.3435-0.35828 1.8809-0.98523 0.89565-1.0748 2.5078-2.687 4.747-4.2991l-0.26869-1.1643c-4.0304 3.0452-6.2696 6.3591-6.3591 6.4487z"/>
   <path d="m54.949 51.026 1.7017 0.1792c1.1644-0.62695 2.2391-1.1643 4.3887-1.7913l0.1792-1.1644c-1.9704 0.62697-4.8365 1.8809-6.2696 2.7765z"/>
   <path d="m97.582 73.686-0.9852 0.80609h0.0895c6.4487 0 11.375 5.3739 11.823 12.002l0.89565-0.1792c-0.44781-6.7174-5.1948-12.27-11.823-12.629z"/>
   <path d="m81.729 96.077c-0.0895-0.26869-0.89566 0.35826-0.80608 0.53739 1.7017 3.0452 5.553 5.1948 9.7626 6.0009v-1.0748c-4.0304-0.80609-7.5235-2.8661-8.9565-5.4635z"/>
   <path d="m103.22 99.302c-0.35826 0.26869-0.71653 0.53739-1.0748 0.71653l0.44783 0.80608c0.44781-0.35827 0.9852-0.71653 1.433-1.0748z"/>
   <path d="m108.24 90.524c-0.35825 1.7018-0.9852 3.4035-1.9704 5.0156l0.80609 0.35825c0.98522-1.7017 1.6122-3.493 1.9704-5.2843z"/>
   <path d="m100.09 82.643c0.35825-0.80609 0.71653-2.2391 0.80609-2.9556 0.0895-0.80608 0.53739-0.80608 0.53739 0 0 0.89565-0.2687 2.3287-0.62695 3.2244-0.35828 0.89564-0.98522 0.53739-0.71653-0.2687z"/>
   <path d="m102.33 82.911c0.44783-0.44784 0.89567-1.2539 1.1644-1.9704 0.35826-0.89567 0.62695-0.80609 0.44781 0.0895-0.1792 0.89565-0.62695 1.7913-1.0748 2.3287-0.62695 0.7165-1.2539 0.1792-0.53739-0.44784z"/>
   <path d="m101.97 92.764c-0.62697-0.0895-0.71653-0.53739-0.0895-0.62697h1.1644c0.5374-0.0895 0.62695 0.53739 0 0.62697h-1.0748z"/>
   <path d="m113.17 87.031c-0.1792-0.62695-0.71651-1.0748-1.5226-1.5226-0.53739-0.26869-1.7018-0.53739-2.687-0.62697l0.0895 0.0895 0.0895 0.80608c0.62697 0.0895 1.7913 0.2687 2.1496 0.44781 0.53739 0.35828 0.98523 0.71653 1.0748 0.98523 0.1792 0.62695-0.26869 2.7765-0.7165 3.0452-0.44784 0.35827-4.0304 0.1792-4.5678-0.2687-0.80608-0.71651-0.71652-2.1496-0.0895-2.7765 0.26869-0.35826 1.5226-0.53739 2.5078-0.71653 0.62695-0.0895 0.7165-0.53739-0.0895-0.53739-1.2539 0-2.687 0.26869-3.0452 0.71653-1.0748 1.0748-0.89564 2.9556 0.17921 3.9409 0.44781 0.35825 1.8809 0.62695 3.2243 0.62695 1.0748 0 1.9704-0.1792 2.3287-0.44783 0.71653-0.53739 1.3435-2.8661 1.0748-3.7617z"/>
   <path d="m108.78 90.972-0.35825 1.1644c0.62695 0.80609 1.5226 2.5078 1.433 3.2243-0.26869 1.2539-2.687 4.3887-3.493 4.5678-0.62695 0.0895-4.0304-1.5226-4.12-2.06-0.0895-0.62695 0.71651-1.7913 1.2539-1.9704 0.80609-0.2687 2.5974 0 3.5826 0.53739 0.71651 0.35825 0.9852 0 0.2687-0.62697-1.0748-0.80609-3.0452-1.1643-4.12-0.80609-0.89565 0.2687-1.9704 1.8809-1.7913 2.9556 0.0895 0.98522 3.7617 2.5974 5.0156 2.5974 1.5226 0 4.12-4.2096 4.2991-5.0157 0.1792-1.2539-1.2539-3.7617-1.9704-4.5678z"/>
   <path d="m103.85 99.571c-0.17921 0.53739-0.71653 1.9705-0.80609 2.1496-0.35825 0.44783-2.687 1.9704-3.1348 1.7913-0.62695-0.17921-0.7165-1.2539-1.1643-2.06-0.53739-0.71651-1.2539-0.9852-1.2539-1.3435-0.26869-1.7017 2.3287-2.9557 4.4783 0.2687 0.62695 0.98522 1.0748 0.71653 0.53739-0.35825-2.06-3.9409-6.3591-2.8661-5.8217 0.1792 0.0895 0.80608 0.98522 1.2539 1.3435 1.7017 0.5374 0.80608 0.62697 1.9704 1.7018 2.3287 0.80608 0.26869 3.493-1.3435 3.9408-1.8809 0.1792-0.2687 0.89566-1.7018 1.0748-2.3287z"/>
   <path d="m94.627 104.5c-0.44781-0.53739-0.35825-1.7017-0.53739-2.5974-0.1792-0.80608-0.71651-1.7913-0.53739-2.4183 0.35828-1.433 2.2391-1.6122 3.493-0.71652 0.1792 0.1792-0.0895 0.80608-0.26869 0.71652-0.89565-0.80608-2.1496-0.53739-2.3287 0.2687-0.0895 0.44781 0.1792 1.5226 0.35825 2.06 0.1792 0.62697 0.1792 1.8809 0.35825 2.06 0.1792 0.0895 2.8661-0.1792 3.6722-0.71653 0.1792-0.0895 0.71653 0.62697 0.53739 0.80609-0.62695 0.44783-4.2096 1.0748-4.747 0.53739z"/>
   <path d="m94.537 103.24c-1.0748-0.44783-2.5974 0.1792-3.0452-0.2687-0.2687-0.26869-0.35826-0.98522-0.2687-1.7913 0-0.62695-0.26869-1.0748-0.0895-1.433 0.26869-0.80609 1.2539-1.1644 2.5078 0.44781l0.1792-0.89564c-1.3435-1.5226-2.9556-1.0748-3.493 0.1792-0.1792 0.53739 0.1792 1.2539 0.1792 1.6122-0.0895 0.80609-0.0895 1.7913 0.44784 2.4183 0.62695 0.71651 2.3287 0.0895 3.6722 0.53739 0 0 0.0895-0.71653-0.0895-0.80609z"/>
   <path d="m87.909 97.331c1.1644 0.71653 2.687 0.35825 3.2243-0.53739 0.53739-0.80609 0-2.3287-0.9852-2.8661-1.1644-0.62695-2.5078-0.44781-3.1348 0.44783-0.44783 0.71653-0.26869 2.2391 0.89565 2.9556zm-1.5226-3.3139c0.71651-1.1644 2.4183-1.5226 4.12-0.62697 1.3435 0.80608 2.06 2.687 1.3435 3.7617-0.89564 1.4331-3.0452 1.5226-4.2991 0.71653-1.5226-0.89564-1.7913-2.9556-1.1643-3.8513z"/>
   <path d="m112.45 57.923c-0.62697-0.44781-1.3435-0.62695-1.9704-0.35825-1.0748 0.53739-1.1643 3.3139-1.1643 4.747 0 0.26869 0 0.26869-0.0895 0.53739-1.2539 4.12-9.0461 10.658-11.733 11.016l1.7913 0.2687c3.5826-1.7913 9.4939-7.2548 10.569-11.106 0.0895-0.17921 0.1792-0.35826 0.0895-0.62695-0.0895-2.4183 0.53739-3.8513 0.98522-4.0304 0.5374-0.35825 1.2539-0.0895 1.8809 0.62695z"/>
   <path d="m51.098 72.88c-0.71653-0.1792-3.3139 3.1348-4.3887 6.4487-1.1644 3.6722-0.98522 8.0609-0.35826 8.24 0.71652 0.1792 3.5826-3.0452 4.747-6.5382 1.1643-3.6722 0.53739-7.9713 0-8.1504zm-5.0157 15.405c-1.433-0.62694-1.3435-6.0008-0.2687-9.3148 1.1644-3.5826 4.2991-7.1652 5.553-6.8069 1.1643 0.35825 1.7017 5.2844 0.53739 9.0461-1.3435 4.2991-4.6574 7.613-5.8217 7.0756z"/>
   <path d="m38.111 94.286c-0.0896 0.53739 3.4035 2.5078 6.8965 2.8661 3.7617 0.35826 7.7026-0.98522 7.7922-1.3435 0.0895-0.53739-3.493-3.4035-7.2548-3.7617-4.3887-0.44783-7.4339 1.8809-7.4339 2.2391zm6.7174 3.6722c-2.8661-0.2687-7.7922-2.2391-7.613-3.6722 0.17914-1.3435 4.3887-3.4035 8.4191-3.0452 3.8513 0.44784 8.0609 3.4035 7.9713 4.747 0 0.89565-4.747 2.3287-8.7774 1.9704z"/>
   <path d="m54.233 99.302c-4.2096-1.2539-5.8217 5.0157-6.7174 4.8365-0.62695-0.0895-0.0896-5.7322-4.8365-5.8217-5.2843-0.1792-6.807 6.4487-7.3443 6.4487-0.71652 0.0895-1.2539-6.7174-4.12-6.0904-0.89566 0.1792-1.5226 0.80608-1.7913 1.7913l0.44783 3.5826c-0.0896-2.687 0.44782-4.2096 1.5226-4.3887 2.3287-0.44781 2.4183 6.0904 3.9409 6.0009 1.3435-0.0895 2.2391-6.6278 7.3443-6.4487 4.3887 0.1792 3.0452 5.553 4.6574 5.8217 1.7017 0.35827 3.0452-5.8217 6.5383-4.8365 1.7913 0.53739 2.1496 3.2244 1.433 7.4339l1.2539-2.687c0.0895-2.4183-0.1792-4.9261-2.3287-5.6426z"/>
   <path d="m62.473 88.106c-1.6122 10.927-7.7922 16.122-8.1504 23.018 0.35825 7.0756 5.3739 21.316 2.8661 24.899l0.89565 0.44781c3.0452-4.7469-2.3287-17.555-2.7765-25.347 0.35826-6.2696 6.7174-12.36 7.7026-23.018 0.1792-1.7017-0.35825-1.7017-0.53739 0z"/>
   <path d="m36.409 155.64c-1.9704-2.8661 1.5226-4.9261 2.7765-5.9113 0.89565-0.62695 1.0748-1.7913 1.5226-2.1496 1.1643-0.98522 2.1496-2.06 2.8661-3.6722 0.80609-1.9704 1.0748-3.9408 1.7017-5.0156 2.687-4.2096 6.2696-5.2844 10.39-4.0304 0.71652 0.2687 1.7913 1.2539 4.5678 2.06 3.2243 0.89566 4.6574 0.44783 5.1052 0.53739 0.53739 0.1792 1.8809 1.433 3.5826 2.5078 1.6122 1.0748 4.2991 1.433 4.3887 2.687 0 0.89564-1.433 2.4183-3.2244 2.5974-0.1792 0-1.2539-0.7165-1.0748-0.7165 1.5226 0.0895 3.2243-1.0748 3.2243-1.8809 0-0.62697-2.3287-1.2539-3.6722-2.06-1.2539-0.71652-2.687-2.06-3.4035-2.2391-0.35828-0.1792-1.7913 0.2687-5.1948-0.71653-2.3287-0.62694-3.2243-1.5226-4.5678-1.9704-1.8809-0.71653-6.5382-0.89567-9.4043 3.5826-0.62696 1.0748-1.1644 3.7617-1.7017 5.0156-0.98521 2.1496-2.06 3.1348-2.9556 4.0304-0.44782 0.62695-0.53739 1.3435-1.6122 2.06-1.0748 0.89566-3.9409 2.687-2.5078 4.6574 0.71653 1.0748 4.9261-0.44783 7.1652-4.747 0.17913-0.2687 0.26869-0.35825 0.44782-0.44783 0.98522-0.53739 1.9704-1.5226 2.687-2.5078 0.53739-0.98522 1.0748-0.89564 0.53739 0.26869-0.62696 1.0748-1.6122 2.1496-2.5974 2.7765-0.17914 0.1792-0.2687 0.26869-0.44783 0.44783-1.7017 3.2244-6.807 7.4339-8.5982 4.8365z"/>
   <path d="m54.322 141.04c-0.44781-0.5374-1.1643-1.3435-1.6122-1.8809-0.62695-0.62695-0.1792-0.9852 0.35827-0.35826 0.44781 0.44784 1.1643 1.3435 1.6122 1.9704 0.62695 0.80609 0.2687 0.98522-0.35827 0.2687z"/>
   <path d="m78.147 149.91c-0.44783-0.9852-1.7018-0.80608-3.2243-1.7017-0.80609-0.53739-2.9556-2.3287-3.1348-2.4182-0.0895-0.0895-1.9704-0.89565-2.8661-1.433-0.44781-0.2687-1.5226-1.5226-1.9704-1.8809-0.44783-0.35827-3.0452-0.71653-5.1052-1.6122-0.80608-0.35828-1.0748 0-0.26869 0.53739 1.433 0.80609 4.2991 1.3435 4.8365 1.7017 0.53739 0.44783 1.5226 1.433 2.1496 1.8809 0.89564 0.53739 2.7765 1.433 2.8661 1.5226 0.0895 0 2.1496 1.7913 3.0452 2.4183 1.7913 1.0748 2.5974 0.71651 2.8661 1.3435 0.35825 0.80609-2.5078 5.4635-8.4191-0.62697-0.1792-0.2687-0.44781-0.35825-0.71651-0.44781-1.2539-0.35828-3.2243-2.5078-4.747-2.5078l0.62695 0.98522c0.98523 0.0895 3.0452 2.2391 4.2096 2.4183 7.0756 7.3443 10.569 1.7017 9.8522-0.1792z"/>
   <path d="m65.249 157.52c-1.433-0.62697-2.687-2.3287-3.3139-4.12-0.0895-0.26869-0.1792-0.35825-0.35825-0.62694-1.2539-1.2539-4.8365-5.3739-6.0009-6.7174-0.62695-0.80609-0.2687-1.0748 0.44783-0.26869 1.3435 1.3435 5.1948 5.553 6.2696 6.5382 0.1792 0.2687 0.2687 0.35828 0.35828 0.71653 0.53739 1.6122 1.7913 3.0452 3.0452 3.5826 2.687 1.1644 4.5678-0.35825 3.9409-1.7913-0.2687-0.53739-1.1644-0.89566-1.8809-1.7018-0.26869-0.53739-0.98522-2.1496-1.1644-2.3287-0.1792-0.1792-0.9852-0.80609-1.433-1.2539-0.35826-0.35825-0.71653-0.98522-0.98523-1.2539-0.35825-0.26869-2.5078-2.4183-3.4035-3.493-0.80609-0.89564-0.35827-1.2539 0.44781-0.44781 0.89567 0.9852 3.2244 3.1348 3.493 3.3139 0.2687 0.2687 0.44784 0.98523 0.98523 1.433 0.35825 0.35827 1.433 1.0748 1.5226 1.1644 0.2687 0.35825 0.35825 1.433 1.1643 2.4183 0.53739 0.80608 1.9704 1.3435 2.1496 1.8809 0.62695 2.7765-1.8809 4.4782-5.2844 2.9556z"/>
   <path d="m49.844 157.34c0.0896-1.7017-0.2687-3.2244-0.35826-4.4783 0-0.62694 0-4.5678-0.17914-6.0904-0.0896-0.80609 0.53739-0.89567 0.62696-0.0895 0.26869 1.6122 0.44782 5.553 0.44782 6.18 0.0896 0.98522 0.35826 3.0452 0.35826 4.5678 0 0.98522 1.2539 2.2391 2.1496 2.06 1.7913-0.44784 2.5078-2.4183 2.06-4.2096-0.35828-1.3435-0.1792-4.0304-0.2687-4.7469 0-0.0895-0.80608-3.1348-0.89566-4.2991 0-0.89566 0.53739-0.89566 0.62697 0 0.0895 1.0748 1.0748 3.9408 1.0748 4.12 0.0895 0.53739 0 4.2096 0.1792 4.747 0.98522 2.7765-0.80609 5.1052-2.4183 5.3739-1.8809 0.44781-3.493-1.4331-3.4035-3.1348z"/>
   <path d="m49.575 147.22c-0.53739-0.0895-1.1644 0-1.7017 0.1792l-0.80608 1.1643 0.0896-0.0895c0.62696-0.35826 1.5226-0.62695 2.4183-0.35826z"/>
   <path d="m55.845 146.14c-0.80608-0.0895-1.1643 0-1.5226 0.1792l0.0895 1.0748c0.44782-0.62695 1.0748-0.71653 2.5078 0.0895z"/>
   <path d="m39.634 138.35c-0.17914 0.2687-1.7017 1.5226-2.1496 1.8809-0.62696 0.53739-0.71653 1.1643-1.1644 1.1643-1.433-0.0895-1.7017-3.2243-0.17914-5.4635 0.53739-0.71652 0.2687-0.98522-0.44783-0.26869-1.7913 2.06-1.9704 6.6278 0.71653 6.6278 0.89565 0 0.98521-0.89564 1.6122-1.433 0.53739-0.53739 2.2391-1.5226 2.4183-1.7913 0.0896-0.1792-0.62696-0.89564-0.80609-0.71651z"/>
   <path d="m24.855 144.08c-1.1643-0.62697-1.3435-3.2243-0.08956-4.2991 0.62696-0.53739 3.8513-1.0748 4.12-1.1644 0.17914-0.1792 0.71652-1.1643 0.98522-1.5226 0.53739-0.71652 0.71652-0.62697 0.44783 0.1792-0.17914 0.5374-0.80609 1.7913-0.98522 1.9704-0.35826 0.1792-3.2244 0.44781-4.0304 1.1643-0.62696 0.53739-0.62696 2.4183 0.08956 2.7765 0.35826 0.1792 2.7765 0.1792 3.6722 0.0895 0.62695 0 4.0304-1.1644 4.3887-1.6122 0.35826-0.35828 0.89565-1.9704 0.98522-2.5078 0.0896-0.1792 0.44782 1.6122 0.35826 1.7913 0 0.26869-0.35826 0.98522-0.62696 1.433-0.53739 0.71653-4.4783 1.7018-5.0156 1.7018-0.71652 0.0895-3.6722 0.35826-4.2991 0z"/>
   <path d="m20.467 142.74c-0.44783-0.35828-0.80609-1.1644-0.71652-1.6122 0.08956-0.26869 0.80609-1.3435 1.2539-1.5226 0.62696-0.35825 2.9556-0.2687 3.5826-0.53739 0.2687-0.1792 0.62696-0.80609 0.89565-1.3435 0.35826-0.89564 0-0.98522-0.62696-0.1792-0.2687 0.35828-0.44783 0.80609-0.62696 0.89567-0.44783 0.26869-3.0452 0.1792-3.5826 0.35825-0.71652 0.35825-1.7017 1.7017-1.7913 2.1496-0.17914 0.71653 0.2687 2.1496 1.0748 2.687 0.62696 0.35825 3.8513 0.0895 4.8365 0l-0.44783-0.80609c-1.6122 0.0895-3.5826 0-3.8513-0.0895z"/>
   <path d="m15.541 143.28c-0.71652-0.2687-1.5226-1.7018-1.3435-2.5974 0.17914-1.0748 0.98522-1.8809 1.2539-2.1496 1.2539-0.80609 4.9261 0.1792 6.5383-1.433 0.62696-0.62697 0.98522-0.44783 0.53739 0.1792-1.6122 2.3287-5.2843 0.98523-6.5383 1.9704-0.17914 0.0895-0.62696 0.71651-0.80609 1.5226-0.08956 0.62697 0.53739 1.5226 0.80609 1.7018 0.80609 0.26869 2.2391 0.26869 3.4035 0.0895 0.17914 0 0.71652 0.71653 0.44782 0.80609-0.71652 0.0895-3.3139 0.26869-4.2991-0.0895z"/>
   <path d="m22.795 111.48-1.3435-0.2687c1.3435 2.8661 5.7322 14.33 5.4635 16.032-0.17914 1.7913-3.9409 7.9713-6.5383 9.8522-2.5974 1.7913-4.8365 0.80609-7.613 1.0748-0.98522 0.0895-2.06 1.1643-2.1496 2.06-0.2687 2.3287 2.06 2.8661 4.5678 2.687l-0.35826-0.80608c-2.4183 0.0895-3.3139-0.62697-3.2243-1.7913 0.08956-0.44783 0.62696-1.1643 1.2539-1.3435 1.1643-0.26869 5.553 0.2687 7.9713-1.3435 2.8661-1.8809 6.807-8.3296 7.0756-10.3 0.17913-1.8809-3.6722-12.45-5.1052-15.853z"/>
   <path d="m23.243 80.762c-13.166 5.4635-11.106 23.735-4.2991 29.198 3.3139 2.7765 7.9713 2.2391 11.464 1.1643 0.2687-0.0895 0.0896-0.98523-0.0896-0.89565-4.2991 1.2539-8.4191 0.9852-10.837-0.98522-5.7322-4.6574-8.1504-22.302 4.2096-27.407 1.6122-0.62694 4.4783-0.98522 6.7174-0.71652l0.35826-0.98521c-2.4183-0.26869-5.8217-0.0895-7.5235 0.62695z"/>
   <path d="m47.874 5.7958c-4.0304-5.2843-12.181-5.4635-21.585-0.1792-27.855 15.584-31.169 56.516-8.6878 79.892l0.62696-0.71653c-22.66-24.989-16.928-63.95 8.5982-78.19 9.0461-5.0156 16.48-5.1052 20.152-0.1792 3.5826 4.8365 2.5078 12.718-4.747 17.823-26.332 18.361-26.78 45.589-11.375 55.71l0.26869-0.80609c-14.33-9.8522-13.883-36.005 11.823-53.918 7.8817-5.553 8.7774-14.241 4.9261-19.436z"/>
   <path d="m38.021 25.231c-2.7765-0.62697-5.0156 2.5974-6.18 2.1496-0.98521-0.44783 0.44783-3.1348-1.433-4.4783-2.06-1.433-4.12 0.26869-4.747-0.44783-0.53739-0.71651 0.89565-2.4183 0.26869-4.8365-0.80608-2.687-3.0452-1.433-3.493-2.3287-0.53739-0.98522 2.4183-3.8513 1.1643-5.5531-0.2687-0.35825-0.80609-0.44783-1.3435-0.62695l-0.98522 0.80609c0.71652 0 1.3435 0.0895 1.6122 0.44781 0.89565 1.2539-1.7913 4.2991-1.1643 5.3739 0.71652 1.3435 2.5974-0.26869 3.3139 2.2391 0.71652 2.4183-0.98522 3.7617 0 5.0156 0.89565 1.1644 2.9556-0.89565 4.8365 0.62697 1.8809 1.5226-0.0896 3.6722 1.7913 4.5678 1.433 0.71651 3.493-2.5974 6.0904-2.06 0.62696 0.17921 0.89565 0.62695 0.44783 1.7913l1.0748-0.89566c0-0.9852-0.2687-1.6122-1.2539-1.7913z"/>
   <path d="m24.587 42.249c-0.62696-0.0895-0.53739-1.433-1.5226-1.6122-2.06-0.62695-3.3139 2.4183-5.1052 1.3435-2.687-1.6122-0.98522-4.0304-2.3287-5.1052s-2.1496 0.62695-3.8513-0.80609c-1.9704-1.5226 0.2687-4.747-1.0748-6.5382-0.53739-0.80609-1.433-0.1792-1.7017-0.53739-0.35826-0.80609 0-2.9556 0.53739-4.9261l-1.3435 2.687c-0.08956 1.2539-0.08956 2.3287 0.35826 2.8661 0.35826 0.44784 1.2539-0.0895 1.5226 0.35826 0.89565 1.5226-1.2539 5.0156 1.1643 6.8965 1.8809 1.433 2.9556-0.0895 3.8513 0.71653 0.80609 0.53739-0.35826 3.493 2.5078 5.1052 2.3287 1.3435 3.493-1.8809 5.2843-1.2539 0.71652 0.1792 0.62696 1.433 1.5226 1.6122 0.35826 0.0895 0.89565-0.0895 1.0748-0.1792l0.80608-1.5226c-0.71652 0.62695-1.3435 0.9852-1.7017 0.89565z"/>
   <path d="m71.877 100.38c0.0895 0 1.5226 0.1792 1.6122 0.1792 2.5974-0.71653 7.8817-3.493 9.4043-5.1948l-1.2539-0.1792c-1.9704 2.2391-6.18 4.12-9.7626 5.1948z"/>
   <path d="m73.937 98.317c-0.0895-0.0895 1.0748-1.8809 1.8809-2.7765l-0.44783-0.80609c-1.0748 1.2539-2.687 4.0304-2.3287 4.3887 0.1792 0.1792 5.8217-0.44781 8.5087-4.5678l-0.2687-0.80609c-2.06 3.6722-7.2548 4.747-7.3443 4.5678z"/>
   <path d="m68.384 102.26c-0.35825-1.8809-3.1348-1.8809-5.6426-0.0895-0.0895-1.6122-1.1643-2.4183-3.3139-2.5078l-0.35827 0.71653c2.1496-0.0895 3.3139 0.98523 3.0452 2.3287-0.0895 0.62695 0.1792 0.71651 0.53739 0.35826 1.8809-1.7913 5.2843-2.4183 5.1052-0.0895-0.0895 0.62695 0.1792 0.71651 0.53739 0.2687 1.6122-1.8809 5.7322-3.4035 4.6574-1.6122-0.62695 0.98521-0.1792 1.0748 0.53739 0 1.433-1.9704-2.06-2.06-5.1052 0.62695z"/>
   <path d="m67.309 112.29c0.98522-1.3435 2.5974-3.2244 3.9409-4.3887 0.71653-0.62695 0.98523-0.44781 0.2687 0.2687-1.2539 1.433-2.5078 2.8661-3.6722 4.3887-0.71651 0.80609-1.0748 0.62695-0.53739-0.26869z"/>
   <path d="m87.64 121.51c-8.4191-4.12-13.077-3.3139-21.764-6.8965-0.26869-0.0895-0.44783-0.0895-0.80608-0.0895-2.1496 0.2687-7.8818-0.35827-9.7626-0.71653l0.1792 1.0748c2.3287 0.44783 7.5235 0.71652 9.673 0.44783 0.1792 0 0.35825 0 0.62695 0.0895 8.4191 3.6722 13.793 3.1348 21.675 6.6278 1.2539 0.53739 1.433 0.0895 0.1792-0.53739z"/>
   <path d="m80.296 97.063-1.1643 0.7165c1.1643 0.1792 2.5078 0.53739 3.9409 0.98523l-1.3435-1.3435c-0.53739-0.1792-0.98522-0.2687-1.433-0.35825z"/>
   <path d="m97.224 104.32-1.3435 0.1792c5.4635 3.5826 9.7626 8.24 9.7626 13.614 0 3.6722-4.12 7.9713-6.0904 9.4043-1.0748 0.80609-5.1948 1.5226-7.0756 1.5226-0.98522 0-5.9113-1.7913-6.8965-2.3287-2.1496-1.1643-3.4035-4.0304-2.8661-6.6278l-0.80609-0.1792c-0.62697 2.8661 0.71651 6.4487 3.1348 7.7922 0.98522 0.53739 6.2696 2.2391 7.4339 2.2391 1.8809-0.0895 6.2696-0.62695 7.613-1.6122 1.7018-1.2539 6.6278-5.8217 6.6278-10.121 0-6.0904-5.0157-10.837-9.4939-13.883z"/>
   <path d="m79.49 122.77c-0.89564-0.80609-1.2539-0.44783-0.35825 0.53739 1.1643 1.3435 3.0452 2.7765 4.8365 3.1348l-0.98522-1.3435c-1.3435-0.62695-2.5974-1.433-3.493-2.3287z"/>
   <path d="m76.534 126.62c1.5226 1.0748 2.3287 3.3139 1.5226 4.8365-0.35826 0.80609-1.433 0.80609-1.7913 0-0.89565-2.1496-2.7765-2.8661-3.2244-4.12-0.1792-0.62697-0.1792-4.6574-0.1792-5.4635 0-0.9852-0.1792-4.0304-0.1792-4.2991l-0.80609-0.2687c-0.0895 0.44783 0.0895 3.6722 0.1792 4.5678 0 0.89567-0.1792 5.0157 0.0895 5.7322 0.44783 1.433 2.5974 2.3287 3.4035 4.3887 0.53739 1.3435 2.687 1.433 3.4035 0.1792 1.0748-1.9704-0.35825-5.1052-2.1496-6.0904-0.9852-0.44783-1.0748 0-0.2687 0.5374z"/>
   <path d="m88.178 133.43c-0.71652-0.80609-3.6722-0.80609-4.2096-1.1643-0.1792-0.1792-0.53739-0.80609-0.71652-1.2539-0.35826-1.2539-0.89565-1.1643-0.53739 0.0895 0.1792 0.62697 0.44783 1.3435 0.71652 1.7018 0.35826 0.35826 3.5826 0.44781 4.2096 1.0748 0.53739 0.44782 0.80609 2.2391 0.53739 2.5974-0.35827 0.35827-5.2844 0.0895-6.6278-0.35825-0.98523-0.35826-2.5974-2.9556-2.687-4.2096l-0.80608 0.71653c0.26869 1.5226 1.8809 3.7617 3.2243 4.2096 1.1643 0.44782 7.2548 0.98521 7.7026 0.0895 0.53739-0.89565-0.1792-2.9556-0.80609-3.493z"/>
   <path d="m92.208 132.71c-0.71652-0.62695-3.7617-0.89565-4.6574-1.2539-0.53739-0.2687-0.89564-0.62697-0.9852-1.2539-0.0895-0.98522-0.62697-0.98522-0.62697 0.0895 0.0895 1.0748 0.62697 1.2539 1.2539 1.7018 0.53739 0.26869 3.7617 0.62695 4.5678 1.1643 0.62695 0.53739 0.98523 1.7017 0.62695 2.2391-0.53739 0.80608-2.5974 0.62697-3.4035 0.35827l-0.0895 0.62695c1.0748 0.44783 3.493 0.71653 4.2991-0.44783 0.62697-0.9852-0.1792-2.5078-0.9852-3.2244z"/>
   <path d="m92.835 136.02c-0.1792 0 0.1792-0.80608 0.44784-0.71653 0.44781 0.0895 1.3435-0.0895 1.433-0.26869 0.35825-0.35826 0.1792-1.6122-0.53739-2.2391-0.98522-0.89567-4.0304-1.0748-4.6574-1.4331-0.0895 0-0.35827-0.71651-0.44783-1.0748-0.1792-0.80609 0.26869-0.9852 0.53739-0.0895 0.0895 0.2687 0.26869 0.53739 0.35825 0.71653 0.2687 0.2687 3.8513 0.53739 4.747 1.2539 0.98523 0.89567 1.3435 2.8661 0.62695 3.5826-0.35825 0.2687-1.6122 0.44781-2.5078 0.2687z"/>
   <path d="m95.253 135.49c-0.1792-0.0895 0.0895-0.80609 0.2687-0.71653 0.26869 0.0895 0.98522 0.1792 1.1643 0.0895 0.26869-0.1792 0.71653-1.7913 0.1792-2.3287-1.2539-1.2539-4.9261-1.5226-5.553-1.7913-0.35825-0.1792-0.7165-0.98521-0.80608-1.5226l0.89566 0.1792c0.0895 0.35828 0.2687 0.71653 0.2687 0.71653 1.3435 0.53739 4.3887 0.53739 5.8217 1.8809 0.98522 0.98522 0.26869 3.3139-0.44781 3.6722-0.2687 0.0895-1.4331 0-1.7913-0.1792z"/>
   <path d="m50.023 56.848c-16.928 8.867-25.974 30.363-20.152 50.336 0.0896 0.2687 0.17914 0.44784 0.17914 0.80609 0.26869 14.33 4.4783 30.452 14.51 33.766l0.2687-0.98522c-8.6878-2.8661-13.524-19.346-13.793-32.87 0-0.35825-0.0896-0.62695-0.17913-0.89564-5.553-18.988 3.4035-40.573 19.436-49.619 1.2539-0.62695 1.0748-1.1643-0.26869-0.53739z"/>
   <path d="m110.39 52.728c-0.0895-0.35825-1.2539-1.433-1.1643-1.2539 1.1643 2.687 0.80609 5.4635-1.3435 7.7026 0.44783-3.1348 0.1792-7.613 0.35825-9.2252l-0.62695-0.71653c-0.35825 2.1496 0.0895 6.9861-0.35825 10.39-0.1792 0.80609 0 0.89565 0.62695 0.35826 2.1496-1.5226 3.1348-4.5678 2.5078-7.2548z"/>
   <path d="m88.805 84.703c-0.26869 2.5974-2.9556 8.3296-6.5382 10.121-0.1792-0.62695-0.62697-2.06-0.80608-2.3287-0.0895-0.1792-0.71653 0.71651-0.62697 0.89565 0.1792 0.35825 0.71653 1.8809 0.71653 2.1496 0.0895 0.35825 0.26869 0.35825 0.53739 0.2687 4.12-1.7017 7.7026-8.3296 7.8817-11.375z"/>
  </g>
 </g>
</svg>
