<?xml version="1.0" encoding="UTF-8"?>
<!-- Created with Inkscape (http://www.inkscape.org/) -->
<svg version="1.1" viewBox="0 0 123.86 118.04" xmlns="http://www.w3.org/2000/svg">
 <g stroke-width=".26458">
  <path class="st0" d="m56.383 83.906c1.9579 1.0583 9.7102 0.29104 10.292-1.3758 0.76729-2.1167-0.29104-7.276-2.5665-10.16-0.76729-1.0583-1.6669-1.3758-2.4342-0.89958-2.4077 3.4925-4.3921 8.4931-5.2917 12.435m66.807 16.192c-0.15875 1.8256-3.4925 3.3338-7.8846 3.4925-3.0427 0.15875-3.6248 1.2171-4.2333 4.2333-0.89958 5.1594-5.7679 6.5088-14.102 4.7096-16.669-3.6248-27.887-2.884-42.571 3.0427-11.218 4.3921-20.902-0.15875-21.061-4.2333 0-1.8256-1.0583-2.4342-3.175-2.7252-4.8419-0.76729-8.7842-1.2171-15.769-1.2171-9.8425-0.15875-13.785-2.5664-13.785-3.4925 0-0.89958 1.0583-2.1167 5.7679-4.101 2.2754-0.89958 5.0006-2.1167 7.276-3.7835 3.6248-12.277 9.3927-17.568 14.393-16.219 8.0433-30.454 28.628-42.439 36.38-42.122 17.727 0.60854 31.221 36.83 34.846 42.73 5.4504-3.6248 10.16-5.2917 12.726-3.9423 3.0427 1.5081 0.7673 13.494 0.60855 15.61 1.6669 1.2171 2.884 1.8256 5.0006 2.884 3.7835 1.9579 5.9002 3.466 5.5827 5.1329" fill="#dcd3ac"/>
  <path class="st1" d="m66.384 61.311c2.4342-1.5081 4.5508-1.6669 7.1173-0.29104 4.8419 2.4342 7.4348-1.0583 6.2177-4.5508-1.6669-4.5508-6.059-6.6675-10.451-6.3765-4.3921 0.15875-8.1756 2.7252-9.3927 7.1173-1.6933 5.1594 2.249 6.5352 6.5087 4.101" fill="#42462b"/>
  <g fill="#cfddd3">
   <path class="st2" d="m65.458 53.585c-0.76729-0.15875-1.6669 0.89958-1.9579 2.4342-0.29104 1.8256 0.29104 3.0427 0.89958 3.0427 0.76729 0.15875 1.8256-0.44979 2.1167-2.4342 0.15875-1.8256-0.13229-2.884-1.0583-3.0427"/>
   <path class="st2" d="m74.11 53.294c-0.76729 0.15875-1.0583 1.3758-0.76729 2.884 0.44979 1.8256 1.5081 2.5665 2.2754 2.4342 0.76729-0.29104 1.2171-1.2171 0.60854-3.3338-0.44979-1.8521-1.5081-2.3019-2.1167-1.9844"/>
   <path class="st2" d="m21.669 87.848c-0.76729 0.29104-1.9579 3.3338-1.0583 3.9423 0.76729 0.60854 2.5665-1.2171 2.5665-2.1167 0-0.76729-1.0583-1.9844-1.5081-1.8256"/>
   <path class="st2" d="m47.599 107.69c0-0.4498-1.3758-1.2171-2.884-1.5081-2.2754-0.29104-3.4925 0.60854-3.4925 1.0583 0 0.60855 1.2171 1.0583 3.175 1.3758 1.2171 0.13229 3.0427-0.47625 3.2015-0.92604"/>
   <path class="st2" d="m116.39 99.358c0.15875-0.44979-0.60854-1.0583-2.2754-1.5081-1.6669-0.60854-2.7252-0.15875-2.884 0.29104-0.15875 0.44979 0.44979 1.0583 2.2754 1.5081 1.8256 0.3175 2.5665 0.3175 2.884-0.29104"/>
  </g>
  <g fill="#a9a38c">
   <path class="st3" d="m60.775 46.626c-0.15875 0-0.44979 0.15875-0.44979 0.44979 0.15875 0.15875 0.29104 0.44979 0.44979 0.29104 0.15875 0 0.44979-0.15875 0.44979-0.29104 0-0.3175-0.29104-0.44979-0.44979-0.44979"/>
   <path class="st3" d="m51.991 53.426c-0.29104 0-0.44979 0.15875-0.44979 0.44979 0 0.29104 0.15875 0.44979 0.44979 0.44979 0.15875 0 0.44979-0.15875 0.44979-0.44979 0-0.29104-0.15875-0.44979-0.44979-0.44979"/>
   <path class="st3" d="m45.006 73.296c-0.29104-0.29104-0.76729-0.15875-0.89958 0.15875-0.29104 0.29104-0.29104 0.76729-0.15875 0.89958 0.29104 0.15875 0.60854 0.15875 0.89958-0.15875 0.3175-0.29104 0.3175-0.76729 0.15875-0.89958"/>
   <path class="st3" d="m49.265 83.747c-0.29104-0.15875-0.60854 0-0.76729 0.29104-0.29104 0.44979-0.29104 0.89958-0.15875 0.89958 0.15875 0.15875 0.44979 0.15875 0.76729-0.29104 0.44979-0.29104 0.29104-0.74083 0.15875-0.89958"/>
   <path class="st3" d="m29.104 88.748c-0.15875-0.15875-0.60854-0.15875-0.89958 0.15875-0.15875 0.15875-0.29104 0.44979-0.15875 0.76729 0.15875 0.15875 0.44979 0.15875 0.76729 0 0.29104-0.15875 0.44979-0.635 0.29104-0.92604"/>
   <path class="st3" d="m26.061 102.08c0-0.15875-0.29104-0.29104-0.76729-0.29104-0.29104 0-0.60854 0.29104-0.60854 0.44979 0 0.29104 0.29104 0.44979 0.76729 0.44979 0.47625-0.15875 0.60854-0.3175 0.60854-0.60854"/>
   <path class="st3" d="m42.28 101.63c0-0.44979-0.29104-0.60854-0.76729-0.44979-0.60854 0-0.60854 0.29104-0.60854 0.60854 0 0.29104 0.29104 0.44979 0.76729 0.44979 0.44979-0.15875 0.76729-0.3175 0.60854-0.60854"/>
   <path class="st3" d="m54.716 106.18c-0.29104 0-0.60854 0.44979-0.60854 0.60854-0.15875 0.29104 0 0.76729 0.44979 0.76729 0.29104 0 0.44979-0.15875 0.60854-0.60854 0-0.47625-0.15875-0.76729-0.44979-0.76729"/>
   <path class="st3" d="m80.169 102.85c-0.29104-0.15875-0.60854 0-0.89958 0.44979-0.15875 0.29104 0 0.76729 0.15875 0.89959 0.29104 0 0.60854 0 0.76729-0.4498 0.26458-0.3175 0.13229-0.76729-0.02646-0.89958"/>
   <path class="st3" d="m92.895 105.58c-0.29104 0-0.60854 0.29104-0.60854 0.60854 0 0.29104 0.15875 0.60854 0.44979 0.60854 0.29104 0 0.44979-0.15875 0.44979-0.60854 0.15875-0.3175 0-0.47625-0.29104-0.60854"/>
   <path class="st3" d="m107.74 101.32c-0.44979 0-0.76729 0.44979-0.76729 0.76729s0.29104 0.60854 0.76729 0.60854c0.29104 0 0.60854-0.29104 0.60854-0.76729 0-0.29104-0.15875-0.60854-0.60854-0.60854"/>
   <path class="st3" d="m95.62 77.53c-0.29104 0-0.60854 0.15875-0.60854 0.44979s0.29104 0.60854 0.44979 0.60854c0.29104 0.15875 0.44979-0.15875 0.60854-0.60854 0-0.29104-0.29104-0.44979-0.44979-0.44979"/>
   <path class="st3" d="m108.96 81.022c0-0.15875-0.29105-0.29104-0.60855-0.29104-0.29104 0.15875-0.44979 0.44979-0.44979 0.60854 0 0.29104 0.29104 0.44979 0.60854 0.29104 0.29105 0 0.60855-0.15875 0.4498-0.60854"/>
   <path class="st3" d="m110.33 87.081c-0.29104 0-0.60854 0.29104-0.60854 0.44979 0 0.44979 0.15875 0.60854 0.44979 0.60854 0.15875 0 0.44979-0.15875 0.44979-0.44979 0-0.3175-0.15875-0.60854-0.29104-0.60854"/>
   <path class="st3" d="m79.851 49.643c-0.44979-0.15875-0.89958 0.29104-0.89958 0.60854 0 0.29104 0.44979 0.60854 0.60854 0.60854 0.29104 0 0.44979-0.29104 0.60854-0.60854 0-0.29104-0.15875-0.60854-0.3175-0.60854"/>
   <path class="st3" d="m84.852 62.978c-0.29104 0.15875-0.60854 0.29104-0.44979 0.60854 0 0.44979 0.29104 0.60854 0.60854 0.60854s0.44979-0.29104 0.44979-0.60854c0-0.29104-0.29104-0.60854-0.60854-0.60854"/>
   <path class="st3" d="m94.403 91.764c-0.29104 0-0.44979 0.15875-0.44979 0.29104 0 0.29104 0.15875 0.60854 0.44979 0.60854 0.15875 0 0.44979-0.15875 0.44979-0.44979 0-0.29104-0.13229-0.44979-0.44979-0.44979"/>
  </g>
  <path class="st4" d="m79.56 93.749c3.4925-0.44979 6.059-2.1167 7.1173-4.8419 1.6669-5.0006-5.6092-24.104-15.901-24.395-3.3338 0-6.5088 2.884-9.234 6.9585 0.89958-0.44979 1.6669-0.15875 2.5665 0.89958 2.1167 3.0427 3.3338 8.0433 2.5665 10.16-0.60854 1.6669-8.1756 2.4342-10.292 1.3758-0.60854 3.0427-0.60854 5.4504 0 6.8262 1.0583 1.8256 5.0006 3.3338 8.7842 3.6248 4.6831 0.29104 10.292 0 14.393-0.60854" fill="#8c8a71"/>
  <g fill="#b5af90">
   <path class="st5" d="m72.443 90.865c-6.5088 0.29104-11.06 1.5081-10.292 2.884 1.0583 0.29104 1.9579 0.44979 3.0427 0.60854 4.7096 0.29104 10.292 0 14.393-0.60854 1.5081-0.15875 2.7252-0.60854 3.9423-1.2171 0.26458-1.5081-2.9104-2.1167-11.086-1.6669"/>
   <path class="st5" d="m67.125 82.98c-0.89958 1.9579-4.8419 3.4925-10.901 3.0427 0-0.60854 0.15875-1.3758 0.29104-1.9579 3.9423 0.74083 7.5935 0.29104 10.61-1.0848"/>
   <path class="st5" d="m111.68 76.762c1.2171 3.0427 0.29105 9.7102-1.2171 13.944-0.89958 2.7252-0.60854 4.3921 2.1167 4.7096 3.9423 0.60854 7.1173 1.3758 9.3927 3.0427-1.9579-2.7252-6.8262-4.2333-9.3927-6.3765 1.3758-8.9429 1.2171-13.944-0.89959-15.319"/>
   <path class="st5" d="m72.602 46.626c-2.1167-6.2177-7.4348-8.9429-14.552-6.5087l-0.29104-0.76729c-12.594 5.4504-24.421 20.294-29.713 40.296 1.2171 0.76729 3.4925 2.4342 5.0006 5.0006 3.0427-19.235 13.044-35.163 25.612-41.963 4.2333-2.4342 11.06-0.76729 13.944 3.9423"/>
  </g>
  <path class="st6" d="m36.063 64.195c-0.29104 0-0.44979 0.15875-0.60854 0.44979-0.29104 0.44979-0.15875 0.76729 0 0.76729 0.15875 0.15875 0.44979 0 0.60854-0.44979 0.15875-0.44979 0.15875-0.76729 0-0.76729" fill="#86816f"/>
  <g fill="#b5af90">
   <path class="st5" d="m23.495 81.022c-4.2333 3.175-6.3765 9.1017-7.5671 15.293-0.44979 2.5665-0.89958 3.0427-2.7252 3.0427-3.3337 0.15875-6.8262 1.0583-10.451 2.7252 2.2754-2.1167 8.4931-3.9423 11.06-6.2177 2.6988-9.1017 6.0325-13.944 9.6838-14.843"/>
   <path class="st5" d="m19.262 106.92c15.293-1.2171 16.51 1.6669 16.828 4.101 0.29104 2.1167 1.2171 3.9423 6.3765 5.6092-5.2917-0.44979-8.7842-2.7252-9.1017-5.0006-0.44979-2.1167-1.0583-2.7252-3.3338-3.175-4.101-0.60854-6.3765-0.92604-10.769-1.5346"/>
   <path class="st5" d="m72.125 110.26c7.5671-1.2171 19.103-0.29104 28.337 1.0583 5.4504 0.76729 9.234-0.44979 10.451-4.8419 0.29104 7.4348-7.1173 7.8846-12.726 6.3765-9.3927-2.2754-19.685-3.0427-26.061-2.5929"/>
  </g>
  <g fill="#0c1b23">
   <path class="st7" d="m27.437 79.646c7.8846-30.295 28.628-42.73 37.121-42.413 10.901 0.29104 21.511 13.176 33.337 39.396 2.1167 4.5508 3.6248 6.6675 6.8262 9.5515 1.3758 1.3758 1.0583 1.6669-0.44979 0.44979-3.175-2.4342-5.6092-5.4504-7.5671-9.7102-11.695-26.22-22.437-38.497-32.147-38.788-7.1173-0.15875-28.046 11.509-36.063 41.831z"/>
   <path class="st7" d="m98.954 79.964c4.8419-3.175 10.001-5.6092 13.176-3.9423 2.2754 1.0583 2.4342 8.0433 1.0583 14.393-0.15875 0.89958-0.29104 1.5081-0.29104 2.4342-0.15875 1.5081-0.60854 1.5081-0.60854 0-0.15875-0.89958-0.15875-1.5081 0.15875-2.5665 1.2171-6.5088 0.60854-12.726-0.7673-13.335-2.1167-1.0583-6.3764 0-12.277 3.9423z"/>
   <path class="st7" d="m13.176 96.633c2.884-11.827 8.3344-17.886 14.102-17.436 3.0427 0.15875 7.1173 4.2333 8.1756 12.435 0.29104 1.6669-0.29104 1.8256-0.60854 0.15875-1.3758-7.4348-5.1594-11.377-7.7258-11.509-5.0006-0.44979-9.8425 5.6092-13.335 16.51-0.44979 1.6404-1.0583 1.5081-0.60854-0.15875"/>
   <path class="st7" d="m21.828 88.298c-0.60854 0.15875-1.6669 2.884-0.89958 3.175 0.44979 0.44979 1.9579-1.0583 1.8256-1.8256-0.02646-0.74083-0.76729-1.5081-0.92604-1.3494m-1.3758 3.9423c-1.2171-0.76729-0.15875-4.2333 1.0583-4.7096 0.76729-0.29104 2.1167 1.0583 2.1167 2.1167 0.15875 1.0583-2.1167 3.2015-3.175 2.5929"/>
   <path class="st7" d="m41.513 107.24c0 0.29105 0.60854 0.7673 2.884 0.89959 1.2171 0.15875 2.7252-0.29104 2.7252-0.60854 0 0-0.76729-0.7673-2.4342-1.0583-2.249-0.29104-3.0162 0.44979-3.175 0.76729m2.884 1.6669c-2.5665-0.29104-3.6248-0.89958-3.6248-1.6669 0.15875-1.0583 1.9579-1.6669 4.101-1.3758 1.5081 0.15875 3.175 1.0583 3.0427 1.8256-0.02646 0.60854-1.9844 1.3494-3.519 1.2171"/>
   <path class="st7" d="m111.68 98.141c-0.15875 0.29104 0.15875 0.76729 1.8256 1.0583 1.9579 0.44979 2.4342 0.29104 2.4342 0 0.15875-0.15875-0.15875-0.60854-1.8256-1.0583-1.8256-0.44979-2.4342-0.15875-2.4342 0m1.8256 1.8256c-2.1167-0.44979-2.884-1.3758-2.5665-1.9579 0.15875-0.76729 1.6669-1.0583 3.3338-0.60854 1.9579 0.60854 2.7252 1.5081 2.4342 2.1167-0.18521 0.74083-1.3758 0.89958-3.2015 0.44979"/>
   <path class="st7" d="m65.326 94.516c-4.101-0.29104-8.3344-1.3758-9.3927-3.6248-3.0427-5.4504 5.6092-27.12 14.843-26.829 10.901 0.29104 18.177 20.002 16.378 25.003-0.89958 2.884-3.3338 4.3921-7.5671 4.8419-1.8256 0.29104-1.8256-0.15875-0.15875-0.60854 3.7835-0.76729 5.7679-2.2754 6.6675-4.7096 1.6669-5.0006-5.6092-23.336-15.293-23.627-8.3344-0.15875-16.378 20.611-13.785 25.453 0.76729 1.5081 3.9423 2.7252 8.3344 3.3338 1.7727 0.29104 1.7727 0.76729-0.02646 0.76729"/>
   <path class="st7" d="m56.515 83.43c1.8256 0.89958 9.1017 0.29104 9.7102-1.2171 0.60854-1.8256-0.44979-6.6675-2.4342-9.5515-0.76729-1.0583-1.6669-1.3758-2.4342-0.60854l0.44979-1.0583c0.60854-0.29104 1.6669-0.29104 2.7252 1.0583 2.4342 3.3338 3.3338 8.4931 2.7252 10.61-0.60854 1.9579-8.4931 2.7252-11.06 1.8256z"/>
   <path class="st7" d="m69.268 50.569c-3.6248 0.15875-7.5671 2.1167-8.9429 6.6675-1.5081 5.0006 2.1167 5.9002 5.9002 3.7835 2.884-1.6669 4.8419-1.6669 7.4348-0.44979 3.9423 1.9579 6.8262-0.29104 5.4504-3.9423-1.6669-5.0006-6.6675-6.3765-9.8425-6.059m-10.001 6.5088c1.2171-3.9423 4.8419-7.1173 10.001-7.4348 4.8419-0.15875 9.3927 2.2754 10.901 6.6675 1.3758 3.7835-1.5081 7.7258-6.9585 5.0006-2.4342-1.2171-4.2333-1.0583-6.6675 0.29104-5.1594 2.9104-8.8106 0.76729-7.276-4.5244"/>
   <path class="st7" d="m63.95 56.019c-0.29104 1.8256 0.15875 2.7252 0.44979 2.7252 0.60854 0.15875 1.5081-0.29104 1.6669-2.1167 0.29104-1.8256 0-2.5665-0.60854-2.7252-0.60854 0-1.3494 0.74083-1.5081 2.1167m0.44979 3.3338c-0.89958-0.15875-1.5081-1.5081-1.2171-3.4925 0.15875-1.5081 1.2171-2.7252 2.4342-2.5665 0.89958 0.15875 1.5081 1.5081 1.2171 3.3338-0.3175 2.1167-1.5081 2.884-2.4342 2.7252"/>
   <path class="st7" d="m74.269 53.585c-0.60854 0.15875-0.76729 0.89958-0.44979 2.4342 0.29104 1.6669 1.2171 2.4342 1.6669 2.2754 0.60854-0.15875 0.89958-1.0583 0.44979-2.884-0.47625-1.6669-1.2171-1.9844-1.6669-1.8256m-1.2171 2.5929c-0.29104-1.6669 0-2.884 1.0583-3.175 0.89958-0.29104 1.9579 0.29104 2.5665 2.2754 0.60854 1.9579 0 3.3338-1.0583 3.6248-0.89958 0.29104-2.1167-0.47625-2.5665-2.7252"/>
   <path class="st7" d="m112.61 91.473c1.8256 1.2171 3.0427 1.9579 5.1594 3.0427 4.5508 2.2754 6.3765 3.9423 6.059 5.6092-0.15875 2.1167-3.4925 3.7835-8.4931 3.9423-2.5664 0.15875-3.175 0.89959-3.7835 3.7836-0.89958 5.1594-4.7096 7.4348-14.711 5.2917-16.828-3.6248-27.57-2.884-42.28 2.884-12.726 5.1594-21.828-0.76729-21.828-4.5508-0.15875-1.3758-0.60854-1.9579-2.5665-2.4342-4.8419-0.60854-8.4931-1.0583-15.769-1.0583-10.134-0.13229-14.393-2.7252-14.393-3.9423 0-1.0583 0.44979-2.1167 6.059-4.5508 2.5665-1.2171 5.6092-2.4342 7.7258-4.101l-0.29104 1.2171c-1.6669 1.2171-4.3921 2.4342-6.9585 3.6248-4.7096 1.9579-5.1594 3.175-5.1594 3.6248s3.175 2.7252 13.176 2.884c7.1173 0 11.06 0.60854 15.769 1.3758 2.4342 0.29104 3.4925 1.2171 3.6248 3.3338 0.15875 3.4925 9.5515 7.7258 20.452 3.4925 14.711-5.9002 26.22-6.5088 42.571-2.884 8.9429 1.8256 12.885 0 13.626-4.3921 0.60854-3.0427 1.3758-4.3921 4.8419-4.5508 3.9423-0.15875 6.9585-1.6669 7.1173-3.175 0.15875-1.0583-1.0583-2.4342-5.2917-4.5508-2.1167-1.0583-3.175-1.6669-4.7096-2.7252v-1.1906z"/>
  </g>
  <path class="st8" d="m72.125 23.422c0.29104-1.9579-0.76729-3.0427-2.5665-3.3338-2.2754-0.29104-3.4925 0.60854-3.7835 2.884-2.7252-2.1167-5.6092-2.7252-6.8262-2.1167-3.0427 1.5081-3.3338 13.944-1.0583 19.235 7.5671-2.5665 12.885 0.89958 15.002 6.2177 4.2333-6.2177 6.3765-12.277 7.1173-19.235 0.60854-4.3921-3.6248-6.059-7.8846-3.6512" fill="#f3716d"/>
  <path class="st9" d="m71.993 21.756c1.8256-6.8262 3.0427-12.118 4.101-17.886 0.76729-3.9423-4.5508-4.7096-5.4504-1.2171-1.5081 5.9002-2.7252 11.509-4.101 18.336 1.3494-1.6404 4.8419-1.0319 5.4504 0.76729" fill="#fff"/>
  <path class="st10" d="m77.735 25.857c0.29104 4.8419-2.7252 13.626-5.9002 18.627-1.2171-2.4342-4.2333-4.8419-7.276-5.1594 5.9002-1.3494 11.668-8.1492 13.176-13.467" fill="#c95d5b"/>
  <path class="st10" d="m69.718 20.089c1.8256 0.15875 2.5665 1.5081 2.4342 3.175-0.29104 2.2754-2.2754 7.8846-4.5508 9.7102l-0.15875-0.15875c1.8256-2.8575 3.0162-10.292 2.2754-12.726" fill="#c95d5b"/>
  <path class="st11" d="m74.11 0.69469c-0.89958 5.4504-2.5665 13.176-4.101 19.394 0.76729 0.29104 1.8256 0.89958 1.9579 1.6669 1.5081-5.7679 3.175-13.044 3.9423-17.277 0.3175-2.1167-0.13229-3.466-1.7992-3.7835" fill="#d2d3d4"/>
  <g fill="#0c1b23">
   <path class="st7" d="m66.675 32.683c-0.60854-0.44979-0.89958-1.2171-1.2171-1.9579-0.44979-2.4342-0.60854-4.3921 0-8.3344 0.29104-1.8256 1.6669-3.0427 4.2333-2.7252 2.2754 0.44979 3.0427 2.1167 2.5665 3.9423-0.29104 1.3758-0.76729 1.2171-0.60854-0.15875 0.29104-1.6669-0.44979-2.7252-2.1167-2.884-1.9579-0.29104-3.0427 0.60854-3.3338 1.9579-0.44979 3.7835-0.44979 5.7679 0 8.0433 0.15875 0.76729 0.29104 1.0583 0.89958 1.6669 0.79375 0.74083 0.635 1.0583-0.42333 0.44979"/>
   <path class="st7" d="m72.125 23.131c4.7096-2.7252 8.9429-0.44979 8.4931 4.101-0.89958 7.5671-3.175 13.335-7.276 19.103-0.44979 0.60854-0.60854 0.60854-0.89958 0-1.9579-4.2333-6.6675-8.3344-14.102-5.9002-0.60854 0.15875-0.60854 0-0.76729-0.29104-2.4342-5.6092-2.2754-17.886 1.0583-19.553 1.5081-0.76729 4.3921-0.29104 7.276 1.9579l-0.15875 0.89958c-2.5665-2.1167-5.4504-2.7252-6.6675-2.1167-2.4342 1.3758-3.0427 12.726-0.89958 18.177 7.8846-2.4342 12.726 1.3758 14.711 5.9002 3.9423-5.9002 5.7679-11.218 6.6675-18.336 0.44979-3.9423-3.3338-5.6092-7.5671-3.0427z"/>
   <path class="st7" d="m70.326 29.508c-0.60854 1.2171-1.0583 1.0583-0.44979-0.15875 0.44979-1.3758 0.60854-1.9579 1.0583-3.0427 0.29104-1.0583 0.89958-0.89958 0.60854 0.15875-0.3175 1.2171-0.76729 2.1167-1.2171 3.0427"/>
   <path class="st7" d="m74.11 39.35c1.8256-4.8419 3.4925-10.451 3.4925-13.044 0.15875-1.5081 0.76729-1.5081 0.76729 0 0 2.7252-1.8256 8.6254-3.6248 13.176-0.79375 1.8256-1.2435 1.6933-0.635-0.13229"/>
   <path class="st7" d="m71.676 21.306c1.6669-6.6675 2.884-11.959 3.9423-17.436 0.29104-1.5081-0.29104-2.5665-1.6669-2.884-1.5081-0.29104-2.5665 0.44979-2.884 1.8256-1.5081 6.059-2.7252 11.377-4.101 17.568l-0.89958 1.0583c1.3758-7.1173 2.5665-12.435 4.101-18.944 0.44979-1.9579 2.2754-2.7252 3.9423-2.4342 1.8256 0.29104 2.884 1.8256 2.4342 3.9423-1.2171 6.6675-2.4342 11.668-4.2333 18.627z"/>
  </g>
 </g>
</svg>
