<?xml version="1.0" encoding="UTF-8"?>
<!-- Created with Inkscape (http://www.inkscape.org/) -->
<svg version="1.1" viewBox="0 0 180.28 152.68" xmlns="http://www.w3.org/2000/svg">
 <g transform="translate(-17.974 -45.714)">
  <g transform="matrix(-.483 -1.1689 -1.1689 .483 85.359 162.11)">
   <path d="m0 0c1.337-1.688 4.111-5.202 4.838-6.434 0.373 0.712 0.651 2.638-1.261 4.136-0.269 2.012-0.839 3.946-2.265 5.279-1.427 1.332-3.873 2.591-6.214 2.416 1.336-0.999 4.018-4.281 4.902-5.397" fill="#eaf6f5"/>
  </g>
  <g transform="matrix(-.483 -1.1689 -1.1689 .483 192.99 120.01)">
   <path d="m0 0c5.32 1.135 17.046 12.371 19.383 16.692 0.734 1.358 1.738 6.322 1.754 9.832 3.272-1.473 6.681-2.246 10.097-2.391-2.31-5.1-2.138-11.773 1.652-14.031-2.563-4.901 1.148-10.274 4.799-12.269 15.216-8.314 36.008 15.123 33.988 30.15-0.614 4.573-4.816 9.559-10.85 12.476 4.886 7.535 7.26 17.134 5.265 27.633 5.766 1.336 12.565 6.097 14.905 10.972 6.845 14.263-1.969 38.594-15.899 42.78-6.599 1.983-12.086-1.032-14.26-8.73-3.396-1.351-6.346-5.151-7.105-12.527-3.794-1.594-6.026-4.727-5.867-8.132-8.834 1.907-19.211-4.031-25.347-13.818-0.353 0.158-1.245-0.148-1.602-0.117-2.727 4.264-11.093 15.958-14.241 18.349-5.532 4.201-12.688 2.889-24.994-9.24-7.27-6.103-5.712-13.018 1.222-14.878 0.495-0.133 1.077-0.099 1.682 0.041 0.065-2.478 0.473-6.642 1.296-7.977 0 0-1.177-1.575-2.049-3.439-6.74-4.362-14.872-11.786-16.04-16.478-0.802-3.225-0.309-9.877 1.128-13.315 1.756-4.201 25.769-28.556 29.317-30.385 2.414-1.244 9.497-1.681 11.766-1.198" fill="#97bede"/>
  </g>
  <g transform="matrix(-.483 -1.1689 -1.1689 .483 121.06 142.18)">
   <path d="m0 0c4.566 19.474 23.959 33.561 35.415 28.951 0 0 10.776 21.135 12.708 22.204 1.388 7.766 9.263 11.653 14.959 9.891-6.897 4.596-15.17 2.309-17.768-7.191-3.395-1.351-6.345-5.151-7.105-12.527-4.21-1.428-6.173-5.536-5.866-8.133-13.146 2.839-29.413-10.424-32.343-33.195" fill="#7fa1bb"/>
  </g>
  <g transform="matrix(-.483 -1.1689 -1.1689 .483 111.38 159.34)">
   <path d="m0 0c-1.239 0.976-3.566 3.822-4.104 5.614-3.623-2.219-8.431-3.005-12.954-1.688-0.728-1.062-2.904-2.721-4.259-2.654-0.126-0.952 0.647-7.544 2.13-9.468 1.453 0.857 2.904 1.628 4.487 1.591 2.364-0.055 7.611-1.461 11.497-3.818 0.534 2.61 2.202 7.729 3.203 10.423" fill="#eaf6f5"/>
  </g>
  <g transform="matrix(-.483 -1.1689 -1.1689 .483 126.2 173.33)">
   <path d="m0 0c2.364-0.055 7.611-1.461 11.497-3.818 0.534 2.61 2.202 7.729 3.203 10.423-0.452 0.356-1.048 0.961-1.649 1.672-0.819-1.333-2.06-4.119-2.923-6.337-0.516-1.324-1.625-1.79-3.232-1.121-2.971 1.236-6.679 3.891-5.875 8.831 0.015 0.095 0.038 0.184 0.056 0.277-1.146 0.075-2.301 0.274-3.434 0.604-0.729-1.062-2.905-2.721-4.26-2.654-0.126-0.952 0.647-7.544 2.131-9.468 1.452 0.857 2.903 1.628 4.486 1.591" fill="#cbd5d5"/>
  </g>
  <g transform="matrix(-.483 -1.1689 -1.1689 .483 152.28 108.32)">
   <path d="m0 0c0.2-1.784-0.491-7.764-1.446-9.53-2.337-4.322-14.063-15.557-19.383-16.692-2.269-0.484-9.352-0.046-11.766 1.198-3.549 1.829-27.561 26.184-29.317 30.385-1.437 3.438-1.93 10.09-1.128 13.315 1.74 6.993 18.95 20.062 23.966 20.004 2.836-0.033 9.753-2.911 10.941-3.805-0.808-3.248-2.438-10.551-2.136-13.624 1.271-3.955 6.75-4.827 8.755-2.202 0.777 1.017 3.335 4.859 4.145 6.662l0.941-0.639c-0.033-3.452 2.023-10.297 2.895-11.411-0.87-0.331-2.003-2.855 0.012-4.482-0.409-4.637 7.058-11.204 10.689-7.398z" fill="#bf9d5a"/>
  </g>
  <g transform="matrix(-.483 -1.1689 -1.1689 .483 192.73 130.22)">
   <path d="m0 0c-6.665 5.797-24.223 24.429-29.515 34.575-0.08-2.289-1.297-5.384-4.063-6.515-0.046 0.088-0.087 0.173-0.119 0.249 1.756-4.202 25.768-28.557 29.317-30.385 0.937 0.613 2.687 2.105 4.38 2.076" fill="#a5884e"/>
  </g>
  <g transform="matrix(-.483 -1.1689 -1.1689 .483 130.62 141.04)">
   <path d="m0 0c-0.81-1.803-3.368-5.645-4.145-6.662-0.823-1.077-0.933-1.339-2.395-1.267 3.201-3.804 6.697-6.982 8.644-9.84 0.353-3.314 2.517-4.529 4.398-5.042-0.515 1.043-2.742 5.292-2.654 6.279-2.015 1.627-0.882 4.151-0.012 4.482-0.872 1.114-2.928 7.959-2.895 11.411z" fill="#a5884e"/>
  </g>
  <g transform="matrix(-.483 -1.1689 -1.1689 .483 141.81 153.94)">
   <path d="m0 0c-1.14-0.404-2.859-1.724-3.044-1.99 0.267-0.229 1.428-0.75 1.666-0.901-0.073-0.163-0.915-1.746-1.104-2.119 0.393-0.046 2.21-0.273 2.715-0.261-0.065-0.536 0.026-2.081 0.146-2.396 0.465-0.034 2.295 0.452 2.76 0.614 0.128-0.298 1.102-1.672 1.409-2.007 0.686 0.411 1.648 1.44 1.921 1.754 0.255-0.158 1.939-1.067 2.475-1.33 0.522 1.357 0.149 5.995-0.03 6.665-1.101-1.523-2.962-2.564-5.366-1.626-1.705 0.665-3.417 1.709-3.548 3.597" fill="#485157"/>
  </g>
  <g transform="matrix(-.483 -1.1689 -1.1689 .483 152.34 146.93)">
   <path d="m0 0c0.74 0.768 3.14-1.138 5.151-3.41 2.013-2.271 3.637-4.909 2.829-5.607-0.794-0.687-3.216 1.125-5.226 3.33s-3.608 4.803-2.754 5.687" fill="#31322c"/>
  </g>
  <g transform="matrix(-.483 -1.1689 -1.1689 .483 182.28 154.51)">
   <path d="m0 0c1.134 1.176 3.394-0.854 5.92-3.457 2.343-2.412 4.343-5.271 3.372-6.108-0.789-0.682-2.972 0.739-5.857 3.628-2.641 2.645-4.289 5.052-3.435 5.937" fill="#31322c"/>
  </g>
  <g transform="matrix(-.483 -1.1689 -1.1689 .483 162.22 161.89)">
   <path d="m0 0c0.807 0.837 2.885-0.655 4.541-2.547 1.655-1.891 2.889-4.183 2.005-4.946-0.65-0.561-2.648 0.937-4.302 2.764-1.655 1.827-2.966 3.98-2.244 4.729" fill="#31322c"/>
  </g>
  <g transform="matrix(-.483 -1.1689 -1.1689 .483 145.3 122.43)">
   <path d="m0 0c2.968-1.456 6.73-5.433 5.534-7.505-1.184-2.054-4.899-1.342-7.62 0.931-1.853 1.548-3.249 3.918-3.173 6.301-1.633 1.553-1.214 4.199 0.394 4.528 2.681 0.55 5.347-2.559 4.865-4.255" fill="#eaf6f5"/>
  </g>
  <g transform="matrix(-.483 -1.1689 -1.1689 .483 92.918 134.71)">
   <path d="m0 0c-0.282-3.5-3.624-4.844-5.817-3.345-2.213 1.512-1.916 5.348 0.445 7.051 0.481 7.056 6.054 9.466 9.691 7.649 4.385-2.19 2.615-9.771-4.319-11.355" fill="#eaf6f5"/>
  </g>
  <g transform="matrix(-.483 -1.1689 -1.1689 .483 105.81 188.01)">
   <path d="m0 0c0.726 0.365 3.245 1.062 3.808 0.406 0.481-0.562-1.193-2.271-1.911-2.812-0.334 0.409-1.71 2.149-1.897 2.406" fill="#485157"/>
  </g>
  <g transform="matrix(-.483 -1.1689 -1.1689 .483 110.89 183.38)">
   <path d="m0 0c1.763-0.692 3.738-2.019 3.496-2.691-0.304-0.848-3.002-0.644-4.127-0.349 0.258 0.575 0.688 2.108 0.631 3.04" fill="#485157"/>
  </g>
  <g transform="matrix(-.483 -1.1689 -1.1689 .483 117.36 182.95)">
   <path d="m0 0c0.877-0.773 1.349-2.764 0.927-3.107-0.416-0.34-3.034 1.352-3.361 1.541-0.126 0.235 2.191 1.728 2.434 1.566" fill="#485157"/>
  </g>
  <g transform="matrix(-.483 -1.1689 -1.1689 .483 128.06 89.474)">
   <path d="m0 0c-0.497-0.453-7.338-7.548-8.059-8.252-0.796-0.778-0.162-1.419 0.911-1.617 5.415-0.999 9.78 3.427 9.1 9.123-0.138 1.158-1.098 1.523-1.952 0.746" fill="#eaf6f5"/>
  </g>
  <g transform="matrix(-.483 -1.1689 -1.1689 .483 86.697 107.96)">
   <path d="m0 0c0.563-2.042 4.173-11.637 4.862-13.016 0.597-1.193 1.606-1.711 2.629 0.762 2.562 6.188 1.776 11.072-5.746 13.93-1.587 0.603-2.116-0.334-1.745-1.676" fill="#eaf6f5"/>
  </g>
  <g transform="matrix(-.483 -1.1689 -1.1689 .483 115.65 137.38)">
   <path d="m0 0c-1.562 0.28-2.884-12.215-1.404-12.364 1.117-0.112 2.825 2.933 3.174 5.439 0.446 3.197-0.94 6.777-1.77 6.925" fill="#ee879b"/>
  </g>
  <g transform="matrix(-.483 -1.1689 -1.1689 .483 54.299 117.48)">
   <path d="m0 0c1.298 12.607 8.995 14.781 14.379 12.103 9-4.476 12.445-21.26 8.08-27.472-4.791-6.818-21.463-3.58-26.152 2.039-4.217 5.054-2.015 10.933 3.693 13.33" fill="#f9c385"/>
  </g>
  <g transform="matrix(-.483 -1.1689 -1.1689 .483 149.79 95.171)">
   <path d="m0 0c-1.729-2.892-2.716-11.383 1.715-13.989 7.787-4.582 20.891 6.164 21.669 14.521 0.227 2.449-2.165 5.049-3.098 5.827-6.06-4.9-14.252-6.371-20.286-6.359" fill="#f9c385"/>
  </g>
  <g transform="matrix(-.483 -1.1689 -1.1689 .483 114.92 90.625)">
   <path d="m0 0c-0.639-3.934-4.994-7.684-16.058-5.87-7.716 1.264-13.593 5.795-12.901 10.97 0.775 5.795 7.001 8.771 16.188 6.546 6.978-1.331 13.715-5.847 12.771-11.646" fill="#485157"/>
  </g>
  <g transform="matrix(-.483 -1.1689 -1.1689 .483 114.3 187.37)">
   <path d="m0 0c0.902 2.012-0.443 3.436-1.772 4.033-1.33 0.596-2.778 0.254-3.601-1.578-0.822-1.832 0.049-3.259 1.378-3.856s3.141-0.503 3.995 1.401" fill="#485157"/>
  </g>
  <g transform="matrix(-.483 -1.1689 -1.1689 .483 192.99 120.01)">
   <path d="m0 0c5.32 1.135 17.046 12.371 19.383 16.692 0.955 1.766 1.646 7.746 1.446 9.53l-1.942 1.222c-0.808-1.366-1.448-2.692-1.631-3.243-4.814 0.215-8.451-2.766-9.947-9.521-6.192 0.229-11.035-4.445-11.082-11.397-1.75 0.292-5.255-0.224-7.844-2.151 2.535-1.192 9.391-1.607 11.617-1.132" fill="#e5d8b2"/>
  </g>
  <g transform="matrix(-.483 -1.1689 -1.1689 .483 166.29 181.52)">
   <path d="m0 0c7.601-1.494 12.36 2.523 13.058 10.042 6.359-0.697 11.689 3.344 11.506 11.218 1.284 0.053 3.754 0.457 4.816 0.945l-0.229 1.081c-1.925 1.098-7.916 3.499-10.505 3.528-5.015 0.059-22.225-13.01-23.965-20.003-0.802-3.225-0.309-9.877 1.128-13.315 0.032-0.076 0.073-0.161 0.119-0.249 2.863 1.17 4.07 4.447 4.072 6.753" fill="#e5d8b2"/>
  </g>
  <g transform="matrix(-.483 -1.1689 -1.1689 .483 53.842 113.79)">
   <path d="m0 0c0.176 6.55 4.644 14.987 14.509 10.426-6.096 6.778-15.915 4.209-17.342-9.647-5.393-2.264-7.648-7.633-4.329-12.481-0.56 4.489 2.504 8.544 6.022 10.022 0.952 0.399 1.114 0.708 1.14 1.68" fill="#d7a873"/>
  </g>
  <g transform="matrix(-.483 -1.1689 -1.1689 .483 108.94 95.625)">
   <path d="m0 0c-5.88 3.279-21.892 5.351-24.729-1.686-1.22-3.023 2.067-6.789 4.794-8.545-8.247 3.702-8.827 10.249-4.646 14.339 4.18 4.091 17.975 3.013 24.581-4.108" fill="#2f3539"/>
  </g>
  <g transform="matrix(-.483 -1.1689 -1.1689 .483 78.294 133.49)">
   <path d="m0 0c-2.138 1.373-8.895-1.17-9.041-7.143-8e-3 -0.335-0.118-0.521-0.537-0.764-1.172-0.682-2.439-3.393-1.376-5.528-3.019 2.07-1.249 5.994 0.279 6.821 0.386 7.744 7.311 9.709 10.675 6.614" fill="#cbd5d5"/>
  </g>
  <g transform="matrix(-.483 -1.1689 -1.1689 .483 165.2 82.978)">
   <path d="m0 0c-0.686-1.391-1.472-7.47 0.762-9.928-3.774 1.992-5.124 7.218-3.302 10.886 0 0 1.798-0.989 2.54-0.958" fill="#7fa1bb"/>
  </g>
  <g transform="matrix(-.483 -1.1689 -1.1689 .483 147.01 89.507)">
   <path d="m0 0c-2.424-0.671-5.949-11.643-1.359-15.281-6.393 1.38-5.815 11.463-3.234 14.916 0 0 3.486 0.195 4.593 0.365" fill="#d7a873"/>
  </g>
  <g transform="matrix(-.483 -1.1689 -1.1689 .483 84.205 102.75)">
   <path d="m0 0c-1.965 0.76-2.61-0.027-2.309-1.087 0.861-3.023 2.535-7.872 3.547-10.754 0.281-0.799 0.924-1.297 1.148-1.364-0.416-1.331-1.367-1.692-2.27 0.351s-4.228 10.453-4.648 12.219c-0.563 2.358 1.182 2.54 4.532 0.635" fill="#cbd5d5"/>
  </g>
  <g transform="matrix(-.483 -1.1689 -1.1689 .483 129.04 86.236)">
   <path d="m0 0c-0.068 1.062-1.064 0.673-1.854-0.078-1.692-1.607-4.824-4.934-6.104-6.3-0.802-0.856-0.079-1.663 0.572-1.834 0 0-3.074 0.045-3.183 0.882-0.119 0.909 7.711 8.438 8.498 9.021 1.053 0.781 2.124 0.712 2.071-1.691" fill="#cbd5d5"/>
  </g>
  <g transform="matrix(-.483 -1.1689 -1.1689 .483 142.62 126)">
   <path d="m0 0c-1.987 1.003-3.583-1.515-1.719-3.229 0.297-0.271 0.526-0.639 0.429-1.215-0.274-1.647 0.935-4.596 3.959-6.643-3.453 0.822-5.543 3.858-6.126 7.772-2.477 1.853-0.862 7.074 3.457 3.315" fill="#cbd5d5"/>
  </g>
  <g transform="matrix(-.483 -1.1689 -1.1689 .483 130.51 177.77)">
   <path d="m0 0-0.787 1.861-1.548-3.016z" fill="#7fa1bb"/>
  </g>
  <g transform="matrix(-.483 -1.1689 -1.1689 .483 103.52 150.4)">
   <path d="m0 0c-1.367-2.477-2.609-6.954-2.489-9.579-3.357 3.922-1.06 8.268 2.489 9.579m-1.983-23.963 0.94 1.126 0.944-0.746c-0.953 7.602 2.563 18.972 7.807 27.657-0.451-0.131-1.245-0.149-1.602-0.117-2.727 4.264-11.092 15.957-14.241 18.348-5.532 4.201-12.687 2.89-24.994-9.24-4.762-3.998-5.736-8.344-3.892-11.389 0.935 9.508 18.827 19.294 24.21 18.26 5.264-1.012 10.875-8.433 13.961-13.554 0.309-0.513 0.132-1.082-0.239-1.412-1.054-0.933-1.375-1.569-1.608-3.194-0.057-0.399-0.276-0.696-0.626-0.826-3.777-1.391-5.954-6.353-2.83-10.873 0.352-0.511 0.397-1.092 0.246-1.589-0.588-1.933 0.303-4.132 1.92-5.337 0.576-0.429 0.466-1.01 0.334-1.663-0.41-2.016-0.434-3.366-0.33-5.451" fill="#7fa1bb"/>
  </g>
  <g transform="matrix(-.483 -1.1689 -1.1689 .483 144.24 148.81)">
   <path d="m0 0c-3.293 2.483 1.146 19.784 3.966 28.222 0.337 1.005 0.352 2.28-0.248 2.715-0.886 0.642-2.699-1.332-3.142-2.072l1.592-1.615c-2.783-7.673-5.849-21.195-5.159-24.438 0.235-1.111 1.678-2.377 2.991-2.812" fill="#7fa1bb"/>
  </g>
  <g transform="matrix(-.483 -1.1689 -1.1689 .483 85.174 157.55)">
   <path d="m0 0c-1.077 2.31-3.17 2.701-4.308 2.464l-3.725 4.078c4.427 0.243 7.887-3.398 8.033-6.542" fill="#cbd5d5"/>
  </g>
  <g transform="matrix(-.483 -1.1689 -1.1689 .483 166.64 181.38)">
   <path d="m0 0c-0.768 1.21-1.832 5.556-1.213 8.311 4.418 2.516 11.246 8.261 14.228 11.116 0.385 0.367 0.826 0.384 1.187 0.209 2.213-1.071 8.828-4.643 8.828-4.643 1.078 1.619 1.925 4.483 1.535 6.559 1.714-0.269 4.816 0.945 4.816 0.945l0.208 0.805c-5.658 4.328-11.7 4.069-12.011 3.954-7.166-2.653-21.048-13.76-22.974-19.75-1.552-4.825 0.683-12.929 1.206-13.717 4.14 0.829 4.026 5.847 4.19 6.211" fill="#c0b696"/>
  </g>
  <g transform="matrix(-.483 -1.1689 -1.1689 .483 197.28 134.13)">
   <path d="m0 0c2.535-1.191 9.392-1.607 11.617-1.132 0.147 0.031 0.299 0.073 0.454 0.119-2.534 0.833-5.951 1.918-8.04 3.03-1.528-0.308-2.612-0.961-4.031-2.017" fill="#c0b696"/>
  </g>
  <g transform="matrix(-.483 -1.1689 -1.1689 .483 143.85 155.88)">
   <path d="m0 0 2.036 0.904c-0.273 0.466-0.015 3.077 0.374 5.825 0.388 2.438 0.929 4.895 1.351 6.594-0.069-0.018-0.14-0.036-0.21-0.055 0.023 0.093 0.044 0.179 0.063 0.246l-2.06-0.708c-1e-3 -2e-3 -2e-3 -4e-3 -2e-3 -7e-3 -0.896-0.172-1.763-0.27-2.501-0.193 0.376-1.686-0.84-5.206-1.462-6.592 0 0 0.932-1.007 2.421-2.46-0.111-1.467-0.129-2.745-0.01-3.554" fill="#a5884e"/>
  </g>
  <g transform="matrix(-.483 -1.1689 -1.1689 .483 128.09 131.77)">
   <path d="m0 0c2.715 5.372 0.943 10.554-0.35 10.785-0.472 0.085-1.039-1.724-1.397-3.284 1.766-0.97 2.041-5.406 1.747-7.501" fill="#ce7387"/>
  </g>
  <g transform="matrix(-.483 -1.1689 -1.1689 .483 145.86 154.15)">
   <path d="m0 0c-0.073-0.164-1.399-2.292-0.876-2.439 0.97 1.377 2.707 2.818 3.96 2.461-0.736 0.6-1.636 1.855-1.706 2.869-1.14-0.404-2.859-1.724-3.044-1.991 0.267-0.229 1.428-0.75 1.666-0.9" fill="#2f3539"/>
  </g>
  <g transform="matrix(-.483 -1.1689 -1.1689 .483 187.56 147.63)">
   <path d="m0 0c2.626-2.628 4.666-4.036 5.606-3.755-2.748 2.76-5.918 6.112-9.072 9.649-0.77-0.916 0.864-3.287 3.466-5.894" fill="#262520"/>
  </g>
  <g transform="matrix(-.483 -1.1689 -1.1689 .483 54.741 117.03)">
   <path d="m0 0c-5.312-2.23-7.261-7.821-3.358-12.499 5.197-6.228 21.169-7.891 25.219-2.128 4.254 6.054 0.514 22.282-7.985 26.508-5.056 2.514-12.298 0.146-13.575-11.475-0.023-0.208-0.147-0.342-0.301-0.406m-0.654 0.798c1.278 13.035 9.655 15.211 15.237 12.434 8.737-4.344 12.979-21.47 8.09-28.429-5.194-7.392-22.168-3.966-27.028 1.857-4.183 5.014-2.666 11.292 3.701 14.138"/>
  </g>
  <g transform="matrix(-.483 -1.1689 -1.1689 .483 18.075 102.79)">
   <path d="m0 0c14.179-4.26 23.32-28.818 16.132-43.801-3.111-6.481-13.368-12.112-20.084-11.163-1.505 0.212-1.393 0.833 0.101 0.714 6.445-0.515 16.024 4.918 18.921 10.956 6.795 14.193-2.348 37.78-15.506 41.733-6.041 1.815-10.931-0.368-13.406-7.398-0.092-0.259-1.436-0.674-1.346-0.416 2.764 7.831 7.862 11.576 15.188 9.375"/>
  </g>
  <g transform="matrix(-.483 -1.1689 -1.1689 .483 67.609 120.5)">
   <path d="m0 0c0.271-0.04 0.327 1.334 0.057 1.373-5.475 0.777-10.829-0.691-15.612-3.93l1.559-0.458c4.35 2.594 9.133 3.705 13.996 3.015"/>
  </g>
  <g transform="matrix(-.483 -1.1689 -1.1689 .483 142.35 130.04)">
   <path d="m0 0c-5.381 11.076-1.914 26.479 4.217 36.698 0.079 0.132 0.416 3.001 0.197 2.668-7.244-10.986-11.471-26.996-5.564-39.859z"/>
  </g>
  <g transform="matrix(-.483 -1.1689 -1.1689 .483 133.66 74.376)">
   <path d="m0 0c9.647 6.716 18.749 20.555 15.333 38.529-0.051 0.269-1.113 0.037-1.062-0.232 3.328-17.507-5.558-30.713-14.951-37.253-10.141-7.06-22.369-7.733-32.047-1.972l-0.601-1.237c10.029-6.007 22.837-5.139 33.328 2.165"/>
  </g>
  <g transform="matrix(-.483 -1.1689 -1.1689 .483 165.79 87.09)">
   <path d="m0 0c0.112 0.25 1.046-0.319 0.934-0.569-1.763-3.928 1.133-8.904 4.822-10.918 14.84-8.108 34.947 14.875 32.989 29.445-0.569 4.242-4.477 8.81-10.148 11.751-0.244 0.126 0.325 1.17 0.568 1.043 6.041-3.131 10.292-7.973 10.914-12.595 2.072-15.425-19.274-39.466-34.999-30.875-5.019 2.741-6.864 8.742-5.08 12.718"/>
  </g>
  <g transform="matrix(-.483 -1.1689 -1.1689 .483 150.17 95.545)">
   <path d="m0 0c0.141 0.235 1.101-0.03 0.96-0.267-2.342-3.926-1.864-11.05 1.464-13.007 7.456-4.389 20.078 5.951 20.827 14.002 0.214 2.3-1.899 4.689-2.651 5.317-0.21 0.176 0.471 0.878 0.681 0.703 0.917-0.766 3.287-3.341 3.032-6.079-0.86-9.242-14.674-19.657-22.469-15.072-4.739 2.789-3.834 11.07-1.844 14.403"/>
  </g>
  <g transform="matrix(-.483 -1.1689 -1.1689 .483 128.3 87.379)">
   <path d="m0 0c-0.09 0.742-0.675 0.85-1.126 0.438-0.233-0.212-5.951-6.269-7.557-7.909-0.746-0.764-0.396-0.895 0.412-1.034 5.056-0.87 8.87 3.482 8.271 8.505m-9.928-6.961c0.22 0.215 7.652 7.693 8.134 8.133 1.291 1.176 2.584 0.58 2.778-1.054 0.712-5.964-3.8-10.884-9.799-9.778-1.851 0.342-2.112 1.723-1.113 2.699"/>
  </g>
  <g transform="matrix(-.483 -1.1689 -1.1689 .483 97.401 93.916)">
   <path d="m0 0c1.42 3.43 1.561 6 0.629 8.158-0.91 2.11-2.835 3.76-6.089 4.996-0.986 0.374-1.229 0.103-0.942-0.938 0.575-2.084 4.062-11.592 4.728-12.924 0.515-1.032 0.936-1.084 1.674 0.708m-5.164 14.318c3.518-1.337 5.879-3.186 6.902-5.555 1.044-2.417 0.706-5.451-0.821-9.142-0.987-2.367-2.43-3.12-3.569-0.839-0.676 1.353-4.404 11.062-4.986 13.172-0.531 1.924 0.331 3.178 2.474 2.364"/>
  </g>
  <g transform="matrix(-.483 -1.1689 -1.1689 .483 88.056 121.15)">
   <path d="m0 0c1.146-0.115 1.104-1.514-0.042-1.398-2.497 0.25-5.146-1.526-5.678-4.281-0.406-2.106 0.496-4.334 3.385-5.403 1.072-0.396 0.648-1.648-0.45-1.332-3.837 1.106-5.167 4.504-4.66 7.136 0.799 4.169 4.59 5.566 7.445 5.278"/>
  </g>
  <g transform="matrix(-.483 -1.1689 -1.1689 .483 132.79 111.03)">
   <path d="m0 0c1.033-0.137 0.965-1.54-0.074-1.455-2.526 0.205-4.193-1.157-4.461-2.946-0.349-2.342 2.047-4.463 4.961-5.1 0.974-0.212 0.729-1.452-0.248-1.253-4.922 1.002-6.791 4.251-6.434 6.651s2.821 4.56 6.256 4.103"/>
  </g>
  <g transform="matrix(-.483 -1.1689 -1.1689 .483 115.06 91.236)">
   <path d="m0 0c0.894 5.493-5.822 9.629-12.489 10.901-7.703 1.864-14.648 0.147-15.46-5.948-0.625-4.668 4.699-9.061 12.445-10.331 9.712-1.593 14.787 0.962 15.504 5.378m-12.238 12.204c7.101-1.354 14.212-6.251 13.217-12.363-0.727-4.485-5.666-8.156-16.644-6.355-8.287 1.358-14.023 6.403-13.326 11.616 0.752 5.618 6.664 9.545 16.753 7.102"/>
  </g>
  <g transform="matrix(-.483 -1.1689 -1.1689 .483 116.49 137.09)">
   <path d="m0 0c-0.824-0.028-2.134-10.578-1.173-11.208 0.222-0.146 2.056 1.948 2.488 5.052 0.41 2.935-0.846 6.173-1.315 6.156m0.077 1.237c1.267-0.226 2.677-4.255 2.221-7.53-0.393-2.819-2.441-6.045-3.714-5.864-2.075 0.296-0.773 13.8 1.493 13.394"/>
  </g>
  <g transform="matrix(-.483 -1.1689 -1.1689 .483 122.93 131.44)">
   <path d="m0 0c0.77-0.385 2.135-0.794 3.02-0.996 0.266-0.061 0.154-1.158-0.114-1.098-0.873 0.2-2.287 0.681-3.188 1.132-0.239 0.119 0.037 1.085 0.282 0.962"/>
  </g>
  <g transform="matrix(-.483 -1.1689 -1.1689 .483 145.93 122.47)">
   <path d="m0 0c-0.387 0.189-0.346 0.172-0.259 0.581 0.355 1.658-2.283 3.892-4.254 3.488-1.074-0.22-1.466-2.057-0.397-3.314 0.339-0.397 0.359-0.364 0.364-0.816 0.019-1.986 1.196-4.121 3.041-5.662 2.722-2.274 5.688-2.625 6.63-0.992 0.926 1.6-2.292 5.325-5.125 6.715m-4.785 5.35c2.963 0.606 5.705-2.369 5.551-4.629 3.348-1.79 6.903-5.602 5.486-8.051-1.388-2.406-5.354-1.861-8.503 0.77-2.074 1.732-3.279 4.247-3.287 6.53-2.053 2.175-0.888 5.043 0.753 5.38"/>
  </g>
  <g transform="matrix(-.483 -1.1689 -1.1689 .483 78.376 135.18)">
   <path d="m0 0c-3.24 1.619-8.48-0.504-8.926-7.096-0.011-0.147-0.086-0.282-0.206-0.368-2.306-1.664-2.007-5.029-0.389-6.134 2.146-1.465 4.768 0.278 4.977 2.87 0.019 0.213 0.172 0.395 0.384 0.443 6.874 1.571 7.696 8.519 4.16 10.285m0.541 1.134c4.619-2.308 3.131-10.397-4.136-12.301-0.524-3.707-4.174-5.058-6.671-3.352-2.264 1.546-2.337 5.558 0.367 7.717 0.62 7.369 6.565 9.872 10.44 7.936"/>
  </g>
  <g transform="matrix(-.483 -1.1689 -1.1689 .483 102.96 150.59)">
   <path d="m0 0c0.165 2.768 2.753 5.18 7.464 4.073 0.277-0.065-0.019-1.085-0.295-1.012-3.649 0.958-6.355-0.914-5.86-3.639 0.048-0.264 0.035-0.334-0.312-0.384-4.966-0.715-6.412-6.383-2.462-9.164 0.286-0.201 0.317-0.248 0.194-0.526-1.187-2.198-0.553-4.531 1.717-6.202 0.084-0.062 0.026-1.233-0.216-1.078-3.675 2.358-3.706 4.753-2.576 7.389-4.2 3.453-2.456 9.58 2.346 10.543"/>
  </g>
  <g transform="matrix(-.483 -1.1689 -1.1689 .483 107.27 159.88)">
   <path d="m0 0c0.451 1.006 1.072 0.693 0.633-0.304-2.217-5.029-6.783-21.694-6.245-26.68 0.261-2.433 4.567-4.414 6.825-2.918 1.671 1.108 3.914 4.794 6.404 9.75 0.13 0.241 0.159-1.789 0.121-1.867-1.239-2.548-3.989-7.393-5.977-8.71-2.99-1.981-8.009 0.394-8.36 3.639-0.601 5.585 4.255 22.272 6.599 27.09"/>
  </g>
  <g transform="matrix(-.483 -1.1689 -1.1689 .483 115.63 180.7)">
   <path d="m0 0c10.907-2.28 19.151 3.97 19.116 12.133-7e-3 1.413-0.592 1.41-0.671 0.022-0.392-6.942-7.457-13.596-18.543-11.119-0.201 0.044-0.408-0.04-0.521-0.212-0.264-0.399-0.766-0.845-1.369-1.253l0.568-0.802c0.59 0.403 1.092 0.837 1.42 1.231"/>
  </g>
  <g transform="matrix(-.483 -1.1689 -1.1689 .483 120.93 184.88)">
   <path d="m0 0 0.054 1.008c-2.185-0.468-6.112 1.917-6.776 4.914-0.636 2.867 0.898 6.167 4.394 9.103 14.168 13.705 20.306 12.044 24.254 9.046 3.437-2.61 12.614-15.2 13.905-17.643 0.128-0.242 1.106-0.018 0.978 0.223-1.347 2.549-10.435 15.745-14.05 18.489-6.337 4.813-14.483 2.171-25.754-9.381-3.532-2.965-5.616-6.655-4.859-10.068 0.809-3.649 5.217-6.013 7.854-5.691"/>
  </g>
  <g transform="matrix(-.483 -1.1689 -1.1689 .483 114.28 187.92)">
   <path d="m0 0c0.604 1.344 0.018 2.599-1.629 3.338-1.241 0.558-2.316 0.157-2.945-1.245-0.743-1.655 0.194-2.784 1.178-3.226 1.084-0.487 2.666-0.495 3.396 1.133m-5.38 2.435c1.029 2.294 2.866 2.519 4.248 1.899 1.71-0.768 2.918-2.514 1.943-4.688-0.965-2.149-2.993-2.412-4.613-1.685-1.463 0.657-2.549 2.311-1.578 4.474"/>
  </g>
  <g transform="matrix(-.483 -1.1689 -1.1689 .483 103.97 184.08)">
   <path d="m0 0c-0.263 0.312-1.754-8e-3 -2.635-0.375 0.345-0.441 0.835-1.061 1.176-1.488 0.566 0.386 1.72 1.555 1.459 1.863m-3.649 0.281c0.386 0.194 3.503 1.327 4.378 0.231 0.445-0.557-0.447-2.287-1.958-3.476-0.31-0.243-0.445-0.208-0.682 0.082-0.329 0.402-1.718 2.156-1.916 2.428-0.292 0.403-0.231 0.53 0.178 0.735"/>
  </g>
  <g transform="matrix(-.483 -1.1689 -1.1689 .483 112.39 178.52)">
   <path d="m0 0c0.072 0.354-1.249 1.184-2.627 1.828-0.073-0.665-0.256-1.395-0.432-1.936 1.265-0.217 2.987-0.241 3.059 0.108m-2.911 3.029c0.043-0.017 4.214-1.967 3.725-3.305-0.27-0.741-2.321-1.079-4.664-0.677-0.511 0.089-0.484 0.332-0.326 0.683 0.227 0.506 0.59 2.09 0.588 2.808 0 0.641 0.238 0.664 0.677 0.491"/>
  </g>
  <g transform="matrix(-.483 -1.1689 -1.1689 .483 118.06 182.89)">
   <path d="m0 0c-0.358-0.154-1.069-0.595-1.498-0.919 1.178-0.846 2.091-1.326 2.258-1.173 0.172 0.156-0.253 1.501-0.76 2.092m-2.712-0.769c0.418 0.48 2.133 1.569 2.573 1.77 0.081 0.038 0.35 0.101 0.583-0.055 0.02-0.013 0.037-0.026 0.053-0.04 1.296-1.143 1.295-3.486 0.899-3.811-0.504-0.411-2.303 0.514-3.909 1.442-0.243 0.139-0.369 0.314-0.199 0.694"/>
  </g>
  <g transform="matrix(-.483 -1.1689 -1.1689 .483 80.596 170.62)">
   <path d="m0 0c4.933-0.307 8.405-3.236 8.693-8.112 1.546-1.056 2.125-2.814 1.622-4.476-0.082-0.266-0.781 0.542-0.773 0.68 0.054 1.053-0.33 2.336-1.552 3.062-0.157 0.094-0.269 0.245-0.275 0.429-0.134 4.066-3.136 6.711-6.76 7.324-0.308 0.052-1.168 1.107-0.955 1.093"/>
  </g>
  <g transform="matrix(-.483 -1.1689 -1.1689 .483 106.82 166.15)">
   <path d="m0 0c0.613-1.42 2.628-3.908 3.652-4.743 0.212-0.173-0.211-1.329-0.415-1.148-1.043 0.924-3.474 3.94-4.148 5.497-0.058 0.133 0.802 0.645 0.911 0.394"/>
  </g>
  <g transform="matrix(-.483 -1.1689 -1.1689 .483 120.54 184)">
   <path d="m0 0c0.164-2.438 1.108-7.518 1.969-8.472 0.182-0.204-0.773-0.621-0.955-0.418-1.431 1.59-2.37 9.101-2.376 9.172-6e-3 0.084 1.342-8e-3 1.362-0.282"/>
  </g>
  <g transform="matrix(-.483 -1.1689 -1.1689 .483 132.95 180.65)">
   <path d="M 0,0 C 0.069,0.155 1.406,2.543 1.627,2.756 1.823,2.947 2.367,2.042 2.188,1.851 2.103,1.744 1.824,1.289 1.593,0.894 1.426,0.61 -0.111,-0.249 0,0"/>
  </g>
  <g transform="matrix(-.483 -1.1689 -1.1689 .483 125.25 173.01)">
   <path d="m0 0c2.869-0.034 8.805-2.215 10.893-3.704 0.222-0.16-0.045-1.335-0.269-1.176-1.783 1.272-7.827 3.636-10.648 3.669-4.502 0.052-21.51-12.647-23.243-19.603-0.799-3.216-0.178-9.522 1.168-12.747 1.705-4.081 25.583-28.295 28.962-30.036 2.269-1.17 9.114-1.737 11.32-1.266 4.929 1.051 16.494 11.989 18.869 16.381 0.888 1.649 1.593 7.595 1.392 9.374-0.031 0.273 1.32-0.185 1.351-0.457 0.2-1.786-0.461-7.629-1.521-9.577-2.258-4.177-14.249-15.809-19.811-16.995-2.396-0.511-9.779-0.151-12.329 1.163-3.596 1.854-27.79 26.447-29.613 30.811-1.437 3.439-2.006 10.338-1.152 13.775 1.424 5.721 18.271 20.461 24.631 20.388"/>
  </g>
  <g transform="matrix(-.483 -1.1689 -1.1689 .483 196.66 134.55)">
   <path d="m0 0c2.025 1.497 4.804 2.305 7.48 2.123 0.295 6.856 5.021 11.365 11.171 11.347 1.495 6.271 4.834 9.586 9.992 9.524 0.433 1.188 0.924 2.169 1.609 2.914 0.185 0.202 1.054-0.481 0.866-0.681-0.655-0.716-1.252-1.683-1.657-2.896-0.084-0.244-0.214-0.351-0.492-0.339-4.656 0.209-8.106-3.104-9.441-9.134-0.069-0.322-0.21-0.399-0.502-0.388-5.786 0.214-10.524-4.534-10.567-10.905-6e-3 -0.44-0.188-0.55-0.578-0.485-1.889 0.315-5.185-0.514-6.871-1.644-0.132-0.089-1.077 0.514-1.01 0.564"/>
  </g>
  <g transform="matrix(-.483 -1.1689 -1.1689 .483 175.08 183.31)">
   <path d="m0 0c2.396 0.937 3.465 3.623 3.467 5.885-1e-3 0.489 0.084 0.586 0.591 0.486 7.113-1.397 11.788 2.261 12.468 9.601 0.036 0.37 0.149 0.491 0.548 0.447 6.149-0.674 11.125 3.53 10.957 10.713-0.011 0.451 0.137 0.517 0.476 0.507 1.413-0.041 3.822 0.546 4.785 0.987 0.249 0.114 0.062-1.166-0.188-1.279-1.042-0.478-2.555-0.731-4.076-0.668-0.033-7.329-4.624-11.797-11.566-11.291-0.926-7.811-5.732-11.285-13.025-10.094-0.173-2.538-1.341-5.394-3.929-6.461-0.253-0.105-0.634 1.118-0.508 1.167"/>
  </g>
  <g transform="matrix(-.483 -1.1689 -1.1689 .483 129.97 140.62)">
   <path d="m0 0 0.583-0.795s-0.057-1.518-0.256-1.329l-0.933 0.879c-0.156 0.149 0.326 1.234 0.606 1.245"/>
  </g>
  <g transform="matrix(-.483 -1.1689 -1.1689 .483 134.92 174.88)">
   <path d="M 0,0 C 1.866,1.866 3.181,4.177 2.869,4.766 2.7,5.085 2.006,4.674 1.747,4.631 1.743,4.905 3.328,5.58 3.542,5.533 3.76,5.485 3.932,5.297 3.966,5.21 4.457,3.966 1.944,0.886 0.439,-0.467 -0.271,-1.105 -0.646,-0.646 0,0"/>
  </g>
  <g transform="matrix(-.483 -1.1689 -1.1689 .483 160.19 190.76)">
   <path d="m0 0c3.01 0.339 10.582 5.645 15.505 10.298 1.043 0.985 1.538 0.479 0.501-0.501-5.027-4.755-12.019-10.32-16.106-11.135-0.268-0.053-0.013 1.325 0.1 1.338"/>
  </g>
  <g transform="matrix(-.483 -1.1689 -1.1689 .483 141.52 185.43)">
   <path d="m0 0c5.503 4.594 6.469 3.748 6.679 3.459 0.701-0.962-3.847-4.743-5.692-6.04-0.966-0.681-1.186-0.271-0.396 0.385 2.203 1.827 5.336 4.654 5.163 4.922-0.137 0.213-0.9-0.427-1.454-0.775-2.692-1.69-7.981-6.392-7.772-6.659 0.151-0.191 1.012 0.411 1.712 0.89 0.88 0.6 1.274 0.124 0.439-0.525-2.001-1.551-2.971-1.77-3.338-1.219-0.267 0.4 0.393 2.004 4.659 5.562"/>
  </g>
  <g transform="matrix(-.483 -1.1689 -1.1689 .483 141.47 154.68)">
   <path d="m0 0c0.258 0.091 0.408-1.045 0.149-1.136-0.716-0.254-1.498-0.805-1.963-1.229 0.193-0.101 1.045-0.527 1.14-0.586 0.209-0.132 0.288-0.398 0.188-0.623-0.046-0.101-0.736-1.415-0.785-1.508 0.668-0.077 1.621-0.18 1.933-0.173 0.477 0.011 0.542-0.244 0.503-0.557-0.048-0.387-3e-3 -1.282 0.057-1.801 0.63 0.107 1.783 0.405 2.193 0.548 0.245 0.086 0.472-0.058 0.618-0.272 0.137-0.199 0.67-0.977 1.064-1.494 0.54 0.425 1.162 1.053 1.436 1.369 0.158 0.185 0.428 0.226 0.636 0.097 0.171-0.106 1.176-0.653 1.889-1.026 0.234 1.428 0.01 4.081-0.133 4.974-0.015 0.092 0.867 1.153 0.938 0.888 0.196-0.731 0.555-5.343-0.01-6.814-0.154-0.412-0.343-0.433-0.681-0.268-0.429 0.21-1.576 0.794-2.181 1.129-0.395-0.423-1.127-1.164-1.746-1.535-0.246-0.148-0.385-0.167-0.62 0.09-0.244 0.264-0.913 1.229-1.278 1.804-0.672-0.193-2.641-0.626-2.84-0.539-0.236 0.102-0.352 2.245-0.351 2.438-0.538 0.04-2.566 0.192-2.718 0.404-0.165 0.235 0.768 1.873 0.958 2.238-0.105 0.053-1.462 0.765-1.494 1.059-0.047 0.439 2.178 2.198 3.098 2.523"/>
  </g>
  <g transform="matrix(-.483 -1.1689 -1.1689 .483 157.18 140.7)">
   <path d="m0 0c-1.891 2.074-3.247 4.553-2.755 5.057 0.487 0.499 3.032-1.622 4.545-3.33 2.515-2.839 3.208-4.526 2.814-4.963-0.408-0.453-2.478 0.903-4.604 3.236m5.192-3.933c1.147 0.989-0.924 4.037-2.812 6.169-2.577 2.909-4.913 4.361-5.766 3.475-1.249-1.293 1.376-4.759 2.778-6.298 0.723-0.793 4.285-4.655 5.8-3.346"/>
  </g>
  <g transform="matrix(-.483 -1.1689 -1.1689 .483 184.01 146.07)">
   <path d="m0 0c-2.118 2.181-4.457 4.325-5.29 3.466-0.501-0.521 0.526-2.389 3.399-5.267 3.554-3.558 4.931-3.845 5.19-3.549 0.514 0.591-0.641 2.612-3.299 5.35m-6.003 4.155c0.865 0.963 2.723 0.517 6.616-3.494 2.791-2.873 4.363-5.973 3.385-6.813-0.384-0.331-1.543-1.281-6.527 3.708-2.668 2.673-4.488 5.47-3.474 6.599"/>
  </g>
  <g transform="matrix(-.483 -1.1689 -1.1689 .483 163.49 155.55)">
   <path d="m0 0c-1.229 1.405-3.349 3.096-3.92 2.505-0.425-0.462 0.613-2.353 2.23-4.136 1.762-1.948 3.386-2.981 3.724-2.696 0.486 0.411-0.074 2.089-2.034 4.327m-4.592 3.138c0.932 0.967 2.962-0.087 5.179-2.619 1.492-1.705 3.123-4.537 1.996-5.51-1.311-1.13-4.291 2.131-4.896 2.798-2.101 2.322-3.112 4.466-2.279 5.331"/>
  </g>
 </g>
</svg>
