<?xml version="1.0" encoding="UTF-8"?>
<!-- Created with Inkscape (http://www.inkscape.org/) -->
<svg version="1.1" viewBox="0 0 264.29 327.77" xmlns="http://www.w3.org/2000/svg" xmlns:cc="http://creativecommons.org/ns#" xmlns:dc="http://purl.org/dc/elements/1.1/" xmlns:rdf="http://www.w3.org/1999/02/22-rdf-syntax-ns#">
 <metadata>
  <rdf:RDF>
   <cc:Work rdf:about="">
    <dc:format>image/svg+xml</dc:format>
    <dc:type rdf:resource="http://purl.org/dc/dcmitype/StillImage"/>
   </cc:Work>
  </rdf:RDF>
 </metadata>
 <g transform="translate(-1078.3 -382.79)">
  <g transform="matrix(8.4749 0 0 -8.4749 1267.5 491.41)">
   <path d="m0 0 0.033 4e-3 -0.038-0.016c2e-3 4e-3 4e-3 9e-3 5e-3 0.012m7.365 12.699c-0.454 0.089-4.865-5.434-5.913-11.57-0.239 1.172-0.763 2.496-1.069 2.536-0.54 0.073-2.818-3.931-2.823-6.267-2e-3 -0.851 0.308-0.977 0.864-0.247 0.422 0.554 1.176 2.012 1.464 2.607 0.204-0.767 0.895-2.565 1.552-3.209 0.237-0.233 0.44-0.195 0.643 9e-3 3.45 3.476 6.439 15.917 5.282 16.141" fill="#bdbdb7"/>
  </g>
  <g transform="matrix(8.4749 0 0 -8.4749 1267.5 491.52)">
   <path d="m0 0c2e-3 4e-3 4e-3 9e-3 5e-3 0.012l0.033 4e-3zm7.46 12.661c-1.529-8.723-4.963-15.687-5.68-15.753-0.381-0.034-1.326 2.357-1.662 3.33-0.22 0.23-1.458-2.558-2.343-3.426 0.146-0.084 0.354-0.042 0.654 0.352 0.422 0.554 1.176 2.012 1.464 2.606 0.204-0.766 0.895-2.565 1.552-3.209 0.237-0.233 0.44-0.195 0.643 0.01 3.35 3.374 6.264 15.199 5.372 16.09" fill="#949591"/>
  </g>
  <g transform="matrix(8.4749 0 0 -8.4749 1329.9 383.78)">
   <path d="m0 0c-0.318 0.062-2.579-2.632-4.265-6.361 0.24 0.14 0.605 0.07 0.82-0.244 0.559-0.818 1.236-2.258 1.431-3.573 1.756 4.67 2.77 10.031 2.014 10.178" fill="#ffe850"/>
  </g>
  <g transform="matrix(8.4749 0 0 -8.4749 1310.7 460.78)">
   <path d="M 0,0 C 0.113,-0.363 0.204,-0.732 0.257,-1.092 1.934,3.368 2.934,8.456 2.361,9.031 1.77,5.658 0.894,2.549 0,0" fill="#d6c044"/>
  </g>
  <g transform="matrix(8.4749 0 0 -8.4749 1245.7 513.45)">
   <path d="m0 0c5e-3 2.223 2.248 6.544 2.978 6.449 0.53-0.071 1.246-2.506 1.259-3.65 5e-3 -0.482-0.142-0.492-0.177-0.011-0.101 1.399-0.868 3.233-1.123 3.279-0.348 0.069-2.669-3.635-2.674-6.071-1e-3 -0.738 0.168-0.727 0.626-0.126 0.494 0.648 1.425 2.385 1.618 2.771 0.158 0.316 0.268 0.245 0.147-0.071-0.084-0.223-1.002-2.197-1.52-2.877-0.612-0.804-1.136-0.71-1.134 0.307" fill="#061922"/>
  </g>
  <g transform="matrix(8.4749 0 0 -8.4749 1330.3 382.82)">
   <path d="m0 0c-0.793 0.149-5.055-5.835-6.007-11.235l0.153-0.743c1.19 6.273 5.355 11.836 5.801 11.743 0.862-0.179-2.074-12.579-5.354-15.885-0.174-0.174-0.3-0.188-0.471-0.019-0.653 0.639-1.381 2.504-1.546 3.216l-0.159-0.333c0.249-0.83 0.886-2.513 1.53-3.144 0.282-0.277 0.546-0.264 0.834 0.017 3.725 3.648 6.468 16.14 5.219 16.383" fill="#061922"/>
  </g>
  <g transform="matrix(8.4749 0 0 -8.4749 1243.1 509.96)">
   <path d="m0 0c7.591-2.53 10.606-10.975 7.994-16.519-2.872-6.092-10.133-8.414-16.531-6.188-5.396 1.877-10.631 8.078-7.613 15.824 2.031 5.215 9.777 9.007 16.15 6.883" fill="#bdbdb7"/>
  </g>
  <g transform="matrix(8.4749 0 0 -8.4749 1167.4 573.49)">
   <path d="m0 0c-0.226-0.735 0.135-1.552 1.043-1.726 0.935-0.18 1.583 0.431 1.708 1.294z" fill="#949591"/>
  </g>
  <g transform="matrix(8.4749 0 0 -8.4749 1210.4 656.18)">
   <path d="m0 0c-8.253 0.563-12.172 5.945-12.142 10.725-0.052-0.118-0.103-0.236-0.149-0.355-3.018-7.745 2.217-13.947 7.613-15.824 6.398-2.226 13.659 0.096 16.531 6.188 0.951 2.018 1.155 4.42 0.666 6.781-1.489-3.878-5.248-8.011-12.519-7.515" fill="#949591"/>
  </g>
  <g transform="matrix(8.4749 0 0 -8.4749 1226.9 589.73)">
   <path d="m0 0c-0.395-1.073 7e-3 -2.217 1.169-2.374 0.935-0.126 1.484 0.49 1.511 1.655 0.018 0.791 0 0 0 0z" fill="#949591"/>
  </g>
  <g transform="matrix(8.4749 0 0 -8.4749 1107.7 568.86)">
   <path d="m0 0c-2.558-6.567 0.988-13.372 7.488-15.633 6.518-2.267 13.641 0.494 16.303 6.142 2.747 5.829-0.728 13.946-7.848 16.319-6.234 2.078-13.912-1.616-15.943-6.828m7.404-15.88c-5.94 2.066-10.676 8.45-7.729 16.015 1.989 5.106 9.707 9.154 16.35 6.939 7.309-2.436 11-10.661 8.146-16.718-3.05-6.47-10.612-8.377-16.767-6.236" fill="#061922"/>
  </g>
  <g transform="matrix(8.4749 0 0 -8.4749 1301.3 522.11)">
   <path d="m0 0c-2.043 2.145-5.083 0.701-4.953-1.604l0.016-0.014c-2.442-0.181-5.17 0.641-6.561 1.826 1.445 2.142-0.366 5.199-3.393 4.047-2.548-0.969-2.182-4.172-0.342-4.698-2.102-0.332-4.678-2.748-4.459-4.832 0.822 0.098 3.287-0.126 4.113-0.339-0.33-0.601-0.134-1.277 0.461-1.555 1.265-0.588 2.048 0.248 2.113 1.029 0.758-0.152 1.542-0.347 2.332-0.606 0.827-0.271 1.561-0.546 2.214-0.819-0.527-0.602-0.441-1.897 0.67-2.251 0.915-0.292 1.869 0.417 1.645 1.49 0.985-0.52 2.45-1.715 3.241-2.564 2.318 0.576 2.178 4.614 1.054 6.323 2.694 0.33 3.146 3.205 1.849 4.567" fill="#fff"/>
  </g>
  <g transform="matrix(8.4749 0 0 -8.4749 1134.7 568.83)">
   <path d="m0 0c-0.04 1.177 1.347 3.204 3.167 2.832 1.303-0.266 1.757-1.605 1.469-2.465 0 0-0.521-0.353-0.617-0.641-0.905 0.123-3.223 0.288-4.019 0.274" fill="#ffe850"/>
  </g>
  <g transform="matrix(8.4749 0 0 -8.4749 1249.7 595.38)">
   <path d="m0 0c3e-3 0.146-0.095 0.448-0.13 0.59 0.478 1.259 1.971 1.689 3.135 1.079 1.618-0.847 1.406-3.214 0.085-3.969-0.731 0.72-1.84 1.616-3.09 2.3" fill="#ffe850"/>
  </g>
  <g transform="matrix(8.4749 0 0 -8.4749 1157 567.84)">
   <path d="M 0,0 C 0.076,0.284 0.342,0.914 0.542,1.194 0.705,1.422 0.78,1.388 0.707,1.115 0.601,0.725 0.377,0.242 0.168,-0.069 0.025,-0.28 -0.07,-0.262 0,0" fill="#5c513c"/>
  </g>
  <g transform="matrix(8.4749 0 0 -8.4749 1144 566.74)">
   <path d="m0 0c0.062 0.384 0.405 1.084 0.58 1.313 0.176 0.23 0.233 0.189 0.148-0.077-0.081-0.251-0.386-0.965-0.57-1.278-0.134-0.225-0.201-0.228-0.158 0.042" fill="#5c513c"/>
  </g>
  <g transform="matrix(8.4749 0 0 -8.4749 1259.6 598.81)">
   <path d="M 0,0 C 0.132,0.369 0.362,0.783 0.575,1.072 0.704,1.248 0.794,1.21 0.724,1.004 0.584,0.59 0.436,0.278 0.139,-0.093 -0.013,-0.282 -0.09,-0.251 0,0" fill="#5c513c"/>
  </g>
  <g transform="matrix(8.4749 0 0 -8.4749 1269 606.24)">
   <path d="m0 0c0.142 0.421 0.433 1.091 0.618 1.387 0.118 0.19 0.22 0.15 0.176-0.069-0.079-0.398-0.396-1.097-0.643-1.402-0.143-0.176-0.23-0.15-0.151 0.084" fill="#5c513c"/>
  </g>
  <g transform="matrix(8.4749 0 0 -8.4749 1298.5 556.07)">
   <path d="M 0,0 C 0.221,-0.101 0.47,-0.309 0.638,-0.423 1.18,0.002 3.071,2.225 3,2.461 2.937,2.671 1.625,2.47 1.053,2.34 1.034,1.45 0.826,0.638 0,0" fill="#ffe850"/>
  </g>
  <g transform="matrix(8.4749 0 0 -8.4749 1298.2 574.09)">
   <path d="m0 0c1.38 0.531 5.097 0.084 5.118-0.578 0.012-0.377-2.299-1.852-2.83-2.135-0.071 0.781-1.12 2.241-2.288 2.713" fill="#5c513c"/>
  </g>
  <g transform="matrix(8.4749 0 0 -8.4749 1314.7 616.37)">
   <path d="m0 0c0.838-0.554 2.795-2.536 2.665-2.772-0.165-0.301-2.518-0.656-4.717-0.271 0.988 0.751 1.903 2.104 2.052 3.043" fill="#ffe850"/>
  </g>
  <g transform="matrix(8.4749 0 0 -8.4749 1280.2 654.45)">
   <path d="m0 0c0.483-1.687 0.391-4.858 0.2-4.953-0.188-0.095-2.524 0.731-4.929 2.842 1.674 0.024 3.691 0.92 4.729 2.111" fill="#5c513c"/>
  </g>
  <g transform="matrix(8.4749 0 0 -8.4749 1160.4 655.55)">
   <path d="m0 0c1.104-0.783 3.574-1.809 5.413-1.769-1.108-1.238-4.045-3.349-4.493-3.208-0.448 0.142-1.085 4.104-0.92 4.977" fill="#ffe850"/>
  </g>
  <g transform="matrix(8.4749 0 0 -8.4749 1113.5 604.77)">
   <path d="m0 0c-0.908-0.59-3.526-3.031-3.361-3.491s4.611-0.436 5.472-0.401c-0.896 0.767-2.029 3.114-2.111 3.892" fill="#5c513c"/>
  </g>
  <g transform="matrix(8.4749 0 0 -8.4749 1110.3 591)">
   <path d="m0 0c-1.513 0.7-3.684 2.637-3.658 2.923 0.026 0.285 3.546 1.115 3.926 1.158-0.342-1.092-0.476-2.836-0.268-4.081" fill="#ffe850"/>
  </g>
  <g transform="matrix(8.4749 0 0 -8.4749 1153.2 530.77)">
   <path d="m0 0c-0.7 0.64-3.928 2.652-4.717 2.337-0.273-0.11 0.581-1.562 1.664-3.205 0.535 0.492 2.018 1.056 3.053 0.868" fill="#5c513c"/>
  </g>
  <g transform="matrix(8.4749 0 0 -8.4749 1166.3 480.24)">
   <path d="m0 0c-0.115-0.042-0.098-0.818-0.07-1.319l0.925 0.587c-0.255 0.311-0.741 0.774-0.855 0.732" fill="#ffe850"/>
  </g>
  <g transform="matrix(8.4749 0 0 -8.4749 1271.6 545.21)">
   <path d="m0 0c1e-3 0.871 1.081 1.681 1.692 1.331z" fill="#d1d3d4"/>
  </g>
  <g transform="matrix(8.4749 0 0 -8.4749 1180 502.73)">
   <path d="m0 0c0.515 0.089 1.244-1.393 0.933-1.935z" fill="#d1d3d4"/>
  </g>
  <g transform="matrix(8.4749 0 0 -8.4749 1341.2 579.93)">
   <path d="m0 0c-0.995 0.572-3.005 0.742-4.653 0.479 1.041-0.576 1.799-1.79 1.864-2.502 0.488 0.26 2.482 1.528 2.789 2.023" fill="#4c422f"/>
  </g>
  <g transform="matrix(8.4749 0 0 -8.4749 1127.4 538.13)">
   <path d="M 0,0 C 0.404,0.371 1.348,0.783 2.231,0.882 1.061,2.017 -0.815,2.837 -1.677,3.193 -1.898,3.03 -1.06,1.608 0,0" fill="#4c422f"/>
  </g>
  <g transform="matrix(8.4749 0 0 -8.4749 1307.3 539.43)">
   <path d="m0 0c-0.07-0.742-0.324-1.417-1.031-1.963 0.221-0.101 0.47-0.309 0.637-0.423 0.496 0.387 2.114 2.274 2.338 2.779-0.453-0.046-1.268-0.216-1.944-0.393" fill="#d6c044"/>
  </g>
  <g transform="matrix(8.4749 0 0 -8.4749 1166.2 480.35)">
   <path d="m0 0c-0.097-0.107-0.08-0.83-0.055-1.306l0.57 0.361c-0.121 0.214-0.313 0.558-0.515 0.945" fill="#d6c044"/>
  </g>
  <g transform="matrix(8.4749 0 0 -8.4749 1235.2 605.3)">
   <path d="M 0,0 C 0.838,-0.267 1.705,0.305 1.675,1.227 1.281,0.16 -0.503,0.22 -0.978,1.28 -0.954,0.749 -0.658,0.21 0,0" fill="#d1d3d4"/>
  </g>
  <g transform="matrix(8.4749 0 0 -8.4749 1168.8 570.62)">
   <path d="m0 0c-0.251-0.572-0.045-1.185 0.515-1.445 1.024-0.477 1.732-0.02 1.999 0.585-0.665-0.477-2.36-0.54-2.514 0.86" fill="#d1d3d4"/>
  </g>
  <g transform="matrix(8.4749 0 0 -8.4749 1199.5 527.1)">
   <path d="m0 0c0.413-0.162 0.601-0.776 0.106-1.909-0.435-0.992-1.127-1.412-1.644-1.144-0.425 0.22-0.563 0.846-0.08 1.848 0.598 1.243 1.243 1.353 1.618 1.205" fill="#061922"/>
  </g>
  <g transform="matrix(8.4749 0 0 -8.4749 1258.4 546)">
   <path d="m0 0c0.576-0.205 0.675-0.948 0.292-1.96-0.299-0.79-0.797-1.363-1.44-1.13-0.636 0.23-0.707 0.981-0.371 1.89 0.403 1.092 0.955 1.401 1.519 1.2" fill="#061922"/>
  </g>
  <g transform="matrix(8.4749 0 0 -8.4749 1234.8 606.46)">
   <path d="M 0,0 C -1.476,0.471 -1.339,2.405 -0.192,2.755 0.097,2.843 0.128,2.704 -0.151,2.596 -1.138,2.214 -1.019,0.636 0.093,0.281 0.971,0 2.071,0.686 1.424,2.165 1.312,2.42 1.464,2.481 1.581,2.229 2.327,0.607 1.152,-0.368 0,0" fill="#061922"/>
  </g>
  <g transform="matrix(8.4749 0 0 -8.4749 1172.4 584.03)">
   <path d="m0 0c-1.079 0.535-0.848 2.185 0.653 2.45 0.33 0.059 0.361-0.128 0.038-0.188-1.203-0.221-1.371-1.576-0.519-1.999 1.145-0.567 2.157 0.356 1.886 1.303-0.068 0.235 0.111 0.28 0.188 0.049 0.377-1.142-0.85-2.307-2.246-1.615" fill="#061922"/>
  </g>
  <g transform="matrix(8.4749 0 0 -8.4749 1227.4 576.39)">
   <path d="m0 0c-0.345 0.939-0.902 1.774-1.396 1.898-0.552 0.138-1.559-0.428-1.956-1.024-0.14-0.21-0.272-0.121-0.144 0.096 0.411 0.694 1.592 1.371 2.189 1.222 0.563-0.141 1.204-1.127 1.489-2.159 0.065-0.234-0.098-0.261-0.182-0.033" fill="#061922"/>
  </g>
  <g transform="matrix(8.4749 0 0 -8.4749 1213.3 546.57)">
   <path d="m0 0c0.102 0.287 0.514 0.358 0.99 0.196 0.388-0.133 0.727-0.461 0.623-0.748-0.096-0.264-0.57-0.293-0.968-0.151-0.342 0.122-0.757 0.389-0.645 0.703" fill="#061922"/>
  </g>
  <g transform="matrix(8.4749 0 0 -8.4749 1232.2 551.54)">
   <path d="m0 0c-0.711 0.606-1.61 0.839-2.589 0.75-0.274-0.024-0.297 0.119-0.029 0.177 1.05 0.225 1.994-0.071 2.731-0.793 0.231-0.226 0.107-0.321-0.113-0.134" fill="#061922"/>
  </g>
  <g transform="matrix(8.4749 0 0 -8.4749 1198.4 529.09)">
   <path d="m0 0c0.272-0.099 0.328-0.467 0.214-0.704-0.129-0.268-0.442-0.434-0.746-0.334-0.249 0.081-0.392 0.408-0.196 0.727 0.206 0.335 0.491 0.397 0.728 0.311" fill="#fff"/>
  </g>
  <g transform="matrix(8.4749 0 0 -8.4749 1257.7 547.61)">
   <path d="m0 0c0.298-0.13 0.393-0.449 0.29-0.721-0.109-0.287-0.381-0.451-0.705-0.336-0.289 0.103-0.407 0.461-0.297 0.737 0.112 0.281 0.437 0.44 0.712 0.32" fill="#fff"/>
  </g>
  <g transform="matrix(8.4749 0 0 -8.4749 1161.8 543.47)">
   <path d="m0 0c-1.758 0.359-3.244-1.238-3.264-2.796-5e-3 -0.383 0.12-0.39 0.164-0.01 0.149 1.28 1.406 2.826 3.031 2.494 1.154-0.235 1.644-1.374 1.391-2.322l0.257 0.157c0.24 0.941-0.251 2.206-1.579 2.477" fill="#061922"/>
  </g>
  <g transform="matrix(8.4749 0 0 -8.4749 1275.7 580.03)">
   <path d="m0 0c-1.335 0.699-2.784 0.043-3.251-1.018l0.141-0.353c0.172 0.911 1.557 1.826 2.955 1.094 1.552-0.813 1.2-2.921 0.272-3.641-0.289-0.225-0.173-0.324 0.102-0.149 1.321 0.843 1.386 3.226-0.219 4.067" fill="#061922"/>
  </g>
  <g transform="matrix(8.4749 0 0 -8.4749 1171.7 526.38)">
   <path d="m0 0c-0.864 0.207-1.507 1.023-1.569 2.07-0.067 1.13 0.457 2.317 1.878 2.858 1.362 0.518 2.718 0.226 3.505-0.734 0.777-0.949 0.857-2.38 0.162-3.4-0.264-0.387-0.41-0.295-0.177 0.11 0.567 0.988 0.485 2.22-0.228 3.09-0.744 0.908-1.944 1.051-3.113 0.606-1.208-0.46-1.776-1.501-1.716-2.508 0.056-0.941 0.543-1.675 1.304-1.924 0.489-0.159 0.397-0.274-0.046-0.168" fill="#061922"/>
  </g>
  <g transform="matrix(8.4749 0 0 -8.4749 1186.4 517.93)">
   <path d="m0 0c-0.285 0.394-0.612 1.097-0.759 1.569-0.083 0.269 0.012 0.309 0.167 0.08 0.227-0.335 0.573-1.075 0.743-1.567 0.099-0.29 0.011-0.307-0.151-0.082" fill="#061922"/>
  </g>
  <g transform="matrix(8.4749 0 0 -8.4749 1287 559.63)">
   <path d="m0 0c1.019 0.15 1.747 0.753 2.076 1.666 0.337 0.936 0.11 1.971-0.53 2.644-1.098 1.153-2.35 1.169-3.211 0.796-0.952-0.412-1.526-1.285-1.513-2.282 5e-3 -0.315-0.16-0.323-0.188-9e-3 -0.097 1.097 0.548 2.114 1.593 2.567 0.936 0.405 2.411 0.407 3.595-0.836 0.702-0.736 0.91-1.95 0.542-2.97-0.361-1.001-1.232-1.634-2.337-1.753-0.536-0.058-0.579 0.096-0.027 0.177" fill="#061922"/>
  </g>
  <g transform="matrix(8.4749 0 0 -8.4749 1272.3 543.62)">
   <path d="M 0,0 C 0.228,0.347 1.006,0.938 1.42,1.117 1.658,1.22 1.723,1.127 1.521,0.964 1.182,0.691 0.492,0.13 0.126,-0.133 -0.087,-0.285 -0.162,-0.247 0,0" fill="#061922"/>
  </g>
  <g transform="matrix(8.4749 0 0 -8.4749 1324.9 534.91)">
   <path d="m0 0c-0.103 0.344-1.443 0.13-2.02 7e-3l0.012-0.301c0.699 0.188 1.739 0.279 1.764 0.212 0.028-0.076-1.413-1.88-2.254-2.653-0.113 0.092-0.289 0.183-0.482 0.299l-0.213-0.154c0.267-0.153 0.533-0.351 0.625-0.442 0.05-0.051 0.107-0.051 0.159-0.01 0.399 0.313 2.519 2.675 2.409 3.042" fill="#061922"/>
  </g>
  <g transform="matrix(8.4749 0 0 -8.4749 1301.2 574.36)">
   <path d="m0 0c0.891-0.482 1.665-1.448 2.026-2.491 0.809 0.462 2.597 1.663 2.611 1.944 0.021 0.433-2.934 0.96-4.637 0.547m1.8-2.73c-0.226 0.955-0.932 2.038-2.261 2.683-0.169 0.081-0.16 0.161 2e-3 0.224 1.399 0.542 5.31 0.126 5.336-0.719 0.011-0.348-1.733-1.621-2.9-2.283-0.062-0.035-0.147-0.029-0.177 0.095" fill="#061922"/>
  </g>
  <g transform="matrix(8.4749 0 0 -8.4749 1300 641.39)">
   <path d="m0 0c1.91-0.283 4.213-2e-3 4.286 0.226 0.059 0.184-1.607 1.868-2.468 2.503-0.215-0.884-0.946-1.987-1.818-2.729m-0.376-0.228c-0.168 0.03-0.185 0.124-0.051 0.226 0.962 0.731 1.909 2.081 2.052 2.985 0.013 0.08 0.09 0.142 0.177 0.084 0.633-0.419 2.922-2.554 2.707-2.944-0.202-0.368-2.783-0.719-4.885-0.351" fill="#061922"/>
  </g>
  <g transform="matrix(8.4749 0 0 -8.4749 1243.3 673.4)">
   <path d="m0 0c2.089-1.765 4.372-2.673 4.481-2.603s0.184 2.97-0.2 4.555c-1.031-1.069-2.707-1.839-4.281-1.952m-0.513 0.039c-0.135 0.118-0.077 0.21 0.067 0.212 1.637 0.023 3.698 0.907 4.706 2.064 0.074 0.085 0.176 0.099 0.211-0.022 0.492-1.716 0.398-4.986 0.134-5.118-0.266-0.133-2.851 0.875-5.118 2.864" fill="#061922"/>
  </g>
  <g transform="matrix(8.4749 0 0 -8.4749 1168.6 696.76)">
   <path d="m0 0c0.298-0.114 2.888 1.726 4.095 2.968-1.406 0.043-3.579 0.769-4.9 1.632-0.07-1.28 0.523-4.492 0.805-4.6m-0.07-0.237c-0.535 0.166-1.226 4.038-1.067 5.183 0.018 0.13 0.076 0.155 0.188 0.075 1.052-0.747 3.655-1.83 5.479-1.789 0.132 3e-3 0.208-0.071 0.092-0.201-0.963-1.076-4.19-3.424-4.692-3.268" fill="#061922"/>
  </g>
  <g transform="matrix(8.4749 0 0 -8.4749 1112.7 606.69)">
   <path d="m0 0c-1.175-0.828-3.294-2.933-3.157-3.225 0.14-0.3 3.5-0.353 5.031-0.295-0.814 0.863-1.68 2.649-1.874 3.52m-3.384-3.306c-0.192 0.536 2.431 3.04 3.408 3.675 0.117 0.076 0.171 0.042 0.185-0.089 0.083-0.781 1.295-3.155 2.156-3.891 0.114-0.097 0.093-0.205-0.073-0.212-1.537-0.063-5.488-6e-3 -5.676 0.517" fill="#061922"/>
  </g>
  <g transform="matrix(8.4749 0 0 -8.4749 1080.3 566.47)">
   <path d="m0 0c-0.018-0.186 1.95-1.907 3.358-2.627-0.146 1.135-0.031 2.562 0.264 3.631-1.132-0.174-3.606-0.841-3.622-1.004m3.491-3.048c-1.389 0.642-3.772 2.678-3.736 3.086 0.032 0.373 3.279 1.175 4.039 1.293 0.123 0.019 0.158-0.063 0.121-0.181-0.325-1.049-0.435-2.859-0.259-4.044 0.024-0.159-0.048-0.208-0.165-0.154" fill="#061922"/>
  </g>
  <g transform="matrix(8.4749 0 0 -8.4749 1113.9 511.75)">
   <path d="m0 0c-0.095-0.057 0.179-0.831 1.623-2.952 0.555 0.432 1.638 0.894 2.588 0.875-1.735 1.333-3.943 2.238-4.211 2.077m1.472-3.181c-1.643 2.493-1.889 3.268-1.594 3.384 0.536 0.211 3.42-1.06 4.793-2.29 0.117-0.118 0.075-0.248-0.121-0.233-1.093 0.084-2.403-0.43-2.896-0.884-0.064-0.058-0.133-0.051-0.182 0.023" fill="#061922"/>
  </g>
  <g transform="matrix(8.4749 0 0 -8.4749 1165.9 479.28)">
   <path d="m0 0c-0.144-0.053-0.234-0.371-0.155-1.548l0.25 0.265c-0.02 0.445-0.031 1.013 7e-3 1.031 0.038 0.017 0.435-0.383 0.639-0.617l0.248 0.121c-0.267 0.32-0.786 0.824-0.989 0.748" fill="#061922"/>
  </g>
 </g>
</svg>
