<?xml version="1.0" encoding="UTF-8"?>
<!-- Generator: Adobe Illustrator 20.0.0, SVG Export Plug-In . SVG Version: 6.00 Build 0)  -->
<svg version="1.1" viewBox="0 0 234.53 306.38" xml:space="preserve" xmlns="http://www.w3.org/2000/svg" xmlns:cc="http://creativecommons.org/ns#" xmlns:dc="http://purl.org/dc/elements/1.1/" xmlns:rdf="http://www.w3.org/1999/02/22-rdf-syntax-ns#"><metadata><rdf:RDF><cc:Work rdf:about=""><dc:format>image/svg+xml</dc:format><dc:type rdf:resource="http://purl.org/dc/dcmitype/StillImage"/></cc:Work></rdf:RDF></metadata><style type="text/css">
	.st0{fill:#BDBDB7;}
	.st1{fill:#949591;}
	.st2{fill:#FEE750;}
	.st3{fill:#D6C043;}
	.st4{fill:#0C1B23;}
	.st5{fill:#FFFFFF;}
	.st6{fill:#5D523D;}
	.st7{fill:#D2D3D4;}
</style><path class="st0" d="m166.89 56.183c-3.4-5.1-10.1-13.9-13.9-14.3-7.2-0.8-27.4 22.8-37.5 38.3-5.5 8.8 0.8 11.8 9.7 4.6 3.8-2.9 21.1-14.7 24.4-16 2.9 5.5 11 17.3 15.6 22.8 2.1 3 4.6 3.4 6.3 2.5 20.2-6.3 69.9-83 61.1-92.3-6.3-6.7-53.5 26.6-65.7 54.4" fill="#bdbdb7"/><path class="st1" d="m232.59 1.7833c-8.8 32-56 88.9-63.2 86.8-2.9-0.4-14.3-17.3-16.9-21.1-3.4-5.9-29.9 17.3-38.3 20.6 1.7 1.7 5.9 0.8 11-3.4 3.8-2.9 21.1-14.7 24.4-16 2.9 5.5 11 17.3 15.6 22.8 2.1 3 4.6 3.4 6.3 2.5 19.8-6.2 69.1-81.2 61.1-92.2" fill="#949591"/><path class="st2" d="m187.59 28.383c9.7-0.8 18.1 15.6 19 30.3 16.9-23.6 31.2-51.4 26.1-56.9-4.3-4.6-27 8.9-45.1 26.6" fill="#fee750"/><path class="st3" d="m206.49 58.683c16.4-23.2 30.8-50.6 26.1-56.9-3.8 14.3-15.2 32.9-27 49.3 0.5 2.5 0.9 5.1 0.9 7.6" fill="#d6c043"/><path class="st4" d="m114.69 79.783c8.8-13.9 30.3-40 38.3-39.2 5.5 0.4 14.7 15.2 16 17.7 1.7 3 0 3.8-1.3 0.8-2.1-3.8-11-15.2-15.2-15.6-5.9-0.8-25.3 20.2-36.2 37.5-3.8 5.9 1.3 8.8 8 3.4 3.8-3.4 22.3-15.2 24.9-16.4 4.2-1.7 5.1-0.4 0.8 1.3-2.1 1.3-19.4 13.1-24.4 16.4-10.9 8-16.4 2.5-10.9-5.9" fill="#0c1b23"/><path class="st4" d="m233.09 0.98333c-6.3-6.7-51.4 21.9-66.6 53.5l0.8 2.5c11.8-27.4 59.4-59.8 64.5-54.8 8 8.8-40.9 83.4-60.2 90.6-2.1 0.8-3.8 0.4-5.5-1.7-4.2-5.1-12.2-17.3-15.6-22.3l-1.7 0.8c3.4 5.1 10.5 17.3 15.6 23.2 2.5 3.4 5.5 3.8 8 2.9 21.5-8.8 71.2-83.8 60.7-94.7" fill="#0c1b23"/><path class="st0" d="m161.39 276.08c-74.2 21.1-144.1-8.4-156.7-59.4-13.9-55.6 20.6-122.6 83-135.2 80.9-16 130.6 40.4 139.9 85.9 8.8 41.7-8 77.9-48 98.6l-18.2 10.1z" fill="#bdbdb7"/><path class="st1" d="m5.4917 219.18c14.3 49.3 83 77.5 155.9 56.9l18.1-10.1c27.8-14.3 44.7-36.2 49.3-62.4-45 54.8-164.3 74.6-223.3 15.6" fill="#949591"/><path class="st5" d="m179.09 266.38c22.3-51 11-121.8-33.3-146.6l-31.6-11c-16.9 11.8-45.5 15.2-55.6 9.3l-23.2 15.2c-28.2 42.1-18.5 96.5 3.8 119.2 0.4 7.2 5.5 14.3 5.5 14.3 32.9 17.3 72 21.5 115.4 9.7 6.7 19.8 20.2 31.2 27.8 27.4 9.3-4.6 3.8-29.1-4.6-39.6l-4.2 2.1z" fill="#fff"/><path class="st2" d="m24.892 123.18c-3.4 4.2-6.3 9.3-8.8 13.9 3.8-2.5 9.7-5.5 12.6-5.9l-3.8-8z" fill="#fee750"/><path class="st6" d="m4.2917 169.88c-1.3 6.3-1.7 12.2-2.1 18.5 3.4-5.1 8.8-13.9 9.7-15.2-0.5-0.3-4.7-2-7.6-3.3" fill="#5d523d"/><path class="st3" d="m11.892 233.98c2.9 5.5 4.6 7.6 8.8 12.2-0.8-4.2-1.3-9.7-2.1-12.6-1.7-0.5-3.8 0.4-6.7 0.4" fill="#d6c043"/><path class="st3" d="m224.19 219.18c-7.2 4.2-20.6 7.6-23.6 7.6 0 5.1 0.8 18.5 0 25.3 9.7-6.3 20.7-22.8 23.6-32.9" fill="#d6c043"/><path class="st6" d="m223.79 184.28c1.3-2.1 4.2-15.2 4.2-15.2-1.3-6.3-3.4-14.7-6.3-21.5-7.6 3.8-24.4 12.2-27.4 13.5 7.6 3.8 24 17.3 29.5 23.2" fill="#5d523d"/><path class="st2" d="m196.79 125.68v-14.7c-4.6-4.6-10.1-8.8-15.6-12.6-5.9 1.7-21.1 8.8-23.2 11.4 2.6 0.3 35 13.4 38.8 15.9" fill="#fee750"/><path class="st7" d="m27.892 236.48c3.4 6.3 7.2 11.8 11.4 16 0.4 7.2 5.5 14.3 5.5 14.3 32.9 17.3 72 21.5 115.4 9.7 6.7 19.8 20.2 31.2 27.8 27.4 9.3-4.6 3.8-29.1-4.6-39.6l-4.2 2.1c4.2-10.1 7.2-20.6 8.8-31.2-47.2 24-113.4 28.7-160.1 1.3" fill="#d2d3d4"/><g fill="#0c1b23"><path class="st4" d="m3.3917 216.68c-15.1-54.8 21.5-123.9 84.3-136.5 83.8-16.4 132.7 43 141.6 86.4 8.8 43.8-9.3 80.5-48.9 100.3-4.6 2.1-5.5 0.8-1.3-1.7 38.3-21.1 56-55.2 47.2-97.7-9.3-43-57.3-100.7-138.2-84.7-61.1 12.2-96.1 80.9-81.7 133.6 12.6 45.9 72 80.5 154.6 59 3.4-0.8 4.2 0.8 0.4 1.7-72.4 21.3-142.8-6.1-158-60.4"/><path class="st4" d="m26.192 130.68c-2.9 0.8-5.9 2.5-8.4 4.6l-2.1 3c3.8-2.5 8.4-4.6 12.2-5.9l-1.7-1.7z"/><path class="st4" d="m12.292 171.98s-5.9-2.5-7.2-2.9l-0.4 2.1c1.3 0.4 4.6 2.5 5.1 2.5-1.3 2.5-4.2 7.6-6.7 11.8l-0.4 4.2c2.9-4.6 9.3-14.3 10.5-16 0.4-0.8 0.4-1.2-0.9-1.7"/><path class="st4" d="m19.892 233.08c0-0.4-0.4-0.8-0.8-0.8-1.7-0.4-8 0.4-8.4 0.4l1.3 2.1s4.2-0.4 5.9-0.4c0.4 2.9 1.3 7.6 2.1 12.2l2.5 2.5c-0.5-3.8-1.8-12.6-2.6-16"/><path class="st4" d="m224.19 218.38c-6.7 3.8-19.8 6.3-24 6.7-0.8 0-1.3 0.4-1.3 1.3 0 0 1.3 20.2 0.4 25.7l2.5-1.7c0.4-6.3 0-22.8 0-22.8 4.6-0.4 14.3-3 21.1-6.3l1.3-2.9z"/><path class="st4" d="m223.39 182.58c-5.9-5.9-17.3-15.6-26.1-21.5 1.7-0.8 20.6-10.5 25.3-12.6l-0.8-1.7c-4.6 2.1-24.4 11.4-27.4 13.1-1.3 0.8-1.3 1.7-0.4 2.1 9.3 5.5 24 17.7 29.1 23.2 0.8 0.8 1.3 0.8 1.7-0.4 0.8-1.7 2.5-8.4 3.8-13.9l-0.8-4.6c-1.1 4.9-3.2 12.5-4.4 16.3"/><path class="st4" d="m162.69 105.48-1.3 3c5.5-3 15.6-7.6 20.2-9.3l-2.1-1.3c-4.6 1.2-11.7 4.6-16.8 7.6"/><path class="st4" d="m195.99 110.88c0 3.8 0 9.7-0.4 12.6-6.7-3.4-27-11.4-34.5-14.3l-0.8 2.1c8 2.9 32 13.5 36.2 15.6 0.8 0.4 1.3 0.4 1.3-0.8 0.4-1.7 0.4-7.6 0.4-13.5l-2.2-1.7z"/></g><path class="st5" d="m147.49 121.88c5.5-2.1 10.1-6.7 13.1-12.6 6.3-13.1 1.3-28.6-13.1-34.5-11.4-4.6-29.1 0.8-35 16-2.1 5.1-2.5 13.9 0 21.1 2.6 7.5 22.4 14.2 35 10" fill="#fff"/><path class="st5" d="m60.692 120.58c5.1-8.8 4.6-18.1 1.7-24.4-4.6-9.3-15.6-14.3-29.5-7.6-13.5 6.3-16.4 19.8-13.1 31.2 2.1 6.7 6.7 13.1 15.2 16 7.6 2.1 20.3-5.1 25.7-15.2" fill="#fff"/><path class="st2" d="m39.692 160.68c8.4-0.4 14.7 7.6 14.7 17.7 0.4 9.7-5.1 17.3-13.9 17.7-7.6 0-13.9-8-14.3-16.9-0.4-9.7 5.5-18.1 13.5-18.5" fill="#fee750"/><path class="st2" d="m139.89 144.18c11.4-2.1 19 5.1 21.1 13.5 2.1 9.3-2.1 19.4-12.6 21.9-10.5 1.7-19.4-4.2-21.9-13.5-1.7-7.5 1.7-19.3 13.4-21.9" fill="#fee750"/><path class="st7" d="m71.692 260.88c-6.7-11.8-24-24.9-29.9-21.1-7.6 4.6-2.1 20.6 6.7 31.2 7.2 8.4 16.9 15.2 24.4 12.2 6.3-1.7 5.5-8.4 5.1-10.5-0.8-2.5-4.6-8.4-6.3-11.8" fill="#d2d3d4"/><path class="st5" d="m72.092 262.98c-10.1-10.1-22.3-16.4-26.5-14.7-3.8 1.7-4.6 8-1.7 14.7-4.2-4.2-9.3-17.7-2.1-23.2 7.1-5.8 28.2 15.2 30.3 23.2" fill="#fff"/><g fill="#d2d3d4"><path class="st7" d="m137.79 96.583c-5.9 0-10.1 11-8 17.3 0.9-1.7 7.2-15.6 8-17.3"/><path class="st7" d="m38.392 103.78c5.5-0.4 10.1 13.5 7.6 19.4l-7.6-19.4z"/><path class="st7" d="m109.99 208.68c-0.8 5.1 19.4 4.2 20.2 7.2-1.3 3.4-16.9 6.7-21.1 2.5-1.6-1.7-1.2-5.1 0.9-9.7"/><path class="st7" d="m43.492 221.28c1.7 7.6 22.3-2.1 23.6 0.8-2.1 5.5-16.4 11.8-21.1 8.8-3-2-2.5-6.2-2.5-9.6"/></g><g fill="#0c1b23"><path class="st4" d="m56.492 134.48c5.1-0.4 7.6 5.9 7.6 14.3 0 9.3-2.5 13.5-7.6 13.9-4.6 0-8.4-4.6-8.4-13.5 0-10.9 4.6-14.7 8.4-14.7"/><path class="st4" d="m149.59 119.78c4.2-2.1 7.6-5.9 10.1-11 5.5-12.6 0.4-27.4-12.6-32.9-11-4.2-27.8 0.8-33.3 15.2-2.1 5.5-2.5 11.4-0.8 18.1 0.8 3.8-0.4 4.2-1.7 0.4-2.5-7.6-1.7-13.9 0.4-19.4 5.1-14.7 22.8-22.3 36.2-16.9 15.2 6.3 20.6 22.8 13.9 36.2-2.9 5.5-6.7 9.3-11.4 11.8-4.1 2.3-5 1-0.8-1.5"/><path class="st4" d="m129.79 112.18c1.3-5.9 3.8-11.8 6.7-14.7 1.7-1.7 2.1-1.3 1.3 0.8-1.3 2.1-4.6 9.7-6.7 14.3-0.8 2.1-1.7 1.7-1.3-0.4"/><path class="st4" d="m32.892 135.78c-6.7-1.7-11.4-7.6-13.9-14.3-5.1-11.4-0.4-27.8 13.9-34.5 11.4-5.9 25.3-3.4 30.8 8.8 2.9 6.3 2.5 15.2-0.8 22.3-2.1 4.2-2.9 3.8-1.7-0.4 2.5-7.2 2.5-15.6 0.4-21.1-3.8-8-14.7-13.5-27.4-7.2-10.5 5.1-17.7 19.4-13.1 30.8 2.1 6.3 6.3 11.8 12.2 13.9 4.3 1.3 3.4 2.5-0.4 1.7"/><path class="st4" d="m44.292 121.88c-1.3-2.5-5.1-13.1-5.9-16.4-0.4-2.1 0.4-2.5 1.3-0.4 1.3 2.1 5.5 13.5 6.3 16 0.4 2.9-0.4 2.9-1.7 0.8"/><path class="st4" d="m42.992 225.98c-3.4-3.8 0-14.7 7.6-21.5 2.1-2.1 2.9-1.3 0.8 0.8-7.6 7.6-8.4 16.4-6.3 19 2.9 3.4 11.4 2.5 19.8-2.1 2.5-1.3 2.9 0 0.8 1.3-8.3 5.4-18.9 7.1-22.7 2.5"/><path class="st4" d="m107.89 213.28c-3.4-5.1 5.1-17.3 15.2-19.8 2.9-0.8 3.4 0 0.8 1.3-9.7 3.8-15.2 13.9-13.5 16.9 2.1 3.4 11.4 4.6 17.7 3.8 2.5 0 2.5 1.3 0.4 1.7-5.8 1.2-17.6 0.3-20.6-3.9"/><path class="st4" d="m68.692 150.98c0.4 2.5 3.8 3.8 7.2 3.4s6.7-2.1 6.3-5.1c0-2.1-3.4-4.2-7.2-3.4-3.7 0.4-6.7 2.1-6.3 5.1"/><path class="st4" d="m67.892 147.58c4.2-3.4 12.6-4.2 19.4-1.7 2.5 0.8 2.1 2.1-0.4 1.3-5.5-1.7-13.9-0.8-18.1 1.7-2.2 0.8-3 0-0.9-1.3"/></g><path class="st5" d="m56.492 136.58c2.5 0 4.2 1.7 4.2 4.6 0 2.5-1.7 4.6-4.6 5.1-2.1 0-4.2-2.1-4.2-4.6s1.7-5.1 4.6-5.1" fill="#fff"/><path class="st4" d="m112.99 126.08c4.6-0.8 9.3 2.5 10.5 13.1 0.8 6.3-0.8 13.9-7.6 14.3-5.9 0.4-9.3-5.5-9.7-12.6-0.4-6.8 1.3-13.9 6.8-14.8" fill="#0c1b23"/><path class="st5" d="m113.79 127.78c2.5 0 4.6 1.7 5.1 4.2 0.4 2.1-0.8 5.1-3.8 5.1-2.9 0.4-5.5-1.7-5.5-4.2-0.4-2.2 1.7-4.7 4.2-5.1" fill="#fff"/><g fill="#0c1b23"><path class="st4" d="m27.492 178.78c0.4 8 5.1 16.4 13.1 16 8.8 0 13.1-8.8 12.6-16.4 0-9.7-5.5-17.3-13.5-16.4-7.6 0.3-12.7 8.8-12.2 16.8m13 18.1c-8.4 0.4-15.2-8.4-15.6-17.7-0.4-10.5 6.3-19 14.7-19.4 8.8-0.4 16 7.6 16 18.5 0.1 10.6-5.8 18.2-15.1 18.6"/><path class="st4" d="m139.89 145.48c-9.7 2.1-13.9 12.2-12.2 20.2 2.1 8.4 10.1 14.7 20.2 12.6 10.5-2.1 13.5-12.2 11.8-20.2-2.9-10.9-12.2-14.3-19.8-12.6m8.5 35c-11.4 2.1-20.6-4.6-23.2-13.9-2.1-9.7 2.9-20.6 14.3-23.2 12.2-2.5 20.6 5.5 22.8 13.9 2.1 9.3-1.7 20.6-13.9 23.2"/><path class="st4" d="m47.292 271.88c-8.4-9.7-15.2-27.8-5.9-32.9 6.3-4.2 21.5 5.5 30.8 21.5 1.7 2.5 0.4 3.4-1.3 0.8-7.2-12.2-23.2-23.6-28.2-20.6-6.3 4.2-1.3 19.4 7.2 29.5 3.8 4.6 13.9 15.2 23.2 12.2 4.2-1.7 4.6-5.9 4.2-9.3-0.8-3.8 0.4-4.2 1.7-0.4 1.3 4.2-0.4 10.1-5.5 11.8-7.7 2.6-17.4-2.5-26.2-12.6"/><path class="st4" d="m184.19 263.88-1.7 1.3c9.3 11 12.2 33.7 4.6 37.5-5.9 2.9-19-6.3-25.7-26.1l-2.1 0.4c6.7 19.4 20.2 32.9 29.1 28.6 11-5.5 4.2-32-4.2-41.7"/><path class="st4" d="m63.692 167.78c-2.1-2.1-0.8-2.9 0.8-0.8 10.5 9.3 28.2 5.1 37.9-6.3 1.7-2.1 2.9-1.3 1.3 0.8-8.4 11.8-28.2 19-40 6.3"/></g></svg>
