<?xml version="1.0" encoding="UTF-8"?>
<!-- Created with Inkscape (http://www.inkscape.org/) -->
<svg version="1.1" viewBox="0 0 334.34 356.1" xmlns="http://www.w3.org/2000/svg" xmlns:cc="http://creativecommons.org/ns#" xmlns:dc="http://purl.org/dc/elements/1.1/" xmlns:rdf="http://www.w3.org/1999/02/22-rdf-syntax-ns#">
 <metadata>
  <rdf:RDF>
   <cc:Work rdf:about="">
    <dc:format>image/svg+xml</dc:format>
    <dc:type rdf:resource="http://purl.org/dc/dcmitype/StillImage"/>
   </cc:Work>
  </rdf:RDF>
 </metadata>
 <g transform="translate(-1003.6 -185.6)">
  <g transform="matrix(11.457 0 0 -11.457 1161 241.75)">
   <path d="m0 0c-7.557 0-13.501-6.594-13.501-13.35 0-7.143 6.922-10.685 13.501-10.685 6.578 0 13.501 3.542 13.501 10.685 0 6.756-5.944 13.35-13.501 13.35" fill="#bdbdb7"/>
  </g>
  <g transform="matrix(11.457 0 0 -11.457 1161.2 482.29)">
   <path d="m 0,0 c -5.86,0 -8.705,0.638 -12.787,3.908 1.939,-4.642 7.47,-6.948 12.777,-6.948 5.298,0 10.818,2.298 12.767,6.923 C 8.691,0.634 5.846,0 0,0" fill="#949591"/>
  </g>
  <g transform="matrix(11.457 0 0 -11.457 1275.1 405.44)">
   <path d="m0 0c0 2.834-1.173 5.389-2.547 6.899l-3.854 1.569c-0.826-0.324-2.394-0.445-3.559-0.445-1.164 0-2.733 0.121-3.558 0.445l-3.839-1.569c-1.375-1.51-2.548-4.065-2.548-6.899 0-4.014 1.463-6.681 3.68-8.562l0.134-0.114c1.924-0.715 4.045-1.071 6.131-1.071 2.09 0 4.215 0.358 6.141 1.075l0.139 0.11c2.218 1.881 3.68 4.548 3.68 8.562" fill="#fff"/>
  </g>
  <g transform="matrix(11.457 0 0 -11.457 1275.1 405.44)">
   <path d="m0 0c0 2.834-1.173 5.389-2.547 6.899l-3.854 1.569c-0.826-0.324-2.394-0.445-3.559-0.445-1.164 0-2.733 0.121-3.558 0.445l-3.839-1.569c-1.375-1.51-2.548-4.065-2.548-6.899 0-4.014 1.463-6.681 3.68-8.562l0.134-0.114c1.924-0.715 4.045-1.071 6.131-1.071 2.09 0 4.215 0.358 6.141 1.075l0.139 0.11c2.218 1.881 3.68 4.548 3.68 8.562" fill="#fff"/>
  </g>
  <g transform="matrix(11.457 0 0 -11.457 1161.2 482.29)">
   <path d="m0 0c-3.839 0-6.383 0.273-8.829 1.38 0.635-1.291 1.511-2.35 2.554-3.235l0.134-0.114c1.924-0.714 4.045-1.071 6.131-1.071 2.09 0 4.214 0.358 6.141 1.075l0.139 0.11c1.042 0.885 1.917 1.943 2.553 3.232-2.444-1.104-4.988-1.377-8.823-1.377" fill="#d1d3d4"/>
  </g>
  <g transform="matrix(11.457 0 0 -11.457 1230.9 364.5)">
   <path d="m0 0c1.299 0 2.129-1.148 2.129-2.341 0-1.158-0.93-2.005-2.005-2.005-1.12 0-2.111 0.903-2.111 2.029 0 1.435 1.096 2.317 1.987 2.317" fill="#ffe850"/>
  </g>
  <g transform="matrix(11.457 0 0 -11.457 1091.2 364.5)">
   <path d="m0 0c-1.299 0-2.129-1.148-2.129-2.341 0-1.158 0.93-2.005 2.005-2.005 1.12 0 2.111 0.903 2.111 2.029 0 1.435-1.096 2.317-1.987 2.317" fill="#ffe850"/>
  </g>
  <g transform="matrix(11.457 0 0 -11.457 1314.8 408.21)">
   <path d="m 0,0 c -0.484,0.472 -1.804,1.71 -2.453,2.524 0.424,0.412 1.415,1.427 2.087,1.922 C -0.153,3.833 0.059,2.948 0.082,2.241 0.106,1.533 0,0 0,0" fill="#5c513c"/>
  </g>
  <g transform="matrix(11.457 0 0 -11.457 1279.1 476.58)">
   <path d="M 0,0 C -0.027,0.398 -0.071,1.698 -0.044,2.229 0.46,2.415 1.636,2.724 2.202,2.839 1.99,2.252 1.66,1.698 1.235,1.191 0.811,0.684 0,0 0,0" fill="#ffe850"/>
  </g>
  <g transform="matrix(11.457 0 0 -11.457 1279.1 476.58)">
   <path d="M 0,0 C -0.027,0.398 -0.071,1.698 -0.044,2.229 0.46,2.415 1.636,2.724 2.202,2.839 1.99,2.252 1.66,1.698 1.235,1.191 0.811,0.684 0,0 0,0" fill="#ffe850"/>
  </g>
  <g transform="matrix(11.457 0 0 -11.457 1293.6 318.63)">
   <path d="m 0,0 c -0.377,0.147 -1.698,0.607 -2.329,0.89 0.177,0.419 0.377,1.245 0.33,1.705 C -1.692,2.359 -1.15,1.757 -0.89,1.403 -0.631,1.05 0,0 0,0" fill="#ffe850"/>
  </g>
  <g transform="matrix(11.457 0 0 -11.457 1007.3 408.21)">
   <path d="m0 0c0.484 0.472 1.804 1.71 2.453 2.524-0.425 0.412-1.415 1.427-2.087 1.922-0.248-0.684-0.443-1.445-0.496-2.241s0.13-2.205 0.13-2.205" fill="#5c513c"/>
  </g>
  <g transform="matrix(11.457 0 0 -11.457 1043 476.58)">
   <path d="M 0,0 C 0.027,0.398 0.071,1.698 0.044,2.229 -0.46,2.415 -1.636,2.724 -2.202,2.839 -1.896,2.087 -1.701,1.787 -1.347,1.309 -0.994,0.831 0,0 0,0" fill="#ffe850"/>
  </g>
  <g transform="matrix(11.457 0 0 -11.457 1296.9 445.77)">
   <path d="m0 0c-0.548-0.402-1.079-0.755-1.603-1.065 5e-3 -0.596 0.033-1.34 0.051-1.624 0 0 0.811 0.684 1.236 1.191 0.424 0.507 0.755 1.061 0.967 1.648-0.172-0.035-0.402-0.088-0.651-0.15m-24.369 0.15c0.307-0.752 0.501-1.052 0.855-1.53s1.347-1.309 1.347-1.309c0.019 0.286 0.048 1.038 0.052 1.636-0.514 0.305-1.035 0.652-1.573 1.045-0.261 0.066-0.502 0.122-0.681 0.158" fill="#d6c044"/>
  </g>
  <g transform="matrix(11.457 0 0 -11.457 1028.5 318.63)">
   <path d="M 0,0 C 0.377,0.147 1.698,0.607 2.329,0.89 2.135,1.333 1.899,2.146 2.017,2.677 1.663,2.347 1.144,1.805 0.778,1.368 0.413,0.932 0,0 0,0" fill="#ffe850"/>
  </g>
  <g transform="matrix(11.457 0 0 -11.457 1115.6 512.16)">
   <path d="m0 0c0.422-0.519 0.083-1.606-1.939-2.19-1.356-0.392-2.606-0.318-3.078 0.212-0.731 0.823 0.963 2.356 2.832 2.622 0.893 0.127 1.796-0.166 2.185-0.644" fill="#fff"/>
  </g>
  <g transform="matrix(11.457 0 0 -11.457 1115.6 512.16)">
   <path d="m0 0c-0.389 0.478-1.292 0.771-2.185 0.644-0.653-0.093-1.284-0.341-1.798-0.658 1.472-0.1 2.946-0.626 3.579-1.431 0.631 0.525 0.68 1.106 0.404 1.445" fill="#d1d3d4"/>
  </g>
  <g transform="matrix(11.457 0 0 -11.457 1206.5 512.16)">
   <path d="m0 0c-0.422-0.519-0.083-1.606 1.939-2.19 1.356-0.392 2.606-0.318 3.078 0.212 0.731 0.823-0.963 2.356-2.832 2.622-0.892 0.127-1.796-0.166-2.185-0.644" fill="#fff"/>
  </g>
  <g transform="matrix(11.457 0 0 -11.457 1206.5 512.16)">
   <path d="m0 0c0.389 0.478 1.293 0.771 2.185 0.644 0.653-0.093 1.284-0.341 1.798-0.658-1.471-0.1-2.946-0.626-3.579-1.431-0.631 0.525-0.68 1.106-0.404 1.445" fill="#d1d3d4"/>
  </g>
  <g transform="matrix(11.457 0 0 -11.457 1258.2 263.98)">
   <path d="M 0,0 C 3.892,1.911 7.361,5.713 6.775,6.298 5.8,7.274 0.353,6.408 -3.591,2.317 -4.033,2.777 -5.36,3.874 -6.103,4.21 -7.2,3.52 -7.996,2.453 -8.385,1.94 -5.959,1.911 -3.877,1.226 -2.426,0.439 -1.07,0.743 0,0 0,0" fill="#bdbdb7"/>
  </g>
  <g transform="matrix(11.457 0 0 -11.457 1336.4 192.91)">
   <path d="m0 0c-1.678-1.997-4.233-4.058-7.665-5.828 0.515-0.151 0.839-0.375 0.839-0.375 3.725 1.829 7.06 5.388 6.826 6.203" fill="#949591"/>
  </g>
  <g transform="matrix(11.457 0 0 -11.457 1335.8 191.83)">
   <path d="m0 0c-0.648 0.648-3.269 0.482-6.111-0.899l2.145-3.671c2.576 1.899 4.403 4.133 3.966 4.57" fill="#ffe850"/>
  </g>
  <g transform="matrix(11.457 0 0 -11.457 1336.4 192.89)">
   <path d="m0 0c-1.089-1.296-2.546-2.618-4.372-3.87l0.354-0.607c2.429 1.79 4.191 3.878 4.018 4.477" fill="#d6c044"/>
  </g>
  <g transform="matrix(11.457 0 0 -11.457 1230.9 365.88)">
   <path d="m0 0c-1.202 0-1.867-1.299-1.867-2.197 0-1.035 0.912-1.908 1.991-1.908 1.057 0 1.884 0.828 1.884 1.884 0 1.092-0.751 2.221-2.008 2.221m0.124-4.346c-1.267 0-2.265 0.975-2.265 2.149 0 1.492 1.11 2.438 2.141 2.438 1.475 0 2.282-1.229 2.282-2.462 0-1.278-0.975-2.125-2.158-2.125" fill="#061922"/>
  </g>
  <g transform="matrix(11.457 0 0 -11.457 1093.6 506.78)">
   <path d="m0 0c-5.236 1.622-7.855 5.248-7.855 9.783 0 7.553 6.317 13.471 13.743 13.471 7.739 0 13.737-6.395 13.737-13.471 0-4.506-2.807-8.232-7.772-9.783-0.451-0.141-0.521 0.051-0.075 0.209 4.762 1.694 7.49 5.179 7.49 9.574 0 6.543-5.755 13.23-13.38 13.23-7.06 0-13.38-5.962-13.38-13.23 0-4.417 2.748-7.907 7.545-9.594 0.417-0.146 0.36-0.317-0.053-0.189" fill="#061922"/>
  </g>
  <g transform="matrix(11.457 0 0 -11.457 1161 518.49)">
   <path d="M 0,0 C -1.485,0 -2.934,0.164 -4.358,0.554 -4.893,0.7 -4.842,0.889 -4.305,0.757 -2.914,0.414 -1.467,0.241 0,0.241 1.525,0.241 3.024,0.427 4.462,0.796 4.972,0.927 5.053,0.73 4.549,0.589 3.099,0.182 1.551,0 0,0" fill="#061922"/>
  </g>
  <g transform="matrix(11.457 0 0 -11.457 1057.1 535.73)">
   <path d="m0 0c-0.739 0.831 0.662 2.498 2.806 2.805 0.033 5e-3 0.322-0.184 0.256-0.194-1.919-0.289-3.502-1.754-2.882-2.451 0.429-0.483 1.644-0.555 2.955-0.177 1.861 0.538 2.271 1.486 1.876 2.002-0.04 0.052 0.232 0.089 0.249 0.06 0.316-0.537 0.223-1.66-2.065-2.322-1.272-0.367-2.634-0.353-3.195 0.277" fill="#061922"/>
  </g>
  <g transform="matrix(11.457 0 0 -11.457 1265 535.73)">
   <path d="m0 0c0.739 0.831-0.662 2.498-2.806 2.805-0.033 5e-3 -0.322-0.184-0.256-0.194 1.919-0.289 3.502-1.754 2.882-2.451-0.429-0.483-1.644-0.555-2.955-0.177-1.861 0.538-2.271 1.486-1.876 2.002 0.04 0.052-0.232 0.089-0.249 0.06-0.316-0.537-0.223-1.66 2.065-2.322 1.272-0.367 2.634-0.353 3.195 0.277" fill="#061922"/>
  </g>
  <g transform="matrix(11.457 0 0 -11.457 1091.2 365.88)">
   <path d="m0 0c-1.257 0-2.008-1.129-2.008-2.221 0-1.056 0.827-1.884 1.884-1.884 1.079 0 1.991 0.873 1.991 1.908 0 0.898-0.665 2.197-1.867 2.197m-0.124-4.346c-1.298 0-2.178 0.938-2.178 2.125 0 1.309 0.863 2.462 2.302 2.462 1.105 0 2.165-1.032 2.165-2.438 0-1.163-0.977-2.149-2.289-2.149" fill="#061922"/>
  </g>
  <g transform="matrix(11.457 0 0 -11.457 1203.7 333.44)">
   <path d="m0 0c-0.525 2e-3 -1.014-0.309-1.028-1.544-0.01-0.955 0.276-1.585 1.048-1.596 0.754-0.012 0.995 0.666 1.004 1.56 0.011 1.161-0.441 1.578-1.024 1.58" fill="#061922"/>
  </g>
  <g transform="matrix(11.457 0 0 -11.457 1203.5 335.69)">
   <path d="m0 0c0.319 0 0.558-0.221 0.566-0.519 8e-3 -0.334-0.208-0.576-0.54-0.576-0.308 0-0.566 0.25-0.564 0.546 2e-3 0.263 0.221 0.549 0.538 0.549" fill="#fff"/>
  </g>
  <g transform="matrix(11.457 0 0 -11.457 1173.6 354.73)">
   <path d="m0 0c-0.641 0.25-1.59 0.214-2.205 0.044-0.264-0.073-0.313 0.068-0.057 0.168 0.65 0.255 1.645 0.299 2.328-0.042 0.319-0.158 0.22-0.282-0.066-0.17" fill="#061922"/>
  </g>
  <g transform="matrix(11.457 0 0 -11.457 1151.7 357.2)">
   <path d="m0 0c-0.028 0.28 0.356 0.511 0.849 0.48 0.384-0.024 0.773-0.203 0.776-0.509 3e-3 -0.276-0.373-0.428-0.804-0.428-0.417 0-0.789 0.139-0.821 0.457" fill="#061922"/>
  </g>
  <g transform="matrix(11.457 0 0 -11.457 1118.4 333.44)">
   <path d="m0 0c0.525 2e-3 1.014-0.309 1.028-1.544 0.01-0.955-0.276-1.585-1.048-1.596-0.754-0.012-0.995 0.666-1.004 1.56-0.011 1.161 0.441 1.578 1.024 1.58" fill="#061922"/>
  </g>
  <g transform="matrix(11.457 0 0 -11.457 1118.6 335.69)">
   <path d="m0 0c-0.319 0-0.558-0.221-0.566-0.519-8e-3 -0.334 0.208-0.576 0.54-0.576 0.308 0 0.566 0.25 0.564 0.546-2e-3 0.263-0.221 0.549-0.538 0.549" fill="#fff"/>
  </g>
  <g transform="matrix(11.457 0 0 -11.457 1161 392.07)">
   <path d="m0 0c-1.02 0-1.955 0.377-2.55 1.003-0.235 0.246-0.094 0.372 0.149 0.132 0.547-0.542 1.452-0.873 2.401-0.873s1.854 0.331 2.401 0.873c0.29 0.286 0.428 0.185 0.155-0.121-0.572-0.642-1.543-1.014-2.556-1.014" fill="#061922"/>
  </g>
  <g transform="matrix(11.457 0 0 -11.457 1007.5 406.1)">
   <path d="M 0,0 C 0.052,0.05 1.715,1.652 2.273,2.33 2.219,2.384 0.828,3.759 0.277,4.165 0.224,4.205 0.348,4.493 0.402,4.454 0.871,4.108 1.971,2.987 2.373,2.576 2.553,2.392 2.558,2.291 2.386,2.091 1.707,1.3 0.107,-0.301 0.039,-0.367 0.016,-0.39 -0.037,-0.036 0,0" fill="#061922"/>
  </g>
  <g transform="matrix(11.457 0 0 -11.457 1041.6 475.26)">
   <path d="m0 0c0.025 0.452 0.059 1.502 0.041 2.028-0.494 0.171-1.482 0.434-2.053 0.557-0.035 8e-3 -0.189 0.321-0.124 0.307 0.584-0.118 1.838-0.482 2.336-0.665 0.045-0.017 0.076-0.059 0.078-0.107 0.027-0.543 0.018-1.928-8e-3 -2.315-4e-3 -0.063-0.272 0.154-0.27 0.195" fill="#061922"/>
  </g>
  <g transform="matrix(11.457 0 0 -11.457 1028 317.35)">
   <path d="m0 0c0.114 0.045 1.886 0.692 2.324 0.888 0.061 0.027 0.159-0.192 0.098-0.219-0.445-0.2-2.389-0.961-2.502-1.005-0.014-6e-3 0.018 0.312 0.08 0.336" fill="#061922"/>
  </g>
  <g transform="matrix(11.457 0 0 -11.457 1314.6 406.1)">
   <path d="m0 0c-0.052 0.05-1.715 1.652-2.273 2.33 0.054 0.054 1.445 1.429 1.996 1.835 0.053 0.04-0.071 0.328-0.125 0.289-0.469-0.346-1.569-1.467-1.971-1.878-0.18-0.184-0.185-0.285-0.013-0.485 0.679-0.791 2.279-2.392 2.347-2.458 0.023-0.023 0.076 0.331 0.039 0.367" fill="#061922"/>
  </g>
  <g transform="matrix(11.457 0 0 -11.457 1280.4 475.26)">
   <path d="m0 0c-0.025 0.452-0.059 1.502-0.041 2.028 0.494 0.171 1.482 0.434 2.053 0.557 0.035 8e-3 0.189 0.321 0.124 0.307-0.584-0.118-1.838-0.482-2.336-0.665-0.045-0.017-0.076-0.059-0.078-0.107-0.027-0.543-0.018-1.928 8e-3 -2.315 4e-3 -0.063 0.272 0.154 0.27 0.195" fill="#061922"/>
  </g>
  <g transform="matrix(11.457 0 0 -11.457 1294.1 317.35)">
   <path d="m0 0c-0.114 0.045-1.886 0.692-2.324 0.888-0.061 0.027-0.159-0.192-0.098-0.219 0.446-0.2 2.389-0.961 2.502-1.005 0.014-6e-3 -0.018 0.312-0.08 0.336" fill="#061922"/>
  </g>
  <g transform="matrix(11.457 0 0 -11.457 1257.5 262.74)">
   <path d="m0 0c3.573 1.754 6.609 4.989 6.767 5.939 9e-3 0.056 0.012 0.13-0.024 0.166-0.215 0.215-0.714 0.335-1.379 0.33-2.24-0.021-5.909-1.349-8.723-4.214-0.151-0.154-0.214-0.141-0.377 0.016-0.509 0.492-1.64 1.404-2.305 1.728-0.971-0.625-2.102-2.133-2.102-2.133-0.041-0.053-0.347-6e-3 -0.307 0.047 0 0 1.281 1.764 2.322 2.419 0.034 0.021 0.076 0.024 0.113 8e-3 0.716-0.324 1.961-1.42 2.476-1.925 3.539 4.056 9.276 5.07 10.453 3.894 0.79-0.792-3.146-4.997-6.649-6.542-0.017-8e-3 -0.325 0.238-0.265 0.267" fill="#061922"/>
  </g>
  <g transform="matrix(11.457 0 0 -11.457 1244.9 325.66)">
   <path d="m0 0c2.511 0.485 3.059 4.249 0.92 5.508-2.397 1.409-5.366-1.31-4.753-3.845 0.089-0.366 0.566-1.339 1.407-1.684 0.84-0.345 2.075-0.047 2.426 0.021" fill="#fff"/>
  </g>
  <g transform="matrix(11.457 0 0 -11.457 1121.1 306.61)">
   <path d="m0 0c0.509 2.559-2.356 5.255-4.753 3.845-2.139-1.259-1.612-5.143 0.92-5.508 0.389-0.056 1.38-0.127 2.114 0.103s1.633 1.13 1.719 1.56" fill="#fff"/>
  </g>
  <g transform="matrix(11.457 0 0 -11.457 1082 285.53)">
   <path d="m0 0c0.407 0.083 1.516-1.689 1.291-2.017z" fill="#d1d3d4"/>
  </g>
  <g transform="matrix(11.457 0 0 -11.457 1240.1 285.53)">
   <path d="m0 0c-0.407 0.083-1.516-1.689-1.291-2.017z" fill="#d1d3d4"/>
  </g>
  <g transform="matrix(11.457 0 0 -11.457 1075.8 326.33)">
   <path d="m0 0c-1.107 0.212-1.967 1.088-2.211 2.347-0.222 1.145 0.086 2.642 1.309 3.361 1.063 0.626 2.395 0.508 3.485-0.301 1.209-0.896 1.828-2.394 1.468-3.715-0.135-0.495-0.332-0.441-0.211 0.058 0.294 1.215-0.293 2.596-1.425 3.436-1.01 0.749-2.154 0.805-3.131 0.23-1.122-0.66-1.409-1.989-1.203-3.051 0.176-0.912 0.765-1.941 1.96-2.17 0.625-0.119 0.586-0.316-0.041-0.195" fill="#061922"/>
  </g>
  <g transform="matrix(11.457 0 0 -11.457 1093.7 306.51)">
   <path d="m0 0c-0.31 0.431-0.717 1.094-0.944 1.516-0.203 0.378-0.13 0.443 0.157 0.113 0.318-0.367 0.787-1.101 1-1.519 0.198-0.387 0.041-0.464-0.213-0.11" fill="#061922"/>
  </g>
  <g transform="matrix(11.457 0 0 -11.457 1246.3 326.33)">
   <path d="m0 0c1.107 0.212 1.967 1.088 2.211 2.347 0.222 1.145-0.086 2.642-1.309 3.361-1.063 0.626-2.395 0.508-3.485-0.301-1.209-0.896-1.828-2.394-1.468-3.715 0.135-0.495 0.332-0.441 0.211 0.058-0.294 1.215 0.293 2.596 1.425 3.436 1.01 0.749 2.154 0.805 3.131 0.23 1.122-0.66 1.409-1.989 1.203-3.051-0.176-0.912-0.765-1.941-1.96-2.17-0.625-0.119-0.586-0.316 0.041-0.195" fill="#061922"/>
  </g>
  <g transform="matrix(11.457 0 0 -11.457 1228.4 306.51)">
   <path d="m0 0c0.31 0.431 0.717 1.094 0.944 1.516 0.203 0.378 0.13 0.443-0.157 0.113-0.318-0.367-0.787-1.101-1-1.519-0.198-0.387-0.041-0.464 0.213-0.11" fill="#061922"/>
  </g>
  <g transform="matrix(11.457 0 0 -11.457 1106 446.83)">
   <path d="m0 0c0.23 0.062 1.822-1.344 2.76-0.354 0.035-0.212-0.053-1.097-0.973-1.097-0.873 0-1.84 0.985-1.787 1.451" fill="#d1d3d4"/>
  </g>
  <g transform="matrix(11.457 0 0 -11.457 1216.3 446.83)">
   <path d="m0 0c-0.23 0.062-1.822-1.344-2.76-0.354-0.035-0.212 0.053-1.097 0.973-1.097 0.872 0 1.84 0.985 1.787 1.451" fill="#d1d3d4"/>
  </g>
  <g transform="matrix(11.457 0 0 -11.457 1106.8 449.6)">
   <path d="m0 0c-0.362 0.372-0.223 0.507 0.159 0.16 0.84-0.764 1.591-1.025 2.021-0.697 0.526 0.401 0.457 1.168-0.152 2.081-0.277 0.415-0.118 0.549 0.161 0.129 0.795-1.195 0.798-1.967 0.171-2.444-0.443-0.337-1.396-0.223-2.36 0.771" fill="#061922"/>
  </g>
  <g transform="matrix(11.457 0 0 -11.457 1215.3 449.6)">
   <path d="m0 0c0.362 0.372 0.223 0.507-0.159 0.16-0.84-0.764-1.591-1.025-2.021-0.697-0.526 0.401-0.457 1.168 0.152 2.081 0.277 0.415 0.118 0.549-0.161 0.129-0.795-1.195-0.798-1.967-0.171-2.444 0.443-0.337 1.396-0.223 2.36 0.771" fill="#061922"/>
  </g>
 </g>
</svg>
