<?xml version="1.0" encoding="UTF-8"?>
<!-- Created with Inkscape (http://www.inkscape.org/) -->
<svg version="1.1" viewBox="0 0 284.9 372.07" xmlns="http://www.w3.org/2000/svg" xmlns:cc="http://creativecommons.org/ns#" xmlns:dc="http://purl.org/dc/elements/1.1/" xmlns:rdf="http://www.w3.org/1999/02/22-rdf-syntax-ns#">
 <metadata>
  <rdf:RDF>
   <cc:Work rdf:about="">
    <dc:format>image/svg+xml</dc:format>
    <dc:type rdf:resource="http://purl.org/dc/dcmitype/StillImage"/>
   </cc:Work>
  </rdf:RDF>
 </metadata>
 <g transform="translate(-1049.1 -310.66)">
  <g transform="matrix(4.0069 0 0 -4.0069 1251.6 378.82)">
   <path d="m0 0c-1.009 1.521-3.083 4.171-4.232 4.299-2.169 0.241-8.301-6.916-11.322-11.664-1.644-2.584 0.267-3.561 2.895-1.415 1.235 1.008 6.466 4.522 7.409 4.928 0.981-1.666 3.334-5.31 4.727-6.967 0.677-0.805 1.399-0.946 2.007-0.75 6.068 1.95 21.188 25.172 18.448 28.059-1.918 2.02-16.151-8.091-19.932-16.49" fill="#bdbdb7"/>
  </g>
  <g transform="matrix(4.0069 0 0 -4.0069 1331.7 313.15)">
   <path d="m0 0c-2.73-9.672-17.074-26.842-19.161-26.302-0.898 0.233-4.338 5.307-5.091 6.482-1.085 1.692-9.193-5.312-11.649-6.29 0.529-0.481 1.769-0.255 3.232 0.94 1.236 1.009 6.467 4.522 7.41 4.929 0.981-1.666 3.334-5.311 4.727-6.967 0.677-0.806 1.399-0.946 2.007-0.751 6.004 1.93 20.872 24.687 18.525 27.959" fill="#949591"/>
  </g>
  <g transform="matrix(4.0069 0 0 -4.0069 1277 345.24)">
   <path d="M 0,0 C 2.85,0.278 5.499,-4.688 5.671,-9.188 10.807,-1.979 15.163,6.443 13.583,8.107 12.299,9.46 5.493,5.37 0,0" fill="#ffe850"/>
  </g>
  <g transform="matrix(4.0069 0 0 -4.0069 1299.7 382.05)">
   <path d="M 0,0 C 5.042,7.078 9.328,15.32 7.988,17.193 6.791,12.953 3.363,7.274 -0.286,2.276 -0.129,1.522 -0.029,0.755 0,0" fill="#d6c044"/>
  </g>
  <g transform="matrix(4.0069 0 0 -4.0069 1188.2 407.67)">
   <path d="m0 0c2.716 4.269 9.149 12.211 11.653 11.928 1.673-0.186 4.454-4.667 4.847-5.407 0.459-0.868 0.046-1.09-0.412-0.221-0.621 1.173-3.364 4.625-4.548 4.757-1.833 0.196-7.682-6.139-11.021-11.387-1.136-1.787 0.343-2.726 2.441-1.013 1.181 0.964 6.714 4.592 7.567 4.937 1.236 0.5 1.456 0.161 0.221-0.413-0.642-0.297-5.899-3.912-7.399-5.001-3.355-2.434-4.954-0.703-3.349 1.82" fill="#061922"/>
  </g>
  <g transform="matrix(4.0069 0 0 -4.0069 1332.3 311.9)">
   <path d="m0 0c-1.979 2.083-15.694-6.664-20.302-16.276l0.363-0.691c3.586 8.228 17.969 18.146 19.492 16.543 2.478-2.604-12.391-25.298-18.326-27.422-0.536-0.193-1.059-0.126-1.639 0.549-1.255 1.459-3.639 5.141-4.65 6.788l-0.558-0.265c0.996-1.629 3.196-5.235 4.691-7.052 0.806-0.98 1.684-1.149 2.428-0.86 6.621 2.573 21.64 25.378 18.501 28.686" fill="#061922"/>
  </g>
  <g transform="matrix(4.0069 0 0 -4.0069 1244.8 646.13)">
   <path d="m0 0c-22.437-6.377-43.583 2.533-47.43 17.974-4.204 16.877 6.25 37.24 25.173 41.016 24.51 4.891 39.532-12.22 42.435-26.027 2.674-12.716-2.446-23.616-14.569-29.887z" fill="#bdbdb7"/>
  </g>
  <g transform="matrix(4.0069 0 0 -4.0069 1055.6 577.06)">
   <path d="m0 0c4.326-14.986 25.153-23.514 47.232-17.238l5.609 3.076c8.434 4.362 13.475 10.969 14.864 18.867-13.652-16.598-49.782-22.618-67.705-4.705" fill="#949591"/>
  </g>
  <g transform="matrix(4.0069 0 0 -4.0069 1266.4 634.25)">
   <path d="m0 0c6.773 15.442 3.356 36.942-10.013 44.486l-9.587 3.304c-5.138-3.646-13.826-4.632-16.899-2.816l-6.987-4.659c-8.582-12.767-5.709-29.278 1.076-36.142 0.219-2.187 1.721-4.281 1.721-4.281 9.969-5.255 21.762-6.618 34.969-2.946 2.032-6.028 6.14-9.478 8.402-8.386 2.863 1.381 1.241 8.849-1.335 12.003-0.014 7e-3 -1.347-0.563-1.347-0.563" fill="#fff"/>
  </g>
  <g transform="matrix(4.0069 0 0 -4.0069 1079.3 460.11)">
   <path d="m0 0c-0.992-1.372-1.885-2.816-2.676-4.314 1.152 0.8 2.865 1.655 3.828 1.844z" fill="#ffe850"/>
  </g>
  <g transform="matrix(4.0069 0 0 -4.0069 1054.4 517.03)">
   <path d="m0 0c-0.387-1.887-0.624-3.795-0.703-5.699 0.975 1.567 2.654 4.225 2.954 4.689-0.174 0.05-1.36 0.623-2.251 1.01" fill="#5c513c"/>
  </g>
  <g transform="matrix(4.0069 0 0 -4.0069 1063.6 594.92)">
   <path d="m0 0c0.856-1.646 1.342-2.327 2.612-3.738-0.193 1.337-0.389 2.989-0.564 3.892-0.587 0.059-1.24-0.102-2.048-0.154" fill="#d6c044"/>
  </g>
  <g transform="matrix(4.0069 0 0 -4.0069 1321.1 577.25)">
   <path d="m0 0c-2.095-1.279-6.265-2.257-7.158-2.195 0.065-1.634 0.279-5.693 0.038-7.694 2.967 1.919 6.319 6.87 7.12 9.889" fill="#d6c044"/>
  </g>
  <g transform="matrix(4.0069 0 0 -4.0069 1321 534.62)">
   <path d="m0 0c0.314 0.68 1.252 4.592 1.246 4.625-0.337 1.953-1.027 4.431-1.89 6.447-2.33-1.084-7.473-3.591-8.351-3.997 2.382-1.173 7.253-5.262 8.995-7.075" fill="#5c513c"/>
  </g>
  <g transform="matrix(4.0069 0 0 -4.0069 1287.9 463.53)">
   <path d="m0 0c0.093 0.591 0.105 2.873 0.106 4.457-1.457 1.404-3.066 2.713-4.822 3.889-1.752-0.562-6.306-2.732-6.946-3.405 0.747-0.212 10.595-4.195 11.662-4.941" fill="#ffe850"/>
  </g>
  <g transform="matrix(4.0069 0 0 -4.0069 1082.9 598.07)">
   <path d="m0 0c0.954-1.904 2.099-3.554 3.385-4.855 0.219-2.187 1.721-4.282 1.721-4.282 9.969-5.255 21.762-6.618 34.97-2.946 2.031-6.028 6.14-9.478 8.402-8.386 2.862 1.382 1.241 8.849-1.336 12.004-0.013 6e-3 -1.346-0.563-1.346-0.563 1.306 2.977 2.228 6.18 2.778 9.464-14.323-7.31-34.379-8.724-48.574-0.436" fill="#d1d3d4"/>
  </g>
  <g transform="matrix(4.0069 0 0 -4.0069 1053.3 574.11)">
   <path d="m0 0c-4.576 16.611 6.512 37.583 25.484 41.369 25.479 5.085 40.213-12.94 42.949-26.151 2.748-13.273-2.766-24.41-14.873-30.389-1.388-0.685-1.641-0.196-0.283 0.547 11.643 6.365 16.896 16.646 14.207 29.635-2.703 13.049-17.315 30.553-41.875 25.652-18.47-3.685-29.13-24.488-24.725-40.475 3.856-13.997 21.819-24.433 46.84-17.885 1.086 0.284 1.247-0.244 0.169-0.563-21.996-6.52-43.366 1.829-47.893 18.26" fill="#061922"/>
  </g>
  <g transform="matrix(4.0069 0 0 -4.0069 1080.5 469.71)">
   <path d="m0 0c-0.799-0.269-1.688-0.771-2.51-1.303l-0.57-0.986c1.092 0.754 2.535 1.481 3.58 1.808z" fill="#061922"/>
  </g>
  <g transform="matrix(4.0069 0 0 -4.0069 1064.1 519.78)">
   <path d="m0 0c-0.082 0.025-1.905 0.791-2.275 0.952l-0.117-0.621c0.381-0.168 1.474-0.766 1.624-0.834-0.453-0.711-1.34-2.285-2.157-3.59l-0.086-1.302c0.934 1.505 2.839 4.399 3.184 4.932 0.156 0.24 0.086 0.383-0.173 0.463" fill="#061922"/>
  </g>
  <g transform="matrix(4.0069 0 0 -4.0069 1073.2 593.83)">
   <path d="m0 0c-0.026 0.134-0.136 0.235-0.272 0.248-0.531 0.055-2.433-0.133-2.544-0.14l0.327-0.595c0.019 1e-3 1.279 0.063 1.806 0.022 0.186-0.87 0.424-2.307 0.665-3.612l0.751-0.869c-0.18 1.273-0.542 3.958-0.733 4.946" fill="#061922"/>
  </g>
  <g transform="matrix(4.0069 0 0 -4.0069 1321.1 575.81)">
   <path d="m0 0c-1.922-1.153-5.906-1.972-7.225-2.13-0.231-0.027-0.34-0.034-0.329-0.319 0 0 0.357-6.104 0.133-7.826l0.67 0.533c0.14 1.888-2e-3 6.832-2e-3 6.832 1.413 0.174 4.36 0.948 6.4 2.003z" fill="#061922"/>
  </g>
  <g transform="matrix(4.0069 0 0 -4.0069 1320.5 532.39)">
   <path d="m0 0c-1.802 1.778-5.266 4.737-7.927 6.482 0.511 0.245 6.179 3.144 7.589 3.803l-0.245 0.565c-1.342-0.627-7.36-3.511-8.317-3.995-0.367-0.186-0.398-0.439-0.022-0.658 2.737-1.595 7.199-5.282 8.817-6.966 0.234-0.245 0.334-0.279 0.502 0.084 0.261 0.568 0.762 2.548 1.147 4.192l-0.27 1.418c-0.298-1.481-0.902-3.819-1.274-4.925" fill="#061922"/>
  </g>
  <g transform="matrix(4.0069 0 0 -4.0069 1246.5 438.92)">
   <path d="m 0,0 -0.392,-0.923 c 1.651,0.964 4.723,2.368 6.194,2.86 L 5.185,2.338 C 3.701,1.876 1.559,0.916 0,0" fill="#061922"/>
  </g>
  <g transform="matrix(4.0069 0 0 -4.0069 1287.1 445.3)">
   <path d="m0 0c0.026-1.212-0.033-2.986-0.136-3.925-2.083 1.024-8.162 3.498-10.5 4.347l-0.24-0.566c2.441-0.885 9.718-4.098 10.942-4.727 0.288-0.148 0.433-0.102 0.48 0.204 0.085 0.532 0.121 2.349 0.069 4.064z" fill="#061922"/>
  </g>
  <g transform="matrix(4.0069 0 0 -4.0069 1228.2 458.72)">
   <path d="m0 0c1.696 0.587 3.084 1.973 3.973 3.837 1.88 3.943 0.305 8.673-4.009 10.409-3.454 1.39-8.824-0.19-10.554-4.764-0.621-1.644-0.734-4.212-0.035-6.416 0.717-2.26 6.751-4.409 10.625-3.066" fill="#fff"/>
  </g>
  <g transform="matrix(4.0069 0 0 -4.0069 1122.8 457.14)">
   <path d="m0 0c1.462 2.636 1.382 5.498 0.471 7.435-1.325 2.818-4.687 4.351-8.905 2.306-4.083-1.98-5.019-6.053-4.002-9.525 0.61-2.084 2.076-4.005 4.642-4.803 2.328-0.724 6.094 1.521 7.794 4.587" fill="#fff"/>
  </g>
  <g transform="matrix(4.0069 0 0 -4.0069 1097.3 505.98)">
   <path d="m0 0c2.493 0.144 4.472-2.287 4.501-5.363 0.027-2.894-1.621-5.216-4.254-5.291-2.385-0.068-4.225 2.372-4.34 5.109-0.125 2.935 1.62 5.402 4.093 5.545" fill="#ffe850"/>
  </g>
  <g transform="matrix(4.0069 0 0 -4.0069 1218.9 486.12)">
   <path d="m0 0c3.427 0.741 5.741-1.489 6.376-4.046 0.689-2.779-0.556-5.931-3.853-6.576-3.174-0.619-5.868 1.267-6.543 4.06-0.548 2.265 0.508 5.802 4.02 6.562" fill="#ffe850"/>
  </g>
  <g transform="matrix(4.0069 0 0 -4.0069 1136 627.73)">
   <path d="m0 0c-1.966 3.635-7.202 7.589-9.055 6.398-2.241-1.44-0.624-6.317 2.052-9.447 2.184-2.553 5.046-4.59 7.467-3.782 1.857 0.62 1.56 2.651 1.434 3.225-0.173 0.787-1.32 2.536-1.898 3.606" fill="#d1d3d4"/>
  </g>
  <g transform="matrix(4.0069 0 0 -4.0069 1136.7 630.05)">
   <path d="m0 0c-3.085 3.022-6.783 4.966-8.135 4.395-1.141-0.481-1.353-2.429-0.423-4.395-1.289 1.183-2.795 5.248-0.679 6.977s8.582-4.568 9.237-6.977" fill="#fff"/>
  </g>
  <g transform="matrix(4.0069 0 0 -4.0069 1216.6 427.85)">
   <path d="m0 0c-1.887-0.079-3.173-3.396-2.494-5.253 0.216 0.491 2.16 4.644 2.494 5.253" fill="#d1d3d4"/>
  </g>
  <g transform="matrix(4.0069 0 0 -4.0069 1095.7 436.66)">
   <path d="m0 0c1.637 0.059 3.034-4.12 2.262-5.88z" fill="#d1d3d4"/>
  </g>
  <g transform="matrix(4.0069 0 0 -4.0069 1182.5 564.24)">
   <path d="m0 0c-0.222-1.59 5.954-1.22 6.101-2.219-0.32-0.96-5.043-1.965-6.323-0.702-0.545 0.538-0.455 1.463 0.222 2.921" fill="#d1d3d4"/>
  </g>
  <g transform="matrix(4.0069 0 0 -4.0069 1101.6 579.5)">
   <path d="m0 0c0.555-2.366 6.841 0.666 7.137-0.222-0.555-1.701-4.992-3.697-6.397-2.736-0.876 0.599-0.703 1.886-0.74 2.958" fill="#d1d3d4"/>
  </g>
  <g transform="matrix(4.0069 0 0 -4.0069 1117.4 474.06)">
   <path d="m0 0c1.594 0.057 2.363-1.839 2.329-4.405-0.036-2.713-0.733-4.069-2.257-4.129-1.455-0.057-2.601 1.377-2.581 4.045 0.026 3.327 1.35 4.447 2.509 4.489" fill="#061922"/>
  </g>
  <g transform="matrix(4.0069 0 0 -4.0069 1231 456.36)">
   <path d="m0 0c1.284 0.717 2.27 1.814 2.982 3.379 1.733 3.807 0.193 8.257-3.851 9.884-3.339 1.344-8.34-0.183-10.086-4.584-0.626-1.58-0.735-3.389-0.245-5.447 0.272-1.146-0.127-1.288-0.48-0.164-0.744 2.363-0.504 4.209 0.092 5.924 1.564 4.513 6.933 6.712 11.03 5.063 4.568-1.839 6.221-6.895 4.162-10.982-0.823-1.633-1.957-2.819-3.406-3.525-1.269-0.618-1.548-0.302-0.198 0.452" fill="#061922"/>
  </g>
  <g transform="matrix(4.0069 0 0 -4.0069 1206.6 446.97)">
   <path d="M 0,0 C 0.392,1.795 1.194,3.51 2.053,4.466 2.542,5.009 2.746,4.86 2.42,4.205 2.105,3.572 1.031,1.2 0.44,-0.122 0.165,-0.736 -0.149,-0.683 0,0" fill="#061922"/>
  </g>
  <g transform="matrix(4.0069 0 0 -4.0069 1088.7 475.44)">
   <path d="m0 0c-2.047 0.508-3.369 2.3-4.227 4.3-1.453 3.383-0.031 8.45 4.23 10.516 3.437 1.667 7.66 0.911 9.313-2.688 0.906-1.974 0.839-4.648-0.243-6.862-0.589-1.209-0.905-1.065-0.447 0.209 0.771 2.145 0.798 4.703 0.05 6.333-1.123 2.443-4.435 4.053-8.298 2.18-3.109-1.507-5.258-5.882-3.952-9.265 0.739-1.915 1.929-3.608 3.697-4.238 1.32-0.471 1.114-0.791-0.123-0.485" fill="#061922"/>
  </g>
  <g transform="matrix(4.0069 0 0 -4.0069 1102.9 458.82)">
   <path d="m0 0c-0.468 0.749-1.61 3.968-1.809 4.954-0.143 0.704 0.082 0.8 0.436 0.175 0.35-0.618 1.623-4.068 1.829-4.93 0.188-0.786-0.049-0.851-0.456-0.199" fill="#061922"/>
  </g>
  <g transform="matrix(4.0069 0 0 -4.0069 1101.2 585.44)">
   <path d="m0 0c-1.074 1.196-0.048 4.572 2.325 6.63 0.633 0.549 0.89 0.268 0.296-0.324-2.3-2.29-2.632-5-1.993-5.712 0.929-1.034 3.449-0.774 5.991 0.609 0.746 0.406 0.94 0.053 0.225-0.404-2.485-1.59-5.678-2.096-6.844-0.799" fill="#061922"/>
  </g>
  <g transform="matrix(4.0069 0 0 -4.0069 1180.2 569.98)">
   <path d="m0 0c-1 1.519 1.463 5.225 4.618 6.061 0.864 0.229 0.965-0.077 0.142-0.407-2.943-1.179-4.568-4.179-4.002-5.122 0.588-0.979 3.45-1.353 5.348-1.177 0.746 0.069 0.803-0.297 0.067-0.453-1.795-0.381-5.376-0.114-6.173 1.098" fill="#061922"/>
  </g>
  <g transform="matrix(4.0069 0 0 -4.0069 1132.6 494.29)">
   <path d="M 0,0 C 0.119,-0.722 1.128,-1.048 2.11,-0.975 3.12,-0.9 4.116,-0.328 4.046,0.519 3.988,1.221 3.077,1.775 1.825,1.612 0.789,1.476 -0.146,0.89 0,0" fill="#061922"/>
  </g>
  <g transform="matrix(4.0069 0 0 -4.0069 1131.4 489.82)">
   <path d="m0 0c1.295 1.007 3.89 1.289 5.92 0.492 0.765-0.3 0.634-0.674-0.152-0.441-1.646 0.486-4.264 0.328-5.519-0.447-0.561-0.346-0.852-0.073-0.249 0.396" fill="#061922"/>
  </g>
  <g transform="matrix(4.0069 0 0 -4.0069 1117.4 476.75)">
   <path d="m0 0c0.804 0.017 1.365-0.559 1.355-1.429-0.01-0.769-0.51-1.393-1.384-1.439-0.697-0.039-1.306 0.521-1.341 1.336-0.035 0.831 0.595 1.514 1.37 1.532" fill="#fff"/>
  </g>
  <g transform="matrix(4.0069 0 0 -4.0069 1186.3 464)">
   <path d="m0 0c1.405 0.24 2.821-0.732 3.193-3.973 0.218-1.898-0.288-4.201-2.317-4.357-1.821-0.14-2.772 1.656-2.917 3.877-0.136 2.106 0.313 4.158 2.041 4.453" fill="#061922"/>
  </g>
  <g transform="matrix(4.0069 0 0 -4.0069 1187.1 466.22)">
   <path d="m0 0c0.864 0.092 1.453-0.448 1.56-1.184 0.105-0.721-0.294-1.513-1.177-1.614-0.839-0.096-1.569 0.562-1.631 1.296-0.06 0.727 0.478 1.421 1.248 1.502" fill="#fff"/>
  </g>
  <g transform="matrix(4.0069 0 0 -4.0069 1082.4 528.14)">
   <path d="m0 0c0.099-2.343 1.569-4.893 3.957-4.824 2.628 0.074 3.896 2.679 3.874 4.982-0.028 2.913-1.748 5.205-4.098 5.07-2.371-0.141-3.838-2.749-3.733-5.228m3.971-5.427c-2.603-0.075-4.58 2.537-4.697 5.317-0.139 3.289 1.861 5.792 4.426 5.94 2.688 0.155 4.807-2.34 4.838-5.585 0.03-3.205-1.83-5.592-4.567-5.672" fill="#061922"/>
  </g>
  <g transform="matrix(4.0069 0 0 -4.0069 1219.1 487.35)">
   <path d="m0 0c-2.997-0.648-4.277-3.757-3.7-6.148 0.615-2.541 3.033-4.458 6.1-3.86 3.237 0.633 4.117 3.762 3.518 6.172-0.821 3.31-3.664 4.324-5.918 3.836m2.516-10.623c-3.452-0.673-6.303 1.456-6.983 4.268-0.687 2.847 0.908 6.226 4.338 6.969 3.699 0.8 6.214-1.687 6.856-4.273 0.687-2.768-0.536-6.246-4.211-6.964" fill="#061922"/>
  </g>
  <g transform="matrix(4.0069 0 0 -4.0069 1106.3 641.1)">
   <path d="m0 0c-2.551 2.984-4.524 8.42-1.829 10.04 1.991 1.197 6.542-1.745 9.411-6.565 0.478-0.802 0.105-1.06-0.372-0.257-2.236 3.758-7.107 7.187-8.65 6.194-1.854-1.192-0.398-5.84 2.205-8.884 1.215-1.42 4.2-4.614 6.994-3.683 1.274 0.426 1.5 1.786 1.297 2.821-0.215 1.097 0.122 1.208 0.476 0.149 0.454-1.361-0.022-3.144-1.545-3.652-2.356-0.787-5.347 0.75-7.987 3.837" fill="#061922"/>
  </g>
  <g transform="matrix(4.0069 0 0 -4.0069 1272.8 631.18)">
   <path d="m0 0-0.483-0.384c2.82-3.342 3.643-10.276 1.408-11.382-1.773-0.877-5.791 1.88-7.869 7.943l-0.633-0.192c2.013-5.813 6.197-9.899 8.903-8.614 3.309 1.571 1.186 9.641-1.326 12.629" fill="#061922"/>
  </g>
  <g transform="matrix(4.0069 0 0 -4.0069 1163.9 557.82)">
   <path d="m0 0c-4.013-0.963-7.357 1.477-8.562 4.348-1.28 3.05-0.61 7.111 3.053 8.251 3.942 1.227 7.591-1.38 9.127-4.574 1.476-3.068 0.687-6.992-3.618-8.025" fill="#8d3103"/>
  </g>
  <g transform="matrix(4.0069 0 0 -4.0069 1178.4 525.66)">
   <path d="m0 0c-0.48 0.998-1.166 1.938-2.003 2.723-4.035 0.485-9.311-3.714-8.114-9.188 1.635-1.395 3.928-2.178 6.499-1.56 4.305 1.032 5.094 4.957 3.618 8.025" fill="#f3859b"/>
  </g>
  <g transform="matrix(4.0069 0 0 -4.0069 1176.7 522.52)">
   <path d="m0 0c-0.43 0.705-0.96 1.365-1.574 1.94-2.802 0.337-7.03-1.786-7.92-5.741 2.346 3.281 6.279 4.411 9.494 3.801" fill="#c96f82"/>
  </g>
  <g transform="matrix(4.0069 0 0 -4.0069 1142.2 508.73)">
   <path d="m0 0c-3.584-1.116-3.969-5.198-2.878-7.8 1.338-3.188 4.883-4.954 8.221-4.151 3.827 0.917 4.851 4.5 3.36 7.599-1.417 2.948-4.884 5.539-8.703 4.352m-3.415-8.004c-1.468 3.498-0.509 7.56 3.219 8.719 3.322 1.035 7.539-0.609 9.546-4.783 1.436-2.984 0.856-7.35-3.864-8.483-3.156-0.756-7.24 0.589-8.901 4.547" fill="#061922"/>
  </g>
  <g transform="matrix(4.0069 0 0 -4.0069 1168.1 513.52)">
   <path d="m0 0c-4.739 0.019-8.611-4.347-7.888-9.081l0.746-0.769c-1.417 5.104 3.674 9.883 7.826 9.251z" fill="#061922"/>
  </g>
 </g>
</svg>
