<?xml version="1.0" encoding="UTF-8"?>
<!-- Created with Inkscape (http://www.inkscape.org/) -->
<svg version="1.1" viewBox="0 0 249.1 238.38" xmlns="http://www.w3.org/2000/svg">
 <g transform="translate(8.6902 -32.299)" stroke-width="1.9295">
  <path d="m27.027 240.04c-0.39235 0-0.76384-0.0219-1.114-0.0635-3.9615-0.45813-7.4903-3.4824-8.7774-7.5267-0.75808-2.3859 0.24066-4.9755 2.4069-6.232 0.83501-0.48271 1.7547-0.71768 2.6704-0.71768 1.2333 0 2.4493 0.42706 3.4247 1.2448 1.4642-0.0153 4.7869-1.2237 8.0616-4.5041 1.0332-1.0352 2.3992-1.5642 3.7749-1.5642 1.1005 0 2.2049 0.33869 3.1496 1.0313 2.124 1.5546 2.7938 4.429 1.5738 6.7628-5.5989 10.734-13.029 11.569-15.171 11.569" fill="#fff"/>
  <path d="m197.82 183.62c-0.57759 53.508-43.273 80.056-102.39 80.056-66.082 0-102.24-33.142-102.63-76.814-0.49079-56.064 43.152-109.04 102.63-109.04 51.939 0 103.04 45.72 102.39 105.8" fill="#bdbdb7"/>
  <path d="m119.44 143.03c22.782-5.9568 24.248-28.14 12.393-38.934-16.8-15.292-43.627-3.3574-43.443 26.51-13.012 10.176-41.521 10.98-51.746 1.2698 8.4598-22.429-6.94-39.374-24.675-28.731-17.11 10.267-12.623 36.954 4.7618 41.012-25.111 32.017-19.386 75.79 17.751 106.96 15.988 7.9886 36.399 12.57 60.946 12.57 13.287 0 25.74-1.3468 37.076-4.0327 35.49-27.527 23.619-88.245-13.062-116.62" fill="#fff"/>
  <g>
   <path d="m25.172 182.79c2.7822 8.7774-0.53675 15.517-5.5065 17.093-4.9448 1.5661-11.74-1.1621-14.59-10.155-2.532-7.9865 0.41204-15.908 5.5064-17.522 4.885-1.5488 11.89 2.0644 14.59 10.584" fill="#ffe850"/>
   <path d="m123.72 194.82c-4.2041 8.5177-13.501 9.9722-20.955 6.6513-7.8672-3.5036-10.861-13.078-7.0804-20.74 3.9405-7.9848 13.736-10.497 20.955-6.9361 7.3478 3.6248 11.021 13.041 7.0804 21.026" fill="#ffe850"/>
   <path d="m35.544 184.8c-2.682 4.9523 6.8476 21.991 21.956 21.813 18.343-0.21544 23.326-17.845 21.383-21.026-1.3757-2.2492-9.7779-4.5444-21.028-4.6484-14.959-0.14067-21.016 1.468-22.313 3.8614" fill="#923000"/>
   <path d="m43.173 201.07c3.7517 3.2458 8.6446 5.6142 14.326 5.547 10.18-0.11944 16.239-5.6008 19.29-11.002-8.5812-6.4184-27.496-5.1082-33.616 5.4546" fill="#ed8599"/>
  </g>
  <path d="m10.846 233.64c-6.0375-2.3627-11.59-2.6379-13.755 0.34035-2.4417 3.3554-0.38287 12.826 11.967 22.17 10.572 8 21.566 8.0616 24.412 4.1481 1.672-2.3012 1.672-6.0529-0.27713-9.8394-8.8735-4.6042-16.344-10.276-22.348-16.82" fill="#fff"/>
  <g>
   <path d="m0.47636 145.36c2.6666-2.0972 5.5451-3.7807 8.3482-5.2045-1.316-1.2756-2.961-2.9919-4.0346-4.7792-1.7163 3.648-2.6205 5.8777-4.3136 9.9838" fill="#ffe850"/>
   <path d="m-1.9066 172.97c-1.3064-2.4339-2.3801-5.1814-3.0977-8.7446-1.2718 6.2646-2.0067 12.662-2.1626 19.115 1.5892-4.0308 3.4228-7.5498 5.2603-10.37" fill="#5c513c"/>
   <path d="m8.7116 223.31c-2.7245-1.089-5.8374-2.8802-8.5195-5.0718 2.5071 4.9755 5.6451 9.647 9.3968 13.965-0.54039-3.1746-0.83115-6.1357-0.87731-8.8928" fill="#ffe850"/>
   <path d="m163.43 220.13c1.7489 5.7701 4.2501 16.793 4.4041 24.127 8.5906-6.1606 15.582-13.789 20.648-22.892-6.7436 1.3064-15.717 0.45812-25.053-1.2352" fill="#ffe850"/>
   <path d="m190.67 152.75c-6.7437 6.9554-21.769 18.051-32.015 24.848 9.7163 3.9808 22.3 9.9818 30.157 15.396 3.292-9.8221 2.9726-29.095 1.8586-40.244" fill="#5c513c"/>
   <path d="m160.18 105.23-6.5281-1.9374c-3.3132 6.3723-9.1699 13.464-14.524 18.197-0.16919 4.3156-1.6296 8.6196-4.554 12.321 8.56 0.68299 20.607 3.1689 27.986 6.2223 1.9413-7.9078 0.88315-26.9-2.38-34.803" fill="#ffe850"/>
   <path d="m149.56 236.67c-3.4421 8.8484-9.0314 16.764-17.045 22.983 13.541-3.213 25.476-8.3502 35.32-15.409-0.089-4.2116-0.95243-9.6335-2.001-14.58-5.189 2.6398-10.63 4.9793-16.273 7.0073" fill="#949591"/>
   <path d="m188.48 221.37c1.999-3.5922 3.6999-7.4132 5.0775-11.463-4.406 4.4155-9.3142 8.4311-14.63 12.048 3.4805 0.11345 6.7206-0.0382 9.5527-0.58489" fill="#949591"/>
   <path d="m188.48 221.37c-2.8321 0.54833-6.0722 0.69837-9.5527 0.58488-4.1309 2.8109-8.5158 5.3757-13.097 7.7077 1.0505 4.9465 1.9124 10.368 2.0029 14.58 8.5848-6.1567 15.582-13.776 20.646-22.873" fill="#d6c044"/>
   <path d="m34.463 251.1c-7.6384-6.4128-13.926-13.366-18.911-20.632-2.2857-1.189-4.506-2.4416-6.6571-3.7595 0.1444 1.7508 0.36756 3.569 0.69062 5.472 6.4839 7.469 14.794 13.876 24.877 18.921" fill="#949591"/>
   <path d="m2.5274 222.47c2.0356 3.4054 4.3984 6.6436 7.0572 9.7105-0.32088-1.9029-0.54476-3.7211-0.69062-5.4719-2.1971-1.3449-4.3233-2.7571-6.3664-4.2386" fill="#d6c044"/>
   <path d="m149.56 236.67c-42.828 15.39-96.878 13.128-134-6.1895 4.9851 7.267 11.271 14.22 18.911 20.632 15.987 7.9962 36.402 12.579 60.96 12.579 13.293 0 25.75-1.3507 37.087-4.0404 8.0135-6.2185 13.603-14.134 17.045-22.983" fill="#dcdddd"/>
   <path d="m50.906 194.29c7.4998-0.93507 15.542 3.011 19.702 8.2445 2.7571-1.9818 4.7869-4.4599 6.1798-6.9264-6.155-4.6062-17.628-5.2313-25.883-1.3179" fill="#ce7486"/>
  </g>
  <g fill="#dcdddd">
   <path d="m19.739 241.82c-13.095-6.4242-20.6-5.8741-23.264-2.1991 0.96774 4.4541 4.6368 10.509 12.583 16.523 10.572 8 21.568 8.0616 24.412 4.1481 1.6719-2.3012 1.6738-6.0549-0.27493-9.8414-4.9275-2.5551-9.4045-5.4507-13.455-8.6312"/>
   <path d="m115.5 119.24c-5.5316-0.0961-11.836 6.6744-11.979 14.018 2.8244-3.648 8.4021-10.205 11.979-14.018"/>
   <path d="m17.495 120.26c4.9967 3.5864 7.1516 11.954 6.7495 16.951-3.3786-3.9789-7.0978-13.079-6.7495-16.951"/>
   <path d="m76.094 228.23c-1.7836 12.966 15.238 13.518 24.517 4.2656-16.806 4.429-23.822 0.58297-24.517-4.2656"/>
  </g>
  <g fill="#0f141b">
   <path d="m53.876 171.68c0.20419 1.9567-1.9394 3.9154-5.5316 4.2905-3.8345 0.40195-5.9433-1.3237-6.126-3.0745-0.21149-2.0183 1.5238-3.9847 5.3641-4.3868 3.8461-0.40194 6.0934 1.2602 6.2935 3.1708"/>
   <path d="m5.7015 137.1c-7.498 15.092-11.679 32.105-11.525 49.782 0.1898 21.655 9.0886 39.453 24.443 52.352 17.979 15.104 44.809 23.492 76.872 23.492 58.029 0 100.36-26.593 100.92-79.072 0.64102-59.314-50.216-104.87-100.99-104.87-23.972 0-45.984 9.168-63.315 24.138l-2.2896-1.468c17.443-15.096 39.932-24.567 65.617-24.567 52.255 0 104.39 45.147 103.73 106.8-0.55425 51.395-39.198 81.005-103.73 81.005-69.438 0-103.75-35.114-104.13-77.814-0.1619-18.332 4.3945-36.497 12.768-52.626z"/>
   <path d="m15.777 144.65c-17.403-3.4498-22.402-31.882-4.5369-42.6 18.449-11.069 35.721 6.6225 26.184 29.885-1.3506 3.292-2.5531 2.7974-1.3391-0.54645 7.3959-20.38-5.9549-37.618-23.428-27.133-16.641 9.9838-10.946 35.243 3.4882 39 3.8 0.98703 3.1976 2.1011-0.36756 1.3949"/>
   <path d="m22.224 136.23c-2.9861-4.2502-4.9658-8.8986-5.3698-14.028-0.20784-2.634 0.81386-2.7571 1.4873-0.20179 1.2064 4.5676 3.0419 9.168 5.3025 13.268 1.4103 2.5589 0.19253 3.2555-1.42 0.96201"/>
   <path d="m120.59 141.95c19.369-6.1338 21.871-26.326 10.167-36.981-15.481-14.09-40.287-3.0516-41.614 23.943-0.23483 4.7812-1.3142 4.7677-1.4046-0.0218-0.54622-28.981 27.359-41.805 44.972-25.773 12.898 11.74 9.9683 34.84-11.765 40.192-4.3252 1.0659-4.8659 0.0654-0.35369-1.3641"/>
   <path d="m104.55 130.99c3.2978-4.6214 5.9028-7.6172 9.2853-10.707 2.0356-1.8586 2.7513-1.087 1.0005 1.041-2.9592 3.5959-5.5584 6.7186-8.8484 10.715-2.2106 2.6859-3.5326 1.8893-1.4372-1.0486"/>
   <path d="m58.847 171.47c-4.1386-2.7513-11.563-3.9-17.235-0.51157-2.0779 1.2391-2.7378 0.17732-0.72708-1.1678 6.5205-4.3636 14.315-3.088 18.761 0.57139 1.8028 1.4834 0.98123 2.2915-0.79848 1.1082"/>
   <path d="m24.04 183.1c-2.7264-8.6042-9.3104-11.24-13.208-10.007-4.4061 1.3968-7.219 8.4137-4.71 16.327 2.7397 8.6447 9.0236 10.932 13.287 9.5797 4.0962-1.2987 7.3959-7.1748 4.6311-15.9m2.1952-0.57141c3.0226 9.5334-0.91385 16.502-6.3068 18.211-5.1987 1.6508-12.878-0.89275-15.977-10.673-2.3589-7.4441-0.10574-16.643 6.357-18.692 5.6912-1.8086 13.128 2.3243 15.927 11.153"/>
   <path d="m122.66 194.29c3.5633-7.2228 0.54258-16.279-6.4338-19.722-6.0316-2.9784-15.511-1.5681-19.56 6.6358-3.6634 7.4248-0.47111 16.337 6.5089 19.444 6.8188 3.0361 15.484 1.7489 19.484-6.3589m-20.264 7.9578c-9.3065-4.1462-11.402-14.682-7.7731-22.035 4.0501-8.2059 14.395-11.232 22.452-7.2612 8.3521 4.1213 11.682 14.228 7.6652 22.371-4.4522 9.0236-14.64 10.359-22.344 6.9264"/>
   <path d="m36.508 185.3c-2.0105 3.7114 5.824 20.384 21.026 20.384 17.634-0.20997 21.945-17.041 20.391-19.585-1.0736-1.7586-8.1002-3.9904-20.086-4.1-16.928-0.17501-20.565 1.8913-21.329 3.3016m-2.0029-1.0197c1.1602-2.1414 5.6047-4.5272 23.378-4.3771 11.346 0.10747 20.272 2.4262 21.952 5.1775 2.3224 3.8037-3.2111 22.249-22.363 22.475-15.481 0.20017-26.311-17.104-22.969-23.274"/>
   <path d="m76.446 196.44c-8.3252-6.1318-26.564-4.737-32.601 5.1563l-1.3834-1.0736c6.5628-11.431 25.873-12.289 34.766-5.6682z"/>
   <path d="m25.209 235.53c-4.5099-1.6392-8.6176-11.086-6.6032-22.983 0.51924-3.0706 1.9105-2.8611 1.5315 0.23289-1.366 11.127 2.6012 19.436 5.8471 20.617 2.0029 0.733 6.6974-1.0159 11.042-6.888 1.8817-2.5435 2.9553-1.747 1.3141 0.94473-4.1212 6.7514-10.205 9.1332-13.131 8.0751"/>
   <path d="m0.91436 143.99c2.1317-1.6181 4.3617-3.1131 7.1323-4.4599l1.6912 1.4199c-3.4804 1.6431-7.3536 4.1423-9.8778 6.2991z"/>
   <path d="m-7.2071 181.13c1.2988-3.1322 2.5725-5.6277 4.152-8.2001-1.2122-2.3166-1.8394-4.1251-2.4704-6.7995l1.0948-4.1c0.56373 3.4689 1.7028 6.9631 3.1418 9.8626 0.48861 0.98705 0.51779 1.2468-0.0437 2.0953-2.201 3.3497-4.4116 7.7806-5.9028 11.879z"/>
   <path d="m8.289 231.03c-0.32161-2.4397-0.50393-4.4964-0.56373-6.9148-2.5147-1.0486-4.3809-2.2799-6.6206-3.9673l-1.6334-3.8864c2.5743 2.3069 5.897 4.3368 8.9852 5.6933 1.1256 0.49467 1.3122 0.7042 1.3507 2.1877 0.0751 2.9188 0.4062 6.2337 0.92158 9.139z"/>
   <path d="m166.82 244.67c-0.0219-6.5301-2.0798-16.16-3.8903-22.521-0.83888-2.9456-0.63885-3.2401 2.53-2.6936 9.9297 1.7162 18.011 1.9529 23.577 0.76574l-1.2564 2.3434c-4.885 0.9505-13.62 0.61378-22.886-1.1429 1.5622 5.1352 3.7672 15.852 3.8519 22.244z"/>
   <path d="m160.84 177.35c8.8948 3.5961 20.291 9.2679 27.467 14.193 2.6936-9.5969 2.3108-27.334 1.6201-36.68-5.697 6.0087-19.905 16.45-29.088 22.487m26.174 15.511c-7.4326-4.787-17.332-9.42-26.803-13.466-3.2497-1.3891-3.2613-1.8605-0.39089-3.7865 9.9934-6.7014 22.294-16.196 28.922-22.575 2.3186-2.23 2.7861-2.1242 3.1361 1.4064 1.1217 11.273 1.1044 27.86-1.7951 37.502-0.69646 2.3185-0.987 2.2587-3.0687 0.91969"/>
   <path d="m139.14 119.97c4.2732-3.8075 8.9928-9.5778 12.5-15.415l1.5411 1.7662c-3.2842 5.7894-8.481 11.987-14.153 16.983z"/>
   <path d="m135.2 132.72c7.6884 0.73693 19.61 3.0726 26.724 6.0992 1.0852-8.127 0.73882-22.836-2.1819-31.063l2.2954-0.68109c2.6282 9.3007 3.117 24.243 1.57 32.188-0.3639 1.874-0.64832 1.8413-2.3857 1.2102-8.0616-2.934-19.585-5.3238-27.615-5.5565z"/>
   <path d="m34.494 251.14c1.645 3.5999 1.4507 7.1593-0.38068 9.6797-3.2034 4.4078-15.15 4.2598-25.915-3.8864-12.949-9.8008-14.64-19.513-11.777-23.451 1.9913-2.7378 6.6995-3.571 13.303-1.2468l2.0991 2.8129c-7.5979-3.269-12.433-2.8186-14.061-0.58298-1.5681 2.1588-1.0505 11.017 11.879 20.8 10.984 8.3099 20.827 7.7135 23.166 4.4983 1.7932-2.4646 1.1872-6.4531-0.76763-9.5778z"/>
   <path d="m36.989 166.16c0 8.0309-2.4994 11.123-6.3358 11.123-3.1496 0-6.559-3.4614-6.559-11.179 0-8.2368 2.7955-11.232 6.559-11.232 3.9518 0 6.3358 4.3559 6.3358 11.288"/>
   <path d="m89.539 166.16c0 7.5595-3.061 10.973-6.9573 10.973-3.6422 0-6.8784-2.1972-6.8784-11.111 0-7.4229 2.5821-10.871 6.8784-10.988 3.9963-0.10805 6.9573 3.9982 6.9573 11.127"/>
  </g>
  <path d="m34.581 160.43c0 2.5223-2.0261 3.9289-4.0404 3.9289-2.1202 0-4.0385-1.3699-4.0385-4.0674 0-2.3415 1.6469-4.0115 3.9289-4.0115 2.2068 0 4.1501 1.722 4.1501 4.15" fill="#fff"/>
  <path d="m86.412 160.18c0.0583 2.4628-1.6046 3.9019-4.0404 3.9019-2.0721 0-3.8461-1.5046-3.8461-3.9847 0-2.0356 1.57-3.7634 3.7923-3.7634 2.2396 0 4.0443 1.6316 4.0943 3.8461" fill="#fff"/>
  <path d="m203.54 82.845c-0.99669-12.975-10.151-27.374-18.188-35.943l1.4604-0.87159c7.8634 7.6749 17.493 21.883 18.27 35.528z" fill="#0f141b"/>
  <path d="m133.41 242.71c8.5196 10.397 9.1544 20.264 2.7648 25.269-4.1309 3.2381-15.981 2.5917-24.316-7.5805-7.9461-9.697-7.7113-20.399-2.2895-24.841 4.3964-3.6016 15.065-3.5575 23.841 7.1516" fill="#fff"/>
  <path d="m239.16 35.456c-4.883-5.951-52.066-0.64453-78.813 32.756-6.961-11.896-22.599-28.082-25.842-28.011-5.014 0.10961-28.169 20.2-36.879 41.456-1.7893 4.3617 1.1678 7.2228 4.8389 4.506 8.2829-6.1338 20.536-14.13 29.342-19.265 5.695 17.014 19.403 40.657 24.391 41.435 4.5773 0.71577 30.726-10.94 51.636-29.18 20.167-17.593 33.612-40.908 31.324-43.698" fill="#bdbdb7"/>
  <path d="m207.83 79.159c20.167-17.593 33.614-40.908 31.324-43.698-3.5229-4.2924-29.057-2.7245-53.05 11.019 7.9884 8.0847 17.268 22.483 18.213 35.64 1.1832-0.96779 2.3568-1.9529 3.5132-2.9611" fill="#ffe850"/>
  <path d="m100.12 232.31c-11.313 3.948-21.784 1.5546-22.807-2.0318-1.087-3.7998 3.3171-12.895 11.005-17.222 7.9884-4.4964 20.712 16.144 11.802 19.254" fill="#fff"/>
  <g>
   <path d="m107.05 252.14c1.0081 2.7204 2.5724 5.52 4.8043 8.2445 8.3348 10.172 20.185 10.819 24.316 7.5805 3.7595-2.9456 5.064-7.5786 3.7865-13.006-16.731-22.18-32.25-15.673-32.906-2.8187" fill="#dcdddd"/>
   <path d="m203.09 75.127c-18.405 14.925-37.539 25.946-43.607 25.632-4.9004-0.2558-17.395-21.715-23.953-37.278-1.214-2.8802-2.0221-2.8995-4.7618-1.2852-10.734 6.3261-22.747 15.227-30.143 22.709-1.166 1.1794-0.85237 2.3608-0.16336 2.8264 8.7215-6.736 22.537-15.692 31.341-20.827 5.6949 17.014 19.405 40.657 24.391 41.435 4.3252 0.67531 27.901-9.6932 48.124-26.22-0.16555-2.305-0.60019-4.6504-1.2256-6.9918" fill="#949591"/>
   <path d="m239.16 35.456c-0.0511-0.06126-0.11377-0.12099-0.17284-0.181-6.6552 13.218-21.036 27.803-35.891 39.847 0.62498 2.3415 1.0601 4.6868 1.2256 6.9918 1.1832-0.96588 2.3569-1.9509 3.5133-2.9591 20.167-17.593 33.612-40.908 31.324-43.698" fill="#d6c044"/>
   <path d="m77.739 226.67c1.0005 3.3248 9.7989 6.734 21.721 5.0563-8.1424 4.3848-19.6 3.1322-21.863-0.72927-0.60821-1.037-0.75232-2.6456 0.14221-4.3272" fill="#dcdddd"/>
  </g>
  <g fill="#0f141b">
   <path d="m134.56 38.91c3.9885-0.08664 18.959 16.506 25.9 27.586 26.948-33.367 74.306-38.284 79.508-31.65 3.3342 4.2482-12.82 29.286-31.243 45.357-20.874 18.209-47.393 30.199-52.744 29.371-6.5859-1.0197-20.318-27.197-24.993-42.266l1.6566-0.86194c4.8774 15.79 19.754 40.105 23.768 40.632 4.6292 0.60411 30.276-11.331 50.48-28.954 21.742-18.969 32.553-40.553 31.442-41.965-4.206-5.345-50.87 0.38119-77.617 33.223-0.1269 0.1538-0.9024 0.09976-1.0005-0.07526-6.8668-11.983-22.695-27.86-25.229-27.81-4.1404 0.08066-27.035 19.536-36.221 40.418-1.2256 2.7841-2.4146 2.332-1.3064-0.50011 8.4792-21.665 31.621-42.374 37.597-42.504"/>
   <path d="m132.46 243.32c-8.5061-10.382-18.403-10.29-22.301-7.0958-5.1659 4.2328-4.6792 14.717 2.5089 23.49 8.0519 9.8278 19.267 10.461 22.946 7.5786 5.1774-4.0578 6.0201-12.775-3.1534-23.972m-21.51 17.776c-8.5657-10.455-7.5479-21.669-1.9625-26.245 5.1582-4.2251 16.416-3.5671 25.192 7.1439 8.3444 10.184 9.724 21.084 2.5435 26.71-4.8447 3.7998-17.453 2.5435-25.773-7.6095"/>
   <path d="m102.06 85.604c9.0352-6.9612 21.956-15.352 30.272-20.1 2.6666-1.5219 3.5825 0.08839 0.93317 1.6412-8.1521 4.7754-21.123 12.927-30.392 19.594-2.6975 1.9394-3.6017 1.012-0.81387-1.1352"/>
   <path d="m76.178 230.67c-0.95045-3.3228 2.0972-12.444 10.538-17.343 2.5993-1.5084 3.2477-0.39649 0.77347 1.3102-6.9612 4.8043-9.8914 12.658-9.1371 15.3 0.758 2.6456 8.9678 5.3718 20.272 1.9722 2.8706-0.862 3.2323 0.46359 0.41568 1.4795-10.715 3.8616-21.493 2.076-22.861-2.7185"/>
  </g>
 </g>
</svg>
