<?xml version="1.0" encoding="UTF-8"?>
<!-- Created with Inkscape (http://www.inkscape.org/) -->
<svg version="1.1" viewBox="0 0 376.15 393.45" xmlns="http://www.w3.org/2000/svg" xmlns:cc="http://creativecommons.org/ns#" xmlns:dc="http://purl.org/dc/elements/1.1/" xmlns:rdf="http://www.w3.org/1999/02/22-rdf-syntax-ns#">
 <metadata>
  <rdf:RDF>
   <cc:Work rdf:about="">
    <dc:format>image/svg+xml</dc:format>
    <dc:type rdf:resource="http://purl.org/dc/dcmitype/StillImage"/>
   </cc:Work>
  </rdf:RDF>
 </metadata>
 <g transform="translate(-783.41 -279.5)">
  <g transform="matrix(12.715 0 0 -12.715 933.57 336.87)">
   <path d="m0 0c0.373-0.235 2.044-0.944 2.683-1.181 0.303-0.112 0.596 0.221 0.446 0.513-0.54 1.05-2.738 3.344-3.389 3.344-0.517 0-1.666-1.238-2.115-1.865-2.432 2.957-8.724 4.064-9.263 3.372-0.384-0.494 1.688-4.962 8.391-7.326 0.298-0.105 2.844 2.766 3.247 3.143" fill="#bdbdb7"/>
  </g>
  <g transform="matrix(12.715 0 0 -12.715 933.57 336.87)">
   <path d="m0 0c0.373-0.235 2.044-0.944 2.683-1.181 0.162-0.06 0.321 8e-3 0.411 0.129-0.833 0.301-2.434 1.132-3.009 1.474-0.148 0.088-0.22 0.085-0.364-0.053-0.565-0.54-2.176-2.123-2.814-2.562-0.124-0.086-0.209-0.104-0.415-0.05-1.653 0.428-6.403 3.336-8.146 6.394-0.295-0.614 1.817-4.97 8.407-7.294 0.298-0.105 2.844 2.766 3.247 3.143" fill="#949591"/>
  </g>
  <g transform="matrix(12.715 0 0 -12.715 862.45 297.59)">
   <path d="m0 0c-2.661 1.204-5.679 1.564-6.045 1.094-0.287-0.369 0.797-2.952 4.152-5.222 0.203 1.334 1.016 3.151 1.893 4.128" fill="#ffe850"/>
  </g>
  <g transform="matrix(12.715 0 0 -12.715 838.38 350.08)">
   <path d="m0 0c0.04 0.262 0.104 0.542 0.186 0.831-1.691 1.186-3.438 2.752-4.354 4.359h-2e-3c-0.215-0.462 0.895-2.975 4.17-5.19" fill="#d6c044"/>
  </g>
  <g transform="matrix(12.715 0 0 -12.715 972.21 345.83)">
   <path d="m0 0c-0.582 1.154-2.766 3.212-3.3 3.212-0.502 0-1.802-1.421-2.158-1.945-0.258-0.38-0.379-0.311-0.173 0.1 0.284 0.564 1.678 2.177 2.331 2.181 0.582 4e-3 2.782-2.045 3.465-3.473 0.142-0.295-0.055-0.792-0.57-0.618-0.739 0.252-1.829 0.726-2.61 1.103-0.125-0.125-2.735-2.928-3.073-3.132-0.092-0.056-0.159-0.083-0.322-0.025-6.514 2.33-8.898 6.882-8.366 7.566 0.595 0.764 6.875-0.207 9.408-3.32l-0.147-0.201c-2.45 2.847-8.637 3.906-9.057 3.366-0.288-0.37 1.61-4.647 8.165-7.012 0.105-0.038 0.174-0.028 0.245 0.025 0.604 0.453 2.941 2.873 3.041 2.966 0.037 0.034 0.092 0.043 0.136 0.02 0.647-0.344 2.028-0.956 2.645-1.183 0.312-0.115 0.429 0.194 0.34 0.37" fill="#061922"/>
  </g>
  <g transform="matrix(12.715 0 0 -12.715 919.19 633.63)">
   <path d="m0 0c-4.481 1.228-8.106 4.766-8.106 10.063 0 7.692 6.383 13.29 13.646 13.29 6.669 0 13.297-6.559 13.162-13.341-0.114-5.749-2.867-8.694-7.343-10.037z" fill="#bdbdb7"/>
  </g>
  <g transform="matrix(12.715 0 0 -12.715 1147.2 562.24)">
   <path d="m0 0c-4.394-4.675-21.531-4.645-25.675 1.675 1.021-3.761 4.1-6.29 7.746-7.289l11.358-0.026c3.152 0.946 5.447 2.687 6.571 5.64" fill="#949591"/>
  </g>
  <g transform="matrix(12.715 0 0 -12.715 948.18 397.6)">
   <path d="m0 0c1.713-0.513 5.251-0.423 7.09 0.411l-0.018 8e-3 3.532-1.632c2.199-2.024 3.345-4.842 3.347-7.798 3e-3 -3.207-1.632-7.297-4.632-9.464-0.059-0.043 0.381 0.094 0.327 0.043 1.274-0.435 2.959-1.375 2.268-2.468-0.389-0.616-2.405-0.735-4.076 0.085-1.03 0.506-1.451 1.062-1.176 1.697-1.858-0.287-4.112-0.275-6.124-6e-3 0.308-0.457 0.034-0.915-0.288-1.214-1.024-0.951-3.614-1.52-4.488-0.956-0.734 0.473 0.041 2.25 1.668 2.759 0.042 0.013 0.332-0.064 0.375-0.052-2.642 2.877-4.151 6.618-4.096 9.67 0.042 2.313 0.847 4.572 2.404 6.837l-0.017-9e-3z" fill="#fff"/>
  </g>
  <g transform="matrix(12.715 0 0 -12.715 872.06 611.72)">
   <path d="M 0,0 C 0.052,0.701 0.156,2.084 0.144,2.34 -0.24,2.365 -1.951,2.532 -2.667,2.639 -2.169,1.811 -1.036,0.627 0,0" fill="#d6c044"/>
  </g>
  <g transform="matrix(12.715 0 0 -12.715 818.18 530.36)">
   <path d="M 0,0 C 0.605,0.695 1.991,2.341 2.694,3.23 2.361,3.729 0.931,4.781 0.25,5.248 -0.13,3.905 -0.453,1.114 0,0" fill="#5c513c"/>
  </g>
  <g transform="matrix(12.715 0 0 -12.715 1157.3 513.65)">
   <path d="m0 0c-0.467 0.658-1.384 1.762-1.786 2.282 0.29 0.264 1.007 0.933 1.356 1.414 0.26-0.489 0.542-2.871 0.43-3.696" fill="#5c513c"/>
  </g>
  <g transform="matrix(12.715 0 0 -12.715 1138.3 580.1)">
   <path d="m0 0c-0.463 0.034-1.005 0.046-1.281 0.065-0.135-0.54-0.26-1.456-0.313-1.996 0.682 0.439 1.488 1.387 1.594 1.931" fill="#d6c044"/>
  </g>
  <g transform="matrix(12.715 0 0 -12.715 869.07 383.54)">
   <path d="m0 0s-1.597-1.574-2.106-2.53l2.306 0.856c-0.115 0.262-0.293 0.933-0.2 1.674" fill="#ffe850"/>
  </g>
  <g transform="matrix(12.715 0 0 -12.715 1108.9 392.42)">
   <path d="m0 0-0.281-0.634 0.928-0.131z" fill="#ffe850"/>
  </g>
  <g transform="matrix(12.715 0 0 -12.715 1096 645.77)">
   <path d="m0 0c-0.489 0.471-1.293 0.851-1.978 1.085 0.054 0.051-0.386-0.086-0.327-0.043 1.256 0.907 2.271 2.152 3.029 3.527-4.597-1.712-11.896-1.797-17.096 0.04 0.661-1.297 1.52-2.554 2.553-3.679-0.043-0.012-0.333 0.065-0.375 0.052-0.66-0.207-1.18-0.622-1.515-1.073 1.192 0.427 4.163-0.365 3.566-1.244 0.301 0.153 0.566 0.326 0.769 0.514 0.322 0.299 0.596 0.757 0.288 1.214 2.012-0.269 4.266-0.281 6.124 6e-3 -0.275-0.635 0.146-1.191 1.176-1.697 0.1-0.049 0.2-0.094 0.302-0.136-0.307 1.148 2.358 1.734 3.484 1.434" fill="#d1d3d4"/>
  </g>
  <g transform="matrix(12.715 0 0 -12.715 1072.4 557.05)">
   <path d="m0 0c-0.363-1.284-3.035-2.034-2.472-0.281 0.293-0.729 2.36 0.494 2.472 0.281" fill="#d1d3d4"/>
  </g>
  <g transform="matrix(12.715 0 0 -12.715 940.83 559.42)">
   <path d="M 0,0 C 0.538,-1.332 3.178,-1.815 2.736,-0.083 2.138,-0.837 0.112,0.213 0,0" fill="#d1d3d4"/>
  </g>
  <g transform="matrix(12.715 0 0 -12.715 1063.3 632.95)">
   <path d="m0 0c4.847 1.606 7.062 4.645 7.168 9.962 0.131 6.584-6.23 13.204-12.96 13.204-6.991 0-13.452-5.409-13.452-13.151 0-5.714 4.1-8.762 7.934-9.99 0.41-0.131 0.377-0.258-0.043-0.16-3.958 0.924-8.276 4.296-8.276 10.146 0 8.639 7.23 13.42 13.837 13.42 7.227 0 13.489-7.076 13.362-13.474-0.107-5.362-2.593-8.797-7.515-10.121-0.384-0.103-0.482 0.022-0.055 0.164" fill="#061922"/>
  </g>
  <g transform="matrix(12.715 0 0 -12.715 875.62 581.66)">
   <path d="m0 0c-3e-3 0.061-0.051 0.111-0.112 0.115-0.386 0.025-2.195 0.182-2.868 0.287l0.199-0.272c0.73-0.098 2.019-0.242 2.509-0.28-8e-3 -0.376-0.067-1.381-0.115-2.028l0.232-0.181c0.073 0.983 0.165 2.123 0.155 2.359" fill="#061922"/>
  </g>
  <g transform="matrix(12.715 0 0 -12.715 854.27 488.4)">
   <path d="m0 0c-0.35 0.524-1.841 1.583-2.528 2.052l-0.054-0.255c0.693-0.479 1.876-1.383 2.251-1.857-0.671-0.843-1.806-2.242-2.442-2.98l0.035-0.328c0.603 0.694 2.018 2.324 2.732 3.227 0.033 0.04 0.035 0.098 6e-3 0.141" fill="#061922"/>
  </g>
  <g transform="matrix(12.715 0 0 -12.715 870.42 403.56)">
   <path d="m0 0c-0.575-0.176-1.35-0.474-2.006-0.764l-0.325-0.502c0.635 0.347 1.855 0.855 2.441 1.049z" fill="#061922"/>
  </g>
  <g transform="matrix(12.715 0 0 -12.715 1115.2 400.45)">
   <path d="m0 0c-0.217 0.068-0.461 0.086-0.682 0.102l-0.133-0.232c0.28-1e-3 0.723-0.059 1.089-0.181z" fill="#061922"/>
  </g>
  <g transform="matrix(12.715 0 0 -12.715 1137.1 484.82)">
   <path d="m0 0c0.353 0.326 0.826 0.819 1.152 1.227l-0.083 0.289c-0.329-0.46-1.09-1.126-1.402-1.411-0.047-0.043-0.053-0.113-0.014-0.163 0.135-0.175 1.518-1.838 1.826-2.269l0.019 0.381c-0.307 0.411-1.37 1.783-1.498 1.946" fill="#061922"/>
  </g>
  <g transform="matrix(12.715 0 0 -12.715 1122 577.47)">
   <path d="m0 0c-0.058 3e-3 -0.111-0.034-0.125-0.091-0.143-0.571-0.264-1.593-0.311-2.124l0.258 0.235c0.056 0.507 0.179 1.21 0.29 1.69 0.149 3e-3 0.82-0.011 1.067-0.027l0.143 0.218c-0.283 0.022-1.21 0.092-1.322 0.099" fill="#061922"/>
  </g>
  <g transform="matrix(12.715 0 0 -12.715 898.14 425.96)">
   <path d="m0 0c-0.652 0.167-1.33 0.563-1.688 1.012-1.018 1.278-0.834 3.34 0.701 4.407 1.533 1.067 3.278 0.525 4.22-0.716 0.505-0.666 0.752-1.672 0.639-2.601-0.134-1.099-1.922-2.601-3.872-2.102" fill="#fff"/>
  </g>
  <g transform="matrix(12.715 0 0 -12.715 1085 413.92)">
   <path d="m0 0c0.828 0.146 1.469 0.711 1.789 1.435 0.602 1.362-0.068 2.888-1.56 3.647-1.548 0.788-3.046 0.397-3.771-0.804-0.481-0.798-0.541-1.861-0.135-2.61 0.805-1.374 2.701-1.884 3.677-1.668" fill="#fff"/>
  </g>
  <g transform="matrix(12.715 0 0 -12.715 965.85 480.69)">
   <path d="m0 0c0.36 0.966 5.349 1.58 6.121 0.472 0.243-0.35-0.798-2.973-2.866-3.055-2.384-0.094-3.438 2.091-3.255 2.583" fill="#8d3103"/>
  </g>
  <g transform="matrix(12.715 0 0 -12.715 969.87 494.04)">
   <path d="m0 0c0.472-0.754 1.444-1.592 2.939-1.533 0.971 0.039 1.716 0.637 2.207 1.298-0.785 1.57-3.985 1.555-5.146 0.235" fill="#f3859b"/>
  </g>
  <g transform="matrix(12.715 0 0 -12.715 928.57 464.35)">
   <path d="m0 0c1.309-0.147 1.917-1.466 1.788-2.351-0.158-1.081-1.008-2.043-2.37-1.864-1.495 0.196-2.013 1.488-1.819 2.498 0.182 0.944 1.033 1.871 2.401 1.717" fill="#ffe850"/>
  </g>
  <g transform="matrix(12.715 0 0 -12.715 1072.3 459.08)">
   <path d="m0 0c1.045 0.318 2.254-0.229 2.564-1.487 0.238-0.963-0.056-2.034-1.171-2.441-1.154-0.422-2.379 0.258-2.698 1.395-0.305 1.089 0.197 2.196 1.305 2.533" fill="#ffe850"/>
  </g>
  <g transform="matrix(12.715 0 0 -12.715 1020.6 484.63)">
   <path d="m0 0c-1.531 0.517-3.251 0.096-3.987-0.74 0.093-0.149 0.336-0.457 0.469-0.605 0.455 0.779 1.931 1.531 3.518 1.345" fill="#c96f82"/>
  </g>
  <g transform="matrix(12.715 0 0 -12.715 926.14 407.39)">
   <path d="m0 0c0.195 1.085-1.143 2.41-1.755 2.248z" fill="#d1d3d4"/>
  </g>
  <g transform="matrix(12.715 0 0 -12.715 1074.9 373.87)">
   <path d="M 0,0 -1.011,-1.994 C -1.233,-1.21 -0.553,0 0,0" fill="#d1d3d4"/>
  </g>
  <g transform="matrix(12.715 0 0 -12.715 1084.6 412.48)">
   <path d="m0 0c0.788 0.159 1.405 0.711 1.696 1.415 0.54 1.303-0.134 2.698-1.526 3.391-1.441 0.716-2.863 0.402-3.561-0.717-0.462-0.739-0.528-1.712-0.162-2.442 0.18-0.359 0-0.437-0.199-0.089-0.447 0.782-0.378 1.838 0.117 2.67 0.751 1.262 2.337 1.72 3.977 0.906 1.509-0.75 2.257-2.434 1.605-3.888-0.328-0.734-0.981-1.311-1.902-1.449-0.326-0.049-0.426 0.126-0.045 0.203" fill="#061922"/>
  </g>
  <g transform="matrix(12.715 0 0 -12.715 895.66 426.56)">
   <path d="m0 0c-0.635 0.158-1.172 0.48-1.558 0.947-1.025 1.24-1.172 3.417 0.646 4.682 1.493 1.038 3.38 0.618 4.459-0.831 0.538-0.724 0.779-1.638 0.618-2.567-0.063-0.358-0.197-0.342-0.162 0.02 0.087 0.875-0.148 1.731-0.65 2.404-0.865 1.162-2.535 1.698-4.03 0.657-1.391-0.968-1.673-3.001-0.713-4.188 0.356-0.441 0.828-0.76 1.43-0.963 0.384-0.13 0.3-0.246-0.04-0.161" fill="#061922"/>
  </g>
  <g transform="matrix(12.715 0 0 -12.715 923.72 405.72)">
   <path d="m0 0c-0.313 0.414-1.216 1.571-1.467 1.896-0.183 0.239-0.154 0.299 0.1 0.139 0.436-0.275 1.271-1.366 1.515-1.957 0.12-0.292 0.029-0.313-0.148-0.078" fill="#061922"/>
  </g>
  <g transform="matrix(12.715 0 0 -12.715 1062.2 396.84)">
   <path d="M 0,0 C 0.17,0.563 0.545,1.332 0.853,1.702 1.006,1.885 1.09,1.837 1.007,1.614 0.825,1.121 0.472,0.36 0.165,-0.077 0.026,-0.276 -0.075,-0.249 0,0" fill="#061922"/>
  </g>
  <g transform="matrix(12.715 0 0 -12.715 952.22 427.02)">
   <path d="m0 0c0.551 0.07 1.008-0.446 1.126-1.478 0.102-0.887-0.131-1.582-0.745-1.658-0.513-0.064-0.968 0.278-1.133 1.407-0.178 1.218 0.289 1.67 0.752 1.729" fill="#061922"/>
  </g>
  <g transform="matrix(12.715 0 0 -12.715 952.45 429.33)">
   <path d="m0 0c0.246 0.057 0.545-0.113 0.609-0.445 0.054-0.275-0.092-0.588-0.435-0.647-0.275-0.048-0.569 0.124-0.603 0.454-0.031 0.292 0.125 0.568 0.429 0.638" fill="#fff"/>
  </g>
  <g transform="matrix(12.715 0 0 -12.715 999.96 450.35)">
   <path d="m0 0c7e-3 0.335 0.395 0.5 0.784 0.502 0.394 2e-3 0.789-0.163 0.789-0.489 0-0.275-0.373-0.422-0.755-0.435-0.407-0.014-0.824 0.124-0.818 0.422" fill="#061922"/>
  </g>
  <g transform="matrix(12.715 0 0 -12.715 987.42 448.95)">
   <path d="m0 0c1.021 0.606 2.228 0.656 2.943 0.21 0.265-0.166 0.201-0.281-0.082-0.146-0.742 0.355-1.885 0.227-2.783-0.211-0.211-0.103-0.296 0.018-0.078 0.147" fill="#061922"/>
  </g>
  <g transform="matrix(12.715 0 0 -12.715 1043.4 422.9)">
   <path d="m0 0c0.577 0.091 0.993-0.491 1.092-1.488 0.081-0.82 0.017-1.551-0.676-1.658-0.465-0.071-0.987 0.242-1.162 1.397-0.128 0.846-0.029 1.627 0.746 1.749" fill="#061922"/>
  </g>
  <g transform="matrix(12.715 0 0 -12.715 1044.3 425.31)">
   <path d="m0 0c0.291 0.015 0.525-0.203 0.548-0.506 0.018-0.225-0.125-0.511-0.45-0.552-0.285-0.036-0.555 0.161-0.585 0.482-0.028 0.305 0.201 0.561 0.487 0.576" fill="#fff"/>
  </g>
  <g transform="matrix(12.715 0 0 -12.715 967.29 481.22)">
   <path d="m0 0c-0.134-0.36 0.788-2.49 3.138-2.401 2.035 0.08 2.907 2.639 2.771 2.846-0.695 0.999-5.588 0.416-5.909-0.445m-0.226 0.084c0.398 1.066 5.47 1.738 6.333 0.498 0.224-0.321-0.673-3.174-2.963-3.264-2.453-0.099-3.576 2.211-3.37 2.766" fill="#061922"/>
  </g>
  <g transform="matrix(12.715 0 0 -12.715 969.53 492.6)">
   <path d="M 0,0 0.126,-0.172 C 1.153,0.989 4.297,1.142 5.07,-0.383 l 0.143,0.181 C 4.33,1.383 1.166,1.27 0,0" fill="#061922"/>
  </g>
  <g transform="matrix(12.715 0 0 -12.715 899.87 486.38)">
   <path d="m0 0c-0.194-1.005 0.398-2.194 1.691-2.363 1.106-0.146 2.026 0.556 2.2 1.749 0.13 0.889-0.416 2.062-1.648 2.227-1.079 0.145-2.035-0.533-2.243-1.613m1.66-2.602c-1.57 0.206-2.18 1.539-1.966 2.648 0.263 1.368 1.474 1.944 2.576 1.806 1.324-0.165 2.087-1.382 1.926-2.486-0.204-1.394-1.298-2.129-2.536-1.968" fill="#061922"/>
  </g>
  <g transform="matrix(12.715 0 0 -12.715 1072.7 460.54)">
   <path d="m0 0c-1.001-0.304-1.498-1.298-1.195-2.381 0.293-1.042 1.448-1.708 2.512-1.319 1.074 0.392 1.277 1.44 1.064 2.302-0.284 1.151-1.399 1.697-2.381 1.398m-1.492-2.467c-0.35 1.21 0.292 2.354 1.422 2.697 1.047 0.319 2.408-0.204 2.745-1.57 0.239-0.967-0.061-2.143-1.275-2.586-1.167-0.426-2.542 0.248-2.892 1.459" fill="#061922"/>
  </g>
  <g transform="matrix(12.715 0 0 -12.715 942.64 562.25)">
   <path d="m0 0c-0.245 0.234-0.177 0.339 0.098 0.14 0.64-0.462 1.71-0.795 2.305-0.251 0.558 0.511-1e-3 1.419-0.749 2.195-0.221 0.229-0.133 0.324 0.112 0.122 1.195-0.984 1.438-2.013 0.844-2.557-0.584-0.534-1.884-0.343-2.61 0.351" fill="#061922"/>
  </g>
  <g transform="matrix(12.715 0 0 -12.715 1040.6 568.39)">
   <path d="M 0,0 C -0.531,0.403 -0.137,1.882 0.262,2.471 0.468,2.776 0.611,2.692 0.431,2.37 0.244,2.035 -0.208,0.604 0.209,0.288 0.531,0.044 1.381,0.126 2.186,0.755 2.53,1.024 2.635,0.92 2.312,0.626 1.387,-0.218 0.407,-0.309 0,0" fill="#061922"/>
  </g>
  <g transform="matrix(12.715 0 0 -12.715 952.64 640.92)">
   <path d="m0 0c0.297-0.384 0.074-0.805-0.222-1.08-1-0.929-3.467-1.507-4.292-0.975-0.624 0.402 0.169 2.189 1.884 2.589l-0.502 0.139c-1.573-0.58-2.38-2.385-1.526-2.936 0.959-0.619 3.621-0.038 4.666 0.933 0.541 0.502 0.562 0.949 0.404 1.28z" fill="#061922"/>
  </g>
  <g transform="matrix(12.715 0 0 -12.715 1073.3 631.42)">
   <path d="m0 0-0.381-0.12c2.033-0.674 2.842-1.542 2.347-2.326-0.377-0.596-2.358-0.605-3.897 0.163-1.025 0.511-1.313 0.965-1.1 1.52l-0.332-0.047c-0.121-0.387-0.119-1.078 1.307-1.759 1.528-0.73 3.74-0.793 4.232-0.014 0.677 1.071-0.655 2.045-2.176 2.583" fill="#061922"/>
  </g>
  <g transform="matrix(12.715 0 0 -12.715 942.57 640.01)">
   <path d="m0 0c-0.435 0.093-0.408 0.263 0.031 0.188 2.232-0.385 5.901-0.384 7.711-0.035 0.532 0.102 0.567-0.06 0.04-0.184-2.04-0.478-5.426-0.473-7.782 0.031" fill="#061922"/>
  </g>
 </g>
</svg>
