<?xml version="1.0" encoding="UTF-8"?>
<!-- Created with Inkscape (http://www.inkscape.org/) -->
<svg version="1.1" viewBox="0 0 206 162.71" xmlns="http://www.w3.org/2000/svg">
 <g transform="matrix(.26458 0 0 .26458 -9.0936 -39.222)">
  <path d="m812.96 383.36-0.16003-0.15998z" fill="#fddfd4"/>
 </g>
 <path d="m181.41 136.23c0-1.7085-18.509-5.4102-19.078-5.9797-0.85426-0.28453-4.2712-4.8408-6.2645-7.973l-73.465 9.6815c-4.556 5.4102-14.522 12.814-27.051 15.661 3.7018 1.9932 12.529 3.1322 19.078 2.8475-1.7085 2.8475-3.417 5.9797-3.1322 6.5492 1.139 2.8475 19.078-2.278 24.488-4.8407 1.4237 1.7084 5.4102 9.3967 6.2645 9.3967 2.5628-0.56973 18.509-10.251 21.071-11.675 2.278 0 15.946 9.112 17.939 8.5425 1.7084-0.28454 3.417-6.5493 5.6949-10.82 1.4238-0.28453 21.641 1.4238 23.065 0 0.56973-0.28453-1.9932-3.417-4.2712-6.2645 6.2644-0.85425 15.661-4.2712 15.661-5.1255z" fill="#30363a" stroke-width="1.7797"/>
 <path d="m149.44 127.81c7.8465 2.6071 10.963 8.0162 16.269 13.028l10.581-2.9099 4.8938-1.984-0.26434-0.79358-12.235-3.7696-8.0022-1.7194-3.6373-5.6875-4.0341 1.2565z" fill="#232528"/>
 <path d="m90.574 146.48c1.139 0.28454 10.251-3.7018 14.807-5.9797 2.278-0.85426 3.1322-0.85426 4.8407 0.28452 3.1322 1.7085 7.973 3.7018 10.536 3.7018l-12.529-7.6882z" fill="#232528" stroke-width="1.7797"/>
 <path d="m156.35 115.45c-8.5424-14.522-19.363-29.899-30.468-37.017 7.1187-16.231 2.8475-39.011-9.3967-47.838-7.4034-5.4103-18.793-8.5425-25.058-9.112-15.376-16.515-32.461-21.641-35.878-20.502-5.695 1.7085-13.098 15.661-13.668 17.939-0.85419 2.8475-0.56973 4.8407-1.4237 7.1187-1.139 3.9865-2.278 5.4102-2.8475 7.973-0.85426 3.417 0.56973 9.112 2.278 8.8272 1.9932-0.28453 3.7018-5.4103 5.1255-7.1187 1.7084-1.9932 3.7017-2.5628 5.4102-4.556 0.85426-1.139 1.4237-3.417 2.5627-3.9865 0.85426-0.28453 2.8475-0.85426 5.1255-0.56973 0.85426 1.139 1.4238 2.278 1.7085 3.1322-13.668 9.3967-20.217 23.634-21.356 33.6-2.5627 0.85426-3.7018 4.556-5.695 5.6949-2.8474 1.4238-5.4102 0.85425-7.9729 1.4238-2.5628 0.85425-11.39 5.6949-12.529 6.8339-1.139 1.4238-0.85426 3.1323-2.5627 5.1256-3.7018 3.9864-8.2577 5.9797-8.5425 9.9661-0.56973 2.8475 1.4238 4.2713 2.5628 9.112 0.85426 3.7018 0.28453 5.1255 1.139 8.8272 0.56973 1.4237 1.139 2.5627 1.9932 4.2712 0.85426 2.8475 0.56973 3.9865 1.7085 5.9797 1.139 1.9932 5.1255 3.9865 5.9797 4.8407 0.85419 0.85426 3.9864 11.105 6.2645 11.105 1.4237 0 2.5627-12.529 0.85426-16.231-0.85426-1.7085-3.9865-3.7018-3.417-7.973 0.28453-1.7085 1.7085-3.417 1.9932-5.9797 0-1.7085-0.85426-4.5559 0.56973-6.2644 3.417-3.1322 7.973 0 10.82-1.139 4.8407-1.4238 3.9865-4.2712 11.105-6.5493 5.695 10.82 21.071 24.773 35.594 20.787-1.139 4.2712-1.9932 9.112-2.5627 14.522-5.4103 0.85427-14.237 2.8475-14.522 4.2712 0 0.56972 4.556 2.8475 11.105 8.8272l8.8272-6.834s2.5628 0 3.9865-0.28453c0.85426 3.7018 3.9865 12.244 5.4102 12.244 1.4238 0.28453 11.959-7.1187 17.654-9.112 1.9932 1.139 11.105 7.1187 12.529 7.1187 1.4237 0 9.112-10.536 11.105-13.383 4.8407 1.139 18.509 5.1255 19.363 5.1255 0.56972-0.28453 1.4237-7.6882 1.7085-10.251 1.4237-0.56973 2.8474-0.85426 4.5559-1.4238l4.556 6.2645 2.5627 0.56974c7.6882-3.7018 11.959-9.112 11.675-9.9662 0-0.85425-14.807-4.2712-19.932-5.4102z" fill="#efeaba" stroke-width="1.7797"/>
 <path d="m4.474 106.58 0.66121 4.4309 1.8517 4.3648 1.1904 4.5631 1.5872 2.3147 4.7616 3.1083 3.0422 6.8117 2.4469 4.2325 0.92583 0.52937 1.0581-2.976 0.59529-9.1264-0.92589-5.4229-3.0421-3.3728-0.59529-4.0342 1.9179-4.8938v-2.513l-4.3648 3.0421-1.1904 2.0502-1.7856 0.72746-2.9099 0.0673-1.8517-0.79358z" fill="#30363a"/>
 <g stroke-width="1.7797">
  <path d="m39.889 42.834c1.9932-0.28453 3.7018-5.4102 5.1255-7.1187 1.7085-1.9932 3.7018-2.5628 5.4102-4.5559 0.85426-1.1391 1.4238-3.417 2.5628-3.9865 0.85426-0.28453 2.8475-0.85426 5.1255-0.56973 0.28453 0.56973-2.5628-3.417-4.2712-4.8407-1.139-0.85426-2.278-0.56973-3.1322 0.85426-0.85426 2.278-1.139 5.1255-2.278 6.5493-1.7084 1.9932-5.1255 2.5627-5.9797 4.5559-0.56973 1.7085-1.4238 7.1187-2.5628 9.112z" fill="#c9c59d"/>
  <path d="m42.69 85.052c-0.80919-0.0269-1.6624 0.17354-2.5166 0.49372-1.9932 0.85426-4.8402 5.1256-9.9657 7.1188-2.8474 1.424-7.1201-1.4221-11.961 1.7101-3.9863 2.8475-5.6925 8.2566-4.5535 12.812 0.2509 0.81498 0.45471 1.5383 0.62556 2.2211l0.34036-0.18431 1.6849-1.9515 3.8488-2.4526c-0.22332-1.6878-0.6982-3.5869 1.4704-5.3217 3.1322-2.278 6.5497 1.1416 11.106-0.85163 2.278-1.139 4.8401-5.1282 9.9656-6.2672 6.2645 10.536 20.218 24.204 35.594 21.071 1.139-6.2645 4.5563-13.381 7.4038-18.506-1.9932 1.9932-3.4174 0.56973-3.702 0-10.251 7.4035-29.615 5.1251-35.879-7.4038-0.88984-1.7797-2.1134-2.4472-3.4621-2.4888z" fill="#c9c59d"/>
  <path d="m92.283 27.743c0 1.4237-0.56973 3.9865-0.56973 4.5559 0 0.56973 1.7085 0 1.7085-0.56973 0.28453-0.56973 0.56973-1.7085 1.139-2.8475-0.56972 2.5628-0.56972 3.7018-0.85425 4.8407 0 0.85426 1.4238 2.5627 1.7085 1.7085 0.28453-1.4238 0.85426-3.1323 1.9932-5.1255-0.56973 2.278-0.85425 3.9864-0.85425 5.9797 0 1.1391 1.7085 1.4238 1.9932 0 0.28453-1.7084 1.4238-5.1255 2.8475-7.9729-0.85426 4.2712-1.7085 9.3967-1.9932 11.39 0 0.28453 1.7085 0.56973 1.9932 0.28453 0 0.56973 1.7085 0.56973 1.7085 0.28453 0.28453 0.85426 1.9932 1.139 2.278 0.56973 0.28453-1.139 0.56973-2.278 1.139-3.7018 0 1.139-0.28453 2.8475-0.56973 3.7018 0 0.28453 3.417 0.28453 3.417-0.28453l0.28453-0.28453c0 0.28453 1.7085 0.56973 1.7085 0.28453 0.28452-0.85426 0.56972-1.9932 0.56972-2.5628 0 0.56973 0.28454 1.4237 0.28454 2.278 0 0.28453 1.7084 0 1.7084-0.28453 0.28452-0.85426 0.56973-1.4237 0.85426-2.278l-0.28453 1.4237c0 0.56973 1.9932-1.139 1.9932-1.4237 0.28453-1.4238 0.56973-4.2712 0.28453-5.695 0-0.56973-1.7085-0.56973-1.7085-0.28453-0.28452 0.28453-0.28452 0.56973-0.56972 1.139 0-1.139 0.28452-2.278 0.28452-3.417-2.278-1.4238-4.8407-2.8475-7.6882-3.9865-0.56972 1.4237-1.4238 3.1322-1.9932 4.8407 0.28453-1.9932 0.85419-3.7018 1.139-5.1255-1.4238-0.56973-3.1322-1.139-4.556-1.4237-0.56972 0.85426-1.139 1.9932-1.7084 2.8475 0.28453-1.139 0.56973-2.278 0.85419-3.1322-2.278-0.85426-4.8407-1.4238-6.8339-1.7085-1.139 1.7085-1.9932 3.7018-2.278 4.556-0.28453 0.85419-0.28453 1.4237 0.56973 1.4237z" fill="#d18200"/>
  <path d="m51.849 97.791c0.28453-0.28453 1.139-1.4237 1.9932-2.8475-1.139 1.139-2.5628 2.278-3.417 3.1322-0.28453 0.28453-1.7085-0.85424-1.4238-1.4237 0.56973-0.56973 1.9932-2.5628 3.417-4.556-1.4238 1.4238-2.8475 2.5628-3.7018 3.7018-0.56973 0.56972-1.7085-0.56974-1.4237-1.139 0.85419-1.139 1.139-2.278 2.278-3.9865-1.139 1.4237-2.5628 2.5628-3.417 3.417-0.28453 0.56972-1.4237-0.8542-1.139-1.139 0 0 0.85426-1.4237 2.278-3.417-0.85426 0.85426-1.9932 1.7085-2.5628 2.5627-0.56973 0.28453-1.139-1.7084-1.139-1.9932 1.139-1.4237 3.7018-4.8407 4.5559-5.9797-1.7084 1.4237-3.7017 3.417-4.8407 4.5559-0.28453 0.28453-0.85426-2.278-0.56973-2.5627 0.85426-1.139 2.278-2.8475 3.7018-4.556-1.4238 0.85426-3.1322 2.5628-3.7018 3.417-0.28453 0.28452-0.56973-2.5627-0.28453-2.8474 0.28453-0.56972 0.85426-1.139 1.139-1.7085-0.28453 0.28453-0.85426 0.56973-0.85426 0.56973-0.56973 0.28452 0-2.8474 0.85426-3.417 0.56973-0.85425 1.4237-1.4237 1.7085-1.7085 0.28453-0.28453 1.4237 0 1.4237 0.28452l-0.28453 0.56974 0.56973-0.28453c0.56973-0.28454 2.278 0 1.9932 0.28453-0.28453 0.28452-0.85426 1.139-1.4237 1.7085 0.85426-0.56973 1.4237-1.139 2.278-1.4237 0.28453-0.28452 2.5628 0.56973 2.278 0.85419-0.85426 0.85426-1.9932 1.9932-3.1322 3.417 1.7085-1.4238 3.1322-2.278 3.9865-2.8475 0.28453 0 1.7085 0.85426 1.4238 1.4237-0.85426 0.85425-1.7085 1.9932-2.5628 3.1322l1.7085-1.7084c0.85426-0.56972 1.9932 0.85426 1.4237 1.4237-0.85426 0.85426-1.7085 1.7085-2.5627 2.8475 1.139-0.85426 1.9932-1.4237 2.8474-1.9932 0.85426-0.28453 1.7085 0.85425 1.139 1.4237-1.139 1.4238-2.5627 3.1322-3.7017 4.8407 2.278-1.9932 4.2712-3.417 5.1255-3.9865 0.85426-0.56973 1.9932 0.85426 1.4237 1.7085-1.139 0.85425-2.5627 2.5627-3.9865 4.2712 1.4238-1.139 3.1322-2.278 3.7018-2.8475 0.28453-0.28454 0.56973 2.278 0.28453 2.5628-0.28453 0.28453-0.85426 0.85426-1.139 1.4237l0.85426-0.85425c0.56973-0.28452 0.85426 2.278 0.28453 2.8475-0.28453 0-0.28453 0.28452-0.56973 0.56973 0.85426 0.56973-0.85426 1.7084-1.9932 2.8475-0.85426 0.56972-1.9932 0-1.4238-0.85427-0.85419 0.56974-1.7084 1.4237-1.9932 1.7084-0.56973 0.56973-1.7084-0.56972-1.4237-1.4237z" fill="#d18200"/>
  <path d="m189.1 48.814c0.28452-9.112-15.376-20.787-21.071-19.648-3.1322 0.85426-23.634 44.136-21.926 48.692 0.56972 1.4237 8.8272 8.5424 12.244 11.105-4.2712 2.5628-9.112 5.695-9.112 7.1187 0 0.28454 5.9797 4.556 7.4034 5.695 0 0.56974-3.417 3.1322-5.9797 4.8408l4.2712 6.834c4.8407-3.1323 13.098-8.5425 13.098-9.3968 0.28453-1.139-4.5559-5.4102-6.8339-7.1187 5.1255-3.7017 10.82-7.1187 11.105-8.8272 0.56974-1.9932-5.6949-7.973-7.9729-10.251 5.4102-5.4103 24.773-27.905 24.773-29.044z" fill="#756550"/>
 </g>
 <g fill="#30363a" stroke-width="1.7797">
  <path d="m50.425 24.61c-1.139 0-2.278 0.85426-3.9865 0.56973-0.85426-0.28453-3.1322-2.278-4.8407-4.8407-0.28453 2.278-0.28453 3.7017-1.139 5.6949-1.139 3.9865-2.278 5.4103-2.8475 7.973-0.85419 3.417 0.56973 9.112 2.278 8.8272 1.9932-0.28453 3.7017-5.4102 5.1255-7.1187 1.7084-1.9932 3.7017-2.5628 5.4102-4.556 0.85426-1.139 1.4237-3.417 2.5628-3.9864-0.28453-1.9932-1.1391-2.5628-2.5628-2.5628z"/>
  <path d="m121.61 94.374c2.5628-1.1389 7.6882 10.251 5.1255 11.39-2.278 0.85426-7.4034-10.251-5.1255-11.39z"/>
  <path d="m103.67 99.214c2.278-0.85426 5.9797 11.675 3.1323 12.244-2.5628 0.85426-5.1253-11.39-3.1323-12.244z"/>
 </g>
 <g fill="#c9c59d" stroke-width="1.7797">
  <path d="m86.018 133.38c-0.56973-2.8475-3.1322-3.417-5.9797-3.417-4.8407 0.28453-18.509 1.4237-18.509 2.278 1.4237 0.85425 9.6814 6.834 10.82 8.8272 1.9932-1.7085 7.6882-5.9797 7.9729-6.834 1.1391 0 4.556 0 5.695-0.85426z"/>
  <path d="m90.574 145.34c0.56973-1.139 7.4034-7.1187 16.515-11.105 1.139-0.28453 1.7085-0.56973 2.5628 0.28453 4.2712 3.1322 10.82 7.4035 11.39 8.8272-0.85426 0.28452-12.814-6.5492-12.814-6.5492s-15.661 8.8272-17.654 8.5424z"/>
  <path d="m131.29 129.68c0.56972-0.85426 2.278-1.7085 3.7018-1.139 3.1322 1.139 14.522 5.1255 15.946 6.5492-1.7084 0.28453-16.231-3.7017-19.648-5.4102z"/>
  <path d="m153.22 123.13c0-1.9932 1.9932-3.417 4.8407-3.7018 3.7017-0.28452 15.946 1.4238 17.939 1.7085-1.139 3.1322-7.6882 8.2577-11.39 9.6815l-2.8475-0.56973-4.2712-6.2645-4.2712 1.139s-0.28452-0.56973 0-1.9932z"/>
 </g>
 <g fill="#232528" stroke-width="1.7797">
  <path d="m102.53 160.72c0.56972-1.139 15.376-12.814 20.787-13.383 2.8475-0.28452 17.085 7.973 17.654 10.536-1.7085 0-15.376-7.4034-17.654-7.973-4.5559 2.8475-19.363 11.959-20.787 10.82z"/>
  <path d="m130.15 133.1c1.7084 0.56974 17.085 3.7017 20.502 2.8474l-19.078-5.1255z"/>
  <path d="m86.018 136.23c-3.1322 1.4237-5.695 3.9865-7.6882 7.6882l-3.7017 6.8339s-14.807 0-18.509-3.1322c3.417 0.28452 9.3967 1.4238 12.529-5.1255 5.1255-2.5627 9.112-5.4102 11.675-8.2577l4.8407-0.56973z"/>
 </g>
 <g fill="#635442" stroke-width="1.7797">
  <path d="m168.31 104.06c-0.28453-0.28453-0.85425-1.4237-1.4237-1.7085-2.278 2.278-9.9662 7.6882-13.098 9.112l1.139 1.9932c4.5559-2.5627 11.675-7.6882 13.383-9.3967z"/>
  <path d="m160.62 97.221c-0.56972-0.85427 0-1.9932 1.4237-3.1322 1.139-1.139 9.112-6.2645 9.6815-7.973 0.28452 0.56974 0.85426 1.4237 0.85426 1.7085-0.28454 1.4237-9.3967 7.973-11.959 9.3967z"/>
  <path d="m146.1 76.719c1.139 1.4237 10.82 9.112 14.237 11.39l-1.9932 0.85427c-3.7018-2.278-12.529-9.6814-12.244-12.244z"/>
  <path d="m163.75 77.858c-0.28452-1.4237 0.28453-2.5628 1.4237-3.9865 3.417-4.2712 21.071-25.912 22.78-30.183 1.4237 1.9932 1.9932 4.556 1.4237 5.4103-1.9932 3.1322-19.648 24.204-25.627 28.76z"/>
 </g>
 <path d="m121.9 76.15c3.417-3.7018 5.9797-11.105 7.1187-17.654 1.4237 6.834-1.9932 17.37-3.1322 19.932z" fill="#c9c59d" stroke-width="1.7797"/>
 <g fill="#ab6a00" stroke-width="1.7797">
  <path d="m45.015 92.95c-0.28453 0.28453 0.85426 1.7085 1.139 1.139l2.5628-2.5627c-0.56973-0.56973-0.85426-1.139-1.4238-1.9932-1.4237 1.9932-2.278 3.417-2.278 3.417z"/>
  <path d="m49.001 96.652c-0.28453 0.56973 1.139 1.7085 1.4237 1.4237 0.85426-0.85418 1.9932-1.7084 3.1322-2.5627-0.85419-0.56973-1.7084-1.139-2.278-1.7085-1.139 1.4238-1.9932 2.5628-2.278 2.8475z"/>
  <path d="m51.849 97.791c-0.28453 0.85425 0.85426 1.9932 1.4237 1.4237 0.28453-0.28454 1.1391-1.139 1.9932-1.7084-0.56973 0.85425 0.56973 1.4237 1.4238 0.85425l0.85426-0.85425c-1.4238-0.56972-2.5628-1.139-3.9865-1.9932-0.85426 1.139-1.4238 1.9932-1.7085 2.278z"/>
  <path d="m49.001 91.811c-0.56973 0.85426-1.139 1.9932-1.7085 2.8475-0.28453 0.56974 0.85426 1.7084 1.4238 1.139l2.278-2.278c-0.85426-0.56972-1.4237-1.139-1.9932-1.7085z"/>
  <path d="m43.306 88.679 2.278-2.278c-0.56973-0.56972-1.4237-1.139-1.9932-1.139l-0.85426 0.85419c-0.28453 0.28453 0.28453 2.8475 0.56973 2.5628z"/>
  <path d="m45.869 87.255c-0.85426 1.139-1.7085 2.278-2.278 2.8475 0 0.28452 0.56973 2.278 1.139 1.9932 0.56973-0.85426 1.7085-1.4238 2.5627-2.5628-0.28453-0.56972-0.85419-1.139-1.139-1.9932z"/>
 </g>
 <g fill="#232528" stroke-width="1.7797">
  <path d="m45.015 35.716c1.7085-1.9932 3.7018-2.5628 5.4102-4.5559 0.85426-1.1391 1.4238-3.417 2.5628-3.9865-0.28453-1.9932-1.139-2.5628-2.5628-2.5628h-0.28453c-0.56973 1.7085-0.85426 3.417-1.7085 4.556-1.7084 1.9932-4.8407 2.5627-5.9797 4.5559-1.4237 2.8475-0.85419 5.1255-2.5627 9.112 1.9932-0.28453 3.7018-5.4102 5.1255-7.1187z"/>
  <path d="m103.67 104.62c-0.28453-2.8475 1.7085-3.9865 2.8475-1.139-0.28453-2.278-1.4238-4.556-2.8475-4.2712-1.139 0.28453-0.56973 4.8407 0 5.4102z"/>
  <path d="m122.18 98.93c-0.28453-2.5628 1.139-3.1322 2.5628-0.85427-0.56972-1.7085-1.7085-3.9865-3.1323-3.7017-1.4237 0.28453 0.28454 3.7017 0.56974 4.556z"/>
 </g>
 <g fill="#0f141b" stroke-width="1.7797">
  <path d="m165.46 77.858c5.1255-5.4102 24.773-27.051 24.773-28.76 0.28453-10.536-16.8-22.21-22.495-20.787-3.7017 0.85426-24.488 45.275-22.78 49.831 0.85424 1.7085 9.112 8.2577 12.814 11.105l0.85426-0.56973c-3.417-2.5628-11.39-9.9662-11.959-11.105-1.4238-4.556 19.363-46.129 21.641-47.268 4.8407-0.85426 19.932 9.9662 19.932 17.939 0 1.7085-18.793 23.349-24.204 29.044-0.56974 0.56974-0.56974 0.56974 0 0.85427 0.85418 1.139 7.6882 8.2577 7.4034 9.6815-0.28452 1.4237-9.3967 7.4034-10.82 8.5424-0.28452 0.28453-0.56972 0.56974 0 1.139 2.5628 1.7085 6.5493 5.695 6.5493 6.5493 0 0.28452-7.4035 5.6949-12.244 8.5424l0.56972 1.139c4.8408-2.8475 13.383-8.2577 13.383-9.3967 0.28453-1.7085-4.8407-5.695-6.8339-7.4034 1.9932-1.139 10.82-6.5492 11.39-8.5425 0.28452-2.5627-6.834-9.3967-7.973-10.536z"/>
  <path d="m158.91 88.394c-4.5559 2.278-10.536 5.9797-10.536 7.6882 0 0.56973 5.1255 4.2712 7.1187 5.9797-1.139 1.1391-3.1322 2.5628-4.8407 3.7018l0.85425 1.139c1.9932-1.4237 4.8407-3.417 5.6949-4.2712 0.28453-0.56972 0.28453-0.85426-0.28453-1.4237-1.7085-1.1391-5.1255-3.9865-6.5492-5.1255-0.56973-0.28452-0.56973-0.28452-0.28453-0.56972 1.4238-1.4237 5.4103-4.2712 9.6815-6.5492 1.4237-0.85426 0.85425-1.4238-0.85426-0.56973z"/>
  <path d="m156.92 63.906c1.9932-3.7018 9.6815-13.953 12.244-16.8 1.4237-1.4237 1.9932-1.139 0.56972 0.56973-1.9932 2.8475-8.8272 11.959-11.959 16.8-1.139 1.4237-1.7085 1.139-0.85426-0.56973z"/>
  <path d="m156.35 73.587c3.417-5.695 14.237-19.363 18.224-23.349 1.7085-1.9932 2.5627-1.4237 0.85426 0.56973-3.7018 4.2712-14.522 18.509-18.509 23.349-1.1391 1.4237-1.7085 1.139-0.56972-0.56973z"/>
  <path d="m177.14 120.86c-0.28452-1.7085-15.376-5.1255-20.502-6.2644-7.6882-13.383-19.648-30.753-31.892-37.587-3.417-1.7085-3.7017-0.85425-0.56973 0.85426 11.675 7.4034 23.349 24.488 31.038 37.587 0.28453 0.56973 0.56972 0.85427 1.1391 0.85427 5.4102 1.139 19.078 4.2712 19.078 4.8407 0.28453 0.56974-5.1255 5.9797-11.959 9.3968l2.8474 0.56972c6.834-3.7018 10.82-8.8272 10.82-10.251z"/>
  <path d="m117.06 29.736c-7.1187-5.1255-18.224-8.2577-25.343-8.8272-12.529-15.092-32.746-21.926-36.448-20.787-5.9797 1.7085-13.383 16.231-14.237 18.509-0.28453 1.7085-0.56973 5.9797-1.139 7.1187-0.85426 2.8475-2.5627 5.695-3.1322 7.973-0.85426 3.9865 0.85426 10.251 3.417 9.9662 2.278-0.28453 3.417-5.4103 5.4103-7.4035 1.9932-1.9932 3.9865-2.8474 5.4102-4.5559 1.139-1.139 1.4237-3.417 2.278-3.7018 1.4238-0.56973 2.8475-0.85426 5.1255-0.56973l-1.4237-1.7085c-1.139 0-3.1322 0.28453-4.2712 0.85426-1.4238 0.56973-1.9932 2.5627-3.1322 3.9865-1.4238 1.9932-3.417 2.8475-5.1255 4.8407-1.4238 1.4237-2.5628 6.5492-4.556 6.8339-1.4237 0.28453-2.278-4.5559-1.4237-8.2577 0.56973-2.5627 2.278-5.6949 2.8475-7.6882 0.28453-1.4238 0.85419-5.695 1.4237-7.1187 0.56973-2.278 7.6882-15.661 13.098-17.37 2.8475-0.85426 19.078 3.7017 34.739 19.932 0.28453 0.28453 0.56973 0.28453 1.139 0.56973 6.2645 0.85426 16.515 3.7017 24.204 9.112 11.959 8.8272 16.231 30.753 9.3967 46.414l1.4238 0.85425c7.4034-16.231 2.8474-39.865-9.6815-48.977z"/>
 </g>
 <path d="m20.159 104.58-4.5744 2.8607-1.2409 2.0682c0.58533 2.3712 0.7056 4.1656 0.48666 6.7955-0.28473 3.1322-4.2705 4.8382-6.2637 4.2685 0.85426 2.5628 4.5549 3.703 5.9787 4.842 1.4237 1.139 3.9892 11.96 6.2672 11.106 2.278-0.85425 1.7064-13.669 1.1366-15.378-0.28473-1.7085-3.4174-3.7018-3.7019-7.1188-0.56953-3.1322 1.4255-5.6957 1.9952-7.6889 0.07816-0.54733 0.0033-1.1398-0.08341-1.7553z" fill="#232528" stroke-width="1.7797"/>
 <g fill="#0f141b" stroke-width="1.7797">
  <path d="m60.391 29.736c-0.56973-2.5628-3.1322-5.695-5.1255-7.4034-1.9932-1.4238-2.278-0.85426-0.85426 0.85426 1.7085 1.7084 3.9865 4.2712 4.556 6.2645-14.807 10.251-19.932 22.78-21.071 33.031-2.5628 1.139-3.417 4.556-5.695 5.695-2.5627 1.4237-4.8407 0.85425-7.4034 1.4237-2.8475 0.56973-11.675 5.9797-13.098 7.4034-1.139 1.4238-1.139 3.417-2.5627 4.8408-2.5628 2.8475-8.5425 6.5492-9.112 10.536-0.28453 3.1322 1.9932 4.8407 3.1322 9.112 0.56973 3.417 0 5.1255 0.85426 9.112 0.56973 1.4237 1.4237 2.8474 1.9932 4.2712 0.85419 1.7084 0.56973 4.2712 1.7084 5.9797 1.139 1.9932 5.1255 3.9865 6.2645 5.1255 0.85426 1.139 3.9865 11.39 6.834 11.39 2.278 0 3.1322-13.953 1.7085-17.37-1.4238-2.5628-3.9865-3.417-3.7018-7.4035 0.28453-1.4237 1.9932-3.9864 2.278-6.2645 0-1.4237-1.139-4.2712 0.28453-5.6949 3.1322-2.8475 7.6882 0 10.536-0.85426 5.695-1.9932 3.9865-3.9865 11.39-6.2645l-1.139-1.9932c-7.1187 2.278-6.2645 5.1255-10.82 6.5492-3.1322 0.85427-7.4034-1.7084-10.82 1.7085-1.9932 1.7085-1.139 4.2712-1.139 6.5492-0.28453 2.278-1.7085 3.7018-1.9932 5.9797-0.28453 4.556 1.9932 5.695 3.417 8.2577 1.4237 3.417 0.85426 15.092 0 15.376-1.139 0.28453-5.1255-10.536-5.695-11.105-1.4237-1.4238-4.8407-2.8475-5.6949-4.8407-1.139-1.4238-1.4238-3.7018-1.9932-5.695-0.56973-1.7085-1.139-2.8475-1.7085-4.2712-1.139-3.7018-0.28453-4.8407-1.4237-8.8272-0.85426-3.9865-2.5628-6.2644-2.278-8.8272 0.56973-3.417 5.1255-6.2645 8.2577-9.3968 1.139-1.4237 1.4237-3.9865 2.5627-5.1255 0.85426-1.139 9.6815-5.6949 12.244-6.2645 3.417-0.85425 4.8407-0.28452 7.973-1.9932 2.278-1.139 3.1322-4.5559 5.4102-5.1255 0.56973-0.28453 0.56973-0.28453 0.56973-0.56973 0.85426-8.5425 7.973-24.488 21.071-33.6 0.28453 0 0.56973-0.28453 0.28453-0.56973z"/>
  <path d="m42.737 90.672c-1.139-2.278-2.278-1.7085-1.139 0.56972 5.6949 12.814 21.641 26.482 36.163 23.065l0.56973-2.278c-13.383 4.556-30.183-9.6815-35.594-21.356z"/>
  <path d="m86.303 92.95c-5.9797 9.112-9.9662 20.502-11.39 34.739l1.7084-0.28452c1.7085-13.953 4.8407-24.773 10.82-33.885 1.7085-2.8475 0.85426-3.1323-1.139-0.56974z"/>
  <path d="m82.886 93.804c1.139-2.278 0.28453-2.8475-0.85426-0.28452-1.4237 3.417-1.9932 6.5492-0.56973 9.6814l0.85419-2.278c-0.56973-2.278-0.56973-4.2712 0.56973-7.1187z"/>
  <path d="m77.191 127.12c-0.28453 0-16.231 1.9932-16.8 4.5559-0.28453 1.1391 3.7018 2.8475 10.82 9.3968l1.7085-1.139c-5.4103-4.8408-10.82-7.4035-10.536-7.973 0-0.85425 8.2578-2.8475 14.807-3.9865 3.9865-0.56973 3.7018-1.4238 0-0.85425z"/>
 </g>
 <path d="m146.18 148.23s0.93121-3.0017 2.7824-3.2267c0.84148-0.10226 1.419-0.12646 2.1124-0.0854 6.1189 0.3639 11.13 1.5291 18.779 2.354-1.2626 0.32756-9.0834 0.86428-9.0834 0.86428z" fill="#232528"/>
 <g fill="#0f141b">
  <g stroke-width="1.7797">
   <path d="m90.574 146.77c-2.278-0.28452-5.4102-9.112-5.9797-11.959-4.8407 0.28452-11.105-0.85426-14.237-1.4237-2.8475-0.56972-2.5627-1.7085 0-1.139 3.1322 0.85425 10.536 0.85425 15.092 0.56972 0.28453-0.28452 0.56973 0 0.56973 0.56974 1.139 4.2712 3.9864 11.675 4.8407 11.959 0.56973 0 11.39-7.4035 16.515-9.3968 0.85419-0.28453 1.139-0.28453 1.7084 0.28452 4.2712 2.8474 11.105 7.1187 11.675 7.1187 0.56973 0 5.9797-7.4035 10.251-13.383 0.28453-0.56973 0.56973-0.56973 1.4237-0.28453 4.2712 1.139 17.939 5.4103 18.224 5.1255 0.28453-0.28452 1.7085-7.1187 1.9932-10.251 0.28452-3.1322 1.139-2.8475 1.139 0.28452-0.28453 5.1255-1.4237 11.105-1.9932 11.39-1.139 0.28453-18.509-4.2713-19.648-4.556-3.7018 5.1255-9.9662 12.814-11.39 13.098-1.4238 0-8.2577-3.9865-12.529-7.1187-5.6949 2.278-15.946 9.112-17.654 9.112z"/>
   <path d="m164.04 121.99c-1.9932 0.28452-7.1187 1.139-10.82 2.278v1.9932c3.1322-1.139 8.8272-2.8475 11.105-3.417 3.9865-0.56973 3.7018-1.4238-0.28453-0.85425z"/>
   <path d="m102.25 162.71c-1.4237 0-5.1255-7.4034-6.5492-9.6815-5.1255 2.278-23.919 8.2578-25.343 4.2713-0.28453-1.4238 4.5559-8.8272 6.5492-11.675 1.7085-2.8475 2.278-2.278 0.85426 0.28453-0.85426 1.9932-5.4102 9.9662-5.4102 10.536 0.85419 1.9932 17.085-1.7085 23.349-5.1255 0.28453 0 0.56973 0 0.85419 0.28453 0.85426 1.4237 5.4103 8.5424 5.9797 8.5424 0.85425 0.28453 15.376-7.9729 19.932-10.536 0.85426-0.56974 0.85426-0.56974 1.7085-0.28454 3.7017 1.4237 15.376 8.2577 16.8 7.973 1.139-0.28453 3.9865-7.4035 5.1255-9.3968 0.28452-0.56972 0.56972-0.85419 1.139-0.85419 3.9865-0.28452 21.356 1.139 21.641 0 0.28453-0.28452-5.9797-7.6882-7.6882-10.251-1.4237-2.278-1.139-2.5628 0.56974-0.56974 2.278 2.278 10.251 10.82 8.8272 11.959-1.4237 1.4237-18.224-0.28454-23.065 0.28453-1.9932 4.2712-3.9865 10.536-5.9797 11.105-2.5628 0.56973-16.8-9.112-17.939-9.112-0.85426 0.28453-18.793 12.244-21.356 12.244z"/>
   <path d="m55.266 147.05c-1.139 0.28452-1.139 0.85425 0 1.139 3.9865 2.278 13.383 3.417 18.509 3.1322l1.139-1.7084c-5.4102 0.28453-12.814-0.28454-17.085-1.7085 9.3967-2.5628 18.509-7.973 24.204-13.668h-2.5627c-5.1255 4.8407-13.383 10.251-24.204 12.814z"/>
   <path d="m121.9 94.943c-0.56973 0.28452 0 2.5628 1.4237 5.695 1.1391 2.5627 2.8475 4.5559 3.1322 4.2712 0.56973-0.28453-0.28453-3.7018-1.139-5.4103-1.4237-2.5627-2.8474-4.8407-3.417-4.5559zm0 6.2644c-1.7085-3.417-1.7085-6.834-0.56973-7.4034 1.4238-0.56973 3.7018 1.4237 5.4103 5.1255 1.139 2.278 1.9932 6.5492 0.28452 7.4034-1.139 0.56974-3.7018-1.9932-5.1255-5.1255z"/>
   <path d="m103.96 99.784c-0.28453 0.28453-0.56973 2.5628 0.28453 6.2645 0.85425 3.1322 1.9932 4.8407 2.5628 4.8407 0.56972-0.28452 0.28452-3.417-0.28453-5.4102-0.85426-3.417-1.7085-5.9797-2.5628-5.695zm-0.56973-1.4237c1.4238-0.56972 3.7018 2.278 4.8407 6.8339 0.85425 4.2713 0 6.5493-1.139 7.1187-1.7085 0.28452-3.417-3.1322-4.2712-6.2645-0.85425-2.8475-0.85425-7.1187 0.56973-7.6882z"/>
   <path d="m50.425 24.041c-1.4237 0-2.5628 0.56973-3.7018 0.28453-1.139-0.28453-3.1322-1.9932-4.8407-4.5559l-0.28453 1.7084c1.7085 1.9932 3.7018 3.9865 4.8407 4.2713 1.4237 0.56973 2.8475-0.28453 3.9865-0.56973 1.139 0 1.7085 0.56973 1.9932 2.278l1.139-0.56973c-0.28453-1.9932-1.4237-2.8475-3.1322-2.8475z"/>
   <path d="m56.689 82.699c-1.139 0-0.85426-4.2712 0.28453-4.2712 2.278 0 10.251-0.56972 15.092-1.7085 0.85426-0.28453 1.139-0.56974 1.139-1.7085 0-3.417 0-12.529 0.28453-13.668 0-0.56973 0.28453-1.139 0.56973-1.4237 0.85426-0.56973 12.529-4.8407 13.383-5.4103 0-0.85426 0.56973-6.8339 0.85426-7.973 0-0.85419 0.56973-1.4237 1.4237-1.4237 1.1391-0.28453 7.1187-0.56973 9.3968-0.85426 0.56972 0 0.85425-0.56973 0.56972-0.85426-0.28452-3.1322-1.139-8.2577-1.4237-9.6814-0.28453-1.139 3.7018 0.28453 3.9865 1.4237 0.85426 1.9932 1.9932 8.5425 2.278 10.536 0 1.4237-0.56973 1.7084-1.9932 1.9932-0.85425 0-6.834 0.85419-9.112 1.139-0.28453 0-0.56973 0-0.56973 0.85426-0.28453 1.7084-0.85426 5.9797-0.85426 6.8339-0.28453 0.85426-0.56973 1.139-1.139 1.4238-0.85426 0.28453-9.3968 3.417-12.244 4.5559-0.56973 0-0.85426 0.56973-0.85426 1.139v14.807c0 0.85426-0.56973 1.4237-1.139 1.7084-6.2645 2.278-13.383 2.8475-19.932 2.5628z"/>
   <path d="m45.869 68.177c-1.7085-4.556-1.139-9.9662 2.278-12.244 1.139-0.28453 9.3967 1.4237 10.82 2.5627 2.8475 2.5628 3.417 7.6882 0.85426 10.82-2.5628 2.5628-6.834 3.7018-9.6815 0.85426-2.278-2.278-2.8475-8.8272-0.85426-10.82 1.139-1.139 7.1187 0 8.2577 2.278 1.1391 1.9932 0.85426 5.1255-0.56973 6.2645-0.85426 0.85425-2.5628 1.139-3.9865 0.28452-1.9932-0.56973-2.8475-3.9865-1.139-5.4102 0.56973-0.28453 1.4237-0.56973 2.8475 0 0.56973 0 0 1.7084-0.56973 1.4237-0.56973-0.28453-1.139-0.28453-1.139 0-0.85426 0.56973-0.56973 1.9932 0.56973 2.5628 0.85419 0.28453 1.9932 0.28453 2.5627 0 0.56973-0.56973 0.85426-2.8475 0-4.2713-0.85426-1.4237-5.1255-2.8474-5.695-1.9932-1.139 1.1391-0.85419 6.2645 1.1391 8.2578 1.9932 1.9932 5.1255 1.9932 7.1187-0.28453 2.8474-3.1322 1.9932-6.2645-0.85426-8.8272-1.7085-1.7085-7.1187-2.5628-9.112-2.5628-2.5628 1.7085-2.278 6.5493-0.85426 10.251 1.7085 4.8407 5.4102 6.834 8.5424 4.8407 1.139-0.85426 1.7085-0.28453 0.56973 0.56973-3.9865 3.9865-8.8272 1.139-11.105-4.556z"/>
   <path d="m54.981 73.018c-1.7085-1.139-4.5559-3.7018-6.834-6.2645-3.9865-4.2712-3.9865-5.1255-3.7017-5.4102 0.56973-1.4238 3.417-0.85426 8.2577 1.139-2.5628-2.5628-3.9865-4.8407-3.417-5.695 0.56973-1.4237 8.5425 3.1322 12.529 6.834 0.28453 0.28453-0.85426 1.4237-1.139 1.139-2.8475-2.8475-6.834-5.4102-9.112-6.2645 1.4237 1.9932 4.5559 5.6949 7.4034 7.973 0.56973 0.28453-0.28453 1.9932-1.139 1.7084-3.1322-1.7084-7.973-4.2712-10.251-5.1255 1.4237 2.5628 5.9797 7.6882 8.5424 9.6815 0.56973 0.28453-0.85426 0.56973-1.139 0.28453z"/>
   <path d="m90.574 26.888c-0.28453-3.417-5.695-4.2712-11.959-3.417-6.2645 0.85419-11.959 5.1255-10.82 9.3967 0.85419 4.5559 13.383 4.8407 18.793 1.4237 0.56973-0.28453 1.139-1.7084 0.56973-1.4237-6.834 3.7018-16.515 3.7018-17.654-0.56973-0.85426-3.7017 2.278-6.8339 8.5425-7.973 6.8339-1.139 10.536 0.56973 10.82 2.5628 0.28453 2.8475-1.7084 5.1255-6.5492 6.2645-5.1255 1.139-8.5425 0-9.6815-2.278-0.56973-1.4237-0.28453-4.2712 5.695-5.4102 3.7018-0.56973 7.6882 0.56973 7.973 1.7084 0.56973 1.4238-1.139 3.9865-5.695 4.2712-2.8475 0.28453-5.4102-0.56973-5.6949-1.4237-0.28453-1.139 1.139-2.278 3.1322-2.5627 2.8474-0.56973 5.4102-0.28453 5.6949 0.85419 0 0.85426-0.85426 1.4238-1.9932 1.7085-1.9932 0.56973-3.9865 0-3.9865-0.85426 0-0.28453 1.4238-0.56973 1.9932-0.28453-0.85419 0.56973-0.28453 0.85426 0.85426 0.85426 0.28453 0 1.4238-0.28453 1.4238-1.139 0-0.56973-1.9932-0.85426-2.8475-0.56973-1.9932 0.28453-2.8475 1.139-2.8475 1.4238 0 1.139 1.9932 1.9932 4.5559 1.7084 2.278-0.28453 4.556-1.4237 4.2713-2.5627 0-2.278-2.5628-2.5628-5.695-2.5628-2.8475 0.28453-5.9797 1.9932-6.2645 3.7018-0.28453 1.4237 2.5627 3.1322 6.5492 3.1322 5.695 0 8.5425-3.417 7.973-5.695-0.56973-2.278-6.2645-3.1322-10.536-2.278-4.2712 0.85426-7.1187 4.556-5.9797 7.1187 1.139 2.5628 5.1255 3.7018 11.39 1.9932 4.556-1.139 8.5425-3.7018 7.973-7.1187z"/>
   <path d="m79.469 35.716c-3.9865-0.56973-10.251-3.7018-11.675-5.1255-0.28453-0.28453 0-1.139 0.56973-1.139 0.85426 0.28453 5.1255 0.56973 8.2577 0.85426-1.9932-0.85426-5.6949-2.278-6.834-3.1322-0.28453-0.28453 0.85426-0.85426 1.4238-0.85426 0.85426 0 3.7018 0.28453 6.5492 0.28453-1.4237-0.56973-2.5627-0.85426-3.1322-1.139-0.85426-0.28453-0.56973-1.139 0.28453-1.139 2.8474 0 13.668 0.56973 15.092 0.85426 0.56973 0 1.139 0.85419 0.28453 0.85419-0.56973 0-5.9797 0-9.6815-0.28453 2.8475 1.4238 6.2645 2.5628 7.6882 2.8475 1.4237 0.28453 1.4237 1.139 0 1.139-1.139-0.28453-8.2577-0.85426-13.098-1.4237 3.1322 1.4237 6.5492 2.5627 9.6814 2.8475 0.85426 0.28453 0.56973 1.4237-0.28453 1.4237-1.139 0-8.5424-1.139-13.098-1.7085 2.278 1.139 5.9797 2.8475 8.2577 3.1322 1.4238 0.28453 0.85426 1.9932-0.28453 1.7085z"/>
  </g>
  <path d="m157.9 123.09-1.2349 0.66996s1.2182 2.2472 2.3647 4.0595c0.38273 0.60537 0.8106 1.4115 1.3137 2.1283 0.50314 0.71677 1.0787 1.4237 1.997 1.5765 3.0574 0.50851 10.985 2.0331 15.424 3.6128 0.88788 0.31614 1.5312 0.55897 2.0757 0.7882-3.5224 1.6978-7.8136 3.6389-14.189 4.8215l0.24955 1.3926c6.9167-1.2832 11.765-3.4454 15.41-5.2287 0.18094-0.0888 0.36053-0.19305 0.51256-0.43385 0.15201-0.24081 0.1547-0.64776 0.0404-0.88023-0.23005-0.46546-0.52803-0.56568-0.8671-0.73566-0.6785-0.34037-1.6558-0.6713-2.7588-1.0641-4.6654-1.6604-12.547-3.1476-15.66-3.6654-0.20382-0.0336-0.64776-0.37331-1.0772-0.98528-0.42983-0.61211-0.84693-1.4131-1.2744-2.0889-1.1058-1.7481-2.3253-3.9675-2.3253-3.9675z" color="#000000" stroke-width="6.7264" style="-inkscape-stroke:none"/>
  <path d="m20.335 104.35-0.23677 1.2875c-0.03364-6e-3 -0.08677-0.0135-0.1574-0.0538-0.03364-0.0202-0.12175-0.0821-0.11839-0.0787 0.0037 4e-3 -0.10762-0.1352-0.10493-0.13116 0.0046 6e-3 -0.09148-0.3518-0.09215-0.34171-1.35e-4 5e-3 0.0053-0.0854 0.01345-0.1184 0.0067-0.0336 0.02018-0.0605 0.02691-0.0786 0.06793-0.16412 0.06053-0.0955 0-0.0404-0.12444 0.11229-0.42915 0.34238-0.8145 0.59125-0.77105 0.49843-1.9128 1.1377-3.0479 1.7341-0.72195 0.37938-1.0137 1.0727-1.2612 1.6028-0.24753 0.53004-0.46345 0.9156-0.70944 1.0773-0.01345 0.0135-0.40964 0.16412-0.89334 0.24956-0.48363 0.0854-1.0885 0.15336-1.6816 0.18363-0.59327 0.0336-1.173 0.0269-1.6291-0.0135-0.45605-0.0404-0.57847-0.0538-0.70944-0.1184-1.0697-0.77777-2.144-1.863-2.9822-2.772-0.41906-0.45471-0.76062-0.86657-0.97217-1.1693-0.1056-0.15135-0.18498-0.27175-0.20986-0.32825-0.02691-0.0538 0.08004-0.0269-0.04036 0.24954l-1.0567-0.52532c-0.16883 0.39417-0.17892 0.6148-0.09821 0.80139 0.08273 0.18632 0.19372 0.35918 0.32825 0.55156 0.26906 0.38475 0.64574 0.83132 1.0904 1.3137 0.8897 0.96483 2.0481 2.0587 3.1267 2.9034 0.44664 0.34978 0.86192 0.34776 1.4057 0.39417 0.5435 0.0471 1.1728 0.0605 1.813 0.0269 0.64036-0.0336 1.2843-0.11229 1.8392-0.20987 0.55493-0.0982 0.99296-0.17085 1.3926-0.43384 0.66861-0.43924 0.92879-1.114 1.1693-1.6291 0.2408-0.51525 0.44932-0.8556 0.69632-0.98529 1.1634-0.61143 2.3138-1.2792 3.1398-1.813 0.413-0.26703 0.74589-0.49372 0.98536-0.70943 0.11973-0.10763 0.21928-0.17084 0.32825-0.43386 0.01346-0.0336 0.02691-0.0605 0.04036-0.10494 0.01345-0.0471 0.02691-0.15268 0.02691-0.15739 3.36e-4 -0.0135-0.10022-0.37333-0.10493-0.38073-0.0023-4e-3 -0.1278-0.1547-0.13116-0.15739-0.0037-4e-3 -0.09955-0.0807-0.14462-0.10495-0.0908-0.0471-0.15942-0.0673-0.22332-0.0786z" color="#000000" stroke-width="6.7264" style="-inkscape-stroke:none"/>
 </g>
</svg>
