<?xml version="1.0" encoding="UTF-8"?>
<!-- Created with Inkscape (http://www.inkscape.org/) -->
<svg version="1.1" viewBox="0 0 196 103.1" xmlns="http://www.w3.org/2000/svg">
 <defs>
  <clipPath id="clipPath6822">
   <path d="m0 612.3h790.24v-612.3h-790.24z"/>
  </clipPath>
 </defs>
 <g transform="translate(-7.1435 -37.629)">
  <g transform="matrix(1.1239 0 0 -1.1239 -628.56 623.94)">
   <g clip-path="url(#clipPath6822)">
    <g transform="translate(655.4 517.41)">
     <path d="m0 0c-6.491-5.369-11.568-25.269-11.568-35.738-10.228-2.106-18.047-6.384-23.847-13.055-4.819-5.542-9.485-13.939-11.224-21.24-2.154-0.991-11.46-6.635-13.313-8.574 2.844 0.043 13.873 0.905 17.32 1.465-0.991-1.982-1.723-5.041-1.594-6.764 2.284 0.301 12.538 3.791 14.476 4.567-0.129-2.241 0.216-4.093 0.517-5.3 2.456 0.302 10.944 2.671 13.701 3.748 2.197-1.507 8.272-4.093 10.556-4.825 0.172 0.776 0.086 2.327-0.173 4.093 2.758-0.862 8.273-1.336 10.771-0.517-0.603 2.111-2.757 5.342-4.997 7.712 0.474 2.887 0.56 6.592 0 10.599s-1.379 7.927-2.37 10.555c2.111-0.43 3.835-0.603 3.835-0.603-0.948 1.637-3.016 5.17-4.137 7.152 7.527-6.481 21.026-15.575 27.574-15.575 2.99 0 8.048 4.935 14.261 12.128-0.388-3.532-1.723-14.95-1.12-16.544s11.374-9.521 11.762-10.125c0.388-0.603 3.274-7.755 3.662-8.186 0.388-0.43 5.472-1.982 6.247-2.025 0.776-0.043 5.257 0.517 6.334 0.991-1.25 1.164-3.964 2.715-5.86 4.136-0.086 1.896-0.56 7.885-1.465 9.651-0.904 1.767-2.283 2.715-3.705 3.145-0.129 2.284-0.991 16.286-1.206 17.536-0.216 1.249-1.724 8.703-4.309 12.193 1.254 7.636-0.252 17.347-2.886 22.791 1.982 0.56 9.263 1.767 12.236 1.81 0.991-1.681 2.068-5.903 2.369-7.109 0.302-1.207 1.551-5.515 1.939-6.204 0.388-0.69 1.465-1.293 1.766-1.724 0.302-0.431 1.25-1.896 1.638-2.111 0.387-0.215 3.36-0.258 3.446-0.431 0.087-0.172 0.69-3.49 0.991-4.05 0.302-0.56 1.724-1.378 2.025-1.766 0.302-0.388 1.853-2.025 2.284-2.327 0.431-0.301 6.075-3.145 6.333-3.576 0.259-0.43 1.767-3.317 1.767-3.317 0.086 1.852 0.043 4.265-0.69 5.989-0.732 1.723-1.292 2.455-1.809 3.102-0.517 0.646-1.551 1.551-1.982 2.412-0.431 0.862-2.628 6.592-2.801 7.195-0.172 0.604-1.292 3.49-1.508 4.093-0.215 0.604-0.732 2.844-0.947 4.223-0.216 1.378-1.379 7.539-1.853 8.099-0.474 0.561-2.887 2.284-3.533 2.93s-2.714 4.696-3.748 5.687-3.145 1.939-4.395 2.887c-1.249 0.948-5.515 4.179-6.462 4.394-0.948 0.216-8.747 0.561-19.173-4.825-3.36 1.637-10.943 4.524-19.302 4.524-8.358 0-14.088-1.853-15.833-3.296" fill="#efeaba"/>
    </g>
    <g transform="translate(729.91 480.9)">
     <path d="m0 0c-0.776 0.646-2.068 4.912-2.327 5.816-0.258 0.905-2.972 0.905-3.791 1.034-0.819 0.13-4.868 11.116-5.773 13.357-0.521 1.288-4.653 5.687-6.894 6.548-2.24 0.862-7.582-2.757-11.202-3.274-3.619-0.517-11.029 2.24-14.303 2.757-3.275 0.517-13.787 0.517-22.404-3.619-11.753-5.641-13.781-27.411-17.406-29.642-2.241-1.378-14.304-5.342-18.268-8.961-3.559-3.249-6.118-7.393-8.617-16.889-0.694-2.637-1.723-8.531-2.353-13.043 3.661 1.15 7.898 2.62 9.074 3.09-0.129-2.24 0.216-4.093 0.517-5.299 2.456 0.302 10.944 2.671 13.701 3.748 2.197-1.508 8.272-4.093 10.556-4.825 0.172 0.775 0.086 2.326-0.173 4.093 2.758-0.862 8.273-1.336 10.771-0.517-0.603 2.111-2.757 5.342-4.997 7.712 0.474 2.887 0.56 6.592 0 10.599-0.56 4.006-1.379 7.927-2.37 10.555 2.111-0.431 3.835-0.603 3.835-0.603-0.948 1.637-3.016 5.17-4.137 7.152 7.527-6.481 21.026-15.575 27.574-15.575 2.99 0 8.048 4.935 14.261 12.128-0.388-3.533-1.723-14.95-1.12-16.544s11.374-9.522 11.762-10.125 3.274-7.755 3.662-8.186 5.472-1.982 6.247-2.025c0.776-0.043 5.257 0.517 6.334 0.991-1.25 1.164-3.964 2.715-5.86 4.136-0.086 1.896-0.56 7.885-1.465 9.651-0.904 1.767-2.283 2.714-3.705 3.145-1.551 2.413-2.973 16.157-3.188 17.406-0.216 1.25-1.81 8.014-2.327 12.322 1.254 7.637-0.252 17.347-2.886 22.792 1.982 0.56 9.263 1.766 12.236 1.809 0.991-1.68 2.068-5.902 2.369-7.108 0.302-1.207 1.551-5.515 1.939-6.205 0.388-0.689 1.465-1.292 1.767-1.723 0.301-0.431 1.249-1.896 1.637-2.111 0.387-0.215 3.36-0.259 3.446-0.431 0.087-0.172 0.69-3.49 0.991-4.05 0.302-0.56 1.724-1.379 2.025-1.766 0.302-0.388 1.853-2.025 2.284-2.327 0.431-0.301 6.075-3.145 6.333-3.576 0.259-0.431 1.767-3.317 1.767-3.317 0.014 0.302 0.022 0.622 0.027 0.949-0.891 2.807-2.04 4.33-2.311 4.781-0.388 0.646-6.462 4.524-7.238 5.17" fill="#c9c59d"/>
    </g>
    <g transform="translate(608.76 447.38)">
     <path d="m 0,0 c -2.628,-0.56 -11.03,-3.361 -13.011,-4.395 1.163,-0.775 3.403,-1.292 3.403,-1.292 1.207,0.905 4.093,2.757 5.472,3.533 C -2.757,-1.379 0,0 0,0" fill="#30363a"/>
    </g>
    <g transform="translate(608.76 447.38)">
     <path d="m0 0c-1.412-0.301-4.492-1.249-7.346-2.222-0.237-1.289-1.077-2.194-1.659-3.034 1.198 0.784 4.064 2.649 4.869 3.102 1.379 0.775 4.136 2.154 4.136 2.154" fill="#232528"/>
    </g>
    <g transform="translate(601.13 439.02)">
     <path d="m 0,0 c -0.689,-0.905 -1.68,-2.714 -1.81,-3.231 1.982,-0.043 8.402,0.56 12.279,1.335 0.345,1.12 1.164,3.145 1.164,3.145 C 8.918,0.948 0,0 0,0" fill="#30363a"/>
    </g>
    <g transform="translate(612.77 440.27)">
     <path d="m0 0c-2.714-0.302-11.633-1.249-11.633-1.249-0.27-0.355-0.586-0.848-0.879-1.349 5.981 0.682 9.088 0.706 9.692-0.844 0.585 0.095 1.144 0.194 1.657 0.297 0.344 1.12 1.163 3.145 1.163 3.145" fill="#232528"/>
    </g>
    <g transform="translate(618.28 435.53)">
     <path d="m 0,0 c 0,0 0.474,-2.283 0.689,-2.456 0.216,-0.172 5.084,1.207 6.808,2.241 0,1.206 -0.13,2.757 -0.13,2.757 C 5.773,2.025 0,0 0,0" fill="#232528"/>
    </g>
    <g transform="translate(640.17 431.99)">
     <path d="M 0,0 C 1.249,0.517 3.231,1.68 3.662,2.413 2.24,3.145 0.689,3.921 -0.302,4.524 -2.283,3.834 -4.61,3.188 -6.247,2.757 -5.385,2.068 0,0 0,0" fill="#232528"/>
    </g>
    <g transform="translate(656.37 432.99)">
     <path d="m0 0c-0.474 0.819-1.034 1.853-1.034 1.853s-3.188 0.344-5.084 0.948c0-0.776 0.215-1.896 0.215-1.896 0.69-0.259 5.171-0.905 5.903-0.905" fill="#232528"/>
    </g>
    <g transform="translate(604.8 446.32)">
     <path d="m0 0c-0.776 0.517-2.876 1.551-4.136 2.036 0.42 0.711 2.165 4.168 2.747 5.493-0.873 0.485-5.3 1.842-6.722 2.165 0.679 1.486 2.898 7.13 3.329 8.811-2.629 1.637-15.463 2.909-18.053 3.059-3.177 0.183-13.033 0.797-15.715 0.797 0.033-2.424 2.133-11.536 5.881-17.029 3.458 0.937 15.252 3.263 17.805 3.457-0.84-2.165-1.971-5.041-1.971-5.041 2.294-0.064 6.107-0.29 7.69-0.517-0.387-1.001-1.195-3.263-1.195-3.263 1.906-0.13 5.558-0.679 6.882-1.196" fill="#756550"/>
    </g>
    <g transform="translate(594.99 447.76)">
     <path d="m0 0c-0.285-0.785-0.531-1.473-0.531-1.473 1.906-0.129 5.558-0.679 6.883-1.196l1.597 0.568c-2.152 0.905-5.13 1.722-7.949 2.101" fill="#635442"/>
    </g>
    <g transform="translate(588.67 451.88)">
     <path d="m0 0c-0.408-1.04-0.71-1.81-0.71-1.81 2.294-0.065 6.107-0.291 7.69-0.517-0.042-0.109-0.09-0.236-0.141-0.37 0.15 0.119 0.332 0.219 0.454 0.392 0.795 1.126-1.538 1.82-7.293 2.305" fill="#635442"/>
    </g>
    <g transform="translate(569.99 455.49)">
     <path d="m0 0c0.637-1.375 1.35-2.688 2.136-3.84 3.458 0.937 15.597 3.199 18.149 3.393 1.616 2.649-8.697 2.866-20.285 0.447" fill="#635442"/>
    </g>
    <g transform="translate(735.21 481.02)">
     <path d="m0 0c0.352-0.625 2.197-2.327 2.456-2.887 0.258-0.56 1.637-3.36 1.766-4.782s0-3.361 0-3.361c-0.689 1.551-1.594 3.275-1.982 3.533-0.387 0.259-5.773 3.232-6.247 3.533-0.474 0.302-1.939 2.111-2.283 2.327-0.345 0.215-1.594 1.12-1.896 1.594s-0.991 4.05-0.991 4.05-3.145 0.301-3.447 0.431c-0.301 0.129-1.809 2.455-1.809 2.455 0.991-0.043 2.671-0.301 3.016-0.172 0.344 0.129 4.48 4.309 4.739 4.309 0.258 0 2.757-0.948 2.757-0.948 0.388-0.905 1.422-3.964 1.853-5.17 0.431-1.207 1.68-4.223 2.068-4.912" fill="#30363a"/>
    </g>
    <g transform="translate(729.91 480.9)">
     <path d="m0 0c-0.776 0.646-2.068 4.912-2.327 5.816-0.258 0.905-2.972 0.905-3.791 1.034-0.345-0.129-2.025 0.13-3.016 0.173 0 0 1.508-2.327 1.81-2.456 0.301-0.129 3.446-0.431 3.446-0.431s0.69-3.576 0.991-4.05c0.302-0.474 1.551-1.379 1.896-1.594s1.81-2.025 2.284-2.326c0.473-0.302 5.859-3.275 6.247-3.533 0.388-0.259 1.292-1.982 1.982-3.533 0 0 0.024 0.368 0.041 0.901-0.893 2.837-2.053 4.376-2.325 4.829-0.388 0.646-6.462 4.524-7.238 5.17" fill="#232528"/>
    </g>
    <g transform="translate(705.83 440.57)">
     <path d="m0 0c0.312-0.405 3.048-7.712 3.662-8.186s5.547-1.96 6.247-2.025c0.701-0.065 5.117 0.463 6.334 0.991-0.883 0.754-3.921 2.704-5.86 4.136-0.064 1.562-0.484 6.053-0.904 7.863-2.715 1.325-7.174 3.005-9.824 3.425-2.649 0.42-5.299 0.517-6.624-0.485 1.713-1.163 6.571-5.202 6.969-5.719" fill="#232528"/>
    </g>
    <g transform="translate(738.16 471.29)">
     <path d="m0 0c-0.334 0.87-0.73 1.652-1.031 1.899-0.342 0.279-5.694 3.083-6.088 3.378-0.459 0.344-2.188 2.302-2.356 2.421-0.081 0.058-1.517 0.903-2.092 1.823-0.412 0.659-0.821 3.787-0.916 3.931-0.12 0.061-2.977 0.038-3.457 0.388-0.445 0.323-1.347 1.877-1.504 1.975-0.473 0.296-1.674 1.135-2.072 2.01-0.347 0.762-1.828 5.816-1.965 6.846-0.116 0.868-1.499 5.255-1.966 6.142-0.939-0.024-4.501-0.344-6.388-0.687-1.355-0.246-4.309-1.017-5.396-1.164-0.227-0.03-0.852 1.338-0.612 1.373 0.216 0.03 4.119 0.543 5.735 0.837 2.192 0.399 6.646 0.782 6.962 0.666 0.969-0.355 2.429-6.243 2.536-7.051 0.125-0.934 1.731-5.804 2.032-6.468 0.269-0.59 1.142-1.37 1.643-1.683 0.332-0.208 1.273-1.735 1.576-1.956 0.254-0.184 3.313-0.216 3.63-0.586 0.248-0.289 0.637-3.569 0.944-4.06 0.47-0.752 1.729-1.555 1.821-1.62 0.237-0.169 2.001-2.033 2.4-2.333 0.343-0.257 5.712-3.193 6.089-3.501 0.513-0.419 1.039-1.534 1.424-2.62 0.149 2.578-0.827 4.742-1.954 6.714-0.236 0.412-1.975 2.28-2.318 2.829-0.7 1.119-2.78 6.636-3.027 7.623-0.147 0.588-0.582 1.629-1.003 2.636-0.286 0.686-0.583 1.395-0.793 1.973-0.471 1.298-0.714 3.429-0.875 4.7-0.247 1.948-1.416 6.375-1.701 7.04-0.187 0.437-2.834 2.402-3.267 2.835-0.64 0.64-1.373 1.897-2.082 3.112-0.49 0.84-0.953 1.633-1.315 2.099-0.583 0.75-1.881 1.545-3.025 2.246-0.517 0.316-2.181 1.459-2.737 1.874-1.549 1.152-4.433 3.298-5.231 3.476-3.259 0.724-12.863-1.047-18.543-4.597-0.206-0.128-1.408 0.761-1.202 0.89 5.606 3.503 16.242 5.625 20.034 4.782 0.908-0.202 2.959-1.98 5.467-3.846 0.548-0.408 2.167-1.52 2.671-1.829 1.209-0.741 2.579-1.58 3.26-2.456 0.398-0.512 0.875-1.33 1.38-2.195 0.649-1.114 1.385-2.375 1.945-2.935 0.387-0.387 3.383-2.305 3.663-2.96 0.232-0.541 1.379-5.85 1.556-7.432 0.129-1.155 0.392-3.302 0.829-4.503 0.203-0.559 0.495-1.258 0.778-1.935 0.453-1.084 0.881-2.109 1.044-2.762 0.266-1.062 2.312-6.397 2.92-7.37 0.298-0.478 2.152-2.318 2.438-2.818 1.092-1.911 2.019-4.196 1.976-6.85-0.052-3.256-0.728-3.193-1.837-0.301" fill="#0f141b"/>
    </g>
    <g transform="translate(649.87 431.31)">
     <path d="m0 0c-1.937 0.78-8.025 3.328-9.996 4.759-4.281-1.478-13.412-4.124-13.996-3.79-0.315 0.18-0.72 3.058-0.567 5.182-2.793-0.995-9.83-3.484-13.247-4.325-1.407-0.347-1.551-0.151-1.455 1.201 0.11 1.543 0.721 3.865 1.566 5.434-3.339-0.469-11.779-1.351-15.813-1.544-2.095-0.1-2.04 0.472-0.31 1.771 2.824 2.119 9.136 6.35 12.347 7.665 5.571 19.617 17.623 31.043 35.077 34.331-0.23 14.411 6.329 33.856 12.889 36.771 9.664 4.295 25.333 3.103 35.544-2.929 1.294-0.765 1.003-1.252-0.331-0.563-10.56 5.462-25.077 6.382-34.518 2.186-5.723-2.544-12.513-22.291-12.703-35.337-0.011-0.777-0.098-0.876-0.698-0.989-16.459-3.093-28.697-15.13-34.482-33.93-0.039-0.129-0.136-0.233-0.262-0.281-3.2-1.237-9.973-5.806-12.595-7.816 3.887 0.188 12.069 1.041 15.488 1.502 1.456 0.197 1.754-0.055 1.063-1.398-0.826-1.606-1.221-3.803-1.265-5.122 3.138 0.719 10.254 3.083 13.246 4.143 1.22 0.432 1.393 0.181 1.324-1.025-0.083-1.449 0.065-2.991 0.302-3.94 2.905 0.506 9.36 2.361 12.792 3.526 0.572 0.194 1 0.057 1.5-0.275 2.327-1.544 6.51-3.191 8.843-4.109 0.183-0.072 0.354-0.139 0.513-0.202-5e-3 0.988-0.147 1.985-0.317 2.83-0.251 1.244 0.164 1.431 1.29 1.039 2.636-0.915 6.891-1.067 9.427-0.562-0.63 2.096-3.045 5.18-4.706 6.95-0.242 0.259-0.304 0.382-0.207 0.883 1.092 5.639-0.838 16.645-2.147 19.897-0.516 1.283-0.407 1.603 1.143 1.235 0.637-0.151 1.576-0.372 2.176-0.477-0.691 1.226-3.49 5.992-4.556 7.458-0.091 0.124 1.379-1.111 1.569-1.376 0.738-1.03 2.598-3.663 3.535-5.3 1.054-1.842 0.977-1.964-0.912-1.608-0.465 0.088-1.108 0.233-2.014 0.447-0.059 0.014-0.118 0.028-0.176 0.042 1.873-4.528 3.54-14.043 2.224-20.592 1.4-1.493 3.914-4.446 4.848-6.778 0.479-1.196 0.347-1.56-0.77-1.753-2.766-0.477-7.184-0.226-9.881 0.761 0.174-0.845 0.415-1.935 0.44-2.948 0.031-1.297-0.16-1.472-1.222-1.044" fill="#0f141b"/>
    </g>
    <g transform="translate(715.44 429.97)">
     <path d="m0 0c-0.774 0.097-5.446 1.245-6.42 2.068-1.12 0.948-2.81 7.432-3.56 8.283-0.449 0.508-11.498 8.818-11.993 10.028-0.778 1.903 0.582 12.529 1.249 15.984 0.07 0.36 1.652 1.799 1.588 1.565-0.611-2.239-2.332-15.209-1.654-16.865 0.448-1.097 10.971-9.566 11.469-10.131 0.853-0.966 3.526-7.746 3.672-7.975 0.961-0.649 5.165-1.883 5.79-1.961 0.515-0.063 3.919 0.107 5.849 0.54-0.89 0.692-5.106 3.279-5.493 3.595-0.102 0.084-0.161 0.209-0.161 0.341 0 2.559-0.737 6.642-0.769 6.815-0.447 2.463-2.047 5.192-4.048 5.593-0.179 0.036-0.317 0.178-0.347 0.359-0.266 1.595-1.179 16.439-1.375 17.384-0.906 4.381-2.392 9.292-4.032 12.034-0.072 0.121-0.134 0.249-0.104 0.387 1.395 6.579-1.173 19.375-3.589 24.37-0.875 1.808-0.399 2.078 0.647 0.323 3.372-5.655 5.556-15.93 3.845-24.665 2.183-2.792 3.509-7.309 4.589-12.269 0.219-1.01 0.601-15.432 0.843-17.138 2.473-0.742 4.134-2.714 4.65-6.171 0.431-2.886 0.56-4.308 0.567-6.804 0.4-0.291 4.244-2.649 5.155-3.336 1.248-0.94 1.221-1.349-0.103-1.655-1.333-0.308-4.743-0.888-6.265-0.699" fill="#0f141b"/>
    </g>
    <g transform="translate(715.08 442.9)">
     <path d="m0 0c-6.393 3.262-13.652 4.687-15.801 3.199-0.201-0.139-0.685 0.605-0.485 0.743 2.419 1.674 9.429 0.485 16.174-2.87 0.137-0.068 0.176-1.104 0.112-1.072" fill="#0f141b"/>
    </g>
    <g transform="translate(720.15 488.62)">
     <path d="m0 0s3.08-0.553 3.736-0.292c0.328 0.131 4.072 4.144 4.536 4.202 0.654 0.084 1.848-0.596 2.731-1.104 0.23-0.133 0.365-1.25 0.16-1.121-1.214 0.758-2.369 1.282-2.729 1.229-0.399-0.081-3.85-3.943-4.319-4.131-0.681-0.273-1.444-0.259-3.316 0.2-0.143 0.035-1.038 1.059-0.799 1.017" fill="#0f141b"/>
    </g>
    <g transform="translate(598.69 441.31)">
     <path d="m0 0c-0.969 0.291-1.719 0.544-2.614 0.908-1.537 0.626-1.402 0.915 0.342 1.578 1.109 0.422 10.791 3.928 12.451 4.267 0.236 0.049-1.022-1.278-1.384-1.379-1.771-0.496-9.851-3.414-10.85-3.742 0.941-0.365 2.045-0.644 2.831-0.727 0.241-0.025-0.606-0.956-0.776-0.905" fill="#0f141b"/>
    </g>
    <g transform="translate(599.09 436.58)">
     <path d="m0 0c0.421 0.709 1.232 1.762 1.607 2.322 0.102 0.153 1.112 0.067 0.973-0.132-0.398-0.569-1.234-1.867-1.701-2.666 3.079 0.079 9.119 0.919 11.517 1.472 0.237 0.055 1e-3 -0.902-0.106-0.925-2.585-0.554-8.518-1.482-11.557-1.572-1.307-0.038-1.465 0.266-0.733 1.501" fill="#0f141b"/>
    </g>
    <g transform="translate(618.69 432.68)">
     <path d="m0 0c-0.255 0.157-0.715 1.859-0.812 2.685-0.01 0.089 0.864 0.466 0.864 0.223 0-0.281 0.231-1.334 0.483-1.99 1.947 0.219 4.99 1.372 6.218 2.109 0.208 0.125 0.32-0.832 0.247-0.873-2.355-1.304-6.523-2.448-7-2.154" fill="#0f141b"/>
    </g>
    <g transform="translate(639.44 431.7)">
     <path d="m0 0c-1.761 0.667-5.258 2.136-6.183 2.516-0.224 0.093 0.81 0.619 1.169 0.474 1.564-0.631 4.442-1.775 5.711-2.245 1.053 0.444 2.236 1.168 3.19 1.95 0.095 0.078 1.039-0.267 0.857-0.426-0.988-0.865-2.282-1.754-3.457-2.287-0.487-0.221-0.773-0.177-1.287 0.018" fill="#0f141b"/>
    </g>
    <g transform="translate(655.64 432.58)">
     <path d="m0 0c-1.63 0.161-3.929 0.539-5.068 0.91-0.158 0.052-0.25 1.053-0.03 0.95 0.737-0.343 3.307-0.796 5.124-0.98-0.338 0.4-0.684 0.801-1.013 1.094-0.182 0.161 0.954 0.304 1.136 0.104 0.105-0.114 0.342-0.391 0.583-0.673 1.09-1.272 0.817-1.558-0.732-1.405" fill="#0f141b"/>
    </g>
    <g transform="translate(600.66 444.9)">
     <path d="m0 0c-1.451 0.327-3.989 0.652-5.99 0.763-0.942 0.053-1.039 0.299-0.602 1.269 0.355 0.789 0.913 1.989 1.033 2.258-1.726 0.154-4.787 0.307-6.721 0.296-0.98-5e-3 -1.186 0.194-0.723 1.291 0.568 1.344 1.76 3.834 1.76 3.834-8.367-1.355-14.03-2.589-16.806-3.358-0.602-0.167-0.805-0.033-1.133 0.422-2.465 3.411-5.339 12.038-5.846 16.585-0.085 0.761 0.053 0.989 0.972 0.971 7.161-0.141 27.951-1.439 33.096-3.55 0.811-0.333 0.956-0.49 0.701-1.331-0.921-3.031-2.503-6.605-3.177-8.177 2.32-0.54 4.476-1.044 6.012-1.617 0.821-0.307 0.914-0.424 0.482-1.278-0.694-1.373-2.334-4.368-2.536-4.766 1.436-0.579 3.085-1.331 3.996-1.828 0.213-0.116-0.708-0.618-0.876-0.534-0.9 0.455-2.222 1.049-3.384 1.52-0.742 0.301-0.848 0.593-0.429 1.417 0.625 1.231 1.951 3.83 2.318 4.559-1.478 0.554-3.414 1.115-5.662 1.643-0.981 0.23-1.085 0.393-0.639 1.443 0.71 1.669 2.074 5.063 2.943 7.964-4.293 2.105-25.756 3.338-32.772 3.472 0.496-4.418 3.256-12.774 5.625-15.936 2.77 0.778 8.456 1.866 16.919 3.238 1.304 0.211 1.57 0.076 1.023-1.163-0.495-1.121-1.442-3.271-1.682-3.85 1.968-9e-3 4.857-0.238 6.583-0.389 1.013-0.089 1.168-0.233 0.759-1.228-0.372-0.905-0.737-1.953-0.846-2.197 2.166-0.129 5.243-0.72 6.678-1.142 0.233-0.068-0.862-0.649-1.076-0.601" fill="#0f141b"/>
    </g>
    <g transform="translate(587.56 461.96)">
     <path d="m0 0c-2.765 0.498-6.288 0.515-8.637 0.308-1.553-0.136-1.631 0.541-0.066 0.769 2.52 0.366 6.01 0.237 8.832-0.345 1.721-0.355 1.6-1.044-0.129-0.732" fill="#0f141b"/>
    </g>
    <g transform="translate(581.87 459.27)">
     <path d="M 0,0 C -1.939,0.196 -1.803,1.057 0.154,0.868 1.557,0.733 4.002,0.68 5.667,0.797 8.777,1.016 8.858,0.161 5.755,-0.079 3.967,-0.217 1.832,-0.185 0,0" fill="#0f141b"/>
    </g>
    <g transform="translate(672.75 486.91)">
     <path d="m0 0c-1.239 2.014 0.199 5.612 3.649 6.424 2.43 0.571 5.632-0.499 6.025-1.942 0.387-1.417-2.436-3.157-3.731-3.551-2.149-0.654-3.781-0.118-4.137 0.682-0.272 0.611 0.241 1.919 1.261 2.614 1.144 0.779 2.65 0.711 3.684 0.129 0.837-0.471 0.514-1.054-0.299-0.665-1.318 0.63-2.508-0.055-2.857-0.293-0.719-0.49-1.036-1.104-0.977-1.458 0.116-0.171 1.321-0.611 3.057-0.082 1.516 0.461 3.285 1.901 3.151 2.393-0.193 0.708-2.732 1.772-4.99 1.239-3.061-0.72-3.992-3.557-3.087-5.029 0.519-0.843 2.914-1.345 4.419-0.927 3.107 0.863 7.039 4.181 6.922 4.933-0.261 1.573-4.617 3.683-8.599 2.746-2.687-0.631-4.721-3.38-4.382-5.166 0.17-0.894-0.384-1.165-0.695-0.179-0.606 1.92 0.98 5.424 4.847 6.333 4.479 1.052 9.33-1.387 9.697-3.589 0.28-1.684-4.764-5.304-7.532-6.072-1.913-0.533-4.633 0.171-5.426 1.46" fill="#0f141b"/>
    </g>
    <g transform="translate(688.25 467.69)">
     <path d="m0 0c-0.785-0.632-1.112-0.236-0.298 0.438 0.454 0.377 1.309 1.179 1.204 1.301-0.1 0.115-1.132-0.492-1.807-1.046-1.394-1.145-2.405-2.417-2.261-2.618 0.141-0.196 2.315 0.62 3.988 1.804 2.212 1.568 3.001 3.157 2.838 3.384-0.299 0.414-2.63 0.211-4.884-1.53-2.494-1.926-3.688-4.414-3.437-4.787 0.361-0.536 3.972 0.375 5.724 1.543 3.054 2.036 4.668 5.105 4.093 5.679-0.907 0.907-4.806 0.182-6.998-1.541-2.728-2.144-4.695-5.556-4.047-6.389 0.624-0.804 3.491-1.283 7.587 1.175 3.337 2.002 5.35 6.503 4.885 7.781-0.363 0.999-5.618 0.992-9.129-1.642-1.772-1.328-3.645-3.547-4.262-5.149-0.429-1.116-0.876-0.994-0.474 0.172 0.646 1.874 2.369 4.199 4.265 5.622 4.237 3.177 9.721 2.808 10.289 1.247 0.622-1.711-1.65-6.603-5.183-8.722-3.984-2.39-7.636-2.118-8.557-0.934-1.139 1.464 1.746 5.508 4.173 7.416 2.25 1.767 6.657 2.795 7.969 1.482 0.761-0.759-0.337-4.227-4.204-6.807-1.409-0.938-5.64-2.455-6.667-1.427-0.642 0.643 0.445 3.481 3.525 5.861 2.384 1.843 5.175 2.283 5.895 1.419 0.102-0.123 0.214-0.343 0.168-0.694-0.127-0.975-1.45-2.556-3.146-3.756-1.526-1.082-4.305-2.339-5.016-1.772-0.65 0.52 0.954 2.564 2.401 3.75 0.817 0.67 2.573 1.692 3.128 1.139 0.095-0.095 0.142-0.224 0.133-0.365-0.042-0.681-1.895-2.034-1.913-2.048" fill="#0f141b"/>
    </g>
    <g transform="translate(674.7 486.44)">
     <path d="m0 0c1.966 0.702 4.289 1.774 7.179 3.318-1.779-0.418-3.804-0.888-6.241-1.453l-1.639-0.381c-0.291-0.072-0.553 0.701-0.286 0.826 0.441 0.208 1.21 0.62 2.184 1.141 1.409 0.755 3.293 1.764 5.172 2.673-2.939-0.442-7.037-1.1-8.625-1.453-0.318-0.069-0.51 0.788-0.19 0.859 1.9 0.422 7.357 1.276 10.2 1.688 1.901 0.276 1.876-0.552 0.271-1.285-1.914-0.875-3.965-1.95-5.595-2.82 2.2 0.511 4.044 0.94 5.686 1.33 2.687 0.637 2.891-0.038 0.534-1.329-3.427-1.876-6.113-3.142-8.354-3.942-0.164-0.059-0.639 0.705-0.296 0.828" fill="#0f141b"/>
    </g>
    <g transform="translate(686.43 463.53)">
     <path d="m0 0c1.614 1.21 3.242 2.47 5.17 4.267-1.995-1.314-4.55-2.923-7.809-4.577-0.253-0.128-0.599 0.483-0.364 0.635 1.691 1.091 4.94 3.449 8.336 6.314-2.683-1.619-6.105-3.611-9.215-5.166-0.292-0.148-0.642 0.418-0.39 0.616 1.613 1.267 5.603 4.252 8.39 6.33-1.24-0.625-2.575-1.329-3.825-1.989-1.668-0.88-3.108-1.64-3.957-2.017-0.369-0.164-0.666 0.505-0.298 0.669 0.827 0.368 2.257 1.122 3.913 1.996 2.497 1.317 5.328 2.811 7.114 3.516 0.279 0.109 0.595-0.456 0.353-0.635-0.611-0.453-4.493-3.334-7.669-5.726 3.612 2.016 7.066 4.163 8.808 5.246 0.27 0.169 0.677-0.362 0.443-0.58-2.115-1.961-4.346-3.816-6.345-5.376 1.296 0.808 2.411 1.552 3.367 2.19 0.675 0.45 1.283 0.856 1.835 1.205 0.257 0.164 0.67-0.343 0.461-0.562-3.21-3.363-5.559-5.203-7.878-6.943-0.143-0.106-0.678 0.408-0.44 0.587" fill="#0f141b"/>
    </g>
    <g transform="translate(656.71 487.53)">
     <path d="m0 0c-0.167 0.273-0.26 0.373-0.438 0.711-0.048-0.034-0.878-0.027-1.001 0.315-0.435 1.209-0.981 2.935-1.113 4.296-0.031 0.322 0.605 1.201 0.699 1.184-0.141 0.648-0.169 0.787-0.225 1.308-0.034 0.32 0.734 1.438 0.872 1.148 0.25-0.528 1.005-2.083 1.434-2.927-0.282 1.228-0.548 2.604-0.752 4.085-0.047 0.342 0.985 1.067 1.084 0.737 0.263-0.874 1.31-3.213 2.273-5.152-0.472 1.831-1.004 3.927-1.45 5.82-0.072 0.307 0.999 0.789 1.181 0.531 0.465-0.658 1.162-1.999 2.044-3.697 0.327-0.63 0.678-1.306 1.04-1.989-0.52 1.791-1.089 3.851-1.595 6.109-0.071 0.318 1.126 0.642 1.289 0.36 0.818-1.418 1.865-3.566 2.967-5.837-0.384 1.955-0.957 4.515-1.329 6.096-0.073 0.31 1.104 0.416 1.281 0.15 0.462-0.694 1.079-2.096 1.744-3.65-0.151 1.099-0.329 2.721-0.397 3.5-0.027 0.306 1.097 0.129 1.255-0.135 0.568-0.947 1.881-3.959 2.307-5.41 0.103-0.349-0.932-0.741-1.063-0.401-0.216 0.56-0.528 1.255-0.69 1.68 0.171-1.259 0.401-2.873 0.401-3.446 0-0.304-0.863-1.002-1.004-0.733-0.275 0.525-0.836 1.666-1.184 2.466 0.362-1.857 0.637-3.539 0.637-4.319 0-0.307-0.956-0.879-1.09-0.603-0.307 0.63-1.936 3.986-2.344 4.823 0.208-0.719 1.347-4.561 1.524-5.372 0.067-0.308-1.01-0.773-1.189-0.513-1.052 1.535-2.243 3.761-3.273 5.735 0.247-0.963 1.509-5.751 1.62-6.267 0.067-0.313-1.124-0.491-1.293-0.218-0.647 1.043-1.462 2.54-2.237 4.068 0.429-1.576 1.333-4.194 1.333-4.194-0.044-0.302-1.141-0.426-1.325-0.151-0.389 0.583-0.938 1.546-1.515 2.613 0.34-1.116 0.727-2.307 0.858-2.635 0.127-0.318-1.213-0.288-1.336-0.086" fill="#d18200"/>
    </g>
    <g transform="translate(656.94 493.57)">
     <path d="m0 0c-0.365 0.717-0.963 1.944-1.289 2.621-0.317-0.505-0.625-1.019-0.918-1.546 0.029-0.157 0.068-0.336 0.126-0.605-0.094 0.018-0.731-0.861-0.699-1.183 0.132-1.362 0.678-3.088 1.113-4.296 0.123-0.343 0.953-0.349 1.001-0.316 0.178-0.337 0.271-0.437 0.438-0.71 0.123-0.203 1.463-0.232 1.335 0.086-0.131 0.328-0.517 1.519-0.858 2.634 0.578-1.066 1.127-2.029 1.516-2.612 0.183-0.275 1.281-0.151 1.324 0.15 0 0-0.903 2.619-1.332 4.195 0.775-1.528 1.589-3.026 2.237-4.069 0.169-0.272 1.36-0.095 1.293 0.219-0.111 0.516-1.373 5.304-1.62 6.267 1.03-1.974 2.221-4.201 3.273-5.735 0.178-0.26 1.255 0.205 1.189 0.513-0.177 0.81-1.317 4.653-1.524 5.372 0.408-0.837 2.037-4.193 2.344-4.823 0.134-0.277 1.09 0.296 1.09 0.603 0 0.78-0.276 2.462-0.637 4.319 0.347-0.801 0.909-1.942 1.184-2.466 0.141-0.269 1.004 0.429 1.004 0.732 0 0.574-0.23 2.188-0.401 3.447 0.161-0.426 0.474-1.12 0.69-1.68 0.13-0.341 1.166 0.051 1.063 0.401-0.426 1.45-1.739 4.462-2.307 5.41-0.158 0.263-1.282 0.44-1.255 0.134 0.068-0.779 0.246-2.4 0.397-3.499-0.665 1.554-1.282 2.956-1.744 3.65-0.177 0.266-1.354 0.16-1.281-0.151 0.371-1.58 0.945-4.14 1.329-6.096-1.102 2.271-2.149 4.42-2.967 5.838-0.163 0.282-1.361-0.042-1.289-0.36 0.506-2.258 1.074-4.318 1.595-6.11-0.362 0.683-0.713 1.359-1.041 1.99-0.882 1.698-1.579 3.038-2.043 3.697-0.182 0.258-1.253-0.224-1.181-0.531 0.446-1.894 0.977-3.989 1.45-5.821-0.964 1.94-2.011 4.278-2.273 5.153-8e-3 0.027-0.031 0.037-0.051 0.051-0.33-0.424-0.648-0.86-0.955-1.31 0.193-1.282 0.426-2.482 0.674-3.563" fill="#ab6a00"/>
    </g>
    <g transform="translate(680.24 455.23)">
     <path d="m0 0c-0.302 0.718-0.66 1.41-1.03 2.083 0.043-0.362 0.085-0.724 0.126-1.084l0.077-0.654c0.03-0.255-0.89-0.489-0.986-0.25-0.2 0.501-0.407 0.955-0.617 1.376 0.021-0.15 0.039-0.299 0.053-0.45 0.022-0.241-0.841-0.508-0.959-0.295-0.326 0.586-0.628 0.978-0.904 1.295 0.017-0.129 0.065-0.493 0.081-0.61 0.034-0.238-0.596-0.401-0.759-0.227-0.243 0.259-0.911 1.063-1.049 1.34-0.127 0.254 0.523 0.758 0.656 0.703l-0.018 0.159c-0.027 0.244 0.718 0.677 0.863 0.48 0.226-0.306 0.34-0.452 0.674-0.81 7e-3 -8e-3 0.013-0.015 0.02-0.022-0.072 0.359-0.116 0.6-0.193 1.059-0.04 0.242 0.841 0.628 0.969 0.42 0 0 0.551-0.896 0.785-1.298-0.07 0.504-0.147 0.994-0.233 1.456-0.047 0.249 0.838 0.559 0.957 0.335 0.251-0.473 0.519-0.946 0.791-1.425 0.143-0.252 0.287-0.505 0.43-0.762-0.085 0.717-0.191 1.629-0.29 2.292-0.038 0.249 0.824 0.435 0.937 0.21 0 0 0.421-0.838 0.558-1.119-0.036 0.245-0.099 0.867-0.138 1.119-0.037 0.241 0.795 0.29 0.921 0.08 0.176-0.293 0.426-0.774 0.631-1.176-0.048 0.308-0.13 0.917-0.178 1.192-0.042 0.236 0.813 0.275 0.953 0.081 0.2-0.275 0.385-0.568 0.561-0.877-8e-3 0.095-0.069 0.545-0.077 0.635-0.017 0.225 0.826 0.178 0.967 2e-3 0.277-0.346 1.035-2.283 1.104-2.444 0.112-0.26-0.576-0.725-0.708-0.657 0.021-0.169 0.04-0.313 0.055-0.421 0.037-0.254-0.874-0.513-0.978-0.278l-0.064 0.148c-0.113 0.26-0.224 0.512-0.333 0.757 0.076-0.569 0.135-1.044 0.168-1.309 0.032-0.253-0.872-0.52-0.975-0.288-0.201 0.451-0.395 0.88-0.582 1.281 0.07-0.565 0.13-1.107 0.182-1.625 0.026-0.262-0.924-0.452-1.001-0.2-0.173 0.568-0.369 1.11-0.573 1.618 0.068-0.683 0.112-1.272 0.112-1.641 0-0.244-0.905-0.392-0.986-0.199" fill="#ab6a00"/>
    </g>
    <g transform="translate(678.04 458.1)">
     <path d="m0 0c-0.99 0.365-7.396 3.768-7.586 4.46-0.223 0.818 1.089 3.374 1.275 3.829-0.459 0.235-4.438 2.094-4.848 2.697-0.424 0.622 1.093 6.302 1.426 7.832-2.009 0.669-8.158 2.81-8.494 3.547-0.265 0.579 1.908 6.946 2.717 8.742 0.354 0.788 2.853-0.074 2.499-0.862-0.663-1.474-2.108-4.576-2.86-6.778 3.114-1.257 7.9-2.647 8.366-3.337 0.428-0.634-1.296-7.541-1.413-8.09 0.703-0.365 4.666-2.14 5-2.781 0.374-0.718-1.088-3.641-1.198-3.91 0.735-0.375 5.253-2.46 6.236-2.936 1.011-0.49-0.508-2.637-1.12-2.413" fill="#0f141b"/>
    </g>
    <g transform="translate(652.53 470.9)">
     <path d="m0 0c-1.256 1.208-0.773 1.666 0.543 0.502 12.082-10.681 25.236-16.185 28.419-15.622 4.335 0.764 14.724 12.894 17.331 16.773 1.057 1.573 1.589 1.174 0.583-0.49-3.232-5.342-13.032-16.659-17.751-17.492-4.821-0.845-19 6.592-29.125 16.329" fill="#0f141b"/>
    </g>
    <g transform="translate(637.82 453.68)">
     <path d="m0 0c-0.358 0.129-1.088-0.827-1.72-2.587-0.516-1.439-0.589-3.015-0.155-3.171 0.414-0.148 1.221 1.241 1.651 2.634 0.507 1.645 0.474 3.034 0.224 3.124" fill="#30363a"/>
    </g>
    <g transform="translate(637.37 452.31)">
     <path d="m0 0c0.221-0.079 0.272-1.182-0.073-2.577 0.111 0.268 0.213 0.548 0.3 0.829 0.508 1.645 0.474 3.035 0.224 3.124-0.358 0.129-1.087-0.827-1.719-2.587-0.103-0.287-0.188-0.579-0.255-0.864 0.581 1.43 1.201 2.19 1.523 2.075" fill="#232528"/>
    </g>
    <g transform="translate(647.91 452.43)">
     <path d="m0 0c-0.337-0.056-0.648-1.448-0.564-3.172 0.083-1.717 0.535-3.071 0.952-3.051 0.337 0.016 0.673 1.282 0.526 3.195-0.122 1.582-0.597 3.08-0.914 3.028" fill="#30363a"/>
    </g>
    <g transform="translate(648 451)">
     <path d="m0 0c0.283 0.047 0.69-1.139 0.862-2.517 0 0.287-0.01 0.594-0.035 0.922-0.121 1.581-0.596 3.08-0.914 3.028-0.336-0.056-0.648-1.448-0.564-3.172 0.014-0.293 0.04-0.574 0.073-0.841 4e-3 1.44 0.281 2.531 0.578 2.58" fill="#232528"/>
    </g>
    <g transform="translate(637.68 453.4)">
     <path d="m0 0c-0.169 0.046-0.744-0.785-1.323-2.399-0.507-1.41-0.544-2.727-0.327-2.805 0.199-0.072 0.878 1.065 1.303 2.441 0.431 1.397 0.543 2.71 0.347 2.763m-1.888-5.925c-0.781 0.28-0.508 2.349-0.011 3.734 0.888 2.473 1.737 3.085 2.196 2.921 0.631-0.227 0.371-2.279-0.059-3.674-0.504-1.633-1.408-3.239-2.126-2.981" fill="#0f141b"/>
    </g>
    <g transform="translate(647.93 452.08)">
     <path d="m0 0c-0.172-0.01-0.377-1.378-0.308-2.8 0.074-1.542 0.414-2.781 0.646-2.759 0.22 0.022 0.407 1.225 0.281 2.869-0.1 1.294-0.409 2.703-0.619 2.69m-0.922-2.831c-0.069 1.408 0.091 3.625 0.843 3.669 0.535 0.031 1.112-0.91 1.31-3.479 0.159-2.082-0.193-3.675-0.836-3.705-0.554-0.028-1.204 1.181-1.317 3.515" fill="#0f141b"/>
    </g>
   </g>
  </g>
 </g>
</svg>
