<?xml version="1.0" encoding="UTF-8" standalone="no"?>
<!-- Created with Inkscape (http://www.inkscape.org/) -->

<svg
   version="1.1"
   viewBox="0 0 133.89 167.1"
   id="svg642"
   sodipodi:docname="778-3.svg"
   inkscape:version="1.2.2 (b0a8486, 2022-12-01)"
   xmlns:inkscape="http://www.inkscape.org/namespaces/inkscape"
   xmlns:sodipodi="http://sodipodi.sourceforge.net/DTD/sodipodi-0.dtd"
   xmlns="http://www.w3.org/2000/svg"
   xmlns:svg="http://www.w3.org/2000/svg">
  <defs
     id="defs646" />
  <sodipodi:namedview
     id="namedview644"
     pagecolor="#505050"
     bordercolor="#eeeeee"
     borderopacity="1"
     inkscape:showpageshadow="0"
     inkscape:pageopacity="0"
     inkscape:pagecheckerboard="0"
     inkscape:deskcolor="#505050"
     showgrid="false"
     inkscape:zoom="1.9973333"
     inkscape:cx="65.58745"
     inkscape:cy="74.098798"
     inkscape:window-width="1320"
     inkscape:window-height="734"
     inkscape:window-x="8"
     inkscape:window-y="25"
     inkscape:window-maximized="0"
     inkscape:current-layer="svg642" />
  <path
     d="m 77.72,20.296 c -3.122809,0.297394 -20.854942,14.741618 -27.285064,24.872401 -6.164477,-1.227322 -18.513188,2.22075 -24.31395,6.714815 -1.212505,-1.605502 -2.459582,-3.548967 -3.656565,-5.650125 L 15.978914,31.137282 c -0.300569,-1.141596 -0.507298,-2.185825 -0.599373,-3.091764 0.678396,-2.324467 2.200288,-3.968775 2.445823,-5.11531 0.194735,-0.907703 -0.37818,-2.740748 -0.188737,-4.4415 0.214138,-1.930412 1.701811,-3.466063 1.84257,-4.063673 0.18909,-0.80328 -0.04727,-3.118222 0.944745,-6.0480601 0.237421,-0.7002683 1.429817,-2.2740199 2.844465,-3.1305697 2.461346,-1.4908483 3.397624,-3.5711919 2.867749,-4.2146627 -1.716981,-2.0863409 -9.732848,4.1105926 -11.500628,5.1855133 -0.53164,0.3227937 -1.09503,1.7155691 -1.664416,2.3922011 -0.554571,0.6586403 -1.629844,1.0399955 -2.080344,2.3576291 -0.578559,1.692638 -0.55457,3.778979 -1.1532379,4.950561 -0.3446661,0.674163 -2.7153477,3.315427 -3.6861982,4.389995 -0.5034171,0.557392 -1.1853408,0.521056 -1.6880523,1.041759 -1.101732,1.141596 -2.519202,4.483128 -2.6402055,6.178589 -0.113948,1.589979 1.3726669,3.028264 1.0548122,6.564177 -0.2772851,3.08612 -1.7681334,5.301226 -2.04541848,7.211529 C 0.3041929,44.256818 2.9973154,56.409383 4.16537,60.337236 5.0406172,63.282596 7.4800909,67.684937 9.1801377,72.51626 9.936498,74.665748 8.1852981,91.22383 11.647834,98.149607 16.044178,106.9423 25.061235,110.52725 39.682908,111.974 l 0.610309,0.009 c -0.905586,0.72849 -2.04683,1.71168 -2.04683,2.07117 0,0.54434 1.382545,1.64783 1.98086,2.07999 -5.223613,4.12364 -14.067455,20.1261 -16.392275,27.63396 -5.893543,1.33704 -21.4299742,7.98341 -20.9484295,9.50813 0.2839879,0.89888 12.4806505,2.0754 19.6262095,1.09291 -1.246372,2.01684 -4.509234,7.43943 -3.431844,8.31679 1.005071,0.8188 12.627408,-2.92243 20.056955,-4.85355 0.693212,0.89218 7.577008,6.43824 8.022569,6.43824 0.445562,0 10.399602,-6.04207 12.034032,-7.08171 1.188868,0.89183 12.331425,9.35961 12.827081,9.16205 0.495303,-0.19861 3.548966,-11.20465 3.986766,-13.39364 15.56289,3.58212 25.686969,3.24098 25.974489,2.25073 0.29492,-1.01671 -11.244865,-8.90805 -16.786686,-10.97604 -2.262378,-16.19084 -7.62287,-34.42745 -11.639624,-42.75694 2.546719,-3.133743 9.652414,-16.428963 9.50848,-21.443731 -0.15099,-5.2663 -6.807596,-16.156971 -12.495468,-22.334502 2.292365,-5.710802 7.249276,-16.191543 11.727818,-21.51958 l 0.347489,-0.316443 c 2.109271,0.73096 3.135156,0.778585 5.343911,-1.395245 1.578338,1.352911 14.79312,-0.0314 15.12509,-1.233672 C 104.21413,29.243912 85.287131,19.57527 77.72,20.296"
     fill="#efeaba"
     id="path430"
     style="stroke-width:0.35278" />
  <path
     d="m 81.89,21.156 4.3529,2.0623 0.98954,1.874 -1.0548,2.4603 -0.77293,2.5308 0.0131,4.2213 -2.0514,1.9643 h 2.1788 l 2.4398,-1.8041 5.5735,0.81985 c 0,0 9.2618,-1.0146 9.5515,-2.0535 0,0 1.2033,-2.5859 -7.3724,-6.9437 -8.5757,-4.3582 -12.02,-6.537 -13.848,-5.1315"
     fill="#30363a"
     id="path434" />
  <path
     id="path3885"
     style="opacity:1;fill:#c9c59d;fill-opacity:1;stroke:none;stroke-width:1px;stroke-linecap:butt;stroke-linejoin:miter;stroke-opacity:1"
     d="m 85.201172,33.375 c -1.134295,0.01469 -2.958319,-0.949355 -3.962891,-0.501953 -1.506647,0.671009 -2.003422,3.595204 -3.219928,5.98895 -3.232259,6.360191 -8.622548,14.130715 -12.346478,14.684878 l 4.867187,4.160156 2.125,-5.310547 5.576172,-10.710937 3.716797,-5.839844 1.876953,0.490235 z"
     sodipodi:nodetypes="cssccccccc" />
  <path
     id="path4325"
     style="fill:#232528;fill-opacity:1;stroke:none;stroke-width:1px;stroke-linecap:butt;stroke-linejoin:miter;stroke-opacity:1"
     d="M 85.087891 33.376953 L 83.699219 36.300781 L 83.992188 36.376953 L 85.498047 36.376953 L 88.064453 34.517578 L 91.427734 35.314453 L 98.773438 34.783203 L 102.95508 33.123047 C 101.03007 33.255807 96.340185 33.064361 92.541016 32.839844 C 90.53833 32.721493 89.037863 31.598617 88.330078 31.685547 C 87.580117 31.777653 87.425716 33.277659 85.267578 33.378906 C 85.210148 33.381601 85.148988 33.379458 85.087891 33.376953 z " />
  <path
     d="m 14.909,31.573 0.547162,-3.554259 c 0.678748,-2.32482 2.200641,-3.969127 2.446176,-5.115662 0.194735,-0.90735 -0.37818,-2.740395 -0.18909,-4.441148 0.21449,-1.930765 1.702164,-3.466416 1.84257,-4.064025 0.18909,-0.802928 -0.04692,-3.118223 0.945098,-6.0477078 0.237421,-0.7006211 1.429817,-2.2740199 2.844465,-3.1309225 2.461346,-1.4908483 3.397271,-3.5708392 2.867396,-4.2146627 -0.01623,-0.0201085 -0.0374,-0.0345724 -0.05503,-0.052917 -0.863605,2.6899475 -4.721255,2.6292693 -6.884502,6.1090913 -1.847156,2.9700547 -1.219913,5.6395407 -1.573751,6.8661567 -0.443092,1.536357 -1.683819,2.097983 -2.00873,3.663621 -0.453322,2.184413 1.208272,4.588962 -0.702032,7.613698 C 14.095489,26.618558 13.71484,30.140008 14.909,31.573"
     fill="#c9c59d"
     id="path436"
     style="stroke-width:0.35278" />
  <path
     d="m 133.04,106.08 c -0.15981,-5.45116 -2.71182,-9.243189 -3.30308,-9.203677 -13.14846,0.873483 -36.138782,15.836997 -36.57623,19.165127 -0.146403,1.12184 1.414295,5.85191 2.584467,7.99823 -1.560699,0.87736 -8.192963,4.9742 -8.339719,5.60779 -0.146051,0.6343 1.853858,6.3391 3.706659,8.48471 -0.857255,1.44322 -3.738057,4.53322 -5.582744,6.18988 l 3.536973,1.85386 c 2.150194,-1.78472 7.347702,-6.25197 7.556547,-6.62839 0.244124,-0.43886 -0.682629,-4.09648 -1.023767,-5.21832 0.682982,-0.24377 8.826554,-3.07236 9.265764,-3.75499 0.30057,-0.46779 -0.52635,-5.10614 -0.76518,-6.7381 8.39828,-4.25876 25.00187,-6.38038 27.00143,-7.35617 1.34339,-0.6544 2.07717,-5.62719 1.93747,-10.39995"
     fill="#756550"
     id="path440"
     style="stroke-width:0.35278" />
  <path
     d="m 10.666,24.898 c 0.519645,-0.141465 1.282003,-0.672046 2.132555,-0.624773 0.67769,0.03739 1.836573,0.678748 3.235698,2.251442 0.734841,-1.556466 1.678527,-2.738632 1.867265,-3.62164 0.194734,-0.907703 -0.37818,-2.740395 -0.188738,-4.441147 0.214491,-1.930765 1.701811,-3.466417 1.84257,-4.064026 0.189091,-0.802927 -0.04727,-3.118575 0.944745,-6.0477075 0.237421,-0.7009738 1.429818,-2.2743726 2.844465,-3.1309225 2.461699,-1.4908482 3.397625,-3.5708391 2.867749,-4.2146626 -1.71698,-2.0859882 -9.732847,4.1109453 -11.500628,5.1855132 -0.531639,0.3227937 -1.095029,1.7159219 -1.664416,2.3922012 -0.55457,0.6586402 -1.629844,1.0399954 -2.079991,2.3576292 -0.578912,1.692285 -0.554923,3.778979 -1.1535905,4.950914 -0.344666,0.674163 -2.7153476,3.315074 -3.6861982,4.389994 -0.5034171,0.55704 -1.1853408,0.521056 -1.6880523,1.041407 -1.1017319,1.141949 -2.519202,4.483128 -2.6402055,6.178589 -0.051859,0.720377 0.2254264,1.411473 0.5140004,2.278253 C 5.4469727,28.809625 8.2501626,25.402123 8.8770526,25.123779 9.7276052,24.745599 10.146355,25.039818 10.666,24.898"
     fill="#30363a"
     id="path444"
     style="stroke-width:0.35278" />
  <path
     d="m 61.915,127.18 c 2.015079,0.16369 0.278343,10.74674 -1.393128,10.62714 -1.691228,-0.12065 -0.73978,-10.8 1.393128,-10.62714"
     fill="#30363a"
     id="path448"
     style="stroke-width:0.35278" />
  <path
     d="m 49.218,126.94 c 1.816111,0.28893 -0.397936,10.22921 -1.950521,9.87043 C 45.659861,136.43966 47.4668,126.6613 49.218,126.94"
     fill="#30363a"
     id="path452"
     style="stroke-width:0.35278" />
  <path
     d="m 39.214,157.8 c -2.030602,0.52776 -4.374825,1.19099 -6.729279,1.8595 0.03739,1.60092 0.251533,3.69643 0.892181,3.81285 0.697446,0.12629 5.888604,-2.06906 8.555621,-3.24946 C 40.600425,159.1194 39.473646,158.13373 39.214,157.8"
     fill="#30363a"
     id="path456"
     style="stroke-width:0.35278" />
  <path
     d="m 22.589,154.34 c -3.016975,0.41522 -6.932833,0.44415 -10.474038,0.27199 -1.84257,1.11444 -4.3705916,3.23358 -4.0128727,3.76946 0.4882475,0.73237 8.5263397,0.33373 12.1677347,0.01 0.79693,-1.55753 1.76002,-3.14715 2.319176,-4.05133"
     fill="#30363a"
     id="path460"
     style="stroke-width:0.35278" />
  <path
     d="m 76.08,152.93 c -0.15099,0.75495 -0.612779,2.55766 -1.173699,4.60448 5.290994,1.33598 13.186211,2.16995 13.831093,1.52507 0.275521,-0.27552 -0.516823,-2.36186 -1.189222,-4.00334 C 84.192176,154.59618 80.341935,153.91108 76.08,152.93"
     fill="#30363a"
     id="path464"
     style="stroke-width:0.35278" />
  <path
     d="m 59.271,157.16 c -0.709088,0.45156 -2.983813,1.84433 -5.368606,3.27556 2.036599,1.84222 5.775361,4.48489 6.499971,4.39388 0.470609,-0.0586 2.524847,-2.37421 3.823783,-3.95114 -2.370682,-1.76178 -4.475014,-3.35811 -4.955148,-3.7183"
     fill="#30363a"
     id="path468"
     style="stroke-width:0.35278" />
  <path
     d="m 22.365,93.88 c -0.0021,0 -0.0046,0 -0.0067,3.53e-4 -0.708382,0.0085 -2.283898,0.01235 -4.414689,0.216607 1.054812,-0.477664 2.547425,-0.985315 3.562373,-1.303522 0.620892,-0.195088 0.49495,-1.21568 -0.169335,-1.155002 -0.796577,-0.0314 -1.661594,0.06033 -2.308239,0.100189 0.75636,-0.238832 1.791064,-0.597256 2.676542,-1.094676 0.503769,-0.28293 -0.04974,-0.925342 -0.547162,-1.024826 -0.137232,-0.02716 -0.517528,-0.07973 -0.776116,-0.05962 0.24871,-0.109714 1.19416,-0.348194 2.059882,-0.69674 0.259646,-0.104423 -0.396877,-1.192397 -0.666754,-1.174052 -0.845966,-0.0695 -2.278606,-0.139348 -2.746392,-0.139348 0.994839,-0.258941 1.918065,-0.458261 2.43771,-0.55704 0.259646,-0.04974 -0.751069,-1.530712 -1.014949,-1.542354 -0.23354,-0.01129 -0.744718,-0.140054 -1.343033,-0.09984 0.159104,-0.04939 0.626537,-0.238479 0.855492,-0.288221 0.267407,-0.05821 -0.661816,-1.053048 -0.93522,-1.065043 -0.204613,-0.0088 -0.362305,-0.03069 -0.889006,-0.03069 h -0.0067 c 0.08079,-0.0074 0.601843,-0.210609 0.686863,-0.227895 0.09701,-0.01976 -0.576443,-0.658288 -0.865722,-0.646646 -0.301627,0.01235 -1.074921,0.02963 -1.532476,0.168629 -0.734841,0.224015 -2.501211,2.153369 -2.298715,2.100099 0.338316,-0.08961 1.003659,-0.147815 1.661947,-0.159809 -1.001896,0.383824 -1.582219,0.487894 -1.950521,0.706971 -0.237421,0.141112 -0.854433,1.715569 -0.587026,1.641838 0.68651,-0.188737 2.94536,-0.646646 4.656696,-0.855844 -2.133261,0.670987 -4.485598,1.534593 -5.024998,1.771308 -0.256471,0.112537 -0.52282,1.46439 -0.24871,1.412884 0.796224,-0.149226 2.686772,-0.517881 4.647171,-0.785994 -2.381265,0.849847 -4.215016,1.619966 -4.935745,1.990032 -0.253296,0.130176 -0.389822,1.422409 -0.109362,1.373373 0.56727,-0.09948 1.870792,-0.288574 2.398198,-0.397936 -0.94545,0.379944 -2.112093,0.849141 -2.408076,0.994839 -0.251179,0.123826 0.18274,1.239669 0.457556,1.173699 0.836088,-0.198615 1.88067,-0.437447 2.865632,-0.636415 -0.795872,0.427922 -1.611852,0.845967 -2.228511,1.194161 -0.608193,0.342902 -0.03387,1.331744 0.646645,1.174404 0.68651,-0.159809 1.900426,-0.338316 3.094586,-0.527406 -1.501784,0.508356 -2.663136,0.900647 -3.32354,1.24355 -0.238479,0.123825 0.350311,1.210035 0.617012,1.174051 0.517176,-0.0695 1.721567,-0.288221 2.56718,-0.358424 -1.021651,0.381355 -1.19169,0.541517 -1.582218,0.756713 -1.066454,0.587026 0.03351,1.264716 0.388058,1.213916 0.348547,-0.04974 0.975084,-0.159457 1.3134,-0.219076 -0.338316,0.219076 0.08467,0.996953 0.358424,0.915463 0.427217,-0.12629 1.940643,-0.377827 2.278606,-0.418044 0.297041,-0.03457 0.408167,-0.328085 0.318561,-0.587025 0.278343,-0.05997 0.547162,-0.138996 0.776116,-0.24871 0.244476,-0.116771 0.669223,-1.013537 0.418044,-1.114432 -0.298805,-0.11924 -0.587026,-0.159104 -0.94545,-0.198616 0.4378,-0.1397 0.93522,-0.25894 1.363142,-0.408872 0.254354,-0.08819 0.595845,-1.071392 0.328438,-1.103848 -0.81598,-0.09984 -1.454512,-0.113948 -2.666664,-0.04974 1.024826,-0.368302 2.308592,-0.75636 3.363052,-1.035057 C 23.263178,94.825098 23.020465,93.88 22.365,93.88"
     fill="#d18200"
     id="path472"
     style="stroke-width:0.35278" />
  <path
     d="m 72.23,91.79 c -0.03986,-0.09913 0.425453,-0.633593 0.696388,-0.926047 -0.278344,0.169334 -0.76518,0.519997 -1.114785,0.776821 -0.29316,0.215901 -1.43264,-0.484014 -1.203685,-0.766238 0.382766,-0.47202 0.37818,-0.536931 0.629712,-0.905234 -0.35525,0.312916 -0.669224,0.596904 -0.928164,0.80575 -0.396172,0.318913 -1.353264,-0.517176 -1.333509,-0.975437 -0.219076,0.08008 -0.358071,0.10019 -0.557392,0.10019 -0.198615,0 -1.062926,-1.020946 -0.984962,-1.094677 0.346077,-0.329143 1.30705,-1.151121 2.263084,-1.976273 -0.571504,0.364422 -1.914537,1.259777 -2.691006,1.797061 -0.315033,0.217665 -1.473915,-1.598093 -1.263658,-1.910656 0.196498,-0.291749 0.852669,-1.009657 1.018476,-1.28165 -0.242007,0.137584 -0.854433,0.565154 -1.008245,0.525642 -0.195793,-0.0501 -0.631477,-1.400889 -0.398289,-1.63196 0.995192,-0.984962 4.436914,-3.892575 5.363314,-4.746302 -1.659477,1.014948 -3.505222,2.246503 -4.88565,3.423024 -0.390175,0.332319 -1.282355,-0.572562 -1.001895,-0.996603 0.782819,-1.182872 1.827753,-2.218281 2.956649,-3.180312 -0.969792,0.515059 -2.244739,1.335978 -3.268154,2.18653 -0.288927,0.239891 -0.190501,-1.958634 0.05962,-2.209461 0.752833,-0.751774 1.755081,-1.73215 3.0646,-2.825415 -0.815627,0.516823 -2.12938,1.43264 -2.74604,1.88067 -0.408166,0.296688 0.244477,-2.130438 0.500948,-2.326584 0.441681,-0.338316 1.019181,-0.76271 1.658066,-1.256249 -0.12559,-0.04163 -0.450853,-0.382767 -0.0695,-0.745777 1.253075,-1.194513 3.532386,-2.236273 5.015121,-2.606692 0.678748,-0.168276 1.07739,0.27658 0.955328,0.686157 0.427569,-0.139348 0.886889,-0.215195 1.316222,-0.25894 0.618424,-0.05962 1.155707,1.047757 0.604312,1.323278 -0.736604,0.368655 -1.980154,1.214621 -2.761914,1.841159 1.591743,-0.76765 2.968291,-1.361378 3.738409,-1.64713 0.260352,-0.09631 1.231203,1.167702 1.013537,1.289058 -1.174757,0.656876 -3.07483,1.860914 -4.298624,2.735809 1.990032,-1.015301 3.151031,-1.487321 4.18891,-1.899721 0.683335,-0.272699 1.262952,0.808572 0.663932,1.24355 -0.643824,0.467786 -1.501785,1.074921 -2.464521,1.87432 0.627948,-0.327733 1.224146,-0.610309 1.767427,-0.82868 0.835383,-0.335494 1.482382,0.826563 0.709794,1.283061 -1.939232,1.145124 -3.760988,2.278606 -5.522418,3.671734 1.503195,-0.783877 2.953121,-1.439342 4.268638,-1.88067 0.354544,-0.118887 0.895708,0.0695 0.864663,0.613484 0.275874,-0.103364 0.661463,-0.189795 0.936631,-0.245535 0.736605,-0.149226 1.246725,0.820567 0.636768,1.164527 -0.257529,0.14464 -0.457555,0.298099 -0.726374,0.477311 0.813511,-0.228248 1.150416,0.988137 0.656524,1.413237 -0.357719,0.30833 -0.716144,0.577148 -1.144066,0.885478 0.742249,-0.174273 0.946862,0.90982 0.395467,1.337036 -0.62689,0.485425 -1.328923,1.07986 -2.02531,1.700047 0.08608,-0.0321 0.168276,-0.06138 0.246946,-0.08678 0.728138,-0.240243 1.274594,0.740132 0.805749,1.208977 -0.806455,0.806102 -2.512852,2.609867 -2.666664,2.776379 C 74.017889,91.754369 72.269511,91.889484 72.23,91.79"
     fill="#d18200"
     id="path476"
     style="stroke-width:0.35278" />
  <path
     d="m 87.77,145.39 c 0,0 7.531853,-6.61286 8.41345,-7.77069 0.293866,-0.20531 0.571857,1.32081 0.296335,1.8715 -0.275521,0.55175 -7.056305,6.72611 -7.056305,6.72611 z"
     fill="#635442"
     id="path480"
     style="stroke-width:0.35278" />
  <path
     d="m 104.69,127.68 c -1.29223,1.1931 -7.803141,4.37341 -8.648754,4.771 -0.818097,0.38523 -1.150063,1.21779 -0.946509,1.89548 0,0 9.110193,-3.01238 9.661233,-3.61811 0.55175,-0.60713 0.0995,-2.60739 -0.066,-3.04837"
     fill="#635442"
     id="path484"
     style="stroke-width:0.35278" />
  <path
     d="m 19.555,14.398 c 0.18909,-0.802927 -0.04727,-3.118575 0.945098,-6.0480603 0.237421,-0.7006211 1.429464,-2.2740199 2.844112,-3.1309225 2.461699,-1.4904955 3.397624,-3.5708392 2.867749,-4.2146627 -0.01658,-0.0197557 -0.0374,-0.0342196 -0.05539,-0.0525642 -0.863253,2.6899475 -4.720902,2.6292693 -6.884502,6.1087385 -1.847156,2.9700552 -1.21956,5.6398942 -1.573398,6.8665102 -0.443092,1.536357 -1.683819,2.09763 -2.00873,3.66362 -0.453322,2.184061 1.208272,4.588962 -0.702385,7.613698 -0.03563,0.0568 -0.06915,0.122415 -0.103364,0.185209 0.360188,0.307977 0.743307,0.678044 1.150063,1.135246 0.73484,-1.556465 1.678174,-2.738983 1.867264,-3.621992 0.194382,-0.90735 -0.37818,-2.740042 -0.18909,-4.440794 0.21449,-1.930765 1.702164,-3.466769 1.84257,-4.064026"
     fill="#232528"
     id="path488"
     style="stroke-width:0.35278" />
  <path
     d="m 36.5,120.26 c 11.709827,-6.4534 33.146503,-5.52136 43.547163,-0.60572 -2.108213,-7.52798 -4.424919,-14.07981 -6.41354,-18.20204 1.835867,-2.259203 7.225993,-11.328119 8.566204,-17.605486 -6.700704,17.561746 -51.841021,28.141616 -67.850178,18.690986 5.571808,6.6298 16.492818,8.53093 25.410391,9.41323 l 0.610662,0.01 c -0.905586,0.72743 -2.046829,1.71098 -2.046829,2.07046 0,0.54434 1.382544,1.64819 1.980859,2.07964 -1.132071,0.89359 -2.434887,2.34705 -3.803674,4.1494"
     fill="#c9c59d"
     id="path492"
     style="stroke-width:0.35278" />
  <path
     d="m 39.214,157.8 c -2.030602,0.52776 -4.374825,1.19099 -6.729279,1.8595 0.01199,0.51718 0.04304,1.08657 0.100543,1.6242 4.459139,-2.0694 6.462224,-1.81505 7.637334,-0.31891 0.467434,-0.20179 1.3261,-0.57186 1.709925,-0.7419 C 40.600425,159.1194 39.473646,158.13373 39.214,157.8"
     fill="#232528"
     id="path496"
     style="stroke-width:0.35278" />
  <path
     d="m 59.271,157.16 c -0.709088,0.45156 -2.983813,1.84433 -5.368606,3.27556 0.338316,0.30586 1.27283,0.94933 1.683466,1.28306 2.874099,-2.61057 4.403753,-3.33835 7.459886,0.66323 0.303038,-0.35207 0.919697,-1.18675 1.180402,-1.50355 -2.370682,-1.76178 -4.475014,-3.35811 -4.955148,-3.7183"
     fill="#232528"
     id="path500"
     style="stroke-width:0.35278" />
  <path
     d="m 3.328,152.87 c 3.7190068,0.63642 15.463759,0.3429 20.406559,-0.58703 l -0.929928,2.0553 C 17.323841,155.07205 2.7896577,154.58239 3.328,152.87"
     fill="#c9c59d"
     id="path504"
     style="stroke-width:0.35278" />
  <path
     d="m 19.329,161.83 c 2.691711,-0.24483 13.506535,-4.01252 16.393687,-5.23667 1.698283,-0.71931 3.181017,-0.24412 3.719359,0.83221 -3.033908,1.41924 -20.651388,6.6552 -20.113046,4.40446"
     fill="#c9c59d"
     id="path508"
     style="stroke-width:0.35278" />
  <path
     d="m 75.69,152.29 c 0.185209,-0.7419 1.642544,-1.93465 3.643512,-1.36632 5.408823,1.53742 19.471339,4.09895 22.801578,4.09895 0.37007,2.24898 -24.196118,-0.25611 -26.44509,-2.73263"
     fill="#c9c59d"
     id="path512"
     style="stroke-width:0.35278" />
  <path
     d="m 47.178,163.52 c 1.369845,-1.27142 10.81306,-8.26881 12.329661,-8.31749 1.516601,-0.049 11.106573,8.26881 12.427381,10.42147 -2.299773,-0.19579 -11.693246,-7.68249 -12.720894,-8.26952 -1.859151,0.88125 -10.226034,6.75257 -12.036148,6.16554"
     fill="#c9c59d"
     id="path516"
     style="stroke-width:0.35278" />
  <path
     d="m 77.11,158.05 c 0.867839,-2.60422 3.371518,-2.74251 10.889966,-1.56599 l -0.07267,-1.27495 -11.873164,-2.40349 -1.14089,4.72443 z"
     fill="#232528"
     id="path520"
     style="stroke-width:0.35278" />
  <path
     d="m 9.766,156.05 c 3.296024,-0.25965 9.844326,-0.74119 9.542346,2.40314 l 1.238258,-0.0353 2.042949,-4.07708 -11.038839,0.39829 z"
     fill="#232528"
     id="path524"
     style="stroke-width:0.35278" />
  <path
     d="m 47.671,130.73 c 0.590201,-2.09939 1.740264,-2.85893 1.692286,0.29175 0.262821,-1.89619 0.701326,-3.92997 -0.145346,-4.08025 -0.846672,-0.14994 -1.371961,2.62186 -1.54694,3.7885"
     fill="#232528"
     id="path528"
     style="stroke-width:0.35278" />
  <path
     d="m 60.392,131.08 c 0.04657,-0.41981 0.577148,-1.94664 1.283766,-1.83798 0.379239,0.0579 0.667813,1.04881 0.641707,2.07081 0.262821,-1.40088 0.320677,-4.0545 -0.496008,-4.11306 -0.817039,-0.0586 -1.196277,2.91749 -1.429465,3.88023"
     fill="#232528"
     id="path532"
     style="stroke-width:0.35278" />
  <path
     d="m 25.038,52.275 c 6.049471,-5.92741 19.525667,-9.488371 26.120184,-7.368163 2.634561,0.847377 2.523083,1.246019 -0.198968,0.766238 C 44.525567,44.539593 31.344648,48.306931 25.59504,52.92729 23.656161,54.485519 23.153096,54.121451 25.038,52.275"
     fill="#0d131a"
     id="path536"
     style="stroke-width:0.35278" />
  <path
     d="M 77.74,19.55 C 74.300042,19.877733 56.246526,34.632756 49.790299,44.927229 l 1.532476,0.288222 C 57.932109,35.001411 75.25149,21.348825 77.842659,20.98899 c 6.025482,-0.836442 24.614871,7.781268 24.868521,11.775796 0.0836,1.295761 -12.707136,2.265906 -14.282652,1.356086 -0.410283,-0.237068 -0.481544,-0.203907 -0.81598,0.07938 -1.711335,1.453101 -2.44406,1.885256 -4.527578,1.214269 -0.430745,-0.138643 -0.716144,-0.103012 -1.131013,0.387352 -4.335313,5.157996 -9.383948,14.901427 -11.860464,20.993585 l 1.19663,1.303522 c 2.37421,-5.944343 7.047134,-16.266333 11.407142,-21.480774 1.958281,0.634651 3.277326,0.4378 5.431048,-1.573752 3.171845,1.691228 15.181887,-0.255765 15.579117,-1.69546 C 104.92417,28.936417 85.919204,18.770709 77.74,19.55"
     fill="#0d131a"
     id="path540"
     style="stroke-width:0.35278" />
  <path
     d="M 87.8,24.864 C 87.635252,23.043302 82.613781,22.090091 82.416577,20.899811 L 80.83577,20.68391 c 1.849273,2.580938 5.818048,2.57106 5.89072,4.325083 0.05327,1.282355 -1.388542,2.579527 -1.69546,3.583186 -0.385942,1.263658 0.365833,2.745334 -0.05856,4.031217 -0.296335,0.899589 -1.220971,2.048946 -1.872909,2.983461 l 1.328217,0.398288 c 0.658287,-0.876658 1.218855,-2.122677 1.554701,-2.990516 C 86.517292,31.633495 85.5221,29.981074 85.88758,28.86382 86.29751,27.611803 87.954518,26.576394 87.8,24.864"
     fill="#0d131a"
     id="path544"
     style="stroke-width:0.35278" />
  <path
     d="m 59.241,157.82 c -1.872556,1.15782 -11.305541,7.2394 -11.997342,7.2394 -0.833267,0 -6.795249,-5.19081 -8.187671,-6.65061 -4.031217,0.9645 -19.135846,6.06535 -20.487699,4.94245 -1.169818,-0.97156 0.587379,-4.08096 4.105301,-9.9424 1.037879,-1.72898 1.679586,-1.40618 0.718966,0.36689 -2.092338,3.86012 -4.147987,7.66697 -3.581423,8.11712 0.785994,0.62371 15.807719,-3.63999 18.846919,-4.49336 0.604312,-0.17181 0.76271,-0.1263 1.184635,0.29421 1.195219,1.19205 6.910255,5.69282 7.438014,5.71469 0.489658,0.0194 8.650165,-4.80557 11.206056,-6.39202 0.912289,-0.56657 0.826211,-0.51224 1.671825,0.13793 4.244296,3.26534 11.385621,8.22824 11.627629,8.17251 0.231423,-0.054 3.074477,-9.64818 3.696428,-12.35577 0.198616,-0.86149 0.232482,-0.78317 1.01636,-0.60325 14.284767,3.25862 23.170237,3.17784 24.882282,2.63103 -1.412182,-1.69229 -11.291786,-8.23142 -16.450488,-10.15619 -0.186267,-0.0699 -0.319266,-0.23565 -0.347135,-0.4325 -2.285309,-16.35665 -7.569953,-34.64794 -11.473111,-42.74283 -0.09067,-0.18909 -0.06456,-0.41346 0.06773,-0.57644 2.908319,-3.578954 9.232253,-17.14405 9.119363,-21.06767 -0.178859,-6.235033 -9.70145,-21.146691 -15.596403,-25.384284 -1.856681,-1.333509 -1.299289,-2.048594 0.557392,-0.716497 6.152836,4.422803 16.541501,19.403959 16.732708,26.060565 0.145698,5.089557 -6.225508,16.906276 -9.714503,21.518526 3.901747,8.25822 9.38289,26.06726 11.678782,42.2454 4.600957,1.85315 17.151105,9.76918 16.624055,11.586 -0.5768,1.98474 -13.406701,1.22732 -26.088437,-1.63584 -0.623362,2.50685 -3.142564,13.19679 -4.108123,13.40388 -0.965559,0.20637 -9.817514,-6.60263 -13.142113,-9.282"
     fill="#0d131a"
     id="path548"
     style="stroke-width:0.35278" />
  <path
     d="m 40.621,115.67 c -0.919345,-0.66358 -1.583982,-1.39313 -1.603738,-1.59033 -0.0194,-0.19721 0.965559,-1.18217 1.908893,-1.87044 l -1.532477,-0.14464 c -1.458039,1.23649 -1.794591,1.63796 -1.794591,1.95581 0,0.62971 0.990606,1.44287 1.836925,2.11245 -5.372839,4.79534 -13.799342,19.83646 -16.143918,27.09809 -5.656475,1.37549 -21.3096763,7.85817 -20.8454178,10.1844 0.3199715,1.60198 13.5492218,2.30401 19.4812168,1.6623 l 0.958151,-1.43652 c -6.249498,1.0467 -19.1376096,-0.0219 -19.2695493,-0.59337 -0.2345987,-1.01707 14.8393383,-7.42391 20.5166263,-8.71226 0.226485,-0.0512 0.299158,-0.0494 0.397936,-0.3676 2.721698,-8.79163 12.192782,-24.34217 16.10864,-27.43358 0.476606,-0.37642 0.403933,-0.56021 -0.0187,-0.86431"
     fill="#0d131a"
     id="path552"
     style="stroke-width:0.35278" />
  <path
     d="M 39.705,112.38 C 23.717363,111.1241 15.238296,107.00293 11.020105,98.55173 7.2404205,90.977896 9.4661095,74.716854 8.74538,72.667908 7.4340967,68.94114 4.8341081,64.491526 3.6441812,60.487473 2.5650272,56.859131 -0.40749712,44.305807 0.04617796,41.178765 0.17000374,40.326449 2.1589774,35.745953 2.3145534,34.015215 2.6137108,30.687794 0.98704222,29.434719 1.1267431,27.481729 1.2576245,25.652565 2.8190288,22.199201 3.992375,20.983874 4.5741093,20.381326 5.1660741,20.428246 5.7037108,19.869442 6.4600711,19.083096 8.8448639,16.452062 9.2579693,15.628321 9.5356072,15.075162 9.997749,11.583698 10.281031,10.754665 10.798207,9.2426503 11.904172,9.0383907 12.639366,8.2467524 13.330109,7.5034449 13.326228,6.5953892 14.301312,5.6799251 15.319082,4.7242441 24.653641,-1.9665814 26.739982,0.56673178 27.650155,1.6737554 26.16989,4.0352647 23.566373,5.6121913 c -3.908449,2.3664483 -3.010271,7.1970647 -3.384218,8.9235697 -0.258941,1.194161 -1.592449,1.81082 -1.931471,3.983945 -0.262468,1.681702 0.577501,3.099878 0.259646,4.51382 -0.391938,1.742028 -2.510735,3.333771 -3.063188,6.766673 -0.439564,2.73087 -0.998015,2.626447 -0.775764,-0.130881 0.265644,-3.302021 2.299773,-5.609908 2.624684,-6.934244 0.21837,-0.889005 -0.310094,-3.038494 -0.122062,-4.334608 0.341138,-2.351984 1.435814,-2.909729 1.754022,-4.183265 0.514,-2.055296 -0.35525,-6.7176367 4.187851,-9.4375705 1.749436,-1.0474038 2.829296,-2.8790375 2.534372,-3.3411793 -1.289764,-1.56563768 -9.406526,4.2972131 -10.592925,5.2959333 -0.627596,0.5284645 -0.848083,1.4562759 -1.542354,2.1794749 -0.622304,0.6484096 -1.428407,0.947567 -1.890548,2.2987146 -0.253296,0.741191 -0.897826,4.255938 -1.279534,4.948798 -0.4624941,0.838205 -3.4579491,4.206196 -3.7853289,4.514173 -0.5736203,0.539047 -1.0364676,0.345018 -1.7014579,1.034351 -1.0040119,1.040701 -2.2352141,4.290863 -2.3484565,5.870964 -0.1220619,1.705692 1.0946763,2.875863 0.8837139,6.531722 -0.1086562,1.884198 -1.6979301,6.54795 -1.8041169,7.280674 -0.4042859,2.787667 2.0418906,14.709162 3.2388732,18.736145 0.8456136,2.843054 3.9705389,9.425576 4.93892,12.178672 0.7207291,2.047535 -0.3912331,19.127026 2.7848451,25.535627 4.005817,8.08219 11.572948,11.77509 27.24273,13.65047 4.333197,0.51894 3.728179,1.18569 -0.08961,0.88583"
     fill="#0d131a"
     id="path556"
     style="stroke-width:0.35278" />
  <path
     d="m 8.714,158.09 c -0.064559,-0.20108 2.818359,-2.44829 4.27393,-3.2364 l -2.139258,-0.11924 c -2.0196657,1.39136 -3.7239459,3.16161 -3.1968926,3.95184 0.5164699,0.7747 6.9931576,0.77717 12.1525656,0.38665 l 0.706265,-1.33351 C 15.412587,158.2992 8.8307702,158.45442 8.714,158.09"
     fill="#0d131a"
     id="path560"
     style="stroke-width:0.35278" />
  <path
     d="m 33.521,162.94 c -0.174273,-0.072 -0.479428,-1.95687 -0.285046,-3.31648 l -1.437932,0.38805 c 0.05574,1.4591 0.505181,3.57472 1.321162,4.00194 0.691096,0.36195 6.72187,-2.2338 9.212849,-3.23499 l -1.104554,-0.94545 c -2.668781,1.26683 -7.456005,3.211 -7.706479,3.10693"
     fill="#0d131a"
     id="path564"
     style="stroke-width:0.35278" />
  <path
     d="m 63.617,160.64 c -1.180402,1.415 -2.938657,3.56131 -3.299904,3.6414 -0.361952,0.0804 -3.727474,-2.35164 -5.655769,-4.02946 l -1.104554,0.7165 c 2.027779,1.81576 5.771481,4.46972 6.877446,4.40058 0.721788,-0.0455 2.83882,-2.35164 4.138109,-3.9328 z"
     fill="#0d131a"
     id="path568"
     style="stroke-width:0.35278" />
  <path
     d="m 88.42,155.37 -1.536004,-0.17004 c 0.619129,1.06645 1.511309,3.26427 1.362436,3.48017 -0.188737,0.27341 -6.182116,-0.004 -12.985479,-1.75261 l -0.319971,1.25766 c 6.121438,1.51414 13.474785,1.96252 14.183167,1.25414 C 89.480104,159.0823 88.824639,156.39447 88.42,155.37"
     fill="#0d131a"
     id="path572"
     style="stroke-width:0.35278" />
  <path
     style="opacity:1;fill:#635442;fill-opacity:1;stroke:none;stroke-width:1px;stroke-linecap:butt;stroke-linejoin:miter;stroke-opacity:1"
     d="m 103.86443,123.88297 c -0.43466,-3.09488 5.98394,-5.56181 12.2518,-7.53775 5.86174,-1.8479 11.77538,-3.36036 12.59793,-3.61403 0.405,1.21843 1.17001,2.77515 2.36376,3.96444 -8.96865,2.16792 -18.24485,3.58925 -27.21349,7.18734 z"
     id="path1275"
     sodipodi:nodetypes="csccc" />
  <path
     d="m 130.55,115.4 c -0.87807,-1.12255 -1.36632,-0.85408 -0.75636,0.43921 0.0942,0.19932 0.15522,0.42228 0.28575,0.59726 l 1.08727,-0.35772 C 130.9684,115.82898 130.74967,115.65506 130.55,115.4"
     fill="#0d131a"
     id="path576"
     style="stroke-width:0.35278" />
  <path
     d="m 128.43,113.01 c -0.70768,-1.46368 -1.06963,-3.26992 -1.06963,-4.83132 0,-1.3769 0.54716,-1.4337 0.75989,-0.073 0.24377,1.56141 0.58173,3.05014 0.99625,4.56286 0.35137,1.28165 -0.13723,1.47779 -0.68651,0.34149"
     fill="#0d131a"
     id="path580"
     style="stroke-width:0.35278" />
  <path
     d="m 127.38,104.13 c -0.1136,1.73815 0.56903,1.75473 0.8054,0.049 0.34149,-2.46488 1.09397,-4.882126 2.02495,-6.78361 l -1.12219,-0.390175 C 128.1346,99.00199 127.55075,101.51908 127.38,104.13"
     fill="#0d131a"
     id="path584"
     style="stroke-width:0.35278" />
  <path
     d="m 103.18,114.21 c 3.97548,-2.56506 9.31904,-4.69621 13.66246,-5.69599 1.92512,-0.44309 2.0613,-0.0437 0.18909,0.59021 -4.21536,1.42523 -9.38853,3.66291 -13.46279,5.78594 -1.14124,0.59373 -1.6369,0.12488 -0.38876,-0.68016"
     fill="#0d131a"
     id="path588"
     style="stroke-width:0.35278" />
  <path
     d="m 108.23,115.67 c 2.22004,-1.29329 4.95303,-2.05706 7.208,-2.55272 1.72827,-0.38029 1.87855,-0.008 0.2092,0.58385 -2.26873,0.80505 -4.83097,1.7251 -7.093,2.68254 -1.41253,0.59902 -1.8341,0.16581 -0.3242,-0.71367"
     fill="#0d131a"
     id="path592"
     style="stroke-width:0.35278" />
  <path
     d="m 60.353,132.3 c -0.275874,2.43171 -0.198968,4.84332 0.219782,4.93257 0.369713,0.0794 1.059045,-2.11174 1.448515,-4.70362 0.288574,-1.92018 0.451558,-4.70714 -0.148168,-4.81368 -0.701679,-0.12382 -1.329628,2.9055 -1.520129,4.58473 m 0.130529,6.04312 c -1.512015,-0.1083 -1.399126,-4.41504 -1.184988,-6.2121 0.270582,-2.27825 1.208271,-5.61908 2.660666,-5.49596 1.2118,0.0988 1.715569,2.64585 1.208625,6.04241 -0.390881,2.62398 -1.486615,5.75349 -2.684303,5.66565"
     fill="#0d131a"
     id="path596"
     style="stroke-width:0.35278" />
  <path
     d="m 49.11,127.46 c -0.363716,-0.11254 -1.085857,1.7385 -1.553996,4.12082 -0.47837,2.42819 -0.452264,4.60096 -0.173215,4.65317 0.249063,0.0466 1.03294,-1.98933 1.532124,-4.24712 0.449089,-2.03483 0.742954,-4.35683 0.195087,-4.52687 m -1.964632,9.8729 c -1.099262,-0.25365 -1.207566,-3.34083 -0.664285,-6.04065 0.435684,-2.15937 1.601974,-5.08532 2.821535,-4.89341 1.02659,0.16369 1.448867,2.44441 0.821624,5.62825 -0.383824,1.94805 -1.688052,5.60426 -2.978874,5.30581"
     fill="#0d131a"
     id="path600"
     style="stroke-width:0.35278" />
  <path
     d="m 15.948,27.268 -0.742249,2.642322 c 1.337389,6.466458 6.117911,16.651569 10.336807,22.26324 l 1.188515,-0.921461 C 21.643986,44.499186 16.117687,32.511369 15.948,27.268"
     fill="#0d131a"
     id="path604"
     style="stroke-width:0.35278" />
  <path
     d="m 12.829,23.732 c -1.031881,-0.05397 -1.374784,0.481545 -2.282839,0.729196 -0.506592,0.139701 -1.0946767,-0.261057 -1.8803178,0.08996 -0.9352198,0.418044 -2.602458,3.25369 -6.2463227,4.70926 l 0.243771,0.902764 c 3.9885307,-1.63584 5.521007,-4.006522 6.4664574,-4.51382 0.663932,-0.295629 1.0784481,-0.197204 1.6654741,-0.332318 0.736252,-0.168982 1.098557,-0.55069 1.973452,-0.503418 0.460378,0.02505 1.567048,0.409225 2.98593,2.032366 L 16.15254,25.990145 C 14.901583,24.643936 13.762103,23.783859 12.829,23.732"
     fill="#0d131a"
     id="path608"
     style="stroke-width:0.35278" />
  <path
     d="m 27.407,83.74 c -1.489437,0.337963 -3.083297,-0.67381 -3.783213,-2.589405 -0.122767,-1.025884 -0.219429,-2.215459 -0.277638,-3.448777 0.12559,-0.878423 0.371478,-1.703575 0.675221,-2.403491 0.127354,0.418045 0.260705,0.849847 0.398995,1.292234 -0.606782,0.92393 -0.794814,2.272961 -0.479076,3.421966 0.357719,1.30211 1.300347,2.027426 2.323762,2.111741 0.186621,0.510119 0.363364,0.97332 0.521409,1.354675 0.113595,0.27411 1.195571,-0.341491 1.147593,-0.634299 -0.05045,-0.309388 -0.100895,-0.698504 -0.149578,-1.132776 0.591612,-0.458261 0.948625,-1.271772 1.091148,-2.310709 0.171451,0.783171 0.328438,1.542001 0.460378,2.239447 C 28.927482,82.684129 28.305531,83.537151 27.407,83.74 m -5.815931,-6.045591 c 0.08855,-0.940511 0.264938,-1.858445 0.504828,-2.714642 0.02011,0.527406 0.04939,1.075979 0.08608,1.633019 -0.259646,0.974378 -0.385588,2.019312 -0.297393,3.050488 0.100895,1.188869 0.461789,2.259909 1.018829,3.116106 0.09384,0.506239 0.192617,0.965206 0.295629,1.359614 -1.539885,-1.226263 -1.846098,-3.921855 -1.607971,-6.444585 m 1.937468,-4.041448 c -0.07655,0.109715 -0.15099,0.224016 -0.224721,0.341844 0.0092,-0.333377 0.02117,-0.663226 0.03881,-0.982139 0.0575,0.200379 0.120298,0.415927 0.185915,0.640295 m 2.100452,-3.5786 c 0.166159,-0.02117 0.367597,0.08255 0.590554,0.274816 -0.07832,0.489306 -0.122768,1.090796 -0.149226,1.7512 -0.252591,-0.06844 -0.492129,-0.07232 -0.703091,-0.01482 -0.247652,0.06738 -0.50377,0.21061 -0.759888,0.403227 -0.243066,-0.505886 -0.476606,-0.933808 -0.697799,-1.281297 0.541517,-0.654406 1.13066,-1.066806 1.71945,-1.133129 m -0.627949,8.343247 c 0.258588,0.798341 0.519998,1.584335 0.772941,2.319881 -0.381002,-0.334435 -0.601842,-0.851611 -0.665695,-1.084093 -0.107598,-0.391585 -0.140407,-0.823035 -0.107246,-1.235788 m 0.996957,-2.874451 c -0.04622,-0.0021 -0.0949,3.52e-4 -0.146404,0.0071 -0.258235,-0.727432 -0.511178,-1.38572 -0.757066,-1.97204 0.212021,-0.218371 0.417692,-0.362658 0.600784,-0.412753 0.108304,-0.02858 0.224721,-0.01058 0.344666,0.04022 -0.01446,0.78423 -0.02046,1.591391 -0.04198,2.337521 m 1.606913,4.247471 c -0.116065,-1.46827 -0.207788,-3.135862 -0.251533,-4.621418 0.192618,0.588437 0.328086,1.27283 0.362305,2.006613 0.05362,1.162762 0.01023,2.013315 -0.110772,2.614805 m 2.322703,-2.473693 c 0.03916,0.279401 0.05292,0.638884 0.04163,1.040348 -0.195793,-0.992018 -0.41628,-1.944524 -0.64841,-2.83494 0.328791,0.773999 0.555982,1.430875 0.606782,1.794592 m 1.161352,-0.147815 c -0.170393,-1.21568 -1.79812,-4.637999 -3.42373,-6.648845 -0.387,-0.888653 -0.700268,-1.39207 -0.851611,-1.369845 -0.115006,0.01587 -0.212374,0.09243 -0.294924,0.218371 -0.362658,-0.264938 -0.706266,-0.405697 -1.010715,-0.370772 -0.852316,0.0956 -1.642543,0.574326 -2.339637,1.303875 -0.242007,-0.193676 -0.457908,-0.249415 -0.641354,-0.158751 -0.213079,0.10654 -0.346077,0.68898 -0.4124,1.569518 -0.984256,1.631255 -1.654185,3.774746 -1.847861,5.828632 -0.493187,5.229258 1.399125,8.082189 3.494991,8.082189 1.476032,0 1.585746,-0.472725 0.15981,-1.059045 -0.119946,-0.04939 -0.23213,-0.107951 -0.341491,-0.170393 0.138642,-0.107245 0.291396,-0.274463 0.389116,-0.432508 0.942275,0.738368 2.144902,1.056576 3.5024,0.750716 1.039642,-0.234599 1.825989,-0.983198 2.398904,-1.941349 0.317855,-0.0032 0.727432,-0.141817 0.709088,-0.329496 -0.03104,-0.316091 -0.06738,-0.630771 -0.106187,-0.944039 0.58879,-1.578691 0.754596,-3.336594 0.615601,-4.328258"
     fill="#0d131a"
     id="path612"
     style="stroke-width:0.35278" />
  <path
     d="m 62.682,71.88 c -0.06844,-0.341491 -0.140054,-0.713321 -0.215901,-1.116196 0.666754,-0.693213 1.036467,-1.648894 1.15994,-2.720287 0.206024,0.406756 0.388764,0.769061 0.532698,1.055871 C 63.893799,70.251215 63.400966,71.239704 62.682,71.88 m -3.070597,0.855844 c -0.08255,-0.231071 -0.165807,-0.467786 -0.249063,-0.717554 0.664991,0.07126 1.350795,-0.09666 2.069408,-0.488248 0.185915,0.385236 0.335846,0.684746 0.438505,0.876659 -0.701326,0.325263 -1.474267,0.430744 -2.25885,0.329143 m -4.224541,-0.371477 c 0.02858,-0.03598 0.05221,-0.07514 0.07126,-0.117829 0.169687,0.173921 0.347135,0.334789 0.528112,0.489306 -0.207435,-0.118887 -0.407109,-0.242712 -0.599374,-0.371477 M 52.13564,60.974865 c 0.07726,1.428053 0.210257,2.90726 0.424041,4.435855 0.05468,0.728844 0.173215,1.444282 0.351369,2.132908 0.202143,1.084799 0.448736,2.190058 0.745424,3.314368 -1.406181,-1.595271 -2.109977,-3.588831 -2.204522,-5.715388 -0.06703,-1.509193 0.186974,-2.956297 0.683688,-4.167743 m 2.647967,-2.99863 c 0.195792,-0.08185 0.389116,-0.148168 0.581734,-0.206377 0.02081,0.36795 0.04833,0.759183 0.08396,1.172641 -0.01658,0.0081 -0.03245,0.01305 -0.04904,0.02117 -0.508709,0.248004 -0.961678,0.59267 -1.349736,1.016006 -0.18274,-0.453322 -0.341139,-0.853375 -0.475548,-1.195218 0.366539,-0.347489 0.770119,-0.625479 1.208625,-0.808219 m 3.756048,-0.181682 c 0.03351,0.23354 0.0762,0.51647 0.129471,0.8502 -0.347489,-0.112537 -0.704855,-0.177096 -1.072099,-0.18909 -0.135467,-0.334436 -0.259293,-0.64206 -0.366891,-0.914759 0.451558,0.02822 0.888653,0.116065 1.309519,0.253649 m 0.08502,11.776502 c 0.572209,0.370066 1.204038,0.477664 1.969571,0.17392 0.09596,0.210257 0.189796,0.412753 0.279755,0.605724 -0.724611,0.316796 -1.379723,0.357366 -1.993913,0.122062 -0.08643,-0.294219 -0.171804,-0.59514 -0.255413,-0.901706 m -2.858929,-7.895922 c -0.247651,0.250474 -0.449794,0.569034 -0.606429,0.939453 -0.210609,-0.478722 -0.406049,-0.934514 -0.585262,-1.361731 0.242713,-0.388763 0.566565,-0.745071 1.004365,-1.024826 0.05327,0.464259 0.115359,0.94792 0.187326,1.447104 m 3.485467,0.183093 c -0.12806,-0.09843 -0.258588,-0.188032 -0.390881,-0.270935 -0.249415,-0.631124 -0.496714,-1.244608 -0.729902,-1.819287 0.268466,0.07162 0.531287,0.182035 0.786347,0.330202 0.09384,0.519998 0.20426,1.105966 0.334436,1.76002 m -1.711336,2.792959 c 0.05151,-0.04092 0.10407,-0.07197 0.151695,-0.09666 0.244829,-0.125237 0.512589,0.11924 0.674868,0.237421 0.02328,0.01693 0.04339,0.03669 0.06562,0.05468 0.154165,0.363716 0.309388,0.72708 0.464964,1.087621 -0.0039,0.006 -0.0053,0.01411 -0.01023,0.0194 -0.237421,0.292102 -0.485778,-0.294572 -0.763416,0.08678 -0.363716,0.499889 0.244476,1.653832 1.214621,1.353264 0.05856,-0.0187 0.113243,-0.04304 0.165807,-0.0702 0.217665,0.492833 0.430744,0.969792 0.636062,1.424172 -0.69921,0.218724 -1.331744,-0.105834 -2.007318,-1.12184 -0.228954,-0.985667 -0.432155,-1.99109 -0.59267,-2.974641 m -1.257661,-0.01305 c -0.02999,0.08432 -0.05433,0.171451 -0.07338,0.262116 -0.176743,-0.369008 -0.346077,-0.729902 -0.508003,-1.082329 0.06562,-0.254355 0.159103,-0.494951 0.292101,-0.709441 0.08678,0.499889 0.182388,1.009656 0.28928,1.529654 m 0.956034,-2.378795 c 0.04269,-0.0035 0.08572,-0.0028 0.12947,-0.0018 0.152048,0.383119 0.310799,0.775763 0.473784,1.173346 -0.160515,0.0035 -0.31715,0.03281 -0.467434,0.08643 -0.05574,-0.429686 -0.101248,-0.849494 -0.13582,-1.258013 m -1.907482,5.914709 c 0.787758,1.475679 1.569871,2.504033 2.370329,3.127042 0.164396,0.370772 0.316797,0.711204 0.453675,1.01142 -1.277416,-0.577853 -2.462757,-1.684524 -3.267801,-3.237815 -0.414516,-2.084577 -0.716849,-4.049561 -0.95427,-5.942931 0.02364,-0.164749 0.05468,-0.335141 0.09455,-0.509415 0.219077,0.54187 0.462142,1.134541 0.719671,1.757197 -0.127,1.390659 0.103718,2.894913 0.583851,3.794502 m 6.858749,1.086915 c -0.05115,-0.284693 -0.10407,-0.580323 -0.158751,-0.881244 0.397936,-1.123604 7.06e-4,-2.698062 -0.749305,-4.067906 -0.09031,-0.47202 -0.18274,-0.948626 -0.278696,-1.428054 0.163337,0.327027 0.724258,1.426643 1.348678,2.653611 0.352427,1.396304 0.383119,2.774615 -0.161926,3.723593 m 1.241786,-6.672128 c 0.603606,1.24355 0.918992,2.699825 0.957092,4.112709 -0.361247,-0.772941 -0.781408,-1.660888 -1.218855,-2.578821 -0.194735,-0.602549 -0.439211,-1.1864 -0.72708,-1.725095 -0.174978,-0.328085 -0.358071,-0.632534 -0.545398,-0.923578 -0.437447,-0.902764 -0.852669,-1.751905 -1.204743,-2.460287 1.163468,0.95815 2.103274,2.265553 2.738984,3.575072 m 1.968512,6.326051 c 0.370772,-2.2398 0.05292,-4.825325 -0.927811,-6.846401 -1.044582,-2.151606 -2.742512,-4.030512 -4.793575,-4.943859 -0.07197,-0.04763 -0.181329,-0.09172 -0.308682,-0.127707 -0.794108,-0.310799 -1.6369,-0.474842 -2.5125,-0.45685 -0.01199,-0.03739 -0.02575,-0.07796 -0.03457,-0.109009 -0.137584,-0.477664 -1.509193,-0.907703 -1.509193,-0.31221 0,0.197557 0.0035,0.413811 0.0095,0.640296 -0.307271,0.08149 -0.616659,0.183798 -0.92887,0.313621 -0.527758,0.220135 -1.013536,0.53799 -1.454511,0.929575 -0.4124,-0.105481 -0.899237,0.144287 -0.887242,0.787758 0.0011,0.05962 0.0042,0.122062 0.0056,0.182387 -1.155354,1.559641 -1.796708,3.780391 -1.688052,6.218101 0.207082,4.676099 3.133745,9.020231 7.80561,10.181936 0.506592,0.126295 1.16241,-0.691802 1.096441,-1.154649 1.104906,0.112537 2.282839,-0.11924 3.482996,-0.787758 1.225558,-0.683687 2.041186,-2.031307 2.460641,-3.646334 0.213432,-0.172862 0.357013,-0.45438 0.245182,-0.724963 -0.01729,-0.04163 -0.0381,-0.09137 -0.06103,-0.143934"
     fill="#0d131a"
     id="path616"
     style="stroke-width:0.35278" />
  <path
     d="m 22.497,91.75 c -0.701327,-0.92887 1.098557,-3.449483 1.857739,-2.653611 1.645014,1.724741 6.115795,5.234549 8.334075,6.608275 0.799047,0.494245 1.198041,0.515059 1.846803,-0.06421 1.50496,-1.342681 4.725489,-4.609424 6.533133,-6.062877 0.958504,-0.770825 1.347267,-0.914759 2.865279,-0.230718 1.924415,0.867133 4.996424,2.625388 6.353215,3.136567 0.377828,0.141464 0.636416,0.13582 0.957093,-0.247652 0.855491,-1.022356 2.772498,-3.781802 4.033333,-5.003479 0.621599,-0.602548 1.423115,-0.73096 2.457819,-0.268465 0.421219,0.188031 2.976757,1.505312 4.140226,2.06976 0.359483,0.174979 0.542928,0.141112 0.791285,-0.152401 1.405123,-1.65736 4.191027,-5.427167 4.571323,-5.99726 0.542576,-0.813158 2.766501,1.020593 2.218987,1.82105 -0.8502,1.244961 -4.170565,5.34497 -5.323451,6.895791 -0.836088,1.124663 -1.018828,1.150416 -2.095513,0.712263 -1.152179,-0.469198 -3.026147,-1.452748 -4.133523,-2.105391 -0.663226,-0.390528 -1.076685,-0.39723 -1.557524,0.182034 -1.340916,1.615027 -3.61035,5.03664 -4.495475,5.191158 -1.595271,0.279049 -8.7433,-3.289673 -9.456974,-3.590948 -1.615027,1.007187 -6.789604,7.640862 -8.434264,7.800319 C 32.390715,99.942257 24.540655,94.454764 22.497,91.75"
     fill="#0d131a"
     id="path620"
     style="stroke-width:0.35278" />
  <path
     d="m 130.43,96.66 c -0.3108,-0.282577 -0.50342,-0.519292 -1.2185,-0.45297 -13.13647,1.212505 -36.361037,16.14145 -36.83729,19.78284 -0.158398,1.21357 1.49861,5.50408 2.653964,7.84513 -1.741675,1.02976 -8.139693,4.66869 -8.357005,5.60955 -0.200026,0.86784 1.938879,6.32464 3.774393,8.72813 -0.976848,1.43758 -3.45548,3.90422 -5.126599,5.43846 l 1.17758,0.75847 c 1.87185,-1.7586 4.270402,-4.5939 5.08109,-5.95774 0.161573,-0.27164 0.18521,-0.35173 -0.05574,-0.63077 -1.69793,-1.9657 -3.344002,-7.02315 -3.400094,-7.90122 0.68651,-0.78388 5.968685,-4.28592 7.888867,-5.36578 0.40746,-0.22931 0.389821,-0.40147 0.209551,-0.73132 -1.199452,-2.20028 -2.421129,-6.7769 -2.305065,-7.6659 0.377828,-2.89668 22.235368,-17.243538 35.313278,-18.444401 0.34361,-0.0314 0.44874,-0.02434 0.67522,0.238832 3.80403,4.430919 2.57494,16.911569 0.7927,17.862659 -2.43066,1.29576 -18.03094,3.07307 -26.84162,7.58195 -0.32667,0.16687 -0.33691,0.24765 -0.29069,0.56127 0.0459,0.31327 0.7934,5.99585 0.66605,6.29254 -0.12665,0.29528 -7.23411,3.02474 -8.813153,3.61176 -0.34643,0.12877 -0.428981,0.254 -0.335847,0.66676 0.342197,1.51977 0.899236,4.505 0.878422,4.73219 -0.02646,0.29351 -4.872597,4.57767 -7.022438,6.36662 l 0.9518,0.52846 c 2.326584,-1.9544 7.091937,-5.73338 7.360755,-6.2181 0.366538,-0.66005 -0.637121,-3.97195 -0.98849,-5.22502 8.556331,-3.02192 8.977901,-3.42797 9.153941,-3.70172 0.28187,-0.43816 -0.68334,-6.58076 -0.72073,-6.82277 10.41653,-4.3466 24.92708,-6.08016 26.97779,-7.081 2.39008,-1.16558 3.93244,-15.70471 -1.24285,-20.40691"
     fill="#0d131a"
     id="path624"
     style="stroke-width:0.35278" />
  <path
     d="m 28.208,74.4 1.701458,5.113546 0.632534,-2.556949 -1.166996,-2.240506 z"
     fill="#0d131a"
     id="path628"
     style="stroke-width:0.35278" />
  <path
     d="m 55.057,71.24 2.583408,1.976979 -1.29188,0.764474 -1.792123,-1.067512 0.131587,-2.253911 z"
     fill="#0d131a"
     id="path632"
     style="stroke-width:0.35278" />
  <path
     d="m 57.218,61.486 -2.135377,1.950521 1.014948,1.977332 1.120429,-0.84385 1.7131,-0.685099 z"
     fill="#0d131a"
     id="path636"
     style="stroke-width:0.35278" />
</svg>
