<?xml version="1.0" encoding="UTF-8"?>
<!-- Created with Inkscape (http://www.inkscape.org/) -->
<svg version="1.1" viewBox="0 0 90.123 107.89" xmlns="http://www.w3.org/2000/svg">
 <g transform="translate(-3.8919 -4.2876)">
  <g transform="matrix(.71936 0 0 -.71936 90.192 4.7473)">
   <path d="m0 0c-1.441-0.139-0.93-7.021-2.046-9.438-0.536-1.162-3.44-1.534-4.463-3.626-0.858-1.757 0.419-5.347-1.07-8.323-0.726-1.452-5.067-2.557-7.81-7.206-1.502-2.545-5.491-6.085-9.578-9.206-2.248-1.717-5.395-5.123-8.208-8.102-5.831 4.358-19.85 9.684-25.317 9.846-7.247 6.58-21.85 19.591-24.312 19.367-1.869-0.17-6.047-1.71-8.836-3.763-2.106 0.412-5.091 1.068-6.369 0.672-2.856-0.883-4.05-5.348-4.933-5.97-0.882-0.623-2.491-0.935-3.582-2.181-1.09-1.246-3.01-6.333-2.439-6.593 0.882 0.363 4.412 1.298 6.748 1.142 2.337-0.156 3.817-0.933 4.465-0.83 0.987 0.155 2.921 2.055 3.686 2.232 0.606 0.14 5.028-0.516 6.97-0.801 1.529-3.504 6.159-11.236 7.549-15.028-4.135-4.12-8.577-9.597-9.739-13.859-2.262-8.296 2.328-19 10.739-29.813-8.711-9.312-15.845-25.458-19.277-38.373-7.43-4.58-20.979-9.447-20.828-10.787 0.214-1.894 16.365 0.28 23.014 1.721-0.186-1.442-1.116-8.183 0.186-8.648 1.955-0.697 12.785 4.185 16.551 5.812 1.022-0.419 7.531-6.323 8.694-6.509 1.163-0.187 10.926 5.067 13.204 6.044 2.277-1.256 12.739-6.23 13.901-5.951 1.162 0.278 2.046 3.719 1.86 6.276 3.44-0.278 19.945-2.743 20.271-0.558 0.283 1.906-8.992 6.871-16.57 10.033-2.192 9.942-5.881 20.024-11.348 28.102 0.76 0.623 1.552 1.472 1.696 2.268 0.095 0.521-0.222 0.921-0.763 1.262l0.354 0.88c13.591 0.502 24.432 9.504 26.585 13.107 3.729 6.239 3.149 15.241 1.72 21.433 11.67 9.81 10.228 15.575 12.227 19.527 1.096 2.166 2 2.511 3.208 7.021 0.877 3.268 2.929 5.021 3.488 6.462 1.999 5.16 1.116 13.483 1.441 16.179 0.124 1.032 1.349 3.998 1.953 4.975 0.386 0.624 1.348 0.743 1.58 1.534 0.281 0.954-3.399 9.786-4.602 9.67" fill="#efeaba"/>
  </g>
  <g transform="matrix(.71936 0 0 -.71936 90.96 16.386)">
   <path d="m0 0c0.124 1.032 1.349 3.998 1.953 4.975 0.386 0.624 1.348 0.743 1.58 1.534 0.015 0.049 0.016 0.125 0.011 0.214-1.118 0.323-1.998 0.245-2.745-0.718-0.615-0.79-1.769-2.984-2.543-5.416-1.544-4.856 1.879-11.496-3.98-19.124-1.191-1.551-1.797-6.386-3.647-8.622-2.653-3.205-3.095-10.832-6.964-14.259-2.694-2.386-5.093-5.495-4.651-7.595l0.662-0.364c-0.014 0.061-0.026 0.126-0.04 0.187 11.67 9.81 10.228 15.575 12.228 19.527 1.095 2.165 1.999 2.51 3.207 7.02 0.877 3.268 2.929 5.021 3.488 6.462 1.999 5.161 1.116 13.483 1.441 16.179" fill="#c9c59d"/>
  </g>
  <g transform="matrix(.71936 0 0 -.71936 23.469 23.993)">
   <path d="m0 0c-2.43-0.148-4.201-3.647-5.638-4.09-1.437-0.442-3.648 0.774-5.085 0.332-1.442-0.443-3.945-2.133-5.571-3.869 0.017-0.069 0.041-0.122 0.084-0.141 0.882 0.363 4.412 1.297 6.749 1.142 2.336-0.156 3.816-0.933 4.464-0.831 0.987 0.156 2.921 2.056 3.686 2.232 0.607 0.14 5.028-0.516 6.97-0.8 1.529-3.505 6.159-11.236 7.549-15.028 1.161 1.164 3.704 3.367 3.704 3.367-2.874 3.316-5.97 8.668-7.185 11.386-2.321 5.195-6.08 6.521-9.727 6.3" fill="#c9c59d"/>
  </g>
  <g transform="matrix(.71936 0 0 -.71936 29.858 54.657)">
   <path d="m0 0c-0.341 0-0.686 0.058-1.055 0.177-0.922 0.299-1.738 0.795-2.226 1.091-0.64 0.388-1.067 1.016-1.221 1.755-0.075 0.054-0.149 0.108-0.221 0.163-0.891 0.668-1.238 1.884-0.868 3.036-0.186 0.567-0.195 1.236-8e-3 1.949 0.144 0.546 0.371 0.971 0.645 1.292 6e-3 0.036 0.014 0.072 0.021 0.109 0.067 0.314 0.164 0.605 0.288 0.868-0.041 0.308-0.034 0.649 0.036 1.026 0.153 0.832 0.531 1.515 1.048 1.968 0.347 0.706 0.976 1.415 1.762 1.764 0.469 0.826 1.419 1.452 2.267 1.717 0.776 0.95 2.194 1.533 2.99 1.622 0.892 0.457 2.08 0.582 3.108 0.582 0.225 0 0.566-0.015 0.934-0.146 1.06-0.376 1.669-0.808 2.124-1.181 0.709-0.58 1.019-1.597 1.064-2.354 0.293-0.682 0.357-1.473 0.271-2.102 0.367-1.284-0.134-2.786-0.197-2.961 0.107-0.907-0.194-1.745-0.248-1.886-0.366-0.957-1.05-1.437-1.704-1.606-0.178-0.236-0.386-0.442-0.617-0.612-0.124-0.37-0.31-0.737-0.551-1.064 0.066-0.446 0.021-0.918-0.145-1.378-0.388-1.074-1.314-1.826-2.359-1.943-0.531-0.572-1.286-0.915-1.927-1.045-0.633-0.499-1.483-0.778-2.283-0.778-0.094 0-0.188 4e-3 -0.28 0.012-0.209-0.05-0.426-0.075-0.648-0.075" fill="#3c0069"/>
  </g>
  <g transform="matrix(.71936 0 0 -.71936 30.164 52.962)">
   <path d="m0 0c-0.201-0.262-0.533-0.215-0.817-0.123-0.691 0.224-1.357 0.632-1.788 0.894-0.334 0.202-0.249 0.907-0.062 1.008-0.416 0.241-0.817 0.502-1.186 0.78-0.338 0.253-0.061 1.124 0.338 1.048 0.324-0.061 1.11-0.2 1.773-0.324-0.603 0.368-1.562 0.807-2.127 1.126-0.309 0.174-0.019 1.478 0.323 1.387 0.515-0.136 1.504-0.398 2.506-0.723-0.789 0.442-1.527 0.823-2.113 1.084-0.322 0.142 0.034 1.39 0.381 1.346 0.459-0.063 1.394-0.269 2.503-0.55-0.981 0.523-1.892 0.972-2.533 1.216-0.346 0.133 0.052 1.43 0.413 1.348 0.325-0.075 1.113-0.284 2.111-0.563-0.734 0.355-1.362 0.636-1.768 0.779-0.362 0.126 0.522 1.273 0.89 1.165 0 0 3.13-0.761 4.408-1.156-1.14 0.663-2.897 1.61-3.56 1.896-0.339 0.146 0.863 0.982 1.218 0.894 0.469-0.118 2.936-1.006 4.608-1.48-0.777 0.489-3.27 1.707-3.822 1.973-0.327 0.158 1.232 1.091 1.587 1.002 0.303-0.078 0.304-0.01 1.179-0.288-0.06 0.044-0.542 0.328-0.593 0.365-0.278 0.201 2.156 0.594 2.481 0.478 0.74-0.262 1.142-0.539 1.48-0.817 0.187-0.153 0.355-0.909 0.247-0.956-0.108-0.046-0.527 0.117-0.586 0.093 0.228-0.181 0.569-0.399 0.678-0.494 0.258-0.225 0.365-1.479 0.047-1.356-0.123 0.047-0.521 0.129-0.733 0.202 0.546-0.397 0.719-0.536 0.917-0.741 0.231-0.238 0.064-1.954-0.246-1.835-0.551 0.213-1.367 0.713-2.39 1.018 1.398-0.889 1.856-1.254 2.328-1.68 0.255-0.229 6e-3 -1.521-0.311-1.392-0.386 0.155-1.015 0.384-2.036 0.723 0.495-0.286 0.697-0.522 0.945-0.688 0.455-0.303-0.159-1.305-0.663-1.094-0.598 0.246-1.266 0.395-2.231 0.704 0.804-0.481 1.483-0.906 1.9-1.186 0.302-0.203-0.333-1.377-0.668-1.237-0.738 0.31-1.804 0.66-2.924 0.992 1.163-0.736 2.161-1.479 2.828-2.032 0.441-0.366-0.156-1.333-0.678-1.095-0.658 0.301-1.584 0.578-2.582 0.941 0.465-0.323 1.214-1.155 1.503-1.388 0.275-0.221-0.743-0.797-1.07-0.657-0.228 0.096-0.521 0.205-0.855 0.321 0.035-0.029 0.383-0.265 0.368-0.527-0.014-0.241-1.008-0.782-1.618-0.401" fill="#d18200"/>
  </g>
  <g transform="matrix(.71936 0 0 -.71936 64.973 71.876)">
   <path d="m0 0c-0.026 0-2.32 0.104-3.421 1.261-0.689 0.351-1.215 0.984-1.521 1.591-0.415 0.362-0.708 0.846-0.969 1.274-0.099 0.165-0.207 0.342-0.319 0.513-0.155 0.237-0.307 0.45-0.44 0.637-0.163 0.227-0.344 0.481-0.5 0.76-0.633 0.497-1.07 1.401-1.306 2.701-0.421 2.323 0.531 3.2 1.404 3.527 0.01 3e-3 0.019 7e-3 0.028 0.01-0.386 0.413-0.673 0.915-0.826 1.415-0.214 0.699-0.166 1.397 0.11 1.982-1e-3 8e-3 -3e-3 0.016-4e-3 0.023-0.158 0.898 0.449 2.647 1.39 3.66 0.181 1.788 2.519 3.198 2.967 3.331 0.336 0.1 0.599 0.165 0.848 0.218 0.413 0.568 1.055 0.969 1.859 1.152 0.948 0.215 2.479 0.232 2.925 0.232 1.127 0 2.714-0.079 3.877-0.455 0.794-0.258 1.416-0.772 1.765-1.412 0.032-0.013 0.064-0.026 0.096-0.04 1.06-0.456 1.776-1.542 1.83-2.676 0.761-0.775 1.021-1.989 1.008-2.675-4e-3 -0.254-0.041-0.489-0.102-0.705 0.148-0.367 0.232-0.77 0.234-1.192 5e-3 -0.754-0.261-1.424-0.711-1.913 1e-3 -5e-3 1e-3 -9e-3 1e-3 -0.013 0.026-0.741-0.219-1.414-0.654-1.921 0.339-0.488 0.526-1.078 0.505-1.7-0.022-0.634-0.249-1.211-0.626-1.668-0.049-1.019-0.596-1.889-1.439-2.363-0.267-0.954-0.998-1.708-1.953-1.945l-0.092-0.023c-0.17-0.843-0.714-1.569-1.518-1.939-0.018-8e-3 -0.035-0.016-0.053-0.023-0.416-0.419-0.895-0.58-1.091-0.646-0.691-0.249-1.509-0.519-2.208-0.749l-0.341-0.112c-0.218-0.072-0.523-0.117-0.753-0.117" fill="#3c0069"/>
  </g>
  <g transform="matrix(.71936 0 0 -.71936 63.641 69.907)">
   <path d="m0 0c-0.088 0.195 0.716 0.409 1.003 0.574-0.53-0.051-1.029-0.107-1.422-0.165-0.341-0.046-1.065 0.951-0.759 1.109 0.302 0.157 0.688 0.324 1.104 0.492-0.442-0.112-1.182-0.238-1.532-0.287-0.166-0.023-0.535 0.707-0.964 1.363-0.541 0.826-1.05 1.394-0.963 1.584 0.058 0.126 1.625 0.53 2.844 0.838-1.249-0.149-2.235-0.31-3.234-0.505-0.36-0.07-0.885 2.372-0.539 2.502 0.952 0.357 2.128 0.755 3.422 1.155-0.62-0.1-1.151-0.197-1.547-0.288-0.361-0.083-0.407 1.425-0.059 1.555 0.758 0.283 3.076 1.308 5.619 2.042-2.29-0.159-4.589-0.881-6.07-1.217-0.45-0.104-1.222 1.066-0.745 1.389 0.929 0.631 2.432 1.239 4.406 1.732-1.321-0.143-3.18-0.422-4.268-0.608-0.36-0.059 0.539 1.884 0.883 2.008 1.178 0.429 2.49 0.803 3.523 1.145-0.895-0.204-1.531-0.336-2.028-0.436-0.431-0.086-0.99 0.129-1.047 0.427s1.223 1.407 1.434 1.469c0.712 0.212 0.959 0.22 2 0.434-0.29 0.472 0.043 0.781 0.571 0.9 0.948 0.216 4.15 0.316 5.658-0.172 0.581-0.188 0.933-0.791 0.043-1.005 0.676-0.05 1.091-0.143 1.627-0.374 0.571-0.246 0.86-1.339-0.085-1.402-0.724-0.048-1.988-0.22-3.237-0.464 2.028 0.026 3.031-0.125 4.325-0.271 0.363-0.041 0.749-1.44 0.385-1.466-1.999-0.146-3.288-0.331-5.255-0.704 2.496 0.143 3.73 0.012 4.867-0.07 0.705-0.051 0.948-1.407 0.244-1.466-0.605-0.051-1.56-0.182-2.597-0.385 0.415-0.046 0.98-0.156 1.546-0.192 0.818-0.049 1.084-1.356 0.276-1.463-1.737-0.229-4.547-0.506-6.275-0.947 1.117 0.054 3.109-0.031 4.123-0.081 0.388-0.019 1.165-0.34 0.889-0.996 0.359-1e-3 0.732-0.057 0.99-0.115 0.8-0.177 0.822-1.2 0.029-1.321-0.259-0.04-0.533-0.054-0.775-0.115 0.877-0.124 1.02-1.426 0.146-1.589-0.421-0.078-0.872-0.189-1.294-0.273 0.763-0.203 0.657-1.24 0.126-1.372-0.931-0.231-1.841-0.424-2.949-0.779 0.454 0.026 0.665-0.039 0.671-0.039 0.609 0 0.846-1.02 0.285-1.278-0.195-0.089-0.392-0.114-0.674-0.153 0.136-0.34-0.086-0.369-0.331-0.457-0.754-0.272-1.72-0.586-2.461-0.831-0.23-0.076-1.841 0.373-1.929 0.568" fill="#d18200"/>
  </g>
  <g transform="matrix(.71936 0 0 -.71936 23.385 23.681)">
   <path d="m0 0c0.121 0.726 1.817 2.544 2.803 4.257 0.622 1.079 1.355 2.379 1.995 3.678-1.255-0.584-2.511-1.288-3.568-2.065-2.106 0.411-5.091 1.067-6.37 0.671-2.855-0.882-4.05-5.347-4.932-5.97s-2.492-0.935-3.582-2.181-3.01-6.333-2.439-6.593c0.882 0.364 4.412 1.298 6.748 1.142 2.337-0.155 3.817-0.932 4.465-0.83 0.986 0.155 2.92 2.055 3.686 2.232 0.359 0.083 2.052-0.113 3.777-0.346-0.839 1.861-2.997 3.52-2.583 6.005" fill="#30363a"/>
  </g>
  <g transform="matrix(.71936 0 0 -.71936 19.875 29.357)">
   <path d="m0 0c0.986 0.156 2.92 2.056 3.686 2.232 0.358 0.083 2.052-0.113 3.777-0.345-0.786 1.743-2.731 3.31-2.631 5.546-2.346-0.292-4.069-3.634-5.473-4.066-1.437-0.442-3.648 0.774-5.085 0.332-1.442-0.443-3.945-2.133-5.571-3.869 0.017-0.069 0.041-0.122 0.083-0.142 0.883 0.364 4.413 1.298 6.749 1.143 2.336-0.156 3.816-0.933 4.465-0.831" fill="#232528"/>
  </g>
  <g transform="matrix(.71936 0 0 -.71936 89.924 28.024)">
   <path d="m0 0c1.999 5.16 1.116 13.482 1.441 16.179 0.124 1.031 1.349 3.998 1.953 4.974 0.386 0.625 1.348 0.744 1.581 1.535 0.28 0.954-3.399 9.786-4.603 9.67-1.441-0.14-0.93-7.021-2.046-9.439-0.536-1.161-3.44-1.533-4.463-3.626-0.858-1.756 0.419-5.347-1.069-8.322-0.727-1.452-5.068-2.557-7.811-7.206-0.053-0.089-0.115-0.181-0.173-0.272 3.666-0.336 6.928-2.908 7.531-7.129 0.159-1.115 0.564-4.522 2.945-6.39 0.385 0.827 0.785 1.916 1.227 3.563 0.876 3.269 2.928 5.022 3.487 6.463" fill="#30363a"/>
  </g>
  <g transform="matrix(.71936 0 0 -.71936 90.96 16.386)">
   <path d="m0 0c0.124 1.032 1.349 3.998 1.953 4.975 0.386 0.624 1.348 0.743 1.58 1.534 0.015 0.049 0.016 0.125 0.011 0.214-1.118 0.323-1.998 0.245-2.745-0.718-0.615-0.79-1.769-2.984-2.543-5.416-1.544-4.856 1.879-11.496-3.98-19.124-0.781-1.018-1.313-3.449-2.109-5.633 0.408-0.75 0.95-1.465 1.678-2.037 0.385 0.828 0.785 1.916 1.226 3.564 0.877 3.268 2.929 5.021 3.488 6.462 1.999 5.161 1.116 13.483 1.441 16.179" fill="#232528"/>
  </g>
  <g transform="matrix(.71936 0 0 -.71936 36.558 94.102)">
   <path d="m0 0c-0.722 0-1.404 0.302-1.92 0.849-1.304 1.382-1.413 4.515-1.274 6.899 0.288 4.975 1.657 7.498 4.066 7.498 0.026 0 0.075-1e-3 0.1-2e-3 0.691-0.025 1.339-0.332 1.825-0.864 1.247-1.365 1.352-4.484 1.222-6.86-0.27-4.884-1.583-7.413-3.903-7.517-0.033-2e-3 -0.084-3e-3 -0.116-3e-3" fill="#3c0069"/>
  </g>
  <g transform="matrix(.71936 0 0 -.71936 37.203 84.689)">
   <path d="m0 0c0.796-0.029 1.115-2.735 0.966-5.447-0.15-2.712-0.767-5.429-1.843-5.478-0.877-0.04-1.216 2.711-1.056 5.462 0.159 2.751 0.817 5.503 1.933 5.463" fill="#30363a"/>
  </g>
  <g transform="matrix(.71936 0 0 -.71936 46.622 94.54)">
   <path d="m 0,0 c -2.262,0 -3.503,2.348 -3.793,7.179 -0.393,6.522 1.336,7.599 2.671,7.842 0.128,0.024 0.334,0.042 0.464,0.042 2.183,0 3.55,-2.364 4.063,-7.026 C 4.111,1.604 1.84,0.262 0.423,0.034 0.31,0.016 0.115,0 0,0" fill="#3c0069"/>
  </g>
  <g transform="matrix(.71936 0 0 -.71936 46.094 85.262)">
   <path d="m0 0c0.877 0.159 1.699-2.424 1.993-5.096 0.293-2.672 0.059-5.435-1.177-5.634-0.958-0.154-1.556 2.456-1.718 5.141-0.161 2.686 0.114 5.445 0.902 5.589" fill="#30363a"/>
  </g>
  <g transform="matrix(.71936 0 0 -.71936 10.977 52.017)">
   <path d="m0 0c-5.14-0.779-9.048-11.699-8.839-18.276 1.336-1.843 15.226-16.846 18.289-19.488-1.312-1.016-3.974-2.97-4.116-3.781-0.207-1.188 3.894-5.607 6.518-8.32-1.436-1.116-3.145-2.411-3.225-3.289-0.063-0.699 2.807-5.392 4.34-8.04l5.636 15.056c-1.067 1.814-2.263 3.647-3.223 5.216 3.582 2.414 6.517 4.753 6.771 7.271 0.276 2.736-15.337 31.821-22.151 33.651" fill="#756550"/>
  </g>
  <g transform="matrix(.71936 0 0 -.71936 33.435 106.72)">
   <path d="m0 0c-1.267-0.548-3.335-1.464-5.595-2.412 1.606-1.331 4.33-3.153 4.863-3.153 0.489 0 2.875 1.491 4.31 2.81-1.637 1.342-3.131 2.572-3.578 2.755" fill="#30363a"/>
  </g>
  <g transform="matrix(.71936 0 0 -.71936 67.287 107.56)">
   <path d="m0 0c-3.999 0.385-7.915 0.911-9.399 1.032 0.099-1.367-0.109-2.983-0.5-4.237 3.735-1.101 12.393-1.313 12.686-0.8 0.35 0.612-1.286 2.575-2.787 4.005" fill="#30363a"/>
  </g>
  <g transform="matrix(.71936 0 0 -.71936 21.395 104.68)">
   <path d="m0 0c-2.299-0.498-5.735-1.084-9.254-1.559-0.858-2.114-1.974-4.678-1.685-4.935 0.48-0.427 6.835 1.266 10.536 2.78 0.12 1.599 0.326 3.115 0.403 3.714" fill="#30363a"/>
  </g>
  <g transform="matrix(.71936 0 0 -.71936 49.187 107.05)">
   <path d="m0 0c-0.978-0.419-3.338-1.628-5.803-2.855 2.418-1.339 7.71-3.691 8.092-3.725 0.36-0.033 2.069 2.141 2.927 4.015-2.282 1.064-4.346 2.086-5.216 2.565" fill="#30363a"/>
  </g>
  <g transform="matrix(.71936 0 0 -.71936 57.42 83.797)">
   <path d="m0 0c-1.029 1.936-2.135 3.804-3.331 5.571 0.761 0.624 1.552 1.472 1.697 2.268 0.095 0.521-0.222 0.921-0.764 1.262l0.354 0.881c9.743 0.36 18.933 5.415 25.592 11.095-19.881-12.652-56.518-0.874-67.84 22.123 0.205-7.383 4.505-16.051 11.303-24.791-1.507-1.611-2.965-3.43-4.366-5.398 9.218 0.058 27.043-4.498 37.355-13.011" fill="#c9c59d"/>
  </g>
  <g transform="matrix(.71936 0 0 -.71936 18.044 79.219)">
   <path d="m0 0c0.65 0.391 0.562 1.769-0.941 3.46-2.487 2.798-11.52 14.514-13.342 18.224-1.888-1.693-2.971-2.601-4.379-1.702 0 0 14.078-16.846 18.662-19.982" fill="#635442"/>
  </g>
  <g transform="matrix(.71936 0 0 -.71936 21.652 81.514)">
   <path d="M 0,0 C -0.275,0.619 0.903,2.057 2.162,2.938 3.53,3.897 6.532,6.325 7.082,8.388 7.495,6.395 6.188,3.163 0,0" fill="#635442"/>
  </g>
  <g transform="matrix(.71936 0 0 -.71936 15.372 81.395)">
   <path d="m0 0c0.281-1.124 4.678-6.05 5.673-7.061 1.107-1.123 0.831-2.131 0.281-2.406 0 0-6.884 7.121-6.73 8.761z" fill="#635442"/>
  </g>
  <g transform="matrix(.71936 0 0 -.71936 17.647 89.897)">
   <path d="m0 0c0.228-0.878 3.232-5.251 4.391-6.217l-0.615-2.249c-2.441 3.215-4.145 7.254-3.776 8.466" fill="#635442"/>
  </g>
  <g transform="matrix(.71936 0 0 -.71936 5.0448 105.9)">
   <path d="M 0,0 C 2.952,-0.321 17.113,2.749 20.503,3.69 21.641,4.006 23.214,3.241 23.214,1.788 19.55,0.841 0.94,-2.202 0,0" fill="#c9c59d"/>
  </g>
  <g transform="matrix(.71936 0 0 -.71936 34.873 106.1)">
   <path d="m0 0c-1.429 1.406-2.548 1.28-4.16 0.401-3.374-1.838-11.595-5.898-14.528-6.275 1.23-2.402 12.436 2.957 16.689 5.019 0.795-0.823 8.256-6.108 8.86-6.043 0.183 0.986-4.561 4.635-6.861 6.898" fill="#c9c59d"/>
  </g>
  <g transform="matrix(.71936 0 0 -.71936 60.17 106.59)">
   <path d="M 0,0 C -0.089,1.314 1.346,2.399 3.076,2.12 4.519,1.887 19.31,-1.297 20.714,-0.727 20.402,-1.973 16.873,-2.44 0,0" fill="#c9c59d"/>
  </g>
  <g transform="matrix(.71936 0 0 -.71936 48.945 106.79)">
   <path d="m0 0c0.879 0.835 2.447 1.027 3.334 0.556 1.487-0.79 10.059-5.065 11.155-6.396-1.277-0.292-13.102 4.344-14.489 5.84" fill="#c9c59d"/>
  </g>
  <g transform="matrix(.71936 0 0 -.71936 30.384 109.15)">
   <path d="m0 0c0.84 0.693 4.234 2.263 7.153-0.146l0.694 0.474-3.723 2.993-5.437-2.227z" fill="#232528"/>
  </g>
  <g transform="matrix(.71936 0 0 -.71936 46.832 109.98)">
   <path d="m0 0c0.656 0.456 3.847 2.508 7.553 0.228l0.684 1.283-4.963 2.56-5.803-2.855z" fill="#232528"/>
  </g>
  <g transform="matrix(.71936 0 0 -.71936 61.697 110.25)">
   <path d="m0 0c0.11 1.671 2.647 3.091 9.121 2.053l-0.656 1.538-9.947 0.941-0.855-3.905z" fill="#232528"/>
  </g>
  <g transform="matrix(.71936 0 0 -.71936 14.58 105.86)">
   <path d="m0 0 9.377 1.596-0.256-3.99-2.451-0.627c-0.371 0.883-1.511 2.195-7.211 1.339z" fill="#232528"/>
  </g>
  <g transform="matrix(.71936 0 0 -.71936 45.595 89.838)">
   <path d="m0 0c-1.178 0.046-2.102 1.028-2.075 2.208 0 0.011 2e-3 0.059 3e-3 0.096 2e-3 0.138-5e-3 0.327-0.011 0.548-0.061 2.03-0.143 4.81 2.092 5.557 0.269 0.09 0.547 0.135 0.827 0.135 2.054 0 3.317-2.098 3.555-5.907 0.068-1.096-0.696-2.068-1.776-2.262-0.128-0.022-0.256-0.033-0.382-0.033-0.271 0-0.535 0.051-0.779 0.146-0.374-0.307-0.852-0.49-1.368-0.49-0.029 0-0.057 1e-3 -0.086 2e-3" fill="#3c0069"/>
  </g>
  <g transform="matrix(.71936 0 0 -.71936 45.656 88.285)">
   <path d="M 0,0 C 0.043,1.893 1.506,2.494 2.151,0.344 2.022,2.408 1.419,4.473 0.609,4.202 -0.295,3.9 0.043,0.774 0,0" fill="#232528"/>
  </g>
  <g transform="matrix(.71936 0 0 -.71936 36.128 87.828)">
   <path d="m0 0m2.231-2.237c-0.442 0-0.859 0.135-1.207 0.37-0.319-0.182-0.686-0.284-1.068-0.284-0.105 0-0.211 7e-3 -0.317 0.024-1.094 0.16-1.889 1.121-1.844 2.226 0.044 1.051 0.426 6.295 3.668 6.295 0.158 0 0.397-0.027 0.551-0.061 2.513-0.56 2.445-3.559 2.379-6.459-0.026-1.119-0.903-2.034-2.02-2.106-0.047-3e-3 -0.094-5e-3 -0.142-5e-3" fill="#3c0069"/>
  </g>
  <g transform="matrix(.71936 0 0 -.71936 36.094 87.821)">
   <path d="M 0,0 C 0.478,1.863 1.913,2.294 2.28,-0.086 2.323,1.806 2.366,4.043 1.592,4.215 0.817,4.388 0.086,2.065 0,0" fill="#232528"/>
  </g>
  <g transform="matrix(.71936 0 0 -.71936 67.731 39.385)">
   <path d="m0 0c-4.52 4.354-20.894 11.39-27.518 11.679-3.416 0.149-3.339 0.755 0.07 0.869 7.363 0.248 23.752-6.625 28.012-12.055 1.615-2.058 1.217-2.208-0.564-0.493" fill="#0f141b"/>
  </g>
  <g transform="matrix(.71936 0 0 -.71936 90.155 4.3678)">
   <path d="m0 0c-1.9-0.184-1.425-7.274-2.565-9.744-0.614-1.332-3.531-1.461-4.548-3.544-0.817-1.671 0.485-5.645-0.888-8.389-0.377-0.754-5.389-2.865-7.883-7.092-1.277-2.164-4.616-5.38-9.429-9.056-1.815-1.386-7.107-6.497-8.37-7.836l1.523-1.162c1.654 1.792 5.634 6.431 7.645 7.967 2.848 2.175 7.928 6.326 9.741 9.398 2.925 4.958 6.689 5.243 7.72 7.307 1.52 3.038 0.194 6.008 1.27 8.212 1.01 2.068 3.581 2.132 4.304 3.697 1.075 2.329 0.606 8.95 1.55 9.161 0.609 0.136 4.063-7.245 3.909-8.87-0.183-0.733-1.071-0.877-1.404-1.416-0.609-0.985-1.843-4.123-1.981-5.276-0.417-3.478 0.354-10.698-1.633-15.982-0.8-2.13-2.462-3.019-3.399-6.516-1.199-4.478-1.273-3.473-3.051-6.988-1.957-3.867-0.595-9.346-12.075-18.997-0.447-0.375-0.329-0.682-0.199-1.242 0.714-3.092 2.421-13.225-1.941-20.523-2.248-3.766-14.086-13.551-28.206-13.019-1.212 0.104-1.329-0.595-0.196-1.029 0.792-0.303 2.37-0.882 2.323-1.549-0.054-0.769-0.999-1.791-1.934-2.531-1.263-1-0.779-1.311 0.458-0.593 1.254 0.729 2.618 1.971 2.8 2.969 0.135 0.745-0.404 1.256-1.006 1.677 13.687 0.546 24.89 9.16 27.234 13.083 4.425 7.403 2.495 18.021 1.711 21.568 11.553 9.811 9.942 15.686 11.976 19.708 1.593 3.151 2.259 2.938 3.37 7.084 0.883 3.293 2.598 4.006 3.492 6.301 2 5.144 1.043 14.089 1.328 16.452 0.109 0.904 1.354 3.754 1.941 4.702 0.343 0.554 1.626 0.829 1.775 1.656 0.146 0.809-3.504 10.602-5.362 10.412" fill="#0f141b"/>
  </g>
  <g transform="matrix(.71936 0 0 -.71936 63.634 99.655)">
   <path d="m0 0c-2.435 10.92-6.488 20.44-11.452 27.798l-0.825-0.676c4.886-7.312 8.567-17.044 10.962-27.904 0.037-0.169 0.154-0.308 0.313-0.375 10.916-4.554 16.75-8.452 16.438-9.253-0.536-1.374-16.199 0.742-19.667 1.171-0.446 0.055-0.659-0.212-0.62-0.76 0.138-1.894-0.986-5.251-1.538-5.372-0.622-0.136-9.959 3.701-13.054 5.341-0.537 0.284-0.654 0.329-1.223 0.054-2.093-1.009-11.467-5.696-12.542-5.584-0.58 0.06-7.469 5.527-8.084 5.945-0.503 0.342-0.659 0.405-1.145 0.181-6.669-3.064-14.584-5.901-15.623-5.361-0.549 0.285-0.754 3.427-0.156 7.567 0.083 0.568-0.108 0.997-0.914 0.83-8.593-1.819-21.84-3.251-21.977-2.251-0.073 0.536 16.788 7.744 20.358 9.894 0.432 0.26 0.505 0.423 0.617 0.839 2.834 10.516 9.949 28.447 18.892 38.007 0.228 0.244 0.234 0.427 0.031 0.688-9.033 11.613-12.43 21.712-10.361 29.299 1.701 6.237 11.15 16.151 15.642 19.199 2.225 1.515 1.804 2.187-0.425 0.68-4.434-3.01-15.015-12.75-16.855-19.5-2.138-7.842 1.843-18.233 10.888-29.973-9.545-10.414-16.176-26.285-19.284-37.876-8.079-4.922-20.864-9.518-20.654-11.373 0.254-2.297 14.374-0.743 22.855 0.958-0.875-5.455-0.493-7.845 0.181-8.347 1.66-1.233 11.107 3.033 17.217 5.744 1.648-1.048 7.568-6.704 8.729-6.704 0.96 0 11.915 5.456 13.171 6.239 2.058-1.079 12.675-6.483 14.148-6.136 1.5 0.36 2.229 3.796 2.21 6.252 6.912-0.871 19.863-2.243 20.22 0.162 0.459 3.085-14.326 9.682-16.473 10.597" fill="#0f141b"/>
  </g>
  <g transform="matrix(.71936 0 0 -.71936 36.553 94.483)">
   <path d="m0 0c-0.777 0-1.524 0.338-2.103 0.952-1.45 1.539-1.807 4.81-1.657 7.359 0.381 6.607 2.733 7.995 4.639 7.995 0.883-0.027 1.653-0.39 2.235-1.025 1.549-1.688 1.594-5.274 1.484-7.262-0.073-1.33-0.638-7.972-4.566-8.019h-0.032" fill="#3c0069"/>
  </g>
  <g transform="matrix(.71936 0 0 -.71936 37.155 85.075)">
   <path d="m0 0c-0.313 0.018-1.102-1.63-1.295-4.956-0.172-2.965 0.225-4.895 0.496-4.896 0.272-1e-3 1.074 1.643 1.258 4.971 0.147 2.688-0.146 4.863-0.459 4.881m-0.831-10.919c-0.969-0.011-1.809 2.644-1.61 6.024 0.104 1.792 0.594 5.962 2.483 5.962 1.309-0.041 1.722-3.148 1.563-6.006-0.13-2.352-0.962-5.962-2.436-5.98" fill="#0f141b"/>
  </g>
  <g transform="matrix(.71936 0 0 -.71936 46.672 94.915)">
   <path d="m 0,0 c -3.688,0 -4.326,5.87 -4.434,7.669 -0.056,0.917 -0.242,5.589 1.542,7.484 0.584,0.621 1.353,0.963 2.166,0.963 3.145,0 4.256,-4.077 4.634,-7.498 C 4.727,1.13 1.392,0.145 0.351,0.021 0.266,0.011 0.085,0 0,0" fill="#3c0069"/>
  </g>
  <g transform="matrix(.71936 0 0 -.71936 46.167 85.654)">
   <path d="m0 0c-0.48-0.066-0.596-2.265-0.43-5.012 0.184-3.064 0.746-4.619 1.068-4.649 0.613-0.058 1.009 2.069 0.682 5.052-0.3 2.734-0.892 4.668-1.32 4.609m-1.576-5.076c-0.117 1.931 0.097 6.157 1.552 6.157 1.741 0 2.384-4.644 2.487-5.574 0.213-1.947 0.185-5.996-1.665-6.216-1.249-0.148-2.193 2.611-2.374 5.633" fill="#0f141b"/>
  </g>
  <g transform="matrix(.71936 0 0 -.71936 27.537 27.523)">
   <path d="m0 0c-0.589 1.891-1.083 1.82-0.75-0.214 0.385-2.347 6.649-12.673 7.65-16.277l1.104 1.133c-1.201 3.411-7.442 13.541-8.004 15.358" fill="#0f141b"/>
  </g>
  <g transform="matrix(.71936 0 0 -.71936 30.588 16.276)">
   <path d="m0 0c-2.429-0.221-6.619-2.068-9.663-4.596-1.523-1.264-1.023-1.833 0.535-0.614 2.775 2.171 7.377 3.701 9.254 3.872 0.586 0.029 3.723-1.103 23.168-18.726l2.059 0.126c-22.013 20.004-24.618 20.008-25.353 19.938" fill="#0f141b"/>
  </g>
  <g transform="matrix(.71936 0 0 -.71936 22.44 27.38)">
   <path d="m0 0c-1.14-0.264-2.586-1.828-3.679-2-0.621-0.101-2.797 0.497-4.317 0.61-3.236 0.241-6.202-1.104-6.339-1.022-0.138 0.082 1.535 4.596 2.472 5.465 1.126 1.044 3.021 1.923 3.41 2.228 0.753 0.589 2.33 4.968 4.857 5.765 1.011 0.318 3.443-0.04 5.329-0.414l1.164 0.852c-0.26 0.05-0.535 0.104-0.822 0.161-2.234 0.443-4.901 1.201-6.166 0.719-3.021-1.153-4.256-5.631-4.973-6.218-0.657-0.539-2.98-1.267-3.761-2.159-1.028-1.176-2.554-5.439-2.562-7.016-4e-3 -0.68 0.271-0.742 0.809-0.521 0.748 0.308 4.241 1.252 6.512 1.103 2.47-0.165 3.574-1.15 4.607-0.981 0.761 0.12 3.049 2.224 3.693 2.394 0.647 0.105 6.964-0.994 6.964-0.994l-0.522 1.429c-4.401 0.643-6.183 0.71-6.676 0.599" fill="#0f141b"/>
  </g>
  <g transform="matrix(.71936 0 0 -.71936 27.221 17.981)">
   <path d="m0 0-1.349-0.675c-0.984-2.574-4.279-6.014-4.507-7.161-0.515-2.596 1.342-3.917 2.431-5.737l1.038-0.104c-1.043 2.314-2.927 3.367-2.423 5.667 0.253 1.156 2.728 3.342 4.81 8.01" fill="#0f141b"/>
  </g>
  <g transform="matrix(.71936 0 0 -.71936 59.586 67.718)">
   <path d="m0 0c-1.409 0-2.197 0.937-2.534 1.338-0.706 0.839-2.486 3.622-3.494 5.271-0.635-0.219-1.314-0.511-1.897-0.762-0.338-0.146-0.653-0.282-0.933-0.394-0.426-0.17-0.873-0.256-1.329-0.256-0.981 0-1.93 0.41-2.602 1.125-0.204 0.217-0.63 0.749-2.099 2.601-0.996 1.256-2.349 2.962-2.759 3.429-0.455-0.134-0.979-0.294-1.547-0.467-3.645-1.113-6.82-2.034-8.747-2.034-0.691 0-1.261 0.117-1.742 0.357-0.898 0.449-1.983 1.368-4.483 7.104-1.192 2.737-2.316 5.717-2.506 6.362-0.246 0.835-0.066 1.742 0.492 2.489 0.944 1.261 2.812 1.941 4.091 1.941 1.657 0 2.542-1.004 2.819-1.945 0.504-1.714 2.26-5.78 3.495-8.282 0.94 0.225 2.158 0.521 3.373 0.818 3.208 0.782 4.66 1.132 5.095 1.204 0.364 0.06 0.687 0.089 0.994 0.089 1.556 0 2.445-0.759 2.979-1.329 0.297-0.318 0.781-0.925 1.609-1.971 0.783-0.988 1.722-2.174 2.449-3.015 1.964 0.536 3.64 0.804 5.012 0.804l0.296-4e-3c1.551-0.047 2.717-0.748 3.466-2.085 0.361-0.646 1.222-1.983 2.071-3.2 1.195 0.534 2.579 1.17 3.744 1.707 1.096 0.504 2.005 0.921 2.408 1.094 0.269 0.115 0.631 0.19 0.924 0.19 2.288 0 3.25-3.124 3.352-3.48 0.555-1.931-0.576-2.815-0.935-3.04-0.569-0.356-7.948-4.79-9.687-5.396-0.517-0.18-0.954-0.263-1.375-0.263" fill="#3c0069"/>
  </g>
  <g transform="matrix(.71936 0 0 -.71936 58.953 65.756)">
   <path d="m0 0c-0.7 0.832-3.01 4.478-3.785 5.807-0.259 0.445-0.492 0.538-0.918 0.446-1.383-0.295-3.006-1.092-4.078-1.522-0.541-0.216-1.156-0.079-1.554 0.344-0.381 0.404-4.123 5.216-4.863 6.036-0.658 0.73-1.057 0.913-2.047 0.624-2.989-0.871-9.249-2.993-10.592-2.322-1.681 0.841-5.606 11.204-5.883 12.144-0.309 1.05 2.949 2.316 3.258 1.266 0.653-2.221 2.973-7.449 4.186-9.716 0.175-0.327 0.279-0.431 0.7-0.335 1.984 0.447 8.778 2.148 9.505 2.27 1.054 0.173 1.528-0.039 2.039-0.586 0.62-0.663 3.154-4.036 4.516-5.498 0.437-0.467 0.479-0.445 1.077-0.269 1.654 0.486 3.691 0.945 5.288 0.897 0.707-0.021 1.219-0.221 1.644-0.981 0.499-0.891 1.814-2.91 2.923-4.413 0.202-0.271 0.39-0.372 0.732-0.224 2.311 0.996 6.327 2.89 7.304 3.309 0.529 0.227 1.733-2.271 1.344-2.515-1.302-0.813-7.951-4.733-9.251-5.186-0.847-0.295-1.082-0.127-1.545 0.424" fill="#0f141b"/>
  </g>
  <g transform="matrix(.71936 0 0 -.71936 41.456 49.893)">
   <path d="m0 0c-1.425 0-2.672 0.42-3.607 1.214-0.321 0.273-0.612 0.579-0.871 0.913-0.637 0.11-1.435 0.497-2.189 1.558-1.181 1.662-3.15 6.091 4.072 11.283 2.42 1.739 5.349 2.776 7.834 2.776 1.939 0 3.601-0.617 4.805-1.786 0.496-0.479 0.748-1.145 0.748-1.976 0-1.942-1.973-9.362-3.412-10.757-2.022-1.959-4.918-3.225-7.38-3.225" fill="#3c0069"/>
  </g>
  <g transform="matrix(.71936 0 0 -.71936 39.867 47.836)">
   <path d="m0 0c-0.942 0.801-1.502 2.066-1.535 3.471-0.038 1.589 0.623 3.138 1.811 4.249 2.576 2.408 6.778 2.934 7.971 1.97 0.806-0.653-0.567-5.053-2.494-6.867-1.597-1.504-3.541-1.449-4.425-0.536-0.874 0.903-0.748 2.4 0.275 3.765 0.876 1.168 2.36 2.101 3.756 1.366 0.302-0.16-0.276-1.252-0.577-1.094-0.751 0.396-1.709-0.049-2.269-0.796-0.55-0.733-0.791-1.873-0.298-2.381 0.357-0.367 1.559-0.49 2.69 0.576 1.558 1.468 3.018 4.64 2.525 5.126-0.494 0.486-4.254-0.11-6.309-2.032-0.945-0.884-1.449-2.061-1.42-3.316 0.025-1.038 0.436-1.995 1.1-2.559 2.201-1.873 3.86-0.882 6.423 1.861 1.032 1.103 3.173 6.889 2.542 7.968-1.026 1.755-5.51 0.491-8.17-1.421-1.56-1.121-5.247-3.757-3.476-6.797 0.703-1.208 0.015-1.649-0.817-0.478-1.849 2.601-0.305 5.492 3.571 8.279 3.093 2.222 7.604 3.396 9.875 1.194 0.589-0.571-1.823-8.818-2.664-9.632-2.35-2.278-6.263-3.464-8.085-1.916" fill="#0f141b"/>
  </g>
  <g transform="matrix(.71936 0 0 -.71936 42.232 49.981)">
   <path d="m0 0c-0.895 0-1.679 0.437-2.098 1.167-0.067 0.118-0.123 0.239-0.168 0.364-0.968 0.221-1.808 0.949-2.175 1.642-0.091 0.171-0.16 0.349-0.207 0.531-0.192-0.048-0.389-0.072-0.589-0.072h-1e-3c-0.891 0-1.705 0.491-2.123 1.283-0.469 0.886-0.374 1.964 0.254 2.884 2.017 2.961 6.719 8.538 9.208 10.197 0.594 0.398 1.2 0.601 1.796 0.601 0.774 0 1.491-0.343 1.966-0.942 0.422-0.531 0.618-1.216 0.573-1.973 0.192 0.05 0.392 0.076 0.594 0.076 1.147 0 2.182-0.847 2.61-1.684 0.418-0.816 0.359-1.766-0.154-2.479-1.283-1.787-3.705-6.472-4.934-8.959-0.743-1.504-3.273-2.636-4.552-2.636" fill="#3c0069"/>
  </g>
  <g transform="matrix(.71936 0 0 -.71936 42.107 48.184)">
   <path d="m0 0c0.312 0.535 3.914 6.202 5.034 8.014-2.056-1.677-6.292-6.688-6.391-6.827-0.196-0.276-1.204 0.426-1.014 0.706 0.098 0.145 3.773 6.631 4.868 9.19-2.318-2.125-5.518-5.122-7.121-7.476-0.449-0.656-0.971-0.179-0.524 0.478 2.018 2.961 6.522 8.216 8.621 9.615 0.84 0.563 1.107 0.047 0.935-0.69-0.37-1.588-1.048-3.73-1.942-5.688 1.695 1.589 3.143 2.781 4.64 3.751 0.25 0.161 0.974-0.474 0.801-0.715-1.586-2.21-4.439-7.892-5.117-9.264-0.423-0.855-3.329-2.016-2.79-1.094" fill="#0f141b"/>
  </g>
  <g transform="matrix(.71936 0 0 -.71936 65.632 57.054)">
   <path d="m0 0c-0.124 0-0.249 3e-3 -0.374 0.01-1.386 0.069-2.682 0.541-3.8 1.365-0.131-0.018-0.266-0.027-0.404-0.027-0.891 0-1.736 0.392-2.261 1.048-2.558 3.207-3.468 8-2.32 12.212 1.164 4.271 3.511 6.063 5.275 6.814 0.947 0.403 1.954 0.607 2.994 0.607 2.81 0 5.521-1.505 7.252-4.026 0.88-1.281 1.97-7.745 1.834-8.671-0.861-5.843-3.925-9.332-8.195-9.332z" fill="#3c0069"/>
  </g>
  <g transform="matrix(.71936 0 0 -.71936 68.927 44.983)">
   <path d="m0 0c-1.868 2.721-5.026 3.757-7.619 2.654-1.383-0.589-3.116-2.018-4.037-5.395-0.945-3.469-0.233-7.592 1.924-10.296 0.298-0.373 1.156-0.273 0.887 0.082-0.572 0.755-3.173 5.221-1.878 9.974 0.625 2.295 1.965 3.807 3.588 4.497 2.081 0.886 3.603 1.104 6.202-1.77 1.207-1.334 1.319-5.81 1.188-6.7-0.574-3.901-2.625-6.553-5.039-6.425-1.174 0.063-2.168 0.646-2.954 1.747-1.456 2.042-1.75 5.254-1.192 7.181 0.904 3.119 3.654 4.674 5.367 4.029 2.49-0.94 2.316-4.155 1.974-6.639-0.529-3.843-1.095-4.298-3.248-4.03-2.432 0.301-2.933 2.12-2.289 4.982 0.535 2.383 1.029 4.275 2.718 3.764 1.218-0.368 1.42-2.938 1.321-4.256-0.09-1.186-0.847-2.899-1.459-2.922-1.123-0.039-1.888 1.025-1.387 2.953 0.245 0.949 0.551 1.68 1.137 1.68 9e-3 0 0.017 0 0.025-2e-3 0.465-0.113 0.819-0.836 0.405-1.873-0.126-0.311-0.312-0.228-0.353 0.026-0.142 0.896-1.149 0.742-1.005-0.154 0.19-1.181 0.838-1.378 1.108-1.408 0.598-0.065 1.151 0.76 1.235 1.933 0.118 1.718-0.59 2.621-1.233 2.702-0.743 0.093-1.756-0.293-2.368-2.651-0.3-1.154-0.136-2.326 0.448-3.214 0.443-0.673 1.082-1.102 1.8-1.214 0.25-0.04 0.643-6e-3 1.103 0.365 0.694 0.56 1.478 1.897 1.601 3.971 0.215 3.593-0.987 4.724-2.033 5.039-0.554 0.167-1.14 0.085-1.693-0.238-1.286-0.749-2.236-2.719-2.576-4.23-0.795-3.532 0.666-6.144 3.342-6.48 4.462-0.56 4.381 3.318 4.625 5.089 0.364 2.644-0.071 6.946-2.761 7.963-1.315 0.496-6.038-1.549-6.991-4.842-1.155-3.988 0.678-10.277 5.272-10.506 3.034-0.154 5.565 2.331 6.323 7.48 0.075 0.508-0.962 6.383-1.478 7.134" fill="#0f141b"/>
  </g>
  <g transform="matrix(.71936 0 0 -.71936 65.206 56.533)">
   <path d="m0 0c-0.683 0-1.32 0.266-1.795 0.749-0.403 0.409-0.65 0.938-0.714 1.515-0.137-0.014-0.269-0.022-0.394-0.022-0.929 0-1.505 0.407-1.825 0.749-0.408 0.437-0.643 1.098-0.604 1.695 6e-3 0.08 0.013 0.168 0.022 0.262-0.985 0.065-1.94 0.732-2.431 1.354-0.675 0.852-0.608 1.684-0.509 2.103 0.833 3.513 3.885 10.038 5.361 12.274 0.439 0.666 1.172 1.048 2.01 1.048 0.812 0 1.692-0.363 2.267-0.921 0.364 0.229 0.79 0.363 1.206 0.363 0.745 0 1.417-0.341 1.997-1.014 0.349-0.404 0.883-1.166 0.917-2.068 0.492-0.144 1.009-0.412 1.4-0.851 0.454-0.507 0.671-1.175 0.597-1.833l-0.317-2.746c-0.363-3.114-0.912-7.819-1.076-9.843-0.118-1.434-1.276-2.514-2.694-2.515-0.585 0-1.119 0.188-1.55 0.508-0.475-0.501-1.14-0.807-1.868-0.807" fill="#3c0069"/>
  </g>
  <g transform="matrix(.71936 0 0 -.71936 64.943 54.678)">
   <path d="m0 0c0.019 1.026 0.756 6.969 1.598 11.433-1.725-3.124-2.613-6.342-3.054-9.157-0.052-0.327-1.377-0.642-1.355-0.312 0.106 1.585 1.228 7.65 1.709 11.345-1.234-2.526-2.741-6.414-3.546-8.703-0.114-0.322-1.214 0.391-1.135 0.723 0.769 3.245 3.731 9.565 5.062 11.582 0.161 0.243 1.107-0.136 1.06-0.424-0.187-1.136-0.696-4.442-1.048-7.344 1.041 2.666 2.569 5.714 3.591 7.245 0.167 0.253 0.875-0.695 0.831-0.994-0.265-1.788-0.535-3.805-1.042-6.846 0.979 2.669 1.61 3.997 2.034 4.832 0.136 0.267 1.052-0.016 1.019-0.314l-0.075-0.655c-0.298-2.611-1.114-9.401-1.325-12-0.054-0.663-0.973-0.726-0.979-0.063-0.016 1.751 0.333 5.411 0.662 8.485-1.216-3.184-2.973-7.461-3.216-8.861-0.091-0.526-0.8-0.525-0.791 0.028" fill="#0f141b"/>
  </g>
  <g transform="matrix(.71936 0 0 -.71936 84.809 30.555)">
   <path d="m0 0c-0.579 4.049-3.581 6.81-7.496 7.369l-0.563-0.761c3.716-0.292 6.393-3.067 6.93-6.822 0.317-2.241 0.903-4.829 3.112-6.634l0.444 1.012c-1.365 1.243-2.119 3.666-2.427 5.836" fill="#0f141b"/>
  </g>
  <g transform="matrix(.71936 0 0 -.71936 27.375 76.366)">
   <path d="m0 0c0.319 3.355-14.027 29.966-21.668 34.157-0.65 0.356-1.268 0.392-1.93 0.16-4.838-1.702-8.81-11.606-8.836-18.127-2e-3 -0.665 0.197-1.057 0.492-1.409 2.56-3.054 14.442-15.579 17.769-18.664-2.42-1.856-3.869-2.95-4.005-3.729-0.135-0.776 0.708-2.375 6.444-8.348-1.743-1.363-3.077-2.428-3.163-3.372-0.087-0.963 4.246-7.646 4.724-8.477l0.486 1.272c-0.214 0.366-3.668 6.096-3.711 7.165-0.025 0.639 1.673 2.019 2.615 2.81 0.486 0.408 0.404 0.706 0.096 1.025-5.059 5.217-6.143 7.084-6.085 7.746 0.195 0.789 3.616 3.354 3.75 3.457 0.347 0.268 0.281 0.597 0.022 0.819-2.778 2.397-14.275 14.943-17.481 18.743-0.552 0.652-0.454 0.861-0.434 1.397 0.171 4.819 2.739 14.343 7.356 16.49 0.643 0.299 0.871 0.268 1.52-0.153 6.889-4.478 21.064-30.106 20.74-32.596-0.323-2.476-2.891-4.662-6.499-7.093-0.326-0.219-0.359-0.382-0.155-0.716 0.304-0.495 2.413-3.594 3.476-5.347l0.541 1.231c-1.079 1.666-2.474 3.98-2.682 4.314 3.781 2.584 6.421 5.172 6.618 7.245" fill="#0f141b"/>
  </g>
  <g transform="matrix(.71936 0 0 -.71936 6.5672 66.244)">
   <path d="m0 0c-0.908 0-1.726 0.53-2.083 1.351-0.673 1.541 0.558 2.867 1.15 3.504 1.577 1.698 2.579 3.4 3.352 5.693 0.755 2.249 2.084 2.585 2.81 2.585 0.732 0 1.411-0.337 1.861-0.925 0.591-0.772 0.705-1.854 0.337-3.214-0.851-3.153-2.538-5.848-4.88-7.795-1.01-0.84-1.772-1.199-2.547-1.199" fill="#3c0069"/>
  </g>
  <g transform="matrix(.71936 0 0 -.71936 7.0348 63.808)">
   <path d="m0 0c1.62 1.744 2.862 3.642 3.816 6.473 0.557 1.66 1.333 1.39 0.876-0.302-0.789-2.92-2.327-5.159-4.176-6.697-1.34-1.114-1.808-0.866-0.516 0.526" fill="#0f141b"/>
  </g>
  <g transform="matrix(.71936 0 0 -.71936 10.691 58.512)">
   <path d="m0 0c-0.673 0-1.314 0.296-1.759 0.812-0.551 0.64-0.748 1.521-0.583 2.618 0.154 1.041 0.238 2.081 0.248 3.091 0.025 2.395 1.578 3.034 2.491 3.034 1.042 0 2.337-0.736 2.557-2.809 0.145-1.376 0.033-2.777-0.344-4.286-0.571-2.283-2.142-2.46-2.61-2.46" fill="#3c0069"/>
  </g>
  <g transform="matrix(.71936 0 0 -.71936 10.543 56.274)">
   <path d="m0 0c0.168 1.129 0.261 2.275 0.273 3.387 0.012 1.186 0.614 1.201 0.739 0.02 0.127-1.197 0-2.365-0.292-3.534-0.289-1.157-0.9-1.077-0.72 0.127" fill="#0f141b"/>
  </g>
  <g transform="matrix(.71936 0 0 -.71936 21.186 75.304)">
   <path d="m0 0c-1.03 0-1.938 0.627-2.698 1.863-1.427 2.323-5.325 8.255-7.154 10.592-0.398 0.508-1.452 1.857-0.748 3.302 0.381 0.781 1.161 1.265 2.036 1.265 0.846 0 1.619-0.423 2.507-1.374 2.008-2.151 6.514-8.539 7.899-11.425 0.224-0.466 0.905-1.885 0.112-3.145-0.425-0.675-1.155-1.078-1.954-1.078" fill="#3c0069"/>
  </g>
  <g transform="matrix(.71936 0 0 -.71936 20.569 73.15)">
   <path d="m0 0c-1.536 2.497-5.43 8.411-7.294 10.792-0.934 1.194-0.519 1.495 0.515 0.388 1.894-2.029 6.249-8.215 7.531-10.886 0.66-1.375 0-1.517-0.752-0.294" fill="#0f141b"/>
  </g>
  <g transform="matrix(.71936 0 0 -.71936 18.956 75.462)">
   <path d="m0 0c-1.275 0-2.111 1.002-2.759 1.981l-0.821 1.249c-0.84 1.281-1.946 2.97-2.683 4.032-0.356 0.512-1.3 1.873-0.581 3.247 0.373 0.713 1.19 1.203 1.994 1.203 1.075 0 1.858-0.729 2.42-1.363 0.863-0.974 3.218-4.19 4.043-5.854 0.56-1.13 0.984-2.327 0.299-3.432-0.394-0.635-1.165-1.063-1.912-1.063" fill="#3c0069"/>
  </g>
  <g transform="matrix(.71936 0 0 -.71936 18.267 73.179)">
   <path d="m0 0c-0.761 1.149-2.502 3.837-3.53 5.32-0.797 1.148-0.486 1.47 0.441 0.423 0.828-0.935 3.034-3.988 3.725-5.382 0.828-1.67 0.353-1.853-0.636-0.361" fill="#0f141b"/>
  </g>
  <g transform="matrix(.71936 0 0 -.71936 32.931 110.34)">
   <path d="m0 0c-0.317-0.01-2.441 1.561-3.874 2.753l-1.503-0.639c1.56-1.271 4.563-3.171 5.345-3.171 0.695 0 3.252 1.351 4.757 2.705l-1.156 1.053c-1.106-1.14-3.252-2.691-3.569-2.701" fill="#0f141b"/>
  </g>
  <g transform="matrix(.71936 0 0 -.71936 52.392 108.81)">
   <path d="m0 0c-0.656-1.554-1.998-3.555-2.216-3.574-0.219-0.018-4.701 2.172-7.04 3.401l-1.45-0.759c2.355-1.3 7.858-3.777 8.599-3.748 0.645 0.026 2.832 2.884 3.489 4.058z" fill="#0f141b"/>
  </g>
  <g transform="matrix(.71936 0 0 -.71936 68.143 107.78)">
   <path d="m0 0-1.986 0.104c1.345-1.223 3.262-3.202 3.073-3.44s-8.202 0.055-11.707 1.074l-0.415-1.416c4.009-1.015 12.572-1.198 13.091-0.288 0.514 0.9-0.693 2.594-2.056 3.966" fill="#0f141b"/>
  </g>
  <g transform="matrix(.71936 0 0 -.71936 30.053 55.048)">
   <path d="m0 0c-0.211 0-0.411 0.013-0.594 0.036-1.14 0.147-2.383 0.668-3.414 1.43-0.425 0.315-1.013 0.891-1.246 1.786-0.025 0.019-0.05 0.037-0.074 0.056-0.791 0.592-1.215 1.53-1.167 2.573 0.012 0.241 0.047 0.478 0.104 0.709-0.062 0.234-0.097 0.499-0.093 0.797 1e-3 0.019 0.07 1.383 0.71 2.43 0.067 0.576 0.262 1.149 0.56 1.642 0.06 0.909 0.512 1.708 0.706 2.05 0.379 0.671 1.029 1.636 1.896 2.241 0.473 1.017 1.531 1.753 2.513 2.084 0.862 0.99 2.293 1.595 3.22 1.685 1.235 0.549 2.781 0.585 3.159 0.585 1.222 0 2.914-0.953 3.542-1.61 0.588-0.617 0.917-1.555 0.996-2.384 0.275-0.695 0.359-1.515 0.276-2.238 0.233-0.927 0.183-2.043-0.171-2.978 0.054-0.59-0.031-1.193-0.188-1.702-0.386-1.254-1.162-1.911-1.937-2.169-0.144-0.176-0.305-0.339-0.479-0.484-0.113-0.324-0.271-0.641-0.473-0.938 0.032-0.426-0.03-0.875-0.191-1.322-0.391-1.079-1.386-2.236-2.692-2.362-0.525-0.536-1.249-1.011-2.068-1.136-0.881-0.568-2.027-0.781-2.895-0.781" fill="#3c0069"/>
  </g>
  <g transform="matrix(.71936 0 0 -.71936 65.662 58.985)">
   <path d="m0 0c0.092-0.14 0.168-0.292 0.227-0.453 0.065 0.074 0.136 0.144 0.211 0.208-0.089 0.201-0.148 0.416-0.173 0.642-0.073-0.141-0.162-0.274-0.265-0.397m-1.511-11.097c0.365-0.18 0.674-0.46 0.889-0.809 0.223 0.347 0.547 0.633 0.944 0.808 0.455 0.201 0.955 0.387 1.451 0.569 1e-3 1e-3 3e-3 1e-3 4e-3 2e-3 0.074 0.734 0.518 1.373 1.164 1.704-1.127 0.123-2.597 0.26-3.064 0.274-0.848 0.025-1.585 0.54-1.914 1.288-0.127-0.095-0.25-0.188-0.369-0.277 0.757-0.241 1.335-0.888 1.472-1.696 0.117-0.692-0.11-1.38-0.577-1.863m0.025-7.529c-1.329 0-2.508 0.531-3.232 1.355-0.701 0.288-1.284 0.794-1.662 1.469-0.109 0.195-0.196 0.396-0.262 0.6-0.131 0.14-0.251 0.292-0.358 0.456-0.74 1.128-1.208 1.876-1.506 2.396-1.129 0.85-1.444 2.582-1.691 3.938-0.143 0.793-0.094 1.679 1.375 3.015-0.263 0.393-0.452 0.804-0.562 1.159-0.262 0.856-0.178 1.584 0.082 2.156-0.09 1.029 0.607 2.571 1.473 3.527 0.329 1.967 2.953 3.569 3.429 3.712 0.14 0.041 0.282 0.082 0.422 0.122 0.468 0.632 1.203 1.065 2.187 1.289 0.164 0.037 0.591 0.134 2.558 0.134 2.281 0 3.822-0.124 4.583-0.37 1.067-0.347 1.69-0.863 2.038-1.416 1.772-0.791 2.381-2.135 2.321-3.264-1e-3 -0.027-3e-3 -0.054-5e-3 -0.082 0.53-0.87 0.901-2.078 0.571-3.209 0.354-1.06 0.262-2.084-0.272-2.872-0.025-0.037-0.05-0.072-0.077-0.108 4e-3 -0.183-9e-3 -0.37-0.039-0.556-0.092-0.577-0.344-1.115-0.713-1.566 0.208-0.424 0.333-0.904 0.355-1.416 0.033-0.75-0.164-1.448-0.536-2.012-0.043-0.337-0.141-0.668-0.293-0.983-0.217-0.446-0.6-0.976-1.275-1.401-0.33-0.751-0.971-1.363-1.835-1.741l-0.097-0.042c-0.188-0.895-0.725-1.664-1.482-2.096-0.365-0.465-0.869-0.848-1.463-1.082-0.689-0.249-1.829-0.626-2.502-0.847l-0.128-0.042c-0.45-0.148-0.922-0.223-1.404-0.223" fill="#3c0069"/>
  </g>
  <g transform="matrix(.71936 0 0 -.71936 90.04 4.669)">
   <path d="m0 0c-1.441-0.139-0.93-7.021-2.046-9.438-0.536-1.162-3.44-1.534-4.463-3.626-0.858-1.757 0.419-5.347-1.07-8.323-0.726-1.452-5.067-2.557-7.811-7.206-1.501-2.545-5.49-6.085-9.577-9.206-2.248-1.718-5.395-5.123-8.208-8.102-5.831 4.358-19.85 9.684-25.317 9.846-7.247 6.58-21.85 19.591-24.312 19.367-1.869-0.17-6.047-1.71-8.836-3.763-2.106 0.412-5.091 1.068-6.369 0.672-2.856-0.883-4.05-5.348-4.933-5.971-0.882-0.622-2.491-0.934-3.582-2.18-1.09-1.246-3.01-6.333-2.439-6.593 0.882 0.363 4.412 1.298 6.748 1.142 2.337-0.156 3.817-0.933 4.465-0.83 0.986 0.155 2.921 2.055 3.686 2.232 0.606 0.14 5.027-0.516 6.97-0.801 1.529-3.504 6.159-11.236 7.549-15.028-4.135-4.12-8.577-9.597-9.739-13.859-2.262-8.296 2.327-19 10.739-29.813-8.711-9.312-15.845-25.458-19.277-38.373-7.43-4.58-20.979-9.447-20.828-10.787 0.214-1.894 16.365 0.28 23.014 1.721-0.186-1.442-1.116-8.183 0.186-8.648 1.955-0.697 12.785 4.185 16.551 5.812 1.022-0.419 7.531-6.323 8.694-6.509 1.163-0.187 10.926 5.067 13.204 6.044 2.277-1.256 12.739-6.23 13.901-5.951 1.162 0.278 2.046 3.719 1.86 6.276 3.44-0.278 19.945-2.743 20.271-0.558 0.283 1.906-8.992 6.871-16.57 10.033-2.192 9.942-5.881 20.024-11.348 28.102 0.76 0.623 1.552 1.472 1.696 2.268 0.095 0.52-0.222 0.921-0.763 1.262l0.354 0.88c13.591 0.502 24.432 9.504 26.585 13.107 3.729 6.239 3.149 15.241 1.72 21.433 11.67 9.81 10.228 15.575 12.227 19.527 1.096 2.166 2 2.511 3.208 7.02 0.877 3.269 2.929 5.022 3.488 6.463 1.999 5.16 1.116 13.482 1.441 16.179 0.124 1.032 1.349 3.998 1.953 4.974 0.386 0.625 1.348 0.744 1.58 1.535 0.281 0.954-3.399 9.786-4.602 9.67" fill="#efeaba"/>
  </g>
  <g transform="matrix(.71936 0 0 -.71936 90.809 16.308)">
   <path d="m0 0c0.124 1.032 1.349 3.998 1.953 4.975 0.386 0.624 1.348 0.743 1.58 1.534 0.015 0.049 0.016 0.125 0.011 0.214-1.118 0.323-1.998 0.245-2.745-0.718-0.615-0.79-1.769-2.984-2.543-5.416-1.544-4.856 1.879-11.496-3.98-19.124-1.191-1.551-1.797-6.386-3.647-8.622-2.653-3.205-3.095-10.832-6.964-14.259-2.694-2.386-5.093-5.495-4.651-7.595l0.662-0.364c-0.014 0.061-0.026 0.126-0.04 0.187 11.67 9.81 10.228 15.575 12.228 19.527 1.095 2.165 1.999 2.51 3.207 7.02 0.877 3.268 2.929 5.021 3.488 6.462 1.999 5.161 1.116 13.483 1.441 16.179" fill="#c9c59d"/>
  </g>
  <g transform="matrix(.71936 0 0 -.71936 23.317 23.915)">
   <path d="m0 0c-2.43-0.148-4.201-3.647-5.638-4.09-1.437-0.442-3.648 0.774-5.085 0.332-1.442-0.443-3.945-2.133-5.571-3.869 0.017-0.069 0.041-0.122 0.084-0.141 0.882 0.363 4.412 1.297 6.749 1.142 2.336-0.156 3.816-0.933 4.464-0.831 0.987 0.156 2.921 2.056 3.686 2.232 0.607 0.14 5.028-0.516 6.97-0.8 1.529-3.505 6.159-11.236 7.549-15.028 1.161 1.164 3.704 3.367 3.704 3.367-2.874 3.316-5.97 8.668-7.185 11.386-2.321 5.195-6.08 6.521-9.727 6.3" fill="#c9c59d"/>
  </g>
  <g transform="matrix(.71936 0 0 -.71936 30.012 52.884)">
   <path d="m0 0c-0.201-0.262-0.533-0.215-0.817-0.123-0.691 0.224-1.357 0.632-1.788 0.894-0.334 0.202-0.249 0.907-0.062 1.008-0.416 0.241-0.817 0.502-1.186 0.78-0.338 0.253-0.061 1.124 0.338 1.048 0.324-0.061 1.11-0.2 1.773-0.324-0.603 0.368-1.562 0.807-2.127 1.126-0.309 0.174-0.019 1.478 0.323 1.387 0.515-0.136 1.504-0.398 2.506-0.723-0.789 0.442-1.527 0.823-2.113 1.084-0.322 0.142 0.034 1.39 0.381 1.346 0.459-0.063 1.394-0.269 2.503-0.55-0.981 0.523-1.892 0.972-2.533 1.216-0.346 0.133 0.052 1.43 0.413 1.348 0.325-0.075 1.113-0.284 2.111-0.563-0.734 0.355-1.362 0.636-1.768 0.779-0.362 0.126 0.522 1.273 0.89 1.165 0 0 3.13-0.761 4.408-1.156-1.14 0.663-2.897 1.61-3.56 1.896-0.339 0.146 0.863 0.982 1.218 0.894 0.469-0.118 2.936-1.006 4.608-1.48-0.777 0.489-3.27 1.707-3.822 1.973-0.327 0.158 1.232 1.091 1.587 1.002 0.303-0.078 0.304-0.01 1.179-0.288-0.06 0.044-0.542 0.328-0.593 0.365-0.278 0.201 2.156 0.594 2.481 0.478 0.74-0.262 1.142-0.539 1.48-0.817 0.187-0.153 0.355-0.909 0.247-0.956-0.108-0.046-0.527 0.117-0.586 0.093 0.228-0.181 0.569-0.399 0.678-0.494 0.258-0.225 0.365-1.479 0.047-1.356-0.123 0.047-0.521 0.129-0.733 0.202 0.546-0.397 0.719-0.536 0.917-0.741 0.231-0.238 0.064-1.954-0.246-1.835-0.551 0.213-1.367 0.713-2.39 1.018 1.398-0.889 1.856-1.254 2.328-1.68 0.255-0.229 6e-3 -1.521-0.311-1.392-0.386 0.155-1.015 0.384-2.036 0.723 0.495-0.286 0.697-0.522 0.945-0.688 0.455-0.303-0.159-1.305-0.663-1.094-0.598 0.246-1.266 0.395-2.231 0.704 0.804-0.481 1.483-0.906 1.9-1.186 0.302-0.203-0.333-1.377-0.668-1.237-0.738 0.31-1.804 0.66-2.924 0.992 1.163-0.736 2.161-1.479 2.828-2.032 0.441-0.366-0.156-1.333-0.678-1.095-0.658 0.301-1.584 0.578-2.582 0.941 0.465-0.323 1.214-1.155 1.503-1.388 0.275-0.221-0.743-0.797-1.07-0.657-0.228 0.096-0.521 0.205-0.855 0.321 0.035-0.029 0.383-0.265 0.368-0.527-0.014-0.241-1.008-0.782-1.618-0.401" fill="#d18200"/>
  </g>
  <g transform="matrix(.71936 0 0 -.71936 63.489 69.829)">
   <path d="m0 0c-0.088 0.195 0.716 0.409 1.003 0.574-0.53-0.051-1.029-0.107-1.422-0.165-0.341-0.046-1.065 0.951-0.759 1.109 0.302 0.157 0.688 0.324 1.104 0.492-0.442-0.112-1.182-0.238-1.532-0.287-0.166-0.023-0.535 0.707-0.964 1.363-0.541 0.826-1.05 1.394-0.963 1.584 0.058 0.126 1.625 0.53 2.844 0.838-1.249-0.149-2.235-0.31-3.234-0.505-0.36-0.07-0.885 2.372-0.539 2.502 0.952 0.357 2.128 0.755 3.422 1.155-0.62-0.1-1.151-0.197-1.547-0.288-0.361-0.083-0.407 1.425-0.059 1.555 0.758 0.283 3.076 1.308 5.619 2.042-2.29-0.159-4.589-0.881-6.07-1.217-0.45-0.104-1.222 1.066-0.745 1.389 0.929 0.631 2.432 1.239 4.406 1.732-1.321-0.143-3.18-0.422-4.268-0.608-0.36-0.059 0.539 1.884 0.883 2.008 1.178 0.429 2.49 0.803 3.523 1.145-0.895-0.204-1.531-0.336-2.028-0.436-0.431-0.086-0.99 0.129-1.047 0.427s1.223 1.407 1.434 1.469c0.712 0.212 0.959 0.22 2 0.434-0.29 0.472 0.043 0.781 0.571 0.9 0.948 0.216 4.15 0.316 5.658-0.172 0.581-0.188 0.933-0.791 0.043-1.005 0.676-0.05 1.091-0.143 1.627-0.374 0.571-0.246 0.86-1.339-0.085-1.402-0.724-0.048-1.988-0.22-3.237-0.464 2.028 0.026 3.031-0.125 4.325-0.271 0.363-0.041 0.749-1.44 0.385-1.466-1.999-0.146-3.288-0.331-5.255-0.704 2.496 0.143 3.73 0.012 4.867-0.07 0.705-0.051 0.948-1.407 0.244-1.466-0.605-0.051-1.56-0.182-2.597-0.385 0.415-0.046 0.98-0.156 1.546-0.192 0.818-0.049 1.084-1.356 0.276-1.463-1.737-0.229-4.547-0.506-6.275-0.947 1.117 0.054 3.109-0.031 4.123-0.081 0.388-0.019 1.165-0.34 0.889-0.996 0.359-1e-3 0.732-0.057 0.99-0.115 0.799-0.177 0.822-1.2 0.029-1.321-0.259-0.04-0.533-0.054-0.775-0.115 0.877-0.124 1.02-1.426 0.146-1.589-0.421-0.078-0.872-0.189-1.294-0.273 0.763-0.203 0.657-1.24 0.126-1.372-0.931-0.231-1.841-0.424-2.949-0.779 0.454 0.026 0.665-0.039 0.671-0.039 0.609 0 0.846-1.02 0.285-1.278-0.195-0.089-0.392-0.114-0.674-0.153 0.136-0.34-0.086-0.369-0.331-0.457-0.754-0.272-1.72-0.586-2.461-0.831-0.23-0.076-1.841 0.373-1.929 0.568" fill="#d18200"/>
  </g>
  <g transform="matrix(.71936 0 0 -.71936 23.233 23.603)">
   <path d="m0 0c0.121 0.726 1.817 2.544 2.803 4.257 0.622 1.079 1.355 2.379 1.995 3.678-1.255-0.584-2.511-1.288-3.568-2.065-2.106 0.411-5.091 1.067-6.37 0.671-2.855-0.882-4.05-5.347-4.932-5.97s-2.492-0.935-3.582-2.181-3.01-6.333-2.439-6.593c0.882 0.364 4.412 1.298 6.748 1.142 2.336-0.155 3.817-0.932 4.465-0.83 0.986 0.156 2.92 2.055 3.686 2.232 0.359 0.083 2.052-0.113 3.777-0.346-0.839 1.861-2.997 3.52-2.583 6.005" fill="#30363a"/>
  </g>
  <g transform="matrix(.71936 0 0 -.71936 19.723 29.279)">
   <path d="m0 0c0.986 0.156 2.92 2.056 3.686 2.232 0.358 0.083 2.052-0.113 3.777-0.345-0.786 1.743-2.731 3.31-2.631 5.546-2.346-0.292-4.069-3.634-5.473-4.066-1.437-0.442-3.648 0.774-5.085 0.332-1.442-0.443-3.945-2.133-5.571-3.869 0.016-0.069 0.041-0.122 0.083-0.142 0.883 0.364 4.413 1.298 6.749 1.143 2.336-0.156 3.816-0.933 4.465-0.831" fill="#232528"/>
  </g>
  <g transform="matrix(.71936 0 0 -.71936 89.772 27.946)">
   <path d="m0 0c1.999 5.16 1.116 13.482 1.441 16.179 0.124 1.031 1.349 3.998 1.953 4.974 0.386 0.625 1.348 0.744 1.581 1.535 0.28 0.954-3.399 9.786-4.603 9.67-1.441-0.14-0.93-7.021-2.046-9.439-0.536-1.161-3.44-1.533-4.463-3.625-0.858-1.757 0.419-5.348-1.069-8.323-0.727-1.452-5.068-2.557-7.811-7.206-0.053-0.089-0.115-0.181-0.173-0.272 3.666-0.336 6.928-2.908 7.531-7.129 0.159-1.115 0.564-4.522 2.945-6.39 0.385 0.827 0.785 1.916 1.227 3.563 0.876 3.269 2.928 5.022 3.487 6.463" fill="#30363a"/>
  </g>
  <g transform="matrix(.71936 0 0 -.71936 90.809 16.308)">
   <path d="m0 0c0.124 1.032 1.349 3.998 1.953 4.975 0.386 0.624 1.348 0.743 1.58 1.534 0.015 0.049 0.016 0.125 0.011 0.214-1.118 0.323-1.998 0.245-2.745-0.718-0.615-0.79-1.769-2.984-2.543-5.416-1.544-4.856 1.879-11.496-3.98-19.124-0.781-1.018-1.313-3.449-2.109-5.633 0.408-0.75 0.95-1.465 1.678-2.037 0.385 0.828 0.785 1.916 1.226 3.564 0.877 3.268 2.929 5.021 3.488 6.462 1.999 5.161 1.116 13.483 1.441 16.179" fill="#232528"/>
  </g>
  <g transform="matrix(.71936 0 0 -.71936 37.051 84.61)">
   <path d="m0 0c0.796-0.029 1.115-2.735 0.966-5.447-0.15-2.712-0.767-5.429-1.843-5.478-0.877-0.04-1.216 2.711-1.056 5.462 0.159 2.751 0.817 5.503 1.933 5.463" fill="#30363a"/>
  </g>
  <g transform="matrix(.71936 0 0 -.71936 45.942 85.184)">
   <path d="m0 0c0.877 0.159 1.699-2.424 1.993-5.096 0.293-2.672 0.059-5.435-1.177-5.634-0.958-0.154-1.556 2.456-1.718 5.141-0.161 2.686 0.114 5.445 0.902 5.589" fill="#30363a"/>
  </g>
  <g transform="matrix(.71936 0 0 -.71936 10.825 51.938)">
   <path d="m0 0c-5.14-0.779-9.048-11.699-8.839-18.276 1.336-1.843 15.226-16.846 18.289-19.488-1.312-1.016-3.974-2.97-4.116-3.781-0.207-1.188 3.894-5.607 6.518-8.32-1.436-1.116-3.145-2.411-3.225-3.289-0.063-0.699 2.807-5.392 4.34-8.04l5.636 15.056c-1.067 1.814-2.263 3.647-3.223 5.216 3.582 2.414 6.517 4.753 6.771 7.271 0.276 2.736-15.337 31.821-22.151 33.651" fill="#756550"/>
  </g>
  <g transform="matrix(.71936 0 0 -.71936 33.283 106.64)">
   <path d="m0 0c-1.267-0.548-3.335-1.464-5.595-2.412 1.606-1.331 4.33-3.153 4.863-3.153 0.489 0 2.875 1.491 4.31 2.81-1.637 1.342-3.131 2.572-3.578 2.755" fill="#30363a"/>
  </g>
  <g transform="matrix(.71936 0 0 -.71936 67.135 107.48)">
   <path d="m0 0c-3.999 0.385-7.915 0.911-9.399 1.032 0.099-1.367-0.109-2.983-0.5-4.237 3.735-1.101 12.393-1.313 12.686-0.8 0.35 0.612-1.286 2.575-2.787 4.005" fill="#30363a"/>
  </g>
  <g transform="matrix(.71936 0 0 -.71936 21.243 104.6)">
   <path d="m0 0c-2.299-0.498-5.735-1.084-9.254-1.559-0.858-2.114-1.974-4.678-1.685-4.935 0.48-0.427 6.836 1.266 10.536 2.78 0.12 1.599 0.326 3.115 0.403 3.714" fill="#30363a"/>
  </g>
  <g transform="matrix(.71936 0 0 -.71936 49.035 106.98)">
   <path d="m0 0c-0.978-0.419-3.338-1.628-5.803-2.855 2.418-1.339 7.71-3.691 8.092-3.725 0.36-0.033 2.069 2.141 2.927 4.015-2.282 1.064-4.346 2.086-5.216 2.565" fill="#30363a"/>
  </g>
  <g transform="matrix(.71936 0 0 -.71936 57.268 83.719)">
   <path d="m0 0c-1.029 1.936-2.135 3.804-3.331 5.571 0.761 0.624 1.552 1.472 1.697 2.268 0.095 0.521-0.222 0.921-0.764 1.262l0.354 0.881c9.743 0.36 18.933 5.415 25.592 11.095-19.881-12.652-56.518-0.874-67.84 22.123 0.205-7.383 4.505-16.051 11.303-24.791-1.507-1.611-2.965-3.43-4.367-5.398 9.219 0.058 27.044-4.498 37.356-13.011" fill="#c9c59d"/>
  </g>
  <g transform="matrix(.71936 0 0 -.71936 17.892 79.14)">
   <path d="m0 0c0.65 0.391 0.562 1.769-0.941 3.46-2.487 2.798-11.52 14.514-13.342 18.224-1.888-1.693-2.971-2.601-4.379-1.702 0 0 14.078-16.846 18.662-19.982" fill="#635442"/>
  </g>
  <g transform="matrix(.71936 0 0 -.71936 21.5 81.435)">
   <path d="M 0,0 C -0.275,0.619 0.903,2.057 2.162,2.938 3.53,3.897 6.532,6.325 7.082,8.388 7.495,6.395 6.188,3.163 0,0" fill="#635442"/>
  </g>
  <g transform="matrix(.71936 0 0 -.71936 15.22 81.316)">
   <path d="m0 0c0.281-1.124 4.678-6.05 5.673-7.061 1.107-1.123 0.831-2.131 0.281-2.406 0 0-6.884 7.121-6.73 8.761z" fill="#635442"/>
  </g>
  <g transform="matrix(.71936 0 0 -.71936 17.495 89.819)">
   <path d="m0 0c0.228-0.878 3.232-5.251 4.391-6.217l-0.615-2.249c-2.441 3.214-4.145 7.254-3.776 8.466" fill="#635442"/>
  </g>
  <g transform="matrix(.71936 0 0 -.71936 4.8929 105.82)">
   <path d="m 0,0 c 2.952,-0.321 17.113,2.749 20.504,3.69 1.137,0.316 2.71,-0.449 2.71,-1.902 C 19.55,0.841 0.94,-2.202 0,0" fill="#c9c59d"/>
  </g>
  <g transform="matrix(.71936 0 0 -.71936 34.721 106.03)">
   <path d="m0 0c-1.429 1.406-2.548 1.28-4.16 0.401-3.374-1.838-11.595-5.898-14.528-6.275 1.23-2.402 12.436 2.957 16.689 5.019 0.795-0.823 8.256-6.108 8.86-6.043 0.183 0.986-4.561 4.635-6.861 6.898" fill="#c9c59d"/>
  </g>
  <g transform="matrix(.71936 0 0 -.71936 60.018 106.51)">
   <path d="M 0,0 C -0.089,1.314 1.346,2.399 3.076,2.12 4.519,1.887 19.31,-1.297 20.714,-0.727 20.403,-1.973 16.873,-2.44 0,0" fill="#c9c59d"/>
  </g>
  <g transform="matrix(.71936 0 0 -.71936 48.793 106.71)">
   <path d="m0 0c0.879 0.835 2.447 1.027 3.334 0.556 1.487-0.79 10.059-5.065 11.155-6.396-1.277-0.292-13.102 4.344-14.489 5.84" fill="#c9c59d"/>
  </g>
  <g transform="matrix(.71936 0 0 -.71936 30.232 109.07)">
   <path d="m0 0c0.84 0.693 4.234 2.263 7.153-0.146l0.694 0.474-3.723 2.993-5.437-2.227z" fill="#232528"/>
  </g>
  <g transform="matrix(.71936 0 0 -.71936 46.68 109.9)">
   <path d="m0 0c0.656 0.456 3.847 2.508 7.553 0.228l0.684 1.283-4.963 2.56-5.803-2.855z" fill="#232528"/>
  </g>
  <g transform="matrix(.71936 0 0 -.71936 61.545 110.17)">
   <path d="m0 0c0.11 1.671 2.647 3.091 9.121 2.053l-0.656 1.538-9.947 0.941-0.855-3.905z" fill="#232528"/>
  </g>
  <g transform="matrix(.71936 0 0 -.71936 14.428 105.78)">
   <path d="m0 0 9.377 1.596-0.256-3.99-2.451-0.627c-0.371 0.883-1.511 2.195-7.211 1.339z" fill="#232528"/>
  </g>
  <g transform="matrix(.71936 0 0 -.71936 45.504 88.207)">
   <path d="M 0,0 C 0.043,1.893 1.506,2.494 2.151,0.344 2.022,2.408 1.419,4.473 0.609,4.202 -0.295,3.9 0.043,0.774 0,0" fill="#232528"/>
  </g>
  <g transform="matrix(.71936 0 0 -.71936 35.943 87.743)">
   <path d="M 0,0 C 0.478,1.864 1.913,2.294 2.28,-0.086 2.323,1.806 2.366,4.043 1.592,4.215 0.817,4.388 0.086,2.065 0,0" fill="#232528"/>
  </g>
  <g transform="matrix(.71936 0 0 -.71936 67.579 39.307)">
   <path d="m0 0c-4.52 4.354-20.894 11.39-27.518 11.679-3.416 0.149-3.339 0.755 0.07 0.869 7.363 0.248 23.752-6.625 28.012-12.055 1.615-2.058 1.217-2.208-0.564-0.493" fill="#0f141b"/>
  </g>
  <g transform="matrix(.71936 0 0 -.71936 90.003 4.2896)">
   <path d="m0 0c-1.9-0.184-1.425-7.274-2.565-9.744-0.614-1.332-3.531-1.461-4.548-3.544-0.817-1.671 0.485-5.645-0.888-8.389-0.377-0.754-5.389-2.865-7.883-7.092-1.277-2.164-4.616-5.38-9.429-9.056-1.815-1.386-7.107-6.497-8.37-7.836l1.523-1.162c1.654 1.792 5.634 6.431 7.645 7.967 2.848 2.175 7.928 6.326 9.741 9.398 2.925 4.958 6.689 5.243 7.72 7.307 1.52 3.038 0.194 6.008 1.27 8.212 1.01 2.068 3.581 2.132 4.304 3.697 1.075 2.329 0.606 8.95 1.55 9.161 0.609 0.136 4.063-7.245 3.909-8.87-0.183-0.733-1.071-0.877-1.404-1.416-0.609-0.985-1.843-4.123-1.981-5.276-0.417-3.478 0.354-10.698-1.633-15.982-0.8-2.13-2.462-3.019-3.399-6.516-1.199-4.478-1.273-3.473-3.051-6.988-1.957-3.867-0.595-9.346-12.075-18.997-0.447-0.375-0.329-0.682-0.199-1.242 0.714-3.092 2.421-13.225-1.941-20.523-2.248-3.766-14.086-13.551-28.206-13.019-1.212 0.104-1.329-0.595-0.196-1.029 0.792-0.303 2.37-0.882 2.323-1.549-0.054-0.769-0.999-1.791-1.934-2.531-1.263-1-0.779-1.311 0.458-0.593 1.254 0.729 2.618 1.971 2.8 2.969 0.135 0.745-0.404 1.256-1.006 1.677 13.687 0.546 24.89 9.16 27.234 13.083 4.425 7.403 2.495 18.021 1.711 21.568 11.553 9.811 9.942 15.686 11.976 19.708 1.593 3.151 2.259 2.938 3.37 7.084 0.883 3.293 2.598 4.006 3.492 6.301 2 5.144 1.043 14.089 1.328 16.452 0.109 0.904 1.354 3.754 1.941 4.702 0.343 0.554 1.626 0.829 1.775 1.656 0.146 0.809-3.504 10.602-5.362 10.412" fill="#0f141b"/>
  </g>
  <g transform="matrix(.71936 0 0 -.71936 63.482 99.576)">
   <path d="m0 0c-2.435 10.92-6.488 20.44-11.452 27.798l-0.825-0.676c4.886-7.312 8.567-17.044 10.962-27.904 0.037-0.169 0.154-0.308 0.313-0.375 10.916-4.554 16.75-8.452 16.438-9.253-0.536-1.374-16.199 0.742-19.667 1.171-0.446 0.055-0.659-0.212-0.62-0.76 0.138-1.894-0.986-5.251-1.538-5.372-0.622-0.136-9.959 3.701-13.054 5.341-0.537 0.284-0.654 0.329-1.223 0.054-2.093-1.009-11.467-5.696-12.542-5.584-0.58 0.06-7.469 5.527-8.084 5.945-0.504 0.342-0.659 0.405-1.145 0.181-6.669-3.064-14.584-5.901-15.623-5.361-0.549 0.285-0.754 3.427-0.156 7.567 0.083 0.568-0.108 0.997-0.914 0.83-8.593-1.819-21.84-3.251-21.977-2.251-0.073 0.536 16.788 7.744 20.358 9.894 0.432 0.26 0.505 0.423 0.617 0.839 2.834 10.516 9.949 28.447 18.892 38.007 0.228 0.244 0.234 0.427 0.031 0.688-9.033 11.613-12.43 21.712-10.361 29.299 1.701 6.237 11.15 16.151 15.642 19.199 2.225 1.515 1.804 2.187-0.425 0.68-4.434-3.01-15.015-12.75-16.855-19.5-2.138-7.842 1.843-18.233 10.888-29.973-9.545-10.414-16.176-26.285-19.284-37.876-8.079-4.922-20.864-9.518-20.654-11.373 0.254-2.297 14.374-0.743 22.855 0.958-0.875-5.455-0.493-7.845 0.181-8.347 1.66-1.233 11.107 3.033 17.217 5.744 1.648-1.048 7.568-6.704 8.729-6.704 0.96 0 11.915 5.456 13.171 6.239 2.058-1.079 12.675-6.483 14.148-6.136 1.5 0.36 2.229 3.796 2.21 6.252 6.912-0.871 19.863-2.243 20.22 0.162 0.459 3.085-14.326 9.682-16.473 10.597" fill="#0f141b"/>
  </g>
  <g transform="matrix(.71936 0 0 -.71936 37.003 84.996)">
   <path d="m0 0c-0.313 0.018-1.102-1.63-1.295-4.956-0.172-2.965 0.225-4.895 0.496-4.896 0.272-1e-3 1.074 1.643 1.258 4.971 0.147 2.688-0.146 4.863-0.459 4.881m-0.831-10.919c-0.969-0.011-1.809 2.644-1.61 6.024 0.104 1.792 0.594 5.962 2.483 5.962 1.309-0.041 1.722-3.148 1.563-6.006-0.13-2.352-0.962-5.962-2.436-5.98" fill="#0f141b"/>
  </g>
  <g transform="matrix(.71936 0 0 -.71936 46.015 85.576)">
   <path d="m0 0c-0.48-0.066-0.596-2.265-0.43-5.012 0.184-3.064 0.746-4.619 1.068-4.649 0.613-0.058 1.009 2.069 0.682 5.052-0.3 2.734-0.892 4.668-1.32 4.609m-1.576-5.076c-0.117 1.931 0.097 6.157 1.552 6.157 1.741 0 2.384-4.644 2.487-5.574 0.213-1.947 0.185-5.996-1.665-6.216-1.249-0.148-2.193 2.611-2.374 5.633" fill="#0f141b"/>
  </g>
  <g transform="matrix(.71936 0 0 -.71936 27.385 27.445)">
   <path d="m0 0c-0.589 1.891-1.083 1.82-0.749-0.214 0.384-2.347 6.648-12.673 7.649-16.277l1.104 1.133c-1.201 3.411-7.442 13.541-8.004 15.358" fill="#0f141b"/>
  </g>
  <g transform="matrix(.71936 0 0 -.71936 30.436 16.198)">
   <path d="m0 0c-2.429-0.221-6.619-2.068-9.663-4.596-1.523-1.264-1.023-1.833 0.535-0.614 2.775 2.171 7.377 3.701 9.254 3.872 0.586 0.029 3.723-1.103 23.168-18.726l2.059 0.126c-22.013 20.004-24.618 20.008-25.353 19.938" fill="#0f141b"/>
  </g>
  <g transform="matrix(.71936 0 0 -.71936 22.288 27.302)">
   <path d="m0 0c-1.14-0.264-2.586-1.828-3.679-2-0.621-0.101-2.797 0.497-4.317 0.61-3.236 0.241-6.202-1.104-6.339-1.022-0.138 0.082 1.535 4.596 2.472 5.465 1.126 1.044 3.021 1.923 3.41 2.228 0.753 0.589 2.33 4.968 4.857 5.765 1.011 0.318 3.443-0.04 5.329-0.414l1.164 0.852c-0.26 0.05-0.535 0.104-0.822 0.161-2.234 0.443-4.902 1.201-6.166 0.719-3.021-1.153-4.256-5.631-4.973-6.218-0.657-0.539-2.98-1.267-3.761-2.159-1.028-1.176-2.554-5.439-2.562-7.016-4e-3 -0.68 0.271-0.742 0.809-0.521 0.748 0.308 4.241 1.251 6.512 1.103 2.47-0.165 3.574-1.15 4.607-0.981 0.761 0.12 3.049 2.224 3.693 2.394 0.647 0.105 6.964-0.994 6.964-0.994l-0.522 1.429c-4.401 0.643-6.183 0.71-6.676 0.599" fill="#0f141b"/>
  </g>
  <g transform="matrix(.71936 0 0 -.71936 27.07 17.903)">
   <path d="m0 0-1.349-0.675c-0.984-2.574-4.279-6.014-4.507-7.161-0.515-2.596 1.342-3.917 2.431-5.737l1.038-0.104c-1.043 2.314-2.927 3.367-2.423 5.667 0.253 1.156 2.727 3.342 4.81 8.01" fill="#0f141b"/>
  </g>
  <g transform="matrix(.71936 0 0 -.71936 58.801 65.678)">
   <path d="m0 0c-0.7 0.832-3.01 4.478-3.785 5.807-0.259 0.445-0.492 0.538-0.918 0.447-1.383-0.296-3.006-1.093-4.078-1.523-0.541-0.216-1.156-0.079-1.554 0.344-0.381 0.404-4.123 5.216-4.863 6.036-0.658 0.73-1.057 0.913-2.047 0.624-2.989-0.871-9.249-2.993-10.592-2.322-1.681 0.841-5.606 11.204-5.883 12.144-0.309 1.05 2.949 2.316 3.258 1.266 0.653-2.221 2.973-7.449 4.186-9.716 0.175-0.327 0.279-0.431 0.7-0.335 1.984 0.447 8.778 2.148 9.505 2.27 1.054 0.173 1.528-0.039 2.039-0.586 0.62-0.663 3.154-4.036 4.516-5.498 0.437-0.467 0.479-0.445 1.077-0.269 1.654 0.486 3.691 0.945 5.288 0.897 0.707-0.021 1.219-0.221 1.644-0.98 0.499-0.892 1.814-2.911 2.923-4.414 0.202-0.271 0.39-0.372 0.732-0.224 2.311 0.996 6.327 2.89 7.304 3.309 0.529 0.227 1.733-2.271 1.344-2.515-1.302-0.813-7.951-4.733-9.251-5.186-0.847-0.295-1.082-0.127-1.545 0.424" fill="#0f141b"/>
  </g>
  <g transform="matrix(.71936 0 0 -.71936 39.715 47.758)">
   <path d="m0 0c-0.942 0.801-1.502 2.066-1.535 3.471-0.038 1.589 0.623 3.138 1.811 4.249 2.576 2.408 6.778 2.934 7.971 1.97 0.806-0.653-0.567-5.053-2.494-6.867-1.597-1.504-3.541-1.449-4.425-0.536-0.874 0.903-0.748 2.4 0.275 3.765 0.876 1.168 2.36 2.101 3.756 1.366 0.302-0.16-0.276-1.252-0.577-1.094-0.751 0.396-1.709-0.049-2.269-0.796-0.55-0.733-0.791-1.873-0.298-2.381 0.357-0.367 1.559-0.49 2.69 0.576 1.558 1.468 3.018 4.64 2.525 5.126-0.494 0.486-4.254-0.11-6.309-2.032-0.945-0.884-1.449-2.061-1.42-3.316 0.025-1.038 0.436-1.995 1.1-2.559 2.201-1.873 3.86-0.882 6.423 1.861 1.032 1.103 3.173 6.889 2.542 7.968-1.026 1.755-5.51 0.491-8.17-1.421-1.56-1.121-5.247-3.757-3.476-6.797 0.703-1.208 0.015-1.649-0.817-0.478-1.849 2.601-0.305 5.492 3.571 8.279 3.093 2.222 7.604 3.396 9.875 1.194 0.589-0.571-1.823-8.818-2.664-9.632-2.35-2.278-6.263-3.464-8.085-1.916" fill="#0f141b"/>
  </g>
  <g transform="matrix(.71936 0 0 -.71936 41.955 48.106)">
   <path d="m0 0c0.312 0.535 3.914 6.202 5.034 8.014-2.056-1.677-6.292-6.688-6.391-6.827-0.196-0.276-1.204 0.426-1.014 0.706 0.098 0.145 3.773 6.631 4.868 9.19-2.318-2.125-5.518-5.122-7.121-7.476-0.449-0.656-0.971-0.179-0.524 0.478 2.018 2.961 6.522 8.216 8.621 9.615 0.84 0.563 1.107 0.047 0.935-0.69-0.37-1.588-1.048-3.73-1.942-5.688 1.695 1.59 3.143 2.781 4.64 3.751 0.25 0.161 0.974-0.474 0.801-0.715-1.586-2.21-4.439-7.892-5.117-9.264-0.423-0.855-3.329-2.016-2.79-1.094" fill="#0f141b"/>
  </g>
  <g transform="matrix(.71936 0 0 -.71936 68.775 44.904)">
   <path d="m0 0c-1.868 2.721-5.026 3.757-7.619 2.654-1.383-0.589-3.116-2.018-4.037-5.395-0.945-3.469-0.233-7.592 1.924-10.296 0.298-0.373 1.156-0.273 0.887 0.082-0.572 0.755-3.173 5.221-1.878 9.974 0.625 2.295 1.965 3.807 3.588 4.497 2.081 0.886 3.603 1.104 6.202-1.77 1.207-1.334 1.319-5.81 1.188-6.7-0.574-3.901-2.625-6.553-5.039-6.425-1.174 0.063-2.169 0.646-2.954 1.747-1.456 2.042-1.75 5.254-1.192 7.181 0.904 3.119 3.654 4.674 5.367 4.029 2.49-0.94 2.316-4.155 1.974-6.639-0.529-3.843-1.095-4.298-3.248-4.03-2.432 0.301-2.933 2.12-2.289 4.982 0.535 2.383 1.029 4.275 2.718 3.764 1.218-0.368 1.42-2.938 1.321-4.256-0.09-1.186-0.847-2.899-1.459-2.922-1.123-0.039-1.888 1.025-1.388 2.953 0.246 0.949 0.552 1.68 1.138 1.68 9e-3 0 0.017 0 0.025-2e-3 0.465-0.113 0.819-0.836 0.405-1.873-0.126-0.311-0.312-0.228-0.353 0.026-0.142 0.896-1.149 0.742-1.005-0.154 0.19-1.181 0.838-1.378 1.108-1.408 0.598-0.065 1.151 0.76 1.235 1.933 0.118 1.718-0.59 2.621-1.233 2.702-0.743 0.093-1.756-0.293-2.368-2.651-0.3-1.154-0.136-2.326 0.448-3.214 0.443-0.673 1.082-1.102 1.8-1.214 0.25-0.04 0.643-6e-3 1.103 0.365 0.694 0.56 1.478 1.897 1.601 3.971 0.215 3.593-0.987 4.724-2.033 5.039-0.554 0.167-1.14 0.085-1.693-0.238-1.286-0.749-2.236-2.719-2.576-4.23-0.795-3.532 0.666-6.144 3.341-6.48 4.463-0.56 4.382 3.318 4.626 5.089 0.364 2.644-0.071 6.946-2.761 7.963-1.315 0.496-6.038-1.549-6.991-4.842-1.155-3.988 0.678-10.277 5.272-10.506 3.034-0.154 5.565 2.332 6.323 7.48 0.075 0.508-0.962 6.383-1.478 7.134" fill="#0f141b"/>
  </g>
  <g transform="matrix(.71936 0 0 -.71936 64.791 54.6)">
   <path d="m0 0c0.019 1.026 0.756 6.969 1.598 11.433-1.725-3.124-2.613-6.342-3.054-9.157-0.052-0.327-1.377-0.642-1.355-0.312 0.106 1.585 1.228 7.65 1.709 11.345-1.234-2.526-2.741-6.414-3.546-8.703-0.114-0.322-1.214 0.391-1.135 0.723 0.769 3.245 3.731 9.565 5.062 11.582 0.161 0.243 1.107-0.136 1.06-0.424-0.187-1.136-0.696-4.442-1.048-7.344 1.041 2.666 2.569 5.714 3.591 7.245 0.167 0.253 0.875-0.695 0.831-0.994-0.265-1.788-0.535-3.805-1.042-6.846 0.979 2.669 1.61 3.997 2.034 4.832 0.136 0.267 1.052-0.016 1.019-0.314l-0.075-0.655c-0.298-2.611-1.114-9.401-1.325-12-0.054-0.663-0.973-0.726-0.979-0.063-0.016 1.751 0.333 5.411 0.662 8.485-1.216-3.184-2.973-7.461-3.216-8.861-0.091-0.526-0.8-0.525-0.791 0.028" fill="#0f141b"/>
  </g>
  <g transform="matrix(.71936 0 0 -.71936 84.657 30.477)">
   <path d="m0 0c-0.579 4.049-3.581 6.81-7.496 7.369l-0.563-0.761c3.716-0.292 6.393-3.067 6.93-6.822 0.317-2.241 0.903-4.829 3.112-6.634l0.444 1.012c-1.365 1.243-2.119 3.666-2.427 5.836" fill="#0f141b"/>
  </g>
  <g transform="matrix(.71936 0 0 -.71936 27.224 76.287)">
   <path d="m0 0c0.319 3.355-14.027 29.966-21.668 34.157-0.65 0.356-1.268 0.392-1.93 0.16-4.838-1.702-8.81-11.606-8.836-18.127-2e-3 -0.665 0.197-1.057 0.492-1.409 2.56-3.054 14.442-15.579 17.769-18.664-2.42-1.856-3.869-2.95-4.005-3.729-0.135-0.776 0.708-2.375 6.444-8.348-1.743-1.363-3.077-2.428-3.163-3.372-0.087-0.963 4.246-7.646 4.724-8.477l0.486 1.272c-0.214 0.366-3.668 6.096-3.711 7.165-0.025 0.639 1.673 2.019 2.615 2.81 0.486 0.408 0.404 0.706 0.096 1.025-5.059 5.217-6.143 7.084-6.085 7.746 0.195 0.789 3.616 3.354 3.75 3.457 0.347 0.268 0.281 0.597 0.022 0.819-2.778 2.397-14.275 14.943-17.481 18.743-0.552 0.652-0.454 0.861-0.434 1.397 0.171 4.819 2.739 14.343 7.356 16.49 0.643 0.299 0.871 0.268 1.52-0.153 6.889-4.478 21.064-30.106 20.74-32.596-0.323-2.476-2.891-4.662-6.499-7.093-0.326-0.219-0.359-0.382-0.155-0.716 0.304-0.495 2.413-3.594 3.476-5.347l0.541 1.231c-1.079 1.666-2.474 3.98-2.682 4.314 3.781 2.584 6.421 5.172 6.618 7.245" fill="#0f141b"/>
  </g>
  <g transform="matrix(.71936 0 0 -.71936 6.8829 63.73)">
   <path d="m0 0c1.62 1.744 2.862 3.642 3.816 6.473 0.557 1.66 1.333 1.39 0.876-0.302-0.789-2.92-2.327-5.159-4.176-6.697-1.34-1.114-1.808-0.866-0.516 0.526" fill="#0f141b"/>
  </g>
  <g transform="matrix(.71936 0 0 -.71936 10.391 56.196)">
   <path d="m0 0c0.168 1.129 0.261 2.275 0.273 3.387 0.012 1.186 0.614 1.201 0.739 0.02 0.127-1.197 0-2.365-0.292-3.534-0.289-1.157-0.9-1.077-0.72 0.127" fill="#0f141b"/>
  </g>
  <g transform="matrix(.71936 0 0 -.71936 20.417 73.072)">
   <path d="m0 0c-1.536 2.497-5.43 8.411-7.294 10.792-0.934 1.194-0.519 1.495 0.515 0.388 1.894-2.029 6.249-8.215 7.531-10.886 0.66-1.375 0-1.517-0.752-0.294" fill="#0f141b"/>
  </g>
  <g transform="matrix(.71936 0 0 -.71936 18.115 73.101)">
   <path d="m0 0c-0.761 1.149-2.502 3.837-3.53 5.32-0.797 1.148-0.486 1.47 0.441 0.423 0.828-0.935 3.034-3.988 3.725-5.382 0.828-1.67 0.353-1.853-0.636-0.361" fill="#0f141b"/>
  </g>
  <g transform="matrix(.71936 0 0 -.71936 13.789 108.94)">
   <path d="m0 0c-0.139 0.083 1.098 2.867 1.809 4.185l-1.486-0.158c-0.85-2.066-1.731-4.459-1.252-4.885 0.655-0.578 7.543 1.123 10.704 2.324l0.095 1.581c-3.32-1.486-9.613-3.2-9.87-3.047" fill="#0f141b"/>
  </g>
  <g transform="matrix(.71936 0 0 -.71936 32.779 110.27)">
   <path d="m0 0c-0.317-0.01-2.441 1.561-3.874 2.753l-1.503-0.639c1.56-1.271 4.563-3.171 5.345-3.171 0.695 0 3.252 1.351 4.757 2.705l-1.156 1.053c-1.106-1.14-3.252-2.691-3.569-2.701" fill="#0f141b"/>
  </g>
  <g transform="matrix(.71936 0 0 -.71936 52.24 108.73)">
   <path d="m0 0c-0.656-1.554-1.998-3.555-2.216-3.574-0.219-0.018-4.701 2.172-7.04 3.401l-1.45-0.759c2.355-1.3 7.858-3.777 8.599-3.748 0.645 0.026 2.832 2.884 3.489 4.058z" fill="#0f141b"/>
  </g>
  <g transform="matrix(.71936 0 0 -.71936 67.991 107.7)">
   <path d="m0 0-1.986 0.104c1.345-1.223 3.262-3.202 3.073-3.44s-8.202 0.055-11.707 1.074l-0.415-1.416c4.009-1.015 12.572-1.198 13.091-0.288 0.514 0.9-0.693 2.594-2.056 3.966" fill="#0f141b"/>
  </g>
 </g>
</svg>
