<?xml version="1.0" encoding="UTF-8"?>
<!-- Created with Inkscape (http://www.inkscape.org/) -->
<svg version="1.1" viewBox="0 0 104.8 143.2" xmlns="http://www.w3.org/2000/svg">
 <path d="m34.485 80.373c3.1565-5.09 7.4223-9.7257 13.195-11.972 0.84646-0.32974 1.2796-3.3269 0.82458-4.4079 0 0-20.131 14.131-20.067 14.173 0.06421 0.0434 6.0472 2.2068 6.0472 2.2068" fill="#403a3a"/>
 <g fill="#dcbc00">
  <path d="m43.498 67.897c-1.1893 0.11955-2.2999-0.22081-3.0698-1.2013-0.6077-0.77308-0.69586-1.8216-0.3587-2.8772l-0.94767-0.97554c-0.40488-0.0564-0.77484-0.1936-1.0651-0.41511-7.7189 0.87926-11.935 10.462-8.7474 13.538 3.6069 3.4824 13.28-2.1295 14.189-8.0688"/>
  <path d="m29.31 75.965c-0.94132-0.90816-1.2341-2.3856-0.98471-4.0368-10.212 5.3016-11.543 14.061-8.0296 16.807 4.6699 3.6503 14.998-2.9982 15.436-12.452-2.479 1.0059-4.9535 1.099-6.4221-0.31884"/>
  <path d="m20.295 88.736c-1.5032-1.1744-2.1158-3.451-1.5317-6.0856-16.068 11.814-18.761 29.557-9.9941 33.808 9.3769 4.5472 22.968-7.2985 20.34-28.686-3.1047 2.1066-6.597 2.696-8.8137 0.96319"/>
 </g>
 <path d="m34.438 117.81c-1.1166 0.53149-4.4245 0.1252-5.2709-0.31496-0.7953-0.41335-1.8005-2.0227-2.5965-3.9324-2.2992 2.5866-6.6644 11.75-7.5486 14.049-1.0076 2.6212-2.557 3.3774-2.5066 7.2583l1.7282 2.4011 9.1565 0.92301 2.6233-1.9631c0.57101-6.6094 1.1265-13.664 4.7595-18.59-0.11532 0.0568-0.231 0.115-0.34491 0.1693" fill="#595757"/>
 <path d="m30.817 128.57c0.45956-4.1363 2.053-8.7519 3.9656-10.924-1.8512 0.67786-4.7891 0.29697-5.6123-0.16221-0.82317-0.45921-2.0198-1.8209-2.5997-3.9159-0.94379 1.0616-5.9777 9.427-7.4745 14.061 3.1357-4.7757 11.07-2.7919 11.721 0.94167" fill="#403a3a"/>
 <path d="m12.13 46.917c9.117-3.1908 13.039-16.463 7.2583-18.599-6.2662-2.3154-14.936 10.497-8.7202 18.045z" fill="#dcbc00"/>
 <path d="m10.796 46.646c-2.8529-5.1912 0.82141-13.274 4.8907-11.869 4.6368 1.6009 1.5988 9.8164-3.5205 12.416z" fill="#ffe793"/>
 <path d="m104.12 43.741c-1.0972-9.555-8.339-17.978-16.714-18.205-2.6293-1.8781-7.0915-1.6354-8.8719 0.97448 1.0828 0.24969 2.8148 1.0958 4.4206 2.0819-1.0319 2.0399-1.6714 4.8907-1.7694 6.9832-2.0191-1.6446-4.817-4.3807-5.4272-4.3338-0.8496 5.6663 2.8945 11.152 5.1277 12.178l-0.0363 0.92544c-0.0504 2.8486 1.7839 12.026 3.2624 17.823-0.58336 0.21163-1.2224 0.60557-1.7938 1.1258-1.9532-2.0862-5.9791-3.5921-8.7918-2.8659l-3.2934 6.9289c1.7994 5.6003 6.2119 7.8857 10.468 7.1627 5.345 8.1506 16.458 5.4423 17.27-4.0242 4.6086-6.7878 7.2093-17.53 6.1491-26.755" fill="#dcbc00"/>
 <path d="m89.081 77.076-17.864-11.792-0.98576 2.0742c1.7991 5.6003 6.2119 7.8857 10.467 7.1627 5.2293 7.9732 15.971 5.5499 17.196-3.4204-2.5534 3.1625-5.6031 5.2498-8.8144 5.9752" fill="#baa000"/>
 <path d="m48.616 32.471c5.5227-2.6219 11.717-7.8604 13.783-12.703 3.565-8.3541 2.1972-16.95-3.985-18.91-6.6312-2.1027-14.926 3.9297-18.07 11.29-2.2152 5.1848-1.7881 13.203 0.78511 17.701 0.49304-0.10477 1.5962 0.29027 2.9809 1.713 0.47544-1.6597 1.3134-3.5741 2.0008-3.5456 0.68774 0.0289 1.4778 3.0317 2.5051 4.4544" fill="#dcbc00"/>
 <path d="m65.524 28.427c3.7022-2.4977 3.9459-5.6553 3.7981-5.7788-0.38513-0.32096-4.762 0.26557-7.3105 3.7381-0.94026-0.92407-1.8647-1.3952-2.9637-1.8569-0.59288 1.4224-7.6262 6.8358-10.424 7.9387-1.379-2.2533-1.931-4.5479-2.5129-4.4513-0.71596 0.11955-1.6009 2.2717-2.0012 3.5456-0.96531-1.0355-1.89-1.8759-2.8222-1.6929-1.8544 0.36431-5.6084 8.3887-4.7888 12.898 0.52126 2.866 6.9353 7.2587 7.8297 6.8859 0.41966-0.17494 0.23276-1.9585 1.9225-4.3338 0.13649-0.19223 0.43272-0.41899 0.83834-0.6641 0.13402 3.0916-0.17988 5.1249-0.83622 7.4032-0.47861 1.6636 6.1544 3.0176 8.0395 1.5628 0.88205-0.68068 0.37842-4.0072 2.8479-7.107 1.4961-1.878 4.1102-1.629 4.8893-2.4953 2.4949-2.7721 2.9992-8.9717 2.4819-11.973 2.4367-0.14319 4.306-2.175 4.2372-2.4688-0.0596-0.25326-1.1832-0.85422-2.9457-0.66767-0.73815 0.0783-0.91768-0.0522-0.27933-0.48281" fill="#c9c8c3"/>
 <path d="m48.174 31.743c0.14249 0.26663 0.28956 0.51597 0.44263 0.7276 5.3538-2.5415 11.337-7.5419 13.582-12.257 2.0541-12.703-6.359-15.332-12.451-8.7301-1.0207-5.9326-5.9181-4.5948-10.121 2.7746-1.3515 5.0639-0.74168 11.666 1.5035 15.591 0.27333-0.0579 0.73427 0.0384 1.3264 0.37737-1.3123-2.315-2.4406-5.3972-1.762-7.4879 1.3734-4.2301 5.3231-4.362 6.4662-1.0133 1.5067-3.1724 9.0151-3.0684 8.2839 2.3415-0.37984 2.8127-4.6505 6.6313-7.2703 7.6766" fill="#ffe793"/>
 <path d="m52.427 36.52c0.61898 0.54317 3.5586 2.8727 4.5941 2.46 0.58723-0.23385 1.7553-1.099 2.3207-4.1466 0.48144-2.5923 0.29309-4.9835 0.04551-5.1097-1.0369-0.52907-6.6192 5.8109-6.9603 6.7963" fill="#fff"/>
 <path d="m54.848 33.232c-0.02505 1.8396 0.32586 4.0362 0.73074 4.0069 0.32907-0.0233 0.88949-2.4889 0.40347-5.2416z" fill="#f65d36"/>
 <path d="m48.291 44.021c-0.62957 2.2858-0.72866 6.129 0.29415 7.9037 1.4813-0.26099 3.3043-1.4947 4.3719-3.0165 1.8449-2.6286 1.689-5.0152 3.4278-6.4771 0.0568-0.4003 0.17635-0.81611 0.33119-1.2224l-2.4279 0.5262c-0.09984 0.76179-1.3258 3.5784-1.8559 3.711-0.53008 0.13226-2.1531-1.5575-2.3189-2.2202z" fill="#ef869b"/>
 <path d="m47.829 48.952c0.01905 0.54807 0.43522 2.303 0.75653 2.9724-0.18976 0.0141-1.1346 0.0455-1.494-0.2444 0.46023-0.75583 0.73745-1.9973 0.73745-2.728" fill="#9fa09b"/>
 <path d="m54.288 41.735c-0.09984 0.76179-1.3258 3.5784-1.8559 3.7106-0.53008 0.13226-2.1531-1.5575-2.3189-2.2198l-1.8223 0.7953c-0.39289 1.4266-0.57912 3.4599-0.41511 5.218 1.9186-1.7568 4.7281-3.177 6.6799-3.584 0.47223-1.2862 0.85101-2.4014 1.829-3.2239 0.0568-0.4003 0.17635-0.81612 0.33119-1.2224z" fill="#d07588"/>
 <path d="m60.203 44.786c2.0325 1.233 2.4325 3.6076 1.264 5.6314-1.3103 2.2699-4.7257 2.6473-6.4627 1.1099-0.21018 1.0295-0.33503 1.8033-0.71134 2.0936-0.30685 0.237-0.74136 0.39818-1.2492 0.49693 4.1398 2.1638 8.1816 1.8135 10.68-1.615 2.1137-2.9005 1.2552-7.5253-1.1758-9.1565-0.16295 0.23947-0.3333 0.46768-0.51738 0.67257-0.34071 0.37846-1.0316 0.5442-1.8273 0.76712" fill="#dcbc00"/>
 <path d="m62.548 43.346c0.5255 0.33825 1.2947 1.2746 1.5952 1.8428-1.2704 1.4379-4.1123 0.6017-6.0846 3.0095-2.2322 2.7234-1.6724 6.7201-3.1096 6.7201 0 0-1.0704-0.26772-1.7719-0.83587 0.76849-0.16718 1.1836-0.31426 1.2774-0.64192 0.09278-0.32762 1.1632-6.1117 3.2363-7.5161 2.0724-1.4048 4.5659-1.2785 4.8572-2.5785" fill="#baa000"/>
 <path d="m61.467 50.417c1.1684-2.0241 0.76849-4.3987-1.264-5.6314-1.0235 0.28744-2.2202 0.6708-3.062 1.7278-1.4164 1.7779-1.8537 3.6278-2.1366 5.0131 1.737 1.5374 5.1524 1.1604 6.4627-1.1096" fill="#ffe793"/>
 <path d="m60.205 44.787c-3.0694 0.52162-4.6273 3.4246-5.2008 6.7402 0.3647 0.32272 0.80627 0.55584 1.2838 0.71032 0.31108-1.276 0.74736-2.7908 1.7701-4.039 1.0708-1.3074 2.3969-1.6576 3.59-1.9356-0.31775-0.57524-0.79742-1.0834-1.4432-1.476" fill="#dfcc82"/>
 <path d="m63.927 52.185c-0.06703 0.10618-0.12943 0.2148-0.20387 0.31743-0.45706 0.62671-0.96636 1.1487-1.518 1.573 2.242 2.0837 0.6017 6.5981-2.8074 6.5981-3.3015 0-4.616-3.3064-3.5696-5.485-0.91239-0.22574-1.8452-0.58018-2.7848-1.0711 0.50751-0.0991 0.94238-0.25992 1.2492-0.49727 0.06029-0.0462 0.11215-0.10933 0.16115-0.17953l-1.2947 0.22468c-2.0689 4.6601 0.52867 10.057 6.2218 10.057 5.8398 0 9.2662-7.7934 4.5461-11.537" fill="#fff"/>
 <path d="m55.829 55.189c-1.0464 2.1789 0.26804 5.485 3.5696 5.485 3.4091 0 5.0491-4.5144 2.8074-6.5977-1.7786 1.3698-4.0037 1.6992-6.377 1.1127" fill="#fff"/>
 <path d="m96.502 34.254c0.3361 1.6721-0.55089 3.6884-2.97 3.6884-1.6989 0-3.9314 0.5262-5.0942 1.0242-0.0384-2.1673 0.83834-3.9459 2.0181-5.1563-3.0649-1.5116-6.4986-0.30544-7.0298-1.1286-0.18658-0.28815 0.44122-1.5049 1.646-2.6402-0.42253-0.32727-0.89722-0.66128-1.3956-0.98894-0.82882 1.9701-1.3233 5.2307-0.9826 7.343 6e-3 0.0356-0.0571 0.18905-0.16679 0.42181 0.97056 1.8259 0.60272 6.1911-0.65144 6.7177-0.47328 0.19889-1.1938-0.1051-1.9786-0.7777 0.47611 2.1486 2.8098 5.3468 4.0139 5.9178 3.6563 4.7598 1.0062 10.341 1.003 16.936-2.9273-0.16856-7.4745-2.2999-10.227-4.386 1.263 1.5998 1.8125 3.4934 1.0514 4.7144-1.1639 1.8682-4.9183 1.1445-7.4118-1.9444 0.43875 1.2146 0.68492 2.3098 0.78119 3.3132 5.0103 2.8606 12.443 6.1756 17.52 9.3967 2.3895 1.5169 4.3896 1.4108 6.0278-0.83305 7.9016-10.814 10.682-31.269 3.8461-41.618" fill="#595757"/>
 <path d="m48.413 70.723c-1.324 2.703-4.5648 4.8554-6.9144 5.6656 1.1727 1.1907 5.7742 0.62251 7.3553 0.3199-0.35553 0.67574-1.457 1.6523-1.8477 1.8121 0.60523 0.39325 1.6372 0.45392 2.4572 0.16154 0.40453-1.154 0.73607-2.3658 0.90537-3.5117-0.46098-0.80659-1.3194-2.6346-1.9557-4.4474" fill="#fff"/>
 <g fill="#baa000">
  <path d="m18.834 87.291c1.008 4.8389 6.754 5.3429 10.534 2.4194l-0.2589-1.9373c-3.2694 1.8869-7.0499 3.651-10.276-0.48211"/>
  <path d="m35.512 78.371c-4.7077 0.72619-7.8399-0.70326-7.4124-4.5514 0.57206 3.8443 4.7934 3.5734 7.6322 2.4649z"/>
  <path d="m39.852 65.667c0 1.2602-0.10086 3.377 3.2761 3.5787l0.36506-1.349c-1.1208 0.13931-2.7841-0.11285-3.6412-2.2297"/>
 </g>
 <path d="m31.812 71.615c2.3489 1.8562 7.3744-0.0874 9.2122-4.3331-0.21477-0.16224-0.41476-0.35655-0.59531-0.58653-0.81576-1.0383-0.69832-2.5732 0.13402-3.9543-1.0606 0.28956-3.0067-0.39677-3.0067-0.39677-6.0853 3.5833-7.4114 7.9524-5.7442 9.2708" fill="#c9c8c3"/>
 <path d="m29.31 75.965c-0.83093-0.80166-1.1568-2.0477-1.0506-3.4651-7.1941 4.7056-6.9917 8.5562-4.9059 10.154 3.013 2.3076 8.3012-0.45815 9.0009-5.6208-1.1981 9e-3 -2.2643-0.31425-3.0444-1.068" fill="#c9c8c3"/>
 <path d="m28.1 73.819c-0.30932 2.7873 1.2542 4.2993 3.925 4.6491 0.14848-0.45459 0.26102-0.93321 0.32942-1.4351-0.33789 2e-3 -0.66234-0.0243-0.97554-0.0773-1.6234-0.20313-2.9731-1.0813-3.2789-3.1368" fill="#9fa09b"/>
 <path d="m20.295 88.736c-1.0485-0.81894-1.6615-2.1761-1.7412-3.815-10.875 8.7255-11.486 16.592-6.8947 19.037 6.1068 3.2507 12.834-4.634 12.631-14.259-1.5074 0.17424-2.9058-0.1118-3.9949-0.96319" fill="#ea5533"/>
 <path d="m18.834 87.291c0.59919 2.8762 2.8726 4.2206 5.4124 4.2245 0.04018-0.58017 0.05535-1.1695 0.04441-1.7656-1.8689 0.2691-3.7413-0.26098-5.4568-2.4589" fill="#d14a2c"/>
 <path d="m74.703 118.08c0.3682-0.14355 4.046-2.2322 5.9061-3.3897-3.559 0.0479-7.8907-1.2594-12.034-2.5235-1.0704 1.3018-2.8635 2.963-4.4403 3.651-0.75579 0.3308-0.99808 1.009-0.7438 1.5137 1.7857 3.5473 7.8635 12.403 10.294 14.586 0.4324 0.3883 2.5055 0.59535 3.7209 0.47121l6.7896-6.6408c-1.3892-0.94661-2.3496-0.95155-3.2348-1.5698-1.8851-1.3166-3.7695-3.158-6.2574-6.098" fill="#403a3a"/>
 <path d="m74.703 118.08c0.0286-0.012 0.0843-0.0388 0.15202-0.0726l-1.2136 0.38442c1.7553 3.0095 4.1148 5.2434 5.9967 6.5205 0.52589 0.35656 2.1595 0.9064 3.7671 1.6079l0.79001-0.77238c-1.3892-0.9466-2.3496-0.95154-3.2348-1.5698-1.8851-1.3166-3.7695-3.158-6.2574-6.098" fill="#595757"/>
 <path d="m89.437 131.05c-0.20881-1.6682-2.7073-4.0936-6.2676-5.4317-0.42252 0.32198-0.80659 0.62283-1.0415 1.0686-0.20454-0.097-0.401-0.17882-0.57908-0.22535-0.67543 0-1.3127 1.738-1.3815 2.7164-0.75653-0.46803-1.5677-0.82953-2.3641-0.95543-0.5213 0.22288-1.2654 3.3742-1.0919 4.3412 0.33398 0.7632 6.4552 0.9889 6.8961 0.37172 0.12203-0.17106-0.13437-0.67681-0.63274-1.2965 1.3543 0.43805 3.8598 1.0404 4.5768 0.65144-0.0786-0.43381-0.43275-1.0397-0.93567-1.6957 1.2217 0.17494 2.2808 0.39536 2.8212 0.4553" fill="#baa000"/>
 <g fill="#dcbc00">
  <path d="m27.7 142.61c0.67998 0.0786 2.1771-3.8182 2.2293-4.8382 0.13473-2.6349-1.4026-5.7869-1.8816-5.7869-0.50786 0-2.4625 4.4992-2.4981 5.4074-0.0804 2.0727 1.3381 5.1231 2.1504 5.2176"/>
  <path d="m22.672 132.19c0.60382 0 2.0396 3.589 2.3722 5.4388 0 0.42711-2.1348 5.2335-2.8466 5.2335-0.42954 0-2.1235-3.17-1.8653-4.9806 0.31214-2.187 1.6767-5.6917 2.3397-5.6917"/>
  <path d="m17.692 131.71c0.85492-0.0268 2.4349 4.1261 2.119 6.4189-0.09525 0.50613-2.04 3.2098-3.6838 3.5417-1.7236-4.2372 1.0591-9.9447 1.5649-9.9606"/>
 </g>
 <path d="m18.764 82.65c0.03669-0.16683 0.08361-0.33714 0.13049-0.50716-5.5696-9.4524-7.9594-27.013-5.8162-39.257 0.1446-0.82565-0.40382-1.0305-0.85316-0.23312-5.9163 10.491-8.9805 35.826-1.8689 48.094 2.2184-2.8416 5.0131-5.6011 8.4077-8.097" fill="#c9c8c3"/>
 <path d="m88.25 106.55c-0.92086-3.7537-10.844-12.833-18.653-16.804-0.64293-0.32695-1.1141-0.58759-1.5988-0.9198-0.51315-3.7656-1.3134-7.9923-1.2975-14.098 2.0354-2.7548 3.425-5.7453 1.6262-10.728 2.4932 3.0888 6.2479 3.8129 7.4114 1.9447 0.89016-1.428-8e-3 -3.7769-1.749-5.4977 1.4048-0.20987 2.7774-0.13085 3.3731-0.0603-1.7902-3.1562-6.1925-4.4658-9.665-3.4324-0.40559 0.12062-1.05 9e-3 -1.5571-0.18058-0.01094 3.4419-2.8384 6.9536-6.7589 6.9536-4.7412 0-7.3327-3.7434-6.8729-7.6868-4.0689 3.5816-8.1929 0.43275-12.564 2.0714-1.9296 0.72333-2.9298 1.9937-2.4162 3.5826 0.35514 1.1018 1.7945 1.3892 3.0345 1.051-0.83199 1.3811-0.94943 2.916-0.13402 3.954 1.9571 2.491 6.1086 0.86551 8.1714-1.9994 0.23946 1.567-0.41511 3.3368-0.84822 3.7078 0.45357 2.3023 1.9511 5.6014 2.6173 6.7674-0.5389 3.6493-2.7217 7.9669-3.6846 8.9562-3.8316 1.4047-7.769 3.8425-11.079 6.5642-1.6199-1.185-4.3832-1.0468-6.2525-0.29557 0.15766 2.515 0.02505 7.0175-0.48673 8.4656-0.2751 3.4528-1.9214 7.2576-3.5635 10.209 0.40912 3.2645 2.4632 7.6992 3.864 8.4278 0.84646 0.44016 4.1543 0.84646 5.2709 0.31496 1.6633-0.79248 3.4366-1.8414 5.1161-3.0063 8.2123 1.0073 15.673 0.0268 21.403-4.6622 5.8144 0.99067 13.948 4.7112 19.853 4.5458 2.0562-0.0575 5.1316-1.8841 6.116-2.9993 0.44122-0.49939 1.6675-3.7431 1.3233-5.145" fill="#c9c8c3"/>
 <path d="m53.32 60.756c0.93849 2.205 2.7883 4.8001 7.4668 4.2224 4.7828-0.59077 5.2596-4.8114 5.2593-7.0132z" fill="#9fa09b"/>
 <path d="m43.234 19.592c-0.03489 1.124 0.03951 2.2004 0.18658 3.0419 0.2751 1.5737 1.5525 1.1445 1.293-0.17494-0.1506-0.76743-0.26804-1.8957-0.34001-3.0818-0.37772-9e-3 -0.7632 0.061-1.1395 0.21481" fill="#efdf9c"/>
 <path d="m44.434 14.56c-0.79918 1.2743-1.1438 3.2151-1.2002 5.0325 0.37634-0.15377 0.76182-0.22433 1.1395-0.2148-0.11074-1.8392-0.10933-3.8189 0.06068-4.8177" fill="#fef5d3"/>
 <path d="m8.344 105.19c-0.18341 1.0461 0.23523 1.3603 0.73216 0.31426 0.18306-0.38513 0.60593-1.4295 1.1138-2.7093-0.25217-0.29379-0.46447-0.62039-0.64258-0.97236-0.60946 1.3892-1.0782 2.6508-1.2034 3.3674" fill="#efdf9c"/>
 <path d="m12.458 96.295c-0.88314 1.3067-2.0421 3.547-2.9111 5.527 0.17812 0.35197 0.39042 0.67892 0.64258 0.97271 0.85245-2.1479 1.9454-4.9592 2.5482-6.439 0.18232-0.44651-0.02928-0.43169-0.27968-0.0606" fill="#f7bd9c"/>
 <path d="m30.001 72.562c0.15025 0.1252 0.81823-0.53644 1.4732-1.3201-0.13226-0.19999-0.22606-0.43205-0.27721-0.6955-0.72122 0.89581-1.3645 1.8756-1.196 2.0156" fill="#efdf9c"/>
 <path d="m32.851 69.02c-0.17773-0.13684-0.95296 0.65564-1.6545 1.5268 0.05115 0.2631 0.14496 0.49551 0.27721 0.6955 0.79216-0.94841 1.5645-2.0777 1.3772-2.2223" fill="#eae9e3"/>
 <path d="m20.897 84.433c0.22112 0.15835 1.1413-0.97872 1.9849-2.2191-0.20172-0.22782-0.37208-0.48457-0.50257-0.76743-0.9205 1.3187-1.7465 2.7982-1.4823 2.9866" fill="#efdf9c"/>
 <path d="m24.383 79.342c-0.23597-0.18022-1.1597 0.89479-2.0043 2.1052 0.13084 0.28286 0.30085 0.53961 0.50257 0.76708 0.88844-1.3067 1.6915-2.7273 1.5018-2.8723" fill="#eae9e3"/>
 <g fill="#9fa09b">
  <path d="m54.74 28.656c2.5496-1.9789 6.0666-2.6268 7.1564-2.0445-0.2208-0.62142-1.9243-1.7638-2.8462-2.0043-0.62177 0.98185-3.6888 3.7279-4.3102 4.0488"/>
  <path d="m69.193 22.623c-0.79777 1.58-2.2727 3.6246-3.7572 5.0071-0.41159 0.38266-0.66164 1.3176-0.3199 1.2933 0.06315-4e-3 0.12802-0.18479 0.23527-0.25182 2.0724-1.2926 3.815-3.3206 3.8418-6.0486"/>
  <path d="m68.672 29.318c-0.66167 0.68174-2.1052 1.3829-3.4282 1.6238-0.59955 0.10898-1.094 0.59006-1.0623 1.002 0.98224 0.0603 4.33-0.82144 4.4904-2.6258"/>
  <path d="m47.123 44.733s-0.12062 3.9885-0.401 4.951c0 0 0.46098-0.9018 1.1025-0.5812-0.08005-1.3632 0.12026-4.0288 0.70185-5.272z"/>
  <path d="m51.152 32.846c-0.44122-0.08-1.7437 2.5055-0.58124 2.8867 0-0.66163 0.42146-2.5058 0.58124-2.8867"/>
 </g>
 <path d="m63.927 52.185c-0.06703 0.10618-0.12943 0.2148-0.20387 0.31743-0.45706 0.62671-0.96636 1.1487-1.518 1.573 2.242 2.0837 0.6017 6.5981-2.8074 6.5981-3.3015 0-4.616-3.3064-3.5696-5.485-0.82846-0.20528-1.6752-0.52236-2.5284-0.94629l-0.40488 0.10372c-1.543 4.4886 1.0679 9.3766 6.4859 9.3766 5.8398 0 9.2662-7.7934 4.5461-11.537" fill="#dcbc00"/>
 <path d="m63.915 52.286c-2.5567 3.5784-6.6316 3.9642-10.681 1.9243l-0.50786 0.59743c3.5392 3.6119 10.255 2.8159 11.867-1.9468z" fill="#baa000"/>
 <path d="m55.829 55.189c-1.0464 2.1789 0.26804 5.485 3.5696 5.485 3.4091 0 5.0491-4.5144 2.8074-6.5977-1.7786 1.3698-4.0037 1.6992-6.377 1.1127" fill="#ffe793"/>
 <path d="m63.013 55.296c-0.16789-0.45286-0.43205-0.87079-0.80733-1.2196-1.7786 1.3698-4.0037 1.6992-6.377 1.1127-0.20595 0.42887-0.31704 0.90145-0.34279 1.3839 2.5908 0.94732 5.6091 0.4934 7.5271-1.2771" fill="#dfcc82"/>
 <g fill="#9fa09b">
  <path d="m53.619 52.53c-0.82846 1.0457-5.4741 1.0842-7.3817-0.36752-0.17953 1.6146 6.2101 2.8818 8.0561 1.4577 0.86194-0.66481 0.4077-3.858 2.6935-6.8964l0.16542-0.63451c-2.7912 2.4889-2.8744 5.6095-3.5332 6.4408"/>
  <path d="m44.657 57.72c0.94096 0.80659 4.9063 2.5535 7.9306 1.1424l0.13402-3.0243c-1.8816 1.4785-3.0243 2.2177-8.0646 1.8819"/>
  <path d="m66.736 61.103c0.87393 2.0163 4.6054 5.3383 7.4357 4.6304 1.9613-0.49022 1.737-1.8971 1.5356-2.8384 0.88664 1.7162 0.43487 3.3227-1.0083 3.8983-1.6125 0.64223-6.135-0.33225-7.963-5.6903"/>
  <path d="m56.377 87.616c0 3.5643 6.1191 4.2213 7.9972-0.55901-0.45498 8.9505-10.122 6.8224-7.9972 0.55901"/>
  <path d="m56.321 68.097c1.3984 4.1388 8.2289 3.2063 8.8927-0.11179-0.08678 1.0408-0.43557 2.52-1.2834 3.7632 0.0864 0.19294 0.17953 0.75544 0.16401 1.0411-0.83905-0.83869-5.5682-0.42146-6.8778 0.88773l0.83834-1.609c-1.0065-0.78299-1.7895-2.2936-1.7338-3.9713"/>
  <path d="m57.43 79.906c1.2996 1.6245 6.1491 1.1103 7.2343-0.51738-0.05186 0.49128-1.008 1.731-1.1628 1.938 0.15483 0.33538 0.36149 0.98153 0.46486 1.2915-0.6719-0.64576-5.0382-0.59355-6.4334 0.85316 0.02575-0.3615 0.46556-1.6287 0.77558-2.0675-0.38798-0.2063-0.59429-0.87817-0.87856-1.4979"/>
  <path d="m48.295 67.846c1.5381-1.9013 1.706-5.5929 1.5659-7.131-0.64297 5.1457-8.249 8.5848-9.8432 4.6138 0.73533 4.1966 6.1537 2.7192 8.5453-0.62424 0.07122 0.81577 0.04339 2.1193-0.26804 3.1414"/>
  <path d="m37.613 61.302c0.03986 1.6132 1.0267 2.5665 2.4096 2.3024l1.6273-2.2756c-1.6876 0.81753-3.3096 0.84011-4.0369-0.0268"/>
 </g>
 <path d="m41.861 76.355c1.7465 0.37631 6.2824-0.6472 7.701-2.5471l0.82846 1.6107-0.85916 3.437c-0.87432 0.19925-2.1479-0.0773-2.4085-0.32307 0.64438-0.53608 1.4115-1.1963 1.7028-1.8403-0.8835 0.55584-6.1036 0.60629-6.9645-0.33715" fill="#e0ded8"/>
 <g fill="#baa000">
  <path d="m96.67 34.185 0.0487 0.42217c6.4478 10.289 3.8337 29.932-3.7011 40.746 2.5732-1.391 4.9517-4.8569 4.9517-4.8569 5.4677-13.55 4.538-31.104-1.2993-36.312"/>
  <path d="m93.274 75.292c5.1344-3.3928 9.9144-12.393 10.924-23.711-1.4302 6.833-4.0411 9.2679-5.4949 11.289-0.88597 3.6518-4.3056 10.952-5.4293 12.422"/>
  <path d="m88.56 38.897c0.50397-1.3977 3.4892-2.5178 5.3612-2.7256 1.6044-0.17777 2.5626-0.89267 2.5806-1.9172 0.3509 1.7782-0.62816 3.5798-2.3852 3.6341-2.3658 0.0733-4.3183 0.48775-5.5566 1.0087"/>
  <path d="m83.645 32.698c0.60523-0.55019 6.6386-2.4759 9.2616-1.5406l-0.16542 1.1921-2.2851 1.4608c-3.2715-1.3324-5.9675-0.37878-6.8111-1.1124"/>
  <path d="m78.693 26.463c0.75159-0.38513 5.7954-0.40347 8.5643 2.2558l-2.186 1.3229c-1.9772-1.5063-4.6544-2.9552-6.3784-3.5787"/>
  <path d="m75.841 31.443c0 1.1593 3.377 10.081 6.8044 10.787-0.2014 0.90714-0.65497 2.3186-2.5704 0.60488-1.9154-1.7137-4.8389-5.091-4.234-11.391"/>
 </g>
 <path d="m82.595 42.633c0.78084 1.3445 1.792 1.9352 2.6014 2.1084 2.0361 0.43628 2.6363-1.0979 3.3452-0.67892 1.1092 0.65528-0.95684 6.6856-3.4768 6.4838 0 0-0.45357-1.2598-1.0584-1.6128-0.60522-0.35271-4.0326-3.7801-3.9318-6.0987 0.70573 0.90709 2.1676 1.3106 2.5203-0.20176" fill="#403a3a"/>
 <path d="m87.333 74.992c-5.0403-2.5203-10.593-5.619-13.22-8.0723-1.6612 0.24405-4.0337-0.75301-5.7862-2.9241 0.43875 1.215 0.68491 2.3101 0.78119 3.3135 5.0103 2.8603 12.443 6.1755 17.52 9.3967 2.3895 1.5169 4.148 1.6044 5.8973-0.55442 2.2974-2.8352 4.7666-8.5075 6.1491-13.256-3.2257 7.9133-7.3084 14.113-11.341 12.097" fill="#403a3a"/>
 <path d="m71.075 58.446c1.129 0.0628 3.5826 0.79106 4.5007 1.7793l-1.768-0.0455z" fill="#9fa09b"/>
 <path d="m39.852 65.667c0 0.75403-0.03034 1.8121 0.6641 2.5862 0.18412-0.30861 0.35726-0.62706 0.50433-0.96566-0.19784-0.15236-0.86864-0.73885-1.1684-1.6206" fill="#9fa09b"/>
 <g fill="#dcbc00">
  <path d="m16.085 116.96c-1.8541 0.55125-3.7332 0.62074-5.5157 0.16224-0.81753 4.1617 0.5026 10.2 5.2353 10.221-0.92654-1.6142-1.3878-7.6251 0.28039-10.383"/>
  <path d="m8.7697 116.46c-0.9949-0.48214-1.8343-1.1459-2.5316-1.9476-2.514 3.9064-1.5529 10.686 0.78119 12.143 0.65176-3.8891 2.43-7.8907 3.911-9.4502-0.73783-0.15977-1.4612-0.40562-2.1606-0.74489"/>
  <path d="m4.2899 110.71c-4.2753 2.0075-4.44 7.7077-3.3491 10.152 0.77696-1.4908 3.0744-3.9938 4.6312-4.9404 0.1058-0.40489 0.61577-1.4333 0.61577-1.4333-0.53855-0.83799-1.6199-2.7337-1.8978-3.7787"/>
  <path d="m18.644 115.88c1.6358 1.3011 3.0627 4.4001 3.2176 6.3202 2.6959-2.4808 2.9167-7.4911 2.1768-11.109-1.6008 2.1027-3.4493 3.718-5.3944 4.7891"/>
 </g>
 <path d="m24.009 111.2c-0.42817 0.59535-3.45 4.1561-5.2102 4.6876l2.3249 3.468c-0.75473-4.1529 2.7665-4.7525 3.2899-6.2754z" fill="#baa000"/>
 <g fill="#9fa09b">
  <path d="m86.818 111.8c-5.4889 0.91909-17.701-7.3899-19.898-9.4365-2.1761 3.8676-12.513 7.6833-20.005 5.1672-6.5932 6.3572-19.974 6.863-18.899-4.2506-0.03383 0.0614-2.6786 5.7248-2.7129 5.7862 0.40876 3.2645 2.4628 7.6992 3.8637 8.4278 0.84681 0.44016 4.1543 0.84646 5.2709 0.31496 1.6633-0.79213 3.4369-1.8414 5.1161-3.006 8.2123 1.0073 15.673 0.0265 21.404-4.6625 5.8141 0.99067 13.948 4.7112 19.853 4.5458 1.9888-0.055 4.9267-1.7649 6.0077-2.8864"/>
  <path d="m6.2548 69.395c-0.18094 8.0614 0.97906 15.966 4.1014 21.352 0.1753-0.2208 2.0368-2.5291 2.0368-2.6039-3.8577-4.5497-5.5548-12.41-6.1382-18.749"/>
  <path d="m29.425 92.647c0.49343 0.19682 1.6449 0.59217 3.6846 0.29591l-3.7829 4.1776z"/>
 </g>
 <path d="m68.575 112.16c-1.0704 1.3018-2.8635 2.963-4.4403 3.6514-0.75579 0.3308-0.99808 1.0087-0.7438 1.5137 0.15554 0.30857 0.34526 0.65987 0.56113 1.0418 0.05958 0.0109 0.09768 0.018 0.09768 0.018 0.1506-1.9585 1.9945-0.80976 6.3621-5.6694-0.6144-0.18306-1.2274-0.36961-1.8368-0.55549" fill="#595757"/>
 <g fill="#baa000">
  <path d="m6.3181 114.59-0.73043 1.5599c1.0101 1.094 2.2544 2.2731 1.7511 3.8545-0.84222 2.6441-1.0894 5.7298-0.31955 6.6446 0.28427-2.0145 1.8435-7.2918 3.5826-9.4506-1.4393-0.47968-2.9619-1.1293-4.2837-2.6085"/>
  <path d="m16.085 116.96c-1.7208 0.51212-3.693 0.53396-5.3757 0.17317l-0.17032 1.7046c1.0909 0.14178 2.2861 0.3315 2.7474 1.8523 0.73886 2.4329 0.48916 5.1334 2.4124 6.6792-1.1804-4.3857-0.78789-8.4694 0.38622-10.409"/>
  <path d="m6.1263 114.49 0.02537-0.0504c-0.54913-0.86304-1.5899-2.6988-1.8618-3.722-1.0249 1.1477-0.03563 2.8847-0.45462 4.1346-0.63165 1.8823-2.7975 2.9604-2.8578 5.5926 0.47964-0.86938 3.2081-3.8676 4.4072-4.1977z"/>
  <path d="m18.869 133.62c0.36823 3.3156-1.6879 6.6146-2.6155 7.8353 0.6592 0.0247 3.3936-1.9532 3.6623-3.4179 0.15342-0.83798-0.84892-4.1638-1.0468-4.4174"/>
  <path d="m23.106 132.7c0.73678 4.4819-0.50433 9.1476-0.91909 10.002 0.43942 0 2.8564-4.1017 2.9541-5.1274 0.09768-1.0252-1.7909-4.5818-2.035-4.8748"/>
  <path d="m28.447 132.33c0.18411 0.73642 1.719 2.7626 1.4739 5.7097-0.06209 0.74454-1.3723 3.8506-2.2212 4.5659 0.56324-1.9257 1.6072-6.0391 0.74732-10.276"/>
 </g>
 <path d="m53.484 40.023c0.15378 0.61369-0.51809 4.3536-1.2083 5.3891 0.40312 0.0384 1.9154-2.3524 2.0125-3.6771 0.05888-0.81047-0.68915-1.4051-0.80416-1.712" fill="#9fa09b"/>
 <path d="m58.413 38.488c0.13437 0.38372 0.40277 1.9754 0.46023 2.5316 0.0575 0.55619 0.55619 0.90145 0.80522 0.90145-0.0187-0.9205-0.61334-3.3565-1.2654-3.4331" fill="#9fa09b"/>
 <g fill="#0f141b">
  <path d="m58.552 0.44417c-7.0495-2.2353-15.481 4.33-18.568 11.555-2.2121 5.1774-1.7793 13.326 0.80518 17.939l0.68704-0.17459c-2.5799-4.4121-2.9414-12.403-0.77414-17.475 3.7011-8.6645 12.185-12.7 17.566-10.994 5.5443 1.7578 7.4311 9.6058 3.7339 18.267-1.5388 3.6062-6.6972 9.202-13.456 12.567l0.36749 0.59006c5.2596-2.6466 11.789-7.8681 13.89-12.792 3.9561-9.2697 1.8759-17.54-4.2513-19.483"/>
  <path d="m59.085 8.2498c-2.6695-1.3744-6.2221-0.23492-9.1554 2.6723-0.47791-1.9697-1.4527-3.2888-2.8243-3.4761-1.9948-0.27086-4.4569 1.6633-6.7039 4.9792l-0.78684 2.5178c2.7481-5.1069 5.606-7.0626 7.398-6.8174 1.531 0.20913 2.2142 1.9475 2.4625 3.3907 0.09772 0.57206 0.14778 0.54737 0.52412 0.14002 2.8028-3.0366 6.2461-4.0982 8.7717-2.7968 2.9654 1.5278 4.113 5.7629 3.0469 11.678l0.90925-2.2029c0.37913-4.9084-0.86692-8.655-3.6419-10.085"/>
  <path d="m47.2 21.122c-1.7511-3.4338-5.6074-2.3588-6.8055 1.512-0.64047 2.0699 0.26839 4.5856 1.4954 7.0725l0.79671 0.42816c-1.3374-2.4142-2.3581-5.2427-1.6918-7.2954 1.3176-4.0594 4.8928-3.9339 5.8514-1.1272 0.20458 0.59923 0.36435 0.49308 0.57524 0.11783 1.7528-3.1206 8.3121-2.4625 7.683 2.1912-0.36364 2.6889-4.5024 6.4076-6.9307 7.4114l0.28039 0.48673c2.751-1.1872 6.9402-4.9236 7.3299-7.8064 0.72722-5.382-6.2112-6.0609-8.5841-2.9908"/>
  <path d="m45.972 45.12c-1.5328 2.2258-1.4887 4.179-1.7091 4.2482-0.79142 0.24864-6.8143-3.8069-7.3433-6.7166-0.80059-4.4001 2.9093-12.086 4.4389-12.387 1.6816-0.33718 3.6729 3.535 6.0623 4.5338 0.96213 0.401 1.1473-0.0261 0.18623-0.42817-2.0625-0.86197-4.3183-5.3513-6.4062-4.9059-2.0862 0.44545-5.9869 8.6613-5.1284 13.382 0.58759 3.2324 7.6502 7.5214 8.3887 7.1225 0.49481-0.26733 0.3689-2.2082 2.0696-4.452 0.34879-0.45988 1.8953-1.2072 3.7145-1.9278l-0.04798-0.81612c-2.0227 0.81788-3.7904 1.7148-4.2252 2.3464"/>
  <path d="m56.725 40.796c-0.55972 0.0677-1.3889 0.26452-2.3415 0.54279l-0.07761 0.80871c0.81897-0.2437 1.5494-0.43064 2.0914-0.52656z"/>
  <path d="m48.994 32.634c-1.8019-2.8857-1.9535-5.121-2.9393-4.9553-0.86621 0.14425-1.7405 2.0685-2.1895 3.3989l0.57983 0.68069c0.38195-1.2415 1.2676-3.4066 1.6844-3.3932 0.5213 0.0169 1.0055 2.4734 2.4928 4.5084 0.34565 0.47293 0.70891 0.30014 0.37176-0.23947"/>
  <path d="m50.456 35.135c0.0441-0.46627 0.1626-1.1459 0.34636-1.7014 0.29626-0.89443 0.55619-0.80024 0.35267 0.11356-0.06241 0.28356-0.21407 1.2097-0.25816 1.5751-0.09768 0.81259-0.51809 0.8267-0.44087 0.0127"/>
  <path d="m42.258 43.659c3.53e-4 -0.80271 0.29168-1.7384 0.84363-2.6236 0.35165-0.5643 0.64721-0.45462 0.38516 0.15625-0.34354 0.802-0.48426 1.7641-0.54314 2.449-0.06103 0.70679-0.68566 0.7276-0.68566 0.0183"/>
  <path d="m59.457 24.372-0.46729 0.53397c0.92791 0.45639 2.0227 1.1226 2.7637 1.767l0.39642-0.56395c-0.72866-0.75759-1.7091-1.3459-2.6928-1.737"/>
  <path d="m65.716 28.626c3.4316-1.7846 4.1963-5.9319 3.8263-6.2415-0.29662-0.24479-4.944-0.21022-7.6893 3.7706-0.63556 0.92089-0.27404 1.1928 0.39183 0.2945 2.1648-2.9206 6.5074-3.8214 6.7533-3.5427 0.11955 0.13508-0.54349 2.9326-3.4285 5.2099-0.95754 0.75618-0.70538 1.0419 0.31955 0.99141 1.4195-0.0702 2.5277 0.31425 2.582 0.45004 0.0804 0.2003-1.4633 1.7638-3.9794 2.1454-0.237 0.036-0.36823 0.10654-0.31743 0.40065 0.5449 3.1608-0.14496 9.0415-2.4395 11.591-0.83799 0.93038-3.305 0.71032-4.8618 2.6046-2.3164 2.8183-2.1764 6.4115-2.8455 6.9557-1.603 1.3028-7.969 0.0239-7.5944-1.2736 0.6278-2.1817 0.85916-4.0612 0.96813-7.3236l-0.63271 0.36079c0.09416 2.5305-0.26063 4.9253-0.84434 6.9437-0.66269 2.2928 7.01 3.4211 8.6324 1.979 0.93673-0.832 0.57697-4.6206 2.8525-7.2146 1.5532-1.7694 4.2019-1.5804 4.9337-2.3937 2.4364-2.7069 3.0176-8.6694 2.5634-11.982 2.8688-0.1767 4.2224-2.6593 4.1769-2.8529-0.11112-0.47364-1.4845-1.1868-3.3671-0.87288"/>
  <path d="m58.537 38.093c-0.64929 0-2.1683 2.3048-2.4039 4.1864-1.8319 1.6333-1.5917 3.7745-3.4563 6.4312-1.5391 2.1934-3.893 3.3498-5.3393 2.8938 0.28956-0.42849 0.45353-0.90745 0.53749-1.5448l-0.12167-2.2674s-0.11956-0.21054-0.11956-0.20772c-0.06491 1.4478-0.20175 3.0116-0.69938 3.8936-0.10901 0.19293-0.10372 0.35764 0.08816 0.45356 1.8396 0.92015 4.8428-0.87044 6.2158-2.8271 1.8679-2.6624 1.5405-4.8163 3.1908-6.3272 0.17635-0.16083 0.21971-0.22394 0.27086-0.49798 0.26275-1.367 1.6093-3.5304 1.7857-3.5283 0.17635 2e-3 0.72196 1.7476 0.90572 2.6212 0.1626 0.77487 0.46588 0.72654 0.40488-0.0631-0.13473-1.7514-0.91595-3.2162-1.2591-3.2162"/>
  <path d="m52.015 38.579c-0.31178 0.0564-1.4742 4.0062-1.451 4.6615 0.02222 0.6253 1.4425 1.9154 1.8192 1.8936 0.39783-0.0233 1.372-2.223 1.506-3.3488 0.11112-0.92932-1.4312-3.2863-1.8742-3.2062m-2.0368 4.708c-0.0448-1.245 1.2464-5.3196 1.9288-5.4053 0.81858-0.1023 2.7774 2.976 2.6607 3.9515-0.12347 1.0404-1.4309 3.748-2.0647 3.9293-0.70746 0.20348-2.4924-1.5631-2.5249-2.4755"/>
  <path d="m56.332 32.018-0.59746 0.65564c0.29626 1.1611 0.09592 4.0912-0.17494 4.1124-0.2123 0.0162-0.47258-2.3944-0.3689-3.5152l-0.67398 0.7396c0.0032 1.4082 0.45956 3.6443 1.0535 3.5724 0.75195-0.091 1.1533-3.2567 0.76182-5.5647"/>
  <path d="m55.427 38.6c-0.68668-0.51032-1.7768-1.3547-2.394-1.9658 1.1342-1.9655 4.234-5.3933 5.8719-6.0987 0.65035 1.8742 0.07126 5.9304-0.65246 7.3401 1.5508-1.2485 2.8335-8.3785 1.5095-8.8274-1.1611-0.39324-5.9731 3.1252-8.0145 7.6364 0.63024 0.50437 2.9992 1.7391 3.6796 1.9154"/>
  <path d="m48.613 44.02-0.5213 0.2691c-0.57101 1.865-0.7632 5.3665 0.16965 7.5348l0.52938-0.0977c-0.94696-1.9698-0.7759-5.303-0.17773-7.7063"/>
  <path d="m62.856 43.147-0.38516 0.56642c2.0805 1.5127 2.9661 5.6998 0.86798 8.5795-2.1937 3.0109-5.6628 3.6425-9.6121 1.7811l-1.0613 0.23135c4.8583 2.6423 8.9304 1.7662 11.344-1.5458 2.5411-3.4881 1.0866-7.9975-1.1536-9.6125"/>
  <path d="m60.713 44.778-0.6821 0.25711c1.6181 0.9519 2.3866 3.0493 1.1388 5.2106-1.1635 2.0153-4.5035 2.4096-5.9897 1.0436l-0.10298 0.73357c1.8343 1.2891 5.2681 1.0239 6.6866-1.4347 1.4622-2.5323 0.47117-4.6566-1.0507-5.8102"/>
  <path d="m64.209 51.974-0.3823 0.57313c4.1406 3.4489 1.014 10.795-4.4866 10.795-5.1634 0-7.5641-4.7906-6.1022-8.9382l-0.59852-0.36819c-1.5402 4.143 0.38834 10.056 6.7007 10.056 6.2712 0 9.6781-8.1781 4.8689-12.118"/>
  <path d="m62.534 54.042-0.46203 0.29591c1.9655 1.9468 0.32237 5.9928-2.6741 5.9928-2.6586 0-4.3642-2.6991-3.3664-4.9214l-0.51703-0.11109c-0.97554 2.3055 0.42252 5.7185 3.8834 5.7185 3.4637 0 5.3591-4.654 3.1361-6.9747"/>
  <path d="m60.783 71.987c-0.93712-0.037-0.9639-0.34632-0.02187-0.47258 0.28004-0.0377 0.88064-0.0984 1.087-0.13226 0.85668-0.1386 0.83764 0.22606 0.06276 0.45989-0.27086 0.0818-0.84642 0.15589-1.1279 0.14495"/>
  <path d="m60.058 81.973c-0.66869-0.048-0.6278-0.41511 0-0.42852 0.41899-8e-3 1.021-0.0691 1.4242-0.16471 0.86723-0.20631 0.97024 0.12696 0.11956 0.42323-0.29979 0.10477-1.0306 0.20705-1.5437 0.17"/>
  <path d="m66.339 60.684c-0.23735-0.75618 0.17882-0.85139 0.41652-0.0963 1.6174 5.1362 7.3077 7.3916 8.6917 5.1707 1.3871-2.2262-2.5655-7.4724-6.5247-7.2572-0.81576 0.043-0.81823-0.38375 0-0.42993 4.5648-0.2758 8.9325 5.12 7.1066 8.0501-1.6668 2.6737-7.7538 0.71134-9.6901-5.4374"/>
  <path d="m67.606 56.67c-0.42111 0.1245-0.92333-0.0614-1.3593-0.32413l0.01587 0.88843c0.55618 0.17318 0.95789 0.16719 1.5134 3e-3 2.9446-0.87749 7.3712 0.24617 9.1445 3.0881l0.90322 0.22009c-1.8523-3.7547-6.475-4.988-10.218-3.8753"/>
  <path d="m73.757 60.032 0.56536 0.60272c2.0879-0.25075 5.7262 0.82599 7.6702 2.8205l0.48426-0.48426c-2.077-2.1284-5.5562-3.5706-8.7199-2.9389"/>
  <path d="m84.08 62.556-0.17914-0.67116c-1.1544 0.36717-2.283 1.2499-2.9785 2.5612l0.66446 0.23876c0.63591-0.99318 1.6316-1.7726 2.4932-2.1288"/>
  <path d="m74.468 60.677 1.0655 1.4587c2.6367 1.7388 6.5896 3.4923 9.3276 3.802l0.01-0.64259c-2.9887-0.37634-7.7814-2.4674-10.403-4.6181"/>
  <path d="m66.985 74.809c2.1475-2.7637 3.2348-5.6945 1.9468-9.986l-1.3575-1.6509c2.1006 4.4509 1.263 8.1079-1.0454 11.272-0.08004 0.11113-0.11709 0.20317-0.12238 0.42852-0.25358 11.112 3.292 17.726 0.47226 26.789-0.49978 1.6058-0.0787 1.7154 0.48669 0.17 3.5156-9.5988-0.42463-15.002-0.38054-27.022"/>
  <path d="m88.586 106.44c-0.89232-3.6355-9.8721-12.451-18.833-17.008-0.64368-0.32763-1.0951-0.55302-1.6037-1.0595l0.13472 1.038c0.34707 0.21056 0.71244 0.40664 1.1579 0.63238 6.7444 3.431 17.509 12.768 18.446 16.584 0.30684 1.2492-0.83658 4.4012-1.2182 4.8325-0.97166 1.1011-3.9875 2.8116-5.868 2.8691-5.6811 0.17423-13.246-3.4115-19.17-4.5331l-0.87111 0.73078c6.5198 1.0916 13.826 4.7366 20.055 4.5507 2.1493-0.06 5.2974-1.9511 6.3681-3.1636 0.47963-0.54349 1.7856-3.9127 1.4023-5.4737"/>
  <path d="m74 131.51c-2.3563-2.1154-8.4095-10.603-10.264-14.286-0.22712-0.45212 0.02893-0.85701 0.53502-1.0962 1.7853-0.84257 3.5255-2.2999 4.6735-3.7018l-0.98083-0.30155c-1.0968 1.2863-2.5877 2.7228-3.9864 3.3329-1.044 0.45604-1.2781 1.3628-0.94347 2.0272 1.7162 3.4094 7.8195 12.496 10.375 14.791 0.46556 0.41723 2.4586 0.63235 3.6069 0.63623l-0.45458-0.83481c-1.1438-7e-3 -2.3278-0.35655-2.5612-0.56712"/>
  <path d="m74.578 117.58c-1.4989 0.71984-1.2214 1.2577 0.24864 0.63871 1.4443-0.60872 4.2485-2.1383 6.1174-3.2645h-1.6344c-1.9553 1.1247-4.482 2.5062-4.7317 2.6258"/>
  <path d="m84.733 126.07c-0.24126-0.85771-2.7972-1.7035-3.4556-2.0893-2.0333-1.1935-4.4358-3.7766-6.2644-6.0856l-0.75266 0.3315c1.9123 2.3334 4.0305 4.5599 6.571 6.1988 0.69303 0.44721 2.1581 0.86233 2.8303 1.3501z"/>
  <path d="m76.992 132.28c0.34562 0.45988 6.2105 0.88593 6.2902 0.46235 0.1894-1.008-4.8428-4.5035-5.3901-4.1592-0.28391 0.17812-1.2552 3.2268-0.90004 3.6969m-0.64191 0.2631c-0.21795-0.50084 0.35235-4.234 1.318-4.6389 1.2841-0.53855 7.0989 4.0263 6.2186 5.2272-0.52165 0.71137-7.0767 0.46309-7.5366-0.58826"/>
  <path d="m81.636 126.13c-0.71103-0.18729-1.6291 1.3145-1.78 2.655l0.69304 0.43698c0.0152-0.81364 0.49445-2.4636 0.97271-2.4124 1.3451 0.14284 5.649 4.3444 5.606 5.2533-5e-3 0.10474-2.1641 0.0219-4.252-0.81436l0.65634 0.8962c1.341 0.45177 4.0697 0.80553 4.325 0.30152 0.3488-0.68104-3.4856-5.5986-6.221-6.3163"/>
  <path d="m76.041 31.713c-0.13931 0.0547-0.38689 5.6109 3.1534 9.6883 1.0411 1.1992 2.0548 1.955 2.4886 1.7719 1.3159-0.55231 1.3554-5.832 0.27581-6.572-1.7564-1.2037-5.7016-4.9732-5.9178-4.8883m2.6504 10.4c-4.3782-5.0861-3.3234-11.041-3.1093-11.166 0.65352-0.38512 4.5109 3.6091 6.7914 5.1073 1.3388 0.87891 1.6865 6.9903-0.36329 7.8512-0.85951 0.36117-2.0904-0.36502-3.3188-1.792"/>
  <path d="m88.789 38.463c1.2697-0.45071 3.2282-0.88416 4.7535-0.88416 3.08 0 3.408-4.2288 1.252-5.047-2.0773-0.78719-5.8119 2.1433-6.0056 5.9311m-0.69445 0.51037c-0.0889-5.114 4.3106-8.0819 6.9434-7.0827 2.9136 1.1057 2.807 6.4207-1.5113 6.4207-1.6485 0-3.8108 0.48105-4.9538 0.97095-0.24793 0.10615-0.4712 0.0903-0.47826-0.30896"/>
  <path d="m89.929 27.512c-4.2682 0.0963-7.3094 4.5532-6.7921 5.3563 0.70009 1.0845 3.9843-0.15095 6.8827 1.2203l0.59252-0.65422c-2.8053-1.4806-6.7162-0.49872-6.8763-0.91278-0.16859-0.43766 2.4568-4.1398 6.2493-4.2255 1.9764-0.0582 3.1336 2.0445 2.3253 4.0005l1.0443-0.34283c0.63344-2.6949-1.5694-4.4851-3.4256-4.4417"/>
  <path d="m88.212 25.643c-2.6889-2.5365-8.0018-2.2004-9.9631 0.67504-0.17315 0.25393-0.29235 0.41229 0.20598 0.52726 1.4742 0.34001 4.2495 1.8428 6.2204 3.4102l0.59146-0.56113c-1.822-1.4009-4.5536-2.8318-6.2087-3.3738 1.8618-2.0988 6.2024-2.2692 8.5932-0.0543 0.43593 0.40383 0.18658 1.4802-0.31175 2.0569l1.1064-0.45215c0.32868-0.81965 0.30999-1.7151-0.23385-2.2279"/>
  <path d="m80.788 35.115 0.7329 0.59002c0.0744-1.9087 0.61648-4.7087 1.6171-6.7818l-0.50645-0.33785c-0.99105 2.0085-1.6954 4.5331-1.8435 6.5297"/>
  <path d="m83.796 29.374-0.42676-0.26875c-0.75649 1.9278-1.3296 4.7214-0.97659 7.0273l0.6786 0.42746c-0.44616-2.0988-0.17776-5.0145 0.72475-7.186"/>
  <path d="m86.922 41.194c-1.0408-2.1669-3.0109-5.2769-5.3609-5.5584l0.9149 0.92897c1.0415 0.33754 3.0116 3.0673 4.0527 4.925 0.56431 1.0076 0.92403 0.80942 0.39324-0.29555"/>
  <path d="m85.67 48.032c0.77378-0.802 1.773-2.2653 2.1955-3.2504 0.43945-1.0249 0.79459-0.86304 0.45004 0.19678-0.42288 1.3011-1.2348 2.5408-2.2798 3.3488-0.76179 0.58899-1.0937 0.45956-0.36573-0.29521"/>
  <path d="m83.73 48.249c-1.609-1.433-2.9996-3.8274-3.292-4.8794l-0.8969-0.64752c0.45745 2.3443 2.2082 4.7701 3.8355 5.9086 0.25855 0.182 0.49943 0.3386 0.67049 0.61617 2.9947 4.8508 0.42143 9.7814 0.64364 17.647 0.0279 0.97236 0.47611 0.97871 0.4631 0-0.10196-7.7574 3.0119-12.818-0.70962-17.937-0.21092-0.29027-0.45462-0.47685-0.7142-0.70821"/>
  <path d="m81.285 45.976-0.77766-1.3152c0.20846 4.1413 2.0862 14.62 4.3335 21.322l7e-3 -2.1359c-1.245-4.775-3.1255-13.576-3.5632-17.871"/>
  <path d="m96.519 33.65 0.16789 1.6182c5.7612 9.8174 3.7226 29.411-4.3077 40.401-1.4569 1.9951-3.2267 2.2328-5.5675 0.74662-4.4559-2.8282-14.12-7.5454-17.621-9.4548l0.074 0.83305c2.1613 1.2524 13.88 7.2004 17.18 9.2006 2.8952 1.7557 4.8354 1.343 6.4884-0.92051 8.0783-11.057 10.998-31.793 3.5865-42.424"/>
  <path d="m104.56 43.704c-1.1617-10.112-9.001-18.348-17.274-18.513l0.85421 0.73678c7.6018 0.69938 14.447 8.4412 15.53 17.866 1.3755 11.975-3.2462 25.791-10.093 30.984l-1.021 1.4989c7.7768-4.4252 13.497-19.586 12.005-32.572"/>
  <path d="m97.488 71.44c-1.5599 8.491-12.453 10.612-17.135 1.8548l-0.9706-0.48037c5.0234 10.978 18.234 8.3531 18.951-2.6233z"/>
  <path d="m80.392 74.23c-4.5507 0.59394-7.7972-2.2131-9.3692-5.7594l-0.94911-0.53224c2.1214 6.1294 6.8848 7.6075 10.736 6.9176z"/>
  <path d="m65.226 66.753 0.05853 0.54385c1.2947 0.56994 2.6 0.66551 3.7896 0.48778l-0.0568-0.59217c-1.3003 0.20877-2.8395 9e-3 -3.7914-0.43946"/>
  <path d="m39.824 57.787c-2.1881 0.82035-3.1682 2.3189-2.6229 4.0086 0.35937 1.1127 1.5896 1.5814 2.9848 1.3406l0.44016-0.77061c-1.2683 0.49657-2.551-0.0945-2.7721-0.78052-0.42781-1.3247 0.34318-2.4558 2.2106-3.1562 4.2559-1.5938 8.1912 1.4904 12.283-1.7631l0.12273-1.1512c-3.9664 3.7194-7.8036 0.45675-12.647 2.2724"/>
  <path d="m40.159 66.907c-2.3066-2.9361 1.8661-8.5583 7.8917-7.4357 1.1688 0.21794 1.1289 0.62459-0.04057 0.42464-5.436-0.92971-9.2919 4.0672-7.3119 6.5871 2.3524 2.9957 8.4303-0.69021 8.8479-4.9704 0.12414-1.2736 0.47964-1.2386 0.46482 0.0406-0.05253 4.5222-6.8696 9.148-9.852 5.3538"/>
  <path d="m43.124 68.067c-1.0379 5.3989-10.225 10.834-13.545 7.6261-2.8804-2.7802 1.294-12.222 8.68-12.936l-0.63624-0.61863c-7.8434 1.1978-12.004 10.83-8.5675 14.148 3.8676 3.7321 13.799-2.1549 14.77-8.291z"/>
  <path d="m32.025 71.346c-1.3737-1.0852-0.08393-5.2847 5.5164-8.6292l-1.7511 0.41688c-4.8167 3.4701-5.911 7.3902-4.1906 8.7502 2.4046 1.9027 7.6184 0.16683 9.6517-4.3448l-0.50437-0.39077c-1.6636 3.8362-6.5649 5.9033-8.722 4.1977"/>
  <path d="m49.009 64.272-0.7396 0.99176c0.0042 1.1638-0.17635 2.5573-0.74313 2.776-1.8019 0.7008-3.5166 1.6262-5.1538 2.8575l-4.9324 4.7687c-0.61119 0.7371-1.209 1.5113-1.7902 2.3306l-0.43099 1.8664c3.5773-5.5326 7.781-9.2242 12.559-11.083 0.99596-0.38795 1.4823-3.152 1.2309-4.5077"/>
  <path d="m50.58 75.083c-0.70185-1.4231-2.0565-4.5677-2.4864-6.7981l-0.67574 0.39042c0.49378 2.3062 1.8354 5.3933 2.6819 6.6796 1.0757 1.6358 1.3702 1.5331 0.48034-0.27192"/>
  <path d="m56.095 67.773-0.02748-0.59288c-2.0262 0.84681-5.6846 1.609-8.2356 1.0489l0.19858 0.73607c2.248 0.37631 5.6321-0.24052 8.0645-1.1921"/>
  <path d="m50.049 74.893c-0.49022 3.589-2.6543 7.9348-3.5593 8.9403-7.5313 2.7859-13.537 7.9365-17.06 12.702l-0.15942 1.4333c2.5298-3.9324 10.306-10.785 17.266-13.42 0.25428-0.0956 0.41794-0.19925 0.53855-0.34244 1.0524-1.2429 2.9428-5.0265 3.5868-8.3806z"/>
  <path d="m49.278 92.438c-0.67045-1.6139-1.0718-1.4382-0.48532 0.20774 1.3297 3.73-0.2564 11.922-3.0359 15.866-2.0544 2.9139-6.9465 6.839-11.466 8.9914-1.014 0.48355-4.1649 0.0324-4.9031-0.35197-1.27-0.65987-3.2574-5.1253-3.6732-8.2702l-0.71349 1.1892c0.61299 3.1834 2.5094 7.0382 3.9635 7.7944 1.3885 0.72161 4.5087 0.78755 5.6211 0.25746 4.6125-2.1965 9.7885-6.0493 11.901-9.0475 2.9368-4.1663 4.4167-12.724 2.7912-16.636"/>
  <path d="m63.196 107.63c-5.1838 5.8162-12.659 7.9802-22.93 6.833l-1.0366 0.68421c9.6686 1.2958 18.604-0.15201 24.357-7.1959 1.1625-1.4231 0.82776-1.6964-0.39042-0.32127"/>
  <path d="m33.974 118.12c-3.0539 4.5931-3.7145 10.204-4.2167 16.915l0.44933 2.4053c0.5752-6.6746 1.4404-15.184 5.1626-19.923z"/>
  <path d="m18.655 127.46c-0.45674 0.96813-2.1235 3.159-2.5827 6.9723l0.95225-2.1045c0.72478-1.8481 1.9271-3.6478 2.3634-4.5867 0.46341-0.99772 1.5271-3.2807 2.7626-5.7403l-0.51142-0.83481c-1.3381 2.5626-2.4748 5.2166-2.9841 6.294"/>
  <path d="m26.239 113.26c-0.50998 0.57489-1.1064 1.464-1.7384 2.5281l-0.29309 2.2956c0.89228-1.6058 1.7578-3.0179 2.4572-3.875z"/>
  <path d="m28.057 132.39c-0.24088-0.0324-2.1348 4.2372-2.1651 5.0128-0.08008 2.065 1.4636 4.8798 1.8132 4.8554 0.34914-0.0236 1.8047-3.5103 1.8579-4.5497 0.11638-2.2776-1.2651-5.2864-1.506-5.3185m-0.33295 10.561c-0.96566 0-2.6053-3.3117-2.5175-5.5753 0.02223-0.56606 1.8689-5.7372 2.8409-5.7372 0.81294 0 2.4255 3.6503 2.2939 6.2288-0.03351 0.65176-1.706 5.0836-2.6173 5.0836"/>
  <path d="m22.663 132.56c-0.3435-0.018-1.6866 3.2362-1.9916 5.3743-0.2183 1.5278 1.3692 4.5271 1.5504 4.549 0.42005 0.0522 2.454-4.6047 2.454-4.8664 0.0011-0.90781-1.6696-5.0389-2.0128-5.0568m-0.46556 10.649c-0.64364 0-2.6042-3.4056-2.3189-5.4067 0.24687-1.7271 1.6957-5.9516 2.7929-5.9516 0.95931 0 2.7817 4.8241 2.7668 5.7502-0.01235 0.78719-2.3856 5.6081-3.2409 5.6081"/>
  <path d="m19.474 138.07c-0.08252 0.36926-1.6971 2.661-3.1379 3.1904-1.3818-3.923 1.0722-9.153 1.416-9.1752 0.58261-0.0378 1.9969 3.9861 1.7218 5.9848m-1.7924-6.6976c-0.77378 0.0127-3.8528 5.5637-1.8728 10.432 0.05711 0.13931 0.11744 0.25816 0.38583 0.20701 1.8125-0.36608 3.8834-3.1855 3.9977-3.7967 0.33856-2.4547-1.3804-6.8612-2.5108-6.8425"/>
  <path d="m35.373 76.607c-0.66763 9.2326-10.735 15.05-14.845 11.837-2.8977-2.2642-2.5912-10.521 7.659-16.059l0.06668-0.80906c-10.512 5.4028-11.95 14.522-8.1919 17.46 5.0893 3.9787 15.598-3.0063 16.021-12.778z"/>
  <path d="m32.052 77.17c-0.77519 4.7137-5.6546 7.3835-8.4899 5.212-2.2442-1.7193-1.3787-5.4839 4.5437-9.4619l0.04724-0.67328c-7.0953 4.6065-7.502 8.7696-5.0081 10.679 3.3266 2.5485 8.7413-0.70468 9.506-5.7537z"/>
  <path d="m29.448 87.732-0.63765 0.43698c2.3542 20.383-10.838 32.331-19.887 27.94-8.2444-3.996-5.8275-21.298 9.6841-32.92l0.11536-0.94132c-16.986 12.366-18.799 30.336-10.127 34.542 10.435 5.0607 23.443-8.012 20.852-29.058"/>
  <path d="m23.947 89.818c0.13861 9.597-6.5403 16.752-12.1 13.791-4.4361-2.3612-3.6207-9.8312 6.6513-18.205l-0.04621-0.84434c-10.799 8.6137-12.127 16.993-6.9642 19.742 6.8051 3.6218 13.315-5.0509 13.142-14.577z"/>
  <path d="m16.544 117.04-1.1233 0.28674c-1.2774 2.7816-0.88699 7.592-0.15656 9.6365-3.3802-0.38901-5.1627-5.1232-4.3102-9.6862l-0.79498-0.21266c-0.9265 4.8932 0.96742 10.596 5.6437 10.617h0.0014c0.42817 0 0.55513-0.0646 0.29729-0.51354-1.0746-1.8713-1.1067-7.6861 0.44263-10.127"/>
  <path d="m24.417 110.92-0.66128 0.84892c0.58512 3.3724 0.32625 7.3638-1.6552 9.6912-0.37066-1.8643-1.5176-4.3434-2.9118-5.6359l-0.79848 0.4246c1.5317 1.209 2.9784 4.1148 3.1294 5.9823 0.03492 0.42993 0.15166 0.61193 0.57383 0.22469 2.7287-2.5112 3.1396-7.6237 2.3235-11.536"/>
  <path d="m6.7855 126.02c-1.9472-1.9895-2.2396-7.7669-0.35518-10.991l-0.55795-0.71984c-2.661 4.2094-1.325 11.203 0.9653 12.633 0.39257 0.24264 0.45639 0.14389 0.51989-0.23488 0.53114-3.17 1.7786-6.1847 2.9622-8.042l0.0882-1.682c-1.4601 1.7356-2.9548 5.6187-3.6225 9.0373"/>
  <path d="m1.0164 120.07c-0.84501-2.9132 0.23244-7.3677 3.3273-8.8623l-0.21442-0.92792c-4.2841 2.0248-4.8029 7.6057-3.5018 10.727 0.1753 0.42005 0.41899 0.4003 0.61722 0.0183 0.65705-1.2609 2.5069-3.2102 3.9547-4.301l0.47579-1.4263c-1.4425 0.76958-3.5928 3.1502-4.6587 4.7719"/>
  <path d="m13.416 42.945c0.19925-1.1371-0.8327-1.6238-1.4897-0.46063-5.9812 10.607-9.1029 36.176-1.931 48.527l0.5939-0.76957c-6.9137-12.227-3.937-37.009 1.9348-47.421 0.24021-0.42676 0.29379-0.43452 0.21657 6e-3 -2.2597 12.909 0.37102 30.509 5.9294 39.763l0.30896-1.1974c-5.1528-9.1772-7.7105-26.18-5.563-38.448"/>
  <path d="m19.507 27.996c-6.8609-2.5341-15.293 10.835-9.1949 18.467l0.31426-0.71243c-5.3379-7.2421 2.9337-19.224 8.6426-17.111 5.322 1.9662 1.1307 14.618-6.5604 17.839l-0.08675 0.84712c8.7833-3.4077 13.333-16.947 6.8852-19.33"/>
  <path d="m15.799 34.453c-4.0729-1.404-8.266 6.1523-5.4649 11.94l0.33436-0.75897c-1.9931-5.1246 1.6435-11.661 4.9069-10.533 4.0012 1.3815 1.427 8.6825-2.8871 11.431l-0.06276 0.7523c4.9224-2.6399 8.3686-11.037 3.1735-12.832"/>
  <path d="m29.451 89.993 0.01835 0.72479c1.7098-0.69621 4.4068-0.77276 5.8303 0.18164l0.5135-0.48179c-1.7416-1.2743-4.2446-1.2026-6.3621-0.42464"/>
  <path d="m32.103 93.793c-1.2012 0.0952-2.0241-0.1238-2.5126-0.51495l-0.03704 0.78968c0.38866 0.26699 1.1734 0.40877 1.9324 0.37349z"/>
  <path d="m64.172 71.823c1.9913-3.0462 1.8393-6.3558-0.49622-9.4672l-0.5442 0.41547c2.0809 2.764 2.2469 6.2627 0.45741 8.8518-0.07828 0.1125-0.08181 0.26063-0.0095 0.37631 1.9581 3.1393 1.7603 7.2269-0.33927 9.0517-0.17247 0.14954-0.19188 0.24865-0.06174 0.44722 2.4209 3.6866 0.32448 9.8304-3.3438 9.9437-3.7233 0.10968-4.1409-4.926-1.2774-9.8989 0.11603-0.20242 0.08675-0.27332-0.05574-0.41511-2.2346-2.2138-2.3704-5.6162-0.27157-8.8916 0.08463-0.13155 0.06914-0.30328-0.03669-0.41793-1.9017-2.0505-2.1972-5.1796-0.9138-8.2762l-0.6634-0.19502c-1.3152 3.2299-0.90713 6.5057 1.0132 8.7403-2.1891 3.5646-2.1179 6.7575 0.32025 9.3388-2.9217 5.2399-2.6487 10.841 1.9066 10.701 4.6262-0.14177 6.2461-6.8827 3.9353-10.758 2.3196-2.2586 2.4378-6.086 0.38054-9.5459"/>
  <path d="m47.726 78.555c0.55337-0.42146 1.1984-1.135 1.471-1.653 0.25922-0.49234 0.11568-0.49551-0.33856-0.39642-2.0103 0.43734-5.5365 0.61299-6.6958-0.0423 2.2629-0.70432 5.0551-2.5697 6.4644-5.0247l-0.32268-1.0747c-1.1558 2.575-4.2654 4.9535-6.7734 5.819-0.35765 0.12273-0.54102 0.23386-0.14813 0.50155 1.7151 1.1695 5.5693 0.75367 7.192 0.35443-0.43099 0.47403-1.2125 1.0538-1.5021 1.2358-0.42288 0.26557-0.34036 0.3763-0.0413 0.5703 0.45886 0.29838 1.5487 0.49763 2.3115 0.32201l0.29802-0.81611c-0.53114 0.23382-1.3451 0.31986-1.9151 0.20418"/>
 </g>
 <path d="m83.298 125.6c-0.20457 0.0345-0.64151 0.3876-0.72548 0.53854 1.963 0.78753 4.3422 2.6345 5.9374 4.7263 0.43874 0.0765 0.80482 0.13931 1.0556 0.16679-0.20881-1.6682-2.7072-4.0936-6.2675-5.4316" fill="#dcbc00"/>
 <path d="m82.188 126.5 0.6246 0.29697c0.0913-0.3883 0.35588-0.6144 0.61757-0.66093 0.26204-0.0473 4.7246 1.6121 5.9058 4.683-0.72337-0.18059-1.6329-0.36859-2.6706-0.51672l0.57842 0.78229c1.0404 0.16189 2.2039 0.36113 2.3852 0.38195 0.34597 0.043 0.44899-0.0811 0.37808-0.38372-0.77167-3.2888-6.0267-5.728-6.6842-5.6391-0.51562 0.0702-0.97131 0.65-1.1349 1.0563" fill="#0f141b"/>
</svg>
