<?xml version="1.0" encoding="UTF-8" standalone="no"?>
<svg
   viewBox="0 0 418.82 455.67"
   version="1.1"
   id="svg14241"
   sodipodi:docname="787.svg"
   inkscape:version="1.2.2 (b0a8486, 2022-12-01)"
   xmlns:inkscape="http://www.inkscape.org/namespaces/inkscape"
   xmlns:sodipodi="http://sodipodi.sourceforge.net/DTD/sodipodi-0.dtd"
   xmlns="http://www.w3.org/2000/svg"
   xmlns:svg="http://www.w3.org/2000/svg">
  <defs
     id="defs14245" />
  <sodipodi:namedview
     id="namedview14243"
     pagecolor="#505050"
     bordercolor="#eeeeee"
     borderopacity="1"
     inkscape:showpageshadow="0"
     inkscape:pageopacity="0"
     inkscape:pagecheckerboard="0"
     inkscape:deskcolor="#505050"
     showgrid="false"
     inkscape:zoom="0.73244758"
     inkscape:cx="157.69046"
     inkscape:cy="234.82909"
     inkscape:window-width="1309"
     inkscape:window-height="430"
     inkscape:window-x="0"
     inkscape:window-y="25"
     inkscape:window-maximized="0"
     inkscape:current-layer="svg14241" />
  <title
     id="title13769">Tapu Bulu</title>
  <path
     d="m 242.44,170.75 c -11.09,1.34 -22.74,2.54 -34.95,3.7 -10.49,-1.79 -20.88,-4 -31.07,-6.52 -17.44,12.53 -39,46.36 -41.24,65.19 -1.59,13.21 2.4,40.92 13.83,57.08 5.86,8.3 19.73,18.62 30,23.32 4.49,2.05 5.69,3.86 5.38,11.22 a 99.48,99.48 0 0 1 -3.19,20.87 c 8.57,-8.27 23.46,-4.21 23.81,9.29 a 292.91,292.91 0 0 0 15.54,-33.25 c 1.24,-3.18 2.24,-4.49 5.62,-6.09 9.34,-4.4 21.53,-11.21 27.69,-18.65 a 15.59,15.59 0 0 1 0.95,-3.19 c 5.37,-12.79 15,-38.91 19.76,-52.55 a 7.69,7.69 0 0 1 0.84,-1.7 c -3.05,-23.1 -18.78,-56.63 -32.97,-68.72 z"
     style="fill:#30363a"
     id="path13771" />
  <path
     d="m 174.75,194.81 c -1.48,0.1 -7.74,-5.45 -11.47,-9.62 -2.34,2.64 -4.63,5.4 -6.66,8.11 3.89,4.27 9.9,10.44 12.28,10.66 4.52,0.41 15.27,-5.58 20.25,-14.72 -4.91,2.3 -12.49,5.44 -14.4,5.57 z"
     style="fill:#e73830"
     id="path13773" />
  <path
     d="m 251.46,189.3 c -4.86,4.86 -11.15,9 -13.64,9 -2.72,0 -9.94,-4.06 -14.48,-8 1.92,5.42 7.74,14.82 10.94,16.21 4,1.72 15.64,-0.56 23.62,-6.93 a 102.24,102.24 0 0 0 -6.44,-10.28 z"
     style="fill:#e73830"
     id="path13775" />
  <path
     d="m 159.73,204.49 a 40.19,40.19 0 0 1 -8,-8.77 c -1.66,2.52 -3.25,5.08 -4.74,7.64 a 24.32,24.32 0 0 0 8.91,7.05 c 2.76,1.3 15.85,1.2 21.48,-1.76 -7.32,0.34 -13.93,-1.34 -17.65,-4.16 z"
     style="fill:#ffffff"
     id="path13777" />
  <path
     d="m 256.58,214.89 c 2.61,-0.33 7.94,-3.14 10.41,-5.08 -1.41,-3.48 -2.95,-6.92 -4.58,-10.25 a 34.63,34.63 0 0 1 -9.29,8.93 c -2.68,1.47 -10.67,4 -16.9,4.47 4.6,2.06 15.02,2.63 20.36,1.93 z"
     style="fill:#ffffff"
     id="path13779" />
  <path
     d="m 209.96,110.14 c -16,-8.55 -37.57,-20.16 -57.43,-30.7 -7,20.23 -13.3,48.2 -17,76.46 a 472.92,472.92 0 0 0 72,18.55 c 27.19,-2.6 51.63,-5.35 73.17,-9.47 -0.77,-26.12 -1.53,-56.52 -5.5,-84.32 -21.24,7.79 -45.1,18.94 -65.24,29.48 z"
     style="fill:#e73830"
     id="path13781" />
  <path
     d="m 294.42,247.64 c -0.15,-8.38 -2.63,-12.6 -6.3,-13.73 -5,-1.53 -11.92,2.64 -13.55,7.26 -4.81,13.64 -14.39,39.76 -19.76,52.55 -2.23,5.31 -1.13,10.76 1.4,11.8 2.86,1.18 8.69,-0.6 14.95,-6.29 11.63,-10.59 23.64,-29.76 23.26,-51.59 z"
     style="fill:#e73830"
     id="path13783" />
  <path
     d="m 181.2,345.61 a 157.65,157.65 0 0 1 -10.69,28.28 c -0.84,1.77 -1.56,2 -4.14,1.85 -9.89,-0.48 -26.69,1.37 -32.56,4.74 -11.36,6.54 -19.38,28.64 -20.5,40.68 -0.81,8.78 5.45,17.67 13.76,24.1 9.36,7.23 21.31,11.33 28.69,8.63 12.93,-4.75 34.26,-23.88 34.65,-34.49 0.3,-8.37 -1.53,-20.59 -5.31,-31.52 a 4.18,4.18 0 0 1 0.73,-4.5 c 6.51,-7.28 13.15,-17.48 19.18,-28.48 -0.35,-13.5 -15.24,-17.56 -23.81,-9.29 z"
     style="fill:#d6c700"
     id="path13785" />
  <path
     d="m 153.59,449.87 c -2.17,2.85 -9.68,2.6 -22.51,-7.16 -12.06,-9.17 -15.27,-17.92 -13.43,-20.34 1.84,-2.42 11.31,-1.69 22.83,7.08 11.34,8.63 15.31,17.52 13.11,20.42 z"
     style="fill:#585000"
     id="path13787" />
  <path
     d="m 147.96,435.97 c -1,14.15 -22.64,19.69 -32.88,13.29 3.29,0.06 6.6,-2.16 7.38,-6.86 1.42,-8.51 5.29,-15.64 11.28,-17.45 a 72.38,72.38 0 0 1 14.22,11.02 z"
     style="fill:#30363a"
     id="path13789" />
  <path
     d="m 187.21,235.28 c -8.39,-1.55 -17.26,-3.66 -26,-6.2 A 93.23,93.23 0 0 1 154.59,214 c -0.85,7 -1.74,26.19 0,27.83 3.66,3.45 25.55,13.77 38,14.51 -1.63,-6.83 -3.9,-15.85 -5.38,-21.06 z"
     style="fill:#ffffff"
     id="path13791" />
  <path
     d="m 218.75,236.9 c 10.37,-1.51 22.49,-3.74 32.68,-6 a 48.43,48.43 0 0 0 6.63,-10.91 c 1.27,7.77 -1.2,24.42 -4,26.71 -4.37,3.53 -28.7,10.61 -40.88,9.4 1.89,-6.96 3.64,-13.47 5.57,-19.2 z"
     style="fill:#ffffff"
     id="path13793" />
  <path
     d="m 225.76,178.17 c -10.45,-4.45 -27.41,-5.11 -37.35,-2.12 1.54,11 7.8,27.82 13.45,36.18 1.57,2.33 2.87,2.85 5.26,-0.36 5.7,-7.68 14.99,-24.41 18.64,-33.7 z"
     style="fill:#d6c700"
     id="path13795" />
  <path
     d="m 212.89,190.26 c 8.78,3 13.15,11 12.29,19.56 -1.14,11.36 -10.56,18.8 -22,18.48 -13.52,-0.39 -20,-10 -20.22,-18.5 -0.22,-9.5 6.29,-17.81 16.89,-20.16 l 0.56,1.6 a 16.29,16.29 0 0 0 -9.24,13.25 c -0.66,7.51 3.36,14.76 12.74,15 9.38,0.24 14.93,-6.07 15.27,-14.63 a 14,14 0 0 0 -7.18,-13 z"
     style="fill:#ffffff"
     id="path13797" />
  <path
     d="m 135.49,155.9 c 0.14,0.89 0.26,1.73 0.4,2.75 -42.53,-10 -88.76,-20.2 -134.83,-29.26 2.08,-11.24 9.65,-25.26 14.81,-30.74 16.78,-7.3 56.48,-20 69.67,-21.07 9.81,-0.8 42,5.73 63.53,12.5 -5.68,16.68 -12.23,53.24 -13.58,65.82 z"
     style="fill:#e73830"
     id="path13799" />
  <path
     d="m 280.63,163.86 c 40.91,-6.64 95.95,-15.67 137.24,-22.55 -1.7,-13.14 -6.19,-24.3 -15.26,-31.71 -10.34,-5.26 -59.6,-20.64 -66.74,-21.43 -6,-0.67 -40.9,2 -59.17,4.83 2.6,23.86 3.26,48.83 3.93,70.86 z"
     style="fill:#e73830"
     id="path13801" />
  <path
     d="m 135.73,229.91 c -2.91,-3 -6.73,-4.27 -9.1,-3.69 -3.53,0.86 -6.67,4.25 -8.78,10.77 -7.84,24.11 0,49.29 20.62,59.16 4.14,2 6.92,2 8.37,1.13 1.45,-0.87 2.47,-2.76 3,-5.94 -9.88,-12.8 -17.66,-44.61 -14.11,-61.43 z"
     style="fill:#e73830"
     id="path13803" />
  <path
     d="m 115.02,251.42 a 32.6,32.6 0 0 0 -10.88,0.49 c -0.49,-2.46 -0.93,-4.87 -1.41,-7.35 -3.76,9.15 -13.44,13 -22.46,11.4 A 21.73,21.73 0 0 1 63.69,242.83 c -3.73,14.94 -4.6,31.53 -1.92,43.25 2.32,10.09 7.51,13.78 19.57,14.81 14.27,1.22 37.82,-3 49.24,-9.73 -11.22,-9.15 -16.68,-23.96 -15.56,-39.74 z"
     style="fill:#30363a"
     id="path13805" />
  <path
     d="m 80.27,255.96 c 9,1.57 18.7,-2.25 22.46,-11.4 -0.46,-2.44 -1,-4.94 -1.58,-7.63 -8.9,5.7 -30.06,-1.66 -30.15,-13.56 a 85.72,85.72 0 0 0 -7.31,19.46 21.73,21.73 0 0 0 16.58,13.13 z"
     style="fill:#d6c700"
     id="path13807" />
  <path
     d="m 98.11,202.72 2,-4.77 c -10.37,-5 -21.23,-2.44 -22.56,1.2 -5,7.84 -7.53,20.63 -6,27.3 1,4.34 5.68,8 11.07,10.25 2.77,-6.33 4.82,-10.73 7.42,-16.14 q 1.48,-3.16 3,-6.54 c -6.56,-3.09 -9.55,-8.2 -8.27,-10.83 1.24,-2.41 6.64,-3.41 13.34,-0.47 z"
     style="fill:#d6c700"
     id="path13809" />
  <path
     d="m 97.64,216.44 c -1.06,2 -2.1,4.07 -3.06,5.95 8.24,4.54 21.06,2.37 22.67,-1.25 1.61,-3.62 -1.93,-13.75 -11.09,-19.29 a 47.43,47.43 0 0 0 -3,4.58 c 5,3.26 6.55,7 5.59,9 -0.79,1.65 -5.3,2.83 -11.11,1.01 z"
     style="fill:#d6c700"
     id="path13811" />
  <path
     d="m 307.84,214.4 c 1.88,1.61 3.69,3.19 5.3,4.64 -11.38,8.67 -22.14,6.8 -26,2 -3.5,-4.42 -0.77,-14.37 5.78,-18.32 1.31,0.87 2.81,2 4.43,3.18 -4.93,3.64 -5.72,8.33 -4.26,10.1 2.66,3.14 10.2,2.42 14.75,-1.6 z"
     style="fill:#d6c700"
     id="path13813" />
  <path
     d="m 101.85,208.61 c 2.4,1.1 6,5 5.84,7.86 a 14.12,14.12 0 0 1 -10,0 80.14,80.14 0 0 1 4.16,-7.86 z"
     style="fill:#30363a"
     id="path13815" />
  <path
     d="m 84.41,205.08 c 1.65,-2.37 6.63,-2.93 12.5,0.24 -1.13,2.74 -2,4.83 -3.7,8.69 -4.98,-2.11 -7.68,-5.17 -8.8,-8.93 z"
     style="fill:#30363a"
     id="path13817" />
  <path
     d="m 337.84,235.77 c -1.11,7.63 -8.06,13.08 -15.63,14.87 -7.39,1.75 -16.05,-0.35 -20,-5.83 a 57.35,57.35 0 0 0 0,8.29 c -2.95,0 -5.34,0 -8,0.13 -1.25,16.41 -9.25,30.94 -18,40.85 18.67,10.18 59.28,12.83 69.14,-2.7 7.26,-11.43 4.74,-34.06 -7.51,-55.61 z"
     style="fill:#30363a"
     id="path13819" />
  <path
     d="m 322.21,250.64 c 7.57,-1.79 14.52,-7.24 15.63,-14.87 a 104.6,104.6 0 0 0 -9.88,-14.46 c -0.22,1.28 -0.5,2.55 -0.83,3.78 -1.67,6.07 -10.8,11 -17.06,10.44 a 23,23 0 0 1 -7.85,-3 18.82,18.82 0 0 1 0.53,7.54 c -0.22,1.6 -0.37,3.16 -0.48,4.7 3.89,5.52 12.55,7.62 19.94,5.87 z"
     style="fill:#d6c700"
     id="path13821" />
  <path
     d="m 312.89,210.6 c 1.94,1.65 3.85,3.17 5.67,4.47 7.89,-4.49 9.95,-13.67 3.5,-18.85 -5.78,-4.64 -16.13,-2.4 -21.87,2.49 1.29,1.28 2.61,2.59 4,3.89 3.82,-3.87 10,-4.23 12.29,-2.06 2.29,2.17 1.68,6.43 -3.59,10.06 z"
     style="fill:#d6c700"
     id="path13823" />
  <path
     d="m 322.06,196.22 c 6.57,5.17 7.93,18.3 5,28.87 -0.81,2.94 -3.37,5.62 -6.5,7.54 0.6,-4.8 0,-10.89 -2.05,-17.74 4.34,-1.32 11.67,-11.04 3.55,-18.67 z"
     style="fill:#d6c700"
     id="path13825" />
  <path
     d="m 299.48,207.93 a 9.6,9.6 0 0 0 -5.41,9 c 3.05,1.62 8.3,1.46 12.41,-1.55 -1.84,-2.24 -4.44,-4.89 -7,-7.45 z"
     style="fill:#30363a"
     id="path13827" />
  <path
     d="m 305.06,205.01 c 3.82,-4.53 10.14,-4 12.37,-0.58 -0.42,2.49 -2.11,4.56 -4.54,6.17 -1.93,-1.52 -5.73,-4.06 -7.83,-5.59 z"
     style="fill:#30363a"
     id="path13829" />
  <path
     d="m 160.23,83.55 c 14.53,7.74 29.44,15.76 42.07,22.51 -7.6,-15.84 -10.61,-38.16 -7.67,-54.51 1.93,-10.73 9.16,-29.3 16.64,-45.95 2.34,-5.21 0.49,-5.9 -4,-3 -11.09,7.18 -28.94,24.6 -40.16,39 a 9.37,9.37 0 0 0 -2,8.32 c 2.13,12.03 1.41,27.67 -4.88,33.63 z"
     style="fill:#30363a"
     id="path13831" />
  <path
     d="m 234.33,50.82 c 0.84,16 -7.52,42.92 -16.1,55.06 13.7,-6.93 28.6,-13.88 43,-19.78 -2.87,-7.91 -1.54,-21.34 1.87,-32.51 1.43,-4.65 1,-6.27 -0.81,-8.9 -6.23,-9.11 -23.53,-29.4 -34,-40.59 -3.82,-4.1 -6.51,-3.07 -3.92,2.2 4.29,8.78 9.15,29.07 9.96,44.52 z"
     style="fill:#30363a"
     id="path13833" />
  <path
     d="m 202.23,12.82 c -0.74,0 -0.82,0 -1.13,-0.7 a 4.18,4.18 0 0 0 -3.28,-2.35 232.77,232.77 0 0 0 -30.69,31.77 10.64,10.64 0 0 0 -1.86,3.38 12.28,12.28 0 0 0 8.47,-2 c 0.67,-0.43 1,-0.43 1.34,0.38 2,5 6.87,5.18 12.2,2.51 0.71,-0.35 1,-0.25 1.31,0.43 a 6.92,6.92 0 0 0 6.3,4 c 1.8,-8.73 6.61,-21.86 12.16,-35 a 4.85,4.85 0 0 0 -4.82,-2.42 z"
     style="fill:#d6c700"
     id="path13835" />
  <path
     d="m 234.33,50.82 v 0.79 a 13.28,13.28 0 0 0 3.79,-2.87 c 0.74,-0.84 0.89,-0.87 1.58,0.07 2.72,3.67 7.37,3.79 10.11,0.07 0.64,-0.86 0.81,-0.94 1.67,-0.53 5.18,2.43 9.08,0.36 10,-4.76 -5.13,-7.26 -15.82,-20.07 -25.07,-30.51 a 2.92,2.92 0 0 0 -2,1.65 c -0.27,0.61 -0.39,0.74 -1.06,0.61 a 5.18,5.18 0 0 0 -5,1.58 158.61,158.61 0 0 1 5.98,33.9 z"
     style="fill:#d6c700"
     id="path13837" />
  <path
     d="m 10.48,105.97 a 20.4,20.4 0 0 1 6.07,1.35 18.31,18.31 0 0 0 4.73,1 20.63,20.63 0 0 1 5.14,1.18 13.7,13.7 0 0 0 4.37,1 17.3,17.3 0 0 1 5,1.24 22.72,22.72 0 0 0 4.77,1.34 18,18 0 0 1 4.82,1.41 6.26,6.26 0 0 1 3.2,2.84 16.69,16.69 0 0 0 2.2,3.43 10.75,10.75 0 0 1 2,3.41 14.76,14.76 0 0 0 2,3.68 12.86,12.86 0 0 1 1.93,3.8 25,25 0 0 0 2.25,4.94 c 0.45,0.66 0.84,1.21 2,0.51 a 10.4,10.4 0 0 0 3.2,-3.1 9.41,9.41 0 0 1 2.92,-2.87 7.42,7.42 0 0 0 2.44,-2.32 9.65,9.65 0 0 1 2.81,-2.59 10.48,10.48 0 0 0 2.86,-2.53 8.43,8.43 0 0 1 3.26,-2.72 c 2.15,-0.91 3.82,-0.89 5.75,1.63 a 16.47,16.47 0 0 1 2.24,3.68 14.23,14.23 0 0 0 1.74,3.35 9.46,9.46 0 0 1 1.57,3 10.18,10.18 0 0 0 1.72,3.17 12.2,12.2 0 0 1 1.87,3.55 7.41,7.41 0 0 0 1.45,2.9 c 0.45,0.54 0.78,0.6 1.5,0.09 a 13.84,13.84 0 0 0 2.84,-2.93 9.73,9.73 0 0 1 2.74,-2.53 11.43,11.43 0 0 0 2.71,-2.62 8.63,8.63 0 0 1 2.63,-2.44 8.6,8.6 0 0 0 2.59,-2.47 11,11 0 0 1 2.89,-2.6 9.83,9.83 0 0 0 2.69,-2.41 8.33,8.33 0 0 1 2.71,-2.47 19.41,19.41 0 0 0 4.25,-3.89 c 0.64,-0.94 0.83,-1.35 0.09,-2.29 a 11.88,11.88 0 0 1 -1.82,-3.19 9.39,9.39 0 0 0 -1.54,-3 6.13,6.13 0 0 1 -1.29,-2.36 10.75,10.75 0 0 0 -1.19,-2.46 c -1,-1.6 -0.54,-3 1.15,-4.57 a 9.58,9.58 0 0 1 3.22,-2.17 14.08,14.08 0 0 0 3.46,-2.06 8.94,8.94 0 0 1 3,-1.84 11.12,11.12 0 0 0 3.19,-1.96 11,11 0 0 1 3.55,-2 9.64,9.64 0 0 0 3.28,-1.83 5.73,5.73 0 0 1 1.52,-1.05 c 3.82,1 6.93,1.74 10.07,2.88 -4.07,12.8 -12.07,51.05 -13.51,65.47 l 0.37,3.1 C 94.76,149.18 27.03,134.34 1.06,129.39 c 0.9,-5.31 5.73,-17.82 9.42,-23.42 z"
     style="fill:#343748"
     id="path13839" />
  <path
     d="m 286.96,91.41 a 4.14,4.14 0 0 1 0.79,0.83 8.28,8.28 0 0 0 2.81,2.24 10.66,10.66 0 0 1 3.18,2.6 9.4,9.4 0 0 0 2.74,2.2 9.22,9.22 0 0 1 2.85,2.34 12.52,12.52 0 0 0 3.11,2.6 12.36,12.36 0 0 1 3.17,2.82 c 1.51,1.74 1.7,3.1 0.83,4.44 a 14.33,14.33 0 0 0 -1.41,2.27 5.64,5.64 0 0 1 -1.4,2.17 11.05,11.05 0 0 0 -2.06,3 6.87,6.87 0 0 1 -1.55,2.42 c -0.83,0.86 -0.67,1.17 0,1.91 a 23.7,23.7 0 0 0 3.65,3.43 11.07,11.07 0 0 1 3,2.92 10.84,10.84 0 0 0 2.68,2.64 12.5,12.5 0 0 1 3,2.85 8.9,8.9 0 0 0 2.52,2.63 8.83,8.83 0 0 1 2.6,2.53 9.71,9.71 0 0 0 2.42,2.49 8.41,8.41 0 0 1 2.45,2.45 18.4,18.4 0 0 0 3.79,3.79 c 0.71,0.54 1.23,0.24 1.74,-0.25 a 8.68,8.68 0 0 0 1.8,-3 11.69,11.69 0 0 1 2.13,-3.29 14.3,14.3 0 0 0 2.31,-3.64 14.28,14.28 0 0 1 2.31,-3.4 14.46,14.46 0 0 0 2.06,-3.24 10.84,10.84 0 0 1 2.8,-3.37 c 2.41,-2 4.28,-1.72 6.51,-0.39 a 9.73,9.73 0 0 1 2.92,3.36 7.61,7.61 0 0 0 1.52,2.13 10.53,10.53 0 0 1 2.06,2.85 5.46,5.46 0 0 0 1.58,2.24 9.31,9.31 0 0 1 2.19,3.1 9.45,9.45 0 0 0 2.06,2.87 c 0.43,0.43 0.72,0.48 1.36,-0.27 a 9.47,9.47 0 0 0 1.71,-2.82 13.1,13.1 0 0 1 2.24,-3.75 13.23,13.23 0 0 0 2,-3.5 c 0.51,-1.07 1.19,-3 2.23,-3.9 1.04,-0.9 1.73,-2.78 2.35,-4.19 a 3,3 0 0 1 2.53,-2.24 17.86,17.86 0 0 1 6.1,-0.21 14.78,14.78 0 0 0 5.05,-0.18 c 1.35,-0.41 3.67,-0.19 5.49,-0.15 a 17,17 0 0 0 4.94,-0.18 c 1.5,-0.41 4.11,-0.15 5.59,-0.11 a 28.32,28.32 0 0 0 5.82,-0.18 18.08,18.08 0 0 1 5.49,-0.28 67.37,67.37 0 0 1 4.84,18.24 c -32.1,5.19 -103.38,17 -137.24,22.55 -0.47,-16.16 -2.47,-57 -3.93,-70.86 2.27,-0.3 6.27,-0.84 10.27,-1.51 z"
     style="fill:#343748"
     id="path13841" />
  <path
     d="m 146.4,99.22 a 11.46,11.46 0 0 1 -2.46,1.55 11.29,11.29 0 0 0 -3.23,2.33 16.18,16.18 0 0 1 -3,2.2 9.34,9.34 0 0 0 -2.75,2 10.88,10.88 0 0 1 -3,2.35 15.58,15.58 0 0 0 -3,2.43 c -0.81,0.81 -1.29,0.54 -1.53,-0.15 a 14.91,14.91 0 0 0 -1.93,-3.41 11.73,11.73 0 0 1 -1.75,-3 c -0.42,-1 -0.37,-1.29 0.51,-1.69 a 12.88,12.88 0 0 0 3.42,-2.17 11.71,11.71 0 0 1 3.78,-2.29 15.39,15.39 0 0 0 4.18,-2.57 11,11 0 0 1 4.1,-2.62 10.84,10.84 0 0 0 4.14,-2.49 13.47,13.47 0 0 1 3.42,-2.14 l 1.81,0.51 c -1.05,2.95 -1.85,5.84 -2.71,9.16 z"
     style="fill:#ffffff"
     id="path13843" />
  <path
     d="m 138.96,132.21 a 17.63,17.63 0 0 1 -1.72,-3.13 10.93,10.93 0 0 0 -1.78,-3.31 10.35,10.35 0 0 1 -1.84,-3.41 12,12 0 0 0 -1.84,-3.16 c -0.75,-0.9 -0.6,-1.26 0.18,-1.63 a 15.13,15.13 0 0 0 3.5,-3.08 14.15,14.15 0 0 1 3.28,-2.74 12.48,12.48 0 0 0 2.93,-2.44 11.83,11.83 0 0 1 2.54,-2.14 c -1.54,6.73 -3.41,16.66 -5.25,25.04 z"
     style="fill:#e73830"
     id="path13845" />
  <path
     d="m 137.59,141.08 a 22.07,22.07 0 0 0 -2.18,-3.61 12.88,12.88 0 0 1 -2,-3.34 16.84,16.84 0 0 0 -2,-3.56 13.94,13.94 0 0 1 -2.23,-3.89 13.19,13.19 0 0 0 -1.87,-3.31 c -0.37,-0.52 -0.88,-0.82 -1.42,-0.19 a 10.22,10.22 0 0 1 -2.17,1.87 8.54,8.54 0 0 0 -2.41,2.27 12.17,12.17 0 0 1 -3.26,2.89 1.09,1.09 0 0 0 -0.61,1.4 0.61,0.61 0 0 0 0.07,0.14 10.8,10.8 0 0 0 1.66,2.89 11.46,11.46 0 0 1 1.77,3.35 9.59,9.59 0 0 0 1.81,3.28 12.33,12.33 0 0 1 2.11,3.8 13.12,13.12 0 0 0 2,3.65 12.81,12.81 0 0 1 2.08,3.89 9.4,9.4 0 0 0 1.66,3 12.16,12.16 0 0 1 1.11,1.79 l 4.26,1.25 -0.4,-2.75 c 0.59,-4.7 1.39,-10.08 2.02,-14.82 z"
     style="fill:#d6c700"
     id="path13847" />
  <path
     d="m 123.25,155.54 a 15.42,15.42 0 0 0 -1.77,-3.51 11.54,11.54 0 0 1 -1.81,-3.5 13,13 0 0 0 -1.78,-3.53 12.39,12.39 0 0 1 -1.87,-3.47 11.56,11.56 0 0 0 -1.75,-3.31 8,8 0 0 1 -1.2,-2.29 c -0.18,-0.61 -0.58,-0.85 -1.09,-0.18 a 7.59,7.59 0 0 1 -2.26,2.11 8.09,8.09 0 0 0 -2.53,2.41 14,14 0 0 1 -2.84,2.59 14,14 0 0 0 -2.65,2.68 9.19,9.19 0 0 1 -2.29,2.15 7.88,7.88 0 0 0 -2.08,2.07 c 5.63,1.32 18.48,4.16 25.92,5.78 z"
     style="fill:#ffffff"
     id="path13849" />
  <path
     d="m 63.61,142.31 a 5.86,5.86 0 0 1 1.35,-1.23 9.14,9.14 0 0 0 2.32,-2.32 10.6,10.6 0 0 1 2.59,-2.41 8,8 0 0 0 2.27,-2.11 7.81,7.81 0 0 1 2.35,-2.23 10.78,10.78 0 0 0 2.62,-2.14 11.23,11.23 0 0 1 2.2,-1.87 c 0.66,-0.45 1.12,-0.24 1.24,0.3 a 5.22,5.22 0 0 0 1.11,2.2 9.62,9.62 0 0 1 1.6,3.2 11.08,11.08 0 0 0 1.78,3.55 10,10 0 0 1 1.92,3.83 9.16,9.16 0 0 0 1.72,3.53 13.22,13.22 0 0 1 1.72,3.47 c -7.11,-1.61 -19.51,-4.33 -26.79,-5.77 z"
     style="fill:#ffffff"
     id="path13851" />
  <path
     d="m 16.68,132.49 a 10.74,10.74 0 0 1 4.07,-1.41 26.06,26.06 0 0 0 4.83,-1.36 29.22,29.22 0 0 1 5.71,-1.09 c 1.4,-0.12 1.36,-0.64 1,-1.28 a 6.52,6.52 0 0 0 -1.77,-2 21.42,21.42 0 0 1 -3.46,-3.66 14.3,14.3 0 0 0 -2.65,-3 11.91,11.91 0 0 1 -2.57,-3.13 c -0.57,-1 -0.4,-1.21 0.8,-1.09 a 21.14,21.14 0 0 1 4.71,1 19.56,19.56 0 0 0 4.78,1 19.72,19.72 0 0 1 5.28,1.35 15.5,15.5 0 0 0 4.13,1.06 c 1,0.12 1.44,0.16 2.09,1.65 a 26.53,26.53 0 0 0 3.25,5.31 15.15,15.15 0 0 1 2.49,4.78 19.92,19.92 0 0 0 2.38,4.83 22.23,22.23 0 0 1 2.38,4.75 c -9.23,-1.87 -28.91,-6.12 -37.45,-7.71 z"
     style="fill:#ffffff"
     id="path13853" />
  <path
     d="m 277.49,109.4 a 15.15,15.15 0 0 1 3.35,3.43 14.18,14.18 0 0 0 2.89,2.9 15.42,15.42 0 0 1 3.2,3.1 9.73,9.73 0 0 0 2.59,2.72 1.2,1.2 0 0 1 0.64,1.57 1.17,1.17 0 0 1 -0.4,0.51 11.37,11.37 0 0 0 -2.2,2.86 7.69,7.69 0 0 1 -2.11,2.56 11.34,11.34 0 0 0 -2.35,2.9 8.29,8.29 0 0 1 -2.11,2.56 10.79,10.79 0 0 0 -2.2,2.74 z"
     style="fill:#e73830"
     id="path13855" />
  <path
     d="m 406.41,143.17 a 14.76,14.76 0 0 1 -4.05,-0.84 11.26,11.26 0 0 0 -3.8,-0.79 11.86,11.86 0 0 1 -4.14,-1 11,11 0 0 0 -3.47,-0.94 9.65,9.65 0 0 1 -3,-1 c -0.57,-0.34 -0.57,-0.74 -0.19,-1.08 a 8.3,8.3 0 0 1 2.54,-1.55 9.58,9.58 0 0 0 2.94,-1.92 10.63,10.63 0 0 1 3,-2 11.7,11.7 0 0 0 2.87,-1.84 c 0.63,-0.61 0.55,-0.84 -0.24,-1 a 25.89,25.89 0 0 0 -4.9,-0.08 33.19,33.19 0 0 1 -5.64,0.07 16.76,16.76 0 0 0 -5,0.16 13.22,13.22 0 0 1 -4.48,0.13 c -1,-0.1 -1.14,0 -1.64,1 a 16.33,16.33 0 0 1 -2.38,4.28 11.62,11.62 0 0 0 -2.38,4 16.93,16.93 0 0 1 -2.44,4.4 14.78,14.78 0 0 0 -2.29,4.22 12.36,12.36 0 0 1 -1.26,2.28 c 14.71,-2.36 28.61,-4.65 39.95,-6.5 z"
     style="fill:#ffffff"
     id="path13857" />
  <path
     d="m 358.4,151.08 a 9.47,9.47 0 0 0 -1.51,-2 8.69,8.69 0 0 1 -1.74,-2.51 12.36,12.36 0 0 0 -2.19,-3.09 10,10 0 0 1 -2.1,-2.9 8.46,8.46 0 0 0 -1.89,-2.69 7.31,7.31 0 0 1 -1.91,-2.59 15.2,15.2 0 0 0 -1.81,-2.54 c -0.49,-0.55 -0.86,-0.32 -1,0.21 a 5,5 0 0 1 -1.34,2 8.69,8.69 0 0 0 -1.92,2.8 11.55,11.55 0 0 1 -2.27,3.34 9.33,9.33 0 0 0 -2.24,3.52 9.47,9.47 0 0 1 -2.14,3.33 14,14 0 0 0 -2.41,4 25.76,25.76 0 0 1 -2.09,3.78 z"
     style="fill:#ffffff"
     id="path13859" />
  <path
     d="m 296.58,128.08 c -0.47,-0.69 -0.84,-0.63 -1.29,-0.2 a 14.79,14.79 0 0 0 -2.48,3.3 18.12,18.12 0 0 1 -2.69,3.41 16,16 0 0 0 -2.5,3.12 15.55,15.55 0 0 1 -2.69,3.3 23.57,23.57 0 0 0 -3,3.61 17.45,17.45 0 0 1 -1.92,2.37 c 0.3,6.7 0.52,12.65 0.65,16.89 l 5.06,-0.83 a 17.42,17.42 0 0 1 2.46,-3.08 12.86,12.86 0 0 0 2.28,-3 13,13 0 0 1 2.49,-3.64 12.9,12.9 0 0 0 2.34,-3.42 12.08,12.08 0 0 1 2.5,-3.55 9.85,9.85 0 0 0 2.13,-3.2 11.69,11.69 0 0 1 2.13,-3.2 12.37,12.37 0 0 0 2,-3 1.25,1.25 0 0 0 -0.36,-1.73 v 0 a 7.86,7.86 0 0 1 -2.44,-2.53 10.25,10.25 0 0 0 -2.55,-2.58 11.31,11.31 0 0 1 -2.12,-2.04 z"
     style="fill:#d6c700"
     id="path13861" />
  <path
     d="m 276.7,93 c 0.22,2.12 0.46,4.86 0.7,8 a 11.16,11.16 0 0 0 2.57,2.47 11.83,11.83 0 0 1 2.79,2.77 15.69,15.69 0 0 0 2.69,2.65 15.47,15.47 0 0 1 2.52,2.4 12.32,12.32 0 0 0 2.65,2.55 14.32,14.32 0 0 1 2.87,2.79 c 0.67,0.94 0.8,0.87 1.35,0.38 a 7.43,7.43 0 0 0 1.55,-2.13 8,8 0 0 1 1.56,-2 6.69,6.69 0 0 0 1.55,-1.92 c 0.5,-1 0.39,-1.12 -0.42,-1.66 a 12.87,12.87 0 0 1 -3,-2.7 12.31,12.31 0 0 0 -3.31,-3 14.24,14.24 0 0 1 -3.6,-3.14 13,13 0 0 0 -3.76,-3.23 12.48,12.48 0 0 1 -3.68,-3.15 10.6,10.6 0 0 0 -2,-1.9 l -3.11,0.61 z"
     style="fill:#ffffff"
     id="path13863" />
  <path
     d="m 301.37,153.15 a 11,11 0 0 1 -2.15,3.12 8.5,8.5 0 0 0 -2.25,3.23 6.72,6.72 0 0 1 -1.16,1.87 c 8.81,-1.44 18.79,-3.09 29.27,-4.82 a 15.33,15.33 0 0 0 -2.5,-2.59 7.27,7.27 0 0 1 -2.26,-2.42 8.89,8.89 0 0 0 -2.59,-2.63 7.21,7.21 0 0 1 -2.43,-2.45 8.77,8.77 0 0 0 -2.67,-2.51 8.64,8.64 0 0 1 -2.28,-2.15 c -0.44,-0.71 -0.85,-0.51 -1.1,0.07 a 8.18,8.18 0 0 1 -1.44,2.15 11.24,11.24 0 0 0 -2.1,3.1 10.71,10.71 0 0 1 -2.17,3 11.82,11.82 0 0 0 -2.17,3.03 z"
     style="fill:#ffffff"
     id="path13865" />
  <path
     d="m 103.78,205.01 c -3.82,4.5 -10.88,13.07 -14.82,17.87 l -3,6.56 a 138.56,138.56 0 0 0 11.62,-13.19 c 2.05,-3.88 3.9,-7.3 6.2,-11.24 z"
     style="fill:#232528"
     id="path13867" />
  <path
     d="m 192.65,192.49 a 91.17,91.17 0 0 1 -4.24,-16.41 57.41,57.41 0 0 1 18.32,-1.74 c -10.24,-1.76 -20.37,-3.92 -30.31,-6.38 -7,5 -14.69,13.52 -21.5,23.08 0.68,0.58 1.41,1.13 2.17,1.67 1.92,-2.5 4,-5 6.19,-7.49 3.73,4.17 10,9.72 11.47,9.62 1.91,-0.13 9.49,-3.27 14.4,-5.57 a 32.88,32.88 0 0 1 -12,12 c 2.25,0.57 4.59,1.07 7,1.5 a 19.9,19.9 0 0 1 8.5,-10.28 z"
     style="fill:#232528"
     id="path13869" />
  <path
     d="m 242.44,170.75 c -10.92,1.32 -22.39,2.5 -34.4,3.65 a 56.37,56.37 0 0 1 17.72,3.77 150.87,150.87 0 0 1 -7.27,15.11 17.56,17.56 0 0 1 6.25,9.87 c 1.75,-0.28 3.49,-0.58 5.2,-0.93 a 52.26,52.26 0 0 1 -6.6,-11.93 c 4.54,4 11.76,8.08 14.48,8 2.49,0 8.78,-4.16 13.64,-9 0.9,1.3 1.79,2.6 2.63,3.89 1.26,-0.78 2.5,-1.58 3.66,-2.43 -4.86,-8.46 -10.18,-15.67 -15.31,-20 z"
     style="fill:#232528"
     id="path13871" />
  <path
     d="m 312.89,210.6 c -2.1,-1.6 -5.31,-3.9 -7.77,-5.49 1.75,4.21 2.95,7.29 4.28,10.79 1.13,1 2.6,2.1 3.58,3 0.79,1.25 1.67,2.71 2.38,3.91 -0.81,-4.22 -1.79,-9.28 -2.47,-12.21 z"
     style="fill:#232528"
     id="path13873" />
  <path
     d="m 197.47,204.35 c -1.16,-2.45 -2.29,-5.09 -3.34,-7.82 a 16.22,16.22 0 0 0 -2.86,7.26 q 3.06,0.35 6.2,0.56 z"
     style="fill:#232528"
     id="path13875" />
  <path
     d="m 212.06,204.45 c 2.39,-0.12 4.77,-0.33 7.14,-0.58 a 14.44,14.44 0 0 0 -2.36,-7.59 c -1.58,2.8 -3.21,5.63 -4.78,8.17 z"
     style="fill:#232528"
     id="path13877" />
  <path
     d="m 165.51,50.89 c 2.25,14.85 13.45,32.28 29.52,30.38 1.27,10 4,20.35 8.08,25.57 -11.55,-6.57 -31.32,-17.24 -43,-23.46 5.29,-5.6 6.85,-11.3 5.4,-32.49 z"
     style="fill:#232528"
     id="path13879" />
  <path
     d="m 263.06,52.85 c -5.69,18.55 -23.28,31.5 -34,29.14 -2.63,7.7 -5.95,16.18 -10.77,23.88 11.82,-5.77 30.37,-14.87 43,-19.77 -3.48,-7.53 -1.33,-21.62 1.77,-33.25 z"
     style="fill:#232528"
     id="path13881" />
  <path
     d="m 62.69,247.69 c -0.84,31.05 18.16,41.43 55.8,27 a 41.94,41.94 0 0 0 12,16.44 c -12,7.7 -51.88,15.54 -63.59,4.9 -9.32,-8.48 -7.36,-38.11 -4.21,-48.34 z"
     style="fill:#232528"
     id="path13883" />
  <path
     d="m 287.2,277.42 c 23.71,12.88 63.78,8.08 59,-19.58 5.79,16.93 2.66,32.34 -4.75,37.82 -15.36,11.34 -51.8,6.46 -65.31,-1.49 a 76,76 0 0 0 11.06,-16.75 z"
     style="fill:#232528"
     id="path13885" />
  <path
     d="m 297.84,253.28 c 0.36,5 6.85,18.54 12.92,21.86 -4.41,-5.34 -8.59,-14.5 -8.74,-21.94 a 38.88,38.88 0 0 0 -4.18,0.08 z"
     style="fill:#232528"
     id="path13887" />
  <path
     d="m 205.33,354.78 a 312.62,312.62 0 0 0 15.22,-33.13 c 1.21,-3.19 2.24,-4.49 5.62,-6.09 9.34,-4.4 21.53,-11.21 27.69,-18.65 a 15.59,15.59 0 0 1 0.95,-3.19 c 4.91,-11.7 13.35,-34.55 18.43,-48.8 -20.07,16.27 -61.3,21.77 -72.72,21.25 -14,-0.65 -46.06,-8.79 -65.56,-22.53 0.74,14.3 5.13,33.95 14.05,46.56 5.86,8.3 19.73,18.62 30,23.32 3.5,1.59 5,3.06 5.34,7.11 a 34.25,34.25 0 0 1 16.38,1.45 c 3.6,1.25 5.14,3.66 3.94,8.17 -1.27,4.75 -2.71,9.46 -4.3,14 a 17,17 0 0 1 4.96,10.53 z"
     style="fill:#232528"
     id="path13889" />
  <path
     d="m 123.7,437.85 c 1.38,4.22 1.64,9.47 -2.58,13.52 8.18,2.15 25.32,-1.9 26.78,-15.25 a 65.18,65.18 0 0 0 -14.46,-11.19 c -4.31,1.2 -9.05,7.49 -9.74,12.92 z"
     style="fill:#232528"
     id="path13891" />
  <path
     d="m 137.75,168.89 c 11.73,3.06 19.93,4.67 30.13,6.49 a 67.24,67.24 0 0 1 8.54,-7.45 c -14.14,-3.49 -27.88,-7.59 -40.93,-12 0.14,0.89 0.26,1.73 0.4,2.75 -33.09,-7.8 -68.41,-15.7 -104.16,-23.1 -0.53,1.85 -1.05,4.15 -1.52,5.95 32.77,6.21 74.42,15.54 107,24.18 0.17,1.04 0.32,1.98 0.54,3.18 z"
     style="fill:#7e1008"
     id="path13893" />
  <path
     d="m 388.96,146.08 c -35.87,5.93 -76.38,12.56 -108.28,17.74 v 1.12 c -11.87,2.27 -24.62,4.13 -38.22,5.77 a 51,51 0 0 1 6.69,7.09 c 11.17,-1.4 23.4,-3.16 33.56,-4.76 -0.05,-1 -0.16,-2.35 -0.29,-3.54 38.17,-6.68 76.44,-13.76 107.47,-18.26 -0.28,-1.49 -0.63,-3.29 -0.93,-5.16 z"
     style="fill:#7e1008"
     id="path13895" />
  <path
     d="m 187.58,180.85 c -2.6,-4.28 -5.14,-8.12 -7.26,-11.32 a 57.34,57.34 0 0 0 -6.27,4.82 87.16,87.16 0 0 1 13.53,6.5 z"
     style="fill:#dbdcdc"
     id="path13897" />
  <path
     d="m 225.44,182.6 c 3,-3.92 8,-7.94 12,-10.76 a 31.6,31.6 0 0 1 6,5.55 132.28,132.28 0 0 0 -18,5.21 z"
     style="fill:#dbdcdc"
     id="path13899" />
  <path
     d="m 183.75,209.08 c 3.6,20.92 34.23,21.72 40.73,1.3 -1.1,13 -11.9,18.32 -20.91,17.92 -12.72,-0.57 -20.38,-7.65 -19.82,-19.22 z"
     style="fill:#dbdcdc"
     id="path13901" />
  <path
     d="m 147.67,92.94 c -9.13,20.73 -14.34,42.14 -17.71,64.53 l 5.73,1.17 -0.26,-2.73 c 1.81,-14.6 8.59,-49.41 12.24,-62.97 z"
     style="fill:#000000;fill-opacity:1;opacity:0.14048059"
     id="path13903" />
  <path
     d="m 277.81,96.27 c 4.73,20.35 6.9,45.78 8.6,66.72 l -6,0.87 c -0.64,-18.61 -0.85,-37.78 -2.6,-67.59 z"
     style="fill:#000000;opacity:0.14;fill-opacity:1"
     id="path13905" />
  <path
     d="m 312.89,210.6 c 1,3.9 1.89,8.76 2.6,12.36 1.55,3.14 3.59,7 4.86,9.62 0.74,-4.28 -0.07,-12.63 -1.69,-17.49 -1.97,-1.46 -3.24,-2.47 -5.77,-4.49 z"
     style="fill:#afa300"
     id="path13907" />
  <path
     d="m 299.48,207.93 -2.17,-2.3 c -5.73,4.18 -5.83,9.36 -3.24,11.27 a 9.6,9.6 0 0 1 5.41,-8.97 z"
     style="fill:#afa300"
     id="path13909" />
  <path
     d="m 305.06,205.01 -1,-2.72 c 5.87,-5.05 14.81,-3.89 13.35,2.14 -2.21,-3.35 -8.53,-3.95 -12.35,0.58 z"
     style="fill:#afa300"
     id="path13911" />
  <path
     d="m 304.15,202.6 -4.19,-3.71 c 2.14,4.7 5.45,12.8 6.93,16.2 l 0.91,-0.69 1.49,1.3 c -1.71,-4.4 -3.39,-8.98 -5.14,-13.1 z"
     style="fill:#afa300"
     id="path13913" />
  <path
     d="m 94.58,222.39 c -2.38,3.15 -8.09,10.26 -11.92,14.31 5.5,2.28 11.73,3 15.54,1.49 6.35,-2.62 17.5,-12 19.05,-17.05 -1.61,3.62 -14.43,5.79 -22.67,1.25 z"
     style="fill:#afa300"
     id="path13915" />
  <path
     d="m 84.58,204.94 c 2.22,-2.7 6.38,-2.66 12.44,0.58 l 1.09,-2.8 c -7.43,-3.2 -13.33,-2.24 -13.53,2.22 z"
     style="fill:#afa300"
     id="path13917" />
  <path
     d="m 102.96,206.39 -1.09,2.22 c 3.78,2.06 5.75,5.7 5.84,7.86 2.73,-0.97 1.51,-6.25 -4.75,-10.08 z"
     style="fill:#afa300"
     id="path13919" />
  <path
     d="m 97.12,217.08 c -2.84,3.46 -8,9.18 -11.68,13.1 l -2.27,5.55 a 97.16,97.16 0 0 0 11.41,-13.32 z"
     style="fill:#afa300"
     id="path13921" />
  <path
     d="m 287.18,221.01 c 4.37,5.44 17,14 22.86,14.52 3.23,0.31 7.22,-0.86 10.56,-2.9 -2,-4 -4.6,-8.72 -7.62,-13.71 -7.11,6.58 -19.78,8.79 -25.8,2.09 z"
     style="fill:#afa300"
     id="path13923" />
  <path
     d="m 188.41,176.08 c 1.13,8.09 4.79,19.24 8.89,27.92 3,-2.87 6.83,-4.74 7.85,-4.74 0.79,0 4.15,2.62 6.41,6 5.27,-8.44 11.39,-20 14.2,-27.09 -10.45,-4.45 -27.41,-5.09 -37.35,-2.09 z"
     style="fill:#afa300"
     id="path13925" />
  <path
     d="m 83.64,237.34 c 5.32,7.42 16.32,9.74 18.54,3.82 l -1,-4.57 c -3.58,2.49 -8.47,3.82 -17.54,0.75 z"
     style="fill:#afa300"
     id="path13927" />
  <path
     d="m 302.59,239.08 c 1.52,2.94 9.94,3.84 17.29,-5.65 -7.46,3.22 -12.6,2.32 -17.46,-0.85 a 21.15,21.15 0 0 1 0.17,6.5 z"
     style="fill:#afa300"
     id="path13929" />
  <path
     d="m 181.16,388.46 c 3.38,9.95 6,23.87 4.67,31.34 -0.85,4.61 -11.94,13.33 -23,17.17 -4.7,1.62 -6.17,0.92 -8.86,-2 -16.54,-18.23 -36.92,-23.3 -40.87,-14.4 -0.79,6.53 3.12,15.46 9.64,20.58 a 18.87,18.87 0 0 1 1.22,-5.07 c -6.7,-6.21 -7.72,-12.51 -6.33,-13.87 2.84,-2.77 13,-0.24 22.31,6.75 11.76,8.86 16.56,18 13.09,21.23 -2.54,2.35 -8.63,0.72 -13.33,-2 a 30.61,30.61 0 0 1 -4.36,2.09 c 3.74,2.94 12.4,4.85 17.36,4.34 9,-0.94 35.84,-21.64 37.47,-33.93 1.08,-8.2 -2.05,-23.39 -4.83,-32.32 -0.88,-2.85 -0.91,-3.65 1,-5.54 6.52,-6.58 13.19,-17.15 19,-28 -0.62,-4.88 -2.7,-8.51 -5,-10.49 -4.9,14.09 -10.2,23.25 -17.76,33.86 -2.96,4.15 -3.04,5.48 -1.42,10.26 z"
     style="fill:#afa300"
     id="path13931" />
  <path
     d="m 181.67,192.59 a 21.31,21.31 0 0 0 1.43,-3.86 c 1.71,-6.17 0.53,-9.62 -1.16,-10.09 -1.86,-0.52 -4.69,1.42 -6.46,7.82 -1.09,4 -1.07,6.66 -0.39,8.25 a 37.12,37.12 0 0 0 6.58,-2.12 z"
     style="fill:#68a198"
     id="path13933" />
  <path
     d="m 230.96,195.59 a 17.88,17.88 0 0 1 -1,-3.95 c -0.89,-6.35 1.24,-10 3,-10.25 1.91,-0.27 4.57,2.27 5.55,8.84 0.56,3.84 -0.06,6.55 -1,8.07 a 31,31 0 0 1 -6.55,-2.71 z"
     style="fill:#68a198"
     id="path13935" />
  <path
     d="m 234.46,194.2 a 2,2 0 0 0 -1.55,2.13 31.69,31.69 0 0 0 3,1.24 c 1.05,-1.35 0.21,-3.57 -1.45,-3.37 z"
     style="fill:#dbdcdc"
     id="path13937" />
  <path
     d="m 179.42,190.66 c -1.66,-0.43 -3.05,2 -2.06,3.47 1.09,-0.32 2.24,-0.72 3.32,-1.14 a 2,2 0 0 0 -1.26,-2.33 z"
     style="fill:#dbdcdc"
     id="path13939" />
  <path
     d="m 175.48,186.46 c -0.13,0.48 -0.25,1 -0.35,1.4 1.15,-0.26 2.26,-0.53 3.46,-0.92 l 0.29,-0.81 a 30.85,30.85 0 0 1 -2.78,-1.61 c -0.21,0.56 -0.42,1.24 -0.62,1.94 z"
     style="fill:#afa300"
     id="path13941" />
  <path
     d="m 183.86,185.68 c -1,0.2 -1.84,0.53 -2.8,0.65 l -0.18,1.2 c 0.65,0.46 1.28,0.88 2.09,1.39 0.18,-0.77 0.8,-2.57 0.89,-3.24 z"
     style="fill:#afa300"
     id="path13943" />
  <path
     d="m 237.96,187.78 a 27.59,27.59 0 0 1 -3.13,1.31 l 0.23,1.11 c 1.39,0.38 2.26,0.6 3.53,0.93 -0.14,-0.97 -0.4,-2.41 -0.63,-3.35 z"
     style="fill:#afa300"
     id="path13945" />
  <path
     d="m 232.83,189.4 c -1.12,-0.34 -2.11,-0.63 -3.17,-1 a 24.83,24.83 0 0 0 0.3,3.44 c 1,-0.51 1.78,-1 2.83,-1.55 z"
     style="fill:#afa300"
     id="path13947" />
  <path
     d="m 189.15,189.24 c -4.91,2.3 -12.49,5.44 -14.4,5.57 -1.48,0.1 -7.74,-5.45 -11.47,-9.62 -2.17,2.45 -4.27,5 -6.19,7.49 5.16,3.68 12.11,6.56 20,8.57 a 32.69,32.69 0 0 0 12.06,-12.01 z"
     style="fill:#c82e28"
     id="path13949" />
  <path
     d="m 251.46,189.3 c -4.86,4.86 -11.15,9 -13.64,9 -2.72,0 -9.94,-4.06 -14.48,-8 a 52.26,52.26 0 0 0 6.6,11.93 76.76,76.76 0 0 0 24.15,-9 c -0.84,-1.33 -1.73,-2.63 -2.63,-3.93 z"
     style="fill:#c82e28"
     id="path13951" />
  <path
     d="m 117.52,271.93 c 10.82,13.7 22,11.63 22.1,-1.32 2.57,7.16 6.31,16.11 10.28,20.93 -0.64,6.07 -4.21,8.08 -11.83,4.6 -8.18,-3.74 -17.52,-13.62 -20.55,-24.21 z"
     style="fill:#c82e28"
     id="path13953" />
  <path
     d="m 261.96,275.97 c 2,9.49 12.86,12.3 25.76,1.3 -5.66,11.4 -14,20.73 -21.18,25.63 -10.52,7.22 -16.07,0.63 -11.41,-9.88 2.49,-5.63 4.98,-12.22 6.83,-17.05 z"
     style="fill:#c82e28"
     id="path13955" />
  <path
     d="m 184.96,200.96 a 4.88,4.88 0 0 1 6.33,2.41 c 0.72,-5.49 5.5,-10.54 9.17,-12.13 l -0.56,-1.6 c -5.57,0.44 -12.08,5.23 -14.94,11.32 z"
     style="fill:#dbdcdc"
     id="path13957" />
  <path
     d="m 219.05,203.69 a 13.66,13.66 0 0 0 -7,-11.85 l 0.81,-1.58 c 4.93,1.25 10,6.39 11.69,11.64 -1.76,-1.56 -5.02,0.04 -5.5,1.79 z"
     style="fill:#dbdcdc"
     id="path13959" />
  <path
     d="m 200.43,191.53 c 1.9,6 1.68,9.11 0.22,9.57 -1.62,0.5 -4,-2.37 -5.82,-8.27 -1.69,-5.38 -1.17,-9.09 0.21,-9.35 1.38,-0.26 3.52,2.08 5.39,8.05 z"
     style="fill:#0f141b"
     id="path13961" />
  <path
     d="m 212.08,191.84 c -2.53,5.17 -2.94,9.1 -1.84,9.64 1.1,0.54 3.52,-1.68 6.54,-7.87 2.57,-5.25 2.84,-8.75 1.75,-9.13 -1.09,-0.38 -3.3,0.9 -6.45,7.36 z"
     style="fill:#0f141b"
     id="path13963" />
  <path
     d="m 278.03,107.63 c 16.33,-1.81 32.29,-3.3 48.11,-4.39 3.84,-0.27 3.94,0.89 0.1,1.22 -15.84,1.36 -31.92,3 -48,4.73 z"
     style="fill:#000000;fill-opacity:1;opacity:0.342"
     id="path14171" />
  <path
     d="m 279.66,135.08 c 18.68,-2.44 39.36,-5 59.64,-7.1 3.74,-0.38 3.86,0.78 0.12,1.21 -20.16,2.3 -41.14,4.89 -59.7,7.46 z"
     style="fill:#000000;fill-opacity:1;opacity:0.342"
     id="path14177" />
  <path
     d="m 279.6,134.18 c -1.81,0.41 -3.39,0.74 -5.38,1.17 -2.95,0.62 -3.39,-0.34 -0.23,-1.18 2.16,-0.57 3.73,-0.92 5.57,-1.39 z"
     style="fill:#000000;fill-opacity:1;opacity:0.342"
     id="path14163" />
  <path
     d="m 277.62,103.14 c -7.31,2.48 -14,4.83 -21.28,7.48 -4.06,1.48 -4.66,0.48 -0.41,-1.16 7.2,-2.78 14.19,-5.3 21.61,-7.8 z"
     style="fill:#000000;fill-opacity:1;opacity:0.342"
     id="path14153" />
  <path
     d="m 145.38,103.49 c 9.56,3.25 20.91,7.75 33.29,13.15 3.75,1.64 3.12,2.65 -0.46,1.16 -12.4,-5.19 -23.74,-9.57 -33.2,-12.78 z"
     style="fill:#000000;fill-opacity:1;opacity:0.342"
     id="path14157" />
  <path
     d="m 139.67,129.66 c 8.66,2.41 20.23,6 32.88,10.16 4.57,1.51 3.94,2.57 -0.41,1.18 -12.64,-4 -24.06,-7.45 -32.79,-9.81 z"
     style="fill:#000000;fill-opacity:1;opacity:0.342"
     id="path14159" />
  <path
     d="m 139.2,132.79 c -6.47,-1.89 -13.43,-3.79 -21.46,-5.83 -3.15,-0.79 -3,-1.92 0.21,-1.17 8,1.88 15.06,3.72 21.53,5.62 z"
     style="fill:#000000;fill-opacity:1;opacity:0.34195933"
     id="path14165" />
  <path
     d="m 144.27,108.08 c -6.44,-1.83 -13.76,-3.48 -22.67,-5.64 -3.26,-0.78 -3,-1.91 0.24,-1.2 8.92,1.91 16.24,3.7 22.75,5.42 z"
     style="fill:#000000;fill-opacity:1;opacity:0.34195933"
     id="path14179" />
  <path
     d="m 280.28,166.18 c -22.1,4.17 -47.61,6.83 -71.42,9.12 a 8,8 0 0 1 -2.81,-0.1 479,479 0 0 1 -70.57,-18 c -1.15,-0.39 -1.29,-0.74 -1.14,-1.82 3.66,-27.42 10.07,-55.6 17,-75.84 0.42,-1.21 0.91,-1.33 2.15,-0.67 19.13,10.1 40.8,21.87 56.43,30.18 22.45,-11.72 45.5,-22.14 64.35,-29.13 1.31,-0.49 1.8,-0.21 2,1.23 3.65,26.24 4.69,58.16 5.46,83.27 0.03,1.19 -0.18,1.52 -1.45,1.76 z m -0.84,-2.24 c -0.74,-25.4 -1.42,-55.19 -5.16,-81.78 a 568.89,568.89 0 0 0 -63.48,28.69 1.41,1.41 0 0 1 -1.64,0 c -16,-8.57 -37.4,-20 -56.08,-29.9 -7,20.3 -12.75,46.54 -16.4,74.18 a 464.77,464.77 0 0 0 70.8,18.42 c 24.37,-2.37 49.38,-5.31 71.96,-9.61 z"
     style="fill:#0f141b"
     id="path13965" />
  <path
     d="m 207.79,131.4 c -5.45,-2.74 -10.59,-5.2 -16.87,-8 -3.27,-1.49 -2.83,-2.51 0.48,-1.12 6.25,2.62 11.45,5 16.95,7.66 9.72,-4.86 20.25,-9.6 32.57,-14.59 3.36,-1.35 3.77,-0.21 0.41,1.18 -12.13,5 -22.78,9.92 -32.18,14.81 a 1.24,1.24 0 0 1 -1.36,0.06 z"
     style="fill:#000000;fill-opacity:1;opacity:0.342"
     id="path14155" />
  <path
     d="m 206.96,152.97 c -5.89,-2.2 -11.71,-4.3 -18.82,-6.7 -3.27,-1.09 -2.91,-2.21 0.37,-1.17 7.35,2.32 12.92,4.31 19.18,6.46 18,-5.58 35.86,-10.41 57.14,-15.26 4.91,-1.12 5.13,-0.05 0.26,1.17 -21.24,5.31 -39,10 -56.82,15.55 a 1.75,1.75 0 0 1 -1.31,-0.05 z"
     style="fill:#000000;fill-opacity:1;opacity:0.342"
     id="path14161" />
  <path
     d="m 206.34,174.46 c -0.22,-20.47 0.66,-44.57 2.41,-64.39 l 2.25,0.06 c -1.75,19.79 -2.65,43.86 -2.43,64.3 z"
     style="fill:#0f141b"
     id="path13967" />
  <path
     d="m 341.62,103.3 c -4.09,0.24 -4.16,-0.91 -0.06,-1.22 14.54,-1.13 24.86,-1.76 35.28,-2.11 l 3.68,1.41 c -13.44,0.42 -23.81,1.02 -38.9,1.92 z"
     style="fill:#000000;fill-opacity:1;opacity:0.342"
     id="path14173" />
  <path
     d="m 412.62,122.64 c -16.84,1 -36.54,2.8 -60.11,5.14 -4.47,0.44 -4.48,-0.71 -0.1,-1.19 22.79,-2.51 43.42,-4.43 59.55,-5.51 z"
     style="fill:#000000;fill-opacity:1;opacity:0.342"
     id="path14175" />
  <path
     d="m 280.63,162.8 c 42.08,-6.83 96.09,-15.71 136,-22.36 -1.84,-13.53 -6.81,-23.43 -14.7,-29.9 -10.17,-5.15 -58.84,-20.18 -66.25,-21 -5.93,-0.66 -39.27,1.85 -58.94,4.52 l -0.21,-2.14 c 18.75,-3.11 53.46,-5.62 59.43,-5 7.36,0.81 55.55,16.12 66.64,21.5 a 3.61,3.61 0 0 1 1,0.68 c 8.27,7 13.07,16.71 15.15,31.41 0.17,1.2 0.1,1.62 -1.17,1.83 -40,6.66 -95,15.75 -137,22.56 z"
     style="fill:#0f141b"
     id="path13969" />
  <path
     d="m 49.04,86.65 c 17,2.89 40.23,7.39 61.21,12 4.06,0.9 3.55,2 -0.28,1.19 C 88.96,95.53 66.2,91.18 45.96,87.66 Z"
     style="fill:#000000;fill-opacity:1;opacity:0.34195933"
     id="path14181" />
  <path
     d="m 10.39,105.95 c 20.82,2.85 44.21,6.76 61.57,10.13 3.37,0.65 3.15,1.81 -0.21,1.21 -17.27,-3.1 -40.48,-6.87 -62.06,-9.79 z"
     style="fill:#000000;fill-opacity:1;opacity:0.34195933"
     id="path14169" />
  <path
     d="m 136.61,156.16 c 0.09,0.58 0.23,1.48 0.35,2.28 0.19,1.28 -0.24,1.51 -1.77,1.15 -49.59,-11.68 -92,-20.84 -134,-29 -1.18,-0.23 -1.33,-0.67 -1.1,-1.75 2.32,-11.1 9.53,-24.82 14.78,-30.63 a 2,2 0 0 1 0.86,-0.62 c 16.66,-7.18 56.38,-20.13 69.76,-21.22 9.52,-0.78 41.78,5.53 63.9,12.74 l -0.58,2.07 c -22,-6.7 -53.74,-13 -63.17,-12.22 -13.41,1.03 -52.68,13.46 -69.08,20.58 -5.07,5.45 -12.29,18.94 -14.31,29 41.28,8.16 84.91,17.54 132.25,28.69 -0.08,-0.37 -0.14,-0.74 -0.2,-1.14 z"
     style="fill:#0f141b"
     id="path13971" />
  <path
     d="m 167.12,176.08 c -9.57,-1.64 -17.77,-3.25 -29.13,-6.19 -0.93,-0.24 -1.09,-0.52 -1.24,-1.36 -0.15,-0.84 -0.24,-1.45 -0.35,-2.14 -31.93,-8.31 -72.13,-17.31 -105.94,-23.89 -1.22,-0.24 -1.33,-0.55 -1.07,-1.57 0.41,-1.65 1.14,-4.55 1.43,-5.55 l 1.81,0.33 c -0.34,1.17 -0.94,3.76 -1.27,5.09 33.48,6.49 73.11,15.28 105.6,23.87 0.91,0.24 1.05,0.43 1.19,1.23 0.14,0.8 0.28,1.48 0.42,2.29 11.8,3.07 20,4.7 30,6.47 z"
     style="fill:#0f141b"
     id="path13973" />
  <path
     d="m 283.36,170.27 c 0.08,0.8 0.16,1.6 0.21,2.31 0.07,1 -0.13,1.27 -1.24,1.44 -10.77,1.68 -22.59,3.31 -32.65,4.57 l -1.22,-1.51 c 10.31,-1.29 22.14,-3 33.22,-4.77 0,-0.68 -0.1,-1.46 -0.17,-2.25 -0.1,-1 0,-1.3 1.17,-1.5 29.64,-5.23 82.39,-14.57 106.12,-18 -0.17,-1 -0.59,-3.22 -0.8,-4.3 l 1.79,-0.27 c 0.21,1.11 0.68,3.55 0.92,4.94 0.16,0.91 -0.06,1.2 -1,1.33 -24.35,3.52 -76.93,12.82 -106.35,18.01 z"
     style="fill:#0f141b"
     id="path13975" />
  <path
     d="m 136.2,449.91 c 7.23,3.62 14.37,4.88 19.24,3.09 13.3,-4.89 33.58,-24 33.93,-33.67 0.32,-8.82 -1.58,-21 -5.11,-31.2 a 4.68,4.68 0 0 1 0.94,-5.27 c 13.65,-15.16 27.08,-42.57 34.36,-61.53 1.31,-3.4 2.66,-5.06 6.19,-6.73 8,-3.76 22.11,-11.46 28.36,-19.56 l -0.47,3.72 c -6.82,7.72 -19.47,14.18 -27.07,17.77 -3.53,1.67 -4,2.54 -5.15,5.52 -7.25,19 -20.72,46.38 -34.94,61.85 -1.16,1.26 -1.14,2.18 -0.56,3.79 3.78,10.38 5.82,22.86 5.5,31.8 -0.42,11.65 -23.13,30.8 -35.44,35.32 -5.39,2 -13.84,0.47 -22.22,-4 z"
     style="fill:#0f141b"
     id="path13977" />
  <path
     d="m 122.45,442.56 c -6.76,-6.48 -10.79,-14.36 -10.13,-21.48 1.23,-13.27 9.81,-35.11 21,-41.53 5.8,-3.33 22.67,-5.17 33.12,-4.67 2.49,0.12 2.82,-0.29 3.34,-1.38 8.92,-18.69 12.94,-33.62 13.58,-48.78 0.3,-7 -0.58,-8.32 -4.79,-10.24 -9.87,-4.51 -24.15,-14.71 -30.46,-23.64 -11.57,-16.28 -15.78,-44.06 -14.15,-57.76 2.38,-19.86 24.51,-53.17 41.23,-65.42 l 2.36,0.63 c -18.27,13.06 -39.15,47.1 -41.3,65 -1.5,12.55 2.37,40.33 13.6,56.23 6.31,8.92 19.62,18.53 29.52,23.05 5.21,2.38 6.27,4.94 6,12.21 -0.65,15.66 -5.06,30.92 -14.13,49.49 -1,2.07 -2.14,2.48 -4.89,2.35 -10.29,-0.5 -26.37,1.46 -32,4.7 -11,6.31 -19,28.25 -20.08,39.88 -0.56,6 2.57,12.9 8.54,19 z"
     style="fill:#0f141b"
     id="path13979" />
  <path
     d="m 123.45,437.24 c -6.59,-6.92 -8.41,-13 -6.57,-15.38 2.12,-2.79 12,-2.41 24.21,6.9 11.41,8.69 15.84,18.06 13.11,21.65 -2,2.68 -7.46,2.83 -15.61,-1.62 l 1.7,-1.14 c 7.15,3.76 11.32,3.38 12.61,1.67 1.78,-2.33 -1.88,-10.68 -13.06,-19.19 -11.56,-8.79 -20.25,-8.88 -21.5,-7.25 -1,1.32 0.41,6.37 6,12.51 z"
     style="fill:#0f141b"
     id="path13981" />
  <path
     d="m 190.41,415.94 c -10,-25 -37.71,-39.31 -60.7,-32.08 l 3.54,-3.38 c 22,-6.09 47.83,9.33 57.08,29.59 z"
     style="fill:#0f141b"
     id="path13983" />
  <path
     d="m 187.6,397.08 c -7.64,-11.9 -22.92,-19.86 -38.19,-20.5 l 9.4,-1.05 c 11.26,1.29 21.23,8 27.42,15.6 z"
     style="fill:#0f141b"
     id="path13985" />
  <path
     d="m 197.63,367.47 c -0.68,-10.7 -12.89,-14.65 -20.37,-8.95 l 0.68,-2.22 c 8,-5 19.7,-0.59 20.93,9.44 z"
     style="fill:#0f141b"
     id="path13987" />
  <path
     d="m 204.29,356.2 c 0.13,-14.2 -14.91,-18.21 -23.39,-9.37 l 0.46,-2.33 c 8.95,-8.08 23.51,-3.54 24.32,9.26 z"
     style="fill:#0f141b"
     id="path13989" />
  <path
     d="m 157.85,434.91 a 138.23,138.23 0 0 0 7.22,-13.94 111.54,111.54 0 0 0 -13.07,7 l -0.39,-2.35 c 4.91,-2.6 8.23,-4.16 13.65,-6.45 2.22,-0.93 2.52,-0.86 1.62,1.43 a 139.76,139.76 0 0 1 -6.59,14.48 z"
     style="fill:#0f141b"
     id="path13991" />
  <path
     d="m 138.74,418.34 a 101.88,101.88 0 0 0 4.52,-14.5 100.84,100.84 0 0 0 -9.93,11.62 l -1.17,-2.12 a 90.91,90.91 0 0 1 11.49,-12.05 c 1.71,-1.54 2,-1.53 1.58,0.83 a 105,105 0 0 1 -3.91,15.72 z"
     style="fill:#0f141b"
     id="path13993" />
  <path
     d="m 255.81,306.28 c -3.36,-1.39 -4,-7.81 -1.88,-12.93 5.29,-12.61 14.72,-38.27 19.73,-52.49 1.82,-5.14 9.36,-9.42 14.75,-7.76 3.36,1 6.72,4.47 6.93,14.56 0.47,22.76 -12.12,41.81 -23.59,52.25 -6.65,6.05 -12.79,7.66 -15.94,6.37 z m 19.53,-64.77 c -5,14.6 -14.1,39.61 -19.74,52.58 -2.16,5 -0.95,9.84 1,10.65 2.17,0.89 7.22,-0.13 14,-6.26 11.32,-10.31 23.33,-29.4 23,-50.83 -0.15,-8 -2.43,-11.89 -5.66,-12.89 -4.57,-1.39 -11.16,2.54 -12.6,6.75 z"
     style="fill:#0f141b"
     id="path13995" />
  <path
     d="m 290.56,269.29 c 0.89,-10.23 -2.62,-17.25 -5.67,-18.37 -3.05,-1.12 -9.73,0.75 -15.49,4.73 l 0.69,-2.29 c 5.06,-3.24 11.65,-5.35 15.44,-3.95 3.34,1.24 6.62,7.23 6.67,16.1 z"
     style="fill:#0f141b"
     id="path13997" />
  <path
     d="m 270.01,300.27 c -4.13,1.47 -8.22,1.71 -10.37,0.63 -2.15,-1.08 -3.49,-5.2 -3.62,-10.52 l 1.52,-2.85 c -0.31,6.69 1.42,11.22 2.9,12 1.83,0.91 5.9,1.12 11.9,-1.57 z"
     style="fill:#0f141b"
     id="path13999" />
  <path
     d="m 274.35,240.86 c -2.89,-23.65 -18.82,-57.91 -33.31,-69.91 l 2.58,-0.36 c 14,12.12 29.66,44.23 32.73,67.73 z"
     style="fill:#0f141b"
     id="path14001" />
  <path
     d="m 150.57,292.19 c -0.56,3.09 -1.47,4.69 -3.32,5.82 -2,1.25 -4.9,1 -9.21,-1.06 -21.3,-10.18 -29,-35.85 -21.11,-60.25 2.2,-6.76 5.53,-10.36 9.44,-11.32 2.58,-0.62 6.64,0.63 9.61,3.51 l -0.46,2 c -3.31,-3.55 -7,-4.25 -8.72,-3.83 -3.18,0.77 -6.09,4 -8.12,10.22 -7.72,23.8 0.28,48.5 20.28,58 4.32,2.07 6.35,1.88 7.5,1.18 1.56,-1 2.42,-2.88 2.64,-6.18 z"
     style="fill:#0f141b"
     id="path14003" />
  <path
     d="m 115.7,245.08 c 2,-4 5.39,-7.39 8.69,-7.67 3,-0.22 7.65,2.45 10.64,6.18 v 2.38 c -3.23,-4.48 -8,-7.13 -10.52,-6.93 -3.11,0.26 -7.25,4.62 -9.25,11.19 z"
     style="fill:#0f141b"
     id="path14005" />
  <path
     d="m 145.58,284.49 c -0.33,5.21 -1.84,8.21 -4.22,9.34 -1.68,0.8 -4.55,0.71 -7.75,-0.31 l -3.26,-2.72 c 4.55,2.29 8.64,2.36 10.36,1.54 2,-0.95 3.4,-4.76 3.51,-10.26 z"
     style="fill:#0f141b"
     id="path14007" />
  <path
     d="m 217.35,197.34 a 151.18,151.18 0 0 1 -9.67,15.11 c -2.53,3.35 -4.28,3.55 -6.53,0.31 a 79.62,79.62 0 0 1 -7.64,-15 l 1.28,-2 a 79.94,79.94 0 0 0 7.71,16 c 1.5,2.2 2.14,2 4,-0.46 a 142,142 0 0 0 9.68,-15.7 z"
     style="fill:#0f141b"
     id="path14009" />
  <path
     d="m 217.71,192.74 a 150.63,150.63 0 0 0 6.66,-14 c -9.89,-3.85 -25.81,-4.28 -34.93,-2 a 100.33,100.33 0 0 0 4,15.25 l -1.74,0.93 a 90.16,90.16 0 0 1 -4.25,-16.39 c -0.15,-1.07 0,-1.27 1,-1.55 9.88,-2.73 26,-2.42 37.1,2 1.23,0.49 1.43,0.86 0.87,2.22 a 152.48,152.48 0 0 1 -7.15,14.65 z"
     style="fill:#0f141b"
     id="path14011" />
  <path
     d="m 209.54,180.73 c -2.36,0 -2.38,-1 0,-1.09 a 106.48,106.48 0 0 0 15.6,-2.08 l 0.47,1.37 a 85.15,85.15 0 0 1 -16.07,1.8 z"
     style="fill:#0f141b"
     id="path14013" />
  <path
     d="m 189.33,175.61 a 89.65,89.65 0 0 0 14.42,3.67 c 2.72,0.45 2.54,1.37 -0.14,1.08 a 70.13,70.13 0 0 1 -15.19,-3.53 z"
     style="fill:#0f141b"
     id="path14015" />
  <path
     d="m 206.96,182.95 c -0.87,8.41 -1.76,18.86 -2.18,27 -0.14,2.73 -1,2.72 -1,0 0.14,-8.09 1,-18.71 2,-27 0.35,-2.87 1.52,-2.87 1.18,0 z"
     style="fill:#0f141b"
     id="path14017" />
  <path
     d="m 196.06,194.18 c 1.79,5 3.56,6.62 4.42,6.35 0.86,-0.27 1.07,-2.92 -0.77,-8.78 -1.93,-6.15 -3.81,-7.88 -4.55,-7.67 -0.74,0.21 -1,3.06 0,7.07 l -1.39,0.62 c -1.29,-5 -0.63,-8.54 1.2,-8.9 1.83,-0.36 4.35,2.48 6.23,8.45 2.18,6.94 1.47,9.8 -0.33,10.37 -1.8,0.57 -4,-1.37 -5.84,-6.1 z"
     style="fill:#0f141b"
     id="path14019" />
  <path
     d="m 216.71,192 c 1.89,-4.25 2,-6.73 1.59,-6.94 -0.61,-0.3 -2.32,0.54 -5.55,7.14 -2.68,5.48 -2.77,8.45 -2.23,8.72 0.32,0.15 1.79,-0.24 4.94,-6.35 l 1,1.24 c -3.14,5.82 -5.34,6.78 -6.48,6.22 -1.64,-0.8 -1.17,-5.25 1.43,-10.58 3.29,-6.71 5.92,-8.17 7.34,-7.55 1.61,0.7 1.35,4.09 -0.79,8.89 z"
     style="fill:#0f141b"
     id="path14021" />
  <path
     d="m 200.57,192.01 a 15.61,15.61 0 0 0 -8.55,12.57 c -0.62,7 3.4,13.77 11.93,14 8,0.19 14,-5 14.32,-13.76 0.2,-5 -2.21,-10 -6.55,-12.27 l 0.59,-1.35 a 15,15 0 0 1 7.75,13.69 c -0.38,9.53 -6.9,15.73 -16.16,15.55 -9.26,-0.18 -14.48,-7.15 -13.7,-16 a 17.33,17.33 0 0 1 9.92,-13.83 z"
     style="fill:#0f141b"
     id="path14023" />
  <path
     d="m 213.28,189.58 a 19,19 0 0 1 12.78,20.4 c -1.34,13.3 -12.71,19.57 -22.85,19.26 -12.79,-0.36 -21,-9 -21.21,-19.43 -0.24,-10.09 7,-18.51 17.55,-20.9 l 0.49,1.47 c -9.75,2.17 -16.4,9.62 -16.17,19.42 0.18,7.76 6.17,17.19 19.37,17.57 11.09,0.33 19.95,-7 21,-17.65 0.85,-8.41 -3.35,-15.94 -11.75,-18.79 z"
     style="fill:#0f141b"
     id="path14025" />
  <path
     d="m 181.31,169.53 c 1.82,2.78 4.12,6.34 6.4,10.14 1.36,2.28 1.16,2.69 -1.11,1.43 a 87.2,87.2 0 0 0 -12.57,-5.9 c -1.2,-0.43 -1.29,-0.83 -0.19,-1.78 a 66.09,66.09 0 0 1 5.61,-4.39 c 0.81,-0.55 1.18,-0.55 1.86,0.5 z m -5.7,4.56 a 75.74,75.74 0 0 1 10,4.88 c -2.07,-3.23 -3.64,-5.62 -5.52,-8.28 a 42.13,42.13 0 0 0 -4.48,3.39 z"
     style="fill:#0f141b"
     id="path14027" />
  <path
     d="m 163.86,184.58 c 4.16,5.06 9.66,9.5 10.84,9.46 1.59,-0.1 8.41,-2.74 13.62,-5.22 2,-0.94 2.25,-0.66 1.12,1.3 -5.42,9.39 -15.91,15 -20.6,14.61 -1.94,-0.18 -6.43,-3.8 -12.54,-10.44 -0.72,-0.78 -0.75,-1.08 -0.07,-1.92 a 167.56,167.56 0 0 1 11.63,-12.93 c 2.14,-2.11 2.91,-1.25 0.8,0.89 a 119.89,119.89 0 0 0 -11,12.92 c 6,6.56 9.89,9.78 11.4,9.91 3.8,0.34 13.46,-4.78 18.27,-12.33 -4.68,2.12 -10.65,4.62 -12.51,4.75 -1.86,0.13 -8.68,-5.66 -12,-9.8 z"
     style="fill:#0f141b"
     id="path14029" />
  <path
     d="m 162.64,199.55 a 89.94,89.94 0 0 1 6.39,-8.54 l 1,0.95 a 93.87,93.87 0 0 0 -6.22,8.63 z"
     style="fill:#0f141b"
     id="path14031" />
  <path
     d="m 177.22,201.2 c -0.34,-2.55 -0.5,-5.12 -0.6,-6.88 l 1.38,-0.38 c 0.09,1.64 0.3,3.95 0.62,6.4 z"
     style="fill:#0f141b"
     id="path14033" />
  <path
     d="m 180.73,192.81 a 21,21 0 0 0 1.63,-4.27 c 1.71,-6.18 0.46,-9 -0.56,-9.31 -1.2,-0.34 -3.88,1.23 -5.59,7.41 -0.95,3.43 -1,6.32 -0.38,7.89 l -1.46,0.24 c -0.74,-1.82 -0.7,-4.69 0.36,-8.53 1.94,-7 5.21,-8.79 7.37,-8.19 2.46,0.68 3.47,4.54 1.71,10.93 a 26.38,26.38 0 0 1 -1,3 z"
     style="fill:#0f141b"
     id="path14035" />
  <path
     d="m 225.19,181.84 a 62.06,62.06 0 0 1 11.26,-10.4 c 0.8,-0.58 1,-0.59 1.83,0 a 33.24,33.24 0 0 1 5.56,5.24 c 0.75,0.88 0.74,1.29 -0.59,1.57 a 137.29,137.29 0 0 0 -17.13,4.8 c -2.16,0.78 -2.06,0.21 -0.93,-1.21 z m 12.19,-9 a 86,86 0 0 0 -9.75,8.22 130,130 0 0 1 14.21,-4.18 24.06,24.06 0 0 0 -4.46,-4 z"
     style="fill:#0f141b"
     id="path14037" />
  <path
     d="m 237.82,199.08 c -2.71,0 -8.44,-3.11 -12.82,-6.58 2.7,5.53 6.93,12.1 9.55,13.23 3.72,1.61 14.28,-0.23 22.24,-6.39 a 126.4,126.4 0 0 0 -10.7,-16.3 c -2,-2.73 -1.21,-3.4 1,-0.75 a 116.38,116.38 0 0 1 11.42,16.6 c 0.4,0.72 0.35,1 -0.26,1.46 -7.8,6 -19.61,8.88 -24.27,6.86 -3.31,-1.43 -8.68,-9.86 -11.15,-16.39 -0.81,-2.14 -0.52,-2.31 1.38,-0.74 4.67,3.86 11.31,7.45 13.67,7.45 2.53,0 8,-3.64 13.1,-9 l 1,1.37 c -5.33,5.39 -11.33,9.18 -14.16,9.18 z"
     style="fill:#0f141b"
     id="path14039" />
  <path
     d="m 248.53,204.87 a 100.36,100.36 0 0 0 -4.94,-9 l 1.15,-0.74 a 86.7,86.7 0 0 1 5.22,9.15 z"
     style="fill:#0f141b"
     id="path14041" />
  <path
     d="m 229.86,194.95 a 19.23,19.23 0 0 1 -0.71,-3.18 c -0.94,-6.66 1.34,-10.68 3.66,-11 2.32,-0.32 5.33,2.21 6.39,9.41 0.51,3.41 0.07,6.27 -1,8.08 l -1.44,-0.18 c 0.9,-1.4 1.46,-4.14 0.92,-7.77 -0.94,-6.33 -3.35,-8.53 -4.7,-8.34 -1.35,0.19 -3.17,3.55 -2.32,9.58 a 15.58,15.58 0 0 0 1.3,4.53 z"
     style="fill:#0f141b"
     id="path14043" />
  <path
     d="m 147.31,202.73 a 24.74,24.74 0 0 0 8.94,7 c 2.1,1 11.53,1.2 17.56,-0.44 -5.89,0 -11.25,-1.52 -14.62,-4.07 a 39.92,39.92 0 0 1 -8,-8.81 l 0.93,-1.32 a 40,40 0 0 0 8.14,8.79 c 3.47,2.63 9.5,4.36 16.5,4.14 3.37,-0.1 3.27,0.4 0.18,1.75 -6,2.62 -18.39,2.87 -21.4,1.45 a 22.89,22.89 0 0 1 -9,-7.13 z"
     style="fill:#0f141b"
     id="path14045" />
  <path
     d="m 192.25,257.17 c -13.13,-1.09 -33.86,-10.7 -38.32,-14.71 -2,-1.83 -1.07,-19 -0.25,-27.69 0.33,-3.57 0.88,-3.18 2,-0.17 a 86.88,86.88 0 0 0 6.2,13.69 238.38,238.38 0 0 0 25,6.09 c 0.88,0.16 1.05,0.26 1.29,1.12 1.46,5.25 3.63,14 5.15,20.41 0.23,1.09 0.06,1.35 -1.07,1.26 z m -37.29,-39.73 c -0.41,5.83 -1.24,22.41 0.27,23.79 3.61,3.29 24.17,13 36.22,14.23 -1.53,-6.44 -3.49,-14.3 -4.94,-19.45 -8.07,-1.5 -16.72,-3.49 -25.05,-5.88 a 1.91,1.91 0 0 1 -1.37,-1.13 82.82,82.82 0 0 1 -5.13,-11.56 z"
     style="fill:#0f141b"
     id="path14047" />
  <path
     d="m 267.27,210.5 c -2.49,2.07 -8,4.88 -10.6,5.22 -5.06,0.66 -14.65,0.08 -19.83,-1.7 -3.25,-1.11 -2.52,-1.48 0.09,-1.77 a 49.69,49.69 0 0 0 15.83,-4.5 33.65,33.65 0 0 0 9.27,-9 l 0.73,1.59 a 33.55,33.55 0 0 1 -9.3,8.94 c -2.48,1.36 -8.45,3.2 -14.15,4 a 55.48,55.48 0 0 0 17.15,0.84 c 2.53,-0.33 7.63,-2.82 10.28,-5 z"
     style="fill:#0f141b"
     id="path14049" />
  <path
     d="m 212.43,255.62 c 1.56,-5.64 3.77,-13.75 5.37,-18.62 0.22,-0.67 0.43,-0.88 1.27,-1 10.17,-1.49 22,-3.66 31.8,-5.95 a 44.92,44.92 0 0 0 6,-9.52 c 1.34,-2.8 1.84,-2.67 2.2,0.47 1,8.93 -1.72,24.19 -4.46,26.41 -4.15,3.35 -28,10.59 -41.18,9.52 -1.2,-0.11 -1.24,-0.45 -1,-1.31 z m 1.75,-0.3 c 11.67,1 35.22,-6 39.25,-9.36 2.15,-1.81 4.7,-15.66 4.19,-23.37 a 43,43 0 0 1 -5.22,8.58 1.52,1.52 0 0 1 -1.07,0.68 c -9.9,2.21 -21.76,4.3 -31.93,5.79 -1.62,4.84 -3.63,12 -5.22,17.68 z"
     style="fill:#0f141b"
     id="path14051" />
  <path
     d="m 200.45,260.42 c 0.55,-9.93 1,-20.57 1.35,-28.21 0.12,-2.68 1.35,-2.62 1.27,0.06 -0.26,8.34 -0.87,18.35 -1.64,28.21 -0.29,3.84 -1.19,3.8 -0.98,-0.06 z"
     style="fill:#0f141b"
     id="path14053" />
  <path
     d="m 200.81,267.08 c -14.34,0 -47.3,-10.47 -61.86,-20 -2.37,-1.54 -1.77,-2.56 0.63,-1.07 14.47,9 47.32,19.28 61.23,19.28 20.28,0 56.23,-9.33 66.78,-17.27 2.06,-1.55 2.66,-0.61 0.68,1 -10.09,8.44 -47.01,18.06 -67.46,18.06 z"
     style="fill:#0f141b"
     id="path14055" />
  <path
     d="m 201.56,266.28 a 197.68,197.68 0 0 0 -0.07,29 c 0.27,3.65 -0.8,3.69 -1.21,0.07 a 161.6,161.6 0 0 1 -0.21,-29.18 z"
     style="fill:#0f141b"
     id="path14057" />
  <path
     d="m 101.89,236.15 c 0.93,4.09 2.15,10.23 3,14.69 a 33.14,33.14 0 0 1 10.28,-0.31 l -0.19,1.82 a 31.71,31.71 0 0 0 -10.33,0.37 c -1.09,0.2 -1.31,0 -1.52,-1 -0.9,-4.69 -1.94,-10.55 -2.88,-14.42 z"
     style="fill:#0f141b"
     id="path14059" />
  <path
     d="m 98.96,265.44 a 27.17,27.17 0 0 0 4.69,-8.49 c 0.81,-2.46 1.78,-2.18 1.16,0.33 a 22,22 0 0 1 -5,8.88 c -2.16,2.5 -2.99,1.92 -0.85,-0.72 z"
     style="fill:#0f141b"
     id="path14061" />
  <path
     d="m 96.54,281.88 c -1.85,-1.94 -1.07,-2.8 0.83,-0.9 2.73,2.72 8.33,3.28 13,1.14 2.94,-1.32 3.36,-0.29 0.46,1.13 -4.87,2.43 -10.8,2.28 -14.29,-1.37 z"
     style="fill:#0f141b"
     id="path14063" />
  <path
     d="m 71.21,224.78 c -8.71,16.94 -12.49,43.61 -8.48,61.06 2.08,9.05 6.8,13 18.72,14 13.5,1.15 36.66,-2.75 48.36,-9.33 l 1.34,1.35 c -12.37,7.53 -36.7,11.21 -49.91,10.07 -12.43,-1.06 -18.06,-4.91 -20.53,-15.66 -4.28,-18.63 0.42,-47.66 10.39,-64.93 z"
     style="fill:#0f141b"
     id="path14065" />
  <path
     d="m 118.12,221.32 c -1.57,5.51 -13,15.11 -19.63,17.84 -7.49,3.07 -25.7,-2.9 -27.9,-12.54 -1.64,-7.13 1.52,-21.44 6.72,-28.8 l -0.11,3.63 c -3.85,7.47 -6.15,18.39 -4.67,24.85 1.84,8.06 18.19,13.95 25.32,11 5.74,-2.35 15,-10 17.81,-15 z"
     style="fill:#0f141b"
     id="path14067" />
  <path
     d="m 89.55,221.31 c -9.08,-2.55 -15.08,-16.26 -12.83,-22.45 1.69,-4.65 13.67,-6.57 23.66,-1.82 0.71,0.33 0.87,0.51 0.5,1.38 -0.59,1.38 -1.36,3.08 -2,4.45 -0.3,0.68 -0.72,0.82 -1.48,0.51 -6.86,-2.85 -11,-1.55 -11.84,0.16 -1,2 1.47,6.52 7.7,9.62 0.63,0.32 0.88,0.62 0.5,1.43 -0.9,2 -2,4.19 -2.88,6.05 -0.31,0.74 -0.61,0.87 -1.33,0.67 z M 78.38,199.46 c -1.81,5 3.53,17.31 11.29,20 0.85,-1.82 1.46,-3.17 2.34,-5.09 -7,-3.45 -9.35,-8.93 -8,-11.61 1.5,-3.06 7.59,-3.72 13.7,-1.19 0.55,-1.26 0.81,-2 1.27,-3.12 -10.42,-4.75 -19.64,-1.64 -20.6,1.01 z"
     style="fill:#0f141b"
     id="path14069" />
  <path
     d="m 84.47,204.08 c 1.52,-2.06 6.25,-2.59 12.27,0.36 0.25,-0.58 0.62,-1.45 0.84,-1.94 l 1.34,0.37 c -0.29,0.62 -1,2.15 -1.33,3 -0.15,0.35 -0.39,0.48 -0.73,0.28 -5.44,-3.21 -11.83,-3.12 -11.82,0.21 z"
     style="fill:#0f141b"
     id="path14071" />
  <path
     d="m 97.59,205.88 c -1.5,3.32 -2.54,5.82 -3.79,8.71 l -1.19,-0.74 c 1.25,-2.89 2.39,-5.6 3.89,-8.92 z"
     style="fill:#0f141b"
     id="path14073" />
  <path
     d="m 93.96,221.64 c 0.83,-1.63 1.83,-3.56 2.72,-5.27 0.39,-0.75 0.6,-0.84 1.57,-0.57 5.12,1.43 9,0.51 9.7,-0.86 0.7,-1.37 -0.35,-4.37 -5,-7.59 -0.77,-0.54 -0.89,-0.94 -0.43,-1.69 0.93,-1.52 1.92,-3 2.68,-4.09 0.55,-0.76 0.85,-0.87 1.81,-0.26 9.1,5.82 12.8,16 11,20.21 -1.73,4 -14.79,6.22 -23.53,1.81 -0.87,-0.46 -0.97,-0.75 -0.52,-1.69 z m 1.71,0.38 c 7.84,4 19.33,1.85 20.71,-1.25 1.45,-3.27 -1.63,-12.3 -10.1,-17.71 a 35.08,35.08 0 0 0 -2.09,3.15 c 5.14,3.45 6.3,7.58 5.32,9.65 -0.98,2.07 -5.82,3.28 -11.47,1.55 -0.87,1.73 -1.51,3 -2.34,4.61 z"
     style="fill:#0f141b"
     id="path14075" />
  <path
     d="m 103.61,206.71 c -0.28,0.47 -0.57,1 -0.86,1.47 2.62,1.85 5.27,4.77 5.54,7.71 l -1.27,0.81 c 0,-2.67 -2.33,-5.36 -5.16,-7.29 a 1.08,1.08 0 0 1 -0.55,-1.41 1,1 0 0 1 0.15,-0.24 c 0.36,-0.68 0.84,-1.59 1.14,-2.1 z"
     style="fill:#0f141b"
     id="path14077" />
  <path
     d="m 96.63,216.37 c 1.81,-3.39 3.39,-6.26 4.83,-8.61 l 1.1,1 a 87.08,87.08 0 0 0 -4.35,8 z"
     style="fill:#0f141b"
     id="path14079" />
  <path
     d="m 89.25,221.81 c 4.81,-6.41 11,-14.21 16,-20.24 l -0.75,3.21 c -4.14,4.87 -9.45,11.86 -15.54,19.3 z"
     style="fill:#0f141b"
     id="path14081" />
  <path
     d="m 81.96,236.43 c 2.77,-6.16 4.79,-10.46 7.33,-16.13 l 1.64,0.34 c -2.47,5.41 -4.94,10 -7.73,16.27 z"
     style="fill:#0f141b"
     id="path14083" />
  <path
     d="m 86.25,228.73 c 3.69,-4.44 7,-8.22 10.77,-12.85 l -0.58,2.57 c -3.19,4.28 -7.68,9.25 -11.92,14 z"
     style="fill:#0f141b"
     id="path14085" />
  <path
     d="m 95.19,222.76 a 135.39,135.39 0 0 1 -12.12,14.4 l -1,-1 a 137.83,137.83 0 0 0 11.89,-14.52 z"
     style="fill:#0f141b"
     id="path14087" />
  <path
     d="m 66.49,233.47 c 1,7.62 6.81,13.22 15.21,14.83 7.66,1.46 17.07,-1.08 20.1,-8.45 l 0.49,2.41 c -3.85,6.94 -13.59,9.1 -20.88,7.71 -8.39,-1.61 -14.19,-6.41 -15.87,-13.61 z"
     style="fill:#0f141b"
     id="path14089" />
  <path
     d="m 64.05,241.72 a 21.34,21.34 0 0 0 16.36,13.41 c 8.14,1.42 18.37,-1.82 22,-11.92 l 0.57,2.6 c -4.18,9.44 -14.81,12.45 -22.94,11 A 22.29,22.29 0 0 1 63.31,243.92 Z"
     style="fill:#0f141b"
     id="path14091" />
  <path
     d="m 302.14,252.15 c -2.93,0 -5.27,0.06 -7.87,0.17 l -0.11,1.84 c 2.73,-0.12 5.13,-0.19 8.07,-0.18 z"
     style="fill:#0f141b"
     id="path14093" />
  <path
     d="m 303.19,233.08 a 19.1,19.1 0 0 1 0.42,7.22 c -2,14.25 0.32,24.92 7.18,33.5 1.88,2.35 1,3 -0.91,0.84 -7.44,-8.5 -10.14,-20 -8.1,-34.59 a 18.68,18.68 0 0 0 -0.67,-8 z"
     style="fill:#0f141b"
     id="path14095" />
  <path
     d="m 296.78,284.83 c -2.19,-1.21 -1.83,-2 0.46,-1 4.88,2.16 9.57,2.41 11.83,1.76 2.26,-0.65 2.64,0.34 0.43,1.18 -2.83,1.09 -7.91,0.7 -12.72,-1.94 z"
     style="fill:#0f141b"
     id="path14097" />
  <path
     d="m 328.13,220.08 c 22.19,26.9 26.76,58.23 18.07,71.92 -10.78,17 -53.35,12.66 -70.71,2.85 l 1.28,-1.4 c 17.23,9.22 57.85,12.83 67.65,-2.61 7.9,-12.44 4.63,-41.65 -16.7,-68.39 z"
     style="fill:#0f141b"
     id="path14099" />
  <path
     d="m 334.96,230.99 c 0.34,5.92 -4.68,11.74 -14.14,14 -7,1.65 -14.18,0.58 -18.26,-4.11 l 0.28,-2 c 3.43,4.89 10.73,6 17.6,4.42 7.84,-1.86 14.67,-7.5 12.76,-14.84 z"
     style="fill:#0f141b"
     id="path14101" />
  <path
     d="m 338.41,236.64 c -1.42,8 -9,13.16 -16,14.84 -7,1.68 -15.81,0 -20.22,-5.54 l 0.15,-2.27 c 3.46,5.5 12.17,7.91 19.74,6.12 7.11,-1.69 14.34,-6.93 15.24,-15 z"
     style="fill:#0f141b"
     id="path14103" />
  <path
     d="m 286.43,221.57 c -3.73,-4.72 -1.14,-15 5.62,-19.48 0.63,-0.42 0.94,-0.39 1.6,0.06 1.13,0.77 2.66,1.87 4,2.9 0.76,0.57 0.81,1 0,1.59 -4.46,3.55 -5,7.45 -3.89,8.78 2.2,2.66 8.75,2.21 13.2,-1.34 0.74,-0.59 1,-0.6 1.81,0.1 1.48,1.27 3.15,2.75 4.54,4 0.85,0.75 0.77,1.17 0,1.73 -10.06,7.85 -21.94,7.91 -26.88,1.66 z m 6.59,-17.8 c -6.42,4.34 -7.8,13.35 -5.14,16.71 3.72,4.71 14,5.69 24,-1.5 -1.41,-1.24 -2.46,-2.17 -4,-3.5 -4.53,3.7 -12.46,4.63 -15.43,1 -1.74,-2.11 -0.79,-6.88 3.68,-10.6 z"
     style="fill:#0f141b"
     id="path14105" />
  <path
     d="m 297.96,205.34 c 0.53,0.52 1.08,1.1 1.6,1.66 0.52,0.56 0.57,1.21 -0.05,1.62 -4.1,2.72 -5.4,7 -4.44,8.65 l -1.65,-0.75 c -0.43,-2.29 1.05,-6.15 4.79,-8.88 -0.5,-0.48 -0.85,-0.87 -1.31,-1.39 z"
     style="fill:#0f141b"
     id="path14107" />
  <path
     d="m 299.6,207 c 2.49,2.43 5.22,5.3 7.6,7.92 l -1.16,0.8 c -2.22,-2.4 -4.81,-5.07 -7.26,-7.46 z"
     style="fill:#0f141b"
     id="path14109" />
  <path
     d="m 322.58,195.51 c 7.05,5.54 8.3,19.28 5.41,29.86 -1.92,7 -12.18,11.68 -18.1,11.12 -5.92,-0.56 -19,-9.33 -23.46,-14.92 l 3.66,1.27 c 5.38,5.17 15.13,11.24 20,11.71 6.09,0.58 14.46,-4.12 16,-9.79 2.56,-9.35 1.68,-17.83 -1.16,-23.57 z"
     style="fill:#0f141b"
     id="path14111" />
  <path
     d="m 305.51,204.38 c 2.07,1.5 6,4.34 7.74,5.8 l -0.8,1.16 c -1.69,-1.44 -5.47,-4.23 -7.52,-5.7 z"
     style="fill:#0f141b"
     id="path14113" />
  <path
     d="m 304.64,202.24 c 0.25,0.55 0.42,1 0.63,1.47 3.81,-3.77 10.71,-3.66 12.42,0.48 l -0.92,2.09 c -0.1,-4.28 -6.85,-5.29 -10.89,-1.06 -0.75,0.79 -1.25,0.55 -1.58,-0.23 -0.33,-0.78 -0.55,-1.34 -0.85,-2 z"
     style="fill:#0f141b"
     id="path14115" />
  <path
     d="m 306.32,215.28 c -2.2,-4.95 -4.59,-10.59 -7.09,-16.35 l 1.42,-0.46 c 2.46,5.64 4.55,11 6.77,16.05 z"
     style="fill:#0f141b"
     id="path14117" />
  <path
     d="m 308.49,215.08 c -1.44,-3.56 -2.92,-7 -4.19,-10.08 l 1.34,-0.42 c 1.35,3.27 3.22,7.94 4.77,12 z"
     style="fill:#0f141b"
     id="path14119" />
  <path
     d="m 314.67,221.68 c -1,-4 -1.95,-8.18 -2.64,-11 l 1.53,0.4 c 0.85,3.54 1.76,7.52 3.21,14.27 z"
     style="fill:#0f141b"
     id="path14121" />
  <path
     d="m 319.36,214.79 a 42.41,42.41 0 0 1 1.77,17.48 l -1.48,0.92 c 1.08,-5.51 -0.48,-13.46 -1.9,-18.05 z"
     style="fill:#0f141b"
     id="path14123" />
  <path
     d="m 319.76,232.99 a 107.68,107.68 0 0 0 -7.36,-13.46 l 1.36,-0.94 a 114.81,114.81 0 0 1 7.25,13.86 z"
     style="fill:#0f141b"
     id="path14125" />
  <path
     d="m 148.74,437.08 c -1.06,12.52 -20.8,19.76 -33.52,13.26 -2.37,-1.2 -1.82,-1.71 0.53,-2 3.52,-0.5 5.08,-2.3 5.73,-6.16 1.53,-9.21 5.56,-15.74 11,-17.75 l 2.23,1.16 c -5.54,1.41 -9.78,7.71 -11.34,17.07 -0.68,4.1 -3,6.4 -5.63,7 10.48,4.19 28.81,-1.59 29.3,-14.42 z"
     style="fill:#0f141b"
     id="path14127" />
  <path
     d="m 200.78,105.63 c -7.25,-15.57 -10,-37.8 -7.09,-54.24 2.42,-13.46 12.62,-36.73 16.83,-46.1 1.83,-4.08 1.12,-4.51 -2.82,-2 -10.8,7 -28.54,24.3 -39.81,38.72 -2.18,2.79 -2.48,4.49 -1.89,7.8 2.29,12.82 1.27,28.14 -4.86,34.18 l -1.83,-1 c 4.51,-4.55 7.73,-16.56 4.78,-33.07 a 9.83,9.83 0 0 1 2.23,-9 c 11.53,-14.75 29.48,-32 40.55,-39.13 5.31,-3.44 7.78,-1.82 5.16,4 -4.2,9.34 -14.09,32.5 -16.49,45.84 -2.88,16 0.41,39.33 7.95,54.69 z"
     style="fill:#0f141b"
     id="path14129" />
  <path
     d="m 167.96,87.67 a 67.36,67.36 0 0 0 3.13,-17 c 0.2,-3.19 1.19,-3.19 1.21,0 a 60.61,60.61 0 0 1 -2.76,17.88 z"
     style="fill:#0f141b"
     id="path14131" />
  <path
     d="M 181.11,77.31 A 144.4,144.4 0 0 1 179.8,58.84 c -0.07,-2.8 1,-2.83 1.09,0 0.31,7 0.85,12.8 1.46,18.35 0.37,3.31 -0.75,3.44 -1.24,0.12 z"
     style="fill:#0f141b"
     id="path14133" />
  <path
     d="m 186.23,32.44 c 4.06,-5.73 8.27,-11.21 12.92,-16.86 1.76,-2.13 2.45,-1.61 0.79,0.59 -4.37,5.76 -8.47,11.31 -12.74,17.06 -1.91,2.57 -2.88,1.91 -0.97,-0.79 z"
     style="fill:#0f141b"
     id="path14135" />
  <path
     d="m 260.19,86.48 c -3.06,-8.4 -1.23,-22.69 1.93,-33.17 1.41,-4.61 1,-5.71 -0.66,-8.1 -6.41,-9.46 -23.1,-29.08 -33.83,-40.57 -3.23,-3.45 -4.51,-2.66 -2.55,1.33 4.16,8.44 9.29,28.74 10.13,44.79 0.81,15.4 -6.45,41.43 -15.39,54.44 l -3.34,1.42 c 9,-11.92 17.69,-40.19 16.87,-55.78 -0.84,-15.92 -5.75,-36 -9.76,-44.21 -3.13,-6.38 1,-7.72 5.32,-3.09 10.76,11.54 28.05,31.74 34.11,40.61 2.06,3 2.4,4.93 0.95,9.68 -3.2,10.47 -4.74,24 -1.91,31.86 z"
     style="fill:#0f141b"
     id="path14137" />
  <path
     d="m 247.42,40.29 c -2.34,-5 -3.77,-8.1 -5.44,-11.47 -1,-2.09 -0.23,-2.5 0.89,-0.45 1.81,3.3 3.41,6.4 5.63,11.39 1.17,2.63 0.11,3.06 -1.08,0.53 z"
     style="fill:#0f141b"
     id="path14139" />
  <path
     d="m 243.96,93.52 c 0.44,-6.68 1.05,-14.64 1.57,-20.28 0.43,-4.56 1.51,-4.48 1.23,0.09 -0.39,6.16 -0.79,13.59 -1,19.48 z"
     style="fill:#0f141b"
     id="path14141" />
  <path
     d="m 159.13,452.44 a 8.48,8.48 0 0 0 2.3,-5.47 3,3 0 0 1 1,-2.57 55.12,55.12 0 0 0 10.81,-15.38 c -4.43,2.27 -8,4.44 -13,7.53 -1.52,0.94 -2.12,0.7 -3,-0.59 a 52.64,52.64 0 0 0 -6.46,-7.37 c -1,-0.93 -1.12,-1.41 -0.41,-2.91 a 112.29,112.29 0 0 0 6.59,-17.84 111,111 0 0 0 -15.54,11.38 c -1.19,1 -1.58,1 -3,0.23 a 53.38,53.38 0 0 0 -5.93,-2.91 c -1.48,-0.61 -1.72,-1 -1.53,-2.61 0.53,-4.44 1.11,-8.44 2.17,-13.66 a 68.94,68.94 0 0 0 -9.61,12.55 2.55,2.55 0 0 1 -2.6,1.44 11.1,11.1 0 0 0 -7,2.52 l 0.84,-4.28 a 14.32,14.32 0 0 1 6.1,-1.42 77.79,77.79 0 0 1 12.49,-14.84 c 3.3,-3.14 3.92,-2.91 3.11,1.42 -1.2,6.41 -1.76,10.43 -2.35,16.18 a 49.24,49.24 0 0 1 5.64,2.79 94.43,94.43 0 0 1 17.46,-12 c 3.55,-1.9 3.91,-1.55 2.84,2.46 -2.2,8.25 -3.82,13.43 -6.72,19.63 a 49.63,49.63 0 0 1 5.91,6.72 c 5.84,-3.43 9.34,-5.2 14.88,-7.91 3.6,-1.76 4.24,-1.64 2.5,2.61 a 57.26,57.26 0 0 1 -12,18.6 10.08,10.08 0 0 1 -0.34,2.89 z"
     style="fill:#0f141b"
     id="path14143" />
  <path
     d="m 230.37,202.82 c 0.75,-2.14 1.55,-4.1 2.47,-6.23 l 1.24,0.62 a 64.67,64.67 0 0 0 -2.61,7 z"
     style="fill:#0f141b"
     id="path14145" />
  <path
     d="m 314.2,210.63 c 1.76,1.45 2.95,2.45 4.43,3.45 6.05,-3.59 9.13,-12.18 2.91,-17.17 -4.91,-3.94 -14,-2.76 -20.11,1.94 1.08,1 1.7,1.55 2.77,2.58 3.87,-3.56 10.13,-4.14 12.8,-1.58 2.52,2.43 2.07,7.23 -2.8,10.78 z m 3.48,4.87 c -1.55,-1.14 -3.47,-2.68 -5.23,-4.16 -0.63,-0.53 -0.55,-1 0.18,-1.56 4.43,-3.28 4.88,-6.91 3.07,-8.64 -2,-1.89 -7.22,-1.51 -10.81,1.8 a 1,1 0 0 1 -1.41,0.13 1,1 0 0 1 -0.17,-0.18 c -1.14,-1.07 -2.56,-2.34 -3.68,-3.41 -0.6,-0.58 -0.64,-1.09 0.09,-1.68 6.34,-5.12 17.1,-6.92 22.86,-2.29 7,5.58 4.72,15.73 -3.27,20.11 a 1.25,1.25 0 0 1 -1.63,-0.12 z"
     style="fill:#0f141b"
     id="path14147" />
  <path
     d="m 181.21,187.13 c -0.61,2.64 -1.64,3.62 -2.33,3.49 -0.69,-0.13 -1.33,-1.47 -0.69,-4.2 0.59,-2.57 1.59,-3.74 2.45,-3.56 0.69,0.15 1.17,1.67 0.57,4.27 z"
     style="fill:#0f141b"
     id="path14149" />
  <path
     d="m 232.36,190.02 c 0.3,3.1 1.26,4.19 2,4.16 0.74,-0.03 1.34,-1.68 1.06,-4.47 -0.25,-2.62 -1.07,-4.13 -2,-4.06 -0.63,0.05 -1.32,1.72 -1.06,4.37 z"
     style="fill:#0f141b"
     id="path14151" />
  <path
     d="m 107.47,124.57 c -8,-1.79 -15,-3.28 -23.83,-5 -3.54,-0.7 -3.35,-1.84 0.2,-1.2 8.65,1.55 15.84,3.12 23.9,5 3.45,0.81 2.93,1.91 -0.27,1.2 z"
     style="fill:#000000;fill-opacity:1;opacity:0.34195933"
     id="path14167" />
  <path
     d="m 180.19,193.08 c 0.23,-0.9 -0.12,-1.87 -0.83,-2.05 -1.3,-0.33 -2.32,1.61 -1.54,2.89 l -0.93,0.32 c -1.07,-1.84 0.37,-4.51 2.65,-4 a 2.23,2.23 0 0 1 1.63,2.42 z"
     style="fill:none"
     id="path14183" />
  <path
     d="m 176.24,183.88 c 0.77,0.52 1.79,1.17 2.57,1.58 l -0.28,1.09 a 26.43,26.43 0 0 1 -2.62,-1.41 z"
     style="fill:none"
     id="path14185" />
  <path
     d="m 175.29,187.19 c 1,-0.19 2,-0.41 3.22,-0.69 l -0.18,1.2 c -1.05,0.33 -2.38,0.63 -3.37,0.83 z"
     style="fill:none"
     id="path14187" />
  <path
     d="m 183.65,186.41 a 26.7,26.7 0 0 1 -2.81,0.38 l 0.14,-1.12 c 0.89,-0.15 1.85,-0.33 2.83,-0.56 z"
     style="fill:none"
     id="path14189" />
  <path
     d="m 182.96,189.63 a 20.71,20.71 0 0 1 -2.44,-1.73 l 0.23,-1.08 a 29.16,29.16 0 0 0 2.47,1.62 z"
     style="fill:none"
     id="path14191" />
  <path
     d="m 235.33,197.48 c 1.13,-1.05 0.31,-3 -0.8,-2.88 a 1.61,1.61 0 0 0 -1.11,2 v 0 l -1,-0.43 a 2.3,2.3 0 0 1 2,-2.36 c 2.2,-0.17 3.12,2.42 1.86,4 z"
     style="fill:none"
     id="path14193" />
  <path
     d="m 234.83,188.48 c 1,-0.38 2.14,-0.89 3,-1.29 l 0.36,1.2 a 24.84,24.84 0 0 1 -3.11,1.18 z"
     style="fill:none"
     id="path14195" />
  <path
     d="m 238.63,191.83 c -1.24,-0.33 -2.26,-0.67 -3.51,-1.07 L 235,189.6 c 1.4,0.4 2.32,0.66 3.5,0.93 z"
     style="fill:none"
     id="path14197" />
  <path
     d="m 232.69,189.94 -3,-0.86 v -1.29 c 0.93,0.3 2.1,0.67 2.92,1 z"
     style="fill:none"
     id="path14199" />
  <path
     d="m 232.78,190.95 a 28.44,28.44 0 0 1 -2.74,1.56 l -0.18,-1.29 c 0.89,-0.42 1.87,-0.93 2.77,-1.46 z"
     style="fill:none"
     id="path14201" />
  <path
     d="m 206.72,16.08 a 4.34,4.34 0 0 0 -4.7,-2.55 c -1,0.07 -1.14,0 -1.45,-0.85 a 3.66,3.66 0 0 0 -3.42,-2.29 l 1.29,-1.24 a 4.54,4.54 0 0 1 3.4,3.06 5.09,5.09 0 0 1 5.51,2.35 z"
     style="fill:#0f141b"
     id="path14203" />
  <path
     d="m 236.85,13.59 a 2.19,2.19 0 0 0 -1.89,1.49 c -0.39,0.92 -0.64,1.13 -1.82,0.93 a 4.63,4.63 0 0 0 -4.67,1.74 l -0.42,-1.52 a 5.56,5.56 0 0 1 5.59,-1.48 3.42,3.42 0 0 1 2.26,-2.31 z"
     style="fill:#0f141b"
     id="path14205" />
  <path
     d="m 194.78,51.08 a 7.34,7.34 0 0 1 -6.93,-4.8 c -6.77,3.74 -11.74,2.32 -13.48,-3 -2.53,1.77 -6.27,3 -9.36,2.39 l 0.44,-1.54 a 11.9,11.9 0 0 0 7.78,-1.72 c 1.45,-0.87 1.78,-0.89 2.49,0.63 1.88,4 5.89,4.93 11.33,2.1 1.18,-0.61 1.45,-0.42 2.2,0.9 a 6.37,6.37 0 0 0 5.82,3.44 z"
     style="fill:none"
     id="path14207" />
  <path
     d="m 262.07,44.37 c -1.13,5.57 -5.74,7.26 -11.3,4.36 -2.93,5 -8.78,4.91 -11.84,0.09 a 12.43,12.43 0 0 1 -4.54,3.66 l -0.07,-1.68 a 11.73,11.73 0 0 0 3.36,-2.58 c 1.07,-1.2 1.55,-1.23 2.46,0 2.57,3.43 6.83,3.59 9.35,0 0.71,-1 1,-1 2.34,-0.43 4.6,2.07 8.34,0.32 9.08,-5 z"
     style="fill:none"
     id="path14209" />
  <path
     d="m 10.96,105.47 a 20,20 0 0 1 5.81,1.17 17.33,17.33 0 0 0 4.5,0.93 22.35,22.35 0 0 1 5.42,1.19 12.81,12.81 0 0 0 4.13,1 18.24,18.24 0 0 1 5.25,1.32 20.37,20.37 0 0 0 4.54,1.25 19.73,19.73 0 0 1 5.14,1.52 7.25,7.25 0 0 1 3.51,3.23 15.1,15.1 0 0 0 2.11,3.25 11.7,11.7 0 0 1 2.19,3.67 13.35,13.35 0 0 0 1.85,3.45 14.3,14.3 0 0 1 2.08,4.08 23.19,23.19 0 0 0 1.9,4.22 c 0.53,0.89 0.79,0.9 1.54,0.38 a 8.64,8.64 0 0 0 2.47,-2.46 10.3,10.3 0 0 1 3.18,-3.09 6.3,6.3 0 0 0 2.11,-2.06 10.79,10.79 0 0 1 3.11,-2.91 9.75,9.75 0 0 0 2.56,-2.4 9.94,9.94 0 0 1 3.74,-3 c 2.27,-1 4.55,-1 6.72,1.85 a 17.6,17.6 0 0 1 2.28,4 13.19,13.19 0 0 0 1.72,3.23 11,11 0 0 1 1.74,3.25 8.74,8.74 0 0 0 1.51,2.88 13.71,13.71 0 0 1 2,3.85 6.06,6.06 0 0 0 1,2 c 0.4,0.59 0.68,0.44 1.3,-0.06 a 10.19,10.19 0 0 0 2.12,-2.13 10,10 0 0 1 2.84,-2.76 10.58,10.58 0 0 0 2.48,-2.38 10.2,10.2 0 0 1 2.88,-2.75 7.78,7.78 0 0 0 2.4,-2.24 11.5,11.5 0 0 1 3,-2.82 9.26,9.26 0 0 0 2.41,-2.26 9.17,9.17 0 0 1 3,-2.78 16.5,16.5 0 0 0 3.76,-3.46 1.34,1.34 0 0 0 0,-1.93 8.35,8.35 0 0 1 -1.52,-2.85 8.71,8.71 0 0 0 -1.45,-2.7 6.93,6.93 0 0 1 -1.36,-2.64 10.31,10.31 0 0 0 -1.19,-2.28 c -1.4,-2.36 0.07,-4.47 1.28,-5.59 a 11.12,11.12 0 0 1 3.47,-2.36 12.6,12.6 0 0 0 3.21,-1.92 9.67,9.67 0 0 1 3.29,-2 10.36,10.36 0 0 0 3,-1.78 12.15,12.15 0 0 1 3.84,-2.2 7.91,7.91 0 0 0 2.85,-1.61 7.41,7.41 0 0 1 1.28,-0.8 l 2.49,0.66 a 6,6 0 0 0 -2.49,1.26 11.08,11.08 0 0 1 -3.64,2 10.32,10.32 0 0 0 -3.3,1.92 12.35,12.35 0 0 1 -3.46,2 8.13,8.13 0 0 0 -2.82,1.7 14.13,14.13 0 0 1 -3.64,2.26 9.4,9.4 0 0 0 -2.88,2.16 c -1.56,1.45 -1.63,2.29 -1,3.36 a 11.36,11.36 0 0 1 1.18,2.61 5.33,5.33 0 0 0 1.11,2.15 9.77,9.77 0 0 1 1.7,3.12 10.4,10.4 0 0 0 1.75,2.91 c 1.06,1.36 1.06,2.24 0.18,3.54 a 21.22,21.22 0 0 1 -4.65,4.22 7.2,7.2 0 0 0 -2.43,2.16 11.1,11.1 0 0 1 -2.94,2.65 9.75,9.75 0 0 0 -2.58,2.38 9.37,9.37 0 0 1 -2.89,2.68 7.72,7.72 0 0 0 -2.44,2.25 12.88,12.88 0 0 1 -3,2.8 8.46,8.46 0 0 0 -2.43,2.3 15.46,15.46 0 0 1 -3.21,3.15 c -1.31,0.92 -1.79,0.81 -2.43,0 a 9.41,9.41 0 0 1 -1.69,-3.3 11.75,11.75 0 0 0 -1.78,-3.33 11.07,11.07 0 0 1 -1.83,-3.44 9.2,9.2 0 0 0 -1.51,-2.85 15.67,15.67 0 0 1 -1.84,-3.51 14.77,14.77 0 0 0 -2.1,-3.41 c -1.76,-2.29 -2.67,-2.22 -4.62,-1.4 a 7.61,7.61 0 0 0 -3,2.29 11.5,11.5 0 0 1 -3,2.82 8.61,8.61 0 0 0 -2.49,2.32 8.71,8.71 0 0 1 -2.77,2.6 8.67,8.67 0 0 0 -2.7,2.59 12,12 0 0 1 -3.53,3.42 c -1.6,1 -2,0.65 -2.93,-0.65 a 27.57,27.57 0 0 1 -2.39,-5.28 11.53,11.53 0 0 0 -1.83,-3.53 16.28,16.28 0 0 1 -2.14,-3.9 9.44,9.44 0 0 0 -1.85,-3.11 17.22,17.22 0 0 1 -2.35,-3.57 4.93,4.93 0 0 0 -2.68,-2.5 17.61,17.61 0 0 0 -4.71,-1.39 23,23 0 0 1 -5,-1.42 16.34,16.34 0 0 0 -4.72,-1.22 14.46,14.46 0 0 1 -4.58,-1.09 19.85,19.85 0 0 0 -4.93,-1.08 18.58,18.58 0 0 1 -4.89,-1.06 19.85,19.85 0 0 0 -6.23,-1.25 z"
     style="fill:none"
     id="path14211" />
  <path
     d="m 148.37,90.08 a 14.22,14.22 0 0 0 -3.92,2.36 12.43,12.43 0 0 1 -4.56,2.73 9.91,9.91 0 0 0 -3.81,2.35 16.2,16.2 0 0 1 -4.47,2.71 11.74,11.74 0 0 0 -3.56,2.25 10.63,10.63 0 0 1 -3,2 c -0.62,0.29 -0.65,0.49 -0.39,1.1 a 8.92,8.92 0 0 0 1.4,2.5 11.74,11.74 0 0 1 1.69,2.8 c 0.26,0.59 0.47,0.75 1,0.2 a 12.94,12.94 0 0 1 2.68,-2.1 10.12,10.12 0 0 0 2.76,-2.15 10.34,10.34 0 0 1 3,-2.2 13.94,13.94 0 0 0 2.77,-2 13.27,13.27 0 0 1 3.5,-2.44 11.18,11.18 0 0 0 3.44,-2.5 l -0.67,2.59 a 15.44,15.44 0 0 1 -2.08,1.4 10.06,10.06 0 0 0 -3,2.13 16.24,16.24 0 0 1 -3.18,2.35 8,8 0 0 0 -2.5,1.9 11.28,11.28 0 0 1 -3.12,2.5 17.42,17.42 0 0 0 -3.14,2.61 c -1.06,1.06 -2.11,1 -2.65,-0.53 a 16.25,16.25 0 0 0 -2,-3.39 14.1,14.1 0 0 1 -1.87,-3.32 c -0.48,-1.13 -0.45,-2.07 0.83,-2.65 a 12.59,12.59 0 0 0 3.38,-2.1 13.55,13.55 0 0 1 4.06,-2.52 13.74,13.74 0 0 0 3.9,-2.39 12.33,12.33 0 0 1 4.48,-2.71 9.32,9.32 0 0 0 3.74,-2.25 12.56,12.56 0 0 1 3.14,-1.94 z"
     style="fill:none"
     id="path14213" />
  <path
     d="m 144.2,108.51 a 9.22,9.22 0 0 0 -2.08,1.65 12.15,12.15 0 0 1 -3,2.39 13.15,13.15 0 0 0 -3.06,2.6 14.3,14.3 0 0 1 -3.15,2.76 c -0.66,0.43 -0.71,0.76 -0.19,1.43 a 12.18,12.18 0 0 1 1.61,2.94 8.86,8.86 0 0 0 1.7,3.08 13.2,13.2 0 0 1 2,3.57 9.14,9.14 0 0 0 1.35,2.37 l -0.49,2.33 a 17.37,17.37 0 0 1 -2.37,-4 10.54,10.54 0 0 0 -1.79,-3.1 10.76,10.76 0 0 1 -2,-3.63 11.53,11.53 0 0 0 -1.69,-3 c -0.93,-1.1 -0.77,-2.31 0.51,-2.92 a 13.4,13.4 0 0 0 3.14,-2.82 15.72,15.72 0 0 1 3.51,-3 12.05,12.05 0 0 0 2.79,-2.29 15.92,15.92 0 0 1 3.69,-3 z"
     style="fill:none"
     id="path14215" />
  <path
     d="m 137.4,142.65 a 24.56,24.56 0 0 0 -2.73,-4.46 13.81,13.81 0 0 1 -2.07,-3.54 15.63,15.63 0 0 0 -2,-3.42 15,15 0 0 1 -2.31,-4.08 9.32,9.32 0 0 0 -1.51,-2.61 c -0.42,-0.61 -0.6,-0.46 -1,-0.06 a 9.23,9.23 0 0 1 -1.77,1.53 7.26,7.26 0 0 0 -2.27,2 10,10 0 0 1 -3.06,2.73 c -0.38,0.22 -0.46,0.53 -0.26,1.09 a 7.55,7.55 0 0 0 1.27,2.35 12.55,12.55 0 0 1 2,3.57 8.32,8.32 0 0 0 1.58,3 13.49,13.49 0 0 1 2.26,4.1 11.44,11.44 0 0 0 1.82,3.32 14.58,14.58 0 0 1 2.26,4.2 9.25,9.25 0 0 0 1.58,3 13.19,13.19 0 0 1 1.51,2.63 l -2.09,-0.42 a 13.41,13.41 0 0 0 -1,-1.67 8.35,8.35 0 0 1 -1.59,-3 11.71,11.71 0 0 0 -2,-3.52 14.25,14.25 0 0 1 -2.17,-3.86 10.82,10.82 0 0 0 -1.89,-3.45 10.46,10.46 0 0 1 -2,-3.62 9.67,9.67 0 0 0 -1.69,-3 12.79,12.79 0 0 1 -1.77,-3.27 c -0.47,-1.31 -0.36,-1.92 0.74,-2.56 a 12.34,12.34 0 0 0 3.22,-2.85 8.52,8.52 0 0 1 2.53,-2.29 11.39,11.39 0 0 0 2.21,-1.89 c 1.07,-1.24 1.66,-1.14 2.62,0.22 a 15.16,15.16 0 0 1 2.14,3.66 12.57,12.57 0 0 0 2,3.62 16.34,16.34 0 0 1 2.11,3.67 12.94,12.94 0 0 0 1.95,3.38 19.69,19.69 0 0 1 1.77,3 z"
     style="fill:none"
     id="path14217" />
  <path
     d="m 122.17,155.56 a 11.36,11.36 0 0 0 -1.46,-2.86 13.09,13.09 0 0 1 -1.92,-3.78 11.59,11.59 0 0 0 -1.69,-3.23 14.42,14.42 0 0 1 -1.94,-3.76 8.29,8.29 0 0 0 -1.52,-2.74 7,7 0 0 1 -1,-1.77 c -0.21,-0.51 -0.43,-0.57 -0.87,0 a 4.64,4.64 0 0 1 -1.64,1.41 7.61,7.61 0 0 0 -2.42,2.2 14.4,14.4 0 0 1 -2.88,2.63 13.33,13.33 0 0 0 -2.59,2.5 10.07,10.07 0 0 1 -2.44,2.39 6,6 0 0 0 -1.54,1.65 l -1.81,-0.5 a 8.56,8.56 0 0 1 2.33,-2.43 8.66,8.66 0 0 0 2.09,-2.05 14.87,14.87 0 0 1 2.84,-2.82 13.79,13.79 0 0 0 2.68,-2.55 8.88,8.88 0 0 1 2.69,-2.56 7.71,7.71 0 0 0 2.18,-2 c 1,-1.24 1.93,-1.24 2.39,0.3 a 9.38,9.38 0 0 0 1.26,2.33 12.13,12.13 0 0 1 1.93,3.55 10.81,10.81 0 0 0 1.64,3.16 13.71,13.71 0 0 1 1.93,3.72 11,11 0 0 0 1.68,3.37 18.87,18.87 0 0 1 2.12,4.41 z"
     style="fill:none"
     id="path14219" />
  <path
     d="m 89.26,148.08 a 10,10 0 0 0 -1.3,-2.83 9.91,9.91 0 0 1 -1.79,-3.78 8.73,8.73 0 0 0 -1.75,-3.51 11.67,11.67 0 0 1 -1.89,-3.82 8.43,8.43 0 0 0 -1.44,-2.77 4.9,4.9 0 0 1 -1,-1.85 c -0.13,-0.36 -0.35,-0.56 -0.93,-0.13 a 7.48,7.48 0 0 0 -1.52,1.29 10.34,10.34 0 0 1 -2.68,2.2 8,8 0 0 0 -2.3,2.08 8.54,8.54 0 0 1 -2.4,2.2 9.11,9.11 0 0 0 -2.3,2.25 9.18,9.18 0 0 1 -2.45,2.28 3.4,3.4 0 0 0 -1,1 l -1.86,-0.48 a 7.14,7.14 0 0 1 1.69,-1.6 9.21,9.21 0 0 0 2.26,-2.23 10.27,10.27 0 0 1 2.68,-2.62 7.58,7.58 0 0 0 2.08,-1.91 8.6,8.6 0 0 1 2.6,-2.39 10.35,10.35 0 0 0 2.45,-2.17 13.23,13.23 0 0 1 2.36,-2 c 1.39,-1 2.23,-0.81 2.57,0.68 a 5.24,5.24 0 0 0 1,2 10.49,10.49 0 0 1 1.72,3.46 9.67,9.67 0 0 0 1.6,3.25 11.56,11.56 0 0 1 2.07,4.31 8.15,8.15 0 0 0 1.54,3.27 16.71,16.71 0 0 1 1.94,4.31 z"
     style="fill:none"
     id="path14221" />
  <path
     d="m 25.79,130.63 a 26.94,26.94 0 0 1 -4.83,1.39 6.81,6.81 0 0 0 -2.68,1 l -2.76,-0.59 a 14.22,14.22 0 0 1 5.11,-2.1 24.94,24.94 0 0 0 4.55,-1.4 25.18,25.18 0 0 1 5.37,-1 c 0.56,0 0.71,-0.13 0.35,-0.68 a 4,4 0 0 0 -1,-1 20.65,20.65 0 0 1 -3.52,-3.83 13.77,13.77 0 0 0 -2.56,-2.88 14.65,14.65 0 0 1 -2.86,-3.6 c -1.22,-2.16 -1.25,-2.5 1.54,-2.22 a 23.82,23.82 0 0 1 5.15,1.07 16.16,16.16 0 0 0 4.44,1 22.19,22.19 0 0 1 5.68,1.29 14.91,14.91 0 0 0 3.94,1 2.81,2.81 0 0 1 2.68,2.15 25.3,25.3 0 0 0 3,5.19 17.7,17.7 0 0 1 2.71,5.09 18.77,18.77 0 0 0 2.33,4.57 24.83,24.83 0 0 1 2.53,5.5 l -2,-0.43 a 17.9,17.9 0 0 0 -2,-4.1 20.43,20.43 0 0 1 -2.47,-5 13.86,13.86 0 0 0 -2.4,-4.48 26.6,26.6 0 0 1 -3.27,-5.41 c -0.52,-1.19 -0.78,-1.09 -1.73,-1.2 a 15.08,15.08 0 0 1 -4.12,-1.07 18,18 0 0 0 -5,-1.32 24,24 0 0 1 -5,-1.26 16.1,16.1 0 0 0 -3.21,-0.75 c -1.14,-0.18 -1.33,-0.1 -0.56,0.92 a 12.54,12.54 0 0 0 1.76,1.85 15.63,15.63 0 0 1 2.8,3 18.53,18.53 0 0 0 3.2,3.42 8.72,8.72 0 0 1 2.17,2.4 c 0.74,1.32 0.92,2.14 -1.81,2.38 a 28.07,28.07 0 0 0 -5.53,1.1 z"
     style="fill:none"
     id="path14223" />
  <path
     d="m 413.27,124.15 a 18.34,18.34 0 0 0 -5.58,0.23 28,28 0 0 1 -6.07,0.13 19.11,19.11 0 0 0 -5.34,0.15 17.65,17.65 0 0 1 -5.23,0.16 19.5,19.5 0 0 0 -5.23,0.16 15.87,15.87 0 0 1 -5.41,0.21 16.84,16.84 0 0 0 -5.75,0.21 c -1.16,0.3 -1.35,0.41 -1.89,1.66 -0.54,1.25 -1.54,3.6 -2.52,4.49 a 11.27,11.27 0 0 0 -2.07,3.56 13.23,13.23 0 0 1 -2.21,3.72 12.37,12.37 0 0 0 -2.1,3.53 13.17,13.17 0 0 1 -2,3.44 c -0.89,1 -1.4,1.06 -2.2,0.24 a 11.43,11.43 0 0 1 -2.39,-3.3 8,8 0 0 0 -2.08,-2.87 6.58,6.58 0 0 1 -1.82,-2.51 9.31,9.31 0 0 0 -1.87,-2.58 9.14,9.14 0 0 1 -1.72,-2.41 8.13,8.13 0 0 0 -2.55,-3 c -2.14,-1.28 -3.72,-1.33 -5.51,0.12 a 9.75,9.75 0 0 0 -2.57,3.2 18.36,18.36 0 0 1 -2.2,3.39 12.74,12.74 0 0 0 -2.12,3.22 15.57,15.57 0 0 1 -2.46,3.8 10.24,10.24 0 0 0 -1.94,3 11.27,11.27 0 0 1 -2.2,3.45 1.9,1.9 0 0 1 -2.57,0.34 c -0.8,-0.6 -3.51,-2.9 -4.11,-4.13 a 9.67,9.67 0 0 0 -2.37,-2.32 9.55,9.55 0 0 1 -2.55,-2.52 7.68,7.68 0 0 0 -2.27,-2.27 10.23,10.23 0 0 1 -2.93,-2.82 9.83,9.83 0 0 0 -2.69,-2.61 9.42,9.42 0 0 1 -2.91,-2.85 11,11 0 0 0 -2.81,-2.73 25.66,25.66 0 0 1 -3.8,-3.64 c -1,-1.17 -1.21,-1.81 -0.07,-3 a 7.93,7.93 0 0 0 1.67,-2.39 10.47,10.47 0 0 1 2.13,-3.09 5.38,5.38 0 0 0 1.32,-2 14,14 0 0 1 1.45,-2.41 c 0.56,-0.79 0.86,-1.41 -0.77,-3.29 a 10.76,10.76 0 0 0 -3,-2.58 13.67,13.67 0 0 1 -3.31,-2.75 8.46,8.46 0 0 0 -2.6,-2.16 c -1,-0.48 -1.73,-1.68 -2.7,-2.76 a 8.3,8.3 0 0 0 -3.17,-2.08 c -2.16,-1 -3.62,-3 -4.52,-3.58 l 2.3,-0.25 c 0.78,0.56 1.17,1.57 2.81,2.3 a 11.45,11.45 0 0 1 3.39,2.88 8,8 0 0 0 2.63,1.91 10.49,10.49 0 0 1 3.14,2.56 11.27,11.27 0 0 0 2.86,2.38 13,13 0 0 1 3.5,2.9 c 1.63,1.88 2.07,3.9 1,5.45 a 16.33,16.33 0 0 0 -1.49,2.29 5.71,5.71 0 0 1 -1.5,2.28 10.86,10.86 0 0 0 -1.87,2.86 7.36,7.36 0 0 1 -1.46,2.31 c -0.45,0.5 -0.47,0.67 0.14,1.36 a 19.39,19.39 0 0 0 2.85,2.94 12.37,12.37 0 0 1 3.28,3.25 9.44,9.44 0 0 0 2.4,2.4 13.76,13.76 0 0 1 3.39,3.29 6.93,6.93 0 0 0 2.13,2.18 11.27,11.27 0 0 1 3,3 6.76,6.76 0 0 0 1.95,2 11.41,11.41 0 0 1 2.85,2.78 13.49,13.49 0 0 0 3,3.08 c 0.63,0.51 0.89,0.52 1.44,-0.11 a 7.45,7.45 0 0 0 1.46,-2.33 12.4,12.4 0 0 1 2.27,-3.53 13.56,13.56 0 0 0 2.21,-3.44 14.67,14.67 0 0 1 2.35,-3.58 16.65,16.65 0 0 0 2,-3.11 12.68,12.68 0 0 1 3,-3.86 c 2.11,-1.71 4.16,-2.16 7.4,-0.22 a 10.84,10.84 0 0 1 3.26,3.67 6.48,6.48 0 0 0 1.39,2 11.16,11.16 0 0 1 2.15,3.08 4.68,4.68 0 0 0 1.39,2 10.45,10.45 0 0 1 2.46,3.42 6,6 0 0 0 1.41,2.05 c 0.33,0.35 0.55,0.43 0.94,-0.05 a 7.19,7.19 0 0 0 1.32,-2.27 14.58,14.58 0 0 1 2.37,-4 10.5,10.5 0 0 0 1.92,-3.3 13.09,13.09 0 0 1 2.35,-4.14 14.18,14.18 0 0 0 2.14,-3.91 3.69,3.69 0 0 1 3,-2.66 19.3,19.3 0 0 1 6.43,-0.28 13.42,13.42 0 0 0 4.77,-0.15 24.22,24.22 0 0 1 5.77,-0.15 17.14,17.14 0 0 0 4.69,-0.13 20.55,20.55 0 0 1 5.86,-0.12 24.63,24.63 0 0 0 5.56,-0.18 14.71,14.71 0 0 1 5.25,-0.2 z"
     style="fill:none"
     id="path14225" />
  <path
     d="m 280.86,92.54 a 10.9,10.9 0 0 1 1.48,1.4 10.29,10.29 0 0 0 3.3,2.82 14.57,14.57 0 0 1 4.05,3.45 12.7,12.7 0 0 0 3.33,2.91 14,14 0 0 1 3.68,3.23 10.56,10.56 0 0 0 2.75,2.41 c 1.23,0.83 1.53,1.37 0.84,2.7 a 7.11,7.11 0 0 1 -1.6,2.17 8.89,8.89 0 0 0 -1.61,2 8.29,8.29 0 0 1 -1.83,2.29 c -1.2,1.06 -1.67,0.79 -2.44,-0.29 a 14,14 0 0 0 -2.82,-2.82 13.82,13.82 0 0 1 -2.83,-2.73 15.9,15.9 0 0 0 -2.32,-2.32 12.87,12.87 0 0 1 -2.79,-2.82 10.5,10.5 0 0 0 -2.59,-2.56 8.4,8.4 0 0 1 -1.93,-1.88 l -0.2,-2.58 a 11,11 0 0 0 2.94,3 13.82,13.82 0 0 1 3.06,3 10.74,10.74 0 0 0 2.5,2.49 16.35,16.35 0 0 1 2.69,2.57 10.94,10.94 0 0 0 2.47,2.38 11.66,11.66 0 0 1 2.68,2.52 c 0.29,0.41 0.53,0.42 0.82,0.12 a 5.25,5.25 0 0 0 1.11,-1.41 7.24,7.24 0 0 1 1.57,-2 5.51,5.51 0 0 0 1.17,-1.54 c 0.28,-0.51 0.36,-0.73 -0.13,-1.06 a 11.32,11.32 0 0 1 -2.88,-2.64 11,11 0 0 0 -3,-2.72 15.66,15.66 0 0 1 -3.86,-3.4 12,12 0 0 0 -3.53,-3 13.61,13.61 0 0 1 -4,-3.34 13.25,13.25 0 0 0 -2.29,-2 z"
     style="fill:none"
     id="path14227" />
  <path
     d="m 286.16,129.67 a 11.08,11.08 0 0 0 -2.24,2.77 10.06,10.06 0 0 1 -2.38,2.93 12.56,12.56 0 0 0 -1.81,2.17 l -0.12,-2.47 a 4.38,4.38 0 0 1 0.87,-1 7.48,7.48 0 0 0 1.9,-2.39 13.23,13.23 0 0 1 2.59,-3.18 6.73,6.73 0 0 0 1.84,-2.33 9.86,9.86 0 0 1 2.17,-2.76 c 0.51,-0.49 0.44,-0.82 -0.21,-1.22 a 8.89,8.89 0 0 1 -2.65,-2.64 15,15 0 0 0 -2.94,-2.91 15.53,15.53 0 0 1 -3.06,-3 12.55,12.55 0 0 0 -1.85,-2.2 L 278.13,109 a 16.61,16.61 0 0 1 3.33,3.57 13.19,13.19 0 0 0 2.67,2.71 16.56,16.56 0 0 1 3.36,3.38 8.22,8.22 0 0 0 2.32,2.38 c 1.42,0.88 1.9,2 0.55,3.27 a 10.36,10.36 0 0 0 -2,2.69 8.47,8.47 0 0 1 -2.2,2.67 z"
     style="fill:none"
     id="path14229" />
  <path
     d="m 279.96,145.6 a 6.78,6.78 0 0 0 1.22,-1.4 22.48,22.48 0 0 1 3,-3.6 15.37,15.37 0 0 0 2.59,-3.15 17,17 0 0 1 2.67,-3.36 17.07,17.07 0 0 0 2.51,-3.23 15.85,15.85 0 0 1 2.67,-3.53 c 1.1,-1 1.56,-1.12 2.53,0.29 a 9.59,9.59 0 0 0 1.92,2 11.58,11.58 0 0 1 2.76,2.87 7.36,7.36 0 0 0 2.35,2.36 1.72,1.72 0 0 1 0.83,2.3 0.94,0.94 0 0 1 -0.12,0.22 15,15 0 0 1 -2.26,3.36 11,11 0 0 0 -2,3 11,11 0 0 1 -2.35,3.45 10.63,10.63 0 0 0 -2.28,3.24 14.28,14.28 0 0 1 -2.54,3.66 12.17,12.17 0 0 0 -2.41,3.33 13.82,13.82 0 0 1 -2.37,3.21 14.59,14.59 0 0 0 -1.84,2.44 l -2.17,0.38 a 18.89,18.89 0 0 1 2.81,-3.89 13.25,13.25 0 0 0 2.08,-2.86 13.27,13.27 0 0 1 2.68,-3.71 12.64,12.64 0 0 0 2.23,-3.24 13.74,13.74 0 0 1 2.65,-3.8 8.68,8.68 0 0 0 2,-3 12.61,12.61 0 0 1 2.23,-3.36 9.76,9.76 0 0 0 1.63,-2.65 c 0.23,-0.46 0.12,-0.74 -0.47,-1.16 a 6.48,6.48 0 0 1 -2.3,-2.35 8.22,8.22 0 0 0 -2.25,-2.34 6.12,6.12 0 0 1 -1.6,-1.61 c -0.39,-0.54 -0.53,-0.48 -0.93,-0.06 a 10.69,10.69 0 0 0 -1.87,2.36 18.16,18.16 0 0 1 -2.8,3.56 15,15 0 0 0 -2.44,3 16.81,16.81 0 0 1 -2.78,3.4 23.07,23.07 0 0 0 -3,3.47 16.12,16.12 0 0 1 -2.39,2.76 z"
     style="fill:none"
     id="path14231" />
  <path
     d="m 294.43,161.69 a 11.48,11.48 0 0 0 1.73,-2.42 10.27,10.27 0 0 1 2.37,-3.46 10.2,10.2 0 0 0 2,-2.91 12,12 0 0 1 2.26,-3.24 10.85,10.85 0 0 0 2,-2.88 11.46,11.46 0 0 1 2.22,-3.24 7.08,7.08 0 0 0 1.31,-1.9 c 0.76,-1.81 1.8,-1.71 2.71,-0.23 a 8.26,8.26 0 0 0 2,2 11,11 0 0 1 2.93,2.77 6.16,6.16 0 0 0 2.19,2.23 9.87,9.87 0 0 1 2.8,2.85 6.48,6.48 0 0 0 2,2.23 15,15 0 0 1 2.85,3.11 l -1.7,0.28 a 9.68,9.68 0 0 0 -2.11,-2.08 8.27,8.27 0 0 1 -2.55,-2.65 7.53,7.53 0 0 0 -2.29,-2.31 8.58,8.58 0 0 1 -2.75,-2.71 8.32,8.32 0 0 0 -2.41,-2.28 10.77,10.77 0 0 1 -1.56,-1.38 c -0.52,-0.55 -0.68,-0.55 -1,0 a 8.49,8.49 0 0 1 -1,1.32 10.75,10.75 0 0 0 -2.08,2.88 11,11 0 0 1 -2.19,3.1 10.9,10.9 0 0 0 -2,2.9 11.76,11.76 0 0 1 -2.33,3.3 8.47,8.47 0 0 0 -2.08,2.94 4.84,4.84 0 0 1 -0.74,1.38 z"
     style="fill:none"
     id="path14233" />
  <path
     d="m 328.48,156.18 a 36.3,36.3 0 0 0 2.59,-4.32 20.44,20.44 0 0 1 2.65,-4.39 7.93,7.93 0 0 0 1.9,-3.06 10.43,10.43 0 0 1 2.43,-3.83 10.26,10.26 0 0 0 2.05,-3.07 9,9 0 0 1 1.93,-3 5.58,5.58 0 0 0 1.3,-1.92 c 0.57,-1.69 1.35,-1.53 2.41,-0.34 a 15.57,15.57 0 0 1 1.91,2.71 7.1,7.1 0 0 0 1.67,2.35 8.67,8.67 0 0 1 2.15,3 9,9 0 0 0 1.85,2.65 13.63,13.63 0 0 1 2.4,3.39 8.19,8.19 0 0 0 1.59,2.32 9.9,9.9 0 0 1 1.87,2.45 l -1.61,0.24 a 6.75,6.75 0 0 0 -1.25,-1.56 9.3,9.3 0 0 1 -1.9,-2.63 10.34,10.34 0 0 0 -2.08,-2.87 11.5,11.5 0 0 1 -2.28,-3.12 6,6 0 0 0 -1.73,-2.38 8.38,8.38 0 0 1 -2.08,-2.76 7.6,7.6 0 0 0 -0.92,-1.27 c -0.57,-0.66 -0.69,-0.69 -1.17,0.06 a 4.51,4.51 0 0 1 -0.85,1 7.18,7.18 0 0 0 -1.67,2.44 12.65,12.65 0 0 1 -2.46,3.6 8.08,8.08 0 0 0 -2,3.14 10.64,10.64 0 0 1 -2.33,3.65 14.87,14.87 0 0 0 -2.26,3.74 20.32,20.32 0 0 1 -1.85,3.36 z"
     style="fill:none"
     id="path14235" />
  <path
     d="m 365.2,150.14 a 14.91,14.91 0 0 0 1.7,-2.85 16.35,16.35 0 0 1 2.5,-4.39 16,16 0 0 0 2.36,-4.19 12.48,12.48 0 0 1 2.38,-4.31 15.69,15.69 0 0 0 2.26,-4.11 2.18,2.18 0 0 1 2.58,-1.42 11.93,11.93 0 0 0 4.17,-0.17 18.89,18.89 0 0 1 5.31,-0.15 33.06,33.06 0 0 0 5.45,0 24,24 0 0 1 5.36,0.12 c 1.93,0.26 2,0.85 0.61,2.2 a 13.49,13.49 0 0 1 -3.09,2.1 10.46,10.46 0 0 0 -2.89,1.89 8.4,8.4 0 0 1 -2.9,1.83 6.08,6.08 0 0 0 -1.68,1 c -0.45,0.34 -0.42,0.46 -0.08,0.62 a 5.44,5.44 0 0 0 1.76,0.58 12,12 0 0 1 3.8,1.09 10.26,10.26 0 0 0 3.73,0.9 10.81,10.81 0 0 1 4.31,0.86 28.81,28.81 0 0 0 6.72,1 l -5.21,0.92 a 15.48,15.48 0 0 1 -2.63,-0.41 9.26,9.26 0 0 0 -3.33,-0.65 13,13 0 0 1 -4.46,-1.1 9.22,9.22 0 0 0 -3.17,-0.9 12.34,12.34 0 0 1 -3.45,-1.12 c -1.39,-0.8 -1.45,-1.38 -0.27,-2.41 a 11.1,11.1 0 0 1 3,-1.82 8.39,8.39 0 0 0 2.64,-1.71 11.53,11.53 0 0 1 3.24,-2 5.35,5.35 0 0 0 1.4,-0.91 c 0.64,-0.52 0.48,-0.57 -0.23,-0.61 a 16,16 0 0 0 -3.09,0.1 32.14,32.14 0 0 1 -5.72,0.09 15.15,15.15 0 0 0 -4.75,0.18 12.42,12.42 0 0 1 -4.34,0.23 c -0.92,-0.1 -1,0 -1.42,0.86 a 15.12,15.12 0 0 1 -2.28,4 11.12,11.12 0 0 0 -2.17,3.83 18.29,18.29 0 0 1 -2.57,4.48 13.69,13.69 0 0 0 -2.28,4 9.14,9.14 0 0 1 -1.12,2 z"
     style="fill:none"
     id="path14237" />
</svg>
