<?xml version="1.0" encoding="UTF-8" standalone="no"?>
<svg
   viewBox="0 0 313.29 499.01"
   version="1.1"
   id="svg1140"
   sodipodi:docname="788.svg"
   inkscape:version="1.2.2 (b0a8486, 2022-12-01)"
   xmlns:inkscape="http://www.inkscape.org/namespaces/inkscape"
   xmlns:sodipodi="http://sodipodi.sourceforge.net/DTD/sodipodi-0.dtd"
   xmlns="http://www.w3.org/2000/svg"
   xmlns:svg="http://www.w3.org/2000/svg">
  <defs
     id="defs1144" />
  <sodipodi:namedview
     id="namedview1142"
     pagecolor="#505050"
     bordercolor="#eeeeee"
     borderopacity="1"
     inkscape:showpageshadow="0"
     inkscape:pageopacity="0"
     inkscape:pagecheckerboard="0"
     inkscape:deskcolor="#505050"
     showgrid="false"
     inkscape:zoom="0.94587283"
     inkscape:cx="85.635191"
     inkscape:cy="265.36337"
     inkscape:window-width="1258"
     inkscape:window-height="634"
     inkscape:window-x="0"
     inkscape:window-y="25"
     inkscape:window-maximized="0"
     inkscape:current-layer="svg1140" />
  <title
     id="title720">Tapu Fini</title>
  <path
     d="m 195.51,130.1 c 6.09,-2.37 7.39,-3.42 10.18,-8.11 22.52,-37.83 43.38,-84.62 68.1,-121 -2.12,-0.05 -5.32,2.49 -7.62,5.57 -20,26.87 -46.41,61.43 -72.91,97.58 -66.82,-25.55 -114.71,14.14 -135.56,72 -19,52.77 -12.39,105.53 15.69,151.49 -13.68,-89.77 45.69,-167.7 122.12,-197.53 z"
     style="fill:#6356a1"
     id="path722" />
  <path
     d="m 151.14,154.21 a 24,24 0 0 0 -7.27,1.34 17,17 0 0 1 -5.69,1.11 21.76,21.76 0 0 0 -7.76,2 21.36,21.36 0 0 1 -5.23,1.26 24,24 0 0 0 -6.85,1.91 15.48,15.48 0 0 1 -6,1.81 15.18,15.18 0 0 0 -5.64,2.07 19.08,19.08 0 0 1 -5.69,2.17 21.83,21.83 0 0 0 -6.85,2.81 12.39,12.39 0 0 1 -5,2.32 c -3.43,0.86 -5.24,4.86 -5.69,8.46 a 22.74,22.74 0 0 0 -0.1,6 30.52,30.52 0 0 1 0,6.62 24.7,24.7 0 0 0 0.31,6.92 29,29 0 0 1 0.52,7.14 22.06,22.06 0 0 0 0.57,6.87 9.57,9.57 0 0 1 0.52,4.24 c -0.21,1 -0.06,1.86 -1.66,2.37 a 12.07,12.07 0 0 0 -5,2.9 19.28,19.28 0 0 1 -6.41,3.72 8.25,8.25 0 0 0 -3.83,2.58 10.87,10.87 0 0 1 -3.92,2.59 9.22,9.22 0 0 0 -3.47,2.27 c -1.13,1.14 -1.65,1.09 -2.32,-0.2 a 11,11 0 0 1 -1.24,-5.28 12,12 0 0 0 -1,-5.16 c -0.56,-1.35 -0.41,-2.69 0.88,-3.21 a 7.7,7.7 0 0 0 3.16,-2.27 8.6,8.6 0 0 1 3.61,-2.9 10.89,10.89 0 0 0 3.91,-2.94 3.13,3.13 0 0 0 1,-3.1 29.27,29.27 0 0 1 0.11,-7 19.25,19.25 0 0 0 -0.11,-6.47 18.52,18.52 0 0 1 -0.15,-6.3 17,17 0 0 0 -0.31,-6.36 39.46,39.46 0 0 1 -0.93,-8.94 A 10.56,10.56 0 0 0 67,171 c -0.48,-1.43 -1.35,-2.15 -2.89,-1.55 -0.92,0.36 -2.68,1.12 -4.56,1.67 -0.64,1.63 -1.27,3.29 -1.87,4.95 -19,52.77 -12.39,105.53 15.69,151.49 -10.86,-71.3 24.44,-135.17 77.77,-173.35 z"
     style="fill:#343748"
     id="path724" />
  <path
     d="m 137.63,211.94 c 9.83,14.36 32.88,22.86 41.48,21.6 8.29,-1.22 33.14,-23.49 36.52,-43.79 -5.45,-12 -18.66,-30 -32.45,-41.36 a 141.71,141.71 0 0 0 -20.83,11.67 c -4.44,12.73 -14.71,35.94 -24.72,51.88 z"
     style="fill:#30363a"
     id="path726" />
  <path
     d="m 203.74,169.79 c -3.25,6.23 -9.57,10.36 -14.75,13.46 0.3,9.84 0.42,21.36 -0.37,28.52 -0.42,3.82 -1.22,4.75 -2.69,0.67 -2.62,-7.33 -5.92,-18.26 -8.3,-27.18 a 51.86,51.86 0 0 1 -21.26,-9.58 l 1,-2.27 c 14.74,5.21 32.53,4 44.45,-6.24 z"
     style="fill:#ffffff"
     id="path728" />
  <path
     d="M 157.25,96.13 C 127.82,59 77.9,59.82 46.46,83 c -3.3,6.35 -4.64,13.8 -4.4,22.47 21.27,-24.13 64.05,-29.1 86.93,-6.09 a 100.85,100.85 0 0 1 28.26,-3.25 z"
     style="fill:#6356a1"
     id="path730" />
  <path
     d="M 89.07,123.59 A 13.27,13.27 0 0 0 77,119.06 c -0.2,-9 -7.56,-12.36 -14.45,-8.71 3.9,-8.9 -0.35,-16.6 -9.49,-14.74 27.57,-17 58.7,-14.11 75.68,3.89 -10.89,3.24 -27.16,12.09 -39.67,24.09 z"
     style="fill:#bad4ee"
     id="path732" />
  <path
     d="m 246.25,186.23 c 1.8,-24.48 -3,-43.73 -16.05,-54.28 C 250.17,79.14 265,35.32 273.79,1 c -24.72,36.35 -45.58,83.14 -68.1,121 -2.79,4.69 -4.09,5.74 -10.18,8.11 C 118.17,160.29 58.28,239.72 73.9,330.8 c 0.14,0.84 6.66,0.23 8.9,-0.45 l 1.56,-3.9 a 21,21 0 0 1 -2.24,0.24 c -3,-39.07 -0.47,-67.05 24.67,-110.53 23.29,-40.27 82.32,-81.86 111.62,-72.84 12.39,3.81 18.3,18 16.67,35.1 a 69.7,69.7 0 0 1 11.17,7.81 z"
     style="fill:#30363a"
     id="path734" />
  <path
     d="m 231.15,205.72 a 73.21,73.21 0 0 1 10.43,11.67 l -1.83,5.61 c -2.85,-6.62 -4.92,-11.41 -8.6,-17.28 z"
     style="fill:#30363a"
     id="path736" />
  <path
     d="m 217.93,188.71 -0.52,5 c 2.75,3.53 5.75,4.75 9.54,8 18.76,16.16 34,43.89 29.09,59.89 -10.81,-0.34 -23.94,-3.82 -33.21,-9.15 a 67.19,67.19 0 0 1 -3,16.33 c 11.85,-1.25 23.81,0.25 34.37,1.85 6.1,0.93 8.86,-0.58 10.63,-5 6.87,-17.17 -4.32,-61.95 -10.47,-70.39 a 60.57,60.57 0 0 0 -18.17,-16.08 c -2.23,-1.3 -10,-3.7 -16.58,-6.5 l -0.64,6.12 c 2.33,1.52 5.33,7.76 5.33,9.17 0,1 -1.85,1.4 -3.7,1.59 a 8.13,8.13 0 0 0 -2.67,-0.83 z"
     style="fill:#30363a"
     id="path738" />
  <path
     d="m 223.1,175.65 a 4,4 0 0 0 -0.84,-1.48 c -2.27,-2.48 -9,-2.84 -13.79,-1.75 a 63.41,63.41 0 0 1 6.59,3.69 c 2.81,-1.32 6.58,5.38 8.04,-0.46 z"
     style="fill:#6356a1"
     id="path740" />
  <path
     d="m 223.1,175.65 c -1.46,5.84 -5.23,-0.86 -8,0.46 2,1.25 3.75,2.53 5.29,3.74 2.18,1.75 3.61,-1.58 2.71,-4.2 z"
     style="fill:#6356a1"
     id="path742" />
  <path
     d="m 220.84,189.8 a 17,17 0 0 0 -8.31,-1.91 19.74,19.74 0 0 0 4.88,5.69 3.64,3.64 0 0 1 3.43,-3.78 z"
     style="fill:#6356a1"
     id="path744" />
  <path
     d="m 220.86,189.81 v 0 a 3.64,3.64 0 0 0 -3.43,3.78 2.71,2.71 0 0 0 1.07,0.54 c 1.87,0.28 3.89,-3.48 2.36,-4.32 z"
     style="fill:#6356a1"
     id="path746" />
  <path
     d="m 242.63,189.67 a 4.58,4.58 0 0 0 -1.37,-3.52 c -2.84,-2.94 -8.57,-3.72 -13.53,-2.06 A 36,36 0 0 1 233,188 c 3.52,-0.67 6.16,1.29 9.63,1.67 z"
     style="fill:#6356a1"
     id="path748" />
  <path
     d="m 233,188 c 3,2.61 4.88,4.79 6.68,4.62 a 3.14,3.14 0 0 0 2.92,-3 c -3.44,-0.33 -6.08,-2.29 -9.6,-1.62 z"
     style="fill:#6356a1"
     id="path750" />
  <path
     d="m 204.43,408.56 -5.06,-16.56 7.22,-22.53 c 7.18,-17.73 9.13,-31.94 6.94,-39.63 -2.32,-8.19 -7.94,-15.51 -17,-25.77 -6.57,-7.46 -5.62,-13.32 -2.44,-18.69 10.95,-18.55 10.13,-32.61 -9,-38 -7.7,-2.16 -11.29,-7.82 -11,-14.07 a 28.58,28.58 0 0 1 -9.21,-2.37 c 2.52,8.25 1.86,15.15 -2.46,19.56 l 15.79,45.24 c 0.55,3.41 0.13,6.45 -2.42,9.16 -13.75,14.57 -16.12,29.84 -7,50.56 2.75,6.22 4.55,16.47 4.31,27.12 -10,-4.16 -21.55,-2.6 -27.41,3.12 -6.68,6.51 -9.07,20.52 -4.07,38.9 12.52,15 34.59,31.65 53.41,41.59 a 17.46,17.46 0 0 0 13.69,-4.77 c 9.45,-9.14 9.52,-30.32 -4.29,-52.86 z"
     style="fill:#30363a"
     id="path752" />
  <path
     d="m 197.71,353.41 c -2.26,8 -0.9,23.08 -5.28,33.8 -4.11,10.06 -7.09,22.17 -7.84,29.72 1.81,9.65 5.73,21.27 11.46,29.72 -1.66,-13.13 2.42,-16 6.79,-14.94 -7.33,-10 -2.31,-24.36 8,-26 -9.13,-8.07 -8.37,-19.79 3.66,-27.86 -6.66,-5.51 -14.73,-15.5 -16.79,-24.44 z"
     style="fill:#bad4ee"
     id="path754" />
  <path
     d="m 170.48,257.63 c -17.84,-17.44 -33.34,-19.06 -38.83,-12.83 -5.49,6.23 -0.79,23.92 16.12,39.21 15.64,14.15 31.15,15.27 36.82,8.24 4.58,-5.68 2.01,-18.87 -14.11,-34.62 z"
     style="fill:#6356a1"
     id="path756" />
  <path
     d="m 194.12,285.41 a 17.26,17.26 0 0 0 -2.28,5.83 c 6.4,2.1 13.23,0.27 19.4,-6.68 8,-9 13.8,-27.87 10.9,-42.6 a 18.83,18.83 0 0 0 -21.7,-15.2 c -6.07,1 -15.67,10.61 -16.82,20.2 16.04,4.74 25.06,13.81 10.5,38.45 z"
     style="fill:#6356a1"
     id="path758" />
  <path
     d="m 130.81,224 c 12.94,-21.78 24.37,-42.91 32.13,-64.52 -44.3,26.36 -76,80.39 -80.56,122.62 5.09,17.33 17.5,27.53 32.49,32.59 -1.05,2.46 -3.87,4.39 -10.34,7.27 -16.74,7.45 -38.44,14.27 -54.09,18.46 A 420.39,420.39 0 0 0 4.26,355.73 c -3.76,1.53 -3.26,2.85 0.63,2.85 a 174.92,174.92 0 0 0 18.31,-1 c 3.87,-0.38 6.06,0.16 7.09,2.63 a 11.58,11.58 0 0 1 -1.37,5.41 c -4.18,8.46 -15.72,20.38 -23.8,26.26 -3.35,2.41 -0.77,4.49 2.23,2.6 A 86.22,86.22 0 0 1 35.1,383.4 c 5.68,-1.15 8.72,-0.93 10.58,1.2 a 12.8,12.8 0 0 1 -0.07,6.7 63.46,63.46 0 0 1 -14.74,26.78 c -2.19,2.31 0.81,6.46 4.42,2.27 A 149.68,149.68 0 0 1 65,394.11 c 16.67,-11.09 39.28,-29.35 50.38,-41.59 10.38,-11.44 22.11,-31 25.16,-39.76 C 113.35,289.08 113.39,253.3 130.81,224 Z"
     style="fill:#bad4ee"
     id="path760" />
  <path
     d="m 310.81,358.63 c -8.2,-7.15 -19.89,-13 -28.74,-20.92 0.95,-3.57 5.45,-5.34 12.85,-3.55 3.45,0.83 3.45,-1.06 1.1,-2.52 -12,-7.45 -24,-10.91 -42.48,-12.62 -12.62,-1.16 -24.68,-2.51 -33.06,-5.61 1.59,-10.86 6,-24.3 14.25,-39 q 1.62,-2.9 2.94,-5.7 a 89.38,89.38 0 0 0 -17.84,0.08 c -7.93,20.63 -19,25.54 -28,22.46 -1.2,4.94 1.86,9.49 8.81,17.54 7.24,8.37 14.24,20 13.76,29.61 4.34,5.32 10,8.31 19.28,11.26 18.8,6 49.23,20.42 68.7,31.14 4.57,2.52 6.16,-0.28 2.3,-3.53 -6.47,-5.44 -12.84,-12.34 -16.74,-18.69 a 15.67,15.67 0 0 1 -1.2,-2.43 c 0.6,-1.37 2.11,-2.12 5.16,-1.86 4.57,0.39 9.9,1.76 17.19,6.55 2.49,1.62 3.91,-0.32 1.72,-2.21 z"
     style="fill:#bad4ee"
     id="path762" />
  <path
     d="m 241.4,259.18 c 5.38,-17.58 1.6,-33.87 -11.46,-55.22 -2.78,-2.51 -9.05,-6.87 -11,-8.7 -1.15,-1.07 -2.44,-2.22 -3.59,-3.29 -4.21,14.11 -15.88,29.19 -28.55,37.81 l 2.17,4.73 c 6,-7.2 14.17,-11.06 23,-6.12 8.35,4.66 11.57,13.39 10.85,24.39 a 61,61 0 0 0 18.58,6.4 z"
     style="fill:#bad4ee"
     id="path764" />
  <path
     d="m 197.43,254.2 c 1.69,9.34 -2.83,19.1 -5.79,21.38 -5.16,-5.77 -9.78,-9.17 -16.61,-13.14 5,4.52 9.27,12.62 10.44,17 a 78.55,78.55 0 0 1 6.38,11.35 c 0.29,-2.79 2.6,-5.93 4.27,-8.76 6.45,-10.87 6.88,-22.27 1.31,-27.83 z"
     style="fill:#ffffff"
     id="path766" />
  <path
     d="m 107.9,311.84 a 177.3,177.3 0 0 0 -20,6.48 c -2.07,3.81 -3.31,7.5 -5.14,12 12.66,-4.29 29.77,-10.5 31.73,-15.63 -1.7,-0.69 -4.39,-1.81 -6.59,-2.85 z"
     style="fill:#30363a"
     id="path768" />
  <path
     d="m 116.13,404 c 35.27,65.78 125.59,105.45 161.4,78.37 17.89,-13.53 14.12,-78.57 -25.55,-126 -4.72,-2.18 -8.74,-3.58 -13.52,-5.31 41.69,50.53 47.15,109 32.72,122.23 -24.82,22.75 -111.73,-8.85 -150,-77.67 a 87.87,87.87 0 0 1 -5.05,8.38 z"
     style="fill:#30363a"
     id="path770" />
  <path
     d="m 101.62,365.59 c 12.26,71.38 105,140 167.86,122.06 -59.11,32.94 -162.8,-21.16 -185.8,-107 6.19,-5.06 12.15,-10.15 17.94,-15.06 z"
     style="fill:#6356a1"
     id="path772" />
  <path
     d="m 101.62,365.59 c -5.79,4.91 -11.75,10 -17.94,15 11,41.15 40.56,75 74.85,95.47 -14.66,-19 -23.29,-36.07 -27.87,-50.16 -14.8,-18.42 -25.43,-39.24 -29.04,-60.31 z"
     style="fill:#56498d"
     id="path774" />
  <path
     d="m 197.38,466.74 c 28.33,15.4 60.23,19.3 73,6.84 18.54,-18.05 3,-82.3 -31.94,-122.44 -10.6,-3.1 -19.25,-6.12 -24,-13.06 -0.81,9.62 -3.16,21.16 -8.09,31.23 2.65,3.08 4.73,5.26 7.66,8.19 -12,9.52 -11.71,20 -3.4,27.85 a 21.21,21.21 0 0 0 -6.19,3.21 c 17.58,28.68 13.39,55.77 -7.04,58.18 z"
     style="fill:#56498d"
     id="path776" />
  <path
     d="M 105.64,381.41 99,405.21 a 20.45,20.45 0 0 1 -1.6,5.52 4.54,4.54 0 0 0 -0.15,3 c 0.47,0.84 1,1.67 1.43,2.49 a 2.55,2.55 0 0 0 1,0.6 12.44,12.44 0 0 1 4.27,1.73 11.76,11.76 0 0 0 4.7,1.65 19.34,19.34 0 0 1 5.75,2.08 23.22,23.22 0 0 0 6.16,2.14 c 1.65,0.3 2,0.67 2.2,2.13 a 42.21,42.21 0 0 1 0.37,5.62 32.48,32.48 0 0 0 0.42,6.23 57.28,57.28 0 0 1 1,10 v 1.24 q 3,3 6.19,5.9 a 19.34,19.34 0 0 1 5.64,1.84 11.75,11.75 0 0 0 5.86,1.89 25.93,25.93 0 0 1 8.18,1.89 7.81,7.81 0 0 0 3.79,0.62 22.45,22.45 0 0 1 7.79,1.22 14.77,14.77 0 0 0 6.72,0.79 16.86,16.86 0 0 1 2.93,-0.1 c -29.98,-20.46 -55.36,-50.45 -66.01,-82.28 z"
     style="fill:#343748"
     id="path778" />
  <path
     d="m 53.6,188.9 a 36.27,36.27 0 0 0 0.4,5.1 21.75,21.75 0 0 1 0,5.7 7.35,7.35 0 0 0 0,3.3 15.88,15.88 0 0 1 -0.11,5.37 26.12,26.12 0 0 0 -0.18,5 c 0,1 0.36,1.56 1.13,0.94 a 8.87,8.87 0 0 1 2.1,-1.38 8.16,8.16 0 0 0 2.87,-2.14 9.25,9.25 0 0 1 2.32,-2 1.45,1.45 0 0 0 0.65,-1.63 12,12 0 0 1 0,-3.38 8.81,8.81 0 0 0 -0.07,-2.76 22.18,22.18 0 0 1 0,-6.09 28.31,28.31 0 0 0 -0.36,-7 17.08,17.08 0 0 1 -0.29,-4.68 11.74,11.74 0 0 0 -0.4,-5.33 c -0.37,-1.17 -1,-1 -1.45,-0.58 a 6.23,6.23 0 0 1 -2.32,1 5.16,5.16 0 0 0 -1,0.35 Q 55,183.78 53.6,188.9 Z"
     style="fill:#ffffff"
     id="path780" />
  <path
     d="m 126.67,167.71 a 23.74,23.74 0 0 0 -8,2.18 13.77,13.77 0 0 1 -5.52,1.69 26.65,26.65 0 0 0 -8,2.76 24.21,24.21 0 0 1 -6.54,2.72 17.08,17.08 0 0 0 -5.08,2.13 3.1,3.1 0 0 0 -1.53,2.81 41,41 0 0 1 -0.14,8.14 21.1,21.1 0 0 0 0.19,7 27.63,27.63 0 0 1 0.54,7.75 15.24,15.24 0 0 0 0.63,6 25.86,25.86 0 0 1 1,5.86 195.88,195.88 0 0 1 43,-51.75 25.84,25.84 0 0 0 -5.81,1.49 11.18,11.18 0 0 1 -4.74,1.22 z"
     style="fill:#ffffff"
     id="path782" />
  <path
     d="m 82.64,231.62 a 10.26,10.26 0 0 0 -4.16,2.38 9.11,9.11 0 0 1 -3.77,2.09 12.66,12.66 0 0 0 -4.78,3 10.22,10.22 0 0 1 -3.93,2.54 11.6,11.6 0 0 0 -3.61,2.51 1.79,1.79 0 0 0 -0.24,2.28 13.1,13.1 0 0 1 1.38,4.12 14.66,14.66 0 0 0 1.72,4.71 10.48,10.48 0 0 1 1.5,4.08 13.8,13.8 0 0 0 1.76,4.55 22.53,22.53 0 0 1 2.4,5.73 29.11,29.11 0 0 0 2.51,6.15 172,172 0 0 1 14.77,-47.37 8.62,8.62 0 0 0 -2.19,1.43 7.25,7.25 0 0 1 -3.36,1.8 z"
     style="fill:#ffffff"
     id="path784" />
  <path
     d="m 130.25,425.39 a 23.6,23.6 0 0 0 0.42,5.17 23.74,23.74 0 0 1 0.37,6.35 36.65,36.65 0 0 0 0.42,9 c 0.49,1.89 1.21,2.72 2.32,2.81 a 12,12 0 0 1 5.13,1.77 19.32,19.32 0 0 0 7.88,2.38 23.4,23.4 0 0 1 7.75,1.59 14.64,14.64 0 0 0 5.86,0.9 189.5,189.5 0 0 1 -30.15,-29.97 z"
     style="fill:#ffffff"
     id="path786" />
  <path
     d="m 194.11,180 a 30.21,30.21 0 0 0 9.41,-9.81 c -0.67,-0.9 -1.36,-1.79 -2.06,-2.69 -11.92,10 -29.5,11.12 -44.1,6 l -1,2.27 a 52.65,52.65 0 0 0 12.78,7.11 74.45,74.45 0 0 1 24.97,-2.88 z"
     style="fill:#dbdcdc"
     id="path788" />
  <path
     d="m 71,269.61 a 22.53,22.53 0 0 0 -2.4,-5.73 13.8,13.8 0 0 1 -1.76,-4.55 10.48,10.48 0 0 0 -1.5,-4.08 14.66,14.66 0 0 1 -1.72,-4.71 13.1,13.1 0 0 0 -1.38,-4.12 1.79,1.79 0 0 1 0.24,-2.28 9.51,9.51 0 0 1 1.72,-1.45 70.38,70.38 0 0 1 -16.52,-22.15 c -3.52,37.51 5.59,74 25.76,107 a 168.38,168.38 0 0 1 0.08,-51.83 v 0 A 29.27,29.27 0 0 1 71,269.61 Z"
     style="fill:#2b2c3c"
     id="path790" />
  <path
     d="M 49.58,97.65 C 64.87,79.08 106.66,66.73 148.4,95.58 a 116.6,116.6 0 0 0 -19.75,4 C 108.58,79.19 75,80.21 49.58,97.65 Z"
     style="fill:#56498d"
     id="path792" />
  <path
     d="m 58.77,95.93 c 18.31,-8.12 42.76,-9.66 61.35,6.55 3.08,-0.9 5.77,-2.11 8.53,-2.85 -11.57,-16.53 -50.5,-21.28 -74.12,-4.86 1.41,-0.12 2.7,0.52 4.24,1.16 z"
     style="fill:#a1b8ce"
     id="path794" />
  <path
     d="m 53.78,95.3 a 91.46,91.46 0 0 0 -11.34,9.83 c 5.35,-1 16.23,-3.09 21.44,-4.54 -1.29,-3.18 -5.43,-5.79 -10.1,-5.29 z"
     style="fill:#56498d"
     id="path796" />
  <path
     d="m 193.35,103.58 c 1.07,8.22 2.92,18.78 4.53,25.58 a 14.29,14.29 0 0 0 7.27,-6.48 c 9.54,-16.48 48.93,-91.54 68,-121 -1.46,-1 -5.73,2.54 -8.67,6.48 C 248,30.28 214.2,75.62 193.35,103.58 Z"
     style="fill:#56498d"
     id="path798" />
  <path
     d="m 51.71,241.69 c 0.55,-0.73 1.16,-1.53 0.55,-2.57 a 11.71,11.71 0 0 1 -1.16,-5 20.36,20.36 0 0 0 -0.91,-5.8 c -0.49,-1.23 -1.1,-1.23 -1.65,-0.49 A 16.84,16.84 0 0 1 47,229.56 q -0.31,7.84 0.1,15.62 a 11.51,11.51 0 0 1 1.53,-1.05 10,10 0 0 0 3.08,-2.44 z"
     style="fill:#a1b8ce"
     id="path800" />
  <path
     d="m 69.54,290.11 c -1,1 -3.42,1.9 -5.43,2.39 a 27.47,27.47 0 0 0 -6.49,2.75 186.34,186.34 0 0 0 15.77,32.34 170.06,170.06 0 0 1 -1.39,-39.11 9.4,9.4 0 0 0 -2.46,1.63 z"
     style="fill:#dbdcdc"
     id="path802" />
  <path
     d="m 65.88,276.25 a 30.12,30.12 0 0 0 -2.57,-6.25 29.46,29.46 0 0 1 -2.93,-7.63 18.72,18.72 0 0 0 -2.26,-6 24.3,24.3 0 0 1 -2,-5.86 c -0.32,-1.41 -1.22,-1.4 -2,-0.55 a 13.45,13.45 0 0 1 -3.35,2.75 13.8,13.8 0 0 0 -2.86,2.29 169.77,169.77 0 0 0 7.19,33 c 3.49,-1 5.23,-2 6.51,-3.1 a 12.27,12.27 0 0 1 4.88,-2.5 c 1.39,-0.35 1.65,-1.53 0.92,-2.38 a 9,9 0 0 1 -1.53,-3.77 z"
     style="fill:#56498d"
     id="path804" />
  <path
     d="m 64.15,242.69 a 9.51,9.51 0 0 0 -1.72,1.45 1.79,1.79 0 0 0 -0.24,2.28 13.1,13.1 0 0 1 1.38,4.12 14.66,14.66 0 0 0 1.72,4.71 10.48,10.48 0 0 1 1.5,4.08 13.8,13.8 0 0 0 1.76,4.55 22.53,22.53 0 0 1 2.4,5.73 29.11,29.11 0 0 0 2.51,6.15 v 0 a 171,171 0 0 1 5.28,-23 71.67,71.67 0 0 1 -14.59,-10.07 z"
     style="fill:#dbdcdc"
     id="path806" />
  <path
     d="m 78.75,252.8 a 58.59,58.59 0 0 0 10.57,1.1 c -8.27,21.31 -9.14,56.29 -7.5,71.2 l 3.23,-0.24 -2.25,5.49 c -2.86,1 -4,1.32 -6.3,2.08 -0.55,0.18 -2.79,-4.78 -3,-5.92 -4.43,-25.9 -1.89,-53.59 5.25,-73.71 z"
     style="fill:#232528"
     id="path808" />
  <path
     d="m 186.42,230.07 c -4.71,3.3 -7.46,4.18 -12.32,3.29 0.07,5.56 2.45,11.76 9.52,13.6 0.62,-4 2.85,-8.37 5.64,-12.12 -1.16,-1.84 -2.13,-3.47 -2.84,-4.77 z"
     style="fill:#32265a"
     id="path810" />
  <path
     d="m 164.89,231 c 2.91,8 1.44,15.77 -2.65,19.62 -14.27,-10.65 -26,-11.1 -31,-5.5 -4.5,5 -1.31,23.26 16.55,38.9 11.78,10.32 21.7,14.08 30.45,11.78 a 9.49,9.49 0 0 1 0,3.9 442.46,442.46 0 0 0 -44.4,6.3 c -22.53,-26.12 -18.66,-62.36 3.79,-94.1 5.19,8.29 16.83,15.59 27.26,19.1 z"
     style="fill:#32265a"
     id="path812" />
  <path
     d="m 107.3,311.53 c -12.68,-4.6 -23.14,-20.56 -24.92,-29.46 -1.67,13.51 -1.39,29.27 -0.44,42.55 l 2.93,0.36 c 1.06,-2.75 1.46,-3.93 2.59,-6.7 7.26,-2.86 12.07,-4.39 19.84,-6.75 z"
     style="fill:#32265a"
     id="path814" />
  <path
     d="m 223.06,174 c -2.54,-10.84 -6.78,-24.72 -15.6,-31.92 -7.41,0.37 -15.24,2.88 -24.09,6.46 9.89,7.51 23.12,22.77 31.49,39.38 2.34,0.37 4.41,0.8 5.51,1.59 1.84,0.06 3.7,-0.74 3.93,-1.59 0.23,-0.85 -1.06,-4.82 -4.23,-8.36 a 64.38,64.38 0 0 0 -11.6,-7.17 19.08,19.08 0 0 1 14.59,1.61 z"
     style="fill:#a1b8ce"
     id="path816" />
  <path
     d="m 223.06,174 c 4.15,1.77 8,2.18 12,4.39 2.27,-17.95 -6.41,-32.12 -16.67,-35.1 a 32.94,32.94 0 0 0 -10.95,-1.21 c 8.84,7.23 13.08,21.11 15.62,31.92 z"
     style="fill:#32265a"
     id="path818" />
  <path
     d="m 178.2,299.69 a 325.16,325.16 0 0 0 -44.36,6.31 68.64,68.64 0 0 0 9.47,8.8 c 8.55,-1.71 21,-4.51 28.82,-5.74 3.18,-3.37 5.79,-5.72 6.07,-9.37 z"
     style="fill:#232528"
     id="path820" />
  <path
     d="m 89.13,328.16 c 11.41,-4.06 23.75,-9.13 25.4,-13.44 -1.74,-0.76 -4.43,-1.84 -6.63,-2.88 a 177.3,177.3 0 0 0 -20,6.48 79.44,79.44 0 0 0 1.23,9.84 z"
     style="fill:#232528"
     id="path822" />
  <path
     d="m 238.46,351.14 c -10.6,-3.1 -19.25,-6.12 -24,-13.06 -0.81,9.62 -3.16,21.16 -8.09,31.23 2.65,3.08 4.73,5.26 7.66,8.19 -12,9.52 -11.71,20 -3.4,27.85 a 21.21,21.21 0 0 0 -6.19,3.21 c 17.61,28.68 13.38,55.77 -7.05,58.18 a 126.06,126.06 0 0 0 28.76,11.4 c 39.06,-4.56 51.15,-41.9 5.11,-115.13 -1.76,-2.79 -1.25,-3.65 2.35,-2.67 5.41,1.47 8.61,2.21 14.88,3.72 a 152.78,152.78 0 0 0 -10.03,-12.92 z"
     style="fill:#32265a"
     id="path824" />
  <path
     d="m 197.61,354.79 c 1.88,13.31 1.76,24.17 -1.21,35.59 -2.19,8.4 -0.07,14.71 13.6,14.67 a 17,17 0 0 0 -9.56,22.06 16.83,16.83 0 0 0 2.68,4.55 c -7.25,-1 -8.08,5.07 -7.28,14.42 -5.57,-7.67 -11,-23.1 -11.25,-29.15 -0.28,-6.24 3.57,-18.87 6.73,-26.88 5.18,-13.11 4.39,-28.45 6.29,-35.26 z"
     style="fill:#a1b8ce"
     id="path826" />
  <path
     d="m 173.14,382.63 c -10,-4.16 -21.55,-2.6 -27.41,3.12 -6.68,6.51 -9.07,20.52 -4.07,38.9 12.52,15 34.59,31.65 53.41,41.59 a 17.46,17.46 0 0 0 13.69,-4.77 c 9.38,-9.16 9.47,-30.24 -4.21,-52.7 -5.69,5.11 -7.31,15.26 -1.71,22.94 -4.37,-1.06 -8.45,1.81 -6.79,14.94 -5.73,-8.45 -9.65,-20.07 -11.46,-29.72 0.75,-7.55 4.87,-22.6 8.64,-31.92 -8.6,2.44 -13.7,-2.25 -15.14,-13.89 A 77.73,77.73 0 0 0 172.37,349 c -3.41,-8.66 -3.07,-23.34 5.51,-34.68 6.84,-9 13.85,-10.43 23,-4.57 -8.22,-8.64 -9.94,-14.68 -8.94,-19.1 A 61,61 0 0 0 186,280.34 c 2.08,7.21 0.06,14.09 -7.7,15.56 0.74,4.69 -0.91,7.53 -4.94,11.65 -10.84,11.09 -12.25,30.34 -6,44.33 4.95,10.99 5.64,17.89 5.78,30.75 z"
     style="fill:#232528"
     id="path828" />
  <path
     d="m 185.47,279.47 a 78.55,78.55 0 0 1 6.38,11.35 c 0.29,-2.79 2.6,-5.93 4.27,-8.76 3.83,-6.47 5.51,-13.12 5.1,-18.62 a 20.1,20.1 0 0 1 -5.13,4.6 c -1.27,3.64 -3,6.45 -4.45,7.54 a 60.47,60.47 0 0 0 -4.35,-4.42 27.64,27.64 0 0 1 -5.38,0.23 36.64,36.64 0 0 1 3.56,8.08 z"
     style="fill:#dbdcdc"
     id="path830" />
  <path
     d="m 196.21,268 a 22.25,22.25 0 0 1 -8.92,3.19 36.06,36.06 0 0 1 4.4,4.25 19.53,19.53 0 0 0 4.52,-7.44 z"
     style="fill:#232528"
     id="path832" />
  <path
     d="m 129.15,251.2 c 13.67,-9.51 55.79,31 47.6,45.13 -6.91,0.32 -13.32,-1.06 -20.65,-5.91 1.56,-4.12 2.29,-9.07 -0.09,-11.82 a 28.68,28.68 0 0 0 -7.51,-6.32 c -2.67,-1.43 -3.79,-0.63 -3.66,8.25 -9.44,-7.7 -15.84,-21.64 -15.69,-29.33 z"
     style="fill:#56498d"
     id="path834" />
  <path
     d="m 191.31,232 c 14.58,-9 37.37,17.83 14,57.45 -2.91,2 -9.29,3.92 -13.49,1.75 0.81,-4.61 7.81,-13.22 9.11,-22.44 1.72,-12.09 -6.94,-20.11 -17.33,-21.84 0.62,-4.13 2.82,-9.38 7.71,-14.92 z"
     style="fill:#56498d"
     id="path836" />
  <path
     d="m 165.75,245.2 a 25.2,25.2 0 0 0 16.11,1.42 c -5.49,-3.61 -7.28,-6.61 -7.76,-13.26 a 57.38,57.38 0 0 1 -9.21,-2.37 23.49,23.49 0 0 1 0.86,14.21 z"
     style="fill:#232528"
     id="path838" />
  <path
     d="m 140.7,207.59 c 9,14.45 31.13,22.59 37.7,21.29 8.54,-1.69 29.46,-18.19 36.11,-36.2 -3.56,17.63 -26.54,40 -35.82,40.8 -9,0.72 -30.43,-6.6 -41.06,-21.54 1.29,-1.72 1.95,-2.66 3.07,-4.35 z"
     style="fill:#232528"
     id="path840" />
  <path
     d="m 176.29,185.09 a 298,298 0 0 0 6.33,34.06 c 2.32,-1.44 4.07,-2.78 5,-4.62 -1.48,0.14 -7.35,-17.63 -10,-29.27 z"
     style="fill:#232528"
     id="path842" />
  <path
     d="m 194.11,180 a 56.12,56.12 0 0 1 18.75,4.35 126.35,126.35 0 0 0 -9.34,-14.16 30.21,30.21 0 0 1 -9.41,9.81 z"
     style="fill:#232528"
     id="path844" />
  <path
     d="m 169.15,182.79 a 56.81,56.81 0 0 1 -12.94,-7.22 c -2.34,5.45 -5.05,11.32 -7.94,17.12 a 67.16,67.16 0 0 1 20.88,-9.9 z"
     style="fill:#232528"
     id="path846" />
  <path
     d="m 201.46,167.45 a 128.73,128.73 0 0 0 -18.28,-19.06 141.71,141.71 0 0 0 -20.83,11.67 c -1.29,3.69 -3.07,8.27 -5.19,13.3 14.56,5.22 32.49,3.99 44.3,-5.91 z"
     style="fill:#232528"
     id="path848" />
  <path
     d="m 226.49,268.64 c -6.52,12.85 -12.7,26.57 -14.22,37.08 -2,13.63 4.28,27.31 13.84,33.63 9.56,6.32 23.79,10.46 35.51,16.29 14.2,7.05 32.7,16.58 45,25.38 -0.62,0.72 -2.58,0.43 -4.93,-0.84 -12.37,-6.68 -50.27,-25.67 -66.59,-30 -6.5,-1.74 -16.77,-6.08 -20.61,-12.06 0.64,-8.73 -4.28,-19.19 -19,-35.48 a 13,13 0 0 1 -3.56,-11.36 c 7,3.94 21.69,-2 27.92,-22.62 a 44.6,44.6 0 0 1 6.64,-0.02 z"
     style="fill:#a1b8ce"
     id="path850" />
  <path
     d="m 231.36,206.17 c 7.91,17.57 9.66,34.86 1.35,50.54 -3.06,-0.82 -7.27,-2.29 -9.74,-4 0.33,-13.62 -5,-22.62 -12.37,-24.73 -10.07,-2.88 -14.63,-1.06 -21.34,6.89 l -2.84,-4.77 c 12.09,-7.53 26.38,-26.49 28.85,-38.49 a 52.68,52.68 0 0 0 4.77,4.68 62,62 0 0 1 11.32,9.88 z"
     style="fill:#a1b8ce"
     id="path852" />
  <path
     d="m 286.72,351 c 2.15,-1.33 12.37,0.71 24,9.33 -0.37,0.48 -1.26,0.43 -2.89,-0.49 -11.27,-6.32 -19.28,-6.5 -21.12,-3.71 -1.13,-1.41 -1.32,-4.34 0.01,-5.13 z"
     style="fill:#a1b8ce"
     id="path854" />
  <path
     d="m 280.42,330.72 c 2.74,-1.16 10.67,-0.11 16.31,2.86 -0.85,0.51 -1.65,0.44 -4.12,0 -5.47,-1.07 -8.32,0.29 -10.61,4 -2.88,-1.58 -3.52,-6.03 -1.58,-6.86 z"
     style="fill:#a1b8ce"
     id="path856" />
  <path
     d="m 143.74,201.37 c -10.08,0.38 -22.35,9.72 -27.3,20.72 -11.6,5.31 -23.78,25.83 -25.52,39.75 -2.92,23.45 27.08,45.68 41.27,42.32 a 51.79,51.79 0 0 0 8.32,8.18 c -5.44,15.7 -23.4,40.65 -40.37,54.53 -14.33,11.73 -27.89,22.29 -37.66,28.68 -9.77,6.39 -21.48,18.37 -25.81,23.32 -2.79,3.21 -4,3.69 -5.72,2.84 10.14,-12.09 21.83,-23.71 30.53,-29.92 14,-10.06 46,-34.36 54.84,-50.81 7,-13 -0.45,-20.26 -10.41,-19.3 5.14,-2.24 7.65,-4.75 8.87,-7.14 -13.85,-4.46 -27.28,-14 -32.4,-32.47 14,-66.57 40,-95 80,-122 a 341.66,341.66 0 0 1 -18.64,41.3 z"
     style="fill:#a1b8ce"
     id="path858" />
  <path
     d="m 45.54,383.76 c -1.83,-3.21 -3.84,-4.88 -9.25,-4.95 -7.14,-0.09 -20.52,8.06 -32.42,15.85 0.64,0.82 2.45,0.52 4.67,-0.83 11.46,-6.96 29.03,-13.46 37,-10.07 z"
     style="fill:#a1b8ce"
     id="path860" />
  <path
     d="m 2.68,357.65 c 15.75,-2.38 24,-7.42 27.38,1.1 -2.38,-1.83 -4.12,-1.65 -7.23,-1.1 -7.3,1.29 -19.71,1.35 -20.15,0 z"
     style="fill:#a1b8ce"
     id="path862" />
  <path
     d="m 91.8,380.19 a 11.13,11.13 0 0 0 -3.51,-0.75 10.37,10.37 0 0 1 -3.11,-0.63 c 5.24,-4.08 17.46,-14.16 24.2,-20.13 A 200.36,200.36 0 0 1 91.8,380.19 Z"
     style="fill:#232528"
     id="path864" />
  <path
     d="m 133.78,448.76 c -1.11,-0.09 -1.83,-0.92 -2.32,-2.81 a 36.65,36.65 0 0 1 -0.42,-9 23.74,23.74 0 0 0 -0.37,-6.35 23.6,23.6 0 0 1 -0.42,-5.17 c 0.14,0.17 0.29,0.34 0.43,0.52 -11.08,-13.8 -19.83,-28.92 -25,-44.5 L 99,405.21 a 20.45,20.45 0 0 1 -1.6,5.52 4.54,4.54 0 0 0 -0.15,3 c 0.47,0.84 1,1.67 1.43,2.49 a 2.55,2.55 0 0 0 1,0.6 12.44,12.44 0 0 1 4.27,1.73 11.76,11.76 0 0 0 4.7,1.65 19.34,19.34 0 0 1 5.75,2.08 23.22,23.22 0 0 0 6.16,2.14 c 1.65,0.3 2,0.67 2.2,2.13 a 42.21,42.21 0 0 1 0.37,5.62 32.48,32.48 0 0 0 0.42,6.23 57.28,57.28 0 0 1 1,10 v 1.24 q 3,3 6.19,5.9 a 19.34,19.34 0 0 1 5.64,1.84 11.75,11.75 0 0 0 5.86,1.89 30.2,30.2 0 0 1 5.35,0.9 q -2.82,-4 -5.21,-8.07 a 13.87,13.87 0 0 1 -3.44,-1.5 11.94,11.94 0 0 0 -5.16,-1.84 z"
     style="fill:#2b2c3c"
     id="path866" />
  <path
     d="m 130.68,425.91 c -0.14,-0.18 -0.29,-0.35 -0.43,-0.52 a 23.6,23.6 0 0 0 0.42,5.17 23.74,23.74 0 0 1 0.37,6.35 36.65,36.65 0 0 0 0.42,9 c 0.49,1.89 1.21,2.72 2.32,2.81 a 12,12 0 0 1 5.13,1.77 13.87,13.87 0 0 0 3.44,1.5 123.68,123.68 0 0 1 -11.62,-26 z"
     style="fill:#dbdcdc"
     id="path868" />
  <path
     d="m 109,390.29 -2.47,8.46 a 13.94,13.94 0 0 0 -1.28,5.31 10.48,10.48 0 0 1 -0.8,4.21 c -0.55,1.41 -0.79,2 1.16,2.63 a 25.1,25.1 0 0 1 6.54,2.81 17.09,17.09 0 0 0 6.59,2.38 34.14,34.14 0 0 1 5.55,1.39 A 146.18,146.18 0 0 1 109,390.29 Z"
     style="fill:#dbdcdc"
     id="path870" />
  <path
     d="m 230.67,256.09 c -1.4,3.59 -0.49,7.59 5.35,8.33 5.52,0.7 12.27,1.67 19.11,2.63 4.86,0.68 7.85,-0.63 10.08,-5 -0.44,5.52 -4,10.05 -10.69,8.77 -11.05,-2.1 -25.6,-3.33 -35.16,-1.84 a 46.2,46.2 0 0 0 3.33,-16.66 37.34,37.34 0 0 0 7.98,3.77 z"
     style="fill:#232528"
     id="path872" />
  <path
     d="m 223.45,177.8 a 64.61,64.61 0 0 1 11.64,5.68 14,14 0 0 0 -6.81,0.37 c 3.13,2.58 14.11,8.47 14.33,6.41 a 27.81,27.81 0 0 1 8.47,12 c 6.9,17.67 10.31,37.3 6.76,57.52 -0.9,-32.07 -21.18,-51.09 -40.18,-65.58 0.17,-2.14 0.1,-3 3.29,-4.67 1.74,-0.18 3.25,-0.95 3.35,-1.62 0.23,-1.59 -3.07,-7 -5.58,-9.89 a 40.44,40.44 0 0 0 4.73,-0.22 z"
     style="fill:#232528"
     id="path874" />
  <path
     d="m 222.47,177.26 a 38.1,38.1 0 0 0 -12.25,-4.52 c 1.59,1 3.36,2.11 5.06,3.28 2.43,-0.79 5.5,3.87 7.19,1.24 z"
     style="fill:#56498d"
     id="path876" />
  <path
     d="m 213.54,188.58 c 1.39,2.11 2.11,3.51 3.75,4.76 l 0.13,0.09 a 6.67,6.67 0 0 1 1.42,-2.91 37.38,37.38 0 0 0 -5.3,-1.94 z"
     style="fill:#56498d"
     id="path878" />
  <path
     d="m 241.74,189.46 a 26.49,26.49 0 0 0 -12.6,-5.07 37.85,37.85 0 0 1 4.52,3.66 c 2.96,-0.56 5.34,0.77 8.08,1.41 z"
     style="fill:#56498d"
     id="path880" />
  <path
     d="m 172.13,309.1 c -5.75,0.9 -13.41,2.59 -23.27,4.53 -6.23,25.69 -14.62,57 -27.68,82.07 a 171.39,171.39 0 0 0 20.29,28.3 c -9.47,-31.91 6.22,-51.89 31.67,-41.4 0,-10 -0.15,-17.88 -4.69,-28.91 -7.23,-17.53 -6.87,-31.75 3.68,-44.59 z"
     style="fill:#32265a"
     id="path882" />
  <path
     d="m 157.77,172.35 c 14.28,4.67 30.59,4.37 43.31,-6 l 1.35,1.77 c -10.79,9.52 -29,12.44 -45.4,6.32 z"
     style="fill:#0f141b"
     id="path884" />
  <path
     d="m 119.54,254 c 3.67,-11 20.89,-29.49 25.65,-33.89 -2.84,-2.75 -6.14,-5.71 -7.56,-8.21 -2.79,5.28 -9.66,16.18 -11.67,20.94 a 121.51,121.51 0 0 0 -4.86,13.47 c -0.64,2.6 -1.56,7.69 -1.56,7.69 z"
     style="fill:#a1b8ce"
     id="path886" />
  <path
     d="m 204.37,170.88 c -2.91,5.77 -8.14,9.68 -14.15,13.08 a 192.63,192.63 0 0 1 -0.59,27.91 c -0.64,5.74 -3,5.28 -4.67,0.92 -3.06,-8.11 -5.9,-17 -8.43,-26.4 a 49.13,49.13 0 0 1 -20.52,-9.6 l 0.92,-2.1 a 52.77,52.77 0 0 0 20.45,9.17 c 1,0.24 1.28,0.43 1.55,1.45 2.39,8.9 5.13,18.73 7.49,25.49 0.89,2.57 1.07,2.1 1.27,-0.13 0.53,-5.83 0.38,-15 0,-27 0,-0.91 0,-1.12 0.93,-1.66 6,-3.48 11.59,-7.54 14.42,-13.2 z"
     style="fill:#0f141b"
     id="path888" />
  <path
     d="m 188.66,215.41 a 15.58,15.58 0 0 1 -3.45,3.08 c -2.73,1.83 -3.78,0.92 -1.06,-1.37 a 18.28,18.28 0 0 0 2.66,-2.69 z"
     style="fill:#0f141b"
     id="path890" />
  <path
     d="m 138.33,210.8 c 9.6,14.28 32.19,22.8 40.52,21.57 7.83,-1.15 31.34,-22.2 35.42,-41.79 l 2,2 c -4.74,20.29 -28.79,40.91 -37,42.12 -8.49,1.25 -31.75,-6.48 -42.25,-21.38 z"
     style="fill:#0f141b"
     id="path892" />
  <path
     d="m 83.27,279.17 c 5.14,19.95 20.62,33.3 42.9,37.24 5.86,1 5.72,2.93 -0.27,2 C 103.71,315.09 87.4,303.2 81.62,285 Z"
     style="fill:#0f141b"
     id="path894" />
  <path
     d="m 29.79,362.84 c -0.48,-3.79 -2.09,-4.56 -6.47,-4.15 a 174.77,174.77 0 0 1 -18.44,0.94 c -6.5,0 -6.19,-2.82 -0.94,-5 a 417.65,417.65 0 0 1 46.21,-15.49 c 7.4,-2 33.14,-9.22 53.92,-18.48 6.67,-3 8.63,-4.53 9.49,-6.55 l 2.61,0.9 c -1.11,2.74 -4.43,5.14 -11.13,8.12 -20.9,9.31 -46.82,16.45 -54.25,18.44 A 419.42,419.42 0 0 0 5.73,356.4 c -2.08,0.83 -1.86,1.16 0.21,1.13 6,-0.07 11,-0.44 17.22,-1 3.55,-0.34 5.29,0.05 6.66,1.25 z"
     style="fill:#0f141b"
     id="path896" />
  <path
     d="m 46,387 c -1.44,-3.13 -3.83,-3.88 -10.65,-2.5 a 85.28,85.28 0 0 0 -27.46,11 c -4.77,3 -8.35,-0.77 -3.41,-4.45 8.13,-6 19.28,-17.49 23.4,-25.83 2.42,-4.89 1.63,-7.69 -1.43,-9.3 -2.6,-1.37 -2.11,-2.53 0.65,-1.53 4.31,1.56 5.64,6.3 2.91,11.82 -4.23,8.56 -15.32,20.26 -24.16,26.63 -1.89,1.36 -1,2.11 1.08,0.78 A 87.9,87.9 0 0 1 35,382.21 c 5.45,-1.1 7.93,-0.91 10.21,0.61 z"
     style="fill:#0f141b"
     id="path898" />
  <path
     d="m 111.78,357.82 a 365.19,365.19 0 0 1 -46.15,37.43 152,152 0 0 0 -29.5,25.9 c -4.73,5.41 -9.59,-0.2 -6.16,-3.89 A 63.88,63.88 0 0 0 44.47,391 c 1.43,-5.65 -0.43,-10.49 -5.81,-11.12 -4.06,-0.47 -3.94,-1.85 0.13,-1.66 6.41,0.31 9.73,6.09 7.88,13.4 a 64.63,64.63 0 0 1 -14.93,27.17 c -1.46,1.54 0.1,3.78 2.7,0.78 A 152.65,152.65 0 0 1 64.32,393 c 16.34,-10.87 39.07,-29.63 50.43,-41.63 z"
     style="fill:#0f141b"
     id="path900" />
  <path
     d="m 140,177.18 c -4,15.6 -18.76,36.72 -22.77,45.66 -2.15,4.82 -3.66,4.31 -1.71,-0.71 3.46,-8.9 18.48,-32.47 21.2,-42.59 z"
     style="fill:#0f141b"
     id="path902" />
  <path
     d="m 213.4,188 c -7.9,-14.75 -17.74,-28.13 -31.6,-39 l 2.7,-1.17 c 14.12,11.24 23.9,24.91 31.68,40.13 z"
     style="fill:#0f141b"
     id="path904" />
  <path
     d="m 220.25,196.49 c 4.14,9.13 7.74,18.71 11.28,28.57 2.13,5.94 0.51,6.49 -1.69,0.69 a 357.4,357.4 0 0 0 -14,-33.1 z"
     style="fill:#0f141b"
     id="path906" />
  <path
     d="m 217.94,172.42 a 98.53,98.53 0 0 0 -14.85,-16.36 c -3.82,-3.39 -2.82,-4.59 1.14,-1.37 a 85.82,85.82 0 0 1 17.2,18.54 z"
     style="fill:#0f141b"
     id="path908" />
  <path
     d="m 221.17,173.45 c -2.37,-13 -6.37,-23.4 -16,-31.24 l 3.55,-0.16 C 218,150 221.51,161 223.81,174.18 Z"
     style="fill:#0f141b"
     id="path910" />
  <path
     d="m 239.91,259.2 c 5.61,-17.81 1.65,-34.25 -12.38,-56.67 l 5.7,4.44 c 11.57,20.05 14.55,36 9.43,52.79 z"
     style="fill:#0f141b"
     id="path912" />
  <path
     d="m 239.12,268.88 c -0.93,2 -2,4.06 -3.13,6.13 -16.36,29.33 -18.24,54.34 -11,62.21 2.8,3 1.61,4 -1.31,1.38 -8.35,-7.42 -7.63,-33.71 9.75,-64.87 1,-1.74 1.87,-3.46 2.69,-5.16 z"
     style="fill:#0f141b"
     id="path914" />
  <path
     d="m 84,326.3 c -0.62,0.09 -1.91,0.28 -2.54,0.31 a 0.76,0.76 0 0 1 -0.85,-0.67 0.38,0.38 0 0 1 0,-0.1 c -3.07,-39.88 0,-67.46 24.88,-110.46 24.4,-42.2 84.48,-82.34 113.33,-73.47 13.18,4.09 19.61,18.69 17.64,37.45 L 233.63,178 c 1.61,-17.2 -4.78,-29.85 -15.64,-33.19 -29.5,-9.08 -87.54,33.41 -109.89,72.06 -24.47,42.33 -27.32,68 -24.69,106.63 a 10.89,10.89 0 0 0 1.4,-0.15 z"
     style="fill:#0f141b"
     id="path916" />
  <path
     d="m 132.73,304.64 c 14.65,-2.84 30.28,-5.09 45.72,-6.53 l -0.34,3.09 c -14.7,1.38 -29.32,3.41 -43.08,6 z"
     style="fill:#0f141b"
     id="path918" />
  <path
     d="m 110,312.71 c -7.61,2 -14.7,4.13 -21,6.42 -1.5,3.38 -2.67,6.24 -4.16,10.62 l -3.47,1.16 a 110.21,110.21 0 0 1 5,-13.18 1.83,1.83 0 0 1 1.5,-1.3 c 5.53,-2 11.66,-3.87 18.23,-5.65 z"
     style="fill:#0f141b"
     id="path920" />
  <path
     d="m 87.82,328.53 c -0.54,-3.16 -0.9,-5.78 -1.15,-8.87 l 2.39,-2 c 0.37,3.7 0.72,6.65 1.26,10 z"
     style="fill:#0f141b"
     id="path922" />
  <path
     d="m 149,312.49 c 7.7,-1.9 15,-3.39 24.9,-5.36 l -2.6,3.23 c -7.87,1.58 -15.69,3.13 -23,5 z"
     style="fill:#0f141b"
     id="path924" />
  <path
     d="m 281.09,336.88 c 1.23,-3.65 6.23,-6.07 13.55,-3.92 1.09,0.32 1.28,-0.06 0.28,-0.67 -11.73,-7.09 -23.6,-10.39 -41.47,-12 -12.1,-1.11 -24.61,-2.28 -33.21,-5.43 l 0.42,-2.7 c 8.41,3.15 20.79,4.56 32.92,5.68 18.42,1.7 30.82,5 43.06,12.81 3.83,2.43 2.65,5.68 -1.9,4.55 -7.17,-1.76 -11.11,0 -11.78,3.32 z"
     style="fill:#0f141b"
     id="path926" />
  <path
     d="m 286.26,354.93 c 1.06,-1.45 3.09,-2 5.75,-1.81 4.26,0.36 9.56,1.7 16.9,6.38 1.48,0.94 1.86,0.58 0.46,-0.64 -8.41,-7.34 -20.65,-13.27 -29.36,-21.38 a 4.22,4.22 0 0 1 -0.8,-5.68 c 1.39,-1.85 2.33,-1.3 1.35,0.84 -0.41,0.91 -0.18,2 1.12,3.21 9,8.58 21.46,14.68 30,22 3.41,2.92 1,6.79 -3.32,3.89 -7.34,-4.9 -12.31,-6 -16.49,-6.32 -2.79,-0.22 -4.21,0.4 -4.51,2.09 z"
     style="fill:#0f141b"
     id="path928" />
  <path
     d="m 214.36,336.38 c 4.09,5.47 9.46,8.72 19.68,12 19.27,6.13 49.93,20.81 68.85,31.32 3.3,1.83 3.92,0.92 1,-1.53 -6.36,-5.35 -12.84,-12.26 -16.92,-18.9 -1.67,-2.71 -2.12,-4.82 -1.3,-6.86 0.9,-2.23 2.07,-1.88 1.49,0.62 -0.27,1.17 0,2.19 1.76,5 4,6.49 10.15,13 16.38,18.21 5.79,4.87 2.28,8.55 -3.56,5.46 C 283,371.82 252.4,357.13 233.22,351 c -9.44,-3 -15.17,-5.89 -19.05,-10.89 z"
     style="fill:#0f141b"
     id="path930" />
  <path
     d="m 228.39,268.29 c -6.55,11.5 -12.11,24.75 -14.67,35.73 -1,4.38 -2.58,4.12 -1.83,-0.37 1.83,-11 8.05,-25.48 13.36,-35.25 z"
     style="fill:#0f141b"
     id="path932" />
  <path
     d="m 255.19,263 c -10.91,-0.52 -23.68,-4 -32.47,-9.1 l 0.13,-2.93 a 74.08,74.08 0 0 0 32.15,9.18 c 3.86,-15.63 -11.49,-42.57 -28.82,-57.52 -3.88,-3.34 -9.09,-7 -9.23,-9.73 l 2.42,1.12 c 1.4,2 4.29,3.3 8.43,6.84 18.21,15.56 34.54,43.28 29.73,60.6 -0.43,1.39 -0.95,1.54 -2.34,1.54 z"
     style="fill:#0f141b"
     id="path934" />
  <path
     d="m 220,267.44 c 12.08,-1.26 24,0.24 34.39,1.82 5.46,0.83 7.56,-0.31 9.14,-4.26 6.38,-16 -4.12,-60.13 -10.46,-68.84 a 60.91,60.91 0 0 0 -17.39,-15.77 c -3.77,-2.32 -9.68,-3.3 -13.05,-5.33 l -1.9,-3.17 c 6.09,2.54 12.2,3.86 16.08,6.12 a 62.1,62.1 0 0 1 18.75,16.37 c 6.38,8.75 17.62,54.17 10.6,71.72 -2.16,5.46 -5.85,6.9 -12.16,5.9 -10.48,-1.59 -22.48,-3.16 -34.58,-1.8 z"
     style="fill:#0f141b"
     id="path936" />
  <path
     d="m 218.29,188.85 a 6.22,6.22 0 0 0 4.93,-1.19 c 0.28,-0.48 -5.77,-7.87 -9.49,-12 l 4.3,1.52 c 2.69,2.86 7.94,10.37 7.15,11.67 -0.41,0.67 -2.5,1.52 -4.58,1.49 z"
     style="fill:#0f141b"
     id="path938" />
  <path
     d="m 235.05,186.9 c 7.75,7.66 9.29,9.52 10.54,11.51 2.12,3.38 0.8,4.13 -1.49,1.08 -1.58,-2.11 -3.73,-4.28 -12.3,-12.63 z"
     style="fill:#0f141b"
     id="path940" />
  <path
     d="m 226.94,194.63 c -1.9,-1.47 -1.18,-2.47 0.79,-1.1 1.97,1.37 4.13,2 4.3,1.72 0.17,-0.28 -1.09,-2.09 -3.27,-4.15 -1.64,-1.55 -0.93,-2.35 0.87,-1 3.19,2.42 5.21,5.06 4.13,6.36 -0.71,0.86 -3.37,0.86 -6.82,-1.83 z"
     style="fill:#0f141b"
     id="path942" />
  <path
     d="m 249.39,190.69 c -3.71,-3 -6.1,-4 -8.19,-4.42 l -2.66,-2.81 c 2.89,0.09 6,1.19 9.64,3.93 z"
     style="fill:#0f141b"
     id="path944" />
  <path
     d="m 244.63,185.26 c 1.68,-23.95 -3.39,-41.2 -15,-51.59 -1.09,-1 -1.23,-1.38 -0.71,-2.77 19.81,-52.44 33.81,-93.28 42.29,-124.23 -20.94,32.2 -41.53,78 -64.3,116 -2.91,4.85 -4.65,6.45 -10.87,8.88 -39.14,15.27 -73.71,43.45 -95.78,78.16 -17.74,27.91 -27,58.24 -27.39,89.51 -0.11,9 0.3,23.85 4.24,32.18 0.89,1.9 -3,-1.11 -3.82,-3.42 -3.39,-9.25 -3.48,-19.89 -3.34,-29 0.51,-31.73 9.85,-62.76 27.68,-90.82 22.57,-35.51 57.37,-63.77 97.37,-79.37 5.89,-2.3 6.56,-3 9.25,-7.57 C 226,84.6 246.6,39.67 270.41,4 c 3.83,-5.74 5.06,-5.26 3.36,1.42 -8.39,32.92 -21.7,73 -41.76,126.06 12.54,10.52 17.99,30.27 15.8,56.52 z"
     style="fill:#0f141b"
     id="path946" />
  <path
     d="m 242.5,218.86 q -0.87,3.49 -1.88,7.08 l -2.07,-5.5 c 0.43,-1.71 0.85,-3.4 1.24,-5.07 z"
     style="fill:#0f141b"
     id="path948" />
  <path
     d="m 56.49,178 a 153.79,153.79 0 0 1 8.93,-16.21 c 2.22,-3.57 3.66,-2.46 1.47,1.14 a 178.76,178.76 0 0 0 -12.6,25.46 z"
     style="fill:#090016;fill-opacity:1;opacity:0.444"
     id="path960" />
  <path
     d="m 53.38,282.63 a 139.79,139.79 0 0 1 1.09,-31 c 0.64,-4.48 2.52,-4.35 1.93,0.14 a 154.79,154.79 0 0 0 0.09,40 z"
     style="fill:#090016;fill-opacity:1;opacity:0.444"
     id="path952" />
  <path
     d="M 74.67,332.68 A 172.76,172.76 0 0 1 45.08,236.44 179.25,179.25 0 0 1 55.73,175.39 c 20.88,-58.18 70.36,-98.37 137,-73.2 27.27,-37 52.21,-69.19 72.51,-96.27 2.58,-3.44 5.93,-6.21 8.8,-5.9 l -0.78,2.12 c -1.76,0.35 -4.15,2.28 -6.23,5.13 -20,27.33 -44,59.17 -72.12,97.24 -0.92,1.26 -1.39,1.46 -2.8,0.94 -66.88,-25 -112.67,16.19 -132.51,71.18 A 175.33,175.33 0 0 0 49,236.44 c 0,31.2 7.6,63.87 28.6,95.38 z"
     style="fill:#0f141b"
     id="path950" />
  <path
     d="m 56.05,242.08 a 140.33,140.33 0 0 1 10.47,-34.15 c 1.72,-3.88 3.32,-3.3 1.74,0.65 a 208.14,208.14 0 0 0 -10.4,33.82 c -0.93,4.27 -2.57,4.04 -1.81,-0.32 z"
     style="fill:#090016;fill-opacity:1;opacity:0.444"
     id="path954" />
  <path
     d="M 71.05,198.09 A 142.55,142.55 0 0 1 88.92,169.3 c 2.7,-3.4 4.06,-2.42 1.48,1.08 A 229.31,229.31 0 0 0 72.7,199 c -2.2,4.11 -3.7,3.44 -1.65,-0.91 z"
     style="fill:#090016;fill-opacity:1;opacity:0.44362292"
     id="path956" />
  <path
     d="m 93.88,163 a 171.51,171.51 0 0 1 67.05,-50.75 c 5,-2.14 5.78,-0.51 0.78,1.72 -25.21,11.27 -47.65,28.31 -66.41,50.2 -2.85,3.36 -4.3,2.43 -1.42,-1.17 z"
     style="fill:#090016;fill-opacity:1;opacity:0.444"
     id="path958" />
  <path
     d="m 71.72,152.17 c 10.6,-15.5 22.6,-27.73 35.4,-36.36 3.69,-2.48 4.63,-1.07 1,1.54 -12.18,8.83 -24.09,21 -35,36 -2.74,3.83 -4.18,2.88 -1.4,-1.18 z"
     style="fill:#090016;fill-opacity:1;opacity:0.444"
     id="path962" />
  <path
     d="m 194.89,119.81 a 56.6,56.6 0 0 1 -1.58,-9.59 c -0.38,-4 1.66,-4.29 2,-0.26 a 91.87,91.87 0 0 0 1.22,9.49 c 0.71,3.98 -0.53,4.21 -1.64,0.36 z"
     style="fill:#0f141b"
     id="path964" />
  <path
     d="M 127.29,100.24 C 105.14,78 65.83,83.31 45,104.34 c -3.58,3.6 -4.29,3.21 -4.27,-1 0,-7.77 1.34,-14.56 4.09,-20.19 a 3.44,3.44 0 0 1 1.29,-1.53 C 79.43,57.19 131.43,58.77 159.38,96.44 H 155.5 C 127.33,61.44 79.24,61.14 47.5,83.85 44.74,89.52 43.62,94.98 43.24,102.46 65,79.56 108,75.1 130.82,99.12 Z"
     style="fill:#0f141b"
     id="path966" />
  <path
     d="M 148,96.34 C 139,84.48 118.56,68.74 88.73,67.53 l 12.06,-0.87 c 19.75,2.56 40.14,14.77 50.84,29.71 z"
     style="fill:#0f141b"
     id="path968" />
  <path
     d="m 63.67,102 a 110.17,110.17 0 0 0 -21.91,4.8 l 0.17,-2.11 A 82.76,82.76 0 0 1 63,99.52 Z"
     style="fill:#0f141b"
     id="path970" />
  <path
     d="m 88.51,125 a 12.37,12.37 0 0 0 -10.72,-4.73 c -1.64,0.09 -2,-0.35 -2.14,-1.75 -0.63,-6.75 -5.73,-9.93 -11.49,-7.65 -3,1.2 -3.24,0.38 -2.34,-2.16 2.91,-8.21 -1.64,-14.62 -11.56,-10.94 l 3.63,-3.39 c 8.22,-1.28 13.3,5.16 10.6,13.9 6.33,-2.29 13,1 13.63,9.39 A 14.47,14.47 0 0 1 90.37,123 Z"
     style="fill:#0f141b"
     id="path972" />
  <path
     d="m 80.68,298.8 a 23.65,23.65 0 0 1 1.55,-4.24 c 1.77,-3.43 2.88,-2.52 1.66,1.15 a 51.09,51.09 0 0 0 -2.52,11.85 z"
     style="fill:#0f141b"
     id="path974" />
  <path
     d="m 119.13,273 a 28.42,28.42 0 0 1 12.48,-1.34 c 3.46,0.44 3.39,1.83 -0.09,1.76 a 34.13,34.13 0 0 0 -12.06,1.92 z"
     style="fill:#0f141b"
     id="path976" />
  <path
     d="m 161.37,249.84 c 4.24,-4.22 4.85,-10.87 2.18,-19.22 l 2.67,0.86 c 2.43,8.45 1.64,15.46 -2.9,19.85 z"
     style="fill:#0f141b"
     id="path978" />
  <path
     d="m 205.59,368.51 c 6.72,-16.74 8.57,-31.19 6.55,-38.32 -2.13,-7.48 -7.43,-14.87 -16.56,-25.23 -6.19,-7 -6.45,-13.37 -2.48,-20.09 11.83,-20 7.68,-31.65 -8.37,-36.15 -8.1,-2.27 -12.37,-8.27 -12,-15.53 l 2.5,0.37 c -0.24,5.48 3.08,10.66 10.14,12.64 17.52,4.91 23.37,17.28 9.62,39.95 -3.17,5.22 -3.51,10.25 2.51,17.08 9.69,11 14.79,17.38 17.32,26.3 2.53,8.92 0,23.74 -7.37,41.13 z"
     style="fill:#0f141b"
     id="path980" />
  <path
     d="m 179.32,295.66 c 0.74,3.56 0.5,6.8 -2.68,10.17 -13.45,14.27 -15.46,29 -6.66,49.19 4.9,11.24 7.19,34.51 -0.55,51.66 -2,4.38 -4.35,6.25 -8.24,6.3 -3.37,0 -3.33,-1.29 0,-1.56 2.89,-0.23 4.78,-1.77 6.41,-5.54 7.19,-16.6 4.69,-39.53 0.07,-49.88 -9.24,-20.64 -6.89,-36.87 7.17,-51.77 2.12,-2.26 2.75,-4.48 2.22,-8 z"
     style="fill:#0f141b"
     id="path982" />
  <path
     d="m 165.1,345.22 a 55.75,55.75 0 0 1 -18.93,8.49 c -4,1 -4.74,-0.34 -0.47,-1.77 a 66.14,66.14 0 0 0 18.81,-9.33 z"
     style="fill:#0f141b"
     id="path984" />
  <path
     d="m 213.58,329.78 a 23.69,23.69 0 0 1 -1.47,6.37 c -0.73,1.86 -1.23,1.64 -2.17,0.08 a 71.47,71.47 0 0 0 -14.43,-16.87 249.34,249.34 0 0 0 -12.1,23 c -1.13,2.4 -1.56,2.28 -2.81,0.31 a 98.23,98.23 0 0 1 -10.28,-22 31.85,31.85 0 0 0 -6.66,8.84 l 0.43,-4.77 a 36.69,36.69 0 0 1 5.55,-6.51 c 1.18,-1.1 1.85,-1 2.41,0.74 a 100.72,100.72 0 0 0 9.84,22 c 4,-8.51 8.55,-17.29 12,-23.18 0.79,-1.35 1.37,-1.48 2.68,-0.44 a 62,62 0 0 1 14.28,16.65 35.29,35.29 0 0 0 1.08,-8.56 z"
     style="fill:#0f141b"
     id="path986" />
  <path
     d="M 146.92,285.11 C 129.07,269 124.7,250.78 130.72,244 c 6.14,-7 23.22,-4.45 40.75,12.68 17.38,17 18.85,30.42 14.06,36.37 -5.93,7.3 -22.1,6.95 -38.61,-7.94 z m -14.34,-39.54 c -4.25,4.82 -2.15,20.82 16.1,37.34 15.66,14.16 30,14.67 34.92,8.56 3.81,-4.72 2.32,-16.77 -14.12,-32.84 -18.57,-18.14 -32.48,-18.08 -36.9,-13.06 z"
     style="fill:#0f141b"
     id="path988" />
  <path
     d="m 145.36,272.37 c -14.81,-21 -9.5,-29.89 1.37,-30.38 l 4.82,2.81 c -14.9,-1.83 -16.67,7.88 -3.6,27.16 z"
     style="fill:#0f141b"
     id="path990" />
  <path
     d="m 184.65,276 c 1.4,11.71 -9.59,16.84 -27,8.16 l -0.23,-2.84 c 18,9.2 28.5,4.15 23.45,-10.52 z"
     style="fill:#0f141b"
     id="path992" />
  <path
     d="m 145.13,276.79 a 23.92,23.92 0 0 1 -6.61,-2.4 l -2.34,-4.21 a 27.2,27.2 0 0 0 8.93,4.16 z"
     style="fill:#0f141b"
     id="path994" />
  <path
     d="m 161.89,293.39 a 30.59,30.59 0 0 1 -4.4,-5.43 l 1,-3 a 41.18,41.18 0 0 0 8.8,10 z"
     style="fill:#0f141b"
     id="path996" />
  <path
     d="m 174.11,299.92 c -1.24,-1.13 -2.73,-2.48 -3.89,-3.72 l 3.58,0.29 a 36,36 0 0 0 3.3,3.12 z"
     style="fill:#0f141b"
     id="path998" />
  <path
     d="m 278,484.05 c -22.08,16.67 -56.7,19.84 -91.75,7.31 -50.31,-18 -90.92,-61.13 -104.07,-109.85 l 2.74,-2 C 98.23,428 137.54,470.15 187.59,488 c 35.13,12.55 64.16,7.42 79.18,-0.37 z"
     style="fill:#0f141b"
     id="path1000" />
  <path
     d="m 254.87,357.32 c 38.27,46.66 42.42,112.27 23.58,126.42 -36.89,27.69 -127.87,-12.44 -163.21,-78.4 l 1.93,-2.32 c 34.9,65.39 124,104.89 159.33,78.15 17.56,-13.28 13.3,-80.34 -27.63,-125.76 z"
     style="fill:#0f141b"
     id="path1002" />
  <path
     d="m 122.06,394.35 c 39.2,69.37 124,100 148.16,77.9 13.74,-12.6 8.57,-71 -34,-121.58 l 4.85,1.26 c 40.35,50 46.21,108.53 31.08,122.43 -26,23.87 -113.79,-8.93 -151.6,-77.13 z"
     style="fill:#0f141b"
     id="path1004" />
  <path
     d="m 173.12,384.19 c -10.44,-4.43 -21,-2.83 -26.45,2.47 -6.82,6.66 -8.28,21.66 -3.44,38.84 l -3.52,-2.84 c -4.25,-17.2 -2.24,-31 4.95,-38 6.71,-6.55 18.85,-7.37 28.39,-3.62 z"
     style="fill:#0f141b"
     id="path1006" />
  <path
     d="m 193.38,464.91 c 5.65,0.56 10.87,-0.94 14.45,-4.44 9.83,-9.62 7.63,-31.37 -4.42,-50.7 l 2.22,-1.88 c 11.54,18.43 16,43 4.08,54.59 a 18.16,18.16 0 0 1 -12.25,5 z"
     style="fill:#0f141b"
     id="path1008" />
  <path
     d="m 194.35,446.54 c -5.24,-7.71 -9.24,-18.07 -11.32,-28.64 a 4.68,4.68 0 0 1 0,-1.9 126.71,126.71 0 0 1 8.07,-29.36 c 4.41,-10.3 2.84,-25.29 5.4,-33.62 1,-3.07 1.71,-3 2.54,0.07 2.64,9.78 9.58,17.81 16,23.43 1.33,1.16 1.3,1.7 -0.14,2.74 -9.91,7.15 -11.91,16.86 -4.15,24.56 2,2 1.84,2.54 -0.66,3.39 -8.47,2.9 -12.31,13.53 -6.59,23.13 1.37,2.3 1.17,2.91 -1.48,2.7 -4.26,-0.35 -5.5,4.42 -4.83,12.38 0.34,4.01 -0.63,4.37 -2.84,1.12 z m -8.2,-29.69 c 2.09,9.66 4.85,18.28 8.27,24.64 -0.42,-7.5 2,-11.14 6.11,-11.19 -6.11,-9.84 -1.35,-22.38 7.83,-25.29 -7.8,-7.89 -7.47,-19 4,-27.28 -5.8,-5 -11.52,-11.69 -14.4,-19.58 -0.81,5.41 0.28,18.43 -4.33,29.48 a 114.79,114.79 0 0 0 -7.48,29.22 z"
     style="fill:#0f141b"
     id="path1010" />
  <path
     d="m 191.68,292.69 a 83.73,83.73 0 0 0 -5.5,-10.33 L 185,277.19 a 70.26,70.26 0 0 1 7.18,12.1 z"
     style="fill:#0f141b"
     id="path1012" />
  <path
     d="m 173.32,260.15 c 7.73,4.34 12.74,7.81 18.39,14 a 26.94,26.94 0 0 0 4.49,-20.66 l 2.52,2.45 c 1,8.23 -2.62,16.59 -5.77,19.95 -1.08,1.15 -1.48,1.07 -2.59,-0.09 a 55.5,55.5 0 0 0 -13.65,-11.09 z"
     style="fill:#0f141b"
     id="path1014" />
  <path
     d="m 188.38,236 a 56.49,56.49 0 0 0 -3.1,-5.11 l 2.22,-1.53 a 52.52,52.52 0 0 1 2.75,4.56 z"
     style="fill:#0f141b"
     id="path1016" />
  <path
     d="m 192.05,290.05 c 6.6,2.06 12.57,0 18.28,-6.46 7.14,-8 13.35,-26.51 10.42,-41.44 A 17.3,17.3 0 0 0 200.83,228 c -6,1.06 -14.3,9.55 -15.92,19.31 l -2.7,-0.8 c 1.4,-8.8 10.07,-19.6 18.08,-21 a 20.06,20.06 0 0 1 23.11,16.14 c 3.12,15.87 -3.15,34.68 -11.19,43.74 -7,7.88 -14.25,9.25 -20.5,7.08 z"
     style="fill:#0f141b"
     id="path1018" />
  <path
     d="m 216.17,231.93 c -8.26,-2.83 -15.46,7.93 -19.31,21.6 l -2.15,-1.72 c 4.17,-15.14 11.19,-23 18.18,-23.15 z"
     style="fill:#0f141b"
     id="path1020" />
  <path
     d="m 218.14,273.38 c -4.47,3.39 -12.25,2 -17.54,-3.41 l 0.52,-2.86 c 5,5.89 14.62,7.52 18.23,1.37 z"
     style="fill:#0f141b"
     id="path1022" />
  <path
     d="m 110.71,403.4 c -1.75,3.91 -2.88,6.9 -4.9,9.77 17.41,-4.62 33.71,-60.95 42,-95.64 a 209.91,209.91 0 0 1 8.91,-28.7 c 1.62,-4.34 1.1,-8 -0.73,-10.26 a 27.37,27.37 0 0 0 -7.69,-6.35 c -2.2,-1.1 -3.18,0 -3.18,2.32 0,19.54 -3.38,39.35 -10.26,50.56 -13.19,21.5 -39.42,53.23 -59.69,71.3 4.09,2.23 8,0.66 12.82,-3.36 3.32,-0.38 8.18,1.66 8.71,5.17 a 57.17,57.17 0 0 1 -7.25,11.67 19.09,19.09 0 0 0 13.63,-7.66 c 2.25,-1.8 6.28,-1.89 7.63,1.18 z"
     style="fill:#30363a"
     id="path1024" />
  <path
     d="m 102.05,402.45 c -3.61,4.65 -7.17,6.89 -12.58,7.43 a 57.17,57.17 0 0 0 7.25,-11.67 c -0.16,3.85 1.33,6.23 5.33,4.24 z"
     style="fill:#6356a1"
     id="path1026" />
  <path
     d="m 88,393 c -3.9,3.28 -9.8,5 -12.82,3.36 3,-2.7 6.2,-5.71 9.44,-8.95 -0.45,3.37 0.91,6.28 3.38,5.59 z"
     style="fill:#6356a1"
     id="path1028" />
  <path
     d="m 115.05,405.85 c -3.38,4.48 -5.79,6.4 -9.24,7.32 2,-2.87 3.15,-5.86 4.9,-9.77 0.4,1.73 2.05,2.67 4.34,2.45 z"
     style="fill:#6356a1"
     id="path1030" />
  <path
     d="m 145.25,279.91 c 3.71,1.72 6.09,7.75 4.53,13.68 -3.3,12.58 -4.76,18.93 -9.28,36.76 -5,19.63 -14.6,51.63 -27.93,74.77 a 4.24,4.24 0 0 0 2.32,0.46 c 10.53,-10.74 23.41,-51 29.45,-73.92 4.54,-17.18 7.6,-32.09 11.73,-41 2.54,-5.47 2.27,-10.36 -0.18,-12.61 a 44.78,44.78 0 0 0 -7.21,-5.65 c -2,-1.16 -3.47,-0.41 -3.51,1.66 -0.04,2.07 0.04,3.45 0.08,5.85 z"
     style="fill:#232528"
     id="path1032" />
  <path
     d="m 114.5,390.91 c 0.15,-1.9 -0.24,-4.39 -1.75,-4.88 -1.71,-0.56 -4.8,0.28 -6.47,3.84 -2.62,5.61 -4.57,10 -7,12.46 1.49,0.74 2.62,0.91 4.6,-0.41 1.98,-1.32 5.42,-1.4 6.79,1.42 1.67,-3.5 3.49,-8.07 3.83,-12.43 z"
     style="fill:#232528"
     id="path1034" />
  <path
     d="m 85.34,391.59 a 108.36,108.36 0 0 0 8.74,-8.13 c 1.81,-1.85 5.32,-1.67 6.83,-0.54 -2.85,0 -3.92,1.18 -5.22,2.88 -1.3,1.7 -4.25,5.59 -6.46,7.37 -2.15,0.2 -3.45,-0.54 -3.89,-1.58 z"
     style="fill:#232528"
     id="path1036" />
  <path
     d="m 89,393.14 c 2.74,-2.51 6.42,-6.32 7.59,-8.25 a 3.53,3.53 0 0 1 4.6,-1.65 c 1.1,0.5 1,3.45 -0.27,6.63 a 50.68,50.68 0 0 1 -4.26,8.49 C 96.09,394.72 93,392.73 89,393.14 Z"
     style="fill:#232528"
     id="path1038" />
  <path
     d="m 85.22,392.1 a 20.32,20.32 0 0 1 -9,4.19 c 1.68,1.93 7,1.41 11.67,-2.41 a 6,6 0 0 1 -2.67,-1.78 z"
     style="fill:#56498d"
     id="path1040" />
  <path
     d="m 98.88,402.56 a 39.2,39.2 0 0 1 -8.48,6.86 c 3.61,-0.26 7.86,-2.13 11.42,-6.37 a 2.82,2.82 0 0 1 -2.94,-0.49 z"
     style="fill:#56498d"
     id="path1042" />
  <path
     d="m 112.57,405.12 c -1.45,2.26 -4.38,6.39 -6.84,8.33 a 22.79,22.79 0 0 0 9.37,-7.69 3.52,3.52 0 0 1 -2.53,-0.64 z"
     style="fill:#56498d"
     id="path1044" />
  <path
     d="m 113.56,389.32 c -0.1,-1.81 -1.68,-1.92 -2.46,-0.8 -1.53,2.24 -2.63,1.42 -1.21,-0.89 1.65,-2.68 5,-2.29 5.11,1.55 0.1,2.42 -1.32,2.54 -1.44,0.14 z"
     style="fill:#0f141b"
     id="path1046" />
  <path
     d="m 165.08,199.92 c -2.12,-6.56 -6.93,-13.93 -12.66,-16.15 -2.68,5.7 -6.78,13.87 -9.75,19.42 a 32.57,32.57 0 0 0 10.5,6.9 z"
     style="fill:#bad4ee"
     id="path1048" />
  <path
     d="m 165.09,199.78 c 2.93,7.81 1.7,14.58 -2.06,15.95 -4.45,1.62 -12.81,-4.58 -13.05,-17 4.58,-1.45 10.6,-1.44 15.11,1.05 z"
     style="fill:#7cbeb3"
     id="path1050" />
  <path
     d="m 206.24,201.43 c 3.49,-2.21 5.95,-6.72 7.71,-11.65 l -1,-1.63 1.87,-0.2 a 117.74,117.74 0 0 0 -6.12,-10.76 c -5.53,2.1 -10.08,10.42 -12.52,19.2 z"
     style="fill:#bad4ee"
     id="path1052" />
  <path
     d="m 155.09,204.53 a 27,27 0 0 0 -4.09,-0.73 19.92,19.92 0 0 0 1.75,5.09 14.15,14.15 0 0 0 2.78,-2.95 7.93,7.93 0 0 1 -0.44,-1.41 z"
     style="fill:#6356a1"
     id="path1054" />
  <path
     d="m 166.36,206.38 a 35.45,35.45 0 0 1 -4.47,-0.56 8.94,8.94 0 0 0 -0.29,-2 25.57,25.57 0 0 1 3.59,-2.14 17.42,17.42 0 0 1 1.17,4.7 z"
     style="fill:#6356a1"
     id="path1056" />
  <path
     d="m 164,213.17 a 2.1140542,2.1140542 0 0 1 -4,1.37 2,2 0 0 1 0.92,-2.67 1.51,1.51 0 0 1 0.33,-0.13 2.18,2.18 0 0 1 2.74,1.39 z"
     style="fill:#ffffff"
     id="path1058" />
  <path
     d="m 196.22,196.39 c -2.18,7.86 -0.48,12.64 1.44,13.18 4.15,1.17 10.14,-6.41 9.75,-17 a 13.09,13.09 0 0 0 -4.12,-0.55 c -1.29,0.26 -4.68,2.35 -7.07,4.37 z"
     style="fill:#7cbeb3"
     id="path1060" />
  <path
     d="m 195.29,201.66 a 22.76,22.76 0 0 0 2.88,-1.44 c 0.16,-0.8 0.23,-1.31 0.46,-2.13 a 24.29,24.29 0 0 0 -2.77,-0.92 22.62,22.62 0 0 0 -0.57,4.49 z"
     style="fill:#6356a1"
     id="path1062" />
  <path
     d="m 205.87,202 a 15.39,15.39 0 0 1 -2.6,-2.5 6,6 0 0 0 0.23,-1.33 35.6,35.6 0 0 1 3.52,-0.9 18.8,18.8 0 0 1 -1.15,4.73 z"
     style="fill:#6356a1"
     id="path1064" />
  <path
     d="m 199.75,208.58 c -0.76,0.76 -1.55,0.72 -1.93,0.41 a 1.68,1.68 0 0 1 2.09,-2.5 1.45,1.45 0 0 1 -0.11,2 z"
     style="fill:#ffffff"
     id="path1066" />
  <path
     d="m 165.08,199.92 c -4,-6.53 -10.54,-7.52 -12.22,-7.07 -1.68,0.45 -3.41,3.73 -3.94,6.07 4.31,-1.36 11.5,-2.17 16.16,1 z"
     style="fill:#ffffff"
     id="path1068" />
  <path
     d="m 196.22,196.39 c 3.3,-2.44 6.32,-4.47 7.73,-4.47 a 12.17,12.17 0 0 1 5.37,1.65 c -0.43,-3.3 -2.14,-6.41 -4.52,-6.47 -2.73,-0.1 -6.89,3.51 -8.58,9.29 z"
     style="fill:#ffffff"
     id="path1070" />
  <path
     d="m 199.54,193.78 a 16.14,16.14 0 0 0 -1.45,3.93 c -1,4.08 -0.68,7.31 0.93,7.71 1.61,0.4 3.61,-2 4.73,-6.43 0.85,-3.41 0.46,-6 -0.38,-7 a 29.65,29.65 0 0 0 -3.83,1.79 z"
     style="fill:#0f141b"
     id="path1072" />
  <path
     d="m 160.1,198.11 a 17.39,17.39 0 0 1 1.59,4.13 c 1.11,4.42 0.76,8.67 -1.28,9.13 -2.04,0.46 -4.6,-2.21 -5.83,-7.11 a 17.89,17.89 0 0 1 -0.53,-6.39 24.51,24.51 0 0 1 6.05,0.24 z"
     style="fill:#0f141b"
     id="path1074" />
  <path
     d="m 155.34,200.08 a 1.5,1.5 0 1 1 -2.8,1.07 1.46,1.46 0 0 1 -0.1,-0.46 1.4926487,1.4926487 0 0 1 2.84,-0.92 1.7,1.7 0 0 1 0.06,0.31 z"
     style="fill:#ffffff"
     id="path1076" />
  <path
     d="m 200.24,197 a 1.45,1.45 0 0 1 -1.93,0.19 1.32,1.32 0 0 1 0.39,-1.72 c 0.69,-0.6 1.49,-0.62 1.83,-0.25 a 1.36,1.36 0 0 1 -0.29,1.78 z"
     style="fill:#ffffff"
     id="path1078" />
  <path
     d="m 157.49,187.21 a 15.14,15.14 0 0 0 -5.07,-3.44 c -1.26,2.68 -2.83,5.91 -4.46,9.15 a 57.12,57.12 0 0 1 9.53,-5.71 z"
     style="fill:#a1b8ce"
     id="path1080" />
  <path
     d="m 213,184.35 c -1.59,-2.93 -3.28,-5.86 -4.22,-7.16 a 13.31,13.31 0 0 0 -5.24,4.07 52.57,52.57 0 0 1 9.46,3.09 z"
     style="fill:#a1b8ce"
     id="path1082" />
  <path
     d="m 208.53,190.61 a 19.32,19.32 0 0 0 4.45,-6 l 1,1.77 a 19.65,19.65 0 0 1 -4.73,6.51 z"
     style="fill:#0f141b"
     id="path1084" />
  <path
     d="m 164.57,200.68 c -3.7,-2.41 -10.36,-2.44 -15.41,-0.85 -1.27,0.41 -1.49,0 -1.23,-1.12 0.51,-2.25 2.33,-6.31 4.67,-6.94 2.52,-0.68 7.85,0.82 11.91,5.27 0.49,0.53 3.49,5.84 0.06,3.64 z m -11.4,-6.78 c -1.06,0.28 -2.08,1.68 -2.77,3.59 a 23.2,23.2 0 0 1 11.93,0.2 c -2.74,-2.86 -7.53,-4.23 -9.16,-3.79 z"
     style="fill:#0f141b"
     id="path1086" />
  <path
     d="m 208.54,193.16 c 0.16,10.36 -5.85,18.78 -11.13,17.29 -3,-0.83 -4.35,-6.77 -2.17,-14.35 l 2,0.55 c -2,7.29 -0.57,11.69 0.67,12 3.44,1 8.83,-6.1 8.38,-16.4 z"
     style="fill:#0f141b"
     id="path1088" />
  <path
     d="m 195.24,196.1 c 1.76,-6.1 6.07,-10.1 9.52,-10.1 3.13,0 5.18,3.89 5.55,7.44 0.12,1.24 -0.42,1.57 -1.47,1 A 10.62,10.62 0 0 0 204,193 c -1.41,0 -5.82,3.19 -7.26,4.26 -1.44,1.07 -1.96,0.41 -1.5,-1.16 z m 9.5,-7.86 c -2.09,0 -4.71,1.91 -6.43,5.52 2.63,-2.08 4.43,-2.89 5.58,-2.89 a 10,10 0 0 1 4.15,1.06 c -0.66,-2.42 -1.89,-3.67 -3.3,-3.69 z"
     style="fill:#0f141b"
     id="path1090" />
  <path
     d="m 163.77,199.51 c -2.36,-5.77 -6.67,-12.66 -11.56,-14.68 l 0.81,-2 c 6,2.46 11.13,10.38 13.37,17.3 2.43,7.53 1.74,14.72 -3.07,16.46 -5.5,2 -14.18,-5.36 -14.45,-17.77 l 2.22,-0.52 c 0,12 8,17.82 11.63,16.51 3.07,-1.1 4.28,-7.35 1.05,-15.3 z"
     style="fill:#0f141b"
     id="path1092" />
  <path
     d="m 151.58,193.5 a 17.55,17.55 0 0 0 -2.17,-3.23 l 1.1,-1.4 a 14.54,14.54 0 0 1 3,3.84 z"
     style="fill:#0f141b"
     id="path1094" />
  <path
     d="m 150.44,203.82 a 25.21,25.21 0 0 1 -5.79,-3.78 l 0.69,-1.57 a 36.34,36.34 0 0 0 4.86,3.1 z"
     style="fill:#0f141b"
     id="path1096" />
  <path
     d="m 154,211.4 a 31,31 0 0 1 -11.74,-7.15 l 1,-2.06 a 33.81,33.81 0 0 0 9.1,6.49 z"
     style="fill:#0f141b"
     id="path1098" />
  <path
     d="m 209.17,178.21 c -4.41,1.66 -8.28,7.7 -10.81,14.32 l -3.15,3.6 c 2.22,-8 6.69,-17.4 12.89,-19.84 z"
     style="fill:#0f141b"
     id="path1100" />
  <path
     d="m 209.69,179 a 31.83,31.83 0 0 1 -3.15,8.82 l -1.95,-0.61 a 67.89,67.89 0 0 0 4,-9.71 z"
     style="fill:#0f141b"
     id="path1102" />
  <path
     d="m 214.68,190.92 c -1.81,4.92 -4,9.09 -8.52,11.61 l 0.39,-2.52 c 2.61,-2.13 4.85,-5.86 6.59,-11.2 z"
     style="fill:#0f141b"
     id="path1104" />
  <path
     d="m 213.4,188 c -7.9,-14.75 -17.74,-28.13 -31.6,-39 l 2.7,-1.17 c 14.12,11.24 23.9,24.91 31.68,40.13 z"
     style="fill:#0f141b"
     id="path1106" />
  <path
     d="m 119,253.72 c 3.81,-11.45 20.72,-30.22 25.35,-34.48 0.5,-0.47 2.19,1.36 1.69,1.83 -4.34,4 -21.7,22.53 -25.31,33.37 -0.18,0.56 -1.95,-0.07 -1.73,-0.72 z"
     style="fill:#0f141b"
     id="path1108" />
  <path
     d="m 139.8,313.89 c -25.8,-22 -29.58,-58.09 -10.18,-90.74 11.07,-18.65 23.21,-39.78 31.52,-62.48 l 3.39,-2 c -8.36,23.53 -21,46.7 -32.47,66 -18.83,31.71 -15.13,65.08 8.59,86.6 z"
     style="fill:#0f141b"
     id="path1110" />
  <path
     d="M 243.7,188.81 Z"
     style="fill:#0f141b"
     id="path1112" />
  <path
     d="M 227.73,185.2 Z"
     style="fill:#0f141b"
     id="path1114" />
  <path
     d="m 243.69,188.81 a 5.88,5.88 0 0 0 -1.63,-3.41 c -3.11,-3.21 -8.91,-3.69 -13.3,-2.64 -2.56,0.62 -2.24,1.91 -0.25,2.78 1.81,0.79 4.44,2 6.69,3 a 38.15,38.15 0 0 1 4,2.11 4.06,4.06 0 0 0 1.15,0.55 4.17,4.17 0 0 0 1.16,0.17 2,2 0 0 0 2.21,-1.76 1.79,1.79 0 0 0 0,-0.61 c -0.02,-0.06 -0.03,-0.12 -0.03,-0.19 z m -3.69,0 c -3.59,-1.78 -9.39,-4.14 -9.83,-4.33 3.36,-0.7 8,0.08 10.33,2.47 a 3.34,3.34 0 0 1 1,1.88 c -0.06,0.39 -0.4,0.52 -1.5,0 z"
     style="fill:#0f141b"
     id="path1116" />
  <path
     d="M 208.53,173.52 Z"
     style="fill:#0f141b"
     id="path1118" />
  <path
     d="M 224.48,177.15 Z"
     style="fill:#0f141b"
     id="path1120" />
  <path
     d="m 224.47,177.15 a 5.91,5.91 0 0 0 -1.42,-3.72 c -2.53,-2.91 -9.38,-2.94 -13.74,-2.2 -2.78,0.48 -3,1 -0.77,2.29 0,0 10.21,5.08 12.28,5.32 h 1.06 a 4.36,4.36 0 0 0 1.67,-0.33 c 0.72,-0.39 0.82,-0.5 0.92,-1.35 z m -11.06,-3.21 c -0.58,-0.34 -2.44,-0.94 -3.09,-1.28 3.12,-0.35 9.41,0.33 11.17,2.25 0.88,1 1.14,1.74 0.88,2 -0.51,0.55 -1.37,0.62 -9,-3 z"
     style="fill:#0f141b"
     id="path1122" />
  <path
     d="M 216.33,191.4 Z"
     style="fill:#0f141b"
     id="path1124" />
  <path
     d="m 220.23,189.19 c -3.1,-1.55 -8.16,-2.1 -8.42,-1.56 -0.4,0.81 3.46,5.92 6.34,6.9 l 1.22,-0.39 a 2.65,2.65 0 0 1 1.92,-3.83 z m -6.66,-0.71 a 21.19,21.19 0 0 1 4.63,1.21 h 0.07 a 5,5 0 0 0 -1.18,1.78 3.94,3.94 0 0 0 -0.14,0.49 15.72,15.72 0 0 1 -3.38,-3.48 z"
     style="fill:#0f141b"
     id="path1126" />
  <path
     d="m 105.89,399.86 a 35.65,35.65 0 0 0 1.84,-3.52 c 1.31,-3.28 0,-3.81 -1.55,-0.65 a 31.9,31.9 0 0 1 -3.49,5.73 c -1.46,1.85 -6,0.07 -5.2,-2.79 0.53,-1.86 2.45,-5.44 3.31,-7.68 1.32,-3.47 -0.11,-4 -1.69,-0.6 -0.71,1.49 -1.56,3.4 -2.25,5.15 A 7.32,7.32 0 0 0 90.61,392 l -2,2.31 a 1.38,1.38 0 0 0 0.56,-0.08 c 3.13,-0.53 6.52,2.31 6.52,5.16 a 4.5,4.5 0 0 0 2.18,3.61 7.1,7.1 0 0 0 5.78,0.19 v 0 a 8.17,8.17 0 0 0 0.79,-0.38 c 2.77,-1.81 4.45,-1.09 5.36,0.93 a 5.4,5.4 0 0 0 0.4,0.75 l 1.16,-2.39 a 4.78,4.78 0 0 0 -5.47,-2.24 z"
     style="fill:#0f141b"
     id="path1128" />
  <path
     d="m 100.9,403.12 a 19.31,19.31 0 0 1 -9.52,5.56 53.83,53.83 0 0 0 5.56,-8.1 c -0.14,-0.38 -0.3,-2 -0.47,-2.53 a 56.43,56.43 0 0 1 -6.1,9.74 c -1.54,2.07 -1.23,2.55 1,2.24 5.47,-0.72 9.8,-4.45 12.32,-8.47 a 25.07,25.07 0 0 1 -2.79,1.56 z"
     style="fill:#0f141b"
     id="path1130" />
  <path
     d="m 113.27,406.07 a 25.88,25.88 0 0 1 -6.32,6.25 61.1,61.1 0 0 0 4.4,-7.65 c -0.12,-0.15 -0.72,-1.05 -1.08,-1.47 a 60.89,60.89 0 0 1 -4.33,8.23 c -1.54,2.41 -0.94,3.31 1.54,2.13 3.18,-1.51 4.56,-3.09 7.76,-7.37 a 2.42,2.42 0 0 1 -1.97,-0.12 z"
     style="fill:#0f141b"
     id="path1132" />
  <path
     d="m 86.82,393 c -3.82,3 -8.36,3.72 -10.19,3.11 2.4,-2.06 5.41,-4.37 7.92,-6.43 a 9.26,9.26 0 0 1 0,-2.68 c -3.33,3.14 -5.56,4.9 -8.41,7.56 -1.42,1.32 -1.56,2 0.06,2.66 2.47,1.07 8.22,0 12.94,-4.11 A 13.82,13.82 0 0 1 86.82,393 Z"
     style="fill:#0f141b"
     id="path1134" />
  <path
     d="m 157.16,277.88 a 30.4,30.4 0 0 0 -8.38,-6.84 c -3.21,-1.6 -5,-0.46 -5,3.52 0,21.05 -3.54,39.31 -10.12,49.89 -11.31,18.21 -30.61,42.26 -48.08,60.33 -2.41,2.5 -3,5 -1.16,7.83 1.58,2.43 5.74,1.27 7.31,-0.28 a 33.44,33.44 0 0 0 3.62,-4.25 c 2,-2.82 3,-3.64 4.1,-3.61 3,0.06 3.14,-1.51 0.39,-1.84 -2.11,-0.25 -3.53,0.5 -6.11,4.06 a 33.49,33.49 0 0 1 -4,4.58 c -1.5,1.44 -2.89,1.09 -3.6,0 a 2.77,2.77 0 0 1 0.46,-3.88 v 0 c 18.35,-17.94 37.78,-42.7 49.32,-61.5 6.5,-10.59 10.42,-29.89 10.42,-51.23 0,-1.54 0.54,-1.67 2,-0.83 a 25,25 0 0 1 6.5,5.57 c 1.85,2.28 1.78,5.44 0.47,9 a 201.59,201.59 0 0 0 -8.94,28.93 c -7.07,30.52 -19.78,74.51 -31.84,87.3 -0.74,0.79 -3,0 -2.82,-1.31 0.28,-2.08 1.6,-4.08 2.18,-6 1.07,-3.51 -0.32,-4 -1.58,-0.51 -0.68,1.84 -1.52,3.85 -2.45,5.87 a 3.51,3.51 0 0 0 0.19,2 4.27,4.27 0 0 0 4.24,1.95 10.42,10.42 0 0 0 2,-0.4 c 13.42,-18 25.57,-59 32.59,-88.37 a 177.09,177.09 0 0 1 8.91,-28.57 c 2.1,-4.93 1.65,-8.6 -0.62,-11.41 z"
     style="fill:#0f141b"
     id="path1136" />
</svg>
