<svg xmlns="http://www.w3.org/2000/svg" xmlns:xlink="http://www.w3.org/1999/xlink" viewBox="0 0 419.4 333.61"><defs><style>.cls-1{fill:#30363a;}.cls-2{fill:#1b1b1e;}.cls-3{fill:#485157;}.cls-4{fill:#3d4449;}.cls-5{fill:url(#linear-gradient);}.cls-6{fill:url(#linear-gradient-2);}.cls-7{fill:#fffdf7;}.cls-8{fill:#232528;}.cls-9{fill:#f19963;}.cls-10{fill:#6dba5a;}.cls-11{fill:#0068b6;}.cls-12{fill:#8b92c7;}.cls-13{fill:#7fccec;}.cls-14{fill:#e73821;}.cls-15{fill:#0f141b;}.cls-16{fill:#8a969d;}</style><linearGradient id="linear-gradient" x1="0.22" y1="132.5" x2="53.82" y2="108.68" gradientUnits="userSpaceOnUse"><stop offset="0" stop-color="#fffdf7"/><stop offset="0.6" stop-color="#485157"/><stop offset="1" stop-color="#485157"/></linearGradient><linearGradient id="linear-gradient-2" x1="315.59" y1="218.37" x2="419.91" y2="195.5" xlink:href="#linear-gradient"/></defs><title>Necrozma</title><g id="Layer_2" data-name="Layer 2"><g id="Layer_4" data-name="Layer 4"><g id="Necrozma"><path class="cls-1" d="M47.25,130.67a312.27,312.27,0,0,0,40.63,27.79A26.41,26.41,0,0,0,98.39,155a154.32,154.32,0,0,0,10-18.8c1.16-20.67,1.86-43.44,1.86-60.14C93.72,68.07,69,57.45,52.85,52.43,47.71,74,45.49,110.23,47.25,130.67Z"/><path class="cls-1" d="M49.53,71.11c.91-6.83,2-13.22,3.32-18.68C61.08,55,71.56,59,82.06,63.4c1.17-8.6,2.29-16.15,3.4-24.74,7.34,4.24,14.37,8,22.16,12-7.36-10.81-16.12-23.18-24.17-34C79,17.86,74.69,19.32,70.13,21c-1.23,4.66-2.55,10-3.79,15.33C58.23,30,49.3,23,41.82,17.33,38.43,21,35,25,31,29.83c3.36,12,6.6,24.16,9.61,36.09C35.74,63.07,30.94,60.38,26.4,58c-3.15,5-6.25,9.87-9.75,15.88,7.6,10.61,19.06,23,30.1,33.47.19-8.14.71-16.81,1.52-25.23,6.46.15,11.58.25,17.7.1C60.32,78.13,54.89,74.65,49.53,71.11ZM64.77,43.16c-.87,3.89-1.66,7.55-2.29,10.64C60,49.28,58,45.67,55.73,41.8Q60.19,42.44,64.77,43.16Z"/><path class="cls-1" d="M240.65,8.43c-44.94,34.29-98.21,94.92-98.21,123.2,52.31-26.54,95.7-44.36,143.74-61.79C278,48.53,258.48,24.31,240.65,8.43Z"/><path class="cls-1" d="M142.44,131.63c0-4.43,1.31-9.65,3.69-15.44l-1.46-.75c-1.06-9.49-2.45-18.71-3.92-26.34a114.81,114.81,0,0,0-10.44-9.55,145.33,145.33,0,0,0-20.47,23.94c0,.21,0,.41,0,.62,5.55-2.08,12.48-4.54,18.29-6.32.54,4.5,1.57,10.74,2.76,16.91-8.59,7.42-14.74,12.78-22.35,19.88,0,.52-.06,1-.08,1.57a154.32,154.32,0,0,1-10,18.8c11.92-9.51,27.13-21.7,36.83-28.82.29.13.59.27.91.4,2.89,3.09,5.61,6,9,9.51,1.3-2,3.08-5,5.11-8.35C147.68,129,145.08,130.29,142.44,131.63Z"/><path class="cls-1" d="M167.89,81a128.31,128.31,0,0,0-5.5-16.18c-1,3.92-1.83,7.7-2.66,11.8,2.25,1.9,4.71,4,6.88,6Z"/><path class="cls-1" d="M215.28,115.24c-.92-12.8-2.87-30.52-5.08-42.2-4.2,13.89-9.64,32.68-13.81,48.86-7.87,3.69-25,11.15-33.08,12.6-1-3.3-3.22-9.21-3.48-11.36-3.07,1.38-5.66,2.61-9.4,4.37-2.94,4.75-6.13,10-8.36,14.1a93.1,93.1,0,0,0,8.58,9.29,81.58,81.58,0,0,1-3.24,8.23c3.94,4.29,6.83,7.27,10.77,11.3-1.58,2.27-3,4.11-5.52,8,3.16,3.94,6,7.35,9.9,12a169.67,169.67,0,0,1-8.23,15.85,139,139,0,0,0,26.8,2.54c8.76-11.65,20.75-25.84,31.35-37.31,22.77-41.16,41.69-80,55.09-110.44C254.34,72.54,233.18,92.32,215.28,115.24Z"/><path class="cls-1" d="M195.78,124.52l.46-2.83c-9.9,5.25-26.19,11.65-33.58,12.93a54.3,54.3,0,0,0-2.44-9.15c-1.27,1.48-2.54,2.79-4,4.26-.41,18.45,7.7,42.16,14.07,53.72a21.75,21.75,0,0,0,3.95,0c-.55-1.63-1-3.31-1.44-5a61.08,61.08,0,0,1,10.33-7.59,103,103,0,0,1-7-11.45,68.66,68.66,0,0,1,8.64-8.23,74.2,74.2,0,0,1-4.91-11.5A170.25,170.25,0,0,1,195.78,124.52Z"/><path class="cls-2" d="M156.24,131.12c0,18.24,7.88,41,14.09,52.33l.63,0c-2.89-11.38-8.39-37-9.21-41.42C161.14,140.93,158.25,135.24,156.24,131.12Z"/><path class="cls-3" d="M159.62,123.12c.5,2.74,2.18,7.37,3.38,11.6,4.88-.78,12-3.57,19.65-6.83-1.57-5.29-2.4-9.8-3.32-14.23C171.81,117.18,164.44,120.7,159.62,123.12Z"/><path class="cls-1" d="M201.27,103.68c-5.43,2.36-13.77,6.16-21.94,10,.92,4.43,1.75,8.94,3.32,14.23,4.76-2,9.6-4.26,14-6.39C198.28,114.46,199.47,110.55,201.27,103.68Z"/><path class="cls-1" d="M213.65,98.09c.53,4.61,1.15,11,1.63,17.15,7.65-9.51,16.7-19.55,23.94-27.49C229.59,91.55,222.35,94.52,213.65,98.09Z"/><path class="cls-1" d="M245.75,107.18c2.61-1,5.67-2.27,8.77-3.65-.49,5.08-1,12.08-1,16.56-4.54.54-10.6,1.63-15.18,2.42C241.46,116.25,243.48,112.06,245.75,107.18Z"/><path class="cls-1" d="M270.51,104.78c6.25-12.89,12.69-26.24,15.59-35.09-7.85,3.1-16,6.1-27.09,10.1-2.1,4.5-3,6.75-5,10.8a70.61,70.61,0,0,1,12-8c2.54,3.84,4.28,6.73,6.66,10.81C271.81,97.73,271.46,100.58,270.51,104.78Z"/><path class="cls-1" d="M200.62,144.23a54.07,54.07,0,0,0,3.11,14.65c16.22-7.35,37.53-17.76,51.81-26a10.65,10.65,0,0,0,2.13.71c6.9,5.89,20.64,19.36,29.24,28.23l7.64-5.55c-8-9.89-21.66-26.6-27.82-34.12,2.92-12.14,4.37-19.93,5.95-28.8-2.51-4.27-4-6.78-6.66-10.81-10.74,5.43-21.19,15.71-31.53,28.73,7.28-2.46,13.65-5,20.19-7.92-.53,5.69-1.09,11.18-1.24,16.45.09,1,.2,2,.31,2.9-14.57,3.5-31.59,8.43-47.06,13.89C204.84,138.85,202.62,141.57,200.62,144.23Z"/><path class="cls-1" d="M310,162.11a137,137,0,0,0-12.7-10.25,153.63,153.63,0,0,0-15.33,9.72,240.71,240.71,0,0,0-27.41,31.18c-6.3,12.52-15.67,35-19.69,51.3a12.4,12.4,0,0,0,1.5,3.82c6.59,6.42,12.83,12.79,19.63,18.59-2.88,3.33-6.68,8.11-10.24,12.94-9.57-4.87-22.55-11.53-32.95-16.85a196.23,196.23,0,0,0,25.34,37,159.94,159.94,0,0,0,16.94-2.33c1.21-1.3,2.43-2.68,3.66-4.11,8,5.7,15.66,10.87,22,15.14,5.6-3.74,10.74-7.12,16.29-10.92.89-8.07,1.68-18.34,2.21-26.95,4.94-2,9.73-4.07,14.33-6.22-.36-7.1-1-13.77-1.75-20.42a85.05,85.05,0,0,0,6.58-11.34C319.33,206,318.19,180.76,310,162.11ZM273.22,274.18c.67,2.86,1.33,5.75,2,8.63l-7.66-.74C269.54,279.4,271.45,276.74,273.22,274.18Z"/><path class="cls-1" d="M225.4,295.14a96.08,96.08,0,0,0,1.33-10,199.58,199.58,0,0,1-14-22.6l6.28,3.22c-1.63-9.49-3-17.54-4.9-26.69-5.89-5.88-12-11-19-16.71.19.55.39,1.09.58,1.65,1.93,8.49,3.33,15.24,4.61,24a69.91,69.91,0,0,1-4.56,5.54,256.89,256.89,0,0,1,13.39,33.51,38.54,38.54,0,0,1-9,1.12,135.33,135.33,0,0,1-6.16-14.67c-1.67,6.79-3.29,12.88-4.34,19.49a82.63,82.63,0,0,0,8.76,8.63A112.41,112.41,0,0,0,212.6,299a129.94,129.94,0,0,1,3.54,16.76A105.45,105.45,0,0,1,204,313.63c3.58,10.12,12.62,16.2,22,19.24a322.16,322.16,0,0,0-1.79-36.75C224.62,295.81,225,295.49,225.4,295.14Z"/><path class="cls-1" d="M154.33,206.25a124.09,124.09,0,0,0,6.1-11.44l-.25-2.69c-3.2.85-8.18,2.26-12.66,3.74-7.39,5.43-16.45,12.44-22.5,17.68a68.34,68.34,0,0,0,15.3,6.1,34.28,34.28,0,0,0,12-5.91,84.49,84.49,0,0,0,7-6.61C157.55,206.85,155.88,206.56,154.33,206.25Z"/><path class="cls-4" d="M147.52,195.86c-7.39,5.43-16.45,12.44-22.5,17.68l.08.05.69-.24,22.81-15.51L160.36,194l-.18-1.9C157,193,152,194.38,147.52,195.86Z"/><path class="cls-1" d="M140.32,219.64q-2.74-.75-5.36-1.67c-14,14.63-25.12,25.39-38.44,35.63a94.23,94.23,0,0,1-8.64-14.33c-1.57,7.94-1,20.17,1.64,27.06,15-6.05,49.39-25.58,68.31-37.52a74.1,74.1,0,0,0-6.07-14.7A34.18,34.18,0,0,1,140.32,219.64Z"/><path class="cls-5" d="M47.1,128.67c-14,4.2-31.35,9.28-46.48,14.52A146.5,146.5,0,0,1,4.74,125.5C15.27,116.34,28,106.26,38,98.69c2.28,2.39,5.6,5.76,8.59,8.51C46.62,113.66,46.6,123.19,47.1,128.67Z"/><path class="cls-6" d="M413.84,192.12c-27.74,0-67.2.79-96.34,1.24a278.48,278.48,0,0,1,.84,39.07,85.05,85.05,0,0,1-6.58,11.34v0c30.56-9.09,68.3-20.67,99.66-30.42a51.41,51.41,0,0,0,7.35-7.17C417.24,201.54,415.63,196.25,413.84,192.12Z"/><path class="cls-3" d="M329.06,211.61c-5.36.28-5.58-1.1-.07-2.35a506.59,506.59,0,0,1,61.89-9.84c6.38-.64,6.31,2.7.71,3.76C368.77,207.52,349.85,210.52,329.06,211.61Z"/><path class="cls-3" d="M346.12,217.79c-5.33.55-5.67-1.11-.16-2.35,15.67-3.5,31.7-6.56,48-8.78,4.61-.63,4.52,1.83.66,2.75A367.47,367.47,0,0,1,346.12,217.79Z"/><path class="cls-3" d="M12.88,122.34c-2.87,1.63-2.42,2.74.7,1.58a307.07,307.07,0,0,0,30.51-13.57c2.92-1.52,1.82-4.27-1.52-2.92C32.59,111.46,22.14,117.12,12.88,122.34Z"/><path class="cls-3" d="M37.73,120.91c3.78-1.61,2.8-3.82-.82-2.62a159.43,159.43,0,0,0-25.46,10.86c-3.52,1.86-3.25,2.58.65,1.4A257.06,257.06,0,0,0,37.73,120.91Z"/><path class="cls-2" d="M211.82,155c-3.86,4.5-6.61,7.8-11.24,12.36a107.78,107.78,0,0,1-1.54-21c.51-.67,1-1.33,1.51-2,.32,4.29,1.51,10.7,3.23,14.32A84.28,84.28,0,0,0,211.82,155Z"/><path class="cls-2" d="M215.82,133.48c-.13-2.16-.28-3.81-.47-5.51-2.77,2.61-5.54,5.49-8,8.29C210.37,135.23,213.52,134.29,215.82,133.48Z"/><path class="cls-2" d="M85.6,38.68l-11-6.35-1.93,8.79L77.34,45,72,44.28,69.28,58.2c4.51,1.78,8.6,3.48,12.57,5.22C83.1,55.26,84.77,44.16,85.6,38.68Z"/><path class="cls-2" d="M63.68,55.91l-8-14.14-15.11-2,9.11,29.69c1-6.35,2-12.48,3.06-17C57.46,53.77,59.26,54.38,63.68,55.91Z"/><path class="cls-2" d="M48.26,82.08C43.18,81.83,35.75,81.45,31,81A110.68,110.68,0,0,0,47.1,97.62C47.38,92.64,47.82,86.59,48.26,82.08Z"/><path class="cls-2" d="M80.23,74.37A314.55,314.55,0,0,1,53.09,52.48a143.79,143.79,0,0,0-3.68,18.77c6.75,4.26,10.69,6.76,17,11-5.31.1-11.42.13-18.1,0-1.24,16.42-2.2,35.25-1,48.56,8.67-4.55,20.5-10.07,29.52-13.92C77.26,104.83,78.46,87.43,80.23,74.37Z"/><path class="cls-2" d="M76.82,116.83c11.12-11.3,27-31,33.19-40.47-.09,22.08-.26,39.42-1.49,59.82-3.94,8.15-5.6,11.56-9.89,18.22C92.15,146.34,82.25,128.39,76.82,116.83Z"/><path class="cls-7" d="M76.82,116.83c11.12-11.3,27-31,33.19-40.47-9.46-.61-19.72-1.19-29.78-2C78.48,88.89,77,103.6,76.82,116.83Z"/><path class="cls-2" d="M109.55,104.16a193.42,193.42,0,0,1,23.53-14.38c1.38-.7,1.87-.44,2.2,1a148.65,148.65,0,0,1,3,23.06,48.26,48.26,0,0,0-4.16,11.32l-1.1-.24a254.13,254.13,0,0,1-5-27C122.46,99.82,115.67,102.08,109.55,104.16Z"/><path class="cls-2" d="M105.24,143.05c9.81-8,18.21-14.73,27-21.89l.76,3.75,2.41,1c-9.56,7.36-26.74,21-36.68,28.86A115.45,115.45,0,0,0,105.24,143.05Z"/><path class="cls-2" d="M136.17,118.38a61.55,61.55,0,0,0,7.55,4.26,28.46,28.46,0,0,0-1.22,8.78c2.26-1,4.58-2.19,7.42-3.61-1.74,3.23-2.52,4.91-4.65,8.2-4.58-4.71-7.23-7.49-11.1-11.69A24,24,0,0,1,136.17,118.38Z"/><path class="cls-2" d="M172.85,178.61a80.69,80.69,0,0,0,15.06.82c.64-.05.65-.25.37-.92a40.84,40.84,0,0,0-4.58-8.31c-1.5-2.08-5.76-7.46-7.69-10.79a71.48,71.48,0,0,0,12.27,1.78c.64,0,.84-.1.66-.69a64.1,64.1,0,0,0-3.74-10.15c-1.63-3.27-4.06-7.79-4.93-10.63A114.52,114.52,0,0,0,192.42,141c.65,0,.91-.13.89-.73-.17-4.08-.32-9.21-.35-13.31a66.41,66.41,0,0,0,5.86-5.11,349.59,349.59,0,0,0,11.6-47.56c2.34,13.81,4.33,32.87,5.23,46.63.06.85.29.9.92.12,11.73-14.49,33.06-38.83,50.33-58.72C262.11,72.92,258.2,82,253.76,91a146.57,146.57,0,0,0-18.94,20c3.15-1,7.35-2.27,11-3.76-2.63,5.43-6.31,13.53-10.12,20.23-6.09,1.75-13.42,3.87-19.87,6-.1-1.81-.19-3.69-.4-5.49A131.94,131.94,0,0,0,199,146.37c-.13,7.85,0,13.66,1.54,21,3.49-3.58,7.86-8.35,11.24-12.36,4.69-2.12,8.41-3.66,12.22-5.54-4.42,8.45-7.53,14.5-11.43,21.9-9,10-20.44,23.55-31.49,37.46-8.91-.2-18.71-.83-26.68-2.6,7.71-3.75,16.78-9.75,22.25-16.57A88.86,88.86,0,0,1,172.85,178.61Z"/><path class="cls-2" d="M176.48,189.57c-2.88,0-6.9-.23-11.06-.38-1,.48-1.72.77-2.78,1.25-2.92-3.5-6.92-8.35-9.74-11.61,1.81-1,4.33-2.73,6.47-4.24.31-.23.36-.43.27-.94-.24-1.29-.45-2.31-.7-3.28a98.8,98.8,0,0,1-11.33-11.12,41.59,41.59,0,0,0,4.16-1.86.75.75,0,0,0,.49-.9c-.3-2.12-.51-3.51-.91-5.8a89,89,0,0,1-9.23-9.19c2.52-4.59,5.55-9.37,8-13.67,3.36-1.75,7.1-3.62,9.64-4.81.14.49.12,1.66.5,2.16-1.87,2.16-1.76,2-4,4.49-.49,15.8,7.13,43.21,14,53.81a20,20,0,0,0,3.76-.06C175.08,185.85,175.62,187.3,176.48,189.57Z"/><path class="cls-2" d="M147.64,195.8c2.74,4.41,3.27,14.39-6.1,18.13,4.34,0,7.7.07,10.52-.08a64,64,0,0,0,6.93-6.63c-1.56-.26-3.19-.64-4.61-.84,1.85-3.49,4.32-8.32,6.05-11.73l-.28-2.57C156,193.13,152.72,194.32,147.64,195.8Z"/><path class="cls-8" d="M147.64,195.8a11,11,0,0,1,1,2h0L160.36,194l-.21-1.94C156,193.13,152.72,194.32,147.64,195.8Z"/><polygon class="cls-2" points="159.94 187.21 160.45 194.66 162.67 190.43 159.94 187.21"/><path class="cls-2" d="M151.79,214.39c-12.62,10.38-39.34,31.94-56.11,42.83-.73.48-1,.44-1.41-.2a41.18,41.18,0,0,1-6.33-17.29c-1.69,6-1.17,18.4,1.58,26.39,20.08-8.58,51.67-26.59,68.14-37.45A76.92,76.92,0,0,0,151.79,214.39Z"/><path class="cls-2" d="M196.54,223.59c4.12,12.17,15.33,49.92,17.69,64.37l.44-2.95,1.8-.76c-.81-6.07-1.22-9.4-1.8-14.25a21,21,0,0,1,3.15,1.66c-2-3.42-3.06-5.26-4.95-9l6.12,3c-1.6-9.81-2.83-16.38-4.84-26.45A194.21,194.21,0,0,0,196.54,223.59Z"/><path class="cls-2" d="M194.09,274.18c.29,5.84.64,11.45,1.34,16.88a20.51,20.51,0,0,0,4.62,4.32,135.43,135.43,0,0,0,13.54-2.51c-.35,2.27-.64,4-1.11,6.19a124,124,0,0,1-13.84,2.62,87,87,0,0,1-9-8.81A144.48,144.48,0,0,1,194.09,274.18Z"/><path class="cls-2" d="M216.92,295.84c1.6,6.48,3.09,13.58,4.05,20.29a149.06,149.06,0,0,1-16.7-2.36c2.1,8.06,13,17.17,21.76,19a293.87,293.87,0,0,0-1.87-36.5,14.84,14.84,0,0,1-2.91,1.75A28.2,28.2,0,0,1,216.92,295.84Z"/><path class="cls-2" d="M214.92,270.15c2.15,3.85,5.18,9,7.23,12.88,0,2.48-.15,4.75-.33,7.05a40.89,40.89,0,0,1-8.09,2.7,19.33,19.33,0,0,0,7.41,5.25,11.73,11.73,0,0,0,4.17-3.06c.61-3.42,1.08-6.12,1.4-9.78-2.73-4-6.33-9.64-8.74-13.42A25.44,25.44,0,0,0,214.92,270.15Z"/><path class="cls-2" d="M247.82,285.2c-2.58,4.07-6.09,9.46-9.59,14.19a106.57,106.57,0,0,0,17-2.28,39.09,39.09,0,0,0,3.54-3.94C255,290.41,252,288.05,247.82,285.2Z"/><path class="cls-2" d="M269.5,259.23c-4.12,6.66-8.94,14.59-13.84,21.72,3.5.31,7.71.71,11.78,1.14,2.14-2.89,3.77-5.16,5.69-8C272,269.17,271,265.19,269.5,259.23Z"/><path class="cls-2" d="M286.64,268.55c.16,4.2.4,10.24.4,15.45-1.61,7.68-3.89,16-6.37,24.21,4.24-2.48,11.93-8,16.17-10.93,1-9.28,1.84-18.93,2.36-26.85a52.67,52.67,0,0,1-6.68,2.52C290.36,271.43,289.2,270.55,286.64,268.55Z"/><path class="cls-2" d="M281.79,241.69c0,.08-1.21,4.46-1.21,4.46l3.59.55Z"/><path class="cls-2" d="M287,219.65c4,10.74,7.36,20.08,9.75,29.54.24,7.13-1.54,17.45-4.27,23.76C299,270.5,307,267.12,313.38,264c-.59-9.34-1.17-15.35-2.11-24.11C303.74,232.67,296.44,226,287,219.65Z"/><path class="cls-2" d="M280.58,246.15a396.93,396.93,0,0,0,9.91-49.33c-8.94-1.52-22.31-3-35.79-4.26-1.76,10.8-4.67,33.51-5.84,43a120.24,120.24,0,0,0,9.83,7.43C266,243.77,273.23,244.85,280.58,246.15Z"/><path class="cls-2" d="M258.45,242.72c-2.9-2-6.29-4.58-9.53-7-3.67,3.24-8.39,7.72-12.49,12.06,6.1,6.1,12.92,12.92,19.64,18.5A160,160,0,0,0,273,257.11c-4.14-3.38-11.1-9.58-15.92-14.35Z"/><path class="cls-7" d="M254.26,193.68c-1.67,11.55-3.42,25.93-5.4,41.85-4.54,4.3-8.15,7.73-12.43,12.29a6.79,6.79,0,0,1-1.61-3.64C239.23,228.53,245.94,209.4,254.26,193.68Z"/><path class="cls-2" d="M297.25,152c-1.18,12.33-3.73,29.46-6.76,44.83,11.2,11.38,20.63,24.17,28.06,35.32,1-30.29-1.54-54.31-8.52-70.09A124.24,124.24,0,0,0,297.25,152Z"/><path class="cls-2" d="M234.9,127.74a73.63,73.63,0,0,0-3.62,7.51c.46,1.26,1.11,2.75,1.79,4.15.22.45.64.43,1.1.22a175,175,0,0,0,20.31-10.71,40,40,0,0,0,1,4c-14.14,8.1-37.26,19.31-51.76,26a61.23,61.23,0,0,1-3.17-14.47c2.78-3.53,4.88-6,6.55-8.13C216.29,133.25,227.85,129.77,234.9,127.74Z"/><path class="cls-2" d="M259.48,129c7.3,7.3,20.62,20.09,28.09,28.73l-2.8,1.87c-8.88-8.94-18.4-18.34-27-25.93C258.37,132,258.78,130.78,259.48,129Z"/><path class="cls-2" d="M266,82.85c-.33,4.69-.56,9.63-.83,15.18a.89.89,0,0,1-.76,1,67,67,0,0,0-7.34,2.64l-2.38,1.79c-.57,5.73-1,10.91-1.22,16.52a104,104,0,0,0,2,13l2.31.74A67.1,67.1,0,0,1,263.5,121l3.19,1.05c2-8.76,4.08-19,6-28.47C270.55,89.59,268.39,85.47,266,82.85Z"/><path class="cls-2" d="M254.65,103.42c-2.84,1.23-5.3,2.37-8.84,3.82-2.63,5.87-4.43,9.37-7.36,15.06,3.85-.61,10.82-1.66,15-2.36C253.64,114.73,254,109.28,254.65,103.42Z"/><path class="cls-2" d="M286,69.93c-8.35,2.83-17.56,6.26-26.94,9.84-2.05,3.93-3.29,7.08-5,11a72.91,72.91,0,0,1,11.85-8.18c2.16,3.19,4.57,7,6.73,10.84-.35,2.33-.85,5.27-1.45,9.34C276.07,93.3,282.3,79.66,286,69.93Z"/><path class="cls-2" d="M239.11,87.87c-8.11,3-15.89,6.25-25.34,10.33.65,5.53,1.15,10.74,1.46,16.63C221.21,107.72,231.71,95.34,239.11,87.87Z"/><path class="cls-2" d="M201.23,103.64c-5.71,2.62-13.77,6.2-21.88,10.06a125.84,125.84,0,0,0,3.3,14.22c5.26-2.4,8.66-3.8,13.87-6.48C197.88,115.55,199.56,109.71,201.23,103.64Z"/><path class="cls-9" d="M169.61,124.93c-.78-2.05-1.48-3.7-2.34-5.55-1.91.91-3.68,1.77-5.28,2.56A68,68,0,0,0,169.61,124.93Z"/><path class="cls-10" d="M164.61,125.22a19.18,19.18,0,0,1,3.35,2.86c-.79,1.54-1.51,2.74-2.37,4.17A38.56,38.56,0,0,1,164.61,125.22Z"/><path class="cls-11" d="M171.47,128c-.67,1.56-1.28,3.21-1.85,4.81,1.43-.46,2.94-1,4.5-1.56C173.11,129.94,172.34,129,171.47,128Z"/><path class="cls-12" d="M178.63,123.46c-1,1-2.14,2.17-3.24,3.44.29,1.08.66,2.25,1.1,3.5l2.76-1.09A51,51,0,0,0,178.63,123.46Z"/><path class="cls-13" d="M170.6,122.87a6.14,6.14,0,0,0,1.29-.74,24.49,24.49,0,0,0-.47-4.74l-2.72,1.3A20.73,20.73,0,0,0,170.6,122.87Z"/><path class="cls-14" d="M172.5,116.88a29.08,29.08,0,0,0,1.51,5.27,44.64,44.64,0,0,0,4.45-8.08C176.44,115,174.44,116,172.5,116.88Z"/><path class="cls-15" d="M167.71,119.13c.85,1.84,1.49,3.43,2.18,5.26.35.92.17,1.15-.9.8a63.69,63.69,0,0,1-7.64-3l1.16-.56c1.88.88,3.93,1.69,6.35,2.57-.71-1.7-1.25-2.94-2.07-4.66Z"/><path class="cls-15" d="M165,132a41.6,41.6,0,0,1-.91-6.4c-.07-1,.26-1.2,1.13-.55a23.76,23.76,0,0,1,2.9,2.54.65.65,0,0,1,.11.91c-.68,1.32-1.31,2.44-2,3.63S165.26,133,165,132Zm.16-5.76a33.32,33.32,0,0,0,.62,4.64,23.13,23.13,0,0,0,1.62-2.73A17.66,17.66,0,0,0,165.18,126.25Z"/><path class="cls-15" d="M169,133c.64-1.77,1.25-3.37,1.94-4.95.32-.72.52-.75,1.06-.14.87,1,1.57,1.85,2.61,3.16l-1,.39c-.78-1-1.31-1.77-2-2.61-.54,1.32-.93,2.52-1.39,3.78Z"/><path class="cls-15" d="M176,130.58c-.39-1.14-.69-2.18-1-3.24a.88.88,0,0,1,.27-1c.83-1,1.78-2,2.74-2.91.65-.64.94-.54,1.1.37a51.32,51.32,0,0,1,.61,5.31l-1,.46a48.32,48.32,0,0,0-.43-5.14c-.9.91-1.58,1.72-2.36,2.61.28,1,.56,1.89,1,3.2Z"/><path class="cls-15" d="M171.89,117.18a22.36,22.36,0,0,1,.45,4.75.77.77,0,0,1-.37.68,7.64,7.64,0,0,1-1,.61c-.44.21-.64.08-.86-.3a25.06,25.06,0,0,1-1.85-4l.91-.44a25.84,25.84,0,0,0,1.62,3.83,4.56,4.56,0,0,0,.67-.39,26.65,26.65,0,0,0-.49-4.33Z"/><path class="cls-15" d="M179.08,113.88a45.8,45.8,0,0,1-4.47,8.16c-.56.84-.84.7-1.17-.09a29.1,29.1,0,0,1-1.41-4.89l.94-.44a34.29,34.29,0,0,0,1.14,4.54,46.61,46.61,0,0,0,3.71-6.84Z"/><path class="cls-16" d="M238.58,88.69c-8.43,3.37-16.64,6.77-24.74,10.23l-.18-1.41c8.75-3.75,17.64-7.43,26.81-11.1Z"/><path class="cls-16" d="M259.55,78.94c8.23-3.15,16.73-6.33,25.59-9.57C276.31,46.56,255.75,23,240.63,9.46c-45.8,34.91-96.46,94-97.54,121.13,20.08-10.18,39-19.22,58.39-27.77l-.4,1.65c-19,8.42-37.68,17.31-57.23,27.2-1.86,1-2.16.75-2.08-1.13C143,102.43,194.19,43,239.88,8.09c.72-.56.91-.52,1.52,0,15.3,13.75,36.29,37.9,45.38,61.08.38,1,.21,1.21-.57,1.49-9.54,3.43-18.68,6.8-27.54,10.17Z"/><path class="cls-16" d="M219.51,38.14a487.82,487.82,0,0,1,32.17,37.35l-1.15,1.09a457.81,457.81,0,0,0-32-37.44Z"/><path class="cls-16" d="M207,83.68c-4.86-5.56-10-11.06-16.65-17.51l.83-1c6.36,6.11,11.47,11.49,16.25,16.9Z"/><path class="cls-16" d="M212.6,88.08c2.05,2.42,4.09,4.9,6.22,7.49a1.07,1.07,0,0,1,.24,1.14c-.92,4.6-2,9.24-3.93,16.32l-.38-3.35c1.48-5.81,2.17-9.06,2.9-13.31-1.63-2-3.2-3.91-4.75-5.77Z"/><path class="cls-16" d="M168,93.18A214.36,214.36,0,0,1,186.22,110c.37.39.39.54.3,1.22a157.9,157.9,0,0,1-3.05,16.37l-1.42.64c1.47-6.63,2.21-11,3.06-17.38a222.32,222.32,0,0,0-17.93-16.65Z"/><path class="cls-16" d="M159.12,76c.83-4.12,1.5-7,2.37-10.57.51-2.07,1-2.06,1.91,0a126.38,126.38,0,0,1,5.07,14.85l-1.17,1.27a145.34,145.34,0,0,0-4.75-14.6c-.82,3.27-1.29,5.6-2.2,10.11Z"/><path class="cls-16" d="M196.25,122.45c-10.46,5.09-23.49,10.53-31.59,12.41-1.73.4-2.14.32-2.51-.81-1.08-3.3-2.3-7.67-3.33-10.59l1.41-.72c.91,2.64,2.07,6.9,3.38,11,7.93-1.46,21.9-7.54,33.13-13.17Z"/><path class="cls-16" d="M182.05,128.15c-1.34-5-2.54-10-3.31-14.33l1.24-.47c.75,4.44,1.87,9.61,3.14,14.34Z"/><path class="cls-16" d="M194.67,125.42c5.2-19.92,10.16-37.13,14.16-50.26,1.32-4.33,1.78-4.06,2.48.28a407.74,407.74,0,0,1,4.54,41.09c.16,2.93-.74,3-.95.06C214,103.79,212.14,87.94,210,76c-3.61,11.7-8.44,28.42-13.39,47.84Z"/><path class="cls-16" d="M252.45,92.09c4.7-9.8,9.14-19.35,13.23-28.51-11.2,10.11-31.55,29-50.3,52.91l-.24-2.37c16.61-21.21,35.72-39.37,49.74-51.7,3.77-3.31,4.15-3,2.25,1.33q-5.58,12.68-11.8,25.92Z"/><path class="cls-16" d="M234.77,127.7c3.46-6.75,6.84-13.48,10.13-20.13l2.31-.95q-4.94,10.13-10.13,20.35Z"/><path class="cls-16" d="M226.07,148.21q-6.25,11.85-12.71,23.51a2.81,2.81,0,0,1-.38.53c-10.81,11.72-22.84,25.9-31.17,36.95a.85.85,0,0,1-.83.41,153.38,153.38,0,0,1-26.57-2.53c-1.1-.21-1.14-.64-.67-1.42,2.68-4.46,5.85-10.79,7.95-15.16-3.46-4.07-6.14-7.18-9.51-11.21-.54-.64-.6-.94-.1-1.64,1.81-2.56,3.78-5.31,5.08-7.16-3.55-3.63-6.25-6.3-10.18-10.48-.56-.59-.59-.79-.23-1.6a70.87,70.87,0,0,0,3-7.3,108.64,108.64,0,0,1-8.22-8.69c-.52-.61-.52-.81-.11-1.55,1.82-3.23,4.52-7.52,7.8-12.85l2.3-.81c-3.72,6-6.55,10.83-8.46,14.3a84.31,84.31,0,0,0,7.84,8.54c.53.52.61.73.39,1.4a77.39,77.39,0,0,1-2.94,7.52c3.68,4.16,6.33,6.91,10.14,10.74.53.53.61.74.22,1.3-1.16,1.65-3.52,5-5,7.35,3.22,4,5.8,7.23,9.26,11.31.42.5.49.7.21,1.28-2.14,4.41-5.15,10.59-7.69,14.78A130.69,130.69,0,0,0,180.73,208c8.38-11.14,20.13-25.15,31-36.95,3.87-7,7.72-14.11,11.5-21.23Z"/><path class="cls-16" d="M159.69,195.34c-.21-3.32-.35-5.84-.33-8.45l1.59,1.6c.07,1.35.14,3,.21,4.86Z"/><path class="cls-16" d="M154.44,205.37a69.29,69.29,0,0,0,21.39-15.75A70,70,0,0,1,172,178.9c-.2-.78-.12-1,.43-1.44a72.48,72.48,0,0,1,9.57-6.92A108.35,108.35,0,0,1,175.42,160c-.35-.66-.32-.85.2-1.44a75.12,75.12,0,0,1,8.17-7.69,77,77,0,0,1-4.64-10.71c-.21-.63-.14-.83.32-1.34,4-4.51,10.32-10.24,18.79-17.35a81.79,81.79,0,0,0,3.23-9.71c.86-3,1.53-2.8.87.24a91.58,91.58,0,0,1-2.66,9.87,1.21,1.21,0,0,1-.42.65,179.23,179.23,0,0,0-18.48,17.31,71.54,71.54,0,0,0,4.53,10.69c.35.7.23.93-.27,1.34a69,69,0,0,0-8,7.64,102.47,102.47,0,0,0,6.6,10.63c.46.68.45,1-.28,1.44a60.91,60.91,0,0,0-9.7,7.09,64.3,64.3,0,0,0,3.63,10.58c.28.66.25.79-.2,1.29A73.68,73.68,0,0,1,155,206.72Z"/><path class="cls-16" d="M191.17,128.66a144.13,144.13,0,0,1-23,11.37c-2.69,1-3.1.29-.29-.88A169.67,169.67,0,0,0,194.76,125Z"/><path class="cls-16" d="M174.45,184.11a21.44,21.44,0,0,1-3.86,0c-.66,0-.75-.16-1-.63-6.05-11.17-14.41-34.9-14.1-53.47a1.23,1.23,0,0,1,.48-1.12c1.3-1.33,2.6-2.65,3.88-4.14.26-.3,1,1,.59,1.45-1.14,1.35-2.21,2.53-3.5,3.82-.25,18.62,7.74,41.66,13.79,52.74a18.5,18.5,0,0,0,3.34,0Z"/><path class="cls-16" d="M169.45,178.94a341.32,341.32,0,0,1-7.59-34.42c-.34-2.21.53-2.33.92-.13,1.88,10.79,5.36,26,7.6,34.3C171.18,181.61,170.28,181.82,169.45,178.94Z"/><path class="cls-16" d="M156.77,129.38a94.07,94.07,0,0,0,4.07,9.86c1.31,2.76.56,3.13-.82.48a67.72,67.72,0,0,1-4-8.66Z"/><path class="cls-16" d="M180.26,139c2,.4,3.68.68,6,1,1.93.3,1.85,1-.1.89a46.78,46.78,0,0,1-6.12-.69Z"/><path class="cls-16" d="M176.47,158.76a41,41,0,0,0,6.11,1.41c2.57.43,2.54,1.1-.09.89a34.5,34.5,0,0,1-6.1-1Z"/><path class="cls-16" d="M220.19,115.29c5-5.93,9.44-11,14.69-16.89,2.17-2.43,2.82-1.85.7.62-5,5.87-9.57,11.15-14.6,17.09C218.92,118.53,218.08,117.79,220.19,115.29Z"/><path class="cls-16" d="M133.6,124A55.2,55.2,0,0,1,138,112.4c.29-.56.48-.6,1.11-.32,2.43,1.06,4.87,2.24,7.23,3.47l-.44,1.27c-2.39-1.27-4.49-2.32-7-3.41a47.53,47.53,0,0,0-4,10.87c2.9,3.09,7.25,7.71,10.7,11.27l-.84,1.18c-3.44-3.54-8-8.56-10.95-11.71C133.48,124.66,133.47,124.51,133.6,124Z"/><path class="cls-16" d="M143.93,115.08c-1-9-2.32-17.84-3.81-25.6a123.17,123.17,0,0,0-9.77-9.08,148.17,148.17,0,0,0-19.65,22.81c3.66-1.37,10.47-4,16.85-5.95.82-.26,1.14-.14,1.26.84.92,7.24,2.93,18.29,4.85,26.47a12,12,0,0,0,1.8,1l1.31,1.84a34.69,34.69,0,0,1-3.84-1.68,1.09,1.09,0,0,1-.59-.84c-1.93-8.27-3.89-19.09-4.79-26.28-5.15,1.55-10.88,3.54-16.19,5.49-2.59,1-2.85.21-1.37-1.9a142.61,142.61,0,0,1,19.54-22.9c.61-.57.83-.57,1.53,0a112.47,112.47,0,0,1,9.92,9,1.42,1.42,0,0,1,.45.86c1.5,7.88,2.93,17.45,3.93,26.56Z"/><path class="cls-16" d="M137.2,107.59c-.59-5-1.15-9.55-1.91-14.56-.38-2.53.43-2.69.93-.19a137,137,0,0,1,2.12,14.69C138.62,110.53,137.54,110.57,137.2,107.59Z"/><path class="cls-16" d="M131.26,80.07A55,55,0,0,1,134,85.18c1,2.18.31,2.47-.81.4-1-1.85-2.15-3.78-3.42-5.82Z"/><path class="cls-16" d="M49,82.18c-1.62,17.45-2,36.13-1,48.09a323.79,323.79,0,0,0,40,27.47,28,28,0,0,0,10-3.27,163.23,163.23,0,0,0,9.75-18.5c1.14-20.27,1.65-42.68,1.66-59.33-16.26-8-40.39-18.4-56.09-23.4A179.86,179.86,0,0,0,50.1,71.69L48.82,71c.89-6.64,2-12.93,3.27-18.44.19-.85.37-1,1.25-.71C69.4,56.8,94.27,67.51,110.47,75.25c.46.22.59.35.59,1,0,16.58-.62,39.38-1.93,59.68a1.66,1.66,0,0,1-.17.72A132.62,132.62,0,0,1,99.09,155a1.53,1.53,0,0,1-.68.65,28.32,28.32,0,0,1-10.06,3.58,1.37,1.37,0,0,1-1.12-.21A318.78,318.78,0,0,1,47,131.62a1.25,1.25,0,0,1-.68-1.22c-1-12.11-.55-30.61,1.19-48.3Z"/><path class="cls-16" d="M75.94,116.63a400.38,400.38,0,0,1,3.57-42.27c.07-.48.26-.84,1-.76,7.63.75,20.22,1.66,29.15,1.77,1.11,0,1.31.73.77,1.5a334.55,334.55,0,0,1-33,40.32C76.76,117.85,75.92,117.5,75.94,116.63Zm4.91-41.58a358,358,0,0,0-3.36,40C87,105.44,97.61,92.3,109.07,76.62,100.1,76.49,88.43,75.8,80.85,75.05Z"/><path class="cls-16" d="M79.83,74.83A260,260,0,0,1,52.48,53l1.2-.6A261.86,261.86,0,0,0,80.74,73.78Z"/><path class="cls-16" d="M47.16,130c8.51-4.44,20.69-10.06,29.29-13.89l.55,1.37c-8.9,3.92-20.63,9.17-29.26,13.62Z"/><path class="cls-16" d="M77.35,116.44c6.16,12.49,13.39,26.84,21.6,37.85l-1,.77c-8.4-11-15.71-25.38-21.89-37.89Z"/><path class="cls-16" d="M108.53,133.69c7.6-7.08,13.62-12.38,22.18-19.76l.3,1.63c-8.57,7.39-13.9,12-22.53,20Z"/><path class="cls-16" d="M136.07,126.45c-9.28,6.81-25,19.19-37.37,29l.2-2c11.55-9.31,26.27-20.9,35.56-27.74Z"/><path class="cls-16" d="M72.63,44.47c-.94,4.68-1.88,9.67-2.72,14L68.62,58c.81-4.21,1.76-9.12,2.71-13.78Z"/><path class="cls-16" d="M65.71,35.79c1.14-4.87,2.38-9.94,3.65-14.74.15-.55.28-.66.86-.87,5-1.82,8.84-3.13,12.7-4.25.7-.2.82-.14,1.22.4,7.21,9.73,15.17,21,22.81,32.25,2,2.94,1.89,3.35-1.52,1.61C94.83,44.78,86.18,40.05,75,33.28c-.57,2.33-1.19,5.24-1.84,8.4L72,40.81c.67-3.19,1.31-6.14,1.88-8.51.19-.81.57-1,1.15-.62,11.35,6.89,20.32,12,30.7,17.3C98.32,38.11,90.49,27.31,83.16,17.42c-4,1.14-7.57,2.38-12.45,4.2-1.29,4.87-2.57,10.1-3.73,15.13Z"/><path class="cls-16" d="M65.51,43.25c-1,4.43-1.83,8.47-2.45,11.66l-1.1-2c.56-2.82,1.27-6.17,2.08-9.8Z"/><path class="cls-16" d="M74.05,32.52c-1.54-3.63-2.88-7-4.27-10.71l.87-1c1.6,4.19,3,7.46,4.56,11.22Z"/><path class="cls-16" d="M83.85,17A139.15,139.15,0,0,0,75.2,32.49L74,31.94a127.25,127.25,0,0,1,8.64-15.29Z"/><path class="cls-16" d="M81.32,63.07C82.47,54.64,83.61,47,84.78,38.3l1.33.74C85.05,47.11,84,54.86,82.73,63.69Z"/><path class="cls-16" d="M39.61,65.32c-2.82-11.17-5.94-22.76-9.35-34.95a1,1,0,0,1,.24-1.19C34.82,24,38.14,20.13,41,17c.54-.57.85-.63,1.67,0,10.64,8.06,24.06,18.8,33.52,26.3,2.74,2.17,2.58,2.64-.69,2.12-12.59-2-23.2-3.6-34-4.9,2.23,7.82,5.31,17.89,8.51,27.69l-.5,2.66C45.74,59.47,42.61,49.41,40,40.27c-.3-1.05-.16-1.29.94-1.15,12,1.56,23.22,3.2,34.52,5.12-9.53-7.46-22.66-17.74-33.54-26C39,21.4,36.24,24.65,31.75,30.05c3.6,12.51,6.53,23.76,9.6,36.28Z"/><path class="cls-16" d="M40.12,40.25a57.85,57.85,0,0,1-9-9.28l.25-1.58A63.25,63.25,0,0,0,41,39.3Z"/><path class="cls-16" d="M42.36,17.69a124.38,124.38,0,0,0-1.14,22.05H39.94a113.5,113.5,0,0,1,1.2-22Z"/><path class="cls-16" d="M62.74,55.84c-2.19-3.94-5.85-10.61-7.94-14.2l1.77.26c2,3.4,6.15,10.83,8.23,14.57Z"/><path class="cls-16" d="M64.53,83c-11.25,0-20.94-.26-32.17-1.22C37.18,87.7,41,91.21,47.17,96.91l-.1,1.79c-7-6.48-11.61-10.85-16.77-17.28-.51-.64-.29-1.18.84-1.08,13.25,1.2,23,1.35,33.27,1.41A435.71,435.71,0,0,0,26.65,59c-3.17,5-5.81,9.22-9.15,14.93C24.42,83.51,34.8,95,46.79,106.44l-.06,2C34.57,96.88,23.26,84.48,16.19,74.56c-.39-.53-.38-.66,0-1.23,3.24-5.55,6.33-10.52,9.42-15.39.47-.75.76-.78,1.51-.38a429.77,429.77,0,0,1,38,23.11C68.25,82.8,68,83,64.53,83Z"/><path class="cls-16" d="M30.7,81.64a55,55,0,0,1-13.44-6.59l-.4-1.7a57.65,57.65,0,0,0,14.23,7.08Z"/><path class="cls-16" d="M27,58.26A127,127,0,0,0,31.5,80.89l-1.25.26a120.72,120.72,0,0,1-4.4-22.55Z"/><path class="cls-16" d="M47.1,129.45c-13.08,3.86-30,8.74-45.46,14.09-1.55.53-1.8.18-1.56-1,1.34-7,2.24-10.87,3.84-17a1.12,1.12,0,0,1,.49-.78c10.23-8.66,21.7-18.06,33.06-26.61l1.05,1.12c-11.43,8.6-23.31,18.07-33.17,26.6a154,154,0,0,0-3.91,16.36c15-5.18,32.29-10.44,45.57-14.4Z"/><path class="cls-16" d="M212.79,154.78c-4,4.8-6.43,7.52-11.51,12.76-.85.88-1.19.81-1.4-.38a113,113,0,0,1-1.67-20.49,1.41,1.41,0,0,1,.4-1.13,155.12,155.12,0,0,1,16.06-17.77c.83-.78,1.18-.71,1.31.35.22,1.69.33,3.24.44,5.23l-1.28.32c0-1.76-.1-3-.22-4.49a131.28,131.28,0,0,0-15.16,17.5A111.26,111.26,0,0,0,201,166.06a129.78,129.78,0,0,0,9.24-10.23Z"/><path class="cls-16" d="M207.88,135.47c13.8-4.85,30.75-9.82,45.77-13.42l.13,1.3c-15.4,3.7-32.72,8.89-47.47,14.1Z"/><path class="cls-16" d="M256,133.4c-14.85,8.66-37.21,19.4-51.7,26-.79.36-1,.21-1.27-.52a53.69,53.69,0,0,1-3-13.78l1.25-1.5c.59,5.81,1.26,9.87,2.9,14.34,14.46-6.55,36.18-17,51.14-25.61Z"/><path class="cls-16" d="M255.33,103.08c-.47,5.06-1.13,12.09-1.26,16.76a87.25,87.25,0,0,0,2,12.56,10.58,10.58,0,0,0,1.72.6l.16,1.37a19.46,19.46,0,0,1-2.47-.66c-.52-.19-.62-.37-.74-.88a94.69,94.69,0,0,1-2-13c.13-4.74.77-11.11,1.25-16.19Z"/><path class="cls-16" d="M266.08,121.75c2.9-12.08,4.3-19.51,5.86-28.27-2.18-3.7-3.72-6.5-6.13-10.14-9.42,4.85-18.73,13.56-29.64,26.74a205.21,205.21,0,0,0,20.73-8.43c.75-.34,1.06-.23,1.2.63a34.42,34.42,0,0,1-.39,13c-.73,3.12-1.35,3-.89-.2a37,37,0,0,0,.12-12,204.55,204.55,0,0,1-20.7,8.24c-2.73.94-2.86.5-1-1.88,10.15-13,20.87-22.3,30.35-27.36.54-.29.77-.18,1.07.29,2.38,3.58,4.35,6.88,6.46,10.46a1,1,0,0,1,.16.95c-1.55,8.72-3.14,17-6,29.06Z"/><path class="cls-16" d="M271,101.82C276.34,91.1,281,80.71,285.26,70l1.69.17c-4.69,11.85-10.77,24.93-16.6,36.47Z"/><path class="cls-16" d="M253.49,120.73c-5.54.8-10,1.53-15.52,2.55l.7-1.45c4.58-.92,9.19-1.56,14.75-2.44Z"/><path class="cls-16" d="M263.77,120.3a31.74,31.74,0,0,1,3,1.15,1.74,1.74,0,0,1,.64.53c6.62,8.08,18.47,22.54,26.11,32l-1.09.81c-7.71-9.52-19.53-24-26.1-32a16.49,16.49,0,0,0-2.52-.94,70.63,70.63,0,0,0-5.41,11.64c6.25,5.37,18.24,16.93,26.94,25.8l-1.22.79c-8.39-8.66-20.4-20.34-26.65-25.73-.47-.41-.51-.62-.33-1.15a82.6,82.6,0,0,1,5.71-12.54C263.07,120.2,263.23,120.12,263.77,120.3Z"/><path class="cls-16" d="M311.58,242.47a75.83,75.83,0,0,0,5.94-10.3c.82-21.94.69-49.35-8.23-69.64a131.84,131.84,0,0,0-12.06-9.91,164,164,0,0,0-15,9.49,254.44,254.44,0,0,0-27.15,31c-6.56,13.41-15.66,35.39-19.52,50.91a9.53,9.53,0,0,0,1.38,3.25c5.15,5.14,13.88,13.75,19.13,18.25a106.69,106.69,0,0,0,16.27-8.91l1.16,1A113.9,113.9,0,0,1,256.5,267c-.64.29-.82.24-1.28-.16-5.31-4.58-14.19-13.13-19.31-18.13a2.68,2.68,0,0,1-.5-.65,14.25,14.25,0,0,1-1.42-3.55,1.38,1.38,0,0,1,0-.83c3.87-15.48,12.95-37.43,19.78-51a2.91,2.91,0,0,1,.29-.48,233.33,233.33,0,0,1,27.18-30.94,5.14,5.14,0,0,1,.53-.44c4.72-3.46,10.46-6.82,15-9.48.42-.25.59-.25,1.05.09a139.59,139.59,0,0,1,12.47,9.93,1.31,1.31,0,0,1,.43.59c8.88,20.36,9.29,48.41,8.48,70.35a1.27,1.27,0,0,1-.17.65,91.84,91.84,0,0,1-7.07,12.07Z"/><path class="cls-16" d="M287,218.75a185.85,185.85,0,0,1,24.66,20.51,1.18,1.18,0,0,1,.43.9c1.08,8.46,1.78,16.22,2.16,23.77a.9.9,0,0,1-.62,1c-6.64,3.09-13.86,6-20.48,8.66a1.26,1.26,0,0,1-1.53-.17c-11-8.55-23.59-19.36-33.89-29.24-2.19-2.1-2.06-2.46.9-2.05,11,1.53,23.84,3.59,37.19,6a267.15,267.15,0,0,0-9.11-27.66l.36-2.09c3.35,7.51,7.73,20.51,10.54,30.63.22.79,0,1-1,.85-14.33-2.91-27.38-5.1-37.91-6.51,10.44,9.89,22.67,20.23,33.85,28.9,6.73-2.68,13.47-5.48,20.23-8.64-.39-7.66-1.07-14.78-2.18-23.4-5.9-6.3-15.9-14.59-23.79-20.35Z"/><path class="cls-16" d="M312.94,264.62a134.86,134.86,0,0,0-16.55-14.93l.8-1.06a134.22,134.22,0,0,1,16.39,14.64Z"/><path class="cls-16" d="M291.66,273a60.25,60.25,0,0,0,4.54-23.79l1.33,0A57.33,57.33,0,0,1,293.18,273Z"/><path class="cls-16" d="M283.32,246.8c-.62-1.54-1-2.51-1.77-4.23l.58-1.93c.91,2,1.89,4.26,2.68,6.32Z"/><path class="cls-16" d="M254.93,192.09c14.2,1.07,24.24,2.19,35.49,4a1.24,1.24,0,0,1,.9.47,194.57,194.57,0,0,1,27.12,34.77l-.42,1.81a201.38,201.38,0,0,0-27.77-35.55c-11.4-1.86-21.33-3.11-35.77-4.19Z"/><path class="cls-16" d="M297.85,152.18c-1.16,11.5-3.3,26.17-5.54,38.19-.7,3.8-1.58,3.64-.92-.18,2.1-12.06,4.08-26.64,5.2-38.06Z"/><path class="cls-16" d="M280,246.07c3.28-12,6.41-26.19,8.83-40.3.64-3.75,1.46-3.59.92.17a341.51,341.51,0,0,1-8.42,40.44Z"/><path class="cls-16" d="M255.19,192.75c-1.91,12.89-4,28.24-5.55,42.69a1.26,1.26,0,0,1-.51,1c-4.92,4.46-8.36,7.82-12.35,12l-.8-1.11c4-4.16,7.2-7.23,12.21-12,1.47-14.08,3.6-28.6,5.47-41.31Z"/><path class="cls-16" d="M257.37,242.9c-3.2-2.23-5.91-4.31-8.89-6.7l.77-1.21a118,118,0,0,0,10.37,7.86Z"/><path class="cls-16" d="M266.72,281.91c2.11-2.82,4.23-5.77,6.28-8.75l.41,1.95c-1.64,2.37-3.31,4.69-5,6.94Z"/><path class="cls-16" d="M259.25,293.61c-1.19,1.4-2.36,2.71-3.48,3.92a1.25,1.25,0,0,1-.91.52,149.78,149.78,0,0,1-16.45,2.2,1,1,0,0,1-1.07-.41,194.72,194.72,0,0,1-24.42-35.75c-1.33-2.53-1.16-2.68,1.64-1.26,10.41,5.27,22.09,11.2,30.95,15.73,3.43-4.64,7-9.1,9.92-12.54l1.1.78c-2.84,3.28-6.51,7.87-10.08,12.76-.46.63-.71.64-1.4.28-9.55-5-21.56-11.17-30.83-15.84a189.83,189.83,0,0,0,24.25,34.85,149.34,149.34,0,0,0,16.25-2.26c1.1-1.18,2.24-2.47,3.42-3.85Z"/><path class="cls-16" d="M254.78,280.89A230.32,230.32,0,0,0,268.18,260l2.11-.92c-4.29,7.57-9.1,15.12-13.94,21.95Z"/><path class="cls-16" d="M280.1,308.77c-10-6.8-25-17.1-38.87-27.76-2.32-1.78-2.18-2.12.94-1.86,12.36,1,26.52,2.32,44.3,4.08,0-4-.14-8.88-.44-15.1l1.4,1.1c.21,5.18.3,9.62.34,14.51,0,.79-.21,1-.87.89-19.09-1.9-33.74-3.35-44.5-4.26,14,10.73,28.22,20.25,38.29,27.07,4.19-2.8,11.33-7.67,15.57-10.56.79-7.17,1.57-16.35,2.17-26.16l1.45-.55c-.6,9.81-1.38,19.73-2.17,27a1.1,1.1,0,0,1-.55,1c-4.24,2.89-11.68,7.82-15.89,10.64C280.7,309.14,280.58,309.1,280.1,308.77Z"/><path class="cls-16" d="M280,308.06c2.14-6.84,5-16.95,6.48-24.16l1.3.23c-1.5,7.32-4.13,17-6.27,23.84Z"/><path class="cls-16" d="M296.41,297.84a98.34,98.34,0,0,0-9.84-13.46l1-.88a95.94,95.94,0,0,1,9.65,13Z"/><path class="cls-16" d="M274.43,282.79c-1.75-7.72-3.59-15.71-5.62-23.13l1.34-.65c2.07,7.57,4,16,5.79,23.83Z"/><path class="cls-16" d="M237.51,299.18c4.32-5.87,6.71-9.34,9.89-14.24l1.11.78c-3.14,4.83-5.39,8.26-9.61,13.93Z"/><path class="cls-16" d="M254.3,297.44a98.67,98.67,0,0,1-3.63-10l1.67.94c1,3.07,2,5.68,3.2,8.35Z"/><path class="cls-16" d="M311.59,243.13c29.64-9,61.78-19,99.37-30.5a49,49,0,0,0,7-6.62c-1.28-3.95-3.16-9.72-4.6-13.09-27.82.12-67,.68-95.78,1.21l-.16-1.52c28.69-.67,67.37-1.11,96.18-1.31a.87.87,0,0,1,1,.64c1.45,3.76,3.26,9.31,4.72,13.85a.85.85,0,0,1-.22,1.05,53.64,53.64,0,0,1-7,7,1.55,1.55,0,0,1-.66.37c-37.19,11.47-69.77,21.37-99.67,30.33Z"/><path class="cls-16" d="M417.93,207.18c-24.62,7.68-65.26,18.31-93.14,24.32-3.12.68-3.49-.15-.19-.92,27.6-6.44,67.89-17.06,94-25Z"/><path class="cls-16" d="M218.26,265.32c-1.5-8.73-3-17.29-4.79-25.82-5.6-5.61-11.16-10.27-17.91-15.87l-.57-2.32c7.88,6.49,13.81,11.42,19.46,17a1.28,1.28,0,0,1,.45.8c1.77,8.5,3.32,17.63,4.92,26.93Z"/><path class="cls-16" d="M215.48,315.59a129.75,129.75,0,0,0-3.39-16.21,1.57,1.57,0,0,1,0-.77c.25-1.67.67-3.63,1.07-5.66-1.37-1.73-2.6-3.48-4.15-5.13a1.81,1.81,0,0,1-.53-.87,254,254,0,0,0-13.18-32.81l1.05-1.12a248.59,248.59,0,0,1,13.43,33.74c1.41,1.55,2.75,3.5,4.24,5.51a.9.9,0,0,1,.23.89c-.39,2-.74,4.16-1,5.78a130.53,130.53,0,0,1,3.53,16.82Z"/><path class="cls-16" d="M224.87,295.64a316.71,316.71,0,0,1,1.86,37.08c0,1-.39,1-1.28.73-9.48-3.25-18.11-9.31-21.71-18.85-.56-1.49-.37-1.68,1.33-1.32a104.82,104.82,0,0,0,13.75,2.21c2.92.27,2.87,1.14-.06.95a83.52,83.52,0,0,1-13.85-2c3.63,9.11,12,14.65,20.44,17.49a319.61,319.61,0,0,0-1.79-35.26Z"/><path class="cls-16" d="M218.56,272.88c-1.19-.83-2.15-1.38-3.18-2,.68,4.55,1.22,9.06,1.71,14.57.27,3-.57,3.07-.93.1-.65-5.34-1.22-9.72-2-14.92-.21-1.43.09-1.74,1.26-1.06.66.39,1.34.81,2.11,1.3Z"/><path class="cls-16" d="M227.29,285.9c-.25,3-.7,6.12-1.22,9.13a1.05,1.05,0,0,1-.4.73,22.26,22.26,0,0,1-3.95,2.86.93.93,0,0,1-1,.05,20.71,20.71,0,0,1-7.35-5.21,1,1,0,0,1-.29-.94c.27-2.9.57-5.47,1-7.67.08-.44.18-.57.7-.74a15,15,0,0,0,1.68-.68l.12,1.35a12.75,12.75,0,0,1-1.21.49c-.41,2.23-.68,4.36-1,7.34a17,17,0,0,0,6.79,4.68,16.8,16.8,0,0,0,3.66-2.55c.57-3,1-6.38,1.37-10.35Z"/><path class="cls-16" d="M200,287.6a36.36,36.36,0,0,0,9.06-1.08l.35,1.19a38.73,38.73,0,0,1-8.94,1.16Z"/><path class="cls-16" d="M212.73,299.62a118.78,118.78,0,0,1-13.88,2.75,1.2,1.2,0,0,1-1.16-.38,87,87,0,0,1-8.24-8.17,1.13,1.13,0,0,1-.36-1.25c.85-5.1,2.63-12.35,4-17.68.72-2.83,1-2.93,2.09,0A145.32,145.32,0,0,0,201,288.76c.93,1.93.12,2.31-.86.41a113.44,113.44,0,0,1-6-13.63c-1.36,5.46-2.86,11.79-3.75,17.28a77.5,77.5,0,0,0,8.3,8.12,112,112,0,0,0,13.76-2.62Z"/><path class="cls-16" d="M197.17,223.84c5.56,16.24,9.59,31.31,13.48,47.17.74,3-.12,3.18-.91.23-4.26-16.09-8.35-30.69-14.24-48.36Z"/><path class="cls-16" d="M160.19,207.24a87.29,87.29,0,0,1-7.5,7.06,36.16,36.16,0,0,1-11.92,6,1.45,1.45,0,0,1-.92,0,70.25,70.25,0,0,1-14.75-6c-.94-.52-1-.81-.14-1.54,7.41-6.26,15.45-12.58,21.9-17.46a1.59,1.59,0,0,1,.64-.31c4.72-1.47,9.25-2.75,13.06-3.81l.14,1.5c-3.42.95-8.22,2.31-12.81,3.81-6.51,4.8-14.7,11-21.84,16.91a69.65,69.65,0,0,0,14.23,5.46,33.27,33.27,0,0,0,11.57-5.74,75.12,75.12,0,0,0,6.61-6.16Z"/><path class="cls-16" d="M151.42,214.47a223.84,223.84,0,0,1-25.76-.27l-.28-1.21a258.73,258.73,0,0,0,27.71,0Z"/><path class="cls-16" d="M135.67,218.22C121.51,233,110.3,243.77,96.86,254.1L96.2,253c13.29-10.23,24-20.73,38-35.3Z"/><path class="cls-16" d="M152.36,213.7a78,78,0,0,1,6.08,14.69c.17.61.1.84-.47,1.2-18.22,11.48-52.63,31-68,37.32-.68.28-.94.12-1.15-.47-2.41-6.63-3.14-17.69-1.73-25.92.44-2.57.69-2.76,2-.16A101.14,101.14,0,0,0,97.4,254c1.34,1.89.67,2.46-.72.61A78.25,78.25,0,0,1,88.15,241c-1.17,7.34-.33,18.11,1.75,24.42,15.35-6.29,48.91-25.51,67.06-37a70.34,70.34,0,0,0-5.84-14Z"/><path class="cls-16" d="M152.24,215c-6.5,6-17.79,13.92-28.3,22.1-2.79,2.17-3.4,1.52-.55-.77,10.22-8.2,21.48-16.48,28.18-22.49Z"/><path class="cls-16" d="M232.66,134.17a104.87,104.87,0,0,1,10.39-3.87c2.78-.9,3-.12.28.86-3.81,1.33-6.48,2.41-10.3,4C231,136,230.47,135.13,232.66,134.17Z"/><path class="cls-1" d="M220.78,24.77c-9-7.78-18.14-15.34-29.4-24.11,4.46,13.68,9.45,28.64,13.23,39.15a40.58,40.58,0,0,0,14.51-1.13A78.53,78.53,0,0,0,220.78,24.77Z"/><path class="cls-1" d="M193.19,51.3C184,43.89,174.3,36,164.32,28.55c4.54,14.43,9.45,28.19,13.76,39.67,4.46-.68,8.92-1.66,12.77-2.49A84.76,84.76,0,0,0,193.19,51.3Z"/><path class="cls-1" d="M166.61,82.59c-7.34-6.6-15-13.37-24.5-21.06,3.32,15,7.42,29,12,39.18a66.61,66.61,0,0,0,13.57-7A65,65,0,0,0,166.61,82.59Z"/><path class="cls-1" d="M118.11,241.82a77.36,77.36,0,0,1-4.78-6.61c.87-3.77,1.54-6.67,2.32-11a131.59,131.59,0,0,0-11.83,10.24,42,42,0,0,0-.1,6.23c2,2.66,3.81,5.22,5.26,7.39a23.75,23.75,0,0,0,7.39-.15A47.88,47.88,0,0,0,118.11,241.82Z"/><path class="cls-1" d="M195.75,224c-4.2-11.83-8.06-21.4-12.82-33.05-1.12.45-2.23,1-3.35,1.54-2,11.81-4,24.47-5.22,36.07a170.7,170.7,0,0,0,17.07,29.49,78.05,78.05,0,0,0,8.93-10C199.08,239.27,197.68,232.52,195.75,224Z"/><path class="cls-2" d="M184.3,228.7l-3.2-36.92c-.51.23-1,.48-1.52.74-2,11.81-4,24.47-5.22,36.07a170.23,170.23,0,0,0,17,29.45l0-.16Z"/><path class="cls-1" d="M103.72,240.71a42,42,0,0,1,.1-6.23c.46-.47.94-.94,1.43-1.41a32.93,32.93,0,0,1-2.64-2.84,83.19,83.19,0,0,0,2.8-9.27c-3.77,2-8.16,4.59-11.3,6.62-.14,3.23,0,6.13.14,8.93a136,136,0,0,0,10.53,10.43,16.92,16.92,0,0,0,3.44,0C106.92,245.06,105.41,242.93,103.72,240.71Z"/><path class="cls-2" d="M178,201.82a19.15,19.15,0,0,1-2.57-.08,53.3,53.3,0,0,1,3.55-8.93l.39-.21C178.83,195.5,178.49,198.11,178,201.82Z"/><path class="cls-2" d="M185.47,197.15c1-2.33,1.94-5,2.85-7.85A29.21,29.21,0,0,0,183,191C184,193.39,184.48,194.61,185.47,197.15Z"/><path class="cls-2" d="M142.54,62.25C149.09,75,159,86.13,167.37,93.67a43.71,43.71,0,0,1-13.38,6.9A190.85,190.85,0,0,1,142.54,62.25Z"/><path class="cls-2" d="M164.81,28.92a192.39,192.39,0,0,0,25.78,36.66A72.31,72.31,0,0,1,178,68.16C173.38,55.59,168.29,41.35,164.81,28.92Z"/><path class="cls-2" d="M191.81,1.15a387.73,387.73,0,0,0,27.06,37.5,41.19,41.19,0,0,1-14.3,1.09C200.51,28,195.55,14.61,191.81,1.15Z"/><path class="cls-2" d="M104.87,221.57c-2.77,3.68-4.25,5.54-6.13,8.12.06,1.34.24,2.92.35,5.14,1.4,1.23,3.33,2.86,4.5,3.74l0,2.07c.93,1.27,2.13,2.88,3.25,4.4l-2.09,1.82c-3.25-3-7.29-6.61-10.6-10.33a83.53,83.53,0,0,1-.16-8.79A90.81,90.81,0,0,1,104.87,221.57Z"/><path class="cls-2" d="M115.33,224.84c-2.89,4.21-4.47,6.51-6.54,9.64-.06,1.75,0,3.15,0,5a97.58,97.58,0,0,0,7.59,8.35,37.23,37.23,0,0,1-7.35.32c-1.84-2.54-3.59-4.9-5.32-7.38-.05-2.4-.08-4.12,0-6.25A92.11,92.11,0,0,1,115.33,224.84Z"/><path class="cls-2" d="M174.34,228.24c6.14,2,14.48.49,21.48-4.35,1.78,9.2,3.37,16.5,4.54,23.87a53,53,0,0,1-9,9.87C185.51,250.09,179.19,238.86,174.34,228.24Z"/><path class="cls-16" d="M203.85,39.74c-4.08-11.39-8.36-24.38-12.54-37.31-.93-2.89-.77-3.17,2-1,10.41,8.1,18.57,14.66,27.65,22.51a1.25,1.25,0,0,1,.53,1.22,68.51,68.51,0,0,1-1.58,13.33c-.14.66-.34.84-.89,1a39.94,39.94,0,0,1-14.21,1.08C204.18,40.45,204.05,40.3,203.85,39.74Zm1.26-.65a37.17,37.17,0,0,0,13.37-1A74.16,74.16,0,0,0,220,25.15c-9.33-8.07-17.27-14.83-27.4-22.75C196.3,13.81,201.18,28.15,205.11,39.09Z"/><path class="cls-16" d="M190.73,66.55c-3.83.83-8,1.64-12.41,2.35-.58.09-.78,0-1-.58-5-13.34-9-25.11-13.05-37.9-.95-3-.7-3.17,1.72-1.35,9.51,7.15,18.7,14.41,27.36,21.36.52.42.61.58.55,1.36a87.59,87.59,0,0,1-2.27,13.87C191.47,66.33,191.34,66.41,190.73,66.55Zm-.47-1.46a80.14,80.14,0,0,0,2.13-13.42c-9-7.49-18.48-15.19-26.9-21.47,3.75,11.84,8,23.74,13,37.24C182.6,66.73,186.68,65.91,190.26,65.09Z"/><path class="cls-16" d="M153.51,101.29C149.38,92,145,77.84,141.83,63.2c-.61-2.8-.4-3,1.95-1.07,8.88,7.21,16.47,13.74,23.07,19.65a1.36,1.36,0,0,1,.53,1,58.22,58.22,0,0,1,1,10.63,1.11,1.11,0,0,1-.53,1.13,67,67,0,0,1-13.83,7A.37.37,0,0,1,153.51,101.29Zm-10.46-38.2c3.12,13.45,7.28,27.45,11.38,36.74a62.76,62.76,0,0,0,12.47-6.56,70.65,70.65,0,0,0-1-10.24C159.16,77,151.29,69.87,143.05,63.09Z"/><path class="cls-16" d="M178,202.4a19.91,19.91,0,0,1-2.3-.06c-.81-.07-.9-.23-.69-.93a51.46,51.46,0,0,1,3.29-8.64,1.22,1.22,0,0,1,.65-.65,37,37,0,0,1,8.7-3.23c1.13-.27,1.34,0,1,1a65.25,65.25,0,0,1-2.9,7.88l-.62-1.44c.9-2.1,1.62-4,2.37-6.32a34.19,34.19,0,0,0-8,3.23,54.15,54.15,0,0,0-3.2,7.94,12.66,12.66,0,0,0,1.87,0Z"/><path class="cls-16" d="M183.55,190.73c5,12.36,8.78,21.52,12.89,33.1,1.94,8.54,3.3,15.32,4.54,23.78a1.11,1.11,0,0,1-.28,1.13,89.13,89.13,0,0,1-8.67,9.62c-.64.63-.81.53-1.26-.1a167.42,167.42,0,0,1-17-29.1,1.36,1.36,0,0,1-.14-.93q1.71-15.58,5.11-35.29l1.57-.69c-2.33,13.44-4.06,25.65-5.21,36.23a170.65,170.65,0,0,0,16.41,28.66,70.94,70.94,0,0,0,8.1-9.29c-1.25-8.57-2.74-15.08-4.68-23.67-4.1-11.52-7.62-20.58-12.67-32.94Z"/><path class="cls-16" d="M196.26,225.66c-.84,10.11-2.11,20.85-4.15,32l-1.2,0c2-11.55,3.41-24.29,4.23-34.77Z"/><path class="cls-16" d="M114,235.11c1.1,1.73,2.68,3.89,4.44,6.12a1,1,0,0,1,.25,1,46,46,0,0,1-1.65,5.84.82.82,0,0,1-.83.62,29.18,29.18,0,0,1-7,.15,1.07,1.07,0,0,1-1-.62c-1.57-2.32-3.3-4.63-4.89-6.71a1.45,1.45,0,0,1-.4-1.06,49.35,49.35,0,0,1,.13-5.73,1,1,0,0,1,.41-.87,114.2,114.2,0,0,1,10.32-8.91c2.44-1.93,2.65-1.83,2.12.94C115.29,229.24,114.66,232,114,235.11Zm-1.31-.23c.73-3.16,1.46-5.74,2.11-9.24a125.22,125.22,0,0,0-10.38,9.14,40.93,40.93,0,0,0-.08,5.69c1.71,2.24,3.31,4.5,5,7a21.31,21.31,0,0,0,6.53-.15,41.5,41.5,0,0,0,1.48-5.34c-1.78-2.25-3.34-4.44-4.48-6.22A1,1,0,0,1,112.7,234.88Z"/><path class="cls-16" d="M108.57,247.6a19.44,19.44,0,0,1-3.49,0,1.1,1.1,0,0,1-.88-.36,137,137,0,0,1-10.29-10,1.27,1.27,0,0,1-.38-1c-.13-2.48-.28-5.52-.16-8.54a.89.89,0,0,1,.54-.89c3.18-1.94,6.83-4.07,10.13-5.88,1.94-1.05,2.19-.93,1.68,1.16a69.43,69.43,0,0,1-2.39,7.94,30.06,30.06,0,0,0,2.42,2.54l-1,.92a30.6,30.6,0,0,1-2.61-2.72.79.79,0,0,1-.15-1,78.07,78.07,0,0,0,2.49-7.74c-3.2,1.78-7,4.07-9.78,5.88a79.1,79.1,0,0,0,.18,8.2A129.4,129.4,0,0,0,105,246.25a13.54,13.54,0,0,0,2.85.11Z"/></g></g></g></svg>