<?xml version="1.0" encoding="UTF-8"?>
<!-- Created with Inkscape (http://www.inkscape.org/) -->
<svg version="1.1" viewBox="0 0 76.428 79.796" xmlns="http://www.w3.org/2000/svg">
 <path d="m17.333 69.467c-0.71488-0.55257-1.4664-1.1673-2.2219-1.8008-0.32146-0.26964-0.47305-0.28115-0.88293-0.08292-0.71842 0.34538-1.3911 0.6382-2.0737 0.8801-0.39698 0.13992-0.55909 0.12787-0.9018-0.16906-0.78836-0.68324-1.6119-1.4854-2.4063-2.2931-0.31778-0.32331-0.43871-0.37302-0.994-0.38272-1.2544-0.02186-2.4711-0.06757-3.7226-0.15984-0.97156-0.07232-1.3575-0.76254-1.3239-1.9053 0.0306-1.0314 0.47429-1.656 1.441-1.6831 1.1374-0.03224 2.953 0.11966 4.4628 0.34725 0.52402 0.07835 0.67287 0.14138 1.0367 0.44148 0.81182 0.66952 1.5779 1.3266 2.3175 1.9545 0.34784 0.29458 0.56504 0.3396 0.95835 0.16736 0.47869-0.20682 0.97488-0.39875 1.4323-0.56783 0.42562-0.15494 0.54457-0.14604 0.92922 0.08592 1.3508 0.81741 2.8025 1.8135 4.0401 2.6773-0.72642 0.91422-1.4594 1.7585-2.0908 2.4908" fill="#e73821"/>
 <path d="m15.383 64.3c1.3508 0.81741 2.8024 1.8124 4.0411 2.6762-0.72746 0.91427-1.4604 1.7596-2.0918 2.4919-0.71488-0.55257-1.4664-1.1673-2.2219-1.8018-0.32141-0.2686-0.47305-0.28115-0.88293-0.08292-0.71837 0.34643-1.3911 0.6382-2.0726 0.88004-0.39798 0.14101-0.56008 0.12897-0.90285-0.169-0.78831-0.6822-1.6118-1.4843-2.4063-2.2931-0.31778-0.32331-0.43871-0.37302-0.994-0.38272-1.2544-0.02186-2.4711-0.06757-3.7226-0.1588-0.82845-0.0625-1.1944-0.40654-1.2836-1.5286 1.3968 0.01703 3.6999 0.12319 5.165 0.1862 2.205 0.09415 2.6253 1.8367 5.012 0.66455 0.47764-0.20677 0.97383-0.3987 1.4313-0.56778 0.42557-0.15599 0.54562-0.1461 0.92922 0.08592" fill="#c82f1a"/>
 <g fill="#0f141b">
  <path d="m12.306 64.278c-0.60059-0.50988-1.654-1.4026-2.3009-1.9375-0.43481-0.35748-0.56178-0.42367-1.2432-0.52583-1.6016-0.2399-3.4207-0.37799-4.5205-0.34759-1.1818 0.02496-1.8013 0.89622-1.8368 2.0841-0.05197 1.7351 0.83059 2.2418 1.698 2.3066 1.1389 0.08411 2.3288 0.13952 3.7428 0.16516 0.39569 0.0059 0.50766 0.06551 0.72613 0.28772 0.93458 0.95092 1.7285 1.7052 2.4259 2.3079 0.47298 0.40911 0.70944 0.44061 1.3012 0.23039 0.63926-0.22616 1.2832-0.50604 2.0785-0.88872 0.21724-0.10496 0.33744-0.09192 0.5046 0.04573 0.85216 0.70112 1.5679 1.3145 2.2065 1.8078l0.53406-0.68567c-0.69301-0.55573-1.3704-1.0493-2.2524-1.7804-0.52238-0.43293-0.67187-0.44454-1.3257-0.12957-0.77375 0.37219-1.3882 0.63386-2.0079 0.85277-0.20208 0.07171-0.35861 0.04471-0.52503-0.09928-0.68428-0.59181-1.4508-1.3223-2.3733-2.2612-0.40502-0.41346-0.50474-0.47993-1.2826-0.4935-1.4003-0.02421-2.5746-0.08142-3.7009-0.1651-0.65573-0.04782-0.97479-0.31129-0.93916-1.4982 0.02863-0.96419 0.36972-1.2398 1.0476-1.2759 1.0662-0.02982 2.818 0.10524 4.3891 0.34139 0.39933 0.05924 0.56433 0.13093 0.83208 0.35284 0.64685 0.53385 1.7233 1.4475 2.3217 1.9553 0.54588 0.46325 0.77806 0.49286 1.3871 0.22727 0.40677-0.17605 0.84791-0.35692 1.393-0.55753 0.2483-0.09178 0.3995-0.06662 0.60377 0.05769 1.3345 0.80771 2.7091 1.7687 3.9693 2.645l0.55335-0.63416c-1.2778-0.89123-2.765-1.9044-4.1287-2.7306-0.49813-0.30091-0.67194-0.31658-1.2665-0.09783-0.55532 0.2053-1.0231 0.37698-1.4401 0.55982-0.23324 0.09944-0.33262 0.0833-0.57109-0.11906"/>
  <path d="m3.1764 62.318c-0.86372-0.01149-1.4943-0.03746-2.2267-0.08785-1.2354-0.08362-1.2768 0.46588-0.05806 0.68245 0.65595 0.11703 1.1959 0.15685 1.9624 0.1951z"/>
  <path d="m2.8371 63.934c-0.67387 0.09674-1.2476 0.13933-1.938 0.17604-1.1936 0.06328-1.1475 0.64522 0.04509 0.69002 0.69143 0.02721 1.4109 0.0048 2.0809-0.06343z"/>
 </g>
 <path d="m53.146 50.737c4.5622 1.7027 6.3094 4.073 5.9627 5.6557-0.38966 1.7788-1.9251 2.9002-5.5047 3.5253-2.8433 0.49695-4.3319 2.625-4.2102 5.1268 0.21501 4.4218 3.6394 5.5652 3.8145 9.1677 0.11392 2.3427-1.8957 3.979-4.7923 4.0276-2.1096 0.03441-3.818-0.65339-5.2022-0.58608-1.5632 0.07601-3.8922 1.4657-7.8797 1.6596-3.8704 0.1882-6.2032-1.1761-8.3481-1.0718-1.6982 0.08258-3.7339 0.62311-6.2572 0.7112-3.9786 0.14102-6.0406-1.0456-6.2012-4.3489-0.2053-4.2219 8.3718-8.5353 8.0676-14.792-0.1275-2.6221-1.6883-4.6532-4.1006-6.3147-3.4117-2.3491-3.9903-4.0043-3.3368-5.7488 1.4874-3.9655 11.625-2.9702 16.64 0.26486 0.5869 0.37945 1.0069 0.56249 1.6643 0.51479l0.04121 0.20042c6.1617 0.60445 14.154 1.4335 19.643 2.0087" fill="#9e9e9f"/>
 <path d="m50.678 74.74c0.44193-1.9765 1.4878-2.4259 2.2553-1.9765 0.14629 0.44177 0.25011 0.91603 0.276 1.4486 0.11397 2.3438-1.8957 3.979-4.7923 4.0276-2.1095 0.03545-3.8179-0.65234-5.2022-0.58503-1.5632 0.07601-3.8922 1.4646-7.8798 1.6585-3.8704 0.1882-6.2032-1.1761-8.3481-1.0718-1.6982 0.08258-3.7339 0.62311-6.2571 0.71224-0.45755 0.01596-0.88772 0.01275-1.2946-0.0073-3.5011-0.58594-3.9006-3.7129-2.6247-6.418z" fill="#eeeeef"/>
 <path d="m56.515 57.32c-0.29723 0.48746-1.1749 0.98742-2.615 1.0721-5.3973 0.32013-6.7406 5.2414-4.2493 10.922 2.8946 6.5989 0.0036 8.2917-4.8198 7.0191-1.9411-0.51287-4.0337-0.32406-6.1102 1.1026-1.1885 0.81607-3.2211 1.1603-6.1639-0.0023-2.699-1.0654-6.8172-1.1651-9.7417-0.02973-2.5158 0.97606-5.2282 0.5416-5.9437-1.3408-0.98636-2.5982 0.11572-5.3419 3.4393-7.8885 3.9332-3.0157 4.593-9.6342 3.0977-12.238z" fill="#595857"/>
 <path d="m26.472 75.807c-2.292 0.14292-6.4272 1.3561-7.5108 0.14392-0.89846-1.0062-0.96341-3.9596 2.3096-6.8351z" fill="#fff"/>
 <path d="m48.507 68.05c1.1189 4.6977 1.0757 7.1309-3.3801 7.1431-2.9373 0.0086-4.0596 0.32955-6.277 1.4474-1.857 0.93564-3.2772 1.1715-6.1104 0.0622-2.1747-0.85181-4.2844-1.0796-6.4917-0.87682-4.3362 0.39964-5.6508-0.16887-6.2281-1.3438-0.70855-1.436-0.62886-3.8521 1.7073-5.7833 0.34074-0.28296 0.90624-0.81808 1.2798-1.5043z" fill="#9e9e9f"/>
 <path d="m31.797 48.013c0.58795 0.3794 1.008 0.56244 1.6643 0.51479l0.04226 0.20036c6.1607 0.6045 14.153 1.4335 19.642 2.0088 4.0314 1.5051 5.8614 3.5295 5.9951 5.0721l-8e-3 0.0077c-0.35405-2.0615-3.3678-3.2595-6.5075-2.9044-7.7637 0.8757-14.649-0.24733-19.886-2.7951-8.0007-3.8922-15.323-5.6694-17.582-2.3691 1.4874-3.9655 11.625-2.9702 16.64 0.26486" fill="#9d977a"/>
 <path d="m19.241 51.58c-1.7499-1.4336-2.128-2.7608-1.5865-3.6167 1.0928-1.726 6.2605-1.1393 11.203 1.7385 5.807 3.3811 11.636 5.126 19.402 4.5984 3.8406-0.26017 6.3821 0.36929 7.6246 1.3755 1.4839 1.2042 0.64728 2.3546-1.2009 2.243-5.0691-0.30728-7.9785 1.807-6.4169 8.9437 1.4011 6.403 0.2077 7.5067-3.5174 7.1236-1.6349-0.16802-3.4055 0.06491-6.1129 1.3712-2.4573 1.1872-3.6571 1.0588-6.2876-0.13056-1.6203-0.73194-3.0373-0.99236-5.0025-0.66291-3.6006 0.60195-4.843 0.39596-6.0924-0.94763-0.82214-0.88192-0.95764-2.4821 0.95879-5.1511 1.556-2.1659 2.2667-4.6977 2.2997-7.5122 0.04628-4.0307-1.0554-5.9164-5.2708-9.3728" fill="#dbdcdc"/>
 <path d="m42.188 65.176c0.77507 0.64718 1.4579 0.86359 2.3588 0.84286 1.9517-0.04561 3.6037 1.5962 3.7418 4.4359 0.12725 2.6169-1.0497 3.3254-3.7902 2.8713-2.5133-0.41687-4.5516 0.09127-6.4117 1.4371-1.5684 1.1345-4.0866 0.80912-6.0161-0.4133-1.1968-0.75777-2.135-0.87786-3.2047-0.61609-2.9238 0.71796-5.8086 0.08003-6.0732-2.6445-0.20271-2.0982 1.4626-4.345 6.0953-4.8807 1.1378-0.13189 1.9124-0.50832 2.9402-1.3512 2.7271-2.2397 7.8793-1.7539 10.36 0.3185" fill="#eeeeef"/>
 <g fill="#fff">
  <path d="m46.374 71.472c-0.22952 0.47788-0.04646 0.92101 0.2804 1.0645 0.35044 0.15392 0.80622 0.05834 1.0395-0.40609 0.21612-0.43003 0.15822-0.97364-0.23351-1.157-0.3841-0.17745-0.86468 0.03365-1.0864 0.49857"/>
  <path d="m28.4 69.857c-0.4451 0.40131-0.43233 0.96599-0.13967 1.2905 0.34808 0.38581 1.0024 0.31834 1.3591-0.0032 0.38377-0.34694 0.40183-0.96766 0.09633-1.2758-0.29548-0.29608-0.88678-0.39947-1.3158-0.01153"/>
  <path d="m22.26 72.337c0.10393 0.88643 1.1837 1.308 2.7887 1.1859 1.5768-0.12072 2.5438-0.83268 2.4788-1.6948-0.05962-0.77321-1-1.4344-2.7378-1.3027-1.7043 0.13007-2.6221 1.0116-2.5297 1.8116"/>
 </g>
 <path d="m19.626 48.225c-0.61762 1.232 0.80991 3.0892 3.1631 4.269 2.7411 1.3717 4.8577 1.0286 5.3645 0.01813 0.57445-1.1491-0.51844-2.9618-3.1296-4.2696-2.6272-1.3144-4.8789-1.0549-5.398-0.01755" fill="#eeeeef"/>
 <path d="m49.164 9.3721c8.741-0.42504 16.792 6.393 17.323 16.399 0.51907 9.7905-6.9532 17.413-15.755 17.695-8.1375 0.26145-16.786-6.2506-17.236-16.448-0.44057-9.9663 6.9625-17.222 15.667-17.645m-25.934 13.516c3.0742 8.005 6.8143 17.195 10.273 25.84 7.0229 0.67165 17.668 1.8761 26.839 2.9489 4.5436-6.5526 11.546-16.719 15.622-22.489-2.9212-6.95-7.3078-17.983-9.9571-24.54-7.8577-1.188-19.44-2.9049-26.182-4.0454-4.5179 6.0458-12.661 16.723-16.595 22.285" fill="#ffe792"/>
 <path d="m33.032 0.47771c2.4425-0.024378 4.4151 0.014997 6.794 0.12587-4.518 6.0447-12.661 16.723-16.595 22.284l-6.3233-0.88606c4.7938-6.4126 12.487-16.729 16.124-21.524" fill="#fff4cc"/>
 <path d="m31.913 48.053c-0.98233-0.7252-3.7635-1.8412-5.4193-2.2463-2.8519-6.9712-7.0522-17.429-9.5867-23.804l6.3244 0.88601c3.0635 7.9793 6.7884 17.137 10.24 25.759-0.53053-0.01825-1.0566-0.22446-1.5581-0.59442" fill="#dbc77f"/>
 <path d="m67.079 22.108c-0.14617 0.42348-0.4806 0.72816-0.95705 0.82999-1.6668-8.0514-8.4178-13.44-15.892-13.578 1.4164-0.83135 3.4157-1.2768 5.7574-1.2826 4.6383-0.01159 6.3003-2.0683 4.4312-4.2712 1.9789 0.29812 3.8754 0.58452 5.5892 0.8431 1.8731 4.6369 4.6143 11.509 7.0928 17.595-2.7772-1.6395-5.4773-1.7138-6.0215-0.13616" fill="#fff4cc"/>
 <path d="m60.342 51.678c-9.1705-1.0727-19.816-2.2783-26.839-2.9499-2.0271-5.0647-4.1482-10.314-6.1766-15.404 1.8822 1.2205 3.4984 5.6864 8.3479 5.4023 1.1682-0.06834 2.4534 0.13451 3.8554 0.69038 3.193 2.7059 7.2563 4.1759 11.203 4.05 2.953-0.09535 5.7556-1.0193 8.1583-2.573 1.2775-0.25824 2.4028-0.19445 3.5361 0.22765 1.5286 0.57068 3.4986 0.53572 5.3659-0.21058-2.6538 3.8334-5.3228 7.698-7.4515 10.768" fill="#dbc77f"/>
 <path d="m49.027 9.3819c0.04604-0.0022 0.09192-0.0076 0.13796-0.0099 8.74-0.42495 16.792 6.393 17.323 16.4 0.65814 12.413-10.387 20.381-21.104 16.917 9.4531-1.4183 14.688-8.9872 14.998-16.32 0.28341-6.703-3.5257-13.709-11.356-16.987" fill="#877b4c"/>
 <path d="m25.904 51.592c0.27416 0.31075 0.66528 0.37354 0.88143 0.18158 0.1388-0.12212 0.2242-0.52272-0.06329-0.84855-0.25521-0.28755-0.64083-0.34536-0.82748-0.19365-0.20378 0.16618-0.23036 0.59014 0.0093 0.86061" fill="#fff"/>
 <path d="m20.429 48.623c-0.27332 0.63418 0.03622 1.4351 1.6032 2.1056 1.4824 0.63481 2.552 0.34997 2.795-0.30372 0.19763-0.52982-0.25329-1.607-1.5917-2.1062-1.4666-0.54748-2.5321-0.32996-2.8065 0.30428" fill="#fff"/>
 <path d="m41.605 51.33c-2.6182-0.37402-4.4163-1.5483-6.3395-2.427 4.8679 0.48277 10.536 1.0672 15.174 1.5517-2.8601 0.30164-5.0251 1.418-8.8345 0.87533" fill="#c8be89"/>
 <path d="m29.926 33.308c-0.70831-2.4449 0.75948-5.9931 3.6548-9.0642-0.46205 4.3666 0.80872 9.6862 4.2661 13.536-4.5805-0.76314-7.3806-2.6134-7.9209-4.4718" fill="#fff4cc"/>
 <path d="m53.18 43.241c5.7919-3.4847 9.7718-8.6244 10.872-14.403 1.0495-5.508-0.62308-11.196-4.5235-16.349l-1.6888-1.0191c4.87 5.9616 6.4677 11.923 5.4551 17.238-1.1303 5.9387-5.5859 11.26-11.982 14.723z" fill="#5a4f2b"/>
 <path d="m53.471 9.7394c6.1456 5.4706 8.8484 12.159 7.8303 18.483-0.70079 4.353-3.1612 8.1718-6.6038 10.104l-1.1295 1.3166c4.1675-1.6479 7.6055-5.876 8.4828-11.322 1.0277-6.3868-1.5993-12.96-7.2712-18.33z" fill="#5a4f2b"/>
 <g fill="#0f141b">
  <path d="m65.688 5.0863c2.5903 6.3798 6.8696 17.253 9.7183 24.051-4.0088 5.7316-10.837 15.595-15.284 22.011-8.0777-0.94444-18.937-2.1952-26.288-2.9012-3.3743-8.3962-7.0766-17.52-10.058-25.281 3.8444-5.3586 11.778-15.821 16.283-21.768 5.5866 0.94181 18.474 2.8134 25.628 3.8888m0.06354-0.97953c-7.1422-1.0759-19.858-3.0292-25.55-3.9828-0.48645-0.082275-0.63705-0.051878-1.025 0.46727-4.6821 6.2709-12.141 16.226-16.15 21.755-0.32144 0.44249-0.31898 0.51474-0.11115 1.0574 2.9194 7.6695 6.6876 16.79 10.04 25.269 0.17934 0.45275 0.35128 0.53774 0.72432 0.57413 7.2613 0.69991 18.233 1.9389 26.235 2.8744 0.54742 0.06358 0.69879 0.0059 0.981-0.4022 4.4588-6.4645 11.258-16.286 15.298-22.027 0.29038-0.41266 0.28969-0.55632 0.11746-0.97061-2.8536-6.8756-7.0979-17.464-9.7534-23.996-0.1977-0.48542-0.28635-0.53984-0.80618-0.6184"/>
  <path d="m27.104 46.019c-2.7672-6.7613-6.9904-17.301-9.6289-23.937 4.5355-6.0718 12.781-17.162 15.779-21.116 2.1646-0.00247 4.053 0.00953 6.3224 0.11313l0.28751-0.98937c-2.4758-0.077835-4.3533-0.10191-6.6367-0.083172-0.4026 0.0028-0.47062 0.049105-0.71107 0.36705-3.0926 4.0834-11.338 15.109-15.872 21.177-0.2492 0.332-0.26211 0.43332-0.07678 0.90151 2.5906 6.514 6.6425 16.573 9.3827 23.275z"/>
  <path d="m17.036 22.45c2.0371 0.28795 4.3164 0.5935 6.1552 0.85857l0.12005-0.83124c-1.8492-0.26143-4.1369-0.59069-6.1744-0.86498z"/>
  <path d="m46.202 42.966c9.1968-1.6848 14.348-9.0545 14.666-16.592 0.3185-7.5344-3.9303-13.9-10.923-17.06l-1.8995 0.149c7.5338 2.9164 12.173 9.5144 11.86 16.904-0.30472 7.2138-5.6992 14.862-15.358 16.037z"/>
  <path d="m49.207 9.8688c8.9775-0.43654 16.293 6.7696 16.779 15.926 0.47959 9.0216-6.2862 16.874-15.279 17.173-7.6694 0.24708-16.179-5.7662-16.63-15.996-0.42272-9.5561 6.5596-16.687 15.13-17.103m17.811 15.872c-0.52686-9.9076-8.432-17.312-17.858-16.853-9.2998 0.45221-16.648 8.2046-16.209 18.15 0.46976 10.653 9.5471 17.188 17.818 16.922 9.7978-0.32645 16.75-8.7781 16.249-18.219"/>
  <path d="m33.485 48.325c-0.5068-0.15575-0.96049-0.40533-1.4541-0.72218-5.0089-3.2322-15.598-4.561-17.295-0.0096-0.81468 2.1834 0.14354 3.9009 3.5204 6.2255 2.6305 1.8134 3.7813 3.8687 3.898 6.0099 0.32945 6.0419-8.3272 10.187-8.103 14.796 0.17446 3.5879 2.3564 4.9994 6.7081 4.7878 2.5844-0.12567 4.5818-0.63393 6.257-0.71538 2.0362-0.09901 4.517 1.2676 8.3371 1.0818 3.9876-0.1939 6.3923-1.5988 7.8812-1.6712 1.3843-0.06731 3.0121 0.68943 5.1916 0.58345 3.4759-0.16902 5.4286-1.898 5.3014-4.5138-0.19833-4.0786-3.6586-4.7095-3.875-9.1606-0.11229-2.3092 1.3156-4.2623 3.8178-4.6997 3.9009-0.68157 5.4562-1.806 5.8966-3.8128 0.36997-1.6877-1.2796-3.8834-4.7961-5.5415l-3.0698-0.25766c5.4881 1.7416 7.2382 4.3656 6.9695 5.591-0.34428 1.569-1.817 2.6422-5.1355 3.2231-2.86 0.49881-4.7281 2.6285-4.5863 5.5446 0.2315 4.7608 3.6181 5.754 3.7836 9.1577 0.09494 1.9524-1.4084 3.432-4.3214 3.5736-1.965 0.09555-3.7025-0.67369-5.2207-0.59986-1.7903 0.08705-3.9074 1.4758-7.8845 1.6692-3.8976 0.18952-5.9442-1.1772-8.3403-1.0607-1.6971 0.08253-3.6728 0.5635-6.2384 0.68826-4.0252 0.19573-5.5502-1.1848-5.6831-3.9178-0.18993-3.9059 8.3541-8.3173 8.0168-14.8-0.12763-2.4522-1.5215-4.675-4.3233-6.6028-3.0471-2.0994-3.7316-3.6865-3.1317-5.2847 1.2272-3.2764 10.7-2.8476 15.998 0.5698 0.64753 0.41845 1.3396 0.73825 2.1606 0.79901z"/>
 </g>
 <path d="m53.719 30.044c0.95188 1.9538 2.5894 2.1112 3.681 1.5463 1.204-0.62595 2.1158-2.3641 1.3465-4.5974-1.5286-4.4324-4.6484-7.1638-8.7303-7.5065-4.2229-0.35367-8.4342 1.7306-10.107 6.4854-0.58673 1.6731-0.13184 2.9829 1.1279 3.7617 1.5452 0.95479 3.1722 0.35861 4.1916-1.002 1.3543-1.8058 2.968-2.4391 4.5587-2.2301 1.6023 0.21051 2.8056 1.2312 3.9312 3.5426" fill="#3e3a39"/>
 <g fill="#595857">
  <path d="m57.4 31.589c-1.0906 0.56484-2.728 0.40849-3.681-1.5463-0.03965-0.08198-0.07963-0.14925-0.11907-0.22704 2.3495 1.1905 4.5581 0.58174 5.4288-1.2037-0.0046 1.436-0.73462 2.514-1.6288 2.977"/>
  <path d="m41.038 29.733c-1.2597-0.77884-1.7146-2.0887-1.1269-3.7628 0.05068-0.14405 0.11128-0.2781 0.16635-0.41817 0.73236 2.5728 3.1893 3.7077 5.6259 2.6127-0.16136 0.17566-0.32013 0.36167-0.47379 0.56632-1.0194 1.3606-2.6465 1.9557-4.1916 1.002"/>
  <path d="m41.217 23.421c2.0699-2.9419 5.4291-4.218 8.799-3.9351 3.2309 0.27185 5.8553 2.0447 7.5685 4.9672-0.40213 0.87538-1.3934 1.0662-2.3945 0.34402-3.176-2.2914-7.141-3.0991-10.652-0.80772-1.2289 0.80336-2.6788 0.64313-3.3209-0.56848"/>
 </g>
 <path d="m43.576 21.816c-1.0513 1.0265-1.0713 2.0396-0.61435 2.5071 0.53535 0.54871 1.6108 0.4702 2.5129-0.41061 0.85301-0.83437 1.217-1.9124 0.69563-2.5394-0.47793-0.57563-1.4488-0.6763-2.5942 0.44288" fill="#c8c9ca"/>
 <path d="m43.928 22.1c-0.53661 0.52532-0.51073 1.1439-0.24468 1.4173 0.30795 0.3154 0.97146 0.26426 1.4341-0.18615 0.56972-0.5563 0.63986-1.1628 0.32533-1.4841-0.30137-0.30942-0.92398-0.3232-1.5148 0.253" fill="#fff"/>
 <path d="m54.124 29.845c-1.1382-2.3338-2.5466-3.5386-4.2745-3.7661-1.5927-0.20678-3.3895 0.24138-4.9752 2.3584-1.0016 1.3366-2.3573 1.669-3.5845 0.91161-1.1213-0.69327-1.4596-1.7183-0.92338-3.2441 1.5846-4.5114 5.7363-6.5267 9.6202-6.2005 3.6953 0.3101 6.8116 2.7953 8.34 7.2235 0.67659 1.9651 0.02305 3.4505-1.1228 4.0432-1.1836 0.61342-2.3446 0.18428-3.0798-1.3259m-0.79182 0.3888c1.01 2.0716 2.7216 2.5652 4.2848 1.7561 1.378-0.71412 2.417-2.663 1.5696-5.1211-1.514-4.3911-4.6777-7.4204-9.1418-7.7949-4.7347-0.39695-8.9805 2.2092-10.571 6.7355-0.66619 1.894-0.13974 3.4028 1.3309 4.313 1.7182 1.0617 3.5952 0.51634 4.8067-1.1 1.1553-1.5413 2.556-2.3068 4.1088-2.1002 1.4619 0.19216 2.5887 1.2124 3.6116 3.3117" fill="#0f141b"/>
</svg>
