<?xml version="1.0" encoding="UTF-8"?>
<!-- Created with Inkscape (http://www.inkscape.org/) -->
<svg version="1.1" viewBox="0 0 196.34 273.84" xmlns="http://www.w3.org/2000/svg">
 <path d="m187.3 237.57c-5.9232-2.8405-13.929-5.8481-20.535-7.5795-2.2123-0.59436-3.2175-0.4417-5.0067 0.64565-2.2493 1.366-4.3953 2.7068-6.4812 4.0759-1.7001 1.0911-2.672 1.0948-4.0726 0.0626-1.9995-1.52-4.0402-2.9128-6.1961-4.1764-1.5668-0.87838-2.2994-0.79955-4.2871 0.35911-3.3979 1.9826-7.1909 4.4583-10.266 6.5733 2.2807 2.6035 5.3327 5.4758 7.3498 8.4868 1.4765-1.1224 2.9119-2.1181 4.234-2.9102 1.0148-0.64314 2.0456-0.65565 3.3829 0.244 2.1449 1.4048 4.363 2.7705 6.5451 3.8998 1.9706 0.99349 2.616 0.98474 4.8402-0.48424 1.7-1.0911 3.4983-2.3936 5.4209-3.7656 1.629-1.253 2.2342-1.373 4.4726-0.63815 5.3224 1.7359 10.792 3.9799 16.501 6.5738 2.1878-0.60686 4.8578-4.0103 5.1356-6.6819 0.13259-1.1462-0.52177-3.7039-1.0373-4.6771" fill="#e73821"/>
 <path d="m140.73 230.94c-3.4049 1.9978-7.1909 4.4582-10.281 6.5664 2.2957 2.6104 5.3479 5.4826 7.3648 8.4938 1.4766-1.1224 2.9049-2.1031 4.234-2.9103 1.0148-0.64316 2.0456-0.65567 3.3759 0.25901 2.1449 1.4048 4.363 2.7705 6.5521 3.8848 1.9706 0.99351 2.616 0.98476 4.8332-0.47047 1.7371-1.0924 3.5053-2.4086 5.4128-3.7877 1.644-1.2463 2.2493-1.3659 4.4876-0.63189 5.3224 1.7359 10.785 3.9949 16.501 6.5736 1.326-0.36911 2.8396-1.7674 3.8715-3.4274-6.298-2.9788-13.677-5.877-19.742-7.9048-5.2633-1.7449-8.918 3.1388-16.119-2.8438-2.0366-1.519-4.0472-2.8977-6.2101-4.1463-1.56-0.89339-2.2924-0.81456-4.2801 0.3441" fill="#c82f1a"/>
 <g fill="#0f141b">
  <path d="m187.96 239.4c2.2014 0.73575 3.9057 1.2025 5.7203 1.6289 3.7866 0.9084 3.4331 2.684-0.41418 2.2966-1.8307-0.19644-3.1354-0.42167-5.004-0.92843z"/>
  <path d="m186.28 246.56c1.2663 0.73825 2.2722 1.446 3.342 2.3302 3.0403 2.4274 2.0627 3.893-1.2696 1.9336-1.4706-0.88839-2.5687-1.4381-4.2378-2.2545z"/>
  <path d="m136.91 244.79c1.6309-1.1787 3.1616-2.2212 4.3954-2.9814 1.9646-1.1874 2.9036-1.0423 4.9432 0.31407 2.4023 1.5984 4.4149 2.7767 6.3185 3.7575 1.4518 0.73324 1.8296 0.70821 3.4494-0.32909 1.6639-1.0536 3.4332-2.3323 5.3538-3.7785 2.0229-1.5083 3.0421-1.6912 5.7894-0.79206 4.8284 1.5783 9.862 3.6186 16.074 6.4291 1.6728-0.71947 3.4946-3.0909 3.74-5.3015 0.05-0.81707-0.28905-2.5153-0.69446-3.4915-5.9753-2.8465-13.611-5.6265-19.836-7.2716-1.8606-0.48424-2.3708-0.41167-3.9785 0.52177-2.2192 1.38-4.4233 2.7669-6.5173 4.1139-2.4147 1.5632-3.6422 1.4475-5.6347-0.0875-2.233-1.6474-4.0172-2.8838-5.9768-4.0189-0.97974-0.56807-1.7325-0.40666-2.9754 0.29405-3.3618 1.9447-6.9934 4.3491-10.053 6.5083l-1.7378-2.2764c3.1175-2.2053 7.0146-4.6688 10.412-6.6515 2.5941-1.516 3.6383-1.5958 5.6801-0.44043 2.0198 1.1637 4.0965 2.518 6.3836 4.2455 0.82583 0.62312 1.4176 0.57056 2.4531-0.11261 2.109-1.3399 4.248-2.6657 6.4973-4.0317 2.1761-1.3268 3.3947-1.5447 6.085-0.83708 6.1661 1.654 14.11 4.5965 20.182 7.433 0.8571 0.4004 1.2125 0.65816 1.5717 1.613 0.53303 1.3661 0.986 3.61 0.89842 4.7773-0.27028 2.6564-2.8135 6.1005-5.212 7.4334-1.1111 0.65316-1.2669 0.63439-2.6335 0.0375-5.9633-2.6762-11.031-4.6042-15.658-6.1434-1.4819-0.47298-2.0601-0.45046-3.2309 0.44919-1.9346 1.4762-3.7409 2.7562-5.3888 3.8538-2.7947 1.7886-3.954 1.7228-6.4066 0.46672-1.9938-1.0223-4.0534-2.2964-6.5159-3.923-0.97473-0.65691-1.2488-0.65691-1.972-0.20771-1.1824 0.7295-2.522 1.7146-4.1309 2.8853z"/>
 </g>
 <path d="m51.094 166.85c-4.6518-16.417-11.805-21.993-19.441-20.031-12.235 3.1454-17.106 25.604-5.4884 56.737 6.6384 17.73 4.9505 25.693-2.504 35.026-7.7131 9.6518-8.2945 17.088-5.7903 21.956 3.3202 6.5311 11.005 8.9312 29.801 6.9471 5.9266-0.65442 11.866-4e-3 16.871 1.822 9.7127 3.5855 16.036 3.8848 26.851 0.91843 6.9544-1.914 15.891-2.6638 21.849-0.75951 13.822 4.352 23.264 1.3848 26.85-5.7827 3.1353-6.2797 1.9242-14.7-7.3574-23.558-9.8154-9.4007-8.3559-24.83 3.7634-27.297 14.813-3.021 18.711-9.091 17.795-16.183-0.96598-7.5731-8.6073-13.358-27.299-15.555-4.4486 0.97848-7.0002 1.5813-11.146 2.5005-19.549-3.4575-51.277-11.964-64.754-16.74" fill="#9e9e9f"/>
 <path d="m17.871 260.54c3.3563 6.4929 11.005 8.9312 29.801 6.947 5.9266-0.65442 11.873-0.0251 16.856 1.815 9.7348 3.5775 16.051 3.8919 26.866 0.92466 6.9544-1.914 17.247-2.7445 23.337-0.33908 10.308 1.1362 18.523-3.3202 20.807-10.364-5.3358 3.8968-14.317 4.9372-22.01 3.3386-7.7154-1.5906-17.104-0.22772-25.256 2.1338-8.1811 2.3845-17.471 2.127-24.126-2.2819-5.8165-3.8525-10.002-4.1419-20.394-2.2774-13.265 2.3714-21.787-10.307-17.704-14.972 3.6574-4.2232 0.93155-11.007-2.2287-7.0646-5.6407 6.9401-9.4372 15.419-5.9488 22.139" fill="#dbdcdc"/>
 <path d="m154.31 196.64c-0.96598-7.5731-8.6294-13.35-27.314-15.562-4.4407 1.001-6.9923 1.6034-11.146 2.5005-19.37-3.4103-50.618-11.766-64.312-16.589 5.568 15.71 35.234 25.651 67.393 21.946 24.954-2.8604 35.434 11.428 31.246 16.355 2.2603-1.5073 4.6197-4.8721 4.1333-8.6512" fill="#9d977a"/>
 <path d="m95.269 185.61c-0.10006-0.61311 1.3804-1.3873 4.5532-1.7908 3.2239-0.43419 4.9023-0.11261 5.1004 0.64315 0.15008 0.61938-1.1874 1.3674-4.7146 1.8619-3.2831 0.44294-4.8792-0.13772-4.939-0.71447" fill="#c8be89"/>
 <path d="m126.99 181.08c-4.0498 0.90966-6.5354 1.4874-10.121 2.2655 3.7319 1.9266 8.6898 3.0711 16.142 3.4219 10.023 0.45297 19.572 6.8185 19.809 12.66 3.1226-7.5855-4.0258-15.759-25.83-18.347" fill="#c8be89"/>
 <path d="m128.72 253.89c-2.5282 6.783-8.5071 7.7064-17.093 6.8811-6.6356-0.61062-12.515-0.13392-19.646 2.1181-9.2435 2.895-18.831 3.4693-25.201-0.84334-5.9627-4.049-12.251-5.5587-21.216-3.6135-14.285 3.0663-18.343-4.432-15.548-11.2 0.9278-2.2214 1.9178-4.3402 3.1536-7.2598 1.5508-3.6329 0.7933-3.932-1.587-0.7958-1.4619 1.9533-2.9567 3.507-4.4364 5.0676-3.9149 4.0298-4.8375 8.1209-3.3842 12.26 1.8746 5.4713 9.4309 8.8916 23.152 5.2688 5.0481-1.3216 10.553-0.80081 14.481 1.4923 9.9753 5.9236 17.325 6.0248 31.04 2.1796 6.4231-1.7959 12.624-2.1762 21.388-0.51676 15.805 3.008 22.439-1.1612 22.454-9.8139-0.0133-11.487-16.334-20.41-16.304-34.31-0.0249-9.7503 8.5476-18.453 17.254-19.219l-34.265 1.001z" fill="#595857"/>
 <path d="m190.71 123.37c-4.9874-23.733-14.218-61.348-20.589-85.214-3.4477-3.5148-7.4784-7.4666-10.837-10.427 5.7433 25.093 15.299 66.284 21.921 91.219z" fill="#b4a468"/>
 <path d="m181.21 118.95c-15.161 15.876-45.916 45.613-65.364 64.63 5.5089-1.0148 10.836-2.1509 17.83-3.4426 15.273-15.567 40.281-40.135 57.04-56.765z" fill="#887b4c"/>
 <path d="m52.213 50.637c-17.761 16.346-26.171 43.596-14.112 68.417 15.152 31.209 52.828 38.192 78.518 25.88 29.272-14.062 41.393-48.275 27.232-77.337-18.464-37.993-66.758-39.921-91.638-16.96m-29.298 103.74c-5.8395-25.357-15.074-64.256-21.349-88.682 21.325-19.624 47.92-45.592 67.122-63.846 27.801 8.1727 62.376 17.716 90.599 25.885 5.7433 25.093 15.299 66.284 21.921 91.219-15.161 15.876-45.916 45.613-65.364 64.63-23.097-4.3279-45.127-10.079-64.798-16.724-6.5835-26.547-22.917-23.486-28.13-12.483" fill="#ffe792"/>
 <path d="m31.481 67.841c2.9992 0.05003 5.0734 0.46672 6.5297 2.2083 3.4333-7.3489 8.2731-13.986 14.199-19.419 10.857-10.032 26.174-15.308 41.546-14.901-4.2107-2.3517-9.7676-3.9774-14.75-4.3643-9.4744-0.76452-15.36-6.1143-15.259-15.697 0.06125-3.853-0.76414-5.8495-2.4432-6.7622-14.654 14.007-32.176 30.977-48.176 46.022 3.4025 8.5102 9.9554 12.707 18.354 12.914" fill="#fff4cc"/>
 <path d="m152.68 103.94c-0.77453-6.532-1.4107-10.07-3.0422-14.493 1.8264 29.323-17.925 50.359-38.308 57.662 12.11 3.3141 29.159 1.2275 39.821-6.3874 8.825-6.3495 10.04-12.556 6.4844-18.739-2.5134-4.3782-3.9204-9.0083-4.9547-18.042" fill="#fff4cc"/>
 <path d="m125.15 45.616c-22.538-15.4-54.31-12.172-72.924 5.0197-17.761 16.345-26.193 43.604-14.127 68.41 8.1008 16.637 22.594 26.411 38.244 30.024-31.203-11.941-43.019-49.94-27.084-78.6 16.149-28.963 50.899-38.488 75.892-24.853" fill="#877b4c"/>
 <path d="m104.44 149.11c-17.216 3.9308-36.905 0.49925-51.535-11.333-15.64-3.5169-25.853-0.78203-32.289 6.6472 0.79018 3.4816 1.5694 6.8299 2.3056 9.9567 5.2135-11.003 21.547-14.064 28.123 12.498 19.663 6.6232 41.708 12.381 64.805 16.709 11.536-11.29 27.061-26.336 40.944-40.026-24.291 9.9444-42.472 9.3966-52.355 5.5485" fill="#dbc77f"/>
 <path d="m100.54 180.46c-13.293 7.997-38.118 0.93969-44.029-11.763 11.468 3.4721 28.102 7.8011 44.029 11.763" fill="#c8be89"/>
 <path d="m106.75 256.71c14.28 7.6049 24.582 0.71947 22.112-8.4544-2.4052-8.9596-11.857-15.298-11.854-28.277-0.0133-9.8766 8.1403-17.856 19.473-18.365 7.553-0.33407 6.7686-8.061-1.8758-9.701-7.9138-1.5185-15.948-0.58559-25.169 2.6138-7.8454 2.7244-16.148 2.2329-29.914-2.5509-17.197-5.9838-27.495-13.687-33.562-29.191-4.7128-12.015-10.494-12.885-13.946-12.081-8.7531 2.0806-9.9055 18.459-2.1773 37.266 11.922 29.151 11.899 36.097 5.775 49.714l61.814 9.7094z" fill="#dbdcdc"/>
 <path d="m32.806 153.45c-4.6641 0.96973-6.8204 7.5058-4.8177 15.838 2.8628 12.213 9.1402 16.097 12.851 15.286 3.9325-0.8546 6.7542-7.4817 4.0962-18.134-1.8998-7.5335-6.8383-14.088-12.13-12.99" fill="#eeeeef"/>
 <path d="m33.299 154.3c-2.4843 0.34033-3.9306 3.4366-3.3542 7.5323 0.64039 4.5467 2.6566 6.9716 5.0748 6.655 2.4482-0.3028 3.9896-3.1708 3.6096-7.4128-0.38589-4.4645-2.7778-7.0649-5.3302-6.7744" fill="#fff"/>
 <path d="m36.615 170.25c-0.92305 0.17272-1.5339 1.755-0.88565 4.3647 0.53518 2.264 1.7351 3.5752 2.5549 3.4272 1.0693-0.2515 1.4799-1.8351 0.94683-4.2995-0.54705-2.4343-1.5597-3.6763-2.616-3.4924" fill="#fff"/>
 <path d="m35.612 237.68c-5.7011 14.711-0.39251 20.67 15.832 14.628 4.0711-1.5034 7.1884-0.92594 9.7296 1.7077 6.0439 6.2656 17.117 11.329 30.657 3.7036 5.3364-3.036 10.355-3.5109 14.919-1.0123 5.1726 2.8009 11.677 0.16398 12.144-6.2821 0.58934-7.9633-5.4919-15.638-13.443-17.155-12.8-2.4645-19.132-5.0566-23.784-10.068-8.4117-9.0744-19.614-7.2774-24.997-1.8283-3.3444 3.4357-5.1918 4.5683-8.4366 4.7734-6.0467 0.32408-10.231 5.3999-12.62 11.534" fill="#eeeeef"/>
 <g fill="#fff">
  <path d="m38.037 247.76c-0.4726 1.2075 0.48473 3.1558 2.9615 3.9285 3.083 0.96471 5.0675 0.24398 5.3756-1.0035 0.29017-1.0911-0.49888-2.8512-3.158-3.7822-2.8315-0.99349-4.7127-0.2978-5.1792 0.85712"/>
  <path d="m101.23 245.76c-0.51803 0.91217 0.0375 2.6555 1.5118 3.2694 1.5159 0.63564 3.0784 0.23023 3.5337-0.78455 0.4492-0.96221-0.12517-2.5274-1.598-3.1633-1.5551-0.70821-2.9099-0.31532-3.4475 0.67819"/>
  <path d="m126.22 252.24c0.0751-2.5623-2.3646-5.4804-8.1224-6.0099-5.8841-0.53305-9.3652 1.6665-9.4948 4.8832-0.11261 3.1124 3.5689 6.1163 8.8368 6.0874 4.296-0.0249 8.648-2.1298 8.7805-4.9606"/>
 </g>
 <path d="m49.242 134.91c-10.012-13.173-14.64-28.7-13.042-44.504 1.7902-17.783 11.289-34.51 26.499-47.434l8.3078-3.4786c-18.714 13.173-30.25 31.401-32.226 51.148-1.8867 18.342 4.884 36.024 19.058 50.244z" fill="#5a4f2b"/>
 <path d="m48.194 70.876c3.9927-17.56 21.017-29.508 34.543-34.632l8.0349-0.34785c-20.06 6.3368-29.673 16.291-34.819 24.25z" fill="#5a4f2b"/>
 <g fill="#0f141b">
  <path d="m189.71 124.5c-2.6701-1.3387-6.6676-3.2064-9.2264-4.2738l1.1637-2.5688c2.551 1.0448 6.3 2.7784 8.9619 4.0954z"/>
  <path d="m53.412 51.743c-15.791 14.52-26.343 40.751-13.789 66.627 14.75 30.307 51.334 37 76.181 25.081 24.971-11.988 41.389-43.956 26.252-75.121-18.739-38.542-66.17-37.34-88.645-16.587m92.105 14.981c14.168 29.084 3.4398 64.588-28.184 79.766-28.122 13.482-65.962 3.9514-80.855-26.716-13.149-27.033-2.3848-54.776 14.666-70.465 25.749-23.764 75.588-21.223 94.373 17.414"/>
  <path d="m70.043 147.75c-27.783-14.481-37.372-50.818-22.223-78.032 15.305-27.508 46.357-37.387 70.686-28.603l8.4707 7.1064c-24.602-15.137-60.114-6.059-76.29 23.001-16.295 29.315-3.2993 67.335 29.345 77.679z"/>
  <path d="m50.493 164.92c20.046 6.7836 42.44 12.577 64.852 16.804 18.351-17.883 51.39-50.159 63.939-63.264-6.2926-24.818-16.106-66.203-21.382-89.356-27.629-7.8731-61.192-17.31-88.689-25.231-19.175 18.431-45.321 43.163-65.832 62.416 5.9816 23.446 14.689 60.104 20.722 86.302l-2.3135 3.9722c-5.9584-25.926-15.314-65.192-21.502-89.412-0.48724-1.857-0.44808-2.0584 0.8481-3.2654 21.109-19.358 46.234-43.981 65.817-62.972 0.9965-1.036 1.3062-1.1111 2.9664-0.62813 27.442 8.0784 61.497 17.873 89.288 25.712 1.2413 0.36036 1.4557 0.60686 1.9228 2.5461 5.3012 23.257 14.892 64.647 21.483 89.532 0.34659 1.334 0.26275 1.5143-0.6832 2.5189-12.831 13.357-45.928 45.442-64.322 63.378-1.0273 0.98476-1.5327 1.2425-2.9496 0.98351-21.794-4.1398-43.497-9.6103-63.054-16.147z"/>
  <path d="m160.32 26.52c2.903 2.5646 6.6915 6.0555 10.298 9.6995 0.79332 0.80956 0.97224 1.1324 1.2647 2.3485 6.1501 23.086 15.282 60.051 20.332 83.922 0.25901 1.366 0.16759 1.5613-0.7933 2.522-16.77 16.497-40.973 40.324-56.306 55.9-0.68568 0.72324-0.99976 0.88715-1.9755 1.0548-6.4198 1.0836-11.369 1.9572-16.907 2.9951l1.0511-3.4638c4.6089-0.81333 8.9734-1.6115 15.551-2.9144 15.01-15.159 39.633-39.375 56.079-55.768-5.0554-24.057-14.022-60.67-20.195-83.785-3.3406-3.3914-6.6422-6.4352-9.4861-9.0087z"/>
  <path d="m131.85 180.22c15.099 2.4405 22.861 7.7328 23.948 16.223 1.1924 9.1254-4.8073 14.836-19.022 17.752-4.613 0.93844-7.2647 3.6365-8.5111 7.8328-1.5596 5.5328 0.42542 12.099 5.4813 16.915 8.9551 8.5776 11.599 17.85 7.7805 25.513-4.0388 8.018-13.975 11.102-28.763 6.4272-5.3285-1.6837-13.308-1.2187-20.993 0.84836-10.955 2.9926-17.094 2.926-27.855-1.0023-4.8333-1.7638-10.171-2.4083-16.165-1.7665-20.016 2.165-27.503-0.0751-31.386-7.6692-2.1216-4.1586-3.6367-11.457 6.1078-23.694 6.4147-7.9698 9.2075-14.849 2.2408-33.483-12.176-32.565-6.8699-55.443 6.5956-58.911 8.3954-2.1378 17.467 4.114 21.625 24.017 1.045 4.9738-0.95434 5.4128-2.2639 0.53554-4.6594-17.263-11.547-23.172-18.689-21.327-10.606 2.7161-15.814 23.974-4.3632 54.681 7.2059 19.258 4.3585 27.43-2.8383 36.408-6.6143 8.2795-7.902 15.386-5.3818 20.298 2.5842 5.0887 8.5894 8.2238 28.103 6.1537 6.556-0.70821 12.094-0.0626 17.535 1.9304 9.6376 3.5504 15.733 3.6703 25.996 0.86712 7.7501-2.1282 15.914-2.9094 22.597-0.79455 11.278 3.5662 21.105 2.5182 24.882-5.0179 3.2987-6.5512 1.3287-13.934-6.872-21.775-5.6426-5.4006-8.2677-13.145-6.2757-19.995 1.4191-4.9578 4.9318-8.4795 10.866-9.6986 14.098-2.861 17.322-8.5865 16.522-14.673-0.98725-7.5282-10.019-12.572-28.911-14.495z"/>
 </g>
 <path d="m78.248 100.61c-6.6853 5.6099-12.799 5.6463-16.498 1.3368-2.9477-3.4094-4.2897-10.06 1.2494-16.077 11.063-12.041 25.667-15.673 38.002-12.84 14 3.2268 25.11 14.715 25.273 31.727 0.11261 7.173-2.9134 10.43-7.5826 11.489-4.6462 1.0886-10.148-1.5554-12.402-8.4488-2.3819-7.2462-6.7703-11.53-12.097-12.59-4.8496-0.9835-10.436 0.74574-15.945 5.4036" fill="#3e3a39"/>
 <g fill="#595857">
  <path d="m113.66 93.403c2.3932 4.322 7.8423 4.9636 11.238 1.7714-3.4062-11.716-12.742-19.556-23.89-22.146-9.3035-2.1494-19.896-0.59811-29.27 5.476-2.3506 3.9733 0.74062 6.9187 7.0966 5.1096 12.644-3.6683 28.179-2.1597 34.826 9.7891"/>
  <path d="m60.17 90.243c-1.9621 4.6308-0.66316 9.1007 1.5804 11.705 3.6829 4.2654 9.7455 4.2599 16.323-1.2362-10.122 2.2284-17.617-2.7742-17.903-10.469"/>
  <path d="m105.43 105.54c2.3515 5.5476 4.7225 12.66 13.264 10.719 4.595-1.0573 7.5825-4.2386 7.5765-11.162-5.3492 7.296-14.262 6.7391-20.841 0.44296"/>
 </g>
 <path d="m120.87 88.953c2.2177 4.4231 1.1987 7.7005-0.77829 8.6808-2.3133 1.19-5.6607-0.22772-7.5801-4.0356-1.8322-3.6024-1.8376-7.4314 0.52054-8.8743 2.139-1.3258 5.3944-0.57433 7.8375 4.2291" fill="#c8c9ca"/>
 <path d="m119.41 89.473c1.1662 2.2842 0.38664 4.2269-0.74701 4.8137-1.3401 0.67444-3.412-0.2202-4.3763-2.1544-1.2212-2.4014-0.79329-4.4164 0.57684-5.1134 1.2589-0.65692 3.309-0.0251 4.5474 2.4541" fill="#fff"/>
 <path d="m94.409 93.763c6.3196 1.2863 10.895 6.1885 13.326 13.604 1.8904 5.7898 6.2184 8.3611 10.681 7.3519 3.8574-0.88964 6.3166-3.5668 6.2362-9.9391-0.16759-14.963-9.258-26.936-23.989-30.321-12.395-2.8613-26.491 1.4468-36.595 12.453-4.8674 5.3241-3.7505 11.046-1.2005 14.013 2.9858 3.4455 7.9779 3.9286 14.38-1.466 6.2703-5.3093 11.551-6.8154 17.161-5.6956m-15.245 7.9822c-7.2436 6.0996-14.153 6.3503-18.624 1.1862-3.4765-4.041-4.8152-11.404 1.2783-18.059 10.292-11.175 24.798-16.555 39.492-13.169 16.128 3.7266 26.344 16.738 26.503 33.052 0.0877 7.1288-2.9249 11.669-8.8259 13.013-6.6976 1.5213-12.231-3.1328-14.3-9.4818-2.2067-6.7981-5.7534-10.689-10.774-11.698-4.528-0.88839-10.017 1.1424-14.749 5.1565" fill="#0f141b"/>
</svg>
