<?xml version="1.0" encoding="UTF-8" standalone="no"?>
<!-- Created with Inkscape (http://www.inkscape.org/) -->

<svg
   version="1.1"
   viewBox="0 0 62.685 80.923"
   id="svg54"
   sodipodi:docname="808-8.svg"
   inkscape:version="1.3 (0e150ed, 2023-07-21)"
   xmlns:inkscape="http://www.inkscape.org/namespaces/inkscape"
   xmlns:sodipodi="http://sodipodi.sourceforge.net/DTD/sodipodi-0.dtd"
   xmlns="http://www.w3.org/2000/svg"
   xmlns:svg="http://www.w3.org/2000/svg">
  <defs
     id="defs54" />
  <sodipodi:namedview
     id="namedview54"
     pagecolor="#505050"
     bordercolor="#eeeeee"
     borderopacity="1"
     inkscape:showpageshadow="0"
     inkscape:pageopacity="0"
     inkscape:pagecheckerboard="0"
     inkscape:deskcolor="#d1d1d1"
     inkscape:zoom="2.0621728"
     inkscape:cx="46.55284"
     inkscape:cy="44.128213"
     inkscape:window-width="1312"
     inkscape:window-height="431"
     inkscape:window-x="8"
     inkscape:window-y="171"
     inkscape:window-maximized="0"
     inkscape:current-layer="svg54" />
  <path
     d="m 49.8162,55.9755 c -0.561265,-1.347424 -3.347235,-1.87767 -6.582022,-0.745446 -0.186119,-1.206865 -0.20066,-2.4147 -9.7e-4,-3.774726 0.153161,-1.04692 -0.287903,-1.685735 -2.721021,-0.67759 -1.657623,0.687283 -2.834438,0.813301 -3.41703,-0.04071 -0.410043,-0.60101 -0.996512,-0.742538 -1.880577,-0.363514 -0.915086,0.391625 -1.457933,0.315045 -1.779764,-0.182242 -0.373207,-0.576775 -0.686314,-0.668865 -1.212682,-0.221986 -0.775496,0.655295 -1.46084,1.319313 -2.079298,2.080268 0.129895,-2.721021 -0.622336,-5.111488 -1.991086,-5.256893 -2.594034,-0.27627 -8.082607,5.286944 -8.53918,11.461831 -3.143667,3.300705 -6.350343,7.396293 -7.746236,11.269895 -3.6496782,1.906751 -6.2233555,4.987409 -6.2233555,7.460272 0,1.202988 0.5399391,2.349753 2.7307153,2.349753 2.0948082,0 4.6985362,-0.856923 7.9042432,-0.856923 1.841803,0 6.699316,1.586859 10.540929,1.586859 2.983721,0 5.714436,-0.349943 7.747205,-0.349943 1.744866,0 3.935642,0.794883 6.253406,0.794883 1.777825,0 3.650647,-0.888912 3.650647,-2.603727 0,-1.747775 -1.510278,-2.455415 -1.887363,-3.967632 -0.391625,-1.573287 1.672163,-3.786359 1.227222,-9.327278 -0.07949,-0.983911 0.144437,-1.390077 0.818149,-1.718693 4.793534,-2.336182 5.946115,-5.096948 5.188068,-6.916455"
     fill="#9e9e9f"
     id="path1"
     style="stroke-width:0.96937" />
  <path
     d="m 38.5512,79.1105 c -1.413341,-0.256883 -2.83153,-0.464328 -4.994194,-0.464328 -2.224704,0 -7.423436,-0.02133 -9.121772,-0.263669 L 22.170786,78.119804 10.783596,76.528098 9.6581578,74.099826 c 1.8117522,-1.865067 2.3100082,-2.979843 2.0124122,-3.290041 -0.219078,-0.227802 -1.374567,0.02714 -2.5940342,0.567081 -2.1006248,1.742927 -3.4335086,3.83192 -3.4335086,5.607806 0,1.202988 0.5399391,2.348783 2.7307153,2.348783 2.0948085,0 4.6985365,-0.855954 7.9042435,-0.855954 1.841803,0 6.700285,1.58589 10.540929,1.58589 2.98469,0 5.714436,-0.348973 7.747205,-0.348973 1.744866,0 3.935642,0.793914 6.253406,0.793914 0.254944,0 0.510858,-0.02036 0.763863,-0.05622 1.166152,-0.564173 2.129706,-1.52288 2.043432,-2.655104 -0.881157,1.32222 -2.640564,1.756498 -5.075621,1.313496"
     fill="#eeeeef"
     id="path2"
     style="stroke-width:0.96937;fill:#dbdcdc;fill-opacity:1" />
  <path
     d="m 10.2542,73.4665 c -0.801669,0.847229 -2.8014793,1.360995 -2.5261782,2.848978 0.1211712,0.66208 0.5835607,1.271814 2.3158252,1.337731 0.900544,0.0349 2.009504,-0.180303 2.902293,-0.09597 z"
     fill="#595857"
     id="path3"
     style="stroke-width:0.96937;fill:#ffffff;fill-opacity:1" />
  <path
     d="m 43.1732,51.9995 c 0.02036,-0.181272 0.03296,-0.357698 0.0601,-0.544786 0.15413,-1.04692 -0.286934,-1.685734 -2.720052,-0.67759 -1.657623,0.687284 -2.835408,0.813302 -3.417999,-0.04071 -0.409074,-0.60101 -0.996512,-0.741568 -1.880578,-0.363514 -0.914116,0.392595 -1.457932,0.315045 -1.779763,-0.181272 -0.373207,-0.576775 -0.686314,-0.669835 -1.212682,-0.222955 -0.775496,0.656263 -1.46084,1.320282 -2.078329,2.081237 0.128926,-2.721991 -0.622336,-5.112457 -1.991086,-5.256893 -0.226833,-0.02423 -0.474991,-9.7e-4 -0.740599,0.05913 1.252426,0.628152 1.884455,3.196983 1.412372,5.771629 -0.515705,2.812143 0.935442,3.67779 2.973058,2.214041 1.286354,-0.924779 2.527148,-1.244671 3.473253,-0.440094 0.735752,0.626213 1.35421,0.623305 2.532964,-0.166731 1.339669,-0.898606 2.312916,-1.306711 3.185349,-1.380383 0.871464,-0.07367 1.652776,-0.293719 2.183991,-0.851107"
     fill="#9d977a"
     id="path4"
     style="stroke-width:0.96937" />
  <path
     d="m 43.2282,51.5265 c -0.449788,-0.464328 -0.914116,-0.44591 -1.586859,-0.207445 -2.699695,0.954829 -4.094619,1.135132 -4.914706,0.409074 -0.531214,-0.469175 -1.319312,-0.531215 -1.866037,-0.272393 -0.544786,0.256883 -1.501554,0.409074 -1.849558,0.07561 -0.346065,-0.331525 -0.927687,-0.372238 -1.517064,0.166731 -0.530245,0.485655 -0.970339,0.895698 -1.441453,1.562625 0.04944,-0.392595 0.109539,-0.791975 0.09112,-1.210743 0.6456,-0.825903 1.426912,-1.560686 1.893179,-1.957158 0.467237,-0.396473 1.036257,-0.443972 1.397832,0.09888 0.362544,0.542847 1.111867,0.507949 1.779763,0.182241 0.669835,-0.327647 1.414311,-0.251067 1.881547,0.363514 0.548664,0.72315 1.503493,0.800699 3.17081,0.08918 2.037615,-0.866617 3.145605,-0.819118 2.961425,0.699885"
     fill="#c8be89"
     id="path5"
     style="stroke-width:0.96937" />
  <path
     d="m 43.2342,55.2305 c 0.02714,0.340249 0.108569,0.848199 0.178364,1.082786 0.734783,0.696977 1.43079,0.625244 2.786939,0.220047 1.443392,-0.433308 2.83056,-0.576775 3.715595,-0.336371 C 49.261743,54.351281 45.703185,54.318323 43.2342,55.2305"
     fill="#9d977a"
     id="path6"
     style="stroke-width:0.96937" />
  <path
     d="m 43.2942,55.6415 c 0.189027,0.537031 0.917993,0.514735 1.944556,0.130865 1.097327,-0.411982 2.357508,-0.593254 3.826104,-0.55351 -1.218498,-1.022686 -4.853636,-0.509889 -5.840455,-0.09984 z"
     fill="#c8be89"
     id="path7"
     style="stroke-width:0.96937" />
  <path
     d="m 15.4962,75.8145 c 2.427302,0.161885 5.27822,0.545755 7.402109,1.334822 3.975387,1.476351 8.459692,1.044012 12.416661,-1.294108 4.004467,-2.366233 6.826303,-6.046931 7.26155,-11.527748 0.0853,-1.095389 0.487593,-1.901904 1.333853,-2.427303 3.286165,-2.042463 4.21676,-3.44708 3.913347,-4.094619 -0.303413,-0.647539 -1.283446,-0.634937 -3.003108,-0.111477 -1.380383,0.419737 -2.272203,0.136681 -2.325519,-1.587828 -0.09015,-2.899386 -2.304192,-3.280349 -4.884655,-0.545756 -0.949983,1.008145 -1.796243,1.205896 -2.588218,0.121171 -0.726058,-0.993604 -2.103533,-0.752231 -3.498456,0.222956 -1.749713,1.223345 -3.758248,1.158397 -3.003109,-3.023465 0.506011,-2.809235 -0.04556,-4.307881 -1.051766,-4.510479 -2.208225,-0.443972 -4.779964,3.61575 -5.702804,7.84705 -0.268515,1.229161 -0.601979,2.457353 -1.360995,3.624475 -0.758048,1.16906 -2.396283,4.46201 -3.776666,6.810793 -0.950952,1.617879 -2.062819,3.519783 -2.992445,4.752821 z"
     fill="#dbdcdc"
     id="path8"
     style="stroke-width:0.96937" />
  <path
     d="m 15.6782,67.0595 c -1.671194,2.210164 -3.06224,4.158597 -4.471704,5.480818 -2.1413381,2.009504 -2.6521961,2.850917 -2.5048519,3.532384 0.2084146,0.974217 1.9474639,1.441453 5.0620499,1.513187 3.027343,0.06979 6.578145,0.40035 10.671795,0.796822 -3.495549,-0.329586 -6.87865,-1.423035 -10.213283,-1.8767 -2.689032,-0.365453 -3.009894,-1.824355 -2.146185,-3.182442 1.218498,-1.914506 2.505822,-3.758248 3.602179,-6.264069"
     fill="#595857"
     id="path9"
     style="stroke-width:0.96937" />
  <path
     d="m 32.2772,78.1955 c 3.914316,-1.46181 8.881368,-5.101794 10.143488,-9.673343 -0.0349,2.018228 -0.865648,3.922071 -1.409464,4.78481 -0.483716,0.765802 -0.528307,1.203958 0.487593,2.174297 1.182631,1.131255 1.548084,2.140369 1.077939,2.784031 -0.469175,0.643661 -1.913536,0.817179 -3.914316,0.417798 -2.001749,-0.40035 -4.436806,-0.574836 -6.38524,-0.487593"
     fill="#595857"
     id="path10"
     style="stroke-width:0.96937" />
  <path
     d="m 41.0102,73.3065 c -0.962584,1.469565 -2.105472,2.992445 -3.357898,3.583761 3.06321,1.217529 5.270465,-0.171579 3.845491,-1.409464 -1.0159,-0.970339 -0.971309,-1.408495 -0.487593,-2.174297"
     fill="#595857"
     id="path11"
     style="stroke-width:0.96937;fill:#dbdcdc;fill-opacity:1" />
  <path
     d="m 42.2132,76.8025 c -0.258822,0.47693 -0.696008,0.63106 -0.968401,0.482746 -0.263668,-0.141528 -0.351881,-0.624274 -0.101783,-1.086664 0.253974,-0.466266 0.670804,-0.622335 0.966461,-0.462389 0.276271,0.151222 0.364484,0.588408 0.103723,1.066307"
     fill="#dbdcdc"
     id="path12"
     style="stroke-width:0.96937;fill:#ffffff;fill-opacity:1" />
  <path
     d="M 44.7002,10.8155 C 39.916359,6.2584916 30.332198,6.971948 23.586352,14.051257 c -6.643093,6.971709 -7.057983,15.867618 -2.062819,20.628194 4.349563,4.145026 13.748574,3.99962 20.951963,-3.559527 6.9087,-7.250888 6.991096,-15.761956 2.224704,-20.304424 M 55.135468,26.022977 C 50.079234,30.998753 40.77619,40.463681 36.609838,44.791918 30.422349,43.82061 20.350595,42.445074 14.162137,41.636619 13.514598,36.054987 12.01886,25.41712 11.047551,18.945606 16.831782,13.606316 24.476234,5.9211509 29.937664,0.41997612 35.76067,1.2701136 45.953595,2.8065651 51.940425,3.5752755 52.830306,9.6425623 54.165129,19.350803 55.135468,26.022977"
     fill="#ffe792"
     id="path13"
     style="stroke-width:0.96937" />
  <path
     d="M 44.7002,10.8155 C 39.916359,6.2584916 30.332198,6.971948 23.586352,14.051257 c -6.643093,6.971709 -7.057983,15.867618 -2.062819,20.628194 1.514156,1.443392 3.642892,2.365262 6.076011,2.635717 C 23.799613,33.44932 23.976039,25.582883 28.22091,19.960537 31.978188,14.981852 37.562729,11.23039 45.120907,11.241053 44.985195,11.095648 44.844636,10.95412 44.7002,10.8155"
     fill="#877b4c"
     id="path14"
     style="stroke-width:0.96937" />
  <path
     d="m 47.1582,49.4755 c -0.820087,1.038195 -1.502524,1.121561 -1.830171,0.895698 -0.354789,-0.243312 -0.436216,-1.060491 0.321831,-2.059911 0.728967,-0.960646 1.548084,-1.054675 1.876701,-0.815241 0.382901,0.27821 0.323769,1.105082 -0.368361,1.979454"
     fill="#9d977a"
     id="path15"
     style="stroke-width:0.96937" />
  <path
     d="m 46.5512,53.2165 c -0.472083,0.589377 -0.940289,0.669835 -1.233039,0.427492 -0.228771,-0.188058 -0.209384,-0.746415 0.149283,-1.203957 0.397442,-0.506981 0.95483,-0.665958 1.213652,-0.47693 0.257852,0.188057 0.277239,0.746414 -0.129896,1.253395"
     fill="#9d977a"
     id="path16"
     style="stroke-width:0.96937" />
  <path
     d="M 13.8452,65.5405 C 11.296726,61.707611 6.5526295,54.475141 4.919241,51.909219 4.4743002,51.606776 3.7666601,51.424534 3.2819751,51.464278 2.3707673,51.990646 1.9064391,52.638185 1.7241975,53.44664 4.725367,57.540289 9.1873772,63.750074 12.331044,68.377846 12.750781,67.43368 13.262609,66.484666 13.8452,65.5405"
     fill="#e73821"
     id="path17"
     style="stroke-width:0.96937" />
  <path
     d="m 24.9582,5.4225 c -1.070184,1.9019039 -1.779763,3.7320745 -1.904812,5.23169 -0.117294,1.404617 -0.433308,2.268326 -0.883096,3.2154 -0.586469,1.234008 -1.1235,2.527148 -1.363904,3.764064 0.760956,-1.228192 1.683796,-2.432149 2.779184,-3.582792 C 28.584613,8.8056013 35.140462,7.0578272 40.147259,8.3577524 40.288787,8.0969918 40.169554,7.7218456 39.926242,7.316649 39.263193,6.2105978 40.735666,4.363948 44.032493,3.9190071 45.28395,3.7503368 46.488877,3.4265672 47.557123,2.9845345 41.752535,2.1741411 34.504556,1.086508 29.936884,0.4205508 28.416912,1.9502167 26.7273,3.6524304 24.9582,5.4225"
     fill="#fff4cc"
     id="path18"
     style="stroke-width:0.96937" />
  <path
     d="m 23.6262,37.3295 c -3.805747,-1.81563 -7.480628,-0.438155 -9.641354,2.827652 0.06398,0.52346 0.124079,1.019778 0.176425,1.479259 6.188458,0.808454 16.260213,2.183991 22.448671,3.155299 2.640564,-2.744286 7.345886,-7.551392 11.72453,-11.97075 -7.46221,4.611293 -18.497518,7.471904 -24.708272,4.50854"
     fill="#dbc77f"
     id="path19"
     style="stroke-width:0.96937" />
  <path
     d="M 62.2532,30.5545 C 61.565917,25.417808 60.270838,15.751251 59.462384,10.492418 57.116508,8.0253718 54.365436,5.5980693 51.939103,3.5759635 c 0.884066,6.0314202 2.208225,15.6553255 3.177595,22.3245915 2.10838,1.369719 4.685935,3.058362 7.055075,4.731495 0.0252,-0.02424 0.05525,-0.05332 0.08143,-0.07755"
     fill="#fff4cc"
     id="path20"
     style="stroke-width:0.96937;fill:#b4a468;fill-opacity:1" />
  <path
     d="m 14.1622,41.6365 c 3.518813,1.617879 7.199511,3.114586 10.67858,4.367981 6.551972,0.889882 12.214062,1.617879 18.888174,2.427303 0.09015,-0.09209 0.190966,-0.191936 0.284026,-0.286934 C 41.575984,47.116349 38.407113,45.751476 36.028279,44.700679 29.805893,43.737125 20.16357,42.42169 14.1622,41.6365"
     fill="#877b4c"
     id="path21"
     style="stroke-width:0.96937;fill:#b4a468;fill-opacity:1" />
  <path
     d="m 62.1722,30.6315 c -2.36914,-1.673133 -4.946695,-3.361775 -7.055075,-4.731495 0.0058,0.04071 0.01163,0.08337 0.01745,0.12311 -5.056234,4.975776 -14.358309,14.440705 -18.524661,18.767973 -0.186119,-0.02908 -0.388717,-0.0601 -0.582591,-0.09015 2.378834,1.050797 5.548674,2.41567 7.98567,3.443202 C 48.815251,43.283717 57.277851,35.286415 62.1722,30.6315"
     fill="#877b4c"
     id="path22"
     style="stroke-width:0.96937" />
  <path
     d="m 28.0232,53.8545 c -0.975186,2.785 -2.583371,3.809624 -3.550802,3.455804 -0.930596,-0.339279 -1.618848,-2.06185 -0.704732,-4.841034 0.832689,-2.527147 2.440873,-3.947274 3.637076,-3.55371 1.182631,0.389687 1.408495,2.680308 0.618458,4.93894"
     fill="#eeeeef"
     id="path23"
     style="stroke-width:0.96937" />
  <path
     d="m 27.1192,51.2895 c -0.513766,0.948044 -1.322221,1.452116 -1.824354,1.180693 -0.450757,-0.244282 -0.560296,-1.198142 0,-2.230521 0.443971,-0.820087 1.312527,-1.434667 1.847619,-1.144826 0.481777,0.260761 0.449788,1.320282 -0.02327,2.194654"
     fill="#ffffff"
     id="path24"
     style="stroke-width:0.96937" />
  <path
     d="m 27.0362,53.6145 c -0.301474,0.457543 -0.715395,0.537031 -0.894729,0.428462 -0.209383,-0.125049 -0.228771,-0.553511 0.0601,-1.00136 0.249129,-0.38484 0.653356,-0.611672 0.917994,-0.441063 0.202598,0.130865 0.2152,0.560296 -0.08337,1.013961"
     fill="#ffffff"
     id="path25"
     style="stroke-width:0.96937" />
  <path
     d="m 15.4962,75.8145 c 2.342967,0.194843 4.234208,-0.781312 7.1239,0.04556 8.600251,2.460261 14.652028,-2.094808 14.652028,-4.656853 0,-2.568831 -5.067867,-5.762905 -11.345507,-5.762905 -2.017259,0 -3.114586,0.348004 -4.716954,1.758437 -0.759017,0.667896 -1.532574,0.834628 -2.396283,0.849169 -1.21559,0.02229 -1.550992,0.191935 -2.260571,0.697946 -1.167121,0.834628 -2.001749,1.512217 -2.916834,2.659951 -1.50737,1.887364 -1.828232,4.101405 1.860221,4.408695"
     fill="#eeeeef"
     id="path26"
     style="stroke-width:0.96937" />
  <path
     d="m 19.7992,70.5965 c 0.120202,0.232649 -0.05331,0.58453 -0.599071,0.849168 -0.506011,0.24622 -0.926717,0.218108 -1.038195,-0.01551 -0.119232,-0.244281 0.06107,-0.588407 0.529276,-0.833658 0.457543,-0.238465 0.979064,-0.250097 1.10799,0"
     fill="#ffffff"
     id="path27"
     style="stroke-width:0.96937" />
  <path
     d="m 17.5702,71.7495 c 0.296627,0.683406 -0.218108,1.678949 -1.653745,2.237306 -1.355179,0.526368 -2.344906,0.317953 -2.639595,-0.440094 -0.267546,-0.689222 0.137651,-1.774916 1.502524,-2.305162 1.410433,-0.548663 2.458322,-0.259791 2.790816,0.50795"
     fill="#ffffff"
     id="path28"
     style="stroke-width:0.96937" />
  <path
     d="m 29.1312,52.3335 c -0.125049,0.06786 -0.15413,0.448818 0.08337,0.83075 0.257852,0.41489 0.505042,0.529276 0.64657,0.441063 0.146374,-0.09306 0.133773,-0.455603 -0.09209,-0.847229 C 29.566447,52.406203 29.264973,52.259828 29.1312,52.3335"
     fill="#c8be89"
     id="path29"
     style="stroke-width:0.96937" />
  <path
     d="m 28.1522,46.7925 c -0.225863,-0.02423 -0.474991,-9.69e-4 -0.740599,0.0601 0.821057,0.411013 1.372628,1.659561 1.524819,3.195043 l 0.0029,0.0029 c 0.152192,1.208804 0.689223,1.352271 1.211713,0.995543 C 30.073491,48.763229 29.349372,46.919487 28.1522,46.7925"
     fill="#c8be89"
     id="path30"
     style="stroke-width:0.96937" />
  <path
     d="m 45.6682,48.2905 c -0.01163,0.456573 0.393564,0.665957 0.98488,0.191935 0.50795,-0.406166 0.555449,-0.873402 0.319892,-1.084725 -0.379024,0.05525 -0.856923,0.312137 -1.304772,0.89279"
     fill="#c8be89"
     id="path31"
     style="stroke-width:0.96937" />
  <path
     d="m 46.8432,52.2355 c -0.02811,-0.116324 -0.0824,-0.213261 -0.161885,-0.271424 -0.182241,-0.133773 -0.512797,-0.09015 -0.831719,0.12311 -0.172548,0.722181 0.425553,0.909269 0.993604,0.148314"
     fill="#c8be89"
     id="path32"
     style="stroke-width:0.96937" />
  <path
     d="m 12.9402,64.1745 c -0.905392,0.383871 -1.404617,0.170609 -1.970729,-0.61555 -2.5504127,-3.545955 -5.3305658,-7.506801 -8.2570939,-11.700296 -0.5418778,0.44688 -0.8481987,0.97034 -0.9868186,1.588798 3.0002001,4.09268 7.4631796,10.303433 10.6068465,14.930236 0.419737,-0.944166 0.931565,-1.893179 1.514156,-2.837346 C 13.568352,65.123513 13.262031,64.661124 12.9402,64.1745"
     fill="#c82f1a"
     id="path33"
     style="stroke-width:0.96937" />
  <path
     d="m 33.2342,14.9775 c 1.080848,-2.362355 3.669065,-4.566702 7.198542,-6.5529412 l 0.81427,0.2762705 c -3.253205,1.7797637 -5.70862,3.7834507 -6.916455,5.6097437 z"
     fill="#5a4f2b"
     id="path34"
     style="stroke-width:0.96937" />
  <path
     d="M 33.5032,8.5565 C 24.105158,15.575708 21.25521,25.939243 26.063285,36.924144 L 25.259678,36.665322 C 20.746291,26.257196 23.188134,15.900447 31.858179,9.015012 Z"
     fill="#5a4f2b"
     id="path35"
     style="stroke-width:0.96937" />
  <path
     d="m 19.9562,32.6865 c -0.965493,-4.386399 -0.759986,-9.684976 0.632999,-14.402899 l 1.166152,-1.679919 c -1.880578,5.973258 -2.104503,12.18692 -0.764833,17.376927 z"
     fill="#5a4f2b"
     id="path36"
     style="stroke-width:0.96937" />
  <path
     d="m 30.1032,0.8899 c -4.812922,4.8478194 -12.652217,12.729767 -18.581854,18.210585 1.03141,6.882527 2.392406,16.804998 3.018619,22.153012 5.236536,0.685345 15.421707,2.041494 21.915517,3.055455 C 40.398879,40.215302 49.453764,30.983992 54.66122,25.855055 53.739349,19.309869 52.324069,9.8042265 51.476839,4.0238732 46.839373,3.4248026 35.742995,1.7216195 30.1032,0.8899 m 0.197751,-0.86080056 c 5.732855,0.84432127 16.841835,2.45735296 21.554912,3.06999476 0.423614,0.056223 0.518613,0.1560686 0.592285,0.6669266 0.904422,6.2892722 2.106441,15.2811482 3.083566,21.9930662 0.05429,0.371269 0.01163,0.47693 -0.259791,0.745446 -5.169651,5.095978 -14.198363,14.292391 -18.181504,18.424815 -0.274332,0.284995 -0.433308,0.327648 -0.817179,0.265608 -6.566512,-1.048858 -16.797243,-2.409854 -22.008576,-3.091321 -0.481777,-0.06398 -0.520552,-0.175456 -0.567082,-0.570959 -0.623305,-5.305362 -2.044401,-15.380994 -3.068056,-22.227654 -0.07367,-0.498256 -0.02229,-0.590346 0.316015,-0.905392 5.854025,-5.423625 13.732095,-13.3181741 18.508181,-18.12818806 0.265607,-0.26851549 0.378054,-0.31116777 0.847229,-0.2423425"
     fill="#0f141b"
     id="path37"
     style="stroke-width:0.96937" />
  <path
     d="m 15.3812,41.6985 c 3.167901,1.429821 6.297997,2.720052 9.557019,3.895898 6.5384,0.887943 12.054116,1.575226 18.628383,2.372048 C 47.759127,43.708973 56.61723,35.272546 61.780095,30.368503 61.083118,25.163956 59.846202,15.939431 59.046472,10.72519 57.120333,8.7059921 54.798692,6.5326645 51.891552,4.1024539 l 0.340249,-0.8869735 c 2.976935,2.4806178 5.398421,4.7547598 7.364303,6.8049776 0.225864,0.234587 0.268516,0.345095 0.322801,0.704732 0.794883,5.211333 2.052156,14.393206 2.739439,19.518265 0.05719,0.4304 0.04265,0.524429 -0.239434,0.791975 -5.128937,4.871084 -13.960867,13.230931 -18.189259,17.507792 -0.303413,0.305351 -0.401319,0.346065 -0.804577,0.297596 C 37.006875,48.061445 31.401009,47.333448 25.021585,46.4678 24.773426,46.433872 24.718172,46.425148 24.50491,46.348568 20.989975,45.074816 17.24239,43.538364 13.87383,41.99125 Z"
     fill="#0f141b"
     id="path38"
     style="stroke-width:0.96937" />
  <path
     d="M 42.1192,30.7545 C 48.390055,24.173447 49.309987,15.812631 44.345843,11.082105 39.971076,6.9138142 30.666093,7.2947766 23.929941,14.362453 17.417714,21.19942 17.158892,29.916964 21.811868,34.349893 25.749449,38.102325 34.770406,38.465838 42.1192,30.7545 m 0.724119,0.718303 c -7.263489,7.622156 -17.035708,7.919753 -21.64797,3.525599 -5.191946,-4.948634 -4.815831,-14.071375 2.039554,-21.26507 6.867017,-7.2062964 16.793366,-7.9943942 21.782713,-3.238665 5.235568,4.987409 4.439715,14.036478 -2.174297,20.978136"
     fill="#0f141b"
     id="path39"
     style="stroke-width:0.96937" />
  <path
     d="m 27.0492,37.2695 c -3.665188,-4.086864 -3.40055,-11.999831 0.820087,-17.590188 4.025794,-5.333474 9.670435,-8.843563 16.872854,-8.843563 l 0.731875,0.806516 c -7.368182,0.06301 -12.9566,3.327848 -16.906783,8.560507 -4.394154,5.821067 -4.297217,13.548884 -0.407135,17.158818 z"
     fill="#0f141b"
     id="path40"
     style="stroke-width:0.96937" />
  <path
     d="m 43.1552,54.7975 c 3.411213,-1.189417 6.387179,-0.56999 7.045381,1.009114 0.840444,2.017259 -0.07949,4.864299 -5.414901,7.413742 -0.517643,0.247189 -0.636876,0.643662 -0.572897,1.389107 0.47693,5.637856 -1.546145,7.779194 -1.20105,9.218709 0.341218,1.424004 1.903843,1.955219 1.903843,4.086864 0,2.039554 -2.033738,3.007955 -4.101405,3.007955 -2.525208,0 -4.505631,-0.795853 -6.257283,-0.795853 -2.070574,0 -4.534713,0.348004 -7.751082,0.348004 -3.972479,0 -8.680709,-1.58492 -10.533175,-1.58492 -3.09326,0 -5.391636,0.839474 -7.9032734,0.839474 -2.5232702,0 -3.1969823,-1.255334 -3.1969823,-2.751072 0,-2.64638 2.5959729,-5.73867 6.3484037,-7.730725 1.527728,-4.145996 4.971899,-8.343368 7.690982,-11.18653 0.420707,-5.651427 5.749333,-12.029882 8.992845,-11.685756 1.87864,0.199691 2.607606,3.40152 2.192715,6.444372 -0.195812,1.439515 -0.719272,1.388138 -0.61555,-0.06204 0.221017,-3.086475 -0.60004,-5.38679 -1.665377,-5.507961 -2.234398,-0.254944 -7.680319,5.054295 -8.101025,11.096379 -0.0039,0.06398 -0.03102,0.12311 -0.07464,0.16867 -2.795663,2.905202 -6.177795,7.015331 -7.726848,11.189438 -0.02327,0.06495 -0.0698,0.119232 -0.131834,0.150252 -3.3850404,1.77007 -6.0023394,4.973838 -6.0023394,7.133594 0,1.279568 0.793914,1.940679 2.2954682,1.940679 2.1587872,0 4.5986912,-0.86274 7.9139362,-0.86274 2.099656,0 6.691562,1.58492 10.541899,1.58492 2.944946,0 5.359647,-0.335402 7.745267,-0.335402 1.832109,0 4.004467,0.778405 6.247589,0.778405 1.844711,0 3.191166,-0.958707 3.191166,-2.20144 0,-1.562624 -1.425943,-2.110318 -1.873792,-3.862939 -0.454635,-1.779764 1.64696,-3.884266 1.251457,-9.393196 -0.0853,-1.186508 0.116324,-1.591705 1.076,-2.073482 4.63165,-2.324549 5.540919,-5.024245 4.957359,-6.424984 -0.396473,-0.952891 -2.838316,-1.645991 -6.146776,-0.472083 z"
     fill="#0f141b"
     id="path41"
     style="stroke-width:0.96937" />
  <path
     d="m 30.1402,51.4265 c 0.511827,-0.591316 1.065338,-1.158397 1.819507,-1.798181 0.655295,-0.553511 1.214621,-0.577745 1.805937,0.339279 0.24622,0.379993 0.442033,0.38484 1.299925,0.01745 1.172938,-0.504073 1.781702,-0.321831 2.359447,0.52346 0.316984,0.463358 0.962584,0.703762 2.924589,-0.109539 2.557198,-1.059522 3.47713,-0.394534 3.255144,1.115745 -0.212292,1.449208 -0.235557,2.587248 -0.0097,4.065537 0.234587,1.541299 -0.272393,1.611093 -0.609734,0.107601 -0.320862,-1.434668 -0.358667,-2.72393 -0.149283,-4.27783 0.101784,-0.762894 -0.289842,-1.03141 -2.192715,-0.244282 -2.151032,0.891821 -3.255145,0.728967 -3.885235,-0.192904 -0.299535,-0.439125 -0.644631,-0.546725 -1.421096,-0.212292 -1.089572,0.464328 -1.795274,0.343157 -2.220827,-0.315045 -0.248159,-0.381932 -0.419737,-0.379993 -0.712487,-0.143467 -0.743507,0.59907 -1.509309,1.380383 -2.276081,2.347814 z"
     fill="#0f141b"
     id="path42"
     style="stroke-width:0.96937" />
  <path
     d="m 46.9132,49.2745 c 0.588408,-0.745446 0.649478,-1.362934 0.417798,-1.532574 -0.247189,-0.180303 -0.853045,0.04847 -1.410433,0.78422 -0.64657,0.852077 -0.664988,1.423036 -0.426523,1.586859 0.210354,0.146375 0.753201,0.0048 1.419158,-0.838505 m -1.767162,1.348394 c -0.464328,-0.319892 -0.625243,-1.401709 0.232649,-2.534903 0.780343,-1.027532 1.761346,-1.258242 2.32455,-0.848199 0.528306,0.382902 0.507949,1.495738 -0.265608,2.474802 -0.858862,1.086664 -1.791396,1.249518 -2.291591,0.9083"
     fill="#0f141b"
     id="path43"
     style="stroke-width:0.96937" />
  <path
     d="m 45.7062,52.6265 c -0.345096,0.441063 -0.306321,0.678559 -0.192905,0.778404 0.110509,0.09694 0.404228,0.07949 0.789068,-0.40035 0.292749,-0.365452 0.324739,-0.701824 0.194843,-0.796822 C 46.353739,52.10304 46.069714,52.164111 45.7062,52.6265 m 1.084725,0.797792 c -0.570959,0.713456 -1.296048,0.766771 -1.675071,0.454634 -0.334433,-0.27627 -0.411013,-0.997482 0.09791,-1.64599 0.503103,-0.640754 1.247579,-0.814271 1.645021,-0.52346 0.410043,0.300505 0.416829,1.110898 -0.06786,1.714816"
     fill="#0f141b"
     id="path44"
     style="stroke-width:0.96937" />
  <path
     d="M 12.1382,68.7905 C 9.0255529,64.202472 4.7041015,58.124522 1.5594652,53.8496 1.3617137,53.581085 1.3297245,53.462822 1.412121,53.176857 c 0.23071,-0.801669 0.689222,-1.39977 1.4841054,-1.90675 0.2142308,-0.137651 0.2888723,-0.172548 0.5350923,-0.16964 0.5089192,0.0048 1.110898,0.158977 1.5597163,0.41489 0.141528,0.08143 0.2229551,0.167701 0.3402489,0.348973 1.684765,2.638626 6.2786091,9.635538 8.7291771,13.313328 l -0.441064,0.727028 C 11.068016,62.067919 6.2987151,54.767594 4.6498167,52.180345 4.2833949,51.948666 3.820036,51.808107 3.3983601,51.828464 c -0.5564184,0.26173 -1.0808476,0.879218 -1.2698747,1.550992 2.9313749,3.99962 7.2615506,9.997113 10.3935856,14.600651 z"
     fill="#0f141b"
     id="path45"
     style="stroke-width:0.96937" />
  <path
     d="M 3.1959,51.4805 C 2.8120295,50.707912 2.5028005,50.125321 2.2294381,49.638697 c -0.5806526,-1.03141 -0.1240794,-1.30865 0.5253986,-0.319892 0.3499425,0.532184 0.8404437,1.334822 1.3241594,2.21501 z"
     fill="#0f141b"
     id="path46"
     style="stroke-width:0.96937" />
  <path
     d="M 1.8412,53.0415 C 1.2508537,52.040141 0.85147323,51.439131 0.37066571,50.81001 -0.34085187,49.877476 0.05949794,49.51784 0.83208583,50.398997 1.3196789,50.955416 1.7723747,51.54867 2.2599678,52.310595 Z"
     fill="#0f141b"
     id="path47"
     style="stroke-width:0.96937" />
  <path
     d="m 17.2122,15.9685 c 0.822026,3.12428 -1.068246,6.313507 -4.145026,7.119053 C 9.5124941,24.018148 6.3668884,22.162774 5.5225672,18.940588 4.7383468,15.944266 6.646067,12.707539 9.871161,11.863218 13.236814,10.981091 16.383389,12.813201 17.2122,15.9685"
     fill="#595857"
     id="path48"
     style="stroke-width:0.96937" />
  <path
     d="m 9.9322,13.1155 c -2.6260233,0.688253 -4.1440568,3.013771 -3.4984563,5.480818 0.644631,2.464139 3.0661173,4.165383 6.1681013,3.256114 2.38465,-0.698916 4.187678,-2.932344 3.457743,-5.723161 C 15.41011,13.649623 12.893625,12.340973 9.9322,13.1155 m 4.480428,3.167901 c 0.352851,1.425943 -0.444941,3.133004 -2.487403,3.668096 -1.9833313,0.518613 -3.5924855,-0.550602 -3.9666623,-1.978484 -0.3576976,-1.366812 0.2326488,-3.078719 2.4874033,-3.669065 2.01532,-0.527338 3.587638,0.447849 3.966662,1.979453"
     fill="#3e3a39"
     id="path49"
     style="stroke-width:0.96937" />
  <path
     d="m 12.4092,13.5105 c 0.680498,1.029471 0.385809,2.742348 -1.06243,3.701055 C 9.7298613,18.281739 7.9782097,17.892052 7.297712,16.862581 6.6734377,15.919384 6.8139964,14.204569 8.434783,13.131476 9.7802686,12.240625 11.703499,12.446132 12.4092,13.5105"
     fill="#c8c9ca"
     id="path50"
     style="stroke-width:0.96937" />
  <path
     d="m 11.8782,13.7225 c 0.456573,0.829781 -0.07949,2.087054 -1.289262,2.753011 C 9.2240649,17.225803 8.0094443,16.805097 7.6158801,16.088732 7.2610907,15.444101 7.3638439,14.163563 8.7985115,13.374496 10.192466,12.607725 11.481728,13.001289 11.8782,13.7225"
     fill="#ffffff"
     id="path51"
     style="stroke-width:0.96937" />
  <path
     d="m 16.8142,16.0695 c -0.81621,-3.104892 -3.963754,-4.594814 -6.8612009,-3.836766 -2.751072,0.720241 -4.8148608,3.593454 -4.0257936,6.604317 0.7279969,2.785 3.5362618,4.796443 7.0376265,3.87845 2.859641,-0.748354 4.61614,-3.727228 3.849368,-6.646001 m 0.782282,-0.202598 c 0.893759,3.404427 -1.188448,6.741968 -4.439715,7.593075 -3.7010547,0.968401 -7.1190533,-0.849168 -8.053526,-4.419358 -0.8336582,-3.188258 1.2020188,-6.635338 4.6801184,-7.545576 3.7010546,-0.96937 6.9416586,1.06146 7.8131226,4.371859"
     fill="#0f141b"
     id="path52"
     style="stroke-width:0.96937" />
</svg>
