<?xml version="1.0" encoding="UTF-8" standalone="no"?>
<!-- Created with Inkscape (http://www.inkscape.org/) -->

<svg
   version="1.1"
   viewBox="0 0 59.072 82.335"
   id="svg41"
   sodipodi:docname="808-3.svg"
   inkscape:version="1.3 (0e150ed, 2023-07-21)"
   xmlns:inkscape="http://www.inkscape.org/namespaces/inkscape"
   xmlns:sodipodi="http://sodipodi.sourceforge.net/DTD/sodipodi-0.dtd"
   xmlns="http://www.w3.org/2000/svg"
   xmlns:svg="http://www.w3.org/2000/svg">
  <defs
     id="defs41" />
  <sodipodi:namedview
     id="namedview41"
     pagecolor="#505050"
     bordercolor="#eeeeee"
     borderopacity="1"
     inkscape:showpageshadow="0"
     inkscape:pageopacity="0"
     inkscape:pagecheckerboard="0"
     inkscape:deskcolor="#d1d1d1"
     inkscape:zoom="2.8663388"
     inkscape:cx="20.58375"
     inkscape:cy="43.260762"
     inkscape:window-width="1312"
     inkscape:window-height="431"
     inkscape:window-x="0"
     inkscape:window-y="25"
     inkscape:window-maximized="0"
     inkscape:current-layer="svg41" />
  <path
     d="m 56.3572,71.401 c -1.776178,-0.849967 -4.18983,-1.75362 -6.183462,-2.279661 -0.656423,-0.173242 -0.961401,-0.124969 -1.504585,0.20392 -0.674469,0.408742 -1.315102,0.813874 -1.946261,1.222165 -0.503935,0.32573 -0.798536,0.331595 -1.218556,0.01669 -0.610406,-0.45882 -1.220361,-0.875231 -1.873175,-1.250137 -0.467392,-0.268434 -0.688455,-0.244072 -1.28262,0.106923 -1.020501,0.603638 -2.161459,1.339915 -3.081805,1.980097 0.688455,0.780941 1.60474,1.645795 2.205672,2.546291 0.452052,-0.334303 0.883352,-0.633866 1.278559,-0.877036 0.304978,-0.187227 0.610406,-0.193995 1.019599,0.07715 0.63567,0.422276 1.304726,0.832823 1.963405,1.168929 0.594165,0.303624 0.783647,0.296857 1.456763,-0.141661 0.512507,-0.334302 1.054789,-0.717328 1.62414,-1.144116 0.494912,-0.370394 0.676725,-0.40784 1.346683,-0.188581 1.606996,0.526943 3.246927,1.200059 4.964003,1.976939 0.656424,-0.185422 1.463531,-1.205924 1.543836,-2.01258 C 56.704585,72.459398 56.513298,71.695601 56.3572,71.401"
     fill="#e73821"
     id="path1"
     style="stroke-width:0.45115" />
  <path
     d="m 42.3492,69.421 c -1.020952,0.603639 -2.16146,1.339916 -3.081806,1.980097 0.688004,0.780941 1.604741,1.645796 2.205673,2.54584 0.452052,-0.333851 0.883351,-0.633415 1.278559,-0.876585 0.304526,-0.187227 0.610406,-0.194445 1.019148,0.07715 0.636121,0.421825 1.305177,0.832372 1.963856,1.16893 0.594164,0.303172 0.783647,0.296856 1.456312,-0.141661 0.512957,-0.334303 1.05524,-0.71778 1.624591,-1.144117 0.494912,-0.370394 0.676725,-0.407839 1.346232,-0.188581 1.607447,0.526944 3.247377,1.200059 4.964003,1.97694 0.398817,-0.112788 0.85132,-0.535515 1.164869,-1.029073 -1.89889,-0.901849 -4.11539,-1.769411 -5.934427,-2.375305 -1.589401,-0.52965 -2.687049,0.943355 -4.851216,-0.850869 -0.610406,-0.458368 -1.22036,-0.87478 -1.873175,-1.249686 C 43.164428,69.045643 42.942913,69.070005 42.3492,69.421"
     fill="#c82f1a"
     id="path2"
     style="stroke-width:0.45115" />
  <path
     d="m 56.5562,71.96 c 0.658228,0.218357 1.17705,0.356408 1.716175,0.484535 1.138251,0.271141 1.029073,0.804401 -0.122262,0.689357 -0.544989,-0.05459 -0.939294,-0.124968 -1.501427,-0.275652 z"
     fill="#0f141b"
     id="path3"
     style="stroke-width:0.45115" />
  <path
     d="m 56.0532,74.111 c 0.384831,0.221064 0.68259,0.429495 1.012832,0.695673 0.902751,0.727254 0.617173,1.172088 -0.391147,0.580179 -0.442578,-0.259862 -0.772369,-0.436262 -1.275853,-0.679883 z"
     fill="#0f141b"
     id="path4"
     style="stroke-width:0.45115" />
  <path
     d="m 41.2052,73.584 c 0.485889,-0.358213 0.952378,-0.668604 1.321869,-0.895533 0.586044,-0.359115 0.869818,-0.316707 1.490149,0.09384 0.723193,0.479573 1.321869,0.831019 1.899793,1.126973 0.43581,0.222417 0.549951,0.214748 1.035389,-0.101509 0.491753,-0.320767 1.033584,-0.69838 1.608801,-1.129228 0.607699,-0.456113 0.913127,-0.516116 1.740536,-0.245877 1.452252,0.476415 2.956838,1.084114 4.832719,1.929118 0.497168,-0.218357 1.050277,-0.927114 1.117499,-1.596169 0.02481,-0.247681 -0.08031,-0.750714 -0.205273,-1.050277 -1.803247,-0.853576 -4.092833,-1.681436 -5.966008,-2.176799 -0.550403,-0.144368 -0.720487,-0.126322 -1.189683,0.159256 -0.672664,0.406937 -1.338111,0.826507 -1.967014,1.232542 -0.725449,0.469196 -1.091783,0.434908 -1.695421,-0.0194 -0.665898,-0.49852 -1.202315,-0.872975 -1.793773,-1.213142 -0.296405,-0.169181 -0.519725,-0.121811 -0.891021,0.09158 -1.017794,0.583788 -2.09875,1.311042 -3.024058,1.954833 l -0.524688,-0.683943 c 0.94155,-0.655521 2.113187,-1.399919 3.132335,-2.003106 0.771917,-0.456113 1.094038,-0.47867 1.704444,-0.127676 0.614015,0.3528 1.233444,0.756579 1.919192,1.271341 0.247231,0.184972 0.433556,0.170084 0.739435,-0.02842 0.634317,-0.410998 1.274499,-0.812973 1.952577,-1.223519 0.650559,-0.394305 1.024562,-0.45882 1.827609,-0.245426 1.859189,0.4904 4.247126,1.378715 6.06887,2.229132 0.259411,0.12136 0.37671,0.198958 0.479121,0.483633 0.14888,0.410096 0.300466,1.081858 0.266179,1.430597 -0.08076,0.803047 -0.83959,1.836632 -1.56143,2.242667 -0.336558,0.189934 -0.378515,0.192641 -0.788611,0.009 -1.794674,-0.802145 -3.314599,-1.382775 -4.709555,-1.83979 -0.44754,-0.147075 -0.616722,-0.135796 -0.974935,0.132638 -0.585592,0.438518 -1.124717,0.830116 -1.6282,1.158102 -0.831018,0.542733 -1.181562,0.520176 -1.921448,0.142112 -0.599127,-0.306331 -1.222165,-0.692064 -1.964758,-1.18472 -0.291443,-0.193543 -0.370394,-0.190385 -0.590104,-0.05549 -0.358213,0.21971 -0.754323,0.516567 -1.232542,0.869366 z"
     fill="#0f141b"
     id="path5"
     style="stroke-width:0.45115" />
  <path
     d="m 15.3892,50.17 c -1.405783,-4.937837 -3.549197,-6.61025 -5.8509643,-6.019694 -3.678226,0.945159 -5.1404031,7.703837 -1.6345165,17.064297 1.9927296,5.321766 1.4860881,7.722335 -0.7493602,10.52533 -2.3180086,2.905857 -2.4880922,5.139952 -1.7373786,6.607543 1.001553,1.957539 3.3155014,2.684793 8.9580346,2.077996 1.784749,-0.192189 3.579875,-0.0032 5.075437,0.54499 2.923001,1.071481 4.824598,1.163967 8.072427,0.272043 2.092885,-0.574314 4.780837,-0.802596 6.573707,-0.238207 4.154189,1.308335 6.995081,0.417314 8.071976,-1.737379 0.946512,-1.893025 0.571156,-4.425781 -2.213793,-7.084408 -2.958642,-2.82465 -2.523282,-7.462021 1.123814,-8.208223 4.451046,-0.911774 5.626292,-2.733969 5.347932,-4.871067 -0.296856,-2.2756 -2.600428,-4.010723 -8.219953,-4.675267 -1.327734,0.303624 -2.103712,0.482279 -3.349788,0.758383 C 28.979191,54.155459 19.443234,51.605108 15.3892,50.17"
     fill="#9e9e9f"
     id="path6"
     style="stroke-width:0.45115" />
  <path
     d="m 5.4175,78.348 c 1.0146364,1.950321 3.3155014,2.684794 8.957583,2.077546 1.785201,-0.191739 3.580327,-0.0027 5.075438,0.544989 2.923452,1.071932 4.825049,1.164418 8.072427,0.272495 2.093336,-0.574314 5.185518,-0.83147 7.024405,-0.108276 3.089024,0.342422 5.560424,-1.00426 6.24527,-3.118349 -1.602485,1.167125 -4.299009,1.485186 -6.615213,1.007869 -2.316204,-0.476866 -5.14311,-0.06767 -7.595561,0.6474 -2.452,0.715524 -5.245521,0.646949 -7.254943,-0.681236 C 17.578699,77.834591 16.324502,77.746166 13.195777,78.309201 9.2121227,79.026078 6.6468838,75.215666 7.8704026,73.812589 8.9779758,72.542602 8.1505667,70.503404 7.1972867,71.684063 5.5099857,73.774692 4.3658694,76.326397 5.4175,78.348"
     fill="#eeeeef"
     id="path7"
     style="stroke-width:0.45115;fill:#dbdcdc;fill-opacity:1" />
  <path
     d="m 46.4272,59.103 c -0.296857,-2.275601 -2.600429,-4.010723 -8.219953,-4.674816 -1.327734,0.303624 -2.103712,0.481828 -3.349789,0.757932 -5.817579,-1.020502 -15.215485,-3.528444 -19.338093,-4.971222 1.676924,4.719029 10.601122,7.704288 20.269267,6.583632 7.499015,-0.869366 10.649847,3.419717 9.390687,4.903098 0.69026,-0.445285 1.396309,-1.459921 1.247881,-2.598624"
     fill="#9d977a"
     id="path8"
     style="stroke-width:0.45115" />
  <path
     d="m 28.6702,55.799 c -0.02301,-0.181362 0.420021,-0.420021 1.373752,-0.544989 0.969972,-0.126773 1.476163,-0.0212 1.532556,0.204371 0.04557,0.181813 -0.354604,0.412802 -1.408039,0.556719 C 29.169172,56.150897 28.692758,55.97946 28.6702,55.799"
     fill="#c8be89"
     id="path9"
     style="stroke-width:0.45115" />
  <path
     d="m 38.2072,54.428 c -1.21224,0.277006 -1.967916,0.450699 -3.037142,0.688455 1.119303,0.575667 2.609903,0.92215 4.853021,1.023208 3.015486,0.135796 5.882996,2.045965 5.956984,3.805901 C 46.922065,57.665001 44.768726,55.203978 38.2072,54.428"
     fill="#c8be89"
     id="path10"
     style="stroke-width:0.45115" />
  <path
     d="m 38.7442,76.321 c -0.75342,2.0401 -2.551253,2.321618 -5.140854,2.076192 -1.989572,-0.188129 -3.757177,-0.04421 -5.906907,0.636122 -2.771415,0.876133 -5.652459,1.047119 -7.568944,-0.246328 -1.802795,-1.216752 -3.689053,-1.665195 -6.385126,-1.081858 -4.2926919,0.928467 -5.5121504,-1.325027 -4.6712068,-3.359714 0.2752015,-0.665446 0.5711559,-1.304726 0.9478658,-2.192589 0.460173,-1.085918 0.230538,-1.179757 -0.4795721,-0.233696 -0.4407735,0.587398 -0.8887655,1.056594 -1.3403666,1.523534 -1.1734412,1.212691 -1.4450335,2.446135 -1.0141853,3.686798 0.5725094,1.648953 2.841343,2.672161 6.963049,1.581281 1.515864,-0.401524 3.179254,-0.249486 4.361267,0.449345 2.997441,1.771215 5.20582,1.801893 9.33294,0.644693 1.929569,-0.54138 3.787404,-0.663641 6.424376,-0.163316 4.757377,0.903202 6.746497,-0.356409 6.746497,-2.953228 0,-3.454907 -4.910316,-6.128873 -4.910316,-10.318252 0,-2.921647 2.573359,-5.541024 5.183262,-5.780133 L 30.991638,60.9034 Z"
     fill="#595857"
     id="path11"
     style="stroke-width:0.45115" />
  <path
     d="M 57.3602,37.066 C 55.86148,29.936025 53.06841,18.627951 51.147413,11.449703 50.112475,10.391305 48.891663,9.2047806 47.891464,8.318722 c 1.725649,7.538717 4.609399,19.925491 6.607543,27.419092 z"
     fill="#dbc77f"
     id="path12"
     style="stroke-width:0.45115;fill:#b4a468;fill-opacity:1" />
  <path
     d="m 54.4992,35.737 c -4.553006,4.779934 -13.794362,13.72669 -19.641718,19.448625 1.657977,-0.306331 3.258657,-0.646949 5.35876,-1.044412 4.586842,-4.677523 12.103001,-12.068714 17.144151,-17.076027 z"
     fill="#877b4c"
     id="path13"
     style="stroke-width:0.45115" />
  <path
     d="m 15.6952,15.222 c -5.333044,4.922047 -7.8576796,13.116735 -4.226373,20.57244 4.571954,9.384822 15.891307,11.479963 23.615898,7.765645 8.791109,-4.227727 12.431889,-14.51124 8.174387,-23.252271 C 37.69553,8.8865006 23.173914,8.3189539 15.6952,15.222 M 6.9086026,46.424436 C 5.1522756,38.800904 2.3686801,27.108449 0.47836165,19.762825 6.8819848,13.859076 14.875009,6.0478648 20.642511,0.5524066 c 8.3562,2.4529025 18.75611,5.3140959 27.248558,7.7660961 1.725648,7.5387163 4.609399,19.9254913 6.607994,27.4190923 C 49.946057,40.517078 40.7047,49.463834 34.857345,55.18622 27.908282,53.889164 21.278632,52.160357 15.369019,50.1762 13.387568,42.188138 8.4731908,43.112544 6.9086026,46.424436"
     fill="#ffe792"
     id="path14"
     style="stroke-width:0.45115" />
  <path
     d="m 9.4712,20.399 c 0.900495,0.01985 1.52985,0.142563 1.962954,0.669958 1.029073,-2.211538 2.488543,-4.210583 4.261563,-5.846904 3.264521,-3.013231 7.871214,-4.602181 12.488734,-4.487138 C 26.918073,10.032926 25.244306,9.5434287 23.751,9.427032 20.901988,9.2032616 19.130321,7.5881446 19.162353,4.708003 19.175436,3.5548636 18.930462,2.9539318 18.421114,2.6782791 14.022401,6.8960805 8.7592853,11.999038 3.9504774,16.525877 4.9759414,19.087056 6.9470157,20.344411 9.4712,20.399"
     fill="#fff4cc"
     id="path15"
     style="stroke-width:0.45115" />
  <path
     d="m 45.9162,31.23 c -0.230086,-1.963405 -0.424983,-3.027216 -0.913579,-4.350891 0.548148,8.813667 -5.381317,15.139692 -11.505678,17.343109 3.639878,0.993883 8.7681,0.361822 11.964949,-1.933629 2.656822,-1.907462 3.018193,-3.777028 1.953028,-5.631706 C 46.657891,35.339074 46.23381,33.946374 45.9162,31.23"
     fill="#fff4cc"
     id="path16"
     style="stroke-width:0.45115" />
  <path
     d="m 37.6262,13.704 c -6.779882,-4.6310547 -16.329825,-3.652059 -21.930402,1.517669 -5.333495,4.922046 -7.8576791,13.116735 -4.226824,20.57244 2.438466,5.005058 6.795221,7.935277 11.502521,9.018037 C 13.593439,41.237233 10.029354,29.814115 14.818312,21.193541 19.660505,12.478225 30.111846,9.6071069 37.6262,13.704"
     fill="#877b4c"
     id="path17"
     style="stroke-width:0.45115" />
  <path
     d="M 31.4272,44.825 C 26.250254,46.003855 20.325301,44.982 15.929746,41.428743 11.223801,40.368991 8.1546272,41.200912 6.2155846,43.4323 c 0.2440721,1.048021 0.4768655,2.05183 0.6934175,2.992027 1.5645882,-3.311892 6.4789649,-4.236299 8.4604159,3.751312 5.909614,1.984609 12.539263,3.713416 19.488327,5.010472 C 38.327088,51.790305 42.987468,47.263015 47.1588,43.141759 39.855584,46.13514 34.396218,45.974981 31.4272,44.825"
     fill="#dbc77f"
     id="path18"
     style="stroke-width:0.45115" />
  <path
     d="M 30.2582,54.252 C 26.257402,56.655727 18.796283,54.546601 17.011534,50.723556 20.465087,51.766164 25.47195,53.066378 30.2582,54.252"
     fill="#c8be89"
     id="path19"
     style="stroke-width:0.45115" />
  <path
     d="m 32.1372,77.171 c 4.296301,2.286428 7.3948,0.215199 6.650402,-2.541328 -0.726802,-2.690659 -3.570852,-4.59767 -3.570852,-8.497861 0,-2.970823 2.445233,-5.36643 5.855025,-5.524332 2.267931,-0.105118 2.027919,-2.427187 -0.567547,-2.921196 -2.382072,-0.453857 -4.793018,-0.170084 -7.572553,0.794024 -2.351394,0.815679 -4.848058,0.671311 -8.990968,-0.766053 -5.175142,-1.794675 -8.270933,-4.103209 -10.097188,-8.76404 -1.41616,-3.614614 -3.162562,-3.879439 -4.1979511,-3.630404 -2.6207303,0.631159 -2.9748831,5.551852 -0.6519117,11.203408 3.6019818,8.76404 3.5952148,10.853316 1.7585828,14.947051 l 18.581515,2.904052 z"
     fill="#dbdcdc"
     id="path20"
     style="stroke-width:0.45115" />
  <path
     d="m 9.8852,46.144 c -1.4066857,0.293699 -2.0455141,2.257103 -1.452703,4.759181 0.8716218,3.678226 2.757429,4.841742 3.877634,4.595865 1.182013,-0.25896 2.025664,-2.25214 1.226677,-5.44944 C 12.96881,47.778968 11.475955,45.812405 9.8852,46.144"
     fill="#eeeeef"
     id="path21"
     style="stroke-width:0.45115" />
  <path
     d="m 10.0372,46.407 c -0.7439463,0.09474 -1.185171,1.026817 -1.0096737,2.254848 0.1962503,1.375105 0.8025959,2.101005 1.5217287,2.005813 0.733119,-0.097 1.206827,-0.955085 1.092686,-2.226877 C 11.521935,47.099064 10.79829,46.310003 10.0372,46.407"
     fill="#ffffff"
     id="path22"
     style="stroke-width:0.45115" />
  <path
     d="m 11.0332,51.194 c -0.280615,0.04827 -0.457015,0.522883 -0.26302,1.313749 0.166023,0.678078 0.524236,1.073286 0.76109,1.02411 0.332046,-0.06948 0.457917,-0.546793 0.29054,-1.286679 C 11.655787,51.512061 11.351261,51.138509 11.0332,51.194"
     fill="#ffffff"
     id="path23"
     style="stroke-width:0.45115" />
  <path
     d="m 10.7512,71.471 c -1.71437,4.423075 -0.118201,6.212787 4.765046,4.396006 1.219459,-0.453857 2.155595,-0.283774 2.921197,0.510701 1.814525,1.881747 5.14717,3.407085 9.217896,1.10622 1.605643,-0.908165 3.103912,-1.061105 4.480822,-0.312196 1.557821,0.846809 3.509496,0.05053 3.651608,-1.889416 0.175498,-2.391095 -1.658878,-4.696922 -4.041853,-5.154389 -3.848309,-0.738532 -5.755771,-1.515864 -7.152532,-3.019998 -2.53456,-2.729457 -5.900591,-2.184919 -7.516159,-0.544989 -1.011027,1.026366 -1.558723,1.375105 -2.543132,1.430597 C 12.72047,68.096398 11.467175,69.623541 10.7512,71.471"
     fill="#eeeeef"
     id="path24"
     style="stroke-width:0.45115" />
  <path
     d="m 11.4802,74.5 c -0.150233,0.355506 0.148428,0.953731 0.891924,1.182915 0.920346,0.283774 1.519924,0.07309 1.616019,-0.303624 0.08301,-0.328437 -0.153842,-0.861245 -0.950573,-1.137349 C 12.18625,73.945988 11.623666,74.159833 11.4802,74.5"
     fill="#ffffff"
     id="path25"
     style="stroke-width:0.45115" />
  <path
     d="m 30.4762,73.884 c -0.154293,0.274299 0.01895,0.796731 0.452955,0.981251 0.45927,0.194897 0.930722,0.06857 1.066969,-0.231891 0.132187,-0.291443 -0.0397,-0.766053 -0.484986,-0.959596 C 31.043296,73.470747 30.640419,73.592106 30.4762,73.884"
     fill="#ffffff"
     id="path26"
     style="stroke-width:0.45115" />
  <path
     d="m 37.9902,75.825 c 0.03203,-0.759285 -0.71011,-1.639479 -2.43621,-1.800088 -1.772568,-0.16467 -2.822394,0.499423 -2.856682,1.466237 -0.03339,0.93749 1.073286,1.842948 2.656823,1.83212 1.289386,-0.0086 2.599526,-0.646047 2.636069,-1.498269"
     fill="#ffffff"
     id="path27"
     style="stroke-width:0.45115" />
  <path
     d="m 14.8242,40.567 c -3.010073,-3.957488 -4.409991,-8.623732 -3.934028,-13.375244 0.536417,-5.347932 3.388588,-10.38412 7.961444,-14.264461 l 2.496213,-1.05524 c -5.622231,3.969669 -9.087514,9.449337 -9.68213,15.388276 -0.554012,5.518015 1.477967,10.833465 5.740432,15.104953 z"
     fill="#5a4f2b"
     id="path28"
     style="stroke-width:0.45115" />
  <path
     d="m 14.5012,21.312 c 1.182464,-5.282967 6.302565,-8.88179 10.370134,-10.42337 l 2.421322,-0.09835 c -6.031876,1.908815 -8.921942,4.905805 -10.464424,7.30096 z"
     fill="#5a4f2b"
     id="path29"
     style="stroke-width:0.45115" />
  <path
     d="m 57.0462,37.4 c -0.794926,-0.394756 -2.007166,-0.958694 -2.762391,-1.272694 l 0.343776,-0.783197 c 0.76109,0.317159 1.897086,0.839591 2.698328,1.234798 z"
     fill="#0f141b"
     id="path30"
     style="stroke-width:0.45115" />
  <path
     d="m 16.0592,15.556 c -4.739782,4.374802 -7.913171,12.264062 -4.126669,20.035571 4.438414,9.113682 15.442413,11.119946 22.913006,7.527438 C 42.343199,39.51387 47.277427,29.891291 42.714495,20.524064 37.073316,8.9430433 22.818329,9.3165955 16.0592,15.556 m 27.697452,4.483529 C 48.016861,28.786425 44.806929,39.45928 35.298943,44.031235 26.852964,48.092487 15.467291,45.234 10.977898,36.018811 7.0222144,27.899013 10.257411,19.545519 15.371647,14.825137 23.113381,7.678921 38.103742,8.4341461 43.756652,20.039529"
     fill="#0f141b"
     id="path31"
     style="stroke-width:0.45115" />
  <path
     d="M 21.0822,44.424 C 12.718781,40.077621 9.8350305,29.152572 14.384427,20.965553 18.980292,12.692365 28.311428,9.7111656 35.63269,12.352649 l 2.543583,2.137097 c -7.397506,-4.5493963 -18.075775,-1.813172 -22.934661,6.93192 -4.893173,8.807802 -0.975386,20.239491 8.851563,23.348366 z"
     fill="#0f141b"
     id="path32"
     style="stroke-width:0.45115" />
  <path
     d="m 15.2122,49.594 c 6.021499,2.03198 12.752206,3.767554 19.494191,5.033029 C 40.218542,49.247968 50.149256,39.534257 53.91681,35.589853 52.024235,28.132795 49.068301,15.690078 47.474839,8.7310887 39.165107,6.3679651 29.071528,3.5379011 20.797888,1.164401 15.038056,6.7058764 7.1893995,14.150754 1.0163141,19.945775 2.8272302,26.99725 5.449314,38.011626 7.2656439,45.885998 L 6.5731286,47.08335 C 4.7811608,39.288381 1.9501946,27.484041 0.08468935,20.20248 -0.0583252,19.644407 -0.04975335,19.582149 0.34094255,19.223484 6.6913299,13.39598 14.234107,5.9849387 20.113494,0.27112395 c 0.311293,-0.3022705 0.392951,-0.3320464 0.897788,-0.18361805 8.25424,2.4217732 18.502564,5.3605643 26.851095,7.7106047 0.37671,0.1060202 0.43942,0.1763996 0.573862,0.7628946 1.601583,6.9887648 4.500222,19.4396028 6.484831,26.9178648 0.105117,0.396561 0.08617,0.452052 -0.204371,0.754774 -3.859138,4.022453 -13.798874,13.673454 -19.328169,19.068306 -0.306331,0.299112 -0.465135,0.373101 -0.888765,0.293247 -6.552052,-1.238406 -13.076583,-2.881495 -18.961384,-4.8449 z"
     fill="#0f141b"
     id="path33"
     style="stroke-width:0.45115" />
  <path
     d="m 48.1982,7.9524 c 0.872073,0.7723688 2.013031,1.8185857 3.096694,2.911271 0.242267,0.244072 0.28648,0.341972 0.386184,0.715073 1.848362,6.93598 4.603986,18.050962 6.122106,25.220638 0.08707,0.4119 0.06181,0.472354 -0.234147,0.763346 -5.037992,4.956334 -12.309628,12.130521 -16.913163,16.817067 -0.211589,0.21565 -0.302721,0.267983 -0.595969,0.317159 -1.936336,0.326632 -3.424679,0.582434 -5.088521,0.898691 l 0.316708,-1.037194 c 1.387737,-0.24723 2.696523,-0.485438 4.668951,-0.883803 C 44.469445,49.115777 51.875073,41.832863 56.812909,36.905402 55.284864,29.666249 52.58022,18.657738 50.724189,11.712735 49.723538,10.692234 48.72379,9.7777529 47.869312,9.0044818 Z"
     fill="#0f141b"
     id="path34"
     style="stroke-width:0.45115" />
  <path
     d="m 39.6702,54.174 c 4.541276,0.726351 6.873721,2.314399 7.208024,4.87242 0.357761,2.741187 -1.446387,4.461422 -5.724192,5.337104 -1.380068,0.28242 -2.182212,1.095844 -2.545839,2.361771 -0.478219,1.659329 0.126773,3.63672 1.641735,5.083107 2.693816,2.571104 3.496863,5.363271 2.342371,7.671806 -1.204571,2.407787 -4.187575,3.339863 -8.644937,1.935433 -1.591206,-0.50213 -4.002151,-0.369041 -6.303919,0.263472 -3.290237,0.9023 -5.145365,0.8829 -8.378306,-0.302722 C 17.815141,80.864936 16.213558,80.680416 14.405349,80.873508 8.3806918,81.52136 6.1344159,80.857718 4.9614259,78.564974 4.327109,77.324311 3.8687406,75.127211 6.8021179,71.448985 8.7167985,69.048867 9.5590956,66.981697 7.4603458,61.38067 3.794752,51.591166 5.3913719,44.708873 9.4332247,43.669875 c 2.5228313,-0.648303 5.2568003,1.230737 6.5078383,7.213437 0.310843,1.48699 -0.285577,1.62414 -0.682138,0.163767 -1.409393,-5.191383 -3.470697,-6.962598 -5.620427,-6.409488 -3.1945932,0.820642 -4.7542187,7.211182 -1.299312,16.437199 2.168227,5.788706 1.3146511,8.245218 -0.8427482,10.950313 -1.9882181,2.492604 -2.3775605,4.626543 -1.6218843,6.104511 0.7804895,1.525789 2.5923079,2.473655 8.4559045,1.84385 1.967465,-0.211589 3.634464,-0.02211 5.268981,0.576118 2.904504,1.065166 4.736173,1.099453 7.819783,0.252644 2.329287,-0.63973 4.78625,-0.872072 6.79883,-0.238207 3.385881,1.066068 6.340011,0.748909 7.472849,-1.516766 0.98847,-1.976037 0.392952,-4.195695 -2.067621,-6.54348 -1.703993,-1.627298 -2.492603,-3.954781 -1.900243,-6.012927 0.429494,-1.491953 1.48699,-2.551253 3.275349,-2.917136 4.240358,-0.868012 5.199955,-2.592308 4.961296,-4.416758 -0.294601,-2.259359 -3.015486,-3.775675 -8.69366,-4.353147 z"
     fill="#0f141b"
     id="path35"
     style="stroke-width:0.45115" />
  <path
     d="m 36.1232,33.645 c 0.750262,-1.159004 0.651009,-2.256201 -0.818837,-2.955484 -3.97012,-1.886709 -11.499363,-3.922749 -14.527481,-3.773869 -1.493307,0.07309 -2.004911,0.841846 -1.869115,2.331994 0.428141,4.69963 3.5307,7.483676 7.06546,8.314243 3.580327,0.840944 7.764292,-0.231891 10.149973,-3.916884"
     fill="#595857"
     id="path36"
     style="stroke-width:0.45115" />
  <path
     d="m 32.8872,29.681 c -0.93749,4.250284 -4.206071,5.034834 -7.196745,3.946209 -2.546742,-0.927564 -3.257303,-3.716123 -2.354552,-6.515057 -0.786805,-0.118653 -1.493306,-0.189032 -2.080703,-0.198957 -0.977643,3.572205 0.0785,6.836727 3.865453,8.369735 4.434804,1.794674 8.87412,-0.152489 10.414346,-4.423075 C 34.55465,30.322084 33.774161,30.013046 32.8872,29.681"
     fill="#3e3a39"
     id="path37"
     style="stroke-width:0.45115" />
  <path
     d="m 35.5502,32.431 c -0.208431,1.067421 -2.343273,1.709858 -4.500672,1.051631 -2.158753,-0.658679 -3.061955,-1.940397 -2.723593,-3.168427 0.232342,-0.84365 1.787907,-1.516315 4.130278,-0.801693 2.447489,0.747104 3.337608,1.674668 3.093987,2.918489"
     fill="#c8c9ca"
     id="path38"
     style="stroke-width:0.45115" />
  <path
     d="m 33.9282,31.835 c -0.20392,0.578825 -1.407137,0.857636 -2.56163,0.450699 -1.286228,-0.453857 -1.644441,-1.415709 -1.45947,-1.940847 0.195799,-0.554013 1.182915,-0.96095 2.456512,-0.480475 1.085918,0.409644 1.778433,1.365631 1.564588,1.970623"
     fill="#ffffff"
     id="path39"
     style="stroke-width:0.45115" />
  <path
     d="m 35.7212,33.383 c 0.645596,-0.997493 0.58063,-1.695422 -0.662739,-2.286428 -3.732364,-1.774373 -11.320256,-3.828008 -14.241001,-3.728755 -1.272243,0.04331 -1.553761,0.728607 -1.451801,1.849715 0.401072,4.400517 3.315501,7.138095 6.693261,7.931668 3.62093,0.849516 7.549996,-0.50213 9.66228,-3.7662 m 0.798084,0.506641 c -2.207928,3.410694 -6.166318,5.142208 -10.65887,4.085164 -3.97824,-0.934783 -6.98335,-3.89162 -7.417357,-8.663434 -0.176399,-1.935884 0.485889,-2.757429 2.318009,-2.847207 3.20903,-0.156098 10.911063,1.978292 14.714257,3.78605 1.990925,0.946062 1.830767,2.42448 1.043961,3.639427"
     fill="#0f141b"
     id="path40"
     style="stroke-width:0.45115" />
</svg>
