<?xml version="1.0" encoding="UTF-8"?>
<!-- Created with Inkscape (http://www.inkscape.org/) -->
<svg version="1.1" viewBox="0 0 69.292 80.197" xmlns="http://www.w3.org/2000/svg">
 <g transform="translate(-1.467 -1.4474)">
  <g transform="matrix(.43306 0 0 -.43306 57.269 55.603)">
   <path d="m0 0c-13.282 11.17-28.471 16.231-46.598 15.67-21.677-0.671-42.34-12.792-47.814-23.423-2.315-4.494-2.254-8.136-1.021-9.992 2.015-3.032 7.634-3.632 17.89 0.268 0-5.104-2.699-12.157-6.715-16.546-4.215-4.608-6.877-10.181-6.877-15.795 0-5.195 4.034-9.241 13.699-9.241 7.952 0 12.518 2.793 19.61 2.793 4.62 0 9.455-1.88 16.332-1.88 6.5 0 13.484 2.848 18.158 2.848 4.566 0 7.736-0.968 13.108-0.968 7.598 0 13.431 4.129 13.431 10.692 0 4.672-2.087 8.804-7.574 14.075-5.091 4.89-8.248 11.25-6.286 17.944 9.132-1.982 14.607-0.177 15.795 3.384 1.031 3.094-0.693 6.432-5.138 10.171" fill="#9e9e9f"/>
  </g>
  <g transform="matrix(.43306 0 0 -.43306 37.089 48.817)">
   <path d="m0 0c-26.137-0.81-47.329-16.471-49.485-28.11 18.971 18.123 55.067 26.377 80 15.646 9.126-3.928 13.142-5.138 17.836-4.814-10.056 9.984-27.788 17.916-48.351 17.278" fill="#9d977a"/>
  </g>
  <g transform="matrix(.43306 0 0 -.43306 32.227 79.97)">
   <path d="m0 0c4.62 0 9.455-1.88 16.332-1.88 6.5 0 13.484 2.848 18.158 2.848 4.567 0 7.737-0.968 13.109-0.968 7.597 0 13.43 4.129 13.43 10.691 0 2.692-1.855 5.438-5.05 7.798-3.511 2.596-4.66 0.194-2.84-1.787l-81.794-11.079c1.565-4.145 7.96-7.784 16.277-6.631 4.913 0.681 7.115 1.008 12.378 1.008" fill="#dbdcdc"/>
  </g>
  <g transform="matrix(.43306 0 0 -.43306 51.871 61.21)">
   <path d="m0 0c-3.307-2.207-2.553-17.177 7.778-26.615 6.064-5.539-0.068-16.425-17.252-12.351-1.918 0.455-3.336 0.069-4.888-0.967-3.301-2.2-11.659-3.534-18.964-1.342-8.352 2.504-15.289 2.291-24.552-0.108-6.414-1.661-13.818-0.641-16.138 3.689-1.467 2.741-0.354 7.244 4.225 11.568 5.96 5.63 9.469 14.256 8.014 23.291-0.193 1.189-0.833 1.562-2.263 0.976-5.862-2.403-11.007-2.836-13.102 0.123l24.263 10.315z" fill="#595857"/>
  </g>
  <g transform="matrix(.43306 0 0 -.43306 20.569 54.454)">
   <path d="m0 0c-9.025 11.666-21.584 28.333-29.272 38.671-0.9 7.735-1.799 17.72-2.699 27.344 10.361-14.048 29.287-39.46 39.488-53.16 21.926 2.713 51.453 6.55 71.059 9.265-1.749-5.344-3.602-11.145-5.376-16.706-23.611 11.846-51.896 9.992-73.2-5.414" fill="#877b4c"/>
  </g>
  <g transform="matrix(.43306 0 0 -.43306 35.238 8.7645)">
   <path d="m0 0c-23.667 0.644-40.586-15.664-41.106-34.81-0.515-18.932 15.927-36.956 39.577-37.598 22.709-0.617 40.204 14.559 40.747 34.54 0.531 19.556-15.168 37.215-39.218 37.868m44.705-83.382c-19.159-2.788-49.382-6.656-71.059-9.264-10.255 13.492-29.774 39.756-39.488 53.159 7.736 13.673 21.048 37.778 27.434 49.922 14.662 1.079 43.086 3.597 59.816 5.216 9.355-10.254 29.413-31.931 40.746-43.625-4.856-15.921-12.862-41.465-17.449-55.408" fill="#ffe792"/>
  </g>
  <g transform="matrix(.43306 0 0 -.43306 35.238 8.7641)">
   <path d="m0 0c-25.193 0.685-41.757-17.179-41.096-36.756 10.358 17.006 29.954 22.351 46.67 18.034 15.356-3.965 28.264-16.08 29.336-34.77 2.625 4.651 4.153 9.942 4.308 15.623 0.531 19.556-15.168 37.215-39.218 37.869" fill="#877b4c"/>
  </g>
  <g transform="matrix(.43306 0 0 -.43306 18.605 4.2457)">
   <path d="m0 0c-3.276-6.23-8.378-15.611-13.612-25.115 2.966 1.582 6.038 2.015 9.717 1.383 3.74-0.643 6.924-0.639 9.9 0.142 7.308 8.23 18.724 13.527 32.403 13.156 3.065-0.084 5.99-0.446 8.767-1.049 2.377 0.763 4.876 1.039 7.677 0.805 4.968-0.414 10.914 1.572 13.825 6.244-3.429 3.717-6.49 7.053-8.861 9.651-16.73-1.619-45.154-4.138-59.816-5.217" fill="#fff4cc"/>
  </g>
  <g transform="matrix(.43306 0 0 -.43306 23.825 48.886)">
   <path d="m0 0c21.678 2.608 51.9 6.477 71.06 9.265 2.08 6.324 4.865 15.039 7.74 24.157-2.474-1.61-5.105-1.568-8.254-0.437-5.173 1.858-9.861 1.709-14.328-0.632-7.385-7.762-18.554-12.463-31.393-12.115-14.472 0.394-26.237 7.302-33.078 16.939-6.563 4.305-14.146 2.758-19.209-0.418 9.478-12.832 20.565-27.684 27.462-36.759" fill="#dbc77f"/>
  </g>
  <g transform="matrix(.43306 0 0 -.43306 48.553 76.294)">
   <path d="m0 0c2.275-2.694 6.576-2.628 9.162-0.306 2.97 2.666 2.247 6.949-1.895 12.394z" fill="#595857"/>
  </g>
  <g transform="matrix(.43306 0 0 -.43306 6.7241 25.865)">
   <path d="m0 0c0.899-9.624 1.799-19.608 2.698-27.344 7.689-10.338 20.247-27.005 29.273-38.671 1.398 0.992 3.244 2.26 4.83 3.183 0.609 2.845 1.556 6.171 2.686 9.673-10.2 13.699-29.127 39.111-39.487 53.159" fill="#877b4c"/>
  </g>
  <g transform="matrix(.43306 0 0 -.43306 30.875 78.387)">
   <path d="m0 0c-9.731-1.067-18.772 0.325-20.787 3.867-1.33 2.339 1.103 9.096 4.639 14.479l65.437-5.727c0.635-5.197-3.569-7.598-8.469-7.785-2.578-0.098-4.8-0.938-6.728-2.457-4.595-3.622-11.392-5.925-18.938-3.989-5.793 1.485-10.977 2.07-15.154 1.612" fill="#9e9e9f"/>
  </g>
  <g transform="matrix(.43306 0 0 -.43306 51.7 71.059)">
   <path d="m0 0c-2.128 4.669-3.64 11.483-2.35 17.639 0.846 4.037 2.165 6.154 7.252 5.987 6.179-0.202 8.252 0.819 8.553 2.826 0.299 1.99-1.321 4.455-5.839 6.769-23.164 11.862-70.795 6.965-83.205-7.756-3.045-3.611-1.732-6.342 4.459-5.104 3.069 0.615 5.961 1.658 8.848 3.306 1.615 0.923 2.415 0.93 3.082-0.198 2.331-3.942 2.614-10.839-1.991-17.398-5.725-8.153-7.372-12.659-4.835-16.654 2.242-3.531 6.632-4.767 14.129-2.794 6.194 1.63 13.559 1.726 20.092-1.289z" fill="#dbdcdc"/>
  </g>
  <g transform="matrix(.43306 0 0 -.43306 56.126 59.185)">
   <path d="m0 0c-0.514-1.867-3.846-2.974-9.529-1.41-5.569 1.532-7.817 4.231-7.273 6.205 0.52 1.891 3.806 3.175 9.489 1.612 5.627-1.549 7.789-4.678 7.313-6.407" fill="#eeeeef"/>
  </g>
  <g transform="matrix(.43306 0 0 -.43306 27.696 57.662)">
   <path d="m0 0c0.76-2.045-2.382-4.625-7.199-6.415-5.415-2.011-9.134-1.676-9.772 0.041-0.641 1.728 1.863 4.429 7.282 6.442 4.685 1.741 8.995 1.802 9.689-0.068" fill="#eeeeef"/>
  </g>
  <g transform="matrix(.43306 0 0 -.43306 28.075 78.536)">
   <path d="m0 0c-14.001 1.289-14.275 8.757-13.651 10.798-1.014-2.861-1.373-5.347-0.668-6.587 1.555-2.734 7.303-4.182 14.319-4.211" fill="#595857"/>
  </g>
  <g transform="matrix(.43306 0 0 -.43306 37.927 77.41)">
   <path d="m0 0c5.104-2.156 9.278-1.833 13.807 1.719 3.011 2.362 6.226 3.455 10.745 3.385 7.051-0.111 10.497 1.836 7.253 9.562-3.725 8.869-8.731 8.819-12.786 6.447-2.848-1.666-10.046-1.717-14.453 2.417-3.917 3.676-9.454 3.642-16.117 1.075-7.252-2.793-12.947-5.963-17.406-9.509-3.785-3.01-2.52-9.515 9.294-9.241 8.298 0.194 11.857-2.557 19.663-5.855" fill="#eeeeef"/>
  </g>
  <g transform="matrix(.43306 0 0 -.43306 43.623 74.576)">
   <path d="m0 0c0.12-1.662-2.105-3.906-6.618-4.233-4.662-0.339-7.256 1.582-7.338 3.329-0.077 1.646 2.172 3.453 6.7 3.782 4.148 0.301 7.118-0.985 7.256-2.878" fill="#fff"/>
  </g>
  <g transform="matrix(.43306 0 0 -.43306 36.769 74.7)">
   <path d="m0 0c-0.114-0.476-1.11-0.884-2.22-0.679-1.112 0.206-1.663 0.956-1.541 1.604 0.104 0.555 1.071 0.971 2.178 0.719 1.172-0.267 1.727-1.048 1.583-1.644" fill="#fff"/>
  </g>
  <g transform="matrix(.43306 0 0 -.43306 54.582 58.757)">
   <path d="m0 0c-0.418-1.157-2.406-1.629-4.352-0.927-2.378 0.86-3.203 2.74-2.78 3.707 0.472 1.078 2.176 1.534 4.473 0.705 2.115-0.763 3.064-2.362 2.659-3.485" fill="#fff"/>
  </g>
  <g transform="matrix(.43306 0 0 -.43306 24.607 59.297)">
   <path d="m0 0c0.221-1.255-1.044-2.196-3.181-2.571-2.189-0.385-3.314 0.443-3.491 1.448-0.149 0.852 0.862 2.116 2.91 2.477 2.309 0.405 3.598-0.42 3.762-1.354" fill="#fff"/>
  </g>
  <g transform="matrix(.43306 0 0 -.43306 43.996 49.294)">
   <path d="M 0,0 C 3.639,-4.618 13.438,-8.688 21.385,-7.974 14.757,-4.028 7.666,-1.378 0,0" fill="#c8be89"/>
  </g>
  <g transform="matrix(.43306 0 0 -.43306 37.089 48.817)">
   <path d="m0 0c-13.717-0.425-27.021-5.436-36.334-11.75 4.031-0.235 10.116 1.476 16.309 3.826 8.703 3.304 20.967 5.27 30.379 3.787 5.755-0.905 5.81 2.756-1.328 3.868l-0.111 0.057c-2.894 0.228-5.859 0.307-8.915 0.212" fill="#c8be89"/>
  </g>
  <g transform="matrix(.43306 0 0 -.43306 18.852 17.936)">
   <path d="m0 0c12.457 11.427 30.556 15.984 47.886 11.854 13.351-3.182 23.72-10.904 28.734-21.364l0.435-5.785c-3.716 12.21-14.593 21.78-29.645 25.368-18.162 4.327-37.26-1.25-49.087-14.163z" fill="#5a4f2b"/>
  </g>
  <g transform="matrix(.43306 0 0 -.43306 36.156 16.459)">
   <path d="m0 0c16.47-0.683 30.036-10.063 36.705-25.308l-0.675-2.715c-6.048 14.226-16.144 21.919-26.855 24.802z" fill="#5a4f2b"/>
  </g>
  <g transform="matrix(.43306 0 0 -.43306 7.3128 25.842)">
   <path d="m0 0c9.532-13.14 28.218-38.291 38.588-51.944 21.061 2.537 50.278 6.247 69.749 9.072 4.606 14.031 12.215 38.428 16.967 53.988-11.008 11.373-30.034 31.749-39.933 42.594-16.523-1.596-43.948-3.867-58.506-4.946-6.32-11.993-19.004-34.858-26.865-48.764m36.922-53.529c-10.318 13.59-29.225 39.008-38.809 52.203-0.711 0.979-0.768 1.352-0.296 2.188 7.776 13.765 20.44 36.929 26.806 48.994 0.531 1.006 0.75 1.16 2.031 1.256 14.545 1.093 41.995 3.598 58.372 5.177 1.17 0.113 1.453 0.037 2.247-0.833 9.932-10.88 28.906-31.474 39.81-42.759 0.66-0.683 0.803-1.074 0.486-2.107-4.72-15.455-12.478-40.31-17.073-54.323-0.363-1.11-0.586-1.305-1.799-1.481-19.392-2.806-48.991-6.597-69.878-9.113-1.008-0.122-1.235-0.074-1.897 0.798" fill="#0f141b"/>
  </g>
  <g transform="matrix(.43306 0 0 -.43306 51.819 51.951)">
   <path d="m0 0c1.691 5.225 3.13 9.904 5.14 16.137l2.43-0.02c-2.1-6.706-3.732-11.761-5.522-17.194z" fill="#0f141b"/>
  </g>
  <g transform="matrix(.43306 0 0 -.43306 20.168 54.75)">
   <path d="m0 0c-8.51 11.001-20.667 26.995-28.861 37.998-0.498 0.669-0.637 0.922-0.734 1.783-0.77 6.832-1.84 18.96-2.572 26.847l2.459-1.314c0.753-8.095 1.73-18.912 2.496-25.527 8.205-11.028 20.425-27.277 29.066-38.448z" fill="#0f141b"/>
  </g>
  <g transform="matrix(.43306 0 0 -.43306 51.638 25.148)">
   <path d="m0 0c0.516 18.952-14.985 36.016-37.907 36.638-22.269 0.624-39.362-14.784-39.874-33.647-0.504-18.488 15.917-35.784 38.412-36.394 22.381-0.595 38.845 14.091 39.369 33.403m-39.444-35.78c-22.28 0.605-41.423 17.174-40.834 38.816 0.558 20.545 19.074 36.602 42.446 35.957 26.548-0.722 41.033-20.191 40.518-39.125-0.543-19.987-18.218-36.283-42.13-35.648" fill="#0f141b"/>
  </g>
  <g transform="matrix(.43306 0 0 -.43306 49.923 32.55)">
   <path d="m0 0c-0.648 20.05-15.021 31.55-28.639 35.066-16.338 4.219-35.908-0.588-46.302-18.862l-0.08 4.062c9.993 15.561 29.721 21.48 46.918 17.037 14.247-3.678 28.397-14.753 30.015-34.337z" fill="#0f141b"/>
  </g>
  <g transform="matrix(.43306 0 0 -.43306 56.99 55.939)">
   <path d="m0 0c-12.481 10.496-27.566 15.941-45.944 15.369-17.231-0.534-40.51-10.442-46.888-22.828-2.323-4.513-2.019-7.494-1.057-8.943 1.907-2.871 7.336-2.714 15.43 0.152 1.787 0.634 2.638 0.448 2.472-1.625-0.443-5.527-3.16-12.186-6.751-16.11-4.38-4.787-6.592-10.508-6.592-15.044 0-5.003 4.13-8.174 12.584-8.174 7.748 0 12.655 2.812 19.626 2.812 4.84 0 9.233-1.883 16.278-1.883 6.725 0 13.422 2.823 18.128 2.823 4.924 0 7.818-0.918 13.162-0.918 7.26 0 12.175 3.665 12.175 9.617 0 4.156-2.031 8.202-7.258 13.223-5.662 5.437-8.043 11.985-6.459 18.46 0.298 1.219 0.489 1.363 2.105 1.053 7.372-1.411 12.582-0.365 13.689 2.962 0.756 2.266-0.264 5.325-4.7 9.054m-76.814-59.357c-10.849 0-14.919 4.376-14.919 10.294 0 5.86 2.605 11.561 7.233 16.62 3.72 4.066 6.086 9.36 6.512 14.284-11.602-4.203-16.098-1.937-17.779 0.592-1.238 1.863-1.606 5.972 1.005 11.044 5.759 11.182 27.062 23.38 48.811 24.053 18.092 0.591 33.6-4.512 47.217-15.963 5.406-4.546 6.553-8.316 5.544-11.344-1.373-4.119-7.314-5.897-16.112-4.138-1.589-6.554 2.288-12.079 6.301-15.934 5.532-5.313 8.01-10.038 8.01-14.983 0-6.74-5.303-11.748-14.652-11.748-5.401 0-8.559 0.975-13.071 0.975-4.621 0-11.579-2.869-18.162-2.869-7.045 0-11.749 1.894-16.313 1.894-6.999 0-11.934-2.777-19.625-2.777" fill="#0f141b"/>
  </g>
  <g transform="matrix(.43306 0 0 -.43306 9.1817 51.93)">
   <path d="m0 0c0.707-4.868-2.429-9.353-7.004-10.017-4.574-0.664-8.856 2.745-9.562 7.613-0.707 4.867 2.428 9.352 7.003 10.016s8.857-2.744 9.563-7.612" fill="#3e3a39"/>
  </g>
  <g transform="matrix(.43306 0 0 -.43306 30.831 14.302)">
   <path d="m0 0c2.666-1.263 5.8-0.781 8.652 1.588 5.414 4.499 12.768 0.923 13.202-6.349 0.227-3.825 0.97-4.995 3.231-6.951 4.414-3.817 3.637-9.483-2.376-12.323-2.966-1.402-4.782-3.436-5.133-6.097-0.929-7.036-9.248-7.834-13.271-3.168-2.286 2.652-4.369 3.652-8.038 3.544-6.268-0.184-9.188 4.92-6.253 11.339 1.541 3.368 1.94 5.163 0.63 8.768-2.36 6.492 2.659 12.822 9.356 9.649" fill="#595857"/>
  </g>
  <g transform="matrix(.43306 0 0 -.43306 70.157 45.911)">
   <path d="m0 0c1.343-5.887-1.871-10.085-6.366-11.264-4.572-1.198-9.479 1.385-10.992 7.31-1.418 5.549 1.575 10.37 6.258 11.566 4.559 1.165 9.726-1.588 11.1-7.612" fill="#3e3a39"/>
  </g>
  <g transform="matrix(.43306 0 0 -.43306 36.966 19.337)">
   <path d="m0 0c-0.49 2.534-2.551 2.649-4.203 1.802-1.587-0.814-2.535-1.126-4.171-0.39-1.893 0.852-3.967 0.035-4.939-1.831-1.659-3.185-1.152-4.787 0.29-5.785 1.121-0.776 2.303-2.514 2.657-4.366 0.345-1.811 2.417-2.291 3.923-1.048 1.623 1.338 3.136 1.861 4.367 1.659 1.312-0.216 2.388 0.463 2.552 1.768 0.123 0.977 0.419 1.624 0.909 2.302 0.741 1.024 0.374 2.23-0.312 3.185-0.692 0.964-0.84 1.503-1.073 2.704m6.748-2.473c3.045-2.022 1.995-7.486-2.744-8.788-2.184-0.599-2.945-1.782-3.82-4.566-0.842-2.68-4.092-3.541-6.616-1.342-2.763 2.41-5.929 3.569-8.623 3.21-4.688-0.626-6.246 2.549-3.895 6.605 1.153 1.99 0.996 4.025 0.192 8.258-1.028 5.414 2.816 7.49 6.653 5.341 2.064-1.156 5.297-0.877 9.188 1.235 3.387 1.839 6.512 0.184 6.696-4.397 0.123-3.062 1.084-4.304 2.969-5.556" fill="#3e3a39"/>
  </g>
  <g transform="matrix(.43306 0 0 -.43306 6.6307 52.577)">
   <path d="m0 0c1.852-2.415 1.969-5.538-0.325-7.267-2.243-1.689-5.324-1.193-7.221 1.283-2.139 2.789-1.804 6.024 0.191 7.553 2.011 1.542 5.276 1.144 7.355-1.569" fill="#595857"/>
  </g>
  <g transform="matrix(.43306 0 0 -.43306 68.55 45.54)">
   <path d="m0 0c0.867-4.65-1.33-7.647-5.122-8.355-3.777-0.705-6.907 2.03-7.415 6.627-0.505 4.569 1.631 7.639 5.052 8.277 3.899 0.727 6.701-2.344 7.485-6.549" fill="#595857"/>
  </g>
  <g transform="matrix(.43306 0 0 -.43306 38.56 16.712)">
   <path d="m0 0c0.035-2.728-2.805-4.84-6.158-4.852-4.008-0.014-6.082 2.872-6.093 5.416-0.012 2.665 2.3 4.916 6.247 4.811 4.071-0.108 5.974-2.995 6.004-5.375" fill="#fff"/>
  </g>
  <g transform="matrix(.43306 0 0 -.43306 33.335 23.884)">
   <path d="m0 0c0.353-2.193-0.97-4.046-3.078-4.385-2.487-0.398-4.158 0.994-4.503 3.141-0.326 2.032 0.823 3.859 3.289 4.255 2.127 0.342 3.947-0.86 4.292-3.011" fill="#fff"/>
  </g>
  <g transform="matrix(.43306 0 0 -.43306 10.977 43.591)">
   <path d="m0 0c1.217-3.03-0.681-5.65-2.995-6.58-2.491-1-5.202 0.427-6.272 3.091-1.072 2.669 0.038 5.565 2.861 6.699 2.736 1.099 5.285-0.419 6.406-3.21" fill="#595857"/>
  </g>
  <g transform="matrix(.43306 0 0 -.43306 7.2126 51.129)">
   <path d="m0 0c-0.317-1.301-1.734-1.973-3.294-1.592-1.69 0.412-2.339 1.834-1.991 3.083 0.303 1.088 1.649 1.851 3.181 1.463 1.794-0.455 2.361-1.901 2.104-2.954" fill="#fff"/>
  </g>
  <g transform="matrix(.43306 0 0 -.43306 66.211 44.927)">
   <path d="m0 0c0.127-1.393-1.029-2.414-2.103-2.513-1.059-0.096-2.248 0.548-2.39 2.114-0.133 1.447 0.809 2.424 2.156 2.547 1.093 0.1 2.199-0.64 2.337-2.148" fill="#fff"/>
  </g>
  <g transform="matrix(.43306 0 0 -.43306 65.494 44.624)">
   <path d="m0 0c0.189-0.742-0.225-1.45-0.974-1.642-0.794-0.203-1.498 0.246-1.691 1.003-0.191 0.749 0.235 1.472 1.027 1.675 0.675 0.172 1.419-0.182 1.638-1.036" fill="#fff"/>
  </g>
  <g transform="matrix(.43306 0 0 -.43306 37.535 16.641)">
   <path d="m0 0c-0.152-1.916-2.003-3.238-4.297-3.057-2.302 0.184-3.678 2.112-3.526 4.005 0.117 1.479 1.76 3.004 4.256 2.806 2.443-0.194 3.7-2.094 3.567-3.754" fill="#fff"/>
  </g>
  <g transform="matrix(.43306 0 0 -.43306 32.579 24.088)">
   <path d="m0 0c0.255-1.59-0.681-2.507-1.826-2.69-1.24-0.2-2.37 0.526-2.608 2.005-0.201 1.256 0.449 2.521 1.845 2.745 1.238 0.199 2.331-0.452 2.589-2.06" fill="#fff"/>
  </g>
  <g transform="matrix(.43306 0 0 -.43306 9.7302 44.033)">
   <path d="m0 0c-0.806-1.095-2.126-1.363-3.15-0.702-0.871 0.562-1.236 2.036-0.282 3.198 0.817 0.992 2.37 1.299 3.204 0.646 0.853-0.666 1.013-2.075 0.228-3.142" fill="#c8c9ca"/>
  </g>
  <g transform="matrix(.43306 0 0 -.43306 6.7207 50.502)">
   <path d="m0 0c0.06-0.733-0.531-1.505-1.652-1.597-1.112-0.09-1.781 0.591-1.85 1.441-0.058 0.711 0.479 1.377 1.735 1.479 1.027 0.083 1.705-0.557 1.767-1.323" fill="#fff"/>
  </g>
  <g transform="matrix(.43306 0 0 -.43306 18.88 73.107)">
   <path d="m0 0c-0.458 0.124-0.92 0.244-1.375 0.359-1.789 0.453-2.041 0.225-2.888-1.296-0.666-1.197-1.365-2.54-1.977-3.786-0.704-1.433-1.287-1.701-2.799-1.22-1.502 0.477-3.201 1.159-4.718 1.908-1.565 0.773-1.97 0.558-2.423-0.897-0.651-2.094-1.377-4.603-1.648-5.57-0.71-2.523-2.715-2.686-5.197-1.128-1.891 1.187-2.903 3.3-2.338 5.561 0.688 2.753 2.577 6.789 4.29 10.235 0.696 1.403 1.212 1.706 3.25 1.09 1.71-0.516 3.56-1.052 5.328-1.524 1.567-0.419 2.137-0.161 3.27 1.211 0.767 0.927 1.577 1.85 2.365 2.704 1.164 1.263 1.494 1.399 3.474 0.967 2.498-0.544 5.3-1.455 7.471-2.312-1.399-1.666-3.358-4.255-4.085-6.302" fill="#e73821"/>
  </g>
  <g transform="matrix(.43306 0 0 -.43306 15.909 69.795)">
   <path d="m0 0c-0.788-0.854-1.598-1.777-2.364-2.704-5.032-8.005-8.149-2.648-10.511-7.79-0.722-1.569-1.877-5.316-2.914-8.992 2.305-1.307 4.148-1.056 4.821 1.337 0.272 0.966 0.997 3.475 1.649 5.57 0.453 1.455 0.857 1.67 2.423 0.896 1.516-0.749 3.215-1.43 4.717-1.908 1.512-0.48 2.095-0.213 2.799 1.221 0.612 1.246 1.312 2.589 1.978 3.786 0.846 1.521 1.098 1.749 2.887 1.296 0.455-0.115 0.917-0.235 1.375-0.359 0.727 2.046 2.686 4.635 4.085 6.301-2.171 0.858-4.972 1.769-7.47 2.313-1.981 0.431-2.311 0.296-3.475-0.967" fill="#c82f1a"/>
  </g>
  <g transform="matrix(.43306 0 0 -.43306 27.184 18.346)">
   <path d="m0 0c1.357-3.733 1.002-5.849-0.659-9.481-2.373-5.191-0.489-10.121 5.312-9.951 3.795 0.112 6.312-0.97 8.794-3.849 3.709-4.302 10.781-3.285 11.566 2.665 0.378 2.86 2.409 5.262 5.711 6.821 5.355 2.529 5.858 7.453 2.108 10.696-2.404 2.078-3.318 3.612-3.559 7.624-0.392 6.617-7.113 9.349-11.61 5.605-3.17-2.632-6.684-3.113-9.686-1.691-5.843 2.771-9.916-3.105-7.977-8.439m8.832 10.239c2.495-1.181 4.999-0.696 7.573 1.443 5.858 4.865 14.333 1.562 14.846-7.022 0.211-3.567 0.728-4.38 2.882-6.242 5.025-4.346 4.227-10.783-2.604-14.01-2.825-1.334-4.253-2.983-4.561-5.319-1.034-7.853-10.288-9.16-14.997-3.697-2.207 2.558-3.874 3.306-7.247 3.208-7.001-0.207-10.666 5.092-7.168 12.741 1.527 3.339 1.762 4.742 0.561 8.049-2.793 7.681 3.308 14.359 10.715 10.849" fill="#0f141b"/>
  </g>
  <g transform="matrix(.43306 0 0 -.43306 38.162 16.718)">
   <path d="m0 0c-0.027 2.161-1.687 4.473-5.126 4.564-3.357 0.091-5.304-1.699-5.291-3.978 0.011-2.263 1.75-4.606 5.162-4.594 2.717 6e-3 5.283 1.663 5.255 4.008m1.835 0.018c0.042-3.224-3.478-5.664-7.079-5.677-4.73-0.017-6.987 3.294-7.001 6.237-0.014 2.972 2.763 5.759 7.172 5.638 4.681-0.125 6.873-3.487 6.908-6.198" fill="#c8c9ca"/>
  </g>
  <g transform="matrix(.43306 0 0 -.43306 31.525 22.933)">
   <path d="m0 0c-1.788-0.287-2.758-1.702-2.502-3.3 0.308-1.918 1.715-2.763 3.471-2.482 1.817 0.292 2.616 1.658 2.328 3.455-0.264 1.64-1.814 2.576-3.297 2.327m1.233-7.375c-3.025-0.486-5.099 1.195-5.518 3.806-0.394 2.45 1.125 4.731 4.032 5.198 2.765 0.443 4.928-1.265 5.318-3.697 0.412-2.563-1.008-4.855-3.832-5.307" fill="#c8c9ca"/>
  </g>
  <g transform="matrix(.43306 0 0 -.43306 8.3456 42.604)">
   <path d="m0 0c-2.232-0.896-3.122-3.081-2.205-5.364 0.943-2.349 3.035-3.341 4.939-2.576 2.031 0.815 3.328 2.669 2.277 5.286-0.974 2.424-2.974 3.472-5.011 2.654m3.441-9.77c-3.803-1.526-6.698 1.132-7.679 3.576-1.124 2.8-0.149 6.572 3.545 8.055 3.319 1.333 6.396-0.313 7.781-3.761 1.346-3.352-0.463-6.591-3.647-7.87" fill="#0f141b"/>
  </g>
  <g transform="matrix(.43306 0 0 -.43306 5.1023 49.066)">
   <path d="m0 0c-3.844-0.558-6.688-4.56-6.064-8.861 0.664-4.574 4.641-7.332 8.332-6.796 3.599 0.522 6.774 4.174 6.083 8.939-0.561 3.86-3.997 7.35-8.351 6.718m2.532-17.597c-5.553-0.805-10.079 3.265-10.821 8.378-0.733 5.05 2.407 10.394 7.989 11.204 5.418 0.787 10.053-3.45 10.788-8.512 0.749-5.163-2.752-10.314-7.956-11.07" fill="#0f141b"/>
  </g>
  <g transform="matrix(.43306 0 0 -.43306 5.2287 50.568)">
   <path d="m0 0c-0.261-0.746 0.246-1.881 1.46-2.177 1.179-0.289 2.192 0.156 2.411 1.056 0.154 0.633-0.137 1.708-1.574 2.071-1.073 0.273-2.074-0.314-2.297-0.95m1.113-3.598c-1.955 0.479-2.993 2.299-2.521 3.991 0.43 1.546 2.255 2.434 4.064 1.975 2.185-0.554 2.989-2.39 2.635-3.836v-1e-3c-0.437-1.789-2.448-2.55-4.178-2.129" fill="#c8c9ca"/>
  </g>
  <g transform="matrix(.43306 0 0 -.43306 69.706 46.03)">
   <path d="m0 0c-1.171 5.132-5.582 8.034-9.821 6.951-4.485-1.146-6.617-5.721-5.457-10.261 1.29-5.049 5.424-7.797 9.646-6.705 3.525 0.912 6.965 4.175 5.632 10.015m-5.141-11.977c-5.65-1.463-10.76 2.036-12.303 8.072-1.506 5.891 1.692 11.355 7.16 12.752 5.502 1.406 10.949-2.09 12.387-8.393 1.501-6.585-2.351-11.164-7.244-12.431" fill="#0f141b"/>
  </g>
  <g transform="matrix(.43306 0 0 -.43306 65.888 44.961)">
   <path d="m0 0c-0.09 0.979-0.841 1.484-1.554 1.427-0.901-0.073-1.389-0.772-1.322-1.673 0.068-0.901 0.653-1.48 1.433-1.408 0.88 0.074 1.535 0.651 1.443 1.654m-1.323-3.229c-1.859-0.168-3.189 1.125-3.343 2.827-0.173 1.894 1.343 3.276 2.974 3.423 1.664 0.155 3.159-1.241 3.306-2.878 0.166-1.812-1.209-3.221-2.937-3.372" fill="#c8c9ca"/>
  </g>
  <g transform="matrix(.43306 0 0 -.43306 20.399 70.754)">
   <path d="m0 0c-1.97 0.769-4.584 1.652-7.133 2.208-1.37 0.294-1.703 0.19-2.512-0.686-0.819-0.89-1.598-1.766-2.331-2.653-1.474-1.783-2.158-2.113-4.251-1.552-1.605 0.429-3.454 0.966-5.399 1.552-1.334 0.404-1.616 0.287-2.061-0.608-1.481-2.98-3.511-7.173-4.217-9.997-0.414-1.657 0.193-3.422 1.88-4.48 2.29-1.439 3.288-0.969 3.724 0.586 0.274 0.971 1.016 3.477 1.669 5.577 0.636 2.043 1.602 2.562 3.717 1.517 1.442-0.712 3.15-1.391 4.642-1.865 0.878-0.281 1.202-0.137 1.645 0.765 0.636 1.295 1.329 2.602 1.98 3.77 1.097 1.977 1.667 2.363 4.066 1.755 0.481-0.123 0.971-0.25 1.455-0.382l-0.667-1.91c-0.452 0.123-0.908 0.242-1.357 0.355-1.007 0.257-1.188 0.17-1.738-0.819-0.639-1.149-1.339-2.512-1.964-3.784-0.944-1.925-1.913-2.365-3.99-1.7-1.58 0.502-3.304 1.224-4.831 1.98-0.589 0.289-0.883 0.24-1.054-0.312-0.65-2.087-1.376-4.588-1.646-5.55-0.687-2.441-2.858-4.08-6.693-1.675-2.287 1.434-3.453 3.919-2.777 6.617 0.74 2.962 2.854 7.438 4.364 10.477 0.964 1.941 1.786 2.383 4.45 1.581 1.93-0.583 3.71-1.08 5.3-1.505 0.96-0.254 1.412-0.091 2.213 0.879 0.749 0.905 1.582 1.862 2.419 2.769 1.445 1.569 2.003 1.768 4.421 1.241 2.77-0.602 5.881-1.623 7.936-2.441z" fill="#0f141b"/>
  </g>
  <g transform="matrix(.43306 0 0 -.43306 8.4589 77.795)">
   <path d="m0 0c-0.355-1.408-0.613-2.386-0.951-3.758-0.566-2.299-1.959-2.058-1.603 0.326 0.302 2.024 0.636 3.852 1.077 5.867z" fill="#0f141b"/>
  </g>
  <g transform="matrix(.43306 0 0 -.43306 10.085 78.566)">
   <path d="m0 0c-0.136-1.601-0.242-2.783-0.363-4.354-0.189-2.426-1.524-2.451-1.639-0.022-0.083 1.759-0.083 3.291 0.016 4.952z" fill="#0f141b"/>
  </g>
  <g transform="matrix(.43306 0 0 -.43306 17.264 77.186)">
   <path d="m0 0c0 5.86 2.605 11.562 7.233 16.62 3.72 4.067 6.086 9.36 6.512 14.284l2.001 0.284c-0.442-5.527-3.16-12.185-6.751-16.11-4.38-4.787-6.592-10.508-6.592-15.044z" fill="#0f141b"/>
  </g>
 </g>
</svg>
