<?xml version="1.0" encoding="UTF-8" standalone="no"?>
<!-- Created with Inkscape (http://www.inkscape.org/) -->

<svg
   version="1.1"
   viewBox="0 0 110.46 134.05"
   id="svg59"
   sodipodi:docname="808-4.svg"
   inkscape:version="1.3 (0e150ed, 2023-07-21)"
   xmlns:inkscape="http://www.inkscape.org/namespaces/inkscape"
   xmlns:sodipodi="http://sodipodi.sourceforge.net/DTD/sodipodi-0.dtd"
   xmlns="http://www.w3.org/2000/svg"
   xmlns:svg="http://www.w3.org/2000/svg">
  <defs
     id="defs59" />
  <sodipodi:namedview
     id="namedview59"
     pagecolor="#505050"
     bordercolor="#eeeeee"
     borderopacity="1"
     inkscape:showpageshadow="0"
     inkscape:pageopacity="0"
     inkscape:pagecheckerboard="0"
     inkscape:deskcolor="#d1d1d1"
     inkscape:zoom="1.7605371"
     inkscape:cx="49.984747"
     inkscape:cy="72.137078"
     inkscape:window-width="1336"
     inkscape:window-height="487"
     inkscape:window-x="46"
     inkscape:window-y="300"
     inkscape:window-maximized="0"
     inkscape:current-layer="svg59" />
  <path
     d="m 37.153,81.904 c -2.44366,-8.002374 -5.988185,-10.65988 -9.719222,-9.625443 -5.964541,1.653511 -8.136244,12.710566 -2.134569,27.852633 3.412515,8.60792 2.661362,12.53487 -0.894756,17.17104 -3.685679,4.80598 -3.894076,8.45159 -2.624747,10.81906 1.692242,3.15821 5.484484,4.27169 14.659592,3.10721 2.901565,-0.36823 5.831869,-0.11641 8.285024,0.73122 4.796471,1.65535 7.897165,1.74674 13.160349,0.1933 3.392918,-1.0009 7.765056,-1.45674 10.702962,-0.59192 6.809201,2.00255 11.410041,0.46307 13.098039,-3.08062 1.48343,-3.11431 0.793316,-7.22928 -3.826147,-11.47407 -4.908395,-4.5103 -4.343095,-12.07942 1.576122,-13.40889 7.223952,-1.62261 9.082085,-4.628198 8.561369,-8.101394 -0.554131,-3.698172 -4.360686,-6.453674 -13.536621,-7.361704 -2.154467,0.53559 -3.412723,0.850192 -5.433943,1.338531 C 59.41721,87.9756 43.802911,84.11622 37.153,81.904"
     fill="#9e9e9f"
     id="path1"
     style="stroke-width:0.677393" />
  <path
     d="m 21.779,128.114 c 1.713696,3.14629 5.485162,4.27168 14.659593,3.10722 2.901565,-0.36824 5.831869,-0.11642 8.285024,0.73121 4.79647,1.65535 7.897152,1.74607 13.161026,0.19329 3.39224,-1.00089 8.422486,-1.51533 11.440454,-0.39525 5.044092,0.46228 9.028034,-1.80802 10.079294,-5.27387 -2.575358,1.95148 -6.958283,2.55252 -10.746817,1.84751 -3.788533,-0.705 -8.381963,0.0491 -12.354995,1.29071 -3.973045,1.24095 -8.526413,1.21649 -11.84152,-0.88507 -2.884431,-1.8286 -4.930513,-1.93464 -10.010194,-0.92061 -6.468031,1.29249 -10.766317,-4.83716 -8.816602,-7.16021 1.765546,-2.10341 0.353863,-5.40043 -1.162497,-3.44675 -2.683538,3.4583 -4.468943,7.65087 -2.692766,10.91182"
     fill="#eeeeef"
     id="path2"
     style="stroke-width:0.677393;fill:#dbdcdc;fill-opacity:1" />
  <path
     d="m 87.993,95.494 c -0.554156,-3.699527 -4.360687,-6.453674 -13.536621,-7.361704 -2.15448,0.534913 -3.412724,0.850192 -5.433943,1.33853 C 59.51172,87.988537 44.122235,84.193984 37.36033,81.971023 40.239454,89.608058 54.871637,94.194134 70.588831,92.068419 82.779829,90.419712 88.047225,97.310742 86.041075,99.76562 87.151551,99.019544 88.270091,97.344441 87.993,95.494"
     fill="#9d977a"
     id="path3"
     style="stroke-width:0.677393" />
  <path
     d="m 58.963,90.664 c -0.04288,-0.295258 0.671688,-0.697752 2.222143,-0.931193 1.576817,-0.236652 2.403664,-0.07962 2.502772,0.286382 0.08012,0.293872 -0.564247,0.682834 -2.276667,0.949846 C 59.787996,91.222154 59.005857,90.957903 58.963,90.664"
     fill="#c8be89"
     id="path4"
     style="stroke-width:0.677393" />
  <path
     d="m 74.463,88.134 c -1.965657,0.488636 -3.192223,0.795182 -4.926789,1.215733 1.841728,0.902629 4.280491,1.421262 7.93885,1.516271 4.916441,0.127299 9.648156,3.150427 9.823287,6.015693 C 88.762327,93.136985 85.177747,89.19364 74.463,88.134"
     fill="#c8be89"
     id="path5"
     style="stroke-width:0.677393" />
  <path
     d="m 76.013,123.784 c -1.163962,3.34672 -4.084428,3.86098 -8.310748,3.54168 -3.247254,-0.24511 -6.122533,0.0447 -9.604975,1.21873 -4.487497,1.51429 -9.176345,1.88266 -12.338673,-0.16558 -2.975062,-1.92714 -6.062396,-2.59807 -10.437097,-1.56493 -6.964694,1.64612 -9.021004,-1.98755 -7.71466,-5.32885 0.427038,-1.09283 0.890107,-2.14366 1.476193,-3.60131 0.71607,-1.7833 0.339303,-1.92925 -0.788136,-0.36577 -0.699706,0.96997 -1.415927,1.74852 -2.136967,2.52309 -1.873656,2.01197 -2.278333,4.03054 -1.538217,6.03816 0.984425,2.66965 4.71201,4.26607 11.393983,2.36042 2.457565,-0.70058 5.172027,-0.50495 7.119174,0.5969 4.938718,2.79289 8.538685,2.77451 15.226058,0.76104 3.127105,-0.94165 6.150699,-1.19906 10.462155,-0.46471 7.779352,1.32351 10.980355,-0.79029 10.899844,-5.02052 -0.107141,-5.62947 -8.189963,-9.83341 -8.319868,-16.65894 -0.09062,-4.7612 4.020464,-9.108472 8.264954,-9.578825 l -16.761505,0.830534 z"
     fill="#595857"
     id="path6"
     style="stroke-width:0.677393" />
  <path
     d="M 105.123,59.244 C 102.46103,47.673921 97.559129,29.336766 94.206866,17.700555 c -1.71922,-1.692234 -3.745137,-3.586627 -5.40213,-4.999553 3.045108,12.228785 8.128103,32.320645 11.615434,44.467842 z"
     fill="#dbc77f"
     id="path7"
     style="stroke-width:0.677393;fill:#b4a468;fill-opacity:1" />
  <path
     d="m 100.423,57.174 c -7.269252,7.928422 -22.049564,22.791887 -31.397936,32.295807 2.690763,-0.551218 5.28905,-1.155554 8.698972,-1.868158 7.327959,-7.76287 19.344481,-20.038472 27.401794,-28.352493 z"
     fill="#877b4c"
     id="path8"
     style="stroke-width:0.677393" />
  <path
     d="M 81.633,32.383 C 88.841315,46.491924 83.227992,63.35981 69.035513,70.520934 56.566996,76.81116 38.058627,73.749417 30.318981,58.599779 24.171181,46.566226 28.030805,33.136232 36.566885,24.951989 48.538262,13.472649 72.214253,13.946849 81.633,32.383 M 37.119083,81.910356 c 9.690285,3.050029 20.545673,5.661213 31.907136,7.558826 C 78.37459,79.965262 93.154903,65.101797 100.42415,57.173375 96.936163,45.026868 91.853844,24.934995 88.808723,12.705533 74.896059,8.9736595 57.862719,4.634505 44.172877,0.89839113 34.946149,10.030072 22.165804,23.003824 11.916214,32.821648 c 3.307313,11.90875 8.20487,30.872012 11.303428,43.239347 2.445873,-5.444315 10.423891,-7.102949 13.899441,5.849361"
     fill="#ffe792"
     id="path9"
     style="stroke-width:0.677393" />
  <path
     d="m 26.586,33.579 c 1.467573,0.0039 2.496775,0.184868 3.218848,1.030893 1.607655,-3.635657 3.924239,-6.937918 6.762074,-9.657951 5.225162,-5.010756 12.681389,-7.742806 20.208752,-7.698397 -2.085413,-1.104633 -4.827938,-1.849195 -7.263662,-1.994574 -4.650285,-0.27532 -7.58621,-2.85159 -7.623375,-7.5453863 C 41.873875,5.8344382 41.456324,4.862698 40.617445,4.4294711 33.582046,11.438119 25.165355,19.914808 17.471081,27.440068 c 1.75024,4.14086 5.000834,6.1278 9.114919,6.138932"
     fill="#fff4cc"
     id="path10"
     style="stroke-width:0.677393" />
  <path
     d="m 86.303,50.096 c -0.43541,-3.191618 -0.786035,-4.918707 -1.623559,-7.060653 1.166613,14.342477 -8.298471,24.833725 -18.207695,28.613151 5.960996,1.506488 14.29687,0.317336 19.433911,-3.520995 4.26928,-3.190372 4.799848,-6.247934 3.006516,-9.235521 C 87.63799,56.767831 86.905335,54.511421 86.303,50.096"
     fill="#fff4cc"
     id="path11"
     style="stroke-width:0.677393" />
  <path
     d="M 72.253,21.799 C 61.062454,14.464461 45.534564,16.355541 36.569328,24.95175 28.033262,33.13667 24.173637,46.566665 30.321437,58.600218 34.448144,66.678962 41.63815,71.317925 49.341147,72.936925 33.951746,67.402511 27.789951,48.90234 35.326143,34.708596 42.944055,20.358824 59.882282,15.35753 72.253,21.799"
     fill="#877b4c"
     id="path12"
     style="stroke-width:0.677393" />
  <path
     d="m 63.113,72.694 c -8.398152,2.081947 -18.083655,0.600274 -25.353924,-5.052079 -7.701585,-1.580408 -12.675412,-0.130714 -15.765683,3.565003 0.430079,1.701186 0.840454,3.32822 1.223159,4.854153 2.445859,-5.444992 10.423878,-7.103626 13.899428,5.848683 9.690284,3.05003 20.545686,5.661891 31.907148,7.559504 C 74.571015,83.82973 82.023491,76.308395 88.691414,69.463925 76.884614,74.5681 67.986406,74.475933 63.113,72.694"
     fill="#dbc77f"
     id="path13"
     style="stroke-width:0.677393" />
  <path
     d="m 61.503,88.094 c -6.443517,4.040028 -18.665227,0.8356 -21.691296,-5.337915 5.6591,1.59218 13.85577,3.554769 21.691296,5.337915"
     fill="#c8be89"
     id="path14"
     style="stroke-width:0.677393" />
  <path
     d="m 65.273,125.374 c 7.07048,3.59177 12.053943,0.12086 10.755492,-4.34635 -1.267318,-4.36212 -5.960339,-7.38124 -6.08126,-13.73471 -0.09212,-4.84045 3.817957,-8.820063 9.368027,-9.18315 3.691937,-0.240999 3.229149,-4.016792 -1.014374,-4.741594 C 74.404697,92.702503 70.486012,93.239827 65.987,94.896612 62.180986,96.299012 58.108817,96.140739 51.314584,93.927878 42.82759,91.163894 37.712382,87.499006 34.591935,79.962093 32.172372,74.115792 29.31964,73.739186 27.640972,74.177644 c -4.251298,1.109381 -4.675766,9.136531 -0.715929,18.272664 6.140305,14.167192 6.194944,17.572022 3.329015,24.298062 l 30.364019,4.15522 z"
     fill="#dbdcdc"
     id="path15"
     style="stroke-width:0.677393" />
  <path
     d="m 28.06,75.514 c -2.282781,0.521772 -3.262853,3.741008 -2.219494,7.798438 1.534976,5.966119 4.643152,7.803328 6.460777,7.368323 1.918112,-0.459276 3.229808,-3.732926 1.828958,-8.917035 C 33.134685,78.082085 30.641613,74.923531 28.06,75.514"
     fill="#eeeeef"
     id="path16"
     style="stroke-width:0.677393" />
  <path
     d="m 28.316,75.934 c -1.210039,0.178181 -1.899723,1.710296 -1.575838,3.705512 0.362963,2.232958 1.372955,3.398032 2.541003,3.220651 1.192391,-0.179878 1.93717,-1.593799 1.712168,-3.662036 C 30.756006,77.016302 29.552414,75.753285 28.316,75.934"
     fill="#ffffff"
     id="path17"
     style="stroke-width:0.677393" />
  <path
     d="m 30.087,83.704 c -0.455649,0.08794 -0.728091,0.866849 -0.387276,2.149674 0.291931,1.099472 0.887306,1.73178 1.271152,1.644528 0.538986,-0.123404 0.729388,-0.905493 0.433504,-2.105839 C 31.111424,84.20348 30.604074,83.604049 30.087,83.704"
     fill="#ffffff"
     id="path18"
     style="stroke-width:0.677393" />
  <path
     d="m 30.257,116.744 c -2.655899,7.25999 3.09e-4,10.12614 7.899193,7.01506 1.973035,-0.7774 3.502854,-0.52873 4.775696,0.74178 3.013946,3.00907 8.49159,5.39062 15.052749,1.5157 2.587465,-1.52894 5.023603,-1.82463 7.291304,-0.64691 2.56331,1.33132 5.719085,-0.0262 5.890554,-3.19142 0.210988,-3.90108 -2.848641,-7.6017 -6.744932,-8.27281 -6.293749,-1.08416 -9.425168,-2.29152 -11.747431,-4.69857 -4.213951,-4.36837 -9.681597,-3.37676 -12.26263,-0.65552 -1.61596,1.70422 -2.496445,2.28874 -4.099171,2.41003 -2.951745,0.22352 -4.946343,2.75135 -6.055332,5.78266"
     fill="#eeeeef"
     id="path19"
     style="stroke-width:0.677393" />
  <path
     d="m 31.538,121.664 c -0.233486,0.58304 0.270678,1.54907 1.490093,1.89917 1.506913,0.43339 2.478368,0.0721 2.622449,-0.54517 0.125948,-0.53764 -0.276608,-1.39787 -1.582829,-1.82356 -1.396214,-0.45514 -2.305934,-0.0896 -2.529713,0.46956"
     fill="#ffffff"
     id="path20"
     style="stroke-width:0.677393" />
  <path
     d="m 62.473,120.074 c -0.24276,0.45178 0.05517,1.29707 0.767967,1.58432 0.754442,0.30407 1.519212,0.0829 1.731373,-0.41033 0.206323,-0.47954 -0.0881,-1.24698 -0.820137,-1.54877 -0.768219,-0.31601 -1.420066,-0.10645 -1.679203,0.37478"
     fill="#ffffff"
     id="path21"
     style="stroke-width:0.677393" />
  <path
     d="m 74.773,122.994 c 0.02929,-1.2377 -1.207615,-2.64914 -4.024629,-2.85772 -2.892996,-0.21391 -4.583182,0.90092 -4.608736,2.47731 -0.02578,1.52897 1.805865,2.96973 4.385251,2.90303 2.100621,-0.0542 4.214939,-1.13308 4.248114,-2.52262"
     fill="#ffffff"
     id="path22"
     style="stroke-width:0.677393" />
  <path
     d="M 35.933,66.274 C 30.905498,59.919739 28.48044,52.360784 29.108568,44.604151 29.816417,35.874445 34.307004,27.58088 41.636658,21.117452 l 4.034279,-1.796993 c -9.036977,6.642266 -14.51212,15.6768 -15.297811,25.371415 -0.730319,9.008593 2.744989,17.605161 9.821496,24.432626 z"
     fill="#5a4f2b"
     id="path23"
     style="stroke-width:0.677393" />
  <path
     d="m 34.809,34.91 c 1.763027,-8.643419 9.993373,-14.665312 16.573315,-17.304125 l 3.941366,-0.235584 c -9.767984,3.297735 -14.383428,8.270463 -16.821815,12.221392 z"
     fill="#5a4f2b"
     id="path24"
     style="stroke-width:0.677393" />
  <path
     d="m 104.623,59.804 c -1.3065,-0.618096 -3.29958,-1.499552 -4.53994,-1.988824 l 0.53652,-1.285295 c 1.2499,0.492478 3.11641,1.308591 4.43443,1.927146 z"
     fill="#0f141b"
     id="path25"
     style="stroke-width:0.677393" />
  <path
     d="M 80.753,32.753 C 88.477869,47.873786 80.736362,63.703572 68.632238,69.810031 56.573091,75.894632 38.582883,72.968016 31.067716,58.2572 24.658827,45.71235 29.583789,32.760053 37.17038,25.486169 47.989976,15.110065 71.203344,14.059852 80.753,32.753 M 36.027502,24.316171 C 27.841415,32.165158 22.829938,45.875886 29.526619,58.982339 37.126216,73.857539 55.765261,78.160713 69.400787,71.28255 84.748865,63.539128 89.64778,46.050007 82.435912,31.932342 72.865841,13.198932 48.4194,12.433836 36.027502,24.316171"
     fill="#0f141b"
     id="path26"
     style="stroke-width:0.677393" />
  <path
     d="M 46.249,72.364 C 32.488227,65.541799 27.451243,47.831884 34.609391,34.350629 41.840087,20.729779 56.951675,15.583031 68.960993,19.660076 l 4.210482,3.402971 C 60.97771,15.880395 43.66484,20.669304 36.019398,35.067705 28.320392,49.570784 35.058801,68.073531 51.165191,72.834126 Z"
     fill="#0f141b"
     id="path27"
     style="stroke-width:0.677393" />
  <path
     d="m 36.846,80.964 c 9.873275,3.124461 20.894111,5.742659 31.917313,7.595218 C 77.57713,79.625101 93.455909,63.49139 99.471681,56.947276 96.156837,44.856418 90.955611,24.675343 88.142502,13.387276 74.530608,9.7953444 57.998047,5.496795 44.444753,1.8868103 35.232988,11.092733 22.675649,23.466705 12.798566,33.09993 15.967407,44.532312 20.58116,62.395948 23.783663,75.169847 l -1.090544,1.971322 C 19.531708,64.497248 14.554139,45.35258 11.28739,33.54604 11.037788,32.641565 11.050077,32.539704 11.675587,31.943103 21.840871,22.252225 33.900132,9.9439663 43.302944,0.45256108 43.80017,-0.04945593 43.932677,-0.10008143 44.759459,0.12470096 58.28312,3.8151965 75.070989,8.2857183 88.746147,11.855443 c 0.616894,0.161025 0.72134,0.273538 0.958286,1.225002 2.826241,11.337275 7.934913,31.532307 11.399427,43.655548 0.18431,0.642164 0.15487,0.732834 -0.30914,1.235574 -6.162378,6.672922 -22.057301,22.70599 -30.899073,31.666385 -0.489868,0.497135 -0.745613,0.6226 -1.438903,0.505712 C 57.743202,88.328571 47.061166,85.855012 37.413517,82.838046 Z"
     fill="#0f141b"
     id="path28"
     style="stroke-width:0.677393" />
  <path
     d="m 89.293,12.1 c 1.444185,1.231337 3.335748,2.90132 5.135266,4.647581 0.402415,0.390043 0.477912,0.547822 0.651354,1.15293 3.22689,11.242928 8.06117,29.266326 10.7569,40.901482 0.155,0.668467 0.11487,0.767471 -0.35765,1.250047 -8.054817,8.231994 -19.679168,20.145792 -27.034599,27.924768 -0.338053,0.357387 -0.484764,0.444868 -0.961383,0.534564 -3.144605,0.591698 -5.561278,1.05572 -8.262593,1.622044 l 0.483229,-1.700275 c 2.253735,-0.446015 4.379072,-0.874682 7.580369,-1.584669 C 84.494307,79.281608 96.33404,67.186202 104.22653,59.004723 101.51241,47.25745 96.764059,29.405861 93.524018,18.148278 91.862875,16.51727 90.205682,15.058277 88.789904,13.824366 Z"
     fill="#0f141b"
     id="path29"
     style="stroke-width:0.677393" />
  <path
     d="m 76.833,87.674 c 7.421706,1.043045 11.271095,3.557213 11.894268,7.714782 0.668126,4.45482 -2.218551,7.313998 -9.160513,8.872968 -2.239784,0.50266 -3.521702,1.85228 -4.075728,3.92653 -0.726049,2.71846 0.320019,5.92149 2.834203,8.2314 4.467757,4.1054 5.863489,8.62902 4.052947,12.4264 -1.887392,3.96009 -6.717905,5.57102 -14.023814,3.42142 -2.608148,-0.76812 -6.532202,-0.47731 -10.263305,0.62488 -5.33262,1.5717 -8.355192,1.59806 -13.65976,-0.23326 -2.378127,-0.82128 -4.994049,-1.07231 -7.933502,-0.70132 -9.796269,1.24202 -13.476131,0.23074 -15.457785,-3.46736 -1.072004,-2.00266 -1.887847,-5.56848 2.778287,-11.65127 3.044389,-3.97059 4.351772,-7.36408 0.759897,-16.42524 -6.275713,-15.835363 -3.888429,-27.099097 2.665132,-28.916937 4.090269,-1.133416 8.602924,1.842389 10.826342,11.550873 0.552719,2.413631 -0.414923,2.654949 -1.106973,0.289364 -2.456277,-8.416095 -5.86908,-11.236679 -9.355441,-10.268553 -5.180065,1.435326 -7.523037,11.894684 -1.606785,26.820214 3.712133,9.363749 2.397201,13.392889 -1.033955,17.866789 -3.16143,4.12187 -3.729855,7.61105 -2.452754,9.99532 1.319245,2.46272 4.300177,3.95072 13.833529,2.74217 3.199648,-0.40507 5.921366,-0.14861 8.602953,0.77598 4.7658,1.64577 7.749567,1.64521 12.747963,0.16931 3.774919,-1.11387 7.771031,-1.57001 11.070029,-0.59959 5.54944,1.63289 10.352963,1.02452 12.128261,-2.7024 1.548591,-3.25038 0.509231,-6.84853 -3.571656,-10.59747 -2.826568,-2.59732 -4.184211,-6.36557 -3.282932,-9.73778 0.653358,-2.44403 2.344856,-4.20186 5.246438,-4.85397 6.88124,-1.54562 8.391589,-4.384701 7.946249,-7.350517 -0.550229,-3.671147 -5.029984,-6.057463 -14.299383,-6.821436 z"
     fill="#0f141b"
     id="path30"
     style="stroke-width:0.677393" />
  <path
     d="m 12.327,78.714 c 0.06448,3.387705 -2.4643312,6.183158 -5.6475002,6.243741 -3.183169,0.06058 -5.81583669,-2.636636 -5.88031247,-6.02434 C 0.73472444,75.546373 3.2628542,72.750933 6.4460232,72.69035 9.6291922,72.629767 12.262537,75.326973 12.327,78.714"
     fill="#3e3a39"
     id="path31"
     style="stroke-width:0.677393" />
  <path
     d="m 54.471,34.576 c 1.69744,1.117437 3.880565,1.090793 6.05357,-0.250716 4.125677,-2.548065 8.796739,0.598847 8.39259,5.599827 -0.212806,2.630777 0.182468,3.499959 1.536526,5.050767 2.643034,3.028326 1.568123,6.817802 -2.805797,8.176809 -2.157321,0.67047 -3.592261,1.882755 -4.087501,3.663883 -1.308751,4.709927 -7.060303,4.454212 -9.355909,0.884713 -1.30352,-2.028062 -2.628601,-2.910714 -5.140726,-3.190142 -4.292322,-0.47658 -5.793482,-4.238708 -3.174236,-8.334002 1.37442,-2.149491 1.820024,-3.334816 1.272861,-5.919286 C 46.176758,35.603111 50.208159,31.768206 54.471,34.576"
     fill="#595857"
     id="path32"
     style="stroke-width:0.677393" />
  <path
     d="m 109.723,84.614 c -0.0286,4.158456 -2.8465,6.465503 -6.04555,6.546036 -3.25457,0.08227 -6.136314,-2.423894 -6.216451,-6.634482 -0.07507,-3.94442 2.692231,-6.703762 6.021011,-6.767116 3.24074,-0.06168 6.27042,2.599528 6.24099,6.855562"
     fill="#3e3a39"
     id="path33"
     style="stroke-width:0.677393" />
  <path
     d="m 63.483,45.815 c 0.375442,0.717118 0.509657,1.575008 -0.09427,2.202364 -0.399279,0.415463 -0.663117,0.827671 -0.840353,1.482814 -0.237438,0.873772 -1.036829,1.233841 -1.911296,0.95983 -0.819912,-0.255401 -1.902643,-0.04509 -3.137569,0.712163 -1.146532,0.702724 -2.512932,0.176554 -2.575015,-1.091928 -0.06264,-1.297605 -0.702528,-2.595741 -1.392862,-3.233694 -0.886199,-0.819188 -1.078668,-1.961203 0.359349,-3.973014 0.842742,-1.179333 2.335966,-1.536348 3.544255,-0.774104 1.045088,0.659657 1.721637,0.537701 2.882697,0.135517 1.208159,-0.41934 2.601647,-0.143012 2.693038,1.633049 0.04311,0.841331 0.09239,1.223189 0.472021,1.947003 m 2.401423,-3.685994 c 0.314862,-3.142211 -1.656822,-4.572184 -4.143919,-3.643401 -2.855754,1.066559 -5.088433,0.945771 -6.385009,-0.04108 -2.410292,-1.834909 -5.231201,-0.788661 -5.050628,3.003344 0.141091,2.963476 0.05262,4.366939 -0.925701,5.613217 -1.992321,2.54066 -1.236195,4.855567 2.021744,4.878928 1.872238,0.01383 3.919543,1.109699 5.573103,3.018631 1.508802,1.742987 3.808466,1.467509 4.639741,-0.278686 0.864528,-1.81458 1.49827,-2.548195 3.044641,-2.747005 3.357678,-0.431795 4.599659,-4.057782 2.716862,-5.729964 -1.165385,-1.035422 -1.700878,-1.974429 -1.490834,-4.073981"
     fill="#3e3a39"
     id="path34"
     style="stroke-width:0.677393" />
  <path
     d="M 8.172,79.224 C 9.2301709,81.033829 9.0419731,83.177682 7.3255951,84.162258 5.647409,85.124426 3.5843899,84.520051 2.5009737,82.665308 1.2796109,80.575383 1.7868614,78.392937 3.2804224,77.51965 4.7880643,76.638642 6.984932,77.191689 8.172,79.224"
     fill="#595857"
     id="path35"
     style="stroke-width:0.677393" />
  <path
     d="m 107.373,83.454 c -0.15215,3.254969 -2.09748,4.91803 -4.75233,4.793082 -2.643302,-0.123136 -4.310247,-2.450519 -3.925296,-5.612357 0.381925,-3.14281 2.299046,-4.864277 4.692126,-4.75264 2.73012,0.128259 4.12326,2.628877 3.9855,5.571915"
     fill="#595857"
     id="path36"
     style="stroke-width:0.677393" />
  <path
     d="m 66.123,40.265 c -0.238247,1.863636 -2.377992,3.030391 -4.666521,2.716219 -2.734822,-0.375462 -3.871603,-2.542201 -3.634332,-4.279124 0.247902,-1.819104 2.041372,-3.131709 4.722753,-2.680703 2.76635,0.465649 3.786305,2.616996 3.5781,4.243608"
     fill="#c8c9ca"
     id="path37"
     style="stroke-width:0.677393" />
  <path
     d="m 56.293,50.223 c 0.02912,1.529953 -1.050893,2.666376 -2.521246,2.69436 -1.734488,0.03301 -2.740739,-1.077933 -2.769239,-2.575377 -0.02695,-1.416172 0.933143,-2.552345 2.652731,-2.585072 1.483221,-0.02823 2.60919,0.965259 2.637754,2.466089"
     fill="#c8c9ca"
     id="path38"
     style="stroke-width:0.677393" />
  <path
     d="m 17.091,66.864 c 0.04279,2.248536 -1.819439,3.472341 -3.536995,3.50503 -1.848947,0.03519 -3.244912,-1.545986 -3.282538,-3.522937 -0.03772,-1.981692 1.384549,-3.575176 3.479346,-3.615045 2.030455,-0.03864 3.300756,1.561183 3.340187,3.632952"
     fill="#3e3a39"
     id="path39"
     style="stroke-width:0.677393" />
  <path
     d="M 9.378,77.054 C 9.0488724,77.915966 8.0234227,78.25256 6.990173,77.858941 5.870917,77.431727 5.5498617,76.403949 5.8946369,75.580982 6.1946784,74.86388 7.1808475,74.456895 8.1931663,74.8543 9.3815613,75.318815 9.6438746,76.357197 9.378,77.054"
     fill="#ffffff"
     id="path40"
     style="stroke-width:0.677393" />
  <path
     d="m 103.693,81.664 c -0.13497,0.9538 -1.07121,1.45672 -1.80625,1.352822 -0.72555,-0.102724 -1.42026,-0.721624 -1.26925,-1.793617 0.13967,-0.991153 0.92543,-1.497984 1.8473,-1.367831 0.74931,0.105659 1.37318,0.776043 1.2282,1.808626"
     fill="#ffffff"
     id="path41"
     style="stroke-width:0.677393" />
  <path
     d="m 94.553,119.214 c -0.841081,-0.69132 -1.174258,-0.75408 -2.321951,-0.50392 -1.082229,0.23673 -2.19153,0.51055 -3.338572,0.83049 -0.993372,0.27772 -1.279816,0.14292 -1.705698,-0.59017 -0.665448,-1.14589 -1.253034,-2.04529 -1.901754,-2.95301 -0.509528,-0.71388 -0.846721,-0.95205 -1.940644,-0.72459 -1.847753,0.38273 -3.893295,0.83901 -5.877968,1.3253 1.265587,1.13853 3.511809,3.96438 4.093732,5.24262 0.123528,-0.024 0.236142,-0.0519 0.363811,-0.072 0.777385,-0.12794 1.134897,0.0387 1.76999,0.83557 0.518488,0.65071 1.103245,1.36587 1.729516,2.05518 0.86778,0.95504 1.252456,1.01818 2.494587,0.63953 0.818423,-0.25 1.639588,-0.53393 2.478679,-0.83716 0.863981,-0.31252 1.254294,-0.23797 1.869498,0.29708 1.67544,1.45661 3.772565,3.53258 5.533277,5.37579 1.004337,-0.27116 2.247937,-1.17763 2.938017,-2.04849 0.2168,-0.53395 0.40326,-1.3451 0.46357,-2.1281 -2.077655,-2.47674 -4.346498,-4.85365 -6.64809,-6.74415"
     fill="#e73821"
     id="path42"
     style="stroke-width:0.677393" />
  <path
     d="m 102.693,80.934 c 0.01,0.527593 -0.37918,0.937445 -0.91152,0.947577 -0.56416,0.01074 -0.96497,-0.401694 -0.97521,-0.939446 -0.0101,-0.532335 0.3891,-0.950507 0.95191,-0.961219 0.47951,-0.0091 0.92327,0.346254 0.93482,0.953088"
     fill="#ffffff"
     id="path43"
     style="stroke-width:0.677393" />
  <path
     d="m 64.533,39.926 c -0.288434,1.291414 -1.67777,2.016374 -3.22501,1.671156 -1.552007,-0.346483 -2.304477,-1.792885 -2.019849,-3.070676 0.222224,-0.996789 1.489332,-1.878639 3.172645,-1.50349 1.647263,0.367705 2.321905,1.783068 2.072214,2.90301"
     fill="#ffffff"
     id="path44"
     style="stroke-width:0.677393" />
  <path
     d="m 55.051,50.376 c 0.0211,1.108691 -0.705179,1.643523 -1.505035,1.658746 -0.864197,0.01645 -1.565387,-0.586746 -1.585019,-1.618228 -0.01667,-0.87571 0.548737,-1.675777 1.521974,-1.694299 0.864197,-0.01645 1.546721,0.531545 1.56808,1.653781"
     fill="#ffffff"
     id="path45"
     style="stroke-width:0.677393" />
  <path
     d="m 14.816,66.774 c -0.786421,0.507521 -1.70121,0.357585 -2.199858,-0.31857 -0.422865,-0.574615 -0.298316,-1.612906 0.601119,-2.127321 0.76738,-0.440084 1.843365,-0.257308 2.221104,0.366947 C 15.8238,65.332037 15.583,66.278366 14.816,66.774"
     fill="#595857"
     id="path46"
     style="stroke-width:0.677393" />
  <path
     d="M 8.726,75.974 C 8.7037843,76.479849 8.2338614,76.956956 7.4594909,76.922913 6.6925834,76.889405 6.2937375,76.366502 6.3198375,75.779954 6.3409823,75.289031 6.7647724,74.879876 7.6327092,74.917558 8.34132,74.949466 8.7491449,75.445775 8.726,75.974"
     fill="#ffffff"
     id="path47"
     style="stroke-width:0.677393" />
  <path
     d="m 99.823,129.004 c -2.306154,-2.593 -4.69397,-5.06249 -6.446881,-6.63823 -1.997622,-1.79601 -3.727651,0.64277 -6.011586,-3.13224 -0.604619,-0.97563 -1.431764,-2.32305 -2.080485,-3.23077 -0.509528,-0.71388 -0.84603,-0.95139 -1.939967,-0.7246 -1.84843,0.38274 -3.893972,0.83903 -5.878644,1.32531 1.266264,1.13852 3.511821,3.96506 4.093731,5.24262 0.123541,-0.0234 0.236156,-0.0513 0.363812,-0.072 0.778062,-0.12795 1.134897,0.0387 1.769989,0.83557 0.518489,0.65071 1.103246,1.36587 1.729516,2.05518 0.867781,0.95504 1.253134,1.01817 2.494588,0.63953 0.818423,-0.25 1.639588,-0.53393 2.478678,-0.83716 0.863995,-0.31184 1.254308,-0.23729 1.869499,0.29708 1.675453,1.45729 3.773255,3.53324 5.533276,5.37579 0.646422,-0.17423 1.390787,-0.6132 2.024474,-1.13611"
     fill="#c82f1a"
     id="path48"
     style="stroke-width:0.677393" />
  <path
     d="m 81.223,121.144 c 1.430418,-0.34633 2.12659,-0.11365 2.992118,0.9722 0.449086,0.56395 1.046046,1.27956 1.704844,2.00484 0.608991,0.67135 0.820956,0.773 1.774814,0.48384 0.703919,-0.21462 1.482802,-0.47741 2.476659,-0.83644 1.13117,-0.40636 1.663928,-0.323 2.520941,0.42222 1.443294,1.25574 3.326159,3.1095 5.291275,5.15546 0.791668,-0.30301 1.549645,-0.88113 2.138319,-1.59763 0.17489,-0.45794 0.30826,-0.96184 0.37259,-1.56876 -2.227102,-2.6399 -4.335676,-4.71226 -6.386771,-6.39886 -0.597396,-0.48931 -0.888557,-0.55152 -1.746783,-0.36378 -1.104489,0.24189 -2.219899,0.51516 -3.313017,0.82052 -1.435457,0.40199 -1.830438,0.22454 -2.488204,-0.9093 -0.618499,-1.06412 -1.173408,-1.95533 -1.852753,-2.90583 -0.377263,-0.52805 -0.634038,-0.59905 -1.262985,-0.46784 -1.909829,0.39611 -3.723751,0.81208 -5.481228,1.23916 l -1.188442,-1.14338 c 1.931309,-0.47782 4.270033,-1.01489 6.414038,-1.45949 1.35037,-0.28045 1.815531,-0.18903 2.64662,0.97403 0.698811,0.97655 1.30834,1.88976 1.94297,2.98271 0.219204,0.37523 0.400776,0.4463 0.93517,0.29521 1.112017,-0.30911 2.257633,-0.59717 3.380357,-0.84212 1.466062,-0.32466 1.806882,-0.25187 2.870214,0.61882 2.056591,1.69056 4.304608,4.00552 6.529384,6.62988 0.35902,0.42407 0.41562,0.55036 0.35871,1.01284 -0.0716,0.5786 -0.21451,1.22428 -0.37698,1.72941 -0.0972,0.30403 -0.2421,0.55814 -0.4585,0.79262 -0.72027,0.7793 -1.819644,1.53939 -2.721979,1.90142 -0.624672,0.24902 -0.759822,0.1608 -1.184173,-0.27828 -1.933865,-2.0059 -3.895255,-3.85613 -5.305447,-5.08134 -0.343094,-0.29903 -0.646729,-0.37591 -1.21531,-0.16996 -1.010699,0.36409 -1.792659,0.6432 -2.512742,0.86287 -1.545266,0.47047 -2.077528,0.37762 -3.177157,-0.83385 -0.677497,-0.7466 -1.326612,-1.56827 -1.785412,-2.14423 -0.424788,-0.53325 -0.68102,-0.64694 -1.331897,-0.52886 z"
     fill="#0f141b"
     id="path49"
     style="stroke-width:0.677393" />
  <path
     d="m 54.082,35.146 c 1.910843,1.259042 4.354148,1.268774 6.768902,-0.221647 3.42716,-2.120809 7.748006,0.388452 7.379998,4.938874 -0.222535,2.760368 0.253633,3.892918 1.69358,5.542363 2.245452,2.571796 1.429039,5.882091 -2.466687,7.091751 -2.401816,0.746263 -4.01801,2.188965 -4.550683,4.103599 -1.107823,3.982516 -6.028356,3.996218 -8.143865,0.705138 -1.416588,-2.202064 -3.028772,-3.182911 -5.627794,-3.471526 -3.973219,-0.441324 -4.783218,-3.984896 -2.666673,-7.296223 1.482998,-2.318227 1.929102,-3.726464 1.361874,-6.404049 C 47.020735,36.310215 50.363207,32.694388 54.082,35.146 m -7.593765,5.223859 c 0.500421,2.371265 0.204505,3.305093 -1.158085,5.435389 -3.120567,4.88059 -1.131099,8.846842 3.664331,9.379565 2.309118,0.256869 3.374731,0.926976 4.634216,2.88406 2.68593,4.178609 9.122967,4.176695 10.583938,-1.078819 0.434321,-1.564519 1.567312,-2.551541 3.621591,-3.189562 4.969326,-1.543783 6.13249,-5.857981 3.123762,-9.304827 -1.290318,-1.476816 -1.564022,-2.081371 -1.365448,-4.534368 0.47505,-5.903425 -4.987871,-8.970902 -9.450399,-6.215882 -1.960708,1.211451 -3.715122,1.301075 -5.303484,0.254733 -4.714324,-3.106115 -9.516899,0.862709 -8.350422,6.369711"
     fill="#0f141b"
     id="path50"
     style="stroke-width:0.677393" />
  <path
     d="m 16.313,66.844 c 0.03696,1.941733 -1.250574,2.818552 -2.757499,2.847232 -1.412785,0.02689 -2.51735,-1.123513 -2.550516,-2.866129 -0.03225,-1.694529 1.073859,-2.883617 2.730461,-2.915146 1.512344,-0.02878 2.543331,1.135891 2.577554,2.934043 m 1.522115,0.02184 c -0.0487,-2.558726 -1.627922,-4.370834 -4.091153,-4.323953 -2.740911,0.05217 -4.2906996,2.242936 -4.2511531,4.3208 0.034507,1.813052 1.2485881,4.232388 4.0707721,4.178675 2.362996,-0.04497 4.318879,-1.687909 4.271534,-4.175522"
     fill="#0f141b"
     id="path51"
     style="stroke-width:0.677393" />
  <path
     d="m 11.587,78.694 c 0.06311,3.315914 -2.4210535,5.538017 -4.925598,5.585685 -2.5675305,0.04887 -5.0482841,-2.177661 -5.1088542,-5.360153 -0.056961,-2.992856 2.231043,-5.48291 4.9055822,-5.533813 3.030106,-0.05767 5.077748,2.622228 5.12887,5.308281 m 1.477331,0.05386 c -0.06705,-3.523158 -2.870288,-6.816732 -6.6413269,-6.74496 -3.8834662,0.07391 -6.48851693,3.455511 -6.42163072,6.969865 0.06771117,3.5577 2.81035372,6.729119 6.67485632,6.655568 C 10.296915,85.559423 13.1327,82.3401 13.064331,78.74786"
     fill="#0f141b"
     id="path52"
     style="stroke-width:0.677393" />
  <path
     d="m 8.011,75.324 c 0.9508617,0.372152 1.0574588,1.13165 0.8967459,1.551381 C 8.6812772,77.471162 7.9509835,77.688316 7.1702185,77.389486 6.3649172,77.082993 6.1169393,76.263854 6.3596932,75.776165 6.5658992,75.361666 7.3010965,75.046179 8.011,75.324 m 1.837881,1.910845 -1.29e-5,-6.77e-4 c 0.3659279,-0.957519 -0.025805,-2.281381 -1.4708767,-2.847381 -1.1973026,-0.469766 -2.5193789,-0.0198 -2.9471194,1.000547 -0.4679396,1.115288 0.08455,2.448963 1.3805597,2.943274 1.1444954,0.436218 2.5850601,0.08901 3.0374493,-1.095763"
     fill="#c8c9ca"
     id="path53"
     style="stroke-width:0.677393" />
  <path
     d="m 103.623,90.454 c -3.00352,0.06597 -5.340996,-2.428191 -5.409313,-6.017722 -0.06141,-3.226514 2.090573,-5.957207 5.278483,-6.01788 3.0125,-0.05733 5.51133,2.584842 5.48683,6.210016 -0.0279,4.12592 -2.84958,5.769753 -5.356,5.825586 m 6.83689,-5.798215 c 0.0311,-4.452545 -3.06988,-7.65644 -6.97976,-7.582026 -3.886172,0.07396 -6.892498,3.232168 -6.812799,7.419728 0.08166,4.290505 2.956046,7.442479 6.975409,7.353786 3.48027,-0.07775 6.78508,-2.539735 6.81715,-7.191488"
     fill="#0f141b"
     id="path54"
     style="stroke-width:0.677393" />
  <path
     d="m 101.963,82.474 c -0.53328,-0.07522 -0.83443,-0.555264 -0.73773,-1.170256 0.0967,-0.614315 0.53437,-1.006795 1.14999,-0.91282 0.48788,0.07473 0.91121,0.531445 0.81691,1.20127 -0.0967,0.687486 -0.6272,0.970621 -1.22917,0.881806 m 2.33384,-0.722611 c 0.15888,-1.120924 -0.62289,-2.291697 -1.76213,-2.451589 -1.11685,-0.158285 -2.35175,0.529183 -2.53437,1.826713 -0.165487,1.165765 0.52303,2.242106 1.79544,2.421821 1.18214,0.171948 2.32617,-0.555796 2.50106,-1.796945"
     fill="#c8c9ca"
     id="path55"
     style="stroke-width:0.677393" />
  <path
     d="m 99.123,129.474 c 0.37987,0.45145 0.63813,0.84965 0.98257,1.39731 0.79503,1.26198 -0.0111,1.6608 -0.93327,0.62346 -0.443772,-0.49834 -0.832737,-0.92929 -1.302555,-1.44339 z"
     fill="#0f141b"
     id="path56"
     style="stroke-width:0.677393" />
  <path
     d="m 101.103,126.684 c 0.58601,0.56744 1.10106,1.00209 1.71964,1.42935 1.38538,0.954 0.90682,1.72463 -0.5662,0.97217 -0.5227,-0.26716 -1.02279,-0.55642 -1.52517,-0.96557 z"
     fill="#0f141b"
     id="path57"
     style="stroke-width:0.677393" />
  <path
     d="m 80.903,128.134 c 1.548592,-3.25038 0.508554,-6.84852 -3.572333,-10.59746 -2.825891,-2.59733 -4.18421,-6.36556 -3.282255,-9.73779 l 1.44912,0.38706 c -0.726049,2.71846 0.320019,5.92149 2.833525,8.23141 4.468434,4.10539 5.863489,8.62903 4.053624,12.42639 z"
     fill="#0f141b"
     id="path58"
     style="stroke-width:0.677393" />
</svg>
