<?xml version="1.0" encoding="UTF-8"?>
<!-- Created with Inkscape (http://www.inkscape.org/) -->
<svg version="1.1" viewBox="0 0 126.67 192.42" xmlns="http://www.w3.org/2000/svg">
 <g transform="translate(-8.7022 -15.144)">
  <g transform="matrix(-2.3685 .048336 .048336 2.3685 55.055 176.99)">
   <path d="m0 0c0.698-0.972 1.647-2.023 2.533-2.858 0.431-0.407 0.624-0.41 1.158-0.136 0.56 0.285 1.089 0.557 1.614 0.858 0.604 0.348 0.888 0.295 1.275-0.078 0.485-0.468 1.052-0.998 1.567-1.472 0.59-0.542 0.852-0.511 1.472-0.224 2.392 1.11 5.07 2.806 7.493 4.663 0.492 0.377 0.639 1.654 0.263 2.276-0.535 0.883-1.443 1.513-2.276 0.835-1.171-0.953-3.066-2.392-4.698-3.538-0.772-0.542-1.031-0.541-1.721 0.192-0.298 0.317-0.604 0.628-0.932 0.945-0.466 0.45-0.799 0.487-1.432 0.071-0.702-0.463-1.379-0.888-2.004-1.263-0.561-0.336-0.859-0.343-1.325 0.167-0.399 0.438-0.783 0.915-1.251 1.527" fill="#e73821"/>
  </g>
  <g transform="matrix(-2.3685 .048336 .048336 2.3685 28.777 174.9)">
   <path d="m0 0c1.202 0.717 4.207 2.875 6.156 4.348-0.544 0.763-1.367 1.243-2.13 0.622-1.171-0.953-3.065-2.393-4.697-3.538-0.772-0.542-1.031-0.541-1.722 0.191-0.297 0.317-0.603 0.628-0.931 0.945-0.466 0.451-0.799 0.488-1.432 0.072-0.702-0.463-1.379-0.889-2.004-1.264-0.561-0.336-0.859-0.343-1.325 0.168-0.399 0.437-0.783 0.914-1.251 1.526l-1.736-1.965c0.698-0.971 1.647-2.023 2.533-2.858 0.431-0.406 0.624-0.409 1.158-0.136 0.56 0.285 1.089 0.558 1.613 0.859 2.277 1.523 3.079-0.573 5.768 1.03" fill="#c82f1a"/>
  </g>
  <g transform="matrix(-2.3685 .048336 .048336 2.3685 49.938 181.94)">
   <path d="m0 0c0.416-0.538 0.768-0.959 1.087-1.309 0.282-0.309 0.489-0.306 0.817-0.11 0.636 0.382 1.306 0.82 1.992 1.273 0.859 0.565 1.267 0.533 1.948-0.123 0.331-0.321 0.635-0.653 0.936-0.973 0.49-0.52 0.657-0.514 1.194-0.137 1.499 1.054 3.402 2.502 4.658 3.525 0.895 0.728 2.065 0.442 2.913-0.957 0.447-0.74 0.374-2.244-0.366-2.812-2.542-1.948-5.255-3.64-7.582-4.721-0.905-0.419-1.216-0.364-1.93 0.292-0.517 0.476-1.079 1.003-1.565 1.473-0.28 0.268-0.406 0.254-0.796 0.03-0.521-0.3-1.053-0.58-1.634-0.877-0.705-0.359-1.04-0.339-1.629 0.216-0.802 0.757-1.608 1.643-2.24 2.456l0.572 0.631c0.622-0.814 1.459-1.712 2.234-2.469 0.206-0.202 0.382-0.227 0.718-0.057 0.574 0.293 1.076 0.546 1.585 0.838 0.81 0.465 1.118 0.484 1.746-0.121 0.484-0.466 1.063-1.005 1.575-1.476 0.374-0.343 0.537-0.376 1.033-0.147 2.288 1.063 4.862 2.665 7.37 4.587 0.428 0.328 0.438 1.29 0.174 1.727-0.559 0.924-1.211 1.087-1.652 0.729-1.07-0.871-2.935-2.306-4.707-3.551-0.989-0.694-1.424-0.665-2.272 0.238-0.295 0.313-0.602 0.628-0.926 0.94-0.311 0.301-0.489 0.297-0.911 0.02-0.695-0.458-1.367-0.889-2.011-1.275-0.85-0.509-1.188-0.478-1.858 0.255-0.297 0.326-0.619 0.704-0.987 1.175z" fill="#0f141b"/>
  </g>
  <g transform="matrix(-2.3685 .048336 .048336 2.3685 14.011 184.98)">
   <path d="m0 0c0.613 0.445 0.982 0.728 1.418 1.046 0.798 0.582 1.213 0.183 0.423-0.558-0.443-0.414-0.944-0.83-1.629-1.37z" fill="#0f141b"/>
  </g>
  <g transform="matrix(-2.3685 .048336 .048336 2.3685 17.747 187.55)">
   <path d="m0 0c0.511 0.556 1.006 1.16 1.386 1.691 0.585 0.82 1.128 0.514 0.503-0.358-0.342-0.479-0.774-1.012-1.226-1.52z" fill="#0f141b"/>
  </g>
  <g transform="matrix(-2.3685 .048336 .048336 2.3685 121.18 134.28)">
   <path d="m0 0 13.923 1.505 9.139-1.042c7.694 3.634 9.867 6.571 9.216 8.877-0.47 1.668-2.536 2.822-6.251 2.784-0.033 1.478 0.485 2.73 2.129 4.536 3.004 3.298 4.132 5.897 4.17 7.802 0.049 2.462-1.397 4.379-6.788 4.922-2.927 0.295-4.809-0.068-7.804 0.091-2.588 0.137-4.718 0.771-6.42 0.771-3.108 0-6.343-2.132-9.096-2.132-3.017 0-5.219-2.414-5.149-6.125 0.09-4.809 4.423-8.325 3.584-12.351-0.517-0.161-1.157-0.201-1.769-0.137-1.634 0.173-2.951-0.407-3.063-2.178-0.149-2.38 1.328-5.152 4.179-7.323" fill="#9e9e9f"/>
  </g>
  <g transform="matrix(-2.3685 .048336 .048336 2.3685 121.18 134.28)">
   <path d="m0 0 13.923 1.505 9.139-1.042c3.006 1.42 5.167 2.733 6.648 3.944 0.702 0.626-0.41 1.024-1.949 0.728-1.827-0.352-3.147-0.349-4.877-0.069-1.679 0.273-3.426 0.046-5.285-0.884-2.564-1.282-6.703-1.786-11.093-0.453-2.41 0.73-3.528 0.695-4.923-0.364-1.679-1.274-4.497-0.662-5.429 1.63 0.582-1.734 1.891-3.506 3.846-4.995" fill="#9d977a"/>
  </g>
  <g transform="matrix(-2.3685 .048336 .048336 2.3685 100.86 36.023)">
   <path d="m0 0c4.603 0.114 8.353 7.479 8.099 17.694-0.271 10.854-4.736 17.669-9.222 17.558-4.434-0.11-8.217-7.679-7.962-17.933 0.255-10.25 4.684-17.428 9.085-17.319m-13.724 17.739c1.542 5.218 4.446 17.24 6.034 23.955 3.448 0.318 10.298 1.088 13.882 1.452 2.042-6.216 5.899-19.328 7.941-26.223-1.725-5.626-5.899-19.6-7.577-25.361-4.31 0.771-9.936 1.905-13.928 2.585-1.407 5.853-4.129 15.607-6.352 23.592" fill="#ffe792"/>
  </g>
  <g transform="matrix(-2.3685 .048336 .048336 2.3685 83.588 60.513)">
   <path d="m0 0c-1.219-6.13-4.129-10.103-7.499-10.187-0.939-0.023-1.88 0.289-2.78 0.888 0.586-2.261 1.713-3.181 3.265-3.532 1.353-0.306 1.754-0.914 1.773-1.676 0.045-1.844 0.864-2.454 1.903-2.488 0.87-0.028 1.388-0.489 1.362-1.442 0.351-0.065 0.697-0.127 1.033-0.188 1.177 4.04 3.581 12.116 5.506 18.522-1.866-1.147-3.541-1.063-4.563 0.103" fill="#fff4cc"/>
  </g>
  <g transform="matrix(-2.3685 .048336 .048336 2.3685 88.276 138.51)">
   <path d="m0 0c-3.584-0.362-10.435-1.134-13.883-1.451-0.556-2.358-1.276-5.368-2.042-8.509 1.211-1.019 2.405-0.663 3.517 0.047 0.63 0.402 1.383 0.706 2.243 0.868 0.892 0.723 1.854 1.126 2.85 1.151 1.166 0.029 2.33-0.414 3.419-1.27 3.405-1.189 5.424-0.429 6.373 1.255-0.936 3.071-1.805 5.864-2.477 7.909" fill="#dbc77f"/>
  </g>
  <g transform="matrix(-2.3685 .048336 .048336 2.3685 66.581 136.49)">
   <path d="m0 0c1.774 0.838 3.252 1.639 4.472 2.403-1.62 0.911-4.785 1.53-6.849 1.243-1.506-0.21-3.524-1.366-5.364-2.763z" fill="#c8be89"/>
  </g>
  <g transform="matrix(-2.3685 .048336 .048336 2.3685 108.74 141.51)">
   <path d="m0 0c-1.644 0.349-2.21-0.205-1.572-1.062 0.384-0.516 0.712-0.891 1.158-1.354l8.362 0.904c-3.077 0.509-4.998 0.885-7.948 1.512" fill="#c8be89"/>
  </g>
  <g transform="matrix(-2.3685 .048336 .048336 2.3685 114.58 139.35)">
   <path d="m0 0c-0.21-0.08-0.137-0.729 0.275-1.748l0.785 0.085c-0.367 0.933-0.839 1.747-1.06 1.663" fill="#c8be89"/>
  </g>
  <g transform="matrix(-2.3685 .048336 .048336 2.3685 62.162 194.24)">
   <path d="m0 0c-3.151 0.184-5.875 0.501-7.984 1.84-2.83 1.795-6.175 1.901-8.689-0.204-1.225-1.028-2.282-1.582-3.629-1.792-3.763-0.589-5.138-3.463-4.106-7.759 0.567-2.358 0.885-3.879 1.111-5.512 0.285-2.051-0.624-3.177-1.973-3.29-2.722-0.226-3.182-1.252-2.518-2.699 0.885-1.928 2.45-2.162 3.675-1.293 0.703 0.499 1.753 1.036 3.47 0.703 6.33-1.224 8.915-1.02 12.908 0.319 2.419 0.81 4.046 0.837 6.329 0.521 3.82-0.529 6.743 1.662 6.375 3.606-0.25 1.316-2.031 2.01-4.832 1.906-1.385-0.051-2.235 0.803-1.475 2.563 0.93 2.155 1.86 4.107 3.192 5.841" fill="#dbdcdc"/>
  </g>
  <g transform="matrix(-2.3685 .048336 .048336 2.3685 62.69 194.28)">
   <path d="m0 0c-1.276 0.068-2.452-0.276-3.333-0.634-1.174-0.476-1.837-0.332-3.045 0.511-3.488 2.433-6.003 2.776-9 1.004-1.208-0.715-2.063-1.139-3.658-1.6-4.356-1.259-4.407-6.762-0.323-7.026 1.054-0.068 2.177-0.834 2.824-1.531 2.049-2.211 4.501-2.27 7.384-0.919 1.402 0.657 2.809 0.914 3.93 0.68 2.533-0.527 4.89 0.93 7.502 4.526 0.585 0.805 0.885 1.637 0.885 2.447 0 1.585-1.332 2.442-3.166 2.542" fill="#eeeeef"/>
  </g>
  <g transform="matrix(-2.3685 .048336 .048336 2.3685 72.489 153.65)">
   <path d="M 0,0 C -0.206,1.185 1.293,2.327 3.798,2.762 6.346,3.204 8.096,2.444 8.283,1.363 8.452,0.39 7.347,-0.846 4.566,-1.328 1.99,-1.774 0.202,-1.17 0,0" fill="#eeeeef"/>
  </g>
  <g transform="matrix(-2.3685 .048336 .048336 2.3685 124.59 148.05)">
   <path d="m0 0c0.083 0.586 0.528 0.863 1.013 0.815 0.481-0.046 0.849-0.486 0.762-1.096-0.075-0.53-0.487-0.874-1.028-0.8-0.481 0.065-0.829 0.504-0.747 1.081" fill="#eeeeef"/>
  </g>
  <g transform="matrix(-2.3685 .048336 .048336 2.3685 83.228 201.94)">
   <path d="m0 0c2.087-0.648 3.819-1.785 6.919-1.86 4.041-0.099 5.803-2.421 4.124-7.199-0.311-0.883-0.194-1.016 0.51-0.184 2.633 3.108 2.963 5.094 1.944 6.299-2.41 2.853-5.087 3.23-13.497 2.944" fill="#595857"/>
  </g>
  <g transform="matrix(-2.3685 .048336 .048336 2.3685 126.21 191.32)">
   <path d="m0 0c-0.763-1.075-0.017-4.103 1.231-6.055 0.433-0.676 0.597-0.576 0.465 0.102-0.756 3.89 0.284 6.001 4.013 7.048 1.249 0.35 3.131 1.838 4.434 2.369-3.708 0.035-8.218-0.753-10.143-3.464" fill="#595857"/>
  </g>
  <g transform="matrix(-2.3685 .048336 .048336 2.3685 84.922 16.354)">
   <path d="M 0,0 C 4.038,0.454 8.529,1.089 12.612,1.814 14.473,7.758 18.103,19.372 20.461,25.86 17.222,25.604 11.33,25.394 7.577,25.361 5.853,19.735 1.679,5.762 0,0" fill="#fff4cc"/>
  </g>
  <g transform="matrix(-2.3685 .048336 .048336 2.3685 88.276 138.51)">
   <path d="m0 0c2.042-6.216 5.898-19.327 7.94-26.223 3.753 0.033 9.645 0.243 12.884 0.499-1.859 5.445-6.079 17.694-8.257 24.499-3.754 0.239-8.687 0.817-12.567 1.225" fill="#877b4c"/>
  </g>
  <g transform="matrix(-2.3685 .048336 .048336 2.3685 123.21 76.606)">
   <path d="m0 0c0.255-10.25 4.684-17.429 9.085-17.319 2.322 0.057 4.426 1.962 5.909 5.145-3.555 6.272-4.053 18.092-0.681 25.144-1.731 3.231-4.038 5.019-6.351 4.963-4.434-0.111-8.217-7.679-7.962-17.933" fill="#877b4c"/>
  </g>
  <g transform="matrix(-2.3685 .048336 .048336 2.3685 74.136 187.4)">
   <path d="m0 0c0.34 0.55 0.799 0.661 1.013 0.511 0.204-0.146 0.324-0.633-0.026-1.2-0.317-0.513-0.726-0.698-1.021-0.519-0.212 0.129-0.328 0.62 0.034 1.208" fill="#fff"/>
  </g>
  <g transform="matrix(-2.3685 .048336 .048336 2.3685 69.385 184.8)">
   <path d="M 0,0 C -0.459,0.838 0.077,2.178 1.54,2.977 3.144,3.854 4.438,3.456 4.84,2.722 5.202,2.06 4.944,0.787 3.317,-0.103 1.803,-0.931 0.456,-0.834 0,0" fill="#fff"/>
  </g>
  <g transform="matrix(-2.3685 .048336 .048336 2.3685 63.501 156.88)">
   <path d="m0 0c0.018 0.743 0.718 1.328 1.876 1.275 1.117-0.051 1.597-0.722 1.566-1.375-0.029-0.642-0.601-1.259-1.776-1.206-1.074 0.05-1.682 0.669-1.666 1.306" fill="#fff"/>
  </g>
  <g transform="matrix(-2.3685 .048336 .048336 2.3685 67.941 153.27)">
   <path d="M 0,0 C -0.151,0.163 -0.14,0.547 0.163,0.821 0.473,1.101 0.847,1.093 1.025,0.896 1.158,0.751 1.171,0.341 0.874,0.069 0.63,-0.153 0.191,-0.206 0,0" fill="#fff"/>
  </g>
  <g transform="matrix(-2.3685 .048336 .048336 2.3685 62.113 205.11)">
   <path d="m0 0c-2.927 0.295-4.81-0.067-7.804 0.091-2.588 0.138-4.718 0.771-6.42 0.771-3.108 0-6.343-2.132-9.096-2.132-3.017 0-5.219-2.414-5.149-6.125 0.024-1.258 0.341-2.427 0.777-3.542-1.472 4.582 0.916 7.046 3.668 7.331 2.42 0.249 3.97 0.543 5.695 1.27 4.066 1.712 6.194 2.231 9.391 1.18 2.449-0.806 6.238-0.863 8.597-0.907 4.749-0.092 7.552-3.991 5.229-7.804 1.326 1.98 1.874 3.629 1.9 4.945 0.049 2.462-1.397 4.379-6.788 4.922" fill="#eeeeef"/>
  </g>
  <g transform="matrix(-2.3685 .048336 .048336 2.3685 89.232 44.401)">
   <path d="m0 0c-7.7 6.229-9.811 22.356-4.024 31.384l0.625-0.326c-5.549-9.019-3.485-24.195 3.796-30.466z" fill="#5a4f2b"/>
  </g>
  <g transform="matrix(-2.3685 .048336 .048336 2.3685 120.77 100.82)">
   <path d="m0 0c-0.593-12.067 2.9-21.822 9.699-27.076l-0.762-0.297c-6.332 4.938-9.734 13.649-9.695 24.404z" fill="#5a4f2b"/>
  </g>
  <g transform="matrix(-2.3685 .048336 .048336 2.3685 132.98 77.346)">
   <path d="m0 0c2.112-7.587 4.826-17.419 6.207-23.133 3.795-0.661 9.083-1.652 13.154-2.393 1.721 5.894 5.758 19.181 7.466 24.759-2.145 7.254-5.904 19.979-7.764 25.669-3.421-0.362-9.929-1.084-13.153-1.393-1.038-4.388-4.221-17.769-5.91-23.509m-0.898 0.643c1.713 5.924 4.894 18.98 5.92 23.303 0.101 0.425 0.187 0.474 0.7 0.523 3.346 0.318 9.564 1.075 13.226 1.45 0.734 0.075 0.847-0.047 1.033-0.621 1.866-5.749 5.566-18.274 7.708-25.521 0.14-0.472 0.143-0.641 0.039-0.984-1.737-5.688-5.671-19.02-7.386-24.897-0.158-0.542-0.312-0.631-0.911-0.519-4.078 0.767-9.448 1.833-13.29 2.507-0.656 0.115-0.725 0.22-0.875 0.833-1.384 5.66-4.121 15.413-6.181 22.807-0.131 0.471-0.128 0.618 0.017 1.119" fill="#0f141b"/>
  </g>
  <g transform="matrix(-2.3685 .048336 .048336 2.3685 88.208 139.7)">
   <path d="m0 0c3.246-0.358 9.066-0.972 12.19-1.195 0.586-0.041 0.739-0.159 0.876-0.588 1.893-5.88 6.063-18.024 8.111-24.003 0.114-0.331 0.122-0.471-7e-3 -0.827-2.272-6.295-5.794-17.439-7.694-23.504-0.163-0.521-0.234-0.582-0.807-0.683-3.821-0.672-8.2-1.338-12.265-1.795l0.049 1.044c4.095 0.464 8.295 1.062 12.11 1.736 1.889 6.034 5.371 17.192 7.691 23.59-2.023 5.907-6.205 18.174-8.089 24.044-2.943 0.195-8.826 0.833-12.058 1.183z" fill="#0f141b"/>
  </g>
  <g transform="matrix(-2.3685 .048336 .048336 2.3685 37.92 77.553)">
   <path d="m0 0c-3.725-0.266-8.264-0.487-12.823-0.487l0.017 0.85c4.555 0 9.025 0.267 12.786 0.494z" fill="#0f141b"/>
  </g>
  <g transform="matrix(-2.3685 .048336 .048336 2.3685 121.96 76.694)">
   <path d="m0 0c0.257-10.349 4.788-16.943 8.545-16.844 4.002 0.099 7.814 6.748 7.554 17.191-0.27 10.808-4.653 17.155-8.662 17.059-3.946-0.098-7.689-7.279-7.437-17.406m-1.046-0.035c-0.265 10.622 3.628 18.326 8.463 18.447 4.936 0.104 9.543-6.853 9.821-18.048 0.277-11.052-4.006-18.085-8.671-18.201-4.883-0.12-9.354 7.401-9.613 17.802" fill="#0f141b"/>
  </g>
  <g transform="matrix(-2.3685 .048336 .048336 2.3685 89.19 106.64)">
   <path d="m0 0c-3.037-6.608-2.691-17.884 0.657-24.021l-0.527-1.081c-4.004 6.629-4.274 19.063-0.732 26.236z" fill="#0f141b"/>
  </g>
  <g transform="matrix(-2.3685 .048336 .048336 2.3685 68.67 136.83)">
   <path d="m0 0c7.123 3.309 10.321 6.217 9.651 8.592-0.461 1.635-2.825 2.667-6.397 2.548-1.594-0.053-1.619 0.588-0.029 0.688 3.714 0.236 6.668-0.662 7.323-2.985 0.791-2.807-1.958-5.787-8.71-9.061z" fill="#0f141b"/>
  </g>
  <g transform="matrix(-2.3685 .048336 .048336 2.3685 121.41 133.13)">
   <path d="m0 0c-3.002 2.16-4.692 5.216-4.527 7.834 0.123 1.982 1.61 2.766 3.549 2.558 0.518-0.054 0.891-0.045 1.363 0.079 0.776 3.331-3.698 7.15-3.698 11.995 0 4.511 2.618 6.596 5.644 6.596 3.182 0 5.143 2.127 9.091 2.127 1.809 0 3.823-0.606 6.423-0.77 2.946-0.185 4.655 0.194 7.844-0.09 5.224-0.466 7.313-2.343 7.252-5.392-0.046-2.383-1.565-5.087-4.321-8.114-1.712-1.879-2.097-2.945-2.054-4.243l-0.854 2e-3c-0.067 1.659 0.588 3.058 2.214 4.843 3.328 3.654 3.981 6.075 4.011 7.525 0.048 2.457-1.697 4-6.331 4.451-2.963 0.288-4.823-4e-3 -7.787 0.111-2.567 0.098-4.658 0.753-6.401 0.753-3.408 0-5.625-2.126-9.091-2.126-2.678 0-4.635-2.01-4.635-5.67 0-4.596 4.31-8.152 3.555-12.215-0.082-0.439-0.168-0.531-0.627-0.614-0.567-0.103-1.128-0.125-1.682-0.066-1.702 0.178-2.457-0.498-2.539-1.816-0.152-2.415 1.418-4.946 4.167-7.069z" fill="#0f141b"/>
  </g>
  <g transform="matrix(-2.3685 .048336 .048336 2.3685 108.75 75.1)">
   <path d="m0 0c1.379-0.782 3.447 0.219 4.378 1.905 0.257 0.466 0.639 1.088 1.009 1.574 1.32 0.303 2.764-0.213 3.686-1.641 0.699-1.083 1.306-1.595 2.065-1.597 0 2.096-0.364 5.611-0.817 7.925-4.003 3.122-9.182 1.219-11.092-4.287-0.481-1.384-0.252-3.298 0.771-3.879" fill="#595857"/>
  </g>
  <g transform="matrix(-2.3685 .048336 .048336 2.3685 83.005 84.324)">
   <path d="m0 0c-0.15 1.57-0.373 3.216-0.623 4.495-3.964 3.092-9.077 1.25-11.031-4.133-0.367-2.958 0.914-3.025 1.549-1.515 1.848 4.393 6.782 5.322 10.105 1.153" fill="#3e3a39"/>
  </g>
  <g transform="matrix(-2.3685 .048336 .048336 2.3685 106.54 84.216)">
   <path d="m0 0c0.733 0.9 1.56 0.996 1.967 0.664 0.419-0.341 0.414-1.284-0.23-2.075-0.635-0.78-1.56-1.017-1.993-0.664-0.422 0.343-0.467 1.186 0.256 2.075" fill="#c8c9ca"/>
  </g>
  <g transform="matrix(-2.3685 .048336 .048336 2.3685 105.97 83.453)">
   <path d="m0 0c0.376 0.568 0.907 0.67 1.171 0.496 0.205-0.136 0.293-0.682-0.087-1.259-0.306-0.463-0.833-0.683-1.105-0.511-0.295 0.185-0.312 0.772 0.021 1.274" fill="#fff"/>
  </g>
  <g transform="matrix(-2.3685 .048336 .048336 2.3685 82.266 75.085)">
   <path d="m0 0c-1.052 4e-3 -1.871 0.933-2.46 1.845-1.012 1.567-2.63 2.009-4.158 1.21-1.087-0.569-1.352-0.127-0.317 0.53 1.512 0.959 3.874 0.788 5.19-1.25 0.721-1.116 1.135-1.387 1.686-1.388z" fill="#0f141b"/>
  </g>
  <g transform="matrix(-2.3685 .048336 .048336 2.3685 94.789 83.827)">
   <path d="m0 0c-0.384-0.453-0.843-1.265-1.174-1.864-0.973-1.767-3.331-3.071-5.014-2.115-1.26 0.715-1.558 2.75-0.967 4.45 1.029 2.967 3.014 5.14 5.706 5.844 1.609 0.422 3.648 0.369 5.761-1.139l0.077-1.134c-1.7 1.427-3.689 1.952-5.633 1.445-2.272-0.594-4.02-2.376-5.039-5.311-0.487-1.404-0.187-2.931 0.565-3.358 0.939-0.534 2.782-0.015 3.722 1.689 0.213 0.385 0.503 0.844 0.798 1.267z" fill="#0f141b"/>
  </g>
  <g transform="matrix(-2.3685 .048336 .048336 2.3685 121.96 76.694)">
   <path d="m0 0c0.257-10.349 4.788-16.943 8.545-16.844 4.002 0.099 7.814 6.748 7.554 17.191-0.27 10.808-4.653 17.155-8.662 17.059-3.946-0.098-7.689-7.279-7.437-17.406m-1.046-0.035c-0.265 10.622 3.628 18.326 8.463 18.447 4.936 0.104 9.543-6.853 9.821-18.048 0.277-11.052-4.006-18.085-8.671-18.201-4.883-0.12-9.354 7.401-9.613 17.802" fill="#0f141b"/>
  </g>
 </g>
</svg>
