<?xml version="1.0" encoding="UTF-8"?>
<!-- Created with Inkscape (http://www.inkscape.org/) -->
<svg version="1.1" viewBox="0 0 75.029 81.81" xmlns="http://www.w3.org/2000/svg">
 <g transform="translate(-.82093 -1.2524)">
  <g transform="matrix(.30268 0 0 -.30268 17.901 71.792)">
   <path d="m0 0c-1.35 0.586-2.681 1.234-3.986 1.883-2.417 1.201-3.071 1.257-5.226-0.445-1.492-1.178-3.02-2.302-4.654-3.304-2.043-1.253-3.154-1.454-5.635-0.15-1.714 0.901-3.503 1.975-5.402 3.242-2.61 1.741-3.25 1.59-5.248-0.262-3.532-3.275-7.38-7.254-10.583-11.134-1.651-1.999-4.365-2.348-6.632-0.534-2.668 2.135-3.588 6.364-2.516 8.081 4.308 6.893 11.103 15.72 17.017 19.931 2.497 1.777 3.106 1.78 5.373-0.038 2.541-2.038 5.066-3.992 7.723-5.881 2.197-1.562 3.055-1.36 5.38 0.232 1.748 1.196 3.565 2.425 5.278 3.536 2.384 1.547 3.137 1.62 5.713 0.348 2.52-1.245 5.173-2.697 7.702-4.135-1.344-2.957-2.84-7.222-4.304-11.37" fill="#e73821"/>
  </g>
  <g transform="matrix(.30268 0 0 -.30268 3.5645 75.032)">
   <path d="m0 0c-0.267 0.214-0.503 0.461-0.734 0.712 4.39 5.952 8.344 10.632 13.717 15.767 8.575 8.192 13.046-5.665 21.475 2.134 1.747 1.197 3.471 2.854 5.184 3.964 2.384 1.548 7.623-1.066 10.671-3.201-1.343-2.957-1.483-4.523-2.947-8.672-1.349 0.586-2.68 1.234-3.986 1.883-2.417 1.201-3.07 1.257-5.226-0.444-1.492-1.179-3.02-2.303-4.654-3.305-2.043-1.253-3.153-1.453-5.635-0.15-1.714 0.901-3.503 1.975-5.402 3.242-2.61 1.741-3.251 1.591-5.248-0.261-3.531-3.275-7.38-7.255-10.583-11.135-1.651-1.999-4.364-2.347-6.632-0.534" fill="#c82f1a"/>
  </g>
  <g transform="matrix(.30268 0 0 -.30268 18.075 71.381)">
   <path d="m0 0c-1.565 0.697-2.744 1.233-3.933 1.825-3.371 1.675-3.988 1.56-6.698-0.577-1.699-1.345-3.13-2.345-4.537-3.208-1.802-1.106-2.342-1.121-4.242-0.12-1.68 0.882-3.422 1.891-5.316 3.154-3.183 2.121-4.345 2.06-6.939-0.349-3.866-3.584-7.692-7.628-10.712-11.288-1.315-1.596-2.672-1.956-4.712-0.323-2.217 1.774-3.037 4.708-2.12 6.174 4.009 6.416 10.621 15.194 16.563 19.424 1.555 1.107 2.349 1.11 3.719 0.014 2.925-2.346 5.438-4.216 7.813-5.907 2.73-1.934 3.866-1.869 6.912 0.215 1.74 1.19 3.569 2.449 5.275 3.557 1.81 1.174 2.398 1.216 4.323 0.268 2.223-1.099 4.758-2.464 7.786-4.187l1.234 2.59c-3 1.706-5.546 3.062-7.771 4.161-3.295 1.628-3.976 1.601-7.061-0.402-1.721-1.116-3.562-2.33-5.316-3.531-1.853-1.267-2.417-1.267-3.866-0.241-2.342 1.667-4.691 3.478-7.584 5.799-2.678 2.141-3.997 2.274-7.06 0.094-6.19-4.407-13.287-13.706-17.397-20.283-1.427-2.283-0.713-7.267 2.805-10.081 2.684-2.148 6.517-1.81 8.645 0.765 2.962 3.592 6.695 7.496 10.497 11.02 1.244 1.157 1.761 1.208 3.49 0.054 1.953-1.302 3.773-2.398 5.516-3.315 3.055-1.605 4.357-1.441 7.035 0.201 1.477 0.908 3.013 1.999 4.778 3.396 1.382 1.087 1.99 1.134 3.705 0.283 1.237-0.617 2.636-1.281 4.081-1.907z" fill="#0f141b"/>
  </g>
  <g transform="matrix(.30268 0 0 -.30268 3.9242 75.249)">
   <path d="m0 0c-1.048-1.88-1.665-3.2-2.482-5.065-1.406-3.206 0.212-3.864 2.023-1.077 1.276 1.966 2.252 3.516 3.544 5.769z" fill="#0f141b"/>
  </g>
  <g transform="matrix(.30268 0 0 -.30268 2.686 73.305)">
   <path d="m0 0c-1.979-2.219-3.356-4.013-4.834-6-2.578-3.467-1.08-4.49 1.743-1.541 1.399 1.462 2.361 2.524 3.963 4.298z" fill="#0f141b"/>
  </g>
  <g transform="matrix(.30268 0 0 -.30268 27.282 54.653)">
   <path d="m0 0c5.392 7.16 8.247 9.154 13.76 9.725 25.921 2.681 57.454-3.836 68.699-13.553 18.665-16.131 20.713-27.312 18.105-33.212-1.804-4.084-5.825-7.656-16.553-7.863-7.047-0.135-9.421-9.608-3.311-16.865 7.938-9.425 10.242-13.749 10.242-18.105 0-5.46-4.134-9.312-14.277-9.312-9.424 0-15.751 2.277-24.831 2.277-6.09 0-12.95-5.38-22.037-5.38-7.912 0-13.325 2.586-22.658 2.586-9.29 0-13.41-2.483-24.624-2.483-10.382 0-17.072 6.169-17.072 17.899 0 18.622 18.53 53 34.557 74.286" fill="#9e9e9f"/>
  </g>
  <g transform="matrix(.30268 0 0 -.30268 20.067 80.353)">
   <path d="m0 0 19.944-0.994c3.889 0.674 8.062 1.191 13.657 1.269 5.488 0.077 8.919-0.762 12.959-1.448 7.506-1.275 11.501-1.283 15.169 1.22 8.681 5.921 16.835 6.5 27.672 2.272 15.361-5.993 21.924 3.627 17.767 9.789-3.588 5.319-6.276 15.172-6.133 20.032l0.017-1e-3c-0.02-2.867 1.049-6.106 3.485-8.999 7.938-9.426 10.242-13.749 10.242-18.106 0-5.46-4.134-9.311-14.277-9.311-9.424 0-15.751 2.276-24.831 2.276-6.09 0-12.95-5.38-22.037-5.38-7.912 0-13.325 2.586-22.658 2.586-9.29 0-13.41-2.482-24.624-2.482-10.382 0-17.072 6.169-17.072 17.898 0 5.836 1.821 13.219 4.813 21.262-3.904-10.892-1.327-25.519 5.907-31.883" fill="#dbdcdc"/>
  </g>
  <g transform="matrix(.30268 0 0 -.30268 24.902 65.676)">
   <path d="m0 0c-16.489-14.026-23.961-32.523-19.115-43.947 3.724-8.778 14.369-10.086 21.878-7.165 5.489 2.133 8.582 2.621 14.865 2.896-7.439 0.463-25.466-2.548-31.812 9.115z" fill="#595857"/>
  </g>
  <g transform="matrix(.30268 0 0 -.30268 49.867 67.973)">
   <path d="m0 0c-3.813-6.566-0.397-15.975 5.128-23.475 6.917-9.387 6.574-12.322 4.497-15.322-2.655-3.835-9.293-4.846-24.241 0.076-6.25 2.059-15.055 2.135-22.107-2.133 6.023 6.708 17.374 7.92 27.858 4.704l-0.834 28.074z" fill="#595857"/>
  </g>
  <g transform="matrix(.30268 0 0 -.30268 42.373 57.673)">
   <path d="m0 0c5.804-6.932 8.507-17.905 6.893-23.197-1.472 3.828-4.848 6.647-12.012 8.856-6.005 1.852-10.622 3.649-13.86 7.706-11.25 14.101-30.542 18.377-44.851-4.364 4.53 7.617 9.354 14.84 13.973 20.974 5.391 7.161 8.247 9.154 13.759 9.724 25.921 2.682 57.454-3.836 68.7-13.553 18.665-16.13 20.712-27.311 18.105-33.211 4.866 13.473-27.456 29.47-50.707 27.065" fill="#9d977a"/>
  </g>
  <g transform="matrix(.30268 0 0 -.30268 40.944 26.67)">
   <path d="m0 0c-5.007-32.373 12.887-59.699 36.476-63.348 23.576-3.645 48.896 16.583 53.971 49.398 5.09 32.91-13.162 59.785-36.933 63.462-23.798 3.679-48.546-17.39-53.514-49.512m-29.128 15.719c17.066 18.324 47.28 51.757 60.29 66.444 21.262-7.974 49.798-18.744 67.423-24.899 4.196-22.66 10.072-55.114 15.107-80.292-12.729-17.206-38.467-53.016-50.217-70.782-24.9 4.756-53.436 10.912-75.956 15.667-5.176 28.537-12.17 67.704-16.647 93.862" fill="#ffe792"/>
  </g>
  <g transform="matrix(.30268 0 0 -.30268 50.069 12.921)">
   <path d="m0 0c7.381 3.773 15.423 5.313 23.363 4.086 23.772-3.677 42.024-30.552 36.934-63.462-5.075-32.814-30.396-53.043-53.972-49.397-3.825 0.591-7.496 1.815-10.948 3.572 39.186 22.168 41.3 86.479 4.623 105.2" fill="#877b4c"/>
  </g>
  <g transform="matrix(.30268 0 0 -.30268 70.699 9.2179)">
   <path d="m0 0c-10.472 3.797-22.709 8.218-34.517 12.535-10.487 2.236-14.438-2.966-14.427-8.322 5e-3 -2.378-1.029-3.415-4.988-3.259-3.689 0.145-11.137-4.63-12.205-12.253 10.672 6.251 25.867 3.708 33.846-1.22 11.526-7.117 21.192-18.447 24.089-36.285 7.929-2.134 13.874-5.488 20.888-18.753-3.66 23.785-9.454 52.142-12.686 67.557" fill="#fff4cc"/>
  </g>
  <g transform="matrix(.30268 0 0 -.30268 60.198 55.048)">
   <path d="m0 0c2.438 3.609 5.022 7.437 7.684 11.385-0.217 8.017-3.967 10.832-10.873 11.017-11.94 0.32-12.246 7.181-13.922 7.79-6.48-1.691-16.117 0.053-21.345 3.964-4.034 3.02-6.594 4.282-11.129 8.386-6.537 0.859-15.727 3.051-17.417 8.212-3.291 10.053-9.917 13.407-17.856 11.606 3.579-17.164 7.1-34.815 9.03-46.085 24.704-5.682 53.3-11.55 75.828-16.275" fill="#dbc77f"/>
  </g>
  <g transform="matrix(.30268 0 0 -.30268 42.985 78.118)">
   <path d="m0 0c6.632-0.572 11.425-1.67 16.695-3.6 9.795-3.585 15.527 2.465 10.405 9.451-8.223 11.212-9.95 18.173-4.366 27.667 0.929 1.579 1.622 2.449 4.413 2.322 7.201-0.325 14.168 2.138 15.237 7.758 2.041 10.735-12.01 19.708-19.604 11.149-2.926-3.298-6.364-3.831-9.801-1.719-3.856 2.369-6.783 3.995-9.895 5.621 7.906-20.142-5.168-27.089-28.335-19.872-2.256 0.703-4.665 1.954-6.039 3.386-1.448 1.509-0.856 2.031 0.95 1.269 5.101-2.15 10.229-3.14 16.156-2.891 7.18 0.302 8.385 4.699 3.493 9.885-5.717 6.06-11.435 10.749-20.525 16.066-4.156 2.431-9.499 2.164-14.064-2.401-3.317-3.317-6.895-7.655-8.748-14.008-1.201-4.114-2.535-6.157-5.717-8.976-12.007-10.634-19.747-30.305-13.664-40.021 4.064-6.493 11.628-7.156 18.866-5.146l23.327 12.979z" fill="#dbdcdc"/>
  </g>
  <g transform="matrix(.30268 0 0 -.30268 50.309 75.07)">
   <path d="m0 0c3e-3 -2e-3 5e-3 -4e-3 8e-3 -6e-3 0.854-1.342 1.816-2.739 2.896-4.213 5.122-6.984-0.609-13.035-10.404-9.45-2.025 0.741-3.98 1.357-5.995 1.87-2e-3 2e-3 -4e-3 3e-3 -6e-3 5e-3 15.609-3.764 17.688 5.987 13.501 11.794" fill="#fff"/>
  </g>
  <g transform="matrix(.30268 0 0 -.30268 26.476 79.347)">
   <path d="m0 0c-12.127-3.117-20.268 12.711-11.587 24.241 10.63 14.12 35.588 14.251 44.977 3.659 2.972-3.353 8.689-5.64 13.797-5.259 8.63 0.643 16.657-2.894 19.209-8.386 2.611-5.615-4.909-10.787-11.853-10.195-7.943 0.676-11.463 0.349-19.867-3.653-4.233-2.016-10.932-2.414-15.577-1.158-7.236 1.955-14.037 2.053-19.099 0.751" fill="#eeeeef"/>
  </g>
  <g transform="matrix(.30268 0 0 -.30268 23.924 76.344)">
   <path d="M 0,0 C -0.099,-2.725 3.51,-5.674 10.263,-5.918 17.521,-6.18 20.999,-3.234 21.097,-0.543 21.186,1.913 18.383,4.9 10.806,5.174 3.952,5.422 0.107,2.981 0,0" fill="#fff"/>
  </g>
  <g transform="matrix(.30268 0 0 -.30268 32.343 76.794)">
   <path d="m0 0c-0.286-1.001 0.466-2.264 2.059-2.745 1.866-0.564 3.034 0.038 3.344 1.029 0.314 1.006-0.246 2.3-2.002 2.83-1.864 0.565-3.114-0.111-3.401-1.114" fill="#fff"/>
  </g>
  <g transform="matrix(.30268 0 0 -.30268 31.068 59.296)">
   <path d="m0 0c-2.058-4.324 2.046-11.921 15.018-18.447 12.593-6.336 21.917-4.852 24.012-0.687 1.97 3.915-1.167 9.651-14.865 16.542-14.919 7.506-22.458 6.18-24.165 2.592" fill="#eeeeef"/>
  </g>
  <g transform="matrix(.30268 0 0 -.30268 36.981 62.024)">
   <path d="m0 0c-1.104-2.272 0.312-5.592 4.803-7.776 4.404-2.142 7.932-1.119 9.033 1.143 0.931 1.914-0.283 5.119-4.689 7.262-4.828 2.348-8.025 1.679-9.147-0.629" fill="#fff"/>
  </g>
  <g transform="matrix(.30268 0 0 -.30268 35.19 60.718)">
   <path d="m0 0c-0.693-1.085-0.354-2.41 1.058-3.316 1.222-0.785 2.81-0.553 3.459 0.457 0.603 0.941 0.499 2.495-0.973 3.288-1.486 0.8-2.816 0.711-3.544-0.429" fill="#fff"/>
  </g>
  <g transform="matrix(.30268 0 0 -.30268 49.371 61.142)">
   <path d="m0 0c-2.493-4.771-0.626-11.854 4.917-14.75 5.986-3.129 12.663-0.883 15.036 3.659 2.333 4.464 0.753 10.313-5.66 13.664-5.789 3.026-12.01 1.796-14.293-2.573" fill="#eeeeef"/>
  </g>
  <g transform="matrix(.30268 0 0 -.30268 52.423 63.415)">
   <path d="M 0,0 C 0.13,-2.331 1.907,-3.498 3.239,-3.468 4.954,-3.43 6.293,-1.674 6.174,0.458 6.038,2.9 4.43,4.291 2.668,4.193 1.055,4.104 -0.14,2.51 0,0" fill="#fff"/>
  </g>
  <g transform="matrix(.30268 0 0 -.30268 39.952 55.076)">
   <path d="m0 0c-3.854 3.354-8.028 6.05-11.08 7.4-1.916 0.849-2.815 0.972-2.001-0.5 1.051-1.901 3.252-4.803 4.602-6.104 1.485-1.43 2.141-3.175 2.602-5.254 1.949-8.77 9.383-13.003 20.862-18.807-2.999 10.505-7.787 17.002-14.985 23.265" fill="#c8be89"/>
  </g>
  <g transform="matrix(.30268 0 0 -.30268 40.639 51.884)">
   <path d="m0 0c3.255-3.993 2.569-5.861-1.625-5.202-4.677 0.736-9.548 2.973-13.142 6.338 4.956-0.124 9.931-0.513 14.767-1.136" fill="#c8be89"/>
  </g>
  <g transform="matrix(.30268 0 0 -.30268 42.68 52.197)">
   <path d="m0 0c13.699-2.446 25.561-6.733 31.589-11.942 5.69-4.919 9.82-9.37 12.761-13.359-3.44 1.034-7.043 2.159-10.754 3.629-5.054 2.002-7.719 3.467-11.609 7.205-4.28 4.113-13.626 10.267-21.987 14.467" fill="#c8be89"/>
  </g>
  <g transform="matrix(.30268 0 0 -.30268 37.459 4.5429)">
   <path d="m0 0c13.111 3.202 27.062 6.022 42.673 9.059-13.01-14.688-43.224-48.12-60.29-66.445-7.586-0.048-24.92-0.545-34.791-0.968 13.263 14.75 36.59 41.05 52.408 58.354" fill="#fff4cc"/>
  </g>
  <g transform="matrix(.30268 0 0 -.30268 40.508 51.03)">
   <path d="m0 0-0.096-2.725c-10.247 1.098-21.876 1.119-28.418 0.516-6.051 1.329-12.17 2.726-17.273 4.021-5.604 29.615-12.578 69.636-16.694 93.419 9.871 0.424 27.205 0.921 34.791 0.969 4.476-26.158 11.47-65.325 16.646-93.861 3.544-0.748 7.238-1.531 11.044-2.339" fill="#877b4c"/>
  </g>
  <g transform="matrix(.30268 0 0 -.30268 51.373 55.143)">
   <path d="m0 0c9.452 0.152 18.676 0.457 27.442 0.687-12.959 2.667-31.406 6.326-43.298 8.841l-0.457-2.591c5.107-1.22 11.053-3.812 16.313-6.937" fill="#877b4c"/>
  </g>
  <g transform="matrix(.30268 0 0 -.30268 65.517 39.103)">
   <path d="m0 0c15.824 32.894-8.043 80.641-34.608 91.705l-2.364-1.067c28.875-14.021 45.797-53.771 37.086-86.522z" fill="#5a4f2b"/>
  </g>
  <g transform="matrix(.30268 0 0 -.30268 57.039 45.254)">
   <path d="m0 0c32.388 36.51 16.833 91.115-17.712 110.11l-0.485-1.626c37.841-24.528 44.719-78.189 13.355-110.04-1.271-1.291-0.702-1.624 0.507-1.272 1.208 0.352 3.054 1.388 4.335 2.831" fill="#5a4f2b"/>
  </g>
  <g transform="matrix(.30268 0 0 -.30268 32.664 22.099)">
   <path d="m0 0c4.64-27.084 11.608-65.691 16.334-91.753 20.216-4.287 53.118-11.398 73.746-15.349 11.747 17.697 36.186 51.662 49.253 69.338-4.01 20.078-11.08 58.568-14.787 78.702-15.674 5.488-45.967 16.647-65.493 23.977-12.523-14.121-41.576-46.135-59.053-64.915m59.967 68.513c19.347-7.274 49.915-18.96 65.622-24.497 1.62-0.572 1.827-0.845 2.094-2.29 3.723-20.216 10.839-58.526 14.844-78.651 0.277-1.385 0.238-1.682-0.607-2.826-13.123-17.77-37.791-52.066-49.457-69.62-0.733-1.103-1.105-1.254-2.4-1.005-20.539 3.941-54.415 11.086-74.733 15.395-1.473 0.312-1.883 0.699-2.132 2.071-4.702 25.93-11.824 65.618-16.451 92.602-0.238 1.392-0.051 1.722 1.033 2.89 17.269 18.585 45.97 50.588 58.681 64.918 1.356 1.528 1.822 1.646 3.506 1.013" fill="#0f141b"/>
  </g>
  <g transform="matrix(.30268 0 0 -.30268 58.903 54.623)">
   <path d="m0 0c-8.265-0.107-17.905-0.117-27.321-0.301l4.642-3.075c5.711 0.067 14.401 0.177 27.135 0.349z" fill="#0f141b"/>
  </g>
  <g transform="matrix(.30268 0 0 -.30268 33.293 51.522)">
   <path d="m0 0c-6.472 1.404-14.618 3.34-20.482 4.813-4.121 21.806-9.33 51.311-16.3 91.571 12.162 13.611 40.685 45.618 51.293 57.229 12.216 2.974 24.651 5.7 40.355 8.762l1.373 3.692c-16.019-3.115-29.498-6.02-41.904-9.028-1.17-0.284-1.404-0.396-2.251-1.325-11.05-12.114-39.456-43.757-51.734-57.494-0.729-0.815-0.811-1.086-0.585-2.387 6.899-39.836 12.477-70.397 16.582-92.122 0.268-1.421 0.516-1.706 1.98-2.066 4.077-1.001 8.418-1.888 13.064-2.922z" fill="#0f141b"/>
  </g>
  <g transform="matrix(.30268 0 0 -.30268 52.035 45.333)">
   <path d="m0 0c23.991-3.705 47.364 17.514 52.072 47.948 4.818 31.152-12.167 57.957-35.4 61.55-22.703 3.503-46.532-16.65-51.401-48.127-4.813-31.122 11.698-57.808 34.729-61.371m17.118 112.83c23.826-3.684 43.817-30.672 38.444-65.409-5.125-33.144-30.946-54.661-56.011-50.779-25.575 3.956-43.015 33.331-38.068 65.32 5.234 33.846 31.681 54.572 55.635 50.868" fill="#0f141b"/>
  </g>
  <g transform="matrix(.30268 0 0 -.30268 49.588 13.159)">
   <path d="m0 0c15.785-7.7 25.356-25.145 26.147-44.998 1.039-26.078-11.867-48.123-30.591-58.72l3.012-1.517c19.754 11.506 31.9 34.936 30.886 60.346-0.818 20.573-10.165 38.075-26.156 46.533z" fill="#0f141b"/>
  </g>
  <g transform="matrix(.30268 0 0 -.30268 32.535 21.466)">
   <path d="m0 0c-8.968-0.054-26.478-0.47-35.274-0.939l-0.854-2.907c9.679 0.46 25.524 0.923 34.741 0.98z" fill="#0f141b"/>
  </g>
  <g transform="matrix(.30268 0 0 -.30268 17.348 77.135)">
   <path d="m0 0c0-10.11 5.886-16.328 15.351-16.328 11.038 0 15.481 2.405 24.643 2.405 9.24 0 14.354-2.537 22.486-2.537 9.052 0 15.364 5.371 22.183 5.371 9.951 0 15.267-2.291 24.834-2.291 9.176 0 12.603 3.206 12.603 7.763 0 3.825-1.994 7.728-9.864 17.074-6.452 7.66-4.231 19.132 4.554 19.298 9.053 0.175 13.357 3.078 15.141 7.112 2.146 4.855 0.674 15.575-17.698 31.452-11.191 9.672-42.432 15.738-67.418 13.162-4.883-0.506-7.967-2.64-12.778-9.13-16.819-22.69-34.037-55.793-34.037-73.351m39.994-16.964c-9.086 0-13.288-2.505-24.643-2.505-12.714 0-18.748 7.341-18.748 19.451 0 18.88 18.398 53.101 35.104 75.285 5.91 7.851 8.973 9.663 14.731 10.259 25.916 2.685 58.176-3.744 69.932-13.903 19.993-17.278 21.228-28.837 18.521-34.965-2.628-5.942-8.462-8.484-18.005-8.667-4.649-0.09-8.132-7.183-2.025-14.437 8.389-9.961 10.661-14.42 10.661-19.145 0-6.879-4.612-10.851-16.018-10.851-9.303 0-15.709 2.225-24.813 2.225-5.837 0-12.374-5.364-22.193-5.364-8.438 0-13.416 2.617-22.504 2.617" fill="#0f141b"/>
  </g>
  <g transform="matrix(.30268 0 0 -.30268 44.696 65.476)">
   <path d="m0 0c4.293 7.417-0.925 23.352-14.916 35.244-4.356 3.703-5.74 2.083-1.517-1.757 13.83-12.575 16.549-26.929 13.694-31.863-3.918-6.769-14.051-8.352-27.77-3.506-5.18 1.83-5.859-0.143-0.782-2.206 14.739-5.988 26.517-4.166 31.291 4.088" fill="#0f141b"/>
  </g>
  <g transform="matrix(.30268 0 0 -.30268 52.035 45.333)">
   <path d="m0 0c23.991-3.705 47.364 17.514 52.072 47.948 4.818 31.152-12.167 57.957-35.4 61.55-22.703 3.503-46.532-16.65-51.401-48.127-4.813-31.122 11.698-57.808 34.729-61.371m17.118 112.83c23.826-3.684 43.817-30.672 38.444-65.409-5.125-33.144-30.946-54.661-56.011-50.779-25.575 3.956-43.015 33.331-38.068 65.32 5.234 33.846 31.681 54.572 55.635 50.868" fill="#0f141b"/>
  </g>
  <g transform="matrix(.30268 0 0 -.30268 54.582 21.434)">
   <path d="m0 0c15.699-2.275 25.295-19.747 24.503-30.842-0.458-6.415-2.933-9.933-6.232-11.281-3.667-1.498-7.694-0.448-9.946 5.227-3.509 8.843-6.323 11.804-11.549 12.727-5.326 0.94-9.733-1.551-15.035-9.984-2.59-4.12-7.783-4.959-11.483-2.909-3.369 1.869-5.38 5.3-4.126 10.478 4.747 19.594 20.065 28.584 33.868 26.584" fill="#3e3a39"/>
  </g>
  <g transform="matrix(.30268 0 0 -.30268 54.582 21.434)">
   <path d="m0 0c9.146-1.326 16.199-7.816 20.355-15.191-0.024-5.231-3.331-6.517-6.732-3.541-9.082 7.947-20.812 10.69-33.301 2.46-3.291-2.169-7.704-1.024-7.18 4.704 6.999 9.048 17.289 12.955 26.858 11.568" fill="#595857"/>
  </g>
  <g transform="matrix(.30268 0 0 -.30268 59.248 24.75)">
   <path d="m0 0c3.229-3.825 2.967-7.271 1.264-8.708-1.999-1.687-5.619-1.067-8.392 2.218-2.622 3.108-3.501 6.885-1.529 8.842 1.81 1.795 5.137 1.819 8.657-2.352" fill="#c8c9ca"/>
  </g>
  <g transform="matrix(.30268 0 0 -.30268 58.858 25.007)">
   <path d="m0 0c1.649-1.954 1.357-4.05 0.365-4.887-1.148-0.968-3.383-0.577-4.801 1.104-1.749 2.072-1.792 4.151-0.62 5.14 1.126 0.951 3.242 0.794 5.056-1.357" fill="#fff"/>
  </g>
  <g transform="matrix(.30268 0 0 -.30268 60.112 34.184)">
   <path d="M 0,0 C -4.099,-1.674 -8.165,0.837 -10.19,5.827 -4.324,2.049 1.426,3.112 6.001,9.293 5.213,4.137 2.938,1.2 0,0" fill="#595857"/>
  </g>
  <g transform="matrix(.30268 0 0 -.30268 49.718 30.802)">
   <path d="m0 0c-3.757-6.018-8.325-9.077-13.674-6.112-5.161 2.861-5.307 6.961-3.301 13.374 2.222-6.95 8.874-9.834 16.975-7.262" fill="#595857"/>
  </g>
  <g transform="matrix(.30268 0 0 -.30268 44.823 29.576)">
   <path d="m0 0c-1.172-4.841 0.198-7.07 3.299-8.791 3.754-2.076 7.453-0.696 9.395 2.395 5.079 8.081 10.245 11.685 16.593 10.568 5.542-0.979 9.08-4.377 12.73-13.572 1.55-3.91 4.32-5.867 7.963-4.38 3.325 1.357 4.872 4.602 5.251 9.908 0.806 11.288-9.32 27.338-23.196 29.348-12.889 1.867-27.536-6.914-32.035-25.476m58.279-4.039c-0.407-5.692-2.954-10.914-7.08-12.599-4.457-1.818-9.486-0.239-12.012 6.125-3.381 8.524-5.773 11.022-10.397 11.839-4.991 0.879-8.732-2.042-13.376-9.429-2.886-4.59-8.661-6.144-13.575-3.417-4.674 2.593-6.271 6.932-4.988 12.219 3.911 16.143 17.547 30.229 35.587 27.614 17.31-2.507 26.612-21.56 25.841-32.352" fill="#0f141b"/>
  </g>
 </g>
</svg>
