<?xml version="1.0" encoding="UTF-8" standalone="no"?>
<!-- Created with Inkscape (http://www.inkscape.org/) -->

<svg
   version="1.1"
   viewBox="0 0 115.78 157.72"
   id="svg174"
   sodipodi:docname="809-2.svg"
   inkscape:version="1.3 (0e150ed, 2023-07-21)"
   xmlns:inkscape="http://www.inkscape.org/namespaces/inkscape"
   xmlns:sodipodi="http://sodipodi.sourceforge.net/DTD/sodipodi-0.dtd"
   xmlns="http://www.w3.org/2000/svg"
   xmlns:svg="http://www.w3.org/2000/svg">
  <defs
     id="defs174" />
  <sodipodi:namedview
     id="namedview174"
     pagecolor="#505050"
     bordercolor="#eeeeee"
     borderopacity="1"
     inkscape:showpageshadow="0"
     inkscape:pageopacity="0"
     inkscape:pagecheckerboard="0"
     inkscape:deskcolor="#d1d1d1"
     showgrid="false"
     inkscape:zoom="2.1161197"
     inkscape:cx="53.872189"
     inkscape:cy="77.027779"
     inkscape:window-width="1176"
     inkscape:window-height="715"
     inkscape:window-x="28"
     inkscape:window-y="25"
     inkscape:window-maximized="0"
     inkscape:current-layer="svg174" />
  <path
     d="m 44.82442,115.52 c -0.74955,-0.85046 -1.3485,-2.185 -1.0695,-3.8961 1.5191,0.15326 2.3031,2.6323 1.0695,3.8961 m 23.653,30.32 c 1.7376,-1.3485 2.2012,-3.6376 2.0797,-6.3234 -0.26982,-5.9316 -4.1843,-10.492 -12.604,-15.826 -2.7435,-1.7387 -3.8341,-6.5371 -0.97781,-12.821 1.1208,-2.4661 0.50024,-4.806 -1.3852,-6.4378 -6.5042,-5.6283 -18.558,-7.8441 -27.162,-2.825 -2.2816,1.3313 -2.8314,3.5276 -3.0964,6.2203 -1.0231,10.394 -3.6312,13.871 -16.886,25.315 -6.1685,5.3251 -8.3972,9.8218 -7.6055,16.587 0.0998,0.851 -0.009,1.2584 -0.33511,1.8283 -0.59521,1.0426 -0.20128,2.1272 2.1726,3.3144 l 21.455,-0.14516 c 2.213,0.67615 3.282,-0.0561 3.8341,-1.8105 2.3922,-7.6136 4.9797,-12.347 12.879,-12.131 4.5858,0.12573 7.4647,3.8465 6.2732,5.5728 -1.7122,2.4796 2.0857,5.6515 7.8894,5.0342 z"
     fill="#eeeeef"
     id="path1"
     style="stroke-width:0.53963" />
  <path
     d="m 56.97442,110.87 c 1.1208,-2.4661 0.50078,-4.8059 -1.3847,-6.4378 -6.5042,-5.6278 -18.558,-7.8441 -27.162,-2.825 -2.2821,1.3313 -2.8314,3.5276 -3.0969,6.2203 -0.09929,1.0096 -0.21369,1.9529 -0.3513,2.846 7.2046,-4.3769 23.422,-3.8179 31.26,2.0258 0.20776,-0.59468 0.45167,-1.2045 0.73552,-1.8294"
     fill="#b4b5b5"
     id="path2"
     style="stroke-width:0.53963" />
  <path
     d="m 110.79962,112.6 c -0.2574,-1.2449 -0.68101,-2.3879 -1.1559,-3.3565 l -17.826,-4.5761 c -0.38422,-0.24391 -0.68587,-0.12304 -0.99832,0.2261 -0.02051,0.0232 -0.04209,0.0491 -0.06368,0.0729 -7.6115,0.851 -13.866,6.5527 -15.896,15.554 -0.6454,0.74847 -1.2654,1.4942 -1.9006,2.2281 0.76897,1.6103 1.3761,3.2324 1.6988,4.6619 2.2778,10.075 9.2892,17.213 19.422,17.955 9.2514,0.67665 19.564,-5.5858 21.186,-16.841 1.1203,-7.7728 -1.3518,-13.23 -4.4654,-15.924"
     fill="#eeeeef"
     id="path3"
     style="stroke-width:0.53963" />
  <path
     d="m 115.26522,128.53 c 0.49592,-3.4423 0.28654,-6.4297 -0.37073,-8.9249 -0.55042,1.2482 -1.8029,2.6059 -2.7435,3.2572 0.0858,-1.1904 -0.13221,-2.3452 -0.63245,-3.2594 0.0664,0.60169 0.0388,1.1996 -0.0157,1.8515 -0.16135,1.9427 -1.1311,3.677 -2.349,3.3543 -0.46246,-0.12195 -0.95083,-0.77383 -0.32756,-3.1908 l -19.609999,-2.5535 c -0.24499,-0.0275 -0.62489,0.28492 -0.90982,0.73282 0.08472,-1.4122 -0.07771,-1.906 -0.58388,-1.9821 -0.44843,-0.068 -0.95083,1.0728 -1.1273,2.05 0.02698,0.31245 0.04047,0.6114 0.08364,0.91845 -2.7003,4.8043 -12.798,1.5924 -10.069,-5.344 -0.74253,1.5498 -1.3356,3.2486 -1.7506,5.0866 -0.6454,0.749 -1.266,1.4942 -1.9006,2.2281 0.76843,1.6103 1.3755,3.2324 1.6988,4.6624 2.2778,10.075 9.2892,17.213 19.421,17.954 9.251999,0.6767 19.563999,-5.5857 21.185999,-16.841"
     fill="#b4b5b5"
     id="path4"
     style="stroke-width:0.53963" />
  <path
     d="m 25.13442,109.58 c 0.07231,-0.56175 0.13761,-1.144 0.19696,-1.75 0.26496,-2.6928 0.81484,-4.8896 3.0969,-6.2208 8.6039,-5.0186 20.658,-2.8028 27.162,2.8255 1.886,1.6313 2.506,3.9711 1.3852,6.4378 -0.15379,0.33781 -0.2941,0.6713 -0.42523,1.001 2.485,-0.95461 4.9705,-2.0894 6.6725,-2.9755 0.83157,-0.43225 1.2983,-0.92385 1.7565,-1.9918 0.92385,-2.1547 1.8833,-5.4686 2.2999,-7.3336 0.27359,-1.226 0.26766,-2.0063 -0.36209,-2.9701 -1.3777,-2.1056 -3.6398,-5.4141 -5.2695,-7.8047 -0.606,-0.88823 -1.2492,-1.3037 -2.2454,-1.8466 -5.1,-2.7818 -15.075,-5.487 -20.389,-6.195 -0.68209,2.111 -1.5806,4.6052 -2.2821,6.557 -3.8055,1.5504 -12.702,4.9069 -16.625,6.291 -0.35076,1.4543 -0.68047,3.1169 -0.85639,4.4886 0.54341,3.0149 1.6556,6.55 2.3976,8.5963 0.75656,1.0134 2.1564,2.1126 3.4882,2.8908"
     fill="#ffffff"
     id="path5"
     style="stroke-width:0.53963" />
  <path
     d="m 27.15042,60.972 c -0.95353,-1.2233 -1.3712,-2.0371 -1.3037,-3.9118 0.21747,-6.0023 -3.2005,-8.8364 -6.6817,-9.6696 -4.3894,-1.0501 -7.4928,0.7517 -7.8775,2.771 -0.35184,1.8499 -0.61518,4.0289 -0.65188,6.5997 -0.0156,1.1424 -0.30974,1.9637 -0.8688,2.635 -2.7025,3.2432 -3.2043,7.1377 -2.7705,9.3442 1.3113,6.666 3.7445,9.7236 8.3659,9.7236 4.5005,0 10.636,-3.418 12.522,-10.105 0.91899,-3.2567 0.4398,-5.8841 -0.73336,-7.3875"
     fill="#eeeeef"
     id="path6"
     style="stroke-width:0.53963" />
  <path
     d="m 6.99042,68.741 c 1.3113,6.6666 3.744,9.7241 8.3659,9.7241 4.5005,0 10.636,-3.418 12.522,-10.105 0.91845,-3.2567 0.43926,-5.8841 -0.73336,-7.3881 -0.95353,-1.2228 -1.3712,-2.0371 -1.3037,-3.9118 0.21747,-6.0023 -3.2005,-8.8364 -6.6817,-9.6691 -3.5411,-0.84776 -6.2441,0.16135 -7.3589,1.6432 l -0.32054,0.5283 c -10e-4,0.0027 -0.003,0.0059 -0.004,0.0086 -0.38205,0.86664 0.2968,2.6458 1.3815,4.2841 2.6296,3.9733 3.5432,6.9159 2.9064,11.082 -0.29194,1.9087 -0.53423,4.8394 -0.60978,7.2246 -0.0421,1.3426 -0.52074,1.6335 -1.7122,1.5628 -3.8519,-0.22826 -6.9612,-4.3014 -6.4777,-8.0572 -0.16729,1.1791 -0.13653,2.2449 0.0264,3.0727"
     fill="#b4b5b5"
     id="path7"
     style="stroke-width:0.53963" />
  <path
     d="m 45.99642,43.021 c 1.7716,1.0064 4.7455,2.4769 6.733,3.5265 3.5977,-1.9929 10.448,-7.1307 13.002,-10.468 1.0442,-6.0482 1.3383,-16.023 0.93356,-22.279 -4.2026,-4.4638 -11.917,-10.928 -17.35,-13.536 -4.8076,1.3847 -8.6103,2.5255 -12.82,4.0472 -0.79703,3.9031 -1.6971,10.428 -1.8391,15.211 z"
     fill="#3e3a39"
     id="path8"
     style="stroke-width:0.53963" />
  <path
     d="m 62.24442,17.902 c -1.1586,-2.6253 -3.5697,-2.6679 -4.7984,-3.6576 -1.3037,-1.0507 -1.865,-3.5691 -4.4363,-4.31 -3.2054,-0.92385 -3.8028,1.5396 -5.9214,1.8288 -2.3803,0.32594 -3.5875,-1.4025 -6.7184,0.16351 -1.9556,0.97727 -2.5859,2.3571 -3.0241,3.7839 -0.49808,1.6248 -2.0053,3.5502 -2.6982,3.8119 -3.2772,1.2417 -9.5067,1.9011 -11.707,1.4673 -0.01025,-0.24499 -0.01511,-0.49322 -0.01619,-0.74577 -4.3219,2.5433 -10.339,11.477 -11.045,17.071 2.1272,-0.55474 4.9311,-1.1721 7.1226,-1.613 3.7121,1.0685 9.0178,3.5675 12.549,5.5771 0.48351,1.859 1.1429,4.6867 1.5417,7.0125 5.1103,-1.1321 11.831,-4.4007 16.857,-7.6466 1.7608,0.33619 4.153,-0.24985 5.9025,-1.6291 1.5396,-1.2131 1.7921,-3.214 2.499,-4.5815 0.54341,-1.0507 3.2378,-2.3377 3.9479,-4.7083 0.79649,-2.662 -0.35562,-4.3823 -0.39879,-5.9214 -0.03616,-1.2854 1.3561,-3.6101 0.34374,-5.903"
     fill="#eeeeef"
     id="path9"
     style="stroke-width:0.53963" />
  <path
     d="m 24.95642,37.965 c 2.3625,1.0523 4.7272,2.2513 6.5948,3.3144 0.48297,1.8585 1.1429,4.6861 1.5412,7.0125 5.1108,-1.1327 11.831,-4.4012 16.857,-7.6466 1.7614,0.33565 4.1535,-0.25039 5.903,-1.6297 1.539,-1.2131 1.7916,-3.214 2.499,-4.5815 0.54341,-1.0501 3.2378,-2.3377 3.9474,-4.7083 0.79703,-2.6615 -0.35508,-4.3823 -0.39825,-5.9208 -0.034,-1.198 1.1715,-3.2988 0.5175,-5.4341 -0.42631,-1.2169 -2.3701,-1.6032 -3.3284,-1.2158 0.54233,0.81106 1.0393,1.7619 1.362,2.6302 -0.50617,9.1462 -22.844,18.147 -35.495,18.18"
     fill="#b4b5b5"
     id="path10"
     style="stroke-width:0.53963" />
  <path
     d="m 23.37242,21.042 c -3.4283,2.1472 -9.0777,9.8072 -10.2,15.928 1.3982,-0.3281 4.1886,-0.9546 5.8307,-1.2676 0.83912,0.24122 1.7624,0.55906 2.7257,0.92439 l 0.02698,-0.0011 c -4.017,-2.7327 -2.7624,-11.386 2.2616,-15.5 z"
     fill="#ffffff"
     id="path11"
     style="stroke-width:0.53963" />
  <path
     d="m 44.12842,12.723 c 0.07393,0.27953 -0.29356,0.59899 -0.86934,0.7517 -0.5488,0.14462 -0.94705,0.01403 -1.0318,-0.30867 -0.05558,-0.2083 0.11116,-0.5774 0.73282,-0.74199 0.55636,-0.14678 1.0825,-0.02536 1.1683,0.29896"
     fill="#ffffff"
     id="path12"
     style="stroke-width:0.53963" />
  <path
     d="m 42.79642,11.99 c -1.0501,0.37073 -1.4635,1.0183 -1.3766,1.3669 0.10145,0.4031 0.83049,0.65673 1.4581,0.58874 -0.96216,0.83805 -3.0343,1.8272 -3.513,1.1408 -0.60654,-0.86934 1.0409,-2.9334 3.4315,-3.0964"
     fill="#595857"
     id="path13"
     style="stroke-width:0.53963" />
  <path
     d="m 54.37642,11.836 c 0.50941,0.41174 0.69774,1.0453 0.45275,1.3491 -0.2261,0.28061 -0.8483,0.26496 -1.4122,-0.19049 -0.53154,-0.42847 -0.64,-1.0113 -0.42523,-1.2762 0.24823,-0.30813 0.80513,-0.35076 1.3847,0.11764"
     fill="#ffffff"
     id="path14"
     style="stroke-width:0.53963" />
  <path
     d="m 53.53442,10.912 c -1.4667,-0.09012 -2.4354,1.7387 -0.1538,2.4089 -1.2854,0.46138 -2.8881,0.45275 -3.7391,0.16297 -0.851,-0.28978 -0.93248,-1.2498 -0.23528,-1.6389 -0.07015,-1.3054 2.8341,-2.3674 4.1282,-0.93302"
     fill="#595857"
     id="path15"
     style="stroke-width:0.53963" />
  <path
     d="m 50.88242,17.214 c -0.06853,1.0695 -1.6173,1.4802 -3.8605,1.3367 -2.4289,-0.15595 -3.7359,-0.9395 -3.6722,-1.934 0.06745,-1.0501 1.647,-2.0376 3.9112,-1.8919 2.3188,0.1484 3.6992,1.2865 3.6215,2.4893"
     fill="#ffffff"
     id="path16"
     style="stroke-width:0.53963" />
  <path
     d="m 61.02042,22.616 c 0.10739,-0.49376 0.22179,-1.0674 0.21261,-1.6394 1.0668,-2.335 -0.88122,-3.5891 -1.7894,-3.2826 0.69073,1.0847 1.4154,2.9124 1.5768,4.922"
     id="path17"
     style="fill:#595857;stroke-width:0.53963" />
  <path
     d="m 58.12042,33.041 c 2.9788,-1.3734 4.2609,-4.7061 2.6571,-6.5954 -0.41552,2.2454 -1.0598,4.0861 -2.6571,6.5954"
     id="path18"
     style="fill:#595857;stroke-width:0.53963" />
  <path
     d="m 51.63242,39.5 c 2.9674,-0.13545 5.0137,-1.6097 5.2662,-4.752 -1.423,1.7797 -3.0888,3.2567 -5.2662,4.752"
     id="path19"
     style="fill:#595857;stroke-width:0.53963" />
  <path
     d="m 31.69642,41.786 c 2.0101,0.72472 6.9898,-0.16297 10.847,-1.43 -3.4952,1.7743 -6.4103,2.8606 -8.8008,3.5308 9.6016,-0.24553 21.033,-10.642 21.639,-19.285 0.27899,-3.9738 -1.7743,-7.8225 -4.2372,-9.0901 3.465,0.78138 5.3574,2.2092 6.591,4.3095 -0.27089,-1.7802 -2.254,-3.4844 -3.8837,-4.1827 8.0243,1.9481 7.591,12.396 1.402,19.332 -3.9641,4.4439 -15.083,10.384 -22.425,11.959 z"
     id="path20"
     style="fill:#595857;stroke-width:0.53963" />
  <path
     d="m 12.72042,57.414 c 0.27143,1.5207 -0.0826,3.9782 -0.851,5.4864 -0.97835,1.9195 -1.5396,4.364 -0.99615,7.0621 0.24175,1.2018 -0.99184,1.7489 -1.6292,0.39825 -1.355,-2.8687 -0.91035,-7.0697 1.0857,-9.1624 1.123,-1.1769 1.9923,-2.1547 2.3906,-3.7844"
     fill="#ffffff"
     id="path21"
     style="stroke-width:0.53963" />
  <path
     d="m 66.46642,130.41 c 3.5945,4.4881 -3.5189,14.569 -14.199,10.779 -8.7118,-3.0915 -12.864,-3.7639 -19.376,-1.2314 -11.733,4.5626 -25.024,1.4128 -25.968,-5.433 -5.0099,4.7509 -6.8058,9.0361 -6.0827,15.211 0.0993,0.85154 -0.01,1.259 -0.33511,1.8288 -0.59575,1.0426 -0.20129,2.1272 2.1726,3.3144 l 21.455,-0.14516 c 2.2125,0.67616 3.282,-0.0561 3.8335,-1.8105 2.3927,-7.6136 4.9802,-12.347 12.879,-12.131 4.5863,0.12574 7.4647,3.8465 6.2732,5.5722 -1.7117,2.4801 2.0862,5.6521 7.8899,5.0348 l 13.469,-5.5528 c 1.7371,-1.3485 2.2012,-3.6371 2.0792,-6.3228 -0.15218,-3.3457 -1.4646,-6.2548 -4.0899,-9.1133"
     fill="#b4b5b5"
     id="path22"
     style="stroke-width:0.53963" />
  <path
     d="m 44.69842,137.63 c -4.4735,-1.5606 -7.632,-5.6354 -9.1813,-12.196 -1.1899,-5.0401 -6.107,-7.0826 -10.919,-3.6123 -2.8244,2.0371 -7.795,6.4378 -9.2347,9.0992 -3.1034,5.7379 2.3085,12.413 9.7511,11.463 2.2492,-0.28762 4.6284,-1.1904 6.6817,-2.6895 3.0996,-2.2621 7.7383,-2.9162 12.902,-2.0641"
     fill="#ffffff"
     id="path23"
     style="stroke-width:0.53963" />
  <path
     d="m 51.70642,119.24 c -0.29896,2.0101 1.0188,5.1497 3.5858,7.4965 0.76897,0.70368 1.0183,1.7349 0.16243,3.7758 -2.4289,5.7913 1.4128,13.5 6.9278,10.123 4.2685,-2.6129 1.7916,-9.8785 -5.5156,-14.388 -2.7106,-1.6729 -4.5361,-4.6721 -5.1605,-7.0076"
     fill="#ffffff"
     id="path24"
     style="stroke-width:0.53963" />
  <path
     d="m 38.85642,114.19 c -0.007,0.24229 -0.01889,0.49916 -0.01889,0.70584 1.3005,2.4785 4.2949,5.6143 5.9608,6.1302 0.67885,0.0637 1.7112,0.11818 2.3992,0.0907 1.2309,-0.47056 2.5983,-1.3129 3.3954,-2.2362 z"
     fill="#b4b5b5"
     id="path25"
     style="stroke-width:0.53963" />
  <path
     d="m 84.55442,112.27 c 1.9605,-2.1494 2.2324,-3.6894 1.77,-4.1104 -0.23744,-0.21693 -0.79488,-0.16297 -1.4856,0.0923 1.8099,-1.2196 3.6911,-2.2038 5.4675,-2.7521 l -1.0037,-0.30111 c -6.4157,1.2698 -11.677,6.0876 -13.94,13.45 0.61194,-1.9518 2.7143,-4.6818 5.4335,-7.1884 -0.73875,1.301 -0.58496,2.4872 -0.16567,2.8687 0.60277,0.54988 2.1547,-0.1171 3.9242,-2.0587"
     fill="#ffffff"
     id="path26"
     style="stroke-width:0.53963" />
  <path
     d="m 90.37642,108.44 c -0.3799,0.70799 -0.88284,0.95029 -1.1683,0.79703 -0.27036,-0.1457 -0.36263,-0.71123 0.0092,-1.4036 0.35022,-0.65296 0.87258,-0.92925 1.1861,-0.76034 0.32054,0.1716 0.30705,0.74361 -0.02698,1.3669"
     fill="#ffffff"
     id="path27"
     style="stroke-width:0.53963" />
  <path
     d="m 89.09042,111.8 c 0,1.0625 -0.35616,1.5757 -0.67022,1.5757 -0.33727,0 -0.62435,-0.54988 -0.62435,-1.5757 0,-0.98213 0.32594,-1.5574 0.70584,-1.5574 0.37504,0 0.58874,0.57686 0.58874,1.5574"
     fill="#b4b5b5"
     id="path28"
     style="stroke-width:0.53963" />
  <path
     d="m 85.60442,134.94 c -0.21639,2.6911 -0.52506,4.1104 -1.3399,4.3462 -1.2773,0.36857 -4.5421,-3.1822 -6.1205,-6.175 -2.7888,-5.2878 -2.7656,-11.154 -0.93734,-16.731 -0.64216,4.7768 -0.02105,11.289 2.0781,13.971 -1.178,-3.6031 -1.9702,-8.2515 -1.7139,-11.872 0.40742,4.5626 4.3386,12.998 6.2408,12.495 0.96,-0.25309 1.3162,-2.7294 1.0695,-3.3813 0.20722,0.56445 0.60277,1.1456 0.68695,1.9151 0.18186,1.6567 0.12789,4.2911 0.03616,5.4319"
     fill="#595857"
     id="path29"
     style="stroke-width:0.53963" />
  <path
     d="m 113.69432,117.52 c 0.0788,1.9405 -0.35076,3.0041 -0.83751,3.0241 -0.53154,0.0221 -1.0604,-1.0928 -1.1365,-2.9604 -0.0745,-1.8283 0.33511,-2.8703 0.88337,-2.893 0.52938,-0.0216 1.0237,1.1802 1.0906,2.8293"
     fill="#ffffff"
     id="path30"
     style="stroke-width:0.53963" />
  <path
     d="m 110.90082,121.68 c -0.41767,1.859 -1.0841,2.6361 -1.5023,2.5422 -0.41066,-0.0923 -0.60924,-1.0722 -0.19427,-2.9232 0.38314,-1.7063 1.0447,-2.7602 1.498,-2.6588 0.33565,0.0755 0.60654,1.2223 0.19858,3.0397"
     fill="#b4b5b5"
     id="path31"
     style="stroke-width:0.53963" />
  <path
     d="m 105.75042,136.63 c -0.29572,1.2374 -0.82348,1.859 -1.1516,3.0915 -0.27899,1.0485 0.0761,1.7624 1.1224,1.1224 5.3601,-3.2777 9.6146,-9.6648 8.1716,-18.928 -0.9368,1.9691 -2.2772,3.1622 -4.3321,4.3732 -1.3232,0.77923 -0.45329,1.2568 -0.86665,1.9864 -0.25039,0.44142 -0.22071,1.6335 -0.11818,2.3393 0.20236,1.3868 -0.31514,2.5632 -1.2206,3.3554 -0.94219,0.82456 -1.4138,1.8601 -1.6049,2.6593"
     id="path32"
     style="fill:#595857;stroke-width:0.53963" />
  <path
     d="m 49.31442,0.265 c -3.0689,0.3799 -8.6103,1.6567 -11.462,2.4623 -3.3991,1.0825 -8.9363,3.4045 -12.925,5.5156 2.8001,-1.1656 8.5995,-3.0074 11.566,-3.9307 4.2102,-1.5212 8.013,-2.6625 12.821,-4.0472"
     id="path33"
     style="fill:#595857;stroke-width:0.53963" />
  <path
     d="m 22.94042,20.99 c 2.2001,0.4344 8.4296,-0.22556 11.707,-1.4673 0.0027,-5.4e-4 0.0059,-0.0032 0.0092,-0.0043 0.14192,-4.7817 1.042,-11.304 1.838,-15.206 -2.9669,0.92331 -8.7663,2.7651 -11.566,3.9307 -1.0912,3.8643 -2.1505,8.8078 -1.9875,12.747"
     id="path34"
     style="fill:#595857;stroke-width:0.53963" />
  <path
     d="m 52.72842,46.548 c -3.0559,0.67778 -9.7349,1.3377 -12.779,0.94867 -0.65565,-0.21855 -1.1381,-0.42253 -1.8472,-0.79919 2.254,-0.84182 5.739,-2.4742 7.8932,-3.676 1.6135,0.86988 4.677,2.5341 6.733,3.5265"
     fill="#2f2826"
     id="path35"
     style="stroke-width:0.53963" />
  <path
     d="m 30.71842,57.831 c -1.2681,0.2369 -3.2475,0.51966 -4.7978,0.67886 0.16081,0.95406 0.56499,1.6097 1.2304,2.4629 1.1732,1.5034 1.6518,4.1314 0.73336,7.3881 -1.8855,6.686 -8.0211,10.104 -12.522,10.104 -4.6219,0 -7.0546,-3.0575 -8.3659,-9.7236 -0.4344,-2.2065 0.068,-6.1011 2.7705,-9.3442 0.15919,-0.19103 0.29463,-0.39663 0.41065,-0.61572 -0.83804,0.27845 -1.5973,0.57255 -2.294,0.89686 -1.7926,3.4585 -5.3056,11.807 -6.7724,16.08 3.2777,3.1687 8.4565,8.2207 11.317,10.484 4.8167,-1.8461 14.505,-5.6132 18.833,-7.7318 1.702,-4.6538 4.4546,-13.509 5.0164,-16.949 -1.7932,-1.2676 -3.9296,-2.7338 -5.5593,-3.7299"
     fill="#595857"
     id="path36"
     style="stroke-width:0.53963" />
  <path
     d="m 16.39242,43.416 c -2.7526,0.56122 -7.5872,1.865 -9.7241,2.5713 0.23582,1.9011 0.67076,5.1788 1.069,7.4965 0.81161,0.5569 1.8482,1.185 2.948,1.7705 0.0971,-1.927 0.32,-3.6171 0.60061,-5.093 0.38476,-2.0193 3.4882,-3.8211 7.8775,-2.771 3.4812,0.83319 6.8992,3.6673 6.6817,9.6696 -0.02051,0.55258 0.0032,1.0107 0.06907,1.4165 1.4786,-0.11872 3.0824,-0.32486 4.8022,-0.64648 -0.41713,-2.5719 -1.1046,-6.012 -1.7748,-8.7463 -2.7527,-1.3216 -9.3798,-4.2733 -12.549,-5.6677"
     fill="#2f2826"
     id="path37"
     style="stroke-width:0.53963" />
  <path
     d="m 9.75042,37.929 c -0.99616,2.4267 -2.3539,5.8669 -3.0786,8.0583 2.1369,-0.70638 6.9715,-2.0101 9.7236,-2.5713 0.67076,-2.0641 1.9923,-5.9397 2.608,-7.714 -3.0602,0.61572 -7.3158,1.5752 -9.253,2.2271"
     fill="#595857"
     id="path38"
     style="stroke-width:0.53963" />
  <path
     d="m 31.55042,41.28 c -0.61572,2.0824 -1.7927,5.6132 -2.6075,7.8047 0.67022,2.7343 1.3582,6.1744 1.7748,8.7463 0.70638,-2.4629 1.7743,-5.7767 2.6075,-7.986 -0.30759,-2.4807 -1.1775,-6.2651 -1.7748,-8.565"
     fill="#2f2826"
     id="path39"
     style="stroke-width:0.53963" />
  <path
     d="m 19.00242,35.702 c -0.61626,1.7743 -1.9378,5.6499 -2.608,7.714 3.1692,1.3944 9.7964,4.3462 12.549,5.6677 0.81484,-2.1914 1.9918,-5.7222 2.6075,-7.8047 -3.5308,-2.0101 -8.8364,-4.5091 -12.549,-5.5771"
     fill="#3e3a39"
     id="path40"
     style="stroke-width:0.53963" />
  <path
     d="m 1.11042,75.757 c 1.5757,2.4812 4.2555,6.5732 6.1027,9.3075 3.0597,2.8433 7.6773,7.0799 10.629,9.416 -1.6836,-2.39 -3.7121,-5.4503 -5.4141,-8.2391 -2.8611,-2.2637 -8.04,-7.3158 -11.318,-10.484"
     fill="#2f2826"
     id="path41"
     style="stroke-width:0.53963" />
  <path
     d="m 36.27842,61.561 c -0.56176,3.4407 -3.3144,12.295 -5.0164,16.949 1.8655,2.6253 3.9841,5.9753 5.4692,8.8008 1.7198,-4.4546 4.0019,-11.861 5.4686,-16.533 -1.6658,-2.771 -3.7488,-6.2117 -5.9214,-9.2174"
     fill="#3e3a39"
     id="path42"
     style="stroke-width:0.53963" />
  <path
     d="m 12.43042,86.242 c 1.702,2.7888 3.7305,5.849 5.4141,8.2396 4.2199,-1.4851 13.762,-5.0887 18.887,-7.1711 -1.4851,-2.825 -3.6036,-6.175 -5.4692,-8.8003 -4.3273,2.1186 -14.015,5.8852 -18.832,7.7318"
     fill="#2f2826"
     id="path43"
     style="stroke-width:0.53963" />
  <path
     d="m 19.99842,77.416 c 2.9054,-1.5158 4.5162,-8.0076 3.3635,-12.142 -0.76466,-2.7451 -1.0528,-8.7803 -0.56176,-11.523 0.28115,-1.5692 0.37504,-2.7872 0.25794,-4.3564 0.74955,0.65619 1.4629,1.6335 1.7748,2.356 0.53477,1.2417 0.4031,3.8271 0.26226,5.3261 -0.17214,1.8385 0.20884,3.0737 1.3588,4.4832 1.627,1.995 1.9821,6.6008 0.61572,8.987 -1.45,2.8665 -4.1012,5.7751 -7.0713,6.869"
     fill="#595857"
     id="path44"
     style="stroke-width:0.53963" />
  <path
     d="m 22.87042,49.278 c 0.04695,1.382 -0.30435,3.3489 -0.7026,4.8944 -0.28492,1.1062 -1.0776,4.5906 -0.96,6.488 -0.3745,-1.8034 -0.23474,-5.4573 0.04695,-7.0497 0.28061,-1.5924 0.23366,-3.9814 0,-5.4335 0.531,0.27197 1.1046,0.64486 1.6157,1.1008"
     fill="#595857"
     id="path45"
     style="stroke-width:0.53963" />
  <path
     d="m 59.50442,86.966 c 0.15002,-0.27251 0.28223,-0.54772 0.40472,-0.83265 -0.43494,-2.716 -1.5757,-7.5688 -2.4267,-9.9049 -2.499,-1.5574 -6.8992,-3.8028 -9.6696,-4.7806 -2.2179,1.7608 -5.9764,4.9414 -7.9811,6.7643 l -0.4657,1.3507 0.34105,1.2903 c 1.1964,0.19319 2.887,0.50348 3.9906,0.7598 0.38098,-3.8449 4.2436,-6.1491 8.6783,-4.4244 3.5702,1.3879 4.8232,5.7773 3.2529,8.0113 1.2314,0.47002 2.6215,1.1008 3.8756,1.7662"
     fill="#ffe792"
     id="path46"
     style="stroke-width:0.53963" />
  <path
     d="m 59.90842,86.133 c -0.09444,-0.58874 -0.22179,-1.2773 -0.3718,-2.0193 -0.18132,0.87906 -0.58334,1.6793 -1.1305,2.2956 0.3718,0.18132 0.74037,0.36695 1.0976,0.55636 0.15002,-0.27251 0.28223,-0.54772 0.40472,-0.83265"
     fill="#dbc77f"
     id="path47"
     style="stroke-width:0.53963" />
  <path
     d="m 45.41442,73.402 c -1.8569,1.5428 -3.9301,3.3203 -5.324,4.5755 0.88068,0.95514 2.2632,1.6901 4.0537,1.9006 0.64648,-1.4807 1.906,-2.5649 3.5108,-3.0252 -2.1477,-0.66968 -1.8337,-2.5719 -2.2405,-3.4509"
     id="path48"
     style="fill:#fff4cc;stroke-width:0.53963" />
  <path
     d="m 56.29242,82.981 c -0.01619,0.83049 -0.23312,1.6059 -0.6632,2.2179 0.73066,0.27899 1.5174,0.61572 2.2983,0.98159 1.3,-1.1699 -0.48027,-1.8407 -1.6351,-3.1995"
     id="path49"
     style="fill:#fff4cc;stroke-width:0.53963" />
  <path
     d="m 47.81242,71.448 c -1.9011,0.56122 -3.8751,1.1586 -5.0704,1.5396 -0.5569,0.44789 -1.0933,0.88553 -1.655,1.3971 -0.31406,0.91629 -0.94165,2.9847 -1.2093,3.6943 2.0371,-1.7905 5.2301,-4.4541 7.9347,-6.631"
     id="path50"
     style="fill:#fff4cc;stroke-width:0.53963" />
  <path
     d="m 39.74242,80.836 -0.33565,-1.2379 -0.38853,1.1122 z"
     fill="#dbc77f"
     id="path51"
     style="stroke-width:0.53963" />
  <path
     d="m 55.62842,85.199 c 1.5698,-2.2341 0.3173,-6.6229 -3.2529,-8.0113 -2.5147,-0.97781 -4.8448,-0.65943 -6.461,0.4997 3.7218,-2.1483 9.4905,1.8758 6.7918,6.4502 0.88337,0.29788 1.832,0.63676 2.9221,1.0615"
     fill="#877b4c"
     id="path52"
     style="stroke-width:0.53963" />
  <path
     d="m 37.81042,84.242 c 2.049,-1.5514 4.1811,-2.6474 7.9401,-2.1137 -2.4046,-0.56931 -4.0596,-0.97079 -6.7384,-1.3755 -0.45761,1.2838 -0.80783,2.2988 -1.2018,3.4892"
     fill="#fff4cc"
     id="path53"
     style="stroke-width:0.53963" />
  <path
     d="m 63.72442,91.896 c -0.93734,-1.4122 -2.2173,-3.4828 -2.8519,-4.0068 -1.0868,-0.89632 -4.1972,-2.417 -6.6277,-3.2184 4.2776,2.39 5.2565,4.2086 4.6721,6.7362 -0.38044,1.6437 -1.4915,5.249 -2.608,6.8587 -0.53154,0.76573 -1.5115,1.2125 -3.0694,0.36641 2.295,1.2223 3.9933,2.4715 5.5004,3.9927 -1.2768,-1.3852 -1.2552,-2.9377 -0.86934,-4.3866 0.59791,-2.2405 1.9281,-5.8539 2.7618,-7.3427 0.30705,-0.54826 0.70476,-0.74523 1.3037,-0.32594 0.63353,0.44358 1.1634,0.783 1.7883,1.3264"
     fill="#fff4cc"
     id="path54"
     style="stroke-width:0.53963" />
  <path
     d="m 57.84442,93.858 c -4.4649,-2.7699 -13.727,-5.5868 -21.062,-6.7157 0,0 -0.03561,0.12142 -0.0518,0.16782 -3.806,1.5504 -12.702,4.9069 -16.626,6.2905 -0.35022,1.4548 -0.67993,3.1174 -0.85585,4.4892 0.54287,3.0149 1.6556,6.5495 2.3976,8.5958 0.75656,1.014 2.1564,2.1132 3.4882,2.8913 0.07231,-0.56175 0.13761,-1.144 0.19696,-1.75 0.26496,-2.6928 0.81484,-4.8896 3.0964,-6.2208 8.6044,-5.0186 20.659,-2.8028 27.162,2.8255 1.8855,1.6313 2.506,3.9711 1.3852,6.4372 -0.15379,0.33834 -0.2941,0.67184 -0.42523,1.0016 2.485,-0.95461 4.9705,-2.0894 6.6725,-2.9755 0.83157,-0.43278 1.2983,-0.92385 1.7565,-1.9918 0.42685,-0.99616 0.86071,-2.24 1.2455,-3.4736 -1.9421,-3.779 -4.9905,-7.469 -8.3799,-9.5714"
     id="path55"
     style="fill:#dbc77f;stroke-width:0.53963" />
  <path
     d="m 20.78442,93.42 c -0.2002,0.91036 -0.39231,2.0452 -0.47595,2.982 -0.11818,1.3237 0.674,2.0344 2.0107,1.5039 2.6431,-1.0507 5.229,-1.9767 7.9272,-2.8099 2.5676,-0.79218 3.7833,-2.0884 4.1292,-3.9112 0.17808,-0.94004 0.3853,-1.9691 0.6087,-3.1746 -4.1827,1.6621 -10.046,3.8875 -14.2,5.4098"
     id="path56"
     style="fill:#ac9d62;stroke-width:0.53963;fill-opacity:1" />
  <path
     d="m 67.27842,99.568 c 0.27413,-1.226 0.26766,-2.0063 -0.36209,-2.9701 -0.67993,-1.0393 -1.5752,-2.3717 -2.5039,-3.7418 -0.53909,-0.76735 -1.6615,-1.763 -2.4758,-2.288 -0.57686,-0.37127 -0.97565,-0.26982 -1.3037,0.32594 -0.97781,1.7748 -2.39,5.7039 -2.825,7.6595 -0.4344,1.9562 -0.0653,3.0532 1.0501,4.201 1.0345,1.0652 3.5076,3.9528 4.9036,5.8102 0.51535,-0.37288 0.86934,-0.851 1.2169,-1.6631 0.92385,-2.1547 1.8838,-5.4686 2.2999,-7.3336"
     id="path57"
     style="fill:#dbc77f;stroke-width:0.53963" />
  <path
     d="m 37.81042,84.242 c 2.1132,-1.7263 5.1999,-2.778 8.5164,-1.9821 1.7597,0.42253 4.0699,1.1025 6.209,1.8347 5.1697,1.7684 6.9952,4.5469 6.4853,6.9456 -0.48944,2.2994 -1.2131,4.201 -2.3177,6.6094 -0.6999,1.5255 -1.8952,1.7381 -3.3921,1.0145 -3.1455,-1.5218 -9.3739,-3.3689 -14.264,-4.2739 -2.6793,-0.49592 -3.4693,-1.4252 -3.1509,-3.4768 0.143,-0.92007 0.46624,-2.2848 0.82402,-3.6803 z"
     fill="#ffe792"
     id="path58"
     style="stroke-width:0.53963" />
  <path
     d="m 58.85842,102.76 c -1.6076,-1.5995 -3.813,-3.1234 -5.5469,-4.092 -2.921,-1.6324 -10.046,-3.4882 -14.264,-4.2739 -3.0996,-0.57686 -5.8113,-0.15056 -8.8008,0.70638 -2.0711,0.59413 -6.052,2.0495 -8.0578,2.8611 -2.0468,0.82833 -2.5767,1.5698 -2.4046,2.2929 l -0.04857,0.11818 c 0.57794,2.3782 1.3496,4.7719 1.9098,6.3169 0.75656,1.014 2.1564,2.1126 3.4882,2.8913 0.07231,-0.56175 0.13761,-1.144 0.19696,-1.7506 0.26496,-2.6928 0.81484,-4.889 3.0964,-6.2203 8.6044,-5.0191 20.659,-2.8028 27.162,2.825 1.8855,1.6318 2.506,3.9717 1.3852,6.4378 -0.15379,0.33835 -0.2941,0.6713 -0.42523,1.0016 2.485,-0.9546 4.9705,-2.0894 6.6725,-2.9755 0.17754,-0.0923 0.33781,-0.18779 0.48513,-0.29032 -1.4122,-1.9788 -3.4326,-4.439 -4.8491,-5.8485"
     fill="#877b4c"
     id="path59"
     style="stroke-width:0.53963" />
  <path
     d="m 44.82442,115.52 c -0.74955,-0.85046 -1.3485,-2.185 -1.0695,-3.8961 1.5191,0.15326 2.3031,2.6323 1.0695,3.8961 m 9.6335,-5.0229 c -1.1181,-1.4716 -3.3538,-3.9765 -4.8259,-5.2074 -2.1655,0.41012 -4.4579,0.84884 -6.4389,1.4435 -0.708,2.1083 -1.7408,5.4762 -2.1655,7.6136 1.4435,1.6275 3.6371,3.9485 5.378,5.42 1.8536,-0.31137 4.146,-0.83535 5.8021,-1.3021 0.83481,-2.151 1.7829,-5.7454 2.2503,-7.9676"
     fill="#b4b5b5"
     id="path60"
     style="stroke-width:0.53963" />
  <path
     d="m 39.04642,114.18 c 1.1602,1.3442 3.5945,3.7785 4.7692,4.854 0.72148,0.25525 1.5844,0.50941 2.5897,0.73606 -1.7408,-1.4716 -3.9339,-3.7925 -5.378,-5.42 z"
     fill="#595857"
     id="path61"
     style="stroke-width:0.53963" />
  <path
     d="m 41.02642,114.35 c 0.42469,-2.1375 1.4575,-5.5053 2.1655,-7.6136 -0.53747,0.14084 -1.6702,0.39609 -2.1655,0.5515 -0.59467,1.6275 -1.5568,4.9533 -1.981,6.8922 z"
     fill="#888888"
     id="path62"
     style="stroke-width:0.53963" />
  <path
     d="m 44.26042,99.258 c -3.3641,-0.66536 -8.8316,2.2357 -11.515,9.0054 -2.8223,7.1247 -6.0028,10.431 -12.359,15.266 2.1731,-2.5535 4.8351,-7.578 5.3785,-12.549 0.60223,-5.5129 0.85693,-8.0761 3.3846,-9.7716 2.4008,-1.6108 9.6934,-3.2005 15.11,-1.9508"
     id="path63"
     style="fill:#595857;stroke-width:0.53963" />
  <path
     d="m 56.41242,105.29 c 1.4608,1.8995 -0.28007,4.1751 -1.2854,7.4852 -1.4667,4.8302 -1.1953,7.6557 1.1408,11.376 -2.7974,-1.8472 -3.7207,-4.3845 -3.5718,-7.0665 0.54395,-1.5935 1.3037,-4.5998 1.7608,-6.5878 -0.24931,-0.34428 -0.45707,-0.6195 -0.77976,-0.97619 0.23366,-3.9285 -2.1375,-7.8004 -4.9786,-9.0507 2.8703,1.15 6.4696,3.2011 7.714,4.8194"
     id="path64"
     style="fill:#595857;stroke-width:0.53963" />
  <path
     d="m 58.17042,126.33 c 6.7092,2.0916 11.963,8.9255 11.082,14.206 -0.70584,4.2334 -4.1147,5.7751 -7.2521,5.7044 -2.2038,-0.0502 -3.0241,-1.0636 -3.07,-1.9562 -0.05073,-0.99292 0.5828,-1.9281 3.3414,-2.8789 5.4071,-1.865 3.9485,-10.104 -4.1017,-15.075"
     id="path65"
     style="fill:#595857;stroke-width:0.53963" />
  <path
     d="m 28.40042,147.89 c 0.32594,-4.5356 2.1342,-7.9331 7.6595,-9.2892 4.7207,-1.1586 8.9368,-0.24445 11.599,3.8837 -3.1541,-2.553 -6.5452,-3.3187 -11.121,-2.2233 -3.9803,0.95245 -6.5883,3.9668 -8.1371,7.6288"
     id="path66"
     style="fill:#595857;stroke-width:0.53963" />
  <path
     d="m 14.60042,130.18 c -7.6595,5.5684 -10.702,10.403 -11.843,15.211 -0.29788,1.2546 0.36965,1.4619 1.3038,1.1953 6.2182,-1.7765 10.783,-1.6567 16.677,0.10901 1.6534,0.49484 2.6987,-0.7992 1.0868,-2.526 -1.1413,-1.2228 -2.961,-2.2821 -5.2695,-2.9064 -3.8324,-1.0372 -6.0962,-5.8253 -1.9556,-11.082"
     id="path67"
     style="fill:#595857;stroke-width:0.53963" />
  <path
     d="m 56.23842,112.59 c 3.5065,1.0517 10.391,2.635 13.919,2.8644 1.8687,-3.854 4.9635,-10.161 6.7152,-13.898 -1.722,-3.7083 -5.2846,-11.358 -7.2408,-14.979 -2.8519,-0.77545 -7.2801,-1.8132 -10.071,-2.3668 0.14246,0.70638 0.30003,1.5498 0.34806,1.9265 -0.12897,0.22341 -0.26334,0.56122 -0.40472,0.83265 1.0372,0.59197 1.6869,1.1392 2.2492,1.9918 1.5056,2.2821 4.0095,5.8528 5.1632,7.6422 0.52506,0.81538 0.62273,1.4041 0.4166,2.6436 -0.30813,1.8472 -1.6437,5.978 -2.3544,7.6601 -0.48135,1.1413 -0.86395,1.5266 -1.7565,1.9918 -2.118,1.1046 -4.8885,2.2745 -6.6725,2.9755 -0.11818,0.24769 -0.21531,0.47433 -0.31137,0.71447"
     fill="#2f2826"
     id="path68"
     style="stroke-width:0.53963" />
  <path
     d="m 70.15842,115.45 c 2.3987,-0.94435 5.8679,-2.4235 8.7706,-3.7364 1.0577,-1.4494 2.928,-3.2194 4.3025,-4.0159 1.5142,-2.8174 3.7423,-7.0837 4.7957,-9.6783 -3.3284,1.2843 -8.1171,2.7446 -11.154,3.533 -1.7516,3.7369 -4.8464,10.044 -6.7152,13.898"
     fill="#2f2826"
     id="path69"
     style="stroke-width:0.53963" />
  <path
     d="m 63.64642,78.69 c -1.5725,0.82617 -3.4374,1.7986 -4.7504,2.4952 0.13275,0.56337 0.42577,1.9837 0.66482,3.0214 2.791,0.55312 7.2192,1.5914 10.071,2.3663 3.3576,-1.4597 7.591,-3.4741 10.54,-4.8756 -3.942,-1.3431 -10.832,-2.5406 -16.526,-3.0074"
     fill="#595857"
     id="path70"
     style="stroke-width:0.53963" />
  <path
     d="m 69.63242,86.573 c 1.9562,3.6204 5.5188,11.27 7.2408,14.979 3.0365,-0.7884 7.8252,-2.2486 11.154,-3.533 -1.1974,-3.4455 -5.1972,-12.059 -7.8543,-16.321 -2.9491,1.4014 -7.1819,3.4159 -10.54,4.8756"
     fill="#3e3a39"
     id="path71"
     style="stroke-width:0.53963" />
  <path
     d="m 62.73242,88.118 c 1.035,0.62111 2.0808,1.7187 2.7645,2.7332 -0.72526,0.27953 -1.3021,0.54449 -1.8887,0.82132 -0.62759,-0.93518 -2.0776,-3.1304 -2.812,-3.8654 0.57956,0.04155 1.2633,0.12412 1.9362,0.31083"
     fill="#3e3a39"
     id="path72"
     style="stroke-width:0.53963" />
  <path
     d="m 74.90642,120.39 c -1.0485,1.3701 -2.3835,3.0182 -3.4191,3.949 -1.3108,-1.3901 -2.4332,-3.3457 -3.0468,-5.0563 0.97241,-1.3561 2.4974,-3.3349 3.4547,-4.4617 0.61626,1.0593 2.2319,3.2453 3.3182,4.3187 -0.10846,0.40742 -0.19319,0.76195 -0.30705,1.2503"
     fill="#2f2826"
     id="path73"
     style="stroke-width:0.53963" />
  <path
     d="m 75.21442,119.14 c -1.0868,-1.0728 -2.7025,-3.2594 -3.3182,-4.3187 1.4575,-0.69234 5.4756,-2.4143 7.0319,-3.1083 -1.3777,1.5736 -3.0754,5.0504 -3.7137,7.4269"
     fill="#3e3a39"
     id="path74"
     style="stroke-width:0.53963" />
  <path
     d="m 67.76042,115.15 c 0.72364,0.77383 1.4726,1.5471 2.0301,2.329 0.57363,-0.79811 1.5482,-2.0884 2.2298,-2.8449 -0.56607,0.31623 -1.2967,0.63677 -1.8628,0.81916 -0.87474,-0.0701 -1.5487,-0.16189 -2.397,-0.30327"
     fill="#b4b5b5"
     id="path75"
     style="stroke-width:0.53963" />
  <path
     d="m 86.89042,140.35 c 3.6576,0.90604 11.01,1.7748 15.428,1.92 0.4711,-0.94219 1.4122,-2.934 2.0641,-4.7811 -4.3456,-0.57902 -13.364,-1.7743 -17.166,-2.5346 -0.14462,1.5207 -0.25363,3.8028 -0.32594,5.3958"
     fill="#2f2826"
     id="path76"
     style="stroke-width:0.53963" />
  <path
     d="m 108.83662,104.46 c -6.012,-1.8105 -13.074,-2.7526 -16.405,-2.2092 -0.5801,2.5352 -1.6302,8.0038 -2.2459,11.191 5.2517,0.39825 14.848,1.8833 19.991,3.2227 -0.14462,-3.9836 -0.61518,-9.5612 -1.3399,-12.205"
     fill="#595857"
     id="path77"
     style="stroke-width:0.53963" />
  <path
     d="m 90.18642,113.44 c -1.0868,5.6132 -2.5352,15.935 -2.9701,21.512 3.8028,0.76034 12.821,1.9556 17.167,2.5352 1.702,-5.6138 4.3456,-15.573 5.7945,-20.824 -5.1427,-1.3399 -14.74,-2.825 -19.991,-3.2232"
     fill="#3e3a39"
     id="path78"
     style="stroke-width:0.53963" />
  <path
     d="m 16.71242,113.88 c 2.1947,1.2466 3.9139,3.2966 4.4174,6.7125 0.68263,-0.95677 1.2563,-1.8984 1.7381,-2.859 -0.56337,-2.6928 -3.2399,-5.419 -5.5253,-6.0239 -0.53423,-0.14192 -0.96702,0.17592 -1.2185,0.57416 -0.28492,0.45114 -0.08094,1.2163 0.5882,1.5962"
     fill="#e73821"
     id="path79"
     style="stroke-width:0.53963" />
  <path
     d="m 24.12442,149.56 c -1.0609,-0.62489 -3.036,-0.90388 -5.0569,-0.8429 -3.3862,0.10145 -6.8296,-0.0583 -8.7916,-0.40688 -3.6317,-0.64594 -6.6439,-0.62435 -7.1636,0.50833 -0.0162,0.034 -0.0313,0.0799 -0.0464,0.13706 2.227,0.68372 6.8646,1.7284 8.7792,2.0285 3.6182,-0.0437 9.3728,-0.8429 12.279,-1.4241"
     fill="#595857"
     id="path80"
     style="stroke-width:0.53963" />
  <path
     d="m 24.12442,149.56 c -2.9064,0.58118 -8.6611,1.3804 -12.279,1.4241 -0.1743,1.8164 -0.27629,4.432 -0.31946,6.5392 2.8336,0.1743 9.1111,-1.1624 12.555,-2.7467 0.08742,-1.3949 0.13059,-3.7639 0.04371,-5.2166"
     fill="#2f2826"
     id="path81"
     style="stroke-width:0.53963" />
  <path
     d="m 3.06042,148.95 c -0.22718,0.84452 -0.41498,4.0958 -0.38799,5.9208 2.0786,0.76951 6.2468,1.9491 8.8483,2.6469 0.0432,-2.1073 0.14462,-4.7228 0.31946,-6.5392 -1.9146,-0.30004 -6.5527,-1.3442 -8.7798,-2.0285"
     fill="#3e3a39"
     id="path82"
     style="stroke-width:0.53963" />
  <path
     d="m 67.75242,148.24 c 0.96486,-0.53315 2.2362,-1.2935 2.9054,-1.9065 -0.72634,-0.0567 -1.7927,-0.35184 -2.4402,-0.58982 -3.5232,1.3469 -5.7579,1.804 -8.3065,1.5773 -1.5325,-0.13599 -3.2917,-0.23852 -4.4487,0.034 0.88499,0.28384 1.7813,0.52182 2.8935,0.78354 2.7802,0.13545 7.1954,0.21531 9.3966,0.10145"
     fill="#595857"
     id="path83"
     style="stroke-width:0.53963;fill:#3e3a39;fill-opacity:1" />
  <path
     d="m 55.46242,147.36 c -0.26064,1.1235 -0.45437,2.7235 -0.45437,4.0397 1.0901,0.42037 2.1682,0.80567 3.1779,1.2034 0.04533,-1.226 0.13653,-3.3932 0.16998,-4.46 -1.1116,-0.26118 -2.008,-0.49969 -2.8935,-0.783"
     fill="#2f2826"
     id="path84"
     style="stroke-width:0.53963;fill:#595857;fill-opacity:1" />
  <path
     d="m 70.65842,146.33 c -0.66914,0.61302 -1.9405,1.3734 -2.9054,1.9065 -0.03346,1.4986 -0.16998,3.0527 -0.34051,4.2561 1.2147,-0.55581 2.179,-1.1688 3.2124,-1.9065 0.07933,-1.0102 0.11278,-3.166 0.03346,-4.2561"
     fill="#3e3a39"
     id="path85"
     style="stroke-width:0.53963;fill:#2f2826;fill-opacity:1" />
  <path
     d="m 58.35642,148.14 c -0.03346,1.0668 -0.12466,3.234 -0.16998,4.46 2.5195,0.12466 6.9002,0.0335 9.2261,-0.10253 0.17052,-1.2028 0.30705,-2.7575 0.34051,-4.2561 -2.2012,0.11386 -6.6164,0.0345 -9.3966,-0.10145"
     fill="#2f2826"
     id="path86"
     style="stroke-width:0.53963;fill:#3e3a39;fill-opacity:1" />
  <path
     d="m 47.87642,107.99 c -2.0312,0 -3.7769,1.5094 -4.1228,3.6312 1.5196,0.15379 2.3037,2.6323 1.0701,3.8961 0.71609,0.81268 1.7349,1.3318 2.9534,1.3318 2.4057,0 4.2177,-1.8596 4.2177,-4.486 0,-2.2896 -1.7155,-4.3732 -4.1185,-4.3732"
     fill="#3e3a39"
     id="path87"
     style="stroke-width:0.53963;fill:#888888;fill-opacity:1" />
  <path
     d="m 44.00242,110.72 c -0.11008,0.286 -0.19589,0.58712 -0.24769,0.90388 1.5191,0.15326 2.3037,2.6323 1.0695,3.8961 0.16944,0.19157 0.35616,0.36479 0.55744,0.52074 1.5374,-1.9875 0.53693,-4.63 -1.3793,-5.3208"
     fill="#3e3a39"
     id="path88"
     style="stroke-width:0.53963" />
  <path
     d="m 47.87642,107.99 c -1.7198,0 -3.2308,1.0836 -3.8654,2.7036 2.3614,1.1106 2.5972,3.9285 1.3696,5.345 0.20128,0.12681 0.38961,0.21316 0.53693,0.28115 0.56337,0.0534 1.26,-0.0804 1.6782,-0.37127 0.9314,-0.64755 2.5578,-0.92384 3.5454,-0.79217 0.53747,-0.74739 0.85369,-1.7031 0.85369,-2.7931 0,-2.2896 -1.7155,-4.3732 -4.1185,-4.3732"
     fill="#595857"
     id="path89"
     style="stroke-width:0.53963" />
  <path
     d="m 47.87642,107.99 c -1.253,0 -2.3965,0.57579 -3.1709,1.5147 4.0623,0.4452 4.5982,3.4882 3.8756,4.8939 0.93572,-0.33889 2.2109,-0.40365 2.9858,-0.0156 l 0.04317,-0.0648 c 0.24553,-0.58118 0.38476,-1.2379 0.38476,-1.9551 0,-2.2896 -1.7155,-4.3732 -4.1185,-4.3732"
     fill="#3e3a39"
     id="path90"
     style="stroke-width:0.53963" />
  <path
     d="m 49.63242,105.29 c -2.1655,0.41012 -4.4579,0.84884 -6.4394,1.4435 -0.10631,0.3173 -0.22071,0.66482 -0.33889,1.0307 0.02159,-0.003 0.04263,-0.008 0.06368,-0.0113 4.1363,-0.99723 7.7092,-0.37558 11.521,2.7197 -1.1235,-1.4743 -3.3425,-3.9582 -4.8065,-5.1826"
     fill="#888888"
     id="path91"
     style="stroke-width:0.53963" />
  <path
     d="m 42.85442,107.77 c 0.11818,-0.36587 0.23258,-0.71339 0.33889,-1.0307 -0.53747,0.14138 -1.6702,0.39609 -2.1655,0.5515 -0.10037,0.27629 -0.21207,0.6033 -0.32971,0.96216 0.71285,-0.17916 1.4262,-0.37127 2.1564,-0.48297"
     fill="#595857"
     id="path92"
     style="stroke-width:0.53963" />
  <path
     d="m 28.28042,63.818 -0.0076,0.0032 c 0.18725,1.2924 0.09336,2.8277 -0.38907,4.5394 -1.8855,6.6866 -8.0216,10.105 -12.522,10.105 -3.7423,0 -6.0487,-2.0053 -7.4879,-6.3072 1.1861,4.6225 5.2873,10.055 8.8413,12.447 2.7025,-1.0603 5.6176,-2.2556 8.6805,-3.5054 3.1849,-4.3095 4.3187,-12.538 2.8843,-17.282"
     fill="#3e3a39"
     id="path93"
     style="stroke-width:0.53963" />
  <path
     d="m 22.15842,119.01 c -0.91953,-3.5799 -3.5065,-5.9365 -6.0503,-6.7027 -0.2628,0.45382 -0.05666,1.1974 0.60007,1.5703 2.1952,1.2465 3.9139,3.2971 4.4174,6.713 0.37774,-0.52992 0.71879,-1.0544 1.0329,-1.5806"
     fill="#c82f1a"
     id="path94"
     style="stroke-width:0.53963" />
  <path
     d="m 55.59042,85.218 c 0.0831,-3.6269 -0.98968,-6.0849 -3.5216,-8.1123 l 0.76627,0.24661 c 2.1515,1.8795 3.0883,4.2296 3.0705,7.4507 z"
     fill="#5a4f2b"
     id="path95"
     style="stroke-width:0.53963" />
  <path
     d="m 54.47842,84.71 c 0.58496,-2.7786 -1.035,-5.8248 -3.2831,-6.9056 l 0.45545,0.60438 c 2.0382,1.3086 2.9453,4.0872 2.5357,6.1723 l 0.29194,0.12897"
     fill="#5a4f2b"
     id="path96"
     style="stroke-width:0.53963" />
  <path
     d="m 46.21842,42.874 c 1.7716,1.0107 4.5178,2.3679 6.5139,3.3921 3.452,-1.9259 10.164,-6.9062 12.763,-10.283 1.0728,-6.243 1.3199,-16.047 0.93464,-22.065 -4.384,-4.6473 -11.897,-10.849 -17.129,-13.374 -5.0094,1.4435 -8.5834,2.5028 -12.581,3.9442 -0.80513,3.9188 -1.6615,10.245 -1.8213,14.888 l -0.48081,0.24229 c 0.11224,-4.8998 1.0037,-11.184 1.8083,-15.296 0.03346,-0.1689 0.05828,-0.20452 0.23474,-0.2682 3.9593,-1.4262 7.7415,-2.5983 12.69,-4.0256 0.14948,-0.04371 0.19157,-0.040472 0.34105,0.032378 5.2317,2.5541 12.878,8.8704 17.265,13.504 0.09875,0.10415 0.12573,0.14354 0.13653,0.32594 0.37504,6.0093 0.14138,15.886 -0.91252,22.117 -0.02536,0.1511 -0.0572,0.20884 -0.1376,0.31137 -2.6507,3.3759 -9.4565,8.4517 -12.923,10.406 -0.16405,0.09282 -0.23096,0.0939 -0.38799,0.01133 -2.0382,-1.0695 -5.0547,-2.5891 -6.8107,-3.5831 z"
     id="path97"
     style="fill:#0f141b;stroke-width:0.53963" />
  <path
     d="m 50.22642,40.462 c 1.6097,0.2601 3.7483,-0.26064 5.4724,-1.627 1.4791,-1.1721 1.7079,-3.0516 2.478,-4.4908 0.58334,-1.0901 3.1978,-2.3738 3.895,-4.6926 0.77599,-2.58 -0.35346,-4.2161 -0.36803,-5.8458 -0.01187,-1.3345 1.2876,-3.5373 0.31838,-5.8107 -1.0809,-2.5341 -3.4364,-2.5767 -4.7018,-3.6004 -1.2989,-1.0496 -2.0155,-3.5983 -4.3872,-4.2334 -3.0975,-0.83049 -3.5432,1.43 -5.8204,1.7964 -2.4909,0.40041 -3.5837,-1.3696 -6.6396,0.18294 -1.9378,0.98482 -2.5794,2.4623 -2.9404,3.6398 -0.50186,1.6351 -1.967,3.6074 -2.8185,3.9301 -3.4288,1.2989 -9.6475,1.9556 -11.923,1.5061 -0.05558,-0.01133 -0.09659,-0.05882 -0.09875,-0.11602 -0.21369,-4.1578 1.0134,-9.4236 2.0166,-12.976 0.0086,-0.032378 0.03076,-0.059359 0.06044,-0.075009 3.7904,-2.0063 9.423,-4.4131 13.013,-5.5566 2.6938,-0.76088 8.3734,-2.1002 11.529,-2.4915 L 48.412,0.663101 c -3.2238,0.48297 -8.0265,1.6313 -10.502,2.3301 -3.5594,1.1338 -9.0016,3.4374 -12.78,5.4325 -0.98644,3.5054 -2.0722,8.3724 -1.9454,12.356 2.1472,0.37558 8.2903,-0.286 11.395,-1.4624 0.48836,-0.18455 2.0549,-1.968 2.5762,-3.6689 0.41552,-1.3534 0.99454,-2.8627 3.1045,-3.9377 3.214,-1.6372 4.6014,0.19696 6.7993,-0.14408 1.9794,-0.30705 2.6982,-2.8001 6.0136,-1.8639 2.6016,0.73444 3.2734,3.3894 4.4913,4.3845 1.1149,0.9109 3.7704,1.0663 4.8971,3.7154 1.0145,2.383 -0.3826,4.7746 -0.36533,6.0012 0.01835,1.3334 1.2336,3.3446 0.43062,5.9931 -0.74901,2.4677 -3.4822,3.6986 -4.0035,4.7293 -0.67993,1.3426 -0.94921,3.438 -2.5228,4.6737 -2.0285,1.593 -4.6543,2.0042 -6.339,1.6486 z"
     id="path98"
     style="fill:#0f141b;stroke-width:0.53963" />
  <path
     d="m 33.04642,48.056 c 7.6854,-1.7085 19.23,-8.3567 22.789,-12.41 5.7865,-6.5905 6.1102,-13.883 3.4002,-17.986 -0.42847,-0.64918 -0.18725,-0.80675 0.2547,-0.16782 2.7958,4.044 2.6695,11.71 -3.2934,18.501 -3.5842,4.0823 -15.334,10.84 -23.061,12.554 z"
     id="path99"
     style="fill:#0f141b;stroke-width:0.53963" />
  <path
     d="m 22.93042,20.531 c -4.0095,2.3193 -10.041,11.201 -10.804,16.713 l -0.52182,0.16675 c 0.63892,-5.8086 6.9499,-14.955 11.324,-17.459 z"
     id="path100"
     style="fill:#0f141b;stroke-width:0.53963" />
  <path
     d="m 52.81042,46.779 c -2.9566,0.65565 -9.9508,1.334 -12.91,0.95568 -0.0076,-0.0011 -0.01565,-0.0027 -0.0232,-0.0054 -0.69558,-0.23204 -1.3431,-0.50401 -2.0684,-0.89147 L 38.424,46.59713 c 0.6195,0.32324 0.98213,0.46462 1.6027,0.67184 3.0759,0.38907 9.4565,-0.25524 12.48,-0.90334 z"
     id="path101"
     style="fill:#0f141b;stroke-width:0.53963" />
  <path
     d="m 10.67042,55.489 c -1.041,-0.55312 -2.1294,-1.1985 -2.9804,-1.7743 -0.13167,-0.08904 -0.15163,-0.12142 -0.17807,-0.27575 -0.35832,-2.1067 -0.78517,-5.1529 -1.0555,-7.3195 -0.0178,-0.14624 -0.0124,-0.18186 0.0254,-0.29518 0.86395,-2.587 2.4796,-6.563 3.0279,-7.9007 0.0599,-0.14624 0.0966,-0.1824 0.26549,-0.2369 1.9184,-0.62435 5.943,-1.552 9.1122,-2.192 0.11062,-0.02213 0.13976,-0.01943 0.25686,0.01511 3.7925,1.1095 9.103,3.6484 12.448,5.5442 0.12627,0.07177 0.1403,0.10037 0.1797,0.25093 0.66428,2.573 1.4732,6.1917 1.7646,8.4625 0.01295,0.10415 0.0059,0.14462 -0.03292,0.24715 -0.76735,2.0474 -1.8391,5.2522 -2.58,7.8214 -0.04695,0.16189 -0.09605,0.18509 -0.27467,0.21801 -1.5768,0.29032 -3.1833,0.51157 -4.6915,0.63407 l -0.07663,-0.42415 c 1.5336,-0.12304 3.0516,-0.34266 4.6548,-0.64 0.75009,-2.608 1.7916,-5.7632 2.5654,-7.8198 -0.28546,-2.2762 -1.0771,-5.76 -1.7484,-8.3513 -3.3522,-1.9033 -8.5623,-4.4282 -12.356,-5.5253 -3.2205,0.64864 -7.169,1.5574 -9.0512,2.1823 -0.5229,1.2751 -2.1823,5.2905 -3.0505,7.911 0.27197,2.1941 0.67723,5.1918 1.0431,7.3293 0.82348,0.56229 1.7338,1.13 2.758,1.6777 z"
     id="path102"
     style="fill:#0f141b;stroke-width:0.53963" />
  <path
     d="m 30.51042,57.876 c -0.43278,-2.6728 -1.1224,-6.0277 -1.7592,-8.6357 -2.6706,-1.2795 -8.9573,-4.0807 -12.388,-5.5906 -2.8136,0.57632 -7.5672,1.8612 -9.6594,2.5524 l 0.007,-0.46138 c 2.1132,-0.69235 6.7621,-1.9373 9.5601,-2.5163 0.1403,-0.02914 0.17592,-0.02968 0.32702,0.0367 3.4391,1.5147 9.7317,4.3295 12.403,5.6084 0.11818,0.05612 0.14084,0.07447 0.18132,0.24068 0.61356,2.5228 1.2546,5.7794 1.6869,8.3956 z"
     id="path103"
     style="fill:#0f141b;stroke-width:0.53963" />
  <path
     d="m 31.66042,41.608 c -0.61626,2.0619 -1.8218,5.6397 -2.6059,7.748 l -0.2941,-0.38638 c 0.80621,-2.1693 1.981,-5.7087 2.6091,-7.8338 z"
     id="path104"
     style="fill:#0f141b;stroke-width:0.53963" />
  <path
     d="m 19.19842,35.759 c -0.65727,1.8936 -1.9788,5.7568 -2.6221,7.7388 l -0.38746,-0.12196 c 0.6373,-1.9626 1.9178,-5.7336 2.5811,-7.6482 z"
     id="path105"
     style="fill:#0f141b;stroke-width:0.53963" />
  <path
     d="m 19.10042,47.637 c 3.7207,0.88985 6.7011,3.8988 6.502,9.4144 -0.06907,1.9065 0.32216,2.7359 1.3561,4.0613 1.2816,1.6437 1.4689,4.3721 0.67562,7.1846 -1.8504,6.5624 -7.8543,9.9443 -12.272,9.9443 -4.3343,0 -6.8144,-2.8698 -8.1241,-9.5272 -0.43116,-2.1925 0.11818,-6.0671 2.6971,-9.1608 0.52992,-0.63622 0.91468,-1.4354 0.93356,-2.7823 0.0324,-2.3021 0.2396,-4.4363 0.64486,-6.5614 0.33241,-1.7441 3.2173,-3.6188 7.5872,-2.573 m 9.021,20.796 c 0.87204,-3.0926 0.54988,-5.8982 -0.78624,-7.6109 -0.98321,-1.26 -1.3259,-1.9286 -1.26,-3.7531 0.19966,-5.5237 -2.6598,-8.9077 -6.8598,-9.913 -4.4212,-1.0588 -7.7475,0.76304 -8.1673,2.9663 -0.40742,2.1396 -0.62003,4.3127 -0.65295,6.6288 -0.0146,1.0442 -0.28115,1.8472 -0.81754,2.4909 -2.615,3.1374 -3.3344,7.0281 -2.8384,9.5477 1.3469,6.8474 3.806,9.8968 8.6217,9.8968 4.7682,0 10.875,-3.5643 12.761,-10.254"
     id="path106"
     style="fill:#0f141b;stroke-width:0.53963" />
  <path
     d="m 10.03042,59.062 c -0.70314,0.24283 -1.2967,0.47757 -1.9896,0.80729 -1.7624,3.4121 -5.1837,11.571 -6.6515,15.827 3.3166,3.2097 8.4198,8.177 11.074,10.288 5.2269,-2.0047 14.417,-5.6132 18.606,-7.6579 1.6712,-4.4341 4.3419,-13.102 4.9392,-16.646 -1.6097,-1.137 -3.8648,-2.6895 -5.5652,-3.7321 l 0.35454,-0.31406 c 1.6745,1.0312 3.9361,2.5638 5.5237,3.6835 0.18401,0.12951 0.18887,0.16405 0.15433,0.36263 -0.62219,3.5842 -3.3716,12.39 -4.9759,16.802 -0.05612,0.15433 -0.09174,0.19535 -0.2002,0.24769 -3.9938,1.9437 -12.406,5.2743 -18.741,7.7054 -0.177,0.06745 -0.21801,0.0572 -0.34861,-0.04695 -2.656,-2.1234 -7.9126,-7.1711 -11.224,-10.375 -0.15703,-0.15218 -0.17646,-0.2083 -0.11062,-0.39717 1.4748,-4.2539 4.9705,-12.546 6.7416,-15.998 0.0675,-0.13113 0.0977,-0.16297 0.25525,-0.23366 0.69342,-0.31083 1.5379,-0.60385 2.4192,-0.88715 z"
     id="path107"
     style="fill:#0f141b;stroke-width:0.53963" />
  <path
     d="m 36.47642,61.455 c 2.2233,3.0748 4.4228,6.7044 5.8852,9.1354 0.07177,0.11926 0.08958,0.17808 0.04317,0.3254 -1.4575,4.6295 -3.8913,12.4 -5.4276,16.411 -0.06044,0.15703 -0.09497,0.18779 -0.25201,0.25147 -5.1632,2.0932 -14.539,5.6289 -18.739,7.1112 -0.17052,0.0599 -0.19696,0.06206 -0.3227,-0.03777 -2.2341,-1.7754 -5.7206,-4.8604 -10.53,-9.3275 -0.0901,-0.0831 -0.11764,-0.11818 -0.1743,-0.20344 -1.797,-2.6615 -4.493,-6.7465 -6.1,-9.2768 l 0.70854,0.19427 c 1.6362,2.5665 4.0974,6.3288 5.8172,8.8742 4.8642,4.5183 8.2499,7.4836 10.489,9.2611 4.187,-1.4764 13.506,-4.963 18.673,-7.0611 1.5406,-4.0003 3.935,-11.672 5.3844,-16.304 -1.4424,-2.3992 -3.547,-5.9187 -5.7573,-8.9892 z"
     id="path108"
     style="fill:#0f141b;stroke-width:0.53963" />
  <path
     d="m 17.44842,94.319 c -1.5968,-2.2735 -3.7213,-5.4951 -5.2619,-8.0178 l 0.46084,-0.13491 c 1.5811,2.5886 3.5999,5.6882 5.3963,8.2369 z"
     id="path109"
     style="fill:#0f141b;stroke-width:0.53963" />
  <path
     d="m 36.53042,87.429 c -1.3928,-2.649 -3.4434,-5.937 -5.4697,-8.79 l 0.3513,-0.30489 c 2.0101,2.8304 4.0618,6.1313 5.4578,8.7733 z"
     id="path110"
     style="fill:#0f141b;stroke-width:0.53963" />
  <path
     d="m 56.63442,111.64 c 2.2303,-0.86125 4.6435,-1.9702 6.4988,-2.9356 0.8429,-0.43926 1.2206,-0.89093 1.6518,-1.8968 0.89471,-2.0884 1.8347,-5.2986 2.2783,-7.285 0.25632,-1.1467 0.27305,-1.8855 -0.33943,-2.8228 -1.2465,-1.9076 -3.6911,-5.4567 -5.2706,-7.7734 -0.54557,-0.79919 -0.87636,-1.0712 -2.172,-1.7775 -5.2878,-2.8843 -15.262,-5.5134 -20.329,-6.1869 l 0.13437,-0.40688 c 5.1065,0.69019 15.125,3.3015 20.415,6.1869 1.103,0.60223 1.743,1.0577 2.3323,1.9222 1.58,2.3177 4.0078,5.9187 5.2565,7.8279 0.64648,0.98968 0.67885,1.8347 0.39069,3.1261 -0.44627,1.9966 -1.4144,5.2711 -2.315,7.3735 -0.46354,1.0798 -0.98105,1.6351 -1.8563,2.0911 -1.9195,0.99832 -4.5556,2.1564 -6.8452,3.0311 z"
     id="path111"
     style="fill:#0f141b;stroke-width:0.53963" />
  <path
     d="m 25.09442,109.82 c -1.2341,-0.72095 -2.7607,-1.8763 -3.5718,-2.9426 -0.06422,-0.0842 -0.07986,-0.11872 -0.11224,-0.20992 -0.72041,-2.008 -1.8045,-5.4481 -2.3539,-8.4517 -0.02051,-0.10846 -0.01943,-0.14678 -0.0049,-0.25578 0.16297,-1.225 0.44196,-2.723 0.79811,-4.2183 l 0.46354,-0.13221 c -0.37936,1.5709 -0.6918,3.2076 -0.85585,4.4811 0.55096,3.0494 1.6502,6.5052 2.3755,8.5078 0.76843,1.0226 2.2481,2.1062 3.3306,2.7338 z"
     id="path112"
     style="fill:#0f141b;stroke-width:0.53963" />
  <path
     d="m 20.98842,93.341 c -0.22503,1.0053 -0.41012,2.1887 -0.4889,3.078 -0.11224,1.2568 0.6427,1.7446 1.7543,1.3021 2.8018,-1.1122 5.3904,-2.0182 7.9417,-2.8055 2.4148,-0.74577 3.5869,-1.8693 3.9814,-3.7639 0.22233,-1.0636 0.45275,-2.3371 0.58442,-3.0451 l 0.42145,-0.16782 c -0.13976,0.75494 -0.41282,2.2411 -0.62112,3.2874 -0.39933,2.0031 -1.6475,3.255 -4.2625,4.0623 -2.5454,0.78516 -5.1092,1.6831 -7.905,2.7937 -1.3523,0.53693 -2.4229,-0.11116 -2.2816,-1.6961 0.07663,-0.85316 0.25093,-1.9184 0.46246,-2.8962 z"
     id="path113"
     style="fill:#0f141b;stroke-width:0.53963" />
  <path
     d="m 46.16842,82.444 c -2.9415,-0.71015 -5.9651,0.0545 -8.3848,2.0603 l 0.1484,-0.59629 c 2.1315,-1.6723 4.684,-2.3463 7.2596,-2.0117 z"
     id="path114"
     style="fill:#0f141b;stroke-width:0.53963" />
  <path
     d="m 36.92242,87.177 c -0.44304,1.7225 -0.708,2.969 -0.83265,3.7693 -0.29626,1.9081 0.33889,2.7618 2.989,3.2529 5.0229,0.92978 11.181,2.7624 14.313,4.2868 1.4824,0.72202 2.5206,0.43332 3.1369,-0.9109 1.0183,-2.22 1.7878,-4.1886 2.2967,-6.584 0.51589,-2.4256 -1.5207,-4.9975 -6.3439,-6.6817 l 1.7905,0.31191 c 3.6765,1.716 5.4546,4.0186 4.9349,6.461 -0.51373,2.4175 -1.3081,4.4255 -2.3323,6.6596 -0.75602,1.647 -2.0743,1.8569 -3.6544,1.0928 -3.0586,-1.4797 -9.2935,-3.3441 -14.216,-4.2555 -2.7699,-0.51265 -3.6376,-1.4942 -3.2966,-3.6927 0.11926,-0.76735 0.37073,-1.9054 0.77707,-3.5006 z"
     id="path115"
     style="fill:#0f141b;stroke-width:0.53963" />
  <path
     d="m 64.20842,92.962 c -0.54718,-0.77923 -1.6016,-1.7301 -2.3722,-2.2265 -0.50186,-0.32378 -0.75818,-0.24931 -1.0339,0.25201 -0.9913,1.7991 -2.3916,5.7492 -2.8061,7.6126 -0.40904,1.8396 -0.06529,2.928 1.0032,4.0283 1.2983,1.3367 3.0462,3.4062 4.1395,4.9058 0.42307,0.58064 0.19373,0.71663 -0.23798,0.17646 -1.1359,-1.423 -2.9248,-3.5141 -4.1945,-4.8216 -1.2115,-1.2465 -1.5261,-2.4014 -1.0879,-4.3748 0.42631,-1.9189 1.8229,-5.855 2.8406,-7.7021 0.41174,-0.74793 0.90712,-0.83858 1.5552,-0.42145 0.51643,0.33295 1.1748,0.86611 1.736,1.4279 z"
     id="path116"
     style="fill:#0f141b;stroke-width:0.53963" />
  <path
     d="m 57.58042,111.28 c 2.9081,-1.2158 3.7898,-3.7024 1.6961,-6.1842 -3.4007,-4.03 -8.4582,-6.8846 -15.205,-8.5364 -7.9088,-1.9367 -16.414,0.34159 -19.077,3.1174 -2.5373,2.6453 -1.6011,6.4551 0.32702,8.2029 l -0.04263,0.43171 c -2.1947,-1.6934 -3.398,-5.9753 -0.58874,-8.9039 2.9259,-3.05 11.698,-5.1389 19.487,-3.2318 6.8506,1.6777 11.93,4.5307 15.41,8.6551 1.975,2.3404 1.5709,4.7666 -0.64972,6.1356 z"
     id="path117"
     style="fill:#0f141b;stroke-width:0.53963" />
  <path
     d="m 68.21842,145.74 c 1.5412,-1.1559 2.2211,-3.1779 2.0824,-6.2236 -0.25201,-5.5485 -3.7936,-10.128 -12.487,-15.636 -2.8417,-1.8008 -3.9706,-6.7475 -1.0728,-13.123 1.0366,-2.281 0.58226,-4.4687 -1.3523,-6.1432 -3.2259,-2.7915 -7.7518,-4.7077 -12.615,-5.3326 -5.1459,-0.66105 -10.137,0.16297 -14.222,2.546 -2.0463,1.1937 -2.6879,3.1272 -2.975,6.0385 -1.0129,10.295 -3.452,13.774 -16.981,25.454 -6.1879,5.3429 -8.2887,9.7986 -7.5176,16.387 0.11225,0.95514 -0.027,1.3512 -0.37072,1.9535 -0.53423,0.9341 -0.18671,1.8072 2.0274,2.9318 l -0.1144,0.47811 c -2.4472,-1.0976 -3.0651,-2.3409 -2.3312,-3.6252 0.34698,-0.60655 0.39986,-0.87528 0.30543,-1.6847 -0.78894,-6.7405 1.3631,-11.334 7.6973,-16.803 13.344,-11.522 15.779,-14.991 16.78,-25.161 0.30273,-3.0797 0.97781,-5.1065 3.2216,-6.4151 4.0332,-2.3533 9.2503,-3.2885 14.533,-2.6096 4.9101,0.63083 9.6594,2.6512 12.921,5.4735 1.9508,1.689 2.6544,4.0575 1.4408,6.7276 -3.0295,6.665 -1.4241,11.045 0.90064,12.518 8.6794,5.5004 12.423,10.072 12.693,16.014 0.14408,3.166 -0.52452,5.2333 -2.042,6.4103 z"
     id="path118"
     style="fill:#0f141b;stroke-width:0.53963" />
  <path
     d="m 55.22842,151.61 c -6.1901,0.73875 -10.173,-2.6868 -8.3141,-5.3801 1.0226,-1.4813 -1.5795,-5.059 -6.08,-5.1821 -7.693,-0.21585 -10.237,4.2798 -12.649,11.956 -0.57417,1.8266 -1.743,2.7057 -4.2194,1.9189 l 0.13275,-0.44034 c 2.1833,0.69235 3.139,-0.0448 3.6393,-1.6362 2.4774,-7.8834 5.2301,-12.524 13.121,-12.308 4.6268,0.12681 7.7906,4.003 6.4561,5.9365 -1.5817,2.2907 2.1083,5.297 7.6708,4.6986 z"
     id="path119"
     style="fill:#0f141b;stroke-width:0.53963" />
  <path
     d="m 2.88042,154.73 c -0.0216,-1.9616 0.2002,-5.3288 0.42739,-5.8221 0.39339,-0.85801 2.8466,-1.1224 6.9197,-0.39771 1.9702,0.34968 5.4605,0.50456 8.8467,0.40311 2.1218,-0.0631 3.908,0.23744 4.8588,0.76951 0.07447,1.3475 0.03885,3.547 -0.04587,4.9576 -3.3414,1.5164 -9.4813,2.8395 -12.339,2.6933 -2.8045,-0.7517 -6.6704,-1.8725 -8.6675,-2.6037 m 8.7506,2.9809 c 2.8849,0.19426 9.0777,-1.2104 12.472,-2.7251 0.14354,-0.0642 0.17214,-0.11278 0.18078,-0.25848 0.08202,-1.4025 0.10847,-3.6646 0.03292,-5.0887 -0.0097,-0.17646 -0.0367,-0.21369 -0.15326,-0.27845 -1.0712,-0.59521 -2.791,-0.90496 -5.1071,-0.83319 -3.3711,0.0998 -6.7858,-0.0701 -8.7404,-0.41821 -4.1303,-0.73336 -6.8576,-0.56931 -7.4064,0.62597 -0.26334,0.57201 -0.46462,4.0861 -0.44573,6.0913 0.001,0.15488 0.0248,0.20398 0.17376,0.25795 1.9885,0.72634 5.9278,1.8261 8.7436,2.5859 0.10253,0.0281 0.13383,0.0335 0.24931,0.041"
     id="path120"
     style="fill:#0f141b;stroke-width:0.53963" />
  <path
     d="m 3.13042,148.78 c 2.2082,0.67778 6.801,1.7101 8.735,2.0123 3.6652,-0.0448 9.3065,-0.84128 12.083,-1.3885 l 0.22017,0.33349 c -2.7429,0.54935 -8.5763,1.3922 -12.328,1.4376 -1.9653,-0.30597 -6.6083,-1.3437 -8.8176,-2.0382 z"
     id="path121"
     style="fill:#0f141b;stroke-width:0.53963" />
  <path
     d="m 11.32042,157.52 c 0.0286,-1.6977 0.143,-4.7655 0.3146,-6.5549 l 0.3907,0.0286 c -0.16729,1.7403 -0.28817,4.8502 -0.32324,6.5468 z"
     id="path122"
     style="fill:#0f141b;stroke-width:0.53963" />
  <path
     d="m 55.19642,151.26 c 0.01727,-1.2072 0.18294,-2.5967 0.44034,-3.7396 1.1068,-0.18671 2.4078,-0.15757 4.2528,0.004 2.5152,0.21963 4.7094,-0.19534 8.3313,-1.5773 0.65781,0.23906 1.5611,0.49053 2.2524,0.5623 0.06745,1.0733 0.0313,2.9566 -0.04317,3.9636 -0.86179,0.61464 -1.7732,1.2401 -3.0581,1.8304 -2.1693,0.12574 -6.5074,0.22827 -9.1392,0.0998 -0.9913,-0.37613 -2.0592,-0.74307 -3.0365,-1.1429 m 3.0856,1.5244 c 2.7273,0.0853 6.7411,0.0162 9.0372,-0.10037 0.09929,-0.005 0.16351,-0.0221 0.25686,-0.0658 1.2455,-0.58064 2.26,-1.225 3.1072,-1.825 0.10469,-0.0739 0.13545,-0.10631 0.1457,-0.24769 0.07231,-1.0323 0.09066,-3.1023 0.0232,-4.1784 -0.01187,-0.17915 -0.07501,-0.21423 -0.22125,-0.22934 -0.65241,-0.068 -1.6135,-0.31946 -2.2605,-0.54718 -0.12627,-0.0448 -0.1689,-0.0486 -0.29626,-5.4e-4 -3.5481,1.3496 -5.6807,1.7554 -8.1419,1.525 -1.7317,-0.16189 -3.1973,-0.18239 -4.4417,0.0216 -0.1824,0.0297 -0.21207,0.0701 -0.24553,0.22286 -0.25686,1.1564 -0.43332,2.675 -0.43872,3.9722 -5.4e-4,0.14354 0.02536,0.20452 0.18132,0.2628 1.1025,0.41336 2.104,0.77275 3.0435,1.1408 0.09875,0.0388 0.13707,0.0453 0.25093,0.0491"
     id="path123"
     style="fill:#0f141b;stroke-width:0.53963" />
  <path
     d="m 70.71642,146.54 c -0.72256,0.63892 -2.0576,1.4154 -2.8314,1.8455 -0.08472,0.0469 -0.10523,0.0534 -0.22017,0.0572 -2.2891,0.0842 -6.4211,-0.003 -9.2282,-0.11063 -0.08526,-0.003 -0.11008,-0.005 -0.18563,-0.0232 -1.1181,-0.25471 -2.0382,-0.51265 -2.8714,-0.77977 l 0.33187,-0.28061 c 0.79326,0.24877 1.5687,0.44952 2.6674,0.708 2.7931,0.13653 7.1166,0.20668 9.3173,0.0955 0.76142,-0.42199 2.0862,-1.1802 2.8007,-1.8169 z"
     id="path124"
     style="fill:#0f141b;stroke-width:0.53963" />
  <path
     d="m 57.99042,152.53 c 0.04155,-1.2131 0.12951,-3.3295 0.16728,-4.4336 l 0.38638,0.0518 c -0.03723,1.1089 -0.12897,3.1844 -0.17106,4.4714 z"
     id="path125"
     style="fill:#0f141b;stroke-width:0.53963" />
  <path
     d="m 67.21042,152.53 c 0.18401,-1.3 0.3173,-2.8838 0.34914,-4.2793 l 0.38907,-0.095 c -0.0313,1.3761 -0.15433,2.9588 -0.33349,4.2528 z"
     id="path126"
     style="fill:#0f141b;stroke-width:0.53963" />
  <path
     d="m 43.34042,106.89 c 1.9815,-0.58982 4.2086,-1.0269 6.2419,-1.4128 1.4084,1.1904 3.5011,3.5297 4.6716,5.0617 -0.48081,2.2708 -1.3707,5.692 -2.172,7.7766 -1.7149,0.48027 -3.8681,0.96593 -5.6148,1.2622 -2.0635,-1.7538 -4.4789,-4.4206 -5.2484,-5.2857 0.42037,-2.0797 1.3939,-5.2279 2.1218,-7.4021 m 3.1989,13.021 c 1.7338,-0.29679 3.949,-0.783 5.6456,-1.2563 0.14192,-0.0399 0.16405,-0.0696 0.21585,-0.20506 0.79541,-2.084 1.7365,-5.5582 2.2195,-7.8246 0.03184,-0.14678 0.02213,-0.19211 -0.06529,-0.30543 -1.1759,-1.5309 -3.3306,-3.9129 -4.7401,-5.1146 -0.11494,-0.0982 -0.14246,-0.10577 -0.29464,-0.0777 -2.009,0.38044 -4.3446,0.80729 -6.3104,1.3858 -0.17268,0.0513 -0.18779,0.0707 -0.23636,0.21531 -0.72418,2.1698 -1.6928,5.4287 -2.117,7.5095 -0.02644,0.13329 -0.01889,0.17214 0.07933,0.28277 0.80081,0.89794 3.2459,3.5653 5.2873,5.3094 0.1144,0.0971 0.15056,0.109 0.31622,0.0809"
     id="path127"
     style="fill:#0f141b;stroke-width:0.53963" />
  <path
     d="m 46.37442,119.93 c -0.90172,-0.2029 -1.7721,-0.43224 -2.5492,-0.70152 -0.08958,-0.0308 -0.12304,-0.055 -0.18078,-0.109 -1.2028,-1.1143 -3.5071,-3.3905 -4.7115,-4.7752 -0.08364,-0.096 -0.09228,-0.11548 -0.0626,-0.24769 0.41336,-1.8606 1.3545,-5.106 1.9567,-6.7826 0.05342,-0.14948 0.07339,-0.17592 0.2342,-0.22233 0.45437,-0.13113 1.6291,-0.43656 2.1154,-0.55959 l -0.02374,0.38313 c -0.51966,0.13059 -1.6664,0.42361 -1.9912,0.52129 -0.59953,1.6556 -1.5029,4.8286 -1.9168,6.6968 1.2104,1.3933 3.5659,3.7488 4.6602,4.7525 0.72904,0.25632 1.4894,0.46732 2.3361,0.66374 z"
     id="path128"
     style="fill:#0f141b;stroke-width:0.53963" />
  <path
     d="m 39.06642,114.03 c 0.59791,0.0696 1.3334,0.12465 1.9675,0.16243 l 0.08904,0.31676 c -0.62327,-0.0378 -1.3782,-0.0939 -1.9713,-0.15865 z"
     id="path129"
     style="fill:#0f141b;stroke-width:0.53963" />
  <path
     d="m 51.80242,112.37 c 0,2.472 -1.6772,4.3014 -4.0213,4.3014 -2.185,0 -3.8891,-1.8158 -3.8891,-4.276 0,-2.4505 1.8304,-4.2248 3.9825,-4.2248 2.0463,0 3.928,1.7738 3.928,4.1994 m 0.37882,-0.005 c 0,-2.5487 -1.9491,-4.5512 -4.3052,-4.5512 -2.4327,0 -4.3958,2.0436 -4.3958,4.5788 0,2.5163 1.7959,4.6338 4.2965,4.6338 2.5627,0 4.4045,-1.9572 4.4045,-4.6613"
     id="path130"
     style="fill:#0f141b;stroke-width:0.53963" />
  <path
     d="m 44.70242,115.39 c 1.1294,-1.2627 0.37558,-3.4223 -0.97349,-3.581 l 0.04965,-0.38476 c 1.6934,0.16998 2.5082,2.927 1.15,4.242 z"
     id="path131"
     style="fill:#0f141b;stroke-width:0.53963" />
  <path
     d="m 44.05642,110.56 c 2.0722,0.70422 3.05,3.5648 1.4667,5.6089 l -0.28762,-0.23096 c 1.4365,-1.8941 0.50401,-4.3564 -1.2886,-5.0455 z"
     id="path132"
     style="fill:#0f141b;stroke-width:0.53963" />
  <path
     d="m 48.39642,111.92 c -0.54772,-1.2703 -2.0215,-2.1375 -3.8589,-2.22 l 0.27251,-0.33133 c 1.8633,0.12573 3.3004,1.0113 3.9069,2.4181 0.77707,1.8024 -0.21046,4.0893 -1.784,4.8761 l -0.38745,-0.12196 c 1.6761,-0.62651 2.5708,-2.9502 1.8509,-4.6208"
     id="path133"
     style="fill:#0f141b;stroke-width:0.53963" />
  <path
     d="m 50.02442,111.59 c -0.52182,-1.5666 -2.1008,-2.7089 -4.3397,-2.9626 l 0.49376,-0.27521 c 2.1348,0.32863 3.6015,1.4057 4.1773,3.1358 0.46894,1.4068 0.09875,4.4951 -2.4041,5.2981 l -0.57686,-0.0405 c 2.2206,-0.5164 3.3781,-2.9706 2.6496,-5.1556"
     id="path134"
     style="fill:#0f141b;stroke-width:0.53963" />
  <path
     d="m 20.95842,120.81 c -0.42685,-3.098 -1.8369,-5.3305 -4.3527,-6.7589 -0.77221,-0.43871 -1.0053,-1.3232 -0.66105,-1.8671 0.34266,-0.54286 0.88337,-0.80458 1.4473,-0.65511 2.2103,0.58496 4.9732,3.1617 5.6165,5.9424 l -0.29086,0.5569 c -0.4889,-2.8001 -3.2162,-5.542 -5.4346,-6.1291 -0.37288,-0.0987 -0.73929,0.0669 -0.99886,0.47865 -0.23906,0.37828 -0.02428,1.0285 0.51912,1.3372 2.4882,1.4133 4.0213,3.6306 4.4967,6.6542 z"
     id="path135"
     style="fill:#0f141b;stroke-width:0.53963" />
  <path
     d="m 16.29242,112.05 c -0.18132,-0.11818 -0.3173,-0.20668 -0.49106,-0.30381 -0.45491,-0.25525 -0.31461,-0.50294 0.15164,-0.26874 0.19103,0.0966 0.4004,0.20884 0.61356,0.34375 z"
     id="path136"
     style="fill:#0f141b;stroke-width:0.53963" />
  <path
     d="m 16.02242,113 c -0.3254,-0.0416 -0.59467,-0.10091 -0.87582,-0.17916 -0.47379,-0.13059 -0.42253,-0.38799 0.0599,-0.29086 0.29302,0.0588 0.4997,0.0928 0.79164,0.12789 z"
     id="path137"
     style="fill:#0f141b;stroke-width:0.53963" />
  <path
     d="m 59.30042,86.889 c 0.143,-0.25686 0.27251,-0.49484 0.39609,-0.78192 -0.4371,-2.7165 -1.5212,-7.3843 -2.3722,-9.7392 -2.4175,-1.5013 -6.6385,-3.6592 -9.4646,-4.6673 -2.3533,1.8698 -6.2187,5.0968 -8.1177,6.8371 l 0.22125,-0.70476 c 1.9821,-1.7905 5.4389,-4.752 7.6611,-6.5209 0.1225,-0.09767 0.15541,-0.10685 0.33565,-0.04155 2.8217,1.0172 7.1253,3.241 9.5471,4.7385 0.11818,0.07285 0.13976,0.09875 0.19265,0.24823 0.8456,2.3771 1.9594,7.0621 2.4014,9.7689 0.01943,0.1144 0.01403,0.16351 -0.04047,0.28384 -0.12088,0.27197 -0.2601,0.54341 -0.39393,0.78462 z"
     id="path138"
     style="fill:#0f141b;stroke-width:0.53963" />
  <path
     d="m 39.53842,80.83 c -0.08796,-0.31137 -0.16836,-0.65511 -0.23204,-0.94651 l 0.23204,-0.65025 c 0.12519,0.56068 0.27413,1.1667 0.41498,1.6637 z"
     id="path139"
     style="fill:#0f141b;stroke-width:0.53963" />
  <path
     d="m 42.78042,72.768 c 1.2784,-0.40958 3.0575,-0.96702 4.9878,-1.5369 l -0.24068,0.48405 c -1.5935,0.47056 -3.6026,1.1014 -4.6851,1.4457 -0.59899,0.48189 -1.2368,0.98051 -1.8606,1.5617 l 0.1538,-0.6168 c 0.49592,-0.44627 0.92331,-0.8224 1.3993,-1.2093"
     id="path140"
     style="fill:#0f141b;stroke-width:0.53963" />
  <path
     d="m 55.43642,85.136 c 1.5412,-2.1272 0.40904,-6.3892 -3.1196,-7.7615 -4.4482,-1.7295 -8.0885,0.64 -8.4409,4.2895 l -0.37504,-0.08364 c 0.40634,-4.0532 4.5604,-6.2754 8.939,-4.5723 3.6657,1.4257 4.943,5.9823 3.3484,8.2828 z"
     id="path141"
     style="fill:#0f141b;stroke-width:0.53963" />
  <path
     d="m 46.59042,77.175 c 1.8094,-0.59791 4.0667,-0.21909 5.6942,1.478 1.5288,1.5946 1.7511,3.6614 0.59197,5.5641 l -0.37882,-0.13005 c 1.0285,-1.7587 0.91683,-3.6765 -0.50617,-5.161 -1.4867,-1.5504 -4.1147,-2.1833 -6.0822,-1.0415 z"
     id="path142"
     style="fill:#0f141b;stroke-width:0.53963" />
  <path
     d="m 59.50242,83.955 c 2.8687,0.55906 7.2629,1.5752 10.15,2.356 0.13437,0.03669 0.15703,0.05612 0.22988,0.19319 2.008,3.7375 5.7271,11.782 7.1798,14.91 0.06152,0.13221 0.0626,0.18185 -0.0086,0.33349 -1.3372,2.8412 -4.8032,9.852 -6.6801,13.766 -0.07285,0.15272 -0.11386,0.16783 -0.28708,0.15541 -3.5427,-0.25578 -10.377,-1.8132 -13.892,-2.8654 l 0.16567,-0.42793 c 3.5195,1.0528 10.145,2.5913 13.654,2.8368 1.8909,-3.7823 5.2797,-10.898 6.5819,-13.674 -1.4408,-3.1023 -5.1308,-10.973 -7.1388,-14.698 -2.8536,-0.81538 -7.0352,-1.8218 -9.8547,-2.3992 z"
     id="path143"
     style="fill:#0f141b;stroke-width:0.53963" />
  <path
     d="m 71.43442,112.87 c -0.89309,1.0231 -1.5504,1.7408 -2.2907,2.499 l -0.42415,-0.0594 c 0.96918,-0.96702 1.7009,-1.8061 3.1558,-3.4687 z"
     id="path144"
     style="fill:#0f141b;stroke-width:0.53963" />
  <path
     d="m 60.50442,87.583 c 6.1593,-0.10954 12.804,6.8636 12.259,15.032 -0.60978,9.1478 -7.693,12.858 -14.848,8.7107 l 0.53909,-0.24985 c 7.0233,3.8395 13.256,-0.21693 13.806,-8.47 0.51157,-7.6779 -5.5064,-14.209 -11.262,-14.555 z"
     id="path145"
     style="fill:#0f141b;stroke-width:0.53963" />
  <path
     d="m 58.82242,80.96 c 1.0906,-0.57309 2.9329,-1.5531 4.636,-2.4472 0.12627,-0.06637 0.14948,-0.07123 0.30327,-0.05828 5.8938,0.49322 12.674,1.7209 16.436,2.982 0.12573,0.04209 0.16513,0.07447 0.24769,0.20938 2.6933,4.3613 6.577,12.837 7.7734,16.215 0.04479,0.12627 0.03939,0.20776 -0.01403,0.33727 -1.0463,2.5417 -3.0646,6.4356 -4.5631,9.2293 l -0.80944,0.48945 c 1.5223,-2.8282 3.8503,-7.2499 4.9284,-9.8925 -1.1678,-3.3365 -5.0617,-11.742 -7.7685,-16.097 -3.7504,-1.2708 -10.368,-2.4979 -16.3,-2.9874 -1.6723,0.86395 -3.7089,1.9216 -4.7563,2.4807 z"
     id="path146"
     style="fill:#0f141b;stroke-width:0.53963" />
  <path
     d="m 78.62042,112.1 c -2.8476,1.2832 -6.0018,2.6269 -8.3589,3.5545 l -0.03993,-0.50563 c 2.4618,-0.97187 6.0595,-2.4818 8.9433,-3.7898 z"
     id="path147"
     style="fill:#0f141b;stroke-width:0.53963" />
  <path
     d="m 87.95842,98.278 c -3.3133,1.2708 -8.1214,2.7494 -11.13,3.5303 l -0.007,-0.47865 c 3.0322,-0.78732 7.843,-2.2486 11.15,-3.5254 z"
     id="path148"
     style="fill:#0f141b;stroke-width:0.53963" />
  <path
     d="m 74.31642,106.79 c 1.7295,-1.5881 3.6603,-3.7769 5.2582,-5.9856 l 0.48729,-0.11925 c -1.7479,2.519 -4.1449,5.1826 -6.0401,6.842 z"
     id="path149"
     style="fill:#0f141b;stroke-width:0.53963" />
  <path
     d="m 80.29442,81.88 c -2.9944,1.4241 -7.2289,3.465 -10.535,4.9025 l -0.39771,-0.32648 c 3.302,-1.436 7.5397,-3.4542 10.533,-4.8772 z"
     id="path150"
     style="fill:#0f141b;stroke-width:0.53963" />
  <path
     d="m 74.80642,120.87 c -1.2654,1.6394 -2.3145,2.8282 -3.1066,3.5648 -0.17592,0.16404 -0.27791,0.18131 -0.41444,0.0243 -1.198,-1.3798 -2.4111,-3.4083 -3.0306,-4.9835 -0.07123,-0.1824 -0.04047,-0.24823 0.06799,-0.39825 0.91305,-1.2649 2.329,-3.1099 3.282,-4.241 l 0.74631,-0.23258 c -0.93464,1.062 -2.6598,3.309 -3.6743,4.7201 0.6686,1.6005 1.7365,3.4472 2.7964,4.7336 0.85477,-0.78786 2.0792,-2.2546 3.5049,-4.1298 z"
     id="path151"
     style="fill:#0f141b;stroke-width:0.53963" />
  <path
     d="m 75.14642,119.38 c -1.2152,-1.2158 -2.7019,-3.2318 -3.4898,-4.5475 l 0.41228,-0.14408 c 0.76304,1.2665 2.0867,3.0975 3.2016,4.2561 z"
     id="path152"
     style="fill:#0f141b;stroke-width:0.53963" />
  <path
     d="m 73.14042,122.59 c 0.79056,1.6432 1.4176,3.3063 1.7495,4.7757 2.3129,10.232 9.4214,17.036 19.207,17.752 8.9902,0.65781 19.272,-5.2765 20.906,-16.613 1.0917,-7.5721 -1.1381,-12.838 -4.1282,-15.521 l -0.14516,-0.73768 c 3.3139,2.6982 5.9214,8.3961 4.7784,16.328 -1.607,11.149 -11.907,17.745 -21.453,17.045 -9.8169,-0.71825 -17.219,-7.482 -19.633,-18.164 -0.30921,-1.3685 -0.88661,-2.9162 -1.62,-4.4617 z"
     id="path153"
     style="fill:#0f141b;stroke-width:0.53963" />
  <path
     d="m 69.58642,117.63 c -0.76196,-1.0134 -1.5358,-1.879 -2.2632,-2.5039 l 0.76789,0.0782 c 0.58604,0.54287 1.1991,1.2384 1.8088,2.0366 z"
     id="path154"
     style="fill:#0f141b;stroke-width:0.53963" />
  <path
     d="m 91.84042,104.98 c -0.35616,-0.29464 -0.54664,-0.27359 -0.85855,0.0734 -0.63245,0.7026 -1.2433,1.4565 -2.029,2.4715 -0.55096,0.71177 -0.77167,0.57632 -0.25524,-0.19373 0.71501,-1.0658 1.3712,-1.9589 1.9448,-2.601 0.41228,-0.46084 0.85855,-0.5515 1.3237,-0.25201 z"
     id="path155"
     style="fill:#0f141b;stroke-width:0.53963" />
  <path
     d="m 87.80642,112.95 c -0.24769,-1.2336 -0.1797,-2.5918 0.37558,-3.5562 0.37504,-0.65187 0.55744,-0.57309 0.27359,0.12303 -0.42145,1.0318 -0.44142,2.1245 -0.34752,3.3921 0.05828,0.78894 -0.14732,0.8116 -0.30165,0.041"
     id="path156"
     style="fill:#0f141b;stroke-width:0.53963" />
  <path
     d="m 85.45042,134.93 c 0.11278,-1.8828 0.09444,-3.4401 -0.0804,-5.4049 -0.06044,-0.67292 -0.73983,-1.3 -0.81916,-2.3873 -0.10793,-1.4786 1.1877,-3.4121 2.1267,-5.1335 -0.54826,-2.8438 -0.24931,-4.9079 0.88877,-6.6849 0.36533,-0.56985 0.5855,-0.41768 0.24122,0.16512 -1.0539,1.784 -1.2708,3.7035 -0.76196,6.4097 0.0286,0.15163 0.01457,0.20344 -0.06529,0.35022 -0.93572,1.7171 -2.0463,3.6188 -1.9524,4.8745 0.06422,0.86286 0.6659,1.5029 0.73713,2.3771 0.16081,1.9729 0.1457,3.5675 -0.01133,5.4578 -0.08256,0.99454 -0.36263,0.97458 -0.30327,-0.0237"
     id="path157"
     style="fill:#0f141b;stroke-width:0.53963" />
  <path
     d="m 90.55442,105.24 c -8.4004,1.0771 -14.376,7.8543 -15.912,17.25 -0.15757,0.96486 -0.43116,0.92763 -0.30165,-0.0475 1.321,-9.96 7.9892,-16.914 16.655,-17.762 z"
     id="path158"
     style="fill:#0f141b;stroke-width:0.53963" />
  <path
     d="m 109.64652,108.74 c 0.93356,1.8099 1.6,3.9706 1.5779,6.0708 -0.0124,1.1176 -0.2887,1.1219 -0.34051,0.006 -0.0917,-1.9756 -0.61734,-3.6975 -1.2347,-5.0391 z"
     id="path159"
     style="fill:#0f141b;stroke-width:0.53963" />
  <path
     d="m 109.44522,126.12 c 1.4727,-1.3647 2.0975,-4.4136 1.866,-7.0049 -0.0696,-0.7803 0.17052,-0.81106 0.29842,-0.0415 0.47973,2.9064 -0.3718,6.08 -1.9896,7.2888 -0.61626,0.46139 -0.76843,0.30759 -0.17484,-0.24229"
     id="path160"
     style="fill:#0f141b;stroke-width:0.53963" />
  <path
     d="m 105.60842,136.58 c 0.18401,-0.76034 0.40634,-1.2978 0.72095,-1.7808 0.46786,-0.71771 1.6988,-1.552 2.0193,-2.9588 0.15703,-0.69127 -0.32216,-1.9351 0.17106,-3.3846 0.22503,-0.66267 0.45437,-0.58496 0.2914,0.0944 -0.32971,1.3685 0.17322,2.6264 0.003,3.4094 -0.34266,1.5811 -1.6772,2.3598 -2.1607,3.0624 -0.31137,0.45275 -0.50833,0.89309 -0.76196,1.6491 -0.24283,0.72202 -0.46516,0.66104 -0.28331,-0.0912"
     id="path161"
     style="fill:#0f141b;stroke-width:0.53963" />
  <path
     d="m 102.17642,142.02 c -4.1476,-0.14354 -11.272,-0.93842 -15.038,-1.8542 0.08364,-1.8391 0.16836,-3.7763 0.30219,-5.1794 0.42091,-5.4012 1.8477,-15.648 2.9788,-21.499 0.62381,-3.227 1.668,-8.6103 2.2141,-11.017 3.1558,-0.44142 10.106,0.45113 15.985,2.2049 0.69666,2.6064 1.1634,7.9466 1.3102,11.966 -1.4327,5.2452 -4.1023,15.185 -5.7767,20.784 -0.66914,1.8552 -1.5239,3.711 -1.9756,4.595 m 2.4273,-4.46 c 1.7263,-5.6165 4.3332,-15.498 5.7886,-20.843 0.003,-0.0119 0.004,-0.0248 0.004,-0.0372 -0.14732,-4.0677 -0.60978,-9.7462 -1.3232,-12.347 -0.0108,-0.041 -0.0426,-0.0734 -0.0831,-0.0858 -6.0018,-1.8526 -13.339003,-2.8088 -16.709003,-2.26 -0.04911,0.008 -0.08904,0.0453 -0.09983,0.0944 -0.54449,2.3808 -1.5978,8.0491 -2.2292,11.315 -1.1327,5.8582 -2.5541,16.123 -2.975,21.529 -0.13653,1.4322 -0.25686,3.6501 -0.34212,5.5177 -0.0022,0.0594 0.03723,0.11117 0.0939,0.12574 3.887,0.96162 11.475,1.7781 15.665003,1.9151 0.001,0 0.003,5.4e-4 0.004,5.4e-4 0.0469,0 0.089,-0.0264 0.11008,-0.068 0.48782,-0.94705 1.4726,-3.0435 2.0959,-4.8561"
     id="path162"
     style="fill:#0f141b;stroke-width:0.53963" />
  <path
     d="m 110.12872,116.88 c -5.2803,-1.3361 -14.773,-2.8438 -19.98,-3.2151 l 0.07177,-0.45059 c 5.2296,0.42847 14.653,1.8455 19.955,3.2221 z"
     id="path163"
     style="fill:#0f141b;stroke-width:0.53963" />
  <path
     d="m 108.39132,116.22 c 0.52236,-1.4775 0.91413,-2.7052 1.4333,-4.7773 l 0.12465,0.84721 c -0.31406,1.3782 -0.71717,2.6453 -1.2217,4.0208 z"
     id="path164"
     style="fill:#0f141b;stroke-width:0.53963" />
  <path
     d="m 89.92242,114.8 c 0.88068,0.0119 2.4386,0.0523 3.3473,0.0664 0.86341,-0.29571 1.763,-0.58441 2.7089,-0.8062 l 0.8796,0.14732 c -1.1057,0.20721 -2.3776,0.60384 -3.4196,0.95946 -0.09066,0.0308 -0.13167,0.0372 -0.21315,0.0362 -0.9573,-0.0167 -2.4327,-0.0577 -3.3527,-0.0739 z"
     id="path165"
     style="fill:#0f141b;stroke-width:0.53963" />
  <path
     d="m 87.23242,134.74 c 3.697,0.73929 12.64,1.9259 17.219,2.5363 l -0.13275,0.41983 c -4.582,-0.6114 -13.42,-1.7668 -17.125,-2.5077 z"
     id="path166"
     style="fill:#0f141b;stroke-width:0.53963" />
  <path
     d="m 25.29242,7.8871 c 2.8671,-1.1462 8.1689,-2.8984 11.168,-3.8325 l -0.0022,0.48189 c -3.1525,0.98159 -8.8521,2.8654 -11.571,3.997 z"
     id="path167"
     style="fill:#0f141b;stroke-width:0.53963" />
  <path
     d="m 47.65242,81.118 c 0.5828,-0.5175 1.2104,-0.61896 1.7916,-0.4317 0.58226,0.18779 1.021,0.64378 1.239,1.4208 0.12519,0.44358 0.67454,0.65619 1.11,0.44897 0.39771,-0.18995 0.62435,-0.59144 0.5024,-1.2973 -0.26172,-1.5147 -1.1726,-2.5578 -2.4391,-2.8509 -1.3842,-0.32108 -2.7532,0.36803 -3.3274,1.4246 -0.29896,0.54934 -0.26604,1.0016 0.01079,1.2665 0.32756,0.31406 0.78516,0.30975 1.1127,0.01889"
     fill="#3e3a39"
     stroke-width="0.53963"
     id="path168" />
  <path
     d="m 46.66842,79.771 c -0.45922,0.54718 -0.42307,1.0458 -0.12789,1.3286 0.34536,0.33187 0.76627,0.33943 1.1327,-0.0858 -0.67832,0.06799 -1.2692,-0.39663 -1.0048,-1.2428"
     id="path169"
     style="fill:#595857;stroke-width:0.53963" />
  <path
     d="m 51.79242,82.556 c 0.47541,-0.22664 0.58766,-0.62273 0.41659,-1.1014 -0.10954,0.75278 -1.2671,1.0086 -1.5439,0.35885 0.03562,0.56823 0.49916,1.042 1.1273,0.74253"
     id="path170"
     style="fill:#595857;stroke-width:0.53963" />
  <path
     d="m 49.85642,78.408 c -1.3852,-0.32162 -2.5638,0.45599 -2.9059,0.92654 -0.38745,0.53369 -0.05774,0.87258 0.49538,0.41983 1.5158,-1.2406 3.5049,-0.5175 4.1271,1.2854 0.19211,0.55744 0.68749,0.44843 0.59036,-0.0858 -0.24553,-1.3539 -1.1343,-2.274 -2.3069,-2.546"
     id="path171"
     style="fill:#595857;stroke-width:0.53963" />
  <path
     d="m 49.81242,79.745 c -0.23528,0.58388 -0.83049,0.8089 -1.2973,0.62057 -0.48944,-0.19642 -0.7026,-0.74415 -0.4657,-1.3323 0.23366,-0.58064 0.82078,-0.81916 1.3091,-0.62273 0.47434,0.19103 0.68749,0.7544 0.45383,1.3345"
     fill="#c8c9ca"
     id="path172"
     style="stroke-width:0.53963" />
  <path
     d="m 49.48842,79.6 c -0.14948,0.37126 -0.49862,0.50024 -0.79865,0.37936 -0.2941,-0.11872 -0.44196,-0.47164 -0.29518,-0.83697 0.12681,-0.3146 0.45275,-0.48944 0.77599,-0.35939 0.30435,0.1225 0.45653,0.47326 0.31784,0.817"
     fill="#ffffff"
     id="path173"
     style="stroke-width:0.53963" />
  <path
     d="m 46.66642,80.965 c -0.21963,-0.21046 -0.21909,-0.60492 0.02374,-1.0517 0.56985,-1.048 1.8569,-1.6345 3.1261,-1.3404 1.0836,0.25093 2.0328,1.2314 2.288,2.7068 0.10739,0.62219 -0.02266,0.92654 -0.37234,1.0933 -0.43602,0.20776 -0.7857,-0.02536 -0.87042,-0.32594 -0.2029,-0.72256 -0.71285,-1.3075 -1.3593,-1.5218 -0.71663,-0.2315 -1.4057,-0.04695 -1.9713,0.45491 -0.27413,0.24337 -0.56931,0.26766 -0.86449,-0.01511 m 2.7235,-0.1144 c 0.57147,0.18725 0.92439,0.65673 1.1095,1.3151 0.13275,0.47218 0.77113,0.83966 1.3707,0.55474 0.51643,-0.24607 0.73444,-0.79164 0.61194,-1.4991 -0.26442,-1.5282 -1.2077,-2.6598 -2.5827,-2.9788 -1.3901,-0.3227 -2.873,0.29626 -3.5313,1.5061 -0.31406,0.5774 -0.30057,1.1521 0.03777,1.4764 0.42037,0.4031 0.9287,0.40472 1.3593,0.02266 0.53154,-0.47218 1.1062,-0.56445 1.6248,-0.39717"
     fill="#0f141b"
     id="path174"
     style="stroke-width:0.53963" />
</svg>
