<?xml version="1.0" encoding="UTF-8"?>
<!-- Created with Inkscape (http://www.inkscape.org/) -->
<svg version="1.1" viewBox="0 0 87.951 85.917" xmlns="http://www.w3.org/2000/svg">
 <g transform="translate(-.72435 -.93888)">
  <path d="m41.272 16.727c0.61364-0.21755 0.61194-1.5533 0.02844-2.8876-0.58023-1.3326-1.5333-2.2021-2.1319-1.9446-6.1447 2.6469-21.145 8.6077-29.022 11.738-1.4446 0.5735-1.7439 1.8409-1.4045 2.8107 0.39794 1.1403 1.6336 1.7506 3.0231 1.1938 7.9288-3.1819 22.583-8.4622 29.505-10.91" fill="#d3965c"/>
  <path d="m39.195 15.025c-1.7707 0.78754-4.772 1.9296-6.8838 2.7204-0.45121 0.16873-0.62032 0.0583-0.54174-0.35784 0.17537-0.91295 0.21565-2.0198 0.07346-2.7539-1.0333 2.2473-3.4979 4.7821-5.2903 5.7234 1.3577 0.21897 3.0983 0.20049 4.4744 0.07346 2.5181-0.88783 6.9005-2.59 9.9988-3.6601-0.67052-0.14361-1.3076-0.72062-1.8309-1.7456" fill="#ad7b4a"/>
  <path d="m8.8217 26.576c1.3928-0.45832 3.6601-1.3544 5.4977-2.1887 0.3595-0.1621 0.29931-0.37301-0.03697-0.56345-0.61531-0.35121-1.234-0.831-1.6503-1.2273 0.67384-0.26921 1.9362-0.77417 2.7271-1.1269 1.3126 0.77413 2.5064 1.3627 3.7521 1.7506-0.8076 0.75578-1.4647 1.4464-2.3893 2.4562-1.3962 0.55516-4.038 1.5985-5.0981 2.0182-1.0601 0.42136-2.3141 0.11043-2.8023-1.1186" fill="#ad7b4a"/>
  <path d="m39.276 12.175c-6.3387 2.6803-21.497 8.7866-29.017 11.741-1.3544 0.53169-1.4614 1.7289-1.2172 2.4295 0.37619 1.0785 1.4513 1.4681 2.6101 0.99651 8.0108-3.2521 22.136-8.3251 29.507-10.905 0.45122-0.15736 0.37633-1.2474-0.15736-2.473-0.59691-1.3711-1.3878-1.9329-1.7256-1.7891m2.0851 4.7904c-7.3603 2.6586-21.395 7.7015-29.498 10.96-1.5583 0.62701-2.9495-0.03318-3.421-1.3861-0.3578-1.025-0.10702-2.5148 1.6068-3.1936 7.4122-2.9461 22.706-9.0976 28.983-11.739 0.76578-0.32088 1.8175 0.41472 2.5599 2.1235 0.70896 1.6269 0.54842 2.9545-0.23082 3.2354" fill="#0f141b"/>
  <path d="m40.684 17.006c-0.57686-0.14882-1.3008-0.8511-1.8309-2.0951-0.5033-1.1821-0.56682-2.1954-0.29575-2.7639l0.71896 0.02844c-0.39813 0.17205-0.31614 1.3911 0.16399 2.4964 0.58691 1.3493 1.3209 1.9379 1.7189 1.7657z" fill="#0f141b"/>
  <path d="m54.362 53.999c4.1834-6.3889 3.9193-14.127 0.7792-20.835-4.3591-9.3133-13.585-13.913-22.534-12.888-2.274 0.25926-4.4928 0.30286-6.0913 0.10854 9.9135-6.0695 6.001-18.612 3.5347-19.06-1.4011-0.25594-9.7764 5.4341-8.917 13.483-3.2688-5.9993-9.3919-8.7414-10.654-7.9439-2.187 1.3794-1.7155 13.092 8.7498 16.389-9.8935 8.9856-14.012 20.28-9.7932 30.491 2.2171 5.3656 6.5812 9.4119 12.132 11.4-1.8058 5.1365-0.13878 9.3668 2.9612 10.778 4.2537 1.9362 9.4855-0.85778 11.298-6.1414 0.66881 0.33604 1.4597 0.84769 2.1569 1.3911-2.911 0.71564-4.4275 2.7471-4.3055 4.8322 0.12702 2.1503 1.4179 4.145 4.1801 5.9642-1.4698 0.27916-2.1486 1.2925-1.958 2.0533 0.17205 0.68388 1.1972 0.74071 2.3977 0.35121 0.41804 0.45311 1.3928 0.47486 2.2606 0.10854 0.39623 0.52501 1.2975 0.57184 2.396 0.12039 0.99988-0.41282 2.4629-0.75076 3.6534-0.77583l10.606 0.68384c0.63369 0.15404 1.4948 0.0047 2.1001-0.34789 0.36306 0.55843 1.9061 0.67881 3.0281-0.24077 0.24409 0.27916 0.72569 0.44126 1.3376 0.36448 1.4697-0.182 2.1302-1.249 1.1721-2.8174 6.6112-6.0277 1.0617-21.748-10.49-27.47" fill="#8bc56c"/>
  <path d="m59.314 84.161c0.36306 0.55847 1.9061 0.68052 3.0281-0.24077 0.24599 0.27917 0.72569 0.44316 1.3377 0.36637 1.4697-0.1839 2.1302-1.2507 1.1738-2.8174l-0.29244 0.26732c-0.72398 0.80427-2.8625 0.933-5.8037 0.719-0.55847-0.03792-1.346-0.15736-2.2673-0.33272-0.06541 0.29575-0.09716 0.53842-0.17394 0.81598 0.46164 0.44126 0.7792 1.0116 0.8912 1.5701h0.0047c0.63535 0.15404 1.4948 0.0047 2.1-0.34789" fill="#ce712f"/>
  <path d="m57.09 63.336c-1.2206-5.1449-7.6329-4.9025-9.7179 0.9848-1.9412 5.4826-1.3928 11.912 0.50496 18.551-1.3544 0.48823-1.7072 1.7005-1.5065 2.07 0.17868 0.32798 1.2022 0.37775 2.1569-0.0474 0.0095 0.67886 0.43463 1.3678 1.1086 1.3928 0.40287 0.01422 0.90793-0.19906 1.3426-0.6772 0.22892 0.61535 0.68052 0.91295 1.03 0.91295 0.48657 0 0.96978-0.40145 1.1721-1.0484 0.35595 0.70057 0.97144 1.0885 1.4012 1.0149 0.33604-0.0583 0.66545-0.34931 0.84939-0.77413 0.57852 0.36258 1.3393 0.32751 1.6085 0 0.43131-0.52335 0.30286-1.5951-0.72398-2.7773 1.7088-6.3002 2.07-14.147 0.77413-19.603" fill="#8bc56c"/>
  <path d="m46.372 84.942c0.17868 0.32751 1.2005 0.37775 2.1569-0.0474 0.0095 0.67886 0.4332 1.3694 1.1086 1.3928 0.40287 0.01422 0.90793-0.19717 1.341-0.67715 0.23082 0.6153 0.68218 0.9129 1.0316 0.9129 0.48657 0 0.96983-0.39955 1.1705-1.0484 0.35784 0.70062 0.97314 1.0885 1.4028 1.0149 0.33414-0.05687 0.66545-0.34931 0.84773-0.77418 0.58018 0.36306 1.341 0.32751 1.6085 0 0.43131-0.52335 0.30428-1.5951-0.72232-2.7772 0.81764-3.013 1.3209-6.3789 1.4881-9.6677-3.722-2.1419-8.9137-1.0685-11.544 1.1052 0.21897 2.7505 0.7909 5.603 1.6169 8.4957-1.3544 0.48823-1.7088 1.7004-1.5065 2.07" fill="#ef8337"/>
  <path d="m46.372 84.942c0.17868 0.32751 1.2005 0.37775 2.1569-0.0474 0.0095 0.67886 0.4332 1.3694 1.1086 1.3928 0.40287 0.01422 0.90793-0.19717 1.341-0.67715 0.23082 0.6153 0.68218 0.9129 1.0316 0.9129 0.48657 0 0.96983-0.39955 1.1705-1.0484 0.35784 0.70062 0.97314 1.0885 1.4028 1.0149 0.33414-0.05687 0.66545-0.34931 0.84773-0.77418 0.58018 0.36306 1.341 0.32751 1.6085 0 0.43131-0.52335 0.30428-1.5951-0.72232-2.7772 0.81764-3.013 1.3209-6.3789 1.4881-9.6677-3.722-2.1419-8.9137-1.0685-11.544 1.1052 0.21897 2.7505 0.7909 5.603 1.6169 8.4957-1.3544 0.48823-1.7088 1.7004-1.5065 2.07" fill="#ef8337"/>
  <path d="m38.475 56.764c2.381 1.152 6.001 0.91461 7.8804-0.49492 3.5464-2.6636 4.7001-8.917 1.8158-14.91-3.431-7.1346-9.1728-9.0073-13.259-7.673-3.2989 1.0768-5.1816 4.543-5.7217 7.6396-1.0517-3.1551-4.0296-7.5978-4.9793-7.4372-0.87451 0.14693-2.3057 5.1649-1.346 9.8266-2.2255-3.1802-5.0596-4.558-7.775-3.7019-4.8372 1.5249-6.2702 9.32-3.7621 14.91 3.5949 8.0091 9.4537 9.0257 12.957 5.8722z" fill="#fff697"/>
  <path d="m36.342 51.422c3.4962 4.8071 2.3074 9.8985-0.55511 11.982-3.0482 2.2171-8.3903 1.5901-11.763-3.0465-3.1318-4.3055-2.473-9.9186 0.68218-12.116 2.9679-2.0666 8.2967-1.4095 11.636 3.1803" fill="#ef8337"/>
  <path d="m9.4355 53.745c-1.1688-2.8291-1.6938-5.7401-1.6369-8.6628-4.4894 0.36116-6.4976 1.8008-6.6347 2.9411-0.4197 3.528 7.1915 13.223 14.692 14.042-2.8207-2.1419-5.0379-4.9743-6.4206-8.3201" fill="#865b16"/>
  <path d="m83.438 56.085c-3.4361 0.46496-4.8907 4.2085-2.6469 9.5725 0.42467 1.0149 0.53169 2.0934 0.15214 3.2805-1.7139 5.3605-8.9321 6.5427-13.371 3.3909 0.23556 2.0365 0.09527 3.9694-0.47989 5.6498 3.9677 2.4512 9.9169 2.1703 14.291-0.60691 3.8022-2.4128 6.5561-6.7333 6.8805-12.522 0.31092-5.5562-1.6687-9.1929-4.8255-8.7648" fill="#865b16"/>
  <path d="m1.3088 47.982c1.3008 3.018 5.6197 6.2183 8.9237 7.3888 0.88619 1.978 3.2003 4.9175 5.4642 6.6347-6.4775-0.79091-14.518-9.0541-14.388-14.023" fill="#6a4606"/>
  <g fill="#79ab5e">
   <path d="m10.486 7.0376c-0.57017 3.8474 1.6353 11.744 7.8854 14.095 1.2273 0.46164 1.4948 1.269 1.2306 2.0699-9.7614-2.1536-11.801-13.552-9.116-16.165"/>
   <path d="m32.318 5.4685c0.08673 6.123-1.6754 10.296-5.516 12.963-0.90627 0.62867-0.93968 1.4948-0.62871 2.0599 6.225-3.5615 7.775-9.7129 6.1448-15.023"/>
   <path d="m64.562 81.737 0.29101-0.26732c2.6117-2.1051 3.4194-6.9005 2.3911-10.805-0.69559 4.8723-7.0778 6.444-9.5892 4.66-0.0801 1.5884-0.6471 4.8155-1.127 6.8052 0.9029 0.17063 1.6804 0.2858 2.2289 0.32609 2.9428 0.21565 5.0797 0.08531 5.8053-0.719"/>
   <path d="m56.88 62.385c1.7122 1.4396 3.5799 3.4226 4.9793 5.2134-1.244-0.4479-3.0147-0.25262-4.0848 0.68052-0.0583-1.6135-0.44648-4.0263-0.89456-5.8939"/>
  </g>
  <path d="m48.528 84.895c0.0095 0.67886 0.4332 1.3677 1.1086 1.3928 0.40287 0.01422 0.90793-0.19906 1.341-0.67715 0.23082 0.6153 0.68218 0.91295 1.0316 0.91295 0.48657 0 0.96983-0.40145 1.1705-1.0484 0.35784 0.70061 0.97314 1.0885 1.4028 1.0149 0.33414-0.0583 0.66545-0.34931 0.84773-0.77417 0.58018 0.36306 1.341 0.32798 1.6085 0 0.43131-0.52335 0.30286-1.5951-0.72232-2.7772 0.35453-1.3075 0.6454-2.682 0.88115-4.0881-2.3776 3.2688-7.3854 3.4695-9.758 2.3827 0.13698 0.54506 0.28106 1.0902 0.43794 1.6386-1.3544 0.48823-1.7088 1.7004-1.5065 2.07 0.17868 0.32751 1.2005 0.37775 2.1569-0.0474" fill="#ce712f"/>
  <path d="m70.123 73.671c-0.27774 1.4781 0.23082 3.2889 2.717 3.4294 8.4271 0.47302 14.495-5.165 15.246-15.279 2.1436 14.028-12.43 21.601-20.992 16.159 0.55677-1.6771 0.69388-3.5464 0.47652-5.5127 0.76744 0.37301 1.5834 0.87446 2.5532 1.2039" fill="#6a4606"/>
  <path d="m21.543 65.205c-1.9295 5.0027-0.28926 9.8166 3.8307 10.997 4.0547 1.1621 8.3451-1.2574 10.387-6.5009 0.62871 0.31424 1.5333 0.9029 2.2004 1.4145-5.9157 1.1253-5.5228 7.8285-0.1019 10.853-0.0016-0.0017-0.0033-0.0033-0.0047-0.0033 2.5031-0.97812 7.9188-0.83432 9.7263-0.12039-1.764-6.1899-2.0215-11.718-0.06351-17.929 0.7792-2.478 2.0683-4.6533 3.5281-6.0211 2.5248-2.3693 4.4693-5.506 5.4391-8.3903-0.73066-0.0237-1.4764-0.24599-2.1887-0.74071-3.5146 12.957-28.47 18.981-41.09 10.972 1.8593 1.9346 5.3773 4.5864 8.3385 5.4693" fill="#79ab5e"/>
  <path d="m47.878 82.872c-0.05024-0.44648-0.16541-0.68388-0.29765-1.0267-1.8075-0.71393-7.2249-0.85773-9.7263 0.12039 0.0016 0 0.0033 0 0.0047 0.0017-1.4697 0.27916-2.1486 1.2942-1.9579 2.0533 0.17063 0.68554 1.1972 0.74071 2.3977 0.35121 0.41804 0.45311 1.3928 0.47652 2.2606 0.11043 0.39624 0.52335 1.2975 0.57184 2.396 0.11849 0.99988-0.4114 2.4629-0.74905 3.6534-0.77583h0.0095c0.24599-0.3678 0.65042-0.73403 1.259-0.95305" fill="#ce712f"/>
  <path d="m22.734 58.129c5.8438 4.6349 13.254 0.31092 14.567-5.0412 2.2422 3.6819 1.2474 9.7079-2.9277 11.124-5.6816 1.9262-9.0524-1.2072-11.639-6.0829" fill="#ce712f"/>
  <path d="m22.574 61.91 0.94134 0.85774 0.4916-1.6085z" fill="#79ab5e"/>
  <path d="m8.9481 52.375c-1.0584-0.46496-2.0533-0.8293-3.0197-1.1303-1.259-0.39292-1.1387-0.8193 0.14044-0.4916 0.84271 0.21565 1.7138 0.48155 2.6234 0.85608z" fill="#442023"/>
  <g fill="#0f141b">
   <path d="m24.786 53.721c-0.12702-0.38628 0.15072-0.50492 0.39292-0.23888 0.14029 0.15356 0.31282 0.4332 0.4332 0.74574 0.12892 0.34268 0.01422 0.45311-0.27585 0.2422-0.24931-0.18058-0.44126-0.41472-0.55013-0.7491"/>
   <path d="m29.752 52.144c-0.08531-0.43794-0.43984-0.32419-0.49657 0.12228-0.03792 0.30428-0.03318 0.53004 0.0237 0.80261 0.07346 0.38438 0.24267 0.41472 0.3896 0.07015 0.12228-0.29244 0.15736-0.62033 0.08531-0.99485"/>
   <path d="m51.559 57.034c5.8337-6.2936 7.2115-14.925 3.125-23.656-4.3657-9.33-13.226-13.574-22.053-12.716-1.9964 0.19385-4.0213 0.2858-5.496 0.14361-1.2758-0.1256-1.249-0.37965-0.23414-1.0801 3.4427-2.3793 4.9726-5.6448 5.4391-8.6846 0.75578-4.9041-1.2306-9.1578-2.3743-9.3417-0.60696-0.095267-4.2303 1.9613-6.5828 5.6665-1.5082 2.3776-2.3877 5.2686-1.7774 8.7164 0.21376 1.2088-0.20565 1.2991-0.50496 0.11375-0.8795-3.4762-0.11536-6.6948 1.5266-9.3166 2.4478-3.9026 6.3654-6.1197 7.4924-5.9291 1.7289 0.29244 3.8775 5.1415 3.11 10.221-0.49326 3.2538-2.0616 6.526-5.6966 8.9622 1.4212 0.06872 3.0949-0.0033 5.0646-0.22892 9.6644-1.1052 18.816 3.9176 23.062 12.99 4.2069 8.9889 2.8776 18.326-3.7387 24.519-1.157 1.0818-1.4814 0.82764-0.36258-0.37965"/>
   <path d="m21.15 15.598c-1.2139-2.381-2.9177-4.3323-4.5245-5.6783-2.7304-2.289-5.2502-3.11-5.9508-2.7221-1.1152 0.61701-1.5517 5.2184 0.96143 9.6176 1.3995 2.4495 3.8005 4.7302 7.362 5.9725 0.74406 0.25926 0.82265 0.4095 0.15551 1.045-9.8015 9.3434-13.239 20.185-9.2832 29.764 3.8357 9.2882 13.826 14.258 25.353 12.055 1.2791-0.24409 1.3694 0.21566 0.1038 0.5133-11.184 2.6234-22.262-2.2121-26.405-12.244-4.0631-9.8333-0.59692-21.354 9.6059-30.515-3.7454-1.2758-6.1866-3.5916-7.6613-6.1598-2.6703-4.6466-2.0901-9.7547-0.5802-10.706 0.97313-0.6153 4.0213 0.32419 6.8052 2.6619 1.4982 1.2574 2.8976 2.9595 4.0413 4.9225z"/>
   <path d="m38.394 56.324c2.2907 1.1554 5.787 1.0199 7.6998-0.41614 3.6584-2.7472 4.262-8.9287 1.657-14.344-3.4093-7.0828-8.8535-8.7532-12.721-7.4908-2.9646 0.96812-4.67 3.8958-5.3723 6.7718-0.2858 1.1705-0.55345 1.2123-0.99154 0.07536-1.2641-3.2739-3.7888-6.7116-4.3974-6.6263-0.5133 0.07346-1.8342 4.4008-1.1487 8.8016 0.182 1.1788-0.17916 1.3343-0.85276 0.43652-2.1619-2.8826-4.8874-3.8173-7.0376-3.1385-4.5847 1.4446-5.8839 9.0909-3.5096 14.381 3.7454 8.3418 9.4437 8.3803 12.371 5.6783l0.45122 0.58018c-3.3842 3.2772-9.7982 2.8057-13.694-5.8739-2.5699-5.7284-1.0751-13.975 4.0681-15.595 2.7605-0.8711 5.608 0.55179 7.3854 2.8408-0.59857-4.2837 0.6772-8.8066 1.8092-9.024 1.1236-0.21565 3.8708 3.7989 4.9994 6.7534 0.6153-2.5081 2.4161-5.8505 5.6599-6.9105 4.3239-1.4129 10.288 0.69223 13.781 7.9506 2.911 6.0561 1.9763 12.5-1.9513 15.446-1.9563 1.4697-5.7819 1.7356-8.1261 0.56516z"/>
   <path d="m35.989 51.664c-3.3507-4.6081-8.4421-4.966-11.079-3.1317-2.8893 2.0131-3.5648 7.4539-0.56682 11.576 3.3691 4.6332 8.4371 5.0412 11.224 3.013 2.7773-2.0198 3.7939-6.8186 0.42135-11.457m0.68725-0.46496c3.4109 4.6917 2.5565 10.141-0.6772 12.492-3.3759 2.4562-9.0357 1.4179-12.315-3.0899-3.0582-4.2052-2.7338-10.183 0.8009-12.641 3.2522-2.2639 8.8535-1.3493 12.191 3.2387"/>
   <path d="m24.995 60.326c-0.86612-0.77583-0.60696-1.122 0.31282-0.41282 2.2054 1.6988 4.4109 2.3007 6.3671 1.5751 2.085-0.77418 3.732-3.0448 4.3456-6.118 0.18532-0.93129 0.65876-0.84603 0.50492 0.09195-0.55677 3.4193-2.2907 5.8555-4.5948 6.7116-1.7289 0.64037-4.3925 0.42989-6.9356-1.8476"/>
   <path d="m38.278 71.446c-2.7053 0.62369-4.3406 2.376-4.2135 4.5547 0.12039 2.0365 1.3928 4.0363 3.9878 5.7886 0.07536 0.05024-0.43652 0.35595-0.62706 0.23888-2.6268-1.6185-4.0932-3.7203-4.2253-5.9709-0.13034-2.2221 1.5935-4.4175 4.3941-5.1432z"/>
   <path d="m40.743 84.714c-1.2139 0.55676-2.5315 0.3877-2.896-0.40951-0.36638-0.80091 0.03318-1.7423 1.0367-1.9212 0.79252-0.14219 0.87446 0.24409 0.09195 0.4479-0.53169 0.13887-0.74905 0.67384-0.50662 1.2055 0.20902 0.45832 1.1186 0.55345 1.9579 0.19053z"/>
   <path d="m46.439 84.154c-1.1621 0.04834-2.493 0.37301-3.3892 0.74237-1.5449 0.63706-2.6468 0.34457-2.9662-0.61028-0.25594-0.76578 0.0237-1.5751 1.1052-1.8142 0.80929-0.17726 0.8912 0.2038 0.10048 0.44648-0.61701 0.19053-0.74408 0.63203-0.5635 1.1721 0.16067 0.48155 0.82768 0.74574 2.1051 0.21897 1.0785-0.44648 2.5733-0.79422 3.9627-0.8093z"/>
   <path d="m47.36 81.041c-1.6954-0.76583-2.9829-1.846-3.8005-3.1585-0.57686-0.92632-0.22229-1.1821 0.44126-0.31424 0.831 1.0885 1.7975 1.9396 3.192 2.6418z"/>
   <path d="m48.536 85.188c-1.0885 0.47984-2.182 0.4095-2.4512-0.08199-0.34457-0.63369 0.15214-1.8476 1.4413-2.4094-2.1218-6.9959-2.2824-13.117-0.39955-18.459 0.45832-1.2992 0.89456-1.157 0.4916 0.1621-1.5818 5.1716-1.3778 11.26 0.48487 18.205 0.09858 0.37112 0.05356 0.45122-0.26068 0.59023-1.055 0.46164-1.3176 1.3527-1.1922 1.5784 0.10854 0.2057 0.94636 0.25736 1.8626-0.18911z"/>
   <path d="m51.107 85.892c-0.42135 0.53672-1.0183 0.75071-1.4998 0.73232-1.1938-0.04266-1.6721-1.5968-1.1336-2.5097 0.3678-0.62364 0.69554-0.45501 0.40808 0.20902-0.26258 0.60359 0.04266 1.6135 0.77413 1.6403 0.35121 0.01422 0.85442-0.19385 1.2323-0.68057z"/>
   <path d="m52.006 86.856c-0.66213 0-1.4279-0.74574-1.4028-2.0433 0.01422-0.71393 0.42135-0.72232 0.45643-0.0095 0.0474 0.87115 0.46496 1.3962 0.94802 1.3962 0.49326 0 1.0968-0.50496 1.0367-1.6202-0.04266-0.7892 0.35784-0.831 0.45501-0.04739 0.17726 1.4413-0.60194 2.3241-1.4931 2.3241"/>
   <path d="m53.3 85.01c0.25926 0.72905 0.80759 1.2189 1.2189 1.1521 0.54174-0.08863 0.93636-0.69725 0.76749-1.5985-0.1474-0.78754 0.20902-0.88281 0.44316-0.11707 0.3678 1.2039-0.2275 2.2171-1.0985 2.3676-0.6053 0.10522-1.2223-0.31756-1.5801-0.97144z"/>
   <path d="m55.513 85.432c0.52335 0.36638 1.0584 0.32088 1.2657 0.07204 0.29433-0.35784 0.30429-1.147-0.55008-2.2155-0.21234-0.26258-0.21423-0.3294-0.15072-0.5852 1.6687-6.7802 1.9044-14.117 0.7591-19.299-0.38438-1.7406 0.03792-1.8476 0.50496-0.1256 1.4647 5.4258 1.3126 12.779-0.71398 19.593 1.1287 1.249 1.1504 2.4579 0.66213 3.0515-0.33604 0.4114-1.2423 0.55345-1.9697 0.07015z"/>
   <path d="m57.791 67.88c1.1487-0.80261 2.7639-1.0367 3.8808-0.56013 0.99149 0.42136 0.84769 0.80925-0.17584 0.47486-1.0734-0.35121-2.6201-0.0095-3.6517 0.78583z"/>
   <path d="m56.605 81.746c0.719 0.23556 1.448 0.37775 2.167 0.4479 1.1119 0.11043 0.97983 0.56852-0.03318 0.52335-0.79422-0.03318-1.6704-0.13555-2.279-0.35121z"/>
   <path d="m59.505 84.389c-0.63037 0.39102-1.5299 0.58189-2.2355 0.45643l-0.17394-0.70725c0.56516 0.20238 1.4747 0.10522 2.0683-0.23746z"/>
   <path d="m62.566 84.119c-0.75242 0.6655-1.8577 0.91461-2.682 0.77418-0.94636-0.15878-1.152-1.0818-0.73569-1.6587 0.32277-0.4479 0.61867-0.2877 0.37112 0.26258-0.13555 0.30571-0.0095 0.65208 0.49823 0.73735 0.70062 0.12039 1.5183-0.03318 2.1636-0.57018z"/>
   <path d="m65.114 81.27c1.127 1.7674 0.32609 3.1385-1.4028 3.3541-1.336 0.16731-1.9462-0.59691-1.7406-1.4212 0.15072-0.60862 0.52169-0.51833 0.44126 0.1237-0.04834 0.38107 0.33936 0.74403 1.2323 0.63037 1.2992-0.1621 1.6804-0.99822 0.99656-2.2222z"/>
   <path d="m54.558 53.679c7.0827 3.4728 12.502 10.999 13.43 18.459 0.52335 4.2169-0.73237 7.6797-3.2638 9.8049-0.8193 0.6872-1.1303 0.32751-0.32941-0.40619 2.2874-2.0984 3.2789-5.2669 2.7739-9.3217-0.84608-6.8086-5.9123-14.323-13.027-17.921z"/>
  </g>
  <path d="m22.523 20.191c-1.9596-0.97314-3.6083-2.2389-4.8523-3.7889-0.71062-0.88281-0.3695-1.1838 0.3896-0.34126 1.3376 1.4881 2.6953 2.5147 4.6533 3.4594 0.2858-2.2372 1.2022-4.9743 2.3559-6.8888 0.54842-0.91129 0.95973-0.68052 0.4479 0.25073-0.99988 1.8175-1.8693 4.7319-2.1603 6.8888-0.07536 0.55677-0.2858 0.69222-0.83432 0.41946" fill="#009234"/>
  <g fill="#0f141b">
   <path d="m16.331 62.476c-8.1278-0.32277-16.018-10.763-15.59-14.487 0.15214-1.3259 2.3208-2.9161 7.0293-3.2906l0.018484 0.76413c-4.451 0.36258-6.1247 1.759-6.22 2.5967-0.36116 3.1936 6.8069 12.348 13.731 13.535z"/>
   <path d="m67.223 77.702c3.8675 2.3275 9.6143 2.1386 13.958-0.61862 4.0881-2.595 6.4441-7.0426 6.735-12.246 0.31424-5.603-1.7272-8.7615-4.4476-8.3886-3.4494 0.46638-4.3624 4.2771-2.3659 9.0441 0.47652 1.137 0.59189 2.3074 0.19385 3.5732-1.7289 5.4943-9.1962 6.7902-13.677 3.6668l-0.1038-0.82768c4.4343 3.2237 11.457 2.1402 13.122-3.0665 0.33794-1.0601 0.19054-1.9981-0.24599-3.0398-2.3977-5.7251-0.88783-9.534 2.9913-10.061 3.0398-0.41282 5.6264 2.5264 5.2569 9.1327-0.3076 5.506-2.8558 10.126-7.0727 12.801-4.4693 2.8375-10.611 3.1485-14.615 0.62032z"/>
   <path d="m37.992 82.081c-1.4229 0.42135-1.9195 1.2574-1.7723 1.8526 0.09858 0.3896 0.67384 0.58857 1.9228 0.18911l0.3678 0.48491c-1.6453 0.61862-2.7254 0.36637-2.9461-0.51335-0.22087-0.88783 0.42467-1.9897 1.9412-2.3425 1.3644-0.31756 1.7189-0.03318 0.48657 0.32941"/>
  </g>
  <path d="m56.501 49.495c2.1068-0.0095 5.0446-4.6282 6.4942-9.549 1.1754-3.9878 1.2239-8.1546-0.06683-10.012-2.3776-3.421-11.341-0.84105-12.328 0.80422-1.1687 1.9463-1.4965 6.5778-0.43984 10.908 1.2406 5.0746 3.7286 7.8569 6.3404 7.8485" fill="#865b16"/>
  <path d="m31.854 71.195c0.26732-1.4429 0.17916-3.2722-0.40808-5.0495 0.35263-0.89124 0.40477-2.371-0.01896-2.59-0.31092-0.16399-0.7992-0.02844-1.2156 0.31282 0.0095-0.81427-0.26068-1.5951-0.73901-1.7122-0.42799-0.10522-0.91461 0.07868-1.3008 0.57184-0.10854-0.80261-0.47989-1.5032-0.923-1.55-0.41614-0.04266-0.90622 0.29575-1.1871 0.93471-0.2493-0.82266-0.66715-1.4196-1.1152-1.428-0.53672-0.0095-1.234 0.84939-1.4781 2.2456-0.46496-0.73066-1.1637-1.2457-1.5416-1.1035-0.4114 0.15736-0.81261 1.5583-0.22418 2.9244-2.0382 5.3154-0.35448 9.7246 2.8257 11.173 1.7022 0.77418 3.5615 0.78754 5.297 0.19054 1.8476-1.5132 2.3877-3.5832 2.0265-4.9192" fill="#ef8337"/>
  <path d="m62.509 29.681c1.2707 6.2752-4.0096 15.466-10.081 17.337 1.0384 1.371 2.677 2.6201 4.1584 2.5181 1.8944-0.12892 4.9308-4.4025 6.4658-9.8851 1.428-5.093 0.98485-8.8367-0.5434-9.9704" fill="#6a4606"/>
  <g fill="#ce712f">
   <path d="m24.53 75.923c1.7038 0.77417 3.5631 0.7892 5.297 0.19243 1.8476-1.5148 2.3894-3.5832 2.0265-4.9208 0.0474-0.2493 0.07678-0.51164 0.1019-0.78086-2.1252 3.018-10.37 2.4128-10.997-2.901-0.63538 4.0396 0.96145 7.2232 3.5715 8.4104"/>
   <path d="m31.258 63.505c0.06209 0.77081-0.17726 1.4397-0.46164 1.9496-0.26258 0.4697 0.13698 0.78588 0.52164 0.66549 0.34126-0.63203 0.67384-2.4011-0.06019-2.6151"/>
   <path d="m21.867 61.948c0.49326 0.41946 0.80593 0.89622 0.92466 1.4112 0.07204 0.31424 0.3095 0.39102 0.58189 0.32941 0.01422-0.22419 0.02844-0.50994 0.0654-0.79086-0.36638-0.64208-1.1905-1.2223-1.5717-0.94973"/>
   <path d="m24.775 60.734c0.34457 0.56013 0.44979 1.2975 0.43984 1.9212-0.0095 0.58857 0.26589 0.72569 0.5735 0.65545 0.01422-0.32419 0.11043-0.94134 0.30618-1.2691-0.21044-0.76076-0.86612-1.4028-1.3192-1.3075"/>
   <path d="m27.158 61.138c0.21897 0.56516 0.27063 1.2691 0.18058 1.9763-0.03792 0.30286 0.07204 0.5033 0.33794 0.54174 0.05166-0.24267 0.33794-0.7591 0.48989-1.0015-0.10522-0.74242-0.57516-1.5784-1.0082-1.5165"/>
   <path d="m29.291 62.217c0.16399 0.61867 0.14029 1.2707-0.08531 1.8292-0.14693 0.36448-0.01896 0.62701 0.28912 0.71227 0.14361-0.27916 0.42467-0.65379 0.69725-0.89788-0.0033-0.58857-0.34268-1.7038-0.90124-1.6436"/>
  </g>
  <path d="m56.497 49.113c1.7757-0.0033 4.5647-4.2118 6.0561-9.2681 1.1888-4.038 1.2223-7.9355 0.0095-9.6778-2.2472-3.2337-10.77-0.68388-11.637 0.76413-0.97314 1.6219-1.5183 6.0428-0.39481 10.643 1.1838 4.8472 3.6785 7.5426 5.9642 7.5392m0 0.78086c-3.0097 0.0047-5.501-3.1485-6.7233-8.1495-1.02-4.1751-0.82934-9.0424 0.45501-11.184 1.1604-1.9329 10.514-4.4627 13.044-0.84939 1.4163 2.0198 1.3293 6.2585 0.1256 10.345-1.4196 4.8155-4.5112 9.8333-6.9005 9.8383" fill="#0f141b"/>
  <path d="m50.966 39.51c1.1186-1.9864 3.8942-4.5111 6.1414-5.5027 0.98822-0.43652 1.1721-0.0474 0.21897 0.46164-2.1285 1.1353-4.7369 3.5414-5.9324 5.3171-0.61364 0.91124-0.98651 0.7173-0.42799-0.27585" fill="#442023"/>
  <g fill="#0f141b">
   <path d="m31.495 71.739c0.38628-1.6369 0.24931-3.508-0.27585-5.3522-0.06019-0.20902-0.04834-0.30618 0.0095-0.48657 0.3095-0.93134 0.23224-1.9396 0.02844-2.055-0.28438-0.15878-0.79252 0.0095-1.2574 0.58189-0.48487 0.59691-0.77413 0.3896-0.37301-0.264 0.51335-0.83934 1.4179-1.1788 1.9546-0.89954 0.61701 0.32087 0.53003 1.876 0.16399 2.8909 0.65379 1.9195 0.69559 4.048 0.19053 5.7067-0.33604 1.1019-0.71062 1.0183-0.44126-0.12181"/>
   <path d="m29.923 64.141c0.07015-0.86944-0.19243-1.5466-0.52667-1.662-0.41472-0.14029-0.92632 0.0801-1.2758 0.75076-0.36637 0.70223-0.72232 0.51833-0.40808-0.20902 0.39624-0.91798 1.142-1.3477 1.8292-1.1805 0.63203 0.15214 0.96641 1.0099 0.95973 1.8543z"/>
   <path d="m27.918 63.053c-0.05166-0.91959-0.40145-1.5031-0.69388-1.5449-0.44126-0.06019-0.96144 0.46638-1.1236 1.2724-0.15356 0.76247-0.53506 0.69891-0.45169-0.07536 0.13887-1.2925 0.99656-1.9229 1.6503-1.8577 0.56184 0.06019 0.99319 0.83768 1.1169 1.6252z"/>
   <path d="m24.944 61.013c-0.42799-0.0033-1.0751 0.8093-1.2841 2.1436-0.11517 0.7474-0.51833 0.70223-0.45311-0.06351 0.13555-1.5801 0.96144-2.7422 1.749-2.7371 0.57018 0.0047 1.0617 0.6872 1.2908 1.4212l-0.37301 0.72569c-0.18058-0.89456-0.63203-1.4881-0.92964-1.4898"/>
   <path d="m36.152 69.94c-1.9195 5.6298-7.4539 8.3987-11.775 6.4324-3.3123-1.5082-5.1984-6.0027-2.9813-11.619-0.60695-1.4396-0.20902-2.9896 0.4297-3.2321 0.4916-0.18722 1.254 0.35974 1.7155 1.025l-0.15878 0.76076c-0.44458-0.82432-1.1236-1.2423-1.3293-1.1721-0.26921 0.09384-0.52672 1.3042-0.14883 2.3626 0.07678 0.21755 0.07536 0.32087 0.0047 0.52165-1.9296 5.5178 0.09526 9.3217 2.7806 10.542 3.9644 1.8058 8.8702-0.63203 10.786-5.9424z"/>
   <path d="m38.981 72.501c-0.82095-0.88617-2.2472-1.9095-3.4611-2.5432-1.0216-0.53335-0.80256-1.0132 0.25073-0.54004 1.3159 0.59355 2.7422 1.6168 3.6551 2.6569 0.88954 1.0116 0.42989 1.3694-0.44458 0.42657"/>
  </g>
  <path d="m22.571 57.648c-0.29244 0.69725-0.74574 1.2206-1.3226 1.4982-1.5951 0.76413-4.5229-0.50999-6.2601-3.8624-1.8075-3.4879-1.0601-6.5878 0.4297-7.3453 1.8744-0.95139 5.0128 0.28912 6.7885 4.374-0.31945 1.229-0.34931 3.3843 0.36448 5.3355" fill="#fff"/>
  <path d="m45.415 46.522c1.453 3.7286 0.38296 7.1547-1.8543 7.9974-2.1971 0.82598-5.2502-0.78086-6.7534-4.645-1.5483-3.9744-0.33794-7.1513 1.8225-7.9924 1.9412-0.75574 5.1733 0.5016 6.7851 4.6399" fill="#fff"/>
  <path d="m21.217 50.534c1.1687 2.5148 0.86777 5.1348-0.6755 5.8522-1.5416 0.7173-3.8273-0.66384-4.9977-3.1803-0.93467-2.0115-0.95139-4.135-0.13209-5.2719 1.7991-0.83603 4.1249 0.08531 5.8053 2.6" fill="#0f141b"/>
  <path d="m42.307 42.463c0.78086 0.70559 1.4647 1.7022 1.9195 2.8927 1.1721 3.0648 0.45311 5.7702-1.4346 6.4909-1.744 0.66715-4.15-0.54008-5.3723-3.7403-0.78754-2.0583-0.69057-4.2119 0.12702-5.5261 1.0517-1.0802 2.8809-1.2741 4.7603-0.11707" fill="#0f141b"/>
  <path d="m19.565 51.417c0.64708 1.259 0.5685 2.3157 0.0017 2.5866-0.56348 0.27063-1.453-0.24741-2.0951-1.4981-0.59692-1.1621-0.51164-2.3074 0.0033-2.5733 0.49492-0.25404 1.3828 0.10711 2.0901 1.4848" fill="#fff"/>
  <path d="m42.106 46.256c0.49823 1.5533 0.11517 2.488-0.49662 2.6836-0.65545 0.21092-1.5048-0.4332-1.9763-1.9011-0.45311-1.4079-0.22087-2.5314 0.4114-2.7338 0.61867-0.19906 1.5935 0.49326 2.0617 1.9513" fill="#fff"/>
  <g fill="#0f141b">
   <path d="m22.036 52.966c-1.5734-4.1132-4.6332-5.6314-6.4524-4.7051-1.3577 0.69057-1.9045 3.6467-0.25248 6.8336 1.6837 3.2471 4.3339 4.4159 5.7368 3.7437 0.55178-0.264 1.0283-0.84437 1.2908-1.6637l0.37443 0.95471c-0.3294 0.60364-0.78422 1.0634-1.3326 1.326-1.8192 0.8711-4.9459-0.44316-6.7868-3.9945-1.6453-3.1752-1.3226-6.8504 0.61865-7.8369 1.9814-1.0082 5.1449 0.08199 7.1212 4.0815z"/>
   <path d="m38.757 42.225c-1.8393 0.71564-3.1084 3.5832-1.5784 7.5108 1.4915 3.8323 4.3808 5.1566 6.2417 4.456 1.7122-0.64374 3.1652-3.523 1.5985-7.5476-1.5717-4.0346-4.5881-5.0729-6.2618-4.4192m7.0192 4.1517c1.5483 3.9728 0.32088 7.5476-2.1068 8.4605-2.1519 0.8093-5.4576-0.23414-7.2466-4.8255-1.652-4.242-0.25736-7.5577 2.07-8.4639 1.9078-0.74408 5.4993 0.24599 7.2834 4.8288"/>
   <path d="m23.007 50.991c-0.87617 2.0918-0.85612 4.8874 0.34789 7.4456l-0.65876 0.51501c-1.3326-2.7472-1.4497-5.8956-0.38628-8.2933z"/>
  </g>
 </g>
</svg>
