<?xml version="1.0" encoding="UTF-8"?>
<!-- Created with Inkscape (http://www.inkscape.org/) -->
<svg version="1.1" viewBox="0 0 115.82 176.45" xmlns="http://www.w3.org/2000/svg">
 <path d="m45.084 89.322c-4.5863-2.5972-19.861-8.4896-26.943-10.476-3.0136-0.81774-5.9972-1.4439-8.9329-1.8004-2.6571-1.0455-5.485-1.6655-5.9733-1.1413-0.40139 0.43137 0.21568 1.9202 1.3151 3.4329-1.8094 0.0255-3.8314 0.47638-3.9962 0.98256-0.17077 0.52392 1.0245 1.8962 2.2377 2.8398-1.2102 0.23351-2.2677 0.74555-2.3036 1.2342-0.045 0.59015 0.91067 1.7763 2.5762 2.717-1.4379 0.77612-2.6032 1.8153-2.2827 2.3695 0.35045 0.60544 2.2228 1.39 4.5953 1.6896 8.6393 6.3807 26.43 10.356 36.816 10.583 9.1726 0.14351 7.8815-9.6068 2.8908-12.432" fill="#8cc66d"/>
 <path d="m40.827 98.212c-4.1699 0.25135-6.7731-0.23097-11.18-0.9856-7.7257-1.321-15.655-3.8793-23.27-7.7317-0.32947-0.16474-0.52724-0.25475-0.87472-0.18851-1.5427 0.2938-3.2442 0.30569-4.739-0.20635l0.0178 0.38637c0.35044 0.60799 2.2228 1.387 4.5953 1.6866 8.6393 6.3806 26.43 10.356 36.816 10.586 0.94961 0.017 1.7824-0.1019 2.5193-0.30824 1.0395-1.9172-0.89568-3.421-3.8853-3.2382" fill="#79ac5e"/>
 <path d="m9.208 77.052c-2.6571-1.0484-5.485-1.6685-5.9733-1.1383-0.39842 0.42798 0.21568 1.9172 1.3151 3.433-1.8094 0.017-3.8284 0.47297-3.9962 0.97958-0.17077 0.52732 1.0245 1.8962 2.2377 2.8398-1.2102 0.23351-2.2677 0.74895-2.3036 1.2342-0.045 0.59015 0.91366 1.7763 2.5762 2.714-1.4379 0.77867-2.6032 1.8184-2.2827 2.3696 0.35045 0.61139 2.2228 1.39 4.5953 1.6925 4.6522 3.4329 18.971 8.2589 18.869 7.9024-1.8333-6.4286 1.336-14.762 5.9493-16.14-7.1415-2.8188-14.187-5.0626-20.987-5.8864" fill="#f08437"/>
 <g fill="#cf712e">
  <path d="m5.374 91.172c4.6552 3.4329 18.986 8.2979 18.887 7.9593-0.29355-1.0155-0.46134-2.0759-0.51526-3.1543-5.8235-1.4559-11.686-3.6127-17.369-6.4885-0.33253-0.16474-0.52724-0.25475-0.87772-0.18597-1.5397 0.29381-3.2412 0.3057-4.7391-0.20974l0.0238 0.38976c0.3445 0.60799 2.2168 1.387 4.5893 1.6896"/>
  <path d="m7.612 79.272c1.1863 1.7015 1.6596 2.3007 3.0915 3.6217 0.85675 0.79396-0.25763 1.9921-1.0754 1.0365-1.8094-2.1179-2.3995-4.1878-2.016-4.6582"/>
  <path d="m0.581 84.152c1.1713 1.1263 2.4894 1.9322 3.9272 2.3216 0.83573 0.22502 0.64705 1.3151-0.18877 1.342-2.4055-1.0065-4.059-2.7259-3.7385-3.6636"/>
  <path d="m0.608 80.152c1.0425 1.1323 2.4384 2.127 3.6816 2.5972 0.87173 0.33287 0.52426 1.3451-0.30858 1.3421-1.8183-0.97057-3.8494-3.2353-3.3731-3.9393"/>
  <path d="m3.283 75.822c0.52121 1.0455 1.6656 2.6272 2.705 3.5528 0.63211 0.56638 0.08687 1.3151-0.6051 1.1863-1.8992-2.4714-2.6511-4.2447-2.0999-4.739"/>
 </g>
 <g fill="#0f141b">
  <path d="m43.981 88.422c2.1119 1.0095 1.7794 1.5996-0.29661 0.68866-11.305-4.9398-23.471-9.9634-34.557-11.605l-0.08067-0.017c-3.2472-1.2792-5.2004-1.5128-5.467-1.2432-0.23369 0.23352 0.40742 1.8483 1.6296 3.421 0.707 0.91368 0.23963 1.2881-0.51229 0.41014-1.6716-1.9531-2.4714-3.7805-1.8273-4.4844 0.70997-0.77017 3.2532-0.2488 6.4735 1.0125 11.389 1.1353 23.806 6.6353 34.638 11.818"/>
  <path d="m4.829 79.752c-2.0101-8e-3 -3.7146 0.42203-3.8374 0.743-0.0841 0.20974 0.94662 1.6506 2.3995 2.702 1.2012 0.86876 0.87471 1.2522-0.37151 0.5426-1.5667-0.89874-3.2173-2.6871-2.9297-3.5409 0.26061-0.77018 2.3036-1.2402 4.1968-1.2581l0.54218 0.81178"/>
  <path d="m3.205 83.472c-1.393 0.20379-2.2407 0.73706-2.2557 0.95554-0.0331 0.41609 0.82682 1.5607 2.6272 2.6002 1.2612 0.73112 1.0005 1.0904-0.29958 0.58422-1.8423-0.71583-3.3431-2.3696-3.2742-3.2562 0.0476-0.63517 1.0545-1.2941 2.4234-1.5218l0.77884 0.63771"/>
  <path d="m3.439 87.372c-1.9022 0.98858-2.3575 1.7135-2.2437 1.9142 0.20372 0.34476 1.6686 1.0994 4.0171 1.4319 0.29058 0.0425 0.35044 0.0764 0.5871 0.23692 9.4182 6.4016 26.892 10.221 37.592 10.506 1.9501 0.051 2.0071 0.653 0.02972 0.73961-10.464 0.4492-29.252-3.7504-38.206-10.604-2.3336-0.23946-4.3526-1.0215-4.8559-1.8992-0.35648-0.62583 0.27555-1.7494 2.3096-2.8219l0.76984 0.4976"/>
  <path d="m8.987 83.422c-1.2821-1.7764-2.2707-3.7805-1.9232-4.2897 0.41642-0.61138 2.2078-0.67677 4.1609 0.13502 1.2282 0.51543 1.0335 1.0425-0.22766 0.61393-1.6536-0.55704-2.9237-0.48571-3.1065-0.23351-0.13179 0.18256 0.57819 1.7165 1.7015 3.382 0.90468 1.3391 0.37448 1.7495-0.6051 0.39231"/>
 </g>
 <path d="m80.492 20.938c1.2072-0.1019 2.1419 1.1863 2.1988 3.5888 0.051 2.2766-0.87776 3.6276-2.025 3.6546-13.615 0.32947-34.333-0.16813-45.5-0.81773-1.2791-0.0764-2.0999-1.2282-1.8153-3.3281 0.27258-1.9862 1.4199-3.2054 2.6301-3.0915 11.042 1.0545 31.538 1.0664 44.512-6e-3" fill="#d4975c"/>
 <g fill="#ae7b49">
  <path d="m78.692 25.015c0.11039 1.1294 0.58676 2.2617 1.2072 3.1813l0.76679-8e-3c1.1473-0.034 2.079-1.384 2.025-3.6606-0.0594-2.3995-0.99155-3.6876-2.1988-3.5827l-0.24286 0.017c-1.0275 0.77273-1.7464 2.1209-1.5577 4.059"/>
  <path d="m78.712 24.605c-2.5732 0.19445-4.8768 0.16473-8.6333-0.0679-0.81773-0.0509-0.95861-0.33881-0.24541-0.90468 0.79651-0.62582 1.6296-1.3749 2.2557-2.034-1.2761 0.0594-1.1143-0.034-2.4114-0.0594-1.6806 1.345-5.0146 3.2742-7.3183 3.9602 3.2233 0.53921 6.0631 1.5278 8.882 2.8698 1.8722-0.09 6.9348-0.11719 9.4062-0.18257-0.99155-0.12567-1.8423-1.5188-1.9352-3.5828"/>
  <path d="m33.38 24.078c-0.19471 2.0311 0.53021 3.1964 1.8094 3.2803 0.91366 0.0594 3.5857 0.4492 4.5144 0.45855 3.9722-1.5038 7.8515-2.5073 10.179-2.9177-2.4234-0.41948-13.894-0.5995-16.503-0.82113"/>
 </g>
 <path d="m80.552 21.43c-13.085 1.1143-33.428 1.0844-44.614 0.017-0.94662-0.09-1.8273 0.79395-2.079 2.6421-0.28455 2.1 0.51526 2.723 1.357 2.7739 11.198 0.65299 31.745 1.1593 45.452 0.82961 0.77612-0.017 1.5847-0.89262 1.5308-3.1543-0.051-2.2317-0.72178-3.1843-1.6476-3.1064m2.6421 3.0855c0.0594 2.5283-1.0844 4.119-2.4743 4.158-13.903 0.40165-34.198-0.10444-45.566-0.81518-1.2432-0.0764-2.6601-1.0934-2.2797-3.8853 0.31155-2.3096 1.5877-3.6786 3.1783-3.5289 11.15 1.0664 31.487 1.0635 44.428-6e-3 1.5128-0.12567 2.6482 1.309 2.7141 4.077" fill="#0f141b"/>
 <path d="m80.662 27.69c-0.56044 8e-3 -1.402-0.81773-1.4529-3.1094-0.051-2.1508 0.77612-3.1364 1.3151-3.1484l-0.85374-0.66489c-0.89568 0.63517-1.4948 2.0401-1.4529 3.8434 0.051 2.2137 0.8449 3.403 1.6655 3.8464l0.77867-0.76678" fill="#0f141b"/>
 <path d="m114.74 78.482c-0.17068-0.36259-1.0994-0.50355-2.1658-0.42203 0.51203-1.372 0.73706-3.0046 0.26663-3.3551-0.39571-0.29381-1.1323-0.1019-1.9711 0.28786 0.61733-1.6507 0.63771-3.2832-0.11973-3.4899-0.4976-0.13502-2.2437 1.5996-3.9452 2.4235-7.4052 4.4484-14.78 6.9827-25.031 8.825 9.9095-8.0732 11.767-21.119 7.8395-32.787-4.3826-13.007-15.242-22.473-27.572-24.585 11.719-3.0466 17.476-15.796 14.969-20.295-1.8183-3.2682-17.168-0.17408-19.978 9.0648-2.2048-8.933-8.7502-14.316-11.41-13.468-1.6356 0.52137-5.6347 6.6952-4.5683 12.609 1.1204 6.2159 4.4874 10.134 9.1845 11.554-15.748 2.9747-28.47 12.189-33.266 23.495-4.0201 9.4751-2.6451 20.652 3.4839 29.078 5.3202 5.9254 9.9634 9.2654 19.717 10.383-2.8099 4.5354-8.3967 15.314-8.3907 24.264-2.9956-0.79651-5.8714-0.50355-8.3458 0.54515-3.6636 1.5516-6.4496 4.739-7.486 8.4056-1.5457-1.6806-2.8159-2.031-3.9812-1.348-0.67397 0.39571-0.98855 1.0664-0.93762 1.9682-0.73095-0.60544-1.6925-0.65045-2.5253-0.0764-0.55721 0.39231-0.87172 0.9136-0.96159 1.5277-0.86572-0.29041-1.9202 0.16814-2.3515 0.8568-1.1743 1.8692-0.25161 4.3975 2.8159 7.3392 2.8129 2.7021 5.2573 5.9613 6.833 8.9989 1.1054 2.1328 3.0465 2.6541 5.428 1.5967 1.3241-0.59356 2.4534-1.5308 2.9357-2.9507 5.9493-5.3382 14.921-8.166 28.539-6.7192 9.0018 0.95564 17.156 3.1903 22.162 7.4201-0.50609 1.1803-0.051 2.8368 1.6626 4.4035 2.5852 2.3666 4.2118 4.3497 5.6257 6.7581 1.3271 2.2617 2.5433 3.0166 3.7595 2.2137 0.70989-0.46703 1.2671-1.2102 1.36-2.0729 0.85373 0.21568 1.8333-0.1554 2.4325-0.88371 0.35325-0.42798 0.57827-0.98256 0.56639-1.6057 0.88973 0.32352 1.8393-0.0679 2.4804-0.76424 0.76084-0.82707 0.85977-2.079-0.0679-3.3311-0.93169-1.2582-1.7794-2.1599-2.798-3.1305 3.7774-3.5318 5.6048-9.2115 3.2353-14.577-2.2257-5.0326-6.2848-7.8875-12.48-10.128-1.7374-0.62922-2.2317-1.2342-2.7231-2.765-1.0275-3.1873-2.028-7.9564-2.5073-12.746 15.37-0.51204 31.319-6.7641 39.458-16.461 0.88074-0.87777 1.5487-1.9592 1.342-2.4474-0.14945-0.35664-0.77018-0.698-1.4738-0.97058 0.698-1.1024 1.1263-2.2946 0.96157-2.6392" fill="#8cc66d"/>
 <g fill="#f08437">
  <path d="m88.932 141.21c-0.80585 0.7549-1.6955 1.42-2.6571 1.9502-3.9303 2.1539-7.8036 1.2582-10.823-2.079-0.47043-0.51204-0.99156-0.99453-1.5427-1.4588-0.50354 1.1773-0.051 2.8368 1.6656 4.4035 2.5852 2.3666 4.2088 4.3526 5.6227 6.7581 1.33 2.2587 2.5463 3.0166 3.7625 2.2168 0.70988-0.47043 1.2671-1.2133 1.36-2.076 0.85374 0.21824 1.8304-0.15539 2.4325-0.88371 0.35324-0.43136 0.57487-0.98255 0.56638-1.6056 0.88668 0.32692 1.8393-0.0594 2.4804-0.76424 0.76083-0.82962 0.85976-2.079-0.0679-3.3311-0.93169-1.2582-1.7794-2.1629-2.798-3.1305"/>
  <path d="m20.295 127.81c-3.7715-7.2644-6.2189-9.3852-8.3218-8.1511-0.67703 0.39571-0.99154 1.0635-0.93762 1.9682-0.73095-0.60544-1.6925-0.65045-2.5283-0.0679-0.55416 0.38976-0.86872 0.90766-0.96159 1.5218-0.86274-0.28786-1.9172 0.17068-2.3516 0.86274-1.1713 1.8692-0.2516 4.3945 2.8189 7.3362 2.8129 2.7021 5.2603 5.9613 6.83 8.9989 1.1084 2.1359 3.0525 2.6511 5.431 1.5936 2.0071-0.88965 3.5738-2.5852 3.1005-5.5478-0.45829-2.8368-1.6686-5.7965-3.0795-8.5105"/>
  <path d="m112.58 78.062c0.51203-1.372 0.73706-3.0046 0.26323-3.358-0.39231-0.29381-1.1293-0.1019-1.9681 0.2938 0.61733-1.6536 0.63771-3.2892-0.11973-3.4899-0.4976-0.13501-2.2437 1.5937-3.9452 2.4205-5.527 3.3251-11.039 5.5718-17.743 7.2674-2.2587 4.3526-0.56893 12.441 4.8469 16.152 8.172-2.8668 15.358-7.2733 19.999-12.806 0.88371-0.87777 1.5487-1.9592 1.345-2.4474-0.15285-0.35325-0.77018-0.70055-1.4738-0.96761 0.69461-1.1053 1.1233-2.3006 0.96158-2.6392-0.17068-0.36259-1.0994-0.5061-2.1658-0.42543"/>
 </g>
 <path d="m18.075 73.522c-4.6402-8.9988-4.6192-19.292 0.33253-28.087-3.5828-2.9057-11.458-4.3227-13.567-2.4833-2.3366 2.043-3.3311 11.159 0.21865 19.585 2.732 6.4825 7.495 9.9334 13.016 10.985" fill="#875a14"/>
 <path d="m60.742 69.712c7.6478 8.166 26.972 1.5876 23.528-19.103-3.0106-18.093-21.601-22.162-28.929-13.07 0.23963-3.6816-1.0874-9.6578-2.2557-9.8256-1.5308-0.21568-6.6473 5.4071-7.4681 9.7328-6.4765-8.4985-20.259-2.72-26.367 11.371-4.6192 10.658-1.4589 21.092 4.766 24.435 4.0591 2.1748 8.6753 1.0604 12.249-2.9267l24.477-0.61393" fill="#fff899"/>
 <path d="m62.242 60.702c0.24286 12.378-7.489 18.971-13.744 19.217-7.0367 0.27852-13.783-7.6927-14.004-18.896-0.22171-11.479 7.1266-18.615 13.531-18.744 7.1955-0.1469 14.004 7.495 14.217 18.423" fill="#f08437"/>
 <path d="m36.226 61.262c1.0365 10.125 7.0187 17.045 12.638 16.365 8.1301-0.98255 13.253-11.267 10.275-19.975-0.22758-0.6564-0.46449-0.8658-1.0395-0.91972-5.6946-0.5477-14.184 0.79396-20.879 3.1664-0.8807 0.31418-1.0724 0.58761-0.99454 1.363" fill="#ee869a"/>
 <path d="m59.802 60.362c-0.14096-0.91368-0.35664-1.8184-0.66234-2.708-0.22162-0.6564-0.46108-0.8658-1.0334-0.91666-5.7007-0.55449-14.187 0.79396-20.882 3.1663-0.8807 0.31164-1.0724 0.58421-0.99454 1.36 0.29661 2.8848 0.99454 5.506 1.9711 7.7706 3.5588-6.5574 13.106-11.347 21.601-8.6723" fill="#932f00"/>
 <path d="m40.89 58.752c-1.2611 0.34731-2.4953 0.73112-3.6696 1.1443-0.50626 0.18256-0.77884 0.3507-0.90766 0.60204 0.54218 1.348 1.5038 2.717 2.5253 3.3401 1.0455-0.95267 1.9951-3.1454 2.052-5.0866" fill="#fff"/>
 <path d="m58.102 56.732c-1.1443-0.11039-2.4084-0.14096-3.7445-0.10444 0.662 1.5816 1.7854 3.5947 2.6721 4.6941 0.88969-0.61394 1.7764-1.7914 2.2886-3.1035l-0.17662-0.56639c-0.22757-0.65639-0.46703-0.86273-1.0395-0.91971" fill="#fff"/>
 <path d="m51.749 132.21-0.05689-6e-3c2.8998 12.45-0.47034 21.401-6.3627 26.927-6.3747 5.9852-18.453 7.7077-22.848-0.59016-4.9697-9.3883-11.048-11.281-15.463-7.525-3.6996 3.1514-3.5468 10.344 5.1884 17.977 10.628 9.2954 27.937 9.586 40.297-1.9112 8.0912-7.528 12.363-18.513 10.167-32.88-3.367-0.93466-7.0636-1.5817-10.922-1.9921" fill="#875a14"/>
 <path d="m34.608 58.642c0.37448 0.56893 0.91666 1.0484 1.5937 1.4408 0.12584 8.855 5.6976 18.321 12.776 17.509 7.4741-0.85679 13.759-11.222 9.7447-20.823 0.95861-0.67423 1.8064-1.4139 2.5163-2.2198 3.9483 14.538-4.4365 24.576-12.444 25.37-6.836 0.67083-15.469-8.172-14.187-21.278" fill="#cf712e"/>
 <path d="m43.981 76.442c-1.9891-7.3452 9.3403-14.622 15.907-12.081 0.21908-1.4408 0.0425-2.9776-0.051-4.02l-1.381-0.41013c-0.3023 0.51543-0.94061 1.0455-1.369 1.3569-0.43137-0.50949-0.99455-1.2222-1.354-1.7584-5.9852-0.15285-13.115 2.5164-17.587 9.5111 0.77884 2.049 3.5049 6.2069 5.8384 7.4022" fill="#cf7487"/>
 <path d="m3.241 46.173c0.44036 8.6483 6.2369 17.653 12.009 19.837 0.47332 2.049 1.4139 4.8918 2.5702 7.2134-8.1541-0.27002-17.407-11.92-14.58-27.05" fill="#6a4604"/>
 <g fill="#79ac5e">
  <path d="m76.632 4.897c0.2004 5.7935-6.5364 15.817-17.363 19.969 0.68612 0.14096 1.4888 0.29975 2.696 0.54515 9.6429-2.1359 18.285-14.31 14.667-20.514"/>
  <path d="m49.97 2.773c2.8279 3.8224 5.5629 10.188 6.3178 14.535 0.22171-1.2192 0.50626-2.2887 0.662-3.0466-0.87772-3.9092-3.2353-8.6603-6.9798-11.488"/>
  <path d="m86.272 68.432c-21.011 22.65-61.874 21.679-71.616-5.0986 1.3031 7.8905 6.8689 17.641 14.538 21.272 2.0999 7.0816 11.093 14.25 21.997 14.331 9.9873 0.0679 21.029-5.8474 27.572-15.709 1.2761-0.15285 2.1478-0.24541 3.34-0.49166 3.3311-2.9687 5.9642-7.3662 6.6173-9.1995-1.1174 0.43137-2.3216 0.034-2.4474-5.1046"/>
  <path d="m75.772 96.622c6.2009-0.19785 9.2984-0.73706 15.134-2.2617 0.81518 1.1323 1.7973 2.1449 2.9596 2.9537-6.0631 2.1389-14.247 3.2772-22.069 3.7535-1.1743-2.2198 0.91963-4.3436 3.9751-4.4455"/>
 </g>
 <g fill="#cf712e">
  <path d="m113.85 84.552c0.82708-0.68611 1.5577-1.8363 1.348-2.5643-0.53327 0.698-1.4139 1.1683-2.2886 1.5009-0.47637 0.18257-0.5995 0.29381-0.87479 0.53327-4.6971 4.107-12.423 8.0642-21.125 10.335 0.81518 1.1323 1.7973 2.1449 2.9626 2.9507 8.7293-3.0795 15.508-7.5999 19.978-12.755"/>
  <path d="m114.44 78.392c-0.58761 1.0604-1.6296 2.3126-2.4594 3.0614-0.65639 0.58421-0.14096 1.5308 0.64705 1.348 1.0664-1.1832 2.3725-3.5557 1.8123-4.4095"/>
  <path d="m112.61 74.602c-0.20974 1.4858-0.77273 3.0735-1.4888 4.074-0.48232 0.67423 0.27512 1.6417 0.90765 0.96464 1.0006-2.4354 1.4259-4.6103 0.58082-5.0386"/>
  <path d="m110.76 71.432c-0.2004 1.6207-1.0335 3.9423-2.1748 5.2543-0.51543 0.59611 0.28447 1.6027 0.99453 0.8748 1.0784-1.336 2.4834-5.3502 1.1803-6.1291"/>
  <path d="m109.06 79.002c-0.43137 1.5637-1.336 3.1095-2.5402 4.2628-0.77867 0.74895 0.0764 1.7194 0.85373 1.2492 1.333-1.4948 2.75-4.763 1.6865-5.512"/>
  <path d="m12.06 124.41c-0.37745-0.50015-0.68297-1.2252-0.85075-1.7554-1.7285-0.18256-2.9896 1.3151-2.738 3.2173-0.35044-0.37447-0.56018-0.86571-0.72492-1.4529-2.2437 0.23691-2.9776 3.2952-0.44037 6.147 2.5163 2.1958 6.2369 6.7012 7.3542 9.4842 0.69197 1.7194 2.4983 2.8009 4.4874 2.2227 3.418-0.99453 4.6462-3.3251 4.2268-5.9523-0.45531-2.8398-1.6686-5.7935-3.0795-8.5105-5.0866-8.6513-8.9239-7.4891-8.2349-3.4"/>
 </g>
 <path d="m86.272 143.16c0.96158-0.53327 1.8512-1.1953 2.6571-1.9502 5.2154-4.5802 6.0691-14.169-0.27003-19.627 6.2938 10.239-4.3496 17.704-14.744 11.991-8.3727-4.6042-15.349-6.6502-26.748-8.6543-3.0076-0.53327-4.2927-1.6416-6.1829-3.7864-8.2649-9.3883-20.235-3.7236-22.114 4.068 0.47332 0.81774 0.94662 1.6896 1.4259 2.6092 1.4079 2.714 2.6212 5.6737 3.0765 8.5105 0.13782 0.85671 0.05095 1.7644-0.18571 2.6451l0.02123-0.0425c6.111-5.5388 15.517-7.7976 26.67-6.9348 9.6399 0.74301 19.115 3.2382 24.031 7.6358 0.54856 0.46449 1.0695 0.94663 1.5398 1.4588 3.0196 3.3372 6.8929 4.2328 10.823 2.079" fill="#79ac5e"/>
 <path d="m89.312 148.44c-0.20974 1.426-1.1533 2.5164-2.9986 2.4894-0.27852 1.1533-1.1683 2.2527-2.2407 2.4444-1.0694 0.19446-1.8303-0.92566-2.6271-2.2587-0.7965-1.339-3.6637-5.0506-5.6048-6.7102-1.9412-1.6565-2.6721-3.379-1.9382-4.778 0.5511 0.46448 1.0725 0.94663 1.5427 1.4588 3.0196 3.3401 6.8929 4.2328 10.823 2.076 0.92566-0.50949 1.7824-1.0964 2.6571-1.9472 0.95266 0.80585 2.3276 2.5284 3.0435 3.5708 1.3211 1.9292-0.51543 4.116-2.6571 3.6547" fill="#cf712e"/>
 <path d="m51.602 149.5c3.1334 0.66234 4.6192 3.6307 2.5583 7.4801-8.4596 15.766-35.252 22.461-48.313 2.8249 5.6707 14.714 23.336 19.663 38.242 13.019 15.188-6.7671 21.697-24.217 18.582-38.628-3.5647-0.95563-6.8809-1.5697-10.922-1.9921 1.0545 5.4909 1.5457 12.372-0.14682 17.297" fill="#6a4604"/>
 <path d="m15.451 52.994c-1.5068-1.8033-3.4869-3.3311-5.5928-4.2927-1.9951-0.90766-1.7195-1.5517 0.31452-0.74555 2.037 0.81178 4.11 2.2406 5.5868 3.9302l-0.30858 1.1084" fill="#441f23"/>
 <g fill="#0f141b">
  <path d="m42.654 46.581c-0.03312-0.70395 0.59916-0.74895 0.80279-0.0679 0.08984 0.30569 0.12584 0.60799 0.10784 0.90171-0.03566 0.56299-0.2696 0.66234-0.58116 0.16134-0.14376-0.22163-0.31452-0.70989-0.32956-0.99758"/>
  <path d="m51.662 46.799c0.46729-0.62328-0.02717-0.97355-0.60213-0.52987l-0.63211 0.67082c-0.28761 0.46109-0.22171 0.73961 0.29958 0.54261 0.3625-0.13756 0.70097-0.36259 0.93463-0.68271"/>
  <path d="m16.113 47.965c4.9727-11.719 20.241-22.051 34.836-23.674 2.1508-0.23946 2.2527 0.37448 0.14079 0.80245-15.859 3.2382-28.536 12.009-33.416 23.506-6.123 14.427 1.4229 34.956 19.927 38.152 1.7405 0.3057 2.711 1.5038-0.13179 1.327-16.766-1.0664-29.007-22.078-21.356-40.114"/>
  <path d="m80.872 82.912c9.4422-7.519 12.234-20.137 8.0193-32.652-4.4844-13.321-15.358-22.737-28.359-24.69-1.9412-0.2938-1.8423-1.0155 0.11379-0.81433 13.384 1.39 25.103 11.404 29.678 24.98 4.2777 12.71 1.2881 25.433-7.7107 32.934l-1.7405 0.24286"/>
  <path d="m60.972 25.096c4.8769-1.0904 8.9899-3.8674 12.048-7.7646 3.6546-4.6582 4.6971-9.7088 3.439-11.967-0.90171-1.6147-7.7018-1.6835-13.828 2.5074-2.9686 2.028-5.1494 4.8858-5.6048 8.5075-0.21271 1.7045-0.91965 1.6416-0.80882-0.0679 0.2426-3.7655 2.3096-7.0606 5.7785-9.4392 7.0547-4.8379 14.349-4.2478 15.556-2.0819 1.5787 2.8368 0.44666 8.1331-3.6127 13.339-3.2502 4.1699-7.4711 6.6203-10.91 7.507l-2.058-0.5426"/>
  <path d="m49.239 25.108c-4.3197-1.4349-7.7826-5.2813-8.9329-11.653-1.1413-6.3417 3.0256-12.665 5.1554-13.345 2.019-0.64451 5.8834 1.5847 8.7951 5.9523 1.336 2.007 2.4894 4.6552 3.0975 7.2284l-0.63805 1.8094c-0.69197-3.1664-2.061-6.0362-3.5288-8.2469-2.735-4.1219-5.9583-6.0421-7.3812-5.5898-1.39 0.44326-5.2064 5.9013-4.125 11.922 1.1264 6.2429 4.4784 10.08 9.5081 11.392l-1.9501 0.52987"/>
 </g>
 <path d="m55.676 22.137c-1.8633-1.9142-3.7265-4.5024-4.6222-6.4315-0.78181-1.6925-0.16474-2.01 0.73095-0.37448 1.0455 1.8933 2.8338 4.2388 4.4425 5.8564 2.1988-1.9951 4.7271-3.8463 7.3542-5.2392 1.8573-0.98858 2.2047-0.35665 0.39231 0.70649-2.3845 1.3929-4.7929 3.2293-7.1235 5.4041-0.55721 0.51798-0.73392 0.52393-1.1743 0.0764" fill="#009333"/>
 <g fill="#0f141b">
  <path d="m35.147 60.982c0.22766 11.608 7.0127 18.642 13.339 18.39 5.2543-0.20634 13.339-5.7756 13.088-18.627-0.22163-11.431-7.2225-18.016-13.54-17.89-5.3741 0.10784-13.118 6.3177-12.887 18.126m27.877-0.26324c0.23691 12.219-7.5489 19.495-14.55 19.777-7.4171 0.29041-14.553-8.0283-14.777-19.456-0.19471-10.005 6.4705-19.139 14.313-19.295 7.9713-0.15879 14.804 8.211 15.014 18.974"/>
  <path d="m36.711 61.232c1.1263 10.008 7.0367 16.344 12.138 15.727 7.8725-0.94961 12.594-10.712 9.8586-19.124-0.14351-0.4492-0.26324-0.56298-0.68306-0.60544-5.5628-0.53581-13.825 0.83556-20.64 3.1184-0.63508 0.21229-0.72789 0.3957-0.67397 0.88371m-0.96458 0.0764c-0.0929-1.0305 0.11387-1.4319 1.336-1.8633 6.9199-2.4534 15.397-3.8554 21.026-3.2263 0.81178 0.09 1.1233 0.30824 1.4649 1.3031 3.1843 9.3462-2.3096 19.621-10.649 20.628-6.0721 0.73367-12.261-6.5874-13.178-16.841"/>
  <path d="m41.375 58.592c0.02378 2.037-0.92864 4.1788-1.9501 5.3292-0.44037 0.4976-0.64408 0.52732-1.1294 0.18596-0.85075-0.5961-1.7135-1.6955-2.2167-2.9207l0.5961-1.0694c0.49123 1.3001 1.2522 2.3875 2.1029 3.0735 0.78784-0.82707 1.5008-2.4594 1.6506-4.3406l0.94662-0.2573"/>
  <path d="m59.532 58.922c-0.41354 1.0035-1.1533 1.9322-1.9082 2.5613-0.57819 0.48232-0.77884 0.41353-1.1413-0.0679-0.91367-1.1923-1.9442-2.9327-2.6451-4.784l0.99754-0.0594c0.60808 1.4349 1.4768 3.0855 2.2856 4.047 0.86574-0.70649 1.5876-1.8333 1.9621-3.1244l0.4492 1.4289"/>
  <path d="m56.179 60.192c-7.4261-0.56044-14.792 3.8104-17.761 9.4242l-0.45829-1.1264c3.0495-5.407 10.233-9.7027 17.524-9.4062l0.69494 1.1084"/>
  <path d="m58.872 59.572c0.28447 0.0679 0.57488 0.15285 0.85671 0.24286l0.14096 1.0815c-0.653-0.2004-1.309-0.36853-1.9681-0.48826l0.9706-0.83556"/>
  <path d="m36.54 70.842c-3.6696 4.029-8.5285 5.2902-12.854 2.9716-6.5454-3.5138-9.7986-14.262-5.0266-25.274 3.7865-8.7352 10.871-14.984 17.402-15.757 3.6696-0.44071 7.0696 0.90163 9.3104 3.4959 1.3271-4.4515 5.9912-9.4781 7.8305-9.2205 1.4259 0.2038 2.7829 5.1614 2.6661 9.0976 3.0944-3.3041 7.9683-5.1314 14.208-3.4959 8.187 2.1478 13.453 9.3314 14.87 17.842 1.4858 8.9358-0.83896 18.093-9.4452 22.024-5.0866 2.3306-11.186 1.7644-14.957-2.1359l0.42798-1.2911c3.3311 3.5288 8.7951 4.4066 13.915 2.052 7.8844-3.6067 9.9095-11.988 8.5225-20.328-1.354-8.13-6.0601-14.789-13.639-16.778-5.3083-1.393-9.9395-0.19446-13.45 3.1783-1.2731 1.2223-1.5278 1.0904-1.5218-0.42542 0.0093-3.7026-1.2342-8.184-1.8723-8.2948-1.0455-0.18851-5.2693 4.1369-6.5873 8.3128-0.38942 1.2281-0.698 1.4618-1.5008 0.5477-2.3216-2.6451-5.1854-3.5798-8.6393-3.1723-5.44 0.64705-12.159 5.7516-16.182 15.035-4.5653 10.533-1.4049 20.409 4.3047 23.471 4.113 2.2018 8.5345 0.67083 11.77-3.0586l0.44937 1.2043"/>
  <path d="m18.384 74.202c-6.2189-0.95563-11.308-5.0656-13.963-11.365-3.6187-8.5884-2.744-17.995-0.0416-20.352 2.0849-1.8274 10.158-0.88074 14.328 2.4145l-0.63211 1.0784c-3.9123-3.0256-11.102-4.0381-12.8-2.5373-2.1179 1.8633-2.9806 10.835 0.4014 18.863 2.3126 5.4849 6.2758 9.2115 12.075 10.556l0.63211 1.3421"/>
  <path d="m31.136 111.9c0.2696-5.2543 2.3486-13.675 5.5089-18.69 1.1623-1.8483 1.7255-1.5188 0.70997 0.41014-2.6092 4.9517-4.787 12.86-5.0147 18.57l-1.2042-0.29041"/>
  <path d="m23.683 113.18c-3.5049 1.4829-6.2998 4.5983-7.2614 8.3697l-0.98556-1.0514c1.1114-3.7086 4.0441-6.9738 7.7526-8.5465 5.2453-2.2167 11.41-0.83896 16.407 4.2268 1.5787 1.6027 1.0784 2.07-0.56018 0.608-5.1674-4.6193-10.595-5.6198-15.353-3.6068"/>
  <path d="m19.924 127.99c-4.086-7.7077-6.2309-8.7293-7.7047-7.8575-0.99154 0.58082-1.1323 2.2857 0.79684 5.2962 0.81179 1.2702 0.27555 1.6206-0.6051 0.39825-2.3036-3.1933-2.3605-5.7186-0.73095-6.7162 1.6536-1.0095 4.2508-0.82367 8.9808 8.5105 1.1833 2.3366 0.48529 2.6721-0.73689 0.36853"/>
  <path d="m11.104 122.31c-0.63211-0.74895-1.5098-0.8567-2.3156-0.30569-1.1773 0.81518-0.99154 2.6451 0.61113 4.784 1.0275 1.3779 0.55416 1.7134-0.56316 0.4492-1.8333-2.064-2.6601-4.8169-0.67397-6.1949 0.88071-0.61139 2.1389-0.5511 2.8968 0.0849l0.04501 1.1863"/>
  <path d="m7.558 123.58c-0.75787-0.29975-1.5517 0.0255-1.9442 0.65894-1.0065 1.6027 0.10181 4.134 2.747 6.7042 2.9087 2.8249 5.2423 5.8654 6.9348 9.1066 0.90468 1.7285 2.3725 2.3935 4.778 1.348 2.3036-1.0245 3.2023-2.6092 2.8968-5.0086-0.26358-2.079 0.47034-2.1868 0.81179-0.11718 0.51229 3.1005-0.94662 5.0956-3.2802 6.132-2.2707 1.0275-4.6762 0.87165-6.111-1.8843-1.6955-3.2623-3.8673-6.147-6.7371-8.873-3.2263-3.0645-4.4095-5.7545-3.0316-7.9593 0.5961-0.94663 1.8663-1.4169 2.8698-1.0994l0.06623 0.99155"/>
  <path d="m23.389 138.01c6.7132-5.6437 15.883-7.7166 28.416-6.3836 11.536 1.2223 19.519 3.9992 23.977 9.1516 1.2941 1.4978 0.64366 2.049-0.65894 0.61988-4.2568-4.6732-12.069-7.3902-23.426-8.5975-12.839-1.3659-22.224 0.95266-28.812 7.1536l0.50329-1.9442"/>
  <path d="m74.332 139.96c-0.41354 1.0904 0.16473 2.4055 1.5906 3.7115 2.6392 2.4235 4.2328 4.3646 5.7037 6.8719 1.2372 2.1029 2.1508 2.5074 3.0465 2.0011 1.366-0.76678 1.6656-2.3396 0.43731-3.7025-1.0784-1.1953-0.64111-1.6176 0.51798-0.50355 1.4469 1.39 1.6806 3.7325-0.39825 5.1045-1.2043 0.7999-2.6601 0.67678-4.4784-2.4204-1.4349-2.4415-2.8968-4.2238-5.5509-6.6233-1.8543-1.6806-2.4804-3.6697-1.7075-5.1525l0.83896 0.71329"/>
  <path d="m86.332 150.44c0.74555 0.17408 1.5008-0.13161 2.001-0.743 0.77018-0.93466 0.66828-1.9262-0.14691-3.0825-0.75149-1.0754-0.31163-1.4319 0.56044-0.46109 1.3569 1.5248 1.2701 3.1874 0.38637 4.2598-0.66829 0.81773-1.9471 1.357-2.9206 0.97661l0.11973-0.94961"/>
  <path d="m89.222 140.82c1.0634 1.0125 1.9621 1.9531 2.9177 3.2383 1.1923 1.6086 0.89569 3.0435 0.0594 3.9571-0.91071 0.99461-2.076 1.2313-2.9507 0.90774l-8e-3 -1.0276c0.61139 0.34475 1.4139 0.25474 2.1688-0.56299 0.68611-0.7515 0.66233-1.6896-0.0926-2.708-0.96158-1.3121-1.7045-2.079-2.7829-3.1004l0.69545-0.70394"/>
  <path d="m75.052 100.97c0.4492 4.4545 1.378 9.1306 2.4923 12.591 0.47043 1.4588 0.74556 1.8753 2.3545 2.4264 6.9289 2.3905 10.724 5.3861 12.914 10.335 3.1154 7.0487-0.53327 14.256-6.3417 17.21-1.8692 0.95258-2.3426 0.4526-0.38636-0.72772 5.0835-3.0735 8.2889-9.568 5.485-15.913-2.028-4.5833-5.509-7.4201-12.084-9.7987-2.0041-0.72517-2.5733-1.2551-3.1334-3.1274-1.0815-3.6067-2.064-8.3547-2.4864-12.944l1.1863-0.051"/>
  <path d="m114.03 80.742c0.93763 0.28786 1.5247 0.70989 1.7075 1.1443 0.31419 0.74301-0.30569 1.8063-1.5128 3.0106-8.2529 10.212-24.914 16.692-40.309 16.548-2.8308-0.034-2.8458-0.73707-0.017-0.83557 15.844-0.52392 31.67-7.0846 39.65-16.368 1.0934-1.0874 1.342-1.6535 1.2281-1.9262-0.11973-0.28446-0.53327-0.5511-1.2612-0.82112l0.51204-0.7515"/>
  <path d="m112.66 77.612c0.97355-0.0679 2.2557 0.0425 2.5433 0.64111 0.31419 0.66828-0.62327 2.7021-1.7255 3.9123-0.96463 1.0635-1.5278 0.79056-0.56044-0.4526 0.98858-1.2671 1.4888-2.708 1.348-3.0046-0.0679-0.14945-0.70395-0.29041-1.8064-0.18256l0.2004-0.91369"/>
  <path d="m110.97 74.452c0.97058-0.48486 1.7764-0.50014 2.2078-0.1435 0.71583 0.60544 0.3923 2.732-0.4976 4.4455-0.76424 1.4649-1.36 1.3091-0.65894-0.29636 0.73111-1.6656 0.75489-3.0615 0.48826-3.3461-0.18257-0.19446-0.78462-0.13502-1.7914 0.4492l0.25135-1.1083"/>
  <path d="m109.7 76.472c1.327-2.1388 1.303-4.3616 0.90765-4.4604-0.32692-0.0764-1.363 1.2671-3.5678 2.3725-9.0348 5.5808-18.926 8.834-34.659 10.2-3.0645 0.26664-3.1304-0.38976-0.0849-0.80839 16.206-2.2288 25.037-4.9278 34.255-10.281 1.9232-0.90163 3.4988-2.699 4.3347-2.5013 1.4888 0.35324 1.1143 3.6277-0.59016 5.8834-0.89866 1.1953-1.4498 0.97057-0.5995-0.4042"/>
  <path d="m107.61 83.362c1.3062-1.8992 1.5907-3.3941 1.2882-3.9482-0.19445-0.35919-1.3121-0.3507-3.1604 0.16473-1.4649 0.41354-1.6476-0.15879-0.21569-0.68866 1.9831-0.73366 3.8314-0.8657 4.3107 0.09 0.49166 0.96752-0.0255 2.8847-1.6417 4.8139-1.0005 1.1922-1.5367 0.96157-0.58082-0.43137"/>
  <path d="m63.302 134.42c2.1179 13.822-1.6686 24.938-10.437 33.093-11.988 11.156-29.684 11.94-41.085 1.9741-8.4746-7.4111-9.6429-15.056-5.1375-18.893 4.2508-3.6157 10.664-3.1125 16.344 7.6119 3.9872 7.534 15.433 6.6832 21.985 0.53921 6.6383-6.2309 8.7771-15.511 6.135-26.634l1.1982 0.13757c2.762 11.276 0.17671 20.945-6.6113 27.314-6.4016 6.0032-19.007 7.9923-23.659-0.7965-4.6851-8.852-10.578-10.79-14.676-7.3003-3.8853 3.3041-2.2856 10.592 5.1914 17.129 10.655 9.3193 27.626 9.1936 39.581-1.9322 8.5974-7.9983 11.923-18.941 10.002-32.592l1.1684 0.3507"/>
 </g>
 <path d="m106.45 47.381c-1.8543-4.1159-16.14-3.1244-18.666-0.11973-0.55704 0.66234-1.0125 5.0626-1.4049 12.096-0.3957 7.1086-0.19445 13.771 1.33 14.229 1.1982 0.35664 10.416-3.8763 15.029-10.799 4.0321-6.0482 4.9697-12.612 3.7116-15.406" fill="#875a14"/>
 <path d="m105.99 47.027c0.33287 6.0362-8.0043 16.608-19.762 20.34 0.051 2.6151 0.4526 5.8714 1.33 6.2548 1.5337 0.66488 11.446-4.6103 15.793-11.731 3.4719-5.6887 4.7001-12.576 2.6392-14.864" fill="#6a4604"/>
 <path d="m105.84 47.65c-1.5697-3.4929-15.095-2.9267-17.575 3e-3 -0.47043 0.55109-0.75489 2.4653-1.2731 11.728-0.47043 8.5285 0 13.33 0.87174 13.606 0.98552 0.30569 9.8016-3.8194 14.277-10.533 3.8584-5.7876 4.9368-12.066 3.6996-14.804m1.2043-0.53327c1.4798 3.2862 0.28447 10.287-3.6517 16.188-4.4874 6.7312-14.187 11.707-15.913 11.087-1.8932-0.67677-2.1448-7.4231-1.7194-15.095 0.53666-9.6129 0.78801-11.839 1.399-12.537 3.0585-3.5109 17.911-4.0262 19.885 0.35664" fill="#0f141b"/>
 <path d="m88.322 56.732c2.1867-3.3041 5.9942-6.0511 9.3103-6.8839 1.8123-0.45515 2.0041 0.19445 0.22163 0.76423-2.9506 0.9406-6.4376 3.2472-8.8729 6.5843-1.1683 1.6027-1.8244 1.2941-0.65894-0.46449" fill="#441f23"/>
 <path d="m69.052 41.692c-3.8134 0.4526-6.5784 6.2548-5.6258 12.255 1.0904 6.8719 6.0212 9.586 9.0527 9.0288 3.8764-0.71329 6.3088-5.8204 5.6468-11.251-0.63177-5.2004-4.3556-10.587-9.0737-10.032" fill="#fff"/>
 <path d="m31.301 43.822c3.2592 0.79395 4.8499 5.7366 3.8314 11.075-1.0994 5.7636-4.6821 10.616-8.837 9.6579-3.0975-0.71329-4.9038-5.8265-3.9542-11.192 1.1863-6.6952 6.0961-10.239 8.9599-9.541" fill="#fff"/>
 <g fill="#0e0f0e">
  <path d="m76.842 52.509c0.35324 5.3502-2.4115 7.8245-4.5114 8.0072-2.2227 0.19191-5.8684-1.8093-6.2428-7.3931-0.29975-4.4695 1.5157-8.1781 4.4545-8.5495 3.1663-0.40165 5.9912 3.2952 6.2998 7.9354"/>
  <path d="m35.468 54.902c-0.93762 3.2862-3.418 8.1271-6.5394 7.5519-3.403-0.62582-4.3287-5.5239-3.0166-9.8256 1.363-4.4545 4.8978-6.5694 7.0487-5.8474 2.1299 0.70395 3.4629 4.772 2.5073 8.1211"/>
  <path d="m69.142 42.255c-4.2118 0.69205-5.9553 6.5634-5.1584 11.605 0.40164 2.5133 1.6775 5.8145 4.068 7.5399 1.2941 0.93466 2.7529 1.2731 4.3317 1.0125 3.8733-0.63771 5.9523-4.9038 5.1764-10.613-0.48826-3.5827-2.1898-6.9229-4.3407-8.5105-1.2492-0.92566-2.6241-1.2731-4.077-1.0335m2.2168 21.383c-1.429 0-2.759-0.44071-3.9722-1.3151-2.6751-1.9262-4.092-5.5449-4.5263-8.2829-1.1504-7.2644 2.1957-12.267 6.096-12.908 1.7704-0.29041 3.43 0.12567 4.9398 1.2402 2.8937 2.1388 4.3736 6.1919 4.7929 9.2714 0.86273 6.3686-1.5967 11.147-6.12 11.893-0.41014 0.0679-0.81179 0.1019-1.2102 0.1019"/>
  <path d="m30.552 44.301c-0.75787 0-1.6266 0.29381-2.5133 0.85374-2.4594 1.5487-4.3796 4.6611-5.1405 8.3248-1.1323 5.452 0.3175 9.7807 3.5258 10.524 1.2252 0.27598 2.4175 0.051 3.5408-0.68271 2.1479-1.4079 3.8703-4.5923 4.6073-8.5315 0.96458-5.1345-0.53021-9.7148-3.406-10.416l-0.6141-0.0679m-3.1304 20.954c-0.41642 0-0.83582-0.0509-1.2522-0.1435-3.8494-0.88966-5.6527-5.7665-4.3856-11.866 0.82376-3.9572 2.9357-7.3392 5.6467-9.0558 1.4019-0.88371 2.8219-1.2102 4.0051-0.91963 3.5198 0.85679 5.3472 5.8984 4.2538 11.731-0.80584 4.2957-2.6631 7.6748-5.1015 9.2684-0.99454 0.65045-2.073 0.9856-3.1664 0.9856"/>
 </g>
 <path d="m31.6 50.712c-1.1353-0.17068-2.3995 1.6806-2.699 3.5139-0.31452 1.9292 0.16779 3.9153 1.3181 4.1429 1.2312 0.2454 2.3006-1.5247 2.6032-3.5678 0.24566-1.6716 6e-3 -3.9063-1.2222-4.089" fill="#fff"/>
 <path d="m71.212 48.585c-1.1982 0.14096-1.9741 1.9052-1.7134 4.1998 0.24286 2.1748 1.4588 3.6817 2.711 3.5289 1.2551-0.15879 1.8063-1.9562 1.5847-4.146-0.21569-2.1269-1.2192-3.7475-2.5823-3.5827" fill="#fff"/>
</svg>
