<?xml version="1.0" encoding="UTF-8"?>
<!-- Created with Inkscape (http://www.inkscape.org/) -->
<svg version="1.1" viewBox="0 0 155.5 182.42" xmlns="http://www.w3.org/2000/svg">
 <g transform="translate(-40.592 -55.235)">
  <g>
   <path d="m116.16 104.11c-2.9905-7.214-5.4005-14.152-7.2221-21.222-1.6454 6.5695-8.339 9.3358-13.619 6.8658 5.3245 7.4342 11.422 13.483 18.704 16.978 2.35 1.129 3.3268 0.2362 2.1378-2.6222" fill="#ea5532"/>
   <path d="m116.17 106.91c-3.8632-6.8417-6.8778-13.427-9.2718-19.913-2.8384 3.4149-7.0779 4.3516-11.293 3.1546 10.189 13.663 18.96 17.327 20.565 16.758" fill="#cb4829"/>
   <path d="m109.27 84.195c-1.8896 5.957-8.287 8.5792-13.315 6.5855l-1.3852-2.1618c5.2844 3.0225 12.635 0.30025 13.952-7.0139z" fill="#0d131a"/>
  </g>
  <g fill="#fff">
   <g>
    <path d="m130.12 73.585c1.6654 2.406 1.5693 4.3637 0.028 5.3645-1.0969 0.7126-1.3011 1.4452-2.4581 2.1058-6.021 0.89675-11.578 2.346-14.768 3.4549 2.7423-2.2099 14.092-8.8354 17.198-10.925"/>
    <path d="m108.1 230.34c-3.2147-0.1161-6.0971-0.75263-9.3518-1.7735-0.67256-0.18816-1.3091-0.43236-1.9096-0.7166-4.816 0.98082-5.0322 5.8049-2.7303 7.4142 1.6134 1.133 4.1955 1.3251 5.8409 0.3523 0.55647 0.69658 1.5453 1.1129 2.9104 1.185 1.8255 0.10008 2.9625-0.0961 3.619-0.60451 2.7503 0.92478 5.4446 0.54046 6.6816-0.82469 1.2571-1.3892 0.78466-3.6511-0.7206-5.1403-1.3411 0.14812-2.7823 0.19216-4.3396 0.10809"/>
    <path d="m129.42 125.69c2.8624 9.0516-0.53645 15.321-5.5486 16.91-5.2244 1.6494-11.686-2.1858-14.32-10.509-2.8784-9.0996 1.0449-15.689 5.4766-17.094 4.9161-1.5573 11.602 1.8616 14.392 10.693"/>
    <path d="m166.61 126.25c-0.0921-1.221-0.68057-1.8055-1.7735-1.6294-4.2235 0.68858-9.9564 1.9536-15.265 3.2828 6.6015 0.87673 13.323 5.0602 14.652 11.041 1.7214-3.6631 2.7223-8.1869 2.386-12.695"/>
    <path d="m139.95 130.8c1.0489 1.5933 2.5141 2.8064 4.0554 3.4629 0.98483-0.9608 1.5453-3.0466 1.3892-5.2764-1.4772 0.39633-2.8704 0.78466-4.1275 1.149-0.62052 0.18816-1.0449 0.40034-1.3171 0.66456"/>
    <path d="m164.17 128.69c0.68858-0.7126 1.3291-2.386 1.6414-3.9633-0.25622-0.12411-0.58449-0.16414-0.97682-0.10409-1.0649 0.17214-2.2219 0.38432-3.4309 0.62052 0.76464 1.3932 1.8055 2.6022 2.7663 3.4469"/>
    <path d="m168.89 123.49c-0.84471 1.0088-1.3692 1.5373-2.322 2.322 1.1089 10.161-4.3476 20.677-11.041 21.142-10.597 1.165-15.585-8.1268-15.997-14.492-0.0761-1.145 0.15613-1.8375 1.5253-2.4781-3.0105-1.3091-5.8569-4.6799-6.8297-8.1749-1.9376 14.456 6.8898 30.778 21.866 27.827 10.765-2.1178 14.965-14.76 12.799-26.146"/>
    <path d="m159.43 131.8c-7.9226-1.5533-15.561 4.9361-13.627 12.667-4.9682-3.7111-6.7136-10.593-5.8569-13.667 0.74863 1.217 2.414 2.7984 4.0554 3.4629 0.91677-1.1089 1.5613-2.9224 1.3892-5.2764 1.4972-0.38432 3.0786-0.77265 4.4918-1.217 2.358 0.44437 6.6616 1.9576 9.548 4.0314"/>
    <path d="m108.9 129.56c2.43 6.6736 7.4983 9.3358 10.981 8.343 3.9914-1.137 6.9338-6.6656 4.756-14.3-1.201-4.1995-3.7271-7.4462-6.5255-8.9835-6.0251-0.42436-10.793 5.8209-9.2117 14.941"/>
    <path d="m145.05 114.29c-0.75663-0.62853-0.20417-1.3331 0.66856-0.85672 0.4724 0.25622 1.0289 0.62453 1.4332 0.93278 0.64855 0.4724 0.50843 0.89676-0.27223 0.76465-0.74062-0.12411-1.249-0.36031-1.8295-0.84071"/>
    <path d="m155.3 109.96c-0.57248-0.79667-1.3611-0.18415-0.86072 0.67256 0.21618 0.36031 0.45238 0.72061 0.69658 1.0369 0.58049 0.73662 0.94479 0.48041 0.74863-0.29224-0.13611-0.52044-0.29625-1.0088-0.58449-1.4172"/>
    <path d="m119.94 125.91c1.0128 3.571 0.15613 5.925-1.3571 6.3533-1.5173 0.42435-3.3708-1.0449-4.4357-4.82-0.89675-3.1586-0.18415-6.2292 1.3251-6.6296 1.4612-0.39233 3.4029 1.3291 4.4678 5.0963"/>
   </g>
   <path d="m116.38 115.86c-0.69627-0.0551-1.4244 3e-3 -2.1719 0.20312-3.5747 0.95282-4.6582 3.8627-5.1113 6.0195-0.45296 2.1562-0.33396 4.3885 0.32031 6.6973 4.2e-4 1e-3 2e-3 2e-3 2e-3 4e-3 3.6e-4 1e-3 -3.7e-4 3e-3 0 4e-3 0.68952 2.4413 1.6606 4.477 3.3027 6.1191 1.6439 1.6439 4.5138 2.8446 7.1914 2.0957a4.9206 4.9206 0 0 0 0.0156-4e-3c2.7951-0.79122 4.4861-3.2928 5.0527-5.5215 0.56619-2.2269 0.37915-4.4976-0.30274-6.9043-0.692-2.448-1.6798-4.487-3.2344-6.1406-1.1659-1.2402-2.9701-2.4064-5.0645-2.5723z" color="#000000" stroke-linecap="round" stroke-linejoin="round" stroke-miterlimit="10" style="-inkscape-stroke:none"/>
   <g>
    <path d="m161.39 110.35c-0.0721-1.6694 0.55647-3.1306 1.8696-3.7872 3.1346-1.5653 9.7322 1.0369 11.97 10.729 0.40033 1.7174-0.29625 1.9737-0.90076 0.31627-2.7503-7.6224-6.1291-9.6081-9.0076-9.3478-1.8976 0.17214-2.6742 1.165-2.7903 2.9625z"/>
    <path d="m128.55 125.96c-2.7783-8.7794-8.9755-11.558-13.303-10.189-3.9153 1.237-7.5343 7.6384-4.8681 16.061 2.7463 8.6953 8.8754 11.402 13.267 10.016 4.8881-1.5493 7.4903-7.7025 4.9041-15.889m-19.953 6.3814c-2.7944-8.8354 0.8327-16.406 6.1532-18.087 5.6047-1.7695 12.587 1.7975 15.561 11.193 2.9024 9.1757-0.51243 16.073-6.2332 17.883-5.3805 1.7014-12.555-1.7415-15.481-10.989"/>
    <path d="m165.94 126.34c-0.0641-0.90876-0.50843-1.157-1.0489-1.0649-6.8257 1.177-16.982 3.6911-23.424 5.5366-1.205 0.34429-1.4332 0.76864-1.3091 1.5653 1.8015 12.078 11.538 15.285 16.138 13.708 6.2132-2.1378 10.229-10.477 9.6441-19.745m-27.059 6.2132c-0.19617-1.8736 0.21618-2.5301 2.1738-3.1026 7.0019-2.1818 16.438-4.6279 23.672-5.5206 1.7855-0.21618 2.394 0.32427 2.5421 2.3019 0.82069 10.633-3.7912 19.224-10.849 21.122-6.7617 1.8175-16.274-2.6702-17.539-14.8"/>
    <path d="m151.1 127.45c6.1452 1.165 12.198 5.1043 13.591 10.749l-0.94079 1.5173c-1.197-6.4374-8.9195-10.857-15.897-11.265z"/>
    <path d="m146.05 128.81c0.21618 2.2419-0.3523 4.4237-1.3291 5.6688-0.45238 0.57649-0.64455 0.60051-1.3932 0.2282-1.4852-0.75264-2.8904-1.9256-3.8272-3.3508l0.92077-1.0128c0.87273 1.3892 2.1058 2.4741 3.3828 3.0626 0.70459-1.0168 1.0449-2.454 0.92878-4.2876z"/>
    <path d="m166.41 125.15c-0.27223 1.253-0.81268 2.5982-1.4172 3.523-0.55246 0.85272-0.90476 0.88074-1.6934 0.13612-0.89275-0.8367-1.8456-1.9576-2.6382-3.4429l1.4012-0.28023c0.56448 0.98883 1.197 1.8135 2.0177 2.5702 0.4844-0.81668 0.8447-1.7815 1.0809-3.1146z"/>
    <path d="m120.53 201.9c-1.2811-1.229-2.378-2.0297-3.8432-2.7663-2.0497-1.0249-1.6934-1.8015 0.42435-0.91277 1.3171 0.55247 2.9545 1.5933 4.1715 2.8024 1.4332 1.4292 0.60851 2.1738-0.75263 0.87674"/>
   </g>
  </g>
  <path d="m71.859 100.93c-1.5813 0.7206-1.8496 2.9785-0.2442 6.021 1.5213 2.8904 3.631 3.9313 5.0883 3.1626 17.258-9.0916 39.958-22.563 53.477-31.174 1.5413-0.98082 1.7695-2.9985-0.052-5.4286-1.7254-2.2939-4.0114-3.0225-5.4526-2.0257-13.071 9.0196-35.838 21.73-52.816 29.445" fill="#d4975c"/>
  <g fill="#ae7b49">
   <path d="m76.961 104.77c0.64854 1.4852 0.84471 3.2387 0.7126 4.824-0.32427 0.17214-0.65255 0.34428-0.96881 0.51243-1.4612 0.76864-3.567-0.27223-5.0883-3.1627-1.6053-3.0426-1.3371-5.3004 0.2442-6.021 0.10409-0.048 0.21218-0.0961 0.32027-0.14412 1.8255 0.24821 3.6631 1.4252 4.78 3.9914"/>
   <path d="m76.652 104.27c3.3548-1.5533 6.2172-3.2027 10.757-6.1091 0.99283-0.63653 0.96881-1.0929-0.32828-1.3011-1.4292-0.23219-2.9985-0.58449-4.2356-0.97682 1.6374-0.81268 1.3691-0.81268 2.9745-1.7575 3.0385 0.51243 8.5592 0.5925 11.918-0.15213-3.6551 2.9225-6.5175 6.1412-9.1076 9.7922-2.402 1.189-8.7553 4.6919-11.894 6.3373 1.153-0.84871 1.245-3.1867-0.08407-5.8329"/>
   <path d="m130.12 73.585c1.6654 2.406 1.5693 4.3637 0.028 5.3645-1.0969 0.7126-1.3011 1.4452-2.4581 2.1058-6.021 0.89675-11.578 2.346-14.768 3.4549 2.7423-2.2099 14.092-8.8354 17.198-10.925"/>
  </g>
  <g>
   <path d="m72.242 106.62c1.5133 2.8664 3.1346 3.3948 4.1195 2.8744 17.379-9.1477 39.857-22.515 53.413-31.146 1.0169-0.65655 1.5813-1.9937-0.23219-4.4157-1.6134-2.1418-3.3308-2.6342-4.4517-1.8616-13.243 9.1477-35.802 21.774-52.948 29.513-1.213 0.54846-1.3852 2.2098 0.10008 5.0362m-0.70459-6.3253c16.934-7.6985 39.509-20.277 52.716-29.393 1.8816-1.2971 4.4357-0.4724 6.4374 2.1938 2.422 3.2307 1.3571 5.4886-0.14412 6.4494-13.72 8.8234-35.886 22.018-53.557 31.218-1.7695 0.92078-4.3156-0.26822-6.001-3.4749-1.8496-3.5069-1.4292-6.0931 0.54846-6.9939" fill="#0d131a"/>
   <path d="m76.363 109.49c0.7126-0.37632 1.181-2.0017-0.34829-4.9001-1.4372-2.7303-3.1627-3.3828-3.8472-3.0225l0.60851-1.4292c1.5613 0.17214 3.2908 1.5093 4.4998 3.7912 1.4812 2.8144 1.3171 4.8521 0.60451 5.981z" fill="#0d131a"/>
   <path d="m155.68 183.93c4.9442 0.75263 11.033 1.6814 16.258 2.0297 5.4886 0.3603 10.709-0.86072 15.721-3.1146 1.8295-0.15613 3.8072-0.8327 3.9593-1.9937 0.1161-0.84871-0.92478-2.386-2.0497-3.551 4.5118-4.4637 6.4654-8.5912 5.7528-9.1597-0.45237-0.3603-1.7174-0.2362-3.3148 0.44837 0.13211-0.96881 0.14812-1.9817-0.016-2.0777-0.29625-0.16414-1.6414 0.38432-2.9945 1.137-0.38032-0.54846-0.91277-1.1049-1.205-1.1169-0.3563-0.012-1.1249 0.42035-1.8736 1.0048-0.22819-0.54446-0.54846-0.99283-0.84471-1.0048-0.46039-0.02-2.0577 0.84871-3.519 1.9056-4.748-0.49242-10.581-1.241-15.497-2.2459-3.4869-0.74062-7.2541-1.8375-10.309-2.7983-9.9123-3.1146-9.7882 18.387-0.0681 20.537" fill="#8cc66d"/>
   <path d="m179.18 109.34c-8.4671-24.328-41.074-34.621-65.779-25.545 1.8335-6.2773 1.0128-12.939-2.7623-17.907-7.2341-9.528-19.148-10.689-21.054-9.4719-1.0569 0.67657-2.366 10.773 1.8816 18.251-13.027-6.9859-31.803 0.4724-31.991 3.2707-0.40434 5.8689 19.124 19.845 40.162 15.133-2.7743 1.7174-4.6639 3.3308-7.5023 6.1532-11.562 11.882-15.009 31.382-9.7402 46.523 4.6359 13.323 15.857 22.034 29.637 25.225-2.1818 8.2629-8.1748 19.656-14.392 26.238-10.777 11.422-10.032 26.274-0.80467 30.642-4.812 0.98082-5.0322 5.8049-2.7303 7.4142 1.6134 1.129 4.1955 1.3211 5.8409 0.3523 0.55647 0.69658 1.5453 1.1089 2.9144 1.185 1.8255 0.0961 2.9545-0.10008 3.615-0.60851 2.7503 0.92878 5.4446 0.54045 6.6816-0.82469 1.257-1.3852 0.78466-3.6511-0.72061-5.1403 1.6494-0.18416 3.1266-0.54046 4.4638-1.0169 6.005-0.99283 11.87-1.3371 18.72-1.0489 2.0177 0.0841 4.0154-0.012 5.949-0.38032-0.20017 1.229-0.25622 2.8704-0.22419 3.8232 0.04 1.0729 0.92878 1.7134 3.0265 1.5333 2.6262-0.22419 6.0411-0.24821 8.0307 0.44437 1.9857 0.68858 3.563 0.62452 4.3957-0.42035 2.1058 0.58849 4.0234 0.62452 5.2684 0.028 2.9705 0.72061 5.1884 0.26823 5.3765-2.0858 0.16413-1.9296-2.4781-4.0114-6.4014-4.4637 6.4254-3.3548 9.2157-10.941 7.7545-17.343-1.3131-5.7168-5.6287-10.833-12.771-12.23-0.18816-3.555-0.30025-7.138-0.34829-10.985 0.0681-3.607-0.10809-18.828 0.22819-23.936 23.972-13.431 29.921-33.724 23.276-52.808" fill="#8cc66d"/>
   <path d="m108.1 230.34c-3.2147-0.1161-6.0971-0.75263-9.3518-1.7735-0.67256-0.18816-1.3091-0.43236-1.9096-0.7166-4.816 0.98082-5.0322 5.8049-2.7303 7.4142 1.6134 1.133 4.1955 1.3251 5.8409 0.3523 0.55647 0.69658 1.5453 1.1129 2.9104 1.185 1.8255 0.10008 2.9625-0.0961 3.619-0.60451 2.7503 0.92478 5.4446 0.54046 6.6816-0.82469 1.2571-1.3892 0.78466-3.6511-0.7206-5.1403-1.3411 0.14812-2.7823 0.19216-4.3396 0.10809" fill="#f08437"/>
   <path d="m160.91 226.63c-1.9416 0.016-4.0834 0.44838-6.3814 1.1129-3.2067 0.93279-8.8955 1.3732-13.087 1.1009-0.0961 1.0048-0.1201 2.0697-0.0961 2.7663 0.04 1.0729 0.93278 1.7134 3.0265 1.5333 2.6262-0.22419 6.0451-0.24821 8.0307 0.44438 1.9857 0.68857 3.567 0.62852 4.3997-0.42036 2.1018 0.5885 4.0234 0.62453 5.2644 0.032 2.9705 0.7166 5.1924 0.26422 5.3805-2.0898 0.16414-1.9536-2.5421-4.0594-6.5375-4.4798" fill="#cf712e"/>
   <path d="m195.32 168.14c-0.45238-0.3603-1.7214-0.2362-3.3148 0.44838 0.13211-0.96882 0.14812-1.9817-0.016-2.0737-0.29625-0.16414-1.6414 0.38032-2.9945 1.133-0.38433-0.54846-0.91677-1.1009-1.205-1.1129-0.3603-0.012-1.1249 0.41635-1.8776 1.0048-0.22419-0.54846-0.54446-0.99284-0.84471-1.0048-0.46038-0.02-2.0537 0.84872-3.515 1.9016-2.9104-0.30025-6.2252-0.70059-9.488-1.193 4.1555 4.8881 3.7712 14.8-2.5702 18.512 0.8287 0.0801 1.6414 0.14813 2.438 0.20417 5.4886 0.36031 10.713-0.86072 15.725-3.1106 1.8295-0.15614 3.8072-0.8327 3.9553-1.9937 0.1201-0.85271-0.92077-2.39-2.0457-3.555 4.5078-4.4597 6.4654-8.5872 5.7528-9.1597" fill="#f08437"/>
   <path d="m179.18 109.34c2.0337 5.8249 2.7463 11.65 2.2979 17.282 5.5687-13.868-1.5933-33.204-5.6848-34.597-2.1978-0.75663-5.2524 0.13611-7.4342 1.3932 4.8401 4.3196 8.6392 9.6521 10.821 15.921" fill="#875a14"/>
   <path d="m90.605 220.65c-1.241-3.639-1.161-8.0988 0.39633-12.663-7.5543-0.80868-16.426-5.3405-24.436-11.506-12.118-9.3278-23.576-6.5895-25.013 1.4932-1.5093 8.4751 8.335 14.044 18.031 10.233 1.8776 0.91676 3.9713 2.0497 6.4414 3.4789 8.5352 4.9281 17.018 7.9306 24.581 8.9635" fill="#875a14"/>
   <path d="m139.96 143.46c-8.343 12.895-30.798 12.51-39.329-10.245-5.6728-15.137 0.63253-29.689 10.897-33.4 6.9778-2.5261 15.193-1.3171 21.114 4.4557-0.04-3.9793-2.426-12.859-0.98883-14.004 1.2611-1.0128 9.508 1.8976 15.297 8.9915-3.8913-14.74 16.774-16.21 28.956 3.1987 6.6896 10.653 5.8089 24.553 0.69258 28.74-1.9296 1.5733-4.704 2.1498-7.2861 1.7014z" fill="#fff899"/>
   <path d="m169.07 125.52c-1.9376-13.291-11.125-20.533-20.345-18.944-8.8674 1.5253-16.502 10.381-14.368 23.84 2.5662 16.162 13.083 21.706 22.707 19.032 9.2998-2.5822 13.491-13.712 12.006-23.928" fill="#f08437"/>
   <path d="m129.42 125.69c2.8624 9.0516-0.53645 15.321-5.5486 16.91-5.2244 1.6494-11.686-2.1858-14.32-10.509-2.8784-9.0996 1.0449-15.689 5.4766-17.094 4.9161-1.5573 11.602 1.8616 14.392 10.693" fill="#fff"/>
   <path d="m141.26 130.13c-1.5853 0.46839-1.8816 1.133-1.7415 2.334 0.98082 8.2429 6.7416 15.829 16.538 14.428 5.6207-0.80468 11.285-10.765 10.549-20.645-0.0921-1.217-0.68058-1.8055-1.7735-1.6294-6.6256 1.0769-16.982 3.591-23.572 5.5126" fill="#ee869a"/>
   <path d="m166.61 126.25c-0.0921-1.221-0.68057-1.8055-1.7735-1.6294-4.2235 0.68858-9.9564 1.9536-15.265 3.2828 6.6015 0.87673 13.323 5.0602 14.652 11.041 1.7214-3.6631 2.7223-8.1869 2.386-12.695" fill="#932f00"/>
   <path d="m139.95 130.8c1.0489 1.5933 2.5141 2.8064 4.0554 3.4629 0.98483-0.9608 1.5453-3.0466 1.3892-5.2764-1.4772 0.39633-2.8704 0.78466-4.1275 1.149-0.62052 0.18816-1.0449 0.40034-1.3171 0.66456" fill="#fff"/>
   <path d="m164.17 128.69c0.68858-0.7126 1.3291-2.386 1.6414-3.9633-0.25622-0.12411-0.58449-0.16414-0.97682-0.10409-1.0649 0.17214-2.2219 0.38432-3.4309 0.62052 0.76464 1.3932 1.8055 2.6022 2.7663 3.4469" fill="#fff"/>
   <path d="m87.935 207.46c-1.3932 3.7752-4.2996 5.5286-8.2389 5.0322-7.9747-1.0128-19.348-9.9524-29.301-10.693-6.2893-0.46839-8.2149-4.8481-5.997-8.287-6.8818 5.5126-1.7895 19.733 14.832 14.736 7.0819 3.6511 21.29 11.966 31.346 12.302-1.0729-2.9345-1.4612-8.0387 0.42436-12.482-1.0169-0.12811-2.1498-0.34829-3.0666-0.60851" fill="#6a4604"/>
   <path d="m165.86 222.58c1.7375-10.181-3.6991-17.875-9.6561-20.033 0.056 1.5093 0.056 3.1266 0.16414 5.1403-3.4069 8.0988-22.227 9.6601-30.153 5.6407 0.84071 5.3565-1.0208 11.289-7.8786 15.673 5.5126-0.82069 10.985-1.0969 17.286-0.8327 2.0177 0.0841 4.0154-0.012 5.953-0.38032-0.056 0.32827-0.10008 0.68858-0.13611 1.0529 4.1915 0.27223 9.8843-0.16814 13.091-1.0969 2.2979-0.66456 4.4357-1.0969 6.3814-1.1129 2.1418-1.0729 3.531-2.2219 4.9482-4.0514" fill="#79ac5e"/>
   <path d="m108.1 230.34c-3.2147-0.1161-6.0971-0.75263-9.3518-1.7735-0.67256-0.18816-1.3091-0.43236-1.9096-0.7166-4.816 0.98082-5.0322 5.8049-2.7303 7.4142 1.6134 1.133 4.1955 1.3251 5.8409 0.3523 0.55647 0.69658 1.5453 1.1129 2.9104 1.185 1.8255 0.10008 2.9625-0.0961 3.619-0.60451 2.7503 0.92478 5.4446 0.54046 6.6816-0.82469 1.2571-1.3892 0.78466-3.6511-0.7206-5.1403-1.3411 0.14812-2.7823 0.19216-4.3396 0.10809" fill="#cf712e"/>
   <path d="m173.49 181.29c-6.0611-0.62853-12.991-1.9376-17.763-3.4669-0.0641 1.4492-0.0961 4.5518-0.0801 5.913 4.0954 0.88875 9.7442 1.6134 13.904 1.9777 1.7815-1.0609 3.0786-2.6262 3.9393-4.4237" fill="#79ac5e"/>
  </g>
  <g fill="#cf712e">
   <path d="m187.47 182.79c1.8055-0.032 3.4629-0.5925 3.9393-1.8055-1.3211 0.20817-2.8384-0.0721-3.8832-0.64855-0.52444-0.29625-0.97682-0.41234-1.6294-0.18015-3.4469 1.213-6.8778 1.6294-10.853 1.2851-0.50442-0.044-1.0289-0.0961-1.5533-0.15213-0.86073 1.7975-2.1578 3.3628-3.9433 4.4237 1.8295 0.16414 3.3788 0.26823 4.3637 0.28024 4.4197 0.056 9.7041-1.249 13.559-3.2027"/>
   <path d="m195.2 168c-1.5813 2.5822-3.8712 5.7888-6.1612 7.5664-0.78065 0.60851-0.72861 1.3571 0.048 2.1258 4.4958-3.619 7.09-8.9435 6.1131-9.6921"/>
   <path d="m191.82 166.72c-0.72861 0.78466-1.7815 1.9416-2.5501 2.9905 0.67257-0.3603 1.8776-0.80468 2.7063-1.1009 0.18015-0.72861 0.14813-1.5893-0.15613-1.8896"/>
   <path d="m187.86 166.88c-0.22819 0.36431-0.57248 1.4492-0.41635 1.6934 0.42436-0.22819 0.99684-0.61652 1.4812-0.96081-0.22819-0.38432-0.68857-0.73261-1.0649-0.73261"/>
   <path d="m185.22 166.79c-0.6005 0.67256-1.0569 1.6414-1.0929 2.2018 0.4684-0.41235 1.3371-1.165 1.7655-1.5053-0.14011-0.27623-0.43636-0.58048-0.67256-0.69658"/>
   <path d="m168.89 123.49c-0.84471 1.0088-1.3692 1.5373-2.322 2.322 1.1089 10.161-4.3476 20.677-11.041 21.142-10.597 1.165-15.585-8.1268-15.997-14.492-0.0761-1.145 0.15613-1.8375 1.5253-2.4781-3.0105-1.3091-5.8569-4.6799-6.8297-8.1749-1.9376 14.456 6.8898 30.778 21.866 27.827 10.765-2.1178 14.965-14.76 12.799-26.146"/>
  </g>
  <path d="m159.43 131.8c-7.9226-1.5533-15.561 4.9361-13.627 12.667-4.9682-3.7111-6.7136-10.593-5.8569-13.667 0.74863 1.217 2.414 2.7984 4.0554 3.4629 0.91677-1.1089 1.5613-2.9224 1.3892-5.2764 1.4972-0.38432 3.0786-0.77265 4.4918-1.217 2.358 0.44437 6.6616 1.9576 9.548 4.0314" fill="#cf7487"/>
  <path d="m175.54 92.186c0.62452 3.3708 0.82069 7.0219 0.48441 10.625 3.4629 5.6768 6.4894 15.485 5.5286 23.179 5.2404-13.175-1.5413-33.08-6.013-33.804" fill="#6a4604"/>
  <g fill="#79ac5e">
   <path d="m94.589 89.973c-13.856 3.3868-30.217-4.8481-34.973-12.559-2.1058 9.0516 29.405 22.387 42.448 14.528-0.98883-1.7975-3.4789-2.9465-7.4743-1.9697"/>
   <path d="m81.593 143.33c-4.9642-16.338 0.54045-37.163 15.261-48.292-17.987 23.98-9.3038 68.954 34.605 64.81 23.78-2.2459 45.262-14.512 49.037-25.101-4.4157 14.904-17.21 23.368-26.07 28.096-5.1163 11.025-22.026 13.107-37.624 4.6039-2.426-1.3211-4.8401 3.599-7.3342 2.8784-13.848-4.0194-23.776-13.511-27.875-26.995"/>
   <path d="m98.749 228.57c3.2507 1.0209 6.1371 1.6574 9.3518 1.7735 9.7722 0.50842 16.79-4.1755 18.255-12.923-5.7768 11.838-35.37 6.2893-35.005-10.585-3.8472 8.8794-1.193 18.648 7.3982 21.734"/>
   <path d="m90.003 56.171c-0.44437 5.941 1.3972 15.197 5.2044 20.713-1.141-0.79667-2.4861-1.5093-3.7632-2.2299-3.9393-6.2693-3.3228-16.834-1.4412-18.484"/>
  </g>
  <g fill="#0d131a">
   <path d="m108.9 129.56c2.43 6.6736 7.4983 9.3358 10.981 8.343 3.9914-1.137 6.9338-6.6656 4.756-14.3-1.201-4.1995-3.7271-7.4462-6.5255-8.9835-6.0251-0.42436-10.793 5.8209-9.2117 14.941"/>
   <path d="m145.05 114.29c-0.75663-0.62853-0.20417-1.3331 0.66856-0.85672 0.4724 0.25622 1.0289 0.62453 1.4332 0.93278 0.64855 0.4724 0.50843 0.89676-0.27223 0.76465-0.74062-0.12411-1.249-0.36031-1.8295-0.84071"/>
   <path d="m155.3 109.96c-0.57248-0.79667-1.3611-0.18415-0.86072 0.67256 0.21618 0.36031 0.45238 0.72061 0.69658 1.0369 0.58049 0.73662 0.94479 0.48041 0.74863-0.29224-0.13611-0.52044-0.29625-1.0088-0.58449-1.4172"/>
  </g>
  <path d="m119.94 125.91c1.0128 3.571 0.15613 5.925-1.3571 6.3533-1.5173 0.42435-3.3708-1.0449-4.4357-4.82-0.89675-3.1586-0.18415-6.2292 1.3251-6.6296 1.4612-0.39233 3.4029 1.3291 4.4678 5.0963" fill="#fff"/>
  <g fill="#0d131a">
   <path d="m161.39 110.35c-0.0721-1.6694 0.55647-3.1306 1.8696-3.7872 3.1346-1.5653 9.7322 1.0369 11.97 10.729 0.40033 1.7174-0.29625 1.9737-0.90076 0.31627-2.7503-7.6224-6.1291-9.6081-9.0076-9.3478-1.8976 0.17214-2.6742 1.165-2.7903 2.9625z"/>
   <path d="m90.374 74.206c-3.9793-7.19-2.7943-17.479-1.2651-18.488 2.0297-1.3411 14.668-0.41635 22.259 9.584 3.6991 4.8721 4.776 11.698 2.9104 18.199l-1.7775 0.53245c1.8375-5.945 1.0048-12.875-2.5942-17.619-7.3622-9.6881-18.696-10.221-19.821-9.3198-0.9528 0.74863-1.9576 11.085 2.5982 18.215z"/>
   <path d="m58.601 77.861c0.25221-3.7191 22.579-12.226 35.434-2.2819 2.0457 1.5853 1.4812 2.386-0.66456 0.94479-13.003-8.7553-32.932-0.78866-33.076 1.5253-0.3523 5.6287 22.371 19.556 39.461 14.152 2.7583-0.86873 3.0426 0.07206 0.34029 1.0729-17.523 6.5055-42.011-7.8906-41.495-15.413"/>
  </g>
  <path d="m101.89 84.606c-4.4037-1.5853-10.273-2.426-15.921-2.7783-2.6422-0.16414-2.5541-1.213 0.06806-1.133 5.5206 0.16814 11.934 1.0369 16.282 2.5061-0.33228-2.7743-1.4973-6.4934-3.3788-10.569-1.165-2.5261-0.28024-2.9545 1.0289-0.50442 1.9857 3.7311 3.3228 7.2421 3.8512 11.426 0.20817 1.6134-0.24421 1.6574-1.9296 1.0529" fill="#009333"/>
  <g fill="#0d131a">
   <path d="m180.18 109.01c-8.8034-25.269-42.644-35.25-67.176-25.698-2.8264 1.0969-2.5622 2.1018 0.26823 1.1289 24.997-8.5832 56.375 0.97682 64.814 25.209 7.3942 21.246-2.2219 42.796-27.319 53.905-2.1378 0.9488-1.5493 1.8776 0.40835 1.149 27.535-10.233 36.222-34.957 29.004-55.695"/>
   <path d="m98.584 229.11c-11.486-2.9184-13.896-19.709-1.6774-32.651 5.7448-6.0891 11.734-16.178 14.088-24.897-14.684-3.2748-25.257-12.903-29.625-25.441-6.5535-18.824 0.34029-44.197 18.479-53.565 2.6302-1.3571 3.1226-0.54446 0.5885 0.97282-17.262 10.369-23.191 33.92-16.942 51.88 4.2315 12.15 13.631 20.717 28.092 24.597 1.0208 0.27623 1.3371 0.68057 1.0168 1.8375-2.5541 9.2598-8.5111 19.821-14.288 25.938-10.937 11.586-9.8122 27.151 0.57248 30.245 2.2539 0.66456 1.9176 1.6494-0.30426 1.0849"/>
   <path d="m169.28 132.01c2.7463 0.46039 4.76 0.02 6.7256-1.5853 4.5638-3.7311 5.6447-16.922-0.97682-27.479-7.7105-12.266-18.243-15.761-23.904-13.307-3.591 1.5613-4.3436 4.8401-3.6511 8.4711 0.41235 2.1618-0.25221 2.6142-1.7455 0.92077-5.5366-6.2973-12.675-8.6673-13.483-8.0628-0.97282 0.73662 0.9488 8.6993 1.173 12.33 0.1161 1.9536-0.49641 2.2499-2.0978 0.84471-5.5206-4.828-13.263-5.7608-19.496-3.5029-9.4599 3.4269-15.997 17.014-10.273 32.287 4.1555 11.085 12.17 17.623 21.318 18.099 6.7537 0.34429 12.947-2.7984 16.526-8.1108l1.1129 1.177c-3.8112 5.949-10.741 9.1757-17.731 8.8034-10.169-0.52444-18.471-7.094-23.087-19.4-5.6167-14.989 0.30426-30.594 11.486-34.641 7.102-2.5702 14.945-1.3011 20.645 3.631-0.0961-2.1018-2.6222-11.706-0.73661-12.911 1.9336-1.241 9.8523 1.9256 14.688 7.2341-0.49242-3.527 0.79266-7.0939 4.6479-8.7674 6.7417-2.9305 18.443 1.3171 26.382 13.944 6.6216 10.549 6.1452 25.225 0.39233 29.929-2.2619 1.8456-5.1643 2.406-8.0628 1.8976z"/>
   <path d="m128.55 125.96c-2.7783-8.7794-8.9755-11.558-13.303-10.189-3.9153 1.237-7.5343 7.6384-4.8681 16.061 2.7463 8.6953 8.8754 11.402 13.267 10.016 4.8881-1.5493 7.4903-7.7025 4.9041-15.889m-19.953 6.3814c-2.7944-8.8354 0.8327-16.406 6.1532-18.087 5.6047-1.7695 12.587 1.7975 15.561 11.193 2.9024 9.1757-0.51243 16.073-6.2332 17.883-5.3805 1.7014-12.555-1.7415-15.481-10.989"/>
   <path d="m168.13 125.64c-2.1018-14.44-11.954-19.56-19.272-18.295-7.5864 1.3091-15.813 8.9835-13.595 22.951 2.4861 15.677 12.983 20.833 21.382 18.459 9.1797-2.5902 12.923-13.191 11.486-23.115m-34.685 4.9081c-2.1098-13.323 5.3004-23.039 15.129-24.737 9.54-1.6494 19.3 5.4005 21.37 19.632 1.4172 9.7282-2.9144 22.459-12.931 24.793-11.049 2.5742-21.098-4.1275-23.568-19.689"/>
   <path d="m165.94 126.34c-0.0641-0.90876-0.50843-1.157-1.0489-1.0649-6.8257 1.177-16.982 3.6911-23.424 5.5366-1.205 0.34429-1.4332 0.76864-1.3091 1.5653 1.8015 12.078 11.538 15.285 16.138 13.708 6.2132-2.1378 10.229-10.477 9.6441-19.745m-27.059 6.2132c-0.19617-1.8736 0.21618-2.5301 2.1738-3.1026 7.0019-2.1818 16.438-4.6279 23.672-5.5206 1.7855-0.21618 2.394 0.32427 2.5421 2.3019 0.82069 10.633-3.7912 19.224-10.849 21.122-6.7617 1.8175-16.274-2.6702-17.539-14.8"/>
   <path d="m151.1 127.45c6.1452 1.165 12.198 5.1043 13.591 10.749l-0.94079 1.5173c-1.197-6.4374-8.9195-10.857-15.897-11.265z"/>
   <path d="m146.05 128.81c0.21618 2.2419-0.3523 4.4237-1.3291 5.6688-0.45238 0.57649-0.64455 0.60051-1.3932 0.2282-1.4852-0.75264-2.8904-1.9256-3.8272-3.3508l0.92077-1.0128c0.87273 1.3892 2.1058 2.4741 3.3828 3.0626 0.70459-1.0168 1.0449-2.454 0.92878-4.2876z"/>
   <path d="m166.41 125.15c-0.27223 1.253-0.81268 2.5982-1.4172 3.523-0.55246 0.85272-0.90476 0.88074-1.6934 0.13612-0.89275-0.8367-1.8456-1.9576-2.6382-3.4429l1.4012-0.28023c0.56448 0.98883 1.197 1.8135 2.0177 2.5702 0.4844-0.81668 0.8447-1.7815 1.0809-3.1146z"/>
   <path d="m181.4 124.24c4.1435-13.019-2.5501-30.145-5.957-31.386-1.9336-0.69658-4.2716-0.06005-6.5775 1.2651l-1.213-1.3531c2.7543-1.6614 6.1011-2.338 8.407-1.6254 4.784 1.4892 12.559 23.083 5.3725 37.76z"/>
   <path d="m155.71 161.85c7.0499 2.1098 21.406 5.4926 25.666 5.921 1.4532-1.0729 2.9104-1.9656 3.6911-1.9496 0.58449 0.012 1.1169 0.5965 1.4372 1.3411l-1.133 0.80467c-0.10008-0.44037-0.30425-0.7206-0.41234-0.73662-0.40034-0.04-1.221 0.40434-2.7623 1.5413-0.38032 0.28825-0.54045 0.31227-1.0609 0.26823-4.4958-0.38432-19.324-3.3588-27.755-5.917z"/>
   <path d="m188.46 167.96c-0.30426-0.43637-0.57248-0.69658-0.76464-0.70859-0.28424-0.012-1.229 0.45638-2.2779 1.4132-1.181 1.0689-1.8375 0.60851-0.72461-0.70859 0.92077-1.0809 2.374-2.1738 3.1506-2.1458 0.53645 0.02 1.125 0.67256 1.7014 1.5253z"/>
   <path d="m191.29 168.96c0.22018-0.82869 0.30426-1.7495 0.19616-1.8335-0.14011-0.11209-1.229 0.33628-2.7703 1.2611-1.3732 0.82869-1.8456 0.04-0.51243-0.86473 1.5613-1.0649 3.4309-1.9256 4.0634-1.6214 0.46839 0.22419 0.56447 1.3451 0.41635 2.4461z"/>
   <path d="m155.66 183.08c4.9321 0.74863 11.109 1.6694 16.342 2.0177 4.9562 0.32828 9.8282-0.4764 15.021-2.6582 0.33628-0.14412 0.58049-0.21218 0.9528-0.26022 1.6814-0.20817 2.8144-0.76464 2.9024-1.4372 0.068-0.55647-0.46039-1.5733-1.5573-2.7663-0.54846-0.5965-0.54045-0.80468 0.016-1.3451 4.2155-4.0874 5.6928-7.7505 5.4406-7.9907-0.29625-0.30025-1.8576-0.0721-4.0314 1.145-1.9776 1.1129-2.434 0.26823-0.4764-0.88474 2.6262-1.5573 4.72-1.9496 5.4726-1.3131 1.3531 1.149-1.4252 5.7888-5.3084 9.7322 1.2891 1.3211 2.0137 2.6422 1.8896 3.627-0.19617 1.5253-2.1418 2.3139-4.5198 2.5261-5.1763 2.5942-10.765 3.6911-15.957 3.3468-5.2164-0.34429-11.245-1.3171-16.166-2.0657z"/>
   <path d="m118.65 228.14c4.8721-0.80467 10.157-1.0689 16.994-0.78065 7.15 0.30025 12.879-1.4933 17.391-8.5472 1.2931-2.0177 2.1378-1.4772 0.96881 0.60851-4.4517 7.9707-11.574 9.8843-18.467 9.6-7.2861-0.30426-13.043 8e-3 -20.277 1.2771z"/>
   <path d="m155.49 209.13c0.13211-3.2227 0.028-5.8809-0.24821-10.401-0.3603-5.973-0.34028-15.677-0.16013-21.854 0.0881-3.0185 1.2931-3.0346 1.2931-0.024 0 6.5375 0.17215 15.741 0.5965 21.794 0.29225 4.1595 0.2402 7.4743-0.12811 10.649-0.34428 2.9785-1.4772 2.8464-1.3531-0.16414"/>
   <path d="m108.07 230.91c-2.6142-0.17214-2.5141-1.237 0.0721-1.133 11.662 0.43637 17.299-6.2492 17.463-14.356 0.068-3.543-0.73662-6.9979-2.418-10.169-1.1009-2.0858-0.36431-2.5541 0.94879-0.6005 2.2899 3.4028 3.2427 7.102 3.1987 10.833-0.0961 8.6633-6.0891 16.286-19.264 15.425"/>
   <path d="m120.53 201.9c-1.2811-1.229-2.378-2.0297-3.8432-2.7663-2.0497-1.0249-1.6934-1.8015 0.42435-0.91277 1.3171 0.55247 2.9545 1.5933 4.1715 2.8024 1.4332 1.4292 0.60851 2.1738-0.75263 0.87674"/>
   <path d="m102.79 237.63c-3.7271-0.20417-4.728-2.4781-3.4909-5.2844 0.62052-1.4172 1.3892-1.1209 0.94079 0.3603-0.58048 1.9136-0.14012 3.2187 2.6662 3.3748 3.8632 0.21218 4.0314-0.8407 3.7191-3.0906-0.22419-1.6214 0.66055-1.7575 0.99283-0.16014 0.80067 3.8232-0.88474 5.0202-4.828 4.8"/>
   <path d="m155.94 196.23c6.9658 1.205 12.238 5.913 13.816 12.799 1.6334 7.122-1.7415 14.544-7.4663 17.875l-2.6142-0.54846c6.9778-3.1386 9.6121-11.001 8.2589-16.91-1.4132-6.1532-5.8809-10.369-11.846-11.566z"/>
   <path d="m142.35 227.6c-0.22018 1.3812-0.31627 2.6582-0.30025 3.8833 4e-3 0.63653 0.44837 1.1089 2.2779 0.9568 3.523-0.29225 6.029-0.21218 8.303 0.49642 2.442 0.75663 3.615 0.42835 3.9553-1.0289 0.29224-1.2691-0.38833-2.5381-1.9376-2.7783-2.1458-0.34429-2.0657-1.133 0.10009-1.0008 2.0737 0.12411 3.8512 1.9216 3.3388 4.1034-0.55647 2.386-2.7503 3.0826-5.941 2.0017-1.8736-0.64053-4.1195-0.7246-7.7225-0.38032-2.8624 0.27223-3.8032-0.58849-3.8392-2.1818-0.032-1.233 0.06-2.5501 0.2402-3.8072z"/>
   <path d="m157.15 232.6c4.0394 1.0809 5.3765-0.016 5.5927-1.4172 0.17214-1.1169-0.51243-2.0777-2.2219-2.7063-2.2579-0.8327-2.0177-1.5333 0.31226-0.9608 2.2699 0.56447 3.7031 2.2859 3.4509 3.9033-0.43636 2.7543-3.9954 3.4709-8.0468 2.2379z"/>
   <path d="m162.76 232.7c2.6662 0.50042 3.8312-0.21218 3.9473-1.6734 0.10409-1.4172-1.7815-3.4309-6.2813-3.9433-1.7495-0.20017-1.7014-1.0769 0.0761-1.0048 5.4406 0.21217 7.8466 2.9945 7.6784 5.0642-0.22019 2.6062-2.7223 3.8632-6.9138 2.4741z"/>
   <path d="m60.451 208.65c-10.821 4.4197-21.35-1.4452-19.685-10.801 1.5493-8.7033 13.635-11.674 26.214-1.9937 8.5111 6.5455 17.206 10.689 24.152 11.446l-0.38833 1.3611c-7.2181-0.78866-16.057-4.9401-24.617-11.642-11.482-8.9835-22.543-6.3814-23.828 1.0649-1.3011 7.5503 7.162 12.931 16.398 9.6601z"/>
   <path d="m90.789 221.33c-8.2789-0.99283-16.646-4.1114-25.137-9.0236-7.17-4.1355-11.057-5.8729-15.833-6.9458-3.0666-0.68858-2.8664-1.7094 0.21618-1.137 4.756 0.87674 9.0676 2.6342 16.342 6.8337 8.1949 4.728 16.374 7.7865 23.996 8.8674z"/>
   <path d="m100.36 236.14c-1.7935 1.149-4.828 1.141-6.7897-0.22819-2.6462-1.8375-2.4781-7.2621 2.398-8.5312l1.6574 0.98483c-4.9081 0.72861-4.9041 5.0442-3.0706 6.3293 1.4692 1.0289 3.3988 1.173 5.0042 0.42435z"/>
   <path d="m113.28 230.11c1.7695 1.7975 1.7294 4.3877 0.42836 5.8169-1.6454 1.8135-5.2844 2.0377-7.8346 0.74462l1.145-0.94879c2.2899 0.64854 4.5238 0.29625 5.5647-0.85272 0.95279-1.0529 0.81268-3.1186-1.0889-4.6319z"/>
  </g>
  <g>
   <path d="m86.172 125.19c-8.1028-1.0529-21.394 5.2764-21.866 10.245-0.36831 3.8512 3.4069 12.955 11.526 18.928 8.2749 6.0851 22.391 8.9475 24.717 7.3021 2.2339-1.5773 4.2676-11.001-1.3291-22.387-4.4517-9.0516-9.544-13.635-13.047-14.088" fill="#875a14"/>
   <path d="m64.446 135.18c4.1114 10.016 22.395 18.676 38.148 15.645 0.5965 3.9193 0.0801 9.3198-2.2098 10.877-3.3788 2.2819-34.929-4.2916-35.938-26.522" fill="#6a4604"/>
   <path d="m94.448 140.81c-5.2044-1.4372-11.253-1.9777-17.126-1.6974-2.7183 0.13211-2.7863-0.78066-0.08807-1.125 5.7929-0.74462 12.587 0.016 17.535 1.7375 2.8464 0.98483 2.37 1.8255-0.32027 1.0849" fill="#441f23"/>
   <path d="m86.031 126.04c-7.3982-0.9528-20.381 4.8881-20.821 9.508-0.33228 3.4709 3.0746 12.09 11.209 18.087 8.4191 6.2052 21.61 8.5992 23.62 7.2941 1.169-0.76064 4.4397-9.0316-1.5813-21.286-4.6719-9.496-9.8122-13.263-12.426-13.603m-10.957 29.196c-8.2749-6.0891-12.074-15.825-11.682-19.909 0.53645-5.6768 15.209-12.178 22.871-11.181 3.571 0.46439 8.8354 4.792 13.728 14.74 5.7128 11.626 3.7471 21.534 1.0249 23.456-2.6823 1.9016-17.311-0.76464-25.942-7.106" fill="#0d131a"/>
   <path d="m112.86 166.83c-12.362 2.1738-38.656 9.9483-44.886 12.659-3.3548-0.18816-5.7648 0-6.4094 0.9608-0.38032 0.57649 0.15213 1.8295 1.229 2.9345-1.5333 1.0889-2.9625 2.5662-2.9745 3.2427-0.01201 0.63654 1.3651 1.8015 2.9425 2.6943-0.76464 1.3091-1.4772 3.0225-1.213 3.547 0.31626 0.62452 1.7054 1.2851 3.1306 1.6734-0.28824 1.4012-0.31226 2.7303 0.06005 3.2667 0.42035 0.61251 2.8144 0.61251 5.3925-0.0721 13.547 1.9656 38.881-6.1372 50.602-14.316 6.6456-3.8112-1.165-18.395-7.8746-16.59" fill="#8cc66d"/>
   <path d="m72.891 193.31c-1.4933 0.10409-5.1123 2.2219-8.2709 4.2516 0.02802 0.0961 0.07206 0.17614 0.1241 0.2482 0.41635 0.60851 2.8104 0.60851 5.3925-0.0761 13.543 1.9696 38.877-6.1331 50.598-14.316 2.6262-1.5053-0.58449-4.6719-2.7743-3.4109-11.245 6.4734-27.847 12.09-45.07 13.303" fill="#79ac5e"/>
   <path d="m64.743 197.81c-0.37632-0.54045-0.3523-1.8656-0.06405-3.2667-1.4212-0.38833-2.8144-1.0489-3.1306-1.6734-0.26022-0.52444 0.44838-2.2379 1.217-3.547-1.5813-0.89675-2.9545-2.0617-2.9425-2.6943 8e-3 -0.67656 1.4412-2.1538 2.9745-3.2467-1.0809-1.1009-1.6134-2.354-1.229-2.9305 0.64054-0.9608 3.0546-1.149 6.4094-0.9608 6.4054-2.7863 14.164-5.0362 23.191-7.0139 9.3158 4.6479 13.311 14.268 6.0451 21.578-9.8362 3.0065-20.045 4.6999-27.079 3.6791-2.5822 0.68457-4.9762 0.68457-5.3925 0.0761" fill="#f08437"/>
  </g>
  <g fill="#cf712e">
   <path d="m72.891 193.31c-1.4933 0.10409-5.1123 2.2219-8.2709 4.2516 0.02802 0.0961 0.07206 0.17614 0.1241 0.2482 0.41635 0.60851 2.8104 0.60851 5.3925-0.0761 7.0299 1.0209 17.242-0.67256 27.079-3.6791 2.0057-2.0177 3.1506-4.2115 3.567-6.4294-8.5231 2.8824-18.107 4.9962-27.891 5.6848"/>
   <path d="m68.043 188.03c2.1738 0.2402 4.8361-0.1201 6.9218-0.92077 1.7895-0.68858 2.6863 0.74062 1.7014 1.7334-2.7263 0.60451-8.0267 0.88875-8.6232-0.81268"/>
   <path d="m61.632 180.04c0.92878 1.3251 1.8175 2.1658 3.2828 2.8424 1.4852 0.69258 1.0329 1.9777-0.36831 2.1098-1.6093-1.0649-3.7511-4.0914-2.9144-4.9522"/>
   <path d="m59.923 186.37c1.5813 0.86873 3.3188 1.4973 5.0883 1.7735 0.77665 0.1281 1.6414 1.5853-0.22018 2.2379-1.6494-0.54846-4.8801-2.6702-4.8681-4.0114"/>
   <path d="m61.432 192.43c1.8215 0.70459 3.2547 0.7166 4.752 0.62452 1.3451-0.0841 1.9256 1.4732 0.48441 2.0818-1.8455-0.18816-5.0442-1.7615-5.2364-2.7063"/>
  </g>
  <g fill="#0d131a">
   <path d="m110.58 168.3c-10.673 2.8944-35.922 9.1637-42.011 11.674-0.3523 0.14812-0.53245 0.19616-0.88474 0.18015-3.4229-0.17214-5.2004 0.1161-5.4926 0.68057-0.19616 0.37632 0.21618 1.5933 1.7254 2.8624 1.3812 1.165 0.88074 1.8335-0.60451 0.80468-1.7735-1.229-3.0586-3.3148-2.382-4.4357 0.64054-1.0569 2.6502-1.5813 6.9378-1.3131 6.7537-2.9425 30.506-9.544 42.147-11.71 4.1955-0.78066 4.2636 0.25621 0.56447 1.257"/>
   <path d="m62.37 182.91c-1.6294 1.0008-3.2627 2.7423-3.2828 3.7191-0.02402 1.1129 2.3099 2.9825 4.3436 3.607 1.7054 0.52444 2.1058-0.04 0.43236-0.90876-2.0697-1.0769-3.2707-2.2899-3.2908-2.6782-0.02802-0.48441 1.0008-1.6734 2.6742-2.8384z"/>
   <path d="m62.23 188.97c-1.149 1.7935-1.7495 3.4589-1.3171 4.2356 0.53245 0.96081 2.406 1.7094 4.3797 1.9937 1.8455 0.25622 2.1378-0.46439 0.19616-0.98883-1.9096-0.52043-3.0786-1.193-3.2707-1.6494-0.19616-0.45238 0.17214-1.4412 1.1009-2.9705z"/>
   <path d="m118.52 183.91c-12.122 7.5664-34.957 14.508-48.064 13.191-0.30426-0.032-0.38432-0.024-0.7206 0.0641-2.4981 0.61651-4.1835 0.49641-4.4077 0.20817-0.29625-0.37231-0.3603-1.2691-0.04804-2.6903l-1.197-0.33628c-0.39633 1.6294-0.43637 3.1346 0.07206 3.8712 0.63653 0.92477 2.8624 1.0088 6.0411 0.18816 12.967 2.1938 36.334-4.9321 49.065-13.115 3.0826-1.9817 2.378-3.3348-0.74062-1.3812"/>
   <path d="m75.08 188.51c-3.0345 0.44838-5.8969 0.036-6.2412-0.50442-0.30426-0.48441 8e-3 -2.1018 1.3932-3.8552 1.169-1.4852 0.58849-2.0537-0.73662-0.69258-1.8375 1.9056-2.5381 4.2436-1.8656 5.3205 0.84871 1.3732 4.6639 1.4572 7.6344 0.72061 2.0737-0.51243 1.8576-1.2891-0.18415-0.98883"/>
  </g>
 </g>
</svg>
