<?xml version="1.0" encoding="UTF-8"?>
<!-- Created with Inkscape (http://www.inkscape.org/) -->
<svg version="1.1" viewBox="0 0 180.57 226.19" xmlns="http://www.w3.org/2000/svg">
 <g transform="translate(-13.341 4.3153)">
  <path d="m130.26 33.918c-28.482 10.051-61.316 31.67-57.842 32.739 8.2615-5.0956 20.662-11.763 32.66-17.457 11.992-5.6942 25.288-10.359 25.288-10.359z" fill="#fabe00"/>
  <path d="m89.977 99.677c-4.0552 1.4318-23.806 11.383-20.472 11.897 0 0 5.0677-1.6333 8.9328-3.0652 3.8595-1.4381 12.871-5.9794 12.871-5.9794z" fill="#fabe00"/>
  <g fill="#0f141b">
   <path d="m104.34 195.65c-8.1721 15.662-33.063 26.933-52.232 26.189-38.768-1.4872-45.212-34.674-33.499-53.58 5.3921-8.6923 16.025-12.199 22.43-7.8309 4.9783 3.3896 5.9403 10.862-2.1927 19.46-7.8643 8.3119-3.8147 25.199 14.554 26.664 13.279 1.0576 26.149-3.7868 35.468-13.396l2.0752 0.26796c-9.7606 10.426-24.136 15.958-37.661 14.879-19.918-1.5886-24.443-20.293-15.701-29.539 7.1876-7.5959 6.6897-13.816 2.4275-16.719-5.2242-3.5575-14.918-0.8229-19.84 7.1205-10.89 17.569-5.7893 49.435 32.028 50.889 19.683 0.74997 42.6-10.555 50.391-24.684z"/>
   <path d="m110.06 34.101c13.531 4.1056 42.432 13.536 55.454 18.162 1.3033 0.45822 2.6065 0.0056 3.1995-2.4107 0.45822-1.913-0.12684-3.2946-1.5047-3.8708-12.244-5.1403-40.027-13.441-54.424-19.057-0.86729-0.33614-2.1814 0.37419-3.082 2.9421-0.8451 2.4444-0.46457 3.9881 0.35833 4.2342m-0.40273 1.4318c-1.622-0.49153-2.6793-2.5228-1.4096-6.192 1.1527-3.2946 3.3114-4.4915 5.1404-3.7755 14.073 5.476 41.962 13.972 54.402 19.062 2.1199 0.86095 2.9981 3.0877 2.394 5.599-0.74363 3.0262-2.752 4.3014-5.1572 3.4289-12.658-4.5979-41.85-14.028-55.37-18.123"/>
   <path d="m114.24 26.527c0.49152 1.0179 0.63263 2.8025 0 4.9055-0.73252 2.3885-1.9689 3.5854-3.0149 3.9826l-1.3033-1.2145c0.77217 0.27905 2.0864-0.63739 2.8863-3.2385 0.72777-2.3661 0.27906-4.0273-0.11098-4.2063l1.5554-0.2299z"/>
   <path d="m84.026 78.928c-2.5786-4.5475-6.1527-8.7594-9.4808-11.439-2.1311-1.7173-1.4983-2.5843 0.71667-0.97352 3.4679 2.5171 7.4449 7.1093 9.8222 11.802 1.3763 2.7016 0.39162 3.166-1.0576 0.61044"/>
   <path d="m178.85 100.69c0.5486-0.49312 1.102-0.8673 1.8067-1.3033 2.159-1.343 2.7016-0.49152 0.6596 1.029-0.92914 0.69287-1.8459 1.4318-2.752 2.2542z"/>
   <path d="m118.71 92.191c-2.1199 7.0421-6.7121 10.566-10.628 9.425-4.8383-1.4159-6.0746-7.2604-4.2231-13.609 2.0472-7.0254 6.7681-10.186 10.516-9.3019 4.7768 1.1353 5.8954 8.2951 4.3349 13.486"/>
   <path d="m166.24 106.54c-1.734 6.9135-5.5431 9.4305-8.5188 8.6866-2.9926-0.74996-4.967-5.1292-3.3002-11.791 1.6165-6.4381 5.4481-9.5984 8.4629-8.8377 3.0094 0.75472 5.079 5.0733 3.3561 11.942"/>
   <path d="m122.16 94.378c3.205-9.2517 0.0951-16.534-4.788-18-5.0899-1.5269-11.892 0.92279-14.94 11.757-2.3717 8.4292 0.48042 14.946 5.3864 16.45 4.8496 1.4872 10.739 0.18392 14.342-10.208m-14.845 11.785c-6.3766-1.9577-9.2796-9.8724-6.8464-18.514 3.1659-11.249 11.237-14.767 17.362-12.932 6.9079 2.0753 9.3524 11.304 6.2368 20.304-3.8259 11.058-10.767 12.977-16.752 11.142"/>
   <path d="m155.18 103.12c-2.2933 7.3945-0.59934 13.889 3.1882 15.058 3.6694 1.1416 8.3232-1.6222 10.958-10.135 2.5283-8.1608 0.35199-14.045-3.0652-15.102-3.4456-1.0734-8.3454 1.354-11.081 10.18m16.076 5.5263c-2.8415 9.1678-8.6755 12.624-13.475 11.131-5.2131-1.6109-6.8575-9.6598-4.5083-17.25 2.9534-9.5146 8.972-12.641 13.48-11.249 5.3081 1.6445 6.9639 9.4305 4.5026 17.368"/>
   <path d="m152.85 45.49c21.188 13.234 30.367 35.748 26.955 57.076-3.8706 24.242-20.808 37.006-45.195 33.997-3.177-0.39639-3.0763-1.5094 0.12684-1.2526 23.247 1.8457 38.931-10.365 42.589-33.253 3.2554-20.366-4.6706-40.978-26.451-55.907z"/>
   <path d="m147.78 26.478c1.1907-2.9758 4.7489-7.1148 10.7-10.303 6.645-3.563 15.03-4.6537 17.088-2.1311 1.5602 1.913 1.0623 10.857-4.8438 19.398-4.3182 6.2479-11.075 10.907-18.621 13.044-2.8583 0.8118-3.1771-0.19026-0.39797-1.2193 7.2883-2.6905 13.285-7.2212 17.245-12.943 5.6774-8.2112 6.1527-15.975 5.1684-17.178-0.834-1.0243-6.992-1.2478-14.627 2.8472-6.6338 3.5629-9.3914 7.0141-11.495 11.852z"/>
   <path d="m79.495 58.884c8.86-13.754 31.077-21.529 52.36-20.086-4.4245-3.1882-9.604-9.6655-11.78-18.615-2.1424-8.8377 1.2367-23.157 3.8538-24.287 2.9534-1.2748 14.04 3.2106 20.472 13.642 3.44 5.5711 4.6146 12.434 4.1223 19.398-0.2188 3.1269-1.186 3.1101-1.27-0.01586-0.20137-7.3777-1.538-13.43-4.609-18.408-6.231-10.102-16.232-13.687-17.91-12.96-1.0132 0.46931-4.9279 12.764-2.6122 22.279 1.7452 7.1932 5.3642 13.268 11.461 18 2.6961 2.0863 2.2039 2.9589-0.68178 2.7967-22.117-1.2367-43.059 6.8856-51.303 19.393z"/>
   <path d="m145.18 38.468c-1.9298-5.9737-4.6706-10.504-7.4113-14.839-1.5443-2.4555-0.65483-3.0763 1.0179-0.70557 3.0652 4.3406 6.0186 9.0448 7.8756 14.677 4.0664-1.8849 7.6799-4.0999 11.114-7.2994 1.8012-1.6781 2.5841-0.8895 0.86729 0.87839-3.0092 3.0764-6.8856 5.8396-11.495 8.0154-1.2526 0.593-1.5886 0.44713-1.9688-0.72777"/>
   <path d="m59.135 76.609c-2.3212-7.0365-1.2478-19.376 1.5554-21.44 3.2218-2.3772 21.703 0.3187 27.374 9.4641 2.7072 4.374 1.6109 23.621-7.2212 34.629l-0.88949-1.8904c7.8924-11.657 8.3566-28.046 6.069-31.715-4.9111-7.8645-21.356-10.958-24.102-8.9273-1.2748 0.93389-3.0988 9.548-1.4428 16.596z"/>
   <path d="m184.63 107.45c2.573-5.4089 3.6246-12.211 3.0373-13.257-0.45348-0.80546-4.2063-2.4779-8.5076-2.8583l-0.12684-1.8457c4.3574 0.35833 9.4362 2.0584 10.393 3.7476 0.76107 1.3541 0 8.4684-2.4221 13.799z"/>
   <path d="m178.59 101.96c1.0068 1.734 1.381 4.8775 0.92913 7.9818-0.2965 2.12-1.2082 2.0472-1.0845-0.0951 0.1427-2.4387 0.0635-3.714-0.3187-4.9892z"/>
   <path d="m178.62 104c2.2765-2.3715 4.072-3.2889 5.2578-2.7855 1.1352 0.48042 1.6781 3.0764 0.8118 7.2491-0.43603 2.1311-1.2922 2.0473-1.0798-0.1427 0.35833-3.6861 0.0634-5.4649-0.33613-5.6271-0.66593-0.28539-2.2429 0.593-4.2678 2.8806z"/>
   <path d="m184.24 106.9c2.1814-0.71666 4.609-0.93389 5.3866-0.0476 0.9006 1.0132 0.0635 4.2957-1.5332 6.6059-1.0956 1.5886-1.8849 1.2589-0.95133-0.5375 1.4032-2.7129 1.6054-4.6874 1.3319-5.0341-0.35199-0.39638-2.0863-0.2854-4.3125 0.44713z"/>
   <path d="m188.29 111.64c3.3953-0.0951 4.8832 0.42492 5.1403 1.2367 0.36309 1.1527-1.465 3.6637-3.6469 5.4089-1.6948 1.3588-2.4498 0.79436-0.74996-0.79436 2.036-1.8906 3.0484-3.6861 2.903-4.0944-0.11099-0.32504-1.8738-0.45822-4.2063-0.40273z"/>
   <path d="m140.18 146.92c16.73-0.68813 34.942-10.476 46.75-24.706 0.40273-0.48676 0.49786-0.5375 1.1686-0.67069 2.6009-0.52006 4.1503-1.7452 4.1782-2.0584 0.0635-0.26319-1.2145-1.0623-2.8694-1.5998l0.90535-1.1083c2.0024 0.67703 3.6693 1.9689 3.5909 2.7968-0.0951 1.0068-2.338 2.9421-5.7108 3.5015-11.612 14.907-30.557 25.042-48.031 25.635v-1.7899z"/>
   <path d="m98.317 126.12c-10.857-9.6263-18.99-23.845-23.509-41.476-0.16807-0.67068-0.15856-0.8229 0.1427-1.4143 1.538-3.0428 2.1367-5.7612 1.8234-6.1695-0.45346-0.59299-3.6693-0.11098-6.5722 2.6122-1.818 1.7003-2.4444 1.0465-0.76106-0.78961 3.4119-3.7195 7.7413-4.0439 8.6251-2.7742 0.86729 1.2478-0.48042 5.3696-1.857 7.965 5.0677 17.138 12.552 30.775 22.961 41.095 2.2486 2.2206 1.3985 2.9421-0.84986 0.95133"/>
   <path d="m70.686 70.309c-0.69447-0.01587-2.5226 2.3772-3.9322 6.975-0.64849 2.1311-1.538 1.9466-1.0623-0.2854 1.029-4.8272 3.317-8.2225 4.9837-8.2504 1.6669-0.03173 3.0373 3.6414 3.8036 7.6519l-1.3144 0.44237c-0.82766-4.072-1.7844-6.5107-2.4779-6.5331"/>
   <path d="m66.227 77.139c-1.3921-3.1603-3.2106-5.1572-3.9433-4.9781-0.77216 0.17917-2.2263 3.0652-2.8695 6.852-0.41383 2.4108-1.3652 2.2989-1.0845-0.15856 0.46456-3.9994 1.8346-7.8811 3.619-8.2168 1.6165-0.30126 3.5798 1.9745 4.844 4.6369z"/>
   <path d="m58.872 78.937c-2.215-2.2095-4.1112-3.1828-4.7376-2.8025-0.73252 0.44713-0.71667 4.5756 0.19502 7.115 0.8451 2.3772 0 2.668-1.0068 0.43602-1.4428-3.2106-1.3874-8.0322 0-8.8767 1.1796-0.71667 3.5518 0.20771 5.8898 2.5561z"/>
   <path d="m53.749 83.372c-2.1758-1.2859-4.0945-1.5047-4.3182-1.1638-0.2632 0.40273 0.44713 2.9031 2.2263 5.1348 0.35833 0.44712 0.47566 0.69922 0.54226 1.3033 2.2429 20.629 19.862 46.582 35.58 52.612 2.9869 1.1416 2.4611 2.1088-0.37419 1.27-16.411-4.8606-35.647-32.436-36.783-53.954-2.1982-2.5619-3.2608-6.3766-2.3996-7.3723 0.78802-0.90693 3.138-0.58189 5.0565 0.42017z"/>
   <path d="m73.594 156.56c1.4318-3.9434 5.8172-12.183 9.2851-16.803l1.5824 0.84985c-3.6022 4.9111-8.0601 13.106-9.095 16.736z"/>
   <path d="m135.45 179.38c1.7787-7.2547 4.2063-23.269 3.9434-34.322-0.0951-4.128 0.98462-4.1727 1.4872-0.0793 1.3763 11.343-1.029 27.693-3.8987 34.864-1.4159 3.5294-2.45 3.2666-1.5332-0.46457"/>
   <path d="m55.768 165.92c2.2095-7.6799 14.079-15.505 24.058-6.701 2.3996 2.1199 1.7116 3.0092-0.8007 1.0354-10.046-7.8811-20.036 0.59775-21.596 6.9024z"/>
   <path d="m84.725 185.43c1.6165-4.542 0.73252-10.812-1.1242-14.515-1.4318-2.8638-0.5375-3.3504 1.1194-0.6041 2.4219 4.0217 3.2721 11.125 1.1305 15.645-1.0512 2.2206-1.9689 1.857-1.1241-0.5264"/>
   <path d="m49.883 171.53c-2.0249-2.2486-2.0528-5.8453-0.07925-7.2268 1.7395-1.2145 5.6046-0.78326 9.7438 4.2566 1.9185 2.3325 1.0956 3.0875-0.92913 0.8451-3.6135-4.0049-6.4828-4.6984-7.87-3.7197-1.1194 0.77692-1.3874 3.0652 0.06346 5.0118 1.1463 1.538 0.26795 2.1648-0.92914 0.834"/>
   <path d="m49.201 168.51c-1.3652-1.2304-3.5575-1.3033-4.43-0.37419-1.0909 1.1527-1.0798 3.496 0.73253 5.2076 1.4761 1.3984 0.72143 2.0696-0.77692 0.95133-2.3996-1.7842-2.9926-5.4479-1.2018-7.3441 1.1908-1.2637 3.7084-1.4159 5.6214-0.25685z"/>
   <path d="m43.311 171.67c-1.0132-0.66594-2.0639-0.38054-2.6177 0.40272-0.86095 1.2256-0.46457 3.026 0.92279 4.609 3.5967 4.1001 7.1876 9.492 9.9844 14.99 3.5071 6.9136 13.251 5.599 16.126-2.5226 1.1131-3.1603 2.2095-2.7184 1.1907 0.46932-3.2329 10.163-14.901 10.695-18.9 2.8248-2.7519-5.42-6.0241-10.633-9.5536-14.817-2.0136-2.3885-2.338-4.8832-1.1796-6.522 0.69922-0.98938 2.1535-1.5554 3.7086-1.1242z"/>
   <path d="m67.738 190.73c6.7346-0.15856 17.038 0.72776 27.509 2.4668 22.927 3.8259 26.91 4.2734 29.438 2.9645 2.8247-1.454 3.5014-0.2521 0.73888 1.3144-2.7744 1.5713-6.0801 1.6501-30.501-2.4219-10.711-1.7844-21.4-2.7967-28.04-2.5675z"/>
   <path d="m137.24 173.1c11.075 1.9745 20.522 13.223 19.851 24.119-0.2077 3.3281-1.1749 3.2889-1.2811-0.0476-0.34089-10.236-8.8096-19.65-18.721-21.932z"/>
   <path d="m122.42 197.24c7.814 1.6052 15.511 5.7276 20.321 10.784 0.3298 0.34723 0.3409 0.46456 0.43127 0.99573 0.72777 4.3349 5.5878 5.1795 9.078 0.97352 5.381-6.4773 9.5648-10.505 12.781-12.227 1.8123-0.97353 2.2989-2.5562 1.3652-3.8316-0.80546-1.113-3.2834-1.0956-5.6774 0.92279-1.7676 1.4872-2.4276 0.63739-0.76582-0.96243 2.724-2.6122 6.4158-2.8304 7.8028-0.92279 1.4936 2.0528 0.71667 4.6929-1.98 6.1359-3.0875 1.6501-7.0422 5.5152-12.328 11.88-4.8383 5.8285-11.193 3.7141-11.892-1.8794-5.3864-5.4479-15.276-10.085-24.074-10.835z"/>
   <path d="m156.04 192.5c3.6414-3.205 7.5399-2.7016 9.0054-0.12684l-1.6222 0.23466c-1.3255-1.6277-3.9824-1.4096-7.1427 1.2748z"/>
   <path d="m155.42 190.54c1.4159-0.39638 3.6748-0.34723 4.8998 0.22356l-2.3325 0.79912c-0.73887-0.0635-1.4428-0.0317-2.1758 0.21247z"/>
   <path d="m153.19 122.05c1.1574 2.8136 3.5071 4.4524 6.8743 4.3574 5.9236-0.16807 12.619-5.7836 14.873-18.621 2.9087-16.585-2.8583-26.653-8.8377-27.9-5.006-1.0354-8.8824 0.2854-11.55 3.1884-2.1256 2.3044-2.6122 2.2261-2.6122-0.91803-6e-3 -8.6195-2.7408-14.28-3.9881-14.437-1.343-0.17283-5.9068 5.4145-7.9594 10.639-1.3208 3.3617-1.9187 2.9477-2.7073 0.15856-2.1088-7.512-7.1652-12.686-15.069-14.962-11.914-3.44-24.27 4.3406-29.041 18.744-3.7197 11.198-1.4983 25.529 9.3801 30.758 6.2257 2.987 14.677 2.8974 19.298-0.90694l0.11098 2.0696c-5.2131 3.77-13.922 3.619-20.304 0.55335-11.875-5.7054-14.56-21.048-10.538-33.164 4.967-14.979 18.05-23.856 31.631-19.941 8.4573 2.4389 13.922 8.1497 15.958 15.058 1.0734-3.4064 6.9414-11.59 9.5648-11.142 2.6736 0.45822 5.5542 7.568 5.4871 15.74 2.3212-2.5451 6.8744-4.5252 12.708-3.317 8.5356 1.7731 13.587 14.47 10.829 30.182-2.7129 15.449-11.265 20.231-17.189 20.405-4.4132 0.11099-6.9358-1.9913-8.1944-4.8272z"/>
   <path d="m142.64 94.141c-0.0635-0.99097 0.73886-1.1194 1.0021-0.15856 0.15855 0.5708 0.29649 1.2415 0.32503 1.8794 0.0635 0.80546-0.2521 0.99097-0.67702 0.27905-0.32504-0.53116-0.6263-1.4603-0.64849-2.0079"/>
   <path d="m152.97 97.208c0.45822-0.94499-0.32979-1.1416-0.89425-0.31394-0.29016 0.42492-0.53116 0.90058-0.70398 1.4032-0.27905 0.83875-0.0951 1.0354 0.5042 0.43602 0.43603-0.44237 0.79912-0.92279 1.0956-1.5269"/>
   <path d="m124.79 105.81c-3.6973 10.941 0.91169 21.328 8.614 23.934 7.5791 2.5618 17.384-1.7788 21.496-13.95 4.8496-14.336-0.65483-24.835-7.6742-26.412-8.0546-1.8123-17.927 3.082-22.435 16.428m32.174 10.795c-4.4077 13.05-15.919 17.513-24.069 14.75-9.699-3.2723-13.855-15.36-10.18-26.239 4.2957-12.714 15.03-19.588 24.919-17.368 9.6878 2.1758 13.743 15.813 9.33 28.857"/>
   <path d="m127.27 108.26h6e-3zm0.35199-0.0159c-2.0136 8.7259 0.12684 16.12 6.5275 18.554 5.9737 2.2708 14.14-0.78327 18.095-10.762 0.3409-0.85621 0.23466-1.1464-0.29016-1.4492-5.4647-3.0764-18.296-7.1372-23.168-7.0365-0.8784 0.0111-1.0354 0.12684-1.1638 0.69288m-1.4159-0.38053c0.3187-1.2478 0.88949-1.734 2.5283-1.7508 6.0745-0.11099 18.358 3.8259 23.962 7.2268 1.2748 0.77216 1.4936 1.7116 0.94499 3.2107-4.3014 11.797-14.47 14.079-20.12 11.931-6.9247-2.6288-9.8613-10.566-7.3164-20.618"/>
   <path d="m144.01 126.85c1.3541-8.4462-2.5618-15.852-10.532-19.415l4.3293 0.75472c5.89 3.8315 8.7762 10.471 7.7917 17.754z"/>
   <path d="m134.9 107.57c-1.6669 3.0205-3.5351 4.2678-4.6035 4.1448-1.2304-0.1427-2.4611-2.545-3.0037-4.5978l1.343-0.33615c0.5042 1.7116 1.4381 3.3449 1.8459 3.4121 0.46456 0.0793 1.6052-0.66593 2.8862-2.8191z"/>
   <path d="m152.99 116.44c-1.3319 1.2018-2.7072 1.5269-3.3057 1.2748-1.0687-0.45822-1.6165-2.7967-1.7116-5.929l1.3874 0.63739c0.16172 2.2431 0.59933 3.6973 0.96717 3.8819 0.26797 0.12684 1.4762-0.352 2.6401-1.7844v1.9187z"/>
   <path d="m159.31 131.8c1.6333 3.5239 1.9242 8.5972 0.38528 11.573l-1.8849 0.72142c2.1814-2.9085 1.7842-8.5133 0.0793-11.534z"/>
   <path d="m85.245 108.14c-1.6222 10.986-12.938 16.819-20.075 14.437l-1.1416-1.8514c7.0926 3.1771 18.94-2.931 20.159-14.515z"/>
   <path d="m67.178 191.35c0.64374-6.1472-2.9813-15.063-8.558-21.949l0.92914-0.84509c5.3864 6.1584 8.8824 14.302 8.9775 20.517z"/>
   <path d="m156.53 198.2c-2.3885 5.711-9.3858 11.204-13.984 11.204l-0.241-1.3208c3.8817 0.22991 12.535-6.2815 13.861-12.904z"/>
  </g>
  <path d="m109.86 34.833c13.256 4.0162 42.628 13.469 55.431 18.117 1.8851 0.68178 3.5294-0.36309 4.1503-2.9198 0.58189-2.3828-0.38053-4.0665-1.9409-4.7208-12.205-5.1124-40.452-13.598-54.436-19.074-1.6556-0.64849-3.2106 0.94023-4.0608 3.3785-0.90535 2.6066-0.65959 4.7544 0.85619 5.2187" fill="#aaabab"/>
  <path d="m113.42 31.307c3.138 1.0243 7.4337 2.6122 10.684 3.8483 1.2018 0.46456 1.3319 0.06338 0.75472-0.8784-0.83876-1.3699-1.6724-3.0373-2.1869-4.4077l3.0037 0.73886c1.6835 2.7129 4.9781 6.3766 8.4741 8.8434-2.9198 0.12684-5.5935 0.36944-7.775 0.6152-3.9098-1.2304-11.187-3.5741-15.835-5.0173 1.113-0.49152 2.3044-1.8906 2.8806-3.742" fill="#898989"/>
  <path d="m161.36 43.048c-0.8784 0.8118-1.8404 1.4761-2.8025 2.0752-0.86096 0.53116-0.91803 0.96243-0.0951 1.2859 3.4232 1.3081 7.8811 2.8191 10.823 3.8651-0.91804 2.394-1.9634 3.2385-4.2512 2.5282-1.857-0.5708-5.4703-1.7899-8.5746-2.8694-1.4872-1.6222-3.1045-3.138-4.3908-4.1839 2.366-0.67703 5.7053-2.2597 7.4616-3.5798z" fill="#898989"/>
  <g fill="#0f141b">
   <path d="m104.34 195.65c-8.1721 15.662-33.063 26.933-52.232 26.189-38.768-1.4872-45.212-34.674-33.499-53.58 5.3921-8.6923 16.025-12.199 22.43-7.8309 4.9783 3.3896 5.9403 10.862-2.1927 19.46-7.8643 8.3119-3.8147 25.199 14.554 26.664 13.279 1.0576 26.149-3.7868 35.468-13.396l2.0752 0.26796c-9.7606 10.426-24.136 15.958-37.661 14.879-19.918-1.5886-24.443-20.293-15.701-29.539 7.1876-7.5959 6.6897-13.816 2.4275-16.719-5.2242-3.5575-14.918-0.8229-19.84 7.1205-10.89 17.569-5.7893 49.435 32.028 50.889 19.683 0.74997 42.6-10.555 50.391-24.684z"/>
   <path d="m110.06 34.101c13.531 4.1056 42.432 13.536 55.454 18.162 1.3033 0.45822 2.6065 0.0056 3.1995-2.4107 0.45822-1.913-0.12684-3.2946-1.5047-3.8708-12.244-5.1403-40.027-13.441-54.424-19.057-0.86729-0.33614-2.1814 0.37419-3.082 2.9421-0.8451 2.4444-0.46457 3.9881 0.35833 4.2342m-0.40273 1.4318c-1.622-0.49153-2.6793-2.5228-1.4096-6.192 1.1527-3.2946 3.3114-4.4915 5.1404-3.7755 14.073 5.476 41.962 13.972 54.402 19.062 2.1199 0.86095 2.9981 3.0877 2.394 5.599-0.74363 3.0262-2.752 4.3014-5.1572 3.4289-12.658-4.5979-41.85-14.028-55.37-18.123"/>
   <path d="m114.24 26.527c0.49152 1.0179 0.63263 2.8025 0 4.9055-0.73252 2.3885-1.9689 3.5854-3.0149 3.9826l-1.3033-1.2145c0.77217 0.27905 2.0864-0.63739 2.8863-3.2385 0.72777-2.3661 0.27906-4.0273-0.11098-4.2063l1.5554-0.2299z"/>
  </g>
  <g fill="#9fa0a0">
   <path d="m187.78 122.38c3.3338-0.5153 5.3026-2.394 5.3474-2.8638 0.0635-0.43127-1.381-1.4872-3.1771-2.1592 1.7844-1.8066 2.9421-3.6357 2.7463-4.2566-0.19027-0.60885-2.7016-0.77692-4.6369-0.77692 1.029-2.1254 1.5332-4.3517 1.0005-4.9501-0.58665-0.67703-2.8304-0.39163-4.8216 0.22991 0.32504-2.8862 0.2743-5.2299-0.64848-5.6159-1.029-0.44237-2.9085 0.78802-4.7432 2.7744-3.675 13.145-10.337 22.833-20.248 27.447 1.4428 3.0428 2.1422 8.3398 0.11099 11.567 11.137-4.374 21.546-11.975 29.069-21.395"/>
   <path d="m56.601 166.54c-2.7408-2.215-5.0229-2.4443-6.3262-1.5332-0.72777 0.50896-1.1464 1.4381-1.1971 2.5115-1.7116-1.1907-3.9266-1.0354-4.9166 0.0111-0.79912 0.84985-1.0845 2.0864-0.82766 3.3506-1.1638-0.6152-2.685-0.19026-3.317 0.71033-1.029 1.4539-0.5486 3.7365 1.0243 5.5599 3.5071 4.0609 7.0533 9.4922 9.7941 14.879 3.4624 6.8185 12.585 6.5499 16.484-0.43127l0.48677-0.2965c0.77216-6.3709-3.0764-15.779-8.7202-22.318-0.86095-0.84985-1.5776-1.5665-2.4836-2.4444"/>
   <path d="m164.25 192.47c-0.90536-1.3652-2.6456-2.0247-4.8328-1.2811-1.0845-0.36309-2.4498-0.35199-3.7755 0.0159 0.59775 1.857 0.81655 4.195 0.834 5.3528-2.036 6.6284-10.281 12.462-14.135 12.183 0.5153 5.1684 6.287 6.7961 10.477 1.7508 4.6035-5.5486 9.0614-10.158 12.613-12.059 2.394-1.2811 2.6904-3.5464 1.6669-4.956-0.5597-0.77215-1.5886-1.1527-2.8472-1.0068"/>
   <path d="m64.622 121.71c7.2434 2.6233 18.33-3.1716 20.053-14.202-1.1194-1.7844-3.1156-6.0522-4.2959-9.207-1.9745-4.6369-3.6078-9.4361-4.9558-14.325 1.5491-2.9253 2.629-6.5443 2.0025-7.4394-0.40907-0.5819-1.818-0.65959-3.6079 0.06338-0.73252-3.5573-1.8849-7.1037-3.1491-7.0701-1.2129 0.0476-3.0205 2.9534-4.1671 6.6563-1.4032-2.8023-3.1603-5.0454-4.3853-4.7712-1.2129 0.2743-2.5058 3.4511-3.1043 6.6897-1.9689-1.8851-4.1895-3.2834-5.2691-2.629-1.0512 0.63739-0.98938 4.4413-0.2632 6.992-2.131-1.1194-4.1391-1.343-4.6593-0.74996-0.5597 0.64373 0.46932 4.1505 2.5618 6.5443 0.61519 10.561 6.0186 23.084 13.24 33.455"/>
  </g>
  <path d="m84.026 78.928c-2.5786-4.5475-6.1527-8.7594-9.4808-11.439-2.1311-1.7173-1.4983-2.5843 0.71667-0.97352 3.4679 2.5171 7.4449 7.1093 9.8222 11.802 1.3763 2.7016 0.39162 3.166-1.0576 0.61044" fill="#3e3a39"/>
  <path d="m178.85 100.69c0.5486-0.49312 1.102-0.8673 1.8067-1.3033 2.159-1.343 2.7016-0.49152 0.6596 1.029-0.92914 0.69287-1.8459 1.4318-2.752 2.2542z" fill="#3e3a39"/>
  <g fill="#0f141b">
   <path d="m118.71 92.191c-2.1199 7.0421-6.7121 10.566-10.628 9.425-4.8383-1.4159-6.0746-7.2604-4.2231-13.609 2.0472-7.0254 6.7681-10.186 10.516-9.3019 4.7768 1.1353 5.8954 8.2951 4.3349 13.486"/>
   <path d="m166.24 106.54c-1.734 6.9135-5.5431 9.4305-8.5188 8.6866-2.9926-0.74996-4.967-5.1292-3.3002-11.791 1.6165-6.4381 5.4481-9.5984 8.4629-8.8377 3.0094 0.75472 5.079 5.0733 3.3561 11.942"/>
   <path d="m122.16 94.378c3.205-9.2517 0.0951-16.534-4.788-18-5.0899-1.5269-11.892 0.92279-14.94 11.757-2.3717 8.4292 0.48042 14.946 5.3864 16.45 4.8496 1.4872 10.739 0.18392 14.342-10.208m-14.845 11.785c-6.3766-1.9577-9.2796-9.8724-6.8464-18.514 3.1659-11.249 11.237-14.767 17.362-12.932 6.9079 2.0753 9.3524 11.304 6.2368 20.304-3.8259 11.058-10.767 12.977-16.752 11.142"/>
   <path d="m155.18 103.12c-2.2933 7.3945-0.59934 13.889 3.1882 15.058 3.6694 1.1416 8.3232-1.6222 10.958-10.135 2.5283-8.1608 0.35199-14.045-3.0652-15.102-3.4456-1.0734-8.3454 1.354-11.081 10.18m16.076 5.5263c-2.8415 9.1678-8.6755 12.624-13.475 11.131-5.2131-1.6109-6.8575-9.6598-4.5083-17.25 2.9534-9.5146 8.972-12.641 13.48-11.249 5.3081 1.6445 6.9639 9.4305 4.5026 17.368"/>
   <path d="m152.85 45.49c21.188 13.234 30.367 35.748 26.955 57.076-3.8706 24.242-20.808 37.006-45.195 33.997-3.177-0.39639-3.0763-1.5094 0.12684-1.2526 23.247 1.8457 38.931-10.365 42.589-33.253 3.2554-20.366-4.6706-40.978-26.451-55.907z"/>
   <path d="m147.78 26.478c1.1907-2.9758 4.7489-7.1148 10.7-10.303 6.645-3.563 15.03-4.6537 17.088-2.1311 1.5602 1.913 1.0623 10.857-4.8438 19.398-4.3182 6.2479-11.075 10.907-18.621 13.044-2.8583 0.8118-3.1771-0.19026-0.39797-1.2193 7.2883-2.6905 13.285-7.2212 17.245-12.943 5.6774-8.2112 6.1527-15.975 5.1684-17.178-0.834-1.0243-6.992-1.2478-14.627 2.8472-6.6338 3.5629-9.3914 7.0141-11.495 11.852z"/>
   <path d="m79.495 58.884c8.86-13.754 31.077-21.529 52.36-20.086-4.4245-3.1882-9.604-9.6655-11.78-18.615-2.1424-8.8377 1.2367-23.157 3.8538-24.287 2.9534-1.2748 14.04 3.2106 20.472 13.642 3.44 5.5711 4.6146 12.434 4.1223 19.398-0.2188 3.1269-1.186 3.1101-1.27-0.01586-0.20137-7.3777-1.538-13.43-4.609-18.408-6.231-10.102-16.232-13.687-17.91-12.96-1.0132 0.46931-4.9279 12.764-2.6122 22.279 1.7452 7.1932 5.3642 13.268 11.461 18 2.6961 2.0863 2.2039 2.9589-0.68178 2.7967-22.117-1.2367-43.059 6.8856-51.303 19.393z"/>
   <path d="m59.135 76.609c-2.3212-7.0365-1.2478-19.376 1.5554-21.44 3.2218-2.3772 21.703 0.3187 27.374 9.4641 2.7072 4.374 1.6109 23.621-7.2212 34.629l-0.88949-1.8904c7.8924-11.657 8.3566-28.046 6.069-31.715-4.9111-7.8645-21.356-10.958-24.102-8.9273-1.2748 0.93389-3.0988 9.548-1.4428 16.596z"/>
   <path d="m184.63 107.45c2.573-5.4089 3.6246-12.211 3.0373-13.257-0.45348-0.80546-4.2063-2.4779-8.5076-2.8583l-0.12684-1.8457c4.3574 0.35833 9.4362 2.0584 10.393 3.7476 0.76107 1.3541 0 8.4684-2.4221 13.799z"/>
   <path d="m178.59 101.96c1.0068 1.734 1.381 4.8775 0.92913 7.9818-0.2965 2.12-1.2082 2.0472-1.0845-0.0951 0.1427-2.4387 0.0635-3.714-0.3187-4.9892z"/>
   <path d="m178.62 104c2.2765-2.3715 4.072-3.2889 5.2578-2.7855 1.1352 0.48042 1.6781 3.0764 0.8118 7.2491-0.43603 2.1311-1.2922 2.0473-1.0798-0.1427 0.35833-3.6861 0.0634-5.4649-0.33613-5.6271-0.66593-0.28539-2.2429 0.593-4.2678 2.8806z"/>
   <path d="m184.24 106.9c2.1814-0.71666 4.609-0.93389 5.3866-0.0476 0.9006 1.0132 0.0635 4.2957-1.5332 6.6059-1.0956 1.5886-1.8849 1.2589-0.95133-0.5375 1.4032-2.7129 1.6054-4.6874 1.3319-5.0341-0.35199-0.39638-2.0863-0.2854-4.3125 0.44713z"/>
   <path d="m188.29 111.64c3.3953-0.0951 4.8832 0.42492 5.1403 1.2367 0.36309 1.1527-1.465 3.6637-3.6469 5.4089-1.6948 1.3588-2.4498 0.79436-0.74996-0.79436 2.036-1.8906 3.0484-3.6861 2.903-4.0944-0.11099-0.32504-1.8738-0.45822-4.2063-0.40273z"/>
   <path d="m140.18 146.92c16.73-0.68813 34.942-10.476 46.75-24.706 0.40273-0.48676 0.49786-0.5375 1.1686-0.67069 2.6009-0.52006 4.1503-1.7452 4.1782-2.0584 0.0635-0.26319-1.2145-1.0623-2.8694-1.5998l0.90535-1.1083c2.0024 0.67703 3.6693 1.9689 3.5909 2.7968-0.0951 1.0068-2.338 2.9421-5.7108 3.5015-11.612 14.907-30.557 25.042-48.031 25.635v-1.7899z"/>
   <path d="m98.317 126.12c-10.857-9.6263-18.99-23.845-23.509-41.476-0.16807-0.67068-0.15856-0.8229 0.1427-1.4143 1.538-3.0428 2.1367-5.7612 1.8234-6.1695-0.45346-0.59299-3.6693-0.11098-6.5722 2.6122-1.818 1.7003-2.4444 1.0465-0.76106-0.78961 3.4119-3.7195 7.7413-4.0439 8.6251-2.7742 0.86729 1.2478-0.48042 5.3696-1.857 7.965 5.0677 17.138 12.552 30.775 22.961 41.095 2.2486 2.2206 1.3985 2.9421-0.84986 0.95133"/>
   <path d="m70.686 70.309c-0.69447-0.01587-2.5226 2.3772-3.9322 6.975-0.64849 2.1311-1.538 1.9466-1.0623-0.2854 1.029-4.8272 3.317-8.2225 4.9837-8.2504 1.6669-0.03173 3.0373 3.6414 3.8036 7.6519l-1.3144 0.44237c-0.82766-4.072-1.7844-6.5107-2.4779-6.5331"/>
   <path d="m66.227 77.139c-1.3921-3.1603-3.2106-5.1572-3.9433-4.9781-0.77216 0.17917-2.2263 3.0652-2.8695 6.852-0.41383 2.4108-1.3652 2.2989-1.0845-0.15856 0.46456-3.9994 1.8346-7.8811 3.619-8.2168 1.6165-0.30126 3.5798 1.9745 4.844 4.6369z"/>
   <path d="m58.872 78.937c-2.215-2.2095-4.1112-3.1828-4.7376-2.8025-0.73252 0.44713-0.71667 4.5756 0.19502 7.115 0.8451 2.3772 0 2.668-1.0068 0.43602-1.4428-3.2106-1.3874-8.0322 0-8.8767 1.1796-0.71667 3.5518 0.20771 5.8898 2.5561z"/>
   <path d="m53.749 83.372c-2.1758-1.2859-4.0945-1.5047-4.3182-1.1638-0.2632 0.40273 0.44713 2.9031 2.2263 5.1348 0.35833 0.44712 0.47566 0.69922 0.54226 1.3033 2.2429 20.629 19.862 46.582 35.58 52.612 2.9869 1.1416 2.4611 2.1088-0.37419 1.27-16.411-4.8606-35.647-32.436-36.783-53.954-2.1982-2.5619-3.2608-6.3766-2.3996-7.3723 0.78802-0.90693 3.138-0.58189 5.0565 0.42017z"/>
   <path d="m73.594 156.56c1.4318-3.9434 5.8172-12.183 9.2851-16.803l1.5824 0.84985c-3.6022 4.9111-8.0601 13.106-9.095 16.736z"/>
   <path d="m135.45 179.38c1.7787-7.2547 4.2063-23.269 3.9434-34.322-0.0951-4.128 0.98462-4.1727 1.4872-0.0793 1.3763 11.343-1.029 27.693-3.8987 34.864-1.4159 3.5294-2.45 3.2666-1.5332-0.46457"/>
   <path d="m55.768 165.92c2.2095-7.6799 14.079-15.505 24.058-6.701 2.3996 2.1199 1.7116 3.0092-0.8007 1.0354-10.046-7.8811-20.036 0.59775-21.596 6.9024z"/>
   <path d="m84.725 185.43c1.6165-4.542 0.73252-10.812-1.1242-14.515-1.4318-2.8638-0.5375-3.3504 1.1194-0.6041 2.4219 4.0217 3.2721 11.125 1.1305 15.645-1.0512 2.2206-1.9689 1.857-1.1241-0.5264"/>
   <path d="m49.883 171.53c-2.0249-2.2486-2.0528-5.8453-0.07925-7.2268 1.7395-1.2145 5.6046-0.78326 9.7438 4.2566 1.9185 2.3325 1.0956 3.0875-0.92913 0.8451-3.6135-4.0049-6.4828-4.6984-7.87-3.7197-1.1194 0.77692-1.3874 3.0652 0.06346 5.0118 1.1463 1.538 0.26795 2.1648-0.92914 0.834"/>
   <path d="m49.201 168.51c-1.3652-1.2304-3.5575-1.3033-4.43-0.37419-1.0909 1.1527-1.0798 3.496 0.73253 5.2076 1.4761 1.3984 0.72143 2.0696-0.77692 0.95133-2.3996-1.7842-2.9926-5.4479-1.2018-7.3441 1.1908-1.2637 3.7084-1.4159 5.6214-0.25685z"/>
   <path d="m43.311 171.67c-1.0132-0.66594-2.0639-0.38054-2.6177 0.40272-0.86095 1.2256-0.46457 3.026 0.92279 4.609 3.5967 4.1001 7.1876 9.492 9.9844 14.99 3.5071 6.9136 13.251 5.599 16.126-2.5226 1.1131-3.1603 2.2095-2.7184 1.1907 0.46932-3.2329 10.163-14.901 10.695-18.9 2.8248-2.7519-5.42-6.0241-10.633-9.5536-14.817-2.0136-2.3885-2.338-4.8832-1.1796-6.522 0.69922-0.98938 2.1535-1.5554 3.7086-1.1242z"/>
   <path d="m67.738 190.73c6.7346-0.15856 17.038 0.72776 27.509 2.4668 22.927 3.8259 26.91 4.2734 29.438 2.9645 2.8247-1.454 3.5014-0.2521 0.73888 1.3144-2.7744 1.5713-6.0801 1.6501-30.501-2.4219-10.711-1.7844-21.4-2.7967-28.04-2.5675z"/>
   <path d="m137.24 173.1c11.075 1.9745 20.522 13.223 19.851 24.119-0.2077 3.3281-1.1749 3.2889-1.2811-0.0476-0.34089-10.236-8.8096-19.65-18.721-21.932z"/>
   <path d="m122.42 197.24c7.814 1.6052 15.511 5.7276 20.321 10.784 0.3298 0.34723 0.3409 0.46456 0.43127 0.99573 0.72777 4.3349 5.5878 5.1795 9.078 0.97352 5.381-6.4773 9.5648-10.505 12.781-12.227 1.8123-0.97353 2.2989-2.5562 1.3652-3.8316-0.80546-1.113-3.2834-1.0956-5.6774 0.92279-1.7676 1.4872-2.4276 0.63739-0.76582-0.96243 2.724-2.6122 6.4158-2.8304 7.8028-0.92279 1.4936 2.0528 0.71667 4.6929-1.98 6.1359-3.0875 1.6501-7.0422 5.5152-12.328 11.88-4.8383 5.8285-11.193 3.7141-11.892-1.8794-5.3864-5.4479-15.276-10.085-24.074-10.835z"/>
   <path d="m156.04 192.5c3.6414-3.205 7.5399-2.7016 9.0054-0.12684l-1.6222 0.23466c-1.3255-1.6277-3.9824-1.4096-7.1427 1.2748z"/>
   <path d="m155.42 190.54c1.4159-0.39638 3.6748-0.34723 4.8998 0.22356l-2.3325 0.79912c-0.73887-0.0635-1.4428-0.0317-2.1758 0.21247z"/>
   <path d="m153.19 122.05c1.1574 2.8136 3.5071 4.4524 6.8743 4.3574 5.9236-0.16807 12.619-5.7836 14.873-18.621 2.9087-16.585-2.8583-26.653-8.8377-27.9-5.006-1.0354-8.8824 0.2854-11.55 3.1884-2.1256 2.3044-2.6122 2.2261-2.6122-0.91803-6e-3 -8.6195-2.7408-14.28-3.9881-14.437-1.343-0.17283-5.9068 5.4145-7.9594 10.639-1.3208 3.3617-1.9187 2.9477-2.7073 0.15856-2.1088-7.512-7.1652-12.686-15.069-14.962-11.914-3.44-24.27 4.3406-29.041 18.744-3.7197 11.198-1.4983 25.529 9.3801 30.758 6.2257 2.987 14.677 2.8974 19.298-0.90694l0.11098 2.0696c-5.2131 3.77-13.922 3.619-20.304 0.55335-11.875-5.7054-14.56-21.048-10.538-33.164 4.967-14.979 18.05-23.856 31.631-19.941 8.4573 2.4389 13.922 8.1497 15.958 15.058 1.0734-3.4064 6.9414-11.59 9.5648-11.142 2.6736 0.45822 5.5542 7.568 5.4871 15.74 2.3212-2.5451 6.8744-4.5252 12.708-3.317 8.5356 1.7731 13.587 14.47 10.829 30.182-2.7129 15.449-11.265 20.231-17.189 20.405-4.4132 0.11099-6.9358-1.9913-8.1944-4.8272z"/>
  </g>
  <path d="m155.97 116.23c-3.9658 11.746-14.398 17.149-22.838 14.297-8.3958-2.8416-13.133-13.872-9.3577-25.053 4.2677-12.613 14.14-19.051 23.655-16.909 9.1957 2.0639 12.77 15.153 8.5412 27.665" fill="#9fa0a0"/>
  <path d="m126.93 108.04c0.23466-0.98463 0.86729-1.2082 1.8291-1.2193 5.9962-0.0635 18.106 3.9434 23.599 7.154 0.77216 0.44712 1.0068 1.2415 0.60885 2.2765-4.2734 11.232-13.631 13.464-19.113 11.383-7.0199-2.668-9.0446-10.728-6.9247-19.594" fill="#727171"/>
  <path d="m126.93 108.04c-2.1199 8.8657-0.0951 16.926 6.9247 19.594 2.9813 1.1305 7.098 0.96718 10.93-1.1971 1.2367-8.2223-2.2822-14.879-8.972-18.626-2.6905-0.6263-5.174-1.0068-7.0533-0.98938-0.96243 0.0111-1.5941 0.23466-1.8291 1.2193" fill="#9fa0a0"/>
  <path d="m126.42 118.14c5.0509-3.9881 14.739-1.0576 16.775 9.2851l1.5491-0.85621c1.6277-7.333-1.9968-14.498-8.8768-18.811l-2.0807-0.36942c-0.32504 1.427-2.3157 3.6246-3.2554 3.5407-0.93388-0.0793-2.036-2.1982-2.724-3.8651-0.73887 0.0317-0.98938 0.73253-1.1464 1.7899-0.44712 3.0539-0.64849 5.9066-0.241 9.2851" fill="#898989"/>
  <g fill="#0f141b">
   <path d="m142.64 94.141c-0.0635-0.99097 0.73886-1.1194 1.0021-0.15856 0.15855 0.5708 0.29649 1.2415 0.32503 1.8794 0.0635 0.80546-0.2521 0.99097-0.67702 0.27905-0.32504-0.53116-0.6263-1.4603-0.64849-2.0079"/>
   <path d="m152.97 97.208c0.45822-0.94499-0.32979-1.1416-0.89425-0.31394-0.29016 0.42492-0.53116 0.90058-0.70398 1.4032-0.27905 0.83875-0.0951 1.0354 0.5042 0.43602 0.43603-0.44237 0.79912-0.92279 1.0956-1.5269"/>
   <path d="m124.79 105.81c-3.6973 10.941 0.91169 21.328 8.614 23.934 7.5791 2.5618 17.384-1.7788 21.496-13.95 4.8496-14.336-0.65483-24.835-7.6742-26.412-8.0546-1.8123-17.927 3.082-22.435 16.428m32.174 10.795c-4.4077 13.05-15.919 17.513-24.069 14.75-9.699-3.2723-13.855-15.36-10.18-26.239 4.2957-12.714 15.03-19.588 24.919-17.368 9.6878 2.1758 13.743 15.813 9.33 28.857"/>
   <path d="m127.27 108.26h6e-3zm0.35199-0.0159c-2.0136 8.7259 0.12684 16.12 6.5275 18.554 5.9737 2.2708 14.14-0.78327 18.095-10.762 0.3409-0.85621 0.23466-1.1464-0.29016-1.4492-5.4647-3.0764-18.296-7.1372-23.168-7.0365-0.8784 0.0111-1.0354 0.12684-1.1638 0.69288m-1.4159-0.38053c0.3187-1.2478 0.88949-1.734 2.5283-1.7508 6.0745-0.11099 18.358 3.8259 23.962 7.2268 1.2748 0.77216 1.4936 1.7116 0.94499 3.2107-4.3014 11.797-14.47 14.079-20.12 11.931-6.9247-2.6288-9.8613-10.566-7.3164-20.618"/>
   <path d="m144.01 126.85c1.3541-8.4462-2.5618-15.852-10.532-19.415l4.3293 0.75472c5.89 3.8315 8.7762 10.471 7.7917 17.754z"/>
   <path d="m134.9 107.57c-1.6669 3.0205-3.5351 4.2678-4.6035 4.1448-1.2304-0.1427-2.4611-2.545-3.0037-4.5978l1.343-0.33615c0.5042 1.7116 1.4381 3.3449 1.8459 3.4121 0.46456 0.0793 1.6052-0.66593 2.8862-2.8191z"/>
   <path d="m152.99 116.44c-1.3319 1.2018-2.7072 1.5269-3.3057 1.2748-1.0687-0.45822-1.6165-2.7967-1.7116-5.929l1.3874 0.63739c0.16172 2.2431 0.59933 3.6973 0.96717 3.8819 0.26797 0.12684 1.4762-0.352 2.6401-1.7844v1.9187z"/>
  </g>
  <path d="m109.86 34.833c13.256 4.0162 42.628 13.469 55.431 18.117 1.8851 0.68178 3.5294-0.36309 4.1503-2.9198 0.58189-2.3828-0.38053-4.0665-1.9409-4.7208-12.205-5.1124-40.452-13.598-54.436-19.074-1.6556-0.64849-3.2106 0.94023-4.0608 3.3785-0.90535 2.6066-0.65959 4.7544 0.85619 5.2187" fill="#d4975c"/>
  <path d="m103.46 195.56c-8.049 14.806-32.017 26.161-51.303 25.417-38.332-1.4714-44.065-33.997-32.755-52.249 5.0845-8.2 15.225-11.545 21.126-7.5288 4.3517 2.9702 5.6103 9.7606-2.31 18.134-8.6531 9.1396-3.4792 26.642 15.136 28.13 13.402 1.0734 27.123-4.2623 36.576-14.191 3.6469 0.5597 9.1172 1.4381 13.531 2.2876" fill="#875a14"/>
  <path d="m113.42 31.307c3.138 1.0243 7.4337 2.6122 10.684 3.8483 1.2018 0.46456 1.3319 0.06338 0.75472-0.8784-0.83876-1.3699-1.6724-3.0373-2.1869-4.4077l3.0037 0.73886c1.6835 2.7129 4.9781 6.3766 8.4741 8.8434-2.9198 0.12684-5.5935 0.36944-7.775 0.6152-3.9098-1.2304-11.187-3.5741-15.835-5.0173 1.113-0.49152 2.3044-1.8906 2.8806-3.742" fill="#ae7b49"/>
  <path d="m161.36 43.048c-0.8784 0.8118-1.8404 1.4761-2.8025 2.0752-0.86096 0.53116-0.91803 0.96243-0.0951 1.2859 3.4232 1.3081 7.8811 2.8191 10.823 3.8651-0.91804 2.394-1.9634 3.2385-4.2512 2.5282-1.857-0.5708-5.4703-1.7899-8.5746-2.8694-1.4872-1.6222-3.1045-3.138-4.3908-4.1839 2.366-0.67703 5.7053-2.2597 7.4616-3.5798z" fill="#ae7b49"/>
  <path d="m14.454 184.46c3.1771 29.388 34.221 36.643 57.361 27.022 4.1112-1.7116 4.8943-4.1056 3.6525-7.87 5.7893-2.8191 11.243-6.6674 13.872-10.258 4.4915 0.57555 9.4922 1.4143 13.726 2.2486-5.4536 13.016-28.415 24.432-46.952 25.333-24.863 1.2018-43.293-13.469-41.66-36.475" fill="#6a4604"/>
  <path d="m36.168 159.83c3.9154 2.5451 4.6201 8.9775 1.8794 12.574-5.7668 7.5678-6.1137 14.985-4.1001 20.69-0.2188-5.5767 0.6152-10.068 4.721-14.302 7.9707-8.2168 6.7289-17.849-2.5003-18.962" fill="#6a4604"/>
  <g fill="#0f141b">
   <path d="m104.34 195.65c-8.1721 15.662-33.063 26.933-52.232 26.189-38.768-1.4872-45.212-34.674-33.499-53.58 5.3921-8.6923 16.025-12.199 22.43-7.8309 4.9783 3.3896 5.9403 10.862-2.1927 19.46-7.8643 8.3119-3.8147 25.199 14.554 26.664 13.279 1.0576 26.149-3.7868 35.468-13.396l2.0752 0.26796c-9.7606 10.426-24.136 15.958-37.661 14.879-19.918-1.5886-24.443-20.293-15.701-29.539 7.1876-7.5959 6.6897-13.816 2.4275-16.719-5.2242-3.5575-14.918-0.8229-19.84 7.1205-10.89 17.569-5.7893 49.435 32.028 50.889 19.683 0.74997 42.6-10.555 50.391-24.684z"/>
   <path d="m110.06 34.101c13.531 4.1056 42.432 13.536 55.454 18.162 1.3033 0.45822 2.6065 0.0056 3.1995-2.4107 0.45822-1.913-0.12684-3.2946-1.5047-3.8708-12.244-5.1403-40.027-13.441-54.424-19.057-0.86729-0.33614-2.1814 0.37419-3.082 2.9421-0.8451 2.4444-0.46457 3.9881 0.35833 4.2342m-0.40273 1.4318c-1.622-0.49153-2.6793-2.5228-1.4096-6.192 1.1527-3.2946 3.3114-4.4915 5.1404-3.7755 14.073 5.476 41.962 13.972 54.402 19.062 2.1199 0.86095 2.9981 3.0877 2.394 5.599-0.74363 3.0262-2.752 4.3014-5.1572 3.4289-12.658-4.5979-41.85-14.028-55.37-18.123"/>
   <path d="m114.24 26.527c0.49152 1.0179 0.63263 2.8025 0 4.9055-0.73252 2.3885-1.9689 3.5854-3.0149 3.9826l-1.3033-1.2145c0.77217 0.27905 2.0864-0.63739 2.8863-3.2385 0.72777-2.3661 0.27906-4.0273-0.11098-4.2063l1.5554-0.2299z"/>
  </g>
  <path d="m189.95 117.35c1.7844-1.8067 2.9421-3.6301 2.752-4.2567-0.19027-0.6041-2.7018-0.77217-4.6426-0.77217 1.0354-2.1311 1.5332-4.3572 1.0068-4.9558-0.593-0.67068-2.8359-0.38528-4.8272 0.23466 0.32979-2.8919 0.2743-5.2299-0.64849-5.6216-1.029-0.43603-2.903 0.79436-4.7376 2.7801 2.0863-15.611 0.66593-37.146-26.91-58.905 7.6295-2.5058 14.157-7.568 17.877-12.949 5.6942-8.2336 6.3598-16.685 5.0062-18.341-1.4714-1.801-8.5301-1.4143-15.841 2.5004-6.0465 3.2442-8.916 6.3932-11.097 11.03 0.0951-6.8015-1.2589-13.055-4.363-18.084-6.2423-10.124-16.808-14.302-19.18-13.279-1.7563 0.76106-5.4424 14.067-3.205 23.28 2.0305 8.3343 6.6338 14.873 13.385 19.65-22.508 0.07925-45.223 6.2366-53.91 19.778 2.6905 1.5047 5.0173 3.3953 6.4326 5.6829 2.4722 3.9881 1.5886 21.904-6.6674 33.175-1.9746-4.6371-3.6079-9.4362-4.967-14.319 1.5554-2.931 2.6346-6.5443 2.0081-7.4394-0.40273-0.58665-1.8123-0.66593-3.6079 0.0476-0.73252-3.5575-1.8794-7.1037-3.1435-7.0646-1.2193 0.03173-3.026 2.9477-4.1671 6.6506-1.4032-2.8023-3.1603-5.0452-4.3851-4.7712-1.2193 0.2743-2.5115 3.4513-3.1101 6.6897-1.9632-1.8794-4.1895-3.2834-5.2746-2.6233-1.0465 0.63263-0.97828 4.4413-0.25686 6.9862-2.1254-1.1131-4.1446-1.343-4.6537-0.74996-0.5597 0.64373 0.46932 4.1503 2.5619 6.5443 1.102 18.884 17.468 44.032 32.296 51.946-2.0416 2.9198-6.7289 13.105-8.1553 17.082-8.9663-3.949-17.384 3.3672-18.923 9.2515-2.7465-2.2206-5.023-2.4443-6.3262-1.5332-0.73252 0.50896-1.1527 1.4381-1.1971 2.5115-1.7116-1.1908-3.9266-1.0354-4.9166 0.0111-0.80546 0.84986-1.0909 2.0864-0.82766 3.3506-1.1638-0.61518-2.685-0.19026-3.3225 0.71033-1.0243 1.454-0.54226 3.7365 1.029 5.5599 3.5071 4.0609 7.0533 9.4922 9.7885 14.879 3.4679 6.8185 12.591 6.5499 16.49-0.43126 7.2827-0.21881 18.117 0.90534 27.76 2.5114 12.742 2.1256 19.767 3.2107 23.962 3.4736 9.3635 1.113 18.43 6.0354 23.291 11.164 0.5153 5.174 6.287 6.7961 10.476 1.7508 4.609-5.5431 9.0614-10.158 12.613-12.054 2.394-1.2859 2.6961-3.5519 1.6669-4.9615-0.5597-0.77216-1.5886-1.1527-2.8472-1.0068-0.90535-1.3652-2.6456-2.0247-4.8328-1.2811-1.0845-0.36309-2.4498-0.35199-3.7755 0.0159-2.394-8.021-9.7774-15.438-18.47-17.01 0.80547-6.0409 3.3896-19.672 3.1099-26.379 17.412-0.69923 35.899-10.907 47.505-25.45 3.3338-0.50896 5.3083-2.394 5.3474-2.8638 0.0635-0.42493-1.3762-1.4872-3.1771-2.159" fill="#8cc66d"/>
  <path d="m190.27 116.97c1.7842-1.8066 2.9422-3.6301 2.7519-4.251-0.19027-0.60886-2.7016-0.77692-4.6369-0.77692 1.029-2.1311 1.5332-4.3574 1.0005-4.9558-0.59299-0.67069-2.8359-0.38529-4.8272 0.23466 0.32979-2.8917 0.2743-5.2299-0.64849-5.6214-1.029-0.43602-2.903 0.79436-4.7376 2.78 2.092-15.611 0.66593-37.146-26.91-58.905 7.635-2.506 14.157-7.568 17.877-12.949 5.6942-8.2336 6.3598-16.685 5.0062-18.341-1.4714-1.8012-8.5301-1.4143-15.841 2.5058-6.0465 3.2386-8.916 6.3879-11.097 11.025 0.0951-6.8017-1.2589-13.055-4.363-18.084-6.2423-10.124-16.808-14.302-19.174-13.279-1.762 0.76106-5.4481 14.068-3.2106 23.28 2.0303 8.34 6.6393 14.873 13.385 19.65-22.508 0.07925-45.223 6.2423-53.91 19.779 2.6905 1.5047 5.0173 3.4007 6.4324 5.6829 2.4723 3.9881 1.5943 21.904-6.6674 33.175-1.9745-4.6369-3.6078-9.4361-4.9669-14.319 1.5554-2.9309 2.6345-6.5444 2.0136-7.4392-0.40908-0.58665-1.818-0.66593-3.6078 0.0476-0.73886-3.5573-1.8851-7.1037-3.1492-7.0646-1.2193 0.03173-3.0205 2.9534-4.1671 6.6507-1.3984-2.8025-3.1603-5.0454-4.3853-4.7712-1.2193 0.2743-2.5113 3.4511-3.1099 6.6897-1.9634-1.8794-4.1895-3.2778-5.2691-2.6233-1.0512 0.63264-0.98463 4.4411-0.2632 6.9862-2.1254-1.1131-4.1448-1.343-4.6537-0.74997-0.5597 0.64374 0.46932 4.1503 2.5675 6.5443 1.0956 18.884 17.463 44.032 32.291 51.947-2.0415 2.9198-6.7289 13.106-8.1553 17.082-8.9663-3.949-17.384 3.3674-18.923 9.2517-2.7465-2.2206-5.023-2.4444-6.3263-1.5332-0.72777 0.50896-1.1464 1.4381-1.1971 2.5114-1.7116-1.1907-3.9266-1.0354-4.9166 0.0112-0.79911 0.84985-1.0909 2.0864-0.82765 3.3504-1.1574-0.6152-2.6793-0.19027-3.317 0.71033-1.029 1.4539-0.5486 3.7363 1.0243 5.5599 3.5071 4.0607 7.0533 9.492 9.7885 14.879 3.4679 6.8183 12.591 6.5499 16.49-0.43127 7.2826-0.21881 18.117 0.90535 27.76 2.5115 12.742 2.1256 19.767 3.2106 23.962 3.4736 9.3634 1.1131 18.436 6.0352 23.291 11.164 0.51531 5.174 6.287 6.796 10.477 1.7508 4.609-5.5431 9.0671-10.158 12.613-12.054 2.394-1.2859 2.6961-3.5518 1.6724-4.9613-0.56446-0.77217-1.5941-1.1527-2.8527-1.0068-0.90059-1.3652-2.6456-2.0249-4.8272-1.2811-1.0845-0.36309-2.4555-0.35199-3.781 0.0159-2.3885-8.021-9.7774-15.438-18.47-17.01 0.80545-6.041 3.3897-19.672 3.11-26.379 17.412-0.69447 35.904-10.907 47.511-25.45 3.3338-0.50896 5.3027-2.394 5.3419-2.8638 0.0635-0.42492-1.3762-1.4872-3.1771-2.1592" fill="#8cc66d"/>
  <g fill="#f08437">
   <path d="m187.78 122.38c3.3338-0.5153 5.3026-2.394 5.3474-2.8638 0.0635-0.43127-1.381-1.4872-3.1771-2.1592 1.7844-1.8066 2.9421-3.6357 2.7463-4.2566-0.19027-0.60885-2.7016-0.77692-4.6369-0.77692 1.029-2.1254 1.5332-4.3517 1.0005-4.9501-0.58665-0.67703-2.8304-0.39163-4.8216 0.22991 0.32504-2.8862 0.2743-5.2299-0.64848-5.6159-1.029-0.44237-2.9085 0.78802-4.7432 2.7744-3.675 13.145-10.337 22.833-20.248 27.447 1.4428 3.0428 2.1422 8.3398 0.11099 11.567 11.137-4.374 21.546-11.975 29.069-21.395"/>
   <path d="m56.601 166.54c-2.7408-2.215-5.0229-2.4443-6.3262-1.5332-0.72777 0.50896-1.1464 1.4381-1.1971 2.5115-1.7116-1.1907-3.9266-1.0354-4.9166 0.0111-0.79912 0.84985-1.0845 2.0864-0.82766 3.3506-1.1638-0.6152-2.685-0.19026-3.317 0.71033-1.029 1.4539-0.5486 3.7365 1.0243 5.5599 3.5071 4.0609 7.0533 9.4922 9.7941 14.879 3.4624 6.8185 12.585 6.5499 16.484-0.43127l0.48677-0.2965c0.77216-6.3709-3.0764-15.779-8.7202-22.318-0.86095-0.84985-1.5776-1.5665-2.4836-2.4444"/>
   <path d="m164.25 192.47c-0.90536-1.3652-2.6456-2.0247-4.8328-1.2811-1.0845-0.36309-2.4498-0.35199-3.7755 0.0159 0.59775 1.857 0.81655 4.195 0.834 5.3528-2.036 6.6284-10.281 12.462-14.135 12.183 0.5153 5.1684 6.287 6.7961 10.477 1.7508 4.6035-5.5486 9.0614-10.158 12.613-12.059 2.394-1.2811 2.6904-3.5464 1.6669-4.956-0.5597-0.77215-1.5886-1.1527-2.8472-1.0068"/>
   <path d="m64.622 121.71c7.2434 2.6233 18.33-3.1716 20.053-14.202-1.1194-1.7844-3.1156-6.0522-4.2959-9.207-1.9745-4.6369-3.6078-9.4361-4.9558-14.325 1.5491-2.9253 2.629-6.5443 2.0025-7.4394-0.40907-0.5819-1.818-0.65959-3.6079 0.06338-0.73252-3.5573-1.8849-7.1037-3.1491-7.0701-1.2129 0.0476-3.0205 2.9534-4.1671 6.6563-1.4032-2.8023-3.1603-5.0454-4.3853-4.7712-1.2129 0.2743-2.5058 3.4511-3.1043 6.6897-1.9689-1.8851-4.1895-3.2834-5.2691-2.629-1.0512 0.63739-0.98938 4.4413-0.2632 6.992-2.131-1.1194-4.1391-1.343-4.6593-0.74996-0.5597 0.64373 0.46932 4.1505 2.5618 6.5443 0.61519 10.561 6.0186 23.084 13.24 33.455"/>
  </g>
  <path d="m152.51 122.61c3.1492 8.7536 20.036 6.7121 23.767-14.638 2.8527-16.339-2.9645-27.609-9.9395-29.052-5.5822-1.1574-10.113 0.25686-13.452 4.8104 0.44713-9.2964-2.6682-16.663-4.7544-17.094-1.9466-0.39639-8.0658 7.5456-9.509 12.994-2.0807-9.1229-8.0712-14.728-16.087-17.032-12.35-3.5462-25.176 3.8372-30.333 19.426-3.714 11.22-1.8683 26.228 9.9956 31.916 6.0968 2.9198 15.203 3.2442 20.304-1.186z" fill="#fff899"/>
  <path d="m123.14 94.703c-3.5015 10.118-9.6991 12.451-15.555 10.65-5.3809-1.6501-8.6419-8.4348-6.0968-17.468 3.0205-10.745 10.158-14.146 16.12-12.356 6.3711 1.9187 8.4182 10.846 5.532 19.175" fill="#fff"/>
  <path d="m170.31 108.38c-2.5226 8.1385-7.6687 12.015-12.239 10.6-4.4524-1.381-6.1527-8.6195-3.8091-16.176 2.6122-8.4237 7.6799-12.11 12.278-10.683 4.4132 1.3699 6.1919 8.4516 3.77 16.26" fill="#fff"/>
  <path d="m62.122 71.409c1.224-0.2743 2.9813 1.9689 4.3851 4.7712 1.1416-3.7029 2.9478-6.6114 4.1671-6.6506 1.2637-0.03173 2.4108 3.5071 3.1435 7.0646 1.7956-0.71667 3.2052-0.63739 3.6079-0.06338 0.62629 0.90059-0.45346 4.5139-2.0081 7.4449 1.3588 4.883 2.9924 9.6821 4.967 14.319 8.256-11.271 9.1396-29.187 6.6674-33.18-5.1797-8.3454-22.491-11.545-25.747-9.1453-1.8962 1.3985-3.6246 11.757-1.4936 19.023 0.64849-1.9298 1.4936-3.4065 2.3101-3.5911" fill="#875a14"/>
  <path d="m178.85 104.76c1.8346-1.9856 3.714-3.2161 4.7432-2.7799 0.91803 0.39163 0.97352 2.7352 0.64849 5.6216 0.54225-0.16807 1.102-0.3076 1.6445-0.41383 2.5002-5.4592 3.3113-12.328 2.6624-13.469-0.72142-1.2748-5.1292-2.8974-9.3075-3.2834 0.44236 5.2634 0.17282 10.119-0.39164 14.325" fill="#875a14"/>
  <path d="m121.19 10.588c0.64374 7.7804 6.1584 19.113 14.023 25.098 2.4387 1.857 2.0528 4.1895-0.50421 4.7042-8.7762-6.8408-15.701-17.099-13.519-29.802" fill="#79ac5e"/>
  <path d="m174.72 15.163c-1.7508 12.356-11.394 23.375-24.046 27.777-2.3268 0.80546-2.6233 3.1995-0.60409 3.7812 15.947-5.6663 26.787-19.074 24.65-31.558" fill="#79ac5e"/>
  <g fill="#6a4604">
   <path d="m61.764 55.762c0.3409 6.6563 1.6109 12.334 3.8985 18.788-0.98462-1.622-2.6793-3.2106-3.4903-3.1714-0.8118 0.03173-1.9745 1.5824-2.5394 3.9824-1.6948-6.7008-0.67703-17.966 2.1311-19.599"/>
   <path d="m76.491 87.949c1.8346 3.2442 3.8372 5.6438 6.0298 6.8743-0.59934 1.0576-1.343 2.3325-2.0864 3.2497-1.5158-2.8583-2.7799-6.6674-3.9434-10.124"/>
   <path d="m188.38 93.573c-1.381 2.7576-3.4064 5.9962-5.174 8.1944 1.0354 0.47566 1.511 2.9758 1.1178 5.8172l1.5998-0.46932c1.5094-3.7084 3.2329-10.264 2.4555-13.542"/>
  </g>
  <path d="m64.622 121.71c1.8683 0.67703 3.9713 0.78801 6.1193 0.40748-7.926-10.18-13.508-22.732-16.618-34.338-0.15856-0.57555-0.26796-0.75472-0.77692-1.1241-1.7229-1.2526-2.8863-2.7129-4.3574-5.0286-0.76582 1.4983 0.77692 4.5307 2.4444 6.7123 0.42493 8.0433 5.2355 23.806 13.189 33.371" fill="#cf712e"/>
  <path d="m89.547 142.78c2.545-0.49152 2.4779-3.2553-0.19026-4.6201-7.1932-3.6861-13.408-9.3522-18.615-16.036-2.1424 0.38054-4.2567 0.26321-6.1193-0.40906 6.6059 10.197 16.73 18.531 24.924 21.065" fill="#79ac5e"/>
  <path d="m89.211 142.52c-1.9242 2.2542-7.4673 14.185-8.3119 18.408-1.1242-1.0354-4.2846-3.2218-6.2423-4.0384 0.91803-2.7856 6.3598-13.458 9.0222-16.685 1.7787 0.8118 3.138 1.3762 5.532 2.3157" fill="#79ac5e"/>
  <path d="m50.834 192.03c-2.7576-5.3753-6.287-10.818-9.7885-14.879-0.38528-0.44712-0.70398-0.92279-0.95133-1.4032 0.2299-2.4555 2.3491-3.5575 4.609-2.5618l-0.88315-0.99572c-0.06338-2.31 2.7295-4.3013 5.4311-3.0371 1.1083-1.9745 4.033-2.0026 6.7906 0.6152 2.5954 2.4555 4.1167 4.6035 5.694 7.2938 0.96719 1.6558 2.0585 2.4108 3.731 2.2263 1.8234 4.2734 2.7576 8.5804 2.3436 12.015-5.3306 7.8811-13.726 7.0589-16.976 0.72778" fill="#cf712e"/>
  <path d="m153.63 201.69c-0.65483-0.23466-1.1971-0.68179-1.5491-1.2367-6.4158-10.398-11.903-14.795-25.35-12.832-7.6406 1.1194-33.7-2.0694-40.541-7.098-5.6382-4.1448-11.288-5.2578-18-2.092-1.0734 0.5042-1.9577 0.77216-2.7184 0.85619 1.8178 4.2735 2.7463 8.5805 2.3325 12.015 6.3485 0.11099 20.209 1.5554 27.274 2.808 12.725 2.2485 19.767 3.2106 23.962 3.4735 9.3634 1.113 18.436 6.0354 23.291 11.164 2.8078 0.20771 7.926-2.8358 11.299-7.0589" fill="#79ac5e"/>
  <path d="m152.81 210.5c4.609-5.5486 9.0671-10.158 12.613-12.059 2.394-1.2811 2.6961-3.5464 1.6669-4.956-0.22357-0.31235-0.53751-0.5375-0.89426-0.71032 0 1.3874-0.56445 2.2933-2.0528 3.1043-1.4983 0.81181-4.5307 2.9031-6.7121 4.8328-1.3477 1.186-2.7297 1.3588-3.798 0.97827-3.3728 4.2231-8.4908 7.2659-11.299 7.059 0.5153 5.1682 6.287 6.796 10.476 1.7506" fill="#cf712e"/>
  <path d="m187.78 122.38c3.1882-0.49152 5.1069-2.215 5.3082-2.7855l-0.0634-0.30125c0-0.0159-0.0635-0.0476-0.0635-0.0635-2.2653 0.84509-5.0173 1.224-6.7625 1.1796-4.3236 5.532-16.406 11.165-25.64 10.762-0.65482 0.36944-1.3208 0.71667-2.0024 1.0354 1.4428 3.0428 2.1422 8.3398 0.11099 11.567 11.137-4.374 21.546-11.975 29.069-21.395" fill="#cf712e"/>
  <path d="m80.804 98.989c4.6203 11.718 13.34 22.833 19.331 27.928 10.684 15.684 25.82 19.023 39.932 15.941l0.21247 4.967c6.1304-0.24576 12.389-1.6724 18.436-4.0496 2.0303-3.2274 1.3319-8.5244-0.11099-11.567-22.9 5.2634-61.808-3.7197-77.799-33.22" fill="#79ac5e"/>
  <path d="m84.026 78.928c-2.5786-4.5475-6.1527-8.7594-9.4808-11.439-2.1311-1.7173-1.4983-2.5843 0.71667-0.97352 3.4679 2.5171 7.4449 7.1093 9.8222 11.802 1.3763 2.7016 0.39162 3.166-1.0576 0.61044" fill="#441f23"/>
  <path d="m178.85 100.69c0.5486-0.49312 1.102-0.8673 1.8067-1.3033 2.159-1.343 2.7016-0.49152 0.6596 1.029-0.92914 0.69287-1.8459 1.4318-2.752 2.2542z" fill="#441f23"/>
  <path d="m118.71 92.191c-2.1199 7.0421-6.7121 10.566-10.628 9.425-4.8383-1.4159-6.0746-7.2604-4.2231-13.609 2.0472-7.0254 6.7681-10.186 10.516-9.3019 4.7768 1.1353 5.8954 8.2951 4.3349 13.486" fill="#0f141b"/>
  <path d="m113.95 91.238c-1.0956 4.2846-3.0931 5.2635-4.6314 4.8553-1.6612-0.44237-2.6569-2.8919-1.678-6.6899 0.90693-3.5462 3.0092-5.1516 4.7265-4.6648 1.5443 0.43602 2.4275 3.1995 1.5824 6.4995" fill="#fff"/>
  <path d="m166.24 106.54c-1.734 6.9135-5.5431 9.4305-8.5188 8.6866-2.9926-0.74996-4.967-5.1292-3.3002-11.791 1.6165-6.4381 5.4481-9.5984 8.4629-8.8377 3.0094 0.75472 5.079 5.0733 3.3561 11.942" fill="#0f141b"/>
  <path d="m162.79 105.47c-0.5264 3.11-2.2095 4.8383-3.8091 4.5196-1.8459-0.36309-2.4276-2.8248-1.8459-5.7781 0.59933-3.0541 2.4892-4.8327 3.8819-4.5588 1.5665 0.3076 2.3044 2.6514 1.7731 5.8172" fill="#fff"/>
  <g fill="#0f141b">
   <path d="m122.16 94.378c3.205-9.2517 0.0951-16.534-4.788-18-5.0899-1.5269-11.892 0.92279-14.94 11.757-2.3717 8.4292 0.48042 14.946 5.3864 16.45 4.8496 1.4872 10.739 0.18392 14.342-10.208m-14.845 11.785c-6.3766-1.9577-9.2796-9.8724-6.8464-18.514 3.1659-11.249 11.237-14.767 17.362-12.932 6.9079 2.0753 9.3524 11.304 6.2368 20.304-3.8259 11.058-10.767 12.977-16.752 11.142"/>
   <path d="m155.18 103.12c-2.2933 7.3945-0.59934 13.889 3.1882 15.058 3.6694 1.1416 8.3232-1.6222 10.958-10.135 2.5283-8.1608 0.35199-14.045-3.0652-15.102-3.4456-1.0734-8.3454 1.354-11.081 10.18m16.076 5.5263c-2.8415 9.1678-8.6755 12.624-13.475 11.131-5.2131-1.6109-6.8575-9.6598-4.5083-17.25 2.9534-9.5146 8.972-12.641 13.48-11.249 5.3081 1.6445 6.9639 9.4305 4.5026 17.368"/>
   <path d="m152.85 45.49c21.188 13.234 30.367 35.748 26.955 57.076-3.8706 24.242-20.808 37.006-45.195 33.997-3.177-0.39639-3.0763-1.5094 0.12684-1.2526 23.247 1.8457 38.931-10.365 42.589-33.253 3.2554-20.366-4.6706-40.978-26.451-55.907z"/>
   <path d="m147.78 26.478c1.1907-2.9758 4.7489-7.1148 10.7-10.303 6.645-3.563 15.03-4.6537 17.088-2.1311 1.5602 1.913 1.0623 10.857-4.8438 19.398-4.3182 6.2479-11.075 10.907-18.621 13.044-2.8583 0.8118-3.1771-0.19026-0.39797-1.2193 7.2883-2.6905 13.285-7.2212 17.245-12.943 5.6774-8.2112 6.1527-15.975 5.1684-17.178-0.834-1.0243-6.992-1.2478-14.627 2.8472-6.6338 3.5629-9.3914 7.0141-11.495 11.852z"/>
   <path d="m79.495 58.884c8.86-13.754 31.077-21.529 52.36-20.086-4.4245-3.1882-9.604-9.6655-11.78-18.615-2.1424-8.8377 1.2367-23.157 3.8538-24.287 2.9534-1.2748 14.04 3.2106 20.472 13.642 3.44 5.5711 4.6146 12.434 4.1223 19.398-0.2188 3.1269-1.186 3.1101-1.27-0.01586-0.20137-7.3777-1.538-13.43-4.609-18.408-6.231-10.102-16.232-13.687-17.91-12.96-1.0132 0.46931-4.9279 12.764-2.6122 22.279 1.7452 7.1932 5.3642 13.268 11.461 18 2.6961 2.0863 2.2039 2.9589-0.68178 2.7967-22.117-1.2367-43.059 6.8856-51.303 19.393z"/>
  </g>
  <path d="m145.18 38.468c-1.9298-5.9737-4.6706-10.504-7.4113-14.839-1.5443-2.4555-0.65483-3.0763 1.0179-0.70557 3.0652 4.3406 6.0186 9.0448 7.8756 14.677 4.0664-1.8849 7.6799-4.0999 11.114-7.2994 1.8012-1.6781 2.5841-0.8895 0.86729 0.87839-3.0092 3.0764-6.8856 5.8396-11.495 8.0154-1.2526 0.593-1.5886 0.44713-1.9688-0.72777" fill="#009333"/>
  <g fill="#0f141b">
   <path d="m59.135 76.609c-2.3212-7.0365-1.2478-19.376 1.5554-21.44 3.2218-2.3772 21.703 0.3187 27.374 9.4641 2.7072 4.374 1.6109 23.621-7.2212 34.629l-0.88949-1.8904c7.8924-11.657 8.3566-28.046 6.069-31.715-4.9111-7.8645-21.356-10.958-24.102-8.9273-1.2748 0.93389-3.0988 9.548-1.4428 16.596z"/>
   <path d="m184.63 107.45c2.573-5.4089 3.6246-12.211 3.0373-13.257-0.45348-0.80546-4.2063-2.4779-8.5076-2.8583l-0.12684-1.8457c4.3574 0.35833 9.4362 2.0584 10.393 3.7476 0.76107 1.3541 0 8.4684-2.4221 13.799z"/>
   <path d="m178.59 101.96c1.0068 1.734 1.381 4.8775 0.92913 7.9818-0.2965 2.12-1.2082 2.0472-1.0845-0.0951 0.1427-2.4387 0.0635-3.714-0.3187-4.9892z"/>
   <path d="m178.62 104c2.2765-2.3715 4.072-3.2889 5.2578-2.7855 1.1352 0.48042 1.6781 3.0764 0.8118 7.2491-0.43603 2.1311-1.2922 2.0473-1.0798-0.1427 0.35833-3.6861 0.0634-5.4649-0.33613-5.6271-0.66593-0.28539-2.2429 0.593-4.2678 2.8806z"/>
   <path d="m184.24 106.9c2.1814-0.71666 4.609-0.93389 5.3866-0.0476 0.9006 1.0132 0.0635 4.2957-1.5332 6.6059-1.0956 1.5886-1.8849 1.2589-0.95133-0.5375 1.4032-2.7129 1.6054-4.6874 1.3319-5.0341-0.35199-0.39638-2.0863-0.2854-4.3125 0.44713z"/>
   <path d="m188.29 111.64c3.3953-0.0951 4.8832 0.42492 5.1403 1.2367 0.36309 1.1527-1.465 3.6637-3.6469 5.4089-1.6948 1.3588-2.4498 0.79436-0.74996-0.79436 2.036-1.8906 3.0484-3.6861 2.903-4.0944-0.11099-0.32504-1.8738-0.45822-4.2063-0.40273z"/>
   <path d="m140.18 146.92c16.73-0.68813 34.942-10.476 46.75-24.706 0.40273-0.48676 0.49786-0.5375 1.1686-0.67069 2.6009-0.52006 4.1503-1.7452 4.1782-2.0584 0.0635-0.26319-1.2145-1.0623-2.8694-1.5998l0.90535-1.1083c2.0024 0.67703 3.6693 1.9689 3.5909 2.7968-0.0951 1.0068-2.338 2.9421-5.7108 3.5015-11.612 14.907-30.557 25.042-48.031 25.635v-1.7899z"/>
   <path d="m98.317 126.12c-10.857-9.6263-18.99-23.845-23.509-41.476-0.16807-0.67068-0.15856-0.8229 0.1427-1.4143 1.538-3.0428 2.1367-5.7612 1.8234-6.1695-0.45346-0.59299-3.6693-0.11098-6.5722 2.6122-1.818 1.7003-2.4444 1.0465-0.76106-0.78961 3.4119-3.7195 7.7413-4.0439 8.6251-2.7742 0.86729 1.2478-0.48042 5.3696-1.857 7.965 5.0677 17.138 12.552 30.775 22.961 41.095 2.2486 2.2206 1.3985 2.9421-0.84986 0.95133"/>
   <path d="m70.686 70.309c-0.69447-0.01587-2.5226 2.3772-3.9322 6.975-0.64849 2.1311-1.538 1.9466-1.0623-0.2854 1.029-4.8272 3.317-8.2225 4.9837-8.2504 1.6669-0.03173 3.0373 3.6414 3.8036 7.6519l-1.3144 0.44237c-0.82766-4.072-1.7844-6.5107-2.4779-6.5331"/>
   <path d="m66.227 77.139c-1.3921-3.1603-3.2106-5.1572-3.9433-4.9781-0.77216 0.17917-2.2263 3.0652-2.8695 6.852-0.41383 2.4108-1.3652 2.2989-1.0845-0.15856 0.46456-3.9994 1.8346-7.8811 3.619-8.2168 1.6165-0.30126 3.5798 1.9745 4.844 4.6369z"/>
   <path d="m58.872 78.937c-2.215-2.2095-4.1112-3.1828-4.7376-2.8025-0.73252 0.44713-0.71667 4.5756 0.19502 7.115 0.8451 2.3772 0 2.668-1.0068 0.43602-1.4428-3.2106-1.3874-8.0322 0-8.8767 1.1796-0.71667 3.5518 0.20771 5.8898 2.5561z"/>
   <path d="m53.749 83.372c-2.1758-1.2859-4.0945-1.5047-4.3182-1.1638-0.2632 0.40273 0.44713 2.9031 2.2263 5.1348 0.35833 0.44712 0.47566 0.69922 0.54226 1.3033 2.2429 20.629 19.862 46.582 35.58 52.612 2.9869 1.1416 2.4611 2.1088-0.37419 1.27-16.411-4.8606-35.647-32.436-36.783-53.954-2.1982-2.5619-3.2608-6.3766-2.3996-7.3723 0.78802-0.90693 3.138-0.58189 5.0565 0.42017z"/>
   <path d="m73.594 156.56c1.4318-3.9434 5.8172-12.183 9.2851-16.803l1.5824 0.84985c-3.6022 4.9111-8.0601 13.106-9.095 16.736z"/>
   <path d="m135.45 179.38c1.7787-7.2547 4.2063-23.269 3.9434-34.322-0.0951-4.128 0.98462-4.1727 1.4872-0.0793 1.3763 11.343-1.029 27.693-3.8987 34.864-1.4159 3.5294-2.45 3.2666-1.5332-0.46457"/>
   <path d="m55.768 165.92c2.2095-7.6799 14.079-15.505 24.058-6.701 2.3996 2.1199 1.7116 3.0092-0.8007 1.0354-10.046-7.8811-20.036 0.59775-21.596 6.9024z"/>
   <path d="m84.725 185.43c1.6165-4.542 0.73252-10.812-1.1242-14.515-1.4318-2.8638-0.5375-3.3504 1.1194-0.6041 2.4219 4.0217 3.2721 11.125 1.1305 15.645-1.0512 2.2206-1.9689 1.857-1.1241-0.5264"/>
   <path d="m49.883 171.53c-2.0249-2.2486-2.0528-5.8453-0.07925-7.2268 1.7395-1.2145 5.6046-0.78326 9.7438 4.2566 1.9185 2.3325 1.0956 3.0875-0.92913 0.8451-3.6135-4.0049-6.4828-4.6984-7.87-3.7197-1.1194 0.77692-1.3874 3.0652 0.06346 5.0118 1.1463 1.538 0.26795 2.1648-0.92914 0.834"/>
   <path d="m49.201 168.51c-1.3652-1.2304-3.5575-1.3033-4.43-0.37419-1.0909 1.1527-1.0798 3.496 0.73253 5.2076 1.4761 1.3984 0.72143 2.0696-0.77692 0.95133-2.3996-1.7842-2.9926-5.4479-1.2018-7.3441 1.1908-1.2637 3.7084-1.4159 5.6214-0.25685z"/>
   <path d="m43.311 171.67c-1.0132-0.66594-2.0639-0.38054-2.6177 0.40272-0.86095 1.2256-0.46457 3.026 0.92279 4.609 3.5967 4.1001 7.1876 9.492 9.9844 14.99 3.5071 6.9136 13.251 5.599 16.126-2.5226 1.1131-3.1603 2.2095-2.7184 1.1907 0.46932-3.2329 10.163-14.901 10.695-18.9 2.8248-2.7519-5.42-6.0241-10.633-9.5536-14.817-2.0136-2.3885-2.338-4.8832-1.1796-6.522 0.69922-0.98938 2.1535-1.5554 3.7086-1.1242z"/>
   <path d="m67.738 190.73c6.7346-0.15856 17.038 0.72776 27.509 2.4668 22.927 3.8259 26.91 4.2734 29.438 2.9645 2.8247-1.454 3.5014-0.2521 0.73888 1.3144-2.7744 1.5713-6.0801 1.6501-30.501-2.4219-10.711-1.7844-21.4-2.7967-28.04-2.5675z"/>
   <path d="m137.24 173.1c11.075 1.9745 20.522 13.223 19.851 24.119-0.2077 3.3281-1.1749 3.2889-1.2811-0.0476-0.34089-10.236-8.8096-19.65-18.721-21.932z"/>
   <path d="m122.42 197.24c7.814 1.6052 15.511 5.7276 20.321 10.784 0.3298 0.34723 0.3409 0.46456 0.43127 0.99573 0.72777 4.3349 5.5878 5.1795 9.078 0.97352 5.381-6.4773 9.5648-10.505 12.781-12.227 1.8123-0.97353 2.2989-2.5562 1.3652-3.8316-0.80546-1.113-3.2834-1.0956-5.6774 0.92279-1.7676 1.4872-2.4276 0.63739-0.76582-0.96243 2.724-2.6122 6.4158-2.8304 7.8028-0.92279 1.4936 2.0528 0.71667 4.6929-1.98 6.1359-3.0875 1.6501-7.0422 5.5152-12.328 11.88-4.8383 5.8285-11.193 3.7141-11.892-1.8794-5.3864-5.4479-15.276-10.085-24.074-10.835z"/>
   <path d="m156.04 192.5c3.6414-3.205 7.5399-2.7016 9.0054-0.12684l-1.6222 0.23466c-1.3255-1.6277-3.9824-1.4096-7.1427 1.2748z"/>
   <path d="m155.42 190.54c1.4159-0.39638 3.6748-0.34723 4.8998 0.22356l-2.3325 0.79912c-0.73887-0.0635-1.4428-0.0317-2.1758 0.21247z"/>
   <path d="m153.19 122.05c1.1574 2.8136 3.5071 4.4524 6.8743 4.3574 5.9236-0.16807 12.619-5.7836 14.873-18.621 2.9087-16.585-2.8583-26.653-8.8377-27.9-5.006-1.0354-8.8824 0.2854-11.55 3.1884-2.1256 2.3044-2.6122 2.2261-2.6122-0.91803-6e-3 -8.6195-2.7408-14.28-3.9881-14.437-1.343-0.17283-5.9068 5.4145-7.9594 10.639-1.3208 3.3617-1.9187 2.9477-2.7073 0.15856-2.1088-7.512-7.1652-12.686-15.069-14.962-11.914-3.44-24.27 4.3406-29.041 18.744-3.7197 11.198-1.4983 25.529 9.3801 30.758 6.2257 2.987 14.677 2.8974 19.298-0.90694l0.11098 2.0696c-5.2131 3.77-13.922 3.619-20.304 0.55335-11.875-5.7054-14.56-21.048-10.538-33.164 4.967-14.979 18.05-23.856 31.631-19.941 8.4573 2.4389 13.922 8.1497 15.958 15.058 1.0734-3.4064 6.9414-11.59 9.5648-11.142 2.6736 0.45822 5.5542 7.568 5.4871 15.74 2.3212-2.5451 6.8744-4.5252 12.708-3.317 8.5356 1.7731 13.587 14.47 10.829 30.182-2.7129 15.449-11.265 20.231-17.189 20.405-4.4132 0.11099-6.9358-1.9913-8.1944-4.8272z"/>
  </g>
  <path d="m155.97 116.23c-3.9658 11.746-14.398 17.149-22.838 14.297-8.3958-2.8416-13.133-13.872-9.3577-25.053 4.2677-12.613 14.14-19.051 23.655-16.909 9.1957 2.0639 12.77 15.153 8.5412 27.665" fill="#f08437"/>
  <path d="m126.93 108.04c0.23466-0.98463 0.86729-1.2082 1.8291-1.2193 5.9962-0.0635 18.106 3.9434 23.599 7.154 0.77216 0.44712 1.0068 1.2415 0.60885 2.2765-4.2734 11.232-13.631 13.464-19.113 11.383-7.0199-2.668-9.0446-10.728-6.9247-19.594" fill="#932f00"/>
  <path d="m126.93 108.04c-2.1199 8.8657-0.0951 16.926 6.9247 19.594 2.9813 1.1305 7.098 0.96718 10.93-1.1971 1.2367-8.2223-2.2822-14.879-8.972-18.626-2.6905-0.6263-5.174-1.0068-7.0533-0.98938-0.96243 0.0111-1.5941 0.23466-1.8291 1.2193" fill="#ee869a"/>
  <path d="m124.65 103.43c0.63263 1.3652 1.5221 2.8304 2.517 3.9826-2.3885 6.701-1.6166 17.597 7.7134 20.455 6.2142 1.9017 14.09-1.1971 18.302-12.115 0.78325-0.20613 2.2485-0.73253 3.1938-1.3652-3.2497 13.424-13.598 18.464-22.754 16.311-9.6487-2.2654-14.425-16.411-8.9718-27.268" fill="#cf712e"/>
  <path d="m126.42 118.14c5.0509-3.9881 14.739-1.0576 16.775 9.2851l1.5491-0.85621c1.6277-7.333-1.9968-14.498-8.8768-18.811l-2.0807-0.36942c-0.32504 1.427-2.3157 3.6246-3.2554 3.5407-0.93388-0.0793-2.036-2.1982-2.724-3.8651-0.73887 0.0317-0.98938 0.73253-1.1464 1.7899-0.44712 3.0539-0.64849 5.9066-0.241 9.2851" fill="#cf7487"/>
  <path d="m142.64 94.141c-0.0635-0.99097 0.73886-1.1194 1.0021-0.15856 0.15855 0.5708 0.29649 1.2415 0.32503 1.8794 0.0635 0.80546-0.2521 0.99097-0.67702 0.27905-0.32504-0.53116-0.6263-1.4603-0.64849-2.0079" fill="#0f141b"/>
  <path d="m152.97 97.208c0.45822-0.94499-0.32979-1.1416-0.89425-0.31394-0.29016 0.42492-0.53116 0.90058-0.70398 1.4032-0.27905 0.83875-0.0951 1.0354 0.5042 0.43602 0.43603-0.44237 0.79912-0.92279 1.0956-1.5269" fill="#0f141b"/>
  <path d="m127.95 106.92c0.51372 1.7508 1.6669 3.9545 2.4387 4.0441 0.80546 0.0792 2.4051-1.1353 3.7532-3.5128-2.0415-0.40748-5.1516-0.76581-6.1919-0.53115" fill="#fff"/>
  <path d="m124.79 105.81c-3.6973 10.941 0.91169 21.328 8.614 23.934 7.5791 2.5618 17.384-1.7788 21.496-13.95 4.8496-14.336-0.65483-24.835-7.6742-26.412-8.0546-1.8123-17.927 3.082-22.435 16.428m32.174 10.795c-4.4077 13.05-15.919 17.513-24.069 14.75-9.699-3.2723-13.855-15.36-10.18-26.239 4.2957-12.714 15.03-19.588 24.919-17.368 9.6878 2.1758 13.743 15.813 9.33 28.857" fill="#0f141b"/>
  <path d="m148.67 112.13c0.14269 2.4947 0.71033 4.6201 1.3477 4.8943 0.56445 0.241 1.9409-0.3631 3.1322-1.6782 0.38529-1.2193-3.0764-2.5952-4.4803-3.2161" fill="#fff"/>
  <g fill="#0f141b">
   <path d="m127.27 108.26h6e-3zm0.35199-0.0159c-2.0136 8.7259 0.12684 16.12 6.5275 18.554 5.9737 2.2708 14.14-0.78327 18.095-10.762 0.3409-0.85621 0.23466-1.1464-0.29016-1.4492-5.4647-3.0764-18.296-7.1372-23.168-7.0365-0.8784 0.0111-1.0354 0.12684-1.1638 0.69288m-1.4159-0.38053c0.3187-1.2478 0.88949-1.734 2.5283-1.7508 6.0745-0.11099 18.358 3.8259 23.962 7.2268 1.2748 0.77216 1.4936 1.7116 0.94499 3.2107-4.3014 11.797-14.47 14.079-20.12 11.931-6.9247-2.6288-9.8613-10.566-7.3164-20.618"/>
   <path d="m144.01 126.85c1.3541-8.4462-2.5618-15.852-10.532-19.415l4.3293 0.75472c5.89 3.8315 8.7762 10.471 7.7917 17.754z"/>
   <path d="m134.9 107.57c-1.6669 3.0205-3.5351 4.2678-4.6035 4.1448-1.2304-0.1427-2.4611-2.545-3.0037-4.5978l1.343-0.33615c0.5042 1.7116 1.4381 3.3449 1.8459 3.4121 0.46456 0.0793 1.6052-0.66593 2.8862-2.8191z"/>
   <path d="m152.99 116.44c-1.3319 1.2018-2.7072 1.5269-3.3057 1.2748-1.0687-0.45822-1.6165-2.7967-1.7116-5.929l1.3874 0.63739c0.16172 2.2431 0.59933 3.6973 0.96717 3.8819 0.26797 0.12684 1.4762-0.352 2.6401-1.7844v1.9187z"/>
  </g>
 </g>
</svg>
