<?xml version="1.0" encoding="UTF-8"?>
<!-- Created with Inkscape (http://www.inkscape.org/) -->
<svg version="1.1" viewBox="0 0 75.562 122.45" xmlns="http://www.w3.org/2000/svg">
 <g transform="translate(-1.4899 -1.2741)">
  <g transform="matrix(.61917 0 0 -.61917 32.968 14.599)">
   <path d="m0 0c-1.188 0.496-2.554-0.5-3.396-2.911-0.798-2.285-0.298-3.957 0.855-4.36 13.662-4.781 34.782-11.045 46.294-14.036 1.314-0.342 2.522 0.553 2.92 2.771 0.377 2.099-0.388 3.708-1.651 3.987-11.511 2.539-32.251 9.226-45.022 14.549" fill="#d3965c"/>
  </g>
  <g transform="matrix(.61917 0 0 -.61917 33.344 17.257)">
   <path d="m0 0c2.538-1.037 6.709-2.311 10.583-3.305 0.848-0.217 1.083 0.026 0.543 0.835-0.597 0.894-1.197 1.923-1.614 2.794 1.272-0.477 2.54-0.889 3.866-1.284 1.185-1.326 2.624-2.793 4.345-3.894-4.402 0.311-8.803-0.084-12.98-0.846-1.862 0.705-5.389 1.834-7.872 2.709 1.044-0.198 2.363 0.932 3.129 2.991" fill="#ad7b4a"/>
  </g>
  <g transform="matrix(.61917 0 0 -.61917 57.292 22.734)">
   <path d="m0 0c-0.431-0.618-1.118-1.328-1.979-1.958-0.617-0.45-0.593-0.666 0.168-0.929 3.019-1.045 6.45-1.914 9.158-2.545-0.465-2.12-1.576-3.058-2.9-2.727-0.942 0.236-1.914 0.545-2.856 0.84-2.858 2.842-8.763 5.832-10.029 8.203 1.104 0.074 2.385 0.294 3.313 0.604 1.723-0.59 3.579-1.09 5.125-1.488" fill="#ad7b4a"/>
  </g>
  <g transform="matrix(.61917 0 0 -.61917 31.176 16.508)">
   <path d="m0 0c-0.794-2.271-0.26-3.418 0.521-3.691 13.753-4.813 34.704-11.013 46.245-14.012 0.868-0.222 1.88 0.147 2.278 2.359 0.351 1.958-0.249 3.138-1.237 3.357-11.664 2.572-32.252 9.187-45.125 14.59-0.91 0.381-1.901-0.366-2.682-2.603m3.078 3.583c12.742-5.31 33.314-11.959 44.941-14.524 1.657-0.366 2.498-2.168 2.06-4.605-0.528-2.95-2.293-3.514-3.574-3.187-11.731 2.997-32.429 9.112-46.359 14.062-1.392 0.494-2.032 2.479-1.145 5.016 0.971 2.777 2.589 3.857 4.077 3.238" fill="#0f141b"/>
  </g>
  <g transform="matrix(.61917 0 0 -.61917 31.498 18.794)">
   <path d="m0 0c0.562-0.198 1.684 0.371 2.485 2.667 0.756 2.161 0.242 3.429-0.302 3.619l1.084 0.39c0.697-0.933 0.844-2.55 0.212-4.36-0.778-2.225-1.969-3.167-2.943-3.352z" fill="#0f141b"/>
  </g>
  <g transform="matrix(.61917 0 0 -.61917 76.708 59.274)">
   <path d="m0 0c-0.04 0.443-1.187 1.27-2.21 1.812 0.664 1.213 1.09 2.523 0.827 2.928-0.279 0.433-1.798 0.817-3.232 0.909 0.259 1.149 0.098 2.175-0.379 2.393-0.804 0.366-2.441-0.48-4.543-1.947-5.125-0.744-10.874-2.328-17.296-4.568 5.235 5.237 8.146 12.099 8.901 19.406 1.585 15.336-5.501 27.071-16.576 34.427-2.373 1.576-4.176 3.16-5.361 4.571 14.636 0.631 17.366 20.294 15.857 21.923-1.218 1.316-13.017 0.523-19.793-9.742 0.449 10.83-10.854 21.842-13.896 20.874-3.391-1.079-8.135-21.491 5.667-30.116-29.285 1.047-44.122-15.688-45.064-36.466-2.58 2.596-5.237 4.978-8.006 7.06-2.082 2.617-4.585 4.903-5.389 4.656-0.657-0.203-0.905-2.07-0.677-4.252-1.85 1.036-4.164 1.761-4.628 1.345-0.481-0.43-0.075-2.521 0.606-4.19-1.365 0.474-2.738 0.571-3.061 0.099-0.393-0.573-0.115-2.337 1.022-4.266-1.913 0.056-3.703-0.314-3.703-1.066 0-0.819 1.44-2.709 3.668-4.402 5.026-11.533 19.534-27.603 29.93-33.919-1.665-11.367 0.769-23.175 4.127-31.599-4.207-10.037-1.268-20.79 7.28-23.588 2.348-0.769 4.694-0.929 6.817-0.537 0.166-1.91 1.6-3.28 2.756-3.061 0.734 0.139 1.269 0.657 1.399 1.68 0.642-0.808 1.651-1.149 2.409-0.918 0.768 0.233 1.253 0.907 1.427 1.966 0.574-0.717 1.399-1.026 2.192-0.845 1.425 0.328 2.056 1.627 1.397 4.402-0.508 2.137-0.91 5.121-1.016 7.555-0.078 1.792-0.54 2.814-1.316 3.349 3.906 4.076 16.016 11.568 21.877 12.632 1.53-1.937 3.303-3.837 5.045-5.358 2.667-2.328 8.338-2.243 11.3 1.609 2.963 3.851 4.947 8.361 5.672 10.962 0.709 2.544 0.338 4.091-0.761 4.571-0.678 0.295-1.409 0.145-2.002-0.232-0.065 0.771-0.403 1.386-1.08 1.712-0.785 0.376-1.749 0.347-2.489-0.076-0.206 0.523-0.597 0.901-1.174 1.078-0.184 0.058-0.361 0.085-0.534 0.098-1.81 5.732-6.731 9.173-12.024 8.937-1.88-0.084-3.639-0.704-5.202-1.812-0.259 0.808-0.576 1.606-0.935 2.376 10.884-0.601 30.566 4.315 38.56 11.027 1.946 0.593 3.499 1.552 3.527 2.117 0.024 0.498-0.523 1.349-1.274 2.143 0.769 0.823 1.407 1.811 1.358 2.343" fill="#8bc56c"/>
  </g>
  <g transform="matrix(.61917 0 0 -.61917 11.63 38.554)">
   <path d="m0 0c-2.081 2.617-4.585 4.903-5.389 4.656-0.657-0.202-0.905-2.07-0.676-4.252-1.85 1.036-4.164 1.762-4.628 1.346-0.482-0.431-0.076-2.522 0.605-4.191-1.364 0.474-2.737 0.571-3.06 0.099-0.393-0.573-0.116-2.337 1.021-4.265-1.912 0.055-3.702-0.315-3.702-1.067 0-0.819 1.439-2.709 3.668-4.402 2.706-6.21 8.163-13.736 14.247-20.347 9.841-1.972 16.2 3.98 15.747 14.157-5.592 7.043-11.421 13.444-17.833 18.266" fill="#ef8337"/>
  </g>
  <g transform="matrix(.61917 0 0 -.61917 76.656 62.052)">
   <path d="m0 0c0.024 0.499-0.523 1.349-1.274 2.144 0.769 0.822 1.407 1.81 1.358 2.342-0.04 0.444-1.188 1.27-2.21 1.812 0.664 1.213 1.09 2.523 0.827 2.929-0.279 0.432-1.798 0.816-3.232 0.908 0.259 1.15 0.098 2.175-0.379 2.393-0.804 0.367-2.441-0.48-4.543-1.947-5.273-0.765-11.204-2.418-17.851-4.762-4.176-6.752-2.905-14.595 4.736-16.418 7.587 1.996 14.889 4.997 19.041 8.483 1.947 0.592 3.499 1.552 3.527 2.116" fill="#ef8337"/>
  </g>
  <g transform="matrix(.61917 0 0 -.61917 66.349 77.67)">
   <path d="m0 0c-0.678 0.295-1.408 0.145-2.002-0.231-0.064 0.771-0.402 1.386-1.08 1.711-0.784 0.376-1.749 0.348-2.488-0.076-0.206 0.523-0.598 0.901-1.174 1.079-1.995 0.617-3.465-1.38-5.108-5.996-2.852-8.008-3.904-12.552-2.087-14.835 2.882-0.873 6.752-0.144 9.029 2.815 2.963 3.851 4.946 8.361 5.672 10.962 0.709 2.545 0.338 4.092-0.762 4.571" fill="#ef8337"/>
  </g>
  <g transform="matrix(.61917 0 0 -.61917 41.086 99.539)">
   <path d="m0 0c-0.508 2.137-0.91 5.121-1.016 7.555-0.106 2.448-0.927 3.462-2.292 3.755 0.31-2.523 0.227-5.708-0.473-7.847-1.176-3.708-4.156-6.014-7.799-6.687 0.166-1.91 1.601-3.28 2.756-3.061 0.734 0.139 1.269 0.657 1.399 1.68 0.642-0.809 1.652-1.149 2.409-0.918 0.768 0.233 1.253 0.906 1.427 1.965 0.574-0.716 1.4-1.025 2.193-0.844 1.424 0.327 2.055 1.627 1.396 4.402" fill="#fff"/>
  </g>
  <g transform="matrix(.61917 0 0 -.61917 11.63 38.554)">
   <path d="m0 0c4.211-3.167 8.168-7.023 11.974-11.286 4.648 4.99 5.14 16.911 3.432 19.85-2.95 5.076-13.856 8.374-16.676 6.856-2.501-1.346-3.592-7.029-3.202-11.037 1.143-0.674 2.924-2.436 4.472-4.383" fill="#865b16"/>
  </g>
  <g transform="matrix(.61917 0 0 -.61917 65.8 43.369)">
   <path d="m0 0c3.727 0.499 8.246-0.488 9.233-2.763 1.636-3.77-1.719-12.534-11.11-19.034-1.837-0.533-4.715-1.379-6.973-2.085 5.983 5.757 8.832 14.814 8.85 23.882" fill="#865b16"/>
  </g>
  <g transform="matrix(.61917 0 0 -.61917 47.471 87.32)">
   <path d="m0 0c-2.797-1.522-5.633-3.305-8.009-5.005 4.379-5.664 6.971-11.452 7.484-17.871 0.777-9.713-3.984-15.793-11.085-18.508-10.508-4.016-11.589-8.958-9.65-13.261 2.14-4.749 9.482-4.898 16.817 0.169 12.415 8.578 16.704 20.485 15.126 32.449-1.039 7.879-4.842 15.594-10.683 22.027" fill="#865b16"/>
  </g>
  <g transform="matrix(.61917 0 0 -.61917 48.911 57.171)">
   <path d="m0 0c5.37-8.26 19.931-4.706 23.211 12.433 4.016 20.983-8.991 26.842-19.639 18.242 0.974 7.026-1.65 14.223-3.597 14.39-1.482 0.127-5.544-5.46-8.38-10.37-2.768 13.734-23.452 19.114-31.96-3.282-6.881-18.112 3.356-29.236 16.301-25.44z" fill="#fff697"/>
  </g>
  <g transform="matrix(.61917 0 0 -.61917 50.625 54.321)">
   <path d="m0 0c-4.523-10.181-13.223-13.689-19.724-11.089-6.348 2.54-9.435 11.735-4.909 21.924 4.549 10.239 13.378 13.951 19.766 11.301 6.221-2.582 9.524-11.653 4.867-22.136" fill="#ef8337"/>
  </g>
  <g transform="matrix(.61917 0 0 -.61917 48.722 53.21)">
   <path d="m0 0c-3.898 4.023-12.119 7.479-17.538 7.56-1.043 0.015-1.369-0.186-1.919-1.012-3.73-5.609-1.994-14.837 4.288-17.286 5.997-2.338 13.004 0.366 15.468 9.024 0.221 0.775 0.162 1.237-0.299 1.714" fill="#e08b9b"/>
  </g>
  <g transform="matrix(.61917 0 0 -.61917 43.125 49.743)">
   <path d="m0 0c6.36-4.736 7.605-9.668 5.848-13.731 1.496 1.572 2.717 3.701 3.49 6.418 0.221 0.775 0.162 1.237-0.299 1.714-2.118 2.186-5.513 4.199-9.039 5.599" fill="#883614"/>
  </g>
  <g transform="matrix(.61917 0 0 -.61917 37.174 48.639)">
   <path d="m 0,0 c -0.292,-1.957 0.135,-3.963 0.984,-4.946 1.534,0.619 3.038,2.296 4.267,4.55 C 3.78,-0.049 0.73,0.41 0,0" fill="#fff"/>
  </g>
  <g transform="matrix(.61917 0 0 -.61917 46.83 51.67)">
   <path d="m0 0c0.011-1.859 0.258-3.738 0.606-4.946 0.582 0.129 2.295 0.922 2.89 1.329-0.057 0.621-0.789 1.217-1.262 1.705-0.636 0.658-1.398 1.297-2.234 1.912" fill="#fff"/>
  </g>
  <g transform="matrix(.61917 0 0 -.61917 36.298 43.015)">
   <path d="m0 0c-2.6-7.282-7.544-9.16-10.975-8.017-3.809 1.27-5.909 6.545-3.535 13.197 2.276 6.372 7.662 9.341 11.175 8.177 3.521-1.167 5.815-6.408 3.335-13.357" fill="#fff"/>
  </g>
  <g transform="matrix(.61917 0 0 -.61917 60.74 49.927)">
   <path d="m0 0c-1.452-6.817-6.096-9.741-9.523-9.297-4.084 0.529-5.738 5.846-4.36 12.316 1.411 6.625 5.744 10.222 9.227 9.481 3.357-0.715 6.093-5.748 4.656-12.5" fill="#fff"/>
  </g>
  <g transform="matrix(.61917 0 0 -.61917 60.837 55.594)">
   <path d="m0 0c-4.337-3.227-9.387-5.252-14.718-6.217 4.595-1.695 10.622 0.284 14.718 6.217" fill="#ddd68f"/>
  </g>
  <g transform="matrix(.61917 0 0 -.61917 28.875 53.687)">
   <path d="M 0,0 C -4.415,3.507 -7.96,7.834 -10.112,12.816 -9.458,5.919 -5.486,1.315 0,0" fill="#ddd68f"/>
  </g>
  <g transform="matrix(.61917 0 0 -.61917 48.981 53.857)">
   <path d="m0 0c1.209 0.258 2.395 0.666 3.531 1.24-4.281-11.892-14.055-15.921-21.191-12.863-7.551 3.236-8.328 15.672-3.203 23.754 0.131-1.351 0.617-2.693 1.383-3.968-4.027-4.702-2.689-14.543 2.877-17.293 6.634-3.277 14.388-0.398 16.603 9.13" fill="#ce712f"/>
  </g>
  <g transform="matrix(.61917 0 0 -.61917 59.751 58.448)">
   <path d="m0 0c-0.23-0.217-0.419-0.56-0.557-0.99 0.176 0.332 0.355 0.663 0.557 0.99" fill="#0f141b"/>
  </g>
  <g transform="matrix(.61917 0 0 -.61917 59.406 59.061)">
   <path d="m0 0c0.138 0.43 0.326 0.773 0.557 0.99 2.937 2.762 5.603 6.415 6.557 9.015-1.468-1.668-3.082-3.126-4.802-4.406-4.096-5.933-10.124-7.912-14.718-6.217-2.832-0.513-5.74-0.737-8.664-0.672-7.024-5.168-15.775-3.596-18.83 4.284-3.401 1.528-6.581 3.44-9.409 5.685-5.486 1.316-9.458 5.919-10.112 12.817-1.107 2.563-1.85 5.297-2.147 8.185-0.485-2.973-1.857-5.673-3.538-7.841 2.917-3.072 8.312-9.906 11.309-14.311 0.084-17.014 18.199-28.103 37.42-22.015 0.813-0.956 1.482-2.199 2.051-3.35 5.419-0.452 12.226 0.478 18.756 2.178 0.286 0.075 0.57 0.155 0.855 0.232-7.264 1.737-8.755 8.918-5.285 15.426" fill="#79ab5e"/>
  </g>
  <g transform="matrix(.61917 0 0 -.61917 76.647 61.973)">
   <path d="m0 0c-1.114-0.409-2.424-0.596-3.679-0.503-0.672 0.05-0.941-0.032-1.461-0.326-3.706-2.091-8.152-3.751-13.347-3.969-8.019-0.338-10.887 4.768-9.359 9.501-3.469-6.508-1.979-13.689 5.285-15.427 7.75 2.107 15 5.268 18.919 8.454 1.526 0.535 3.557 1.339 3.642 2.27" fill="#ce712f"/>
  </g>
  <g transform="matrix(.61917 0 0 -.61917 9.7959 30.133)">
   <path d="m0 0c-0.762-5.586 8.465-16.167 17.691-20.4-0.676-1.608-1.438-3.132-2.674-4.481-3.522 3.777-8.732 8.84-12.035 11.225-1.321 1.761-3.338 3.889-4.623 4.55-0.305 3.435 0.371 6.398 1.641 9.106" fill="#6a4606"/>
  </g>
  <g transform="matrix(.61917 0 0 -.61917 23.808 63.31)">
   <path d="m0 0c-4.374 2.187-6.734 4.2-10.761 7.545-1.984-0.467-4.246-0.488-6.732-1e-3 6.295-6.846 14.324-13.164 17.92-14.929 2.563 1.008 2.901 5.721-0.427 7.385" fill="#79ab5e"/>
  </g>
  <g transform="matrix(.61917 0 0 -.61917 17.145 58.638)">
   <path d="m0 0c-7.061 5.867-13.602 13.11-19.065 21.475-0.24 0.365-0.389 0.568-0.781 0.706-1.752 0.612-3.503 1.609-4.72 3.032-0.423-1.185 1.045-3.075 3.555-4.994 1.998-5.494 7.941-13.329 14.279-20.22 2.486-0.488 4.748-0.466 6.732 1e-3" fill="#ce712f"/>
  </g>
  <g transform="matrix(.61917 0 0 -.61917 9.8225 39.37)">
   <path d="m0 0c0.053-2.402 0.476-5.037 1.153-7.216 0.406-1.305-1.425-1.869-1.694-0.42-0.697 3.763-0.014 7.426 0.541 7.636" fill="#ce712f"/>
  </g>
  <g transform="matrix(.61917 0 0 -.61917 3.6381 39.882)">
   <path d="m0 0c0.528-1.83 1.393-3.417 2.624-4.655 0.714-0.718-0.117-1.715-0.979-1.248-1.848 2.426-2.519 5.141-1.645 5.903" fill="#ce712f"/>
  </g>
  <g transform="matrix(.61917 0 0 -.61917 5.1056 37.385)">
   <path d="m0 0c0.392-1.756 1.227-3.587 2.211-4.793 0.686-0.842-0.26-1.668-1.099-1.18-1.28 2.053-2.011 5.539-1.112 5.973" fill="#ce712f"/>
  </g>
  <g transform="matrix(.61917 0 0 -.61917 8.355 35.636)">
   <path d="m0 0c-0.085-1.365 0.147-3.64 0.66-5.191 0.311-0.94-0.681-1.38-1.309-0.845-0.476 3.619-0.198 5.856 0.649 6.036" fill="#ce712f"/>
  </g>
  <g transform="matrix(.61917 0 0 -.61917 72.9 58.946)">
   <path d="m0 0c-1.312-1.026-3.185-1.862-4.856-2.18-1.438-0.273-1.447-1.56-0.411-1.81 2.013 0.707 5.564 2.646 5.267 3.99" fill="#ce712f"/>
  </g>
  <g transform="matrix(.61917 0 0 -.61917 73.491 54.147)">
   <path d="m0 0c-0.071-1.235-0.311-2.135-0.987-3.163-0.688-1.044 0.122-1.697 1.086-1.219 0.613 1.338 0.786 4.159-0.099 4.382" fill="#ce712f"/>
  </g>
  <g transform="matrix(.61917 0 0 -.61917 75.749 56.263)">
   <path d="m0 0c-0.675-1.2-1.551-2.305-2.587-3.197-0.452-0.39-0.428-1.682 1.041-1.36 0.851 1.019 2.093 3.691 1.546 4.557" fill="#ce712f"/>
  </g>
  <g transform="matrix(.61917 0 0 -.61917 76.648 59.07)">
   <path d="m0 0c-0.9-1.187-1.825-1.769-2.833-2.311-0.905-0.486-0.655-1.729 0.524-1.543 1.121 0.865 2.563 3.166 2.309 3.854" fill="#ce712f"/>
  </g>
  <g transform="matrix(.61917 0 0 -.61917 71.406 44.86)">
   <path d="m0 0c-0.72-5.559-7.04-11.597-13.12-14.94-1.059-1.905-2.667-4.36-4.783-6.476 1.665 0.536 4.74 1.354 6.829 1.975 7.42 4.571 13.741 15.18 11.074 19.441" fill="#6a4606"/>
  </g>
  <g transform="matrix(.61917 0 0 -.61917 40.981 1.6995)">
   <path d="m0 0c-3.273-8.959 0.366-24.506 8.231-30.304-0.754 0.098-1.742 0.183-2.56 0.268-10.411 5.671-12.048 23.391-5.671 30.036" fill="#79ab5e"/>
  </g>
  <g transform="matrix(.61917 0 0 -.61917 53.263 20.227)">
   <path d="m0 0c8.21 2.116 12.217 9.763 13.6 18.961 2.455-6.941-3.782-21.867-16.206-21.988-0.248 1.239 0.462 2.475 2.606 3.027" fill="#79ab5e"/>
  </g>
  <g transform="matrix(.61917 0 0 -.61917 59.895 77.74)">
   <path d="m0 0c-3.887 7.938-19.769 9.209-20.615-4.655-3.294-13.177-32.503-16.76-39.22 6.419 0.338-5.206 2.116-11.851 3.668-16.013-4.248-12.142-0.336-19.692 5.353-22.813 6.186-3.395 14.475-1.551 16.655 5.319 0.7 2.139 0.783 5.324 0.473 7.847 0.301-0.065 0.722-0.176 1.192-0.332 4.147 4.641 16.202 11.268 21.533 12.698 2.416-3.089 5.386-6.156 7.444-6.704-1.816 2.282-0.764 6.826 2.088 14.835 0.486 1.363 0.956 2.492 1.429 3.399" fill="#79ab5e"/>
  </g>
  <g transform="matrix(.61917 0 0 -.61917 41.086 99.539)">
   <path d="m0 0c-0.508 2.137-0.91 5.121-1.016 7.555-0.106 2.448-0.927 3.462-2.292 3.755 0.31-2.523 0.227-5.708-0.473-7.847-1.176-3.708-4.156-6.014-7.799-6.687 0.166-1.91 1.601-3.28 2.756-3.061 0.734 0.139 1.269 0.657 1.399 1.68 0.642-0.809 1.652-1.149 2.409-0.918 0.768 0.233 1.253 0.906 1.427 1.965 0.574-0.716 1.4-1.025 2.193-0.844 1.424 0.327 2.055 1.627 1.396 4.402" fill="#ce712f"/>
  </g>
  <g transform="matrix(.61917 0 0 -.61917 63.308 87.288)">
   <path d="m0 0c-2.164-3.042-6.146-3.688-9.029-2.815-1.817 2.283-0.765 6.826 2.088 14.835 0.851 2.393 1.501 3.818 2.356 4.804 1.459 0.73 3.786-0.42 3.085-3.841 0.673 0.925 0.897 1.878 0.981 2.636 1.123 0.673 2.945-0.505 2.413-3.59 0.503 0.673 0.812 1.43 0.924 2.019 2.384 0.673 3.366-5.356-2.818-14.048" fill="#ce712f"/>
  </g>
  <g transform="matrix(.61917 0 0 -.61917 46.787 99.598)">
   <path d="m0 0c3.687 2.18 7.123 0.305 7.553-3.354 1.378-11.768-3.274-21.134-13.77-27.906-5.909-3.812-12.415-4.966-14.503-1.693 0.34-4.503 6.424-8.675 16.506-2.187 21.261 13.683 20.175 39.206 5.333 55.008-2.201-1.171-5.375-3.076-8.042-5.023 3.768-4.994 6.523-10.983 6.923-14.845" fill="#6a4606"/>
  </g>
  <g transform="matrix(.61917 0 0 -.61917 46.746 53.928)">
   <path d="m0 0c-6.207 4.232-16.421 1.58-16.816-4.853-2.136 2.418-2.101 10.239 1.241 13.403-0.028-1.524 0.17-3.64 1.072-4.882 1.326 0.621 3.499 2.455 4.149 4.458 1.974-0.338 3.78-1.015 5.106-1.551 2.37-2.173 3.838-4.092 5.248-6.575" fill="#c37987"/>
  </g>
  <g transform="matrix(.61917 0 0 -.61917 19.475 39.14)">
   <path d="m0 0c-1.474 3.226-4.67 6.59-8.583 9.056-1.756 1.106-1.371 1.757 0.44 0.749 4.108-2.284 7.495-5.818 8.951-9.475 0.741-1.864 4e-3 -2.107-0.808-0.33" fill="#442023"/>
  </g>
  <g transform="matrix(.61917 0 0 -.61917 65.209 48.644)">
   <path d="m0 0c1.089 0.904 2.274 1.423 3.39 1.687 1.922 0.454 2.098-0.234 0.217-0.831-1.28-0.407-2.529-1.105-3.896-2.413z" fill="#442023"/>
  </g>
  <g transform="matrix(.61917 0 0 -.61917 43.548 42.148)">
   <path d="m0 0c-0.044 0.747 0.644 0.809 0.853 0.082 0.124-0.428 0.236-0.907 0.251-1.323 0.023-0.607-0.285-0.71-0.617-0.178-0.249 0.398-0.463 1.005-0.487 1.419" fill="#0f141b"/>
  </g>
  <g transform="matrix(.61917 0 0 -.61917 49.125 44.535)">
   <path d="m0 0c0.535 0.586 5e-3 1-0.636 0.597-0.327-0.206-0.609-0.446-0.878-0.742-0.449-0.497-0.341-0.787 0.297-0.585 0.448 0.141 0.878 0.358 1.217 0.73" fill="#0f141b"/>
  </g>
  <g transform="matrix(.61917 0 0 -.61917 34.548 42.581)">
   <path d="m0 0c-1.899-5.642-5.485-7.186-7.936-6.412-2.814 0.889-4.211 5.274-2.582 10.115 1.677 4.981 5.185 7.28 8.084 6.37 2.674-0.84 4.132-5.028 2.434-10.073" fill="#0f141b"/>
  </g>
  <g transform="matrix(.61917 0 0 -.61917 58.408 49.617)">
   <path d="m0 0c-1.261-5.531-4.457-7.936-7.153-7.322-2.356 0.537-4.182 4.249-2.942 9.692 1.305 5.727 4.644 8.041 6.962 7.513 2.565-0.584 4.337-4.597 3.133-9.883" fill="#0f141b"/>
  </g>
  <g transform="matrix(.61917 0 0 -.61917 32.685 41.744)">
   <path d="m0 0c-0.816-2.577-2.36-3.557-3.446-3.213-1.085 0.343-1.428 2.403-0.75 4.542 0.817 2.581 2.274 3.453 3.332 3.118 0.968-0.307 1.696-1.818 0.864-4.447" fill="#fff"/>
  </g>
  <g transform="matrix(.61917 0 0 -.61917 56.542 49.046)">
   <path d="m0 0c-0.642-2.384-2.03-3.506-3.158-3.203-1.135 0.306-1.473 2.237-0.89 4.404 0.634 2.354 2.047 3.469 3.026 3.247 1.194-0.271 1.682-1.997 1.022-4.448" fill="#fff"/>
  </g>
  <g transform="matrix(.61917 0 0 -.61917 43.791 20.298)">
   <path d="m0 0c-5.258 3.578-7.586 8.671-8.432 13.129-1.639 8.65 1.311 16.783 3.653 17.528 1.857 0.597 7.382-2.773 11.436-9.635 2.136-3.615 3.531-8.109 3.116-12.299-0.223-2.26-0.903-2.217-0.862 0.054 0.074 4.115-1.179 7.91-3.28 11.486-3.572 6.082-8.53 9.668-9.952 9.169-1.351-0.474-4.386-7.331-2.701-16.1 0.89-4.639 3.178-9.998 9.136-13.417z" fill="#0f141b"/>
  </g>
  <g transform="matrix(.61917 0 0 -.61917 19.482 31.45)">
   <path d="m0 0c6.3 13.037 26.596 20.383 41.15 18.346 2.536-0.355 2.454-1.104-0.08-0.871-14.756 1.356-33.862-5.974-39.835-18.515z" fill="#0f141b"/>
  </g>
  <g transform="matrix(.61917 0 0 -.61917 47.718 19.408)">
   <path d="m0 0c-0.616 2.634-2.594 6.199-4.308 8.419-1.034 1.339-0.423 1.832 0.674 0.543 1.896-2.223 3.999-5.684 4.645-8.36 2.372 1.27 4.668 2.899 6.639 4.62 1.46 1.274 1.948 0.728 0.575-0.637-1.799-1.788-4.311-3.645-6.74-5.035-0.93-0.532-1.298-0.346-1.485 0.45" fill="#009234"/>
  </g>
  <g transform="matrix(.61917 0 0 -.61917 8.3889 35.627)">
   <path d="m0 0c-0.334 4.106 0.997 9.815 3.614 11.302 2.779 1.577 14.278-1.372 17.704-7.106 1.871-3.129 1.249-15.744-3.714-20.709l-0.884 0.951c4.401 4.712 4.927 16.351 3.329 19.102-2.668 4.59-13.064 7.985-15.748 6.551-2.04-1.089-3.374-6.255-2.814-10.894z" fill="#0f141b"/>
  </g>
  <g transform="matrix(.61917 0 0 -.61917 65.709 42.962)">
   <path d="m0 0c4.911 0.606 9.032-0.873 10.04-3.194 1.495-3.447-0.909-12.174-10.108-18.902l-3.708-0.888c9.916 6.149 14.152 15.504 12.501 19.309-0.64 1.475-3.858 3.049-8.688 2.345z" fill="#0f141b"/>
  </g>
  <g transform="matrix(.61917 0 0 -.61917 36.298 43.016)">
   <path d="m0 0h7e-3zm-0.638 0.251c2.493 6.984-0.074 11.585-2.901 12.522-2.949 0.975-8.039-1.324-10.352-7.8-2.425-6.795-0.052-11.353 3.096-12.403 3.093-1.032 7.609 0.545 10.157 7.681m1.25-0.484c-2.701-7.567-8.037-9.575-11.781-8.328-4.305 1.436-6.4 7.216-3.989 13.968 2.455 6.878 8.338 9.741 12.061 8.506 4.152-1.375 6.13-7.366 3.709-14.146" fill="#0f141b"/>
  </g>
  <g transform="matrix(.61917 0 0 -.61917 60.318 49.845)">
   <path d="m0 0c1.349 6.332-1.104 11.125-4.124 11.77-3.146 0.669-7.097-2.775-8.427-9.022-1.565-7.349 0.716-11.208 3.789-11.606 2.73-0.362 7.271 1.855 8.762 8.858m-8.928-10.018c-4.106 0.533-6.535 5.551-4.942 13.027 1.42 6.667 5.982 10.803 10.02 9.947 3.588-0.765 6.723-5.942 5.171-13.228-1.576-7.404-6.807-10.192-10.249-9.746" fill="#0f141b"/>
  </g>
  <g transform="matrix(.61917 0 0 -.61917 34.038 53.88)">
   <path d="m0 0c-5.589-1.729-11.194-0.602-14.943 3.236-4.775 4.886-5.917 13.146-2.133 23.107 4.278 11.261 11.87 16.289 19.513 15.653 6.333-0.521 11.733-5.017 13.385-11.166 2.22 4.334 6.232 9.86 8.117 9.779 2.329-0.099 5.05-6.912 4.373-13.998 3.725 3.079 9.91 4.563 14.221 1.978 5.273-3.162 7.488-10.67 5.396-21.604-1.417-7.403-6.196-15.919-14.354-17.136-3.679-0.55-7.746 0.79-9.885 4.248l0.763 1.014c2.082-2.977 5.177-4.473 8.952-3.907 7.621 1.136 11.712 9.258 13.018 16.085 2.019 10.552-0.485 17.492-4.652 19.991-3.474 2.083-8.401 1.592-12.847-1.648-1.46-1.064-1.956-0.888-1.824 0.787 0.53 6.734-1.896 12.5-3.176 12.642-1.001 0.109-4.415-4.01-7.284-9.055-0.798-1.402-1.412-1.236-1.854 0.188-1.787 5.762-6.461 9.887-12.476 10.382-7.322 0.602-14.088-4.829-17.881-14.813-3.329-8.765-2.823-16.96 1.692-21.581 3.43-3.51 8.417-4.302 13.89-2.817z" fill="#0f141b"/>
  </g>
  <g transform="matrix(.61917 0 0 -.61917 50.208 54.129)">
   <path d="m0 0c4.581 10.311 1.358 18.862-4.424 21.261-6.184 2.569-14.438-1.35-18.77-11.1-4.662-10.492-1.205-18.792 4.355-21.017 5.698-2.28 14.095 0.179 18.839 10.856m1.432-0.699c-4.603-10.361-13.853-14.002-20.733-11.251-7.06 2.825-9.775 12.684-5.33 22.691 4.549 10.236 13.846 14.437 20.613 11.629 7.036-2.921 10.011-12.803 5.45-23.069" fill="#0f141b"/>
  </g>
  <g transform="matrix(.61917 0 0 -.61917 48.494 53.424)">
   <path d="m0 0c-3.802 3.705-11.757 7.218-17.178 7.369-0.81 0.022-1.152-0.194-1.502-0.733-3.47-5.36-1.831-14.142 4.089-16.45 5.96-2.325 12.461 0.476 14.772 8.592 0.155 0.545 0.095 0.953-0.181 1.222m0.733 0.702c0.536-0.586 0.73-1.18 0.436-2.209-2.6-9.137-10.1-11.755-16.211-9.374-6.733 2.625-8.39 12.213-4.47 18.038 0.77 1.144 1.088 1.308 2.366 1.283 5.607-0.083 14.115-3.617 17.879-7.738" fill="#0f141b"/>
  </g>
  <g transform="matrix(.61917 0 0 -.61917 29.34 58.308)">
   <path d="m0 0c1.549-2.261 0.867-2.666-0.708-0.526-8.566 11.636-17.962 23.853-28.243 32.015-0.027 0.021-0.05 0.043-0.07 0.069-2.544 3.197-4.387 4.579-4.817 4.462-0.372-0.101-0.669-2.112-0.352-4.424 0.183-1.341-0.511-1.446-0.759-0.116-0.552 2.958-0.291 5.284 0.776 5.618 1.169 0.365 3.444-1.655 5.97-4.817 10.887-7.825 20.255-20.677 28.203-32.281" fill="#0f141b"/>
  </g>
  <g transform="matrix(.61917 0 0 -.61917 7.9003 38.662)">
   <path d="m0 0c-2.03 1.189-4.013 1.749-4.323 1.499-0.21-0.168-0.011-2.231 0.847-4.151 0.709-1.587 0.153-1.782-0.694-0.329-1.063 1.826-1.687 4.608-0.895 5.304 0.716 0.629 3.06-0.091 4.991-1.182z" fill="#0f141b"/>
  </g>
  <g transform="matrix(.61917 0 0 -.61917 5.5331 40.406)">
   <path d="m0 0c-1.532 0.607-2.701 0.566-2.849 0.349-0.275-0.402-0.075-2.063 1.14-4.175 0.853-1.482 0.378-1.692-0.644-0.418-1.451 1.808-2.002 4.36-1.413 5.223 0.423 0.619 1.827 0.693 3.349 0.125z" fill="#0f141b"/>
  </g>
  <g transform="matrix(.61917 0 0 -.61917 4.2651 42.942)">
   <path d="m0 0c-2.508 0.117-3.395-0.355-3.395-0.626 0-0.469 1.047-2.093 3.231-3.805 0.274-0.215 0.313-0.286 0.458-0.585 5.804-12.008 19.727-27.456 30.411-34.015 1.945-1.195 1.649-1.838-0.404-0.765-10.871 5.673-25.91 22.278-30.976 34.476-2.221 1.609-3.813 3.582-3.807 4.768 3e-3 0.842 1.303 1.611 3.988 1.508z" fill="#0f141b"/>
  </g>
  <g transform="matrix(.61917 0 0 -.61917 9.3479 43.628)">
   <path d="M 0,0 C -0.588,2.962 -0.524,6.94 0.289,7.333 1.066,7.708 2.925,6.729 4.43,4.759 5.376,3.52 4.868,3.098 3.838,4.27 2.487,5.805 1.158,6.475 0.824,6.327 0.528,6.195 0.322,3.173 0.757,0.132 1.039,-1.849 0.385,-1.94 0,0" fill="#0f141b"/>
  </g>
  <g transform="matrix(.61917 0 0 -.61917 40.74 48.956)">
   <path d="m0 0c-1.127-2.247-2.634-3.875-4.102-4.687-0.753-0.417-0.937-0.351-1.327 0.229-0.727 1.081-1.125 2.916-0.882 4.61l1.067 0.537c-0.299-1.705-0.022-3.408 0.638-4.446 1.295 0.636 2.483 1.951 3.613 3.996z" fill="#0f141b"/>
  </g>
  <g transform="matrix(.61917 0 0 -.61917 46.19 58.684)">
   <path d="m0 0c2.577 4.987 0.207 10.404-6.592 14.896l3.167-0.973c4.69-3.688 6.468-8.322 5.182-12.261z" fill="#0f141b"/>
  </g>
  <g transform="matrix(.61917 0 0 -.61917 60.617 57.724)">
   <path d="m0 0c6.019 2.004 11.33 3.401 16.231 4.107 2.675 1.896 4.185 2.362 5.027 1.933 0.888-0.454 0.893-2.322 0.235-3.831-0.553-1.264-1.146-1.03-0.715 0.281 0.47 1.426 0.248 2.381-0.031 2.547-0.416 0.247-1.682-0.279-3.835-1.763-0.222-0.153-0.357-0.192-0.642-0.24-4.96-0.818-10.442-2.279-17.891-4.882z" fill="#0f141b"/>
  </g>
  <g transform="matrix(.61917 0 0 -.61917 73.906 55.481)">
   <path d="m0 0c1.458 3e-3 3.216-0.468 3.622-1.093 0.461-0.713-0.3-2.864-1.369-4.084-0.898-1.026-1.381-0.821-0.645 0.416 0.91 1.53 1.205 2.796 1.059 3.059-0.178 0.321-1.319 0.681-2.874 0.766z" fill="#0f141b"/>
  </g>
  <g transform="matrix(.61917 0 0 -.61917 75.469 57.881)">
   <path d="m0 0c1.466-0.701 2.523-1.543 2.555-2.217 0.04-0.835-0.874-2.077-2.04-3.049-1.094-0.911-1.572-0.56-0.527 0.56 1.032 1.105 1.52 2.011 1.463 2.38-0.056 0.374-0.691 0.868-1.908 1.487z" fill="#0f141b"/>
  </g>
  <g transform="matrix(.61917 0 0 -.61917 76.064 60.498)">
   <path d="m0 0c0.912-0.896 1.54-1.855 1.506-2.541-0.042-0.853-1.45-1.8-3.84-2.546-7.939-6.987-27.729-11.726-38.567-11.129l-0.441 1.193c10.645-0.644 29.875 4.206 38.312 10.678 0.187 0.143 0.24 0.17 0.493 0.251 1.868 0.6 2.915 1.357 2.946 1.632 0.041 0.363-0.278 0.968-1.051 1.765z" fill="#0f141b"/>
  </g>
  <g transform="matrix(.61917 0 0 -.61917 70.193 60.887)">
   <path d="m0 0c2.147 0.926 3.837 2.344 3.843 2.833 6e-3 0.435-0.851 1.359-2.447 1.94-1.357 0.494-1.206 1.096 0.196 0.743 1.958-0.495 3.349-1.731 3.349-2.702 0-1.228-2.443-2.812-4.663-3.529-1.551-0.502-1.723 0.091-0.278 0.715" fill="#0f141b"/>
  </g>
  <g transform="matrix(.61917 0 0 -.61917 50.857 71.904)">
   <path d="m0 0c-1.01 3.356-2.646 5.952-4.542 8-1.272 1.373-0.809 1.877 0.586 0.63 1.986-1.776 3.995-4.881 4.987-7.886z" fill="#0f141b"/>
  </g>
  <g transform="matrix(.61917 0 0 -.61917 61.413 76.056)">
   <path d="m0 0c-1.828 5.159-6.104 8.449-11.322 8.221-5.88-0.263-9.806-5.623-11.236-14.32-0.359-2.185-1.077-2.104-0.873 0.117 0.843 9.173 5.684 15.311 12.09 15.597 5.654 0.243 11.079-3.716 12.721-9.64z" fill="#0f141b"/>
  </g>
  <g transform="matrix(.61917 0 0 -.61917 22.979 67.244)">
   <path d="m0 0c-1.437-11.308 0.984-22.565 4.062-30.838 0.15-0.402 0.156-0.489-3e-3 -0.882-3.971-9.806-0.865-19.888 7.037-22.476 6.386-2.09 11.968 0.366 13.949 5.639 0.729 1.944 1.434 1.703 0.835-0.285-1.978-6.571-8.818-8.825-15.299-6.702-8.541 2.797-12.12 13.875-7.691 24.298-3.301 8.043-5.996 20.319-4.085 32.019z" fill="#0f141b"/>
  </g>
  <g transform="matrix(.61917 0 0 -.61917 36.749 102.66)">
   <path d="m0 0c-0.244-1.146-0.906-1.643-1.729-1.798-1.71-0.332-3.234 1.376-3.385 3.492l1.046 0.229c0.152-1.81 1.274-2.79 2.152-2.625 0.738 0.14 1.048 0.646 1.014 1.732z" fill="#0f141b"/>
  </g>
  <g transform="matrix(.61917 0 0 -.61917 39.14 102.03)">
   <path d="m0 0c-0.243-1.195-0.876-1.811-1.691-2.059-1.256-0.385-2.976 0.367-3.401 2.137-0.365 1.52 0.155 1.712 0.725 0.256 0.413-1.056 1.46-1.556 2.344-1.287 0.685 0.209 1.083 0.906 1.112 2.053z" fill="#0f141b"/>
  </g>
  <g transform="matrix(.61917 0 0 -.61917 38.176 100.51)">
   <path d="m0 0c-0.032 1.47 0.591 1.513 0.767 0.054 0.222-1.853 1.368-2.575 2.404-2.339 1.124 0.258 1.593 1.263 1.005 3.737-0.516 2.171-0.94 5.185-1.046 7.646-0.122 2.796-1.026 3.353-2.891 3.335-3.298-0.076-6.571 0.446-8.462 1.316-1.662 0.765-1.372 1.443 0.332 0.777 1.87-0.73 4.963-1.051 8.106-0.99 2.55 0.071 3.877-1.289 4.012-4.394 0.105-2.416 0.478-5.322 0.984-7.452 0.825-3.469-0.232-4.713-1.805-5.075-1.742-0.398-3.354 1.007-3.406 3.385" fill="#0f141b"/>
  </g>
  <g transform="matrix(.61917 0 0 -.61917 53.444 85.298)">
   <path d="m0 0c-5.71-0.998-17.924-8.42-21.843-12.496l-0.994 0.763c3.922 4.132 16.252 11.694 22.017 12.8z" fill="#0f141b"/>
  </g>
  <g transform="matrix(.61917 0 0 -.61917 65.043 77.483)">
   <path d="m0 0c0.681 0.438 1.56 0.595 2.34 0.253 1.238-0.539 1.95-2.003 1.04-5.268-0.79-2.837-2.874-7.408-5.74-11.134-3.257-4.234-9.031-4.394-12.136-1.727-2.695 2.316-5.341 5.533-7.226 8.621-1.104 1.811-0.417 2.254 0.752 0.482 1.937-2.935 4.657-5.968 7.263-8.244 2.694-2.353 7.853-1.882 10.472 1.52 2.802 3.644 4.808 8.009 5.579 10.774 0.582 2.087 0.37 3.502-0.473 3.889-0.576 0.265-1.188 0.167-1.749-0.308z" fill="#0f141b"/>
  </g>
  <g transform="matrix(.61917 0 0 -.61917 62.742 76.537)">
   <path d="m0 0c0.829 0.551 2.144 0.63 3.014 0.184 1.72-0.881 1.73-3.4 0.376-5.429-0.857-1.283-1.357-1.097-0.68 0.357 0.955 2.053 0.839 3.355-0.242 3.988-0.639 0.373-1.406 0.361-2.065 0.011z" fill="#0f141b"/>
  </g>
  <g transform="matrix(.61917 0 0 -.61917 58.755 79.751)">
   <path d="m0 0c1.366 4.133 3.097 7.207 5.707 6.403 1.943-0.598 2.113-3.222 0.741-5.469-0.934-1.529-1.426-1.288-0.683 0.349 0.955 2.11 0.625 3.653-0.436 3.98-1.482 0.459-2.767-0.95-4.505-5.573-0.752-1.999-1.509-1.76-0.824 0.31" fill="#0f141b"/>
  </g>
  <g transform="matrix(.61917 0 0 -.61917 47.801 87.129)">
   <path d="m0 0c5.876-6.506 9.688-14.463 10.718-22.274 1.796-13.62-3.905-25.114-15.341-33.016-7.642-5.279-15.457-4.941-17.731 0.105-2.396 5.314 0.067 10.247 10.005 14.044 7.413 2.834 11.411 9.024 10.7 17.92-0.485 6.071-2.896 11.733-7.398 17.555l0.984 0.702c4.59-5.94 7.073-11.974 7.571-18.195 0.726-9.103-3.196-15.932-11.447-19.087-10.565-4.038-10.952-8.837-9.311-12.476 1.845-4.095 8.427-4.71 15.902 0.456 11.345 7.837 16.575 19.029 14.879 31.88-1.017 7.722-4.742 15.391-10.598 21.815z" fill="#0f141b"/>
  </g>
  <g transform="matrix(.61917 0 0 -.61917 49.575 14.029)">
   <path d="m0 0c1.864 2.856 4.644 5.444 7.346 7.025 5.065 2.965 11.708 3.509 12.939 2.177 1.093-1.179 0.54-6.885-1.301-11.361-2.138-5.198-6.402-10.754-13.828-11.431 0.814-0.885 2.598-2.343 4.535-3.618 12.531-8.25 18.58-20.544 17.083-35.023-1.698-16.448-13.694-28.333-32.673-29.41-2.651-0.151-2.589 0.626-0.053 0.885 18.45 1.887 29.36 12.566 31.027 28.697 1.413 13.679-4.342 25.979-16.148 33.836-1.99 1.324-3.719 2.817-4.851 4.035-1.153 1.243-1.064 1.506 0.837 1.713 7.274 0.792 11.049 6.875 12.703 10.896 1.943 4.721 2.277 9.305 1.676 9.954-0.465 0.502-5.74 0.592-11.219-2.583-2.918-1.692-5.898-4.29-8.077-7.76z" fill="#0f141b"/>
  </g>
  <g transform="matrix(.61917 0 0 -.61917 48.994 54.241)">
   <path d="m0 0c-0.508-0.48-1.919-1.129-2.366-1.193-0.802-0.116-0.954 7e-3 -1.19 0.77-0.451 1.467-0.549 3.173-0.441 4.928l0.994-0.646c-0.101-1.574 0.012-2.984 0.485-3.989 0.881 0.158 1.728 0.666 2.292 1.287z" fill="#0f141b"/>
  </g>
  <g transform="matrix(.61917 0 0 -.61917 57.258 88.859)">
   <path d="m0 0c-1.423 2.368-0.534 6.748 2.417 14.709l0.824-0.31c-2.802-8.074-3.797-12.793-1.712-14.861z" fill="#0f141b"/>
  </g>
  <g transform="matrix(.61917 0 0 -.61917 39.337 92.614)">
   <path d="m0 0c0.271-2.571 0.212-5.513-0.54-7.87l-0.833 0.29c0.72 2.2 0.727 5.221 0.421 7.76z" fill="#0f141b"/>
  </g>
 </g>
</svg>
