<?xml version="1.0" encoding="UTF-8" standalone="no"?>
<!-- Created with Inkscape (http://www.inkscape.org/) -->

<svg
   version="1.1"
   viewBox="0 0 171.19 254.11"
   id="svg6410"
   sodipodi:docname="1scor2.svg"
   inkscape:version="1.2.2 (b0a8486, 2022-12-01)"
   xmlns:inkscape="http://www.inkscape.org/namespaces/inkscape"
   xmlns:sodipodi="http://sodipodi.sourceforge.net/DTD/sodipodi-0.dtd"
   xmlns="http://www.w3.org/2000/svg"
   xmlns:svg="http://www.w3.org/2000/svg">
  <defs
     id="defs6414" />
  <sodipodi:namedview
     id="namedview6412"
     pagecolor="#505050"
     bordercolor="#eeeeee"
     borderopacity="1"
     inkscape:showpageshadow="0"
     inkscape:pageopacity="0"
     inkscape:pagecheckerboard="0"
     inkscape:deskcolor="#505050"
     showgrid="false"
     inkscape:zoom="0.65671245"
     inkscape:cx="-53.295777"
     inkscape:cy="149.22817"
     inkscape:window-width="1309"
     inkscape:window-height="430"
     inkscape:window-x="104"
     inkscape:window-y="265"
     inkscape:window-maximized="0"
     inkscape:current-layer="svg6410" />
  <g
     id="g22430"
     transform="translate(-19.473812,23.508918)">
    <path
       d="m 92.42529,161.05789 c -3.5513,-0.71187 -6.3908,1.2862 -7.4101,4.4816 -0.87366,2.7585 -0.0917,5.9781 3.8911,7.3614"
       fill="#ffffff"
       id="path6248" />
    <path
       d="m 179.41529,139.28789 c -9.9745,-2.532 -25.417,0.66335 -42.09,7.4019 1.0273,-1.0921 1.9583,-2.3217 2.6536,-3.705 12.223,-3.1064 23.192,-9.6103 27.326,-21.623 6.7871,-2.4592 10.985,-8.2998 13.34,-14.407 3.341,-8.663903 2.4754,-17.627003 1.1076,-18.484003 -1.0755,-0.67144 -6.2127,2.0143 -9.9178,6.4473 0.64665,-7.1349 -0.23389,-12.951 -1.7703,-13.178 -1.0846,-0.16991 -4.4169,4.2955 -5.6222,8.8984 -5.9217,-11.544 -17.045,-18.953999 -30.384,-20.449999 4.4979,-5.8972 8.0976,-15.864 9.3434,-24.115 2.0064,-13.299 -1.0112,-19.237 -2.4591,-19.374 -1.1809,-0.1213 -4.8052,5.5656 -6.9733,14.189 -0.76818,-11.099 -3.7212,-22.416 -8.6961,-32.0750003 -11.649,-22.6019997 -27.836,-32.1399997 -31.8,-31.3789997 -5.4282,1.0274 -9.8045,35.812 3.2195,60.971 -9.1655,-10.346 -19.213,-17.837 -28.839,-23.128 -22.618,-12.434 -43.012,-12.846 -44.711,-9.9824 -2.3864,4.0204997 5.5169,31.128 29.494,50.082 12.126,9.5861 32.633,19.334 51.781,21.048999 -12.077,7.0136 -19.528,18.938 -19.884,32.504003 -5.5981,-6.0995 -13.202,-7.9034 -14.359,-6.9812 -1.2222,0.98692 -0.16052,7.5799 3.2681,11.714 -8.4131,-3.6484 -17.902,-3.163 -18.549,-1.9577 -1.0112,1.8687 4.0771,10.735 13.162,16.414 6.5685,4.1014 14.666,5.0559 21.939,2.2165 2.9769,4.7809 7.1189,8.4778 12.32,11.01 -0.9952,0.26696 -1.9904,0.6067 -2.9769,1.0112 -16.462,-6.9731 -30.667,-6.6576 -39.477,-2.9365 -6.2693,2.6372 -8.7367,8.2594 -6.7788,14.488 1.901,6.059 7.5312,8.8337 15.944,6.0914 10.913,-3.5675 21.38,-5.606 31.767,-6.0914 -11.835,5.509 -14.424,16.187 -11.196,23.079 -5.1936,6.7305 -14.48,9.9582 -21.251,9.2139 -0.20638,-4.9589 -4.9104,-8.1218 -13.024,-5.0721 -12.45,4.6919 -27.019,15.532 -32.48,26.25 -4.3683,8.5506 -2.807,16.931 3.511,20.515 7.9034,4.4816 18.08,1.0193 26.558,-14.78 3.8829,-7.2482 8.6314,-14.699 12.903,-19.471 8.9632,1.812 21.655,-1.1406 30.271,-10.824 5.8001,2.1437 14.941,2.0871 22.432,-1.626 10.063,-4.9912 17.586,1.0031 12.32,17.36 -2.8556,8.858 -2.1601,12.506 1.3759,15.144 3.6563,2.7181 8.6154,1.5694 15.321,-4.3117 7.5232,-6.6091 16.818,-12.628 25.603,-16.988 12.466,-6.1723 14.771,-15.864 9.9096,-22.804 -5.4523,-7.7902 -15.515,-7.7659 -26.897,-1.5451 -6.9327,3.7859 -13.485,11.366 -17.295,17.554 0.9631,-10.694 -5.242,-15.459 -12.976,-12.264 3.414,-4.3441 5.4605,-12.474 5.4605,-18.177 9.5294,-1.6907 21.906,-0.62289 37.907,4.0205 9.9499,2.8799 19.326,-0.76041 20.394,-7.9682 0.7613,-5.1935 -2.0707,-9.853 -10.225,-11.924"
       fill="#ffffff"
       id="path6250" />
    <path
       d="m 119.37529,151.83789 c -0.70398,-3.8991 -2.1119,-7.4181 -4.3683,-9.2625 -3.5433,-2.888 -9.8206,-2.5967 -15.677,-0.23458 3.5674,1.5127 7.24,3.3571 10.994,5.5979 2.8313,2.8313 5.0398,4.2955 7.5234,5.153 1.1236,0.39638 1.8207,0.34786 1.5295,-1.2539"
       fill="#e95520"
       id="path6252" />
    <path
       d="m 140.34529,142.79789 c -2.3782,4.1742 -7.6688,8.2513 -11.528,9.675 -1.7542,0.64715 -2.734,0.22655 -2.2174,-1.4561 0.64665,-2.1437 1.8207,-4.3522 3.1308,-6.2855 2.8636,-0.29122 6.7871,-0.88176 10.613,-1.9334"
       fill="#e95520"
       id="path6254" />
    <path
       d="m 144.48529,108.71789 c -0.18345,-2.9122 -0.84844,-5.8972 -1.9331,-8.914603 -0.58933,-1.6422 -1.6189,-2.1599 -3.2278,-2.3783 -7.1836,-0.94647 -16.325,0.59054 -21.866,4.093303 -1.1901,0.75231 -1.3827,1.7554 -1.2062,3.349 0.29122,2.7909 0.80946,5.8164 1.3827,8.494 0.33937,1.6179 1.408,1.8848 3.438,1.1002 6.4312,-2.5078 13.324,-3.6807 21.259,-3.8102 1.6579,-0.0243 2.2495,-0.6067 2.1509,-1.9334"
       fill="#ffe792"
       id="path6256" />
    <path
       d="m 127.55529,112.76789 c 2.6533,2.0224 6.059,3.0497 6.9893,2.888 0.93099,-0.15364 3.0175,-2.4835 4.2307,-5.4442 -3.9962,0.55008 -7.7091,1.3833 -11.22,2.5563"
       fill="#f89b70"
       id="path6258"
       style="fill:#f4ae7d;fill-opacity:1" />
    <path
       d="m 115.60529,129.21789 c 0.0917,-2.0709 6.7628,-6.3907 15.726,-7.6122 8.9873,-1.2296 15.985,0.29932 17.15,2.168 1.901,3.0255 -3.7859,13.437 -14.593,14.48 -8.8823,0.85748 -18.371,-5.8972 -18.282,-9.036"
       fill="#89260e"
       id="path6260"
       style="fill:#923000;fill-opacity:1" />
    <path
       d="m 131.32529,121.60789 c -2.1922,0.29932 -4.239,0.78467 -6.0916,1.3752 3.155,2.4349 7.2402,4.2712 9.6832,4.1823 2.2495,-0.0727 5.2986,-2.71 7.0379,-5.7435 -2.8962,-0.35594 -6.5525,-0.36403 -10.63,0.18597"
       fill="#ffffff"
       id="path6262" />
    <path
       d="m 118.72529,133.45789 c 3.5107,2.7585 9.4484,5.3472 15.16,4.7971 3.8668,-0.38022 7.0622,-1.9415 9.497,-3.9558 -7.96,-8.0248 -18.751,-7.1673 -24.657,-0.84131"
       fill="#f46899"
       id="path6264"
       style="fill:#ed8599;fill-opacity:1" />
    <path
       d="m 52.63229,55.371888 c 1.2772,1.0112 2.6776,2.0305 4.1338,3.0336 9.0442,-10.848 20.831,-18.387 35.456,-24.754 -7.9116,-7.9277 -16.284,-13.93 -24.374,-18.379 -22.618,-12.434 -43.02,-12.846 -44.711,-9.9824 -2.3864,4.0204997 5.5169,31.128 29.494,50.082"
       fill="#f2984f"
       id="path6266" />
    <path
       d="m 131.77529,26.710888 c -1.4882,-6.2694 -3.6483,-12.361 -6.5121,-17.9020003 -11.641,-22.6019997 -27.828,-32.1399997 -31.792,-31.3789997 -5.0884,0.96265 -9.2544,31.5649997 0.9631,56.109 8.5587,-4.3198 26.906,-7.3938 37.341,-6.8275"
       fill="#f2984f"
       id="path6268" />
    <path
       d="m 86.04529,27.911888 c -6.0187,-5.1773 -12.199,-9.3353 -18.201,-12.636 -22.618,-12.442 -43.012,-12.846 -44.711,-9.9905 -2.2885,3.8748997 4.9508,29.106 26.849,47.89 8.1542,-10.791 20.984,-19.01 36.063,-25.263"
       fill="#e95520"
       id="path6270" />
    <path
       d="m 67.69529,36.854888 c -1.6671,1.9334 8.2026,14.351 17.19,21.283 9.4324,7.2482 24.414,15.03 25.919,13.113 1.0686,-1.359 -5.3796,-10.444 -17.133,-20.717 -11.172,-9.7559 -24.22,-15.71 -25.975,-13.679"
       fill="#ffe792"
       id="path6272" />
    <path
       d="m 129.87529,19.964888 c -1.2612,-3.8749 -2.7989,-7.6284 -4.6109,-11.1550003 -11.649,-22.6019997 -27.836,-32.1399997 -31.8,-31.3789997 -4.5626,0.87367 -8.3808,25.611 -1.7244,48.432 12.304,-4.5058 25.895,-7.1754 38.134,-5.8972"
       fill="#e95520"
       id="path6274" />
    <path
       d="m 112.88529,20.540888 c -1.5364,0.34784 -2.4511,11.625 0.81634,23.411 4.0528,14.634 9.7076,25.021 11.228,24.657 1.5776,-0.37212 2.2816,-15.354 -1.1901,-26.663 -4.0691,-13.267 -9.4404,-21.728 -10.856,-21.405"
       fill="#ffe792"
       id="path6276" />
    <path
       d="m 183.04529,169.58789 c -5.2257,-7.4585 -14.682,-7.7336 -25.474,-2.2732 -1.0273,3.4299 -0.29122,7.1996 2.5077,10.435 4.522,5.2339 9.1655,9.667 14.917,13.639 10.824,-6.1723 12.652,-15.233 8.049,-21.801"
       fill="#e95520"
       id="path6278" />
    <path
       d="m 24.04429,205.23789 c -5.1127,8.2594 -5.145,18.436 2.2974,22.659 6.2613,3.5432 13.938,2.1112 21.081,-6.4878 -4.1984,-8.8904 -15.208,-16.26 -23.378,-16.171"
       fill="#e95520"
       id="path6280" />
    <path
       d="m 160.07529,177.74789 c -0.29122,-0.33167 -0.54117,-0.67141 -0.79341,-1.0193 -3.7536,2.0547 -7.4667,4.9427 -12.183,8.9712 -11.503,9.8287 -17.651,23.468 -14.221,28.2 2.4591,2.1275 7.1753,2.2651 15.961,-5.7112 3.4784,-3.163 16.446,-12.304 24.285,-15.88 0.67875,-0.30741 1.2933,-0.60671 1.8918,-0.91412 -5.7499,-3.98 -10.393,-8.4131 -14.915,-13.647"
       fill="#dbdcdc"
       id="path6282" />
    <path
       d="m 103.37529,72.735888 c -14.092,-2.4026 -29.106,-9.133 -42.486,-18.849 -1.408,1.4157 -2.7666,2.888 -4.0608,4.4411 14.715,9.8854 31.646,16.147 48.076,18.686999 2.0638,-1.731099 1.5364,-3.761599 -1.5295,-4.279299"
       fill="#dbdcdc"
       id="path6284" />
    <path
       d="m 54.00029,48.467888 c -13.857,-11.681 -25.247,-26.639 -30.861,-43.182 -2.427,7.0945 9.4241,33.377 26.825,47.971 v -0.08095 c 1.2222,-1.626 2.5724,-3.1954 4.0122,-4.7081"
       fill="#ca491a"
       id="path6286" />
    <path
       d="m 60.89229,53.886888 c -2.3541,-1.715 -4.6515,-3.527 -6.9004,-5.42 -1.4309,1.5208 -2.7829,3.0821 -4.0124,4.7081 v 0.08094 c 0.88284,0.72806 1.7634,1.448 2.6776,2.1195 1.3667,1.0274 2.7746,1.9981 4.1984,2.9527 1.2933,-1.5532 2.6533,-3.0255 4.061,-4.4411"
       fill="#d18344"
       id="path6288" />
    <path
       d="m 96.84529,38.615888 c 1.0273,1.0031 2.3378,2.257 3.1872,3.3248 -1.3759,-2.9041 -2.5401,-6.0509 -3.527,-9.3515 -0.74525,0.30741 -1.4401,0.62289 -2.0707,0.94647 0.72691,1.7392 1.5364,3.4461 2.4107,5.0802"
       fill="#dbdcdc"
       id="path6290" />
    <path
       d="m 94.54529,24.870888 c -3.8831,-18.3960003 -3.244,-38.91 -1.5043,-47.024 -5.4442,4.9589 -7.3129,27.852 -1.3346,48.044 v -0.03233 c 0.93099,-0.34784 1.8689,-0.66334 2.807,-0.98692"
       fill="#ca491a"
       id="path6292" />
    <path
       d="m 91.74529,25.857888 v 0.03233 c 0.77735,2.6048 1.6831,5.1692 2.7262,7.6446 0.63977,-0.32358 1.3346,-0.63906 2.0706,-0.94647 -0.75213,-2.4997 -1.408,-5.0883 -1.9583,-7.7174 -0.94705,0.32358 -1.8849,0.63906 -2.807,0.98692"
       fill="#d18344"
       id="path6294" />
    <path
       d="m 142.97529,30.874888 c 0.40359,10.193 -4.4089,27.593 -10.266,36.508 -1.0686,1.6422 -0.71086,3.2358 1.5937,3.6645 7.4505,-13.477 11.972,-29.211 8.672,-40.172"
       id="path6296"
       style="fill:#dbdcdc" />
    <path
       d="m 91.96529,128.77789 c -1.0594,-1.5127 -1.5455,-1.5127 -3.0741,-1.0354 -13.93,4.336 -27.456,-4.886 -33.725,-16.017 -0.13759,9.9177 18.8,24.98 34.809,18.606 2.6776,4.433 7.7658,9.0602 12.045,11.075 2.4834,-0.7685 5.048,-1.1811 7.3211,-1.0112 -7.2078,-2.1518 -13.421,-5.97 -17.376,-11.617"
       id="path6298"
       style="fill:#dbdcdc" />
    <path
       d="m 169.86529,81.887887 c 0.84156,3.0012 0.84156,10.71 -0.11466,15.847 0.67188,-1.084 1.3185,-1.9738 2.0225,-2.8879 1.0021,-9.7478 -0.80028,-13.121 -1.917,-12.959"
       id="path6300"
       style="fill:#dbdcdc" />
    <path
       d="m 182.38529,92.187887 c -0.18345,8.663803 -6.0347,22.804003 -15.758,26.744003 -1.1007,0.43684 -1.3919,0.79277 -1.674,1.6503 -6.0508,18.007 -34.17,24.535 -51.991,20.733 3.2438,1.5451 5.8082,5.4604 6.4149,10.929 1.878,-0.0404 4.9184,0.27505 7.4018,0.86557 -0.85761,-1.8768 1.1488,-5.2986 2.6293,-8.3241 14.577,-0.88176 32.665,-7.9601 37.883,-23.403 9.5374,-3.8749 17.287,-16.964 15.095,-29.195003"
       id="path6302"
       style="fill:#dbdcdc" />
    <path
       d="m 106.25529,145.58789 c 0.49301,2.7342 -1.1557,4.7243 -4.8214,4.8213 -12.717,0.32358 -25.053,1.7473 -32.673,4.2551 -8.6071,2.8313 -14.472,1.7716 -15.888,-3.4461 -0.11466,7.9439 7.1916,11.916 17.15,8.5182 10.848,-3.6969 28.653,-6.6334 38.19,-5.9458 2.183,-0.76041 5.8891,-1.5532 8.2108,-1.3267 -1.8528,-0.99501 -4.7566,-3.0578 -5.9944,-4.4573 -1.4401,-0.84131 -2.9526,-1.626 -4.1741,-2.4188"
       id="path6304"
       style="fill:#dbdcdc" />
    <path
       d="m 126.78529,153.10789 c 1.8689,0.51774 3.5433,1.0678 4.8377,1.8606 8.8094,-1.3186 19.843,-0.97883 34.938,3.5351 12.183,3.6403 22.133,0.87367 23.176,-8.7448 -3.3328,6.1561 -12.175,7.2239 -20.992,4.5139 -7.3613,-2.2651 -19.083,-3.6322 -26.954,-3.9719 -2.5483,-0.10525 -3.7941,-1.4318 -2.4997,-4.5139 l -1.3667,0.26696 c -2.0867,2.7666 -7.7577,6.3745 -11.139,7.054"
       id="path6306"
       style="fill:#dbdcdc" />
    <path
       d="m 127.44529,148.72789 c 1.5295,-0.34786 3.333,0.57435 4.255,2.257 2.613,-1.5694 6.4475,-4.1742 8.4051,-7.9762 -3.2197,0.84131 -7.5798,1.4561 -10.694,1.7797 -0.6627,1.2134 -1.4653,2.8637 -1.9652,3.9396"
       fill="#ca491a"
       id="path6310" />
    <path
       d="m 84.91529,165.88789 c 0.98603,0.6957 2.4268,1.1487 3.8829,1.2215 -0.44486,1.4723 -0.67876,3.3814 -0.52512,5.2501 -2.5804,-0.5339 -4.0528,-3.3005 -3.3571,-6.4716"
       id="path6312"
       style="fill:#dbdcdc" />
    <path
       d="m 89.61529,165.28789 c 2.0959,13.307 23.136,18.112 39.21,1.804 -0.63059,2.257 -1.5134,4.1984 -2.6373,6.0833 2.8152,-1.1972 7.4991,-1.1649 10.266,1.6422 -3.8102,-0.25887 -8.0735,2.0952 -8.9472,5.1935 -2.6451,-1.2539 -6.0347,-0.55819 -9.5454,1.448 -5.2826,3.0174 -16.438,3.7697 -21.963,1.3186 -2.7425,3.0174 -7.3615,6.5848 -10.484,8.0976 3.0092,-3.5756 2.8879,-8.7852 1.3185,-10.864 0.88284,-0.93838 1.9422,-2.0062 2.6533,-3.1306 -1.3827,-3.4299 -1.7152,-8.6234 0.13759,-11.592"
       id="path6314"
       style="fill:#dbdcdc" />
    <path
       d="m 65.62429,193.56789 c -1.0112,-0.17794 -2.0133,-0.43683 -3.0819,-0.75232 -4.9184,-2.9122 -13.429,0.97074 -21.081,13.243 -1.1076,1.7716 -2.1853,3.3005 -3.2278,4.6353 3.8829,2.8718 7.2643,6.6334 9.1895,10.71 0,0.12841 -0.0917,0.25086 -0.0917,0.37216 1.7382,-2.0466 3.4057,-4.5058 4.9508,-7.4342 3.5027,-6.6253 8.9146,-15.249 13.307,-20.774"
       id="path6316"
       style="fill:#dbdcdc" />
    <path
       d="m 38.23329,210.68789 c -9.3354,11.916 -16.025,7.1107 -17.109,2.2004 -1.9422,5.5898 0.0917,12.749 5.7114,15.378 6.3016,2.9446 13.938,1.2619 20.531,-6.4959 0,-0.12841 0.0917,-0.2426 0.0917,-0.37216 -1.9331,-4.0852 -5.3147,-7.8468 -9.1895,-10.71"
       fill="#ca491a"
       id="path6320" />
    <path
       d="m 169.36529,173.22789 c -3.8022,0.68761 -6.949,1.812 -10.079,3.5028 0.24307,0.34786 0.49301,0.68761 0.79341,1.0193 4.5139,5.2339 9.1572,9.667 14.909,13.639 1.7382,-0.89792 3.1548,-1.8606 4.6999,-3.2196 5.7194,-6.0671 0,-16.802 -10.346,-14.941"
       fill="#ca491a"
       id="path6322" />
    <path
       d="m 149.89529,189.84789 c -2.1188,1.715 -6.6578,5.6546 -8.672,7.7012 -1.0342,1.0516 -1.0181,1.8282 0.24994,2.7181 1.8849,1.3267 5.3553,4.1418 7.3615,5.7597 1.213,0.97074 1.8207,0.93838 2.9929,-0.0727 2.0867,-1.7959 6.3585,-4.878 8.5427,-6.3664 1.1488,-0.7766 1.1167,-1.6422 0,-2.7262 -2.0225,-1.9415 -5.4119,-5.3876 -7.5798,-6.9003 -1.408,-0.98692 -1.9652,-0.85748 -2.8799,-0.11328"
       fill="#d1b966"
       id="path6324"
       style="fill:#dbc77f;fill-opacity:1" />
    <path
       d="m 123.21529,136.16789 c 0.97915,-4.1984 8.3078,-6.601 16.147,-5.1207 -7.5555,-4.2146 -15.297,-2.7019 -20.636,2.4107 1.5455,1.0597 2.613,1.9415 4.4896,2.71"
       fill="#ca567d"
       id="path6326"
       style="fill:#ce7486;fill-opacity:1" />
    <path
       d="m 114.09529,115.03789 c 0.0917,5.0478 -3.7536,7.7416 -7.3615,7.8064 -3.9801,0.0729 -6.9327,-3.4138 -7.0054,-7.863 -0.0917,-4.8133 3.3408,-8.1866 7.0054,-8.405 3.519,-0.20225 7.2725,3.4219 7.3615,8.4616"
       fill="#0f141b"
       id="path6328" />
    <path
       d="m 109.48529,110.88789 c -0.18345,1.8606 -1.69,2.8313 -3.1468,2.6695 -1.5203,-0.16189 -2.6776,-1.5694 -2.4836,-3.3086 0.18345,-1.7797 1.5455,-2.8232 3.1308,-2.71 1.6418,0.11327 2.6694,1.7069 2.4997,3.349"
       fill="#ffffff"
       id="path6330" />
    <path
       d="m 160.18529,102.60789 c 1.8368,4.3845 0.53429,8.7043 -2.7423,10.071 -3.2195,1.3429 -7.2966,-0.81705 -9.1249,-5.1773 -1.6831,-4.0528 -0.33249,-8.979303 2.6857,-10.225003 2.8719,-1.1811 7.3048,0.81703 9.1815,5.331003"
       fill="#0f141b"
       id="path6332" />
    <path
       d="m 155.82529,100.01789 c 0.58244,1.6664 -0.16052,3.4947 -1.5616,3.9315 -1.2772,0.39638 -3.0982,-0.22656 -3.7049,-1.9658 -0.61455,-1.7311 0.20638,-3.575603 1.5616,-3.996203 1.4492,-0.44493 3.0821,0.25886 3.7052,2.030503"
       fill="#ffffff"
       id="path6334" />
    <path
       d="m 139.57529,110.07789 c -1.2452,3.3733 -3.9235,6.0105 -5.331,6.2451 -1.5364,0.25077 -4.8618,-1.0516 -7.5475,-3.3005 l 1.635,-0.56625 c 2.4348,1.7554 4.8861,2.6614 5.6868,2.5239 0.71086,-0.11328 2.7343,-1.8606 3.9801,-4.7324 z"
       id="path6336"
       style="fill:#0f141b" />
    <path
       d="m 116.38529,129.24789 c -0.0917,2.3055 8.6718,8.9874 17.417,8.1461 10.913,-1.0597 15.249,-11.204 14.059,-13.251 -0.67187,-1.1325 -6.6658,-3.0902 -16.454,-1.7554 -10.338,1.4076 -14.998,5.962 -15.022,6.8599 m -1.5616,-0.0566 c 0.0917,-2.3298 6.779,-7.0621 16.389,-8.3726 9.1086,-1.2377 16.502,0.32357 17.894,2.5401 2.2174,3.5756 -3.713,14.626 -15.168,15.734 -9.2382,0.89793 -19.237,-5.8892 -19.115,-9.9015"
       id="path6338"
       style="fill:#0f141b" />
    <path
       d="m 142.69529,121.45789 c -1.7542,3.4623 -5.1127,6.3584 -7.758,6.4554 -2.4348,0.081 -6.6089,-1.448 -10.524,-4.7081 l 1.6029,-0.50155 c 3.1874,2.3055 6.6415,3.7859 8.8823,3.6969 1.8597,-0.0566 4.6272,-2.3055 6.3259,-5.0559 z"
       id="path6340"
       style="fill:#0f141b" />
    <path
       d="m 142.89529,134.77789 c -7.9843,-7.8225 -17.821,-6.5687 -23.605,-0.90602 l -1.0686,-0.86557 c 6.3583,-6.8275 17.659,-7.3129 25.708,0.88983 z"
       id="path6342"
       style="fill:#0f141b" />
    <path
       d="m 134.20529,121.27789 c -0.13758,-1.5532 -0.44485,-3.5432 -0.83239,-5.5737 l 1.4401,-0.30739 c 0.45403,2.1599 0.74526,4.0852 0.87367,5.8002 z"
       id="path6344"
       style="fill:#0f141b" />
    <path
       d="m 128.50529,144.32789 c 11.843,-1.4561 31.452,-5.8083 37.875,-22.893 0.24307,-0.66334 0.32332,-0.73614 1.0365,-1.0274 5.8568,-2.346 9.9825,-7.7336 12.328,-13.825 3.535,-9.213903 2.3055,-16.972003 1.5868,-17.360003 -0.9631,-0.52582 -8.1058,3.6888 -11.35,9.4809 -1.3438,2.410703 -2.3055,1.901003 -1.0755,-0.55818 3.4057,-6.7143 11.341,-11.568 13.283,-10.355 2.0064,1.2539 2.621,10.961 -0.64665,19.455003 -2.5726,6.6496 -6.9166,12.482 -13.461,14.949 -6.035,17.805 -27.294,22.392 -39.477,23.395 -3.1954,0.25886 -3.2844,-0.87367 -0.0917,-1.262"
       id="path6346"
       style="fill:#0f141b" />
    <path
       d="m 133.72529,38.687888 c 1.8918,-7.2077 5.5818,-12.976 7.2482,-12.822 2.6937,0.25887 5.161,8.2432 3.341,20.361 -1.2933,8.5425 -4.5626,17.506 -8.6396,23.241 13.865,1.9091 25.522,10.556999 30.481,23.353999 1.0754,2.7747 0.0917,3.1792 -1.1236,0.55009 -5.5252,-11.948 -16.082,-19.656999 -29.51,-22.027999 -2.5644,-0.45302 -2.7829,-0.89793 -1.4653,-2.8151 3.8751,-5.5979 7.1026,-14.343 8.3404,-22.562 1.9491,-12.943 -0.68793,-18.436 -1.5134,-18.493 -0.76819,-0.04861 -4.8618,6.6334 -6.779,16.284 z"
       id="path6348"
       style="fill:#0f141b" />
    <path
       d="m 84.02029,108.17789 c 0.24995,-12.636003 7.0136,-24.519003 17.676,-31.161003 -17.222,-1.642199 -37.422,-10.928999 -49.872,-20.773999 -23.864,-18.865 -32.293,-46.7650003 -29.478,-51.393 2.3704,-3.891 24.859,-2.2489 46.013,9.3919 11.366,6.237 21.227,14.513 29.907,25.037 2.8395,3.438 2.1349,4.0205 -0.931,0.80086 -9.4808,-10.031 -18.873,-17.587 -30.125,-23.767 -23.88,-13.129 -42.381,-12.159 -43.335,-10.565 -1.8849,3.1710997 5.3067,29.559 29.567,48.731 10.913,8.6477 30.554,18.573 49.475,20.814 3.0416,0.35593 3.2115,1.067799 0.6306,2.815099 -11.236,7.5718 -17.635,18.832 -17.967,31.792003 z"
       id="path6350"
       style="fill:#0f141b" />
    <path
       d="m 101.28529,141.73789 c -4.7891,-2.3702 -8.7853,-5.4928 -11.706,-10.096 -7.1026,2.6372 -15.233,1.5936 -22.084,-2.6857 -9.8045,-6.1318 -14.602,-15.281 -13.315,-17.676 1.1649,-2.1761 14.351,-1.7392 22.521,3.3248 2.3298,1.4561 1.8046,2.4268 -0.5985,1.0921 -8.9146,-4.9427 -20.03,-4.3198 -20.507,-3.5432 -0.47008,0.74425 2.9689,8.947 12.919,15.176 6.2289,3.883 14.003,4.7485 20.668,2.4107 1.0112,-0.35593 1.2222,-0.29122 1.8207,0.63099 2.9689,4.6029 7.4018,8.3322 12.458,10.638 z"
       id="path6352"
       style="fill:#0f141b" />
    <path
       d="m 163.95529,89.747887 c 1.44,-4.878 4.6352,-9.0602 6.2046,-8.858 2.2816,0.30741 3.0658,6.8356 2.4107,13.129 l -1.5203,1.8201 c 0.82551,-7.7578 -0.22931,-13.267 -1.0846,-13.299 -0.6948,-0.0243 -4.0365,4.4169 -5.064,9.0198 z"
       id="path6354"
       style="fill:#0f141b" />
    <path
       d="m 72.10429,113.19789 c -3.1064,-3.9315 -4.1094,-10.597 -2.443,-11.948 1.9331,-1.553203 12.757,1.8363 17.999,10.775 1.5685,2.6857 0.71315,3.2601 -1.0112,0.67144 -5.7355,-8.583 -15.241,-10.767 -15.977,-10.12 -0.65583,0.57435 0,7.143 4.0691,11.463 z"
       id="path6356"
       style="fill:#0f141b" />
    <path
       d="m 94.92529,36.807888 c -12.11,-23.735 -8.4051,-58.705 -1.6006,-60.242 4.4896,-1.0193 20.992,8.6153 32.924,31.7669997 7.4018,14.3670003 10.29,32.6090003 7.8307,48.6580003 -0.56639,3.7212 -1.6258,3.5917 -1.2383,-0.16189 1.69,-16.017 -1.3919,-33.402 -8.7043,-47.5820003 -11.843,-22.9899997 -27.925,-31.5809997 -30.465,-30.9749997 -4.0207,0.94647 -9.2868,35.934 4.6999,61.634 z"
       id="path6358"
       style="fill:#0f141b" />
    <path
       d="m 114.57529,63.002888 c -2.1853,-4.6029 -6.148,-9.1492 -8.9469,-12.167 -2.144,-2.2893 -1.3506,-3.0255 0.77736,-0.72806 2.8556,3.0659 6.9004,7.6931 9.1329,12.434 1.3025,2.7666 0.30039,3.1468 -0.9631,0.46109"
       id="path6360"
       style="fill:#0f141b" />
    <path
       d="m 68.35829,37.344888 c -0.95392,0.97883 7.0866,12.32 17.134,20.054 10.8,8.3241 23.945,14.391 24.649,13.404 0.53429,-0.7766 -5.064,-9.0198 -17.133,-19.568 -12.329,-10.767 -23.686,-14.885 -24.649,-13.89 m -1.2933,-1.0597 c 1.9904,-2.2974 14.569,2.4835 27.278,13.59 11.131,9.7236 18.711,19.876 17.117,21.906 -1.8436,2.3621 -16.664,-4.7647 -27.262,-12.927 -11.108,-8.5506 -19.205,-20.167 -17.134,-22.57"
       id="path6362"
       style="fill:#0f141b" />
    <path
       d="m 113.07529,21.370888 c -0.68793,0.13759 -1.6671,10.888 1.5043,22.343 4.0608,14.707 9.4808,24.252 10.128,24.091 0.72691,-0.16992 1.7152,-13.72 -1.9262,-25.595 -4.0205,-13.097 -9.0522,-20.96 -9.7073,-20.839 m -0.34855,-1.6341 c 2.1349,-0.47728 7.7577,8.4535 11.9,21.955 3.2761,10.686 3.0819,27.14 0.42881,27.771 -2.3621,0.59054 -8.1219,-10.225 -12.296,-25.296 -2.9932,-10.824 -2.7343,-23.824 0,-24.43"
       id="path6364"
       style="fill:#0f141b" />
    <path
       d="m 105.96529,154.38789 c -11.762,0.23461 -23.993,2.3055 -36.726,6.4797 -8.6316,2.8151 -14.909,0.22656 -17.093,-6.7143 -2.144,-6.8194 0.71086,-12.798 7.3289,-15.588 10.743,-4.5382 29.745,-4.1095 50.996,8.6315 0.24307,0.15364 0.31645,0.21028 0.52512,0.41257 2.5481,2.5239 4.7969,4.1095 7.0134,4.8861 0.6948,0.23458 0.86679,0.12933 0.72003,-0.57435 -0.74525,-3.5836 -2.2564,-7.1268 -4.2307,-8.7367 -2.6453,-2.1437 -8.1462,-2.6453 -14.141,-0.38828 l -1.9812,-0.85748 c 6.4635,-2.888 13.283,-3.0821 17.166,0.081 2.4348,1.99 3.7292,5.3957 4.449,9.6993 0.37148,2.168 -0.42881,2.6048 -2.3538,1.99 -2.9122,-0.94647 -4.7971,-2.168 -7.7983,-5.153 -21.923,-12.862 -39.905,-12.393 -49.653,-8.2756 -6.14,2.5805 -7.9036,8.1057 -6.2452,13.364 1.7726,5.6303 6.949,8.0976 14.796,5.5332 12.846,-4.1984 25.401,-6.3341 37.228,-6.0186 3.1628,0.081 3.1628,1.173 0,1.2296"
       id="path6366"
       style="fill:#0f141b" />
    <path
       d="m 53.02929,146.17789 c 0.7934,3.2439 5.5655,5.8972 10.581,4.0852 2.1119,-0.76851 2.4593,0.12933 0.37148,0.99501 -4.8375,2.0224 -9.8772,0.37212 -11.576,-3.0336 z"
       id="path6368"
       style="fill:#0f141b" />
    <path
       d="m 54.13729,156.29789 c 2.9042,1.9253 6.9166,1.9738 10.508,0.38829 2.4511,-1.084 2.8232,-0.33977 0.48613,0.95457 -3.1064,1.7231 -6.6091,2.0143 -9.3517,0.89792 z"
       id="path6370"
       style="fill:#0f141b" />
    <path
       d="m 130.59529,144.81789 c -1.69,2.3217 -2.7017,4.3683 -3.3894,6.3826 -0.3325,0.97073 0,1.262 1.424,0.67951 3.6726,-1.5047 8.2189,-4.9508 10.662,-8.8176 l 1.9652,-0.33977 c -2.4105,4.5301 -7.8467,8.769 -12.231,10.355 -2.5724,0.93838 -3.616,-0.0809 -3.0172,-2.2408 0.53429,-1.9657 1.5295,-4.0043 2.7827,-5.9862 z"
       id="path6372"
       style="fill:#0f141b" />
    <path
       d="m 138.24529,145.50789 c 17.222,-6.9812 31.978,-9.4809 41.402,-7.0945 8.6071,2.1842 11.73,7.2077 10.88,12.984 -1.0594,7.1511 -10.071,11.956 -21.583,8.6234 -14.941,-4.336 -27.1,-5.7435 -36.896,-4.2227 0,7.143 -1.4561,12.239 -4.7809,17.028 l -2.7423,0.89793 c 4.255,-4.8132 5.8082,-10.888 6.0347,-18.129 0,-0.89793 0.18344,-1.1325 1.1488,-1.2862 10.071,-1.6664 22.82,-0.39638 37.827,4.0528 10.088,2.9931 18.225,-1.0597 19.148,-7.3048 0.6948,-4.7162 -2.1188,-9.0036 -9.5457,-10.888 -9.1572,-2.3217 -24.786,0.34784 -43.06,7.7902 z"
       id="path6374"
       style="fill:#0f141b" />
    <path
       d="m 189.84529,149.40789 c -1.158,2.2246 -4.441,3.6645 -9.9419,3.527 -3.0498,0 -3.0498,-0.99502 0,-1.0759 5.5899,-0.16189 9.2868,-1.901 9.3918,-5.1854 z"
       id="path6376"
       style="fill:#0f141b" />
    <path
       d="m 184.27529,158.47789 c -2.1188,0.50964 -4.1743,0.40448 -6.0916,-0.0243 -2.8393,-0.63906 -2.6857,-1.4723 0.18345,-1.0597 2.9608,0.43683 5.8487,0.0162 8.672,-1.2377 z"
       id="path6378"
       style="fill:#0f141b" />
    <path
       d="m 131.68529,214.37789 c -4.1418,-3.0902 -4.5706,-7.1996 -1.7152,-16.074 5.1287,-15.904 -2.0867,-20.895 -11.172,-16.397 -7.8144,3.8749 -16.664,3.8425 -22.472,1.8363 -9.303,10.29 -23.613,13.048 -32.673,9.9986 -2.8719,-0.96263 -2.5644,-2.0062 0.34855,-1.1972 8.769,2.4268 22.028,-0.14561 31.112,-9.9905 0.55722,-0.59863 0.81634,-0.67951 1.706,-0.36402 5.161,1.7716 13.914,1.9819 21.332,-1.6826 11.172,-5.5332 18.832,1.6664 13.477,18.282 -2.8879,8.9793 -1.7634,12.094 1.1167,14.238 2.7829,2.0628 7.0056,1.9658 14.141,-4.2874 7.2886,-6.3988 16.543,-12.555 25.838,-17.158 11.026,-5.4523 14.44,-14.48 9.5294,-21.502 -4.6433,-6.6415 -13.566,-7.8387 -25.692,-1.2215 -8.5424,4.6676 -16.422,15.087 -19.31,21.017 -1.3667,2.8152 -2.3701,2.3217 -1.1236,-0.55818 2.7506,-6.3826 10.403,-17.061 19.633,-22.101 12.126,-6.6172 22.448,-6.0671 28.014,1.8687 5.0317,7.1835 3.3087,17.376 -10.298,24.107 -9.2141,4.5625 -18.145,10.508 -25.369,16.842 -7.9926,7.0136 -12.976,6.9003 -16.422,4.3441"
       id="path6380"
       style="fill:#0f141b" />
    <path
       d="m 102.77529,153.76789 c -11.625,4.8861 -15.556,14.755 -12.636,22.448 0.25912,0.6876 0.25912,1.0112 -0.18345,1.5856 -5.4926,6.9974 -14.933,10.185 -22.392,8.9389 -2.8476,-0.46918 -2.6939,-1.6503 0.18345,-1.2539 6.3259,0.88176 15.362,-2.0466 20.952,-8.6315 -3.446,-8.1461 0.0917,-17.514 10.476,-22.966 z"
       id="path6382"
       style="fill:#0f141b" />
    <path
       d="m 176.27529,164.34789 c 1.6029,4.2146 -1.6418,11.091 -9.5617,15.257 -2.1922,1.1487 -2.9205,0.50154 -0.6306,-0.86557 7.2319,-4.3198 10.274,-11.01 8.4535,-14.796 z"
       id="path6384"
       style="fill:#0f141b" />
    <path
       d="m 185.05529,173.76789 c -0.42881,4.0448 -4.8458,9.7964 -11.277,12.442 -2.5481,1.0516 -3.1548,0.52583 -0.59162,-0.88983 6.2127,-3.4138 11.382,-9.4 10.476,-14.723 z"
       id="path6386"
       style="fill:#0f141b" />
    <path
       d="m 161.23529,198.88789 c -1.5776,-1.5128 -6.3828,-6.5929 -8.8582,-8.3241 -1.0846,-0.7685 -1.3438,-0.75231 -2.0546,-0.18596 -2.0294,1.6179 -6.4635,5.4685 -8.6073,7.6365 -0.74296,0.75232 -0.6627,1.1163 0.18345,1.715 2.2243,1.5532 6.7871,5.0478 8.6557,6.5768 l -0.84845,1.0516 c -1.7794,-1.4238 -6.4312,-4.967 -8.6234,-6.504 -1.6992,-1.1891 -1.6418,-2.5077 -0.38066,-3.794 2.167,-2.2084 6.5605,-6.051 8.7367,-7.7578 1.2772,-1.0112 2.0867,-1.0921 3.7533,0.0727 2.532,1.7635 7.3211,6.8275 9.0604,8.5425 z"
       id="path6388"
       style="fill:#0f141b" />
    <path
       d="m 137.83529,187.32789 c 1.7634,-12.45 -5.3553,-16.575 -13.202,-12.717 -2.605,1.2781 -3.0335,0.35593 -0.54117,-1.1568 8.3484,-5.0398 16.397,0.21853 15.621,10.864 z"
       id="path6390"
       style="fill:#0f141b" />
    <path
       d="m 88.47529,173.47789 c -4.247,-1.2943 -5.2257,-5.1692 -4.247,-8.2028 1.1076,-3.5108 4.4979,-5.5737 8.0249,-4.9508 l -0.92182,1.3186 c -2.7827,-0.0162 -4.7079,1.537 -5.5332,4.158 -0.73608,2.3136 -0.26599,4.8052 2.5563,6.0995 z"
       id="path6392"
       style="fill:#0f141b" />
    <path
       d="m 66.74929,193.75789 c -4.3926,5.0155 -8.6154,11.528 -13.032,19.763 -9.0604,16.891 -19.779,19.69 -27.836,15.119 -6.6254,-3.7535 -8.4617,-12.676 -3.8506,-21.688 5.7029,-11.204 21.065,-22.157 32.997,-26.647 8.8094,-3.3248 14.108,0.50964 14.157,5.962 l -1.6831,-0.097 c -0.32332,-4.1499 -4.3117,-7.0702 -11.908,-4.2065 -11.52,4.336 -26.445,14.957 -31.978,25.806 -4.1338,8.0976 -2.5887,16.082 3.1872,19.358 7.4424,4.2146 17.004,0.97066 25.272,-14.424 4.2956,-8.0086 9.1815,-14.998 12.87,-19.302 z"
       id="path6394"
       style="fill:#0f141b" />
    <path
       d="m 20.71129,220.08789 c 3.8506,2.6372 11.01,-0.65536 14.529,-6.2855 1.2772,-2.0386 1.9491,-1.6341 0.92182,0.5339 -2.9769,6.3503 -10.791,9.9096 -14.893,7.8144 z"
       id="path6396"
       style="fill:#0f141b" />
    <path
       d="m 27.45029,228.48789 c 5.7678,-0.42881 9.9339,-3.0416 13.776,-8.3564 1.5937,-2.2004 2.2082,-1.7877 0.89889,0.58245 -2.6696,4.8375 -6.3988,7.9034 -11.811,8.8418 z"
       id="path6398"
       style="fill:#0f141b" />
    <path
       d="m 111.45529,117.73789 c 0.37148,2.3702 -1.5043,3.794 -3.5027,4.1095 -2.1509,0.33167 -4.344,-0.57435 -4.6758,-2.7181 -0.29122,-1.8768 1.5685,-4.0286 3.5593,-4.3441 2.0156,-0.31548 4.3442,1.1406 4.6192,2.9527"
       fill="#e95520"
       id="path6402" />
    <path
       d="m 159.52529,107.44789 c 0.59849,1.8929 -0.68793,3.7778 -2.9042,4.4978 -2.1349,0.6876 -4.255,-0.089 -4.8618,-1.9819 -0.59161,-1.8606 0.76131,-3.9719 2.8395,-4.6353 1.9422,-0.63099 4.3197,0.24268 4.9265,2.1195"
       fill="#e95520"
       id="path6404" />
    <path
       d="m 143.76529,108.76789 c -0.18345,-2.8152 -0.84157,-5.7031 -1.917,-8.7043 -0.42881,-1.197203 -1.0915,-1.698803 -2.6373,-1.892903 -7.3856,-0.87367 -16.373,0.88983 -21.324,3.947703 -0.94705,0.58244 -1.0846,1.0921 -0.92182,2.6938 0.33937,3.1792 0.92182,6.2855 1.3598,8.3807 0.20637,0.95457 0.64665,1.3429 2.5077,0.60671 6.5848,-2.6048 13.324,-3.7454 21.494,-3.8344 1.2291,-0.0162 1.5043,-0.23461 1.44,-1.1972 m 1.4309,-0.097 c 0.11465,1.9172 -0.77736,2.6372 -2.8638,2.6776 -8.0733,0.14561 -14.666,1.3267 -21.025,3.7697 -2.7827,1.0678 -3.9881,0.30742 -4.3844,-1.5855 -0.44486,-2.1194 -1.0915,-5.3552 -1.4401,-8.5991 -0.18345,-1.8201 -0.008,-2.9931 1.5776,-4.0286 5.5899,-3.640303 14.739,-5.339103 22.367,-4.206503 2.3538,0.35593 3.1872,1.1811 3.8019,2.8637 1.1007,3.090203 1.7634,6.196603 1.9652,9.108803"
       fill="#a4734a"
       id="path6406" />
  </g>
</svg>
