<?xml version="1.0" encoding="UTF-8" standalone="no"?>
<!-- Created with Inkscape (http://www.inkscape.org/) -->

<svg
   version="1.1"
   viewBox="0 0 117.19 200.13"
   id="svg6125"
   sodipodi:docname="1scor.svg"
   inkscape:version="1.2.2 (b0a8486, 2022-12-01)"
   xmlns:inkscape="http://www.inkscape.org/namespaces/inkscape"
   xmlns:sodipodi="http://sodipodi.sourceforge.net/DTD/sodipodi-0.dtd"
   xmlns="http://www.w3.org/2000/svg"
   xmlns:svg="http://www.w3.org/2000/svg">
  <defs
     id="defs6129" />
  <sodipodi:namedview
     id="namedview6127"
     pagecolor="#505050"
     bordercolor="#eeeeee"
     borderopacity="1"
     inkscape:showpageshadow="0"
     inkscape:pageopacity="0"
     inkscape:pagecheckerboard="0"
     inkscape:deskcolor="#505050"
     showgrid="false"
     inkscape:zoom="0.83384398"
     inkscape:cx="-49.16987"
     inkscape:cy="158.303"
     inkscape:window-width="1309"
     inkscape:window-height="430"
     inkscape:window-x="0"
     inkscape:window-y="25"
     inkscape:window-maximized="0"
     inkscape:current-layer="svg6125" />
  <path
     d="m 108.329,132.269 c -1.0814,-4.3736 -4.9937,-7.2523 -13.585,-5.3831 -8.4206,1.8303 -13.816,5.2333 -22.293,8.8909 0.19446,-0.90766 0.23946,-1.9651 0.19446,-2.9416 13.031,-2.9956 23.746,-13.804 23.746,-26.925 0,-10.044 -8.7981,-23.504 -20.858,-27.877 16.308,-4.5443 26.532,-15.511 25.445,-17.932 -0.65299,-1.4588 -7.0127,-1.0963 -12.588,1.6266 5.2454,-6.1111 9.3373,-13.037 12.408,-19.744 6.845,-14.945 8.6423,-28.758 6.9678,-29.821 -1.2941,-0.82113 -15.311,2.726 -27.934,15.017 -6.4946,6.3297 -12.615,14.981 -16.452,26.544 -0.37108,-27.967 -19.001,-53.406 -22.662,-53.028 -3.0017,0.31418 -11.012,24.726 -8.8221,42.571 1.4379,11.704 9.9784,27.937 18.025,34.542 -12.809,4.3496 -21.494,17.884 -21.494,28.341 0,12.579 7.0337,22.332 21.467,26.113 -2.0041,1.1324 -3.2203,4.041 -1.0455,5.3591 -3.6068,3.0676 -6.3328,7.5699 -7.6598,10.524 -2.5343,-0.11973 -4.2896,1.4829 -4.5953,3.9782 -0.31418,2.5643 1.42,4.5923 4.086,5.0237 0.16813,0.38381 0.35664,0.75744 0.58421,1.1084 -1.6716,1.9202 -4.8559,3.4749 -8.3128,4.1698 -1.2791,-2.5372 -5.2872,-3.373 -10.512,-0.91665 -10.074,4.7361 -18.192,14.217 -21.287,25.529 -1.36,4.9727 0.76424,9.2115 5.3891,11.431 4.781,2.2856 10.943,0.3923 13.567,-5.8475 3.1334,-7.459 7.7196,-17.351 11.006,-21.478 0.98858,-1.2402 1.5787,-2.085 2.0939,-3.0496 4.5384,-0.53921 8.6634,-2.5523 12.683,-6.0032 3.5319,1.7135 8.3159,0.95266 12.306,0.6445 4.1489,5.1584 3.5528,15.58 -0.50949,20.709 -4.0949,5.1705 -4.3796,8.3038 -2.9656,10.922 1.6776,3.1005 5.1854,4.3976 10.326,2.1239 7.0157,-3.1154 13.387,-5.2902 20.553,-6.4256 11.524,-1.8243 14.864,-6.9827 13.336,-12.995 -1.6236,-6.3956 -9.508,-8.867 -19.019,-6.2728 -5.0716,1.381 -9.7867,3.5647 -14.028,6.4525 1.5337,-4.5503 0.61734,-9.7746 -2.5372,-14.493 1.6206,-0.97057 3.0196,-3.9931 3.7745,-6.6233 3.7145,2.8339 7.6508,5.3292 11.422,6.7701 6.5993,2.5103 13.034,1.363 14.625,-2.8219 1.0664,-2.7919 0.54261,-7.1116 -5.1884,-11.159 -1.7644,-1.2492 -4.1729,-2.4504 -6.9738,-3.5678 6.096,-0.23352 9.0767,-0.40165 16.054,-1.7704 7.4111,-1.4528 12.45,-6.5154 11.263,-11.314"
     fill="#ffffff"
     id="path5957" />
  <path
     d="M 32.577,47.052 C 41.3153,43.2835 52.072,40.5545 62.111,41.525 57.8034,18.782 43.838,0.377 40.722,0.698 37.7174,1.00963 29.707,25.424 31.8999,43.269 c 0.14945,1.2192 0.38041,2.4833 0.67677,3.7835"
     fill="#f2984f"
     id="path5959" />
  <path
     d="m 68.259,42.474 c 8.828,1.2882 20.673,5.4131 27.476,9.0558 1.9232,-3.1574 3.6127,-6.3776 5.0626,-9.544 6.8419,-14.945 8.6423,-28.758 6.9678,-29.821 -1.2941,-0.82113 -15.311,2.726 -27.934,15.017 -4.1849,4.077 -8.208,9.1247 -11.572,15.293"
     fill="#f2984f"
     id="path5961" />
  <path
     d="M 40.722,0.698 C 37.8072,1.00369 30.18,24.004 31.7351,41.669 40.3535,37.4781 50.8291,35.8066 60.9601,36.3638 55.7238,16.0628 43.6001,0.4048 40.7221,0.6978"
     fill="#e95520"
     id="path5963" />
  <path
     d="m 70.959,37.963 c 9.2235,1.0604 20.355,5.1794 27.179,9.3703 0.9586,-1.7854 1.8483,-3.5737 2.6601,-5.3502 6.8419,-14.942 8.6393,-28.755 6.9648,-29.818 -1.2941,-0.81773 -15.308,2.723 -27.931,15.02 -3.1154,3.0345 -6.141,6.6082 -8.873,10.778"
     fill="#e95520"
     id="path5965" />
  <path
     d="m 46.674,37.298 c 1.36,-0.27258 4.9038,7.6568 7.5759,16.353 2.4564,7.9923 3.0945,19.597 1.7764,20.062 -0.98255,0.3473 -7.2105,-7.2613 -9.4572,-17.243 -2.1658,-9.6189 -1.7824,-18.794 0.10445,-19.172"
     fill="#ffe792"
     id="path5967" />
  <path
     d="m 85.699,42.052 c -1.1383,-0.71329 -8.148,5.2783 -13.166,12.956 -4.781,7.3272 -6.2548,18.501 -5.3261,19.07 1.1024,0.68017 6.7041,-5.6078 12.54,-15.308 4.9607,-8.253 6.7911,-16.197 5.9523,-16.719"
     fill="#ffe792"
     id="path5969" />
  <path
     d="m 65.679,138.319 c -0.19785,0.88965 0.23097,1.5157 1.351,1.3151 2.1418,-0.38042 4.3137,-1.5458 4.9068,-2.4684 0.6445,-1.0035 0.78461,-2.777 0.71583,-4.3257 -1.342,0.3057 -2.708,0.53582 -4.089,0.67083 -1.3031,1.3151 -2.5223,3.1723 -2.8847,4.808"
     id="path5971"
     style="fill:#e95520" />
  <path
     d="m 61.109,137.949 c -1.8244,-2.5852 -4.164,-4.3047 -7.1296,-4.805 -1.4259,-0.24286 -2.7859,-0.54261 -4.0859,-0.88065 -2.4625,1.3869 -3.7476,5.458 0.99147,5.9823 3.2952,0.36258 7.0128,0.9406 10.814,1.6895 0.15879,-0.47892 0.003,-1.1533 -0.59016,-1.9861"
     id="path5973"
     style="fill:#e95520" />
  <path
     d="m 98.939,177.069 c -1.5577,-6.126 -8.861,-8.6393 -17.833,-6.5574 -1.5188,2.8668 -2.2527,5.7995 -0.79056,8.172 2.1838,3.5528 5.8864,8.0852 8.7712,10.664 8.7082,-2.2527 11.213,-6.9258 9.8525,-12.279"
     id="path5975"
     style="fill:#e95520" />
  <path
     d="m 9.906,183.029 c -2.4174,-1.2342 -4.7331,-1.4619 -7.0157,-0.94061 -0.68017,1.6026 -1.2702,3.2532 -1.7345,4.9517 -1.36,4.9727 0.76084,9.2115 5.3891,11.428 4.778,2.2887 10.94,0.39231 13.564,-5.8474 0.18257,-0.42797 0.36854,-0.87173 0.56044,-1.318 -2.8518,-3.1064 -6.5604,-6.141 -10.763,-8.2738"
     id="path5977"
     style="fill:#e95520" />
  <path
     d="m 71.789,98.299 c -4.4066,-1.9741 -14.631,-1.6117 -18.543,0.32947 -1.4948,0.73961 -1.6775,1.348 -1.6775,3.1574 0,1.6416 0.09,3.2172 0.23097,5.0625 0.11718,1.5158 0.73366,2.1419 3.0884,1.5458 4.5384,-1.1533 10.817,-1.7105 16.08,-0.65894 1.9532,0.38976 2.6032,-0.26918 2.6302,-1.6776 0.034,-1.7435 0,-3.8793 -0.13162,-5.4909 -0.0866,-1.0545 -0.47043,-1.7255 -1.6775,-2.2676"
     fill="#ffe792"
     id="path5981" />
  <path
     d="m 58.149,107.729 c 1.327,1.8992 3.7325,3.385 4.5952,3.3221 0.85374,-0.0594 2.9058,-1.7344 4.1879,-3.8164 -2.9747,-0.17407 -6.0332,0.051 -8.7832,0.49421"
     fill="#f89b70"
     id="path5983"
     style="fill:#f4ae7d;fill-opacity:1" />
  <path
     d="m 48.78,119.059 c 0.95564,-1.5637 8.0103,-3.8074 14.001,-4.0021 6.8869,-0.22503 13.795,2.2048 15.287,4.2268 1.0275,1.399 -4.9877,10.41 -14.394,10.527 -11.35,0.1435 -16.188,-8.6123 -14.894,-10.751"
     fill="#89260e"
     id="path5985"
     style="fill:#923000;fill-opacity:1" />
  <path
     d="m 62.709,119.839 c 1.6116,0 4.796,-1.8842 6.5064,-4.2747 -2.031,-0.37193 -4.2358,-0.57488 -6.4405,-0.50355 -2.3156,0.0764 -4.787,0.45854 -7.0068,0.98858 2.2976,2.043 4.8619,3.7894 6.9409,3.7894"
     fill="#ffffff"
     id="path5987" />
  <path
     d="m 52.119,125.879 c 2.5013,2.1867 6.3387,3.9961 11.551,3.9332 4.3137,-0.051 7.9114,-1.9771 10.446,-4.1818 -6.2609,-6.3926 -16.503,-5.4131 -21.997,0.2488"
     fill="#f46899"
     id="path5989"
     style="fill:#ed8599;fill-opacity:1" />
  <path
     d="m 80.319,178.689 c -0.28786,-0.46703 -0.48826,-0.95258 -0.61394,-1.4619 -6.2188,2.0251 -16.293,7.4981 -20.334,9.8257 -4.4455,2.5732 -4.6432,5.6857 -3.8523,8.5525 1.7284,1.9232 5.416,2.9147 9.2384,1.0844 5.9762,-2.8668 13.783,-5.5808 20.553,-6.6682 1.2641,-0.20634 2.5193,-0.47043 3.6846,-0.76084 -2.8728,-2.5912 -6.5154,-7.0606 -8.6753,-10.571"
     fill="#dbdcdc"
     id="path5991" />
  <path
     d="m 50.059,78.449 c 1.8453,-0.85976 1.8962,-2.1748 0.51204,-3.7745 -6.4705,-7.4801 -11.704,-17.327 -14.415,-29.06 -1.2162,0.4526 -2.4055,0.93161 -3.5558,1.4259 2.4145,10.916 8.6843,22.251 17.458,31.409"
     fill="#dbdcdc"
     id="path5993" />
  <path
     d="M 35.111,40.195 C 33.8948,32.4154 33.76,23.914 35.0516,14.798 c -2.2437,7.1146 -3.6907,15.946 -3.5588,23.39 0.017,1.1473 0.11124,2.3156 0.23097,3.4899 l 0.017,-0.006 c 1.0964,-0.53666 2.2227,-1.0275 3.376,-1.4768"
     fill="#ca491a"
     id="path5995" />
  <path
     d="m 31.735,41.672 -0.017,0.006 c 0.18256,1.7704 0.47637,3.5588 0.87768,5.3651 1.1503,-0.49421 2.3396,-0.97355 3.5558,-1.4289 -0.40759,-1.7615 -0.75489,-3.5708 -1.0425,-5.4191 -1.1533,0.4492 -2.2796,0.9406 -3.376,1.4768"
     fill="#d18344"
     id="path5997" />
  <path
     d="m 80.629,67.619 c -0.76084,0.80924 -0.52138,1.8033 -0.0425,1.9322 5.5059,-4.7121 10.712,-11.326 14.912,-18.147 -0.60799,-0.31758 -1.2552,-0.6445 -1.9352,-0.97057 -4.2029,6.6472 -8.7502,12.773 -12.932,17.186"
     fill="#dbdcdc"
     id="path5999" />
  <path
     d="m 105.129,28.437 c -2.2856,5.5778 -5.44,11.77 -8.9778,17.752 0.61988,0.34136 1.2192,0.67677 1.7854,1.0245 3.8673,-7.0307 6.5244,-13.906 7.1924,-18.776"
     fill="#ca491a"
     id="path6001" />
  <path
     d="m 96.159,46.189 c -0.8449,1.4289 -1.7135,2.8518 -2.5972,4.2478 0.68017,0.32098 1.327,0.6496 1.9352,0.97058 0.85968,-1.399 1.6775,-2.798 2.4474,-4.1939 -0.56638,-0.34475 -1.1654,-0.68611 -1.7854,-1.0245"
     fill="#d18344"
     id="path6003" />
  <path
     d="M 100.839,60.099 C 97.43,65.6799 85.211,73.025 75.99,75.793 c -1.5427,0.46108 -1.8423,1.7046 -0.92863,2.5103 9.7178,-2.4324 25.01,-11.464 25.777,-18.204"
     fill="#dbdcdc"
     id="path6005" />
  <path
     d="m 61.699,139.939 c 0.39825,-1.9651 -3.7565,-6.2878 -7.7167,-6.794 -10.101,-1.2851 -18.291,-6.9168 -22.066,-13.274 1.0125,0.13162 1.9741,0.23691 2.9747,0.26663 8.19,13.795 44.814,17.024 55.865,-2.2676 0.61733,0.051 1.4739,0.16134 2.1389,0.18596 -4.3976,7.477 -12.321,14.16 -24.336,15.451 -1.1563,1.0275 -2.5463,3.0645 -2.8847,4.808 -0.18257,0.94358 0.14945,1.5697 1.5367,1.2701 2.0161,-0.44326 4.104,-1.5816 4.5234,-2.1598 0.41609,-0.58082 0.60205,-1.0215 0.69461,-1.6686 0.88371,-0.34136 1.9052,-0.77273 2.3994,-0.9975 -0.28446,3.7026 2.3696,6.2998 8.196,6.099 15.526,-0.53582 23.773,-3.4479 24.762,-9.5739 1.971,5.3412 -2.3576,10.389 -10.305,12.219 -4.5803,1.0545 -10.826,1.7284 -16.359,1.8602 -3.5258,-1.4528 -13.318,-4.3586 -19.424,-5.425"
     fill="#dbdcdc"
     id="path6007" />
  <path
     d="m 67.439,134.839 c 1.5068,0.17407 3.4599,1.7285 3.3611,3.2562 1.381,-0.41608 1.9741,-2.8877 1.9501,-5.3082 -1.1083,0.32013 -2.9416,0.61988 -4.1878,0.71923 -0.38042,0.36514 -0.72517,0.81179 -1.1233,1.333"
     fill="#ca491a"
     id="path6009" />
  <path
     d="m 36.621,151.749 c 0.70055,0.63772 2.2048,0.93169 3.3162,0.88669 -0.16474,1.357 0.0849,2.9836 0.68017,4.4096 -2.9417,-0.25475 -4.3286,-2.6092 -3.9962,-5.2962"
     id="path6011"
     style="fill:#dbdcdc" />
  <path
     d="m 54.239,143.979 c 8.136,6.7102 21.413,14.774 27.817,16.033 5.2393,1.0245 9.8316,-0.22757 11.207,-4.0711 1.8183,7.1864 -5.6707,9.7657 -13.372,7.3572 -7.7436,-2.4234 -19.636,-12.003 -25.651,-19.319"
     id="path6013"
     style="fill:#dbdcdc" />
  <path
     d="m 40.941,148.759 c 1.5996,11.512 19.564,12.21 24.375,5.7935 0.58761,0.59016 1.2133,1.1474 1.6776,1.4799 -0.46449,2.1718 -2.088,5.7576 -3.6037,6.9378 0.29636,0.49421 0.69206,1.2192 0.95258,1.8184 -1.5457,0.22758 -3.9512,1.5427 -4.119,3.5168 -0.59016,-1.6416 -1.378,-3.1274 -2.4654,-4.1429 -3.7894,0.19191 -8.7951,-0.43476 -11.563,-2.1449 -1.384,1.1832 -3.5888,2.7709 -4.8409,3.397 -0.91963,-1.0934 -1.7434,-3.8913 -1.381,-5.8354 0.55704,-0.42542 1.0874,-1.0515 1.3151,-1.384 -1.2821,-2.0939 -1.9022,-6.6952 -0.3473,-9.4362"
     id="path6015"
     style="fill:#dbdcdc" />
  <path
     d="m 30.124,172.479 c 1.2402,-1.7134 2.5194,-3.4599 3.0615,-4.4964 -1.0844,0.19445 -2.765,0.34475 -3.5049,0.34475 -1.0964,2.4235 -6.9648,9.7028 -10.524,18.735 -0.27003,0.69461 -0.54855,1.309 -0.82962,1.8932 0.82962,0.77018 1.6176,1.5607 2.3426,2.3486 l 0.017,0.017 c 0.18256,-0.3923 0.36513,-0.78801 0.5426,-1.2072 2.5703,-6.0272 5.7815,-13.334 8.894,-17.635"
     id="path6017"
     style="fill:#dbdcdc" />
  <path
     d="m 18.324,188.949 c -2.8039,5.8145 -6.132,6.6293 -10.332,5.6887 -4.3676,-0.97363 -6.5574,-4.3017 -6.7222,-8.0373 -1.8842,4.8619 1.1773,10.509 5.6827,12.009 6.3358,2.109 10.302,0.0679 13.735,-7.2943 l -0.017,-0.017 c -0.72772,-0.78801 -1.5098,-1.5786 -2.3455,-2.3486"
     fill="#ca491a"
     id="path6021" />
  <path
     d="m 72.319,184.679 c -0.43136,-0.72178 -0.82961,-0.97363 -1.6356,-0.61393 -2.3576,1.0514 -5.0866,2.4084 -7.3782,3.6186 -0.8568,0.45514 -0.87777,0.95563 -0.56299,1.5876 1.327,2.6662 2.72,4.1909 4.8439,6.168 3.4239,-1.4079 6.7641,-2.6092 10.134,-3.6127 -1.9921,-2.1748 -3.7296,-4.3286 -5.4011,-7.1475"
     fill="#d1b966"
     id="path6023"
     style="fill:#dbc77f;fill-opacity:1" />
  <path
     d="m 81.449,176.729 c -0.53921,0.12568 -1.1264,0.29975 -1.7495,0.4976 0.12567,0.5061 0.32692,0.99461 0.61393,1.4619 2.1599,3.5109 5.8025,7.9803 8.6724,10.575 1.5906,-0.4042 3.0045,-0.86274 3.9722,-1.3211 6.83,-6.4705 -1.42,-13.588 -11.509,-11.213"
     fill="#ca491a"
     id="path6025" />
  <path
     d="m 71.509,123.699 c -5.8294,-1.5907 -13.396,1.1383 -14.789,4.751 -1.366,-0.34475 -3.2472,-1.33 -4.5953,-2.5702 3.6576,-4.3436 13.498,-6.7881 19.385,-2.1808"
     fill="#ca567d"
     id="path6027"
     style="fill:#ce7486;fill-opacity:1" />
  <path
     d="m 48.819,107.399 c -0.38382,3.7476 -3.6876,5.8534 -6.4316,5.5659 -3.1394,-0.32013 -5.1045,-3.2713 -4.7421,-6.8061 0.39571,-3.8583 3.1844,-6.09 6.2669,-5.8983 2.7739,0.16474 5.3112,3.1903 4.9068,7.1385"
     fill="#0f141b"
     id="path6029" />
  <path
     d="m 46.249,103.649 c -0.18002,1.5727 -1.4439,2.3755 -2.669,2.2377 -1.2882,-0.14945 -2.2497,-1.348 -2.082,-2.8159 0.17068,-1.5008 1.3271,-2.3665 2.6631,-2.2677 1.3839,0.0985 2.2467,1.4649 2.0879,2.8458"
     fill="#ffffff"
     id="path6031" />
  <path
     d="m 77.019,106.779 c 0.69461,3.7026 4.1608,5.5239 6.8719,5.0146 3.1004,-0.58421 4.8139,-3.6875 4.1609,-7.1774 -0.71583,-3.8134 -3.6787,-5.8055 -6.7342,-5.3621 -2.75,0.39825 -5.0296,3.6247 -4.2986,7.525"
     fill="#0f141b"
     id="path6033" />
  <path
     d="m 79.949,102.759 c 0.3957,1.4858 1.7195,2.076 2.8728,1.7734 1.2222,-0.32353 1.98,-1.6057 1.6116,-2.9927 -0.37447,-1.4139 -1.5996,-2.0879 -2.8698,-1.8063 -1.3151,0.29041 -1.9561,1.7135 -1.6146,3.0255"
     fill="#ffffff"
     id="path6035" />
  <path
     d="m 67.559,107.259 c -1.414,2.4205 -3.6217,4.2388 -4.787,4.3197 -1.2702,0.0866 -3.9542,-1.7644 -5.2813,-3.7655 l 1.2881,-0.2004 c 1.336,1.7824 3.4001,2.9507 3.9333,2.9057 0.53581,-0.034 2.3066,-1.351 3.5888,-3.3461 l 1.2582,0.0866"
     id="path6037"
     style="fill:#0f141b" />
  <path
     d="m 49.299,119.369 c -0.93457,1.5337 3.1364,9.8495 14.361,9.7567 9.4691,-0.11973 14.373,-8.8191 13.897,-9.55 -0.85076,-1.2911 -7.1326,-4.119 -14.771,-3.8853 -7.2434,0.23692 -12.965,2.8249 -13.486,3.6786 m -1.0665,-0.61139 c 0.84151,-1.4588 7.3363,-4.083 14.52,-4.3166 6.6772,-0.21824 14.163,2.2676 15.769,4.5114 1.4828,2.07 -5.2992,11.401 -14.852,11.521 -11.512,0.18002 -17.057,-8.903 -15.436,-11.716"
     id="path6039"
     style="fill:#0f141b" />
  <path
     d="m 69.779,115.679 c -1.7853,2.6482 -5.1075,4.7511 -7.0726,4.7511 -2.088,0 -4.5683,-1.4229 -7.5819,-4.2418 l 1.2671,-0.3057 c 2.5193,2.1988 4.9308,3.367 6.3148,3.367 1.2222,0 4.2328,-1.5816 5.9253,-3.7835 l 1.1473,0.21229"
     id="path6041"
     style="fill:#0f141b" />
  <path
     d="m 73.739,125.979 c -6.0242,-6.114 -16.045,-5.0416 -21.239,0.26069 l -0.79396,-0.698 c 6.0152,-6.2339 16.895,-6.5185 22.818,-0.24285 l -0.78461,0.68016"
     id="path6043"
     style="fill:#0f141b" />
  <path
     d="m 61.129,139.709 c 0.11718,-0.45515 0.0425,-0.78462 -0.45514,-1.4888 -1.7734,-2.5133 -4.1788,-4.0291 -6.809,-4.4605 -17.333,-2.8578 -26.352,-13.22 -26.352,-27.616 0,-9.9544 7.7317,-23.674 21.107,-28.59 -8.0043,-6.7342 -16.266,-22.671 -17.683,-34.192 -2.1359,-17.398 5.7037,-42.945 9.7148,-43.359 4.4215,-0.4526 23.827,25.912 23.252,54.766 -0.0594,2.7859 -0.94366,2.7859 -0.99758,0 -0.5511,-28.902 -19.552,-53.639 -22.096,-53.382 -1.8063,0.18596 -10.314,23.078 -8.0162,41.777 1.3421,10.94 8.861,25.945 16.557,33.197 1.5787,1.4858 1.5517,1.8273 -0.034,2.4354 -9.9813,3.7835 -20.023,15.814 -20.023,27.347 0,14.112 8.8221,23.572 24.774,26.4 2.9117,0.51544 5.47,2.1628 7.486,5.0176 0.62922,0.89271 0.84745,1.7105 0.66234,2.4294 l -1.0844,-0.28192"
     id="path6045"
     style="fill:#0f141b" />
  <path
     d="m 50.659,132.539 c -2.5463,1.2162 -3.4239,4.733 0.32352,5.1464 13.079,1.4319 30.205,5.5419 37.439,10.655 5.7576,4.074 6.6862,8.6783 5.425,11.994 -1.7614,4.6133 -8.4176,5.9223 -15.595,3.1903 -6.5903,-2.5103 -14.523,-8.6393 -24.019,-18.264 -2.2347,-2.2616 -1.5668,-2.9207 0.69461,-0.68866 9.4601,9.3254 17.372,15.212 23.851,17.677 6.9258,2.6391 12.426,0.92558 13.702,-2.4325 0.98858,-2.5882 0.23097,-6.6593 -4.9727,-10.338 -6.8629,-4.8529 -23.878,-9.1845 -36.705,-10.616 -5.1285,-0.57232 -4.6522,-5.1076 -1.7764,-6.818 l 1.6326,0.4942"
     id="path6047"
     style="fill:#0f141b" />
  <path
     d="m 72.549,135.109 c 6.4645,-2.9327 12.012,-5.9703 18.117,-7.8815 9.4931,-2.9837 15.49,-1.5817 17.695,3.0016 3.2862,6.839 -3.2951,12.674 -13.498,14.466 -5.6258,0.99155 -8.7383,1.1024 -12.477,1.2522 l -2.8219,-1.1594 c 6.4436,-0.28446 9.6279,-0.45259 15.173,-1.4588 10.964,-1.998 14.376,-8.1301 12.321,-12.42 -1.9562,-4.0949 -6.8181,-5.1284 -15.979,-2.3245 -6.0751,1.8602 -11.626,4.79 -18.735,7.8994 l 0.20379,-1.3749"
     id="path6049"
     style="fill:#0f141b" />
  <path
     d="m 106.959,129.549 c -2.2468,-0.47297 -4.4126,0.18851 -6.147,1.1204 -1.6266,0.87471 -2.0401,0.41609 -0.4042,-0.73961 1.6027,-1.1264 3.8674,-1.7285 5.6018,-1.6056 l 0.9496,1.2252"
     id="path6051"
     style="fill:#0f141b" />
  <path
     d="m 108.399,135.079 c -1.5758,0.99156 -3.9902,1.369 -5.8444,1.1054 -2.127,-0.29975 -2.0819,-0.87471 0.051,-0.83896 2.007,0.034 4.3796,-0.4042 5.8534,-1.6896 l -0.0594,1.4229"
     id="path6053"
     style="fill:#0f141b" />
  <path
     d="m 93.579,158.179 c -1.4978,-1.6866 -3.9182,-2.6511 -5.8325,-3.1215 -1.8872,-0.46703 -1.7284,-1.1383 0.1919,-0.81773 1.9202,0.31758 4.1339,1.1083 5.7066,2.5492 l -0.0679,1.39"
     id="path6055"
     style="fill:#0f141b" />
  <path
     d="m 90.719,162.969 c -2.0819,-0.36258 -4.3047,-1.5606 -5.7815,-3.1453 -1.1593,-1.2432 -0.64705,-1.7554 0.5961,-0.5961 1.6476,1.5337 4.116,2.6451 6.2968,2.8578 l -1.1114,0.88362"
     id="path6057"
     style="fill:#0f141b" />
  <path
     d="m 54.129,194.689 c -1.5667,-2.8937 -1.3689,-6.105 3.0406,-11.665 3.8973,-4.9188 4.0231,-13.303 0.44325,-18.276 -4.1909,0.29381 -8.4806,-0.38041 -11.614,-1.9082 -5.2184,4.4515 -10.658,6.2758 -16.695,5.8474 -2.082,-0.14351 -2.037,-0.99452 0.0594,-0.97058 5.8235,0.0679 10.829,-1.6776 15.925,-5.9613 0.40759,-0.33881 0.60204,-0.34731 1.1654,-0.0926 3.0974,1.3929 7.1505,2.0939 11.06,1.8663 0.57233,-0.0425 0.74555,0.0425 1.0545,0.44665 4.092,5.3292 3.9392,14.502 -0.33881,19.906 -4.056,5.1195 -4.1489,7.8994 -2.9206,10.176 1.5757,2.9087 4.9278,3.7745 9.4601,1.7614 7.7077,-3.421 14.166,-5.4071 20.745,-6.4466 11.485,-1.8243 14.028,-7.0546 12.728,-12.168 -1.4649,-5.7666 -8.9779,-8.214 -18.135,-5.7187 -6.2998,1.7195 -11.815,4.5564 -17.018,8.4506 -2.022,1.5098 -2.5313,0.83896 -0.60544,-0.78801 5.0117,-4.2418 10.844,-7.2973 17.258,-9.0468 9.5201,-2.5942 18.126,-0.0985 19.876,6.7881 1.6746,6.5843 -1.7614,11.94 -13.912,13.87 -6.5933,1.0424 -12.674,2.9327 -20.415,6.3717 -4.8559,2.1508 -9.0647,1.4289 -11.159,-2.4415"
     id="path6059"
     style="fill:#0f141b" />
  <path
     d="m 67.779,156.579 c -0.6496,2.3575 -2.058,5.3382 -3.5557,6.3746 2.9267,4.5623 3.7445,9.3972 2.4624,13.726 l -1.6566,1.1233 c 1.6835,-4.4695 1.0574,-9.523 -1.8753,-14.184 -0.52987,-0.84151 -0.48487,-1.0664 0.37192,-1.7344 1.333,-1.0485 2.4474,-3.9632 2.9866,-6.2579 l 1.2671,0.95266"
     id="path6061"
     style="fill:#0f141b" />
  <path
     d="m 29.539,163.289 c -2.2917,-0.0255 -2.2917,-0.87174 0,-0.97661 4.4125,-0.18851 8.7352,-1.8722 10.985,-4.1489 -3.3102,-5.3292 0.11379,-14.409 7.8456,-20.906 l 1.0245,0.6496 c -7.4711,6.2908 -10.473,14.756 -7.7527,19.801 0.2904,0.5426 0.2904,0.76084 -0.14351,1.2162 -2.4354,2.5762 -7.4022,4.4215 -11.958,4.3646"
     id="path6063"
     style="fill:#0f141b" />
  <path
     d="m 93.879,171.089 c 1.2402,5.0296 -1.2791,8.3847 -8.0522,10.688 -1.8842,0.64111 -2.049,-0.096 -0.29041,-0.78461 6.4375,-2.5402 8.2798,-5.455 7.0217,-10.347 l 1.321,0.44326"
     id="path6065"
     style="fill:#0f141b" />
  <path
     d="m 99.339,179.739 c -1.3241,4.062 -5.3382,6.0122 -9.9604,6.7041 -1.9352,0.2938 -2.0221,-0.4042 -0.14691,-0.82708 4.5384,-1.0186 9.4122,-3.5049 9.5171,-8.873 l 0.59016,2.9956"
     id="path6067"
     style="fill:#0f141b" />
  <path
     d="m 67.029,195.589 c -1.7225,-1.5578 -3.8074,-4.167 -4.778,-6.1201 -0.4976,-0.99749 -0.27512,-1.6446 0.7965,-2.2108 2.5223,-1.339 5.0327,-2.6002 7.3902,-3.6606 1.0754,-0.48231 1.7615,-0.15284 2.3276,0.80839 1.5697,2.669 3.2293,4.8169 5.5029,7.2433 l -1.2551,0.41014 c -2.1209,-2.3066 -3.6966,-4.3676 -5.2573,-6.9978 -0.25729,-0.43137 -0.51203,-0.52393 -0.96157,-0.32693 -2.1658,0.96464 -4.6492,2.1868 -7.1475,3.5139 -0.43731,0.23097 -0.47042,0.42797 -0.31163,0.74895 1.1293,2.2736 2.8338,4.2747 4.9038,6.1799 l -1.2102,0.41014"
     id="path6069"
     style="fill:#0f141b" />
  <path
     d="m 40.932,148.699 c -2.052,0.034 -3.427,1.1922 -3.7116,3.5018 -0.23946,1.9711 0.88074,3.8344 3.2323,4.3197 l 0.47043,1.2282 c -3.2772,-0.35325 -5.3592,-2.6661 -4.9847,-5.7037 0.36259,-2.9686 2.5613,-4.6821 5.488,-4.4395 l -0.4942,1.0934"
     id="path6071"
     style="fill:#0f141b" />
  <path
     d="m 63.179,52.141 c 3.2683,-9.625 8.6993,-18.495 16.015,-25.621 11.944,-11.632 27.02,-16.122 28.938,-14.912 2.3935,1.5218 -0.0849,16.671 -6.5305,30.753 -4.8768,10.661 -11.395,19.669 -19.058,26.059 -2.2676,1.8872 -2.9147,1.3331 -0.68271,-0.77867 7.2643,-6.8869 13.265,-15.436 18.096,-25.99 7.3931,-16.149 8.3907,-28.339 7.4111,-28.899 -0.81773,-0.47298 -14.253,2.6841 -26.958,15.056 -7.7197,7.525 -13.423,16.832 -16.832,27.533 l -0.39825,-3.1993"
     id="path6073"
     style="fill:#0f141b" />
  <path
     d="m 62.289,69.999 c -0.0425,-3.0465 0.003,-5.7994 0.25135,-8.4985 0.22502,-2.4055 1.1923,-2.3426 1.0335,0.0679 -0.17662,2.6482 -0.3023,5.437 -0.44071,8.4356 -0.12567,2.6841 -0.80245,2.6811 -0.8449,-0.008"
     id="path6075"
     style="fill:#0f141b" />
  <path
     d="m 46.734,37.927 c -0.92566,0.0594 -1.9502,7.2284 0.56298,18.405 2.2558,10.014 8.1062,16.841 8.5436,16.734 0.50949,-0.11973 0.52987,-9.8885 -2.3366,-19.22 -3.2023,-10.425 -6.0631,-15.964 -6.7701,-15.919 M 45.7993,56.641 c -2.3966,-10.649 -1.5668,-19.528 0.79056,-20.005 1.5906,-0.30824 5.1554,6.3956 8.3607,16.829 2.1568,7.0217 3.397,20.092 1.2882,20.837 -1.7824,0.63177 -8.3069,-8.178 -10.44,-17.662"
     id="path6077"
     style="fill:#0f141b" />
  <path
     d="m 85.289,42.597 c -0.55449,-0.36514 -7.1146,5.1105 -12.135,12.794 -4.8738,7.4681 -6.0241,17.881 -5.5898,18.114 0.52392,0.29041 5.5029,-5.1015 11.527,-15.125 4.76,-7.9114 6.6682,-15.478 6.1979,-15.784 m -18.423,32.038 c -1.5816,-0.96761 0.45854,-13.001 5.0387,-20.017 4.7959,-7.3453 12.372,-14.205 14.103,-13.13 1.399,0.87471 -0.82707,9.6758 -5.6227,17.659 -6.3027,10.479 -12.024,16.413 -13.519,15.487"
     id="path6079"
     style="fill:#0f141b" />
  <path
     d="m 33.964,167.989 c -0.52987,1.1293 -1.1982,2.0969 -2.3396,3.5348 -3.7445,4.6972 -8.8071,16.494 -10.85,21.356 -2.9297,6.9618 -9.532,8.6184 -14.592,6.1919 -5.2453,-2.5164 -7.1415,-7.0427 -5.7336,-12.183 3.1544,-11.524 11.234,-21.092 21.658,-25.999 6.129,-2.8818 10.332,-1.312 11.47,1.384 l -1.2612,0.29635 c -1.2971,-2.1029 -5.0206,-2.5942 -9.5979,-0.44071 -10.182,4.79 -18.025,14.553 -20.9,25.067 -1.0424,3.8074 0.15285,8.3218 5.0176,10.655 4.3856,2.1059 10.161,0.3057 12.618,-5.5359 2.058,-4.8948 7.3872,-16.763 11.195,-21.547 0.9136,-1.1443 1.372,-1.8303 1.8273,-2.6631 l 1.4888,-0.11633"
     id="path6081"
     style="fill:#0f141b" />
  <path
     d="m 1.884,194.029 c 2.5164,1.5158 5.2993,-0.16134 7.9354,-6.3417 0.71584,-1.6716 1.384,-1.4169 0.78801,0.30569 -2.4025,6.9019 -5.6737,8.3608 -8.0282,7.6179 l -0.69545,-1.5817"
     id="path6083"
     style="fill:#0f141b" />
  <path
     d="m 9.256,199.329 c 2.6212,-0.83556 4.9098,-3.9482 6.129,-8.4596 0.48232,-1.7914 1.1953,-1.6057 0.81518,0.20634 -0.88074,4.2029 -2.4474,6.896 -4.5144,8.3099 l -2.4294,-0.0594"
     id="path6085"
     style="fill:#0f141b" />
  <path
     d="m 62.279,115.129 c -0.008,-1.0874 -0.0594,-3.0945 -0.11973,-4.1789 l 1.1474,-0.034 c 0.09,1.1024 0.14351,3.0945 0.15879,4.1788 l -1.1863,0.034"
     id="path6087"
     style="fill:#0f141b" />
  <path
     d="m 89.129,60.749 c 5.2274,-2.3845 11.608,-2.8248 12.456,-0.89866 1.2522,2.8638 -8.867,13.9 -23.965,18.249 11.26,4.6672 19.612,17.539 19.612,27.832 0,14.394 -12.618,26.514 -28.401,28.153 -1.387,1.4379 -2.3755,3.0345 -2.669,4.3346 -0.14691,0.67083 0.051,0.84745 0.77612,0.71923 1.8243,-0.32013 3.8912,-1.4408 4.4604,-2.3306 0.59611,-0.92261 0.66828,-2.3066 0.60799,-3.8643 l 1.2432,-0.22503 c 0.09,1.8184 -0.12907,3.7595 -0.78461,4.781 -0.6496,1.0096 -3.1543,2.2258 -5.3682,2.6212 -1.6865,0.29381 -2.2437,-0.3957 -1.9052,-1.9142 0.37447,-1.6806 1.5247,-3.5648 2.717,-4.8619 0.3057,-0.33287 0.47043,-0.38976 0.99147,-0.4526 14.655,-1.8094 26.595,-13.342 26.595,-26.996 0,-9.2415 -7.6328,-21.694 -18.98,-26.694 -2.2468,-0.99155 -2.0521,-1.5847 0.16813,-2.2617 15.82,-4.8199 24.315,-15.119 23.728,-16.584 -0.35664,-0.87471 -6.9618,-0.66828 -12.878,2.4354 l 1.5966,-2.0431"
     id="path6089"
     style="fill:#0f141b" />
  <path
     d="m 46.875,108.969 c 0.2004,1.6835 -1.8423,2.9896 -3.2861,3.1574 -1.8753,0.22162 -3.6876,-0.77867 -3.8614,-2.2527 -0.17408,-1.4978 1.414,-2.9597 3.2023,-3.1574 1.6656,-0.18596 3.7805,0.81773 3.9452,2.2527"
     fill="#e95520"
     id="path6093" />
  <path
     d="m 79.249,108.599 c 0.0849,1.3031 1.8903,2.6392 4.134,2.5013 1.6416,-0.1019 3.379,-1.6596 3.2922,-3.0615 -0.0926,-1.5547 -1.9052,-2.5702 -3.7984,-2.4534 -2.0819,0.12568 -3.7356,1.2672 -3.6277,3.0136"
     fill="#e95520"
     id="path6095" />
  <path
     d="m 71.549,98.829 c -4.038,-1.8093 -14.505,-1.4408 -18.037,0.30824 -1.1923,0.5927 -1.357,1.0304 -1.357,2.6331 0,1.4619 0.034,2.9297 0.2004,5.0446 0.0849,1.1504 0.50015,1.5308 2.4174,1.0455 4.3587,-1.1054 10.503,-1.8154 16.302,-0.65894 1.5098,0.30569 1.9322,-0.0425 1.9531,-1.1833 0.0425,-1.9592 -0.017,-3.9841 -0.13502,-5.428 -0.0764,-0.95564 -0.33286,-1.3121 -1.345,-1.7615 m -20.322,8.0612 c -0.16813,-2.1329 -0.24286,-3.6366 -0.24286,-5.1195 0,-1.9351 0.22503,-2.7769 2.0011,-3.6547 4.2447,-2.1059 14.511,-2.3965 19.049,-0.36513 1.318,0.59016 1.8872,1.3091 2.007,2.765 0.11973,1.4738 0.15285,3.5528 0.11378,5.5449 -0.034,2.0041 -1.0725,2.6571 -3.3012,2.2078 -5.488,-1.0934 -11.752,-0.38042 -15.838,0.65555 -2.5013,0.63856 -3.6247,0.1435 -3.7894,-2.034"
     fill="#a4734a"
     id="path6097" />
  <path
     d="m 30.834,102.289 c -3.6037,-6.2818 -10.281,-7.3783 -11.135,-6.5215 -0.67677,0.67422 -0.24286,4.071 2.0729,6.9199 -4.4424,-2.3217 -10.7,-2.768 -11.305,-1.8872 -0.84745,1.2281 0.83896,7.7855 7.5519,13.432 3.7146,3.1244 9.583,5.5809 16.614,5.9523 3.358,0.17662 -0.56639,-12.273 -3.7984,-17.896"
     fill="#ffffff"
     id="path6099" />
  <path
     d="m 116.299,99.779 c -0.83302,-1.2881 -6.3567,-0.95258 -11.374,1.8692 1.9351,-3.2353 2.4833,-6.9798 1.7884,-7.5309 -1.5128,-1.2102 -7.8365,1.9561 -11.899,8.0582 -3.3042,4.9668 -7.1206,15.347 -3.7206,15.736 7.1804,0.81773 13.969,-2.3755 18.747,-6.8719 4.9847,-4.6851 7.4411,-9.7327 6.4586,-11.26"
     fill="#ffffff"
     id="path6101" />
  <path
     d="m 10.673,100.729 c 2.3725,9.1636 13.274,16.41 23.552,17.449 1.8813,0.19785 1.9621,1.6266 1.2252,2.1209 -17.827,-0.81518 -26.062,-14.103 -24.777,-19.57"
     id="path6103"
     style="fill:#dbdcdc" />
  <path
     d="m 20.058,95.589 c 0.41948,2.3455 2.8159,6.794 5.3382,9.4122 -1.2133,-0.91666 -2.5223,-1.8303 -3.7086,-2.3516 -1.8154,-2.5912 -2.8609,-5.9253 -1.6296,-7.0606"
     id="path6105"
     style="fill:#dbdcdc" />
  <path
     d="m 106.399,94.059 c -0.47043,2.4893 -3.3071,7.9233 -5.2243,9.8795 0.89866,-0.59016 2.5492,-1.6536 3.8553,-2.4264 1.0635,-1.8004 2.6751,-6.3897 1.369,-7.4531"
     id="path6107"
     style="fill:#dbdcdc" />
  <path
     d="m 116.169,99.779 c -2.735,7.8095 -14.361,16.901 -24.465,16.362 -1.5637,-0.0849 -1.9172,1.1773 -1.2252,1.8033 12.054,2.058 26.94,-11.051 25.69,-18.165"
     id="path6109"
     style="fill:#dbdcdc" />
  <path
     d="m 33.374,120.499 c -6.4974,-0.39231 -11.734,-2.1928 -15.883,-5.6857 -6.7102,-5.6527 -8.7322,-12.773 -7.5909,-14.427 1.1293,-1.6386 12.111,-0.051 15.463,4.4964 1.4888,2.019 0.86868,2.5643 -0.7515,0.63771 -3.6397,-4.3196 -13.178,-4.9218 -13.627,-4.3227 -0.45259,0.5995 0.56044,6.6293 7.528,12.495 3.5588,2.9956 8.9748,5.1495 14.942,5.8174 2.8039,0.31758 2.759,1.1654 -0.0849,0.98858"
     id="path6113"
     style="fill:#0f141b" />
  <path
     d="m 20.708,102.269 c -1.8692,-2.3576 -2.4415,-6.0152 -1.4588,-6.9978 1.2281,-1.2342 8.151,0.4942 11.413,6.0062 1.1533,1.9531 0.47043,2.4294 -0.79055,0.5511 -3.4091,-5.0686 -9.1995,-6.117 -9.7208,-5.6108 -0.39231,0.37703 -0.20635,3.8104 2.726,6.9109 l -2.1688,-0.85976"
     id="path6115"
     style="fill:#0f141b" />
  <path
     d="m 103.919,102.159 c 2.3696,-3.5139 2.8129,-7.1295 2.3576,-7.546 -0.86273,-0.78461 -7.2764,2.1298 -10.536,7.1476 -1.4948,2.2976 -2.2048,1.7674 -0.78207,-0.58082 3.2652,-5.3772 10.374,-8.9989 12.171,-7.5609 0.97058,0.77867 0.36853,4.5024 -1.2941,7.5939 l -1.9172,0.94663"
     id="path6117"
     style="fill:#0f141b" />
  <path
     d="m 91.929,118.419 c -2.1208,-0.23097 -2.007,-1.0994 0.11973,-0.98561 6.0901,0.31758 12.162,-2.1359 17.282,-6.9468 5.467,-5.1494 6.9948,-9.4362 6.4346,-10.308 -0.68866,-1.0604 -7.8875,-0.75744 -13.558,3.9513 -1.9232,1.5936 -2.4983,0.87769 -0.62582,-0.77867 5.7576,-5.0775 14.031,-5.8833 15.308,-3.9032 1.312,2.043 -1.8033,7.6688 -6.5395,12.12 -5.5868,5.2603 -12.33,7.522 -18.42,6.851"
     id="path6119"
     style="fill:#0f141b" />
</svg>
