<?xml version="1.0" encoding="UTF-8"?>
<!-- Created with Inkscape (http://www.inkscape.org/) -->
<svg version="1.1" viewBox="0 0 80.808 101.85" xmlns="http://www.w3.org/2000/svg">
 <g transform="matrix(-1 0 0 1 82.555 -1.3056)">
  <g fill="#fff">
   <path d="m45.201 73.972c1.2139-1.1869 3.1945-1.0029 3.8799 1.1869 0.56458 1.8074-0.34452 3.7735-2.1375 4.0386"/>
   <path d="m28.3 72.655c-8.0177 1.609-16.409-0.56095-20.217-6.8308-1.847-0.75576-3.8204-2.6678-5.0632-5.6764-1.1057-2.675-1.0678-6.3997-0.51227-6.6198 0.3463-0.1355 1.2229 0.38961 1.9354 0.91446-0.47802-2.3827 0.00358-4.8304 0.45818-4.9242 0.4185-0.08641 1.6739 1.3059 2.4892 2.5199 1.4935-4.1577 4.3489-8.0664 8.6364-10.579-8.272-6.701-5.3427-16.201-4.3128-16.358 0.19118-0.03068 1.2554 1.0624 1.9012 2.601 0.30847-5.1624 2.5776-10.094 5.9398-14.782 6.2789-8.75 14.233-11.67 15.162-11.165 0.58983 0.32263 1.3853 6.1147-0.64033 10.956 7.6552-7.0094 17.612-10.049 18.829-9.3381 0.84416 0.49238 0.28137 11.647-6.0516 20.97-4.5852 6.7515-10.662 11.788-17.841 14.652 7.5596 1.0841 13.755 5.285 15.75 12.027 1.0967 3.7103 0.70527 7.9023-1.4141 11.667 3.9376-4.1198 8.8745-7.2673 12.998-8.3171 3.7663-0.95961 6.0859 0.36251 6.811 2.9275 0.65476 2.3125-0.6259 5.7234-6.232 7.4243-5.3283 1.618-9.8612 3.1873-14.392 5.4564 0.50328 0.81348 1.2518 1.7388 2.0148 2.473 2.5938 2.4856 3.2107 5.3644 2.5397 7.4802 4.4661 2.3575 8.5931 3.1602 12.136 2.6732-0.32831-3.3586 3.8474-4.8449 7.7273-1.4178 4.0314 3.5607 8.4506 7.666 12.549 11.658 3.2233 3.1386 3.4398 7.666 0.97764 9.0026-2.7255 1.4809-7.3954 0.76481-11.043-2.8013-4.2226-4.1306-7.8175-8.2377-9.4607-12.695-3.3911 0.56642-8.8511-0.35178-14.558-4.0043-2.794 2.3791-7.877 2.8481-11.126 1.1562-2.9708 0.04091-5.1335 0.73771-5.7684 1.7208-1.0552 1.6342-1.5819 4.0639-1.7677 7.0184 1.8741 4.697 0.11182 10.489-8.4019 6.4827-4.0368-1.8993-11.03-10.503-12.931-17.311-1.167-4.1829 0.69265-8.6472 4.2857-9.4643 4.1703-0.95061 8.7176 2.7417 10.186 9.0513 0.67821 2.9113 1.8867 5.5917 3.5859 7.7471 0.55014-2.0635 1.7605-4.8973 2.7742-6.0588 1.0985-1.2572 3.337-1.9914 5.3987-1.7804-0.97584-1.7857-1.0209-3.8709-0.85137-6.4809-1.6017-0.68719-2.5144-1.2789-2.5018-1.9751"/>
   <path d="m30.801 74.631c-2.5649 2.096-8.4019 3.9412-11.762 3.9845-0.84055-2.9509-4.3182-6.4647-7.6606-6.6252 0.5772-0.45659 1.452-0.91452 2.188-1.1328 3.6219 2.2078 9.5509 2.9041 14.733 1.7984 0.13166 0.72871 0.77381 1.2933 2.5018 1.9751"/>
  </g>
  <path d="m44.006 28.089c-3.9575-3.539-10.518-6.1869-16.775-5.7865-3.8276 0.15339-10.135 1.6631-13.364 3.2179 0.72691-4.3741 2.8012-8.5769 5.6891-12.599 6.2789-8.7501 14.232-11.67 15.161-11.167 0.59163 0.32314 1.3871 6.1166-0.63853 10.958 7.6552-7.0112 17.61-10.049 18.829-9.3381 0.84416 0.49238 0.28137 11.645-6.0516 20.971-0.89467 1.3149-1.8452 2.5632-2.8499 3.7446" fill="#f2984f"/>
  <path d="m46.687 24.631c-4.9748-3.5804-11.912-6.0119-18.175-5.2652 7.2692-11.683 22.893-17.067 24.394-15.992 0.89828 0.64214 0.01636 12.211-6.2194 21.257" fill="#e95520"/>
  <path d="m14.533 22.555c2.9816-1.6504 10-3.1566 13.979-3.1927 1.1021-1.7568 3.6941-5.1245 5.5646-6.6522 1.5548-3.0033 1.6595-10.603 0.64033-10.956-2.3268-0.80269-16.041 7.0166-20.184 20.801" fill="#e95520"/>
  <g fill="#ffe792">
   <path d="m20.687 20.852c0.92352 0.31547-0.4726 5.5916-0.79185 9.1306-0.34273 3.7987-0.93976 8.723-1.425 8.7609-1.0859 0.08284-2.3683-6.0696-1.7677-9.421 1.0354-5.7774 3.5588-8.6165 3.9845-8.4704"/>
   <path d="m37.233 20.166c0.29584 0.18407-0.63312 4.4337-4.5653 9.8702-3.5606 4.9225-7.3503 8.2143-7.758 7.942-0.63312-0.42182 1.0823-6.149 3.9845-10.529 3.7031-5.5899 7.6768-7.6966 8.3388-7.2836"/>
   <path d="m20.772 58.086c-0.02863-1.1436-0.31026-1.4376-1.268-1.5044-2.0581-0.14265-4.8918 0-6.7912 0.33388-0.8658 0.15134-1.2157 0.57179-1.3456 1.5837-0.15871 1.2176-0.23811 2.5-0.11182 3.815 0.06857 0.71245 0.3914 0.88742 1.0624 0.90189 2.28 0.05113 4.9874 0 7.3287-0.2219 0.8153-0.07567 1.0281-0.294 1.0624-0.96498 0.06315-1.2681 0.09561-2.6443 0.06315-3.943"/>
  </g>
  <g fill="#e95520">
   <path d="m40.7 64.642c0.57901-0.28684 0.93074-0.12425 0.6728 0.55916-0.91631 2.4171-2.473 5.5971-4.1072 7.6822-0.65296 0.83516-1.1562 0.77201-1.4448-0.24185-0.36977-1.3095-0.20202-3.1097 0.34273-4.1504 0.78824-1.5025 2.776-2.9762 4.5365-3.8492"/>
   <path d="m28.359 72.618c-0.09919 0.50875 0.14071 0.80632 0.7215 1.1833 0.93074 0.60063 1.9463 0.94335 2.7201 1.0876 0.78644 0.14419 1.3276-0.55016 1.2735-1.1598-0.03988-0.44381-0.4365-1.4592-1.0155-2.1447-1.1562 0.45455-2.3431 0.80269-3.6995 1.0335"/>
   <path d="m9.7094 72.152c3.6959-0.84237 7.6894 1.9679 9.5708 7.013-0.32289 1.6162-1.2915 2.8608-4.394 3.3478-3.7031 0.58079-6.6054 0.57537-9.1685 0.04602-1.6865-4.9982 0.14971-9.5311 3.9917-10.406"/>
   <path d="m79.779 93.34c2.9491 3.1223 3.088 7.4135 0.69986 8.7103-3.5426 1.9246-8.3388 0.092-12.121-3.8744 4.5942 2.4711 11.158-1.7839 11.421-4.8359"/>
  </g>
  <path d="m17.154 63.131c-0.37698 0.78643-1.2392 1.9156-1.7587 1.9084-0.51768-0.0051-1.7641-0.59705-2.3034-1.8597 1.342 0.02045 2.8824 0.05113 4.0621-0.05113" fill="#f4ae7d"/>
  <path d="m34.61 1.7601c0.02352 3.2414-0.84957 9.3453-2.592 12.832 0.60245-0.60431 1.5855-1.4755 2.2349-1.9896 1.0498-2.4585 1.7442-9.1884 0.35714-10.842" fill="#ca491a"/>
  <path d="m28.721 39.105c-0.39324-0.59342-0.23448-1.3384 0.84055-1.8507 4.7944-2.2836 8.934-6.1851 12.533-10.66 0.67461 0.46733 1.3077 0.95782 1.8831 1.4683-3.9989 4.8305-9.1703 8.9322-15.256 11.043" fill="#dbdcdc"/>
  <path d="m43.976 28.063c-0.5754-0.51028-1.2085-1.0011-1.8831-1.4683 0.864-1.0732 1.6811-2.1952 2.4621-3.3514 0.70708 0.41876 1.3853 0.85863 2.0328 1.3185-0.80448 1.1959-1.6739 2.3701-2.6118 3.5011" fill="#d18344"/>
  <path d="m46.589 24.563c-0.64755-0.46017-1.3258-0.90188-2.0328-1.3185 4.0296-5.9668 6.9391-12.938 8.3189-19.96 1.1256 5.3806-1.25 13.797-6.2861 21.279" fill="#ca491a"/>
  <g fill="#dbdcdc">
   <path d="m36.547 67.833c-8.3244 5.3121-21.851 6.0336-29.21-3.5732 3.934 8.6256 14.232 10.648 24.823 7.3124 0.55195 0.74676 0.92172 1.7497 0.93796 2.4531 1.3023-0.19276 2.4459-1.0732 2.5686-2.2349-0.15871-1.4069 0.17676-2.7958 0.88024-3.9575"/>
   <path d="m43.54 59.374c-0.51948 1.8976-1.9084 3.9899-3.5985 5.662 0.75577-0.43461 1.4863-0.68724 1.5224-0.30678 0.69445-0.73776 1.5675-1.746 2.0888-2.2457 0.50864-1.0895 1.1129-2.7886 1.3059-3.5498-0.48522 0.21475-0.80267 0.31394-1.3186 0.44023"/>
   <path d="m4.9807 49.576c-0.285 2.4423 0.081192 5.3535 1.3222 7.0419l-0.12087 1.039c-2.1573-1.1815-2.5235-7.4297-1.2013-8.0808"/>
   <path d="m2.5992 53.564c-0.1425 4.2334 2.39 8.7501 4.7367 10.694l0.71789 1.4575c-4.6086-1.5603-6.9842-9.3832-5.4546-12.152"/>
   <path d="m45.796 74.117c1.6901 7.5289-10.106 9.7854-14.915 4.2371 0.1425 1.0371 0.40945 1.9985 0.72691 2.711-0.52129-0.06289-1.2229-0.01018-1.6035 0.05778 0.46539 0.91452 0.2489 2.5776-0.72692 3.5228 1.5206-0.6223 3.6887-1.0498 5.0253-0.91094 3.0123 1.6613 8.5751 1.1057 11.151-1.2211 0.8153 0.561 2.5758 1.5567 3.3929 1.9643-1.3077-1.2915-1.2753-2.9221-0.84236-3.9033l-0.90188-0.41313c0.62951-1.9643 0.04141-4.513-1.3059-6.0444"/>
   <path d="m49.063 75.222c-0.23269 0.76302-1.1039 1.4593-1.8813 1.4448 0.12266 0.65477 0.2309 1.5404 0.16234 2.3467 1.1869-0.17844 2.2493-1.4881 1.719-3.7915"/>
   <path d="m14.886 82.512c0.74315-0.11555 1.3582-0.27764 1.8777-0.47449 0.1966 0.49954 0.38961 1.0371 0.58261 1.6125 0.95419 2.8644 3.1927 6.4953 5.9272 9.0621 3.355 3.1494 3.8546 5.5899 1.9372 7.1104-5.1497 2.2313-13.936-4.3705-19.154-16.472-0.06857-0.25974-0.12445-0.51406-0.17134-0.76302 2.5235 0.49801 5.3788 0.49443 9.0008-0.07567"/>
  </g>
  <path d="m9.3826 76.261c3.2666-0.42591 5.4492 0.86763 7.3792 5.7757-0.51768 0.19839-1.1346 0.35893-1.8759 0.47449-3.6238 0.57-6.4773 0.57358-9.0008 0.07567-0.6692-3.6671 1.149-6.021 3.4975-6.3258" fill="#ca491a"/>
  <path d="m61.594 86.161c0.97223-0.40597 2.2529-0.11197 3.6256 0.94882 2.8427 2.1988 5.5375 5.0379 8.9394 8.9755 0.57901 0.67098 1.2067 1.1887 1.8489 1.5747-2.2511 1.232-5.1227 1.7839-7.5 0.58984-0.86039-0.81169-1.7767-1.7478-2.758-2.8319-2.675-2.9546-5.1714-6.9318-5.8063-8.8673 0.56818-0.01017 1.1941-0.20043 1.6504-0.38961" fill="#dbdcdc"/>
  <path d="m76.007 97.661c2.6191 1.5855 5.4347 0.93977 5.8243-0.99387 0.09561 0.22549 0.18581 0.4525 0.27058 0.68362 0.60787 2.307-0.32647 4.9693-4.4246 5.4564-2.2186 0.26535-5.0325-0.66015-9.1703-4.5581 2.3774 1.194 5.2489 0.64394 7.5-0.58805" fill="#ca491a"/>
  <path d="m11.407 90.406c-0.28858-0.48522-0.06672-0.72334 0.55375-0.68545 1.9661 0.11913 4.8539-0.03579 6.3312-0.24542 0.73052-0.10482 0.99388-0.02045 1.2536 0.46171 0.59524 1.0949 1.2013 2.0978 1.9805 3.2991 0.47076 0.72692 0.37156 1.1905-0.34452 1.3456-1.82 0.39677-3.4813 0.45608-5.2345 0.38961-0.80448-0.03068-1.1075-0.19838-1.5584-0.68545-0.99026-1.0696-2.2024-2.5739-2.9816-3.8799" fill="#dbc77f"/>
  <path d="m15.779 71.993c-0.55375 0.1585-1.2392 0.47449-1.7947 0.79186 1.5314 0.68545 3.6941 2.5325 5.1191 5.7792 2.5595-0.1314 8.3135-1.3203 11.717-3.9051-1.0823-0.39677-2.5325-1.1887-2.5072-2.0058-4.2479 0.92351-9.0765 0.60605-12.534-0.66019" fill="#dbdcdc"/>
  <path d="m60.692 54.34c1.5566 1.9787 1.2302 5.7882-4.8287 7.8806-5.9109 2.04-11.751 4.7493-15.094 7.3377-0.69625 0.53569-0.80989 1.5115-0.35893 1.7316 4.7908-2.6299 11.23-5.0938 15.77-6.3077 9.7998-2.6209 7.6209-9.4914 4.5112-10.642" fill="#dbdcdc"/>
  <path d="m30.82 74.658c0.27058-1.1273 1.4159-1.5999 2.2439-1.2139-0.19481-0.44023-0.52128-1.2987-0.90368-1.8723-1.3131 0.48318-2.5974 0.81711-3.8474 1.0804 0.05409 0.73955 0.96682 1.3546 2.5072 2.0058" fill="#ca491a"/>
  <path d="m39.414 69.328c-1.3023 1.7948-3.1151 2.2692-3.5011-0.21117-0.51768 2.1699-0.09919 4.2262 0.49243 4.3272 0.61508 0.10635 2.1988-2.3052 3.0087-4.1162" fill="#ca491a"/>
  <g fill="#0f141b">
   <path d="m33.275 71.435c1.2193-0.53932 1.0444-0.96498-0.20565-0.50517-10.052 3.7104-21.064 1.6883-25.323-6.2735-0.73233-1.3691-1.1183-1.1778-0.48523 0.2398 3.8456 8.6184 15.967 10.976 26.014 6.5386"/>
   <path d="m13.693 27.017c-0.65837-1.3871-1.6883-2.3305-2.0292-2.2692-1.0245 0.15697-2.3016 4.2695-1.3781 8.42 0.64755 2.9131 2.087 5.7378 5.1443 8.2522-5.8532 3.5173-9.5653 10.034-9.5491 17.26 0.00358 1.802 0.46718 1.8056 0.54113 0.0051 0.26516-6.5098 3.7608-13.052 9.4679-16.701 0.59163-0.37888 0.64394-0.55737 0.04704-1.0624-3.0718-2.61-4.32-5.6151-4.8251-7.9293-1.0209-4.6934 0.45455-7.5253 0.61869-7.5343 0.1425-0.01017 1.4051 1.4953 1.8326 3.0826z"/>
   <path d="m6.2226 57.437c-1.14-1.1635-1.4647-2.767-1.5837-4.0458-0.20744-2.1826 0.18397-3.4705 0.35893-3.5174 0.20381-0.05778 1.2717 1.0047 2.2565 2.5541l0.27779-0.7666c-0.86761-1.2464-2.0833-2.6317-2.7237-2.4982-0.63312 0.13192-1.0588 2.0365-0.85138 4.2894 0.16234 1.7839 0.81711 3.631 2.2114 4.7872z"/>
   <path d="m7.7956 65.342c-1.7803-0.97582-3.3279-2.8247-4.3777-5.3607-1.2392-2.9979-0.92172-6.0336-0.75217-6.1039 0.17134-0.072092 0.87843 0.25412 1.8741 1.0318l-0.16776-0.92714c-0.75217-0.60247-1.5639-0.96503-2.0166-0.78643-0.87302 0.34462-0.82973 4.4372 0.27779 7.1122 1.2428 3.0069 3.3947 5.1534 5.6746 5.9542z"/>
   <path d="m41.471 65.322c4.035-5.0397 10.083-9.2894 15.009-10.545 3.3009-0.84053 5.5538 0.03068 6.2915 2.6353 0.6728 2.3756-1.0841 5.4798-5.9741 6.9661-5.7558 1.746-10.61 3.3983-15.384 6.0588-1.4917 0.83332-1.2915 1.259 0.2489 0.48522 4.908-2.4639 9.6519-4.0981 15.382-5.8388 6.5332-1.9823 7.1014-5.8496 6.5188-7.9113-0.74495-2.6299-3.1169-4.2551-7.3179-3.1855-4.9062 1.25-10.887 5.4149-14.919 10.474z"/>
   <path d="m62.211 55.392c-1.2157-0.40597-2.4693-0.30116-3.4885 0.20554-0.97764 0.48522-0.83695 0.8099 0.18938 0.43819 1.1598-0.41671 2.5451-0.37683 3.8005 0.21986z"/>
   <path d="m63.166 59.679c-0.51227-0.95056-1.9282-1.2662-4.0512-0.47449-1.0426 0.38961-0.91992 0.73776 0.14613 0.45659 2.197-0.58084 3.3045-0.28326 3.5588 0.8279z"/>
   <path d="m24.337 57.875c-0.29942 3.3081 1.4989 5.2381 4.0025 4.4878 2.1357-0.64214 2.5325-2.8265 2.0617-4.5599-0.48702-1.7929-1.5693-2.9491-2.7561-3.4145-0.79185 1.0425-2.105 2.5036-3.3081 3.4867"/>
   <path d="m9.0144 63.329c-1.1237-0.11555-2.224-1.7154-2.0058-4.2046 0.13887-1.5819 0.78644-2.9383 1.5639-3.4848 0.57359 0.93251 1.5855 1.9607 2.509 2.8156 0.07757 0.53211 0.12087 1.2049 0.0974 1.8868-0.07577 2.1988-1.066 3.0988-2.1645 2.987"/>
   <path d="m12.686 63.192c0.66559 1.3041 1.9571 2.2403 2.7525 2.1573 0.64755-0.07056 1.6378-1.0678 2.1862-2.2385l-0.7648 0.0051c-0.5267 1.0029-1.2031 1.5982-1.5097 1.6306-0.3824 0.0409-1.3149-0.54474-1.9336-1.5531z"/>
   <path d="m18.238 68.454c-1.2716-0.93798-2.2727-2.325-2.5902-3.4957l-0.66017 0.04091c0.35714 1.3871 1.4647 2.8932 2.5668 3.7175z"/>
   <path d="m40.832 64.911c0.3301-0.16413 0.39503-0.12629 0.27416 0.19123-0.80808 2.1356-2.3792 5.395-4.0693 7.5938-0.49059 0.63672-0.71789 0.60968-0.93074-0.14265-0.31747-1.1165-0.1876-2.8283 0.38061-3.9123 0.77562-1.4827 2.8337-2.9798 4.3453-3.7302m-0.26337-0.53932c-1.5837 0.78643-3.8582 2.334-4.7259 3.9935-0.6223 1.1851-0.71068 2.9437-0.31026 4.3597 0.34994 1.2338 1.0588 1.4412 1.9805 0.33184 1.7514-2.1104 3.2991-5.3734 4.1342-7.7598 0.37519-1.0733-0.13166-1.3961-1.0786-0.92535"/>
   <path d="m31.767 71.693c0.55917 0.61873 0.97042 1.6613 1.0065 2.0635 0.04858 0.561-0.44734 0.92893-0.93074 0.83874-0.80809-0.14981-1.6919-0.53748-2.5469-1.0913-0.58081-0.3753-0.66739-0.56274-0.56458-0.95056l-0.72511 0.15339c-0.06673 0.59163 0.18397 0.9343 0.90549 1.3997 0.84236 0.54474 1.802 0.88568 2.8391 1.0769 1.0877 0.20043 1.7027-0.67282 1.6324-1.47-0.05061-0.57363-0.40582-1.4719-1.0065-2.2241z"/>
   <path d="m19.176 78.92c3.9719-0.05931 9.1775-2.0707 12.264-4.1198l-0.79546-0.25258c-3.07 1.8254-8.0231 3.6436-11.773 3.64z"/>
   <path d="m11.913 72.112c0.56818-0.47244 1.3907-0.75939 2.2926-0.864l-1.0606-0.58079c-0.90008 0.21833-1.6703 0.69624-2.2709 1.3203z"/>
   <path d="m30.387 75.049c-0.1876 2.5379 0.03783 4.4914 0.83153 6.0119l0.87663 0.09919c-0.94517-1.7388-1.1742-3.9538-0.88384-6.5747z"/>
   <path d="m47.447 80.276c0.70166-2.0365 0.35172-5.0072-2.5992-7.9041-0.8153-0.80085-1.4665-1.5657-1.9787-2.3755l-0.6692 0.34257c0.53031 0.84416 1.2789 1.8038 2.0906 2.5938 2.7706 2.6912 2.9095 5.368 2.4711 6.995z"/>
   <path d="m60.676 82.809c1.3907-0.37172 1.2861-0.81527-0.12445-0.52306-4.1396 0.86037-8.7735-0.05113-13.595-2.5704-1.0444-0.54474-1.2915-0.02557-0.27058 0.56279 4.7547 2.7237 9.7132 3.6724 13.99 2.5306"/>
   <path d="m23.768 89.279c0.61147-2.2872 1.8489-5.1137 2.7742-6.1436 1.0768-1.1977 3.4344-1.9661 5.6656-1.627 1.1328 0.17129 1.25-0.36251 0.13166-0.60968-2.307-0.50875-4.9405 0.21475-6.3546 1.7515-1.1093 1.2031-2.2204 3.9845-2.7742 5.9867z"/>
   <path d="m45.734 73.936c1.1147-0.69987 2.473-0.39677 3.0159 1.3402 0.4726 1.5061-0.16055 3.0285-1.3997 3.4903l-0.04499 0.69261c1.7352-0.39319 2.7489-2.3791 2.1122-4.4102-0.70346-2.2457-2.895-2.5757-4.0837-1.5909z"/>
   <path d="m12.072 90.048c1.9264 0.10277 4.7709-0.04091 6.2735-0.25616 0.62049-0.08846 0.74135-0.03579 0.92352 0.30116 0.5736 1.057 1.1724 2.0418 1.9914 3.3063 0.39319 0.60605 0.22185 0.80448-0.1425 0.88384-1.6144 0.34973-3.1512 0.45813-5.1606 0.38245-0.7702-0.03068-0.89286-0.09919-1.3474-0.58984-0.87663-0.94514-2.0527-2.4044-2.8554-3.7229-0.16055-0.26127-0.09919-0.32826 0.31747-0.30474m-0.93976 0.51948c0.82251 1.3799 2.1176 2.9365 3.0357 3.9268 0.55556 0.60247 0.79906 0.7666 1.7713 0.77738 1.8615 0.02557 3.6147 0.02045 5.3265-0.38603 0.82432-0.19839 1.2121-0.75576 0.52489-1.8128-0.81169-1.2536-1.3997-2.2276-1.9661-3.2901-0.35536-0.66919-0.64575-0.7648-1.5693-0.6313-1.5242 0.22344-4.3687 0.36456-6.2681 0.249-1.0823-0.06136-1.2193 0.55379-0.85498 1.167"/>
   <path d="m13.224 72.351c-1.6414 0.97945-2.1158 3.6797-1.0823 6.8128 0.38061 1.1508 0.75037 1.0624 0.46176-0.12987-0.7648-3.1529-0.30484-5.5862 1.342-6.3564z"/>
   <path d="m7.5516 73.222c-0.8153 2.123-0.73593 4.5238 0.24169 7.188 0.42208 1.1508 0.79546 1.0552 0.45455-0.14777-0.83514-2.9564-0.77201-5.4275 0.25611-7.6497z"/>
   <path d="m59.616 86.614c1.7569 4.7854 5.7089 9.1757 9.5816 12.919 3.7717 3.6436 8.5769 4.4282 11.479 2.8517 2.7453-1.4917 2.509-6.3167-0.89467-9.6338-4.0711-3.9628-8.5318-8.1007-12.56-11.66-4.0061-3.5371-8.7067-2.0364-8.355 1.7443l0.71068-0.09715c-0.25611-2.8355 3.3766-4.3525 7.114-1.048 4.0224 3.5534 8.4578 7.6605 12.524 11.62 3.2233 3.1404 3.1223 7.2872 1.0877 8.3929-2.6263 1.425-7.1032 0.73056-10.613-2.7038-3.6797-3.5985-7.7399-7.9798-9.3633-12.507z"/>
   <path d="m81.479 101.15c-1.1851 0.36967-3.0736-0.0664-5.2508-2.1158-0.96501-0.90909-1.2157-0.65298-0.3391 0.33899 1.5801 1.7821 3.4145 2.6732 4.8738 2.5595z"/>
   <path d="m76.281 102.72c-1.8741-0.87663-3.1079-2.0707-3.9629-2.9762-0.74676-0.78822-1.0101-0.55916-0.36256 0.3119 0.54474 0.73776 1.2374 1.4917 2.4874 2.307z"/>
   <path d="m34.794 12.104c1.5639-4.2587 1.075-10.088 0.09377-10.696-1.1959-0.74134-9.4878 2.5253-15.723 11.214-4.9279 6.8687-6.8074 13.499-5.57 19.647 0.34814 1.7298 0.75037 1.6847 0.5267-0.07925-0.8153-6.4195 1.0372-12.246 5.8875-19.004 6.4917-9.0495 14.026-11.418 14.499-11.1 0.36072 0.24185 1.1869 6.0084-1.0444 11.081z"/>
   <path d="m44.227 61.965c1.5963-3.2234 2.224-7.0004 1.0191-11.079-1.838-6.2122-7.2692-10.685-14.923-12.033 6.7767-2.8013 12.549-7.7129 16.997-14.262 6.2627-9.2208 7.0347-20.821 5.8153-21.533-1.3131-0.7666-8.4272 1.2717-15.189 5.9777-3.3586 2.3359-7.179 5.7215-9.7511 10.372-0.92894 1.6811-0.57901 1.8868 0.45634 0.27048 2.7489-4.2876 6.2771-7.3269 9.9026-9.8323 7.2042-4.9784 13.525-6.5531 14.131-6.1472 0.43292 0.29042 0.17318 10.86-6.259 20.332-4.3795 6.4466-10.056 11.394-16.679 14.259-1.4123 0.61146-1.5043 0.90546 0.12266 1.2194 7.2024 1.3943 12.644 5.597 14.435 11.652 1.1165 3.7771 0.56818 8.3875-1.8092 12.163z"/>
   <path d="m21.163 36.739c0.36977-2.5596 1.0029-4.7241 2.096-7.1952 0.43471-0.98308 0.01432-1.1905-0.49065-0.24185-1.2103 2.2764-1.8182 4.8377-2.0815 7.3828-0.12987 1.2608 0.29584 1.2987 0.47618 0.0542"/>
   <path d="m20.613 21.231c0.48702 0.20196-0.88565 6.0083-1.1219 8.7248-0.35356 4.0621-0.88565 8.4182-1.1003 8.4146-0.51587-0.0051-1.9463-5.1371-1.2554-8.9917 0.99387-5.543 3.263-8.236 3.4776-8.1476m-2.2403 17.305h-0.0056zm0.22728 0.54111c0.75217-0.06289 1.3131-5.1678 1.7352-9.0747 0.41666-3.8799 1.7136-9.2299 0.45276-9.4932-0.80087-0.16617-3.4596 2.9906-4.4932 8.7554-0.46897 2.6137 0.47618 9.9658 2.3052 9.8124"/>
   <path d="m37.233 20.166h-0.0036zm-0.12624 0.20196m-0.13166 0.06494c0.12445 0.07056-0.73233 3.9485-4.6645 9.3832-3.8131 5.2706-7.0762 7.9077-7.2295 7.8175-0.26337-0.15697 1.131-5.3481 4.1829-9.9531 3.7789-5.7053 7.4712-7.381 7.7111-7.2476m0.4726-0.579c-0.92533-0.579-5.267 1.8777-8.9196 7.3918-2.7363 4.127-4.7547 10.409-3.8258 11.019 0.83154 0.54469 4.991-3.3586 8.337-7.9853 3.5047-4.8449 5.1624-9.955 4.4084-10.426"/>
  </g>
  <path d="m25.333 56.942c-0.1786 1.259 0.47438 2.0707 1.2121 2.0419 0.60426-0.02557 1.1436-0.65298 1.1436-1.7605 0-0.864-0.48522-1.5152-0.98305-1.6649-0.36256 0.40751-1.0354 1.0823-1.3727 1.3835" fill="#fff"/>
  <path d="m8.3566 57.901c-0.1064 0.93793 0.1786 1.4592 0.64574 1.5115 0.39324 0.04091 0.83695-0.36251 0.94337-1.3059 0.088404-0.7756-0.22548-1.3943-0.63312-1.4394-0.41487-0.046018-0.85137 0.3032-0.95599 1.2338" fill="#fff"/>
  <path d="m28.327 53.732c-1.1093 1.7821-2.6118 3.3784-3.9971 4.5004-0.50322 0.40597-0.84236 0.16617-0.21101-0.39677 1.2518-1.1219 2.6768-2.6515 3.9178-4.2875 0.51407-0.67824 0.69265-0.4617 0.29042 0.18407" fill="#0f141b"/>
  <path d="m10.899 58.657c-1.3546-1.1454-2.5162-2.6064-3.0033-3.8258-0.25432-0.6403-0.032211-0.67998 0.29221-0.14061 0.60787 1.0155 1.6144 2.2619 2.7868 3.4073 0.49964 0.4888 0.41308 0.97224-0.07578 0.55916" fill="#0f141b"/>
  <path d="m20.476 58.098c0.02863 1.1653 0.01278 2.5126-0.05594 3.9142-0.02506 0.49085-0.11003 0.63494-0.80268 0.70166-2.4531 0.23264-5.4077 0.25258-7.2908 0.21475-0.5754-0.01017-0.73413-0.11913-0.78464-0.64756-0.11003-1.1417-0.0613-2.3232 0.12445-3.7518 0.11361-0.87484 0.37156-1.1995 1.1075-1.3222 1.8921-0.31547 4.6429-0.46017 6.7028-0.32314 0.77922 0.05113 0.97584 0.25054 0.99928 1.2139m-0.79546 5.1804c0.96862-0.07567 1.2861-0.40955 1.3276-1.2428 0.07036-1.4124 0.09561-2.7724 0.06672-3.9503-0.03221-1.3023-0.36977-1.7208-1.5404-1.8019-2.0473-0.14265-4.9387-0.0018-6.8579 0.33388-1.1724 0.20401-1.4592 0.80448-1.5945 1.838-0.1876 1.461-0.21828 2.7237-0.10462 3.8998 0.07936 0.81527 0.43292 1.1237 1.3492 1.1472 1.9102 0.05113 4.8629-0.03068 7.3539-0.22344" fill="#b2814f"/>
  <path d="m29.434 61.174c-0.44913 0.84416-2.2836 1.2266-3.2197 0.7125-0.75758-0.41671-0.20023-2.0419 1.1219-2.2692 1.6468-0.2848 2.3719 1.0408 2.0978 1.5567" fill="#e95520"/>
  <path d="m10.184 62.52c-0.3391 0.561-1.517 0.75218-2.0455-0.10635-0.33909-0.55016 0.18939-1.8597 0.9109-1.8597 0.79185 0 1.517 1.333 1.1346 1.9661" fill="#e95520"/>
  <path d="m37.671 51.784c2.2331-5.8514 7.6624-7.3178 8.6039-6.4286 0.28321 0.26536 0.04499 2.4171-0.864 4.2208 3.1981-2.0256 6.3023-2.1898 6.7803-1.5891 0.71429 0.90188-2.0581 10.48-10.236 11.827-3.7139 0.61331-5.8532-3.9178-4.2839-8.0304" fill="#fff"/>
  <path d="m52.14 47.923c-1.0805 4.8161-6.1995 9.724-9.6303 10.446-1.2229 0.25821-1.4773 1.1436-0.92713 1.5224 5.9416-0.7125 10.815-6.7479 10.557-11.968" fill="#dbdcdc"/>
  <path d="m46.07 45.23c-0.19481 1.3456-1.443 4.2533-2.7453 5.8171 0.73774-0.64036 1.5404-1.1833 2.1916-1.5639 0.87843-2.3106 0.99928-3.9827 0.55376-4.2533" fill="#dbdcdc"/>
  <path d="m45.904 49.332c0.8153-1.6703 1.0462-3.8492 0.6241-4.246-0.80267-0.7576-3.7194-0.25258-6.1851 1.9967-1.1833 1.0769-2.0491 2.4459-2.6299 3.9935-0.51227 1.3673-0.06672 1.4917 0.50143 0.1856 0.65477-1.5026 1.4322-2.5542 2.5956-3.6165 2.4405-2.2295 4.9225-2.3539 5.1984-2.0256 0.20922 0.249-0.14792 2.5433-1.1526 4.2533z" fill="#0f141b"/>
  <path d="m42.771 59.898c2.8662-0.46528 5.0668-2.1122 6.517-3.8222 3.0105-3.5516 3.7626-7.6209 3.2125-8.3154-0.50685-0.63672-2.96-0.68361-5.8279 0.68366-1.3438 0.6403-2.8481 1.737-4.127 3.1349-0.98305 1.0751-0.63854 1.3925 0.38961 0.36456 1.2951-1.2915 2.7579-2.1808 4.0819-2.8175 2.7778-1.3348 4.6898-1.1526 4.8864-0.91452 0.29221 0.3482-0.53572 4.0837-3.263 7.316-1.3889 1.6451-3.2396 3.1783-5.9704 3.8438-1.5404 0.3753-1.4466 0.77922 0.10104 0.52674" fill="#0f141b"/>
  <path d="m26.281 64.38c1.4123 0.89831 1.8398 3.5372 0.09198 4.7638-2.289 1.6053-7.215 1.7226-10.097-0.3032 3.0051 0.22344 8.4939-1.6775 10.005-4.4607" fill="#fff"/>
  <path d="m26.772 64.82c-0.22727 1.9426-5.0397 4.6284-9.2803 4.7349-0.51768-0.24696-0.8153-0.42182-1.2067-0.73234 4.3886 0.08282 9.0242-2.2673 10.016-4.4553 0.16234 0.10124 0.29942 0.22191 0.47076 0.4525" fill="#dbdcdc"/>
  <g fill="#0f141b">
   <path d="m15.529 68.784c2.3738 2.1681 8.0682 2.6714 11.077 0.67282 1.7551-1.167 1.6342-3.8727 0.17134-5.1371-0.37519-0.32263-0.63853-0.32468-0.95239 0.15134-1.8921 2.8788-8.1061 4.789-10.676 3.8474-1.0011-0.36814-1.1959 0.06136-0.21828 0.4888 2.4928 1.0877 9.5022-0.70166 11.438-3.9358 0.83875 0.69987 1.3654 2.9131-0.21828 3.9647-2.3196 1.5422-6.6667 1.737-9.5798-0.02045z"/>
   <path d="m26.885 68.71c-0.36798-0.2669-0.60606-0.47602-0.88024-0.7756-0.63492-0.69087-0.93795-0.39524-0.34452 0.33184 0.25611 0.31547 0.49064 0.57 0.79365 0.82611z"/>
   <path d="m18.575 68.689c-1.4286-0.92893-2.583-2.4567-2.9275-3.7302l-0.66017 0.04091c0.37519 1.4538 1.5729 3.0393 2.7273 3.8312z"/>
   <path d="m27.118 92.376c0.19302-3.0502 0.76119-5.2688 1.7244-6.7605 0.59885-0.92536 2.5559-1.526 5.3644-1.5729 3.3009 1.71 8.4993 1.2482 11.237-1.0534 6.3727 4.0007 12.354 4.5473 15.354 3.6743 1.2229-0.35535 1.0985-0.79906-0.14429-0.52848-3.0862 0.67277-8.7843 0.11198-14.901-3.824-0.285-0.18202-0.37877-0.18202-0.71429 0.08129-2.6768 2.0834-7.3124 2.5956-10.429 1.0769-0.18039-0.08999-0.26332-0.11555-0.5267-0.10839-2.8157 0.07209-5.1299 0.71613-5.8694 1.8651-1.0083 1.5674-1.6017 3.8853-1.7857 6.8976-0.02148 0.33388-0.01073 0.4024 0.0884 0.68903 1.6414 4.7421-0.38961 9.3254-7.9853 5.7504-4.0278-1.8958-10.873-10.451-12.715-17.053-1.1273-4.035 0.75578-8.2414 3.9953-8.9791 3.7392-0.85142 8.1079 2.6624 9.7529 8.7518 0.87122 3.2234 2.3972 5.9326 4.0296 8.245 0.63312 0.89468 1.0426 0.54653 0.40945-0.3482-1.7262-2.4404-2.9113-4.8611-3.7644-8.0646-1.7821-6.6938-6.3041-10.316-10.633-9.3309-3.8925 0.88742-5.8117 5.4329-4.5509 9.9477 1.9228 6.8939 8.9863 15.606 13.14 17.56 8.64 4.0675 11.05-1.728 8.9232-6.9156"/>
  </g>
 </g>
</svg>
