<?xml version="1.0" encoding="UTF-8"?>
<!-- Created with Inkscape (http://www.inkscape.org/) -->
<svg version="1.1" viewBox="0 0 55.425 100.71" xmlns="http://www.w3.org/2000/svg">
 <g transform="matrix(.86683 0 0 .86683 0 -.0058719)">
  <path transform="translate(-.564 -.465)" d="m64.036 111.49c-0.429-3.017-4.43-4.929-8.282-5.477-3.8-0.541-10.314-1.547-13.063-4.285a55.4 55.4 0 0 0 1.153-10.374c4.363-4 1.46-10.942-1.447-14.576a5.3 5.3 0 0 0 1-0.843 2.418 2.418 0 0 0 0.089-3.3 0.722 0.722 0 0 0-0.543 0.016l-0.046-0.095c2.937-1.353 7.737-5.844 8.971-10.4 9.12-3.929 8.379-13.949 7.375-14.559-0.623-0.375-4.242 0.868-6.417 4.223 0.587-3.042 0.049-5.509-0.529-5.732-0.488-0.189-2.783 1.511-3.218 4.309a18.214 18.214 0 0 0-12.779-7.548c7.188-6.375 7.7-14.921 6.723-15.284-0.4-0.148-2.417 1.709-3.514 3.33 2.445-15.566-7.863-30.327-10.652-30.058-2.2 0.212-7.255 11.844-6.239 23.434-6.241-11.824-18.067-17.96-20.248-16.765-0.844 0.462-4.275 12.451 4.461 24.623 3.93 5.475 11.284 10.65 16.929 12.314-4.223 1.974-8.011 7.181-9.265 11.47-1.153-1.961-3.486-3.1-4-2.722s-0.112 2.881 1.049 4.7c-3.922-2.1-9.307-1.008-9.75-0.169-0.809 1.533 4.782 9.791 13.949 9.373 2.68 4.783 8.591 7.761 14.345 8.276a1.909 1.909 0 0 0-1.879 1.288 0.92 0.92 0 0 0 0.116 0.86c-3.477 1.578-11.819 4.999-13.425 5.739-4.125 1.9-5.839 3.781-4.748 6.467 1.258 3.1 6.827 2.092 10.824-0.031a27.922 27.922 0 0 0 9.6-8c-1.746 3.481-2.4 8.937 1.1 10.45a31 31 0 0 1-4.159 9.643c-1.465 1.865-8.493 4.169-12.2 5.249-2.536 0.739-4.926 2.64-4.759 4.944 0.288 3.97 7.074 4.187 11.933 2.76 5.674-1.667 9.2-6.87 9.314-9.575a4.752 4.752 0 0 0-0.633-2.593 1.925 1.925 0 0 1 0.036-1.752c0.765-1.548 3.168-6.612 3.6-7.956a13.7 13.7 0 0 0 6.134-0.432c0.142 1.362 0.2 7.86-1.148 10.1-0.392 0.652-1.966 1.1-2.42 2.764-1.355 4.975 10.592 9.946 16.846 10.629 6.036 0.66 10.222-1.62 9.821-4.44" fill="#fff"/>
  <g fill="#dbdcdc">
   <path transform="translate(-45.524,-35.086)" d="m81.265 77.473c7.188-6.375 7.7-14.921 6.724-15.284a0.19 0.19 0 0 0-0.1 0c-0.71 5.822-4.716 12.032-7.192 14.678-0.327 0.35-0.438 0.751 0.268 0.894a6.828 6.828 0 0 0 1.549-0.1c-0.418-0.076-0.836-0.141-1.252-0.182"/>
   <path transform="translate(-47.847,-136.37)" d="m111.32 247.4c-0.013-0.092-0.04-0.18-0.059-0.271-5.4 5.751-22.614 0.582-26.69-5.481-0.576 4.826 10.857 9.529 16.929 10.192 6.036 0.66 10.222-1.62 9.821-4.44"/>
   <path transform="translate(-13.06,-134.35)" d="m44.24 238.06c-2.819 7.819-14.186 10.833-21.162 8.02 0.517 3.76 7.137 3.946 11.906 2.545 5.674-1.667 9.2-6.869 9.314-9.575a4.748 4.748 0 0 0-0.059-0.989"/>
   <path transform="translate(-37.494,-112.7)" d="m80.505 208.21a35.308 35.308 0 0 0 0.268-4.62 6.675 6.675 0 0 0 2.11-3.887c-3.842 3.657-15.143 3.658-16.612 0.428-0.036 0.251-7e-3 0.853-5e-3 1.221a4.081 4.081 0 0 0 2.335 3.029 16.593 16.593 0 0 1-0.994 3.345 12.12 12.12 0 0 0 2.488 1.2c0.737-1.6 1.426-3.161 1.638-3.822a13.693 13.693 0 0 0 6.134-0.432 34.279 34.279 0 0 1 0 4.473 15.6 15.6 0 0 0 2.637-0.933"/>
   <path transform="translate(-12.134,-104.17)" d="m42.359 184.59c-3.845 3.844-15.589 11.068-20.917 8.24 0.645 2.512 4.337 4.163 11.1 0.57 3.846-2.043 8.156-5.4 10-8.7z"/>
   <path transform="translate(-1.503,-60.988)" d="m60.182 108.13a0.447 0.447 0 0 0-0.152-0.051c-0.491 5.9-4.837 12.141-8.114 13.647-1.374 4.866-7.272 10.777-14.079 12.3-9.092 2.04-17.8-2.715-20.463-7.425-4.764 0.319-12-4.412-14.62-8.389a0.3 0.3 0 0 0-0.02 0.028c-0.809 1.533 4.782 9.791 13.949 9.373 2.68 4.783 8.591 7.76 14.345 8.276 0.01 0.022 4.937 2.951 4.937 2.951a7.659 7.659 0 0 1 4.742-0.838l3.131-4.91c2.937-1.353 7.737-5.845 8.971-10.4 9.119-3.933 8.378-13.952 7.373-14.557" fill="#dbdcdc"/>
  </g>
  <g fill="#e95520">
   <path transform="translate(-62.221,-137.29)" d="m125.69 248.32c-0.346-2.433-3.114-4.381-6.217-5.044-4.777-0.024-9.527 2.745-9.527 6.546a2.617 2.617 0 0 0 0.79 1.794 20.823 20.823 0 0 0 5.134 1.144c6.036 0.66 10.222-1.62 9.821-4.44"/>
   <path transform="translate(-13.014,-137.94)" d="m39.222 246.72c-1.512-2.95-9.153-2.449-12.543-1.813-2.089 0.906-3.817 2.579-3.674 4.549 0.288 3.97 7.074 4.187 11.933 2.76a13.873 13.873 0 0 0 4.312-2.167 3.9 3.9 0 0 0-0.028-3.329"/>
   <path transform="translate(-50.971,-93.433)" d="m93.895 165.61c-0.253-0.2-1.82 0.256-2.946 1.962-0.935 1.415-1.077 2.937-0.652 3.215 0.3 0.194 2.533-0.775 3.51-1.88a2.418 2.418 0 0 0 0.089-3.3"/>
   <path transform="translate(-35.967,-97.009)" d="m63.614 173.2c0.325-0.99 1.35-1.615 3.39-1.13a5.238 5.238 0 0 1 3.425 2.625c0.147 0.332 0.23 0.591-0.287 0.611a22.6 22.6 0 0 1-4.739-0.376c-0.958-0.212-2.118-0.727-1.789-1.731"/>
  </g>
  <path transform="translate(-37.01,-70.875)" d="m66.079 127.69a14.615 14.615 0 0 1 9.6-1.9 1.683 1.683 0 0 1 1.237 1.161 19.4 19.4 0 0 1 0.639 3.044 0.969 0.969 0 0 1-1.037 1.242 44.737 44.737 0 0 0-8.6 1.763c-0.778 0.28-1.237 0.08-1.457-0.541s-0.938-2.864-1.037-3.4a1.322 1.322 0 0 1 0.659-1.362" fill="#ffe792"/>
  <path transform="translate(-42.874,-78.483)" d="m78.429 141.14c0.478-0.068 1.409-1.281 1.905-2.069-1.442 0.235-3.184 0.611-4.573 0.961a8.173 8.173 0 0 0 2.668 1.108" fill="#f4ae7d"/>
  <g fill="#e95520">
   <path transform="translate(-28.679,-79.639)" d="m52.382 141.13c1.0639-0.24653 1.9216 0.16661 1.871 1.2 0.04806 0.9296-0.69216 1.71-1.623 1.711-0.85645 0.21646-1.7255-0.30532-1.937-1.163-0.24774-1.1631 1.1998-1.9922 1.7877-1.8737"/>
   <path transform="translate(-.566 -8.919)" d="m2.372 15.963c-0.842 0.46-4.251 12.378 4.384 24.511a32.719 32.719 0 0 1 15.177-8.987c-6.384-11.01-17.457-16.676-19.561-15.524"/>
   <path transform="translate(-28.575 -.465)" d="m56.868 0.84c-2.111 0.2-6.844 10.9-6.336 22a38.026 38.026 0 0 1 16.95-2.075c-1.74-11.265-8.447-20.134-10.614-19.925" fill="#e95520"/>
  </g>
  <path transform="translate(-28.624,-25.987)" d="m50.581 48.363c0.022 0.477 0.056 0.955 0.1 1.434q0.453 0.857 0.866 1.754a41.391 41.391 0 0 1 16.346-1.851c-0.066-1.157-0.191-2.3-0.363-3.414a38.023 38.023 0 0 0-16.949 2.074" fill="#f2984f"/>
  <path transform="translate(-8.069,-29.221)" d="m14.259 60.775c0.026 0.037 0.05 0.074 0.077 0.112a27.365 27.365 0 0 0 2.09 2.54 38.334 38.334 0 0 1 14.508-8.627l0.054-0.017c-0.476-1.039-1-2.037-1.552-3a32.722 32.722 0 0 0-15.177 8.987" fill="#f2984f"/>
  <path transform="translate(-38.273,-26.091)" d="m68.593 46.243c0.5 0.471 2.743 4.586 3.337 10.021 0.571 5.221-1.24 10.115-1.647 10.586-0.5-0.44-2.109-5.075-2.536-10.178-0.43-5.145 0.438-9.738 0.845-10.429" fill="#ffe792"/>
  <path transform="translate(-17.858,-32.562)" d="m31.556 57.709c4.883 0.691 11.957 9.675 12.615 17.058-3.944-1.445-11.519-9.393-12.615-17.058" fill="#ffe792"/>
  <path transform="translate(-33.727,-110.23)" d="m62.481 195.32a2.9 2.9 0 0 0-2.856 3.271 3.069 3.069 0 0 0 3.775 2.236c-1.092-1.345-1.271-3.429-0.921-5.507" fill="#fff"/>
  <path transform="translate(-55.19,-80.137)" d="m116.65 143.31c-2.079-3.025-7.668-0.322-12.787 3.49a19.443 19.443 0 0 1-6.343 5.438l0.03 0.1c0.277-0.081 0.481-0.082 0.56-0.02a2.417 2.417 0 0 1-0.089 3.3c-0.067 0.076-0.141 0.151-0.219 0.225 7.993-0.914 23.045-6.423 18.848-12.529" fill="#fff"/>
  <path transform="translate(-10.894,-42.565)" d="m34.089 86.545c-0.045 0.021-0.089 0.048-0.135 0.07l1.36 0.1a43.431 43.431 0 0 1-14.594-11.283q-0.77 0.661-1.47 1.338c4.113 4.47 10.08 8.372 14.839 9.774" fill="#dbdcdc"/>
  <path transform="translate(-8.069,-38.939)" d="m14.259 70.493c0.026 0.037 0.05 0.075 0.077 0.112a27.323 27.323 0 0 0 2.09 2.54q0.7-0.676 1.47-1.338-1.123-1.36-2.1-2.8-0.781 0.713-1.538 1.486" fill="#d18344"/>
  <path transform="translate(-.566 -9.05)" d="m8.294 39.118a33.94 33.94 0 0 1-5.8-23.071 0.959 0.959 0 0 0-0.118 0.046c-0.842 0.46-4.251 12.378 4.384 24.511q0.755-0.774 1.538-1.486" fill="#ca491a"/>
  <path transform="translate(-29.879,-32.639)" d="m54.53 62.347a30.812 30.812 0 0 1-0.589-4.5q-0.574 0.169-1.143 0.358c0.887 1.986 1.732 4.145 1.732 4.145" fill="#dbdcdc"/>
  <path transform="translate(-28.633,-28.09)" d="m50.6 50.463c0.02 0.45 0.046 0.9 0.085 1.35 0.275 0.537 0.575 1.179 0.871 1.84q0.569-0.19 1.143-0.358c-0.073-1.12-0.107-2.3-0.1-3.511q-1.031 0.311-2 0.678" fill="#d18344"/>
  <path transform="translate(-28.583 -.53)" d="m56.687 0.952c-2.19 0.776-6.634 11.176-6.14 21.951q0.966-0.366 2-0.678c0.035-7.7 1.6-16.8 4.143-21.273" fill="#ca491a"/>
  <path transform="translate(-12.657,-68.211)" d="m22.8 120.88a0.428 0.428 0 0 0-0.209 0.064c-0.52 0.384-0.112 2.881 1.049 4.7l2.144 1.3c-1.245-1.654-2.729-3.99-2.984-6.057" fill="#dbdcdc"/>
  <path transform="translate(-55.558,-82.533)" d="m99.028 156.76a2.693 2.693 0 0 1-0.635 1.251c-0.067 0.076-0.141 0.151-0.219 0.225 7.753-0.887 22.146-6.1 19.175-11.981-1.359 5.942-12.287 9.5-18.321 10.5" fill="#dbdcdc"/>
  <path transform="translate(-50.972,-93.433)" d="m93.9 165.61c-0.253-0.2-1.82 0.256-2.946 1.962-0.886 1.343-1.059 2.78-0.712 3.161 0.612-1.654 2.038-3.665 4.238-3.9a1.889 1.889 0 0 0-0.579-1.226" fill="#ca491a"/>
  <path transform="translate(-36.023,-97.009)" d="m67.06 172.07c-2.04-0.485-3.066 0.139-3.39 1.13-7e-3 0.02-9e-3 0.039-0.014 0.058a10.108 10.108 0 0 1 6.729 1.247 5.311 5.311 0 0 0-3.324-2.435" fill="#ca491a"/>
  <path transform="translate(-66.498,-59.083)" d="m118.23 104.71a0.294 0.294 0 0 0-0.133-9e-3 25.852 25.852 0 0 1-0.591 7.683l1.271-2.039c0.556-3 0.025-5.414-0.547-5.634" fill="#dbdcdc"/>
  <path transform="translate(-33.729,-113.33)" d="m63.4 203.93a4.5 4.5 0 0 1-0.772-1.5 4.185 4.185 0 0 1-2.992-1.609 3.018 3.018 0 0 0-0.013 0.876 3.069 3.069 0 0 0 3.777 2.236" fill="#dbdcdc"/>
  <path transform="translate(-13.061,-141.93)" d="m23.079 253.66c0.517 3.76 7.137 3.946 11.906 2.545a13.856 13.856 0 0 0 4.315-2.168 3.948 3.948 0 0 0 0.254-2.546c-4.747 3.276-11.656 4.111-16.471 2.169" fill="#ca491a"/>
  <path transform="translate(-62.221,-143.47)" d="m110.74 257.79a20.805 20.805 0 0 0 5.133 1.144c6.036 0.66 10.223-1.62 9.821-4.441-0.013-0.091-0.036-0.181-0.056-0.271-3 3.195-9.633 3.02-15.647 1.2a4.548 4.548 0 0 0-0.04 0.578 2.616 2.616 0 0 0 0.79 1.794" fill="#ca491a"/>
  <g fill="#0c1015">
   <path transform="translate(0,-8.435)" d="m23.74 52.846c-6.043-1.453-13.9-6.879-17.9-12.459-8.84-12.313-5.317-24.621-4.208-25.228 2.087-1.143 9.4 2.729 14.881 8.551a34.569 34.569 0 0 1 7.875 13.217c0.7 2.242 0.309 2.39-0.488 0.179a37.278 37.278 0 0 0-8.016-12.733c-5.551-5.911-12.471-9.51-13.9-8.575-0.987 0.644-3.557 12.456 4.726 24 3.918 5.458 11.347 10.825 17.123 12.565 1.543 0.465 1.314 0.822-0.089 0.484"/>
   <path transform="translate(-27.951 .007)" d="m66.523 16.3c-2.258-8.538-7.845-16.534-10.314-16.295-2.62 0.254-7.518 12.117-6.734 22.571l1.136 2.177c-1.376-12.174 3.751-23.833 5.667-24.022 1.807-0.178 7.152 7.43 9.314 15.809a35.091 35.091 0 0 1 0.062 18.131c-0.475 1.731-0.1 1.817 0.481 0.161a31.659 31.659 0 0 0 0.388-18.532"/>
   <path transform="translate(-46.006,-34.621)" d="m82.492 76.76c7.082-6.48 7.341-14.918 6.1-15.377-0.6-0.223-2.145 1.056-3.394 2.625l-0.368 2.114a11.739 11.739 0 0 1 3.509-4.01c0.178 0.081 0.739 7.146-6.74 14.6-0.412 0.409-0.469 0.571 0.206 0.636a17.536 17.536 0 0 1 12.656 7.912l0.22-1.215a18.741 18.741 0 0 0-12.189-7.285"/>
   <path transform="translate(-62.748,-58.609)" d="m114.61 103.9c-1.033-0.4-4.339 2.418-3.633 6.479 0.186 1.073 0.62 1.058 0.557-0.029-0.2-3.354 2.315-5.915 2.83-5.756 0.426 0.132 0.907 2.992 0.042 6.264l1.06-1.306c0.466-2.9-0.029-5.332-0.856-5.651"/>
   <path transform="translate(-50.618,-93.054)" d="m93.755 165.02c-0.518-0.412-2.257 0.193-3.439 1.983-0.8 1.211-1.185 3.232-0.558 3.641 0.5 0.33 3.021-0.8 3.968-1.873a2.682 2.682 0 0 0 0.03-3.752m-0.573 3.268a6.983 6.983 0 0 1-3.086 1.827 3.839 3.839 0 0 1 0.787-2.741 3.934 3.934 0 0 1 2.478-1.866 2.259 2.259 0 0 1-0.18 2.781"/>
   <path transform="translate(-54.2,-60.47)" d="m113.07 107.3c-1.218-0.733-6.543 1.415-8 6.94-0.24 0.909 0.164 1.081 0.479 0.2 1.529-4.287 6.464-7 7.142-6.517 0.638 0.458 0.434 4.923-1.057 7.941a12.351 12.351 0 0 1-6.35 6.013 0.363 0.363 0 0 0-0.207 0.239c-1.214 4.481-6.462 9.135-9.293 10.544l1.326 0.1c2.929-1.658 7.591-6.064 8.838-10.37a12.884 12.884 0 0 0 6.541-6.128c2.085-4.2 1.405-8.47 0.586-8.963"/>
   <path transform="translate(-54.963,-79.562)" d="m116.78 142.49c-1.994-2.9-6.734-1.431-12.59 2.878l-1.356 1.925c7.034-5.505 11.66-6.61 13.245-4.3 1.5 2.177 0.04 4.382-2.3 6.075-3.932 2.847-10.919 5.178-15.925 5.8l-0.736 0.811c4.746-0.449 12.73-2.646 17.173-5.883 3.158-2.3 4.232-4.758 2.486-7.3"/>
   <path transform="translate(-73.031,-80.32)" d="m129.82 143.93a6.137 6.137 0 0 1 4.2-0.864l-1.039-0.737a5.756 5.756 0 0 0-3.577 1.285c-0.673 0.61-0.326 0.87 0.412 0.317"/>
   <path transform="translate(-75.415,-82.402)" d="m133.97 148.05c0.769-0.6 2.075-1.538 3.49-1.2l-0.428-0.815a4.728 4.728 0 0 0-3.43 1.667c-0.605 0.674-0.34 0.908 0.368 0.352"/>
   <path transform="translate(-37.736,-25.716)" d="m66.8 56.332c-0.4-4.814 0.256-10.594 1.217-10.751 0.832-0.136 3.146 4.514 3.774 10.254 0.506 4.632-1.289 10.967-2.023 11s-2.593-6.02-2.968-10.507m1.348-9.863c-0.624 0.1-0.741 7.192-0.524 9.787a39.407 39.407 0 0 0 2.1 9.478c0.23-0.027 1.748-5.437 1.269-9.815-0.5-4.535-2.272-9.544-2.843-9.451"/>
   <path transform="translate(-17.421,-32.127)" d="m35.079 67.182c-3.615-4.975-4.6-9.807-4.218-10.165 0.491-0.457 4.885 1 8.933 6.75 3.675 5.22 4.469 10.617 4.16 10.854s-4.947-2.033-8.875-7.438m-3.565-9.5c-0.076 0.077 0.373 3.7 4.315 9.055 2.462 3.343 5.435 6.059 7.515 7.066a24.466 24.466 0 0 0-4.126-9.556c-3.669-5.327-7.508-6.761-7.7-6.565"/>
   <path transform="translate(-33.435,-41.321)" d="m61.568 79.78c-0.379-0.783-2.1-5.137-2.315-5.766-0.336-0.984-0.166-1.047 0.4-0.174a40.82 40.82 0 0 1 2.3 5.852c0.284 1.065 0.077 1.041-0.384 0.088"/>
   <path transform="translate(-17.702,-56.777)" d="m41.359 100.95-1-0.334c-4.119 2.115-7.772 6.94-9.08 11.11l0.7 1.095c1.117-4.351 5.036-10.013 9.38-11.87"/>
   <path transform="translate(-1.034,-72.286)" d="m16.646 138.73c-0.093-0.165-0.134-0.2-0.333-0.186a14.255 14.255 0 0 1-8.334-2.3c-3.466-2.195-5.838-5.686-5.394-6.528 0.265-0.383 2.43-1.235 6.357-0.585a9.92 9.92 0 0 1 4.951 2.377c0.835 0.738 1.118 0.457 0.368-0.389a8.123 8.123 0 0 0-5.193-2.865c-2.816-0.42-6.554 0.04-7.124 1.12-0.8 1.526 2.714 5.864 5.563 7.652a14.666 14.666 0 0 0 8.4 2.279c2.472 4.23 7.771 7.289 13.583 8.1l1.3-0.513c-6.134-0.519-11.675-3.749-14.144-8.155"/>
   <path transform="translate(-12.15,-67.786)" d="m26.936 124.7c-0.524-3.646-4.4-4.971-5.07-4.479s-0.474 2.592 0.527 4.5l1.485 0.816c-1.349-1.682-1.885-4.517-1.594-4.72 0.181-0.126 2.881 0.689 4.136 4.033 0.4 1.072 0.678 0.985 0.515-0.149"/>
   <path transform="translate(-42.588,-78.567)" d="m79.524 139.37a5 5 0 0 1-1.432 1.5 6.573 6.573 0 0 1-1.989-0.782l-0.848 0.248c1.5 0.854 2.485 1.321 2.939 1.255 0.744-0.107 1.752-1.694 2.163-2.365z"/>
   <path transform="translate(-35.5,-96.58)" d="m70.234 174.2a5.6 5.6 0 0 0-3.648-2.879c-2.822-0.672-3.578 0.7-3.786 1.334-0.31 0.948 0.408 1.808 2.059 2.173a22.674 22.674 0 0 0 4.831 0.308c0.641-0.024 0.807-0.34 0.543-0.937m-5.233-0.049c-1.215-0.269-1.682-0.733-1.508-1.266 0.313-0.953 1.381-1.286 2.979-0.907a4.919 4.919 0 0 1 3.244 2.431c0.066 0.137 0.042 0.166-0.092 0.169a23.814 23.814 0 0 1-4.623-0.427"/>
   <path transform="translate(-11.576,-99.382)" d="m31.784 188.24c-4.445 2.362-9.294 2.557-10.243 0.22s0.344-3.961 4.533-5.888c2.473-1.136 10.6-4.517 13.521-5.855l-0.419-0.61c-3.314 1.507-9.472 3.885-13.447 5.709-3.229 1.486-6.329 3.556-4.929 7.022 1.363 3.358 6.839 2.565 11.372 0.157a28 28 0 0 0 8.919-7.262l0.528-1.612c-1.9 2.883-5.678 5.908-9.839 8.118"/>
   <path transform="translate(-67.807,-140.53)" d="m120.67 249.05c-0.891-0.157-1.216 0.15-0.3 0.342 3.489 0.734 7.1 4.514 4.576 6.583l1.089-0.162c2.059-2.421-1.664-6.112-5.363-6.764"/>
   <path transform="translate(-33.253,-109.86)" d="m59.512 198.18a2.733 2.733 0 0 1 2.509-2.934l0.1-0.573a3.238 3.238 0 0 0-3.326 3.6c0.272 2.09 2.868 2.982 4.32 2.453l-0.4-0.524a2.7 2.7 0 0 1-3.2-2.024"/>
   <path transform="translate(-13.221,-113.28)" d="m27.033 200.74a4.125 4.125 0 0 0-3.574 2.279 2.019 2.019 0 0 0-0.1 0.422l0.83 0.7a1.08 1.08 0 0 1-0.048-0.879 3.964 3.964 0 0 1 2.973-2.1c0.663-0.105 0.589-0.48-0.084-0.426"/>
   <path transform="translate(-11.895,-109.93)" d="m25.224 194.81a5.31 5.31 0 0 0-4.158 2.673c-0.017 0.035-0.03 0.071-0.046 0.106l0.46 1.013a2.367 2.367 0 0 1 0.237-0.794 5.145 5.145 0 0 1 3.567-2.537c0.7-0.153 0.66-0.514-0.06-0.462"/>
   <path transform="translate(-72.13,-138.52)" d="m128.65 245.6c-1.26-0.362-1.614 0.037-0.6 0.29 4.7 1.177 6.8 4.409 5.284 7l0.813-0.434c1.18-2.882-0.8-5.506-5.494-6.856"/>
   <path transform="translate(-24.368,-139.48)" d="m45.894 247.62c-3.035 2.034-3.359 5.2-2.25 6.708l0.817-0.166c-1.166-1.087-0.843-4.638 1.946-6.294 1.155-0.686 0.711-1.068-0.512-0.248"/>
   <path transform="translate(-16.51,-139.02)" d="m32.7 246.64c-2.565 1.086-4.565 4.583-2.94 7.063l1.087 0.17c-1.68-1.57-0.8-5.532 2.542-7.056 1.113-0.508 0.527-0.692-0.689-0.177"/>
   <path transform="translate(-26.783,-74.989)" d="m50.484 132.88a3.356 3.356 0 0 0-3.153 3.645 3.257 3.257 0 0 0 3.155 3.357c1.648 0 3.146-1.212 3.03-3.688a3.22 3.22 0 0 0-3.032-3.314m-0.06 0.6a1.3 1.3 0 0 1 1.278 1.382 1.357 1.357 0 0 1-1.331 1.265 1.257 1.257 0 0 1-1.283-1.225 1.412 1.412 0 0 1 1.337-1.422m0.31 5.9a1.593 1.593 0 0 1-1.937-1.163c-0.149-0.831 0.76-1.683 1.689-1.744 1.01-0.067 1.76 0.4 1.871 1.2a1.627 1.627 0 0 1-1.623 1.711"/>
   <path transform="translate(-12.439,-98.581)" d="m76.342 209.57c-0.458-3.218-4.7-5.286-8.647-5.847-4.686-0.667-10.161-1.553-12.732-3.934a59.2 59.2 0 0 0 1.127-10.162 7.225 7.225 0 0 0 2.278-5.151c0.1-3.353-1.752-7.226-3.8-9.784l-0.572 0.449c1.957 2.44 3.615 6.13 3.519 9.311a6.412 6.412 0 0 1-2.045 4.757 0.347 0.347 0 0 0-0.117 0.3 54.953 54.953 0 0 1-1.118 10.208 0.283 0.283 0 0 0 0.093 0.359c2.753 2.742 8.785 3.837 13.251 4.472 3.677 0.523 7.485 2.288 7.889 5.132 0.395 2.777-4.4 4.495-9.344 3.956-5.977-0.653-17.739-5.464-16.477-10.1 0.472-1.735 1.824-1.851 2.325-2.684 1.435-2.384 1.329-9.076 1.2-10.33-0.038-0.358-0.15-0.412-0.481-0.306a15.448 15.448 0 0 1-5.9 0.434c-0.221-0.043-0.346 0-0.425 0.244-0.411 1.282-2.733 6.119-3.61 7.892a2.279 2.279 0 0 0-0.036 2.077 4.452 4.452 0 0 1 0.548 2.419c-0.1 2.326-3.259 7.484-9.016 9.175-5.049 1.484-11.13 0.9-11.369-2.4-0.152-2.094 2.064-3.838 4.414-4.523 3.182-0.927 10.754-3.33 12.378-5.394a28.069 28.069 0 0 0 4.208-9.852c0.024-0.2 9e-3 -0.28-0.217-0.378-3.165-1.37-2.545-7.087-0.844-10.253 0.606-1.129 0.155-1.324-0.487-0.135-2.292 4.247-2.5 9.284 0.851 10.992a35.384 35.384 0 0 1-4.081 9.174c-1.22 1.552-7.005 3.646-12.014 5.106-2.55 0.743-5.288 2.721-5.1 5.317 0.338 4.639 7.886 4.509 12.5 3.154 5.743-1.687 9.455-7 9.583-10a4.92 4.92 0 0 0-0.7-2.732 1.545 1.545 0 0 1 0.036-1.427 77.307 77.307 0 0 0 3.473-7.709 13.307 13.307 0 0 0 5.608-0.358c0.122 2.081 0.021 7.517-1.132 9.432-0.514 0.852-1.992 1.009-2.491 2.838-1.47 5.394 10.907 10.467 17.176 11.152 5.538 0.6 10.816-1.29 10.3-4.893"/>
  </g>
  <path transform="translate(-36.536,-70.4)" d="m77.44 129.47a20.12 20.12 0 0 0-0.67-3.1 2.09 2.09 0 0 0-1.5-1.4 14.818 14.818 0 0 0-9.883 1.922 1.716 1.716 0 0 0-0.8 1.754c0.108 0.581 0.85 2.886 1.053 3.46a1.324 1.324 0 0 0 1.922 0.762 39.994 39.994 0 0 1 8.486-1.741c1.111-0.1 1.53-0.673 1.39-1.658m-1.389 0.97a35.029 35.029 0 0 0-8.716 1.783c-0.551 0.224-0.85 0.088-1.008-0.36-0.237-0.67-0.925-2.822-1.019-3.324a0.959 0.959 0 0 1 0.505-0.993 14.517 14.517 0 0 1 9.309-1.851c0.415 0.1 0.711 0.291 0.989 0.95a18.68 18.68 0 0 1 0.609 2.928c0.08 0.56-0.1 0.826-0.669 0.866" fill="#b2814f"/>
  <g fill="#0c1015">
   <path transform="translate(-54.797,-71.461)" d="m96.831 130.45c0.043-2.159 1.1-3.724 2.608-3.811 1.327-0.082 2.441 1.025 2.913 2.9 0.185 0.737-0.242 0.853-0.472 0.129-0.478-1.506-1.422-2.36-2.4-2.3-0.947 0.055-2 1.146-2.147 3.107-0.056 0.741-0.517 0.724-0.5-0.024"/>
   <path transform="translate(-46.009,-80.919)" d="m82.019 143.39-0.719 0.115a17.164 17.164 0 0 1 0.523 5.242l0.692-0.113a18.662 18.662 0 0 0-0.5-5.244"/>
   <path transform="translate(-35.657,-80.737)" d="m63.339 146.68c-0.616-0.67-0.3-0.951 0.366-0.333 1.74 1.616 5.227 2.392 8.3 1.735a7.728 7.728 0 0 0 5.8-4.515c0.319-0.759 0.738-0.614 0.474 0.166a7.863 7.863 0 0 1-6.109 5.157c-3.269 0.7-6.929-0.142-8.831-2.21"/>
  </g>
 </g>
 <rect y=".15536" width="54.61" height="100.55" fill="none" stroke-width=".86683"/>
</svg>
