<?xml version="1.0" encoding="UTF-8"?>
<!-- Created with Inkscape (http://www.inkscape.org/) -->
<svg version="1.1" viewBox="0 0 66.988 100.2" xmlns="http://www.w3.org/2000/svg">
 <g transform="translate(-1.5849 -1.4536)">
  <g transform="matrix(.6796 0 0 -.6796 48.125 71.008)">
   <path d="m0 0c-0.969 0.028-3.544-1.516-6.066-2.841-0.653 2.147-2.075 4.749-4.196 7.775 3.065-1.011 5.476-1.858 8.573-3.097 2.542-1.017 4.855-1.529 7.161-1.349-0.458-1.663-0.773-3.401-0.928-5.184-1.627 2.915-3.527 4.667-4.544 4.696m23.931 16.385c-4.867 0.821-9.648-1.584-13.26-5.841-4.292 2.187-13.234 2.133-20.101 0.236 0.116 0.592-0.015 1.166-0.215 1.437 5.14 2.748 9.114 6.951 10.181 11.825 7.834 2.183 9.471 14.583 7.977 15.605-0.681 0.466-4.262-1.659-6.52-3.833 1.95 4.226 1.251 8.732 0.36 8.918-0.737 0.153-2.918-2.787-3.987-5.962-3.04 5.576-8.463 9.646-15.618 10.815 9.435 9.717 10.388 21.937 9.076 22.429-0.629 0.236-3.196-1.64-4.754-5.028 0.2 5.498-1.512 11.016-4.534 16.82-5.955 11.437-15.473 18.608-16.95 18.043-2.224-0.85-4.521-19.553-0.307-31.903-11.548 20.836-30.429 25.614-32.722 23.863-1.874-1.432 0.912-18.992 8.778-28.727 7.329-9.07 14.863-15.689 22.773-18.297-6.693-4.519-10.614-11.416-9.735-20.469 0.374-3.855 1.942-7.296 4.39-10.088-2.107 0.519-4.194 0.836-6.215 0.961-5.111 0.318-8.229-1.734-8.736-4.042-0.464-2.117 0.589-4.418 4.259-6.388 6.189-3.32 16.823-4.351 27.554-2.673-1.086-2.475-1.45-5.379-1.286-8.084-1.662-0.103-2.812-1.658-2.364-3.954 0.4-2.06 2.235-2.875 3.98-2.441 0.145-0.272 0.298-0.528 0.458-0.763-0.282-2.456-2.438-4.541-5.133-5.322-1.438 2.373-4.479 2.773-7.393 1.069-7.5-4.385-10.865-13.479-9.586-21.497 1.034-6.489 4.908-7.914 10.196-7.698 4.777 0.195 7.786 2.353 8.047 5.142 0.189 2.038-1.273 3.999-4.268 6.17 0.353 3.968 1.992 9.452 3.605 12.824 2.871 0.168 6.221 2.512 8.187 7.064 4.668-0.95 11.726 1.258 13.731 5.682 2.478 1.621 4.266 2.134 5.251 2.008 1.021-0.13 3.361-3.254 4.888-8.083 2.377-7.511 9.915-7.058 12.3-1.521 3.901 9.055 6.144 14.484 10.169 18.579 5.041 5.128 3.92 12.046-2.476 13.124" fill="#fff"/>
  </g>
  <g transform="matrix(.6796 0 0 -.6796 39.041 21.677)">
   <path d="m0 0c-0.679 3.666-2.099 7.379-4.098 11.217-5.955 11.437-15.472 18.608-16.95 18.043-2.183-0.835-4.432-18.883-0.522-31.227 4.967 1.811 15.049 2.968 21.57 1.967" fill="#f2984f"/>
  </g>
  <g transform="matrix(.6796 0 0 -.6796 11.015 29.997)">
   <path d="m0 0c5.006 5.752 13.287 9.491 19.494 10.276-11.577 20.255-30.064 24.919-32.332 23.187-1.874-1.431 0.912-18.991 8.778-28.727 1.346-1.665 2.699-3.246 4.06-4.736" fill="#f2984f"/>
  </g>
  <g transform="matrix(.6796 0 0 -.6796 16.075 22.688)">
   <path d="m0 0c-0.676-0.398 1.874-6.919 5.606-12.19 3.716-5.248 8.785-10.334 9.844-9.583 0.637 0.451-1.365 7.784-4.563 12.581-4.558 6.837-10.366 9.498-10.887 9.192" fill="#ffe792"/>
  </g>
  <g transform="matrix(.6796 0 0 -.6796 30.917 19.454)">
   <path d="m0 0c-0.771-0.093-1.694-6.415-0.782-12.908 1.074-7.644 2.648-12.672 3.781-12.484 1.377 0.23 2.875 6.548 1.499 13.332-1.515 7.463-3.679 12.158-4.498 12.06" fill="#ffe792"/>
  </g>
  <g transform="matrix(.6796 0 0 -.6796 39.39 47.885)">
   <path d="m0 0c-0.306 0.928-0.673 1.233-1.825 1.467-2.657 0.537-8.54-0.082-11.474-1.712-0.98-0.544-1.09-0.919-0.962-1.841 0.261-1.874 0.736-3.764 1.174-5.199 0.175-0.574 0.375-0.791 1.45-0.44 3.896 1.271 7.97 1.858 11.441 1.532 0.691-0.065 1.146 0.148 1.108 0.831-0.114 2.054-0.521 4.173-0.912 5.362" fill="#ffe792"/>
  </g>
  <g transform="matrix(.6796 0 0 -.6796 37.805 52.016)">
   <path d="m0 0c-0.605-1.078-1.77-2.298-2.247-2.353-0.74-0.085-2.148 0.644-3.268 1.758 1.384 0.298 4.012 0.584 5.515 0.595" fill="#f4ae7d"/>
  </g>
  <g transform="matrix(.6796 0 0 -.6796 22.769 20.6)">
   <path d="m0 0c-11.582 17.251-28.005 21.262-30.133 19.636-1.874-1.431 0.912-18.991 8.779-28.727 0.37-0.457 0.74-0.903 1.11-1.348 3.913 5.037 13.062 10.014 20.244 10.439" fill="#e95520"/>
  </g>
  <g transform="matrix(.6796 0 0 -.6796 38.399 19.113)">
   <path d="m0 0c-0.77 2.442-1.837 4.916-3.153 7.444-5.955 11.437-15.473 18.608-16.951 18.043-1.967-0.753-3.989-15.487-1.507-27.427 5.317 1.83 15.125 2.789 21.611 1.94" fill="#e95520"/>
  </g>
  <g transform="matrix(.6796 0 0 -.6796 64.388 59.873)">
   <path d="m0 0c-4.673 0.788-10.385-1.626-14.447-7.264 0.698-2.876 3.038-5.259 6.826-5.668 2.877-0.31 7.15-0.414 10.079-0.212 7e-3 6e-3 0.013 0.013 0.019 0.019 5.041 5.128 3.919 12.047-2.477 13.125" fill="#e95520"/>
  </g>
  <g transform="matrix(.6796 0 0 -.6796 23.997 101.32)">
   <path d="m0 0c4.777 0.195 7.786 2.353 8.047 5.142 0.067 0.725-0.078 1.441-0.424 2.16-2.741 2.41-7.963 2.857-12.213 1.413-3.27-1.111-4.395-3.031-4.4-4.837 1.757-3.252 4.963-4.042 8.99-3.878" fill="#e95520"/>
  </g>
  <g transform="matrix(.6796 0 0 -.6796 29.566 64.583)">
   <path d="m0 0c2.217-1.304 5.259-3.26 7.214-3.977 1.048-0.384 1.416-0.123 1.305 0.826-0.168 1.422-1.261 3.347-4.021 4.911-2.991 1.695-5.679 1.445-7.192 0.152" fill="#e95520"/>
  </g>
  <g transform="matrix(.6796 0 0 -.6796 41.655 63.962)">
   <path d="m0 0c0.685 2.128-1.382 3.41-3.598 1.426-1.23-1.102-1.978-3.079-1.922-4.482 0.041-1.021 0.811-1.338 2.059-0.904 1.434 0.499 2.817 1.96 3.461 3.96" fill="#e95520"/>
  </g>
  <g transform="matrix(.6796 0 0 -.6796 59.209 68.661)">
   <path d="m0 0c-1.395 0.151-2.591 0.57-3.583 1.182-3.233-4.619-5.833-11.022-6.425-15.758-0.462-3.696-0.126-5.918 1.201-7.477 2.705-1.564 6.877-1.108 9.159 4.172 2.959 6.848 5.876 13.967 9.637 17.663-2.927-0.194-7.141-0.089-9.989 0.218" fill="#dbdcdc"/>
  </g>
  <g transform="matrix(.6796 0 0 -.6796 60.904 74.72)">
   <path d="m0 0c0.285 0.649-0.017 1.001-0.618 0.98-2.373-0.086-4.819 0.09-6.482 0.447-0.984 0.211-1.284 0.021-1.495-0.602-0.773-2.286-1.41-4.607-1.805-6.481-0.123-0.585 0.048-0.946 0.653-1.066 2.214-0.437 4.672-0.557 6.55 0.069 0.531 0.177 0.79 0.381 1.031 1.083 0.723 2.097 1.376 3.765 2.166 5.57" fill="#dbc77f"/>
  </g>
  <g transform="matrix(.6796 0 0 -.6796 20.002 58.167)">
   <path d="m0 0c0.839-1.206 2.102-2.596 3.428-3.606-1.384 0.466-2.518 0.773-3.449 0.948l-1.415 2.022z" fill="#dbdcdc"/>
  </g>
  <g transform="matrix(.6796 0 0 -.6796 37.87 66.675)">
   <path d="m0 0c-0.28 1.649 0.834 4.604 2.301 5.761 1.012 0.798 2.298 1.157 3.13 0.082 5.328 2.847 9.272 7.154 10.136 11.782 5.671 1.158 10.088 11.327 7.958 15.712-0.216-5.227-3.213-11.869-7.777-13.615-0.898-0.344-1.175-0.739-1.41-1.521-2.546-8.43-12.208-13.46-20.952-13.897 1.586-1.186 2.82-3.227 2.885-4.359 0.984-0.301 2.591-0.279 3.729 0.055" fill="#dbdcdc"/>
  </g>
  <g transform="matrix(.6796 0 0 -.6796 29.506 64.505)">
   <path d="m0 0c0.742-2.024 0.143-3.126-5.432-3.542-6.781-0.506-15.518 1.113-19.033 3.958-2.115 1.711-2.694 4.636-0.928 6.491-4.665-1.555-4.528-6.341-0.53-8.965 5.9-3.871 19.783-5.254 28.968-3.311 1.151 0.603 2.585 1.212 4.41 1.212-3.129 1.51-5.026 2.504-7.455 4.157" fill="#dbdcdc"/>
  </g>
  <g transform="matrix(.6796 0 0 -.6796 52.36 68.873)">
   <path d="m0 0c-0.312-0.75-0.612-1.848-0.815-2.684-2.042-0.108-4.911 0.392-7.214 1.434-2.304 1.043-6.519 2.391-8.779 3.086-0.891 0.521-2.227 0.924-3.613 0.935 2.384 0.595 3.481 1.907 4.779 3.781-0.499-1.618-0.209-2.777 2.124-3.548 4.989-1.65 10.487-2.809 13.518-3.004" fill="#dbdcdc"/>
  </g>
  <g transform="matrix(.6796 0 0 -.6796 49.597 40.599)">
   <path d="m0 0c0.637-2.062-0.452-7.022-1.559-10.291 0.335 0.352 0.955 1.006 1.409 1.425 1.961 4.994 1.29 8.548 0.15 8.866" fill="#dbdcdc"/>
  </g>
  <g transform="matrix(.6796 0 0 -.6796 42.555 22.013)">
   <path d="m0 0c-0.533-5.838-4.521-16.028-9.603-20.378-0.868-0.743-1.096-1.959 0.22-2.477 6.841 5.947 11.481 19.326 9.383 22.855" fill="#dbdcdc"/>
  </g>
  <g transform="matrix(.6796 0 0 -.6796 23.319 37.322)">
   <path d="m0 0c-5.745 3.037-11.256 7.52-16.014 12.901-0.744-0.673-1.446-1.38-2.091-2.123-0.068-9e-3 -0.136-0.016-0.205-0.025 5.426-6.092 12.164-11.346 19.341-13.636 0.533 1.014 0.49 2.078-1.031 2.883" fill="#dbdcdc"/>
  </g>
  <g transform="matrix(.6796 0 0 -.6796 9.0107 27.695)">
   <path d="m0 0c-0.021-0.012-0.042-0.023-0.062-0.035 0.89-1.145 1.826-2.276 2.807-3.379 0.068 9e-3 0.137 0.016 0.204 0.026 0.646 0.742 1.348 1.45 2.092 2.123-1.009 1.141-1.981 2.324-2.918 3.541-0.811-0.747-1.528-1.51-2.123-2.276" fill="#d18344"/>
  </g>
  <g transform="matrix(.6796 0 0 -.6796 10.453 26.148)">
   <path d="m0 0c-6.27 8.153-10.795 17.892-12.069 27.672-1.496-1.557 0.59-16.388 7.076-26.101 0.869-1.301 1.81-2.601 2.807-3.883 0.021 0.013 0.042 0.023 0.063 0.036 0.595 0.765 1.312 1.529 2.123 2.276" fill="#ca491a"/>
  </g>
  <g transform="matrix(.6796 0 0 -.6796 25.965 26.089)">
   <path d="m0 0c-0.368 1.65-0.691 3.31-0.977 4.966-0.475-0.14-0.923-0.285-1.336-0.434 0.239-0.934 1.683-3.544 2.313-4.532" fill="#dbdcdc"/>
  </g>
  <g transform="matrix(.6796 0 0 -.6796 23.638 20.273)">
   <path d="m0 0c0.276-1.4 0.607-2.71 1.002-3.876 0.032-0.052 0.06-0.104 0.093-0.156 0.416 0.152 0.871 0.299 1.353 0.44-0.222 1.3-0.421 2.595-0.595 3.882-0.618-0.165-1.208-0.338-1.744-0.522-0.038 0.076-0.071 0.155-0.109 0.232" fill="#d18344"/>
  </g>
  <g transform="matrix(.6796 0 0 -.6796 24.821 1.8239)">
   <path d="m0 0c-2.677-1.189-3.791-16.747-1.741-27.147 0.038-0.077 0.071-0.156 0.109-0.232 0.535 0.184 1.126 0.356 1.743 0.522-1.516 11.137-1.276 21.56-0.111 26.857" fill="#ca491a"/>
  </g>
  <g transform="matrix(.6796 0 0 -.6796 26.553 93.661)">
   <path d="m0 0-0.107-1.328c0.252-0.308 0.455-0.613 0.633-0.917 1.267-0.363 2.396-0.922 3.277-1.679-0.597 1.333-1.845 2.569-3.803 3.924" fill="#dbdcdc"/>
  </g>
  <g transform="matrix(.6796 0 0 -.6796 18.318 97.194)">
   <path d="m0 0c-1.146 1.353-1.804 3.134-2.048 5.225-0.091-2.846 0.318-5.438 1.407-7.428 2e-3 3e-3 4e-3 6e-3 7e-3 8e-3 2e-3 0.734 0.194 1.486 0.634 2.195" fill="#dbdcdc"/>
  </g>
  <g transform="matrix(.6796 0 0 -.6796 23.253 101.37)">
   <path d="m0 0c5.916 0.234 8.716 2.333 9.028 4.759 0.124 0.96 4e-3 1.828-0.369 2.66-0.881 0.757-2.01 1.315-3.276 1.679 1.742-2.963 0-5.59-4.895-5.741-3.676-0.113-6.176 0.932-7.75 2.788-0.44-0.71-0.632-1.462-0.634-2.195-2e-3 -3e-3 -4e-3 -6e-3 -6e-3 -8e-3 1.393-2.542 3.899-4.101 7.902-3.942" fill="#ca491a"/>
  </g>
  <g transform="matrix(.6796 0 0 -.6796 64.366 63.934)">
   <path d="m0 0c-3.553 1-6.802-0.319-9.897-4.085-0.434-0.527-0.859-1.096-1.274-1.689 0.992-0.612 2.189-1.032 3.583-1.183 2.848-0.307 7.063-0.411 9.989-0.217 0.03 0.028 0.058 0.062 0.087 0.09 2.434 2.477 0.477 6.25-2.488 7.084" fill="#ca491a"/>
  </g>
  <g transform="matrix(.6796 0 0 -.6796 43.912 72.938)">
   <path d="m0 0c-0.479 2.417-2.708 6.391-4.303 7.613 3.572-7.986 2.459-12.156-4.177-13.842-4.115-1.044-9.028 0.083-10.934 4.713 0-0.717 0.13-1.728 0.289-2.642-0.666-0.551-2.168-0.603-2.771-0.208-0.178-2.155 2.231-3.803 4.049-3.147l0.455-0.859-0.253-1.06c0.051-1.995 1.744-3.409 3.083-2.848 0.381 0.602 0.711 1.197 0.933 1.686 4.799-0.783 11.087 1.061 13.638 5.708 1.046 0.762 3.357 1.83 5.454 2.318-2.756 0.073-4.268 1.39-4.707 2.927z" fill="#dbdcdc"/>
  </g>
  <g transform="matrix(.6796 0 0 -.6796 28.768 52.891)">
   <path d="m0 0c0-2.682-1.983-4.389-4.226-4.288-2.349 0.105-3.711 1.871-3.711 4.337 0 2.453 1.858 4.628 4.108 4.628 2.124 0 3.829-1.923 3.829-4.677" fill="#0f141b"/>
  </g>
  <g transform="matrix(.6796 0 0 -.6796 27.317 51.385)">
   <path d="m0 0c0.017-1.135-0.738-1.853-1.792-1.842-1.006 0.011-1.712 0.739-1.695 1.809 0.017 1.165 0.787 1.918 1.711 1.924 0.934 5e-3 1.76-0.798 1.776-1.891" fill="#fff"/>
  </g>
  <g transform="matrix(.6796 0 0 -.6796 45.931 49.898)">
   <path d="m0 0c0.539-2.462-0.457-4.413-2.463-4.828-2.05-0.424-3.777 0.882-4.302 3.21-0.645 2.866 0.54 5.076 2.283 5.394 1.917 0.35 3.912-1.173 4.482-3.776" fill="#0f141b"/>
  </g>
  <g transform="matrix(.6796 0 0 -.6796 44.051 48.196)">
   <path d="m0 0c0.601-0.815 0.568-1.807-0.125-2.296-0.678-0.479-1.665-0.348-2.269 0.47-0.566 0.769-0.539 2.118 0.042 2.517 0.584 0.403 1.677 0.225 2.352-0.691" fill="#fff"/>
  </g>
  <g transform="matrix(.6796 0 0 -.6796 38.089 52.038)">
   <path d="m0 0c-0.594-1.113-1.886-2.601-2.627-2.687-1.126-0.13-2.7 0.894-3.779 2.006l0.985 0.182c1.072-0.998 2.15-1.519 2.69-1.454 0.268 0.032 1.235 0.958 1.842 1.965z" fill="#0f141b"/>
  </g>
  <g transform="matrix(.6796 0 0 -.6796 41.339 62.504)">
   <path d="m0 0c5.332 2.863 8.832 6.836 10.007 11.369 0.119 0.459 0.169 0.527 0.661 0.687 2.923 0.955 4.793 3.312 6.086 6.036 2.081 4.386 1.935 8.42 1.517 8.658-0.5 0.286-3.826-1.475-6.703-4.341-1.032-1.029-1.405-0.674-0.481 0.453 2.207 2.696 6.5 5.463 7.68 4.66 1.065-0.729 1.037-5.439-1.029-9.819-1.423-3.017-3.652-5.588-6.846-6.548-1.162-4.741-4.834-8.935-10.416-11.862z" fill="#0f141b"/>
  </g>
  <g transform="matrix(.6796 0 0 -.6796 39.291 24.926)">
   <path d="m0 0c1.524 2.977 3.981 5.001 4.968 4.633 1.284-0.483 0.969-5.853-1.176-11.287-1.449-3.668-3.618-7.549-7.109-11.259 7.032-1.186 12.932-5.879 15.546-12.077 0.75-1.776 0.292-1.954-0.607-0.299-3.22 5.937-8.426 9.985-15.289 11.387-1.267 0.259-1.4 0.567-0.42 1.613 3.391 3.617 5.519 7.473 6.891 10.992 2.273 5.833 2.256 9.926 1.851 10.096-0.352 0.148-3.114-1.976-4.607-5.761z" fill="#0f141b"/>
  </g>
  <g transform="matrix(.6796 0 0 -.6796 49.031 47.03)">
   <path d="m0 0c2.344 4.484 1.453 8.96 0.922 9.006-0.782 0.067-2.708-2.962-3.652-5.987l-0.491 0.865c1.065 3.219 2.995 6.295 4.346 6.014 1.299-0.271 1.893-5.045 0.133-8.855z" fill="#0f141b"/>
  </g>
  <g transform="matrix(.6796 0 0 -.6796 23.859 22.586)">
   <path d="m0 0c-1.343 4.265-1.876 9.263-1.963 13.898-0.148 7.978 1.272 16.458 3.085 17.151 1.864 0.722 11.916-7.189 17.63-18.164 5.025-9.65 5.715-17.892 2.792-24.976-0.71-1.719-1.324-1.504-0.686 0.281 2.566 7.162 1.629 14.814-3.212 24.111-6.47 12.427-15.355 18.178-16.178 17.863-0.828-0.32-2.462-6.078-2.26-16.305 0.108-5.504 0.868-11.438 2.667-16.237z" fill="#0f141b"/>
  </g>
  <g transform="matrix(.6796 0 0 -.6796 19.455 59.82)">
   <path d="m0 0c-2.397 2.748-3.707 6.153-4.062 9.821-0.774 7.971 2.019 15.205 9.262 20.364-7.304 2.583-14.662 8.68-22.213 18.024-7.96 9.851-10.743 27.909-8.569 29.508 1.909 1.403 12.55-0.75 22.41-9.633 4.379-3.944 8.825-9.437 12.374-17.191 0.888-1.941 0.381-2.166-0.612-0.277-3.883 7.383-8.28 12.574-12.601 16.471-10.797 9.741-20.03 10.595-20.938 9.903-1.252-0.96 0.57-17.595 8.971-27.992 7.93-9.814 14.832-15.324 21.647-17.897 1.444-0.546 1.397-0.821 0.241-1.664-6.467-4.716-9.532-11.488-8.75-19.549 0.371-3.824 1.979-7.383 4.597-10.252z" fill="#0f141b"/>
  </g>
  <g transform="matrix(.6796 0 0 -.6796 28.951 34.347)">
   <path d="m0 0c-0.725 2.347-1.659 4.705-2.731 6.902-0.566 1.16-7e-3 1.422 0.622 0.296 1.211-2.167 2.101-4.623 2.68-7.045 0.463-1.937 7e-3 -2.025-0.571-0.153" fill="#0f141b"/>
  </g>
  <g transform="matrix(.6796 0 0 -.6796 16.257 22.956)">
   <path d="m0 0c-0.223-0.159 1.723-5.796 5.765-11.505 4.582-6.471 8.619-9.81 9.125-9.521 0.216 0.124-1.098 6.511-4.718 11.942-4.606 6.907-10.02 9.193-10.172 9.084m-0.5 0.765c0.93 0.559 7.225-2.805 11.544-9.285 3.094-4.64 5.403-12.515 4.416-13.214-1.582-1.12-7.157 4.795-10.579 9.629-3.62 5.112-6.557 12.164-5.381 12.87" fill="#0f141b"/>
  </g>
  <g transform="matrix(.6796 0 0 -.6796 30.962 19.77)">
   <path d="m0 0c-0.318-0.051-1.278-5.812-0.352-12.404 1.333-9.492 2.833-12.153 3.204-12.082 0.836 0.134 2.481 5.722 1.046 12.792-1.653 8.152-3.553 11.749-3.898 11.694m-0.123 0.909c1.392 0.168 3.733-5.911 5.053-12.415 1.433-7.065-0.248-13.6-1.959-13.886-1.649-0.269-3.3 5.416-4.348 12.873-0.843 6.006-0.059 13.27 1.254 13.428" fill="#0f141b"/>
  </g>
  <g transform="matrix(.6796 0 0 -.6796 28.641 63.703)">
   <path d="m0 0c3.9-2.39 7.169-4.355 8.689-4.913 0.76-0.279 0.904-0.236 0.825 0.432-0.174 1.476-1.613 3.289-3.874 4.571-2.886 1.635-5.398 1.288-6.67 0.239l-0.736 0.51c1.541 1.462 4.519 1.875 7.852-0.014 2.627-1.489 3.949-3.447 4.16-5.233 0.16-1.368-0.682-1.63-1.803-1.218-1.574 0.577-3.797 1.885-5.77 3.076z" fill="#0f141b"/>
  </g>
  <g transform="matrix(.6796 0 0 -.6796 31.796 78.665)">
   <path d="m0 0c-0.354-2.549-2.944-4.714-6.119-5.154-1.466-0.202-1.4-0.825 0.072-0.68 3.433 0.335 6.323 2.66 6.843 5.606 0.064 0.363 0.046 0.448-0.174 0.774-2.073 3.063-2.545 9.408-0.782 13.994 0.434 1.131 0.318 1.325-0.924 1.138-10.457-1.573-20.56-0.467-26.609 2.78-3.259 1.749-4.388 4.044-3.997 5.823 0.373 1.699 3.002 3.971 8.241 3.649 8.123-0.505 15.129-3.607 21.218-8.632 1.691-1.396 2.052-0.987 0.442 0.503-5.873 5.433-13.899 8.666-21.621 9.145-5.376 0.337-8.705-1.818-9.279-4.435-0.456-2.075 0.174-4.563 4.534-6.902 6.169-3.309 16.636-4.281 27.284-2.662-1.695-4.872-1.692-11.556 0.871-14.947" fill="#0f141b"/>
  </g>
  <g transform="matrix(.6796 0 0 -.6796 59.458 81.568)">
   <path d="m0 0c-2.417-5.614-10.586-6.56-13.176 1.625-1.602 5.067-3.846 7.667-4.53 7.754-1.059 0.137-2.875-0.559-4.845-1.885-1.929-4.506-9.418-6.838-14.237-5.794l0.344 0.84c4.34-0.776 10.93 1.123 13.107 5.316 0.108 0.207 0.17 0.295 0.358 0.415 2.211 1.413 4.44 2.14 5.39 2.017 1.321-0.168 3.731-3.558 5.267-8.411 2.254-7.125 9.22-6.572 11.428-1.443 3.663 8.505 6.255 14.63 10.256 18.708 4.285 4.369 4.292 11.21-2.207 12.305-3.038 0.511-6.634-0.328-9.954-2.936-4.996-3.925-8.387-10.87-9.041-18.129-0.169-1.872-0.75-1.821-0.67 0.058 0.314 7.403 3.987 14.854 9.11 18.879 3.384 2.659 7.438 3.631 10.739 3.073 6.774-1.142 8.166-8.482 2.729-13.928-3.923-3.93-6.432-10.021-10.068-18.464" fill="#0f141b"/>
  </g>
  <g transform="matrix(.6796 0 0 -.6796 51.739 70.992)">
   <path d="m0 0c-2.212-0.196-4.549 0.338-7.21 1.403-2.879 1.151-5.317 2.096-7.352 2.731 1.687-2.298 2.983-4.82 3.59-6.768l-0.841-0.443c-0.589 1.955-1.811 4.374-3.767 7.26-0.73 1.078-0.501 1.335 0.738 0.932 2.709-0.879 4.993-1.672 7.986-2.868 2.892-1.157 4.955-1.482 7.124-1.29z" fill="#0f141b"/>
  </g>
  <g transform="matrix(.6796 0 0 -.6796 14.212 59.341)">
   <path d="m0 0c-2.29-0.902-2.125-3.987 1.15-5.162 1.176-0.422 1.024-0.888-0.189-0.561-3.607 0.975-4.042 4.01-2.597 5.518z" fill="#0f141b"/>
  </g>
  <g transform="matrix(.6796 0 0 -.6796 11.262 60.405)">
   <path d="m0 0c-1.686-2.031-0.821-4.98 1.468-6.189 1.232-0.651 1.062-1.03-0.252-0.536-2.339 0.881-3.376 3.413-2.752 5.508z" fill="#0f141b"/>
  </g>
  <g transform="matrix(.6796 0 0 -.6796 39.395 63.204)">
   <path d="m0 0c-1.159-1.038-1.886-3.077-1.842-4.166 0.029-0.706 0.433-0.971 1.587-0.57 1.409 0.491 2.589 2.009 3.151 3.756 0.584 1.815-1.092 2.596-2.896 0.98m3.744-1.258c-0.658-2.046-2.053-3.559-3.762-4.154-1.637-0.569-2.473-0.075-2.526 1.224-0.067 1.685 0.757 3.717 1.982 4.815 2.499 2.239 5.176 0.822 4.306-1.885" fill="#0f141b"/>
  </g>
  <g transform="matrix(.6796 0 0 -.6796 41.742 63.384)">
   <path d="m0 0c6.627 1.864 15.885 2.058 20.382-0.262l-0.646-0.801c-4.103 2.025-12.767 2.096-19.877 0.174z" fill="#0f141b"/>
  </g>
  <g transform="matrix(.6796 0 0 -.6796 28.306 85.129)">
   <path d="M 0,0 C -1.327,0.168 -1.233,0.796 0.098,0.675 2.789,0.43 6.657,2.44 9.021,7.744 9.675,9.208 10.266,8.965 9.683,7.47 7.591,2.098 3.501,-0.445 0,0" fill="#0f141b"/>
  </g>
  <g transform="matrix(.6796 0 0 -.6796 60.849 60.051)">
   <path d="m0 0c3.643-1.519 4.383-6.282 0.285-10.834-0.936-1.041-1.366-0.777-0.455 0.377 3.585 4.538 2.928 8.838-0.915 10.028z" fill="#0f141b"/>
  </g>
  <g transform="matrix(.6796 0 0 -.6796 66.7 60.757)">
   <path d="m0 0c1.976-2.621 1.096-6.879-2.514-10.374-1.158-1.122-1.55-0.859-0.43 0.405 3.593 4.056 4.093 8.424 1.149 10.67z" fill="#0f141b"/>
  </g>
  <g transform="matrix(.6796 0 0 -.6796 51.165 74.676)">
   <path d="m0 0c-1.583 2.944-3.631 4.926-4.509 4.944-1.002 0.02-4.544-2.142-7.555-3.539-1.351-0.626-1.614-0.042-0.287 0.63 2.994 1.516 6.59 3.831 7.883 3.816 1.209-0.014 3.151-1.854 4.613-4.452z" fill="#0f141b"/>
  </g>
  <g transform="matrix(.6796 0 0 -.6796 60.65 74.616)">
   <path d="m0 0c0.146 0.332 0.073 0.454-0.241 0.438-2.377-0.085-4.821 0.065-6.547 0.435-0.741 0.159-0.937 0.043-1.064-0.333-0.746-2.206-1.387-4.457-1.799-6.409-0.092-0.436-0.014-0.563 0.359-0.636 2.517-0.497 4.73-0.486 6.338 0.05 0.53 0.177 0.624 0.338 0.804 0.858 0.707 2.055 1.334 3.732 2.15 5.597m-9.449-7.252c-0.868 0.171-1.126 0.73-0.957 1.53 0.417 1.974 1.058 4.295 1.811 6.522 0.297 0.875 0.824 1.096 1.953 0.854 1.657-0.355 4.07-0.512 6.366-0.429 1.029 0.053 1.377-0.683 1.004-1.533-0.811-1.849-1.47-3.504-2.172-5.543-0.276-0.8-0.644-1.096-1.277-1.307-1.806-0.602-4.39-0.555-6.728-0.094" fill="#0f141b"/>
  </g>
  <g transform="matrix(.6796 0 0 -.6796 31.929 78.318)">
   <path d="m0 0c-1.929-0.575-4.145 0.212-4.635 2.729-0.505 2.595 0.868 4.311 2.784 4.428l0.046-0.788c-1.411-0.131-2.369-1.428-1.966-3.493 0.34-1.751 1.842-2.48 3.373-2.135z" fill="#0f141b"/>
  </g>
  <g transform="matrix(.6796 0 0 -.6796 26.589 93.311)">
   <path d="m0 0c3.227-2.048 4.901-4.584 4.702-6.715-0.274-2.94-3.346-5.332-8.499-5.542-5.977-0.244-9.694 1.717-10.714 8.114-1.385 8.689 2.577 17.726 9.835 21.969 2.995 1.752 6.53 1.363 8.073-1.366l-0.872-0.252c-1.355 2.02-3.949 2.384-6.703 0.774-6.939-4.057-10.674-12.729-9.354-21.006 0.895-5.617 3.996-7.507 9.708-7.276 4.28 0.175 7.307 1.992 7.56 4.702 0.15 1.598-0.713 3.353-3.832 5.665z" fill="#0f141b"/>
  </g>
  <g transform="matrix(.6796 0 0 -.6796 29.306 84.93)">
   <path d="m0 0c-1.638-3.448-3.289-9.022-3.725-13.185-0.146-1.398-0.743-1.353-0.678 0.058 0.19 4.192 1.928 9.754 3.504 13.117z" fill="#0f141b"/>
  </g>
  <g transform="matrix(.6796 0 0 -.6796 21.433 101.19)">
   <path d="m0 0c2.496 0.926 2.829 4.918 1.063 7.036-0.713 0.857-0.375 1.191 0.421 0.415 2.008-1.957 2.052-5.988-0.089-7.646z" fill="#0f141b"/>
  </g>
  <g transform="matrix(.6796 0 0 -.6796 25.912 101.06)">
   <path d="m0 0c1.974 2.63 1.486 5.419-0.01 7.076-0.844 0.934-0.533 1.228 0.425 0.411 1.637-1.395 2.462-4.328 0.939-7.07z" fill="#0f141b"/>
  </g>
  <g transform="matrix(.6796 0 0 -.6796 30.484 48.293)">
   <path d="m0 0c-0.754-0.419-0.869-0.649-0.76-1.439 0.299-2.149 0.844-4.113 1.15-5.115 0.113-0.369 0.309-0.417 0.957-0.205 4.036 1.317 8.174 1.873 11.592 1.551 0.481-0.047 0.703 0.076 0.683 0.442-0.118 2.122-0.549 4.158-0.911 5.259-0.261 0.794-0.589 0.972-1.537 1.164-2.258 0.457-8.179 7e-3 -11.174-1.657m13.479 0.723c0.391-1.269 0.826-3.333 0.93-5.463 0.049-1.014-0.537-1.341-1.548-1.246-3.341 0.312-7.324-0.223-11.286-1.516-1.308-0.427-1.702-0.096-1.952 0.72-0.311 1.019-0.89 3.04-1.194 5.229-0.133 0.956-0.016 1.603 1.158 2.255 2.917 1.621 8.94 2.343 11.758 1.773 1.335-0.27 1.799-0.661 2.134-1.752" fill="#b2814f"/>
  </g>
  <g transform="matrix(.6796 0 0 -.6796 28.995 57.976)">
   <path d="m0 0c-0.692-1.577 4.38-6.75 9.966-5.915 4.343 0.648 8.242 6.477 7.626 8.118-0.201 0.537-4.006 1.836-9.203 0.966-4.254-0.711-7.982-2.239-8.389-3.169" fill="#ed8599"/>
  </g>
  <g transform="matrix(.6796 0 0 -.6796 40.951 56.479)">
   <path d="m0 0c-0.201 0.537-4.006 1.836-9.203 0.966-4.254-0.712-7.982-2.239-8.389-3.169-0.314-0.715 0.56-2.17 2.127-3.468 0.891 1.379 2.924 2.182 5.957 1.96 3.025-0.223 4.763-1.204 5.615-2.633 2.567 2.041 4.322 5.203 3.893 6.344" fill="#923000"/>
  </g>
  <g transform="matrix(.6796 0 0 -.6796 38.972 55.773)">
   <path d="m0 0c-1.61 0.26-3.786 0.347-6.292-0.072-1.195-0.2-2.346-0.466-3.396-0.764 1.177-1.527 3.931-2.769 5.193-2.575 1.285 0.198 3.596 1.758 4.495 3.411" fill="#fff"/>
  </g>
  <g transform="matrix(.6796 0 0 -.6796 31.969 61.287)">
   <path d="M 0,0 C 0.188,1.607 4.576,3.006 7.715,2.231 5.237,3.914 -0.582,4.037 -2.249,1.404 -1.722,0.889 -1.116,0.51 0,0" fill="#ce7486"/>
  </g>
  <g transform="matrix(.6796 0 0 -.6796 29.253 58.099)">
   <path d="m0 0c-0.468-1.088 4.062-6.075 9.514-5.277 4.32 0.633 7.87 6.39 7.325 7.529-0.182 0.379-3.688 1.505-8.77 0.666-4.429-0.731-7.8-2.292-8.069-2.918m-0.795 0.338c0.513 1.168 4.534 2.725 8.744 3.43 4.75 0.793 9.252-0.248 9.633-1.244 0.743-1.944-3.331-8.049-7.946-8.739-5.922-0.887-11.261 4.664-10.431 6.553" fill="#0f141b"/>
  </g>
  <g transform="matrix(.6796 0 0 -.6796 39.228 55.813)">
   <path d="m0 0c-0.798-1.775-3.298-3.538-4.83-3.773-1.445-0.225-4.52 1.192-5.645 2.899l0.77 0.22c1.195-1.416 3.709-2.453 4.77-2.298 1.187 0.175 3.398 1.725 4.177 3.084z" fill="#0f141b"/>
  </g>
  <g transform="matrix(.6796 0 0 -.6796 38.09 60.932)">
   <path d="m0 0c-0.777 1.294-2.405 2.24-5.319 2.454-3.012 0.222-4.83-0.528-5.649-1.8l-0.588 0.461c0.939 1.434 3.121 2.34 6.298 2.106 3.081-0.226 4.925-1.274 5.854-2.761z" fill="#0f141b"/>
  </g>
  <g transform="matrix(.6796 0 0 -.6796 36.213 55.646)">
   <path d="m0 0c-0.054 1.006-0.153 2.014-0.296 2.961l0.78 0.166c0.175-1.003 0.287-2.059 0.343-3.104z" fill="#0f141b"/>
  </g>
  <g transform="matrix(.6796 0 0 -.6796 18.867 51.573)">
   <path d="m0 0c-2.692 5.763-10.532 6.416-10.839 5.979-0.356-0.51 1.842-4.791 5.205-7.357-4.731 1.782-10.712 1.002-11.114 0.31-0.507-0.873 1.747-4.914 6.433-7.36 4.732-2.471 9.109-2.687 11.619-1.513 1.575 0.736 0.782 5.475-1.304 9.941" fill="#fff"/>
  </g>
  <g transform="matrix(.6796 0 0 -.6796 25.054 55.295)">
   <path d="M 0,0 C 1.358,-0.945 4.01,-0.12 4.347,1.619 4.612,2.99 3.086,4.248 1.043,3.14 -0.559,2.271 -0.708,0.493 0,0" fill="#e95520"/>
  </g>
  <g transform="matrix(.6796 0 0 -.6796 42.864 52.666)">
   <path d="m0 0c0.858-0.684 2.768-0.544 3.401 0.663 0.834 1.592-0.498 3.082-2.38 2.521-1.64-0.489-1.907-2.477-1.021-3.184" fill="#e95520"/>
  </g>
  <g transform="matrix(.6796 0 0 -.6796 7.5858 52.284)">
   <path d="m0 0c2.247-4.843 10.985-8.853 16.328-7.624 1.358 0.312 2.194-0.261 2.098-1.067-7.432-3.276-18.417 3.479-18.426 8.691" fill="#dbdcdc"/>
  </g>
  <g transform="matrix(.6796 0 0 -.6796 11.557 47.442)">
   <path d="m0 0c1.097-1.874 5.128-6.513 8.056-8.745-0.767 0.424-2.222 1.069-3.151 1.379-2.787 2.265-5.15 6.323-4.905 7.366" fill="#dbdcdc"/>
  </g>
  <g transform="matrix(.6796 0 0 -.6796 14.464 52.36)">
   <path d="m0 0c-2.974 2.209-5.271 6.622-4.728 7.395 0.364 0.518 3.885 0.237 6.875-1.334 2.094-1.102 3.632-2.682 4.444-4.386 0.661-1.389 0.151-1.649-0.593-0.302-0.976 1.762-2.485 3.044-4.242 3.961-2.829 1.476-5.606 1.645-5.759 1.494-0.164-0.162 2.039-4.79 6.062-7.446z" fill="#0f141b"/>
  </g>
  <g transform="matrix(.6796 0 0 -.6796 11.679 57.619)">
   <path d="m0 0c-5.245 2.739-7.248 6.891-6.572 8.053 0.652 1.122 8.554 1.953 13.331-1.012 1.981-1.23 1.748-1.625-0.336-0.577-4.984 2.506-11.823 1.566-12.199 1.117-0.226-0.393 1.523-4.189 6.293-6.679 5.109-2.668 8.854-2.599 10.823-1.809 1.249 0.502 1.477 0.027 0.29-0.605-2.672-1.424-7.61-0.586-11.63 1.512" fill="#0f141b"/>
  </g>
 </g>
</svg>
