<?xml version="1.0" encoding="UTF-8"?>
<!-- Created with Inkscape (http://www.inkscape.org/) -->
<svg version="1.1" viewBox="0 0 109.94 140.16" xmlns="http://www.w3.org/2000/svg">
 <defs>
  <clipPath id="b">
   <rect width="226.21" height="288.39" fill="none"/>
  </clipPath>
 </defs>
 <g transform="translate(-2.3505 -1.6989)">
  <g transform="matrix(.48601 0 0 .48601 2.3505 1.6989)">
   <g clip-path="url(#b)">
    <path transform="translate(-9.216 -.286)" d="m122.98 98.772c7.536-3.2 13.1-10.22 12.169-12.884-0.44-1.259-4.205-1.688-8.358-0.558 16.053-12.968 7.33-40.731-16.374-46.568-14.562-3.587-25.656-18.273-27.378-31.131-0.261-1.951-1.071-2.174-2.215-0.492-3.453 5.078-4.266 15.77-2.079 24.8l-0.653 11.491a109.2 109.2 0 0 0-25.322-20.173c-9.036-5.301-14.242-13.134-14.458-20.117-0.068-2.205-1.308-3.352-3.014-0.553-11.883 19.463-2.707 50.5 19.339 63.771-3.925-0.689-6.9-0.705-7.28 0.027-1.51 2.888 8.2 11.334 17.842 16.934-8.767-1.462-18.408 1.657-18.518 3.306-0.3 4.545 16.8 12.182 30.7 10.09a19.884 19.884 0 0 0 7.382 11.074c-0.127 0.821-0.252 1.763-0.363 2.714a43.484 43.484 0 0 1 1.927 6.475 31.735 31.735 0 0 1 11.262 10.252c1.062-1.937 2.082-5.1 1.8-6.183-0.322-1.246-3.968-4.614-7.613-7.014 0.13-0.441 0.289-0.94 0.436-1.424 8.194 3.216 18.415 0.12 23.669-4.987 7.975 2.432 15.809-1.6 15.854-3.97 0.025-1.328-3.1-4.014-8.754-4.88" fill="#fff"/>
    <path transform="translate(-33.174,-30.495)" d="m132.01 124.97c-0.543-6.907 0.227-13.6 3.819-17.168a6.675 6.675 0 0 1-1.354-3.578c0-0.776 1.49-2.855 2.553-4.076 0.849-0.976 1.216-0.938 1.6 0.442a19.917 19.917 0 0 1 0.8 4.929 4.25 4.25 0 0 1-1.72 2.454c1.187 5.373-0.919 13.378-3.264 17.238 2.913-3.511 7.318-7.013 10.65-8.019 0.846-0.256 1.146-6e-3 0.773 0.883-1.68 4.008-6.69 7.783-11.934 11.135-1.291 0.825-1.981 0.773-2.856-0.06-5.441-5.179-18.514-18.159-22.475-24.185-0.724-1.1-0.411-1.41 0.822-0.883 7.5 3.2 20.3 13.6 22.585 20.889" fill="#ffea65"/>
    <path transform="translate(-30.4,-10.929)" d="m110.74 76.843c0.236 3.437 2.649 8.907 8.339 15.873 4.771 4.077 8.944 8.819 10.154 12.688-0.543-6.907 0.227-13.6 3.819-17.168a6.674 6.674 0 0 1-1.353-3.578c0-0.776 1.49-2.855 2.553-4.076 0.849-0.976 1.216-0.938 1.6 0.442a19.944 19.944 0 0 1 0.8 4.929 4.25 4.25 0 0 1-1.72 2.454c1.187 5.373-0.918 13.378-3.264 17.238a31.3 31.3 0 0 1 7.816-6.732c9.07-16.063 0.929-33.472-21.362-41.51a19.174 19.174 0 0 1-11.7-11.245c-1.537-4.3-2.014-7.086-2.691-9.3-0.506-1.659-1.37-1.534-2.044-0.071-1.625 3.532-2.9 10.447-2.415 17.289 4.842 5.224 10.828 13.452 11.468 22.767" fill="#c71e09"/>
    <path transform="translate(-45.954,-19.731)" d="m151.52 64.789c-1.622-0.832-2.218-0.473-0.861 1.354 3.876 5.216 6.31 12.5 5.8 18.536a23.612 23.612 0 0 1 2.217 9.6c9.593-5.949 4.145-23.692-7.154-29.492" fill="#ffea65"/>
    <path transform="translate(-22.679,-16.925)" d="m75.519 55.43c-1.422-0.567-1.818 0-1.354 1.2 3.322 8.552 15.425 22.219 22.24 26.824 1.138 0.769 1.828 0.239 1.692-1.107-1.138-11.259-11.627-22.547-22.578-26.917" fill="#ffea65"/>
    <path transform="translate(-35.245,-36.406)" d="m117.13 118.76c-4.244 9.437-1.618 18.677 2.641 18.751 3.315 0.058 6.606-3.137 7.312-8.379-3.206-3.2-6.83-6.931-9.952-10.373" fill="#fff"/>
    <path transform="translate(-31.651,-37.622)" d="m111.66 126.21c-2.879-2.184-7.922-3.948-8.345-3.371-0.546 0.745 2.473 3.041 4.636 5.928-0.11 7.448 4.389 10.148 8.226 9.963-3.3-0.058-5.618-5.625-4.518-12.521" fill="#001e4d"/>
    <path transform="translate(-35.804,-39.149)" d="m122.01 127.75c-1.72-0.379-4.05 1.756-4.929 5.753a10.612 10.612 0 0 0-0.135 4.219c1.051 1.931 2.481 2.828 4.491 2.426a9.495 9.495 0 0 0 2.458-5.091c0.867-3.941 0.071-6.876-1.885-7.306" fill="#c71e09"/>
    <path transform="translate(-36.808,-40.469)" d="m122.93 135.42c-0.476 1.9-1.4 2.867-2.114 2.682-0.754-0.2-0.95-1.622-0.531-3.4 0.447-1.9 1.358-2.862 2.123-2.661s1.009 1.44 0.523 3.383" fill="#fff"/>
    <path transform="translate(-45.028,-40.47)" d="m147.59 138.01c-1.451 4.785-0.394 7.849 0.848 7.915 2.564 0.137 6.865-6.38 6.563-13.906a42.981 42.981 0 0 1-7.411 5.991" fill="#fff"/>
    <path transform="translate(-45.491,-42.575)" d="m154.95 139.36c-1.184 5.068-4.114 8.773-6.052 8.67a0.915 0.915 0 0 1-0.5-0.205c1.983 2.117 5.315 0.79 7.474-5.643 2.33-1.2 3.72-2.7 3.6-3.045-0.134-0.38-2.069-0.347-4.519 0.223" fill="#001e4d"/>
    <path transform="translate(-45.065,-42.06)" d="m150.98 137.2c-0.959 0.734-1.968 1.454-3.007 2.157a12.026 12.026 0 0 0-0.732 2.494c-0.619 3.323 0.033 5.48 1.228 5.66 1.036 0.156 2.589-1.643 3.184-4.837 0.515-2.759 0.2-4.788-0.673-5.473" fill="#c71e09"/>
    <path transform="translate(-45.492,-43.347)" d="m150.48 143.78c-0.248 1.418-0.893 2.055-1.416 1.963-0.543-0.094-0.817-0.98-0.585-2.312 0.225-1.288 0.859-2.114 1.383-2.023s0.851 1.03 0.617 2.372" fill="#fff"/>
    <path transform="translate(-42.388,-42.755)" d="m143.15 141.47c-1.291 0.825-1.981 0.772-2.856-0.06-0.589-0.56-1.27-1.216-2.016-1.94 0.205 2.389 1.406 4.914 2.329 5.068 0.693 0.115 2.955-1.7 3.348-3.589q-0.4 0.261-0.8 0.52" fill="#c71e09"/>
    <path transform="translate(-4.618,-49.803)" d="m69.332 184.31c6.482-1.862 9.036-6.118 6.829-13.965-2.072-7.366-9.809-9.556-17.718-6.645-8.859 3.261-21.164 10.274-24.609 13.9-5.558 5.855-9.1 13.557-12.7 25.8-6.214 6.096-7.788 12.596-4.115 15.274 4.281 3.125 10-0.206 13.049-10.579 3.993-6.875 12.061-16.96 16.3-18.647 3.643-1.451 15.339-2.948 22.962-5.138" fill="#fff"/>
    <path transform="translate(-21.175,-44.123)" d="m93.638 149.3c-0.836-0.069-1.931 3.035-3.412 5.864-2.8-6.848-12.07-11.988-13.388-11.14-0.524 0.337 0.075 6.174 1.159 9.841-3.16-1.135-8.4-1.761-8.867-1.085-0.345 0.5 0.935 3.847 2.665 6.522 1.1-0.468 2.176-0.9 3.2-1.277 7.909-2.911 15.647-0.722 17.719 6.644 2.207 7.848-0.347 12.1-6.829 13.966-1.054 0.3-2.187 0.592-3.365 0.87 3.33 2.243 6.129 4.077 8.333 5.277 3.875-2.595 7.821-10.321 8.093-17.209 0.32-8.12-4.41-18.2-5.312-18.273" fill="#001e4d"/>
    <path transform="translate(-34.086,-50.143)" d="m132.24 163.95c-0.662-0.058-2.564 3.441-3.536 5.68a41.092 41.092 0 0 0-1.359-6.062 22.742 22.742 0 0 1-5.631 0.045c-0.373 1-0.766 2.216-1.089 3.268 1.958 1.664 3.433 3.249 3.633 4.021 0.282 1.088-0.739 4.245-1.8 6.183a31.733 31.733 0 0 0-11.264-10.252 22.748 22.748 0 0 1 0.413 9.295c4.5 2.816 10.27 8.539 14.143 12.8a65.622 65.622 0 0 0 4.1-10.373 49.474 49.474 0 0 1 1.376 11.942c2.23-3.851 3.527-8.7 3.6-15.319 0.072-6.6-1.7-11.151-2.584-11.228" fill="#001e4d"/>
    <path transform="translate(-29.99,-55.696)" d="m129.4 209.59a27.661 27.661 0 0 1-2.223-13.63c-0.018 0.032-0.035 0.064-0.053 0.1a49.512 49.512 0 0 0-1.376-11.943 65.628 65.628 0 0 1-4.1 10.373c-3.873-4.261-9.647-9.984-14.143-12.8-0.973 6.142-4.419 12.37-7.818 14.658 1.694 7.717 1.96 15.8-1.86 21.68 1.355-0.257 2.772 0.1 4.749 1.039 13.287 6.327 26.364 14.724 35.091 22.143-0.357-10.044-3.406-20.352-8.267-31.618" fill="#fff"/>
    <path transform="translate(-29.99,-68.996)" d="m132.29 230.07a20.834 20.834 0 0 1-4.886 5.551c-6.732-5.439-20.181-10.662-27.076-10.551a18.247 18.247 0 0 1-2.5 6.251c1.356-0.257 2.772 0.1 4.749 1.039a184.29 184.29 0 0 1 17.565 9.608 31.113 31.113 0 0 1-2.246-5.117c3.783 1.322 8.182 4.337 11.228 6.86a10.486 10.486 0 0 0 4.245-4.583 29.27 29.27 0 0 1 0.492 5.075 8.463 8.463 0 0 0 1.971-2.635 99.4 99.4 0 0 0-3.546-11.5" fill="#001e4d"/>
    <path transform="translate(-38.862,-74.205)" d="m144.71 246.78a8.447 8.447 0 0 1-1.971 2.635 29.274 29.274 0 0 0-0.492-5.075 10.482 10.482 0 0 1-4.243 4.583c-3.045-2.522-7.444-5.536-11.228-6.86a31.174 31.174 0 0 0 2.246 5.117 147.47 147.47 0 0 1 17.525 12.535 65.766 65.766 0 0 0-1.835-12.936" fill="#c71e09"/>
    <path transform="translate(-42.905,-57.95)" d="m172.74 192.71c-2.119-0.143-4.091 2.671-4.958 6.314-4.613 2.756-14.559 2.675-20.812 0.717a48.8 48.8 0 0 0-3.8-10.7 26.224 26.224 0 0 1-3.074 9.173 27.661 27.661 0 0 0 2.223 13.63q1.645 3.811 3 7.482c8.307 0.578 23.943-6.023 29.272-16.157 2.689-5.114 0.487-10.3-1.846-10.459" fill="#fff"/>
    <path transform="translate(-17.825,-61.323)" d="m76.571 253.97c-1.258-7.169 1.921-20.913 8.367-29.284a16.793 16.793 0 0 0 2.566-4.863c-5.777-11.522-25.832-22.176-28.1-19.315-0.812 1.026 1.529 6.973 5.683 13.273-3.205-2.573-5.4-3.256-6.36-2.568-1.723 1.23 0.37 9.782 6.337 16.611-5.714 9.924-0.6 24.956 11.526 26.255-7e-3 -0.036-0.016-0.072-0.022-0.108" fill="#fff"/>
    <path transform="translate(-50.638,-96.252)" d="m261.4 318.62c-12.295-1.908-18.518 2.632-21.1 8.674-5.732 13.4-9.964 21.015-15.3 26.321-8.184-0.266-27.393-18.254-43.842-39.459a9.893 9.893 0 0 0-3.711 6e-3c-1.439 3.966-5.824 5.8-10.425 5.011a10.965 10.965 0 0 1-1.845 9.783c5.229 6.214 11.935 11.2 23.255 17.78 18.379 10.688 21.8 17.141 24.547 28.238 3.145 12.722 14.039 10.679 24.486 0.8 5.66-5.352 13.017-11.845 19.687-17.226 7.321-5.906 14.766-14.089 18.4-23.071 2.306-5.706-3.445-15.2-14.15-16.857" fill="#001e4d"/>
    <path transform="translate(-32.818,-86.699)" d="m147.36 319.4a10.965 10.965 0 0 0 1.845-9.782c4.6 0.786 8.986-1.045 10.425-5.011a9.892 9.892 0 0 1 3.711-6e-3q1.183 1.523 2.383 3.02c4.893-5.056 3.252-16.969-3.29-19.136-5.146-7.787-14.069-7.022-18.053-0.907-6.743-1.5-12.046 2.035-13.18 8.358-12.671-2.413-23.738-3.207-24.137-1.76-0.445 1.612 10.014 8.149 19.206 11.163-6.26-0.444-11.788 0.042-11.947 1.264-0.207 1.581 7.414 6.219 14.347 7.5a9.6 9.6 0 0 0 9.153 8.186c2.4 4.512 7.71 4.086 11.708-0.475q-1.131-1.183-2.172-2.417" fill="#ffea65"/>
    <path transform="translate(-25.85,-71.724)" d="m119.31 290.36c-9.192-3.014-19.652-9.55-19.206-11.163 0.4-1.447 11.465-0.653 24.137 1.76 1.134-6.324 6.437-9.855 13.18-8.358a10.386 10.386 0 0 1 5.929-4.4c-4.011-8.376-24.21-23.255-44.907-33.111-1.977-0.942-3.394-1.3-4.749-1.039-0.23 0.354-0.467 0.7-0.727 1.039-6.446 8.372-9.624 22.115-8.367 29.284 1.8 10.246 12.347 20.53 23.294 26.7 1.531-0.8 6.216-1.08 11.417-0.711" fill="#c71e09"/>
    <path transform="translate(-28.519,-80.327)" d="m119.66 283.45c1.487 0.059 2.01-0.571 1.246-1.754-2.476-3.829-5.867-8.04-8.758-10.11-2.681-1.919-7.674-2.891-10.814-3.141-0.429-2.677-1.107-5.068-1.677-5.532-0.865-0.7-5.889-1.25-6.5-0.571-0.639 0.715 1.32 6.889 2.07 7.353a9.8 9.8 0 0 0 4.033 0.821c2.783 4.5 5.57 7.874 8.851 9.886a23.369 23.369 0 0 0 11.544 3.048" fill="#ffea65"/>
    <g fill="#c71e09">
     <path transform="translate(-81.425,-98.107)" d="m306.34 337.33c2.306-5.706-3.445-15.2-14.15-16.857-12.3-1.908-18.518 2.632-21.1 8.674-1.968 4.6-3.757 8.507-5.477 11.884 0.153 3.242 1.857 7.227 3.523 8.188 3.744 2.158 21.65 2.884 29.892 0.176a48.565 48.565 0 0 0 7.314-12.065"/>
     <path transform="translate(-40.31 -106.62)" d="m132.56 348.18c-0.143-0.141-0.293-0.264-0.441-0.39q-0.3 0.249-0.62 0.482z"/>
     <path transform="translate(-35.904 -106.39)" d="m118.5 347.81c-0.338-0.277-0.663-0.524-0.985-0.758-0.137 0.082-0.273 0.164-0.4 0.25z"/>
    </g>
    <path transform="translate(-26.662,-93.945)" d="m118.47 335.12c-3.185-2.7-7.594-2.056-10.187-0.506a10.509 10.509 0 0 0-1.892-1.134c1.784-9.9-2.523-17.718-9.905-18.764a35.213 35.213 0 0 0 1.518-7.911c-7.1-1.587-9.486 2.628-9.035 6.374-2.168 2.307-2.215 5.814-1.245 8.721-3.369 7.014 5.444 20.995 12.458 19.564a3.156 3.156 0 0 1 3.322 1.241c3 3.461 10.382 4.014 15.873-3.045 4.127-1.695 4.98-6.7 3.409-9.9a16.718 16.718 0 0 1-4.312 5.358" fill="#ffea65"/>
    <path transform="translate(-.345 -89.89)" d="m63.534 330.46c-2.523-4.136-3.777-9.2-2.137-12.619-0.933-2.8-0.919-6.149 1.018-8.454-4.679-2.336-13.463-3.8-19.059-7.326-3.706-11.286-10.882-11.367-16.472-2.445-3.075 4.907-8.692 12.377-13.243 15.549-4.568 3.184-10.982 9.552-12.135 12.874-1.5 4.315 1.27 9.666 10.889 9.782 6 0.073 13.7-2.308 15.365-8.49 2-7.449 7.627-15.752 12.842-16.383 5.63 4.355 14.794 9.241 22.932 17.512" fill="#001e4d"/>
    <path transform="translate(-.345 -101.44)" d="m8.534 330.9c-3.267 3.036-6.274 6.509-7.029 8.682-1.5 4.315 1.27 9.666 10.89 9.782 6 0.073 13.7-2.308 15.365-8.49q0.182-0.675 0.4-1.357c-7.8 3.367-17.951-0.512-19.628-8.617" fill="#c71e09"/>
    <g fill="#d4d5d5">
     <path transform="translate(-9.327,-7.514)" d="m31.121 24.511c0.125 16.032 14.66 42.858 37.943 53.19a78.237 78.237 0 0 0-14.321-4.115c-17.985-10.924-26.991-32.418-23.622-49.075"/>
     <path transform="translate(-17.024,-29.76)" d="m55.535 97.079c4.578 5.486 18.666 15.483 29.081 18.5 1.4 0.4 1.7 1.916 0.478 2.467-10.005-1.872-29.2-15.712-29.559-20.968"/>
     <path transform="translate(-16.805,-38.522)" d="m54.818 125.66c7.352 5.568 20.395 7.906 28.3 7.414 1.568-0.1 2.139 0.417 2.43 1.937-12.642 1.569-29.29-3.741-30.73-9.351"/>
     <path transform="translate(-35.229,-18.123)" d="m141.76 125.45c7.828 2.284 15.94-1.614 15.985-3.963 0.026-1.328-3.1-4.014-8.753-4.88 7.536-3.2 13.1-10.22 12.169-12.884-0.441-1.259-4.206-1.688-8.357-0.558a21.648 21.648 0 0 0 6.056-7.692c-0.1-22.181-19.826-32.193-43.783-36.35-1.056-0.183 3.577 3.919 7.88 5.471 22.289 8.039 30.431 25.448 21.361 41.511 1.752-1.146 3.388-1.55 3.623-1.247 0.343 0.444-0.8 2.922-2.738 4.809a27.287 27.287 0 0 1-0.511 5.236c1.451-0.447 4.4-0.766 4.519-0.223 0.121 0.525-1.447 2.06-3.6 3.046a23.57 23.57 0 0 1-3.849 7.724"/>
    </g>
    <path transform="translate(-47.286,-22.103)" d="m160 96.653c5.437-3.372 6.039-10.531 3.486-17.158a38.114 38.114 0 0 0-9.24-7.392 28.074 28.074 0 0 1 3.537 14.949 23.6 23.6 0 0 1 2.218 9.6" fill="#ddc256"/>
    <path transform="translate(-34.933,-26.35)" d="m113.96 85.957a25.458 25.458 0 0 1 1.319 6.308c0.236 3.437 2.649 8.907 8.339 15.873a44.216 44.216 0 0 1 8.539 9.348c0.666-11.332-6.744-24.28-18.2-31.529" fill="#a11700"/>
    <path transform="translate(-45.1,-40.47)" d="m147.66 138.01a17.15 17.15 0 0 0-0.539 2.34 16.616 16.616 0 0 1 6.163 0.64 19.8 19.8 0 0 0 1.787-8.97 42.982 42.982 0 0 1-7.411 5.991" fill="#d4d5d5"/>
    <path transform="translate(-45.165,-42.06)" d="m151.08 137.2c-0.959 0.734-1.968 1.454-3.007 2.157a12.025 12.025 0 0 0-0.732 2.494c0 0.026-8e-3 0.05-0.012 0.075 0.286-0.023 0.582-0.031 0.879-0.037 0.259-1.137 0.839-1.854 1.327-1.768 0.454 0.079 0.757 0.792 0.68 1.849 0.546 0.053 1.089 0.121 1.613 0.224 0.39-2.509 0.073-4.348-0.747-4.993" fill="#a11700"/>
    <path transform="translate(-45.553,-43.347)" d="m149.92 141.41c-0.488-0.085-1.067 0.631-1.327 1.768a17.168 17.168 0 0 1 2.008 0.08c0.076-1.057-0.226-1.77-0.68-1.849" fill="#d4d5d5"/>
    <path transform="translate(-47.823,-42.575)" d="m161.8 139.14c-0.134-0.38-2.069-0.347-4.519 0.223a19.514 19.514 0 0 1-1.281 3.733 8.453 8.453 0 0 1 1.594 0.674c0.209-0.493 0.413-1.012 0.606-1.585 2.33-1.2 3.72-2.7 3.6-3.046" fill="#00143b"/>
    <path transform="translate(-43.338,-43.409)" d="m142.48 142.71a8.494 8.494 0 0 1-1.113 2.422c0.743 0.35 3.116-1.539 3.53-3.53a4.265 4.265 0 0 1-2.417 1.108" fill="#a11700"/>
    <path transform="translate(-33.234,-47.391)" d="m123.45 168.63a1.879 1.879 0 0 0-0.046-0.481c-0.323-1.246-3.969-4.615-7.613-7.014 0.13-0.441 0.288-0.94 0.435-1.424 6.79 2.664 14.962 0.99 20.556-2.566a34.021 34.021 0 0 1-27.889-2.557c-0.16 0.945-0.393 2.277-0.48 3.016a43.807 43.807 0 0 1 1.831 6.064c3.646 0.024 8.5 1.865 13.207 4.961" fill="#d4d5d5"/>
    <g fill="#00143b">
     <path transform="translate(-42.582,-52.431)" d="m142.76 171.03a31.964 31.964 0 0 1 0.552 6.434c-0.072 6.62-1.369 11.468-3.6 15.319a53.836 53.836 0 0 0-0.813-9.359c3.641-3.24 3.86-12.395 3.86-12.395"/>
     <path transform="translate(-27.121,-46.508)" d="m99.659 151.71a50.93 50.93 0 0 1-0.288 21.574c-0.439 3.994-3.041 6.441-7.536 7.732-1.054 0.3-2.187 0.592-3.365 0.87 3.331 2.243 6.129 4.077 8.334 5.278 3.875-2.6 7.82-10.322 8.092-17.209 0.313-7.922-4.18-17.7-5.237-18.245"/>
     <path transform="translate(-24.593,-44.184)" d="m80.225 144.2c3.553 1.476 10.1 7.406 12.458 12.6 0.254-0.438 0.632-1.026 0.961-1.576-2.668-6.43-11.366-11.782-13.42-11.021"/>
     <path transform="translate(-21.136,-47.946)" d="m68.946 156.83a43.028 43.028 0 0 1 7.9 2.08c0.956 0.377 1.791 0 1.574-1.272-4.118-1.338-8.294-1.546-9.47-0.808"/>
    </g>
    <path transform="translate(-4.622,-50.556)" d="m71.591 164.92c3.524 5.706 1.569 11.895-4.624 14.521-6.091 2.584-17.995 4.153-24.086 7.106-3.849 1.867-10.316 11.551-15.587 20.733a4.306 4.306 0 0 0-0.515 1.335c-2.284 9.547-9.394 9.52-11.562 5.21-0.435 2.391 0.141 4.4 1.806 5.61 4.281 3.125 10-0.206 13.049-10.579 3.993-6.875 12.061-16.96 16.3-18.647 3.643-1.451 15.339-2.948 22.962-5.138 6.482-1.862 9.036-6.118 6.829-13.965a10.266 10.266 0 0 0-4.574-6.186" fill="#d4d5d5"/>
    <path transform="translate(-42.905,-57.95)" d="m174.58 203.17c2.624-4.99 0.592-10.035-1.676-10.425 2.376 4.736 0.642 10.5-5.6 14.9-8.619 6.065-17.784 4.037-19.785-5.24a19.727 19.727 0 0 0-0.552-2.66 48.859 48.859 0 0 0-3.8-10.7 26.229 26.229 0 0 1-3.074 9.174 27.663 27.663 0 0 0 2.224 13.63q1.645 3.811 3 7.482c8.308 0.578 23.943-6.023 29.272-16.157" fill="#d4d5d5"/>
    <path transform="translate(-45.848,-77.605)" d="m153.53 263.11a45.76 45.76 0 0 0-1.259-9.961c0.173 3.517-1.037 5.65-2.709 7.034 1.9 1.441 2.594 2.018 3.968 2.927" fill="#a11700"/>
    <path transform="translate(-17.825,-66.238)" d="m67.139 230.77c-4.179-3.707-7.347-10.165-8.309-14.7-0.034 0.019-0.07 0.036-0.1 0.058-1.723 1.231 0.369 9.782 6.337 16.611-5.714 9.925-0.6 24.956 11.527 26.256-7e-3 -0.037-0.016-0.073-0.022-0.109a31.077 31.077 0 0 1 0.472-10.589c-5.634-2.2-8.584-7.7-8.538-14.426a3.243 3.243 0 0 0-1.365-3.1" fill="#d4d5d5"/>
    <path transform="translate(-18.28,-61.606)" d="m60.923 200.96c1.638 5.583 5.376 11.4 9.159 15.781 1.126 1.3 0.086 2.42-1.052 2.3-4-4.4-9.095-13.646-9.4-17.608z" fill="#d4d5d5"/>
    <path transform="translate(-25.851,-79.737)" d="m110.93 286.95c-13.293-7.646-23.45-16.96-25.51-26.846a33.261 33.261 0 0 0-0.822 12.28c1.8 10.246 12.347 20.531 23.294 26.7 1.531-0.8 6.216-1.08 11.417-0.711-9.193-3.014-19.652-9.55-19.207-11.162 0.247-0.895 4.572-0.932 10.83-0.261" fill="#a11700"/>
    <path transform="translate(-30.865,-93.647)" d="m112.37 313.55c0.027-0.207 0.218-0.39 0.53-0.554a64.74 64.74 0 0 1-10.648-7.514 34.891 34.891 0 0 1-1.572 8.93c7.383 1.046 11.689 8.859 9.905 18.764a10.487 10.487 0 0 1 1.892 1.134c2.593-1.55 7-2.2 10.187 0.506a16.944 16.944 0 0 0 5.8-9.519 9.5 9.5 0 0 1-1.747-4.245c-6.933-1.284-14.554-5.921-14.348-7.5" fill="#a11700"/>
    <path transform="translate(-26.693,-95.502)" d="m119.4 341.21c4.127-1.695 4.98-6.7 3.409-9.9a16.711 16.711 0 0 1-4.312 5.358c-3.185-2.7-7.593-2.055-10.187-0.506a10.437 10.437 0 0 0-1.892-1.134c1.784-9.905-2.522-17.718-9.905-18.765a36.132 36.132 0 0 0 1.087-4.557c-2.912-0.621-5.591 0.387-5.883 3.385-0.035 0.357-0.066 0.644-0.349 0.758-2.417 0.972-4.493 3.123-4.224 4.892a22.535 22.535 0 0 1 0.461 3.113c-2.071 6.882 2.114 14.413 8.575 18.494a6.252 6.252 0 0 0 4.021 0.664 3.154 3.154 0 0 1 3.322 1.246c3 3.46 10.382 4.014 15.873-3.046" fill="#ddc256"/>
    <path transform="translate(-4.499,-93.003)" d="m65.552 320.95a11.37 11.37 0 0 1-0.6-3.82 79.866 79.866 0 0 0-8.968-3.609c-6.491-2.186-9.721-4.245-11.874-7.321-2.718-3.884-7.621-4.028-9.922 1.29a29.322 29.322 0 0 1-12.43 14.3 32.747 32.747 0 0 0-7.084 5.068c3.724 4.989 11.426 6.909 17.641 4.227 2.278-7.067 7.541-14.432 12.44-15.026 5.63 4.355 14.794 9.241 22.932 17.512-2.524-4.136-3.777-9.2-2.137-12.619" fill="#00143b"/>
    <path transform="translate(-2.404,-103.38)" d="m12.58 337.23c-4.808 4.642-6.035 9.671-3.321 13.359a18.959 18.959 0 0 0 5.2 0.716c6 0.072 13.7-2.308 15.365-8.49q0.181-0.675 0.4-1.358c-6.215 2.683-13.917 0.762-17.641-4.227" fill="#a11700"/>
    <path transform="translate(-36.01,-91.404)" d="m170.56 298.17c-0.673 4.661-5.236 6.154-9.205 4.491-0.784-0.329-1.047-0.063-1.148 0.666-0.735 5.307-6.135 7.568-11.015 6.794-0.824-0.131-0.992 0.11-0.983 0.858 0.076 5.839-6.083 7.882-9.613 5.931a2.839 2.839 0 0 0-1.9-0.432 37.156 37.156 0 0 1-19.168-5.166c-0.727 1.139 6.417 6.034 14.348 7.5a9.6 9.6 0 0 0 9.149 8.191c2.4 4.512 7.71 4.086 11.708-0.475-0.754-0.788-1.478-1.591-2.172-2.417a10.966 10.966 0 0 0 1.845-9.782c4.6 0.785 8.986-1.046 10.425-5.012a9.893 9.893 0 0 1 3.711-6e-3q1.182 1.523 2.383 3.02c3.22-3.327 3.609-9.624 1.635-14.158" fill="#ddc256"/>
    <path transform="translate(-32.882,-91.625)" d="m107.28 298.89c4.614 3.384 15.934 8.582 23.009 10.305a1.343 1.343 0 0 1 0.594 2.424c-7.2-0.954-24.341-10.053-23.6-12.729" fill="#ddc256"/>
    <path transform="translate(-50.638,-96.252)" d="m238.39 347.38a102.76 102.76 0 0 1-12.911 14.608c-3.756 3.506-5.814 5.629-7.382 9.044-2.123-11.443-11.812-22.148-31.561-34.329-11.775-7.263-10.958-16.3-3.732-20.467q-0.822-1.037-1.635-2.085a9.893 9.893 0 0 0-3.711 6e-3c-1.439 3.966-5.824 5.8-10.425 5.011a10.966 10.966 0 0 1-1.846 9.783c5.23 6.214 11.936 11.2 23.255 17.78 18.38 10.688 21.8 17.141 24.547 28.238 3.145 12.722 14.039 10.679 24.486 0.8 5.66-5.352 13.016-11.845 19.687-17.226a74.149 74.149 0 0 0 11.1-11.023l-0.017 0.018c-8.217 2.7-26.039 1.985-29.855-0.158" fill="#00143b"/>
    <path transform="translate(-82.999 -102.02)" d="m296.2 332.88c-8.887-0.764-15.933 4.19-20.033 11.736a79.338 79.338 0 0 1-5.416 8.536c3.815 2.143 21.638 2.858 29.855 0.157 0-6e-3 0.012-0.012 0.017-0.017a52.319 52.319 0 0 0 5.761-8.713c1.732-6.645-1.414-10.944-10.184-11.7" fill="#a11700"/>
    <g fill="#ddc256">
     <path transform="translate(-80.231 -114.55)" d="m271.4 375.09c0.752 1.413-0.185 3.786-3.215 5.4-2.856 1.52-5.439 0.982-6.183-0.415-0.728-1.367-0.159-3.555 2.738-5.26 2.98-1.754 5.8-1.333 6.66 0.277"/>
     <path transform="translate(-77.831 -120.57)" d="m263.12 393.86c1.073 1.206-0.033 3.941-2.469 6.109s-5.281 2.949-6.355 1.743 0.033-3.941 2.469-6.109 5.282-2.949 6.355-1.743"/>
     <path transform="translate(-86.556 -114.82)" d="m291.17 375.12c0.63 0.938-0.257 2.978-3.091 4.891-2.9 1.954-4.861 1.817-5.506 0.861-0.621-0.919-0.046-2.738 2.983-4.768 2.541-1.7 4.925-2.01 5.614-0.984"/>
     <path transform="translate(-43.056,-38.279)" d="m143.81 136.99c5.245-3.353 10.254-7.127 11.934-11.135 0.217-0.517 0.183-0.88-0.029-0.991-2.168 3.419-8.818 8.925-12.5 11.119-1.157 0.689-1.985 0.632-2.768-0.126 0.615 1.445 1.427 2.37 3.363 1.133"/>
    </g>
    <g fill="#0c1015">
     <path transform="translate(-36.607,-40.274)" d="m120.5 138.33c-1.026-0.27-1.345-1.887-0.861-3.943 0.582-2.477 1.818-3.194 2.675-2.967 1.006 0.264 1.476 1.551 0.883 3.919-0.617 2.47-1.907 3.2-2.7 2.992m1.775-3.228c0.45-1.8 0.2-2.734-0.185-2.834-0.465-0.123-1.095 0.432-1.546 2.344-0.426 1.815-0.187 2.786 0.179 2.881 0.326 0.085 1.033-0.317 1.552-2.391"/>
     <path transform="translate(-35.583,-38.92)" d="m120.26 140.02c1.092-0.569 2.156-1.954 2.9-5.318 0.769-3.494 0.142-6.324-1.47-6.679-1.277-0.285-3.473 1.553-4.309 5.352a7.963 7.963 0 0 0 0.177 5.214l-1.456-2.28a11.025 11.025 0 0 1 0.253-3.17c0.926-4.207 3.452-6.588 5.548-6.127 2.234 0.492 3.218 3.706 2.29 7.921-0.586 2.665-1.329 4.01-2.168 4.846z"/>
     <path transform="translate(-34.933,-36.18)" d="m127.34 129.47c-0.782 4.979-3.96 8.493-7.9 8.418-5.013-0.087-7.713-9.946-3.136-19.867l0.99 1.019c-3.837 9.363-1.311 17.584 2.166 17.643 2.811 0.048 6.041-2.79 6.7-8.409z"/>
     <path transform="translate(-45.339,-43.173)" d="m148.84 145.96c-0.789-0.137-1.138-1.071-0.841-2.771 0.266-1.53 0.946-2.482 1.775-2.339s1.242 1.312 0.977 2.833c-0.333 1.909-1.3 2.382-1.91 2.277m1.054-2.428c0.212-1.219 0-1.87-0.256-1.908s-0.69 0.549-0.891 1.7c-0.209 1.194-0.053 1.809 0.227 1.857s0.7-0.409 0.92-1.653"/>
     <path transform="translate(-44.836,-41.925)" d="m148.56 138.73a10.134 10.134 0 0 0-1.049 3.078c-0.614 3.295 0.035 4.979 0.8 5.094 0.605 0.085 2.016-1.191 2.624-4.453 0.561-3.009 0.132-4.616-0.525-5.036l0.755-0.648c0.96 0.874 1.3 2.98 0.761 5.87-0.727 3.9-2.545 5.41-3.757 5.224-1.491-0.224-2.357-2.531-1.665-6.243a13.063 13.063 0 0 1 0.506-1.935z"/>
     <path transform="translate(-45.803,-40.175)" d="m156.33 131.05c0.573 8.027-3.826 15.178-6.919 14.981l1.121-1.487c2.173-1.669 4.68-6.468 4.627-12.23z"/>
     <path transform="translate(-31.39,-37.417)" d="m111.33 126.58c-2.662-2.116-7.538-3.838-7.741-3.546s2.311 2.318 4.389 5.075a0.906 0.906 0 0 1 0.214 0.695c0.116 6.607 3.784 8.708 6.113 9.095l1.669 1.115c-4.66 0.246-8.975-2.915-8.8-10.295-2.039-2.732-5.546-5.378-4.623-6.439 0.809-0.931 6.337 1.23 8.959 3.2z"/>
     <path transform="translate(-45.225,-42.379)" d="m154.76 138.69c2.243-0.578 4.712-0.645 4.962 0.061 0.288 0.82-1.63 2.421-3.753 3.546-2.69 7.844-6.664 7.516-8.441 5.417l1.422 0.06c1.63 0.971 4.233-0.223 6.139-5.686a0.889 0.889 0 0 1 0.553-0.648 7.832 7.832 0 0 0 2.9-2.254c-0.049-0.213-1.595-0.121-4 0.448z"/>
     <path transform="translate(-42.141,-42.515)" d="m144.26 140.35c-0.184 2.266-2.81 4.641-3.982 4.437-1.372-0.229-2.79-3.394-2.811-6.1l1.114 0.987c0.268 2.285 1.469 4.1 1.849 4.136 0.493 0.042 2.145-1.389 2.679-2.81z"/>
     <path transform="translate(-30.125,-10.626)" d="m98.357 52.952c-0.4-6.264 0.607-12.831 2.368-16.654 0.99-2.152 2.53-2.273 3.244 0.186 3.657 12.6 6.916 17.3 14.141 19.872 9.364 3.328 16.17 8.244 20.39 13.944 6.2 8.372 6.819 18.446 1.789 27.7l-2.189 1.287c5.781-10.14 4.788-20-1.054-27.931-4.218-5.723-10.964-10.436-19.515-13.515-9.113-3.28-12.15-9.8-14.746-21.022-0.216-0.937-0.454-0.947-0.9 0.029-1.708 3.71-2.461 11.021-1.881 17.537z"/>
     <path transform="translate(-8.819)" d="m52.385 65.841c-9.348-5.79-17.215-15.78-21.185-28.174-4.2-13.126-2.847-26 3.139-35.691 1.93-3.123 4.082-2.329 4.181 0.872 0.2 6.405 5.016 14.013 14.248 19.43 21.857 12.822 36.232 29.767 37.176 43.587 0.2 2.956 2.846 9.339 9.208 16.8l-3.645-2.22c-4.742-5.911-6.977-11.437-7.183-14.445-0.885-12.918-14.808-29.684-36.371-42.337-9.241-5.423-14.453-13.363-14.679-20.747-0.062-1.98-0.717-2.223-1.863-0.3-5.586 9.384-6.289 22.616-2.472 34.546a53.065 53.065 0 0 0 23.033 29.2z"/>
     <path transform="translate(-16.493,-28.671)" d="m82.8 116.86c-11.1-2.794-31.235-17.668-28.8-22.406 1.562-3.032 23.905 1.609 29.476 10.2 1.428 2.2 0.818 2.6-0.753 0.494-6.058-8.114-26.862-11.321-27.484-10.051-1.624 3.329 16.963 17.886 27.8 20.883 2.39 0.661 2 1.438-0.234 0.876"/>
     <path transform="translate(-16.244,-36.278)" d="m90.844 145.48c0.076-0.537 0.1-0.883 0.183-1.433a19.188 19.188 0 0 1-7.078-10.652c-13.451 1.9-31.254-5.353-30.958-10.845 0.131-2.433 9.376-5.108 18.287-3.913l2.042 1.415c-9.778-1.836-18.91 1.553-18.942 2.609-0.114 3.638 15.453 11.376 29.636 9.488 0.609-0.081 0.875 0.062 1.076 0.8a19.165 19.165 0 0 0 6.774 10.2c0.406 0.29 0.469 0.423 0.394 1.006-0.139 1.089-0.3 2.188-0.435 3.362z"/>
     <path transform="translate(-34.004,-45.865)" d="m110.92 161.77a33.645 33.645 0 0 1 11.375 9.852c0.843-1.812 1.474-4.15 1.26-4.849-0.3-0.979-3.308-3.857-6.94-6.3-0.668-0.45-0.763-0.656-0.529-1.408 0.063-0.2 0.135-0.429 0.2-0.621 0.237-0.753 0.553-0.94 1.332-0.664 9.126 3.234 20.609-0.944 24.811-7.069 1.179-1.717 1.831-1.3 0.743 0.476-4.154 6.777-16.716 11.2-25.8 7.785-0.037 0.121-0.1 0.307-0.123 0.414 3.336 2.168 7.156 5.59 7.516 7.068 0.316 1.3-0.487 3.788-1.584 6.041-0.569 1.168-0.991 1.135-1.7 0.064a32.641 32.641 0 0 0-10.242-9.243z"/>
     <path transform="translate(-29.951,-2.208)" d="m98.784 34.477c-1.96-9.147-1.279-20.662 2.248-25.771 1.485-2.151 2.934-2.1 3.355 0.825 1.8 12.481 12.481 26.825 26.914 30.4 26.47 6.564 33.613 37.834 14.236 49.312-1.967 1.166-2.5 0.578-0.487-0.782 18.1-12.255 9.767-41.076-14.071-47.011-15.643-3.894-26.178-19.165-27.82-31.822-0.157-1.208-0.4-1.337-1.118-0.23-2.8 4.3-3.487 14.4-2.057 23.043a1.838 1.838 0 0 1-1.2 2.032"/>
     <path transform="translate(-49.2,-37.053)" d="m167.5 121.4c3.549-0.971 7.7-0.595 8.271 1.043 1.091 3.116-5.1 10.917-13.553 13.872-2.11 0.737-2.383 0.021-0.3-0.833 8.268-3.391 13.307-10.443 12.559-12.58-0.35-1-4.4-1.339-8.767 0.052z"/>
     <path transform="translate(-46.945,-43.358)" d="m161.52 141.44c5.193 0.79 8.608 3.627 8.621 5.328 0.023 2.867-8.634 7.142-17 4.442l0.911-1c7.385 2.168 14.718-1.612 14.748-3.5 0.015-0.947-3.145-3.673-9.156-4.441z"/>
     <path transform="translate(-45.733,-19.493)" d="m158.41 93.3c2.566-1.8 4.254-4.633 4.239-9.155-0.025-7.3-4.808-15.362-11.578-19.105-1.105-0.611-1.13-0.664-0.214 0.519a28.808 28.808 0 0 1 5.971 20.037l-1.267-2.341c0.2-5.613-1.9-11.542-5.587-17.044-1.559-2.324-0.692-3.265 1.546-2.157 7.083 3.507 12.567 12.122 12.594 20.111 0.017 5-2.021 8.651-5.682 10.674z"/>
     <path transform="translate(-22.425,-16.678)" d="m75.449 54.7c12.1 4.6 21.923 16.389 22.939 27.347 0.194 2.089-0.975 2.593-2.546 1.605-7.271-4.576-19.205-18.165-22.442-27.065-0.675-1.857 0.017-2.663 2.048-1.892m-0.375 0.981c-0.815-0.359-0.951-0.18-0.663 0.508 3.528 8.423 15.216 21.66 22.011 26.571 0.712 0.515 0.989 0.389 0.871-0.61-1.218-10.345-10.728-21.41-22.218-26.469"/>
     <path transform="translate(-26.768,-46.223)" d="m88.823 181.38c3.005 2.021 5.5 3.659 7.606 4.824 4.127-3.166 7.24-11.02 7.459-16.57 0.31-7.855-4.16-17.611-4.72-17.636-0.39-0.017-1.494 2.987-3.3 6.108-0.825 1.424-1.591 0.988-0.768-0.436 1.74-3.011 2.732-7.022 4.19-6.887 1.574 0.147 6.2 11.156 5.892 18.9-0.257 6.5-3.853 14.374-8.18 17.494-0.429 0.309-0.672 0.291-1.265-0.039-2.222-1.235-5.29-3.265-8.414-5.371z"/>
     <path transform="translate(-20.927,-43.88)" d="m70.976 159.32c-1.822-2.819-3.108-6.4-2.6-7.132 0.662-0.951 5.665-0.3 8.585 0.615-0.823-2.912-1.553-8.97-0.711-9.52 1.69-1.1 11.263 4.484 14.054 11.093l-0.652 1.1c-2.782-7.021-12.02-11.759-12.674-11.2-0.277 0.237 0.161 4.964 1.094 8.5 0.363 1.379 0.083 1.528-1.26 1.13-3.334-0.99-7.154-1.371-7.421-1.013-0.225 0.3 1.073 3.564 2.732 5.932z"/>
     <path transform="translate(-38.059,-50.132)" d="m124.15 166.49c0.331-1.123 0.669-2.161 0.953-2.961l1.13 0.116c-0.331 0.873-0.753 2.184-1.184 3.614z"/>
     <path transform="translate(-40.963,-50.1)" d="m134.77 163.43a36.77 36.77 0 0 1 1.374 6.941c0.174 1.734-0.621 1.815-0.886 0.111a47.345 47.345 0 0 0-1.631-6.932z"/>
     <path transform="translate(-41.749,-50.049)" d="m136.19 168.62c0.827-1.909 2.75-5.446 3.764-5.358 1.388 0.121 3.174 5.541 3.106 11.832-0.064 5.884-1.027 10.7-3.222 14.695-0.721 1.312-1.409 1.47-1.467-0.356a50.641 50.641 0 0 0-1.581-11.948c-0.519-2.078 0.269-2.291 0.87-0.236a40.111 40.111 0 0 1 1.69 11.155 33.146 33.146 0 0 0 2.545-13.323c0.069-6.4-1.576-10.589-1.978-10.585-0.431 0-2.308 3.372-3.328 5.828z"/>
     <path transform="translate(-34.219,-55.4)" d="m130.28 184.93a71.711 71.711 0 0 1-3.689 9.089c-0.429 0.908-0.776 0.934-1.445 0.186-2.944-3.294-9.5-9.662-13.515-12.194l0.2-1.3c4.688 2.71 11.413 9.769 13.92 12.488a78.948 78.948 0 0 0 3.953-10.355z"/>
     <path transform="translate(-4.313,-49.475)" d="m69.228 184.7c-7.543 2.154-19.19 3.6-22.923 5.111-3.92 1.583-11.762 11-16.031 18.171-3.26 11.568-9.694 14.053-13.967 10.934-3.306-2.413-3.688-8.57 4.012-16.166 3.8-13.043 7.311-20.3 12.673-25.952 3.532-3.722 16.182-10.9 24.913-14.115 8.222-3.026 16.412-0.775 18.645 7.16 2.354 8.369-0.4 12.881-7.321 14.858m-0.388-1.428c6.414-1.824 8.209-6.152 6.269-13.047-1.837-6.532-8.877-9.065-16.78-6.154-8.647 3.182-20.82 10.028-24.29 13.688-5.232 5.512-8.75 12.552-12.562 25.178a1.454 1.454 0 0 1-0.455 0.773c-6.043 6.05-6.972 11.854-3.888 14.1 3.692 2.7 8.863-0.023 11.945-9.906a2.5 2.5 0 0 1 0.267-0.623c3.973-6.844 12.018-17.162 16.493-18.819 3.666-1.358 15.493-3.059 23-5.194"/>
     <path transform="translate(-4.784,-71.911)" d="m15.607 238.85a27.893 27.893 0 0 0 2.58-3.433c0.821-1.321 1.349-1 0.68 0.393a19.343 19.343 0 0 1-2.668 4z"/>
     <path transform="translate(-5.954,-73.285)" d="m19.421 242.81a14.216 14.216 0 0 0 3.561-3.016c1.031-1.211 1.533-0.838 0.628 0.474a11.749 11.749 0 0 1-2.954 2.951z"/>
     <path transform="translate(-44.212,-57.422)" d="m144.65 187.32c2.209 3.949 3.409 8.379 4.419 13.276 0.426 2.066-0.353 2.209-0.878 0.2a52.168 52.168 0 0 0-3.972-11.232z"/>
     <path transform="translate(-45.908,-62.054)" d="m170.64 203.83c-4.53 2.473-14.064 2.738-20.53 0.775l-0.361-1.578c6.44 2.215 16.568 2.238 21.127-0.6z"/>
     <path transform="translate(-45.147,-59.263)" d="m147.27 219.93c8.022 0.677 23.76-5.731 29.016-15.726 2.543-4.837 0.316-9.384-1.345-9.5-2.416-0.146-4.585 4.216-4.932 8.985-0.139 1.924-0.92 1.893-0.891-0.036 0.087-5.8 2.789-10.533 5.895-10.325 2.78 0.188 5.285 5.8 2.324 11.428-5.457 10.378-20.662 16.92-29.507 16.624z"/>
     <path transform="translate(-56.3,-59.717)" d="m184.62 194.8a5.013 5.013 0 0 1 2.6 2.462c0.677 1.334 0.046 1.617-0.683 0.389a4.433 4.433 0 0 0-2.877-2.074z"/>
     <path transform="translate(-55.602,-60.744)" d="m181.83 198.15c1.583 0.322 2.794 1.763 3.28 3.856 0.331 1.428-0.343 1.58-0.757 0.214-0.571-1.891-1.644-2.987-2.975-3.075z"/>
     <path transform="translate(-42.648,-61.645)" d="m149.46 246.42c-0.354-8.312-2.1-16.94-8.023-30.663a28.693 28.693 0 0 1-2.1-14.664l1.157 0.1a27.921 27.921 0 0 0 2.116 14.064c5.656 13.109 8.258 23.084 8.479 32.484z"/>
     <path transform="translate(-25.47,-62.033)" d="m106.92 281.84c-10.387-5.75-21.645-16.154-23.558-27.059-1.279-7.292 1.883-20.931 8.692-29.772 3.863-5.016 4.629-12.732 2.413-22.587l1.236-0.069c2.317 10.269 1.551 18.018-2.624 23.44-6.474 8.407-9.241 22.16-8.083 28.757 1.782 10.161 12.426 20.45 23.226 26.49z"/>
     <path transform="translate(-29.82,-71.423)" d="m146.55 268.13c-4-8.072-23.841-22.884-44.394-32.746-2.367-1.137-3.449-1.317-4.883-0.889l0.725-1.424c1.1-0.239 2.2-0.015 4.663 1.159 20.952 9.977 41.32 24.9 45.4 33.489z"/>
     <path transform="translate(-31.045,-68.722)" d="m133.6 230.49a23.6 23.6 0 0 1-4.543 5.129c-0.493 0.406-0.713 0.408-1.221 0-6.45-5.137-19.83-10.336-26.562-10.214l0.193-1.232c6.691-0.152 20.287 5.2 27.012 10.409a21.432 21.432 0 0 0 4.616-5.513z"/>
     <path transform="translate(-38.657,-74)" d="m128.01 246.57a20.882 20.882 0 0 1-1.709-3.885c-0.415-1.255-0.25-1.587 1.18-1.035a41.025 41.025 0 0 1 10.341 6.358 10.2 10.2 0 0 0 3.451-3.548c0.762-1.251 1.119-1.185 1.362 0.162a22.818 22.818 0 0 1 0.37 3.333 8.321 8.321 0 0 0 1.3-2.228l0.379 1.614a7.565 7.565 0 0 1-1.3 1.8c-1.037 1.071-1.379 0.908-1.4-0.535a22.456 22.456 0 0 0-0.22-2.989 10.352 10.352 0 0 1-3.342 3.362c-0.591 0.393-0.727 0.4-1.243-0.022a41.845 41.845 0 0 0-9.779-6.258 26.376 26.376 0 0 0 2.212 4.659z"/>
     <path transform="translate(-19.235,-61.259)" d="m64.438 199.83c6.875 1.861 19.843 10.122 24.856 19.163l-0.716 1.713c-4.776-10.431-20.815-19.649-25.832-20.171z"/>
     <path transform="translate(-18.05,-61.7)" d="m60.178 201.27c-0.666 0.836 2.406 8.785 8.17 16.381 1.228 1.618 0.57 2.119-0.708 0.548-4.747-5.838-8.439-13.178-8.76-16.371z"/>
     <path transform="translate(-17.562,-65.896)" d="m76.453 259.38c-12.7-1.116-18.048-16.7-12.391-26.917-6.072-6.937-8.03-15.8-6-17.246 0.976-0.7 3.776 0 5.923 1.842l1.361 2.336c-3.5-2.979-5.844-3.559-6.471-3.11-1.277 0.911 0.417 8.59 6.149 15.456 0.442 0.529 0.435 0.671 0.092 1.315-5.165 9.7-0.2 23.387 10.991 24.894z"/>
     <path transform="translate(-32.498,-91.169)" d="m130.78 301.02c-11.409-2.3-23.1-3.159-23.362-2.159-0.3 1.123 12.023 9 21.523 11.335 2.345 0.577 2.147 1.436-0.214 0.888-9.309-2.164-23.359-10.192-22.689-12.62 0.557-2.017 12.965-0.94 24.92 1.349z"/>
     <path transform="translate(-35.702,-96.3)" d="m130.96 315.68c-7.471-0.69-12.965-0.028-13.056 0.641-0.137 1.008 7.877 6.252 15.409 7.194 2.1 0.262 2.118 1.039-0.1 0.883-7.8-0.548-17.018-6.086-16.746-8.285 0.2-1.617 5.865-2.261 11.206-1.856z"/>
     <path transform="translate(-42.101 -100.47)" d="m159.3 336.1c-4.141 4.828-10.093 5.15-12.531 0.537a9.9 9.9 0 0 1-9.429-8.889l1.2 0.189a9.258 9.258 0 0 0 8.329 7.529 1 1 0 0 1 0.93 0.619c2.209 3.539 6.733 3.31 10.54-0.954z"/>
     <path transform="translate(-50.371,-95.272)" d="m212 374.13c-2.535-10.253-5.731-17.081-24.2-27.818-11.5-6.686-18.028-11.367-23.2-17.679a0.835 0.835 0 0 1 0-1.266 10.333 10.333 0 0 0 1.763-8.353c-0.224-1.139 0-1.41 1.262-1.293 4.77 0.443 8.373-1.8 9.452-5.812 0.429-1.6 1.152-1.458 0.89 0.173-0.763 4.73-5.138 7.443-10.467 6.775a11.466 11.466 0 0 1-1.776 9.1c5.147 5.815 11.311 10.558 22.8 17.238 18.595 10.814 22.045 17.149 24.877 28.607 2.815 11.384 12.5 10.708 23.278 0.54 6.193-5.846 13.46-12.243 19.739-17.308 6.349-5.121 14.193-13.193 18.081-22.816 2.054-5.082-3.037-14.206-13.486-15.827-12.905-2-18.328 3.543-20.342 8.25-7.277 17.016-12.293 24.589-19.627 29.764-2.01 1.419-2.471 0.778-0.536-0.741 6.977-5.475 11.608-12.759 18.822-29.628 2.761-6.455 9.4-11.068 21.916-9.127 10.506 1.632 17.465 11.115 14.737 17.906-3.862 9.616-12.126 18.049-18.65 23.313-6.263 5.053-13.609 11.425-19.657 17.145-12.513 11.832-22.7 10.887-25.672-1.141"/>
     <path transform="translate(-81.188,-106.93)" d="m298.26 358.96c-8.3 2.543-25.818 1.965-29.775-0.317-1.691-0.975-3.283-4.309-3.648-7.9l1.153-1.926c-0.092 3.368 1.7 7.816 3.269 8.645 3.929 2.075 21.678 2.813 30 0.031z"/>
     <path transform="translate(-88.705,-98.129)" d="m291.55 320.1c3.914 1.63 6.673 5.238 6.516 9.024-0.082 1.963-1.727 5.516-3.719 8.079-1.184 1.524-1.753 1.161-0.7-0.56 1.538-2.511 3.089-5.7 3.195-7.608 0.125-2.259-1.934-6.5-7.475-8.522z"/>
     <path transform="translate(-95.189,-98.967)" d="m313.26 323.81a13.545 13.545 0 0 1 3.28 9.169c-0.046 1.962-2.06 4.625-4.423 6.509-1.724 1.374-2.266 0.9-0.571-0.69 2.2-2.055 3.727-4.43 3.761-5.86a14.131 14.131 0 0 0-4.655-10.1z"/>
     <path transform="translate(-79.99 -114.34)" d="m271.61 374.61c0.83 1.56 0.208 4.254-3.417 6.183-2.806 1.493-5.9 1.192-6.9-0.684-0.856-1.609-0.315-4.071 2.9-5.966 2.747-1.616 6.308-1.6 7.408 0.467m-0.915 0.492c-0.619-1.162-3.114-1.658-5.91-0.013-3.017 1.776-2.989 3.736-2.58 4.5 0.539 1.012 2.645 1.7 5.475 0.2 3.008-1.6 3.514-3.747 3.014-4.687"/>
     <path transform="translate(-77.596 -120.33)" d="m253.65 401.82c-1.141-1.282-0.479-4.215 2.5-6.868 2.8-2.487 5.873-3.1 7.122-1.7 1.21 1.361 0.5 4.215-2.5 6.891-3.158 2.809-6.005 2.931-7.121 1.677m3.253-6.037c-2.7 2.4-3.049 4.637-2.453 5.306 0.738 0.829 2.976 0.58 5.607-1.761 2.552-2.272 3.1-4.568 2.4-5.36-0.63-0.709-2.9-0.546-5.552 1.815"/>
     <path transform="translate(-86.305 -114.58)" d="m291.34 374.56c0.913 1.357-0.171 3.667-3.191 5.706-3.068 2.069-5.4 1.969-6.291 0.646-0.692-1.026-0.561-3.034 3.13-5.507 2.7-1.813 5.454-2.181 6.352-0.846m-5.737 1.777c-3.05 2.044-3.075 3.654-2.853 3.984 0.431 0.639 2.076 0.787 4.76-1.023 2.984-2.014 3.3-3.627 2.969-4.123-0.35-0.521-2.238-0.6-4.876 1.162"/>
     <path transform="translate(-55.937,-95.959)" d="m229.74 353.92c-7.407-0.385-25.691-16.025-43.627-39.406a9.76 9.76 0 0 0-3.641 0.055l0.415-1.411a13.244 13.244 0 0 1 3.409-0.034 1.007 1.007 0 0 1 0.824 0.518c17.71 22.679 36.262 38.947 43.708 39.108z"/>
     <path transform="translate(-48.78,-86.424)" d="m181.26 306.84c4.265-4.618 3.163-15.266-2.777-17.936a1.434 1.434 0 0 1-0.742-0.585c-4.9-6.931-13.306-6.726-17.358-0.19-1.091 1.759-1.76 1.342-0.779-0.479 3.92-7.285 13.9-8.01 19.163 0.089 7.218 2.484 8.479 15.087 3.347 20.183z"/>
     <path transform="translate(-43.223,-88.398)" d="m154.48 289.81c-6.9-1.469-11.68 2.566-12.566 8.794-0.352 2.475-1.065 2.409-0.9-0.1 0.467-6.957 6.235-11.525 14.093-9.763z"/>
     <path transform="translate(-28.285,-80.089)" d="m119.41 283.71c-4.953-0.065-8.739-1.091-11.882-3.018-3.064-1.879-6.144-5.369-8.78-9.913a10.012 10.012 0 0 1-4.1-0.829c-1.1-0.635-2.984-7.331-2.183-8.235 0.826-0.932 6.393-0.275 7.305 0.466 0.782 0.635 1.452 3.291 1.769 5.553 3.213 0.184 8.1 1.207 10.726 3.09 3.093 2.215 6.56 6.729 8.821 10.335 0.989 1.577 0.467 2.579-1.677 2.551m0.033-0.971c1.145 0.071 1.241-0.373 0.8-1.028-2.272-3.387-5.73-7.688-8.733-9.839-2.32-1.66-6.645-2.792-10.124-3.128-0.653-0.063-0.741-0.159-0.845-0.764-0.412-2.385-1.041-4.472-1.477-4.826-0.812-0.66-5.386-1.141-5.7-0.665s1.2 5.948 1.967 6.481a7.962 7.962 0 0 0 3.386 0.763 0.925 0.925 0 0 1 0.947 0.572c2.917 4.637 5.679 7.569 8.553 9.331 3.024 1.854 6.506 2.811 11.23 3.1"/>
     <path transform="translate(-30.599,-93.398)" d="m111.66 334.46a8.523 8.523 0 0 0-1.329-0.856c-0.555-0.284-0.616-0.518-0.541-1.029 1.341-9.127-2.434-16.367-9.15-17.758-0.825-0.171-0.934-0.4-0.742-1.105a36.086 36.086 0 0 0 1.27-9.045l1.573 0.964a30.36 30.36 0 0 1-1.533 8.042c7.425 1.394 11.6 9.354 9.762 18.916a11.852 11.852 0 0 1 1.836 1.152z"/>
     <path transform="translate(-35.419 -105.54)" d="m126.81 347.13c-3.181-2.578-7.383-1.8-9.933-0.291-1.488 0.878-1.852 0.311-0.5-0.758 2.312-1.827 7.617-3 11.33 0.266z"/>
     <path transform="translate(-39.817 -102.08)" d="m137.92 334.39a16.385 16.385 0 0 1-6.665 9.71c-1.447 0.989-1.951 0.472-0.519-0.735a17.506 17.506 0 0 0 6.154-10.384z"/>
     <path transform="translate(-26.363,-93.645)" d="m97.595 307.16c-6.26-1.436-8.47 1.895-8.354 5.4a1.028 1.028 0 0 1-0.267 0.861c-1.6 1.862-1.956 4.622-1.1 7.692a1.239 1.239 0 0 1-0.047 1.019c-2.564 6.9 5.63 19.667 11.934 18.466a3.446 3.446 0 0 1 3.849 1.421c2.817 3.25 9.674 3.521 14.766-2.773a2.032 2.032 0 0 1 0.766-0.571 6.8 6.8 0 0 0 2.912-8.568l0.807-1.431c2.122 3.763 1.019 9.375-3.412 11.151-5.668 7.21-13.43 6.72-16.687 2.961-1.048-1.21-1.6-1.3-2.82-1.048-7.742 1.575-16.659-12.879-13.168-20.2-1.184-3.384-0.677-6.752 1.278-8.887-0.432-4.625 2.729-8.316 9.685-6.851z"/>
     <path transform="translate(0,-89.623)" d="m40.866 313.24c-5.107 0.244-10.793 8.486-12.823 16.04-1.7 6.324-9.449 9.076-16.033 8.959-8.868-0.107-13.469-5.3-11.6-10.69 1.163-3.349 7.746-9.938 12.471-13.231 4.222-2.942 9.7-9.95 13.062-15.322 5.865-9.359 13.861-9.026 17.638 2.306 3.23 2 7.389 3.331 11.254 4.527a53.885 53.885 0 0 1 7.613 2.738l-0.792 1.092a53.7 53.7 0 0 0-7.156-2.556c-3.96-1.226-8.644-2.671-11.974-4.769a0.387 0.387 0 0 1-0.164-0.209c-3.537-10.769-9.761-11.188-15.26-2.413-2.628 4.193-8.458 12.342-13.412 15.8-4.533 3.159-10.763 9.373-11.861 12.533-1.58 4.553 1.585 8.731 10.239 8.836 6.144 0.058 13.134-2.248 14.675-7.987 1.988-7.4 7.628-15.645 12.835-16.708z"/>
     <path transform="translate(-1.397 -107.73)" d="m4.558 352.95a14.126 14.126 0 0 0 8.342-1.148c1.735-0.766 1.989-0.263 0.356 0.7a12.706 12.706 0 0 1-7.045 1.856z"/>
     <path transform="translate(-6.248 -107.59)" d="m20.383 355.44a15.977 15.977 0 0 0 5.6-3.734c1.18-1.237 1.615-0.883 0.607 0.5a12.013 12.013 0 0 1-3.28 2.926z"/>
     <path transform="translate(-3.416 -101.22)" d="m31 340.08c-7.694 3.143-18.168-0.686-19.862-8.888l0.928-1c1.458 7.837 11.378 12.1 19.407 8.31z"/>
     <path transform="translate(-16.882,-97.843)" d="m79.323 336.73c-4.01-4.022-10.246-8.42-15.681-12.034-2.921-1.943-5.23-3.406-7.207-4.937-1.43-1.107-1.914-0.525-0.578 0.693a62.516 62.516 0 0 0 7.137 5.313c5.62 3.79 11.989 8.242 18 14.684 0 0-1.647-3.7-1.672-3.719"/>
     <path transform="translate(-32.974,-30.256)" d="m130.56 129.23c-5.661-5.324-18.719-17.967-22.549-24.279-0.944-1.556-0.338-2.265 1.392-1.528 7.091 3.019 18.006 11.492 21.794 18.727-0.3-4.427 0.139-10.748 3.813-14.63a6.81 6.81 0 0 1-1.309-3.548c0-0.782 1.315-2.7 2.768-4.377 1.142-1.319 1.843-1.26 2.423 0.651a17.684 17.684 0 0 1 0.9 5.1 4.385 4.385 0 0 1-1.765 2.555c1.079 4.764-0.605 11.662-1.934 14.347a24.459 24.459 0 0 1 8.658-5.736c1.417-0.437 1.9 0.123 1.333 1.492-1.841 4.427-7.455 8.37-12.124 11.354-1.562 1-2.3 0.91-3.406-0.134m-21.617-24.52c4.19 6.091 16.989 18.818 22.24 23.86 0.642 0.616 1.194 0.725 2.314 0.01 4.5-2.881 9.835-6.7 11.663-10.725 0.211-0.464 0.138-0.562-0.329-0.411-2.84 0.925-6.61 3.738-9.558 7.058-1.4 1.573-1.935 1.254-1.012-0.592 2.157-4.313 3.578-11.193 2.833-15.833-0.074-0.458-0.042-0.574 0.274-0.849a3.322 3.322 0 0 0 1.28-2.028 19.4 19.4 0 0 0-0.68-4.741c-0.2-0.768-0.327-0.794-0.785-0.242-1.141 1.379-2.331 3.25-2.331 3.772a6.4 6.4 0 0 0 0.981 3.044c0.293 0.457 0.283 0.662-0.032 1.014-3.354 3.741-3.884 10.409-3.566 15.758 0.116 1.958-0.435 2.1-1.18 0.322-2.978-7.109-14.756-16.464-21.746-19.751-0.7-0.327-0.765-0.244-0.366 0.335"/>
    </g>
    <path transform="translate(-36.899,-45.82)" d="m122.25 149.48c-1.413 0.071-1.969 0.8-1.876 2.153 0.193 2.824 2.037 6.27 4.491 6.614a13.091 13.091 0 0 0 10.705-3.384c0.887-0.783 0.732-1.576-0.184-2.03-3.845-1.907-10.059-3.507-13.135-3.353" fill="#802000"/>
    <path transform="translate(-36.899,-46.174)" d="m120.56 150.72a2.481 2.481 0 0 0-0.189 1.27c0.193 2.824 2.037 6.27 4.491 6.613a12.788 12.788 0 0 0 4.864-0.239c-0.068-4.469-5.34-8.395-9.167-7.645" fill="#e66f89"/>
    <path transform="translate(-40.324,-46.179)" d="m138.58 153.08a37.675 37.675 0 0 0-7.042-2.442c0.5 1.8 1.637 3.48 2.474 3.842s3.518 0.213 4.568-1.4" fill="#fff"/>
    <path transform="translate(-36.899,-46.174)" d="m128.59 154.84c-1.77-2.77-5.27-4.665-8.027-4.124a2.474 2.474 0 0 0-0.189 1.27 9.437 9.437 0 0 0 0.917 3.361c1.051-1.485 4.188-2.284 7.3-0.508" fill="#c05e74"/>
    <g fill="#0c1015">
     <path transform="translate(-42.342,-44.86)" d="m138.12 150.71a10.1 10.1 0 0 0 1.734-4.37l1.019 0.334a10.408 10.408 0 0 1-1.71 4.433z"/>
     <path transform="translate(-36.676,-45.606)" d="m122.01 148.78c3.139-0.156 9.42 1.34 13.365 3.4 1.175 0.613 1.467 1.689 0.267 2.8a13.1 13.1 0 0 1-11.067 3.527c-2.795-0.391-4.7-3.905-4.919-7.074-0.114-1.675 0.524-2.562 2.354-2.652m0.044 0.95c-1.239 0.064-1.452 0.725-1.389 1.657 0.164 2.4 1.9 5.862 4.048 6.163a12.984 12.984 0 0 0 10.29-3.266c0.684-0.578 0.572-0.983-0.047-1.273-3.8-1.779-9.923-3.434-12.9-3.281"/>
     <path transform="translate(-36.909,-45.947)" d="m120.94 149.93c4.176-0.521 9.286 3.735 9.287 8.079l-0.952 0.225c-0.087-4.223-5.279-8.041-8.877-7.245z"/>
     <path transform="translate(-40.075,-46.105)" d="m131.83 150.64a6.014 6.014 0 0 0 2.175 3.272 3.775 3.775 0 0 0 3.885-1.148l0.9 0.477a4.878 4.878 0 0 1-5.248 1.653c-1.157-0.5-2.471-2.587-2.817-4.5z"/>
    </g>
   </g>
  </g>
 </g>
</svg>
