<?xml version="1.0" encoding="UTF-8"?>
<!-- Created with Inkscape (http://www.inkscape.org/) -->
<svg version="1.1" viewBox="0 0 56.919 76.079" xmlns="http://www.w3.org/2000/svg">
 <g transform="translate(-1.1989 -1.6292)">
  <g>
   <path d="m32.917 62.478c-1.0704 1.0289-4.1603 1.6947-5.696 2.0975 2.3431-1.2702 3.4166-2.2058 4.1455-3.2496l2.8214 0.13303zm24.687-19.072c-0.78702-10.499-14.276-19.834-24.221-17.735-6.0437 1.2752-12.419 6.5053-15.073 13.515-5.9237-0.83652-12.857 3.5546-15.463 9.8198-2.3778 5.7183-2.108 14.453 6.6996 19.873 4.3837 2.6977 10.372 4.3738 17.139 4.0842 0.13859 0.27224 0.28647 0.53891 0.45105 0.79136-0.89654 0.14045-2.426 1.019-2.7942 1.3884-0.55067 0.55005-0.73938 1.4119-0.35206 1.9156 0.35206 0.45724 1.3216 0.35762 1.9156 0.01736 1.4769-0.84333 2.8127-1.4058 4.2538-1.5289 0.84333-0.07177 2.0808 0.05135 2.1618-1.1069 0.05382-0.77527-1.2127-1.1781-2.3728-1.0197-0.1392-0.17448-0.28957-0.41207-0.43435-0.68926 1.0704-0.13056 2.1575-0.31122 3.257-0.54448 2.5312 1.6638 5.9287 1.6007 9.164 0.07363 4.6931-2.2144 4.8298-6.5554 3.1289-10.282-0.2147-0.469-0.72762-1.3934-1.1663-2.126 8.9611-2.9322 14.342-7.9835 13.707-16.446" fill="#7dccf3"/>
   <path d="m31.116 61.323c-2.228-0.26543-4.341-0.85075-6.2145-1.7788-4.1975 4.8552-10.684 4.2006-13.638 0.61316-2.3827 1.5512-7.09 1.8116-9.362-1.5604 0.78517 3.7303 3.0528 7.4563 7.6444 10.281 4.3837 2.6977 10.372 4.3738 17.139 4.0842-1.3742-2.6995-1.4076-6.2065 0.81982-7.1705 0.65895-0.28523 1.785-0.25615 2.9198 0.07301 0.26234-0.93676 0.98935-2.0461 1.8673-2.9408-1.3593 0.7796-3.7699 1.3105-5.0705 1.6514 1.9137-1.3921 3.1605-2.2348 3.8949-3.2527" fill="#6cb2d3"/>
   <path d="m34.262 61.489c-0.03774 6.17e-4 -0.07425-0.0012-0.11137-0.0012l-0.16397 0.13179c0.09157-0.04763 0.18438-0.09219 0.27533-0.13056" fill="#6cb2d3"/>
  </g>
  <path d="m34.188 61.459-3.0287-0.19242c-0.01298 0.01919-0.02908 0.03774-0.04332 0.0563 0.99306 0.11879 2.0059 0.17696 3.0349 0.1652z" fill="none" stroke="#c96b6b" stroke-miterlimit="10" stroke-width=".1751"/>
  <path d="m33.987 61.62c-0.57418 0.29637-1.162 0.76042-1.6947 1.3043 0.24564-0.14106 0.46157-0.28895 0.62492-0.44672z" fill="none" stroke="#c96b6b" stroke-miterlimit="10" stroke-width=".1751"/>
  <g>
   <path d="m34.262 61.489c-1.454 0.50736-3.356 2.6407-3.8429 4.3744-1.1335-0.32793-2.2565-0.35639-2.9148-0.07177-2.4514 1.0611-2.1705 5.2066-0.36876 7.9618-0.89654 0.14106-2.4254 1.0197-2.7942 1.3884-0.55067 0.55067-0.73938 1.4126-0.35206 1.9162 0.35206 0.45662 1.3216 0.357 1.9156 0.01736 1.4769-0.84333 2.8127-1.4064 4.2538-1.5289 0.84333-0.07177 2.0808 0.05074 2.1618-1.1075 0.05382-0.77465-1.2127-1.1774-2.3728-1.019-0.13612-0.17078-0.28214-0.40279-0.42383-0.67132 1.0747-0.14292 2.8919-0.4591 3.2465-0.56242 0.60079 0.46528 2.345 1.11 3.2353 1.1787-0.82167-1.1187-2.1686-4.9548-2.3747-6.7361 0.2512-0.10332 1.2362-0.37495 2.1618-0.62616-0.06621-0.44672-0.14787-0.95346-0.12623-1.4181 0.25615 0.15778 1.0908 0.39722 1.446 0.49313 0.08785-1.4843 0.90644-3.2644 1.9193-4.1133-1.1515 0.30998-3.6332 0.50179-4.7698 0.52468" fill="#6cb2d3"/>
   <path d="m56.898 49.4c-2.2887 2.8858-6.0338 5.9429-15.1 8.8466-11.322 3.6264-21.081-1.3439-24.491-9.0013 0.07054 0.41393 0.15283 0.82972 0.25244 1.248 2.1526 9.0242 11.961 12.421 21.473 10.471l3.9865-0.83528c7.0684-2.1513 12.063-5.5327 13.879-10.729" fill="#6cb2d3"/>
   <path d="m25.152 32.176c0.15345 0.1089 0.05135 0.80126-0.42074 1.3816-0.29018 0.35701-0.73072 0.50612-0.95099 0.34278-0.23883-0.17758-0.18933-0.57542 0.09529-0.94356 0.47642-0.61749 1.1508-0.87055 1.2764-0.78084" fill="#d2ecfa"/>
   <path d="m10.318 56.132c0.88107 2.7849 3.2186 4.9777 6.3216 5.086 2.9179 0.10209 5.2815-0.77589 6.3605-2.7905-2.6451-1.8222-4.6126-4.4598-5.4417-7.9346-0.23017-0.96584-0.37309-1.9205-0.45291-2.8629-4.1189 0.38918-6.9032 4.2866-6.7875 8.502" fill="#004898"/>
   <path d="m53.866 46.125c-2.4341 1.0865-5.1559-1.3018-6.2591-5.2159-0.24749-0.8786-0.38732-1.7225-0.44301-2.5145-2.0319-0.61935-5.6379-3.2811-7.064-5.0692-0.29513 2.0109-2.9662 7.2664-5.1509 8.734 0.0829 0.61749 0.1287 1.2721 0.11879 1.9713-0.0563 4.091-2.293 7.5838-5.472 7.3474-0.25492-0.01855-0.4987-0.06682-0.73381-0.13673 0.33968 0.83034 0.35824 1.7788-0.11262 2.5244-0.79754 1.2634-2.629 1.2102-3.7705 0.60326-0.83095 2.0053-0.78702 3.7588 0.70968 5.5382 3.7186 1.6056 8.2458 1.9843 12.746 1.1688 0.0081-0.0074 0.01543-0.01543 0.02413-0.02289-0.0086 0.0074-0.01614 0.01544-0.02413 0.02289 0.19923-0.03589 0.39846-0.07115 0.59707-0.11198-0.19861 0.04082-0.39784 0.0761-0.59707 0.11198-1.7578 1.5685-2.5269 4.32-2.1773 6.0864 0.50055 2.5257 2.7948 3.4432 5.3966 2.9353 1.91-0.37309 3.5125-1.7491 4.3955-3.5862 0.0693-1.4948-0.31432-3.0621-0.98625-4.5334-0.21408-0.46962-0.72701-1.3934-1.1657-2.1266-0.28956 0.09468-0.58284 0.18686-0.8786 0.27719 0.29575-0.09034 0.58903-0.18253 0.8786-0.27719-0.07116-0.11756-0.13922-0.23079-0.20418-0.33535 0.06497 0.10457 0.13303 0.21779 0.20418 0.33535 7.3585-2.4081 12.298-6.2473 13.48-12.229-0.46157 0.46034-1.0203 0.68246-1.4973 0.50117-0.97017-0.36752-1.0791-2.0443-0.60883-3.1728 0.02475-0.05754 0.05013-0.11013 0.07549-0.16458l-0.05816-0.0365c-0.31493 0.60883-0.7796 1.0877-1.4225 1.3748" fill="#d3ebea"/>
   <path d="m56.889 49.411c-2.2899 2.8827-6.0376 5.9361-15.092 8.8354-6.6476 2.129-12.753 1.2901-17.355-1.3123 0.03713 1.0147 0.41888 1.9898 1.2461 2.9736 3.7186 1.6056 8.2458 1.9843 12.746 1.1688-1.0927 0.97512-1.803 2.4075-2.1 3.7767 2.4217 0.93676 7.3456 0.26667 9.3113-1.3253-0.15653-0.52283-0.35082-1.0419-0.58222-1.5493-0.2147-0.46962-0.72762-1.3934-1.1663-2.1266 6.5969-2.1587 11.248-5.4696 12.992-10.441" fill="#b7cbcb"/>
   <path d="m26.438 49.204c-1.243-0.28957-2.298 0.21965-2.9074 1.1341-0.78578 1.1781-0.1683 3.0856 1.3327 3.9698 1.1298 0.66575 3.0615 0.76475 3.8862-0.54139 0.47085-0.74619 0.45229-1.6941 0.11262-2.5244-1.0042-0.29885-1.8197-1.0395-2.4242-2.0381" fill="#004898"/>
   <path d="m57.604 43.406c-0.0025-0.03527-0.0093-0.06991-0.01175-0.10518-0.0012 0-0.0012-6.19e-4 -0.0019-6.19e-4 -0.72453-0.23202-1.6897 0.1454-2.319 1.6514-0.47023 1.1286-0.36134 2.8053 0.60883 3.1728 0.47704 0.18129 1.0358-0.04084 1.4973-0.50117 0.25677-1.3024 0.3403-2.7038 0.22645-4.2173" fill="#004898"/>
   <path d="m30.721 36.207c-2.5554-0.12808-5.0711 2.6525-5.4788 6.9935-0.35639 3.7903 1.2566 7.9476 4.3546 8.1777 3.1784 0.23574 5.4157-3.2564 5.4714-7.3474 0.06621-4.7784-2.2126-7.7174-4.3472-7.8238" fill="#fff"/>
   <path d="m49.143 33.187c1.7541-0.59707 4.4023 1.4385 5.8105 5.1144 1.3037 3.4055 1.2028 6.8017-1.0871 7.8244-2.4341 1.0865-5.1559-1.3024-6.2591-5.2165-1.0902-3.8677-0.18748-7.1358 1.5357-7.7224" fill="#fff"/>
   <path d="m31.082 39.011c-1.3643-0.03094-2.7001 1.6433-2.887 4.5384-0.14912 2.3171 0.93923 4.8329 2.4984 4.8446 1.8209 0.0142 2.822-2.0554 2.8734-4.5526 0.06249-3.033-1.2511-4.8026-2.4848-4.8304" fill="#004898"/>
   <path d="m49.499 36.057c1.0667-0.44115 2.6612 0.71587 3.6722 3.244 0.80868 2.0232 0.72391 4.3472-0.40589 4.883-1.0172 0.48261-2.6915-0.44177-3.7235-3.1438-1.016-2.6605-0.46714-4.6009 0.45724-4.9832" fill="#004898"/>
   <path d="m16.51 3.8132c-3.4822-1.8135-6.5325-2.4229-7.6698-1.4918-1.7758 1.4528 0.18995 7.7743 3.4457 12.97 1.7937 2.8641 5.1763 6.7015 8.3572 8.5001 0.20666 0.11137 0.41455 0.22769 0.62492 0.35453-0.21037-0.12684-0.41826-0.24316-0.62492-0.35453 0.03774 0.02166 0.0761 0.04641 0.11384 0.06682-0.03774-0.02041-0.0761-0.04516-0.11384-0.06682-5.1998-2.7985-8.8645-0.55005-9.1232 1.4553-0.54881 4.2531 5.073 7.0919 12.466 5.5661 2.2509-2.1049 4.8403-3.6938 7.4507-4.5953-1.6087-5.6694-5.9107-15.95-14.927-22.405" fill="#fff362"/>
   <path d="m27.03 15.795c-1.6291 3.6802-1.9824 8.6535-0.28028 12.808 1.506-1.0246 3.0924-1.8345 4.6869-2.3852-0.77279-2.7224-2.1686-6.5084-4.4066-10.423" fill="#ded255"/>
   <path d="m16.51 3.8132c9.0161 6.4552 13.318 16.735 14.927 22.405 0.64905-0.22398 1.2993-0.41084 1.9459-0.54696 0.14045-0.0297 0.284-0.04888 0.4263-0.07425-1.4058-5.1101-5.4188-11.426-8.6492-15.043-2.6277-2.9421-5.7845-5.2487-8.6498-6.7411" fill="#004898"/>
   <path d="m48.178 59.498c0.25058-0.42507 0.57851-1.6687 0.60017-2.2466 0.02166-0.5779-0.16397-1.5703-1.1558-1.7232-0.82477-0.12746-1.2969 0.4362-1.3965 1.4942-0.1157 1.2282-1.0407 2.4242-2.0802 3.2514 0.37 0.63791 0.74371 1.3222 0.91819 1.7046 0.08168 0.17881 0.15778 0.3601 0.23079 0.54201 0.48137-0.25987 0.96893-0.59893 1.3018-0.9943 0.75238 0.284 1.2214 0.92748 1.1125 1.5703 0.1089-0.64286-0.3601-1.2863-1.1125-1.5703-0.33287 0.39537-0.82043 0.73443-1.3018 0.9943 0.34587 0.86065 0.58965 1.7467 0.69916 2.6253 1.5926 0.50488 3.3715 0.1157 4.0929-1.2201 0.66513-1.2319-0.22893-3.1735-1.9088-4.4276" fill="#6cb2d3"/>
   <path d="m45.988 65.125c0.62554 0.32978 1.9106 0.31246 2.4031 0.09529 2.6698 1.4645 2.788 4.9715 0.39722 7.1624 1.6068 0.58965 2.6748 1.743 2.2676 2.5312-0.39166 0.76104-1.3136 0.87055-2.2497 0.24625-1.1069-0.73814-2.5133-1.2307-3.8844-1.4763-0.74681-0.13426-1.6873-0.52778-1.5815-1.3012 0.10579-0.77341 1.5994-0.96646 2.6011-0.70288 1.3006-0.77341 2.1711-2.0913 1.9509-3.093-0.14045-0.64038-0.78145-1.3092-1.8723-1.6099 0.08971-0.46281 0.03713-1.4008-0.03217-1.8519" fill="#6cb2d3"/>
  </g>
  <g fill="#fff">
   <path d="m31.161 41.538c-0.51107-0.03341-0.94047 0.63234-1.0351 2.0022-0.07611 1.0952 0.40032 2.1513 0.93985 2.1854 0.59151 0.03713 0.97698-0.97759 0.97636-2.0987-6.2e-4 -1.183-0.43682-2.0604-0.88107-2.0888"/>
   <path d="m31.174 39.601c-0.43992-0.0142-0.75361 0.21903-0.78764 0.73257-0.02969 0.43002 0.26791 0.76846 0.69112 0.79754 0.45476 0.03032 0.73319-0.31741 0.76351-0.73814 0.03218-0.44239-0.32421-0.78084-0.66699-0.79197"/>
   <path d="m50.232 38.155c0.40527-0.18067 0.95408 0.21903 1.5048 1.566 0.32669 0.7994 0.4659 2.0214 0.05754 2.2027-0.469 0.20851-1.1038-0.55376-1.5493-1.5648-0.31617-0.71525-0.48447-1.9935-0.01298-2.2039"/>
   <path d="m49.604 36.548c0.36196-0.12745 0.68493-0.01104 0.85137 0.41517 0.13984 0.35763-0.01666 0.72206-0.36072 0.85694-0.37 0.1454-0.69483-0.07671-0.83281-0.4263-0.14478-0.36629 0.06063-0.74681 0.34216-0.8458"/>
  </g>
  <g>
   <path d="m21.01 56.763c-2.0214 3.1753-8.2996 3.6864-10.692-1.063-0.0031 0.14354-0.0031 0.28771 0.0012 0.43187 0.88107 2.7855 3.2186 4.9783 6.3216 5.0866 2.9173 0.10148 5.2815-0.7765 6.3605-2.7911-0.7171-0.49374-1.3829-1.05-1.9911-1.6644" fill="#003c82"/>
   <path d="m35.724 70.3 1.5413 3.1147c1.5177-0.02722 3.1122-0.4195 4.6695-1.1545 2.8443-1.342 4.0125-3.4655 4.1145-5.7597-1.475 3.442-5.9973 6.6155-10.325 3.7996" fill="#6cb2d3"/>
   <path d="m56.889 49.411c-2.2899 2.8827-6.0376 5.9361-15.092 8.8354-6.6476 2.129-12.753 1.2901-17.355-1.3123 0.03713 1.0147 0.41888 1.9898 1.2461 2.9736 3.7186 1.6056 8.2458 1.9843 12.746 1.1688-1.0927 0.97512-1.803 2.4075-2.1 3.7767 2.4217 0.93676 7.3456 0.26667 9.3113-1.3253-0.15653-0.52283-0.35082-1.0419-0.58222-1.5493-0.2147-0.46962-0.72762-1.3934-1.1663-2.1266 6.5969-2.1587 11.248-5.4696 12.992-10.441" fill="#b7cbcb"/>
   <path d="m30.879 65.278-0.19861-0.10951c-0.10765 0.23574-0.19737 0.46962-0.26049 0.69607-1.1335-0.32855-2.2571-0.35639-2.9148-0.07177-1.0611 0.4591-1.6087 1.4973-1.7436 2.7496 1.9861 0.23264 4.2166-0.62058 5.1175-3.2644" fill="#7dccf3"/>
   <path d="m50.36 67.718-0.24192-0.68555c-0.22707-0.48694-0.56304-0.92809-0.99987-1.3024-0.74557 1.1614-0.65894 2.5807 1.2975 3.8194 0.11632-0.6212 0.09404-1.2443-0.05568-1.8314" fill="#7dccf3"/>
  </g>
  <g fill="#0f141b">
   <path d="m25.427 10.314c-6.6637-7.4606-14.891-9.7784-16.785-8.2285-1.587 1.2987-0.80744 6.811 3.3195 13.398 1.8172 2.9006 5.3118 6.8444 8.6919 8.6028 1.923 1.0005 2.1012 0.64533 0.23326-0.45477-3.1438-1.8512-6.4936-5.7133-8.2699-8.5496-3.3492-5.3452-5.0884-11.283-3.5769-12.519 1.8679-1.5276 10.025 1.6959 15.856 8.2235 3.2527 3.6425 7.1748 9.917 8.5533 14.914l0.74309-0.18562c-1.407-5.0921-5.4646-11.507-8.7643-15.2"/>
   <path d="m11.82 25.286c0.25306-1.9694 4.0861-3.851 9.2166-1.0067l-1.8178-1.5239c-4.435-1.6563-7.731 0.38052-7.9989 2.4533-0.5748 4.4641 4.9678 7.3499 12.214 6.0536l1.0741-0.95099c-7.392 1.7052-13.206-1.0141-12.688-5.0253"/>
   <path d="m18.253 4.7606-3.0435-1.4695c10.474 6.8209 14.664 18.743 15.895 23.038l0.67132-0.23079c-1.1354-3.9636-4.8416-14.278-13.523-21.338"/>
   <path d="m58.067 43.373c-0.82229-10.968-14.606-20.172-24.745-18.033-9.4282 1.9892-19.141 12.937-16.203 25.251 2.2485 9.4232 12.256 12.316 20.877 10.792 1.6068-0.28462 1.4961-0.62925-0.09715-0.44116-8.9839 1.0586-17.831-1.9527-19.887-10.57-2.8301-11.861 6.7231-22.532 15.44-24.372 9.5204-2.0084 22.95 6.8289 23.744 17.412 0.58346 7.7848-4.1777 13.053-13.798 16.359-1.8488 0.63606-1.6922 0.99739 0.16644 0.44548 10.278-3.0522 15.111-8.7216 14.502-16.842"/>
   <path d="m29.16 51.312-0.63172-0.13859c0.37247 0.84766 0.42197 1.7095-0.0328 2.4316-0.73938 1.1694-2.5102 0.9714-3.4624 0.41022-1.2641-0.74495-2.0121-2.3679-1.2498-3.51h-6.19e-4c0.64162-0.96151 1.6563-1.2696 2.7472-1.045l-0.28585-0.56242c-1.2931-0.18809-2.3753 0.38856-2.9643 1.2721-0.94851 1.4231-0.07549 3.5181 1.4157 4.3961 1.3767 0.81177 3.4705 0.69236 4.3107-0.63853 0.42197-0.66823 0.56057-1.6205 0.15406-2.6154"/>
   <path d="m55.994 47.868c-0.76908-0.29142-0.94666-1.6285-0.43868-2.8455 0.50117-1.2003 1.2059-1.7126 1.9273-1.4955l-0.0062-0.5185c-0.77341-0.13365-1.8166 0.22955-2.4836 1.8271-0.61997 1.4843-0.16767 3.179 0.79507 3.5441 0.5055 0.1918 1.0593-0.01052 1.3909-0.32916l0.17881-0.84704c-0.21594 0.48323-0.88664 0.84518-1.3637 0.66452"/>
   <path d="m47.141 38.071c-2.0016-0.6608-5.4597-3.2403-6.7906-4.9102-0.24316-0.30442-0.47147-0.28276-0.5352 0.14417-0.27905 1.9026-2.8158 6.8735-4.888 8.4011l0.0823 0.67132c2.2565-1.4454 4.6702-5.9738 5.2462-8.445 1.6984 1.923 4.9152 4.2872 6.9174 4.7784z"/>
   <path d="m41.37 47.659c-0.07796 0.14912-0.01543 0.32298 0.15034 0.40774 0.14787 0.07487 0.34278 0.06682 0.44054-0.1089 0.10332-0.18314-0.0031-0.36505-0.16087-0.43744-0.18995-0.08785-0.35082-0.0142-0.43002 0.13859"/>
   <path d="m45.907 46.596c0.13798 0.07857 0.17758 0.24749 0.08909 0.3997-0.07858 0.1355-0.23635 0.22831-0.40465 0.13984-0.17511-0.09282-0.18438-0.2908-0.09651-0.42878 0.10642-0.16706 0.271-0.19119 0.41207-0.11076"/>
   <path d="m32.055 71.969c-0.89592-0.78331-0.64038-1.0506 0.30751-0.33164 2.3821 1.8061 5.933 1.9843 9.4263 0.33535 2.6117-1.2319 5.4832-4.3057 3.0949-9.9034-0.31432-0.73629 0.02166-0.90953 0.36134-0.185 1.6978 3.6171 1.8246 8.3058-3.1766 10.667-3.799 1.7918-7.624 1.5066-10.014-0.58222"/>
   <path d="m23.702 77.243c-0.41207-0.58222-0.45043-1.4392 0.42507-2.3147 0.34896-0.34834 1.5969-1.016 2.5492-1.3074-1.6768-2.8598-1.9651-7.0108 0.68617-8.1586 1.2999-0.56304 4.0057 0.0149 5.6539 1.6025 0.65523 0.63172 0.47394 0.80373-0.24688 0.24687-1.6483-1.2727-4.1418-1.6211-5.1286-1.1948-2.1216 0.91881-2.1321 4.6535-0.27348 7.4953 0.14045 0.21532 0.09404 0.35825-0.17325 0.40032-0.81239 0.12746-2.3097 1.0129-2.6389 1.3433-0.59522 0.5946-0.60017 1.0952-0.30751 1.475 0.28957 0.37619 1.0624 0.23636 1.5072-0.01794 1.7232-0.9844 3.0324-1.4528 4.3787-1.5679 1.0766-0.09034 1.7683-0.25058 1.8098-0.85014 0.03774-0.53706-0.67503-0.87612-1.9756-0.69854-0.10704 0.01245-0.21099-0.02786-0.27657-0.11137-0.77898-0.97326-1.9156-3.9215-0.83281-4.9696 0.72639-0.70226 2.7391 0.1683 3.4129 0.59212 0.71463 0.45044 0.59027 0.76908-0.18191 0.42445-1.3581-0.60635-2.5102-0.87426-2.8103-0.58222-0.69236 0.67008 0.14912 3.0528 0.85818 4.0607 2.1266-0.20232 2.5721 0.86375 2.5213 1.3575-0.0693 0.67132-0.37495 1.2078-2.3697 1.3544-1.4893 0.10951-2.4 0.46776-4.234 1.5153-0.75485 0.43187-1.8723 0.58532-2.353-0.09468"/>
   <path d="m34.734 61.643-1.3061-0.04083c-1.4447 0.93428-2.9148 2.7187-3.3244 4.1795l0.64595 0.2215c0.38918-1.6607 2.4025-3.9302 3.9846-4.3602"/>
   <path d="m49.282 72.277c1.1496-1.2288 1.7764-2.7954 1.506-4.3076-0.21222-1.1836-0.96893-2.199-1.9991-2.8542l-0.7666 0.26296c1.1471 0.54758 1.8444 1.4732 2.0579 2.6642 0.25925 1.446-0.25244 3.0293-1.4794 4.1548-0.18067 0.1652-0.17014 0.3335 0.12065 0.44054 1.8005 0.65956 2.259 1.6823 2.0338 2.1204-0.30318 0.58779-0.95841 0.69916-1.7801 0.15036-1.0655-0.7103-2.4854-1.2505-3.9988-1.5221-0.14664-0.0266-1.3655-0.29451-1.2721-0.98069 0.0594-0.45044 0.97697-0.68184 1.9292-0.50983 0.23883 0.0433 0.41702 0.03774 0.59088-0.0724 1.3736-0.87364 2.2503-2.228 2.014-3.3053-0.185-0.84271-1.0432-1.5307-2.1563-1.8351l-0.06497 0.60883c0.94232 0.28338 1.428 0.88293 1.5382 1.3847 0.17881 0.81549-0.55067 2.0121-1.6916 2.7323-1.4194-0.31246-2.7274 0.0019-2.8523 0.92253-0.1287 0.94356 0.89097 1.4763 1.858 1.6495 1.6458 0.29513 2.5578 0.62182 3.7705 1.4305 1.2152 0.81053 2.2491 0.56057 2.7113-0.33597 0.47147-0.91448-0.42507-2.0554-2.069-2.7985"/>
   <path d="m32.295 71.93c-0.94666 0.21903-1.9032 0.36196-2.913 0.48199l0.2741 0.60202c1.1428-0.14354 2.3252-0.33164 3.4735-0.58284z"/>
   <path d="m9.7263 68.586c-8.6319-5.3118-8.875-13.767-6.514-19.441 2.5405-6.1099 9.2766-10.41 14.968-9.6714l0.25801-0.57356c-6.0648-0.9151-13.23 3.4228-15.943 9.9473-2.4514 5.8946-2.074 14.815 6.8834 20.328 6.5319 4.0199 13.998 4.294 17.464 4.1244l-0.33288-0.65462c-6.1854 0.24564-12.053-1.1477-16.784-4.0589"/>
   <path d="m33.543 61.523c-3.8015 2.8233-8.5162 3.6567-12.642 3.1456-8.3442-1.0327-10.325-5.266-10.219-9.0396 0.10642-3.799 2.6123-7.301 6.4038-7.692l-0.05816-0.6014c-3.9382 0.40279-6.9032 3.937-7.0721 8.1109-0.16953 4.1777 2.426 9.0248 10.822 9.8935 4.6739 0.48385 9.5761-0.50179 11.663-2.3988z"/>
   <path d="m23.283 58.608-0.56737-0.42445c-0.37124 0.72082-1.0054 1.4491-1.6631 1.845-1.3389 0.80497-1.2269 1.0153 0.18995 0.44363 0.86313-0.34834 1.5982-1.0419 2.0406-1.8642"/>
   <path d="m30.685 36.509c-2.4007-0.12251-4.7091 2.5424-5.0921 6.7114-0.33473 3.6394 1.1255 7.6357 4.036 7.8566 2.986 0.22646 5.0643-3.1252 5.1169-7.0535 0.06187-4.5885-2.0548-7.4118-4.0607-7.5145m4.719 7.5343c-0.0594 4.2736-2.4285 7.8981-5.8389 7.6493-3.2786-0.24007-5.0334-4.5879-4.6572-8.5348 0.43187-4.5211 3.1425-7.3975 5.847-7.2651 2.2602 0.11137 4.719 3.1741 4.6491 8.1505"/>
   <path d="m31.075 39.298c-1.1187-0.0049-2.3765 1.4157-2.5312 4.2692-0.11756 2.1662 0.7796 4.4753 2.1748 4.5409 1.6242 0.07671 2.5003-1.9304 2.5461-4.2643 0.0563-2.8338-1.0772-4.5409-2.1897-4.5458m2.8121 4.5526c-0.05816 2.6642-1.2406 4.9851-3.2007 4.8409-1.7405-0.12807-2.9594-2.6766-2.8109-5.1497 0.18562-3.0906 1.7145-4.8434 3.2409-4.8106 1.381 0.02969 2.8406 1.8834 2.7707 5.1194"/>
   <path d="m31.136 41.789c-0.35577-0.02908-0.65462 0.55624-0.7202 1.7615-0.06682 1.2164 0.2611 1.8915 0.654 1.9224 0.41207 0.0328 0.67998-0.85941 0.67936-1.8463 0-1.0407-0.3038-1.8123-0.61316-1.8376m1.1502 1.837c6.19e-4 1.2616-0.47952 2.3852-1.2214 2.3431-0.66637-0.03774-1.2696-0.99182-1.1812-2.4409 0.09404-1.5573 0.68493-2.2293 1.2591-2.2212 0.59274 0.0074 1.1428 0.98749 1.1434 2.319"/>
   <path d="m47.917 40.827c1.024 3.6641 3.5595 6.0444 5.8198 5.0272 2.1266-0.95717 2.1414-4.2717 0.93057-7.4594-1.3853-3.6474-3.992-5.4133-5.3947-4.9319-1.9335 0.6639-2.2435 4.19-1.3556 7.3641m1.1218-7.9352c1.8395-0.62615 4.6863 1.3575 6.1972 5.3037 1.3624 3.5583 1.1323 7.1488-1.261 8.2167-2.543 1.136-5.5098-1.3136-6.6637-5.4034-1.1545-4.0966-0.10271-7.494 1.7275-8.1171"/>
   <path d="m49.326 40.923c0.92871 2.431 2.4254 3.4346 3.3399 3.0008 1.0172-0.48261 0.93676-2.7045 0.20851-4.5241-0.90891-2.2744-2.3413-3.4742-3.3009-3.0776-0.83157 0.34401-1.1614 2.2082-0.24749 4.6009m0.0563-5.1138c1.0766-0.44487 2.908 0.4393 4.0824 3.3764 0.90767 2.2695 0.61935 4.6132-0.57047 5.2165-1.0475 0.53025-2.9557-0.23264-4.1146-3.2669-1.1502-3.012-0.34711-4.9331 0.60264-5.326"/>
   <path d="m50.464 40.263c0.36876 0.83528 0.87117 1.5901 1.2263 1.4324 0.29328-0.12993 0.18129-0.97078-0.20542-1.9174-0.5383-1.3173-0.93737-1.5134-1.1533-1.4175-0.35701 0.15964-0.0433 1.5054 0.1324 1.9026m-0.29452-2.2992c0.39784-0.17696 1.1638 0.09529 1.8005 1.6532 0.30936 0.75609 0.54448 2.2169-0.10271 2.5046-0.53087 0.23512-1.2628-0.31617-1.8661-1.6823-0.34649-0.78393-0.4857-2.1829 0.16828-2.4755"/>
  </g>
  <g>
   <path d="m47.709 63.097c0.06868-0.64905-0.3601-1.287-1.1125-1.5703-0.57789 0.68679-1.6254 1.2102-2.2905 1.4286-1.6996 0.55748-2.5516-1.1558-0.87241-2.181 1.2938-0.7895 2.6506-2.2466 2.7923-3.752 0.09962-1.0574 0.57109-1.6211 1.3959-1.4942 0.99244 0.15283 1.1781 1.1453 1.1564 1.7232-0.02227 0.57789-0.34958 1.8215-0.60017 2.2472 1.2597 0.94047 2.0975 2.2825 2.1464 3.403 0.05691 1.3173-2.2064 1.717-2.6154 0.19552" fill="#7dccf3"/>
   <path d="m44.306 62.955c0.66575-0.21841 1.7126-0.74186 2.2905-1.4286 0.6806 0.25615 1.1248 0.80744 1.1236 1.386 0.04455 0.10023 0.11756 0.24749 0.16706 0.36196 0.42012-0.85075 0.17572-2.027-0.87055-2.6036-0.39166-0.21532-0.75299-0.1683-1.0426 0.20356-0.83343 1.0704-2.5584 2.0418-3.4383 1.3197 0.07735 0.63482 0.7765 1.0871 1.7702 0.76104" fill="#6cb2d3"/>
   <path d="m41.478 75.213c-0.47518-0.29885-1.1774-0.47456-1.5468-0.52778-0.64966-0.09219-0.72515-0.11942-1.037-0.61502-1.4967-2.3716-2.7187-5.2988-3.1332-8.2897-0.50983-0.69483-1.9001-0.55995-2.1674 0.63544 0.456 3.0813 1.8871 6.2034 3.1561 8.2347-0.77341 0.21099-1.5289 0.5451-2.0387 0.93119-0.95594 0.72577 0.25244 1.9923 1.4237 1.4064 0.90273-0.45105 3.0584-0.68555 4.2358-0.15839 1.3488 0.60388 2.392-0.80744 1.1075-1.6167" fill="#7dccf3"/>
   <path d="m36.135 76.988c0.90273-0.45105 3.0578-0.68555 4.2358-0.15839 1.0995 0.49251 1.9948-0.35515 1.5926-1.123-0.29018 0.43744-0.90706 0.69793-1.3742 0.46405-1.2956-0.64843-3.1128-0.68555-4.7308 0.0959-0.56985 0.27533-1.1069-0.1355-1.0413-0.7598-0.03527 0.02474-0.07238 0.04949-0.10579 0.07487-0.95656 0.72515 0.25182 1.9923 1.4237 1.4064" fill="#6cb2d3"/>
  </g>
  <g fill="#0f141b">
   <path d="m48.556 59.409c0.2444-0.57047 0.5185-1.592 0.53891-2.1383 0.03155-0.83281-0.32854-1.9218-1.4212-2.0901-0.89468-0.13798-1.6557 0.46157-1.7819 1.8017-0.13179 1.3971-1.3928 2.7868-2.616 3.5336-2.0362 1.243-1.0525 3.4408 1.1236 2.7261 0.72391-0.23697 1.6724-0.73691 2.2744-1.3525 0.51416 0.25925 0.88664 0.65338 0.81177 1.0958-0.13426 0.79445 0.31865 0.88726 0.45662 0.09343 0.13242-0.78207-0.33968-1.4961-1.2399-1.8352-0.16211-0.06127-0.21532-0.0563-0.33721 0.08785-0.50365 0.59831-1.4689 1.1125-2.1532 1.3365-1.3334 0.43497-1.8766-0.87055-0.6212-1.6365 1.2529-0.76413 2.7936-2.2565 2.955-3.9716 0.10024-1.0642 0.54696-1.2597 0.99925-1.1892 0.87921 0.13551 0.92748 1.0772 0.91634 1.3748-0.02041 0.53211-0.32483 1.7263-0.54386 2.0987-0.11632 0.19614-0.09343 0.26729 0.07921 0.39599 1.6007 1.1954 2.3487 2.9266 1.7708 3.9976-0.60883 1.1273-2.0913 1.6477-3.7223 1.1112l0.07116 0.65029c1.8692 0.50055 3.6363-0.23388 4.2742-1.4157 0.70288-1.3018-0.10704-3.2861-1.8345-4.6745"/>
   <path d="m34.931 75.083c0.42568-0.24007 0.85756-0.43311 1.3556-0.60945-1.4645-2.3722-2.8913-5.9169-3.0392-9.2704-0.05074-1.1496 0.32731-1.1614 0.41764-0.02908 0.26605 3.3232 1.876 6.9725 3.3411 9.3162 0.15159 0.24254-0.01105 0.4065-0.17757 0.45105-0.62554 0.17077-1.2208 0.3997-1.6557 0.6905-0.91448 0.61192-0.15159 1.5821 0.84642 1.1081 1.1422-0.54324 3.0417-0.79321 4.4629-0.15716 1.0617 0.4758 1.686-0.57851 0.83405-1.1143-0.45415-0.28647-1.1329-0.44177-1.428-0.48385-0.7233-0.10395-0.88107-0.16892-1.2498-0.75361-2.1346-3.3826-3.3244-7.2385-3.2211-10.65 0.03032-0.99739 0.39475-1.0048 0.39042-0.0074-0.01543 3.2768 1.2672 7.0473 3.3418 10.335 0.24935 0.39537 0.24935 0.39537 0.82415 0.47766 0.36443 0.05196 1.1261 0.23079 1.665 0.57047 1.6266 1.024 0.44486 2.9699-1.3915 2.1488-1.2177-0.54572-3.0033-0.31617-3.9772 0.1522-1.8154 0.87365-3.1264-1.1688-1.3389-2.1748"/>
   <path d="m23.853 64.812c4.4901-0.66946 6.1755-2.2101 7.1686-3.5645 0.14912-0.20356 0.7332-0.03589 0.62987 0.11818-1.1428 1.7021-2.4421 2.8752-5.7703 3.4853-0.76661 0.14106-2.0282-0.03897-2.0282-0.03897"/>
   <path d="m39.393 56.732c-2.9977 0-6.0153-0.69421-8.2532-2.0189-0.14354-0.08415-0.19119-0.26977-0.10642-0.41331 0.08476-0.14356 0.26976-0.19242 0.41393-0.10643 3.5664 2.1099 9.198 2.5535 13.392 1.0543 2.6253-0.93923 6.1409-2.853 7.9723-6.6408 0.07301-0.15036 0.25368-0.21346 0.40403-0.14045 0.15034 0.07301 0.21346 0.25368 0.14045 0.40341-1.5208 3.1438-4.3955 5.5463-8.3132 6.9471-1.7232 0.61626-3.6821 0.9151-5.6496 0.9151"/>
  </g>
 </g>
</svg>
