<?xml version="1.0" encoding="UTF-8"?>
<!-- Created with Inkscape (http://www.inkscape.org/) -->
<svg version="1.1" viewBox="0 0 64.574 100.8" xmlns="http://www.w3.org/2000/svg">
 <g transform="translate(-2.3576 -1.6838)">
  <g transform="matrix(.33156 0 0 -.33156 37.975 69.783)">
   <path d="m0 0-56.454 17.721c-19.589 7.729-49.484-17.972-49.729-53.456-0.216-31.542 16.246-53.89 46.454-55.232 17.945-0.797 35.201 9.847 46.062 32.257 8.805 2.417 17.266 9 21.646 20.478 4.481 11.738 1.102 26.805-7.979 38.232" fill="#7dccf3"/>
  </g>
  <g transform="matrix(.33156 0 0 -.33156 36.832 69.889)">
   <path d="m0 0c48.536-3.188 90.283 19.395 89.158 55.635-1.307 42.086-43.085 79.499-77.319 78.332-44.091-1.503-77.119-46.347-75.8-81.033 0.892-23.434 9.311-43.863 33.944-48.949 7.82-1.614 21.784-3.444 30.017-3.985" fill="#7dccf3"/>
  </g>
  <g transform="matrix(.33156 0 0 -.33156 32.514 69.683)">
   <path d="m0 0c-6.309-5.386-10.4-13.569-10.315-21.479 0.117-11.012 7.42-18.713 17.627-18.713 10.361 0 18.576 8.392 18.076 21.406-1.562 6.783-5.106 13.227-8.276 17.963 31.787-1.151 60.166 8.786 74.743 26.332 3.898 6.155 5.042 13.198 3.676 16.851l-35.021 35.119c-7.979 4.123-17.434 14.395-23.41 23.199-5.47-10.205-16.785-21.832-26.38-27.471l-43.193-34.607c-6.997-5.465-4.288-25.694 15.354-34.796 5.666-1.392 11.594-2.436 16.925-3.091 0.569-0.07 0.692-0.288 0.194-0.713" fill="#d3ebea"/>
  </g>
  <g transform="matrix(.33156 0 0 -.33156 26.652 52.674)">
   <path d="m0 0c3.428-5.627 2.926-12.324-2.139-15.306-4.332-2.551-10.957-0.536-14.575 5.402-3.625 5.949-2.214 12.316 2.139 14.968 4.231 2.579 10.67 1.345 14.575-5.064" fill="#004898"/>
  </g>
  <g transform="matrix(.33156 0 0 -.33156 66.281 52.077)">
   <path d="m0 0c-0.596-7.363-4.343-11.151-7.935-10.861-3.585 0.29-6.447 4.805-5.852 12.155 0.522 6.458 3.523 11.312 7.71 10.973 3.671-0.297 6.6-5.8 6.077-12.267" fill="#004898"/>
  </g>
  <g transform="matrix(.33156 0 0 -.33156 36.055 45.873)">
   <path d="m0 0c-0.517-15.371-8.466-28.719-19.33-28.066-11.943 0.717-18.443 12.704-17.684 29.501 0.832 18.405 10.847 29.037 19.794 28.741 9.535-0.314 17.8-12.924 17.22-30.176" fill="#fff"/>
  </g>
  <g transform="matrix(.33156 0 0 -.33156 62.587 43.117)">
   <path d="m0 0c4.163-15.726 0.1-28.829-7.386-30.81-7.715-2.042-17.773 7.495-21.777 22.622-4.288 16.202 0.128 29.115 7.808 31.147 7.923 2.098 17.168-7.137 21.355-22.959" fill="#fff"/>
  </g>
  <g transform="matrix(.33156 0 0 -.33156 33.327 45.974)">
   <path d="m0 0c-0.638-12.111-6.136-17.85-10.396-17.625-5.114 0.269-9.036 8.181-8.486 18.62 0.571 10.84 5.317 17.893 10.397 17.625 5.226-0.275 9.042-8.053 8.485-18.62" fill="#004898"/>
  </g>
  <g transform="matrix(.33156 0 0 -.33156 60.161 43.896)">
   <path d="m0 0c2.414-10.283 9e-3 -17.864-4.558-18.936-4.833-1.134-10.146 4.527-12.577 14.885-2.375 10.119-0.136 17.637 4.559 18.739 4.436 1.041 10.155-4.37 12.576-14.688" fill="#004898"/>
  </g>
  <g transform="matrix(.33156 0 0 -.33156 31.334 41.799)">
   <path d="m0 0c-0.241-2.023-1.741-3.533-3.457-3.328-1.823 0.218-2.835 1.89-2.577 4.048 0.248 2.082 1.733 3.47 3.457 3.328 1.666-0.138 2.827-1.954 2.577-4.048" fill="#fff"/>
  </g>
  <g transform="matrix(.33156 0 0 -.33156 57.129 40.444)">
   <path d="m0 0c0.372-1.86-0.735-3.383-2.178-3.672-1.534-0.308-3.027 0.848-3.385 2.636-0.348 1.738 0.685 3.365 2.125 3.654 1.619 0.324 3.083-0.844 3.438-2.618" fill="#fff"/>
  </g>
  <g transform="matrix(.33156 0 0 -.33156 31.217 45.908)">
   <path d="m0 0c-0.147-4.902-1.924-7.88-3.783-7.824-1.898 0.058-3.453 3.098-3.304 8.038 0.148 4.875 1.785 7.885 3.783 7.824 1.916-0.058 3.442-3.499 3.304-8.038" fill="#fff"/>
  </g>
  <g transform="matrix(.33156 0 0 -.33156 58.305 44.39)">
   <path d="m0 0c0.925-4.755 0.257-8.248-1.604-8.609-2.041-0.397-4.247 3.657-4.98 7.427-0.888 4.564 0.128 7.986 1.604 8.272 1.721 0.335 4.002-2.063 4.98-7.09" fill="#fff"/>
  </g>
  <g transform="matrix(.33156 0 0 -.33156 13.946 85.904)">
   <path d="m0 0c11.528-1.436 19.513 7.744 22.094 22.266l-1.68 18.184c-1.818 2.986-4.404 5.304-8.09 5.919-12.687 2.114-23.478-11.889-25.178-29.155 1.189-9.013 6.041-16.366 12.854-17.214" fill="#004898"/>
  </g>
  <g transform="matrix(.33156 0 0 -.33156 39.883 72.951)">
   <path d="m0 0c14.169 3.222 31.413 2.847 40.338 1.225-0.113-2.139-0.113-4.84 0-6.866 0.263-4.731 2.125-7.169 5.12-6.865 3.884 0.394 5.413 3.345 4.615 10.973-0.499 4.769 1.122 7.989 7.766 13.506 2.461 2.044 3.207 5.908 0.561 8.126-1.698 1.422-4.786 1.396-7.877-0.53-2.983-1.857-6.415-5.852-7.71-9.144-5.31 0.806-10.406 1.185-17.165 1.348-8.059-2.105-22.916-2.856-30.908-2.481 1.64-2.459 3.724-5.845 5.26-9.292" fill="#7dccf3"/>
  </g>
  <g transform="matrix(.33156 0 0 -.33156 38.531 85.947)">
   <path d="m0 0c4.147-1.907 7.252-5.062 8.41-8.647 1.259-3.897 0.218-8.301-4.284-12.155-1.463 1.463-4.614 3.601-7.09 3.995-4.36 0.694-6.539-0.848-7.107-2.841-0.773-2.71 1.123-5.58 5.7-7.626 4.783-2.138 10.032-7.355 11.086-13.28 1.16-6.525 3.942-8.969 7.203-7.991 2.813 0.844 4.276 3.264 3.714 7.991-0.454 3.814-3.602 9.932-7.034 14.856 6.753 5.571 10.54 12.239 8.666 19.808-1.35 5.453-6.804 11.898-13.294 15.236-1.657-3.228-3.473-6.397-5.97-9.346" fill="#7dccf3"/>
  </g>
  <g transform="matrix(.33156 0 0 -.33156 24.186 33.03)">
   <path d="m0 0c13.156 12.988 30.482 22.135 49.979 22.799 1.154 0.04 2.319 0.027 3.489-0.02-11.164 22.256-27.769 39.737-44.932 51.43-29.829 20.325-61.093 24.159-66.714 12.291-3.176-6.705 5.684-23.752 23.588-39.541 6.726-5.931 14.736-11.677 23.854-16.638-13.82 1.806-22.959-5.586-22.344-13.43 0.421-5.375 5.747-10.558 12.928-13.813 6.015-2.726 13.327-4.08 20.152-3.078" fill="#fff362"/>
  </g>
  <g transform="matrix(.33156 0 0 -.33156 41.914 25.478)">
   <path d="m0 0c-11.164 22.255-27.769 39.736-44.932 51.43-27.016 18.408-55.209 23.288-64.462 15.228 29.223 5.941 86.167-25.74 100.3-67.09 1.85 0.22 3.715 0.388 5.608 0.452 1.154 0.04 2.319 0.027 3.489-0.02" fill="#004898"/>
  </g>
  <g transform="matrix(.33156 0 0 -.33156 30.948 30.297)">
   <path d="m0 0c-0.232 0.437-2.639-0.575-4.326-1.998-1.097-0.925-1.537-2.452-0.733-3.297 0.656-0.689 2.002-0.428 2.932 0.472 1.821 1.763 2.465 4.186 2.127 4.823" fill="#d2ecfa"/>
  </g>
  <g transform="matrix(.33156 0 0 -.33156 31.982 14.905)">
   <path d="m 0,0 c -4.567,-8.754 -3.55,-27.952 10.787,-34.042 3.216,0.841 7.174,1.584 9.994,1.88 C 17.269,-21.82 8.176,-7.359 0,0" fill="#ded255"/>
  </g>
  <g transform="matrix(.33156 0 0 -.33156 22.27 64.723)">
   <path d="M 0,0 C -7.917,4.732 -13.68,11.111 -16.498,18.867 -12.807,1.926 -2.823,-7.328 13.777,-11.154 7.566,-8.276 3.054,-4.285 0,0" fill="#6cb2d3"/>
  </g>
  <g transform="matrix(.33156 0 0 -.33156 26.838 68.421)">
   <path d="m0 0c-1.324-1.179-2.416-2.417-3.602-3.939 0.433-6.198 5.128-11.004 11.658-13.425l11.979 14.938z" fill="#6cb2d3"/>
  </g>
  <g transform="matrix(.33156 0 0 -.33156 28.775 67.185)">
   <path d="m0 0c-7.442 1.583-14.058 4.102-19.619 7.426 3.054-4.285 7.566-8.277 13.777-11.155 5.653-1.388 11.604-2.437 16.925-3.09 0.569-0.071 0.691-0.289 0.194-0.714-4.195-3.583-7.406-8.405-9.063-13.56 8.76-3.25 20.825-2.2 30.369 5.596-0.04 0.08-0.08 0.159-0.121 0.237-1.428 2.558-2.79 4.808-4.259 6.913 34.195-1.224 66.217 11.025 77.434 31.289 0.092 0.235 0.179 0.469 0.263 0.703-18.545-23.16-61.931-32.999-105.9-23.645" fill="#b7cbcb"/>
  </g>
  <g transform="matrix(.33156 0 0 -.33156 39.805 84.187)">
   <path d="m0 0c-22.79-18.232-48.888-5.873-52.18 8.372-0.791 2.877-2.561 6.749-3.927 9.194-0.432-5.178 0.143-10.357 1.294-14.528-5.413-15.711-27.006-17.372-34.739-6.33-5.662-3.967-18.577-2.785-22.152 5.107 0.875-25.365 16.185-45.406 42.319-49 21.312-2.93 40.914 11.609 50.198 31.919 7.623 1.507 15.726 8.091 19.187 15.266" fill="#6cb2d3"/>
  </g>
  <g transform="matrix(.33156 0 0 -.33156 13.946 85.904)">
   <path d="m0 0c9.568-1.191 17.404 5.878 21.1 17.221-10.457-9.601-28.485-9.649-33.463 3.951-0.127-0.834-0.407-3.107-0.491-3.958 1.189-9.013 6.041-16.366 12.854-17.214" fill="#003c82"/>
  </g>
  <g transform="matrix(.33156 0 0 -.33156 51.263 69.228)">
   <path d="m0 0c0.145-3.097 1.535-5.468 6.941-6.543 1.66-0.33 2.283-1.374 2.213-3.129-0.104-2.675-0.016-5.395 0.286-7.688 0.473-3.567 3.672-4.458 6.242-2.098-1.416-6.189-8.975-5.979-9.545 1.573-0.21 2.78-0.367 4.668-0.263 7.92-11.643 2.15-27.849 1.573-39.859-1.259-1.626 2.99-3.934 6.975-5.874 9.44 11.119-0.524 23.286 0.158 33.042 2.571 2.202-0.21 4.405-0.473 6.817-0.787" fill="#6cb2d3"/>
  </g>
  <g transform="matrix(.33156 0 0 -.33156 41.487 89.622)">
   <path d="m0 0c1.08-3.334 5.869-5.447 10.564-2.583-1.549-4.507-4.601-8.592-8.78-11.925 2.771-4.273 6.151-10.94 6.903-14.602 0.822-4.012-0.576-7.407-3.898-8.264-2.911-0.751-5.811 1.777-6.761 6.808-1.09 5.774-4.867 11.492-10.752 14.18-5.963 2.723-7.183 5.634-6.245 8.169 1.206 3.257 7.59 4.622 14.086-1.455 2.348 1.972 4.696 5.258 4.883 9.672" fill="#6cb2d3"/>
  </g>
  <g transform="matrix(.33156 0 0 -.33156 43.548 49.764)">
   <path d="m0 0c0.038-0.822-0.52-1.365-1.164-1.369-0.658-5e-3 -1.168 0.531-1.229 1.189-0.056 0.62 0.385 1.234 1.039 1.316 0.655 0.083 1.319-0.403 1.354-1.136" fill="#0f141b"/>
  </g>
  <g transform="matrix(.33156 0 0 -.33156 49.061 49.829)">
   <path d="m0 0c-0.383-0.729-1.139-0.914-1.696-0.591-0.571 0.329-0.739 1.049-0.457 1.647 0.265 0.564 0.956 0.869 1.562 0.609s0.933-1.016 0.591-1.665" fill="#0f141b"/>
  </g>
  <g transform="matrix(.33156 0 0 -.33156 30.719 30.405)">
   <path d="m0 0" fill="#0f141b"/>
  </g>
  <g transform="matrix(.33156 0 0 -.33156 36.958 70.093)">
   <path d="m0 0c-6.304 0.534-6.2 2.064 0.119 1.759 50.082-2.423 87.959 20.402 86.902 54.446-1.308 42.137-43.029 78.219-75.552 77.095-42.869-1.461-75.482-46.239-74.208-79.723 1.034-27.168 11.564-42.17 32.415-47.682 4.096-1.083 3.762-2.454-0.408-1.707-22.384 4.011-34.291 21.826-35.335 49.283-1.33 34.952 32.011 80.813 77.476 82.363 34.972 1.256 77.62-36.251 78.968-79.635 1.122-36.177-39.67-60.492-90.377-56.199" fill="#0f141b"/>
  </g>
  <g transform="matrix(.33156 0 0 -.33156 52.608 44.456)">
   <path d="m0 0c-9.069 4.474-18.155 14.826-23.398 22.317-5.761-10.109-16.915-21.152-26.527-26.663v2.84c9.099 5.447 19.293 16.303 24.84 25.873 1.113 1.921 1.808 1.974 3.261-0.072 5.587-7.862 14.112-17.385 21.453-21.428z" fill="#0f141b"/>
  </g>
  <g transform="matrix(.33156 0 0 -.33156 27.724 54.688)">
   <path d="m0 0c0.354-4.129-1.253-7.979-4.872-10.108-4.938-2.912-12.131-0.83-16.122 5.72-3.122 5.122-3.238 12.797 2.649 16.384 2.432 1.482 5.335 1.764 8.122 0.974l0.797-2.593c-2.818 1.347-5.779 1.186-7.883-0.098-3.95-2.405-4.67-8.576-1.649-13.532 3.522-5.784 9.464-7.227 13.052-5.116 2.995 1.765 4.461 5.49 3.431 9.728z" fill="#0f141b"/>
  </g>
  <g transform="matrix(.33156 0 0 -.33156 63.086 47.974)">
   <path d="m0 0c1.105 0.667 2.332 0.986 3.631 0.89 4.691-0.381 7.666-6.766 7.134-13.356-0.666-8.242-5.167-12.085-9.199-11.773-3.547 0.288-6.546 3.942-6.932 9.98l2.362 3.069c-0.581-7.202 2.086-10.81 4.793-11.028 3.043-0.255 6.083 2.678 6.67 9.927 0.53 6.562-2.173 10.954-5 11.183-1.062 0.087-2.256-0.394-3.332-1.505z" fill="#0f141b"/>
  </g>
  <g transform="matrix(.33156 0 0 -.33156 41.438 25.49)">
   <path d="m0 0c-11.339 21.918-26.983 38.453-44.343 50.28-29.958 20.412-59.849 23.197-64.687 12.98-2.693-5.683 4.82-21.711 23.339-38.043 8.884-7.835 23.285-18.408 43.73-25.807 4.319-1.563 3.844-3.026-0.531-1.633-20.894 6.654-35.152 16.681-45.093 25.448-19.719 17.39-27.072 33.868-23.813 41.091 5.436 12.046 36.176 10.491 68.597-11.598 16.869-11.495 34.247-29.365 45.614-52.775z" fill="#0f141b"/>
  </g>
  <g transform="matrix(.33156 0 0 -.33156 38.467 25.684)">
   <path d="m0 0c-14.448 41.327-72.354 72.966-100.52 65.847l2.787 2.786c29.919 5.052 86.238-26.715 100.28-68.376z" fill="#0f141b"/>
  </g>
  <g transform="matrix(.33156 0 0 -.33156 21.279 23.44)">
   <path d="m0 0c-14.43 2.618-23.755-4.769-23.193-11.92 0.267-3.408 3.382-8.697 12.328-12.751 6.992-3.17 13.58-4.123 21.008-2.911l-2.715-2.702c-6.061-0.635-12.746 0.275-19.45 3.315-8.812 3.994-13.047 9.486-13.47 14.874-0.668 8.529 8.298 15.772 21.452 14.797z" fill="#0f141b"/>
  </g>
  <g transform="matrix(.33156 0 0 -.33156 47.619 69.41)">
   <path d="m0 0c7.94-0.081 13.54-0.471 18.847-1.253 1.023-0.151 1.352 0.041 1.86 1.125 1.364 2.912 4.105 6.193 7.044 8.022 2.751 1.714 5.174 1.855 6.575 0.681 2.131-1.785 1.476-4.781-0.547-6.46-6.795-5.643-8.689-9.194-8.142-14.414 0.833-7.959-0.626-9.501-3.595-9.8-2.521-0.255-3.717 1.877-3.936 5.81-0.097 1.75-0.128 4.209-0.061 6.215 0.045 1.336-0.282 1.582-1.382 1.773-10.111 1.758-26.992 1.694-40.357-1.347l0.915-1.993c13.153 2.932 29.174 2.82 38.69 1.291-0.081-2.036-0.159-4.184-0.057-6.029 0.299-5.389 2.628-8.278 6.36-7.9 4.146 0.424 6.511 3.248 5.578 12.155-0.432 4.123 0.465 6.828 7.379 12.569 3.331 2.769 3.516 7.385 0.634 9.801-2.362 1.976-6.134 1.554-9.244-0.384-3.208-1.998-6.29-5.783-7.715-8.933-4.108 0.601-8.738 1.012-13.211 1.181z" fill="#0f141b"/>
  </g>
  <g transform="matrix(.33156 0 0 -.33156 38.423 69.845)">
   <path d="m0 0c8.952-11.52 12.204-26.946 7.796-38.493-7.765-20.342-27.6-25.192-39.817-20.419-3.592 1.405-3.076 2.791 0.592 1.611 13.201-4.246 29.904 1.548 36.838 19.718 4.357 11.411 1.237 26.063-7.951 37.69z" fill="#0f141b"/>
  </g>
  <g transform="matrix(.33156 0 0 -.33156 26.143 69.782)">
   <path d="m0 0c-15.644-11.331-16.867-32.56-10.02-47.97 1.681-3.783 0.221-4.303-1.56-0.701-7.777 15.732-6.385 38.859 10.318 50.638z" fill="#0f141b"/>
  </g>
  <g transform="matrix(.33156 0 0 -.33156 33.889 89.126)">
   <path d="m0 0c-11.077-24.562-30.063-34.466-47.473-33.696-31.464 1.398-47.843 24.852-47.626 56.313 0.246 35.79 29.732 60.953 49.517 55.081l2.245-3.136c-19.224 8.796-49.072-17.161-49.311-51.977-0.227-32.873 17.388-52.907 45.284-54.146 17.737-0.789 34.69 10.522 44.774 30.978z" fill="#0f141b"/>
  </g>
  <g transform="matrix(.33156 0 0 -.33156 21.926 84.318)">
   <path d="m0 0c-0.535-11.413-9.812-18.797-17.344-18.973-12.215-0.25-21.158 15.957-17.908 34.698 2.135 12.307 8.743 20.99 16.056 23.783 5.892 2.251 10.447 0.771 12.515-2.226l4.516-2.237c-4.052 8.286-11.497 9.274-17.896 6.79-7.87-3.056-15.195-11.685-17.627-25.708-3.495-20.147 6.084-37.852 20.398-37.407 8.412 0.195 17.361 8.016 19.117 17.324z" fill="#0f141b"/>
  </g>
  <g transform="matrix(.33156 0 0 -.33156 40.624 82.487)">
   <path d="m0 0c6.704-3.214 12.563-9.631 14.146-16.023 1.796-7.257-1.083-14.09-8.483-20.305 2.898-4.167 6.33-10.47 6.758-14.548 0.583-5.562-1.038-8.114-4.532-9.163-3.893-1.172-7.242 1.349-8.579 8.877-1.008 5.67-5.627 10.327-10.443 12.479-5.397 2.413-7.22 5.803-6.344 8.877 0.711 2.485 3.438 4.376 8.341 3.596 2.423-0.385 5.295-2.135 6.948-3.591 3.011 2.91 4.251 6.595 3.016 10.416-1.178 3.643-3.683 6.144-7.884 8.021l1.539 1.785c4.287-1.992 7.503-5.102 8.806-9.132 1.472-4.557-0.439-9.46-4.115-12.706-1.226-1.083-1.486-1.08-2.631-0.107-1.513 1.282-4.016 2.909-6 3.225-3.916 0.621-5.438-0.529-5.879-2.077-0.497-1.743 0.368-4.259 5.035-6.346 4.915-2.195 10.572-7.444 11.759-14.117 1.139-6.41 3.576-7.745 5.814-7.076 2.207 0.663 3.399 2.367 2.889 6.853-0.387 3.4-3.288 9.188-6.36 13.781-0.767 1.146-0.668 1.51 0.27 2.319 6.769 5.831 9.16 12.061 7.596 18.379-1.361 5.5-6.651 11.371-12.71 14.521z" fill="#0f141b"/>
  </g>
  <g transform="matrix(.33156 0 0 -.33156 29.17 45.851)">
   <path d="m0 0c-0.134-4.395 1.105-7.086 2.412-7.127 1.15-0.105 2.683 2.003 2.833 6.99 0.134 4.415-1.188 7.118-2.412 7.155-1.662 0-2.708-2.863-2.833-7.018m7.091-0.219c-0.195-6.463-2.808-8.733-4.715-8.635-2.701 0.079-4.365 3.893-4.212 8.937 0.171 5.641 2.326 8.764 4.732 8.643 2.453-0.074 4.351-3.794 4.195-8.945" fill="#0f141b"/>
  </g>
  <g transform="matrix(.33156 0 0 -.33156 27.471 45.66)">
   <path d="m0 0c-0.521-9.906 2.922-17.333 7.332-17.564 3.082-0.181 8.383 3.863 9.06 16.7 0.642 12.205-3.786 17.359-7.265 17.542-4.083 0.201-8.545-5.657-9.127-16.678m18.852-0.982c-0.727-13.798-7.47-18.82-11.664-18.55-6.242 0.402-10.191 9.8-9.67 19.68 0.565 10.727 5.461 18.83 11.728 18.521 6.524-0.344 10.139-9.539 9.606-19.651" fill="#0f141b"/>
  </g>
  <g transform="matrix(.33156 0 0 -.33156 24.223 45.424)">
   <path d="m0 0c-0.769-17.003 6.022-27.654 16.422-28.279 9.387-0.561 17.345 10.786 17.891 27.007 0.582 17.296-7.692 28.649-15.899 28.922-8.311 0.281-17.625-10.206-18.414-27.65m37.069-1.469c-0.573-17.033-9.817-29.801-20.809-29.093-12.479 0.749-19.765 12.813-18.955 30.713 0.836 18.474 11.21 30.251 21.15 29.852 10.19-0.335 19.229-13.224 18.614-31.472" fill="#0f141b"/>
  </g>
  <g transform="matrix(.33156 0 0 -.33156 58.002 44.444)">
   <path d="m0 0c-1.05 5.4-2.93 6.632-3.887 6.398-1.002-0.245-1.73-2.827-0.869-7.256 0.881-4.528 2.731-6.975 3.899-6.737 1.273 0.247 1.759 2.96 0.857 7.595m-6.578-1.197c-1.033 5.315 0.255 8.893 2.342 9.3 2.294 0.441 4.959-2.105 6.058-7.753 1.207-6.214-0.277-9.241-2.33-9.64-2.675-0.527-5.162 3.423-6.07 8.093" fill="#0f141b"/>
  </g>
  <g transform="matrix(.33156 0 0 -.33156 56.049 39.342)">
   <path d="m0 0c-4.03-0.946-5.708-8.297-3.54-17.538 2.459-10.479 7.331-15.051 11.129-14.157 3.349 0.786 6.247 6.386 3.583 17.74-2.639 11.24-8.101 14.67-11.172 13.955m13.569-13.456c2.429-10.348 0.024-18.872-5.508-20.171-6.15-1.448-11.722 5.7-14.046 15.605-2.301 9.801-0.252 18.606 5.536 19.965 4.666 1.113 11.248-3.59 14.018-15.399" fill="#0f141b"/>
  </g>
  <g transform="matrix(.33156 0 0 -.33156 62.133 43.215)">
   <path d="m0 0c-4.412 16.672-13.47 23.734-19.681 22.089-6.642-1.757-11.061-13.562-6.787-29.714 3.856-14.564 13.138-23.633 20.162-21.775 6.116 1.618 10.64 13.025 6.306 29.4m2.686 0.608c4.067-15.369 0.39-29.89-8.473-32.235-8.697-2.307-19.314 8.233-23.334 23.429-4.078 15.407-0.443 30.111 8.881 32.577 7.912 2.1 18.185-5.861 22.926-23.771" fill="#0f141b"/>
  </g>
  <g transform="matrix(.33156 0 0 -.33156 21.255 80.149)">
   <path d="m0 0c-1.807-6.464-4.715-11.391-9.009-14.651-3.56-2.703-4.735-1.605-1.115 1.4 4.818 3.999 7.958 10.644 9.333 19.422z" fill="#0f141b"/>
  </g>
  <g transform="matrix(.33156 0 0 -.33156 27.211 71.108)">
   <path d="m0 0c-9.75 13.31-24.141 27.461-31.625 31.119-2.532-2.758-5.346-4.727-8.666-6.078-4.515-1.836-7.653 0.113-8.497 3.208-0.776 2.846 0.367 5.345 6.302 8.272 5.779 2.85 8.048 6.021 3.827 16.826-1.669 4.273-1.183 7.408 1.299 9.437 1.935 1.584 4.78 1.475 6.748-0.715 3.489-3.883 5.402-10.917 5.161-19.033 11.228-9.726 24.071-22.577 33.399-37.261 4.988-7.852-2.823-12.771-7.948-5.775" fill="#7dccf3"/>
  </g>
  <g transform="matrix(.33156 0 0 -.33156 22.174 80.642)">
   <path d="m0 0c-2.124 7.657-7.766 13.562-10.523 13.281-2.757-0.282-5.29-5.74-4.953-10.636 3.377-3.264 6.191-8.047 6.416-12.099 0.182-3.273-0.975-5.07-2.755-5.786-2.355-0.947-5.036 0.211-6.586 3.198-3.549 6.834-6.296 8.3-16.826 7.822-5.087-0.232-7.765 1.181-8.571 3.631-0.72 2.189 0.186 4.744 2.438 6.273 3.58 2.432 9.602 3.018 16.431 1.35 0.394 10.073 5.464 19.289 13.224 20.033 5.681 0.545 13.333-5.215 17.839-17.444 3.137-8.514-3.837-17.903-6.134-9.623" fill="#7dccf3"/>
  </g>
  <g transform="matrix(.33156 0 0 -.33156 11.268 60.352)">
   <path d="m0 0c-0.046-3.787 3.375-4.797 6.331-3.574 2.264 0.937 4.951 2.926 7.759 5.572 1.386 1.306 2.083 1.486 3.857 0.45 6.56-3.827 16.506-12.865 23.611-21.103 2.307-2.677 5.797-3.367 10.015-1.758 2.08-2.415 3.824-4.629 5.77-7.514 3.776-5.6-4.186-12.52-8.655-5.971-8.789 12.881-24.353 28.446-31.934 32.606-3.02-2.684-6.441-5.032-9.325-6.105-5.035-1.874-10.601 1.408-7.429 7.397" fill="#6cb2d3"/>
  </g>
  <g transform="matrix(.33156 0 0 -.33156 18.227 76.399)">
   <path d="m0 0c-3.998-0.193-8.898 2.837-9.479 7.286-1.87-3.869-3.289-7.995-3.546-12.831-4.321 0.902-10.188 1.031-14.573-0.516-3.49-1.232-4.86-3.488-4.513-6.19 0.322-2.515 3.159-5.159 9.285-4.707 9.376 0.69 13.53-1.9 16.12-7.287 1.612-3.353 4.256-4.772 6.835-3.675 4.739 2.014 3.445 10.74-3.547 17.732-0.063 3.16 0.323 7.931 3.418 10.188" fill="#6cb2d3"/>
  </g>
  <g transform="matrix(.33156 0 0 -.33156 26.983 71.275)">
   <path d="m0 0c-9.646 12.713-23.193 26.177-30.714 30.269-2.496-2.609-5.307-4.459-8.556-5.781-5.599-2.28-9.001 0.627-9.907 3.948-0.937 3.437 0.452 6.365 6.884 9.537 5.107 2.519 7.399 5 3.308 15.476-1.846 4.724-1.35 8.308 1.596 10.718 2.344 1.92 5.868 1.824 8.24-0.815 3.888-4.328 5.663-11.713 5.493-19.349 9.4-8.172 22.635-21.216 32.997-37.235 2.436-3.767 1.094-4.663-1.406-0.938-10.293 15.336-23.418 28.171-32.724 36.309-0.994 0.87-1.044 1.164-1.035 2.27 0.059 7.234-1.63 13.713-4.955 17.413-1.584 1.762-3.692 1.86-5.203 0.626-2.533-2.073-2.217-5.039-0.971-8.228 4.326-11.074 2.105-14.957-4.414-18.173-5.94-2.927-6.184-5.207-5.681-7.049 0.649-2.377 3.071-4.046 7.094-2.409 2.983 1.214 5.55 3.062 7.856 5.452 0.845 0.875 1.197 0.87 2.352 0.226 7.788-4.347 21.552-18.033 31.117-31.249 2.727-3.769 1.339-4.59-1.371-1.018" fill="#0f141b"/>
  </g>
  <g transform="matrix(.33156 0 0 -.33156 18.725 76.624)">
   <path d="m0 0c-2.001-0.101-4.224-4.824-4.035-9.001 3.473-3.442 6.205-8.211 6.442-12.504 0.212-3.81-0.936-5.869-3.384-6.854-3.063-1.233-6.061 0.036-7.979 3.731-3.205 6.171-5.251 7.672-15.87 7.19-6.527-0.301-8.893 2.039-9.668 4.404-0.9 2.731 0.055 5.616 2.978 7.601 3.273 2.224 9.04 3.137 16.044 1.606 0.644 9.407 5.435 19.098 14.13 19.932 6.648 0.634 14.032-6.396 18.669-18.274 1.269-3.251-0.198-3.814-1.604-0.62-5.37 12.199-12.162 17.024-16.944 16.557-7.147-0.685-11.662-9.459-12.277-18.3-0.107-1.537-0.616-1.69-2.023-1.386-6.619 1.427-11.68 0.66-14.78-1.446-2.107-1.431-2.551-3.522-2.088-4.93 0.609-1.851 2.911-3.174 7.532-2.951 10.661 0.486 14.032-1.189 17.799-8.444 1.216-2.342 3.078-3.515 5.284-2.622 1.464 0.589 2.205 1.715 2.037 4.742-0.186 3.339-2.238 7.516-5.544 10.788-0.764 0.756-0.899 1.106-0.897 1.963 9e-3 4.956 2.351 10.761 5.964 11.13 3.285 0.322 9.337-6.063 11.44-14.173 1.05-4.053-0.412-4.507-1.653-0.509-2.565 8.267-7.662 12.467-9.573 12.37" fill="#0f141b"/>
  </g>
  <g transform="matrix(.33156 0 0 -.33156 30.169 58.841)">
   <path d="m0 0c13.054-6.863 27.743-9.493 47.364-8.513 15.918 0.795 31.892 7.62 39.418 14.248 3.787 3.335 4.875 2.264 1.269-1.209-7.597-7.316-24.071-14.929-40.629-15.756-17.714-0.884-34.721 2.138-48.227 9.566-4.057 2.231-3.263 3.803 0.805 1.664" fill="#0f141b"/>
  </g>
 </g>
</svg>
