<?xml version="1.0" encoding="UTF-8"?>
<!-- Created with Inkscape (http://www.inkscape.org/) -->
<svg version="1.1" viewBox="0 0 128.81 185.6" xmlns="http://www.w3.org/2000/svg">
 <g transform="translate(-47.94 -47.822)">
  <g transform="matrix(1.2112 0 0 -1.2112 129.46 189.53)">
   <path d="m0 0-48.223 33.675c-10.815-1.818-18.281-15.677-17.779-28.567 0.656-16.851 12.939-34.163 39.801-33.839 7.041-5.883 28.752 1.015 31.331 12.492 1.185 5.273-0.016 11.525-5.13 16.239" fill="#7ecef4"/>
  </g>
  <g transform="matrix(1.2112 0 0 -1.2112 124.28 190.13)">
   <path d="m0 0c20.079 1.433 38.479 14.941 41.61 26.818 6.433 24.396-26.403 49.162-50.679 44.403-21.047-4.127-39.564-29.249-34.136-49.072 3.287-12.003 14.61-21.105 33.187-22.174 3.677-0.212 5.858-0.272 10.018 0.025" fill="#7ecef4"/>
  </g>
  <g transform="matrix(1.2112 0 0 -1.2112 114.49 190.49)">
   <path d="m0 0c-3.63-2.531-5.248-7.321-4.829-11.04 0.724-6.424 5.227-10.792 10.487-10.093 4.472 0.594 8.741 4.054 9.608 10.516 0.501 3.739-0.471 7.869-3.386 11.333 15.802 2.32 29.981 11.765 35.655 21.389 1.653 2.944-0.077 5.312-1.809 5.594l-24.291 18.368c-4.811 1.6-11.262 6.787-14.161 10.731-1.618-6.503-5.721-13.912-10.971-15.842l-18.202-23.466c-2.93-1.903-4.498-8.388-0.449-11.386l0.067-0.125c5.315-3.181 12.119-5.235 20.351-5.709 0.678-0.039 1.285-0.082 1.883-0.105 0.173-7e-3 0.193-0.063 0.047-0.165" fill="#d4ecea"/>
  </g>
  <g transform="matrix(1.2112 0 0 -1.2112 94.163 160.15)">
   <path d="m0 0c2.605-2.624 2.879-6.074 1.264-7.679-1.843-1.83-5.235-1.307-7.751 1.227-2.424 2.439-2.849 6.206-1.252 7.792 1.538 1.528 4.908 1.51 7.739-1.34" fill="#004898"/>
  </g>
  <g transform="matrix(1.2112 0 0 -1.2112 172.4 151.85)">
   <path d="m0 0c-0.729-3.862-3.112-5.764-5.346-5.411-2.353 0.371-3.799 3.351-3.095 7.08 0.686 3.642 3.044 5.48 5.38 5.04 2.204-0.415 3.707-3.281 3.061-6.709" fill="#004898"/>
  </g>
  <g transform="matrix(1.2112 0 0 -1.2112 94.415 186.57)">
   <path d="m0 0c-2.241-2.835-5.025-4.413-7.941-4.876-5.111-0.811-10.621 1.81-14.325 7.098-1.18 6.118 0.484 12.105 4.502 14.503 1.981-5.901 7.975-13.03 17.764-16.725" fill="#004898"/>
  </g>
  <g transform="matrix(1.2112 0 0 -1.2112 87.883 117.96)">
   <path d="m0 0c6.833 6.666 14.873 10.918 23.005 11.958-3.281 12.474-9.766 22.403-17.195 29.74-14.72 14.538-33.106 18.928-37.422 12.917-1.949-2.714 0.581-11.325 7.297-20.735 4.238-5.94 10.145-12.197 17.645-17.491-7.308 2.274-12.937 0.146-13.718-3.594-0.73-3.493 2.479-7.178 7.467-9.694 3.639-1.837 8.227-3.037 12.921-3.101" fill="#fff462"/>
  </g>
  <g transform="matrix(1.2112 0 0 -1.2112 115.75 103.48)">
   <path d="m0 0c-3.281 12.474-9.766 22.403-17.195 29.74-11.226 11.088-24.577 16.265-32.201 15.436 17.6-0.831 38.552-20.465 44.44-46.214 1.643 0.473 3.297 0.826 4.956 1.038" fill="#004898"/>
  </g>
  <g transform="matrix(1.2112 0 0 -1.2112 133.25 214.44)">
   <path d="m0 0c2.899 1.624 5.188 1.17 5.671 0.075 0.68-1.539-0.95-4.128-4.058-7.096-1.948 0.046-3.734-0.162-5.473-0.556-1.887-0.428-2.361-1.27-2.249-2.343 0.122-1.175 0.752-1.88 3.78-1.692 3.496 0.216 6.778-0.423 9.206-1.508 2.712-1.211 5.079-1.229 5.844 0.023 0.644 1.053 0.126 2.555-1.391 3.595-1.451 0.994-3.525 1.763-5.798 1.856l0.325-0.326c2.597 2.227 5.148 5.705 4.986 8.951-0.089 1.775-1.216 3.557-2.642 4.664-1.52-0.858-4.249-1.5-6.335-1.598-0.331-1.229-1.003-2.709-1.866-4.045" fill="#7ecef4"/>
  </g>
  <g transform="matrix(1.2112 0 0 -1.2112 99.83 229.04)">
   <path d="m0 0c-1.027-0.675-2.418-0.641-4.155-0.151-2.196 0.619-5.465-0.145-7.885-1.515-3.302-1.87-5.813-1.701-6.623-0.199-0.724 1.343-0.441 2.993 1.707 4.497 1.461 1.022 4.284 1.674 6.122 1.453-4.36 4.916-5.426 12.658-2.597 14.687 2.19 1.572 6.277 1.454 10.265-2.256 2.222-2.068 2.199-7.269-0.34-5.443-2.927 2.106-4.857 2.455-5.658 1.7-0.945-0.889 0.958-5.07 4.143-8.1 0.905 0 1.826-0.087 2.779-0.314 0.625-0.607 1.587-1.338 2.318-1.63-0.418-0.858-0.382-1.967-0.076-2.729" fill="#7ecef4"/>
  </g>
  <g transform="matrix(1.2112 0 0 -1.2112 99.399 113.25)">
   <path d="m0 0c-0.248 0.187-1.674-0.428-2.588-1.435-0.55-0.606-0.651-1.516-0.175-1.933 0.452-0.398 1.157-0.214 1.659 0.293 1.032 1.04 1.445 2.815 1.104 3.075" fill="#d3edfb"/>
  </g>
  <g transform="matrix(1.2112 0 0 -1.2112 97.581 76.915)">
   <path d="m0 0c-3.534-4.84-3.803-19.244 2.535-26.158 2.19 1.383 4.955 2.535 7.414 3.226-0.807 5.877-5.609 17.17-9.949 22.932" fill="#dfd355"/>
  </g>
  <g transform="matrix(1.2112 0 0 -1.2112 132.84 197.96)">
   <path d="m0 0c0.471 0.27 0.917 0.561 1.333 0.875-0.851 2.134-1.84 3.989-3.927 6.122-0.222-0.038-0.451-0.071-0.677-0.107-1e-3 -3e-3 -3e-3 -5e-3 -5e-3 -8e-3 1.788-2.125 2.842-4.5 3.276-6.882" fill="#6db3d4"/>
  </g>
  <g transform="matrix(1.2112 0 0 -1.2112 88.731 213.57)">
   <path d="m0 0c0.801 0.855 2.96 0.17 5.658-1.7 3.099-2.15 2.492 3.486 0.341 5.442-4.615 4.195-8.975 3.803-10.923 1.762-1.948-2.04-0.626-9.322 2.572-13.527-12.707 1.421-25.333 10.439-29.311 26.143 3.288-6.582 14.362-6.86 18.87-3.465 6.456-3.673 19.144-1.113 20.925 6.573 4.785-1.137 9.225-1.763 13.311-1.988 0.023-0.019 0.046-0.03 0.068-0.031l-0.013-1e-3c-2.386-1.563-3.941-4.089-4.661-6.692-1.701 0.827-3.179 1.908-4.283 3.254-9.57-19.357 15.197-30.813 26.467-8.967-0.887-17.719-28.795-20.878-32.25-15.12l-2.554 0.291c-2.81 2.723-5.485 6.673-4.217 8.026" fill="#6db3d4"/>
  </g>
  <g transform="matrix(1.2112 0 0 -1.2112 173.24 161.62)">
   <path d="m0 0c-16.331-18.534-52.527-27.81-73.283-12.192-0.094-2.062 0.573-4.167 2.428-5.54h-0.014c6.284-3.839 14.095-5.684 22.315-5.94 0.173-5e-3 0.193-0.063 0.047-0.165-2.255-1.572-3.732-4.017-4.428-6.535 5.83-2.835 14.308-2.652 19.584 0.369-0.421 2.314-1.434 4.618-3.129 6.696 10.738 1.693 29.658 9.141 36.48 23.307" fill="#b7cccb"/>
  </g>
  <g transform="matrix(1.2112 0 0 -1.2112 84.478 176.39)">
   <path d="m0 0c-4.592 3.456-8.433 8.123-11.13 14.187 1.834-9.215 6.813-15.616 13.545-19.727h0.013c-1.855 1.373-2.522 3.478-2.428 5.54" fill="#6db3d4"/>
  </g>
  <g transform="matrix(1.2112 0 0 -1.2112 94.415 186.57)">
   <path d="m0 0c-1.581 0.597-3.051 1.29-4.433 2.046-5.05-3.794-13.571-3.202-18.026 1.368 0.053-0.396 0.117-0.794 0.193-1.192 3.704-5.288 9.214-7.909 14.325-7.098 2.916 0.463 5.7 2.041 7.941 4.876" fill="#003b83"/>
  </g>
  <g transform="matrix(1.2112 0 0 -1.2112 94.601 207.65)">
   <path d="m0 0c0.428-0.314 0.855-0.669 1.281-1.064 2.619-2.436 2.57-7.863-0.413-5.717-2.927 2.105-4.913 2.653-5.715 1.898-0.945-0.889 0.959-5.07 4.143-8.1 0.905 0 1.827-0.087 2.779-0.314 0.626-0.607 1.587-1.339 2.319-1.631-0.418-0.857-0.382-1.967-0.077-2.728-1.026-0.675-2.418-0.641-4.155-0.152-2.195 0.62-5.464-0.144-7.885-1.514-3.301-1.87-5.813-1.701-6.623-0.199-0.724 1.342-0.441 2.993 1.707 4.497 1.461 1.022 4.284 1.673 6.122 1.453-3.347 3.775-4.143 7.361-4.143 11.317 1.422-1.979 6.957-1.052 10.66 2.254" fill="#6db3d4"/>
  </g>
  <g transform="matrix(1.2112 0 0 -1.2112 141.67 208.22)">
   <path d="m0 0c-0.928-2.11 0.232-6.284 3.024-7.885-1.053-1.948-1.864-2.898-3.581-4.754 2.026-0.525 4.685-1.514 5.705-2.659 1.953-2.189 0.661-5.177-4.452-3.216-4.113 1.577-7.056 1.804-10.05 1.609-4.73-0.31-4.644 3.447-1.7 4.142 1.7 0.403 3.34 0.65 5.596 0.619 2.413 2.04 4.85 5.486 4.144 6.926-0.75 1.53-2.566 1.423-5.318 0.495 0.997 1.337 1.321 2.682 1.53 3.749 1.763 0.093 3.502 0.371 5.102 0.974" fill="#6db3d4"/>
  </g>
  <g transform="matrix(1.2112 0 0 -1.2112 136.89 153.47)">
   <path d="m0 0c0.104-0.439-0.142-0.789-0.489-0.857-0.355-0.07-0.685 0.168-0.784 0.517-0.094 0.329 0.082 0.705 0.427 0.817 0.345 0.11 0.753-0.084 0.846-0.477" fill="#0d131a"/>
  </g>
  <g transform="matrix(1.2112 0 0 -1.2112 125.81 154.87)">
   <path d="m0 0c0.153-0.426-0.051-0.801-0.389-0.908-0.345-0.109-0.699 0.09-0.838 0.426-0.13 0.316 2e-3 0.71 0.332 0.859s0.758 2e-3 0.895-0.377" fill="#0d131a"/>
  </g>
  <g transform="matrix(1.2112 0 0 -1.2112 140.71 135.6)">
   <path d="m0 0c-5 1.526-11.028 6.265-14.076 10.043-1.734-6.222-5.816-13.226-11.132-15.054l-0.313 1.284c4.714 1.727 8.652 8.485 10.337 14.691 0.419 1.541 0.706 1.703 1.821 0.282 3.342-4.257 8.863-8.21 12.94-9.727z" fill="#0d131a"/>
  </g>
  <g transform="matrix(1.2112 0 0 -1.2112 96.925 162.95)">
   <path d="m0 0c0.886-2.132 0.736-4.394-0.636-5.756-1.828-1.815-5.604-1.824-8.588 1.18-2.6 2.617-3.049 6.775-1.195 8.615 0.927 0.921 2.355 1.317 3.91 1.122l0.563-1.242c-1.586 0.458-2.94 0.071-3.668-0.652-1.158-1.15-1.247-4.444 1.282-6.991 2.41-2.426 5.394-2.78 6.925-1.259 0.973 0.966 1.275 3.146-0.155 5.409z" fill="#0d131a"/>
  </g>
  <g transform="matrix(1.2112 0 0 -1.2112 162.8 150.5)">
   <path d="m0 0c-0.532-3.603 0.967-5.712 2.659-5.979 1.68-0.262 3.904 1.058 4.646 4.986 0.61 3.231-0.749 5.716-2.565 6.058-0.718 0.135-1.567-0.026-2.353-0.558l-0.043 1.372c0.784 0.337 1.663 0.438 2.606 0.261 2.636-0.497 4.244-3.796 3.565-7.395-0.8-4.243-3.605-6.212-6.038-5.828-2.399 0.379-3.914 2.977-3.787 6.23z" fill="#0d131a"/>
  </g>
  <g transform="matrix(1.2112 0 0 -1.2112 112.11 190.74)">
   <path d="m0 0c-17.55 0.588-30.43 9.135-34.067 22.421-5.524 20.174 13.342 45.767 34.873 49.988 24.7 4.843 58.326-20.279 51.724-45.32-3.181-12.065-21.51-26.118-42.435-27.063-2.778-0.125-2.848 0.702-0.07 0.961 20.325 1.898 37.783 15.43 40.732 26.611 6.261 23.749-25.972 48.092-49.619 43.455-20.54-4.028-38.682-29.003-33.428-48.195 3.298-12.045 14.788-20.26 32.353-21.895 2.31-0.215 2.241-1.04-0.063-0.963" fill="#0d131a"/>
  </g>
  <g transform="matrix(1.2112 0 0 -1.2112 114.89 103.61)">
   <path d="m0 0c-3.031 11.053-8.835 21.149-17.075 29.288-15.279 15.09-32.691 18.039-36.231 13.108-1.521-2.119 0.139-9.913 7.291-19.934 4.194-5.877 11.361-14.002 22.761-21.035 2.224-1.372 1.822-2.075-0.47-0.82-11.661 6.391-19.266 15.006-23.508 20.951-6.302 8.83-9.677 18.259-7.258 21.629 4.475 6.231 23.107 2.46 38.497-12.741 8.358-8.255 14.4-18.791 17.36-30.231z" fill="#0d131a"/>
  </g>
  <g transform="matrix(1.2112 0 0 -1.2112 59.433 48.376)">
   <path d="m0 0c17.386-2.59 36.68-21.746 42.222-46.473l-1.337-0.301c-6.199 26.884-28.693 46.652-46.346 45.866z" fill="#0d131a"/>
  </g>
  <g transform="matrix(1.2112 0 0 -1.2112 87.063 118.76)">
   <path d="m0 0c-3.805 0.113-8.094 0.836-12.623 3.121-6.017 3.037-8.455 6.898-7.71 10.469 0.798 3.827 5.835 6.225 13.298 4.361l2.409-2.009c-7.81 2.954-13.778 0.682-14.467-2.614-0.515-2.472 1.366-5.982 7.212-8.932 4.047-2.043 8.295-3.108 13.202-3.106z" fill="#0d131a"/>
  </g>
  <g transform="matrix(1.2112 0 0 -1.2112 136.51 209.34)">
   <path d="m0 0c-1.862-8.287-12.979-14.297-22.472-15.122-6.483-0.566-10.432 1.393-11.677 4.851-0.698 1.94-0.014 2.225 0.871 0.362 1.298-2.731 4.728-4.374 10.754-3.852 8.255 0.719 18.968 6.007 21.033 13.6z" fill="#0d131a"/>
  </g>
  <g transform="matrix(1.2112 0 0 -1.2112 97.808 224.64)">
   <path d="m0 0c-1.009 0.29-1.85 0.373-2.92 0.44-0.584 0.037-0.765 0.1-1.123 0.447-3.597 3.482-5.113 7.559-3.891 8.711 1.075 1.009 3.644 0.421 6.517-1.888 1.681-1.352 1.203-2.014-0.559-0.769-2.662 1.883-4.448 2.33-5.069 1.747-0.496-0.469 0.656-3.841 3.92-7.041 0.781-0.024 1.363-0.091 2.016-0.211z" fill="#0d131a"/>
  </g>
  <g transform="matrix(1.2112 0 0 -1.2112 100.22 229.62)">
   <path d="m0 0c-1.065-0.713-2.496-0.834-4.674-0.222-1.945 0.549-4.848-0.033-7.421-1.489-3.579-2.027-6.463-1.777-7.432 0.024-0.806 1.494-0.607 3.567 1.845 5.283 1.376 0.964 3.222 1.587 5.192 1.625-3.756 4.693-4.908 12.216-1.658 14.546 2.346 1.682 6.572 1.548 10.608-2.214 1.482-1.383 0.916-2.005-0.636-0.702-3.791 3.184-7.413 3.182-9.221 1.885-1.992-1.429-1.842-8.003 2.22-13.201 0.984-1.26 0.715-1.568-0.775-1.536-1.747 0.038-3.718-0.517-4.989-1.406-1.908-1.336-2.106-2.592-1.51-3.698 0.505-0.937 2.513-1.425 5.821 0.447 2.528 1.433 5.728 2.231 8.288 1.554 1.88-0.498 3.041-0.353 3.777 0.146z" fill="#0d131a"/>
  </g>
  <g transform="matrix(1.2112 0 0 -1.2112 141.4 223.12)">
   <path d="m0 0c1.805-0.238 3.616-0.909 5.002-1.86 1.93-1.324 2.222-3.232 1.49-4.43-0.931-1.523-3.595-1.544-6.584-0.21-2.537 1.133-5.6 1.661-8.937 1.472-3.302-0.188-4.255 0.675-4.415 2.215-0.145 1.4 0.586 2.477 2.72 2.96 1.82 0.413 3.501 0.58 5.376 0.594 3.055 2.947 4.12 5.124 3.648 6.196-0.378 0.857-2.498 1.197-5.59-0.845l1.082 2.031c2.565 1.189 5.089 0.979 5.791-0.613 0.789-1.787-0.877-4.583-4.069-7.594-0.315-0.297-0.47-0.371-0.905-0.368-1.791 0.013-3.366-0.147-5.069-0.532-1.597-0.362-1.86-0.885-1.774-1.723 0.094-0.887 0.514-1.243 3.142-1.143 3.663 0.14 6.848-0.39 9.507-1.577 2.529-1.13 4.523-1.07 5.06-0.192 0.368 0.602 0.27 1.726-1.254 2.772-1.461 1.002-3.203 1.579-5.286 1.782z" fill="#0d131a"/>
  </g>
  <g transform="matrix(1.2112 0 0 -1.2112 143.95 207.23)">
   <path d="m0 0c1.559-1.292 2.585-3.086 2.68-4.987 0.173-3.459-2.539-7.148-5.382-9.253-1.167-0.864-1.683-0.452-0.548 0.638 2.394 2.302 4.684 5.494 4.526 8.649-0.072 1.443-0.996 3.23-2.58 4.33z" fill="#0d131a"/>
  </g>
  <g transform="matrix(1.2112 0 0 -1.2112 71.129 149.55)">
   <path d="m0 0c-10.792-1.896-17.64-16.016-17.176-27.891 0.67-17.219 12.723-29.632 29.566-32.63l-0.346-1.171c-17.734 2.87-29.877 16.032-30.567 33.776-0.49 12.555 6.71 27.473 18.718 29.261z" fill="#0d131a"/>
  </g>
  <g transform="matrix(1.2112 0 0 -1.2112 109.18 189.9)">
   <path d="m0 0c-4.58-2.188-8.399-5.415-11.398-9.364-0.309-0.407-0.449-0.506-0.938-0.607-10.58-2.18-21.683 3.254-23.128 16.95-0.568 5.371 1.385 10.865 5.288 13.168l0.546-1.261c-3.081-1.827-5.029-6.468-4.466-11.797 1.367-12.934 11.763-17.85 21.631-15.863 2.829 3.874 6.725 7.074 10.212 9.065z" fill="#0d131a"/>
  </g>
  <g transform="matrix(1.2112 0 0 -1.2112 95.135 186.73)">
   <path d="m0 0c-2.234-3.002-5.144-4.787-8.465-5.218-2.501-0.324-2.603 0.514-0.149 0.965 2.96 0.544 5.348 2.064 7.499 4.672z" fill="#0d131a"/>
  </g>
  <g transform="matrix(1.2112 0 0 -1.2112 106.78 198.55)">
   <path d="m0 0c-3.309-2.876-3.587-9.245 3.123-16.944 2.071-0.433 4.379-1.586 5.535-3.062 0.871-1.113 0.896-2.231 0.224-2.845-0.674-0.613-1.752-0.715-3.286 0.093-2.578 1.361-4.821 0.503-6.648-1.762-1.604-1.99-2.939-2.316-4.118-1.371-0.929 0.745-1.232 2.403 0.099 4.494 0.649 1.02 1.484 2.165 2.412 3.185-5.597 8.72-7.112 16.295-0.217 21.274z" fill="#7ecef4"/>
  </g>
  <g transform="matrix(1.2112 0 0 -1.2112 134.86 197.23)">
   <path d="m0 0c2.309-0.728 4.17-2.271 3.997-3.292-0.141-0.834-2.923-1.585-5.744-1.344-1.436 2.271-3.775 3.776-6.346 3.799-1.312 0.012-1.899-0.506-2.049-1.373-0.147-0.857 0.366-1.849 1.702-2.472 2.716-1.268 3.425-4.113 2.13-7.133-0.879-2.051-0.523-3.519 0.44-3.914 0.788-0.325 1.695-0.053 2.71 1.389 0.88 1.25 1.529 2.594 2.061 4.146 6.904 0.17 10.543 2.247 10.91 5.095 0.625 4.861-6.66 10.312-14.043 11.377 1.704-1.77 3.204-3.829 4.232-6.278" fill="#7ecef4"/>
  </g>
  <g transform="matrix(1.2112 0 0 -1.2112 103.45 194.72)">
   <path d="m0 0c2.623 1.768 5.708-0.907 2.886-3.209-1.856-1.513-2.739-4.275-2.309-7.016-1.449 2.038-4.031 2.356-5.379 1.545 0.393 4.294 1.959 6.765 4.802 8.68" fill="#6db3d4"/>
  </g>
  <g transform="matrix(1.2112 0 0 -1.2112 100.42 225.66)">
   <path d="m0 0c-0.044-1.812 1.305-2.824 2.761-0.994 2.408 3.026 6.073 3.486 8.218 2.32 1.26-0.685 2.607-0.486 2.873 1.016 1.833-2.496-0.42-4.11-3.093-2.652-2.674 1.459-4.92 0.331-6.429-1.589-2.916-3.712-6.053-1.857-4.33 1.899" fill="#6db3d4"/>
  </g>
  <g transform="matrix(1.2112 0 0 -1.2112 139.67 200.33)">
   <path d="m0 0c-0.081 1.563 1.157 3.187 3.146 3.572-2.882 2.477-7.713 4.812-11.245 5.258 1.522-1.603 3.451-4.364 4.12-6.374 1.563-0.183 3.512-1.299 3.979-2.456" fill="#6db3d4"/>
  </g>
  <g transform="matrix(1.2112 0 0 -1.2112 127.04 212.82)">
   <path d="m0 0c-0.031-1.469 1.072-1.753 1.963-0.426 0.873 1.3 1.389 2.6 1.815 4.116 0.185 0.659 0.531 0.883 1.332 0.854 5.41-0.197 10.144 1.387 10.876 4.546 0.981-3.602-3.494-6.408-10.683-6.361-0.65-1.856-1.461-3.526-2.644-4.917-1.363-1.603-3.518-0.732-2.659 2.188" fill="#6db3d4"/>
  </g>
  <g transform="matrix(1.2112 0 0 -1.2112 135.29 202.86)">
   <path d="m0 0c-0.33 4.094-2.224 7.89-5.528 10.965l1.315 0.19c3.178-2.865 5.096-6.732 5.543-10.838z" fill="#0d131a"/>
  </g>
  <g transform="matrix(1.2112 0 0 -1.2112 131.25 189.19)">
   <path d="m0 0c6.955-1.365 14.082-6.641 13.415-11.83-0.429-3.331-4.577-5.359-11.12-5.573-0.549-1.534-1.142-2.789-1.967-3.961-1.254-1.782-2.612-1.926-3.474-1.572-1.273 0.525-1.75 2.383-0.751 4.715 1.142 2.664 0.662 5.209-1.822 6.367-1.881 0.878-2.198 2.167-2.037 3.103 0.192 1.128 1.082 1.882 2.677 1.88 2.563-0.024 5.074-1.494 6.647-3.865 2.867-0.194 4.709 0.412 4.819 0.925 0.102 0.602-1.029 1.782-3.241 2.474l-0.437 1.392c2.78-0.76 5.175-2.588 4.916-4.114-0.225-1.328-3.596-1.969-6.119-1.845-0.545 0.027-0.631 0.089-0.923 0.516-1.404 2.052-3.409 3.28-5.703 3.3-0.998 0-1.36-0.359-1.448-0.872-0.106-0.617 0.305-1.338 1.367-1.834 2.85-1.33 3.845-4.551 2.415-7.887-0.773-1.804-0.582-2.836 0.134-3.131 0.509-0.209 1.083-0.068 1.962 1.181 0.777 1.104 1.418 2.35 1.943 3.809 0.174 0.482 0.322 0.558 0.937 0.581 5.949 0.22 9.572 1.855 9.95 4.593 0.637 4.606-7.109 10.38-15.198 10.963z" fill="#0d131a"/>
  </g>
  <g transform="matrix(1.2112 0 0 -1.2112 100.05 230.49)">
   <path d="m0 0c-1.077 0.863-1.619 2.837-0.057 5.291 0.489 0.768 1.239 1.825 2.218 2.938-6.065 9.411-6.374 16.461-0.335 21.068 1.591 1.214 2.121 0.543 0.585-0.732-5.347-4.434-4.728-10.921 0.832-19.844 0.343-0.552 0.352-0.67-0.087-1.177-0.918-1.06-1.667-2.178-2.129-2.902-1.173-1.844-0.886-3.189-0.25-3.699 0.752-0.603 1.742-0.591 3.265 1.297 2.035 2.523 4.758 3.284 7.385 1.9 1.196-0.631 2.091-0.641 2.589-0.187 0.407 0.371 0.395 1.174-0.316 2.082-0.95 1.215-2.803 2.239-4.815 2.731-0.39 0.094-0.603 0.214-0.858 0.501-6.559 7.379-6.499 13.871-3.411 16.759 1.588 1.487 2.039 0.971 0.658-0.668-2.48-2.94-2.066-8.645 3.714-15.376 2.305-0.52 4.532-1.757 5.706-3.249 1.204-1.529 1.024-2.87 0.139-3.676-0.823-0.752-2.268-0.842-3.961 0.051-2.209 1.165-4.11 0.611-5.917-1.632-2.08-2.579-3.813-2.391-4.955-1.476" fill="#0d131a"/>
  </g>
  <g transform="matrix(1.2112 0 0 -1.2112 102.41 175.67)">
   <path d="m0 0c-2.172 0.745-1.939 1.52 0.274 0.91 9.526-2.622 18.374-3.14 26.215-1.444 7.84 1.696 14.479 5.524 20.032 11.443 1.616 1.724 2.213 1.162 0.692-0.639-5.317-6.3-12.341-10.534-20.342-12.269-7.986-1.731-17.419-1.244-26.871 1.999" fill="#0d131a"/>
  </g>
  <g transform="matrix(1.2112 0 0 -1.2112 162.29 129.66)">
   <path d="m0 0c4.396-7.684 3.524-15.586-0.49-17.883-4.542-2.597-10.633-0.814-15.511 8.653-4.043 7.845-3.772 15.44 0.371 17.81 4.092 2.342 11.273-0.965 15.63-8.58" fill="#fff"/>
  </g>
  <g transform="matrix(1.2112 0 0 -1.2112 110.45 143.16)">
   <path d="m0 0c1.261-9.504-2.185-15.538-7.978-16.388-5.87-0.861-10.892 3.018-12.12 13.42-0.943 7.988 2.852 15.852 8.07 16.512 5.133 0.649 10.885-4.93 12.028-13.544" fill="#fff"/>
  </g>
  <g transform="matrix(1.2112 0 0 -1.2112 104.93 144.6)">
   <path d="m0 0c0.826-6.401-1.14-10.314-3.873-10.667-2.629-0.34-5.655 2.118-6.54 8.975-0.852 6.608 1.442 10.956 4.059 11.294 2.396 0.308 5.466-2.719 6.354-9.602" fill="#004898"/>
  </g>
  <g transform="matrix(1.2112 0 0 -1.2112 158.3 133.39)">
   <path d="m0 0c2.532-6.06 1.791-10.343-0.928-11.479-2.577-1.077-6.114 1.367-8.673 7.491-2.496 5.973-1.92 10.11 0.788 11.294 2.76 1.206 6.31-1.315 8.813-7.306" fill="#004898"/>
  </g>
  <g transform="matrix(1.2112 0 0 -1.2112 100.84 145.48)">
   <path d="m0 0c0.34-3.174-0.191-4.66-1.312-4.84-0.865-0.139-2.019 1.041-2.381 4.421-0.294 2.733 0.492 4.53 1.36 4.623 1.031 0.111 2.068-1.74 2.333-4.204" fill="#fff"/>
  </g>
  <g transform="matrix(1.2112 0 0 -1.2112 99.98 136.7)">
   <path d="m0 0c0.097-1.279-0.741-2.154-1.696-2.227-1.082-0.082-1.837 0.66-1.94 2.008-0.095 1.266 0.631 2.338 1.603 2.412 0.995 0.076 1.935-0.907 2.033-2.193" fill="#fff"/>
  </g>
  <g transform="matrix(1.2112 0 0 -1.2112 154.59 135.16)">
   <path d="m0 0c1.092-2.898 0.682-4.593-9e-3 -4.853-0.884-0.334-2.175 0.613-3.284 3.554-1.12 2.973-0.57 4.715 0.063 4.954 0.873 0.328 2.172-0.845 3.23-3.655" fill="#fff"/>
  </g>
  <g transform="matrix(1.2112 0 0 -1.2112 150.86 127.1)">
   <path d="m0 0c0.429-1.203-0.09-2.127-0.907-2.418-0.84-0.3-1.843 0.173-2.246 1.306-0.419 1.174 0.042 2.143 0.889 2.423 0.887 0.292 1.831-0.095 2.264-1.311" fill="#fff"/>
  </g>
  <g transform="matrix(1.2112 0 0 -1.2112 161.44 130.09)">
   <path d="m0 0c-4.41 7.707-10.992 10.466-14.632 8.384-3.673-2.102-3.986-9.225-6e-3 -16.947 4.973-9.649 10.699-10.6 14.486-8.433 3.302 1.891 4.681 9.079 0.152 16.996m1.334 0.708c4.472-7.817 3.687-16.18-0.833-18.767-4.408-2.521-11.152-1.486-16.485 8.865-4.07 7.896-4.031 15.984 0.723 18.704 4.415 2.527 12.123-0.986 16.595-8.802" fill="#0d131a"/>
  </g>
  <g transform="matrix(1.2112 0 0 -1.2112 109.52 143.25)">
   <path d="m0 0c-1.221 9.205-7.176 13.497-11.198 12.989-4.439-0.561-8.368-7.587-7.394-15.834 1.119-9.491 5.564-13.679 11.279-12.84 5.066 0.744 8.584 6.103 7.313 15.685m1.496 0.138c1.273-9.596-2.098-16.118-8.636-17.077-6.785-0.996-11.697 3.486-12.932 13.949-0.987 8.366 3.2 16.568 8.723 17.266 5.385 0.685 11.619-4.903 12.845-14.138" fill="#0d131a"/>
  </g>
  <g transform="matrix(1.2112 0 0 -1.2112 100.23 145.55)">
   <path d="m0 0c-0.289 2.691-1.249 3.833-1.774 3.79-0.693-0.076-1.119-2.069-0.9-4.105 0.36-3.346 1.295-4.077 1.793-3.997 0.744 0.121 1.213 1.217 0.881 4.312m1.015 0.11c0.368-3.435-0.275-5.121-1.747-5.357-1.353-0.216-2.567 1.217-2.957 4.847-0.331 3.072 0.686 5.017 1.811 5.137 1.349 0.149 2.592-1.825 2.893-4.627" fill="#0d131a"/>
  </g>
  <g transform="matrix(1.2112 0 0 -1.2112 104.09 144.69)">
   <path d="m0 0c-0.843 6.532-3.686 9.381-5.569 9.135-2.087-0.27-4.358-3.887-3.482-10.681 0.796-6.178 3.277-8.834 5.785-8.51 2.178 0.282 4.116 3.468 3.266 10.056m1.347 0.123c0.917-7.114-1.552-10.885-4.474-11.263-3.026-0.388-6.351 2.219-7.281 9.438-0.891 6.911 1.611 11.525 4.714 11.926 2.922 0.37 6.148-3.173 7.041-10.101" fill="#0d131a"/>
  </g>
  <g transform="matrix(1.2112 0 0 -1.2112 150.88 131.27)">
   <path d="m0 0c-0.432-0.162-0.714-1.776 0.255-4.349 1.027-2.725 2.008-3.5 2.628-3.271 0.46 0.174 0.752 1.466-0.295 4.245-1.047 2.777-2.092 3.564-2.588 3.375m3.535-3.042c1.06-2.813 0.819-5.043-0.313-5.47-1.04-0.39-2.575 0.252-3.929 3.842-1.218 3.232-0.589 5.198 0.368 5.56 1.172 0.441 2.653-0.693 3.874-3.932" fill="#0d131a"/>
  </g>
  <g transform="matrix(1.2112 0 0 -1.2112 157.53 133.72)">
   <path d="m0 0c-2.741 6.559-5.914 7.977-7.949 7.087-2.408-1.052-2.713-5.009-0.398-10.551 2.547-6.098 5.734-8.121 7.841-7.241 2.361 0.986 2.971 4.805 0.506 10.705m1.245 0.522c2.422-5.796 2.03-10.824-1.347-12.235-2.666-1.116-6.612 0.812-9.507 7.734-2.397 5.739-2.05 10.655 1.206 12.061 2.953 1.276 6.904-0.994 9.648-7.56" fill="#0d131a"/>
  </g>
 </g>
</svg>
