<?xml version="1.0" encoding="UTF-8"?>
<!-- Created with Inkscape (http://www.inkscape.org/) -->
<svg version="1.1" viewBox="0 0 66.973 84.408" xmlns="http://www.w3.org/2000/svg">
 <g transform="translate(-1.3966 -1.3327)">
  <path d="m68.041 58.613c0-10.186-6.5802-16.15-12.783-15.908-7.2851 0.28251-12.797 6.1257-12.852 13.931-0.03919 5.6496 3.9605 11.158 9.7714 12.301-1.7092 0.05664-3.6257-0.13974-5.7387-0.63271-1.9073-2.649-5.7295-5.146-8.6641-5.1122-4.3828 0.05351-7.9501 2.345-8.1559 4.9709-0.42528 5.4377 2.3004 8.6549 5.5928 10.296 2.6106 1.3007 6.0335 1.6124 8.8238 0.60811 14.655-0.75859 24.005-8.7993 24.005-20.455" fill="#7dccf3"/>
  <path d="m31.561 67.242c-10.312 5.4178-23.938 4.0311-28.264-4.9862-4.5962-9.5809 2.1837-23.839 11.696-27.738 9.4273-3.8637 23.098 1.9119 28.15 12.52 2.7611 5.7955 0.8185 11.563-6.0535 16.717-1.6309 1.2208-3.5182 2.4309-5.5283 3.4874" fill="#7dccf3"/>
  <path d="m34.955 65.243c0.74785-0.4868 1.4635-0.98744 2.133-1.4896 0.56973-0.42703 1.1026-0.85842 1.6063-1.2946l0.0031-0.0084c3.5673-3.3277 3.0482-8.2449 0.23942-8.747l-15.039-6.1149c-2.5124-0.46221-5.5698-1.8796-8.2065-3.9881-1.0043 2.8609-2.672 6.2793-4.2153 7.818l-6.5357 13.402c5.1106 6.2056 15.776 7.1608 24.679 3.3416-0.30558 4.6039 1.3437 7.0947 3.4291 8.8591 1.4573 0.60046 3.2663 0.59432 4.8204-0.29338 2.3588-1.3437 3.2141-4.6315 2.0255-7.5001-0.82306-1.9918-2.5323-3.446-4.9171-3.8975-0.0905-0.01745-0.07357-0.05529-0.02174-0.08747" fill="#d3ebea"/>
  <path d="m29.584 70.14c-4.4687 2.9024-8.4722 7.2913-10.065 11.55 0.75403 0.23811 1.6985 0.65726 2.3956 1.1456 0.63114 0.44074 0.79085 1.2147 0.43312 1.657-0.44535 0.55284-1.1118 0.65418-2.004 0.11666-1.3268-0.80161-3.5918-0.6849-5.4162-0.04619-1.7752 0.62192-2.692 0.32255-2.9377-0.30733-0.16106-0.41441-0.05706-1.012 0.51292-1.5172 0.51597-0.45763 1.6324-0.80623 3.8407-1.0135 1.895-4.7114 5.6189-9.1187 10.578-12.577 0.89529-0.2503 2.5354-0.87839 3.2157-1.2224 1.0857-0.54974 0.76626 1.356-0.55284 2.2144" fill="#7dccf3"/>
  <path d="m7.4276 62.085c0.87687 1.2685 0.99971 2.8978 0.27641 3.403-0.68338 0.47604-2.1868 0.07838-3.1619-1.3329-0.89833-1.3007-0.91522-2.9699-0.17195-3.4844 0.73249-0.50525 2.0409-0.05528 3.0575 1.4143" fill="#004898"/>
  <path d="m38.855 54.188c-0.5252 1.9748-2.3403 2.7319-3.4491 2.4371-1.4543-0.38525-2.0915-1.9687-1.597-3.8268 0.48832-1.8397 1.9717-2.9961 3.4245-2.6091 1.4942 0.39613 2.0455 2.4079 1.6216 3.9988" fill="#004898"/>
  <path d="m11.838 54.123c0.27642 4.7928-1.4005 8.0545-3.6472 8.185-2.3204 0.13363-4.2031-2.9085-4.4764-7.6475-0.27641-4.8035 1.5126-8.1297 3.8007-8.2618 1.9472-0.11362 4.0142 2.3772 4.3228 7.7243" fill="#fff"/>
  <path d="m33.173 44.79c2.5661 4.0726 2.0194 7.9792 0.09228 9.1955-2.1161 1.3345-5.516 0.33475-8.2003-3.9221-2.5676-4.0756-2.0132-8.1942-0.10753-9.3966 1.8581-1.1702 5.427-0.30253 8.2157 4.1232" fill="#fff"/>
  <path d="m10.826 53.833c0.42399 3.3216-0.35172 5.2887-1.6554 5.4562-1.2746 0.1628-2.5968-1.6232-3.0037-4.8127-0.4179-3.2632 0.4622-5.2381 1.6846-5.3963 1.2162-0.15367 2.5354 1.3268 2.9745 4.7528" fill="#004898"/>
  <path d="m32.441 46.384c1.4911 2.9039 1.2362 5.0508 0.05654 5.6558-1.2224 0.62657-3.0298-0.31342-4.5747-3.3216-1.4036-2.7365-1.2208-5.0922 0.0084-5.7264 1.1532-0.59123 2.8517 0.1689 4.5071 3.3922" fill="#004898"/>
  <g fill="#fff">
   <path d="m9.4138 54.08c0.22591 1.6186-0.055285 2.3158-0.46991 2.3726-0.47757 0.06751-0.8784-0.63114-1.0903-2.1453-0.20285-1.4527 0.090504-2.3449 0.44688-2.3941 0.37785-0.05351 0.88759 0.54517 1.1133 2.1668"/>
   <path d="m31.012 47.165c0.51748 1.121 0.55284 1.981 0.14583 2.1683-0.39787 0.18413-1.1993-0.42224-1.6938-1.4942-0.47453-1.0258-0.5682-2.0992-0.16891-2.2835 0.42224-0.19501 1.141 0.36217 1.7169 1.6094"/>
   <path d="m8.9183 50.406c0.11535 0.65112-0.26859 1.1164-0.68643 1.1902-0.44379 0.08141-0.94135-0.33171-1.0412-0.90142-0.093535-0.53442 0.19024-1.0949 0.68948-1.1825 0.44074-0.07838 0.93063 0.2812 1.0381 0.89372"/>
   <path d="m29.377 44.023c0.25509 0.60964 0.0348 1.1133-0.34998 1.2914-0.49603 0.22897-1.0642-0.04442-1.2761-0.55283-0.22418-0.53438-0.07535-1.1778 0.37916-1.3667 0.51905-0.21809 1.0258 0.09834 1.2469 0.6281"/>
  </g>
  <path d="m14.993 34.518c3.3969-1.3928 7.345-1.528 11.242-0.6419 2.325-1.1425 4.4396-3.0513 5.9168-5.0876 1.9703-2.7166 2.8057-5.6574 1.4957-7.3035-1.4435-1.8136-4.5225-1.531-7.6951 2.3203 1.2101-2.9976 2.0132-5.9552 2.4601-8.876 1.1164-7.3082-1.4742-12.729-3.6395-13.194-2.8456-0.61116-6.912 3.8299-9.6915 12.883-1.8075 5.8815-2.4202 13.058-0.19981 19.95 0.0348-0.01745 0.07357-0.0348 0.11057-0.04922" fill="#fff362"/>
  <g fill="#004898">
   <path d="m21.775 2.6687c-2.2988 1.7414-4.7973 5.7694-6.6939 11.949-1.8075 5.8815-2.4202 13.058-0.19981 19.95 0.0348-0.01745 0.07357-0.0348 0.11057-0.04922 0.75094-0.30862 1.531-0.55131 2.3281-0.73866-3.7961-8.6887-1.1349-24.438 4.4549-31.111"/>
   <path d="m56.523 51.878c-3.036 0.27032-5.4807 3.7593-4.9663 6.9657 0.32691 2.0347 1.5479 3.6134 3.1972 4.3182 0.83695 0.35782 1.7829 0.49293 2.7811 0.34868 2.3219-0.33475 4.1831-1.8535 4.9847-4.5317-0.26553-4.4902-3.2464-7.3465-5.9967-7.1008"/>
   <path d="m56.523 51.878c-3.036 0.27032-5.4807 3.7593-4.9663 6.9657 0.32691 2.0347 1.5479 3.6134 3.1972 4.3182 0.83695 0.35782 1.7829 0.49293 2.7811 0.34868 2.3219-0.33475 4.1831-1.8535 4.9847-4.5317-0.26553-4.4902-3.2464-7.3465-5.9967-7.1008"/>
  </g>
  <path d="m34.254 82.117c-0.63271-0.07963-1.316-0.11841-1.961-0.1319-1.7476-1.3683-2.8978-2.7857-2.5538-3.7255 0.20285-0.55435 1.3575-1.0765 4.6545-0.25508-1.1348-0.68028-2.1699-1.5679-2.9868-2.6951-2.543-0.28556-4.4703 1.0212-4.736 2.239-0.35172 1.6063 0.53286 3.5258 2.239 4.6392-1.2884 0.17368-2.7427 0.69717-3.3708 1.1932-0.65113 0.51444-0.56511 1.27 0.07054 1.7261 0.62348 0.44688 1.3637 0.46686 2.3388 0.01306 2.3419-1.0934 3.4352-1.4082 4.9755-0.97516 1.3621 0.38394 2.391 0.13364 2.4494-0.80312 0.0348-0.57282-0.2812-1.1195-1.1195-1.2239" fill="#7dccf3"/>
  <path d="m20.67 74.711c0.84462-0.08747 1.7553 0.86765 1.4589 2.4202 1.8842-2.4387 4.911-5.3994 7.4556-6.9918 0.78315-0.48989 1.1164-1.875 0.3761-2.1146-0.83078 0.40527-2.4924 1.0704-3.5458 1.3468-1.8289 1.4788-4.1002 3.3999-5.7448 5.3394" fill="#6cb2d3"/>
  <path d="m38.806 67.458c0.95057-1.0458 1.6969-2.2466 2.1161-3.5335-1.0442-0.41135-2.0639-0.67877-2.9638-0.84918l-3.6088 2.176z" fill="#6cb2d3"/>
  <path d="m15.606 22.158c2.7058 1.8827 5.4761 6.6816 5.8984 11.164-1.247-0.02174-2.5784 0.10451-4.2061 0.44378-1.184-2.7074-2.1361-7.3373-1.6923-11.608" fill="#ded255"/>
  <path d="m26.539 78.488c0.54512 1.0703 2.434 1.227 3.2325 0.56511 0.54669 1.1686 1.3652 2.0854 2.4939 2.9223 1.1118 0 2.2159 0.05528 2.6506 0.3304 0.42834 0.27336 0.6419 0.7417 0.44227 1.2224-0.23027 0.55745-1.0519 1.0366-2.0393 0.70641-1.2285-0.40831-2.5614-0.4868-4.696 0.56511-1.8812 0.92754-3.0145 0.73557-3.3892-0.15496-0.31167-0.74171 0.09834-1.3237 0.95367-1.6754 0.8968-0.37001 1.852-0.66341 2.6505-0.83848-1.1302-0.68182-2.2205-2.2021-2.2988-3.6425" fill="#6cb2d3"/>
  <path d="m44.36 52.831c-0.58352 1.8689-1.7261 3.7455-3.2786 5.5207-0.28252 1.379-1.0458 2.8502-2.3849 4.1002l0.02613-0.0042c3.4951-2.97 5.1843-6.4728 5.6389-9.6147" fill="#6cb2d3"/>
  <path d="m34.955 65.243c0.74785-0.4868 1.4635-0.98744 2.133-1.4896 0.56973-0.42703 1.1026-0.85842 1.6063-1.2946l0.0031-0.0084c1.3375-1.2485 2.1008-2.7212 2.3848-4.1002-7.0809 8.0852-22.746 14.025-33.463 7.1684-0.50521 0.32255-1.3253 0.21939-2.368-0.34389 5.2212 5.8815 15.641 6.7307 24.369 2.9868-0.07838 1.184-0.02613 2.2267 0.12754 3.1542 3.0866 0.3626 6.7031-1.2715 9.0572-3.8591-0.92754-1.0688-2.2251-1.8243-3.8268-2.1268-0.0905-0.01745-0.07357-0.05528-0.02174-0.08747" fill="#b7cbcb"/>
  <path d="m7.6203 65.518c-1.6953-1.0842-3.2678-2.4831-4.6622-4.2506 0.53903 1.4742 1.3498 2.7979 2.3787 3.9528 1.0028 0.52363 1.7937 0.61269 2.2835 0.29774" fill="#003c82"/>
  <path d="m36.642 77.239c-1.2255 0.33954-2.5077 0.22897-3.5919-0.21809-0.02174-0.0042-0.0348-0.0084-0.05351-0.01306 0.68339 0.57895 1.4328 1.0611 2.216 1.4512 2.6106 1.3007 6.0335 1.6124 8.8238 0.60812 2.2912-0.10273 4.2154-2.1207 4.7406-4.2246-2.6966 2.0777-7.752 3.0513-12.135 2.3956" fill="#6cb2d3"/>
  <path d="m36.642 77.239c-1.9749-0.29644-3.8115-0.92293-5.2335-1.9273 0.46529 0.64189 1.0028 1.2024 1.5879 1.6969 0.01745 0.0042 0.0348 0.0084 0.05351 0.01306 1.0842 0.44688 2.3664 0.55745 3.5919 0.21809" fill="#b7cbcb"/>
  <path d="m12.312 83.017c-0.05225 0.74176 0.91676 1.1686 2.1222 0.71716 1.8428-0.69104 4.4273-1.0243 6.1027-0.12754 0.62196 0.3317 1.5863 0.24246 1.7261-0.41006 0.66645 0.99814-0.35172 2.5522-2.0839 1.2792-0.87073-0.64037-3.3892-0.60811-5.2519 0.08622-1.8612 0.69408-3.856 0.31037-2.6152-1.5449" fill="#6cb2d3"/>
  <path d="m67.97 60.944c-1.4957 11.898-13.214 17.912-23.62 17.955 5.2059-2.1883 4.524-6.3975 2.1898-10.581 1.7076 0.47606 3.6518 0.7156 5.2657 0.69257-4.7789-1.2777-9.0081-6.3391-9.3444-10.714 3.3554 6.4789 13.472 8.5029 18.795 6.009 1.8505 0.59275 5.5283-0.44993 6.7138-3.3615" fill="#6cb2d3"/>
  <path d="m51.615 59.147c0.39482 1.8873 1.5725 3.3446 3.1389 4.0142 0.83691 0.35913 1.7844 0.49446 2.7811 0.34999 2.3219-0.33475 4.1831-1.8535 4.9863-4.5317-0.0042-0.09228-0.02174-0.18109-0.02613-0.27032-2.7181 2.9208-7.8733 3.1558-10.879 0.43769" fill="#003c82"/>
  <path d="m10.908 39.092c-0.12754-0.08444-0.91218 0.27946-1.4405 0.8922-0.2947 0.34258-0.35172 0.84461-0.044416 1.0826 0.33344 0.25814 0.77398 0.06009 1.0182-0.33954 0.43608-0.7095 0.59122-1.551 0.46682-1.6355" fill="#d2ecfa"/>
  <g fill="#0f141b">
   <path d="m17.223 57.051c0.11841 0.19066 0.05832 0.39482-0.09531 0.48066-0.15496 0.08925-0.34694 0.03052-0.44844-0.11971-0.09667-0.13798-0.07357-0.34388 0.07054-0.45148 0.14451-0.10578 0.36696-0.07838 0.47299 0.0905"/>
   <path d="m21.243 55.938c-0.0084 0.22418-0.17195 0.35912-0.34694 0.34694-0.17804-0.01306-0.30428-0.17195-0.30558-0.35172-1e-3 -0.1689 0.13189-0.3256 0.31037-0.33475 0.18108-0.0084 0.34998 0.13974 0.34258 0.33954"/>
   <path d="m8.3484 52.147c-0.19501 0.03052-0.46838 0.53133-0.2442 2.13 0.21505 1.5418 0.5682 1.9733 0.80623 1.938 0.25204-0.0348 0.46225-0.59889 0.25204-2.1054-0.18718-1.3437-0.57434-1.9963-0.81389-1.9626m-0.74789 2.1914c-0.21504-1.5387 0.078381-2.583 0.66649-2.6659 0.55435-0.07232 1.1671 0.7064 1.399 2.3787 0.26727 1.9073-0.19806 2.5691-0.688 2.6367-0.62501 0.08925-1.1471-0.7064-1.3775-2.3495"/>
   <path d="m10.482 53.855c-0.43443-3.3999-1.7383-4.6177-2.5952-4.5072-0.96288 0.1245-1.8044 1.8889-1.3959 5.0876 0.41615 3.251 1.6815 4.7083 2.649 4.5824 0.99662-0.12754 1.7798-1.7399 1.3422-5.1629m0.66492-0.0905c0.45916 3.5934-0.48831 5.6082-1.9503 5.7956-1.5126 0.19022-2.9469-1.7184-3.3723-5.0431-0.39177-3.0559 0.38089-5.4991 1.9979-5.7064 1.5756-0.20112 2.9039 1.6631 3.3247 4.954"/>
   <path d="m11.444 54.14c-0.31167-5.4054-2.3265-7.5139-3.9205-7.4202-2.0224 0.11666-3.7209 3.188-3.4475 7.9285 0.28556 4.951 2.1991 7.4586 4.0848 7.3496 1.7691-0.10137 3.5796-2.7212 3.2832-7.8579m0.75708-0.02613c0.27337 4.7528-1.3268 8.3524-4.0004 8.506-2.8901 0.1689-4.6238-3.747-4.8649-7.9454-0.27468-4.7667 1.5495-8.443 4.1708-8.595 1.9979-0.11361 4.3628 2.2927 4.6945 8.0345"/>
   <path d="m7.972 62.379c0.67107 1.2715 0.7156 2.7657-0.12449 3.3523-0.84771 0.59123-2.5047 0.14583-3.575-1.4005-0.94595-1.3698-0.99663-3.2464-0.069184-3.8883 0.25944-0.17804 0.58356-0.25813 0.93981-0.23811l0.30558 0.59894c-0.37914-0.11362-0.7064-0.06135-0.93828 0.09834-0.43008 0.29645-0.64652 1.7261 0.29469 3.0897 0.98592 1.4266 2.2805 1.594 2.7411 1.2715 0.54669-0.38089 0.49142-1.7353-0.38829-3.0083z"/>
   <path d="m29.382 45.745c-0.18588 0.08622-0.22418 0.93368 0.27032 2.0071 0.48376 1.0458 1.1917 1.4957 1.4174 1.3928 0.23636-0.10926 0.25639-0.80008-0.24899-1.8935-0.6112-1.3252-1.1932-1.6186-1.4389-1.5065m-0.10752 2.1821c-0.48527-1.0504-0.64341-2.2943-0.06751-2.5599 0.59122-0.27468 1.3944 0.41136 1.9932 1.7107 0.56972 1.2346 0.58661 2.1944 0.04358 2.4447-0.44993 0.20894-1.3729-0.30384-1.9687-1.5956"/>
   <path d="m28.056 43.24c-0.95056 0.4868-1.2577 2.5584 0.1689 5.3379 1.5756 3.0682 3.2418 3.6917 4.1493 3.2264 0.8968-0.4622 1.2884-2.2973-0.23942-5.2719-1.6262-3.1696-3.1696-3.7608-4.0787-3.2924m-0.45455 5.6082c-1.4819-2.8855-1.1963-5.3825 0.22245-6.1104 1.4082-0.72325 3.2709 0.29775 4.9171 3.5044 1.5679 3.0513 1.1917 5.3656-0.10752 6.0336-1.4635 0.75094-3.3892-0.22723-5.0323-3.4276"/>
   <path d="m32.838 44.977c-2.8763-4.5624-6.161-5.0292-7.7089-4.0557-1.7598 1.1103-2.2144 5.0354 0.25335 8.9513 2.8225 4.4779 5.9521 4.9571 7.689 3.8637 1.6201-1.0212 2.4294-4.5347-0.23332-8.7593m0.66188-0.35912c2.563 4.0648 2.1345 8.2387-0.06312 9.6239-2.239 1.4112-5.8815 0.47296-8.701-4.0004-2.4862-3.9451-2.1975-8.4384 0.04619-9.8512 2.1192-1.3375 5.9276-0.20285 8.7179 4.2277"/>
   <path d="m34.842 50.524c0.7156-0.58971 1.6017-0.83387 2.4724-0.6035 1.6431 0.43765 2.3219 2.5461 1.8397 4.3551-0.54056 2.0363-2.5446 2.9546-3.8222 2.6152-1.313-0.34868-1.9979-1.5326-2.0056-2.9284l0.67415-0.57129c-0.23942 1.5403 0.38393 2.6797 1.4788 2.9715 0.90603 0.24115 2.5645-0.38698 3.0621-2.2559 0.42703-1.6032-0.15802-3.3231-1.3867-3.6502-0.66645-0.17673-1.5832 0.0348-2.2758 0.86146z"/>
   <path d="m2.8626 62.43c-4.4503-9.2768 1.7138-24.025 11.986-28.234 9.9878-4.0925 23.707 2.1806 28.71 12.688 2.8302 5.943 0.8262 12.118-6.3284 17.059-0.86303 0.59584-1.1118 0.27337-0.28861-0.3761 6.4313-5.0722 8.4998-10.598 5.7648-16.339-5.0538-10.611-18.65-16.057-27.582-12.397-9.24 3.7869-15.962 17.781-11.436 27.215 4.3628 9.0956 17.821 10.083 27.763 4.9893 1.1134-0.57128 1.3038-0.2011 0.21504 0.41746-10.284 5.8401-24.455 4.0434-28.804-5.0216"/>
   <path d="m35.055 78.784c-3.6671-1.8243-5.7909-5.2412-5.7218-9.1816 0.02174-1.0289 0.44531-1.0166 0.47452 0.01306 0.0997 3.575 2.0793 6.8091 5.5729 8.549 2.993 1.4896 7.5093 1.786 10.596-0.3748 0.89224-0.625 1.1425-0.29949 0.28556 0.37174-2.9131 2.2789-7.6905 2.3757-11.207 0.62348"/>
   <path d="m23.985 47.93c-2.5983-0.45764-5.5882-1.809-8.1359-3.7915-0.97511 2.6981-2.6321 6.0996-4.2952 7.6767l-0.15496-0.78472c1.4466-1.5541 2.9607-4.7037 3.9328-7.3926 0.15367-0.42703 0.32256-0.46838 0.81541-0.0905 2.5277 1.9442 5.2227 3.2279 7.6092 3.6902z"/>
   <path d="m14.537 34.68c-2.0639-6.1825-1.9487-13.319 0.1567-20.168 2.8717-9.3506 7.1608-13.767 10.169-13.118 2.6981 0.57894 4.9816 6.6186 3.9144 13.597-0.57895 3.7869-1.6908 7.56-3.5965 11.172-0.66797 1.2654-0.99201 1.1072-0.42094-0.2059 1.6262-3.7332 2.6951-7.3404 3.2678-11.086 1.0826-7.0855-1.3606-12.371-3.3139-12.792-2.2236-0.47452-6.3115 3.0206-9.2707 12.655-2.07 6.7415-2.1192 13.646-0.27337 19.689z"/>
   <path d="m22.523 2.2684c-6.0029 6.4804-8.5781 22.78-4.8773 31.449l-0.66184 0.13799c-3.8438-8.7133-1.1993-23.818 4.0249-30.711z"/>
   <path d="m26.307 22.88c3.0313-3.3354 6.1334-3.4214 7.5584-1.6293 1.3668 1.7199 0.84461 4.6192-1.4159 7.7366-1.6262 2.2421-3.7116 3.9804-5.7187 5.0108l-1.0043-0.21809c2.2313-1.1103 4.521-2.9945 6.1303-5.212 2.2328-3.0805 2.5261-5.6543 1.5203-6.9181-1.1133-1.399-4.1462-1.6508-7.6966 3.0375z"/>
   <path d="m29.594 70.47c-4.544 3.1343-8.1773 7.2099-9.7068 11.049 0.56359 0.17804 1.508 0.5789 2.1991 1.0627 0.84 0.58661 0.97512 1.5003 0.49755 2.0915-0.49293 0.6112-1.419 0.77705-2.391 0.19022-1.2838-0.77706-3.4199-0.63271-5.1752-0.02174-2.2098 0.77397-3.0651 0.22593-3.3185-0.47295-0.18413-0.50525-0.12885-1.2301 0.58661-1.8643 0.55131-0.48984 1.8704-0.86916 3.8591-1.0549 1.915-4.7667 5.7142-8.9989 9.9387-12.066l1.6232-0.39918c-5.1982 3.3708-9.0542 8.0606-11.023 12.689-0.11362 0.26728-0.20285 0.333-0.47606 0.36087-1.9549 0.20285-3.0867 0.58818-3.5059 0.93982-0.48066 0.40091-0.5544 0.8646-0.43139 1.1778 0.16759 0.43008 0.88454 0.71564 2.5446 0.13363 1.8965-0.66496 4.1846-0.83386 5.6834 0.07054 0.74323 0.4484 1.2469 0.39917 1.6186-0.05967 0.22114-0.27642 0.212-0.80009-0.39308-1.2209-0.67106-0.47148-1.4465-0.81084-2.176-1.0611-0.34084-0.11841-0.38829-0.2133-0.25509-0.56359 1.5495-4.0726 5.536-8.5336 10.273-11.64z"/>
   <path d="m38.188 62.887c3.5827 0.13059 8.0729 3.6656 9.3168 6.8782 0.50521 1.3038 0.15367 1.4128-0.38698 0.15671-1.3314-3.1005-6.2286-6.5833-9.7053-6.4206z"/>
   <path d="m31.685 75.667c-2.669-0.39002-4.4518 0.91218-4.6837 1.9702-0.36087 1.6493 0.64494 3.5965 2.4401 4.6254 0.80927 0.46378 0.59123 0.69871-0.19501 0.36696-2.0363-0.85227-3.3462-3.2141-2.9208-5.1551 0.31342-1.4358 2.4693-2.7181 4.8619-2.5169z"/>
   <path d="m34.954 78.472c-3.4751-0.95671-4.7298-0.57895-4.9049-0.07357-0.24115 0.69256 0.63267 1.9103 2.3434 3.294 0.71868 0.0084 1.2377 0.05048 1.9073 0.13974 1.0043 0.12885 1.4205 0.7801 1.3729 1.5479-0.06312 1.0504-1.2209 1.5019-2.8241 1.0504-1.4773-0.41788-2.4509-0.12885-4.7804 0.95823-1.0489 0.48837-1.9595 0.46225-2.6521-0.0348-0.80774-0.57743-0.87992-1.5833-0.08267-2.2113 0.62348-0.49297 2.1023-1.0304 3.2049-1.1917l0.75551 0.49294c-1.2792 0.12754-2.887 0.64803-3.5519 1.1717-0.49912 0.39308-0.39917 0.9429 0.03052 1.2531 0.51287 0.36696 1.1256 0.41135 2.047-0.01745 2.3971-1.1164 3.6149-1.425 5.2074-0.97665 1.2823 0.36087 2.0056 0.08141 2.0455-0.5682 0.03052-0.48832-0.15671-0.79085-0.86917-0.90142-0.58971-0.0905-1.1349-0.11361-1.7291-0.1184-0.26423-0.0021-0.333-0.03919-0.47144-0.14583-1.9426-1.5065-3.0084-2.8885-2.6091-3.9789 0.2934-0.80004 1.5832-1.2331 4.4503-0.60193z"/>
   <path d="m43.94 49.256c2.3372-4.1677 6.6033-6.6847 11.304-6.8674 6.4098-0.25639 13.125 5.9245 13.125 16.233 0 12.477-10.33 20.246-25.125 20.754l1.5602-0.6419c13.928-0.99667 22.897-8.6948 22.897-20.131 0-9.6562-6.1779-15.817-12.434-15.579-4.8066 0.18587-8.9759 2.9577-11.078 7.2529z"/>
   <path d="m42.78 57.787c0.49754 5.7909 5.0661 10.399 10.436 11.017l-1.9242 0.23332c-4.9248-1.2746-8.3217-5.6466-9.0695-10.363z"/>
   <path d="m46.498 68.021c10.14 2.3342 15.699-2.2728 15.699-8.4015 0-4.4211-2.798-7.6521-5.6496-7.3941-2.9469 0.26248-5.1322 3.6702-4.6653 6.5818 0.29645 1.8413 1.3022 3.3861 2.9607 4.1355 1.1947 0.5405 1.0504 0.87835-0.18588 0.43608-1.7783-0.63728-3.1066-2.4294-3.4368-4.4841-0.51596-3.211 1.7737-7.0348 5.278-7.3481 3.1772-0.28425 6.3729 3.145 6.3729 8.0929 0 6.5587-5.9798 11.367-16.286 9.0004z"/>
  </g>
  <path d="m39.981 66.04c2.1023-1.6324 4.0894-2.1576 4.7129-1.5172 0.61578 0.63271-0.42094 3.1466-2.0578 3.919-1.8044-0.52671-3.4629-0.02613-4.1954 0.72483-0.34694 0.35781-0.45454 0.80931-0.33475 1.1456 0.13799 0.39481 0.47453 0.58505 1.0934 0.45144 2.6398-0.56663 3.9804 0.37785 4.2077 2.4955 0.08267 0.7724 0.48066 1.2131 1.035 1.2177 0.42834 0.0031 0.87378-0.3195 1.0918-0.99971 0.27511-0.8615 0.1258-2.3342-0.21809-3.7009 2.4125-3.1496 2.8363-5.7249 1.6539-6.8859-1.9564-1.9226-5.708-0.80465-8.6549 1.5863-1.3713 1.1118-0.02174 2.8747 1.6662 1.5633" fill="#7dccf3"/>
  <path d="m47.503 76.009c4.5655 0.25944 7.4126 2.2037 8.8131 5.2427-0.9352 0.16715-1.9764 0.42834-2.8041 0.79699-0.76321 0.3378-1.0258 1.015-0.80008 1.7168 0.23027 0.71406 0.94752 1.0089 1.872 0.67262 3.0037-1.0872 5.3149-1.2669 7.2805-0.45916 1.9211 0.78933 3.2678 0.33779 3.4183-0.50525 0.13363-0.75246-0.24116-1.3928-1.3191-1.7936-1.1948-0.44536-2.7734-0.65879-4.7359-0.68951-1.3637-4.0771-5.2995-6.8136-11.066-7.5247-2.9392-0.36392-2.9653 2.4125-0.65879 2.543" fill="#7dccf3"/>
  <g fill="#6cb2d3">
   <path d="m40.568 62.89c0.04619 0.80313 1.5172 1.4804 2.4601 1.4343-1.0151 0.36696-2.3142 1.1532-3.2033 1.9441-1.5817 1.4082-2.8855-0.73095-1.786-1.6815 0.61116-0.52671 1.703-1.2224 2.5292-1.6969"/>
   <path d="m52.811 82.839c0.01306 0.71564 0.87226 1.0274 1.7783 0.61273 2.6091-1.1886 5.6896-1.2055 8.033-0.27946 1.5403 0.6066 2.3311 0.28861 2.3787-0.75551 0.88452 1.6616-0.84919 2.5093-2.9039 1.637-2.176-0.92602-4.6377-0.68186-6.9841 0.21809-1.9503 0.74785-2.6183-0.02174-2.302-1.4328"/>
   <path d="m38.675 69.036c-0.17369 0.56202 0.05225 0.96437 1.012 0.78164 1.9303-0.36696 4.091 0.33779 4.567 2.7734 0.18284 0.94286 0.78164 1.227 1.3637 0.62962-0.23506 0.94134-0.71411 1.3467-1.3176 1.2254-0.61116-0.12276-0.76783-0.58505-0.88914-1.3329-0.32866-2.024-1.7629-2.8241-3.7408-2.4217-1.0688 0.21809-1.4328 0.02174-1.5633-0.35173-0.12145-0.35303-0.01306-0.87535 0.5682-1.3038"/>
  </g>
  <path d="m44.438 74.778c-0.80318-0.0031-1.2347-0.57124-1.3329-1.4896-0.2011-1.8735-1.3222-2.7795-3.8484-2.2375-0.86455 0.18588-1.2592-0.12145-1.4404-0.63267-0.15366-0.43443-0.08747-0.95209 0.40222-1.4542 0.7801-0.80313 2.4831-1.3683 4.3889-0.83848 1.3759-0.70332 2.3173-2.9162 1.8596-3.3861-0.51139-0.52675-2.2037-0.23331-4.3351 1.4819-0.72792 0.58509-1.0043 0.25335-0.30123-0.36261 2.2052-1.9257 4.4058-2.2666 5.0861-1.5694 0.82772 0.85227-0.41136 3.4168-1.9856 4.3213-0.19632 0.11361-0.32691 0.11971-0.54056 0.06615-1.5203-0.38524-3.0114-0.05225-3.7332 0.69105-0.35172 0.36087-0.36869 0.60198-0.27337 0.85841 0.09531 0.2564 0.2934 0.35172 0.7586 0.2503 3.0145-0.64803 4.3305 0.64499 4.5563 2.7565 0.0766 0.71868 0.38698 0.95979 0.75246 0.93829 0.30123-0.01745 0.57433-0.15671 0.7801-0.79857 0.23028-0.71559 0.1628-1.9457-0.17499-3.3631-0.06312-0.26423-0.0509-0.31646 0.11057-0.5298 2.1775-2.93 2.6229-5.3333 1.5571-6.3791-1.766-1.7337-5.2074-0.77858-8.2633 1.5572-0.8047 0.61578-1.055 0.30689-0.29644-0.36087 3.082-2.7181 7.1162-3.5919 9.0281-1.6324 1.3621 1.3974 0.81236 4.1678-1.5663 7.1746 0.3748 1.419 0.45759 2.9346 0.2011 3.7362-0.27337 0.85227-0.87839 1.204-1.3897 1.2024" fill="#0f141b"/>
  <path d="m52.413 83.851c-0.25639-0.80009-0.06918-1.634 0.96746-2.0839 0.79699-0.34694 1.8166-0.61582 2.4985-0.73714-1.5095-2.9515-4.4058-4.5455-8.3877-4.7897-1.2515-0.0766-1.2346-0.4868 0.02613-0.46225 4.2108 0.08747 7.4464 1.9273 8.9835 5.1767 0.18283 0.38525 0.11188 0.54208-0.29165 0.62039-0.88758 0.17195-1.7737 0.39613-2.5845 0.75708-0.64808 0.2873-0.81236 0.79085-0.63424 1.3437 0.16759 0.51905 0.62039 0.80161 1.4927 0.48527 3.0498-1.1057 5.4162-1.3069 7.5016-0.4515 1.7537 0.72177 2.8885 0.34259 3.0022-0.29774 0.0997-0.5682-0.12885-1.0719-1.1348-1.4465-1.0811-0.40091-2.5046-0.6281-4.3843-0.65883-0.39786-0.0084-0.47761-0.07838-0.59279-0.39309-1.422-3.8959-5.2028-6.3837-10.748-7.2175-1.0227-0.15498-0.96437-0.57587 0.06438-0.46225 5.6235 0.62196 9.8435 3.3247 11.247 7.4648 1.8443 0.03052 3.4076 0.2503 4.6454 0.69875 1.273 0.46376 1.6385 1.3068 1.4911 2.133-0.2011 1.1333-1.8504 1.5295-3.8253 0.71868-1.8735-0.76939-4.2614-0.54364-7.0747 0.47449-1.2792 0.46376-1.9994-0.05654-2.2605-0.87221" fill="#0f141b"/>
  <path d="m35.372 61.044c-0.43312-1.5126-6.5848-2.5599-12.27-1.1856-6.6401 1.6048-9.4642 4.9218-9.048 6.657 0.42094 1.7522 4.6545 2.5446 11.296 0.97364 6.8167-1.6109 10.343-5.3195 10.022-6.4451" fill="#ed8599"/>
  <path d="m28.316 59.221c-1.6616 0.02174-3.4598 0.21504-5.2151 0.63732-6.6386 1.6063-9.4642 4.9217-9.048 6.6585 0.22287 0.92293 1.5034 1.5771 3.6379 1.7629-0.78319-0.62039-0.96437-1.3637-0.04358-2.7718 1.9073-2.9193 5.6635-5.1721 10.668-6.287" fill="#923000"/>
  <path d="m19.653 63.186c3.876-1.657 10-1.1548 12.614 1.3636 1.7967-1.0473 3.2479-2.6674 3.1189-3.4306-0.19024-1.1103-3.8714-2.1438-7.6506-1.8981-2.9392 0.8185-6.2071 2.4402-8.0821 3.9651" fill="#ce7486"/>
  <path d="m35.088 61.128c-0.30862-1.078-5.728-2.4063-11.912-0.91218-6.8674 1.6616-9.1341 4.8864-8.8116 6.2301 0.34868 1.4527 3.9789 2.3296 10.928 0.688 6.8859-1.6262 10.043-5.1398 9.7959-6.0059m-21.359 5.4546c-0.44997-1.8796 2.5906-5.4469 9.2937-7.0686 5.1045-1.2331 12.092-0.4653 12.645 1.4696 0.40396 1.4128-3.5965 5.2796-10.25 6.8521-6.1211 1.4466-11.153 0.97207-11.688-1.2531" fill="#0f141b"/>
  <path d="m17.21 68.238c-0.66649-0.64033-0.75398-1.5233 0.15496-2.9131 1.7507-2.6812 5.3855-4.9632 9.7467-6.115l2.2421 0.08622c-5.6543 1.0688-9.5763 3.5059-11.457 6.3837-0.83078 1.2715-0.66492 1.9917 0.30123 2.6306z" fill="#0f141b"/>
 </g>
</svg>
