<?xml version="1.0" encoding="UTF-8"?>
<!-- Created with Inkscape (http://www.inkscape.org/) -->
<svg version="1.1" viewBox="0 0 121.43 90.286" xmlns="http://www.w3.org/2000/svg">
 <g transform="translate(-1.7555 -1.9315)">
  <path d="m113.08 11.575c-0.95021-0.73618-5.359 2.7656-11.164 9.6584 3.599-5.6899 4.5803-11.874 2.4863-17.654-0.5123-1.4147-1.247-1.3464-1.946 0.0424-1.4724 2.925-5.3423 8.2529-8.3492 11.511-3.6953 4.0065-11.769 13.26-17.483 21.012-3.942 5.3461-3.6589 10.59 0.11082 14.816 4.046 4.5355 11.503 7.3148 23.571 1.9452 3.7401-1.6636 8.813-5.9699 8.5413-6.8784-0.19429-0.64814-3.4548-2.056-9.1985-1.9141 3.8965-0.90923 7.4544-2.9174 10.357-5.2186 5.2284-4.1446 8.3348-9.2319 7.4802-10.524-0.8948-1.3517-6.9277 0.23831-12.238 4.0702 7.5622-8.3105 8.9344-20.014 7.8324-20.867" fill="#3171b7"/>
  <path d="m33.982 46.274c-11.302-3.2233-17.739-7.7558-28.09-15.619-1.7342-1.3168-2.8438-1.8215-3.3045-1.4777-0.90619 0.67548 0.43716 5.2292 3.7249 10.181 2.6837 4.0422 6.6515 8.1443 11.767 10.956-3.0062-1.1468-5.5032-2.3755-7.985-3.8388-1.565-0.92289-2.1395-0.0303-1.7304 1.5748 0.90999 3.577 6.612 10.321 15.734 12.823-1.9088 0.16329-4.0278 0.61703-5.4182 1.0883-0.85079 0.28766-0.94869 0.58212-0.47131 1.2948 2.8666 4.2782 13.128 8.0343 20.477 3.3516-2.037 2.4674-3.7879 5.9661-3.4715 6.398 1.0671 1.4549 9.222-2.0856 11.374-5.1108-7.0621-4.5135-11.384-14.752-12.606-21.621" fill="#3171b7"/>
  <path d="m76.731 50.96c-2.9705-3.3303-3.7644-7.292-2.0439-11.438l-0.0273-0.0228c-0.25122-0.27397-0.47359-0.54266-0.63145-0.75515 1.3858-8.3698 0.74453-18.632-1.7729-24.375-0.78248-1.785-1.5338-1.3669-2.1372-0.0607-2.4985 5.4106-7.4218 11.574-11.413 16.119 0.38023-2.7831-0.0683-6.3084-0.95704-9.1393-0.2793-0.89025-0.49332-0.87584-0.84016-0.0652-1.5027 3.5177-3.6248 7.4476-5.4485 10.242-2.1797 3.3409-3.0123 6.1012-3.0677 9.1666-0.97981-1.5149-1.9885-3.2012-2.9485-4.9628-0.83788 1.8974-1.0868 3.6384-1.1862 5.6405-1.5779-3.3614-3.4494-8.2991-4.9218-12.77 0.60792-0.81663 1.2257-1.628 1.6439-2.1311-0.46828-1.8306-1.7835-4.4247-2.8817-5.6322-0.60185-0.66255-0.88418-0.58667-1.0489 0.43566-0.32559 2.0272-1.1946 4.8634-2.2905 7.736-3.3007 8.6559-1.2872 22.101 4.8156 31.478 5.5297 8.498 17.133 15.184 29.054 12.86 9.5848-1.8678 21.875-9.9643 25.111-18.083l-0.0357-0.0288c-8.2711 1.9346-13.723-0.57149-16.972-4.2144" fill="#3e3a39"/>
  <path d="m82.125 29.1c-2.2359-3.4434-4.9977-6.168-8.0578-8.1747 0.90771 5.4516 0.91074 12.08-0.0387 17.819 0.15786 0.21169 0.38023 0.48117 0.63069 0.75517 0.97829-2.3611 4.8732-7.4044 7.4658-10.399" fill="#3171b7"/>
  <path d="m35.341 51.759c0.78096 1.3092 1.7843 2.0332 3.1132 1.9072 2.6336-0.24893 6.2219-3.753 5.6102-10.631-3.5633 0.54797-8.2597-1.1407-10.888-2.9751 0.05921 3.3751 1.1339 8.6513 2.1645 11.699" fill="#fff"/>
  <path d="m49.719 42.702c5.296-1.7501 12.65-5.705 16.646-9.1977 3.0578 6.4086 2.7717 12.769-3.1299 15.625-3.8927 1.883-10.085 0.8895-13.516-6.4268" fill="#fff"/>
  <path d="m44.257 41.309c0.09866-2.0029 0.3476-3.7439 1.1862-5.6413 0.95932 1.7623 1.9687 3.4479 2.9478 4.9628 0.05617-3.0654 0.88798-5.825 3.0684-9.1659 1.8238-2.7944 3.945-6.7243 5.4485-10.242 0.34608-0.81057 0.56011-0.82498 0.8394 0.0652 0.88874 2.8309 1.338 6.3562 0.95704 9.1393 3.0958-3.5246 6.7463-8.0221 9.3974-12.387-1.6932-0.55936-3.4267-0.93882-5.173-1.1202-8.756-0.90998-17.823 2.9364-23.553 11.74 1.4663 4.4391 3.3174 9.3177 4.8816 12.649" fill="#3171b7"/>
  <path d="m57.581 54.453c-0.76807 3.0753-0.93883 8.0434-0.63525 11.473-2.969-1.8807-6.5027-4.7298-8.5064-7.1584l-1.0322 0.85687c-0.29372 2.9637 0.954 7.0879 2.7952 10.511 5.4075 2.9766 11.867 4.4285 18.425 3.1504 6.8146-1.3274 14.995-5.8052 20.318-11.2-10.507 4.1742-22.133 1.2553-31.365-7.6328" fill="#fff362"/>
  <path d="m35.216 50.827c-6.7972-5.019-17.083-7.8354-18.068-6.2287-0.91074 1.4845 5.6307 9.2691 13.251 11.506-5.7521-0.22464-10.515 0.65877-10.62 1.19-0.18822 0.95249 7.4491 7.6062 18.015 5.1237-3.2347 1.5665-5.3476 3.7545-4.9985 4.4201 0.5472 1.0436 6.9634 0.359 9.4019-3.0001-3.3295-3.5572-6.0777-9.5643-6.9824-13.012" fill="#fff"/>
  <path d="m102.17 30.125c-0.75592-0.84473-6.5156 1.5346-11.877 5.2854 4.0551-5.2656 6.0618-10.625 5.0455-11.458-1.0231-0.83787-10.285 5.1996-14.948 11.927-3.9754 5.7362-4.8512 12.874-3.0388 15.353 1.5953 2.1797 7.7322 1.0792 12.835-1.2151 5.5973-2.5167 8.4016-5.2072 8.8889-7.0568 0.32255-1.2234 0.0417-1.6166-1.3289-1.4443-2.3421 0.29371-4.5234 1.039-7.0977 1.5164 7.884-3.6726 12.253-12.09 11.521-12.908" fill="#fff"/>
  <path d="m84.24 67.61c7.5645 5.491 13.331 7.2313 19.825 6.8989 7.3262-0.37491 16.16-6.1513 18.237-10.624 0.38632-0.83333 0.23755-1.1809-0.8022-0.77262-9.7784 3.8487-22.43 3.9951-33.559-0.17297-0.60944 0.63676-2.0689 1.8883-2.774 2.4195-0.233 0.79388-0.53127 1.6173-0.92668 2.2511" fill="#3171b7"/>
  <path d="m64.884 79.244c-1.4117-0.44626-4.1576-1.5126-5.8978-2.5106 0.5085-0.869 1.2576-2.0727 2.0074-3.1618-1.1225-0.0865-1.9452-0.24059-2.6821-0.4068-0.71038 1.1263-1.5877 2.3718-2.3437 3.3394-3.1717-0.14887-8.8077-1.2333-9.666-0.91302-1.0436 0.38858-4.7632 2.9478-5.0584 3.9883-0.12067 0.42425-0.1222 0.92668-0.05161 1.423 0.11385 0.80069 0.3051 0.91682 0.91074 0.16157 0.73011-0.90999 2.0894-1.8109 3.2718-2.2632 2.0461-0.15188 4.5089-0.25424 6.1005-0.28081 0.82498-0.0151 1.4655 0.23452 1.8276 0.50471-1.5354 0.96691-3.8456 2.33-5.4462 3.2051-0.54872 1.2288-1.4337 3.8099-1.3547 4.4528 0.10473 0.86369 0.3051 1.6219 0.64815 2.2928 0.58895 1.149 0.77944 1.2128 1.2735-0.076 0.47434-1.2356 0.9874-2.4294 1.6014-3.4942 2.4734-2.8066 5.3681-4.5302 7.2556-4.8201 1.2341-0.18975 3.7735-0.42199 4.7419-0.12908 1.08 0.32787 2.0818 1.8184 2.4719 3.1018 0.25197 0.82877 0.40452 0.97373 1.0147 0.15103 1.1453-1.5437 0.98588-4.0551-0.62462-4.5651" fill="#939494"/>
  <path d="m84.839 74.658c-0.39162-0.0194-1.4063 0.31345-2.4173 0.806 0.0729-0.22085 0.17076-0.45613 0.32104-0.71416 0.40073-0.68837 0.96994-2.2799 1.291-3.5542 0.0934-0.36809 0.0425-0.60184-0.15406-0.88872-0.25273-0.36963-0.49028-0.71191-0.76578-1.1202-0.65346 0.60563-1.4754 0.99042-2.0833 1.0314 0.25425 0.41818 0.43943 0.73467 0.61855 1.042-0.86066 2.1592-1.9786 4.7867-3.4456 7.2146-3.0662 1.7289-8.4062 5.019-9.0004 6.0671-0.36278 0.64207-0.43488 3.5193-0.1313 5.4652 0.15255 0.97676 0.4068 0.84774 0.75895 0.0919 0.8341-1.7919 2.0393-3.9344 3.1527-4.8998 1.5832-0.86444 4.2539-2.0484 6.2864-2.8855 0.39693 1.4542 1.2515 3.2703 2.0378 4.4945 0.36505 1.2917 0.74529 2.7512 1.0094 4.002 0.28536 1.354 0.55024 1.1953 0.92213 0.1108 0.64814-1.8951 1.0777-4.603 0.98056-5.3848-0.15634-1.2492-1.0709-4.2099-1.7448-5.9494 1.0754-1.4663 2.4165-2.5797 3.8866-3.183 0.65194-0.26791 0.61248-0.4918-0.0926-0.99801-0.57149-0.40909-1.1316-0.73239-1.4299-0.74758" fill="#939494"/>
  <path d="m72.084 63.02c-6.7456 4.191-14.91 7.1425-21.87 7.1494 8.2035 4.2843 15.511 4.8026 25.436 0.88798 4.6653-1.8405 9.8588-5.2482 13.503-9.0346-6.064 2.3178-11.892 2.3733-17.068 0.99726" fill="#ded255"/>
  <path d="m81.992 54.671c-2.4507 2.9812-5.9327 5.8796-9.9081 8.3485 5.1768 1.376 11.004 1.3206 17.069-0.99726 2.1023-2.1843 3.69-4.4945 4.3587-6.7038-4.1606 1.0246-8.4593 0.63373-11.519-0.64738" fill="#2f2826"/>
  <path d="m90.418 63.833c-0.95173 2.0788-0.19732 4.4513 2.0393 5.7635 5.825 3.4153 13.895 4.4892 21.121 2.0598-7.5584 4.663-19.126 3.9549-29.243-4.0095 0.35595-0.67624 0.63221-1.4481 0.78324-2.1926 1.228-1.0701 2.1752-1.8579 2.9341-2.607 0.71114 0.33547 1.5361 0.71948 2.3657 0.98589" fill="#2a61a0"/>
  <g fill="#656464">
   <path d="m55.114 77.628c1.1293 0.80979 3.2506 1.4511 6.5141 0.45916-1.1126-0.47814-1.9103-0.89709-2.6776-1.3585 0.6785-1.083 1.4382-2.3254 2.0029-3.1299l-2.6488-0.43565c-0.94338 1.524-2.1289 3.1178-3.1906 4.4649"/>
   <path d="m41.551 81.567c0.11839-1.099 1.5187-3.0267 3.2984-3.6544 1.3008-0.45991 5.8219-0.61399 7.034-0.54644 1.212 0.0682 2.1084 0.46297 2.4651 1.0466l-1.1415 0.73089c-0.55176-0.37494-1.0375-0.58212-1.9664-0.5457-0.92972 0.0364-5.3476 0.17749-5.9191 0.33775-1.2136 0.33924-2.5554 1.4192-3.7705 2.6313"/>
   <path d="m47.868 89.853c-0.1404-1.2963 0.25501-3.9875 1.0413-5.0766 1.0686-1.4807 5.0083-4.2046 6.7327-4.7746 2.1903-0.72632 6.1414-0.96009 7.3277-0.25881 1.5323 0.90542 2.5668 2.7861 1.9346 4.4467-0.3476-0.12607-1.1081-2.8719-2.667-3.5322-1.5596-0.66105-4.8254-0.25424-6.2151 0.32482-2.2268 0.92517-5.3172 3.5064-6.0731 4.5818-0.75592 1.0747-1.5984 4.0536-2.081 4.2888"/>
   <path d="m80.611 73.879c0.87052-0.22314 1.7319 0.18072 2.078 0.92365 0.6193-1.2705 1.2158-2.9812 1.3411-3.4935 0.12523-0.51231-0.0873-1.077-0.90847-2.1046-0.60261 0.3954-1.3555 0.76274-2.1425 0.94412 0.20113 0.29295 0.4197 0.69218 0.60337 1.083-0.32104 0.97829-0.53886 1.6325-0.97146 2.6472"/>
   <path d="m69.38 90.519c0.0903-1.8245 1.6272-5.3597 2.7527-6.3396 0.67926-0.59122 4.4991-2.5265 6.8792-3.4638-0.0129 0.57908 0.0129 0.97298 0.19201 1.6302-2.6616 1.058-5.699 2.5197-6.2416 2.9015-1.4739 1.0375-3.1633 5.2611-3.5823 5.2717"/>
   <path d="m82.752 91.698c0.21251-1.3752 0.34684-3.9435 0.12901-5.6132-0.30358-2.3398-1.0883-4.6182-1.905-6.4716-0.61096-1.3828-0.0752-3.0062 1.2075-4.194 0.91074-0.42274 2.2799-0.86293 2.7284-0.76502 0.44854 0.0979 1.1824 0.49712 1.5574 0.87203 0.37568 0.37568 0.43639 0.68762-0.18444 0.96842-1.4223 0.6436-2.9804 1.8048-3.7568 3.0722 0.68458 2.0552 1.7334 5.0888 1.7114 6.1938-0.0281 1.5027-0.71266 5.0152-1.4876 5.9373"/>
  </g>
  <path d="m76.942 50.502c6.0686 0.3476 15.81-3.9382 21.973-8.8077 1.0891 1.9437-2.6176 6.4298-10.729 9.1796-6.6978 2.2715-9.5135 2.3937-11.244-0.37189" fill="#dbdcdc"/>
  <path d="m98.915 41.694c6.6811-2.7785 14.721-8.9329 18.511-13.447 0.95324 2.9151-7.7648 14.252-18.928 15.944 0.55935-0.89026 0.71569-1.826 0.41742-2.497" fill="#2a61a0"/>
  <path d="m19.893 57.194c4.2031 2.3778 11.671 3.498 18.356 1.3676 0.99347 1.8071 2.4104 3.857 3.9299 5.4394-4.4422 4.0665-8.9625 3.6126-9.3845 2.8886-0.42274-0.72251 1.9095-2.9926 4.9977-4.4535-9.4717 1.5635-16.018-1.7448-17.899-5.2421" fill="#dbdcdc"/>
  <g fill="#2a61a0">
   <path d="m8.5099 46.561c1.9338 4.767 7.4499 8.6733 11.384 10.634 0.03339 0.61552 1.3396 2.1934 3.1489 3.1975-8.904-2.2032-15.654-10.381-14.532-13.831"/>
   <path d="m24.276 60.826c-2.1979 0.25272-6.1035 1.0648-6.3145 1.7205-0.63145 1.9596 10.741 10.208 20.468 4.0832-2.2738 0.76654-5.3514 0.90771-5.6352 0.25957-0.28461-0.64664 1.9255-3.1269 4.9977-4.4535-4.2919 1.0064-10.248 0.60944-13.516-1.6097"/>
   <path d="m42.179 64.001c-0.9282 0.98055-2.2594 1.9148-3.5534 2.4833-1.5961 2.2473-3.6961 6.0398-3.2893 6.5217 1.1521 1.3654 8.2589-1.5156 11.161-5.148-1.2955-0.93199-3.0328-2.5129-4.3184-3.857"/>
   <path d="m77.421 51.724c4.7753 4.7184 11.501 4.8072 17.495 3.1542 9.4399-2.6009 14.006-7.9645 13.795-8.8668-0.12523-0.53659-4.1545-2.4522-10.213-1.82-3.0548 4.6478-16.28 10.36-21.076 7.5326"/>
  </g>
  <g fill="#0f141b">
   <path d="m74.051 20.348c3.3781 2.1425 6.2272 5.0159 8.3887 8.303l-0.64207 0.84015c-1.9816-3.0563-4.531-5.7354-7.4947-7.8013z"/>
   <path d="m67.755 18.406c-1.5665-0.51303-3.1967-0.86747-4.877-1.0413-9.5962-0.99726-18.223 3.8001-23.313 11.947l-0.43716-1.2515c4.5674-6.8572 13.125-12.696 23.848-11.581 1.8238 0.18975 3.5777 0.56998 5.2497 1.1164z"/>
   <path d="m40.614 26.884c-0.35974-1.6826-1.5976-4.4505-2.6996-5.6899-0.27398-0.30889-0.43412-0.24665-0.47662 0.11316-0.23755 2.0302-1.0777 4.7389-2.2609 7.8104-3.199 8.3075-1.1316 21.805 4.8611 31.013 4.9848 7.6601 16.259 15.039 28.472 12.659 9.943-1.9361 21.6-10.081 24.599-17.495l1.2963-0.29902c-2.8802 7.7861-14.786 16.673-25.68 18.795-12.583 2.4514-24.214-4.7268-29.634-13.055-6.0731-9.3321-8.2005-23.005-4.7867-31.956 1.1582-3.0373 1.9406-5.5434 2.207-7.6343 0.21023-1.6454 0.93048-1.9247 1.9642-0.71191 1.19 1.398 2.3482 3.709 2.8787 5.5669z"/>
   <path d="m47.719 40.378c-0.83712-1.2212-1.6872-2.5964-2.1979-3.6088-0.44854 0.93124-0.7286 2.4977-0.82878 4.0452-0.09184 1.4246-0.5085 1.3403-1.0162 0.22617-1.7259-3.7872-3.6847-8.8206-5.2246-13.793-0.10247-0.3309-0.19504-0.3347-0.33698 0.0228-0.65574 1.65-1.1415 4.5932-1.1369 6.4443 0.0045 1.9361-0.61551 1.9604-0.73467 0.0273-0.11764-1.911 0.27778-5.1753 1.1794-7.2495 0.551-1.2713 1.3813-1.1787 1.7418-0.0228 1.4549 4.6615 3.4935 10.333 4.8087 13.197 0.02504-0.86291 0.24286-2.1562 0.75516-3.5337 0.48118-1.2925 0.81967-1.272 1.464-0.082 0.73239 1.3525 1.2606 2.2685 1.8655 3.2817 0.10929-2.503 1.1172-5.2186 3.0024-8.1064 1.9042-2.9174 3.9367-6.801 5.3749-10.165 0.52975-1.2417 1.3441-1.2986 1.779 0.1024 0.91606 2.9569 1.4018 6.9292 0.76958 9.9218-0.42046 1.99-0.99803 1.8784-0.72253-0.13575 0.37569-2.7542-0.0782-6.4306-0.78324-8.9283-0.14571-0.51609-0.21857-0.50393-0.41514-0.0151-1.1931 2.9614-3.4077 6.9247-5.2231 9.7063-1.9346 2.9637-2.8195 5.4865-3.007 8.3857-0.07287 1.1362-0.45916 1.2348-1.1134 0.28082"/>
   <path d="m74.478 40.014c-0.23983-0.255-0.49711-0.55479-0.68913-0.79385-0.27702-0.34381-0.28385-0.41668-0.21554-0.84624 1.335-8.4221 0.56769-18.29-1.7486-23.808-0.51305-1.2219-0.78248-1.1703-1.297-0.0456-2.2328 4.8846-6.2363 10.316-11.883 16.63l0.12143-1.442c4.7427-5.4379 8.4031-10.53 10.91-15.577 0.98057-1.9733 2.0697-2.0143 3.0115 0.0562 2.6685 5.866 3.2916 15.855 1.842 24.436 0.10929 0.13963 0.20188 0.25197 0.3643 0.43488z"/>
   <path d="m49.483 69.804c-1.5536-3.0411-2.8233-6.9725-2.6199-9.8672l1.0246-0.92364c-0.47283 2.9728 0.87887 7.6798 3.1056 11.584z"/>
   <path d="m88.396 62.802c-10.169 3.8418-21.569 1.0891-30.518-7.415-0.51608 2.5508-0.75895 6.4025-0.55251 9.9119 0.0645 1.1119-0.11082 1.2834-1.0709 0.69216-2.8317-1.7456-6.2629-4.5545-8.2718-7.0272l0.75895-0.5677c1.8678 2.3292 5.2239 5.0531 7.7231 6.7152-0.24666-3.1436-0.0683-7.4112 0.5381-10.306 0.20492-0.97981 0.49712-1.0785 1.2424-0.38782 9.3807 8.6847 21.141 11.416 31.418 6.8655z"/>
   <path d="m35.177 50.475c0.85003 1.993 1.8701 2.8301 3.2309 2.7004 2.5023-0.23377 5.639-3.5458 5.2322-9.6258-3.3956 0.36429-7.6859-1.0565-10.404-2.8544l-0.05843-1.2234c2.5288 1.8367 6.9771 3.4692 10.464 3.1413 0.71266-0.0667 0.86824 0.0486 0.9153 0.81739 0.42122 6.9262-3.1785 10.445-6.0625 10.719-1.0481 0.0994-1.9535-0.31268-2.667-1.0216z"/>
   <path d="m50.34 42.967c3.1572 6.1991 8.6809 7.6639 12.683 5.7286 5.0273-2.4309 6.1642-7.8081 3.1762-14.446-3.816 3.2248-10.599 6.9543-15.859 8.7173m13.092 6.5999c-4.5355 2.1941-10.542 0.58287-13.964-6.3486-0.29827-0.60413-0.21782-0.8394 0.54265-1.105 5.1996-1.8162 11.903-5.5343 15.673-8.6581 0.64055-0.53051 0.94565-0.50091 1.294 0.25577 3.6878 7.9986 1.3358 13.492-3.5458 15.856"/>
   <path d="m35.517 51.671c-6.9186-5.3461-17.066-7.8741-17.835-6.7327-0.66636 0.98814 5.6937 8.9306 13.509 11.001 1.5726 0.41743 1.316 1.0261-0.17532 0.71417-7.8362-1.6378-15.672-10.266-14.409-12.371 1.2371-2.0621 11.694 1.0307 18.317 5.7604z"/>
   <path d="m31.341 56.609c-6.3699-0.37645-10.839 0.62234-10.93 0.89329-0.14571 0.43715 7.2943 7.1858 18.238 4.3184 1.8739-0.49028 2.0613 0.1336 0.20036 0.70735-11.089 3.4183-20.004-3.8942-19.708-5.4007 0.17381-0.87509 5.3916-1.6006 9.9514-1.5065z"/>
   <path d="m38.751 62.463c-3.7409 1.6113-5.485 3.8373-5.3597 4.112 0.21098 0.46829 4.3723 0.52293 7.4787-1.886 1.5627-1.2113 1.9801-0.73998 0.45461 0.56617-3.1542 2.6996-8.4388 3.1777-9.1295 1.861-0.37568-0.71569 1.3783-2.8529 4.3086-4.5256z"/>
   <path d="m34.085 46.831c-11.594-3.2005-18.255-7.9455-28.534-15.753-1.7797-1.3517-2.4142-1.5657-2.6328-1.4086-0.40604 0.29144 0.28157 4.0111 3.8532 9.3913 3.369 5.0751 7.9075 9.1826 13.057 11.73 1.697 0.8394 1.3896 1.4504-0.35291 0.67168-5.2611-2.3528-10.206-6.6249-13.641-11.796-3.1785-4.789-4.9916-9.9977-3.6126-11.026 0.66105-0.47511 1.9179 0.0228 3.9868 1.593 10.1 7.6715 16.394 12.211 27.659 15.49z"/>
   <path d="m24.958 61.536c-9.6182-2.031-16.042-9.1758-17.102-13.342-0.61172-2.4059 0.59806-3.2984 2.5008-2.1759 2.2139 1.3046 4.4543 2.4954 6.6962 3.4684l2.2351 1.7517c-3.4373-1.228-6.3274-2.519-9.455-4.3063-1.0436-0.59578-1.3274-0.36885-0.97601 1.0102 0.81891 3.2202 6.1521 9.6357 14.561 12.318z"/>
   <path d="m37.951 67.55c-7.8605 4.0801-17.357 0.21471-20.19-4.0133-0.70051-1.0458-0.49711-1.6629 0.74909-2.0894 1.1491-0.38933 3.0548-0.76502 4.7101-0.93352l1.6006 0.74379c-2.3072 0.1904-4.5818 0.70126-5.9798 1.1665-0.43412 0.14565-0.45613 0.233-0.22389 0.56465 2.755 3.9458 12.049 7.5691 19.274 3.5489z"/>
   <path d="m47.008 68.131c-2.2488 3.2347-10.918 7.2222-12.349 5.274-0.51002-0.69672 1.2675-4.1378 3.4563-6.8761l1.7464-0.60184c-2.4279 2.6009-4.3329 6.4124-4.09 6.7372 0.59047 0.78929 7.7208-1.5794 10.424-5.0774z"/>
   <path d="m106.12 31.276c5.085-3.4153 10.858-4.8603 11.916-3.2597 1.1908 1.8002-2.7239 7.33-7.7239 11.294-3.7105 2.9394-7.8749 4.9643-12.35 5.5563l0.66712-0.98057c3.9003-0.72783 7.9531-2.9485 11.044-5.3977 5.3848-4.2691 7.8658-8.8259 7.2548-9.7503-0.54569-0.82877-6.5126 0.10026-12.692 5.0228z"/>
   <path d="m101.11 43.675c4.6084 4e-3 8.0434 1.2523 8.3242 2.201 0.32331 1.0906-4.7564 5.6307-8.9374 7.4939-13.107 5.8318-20.304 2.292-24.19-2.0651-4.0817-4.575-4.1439-10.048-0.12752-15.488 5.7468-7.7808 13.278-16.393 17.558-21.045 3.1823-3.4586 6.722-8.3834 8.2392-11.403 0.90088-1.7957 2.0917-2.0568 2.9068 0.0667 2.6556 6.9201 0.69217 14.539-5.0508 21.261-1.4253 1.6682-1.946 1.2288-0.56239-0.47282 5.3817-6.6241 6.9368-13.956 4.6402-20.437-0.2846-0.80373-0.54948-0.81511-1.0124 0.12133-1.4708 2.9736-5.3711 8.2612-8.4358 11.583-3.9845 4.32-11.881 13.474-17.417 20.983-3.6179 4.9066-3.4365 10.202 0.0721 14.135 3.9291 4.405 11.371 7.0112 22.975 1.848 4.0179-1.7873 8.265-5.5958 8.1238-6.3001-0.0744-0.3734-3.5048-1.9437-9.9787-1.5566z"/>
   <path d="m102.75 19.516c4.2501-4.8952 9.2243-9.622 10.713-8.4426 1.5331 1.2158-0.23983 14.444-9.1378 22.85-1.4602 1.3798-1.8503 0.80982-0.51154-0.52822 8.1656-8.1595 9.7662-20.474 8.841-21.276-0.67623-0.58743-5.8485 3.6619-12.398 11.864z"/>
   <path d="m90.94 34.422c4.8307-3.2202 10.629-5.9009 11.729-4.685 1.1088 1.2257-3.9488 10.288-12.285 13.824-1.6363 0.69367-1.8966 0.0682-0.29523-0.67396 7.8134-3.6194 12.036-11.703 11.541-12.335-0.36203-0.4622-5.6383 1.3198-12.042 5.9138z"/>
   <path d="m91.767 42.337c1.5187-0.18437 3.3713-0.9229 5.8788-1.3585 1.6932-0.29524 2.3953 0.3605 1.9308 2.1228-0.6231 2.3657-3.8805 4.9894-9.1742 7.3702-5.7559 2.5873-11.628 3.6521-13.511 1.0792-1.9695-2.6928-1.1088-9.8808 3.098-15.95 4.4072-6.3578 14.297-13.384 15.776-12.123 1.565 1.335-1.6067 8.2331-5.9115 13.081-1.3191 1.4845-1.7957 1.099-0.56846-0.46601 4.3906-5.5988 6.3494-11.183 5.6633-11.66-0.60413-0.41969-9.2281 4.6463-14.152 11.75-4.2517 6.1346-4.405 12.846-3.0244 14.734 1.2925 1.7668 6.9414 1.0162 12.245-1.3684 5.7369-2.5804 8.1496-5.1609 8.5557-6.7 0.20795-0.79084 0.0266-0.9745-0.79462-0.869-2.5691 0.33166-4.6622 1.0853-7.5637 1.4989z"/>
   <path d="m88.314 62.63c10.697 3.8745 23.14 3.8653 32.951-0.0447 1.6446-0.65497 2.4286-0.1009 1.5589 1.5665-2.56 4.9135-11.474 10.553-18.742 10.926-6.9095 0.35366-12.782-1.719-20.077-7.116l0.45158-0.70582c7.2359 5.1396 12.825 7.037 19.566 6.6917 7.3057-0.37342 15.288-5.6952 17.607-9.915 0.24285-0.44248 0.18588-0.49637-0.24895-0.32712-10.272 3.9891-22.883 3.7644-33.671-0.41818z"/>
   <path d="m106.94 74.17c-2.0044-0.28991-3.8213-0.7286-6.1202-1.5672-1.7699-0.64511-1.568-1.2515 0.23148-0.69672 2.4575 0.75668 5.1935 1.3031 7.9371 1.5968z"/>
   <path d="m114.76 71.041c-2.3884 0.28766-5.6747-0.0553-8.3561-0.70582-1.565-0.37872-1.4359-1.017 0.14799-0.71948 2.6442 0.49484 5.828 0.86369 9.767 0.37948z"/>
   <path d="m58.735 73.282c-0.7931 1.2644-1.82 2.6472-2.7254 3.7386-0.89329 1.077-1.3934 0.67622-0.54114-0.43487 0.79235-1.0345 1.6667-2.3292 2.4271-3.5261z"/>
   <path d="m61.411 73.686c-0.86976 1.2538-1.7061 2.5281-2.2594 3.4646-0.81057 1.3699-1.3813 1.0701-0.60717-0.34231 0.49484-0.90239 1.1536-2.0621 1.9543-3.2415z"/>
   <path d="m52.936 79.37c-0.30055-0.18136-0.78324-0.32787-1.4655-0.31649-1.4762 0.0243-3.8805 0.12672-6.001 0.28308-1.1688 0.45766-2.4355 1.2546-3.0798 2.0575-0.82726 1.0299-1.3631 0.8303-1.5619-0.34-0.10473-0.61931-0.12826-1.0633 0.02276-1.5953 0.35291-1.2454 4.3222-3.9397 5.2876-4.2964 0.90619-0.33395 7.2958 0.91302 10.184 0.94338l-0.614 0.80144c-2.5174-0.12521-8.605-1.1513-9.2448-0.89479-1.442 0.57831-4.6273 2.9622-4.8345 3.693-0.09716 0.34153-0.17532 0.76959-0.10626 1.2614 0.04402 0.30207 0.10245 0.30511 0.32407-7.5e-4 0.68534-0.94871 2.0219-1.8799 3.2058-2.4074 0.16469-0.0736 0.30206-0.0942 0.5176-0.11015 2.0902-0.14802 4.4558-0.23375 5.8978-0.25804 0.86065-0.0129 1.5999 0.19126 2.1911 0.68988z"/>
   <path d="m59.178 76.351c1.6629 0.97526 4.3792 2.0204 5.8121 2.4742 0.83105 0.26259 1.2553 0.7377 1.5308 1.5892 0.36733 1.1339 0.0956 2.5622-0.71645 3.6134-0.83258 1.0762-1.2576 0.96616-1.6614-0.2626-0.43489-1.3228-1.4686-2.5577-2.2495-2.7937-0.84016-0.25501-3.2035-0.0699-4.5537 0.13811-1.6606 0.25576-4.4224 1.7813-6.9642 4.6539-0.56694 0.96159-1.0709 1.9885-1.6097 3.3682-0.64056 1.6409-1.1453 1.6553-1.9429 0.11079-0.37644-0.72935-0.61779-1.4511-0.73315-2.4021-0.09184-0.74908 0.78324-3.2992 1.2735-4.4717 0.11764-0.28157 0.19429-0.37113 0.53962-0.55176 1.7585-0.92365 3.8031-2.0492 5.4258-3.1049 1.1855-0.77034 1.5323-0.24969 0.36278 0.56845-1.6484 1.1544-3.747 2.4188-5.4986 3.3652-0.59198 1.3578-1.3213 3.6134-1.2766 4.0915 0.07362 0.78703 0.25729 1.5536 0.53127 2.1759 0.32331 0.73164 0.44626 0.68153 0.66484-0.0234 0.40832-1.3153 0.86597-2.377 1.4321-3.4358 0.10626-0.19814 0.18216-0.28613 0.34912-0.4698 2.2397-2.4605 5.1366-4.3875 7.308-4.7222 0.91226-0.13898 3.8001-0.46448 4.9362-0.12069 1.3479 0.40833 2.2154 1.9247 2.6654 3.4229 0.11916 0.39845 0.19657 0.41667 0.44019 0.0622 0.5935-0.86444 0.74074-2.053 0.44778-2.9569-0.17303-0.53582-0.4364-0.84548-0.93958-1.0049-1.4633-0.46295-4.2319-1.4967-5.9995-2.5653z"/>
   <path d="m79.387 82.724c-1.905 0.78703-4.537 1.9619-6.1521 2.8392-1.2029 1.0716-2.1615 2.7816-3.0715 4.6918-0.63297 1.3282-1.228 1.1643-1.4549-0.19125-0.31572-1.8852-0.403-4.8307 0.11308-5.7422 0.71038-1.2546 6.7107-4.8262 9.0702-6.1642 1.4048-2.3429 2.4666-4.855 3.2726-6.8655-0.18747-0.31952-0.38707-0.65801-0.67699-1.1293l0.93427-0.13511c0.17381 0.28613 0.31877 0.53659 0.45082 0.76427 0.21706 0.37492 0.22238 0.50622 0.0994 0.81361-0.79539 1.9854-1.8617 4.5158-3.2643 6.8571-0.13889 0.23148-0.29751 0.38328-0.49104 0.49257-3.8479 2.1888-8.1663 5.0068-8.6225 5.8121-0.28689 0.50622-0.4402 2.985-0.22314 4.9719 0.0304 0.28233 0.12371 0.33622 0.25729 0.0172 0.68761-1.6507 1.6788-3.6012 2.9341-4.7662 0.14193-0.13123 0.2201-0.17684 0.40453-0.27397 1.6667-0.88722 4.2919-2.0363 6.1521-2.8036z"/>
   <path d="m81.957 90.886c-0.318-1.2819-0.60109-2.6047-1.058-3.8957-1.2424-2.0067-2.2237-4.3268-2.1987-6.127 0.0213-1.549 0.65042-1.5445 0.6823 4e-3 0.0311 1.4693 1.0724 3.7819 2.1524 5.4736 0.13433 0.20954 0.19504 0.35216 0.27095 0.61323 0.34001 1.162 0.64966 2.5417 0.83181 3.7834 0.0569 0.38176 0.18898 0.44778 0.30965 0.0493 0.57984-1.9171 0.92593-4.3496 0.82574-5.2011-0.17835-1.505-1.1923-4.9248-1.9057-6.568-0.57149-1.3145-4e-3 -1.5801 0.62007-0.28914 0.80221 1.6598 1.9824 5.2284 2.1729 6.7592 0.10626 0.8508-0.38403 3.6733-1.0747 5.551-0.64359 1.7517-1.2371 1.4261-1.6287-0.15339"/>
   <path d="m82.548 74.996c0.86445-0.43869 1.8336-0.79919 2.3087-0.77565 0.31572 0.0151 0.83105 0.24968 1.6249 0.88644 1.0898 0.87509 0.91605 1.2553 0.0183 1.6371-1.4595 0.61929-2.78 1.7296-3.838 3.3022l-0.39846-0.90164c1.1058-1.4268 2.4871-2.4636 3.9504-3.0297 0.22313-0.0873 0.26639-0.15555-0.13814-0.44551-0.56011-0.40224-1.0428-0.56996-1.2576-0.58059-0.42198-0.0194-1.3752 0.25425-2.5326 0.85306z"/>
   <path d="m83.52 70.539c-0.18291-0.26791-0.58288-0.85306-0.78855-1.1582l0.63979-0.56845c0.22238 0.33165 0.66409 0.96994 0.8599 1.2553 0.28536 0.41667 0.34456 0.71722 0.21251 1.2356-0.34001 1.3502-0.82346 2.6283-1.3517 3.6414-0.44171 0.84699-0.48648 1.1233-0.43563 1.3586 0.21782 1.017-0.42198 1.19-0.67775 0.13876-0.10245-0.41969-0.0949-0.89936 0.41818-1.8997 0.44854-0.87431 0.92972-2.1175 1.2212-3.4434 0.0569-0.25578 0.041-0.35747-0.0979-0.56011"/>
  </g>
  <path d="m41.511 44.903c0.28612 3.9078-0.9411 5.3703-2.2366 5.4053-1.2637 0.0334-2.7353-2.2184-2.6988-5.3673 0.04402-3.8304 1.3509-5.7529 2.4537-5.7825 1.042-0.0273 2.2139 2.0864 2.4818 5.7445" fill="#e50021"/>
  <path d="m39.788 42.607c0.06981 1.1468-0.42122 1.7418-0.7969 1.7646-0.38707 0.0234-0.90847-0.6618-0.98436-1.7744-0.07059-1.039 0.39921-1.7372 0.87507-1.7213 0.43109 0.0129 0.83637 0.59502 0.90619 1.7312" fill="#fff"/>
  <path d="m61.577 40.619c0.89708 3.7629-0.58819 5.6011-1.9482 5.9252-1.6773 0.39996-3.9739-1.543-4.7002-4.5886-0.79159-3.3227 0.69065-5.7764 2.1592-6.127 1.3699-0.32561 3.6399 1.2264 4.4892 4.7905" fill="#e50021"/>
  <path d="m58.83 38.886c0.27853 1.3449-0.28082 2.0697-0.82802 2.1828-0.5677 0.11768-1.3532-0.52294-1.6014-1.7198-0.2459-1.1893 0.24666-2.1076 0.8766-2.1888 0.63145-0.082 1.3115 0.56088 1.5528 1.7259" fill="#fff"/>
  <path d="m53.018 47.663c-0.7969-0.38632-2.7436-1.4701-3.2369-1.8845-0.49332-0.41591-1.0603-1.3047-1.3995-1.9665-0.65194-1.269-2.4271-1.4048-3.4305 0.47208-2.6533 4.9605-4.984 9.8573-6.59 15.567 1.9452-1.5551 4.1834-3.2331 6.4716-4.8945 0.4789 2.0772 1.1802 4.2812 1.5892 5.3043 1.9725-1.212 5.2087-4.8118 6.1202-6.4238 0.38099-0.67546 0.41515-1.6811 0.75895-2.3975 0.31724-0.6618 1.0868-1.7259 1.1157-2.0902 0.0478-0.60715-0.37265-1.1885-1.3988-1.6864" fill="#939494"/>
  <path d="m44.833 54.957c0.34608 1.8526 0.869 3.4874 1.5892 5.3036 1.9057-1.8329 5.806-7.3748 5.954-10.558-2.0006 1.2538-4.8892 3.2369-7.5432 5.2542" fill="#ed8599"/>
  <path d="m52.498 49.508c-0.32559 2.3952-2.8446 7.1842-4.7412 9.3716 2.5956-1.7668 4.9605-4.9476 5.1419-5.8675 0.23376-1.1817 0.49332-1.6378 1.0747-2.6305 0.4364-0.74377 0.50319-1.7835-0.27702-2.2822-0.7802-0.49862-1.9998-1.1119-2.8423-1.5976 0.97905 1.4762-1.2029 4.3291-4.6334 7.1016 2.2829-1.5893 4.4467-2.8514 6.2773-4.0953" fill="#656464"/>
  <path d="m46.822 56.987c-0.08197-1.1567 0.22161-3.1793 1.0891-4.2653 0.74909-0.56314 3.1072-2.1759 4.4459-2.9903-0.42729 3.4472-3.8107 8.6589-6.0185 10.603 0.33774-0.76046 0.48649-2.1926 0.48345-3.3477" fill="#ce7486"/>
  <path d="m85.262 64.283c-0.0918 2.3239-1.2553 4.427-3.0138 5.4546-1.2196 0.71264-4.1052 0.61475-5.872-0.85459-1.1445-0.95249 8.9314-5.7468 8.8858-4.6" fill="#ded255"/>
  <g fill="#0f141b">
   <path d="m41.066 44.929c-0.28157-3.8403-1.3904-5.3787-2.0385-5.3605-0.77565 0.0194-1.9611 1.7046-2.0029 5.381-0.03795 3.2992 1.4352 4.9764 2.2328 4.9559 1.0876-0.0288 2.0811-1.2576 1.8086-4.9764m0.89177-0.0493c0.29599 4.043-1.1582 5.8022-2.673 5.8439-1.5073 0.0402-3.1884-2.264-3.1481-5.7893 0.0478-4.1689 1.4929-6.149 2.8825-6.187 1.3062-0.0342 2.6472 2.1486 2.9387 6.1323"/>
   <path d="m61.146 40.714c-0.79159-3.3227-2.8005-4.7594-3.9632-4.4824-1.3244 0.32029-2.5235 2.6503-1.8169 5.617 0.6823 2.8635 2.7762 4.6281 4.1674 4.2957 1.3638-0.32634 2.4066-2.0993 1.6128-5.4303m0.86521-0.19664c1.0117 4.2448-0.81512 6.0785-2.2898 6.4268-1.8845 0.45081-4.4513-1.6067-5.2299-4.8755-0.76882-3.2301 0.56694-6.1794 2.5015-6.6393 1.735-0.41439 4.1416 1.4079 5.0182 5.088"/>
   <path d="m46.514 59.857c1.9194-1.3729 4.5492-4.474 5.6481-6.2485 0.38479-0.62157 0.47131-1.7995 0.75744-2.3672 0.3309-0.65498 1.0162-1.5103 1.0519-1.9232 0.04251-0.50393-0.18594-0.87354-1.1141-1.3236-0.82119-0.39921-2.796-1.4815-3.3432-1.9019-0.71797-0.55176-1.1437-1.2454-1.5551-2.0408-0.49788-0.96234-1.8473-0.95628-2.61 0.47586-2.2632 4.2312-4.7116 8.9458-6.483 14.453 3.8365-3.0115 9.6334-7.2336 13.484-9.723 1.3312-0.86141 1.6894-0.33243 0.36961 0.55935-3.6953 2.497-8.8934 6.3767-13.588 10.056-1.4853 1.1642-1.6887 0.87962-1.1597-0.90164 1.6894-5.6944 4.1963-10.532 6.5422-14.927 1.1324-2.1236 3.4388-2.116 4.2896-0.43791 0.37872 0.74605 0.72025 1.4147 1.2363 1.8488 0.4622 0.3886 2.3649 1.4405 3.1474 1.82 1.3107 0.63679 1.7395 1.3335 1.6742 2.097-0.03946 0.45461-0.83561 1.5786-1.1703 2.2472-0.25501 0.51231-0.34229 1.6917-0.75971 2.4393-0.87887 1.5733-4.2759 5.3028-6.3509 6.5771z"/>
   <path d="m46.168 57.303c-0.22844-0.68762-0.35595-1.2956-0.4493-1.9824-0.18822-1.3813 0.35974-1.4845 0.66484-0.14564 0.11839 0.52291 0.24286 0.87506 0.43336 1.3327 0.7506-1.401 1.3957-2.4582 2.1979-3.5193 0.99651-1.3168 1.4238-1.0064 0.55935 0.40301-0.7673 1.2508-1.3259 2.2814-2.1387 3.8456-0.62386 1.1999-0.91833 1.1187-1.2675 0.066"/>
   <path d="m82.478 70.173c-1.6181 0.96616-4.1333 0.42197-5.5707-0.56542-1.2978-0.89176-0.93123-1.4671 0.39466-0.62007 1.3342 0.85231 3.6035 1.0223 4.7237 0.3681 1.206-0.70507 2.6025-2.5182 2.8021-4.4498 0.13205-1.2781 0.7673-1.2508 0.73315 0.0342-0.0554 2.1213-1.483 4.2881-3.0829 5.233"/>
   <path d="m52.985 49.305c-0.66257 3.4145-3.155 8.0229-5.9214 10.889-0.74377 0.76959-0.84851 0.68915-1.1969-0.15253-0.54493-1.3115-1.1134-3.2013-1.3881-4.8922l0.73467-0.51837c0.27854 1.8192 0.90543 3.6438 1.3585 4.8596 2.4841-2.588 4.641-6.423 5.5168-9.6084z"/>
  </g>
 </g>
</svg>
