<?xml version="1.0" encoding="UTF-8"?>
<!-- Created with Inkscape (http://www.inkscape.org/) -->
<svg version="1.1" viewBox="0 0 175.73 172.69" xmlns="http://www.w3.org/2000/svg">
 <g transform="translate(-2.8067 -3.2126)">
  <g fill="#223464">
   <path d="m129.03 158.73c-0.10493 0.35884 0.0553 0.72612 0.44598 1.0793 1.797 1.6293 4.2106 3.9145 5.8034 5.7622 0.57715 0.66991 0.92475 0.5481 0.8751-0.34854-0.14241-2.5532-0.73643-5.8558-2.3245-8.8044-0.37852-0.7027-0.74861-0.88353-1.6087-0.59964z"/>
   <path d="m95.176 70.893c1.4963 1.738 3.0731 3.3102 5.1269 4.8233-0.29513 0.11805-0.53966 0.23985-0.68584 0.34666-0.44598 0.3298-1.1758 1.4888-1.6087 2.4894-0.27358 0.63337-0.18833 1.3117 0.30544 2.0116 1.0925 1.5488 2.8848 3.4676 4.3296 4.8252 0.67928-1.3239 1.4532-2.5766 2.4782-3.9051 0.68022-0.88165 1.3792-1.2995 2.9635-1.6884 2.9504-0.72238 6.2456-1.8504 8.2253-2.8661 1.1412-0.58558 2.1437-1.3398 2.9373-3.1247 4.3998-9.8837 11.878-22.778 18.042-31.211 9.9877-13.667 13.474-23.268 16.777-37.418 0.44505-1.9029 1.4138-2.3742 2.571-0.68396 5.1119 7.4683 6.0788 13.006 3.4957 24.771-2.3676 10.777-8.3734 21.913-14.726 29.423 12.781-11.98 19.163-21.75 23.037-33.328 0.57154-1.7052 1.7324-2.0922 2.5354-0.26516 2.972 6.7675 3.298 18.122-1.323 24.619-5.4811 7.7063-13.546 15.243-20.535 19.782 11.688-5.1737 19.009-10.126 26.93-17.723 1.4663-1.4054 1.9123-1.0353 2.1306 0.56216 0.6671 4.8955-1.7577 12.193-6.8003 17.16-4.7315 4.6612-10.562 8.2844-16.284 10.251 5.8465-1.2264 13.505-4.0785 18.593-6.4002 2.2336-1.0203 2.9926-0.51438 2.1971 1.8467-3.819 11.325-17.232 15.55-27.932 15.74 4.7924 1.0016 11.23 1.0934 16.038 0.46284 1.5291-0.19956 2.3208 0.4057 0.84324 2.1868-3.7749 4.5526-11.221 7.1863-19.239 7.3165-8.7941 0.14334-16.161-1.4213-20.958-4.6406 1.2724 2.2974 1.5141 3.8452 1.0728 4.2125-0.8751 0.72987-3.8499-0.41975-5.7771-2.5119 0.90882 2.0378 1.4288 3.8686 1.1074 4.2668-0.29326 0.36353-2.6234-0.10587-4.5432-1.0972 1.6368 1.9188 2.8736 3.4676 4.7559 5.957 6.5838 5.9702 12.26 11.858 16.806 17.161-1.4185-0.16865-4.9086-0.55373-6.5801-0.83668l-19.463-10.89-12.837-15.387-8.8465-21.307c0.51625-0.12554 1.1468-0.21735 1.6602-0.1752 0.91632-1.2967 2.2692-3.3636 3.1809-4.7549"/>
   <path d="m107.52 92.659c-3.1996-0.21269-6.2325-1.6734-8.0914-5.4942 0.8704-1.5562 1.8364-3.1959 2.7705-4.7137 0.32605-0.52937 0.2258-0.72894-0.51438-0.75517-4.8327-0.17239-9.2653-3.09-11.351-5.8718-2.1194 0.56498-3.9848 2.3873-4.2171 4.71-2.8586-1.3914-6.9427 0.0112-10.054 2.2374-0.73361 0.52562-1.4822 1.1815-2.2055 1.9142-0.3729 1.8561-2.2262 4.4008-4.4251 6.3102-0.11617 0.27171-0.21736 0.53686-0.30076 0.79264-0.14522 0.44411-0.24548 0.41694-0.38695 0.16491-0.04967-0.089-0.0993-0.18363-0.14804-0.2764-0.60245 0.4591-1.219 0.86292-1.828 1.1843-0.6418 0.33823-0.68584 0.54342-0.33074 0.93599 1.1337 1.2527 2.9354 2.1268 5.5317 1.9029-0.93881 2.9991-2.5194 6.314-4.7072 8.319-0.54904 0.50314-0.47034 0.70739 0.22487 0.89197 1.1627 0.30731 2.5916 0.27639 4.1169-0.36072-0.15553 2.6206 1.901 7.5039 6.3749 9.2166 1.0269 1.2649 2.3086 2.3508 3.8433 3.3289 0.59027 0.37571 0.79358 0.23144 1.0794-0.42162 1.4476-3.3111 3.5444-5.8868 7.0589-9.3544-0.16676 1.0925-0.26328 2.213-0.26609 3.2643-3e-3 0.82263 0.2155 0.94349 0.83012 0.24267 3.2099-3.6587 10.107-10.901 8.5383-16.481 2.5719 2.0191 6.1519 1.5965 8.7819-0.728 0.82918-0.73268 0.67927-0.8929-0.32418-0.95942"/>
  </g>
  <path d="m86.117 80.533c-2.8576-1.3914-6.9427 0.0112-10.053 2.2374-0.25861 0.18458-0.51813 0.38601-0.77766 0.60057-0.29045 2.4688 0.14522 6.0395 0.79265 7.8262 0.4441 1.2264 0.81325 2.6262 0.74767 3.7103-0.0394 0.66803 0.47128 0.91913 2.0688-0.0328 4.5563-2.7143 9.9203-9.2148 10.131-11.152 0.14711-1.3464-0.24548-4.6669-0.75798-6.8799-1.1552 0.87978-1.9994 2.1784-2.1512 3.6906" fill="#525557"/>
  <path d="m85.029 80.149c-2.2177-0.5275-4.918 0.23422-7.3156 1.5778-0.82263 3.3758-0.68865 6.8256 0.42162 10.243 0.29044 0.89383 0.45816 1.2433 0.77578 1.3239 2.6487-3.0713 5.5363-8.3649 6.1182-13.144" fill="#ed8599"/>
  <g fill="#223464">
   <path d="m131.21 48.282c-0.67178-0.64461-1.099-0.4591-1.3876 0.18644-2.511 5.5954-6.2025 12.81-10.426 18.983-2.764 4.0401-7.3812 8.4165-10.796 10.345-1.6022 0.12368-2.9635-0.61463-3.7702-1.5825-0.79733-0.95755-1.3745-1.0784-2.1118-1.0765-0.87323 3e-3 -2.5916 0.54998-3.1003 0.92569-0.44598 0.32886-1.1758 1.4888-1.6087 2.4894-0.27358 0.63337-0.18832 1.3117 0.30544 2.0116 1.0915 1.5469 2.8839 3.4685 4.3286 4.8252 0.70926-1.3154 1.5994-2.8539 2.2055-3.595 0.92101-1.1271 1.6059-1.6499 3.2371-1.9985 1.0765-0.23047 4.679-1.2995 6.5763-2.0978 2.9045-1.2218 3.7965-2.0397 4.754-4.2256 2.9973-6.8396 9.7422-18.874 13.057-23.908-0.46097-0.4872-0.91164-0.94537-1.263-1.2827"/>
   <path d="m99.17 97.152c3.9988 2.0144 9.7001 4.9095 10.248 5.6375 0.40475 0.53499 0.99315 2.0247 1.2405 3.6925l-2.4838 26.419c-0.47409 1.6762-0.95099 3.1266-1.3155 3.3627-0.76641 0.49657-9.4696 0.90695-19.009-3.1678-7.16-3.0572-15.899-12.037-16.307-13.293-0.32699-1.0063 0.71769-6.9511 1.5469-10.216z"/>
   <path d="m110.19 106.55c-2.5288 1.3998-6.2044 19.901-3.7243 24.368 2.6824 4.8308 18.253 10.87 19.71 9.6204 1.3164-1.129 7.2987-20.245 5.542-23.67-2.4182-4.71-20.022-11.152-21.528-10.318"/>
   <path d="m87.85 133.1c-4.174-1.783-8.884-5.5776-12.169-8.6826-1.0269 3.5182-2.1259 9.9268-1.7577 11.242 1.605 5.7303 14.192 13.627 15.649 13.25 1.1346-0.29326 7.9021-7.1432 9.9652-12.639-3.3018-0.41975-7.4093-1.3436-11.687-3.1706"/>
   <path d="m101.61 136.45c3.7815 1.4747 9.3918 2.0997 14.161 1.0494-2.6112-1.159-5.8137-3.0113-7.5985-4.5966-0.4488 1.6303-0.93507 3.1069-1.3155 3.3626-0.5884 0.39539-3.0057 0.4591-5.2468 0.18459"/>
   <path d="m67.262 104.02c1.9844-1.693 4.0063-5.734 4.7072-8.319-2.3133 0.11899-4.5601-0.44036-5.6235-2.05-0.20052-0.3045-0.19582-0.50126 0.95473-1.129-3.0544 0.69145-4.6641 0.33167-6.1875-0.74674-1.8411-1.3033-3.165-1.9591-5.4127-3.269-12.919-7.5301-35.691-25.178-44.617-34.866-1.2012-1.3033-1.6649-1.174-1.9713 0.47971-0.67084 3.6184-0.78047 6.8331 0.1321 9.5277 2.7012 7.9733 13.697 22.073 25.073 27.987-9.9671-3.3992-21.431-10.189-29.119-15.065-1.4766-0.93693-2.407-0.47315-2.1072 1.2883 2.6806 15.775 20.691 25.33 35.369 24.504-8.4343 2.4351-20.049 3.461-26.946 1.9863-1.8298-0.39071-2.4585 0.45066-1.2546 1.9872 7.7812 9.9381 19.016 12.643 32.995 5.8118-7.0495 5.4108-13.273 8.9852-19.415 9.2054-1.6134 0.0581-2.1259 0.96973-1.1018 2.2599 4.5385 5.72 18.474 4.4964 26.782-1.3276-1.8514 3.4442-4.8196 8.0989-7.0504 10.188-1.1749 1.1-1.2143 2.0547 0.45816 2.2037 7.0907 0.63337 19.88-8.2347 27.021-20.846 0.06279 2.8127 0.75704 4.1216 1.5328 4.8037 0.23611-2.422 0.91164-6.4292 1.6068-9.047-0.67272-1.1421-1.5516-3.2643-1.485-5.036-1.4719 0.54904-3.1622 0.81232-4.3005 0.32418-0.44879-0.19207-0.48252-0.47877-0.04122-0.85542"/>
   <path d="m39.644 75.097c-0.61369-0.46472-0.95286-0.28576-1.2424 0.19207-0.21457 0.35417-0.4338 0.71863-0.65492 1.0878 8.5945 6.7066 20.322 13.439 23.113 15.241 2.2233 1.4354 3.5322 1.5197 6.5773 0.86198 1.6912-1.0419 3.2783-2.5869 4.3596-3.9436-8.1551 2.0463-20.851-4.8777-32.153-13.439"/>
   <path d="m76.894 152.99c0.20426 0.51906 0.59776 0.7383 1.1599 0.41881 0.56403-0.32044 2.006-0.83481 2.6178-0.95099 0.93038-0.17802 1.2171-0.51813 0.84887-1.3558-1.6359-3.7252-6.1041-5.809-9.1004-5.6432-0.74955 0.0412-0.87416 0.19207-0.34573 0.72425 1.7924 1.8045 3.803 4.2246 4.8196 6.8068"/>
   <path d="m72.06 156.55c0.41413 0.31575 0.63899 0.40195 1.0409 0.0806 1.0241-0.81607 2.0791-1.6884 2.7555-2.2805 0.36447-0.31949 0.44785-0.58746 0.0618-1.1-0.95849-1.2705-2.2955-2.1381-3.8873-2.4426-1.8729-0.3579-5.0669-0.27077-7.4093 0.0562-0.90976 0.1265-1.1412 0.41037-0.15271 0.91913 2.109 1.0868 5.5148 3.1865 7.591 4.7671"/>
   <path d="m71.626 158.23c0.21457-0.68303 0.10305-0.91726-0.58277-1.1-4.7784-1.2667-9.6261 1.2602-11.287 3.3945-0.56591 0.72894-0.36634 1.069 0.50126 0.9969 3.06-0.25297 6.3177-0.25579 8.6516 0.34666 0.5809 0.14897 1.0812 0.0159 1.3417-0.48439 0.58465-1.1243 1.0831-2.2205 1.3754-3.1537"/>
   <path d="m89.302 166.72c-0.3551-1.1121-1.6153-1.427-2.9785-0.81045-1.7268 0.78141-2.3227 1.664-1.7511 2.6356 1.1805 2.0078 3.0881 5.0566 4.1918 6.6522 0.47596 0.68584 0.87322 0.63712 0.99034-0.43005 0.25953-2.3798 0.23236-5.9027-0.45254-8.0473"/>
  </g>
  <path d="m132.5 132.38c-0.48533-0.46847-1.6593-1.5178-2.6122-2.3517-0.41693 2.0903-1.5516 5.2731-2.3789 7.606-0.46472 2.0688-0.9791 4.324-1.4897 6.12l-1.8954 4.4664c-0.70457-0.57153-1.649-1.2461-2.4023-1.6677l-4.3446 3.6166c-0.98003-0.21924-1.9198-0.0141-2.7049 0.38321l1.9001 4.2602c0.2942 0.12273 0.65118 0.23799 0.98379 0.32043l2.8642 0.42443c1.278 0.624 2.8455 0.90133 4.4439 0.99783 1.1215 0.0675 2.5578 0.74393 3.9183 1.9844 0.7027 0.6418 1.7455 0.6165 2.4079 0.23704 0.62025-0.35604 1.0334-0.89759 1.3361-1.6387 0.23797-0.58184-2e-3 -1.0662-0.64649-1.7043-0.36446-0.36072-0.55091-0.84043-0.5837-1.4166-0.0759-1.3304-0.22767-2.8305-0.48065-4.2265-0.0263-1.8504 0.0347-3.4713 0.19675-4.3389 0.55185-2.9476 1.5066-7.8581 2.1465-11.245 0.14897-0.79077-0.12647-1.3126-0.65866-1.827" fill="#525557"/>
  <g fill="#223464">
   <path d="m129.69 148.55c0.52093-1.1431 0.4188-2.1859-0.46566-3.12-1.1187-1.1815-2.3058-1.9891-2.9673-1.7905-0.92569 0.2792-1.9254 1.5572-2.0247 3.2362-0.20049 3.3514 0.0862 5.9167 1.0484 8.6816 0.2689 0.77109 0.48908 0.87697 0.9791-0.0122 1.277-2.3161 2.6122-5.199 3.4301-6.9952"/>
   <path d="m123.18 151.4c0.75424-0.95755 0.7889-1.9441 0.23611-2.9795-0.87697-1.6434-2.5672-2.7312-3.7684-2.1877-2.6637 1.2049-2.8754 6.4002-1.5469 11.866 0.27734 1.1459 0.53968 1.2892 1.0063 0.15179 1.2489-3.046 2.258-4.5479 4.0728-6.8509"/>
   <path d="m117.08 153.83c0.40288-1.01 0.21643-1.782-0.67928-2.3264-2.0013-1.218-3.1884-1.634-3.9604-1.307-1.099 0.46566-1.723 4.0794-1.3061 5.72 0.55467 2.1821 1.3501 4.4401 1.9413 6.1163 0.36634 1.04 0.69614 0.95192 1.0222-0.0384 0.86947-2.645 2.0116-5.734 2.9823-8.1644"/>
  </g>
  <path d="m87.687 165.57c-0.56216-1.1665-1.0615-2.5728-1.2658-3.7187-0.1321-0.74112 0.0347-1.1965 0.89384-2.0088 5.1194-4.844 11.15-11.1 13.497-15.579 0.46285-0.88259 0.27734-1.322-0.4872-2.1615-0.58934-0.64555-1.3932-1.5553-2.4342-2.5841-1.1777 2.0444-3.6746 5.1391-6.0517 7.5498-2.4707 3.253-5.9833 6.7412-8.438 8.8344-0.90695-1.0484-1.8186-2.3376-2.3836-3.5529-0.94537 0.21269-2.4267 0.75892-3.3355 1.1965 0.89196 1.2845 2.1484 3.3299 2.4267 4.174-1.0925-1.1112-2.7696-2.6244-4.0925-3.5913-0.69801 0.64742-1.8289 1.6172-2.867 2.4098 1.1749 0.77485 2.2065 1.5684 3.1818 2.4304-1.4813-0.45254-3.1537-0.8245-4.6809-1.0962-0.16958 0.85917-0.74861 2.3217-1.3173 3.3233 1.4026 0.39163 2.868 0.86291 3.7562 1.248 1.1112 0.48159 2.0706 0.78609 3.1659 0.81795 2.9345 0.0843 4.6406 0.58933 7.1451 4.1694 0.39351-0.85542 2.0182-1.783 3.2868-1.8608" fill="#525557"/>
  <g fill="#16254f">
   <path d="m133.83 156.41c-0.37853-0.7027-0.74861-0.88353-1.6087-0.59964l-0.11524 0.10586c1.5544 2.8736 2.9139 6.6813 3.328 9.8116 0.48346 0.47315 0.76548 0.29982 0.71957-0.51344-0.14148-2.5531-0.7355-5.8558-2.3236-8.8044"/>
   <path d="m126.37 155.34c-0.7964-3.5772-1.07-8.231 0.32793-11.707-0.16398-0.0328-0.31294-0.0337-0.4413 5e-3 -0.92569 0.2792-1.9254 1.5581-2.0256 3.2362-0.19956 3.3524 0.0862 5.9177 1.0494 8.6816 0.26797 0.7711 0.48815 0.87791 0.97816-0.0112 0.0375-0.0675 0.074-0.1368 0.1115-0.20426"/>
   <path d="m120.81 146.16c-0.40757-0.0974-0.80576-0.0815-1.1609 0.0787-2.6646 1.2058-2.8764 6.4011-1.5478 11.867 0.27827 1.1449 0.54062 1.2883 1.0063 0.15085 0.0909-0.22017 0.17988-0.43005 0.26796-0.63618-0.72893-4.7034-0.208-8.6095 1.4344-11.461"/>
   <path d="m113.75 150.21c-0.54062-0.15271-0.96598-0.1546-1.308-9e-3 -1.1 0.46472-1.723 4.0794-1.307 5.72 0.5556 2.1821 1.3511 4.4401 1.9423 6.1163 0.36634 1.0391 0.6952 0.95193 1.0222-0.0384 0.06-0.18551 0.12462-0.37571 0.18833-0.56497-1.3052-4.3446-2.1896-8.5495-0.5378-11.224"/>
   <path d="m87.898 165.62c0.71207 3.1575 1.2508 7.1498 1.1702 9.9259 0.33448 0.26796 0.59589 0.0553 0.68677-0.77391 0.25953-2.3789 0.23236-5.9027-0.45254-8.0473-0.20893-0.65397-0.73268-1.0297-1.4045-1.1046"/>
   <path d="m71.043 157.13c-4.7784-1.2667-9.6261 1.2602-11.287 3.3945-0.56591 0.728-0.36634 1.069 0.50126 0.9969 0.39258-0.0328 0.78702-0.0609 1.1833-0.0843 2.2468-1.9057 5.7472-3.164 9.9652-2.5756 0.08151-0.21735 0.15646-0.42911 0.22017-0.63149 0.21457-0.68396 0.10305-0.91819-0.58277-1.1"/>
   <path d="m75.918 153.25c-0.95848-1.2705-2.2946-2.1381-3.8873-2.4426-1.872-0.35791-5.0669-0.27077-7.4093 0.0562-0.90976 0.1265-1.1402 0.41037-0.15271 0.91913 0.66054 0.34011 1.4485 0.77953 2.2824 1.2714 3.0432-0.45254 6.1547-0.0684 8.8147 1.5469 0.10212-0.0881 0.20052-0.1724 0.29045-0.25109 0.36447-0.3195 0.44879-0.58746 0.0618-1.1"/>
   <path d="m81.521 151.1c-1.6368-3.7252-6.1051-5.8099-9.1014-5.6432-0.74861 0.0412-0.87322 0.19207-0.34479 0.72424 0.37946 0.38134 0.76829 0.79265 1.1552 1.2255 3.0713 0.728 5.9861 2.6131 7.3606 5.0651 0.0281-6e-3 0.0562-0.0122 0.0815-0.017 0.93037-0.17709 1.2171-0.51718 0.84886-1.3548"/>
   <path d="m131.94 117.5c-6.7459 0.19396-13.071 1.1852-18.77 5.2581 2.7274 5.2393 8.2254 13.707 13 17.78 1.0822-1.1412 6.3702-16.74 5.7696-23.038"/>
   <path d="m82.533 130.05c-1.5722 0.31762-3.7112 1.2058-5.0698 2.2486 2.2992 6.0844 6.5932 12.49 12.637 16.379 2.4313-2.005 7.6866-7.5798 9.3834-12.407-6.8593-1.0784-12.531-2.9954-16.951-6.2203"/>
   <path d="m76.506 122.15c5.2037 5.6347 12.97 10.758 19.007 12.147 3.2558 1.1609 7.9977 1.9713 11.346 1.9629-6.8874 0.82076-13.986-0.76922-19.57-3.4039-5.7528-2.7143-14.664-10.496-15.747-13.057 1.308 0.68208 3.6016 1.8411 4.9639 2.3508"/>
  </g>
  <g fill="#5876b8">
   <path d="m98.452 135.2c-5.5691-3.06-9.909-8.0651-12.212-12.136 4.9742-2.8099 15.58-10.587 21.169-16.407-6.5445 5.1072-17.4 13.727-21.875 14.537-0.88447-1.4588-1.3642-4.754-1.3867-6.9998-0.62588 1.0222-1.2255 2.1999-1.3848 2.703-0.15928 0.5022-0.49377 0.45723-0.93975 0.1977-1.6415-0.9538-3.0816-2.3761-4.0438-3.5191-1.5544-0.38601-3.639-2.0931-4.6903-3.9895-0.59683 2.5278-1.7596 8.32-1.5459 10.215 3.2268 1.9488 7.7325 3.759 11.138 4.0822 0.63337 0.06 1.1356 0.22766 1.6172 0.81232 4.3886 5.3237 8.6844 9.5183 14.153 10.504"/>
   <path d="m38.198 75.628c10.123 8.0454 21.84 15.524 31.739 14.911 0.70551-0.66147 1.3426-1.3529 1.8608-2.0032-8.1551 2.0463-20.851-4.8777-32.154-13.438-0.61275-0.46472-0.95192-0.2867-1.2414 0.19114-0.06746 0.11057-0.1368 0.22674-0.20426 0.33918"/>
   <path d="m108.73 77.724c3.3767-2.0069 7.9386-6.2821 10.668-10.272 4.2237-6.1735 7.9152-13.388 10.426-18.984 0.25016-0.55841 0.60432-0.77203 1.1309-0.40007-5.7359 12.69-10.942 23.094-19.662 29.297-4.7128 3.3514-6.3693 3.2512-8.7903 0.97629-0.62212-0.58465-1.2068-0.43287-1.7708 0.0431-0.40475 0.34011-1.0006 0.93694-1.4007 1.3895-0.35604 0.40194-0.7636 0.64086-1.1656 0.55466-0.35697-0.6165-0.3982-1.2143-0.15553-1.7755 0.43287-1.0016 1.1627-2.1606 1.6087-2.4894 0.35978-0.26609 1.3248-0.61744 2.1681-0.80108 0.25485 0.11338 0.36446 0.34666 0.54904 0.62119 2.1671 3.2296 3.8311 3.3636 6.3936 1.8401"/>
   <path d="m77.397 125.98c-0.58277-0.51344-1.1402-1.0213-1.6602-1.5122-0.30544 3.0656 9e-3 6.3843 0.85917 8.7575 2.0416 5.6956 8.8362 13.437 13.338 15.497 0.0375-0.0244 0.074-0.0478 0.11524-0.0768-6.9914-5.2056-12.405-16.007-12.652-22.665"/>
   <path d="m126.31 140.37c-4.4382-4.8692-10.018-13.655-12.087-18.436-1.709-3.9464-4.159-11.284-4.5957-14.837-0.1546 0.21361-0.31107 0.47784-0.46847 0.78702-0.28202 4.7915 0.77672 10.955 2.956 15.534 3.1481 6.6148 8.6029 13.245 13.79 17.235 0.11243-0.0272 0.20238-0.0665 0.26516-0.11991 0.0421-0.0365 0.089-0.0909 0.14055-0.16302"/>
   <path d="m81.249 152.29c0.45629-0.20987 0.5481-0.55841 0.27264-1.1862-1.6368-3.7252-6.1051-5.8099-9.1014-5.6441-0.74861 0.0422-0.87322 0.193-0.34479 0.72519 0.16023 0.16116 0.32324 0.32886 0.48627 0.50032 3.3523 0.39351 6.9511 2.2318 8.6873 5.6047"/>
   <path d="m76.006 154.19c0.22674-0.26046 0.23611-0.51812-0.0881-0.94911-0.95849-1.2705-2.2946-2.1372-3.8873-2.4426-1.8729-0.35697-5.0669-0.27077-7.4093 0.0562-0.90976 0.1265-1.1412 0.41038-0.15271 0.91914 0.38133 0.19674 0.80576 0.4263 1.2555 0.68021 3.5725-0.64648 7.3802-0.53311 10.282 1.7361"/>
   <path d="m71.043 157.13c-4.7784-1.2667-9.6261 1.2602-11.287 3.3945-0.56591 0.728-0.36634 1.069 0.50126 0.9969 0.0029 0 0.0056 0 0.0085-9.3e-4 2.7771-2.6534 6.9661-4.0457 11.37-3.3252 0.19863-0.65585 0.08151-0.88633-0.59214-1.0653"/>
   <path d="m113.18 150.1c-0.28483-0.0234-0.53031 7e-3 -0.74299 0.0974-1.1 0.46565-1.723 4.0794-1.307 5.72 0.5556 2.1831 1.3511 4.4411 1.9423 6.1172 0.32512 0.92288 0.62119 0.95568 0.91164 0.25765-1.0756-3.1247-1.7436-5.3302-1.931-6.6625-0.31481-2.2468 0.23611-4.5348 1.1271-5.5298"/>
   <path d="m120.2 146.1c-0.19208 0.013-0.37852 0.0543-0.55373 0.13306-2.6637 1.2058-2.8764 6.4011-1.5478 11.867 0.21549 0.88446 0.42162 1.1684 0.71862 0.72799-0.95098-5.8961-0.47408-10.037 1.3829-12.728"/>
   <path d="m126.22 143.65c-0.91726 0.29701-1.8964 1.5647-1.9957 3.2249-0.19956 3.3524 0.0862 5.9177 1.0494 8.6816 0.1977 0.56966 0.37009 0.77484 0.64461 0.48533-1.1056-5.2731-1.1346-9.2447 0.30169-12.392"/>
   <path d="m132.74 155.69c1.6987 3.1509 2.9701 7.5498 3.105 10.294 0.22392 0.03 0.34011-0.22673 0.31013-0.77016-0.14241-2.5541-0.73643-5.8558-2.3236-8.8044-0.29232-0.54248-0.57996-0.77297-1.0915-0.71956"/>
   <path d="m88.375 165.73c0.57341 2.5719 1.323 7.2144 0.96598 9.9231 0.2005-0.0189 0.34948-0.29607 0.41413-0.88259 0.25953-2.3798 0.23236-5.9027-0.45254-8.0473-0.15646-0.48908-0.48908-0.82356-0.92757-0.99315"/>
  </g>
  <g fill="#16254f">
   <path d="m30.41 89.298-0.36728 0.74955 3.6531 1.3342z"/>
   <path d="m67.281 117.99c0.93038-0.31481 2.1999-1.0587 2.9364-1.5937-0.17239-0.75517-0.28764-1.6809-0.26796-2.5634-0.89664 1.5534-1.649 2.7565-2.6684 4.1572"/>
   <path d="m131.08 144.96c2.0275 0.61745 4.056 0.97254 6.2765 1.1393 0.41131 0.5556 0.83762 1.1084 1.2761 1.6509 3.5828 0.31668 7.547 0.31762 11.321-0.16772 0.55841-2.1465 1.2855-6.0563 1.3183-9.0311-0.44692-0.16865-0.92288-0.3373-1.4138-0.50594 0.24267-2.4566 0.35229-4.5423 0.29326-6.5098-0.48252-0.0647-1.0063-0.14241-1.5525-0.22767 0.0366-2.1877 0.0244-4.1225-0.18925-6.4236-5.2656-0.0684-11.423-0.66148-16.888-1.4766-0.38321 2.0875-0.94256 4.4176-1.5628 6.6728 0.99409 0.87885 2.0538 1.8074 2.5775 2.3302 0.52468 0.52281 0.74392 1.2143 0.54061 2.1606-0.62775 2.927-1.5666 8.0183-1.9966 10.389"/>
   <path d="m126.14 143.17c-0.56965-0.83013-1.0812-1.664-1.6415-2.5635 0.84418 0.13774 1.4391 0.12462 1.6724-0.0749 0.25486-0.21832 0.68396-1.1103 1.1983-2.4323-0.44879 2.1943-0.68677 3.3926-1.2293 5.0707"/>
  </g>
  <path d="m71.798 88.537c-8.1551 2.0463-20.851-4.8777-32.153-13.439-0.55092-0.41694-0.88072-0.31482-1.1515 0.0562 13.879 10.642 24.535 15.661 32.53 14.284 0.27733-0.30451 0.53967-0.60807 0.77391-0.90133" fill="#a2bbe1"/>
  <path d="m53.277 86.797c5.4473 3.031 11.668 5.214 15.037 4.3596l0.28296 0.52c-0.31294 0.24923-0.8573 0.60807-1.2958 0.84417-3.1209 0.67085-4.4935 0.46379-6.4405-0.90226-2.0125-1.412-5.0482-3.0675-7.5835-4.8215" fill="#16254f"/>
  <path d="m88.946 83.992c0.29326-1.2527 0.0675-3.6419-0.70645-7.1066-1.0503 0.83949-1.9404 2.1006-2.0987 3.6334-0.38508-0.17802-0.77859-0.34198-1.158-0.38883-7e-3 0.35417-0.0356 0.77016-0.12273 1.2302 0.32887 0.0422 0.67741 0.12368 1.0344 0.2586 0.29701 0.11149 0.64367 0.12273 0.91444 0.0806 1.56-0.24174 1.7352 2.7471-0.78608 6.7553 1.2302-1.4176 2.6712-3.388 2.9232-4.4626" fill="#38383a"/>
  <path d="m77.674 81.704c-1.1571 5.0163-0.0347 10.306 1.1627 11.61-0.60152 0.72706-1.3248 1.5263-1.9338 1.9816-0.19114-0.3401 0.21831-1.3117-0.70832-3.7655-0.73175-1.9385-1.4026-6.1013-0.8929-8.201 0.6924-0.54717 1.3838-0.9969 2.3723-1.6246" fill="#38383a"/>
  <path d="m77.663 90.324c-0.0226-3.476 2.987-6.195 6.2325-5.6741 0.46285-1.2386 0.92101-2.9673 1.0878-4.5198-2.08-0.54999-5.3415 0.33635-7.309 1.574-0.48815 2.2814-0.71582 5.3855-0.0112 8.6198" fill="#ce7486"/>
  <g fill="#16254f">
   <path d="m96.109 71.918c-0.11242 2.4613-1.2733 5.482-3.3861 6.3196-0.78234-0.62213-1.8739-1.6537-2.3676-2.4276 0.50969-0.11712 1.0775-0.15646 1.678-0.14241 1.2246-1.783 2.3817-3.5285 3.1415-4.71 0.25953 0.30169 0.63711 0.66148 0.93412 0.96036"/>
   <path d="m91.681 77.419c-0.56778-0.56591-1.0147-1.1468-1.3258-1.6087-0.68865 0.15928-1.5544 0.61838-2.1156 1.0747 0.58465 2.5606 0.98285 6.1528 0.71863 7.2575-0.56216 2.3461-8.0904 10.551-11.636 11.411 3.0076 0.81138 12.509-7.8281 13-11.564 0.18084-1.3764 0.15367-2.9813-0.0272-4.6903-0.0909-0.85449 0.17614-1.8242 1.3857-1.8804"/>
   <path d="m69.938 90.647c2.1212-0.87791 4.2855-2.1615 5.3602-3.5828-0.0797-1.0044-0.17521-2.8146 4e-3 -3.7356-0.47128 0.37852-0.96692 0.86198-1.5497 1.4775-0.36634 1.9516-1.8626 3.7712-3.8143 5.8408"/>
   <path d="m72.028 105.63c3.3317 0.72331 9.5492-2.0444 13.056-5.1588 0.54342-0.48252 0.90695-0.41413 0.88446 0.4769-0.0459 1.8298-0.505 3.8114-1.2461 5.2899-0.2942 0.58558-0.22955 0.71956 0.29326 0.27546 1.5984-1.3539 3.5098-2.629 5.6179-3.8124 2.9841-1.6762 5.8549-5.4886 6.6363-9.9718 0.20331-1.1646 0.74486-1.4804 1.7483-0.57527 2.6899 2.4285 6.6691 2.4004 9.3047 0.73268-1.1402 2.2955-6.136 4.1113-9.2522 1.4626 1.2283 5.036-3.5444 11.067-8.6114 16.569-0.5378 0.58465-0.7711 0.40008-0.77016-0.22205 2e-3 -1.0213 0.0487-2.1643 0.25765-3.3702-3.2465 3.0956-5.6375 6.0751-7.0617 9.4696-0.30263 0.72144-0.61088 0.624-1.1459 0.27546-1.7165-1.1178-3.0001-2.1934-3.9595-3.4929-3.0188-0.66897-6.2578-5.1897-6.2775-8.9693-2.6084 0.84698-4.3211 0.48533-4.6078-0.0984 2.8576-0.19489 8.0595-3.238 11.205-6.6447-1.5422 4.398-6.1304 7.2359-6.0713 7.7644"/>
   <path d="m66.213 93.339c1.4532 1.0016 3.2896 1.396 4.8318 1.2096 0.84324-0.10212 1.3061 0.38789 1.1159 1.1721-2.7068 0.42068-5.1897-0.96785-5.9477-2.3817"/>
   <path d="m72.247 93.337c1.0325 1.1946 2.9373 2.0978 4.3558 2.2009 1.0531 0.0759 1.2433 1.0222 0.50689 1.4551-3.3805-0.38415-4.9114-2.9626-4.8627-3.6559"/>
   <path d="m102.39 81.864c-1.1843 1.0184-2.6206 2.467-3.7918 3.9126-0.54623 0.6746 0.0122 1.5094 0.74487 1.4354 1.2808-2.3751 2.5278-4.0194 3.0469-5.348"/>
   <path d="m99.197 81.385c0.50595-0.22862 1.1459-0.77016 1.7717-1.456 0.57527-0.63243 0.8601-0.66803 1.5637-0.0469 0.9107 0.80295 1.7661 1.1318 3.0188 1.0597-0.80857 0.9182-2.0041 2.7499-2.9129 4.4411-0.3907-0.39632-0.97535-0.96691-1.3951-1.3792 0.33729-0.5706 0.75517-1.2049 0.97535-1.5638 0.21924-0.35791 0.13491-0.73924-0.34386-0.74861-0.97816-0.0178-1.6659-0.11616-2.6778-0.30638"/>
   <path d="m102.64 85.383c-0.71957 1.4682-1.3379 2.941-1.8074 3.9913-0.56872-0.67553-1.1093-1.5722-1.4007-2.2009 0.49095-0.94443 1.2658-2.2805 1.812-3.1696 0.51718 0.55561 0.89289 0.90695 1.396 1.3792"/>
   <path d="m111.37 78.837c4.0279-2.0182 7.8702-6.1238 11.144-11.849-1.2264 2.3751-2.5644 5.1307-3.0591 6.3861-1.2499 3.1771-3.0272 3.9051-8.0848 5.4633"/>
  </g>
  <path d="m129.82 48.469c-2.511 5.5954-6.2025 12.81-10.425 18.984-2.7302 3.9895-7.2922 8.2647-10.669 10.272-2.5625 1.5235-4.2256 1.3895-6.3936-1.8401-0.18458-0.27453-0.29419-0.50876-0.5481-0.62213-0.84418 0.18365-1.8092 0.53593-2.169 0.80108-0.44598 0.3298-1.1758 1.4888-1.6087 2.4894-0.15741 0.36541-0.193 0.7458-0.10212 1.1365 0.31106-0.16583 0.62306-0.56778 0.78703-0.84698 0.36072-0.61088 0.97534-1.7886 1.2208-2.0294 0.24456-0.24078 0.95098-0.56591 1.2349-0.62681 0.39164-0.0843 0.59683 0.0487 0.86666 0.41693 1.9114 2.6112 3.6653 3.6484 6.9455 1.6415 9.5061-5.8174 15.193-15.883 21.635-30.347-0.33636-0.07495-0.58464 0.14992-0.7739 0.57153" fill="#a2bbe1"/>
  <g fill="#16254f">
   <path d="m124.6 111.42c-4.709-2.4426-10.232-4.1815-13.957-4.9723-0.23144-1.3586-0.84793-3.15-1.1927-3.6241-0.4947-0.67647-7.7054-4.4233-10.163-5.5907 0.0843-0.97816 5e-3 -1.9676-0.21457-2.8895 4.1197 3.3533 9.6326-0.66616 9.2522-1.4626-0.1546-0.32606-4.7784 0.0346-7.5639-3.5219 0.89477-2.139 2.0847-4.427 3.0113-5.9402 0.17147 0.90882 1.3089 1.486 1.8804 0.7205 0.80577-1.0794 2.2768-2.1259 3.1818-2.5925 1.3529-0.69707 3.6653-1.5132 5.9608-1.6312 30.189-1.545 57.71-9.6551 63.456-26.77 0.34386 5.3583-2.0303 11.401-7.0626 16.438-4.0775 4.0813-9.5014 7.8356-16.307 10.212 5.2094-1.0915 11.869-3.4704 18.98-6.5117 2.0434-0.87416 2.5888-0.25486 2.2964 0.85448-2.4679 9.3506-12.223 16.182-27.819 16.773 3.6259 0.95942 10.797 1.1 15.556 0.47128 1.8917-0.24923 1.9957 0.73737 1.4195 1.5422-2.5859 3.6119-7.9593 6.6513-14.257 7.4898-9.1838 1.2236-19.945 0.19115-26.424-4.1675 1.3089 2.6759 1.678 3.7627 1.0822 4.2724-0.66804 0.57153-3.9117-0.48439-5.8914-2.7096 0.80202 1.5759 1.6237 4.1047 1.1974 4.4289-0.49189 0.37383-4.2321-0.4769-5.9673-2.0416 0.14711 0.40944 0.32418 0.921 0.38321 1.2349 1.4223 1.5684 3.2587 3.9782 4.902 6.3234 1.5534 1.2133 2.8876 2.3517 4.2612 3.6653"/>
   <path d="m40.571 78.471c16.41 24.055-8.6076 38.823-25.949 32.399 8.2844 7.1113 19.523 5.8652 28.454 1.3511-8.3584 6.5529-14.067 8.9308-19.193 9.1595-1.8907 0.0843-2.0847 1.1412-1.2246 2.1812 4.9995 6.0414 19.274 4.1441 26.562-1.0925-0.76079 2.3526-4.9011 8.1879-6.5407 9.8172-1.6406 1.6284-1.2349 2.3273 0.63993 2.4342 7.1704 0.40663 20.377-9.3506 26.63-20.891-0.14336 1.5853 0.49002 4.0644 1.589 4.8027 0.23799-2.4407 0.99502-6.8546 1.5422-9.0723-0.81794-1.2602-1.5525-3.1912-1.5778-4.9545-2.333 0.90321-4.4045 0.41413-4.6078-0.0974-0.17614-0.44317 2.8267-1.5637 4.9845-8.8062-1.9685 0.18833-4.5544-0.4769-5.4511-1.9498-0.26516-0.43568-0.34385-0.67647 0.87228-1.2321-3.0066 0.71113-4.5582 0.41038-6.1369-0.65586-3.0272-2.0453-13.321-7.7438-20.593-13.393"/>
   <path d="m125.66 98.594c0.89945 0.10212 2.2683 0.0778 3.2896-0.11338-1.4363-0.6165-2.9888-1.3351-4.3136-2.2243 0.44972 0.76548 0.74298 1.5113 1.0241 2.3376"/>
  </g>
  <g fill="#38383a">
   <path d="m90.396 148.89c0.9791 1.7858 0.9791 3.1518-6e-3 4.3146-1.5956 1.8842-2.7152 3.0104-4.4898 4.591-0.77953 0.69426-1.4344 0.65866-1.9816 0.0815-1.2358-1.3042-2.9092-3.5988-3.8574-5.2674-0.64648 0.193-1.6499 0.57528-2.3779 0.93694 2.229 3.3158 2.7208 4.2837 2.2927 5.0997-0.96598-0.94256-3.3448-2.9082-4.6612-3.7852-0.92194 0.73362-1.5769 1.2705-2.1652 1.679 1.3651 0.91726 3.2914 2.4819 4.3258 3.5313-1.7699-0.48814-4.3286-1.1224-6.0563-1.3342-0.34666 0.86947-0.68864 1.649-1.0859 2.4594 1.4026 0.40101 3.0563 0.97629 4.1619 1.4551 1.1056 0.47784 2.1999 0.60713 3.3917 0.62119 2.4913 0.0281 4.4832 1.2012 6.5145 4.16 0.65304-1.0438 2.1334-1.8355 3.2858-1.8617-0.59121-1.2798-1.0794-2.6347-1.2433-3.4357-0.16397-0.80108-0.0337-1.5103 0.73362-2.2037 4.7109-4.2593 11.112-10.954 13.728-15.847 0.34666-0.6493 0.074-1.2911-0.57997-1.9816-0.65398-0.68864-1.5094-1.6415-2.4341-2.5841-1.2742 2.4098-4.8674 6.5257-6.3749 7.8852-0.416 0.55466-0.7383 0.95192-1.1206 1.486"/>
   <path d="m127.45 138.02c1.1337 0.56497 1.7034 1.5338 1.6153 3.0891-0.0834 1.4691-0.30263 2.4866-0.59495 3.5706 1.3239 1.1299 1.7811 2.3452 2.2852 4.6847-0.10212-3.1078 1.025-9.1492 2.3161-14.786 0.22954-0.99784 0.0778-1.4972-0.54061-2.1606-0.61838-0.66335-1.6856-1.5722-2.5775-2.3302-0.87322 2.8661-1.6321 5.4426-2.5035 7.9321"/>
   <path d="m115.55 151.01c0.51625-0.15646 1.1908-0.26703 1.738-0.19396-0.0159 0.3551-0.0234 0.96879-2e-3 1.5066-0.28858-0.4844-1.0231-0.99877-1.7361-1.3126"/>
   <path d="m116.67 154.91 0.80951 0.17333-0.17707-1.7212z"/>
   <path d="m124.17 149.78-0.40382 0.0328c-0.0478 0.72519-0.31199 1.2911-0.91819 1.9788-0.60526 0.68771-1.8167 2.4791-2.4285 3.7637 1.2077 0.6062 2.9879 0.94443 4.2574 0.99035 1.2696 0.0459 2.9157 0.89008 4.2743 2.1353 0.65773 0.60432 2.0041 0.5734 2.9738-0.55092 0.8648-1.0025 0.8395-1.797 0.19957-2.4117-0.60339-0.57902-0.82263-1.2574-0.85542-1.8935-0.13211-2.5222-0.66054-5.5588-1.2733-7.1066 0.0356 0.94912-0.16864 1.4391-0.51812 2.2318-0.7992 1.8092-2.4566 5.2468-3.3898 6.7984-0.26984 0.44786-0.56684 0.46847-0.73549-0.0122-0.60714-1.7343-1.1421-3.9838-1.1824-5.9561"/>
  </g>
  <path d="m72.996 109.6c0.46472 1.857 2.109 3.5379 4.5066 4.679 1.5525 1.901 3.8508 4.0466 5.0323 4.1253l-0.16772-1.0878c-0.93599-0.30826-3.61-2.3264-4.5882-3.7393-1.694-0.62025-3.2802-1.8336-4.783-3.9773" fill="#4c66a1"/>
  <path d="m88.109 110.65c0.42256-0.40663 0.54249-0.35791 0.56685 0.074 0.0347 0.59964 0.11617 1.173 0.21268 1.6734 0.23329 1.2171 0.50688 1.219 1.5544 0.26609 5.4117-4.9161 9.1623-10.061 9.9193-14.935-0.42536-0.21643-0.8067-0.42162-1.1815-0.59402-0.50126 3.9445-3.8105 8.2872-8.721 13.785-0.40569 0.45442-0.75704 0.3448-0.76548-0.33167-0.0104-0.89852 0.044-2.1193 0.25298-3.2605-2.4323 2.2917-4.4982 4.9039-5.7978 6.968 9e-3 0.54998 0.044 1.1571 0.10493 1.7839 1.0559-2.0294 2.5044-4.13 3.8546-5.4295" fill="#16254f"/>
  <path d="m83.098 116.19c-0.31106 0.68115-0.53124 1.0428-0.73081 1.1234l0.16772 1.0878c0.41787-0.15178 0.88446-0.57247 1.1824-1.2293 0.16302-0.35978 0.34386-0.728 0.53686-1.099-0.0609-0.62587-0.0956-1.233-0.104-1.783-0.44692 0.70926-0.80389 1.3558-1.0522 1.9001" fill="#4c66a1"/>
  <path d="m83.984 122.64c-0.57153-1.3258-0.92475-2.5991-1.2517-4.2143l-0.32324 0.0412c0.11617 1.4794 0.32418 3.0207 0.4947 4.0888 0.0684 0.43286-0.0694 0.53311-0.44786 0.50594-3.4254-0.25108-7.8459-1.8879-10.93-3.4732 0.0048 0.0759 0.0093 0.14803 0.017 0.21549 3.2277 1.9479 7.7325 3.758 11.138 4.0813 0.63337 0.0609 1.1365 0.22766 1.6172 0.81232 4.3895 5.3237 8.6844 9.5183 14.153 10.504-4.561-1.307-9.5876-5.6769-13.434-10.77-0.17895-0.23703-0.22017-0.52281 0.0178-0.65585 6.8387-3.8442 18.087-12.398 22.373-17.117-5.0454 4.2996-14.758 12.29-22.606 16.43-0.41787 0.22018-0.66522-0.0956-0.81794-0.44879" fill="#a2bbe1"/>
  <path d="m88.331 121.81c2.4192 4.6088 7.2041 10.644 12.141 13.821 1.8561 0.25765 4.5142 0.5303 6.3871 0.63524 0.40756-0.52749 1.0053-1.9769 1.3164-3.3626-1.8195-1.6856-2.3704-2.9832-2.4876-5.006-0.33167-5.749 1.5666-17.24 3.8377-20.661 0.31388-0.47221 0.66991-0.81419 1.1159-0.7814-0.19863-1.2564-0.37009-1.9198-0.77391-2.8258-5.6694 7.2097-13.93 13.048-21.536 18.181" fill="#16254f"/>
  <path d="m101.56 75.283c0.3401-0.059 0.57152 0.2689 0.77203 0.60151 2.1203 3.5182 4.323 3.1837 6.2138 1.9404-1.6706-0.0431-2.9626-0.56497-3.7787-1.664-0.80202-1.0775-1.7408-1.248-3.2071-0.87791" fill="#5876b8"/>
  <path d="m75.736 124.47c-0.30544 3.0656 9e-3 6.3833 0.85917 8.7575 2.0416 5.6947 8.8362 13.436 13.338 15.497 0.013-8e-3 0.0281-0.0189 0.0412-0.0272-6.566-4.3745-10.929-10.612-12.828-15.655-0.92756-2.4641-1.2733-5.453-1.1028-8.2834z" fill="#a2bbe1"/>
  <path d="m125.91 140.65c0.0824-0.0197 0.14896-0.0497 0.20612-0.0834-5.4829-4.4654-10.977-11.862-13.465-17.438-2.2711-5.0913-3.3608-10.059-3.4348-15.348-0.0167 0.0337-0.0347 0.0656-0.0525 0.10026-0.28202 4.7915 0.77672 10.955 2.956 15.534 3.149 6.6148 8.6029 13.245 13.79 17.235" fill="#a2bbe1"/>
  <path d="m132 119.39c1.0794 1.1478 2.7358 2.9588 4.174 4.6725-1.3389-0.22017-3.0675-0.44036-4.6547-0.65117 0.21361-1.1496 0.41694-2.822 0.48065-4.0213" fill="#16254f"/>
  <g fill="#0f141b">
   <path d="m30.666 89.443c-0.12087 0.23048-0.24078 0.4591-0.35885 0.6849l-0.53218-0.20894c0.1368-0.2586 0.27546-0.51999 0.41694-0.78515z"/>
   <path d="m37.557 76.205c0.21268-0.35228 0.42162-0.69988 0.62775-1.0409 0.39164-0.64461 0.92382-0.76641 1.5984-0.26421 8.0904 6.0245 22.773 15.696 32.137 13.354l-0.49938 0.64554c-9.3328 2.1709-23.882-7.3559-31.913-13.581-0.46659-0.36165-0.6521-0.31481-0.93881 0.16302-0.19675 0.32793-0.39539 0.6596-0.59495 0.99502z"/>
   <path d="m74.133 84.538c-0.43942 2.8146-3.9511 6.7159-7.2537 8.5083-0.48721 0.26327-0.49376 0.38882-0.28952 0.60619 1.0363 1.1028 2.6234 1.9826 5.1953 1.8486 0.40476-0.0215 0.44973 0.0506 0.31575 0.47409-0.94068 2.9645-2.4435 6.1997-4.6931 8.2178-0.34479 0.31013-0.28858 0.39539 0.16209 0.51438 1.2293 0.32605 2.6047 0.27358 4.3923-0.48815 0.78047-0.33261 0.89665-0.0956 0.13866 0.28296-1.6293 0.81513-3.3177 1.0456-4.6659 0.62212-0.89758-0.28201-0.9894-0.62306-0.32699-1.2667 2.2308-2.1709 3.6681-5.289 4.5666-7.9293-2.5475 0.16583-4.2855-0.74112-5.4174-1.9919-0.4413-0.48814-0.52094-0.80482 0.40007-1.2695 3.09-1.5609 6.2034-5.3012 6.819-7.5723z"/>
   <path d="m72.446 106.38c-0.71675-0.41319-0.93506-0.86198-0.11805-1.4972 2.2046-1.7155 4.2884-4.1675 5.3696-6.448 0.45722-0.96598 0.67272-0.86292 0.2867 0.13399-0.87697 2.2664-3.1003 4.9648-5.3977 6.6794-0.45816 0.34198-0.4235 0.50782 0.08058 0.7533 1.6884 0.82169 4.4851 1.1721 6.7469 0.29232 0.87697-0.34198 0.98471-0.0918 0.12272 0.28202-2.3133 1.0053-5.2599 0.86198-7.0907-0.19582"/>
   <path d="m76.352 97.006c-1.9769-0.26983-3.6035-1.8561-4.2762-3.1059-0.28764-0.53218-0.16583-0.81701 0.62962-0.97254 0.88259-0.17239 1.7305-0.48908 2.6019-0.98004 0.65304-0.36915 0.78327-0.17146 0.16771 0.25765-0.77109 0.5378-1.7942 0.97535-2.6778 1.159-0.42443 0.0881-0.4413 0.13399-0.32699 0.33823 0.65586 1.1758 2.0528 2.5747 3.9351 2.9944 0.98284 0.21925 0.93412 0.44411-0.0534 0.30919"/>
   <path d="m88.473 76.679c0.56216 2.422 0.92195 5.646 0.7889 7.0664-0.1874 1.9985-5.5204 8.4746-10.268 11.303-1.976 1.1777-2.4248 0.59215-2.3808-0.14147 0.0684-1.1346-0.28576-2.3405-0.74955-3.6381-0.66428-1.8579-1.0962-5.1972-0.8423-7.6772l0.52468-0.44598c-0.35978 2.556 0.10494 6.2156 0.73456 7.9817 0.44504 1.2461 0.80764 2.6562 0.75142 3.7768-0.0234 0.47034 0.29326 0.66803 1.7586-0.20427 4.5694-2.7237 9.7835-9.1623 9.9868-11.02 0.13959-1.2827-0.17614-4.4261-0.73831-6.7066z"/>
   <path d="m85.243 80.202c-0.47034 5.0248-4.0794 11.329-7.2125 14.255-0.64649 0.60433-0.88166 0.44224-0.21832-0.22298 2.9954-3.0057 6.3477-8.9824 6.9933-14.139z"/>
   <path d="m78.771 93.457c-0.34667-0.13117-0.52375-0.48064-0.83294-1.4307-1.1046-3.4029-1.3089-6.7974-0.5022-10.182l0.55935-0.29607c-0.81325 3.4301-0.78515 6.9127 0.33449 10.356 0.33823 1.0409 0.4516 1.2105 0.73174 1.2377z"/>
   <path d="m78.204 114.07c-4.7887-1.5122-7.0195-6.7403-6.8649-9.4256l0.51063-0.19114c-0.18084 2.4594 1.7521 7.1226 5.8961 9.0002z"/>
   <path d="m89.898 107.69c-3.045 3.0338-5.2974 5.7069-6.7722 9.0789-0.40663 0.9285-0.75517 1.0119-1.4663 0.55841-3.3702-2.1465-5.3021-4.7381-6.1716-8.037-0.27453-1.0409-0.0347-1.1131 0.30543-0.0918 1.0897 3.2727 2.9036 5.5813 6.1388 7.6426 0.37477 0.23892 0.4947 0.23799 0.73268-0.30732 1.531-3.5013 3.8742-6.2128 7.3418-9.5736z"/>
   <path d="m99.329 94.545c1.4082 5.378-4.6687 11.961-8.6273 16.437-0.8348 0.94349-1.2517 0.66522-1.2377-0.40101 0.0244-1.7671 0.27546-3.6475 0.78422-5.4848 0.22298-0.8067 0.47877-0.73362 0.29888 0.0843-0.39445 1.798-0.63618 3.699-0.64087 5.4033-2e-3 0.48065 0.10494 0.49283 0.45348 0.0984 4.0316-4.5554 10.019-11.27 8.4071-16.565z"/>
   <path d="m90.577 75.75c2.1165 2.7986 6.4236 5.5579 11.104 5.7247 0.94911 0.0337 1.1402 0.37853 0.69146 1.1084-0.94631 1.5375-1.8664 3.09-2.7077 4.5919 1.5993 3.2427 4.2003 4.9695 7.8581 5.2581 1.4026 0.11056 1.4241 0.50875 0.46191 1.3595-2.9663 2.6225-6.9923 2.8005-9.4836 0.28483-0.5987-0.60526-0.42255-0.79733 0.2155-0.23423 2.481 2.1915 6.1472 2.1231 8.9843-0.38414 0.49751-0.44036 0.4516-0.53312-0.21082-0.57528-3.7412-0.23518-6.4817-2.0847-8.1991-5.4876-0.11242-0.22392-0.10493-0.27171 7e-3 -0.47315 0.83948-1.5113 1.7867-3.0703 2.7143-4.5769 0.19675-0.3195 0.17988-0.41225-0.3448-0.43099-4.8224-0.1724-9.4059-3.0666-11.617-6.0348z"/>
   <path d="m95.344 70.726c1.7399 2.0219 3.3739 3.536 5.2393 4.8974l-0.57997 0.22487c-1.7867-1.322-3.2474-2.7396-4.9217-4.6753z"/>
   <path d="m98.811 77.003c-1.6246-1.322-3.179-3.0525-4.5095-4.665l0.25579-0.39258c1.337 1.6143 2.8895 3.3589 4.5282 4.7137z"/>
   <path d="m100.5 85.215c0.48065 0.61838 0.94631 1.2086 1.3876 1.7568l-0.1977 0.48533c-0.4413-0.55841-0.90133-1.1468-1.3726-1.7568z"/>
   <path d="m96.308 80.389c-1.3745-1.8598-2.7087-3.7065-3.8648-5.3518l0.28108-0.38976c1.2836 1.828 2.8127 3.9539 4.3633 6.0526z"/>
   <path d="m98.42 81.164c-0.11524-0.15271-0.22487-0.30169-0.32886-0.44879-0.50876-0.7205-0.68958-1.4232-0.32887-2.2571 0.40476-0.936 1.2246-2.214 1.7258-2.585 0.5303-0.39071 2.3255-0.96879 3.2427-0.97254 0.89196-2e-3 1.4775 0.20987 2.2683 1.159 0.91539 1.0981 2.3808 1.7108 4.027 1.4747l-0.81514 0.50876c-1.5431 0.0234-2.9017-0.85917-3.5838-1.679-0.70176-0.84137-1.1112-0.99128-1.9048-0.98846-0.83855 3e-3 -2.4838 0.53311-2.9607 0.8854-0.40756 0.30075-1.0775 1.366-1.5169 2.3845-0.26421 0.61088-0.16958 1.1393 0.28482 1.7839 0.2108 0.29888 0.44505 0.609 0.69615 0.92475z"/>
   <path d="m101.37 83.785c0.47877 0.49938 0.95379 0.96972 1.3932 1.3848l-0.23422 0.44786c-0.43192-0.40476-0.90882-0.87229-1.396-1.3707z"/>
   <path d="m103.81 89.569c0.98941-1.7764 2.0463-3.3842 2.9804-4.5516 1.1384-1.4232 1.783-1.9498 3.5716-2.5953 1.4766-0.53311 2.6572-0.86853 3.8798-1.1496 0.94349-0.21739 1.0072 0.0149 0.089 0.29982-1.2236 0.37945-2.3798 0.78702-3.7702 1.3286-1.7221 0.66991-2.3367 1.114-3.3936 2.421-0.91445 1.1299-2.0303 2.7405-3.0853 4.4036-0.42068 0.66335-0.67365 0.56591-0.27171-0.15646"/>
   <path d="m101.36 87.757c0.98003-2.3976 1.917-4.249 3.5294-6.4414 0.63618-0.8676 1.3792-1.3745 3.1134-1.7989 3.0582-0.74954 6.2362-1.8626 8.157-2.8473 1.3304-0.68302 2.1016-1.4541 2.7949-3.0122 4.3764-9.8341 11.697-22.618 18.051-31.238 10.032-13.608 13.498-23.33 16.836-37.297 0.56966-2.3845 1.8411-2.4126 2.972-0.75985 5.3265 7.7822 6.1397 13.335 3.5838 24.976-2.5166 11.456-9.4265 24.421-17.602 32.434-0.94631 0.92663-1.1374 0.728-0.21925-0.22862 7.8403-8.1663 14.75-20.943 17.256-32.35 2.5166-11.46 1.7905-16.981-3.4086-24.576-0.94537-1.382-1.724-1.2086-2.1465 0.62868-3.2633 14.22-6.8003 23.823-16.745 37.554-6.1369 8.4755-13.66 21.345-18.029 31.163-0.71489 1.6068-1.4288 2.3957-3.0647 3.2352-1.9376 0.99502-5.2094 2.1156-8.2862 2.8698-1.6172 0.39538-2.2402 0.80951-2.8455 1.5947-1.7071 2.2168-2.6 3.9089-3.6475 6.2269-0.31387 0.69333-0.59963 0.60432-0.29888-0.1321"/>
   <path d="m146.09 57.768c11.266-10.739 18.018-20.367 22.137-32.473 0.67834-1.991 2.1015-2.2449 2.9645-0.28014 2.9785 6.7815 3.4357 18.211-1.2977 24.866-6.3608 8.943-16.802 18.335-24.956 22.209-0.89103 0.42256-1.0016 0.15553-0.13585-0.28483 8.0857-4.1197 18.283-13.344 24.621-22.254 4.3942-6.1772 4.3802-17.435 1.3361-24.366-0.70645-1.6078-1.5909-1.3314-2.1072 0.26139-3.9735 12.247-10.99 22.256-23.868 34.124z"/>
   <path d="m149.91 68.94c10.204-4.7015 17.65-9.3806 26.001-17.335 1.4438-1.3764 2.1887-1.3005 2.4932 0.69989 0.75142 4.9414-1.7333 12.391-6.8237 17.404-7.533 7.4205-18.566 12.646-27.126 11.759-1.0344-0.10775-1.0147-0.3804 0.0226-0.31668 8.4268 0.51531 18.816-4.101 26.688-11.855 5.2571-5.1784 7.3709-12.458 6.79-16.935-0.20519-1.575-0.57621-1.5459-1.7474-0.41787-8.261 7.9564-16.01 13.079-27.913 18.117z"/>
   <path d="m156.19 79.293c5.6319-1.3042 12.499-3.9108 17.409-6.1519 2.3995-1.0934 3.3598-0.47877 2.5007 2.1306-4.4795 13.588-22.778 17.172-33.824 15.511-1.2808-0.19207-1.2461-0.45254 0.0403-0.3045 10.657 1.2199 28.711-1.8551 33.35-15.366 0.71113-2.0725 0.2539-2.5382-1.8786-1.5647-5.5036 2.5119-13.947 5.5485-19.841 6.6354z"/>
   <path d="m148.73 90.87c4.3783 0.78046 10.325 0.94162 15.223 0.29982 1.9619-0.25765 2.6047 0.73174 1.0559 2.6-3.7384 4.5066-11.186 7.2734-19.424 7.4074-9.33 0.15178-16.944-1.6883-21.525-5.1278-0.68958-0.51719-0.51156-0.75048 0.19115-0.25016 4.6547 3.313 12.067 4.9742 21.337 4.8243 8.4118-0.13774 15.465-2.8876 19.044-7.2041 1.2021-1.4504 0.9285-1.9929-0.62306-1.7895-5.3939 0.70644-12.242 0.45628-16.839-0.65398z"/>
   <path d="m124.95 96.44c1.1712 2.1287 1.5085 3.8143 0.94724 4.2818-1.0025 0.83481-4.4308-0.48721-6.4367-3.0656-0.52375-0.67272-0.32231-0.84418 0.2436-0.20519 2.0547 2.318 5.0885 3.4292 5.8193 2.8211 0.401-0.33448 0.0346-1.9226-1.2433-4.2584z"/>
   <path d="m120.28 98.263c0.77298 1.6172 1.3876 3.6512 0.9791 4.1834-0.50782 0.66241-5.5195-0.72612-7.0054-2.8576-0.59215-0.84886-0.39071-1.0034 0.2539-0.19396 1.604 2.0144 5.9842 2.971 6.3252 2.6534 0.28389-0.2642-0.21361-2.1165-1.2958-4.5207z"/>
   <path d="m115.26 100.35c0.64554 1.6153 0.90882 3.1331 0.52749 3.4292-0.46565 0.3626-4.8505-1.6958-6.3702-4.3249-0.43943-0.75891-0.21457-0.89383 0.27171-0.16397 1.6452 2.466 5.5214 4.2106 5.7631 4.0063 0.18737-0.15927 0.0628-1.293-0.78796-3.4414z"/>
   <path d="m131.84 116.96c2.317 2.4314 4.516 4.873 6.5623 7.2903l-0.72612-0.0422c-1.797-2.0912-3.7224-4.204-5.749-6.3187z"/>
   <path d="m126.81 112.75c-1.8542-1.7998-3.7646-3.5894-5.7134-5.3583-0.0862-0.0787-0.10867-0.10119-0.16771-0.17895-1.9235-2.5494-3.2174-4.2406-5.0838-6.4414l1.159 0.56966c1.1627 1.3042 2.556 2.9879 4.4851 5.5382 2.5419 2.3058 5.0154 4.665 7.3887 7.0457z"/>
   <path d="m118.56 108.83c-1.1281-1.2602-2.3864-2.6122-3.9773-4.189-0.61744-0.61276-0.43661-0.79171 0.21643-0.21925 1.6631 1.4588 2.9879 2.8445 4.7596 4.7109z"/>
   <path d="m125.57 98.267c0.94817 0.16865 2.1812 0.11713 3.045 0.0252l0.85917 0.43193c-1.4541 0.20801-2.764 0.27827-3.7103 0.13866z"/>
   <path d="m66.843 92.861c-2.6965 0.61182-4.3277 0.34761-5.9336-0.83949-1.9451-1.4401-3.1584-1.9366-5.3958-3.2437-13.364-7.8075-35.908-25.373-44.606-34.993-1.0494-1.1609-1.3136-1.0344-1.5759 0.3832-0.69333 3.7337-0.62212 7.0045 0.193 9.4124 2.7424 8.0923 14.464 23.093 26.546 28.734 0.74393 0.3476 0.62681 0.60433-0.12647 0.28296-12.245-5.2281-24.244-20.714-27.002-28.853-0.88166-2.6019-0.85167-5.4127-0.06278-9.6664 0.34292-1.8533 1.0259-2.0369 2.3583-0.60245 8.751 9.4181 31.191 26.808 44.615 34.765 2.2365 1.3267 3.4582 1.8851 5.4145 3.2736 1.3801 0.97909 2.9289 1.5132 6.5688 0.64836z"/>
   <path d="m34.927 92.072c-8.0024-2.5766-18.202-7.785-29.845-15.307-1.3942-0.90039-2.0266-0.4769-1.7633 1.0719 1.2218 7.191 5.9327 13.905 13.781 18.682 6.8181 4.1497 15.375 6.2653 22.781 5.5673 1.0615-0.0993 1.1065 0.193 0.03936 0.31761-7.6088 0.88916-16.001-1.0569-23.148-5.408-7.7522-4.7184-12.623-11.527-13.908-19.088-0.32512-1.9123 0.76548-2.5869 2.4482-1.53 11.274 7.0842 20.633 11.986 28.116 14.718z"/>
   <path d="m39.163 102.36c-9.1585 2.8089-20.983 3.7328-27.679 2.2112-1.6949-0.38508-2.0791 0.33729-1.0494 1.6312 4.1431 5.2037 9.2625 8.4174 15.196 9.2382 7.0917 0.98191 14.125-1.5778 20.428-4.947 1.1356-0.60714 1.2583-0.37759 0.14804 0.27546-6.1931 3.6381-13.424 6.254-20.694 5.2478-5.9908-0.82824-11.124-3.951-15.437-9.537-1.3632-1.7652-0.52656-2.7593 1.4916-2.348 6.6007 1.3473 18.036 0.49376 26.216-1.797z"/>
   <path d="m44.007 111.8c-6.7019 5.3162-13.32 9.5342-20.152 9.7797-1.4813 0.0534-1.8261 0.77859-0.94724 1.886 4.8393 6.0994 22.001 4.2668 29.903-4.324 0.79546-0.86479 0.98378-0.69989 0.23704 0.20801-6.7225 8.1804-24.893 11.462-30.491 4.4083-1.2471-1.5731-0.40194-2.5691 1.2611-2.6281 6.4077-0.23048 12.912-4.3642 18.653-8.6217z"/>
   <path d="m69.977 114.17c-6.6073 12.025-19.662 21.423-27.061 20.762-1.7858-0.16023-2.0547-1.2555-0.60339-2.6309 2.4126-2.2871 5.4239-7.1835 6.8696-9.8069l0.68302-0.44879c-1.6518 3.1846-4.814 8.3237-7.2462 10.601-1.1253 1.0531-0.95286 1.6574 0.35697 1.7746 6.8902 0.61463 19.716-8.2516 26.953-20.957z"/>
   <path d="m67.572 117.58c0.75517-0.32792 1.6968-0.82637 2.5991-1.5291l0.14336 0.5987c-0.85449 0.63899-1.9254 1.2508-3.2765 1.7305z"/>
   <path d="m71.482 118.95c-1.2143-0.98566-1.8251-2.9139-1.6902-5.7415 0.04029-0.85354 0.29701-0.86479 0.30919-0.0111 0.04029 2.6412 0.4694 4.2096 1.4166 5.1644z"/>
   <path d="m108.38 133.07c-0.36915 1.397-0.99127 3.2062-1.3567 3.4432-0.85636 0.55092-9.8125 0.90977-19.328-3.1537-7.1778-3.0656-15.997-12.097-16.462-13.475-0.35978-1.0644 0.68958-6.6063 1.6884-10.611l0.34104 0.57059c-0.6671 2.8286-1.7493 8.9458-1.4363 9.894 0.35416 1.0775 9.0302 10.052 16.149 13.093 9.523 4.0672 17.957 3.6793 18.72 3.1865 0.30731-0.19771 0.87041-1.6799 1.2705-3.3205z"/>
   <path d="m82.217 123.97c-3.1266-0.3729-6.8762-1.8448-9.2757-3.2118-0.8423-0.47971-0.66054-0.79733 0.19019-0.33261 2.3573 1.2883 6.0179 2.733 9.1276 3.2343 0.85542 0.13773 0.76454 0.40663-0.0422 0.31012"/>
   <path d="m82.579 117.22c0.24923 1.9095 0.67459 4.0354 1.0606 5.5607 0.19114 0.75611-0.0843 0.83856-0.29982 0.0862-0.44785-1.559-0.85448-3.6259-1.1552-5.5485z"/>
   <path d="m106.64 136.45c-12.422-0.46285-15.679-3.6419-22.199-11.287-0.64367-0.75517-0.41787-0.95754 0.23704-0.21268 6.582 7.488 9.8631 10.545 22.409 11.047z"/>
   <path d="m85.329 123.45c7.5264-4.4467 19.541-13.683 23.282-18.528 0.52375-0.67834 0.78515-0.46285 0.28952 0.23518-3.3973 4.7737-15.805 14.236-23.424 18.562-0.60807 0.34479-0.80577 0.11994-0.14711-0.2689"/>
   <path d="m110.36 106.49c-0.24923-1.6593-0.71301-2.9279-1.1927-3.5285-0.53967-0.67272-6.418-3.7327-9.999-5.5363l0.0562-0.50125c3.8911 1.9357 9.8387 4.8692 10.451 5.7087 0.44224 0.60525 1.0737 2.2346 1.3145 3.8536z"/>
   <path d="m110.29 106.76c-2.3405 1.293-6.0086 19.687-3.5931 24.018 2.66 4.7737 18.03 10.674 19.32 9.5764 1.1571-0.99315 7.1057-20.109 5.4286-23.388-2.3011-4.4964-19.721-11-21.155-10.207m-0.21457-0.41787c1.5956-0.88728 19.398 5.5607 21.885 10.407 1.8757 3.655-4.3118 22.82-5.6394 23.959-1.5787 1.3567-17.354-4.7493-20.113-9.6617-2.5129-4.4739 1.1515-23.194 3.8677-24.705"/>
   <path d="m105.92 129.29c6.2091-7.9246 13.777-11.544 24.217-11.851 0.99596-0.03 1.0156 0.24456 0.0196 0.30919-10.73 0.68771-17.519 4.0588-24.095 12.097z"/>
   <path d="m135.24 123.95c-0.93319-0.41413-2.4135-1.1787-3.5229-1.8233l0.0909-0.56965c1.2471 0.7383 2.9823 1.6706 4.814 2.4894z"/>
   <path d="m116.03 137.69c-5.2815 1.2002-11.143 0.46284-15.046-1.2255l1.3276 7e-3c3.2558 1.1168 8.335 1.8073 13.039 0.87415z"/>
   <path d="m99.761 136.29c-1.9694 5.4295-8.7847 12.461-10.148 12.844-1.5047 0.42162-14.312-7.5011-15.964-13.406-0.37946-1.3539 0.78515-7.8777 1.8448-11.502l0.37196 0.34479c-0.94912 3.477-2.0257 9.7535-1.6715 11.018 1.5872 5.6684 14.05 13.438 15.319 13.086 1.1009-0.30545 7.7447-7.027 9.7947-12.445z"/>
   <path d="m73.908 135.63c2.2842-3.239 5.0379-5.0145 8.4933-5.7125l0.42724 0.32512c-3.6016 0.74393-6.3 2.555-8.8006 5.7828z"/>
   <path d="m126.07 143.48c-0.61276-0.88634-1.2461-1.9132-1.8514-2.9026l0.53499 0.0328c0.47034 0.75797 1.025 1.6471 1.501 2.333z"/>
   <path d="m131.13 144.75c1.932 0.58745 3.8264 0.9285 6.0404 1.1037l0.3626 0.48252c-2.3302-0.16677-4.5516-0.54343-6.4836-1.1524z"/>
   <path d="m149.89 147.89c-3.4564 0.42912-7.4524 0.46566-11.221 0.1218-0.1499-0.013-0.2005-0.0365-0.29701-0.15646-1.8729-2.3283-3.4367-4.8374-4.4176-6.5398-0.46098-0.7992-0.22113-0.94724 0.26516-0.16301 1.0569 1.7024 2.644 4.0747 4.5273 6.3796 3.7749 0.30731 7.5152 0.24641 10.987-0.19207 0.5987-2.3283 1.203-5.8399 1.2892-8.617-2.8061-1.0447-6.7094-2.2149-9.8922-3.1593-0.88634-0.26328-0.80201-0.53967 0.0909-0.29513 3.195 0.87416 7.0636 1.946 10.037 3.0469 0.20705 0.0759 0.23611 0.11617 0.23236 0.36165-0.0384 2.8174-0.66709 6.5398-1.2555 8.8756-0.0618 0.24641-0.11524 0.30825-0.34666 0.3373"/>
   <path d="m149.66 147.68c-3.8114-2.4014-9.612-6.6232-12.648-9.6064-0.60151-0.5912-0.39538-0.79733 0.22017-0.22205 3.1275 2.927 9.0068 7.1469 12.801 9.5258z"/>
   <path d="m149.62 137.97c0.24359-2.4885 0.34385-4.3924 0.29607-6.2212-3.2774-0.44598-8.2225-1.4522-10.934-2.2468-0.83856-0.24549-0.76642-0.52187 0.0778-0.29888 2.7574 0.72893 7.7419 1.6518 11.01 2.0987 0.23329 0.0319 0.29513 0.0909 0.30076 0.36728 0.0421 1.9769-0.045 3.9286-0.29701 6.4639z"/>
   <path d="m148.36 131.28c0.0487-1.9985 0.0431-3.8499-0.16583-6.1528-4.8908-0.10119-10.886-0.5809-16.716-1.4916l0.0815-0.42724c5.7996 0.86479 11.781 1.4045 16.761 1.4551 0.26703 3e-3 0.29982 0.0394 0.32325 0.2942 0.208 2.3189 0.22391 4.3755 0.18083 6.3983z"/>
   <path d="m83.256 155.75c2.5138-2.214 5.4726-5.1091 7.7156-7.9311l1.4654-1.1459c-2.5204 3.4282-6.3936 7.2594-8.9093 9.404z"/>
   <path d="m87.456 165.62c-0.58652-1.2236-1.0438-2.5906-1.2696-3.7224-0.15834-0.79452-0.0189-1.2883 0.96785-2.2252 4.8327-4.5928 11.015-10.92 13.447-15.494 0.37759-0.71019 0.30169-1.0615-0.45722-1.931-0.62306-0.71394-1.5019-1.6715-2.3836-2.541l0.24923-0.3804c0.95099 0.92382 1.8636 1.9188 2.4894 2.6318 0.83106 0.94537 1.025 1.4298 0.51906 2.4098-2.3985 4.6463-8.646 11.038-13.538 15.637-0.90039 0.84698-0.9388 1.1496-0.82918 1.813 0.18551 1.129 0.68396 2.5382 1.2864 3.7674z"/>
   <path d="m81.216 152.28c0.77578 1.6799 2.1634 3.3964 3.2989 4.546 0.64087 0.64742 0.42069 0.84512-0.24173 0.2539-1.1852-1.0597-2.6609-2.8998-3.4704-4.6528z"/>
   <path d="m77.888 153.47c0.84699 1.2236 1.6303 2.5185 2.1371 3.5051 0.39071 0.76173 0.38415 1.1309 0.19582 1.4663-0.22769 0.40475-0.45629 0.31106-0.28576-0.17896 0.09-0.25953 9e-3 -0.54155-0.28764-1.1206-0.52094-1.0156-1.3754-2.362-2.2543-3.6184z"/>
   <path d="m80.148 158.06c-1.0962-1.1393-2.9616-2.7883-4.2649-3.7421l0.26703-0.34573c1.2508 0.9182 2.9082 2.3986 3.8742 3.3767z"/>
   <path d="m73.345 156.41c1.7849 1.1721 3.3758 2.5241 4.9536 4.2022 0.59589 0.63524 0.34292 0.84511-0.24922 0.23611-1.5806-1.6228-3.1959-2.926-5.0529-4.145z"/>
   <path d="m76.624 159.26c-1.5637-0.51063-3.3533-0.89102-4.9742-1.159l0.05715-0.4338c1.5459 0.28389 3.3505 0.69615 4.3155 1.0016z"/>
   <path d="m70.438 161.01c1.2583 0.34479 2.7846 0.82918 3.7365 1.2424 1.277 0.55373 1.961 0.7636 3.0853 0.7964 3.1172 0.089 4.8589 0.74111 7.2744 4.1993l-0.17709 0.51344c-2.5822-3.7449-4.2659-4.2003-7.1113-4.2818-1.2817-0.0375-2.0875-0.33636-3.2484-0.8395-0.94818-0.41131-2.4398-0.89477-3.7627-1.2405z"/>
   <path d="m77.098 152.9c0.17802 0.45067 0.38977 0.5378 0.83481 0.28483 0.60338-0.34292 2.094-0.85167 2.6974-0.96785 0.93506-0.17803 0.95193-0.41319 0.68209-1.0288-1.5281-3.4798-5.8811-5.6694-8.8859-5.5167-0.45629 0.0234-0.46003 0.104-0.20331 0.35697 1.9273 1.8935 3.8536 4.2855 4.8749 6.8715m-0.42068 0.17332c-1.0184-2.5588-2.9073-4.8664-4.7643-6.7506-0.68302-0.69239-0.57059-1.0278 0.49658-1.0887 3.1949-0.18084 7.7128 2.0528 9.3169 5.7734 0.35229 0.81888 0.28764 1.441-1.0231 1.6902-0.57715 0.10961-1.9591 0.60714-2.5278 0.92944-0.72987 0.41413-1.2349 0.10868-1.4982-0.55373"/>
   <path d="m72.193 156.37c0.34854 0.26609 0.4694 0.27921 0.75611 0.0506 1.0306-0.82076 2.0631-1.6584 2.7293-2.2412 0.312-0.27265 0.34198-0.41225 0.045-0.80576-0.89383-1.1852-2.1859-2.0631-3.7552-2.3414-1.9113-0.33917-5.0819-0.2436-7.31 0.0384-0.73737 0.0937-0.73456 0.19489-0.07495 0.53124 1.9441 0.98941 5.4239 3.1031 7.6098 4.7681m-0.28014 0.36353c-2.1831-1.6593-5.5663-3.7421-7.5386-4.7587-1.173-0.60433-1.1084-1.1459 0.22017-1.3333 2.2252-0.30919 5.3752-0.44692 7.4852-0.0684 1.6359 0.29326 2.986 1.1815 4.0129 2.541 0.45254 0.60151 0.40851 0.99034-0.0909 1.427-0.66897 0.58558-1.7202 1.47-2.7546 2.2946-0.47034 0.37383-0.76079 0.33448-1.3342-0.10212"/>
   <path d="m71.386 158.16c0.18084-0.57528 0.08995-0.68677-0.44036-0.82169-4.6097-1.1758-9.3403 1.189-11.009 3.3121-0.45816 0.58371-0.39164 0.72144 0.31668 0.65679 2.8473-0.2586 6.3974-0.28576 8.7182 0.34198 0.51812 0.1396 0.85823 2e-3 1.0541-0.37571 0.6418-1.233 1.0953-2.2683 1.3604-3.1134m0.46472 0.14522c-0.26984 0.86011-0.72331 1.947-1.3726 3.194-0.28202 0.54249-0.8676 0.78421-1.6275 0.59027-2.2468-0.57247-5.6628-0.60714-8.5823-0.35791-1.0606 0.0909-1.3773-0.46285-0.69146-1.3445 1.7502-2.2505 6.7628-4.7737 11.525-3.4723 0.85823 0.23422 0.99315 0.61182 0.74861 1.3904"/>
   <path d="m86.418 166.15c-1.7568 0.79545-2.0987 1.5347-1.6546 2.2899 1.1234 1.9085 3.0244 4.992 4.1684 6.6438 0.36728 0.53124 0.50501 0.49564 0.60057-0.33448 0.2689-2.3283 0.22206-5.8371-0.45347-7.9527-0.28951-0.90695-1.3314-1.2489-2.6609-0.64648m3.0853 0.51063c0.68864 2.154 0.72893 5.7509 0.46753 8.1448-0.14055 1.2808-0.76266 1.4326-1.3951 0.51532-1.1834-1.7193-3.0797-4.74-4.205-6.6522-0.60057-1.0231-0.28201-2.0228 1.8383-2.9823 1.4373-0.65023 2.8651-0.37009 3.2943 0.97442"/>
   <path d="m127.82 137.16c-0.67178 3.0404-1.1543 5.0501-1.5591 6.4948l-0.51344 0.21268c0.46472-1.62 0.96973-3.6559 1.2752-5.0463z"/>
   <path d="m130.58 149.18c-8e-3 -1.708 0.0581-3.0057 0.19675-3.7796 0.53124-2.9588 1.516-7.7944 2.1512-11.229 0.12273-0.65866-0.0328-1.0878-0.59682-1.6321-0.46566-0.44972-1.5085-1.4138-2.4416-2.2327l0.11431-0.45441c0.96223 0.84136 2.1718 1.8964 2.6609 2.3686 0.65117 0.62868 0.87041 1.2086 0.71675 2.0275-0.63992 3.4142-1.5947 8.2394-2.1493 11.229-0.17896 0.96504-0.22674 3.1565-0.15928 5.4867z"/>
   <path d="m124.45 146.89c-0.18738 3.3945 0.10307 5.9102 1.0316 8.5954 0.1874 0.54249 0.25016 0.54717 0.5809-0.0515 1.2574-2.2805 2.5456-5.0716 3.4142-6.9792 0.51157-1.1243 0.34011-2.0397-0.44692-2.8717-1.1112-1.173-2.1353-1.8673-2.7087-1.694-0.91444 0.27359-1.7877 1.4897-1.871 3.001m5.4352 1.7427c-0.87041 1.9114-2.184 4.7306-3.446 7.0186-0.62213 1.1262-1.0147 0.99315-1.3792-0.0234-0.98846-2.7574-1.2527-5.2965-1.0644-8.7763 0.10119-1.8645 1.2874-3.1725 2.1887-3.4498 0.65305-0.19675 1.8074 0.39445 3.2006 1.8654 0.86666 0.91726 1.1093 2.0285 0.50032 3.3655"/>
   <path d="m120.46 155.33c1.1309 0.56591 2.571 0.89946 4.4233 1.0119 1.2274 0.074 2.6815 0.77766 4.0485 2.0247 0.56591 0.51625 1.4569 0.61838 2.154 0.21832 0.6165-0.35323 0.93974-0.78703 1.2424-1.5281 0.16677-0.40851 0.074-0.79921-0.61088-1.4766-0.42162-0.41787-0.61556-0.93787-0.65023-1.5534-0.1218-2.1259-0.45722-4.8496-1.0953-6.7103l0.044-1.1224c0.88634 1.8064 1.3586 5.2375 1.5047 7.799 0.0318 0.56966 0.18739 0.94537 0.53124 1.2855 0.75985 0.75235 0.95848 1.2339 0.67365 1.9282-0.32324 0.79264-0.80295 1.3895-1.4307 1.7492-0.88166 0.50595-1.9385 0.40101-2.6628-0.25953-1.3286-1.2115-2.6056-1.8533-3.7955-1.9254-1.8851-0.11431-3.4048-0.45441-4.561-1.055z"/>
   <path d="m122.28 152.54c0.43849 0.39257 0.76079 0.73737 0.99784 1.0653 0.30169 0.41787 0.31481 0.79546 0.0581 1.0925-0.26235 0.30263-0.46097 0.17239-0.22955-0.21361 0.11713-0.19489 0.09-0.38321-0.13117-0.67273-0.23799-0.31199-0.5125-0.59214-0.9285-0.94255z"/>
   <path d="m127.47 153.23c0.16302 0.35697 0.29701 0.73268 0.40476 1.084 0.21924 0.71207-0.0431 0.78984-0.30169 0.0918-0.0993-0.26891-0.18644-0.49377-0.31669-0.7711z"/>
   <path d="m123 151.26c0.59683-0.74674 0.72425-1.7108 0.17803-2.7349-0.86854-1.6265-2.4623-2.481-3.4348-2.05-2.2964 1.0184-2.8155 5.6338-1.4316 11.588 0.20331 0.87416 0.26703 0.90039 0.59121 0.10963 1.2442-3.0328 2.1802-4.5141 4.0972-6.9127m0.35697 0.28671c-1.8336 2.3451-2.8295 3.7974-4.0607 6.7993-0.55654 1.3576-1.04 1.3164-1.4185-0.19115-1.5441-6.1538-0.92944-10.972 1.6668-12.147 1.0878-0.49283 2.9748 0.20987 4.0963 2.3096 0.60995 1.144 0.56685 2.1409-0.28389 3.2296"/>
   <path d="m124.16 148.53c-0.58184-0.50313-1.3361-1.0737-1.9404-1.4335l-0.37759-0.76079c0.86479 0.53031 1.8148 1.204 2.3489 1.6602z"/>
   <path d="m114.4 150.44c0.96317-0.52188 2.0894-0.69708 3.0553-0.47409l-0.0646 0.42911c-0.84605-0.20145-1.6743-0.0946-2.4922 0.28296z"/>
   <path d="m117.55 155.36c-0.30169-0.0703-0.70739-0.18645-0.97629-0.29233l0.18177-0.41038c0.22673 0.0881 0.48252 0.17147 0.73456 0.238z"/>
   <path d="m116.86 153.75c0.35135-0.87791 0.19489-1.545-0.62025-2.0406-1.9291-1.174-2.9944-1.5731-3.699-1.2789-0.93225 0.3907-1.5956 3.8658-1.1965 5.4352 0.55467 2.1831 1.3464 4.4373 1.9301 6.092 0.27171 0.7711 0.34947 0.76735 0.61462-0.0375 0.80858-2.4604 1.8936-5.4801 2.971-8.1701m-4.0044 8.3565c-0.58559-1.6593-1.3857-3.9389-1.9441-6.1332-0.45161-1.7774 0.20986-5.4736 1.4326-6.0104 0.83294-0.3654 2.0013-9.4e-4 4.1881 1.3295 0.97066 0.59027 1.2442 1.3726 0.75235 2.6253-1.0503 2.6731-2.1793 5.6938-2.986 8.1494-0.42818 1.3005-0.99409 1.3136-1.4429 0.0394"/>
   <path d="m132.09 155.62c0.97347-0.30826 1.4729-0.16584 1.9404 0.70269 1.7024 3.1603 2.214 6.5913 2.3414 8.8896 0.0675 1.2096-0.48532 1.4016-1.2649 0.49563-1.5328-1.7783-4.0579-4.1197-5.8062-5.719-0.49845-0.45629-0.65773-0.98847-0.48815-1.4204l0.43849 0.27264c-0.0703 0.3017 0.0356 0.50314 0.37852 0.81139 1.8354 1.6556 4.3033 4.0194 5.8015 5.7781 0.40569 0.47596 0.53311 0.40663 0.49938-0.20331-0.12743-2.2702-0.62587-5.5926-2.3049-8.7088-0.28295-0.52562-0.53218-0.72237-1.2499-0.48158z"/>
   <path d="m132.36 49.844c-0.46565-0.49376-0.95192-1.0147-1.3314-1.3792-0.52469-0.50407-0.72144-0.46566-0.98004 0.11338-2.1606 4.8374-5.9467 12.537-10.398 19.044-2.8914 4.2256-8.2272 9.2522-11.928 10.916-1.9423 0.87322-3.2043 0.29982-4.6509-1.323-0.48533-0.5453-0.81045-0.99315-1.0138-1.3548-0.1827-0.32512-0.45067-0.43005-0.80951-0.35791l0.55841-0.33261c0.23985 2e-3 0.47503 0.13492 0.66241 0.46847 0.19396 0.34479 0.48721 0.73362 0.95755 1.263 1.129 1.2724 2.1962 2.005 4.0907 1.1543 3.3214-1.4935 8.557-6.3103 11.627-10.798 4.4242-6.4658 8.3378-14.18 10.451-18.89 0.38508-0.85917 1.0297-0.99315 1.7867-0.26609 0.36822 0.35322 0.82825 0.79733 1.2799 1.2752z"/>
  </g>
  <path d="m89.443 61.547c-0.14897-0.48814-0.2764-0.57621-0.65586-0.46847-0.30919 0.089-0.75235 0.22113-1.1599 0.37384-0.23048-1.2742-0.64367-2.6562-1.1758-3.7768-0.22674-0.4769-0.38977-0.44785-0.61557-0.0085-1.1093 2.1578-3.061 4.7531-5.1531 6.2259 8e-3 -1.5947-0.80482-4.2003-1.6958-5.6928-0.32137-0.5378-0.46191-0.47596-0.69989 0.06932-1.4129 3.2324-3.7309 7.413-5.8024 10.505-1.2592-0.12368-2.6834-0.44036-4.2612-0.98097 1.4466 2.7677 1.9123 4.2115 1.7952 5.2599-0.1265 1.1412-1.2808 2.4463-2.7518 3.4329 0.03373 0.30544 0.15364 0.69239 0.26702 0.93225-0.68677 0.86479-1.2686 2.9373-1.3436 4.2012-0.02072 0.36072 0.16209 0.81326 0.46847 1.0737-0.39726 3.0544 0.77391 6.9174 2.0856 9.2597 0.14148 0.25204 0.24267 0.27827 0.38695-0.16583 0.936-2.868 4.041-6.9483 6.9324-9.0171 3.1116-2.2262 7.1956-3.6287 10.053-2.2374 0.2942-2.9307 3.1846-5.0735 5.9102-4.8852 2.2262-3.1415 5.3977-8.0136 6.9839-10.765-5.6282 1.4532-8.5823-0.10026-9.568-3.3355" fill="#223464"/>
  <path d="m86.12 68.53c-3.0488 2.6815-6.6953 5.6338-9.9858 8.1401 2.4154 1.8964 5.3602 1.8898 8.2534 0.0252 2.1025-2.0556 2.8183-5.7668 1.7324-8.1654" fill="#0f141b"/>
  <path d="m79.918 74.177c-0.84793 0.28014-1.3164 1.3286-0.82076 2.7733 0.17614 0.51345 0.44036 0.88822 0.7533 1.1328 0.7561 0.03 1.531-0.0759 2.3133-0.32231 0.25671-0.44317 0.28201-1.0756 0.0422-1.7998-0.37946-1.1468-1.2246-2.1353-2.288-1.7839" fill="#e50021"/>
  <path d="m81.166 76.09c0.17614 0.54436 0.0141 0.93038-0.30825 1.0344-0.34948 0.11431-0.71301-0.25953-0.85448-0.69708-0.16865-0.51624-0.0252-0.93412 0.30544-1.0409 0.29138-0.0956 0.68302 0.16865 0.85729 0.70364" fill="#fff"/>
  <path d="m75.236 77.243c-1.6762 1.7717-3.3102 3.9042-4.635 5.8249-0.42818 0.62025-0.62212 0.47034-0.74392-0.0646-0.08714-0.38508-0.1321-0.6924-0.19489-1.0803-0.07869-0.48252-0.09181-0.49751-0.32418-0.0637-0.24078 0.44879-0.4769 0.91164-0.71769 1.3604-0.27733 0.51625-0.50969 0.46565-0.69895 0.0581-0.4338-0.93881-0.58933-1.3454-0.88353-2.2018l0.3045-0.67272c0.21643 0.96785 0.49657 1.7633 0.90976 2.6347 0.51531-1.0756 1.1093-2.2093 1.7989-3.1153-0.06934 1.0175-0.02717 1.9779 0.12743 3.0197 1.5103-2.3732 2.986-4.3877 4.3933-5.9158z" fill="#16254f"/>
  <path d="m80.683 63.893c0.60994-0.42912 1.2068-0.95567 1.7755-1.5375-0.0375-1.114-0.43755-2.4754-0.86479-3.4873-0.18458-0.43661-0.32512-0.4516-0.57247-0.01408-0.29326 0.52093-0.65023 1.0793-1.0184 1.6321 0.40851 1.1983 0.6849 2.4744 0.68022 3.4067" fill="#16254f"/>
  <g fill="#5876b8">
   <path d="m67.534 77.419c0.18551-0.0937 0.78047-0.3551 1.1187-0.46941 0.08433-0.21268 0.15367-0.42068 0.23329-0.67178 2.2964-1.2611 3.2952-3.4282 1.1374-6.9595 5.4698 1.7249 9.1688-0.11149 10.143-3.3392 3.3655 1.5216 7.7831-0.13399 8.7828-3.3046-2.852 3.3214-7.606 3.6147-9.7788 1.2143 0.26328 5.0285-5.0829 6.1266-11.018 3.8424 2.9673 5.1203 2.1802 6.5182-0.91913 8.7697 0.05715 0.26142 0.17332 0.60151 0.30076 0.9182"/>
   <path d="m89.443 61.547c-0.12743-0.41787-0.23985-0.54155-0.50782-0.50032 0.54811 5.3134 5.4998 6.0442 9.285 5.1672 0.29138-0.47971 0.55935-0.93037 0.79077-1.3314-5.6282 1.4532-8.5823-0.10026-9.568-3.3355"/>
   <path d="m67.489 80.982c-0.37103 3.1378-0.33355 6.6326 1.3145 10.938-2.3583-3.774-2.8108-9.8078-1.471-11.447z"/>
  </g>
  <g fill="#0f141b">
   <path d="m81.899 77.822c0.29045-0.35135 0.40476-0.94068 0.11994-1.7998-0.42068-1.2742-1.2405-1.9376-2.0463-1.6743-0.68959 0.22673-1.1665 1.1524-0.69052 2.54 0.18084 0.52749 0.48533 0.94068 0.87135 1.1684l-0.60339 0.0197c-0.27921-0.27827-0.49751-0.64555-0.6418-1.0672-0.54811-1.5975 0.0562-2.7068 0.95942-3.0019 1.1215-0.36821 2.0669 0.52 2.5213 1.8964 0.25297 0.7636 0.21643 1.3436 0.0318 1.7642z"/>
   <path d="m75.151 77.452c-2.9036-0.89383-5.4445-0.87415-7.4074 0.14055-0.22206 0.11431-0.32699 0.11057-0.416-0.10305-0.10868-0.26139-0.21082-0.59963-0.25765-0.89664-0.02523-0.16209 0-0.22392 0.19396-0.35885 1.4616-1.0175 2.4135-2.2252 2.5232-3.2109 0.104-0.93225-0.31856-2.3405-1.5956-4.8243-0.35416-0.69146-0.31575-0.75423 0.49002-0.48908 3.759 1.2339 7.0832 1.1402 8.8184-0.21736 0.95567-0.74861 1.5122-1.8317 1.4663-3.2633-0.0234-0.75048 0.0497-0.73549 0.62025-0.23985 1.0437 0.90602 2.391 1.3005 3.9201 1.2105 1.9498-0.11242 3.7637-0.99877 5.1494-2.466 0.57153-0.6062 0.75142-0.45254 0.23518 0.20987-1.233 1.5853-3.3374 2.674-5.3574 2.7921-1.6396 0.09463-3.0656-0.37103-4.1244-1.3267 0.045 1.4972-0.48815 2.6581-1.5609 3.4976-1.6499 1.2902-4.8261 1.7511-9.2185 0.24078 1.2892 2.451 1.7371 3.8086 1.6125 4.9311-0.12273 1.0981-1.2452 2.5091-2.7621 3.5098 0.02629 0.19114 0.09651 0.41693 0.17146 0.59027 2.1053-1.084 4.635-1.1318 7.6538-0.16302 4.2986-3.3018 8.3134-6.5829 11.881-9.6673 0.91445-0.78984 1.1168-0.56403 0.23329 0.25765-3.3608 3.1256-7.4233 6.5051-11.848 9.7816-0.16302 0.11992-0.22206 0.12555-0.42162 0.0647"/>
   <path d="m74.817 77.125c-1.3117 1.4401-3.2343 3.9136-4.2284 5.5504-0.45628 0.75048-0.58371 0.67178-0.67928-0.13025-0.08995-0.75891-0.11056-1.4363-0.07027-1.932-0.31106 0.41318-0.72706 1.1936-1.2536 2.2955-0.28577 0.5987-0.42912 0.58839-0.65117 0.0318-0.32324-0.81513-0.56497-1.53-0.62681-1.8832-1.2377 2.8014 0.07495 7.9368 1.6003 10.736 0.85917-2.7902 3.6971-6.8574 7.0083-9.226 3.4873-2.4951 7.4055-3.535 10.004-2.3986 0.32137-2.6084 3.0844-4.9217 5.9804-4.7859 2.2149-3.1303 5.2562-7.8197 6.6504-10.161-5.3312 1.3314-8.3237-0.23704-9.3459-3.5913-0.0946-0.312-0.16302-0.36072-0.36166-0.3045-0.47409 0.13585-0.85074 0.26046-1.1655 0.37852l-0.11806-0.48252c0.31388-0.11712 0.71395-0.23799 1.173-0.36822 0.44879-0.12836 0.74112-0.04403 0.94256 0.61931 0.9032 2.9616 3.6184 4.5029 8.8418 3.2999 0.80951-0.18551 0.87603-0.08995 0.45628 0.62962-1.6462 2.8183-4.4926 7.206-6.6832 10.308-0.11242 0.15927-0.17428 0.19863-0.38414 0.19207-2.63-0.0853-5.126 1.9179-5.5345 4.546-0.0506 0.32793-0.14336 0.40101-0.43193 0.27546-2.778-1.203-6.7094 0.0862-9.7394 2.2543-2.8801 2.0603-5.7818 6.0292-6.8171 8.8166-0.34573 0.93038-0.46003 0.93225-0.86198 0.22955-1.7717-3.0975-3.0385-8.3218-1.4944-11.447 0.28108-0.56966 0.44504-0.51157 0.59214 0.10963 0.16958 0.71394 0.43286 1.4298 0.64555 1.9207 0.36353-0.81326 0.85729-1.6959 1.4195-2.5091 0.44879-0.65211 0.59776-0.61557 0.55748 0.21738-0.04403 0.89758 0 1.6087 0.0609 2.0032 0.96504-1.5815 2.7546-3.8686 4.0513-5.3499z"/>
   <path d="m66.623 82.937c-0.4085-0.28952-0.66991-0.75611-0.63805-1.3164 0.08244-1.3801 0.70364-3.5135 1.4129-4.3933l0.39726 0.22487c-0.72987 0.847-1.3304 2.8942-1.4092 4.1609-0.02072 0.32418 0.08525 0.60432 0.31668 0.8423z"/>
   <path d="m76.305 76.528c3.135 2.3948 7.131 1.5366 10.793-2.3864 0.63899-0.6849 0.84512-0.49002 0.22862 0.21361-3.5838 4.0925-8.0661 5.2375-11.39 2.452z"/>
   <path d="m86.295 68.386c1.2152 2.5541 0.416 5.9673-1.2302 7.919l-1.5188 0.81795c2.5372-1.9488 3.4582-5.9214 2.391-8.4362z"/>
   <path d="m87.58 63.955c0.12087-1.5731-0.41787-4.1947-1.2817-6.0685-0.13492-0.29232-0.18645-0.28483-0.3373 0.01036-0.98846 1.9385-2.9682 4.6041-5.2262 6.1491-0.63056 0.43286-0.78421 0.19114-0.16209-0.26142 2.2299-1.6237 4.0747-4.3005 5.052-6.2231 0.32512-0.64086 0.66804-0.71956 1.026 0.03184 0.86385 1.8205 1.4494 4.3296 1.3979 5.9898z"/>
   <path d="m80.471 64.053c0.0468-1.4888-0.75704-4.1497-1.6799-5.7406-0.14241-0.24455-0.19019-0.23799-0.31575 0.04967-1.3782 3.1715-3.6362 7.309-5.7237 10.434l-0.55935-0.04029c2.1006-3.1256 4.4954-7.3137 5.8821-10.56 0.31668-0.74299 0.63993-0.87978 1.1084-0.10493 0.95098 1.5769 1.6874 4.0878 1.7155 5.6516z"/>
   <path d="m82.259 62.574c-0.0468-1.1796-0.45066-2.6206-0.8676-3.6091-0.0684-0.1602-0.10307-0.15364-0.18925 0.01036-0.26984 0.51438-0.62775 1.0822-1.1103 1.7839l-0.18551-0.53031c0.33917-0.45628 0.67365-1.0156 0.91819-1.4757 0.31481-0.59027 0.70645-0.61556 0.98284 0.04029 0.39352 0.93225 0.7889 2.2177 0.85917 3.3458z"/>
  </g>
 </g>
</svg>
