<?xml version="1.0" encoding="UTF-8"?>
<!-- Created with Inkscape (http://www.inkscape.org/) -->
<svg version="1.1" viewBox="0 0 194.78 105.67" xmlns="http://www.w3.org/2000/svg">
 <g transform="translate(-4.1885 -2.5391)">
  <path d="m36.864 2.8464c-3.1414 2.5934-9.0613 17.693-9.849 23.799 0.24628 1.2577 1.6431 4.9161 2.9985 6.2724-0.06768-1.8188 0.08836-4.2468 0.42299-6.9445 3.5343 0.14383 6.3317 1.7972 8.7314 4.1124 0.82436-7.657-1.1355-21.516-2.3039-27.239" fill="#ad4005"/>
  <path d="m116.59 60.909c-2.4599-1.8574-3.1827-1.8743-4.6002-1.2586-1.2022 0.52168-3.6368 1.2502-6.06 0.84691-1.8856-4.5457-1.128-12.348-2.7917-16.796-1.5735-4.2073-7.7529-10.696-13.591-10.108-7.3205 0.73882-16.33 9.3527-20.098 10.993-1.0368 0.45119-4.5109 0.70592-6.5065 0.66738-4.6341-2.0886-9.4768-3.2523-14.179-5.0918-0.82248-0.32147-2.0867-1.0236-3.069-1.7549-2.005-2.8556-4.0579-5.9359-6.5281-8.3206-2.3997-2.3161-5.1971-3.9695-8.7314-4.1133-0.33557 2.6977-0.49066 5.1257-0.42299 6.9455-1.3554-1.3573-2.7532-5.0148-2.9985-6.2724 0.04324-0.33745 0.10338-0.7031 0.17671-1.0904-5.5317-0.06299-9.6441 5.6511-11.089 8.1016-0.76608 1.2981 0.55834 4.3295-0.14759 5.2262-1.5209 1.9354-8.5443 7.7247-10.878 9.4204-0.31019 0.2256-0.45024 0.64388-0.30549 1.0114 0.36095 0.91647 1.5378 1.7483 2.5501 1.6638 2.6329-0.22464 8.9053-2.4778 12.904-4.1114-1.0387 2.1789-3.4864 7.6852-3.9009 8.7981 0.43897 0.6467 1.1665 1.2953 1.8029 1.1712 1.1872-0.23122 3.2645-2.3086 4.5156-3.3021 1.3169-1.0443 6.3354-4.6303 7.2904-4.7036 0.67678-0.05169 4.4028 2.7842 4.5438 3.179 0.55741 1.5651-1.9307 6.5375-2.1883 8.1016-0.29703 1.8057 4.2468 18.579 6.0591 21.236 0.85726 1.2549 4.1913 2.6564 7.4098 3.7091 0.67114-0.26883 1.284-0.48127 1.6318-0.55552 0.23122 0.26602 0.4493 0.58466 0.65046 0.94091 0.06768 0.11844 0.13253 0.2397 0.19645 0.36753 1.1853 2.3847 1.6252 6.1756-0.05076 8.6938 2.6479-0.38351 8.0509-1.7117 10.499-2.5943 0.86289-0.31113 1.206-0.59313 1.5961-1.5594 0.77078-1.9128 1.9354-4.5382 3.0972-6.6353 1.4288-2.5783 2.4608-4.5203 3.4271-6.5178 5.6906-2.3584 11.709-12.038 14.984-13.418 2.0256-0.85349 5.1755-1.1919 7.924-0.92587 1.77 4.0738 4.9809 7.9465 7.4812 10.464 1.2398 1.2473 4.588 1.9598 5.998 1.3968 2.7814-1.111 6.9201-5.5646 8.3846-7.1419 1.0462-1.1261 2.1788-1.4729 4.3605-0.67208 1.6854 0.61756 3.2429 1.3836 4.6792 2.2108 3.1762-0.46058 5.8842-1.5322 5.9547-2.4533-3.0305-1.3395-7.188-3.6396-9.9806-5.7479" fill="#ce4e0f"/>
  <g fill="#ad4005">
   <path d="m30.215 33.086c1.5397-3.2673 5.3249-4.7459 8.2445-3.6151-2.6432-2.5558-6.4529-3.4976-8.0227-3.4976-0.19552 1.4927-0.50758 6.2386-0.22184 7.1128"/>
   <path d="m22.322 45.945c-2.2127 2.2569-3.6537 6.3119-4.2609 7.9653-0.31301 0.84973 0.11561 1.1392 0.54048 1.0217-0.20962 0.36565-0.91365 0.61286-1.315 0.18612-0.59124-0.62978 1.7408-5.9613 2.8773-8.2332z"/>
   <path d="m48.766 40.162c-0.82247-0.32147-2.0867-1.0236-3.069-1.7549-1.206-1.7164-2.4308-3.5127-3.7514-5.1933-0.94373 3.1339-2.4223 6.9379-5.0843 7.6373l4.4696 5.0129-0.25286-0.20397c-1.6243 0.20397-6.3693 0.7454-8.1966 0.60346-1.5829-0.12313-3.4065-1.4974-4.3897-2.0059l-1.7606 1.1768s-0.91741 1.3874-2.8425 3.7815c0.01226 1.0904-0.39479 3.3613-1.7371 4.7732 1.7822-1.4222 6.9445-5.0928 7.782-5.1567 0.67772-0.05265 4.4038 2.7842 4.5448 3.178 0.23405 0.65798-0.06957 1.9175-0.5198 3.273 4.3991-1.9486 6.1766-6.5215 9.1083-9.3847 3.4196-3.3416 6.2217-4.3962 9.7005-4.307-1.3395-0.44743-2.6761-0.91083-4.0015-1.4297"/>
  </g>
  <path d="m14.944 39.978c-0.62602 0.62038-1.4335 1.362-2.3246 2.1488-0.74822 0.84879-1.6224 1.8254-2.0369 2.2917-0.08177 0.09211-0.02819 0.1081 0.08177 0.06768 1.4955-0.55364 7.0366-2.6347 8.7746-3.2551-0.92023-0.5621-1.8047-1.081-2.5116-1.2953-0.29515-0.08929-1.1768-0.08553-1.9833 0.04229" fill="#f4f3f9"/>
  <path d="m53.788 66.454c-2.5454-4.7111-6.4341-9.9411-10.847-13.114-2.4402-1.754-7.438-3.21-9.5492-2.3377 0.595 0.47468 1.0396 0.87605 1.0866 1.0076 0.55646 1.5651-1.9307 6.5375-2.1892 8.1016-0.29703 1.8057 4.2468 18.579 6.06 21.236 0.85631 1.2549 4.1904 2.6564 7.4098 3.7091 0.6702-0.26884 1.284-0.48221 1.6318-0.55647 0.23029 0.26603 0.44837 0.58467 0.65046 0.94091 0.71156-0.32616 1.456-0.71907 1.8809-0.99825 0.93903-0.61756 1.1289-1.2464 1.2116-2.2418 0.37129-4.5166 1.8029-9.5426 3.2438-12.331 0.51699-0.99825 4e-3 -2.318-0.58936-3.4168" fill="#f4f3f9"/>
  <path d="m38.564 51.334c-1.9937-0.5856-4.0156-0.80838-5.1727-0.33181 0.595 0.47563 1.0396 0.87699 1.0866 1.0086 0.23405 0.65704-0.06957 1.9166-0.5198 3.272 1.9843-0.87887 3.3792-2.3575 4.6059-3.9488" fill="#d3d2d8"/>
  <g fill="#fff">
   <path d="m9.6989 51.808c0.1081-0.28763 0.23501-0.92775 0.29891-1.3667-0.47375 0.12595-0.91835 0.23405-1.3272 0.32147 0.29045 0.36753 0.63824 0.75292 1.0283 1.0452"/>
   <path d="m11.116 50.127c0.26883 0.36377 0.82342 1.0114 1.1195 1.2652 0.05545-0.23122 0.15038-0.87229 0.20772-1.3968-0.17484-0.03384-0.35061-0.0705-0.52638-0.11186-0.27165 0.0846-0.5386 0.16544-0.80086 0.24345"/>
   <path d="m18.068 53.233c-0.30925-0.27259-1.817-0.78582-1.9636-0.6514-0.14663 0.13253 0.91365 1.4946 1.0819 1.6722 0.33275 0.34967 1.3489-0.6091 0.88169-1.0208"/>
  </g>
  <path d="m22.828 45.745c-0.1692 0.07991-0.36095 0.1673-0.56774 0.25944-1.9392 1.8085-3.3557 5.6032-4.1425 7.7764-0.34685 0.95595-0.18611 1.3968 0.66644 1.0311 1.2972-1.1524 5.9726-6.3843 7.7538-9.1168-0.54424 0.36471-1.0471 0.65704-1.1985 0.66832-0.49443 0.03853-1.7775-0.96347-2.5116-0.6185" fill="#ed8599"/>
  <path d="m18.323 52.471c-0.09211 0.09869 0.59218 1.1825 1.003 1.8217 0.29797-0.29797 0.65798-0.67396 1.0575-1.1045-0.79428-0.36095-1.9749-0.80932-2.0604-0.7172" fill="#fff"/>
  <path d="m5.654 50.033c0.78112 0.07612 1.7164-0.53954 2.1037-1.0509 0.19645-0.26131 0.11657-0.62414-0.32523-0.6561-0.6984-0.04983-2.004-0.07519-2.5689 9.41e-4 -0.39949 0.05358-0.51228 0.29703-0.33745 0.7501 0.15792 0.40983 0.59876 0.90425 1.128 0.95595" fill="#0f141b"/>
  <g fill="#3e3a39">
   <path d="m6.8712 43.187c-0.60064 1.1496-0.86665 3.304-0.84786 4.4047 0.27917-0.21526 0.58278-0.45307 0.90613-0.70968-0.28293-1.0725-0.41171-2.5746-0.05827-3.695"/>
   <path d="m10.781 47.943c-0.62696-0.21148-1.2934 1.0612-0.81871 1.3874 0.45306 0.31019 3.4243 1.0396 4.2158 0.75856 1.159-0.41077 4.0795-3.993 4.4395-4.635-1.064 0.71908-4.0654 2.991-4.9499 3.148-0.75762 0.13629-2.2785-0.45307-2.8867-0.65892"/>
   <path d="m17.582 24.29c-0.78488 1.7333-1.6337 6.2029-1.4203 9.2681 0.41453-0.69276 1.0255-1.6186 1.8104-2.5971-0.33463-1.8123-0.4681-4.4978-0.39009-6.671"/>
   <path d="m42.913 27.159c-1.9993 2.9581-6.4839 7.1739-10.787 7.4615-1.8668 0.12502-3.7242-0.85068-5.1595-1.8282-0.69464-0.47281-1.4447-0.46717-2.2146 0.12784-1.5829 1.2229-6.2076 4.5993-7.4841 4.6312-0.33463 0.0075-0.81966-0.40043-1.2351-0.94561 0.13722 0.96253 0.25472 1.8564-0.07708 2.2785-0.2256 0.28763-0.5762 0.66174-1.0114 1.0941 0.8065-0.12784 1.6882-0.1316 1.9833-0.04231 1.7991 0.5433 4.7544 3.0737 6.5131 3.2203 1.3 0.10716 3.7636-1.5857 4.7281-1.5707 1.1806 0.01679 4.3041 2.1206 6.5685 1.9044 2.6535-0.25473 7.3468-3.9545 7.2265-9.1375 1.2455-2.3715 1.8574-5.1059 1.7653-6.811-0.04983-0.91083-0.38351-1.0236-0.8159-0.38257"/>
  </g>
  <path d="m43.358 26.718c-0.04511 2.4477-1.2849 5.9199-2.5426 7.8403-1.0236 1.5641-1.0095 2.6159-0.89297 2.7156 2.0839-1.8414 4.9565-9.2089 3.4356-10.556" fill="#302927"/>
  <path d="m21.231 38.625c1.0227 1.5416 2.1723 2.5577 3.5202 2.7222 1.4786 0.18047 3.0869-1.2003 3.6133-2.4345-1.1082-0.03384-5.5806-0.20868-7.1334-0.28763" fill="#fff"/>
  <path d="m25.592 40.363c0.45024 0.02078 0.86007-0.38257 1.0922-1.5105-0.50571-0.01892-1.0706-0.04042-1.6468-0.06392-0.05076 0.62414-9.4e-4 1.5481 0.55458 1.5745" fill="#fccf00"/>
  <path d="m22.236 37.317c1.77-1.5481 1.7418-3.0342 3.116-3.5202 0.85161-0.30079 2.5154 0.78582 2.5163 1.2285 9.38e-4 0.19834-4.9114 2.3612-5.6323 2.2917" fill="#f4f3f9"/>
  <path d="m20.018 28.752c1.9147-1.7681 4.3615-3.2288 7.1739-3.1959 0.21337-1.1289 0.54706-2.4571 0.97005-3.8981-1.3489-6.1672-5.6568-16.314-7.4145-18.501-0.43709 2.1121-3.1047 16.263-0.72942 25.595" fill="#3e3a39"/>
  <path d="m42.882 86.5c0.47469-0.38727 1.7559-0.99449 2.8763-1.4429-3.2185-1.0528-6.5525-2.4543-7.4098-3.7091-0.13536-0.20021-0.28669-0.48033-0.45119-0.8253-0.87041 0.0968-1.9269 0.1081-2.7739 0.0827 0.1927 0.93997 0.25944 2.1384 0.06768 3.3313-0.2491 1.5453-1.1195 2.9308-2.1469 3.758 2.0896 0.0949 6.4059 0.45495 8.1533 0.7783 0.74258-0.43426 1.1101-1.5049 1.6844-1.973" fill="#ce4e0f"/>
  <path d="m69.088 75.904c-0.76138 0.53672-1.5246 0.97851-2.2822 1.2925-0.9663 1.9974-1.9984 3.9385-3.4271 6.5178-0.2491 0.45025-0.49819 0.92776-0.74352 1.4137 2.0238-0.7125 3.8567-2.5548 5.9951-3.6772 0.047-0.0245 0.0931-0.0451 0.14005-0.0686 1.4616 0.7689 2.0933 2.7222 2.2663 4.4526 0.56492-1.3075 2.4129-4.6416 2.2973-5.7733-0.11468-1.127-2.8425-3.2044-4.2458-4.1575" fill="#d3d2d8"/>
  <g fill="#3e3a39">
   <path d="m109.93 71.176c2.5727 1.3103 6.4078 3.6198 7.2481 4.2308 1.1816 0.86007 2.8397 5.7808 3.6414 6.4068 0.80274 0.62696 2.0642 0.82435 2.5182 0.75668 0.36188-0.0545 1.4053-0.54425 1.8912-0.92494-0.92682 0.15039-2.176-0.1297-2.8566-0.47374-0.57526-0.29045-0.87887-1.6252-1.0782-1.8104 0.19928 0.18518 0.50289 1.5199 1.0782 1.8104 0.68054 0.34403 1.9298 0.62414 2.8566 0.47374 0.1231-0.0968 0.21236-0.18704 0.24353-0.26037-0.0309 0.0733-0.12043 0.16355-0.24353 0.26037 0.3807-0.063 0.70875-0.19552 0.91741-0.42956 0.37036-0.41453 0.54238-1.0443 0.38446-1.5378-0.50759-1.5867-2.8293-4.7422-3.8896-6.7556-0.25472-0.48126-0.61756-0.85255-1.4447-1.346-1.1571-0.69088-3.1301-1.8517-4.9245-2.9637-0.61192 1.2069-3.9996 2.255-6.342 2.5633"/>
   <path d="m137.98 72.208c-0.28105-0.15792-2.0454-0.37975-3.2523-0.93621-1.2079-0.55646-6.2208-3.7684-7.9794-4.5344-0.0584-0.0264-0.11937-0.0545-0.17772-0.0799-0.0706 0.92023-2.7795 1.9927-5.9547 2.4524 4.2797 2.4618 7.4775 5.465 9.739 6.7321 2.0445 1.1468 4.0259 1.4899 5.4368 1.1035 0.57058-0.15603 2.583-1.3639 2.6987-2.4702 0.11643-1.1063-0.22942-2.1093-0.51041-2.2672"/>
   <path d="m139.57 72.84c-0.17292-0.3365-0.80838-0.4587-1.518-0.57996 0.26512 0.26131 0.5527 1.1928 0.44553 2.2146-0.0967 0.91929-1.4983 1.9063-2.2982 2.3039 1.3742-0.36565 2.9854-1.2596 3.3059-1.6985 0.19371-0.26413 0.28856-1.8057 0.0648-2.24"/>
  </g>
  <path d="m108.67 70.572c0.36095 0.15604 0.79052 0.36377 1.2624 0.60441 2.3415-0.30926 5.7301-1.3573 6.342-2.5633-1.2379-0.76608-2.3894-1.5077-3.1292-2.0557-0.59782 0.15697-1.0894 0.50477-1.5622 1.0142-0.60722 0.65328-1.6741 1.8019-2.913 3.0004" fill="#ce4e0f"/>
  <path d="m81.79 63.778c-0.34967 0.14663-0.7313 0.39197-1.1392 0.70968 2.569 3.0934 8.0593 7.2566 10.188 7.8366 1.0218 0.27823 3.6659 0.29045 5.5891 0.19834-2.3593-2.4984-5.121-6.0008-6.7142-9.6695-2.7485-0.26696-5.8983 0.0714-7.924 0.92493" fill="#ad4005"/>
  <path d="m103.9 46.812c-0.18142-1.1402-0.42111-2.1967-0.76326-3.1113-1.5735-4.2073-7.7529-10.695-13.591-10.108-7.3205 0.73882-16.33 9.3527-20.098 10.993-1.0368 0.45119-4.5109 0.70592-6.5065 0.66738-1.6139-0.72754-3.2532-1.3413-4.9029-1.9119-1.7502 1.8508-5.1238 7.0554-6.169 9.0811 2.2964-2.0416 8.0894-5.8259 10.164-5.6596 2.553 0.20586 8.0678 2.3293 12.084 1.8489 3.8586-0.46153 10.06-5.324 15.596-4.8023 1.1552 0.10903 3.7486 1.9354 4.7422 3.789 0.82154 1.5331 0.92211 3.9507 1.6722 5.5637 1.0594 2.2747 3.6772 6.0967 5.5496 7.4568 1.597-1.8047 0.97193-11.642 0.0714-16.442 0.56493 0.91083 1.2831 1.8846 2.1507 2.6347" fill="#3e3a39"/>
  <path d="m188.93 40.688c4.2336-2.7748 8.9025-8.3958 9.6582-11.218-2.5802 0.65704-7.5517 0.62226-10.097 0.29797 1.5566-3.4234 2.8895-8.8762 2.6385-11.013-3.0135 3.9178-8.613 8.8188-14.4 10.555-31.961-14.43-68.958-10.89-82.13 5.3334 1.9852 0.96535 3.8332 2.4721 5.3268 4.1133 7.8375-6.2348 22.326-5.3813 34.127 4.0673 12.018 9.6244 18.179 13.433 27.603 13.964 7.3534 0.41359 10.609-2.5276 14.939-2.7259 3.3435-0.15321 11.934 4.0795 14.188 5.8776 0.20303-1.8047-2.1751-8.0386-4.4188-9.8396 3.9958-0.38727 10.178-4.181 12.055-6.1155-1.7634-1.0105-6.6099-2.6817-9.489-3.2974" fill="#ce4e0f"/>
  <path d="m188.93 40.688c4.2336-2.7748 8.9025-8.3958 9.6582-11.218-2.5802 0.65704-7.5517 0.62226-10.097 0.29797 1.5566-3.4234 2.8895-8.8762 2.6385-11.013-3.0135 3.9178-8.613 8.8188-14.4 10.555-31.961-14.43-68.958-10.89-82.13 5.3334 1.9852 0.96535 3.8332 2.4721 5.3268 4.1133 7.8375-6.2348 22.326-5.3813 34.127 4.0673 12.018 9.6244 18.179 13.433 27.603 13.964 7.3534 0.41359 10.609-2.5276 14.939-2.7259 3.3435-0.15321 11.934 4.0795 14.188 5.8776 0.20303-1.8047-2.1751-8.0386-4.4188-9.8396 3.9958-0.38727 10.178-4.181 12.055-6.1155-1.7634-1.0105-6.6099-2.6817-9.489-3.2974" fill="#ce4e0f"/>
  <path d="m176.59 54.063c3.3435-0.15321 11.934 4.0795 14.188 5.8776 0.20303-1.8057-2.1751-8.0396-4.4188-9.8406 3.9968-0.38727 10.178-4.1801 12.055-6.1155-0.0309-0.01679-0.0695-0.03666-0.10338-0.05452-13.132 4.2863-26.163 5.1614-37.636 3.1743-16.948-2.9365-26.822-17.103-44.435-17.047-8.5444 0.02638-16.074 3.0295-19.215 6.0797 1.0546 0.7783 2.035 1.675 2.896 2.6206 7.8375-6.2348 22.326-5.3823 34.127 4.0673 12.018 9.6234 18.179 13.433 27.603 13.963 7.3534 0.41453 10.609-2.5266 14.939-2.725" fill="#ad4005"/>
  <path d="m188.93 40.688c4.2336-2.7748 8.9025-8.3958 9.6582-11.218-2.5802 0.65704-7.5517 0.62226-10.097 0.29797 1.5566-3.4234 2.8895-8.8762 2.6385-11.013-3.0135 3.9178-8.613 8.8188-14.4 10.555-2.5445-1.1486-5.12-2.1826-7.7134-3.1057-0.5856 0.11657-1.9486 0.42957-2.287 0.47093-2.1516 0.26413-4.9856 1.1045-6.2339 1.3526-0.18811 0.03759-1.3272 0.33181-1.958 0.51792-0.25099 0.07333-0.36 0.25004 0.0687 0.40419 1.2266 0.43991 2.677 1.0255 4.8549 2.1055 1.1327 0.56116 2.7532 1.0246 3.46 1.3235 0.22755 0.09587 3.8934 1.2135 3.9874 1.2567-0.12123 0.05169-0.67019 0.31583-1.0904 0.36753-1.44 0.17484-5.2262 1.4175-6.0262 1.7192-1.2107 0.454-3.5136 0.99449-4.3333 1.2878-0.26219 0.09307-1.0039 0.36941-1.3338 0.55364-0.15508 0.08649-0.14468 0.17202-0.0133 0.25097 0.3553 0.21244 1.2577 0.62978 1.7568 0.8864 0.63729 0.32711 1.9119 1.2163 3.2448 2.2785 0.12603 0.10058 2.223 1.1759 2.3368 1.2379 1.0227 0.56868 1.9777 1.3874 2.8932 1.6901-0.23874 0.1175-1.1016 0.25286-1.3648 0.37223-0.26326 0.11844-1.3376 0.66362-1.8734 0.77924-0.53577 0.11561-1.3808 0.22278-1.6722 0.29515-0.29138 0.07143-2.7438 0.99637-3.8445 1.1571-1.128 0.16451-2.5764 0.76044-3.2119 1.0246-0.0903 0.0376-0.10338 0.14194-0.0413 0.19928 0.47375 0.44554 1.9542 1.6092 2.4561 1.958 0.18704 0.13067 1.7455 1.049 2.2033 1.3423 0.60532 0.38727 2.1027 1.5331 2.8096 1.8724-0.59311 0.08929-3.2608 0.88545-3.4563 0.92117-0.96345 0.18047-1.9485 0.49066-3.5484 0.84409-0.36471 0.07991-1.41 0.33087-1.6214 0.47093-0.0967 0.06392-0.51512 0.20021-0.98133 0.33557 2.3622 0.73976 4.7788 1.1571 7.4596 1.3084 7.3534 0.41359 10.609-2.5276 14.939-2.7259 3.3435-0.15321 11.934 4.0795 14.188 5.8776 0.20303-1.8047-2.1751-8.0386-4.4188-9.8396 3.9958-0.38727 10.178-4.181 12.055-6.1155-1.7634-1.0105-6.6099-2.6817-9.489-3.2974" fill="#ce4e0f"/>
  <path d="m198.22 43.877c-10.115 4.0127-26.424 5.151-37.54 3.2269-0.6702-0.11654-1.3282-0.2519-1.9768-0.40137-0.91365 0.2491-1.8499 0.63448-2.3264 0.83376-0.0903 0.0376-0.10338 0.141-0.0424 0.19834 0.47468 0.44555 1.9552 1.6092 2.4571 1.958 0.18624 0.12971 1.7455 1.0499 2.2033 1.3423 0.60534 0.38727 2.1018 1.5331 2.8086 1.8724-0.59311 0.08929-3.2607 0.8864-3.4563 0.92211-0.96255 0.1786-1.9486 0.48973-3.5475 0.84316-0.36468 0.07991-1.4099 0.33181-1.6224 0.47093-0.0967 0.06485-0.51416 0.20021-0.98039 0.33651 2.3622 0.73976 4.7788 1.1562 7.4596 1.3075 7.3524 0.41453 10.608-2.5266 14.939-2.725 3.3425-0.15321 11.933 4.0795 14.188 5.8776 0.20304-1.8057-2.1751-8.0396-4.4197-9.8406 3.9968-0.38727 10.179-4.1801 12.056-6.1155-0.061-0.03384-0.1335-0.07143-0.20011-0.10716" fill="#ad4005"/>
  <g fill="#3e3a39">
   <path d="m47.39 84.501c-0.92869 0.19928-3.7496 1.3808-4.5081 1.9993-0.64294 0.52451-1.0265 1.8038-1.9664 2.0999-0.5386 0.17109-2.7494 0.95219-3.4516 1.1402-1.1251 0.30267-1.5923 0.67772-2.4279 1.644-2.7344 3.1677-6.9567 5.6445-10.085 7.2077-0.24252 0.12126-0.55458 0.33087-0.86665 0.56681-1.5425 0.6984-3.9864 2.098-4.5335 2.897-0.37035 0.53955-0.29985 2.3048 0.34591 3.148 0.25662 0.76607 0.66738 1.6346 0.85914 1.7324 0.6279 0.32053 1.864 0.21809 2.7626-0.13253 0.11279 0.48785 0.94185 1.1383 1.9307 1.003 2.4994-0.34497 3.3482-3.3914 4.4461-4.1613 2.9543-2.0698 7.1635-5.0373 10.112-7.0658 1.064-0.73224 5.2939-1.2445 7.391-1.1402 3.053-2.8697 1.9307-8.6976-0.0085-10.938"/>
   <path d="m30.551 88.415c1.7662 0.53578 4.1951-1.7154 4.6397-4.478 0.41359-2.5652-0.36659-5.1717-1.034-5.12-0.62508 0.0489-2.9365 0.27164-3.476 0.53672-0.90895 0.44837-1.8395 2.2757-2.8726 2.552-2.239 0.59877-5.0946 0.1692-6.186 0.83564-0.52168 0.31865-2.8895 2.9158-5.6436 4.9612-1.8856 1.3996-4.4085 2.8124-6.5431 3.7524-0.8018 0.35343-1.3554 0.86571-1.6591 1.4278-0.39197 0.72472-1.2661 2.1807-1.1834 2.6676 0.10152 0.5997 0.45119 1.4889 0.78112 1.7098 0.26883 0.17953 1.0142 0.23029 1.8057 0.15696 9.4e-4 5e-3 0 0.0123 0 0.0178 0.08835 0.77924 1.1703 1.393 2.7381 1.222 1.3996-0.15321 2.0661-1.3912 3.2457-2.0651 1.1806-0.67396 2.6094-0.44743 3.2683-1.1928 1.4024-1.5857 6.0544-6.0233 6.9708-6.6315 1.4288-0.94843 3.1752-0.95125 5.1482-0.35249"/>
   <path d="m27.015 26.646c0.24535 1.2577 1.6431 4.9151 2.9985 6.2724-0.24156-6.4529 2.6018-22.642 6.9671-29.487-0.04042-0.20303-0.07895-0.39855-0.11654-0.58466-3.1414 2.5924-9.0613 17.693-9.849 23.799"/>
  </g>
  <path d="m18.527 45.599c-1.582 1.4128-4.2506 3.7571-4.6792 3.8614-0.53202 0.12971-2.9252-0.47563-3.9864-0.8065-0.09494 0.27353-0.08649 0.548 0.10058 0.67678 0.45401 0.31019 3.4253 1.0396 4.2158 0.75856 1.0913-0.38727 3.7411-3.5804 4.3493-4.4902" fill="#302927"/>
  <path d="m4.5708 49.175c0.18518 0.38727 0.595 0.81026 1.0828 0.85819 0.78112 0.07612 1.7173-0.53954 2.1037-1.0509 0.08742-0.11657 0.1175-0.25286 0.08649-0.37129-1.2332 0.88452-2.4007 1.1693-3.273 0.56398" fill="#0f141b"/>
  <g fill="#302927">
   <path d="m6.5577 47.189c-0.14005-0.49255-0.25848-1.1157-0.34685-1.754-0.13629 0.81026-0.19645 1.6121-0.18705 2.1563 0.19363-0.14945 0.31771-0.23218 0.5339-0.40231"/>
   <path d="m41.083 35.855c-0.27353 2.2738-1.41 4.5636-2.897 6.0262 2.0266-1.5989 3.8539-4.2694 3.7777-7.5282-0.15792 0.33369-0.88076 1.5021-0.88076 1.5021"/>
   <path d="m27.192 25.555c0.21337-1.128 0.54706-2.4561 0.96911-3.8971-1.3348-6.1061-5.5684-16.107-7.3581-18.429 1.3366 4.1876 4.0109 15.76 4.3972 22.553 0.64106-0.15228 1.3056-0.23498 1.9918-0.22654"/>
  </g>
  <path d="m23.275 49.917c1.2878-1.5237 2.5248-3.0878 3.2636-4.2205-0.54425 0.36377-1.0471 0.6561-1.1985 0.66832-0.49536 0.03853-1.7775-0.96441-2.5116-0.6185-0.1692 0.07895-0.36095 0.16637-0.56868 0.25944-0.56304 0.5245-1.081 1.221-1.5528 1.9927 1.0546-0.0048 2.0914 0.76326 2.568 1.9185" fill="#ce7486"/>
  <path d="m108.67 70.572c0.36095 0.15604 0.79052 0.36377 1.2624 0.60441 1.6581-0.21903 3.837-0.80932 5.1877-1.5632-1.393-0.68148-2.7428-1.3216-3.7571-1.8057-0.62696 0.67302-1.5914 1.6976-2.693 2.7645" fill="#ad4005"/>
  <path d="m126.14 81.216c0.31489-0.3525 0.48408-0.86008 0.4305-1.3094-0.4305-0.13442-1.6741-0.41546-2.0068-0.86289-1.2276-1.6515-1.7954-3.9206-2.5774-4.9377-0.20304-0.2632-1.1214-1.1486-1.8-1.5641-1.3056-0.79709-3.1724-1.9956-5.0749-2.928-1.3507 0.75386-3.5296 1.3442-5.1877 1.5622 2.5727 1.3103 6.4078 3.6198 7.2472 4.2308 1.1815 0.86007 2.8396 5.7818 3.6424 6.4078 0.80274 0.62696 2.0632 0.82435 2.5172 0.75574 0.36188-0.0536 1.4053-0.54425 1.8912-0.92494 0.38163-0.062 0.70875-0.19552 0.91837-0.42956" fill="#302927"/>
  <path d="m99.84 73.258c-3.8717-2.3255-8.3911-10.459-8.5049-15.043 0.34685-1.0199 0.94562-2.5483 1.2568-3.1028-0.89016 0.1551-1.4833 0.94749-2.2371 2.5313-0.4822 1.0114-1.7521 1.4927-2.9835 1.7389-1.9824 0.39855-4.5607 0.85632-6.5206 1.8846-2.2766 1.1947-6.5168 6.5431-11.063 9.0688-0.13629 0.6561-1.7352 4.5871-2.896 6.8232 5.6652-2.4186 11.641-12.007 14.9-13.38 2.0256-0.85349 5.1755-1.1919 7.924-0.92493 1.77 4.0738 4.98 7.9465 7.4812 10.463 1.2398 1.2483 4.5871 1.9598 5.998 1.3968 0.59688-0.23781 1.2558-0.63073 1.9373-1.1158-2.4364 0.78864-4.2158 0.30643-5.2911-0.33933" fill="#ad4005"/>
  <path d="m66.205 78.342s0.0123 3e-3 0.0329 7e-3l0.12219-0.24346c-0.0545 0.0855-0.10621 0.16731-0.1551 0.23594" fill="#ad4005"/>
  <path d="m129.64 73.038c-1.9044-1.4776-4.1528-3.1122-6.4087-4.5241-0.61098 0.1457-1.9373 0.49819-2.6112 0.59594 4.2797 2.4618 7.4775 5.465 9.739 6.7321 2.0445 1.1468 4.0325 1.5124 5.4368 1.1035 0.82154-0.23876 2.74-1.3103 2.7983-2.5464-0.93901 0.99637-3.0051 1.4297-4.354 1.2079-1.9495-0.31771-3.2946-1.5556-4.6002-2.5689" fill="#302927"/>
  <path d="m115.94 66.899c1.6854 0.61756 3.2429 1.3836 4.6801 2.2108 0.67396-0.0987 1.9993-0.45118 2.6112-0.59688-2.3593-1.4767-4.7281-2.7118-6.7218-3.2664-1.3094-0.36471-3.5437 0.5715-4.6679 1.9504l0.0752 0.0451c0.96065-0.85631 2.0726-1.0594 4.0231-0.34309" fill="#ad4005"/>
  <path d="m139.5 75.08c0.11564-0.15793 0.19558-0.76796 0.19371-1.3282-0.31017 0.11278-0.71248 0.20679-1.1825 0.20772 3e-3 0.16733-9.3e-4 0.33933-0.0187 0.51511-0.0855 0.80649-1.174 1.6647-1.9805 2.1318l-0.13162 0.11937c1.331-0.39384 2.8134-1.2276 3.1198-1.6459" fill="#302927"/>
  <path d="m42.882 86.5c0.47469-0.38727 1.7559-0.99449 2.8763-1.4429-2.3866-0.78111-4.8343-1.753-6.2912-2.7165-1.3291 0.13443-2.8801 0.18519-4.1631 0.16827-0.0019 0.46622-0.03573 0.94749-0.11279 1.4278-0.2491 1.5453-1.1195 2.9308-2.1469 3.758 2.0896 0.0949 6.4059 0.45495 8.1533 0.7783 0.74258-0.43427 1.1101-1.5049 1.6844-1.973" fill="#ad4005"/>
  <path d="m39.577 70.839c0.5527 1.0133 3.9563 6.1766 5.3127 7.2801 2.2719 1.848 4.8597 2.7748 6.3843 3.1498l-0.14852 1.2614c-2.6714-0.41077-5.7592-1.5444-7.0902-3.1668-1.534-1.8696-4.6303-7.3318-4.4583-8.5246" fill="#d3d2d8"/>
  <path d="m48.138 76.87c-1.3216 0.79334-8.7352 5.3541-9.7898 4.478 0.85725 1.2549 4.1913 2.6564 7.4098 3.7091 0.67114-0.26883 1.284-0.4822 1.6327-0.55646 0.23029 0.26602 0.44837 0.58466 0.64952 0.94091 0.7125-0.32711 1.457-0.71908 1.8818-0.99825 0.9381-0.61756 1.1289-1.2464 1.2116-2.2418 0.37129-4.5166 1.8019-9.5426 3.2438-12.331-1.832 2.7767-4.9179 6.2057-6.2395 6.999" fill="#d3d2d8"/>
  <path d="m27.012 84.588c-2.2193 0.55646-8.5707 8.3516-9.8819 9.2268-1.5181 1.0152-3.6217 1.2088-4.8286 2.4514-0.76796 0.79052-2.9656 0.23594-2.7137-0.48408 0.08742-0.2491 0.52921-1.4175 0.73694-1.5923 0.20772-0.17671 1.5763-0.90802 2.2014-1.1571-0.49348 0.0385-2.7475 0.43709-3.2344 0.81872-0.27823 0.21808-1.3385 2.0426-1.9138 3.4102 0.26977 0.17765 1.0133 0.22936 1.8019 0.1551 9.41e-4 5e-3 0 0.0123 0 0.0179 0.08929 0.77923 1.1703 1.393 2.7381 1.2229 1.3996-0.15321 2.0661-1.3921 3.2467-2.0651 1.1797-0.67396 2.6084-0.44837 3.2683-1.1938 1.4015-1.5857 6.0534-6.0224 6.9708-6.6315 1.4278-0.94749 3.1743-0.95031 5.1473-0.35248 1.7089 0.51886 4.0334-1.5745 4.5852-4.213-1.8094 1.2088-5.8438-0.18518-8.1242 0.38633" fill="#302927"/>
  <path d="m43.783 92.459c-1.6741 0.45964-2.5624 0.77265-3.9845 1.4936-1.8282 0.92587-10.703 7.3863-11.417 7.9738-0.60252 0.49536-2.3603 4.0334-2.959 4.3323-0.74446 0.37035-1.8781 0.0479-1.9796-0.67302-0.10245-0.72848-0.19176-1.8997-0.19176-1.8997-0.28669 0.36565-0.77548 1.5688-1.5669 1.7399-0.67584 0.1457-1.5735-0.0413-2.0623-1.1251 0.09211 0.28951 0.94279 2.5379 1.1345 2.6357 0.6279 0.32053 1.864 0.21806 2.7626-0.13253 0.11279 0.48784 0.94185 1.1392 1.9307 1.003 2.4994-0.34497 3.3482-3.3914 4.4461-4.1613 2.9543-2.0698 7.1635-5.0373 10.112-7.0658 1.064-0.73224 5.2939-1.2436 7.391-1.1402 1.1139-0.93621 1.9439-2.8716 1.9335-5.0599-1.441 0.91836-3.3839 1.4852-5.5496 2.0792" fill="#302927"/>
  <path d="m64.521 81.367c-0.90519 1.6572-4.7516 7.0047-5.9162 7.986-0.78863 0.66268-6.1117 1.9833-9.3161 2.0247-0.14194 1.0076-0.55176 2.2992-1.1026 3.1263 2.6479-0.38445 8.0509-1.7126 10.499-2.5943 0.86384-0.31113 1.2069-0.59406 1.5961-1.5594 0.77172-1.9138 1.9364-4.5382 3.0982-6.6362 0.44085-0.79709 1.1411-2.3471 1.1411-2.3471" fill="#ad4005"/>
  <path d="m188.93 40.688c4.2336-2.7748 8.9025-8.3958 9.6582-11.218-2.5802 0.65704-7.5517 0.62226-10.097 0.29797 1.5566-3.4234 2.8895-8.8762 2.6385-11.013-3.0135 3.9178-8.613 8.8188-14.4 10.555-2.0322-0.91835-4.0851-1.7624-6.1502-2.536-0.29138 0.05265-1.5011 0.37317-1.833 0.41547-0.33274 0.04135-2.3377 0.25004-2.6714 0.27635-0.33274 0.02531-2.2268 0.42581-2.63 0.51886-0.43615 0.10152-1.2746 0.30643-1.5632 0.35531-0.26405 0.04511-0.86007 0.15603-1.3244 0.31865-0.23581 0.08271-0.2398 0.21995-0.0272 0.29327 1.0894 0.37599 2.2794 1.0405 3.2166 1.4353 1.1026 0.46341 2.6197 0.81496 3.8548 1.3404 1.1383 0.48409 3.5775 1.3075 3.4366 1.268-0.46999-0.13067 1.3329 0.44649 1.8057 0.75856-0.24726 0.05923-0.67585 0.25193-1.0039 0.34309-0.26791 0.07519-1.4711 0.38069-1.8339 0.44179-1.9307 0.33181-4.2618 1.284-4.7196 1.456-0.45776 0.17013-3.0117 1.0067-3.2739 1.0772-0.44649 0.1203-1.5387 0.41171-2.1854 0.69088-0.17213 0.07426-0.15881 0.16168-0.0328 0.22653 0.27447 0.14383 0.77737 0.33839 1.0556 0.53954 0.50945 0.36659 1.1374 0.52074 2.1112 1.1994 0.90425 0.63072 1.6008 1.1618 2.5821 1.6826 0.42956 0.2284 2.6479 1.6966 2.9797 1.9401 0.29611 0.21713 0.94939 0.61944 1.0782 0.83282-0.25766 0.17953-1.221 0.42017-1.7841 0.60722-1.3404 0.44837-2.6084 1.0133-4.3822 1.409-0.37599 0.0846-1.2483 0.42487-1.581 0.51134-0.84784 0.21902-2.7297 0.78582-3.79 1.1515-0.1223 0.04231-0.11937 0.12784-0.0272 0.19834 0.44273 0.33745 1.1966 0.93997 1.5904 1.2389 0.17959 0.13725 1.9467 1.2107 2.0933 1.3178 0.37505 0.27635 0.69839 0.53954 1.1383 0.89109 0.25392 0.20303 1.8198 1.3921 2.1121 1.55-0.28012 0.10245-0.66645 0.39385-1.3902 0.62884-0.4653 0.15134-1.1919 0.32523-1.6619 0.47187-0.81496 0.25472-2.4975 0.80744-3.4986 1.05-0.80276 0.19363-1.9025 0.21244-2.9177 0.64294 1.9514 0.50852 3.9639 0.81214 6.154 0.93527 7.3534 0.41359 10.609-2.5276 14.939-2.7259 3.3435-0.15321 11.934 4.0795 14.188 5.8776 0.20303-1.8048-2.1751-8.0386-4.4188-9.8396 3.9958-0.38727 10.178-4.181 12.055-6.1155-1.7634-1.0105-6.6099-2.6817-9.489-3.2974" fill="#6d402d"/>
  <path d="m198.22 43.877c-10.115 4.0127-26.424 5.151-37.54 3.2269-0.0432-0.0085-0.0863-0.01705-0.13056-0.02531-0.84877 0.25193-1.8264 0.55646-2.4853 0.78394-0.1231 0.04229-0.11936 0.12784-0.0272 0.19834 0.44273 0.33839 1.1956 0.93997 1.5904 1.2398 0.17852 0.13629 1.9467 1.2107 2.0924 1.3178 0.37505 0.27635 0.69935 0.5386 1.1383 0.89015 0.25473 0.20303 1.8198 1.393 2.1121 1.551-0.27918 0.10152-0.66644 0.39385-1.3893 0.62884-0.46527 0.15134-1.1928 0.32429-1.6628 0.47092-0.81402 0.25472-2.4975 0.80838-3.4976 1.0509-0.80273 0.19363-1.9034 0.21148-2.9186 0.642 1.9523 0.50853 3.9648 0.81214 6.1549 0.93527 7.3524 0.41453 10.608-2.5266 14.939-2.725 3.3426-0.15321 11.933 4.0795 14.188 5.8776 0.20303-1.8057-2.1751-8.0396-4.4198-9.8406 3.9968-0.38727 10.179-4.1801 12.056-6.1155-0.061-0.03384-0.13349-0.07143-0.2001-0.10717" fill="#572f1e"/>
  <path d="m188.93 40.688c4.2336-2.7748 8.9025-8.3958 9.6582-11.218-2.5802 0.65704-7.5517 0.62226-10.097 0.29797 1.5566-3.4234 2.8895-8.8762 2.6385-11.013-3.0135 3.9178-8.613 8.8188-14.4 10.555-1.6497-0.74446-3.3134-1.44-4.9856-2.0886-0.51416 0.06675-1.3056 0.33839-2.0689 0.48221-0.44838 0.08271-1.4447 0.24252-2.114 0.30737-0.34215 0.03291-2.9788 0.40325-3.1169 0.41453-0.37788 0.02819-1.8339 0.31771-2.1488 0.34121-0.55083 0.04324-0.49914 0.12688-0.1231 0.28199 0.56962 0.23498 1.6431 0.68712 1.8508 0.7689 0.5621 0.21902 2.1187 0.6185 2.4665 0.73318 1.6121 0.52826 2.9929 1.1656 5.5195 2.0623 1.0913 0.38727 2.2907 1.0161 2.6676 1.2887-0.2001 0.15038-0.85913 0.33463-1.2511 0.48597-0.46247 0.17764-2.3386 0.60346-2.9478 0.75762-1.2953 0.32993-3.0088 0.99637-4.181 1.3442-0.48878 0.14476-1.6271 0.47657-2.3142 0.73882-0.58281 0.22278-1.0876 0.36377-1.8292 0.5715-0.13615 0.03853-0.16813 0.14383-5e-3 0.25379 0.35531 0.24063 0.81685 0.56774 0.98322 0.67678 0.98227 0.64764 2.991 2.1779 3.8106 2.6977 0.88922 0.56398 1.7314 1.0819 2.1234 1.3977 0.36469 0.29609 1.5773 1.3216 1.7502 1.4974-0.39011 0.28387-1.9589 0.83188-2.4336 1.003-1.7888 0.642-3.6979 1.2248-5.3259 1.7305-0.32054 0.09965-2.4364 0.76514-3.0953 1.0368-0.12044 0.04983-0.14762 0.13346-0.0376 0.23876 0.32616 0.31489 0.79239 0.70498 0.89297 0.76044 0.75008 0.41641 2.7842 2.0181 3.1301 2.2672 0.43895 0.31395 1.4739 0.89767 1.6412 1.0105 0.27634 0.18518 0.99825 0.70498 1.4513 0.89109-0.43239 0.20492-0.73129 0.28763-1.0922 0.41829-0.54518 0.19928-1.1609 0.52638-1.8113 0.76796-0.74728 0.27729-1.52 0.46529-1.9307 0.62038-0.6702 0.25379-1.9176 0.46435-2.3951 0.6232-0.30831 0.10245-1.3357 0.66926-1.488 0.74446-2e-3 9.4e-4 -5e-3 0.0019-8e-3 0.0029 1.0763 0.1692 2.1845 0.28481 3.3426 0.34967 7.3534 0.41359 10.609-2.5276 14.939-2.7259 3.3435-0.15321 11.934 4.0795 14.188 5.8776 0.20303-1.8047-2.1751-8.0386-4.4188-9.8396 3.9958-0.38727 10.178-4.181 12.055-6.1155-1.7634-1.0105-6.6099-2.6817-9.489-3.2974" fill="#3e3a39"/>
  <g fill="#302927">
   <path d="m198.22 43.877c-9.6723 3.837-25.004 5.0448-36.047 3.46-0.76324 0.24439-1.7878 0.58184-2.2117 0.75574-0.12123 0.04983-0.14761 0.13346-0.0386 0.23874 0.32618 0.31489 0.79335 0.70498 0.89391 0.76138 0.7501 0.41547 2.7833 2.0172 3.1301 2.2663 0.43805 0.31489 1.473 0.89767 1.6412 1.0105 0.27636 0.18518 0.99731 0.70498 1.4513 0.8911-0.43333 0.20492-0.7313 0.28763-1.0923 0.41923-0.54611 0.19928-1.1609 0.52544-1.8122 0.76702-0.74635 0.27729-1.519 0.46529-1.9298 0.62038-0.67116 0.25472-1.9176 0.46435-2.3951 0.6232-0.30831 0.10341-1.3357 0.66926-1.488 0.74446-2e-3 9.41e-4 -5e-3 0.0019-8e-3 0.0029 1.0763 0.1692 2.1845 0.28481 3.3426 0.34967 7.3524 0.41453 10.608-2.5266 14.939-2.725 3.3425-0.15321 11.933 4.0795 14.188 5.8777 0.20304-1.8057-2.1751-8.0396-4.4197-9.8406 3.9968-0.38727 10.179-4.1801 12.056-6.1155-0.061-0.03384-0.1335-0.07144-0.20011-0.10717"/>
   <path d="m188.49 29.76c1.5556-3.4243 2.8867-8.8705 2.6357-11.005-0.0213 0.02819-0.045 0.05734-0.0666 0.08553-0.59594 3.0737-3.0587 8.8423-4.5128 10.48 0.48315 0.17109 1.3009 0.38915 1.9439 0.43991"/>
   <path d="m188.93 40.688c4.2336-2.7748 8.9025-8.3958 9.6582-11.218-0.0546 0.01412-0.11564 0.02638-0.17213 0.03949-2.2728 3.0126-9.8321 9.8575-9.881 11.232l0.45966-0.03853c-0.0213-0.0048-0.0442-0.01119-0.0648-0.01492"/>
  </g>
  <g fill="#dbdcdc">
   <path d="m11.917 49.883 0.15696 1.0612 0.37787-1.1768z"/>
   <path d="m9.4607 50.783 0.12313 0.7266 0.30361-0.93809z"/>
   <path d="m18.495 52.656 1.4823 0.94561 0.26413-0.47845z"/>
   <path d="m16.269 52.71c0.13818 0.05923 1.4288 0.79898 1.723 1.0509l0.1692-0.36565s-1.2643-0.689-1.8922-0.68524"/>
  </g>
  <g fill="#0f141b">
   <path d="m37.126 2.7931c-0.05641-0.27729-0.22371-0.32617-0.43145-0.15321-3.1357 2.5887-9.0961 17.454-9.9712 23.771-0.01972 0.141-0.01492 0.25097 0.01785 0.38915 0.32523 1.3977 1.77 5.01 3.1235 6.3646 0.27071 0.27071 0.46905 0.13442 0.45589-0.19928-0.23405-6.2593 2.5078-21.219 5.9669-27.934 0.28857-0.56022 0.01306-0.70686-0.29609-0.15979-3.5099 6.2151-6.3467 19.852-6.2978 27.151-1.1402-1.566-2.1469-4.2553-2.3706-5.3306 0.90801-6.9069 6.577-20.32 9.3743-23.318 1.096 5.5938 2.8303 18.514 2.0886 26.107l0.75292 0.62884c0.87981-7.8046-1.3113-21.919-2.4129-27.317"/>
   <path d="m30.586 25.709-0.07615 0.58184c3.5616 0.14569 6.5695 2.1948 9.0012 4.6463l0.55366-0.46716c-2.4806-2.5069-5.6051-4.5692-9.4787-4.761"/>
   <path d="m46.453 39.073c-0.90331-1.2671-2.1948-3.4845-3.9328-5.7545l-0.37317 0.65798c1.8245 2.3509 2.9205 4.2524 3.8811 5.3578 0.98509 1.1327 1.2821 0.94091 0.42487-0.26131"/>
   <path d="m20.956 2.9887c-0.23312-0.28857-0.39761-0.23687-0.46999 0.11375-0.13911 0.67208-3.3585 15.996-0.7971 25.853l0.6373-0.60346c-2.1535-8.7681-0.0048-21.562 0.56398-24.538 1.9833 3.0182 5.9406 12.835 7.0489 18.505l0.38257-1.362c-1.4588-6.2151-5.6276-15.806-7.3656-17.969"/>
   <path d="m17.82 24.34c0.0037-0.75856-0.22184-0.736-0.48126-0.15979-0.83658 1.847-1.7436 6.6823-1.4071 9.818l0.51699-0.93621c-0.09587-2.2625 0.34873-5.3945 0.89297-7.4089 0.02078 1.8743 0.0705 4.1857 0.37599 5.6286l0.50101-0.64858c-0.32523-1.848-0.40795-4.3492-0.39855-6.2931"/>
   <path d="m15.801 33.535c-0.79804 1.3517 0.57432 4.2806-0.09869 5.1379-1.5265 1.942-8.5152 7.7614-10.814 9.4364l0.79992 0.07426c2.6554-2.0031 9.0876-7.329 10.554-9.1939 0.69934-0.89109-0.5245-4.056 0.13346-5.1708 2.5379-4.3013 6.4567-7.907 10.654-7.9258l0.16637-0.64388c-4.4226-0.05265-8.7211 3.7561-11.394 8.2859"/>
   <path d="m11.471 49.738c-1.7032 0.51886-3.2025 0.89955-4.1707 0.97381-0.67584 0.05262-1.504-0.38539-1.9852-0.99449l-0.91647-0.56304c0.04887 0.50571 1.0697 2.2597 2.9111 2.1112 1.1665-0.09494 3.0671-0.6091 5.1341-1.2671z"/>
   <path d="m26.987 43.127c-0.42863-0.14383-0.48972 0.05169-0.094 0.26977 0.35907 0.19645 1.0744 0.73318 1.0913 0.84691 0.02638 0.18518-2.3471 1.7888-2.6648 1.8546-0.12126 0.0093-0.44837-0.13818-0.71156-0.25755-0.59218-0.26789-1.3291-0.60252-1.8931-0.33745-1.2765 0.60064-3.6668 1.581-6.2424 2.5323l-0.7595 0.85162c2.9233-1.0509 5.7517-2.2052 7.2293-2.8998 0.33933-0.16072 0.95313 0.1175 1.4457 0.34027 0.39855 0.18046 0.71438 0.32335 0.97287 0.30361 0.43614-0.03384 3.1498-1.8781 3.1498-2.3631 0-0.39949-0.99073-0.96253-1.5237-1.1411"/>
   <path d="m17.294 37.839c-0.01785 9.4e-4 0.01679-9.38e-4 0 0"/>
   <path d="m42.704 26.916c-3.4224 5.0646-8.1712 7.2726-10.554 7.4568-1.1421 0.08742-2.8716-0.40231-5.0467-1.8837-0.81778-0.5574-1.7108-0.53484-2.5285 0.13629-1.5942 1.3075-6.1766 4.6463-7.2867 4.7027-0.2491 0.01306-0.79334-0.46999-1.2126-1.0904l0.13722 1.0124c0.35719 0.35813 0.76232 0.56774 1.0828 0.54988 1.6769-0.09211 6.0233-3.4431 7.6128-4.6463 0.65892-0.49912 1.2746-0.5433 1.9006-0.1175 2.2033 1.4993 4.0212 1.9739 5.4039 1.8677 4.4846-0.34685 8.9749-4.6773 10.91-7.5405 0.19928-0.29515 0.29139-0.36941 0.32241 0.21244 0.12313 2.286-1.0255 6.2659-3.0681 8.8649-0.81966 1.0443-0.5245 1.2097 0.28011 0.24721 2.2174-2.6441 3.5146-6.6992 3.382-9.1393-0.06392-1.1947-0.72848-1.5303-1.3357-0.6326"/>
   <path d="m42.198 33.769-0.49443 0.88264c-0.0037 3.9413-3.7251 8.1975-6.9746 8.5368-2.0604 0.2162-5.2986-1.8517-6.5563-1.8705-1.1853-0.02158-3.4121 1.6581-4.7168 1.5491-1.7098-0.14194-4.5382-2.5595-6.4492-3.1357-0.27165-0.08271-1.1101-0.14759-1.7126-0.01412l-0.47562 0.51322c0.59124-0.11279 1.5942-0.22089 2.0557-0.08084 1.9251 0.5809 4.7121 3.1545 6.546 3.3068 1.3846 0.11186 3.7279-1.6186 4.744-1.6036 1.2248 0.01785 4.5363 2.1356 6.6127 1.9561 3.5211-0.30549 8.002-5.121 7.4211-10.04"/>
   <path d="m34.73 43.759c-0.02158 0.0019 0.02158-0.0019 0 0"/>
   <path d="m41.585 45.706c-0.30361-0.40795-2.3048-2.5971-3.3369-3.7702l-0.44555 0.30361c0.86101 0.97757 2.2945 2.7175 2.9036 3.4591-2.0529 0.72848-5.7978 1.7098-7.9766 2.2033-0.81307 0.18422-0.74446 0.54142 0.06675 0.43051 0.92305-0.12595 6.9022-1.5087 8.6741-2.2183 0.2397-0.09683 0.25755-0.21713 0.11468-0.40795"/>
   <path d="m25.441 34.049c-1.0631 0.37505-1.4372 1.9664-2.6564 2.9778 1.2455-0.41547 3.7674-1.5425 4.5908-1.9852 0.13725-0.07426 0.12502-0.16168 0.03008-0.24721-0.42016-0.37787-1.3959-0.94561-1.9645-0.7454m-3.1104 3.5334c-0.43991 0.03384-0.49442-0.20117-0.23218-0.44367 1.7136-1.5801 1.7963-3.1104 3.1649-3.5935 0.88545-0.31395 2.1384 0.48033 2.5586 0.91741 0.42487 0.44273 0.43239 0.6749-0.10245 0.95877-1.3244 0.70216-4.807 2.1159-5.3889 2.161"/>
   <path d="m28.427 38.617c-1.1721-0.04135-6.5384-0.16168-7.5828-0.18798-0.79616-0.02158-0.82624 0.32429-0.03477 0.36659 2.0726 0.11279 5.6427 0.31113 6.9906 0.37787-0.61944 1.0462-1.879 1.9514-3.0897 1.847-1.003-0.08742-2.1027-0.95877-3.132-2.2287 0 0-0.26789-0.02819-0.49254-0.03949 1.0753 1.5679 2.2353 2.7645 3.5559 2.8791 1.7108 0.14759 3.4591-1.1797 4.0842-2.6451 0.1175-0.27729 0.0048-0.35907-0.29891-0.36941"/>
   <path d="m7.0291 43.29c0.11375-0.5574-0.12033-0.51228-0.38445-0.01306-0.6514 1.2473-0.97851 3.3256-0.93809 4.4216l0.56868-0.45025c-0.04135-0.75668 0.0611-1.8508 0.23312-2.521-0.05451 0.7407 0.05545 1.8198 0.1645 2.2174l0.49724-0.36847c-0.22464-1.0734-0.34967-2.2597-0.141-3.2861"/>
   <path d="m7.494 48.861c-0.32429 0.42957-1.1392 1.017-1.8264 0.95031-0.39103-0.0376-0.76796-0.45964-0.90519-0.81496-0.10903-0.28293-0.03008-0.39573 0.12877-0.41735 0.5386-0.07333 1.7671-0.05545 2.4759 0.01679 0.17109 0.01785 0.24063 0.11468 0.12691 0.26506m-0.03195-0.7877c-0.69652-0.03008-2.0322-0.07802-2.6244 0.0029-0.4775 0.06485-0.81966 0.41735-0.55928 1.0941 0.19834 0.51417 0.82154 1.1242 1.4466 1.1853 0.8817 0.08553 1.7972-0.61944 2.2456-1.2126 0.35437-0.4681 0.21244-1.0377-0.50853-1.0697"/>
   <path d="m10.077 49.4c0.8018 0.39761 3.4112 1.2746 4.2224 0.98791 1.2793-0.45494 4.2252-4.3624 4.5833-4.9076 0.33651-0.51228 0.21995-0.63072-0.28857-0.28387-1.3207 0.89297-4.385 2.9694-4.9875 3.0615-0.43709 0.06674-1.6158-0.13253-2.7466-0.32053-0.48221-0.07991-0.62226 0.10338-0.10341 0.28199 1.111 0.38257 2.6018 0.68618 2.9929 0.61004 0.63072-0.12313 2.6893-1.598 3.867-2.4251-1.0349 1.2577-2.8039 3.1762-3.5277 3.4328-0.65892 0.23594-3.1621-0.49724-3.8341-0.72472-0.5527-0.18611-0.51416 0.12033-0.17764 0.28763"/>
   <path d="m9.7122 50.543c-0.04042 0.25472-0.09776 0.55082-0.15696 0.79804-0.18705-0.17202-0.37693-0.37881-0.57338-0.61662l-0.56774 0.14194c0.38539 0.49537 0.75574 0.87887 1.1251 1.1552 0.21244 0.15886 0.32241 0.11186 0.40983-0.12033 0.12502-0.33087 0.2632-1.0462 0.32429-1.4983z"/>
   <path d="m12.181 49.922c-0.03101 0.29515-0.07519 0.6373-0.11844 0.92023-0.22184-0.23876-0.46622-0.5292-0.64012-0.75198l-0.53766 0.17295c0.28387 0.38915 0.87323 1.0716 1.1768 1.331 0.21902 0.18705 0.37693 0.14759 0.43427-0.14004 0.04983-0.25286 0.15134-0.90237 0.21148-1.4353z"/>
   <path d="m26.423 38.92c-0.11186 0.6655-0.42205 1.2943-0.82812 1.2361-0.31019-0.04324-0.37035-0.69746-0.29797-1.2802l-0.53202-0.04042c-0.06861 1.0161 0.19552 1.6788 0.79898 1.7314 0.62226 0.05452 1.1524-0.595 1.3714-1.6309z"/>
   <path d="m25.859 38.749c0.29045 0.01785 0.17109 0.99919-0.12595 0.96535-0.29797-0.03384-0.1645-0.98415 0.12595-0.96535"/>
   <path d="m25.979 46.047c-2.0444 2.9214-6.7142 8.1702-7.6363 8.9203-0.19363 0.15696-0.49348 0.20586-0.72942 0.11279-0.41547-0.16261-0.5574 0.08929-0.15603 0.28575 0.34215 0.16826 0.87323 0.1692 1.2154-0.09869 1.1712-0.91929 6.9652-7.3581 8.44-9.9975z"/>
   <path d="m18.15 52.315c-0.18422 0.18801 0.2378 0.94091 0.98979 2.1347l0.37035-0.36377c-0.22089-0.34591-0.69652-0.99167-0.89955-1.3601 0.37881 0.12408 1.128 0.42863 1.6083 0.642l0.33369-0.37129c-0.70686-0.33463-2.2052-0.88263-2.4026-0.68148"/>
   <path d="m17.36 54.048c-0.15979-0.15979-0.74446-0.89391-0.98791-1.2859 0.45213 0.11375 1.3404 0.50288 1.5237 0.6655 0.16637 0.14759-0.37975 0.77548-0.53578 0.62038m0.88545-1.0152c-0.22371-0.19928-1.112-0.53202-1.7286-0.64576-0.64388-0.1175-0.71156 0.14663-0.46623 0.62038 0.25193 0.48691 0.66644 1.0471 0.95125 1.4024 0.56116 0.7031 1.8583-0.82906 1.2436-1.3771"/>
   <path d="m20.553 46.668-0.61756 0.32335c-0.71908 1.409-1.8301 3.8548-2.6836 5.8015l0.501 0.18611c0.97569-2.223 2.1516-5.0721 2.8002-6.311"/>
   <path d="m38.687 81.195c-1.7812-2.6094-6.2959-19.295-6.0309-21.033 0.2632-1.722 2.6874-6.5638 2.0896-8.2436-0.17109-0.47845-4.0062-3.4177-4.8324-3.3538-1.1317 0.08742-6.6024 4.0992-7.4361 4.761-1.0772 0.8535-3.414 3.0286-4.3953 3.2194-0.41265 0.08084-0.93809-0.28199-1.3263-0.75104-0.1081-0.13067-0.11657-0.20303-0.06016-0.34403 0.11844-0.29045 0.28669-0.69088 0.48878-1.1599l-0.35718-0.52262c-0.27541 0.63824-0.50382 1.175-0.64764 1.534-0.10903 0.27259-0.13067 0.45307 0.06675 0.71156 0.48033 0.62414 1.2962 1.3197 2.0087 1.1815 1.206-0.23498 3.7204-2.7222 4.6068-3.4253 1.6121-1.2784 6.3082-4.556 7.1005-4.6181 0.40231-0.0075 3.8125 2.3161 4.181 2.9468 0.49912 1.4024-2.0087 6.6747-2.208 7.955-0.29703 1.9044 4.2731 18.769 6.1296 21.491 0.88357 1.2934 4.0193 2.6272 7.1344 3.6659l1.0556-0.34403c-3.413-1.1007-6.7716-2.5041-7.5677-3.6706"/>
   <path d="m45.282 78.124c-1.5754-1.2285-3.8567-4.6801-5.6671-7.5489-0.39291-0.62508-0.50288-0.44837-0.33463 0.27165 0.36377 1.5472 2.4355 5.8306 3.9883 7.6749 0.47093 0.55928 0.61568 0.42299 0.20586-0.18236-1.1439-1.6882-2.6432-4.4574-3.6264-6.6381 1.3498 2.3208 3.9037 5.9077 5.105 6.8439 1.9833 1.5453 4.651 2.5182 6.1728 2.9872l0.0461-0.54613c-1.5012-0.46904-4.0184-1.4034-5.8899-2.8622"/>
   <path d="m50.108 82.502c-1.8433-0.32335-4.1838-1.1327-5.3851-2.1873-0.44931-0.39385-0.29421-0.59406 0.19176-0.24814 1.1797 0.84033 3.5249 1.644 5.2789 2.0717 0.74164 0.18047 0.54707 0.47469-0.0855 0.36377"/>
   <path d="m54.136 69.838c-1.7512 3.1386-3.0662 7.8657-3.3106 12.217-0.0545 0.96817-0.17577 1.4137-1.0114 1.9627-0.39855 0.26224-1.1411 0.6561-1.8583 0.98509l0.32993 0.74634c0.70404-0.32335 1.4447-0.7125 1.8959-1.0086 1.0039-0.6608 1.2737-1.41 1.363-2.4862 0.34403-4.1857 1.5049-9.2691 3.0399-12.266 0.39667-0.77454-0.0208-0.91648-0.44837-0.15039"/>
   <path d="m69.338 70.984c-2.9816 7.3177-6.9079 13.08-9.3602 19.193-0.36283 0.90519-0.64858 1.1233-1.4382 1.4081-2.474 0.89109-7.3863 2.1309-10.035 2.5389l-0.50382 0.73318c2.6488-0.34779 8.4175-1.7643 10.84-2.6366 0.97663-0.35249 1.3714-0.71344 1.753-1.7126 2.2522-5.8748 5.8297-10.543 9.1553-19.376 0.36847-0.98039-0.0149-1.1186-0.41076-0.14852"/>
   <path d="m47.595 84.225c-0.06392-0.0733-0.16355-0.10527-0.25755-0.0865-0.94467 0.20303-3.914 1.4889-4.7093 2.1375-0.66926 0.54518-1.0255 1.7709-1.7925 2.0708-0.52544 0.20492-2.7607 0.90801-3.4347 1.0885-1.1815 0.31677-1.6976 0.72754-2.5595 1.7267-2.1309 2.4684-5.6361 4.8944-10.049 7.1006-0.6185 0.30925-1.5961 1.1007-2.0228 1.5754-0.36753 0.40889-2.9496 3.3482-3.382 4.0654-0.25286 0.41735 0.68148 3.0944 1.1909 3.3529 0.61474 0.31395 1.9232 0.30737 2.9064-0.0301l-0.1927-0.64952c-0.79052 0.23877-1.8593 0.31771-2.333 0.0771-0.26131-0.21527-0.94749-2.0689-0.86196-2.4063 0.41077-0.72754 2.6141-3.3228 3.2109-3.9949 0.42863-0.48315 1.2549-1.1665 1.7634-1.4203 4.4761-2.2371 8.0142-4.7017 10.19-7.2228 0.80932-0.93715 1.2314-1.2737 2.2945-1.5594 0.4681-0.12595 2.6517-0.87605 3.4403-1.1938 1.0603-0.4258 1.4983-1.6647 2.0651-2.1272 0.69464-0.56587 3.1762-1.5773 4.1895-1.8489 1.6365 2.0482 2.694 7.6157 0.01972 10.247-2.1375-0.0808-6.3176 0.43051-7.4446 1.206-2.2343 1.5369-10.153 7.0629-10.153 7.0629-1.3131 0.91929-1.8997 3.7693-4.2496 4.0832-0.65986 0.0884-1.2107-0.14476-1.4974-0.54424-0.28763-0.45965-0.30079-3.1348-0.18329-3.4018 0.23029-0.52545 1.1402-1.5275 1.6186-1.9589 0.57996-0.52545 0.37787-0.72942-0.24721-0.25945-0.52544 0.39667-1.7014 1.3526-1.9815 1.9918-0.19176 0.43802-0.15792 3.3407 0.14663 3.931 0.29045 0.56492 1.2774 1.0782 2.1751 0.95125 2.678-0.36847 3.4901-3.4694 4.6124-4.2552 0 0 7.876-5.5712 10.108-7.1062 0.93621-0.64294 4.9386-1.1486 7.1363-1.0622 0.11092 5e-3 0.26131-0.0282 0.37505-0.13911 3.1414-3.0606 2.0219-8.9598-0.09118-11.401"/>
   <path d="m19.265 101.86c-0.51981 0.75856-0.2021 2.9102 0.56962 3.6809l-0.05922-1.3423c-0.21337-0.80461-0.16072-1.6468 0.03666-1.9345 0.42205-0.61662 2.1488-1.7521 3.6001-2.4872l1.2398-1.1477c-1.4184 0.52826-4.7196 2.2569-5.387 3.2307"/>
   <path d="m8.8498 97.428c0.07708 0.84503 1.2182 1.753 3.0925 1.5453 1.5528-0.16919 2.0585-1.3592 3.351-2.098 1.1844-0.67583 2.7504-0.43708 3.4365-1.2135 1.3968-1.5792 5.9557-6.0967 6.8214-6.6729 1.2605-0.83658 2.881-0.88828 4.932-0.26696 1.5735 0.47845 4.4545-1.205 5.0213-4.7215 0.34967-2.1732-0.06203-4.1904-0.73694-5.2366-0.15321-0.23687-0.31583-0.30925-0.58654-0.28763-0.91365 0.0696-3.1555 0.34309-3.6292 0.57714-1.0077 0.49537-1.9006 2.3095-2.8303 2.5586-2.1037 0.5621-5.1633 0.14662-6.2649 0.81777-0.7595 0.46247-2.553 2.7212-5.6614 5.0044-1.7718 1.3019-4.3474 2.7475-6.6804 3.7646-0.81777 0.35719-1.3479 0.9005-1.7107 1.5463-0.49725 0.88357-1.2671 2.2362-1.1975 2.8669 0.06579 0.5903 0.57338 1.612 1.018 1.9091 0.30737 0.20586 1.2097 0.25662 1.9072 0.21903l-0.01972-0.57245c-0.65422 0.0367-1.3883-0.0554-1.5557-0.16733-0.22747-0.15134-0.6843-1.0659-0.66644-1.5322 0.01599-0.40701 0.7454-1.7831 1.1844-2.5182 0.33181-0.55459 0.78676-0.92964 1.4936-1.2408 2.2738-1.0011 4.7751-2.4618 6.5704-3.7928 3.0662-2.2728 4.6284-4.2844 5.6239-4.9471 0.83846-0.55928 4.4592-0.36377 6.1155-0.80555 1.2154-0.32523 2.0783-2.1149 2.9421-2.5398 0.4493-0.22182 2.2794-0.46622 3.3501-0.51229 0.29327-0.0122 1.1195 2.0924 0.69088 4.7506-0.38445 2.3838-2.5229 4.7957-4.2299 4.2797-2.2136-0.67114-3.9733-0.52827-5.3757 0.4023-0.97945 0.65047-5.7329 5.1388-7.0667 6.6541-0.50664 0.57432-2.0444 0.52638-3.1564 1.1609-1.3554 0.77454-1.8235 1.8236-3.1724 1.9702-1.2464 0.13442-2.2353-0.40137-2.3208-0.95502-0.12219-0.80273 0.86571-2.7598 1.0979-2.943 0.32335-0.25568 1.8752-1.097 1.8752-1.097 0.65986-0.32899 0.49725-0.65798-0.19834-0.33651 0 0-1.7295 0.64482-2.114 0.94468-0.36659 0.28575-1.4353 2.5501-1.3498 3.4854"/>
   <path d="m33.327 87.444-0.70968 0.49912c1.8094 0.0517 6.1954 0.49443 8.1561 0.81308l0.73882-0.55458c-1.55-0.34403-5.9049-0.63918-8.1853-0.75762"/>
   <path d="m37.928 80.787-0.19552-0.51605c-0.86195 0.0874-1.8752 0.0902-2.6441 0.0658l0.08367 0.53766c0.6843 0.0179 1.535 0.0149 2.3161-0.0451 0.15038-0.0112 0.29703-0.0253 0.43991-0.0423"/>
   <path d="m138.12 71.91c-0.43898-0.24722-1.9815-0.28388-3.2805-0.88076-0.50945-0.23498-6.9708-4.0964-7.9841-4.5382-2.7664-1.206-7.11-3.633-10.107-5.8955-2.4862-1.8771-3.3134-1.9636-4.8681-1.2906-0.55364 0.24063-3.2373 1.4071-6.0027 0.90801l0.23781 0.58278c2.7964 0.38821 5.4312-0.56022 5.9895-0.80273 1.3-0.56399 1.9222-0.59407 4.3333 1.2276 3.0314 2.2879 7.4089 4.542 10.203 5.7611 0.98134 0.42769 7.438 4.2853 7.9728 4.5326 1.2896 0.59312 2.677 0.71907 3.1649 0.97851 0.31396 0.21244 0.37881 1.2408 0.30738 1.9194-0.0967 0.91929-1.8856 2.0491-2.4326 2.1986-1.3949 0.38257-3.2786 5e-3 -5.1642-1.0518-3.6518-2.0473-7.6486-6.4106-14.462-8.9119-2.1253-0.78018-3.4281-0.57056-4.6482 0.74164-1.3742 1.4814-5.5346 5.9246-8.2652 7.015-1.2671 0.5057-4.479-0.13253-5.6962-1.3583-1.5575-1.5679-5.402-5.6408-7.4295-10.307-0.0498-0.11375-0.0902-0.14663-0.21902-0.15886-2.8688-0.27823-6.0694 0.0837-8.0856 0.95219-3.3378 1.4363-8.9824 10.487-14.542 13.125l-0.47281 1.0255c5.5496-2.1243 12.268-12.412 15.223-13.659 1.911-0.80462 4.8926-1.1618 7.6392-0.91929 2.0792 4.6895 5.8993 8.9514 7.4624 10.524 1.2652 1.2746 4.8136 2.0661 6.3674 1.4447 2.8425-1.1346 6.8684-5.6586 8.4109-7.3205 0.89674-0.96535 1.8903-1.4034 4.072-0.60252 6.9267 2.5417 10.722 6.9276 14.345 8.9589 2.6206 1.4682 4.729 1.4992 5.7489 1.2191 0.97286-0.26695 2.7692-1.6929 2.8857-2.802 0.11191-1.0697-0.25286-2.3631-0.70308-2.6159"/>
   <path d="m106.7 61.595c-2.6291-4.9179-1.3996-13.022-3.2457-18.036-1.5021-4.0795-7.7999-10.922-13.928-10.317-7.7595 0.783-16.709 9.6178-20.192 11.076-0.93433 0.39103-4.197 0.6749-6.3298 0.64012-4.8794-2.1901-10.48-3.6405-14.171-5.0834-0.90143-0.35249-2.4853-1.2558-3.4873-2.114l0.70968 1.252c0.88263 0.59688 1.8865 1.1411 2.6244 1.4306 2.7936 1.0922 10.347 3.4337 13.843 4.9461 0.32335 0.14004 0.42299 0.16072 0.63918 0.16261 2.0012 0.01492 5.3484-0.24252 6.4031-0.70122 4.2647-1.8574 13.011-10.262 20.026-10.931 5.5891-0.53296 11.684 5.763 13.23 9.9129 1.8461 4.9555 0.76325 14.061 3.5352 17.975 0.52075 0.73694 0.78864 0.62226 0.34215-0.21244"/>
   <path d="m90.358 60.921c0.26507-1.66 1.1938-4.3229 1.8057-5.3268 0.44273-0.7266 0.6796-0.64482 0.33839 0.14852-0.45589 1.0622-1.5556 4.0908-1.816 5.262-0.14476 0.64952-0.43614 0.595-0.32805-0.0837"/>
   <path d="m101.52 43.33c-1.0725-1.7747-1.3301-1.6844-0.46152 0.24156 0.97757 2.1685 2.1704 14.457 0.5809 16.716-1.7314-1.394-4.2318-4.9546-5.2441-7.2453-0.77735-1.7559-0.84785-3.9798-1.7004-5.5693-1.0067-1.879-3.6433-3.8059-4.9527-3.9291-5.5073-0.5198-11.974 4.3333-15.66 4.7751-4.0278 0.47845-9.6892-1.6656-12.058-1.8564-1.9016-0.15321-6.6155 2.8622-9.332 4.9725 1.4447-2.458 4.1434-6.4379 5.5477-7.9164l-0.55177-0.18329c-1.8499 2.0529-5.0382 7.0582-6.0196 8.9589-0.28763 0.56022-0.12784 0.73694 0.37787 0.28575 2.2578-2.0068 8.0048-5.6756 9.9506-5.5148 2.6761 0.21526 8.1232 2.3039 12.178 1.8207 3.7298-0.44554 10.306-5.3014 15.517-4.8098 1.0218 0.09683 3.5625 1.8414 4.5316 3.6499 0.81966 1.5293 0.82529 3.7965 1.6496 5.5665 1.0189 2.1864 3.6602 6.0459 5.6398 7.4859 0.15135 0.11092 0.23029 0.10338 0.35719-0.0385 1.5594-1.7624 1.2849-11.023 0.14759-15.916 0.48315 0.77078 1.2896 1.8715 1.9533 2.395l-0.0752-0.76608c-0.77078-0.70028-1.769-2.1196-2.3762-3.1226"/>
   <path d="m69.404 75.734-0.54331 0.42204c1.4635 0.97194 4.0579 2.9393 4.1584 3.9253 0.094 0.92117-1.5453 4.2092-1.8433 4.8221-0.3835-2.1008-1.2361-3.1404-2.0651-3.6471l-0.62226 0.33557c1.3808 0.60346 1.9401 2.2494 2.1666 3.461 0.18894 1.0114 0.40513 1.3131 0.97569 0.16168 0.7172-1.4457 2.1131-4.1838 2.0125-5.1717-0.13535-1.3244-3.0051-3.4657-4.2393-4.3088"/>
   <path d="m70.821 81.06c-0.76608-0.31959-1.4053-0.32429-2.3152 0.15417-1.628 0.85443-3.6311 2.6902-5.5891 3.4911l-0.44461 0.83375c2.1854-0.65234 4.2778-2.8237 6.294-3.8821 0.7642-0.40136 1.3037-0.52638 1.9157-0.27071 0.80086 0.33463 0.94091 7e-3 0.13912-0.32617"/>
   <path d="m90.924 71.999c-2.0642-0.56304-7.4465-4.5983-9.9938-7.6598l-0.46717 0.40701c2.6376 3.1912 8.1308 7.3102 10.296 7.8995 1.0969 0.29891 3.9714 0.24252 5.9472 0.13253l-0.48879-0.51134c-1.8865 0.0818-4.3417-9e-3 -5.2939-0.26789"/>
   <path d="m124.62 81.722c-0.46058 0.26696-1.0763 0.49819-1.3479 0.53861-0.40231 0.0667-1.5444-0.14194-2.2729-0.71156-0.86007-0.67114-2.4411-5.4641-3.6696-6.358-0.94279-0.68712-5.9989-3.7242-8.4598-4.8127l-0.42862 0.38633c2.1215 0.89297 7.3854 3.993 8.5735 4.8587 1.2953 0.94186 2.5971 5.6483 3.6123 6.4407 0.9146 0.71438 2.1262 0.92118 2.7804 0.8253 0.42768-0.0639 1.8846-0.75198 2.3067-1.2492z"/>
   <path d="m126.93 79.617c-0.41265-1.2906-3.1555-5.2009-4.0156-6.8345-0.29703-0.56399-0.71532-0.95783-1.5444-1.4504-1.9946-1.1881-6.2734-3.6875-7.9324-4.8841l-0.64106 0.18798c1.5171 1.1646 6.0534 3.9404 8.2229 5.215 0.84221 0.49537 1.1364 0.84598 1.3451 1.2417 0.42487 0.8065 3.5653 5.7216 3.8614 6.6475 0.0893 0.27729-5e-3 0.91835-0.36658 1.2718-0.49162 0.48033-2.3706 0.37505-3.3313-0.11092-0.28951-0.1457-0.91459-1.409-0.98415-1.5369-0.38915-0.71249-0.62978-0.6373-0.39479 0.21527 0.14194 0.51698 0.68148 1.6496 0.96254 1.8198 1.0781 0.64952 3.6471 0.81214 4.3258 0.0536 0.44742-0.49913 0.67678-1.2605 0.49253-1.8358"/>
   <path d="m116.49 68.769-0.44649-0.29328c-0.52262 1.1308-4.3295 2.3086-6.733 2.4975l1.0039 0.41829c2.3283-0.35625 5.3343-1.268 6.1756-2.6225"/>
   <path d="m126.85 66.965-0.57713-0.33181c-0.26978 0.76044-2.8857 1.8282-5.9698 2.2465l0.75668 0.42204c2.7569-0.44648 5.3146-1.299 5.7902-2.3368"/>
   <path d="m139.8 72.718c-0.24354-0.47375-0.97475-0.59689-1.8217-0.7407-0.0133-2e-3 -0.029-5e-3 -0.0432-7e-3l0.32805 0.60064c0.48691 0.0893 0.96537 0.20586 1.0612 0.39197 0.18038 0.34873 0.0743 1.7145-0.0602 1.9316-0.21796 0.29891-1.2135 0.92305-2.2738 1.3366l-1.3376 0.93527c1.5162-0.22936 3.665-1.3235 4.0851-1.8978 0.25846-0.35343 0.33275-2.0256 0.0621-2.5501"/>
   <path d="m23.113 45.677-1.4579 0.57338c-1.3272 1.5857-2.4984 4.2449-3.2485 6.1672l0.41735 0.1551c0.96347-2.3246 2.5426-5.6774 4.2891-6.8956"/>
   <path d="m18.306 53.857c0.07895-0.20303 0.16826-0.42957 0.26695-0.67302l-0.26789-0.50665c-0.14852 0.38539-0.27917 0.73788-0.38727 1.0358-0.41453 1.1458-0.05358 1.6581 0.85632 1.2614l0.25662-0.4681c-0.82623 0.4634-1.0744 0.24439-0.72472-0.64952"/>
   <path d="m191.39 18.724c-0.045-0.38445-0.23207-0.44931-0.47753-0.1316-3.0605 3.978-8.7605 8.66-14.311 10.36-34.017-15.318-69.995-9.9656-82.273 5.4453l0.70592 0.29139c14.63-17.341 52.684-18.198 81.729-5.0852 0.0592 0.02726 0.12603 0.03008 0.18705 0.01306 5.434-1.6309 10.73-6.1878 13.937-10.131-0.045 2.4552-1.3357 7.1532-2.7118 10.163l0.6824 0.11561c1.5528-3.4441 2.7917-8.832 2.5323-11.041"/>
   <path d="m198.94 29.45c0.0874-0.36753-5e-3 -0.41359-0.32429-0.32899-3.1179 0.7924-9.4336 0.6937-11.315 0.22185-0.98133-0.24628-1.0828 0.07426-0.12123 0.38727 1.6365 0.53296 7.6927 0.83846 10.932 0.17764-1.0349 2.7692-5.2526 7.8845-9.3283 10.556-0.35155 0.22936-0.33839 0.39291 0.0911 0.48408 2.7174 0.58372 7.0244 2.1215 8.941 3.1085-2.1018 1.8912-7.6034 5.3212-11.478 5.778-0.41923 0.04887-0.44835 0.2284-0.14201 0.47375 1.957 1.5707 3.9629 6.5995 4.1443 8.8132-2.5332-1.7794-10.251-5.4866-13.757-5.3259-4.6848 0.2143-7.6194 3.0201-14.892 2.6103-9.2108-0.51887-15.183-4.0287-27.434-13.84-11.85-9.489-26.606-10.401-34.512-4.0823l0.45494 0.46529c7.9785-6.3138 22.342-4.8963 33.64 4.1509 12.349 9.8894 18.434 13.553 27.788 14.095 7.0244 0.40701 11.302-2.6921 14.979-2.8641 3.3294-0.15228 11.926 4.2167 14.072 5.9275 0.24247 0.19363 0.39387 0.16451 0.4324-0.1786 0.20117-1.7859-1.8508-7.5771-3.9958-9.7917 4.1575-0.67584 9.8848-4.3211 11.644-6.1343 0.17959-0.18518 0.17026-0.28669-0.0591-0.41829-1.6487-0.94467-6.1249-2.4561-9.113-3.1724 4.1312-2.7955 8.5669-7.8215 9.3527-11.112"/>
  </g>
 </g>
</svg>
