<?xml version="1.0" encoding="UTF-8"?>
<!-- Created with Inkscape (http://www.inkscape.org/) -->
<svg version="1.1" viewBox="0 0 87.559 83.79" xmlns="http://www.w3.org/2000/svg">
 <g transform="translate(-1.2783 -1.9829)">
  <g transform="matrix(.83445 0 0 -.83445 87.737 6.3391)">
   <path d="m0 0c-0.313 1.365-0.755 1.602-2.348 1.488-9.888-0.706-22.585-5.736-26.283-18.38-6.576 2.125-16.034 1.395-21.46-1.983-0.049-0.03-0.097-0.066-0.146-0.098-0.403 8.695-7.344 18.831-12.398 23.379-0.967 0.87-1.561 0.574-1.516-0.724 0.12-3.44-1.611-10.912 0.03-18.817 0.938-4.52 3.553-9.681 7.069-11.827-1.314-2.735-2.272-6.03-2.718-9.929-2.186-2.361-3.017-4.898-3.192-6.735-0.265-2.781 2.028-8.197 5.204-10.803 4.408-1.095 12.203-5.949 15.261-8.494 1.812-0.231 4.291-0.323 5.19-0.236 6.78 3.66 13.082 6.402 19.328 7.418 6.966 4.629 7.496 12.19 5.878 17.851-0.331 1.158-0.693 3.563-1.605 6.36 12.233 3.997 16.588 18.965 13.706 31.53" fill="#fff"/>
  </g>
  <g transform="matrix(.83445 0 0 -.83445 46.944 21.529)">
   <path d="m0 0c-0.419-0.211-0.822-0.434-1.204-0.671-0.049-0.031-0.097-0.067-0.147-0.098-0.402 8.694-7.343 18.831-12.397 23.379-0.967 0.87-1.562 0.574-1.517-0.725 0.12-3.44-1.61-10.912 0.031-18.817 0.938-4.519 3.552-9.68 7.069-11.827-1.314-2.735-2.273-6.03-2.718-9.928-0.046-0.049-0.088-0.1-0.132-0.149 1.163-1.957 3.185-3.069 5.239-3.345 3.467-0.465 4.82 0.94 5.76 7.518 0.456 3.195 0.444 10.616 0.016 14.663" fill="#d4c8a0"/>
  </g>
  <g transform="matrix(.83445 0 0 -.83445 47.149 21.545)">
   <path d="m0 0-0.626-0.315c0.592-6.221 0.456-16.94-2.29-20.659-1.655-2.242-6.364-0.28-8.029 2.55l-0.481-0.634c1.791-2.857 7.243-4.95 9.112-2.329 2.896 4.064 3.024 14.73 2.314 21.387" fill="#eae4d0"/>
  </g>
  <g transform="matrix(.83445 0 0 -.83445 43.861 28.914)">
   <path d="m0 0c2.539-0.196 3.597-3.511 3.375-6.8-0.242-3.593-1.722-6.579-3.817-6.579-3.281 0-4.944 3.687-4.449 7.687 0.346 2.803 2.471 5.879 4.891 5.692" fill="#fff362"/>
  </g>
  <g transform="matrix(.83445 0 0 -.83445 46.144 34.537)">
   <path d="m0 0c-0.223-3.291-1.384-6.19-3.058-6.19-2.913 0-4.658 3.27-4.175 7.174 0.322 2.608 2.358 5.504 4.484 5.41 2.137-0.095 2.945-3.476 2.749-6.394m-2.663 7.1c-2.644 0.116-4.866-2.757-5.378-5.951-0.733-4.575 1.791-8.136 4.933-8.048 0.794 0.022 1.345 0.361 1.915 0.977 0.785 0.849 1.883 3.651 2.032 5.863 0.289 4.295-1.237 7.059-3.502 7.159" fill="#ecdf87"/>
  </g>
  <g transform="matrix(.83445 0 0 -.83445 87.737 6.3391)">
   <path d="m0 0c-0.313 1.365-0.755 1.602-2.348 1.488-9.888-0.706-22.585-5.736-26.283-18.38-0.116 0.038-0.233 0.072-0.35 0.108-3.281-5.635-4.434-14.185-4.381-17.703 0.094-6.354 1.859-7.696 6.844-8.266 5.693-0.65 11.813 0.917 14.509 4.521-0.03 0.114-0.059 0.229-0.092 0.342-0.331 1.158-0.693 3.563-1.605 6.36 12.233 3.997 16.588 18.965 13.706 31.53" fill="#d4c8a0"/>
  </g>
  <g transform="matrix(.83445 0 0 -.83445 77.555 37.842)">
   <path d="m0 0c-2.588-3.789-9.028-5.264-14.292-4.661-4.903 0.561-6.385 1.474-6.481 7.945-0.046 3.123 0.945 11.673 4.252 17.394l-0.714 0.244c-3.317-5.884-4.422-14.495-4.375-17.663 0.096-6.446 2.412-8.154 7.243-8.706 5.949-0.681 11.653 0.963 14.593 4.364z" fill="#eae4d0"/>
  </g>
  <g transform="matrix(.83445 0 0 -.83445 64.975 29.129)">
   <path d="m0 0c-2.963 0.226-5.301-2.343-5.819-6.448-0.584-4.621 0.61-8.366 4.595-8.563 3.34-0.166 5.878 2.989 6.151 7.01 0.264 3.901-1.455 7.736-4.927 8.001" fill="#fff362"/>
  </g>
  <g transform="matrix(.83445 0 0 -.83445 68.711 35.781)">
   <path d="m0 0c-0.265-3.905-2.72-6.799-5.682-6.655-3.744 0.185-4.691 3.991-4.169 8.122 0.442 3.498 2.325 6.34 5.339 6.109 3.537-0.271 4.731-4.348 4.512-7.576m-4.447 8.377c-3.011 0.228-5.737-2.191-6.318-6.784-0.588-4.663 1.029-8.801 5.043-9 3.422-0.157 6.311 2.785 6.619 7.346 0.303 4.462-1.858 8.172-5.344 8.438" fill="#ecdf87"/>
  </g>
  <g transform="matrix(.83445 0 0 -.83445 49.57 37.793)">
   <path d="m0 0c-2.662-0.125-4.036-1.224-3.953-1.687 0.131-0.724 2.425-2.771 3.47-2.817 1.107-0.049 4.647 1.926 4.739 3.209 0.057 0.811-1.886 1.406-4.256 1.295" fill="#fff362"/>
  </g>
  <g transform="matrix(.83445 0 0 -.83445 87.664 6.071)">
   <path d="m0 0c-0.638 0.547-1.495 0.405-2.756-0.288-7.204-3.964-17.193-8.795-19.839-19.575 5.191-3.086 7.658-7.946 8.977-11.989 12.233 3.998 16.588 18.966 13.706 31.531-0.027 0.119-0.058 0.218-0.088 0.321" fill="#d6e6ae"/>
  </g>
  <g transform="matrix(.83445 0 0 -.83445 85.604 6.1884)">
   <path d="m0 0c-0.095-0.048-0.187-0.093-0.287-0.147-7.204-3.964-17.193-8.796-19.839-19.575 0.75-0.363 1.697-0.804 2.204-1.576 13.505 8.806 16.444 11.837 17.922 21.298" fill="#b9c897"/>
  </g>
  <g transform="matrix(.83445 0 0 -.83445 35.005 4.2905)">
   <path d="m0 0c-0.163 0.834-0.599 1.28-0.955 1.313 0-0.031-4e-3 -0.054-3e-3 -0.086 0.12-3.44-1.61-10.913 0.03-18.817 0.939-4.52 3.553-9.681 7.07-11.827 0.874 1.818 1.907 3.385 3.055 4.712-5.298 7.999-8.705 22.183-9.197 24.705" fill="#d6e6ae"/>
  </g>
  <g transform="matrix(.83445 0 0 -.83445 35.093 4.656)">
   <path d="m0 0c-1.146-8.11 2.216-14.482 4.397-15.144-1.09 3.736-1.67 5.072-2.369 6.867-0.691 1.777-1.449 5.88-2.028 8.277" fill="#b9c897"/>
  </g>
  <g transform="matrix(.83445 0 0 -.83445 43.633 32.853)">
   <path d="m0 0c-1.628-0.023-2.76-1.993-2.761-4.346-1e-3 -2.146 1.177-4.338 2.846-4.278 1.893 0.068 2.42 2.337 2.387 4.346-0.043 2.49-1.003 4.299-2.472 4.278" fill="#d6e6ae"/>
  </g>
  <g transform="matrix(.83445 0 0 -.83445 43.344 36.668)">
   <path d="m0 0c0.378-0.3 1.428-1.32 1.789-1.717-0.221-0.285-1.195-1.4-1.492-1.671-0.356 0.305-1.33 1.241-1.763 1.706 0.362 0.443 1.144 1.329 1.466 1.682" fill="#fff362"/>
  </g>
  <g transform="matrix(.83445 0 0 -.83445 42.154 34.773)">
   <path d="m0 0c0.231 0.344 1.486 1.509 1.739 1.694 0.377-0.299 1.437-1.66 1.618-1.864-0.196-0.192-1.597-1.263-1.868-1.483-0.227 0.167-1.174 1.339-1.489 1.653m4.122-0.635c-0.306 1.771-1.161 2.952-2.35 2.936-1.241-0.018-2.191-1.169-2.575-2.756 0.873-0.721 2.056-1.689 2.229-1.816 0.42 0.246 1.761 1.049 2.696 1.636" fill="#30363a"/>
  </g>
  <g transform="matrix(.83445 0 0 -.83445 44.956 34.915)">
   <path d="m0 0c-0.182 0.204-1.241 1.565-1.618 1.865-0.253-0.186-1.508-1.35-1.739-1.695 0.315-0.314 1.261-1.486 1.489-1.653 0.27 0.22 1.672 1.291 1.868 1.483" fill="#fff"/>
  </g>
  <g transform="matrix(.83445 0 0 -.83445 63.788 34.013)">
   <path d="m0 0c1.852-0.182 2.821-2.253 2.673-4.719-0.145-2.399-1.914-4.426-3.893-4.101-1.921 0.317-2.702 2.617-2.386 4.804 0.366 2.545 2.144 4.16 3.606 4.016" fill="#d6e6ae"/>
  </g>
  <g transform="matrix(.83445 0 0 -.83445 63.267 37.91)">
   <path d="m0 0c-0.441-0.27-1.762-1.345-2.08-1.624 0.232-0.418 1.233-1.846 1.486-2.109 0.397 0.159 1.671 1.228 2.159 1.634-0.298 0.412-1.281 1.758-1.565 2.099" fill="#fff362"/>
  </g>
  <g transform="matrix(.83445 0 0 -.83445 63.738 34.554)">
   <path d="m0 0c0.227-0.216 1.479-1.828 1.663-2.199-0.351-0.271-1.911-1.22-2.158-1.356-0.241 0.252-1.464 1.845-1.635 2.06 0.308 0.267 1.717 1.245 2.13 1.495m2.701-2.743c-0.212 1.845-1.134 3.244-2.64 3.392-1.106 0.109-2.392-0.791-3.113-2.336 0.923-0.912 2.369-2.228 2.488-2.334 0.357 0.132 2.283 0.896 3.265 1.278" fill="#30363a"/>
  </g>
  <g transform="matrix(.83445 0 0 -.83445 65.125 36.389)">
   <path d="m0 0c-0.185 0.371-1.437 1.983-1.663 2.199-0.413-0.25-1.822-1.228-2.13-1.495 0.171-0.216 1.394-1.808 1.635-2.06 0.247 0.136 1.806 1.085 2.158 1.356" fill="#fff"/>
  </g>
  <g transform="matrix(.83445 0 0 -.83445 82.927 10.395)">
   <path d="m0 0c-0.153 0.946-0.508 1.194-1.443 1.201-0.811 6e-3 -1.797-0.254-2.807-0.478-5.483-3.448-10.844-7.972-12.668-15.404 2.607-1.55 4.523-3.548 5.956-5.666 8.786 1.47 12.283 12.218 10.962 20.347" fill="#fff362"/>
  </g>
  <g transform="matrix(.83445 0 0 -.83445 41.619 26.275)">
   <path d="M 0,0 C 0.405,0.583 0.829,1.13 1.271,1.641 -3.455,8.778 -4.607,13.682 -5.274,16.176 -5.973,8.425 -4.461,4.132 0,0" fill="#fff362"/>
  </g>
  <g transform="matrix(.83445 0 0 -.83445 73.947 72.157)">
   <path d="m0 0c-0.581-0.473-1.185-0.929-1.812-1.365-2.374-0.442-5.496-1.858-7.54-3.876-3.766-1.348-7.863-2.033-12.015-1.786-1.014 0.061-2.034 0.165-3.055 0.305-2.558 2.387-7.36 4.699-14.463 4.62-5.398 2.823-9.915 6.68-12.438 11.144-5.406 9.565-4.799 28.158 4.492 37.547-15.01 1.514-29.818-3.653-33.457-19.956-2.255-10.1 0.259-17.504 4.771-21.367-0.236-0.945-0.442-2.568-0.054-3.63 2.483-6.801 13.16-10.162 17.701-5.907 2.038 1.909 1.533 4.574-0.212 6.204 3.5-1.152 7.899-3.487 11.195-5.72 1.354-0.917 2.57-1.437 3.605-1.685-0.184-0.743-0.168-1.525 0.03-2.242 0.966-3.487 5.816-7.424 10.283-7.998 4.312-0.554 10.433 1.241 10.744 5.091 0.038 0.455-0.102 1.017-0.413 1.629 3.432-0.441 8.643 0.563 12.15 2.392-0.697-1.046-1.079-2.204-0.964-3.438 0.223-2.385 3.539-4.184 7.249-3.854 4.85 0.432 9.163 3.821 9.163 7.842 0 2.658-2.211 5.201-4.96 6.05" fill="#dbdcdc"/>
  </g>
  <g transform="matrix(.83445 0 0 -.83445 31.121 64.611)">
   <path d="m0 0c-5.406 9.565-4.799 28.158 4.492 37.547-15.01 1.513-29.818-3.653-33.457-19.956-1.008-4.515-1.057-8.487-0.408-11.849 1.852-3.292 4.984-5.864 7.881-7.131 5.29-2.314 11.109-1.521 17.061-4.166 3.585-1.593 9.9-6.374 17.278-5.797-5.578 2.84-10.261 6.775-12.847 11.352" fill="#d4c8a0"/>
  </g>
  <g transform="matrix(.83445 0 0 -.83445 17.806 35.803)">
   <path d="m0 0c-4.586-2.256-8.391-5.759-10.847-10.733 4.239 1.949 9.034 6.409 10.847 10.733" fill="#d6e6ae"/>
  </g>
  <g transform="matrix(.83445 0 0 -.83445 13.678 29.21)">
   <path d="m0 0c-0.257 1.835-1.501 2.544-3.157 1.805-0.895-0.4-2.008-1.04-3.117-1.749-0.387 3.012-2.005 8.098-3.456 9.939-0.667 0.846-1.281 0.841-1.956-0.051-3.111-4.113-3.484-15.533-1.504-19.889 0.589-1.298 1.085-1.852 2.567-1.505 1.129 0.264 3.257 0.92 4.677 1.553 0.582-1.798 1.487-3.955 2.295-5.063 0.863 1.156 1.816 2.206 2.849 3.153 0.801 4.132 1.162 9.232 0.802 11.807" fill="#fff362"/>
  </g>
  <g transform="matrix(.83445 0 0 -.83445 80.894 59.038)">
   <path d="m0 0c-0.269 4.736-2.345 10.635-4.504 13.441-1.035-2.244-2.724-4.333-5.275-6.028 0.569 0.092 1.138 0.176 1.708 0.239-0.57-0.063-1.139-0.147-1.708-0.239-0.475-0.315-0.978-0.617-1.513-0.903 0.535 0.286 1.038 0.588 1.513 0.903-6.245-1.016-12.548-3.758-19.327-7.418-0.9-0.087-3.378 5e-3 -5.191 0.235 0.132-0.109 0.259-0.217 0.373-0.318-0.114 0.101-0.241 0.209-0.373 0.318-0.665 0.085-1.242 0.188-1.616 0.309 0.374-0.121 0.951-0.224 1.616-0.309-3.057 2.546-10.852 7.4-15.261 8.495-3.175 2.606-5.468 8.022-5.204 10.803 0.175 1.837 1.006 4.373 3.193 6.735 0.376 3.291 1.12 6.149 2.131 8.608-14.618-6.566-16.567-30.303-10.21-41.55 2.523-4.465 7.04-8.321 12.438-11.144 7.103 0.078 11.904-2.234 14.463-4.62 1.02-0.14 2.041-0.245 3.055-0.306 4.152-0.247 8.249 0.438 12.015 1.786 2.044 2.019 5.166 3.434 7.54 3.877 0.627 0.436 1.231 0.892 1.812 1.364-0.318 0.098-0.64 0.18-0.969 0.229 0.329-0.049 0.651-0.131 0.969-0.229 5.303 4.312 8.646 10.062 8.325 15.722" fill="#fff362"/>
  </g>
  <g transform="matrix(.83445 0 0 -.83445 66.144 76.53)">
   <path d="m0 0c2.044 2.019 5.166 3.434 7.54 3.876 0.627 0.436 1.231 0.893 1.812 1.365 4.191 3.408 7.15 7.716 8.051 12.166-12.217-15.342-50.601-16.794-62.454 6.754 0.507-3.739 1.55-7.171 3.079-9.877 2.524-4.465 7.04-8.322 12.439-11.144 7.102 0.078 11.904-2.234 14.463-4.62 1.02-0.141 2.041-0.245 3.054-0.306 4.153-0.247 8.249 0.438 12.016 1.786" fill="#ded255"/>
  </g>
  <g transform="matrix(.83445 0 0 -.83445 47.661 55.644)">
   <path d="m0 0c2.26-1.389 4.287-2.803 5.529-3.836 1.813-0.231 4.291-0.323 5.191-0.236 2.215 1.196 4.378 2.291 6.506 3.263-6.933-1.242-12.607-0.614-17.226 0.809" fill="#dbdcdc"/>
  </g>
  <g transform="matrix(.83445 0 0 -.83445 83.175 13.531)">
   <path d="m0 0c-0.08 4e-3 0.088 4.034-0.749 4.74-0.62 0.521-2.789-0.034-3.799-0.259-5.483-3.447-10.756-7.651-12.58-15.084 2.022-1.202 13.557 3.924 17.128 10.603" fill="#ded255"/>
  </g>
  <g transform="matrix(.83445 0 0 -.83445 38.763 17.293)">
   <path d="m0 0c-0.206 0.708-0.381 1.344-0.533 1.924-0.616 2.008-1.048 2.478-1.319 3.488-0.1-1.124-0.151-1.869-0.118-3.621 0.666-0.981 1.364-1.607 1.97-1.791" fill="#ded255"/>
  </g>
  <g transform="matrix(.83445 0 0 -.83445 8.1752 34.939)">
   <path d="m0 0c-0.859-0.859-4.091-2.002-4.811-1.745-1.362 0.486-2.878 12.285 0.232 18.838-0.051-0.057-0.461-0.216-0.512-0.283-3.111-4.113-3.484-15.534-1.505-19.889 0.59-1.298 1.085-1.852 2.568-1.505 1.129 0.264 3.257 0.92 4.676 1.553 0.582-1.799 1.488-3.955 2.295-5.063 0.482 0.646 0.995 1.255 1.532 1.835-1.421 1.25-3.421 4.023-4.475 6.259" fill="#ded255"/>
  </g>
  <g transform="matrix(.83445 0 0 -.83445 55.402 81.019)">
   <path d="m0 0c0.037 0.455-0.103 1.016-0.413 1.628 0.3-0.038 0.618-0.062 0.942-0.078-7.799 8.198-19.571 5.937-21.164 0.39 1.985-4.364 7.231-6.69 9.891-7.031 4.311-0.555 10.432 1.241 10.744 5.091" fill="#fff"/>
  </g>
  <g transform="matrix(.83445 0 0 -.83445 78.053 76.282)">
   <path d="m0 0c-2.255 3.36-12.639 2.16-16.239-3.487-0.132-0.518-0.185-1.055-0.133-1.607 0.223-2.385 3.539-4.184 7.249-3.854 5.777 0.513 9.949 5.212 9.123 8.948" fill="#fff"/>
  </g>
  <g transform="matrix(.83445 0 0 -.83445 31.121 64.611)">
   <path d="m0 0c-1.038 1.836-1.852 4.008-2.428 6.381-10.188-2.766-25.632 0.707-26.418 11.688-0.038-0.161-0.083-0.316-0.119-0.478-1.008-4.515-1.057-8.487-0.408-11.849 1.852-3.292 4.984-5.864 7.881-7.131 5.29-2.314 11.109-1.521 17.061-4.166 3.585-1.593 9.9-6.374 17.278-5.797-5.578 2.84-10.261 6.775-12.847 11.352" fill="#b7ad8b"/>
  </g>
  <g transform="matrix(.83445 0 0 -.83445 41.545 73.616)">
   <path d="m0 0c-6.714-0.565-13.363 4.217-16.814 5.75-5.4 2.399-11.776 1.783-16.991 4.065-2.904 1.271-6.144 3.808-7.917 7.303l0.243-1.874c1.896-2.822 4.855-5.119 7.366-6.217 4.631-2.026 11.806-1.593 17.02-3.989 4.517-2.075 10.328-6.349 17.246-5.721z" fill="#cac5b5"/>
  </g>
  <g transform="matrix(.83445 0 0 -.83445 52.434 59.302)">
   <path d="m0 0c-2.76 2.286-11.259 7.375-15.276 8.592-0.259 0.078-0.422 0.163-0.643 0.355-2.862 2.503-5.611 7.718-5.294 11.043 0.134 1.406 0.84 4.052 3.32 6.787 1.146 9.703 5.067 15.303 9.957 18.338 5.786 3.591 16.224 4.239 22.896 1.406 2.235-0.95 2.036-1.467-0.26-0.681-6.596 2.258-16.351 2.009-22.191-1.694-4.639-2.94-8.462-8.326-9.525-17.617-0.01-0.095-0.051-0.184-0.117-0.255-2.385-2.576-2.798-5.104-2.922-6.415-0.271-2.852 1.917-7.893 4.578-10.281 0.123-0.111 0.304-0.2 0.455-0.239 4.987-1.31 12.236-5.79 15.375-8.927 1.542-1.54 1.223-1.717-0.353-0.412" fill="#0f141b"/>
  </g>
  <g transform="matrix(.83445 0 0 -.83445 35.331 2.9081)">
   <path d="m0 0c4.692-4.223 11.584-14.822 11.959-23.2l1.151 0.706c-0.632 8.961-7.451 18.269-12.663 22.999-1.221 1.108-2.208 0.63-2.153-0.936 0.125-3.617-1.765-11.111-0.154-18.867 0.924-4.454 3.557-9.893 7.265-12.204l0.437 1.034c-3.425 2.196-5.778 7.305-6.627 11.4-1.74 8.383-6e-3 13.299-0.193 18.637-0.036 1.051 0.205 1.127 0.978 0.431" fill="#0f141b"/>
  </g>
  <g transform="matrix(.83445 0 0 -.83445 35.288 4.6694)">
   <path d="m0 0c-0.168 0.825-0.539 0.741-0.407-0.091 0.719-4.548 2.819-14.944 8.875-24.252l0.51 0.601c-5.5 8.923-8.451 21.15-8.978 23.742" fill="#0f141b"/>
  </g>
  <g transform="matrix(.83445 0 0 -.83445 37.446 12.826)">
   <path d="m0 0-0.434 1.418c-0.864-8.382 0.815-13.595 4.988-17.693l0.499 0.681c-3.821 3.629-5.454 8.585-5.053 15.594" fill="#0f141b"/>
  </g>
  <g transform="matrix(.83445 0 0 -.83445 88.103 6.2552)">
   <path d="m0 0c-0.394 1.715-1.189 1.953-2.818 1.836-10.702-0.764-23.014-5.927-26.76-18.491l1.119-0.352c2.48 8.115 10.307 16.845 25.705 17.945 1.471 0.104 1.633-0.075 1.877-1.139 2.819-12.29-1.394-26.856-13.267-30.828l0.325-1.046c12.502 4.119 16.73 19.386 13.819 32.075" fill="#0f141b"/>
  </g>
  <g transform="matrix(.83445 0 0 -.83445 84.719 6.4108)">
   <path d="m0 0c-7.052-3.501-16.991-8.928-19.54-19.312-0.047-0.191 0.037-0.392 0.207-0.493 7.395-4.398 9.177-12.618 10.023-16.541 0.139-0.641 0.258-1.195 0.375-1.601 0.853-2.988 2.157-12.437-6.199-17.625l2.046 0.243c7.914 6.036 6.049 14.27 5.076 17.675-0.108 0.378-0.224 0.918-0.359 1.544-0.863 3.996-2.644 12.212-10.134 16.846 2.723 10.375 12.648 15.27 18.764 18.823 1.152 0.671 0.936 1.035-0.259 0.441" fill="#0f141b"/>
  </g>
  <g transform="matrix(.83445 0 0 -.83445 83.26 10.328)">
   <path d="m0 0c-0.203 1.245-0.702 1.391-1.754 1.399-0.673-3e-3 -1.589-0.078-2.426-0.28l-1.904-1.241c1.172 0.398 3.012 0.739 4.272 0.739 0.763-6e-3 0.887-0.082 0.999-0.769 1.5-9.23-3.192-18.514-10.666-19.766l0.623-0.941c9.288 2.107 12.129 13.017 10.856 20.859" fill="#0f141b"/>
  </g>
  <g transform="matrix(.83445 0 0 -.83445 55.493 39.908)">
   <path d="m0 0c-3.438 2.687-8.492 2.967-11.3 0.87-0.821-0.613-1.054-0.398-0.324 0.323 2.513 2.482 8.698 2.486 11.965-0.78 0.67-0.67 0.302-0.915-0.341-0.413" fill="#0f141b"/>
  </g>
  <g transform="matrix(.83445 0 0 -.83445 49.192 41.253)">
   <path d="m0 0c-0.777 0.034-3.046 1.96-3.024 2.501 0.016 0.426 1.304 1.174 3.584 1.281 1.883 0.089 3.735-0.494 3.723-0.9-0.022-0.764-3.012-2.953-4.283-2.882m0.479 4.493c-2.261-0.107-4.408-1.167-4.233-2.136 0.158-0.877 2.471-3.024 3.754-3.052 1.334-0.03 4.912 1.948 5.026 3.547 0.092 1.291-2.631 1.731-4.547 1.641" fill="#0f141b"/>
  </g>
  <g transform="matrix(.83445 0 0 -.83445 43.56 39.684)">
   <path d="m0 0c-1.054-0.027-2.25 1.692-2.249 3.932 1e-3 2.166 1.003 3.867 2.302 3.885 1.151 0.016 2.051-1.548 2.089-3.823 0.041-2.386-0.917-3.95-2.142-3.994m0.067 8.538c-1.515-2e-3 -3.115-1.793-3.117-4.686-1e-3 -2.422 1.319-4.581 3.083-4.581 1.649 0 2.956 1.826 2.909 4.643-0.053 3.177-1.39 4.625-2.875 4.624" fill="#0f141b"/>
  </g>
  <g transform="matrix(.83445 0 0 -.83445 65.669 37.928)">
   <path d="m0 0c-0.127-2.098-1.616-4.022-3.4-3.728-1.618 0.266-2.316 2.252-2.015 4.34 0.341 2.374 1.852 3.832 3.121 3.709 1.608-0.156 2.436-1.968 2.294-4.321m-2.225 5.009c-1.646 0.163-3.655-1.533-4.002-4.201-0.303-2.343 0.608-4.911 2.688-5.253 2.225-0.37 4.173 1.872 4.323 4.377 0.169 2.803-1.17 4.896-3.009 5.077" fill="#0f141b"/>
  </g>
  <g transform="matrix(.83445 0 0 -.83445 73.595 52.455)">
   <path d="m0 0c-6-0.63-12.185-2.791-20.196-7.347-0.241-0.137-0.321-0.157-0.569-0.165-1.299-0.042-4.046 0.107-5.558 0.403l1.287-1.014c1.063-0.107 3.58-0.169 4.432-0.169 0.341-1e-3 0.448 0.058 0.651 0.164 8.16 4.278 14.284 6.522 20.015 7.479 2.606 0.435 2.554 0.924-0.062 0.649" fill="#0f141b"/>
  </g>
  <g transform="matrix(.83445 0 0 -.83445 31.528 64.329)">
   <path d="m0 0c-5.86 10.369-4.787 33.528 9.242 40.519l0.472 1.164c-14.842-6.456-17.378-30.463-10.677-42.32 2.375-4.202 7.208-8.065 12.374-10.911l1.539 0.124c-5.623 2.88-10.434 6.972-12.95 11.424" fill="#0f141b"/>
  </g>
  <g transform="matrix(.83445 0 0 -.83445 53.233 77.206)">
   <path d="m0 0 1.036-1.075c5.168-0.613 9.784-0.134 13.812 1.07l1.487 1.741c-4.871-1.903-10.481-2.698-16.335-1.736" fill="#0f141b"/>
  </g>
  <g transform="matrix(.83445 0 0 -.83445 6.494 49.821)">
   <path d="m0 0c-3.509-15.719 4.441-24.784 13.373-24.858 1.676-0.014 1.636 0.549-0.038 0.646-10.805 0.625-14.931 11.981-12.251 23.984 3.578 16.033 18.045 20.961 32.339 19.656l0.812 0.837c-14.245 1.465-30.397-3.073-34.235-20.265" fill="#0f141b"/>
  </g>
  <g transform="matrix(.83445 0 0 -.83445 35.063 74.945)">
   <path d="m0 0c-5.151 3.49-11.985 6.546-15.746 6.233-1.279-0.106-1.23-0.542 0.051-0.536 3.857 0.019 10.164-3.207 15.136-6.576 1.237-0.838 2.466-1.414 3.594-1.711l0.315 0.988c-0.875 0.223-1.996 0.685-3.35 1.602" fill="#0f141b"/>
  </g>
  <g transform="matrix(.83445 0 0 -.83445 26.347 70.923)">
   <path d="m0 0-1.971 0.571c1.844-1.283 2.96-4.002 0.837-5.992-4.263-3.995-14.463-0.852-16.855 5.7-0.313 0.857-0.274 2.161-0.09 3.049l-0.825 0.703c-0.276-1.026-0.559-2.802-0.123-3.994 2.59-7.097 13.722-10.6 18.508-6.115 1.83 1.714 1.921 4.211 0.519 6.078" fill="#0f141b"/>
  </g>
  <g transform="matrix(.83445 0 0 -.83445 23.367 71.92)">
   <path d="m0 0c-0.87 0.555-1.215 0.049-0.349-0.51 0.553-0.355 2.939-2.151 2.289-4.498l1.038 0.769c0.03 1.775-1.406 3.228-2.978 4.239" fill="#0f141b"/>
  </g>
  <g transform="matrix(.83445 0 0 -.83445 19.718 72.869)">
   <path d="m0 0c-0.813 0.442-0.992 0.024-0.245-0.523 1.182-0.866 1.86-2.693 1.789-4.573l0.969 0.032c0.068 2.102-1.015 4.244-2.513 5.064" fill="#0f141b"/>
  </g>
  <g transform="matrix(.83445 0 0 -.83445 41.56 73.691)">
   <path d="m0 0c-2.372-0.128-2.236-0.602 0.135-0.592 9.839 0.039 16.125-5.277 15.84-8.124-0.321-3.199-5.467-5.262-10.089-4.669-4.502 0.577-8.976 4.38-9.885 7.663-0.349 1.259-0.177 2.702 0.631 3.609 0.475 0.534 0.012 0.865-0.463 0.331-1.01-1.132-1.437-2.654-1.008-4.204 1.112-4.016 5.892-7.779 10.567-8.379 4.919-0.63 11.091 1.363 11.414 5.563 0.255 3.322-6.225 9.392-17.142 8.802" fill="#0f141b"/>
  </g>
  <g transform="matrix(.83445 0 0 -.83445 51.303 79.187)">
   <path d="m0 0c-0.7 0.603-1.107 0.156-0.409-0.448 1.234-1.064 2.088-3.564 1.755-5.639l0.891 0.483c0.191 2.312-0.908 4.458-2.237 5.604" fill="#0f141b"/>
  </g>
  <g transform="matrix(.83445 0 0 -.83445 47.13 80.437)">
   <path d="m0 0c-0.618 0.542-0.96 0.22-0.428-0.409 0.857-1.011 1.985-3.23 1.751-5.312l0.973 0.059c0.227 2.221-1.066 4.582-2.296 5.662" fill="#0f141b"/>
  </g>
  <g transform="matrix(.83445 0 0 -.83445 55.058 79.285)">
   <path d="m0 0 0.47-1.038c3.626-0.333 7.785 0.64 11.215 2.247l0.913 1.492c-3.346-1.98-8.953-3.203-12.598-2.701" fill="#0f141b"/>
  </g>
  <g transform="matrix(.83445 0 0 -.83445 74.476 71.946)">
   <path d="m0 0-0.817-0.666c2.617-0.782 4.693-3.193 4.693-5.636 0-3.648-3.989-6.913-8.815-7.343-3.403-0.299-6.442 1.267-6.642 3.406-0.124 1.32 0.313 2.624 1.411 3.894 1.778 2.058 4.787 3.577 7.219 4.161l1.511 1.148c-0.257-0.017-0.636 0.339-0.872 0.175-0.336-0.234-0.926-0.443-1.8-0.721-2.391-0.76-5.073-2.245-6.739-4.174-1.264-1.463-1.89-2.987-1.743-4.56 0.239-2.55 3.444-4.71 7.778-4.326 5.277 0.469 9.591 4.238 9.591 8.34 0 2.64-2.068 5.244-4.775 6.302" fill="#0f141b"/>
  </g>
  <g transform="matrix(.83445 0 0 -.83445 71.496 80.012)">
   <path d="m0 0c0.54 0.679 0.337 0.93-0.317 0.361-1.06-0.924-1.587-3.02-1.489-4.7l0.892 0.099c-0.08 1.492 0.265 3.425 0.914 4.24" fill="#0f141b"/>
  </g>
  <g transform="matrix(.83445 0 0 -.83445 67.542 79.133)">
   <path d="m0 0c0.603 0.723 0.288 0.977-0.396 0.332-0.989-0.931-1.709-2.634-1.672-4.375l0.947-0.569c-0.221 1.602 0.255 3.573 1.121 4.612" fill="#0f141b"/>
  </g>
  <g transform="matrix(.83445 0 0 -.83445 17.344 36.175)">
   <path d="m0 0c-1.9-3.978-6.229-7.876-9.999-9.743l-0.528-1.04c4.437 1.879 9.624 6.494 11.471 11.311z" fill="#0f141b"/>
  </g>
  <g transform="matrix(.83445 0 0 -.83445 14.073 29.12)">
   <path d="m0 0c-0.324 2.314-1.976 2.929-3.756 2.134-1.936-0.865-4.491-2.61-6.348-4.221-0.698-0.606-0.452-1.011 0.279-0.446 2.025 1.568 4.509 2.957 6.377 3.792 1.391 0.622 2.344-7e-3 2.543-1.426 0.369-2.64 2e-3 -7.885-0.849-12.01l0.975 0.877c0.706 4.008 1.128 8.804 0.779 11.3" fill="#0f141b"/>
  </g>
  <g transform="matrix(.83445 0 0 -.83445 4.7437 38.373)">
   <path d="m0 0c-1.166-0.275-1.504 0.039-2.056 1.253-1.963 4.318-1.596 15.516 1.382 19.455 0.532 0.704 0.846 0.652 1.34 0.025 1.405-1.783 3.008-6.892 3.359-9.816l0.781 0.526c-0.471 3.132-2.091 7.97-3.531 9.797-0.837 1.062-1.772 0.953-2.566-0.097-3.193-4.223-3.696-15.692-1.6-20.307 0.713-1.567 1.53-2.138 3.061-1.781 0.986 0.231 3.109 0.926 4.622 1.581l-0.246 0.767c-1.375-0.583-3.356-1.124-4.546-1.403" fill="#0f141b"/>
  </g>
  <g transform="matrix(.83445 0 0 -.83445 8.4514 35.542)">
   <path d="m0 0c-0.27 1.176-0.695 1.054-0.515-0.139 0.255-1.682 1.429-5.696 2.703-7.495l0.627 0.849c-1.072 1.654-2.441 5.154-2.815 6.785" fill="#0f141b"/>
  </g>
  <g transform="matrix(.83445 0 0 -.83445 81.421 58.978)">
   <path d="m0 0c-0.296 4.802-2.569 10.869-4.868 13.762l-0.414-0.941c2.056-2.871 3.825-8.545 4.073-12.915 0.357-6.293-4.079-13.029-11.046-17.4 0 0 0.236-0.42 0.982-0.231 1.096 0.279 2.018 0.85 2.78 1.485 5.832 4.863 8.809 11.106 8.493 16.24" fill="#0f141b"/>
  </g>
  <g transform="matrix(.83445 0 0 -.83445 42.907 46.54)">
   <path d="m0 0c-0.826 0.49-1.527 1.246-2.107 1.937-0.722 0.86-1.439 0.776-1.571-0.776-0.089-1.036 0.489-2.594 1.504-4.148 0.234 1.478 0.987 2.523 2.174 2.987" fill="#0f141b"/>
  </g>
  <g transform="matrix(.83445 0 0 -.83445 63.935 46.321)">
   <path d="m0 0c-0.67-0.521-1.377-0.953-2.106-1.308 1.936-0.776 3.284-2.517 3.343-4.782 0.89 0.989 1.498 2.133 1.705 3.422 0.371 2.301-1.446 3.833-2.942 2.668" fill="#0f141b"/>
  </g>
  <g transform="matrix(.83445 0 0 -.83445 62.177 47.412)">
   <path d="m0 0c-1.519-0.741-3.142-1.124-4.783-1.104-3.032 0.036-6.639 1.663-10.473 3.984-2.033-1.204-4.606-2.529-6.405-2.339-0.515 0.054-0.99 0.243-1.432 0.504-1.186-0.464-1.94-1.509-2.174-2.987 0.878-1.345 2.082-2.688 3.481-3.691 0.47 0.926 1.361 2.351 1.815 2.336 0.409-0.014 0.963-1.448 1.308-2.821 0.773 0.974 1.732 1.764 2.877 2.163 3.702 1.287 11.984 8e-3 13.297-4.253 2.355 0.714 4.441 1.878 5.833 3.426-0.06 2.265-1.407 4.006-3.344 4.782" fill="#923000"/>
  </g>
  <g transform="matrix(.83445 0 0 -.83445 57.255 52.116)">
   <path d="m0 0c-0.394 0.026-1.088-1.426-1.496-2.647 0.168 0.065 0.342 0.108 0.527 0.106-0.185 2e-3 -0.359-0.041-0.527-0.106-0.087-0.263-0.163-0.515-0.218-0.739 1.159 0.029 2.325 0.162 3.457 0.394-0.335 1.094-1.275 2.961-1.743 2.992" fill="#fff"/>
  </g>
  <g transform="matrix(.83445 0 0 -.83445 45.513 50.164)">
   <path d="m0 0c-0.454 0.015-1.346-1.409-1.815-2.335 0.793-0.569 1.644-1.031 2.533-1.318 0.182 0.29 0.379 0.568 0.59 0.833-0.345 1.372-0.899 2.806-1.308 2.82" fill="#fff"/>
  </g>
  <g transform="matrix(.83445 0 0 -.83445 48.887 50.952)">
   <path d="m0 0c-1.439-0.555-2.561-1.729-3.364-3.11 0.301-0.086 0.605-0.156 0.912-0.201-0.307 0.045-0.611 0.115-0.912 0.201-1.494-2.569-1.871-5.867-1.021-7.315 1.727-2.941 5.601-3.016 7.677-2.063 2.106 0.967 3.07 3.852 3.64 5.937 0.195 0.715 0.442 1.296 0.738 1.735-0.297-7e-3 -0.593-0.01-0.888-2e-3 0.295-8e-3 0.591-5e-3 0.888 2e-3 0.25 0.371 0.537 0.633 0.863 0.773 0.366 1.233 1.011 2.709 1.405 2.695 0.469-0.015 1.472-1.85 1.843-2.931 0.562 0.135 1.114 0.295 1.651 0.477-1.454 4.214-9.776 5.213-13.432 3.802" fill="#ed8599"/>
  </g>
  <g transform="matrix(.83445 0 0 -.83445 57.255 52.116)">
   <path d="m0 0c-0.041 3e-3 -0.085-0.014-0.132-0.041 0.314-0.653 0.591-2.194 0.65-3.156 0.411 0.057 0.821 0.123 1.225 0.205-0.335 1.094-1.275 2.961-1.743 2.992" fill="#dbdcdc"/>
  </g>
  <g transform="matrix(.83445 0 0 -.83445 57.204 52.054)">
   <path d="m0 0c0.469-0.015 1.472-1.85 1.843-2.931 0.561 0.135 1.113 0.294 1.65 0.477-1.454 4.213-9.775 5.212-13.431 3.802-0.909-0.351-1.689-0.948-2.343-1.687 2.632 1.497 8.229 1.789 11.372-0.972 0.314 0.739 0.661 1.319 0.909 1.311" fill="#ce7486"/>
  </g>
  <g transform="matrix(.83445 0 0 -.83445 45.513 50.164)">
   <path d="m0 0c-0.062 2e-3 -0.132-0.024-0.207-0.07 0.381-0.393 0.631-2.456 0.61-3.29l0.445-0.11c0.146 0.222 0.295 0.443 0.46 0.65-0.345 1.372-0.899 2.806-1.308 2.82" fill="#dbdcdc"/>
  </g>
  <g transform="matrix(.83445 0 0 -.83445 63.704 46.025)">
   <path d="m0 0c-4.615-3.31-8.894-3.182-16.591 1.417-0.416 0.249-0.638 0.216-1.007 1e-3 -4.771-2.788-6.59-2.836-9.107 0.165-1.047 1.246-2.28 0.553-2.344-1.002-0.112-2.757 3.347-7.97 7.653-9.485l0.407 0.715c-4.104 1.322-7.38 6.578-7.197 8.722 0.09 1.06 0.417 0.966 0.811 0.497 3.277-3.905 5.572-2.996 10.146-0.363 0.116 0.066 0.144 0.058 0.252-8e-3 8.509-5.169 12.81-4.629 17.53-1.369 1.218 0.842 2.474-0.449 2.184-2.255-0.744-4.63-6.967-7.326-12.683-7.341 0 0-0.27-0.777-0.175-0.793 6.116 0 12.964 2.867 13.787 7.99 0.472 2.941-1.873 4.395-3.666 3.109" fill="#0f141b"/>
  </g>
  <g transform="matrix(.83445 0 0 -.83445 48.778 50.666)">
   <path d="m0 0c-4.062-1.567-6.216-8.289-4.632-10.987 1.746-2.976 5.777-3.317 8.206-2.202 2.215 1.017 3.277 3.796 3.922 6.162 0.187 0.681 0.48 1.443 0.908 1.896l0.265 1.218c-0.905-0.273-1.592-1.233-2.041-2.877-0.595-2.176-1.518-4.786-3.394-5.648-1.98-0.907-5.549-0.758-7.101 1.884-1.263 2.153 0.378 8.458 4.134 9.906 4.031 1.557 11.441 0.123 12.871-3.523l0.794 0.299c-1.614 4.175-9.988 5.394-13.932 3.872" fill="#0f141b"/>
  </g>
  <g transform="matrix(.83445 0 0 -.83445 57.268 51.831)">
   <path d="m0 0c-0.787 0.043-1.936-2.563-2.191-3.57l1.004 0.09c0.27 1.247 0.933 2.669 1.182 2.693 0.276 0.027 0.945-1.464 1.241-2.476l0.89 0.159c-0.438 1.341-1.419 3.057-2.126 3.104" fill="#0f141b"/>
  </g>
  <g transform="matrix(.83445 0 0 -.83445 45.542 49.83)">
   <path d="m0 0c-0.416 0.03-1.293-0.898-2.082-2.267l0.68-0.512c0.395 0.881 1.126 1.99 1.336 1.99 0.258-1e-3 0.713-1.402 1.025-2.796l0.612 0.814c-0.364 1.323-1.085 2.736-1.571 2.771" fill="#0f141b"/>
  </g>
  <g transform="matrix(.83445 0 0 -.83445 48.04 56.905)">
   <path d="M 0,0 C 0.052,2.528 1.22,4.89 3.004,5.857 3.883,6.334 4.172,6.056 3.37,5.459 1.964,4.414 1.09,2.58 0.626,-0.011 0.388,-1.343 -0.028,-1.368 0,0" fill="#0f141b"/>
  </g>
  <g transform="matrix(.83445 0 0 -.83445 62.646 47.262)">
   <path d="m0 0-0.848-0.473c2.001-0.677 3.222-2.52 3.184-4.749l0.835 0.96c-0.275 1.888-1.46 3.416-3.171 4.262" fill="#0f141b"/>
  </g>
  <g transform="matrix(.83445 0 0 -.83445 43.114 46.779)">
   <path d="m0 0-0.724 0.458c-1.13-0.586-1.787-1.491-1.954-2.496l0.578-0.935c0.276 1.459 0.852 2.595 2.1 2.973" fill="#0f141b"/>
  </g>
 </g>
</svg>
