<?xml version="1.0" encoding="UTF-8"?>
<!-- Created with Inkscape (http://www.inkscape.org/) -->
<svg version="1.1" viewBox="0 0 75.977 79.81" xmlns="http://www.w3.org/2000/svg">
 <g transform="translate(-2.1849 -2.1022)">
  <path d="m45.75 59.444c-2.3021-3.7758-2.4303-6.2969-9.2244-10.44-1.688-1.0294-3.8588-1.0872-1.9336 1.4358 3.2038 4.1983 1.989 8.617 0.93851 10.606-5.8039-1.3346-29.228-2.7782-29.228 9.9402 0 6.1314 4.2357 10.362 20.187 10.362 6.5287 0 23.072-2.8475 23.017-20.248 0 0-2.3749 0.60802-3.7559-1.6567" fill="#fffded"/>
  <path d="m47.494 70.39c2.8764 0.11076 5.2175-0.02348 7.593-0.22636 0.93128-0.5719 2.2521-1.6392 2.1925-3.6722-0.05957-2.0317-1.1667-2.9992-1.8523-3.4049-1.9944 0.03673-3.7842-0.0488-5.914-0.41357 0 0-0.50449 5.9357-2.0191 7.717" fill="#fffded"/>
  <path d="m36.303 57.961c0.92708-6.7484-3.6987-8.0012-2.5459-9.4496 1.1275-1.4183 7.7375 2.759 9.9583 7.1999 1.5369 3.0738 2.8956 5.4198 4.9791 5.3157 1.3455-0.06743 2.0185-1.9511 3.9702-5.3157 5.2235-9.0071 15.073-14.337 15.073-29.002 0-13.283-12.161-24.19-27.79-24.291-11.008-0.071636-22.476 4.7889-26.512 14.131 0 0 7.3901-7.522 19.543-6.1422 4.4993 0.5105 11.193 6.619 10.776 13.768 0.38829 11.961-19.179 20.2-23.718 19.602 0 0 3.0889 3.7426 5.1068 4.981 2.5567 1.5706 5.6281 3.1045 6.7292 3.8582 1.0228 0.70133 2.6879 4.6637 4.4301 5.3452" fill="#a69651"/>
  <g fill="#3e3838">
   <path d="m50.784 4.3063c1.8445 0.86568-0.4491 2.8854-2.2244 1.3419-1.5477-1.3455-5.1134-2.8932-6.8634-3.2297 0 0 6.6057 0.7224 9.0878 1.8879"/>
   <path d="m31.872 42.792c2.9733-1.3996 5.4505-3.4988 6.6611-2.2202 1.6483 1.7392-1.4129 5.9207-5.3831 6.7286-3.9702 0.80727-7.1325-0.13426-7.0651-2.0185 0.06742-1.8843 3.4988-1.4129 5.787-2.4899"/>
   <path d="m50.646 23.547c0.51893-3.2899-1.3461-5.787 0-6.3926 1.4749-0.66401 5.3825 1.7494 5.2482 6.9982-0.13481 5.2488-4.8449 7.3342-6.5269 6.3252-1.6826-1.0096 0.67245-3.0955 1.2786-6.9308"/>
   <path d="m66.661 35.659c-1.3057 2.2148-4.5306 3.8058-6.1904 2.355-1.7024-1.4881 1.6296-4.0984 2.6915-6.0561 1.4978-2.7626 0.37023-4.934 1.6146-5.5173 0.79225-0.37143 2.4899 0.80728 3.0955 3.4988 0 0-0.42261 3.1382-1.2112 5.7196"/>
  </g>
  <g fill="#b7ac7a">
   <path d="m55.088 70.163c5.7485-0.49183 10.029-1.8554 12.823-3.8757 8.5105 0.91445 9.9878-6.0007 9.9878-6.0007-3.3092 2.098-5.6492 2.29-6.7749 2.2105 0.47499-1.0607 0.71879-2.2045 0.71879-3.4212 0-3.9919-2.8125-7.1921-6.5269-7.1921-3.2478 0-5.9345 3.1478-5.9345 7.1602 0 1.3238 0.31484 2.302 0.97342 3.3766-1.452 0.41899-3.131 0.63149-4.9268 0.66521 0.68629 0.40575 1.7934 1.3732 1.853 3.4049 0.05957 2.033-1.2612 3.1003-2.1925 3.6722"/>
   <path d="m48.386 68.439c-0.56287 0.74768-2.6855 0.9656-2.8878-0.58154-0.24381-1.8734 2.5621-3.2442 4.143-6.5419 0 0-0.32628 5.8894-1.2552 7.1235"/>
   <path d="m21.779 67.453c-0.40274-1.4918-0.80788-2.8258-3.9365-4.2056-3.1286-1.3792-8.0662 1.1583-8.7729 1.4273 0 0 3.5765-3.3152 10.096-4.0135 1.5176-0.16254 6.6148 2.7945 4.7672 7.6328 0 0-1.6338-0.20829-2.1534-0.84099"/>
  </g>
  <path d="m49.471 63.423c0.1186-1.1878 0.16979-2.107 0.16979-2.107-1.5357 3.2014-4.2248 4.5872-4.1556 6.38 1.5483-1.086 2.8746-2.7349 3.9858-4.273" fill="#968d63"/>
  <path d="m21.761 45.725c1.3726 0.14087 2.8661 0.20769 4.4385 0.19746 0.59598 1.4454 3.4615 2.0877 6.9513 1.378 1.8614-0.37805 3.5223-1.4984 4.5927-2.7602 6.2295-1.452 12.401-4.1117 16.803-8.2956 9.6657-9.1871 9.8108-18.389 6.5239-25.328 4.1761 4.2567 6.6671 9.7819 6.6671 15.793 0 14.665-9.8487 19.995-15.073 29.001-1.9511 3.3646-2.6241 5.2488-3.9702 5.3157-2.0835 0.10471-3.4422-2.2412-4.9791-5.3157-2.2208-4.441-8.8307-8.6176-9.9589-7.1999-1.1516 1.449 3.4735 2.7012 2.5465 9.4502-1.7416-0.68146-3.4073-4.6444-4.4301-5.3452-1.1005-0.75431-4.1725-2.2882-6.7292-3.8582-1.033-0.63451-2.346-1.9246-3.3826-3.0335" fill="#877c40"/>
  <path d="m49.496 61.606c0.0022-0.16917 0.01077-0.33351 0.01077-0.50508 0 0-2.3755 0.60742-3.7565-1.6573-2.302-3.7757-2.4303-6.2969-9.2244-10.44-1.688-1.0294-3.8588-1.0872-1.9336 1.4364 3.0287 3.9684 2.1082 8.133 1.1119 10.256 0.5159 2.8511 1.8818 7.4744 5.3536 8.1294 1.6386 0.30942 3.1129-0.20589 4.4283-1.1281-0.06927-1.7386 2.4562-3.0937 4.0105-6.0916" fill="#dcdbce"/>
  <path d="m19.165 60.662c-6.5191 0.69832-10.096 4.0135-10.096 4.0135 0.70675-0.2697 5.6444-2.8071 8.7735-1.4273 2.3936 1.0553 3.1924 2.0841 3.6168 3.178 0.44909-0.29016 1.4996-0.56528 2.8444-0.68026-0.33531-3.3014-3.91-5.2151-5.1387-5.0839" fill="#b7ac7a"/>
  <path d="m32.212 65.848c-1.8831 0.70072-2.6711 0.04395-5.6058-0.13125-0.82052-0.0488-1.6001-0.03124-2.302 0.02887 0.07224 0.71277-0.0096 1.4918-0.29618 2.3273 0.5436 0.07821 1.1697 0.13062 1.8975 0.14026 3.3724 0.04331 6.3065-2.3653 6.3065-2.3653" fill="#dcdbce"/>
  <path d="m21.22 66.724c0 0.18782 0.17037 0.42501 0.53939 0.65498-0.08849-0.32448-0.1794-0.64174-0.3004-0.95357-0.15411 0.09997-0.239 0.20167-0.239 0.2986" fill="#dcdbce"/>
  <path d="m24.304 65.746c-1.3449 0.11498-2.3954 0.3901-2.8451 0.68026 0.121 0.31184 0.2119 0.62909 0.2998 0.95297 0.44127 0.27632 1.1727 0.53939 2.2491 0.6947 0.28595-0.83618 0.36842-1.6146 0.29618-2.3279" fill="#968d63"/>
  <path d="m63.305 61.119s-1.0077-1.1384-0.48221-2.8902c0.52556-1.7518 1.446-1.5766 1.7518-1.4887 0.30641 0.08726 0.96378 0.9632 0.4816 2.2334-0.4816 1.2696-0.52494 1.3575-1.7512 2.1455" fill="#968d63"/>
  <path d="m6.475 72.983c0.9319 5.0339 5.8605 8.3654 20.014 8.3654 5.2994 0 17.197-1.877 21.46-11.889-4.8648 6.2452-10.122 9.1715-23.095 9.1317-10.278-0.030701-15.756-3.2905-18.379-5.6082" fill="#dcdbce"/>
  <path d="m36.723 11.896s6.4811 4.1165 6.9188 10.466c0 0 1.2263-8.3642-6.9188-10.466" fill="#877c40"/>
  <path d="m26.199 45.922c0.59598 1.4454 3.4615 2.0883 6.9513 1.3786 1.8614-0.37866 3.5217-1.4984 4.5927-2.7608-3.9726 0.92528-7.9663 1.3581-11.544 1.3822" fill="#2f2625"/>
  <path d="m55.088 70.163c0.67545-0.41478 1.5538-1.0926 1.9637-2.2087-3.9852 0.25224-7.0837-0.26849-8.3178-0.52736-0.30402 1.2076-0.70916 2.3394-1.2389 2.9624 2.8764 0.11076 5.2175-0.02348 7.593-0.22636" fill="#dcdbce"/>
  <path d="m69.627 64.432c-4.4337 2.3881-8.8843 3.2881-12.576 3.5223-0.40937 1.1161-1.2877 1.794-1.9631 2.2087 5.7479-0.49183 10.029-1.8554 12.822-3.8757 6.029 0.64776 8.5267-2.6319 9.4713-4.6005-4.099 3.3598-6.1362 3.0449-7.7544 2.7451" fill="#968d63"/>
  <path d="m66.661 35.659c-1.3057 2.2148-4.5306 3.8058-6.1904 2.355-1.7024-1.4881 1.6296-4.0984 2.6915-6.0561 1.4978-2.7626 0.37023-4.934 1.6146-5.5173 0.79225-0.37143 2.4899 0.80728 3.0955 3.4988 0 0-0.42261 3.1382-1.2112 5.7196" fill="#2f2625"/>
  <g fill="#0f141b">
   <path d="m27.256 67.876c4.2983-0.60441 8.9812-6.1603 8.9812-11.308 0-3.4705-1.6724-5.5492-2.4393-6.8315-0.76754-1.2823 0.0265-2.0378 1.8325-1.555 2.4784 0.6628 6.8676 4.1369 8.4611 7.3239 1.4972 2.9944 2.6085 5.3957 4.5764 5.2922 1.3653-0.06862 2.4634-2.9299 3.7764-5.1916 5.9098-10.191 15.013-14.308 15.013-28.83 0-11.698-10.378-23.898-27.441-24.01-12.332-0.086684-22.834 5.9941-26.158 13.633-0.25886 0.34976-0.91684 0.88614-0.78742 0.7808 2.0606-6.5251 11.294-15.158 26.998-15.078 16.568 0.10776 28.198 11.885 28.198 24.717 0 14.806-9.8842 19.824-15.311 29.178-1.2546 2.1642-2.5808 5.3379-4.1634 5.4174-2.054 0.09878-3.2616-1.5423-5.2874-5.5926-1.7103-3.4218-5.9971-6.5678-8.2853-7.1855-1.1853-0.32026-1.4322 0.22334-1.0463 0.79284 0.76273 1.1233 2.7096 3.4585 2.7096 7.1951 0 5.3397-4.7919 11.284-9.5598 11.687-1.3015 0.11018-1.3382-0.25765-0.06742-0.43645"/>
   <path d="m24.267 68.413c-0.97404 0.03372-1.7458-0.20168-2.3839-0.67183-1.0071-0.74167-0.77477-1.0216 0.26849-0.40274 0.4226 0.25104 1.1233 0.61706 2.0817 0.60441 1.027-0.01379 1.1432 0.43224 0.03372 0.47017"/>
   <path d="m49.46 62.954c-0.11673-0.01928-0.06377-0.5731 0.03856-0.55625 10.241 1.682 14.071-1.2931 15.217-3.4808 0.61344-1.1715 0.98245-0.94153 0.4196 0.27089-0.81392 1.7536-4.0575 5.6474-15.675 3.7661"/>
   <path d="m26.562 81.912c-18.06 0-20.838-5.9508-20.838-10.873 0-12.712 23.823-11.766 29.881-10.394 0.15592 0.03555 0.04998 0.6664-0.11017 0.63089-7.0007-1.5562-28.897-1.9126-28.897 9.6892 0 4.7088 2.2641 10.114 19.919 10.114 9.0854 0 23.263-5.1116 22.768-20.289-5.93e-4 -0.0265 0.44128-0.39611 0.44306-0.35277 0.76034 16.684-14.55 21.474-23.166 21.474"/>
   <path d="m47.818 70.086c15.127 0.45752 23.736-3.8998 23.736-11.008 0-3.8961-2.7283-6.8164-6.2524-6.8164-3.14 0-5.7286 2.9709-5.7286 6.7857 0 1.2437 0.27812 2.181 0.9909 3.3206 0.02521 0.04029-0.46476 0.16675-0.49546 0.11438-0.69048-1.1456-1.071-2.1847-1.071-3.4537 0-4.4735 3.113-7.3781 6.3969-7.3781 3.7818 0 6.8291 3.2647 6.8291 7.4172 0 9.2377-12.526 12.027-24.686 11.617 0.03436-0.0921 0.02165-0.44608 0.28114-0.59899"/>
   <path d="m67.55 66.547c-0.11791-0.01497 0.14386-0.27572 0.55144-0.47196 6.6978 0.62607 9.2991-4.1676 9.623-5.6197-3.1671 2.0992-5.8683 2.4887-6.8158 2.3839 0.0391-0.13847 0.08359-0.40575 0.16075-0.57792 1.0794 0.07465 3.2658-0.1192 6.519-2.181 0.58154-0.36842 0.64113-0.1806 0.52375 0.36963-0.6333 2.951-3.8052 6.9495-10.562 6.0971"/>
   <path d="m48.395 5.9275c-1.4647-1.2738-4.9912-2.8348-6.743-3.1719-0.12401-0.023484 0.57371-0.34073 0.85124-0.26067 1.9402 0.55866 4.7823 1.7554 6.1308 2.9275 1.1221 0.97464 2.9925 0.1517 2.7265-0.76093-0.0391-0.13365 0.46595-0.18602 0.48279 0.13184 0.0753 1.4725-2.1666 2.2485-3.4482 1.1342"/>
   <path d="m50.721 17.447c-1.0794 0.48581 0.53699 2.2762 0.13191 6.2078-0.39552 3.8402-2.6163 5.946-1.384 6.6852 1.6164 0.97042 6.0405-1.1432 6.1681-6.1223 0.12576-4.8973-3.4242-7.4407-4.9159-6.7707m-1.4875 13.285c-1.936-1.1613 0.58334-2.6946 1.1685-7.1487 0.45511-3.4693-1.4502-5.8406 0.13123-6.5528 1.6224-0.73083 5.828 1.7283 5.6889 7.1638-0.13839 5.3831-5.0935 7.6743-6.9886 6.5377"/>
   <path d="m60.282 38.23c-2.1166-1.8505 1.5929-4.4 2.6356-6.3252 1.4237-2.6247 0.21673-4.9015 1.7163-5.6046 0.93671-0.43946 2.514 0.92888 3.0901 2.7987 0.09146 0.29618-0.09932 1.0734-0.12764 0.95056-0.60561-2.697-2.1552-3.6246-2.7686-3.3357-1.0469 0.49063-0.0032 2.8156-1.4123 5.4132-0.99751 1.8385-4.3344 4.4464-2.833 5.7593 1.5544 1.3581 4.462-0.82715 5.8611-2.3346 0.08553-0.09272-0.13839 0.80307-0.39252 1.0397-1.7843 1.6603-4.158 3.0473-5.769 1.6386"/>
  </g>
  <path d="m5.0576 29.031s-2.1871-5.1808-0.60561-7.9061c1.5815-2.7253 6.6617-3.7685 8.142-4.0039 0 0-2.7108 3.5861-3.7896 6.029-1.0788 2.4429-2.4044 4.5752-3.7468 5.8809" fill="#b7ac7a"/>
  <path d="m43.755 24.174c-1.4635 11.413-12.766 15.154-13.665 16.659-1.1354 1.9011-2.8059 5.9243-5.0165 7.7098-1.2901 1.0415-4.1454 2.1383-5.7557 1.874 0.02649-0.34314 0.07885-0.79163 0.18482-1.1878 1.1877-0.15892 4.1682-1.1751 5.5444-3.5909 1.2937-2.2707 1.6898-6.7328 2.5085-8.5014-2.7728 1.7157-4.518 3.0672-6.9441 3.538-1.7693 0.34314-7.9476-2.3502-10.139-2.6145-2.7523-0.3311-3.7938 2.1371-2.3496 3.8817-2.8709 0-5.3795-2.7174-5.6251-5.4601-0.44307-4.9412 3.0407-7.0777 3.7769-8.9957 1.9053-4.9599 3.6018-6.8821 5.7154-9.3936 3.5235-4.1863 7.9897-6.6635 15.174-7.7514 9.5917-1.4526 16.368 5.4306 16.591 13.833" fill="#fffded"/>
  <path d="m34.205 21.08c0.97765 0.22635 1.6904 0.95537 2.0185 1.8391 0.58274 1.5706 0.67304 5.2934-4.3067 7.5364-4.0015 1.8024-7.1656 1.0463-8.7922-0.98668-1.0764-1.3461-0.53879-3.8131-0.53879-3.8131s5.9195 0.15954 11.619-4.5758" fill="#8cc457"/>
  <path d="m3.0053 37.846c0.22936 0.38889 1.918-0.33652 2.759-2.4562 0.84039-2.1196 0.13484-3.7011-0.5719-3.9702-0.70675-0.26909-1.5815 0.70675-2.0859 1.4129 0 0-1.2058 3.1418-0.10114 5.0135" fill="#3e3a39"/>
  <path d="m9.9024 31.117c0.56407-1.1992 2.7253-1.4803 4.5084-0.70675 1.7831 0.77417 2.7253 2.591 2.2539 3.7685-0.54481 1.3617-2.1353 1.9463-4.3404 1.1101-1.9511-0.73986-3.2297-2.4562-2.4218-4.1719" fill="#3e3a39"/>
  <path d="m34.205 21.08c0.97765 0.22635 1.6904 0.95537 2.0185 1.8391 0.58274 1.5706 0.67304 5.2934-4.3067 7.5364-4.0015 1.8024-7.1656 1.0463-8.7922-0.98668-1.0764-1.3461-0.53879-3.8131-0.53879-3.8131-1.9824-0.02167-2.4682-0.44006-2.4682-0.44006-0.71939 2.1979-0.15049 4.4993 1.1227 5.7334 2.1871 2.1196 3.8173 1.6465 5.5848 2.1534 1.7994 0.51531 3.6644 2.9167 5.5179 2.2539 2.4851-0.88915 1.458-2.6036 2.3827-3.842 1.021-1.3659 2.5946-0.8741 3.5656-2.7451 0.40273-0.77538 0.07282-2.5651 0.29859-3.5801 0.22515-1.015 1.2678-1.7452 1.1161-2.9089-0.16315-1.2504-2.299-2.995-3.8907-3.0449 0 0-0.39612 0.91022-1.6104 1.8445" fill="#b7ac7a"/>
  <path d="m32.037 26.34c-0.26849-0.62367 0.10535-1.2865 0.85063-1.5983 1.0962-0.45872 1.7705-0.06742 1.9126 0.35759 0.16917 0.50748-0.08909 1.2534-0.94995 1.6001-0.93792 0.37746-1.6001 0.13425-1.8132-0.35939" fill="#c1da80"/>
  <path d="m36.513 13.911c2.1846 1.6067 1.5219 5.5366-6.2325 9.6573-4.0111 2.1317-8.6363 3.2484-10.969 1.1456-2.7698-2.4971 0.49966-6.7611 5.4589-9.5598 4.2056-2.3737 9.3635-2.9937 11.743-1.2431" fill="#b7ac7a"/>
  <path d="m27.429 37.21c-1.8241 0.88313-3.4759 2.6392-6.312 3.2857-4.6896 1.0679-7.5437-3.668-12.434-2.0378-1.7241 0.57491-1.5146 2.2467-0.57491 3.3435 0 0 4.2838 0.10415 5.12 1.8806 0.83558 1.7765 1.0511 4.689 2.6645 5.4331 1.3581 0.62668 6.7237 0.26788 8.7766-2.9251 1.7247-2.6843 1.9998-7.168 2.7596-8.98" fill="#923000"/>
  <path d="m19.691 40.676s-4.3735 4.102-3.9028 10.946c0 0 1.2016-1.0974 1.4623-1.0974 0.26127 0 1.5152 1.5152 1.6724 1.5152 0.31304 0 0.32026-6.1049 3.9774-12.009 0 0-1.7976 1.0427-3.2093 0.64474" fill="#ed8599"/>
  <path d="m14.534 47.652s0.73143-1.5152 0.94032-1.4629c0.20889 0.05235 0.36602 1.6718 0.41839 2.9257 0 0-1.1805-0.35698-1.3587-1.4629" fill="#fff"/>
  <path d="m24.733 46.248c-0.59779-0.57912-1.5652-1.039-1.7223-0.96019-0.23418 0.11679 0.24863 2.4164 0.24863 2.4164s1.0126-0.6917 1.4737-1.4562" fill="#fff"/>
  <path d="m6.1052 34.095c-1.3617-0.97283-2.7529 0.25284-3.5428 1.2016 0.10535-1.319 0.54421-2.4634 0.54421-2.4634 0.50387-0.70614 1.3792-1.682 2.0853-1.4129 0.55324 0.2107 1.1023 1.2275 0.91323 2.6747" fill="#2f2826"/>
  <path d="m16.428 32.231c-1.9378-0.47618-2.6169-0.32026-3.9232-0.10234-0.98126 0.16314-1.8602 0.93792-2.3851 1.499-0.49424-0.74889-0.6315-1.629-0.21732-2.5097 0.56468-1.1992 2.7259-1.4803 4.5084-0.70675 0.92828 0.40274 1.626 1.089 2.0173 1.8198" fill="#2f2826"/>
  <path d="m43.755 24.174c-0.0054-0.19685-0.01745-0.3919-0.03006-0.58755-2.1546 7.3281-9.7042 13.162-13.296 13.208-1.6055 0.02107-2.3785 0.22695-2.9372 0.48762-0.77658 1.8572-1.1847 6.1446-2.4447 8.3558-1.3762 2.4158-4.3567 3.432-5.5444 3.5909-0.10596 0.39612-0.15833 0.84461-0.18482 1.1878 1.6104 0.26428 4.4656-0.83257 5.7557-1.874 2.2105-1.7855 3.8811-5.8087 5.0165-7.7098 0.89879-1.5044 12.201-5.2458 13.665-16.659" fill="#dcdbce"/>
  <path d="m4.8524 40.713c0.93491 0.7525 2.0703 1.2287 3.2707 1.2287-0.31485-0.38046-0.5117-0.79524-0.59839-1.2082-0.95176 0.1186-1.8891 0.07466-2.6723-0.02046" fill="#dcdbce"/>
  <path d="m19.691 40.676s-2.1672 2.0366-3.2857 5.6299c1.7422-3.078 3.5572-2.4742 3.9274-0.59719 0.55444-1.7645 1.3617-3.7312 2.5675-5.6775 0 0-1.7976 1.0427-3.2093 0.64474" fill="#ce7486"/>
  <path d="m15.475 46.189c0.18301 0.04578 0.41237 1.2738 0.41478 2.5152 0.6032-4.4638 3.1346-7.3829 3.7721-8.0542-3.8721-0.03613-6.6148-3.6475-10.978-2.1925-1.7247 0.57431-1.5152 2.2461-0.57491 3.3429 0 0 4.2838 0.10474 5.12 1.8806 0.52675 1.1197 0.80909 2.6879 1.3497 3.8817 0.15832-0.32026 0.71758-1.4183 0.89638-1.3738" fill="#6a1a00"/>
  <path d="m15.877 49.234c0.01986-0.36782-0.01805-1.1486-0.03853-1.5122-0.39852 0.42982-0.91564-0.05117-1.1769-0.32508-0.07645 0.1511-0.12703 0.25525-0.12703 0.25525 0.17759 1.1059 1.3425 1.582 1.3425 1.582" fill="#dbdcdc"/>
  <path d="m23.259 47.704s1.0132-0.6917 1.4737-1.4562c-0.17518-0.16975-0.38167-0.32868-0.58996-0.46715-0.09091 0.77176-0.45752 0.97524-1.0511 1.0312 0.08127 0.4816 0.16735 0.89217 0.16735 0.89217" fill="#dbdcdc"/>
  <g fill="#0f141b">
   <path d="m18.999 51.834m-0.40334 0.18662c-0.47197-0.42922-1.2359-1.3166-1.3467-1.3792-0.10836 0.0433-0.7224 0.67304-1.133 1.0342-0.47438 0.41779-0.49544 0.40034-0.59116-0.16434-0.33531-1.9794 0.30702-7.0566 3.8919-10.855 0.14268-0.15049 0.56708-0.01806 0.47618 0.06561-0.04274 0.03912-4.2567 4.3157-4.0232 10.691 0.64233-0.56046 1.2479-1.2154 1.4448-1.2154 0.2113 0 1.4406 1.4598 1.5604 1.5766 0.37745-3.7607 1.0306-7.0867 3.8919-11.906 0.07285-0.12281 0.58996-0.24863 0.52494-0.14387-3.5939 5.8009-3.6746 10.589-4.0232 12.165-0.12341 0.55866-0.15711 0.5996-0.67304 0.13123"/>
   <path d="m15.709 48.559c-0.06442-1.0053-0.1818-1.8957-0.26548-2.2364-0.17699 0.25164-0.52434 0.91624-0.73926 1.3629-0.05418 0.11077-0.27692-0.32388-0.23237-0.41177 0.65919-1.2961 0.91203-1.3382 1.0565-1.3009 0.11619 0.02887 0.3606 0.09027 0.5117 1.8722 0.02951 0.34976-0.31906 0.89638-0.3311 0.71398"/>
   <path d="m23.04 47.751c-0.51772-2.4688-0.27512-2.5898-0.13003-2.6626 0.24983-0.12582 1.5887 0.58876 1.8939 0.82354 0.08668 0.06741-0.16976 0.55624-0.24622 0.45993-0.13906-0.17338-1.0866-0.78742-1.4617-0.93611-0.0055 0.33832 0.19023 1.2732 0.34073 2.0257 0.01382 0.06625-0.37444 0.39491-0.39672 0.28956"/>
   <path d="m27.734 26.644c-0.07826-0.99992 0.38227-1.8463 1.2516-2.1299 0.89939-0.29377 1.5459-0.0145 2.0649 0.64414 0.34916 0.44367 0.10293 0.70675-0.30762 0.32448-0.43043-0.40033-0.9349-0.55143-1.6013-0.33351-0.59418 0.19384-0.90842 0.84701-0.95959 1.5002-0.05118 0.65558-0.39672 0.64234-0.44789-0.0055"/>
   <path d="m15.696 49.364c-1.8891-0.90781-1.5977-3.7769-2.5784-5.1935-0.6634-0.95778-2.0444-1.6398-5.3385-1.9613-3.5656-0.34675-5.2464-3.4458-5.5378-5.6215-0.53819-4.0226 2.9323-7.6966 3.7071-9.1058 0.31063-0.56588 0.70675-0.56588 0.33893 0.19806-0.87711 1.8229-3.7944 5.1953-3.3176 8.7585 0.29558 2.2063 2.1877 4.9623 4.8052 5.123 1.8849 0.21371 4.1442 0.39371 5.8147 2.2093 1.0926 1.1889 0.60982 3.9377 2.2154 4.9761z"/>
   <path d="m19.327 49.622c1.9637-0.28897 4.1797-1.2124 5.5757-3.2833 2.0366-3.022 1.6091-6.3066 3.0214-9.328-0.2721 0.08127-0.65738 0.32869-0.65738 0.32869-1.2148 2.6602-0.94996 5.7858-2.6921 8.4948-1.0993 1.7109-3.2652 2.8131-5.1206 3.1491z"/>
   <path d="m21.289 40.886c-4.1345 0.94333-10.263-4.3302-13.04-1.9011-0.73805 0.64534-0.61886 1.927 0.28354 2.8444l-0.64414-0.05659c-0.49424-0.25284-1.2558-2.3039 0.066228-3.317 3.4374-2.6368 9.0812 2.7632 13.139 1.8385 3.4994-0.79765 5.6407-3.9256 8.6357-3.8095 1.0102 0.03912 0.97524 0.37384-0.02227 0.39552-2.9817 0.06442-5.0141 3.2303-8.4184 4.0057"/>
   <path d="m43.434 17.571c-0.55505-1.6796-0.95538-1.5321-0.48702 0.0915 0.52916 1.8343 0.93792 4.58 0.47077 7.2487-1.5447 8.8133-9.7127 12.526-13.49 15.745-1.7061 1.4538-3.063 9.4857-10.576 9.4267l-0.09874 0.59116c8.0144 0.0656 9.2293-7.5214 11.168-9.4923 2.6879-2.7337 11.861-5.8888 13.647-16.085 0.5436-3.1027-0.07164-5.8243-0.6339-7.525"/>
   <path d="m36.412 58.362c-1.9029-0.85122-3.2875-4.1044-4.5222-5.4619-0.90842-0.99991-5.7786-2.9992-7.3564-4.1195 0.20408-0.20829 0.28776-0.29137 0.49605-0.36661 1.3593 0.93732 6.3029 3.1376 7.2372 4.1658 0.84159 0.92467 2.5549 4.4783 4.1044 5.1706 0.11498 0.05117 0.07099 0.62548 0.04093 0.61163"/>
   <path d="m28.624 43.513c1.0071-0.16314 2.178-0.33832 3.3074-0.8422 2.5374-1.1342 5.2013-3.8763 6.7725-2.2178 1.9433 2.0498-1.4069 6.3216-5.4379 7.1415-3.019 0.61344-5.4072 0.19204-6.5835-0.74468l0.26488-0.44126c0.99812 0.80428 3.0997 1.3178 6.1723 0.69351 3.9569-0.80487 6.6936-4.9033 5.2844-6.3914-1.2461-1.3154-3.8064 1.4183-6.3132 2.3839-1.26 0.48581-2.6422 0.661-3.742 0.8723z"/>
   <path d="m43.61 24.613c-0.7483-10.413-8.3196-14.993-16.391-13.886-11.045 1.5164-16.496 9.0499-17.923 11.321-0.71939 1.1444-0.97283 0.71337-0.42862-0.28595 1.7109-3.1382 7.652-10.272 18.325-11.737 8.965-1.2299 15.473 3.8173 16.591 12.193 0.05354 0.40093-0.16254 2.5471-0.17397 2.3954"/>
   <path d="m19.178 25.151c-1.8235-1.5634-1.0445-4.3862 0.90481-6.7388 0.67785-0.81812 0.9343-0.4214 0.33411 0.30401-1.7615 2.1269-2.1648 4.822-0.91444 5.8936 3.0696 2.6313 14.588-1.3407 17.822-7.5485 0.52253-1.0035 0.91504-0.82715 0.41358 0.19264-3.1864 6.4847-15.2 10.776-18.56 7.897"/>
   <path d="m23.03 29.851c-1.0836-1.4123-0.82053-3.8101-0.67665-4.0828 0.0596-0.11136 0.51832-0.1192 0.49183 0.0043-0.06442 0.28956-0.30822 2.5356 0.61223 3.7499 1.5429 2.0366 4.8599 2.3707 8.3834 0.7832 4.642-2.0907 4.828-5.3861 4.1953-7.0891-0.2426-0.65377-0.85364-1.4448-1.9306-1.8885-0.11678-0.04756 0.29739-0.35217 0.38167-0.32086 1.0011 0.37083 1.7741 1.1787 2.0703 1.974 0.68748 1.8524 0.45391 5.6919-4.4951 7.9211-3.7583 1.6928-7.2457 1.2768-9.0324-1.0511"/>
   <path d="m4.853 29.475c-0.090907-0.21552-2.1443-5.6022-0.52735-8.3889 1.6958-2.9239 7.6671-4.1105 8.7663-4.2284 0.12822-0.01382-0.45812 0.56407-0.66521 0.6026-1.6826 0.31665-6.2873 1.4105-7.7062 3.8552-1.3154 2.2671 0.12703 6.4143 0.52254 7.4491 0.056587 0.14749-0.35277 0.79765-0.3901 0.71036"/>
   <path d="m3.2839 38.158c-0.06863-0.092706-0.17157-0.12703-0.10293-0.47257 0.3022 0.15111 1.7259-0.53458 2.4393-2.3309 0.75611-1.9047 0.1794-3.4296-0.44006-3.665-0.50387-0.19204-1.266 0.56166-1.8144 1.3298-0.036723-0.23358 0.022266-0.43284 0.16194-0.8428 0.33471-0.50086 1.1908-1.1269 1.8156-0.91384 1.325 0.4515 1.4454 2.576 0.7537 4.3187-0.59477 1.5002-1.676 2.5766-2.8131 2.5766"/>
   <path d="m10.169 31.272c-0.67484 1.4334 0.3016 3.0979 2.2924 3.8528 1.9523 0.74046 3.5 0.36542 4.0388-0.97945 0.40876-1.0228-0.41478-2.7228-2.1293-3.4663-1.7049-0.73986-3.7077-0.45752-4.202 0.59297m2.0552 4.261c-2.473-1.0384-3.3224-2.904-2.529-4.5325 0.62367-1.2811 2.9414-1.6025 4.8937-0.75551 1.8457 0.80126 3.0058 2.7319 2.4315 4.167-0.77056 1.927-3.299 1.75-4.7961 1.1209"/>
   <path d="m26.807 33.562c-1.4887-0.42622-3.4633-0.0939-5.8039-2.3622-1.3569-1.3148-1.741-3.9485-1.0655-6.1217 9e-3 -0.02829 0.43404 0.14449 0.4202 0.18843-0.60441 2.0083-0.15051 4.3832 1.08 5.5757 2.0227 1.9607 3.7402 1.5953 5.4782 2.0932 2.0998 0.6014 3.6668 2.8613 5.3674 2.2545 2.4291-0.86929 1.1432-2.3141 2.278-3.8341 1.1631-1.5568 2.5778-0.79163 3.5325-2.6295 0.40756-0.78501-0.02467-2.5079 0.19747-3.5079 0.26006-1.1685 1.3244-1.809 1.1908-2.8342-0.14147-1.0806-2.0625-2.8342-3.5957-2.8818-0.12641-0.0043 0.14388-0.40274 0.24622-0.38829 1.6182 0.23538 3.6848 1.8999 3.8564 3.2177 0.17759 1.3581-0.90962 1.7952-1.1721 2.9757-0.31184 1.4075 0.30942 2.6434-0.2402 3.7023-1.0162 1.9559-2.576 1.3533-3.5915 2.7132-0.99932 1.3382 0.27511 3.0395-2.4303 4.0069-2.0438 0.73143-3.7709-1.6013-5.7479-2.1678"/>
  </g>
 </g>
</svg>
