<?xml version="1.0" encoding="UTF-8"?>
<!-- Created with Inkscape (http://www.inkscape.org/) -->
<svg version="1.1" viewBox="0 0 70.382 88.225" xmlns="http://www.w3.org/2000/svg">
 <defs>
  <clipPath id="clipPath10608">
   <path d="M 0,792.109 H 612.156 V 0 H 0 Z"/>
  </clipPath>
 </defs>
 <g transform="translate(-1.4896 -1.0996)">
  <g transform="matrix(.70346 0 0 -.70346 -29.339 517.95)">
   <g clip-path="url(#clipPath10608)">
    <g transform="translate(119.52 637.16)">
     <path d="m0 0c0.767 4.855-3.125 12.499-6.071 13.57-2.856 1.25-31.961 0.893-34.014-0.625-3.397-3.397-6.072-10.432-5.624-14.016 1.896-16.305 42.138-17.766 45.709 1.071" fill="#d0bad9"/>
    </g>
    <g transform="translate(81.34 631.75)">
     <path d="m0 0c-0.369 1.993-3.633 4.703-6.13 4.703-2.516 0-6.233-1.67-7.789-2.993-0.158 0.411-0.253 0.8-0.217 0.984 0.145 0.722 0.536 3.169 0.135 4.999-0.389 1.767-2.595 4.255-5.804 3.794-2.374-0.341-3.968-1.683-4.705-4.063-0.847 0.892-2.698 1.17-3.687 0.626-1.761-0.969-2.865-3.122-2.41-6.383 0.216-1.55 1.563-3.973 3.17-5.133 0.572-0.414 0.669-0.715 0.624-1.34-0.291-4.069 3.113-10.329 6.934-12.453 1.465-0.815 3.037-0.789 4.494-0.715 3.526 0.179 6.026 2.857 9.061 3.794 2.572 0.795 8.63 2.65 9.821 2.188-1.027 3.928-3.17 10.177-3.497 11.992" fill="#a560a2"/>
    </g>
    <g transform="translate(142.82 634.78)">
     <path d="m0 0c-0.518 3.299-2.857 5.297-4.285 5.356-0.575 0.024-1.31-0.122-1.605-0.554-0.114 0.364-0.253 0.71-0.419 1.031-1.24 2.39-3.417 3.625-5.952 2.916-2.922-0.817-4.22-5.382-2.564-9.348-3.109 2.017-6.582 3.362-9.22 3.635-1.726 0.178-4.582-1.072-5.357-3.215-2.599-5.961-4.344-15.324 1.607-15.831 1.726-0.06 5.833-0.952 7.738-2.024 1.905-1.071 5.297-2.797 7.678-2.797 2.96 0 6.129 1.518 8.689 7.26 0.75 1.685 0.86 4.873 0.417 6.726 2.738 1.012 3.697 4.147 3.273 6.845" fill="#a560a2"/>
    </g>
    <g transform="translate(100.09 632.1)">
     <path d="m0 0c-0.833-0.893-4.762-0.952-6.13-0.238-3.363 2.708-6.488 11.368-6.488 11.368l17.409 0.446c-0.721-2.802-3.124-9.641-4.791-11.576" fill="#8f528d"/>
    </g>
    <g transform="translate(112.29 621.75)">
     <path d="m0 0c-0.06 0.893-0.357 2.083-0.595 2.917 3.139 12.142 3.035 24.76 1.012 35.056l-3.72-0.774-2.456-1.517c-0.136-0.245 0.491-2.724 1.37-4.586-3.122-6.606-9.418-20.938-10.014-29.429-0.149-4.553 0.939-8.198 3.333-9.106 3.089-0.516 4.853 0.175 5.382 1.685 0.677-1.449 2.956-1.825 5.569-1.149 1.846 0.476 3.016 1.458 3.095 3.302 0.06 1.398-1.488 2.619-2.976 3.601" fill="#a560a2"/>
    </g>
    <g transform="translate(100.21 617.34)">
     <path d="m0 0c-1.414 5.54-6.858 17.214-9.603 20.717-0.558 1.984-2.723 7.047-4.571 10.547 0.306 1.174 0.961 2.066-0.468 5.518-0.178 0.238-6.427-0.655-6.427-0.655-0.06-8.749 0.318-18.546 5.416-33.687-1.353-1.102-4.438-3.386-4.275-6.249 0.098-1.731 1.472-3.292 5.049-3.154 2.025 0.077 3.584 0.288 4.653 0.949 0.841-1.201 2.68-1.632 5.941-1.306 5.267 0.526 7.01 4.034 4.285 7.32" fill="#a560a2"/>
    </g>
    <g transform="translate(112.71 659.72)">
     <path d="m0 0-3.72-0.773-2.456-1.518c-0.136-0.245 0.491-2.723 1.37-4.586-1.271-2.689-3.067-6.659-4.791-10.993 3.94 1.364 7.88 3.677 10.937 6.653-0.192 3.933-0.651 7.712-1.34 11.217" fill="#8f528d"/>
    </g>
    <g transform="translate(85.565 654.13)">
     <path d="m0 0c-0.178 0.238-6.428-0.655-6.428-0.655-0.018-2.706 6e-3 -5.512 0.198-8.545 2.896-1.541 6.493-2.925 10.125-3.729-0.937 2.302-2.247 5.174-3.428 7.41 0.306 1.174 0.962 2.067-0.467 5.519" fill="#8f528d"/>
    </g>
    <g transform="translate(109.13 659.3)">
     <path d="m0 0c-4.613-0.357-21.418-3.243-24.879-5.06 1.642-1.695 1.818-3.881 1.514-5.15 1.453-2.674 3.161-6.478 4.151-9.062 2.331-2.492 9.34-2.7 12.205-0.722 2.125 5.637 4.547 10.962 6.053 14.119-0.488 1.083-0.49 3.418 0.956 5.875" fill="#dbdcdc"/>
    </g>
    <g transform="translate(105.95 658.41)">
     <path d="m0 0c0-4.809-3.555-9.812-8.749-10.178-5.056-0.356-8.749 3.15-8.749 6.875-0.179 3.571 17.498 4.969 17.498 3.303" fill="#e4c1db"/>
    </g>
    <g transform="translate(143.27 690.73)">
     <path d="m0 0c-0.136 2.32-14.161 8.035-19.896 8.295-1.01 4.403-2.82 8.368-5.744 11.47-0.371 11.166-9.98 23.393-11.588 23.623-1.045 0.15-10.26-10.141-11.78-17.046-2.909-0.271-6.075-0.787-9.527-1.583-3.325-0.767-6.33-1.763-9.025-2.96-8.43 5.113-20.805 6.762-22.341 5.162-1.805-1.88 0.418-16.513 5.798-24.542-0.482-2.73-0.544-5.629-0.164-8.676 7e-3 -0.057 0.017-0.113 0.024-0.17-5.983-3.577-14.94-14.749-14.586-16.963 0.478-2.988 15.054-6.794 23.748-5.571 6.887-9.881 14.978-10.158 20.98-6.749 5.728-3.391 12.314-2.468 17.528 3.868 10.844-0.655 15.644 7.151 16.942 16.212 4e-3 0.026 6e-3 0.052 0.01 0.079 7.949 2.807 19.761 13.177 19.621 15.551" fill="#a560a2"/>
    </g>
    <g transform="translate(62.689 637.94)">
     <path d="m0 0c-0.281-1.666-1.62-2.828-2.991-2.597-1.37 0.231-2.253 1.77-1.971 3.435 0.281 1.667 1.62 2.831 2.991 2.6 1.37-0.231 2.253-1.771 1.971-3.438" fill="#fff"/>
    </g>
    <g transform="translate(54.735 633.9)">
     <path d="m0 0c-0.289-1.711-1.455-2.941-2.604-2.747-1.148 0.194-1.846 1.739-1.557 3.45 0.29 1.713 1.455 2.943 2.605 2.749 1.149-0.194 1.846-1.74 1.556-3.452" fill="#fff"/>
    </g>
    <g transform="translate(65.709 624.3)">
     <path d="m0 0c1.231-3.357 0.502-6.572-2.096-7.63-2.055-0.836-4.993 1.327-6.242 4.234-1.207 2.81-0.716 6.42 1.531 7.334 2.328 0.948 5.497-0.366 6.807-3.938" fill="#fff"/>
    </g>
    <g transform="translate(137.83 621.41)">
     <path d="m0 0c-1.217-3.523-3.623-5.587-5.539-4.926-2.005 0.694-3.339 3.662-2.004 7.531 1.314 3.802 4.117 5.42 6.226 4.692 1.476-0.51 2.582-3.632 1.317-7.297" fill="#fff"/>
    </g>
    <g transform="translate(136.15 639.07)">
     <path d="m0 0c0.599-1.729 0.191-3.441-0.912-3.825-1.104-0.382-2.484 0.711-3.083 2.439-0.6 1.729-0.192 3.441 0.912 3.824 1.102 0.382 2.483-0.709 3.083-2.438" fill="#fff"/>
    </g>
    <g transform="translate(142.4 634.87)">
     <path d="m0 0c0.414-1.588 1e-3 -3.071-0.921-3.312-0.922-0.239-2.005 0.854-2.418 2.442-0.414 1.588-2e-3 3.071 0.922 3.31 0.921 0.24 2.004-0.852 2.417-2.44" fill="#fff"/>
    </g>
    <g transform="translate(70.964 667.43)">
     <path d="m0 0c0.152-4.162 4.036-7.847 8.285-8.018 6.341-0.251 9.796 4.295 9.282 9.674-3.542-1.688-10.716-2.907-17.567-1.656" fill="#50187f"/>
    </g>
    <g transform="translate(100.29 671.09)">
     <path d="m0 0c1.96-5.465 7.141-7.187 11.761-5.354 3.978 1.58 6.206 6.442 5.062 10.928-4.282-3.906-12.185-5.742-16.823-5.574" fill="#50187f"/>
    </g>
    <g transform="translate(72.054 667.26)">
     <path d="M 0,0 C 2.396,-8.85 15.877,-7.633 16.236,1.718 12.814,0.176 6.361,-0.92 0,0" fill="#fff"/>
    </g>
    <g transform="translate(100.5 671.08)">
     <path d="M 0,0 C 4.559,-8.119 17.12,-3.821 15.891,4.956 11.556,1.529 4.406,-0.102 0,0" fill="#fff"/>
    </g>
    <g transform="translate(75.923 666.94)">
     <path d="M 0,0 C 1.652,-4.93 8.855,-3.85 9.117,0.949 6.551,0.306 3.353,-0.087 0,0" fill="#5876b8"/>
    </g>
    <g transform="translate(112.93 673.91)">
     <path d="m0 0c-2.717-1.312-5.815-2.162-8.581-2.566 2.334-4.423 9.093-2.396 8.581 2.566" fill="#5876b8"/>
    </g>
    <g transform="translate(83.681 667.58)">
     <path d="m0 0c-1.862-0.372-3.976-0.609-6.191-0.649 1.251-3.039 5.686-2.455 6.191 0.649" fill="#50187f"/>
    </g>
    <g transform="translate(111.51 673.28)">
     <path d="m0 0c-1.797-0.735-3.701-1.283-5.526-1.651 1.535-2.626 5.556-1.53 5.526 1.651" fill="#50187f"/>
    </g>
    <g transform="translate(78.508 653.35)">
     <path d="m0 0c0.371 8e-3 0.654 0.113 0.818 0.326 0.656 0.851-0.843 3.103-3.348 5.03-2.504 1.927-5.065 2.798-5.72 1.948-0.408-0.53 0.019-1.602 1.001-2.801 1.783-2.681 6.211-4.498 7.249-4.503" fill="#fff"/>
    </g>
    <g transform="translate(120.07 665.06)">
     <path d="m0 0c1.755 2.729 2.517 5.367 1.7 5.894-0.818 0.526-2.907-1.259-4.661-3.987-1.758-2.729-2.518-5.367-1.701-5.893 0.306-0.198 0.792-0.07 1.37 0.31 1.339 0.898 3.292 3.676 3.292 3.676" fill="#fff"/>
    </g>
    <g transform="translate(114.83 709.48)">
     <path d="m0 0c-0.089-0.759 0.065-0.775 0.937-1.161 1.176-0.519 4.741-3.897 7.04-7.197-1.071 3.563-2.731 6.775-5.182 9.375-0.139 4.173-1.568 8.495-3.388 12.283 0.585-4.828 0.767-11.816 0.593-13.3" fill="#8f528d"/>
    </g>
    <g transform="translate(63.544 693.23)">
     <path d="m0 0c1.042 1.692 0.921 1.901-0.402 2.946-4.183 3.307-7.984 10.281-10.386 17.98 0.125-5.293 2.383-14.998 6.409-21.007-0.483-2.729-0.545-5.629-0.164-8.675 0.062-0.49 0.451-3.936 1.707-7.84-0.182 7.35 0.679 13.091 2.836 16.596" fill="#8f528d"/>
    </g>
    <g transform="translate(81.34 631.75)">
     <path d="m0 0c-0.06 0.323-0.202 0.665-0.398 1.011 0.355-6.545-1.79-10.477-4.78-12.021-0.592-0.305-5.078-2.797-6.13-3.512-2.403-1.634-6.596-2.528-10.06-1.685 0.484-0.412 0.982-0.771 1.489-1.052 1.465-0.815 3.037-0.789 4.494-0.715 3.526 0.179 6.026 2.857 9.061 3.794 2.572 0.795 8.63 2.65 9.821 2.188-1.027 3.928-3.17 10.177-3.497 11.992" fill="#8f528d"/>
    </g>
    <g transform="translate(89.434 613.42)">
     <path d="m0 0c-2.047-1.462-6.604-1.724-9.071-0.449 0.349-1.488 1.786-2.708 4.965-2.586 2.024 0.077 3.584 0.288 4.653 0.949 0.841-1.201 2.68-1.632 5.941-1.306 3.319 0.332 5.235 1.848 5.519 3.746-4.152-2.566-11.161-2.383-12.007-0.354" fill="#8f528d"/>
    </g>
    <g transform="translate(129.67 615.44)">
     <path d="m0 0c-2.321 0.714-3.214 2.261-9.522 4.761-4.081 1.616-6.32 8.893-6.57 14.601-0.399-3.376-1.012-6.775-1.882-10.137 0.238-0.834 0.536-2.024 0.596-2.917 1.264-0.834 2.562-1.843 2.89-2.985 1.801-0.101 5.732-0.972 7.585-2.014 1.904-1.071 5.297-2.797 7.677-2.797 1.57 0 3.2 0.435 4.766 1.694-1.55-0.697-3.502-0.833-5.54-0.206" fill="#8f528d"/>
    </g>
    <g transform="translate(115.25 618.3)">
     <path d="m0 0c-0.839-2.465-7.197-2.434-8.586-1.044-0.583-1.459-3.522-1.882-5.495-1.507 0.201-0.502 0.31-0.997 0.31-1.472 2.921-0.431 4.609 0.252 5.122 1.717 0.677-1.448 2.955-1.824 5.569-1.149 1.845 0.476 3.016 1.458 3.095 3.302 2e-3 0.052-0.013 0.102-0.015 0.153" fill="#8f528d"/>
    </g>
    <g transform="translate(99.58 631.78)">
     <path d="m0 0c-1.236-0.521-3.885-0.535-5.248-0.072 1.249-2.47 2.526-5.257 3.594-7.865 0.211 2.33 0.815 5.06 1.654 7.937" fill="#b4a1bc"/>
    </g>
    <g transform="translate(64.153 668.38)">
     <path d="m0 0c-6.523-1.597-14.846-1.693-19.703-0.708-0.018-0.126-0.026-0.243-0.011-0.338 0.478-2.988 15.053-6.793 23.748-5.571-0.03 0.043-0.06 0.082-0.09 0.125-1.444 2.094-2.771 4.253-3.944 6.492" fill="#8f528d"/>
    </g>
    <g transform="translate(143.27 690.73)">
     <path d="m0 0c-6e-3 0.108-0.053 0.227-0.118 0.349-4.062-3.702-14.138-7.415-18.741-8.559-0.15-2.339-0.396-4.77-0.762-7.341 7.949 2.807 19.761 13.177 19.621 15.551" fill="#8f528d"/>
    </g>
    <g transform="translate(89.166 655.02)">
     <path d="m0 0c-0.227-0.129-0.458-0.25-0.69-0.368 0.051-0.613 0.2-1.215 0.437-1.792 3.734-3.732 12.173-3.074 15.884 0.802 0.679 1.363 1.067 2.86 1.128 4.356-5.083-5.534-11.308-6.225-16.759-2.998" fill="#c5a7be"/>
    </g>
    <g transform="translate(99.016 628.18)">
     <path d="m0 0c-0.35 0.174-2.311 0.259-3.162 0.051l-0.527 0.928c0.975 0.309 2.87 0.315 3.906 0.043z" fill="#706376"/>
    </g>
    <g transform="translate(123.02 698.43)">
     <path d="m0 0c5.769 0 19.512-6.166 19.64-7.736 0.1-1.718-10.862-12.003-19.182-14.935l-0.032-1.545c7.843 2.52 20.605 13.509 20.426 16.551-0.182 3.094-15.897 9.048-20.872 9.071z" fill="#0f141b"/>
    </g>
    <g transform="translate(98.993 670.58)">
     <path d="m0 0c-1.643 0.224-3.165 1.235-4.138 2.099-1.294 1.145-0.955 1.751 0.768 0.615 0.907-0.597 2.221-1.371 3.512-1.547 4.408-0.604 13.034 1.429 17.974 5.178 1.522 1.155 2.003 0.772 0.589-0.558-5.139-4.821-15.3-6.25-18.705-5.787" fill="#0f141b"/>
    </g>
    <g transform="translate(70.864 667.81)">
     <path d="m0 0c5.415-0.478 13.862-0.454 18.249 2.272 0.693 0.431 1.293 1.132 1.712 1.973 0.65 1.304 1.168 1.231 0.751-0.317-0.303-1.123-0.943-2.141-1.822-2.688-3.632-2.257-12.018-3.488-19.07-2.184-1.899 0.352-1.844 1.123 0.18 0.944" fill="#0f141b"/>
    </g>
    <g transform="translate(84.14 667.94)">
     <path d="m0 0c-0.42-4.258-6.226-4.582-7.231-0.554l0.862-0.072c1.006-3.062 5.204-2.271 5.541 0.441z" fill="#0f141b"/>
    </g>
    <g transform="translate(85.455 668.05)">
     <path d="m0 0c-0.052-2.827-2.27-4.409-4.355-4.686-1.832-0.244-4.599 0.414-5.588 3.517l0.832 0.07c0.808-2.237 2.865-3.021 4.65-2.784 1.749 0.232 3.494 1.456 3.642 3.677z" fill="#0f141b"/>
    </g>
    <g transform="translate(88.72 669.01)">
     <path d="m0 0c-0.091-5.255-3.78-7.874-7.585-8.304-3.153-0.357-8.157 0.928-9.556 6.578l1.138-0.149c1.257-4.107 5.012-5.59 8.281-5.223 3.15 0.357 6.359 2.585 6.674 6.769z" fill="#0f141b"/>
    </g>
    <g transform="translate(111.92 673.46)">
     <path d="m0 0c0.202-3.845-4.816-5.052-6.422-1.808l0.726 0.359c1.333-2.695 5.041-1.507 4.887 1.407z" fill="#0f141b"/>
    </g>
    <g transform="translate(113.31 674.15)">
     <path d="m0 0c0.403-2.941-1.491-4.854-3.546-5.445-2.289-0.659-4.806 0.26-5.943 2.783l0.872 0.058c1.087-2.072 3.191-2.54 4.847-2.063 1.721 0.495 3.305 2.096 2.968 4.557z" fill="#0f141b"/>
    </g>
    <g transform="translate(116.81 676.21)">
     <path d="m0 0c0.791-4.992-2.342-8.352-5.957-9.55-4.055-1.343-8.476-0.223-10.886 4.372l1.234 0.035c2.227-3.625 6.199-4.271 9.27-3.253 3.021 1.001 5.786 3.803 5.356 7.86z" fill="#0f141b"/>
    </g>
    <g transform="translate(106.4 658.29)">
     <path d="m0 0c0.298-4.999-3.4-10.258-9.153-10.664-4.832-0.332-9 2.51-9.238 6.855l1.054 0.625c0-2.805 2.976-6.628 8.099-6.268 4.605 0.325 7.612 4.41 8.11 8.406z" fill="#0f141b"/>
    </g>
    <g transform="translate(97.528 653.53)">
     <path d="m0 0c2e-3 -0.046 0.017-0.73 0.06-1.429 0.119-1.904-0.655-1.904-1.019-0.117-0.143 0.703-0.063 1.475-0.064 1.486z" fill="#0f141b"/>
    </g>
    <g transform="translate(90.426 610.89)">
     <path d="m0 0c-1.213-0.809-2.906-1.03-5.075-1.113-3.255-0.129-5.529 1.085-5.678 3.728-0.168 2.958 2.622 5.242 4.171 6.49-5.008 15.027-5.373 24.78-5.314 33.484l1.215-8e-3c-0.058-8.598 0.301-18.232 5.245-33.071 0.204-0.611 0.246-0.847-0.415-1.376-1.384-1.115-3.821-3.129-3.69-5.451 0.099-1.745 1.715-2.679 4.419-2.582 1.7 0.066 3.414 0.22 4.448 0.91z" fill="#0f141b"/>
    </g>
    <g transform="translate(88.811 613.8)">
     <path d="m0 0c0.025 0.649 0.229 1.273 0.622 1.818 1.059 1.466 1.599 1.068 0.893-0.297-0.225-0.436-0.283-1.098-0.301-1.568-0.093-2.389 1.16-3.589 5.836-3.125 5.218 0.522 5.769 4.049 3.878 6.329-0.057 0.069-0.098 0.151-0.121 0.238-1.378 5.399-6.543 16.5-9.254 20.189-1.323 1.801-0.312 2.521 1.092 0.554 2.977-4.17 7.949-15.142 9.305-20.312 2.572-3.211 1.75-7.554-4.78-8.206-5.253-0.529-7.309 0.817-7.17 4.38" fill="#0f141b"/>
    </g>
    <g transform="translate(91.276 637.9)">
     <path d="m0 0c-0.512 2.219-3.519 9.82-6.067 12.897-1.308 1.579-1.757 0.999-0.812-0.527 1.755-2.836 4.504-8.971 5.434-11.754z" fill="#0f141b"/>
    </g>
    <g transform="translate(88.184 621.15)">
     <path d="m0 0c0.97 0.429 3.884 0.586 4.643 0.357 1.607-0.484 1.445-0.913-0.018-0.805-1.246 0.091-3.218-0.097-4.379-0.412-1.565-0.422-2.061 0.056-0.246 0.86" fill="#0f141b"/>
    </g>
    <g transform="translate(98.492 623.37)">
     <path d="m0 0c0.651 9.273 8.44 26.218 10.964 31.322 0.878 1.777 0.417 2.291-0.797 0.503-2.147-3.16-10.018-20.58-11.248-30.413z" fill="#0f141b"/>
    </g>
    <g transform="translate(106.26 615.37)">
     <path d="m0 0c1.017-1.482 3.488-1.78 6.062-1.114 2.271 0.586 3.465 1.886 3.55 3.864 0.07 1.622-1.44 2.914-3.004 3.971-0.092 0.837-0.334 1.822-0.545 2.58 2.879 11.241 3.228 23.722 0.979 35.166l-1.191-0.235c2.224-11.322 1.867-23.676-1.005-34.786-0.027-0.105-0.026-0.215 4e-3 -0.319 0.326-1.142 0.529-2.132 0.573-2.79 0.013-0.19 0.113-0.362 0.271-0.467 1.285-0.847 2.752-1.961 2.704-3.068-0.061-1.44-0.875-2.285-2.64-2.74-2.55-0.659-4.585-0.233-4.948 1.036z" fill="#0f141b"/>
    </g>
    <g transform="translate(101.12 613.71)">
     <path d="m0 0c1.509-0.252 3.917-0.403 5.275 0.868 0.755 0.705 1.088 1.744 0.965 3.004-0.082 0.83-0.575 2.102-1.487 2.868-1.618 1.358-2.135 0.596-0.786-0.936 0.57-0.648 1.008-1.49 1.063-2.05 0.088-0.883-0.109-1.556-0.584-1.999-0.751-0.702-2.217-0.897-4.246-0.557z" fill="#0f141b"/>
    </g>
    <g transform="translate(107.16 624.44)">
     <path d="m0 0c-1.127 0.448-2.88 0.799-4.293 0.937-1.712 0.167-1.94 0.652 0.022 0.834 1.207 0.111 3.971-0.618 4.583-1.012 1.667-1.071 1.381-1.433-0.312-0.759" fill="#0f141b"/>
    </g>
    <g transform="translate(99.609 631.16)">
     <path d="m0 0c-1.392-0.477-3.725-0.49-5.177-0.111l-0.193 1.352c1.261-0.658 4.855-0.476 5.405 0.114z" fill="#0f141b"/>
    </g>
    <g transform="translate(74.413 636.17)">
     <path d="m0 0c-0.409 3.271 1.85 9.884 5.025 13.104l-0.539 1.373c-3.698-3.328-6.428-10.446-5.892-14.642z" fill="#0f141b"/>
    </g>
    <g transform="translate(120.32 637.43)">
     <path d="m0 0c0.611 5.207-3.303 12.855-6.696 14.105l0.094-1.615c2.395-1.512 5.69-7.842 5.25-12.256z" fill="#0f141b"/>
    </g>
    <g transform="translate(67.65 632.85)">
     <path d="m0 0c1.279 1.204 5.017 2.989 7.559 2.989 2.25 0 5.219-2.506 5.533-4.205l0.503 1.791c-1.277 1.896-3.596 3.468-6.036 3.63-3.001 0.197-6.794-1.817-8.392-3.321z" fill="#0f141b"/>
    </g>
    <g transform="translate(84.047 619.23)">
     <path d="m0 0c-0.97-0.059-3.305-0.525-8.852-2.239-3.276-1.012-5.367-3.583-9.21-3.821-1.262-0.078-3.269-0.072-4.819 0.79-3.969 2.207-7.557 8.661-7.245 13.029 0.031 0.436 8e-3 0.527-0.375 0.803-1.815 1.311-3.186 3.898-3.415 5.542-0.454 3.248 0.538 5.799 2.719 7 1.111 0.611 2.933 0.393 4.037-0.401l-0.464-1.204c-0.609 0.685-2.201 0.973-2.987 0.54-1.716-0.944-2.482-3.046-2.102-5.767 0.192-1.375 1.44-3.653 2.923-4.725 0.803-0.58 0.929-1.126 0.875-1.875-0.278-3.905 3.064-9.901 6.623-11.88 1.294-0.719 2.715-0.785 4.168-0.638 3.978 0.404 4.811 2.488 8.914 3.768 5.382 1.679 8.33 2.368 9.685 2.277z" fill="#0f141b"/>
    </g>
    <g transform="translate(67.097 632.68)">
     <path d="m0 0c-0.351 0.692-0.566 1.494-0.489 1.881 0.209 1.043 0.472 3.219 0.136 4.75-0.291 1.329-2.153 3.751-5.123 3.323-2.709-0.39-4.204-2.129-4.572-5.316-0.056-0.489-0.078-2.206 0.483-3.665 0.787-2.045-0.038-2.139-0.934-0.428-0.649 1.242-0.927 2.744-0.755 4.232 0.427 3.707 2.366 5.913 5.605 6.38 3.503 0.501 6.019-2.154 6.483-4.265 0.467-2.128-0.069-4.936-0.132-5.249-4e-3 -0.153-7e-3 -0.736 0.148-1.087 0.703-1.578-7e-3 -2.217-0.85-0.556" fill="#0f141b"/>
    </g>
    <g transform="translate(127.84 633.56)">
     <path d="m0 0c-2.999 1.981-6.498 3.38-9.132 3.653-1.411 0.146-4.03-0.901-4.722-2.817l-0.443 1.665c1.329 1.691 3.753 2.541 5.291 2.36 3.091-0.366 5.742-1.451 8.68-3.218z" fill="#0f141b"/>
    </g>
    <g transform="translate(115.01 618.17)">
     <path d="m0 0c1.683-0.058 5.695-0.953 7.461-1.946 2.332-1.312 5.61-2.876 7.976-2.876 3.935 0 6.958 2.493 9.243 7.622 0.769 1.725 0.894 4.656 0.557 6.608 2.759 1.332 3.596 4.651 3.179 7.303-0.528 3.362-2.985 5.791-4.86 5.87-0.596 0.024-1.216-0.093-1.673-0.379l0.52-1.17c0.032 0.175 0.522 0.362 1.102 0.335 1.037-0.043 3.224-1.746 3.711-4.844 0.366-2.328-0.381-5.256-2.884-6.181-0.288-0.107-0.452-0.412-0.38-0.711 0.403-1.683 0.326-4.751-0.381-6.338-2.069-4.643-4.73-6.899-8.134-6.899-1.666 0-4.217 0.939-7.38 2.719-2.006 1.128-6.18 2.038-8.015 2.1-7e-3 1e-3 -0.014 1e-3 -0.021 1e-3z" fill="#0f141b"/>
    </g>
    <g transform="translate(136.55 634.87)">
     <path d="m0 0c0.334 1.57 0.263 3.86-0.572 5.47-1.175 2.264-3.087 3.214-5.25 2.611-2.421-0.677-3.768-5.141-2.543-8.343 0.774-2.024-0.184-2.164-0.877-0.323-1.534 4.072-0.601 8.802 3.093 9.836 2.732 0.763 5.214-0.442 6.655-3.222 0.901-1.737 1.06-4.33 0.503-6.231-0.914-3.119-1.605-2.607-1.009 0.202" fill="#0f141b"/>
    </g>
    <g transform="translate(123.03 675.18)">
     <path d="m0 0c-1.861-12.997-10.142-16.064-16.304-15.691-0.193 0.013-0.382-0.071-0.505-0.221-4.94-6.002-11.265-6.978-16.75-3.732-0.187 0.111-0.42 0.114-0.609 6e-3 -7.341-4.17-14.692-1.391-20.27 6.691-5.101 7.391-8.042 14.688-8.994 22.31-0.351 2.813-0.318 5.484 0.082 7.998 0.135 0.848 0.244 0.468-0.359 1.442-5.126 8.288-6.912 21.799-5.521 23.282 1.125 1.2 13.251-0.102 21.755-5.358 1.474-0.912 2.042-0.649 1.102 0.354 2.49 1.058 5.224 1.942 8.207 2.631 3.063 0.706 5.959 1.194 8.686 1.484 0.999 0.126 1.102-8e-3 1.486 1.303 1.894 6.461 10.123 15.752 10.978 15.802 0.869 0.052 10.511-12.001 10.998-22.758 0.022-0.472 0.048-0.517 0.854-1.456 2.691-3.135 4.454-7.302 5.325-12.451 1.086-6.412 1.034-13.287-0.161-21.636m1.359 21.839c-0.977 5.777-3.043 10.359-6.165 13.747-0.316 11.25-10.053 23.655-12.103 23.948-1.661 0.261-10.264-9.44-12.364-17.096-2.873-0.291-5.93-0.796-9.165-1.542-3.273-0.755-6.254-1.743-8.954-2.929-4.895 3.625-19.735 8.064-22.714 4.959-2.107-2.195 0.045-17.216 5.469-25.104-0.453-2.703-0.505-5.581-0.125-8.622 0.976-7.82 3.985-15.294 9.199-22.849 6.625-9.598 14.927-10.881 21.688-7.215 4.912-2.769 11.768-3.198 17.806 3.944 8.151-0.377 15.501 3.656 17.376 16.752 1.214 8.477 1.159 15.467 0.052 22.007" fill="#0f141b"/>
    </g>
    <g transform="translate(59.475 683.87)">
     <path d="m0 0c-6.127-3.567-14.71-14.718-14.437-16.431 0.391-2.444 14.588-6.381 23.323-5.031l0.361-1.404c-8.787-1.354-24.3 2.599-24.883 6.243-0.452 2.824 9.237 14.575 14.884 17.862z" fill="#0f141b"/>
    </g>
    <g transform="translate(72.784 700.24)">
     <path d="m0 0c1.144 1.654 2.219 3.762 3.08 6.205 0.716 2.033 1.551 2.022 0.938-0.224-0.691-2.525-1.852-4.921-3.17-6.517-1.387-1.678-1.953-1.061-0.848 0.536" fill="#0f141b"/>
    </g>
    <g transform="translate(62.562 693.72)">
     <path d="M 0,0 C -1.824,0.209 -1.784,0.94 -0.045,0.937 1.774,0.934 3.466,1.25 4.955,1.919 6.638,2.677 6.98,2.053 5.356,1.071 4.309,0.438 2.479,0 0,0" fill="#0f141b"/>
    </g>
    <g transform="translate(109.3 706.84)">
     <path d="M 0,0 C -2.024,0.141 -2.081,1.032 -0.089,0.893 1.831,0.759 3.794,1.339 4.955,1.919 6.656,2.77 6.838,2.201 5.357,1.161 4.039,0.235 2.123,0 0,0" fill="#0f141b"/>
    </g>
    <g transform="translate(103.45 707.78)">
     <path d="m0 0c-3.176 0.689-6.151 2.535-7.856 4.91-1.084 1.509-0.481 1.782 0.625 0.581 2.244-2.437 4.63-3.731 7.409-4.598 2.114-0.66 2.188-1.407-0.178-0.893" fill="#0f141b"/>
    </g>
    <g transform="translate(86.729 706.05)">
     <path d="m0 0c-1.63-0.713-4.785-2.008-5.509-2.282-0.599-0.227-0.803-0.313-0.58 0.535 0.17 0.644 3.615 14.82 3.854 16.011 0.204 1.018 1.844 6.305 2.798 8.743 0.304 0.772 0.364 0.672 0.285-0.064-0.492-4.578-0.205-11.988-0.073-14.275 0.017-0.307 0.093-0.366 0.412-0.148 1.658 1.126 4.232 2.703 5.704 3.615 0.505 0.315 0.473 0.303 0.499-0.311 0.102-2.472-0.043-10.535-0.043-10.535s1.956-9.308 2.793-11.295c0.131-0.31 0.175-0.402 0.667-0.174 1.403 0.646 2.555 1.152 3.255 1.38 0.792 0.259 0.785 0.264 0.69-0.8-0.267-3.008-1.562-12.787-1.978-16.483-0.165-1.461-0.379-1.563-0.831-1.928-1.634-1.323-4.081-3.469-5.757-4.812-0.284-0.227-0.338-0.286-0.657-0.256-0.923 0.088-3.358 0.61-3.479 0.681-3.771 2.233-10.418 6.126-12.089 7.556-0.358 0.306-0.368 0.407-0.238 1.254 0.631 4.127 3.266 13.758 3.816 15.354 0.084 0.242 0.927 1.471 1.439 1.951 0.22 0.206 0.222 0.206 0.54 0.073 0.826-0.346 2.276-0.909 3.016-1.223 0.746-0.316 0.522-0.326 0.786 0.327 0.624 1.533 1.897 4.824 1.897 4.824s-0.331 1.472-0.456 1.959c-0.135 0.529-0.202 0.568-0.761 0.323" fill="#f4f3f9"/>
    </g>
    <g transform="translate(84.018 706.98)">
     <path d="m0 0s1.547 8.57 1.845 9.88c0.178-3.393 0.417-5.476 0.417-5.833 0.952 0.298 2.024 0.536 2.024 0.536 0.892 1.012 3.511 2.976 3.511 2.976-0.179-3.155 0.179-8.63 0.179-8.63s2.796-9.88 3.213-11.308c1.072-0.774 2.797-1.786 2.797-1.786l-2.082-10.892s-4.524-4.94-5.06-5.832c-1.19 1.309-9.284 8.154-10.415 9.522 0.476 1.131 3.273 8.571 4.107 9.88 1.309-1.488 2.678-3.035 3.154-3.511 0.714 1.309 2.44 5.297 2.679 6.071-0.06 1.547-1.012 10.891-1.012 11.784-1.727-0.834-5.357-2.857-5.357-2.857" fill="#fff"/>
    </g>
   </g>
  </g>
 </g>
</svg>
