<?xml version="1.0" encoding="UTF-8" standalone="no"?>
<!-- Created with Inkscape (http://www.inkscape.org/) -->

<svg
   version="1.1"
   viewBox="0 0 282.41 302.14"
   id="svg231"
   sodipodi:docname="855-2.svg"
   inkscape:version="1.3 (0e150ed, 2023-07-21)"
   xmlns:inkscape="http://www.inkscape.org/namespaces/inkscape"
   xmlns:sodipodi="http://sodipodi.sourceforge.net/DTD/sodipodi-0.dtd"
   xmlns="http://www.w3.org/2000/svg"
   xmlns:svg="http://www.w3.org/2000/svg">
  <sodipodi:namedview
     id="namedview231"
     pagecolor="#505050"
     bordercolor="#eeeeee"
     borderopacity="1"
     inkscape:showpageshadow="0"
     inkscape:pageopacity="0"
     inkscape:pagecheckerboard="0"
     inkscape:deskcolor="#d1d1d1"
     showgrid="false"
     inkscape:zoom="0.55231744"
     inkscape:cx="174.71836"
     inkscape:cy="123.1176"
     inkscape:window-width="1312"
     inkscape:window-height="431"
     inkscape:window-x="0"
     inkscape:window-y="25"
     inkscape:window-maximized="0"
     inkscape:current-layer="svg231" />
  <defs
     id="defs117">
    <clipPath
       id="clipPath5593">
      <path
         d="m0 792h612v-792h-612z"
         id="path1" />
    </clipPath>
    <clipPath
       id="clipPath5578">
      <path
         d="m0 792h612v-792h-612z"
         id="path2" />
    </clipPath>
    <clipPath
       id="clipPath5563">
      <path
         d="m0 792h612v-792h-612z"
         id="path3" />
    </clipPath>
    <clipPath
       id="clipPath5548">
      <path
         d="m0 792h612v-792h-612z"
         id="path4" />
    </clipPath>
    <clipPath
       id="clipPath5714">
      <path
         d="m0 792h612v-792h-612z"
         id="path5" />
    </clipPath>
    <clipPath
       id="clipPath5720">
      <path
         d="m0 792h612v-792h-612z"
         id="path6" />
    </clipPath>
    <clipPath
       id="clipPath5726">
      <path
         d="m0 792h612v-792h-612z"
         id="path7" />
    </clipPath>
    <clipPath
       id="clipPath5732">
      <path
         d="m0 792h612v-792h-612z"
         id="path8" />
    </clipPath>
    <clipPath
       id="clipPath5738">
      <path
         d="m0 792h612v-792h-612z"
         id="path9" />
    </clipPath>
    <clipPath
       id="clipPath5744">
      <path
         d="m0 792h612v-792h-612z"
         id="path10" />
    </clipPath>
    <clipPath
       id="clipPath5750">
      <path
         d="m0 792h612v-792h-612z"
         id="path11" />
    </clipPath>
    <clipPath
       id="clipPath5756">
      <path
         d="m0 792h612v-792h-612z"
         id="path12" />
    </clipPath>
    <clipPath
       id="clipPath5762">
      <path
         d="m0 792h612v-792h-612z"
         id="path13" />
    </clipPath>
    <clipPath
       id="clipPath5768">
      <path
         d="m0 792h612v-792h-612z"
         id="path14" />
    </clipPath>
    <clipPath
       id="clipPath5774">
      <path
         d="m0 792h612v-792h-612z"
         id="path15" />
    </clipPath>
    <clipPath
       id="clipPath5780">
      <path
         d="m0 792h612v-792h-612z"
         id="path16" />
    </clipPath>
    <clipPath
       id="clipPath5786">
      <path
         d="m0 792h612v-792h-612z"
         id="path17" />
    </clipPath>
    <clipPath
       id="clipPath5792">
      <path
         d="m0 792h612v-792h-612z"
         id="path18" />
    </clipPath>
    <clipPath
       id="clipPath5798">
      <path
         d="m0 792h612v-792h-612z"
         id="path19" />
    </clipPath>
    <clipPath
       id="clipPath5804">
      <path
         d="m0 792h612v-792h-612z"
         id="path20" />
    </clipPath>
    <clipPath
       id="clipPath5810">
      <path
         d="m0 792h612v-792h-612z"
         id="path21" />
    </clipPath>
    <clipPath
       id="clipPath5816">
      <path
         d="m0 792h612v-792h-612z"
         id="path22" />
    </clipPath>
    <clipPath
       id="clipPath5822">
      <path
         d="m0 792h612v-792h-612z"
         id="path23" />
    </clipPath>
    <clipPath
       id="clipPath5828">
      <path
         d="m0 792h612v-792h-612z"
         id="path24" />
    </clipPath>
    <clipPath
       id="clipPath5834">
      <path
         d="m0 792h612v-792h-612z"
         id="path25" />
    </clipPath>
    <clipPath
       id="clipPath5840">
      <path
         d="m0 792h612v-792h-612z"
         id="path26" />
    </clipPath>
    <clipPath
       id="clipPath5846">
      <path
         d="m0 792h612v-792h-612z"
         id="path27" />
    </clipPath>
    <clipPath
       id="clipPath5852">
      <path
         d="m0 792h612v-792h-612z"
         id="path28" />
    </clipPath>
    <clipPath
       id="clipPath5858">
      <path
         d="m0 792h612v-792h-612z"
         id="path29" />
    </clipPath>
    <clipPath
       id="clipPath5864">
      <path
         d="m0 792h612v-792h-612z"
         id="path30" />
    </clipPath>
    <clipPath
       id="clipPath5870">
      <path
         d="m0 792h612v-792h-612z"
         id="path31" />
    </clipPath>
    <clipPath
       id="clipPath5876">
      <path
         d="m0 792h612v-792h-612z"
         id="path32" />
    </clipPath>
    <clipPath
       id="clipPath5882">
      <path
         d="m0 792h612v-792h-612z"
         id="path33" />
    </clipPath>
    <clipPath
       id="clipPath5888">
      <path
         d="m0 792h612v-792h-612z"
         id="path34" />
    </clipPath>
    <clipPath
       id="clipPath5894">
      <path
         d="m0 792h612v-792h-612z"
         id="path35" />
    </clipPath>
    <clipPath
       id="clipPath5900">
      <path
         d="m0 792h612v-792h-612z"
         id="path36" />
    </clipPath>
    <clipPath
       id="clipPath5906">
      <path
         d="m0 792h612v-792h-612z"
         id="path37" />
    </clipPath>
    <clipPath
       id="clipPath5912">
      <path
         d="m0 792h612v-792h-612z"
         id="path38" />
    </clipPath>
    <clipPath
       id="clipPath5918">
      <path
         d="m0 792h612v-792h-612z"
         id="path39" />
    </clipPath>
    <clipPath
       id="clipPath5924">
      <path
         d="m0 792h612v-792h-612z"
         id="path40" />
    </clipPath>
    <clipPath
       id="clipPath5930">
      <path
         d="m0 792h612v-792h-612z"
         id="path41" />
    </clipPath>
    <clipPath
       id="clipPath5936">
      <path
         d="m0 792h612v-792h-612z"
         id="path42" />
    </clipPath>
    <clipPath
       id="clipPath5942">
      <path
         d="m0 792h612v-792h-612z"
         id="path43" />
    </clipPath>
    <clipPath
       id="clipPath5948">
      <path
         d="m0 792h612v-792h-612z"
         id="path44" />
    </clipPath>
    <clipPath
       id="clipPath5954">
      <path
         d="m0 792h612v-792h-612z"
         id="path45" />
    </clipPath>
    <clipPath
       id="clipPath5960">
      <path
         d="m0 792h612v-792h-612z"
         id="path46" />
    </clipPath>
    <clipPath
       id="clipPath5966">
      <path
         d="m0 792h612v-792h-612z"
         id="path47" />
    </clipPath>
    <clipPath
       id="clipPath5972">
      <path
         d="m0 792h612v-792h-612z"
         id="path48" />
    </clipPath>
    <clipPath
       id="clipPath5978">
      <path
         d="m0 792h612v-792h-612z"
         id="path49" />
    </clipPath>
    <clipPath
       id="clipPath5984">
      <path
         d="m0 792h612v-792h-612z"
         id="path50" />
    </clipPath>
    <clipPath
       id="clipPath5990">
      <path
         d="m0 792h612v-792h-612z"
         id="path51" />
    </clipPath>
    <clipPath
       id="clipPath5996">
      <path
         d="m0 792h612v-792h-612z"
         id="path52" />
    </clipPath>
    <clipPath
       id="clipPath6002">
      <path
         d="m0 792h612v-792h-612z"
         id="path53" />
    </clipPath>
    <clipPath
       id="clipPath6008">
      <path
         d="m0 792h612v-792h-612z"
         id="path54" />
    </clipPath>
    <clipPath
       id="clipPath6014">
      <path
         d="m0 792h612v-792h-612z"
         id="path55" />
    </clipPath>
    <clipPath
       id="clipPath6020">
      <path
         d="m0 792h612v-792h-612z"
         id="path56" />
    </clipPath>
    <clipPath
       id="clipPath6026">
      <path
         d="m0 792h612v-792h-612z"
         id="path57" />
    </clipPath>
    <clipPath
       id="clipPath6032">
      <path
         d="m0 792h612v-792h-612z"
         id="path58" />
    </clipPath>
    <clipPath
       id="clipPath6038">
      <path
         d="m0 792h612v-792h-612z"
         id="path59" />
    </clipPath>
    <clipPath
       id="clipPath6044">
      <path
         d="m0 792h612v-792h-612z"
         id="path60" />
    </clipPath>
    <clipPath
       id="clipPath6050">
      <path
         d="m0 792h612v-792h-612z"
         id="path61" />
    </clipPath>
    <clipPath
       id="clipPath6056">
      <path
         d="m0 792h612v-792h-612z"
         id="path62" />
    </clipPath>
    <clipPath
       id="clipPath6062">
      <path
         d="m0 792h612v-792h-612z"
         id="path63" />
    </clipPath>
    <clipPath
       id="clipPath6068">
      <path
         d="m0 792h612v-792h-612z"
         id="path64" />
    </clipPath>
    <clipPath
       id="clipPath6074">
      <path
         d="m0 792h612v-792h-612z"
         id="path65" />
    </clipPath>
    <clipPath
       id="clipPath6080">
      <path
         d="m0 792h612v-792h-612z"
         id="path66" />
    </clipPath>
    <clipPath
       id="clipPath6086">
      <path
         d="m0 792h612v-792h-612z"
         id="path67" />
    </clipPath>
    <clipPath
       id="clipPath6092">
      <path
         d="m0 792h612v-792h-612z"
         id="path68" />
    </clipPath>
    <clipPath
       id="clipPath6098">
      <path
         d="m0 792h612v-792h-612z"
         id="path69" />
    </clipPath>
    <clipPath
       id="clipPath6104">
      <path
         d="m0 792h612v-792h-612z"
         id="path70" />
    </clipPath>
    <clipPath
       id="clipPath6110">
      <path
         d="m0 792h612v-792h-612z"
         id="path71" />
    </clipPath>
    <clipPath
       id="clipPath6116">
      <path
         d="m0 792h612v-792h-612z"
         id="path72" />
    </clipPath>
    <clipPath
       id="clipPath6122">
      <path
         d="m0 792h612v-792h-612z"
         id="path73" />
    </clipPath>
    <clipPath
       id="clipPath6128">
      <path
         d="m0 792h612v-792h-612z"
         id="path74" />
    </clipPath>
    <clipPath
       id="clipPath6134">
      <path
         d="m0 792h612v-792h-612z"
         id="path75" />
    </clipPath>
    <clipPath
       id="clipPath6140">
      <path
         d="m0 792h612v-792h-612z"
         id="path76" />
    </clipPath>
    <clipPath
       id="clipPath6146">
      <path
         d="m0 792h612v-792h-612z"
         id="path77" />
    </clipPath>
    <clipPath
       id="clipPath6152">
      <path
         d="m0 792h612v-792h-612z"
         id="path78" />
    </clipPath>
    <clipPath
       id="clipPath6158">
      <path
         d="m0 792h612v-792h-612z"
         id="path79" />
    </clipPath>
    <clipPath
       id="clipPath6164">
      <path
         d="m0 792h612v-792h-612z"
         id="path80" />
    </clipPath>
    <clipPath
       id="clipPath6170">
      <path
         d="m0 792h612v-792h-612z"
         id="path81" />
    </clipPath>
    <clipPath
       id="clipPath6176">
      <path
         d="m0 792h612v-792h-612z"
         id="path82" />
    </clipPath>
    <clipPath
       id="clipPath6182">
      <path
         d="m0 792h612v-792h-612z"
         id="path83" />
    </clipPath>
    <clipPath
       id="clipPath6188">
      <path
         d="m0 792h612v-792h-612z"
         id="path84" />
    </clipPath>
    <clipPath
       id="clipPath6194">
      <path
         d="m0 792h612v-792h-612z"
         id="path85" />
    </clipPath>
    <clipPath
       id="clipPath6200">
      <path
         d="m0 792h612v-792h-612z"
         id="path86" />
    </clipPath>
    <clipPath
       id="clipPath6206">
      <path
         d="m0 792h612v-792h-612z"
         id="path87" />
    </clipPath>
    <clipPath
       id="clipPath6212">
      <path
         d="m0 792h612v-792h-612z"
         id="path88" />
    </clipPath>
    <clipPath
       id="clipPath6218">
      <path
         d="m0 792h612v-792h-612z"
         id="path89" />
    </clipPath>
    <clipPath
       id="clipPath6224">
      <path
         d="m0 792h612v-792h-612z"
         id="path90" />
    </clipPath>
    <clipPath
       id="clipPath6230">
      <path
         d="m0 792h612v-792h-612z"
         id="path91" />
    </clipPath>
    <clipPath
       id="clipPath6236">
      <path
         d="m0 792h612v-792h-612z"
         id="path92" />
    </clipPath>
    <clipPath
       id="clipPath6242">
      <path
         d="m0 792h612v-792h-612z"
         id="path93" />
    </clipPath>
    <clipPath
       id="clipPath6248">
      <path
         d="m0 792h612v-792h-612z"
         id="path94" />
    </clipPath>
    <clipPath
       id="clipPath6254">
      <path
         d="m0 792h612v-792h-612z"
         id="path95" />
    </clipPath>
    <clipPath
       id="clipPath6260">
      <path
         d="m0 792h612v-792h-612z"
         id="path96" />
    </clipPath>
    <clipPath
       id="clipPath6266">
      <path
         d="m0 792h612v-792h-612z"
         id="path97" />
    </clipPath>
    <clipPath
       id="clipPath6272">
      <path
         d="m0 792h612v-792h-612z"
         id="path98" />
    </clipPath>
    <clipPath
       id="clipPath6278">
      <path
         d="m0 792h612v-792h-612z"
         id="path99" />
    </clipPath>
    <clipPath
       id="clipPath6284">
      <path
         d="m0 792h612v-792h-612z"
         id="path100" />
    </clipPath>
    <clipPath
       id="clipPath6290">
      <path
         d="m0 792h612v-792h-612z"
         id="path101" />
    </clipPath>
    <clipPath
       id="clipPath6296">
      <path
         d="m0 792h612v-792h-612z"
         id="path102" />
    </clipPath>
    <clipPath
       id="clipPath6302">
      <path
         d="m0 792h612v-792h-612z"
         id="path103" />
    </clipPath>
    <clipPath
       id="clipPath6308">
      <path
         d="m0 792h612v-792h-612z"
         id="path104" />
    </clipPath>
    <clipPath
       id="clipPath6314">
      <path
         d="m0 792h612v-792h-612z"
         id="path105" />
    </clipPath>
    <clipPath
       id="clipPath6320">
      <path
         d="m0 792h612v-792h-612z"
         id="path106" />
    </clipPath>
    <clipPath
       id="clipPath6326">
      <path
         d="m0 792h612v-792h-612z"
         id="path107" />
    </clipPath>
    <clipPath
       id="clipPath6332">
      <path
         d="m0 792h612v-792h-612z"
         id="path108" />
    </clipPath>
    <clipPath
       id="clipPath6338">
      <path
         d="m0 792h612v-792h-612z"
         id="path109" />
    </clipPath>
    <clipPath
       id="clipPath6344">
      <path
         d="m0 792h612v-792h-612z"
         id="path110" />
    </clipPath>
    <linearGradient
       id="linearGradient2434"
       x2="1"
       gradientTransform="matrix(-0.26146,12.234,12.234,0.26146,447.16,528.05)"
       gradientUnits="userSpaceOnUse">
      <stop
         stop-color="#fad7b5"
         offset="0"
         id="stop110" />
      <stop
         stop-color="#fad7b5"
         offset=".1"
         id="stop111" />
      <stop
         stop-color="#7b59a2"
         offset=".9"
         id="stop112" />
      <stop
         stop-color="#7b59a2"
         offset="1"
         id="stop113" />
    </linearGradient>
    <clipPath
       id="clipPath6350">
      <path
         d="m0 792h612v-792h-612z"
         id="path113" />
    </clipPath>
    <clipPath
       id="clipPath6356">
      <path
         d="m0 792h612v-792h-612z"
         id="path114" />
    </clipPath>
    <linearGradient
       id="linearGradient2398"
       x2="1"
       gradientTransform="matrix(-1.5198,24.765,24.765,1.5198,517.62,534.75)"
       gradientUnits="userSpaceOnUse">
      <stop
         stop-color="#fad7b5"
         offset="0"
         id="stop114" />
      <stop
         stop-color="#fad7b5"
         offset=".1"
         id="stop115" />
      <stop
         stop-color="#7b59a2"
         offset=".9"
         id="stop116" />
      <stop
         stop-color="#7b59a2"
         offset="1"
         id="stop117" />
    </linearGradient>
    <clipPath
       id="clipPath6362">
      <path
         d="m0 792h612v-792h-612z"
         id="path117" />
    </clipPath>
  </defs>
  <path
     transform="matrix(1.6262,0,0,-1.6262,-650.976,1085.57)"
     d="m 543.95,547.73 c -2.398,9.733 -7.931,16.871 -17.115,24.383 -1.909,1.562 -2.101,3.055 -1.068,4.063 1.644,1.605 0.693,4.691 -1.795,5.175 -9.179,1.787 -22.619,1.886 -36.785,-0.651 -13.453,-2.41 -26.996,-6.458 -35.592,-11.629 -3.245,-1.953 -2.568,-4.858 -1.019,-5.788 1.42,-0.853 1.884,-2.633 0.399,-4.624 -8.313,-11.143 -11.416,-22.375 -8.803,-33.719 3.111,-13.507 14.583,-24.547 30.376,-25.766 0.006,0.004 0.012,0.01 0.018,0.015 4.851,3.667 15.648,7.297 27.116,9.218 9.589,1.606 19.628,2.043 26.984,0.403 0.025,-0.006 0.053,-0.016 0.078,-0.022 12.184,5.196 22.179,18.759 17.206,38.942"
     clip-path="url(#clipPath5548)"
     fill="#ffffff"
     id="path118" />
  <path
     transform="matrix(1.6262,0,0,-1.6262,-650.976,1085.57)"
     d="m 458.01,502.36 c 3.145,0.419 3.042,1.641 -0.417,5.084 -6.514,6.483 -10.831,15.088 -12.233,24.72 -0.52,3.567 -3.06,6.179 -4.887,5.858 -1.262,-0.222 -3.171,0.456 -4.517,2.023 -6.757,7.87 -18.48,13.826 -23.484,13.034 -4.49,-0.711 -9.759,-4.584 -11.23,-7.609 -0.788,-1.619 -0.397,-2.512 1.383,-2.443 10.116,0.391 24.155,-9.934 24.395,-18.465 0.389,-13.8 17.064,-24.056 30.99,-22.202"
     clip-path="url(#clipPath5563)"
     fill="#ffffff"
     id="path119" />
  <path
     transform="matrix(1.6262,0,0,-1.6262,-650.976,1085.57)"
     d="m 441.68,537.98 c 1.048,6.93 4.185,13.821 9.301,20.679 0.839,1.124 1.055,2.18 0.829,3.041 17.926,10.558 55.504,16.962 73.475,12.422 0.212,-0.632 0.705,-1.312 1.556,-2.009 9.184,-7.512 14.717,-14.651 17.115,-24.384 0.554,-2.246 0.912,-4.406 1.112,-6.486 -1.932,0.355 -3.57,-0.863 -4.106,-2.535 -1.566,0.48 -3.279,0.886 -5.117,1.22 0.412,0.735 0.767,1.435 1.029,2.058 -4.074,7.019 -8.947,15.138 -13.102,19.696 -3.219,0.431 -6.191,0.664 -9.386,0.616 -3.11,-2.42 -8.333,-6.572 -11.716,-9.161 0.53,-1.297 1.229,-2.866 1.915,-4.015 -1.594,-3.284 -2.944,-6.321 -4.078,-9.402 -7.457,-0.972 -15.096,-2.431 -22.452,-4.322 -1.935,1.391 -5.197,1.961 -8.938,1.033 -4.811,-1.194 -7.425,-3.879 -7.805,-6.32 -4.913,-1.89 -9.46,-3.99 -13.434,-6.28 0.657,3.322 1.773,7.709 2.539,10.67 -1.109,1.912 -2.967,5.461 -3.782,7.17 -1.3,-1.189 -3.286,-2.773 -4.314,-3.948 z"
     clip-path="url(#clipPath5578)"
     fill="#bbe1e8"
     id="path120" />
  <path
     transform="matrix(1.6262,0,0,-1.6262,-650.976,1085.57)"
     d="m 525.28,574.12 c -17.971,4.54 -55.549,-1.865 -73.474,-12.422 0.225,-0.861 0.009,-1.918 -0.829,-3.042 -0.301,-0.403 -0.582,-0.807 -0.869,-1.21 3.847,0.5 8.212,3.935 9.677,7.194 6.633,-3.494 23.041,0.586 28.643,8.599 6.497,-5.89 25.361,-5.674 28.667,1.722 4.109,-4.408 9.279,-6.435 12.089,-4.842 -0.758,0.662 -1.533,1.325 -2.347,1.991 -0.852,0.697 -1.345,1.378 -1.557,2.01"
     clip-path="url(#clipPath5593)"
     fill="#64bfaa"
     id="path121" />
  <path
     transform="matrix(1.6262,0,0,-1.6262,-650.976,1085.57)"
     d="m 502.67,553.14 c 0.53,-1.297 1.228,-2.866 1.914,-4.015 -1.908,-3.931 -3.485,-7.503 -4.735,-11.227 1.355,-1.515 2.682,-2.702 4.422,-4.179 7.593,0.819 17.855,1.08 24.773,-0.115 1.927,2.071 4.598,5.602 5.734,8.107 -2.47,4.763 -8.101,14.109 -11.327,18.014 -2.993,0.463 -7.494,0.793 -11.128,0.963 -3.042,-2.388 -6.939,-5.471 -9.653,-7.548"
     clip-path="url(#clipPath6362)"
     fill="url(#linearGradient2398)"
     id="path122"
     style="fill:url(#linearGradient2398)" />
  <path
     transform="matrix(1.6262,0,0,-1.6262,-650.976,1085.57)"
     d="m 536.87,541.99 c -4.075,7.02 -8.947,15.138 -13.102,19.696 -3.219,0.432 -6.191,0.665 -9.386,0.617 -0.615,-0.479 -1.314,-1.026 -2.063,-1.614 3.634,-0.17 8.136,-0.5 11.128,-0.963 3.225,-3.905 8.857,-13.25 11.326,-18.014 -1.135,-2.505 -3.805,-6.036 -5.734,-8.106 0.784,-0.136 1.535,-0.285 2.224,-0.459 1.877,2.385 4.519,6.264 5.607,8.843"
     clip-path="url(#clipPath6356)"
     fill="#dbdcdc"
     id="path123" />
  <path
     transform="matrix(1.6262,0,0,-1.6262,-650.976,1085.57)"
     d="m 443.6,536.31 c 0.84,-1.045 1.521,-2.485 1.762,-4.142 0.477,-3.274 1.298,-6.426 2.42,-9.42 0.391,3.405 1.627,7.953 2.636,11.756 -1.04,1.831 -2.208,3.997 -3.146,5.803 -1.321,-1.294 -2.521,-2.599 -3.672,-3.997"
     clip-path="url(#clipPath6350)"
     fill="url(#linearGradient2434)"
     id="path124"
     style="fill:url(#linearGradient2434)" />
  <path
     transform="matrix(1.6262,0,0,-1.6262,-650.976,1085.57)"
     d="m 446.55,541.7 c -1.54,-1.366 -3.048,-2.845 -4.345,-4.116 0.483,-0.298 0.957,-0.739 1.391,-1.28 1.151,1.398 2.351,2.703 3.671,3.997 -0.258,0.497 -0.502,0.972 -0.717,1.399"
     clip-path="url(#clipPath6344)"
     fill="#dbdcdc"
     id="path125" />
  <path
     transform="matrix(1.6262,0,0,-1.6262,-650.976,1085.57)"
     d="m 466.34,489.39 c -0.769,-3.055 0.104,-4.345 2.892,-5.115 8.442,-2.332 22.513,-2.034 35.654,0.26 16.435,2.869 29.403,8.065 31.921,12.549 0.681,1.213 0.722,2.889 -0.434,4.485 -2.163,2.985 -6.741,6.576 -9.707,7.237 -7.356,1.641 -17.395,1.203 -26.984,-0.403 -11.468,-1.921 -22.265,-5.55 -27.116,-9.218 -2.404,-1.817 -5.339,-6.274 -6.226,-9.795"
     clip-path="url(#clipPath6338)"
     fill="#ffffff"
     id="path126" />
  <path
     transform="matrix(1.6262,0,0,-1.6262,-650.976,1085.57)"
     d="m 469.24,484.28 c 8.442,-2.332 22.513,-2.034 35.654,0.26 16.436,2.869 29.403,8.065 31.921,12.549 0.681,1.213 0.723,2.889 -0.434,4.485 -0.322,0.444 -0.703,0.902 -1.118,1.362 -7.056,3.176 -19.444,3.057 -34.513,0.584 -13.969,-2.292 -27.761,-6.792 -33.862,-12.471 -0.219,-0.564 -0.405,-1.12 -0.54,-1.654 -0.769,-3.055 0.105,-4.345 2.892,-5.115"
     clip-path="url(#clipPath6332)"
     fill="#ffe792"
     id="path127" />
  <path
     transform="matrix(1.6262,0,0,-1.6262,-650.976,1085.57)"
     d="m 542.54,552.23 c -1.722,-3.056 -3.89,-5.985 -6.426,-8.762 0.261,-0.521 0.509,-1.042 0.755,-1.481 -0.312,-0.641 -0.678,-1.329 -1.075,-2.035 l 0.046,-0.022 c 1.838,-0.335 3.551,-0.74 5.117,-1.221 0.536,1.673 2.174,2.89 4.106,2.536 -0.391,4.059 -1.205,7.526 -2.523,10.985"
     clip-path="url(#clipPath6326)"
     fill="#a2c3c9"
     id="path128" />
  <path
     transform="matrix(1.6262,0,0,-1.6262,-650.976,1085.57)"
     d="m 537.95,560.7 c -0.648,-0.042 -1.331,0.015 -2.028,0.211 -1.201,0.338 -5.138,3.975 -5.81,5.383 -0.577,1.21 -0.915,2.512 -0.955,3.846 -0.234,0.205 -0.456,0.41 -0.696,0.615 0.516,-8.672 6.437,-15.971 12.471,-14.903 -0.858,1.677 -1.861,3.282 -2.982,4.848"
     clip-path="url(#clipPath6320)"
     fill="#a2c3c9"
     id="path129" />
  <path
     transform="matrix(1.6262,0,0,-1.6262,-650.976,1085.57)"
     d="m 536.6,571.73 c -0.45,-0.934 -0.464,-1.771 0.92,-2.201 3.801,-1.181 5.085,-4.988 3.955,-6.888 -0.968,-1.625 -3.208,-2.389 -5.546,-1.73 -1.201,0.338 -5.139,3.975 -5.81,5.383 -1.539,3.226 -1.374,7.103 1.586,10.52 8.243,9.516 24.879,11.224 34.901,1.105 9.493,-9.584 8.161,-23.405 -0.2,-30.374 -4.892,-4.078 -8.493,-7.102 -12.51,-11.114 -3.231,-3.226 -4.363,-6.08 -5.902,-11.517 -0.82,-2.9 -3.303,-4.04 -4.964,-3.751 -1.644,0.287 -2.132,1.513 -1.609,3.614 0.789,3.164 1.544,5.82 2.361,8.508 0.609,2.001 2.624,5.172 4.828,7.353 4.426,4.379 7.499,7.045 12.117,11.089 7.847,6.874 5.954,16.375 1.112,21.464 -8.111,8.522 -21.836,5.608 -25.239,-1.461"
     clip-path="url(#clipPath6314)"
     fill="#ffe792"
     id="path130" />
  <path
     transform="matrix(1.6262,0,0,-1.6262,-650.976,1085.57)"
     d="m 466.43,486.4 c 3.755,5.841 16.61,10.188 35.553,13.866 14.472,2.81 29.157,1.893 35.322,-0.432 1.287,-6.062 -13.627,-12.409 -33.165,-15.616 -15.264,-2.506 -37.005,-2.078 -37.71,2.182"
     clip-path="url(#clipPath6308)"
     fill="#dbc77f"
     id="path131" />
  <path
     transform="matrix(1.6262,0,0,-1.6262,-650.976,1085.57)"
     d="m 531.03,499.48 c -5.282,1.053 -16.569,0.821 -29.96,-1.576 -13.132,-2.351 -23.772,-6.105 -28.565,-8.796 0.046,-0.543 0.706,-0.919 2.06,-0.996 6.933,-0.398 16.057,-0.041 29.086,2.205 16.998,2.93 26.374,6.613 27.379,9.163"
     clip-path="url(#clipPath6302)"
     fill="#dbdcdc"
     id="path132" />
  <path
     transform="matrix(1.6262,0,0,-1.6262,-650.976,1085.57)"
     d="m 457.59,507.45 c -2.353,2.341 -4.414,4.963 -6.159,7.807 -7.443,-0.458 -13.437,4.331 -16.981,11.923 -8.785,18.824 -25.33,21.557 -33.311,18.059 -0.63,-1.463 -0.205,-2.272 1.483,-2.206 10.116,0.391 24.155,-9.934 24.395,-18.465 0.389,-13.8 17.064,-24.056 30.99,-22.202 3.145,0.419 3.042,1.641 -0.417,5.084"
     clip-path="url(#clipPath6290)"
     fill="#dbdcdc"
     id="path134" />
  <path
     transform="matrix(1.6262,0,0,-1.6262,-650.976,1085.57)"
     d="m 541.49,522.11 c -3.417,-6.285 -8.822,-10.792 -14.747,-13.319 -0.025,0.006 -0.053,0.016 -0.078,0.022 -7.356,1.641 -17.395,1.203 -26.984,-0.403 -11.468,-1.921 -22.265,-5.55 -27.116,-9.218 l -0.018,-0.015 c -4.761,0.368 -9.129,1.629 -12.993,3.581 1.391,0.648 0.759,1.979 -1.968,4.693 -2.558,2.545 -4.771,5.422 -6.607,8.555 23.534,-4.217 54.112,3.564 74.389,18.058 1.97,-0.24 3.786,-0.531 5.892,-0.917 1.565,1.971 3.235,4.501 4.532,6.807 l 0.046,-0.022 c 1.837,-0.334 3.551,-0.74 5.117,-1.22 0.536,1.672 2.174,2.89 4.106,2.535 0.166,-1.727 0.217,-3.396 0.162,-5.006 -0.995,-1.272 -1.498,-2.275 -1.937,-3.976 -0.439,-1.7 -1.239,-4.704 -1.683,-6.376 -0.444,-1.672 -0.705,-3.155 -0.113,-3.779"
     clip-path="url(#clipPath6284)"
     fill="#dbdcdc"
     id="path135" />
  <path
     transform="matrix(1.6262,0,0,-1.6262,-650.976,1085.57)"
     d="m 505.38,575.46 c -18.438,-0.919 -40.904,-6.298 -53.567,-13.756 0.226,-0.861 0.01,-1.918 -0.829,-3.042 -0.301,-0.403 -0.582,-0.807 -0.869,-1.21 3.848,0.499 8.212,3.935 9.677,7.194 6.633,-3.494 23.041,0.586 28.643,8.598 5.46,-4.949 19.649,-5.585 26.005,-1.273 -1.592,0.05 -3.165,0.083 -4.665,0.097 -2.725,0.025 -4.256,1.417 -4.395,3.392"
     clip-path="url(#clipPath6278)"
     fill="#64bfaa"
     id="path136" />
  <path
     transform="matrix(1.6262,0,0,-1.6262,-650.976,1085.57)"
     d="m 526.67,508.81 c -7.356,1.641 -17.394,1.203 -26.983,-0.403 -11.469,-1.921 -22.265,-5.55 -27.116,-9.218 -0.997,-0.754 -2.084,-1.965 -3.08,-3.371 18.076,10.187 44.006,13.787 61.201,11.05 -1.427,0.958 -2.85,1.681 -4.022,1.942"
     clip-path="url(#clipPath6272)"
     fill="#dbdcdc"
     id="path137" />
  <path
     transform="matrix(1.6262,0,0,-1.6262,-650.976,1085.57)"
     d="m 529.47,568.64 c 1.752,-3.591 4.695,-5.349 6.398,-4.236 1.224,0.8 1.47,2.451 -0.192,3.865 -3.34,2.841 0.869,11.125 10.849,12.354 10.215,1.258 18.198,-4.324 19.835,-14.465 -3.03,8.922 -12.595,13.43 -19.505,12.264 -4.97,-0.839 -9.209,-3.807 -10.255,-6.693 -0.404,-1.113 -0.139,-1.863 1.414,-2.387 2.819,-0.951 4.85,-4.48 3.461,-6.701 -1.458,-2.33 -4.756,-2.328 -6.798,-1.015 -3.245,2.086 -4.798,4.516 -5.207,7.014"
     clip-path="url(#clipPath6266)"
     fill="#dbc77f"
     id="path138" />
  <path
     transform="matrix(1.6262,0,0,-1.6262,-650.976,1085.57)"
     d="m 572.15,566.38 c 0.367,-7.223 -1.806,-12.148 -8.244,-17.419 -5.302,-4.342 -13.128,-11.208 -14.595,-13.945 -1.316,-2.456 -5.1,-2.225 -5.235,-0.699 -1.104,-3.294 -2.218,-7.032 -2.661,-9.545 -0.444,-2.514 0.067,-4.077 2.383,-3.817 2.316,0.259 3.843,2.151 4.516,4.867 1.315,5.299 2.785,8.146 6.423,11.491 2.541,2.336 7.767,7.033 11.663,10.227 5.04,4.132 8.223,11.659 5.75,18.84"
     clip-path="url(#clipPath6260)"
     fill="#dbc77f"
     id="path139" />
  <path
     transform="matrix(1.6262,0,0,-1.6262,-650.976,1085.57)"
     d="m 531.51,576.22 c -0.054,-1.508 1.506,-1.919 2.48,-0.529 3.385,4.828 14.451,8.482 21.024,5.653 1.77,-0.761 2.968,0.817 1.426,2.262 -9.817,2.993 -20.24,-0.695 -24.93,-7.386"
     clip-path="url(#clipPath6254)"
     fill="#fffded"
     id="path140" />
  <path
     transform="matrix(1.6262,0,0,-1.6262,-650.976,1085.57)"
     d="m 514.75,560.45 c -2.229,-1.869 -6.255,-5.744 -8.317,-7.936 -0.512,-0.545 -0.495,-1.197 -0.166,-1.815 0.085,-0.159 0.174,-0.32 0.267,-0.484 0.415,-0.732 0.513,-1.187 0.168,-1.92 -1.519,-3.231 -3.932,-8.509 -5.36,-11.883 -0.522,0.513 -1.005,1.021 -1.494,1.48 1.268,3.394 3.227,8.238 4.735,11.227 -0.667,1.427 -1.272,2.567 -1.915,4.015 3.311,2.719 6.804,5.453 9.654,7.548 0.784,-0.034 1.61,-0.11 2.428,-0.232"
     clip-path="url(#clipPath6248)"
     fill="#020707"
     opacity="0.1719"
     id="path141" />
  <path
     transform="matrix(1.6262,0,0,-1.6262,-650.976,1085.57)"
     d="m 447.94,539.13 c -0.599,-0.608 -1.141,-1.205 -1.758,-1.905 -0.38,-0.432 -0.42,-0.979 -0.05,-1.779 1.257,-2.711 1.016,-5.681 2.026,-9.859 l -0.683,-2.033 c -0.632,1.469 -1.791,5.695 -2.085,8.077 -0.294,2.382 -0.91,3.752 -1.79,4.678 1.043,1.347 2.322,2.766 3.671,3.997 z"
     clip-path="url(#clipPath6242)"
     fill="#020606"
     opacity="0.1719"
     id="path142" />
  <path
     transform="matrix(1.6262,0,0,-1.6262,-650.976,1085.57)"
     d="m 500.51,582.33 c 0.653,-1.324 0.171,-3.343 -0.254,-4.329 -1.474,-3.42 0.431,-6.359 5.574,-5.921 7.56,0.646 15.975,0.295 22.138,-0.866 -2.451,1.473 -3.438,3.5 -2.196,4.958 1.242,1.458 1.457,4.51 -1.795,5.175 -6.829,1.397 -16.049,1.459 -23.467,0.983"
     clip-path="url(#clipPath6236)"
     fill="#020707"
     opacity="0.16821"
     id="path143" />
  <path
     transform="matrix(1.6262,0,0,-1.6262,-650.976,1085.57)"
     d="m 453.13,533.13 c -0.959,0.13 -1.928,0.409 -2.889,0.834 l -0.227,-0.905 c 0.686,-0.294 1.232,-0.436 1.988,-0.646 z"
     clip-path="url(#clipPath6230)"
     id="path144"
     style="fill:#64bfaa" />
  <path
     transform="matrix(1.6262,0,0,-1.6262,-650.976,1085.57)"
     d="m 442.12,540.95 c 1.721,2.428 2.571,4.769 2.559,7.357 l 0.95,1.651 c 0.761,-3.226 -0.863,-8.189 -3.776,-10.892 z"
     clip-path="url(#clipPath6224)"
     id="path145"
     style="fill:#64bfaa" />
  <path
     transform="matrix(1.6262,0,0,-1.6262,-650.976,1085.57)"
     d="m 537.56,560.55 c 0.522,-2.595 2.248,-5.717 4.698,-8.409 l 0.666,-2.342 c -2.913,2.487 -5.95,7.273 -6.526,10.889 z"
     clip-path="url(#clipPath6218)"
     id="path146"
     style="fill:#64bfaa" />
  <path
     transform="matrix(1.6262,0,0,-1.6262,-650.976,1085.57)"
     d="m 537.56,560.55 -1.162,0.138 c 0.234,-1.469 0.878,-3.131 1.751,-4.753 0.465,-0.109 0.937,-0.166 1.411,-0.18 -0.997,1.652 -1.701,3.31 -2,4.795"
     clip-path="url(#clipPath6212)"
     fill="#55a694"
     id="path147" />
  <path
     transform="matrix(1.6262,0,0,-1.6262,-650.976,1085.57)"
     d="m 542.92,549.8 -0.591,2.08 c -0.186,-0.322 -0.386,-0.641 -0.582,-0.96 0.389,-0.409 0.782,-0.786 1.173,-1.12"
     clip-path="url(#clipPath6206)"
     fill="#55a694"
     id="path148" />
  <path
     transform="matrix(1.6262,0,0,-1.6262,-650.976,1085.57)"
     d="m 490.85,542.03 c -5.04,-0.421 -9.543,3.642 -9.981,11.25 -0.319,5.573 3.112,11.463 8.861,12.19 4.586,0.576 9.431,-3.632 10.023,-10.832 0.792,-9.645 -7.102,-14.669 -18.879,-14.823 -13.857,-0.179 -16.635,5.864 -15.627,13.414 0.551,4.131 2.928,6.868 4.474,6.62 1.735,-0.277 2.302,-4.362 1.708,-8.079 -1.951,-12.209 -13.046,-20.635 -19.489,-18.414 -3.012,1.038 -4.325,6.71 -3.339,10.748 0.832,3.406 3.249,5.497 4.966,5.124 1.351,-0.296 2.312,-2.099 2.131,-5.26 -0.149,-2.606 -1.596,-4.203 -2.826,-4.327 -1.131,-0.123 -1.671,0.552 -1.959,2.013 -0.269,1.371 0.627,1.549 0.899,0.18 0.134,-0.682 0.514,-1.055 0.919,-1.011 0.704,0.102 1.634,1.201 1.754,3.308 0.123,2.159 -0.419,3.537 -1.228,3.714 -0.998,0.219 -2.854,-1.337 -3.517,-4.05 -0.99,-4.054 0.23,-8.608 2.586,-9.42 5.609,-1.933 15.96,5.984 17.821,17.634 0.685,4.284 -0.151,6.542 -0.598,6.615 -0.711,0.116 -2.604,-2.262 -3.039,-5.527 -1.2,-8.991 4.142,-12.225 14.332,-12.093 12.659,0.167 18.135,5.682 17.487,13.563 -0.551,6.71 -4.867,9.97 -8.42,9.524 -5.229,-0.654 -8.003,-6.268 -7.747,-10.724 0.409,-7.114 4.656,-11.22 10.971,-10.243 z"
     clip-path="url(#clipPath6200)"
     id="path149"
     style="fill:#64bfaa" />
  <path
     transform="matrix(1.6262,0,0,-1.6262,-650.976,1085.57)"
     d="m 449.73,532.01 c 3.791,0.964 7.454,4.905 8.56,11.872 1.031,6.502 -0.932,10.91 -2.728,11.248 -2.967,0.554 -8.673,-5.869 -8.962,-13.752 l -1.281,-0.646 c -0.257,8.213 6.186,16.665 10.542,15.845 2.636,-0.495 4.884,-5.193 3.645,-12.996 -1.271,-8.008 -6.027,-11.864 -9.97,-12.734 z"
     clip-path="url(#clipPath6194)"
     id="path150"
     style="fill:#64bfaa" />
  <path
     transform="matrix(1.6262,0,0,-1.6262,-650.976,1085.57)"
     d="m 501.8,542.96 c -9.72,-2.024 -16.568,0.782 -16.893,8.779 -0.202,4.945 2.02,7.759 4.435,8.1 2.617,0.359 4.686,-1.634 5.284,-5.034 0.767,-4.367 -1.217,-6.101 -2.806,-6.205 -1.664,-0.118 -2.557,1.277 -2.64,2.842 -0.08,1.507 0.803,1.614 1.041,0.124 0.147,-0.919 0.623,-1.651 1.431,-1.593 1.142,0.078 2.244,1.259 1.646,4.658 -0.497,2.828 -2.255,4.06 -3.805,3.847 -1.668,-0.226 -3.514,-2.723 -3.353,-6.7 0.2,-4.887 3.708,-10.277 16.193,-7.484 z"
     clip-path="url(#clipPath6188)"
     id="path151"
     style="fill:#64bfaa" />
  <path
     transform="matrix(1.6262,0,0,-1.6262,-650.976,1085.57)"
     d="m 512.88,561.18 c -1.215,2.096 -2.774,2.789 -3.396,2.509 -0.648,-0.299 -0.795,-2.529 0.168,-5.04 l -0.918,-0.707 c -1.32,3.141 -1.2,6.256 0.222,6.909 1.318,0.612 3.397,-0.491 4.896,-2.984 z"
     clip-path="url(#clipPath6182)"
     id="path152"
     style="fill:#64bfaa" />
  <path
     transform="matrix(1.6262,0,0,-1.6262,-650.976,1085.57)"
     d="m 529.51,554.38 c 1.11,-1.256 2.404,-1.629 2.888,-1.234 0.666,0.549 0.172,2.901 -1.46,4.865 -2.756,3.317 -4.843,2.599 -4.942,0.991 l -0.898,1.082 c 0.585,1.962 3.538,2.541 6.735,-1.37 2.086,-2.551 2.665,-5.695 1.457,-6.695 -0.622,-0.512 -1.759,-0.487 -2.626,-0.004 z"
     clip-path="url(#clipPath6176)"
     id="path153"
     style="fill:#64bfaa" />
  <path
     transform="matrix(1.6262,0,0,-1.6262,-650.976,1085.57)"
     d="m 534.46,546.11 c 2.918,1.689 3.183,7.505 -0.691,13.184 -4.124,6.048 -9.131,7.56 -11.215,6.389 -1.148,-0.648 -1.846,-2.088 -1.741,-3.693 l -1.293,0.114 c -0.139,2.07 0.574,3.768 2.358,4.776 2.561,1.449 8.069,0.094 12.892,-6.978 4.324,-6.338 4.21,-12.771 0.301,-14.873 z"
     clip-path="url(#clipPath6170)"
     id="path154"
     style="fill:#64bfaa" />
  <path
     transform="matrix(1.6262,0,0,-1.6262,-650.976,1085.57)"
     d="m 534.77,559.9 c -1.725,2.53 -3.537,4.317 -5.271,5.517 0.266,-0.796 0.578,-1.562 0.929,-2.29 1.129,-0.993 2.265,-2.256 3.342,-3.835 0.399,-0.584 0.743,-1.17 1.056,-1.753 0.604,-0.452 1.232,-0.827 1.88,-1.115 -0.499,1.143 -1.141,2.311 -1.936,3.476"
     clip-path="url(#clipPath6164)"
     fill="#55a694"
     id="path155" />
  <path
     transform="matrix(1.6262,0,0,-1.6262,-650.976,1085.57)"
     d="m 544.27,546.22 c -1.676,-2.45 -5.555,-3.034 -8.714,-2.009 l -0.721,1.387 c 3.894,-1.462 7.769,-0.538 9.116,2.132 z"
     clip-path="url(#clipPath6158)"
     fill="#64bfaa"
     id="path156" />
  <path
     transform="matrix(1.6262,0,0,-1.6262,-650.976,1085.57)"
     d="m 544.27,546.22 -0.319,1.51 c -1.045,-2.071 -3.613,-3.085 -6.53,-2.756 -0.29,-0.342 -0.584,-0.683 -0.885,-1.02 2.943,-0.626 6.228,0.064 7.734,2.266"
     clip-path="url(#clipPath6152)"
     fill="#55a694"
     id="path157" />
  <path
     transform="matrix(1.6262,0,0,-1.6262,-650.976,1085.57)"
     d="m 536.28,540.58 c 1.812,-0.333 3.418,-0.758 4.938,-1.222 l -0.482,-1.286 c -1.561,0.549 -3.293,1.023 -5.176,1.361 z"
     clip-path="url(#clipPath6146)"
     fill="#55a694"
     id="path158" />
  <path
     transform="matrix(1.6262,0,0,-1.6262,-650.976,1085.57)"
     d="m 477.51,535.89 c 7.418,1.919 15.549,3.427 23.258,4.423 l -0.571,-1.272 c -7.321,-0.963 -14.422,-2.25 -21.483,-4.048 z"
     clip-path="url(#clipPath6140)"
     id="path159"
     style="fill:#64bfaa" />
  <path
     transform="matrix(1.6262,0,0,-1.6262,-650.976,1085.57)"
     d="m 447.93,524.54 c 3.498,2.017 8.374,4.335 13.422,6.182 l -0.166,-1.239 c -5.038,-1.949 -9.506,-4.096 -13.351,-6.332 z"
     clip-path="url(#clipPath6134)"
     id="path160"
     style="fill:#64bfaa" />
  <path
     transform="matrix(1.6262,0,0,-1.6262,-650.976,1085.57)"
     d="m 460.76,528.39 c -0.871,3.309 2.34,7.321 8.124,8.756 6.064,1.504 10.792,-0.669 11.551,-4.122 0.579,-2.63 -1.243,-4.674 -3.421,-5.097 -2.026,-0.383 -3.332,0.701 -3.633,1.84 -0.557,2.09 1.809,3.938 3.646,2.811 1.029,-0.632 0.636,-1.401 -0.446,-0.864 -1.237,0.612 -2.427,-0.596 -2.142,-1.672 0.182,-0.685 0.979,-1.068 2.359,-0.825 1.822,0.354 2.797,2.043 2.464,3.555 -0.476,2.166 -4.031,4.556 -10.03,3.07 -5.298,-1.315 -7.848,-4.822 -7.251,-7.093 0.313,-1.189 1.112,-2.207 2.462,-1.914 1.284,0.276 1.992,1.047 1.831,1.86 -0.185,0.939 -1.056,1.087 -1.809,0.534 -0.914,-0.67 -1.491,-0.056 -0.643,0.762 1.165,1.124 3.231,0.782 3.594,-1.051 0.313,-1.587 -0.691,-2.965 -2.67,-3.391 -2.192,-0.491 -3.534,1.121 -3.986,2.841"
     clip-path="url(#clipPath6128)"
     id="path161"
     style="fill:#64bfaa" />
  <path
     transform="matrix(1.6262,0,0,-1.6262,-650.976,1085.57)"
     d="m 545.15,540.6 c -2.249,0.519 -4.129,-1.465 -3.763,-3.613 0.114,-0.672 0.586,-1.326 1.247,-1.301 0.76,0.022 1.211,0.364 1.228,0.972 0.02,0.738 -0.292,0.978 -0.707,0.872 -0.964,-0.247 -1.116,0.652 -0.159,0.902 1.004,0.256 1.913,-0.449 1.846,-1.812 -0.046,-0.967 -0.928,-1.926 -2.158,-1.974 -1.367,-0.052 -2.187,0.81 -2.406,2.101 -0.535,3.146 2.029,5.558 4.751,5.13 z"
     clip-path="url(#clipPath6122)"
     fill="#55a694"
     id="path162" />
  <path
     transform="matrix(1.6262,0,0,-1.6262,-650.976,1085.57)"
     d="m 544.19,534.66 c 0.299,3.91 -0.042,8.21 -1.192,12.876 -1.159,4.701 -3.041,8.97 -6.001,13.125 l 1.884,0.124 c 2.91,-4.034 4.82,-8.188 5.965,-12.835 0.898,-3.642 1.312,-7.047 1.327,-10.214 z"
     clip-path="url(#clipPath6116)"
     id="path163"
     style="fill:#0f141b" />
  <path
     transform="matrix(1.6262,0,0,-1.6262,-650.976,1085.57)"
     d="m 542.09,521.47 c -3.581,-6.315 -9.035,-10.669 -14.377,-13.048 l -2.133,0.763 c 6.21,2.303 12.05,7.051 15.505,13.971 z"
     clip-path="url(#clipPath6110)"
     id="path164"
     style="fill:#0f141b" />
  <path
     transform="matrix(1.6262,0,0,-1.6262,-650.976,1085.57)"
     d="m 440.8,538.06 c 1.136,6.93 4.358,13.923 9.606,20.957 1.23,1.649 1.008,2.967 -0.225,3.709 -1.979,1.188 -2.916,4.51 1.067,6.907 7.943,4.779 20.979,9.21 35.74,11.854 13.163,2.336 27.074,2.471 37.066,0.526 3.266,-0.635 4.237,-4.25 2.158,-6.276 -0.713,-0.698 -0.669,-1.71 1.041,-3.11 0.629,-0.514 1.239,-1.025 1.831,-1.533 l 0.169,-1.932 c -0.911,0.82 -1.873,1.645 -2.89,2.477 -2.076,1.698 -2.423,3.657 -1.039,5.006 1.035,1.012 0.862,3.586 -1.504,4.047 -9.902,1.926 -23.468,1.634 -36.517,-0.71 -14.67,-2.627 -27.511,-6.754 -35.375,-11.485 -2.756,-1.659 -1.846,-4.17 -1.007,-4.674 1.806,-1.084 2.339,-3.184 0.589,-5.529 -5.064,-6.789 -8.094,-13.767 -9.038,-20.72 z"
     clip-path="url(#clipPath6104)"
     id="path165"
     style="fill:#0f141b" />
  <path
     transform="matrix(1.6262,0,0,-1.6262,-650.976,1085.57)"
     d="m 460.22,503.41 c 4.021,-2.01 8.518,-3.254 13.285,-3.573 l -1.72,-1.336 c -4.759,0.434 -9.245,1.778 -13.258,3.878 z"
     clip-path="url(#clipPath6098)"
     id="path166"
     style="fill:#0f141b" />
  <path
     transform="matrix(1.6262,0,0,-1.6262,-650.976,1085.57)"
     d="m 457.91,502.94 c 2.197,0.292 2.85,0.593 -0.707,4.134 -6.949,6.916 -11.035,14.63 -12.539,24.958 -0.411,2.823 -2.458,5.565 -4.132,5.271 -1.807,-0.318 -3.587,0.646 -5,2.29 -6.485,7.553 -18.284,13.619 -22.998,12.873 -4.592,-0.753 -9.582,-4.672 -10.815,-7.208 -0.627,-1.289 -0.309,-1.713 0.903,-1.666 10.416,0.404 24.8,-10.049 25.054,-19.01 0.38,-13.518 17.481,-23.335 30.234,-21.642 m 0.199,-1.133 c -14.245,-2.07 -31.359,7.786 -31.78,22.697 -0.224,7.941 -13.747,18.348 -23.702,17.962 -2.191,-0.084 -2.876,1.158 -1.868,3.23 1.522,3.132 6.691,7.221 11.599,7.987 5.002,0.793 16.784,-4.764 24.011,-13.179 1.183,-1.378 2.741,-1.967 3.998,-1.746 2.386,0.419 5.152,-2.609 5.727,-6.554 1.308,-8.978 5.419,-17.953 11.868,-24.372 4.456,-4.434 2.946,-5.618 0.147,-6.025"
     clip-path="url(#clipPath6092)"
     id="path167"
     style="fill:#0f141b" />
  <path
     transform="matrix(1.6262,0,0,-1.6262,-650.976,1085.57)"
     d="m 447.29,523.67 c 0.452,3.25 1.577,7.232 2.514,10.756 -1.147,2.026 -2.372,4.397 -3.4,6.413 -1.375,-1.24 -2.595,-2.399 -3.784,-3.564 l -0.926,0.548 c 1.218,1.193 2.862,2.839 4.313,4.153 0.484,0.438 0.805,0.403 1.153,-0.281 1.013,-1.988 2.457,-4.681 3.594,-6.698 0.226,-0.398 0.234,-0.462 0.117,-0.903 -1.068,-4.026 -2.434,-9.388 -2.658,-12.541 z"
     clip-path="url(#clipPath6086)"
     id="path168"
     style="fill:#0f141b" />
  <path
     transform="matrix(1.6262,0,0,-1.6262,-650.976,1085.57)"
     d="m 447.5,539.87 c -1.308,-1.286 -2.437,-2.53 -3.573,-3.935 l -0.623,0.768 c 1.11,1.356 2.39,2.743 3.73,4.052 z"
     clip-path="url(#clipPath6080)"
     id="path169"
     style="fill:#0f141b" />
  <path
     transform="matrix(1.6262,0,0,-1.6262,-650.976,1085.57)"
     d="m 446.14,541.68 c 0.003,6.214 7.13,16.064 13.615,21.666 1.987,1.716 2.135,3.877 0.45,4.994 -2.057,1.365 -2.155,3.184 -0.944,4.616 l 1.8,0.593 c -2.18,-1.468 -2.181,-3.35 -0.399,-4.531 2.263,-1.502 2.147,-4.164 -0.36,-6.329 -6.387,-5.517 -13.19,-15.097 -13.353,-21.077 z"
     clip-path="url(#clipPath6074)"
     id="path170"
     style="fill:#0f141b" />
  <path
     transform="matrix(1.6262,0,0,-1.6262,-650.976,1085.57)"
     d="m 504.46,534.28 c 8.54,0.908 19.87,1.162 26.584,-0.46 1.864,2.396 4.107,5.705 5.18,8.146 -4.342,7.476 -8.772,14.765 -12.732,19.149 -3.377,0.448 -6.054,0.665 -8.925,0.629 -3.046,-2.376 -8.042,-6.312 -11.238,-8.793 0.476,-1.102 0.95,-2.184 1.529,-3.326 0.203,-0.4 0.213,-0.577 0.026,-0.965 -2.056,-4.268 -3.245,-7.413 -4.312,-10.6 1.224,-1.348 2.238,-2.376 3.888,-3.78 m 26.376,-1.658 c -6.573,1.549 -17.779,1.444 -26.164,0.577 -0.565,-0.059 -0.673,-0.009 -1.014,0.279 -1.568,1.329 -2.929,2.464 -4.13,3.753 -0.425,0.456 -0.417,0.559 -0.201,1.108 1.319,3.365 2.645,6.491 4.717,10.77 -0.681,1.268 -1.229,2.411 -1.739,3.54 -0.273,0.603 -0.185,0.743 0.264,1.092 3.341,2.601 8.29,6.552 11.336,8.928 0.229,0.178 0.368,0.227 0.762,0.23 2.8,0.024 5.646,-0.179 8.916,-0.607 0.35,-0.046 0.527,-0.141 0.762,-0.404 3.967,-4.44 8.589,-12.013 12.896,-19.423 0.228,-0.392 0.239,-0.508 0.059,-0.911 -1.106,-2.464 -3.528,-6.112 -5.392,-8.531 -0.365,-0.474 -0.581,-0.516 -1.072,-0.401"
     clip-path="url(#clipPath6068)"
     id="path171"
     style="fill:#0f141b" />
  <path
     transform="matrix(1.6262,0,0,-1.6262,-650.976,1085.57)"
     d="m 512.79,561.1 c 3.359,-0.166 7.52,-0.466 10.433,-0.893 0.339,-0.05 0.482,-0.097 0.735,-0.411 3.233,-4.002 8.639,-12.884 11.121,-17.606 0.185,-0.353 0.221,-0.545 0.047,-0.906 -1.143,-2.371 -3.632,-5.687 -5.565,-7.802 l -1.037,0.209 c 1.956,2.06 4.539,5.56 5.695,8.003 -2.454,4.698 -7.78,13.671 -10.998,17.615 -3.151,0.476 -7.921,0.811 -11.445,0.966 z"
     clip-path="url(#clipPath6062)"
     id="path172"
     style="fill:#0f141b" />
  <path
     transform="matrix(1.6262,0,0,-1.6262,-650.976,1085.57)"
     d="m 513.99,562.14 c -1.167,2.74 -5.279,7.267 -8.459,9.821 -2.222,1.785 -2.372,3.125 -1.669,6.2 0.626,2.739 -0.303,3.901 -2.434,4.068 l 1.882,0.375 c 1.321,-0.467 2.069,-1.848 1.435,-4.619 -0.639,-2.795 -0.436,-3.961 1.341,-5.379 3.475,-2.775 7.499,-7.027 8.687,-10.186 z"
     clip-path="url(#clipPath6056)"
     id="path173"
     style="fill:#0f141b" />
  <path
     transform="matrix(1.6262,0,0,-1.6262,-650.976,1085.57)"
     d="m 520.33,534.41 c -0.584,-7.746 -6.899,-19.856 -11.717,-24.924 l -1.409,-0.134 c 4.747,4.678 11.306,17.418 12.201,25.086 z"
     clip-path="url(#clipPath6050)"
     id="path174"
     style="fill:#0f141b" />
  <path
     transform="matrix(1.6262,0,0,-1.6262,-650.976,1085.57)"
     d="m 481.37,503.62 c -9.746,-1.075 -20.736,2.271 -27.73,8.283 l -1.707,2.637 c 8.138,-7.501 20.474,-11.286 32.39,-9.836 z"
     clip-path="url(#clipPath6044)"
     id="path175"
     style="fill:#0f141b" />
  <path
     transform="matrix(1.6262,0,0,-1.6262,-650.976,1085.57)"
     d="m 466.82,489.25 c -0.262,-1.039 -0.346,-1.822 -0.208,-2.433 0.424,-1.88 11.948,-6.253 38.187,-1.656 26.177,4.586 32.28,10.103 31.963,14.054 -0.057,0.707 -0.321,1.437 -0.818,2.123 -1.9,2.623 -6.456,6.172 -9.453,6.84 -6.747,1.505 -16.118,1.218 -26.674,-0.55 -11.632,-1.94 -21.872,-5.244 -26.838,-8.999 -2.414,-1.825 -5.334,-6.103 -6.159,-9.379 m 38.203,-5.519 c -23.44,-4.106 -38.327,-1.059 -39.404,2.771 -0.234,0.831 -0.197,1.831 0.103,3.021 0.876,3.479 3.807,8.222 6.384,10.171 4.873,3.684 15.808,7.482 27.496,9.474 10.653,1.784 20.383,1.793 27.228,0.266 3.459,-0.771 7.797,-4.486 10.008,-7.537 0.485,-0.67 0.82,-1.415 0.963,-2.183 1.057,-5.717 -8.293,-11.694 -32.778,-15.983"
     clip-path="url(#clipPath6038)"
     id="path176"
     style="fill:#0f141b" />
  <path
     transform="matrix(1.6262,0,0,-1.6262,-650.976,1085.57)"
     d="m 501.17,497.34 c -20.367,-3.613 -31.063,-9.433 -30.851,-10.636 0.147,-0.838 9.942,-3.307 32.468,0.653 21.751,3.824 31.104,9.022 30.861,10.405 -0.274,1.557 -11.338,3.328 -32.478,-0.422 m -0.206,1.142 c 19.893,3.529 33.322,2.286 33.818,-0.537 0.529,-3.01 -11.783,-8.259 -31.837,-11.785 -20.192,-3.549 -33.359,-1.927 -33.76,0.354 -0.478,2.718 14.743,8.945 31.779,11.968"
     clip-path="url(#clipPath6032)"
     id="path177"
     style="fill:#0f141b" />
  <path
     transform="matrix(1.6262,0,0,-1.6262,-650.976,1085.57)"
     d="m 531.48,499.37 c -0.765,-2.517 -9.013,-6.406 -27.737,-9.648 -12.034,-2.074 -21.639,-2.517 -29.227,-2.082 -1.707,0.098 -2.289,0.552 -2.468,1.239 l 0.929,0.469 c -0.097,-0.424 0.357,-0.694 1.591,-0.765 7.527,-0.432 16.98,0.244 28.952,2.309 18.64,3.178 25.99,6.768 27.025,8.679 z"
     clip-path="url(#clipPath6026)"
     id="path178"
     style="fill:#0f141b" />
  <path
     transform="matrix(1.6262,0,0,-1.6262,-650.976,1085.57)"
     d="m 535.91,502.04 c -6.593,3.236 -18.545,3.509 -35.068,0.797 -15.862,-2.605 -28.99,-7.516 -34.215,-12.757 l 0.466,1.838 c 6.909,5.993 21.555,10.312 33.538,12.268 15.482,2.541 27.177,2.283 34.042,-0.452 z"
     clip-path="url(#clipPath6020)"
     id="path179"
     style="fill:#0f141b" />
  <path
     transform="matrix(1.6262,0,0,-1.6262,-650.976,1085.57)"
     d="m 467.57,488.3 c 3.804,4.443 16.985,9.599 34.407,12.662 14.762,2.595 28.192,1.512 33.124,-0.115 1.64,-0.541 1.393,-1.219 -0.227,-0.762 -4.95,1.394 -17.982,2.103 -32.677,-0.48 -16.926,-2.976 -30.044,-7.684 -33.958,-11.748 -1.118,-1.161 -1.72,-0.785 -0.669,0.443"
     clip-path="url(#clipPath6014)"
     id="path180"
     style="fill:#0f141b" />
  <path
     transform="matrix(1.6262,0,0,-1.6262,-650.976,1085.57)"
     d="m 536.04,572 c 3.727,7.746 18.111,10.408 26.332,1.768 5.522,-5.8 6.708,-15.651 -1.18,-22.559 -4.2,-3.679 -7.915,-6.833 -12.118,-10.992 -2.223,-2.199 -4.211,-5.499 -4.707,-7.133 -0.92,-3.022 -1.658,-5.593 -2.368,-8.441 -0.39,-1.568 -0.011,-2.627 1.185,-2.836 1.242,-0.218 3.443,0.746 4.178,3.347 1.65,5.831 2.742,8.407 5.99,11.652 4.168,4.161 8.132,7.485 12.623,11.229 7.405,6.171 9.69,19.584 0.029,29.339 -9.56,9.65 -25.708,8.383 -33.797,-0.954 -2.594,-2.995 -2.917,-6.786 -1.477,-9.805 0.678,-1.419 4.253,-4.774 5.374,-5.09 1.914,-0.54 3.902,-0.027 4.786,1.456 0.967,1.625 -0.14,4.899 -3.573,5.967 -1.546,0.481 -1.977,1.596 -1.277,3.052 m 1.083,-0.522 c -0.374,-0.779 -0.164,-1.16 0.594,-1.396 3.846,-1.196 5.822,-5.25 4.323,-7.769 -1.203,-2.022 -4.005,-2.669 -6.297,-2.024 -1.374,0.387 -5.354,4.077 -6.144,5.734 -1.655,3.469 -1.617,7.453 1.613,11.181 8.683,10.028 25.868,11.425 35.927,1.269 9.574,-9.665 8.738,-23.859 -0.333,-31.422 -4.477,-3.732 -8.361,-6.919 -12.504,-11.055 -2.942,-2.937 -4.238,-6.23 -5.694,-11.376 -0.943,-3.328 -3.867,-4.719 -5.859,-4.373 -1.934,0.338 -2.744,2.09 -2.114,4.619 0.714,2.861 1.459,5.375 2.406,8.563 0.621,2.093 2.981,5.467 5.153,7.617 4.221,4.177 7.864,7.491 12.075,11.179 6.733,5.897 6.333,14.74 0.928,20.422 -7.834,8.23 -20.871,5.491 -24.074,-1.169"
     clip-path="url(#clipPath5990)"
     id="path184"
     style="fill:#0f141b" />
  <path
     transform="matrix(1.6262,0,0,-1.6262,-650.976,1085.57)"
     d="m 492.7,647.08 c -1.062,1.387 -2.325,3.073 -3.447,4.648 -4.178,0.092 -7.998,0.158 -11.996,0.4 -2.923,1.346 -5.379,2.39 -8.031,3.37 -2.588,-1.901 -4.977,-3.591 -7.326,-5.509 -0.882,-3.878 -1.294,-8.248 -1.552,-12.06 -3.655,-1.883 -7.324,-4.375 -10.377,-6.637 -0.261,0.32 -0.743,0.484 -1.227,0.515 1.507,13.985 11.208,25.095 24.989,28.867 14.365,3.932 29.401,-2.63 35.808,-12.717 -0.332,-0.212 -0.473,-0.661 -0.386,-1.157 -5.096,1.209 -11.826,1.313 -16.455,0.28"
     clip-path="url(#clipPath5984)"
     fill="#ffffff"
     id="path185" />
  <path
     transform="matrix(1.6262,0,0,-1.6262,-650.976,1085.57)"
     d="m 468.7,658.9 c 1.608,0.706 3.29,1.303 5.038,1.781 2.292,0.628 4.602,0.986 6.891,1.107 1.143,3.23 -2.061,6.516 -7.975,4.769 -5.669,-1.674 -6.386,-6.218 -3.954,-7.657"
     clip-path="url(#clipPath5978)"
     fill="#ffe792"
     id="path186" />
  <path
     transform="matrix(1.6262,0,0,-1.6262,-650.976,1085.57)"
     d="m 462.87,634.33 c 0.793,0.207 1.031,1.532 0.657,2.684 -0.374,1.151 -1.244,1.839 -2.09,1.442 -2.803,-1.314 -8.462,-4.681 -11.464,-7.156 0.375,-0.747 0.336,-1.826 -0.577,-2.99 -1.512,-1.929 -0.914,-4.82 1.875,-6.515 15.522,-3.734 47.544,3.971 59.513,15.025 0.48,1.302 0.818,2.025 1.294,2.84 0.876,1.495 0.376,3.728 -1.153,4.8 -0.783,0.549 -1.675,1.546 -1.768,2.348 -5.372,1.489 -14.685,0.891 -17.77,0.107 -0.848,-0.216 -1.191,-1.538 -0.77,-2.549 0.421,-1.01 0.906,-1.921 2.122,-1.7 5.035,0.912 14.31,1.192 16.614,-0.474 -2.162,-10.122 -50.744,-22.16 -58.203,-16.254 1.079,2.846 7.388,7.261 11.72,8.392"
     clip-path="url(#clipPath5972)"
     fill="#dbc77f"
     id="path187" />
  <path
     transform="matrix(1.6262,0,0,-1.6262,-650.976,1085.57)"
     d="m 518,646.43 c -1.822,3.185 -5.035,3.158 -6.308,1.683 -2.683,0.61 -3.497,-1.489 -1.502,-3.02 2.337,-1.795 2.93,-3.735 1.779,-5.668 -0.852,-1.432 -1.489,-3.074 -1.612,-5.41 -0.446,-8.436 -1.886,-26.791 -2.954,-40.593 -3.015,16.471 -14.216,20.517 -23.063,18.513 -10.229,-2.317 -19.039,-9.078 -17.051,-25.837 -3.1,9.813 -10.174,22.762 -14.236,33.045 -0.878,2.222 -1.675,2.554 -2.883,3.552 -1.837,1.517 -1.895,3.76 -0.616,5.855 1.626,2.663 0.174,4.074 -2.199,2.592 -2.119,1.15 -5.118,-0.668 -5.433,-4.347 -0.26,-3.04 0.966,-5.718 3.788,-6.773 2.149,-0.803 3.397,-2.165 4.701,-4.576 3.193,-5.903 10.333,-23.009 14.606,-34.891 0.332,-1.264 0.649,-3.147 0.902,-5.066 13.384,4.566 34.307,8.221 46.02,7.118 -0.194,2.148 -0.425,3.499 -0.763,5.842 0.755,13.046 1.881,34.852 2.968,43.668 0.322,2.61 1.085,4.356 2.75,5.824 2.56,2.257 3.116,4.975 1.106,8.489"
     clip-path="url(#clipPath5966)"
     fill="#7b59a2"
     id="path188" />
  <path
     transform="matrix(1.6262,0,0,-1.6262,-650.976,1085.57)"
     d="m 481.69,594.71 c 0.095,2.081 -1.069,3.834 -1.983,3.659 -0.823,-0.157 -1.366,-1.306 -1,-3.104 0.407,-1.999 1.538,-3.417 2.798,-3.064 1.445,0.405 2.856,2.293 1.408,6.314 -1,2.775 -2.895,3.899 -4.668,3.245 -1.706,-0.629 -2.736,-3.045 -2.309,-5.795 0.546,-3.518 2.021,-5.956 4.906,-6.029 1.232,-0.031 1.363,1.311 -0.033,1.397 -1.748,0.108 -3.004,1.762 -3.272,4.888 -0.217,2.525 0.415,3.688 1.331,3.992 0.979,0.324 2.321,-0.599 2.854,-2.213 0.838,-2.54 0.266,-3.356 -0.032,-3.29"
     clip-path="url(#clipPath5960)"
     id="path189"
     style="fill:#fad7b5" />
  <path
     transform="matrix(1.6262,0,0,-1.6262,-650.976,1085.57)"
     d="m 495.14,596.49 c 0.246,2.069 -0.787,3.902 -1.712,3.794 -0.832,-0.097 -1.457,-1.204 -1.223,-3.023 0.26,-2.024 1.286,-3.52 2.568,-3.26 1.471,0.299 3.015,2.08 1.863,6.195 -0.795,2.841 -2.604,4.099 -4.419,3.576 -1.748,-0.504 -2.951,-2.838 -2.725,-5.612 0.289,-3.548 1.583,-6.087 4.455,-6.369 1.381,-0.136 1.611,1.187 0.069,1.395 -1.735,0.235 -2.868,1.975 -2.909,5.113 -0.032,2.534 0.683,3.648 1.619,3.884 1,0.253 2.27,-0.766 2.685,-2.414 0.651,-2.594 0.021,-3.367 -0.271,-3.279"
     clip-path="url(#clipPath5954)"
     id="path190"
     style="fill:#fad7b5" />
  <path
     transform="matrix(1.6262,0,0,-1.6262,-650.976,1085.57)"
     d="m 485.61,589.72 c 1.014,-0.427 2.974,-0.059 4.079,0.605 0.924,0.556 1.504,-0.282 0.722,-0.928 -1.018,-0.842 -3.894,-1.443 -5.364,-0.571 -0.833,0.494 -0.269,1.245 0.563,0.894"
     clip-path="url(#clipPath5948)"
     id="path191"
     style="fill:#fad7b5" />
  <path
     transform="matrix(1.6262,0,0,-1.6262,-650.976,1085.57)"
     d="m 484.75,612.33 c -0.333,-0.708 -1.049,-1.336 -2.124,-1.687 -1.568,-0.513 -2.032,-1.287 -1.84,-2.213 0.265,-1.275 4.061,-2.415 6.877,-1.757 1.691,0.395 1.431,2.213 0.046,2.428 -0.714,0.111 -1.244,0.274 -1.703,0.454 -0.427,0.167 -0.411,0.31 -0.064,0.446 1.574,0.616 1.911,1.635 0.854,2.526"
     clip-path="url(#clipPath5942)"
     id="path192"
     style="fill:#fad7b5" />
  <path
     transform="matrix(1.6262,0,0,-1.6262,-650.976,1085.57)"
     d="m 492.74,642.66 c -0.912,-0.146 -1.569,0.447 -2.052,1.558 -0.374,0.858 -0.287,1.739 0.155,2.307 -0.829,1.336 -1.583,2.392 -2.263,3.344 -2.666,-0.114 -7.82,-0.017 -11.609,0.38 -2.443,1.135 -4.894,2.151 -7.21,2.895 -2.007,-1.342 -3.733,-2.605 -6.047,-4.222 -0.347,-2.22 -0.981,-7.465 -1.314,-10.537 0.505,-0.2 0.898,-0.673 1.128,-1.377 0.491,-1.502 0.29,-2.421 -0.657,-2.684 -5.657,-1.57 -11.186,-6.261 -11.72,-8.392 9.553,-5.981 56.322,6.802 58.203,16.254 -2.921,1.671 -11.016,1.368 -16.614,0.474"
     clip-path="url(#clipPath5936)"
     fill="#888888"
     id="path193" />
  <path
     transform="matrix(1.6262,0,0,-1.6262,-650.976,1085.57)"
     d="m 469.76,653.14 c 2.315,-0.744 4.767,-1.76 7.21,-2.895 3.789,-0.396 8.942,-0.494 11.608,-0.38 0.681,-0.952 1.435,-2.007 2.264,-3.344 0.378,0.486 1.016,0.745 1.86,0.557 -1.062,1.388 -2.325,3.074 -3.447,4.648 -4.178,0.092 -7.998,0.159 -11.996,0.4 -2.923,1.346 -5.379,2.39 -8.031,3.37 -2.588,-1.901 -4.978,-3.59 -7.327,-5.509 -0.881,-3.878 -1.293,-8.248 -1.552,-12.059 0.789,0.558 1.489,0.675 2.049,0.453 0.333,3.072 0.968,8.318 1.315,10.537 2.313,1.617 4.039,2.88 6.047,4.222"
     clip-path="url(#clipPath5930)"
     fill="#cccccc"
     id="path194" />
  <path
     transform="matrix(1.6262,0,0,-1.6262,-650.976,1085.57)"
     d="m 473.71,665.23 c 0.32,-0.56 -0.028,-1.459 -1.077,-2.015 -0.992,-0.526 -2.009,-0.467 -2.308,0.179 -0.28,0.607 0.059,1.463 1.118,2.007 1.019,0.523 1.922,0.434 2.267,-0.171"
     clip-path="url(#clipPath5924)"
     fill="#fffded"
     id="path195" />
  <path
     transform="matrix(1.6262,0,0,-1.6262,-650.976,1085.57)"
     d="m 477.15,606.61 c 0.478,-0.429 0.255,-1.575 -1.05,-2.902 -1.34,-1.363 -2.439,-1.606 -2.908,-1.145 -0.407,0.4 -0.222,1.761 1.035,3.04 1.19,1.211 2.441,1.44 2.923,1.007"
     clip-path="url(#clipPath5918)"
     fill="#bba9d1"
     id="path196" />
  <path
     transform="matrix(1.6262,0,0,-1.6262,-650.976,1085.57)"
     d="m 449.17,627.43 c 2.335,3.154 7.675,6.71 11.686,8.441 -0.149,0.594 -0.16,1.832 0.22,2.356 -2.764,-1.401 -8.318,-4.488 -10.979,-6.978 0.308,-1.048 -0.056,-2.335 -0.927,-3.819"
     clip-path="url(#clipPath5912)"
     fill="#ffe792"
     id="path197" />
  <path
     transform="matrix(1.6262,0,0,-1.6262,-650.976,1085.57)"
     d="m 493.39,645.87 c 4.952,0.546 11.65,0.602 16.499,-0.494 -0.469,0.36 -0.736,0.999 -0.798,1.476 -4.21,1.031 -12.347,1.349 -17.577,0.12 1.032,0.048 1.633,-0.473 1.876,-1.102"
     clip-path="url(#clipPath5906)"
     fill="#ffe792"
     id="path198" />
  <path
     transform="matrix(1.6262,0,0,-1.6262,-650.976,1085.57)"
     d="m 450.11,629.39 c 1.408,1.665 4.599,3.779 6.508,4.977 0.466,0.293 0.317,1.141 -0.482,1.062 -1.855,-1.09 -4.617,-2.907 -6.118,-4.182 0.191,-0.459 0.395,-1.126 0.092,-1.857"
     clip-path="url(#clipPath5900)"
     fill="#fffded"
     id="path199" />
  <path
     transform="matrix(1.6262,0,0,-1.6262,-650.976,1085.57)"
     d="m 449.97,631.3 c -3.54,-3.303 -4.397,-7.213 -0.837,-9.89 0.766,-0.576 1.55,-1.419 2.211,-2.798 2.859,-5.961 6.244,-12.701 11.017,-21.078 -3.834,8.713 -7.633,17.748 -9.311,21.61 -0.706,1.624 -1.827,2.837 -2.883,3.552 -1.802,1.22 -1.934,3.859 -0.616,5.854 0.557,0.844 0.871,1.867 0.419,2.75"
     clip-path="url(#clipPath5894)"
     id="path200"
     style="fill:#6b4c8d" />
  <path
     transform="matrix(1.6262,0,0,-1.6262,-650.976,1085.57)"
     d="m 464.89,581.12 c 1.433,-1.746 3.083,-3.286 5.025,-4.492 -1.279,-0.324 -2.693,-0.769 -4.081,-1.196 -0.116,1.457 -0.385,3.549 -0.944,5.688"
     clip-path="url(#clipPath5888)"
     id="path201"
     style="fill:#6b4c8d" />
  <path
     transform="matrix(1.6262,0,0,-1.6262,-650.976,1085.57)"
     d="m 511.05,588.09 c -0.917,-1.991 -2.519,-4.003 -4.201,-5.481 1.471,0.118 3.702,0.078 5.096,-0.01 -0.161,1.638 -0.537,3.696 -0.895,5.491"
     clip-path="url(#clipPath5882)"
     id="path202"
     style="fill:#6b4c8d" />
  <path
     transform="matrix(1.6262,0,0,-1.6262,-650.976,1085.57)"
     d="m 509.2,647.14 c 5.241,-2.257 6.125,-5.888 3.773,-9.512 -0.725,-1.117 -0.916,-1.771 -1.056,-3.594 -0.615,-7.984 -1.512,-16.249 -2.918,-25.001 0.443,9.668 1.163,21.259 1.351,24.948 0.083,1.648 0.675,3.619 1.36,4.766 1.411,2.363 1.006,4.244 -0.27,5.227 -1.586,1.22 -2.513,2.28 -2.24,3.166"
     clip-path="url(#clipPath5876)"
     id="path203"
     style="fill:#6b4c8d" />
  <path
     transform="matrix(1.6262,0,0,-1.6262,-650.976,1085.57)"
     d="m 455.06,648.41 c 2.794,0.602 6.776,2.763 9.414,5.264 0.535,-0.15 1.432,-0.214 1.916,-0.195 1.136,0.842 2.133,1.593 2.781,2.061 0.752,-0.244 1.82,-0.654 2.598,-1.049 3.479,0.988 7.183,2.458 8.823,3.964 7.416,-1.884 12.3,-0.45 11.956,1.881 -14.337,4.232 -27.772,-0.322 -37.488,-11.926"
     clip-path="url(#clipPath5870)"
     fill="#bbe1e8"
     id="path204" />
  <path
     transform="matrix(1.6262,0,0,-1.6262,-650.976,1085.57)"
     d="m 467.96,659.73 c 1.076,2.777 10.434,5.669 12.826,3.074 l -0.027,-1.01 c -3.488,0.038 -9.573,-1.46 -12.168,-2.902 z"
     clip-path="url(#clipPath5864)"
     fill="#dbc77f"
     id="path205" />
  <path
     transform="matrix(1.6262,0,0,-1.6262,-650.976,1085.57)"
     d="m 471.03,654.9 c 0.769,0.201 1.605,0.445 2.512,0.739 6.27,2.031 7.139,3.35 7.009,3.904 -0.136,0.579 -0.809,0.784 -1.139,0.582 -0.18,-0.11 -0.07,-0.477 0.309,-0.687 2.062,-1.14 5.187,-1.534 9.258,-1.029 2.347,0.291 2.97,0.856 3.038,2.051 L 493,660.156 c -0.045,-1.67 -1.066,-2.428 -3.893,-2.787 -4.209,-0.536 -7.492,-0.169 -9.971,1.155 -0.823,0.439 -1.178,1.655 -0.427,2.278 0.812,0.673 2.563,0.348 2.882,-1.009 0.364,-1.548 -1.556,-3.165 -7.776,-5.18 -0.421,-0.136 -0.849,-0.267 -1.279,-0.391 z"
     clip-path="url(#clipPath5858)"
     fill="#64bfaa"
     id="path206" />
  <path
     transform="matrix(1.6262,0,0,-1.6262,-650.976,1085.57)"
     d="m 465.82,653.03 c -1.716,-0.022 -2.933,0.338 -3.129,1.268 -0.256,1.216 0.361,2.202 1.789,2.568 0.926,0.236 1.769,-0.159 1.833,-1.191 0.131,-2.121 -6.673,-6.75 -11.633,-8.207 l 1.008,1.503 c 4.95,1.761 9.51,5.464 9.51,6.523 0,0.316 -0.264,0.448 -0.538,0.422 -0.61,-0.055 -1.072,-0.639 -0.944,-1.232 0.085,-0.396 1.137,-0.77 3.428,-0.534 z"
     clip-path="url(#clipPath5852)"
     fill="#64bfaa"
     id="path207" />
  <path
     transform="matrix(1.6262,0,0,-1.6262,-650.976,1085.57)"
     d="m 463.03,636.64 c -0.354,1.195 -0.927,1.421 -1.285,1.316 -0.418,-0.124 -0.715,-0.625 -0.374,-1.772 0.351,-1.188 0.853,-1.465 1.326,-1.317 0.424,0.132 0.677,0.612 0.333,1.773 m -2.745,-0.767 c -0.425,1.433 -0.009,2.713 1.175,3.065 0.987,0.291 2.103,-0.258 2.614,-1.981 0.499,-1.683 -0.084,-2.804 -1.103,-3.107 -1.167,-0.345 -2.213,0.429 -2.686,2.023"
     clip-path="url(#clipPath5846)"
     id="path208"
     style="fill:#0f141b" />
  <path
     transform="matrix(1.6262,0,0,-1.6262,-650.976,1085.57)"
     d="m 462.97,633.85 c -3.879,-1.378 -8.706,-4.222 -10.95,-7.378 -0.57,-0.803 -0.577,-1.236 -0.268,-1.627 0.705,-0.894 0.234,-1.305 -0.578,-0.54 -0.686,0.645 -0.896,1.59 -0.056,2.783 2.29,3.253 6.837,5.946 10.691,7.454 z"
     clip-path="url(#clipPath5840)"
     id="path209"
     style="fill:#0f141b" />
  <path
     transform="matrix(1.6262,0,0,-1.6262,-650.976,1085.57)"
     d="m 451.02,625.37 c 4.411,-3.318 20.088,-1.287 34.093,2.816 13.113,3.843 23.891,9.095 24.754,13.479 l -0.959,0.748 c -0.476,-3.685 -10.142,-8.969 -24.132,-13.068 -13.323,-3.903 -28.968,-5.985 -33.447,-2.88 z"
     clip-path="url(#clipPath5834)"
     id="path210"
     style="fill:#0f141b" />
  <path
     transform="matrix(1.6262,0,0,-1.6262,-650.976,1085.57)"
     d="m 493.11,645.2 c -0.364,1.015 -0.97,1.417 -1.549,1.199 -0.496,-0.187 -0.706,-0.908 -0.347,-1.912 0.392,-1.095 0.958,-1.462 1.491,-1.275 0.55,0.192 0.859,0.722 0.405,1.988 m 1.014,0.37 c 0.605,-1.689 0.052,-3.027 -1.134,-3.383 -1.07,-0.323 -2.243,0.256 -2.838,1.918 -0.533,1.487 -0.094,2.906 1.1,3.273 1.2,0.371 2.323,-0.274 2.872,-1.808"
     clip-path="url(#clipPath5828)"
     id="path211"
     style="fill:#0f141b" />
  <path
     transform="matrix(1.6262,0,0,-1.6262,-650.976,1085.57)"
     d="m 510.74,636.1 c -4.579,-4.459 -13.388,-8.75 -24.43,-11.917 -12.104,-3.474 -25.649,-5.052 -34.463,-3.077 l -1.169,1.439 c 0.44,-0.149 0.924,-0.277 1.454,-0.38 8.952,-1.749 21.332,-0.225 33.841,3.362 11.732,3.366 20.53,7.714 24.941,12.336 z"
     clip-path="url(#clipPath5822)"
     id="path212"
     style="fill:#0f141b" />
  <path
     transform="matrix(1.6262,0,0,-1.6262,-650.976,1085.57)"
     d="m 509.26,646.21 c -4.423,1.197 -11.092,1.311 -16.482,0.413 l -1.523,0.757 c 5.217,1.169 12.905,1.161 17.842,-0.029 z"
     clip-path="url(#clipPath5816)"
     id="path213"
     style="fill:#0f141b" />
  <path
     transform="matrix(1.6262,0,0,-1.6262,-650.976,1085.57)"
     d="m 449.58,631.62 c 3.292,2.668 8.489,5.742 11.884,7.317 l -0.588,-1.453 c -3.314,-1.639 -7.696,-4.306 -10.611,-6.692 z"
     clip-path="url(#clipPath5810)"
     id="path214"
     style="fill:#0f141b" />
  <path
     transform="matrix(1.6262,0,0,-1.6262,-650.976,1085.57)"
     d="m 493.58,643.36 c 5.197,0.604 11.72,0.98 14.948,-0.194 1.016,-0.369 1.38,-0.756 1.798,-1.502 0.532,-0.949 -0.056,-1.238 -0.681,-0.403 -0.281,0.376 -0.577,0.574 -1.524,0.919 -2.556,0.929 -7.654,0.924 -15.124,0.012 z"
     clip-path="url(#clipPath5804)"
     id="path215"
     style="fill:#0f141b" />
  <path
     transform="matrix(1.6262,0,0,-1.6262,-650.976,1085.57)"
     d="m 448.11,631.59 c 0.9,13.033 10.382,25.681 25.42,29.797 15.309,4.199 30.69,-3.366 36.597,-13.254 l -1.064,-0.642 c -6.524,9.68 -20.711,16.429 -35.129,12.479 -13.264,-3.631 -22.866,-14.483 -24.615,-28.245 z"
     clip-path="url(#clipPath5798)"
     id="path216"
     style="fill:#0f141b" />
  <path
     transform="matrix(1.6262,0,0,-1.6262,-650.976,1085.57)"
     d="m 497.88,647.77 c 0.571,2.924 2.143,6.108 3.508,8.278 l 0.853,-0.474 c -1.57,-2.276 -2.831,-5.381 -3.334,-7.836 z"
     clip-path="url(#clipPath5792)"
     id="path217"
     style="fill:#0f141b" />
  <path
     transform="matrix(1.6262,0,0,-1.6262,-650.976,1085.57)"
     d="m 492.03,647 c -0.982,1.283 -1.88,2.524 -3.055,4.171 -3.592,0.078 -7.878,0.201 -11.442,0.407 -0.378,0.022 -0.525,0.075 -0.835,0.216 -2.836,1.299 -5.022,2.205 -7.375,3.081 -1.951,-1.423 -5.104,-3.701 -6.923,-5.181 -0.87,-3.888 -1.241,-8.085 -1.479,-11.565 l -1.166,-0.583 c 0.234,3.51 0.629,8.214 1.512,12.264 0.093,0.43 0.159,0.53 0.511,0.812 1.812,1.456 4.869,3.721 6.807,5.139 0.501,0.366 0.643,0.367 1.171,0.169 2.379,-0.894 4.753,-1.909 7.656,-3.245 3.488,-0.208 7.998,-0.286 11.623,-0.363 0.454,-0.01 0.531,-0.038 0.826,-0.453 1.245,-1.748 2.361,-3.32 3.397,-4.658 z"
     clip-path="url(#clipPath5786)"
     id="path218"
     style="fill:#0f141b" />
  <path
     transform="matrix(1.6262,0,0,-1.6262,-650.976,1085.57)"
     d="m 464.2,648.73 c -0.506,-3.09 -1.023,-7.003 -1.387,-10.604 l -0.885,0.39 c 0.355,3.477 0.819,7.248 1.304,10.252 0.08,0.495 0.136,0.555 0.556,0.837 1.594,1.068 3.907,2.629 5.468,3.756 0.425,0.306 0.537,0.323 1.052,0.15 2.539,-0.854 5.351,-2.135 6.86,-2.856 3.171,-0.344 8.394,-0.407 11.147,-0.34 0.374,0.009 0.513,-0.052 0.762,-0.375 0.747,-0.971 1.454,-2.021 2.111,-3.129 l -0.648,-0.723 c -0.693,1.186 -1.421,2.286 -2.211,3.304 -2.68,-0.069 -7.76,-0.015 -11.01,0.31 -0.337,0.034 -0.475,0.075 -0.761,0.21 -1.57,0.744 -4.232,1.944 -6.655,2.742 -1.61,-1.173 -4.062,-2.824 -5.703,-3.924"
     clip-path="url(#clipPath5780)"
     id="path219"
     style="fill:#0f141b" />
  <path
     transform="matrix(1.6262,0,0,-1.6262,-650.976,1085.57)"
     d="m 478.32,601.45 c -1.336,-0.492 -2.483,-2.593 -2.04,-5.443 0.61,-3.934 2.165,-5.677 4.53,-5.784 0.933,-0.043 0.989,0.753 -0.034,0.817 -2.063,0.128 -3.364,2.173 -3.618,5.138 -0.218,2.525 0.495,3.991 1.58,4.351 1.028,0.34 2.605,-0.481 3.262,-2.472 0.586,-1.774 0.554,-2.81 0.082,-3.436 -0.339,-0.45 -0.631,-0.22 -0.637,0.116 -0.043,2.228 -1.103,3.47 -1.694,3.347 -0.662,-0.137 -1.046,-1.133 -0.718,-2.743 0.443,-2.18 1.42,-3.13 2.386,-2.859 1.195,0.334 2.599,1.977 1.182,5.911 -1.061,2.947 -2.901,3.568 -4.281,3.057 m 2.494,-11.798 c -2.729,-0.078 -4.647,2.269 -5.267,6.271 -0.437,2.804 0.655,5.413 2.569,6.119 1.868,0.685 4.05,-0.385 5.139,-3.408 1.398,-3.884 0.184,-6.229 -1.68,-6.752 -1.371,-0.387 -2.749,1.018 -3.219,3.329 -0.361,1.77 0.235,3.298 1.278,3.503 1.039,0.204 2.115,-1.456 2.247,-3.529 0.159,0.42 0.173,1.102 -0.382,2.738 -0.557,1.644 -1.826,2.272 -2.57,2.023 -0.655,-0.218 -1.304,-1.126 -1.08,-3.738 0.27,-3.146 1.394,-4.338 2.962,-4.604 1.859,-0.314 1.645,-1.905 0.003,-1.952"
     clip-path="url(#clipPath5774)"
     id="path220"
     style="fill:#0f141b" />
  <path
     transform="matrix(1.6262,0,0,-1.6262,-650.976,1085.57)"
     d="m 492.28,603.44 c -1.464,-0.421 -2.652,-2.495 -2.427,-5.257 0.33,-4.059 1.718,-5.824 4.098,-6.107 1.033,-0.123 1.116,0.667 -0.004,0.824 -2.089,0.293 -3.128,2.426 -3.166,5.401 -0.032,2.511 0.711,3.906 1.865,4.198 1.24,0.312 2.568,-0.787 3.043,-2.677 0.452,-1.804 0.374,-2.82 -0.159,-3.429 -0.468,-0.534 -0.66,-0.371 -0.618,0.169 0.168,2.168 -0.872,3.52 -1.376,3.457 -0.759,-0.093 -1.207,-1.027 -0.99,-2.706 0.286,-2.224 1.183,-3.225 2.16,-3.026 1.306,0.265 2.733,1.77 1.611,5.779 -0.791,2.83 -2.505,3.817 -4.037,3.374 m 1.629,-11.928 c -2.773,0.163 -4.471,2.47 -4.808,6.624 -0.225,2.747 1.003,5.337 3.037,5.924 1.828,0.523 3.97,-0.589 4.868,-3.796 1.112,-3.974 -0.272,-6.207 -2.17,-6.593 -1.483,-0.304 -2.692,1.234 -2.987,3.531 -0.24,1.853 0.445,3.299 1.541,3.433 1.075,0.131 2.046,-1.507 1.982,-3.688 0.188,0.474 0.2,1.116 -0.215,2.769 -0.38,1.513 -1.491,2.417 -2.379,2.189 -0.825,-0.209 -1.372,-1.387 -1.343,-3.612 0.04,-3.131 0.995,-4.512 2.606,-4.84 2.131,-0.434 1.798,-2.054 -0.132,-1.941"
     clip-path="url(#clipPath5768)"
     id="path221"
     style="fill:#0f141b" />
  <path
     transform="matrix(1.6262,0,0,-1.6262,-650.976,1085.57)"
     d="m 485.51,589.47 c -0.488,0.211 -0.839,-0.096 -0.31,-0.41 1.386,-0.82 4.071,-0.234 5.027,0.555 0.491,0.407 0.17,0.803 -0.409,0.453 -1.116,-0.671 -3.195,-1.08 -4.308,-0.598 m 0.202,0.513 c 0.98,-0.414 2.797,-0.022 3.83,0.599 1.271,0.764 2.139,-0.51 1.031,-1.426 -1.043,-0.863 -4.053,-1.558 -5.666,-0.572 -1.215,0.743 -0.506,1.952 0.805,1.399"
     clip-path="url(#clipPath5762)"
     id="path222"
     style="fill:#0f141b" />
  <path
     transform="matrix(1.6262,0,0,-1.6262,-650.976,1085.57)"
     d="m 507.13,591.84 c -2.727,16.364 -13.17,21.455 -22.626,19.315 -10.618,-2.405 -18.651,-9.529 -16.53,-26.222 0.335,-2.632 -0.582,-2.746 -1.058,-0.132 -3.08,16.945 5.725,25.32 17.273,27.936 9.597,2.18 21.643,-2.585 24.003,-20.741 0.285,-2.197 -0.697,-2.345 -1.062,-0.156"
     clip-path="url(#clipPath5756)"
     id="path223"
     style="fill:#0f141b" />
  <path
     transform="matrix(1.6262,0,0,-1.6262,-650.976,1085.57)"
     d="m 487.3,612.41 c 0.725,-0.837 0.456,-1.934 -0.942,-2.517 -0.178,-0.074 -0.151,-0.149 0.011,-0.202 0.425,-0.137 0.766,-0.205 1.352,-0.291 1.682,-0.245 2.222,-2.489 -0.011,-3.065 -3.087,-0.796 -6.943,0.5 -7.258,2.029 -0.225,1.08 0.353,1.999 2.067,2.559 0.72,0.236 1.232,0.564 1.618,1.035 l 0.791,0.102 c -0.433,-0.754 -1.192,-1.365 -2.238,-1.707 -1.501,-0.491 -1.709,-1.123 -1.559,-1.845 0.216,-1.049 3.488,-2.182 6.438,-1.518 1.257,0.282 1.276,1.546 0.069,1.791 -0.726,0.148 -1.127,0.228 -1.733,0.471 -0.679,0.271 -0.71,0.728 -0.056,1.003 1.483,0.623 1.506,1.394 0.761,2.071 z"
     clip-path="url(#clipPath5750)"
     id="path224"
     style="fill:#0f141b" />
  <path
     transform="matrix(1.6262,0,0,-1.6262,-650.976,1085.57)"
     d="m 467.22,584.44 c -2.846,9.814 -10.566,23.794 -14.73,34.451 -0.846,2.167 -1.794,2.606 -2.712,3.365 -1.882,1.554 -2.135,4.192 -0.685,6.564 1.23,2.017 0.321,3.02 -1.606,1.748 -1.598,-1.056 -2.488,-3.053 -2.509,-4.775 -0.021,-1.768 -0.581,-1.842 -0.786,-0.087 -0.257,2.198 0.755,4.435 2.726,5.767 2.888,1.952 5.105,0.1 3.089,-3.243 -1.236,-2.049 -1.117,-3.769 0.462,-5.072 0.983,-0.81 2.192,-1.436 3.139,-3.816 3.934,-9.895 10.346,-21.734 13.597,-31.206 z"
     clip-path="url(#clipPath5744)"
     id="path225"
     style="fill:#0f141b" />
  <path
     transform="matrix(1.6262,0,0,-1.6262,-650.976,1085.57)"
     d="m 446.75,630.72 c -1.527,0.637 -3.928,-0.668 -4.211,-3.971 -0.272,-3.187 1.126,-5.39 3.342,-6.219 2.123,-0.794 3.493,-1.873 5.035,-4.724 3.165,-5.852 10.324,-22.959 14.679,-35.07 0.316,-1.196 0.636,-3.042 0.915,-5.142 l -1.206,-0.256 c -0.279,2.125 -0.584,3.899 -0.889,5.057 -4.334,12.05 -11.427,28.974 -14.577,34.798 -1.296,2.396 -2.565,3.632 -4.339,4.296 -2.881,1.077 -4.492,3.787 -4.19,7.317 0.397,4.644 4.373,6.161 6.655,4.723 z"
     clip-path="url(#clipPath5738)"
     id="path226"
     style="fill:#0f141b" />
  <path
     transform="matrix(1.6262,0,0,-1.6262,-650.976,1085.57)"
     d="m 506.94,595.28 c 0.802,10.781 2.326,30.756 2.804,38.736 0.126,2.118 0.711,3.926 1.752,5.675 1.047,1.758 0.534,3.312 -1.628,4.972 -2.697,2.07 -1.343,4.886 2.21,3.881 2.289,-0.648 3.889,-2.35 4.324,-4.526 0.295,-1.475 -0.281,-1.584 -0.774,-0.163 -0.675,1.944 -2.052,3.185 -3.86,3.701 -2.269,0.648 -2.807,-0.864 -1.265,-2.048 3.153,-2.421 2.816,-4.882 1.933,-6.367 -0.972,-1.631 -1.401,-3.173 -1.495,-5.157 -0.377,-7.985 -1.946,-27.764 -3.071,-42.266 z"
     clip-path="url(#clipPath5732)"
     id="path227"
     style="fill:#0f141b" />
  <path
     transform="matrix(1.6262,0,0,-1.6262,-650.976,1085.57)"
     d="m 512.55,582.62 c -0.184,1.932 -0.514,4.234 -0.753,5.85 0.709,12.55 2.009,36.01 2.938,43.549 0.315,2.561 0.85,4.036 2.506,5.495 2.98,2.627 3.322,5.538 1.248,9.165 -2.227,3.894 -6.092,3.43 -7.477,1.569 l 1.351,-0.337 c 1.334,1.167 3.786,0.644 5.148,-1.737 1.866,-3.263 1.339,-5.807 -0.967,-7.841 -1.803,-1.589 -2.491,-2.823 -2.96,-6.154 -1.056,-7.504 -2.273,-30.18 -3.025,-43.485 -0.015,-0.268 -0.018,-0.346 0.019,-0.597 0.228,-1.55 0.516,-3.62 0.693,-5.426 z"
     clip-path="url(#clipPath5726)"
     id="path228"
     style="fill:#0f141b" />
  <path
     transform="matrix(1.6262,0,0,-1.6262,-650.976,1085.57)"
     d="m 467.96,658.63 c -0.838,0.636 -1.299,1.581 -1.254,2.79 0.063,1.686 1.524,4.36 5.812,5.626 3.842,1.134 6.602,0.263 7.911,-1.199 0.934,-1.043 1.289,-2.587 0.853,-4.026 l -1.275,-0.061 c 0.492,1.256 0.23,2.409 -0.551,3.281 -1.459,1.63 -4.247,1.679 -6.653,0.966 -3.339,-0.986 -4.759,-3.137 -4.815,-4.611 -0.034,-0.913 0.435,-1.765 1.311,-2.188 z"
     clip-path="url(#clipPath5720)"
     id="path229"
     style="fill:#0f141b" />
  <path
     transform="matrix(1.6262,0,0,-1.6262,-650.976,1085.57)"
     d="m 451.25,569.64 c 7.943,4.779 20.979,9.21 35.74,11.854 13.163,2.337 27.074,2.471 37.066,0.527 l -0.234,-1.322 c -9.901,1.927 -23.468,1.635 -36.517,-0.71 -14.67,-2.627 -27.511,-6.754 -35.375,-11.485 z"
     clip-path="url(#clipPath5714)"
     id="path230"
     style="fill:#0f141b" />
</svg>
