<?xml version="1.0" encoding="UTF-8"?>
<!-- Created with Inkscape (http://www.inkscape.org/) -->
<svg version="1.1" viewBox="0 0 98.998 110.78" xmlns="http://www.w3.org/2000/svg">
 <defs>
  <clipPath id="clipPath21026">
   <path d="m0 792h612v-792h-612z"/>
  </clipPath>
  <linearGradient id="linearGradient21016" x2="1" gradientTransform="matrix(3.3308 -9.7359 9.7359 3.3308 26.211 72.724)" gradientUnits="userSpaceOnUse">
   <stop stop-color="#fad7b5" offset="0"/>
   <stop stop-color="#fad7b5" offset=".1"/>
   <stop stop-color="#7b59a2" offset=".9"/>
   <stop stop-color="#7b59a2" offset="1"/>
  </linearGradient>
  <linearGradient id="linearGradient20980" x2="1" gradientTransform="matrix(.13614 -14.431 14.431 .13614 66.359 83.439)" gradientUnits="userSpaceOnUse">
   <stop stop-color="#fad7b5" offset="0"/>
   <stop stop-color="#fad7b5" offset=".1"/>
   <stop stop-color="#7b59a2" offset=".9"/>
   <stop stop-color="#7b59a2" offset="1"/>
  </linearGradient>
  <clipPath id="clipPath1749">
   <path d="m-669.2-1068.7h1128.7v1460.6h-1128.7z" stroke-width="1.8442"/>
  </clipPath>
  <clipPath id="clipPath1764">
   <path d="m-669.2-1068.7h1128.7v1460.6h-1128.7z" stroke-width="1.8442"/>
  </clipPath>
  <clipPath id="clipPath1779">
   <path d="m-669.2-1068.7h1128.7v1460.6h-1128.7z" stroke-width="1.8442"/>
  </clipPath>
  <clipPath id="clipPath1794">
   <path d="m-669.2-1068.7h1128.7v1460.6h-1128.7z" stroke-width="1.8442"/>
  </clipPath>
  <clipPath id="clipPath1809">
   <path d="m-669.2-1068.7h1128.7v1460.6h-1128.7z" stroke-width="1.8442"/>
  </clipPath>
  <clipPath id="clipPath1824">
   <path d="m-669.2-1068.7h1128.7v1460.6h-1128.7z" stroke-width="1.8442"/>
  </clipPath>
  <clipPath id="clipPath1839">
   <path d="m-669.2-1068.7h1128.7v1460.6h-1128.7z" stroke-width="1.8442"/>
  </clipPath>
  <clipPath id="clipPath1854">
   <path d="m376.52 178.8h3.222v-5.684h-3.222z"/>
  </clipPath>
  <clipPath id="clipPath1869">
   <path d="m-669.2-1068.7h1128.7v1460.6h-1128.7z" stroke-width="1.8442"/>
  </clipPath>
  <clipPath id="clipPath1884">
   <path d="m399.37 184.02h6.436v-6.004h-6.436z"/>
  </clipPath>
  <clipPath id="clipPath1899">
   <path d="m-669.2-1068.7h1128.7v1460.6h-1128.7z" stroke-width="1.8442"/>
  </clipPath>
  <clipPath id="clipPath1914">
   <path d="m-669.2-1068.7h1128.7v1460.6h-1128.7z" stroke-width="1.8442"/>
  </clipPath>
  <clipPath id="clipPath1929">
   <path d="m393.42 175.41h6.139v-6.949h-6.139z"/>
  </clipPath>
 </defs>
 <g transform="translate(-3.8112 -3.3605)">
  <path d="m77.775 60.792c-0.63625-1.1987-0.59568-2.9692 0.2545-3.657 1.6598-1.3444 1.3149-3.6663-1.2209-5.042-8.0868-4.3892-26.158-6.9028-38.634-6.2611-3.8802 0.19917-4.2509 1.3592-3.5427 3.847 0.79116 2.7774 0.04057 4.0296-1.2817 4.6584-3.7788 1.7944-6.8383 4.0775-8.5534 6.1135 0.05533 0 0.11065 0.0018 0.16413 0 1.5159-0.09037 2.2591 2.1596 1.3868 4.5607-2.0139 5.5418-1.1452 12.845 0.54588 18.141 0.54035 1.693-0.19733 2.4104-1.4698 2.1337 3.9281 5.7465 12.29 9.8296 22.997 11.718 19.484 3.4376 33.579-3.2347 34.664-17.306 0.54404-7.0633-0.88522-10.569-5.3095-18.907" clip-path="url(#clipPath1839)" fill="#fff" stroke-width="1.8442"/>
  <path d="m81.648 68.888c-1.9936-0.52744-2.7921-3.1776-2.6077-5.6488-0.39466-0.76903-0.82067-1.5823-1.2799-2.4454-0.63625-1.1987-0.59568-2.9692 0.2545-3.657 1.4956-1.2098 1.3573-3.2144-0.54035-4.605-7.0448 3.0835-32.196-0.0018-41.749-6.309-1.5602 0.54588-1.6229 1.6487-1.1084 3.4579 0.79116 2.7792 0.04057 4.0314-1.2817 4.6584-3.7788 1.7944-6.8383 4.0775-8.5516 6.1154 0.05348 0 0.10881 0.0018 0.16229 0 0.54773-0.03504 0.99218 0.24344 1.2983 0.71739 1.5823 0.3504 3.2052 0.78563 4.5994 1.2467 0.24159 1.2651 0.33196 3.5741 0.20471 5.4883-1.1028 0.79301-2.4639 1.7926-3.7456 2.8401 1.385 1.3186 4.3652 2.6759 8.0555 3.9171 1.0383-0.85386 2.9526-1.3075 5.3961-0.59752 1.9512 0.56617 3.2384 1.7465 3.6073 3.0927 4.5921 1.0567 9.2339 1.8331 12.801 2.1264 1.0659-1.5196 2.4436-3.3712 3.4689-4.5902 0.0166-0.69526 0.0166-1.5657 0.0166-2.3126 2.119-1.479 4.8429-3.3306 7.1039-4.7912 1.6026 0.4629 3.4007 1.1047 4.8613 1.9051 1.6469 2.4141 3.8267 6.7996 5.0144 10.119 0.75243-0.0166 1.5325-0.06086 2.2149-0.10881 0.20102-1.3204 1.835-2.4288 3.3325-1.9622 0.05348-3.1997-0.41126-5.7355-1.527-8.6567" clip-path="url(#clipPath1824)" fill="#bbe1e8" stroke-width="1.8442"/>
  <g fill="#fff" stroke-width="1.8442">
   <path d="m78.107 57.067c1.5639-1.3518 1.1914-3.6165-1.3002-4.9683-8.0868-4.3892-26.158-6.9028-38.632-6.2629-3.882 0.20102-4.2509 1.3592-3.5446 3.847 0.09774 0.33749 0.16967 0.65285 0.2213 0.94608 9.5659 7.3657 32.493 10.127 43.256 6.4381" clip-path="url(#clipPath1809)"/>
   <path d="m25.178 85.228c1.4145 0.41863 2.2739-0.28032 1.7022-2.0747-1.6911-5.2965-2.5579-12.6-0.54588-18.141 0.87415-2.4011 0.12909-4.6511-1.3868-4.5607-1.4625 0.08668-2.7792-1.1711-3.2403-3.1646-0.81698-3.5243-3.0558-7.0024-7.386-9.682-0.63994-0.3965-1.4625-0.54588-2.1448-0.56248-2.7331-0.06639-6.2094 0.89997-7.5723 1.7963-0.76903 0.50347-0.54035 1.1692 0.51084 1.4551 4.2619 1.1471 8.7489 9.2874 7.5557 14.447-2.0839 9.0015 4.2103 18.047 12.507 20.487" clip-path="url(#clipPath1749)"/>
   <path d="m67.097 96.883c-5.2799 1.278-11.624 1.3647-18.68 0.11987-6.6649-1.1748-12.421-3.2015-16.766-5.9494-1.6192 0.75797-2.9544 1.6081-4.1384 2.877-0.67866 0.72662-0.79116 1.7114 0.41126 2.7073 4.2453 3.5132 11.709 6.3865 19.781 7.5612 10.418 1.5159 17.868 0.60858 21.125-1.5528 0.92763-0.61596 1.1637-1.2965 0.51822-2.4417-0.59568-1.0586-1.3463-2.2075-2.2518-3.3214" clip-path="url(#clipPath1764)"/>
  </g>
  <path d="m27.926 96.644c4.2453 3.5132 11.709 6.3865 19.781 7.5612 10.418 1.5159 17.868 0.60859 21.125-1.5528 0.92763-0.61596 1.1637-1.2965 0.51822-2.4417-0.31905-0.56617-0.6842-1.1563-1.0899-1.7538 0.13094 1.0918-0.46105 1.8368-1.7188 2.1596-5.326 1.3684-11.908 1.136-18.156 0.0645-7.6682-1.3112-14.518-3.6718-18.567-6.2924-0.81329-0.5256-1.1065-1.1084-0.94239-1.6874-0.47949 0.36884-0.93132 0.77272-1.3629 1.2356-0.67682 0.72662-0.78932 1.7114 0.4131 2.7073" clip-path="url(#clipPath1779)" fill="#ffe792" stroke-width="1.8442"/>
  <g fill="#dbdcdc" stroke-width="1.8442">
   <path d="m77.48 52.53c-0.2084-0.15307-0.4297-0.3006-0.68051-0.43523-8.0868-4.3892-26.158-6.9028-38.632-6.2629-1.0604 0.05348-1.8497 0.18442-2.4362 0.38913 9.553 6.3072 34.704 9.3925 41.749 6.309" clip-path="url(#clipPath1794)"/>
   <path d="m77.48 52.53c-0.2084-0.15307-0.50716-0.32827-0.75797-0.46289-8.0868-4.3892-26.274-6.8328-38.748-6.1928-1.0604 0.05533-1.8497 0.18258-2.4343 0.38913 9.553 6.3072 34.896 9.3501 41.941 6.2666" clip-path="url(#clipPath1899)"/>
   <path d="m26.414 61.161c0.97558 0.23606 3.3823 0.85755 4.4445 1.2633 0.05533 0.24712 0.08668 0.63994 0.11803 0.9387-1.4938-0.47212-2.8788-0.83358-4.3431-1.1784-0.0627-0.28585-0.10881-0.63072-0.21946-1.0235" clip-path="url(#clipPath1914)"/>
  </g>
  <g stroke-width="1.8442">
   <path d="m60.661 72.374c0 0.74874 0 1.6192-0.01844 2.3145-1.3168 1.5676-3.2218 4.1826-4.2878 5.7853 0.82805 0.87415 1.645 1.7612 2.4343 2.6077 3.9208 0.63994 10.267 1.042 13.962 1.0235 1.6358-1.6727 2.6151-2.8106 3.7013-4.2712-0.92579-2.8308-3.0983-7.0338-4.5035-9.5437-1.5952-0.7469-3.4837-1.361-5.4459-1.8811-1.9622 1.2928-4.1052 2.7534-5.8424 3.965" fill="url(#linearGradient20980)"/>
   <path d="m73.386 85.394c1.7631-1.7446 3.4007-3.6847 4.415-5.3058-1.1397-3.3638-3.4542-8.0647-5.1822-10.593-1.4588-0.80223-3.2569-1.4422-4.8595-1.9051-0.40572 0.26188-0.83173 0.5422-1.2614 0.82436 1.9622 0.51822 3.8507 1.1342 5.4459 1.8811 1.4053 2.5118 3.5777 6.7129 4.5035 9.5437-1.0862 1.4588-2.0655 2.5985-3.7032 4.273-3.6939 0.0166-10.04-0.38359-13.961-1.0254 0.43154 0.46289 0.85755 0.91657 1.267 1.3463 3.4191 0.58646 9.8093 0.92394 13.335 0.96083" clip-path="url(#clipPath1869)" fill="#dbdcdc"/>
   <path d="m26.34 65.016c-0.84464 2.3237-1.1766 4.9591-1.16 7.6239 1.693-1.6727 4.1126-3.4616 5.8738-4.7304 0.09959-1.4883 0.06639-3.2144-0.06639-4.5035-1.3795-0.44076-2.877-0.86677-4.3652-1.2485 0.16413 0.80592 0.09774 1.8165-0.28216 2.8585" fill="url(#linearGradient21016)"/>
  </g>
  <g transform="matrix(1.8442 0 0 -1.8442 -669.2 391.9)" clip-path="url(#clipPath21026)">
   <path d="m399.56 175.22c-0.963-0.645-2.171-1.501-2.996-2.11-0.196-0.146-0.294-0.41-0.296-0.683 0-0.122-2e-3 -0.247-4e-3 -0.366-5e-3 -0.253-0.097-0.473-0.242-0.643-0.674-0.791-1.536-1.931-2.216-2.964l-0.385 0.408c0.521 0.796 1.551 2.203 2.326 3.136-5e-3 0.492 5e-3 0.844 0.01 1.255 1.085 0.8 2.483 1.703 3.168 2.151z" clip-path="url(#clipPath1929)" fill="#030505" opacity=".1719"/>
   <path d="m379.74 177.48c-0.264 0.086-0.608 0.179-0.95 0.266-0.475 0.121-0.787-0.039-0.886-0.437-0.274-1.095-0.739-2.125-0.692-3.548-0.259-0.212-0.473-0.415-0.694-0.645 0.019 1.302 0.1 2.916 0.676 4.327 0.202 0.499 0.205 1.042 0.107 1.356 0.649-0.166 1.62-0.413 2.366-0.676 0.018-0.2 0.055-0.421 0.073-0.643" clip-path="url(#clipPath1854)" fill="#020606" opacity=".1719"/>
   <path d="m408.93 179.31c-0.744-0.311-0.871-1.077-0.192-1.55 0.658-0.459 0.901-0.963 0.825-1.572-0.099-0.801-0.663-1.265-1.764-1.21-1.399 0.069-2.168 1.328-2.071 3.088 0.095 1.7 2.098 3.648 5.34 3.529 4.692-0.172 7.361-3.79 7.297-7.409-0.069-3.851-3.287-6.604-7.184-7.761-2.735-0.811-3.654-1.468-4.525-2.817-0.75-1.161-1.72-1.427-2.138-1.153-0.382 0.249-0.435 0.972 0.418 2.455 0.771 1.338 1.646 2.069 3.224 2.477 5.11 1.319 7.816 3.523 7.874 6.878 0.057 3.278-2.231 5.301-4.989 5.43-0.7 0.033-1.493-0.124-2.115-0.385" fill="#ffe792"/>
   <path d="m405.69 177.57c-0.493-1.835-0.185-4.812 2.159-4.703-0.23 0.84-0.436 1.61-0.684 2.257-0.853 0.192-1.423 1.234-1.475 2.446" fill="#a2c3c9"/>
   <g fill="#64bfaa">
    <path d="m405.22 181.56c-5.836-2-18.269-0.503-23.456 3.491 0.193-1.084-0.141-1.643-0.705-1.956 0.994-0.375 2.367-0.287 3.302 0.179 0.611-3.144 6.253-4.695 9.169-2.77 2.462-2.589 8.131-2.733 9.501 0.146 0.502-0.759 1.284-1.111 2.063-1.217-0.459 0.866-0.349 1.716 0.126 2.127"/>
    <path d="m399.5 180.7c-6.153-0.17-13.91 1.415-17.733 4.359 0.192-1.084-0.141-1.643-0.705-1.956 0.993-0.375 2.366-0.287 3.302 0.179 0.611-3.144 6.252-4.695 9.168-2.769 2.213-2.326 7.01-2.677 8.956-0.638-0.666 0.183-1.416 0.29-2.264 0.34-0.401 0.024-0.637 0.213-0.724 0.485"/>
    <path d="m405.09 179.44c-0.035 0.065-0.069 0.131-0.105 0.198-0.317 0.599-0.247 1.448 0.237 1.928-1.535-0.525-3.528-0.808-5.723-0.868 0.088-0.273 0.323-0.461 0.724-0.486 0.848-0.049 1.598-0.156 2.264-0.339 0.221 0.231 0.407 0.491 0.546 0.783 0.501-0.757 1.28-1.109 2.057-1.216"/>
   </g>
   <g fill="#dbdcdc">
    <path d="m369.39 187.02c0.157-0.212 0.172-0.592-0.212-0.724-0.823-0.282-1.54-0.466-2.492-0.571 2.929-1.28 4.9-5.412 4.96-9.026 0.044-2.638 1.541-6.033 5.108-6.021 0.111-1.052 0.304-2.201 0.664-3.183 0.36-0.983-0.022-1.47-1.08-1.15-4.703 1.427-7.65 6.497-6.602 11.129 0.581 2.569-1.464 6.93-4.166 7.807-0.523 0.17-0.571 0.573-0.226 0.761 1.116 0.609 2.851 1.015 4.046 0.978"/>
    <path d="m376.6 171.42c4.645-6.765 21.488-9.982 29.325-5.107-1.596-1.928-1.931-3.301-1.439-3.792-6.533-5.995-24.084-2.395-27.822 3.751 0.692-0.137 1.032 0.144 0.739 1.153-0.415 1.43-0.701 2.823-0.803 3.995"/>
    <path d="m379.03 162.62c3.038-3.422 17.521-5.812 20.617-3.211l-0.409 0.607c-6.383-1.292-12.897-0.175-19.191 3.125-0.372-0.162-0.707-0.335-1.017-0.521"/>
   </g>
   <path d="m407.78 172.78c-0.979 0.688-1.43 1.91-1.375 2.833l0.365-0.295c0.055-0.697 0.356-1.413 0.936-2.007z" fill="#55a694"/>
   <path d="m378.01 160.1c2.302-1.905 6.349-3.463 10.726-4.1 5.649-0.822 9.689-0.33 11.455 0.842 0.426 0.283 0.579 0.593 0.405 1.058-4.302-3.376-19.614-0.754-22.94 3.503-0.24-0.371-0.211-0.835 0.354-1.303" fill="#dbc77f"/>
   <path d="m377.93 161.7c0.238-0.455 0.906-1.108 1.439-1.351 0.401-0.181 0.788-0.166 1.037 0.154-1.267 0.695-1.97 1.073-1.886 1.74-0.245-0.195-0.396-0.335-0.59-0.543" fill="#fffded"/>
   <path d="m407.3 167.07c-0.434-0.69 0.108-1.19 1.145-0.746 0.872 0.374 1.702 0.637 2.892 0.983 3.879 1.127 6.795 3.916 6.893 7.973 0.693-4.623-3.054-7.606-6.934-8.804-2.574-0.794-3.758-1.49-4.609-2.809-0.739-1.144-1.6-1.499-2.201-1.149-0.332 0.194-0.332 0.941 0.055 1.716 0.796 1.591 1.841 2.619 2.759 2.836" fill="#dbc77f"/>
   <path d="m405.72 177.22c0.854-2.432 3.614-1.145 2.493 0.274-0.989 1.253-0.622 2.435 1.42 2.789 2.92 0.508 5.508-0.931 6.311-3.967-1.532 2.902-4.613 4.023-6.934 3.041-0.917-0.389-0.944-1.128-0.31-1.555 0.905-0.609 1.075-1.664 0.628-2.233-0.814-1.039-3.405-0.803-3.608 1.651" fill="#dbc77f"/>
   <path d="m406.37 179.61c-0.168-0.512 0.408-0.749 0.848-0.186 1.562 2.004 5.685 1.775 7.813-0.017 0.576-0.485 0.996-0.143 0.803 0.345-1.889 2.224-7.513 2.762-9.464-0.142" fill="#fffded"/>
   <path d="m404.88 184.02c1.048-0.767 1.068-1.72 0.337-2.458-0.404-0.406-0.452-1.329-0.26-1.842 0.193-0.512 0.475-0.974 0.846-1.705-0.879 1.101-2.235 1.848-5.448 2.166-0.804 0.08-1.077 0.565-0.795 1.193s0.218 1.372-0.193 2.026c1.655-0.076 3.767 0.099 4.792 0.375 0.179 0.044 0.493 0.143 0.721 0.245" clip-path="url(#clipPath1884)" fill="#060f0f" opacity=".13678"/>
   <g fill="#64bfaa">
    <path d="m376.66 179.7c0.923 0.405 1.806 1.33 1.772 1.922l0.357 0.207c0.2-0.784-0.802-1.864-1.796-2.335z"/>
    <path d="m379.6 178.48c0.554 0.796 1.377 1.179 1.983 0.876 0.429-0.215 0.689-0.887 0.267-1.886-0.444-1.048-1.181-1.228-1.551-1.121-0.419 0.121-0.47 0.678-0.291 1.024 0.17 0.325 0.423 0.232 0.295-0.111-0.098-0.26-0.044-0.522 0.11-0.567 0.186-0.054 0.697 0.103 1.059 0.958 0.279 0.658 0.149 1.152-0.121 1.295-0.347 0.182-1.152-0.086-1.668-1.007z"/>
    <path d="m379.17 175.3c0.78-0.693 2.534-0.129 3.502 1.997 0.607 1.335 0.442 2.808-0.157 3.276-0.777 0.608-2.713-0.419-3.594-1.674l-0.415 0.124c1.061 1.656 3.352 2.728 4.349 1.962 0.701-0.54 1.032-2.195 0.265-3.881-1.128-2.477-3.263-3.004-4.236-2.054z"/>
    <path d="m391.22 171.08c-1.603 0.517-2.066 2.65-1.414 4.674 0.659 2.042 2.566 3.126 4.155 2.685 1.426-0.394 2.174-1.999 1.668-4.364-0.576-2.688-3.229-3.567-5.745-3.108-2.922 0.533-5.41 3.324-4.383 6.595 0.366 1.166 1.218 1.789 1.769 1.605 0.483-0.161 0.625-1.109 0.068-2.534-0.742-1.899-2.951-3.129-4.808-3.157-1.401-0.018-2.966 0.888-3.213 1.938l0.271 0.203c0.215-0.932 1.624-1.705 2.948-1.687 1.752 0.027 3.774 1.217 4.417 2.864 0.366 0.935 0.354 1.864 0.165 1.928-0.251 0.083-0.93-0.405-1.201-1.267-0.968-3.086 1.575-5.548 4.081-6.005 2.525-0.46 4.753 0.422 5.248 2.736 0.382 1.788-0.109 3.467-1.412 3.829-1.392 0.385-3.103-0.693-3.644-2.373-0.584-1.808-0.282-3.945 1.681-4.497z"/>
    <path d="m394.5 170.46c-3.077 0.273-4.361 1.586-3.715 4.214 0.288 1.175 1.206 1.984 2.117 1.883 0.59-0.066 1.103-0.72 0.921-1.921-0.143-0.942-0.615-1.419-1.192-1.419-0.541 0-0.866 0.351-0.853 0.899 0.012 0.484 0.272 0.509 0.325 0.029 0.04-0.356 0.273-0.495 0.528-0.495 0.37 0 0.64 0.354 0.749 1.074 0.122 0.808-0.175 1.31-0.55 1.362-0.615 0.087-1.381-0.615-1.602-1.519-0.555-2.256 0.41-3.424 3.616-3.704z"/>
    <path d="m397.77 174.65c-0.12 1.508 0.204 2.623 0.752 2.705 0.544 0.08 1.07-0.628 1.278-1.545l-0.36-0.046c-0.195 0.775-0.547 1.199-0.829 1.158-0.206-0.031-0.55-0.739-0.507-2.048z"/>
    <path d="m401.12 175.37c0.067 1.349 0.956 2.763 2.201 2.759 1.039-4e-3 2.188-1.21 2.436-3.272 0.25-2.073-0.215-3.227-1.426-3.93l-0.161 0.364c1.052 0.733 1.374 1.688 1.154 3.52-0.21 1.738-1.217 2.859-1.989 2.861-0.882 3e-3 -1.797-1.264-1.818-2.491z"/>
   </g>
   <path d="m405.82 174.21c-0.01 0.205-0.027 0.419-0.055 0.646-0.052 0.432-0.145 0.824-0.267 1.177-3e-3 -0.638 0.094-1.283 0.322-1.823" fill="#55a694"/>
   <g fill="#64bfaa">
    <path d="m402.48 174.47c0.01 0.661 0.412 1.318 0.92 1.356 0.455 0.036 1.045-0.438 1.153-1.473 0.14-1.338-0.316-1.611-0.647-1.672-0.45-0.083-0.834 0.284-0.859 0.762-0.021 0.422 0.209 0.447 0.298 0.034 0.059-0.273 0.219-0.453 0.488-0.404 0.254 0.046 0.393 0.378 0.3 1.26-0.074 0.709-0.414 0.987-0.705 0.968-0.404-0.031-0.665-0.806-0.595-1.506z"/>
    <path d="m407.85 172.54c-0.577-1.458-2.097-2.279-3.359-2.059l-0.157 0.444c1.385-0.327 2.891 0.807 3.359 2.33z"/>
    <path d="m407.95 170.27c-0.852 0.281-1.643-0.444-1.61-1.062 0.025-0.451 0.193-0.69 0.54-0.674 0.311 9e-3 0.421 0.139 0.424 0.387 4e-3 0.245-0.142 0.347-0.328 0.261-0.249-0.114-0.367 0.079-0.142 0.235 0.353 0.247 0.822 0.012 0.794-0.514-0.025-0.453-0.296-0.701-0.757-0.715-0.591-0.018-0.859 0.37-0.893 0.995-0.05 0.921 0.953 1.777 1.984 1.488z"/>
    <path d="m404.89 169.5c0.444 9e-3 0.965 0.044 1.323 0.07l-0.091-0.347c-0.331-0.024-0.698-0.045-1.101-0.055z"/>
    <path d="m386.83 170.89c2.76-0.611 5.05-1.023 7.149-1.19l-0.286-0.364c-1.899 0.162-4.238 0.547-6.706 1.132z"/>
    <path d="m377.82 174.26c0.824-0.777 2.66-1.552 4.375-2.111l-0.334-0.279c-1.604 0.544-3.462 1.313-4.327 2.163z"/>
    <path d="m385.81 169.08c-0.599 0.186-0.74 0.671-0.603 1.168 0.149 0.542 0.909 0.619 1.134 0.145 0.136-0.286-0.079-0.388-0.256-0.13-0.145 0.21-0.461 0.146-0.532-0.112-0.09-0.325 0.046-0.607 0.379-0.71 0.392-0.122 0.717 0.033 0.821 0.388 0.27 0.926-0.494 1.951-1.853 2.346-1.186 0.344-2.238 0.141-2.76-0.307-0.442-0.38-0.468-1.182-0.086-1.415 0.373-0.229 0.752-0.095 0.809 0.211 0.058 0.304-0.114 0.501-0.381 0.453-0.357-0.065-0.416 0.202-0.065 0.294 0.436 0.114 0.882-0.246 0.775-0.813-0.113-0.6-0.815-0.779-1.328-0.464-0.616 0.377-0.613 1.431 0.034 1.986 0.661 0.568 1.783 0.818 3.115 0.432 1.736-0.505 2.374-1.787 2.067-2.834-0.186-0.636-0.766-0.794-1.27-0.638"/>
   </g>
   <g fill="#0f141b">
    <path d="m376.57 166.47c0.73-0.216 0.961 0.162 0.725 0.903-0.895 2.804-1.512 6.808-0.364 9.967 0.38 1.047 0.13 2.186-0.539 2.15-1.035-0.059-1.665 0.692-1.951 1.928-0.443 1.908-1.771 3.78-3.911 5.104-0.289 0.178-0.673 0.283-1.07 0.293-1.239 0.032-3.089-0.386-4.008-0.93-0.272-0.161-0.207-0.371 0.233-0.478 2.381-0.58 4.957-5.01 4.257-8.04-1.101-4.758 2.385-9.594 6.628-10.897m-0.107-0.364c-4.772 1.288-8.123 6.222-6.939 11.342 0.614 2.656-1.679 7.001-3.943 7.615-0.739 0.2-0.855 0.758-0.309 1.097 1.067 0.666 2.952 1.074 4.2 1.044 0.52-0.012 0.907-0.112 1.273-0.338 2.144-1.327 3.569-3.167 4.081-5.377 0.199-0.859 0.761-1.583 1.557-1.533 1.148 0.067 1.465-1.422 0.977-2.765-1.106-3.042-0.611-6.995 0.258-9.716 0.372-1.167-0.228-1.619-1.155-1.369"/>
    <path d="m368.98 186.05c-0.71-0.289-1.407-0.418-2.245-0.509-0.548-0.059-0.713 0.124-0.739 0.322-0.024 0.187 0.092 0.212 0.164 0.038 0.038-0.095 0.149-0.16 0.562-0.107 0.798 0.104 1.496 0.259 2.17 0.49 0.36 0.124 0.424 0.158 0.475 0.318 0.054 0.175 0.172 0.146 0.154-0.032-0.026-0.249-0.131-0.353-0.541-0.52"/>
    <path d="m405.72 177.7c-0.271 0.54-0.573 1.117-0.906 1.746-0.325 0.611-0.349 1.74 0.222 2.203 0.624 0.505 0.759 1.666-0.635 2.422-4.182 2.27-14.538 3.672-20.832 3.369-2.001-0.096-2.018-0.804-1.729-1.822 0.424-1.488 0.11-2.343-0.804-2.777-1.872-0.889-3.527-2.094-4.441-3.13l-0.567 0.045c0.807 1.11 2.921 2.556 4.836 3.448 0.642 0.299 0.969 0.897 0.562 2.326-0.401 1.409-0.277 2.206 2.118 2.33 6.601 0.338 16.484-0.931 21.06-3.414 1.603-0.87 1.734-2.241 0.7-3.078-0.396-0.319-0.369-1.196-0.083-1.734 0.195-0.368 0.379-0.717 0.553-1.051z"/>
    <path d="m407.27 167.12c0.208 0.692 0.343 1.426 0.403 2.196 0.182 2.362-0.06 3.998-0.865 6.016l0.622-0.301c0.713-1.892 0.901-3.462 0.723-5.77-0.052-0.678-0.157-1.377-0.319-1.946z"/>
    <path d="m404.81 162.4c-3.274-2.851-8.762-3.957-15.727-2.728-6.097 1.076-10.667 3.386-12.792 6.659l0.662-0.096c2.128-2.928 6.334-5.055 12.218-6.093 6.681-1.178 11.953-0.136 15.139 2.519z"/>
    <path d="m392.67 183.81c-3.755 0.593-7.618 1.771-9.711 3.042-0.534 0.324-0.409 0.527 0.149 0.238 2.337-1.21 5.915-2.258 9.636-2.844 5.259-0.831 10.112-0.799 11.393-0.376 0.498 0.165 0.596-0.065 0.099-0.265-1.318-0.53-6.168-0.647-11.566 0.205"/>
    <path d="m379.47 178.72c0.748 1.531 2.656 2.818 5.498 3.796 0.667 0.228 0.898 0.667 0.768 1.499-0.116 0.743 6e-3 1.334 0.685 1.536l0.445-0.164c-0.878-0.139-0.933-0.649-0.827-1.332 0.149-0.954-0.11-1.535-0.964-1.828-2.844-0.978-4.553-2.204-5.426-3.733z"/>
    <path d="m376.52 173.38c0.876 0.848 2.039 1.697 3.026 2.409 0.06 0.975 0.024 2.065-0.095 2.747-0.696 0.227-1.462 0.441-2.268 0.621l-0.197 0.385c0.877-0.188 1.821-0.438 2.589-0.686 0.145-0.047 0.182-0.074 0.21-0.243 0.114-0.691 0.158-1.859 0.105-2.823-9e-3 -0.171-0.036-0.213-0.16-0.303-1.043-0.754-2.354-1.762-3.212-2.632z"/>
    <path d="m379.69 177.96c-0.737 0.236-1.545 0.467-2.373 0.68l-0.021 0.274c0.819-0.209 1.613-0.418 2.351-0.652z"/>
    <path d="m399.47 175.82c0.057 0.876-0.708 2.241-1.975 3.627-0.732 0.802-0.575 1.477-0.211 2.061 0.565 0.906 0.621 1.513-0.227 2.036l0.494-0.02c0.615-0.485 0.638-1.148 0.01-2.156-0.458-0.736-0.281-1.241 0.159-1.723 1.463-1.601 2.064-2.828 2.015-3.814z"/>
    <path d="m395.52 166.88c1.875-0.316 5.271-0.473 7.067-0.493 0.949 0.943 1.756 1.898 2.279 2.72-0.605 1.761-1.81 4.195-2.738 5.561-0.827 0.449-1.779 0.778-2.488 0.985-1.064-0.687-2.417-1.595-3.707-2.495 0-0.358-1e-3 -0.739-8e-3 -1.074-2e-3 -0.112-0.025-0.174-0.092-0.255-0.679-0.818-1.49-2.039-2.117-2.942 0.648-0.735 1.251-1.422 1.804-2.007m7.02-0.867c-1.802 0.025-5.154 0.206-7.03 0.512-0.134 0.021-0.191 0.049-0.268 0.132-0.607 0.648-1.251 1.337-1.896 2.023-0.124 0.132-0.139 0.188-0.026 0.355 0.593 0.876 1.601 2.166 2.293 3.006-5e-3 0.36-0.02 0.772-0.021 1.143-1e-3 0.147 0.021 0.177 0.136 0.258 1.269 0.884 2.656 1.838 3.71 2.522 0.113 0.073 0.183 0.079 0.338 0.032 0.692-0.205 1.65-0.533 2.446-0.951 0.133-0.07 0.164-0.101 0.235-0.207 0.922-1.386 2.147-3.879 2.754-5.624 0.051-0.148 0.043-0.192-0.035-0.313-0.525-0.815-1.388-1.834-2.312-2.761-0.113-0.113-0.167-0.129-0.324-0.127"/>
    <path d="m399.08 175.53c1.099-0.294 1.974-0.615 2.783-0.945 0.097-0.039 0.155-0.088 0.217-0.198 0.841-1.51 1.897-3.601 2.384-5.024 0.048-0.14 0.049-0.201-0.039-0.318-0.524-0.7-1.095-1.38-1.923-2.208-0.102-0.103-0.154-0.119-0.317-0.119-1.979 5e-3 -5.191 0.196-7.248 0.515l-0.277 0.36c2.048-0.351 5.531-0.561 7.591-0.561 0.864 0.875 1.387 1.474 1.925 2.194-0.483 1.53-1.507 3.532-2.388 5.066-0.802 0.372-1.747 0.702-2.955 1.017z"/>
    <path d="m391.64 159.55c3.056 1.145 5.701 3.609 7.412 6.777-0.177 0.25-0.324 0.438-0.53 0.71l0.355 4e-3c0.161-0.214 0.31-0.411 0.434-0.582 0.069-0.096 0.071-0.149 0.014-0.263-1.619-3.193-4.171-5.56-7.06-6.703z"/>
    <path d="m382.6 161.76c-1.875 1.497-3.734 3.61-4.196 4.449-0.614 1.113-1.22 2.741-1.744 4.552l-0.049 1.163c0.655-2.534 1.551-4.531 2.101-5.529 0.496-0.901 2.718-3.42 4.733-4.946z"/>
    <path d="m399.44 160.02c0.425-0.529 0.817-1.113 1.183-1.761 0.408-0.725 0.279-1.158-0.335-1.574-1.965-1.332-6.157-1.749-11.584-0.959-4.409 0.642-8.485 2.229-10.834 4.228-0.715 0.609-0.727 1.215-0.227 1.753 0.581 0.621 1.255 1.094 2.197 1.544l0.387-0.233c-1.06-0.49-1.657-0.895-2.293-1.577-0.37-0.397-0.325-0.741 0.207-1.182 2.279-1.886 6.321-3.414 10.621-4.04 5.732-0.835 9.707-0.28 11.314 0.786 0.476 0.317 0.518 0.575 0.228 1.089-0.382 0.678-0.805 1.304-1.252 1.848z"/>
    <path d="m378.75 162.39c-0.191-0.321-0.073-0.625 0.38-0.918 2.208-1.429 5.927-2.676 9.993-3.371 3.532-0.605 6.842-0.731 9.768 0.02 0.743 0.192 0.978 0.648 0.739 1.346l0.419-0.551c-7e-3 -0.453-0.249-0.93-1.068-1.138-2.891-0.736-6.411-0.711-9.96-0.104-4.098 0.701-7.852 1.998-10.094 3.503-0.493 0.331-0.652 0.608-0.602 0.953z"/>
    <path d="m408.86 179.49c0.637 0.267 1.396 0.446 2.195 0.409 2.944-0.138 5.253-2.308 5.195-5.625-0.058-3.43-2.657-5.657-8.056-7.052-1.483-0.382-2.324-1.059-3.106-2.417-0.833-1.448-0.683-2.009-0.436-2.17 0.352-0.23 1.18 0.032 1.852 1.073 0.938 1.452 1.934 2.097 4.616 2.893 3.518 1.045 6.956 3.648 7.026 7.582 0.059 3.334-2.439 7.047-7.078 7.218-3.252 0.121-5.076-1.875-5.158-3.345-0.093-1.686 0.686-2.811 1.901-2.871 1.064-0.055 1.489 0.357 1.572 1.03 0.068 0.538-0.121 0.944-0.759 1.389-0.772 0.537-0.716 1.489 0.236 1.886m0.148-0.354c-0.679-0.284-0.71-0.837-0.158-1.222 0.796-0.555 1.012-1.22 0.943-1.776-0.132-1.058-0.895-1.45-2-1.397-1.44 0.071-2.354 1.35-2.244 3.339 0.1 1.789 2.158 3.851 5.523 3.727 4.943-0.181 7.61-3.962 7.545-7.647-0.076-4.292-3.681-6.816-7.384-7.916-2.872-0.853-3.58-1.421-4.424-2.731-0.89-1.377-1.975-1.533-2.418-1.244-0.484 0.316-0.617 1.031 0.362 2.731 0.889 1.544 1.797 2.182 3.371 2.589 5.018 1.296 7.587 3.493 7.641 6.674 0.05 2.893-1.805 5.095-4.726 5.232-0.678 0.032-1.386-0.088-2.031-0.359"/>
    <path d="m403.99 183.68c-0.04 0.12-0.084 0.186-0.169 0.266-0.226 0.212-0.15 0.357 0.116 0.169 0.13-0.092 0.222-0.205 0.294-0.358z"/>
   </g>
   <path d="m401.65 188.38c-0.536 0-1 0.157-1.482 0.548-0.458 0.371-0.498 0.932-0.246 1.237l0.256-0.209c-0.138-0.157-0.125-0.503 0.208-0.773 0.359-0.291 0.656-0.415 1.014-0.456z" fill="#64bfaa"/>
   <path d="m382.93 187.02c0.113 0.47 0.646 0.831 1.167 0.771l0.026-0.327c-0.452 0.05-0.813-0.23-0.883-0.604z" fill="#0f141b"/>
   <path d="m392.67 183.81c-3.755 0.593-7.618 1.771-9.711 3.042-0.534 0.324-0.409 0.527 0.149 0.238 2.337-1.21 5.915-2.258 9.636-2.844 5.259-0.831 10.112-0.799 11.393-0.376 0.498 0.165 0.596-0.065 0.099-0.265-1.318-0.53-6.168-0.647-11.566 0.205" fill="#0f141b"/>
   <path d="m409.23 195.98c-1.33 0.408-3.222 1.302-3.949 1.715 0.148 0.527 0.288 1.131 0.394 1.592-0.605 0.463-1.475 1.169-1.998 1.638-0.544 1.034-1.264 2.617-1.672 3.609-0.591 0.176-1.468 0.435-2.128 0.667-0.931-0.444-2.145-1.116-2.951-1.619-0.932 0.771-2 1.995-2.42 2.989-0.139 0.327-0.083 0.623 0.107 0.87 2.483 3.229 8.333 3.331 12.758 0.097 3.116-2.279 4.682-6.668 3.559-9.889l-0.244 0.238c-0.155-0.999-0.751-1.639-1.456-1.907" fill="#fff"/>
   <path d="m406.89 202.66c1.371-2.856 3.4-3.454 4.387-2.173-0.193 2.624-1.637 5.391-3.899 7.044-2.56 1.872-5.597 2.624-8.184 2.302-0.628-0.479-1.129-1.009-1.038-1.346 0.18-0.664 0.678-1.343 3.101-1.937-0.069-0.395-0.102-1.097 0.154-1.842 0.217-0.066 0.423-0.127 0.602-0.181 0.176-0.429 0.411-0.969 0.664-1.526 0.035-0.026 0.066-0.053 0.102-0.078 1.661-1.162 3.336-0.83 4.111-0.263" fill="#bbe1e8"/>
   <path d="m408.01 205.68c-0.308-0.485-1.384-0.483-2.935 0.501-1.444 0.916-1.93 2.013-1.642 2.468 0.305 0.48 1.419 0.506 2.947-0.464 1.392-0.883 1.948-2.003 1.63-2.505" fill="#64bfaa"/>
   <g fill="#ffe792">
    <path d="m407.73 209.97c-0.947 0.768-2.343 0.701-2.875-4e-3 -0.418-0.556-0.172-1.414 0.358-1.934-0.195-0.153-0.235-0.282-0.167-0.416 0.155-0.308 0.742-0.694 1.169-0.789 0.183-0.041 0.307 0.01 0.418 0.308 0.667-0.229 1.542-0.046 1.923 0.547 0.322 0.502 0.221 1.439-0.826 2.288"/>
    <path d="m394.93 207.81c-0.759 0.479-1.931 0.02-1.91-1.135 0.025-1.454 1.401-3.403 2.952-4.604 0.287-0.222 0.748-0.01 1.006 0.359 0.259 0.369 0.344 0.789-0.049 1.151-1.046 0.964-1.967 2.003-2.368 2.873-0.166 0.359-0.185 0.867 0.369 1.356"/>
    <path d="m406.74 196.98c-0.653 0.304-1.453 0.702-1.874 0.918-0.27 0.138-0.719-0.191-0.844-0.541-0.126-0.351-0.113-0.898 0.165-1.057 0.277-0.158 1.326-0.567 1.827-0.732 0.185 0.475 0.746 1.083 0.726 1.412"/>
    <path d="m410.99 197.56c0.581-0.478 0.726-1.433 0.383-2.022-0.459-0.791-1.679-1.244-3.324-0.622 1.186-0.046 2.266 0.257 2.657 0.935 0.318 0.551 0.428 1.047 0.173 1.516z"/>
   </g>
   <path d="m384.98 187.85c0.232-0.202 0.57-0.429 0.946-0.583 0.406 0.476 0.792 1.004 1.181 1.593-0.765-0.297-1.566-0.673-2.127-1.01m25.765 8.038c-0.443-0.727-1.298-0.954-2.03-0.913-0.465 0.025-0.886-0.054-1.17-0.215 0.095-0.816 0.271-1.669 0.519-2.513 0.546-1.857-4e-3 -3.858-0.803-4.428-0.89-0.636-3.221-0.198-6.187 0.858-0.032-1.529 0.369-3.728 1.116-5.224-2.209-0.155-6.553 0.032-9.221 0.572-0.068-0.105-0.179-0.194-0.328-0.244-0.363-0.125-0.955-0.045-1.531 0.375 0.097-0.171 0.19-0.348 0.285-0.547 0.241-0.508 0.286-0.9-0.023-1.057-0.319-0.163-0.729-0.044-0.971 0.445-0.209 0.422-0.396 0.761-0.632 1.088 0.108-0.426 0.089-0.887-0.072-1.226-0.182-0.381-0.49-0.543-0.691-0.525-0.245 0.024-0.405 0.282-0.398 0.728 0.023 1.562-0.36 2.042-1.486 2.352-3.239 0.896-4.05 1.567-4.116 2.539-0.056 0.834 0.837 1.685 2.123 2.057 1.181 0.342 2.473 0.923 2.934 1.518 0.831 5.966 3.731 8.955 7.779 8.554 3.779-0.374 5.924-4 5.269-9.638 2.132-1.181 4.577-1.587 5.214-1.108 0.541 0.409 0.097 2.524-0.351 4.283-0.287 1.126-0.05 1.978 0.535 2.786 0.331 0.456 0.443 1.2 0.498 2.04 0.079 1.189 1.207 1.166 1.274 0.433 0.065-0.711-0.083-1.439-0.387-1.938-0.158-0.258-0.027-0.398 0.193-0.258 0.526 0.332 1.043 0.941 1.421 1.697 0.329 0.659 1.137 0.682 1.181-0.137 0.011-0.191-7e-3 -0.386-0.048-0.579 0.424-0.431 0.489-1.141 0.104-1.775" fill="#7b59a2"/>
   <g fill="#fad7b5">
    <path d="m393.48 195.11c0.217 0.733 0.091 1.392-0.267 1.429-0.272 0.027-0.597-0.378-0.623-0.963-0.03-0.67 0.135-1.223 0.567-1.237 0.494-0.016 1.072 0.541 1.14 1.716 0.063 1.103-0.429 1.704-1.117 1.712-0.658 8e-3 -1.227-0.566-1.421-1.832-0.175-1.141 0.148-1.965 0.886-2.223 0.323-0.114 0.508 0.196 0.166 0.369-0.505 0.255-0.707 0.81-0.539 1.818 0.161 0.971 0.502 1.332 0.913 1.315 0.436-0.019 0.724-0.48 0.692-1.14-0.032-0.653-0.247-1.035-0.397-0.964"/>
    <path d="m398.09 194.21c0.217 0.733 0.091 1.392-0.268 1.429-0.271 0.028-0.597-0.378-0.623-0.963-0.029-0.67 0.136-1.222 0.568-1.237 0.493-0.016 1.072 0.542 1.139 1.717 0.064 1.102-0.429 1.703-1.116 1.711-0.659 8e-3 -1.228-0.565-1.421-1.831-0.175-1.142 0.147-1.966 0.886-2.223 0.323-0.114 0.508 0.196 0.166 0.369-0.506 0.255-0.708 0.81-0.54 1.817 0.162 0.971 0.503 1.332 0.914 1.315 0.436-0.018 0.724-0.48 0.691-1.139-0.031-0.654-0.247-1.036-0.396-0.965"/>
    <path d="m394.11 193.32c0.318-0.227 1.024-0.36 1.532-0.272 0.497 0.085 0.575-0.481 0.156-0.615-0.622-0.198-1.72-0.027-2.094 0.457-0.256 0.332 0.061 0.674 0.406 0.43"/>
    <path d="m395.86 200.25c-0.11-0.194-0.278-0.371-0.59-0.43-0.634-0.12-0.749-0.725-0.355-1.205 0.395-0.481 1.177-0.82 1.889-0.641 0.506 0.126 0.475 0.854-0.11 0.877-0.279 0.01-0.633 0.066-0.868 0.176-0.133 0.063-0.149 0.183 0.073 0.194 0.508 0.024 0.842 0.208 1.047 0.735"/>
   </g>
   <path d="m383.45 157.23c-0.668-1.218-1.57-2.407-2.505-3.103-1.275-0.948-3.054-0.708-2.455 0.86 0.336 0.883 1.277 2.224 2.198 3.412 0.798-0.411 1.65-0.82 2.762-1.169" fill="#7b59a2"/>
   <path d="m398.37 156.07c0.51-1.021 1.095-2.288 1.468-3.396 0.72-2.139-1.312-2.313-2.419-1.016-0.737 0.863-1.364 2.221-2.007 3.956 0.854 0.044 2.056 0.213 2.958 0.456" fill="#7b59a2"/>
   <path d="m406.83 209.73c-0.073-0.255-0.428-0.352-0.783-0.25-0.382 0.109-0.548 0.428-0.492 0.64 0.061 0.23 0.374 0.368 0.763 0.256 0.393-0.112 0.58-0.409 0.512-0.646" fill="#fffded"/>
   <path d="m393.09 199.06c0.102-0.213 0.027-0.51-0.386-0.707-0.38-0.181-0.718-0.135-0.828 0.098-0.118 0.247 0.047 0.566 0.402 0.735 0.373 0.178 0.714 0.079 0.812-0.126" fill="#bba9d1"/>
   <g fill="#dbc77f">
    <path d="m393.34 207.41c-0.166-1.2 1.421-3.396 2.584-4.328 0.268 0.35 0.738 0.664 1.024 0.479 0.286-0.184 0.259-0.728 0.065-1.051-0.301-0.502-0.816-0.641-1.043-0.461-2.291 1.802-3.461 4.262-2.63 5.361"/>
    <path d="m406.35 197.13c-0.452-0.11-0.904-0.147-1.246-0.129 0.093 0.314 0.037 0.766-0.203 0.886s-0.692-0.156-0.858-0.563c-0.166-0.406-0.101-0.904 0.157-1.043 0.498-0.267 1.357-0.581 1.817-0.738 0.139 0.415 0.628 0.979 0.757 1.412z"/>
    <path d="m411.52 196.19c-0.222-0.388-0.655-0.536-1.006-0.609-0.655-0.508-1.247-0.679-2.122-0.619 1.052-0.665 2.999-0.286 3.128 1.228"/>
   </g>
   <g fill="#dbdcdc">
    <path d="m396.94 203.61c0.152-0.113 0.26-0.492 0.215-0.689 0.723 0.452 2.323 1.413 3.511 2.029-0.226 0.068-0.555 0.181-0.769 0.231-0.735-0.327-2.183-1.101-2.957-1.571"/>
    <path d="m405.15 199.69c-0.137-0.498-0.364-1.334-0.537-1.786 0.222-0.02 0.446-0.105 0.654-0.222 0.137 0.511 0.325 1.249 0.4 1.598-0.185 0.142-0.371 0.286-0.517 0.41"/>
    <path d="m405.9 197.34c0.114 0.052 0.239 0.104 0.384 0.156 0.116 0.041 0.157 0.078 0.178 0.199 0.125 0.71 0.292 1.107 0.573 1.259-0.083-0.525-0.019-1.485-0.268-2.002-0.272 0.129-0.658 0.284-0.867 0.388"/>
    <path d="m409.59 198.53c-0.432-0.188-0.883-0.367-1.33-0.528-0.102-0.463-0.226-0.8-0.346-1.003-0.169-0.286-0.068-0.477 0.267-0.259 0.305 0.199 1.134 1.083 1.409 1.79"/>
    <path d="m411.24 199.39c-0.27-0.172-0.58-0.343-0.914-0.51 0.334-0.136 0.449-0.68 0.325-1.137l0.281-0.121c0.175 0.444 0.321 1.21 0.308 1.768"/>
   </g>
   <g fill="#6b4c8d">
    <path d="m401.16 187.16c-2.055-2.229-5.785-2.89-8.91-2.156 0.673-0.225 0.944-0.688 0.725-0.978 2.153-0.446 6.812-0.757 9.221-0.572-0.489 1.021-0.928 2.441-1.036 3.706"/>
    <path d="m387.21 188.9c0.345-0.978 0.988-1.79 1.824-2.432-0.952 0.146-2.118 0.371-3.108 0.808 0.467 0.584 0.819 0.984 1.284 1.624"/>
    <path d="m383.31 188.62c-0.277-1.126 1.301-2.03 3.747-2.63 0.593-0.145 0.943-0.263 1.289-0.557 0.887-0.751 2.45-0.708 2.781 0 0.47-0.283 0.986-0.476 1.392-0.568 0.668-0.152 0.766-0.866 0.13-1.081-0.351-0.119-1.058-0.026-1.531 0.375 0.238-0.411 0.442-0.835 0.488-1.103 0.117-0.68-0.829-0.801-1.126-0.184-0.24 0.498-0.427 0.837-0.703 1.217 0.113-0.719 0.011-1.153-0.211-1.457-0.348-0.48-0.95-0.419-0.95 0.433 0 1.276-0.273 2.045-1.227 2.28-1.052 0.257-2.381 0.701-3.165 1.079-1.161 0.56-1.452 1.464-0.914 2.196"/>
    <path d="m384.54 188.31c0.877 0.434 1.98 0.738 3.16 0.876-0.677-0.304-2.084-0.912-2.718-1.329z"/>
    <path d="m400.38 188.92c-0.099 0.342 0.228 0.75 0.674 0.568 1.351-0.552 3.058-1.088 4.489-1.236 1.571-0.162 2.243 0.63 2.574 1.661-0.105-2.075-1.056-2.531-2.612-2.362-1.78 0.194-4.114 0.966-5.125 1.369"/>
    <path d="m407.07 194.33c-0.396 0.27-0.448 0.981 0.275 1.275 1.929 0.782 3.142 1.841 3.011 3.2 0.332-0.065 0.406-0.632 0.293-1.141 1.01-1.184-0.2-2.864-1.926-2.688-0.822 0.083-1.459-0.29-1.653-0.646"/>
    <path d="m407.06 194.34c0.125-0.406 0.434-1.018 0.786-1.483-0.125 0.519-0.25 1.308-0.298 1.903-0.153-0.083-0.334-0.226-0.488-0.42"/>
    <path d="m379.45 156.75c0.96 0.223 2.483 0.117 3.327-0.527 0.222 0.293 0.466 0.648 0.673 1.004-0.814 0.285-2.076 0.811-2.763 1.169-0.37-0.462-0.839-1.048-1.237-1.646"/>
    <path d="m396.04 154.01c0.492 0.773 1.944 1.207 2.917 0.797-0.188 0.422-0.371 0.794-0.584 1.264-0.986-0.245-1.791-0.399-2.958-0.457 0.145-0.514 0.344-1.018 0.625-1.604"/>
   </g>
   <path d="m405.09 208.23c-0.803 0.346-1.306-0.498 0.129-1.431 1.608-1.044 2.436-0.438 1.938 0.241-0.194 0.023-0.416 0.055-0.559 0.106-0.087-0.24-0.239-0.365-0.562-0.245s-0.743 0.396-0.928 0.623c-0.127 0.156-0.139 0.326 0.065 0.549z" fill="#55a694"/>
   <path d="m404.76 209.7c0.143-1.456 2.939-2.252 3.96-1.347 0.055-1.015-1.191-1.564-2.124-1.214-0.046-0.209-0.189-0.399-0.475-0.31s-0.82 0.421-0.98 0.64c-0.129 0.176-0.151 0.385 0.03 0.597-0.363 0.322-0.642 1.138-0.411 1.634" fill="#dbc77f"/>
   <g fill="#64bfaa">
    <path d="m401.68 209.83c-0.04-0.454-0.464-0.739-1.127-0.746-0.599-0.011-1.066 0.258-1.435 0.761l0.449 0.059c0.284-0.31 0.582-0.466 0.983-0.457 0.479 5e-3 0.713 0.164 0.752 0.423z"/>
    <path d="m410.82 202.66c-0.486 0-0.927 0.273-1.183 0.654-0.393 0.581-0.184 1.255 0.327 1.284l0.202-0.338c-0.403 0.065-0.483-0.38-0.226-0.761 0.192-0.285 0.451-0.444 0.767-0.476z"/>
    <path d="m401.16 204.8c-0.469 1.256-0.101 2.379 0.638 2.743 0.475 0.236 0.941 0.134 1.082-0.141 0.169-0.33 0.047-0.763-0.401-0.947-1.078-0.442-4.53 0.527-4.558 2.06-9e-3 0.466 0.531 1.025 1.423 1.348l1.303 0.052c-1.517-0.302-2.307-1.026-2.301-1.376 0.019-1.028 3.049-2.124 4-1.734 0.147 0.06 0.3 0.231 0.207 0.403-0.051 0.095-0.299 0.128-0.605-0.022-0.481-0.238-0.803-1.34-0.189-2.566z"/>
    <path d="m402.44 203.66c0.242-0.262 0.535-0.521 0.885-0.769 1.651-1.171 3.903-0.286 4.04 0.695 0.057 0.413-0.095 0.582-0.233 0.595-0.173 0.015-0.321-0.193-0.326-0.536-0.01-0.624 1.123-2.836 2.598-3.432 0.841-0.34 1.625-0.235 1.794 0.933l0.096-0.852c-0.293-0.659-0.906-0.918-2.045-0.457-1.623 0.655-2.857 2.983-2.829 3.821 0.024 0.713 0.413 0.985 0.753 0.953 0.386-0.036 0.648-0.447 0.559-1.082-0.21-1.511-2.93-2.262-4.663-1.032-0.087 0.061-0.17 0.123-0.251 0.185z"/>
   </g>
   <g fill="#0f141b">
    <path d="m380.85 158.3c-0.887-1.122-1.812-2.456-2.162-3.373-0.179-0.469-0.146-0.791 0.106-0.982 0.351-0.266 1.176-0.283 2.038 0.358 0.845 0.629 1.713 1.691 2.435 3.021l0.367-0.153c-0.75-1.385-1.685-2.554-2.576-3.218-0.931-0.691-2.007-0.752-2.531-0.355-0.367 0.277-0.495 0.819-0.25 1.463 0.358 0.936 1.389 2.359 2.227 3.417z"/>
    <path d="m398.55 156.15c0.516-1.002 1.095-2.264 1.479-3.406 0.341-1.012 0.144-1.66-0.395-1.966-0.6-0.34-1.602-0.15-2.374 0.754-0.683 0.801-1.322 2.019-2.076 4.107l0.408 0.032c0.728-1.96 1.322-3.105 1.977-3.873 0.556-0.652 1.367-0.924 1.865-0.643 0.364 0.206 0.462 0.672 0.198 1.459-0.385 1.141-0.945 2.359-1.453 3.405z"/>
    <path d="m401.28 188.62c-0.028-1.478 0.377-3.68 1.14-5.166l-0.459-0.039c-0.751 1.481-1.157 3.793-1.097 5.327z"/>
    <path d="m407.7 194.85c0.063-0.806 0.269-1.642 0.532-2.541 0.587-2.001 0.021-4.06-0.843-4.677-0.989-0.707-3.511-0.195-6.558 0.978-0.665 0.257-0.576 0.516 0.098 0.285 3.219-1.105 5.448-1.428 6.206-0.887 0.81 0.579 1.233 2.565 0.751 4.203-0.251 0.856-0.468 1.724-0.512 2.46z"/>
    <path d="m410.68 197.9c0.561-0.49 0.677-1.354 0.223-2.102-0.387-0.636-1.181-1.024-2.193-0.968-0.682 0.036-1.058-0.103-1.284-0.329-0.336-0.337-0.555-0.176-0.205 0.193 0.278 0.293 0.793 0.488 1.506 0.447 0.736-0.039 1.499 0.273 1.853 0.855 0.352 0.579 0.296 1.131 5e-3 1.471z"/>
    <path d="m388.99 182.15c-0.329 0.03-0.551 0.361-0.542 0.92 0.021 1.489-0.315 1.888-1.366 2.178-3.234 0.893-4.224 1.54-4.302 2.705-0.062 0.911 0.912 1.85 2.303 2.253 1.329 0.384 2.372 0.922 2.781 1.42 0.793 5.974 3.796 9.137 8.03 8.717 3.739-0.369 6.092-3.938 5.428-9.781 2.076-1.129 4.286-1.473 4.867-1.035 0.368 0.277 0.239 1.577-0.392 4.055-0.289 1.131-0.099 2.009 0.566 2.927 0.325 0.449 0.42 1.088 0.478 1.955 0.047 0.729 0.411 1.116 0.9 1.123 0.382 8e-3 0.669-0.223 0.712-0.695 0.063-0.702-0.105-1.453-0.398-1.945-0.066-0.113-0.037-0.147 0.085-0.056 0.471 0.35 0.886 0.903 1.218 1.567 0.243 0.486 0.582 0.652 0.957 0.588 0.342-0.057 0.522-0.296 0.549-0.792 0.053-0.966-0.509-2.036-1.585-2.418-0.525-0.186-0.609 0.069-0.094 0.282 0.939 0.386 1.374 1.391 1.334 2.126-0.012 0.229-0.107 0.398-0.274 0.432-0.224 0.047-0.463-0.127-0.583-0.364-0.381-0.764-0.922-1.408-1.489-1.763-0.423-0.263-0.674 0.01-0.42 0.479 0.281 0.521 0.42 1.148 0.358 1.833-0.022 0.237-0.172 0.346-0.367 0.346-0.298-3e-3 -0.533-0.27-0.567-0.769-0.063-0.965-0.176-1.651-0.525-2.132-0.656-0.905-0.742-1.728-0.511-2.635 0.696-2.73 0.801-4.144 0.319-4.507-0.747-0.563-3.446-5e-3 -5.498 1.132-0.044 0.025-0.07 0.074-0.064 0.124 0.664 5.599-1.602 9.066-5.063 9.409-3.966 0.391-6.715-2.525-7.562-8.2-0.02-0.13-0.037-0.174-0.116-0.264-0.561-0.641-1.756-1.183-2.976-1.535-1.266-0.367-1.986-1.228-1.943-1.865 0.052-0.774 0.688-1.484 3.926-2.379 1.222-0.337 1.636-0.943 1.613-2.519-6e-3 -0.367 0.097-0.542 0.254-0.557 0.184-0.015 0.359 0.092 0.516 0.421 0.228 0.479 0.172 1.2-0.145 1.698-0.269 0.42-0.084 0.548 0.206 0.142 0.402-0.559 0.506-1.424 0.238-1.985-0.224-0.471-0.534-0.666-0.856-0.636"/>
    <path d="m389.75 184.36c0.312-0.388 0.558-0.774 0.807-1.279 0.212-0.428 0.487-0.486 0.726-0.365 0.158 0.082 0.217 0.259-0.037 0.826-0.2 0.442-0.366 0.765-0.663 1.232-0.231 0.364-0.05 0.487 0.208 0.141 0.31-0.417 0.553-0.791 0.763-1.234 0.36-0.758 0.215-1.134-0.089-1.289-0.464-0.235-0.929-0.073-1.206 0.52-0.157 0.339-0.275 0.581-0.441 0.854z"/>
    <path d="m391.09 184.35c0.898-0.696 1.784-0.496 1.766-0.056-8e-3 0.191-0.124 0.327-0.473 0.417-0.519 0.132-1.052 0.357-1.742 0.825-0.705 0.478-1.423 0.731-2.529 0.904-1.428 0.224-2.892 0.841-3.381 1.432-0.392 0.473-0.203 0.636 0.226 0.197 0.519-0.532 1.848-1.031 3.226-1.247 1.154-0.182 1.991-0.503 2.683-0.973 0.684-0.464 1.149-0.69 1.611-0.809 0.532-0.135 0.751-0.419 0.764-0.735 0.028-0.682-0.995-1.06-2.002-0.413z"/>
    <path d="m384.84 187.99c0.699 0.42 1.549 0.793 2.427 1.09 0.759 0.257 0.84 0.023 0.094-0.269-0.834-0.326-1.548-0.685-2.238-1.085z"/>
    <path d="m385.76 187.36c0.36 0.421 0.767 0.944 1.072 1.417l0.548 0.178c-0.42-0.664-0.865-1.262-1.276-1.747z"/>
    <path d="m391.85 195.92c-0.179-1.168 0.171-1.906 0.815-2.131 0.232-0.081 0.323 0.116 0.105 0.225-0.549 0.272-0.764 0.917-0.599 1.906 0.173 1.035 0.593 1.4 1.013 1.385 0.439-0.019 0.819-0.429 0.78-1.234-0.028-0.576-0.163-0.894-0.358-1.024-0.173-0.115-0.239-0.034-0.208 0.094 0.19 0.793 0.018 1.292-0.196 1.314-0.192 0.02-0.495-0.265-0.522-0.886-0.033-0.742 0.153-1.127 0.476-1.137 0.378-0.012 0.967 0.408 1.037 1.63 0.063 1.087-0.427 1.611-1.016 1.62-0.522 8e-3 -1.126-0.45-1.327-1.762m0.762-2.289c-0.765 0.24-1.142 1.103-0.956 2.319 0.204 1.337 0.843 1.924 1.523 1.908 0.729-7e-3 1.281-0.67 1.215-1.807-0.07-1.235-0.69-1.831-1.241-1.807-0.528 0.018-0.7 0.584-0.667 1.338 0.029 0.643 0.382 1.088 0.726 1.053 0.376-0.039 0.569-0.653 0.353-1.439 0.1 0.09 0.192 0.378 0.217 0.882 0.033 0.69-0.284 1.028-0.603 1.041-0.318 0.012-0.648-0.246-0.813-1.237-0.153-0.914-9e-3 -1.477 0.472-1.719 0.491-0.248 0.245-0.681-0.226-0.532"/>
    <path d="m396.47 195.03c-0.173-1.132 0.129-1.89 0.818-2.13 0.229-0.08 0.311 0.109 0.098 0.217-0.553 0.279-0.772 0.892-0.603 1.904 0.172 1.034 0.603 1.408 1.023 1.393 0.423-0.018 0.809-0.461 0.771-1.235-0.028-0.567-0.175-0.904-0.353-1.016-0.158-0.099-0.236-0.054-0.206 0.085 0.159 0.714 0.021 1.308-0.203 1.316-0.209 7e-3 -0.489-0.302-0.514-0.888-0.036-0.788 0.17-1.128 0.468-1.138 0.398-0.013 0.971 0.432 1.039 1.633 0.063 1.091-0.431 1.602-1.021 1.611-0.525 9e-3 -1.115-0.43-1.317-1.752m0.756-2.293c-0.781 0.273-1.142 1.102-0.956 2.322 0.207 1.354 0.876 1.932 1.517 1.918 0.855-0.01 1.276-0.861 1.221-1.82-0.067-1.168-0.675-1.834-1.244-1.809-0.489 0.017-0.69 0.533-0.655 1.339 0.03 0.679 0.392 1.091 0.721 1.054 0.397-0.045 0.556-0.691 0.352-1.438 0.116 0.141 0.213 0.373 0.235 0.884 0.031 0.716-0.294 1.03-0.621 1.045-0.319 0.012-0.65-0.253-0.815-1.244-0.152-0.908-0.019-1.47 0.479-1.722 0.51-0.257 0.251-0.699-0.234-0.529"/>
    <path d="m394.06 193.25c-0.244 0.184-0.469-0.051-0.277-0.299 0.353-0.459 1.39-0.612 1.988-0.422 0.335 0.108 0.258 0.494-0.114 0.43-0.515-0.089-1.252 0.033-1.597 0.291m0.108 0.147c0.313-0.221 0.979-0.341 1.457-0.259 0.643 0.112 0.819-0.605 0.205-0.8-0.631-0.201-1.763-0.066-2.196 0.497-0.369 0.478 0.054 0.904 0.534 0.562"/>
    <path d="m397 199.85c-0.203-0.469-0.564-0.683-1.1-0.688-0.127-2e-3 -0.112-0.046-0.049-0.075 0.246-0.11 0.594-0.128 0.846-0.137 0.726-0.029 0.788-0.912 0.118-1.079-0.696-0.174-1.523 0.12-1.992 0.691-0.407 0.495-0.311 1.211 0.425 1.35 0.172 0.033 0.281 0.094 0.391 0.211l0.229-0.036c-0.138-0.181-0.352-0.312-0.583-0.356-0.579-0.11-0.637-0.626-0.289-1.049 0.395-0.479 1.141-0.765 1.782-0.604 0.372 0.092 0.334 0.664-0.091 0.68-0.265 0.011-0.661 0.07-0.905 0.193-0.242 0.121-0.193 0.352 0.111 0.367 0.452 0.021 0.728 0.188 0.927 0.597z"/>
    <path d="m404.88 196.95c0.168 0.392 0.104 0.691-0.074 0.769-0.182 0.078-0.459-0.108-0.604-0.445-0.186-0.434-0.093-0.731 0.055-0.795 0.188-0.08 0.432 0.025 0.623 0.471m0.316-0.132c-0.282-0.658-0.813-0.782-1.087-0.665-0.337 0.145-0.486 0.678-0.233 1.266 0.218 0.509 0.714 0.781 1.069 0.629 0.362-0.156 0.469-0.724 0.251-1.23"/>
    <path d="m406.72 196.79c-0.44 0.183-1.126 0.523-1.633 0.789l-0.139 0.467c0.487-0.269 1.371-0.705 1.892-0.922z"/>
    <path d="m405.99 195.38c-0.689 0.237-1.33 0.499-1.882 0.77l0.415 0.202c0.483-0.225 1.002-0.438 1.583-0.639z"/>
    <path d="m410.96 197.78c0.6-0.401 0.891-1.182 0.66-2.03-0.359-1.318-2.118-1.574-3.844-0.904l0.513 0.153c1.557-0.441 2.729-0.056 2.976 0.848 0.189 0.694 0.041 1.223-0.415 1.62z"/>
    <path d="m404.73 208.77c-3.919 1.691-8.04 1.066-9.964-1.437-0.178-0.232-0.202-0.447-0.092-0.706 0.444-1.049 1.546-2.25 2.408-2.952l-0.457-0.062c-0.821 0.717-1.847 1.824-2.297 2.889-0.159 0.376-0.137 0.678 0.131 1.027 2.108 2.742 6.37 3.228 10.188 1.753z"/>
    <path d="m408.09 207.27c2.866-2.489 4.25-6.971 2.875-10.082l-0.249 0.4c1.124 3.174-0.31 7.188-3.124 9.475z"/>
    <path d="m396.83 202.52c0.248 0.361 0.204 0.745 0.059 0.857-0.165 0.128-0.491 0.074-0.757-0.313-0.257-0.374-0.228-0.738-0.061-0.853 0.179-0.124 0.493-0.078 0.759 0.309m-0.952-0.609c-0.341 0.235-0.378 0.847-0.04 1.338 0.327 0.477 0.866 0.689 1.247 0.426 0.333-0.228 0.355-0.878 0.028-1.352-0.361-0.526-0.94-0.615-1.235-0.412"/>
    <path d="m394.78 207.66c-0.725 0.438-1.595-0.104-1.583-0.914 0.019-1.302 0.87-2.776 2.596-4.323l0.083-0.514c-1.957 1.642-3.002 3.348-3.024 4.828-0.017 1.175 1.244 1.772 2.157 1.181z"/>
    <path d="m405.11 197.74c0.136 0.481 0.244 0.981 0.356 1.468-0.535 0.412-1.296 1.045-1.824 1.513-0.087 0.078-0.111 0.11-0.158 0.2-0.542 1.043-1.221 2.529-1.608 3.465-0.56 0.167-1.393 0.417-1.988 0.624-0.876-0.419-2.007-1.044-2.825-1.554l-0.306 0.242c0.817 0.514 2.071 1.188 2.982 1.626 0.109 0.052 0.149 0.055 0.267 0.014 0.569-0.194 1.43-0.444 1.983-0.608 0.122-0.037 0.162-0.065 0.217-0.198 0.396-0.956 1.073-2.475 1.61-3.498 0.523-0.467 1.381-1.143 1.938-1.57 0.115-0.088 0.134-0.129 0.096-0.29-0.118-0.501-0.283-1.087-0.422-1.575z"/>
    <path d="m405.3 199.57c-0.138-0.49-0.326-1.096-0.518-1.66l-0.318-0.06c0.222 0.635 0.432 1.394 0.584 1.933z"/>
    <path d="m397.18 203.06c0.799 0.546 2.256 1.414 3.264 1.954l0.428-0.144c-1.229-0.618-2.727-1.475-3.766-2.206z"/>
    <path d="m406.79 207.08c-0.147-0.397-0.323-0.481-0.614-0.416-0.428 0.095-1.087 0.519-1.272 0.884-0.116 0.23-1e-3 0.444 0.214 0.61l0.194-0.237c-0.145-0.112-0.151-0.162-0.117-0.23 0.136-0.268 0.659-0.606 1.061-0.695 0.129-0.028 0.163 0.019 0.233 0.211z"/>
    <path d="m406.45 207.05c-0.457 0.229-0.358 0.454 0.118 0.27 0.644-0.25 1.443-0.124 1.828 0.476 0.259 0.401 0.154 1.304-0.768 2.042-0.815 0.653-2.129 0.643-2.598 0.02-0.392-0.519-0.164-1.252 0.303-1.733 0.374-0.385 0.206-0.559-0.207-0.216-0.603 0.503-0.924 1.537-0.443 2.174 0.518 0.688 2.029 0.891 3.161 0.016s1.247-1.949 0.876-2.528c-0.499-0.775-1.631-0.841-2.27-0.521"/>
    <path d="m393.02 184.2c5.15-0.785 9.854-0.749 11.112-0.333 0.499 0.165 0.596-0.064 0.1-0.265-1.312-0.527-6.12-0.645-11.487 0.193z"/>
    <path d="m378.14 160.26c2.279-1.887 6.321-3.414 10.621-4.04 5.732-0.835 9.707-0.28 11.314 0.786l0.212-0.32c-1.965-1.332-6.157-1.749-11.584-0.959-4.409 0.641-8.485 2.228-10.834 4.227z"/>
   </g>
  </g>
 </g>
</svg>
