<?xml version="1.0" encoding="UTF-8"?>
<svg version="1.1" viewBox="0 0 229.51 161.65" xmlns="http://www.w3.org/2000/svg">
 <g transform="translate(777.86 -1691.9)">
  <g transform="translate(-777.86 1692.1)" fill="#fff">
   <path transform="translate(777.58 -1692.4)" d="m-589.48 1757.3a33.847 33.847 0 0 0-8.264-5.285c1.26-2.761 1.551-16.968-2.948-21.37-4.095-4.007-17.163-2.544-23.027 0.675-8.416-14.729-26.671-37.554-37.135-37.554-8.315 0-20.633 10.164-29.653 21.278-7.57-4.1-22.757-7.07-27.5-4.711-6.423 3.2-14.68 26.687-13.629 32.394a14.877 14.877 0 0 0-4.765 3.381 13.427 13.427 0 0 0-2.8 7.142c-5.853-1.639-23.283 2.452-27.043 7.494-3.505 4.7-2.474 14.422 1.19 23.515-4.725-0.443-9.687 1.8-11.017 3.75-2.228 3.277 4.064 18.351 12.339 24.527a27.757 27.757 0 0 0-6.571 18.466c0 11.121 34.7 16.073 39.185 12.1a10.82 10.82 0 0 0 1.629 4.032c4.569 6.316 36.96 8.525 47.267 0.522 10.671 0.958 22.234 1.661 34.519 2.285z"/>
   <path transform="translate(772.3 -1703.9)" d="m-562.46 1806.8c-1.8-17.464-10.571-30.1-21.779-38.05-9.17-8.647-42.941-18.843-78.893-18.843-52.295 0-88.781 38.515-87.6 71.349 1.141 31.775 45.282 36.962 108.31 40.169l9e-3 -0.015c8.975 2.053 20.414 2.157 34.679 0.455 3.256-0.388 6.455-0.863 9.56-1.476 21.815-2.2 32.978-7.445 36.868-16.732l0.041 0.024c8.455-0.52 16.886-10.43 16.886-18.806-3e-3 -13.268-5.839-18.41-18.085-18.075z"/>
   <path transform="translate(764.15,-1697.5)" d="m-702.39 1737.2c0.324-3.145 1.025-10.418 1.112-13.295 0.215-7.077-2.323-7.063-5.529-0.936a40.885 40.885 0 0 0-4.182 13.962c-0.787 6.942 7.985 6.192 8.599 0.269z"/>
   <path transform="translate(755.3 -1694)" d="m-654.44 1729.6c-3.78 4.2-9.273 5.977-12.251 3.443-2.2-1.87-1.307-6.544 2.6-11.23a102.1 102.1 0 0 1 15.536-14.853c14.21-10.611 15.168-5.122 6.7 6.46-3.461 4.728-9.97 13.274-12.585 16.18z"/>
   <path transform="translate(755.3 -1694)" d="m-663.25 1741.7a12.61 12.61 0 0 1-8.3-2.958c-5.661-4.818-4.96-13.761 1.706-21.748a109.52 109.52 0 0 1 16.806-16.056c6.725-5.022 11.226-7.164 15.052-7.164a8.8 8.8 0 0 1 8.041 4.8c2.365 4.66 0.614 10.421-5.855 19.265-3.068 4.194-10.049 13.42-13.063 16.769-4 4.439-9.378 7.092-14.387 7.092z"/>
   <path transform="translate(733.95 -1702.3)" d="m-556.73 1754.5a45.761 45.761 0 0 0-0.954-8.722c-1.072-4.625-3.758-6.128-5.314 0.094a39.169 39.169 0 0 0-0.766 7.323c-0.013 5.483 7.118 7.014 7.034 1.305z"/>
   <path transform="translate(761.2 -1708.4)" d="m-664.52 1775.1c1.569-4.969 4.412-4.1 4.114 0.977-0.793 13.476-14.683 33.978-32.167 38.705-4.892 1.322-5.353-1.7-1.657-3.312 13.041-5.693 25.322-22.473 29.71-36.37z"/>
   <path transform="translate(761.2 -1708.4)" d="m-662.01 1764.3a9.759 9.759 0 0 1 6.243 2.728c1.461 1.55 3.141 4.456 2.844 9.5-1 16.938-17.329 40-37.7 45.5a15.761 15.761 0 0 1-4.087 0.586c-5.415 0-8.567-3.493-9.29-6.954-0.942-4.514 1.713-8.854 6.763-11.058 11.126-4.857 21.93-20.265 25.558-31.755 2.44-7.713 7.576-8.547 9.669-8.547z"/>
   <path transform="translate(773.75 -1708.7)" d="m-741.09 1773.3c-3.266 0.1-11.337 1.905-15.2 3.951-1.73 0.917-2.528 3.313 0.523 3.4a78.749 78.749 0 0 0 15.692-1.917c2.394-0.732 2.592-5.55-1.015-5.434z"/>
   <path transform="translate(776.86 -1716.5)" d="m-767.77 1811a16.139 16.139 0 0 0-4.446 1.439c-1.4 0.871-0.745 2.485 0.654 2.877a9.925 9.925 0 0 0 4.664-0.044c2.618-1.139 1.969-4.499-0.872-4.272z"/>
   <path transform="translate(765.56 -1705.5)" d="m-714.98 1758.9c8.718-2.266 26.415-2.18 38.357 2.266 6.3 2.346 6.9 7.8-1.308 8.544-5.753 0.523-32.081-2.615-37.573-5.928-3.215-1.941-3.416-3.859 0.524-4.882z"/>
   <path transform="translate(774.65 -1722.2)" d="m-750.97 1839.8c-5.033 2.254-9.906 8.966-11.158 15.226-0.465 2.324 1.017 3.865 3.2 3.168 6.029-1.93 11.568-8.135 13.687-12.9 2.206-4.977-1.005-7.609-5.729-5.494z"/>
   <path transform="translate(764.84 -1724.3)" d="m-706.76 1850.7c-3.056 2.206-6.872 10.344-7.556 16.156-0.541 4.6 1.975 5.087 5 3.486 4.589-2.429 9.114-9.663 10.577-15.807 1.134-4.763-3.742-6.926-8.021-3.835z"/>
   <path transform="translate(764.84 -1724.3)" d="m-702.68 1841.7a11.59 11.59 0 0 1 9.195 4.315 11.723 11.723 0 0 1 2.045 10.2c-1.772 7.445-7.275 16.946-14.364 20.7a13.377 13.377 0 0 1-6.247 1.7 9.524 9.524 0 0 1-7.23-3.179c-2.109-2.372-2.943-5.573-2.479-9.514 0.85-7.229 5.318-17.537 10.614-21.36a14.452 14.452 0 0 1 8.466-2.862z"/>
   <path transform="translate(727.15 -1721.1)" d="m-530.16 1835.8c2.777-0.286 7.626 1.6 10.544 3.58-0.266-2.447 0.338-4.544-0.088-5.134-1.085-1.506-13.472 0.721-10.456 1.554z"/>
   <path transform="translate(727.15 -1721.1)" d="m-522.1 1826.2c1.45 0 5.863 0 8.476 3.623a9.672 9.672 0 0 1 1.5 6.833 9.991 9.991 0 0 0-0.038 1.877 7.5 7.5 0 0 1-3.594 7.24 7.5 7.5 0 0 1-8.08-0.228 15.317 15.317 0 0 0-5.739-2.311 6.562 6.562 0 0 1-2.582-0.241 7.751 7.751 0 0 1-5.908-8.568c0.92-6.798 9.189-8.225 15.965-8.225z"/>
   <path transform="translate(750.24 -1725.5)" d="m-643.23 1866.4c21.132 13.346 92.915 5.1 106.24-11.391-0.115 8.623-2.92 16.055-12.844 20.341a133.24 133.24 0 0 1-37.834 8.6c-19.644 1.51-32.429 1.046-41.786-3.952a35.735 35.735 0 0 1-13.774-13.598z"/>
   <path transform="translate(723.26 -1722.9)" d="m-510.09 1854.1c5.19-0.4 11.683-5.386 14.82-11.856 0.285 9.722-4.568 18.074-16.389 20.66a30.654 30.654 0 0 0 1.569-8.804z"/>
   <path transform="translate(766.3 -1724.7)" d="m-719.18 1880.3c-4.061-5.614-2.7-18.722 2.917-27.067 2.149-3.191 3.048-2.588 1.413 0.659-5 9.936-5.619 20.856-2.64 24.974 4.131 5.71 44.394 8.474 48.48-2.868 1.041-2.889 1.827-2.75 1.637 0.173-0.837 12.887-45.983 12.183-51.807 4.129z"/>
   <path transform="translate(776.27 -1720.8)" d="m-729.58 1872.4c-4.41 3.637-40.546-0.064-40.544-12.956 0-15.28 11.01-25.3 17.7-26.848 3.116-0.723 3.342-0.11 0.48 1.268-6.414 3.087-16.146 10.925-16.148 25.493 0 9.914 33.23 15.164 37.832 11.01z"/>
   <path transform="translate(775.81 -1707.2)" d="m-737.12 1766.3c-6.288-1.862-24.48 3.059-28.437 8.363-6.26 8.393 1.049 32.5 11.676 40.12 2.884 2.067 3.266 1.238 0.987-1.226-11.853-12.808-15.18-31.731-10.856-37.53 3.476-4.661 20.581-8.795 26.166-7.15z"/>
   <path transform="translate(777.86 -1715.3)" d="m-766.03 1805.5c-4.734-0.285-9.695 2.506-11.229 4.762-2.676 3.936 4.09 19.808 12.5 26.084l1.29-1.661c-8.249-6.156-13.9-20.71-12.134-23.31 1.1-1.619 5.731-3.785 10.2-3.366z"/>
   <path transform="translate(767.7 -1720.2)" d="m-720.23 1835.3c-0.889-2.359-3.247-3.739-6.01-4.29-2.993-0.6-2.74-1.993 0.314-1.758 3.881 0.3 6.732 2.517 7.412 5.4 0.718 3.036-0.781 3.125-1.716 0.648z"/>
   <path transform="translate(767.7 -1720.2)" d="m-718.83 1844.5c-1.351 0-5.849-0.451-8.221-6.126-0.055 0.09-0.307 0.01-0.65-0.061-6.533-1.3-8.452-5.8-8.111-9.258 0.363-3.674 3.361-7.381 9.242-7.381 0.192 0 1.033 0.034 1.224 0.048 7.008 0.538 12.689 5.019 14.137 11.15 0.822 3.483 0.338 6.385-1.437 8.628a8.265 8.265 0 0 1-6.184 3z"/>
   <path transform="translate(759.55 -1721.9)" d="m-662.95 1856.1c-3.646-9.711-11.725-15.96-21.426-16.63-5.518-0.383-5.769-1.43 0.066-1.784 9.158-0.556 20.77 7.91 23.028 17.778 1.128 4.925 0.019 5.124-1.668 0.636z"/>
   <path transform="translate(759.55 -1721.9)" d="m-661.1 1866.8c-5.824 0-7.953-5.661-8.862-8.079-2.6-6.916-8.175-11.322-14.923-11.788-2.782-0.193-11.241-0.781-11.208-8.427s8.541-8.156 11.337-8.325c0.151-0.01 1.168-0.04 1.319-0.04 12.82 0 26.593 11.042 29.474 23.631 0.75 3.272 1.343 7.024-1.129 10.126a7.857 7.857 0 0 1-6.008 2.902z"/>
   <path transform="translate(768.38 -1703.7)" d="m-712.29 1811.4c-14.936-11.35-24.991-44.747-15.861-55.03 10.342-11.648 47.932-8.782 59.683 0.482 2.769 2.183 2.053 2.993-1.053 1.217-15.423-8.815-48.623-9.582-57-0.146-6.17 6.949-2.044 34.032 15.39 52.516 2.035 2.162 1.28 2.814-1.159 0.961z"/>
   <path transform="translate(766.39 -1696.2)" d="m-678.63 1717.7c-7.739-4.192-23.458-7.288-28.617-4.719-6.628 3.3-15.729 27.452-14.594 33.613l2.278-0.324c-0.992-5.383 7.271-28.506 13.149-31.434 4.209-2.1 18.916 0.494 26.673 4.7z"/>
   <path transform="translate(758.34 -1692.1)" d="m-601.33 1738.8c-2.346-7.23-27.942-44.548-40.283-44.548-8.972 0-30.816 19.222-39.41 37.535-1.393 2.967-2.126 2.55-1.354-0.5 2.927-11.576 25.833-39.235 40.72-39.235 15.172 0 40.633 39.06 41.863 46.506 0.543 3.289-0.569 3.223-1.536 0.242z"/>
   <path transform="translate(738.27 -1701)" d="m-557.12 1761.4c1.486-2.589 1.5-18.4-3.408-23.2-4.5-4.41-18.222-3.079-24.308 0.262l0.858 2.156c5.5-3.014 18.181-4.531 21.975-0.819 4.387 4.293 3.8 18.575 2.716 20.458z"/>
   <path transform="translate(753.48 -1731.9)" d="m-659 1888.4c9.374 0.842 26.115 1.784 40.622 2.349l-9.036-2.408c-12.14-0.645-21.48-1.275-29.766-2z"/>
   <path transform="translate(751.68 -1705.9)" d="m-540.7 1844.7c7.8-0.481 16.048-9.69 16.048-17.916 0-12.23-5.6-17.209-16.191-17.2-1.56 0-1.8-0.117-1.919-1.131-3.5-29.9-27.914-46.355-50.669-47.053-29.6-0.885-52.157 27.547-53.914 53.648-2.511 37.331 11.563 53.627 60.128 47.839 37.781-4.506 47.274-12.282 47.274-26.311 0-11.136-7.06-14.287-13.046-15.38-3-0.547-3.259-1.467 0.042-1.556 3.718-0.1 15.51 2.168 15.512 17.024 0 14.2-8.333 23.59-49.472 28.506-46.09 5.5-65.949-7.1-63.042-50.305 1.9-28.194 26.553-56.444 56.545-55.49 23.412 0.717 49.454 17.242 53.026 47.937 11.859-0.137 18.213 5.3 18.213 19.523 0 10-8.651 19.465-18.35 19.923z"/>
   <path transform="translate(737.8 -1705.9)" d="m-579.52 1759.4c23.412 0.717 49.454 17.242 53.026 47.937 11.859-0.137 18.213 5.3 18.213 19.523 0 10-8.651 19.465-18.35 19.923l-0.184-2.054c7.8-0.481 16.048-9.69 16.048-17.916 0-12.23-5.6-17.209-16.191-17.2-1.56 0-1.8-0.117-1.919-1.131-3.5-29.9-27.914-46.355-50.669-47.052-3.272 0-4.695-2.03 0.026-2.03z"/>
   <path transform="translate(746.99 -1721.4)" d="m-623.55 1875.7c9.455 3.986 22.817 4.921 41.029 2.75 37.781-4.506 47.274-12.282 47.274-26.31 0-11.136-7.06-14.287-13.046-15.38-3-0.547-3.259-1.467 0.042-1.556 3.718-0.1 15.51 2.168 15.512 17.024 0 14.2-8.333 23.59-49.472 28.506-18.124 2.162-32.191 1.525-42.414-2.669-4.43-2.105-3.009-4.15 1.075-2.365z"/>
   <path transform="translate(744.95 -1728.3)" d="m-617.44 1874.8c0.046-3.622 3.926-6.955 7.582-6.245 2.62 0.508 2.384 2.517-0.154 2.448a5.413 5.413 0 0 0-5.155 4.058c-0.318 2.066-2.309 2.526-2.273-0.261z"/>
   <path transform="translate(744.95 -1728.3)" d="m-616.47 1884.2a8.959 8.959 0 0 1-5.848-2.456 9.557 9.557 0 0 1-2.623-7.091c0.093-7.322 6.669-13.745 14.073-13.745a12.77 12.77 0 0 1 2.438 0.234c5.675 1.1 8.267 5.625 7.893 9.525a8.754 8.754 0 0 1-7.806 7.685 8.826 8.826 0 0 1-8.127 5.848z"/>
  </g>
  <g transform="translate(-777.86 1692.1)">
   <path transform="translate(777.58 -1692.4)" d="m-589.48 1757.3a33.847 33.847 0 0 0-8.264-5.285c1.26-2.761 1.551-16.968-2.948-21.37-4.095-4.007-17.163-2.544-23.027 0.675-8.416-14.729-26.671-37.554-37.135-37.554-8.315 0-20.633 10.164-29.653 21.278-7.57-4.1-22.757-7.07-27.5-4.711-6.423 3.2-14.68 26.687-13.629 32.394a14.877 14.877 0 0 0-4.765 3.381 13.427 13.427 0 0 0-2.8 7.142c-5.853-1.639-23.283 2.452-27.043 7.494-3.505 4.7-2.474 14.422 1.19 23.515-4.725-0.443-9.687 1.8-11.017 3.75-2.228 3.277 4.064 18.351 12.339 24.527a27.757 27.757 0 0 0-6.571 18.466c0 11.121 34.7 16.073 39.185 12.1a10.82 10.82 0 0 0 1.629 4.032c4.569 6.316 36.96 8.525 47.267 0.522 10.671 0.958 22.234 1.661 34.519 2.285z" fill="#f1f0f8"/>
   <path transform="translate(772.3 -1703.9)" d="m-562.46 1806.8c-1.8-17.464-10.571-30.1-21.779-38.05-9.17-8.647-42.941-18.843-78.893-18.843-52.295 0-88.781 38.515-87.6 71.349 1.141 31.775 45.282 36.962 108.31 40.169l9e-3 -0.015c8.975 2.053 20.414 2.157 34.679 0.455 3.256-0.388 6.455-0.863 9.56-1.476 21.815-2.2 32.978-7.445 36.868-16.732l0.041 0.024c8.455-0.52 16.886-10.43 16.886-18.806-3e-3 -13.268-5.839-18.41-18.085-18.075z" fill="#fff"/>
   <g transform="translate(21.537,45.963)">
    <path transform="translate(750.76 -1749.9)" d="m-669.58 1824c0-15.552 1.34-27.547 10.345-39.967 13.468-18.577 29.192-25.688 43.007-25.688 2.9 0 14.741 0.984 23.751 5.125-14.478-7.046-41.859-13.586-70.652-13.586-52.295 0-88.781 38.515-87.6 71.349 1.124 31.279 43.918 36.794 105.38 40.018l-0.086-0.212c-16.93-7.292-24.149-17.429-24.149-37.039z" fill="#f9f9fc"/>
   </g>
   <g transform="translate(21.561 116.45)">
    <path transform="translate(750.73 -1838.6)" d="m-657.14 1867.8c-43.674-0.839-75.229-10.4-93.586-29.271 0 0.286-0.01 0.574 0 0.859 1.141 31.775 45.282 36.962 108.31 40.169z" fill="#d4ddf1"/>
   </g>
   <g fill="#fff">
    <path transform="translate(764.15,-1697.5)" d="m-702.39 1737.2c0.324-3.145 1.025-10.418 1.112-13.295 0.215-7.077-2.323-7.063-5.529-0.936a40.885 40.885 0 0 0-4.182 13.962c-0.787 6.942 7.985 6.192 8.599 0.269z"/>
    <path transform="translate(755.3 -1694)" d="m-654.44 1729.6c-3.78 4.2-9.273 5.977-12.251 3.443-2.2-1.87-1.307-6.544 2.6-11.23a102.1 102.1 0 0 1 15.536-14.853c14.21-10.611 15.168-5.122 6.7 6.46-3.461 4.728-9.97 13.274-12.585 16.18z"/>
    <path transform="translate(733.95 -1702.3)" d="m-556.73 1754.5a45.761 45.761 0 0 0-0.954-8.722c-1.072-4.625-3.758-6.128-5.314 0.094a39.169 39.169 0 0 0-0.766 7.323c-0.013 5.483 7.118 7.014 7.034 1.305z"/>
   </g>
   <g fill="#d4ddf1">
    <path transform="translate(765.45 -1724.7)" d="m-662.38 1851.1c-1.917 0.7-9.241 0.174-9.241 0.174-1.045 6.8-21.722 28.415-45.731 28.068 3.538 2.967 8.42 5.408 19.752 5.408s21.728-0.966 27.515-4.885c6.4 0.788 31.5 1.921 31.5 1.921s-11.507-3.4-17.174-11.507-6.621-19.179-6.621-19.179z" style="isolation:isolate;mix-blend-mode:multiply"/>
    <path transform="translate(775.9 -1725.1)" d="m-724.62 1853c-5.631 7.659-23.081 14.556-43.7 12.611 4.542 8.111 26.47 14.2 38.886 10.146a30.375 30.375 0 0 1 0.924-13.923 71.128 71.128 0 0 1 3.89-8.834z" style="isolation:isolate;mix-blend-mode:multiply"/>
    <path transform="translate(777.53 -1716.7)" d="m-776.02 1812.3c1.128 3.506 11.415 16.234 21.876 17.1-3.226 1.569-7.48 4.557-9.537 7.422a24.262 24.262 0 0 1-9.38-11.083c-4.536-9.846-2.959-13.439-2.959-13.439z" style="isolation:isolate;mix-blend-mode:multiply"/>
    <path transform="translate(768.06 -1706.1)" d="m-728.11 1760.5c2.963 8.718 24.845 38.183 29.2 41.844 6.835 5.741-4.988 18.289-12.031 11.507-4.707-4.533-10.543-12.394-15.43-24.758-7.231-18.306-1.739-28.593-1.739-28.593z" style="isolation:isolate;mix-blend-mode:multiply"/>
   </g>
   <path transform="translate(761.2 -1708.4)" d="m-664.52 1775.1c1.569-4.969 4.412-4.1 4.114 0.977-0.793 13.476-14.683 33.978-32.167 38.705-4.892 1.322-5.353-1.7-1.657-3.312 13.041-5.693 25.322-22.473 29.71-36.37z" fill="#b7c7e6"/>
   <path transform="translate(775.56 -1709.7)" d="m-764.22 1778c2.61 10.33 12.187 28.156 19.717 34.43 3.138 2.615-4.272 8.195-7.585 5.318s-7.061-6.887-10.548-14.907-4.1-12.554-4.01-17.261a13.156 13.156 0 0 1 2.426-7.58z" fill="#d4ddf1" style="isolation:isolate;mix-blend-mode:multiply"/>
   <g fill="#fff">
    <path transform="translate(773.75 -1708.7)" d="m-741.09 1773.3c-3.266 0.1-11.337 1.905-15.2 3.951-1.73 0.917-2.528 3.313 0.523 3.4a78.749 78.749 0 0 0 15.692-1.917c2.394-0.732 2.592-5.55-1.015-5.434z"/>
    <path transform="translate(776.86 -1716.5)" d="m-767.77 1811a16.139 16.139 0 0 0-4.446 1.439c-1.4 0.871-0.745 2.485 0.654 2.877a9.925 9.925 0 0 0 4.664-0.044c2.618-1.139 1.969-4.499-0.872-4.272z"/>
    <path transform="translate(765.56 -1705.5)" d="m-714.98 1758.9c8.718-2.266 26.415-2.18 38.357 2.266 6.3 2.346 6.9 7.8-1.308 8.544-5.753 0.523-32.081-2.615-37.573-5.928-3.215-1.941-3.416-3.859 0.524-4.882z"/>
    <path transform="translate(774.65 -1722.2)" d="m-750.97 1839.8c-5.033 2.254-9.906 8.966-11.158 15.226-0.465 2.324 1.017 3.865 3.2 3.168 6.029-1.93 11.568-8.135 13.687-12.9 2.206-4.977-1.005-7.609-5.729-5.494z"/>
    <path transform="translate(764.84 -1724.3)" d="m-706.76 1850.7c-3.056 2.206-6.872 10.344-7.556 16.156-0.541 4.6 1.975 5.087 5 3.486 4.589-2.429 9.114-9.663 10.577-15.807 1.134-4.763-3.742-6.926-8.021-3.835z"/>
   </g>
   <g fill="#b7c7e6">
    <path transform="translate(727.15 -1721.1)" d="m-530.16 1835.8c2.777-0.286 7.626 1.6 10.544 3.58-0.266-2.447 0.338-4.544-0.088-5.134-1.085-1.506-13.472 0.721-10.456 1.554z"/>
    <path transform="translate(750.24 -1725.5)" d="m-643.23 1866.4c21.132 13.346 92.915 5.1 106.24-11.391-0.115 8.623-2.92 16.055-12.844 20.341a133.24 133.24 0 0 1-37.834 8.6c-19.644 1.51-32.429 1.046-41.786-3.952a35.735 35.735 0 0 1-13.774-13.598z"/>
    <path transform="translate(723.26 -1722.9)" d="m-510.09 1854.1c5.19-0.4 11.683-5.386 14.82-11.856 0.285 9.722-4.568 18.074-16.389 20.66a30.654 30.654 0 0 0 1.569-8.804z"/>
   </g>
   <g fill="#3a64ad">
    <path transform="translate(766.3 -1724.7)" d="m-719.18 1880.3c-4.061-5.614-2.7-18.722 2.917-27.067 2.149-3.191 3.048-2.588 1.413 0.659-5 9.936-5.619 20.856-2.64 24.974 4.131 5.71 44.394 8.474 48.48-2.868 1.041-2.889 1.827-2.75 1.637 0.173-0.837 12.887-45.983 12.183-51.807 4.129z"/>
    <path transform="translate(776.27 -1720.8)" d="m-729.58 1872.4c-4.41 3.637-40.546-0.064-40.544-12.956 0-15.28 11.01-25.3 17.7-26.848 3.116-0.723 3.342-0.11 0.48 1.268-6.414 3.087-16.146 10.925-16.148 25.493 0 9.914 33.23 15.164 37.832 11.01z"/>
    <path transform="translate(775.81 -1707.2)" d="m-737.12 1766.3c-6.288-1.862-24.48 3.059-28.437 8.363-6.26 8.393 1.049 32.5 11.676 40.12 2.884 2.067 3.266 1.238 0.987-1.226-11.853-12.808-15.18-31.731-10.856-37.53 3.476-4.661 20.581-8.795 26.166-7.15z"/>
    <path transform="translate(777.86 -1715.3)" d="m-766.03 1805.5c-4.734-0.285-9.695 2.506-11.229 4.762-2.676 3.936 4.09 19.808 12.5 26.084l1.29-1.661c-8.249-6.156-13.9-20.71-12.134-23.31 1.1-1.619 5.731-3.785 10.2-3.366z"/>
    <path transform="translate(767.7 -1720.2)" d="m-720.23 1835.3c-0.889-2.359-3.247-3.739-6.01-4.29-2.993-0.6-2.74-1.993 0.314-1.758 3.881 0.3 6.732 2.517 7.412 5.4 0.718 3.036-0.781 3.125-1.716 0.648z"/>
    <path transform="translate(759.55 -1721.9)" d="m-662.95 1856.1c-3.646-9.711-11.725-15.96-21.426-16.63-5.518-0.383-5.769-1.43 0.066-1.784 9.158-0.556 20.77 7.91 23.028 17.778 1.128 4.925 0.019 5.124-1.668 0.636z"/>
    <path transform="translate(768.38 -1703.7)" d="m-712.29 1811.4c-14.936-11.35-24.991-44.747-15.861-55.03 10.342-11.648 47.932-8.782 59.683 0.482 2.769 2.183 2.053 2.993-1.053 1.217-15.423-8.815-48.623-9.582-57-0.146-6.17 6.949-2.044 34.032 15.39 52.516 2.035 2.162 1.28 2.814-1.159 0.961z"/>
    <path transform="translate(766.39 -1696.2)" d="m-678.63 1717.7c-7.739-4.192-23.458-7.288-28.617-4.719-6.628 3.3-15.729 27.452-14.594 33.613l2.278-0.324c-0.992-5.383 7.271-28.506 13.149-31.434 4.209-2.1 18.916 0.494 26.673 4.7z"/>
    <path transform="translate(758.34 -1692.1)" d="m-601.33 1738.8c-2.346-7.23-27.942-44.548-40.283-44.548-8.972 0-30.816 19.222-39.41 37.535-1.393 2.967-2.126 2.55-1.354-0.5 2.927-11.576 25.833-39.235 40.72-39.235 15.172 0 40.633 39.06 41.863 46.506 0.543 3.289-0.569 3.223-1.536 0.242z"/>
    <path transform="translate(738.27 -1701)" d="m-557.12 1761.4c1.486-2.589 1.5-18.4-3.408-23.2-4.5-4.41-18.222-3.079-24.308 0.262l0.858 2.156c5.5-3.014 18.181-4.531 21.975-0.819 4.387 4.293 3.8 18.575 2.716 20.458z"/>
    <path transform="translate(753.48 -1731.9)" d="m-659 1888.4c9.374 0.842 26.115 1.784 40.622 2.349l-9.036-2.408c-12.14-0.645-21.48-1.275-29.766-2z"/>
    <path transform="translate(751.68 -1705.9)" d="m-540.7 1844.7c7.8-0.481 16.048-9.69 16.048-17.916 0-12.23-5.6-17.209-16.191-17.2-1.56 0-1.8-0.117-1.919-1.131-3.5-29.9-27.914-46.355-50.669-47.053-29.6-0.885-52.157 27.547-53.914 53.648-2.511 37.331 11.563 53.627 60.128 47.839 37.781-4.506 47.274-12.282 47.274-26.311 0-11.136-7.06-14.287-13.046-15.38-3-0.547-3.259-1.467 0.042-1.556 3.718-0.1 15.51 2.168 15.512 17.024 0 14.2-8.333 23.59-49.472 28.506-46.09 5.5-65.949-7.1-63.042-50.305 1.9-28.194 26.553-56.444 56.545-55.49 23.412 0.717 49.454 17.242 53.026 47.937 11.859-0.137 18.213 5.3 18.213 19.523 0 10-8.651 19.465-18.35 19.923z"/>
   </g>
   <g fill="#0c1015">
    <path transform="translate(737.8 -1705.9)" d="m-579.52 1759.4c23.412 0.717 49.454 17.242 53.026 47.937 11.859-0.137 18.213 5.3 18.213 19.523 0 10-8.651 19.465-18.35 19.923l-0.184-2.054c7.8-0.481 16.048-9.69 16.048-17.916 0-12.23-5.6-17.209-16.191-17.2-1.56 0-1.8-0.117-1.919-1.131-3.5-29.9-27.914-46.355-50.669-47.052-3.272 0-4.695-2.03 0.026-2.03z"/>
    <path transform="translate(746.99 -1721.4)" d="m-623.55 1875.7c9.455 3.986 22.817 4.921 41.029 2.75 37.781-4.506 47.274-12.282 47.274-26.31 0-11.136-7.06-14.287-13.046-15.38-3-0.547-3.259-1.467 0.042-1.556 3.718-0.1 15.51 2.168 15.512 17.024 0 14.2-8.333 23.59-49.472 28.506-18.124 2.162-32.191 1.525-42.414-2.669-4.43-2.105-3.009-4.15 1.075-2.365z"/>
    <path d="m137.91 141.23c1.5194 3.9497 0.19142 7.4757-3.4495 8.466-2.8762 0.78369-6.6123-0.52909-8.1286-4.1661-1.6245-3.8955 0.14987-8.0108 3.8986-9.033 3.1565-0.85954 6.313 1.1785 7.6795 4.7331" stroke-width="2.6298"/>
   </g>
  </g>
 </g>
</svg>
