<?xml version="1.0" encoding="UTF-8"?>
<!-- Created with Inkscape (http://www.inkscape.org/) -->
<svg version="1.1" viewBox="0 0 130.49 122.83" xmlns="http://www.w3.org/2000/svg">
 <defs>
  <clipPath id="clipPath46156">
   <path d="m624.8 461.42c-0.47 0.436-0.524 0.619-0.522 0.631 0.016 0.193 1.55 0.445 3.09-0.028 1.726-0.529 2.307-1.229 2.277-1.572-0.017-0.187-0.262-0.281-0.486-0.308l0.821-0.311c0.137 0.159 0.424 0.33 0.443 0.549 0.084 0.928-0.973 1.726-2.827 2.294-1.629 0.498-3.312 0.372-3.799-7e-3 -0.185-0.144-0.183-0.405-0.192-0.625z" fill="#0f141b"/>
  </clipPath>
  <radialGradient id="radialGradient30452" cx="0" cy="0" r="1" gradientTransform="matrix(-33.572 23.942 -23.942 -33.572 97.937 161.06)" gradientUnits="userSpaceOnUse">
   <stop stop-color="#c8c9ca" offset="0"/>
   <stop stop-color="#f4f3f9" offset="1"/>
  </radialGradient>
  <radialGradient id="radialGradient30474" cx="0" cy="0" r="1" gradientTransform="matrix(13.391 17.991 -17.991 13.391 129.71 150.29)" gradientUnits="userSpaceOnUse">
   <stop stop-color="#c8c9ca" offset="0"/>
   <stop stop-color="#f4f3f9" offset="1"/>
  </radialGradient>
  <clipPath id="clipPath45766">
   <path d="M 0,612.156 H 792.109 V 0 H 0 Z"/>
  </clipPath>
  <radialGradient id="radialGradient30508" cx="0" cy="0" r="1" gradientTransform="matrix(18.094 19.669 -19.669 18.094 133.12 134.48)" gradientUnits="userSpaceOnUse">
   <stop stop-color="#c8c9ca" offset="0"/>
   <stop stop-color="#f4f3f9" offset="1"/>
  </radialGradient>
  <clipPath id="clipPath45719">
   <path d="M 0,612.156 H 792.109 V 0 H 0 Z"/>
  </clipPath>
  <clipPath id="clipPath45704">
   <path d="M 0,612.156 H 792.109 V 0 H 0 Z"/>
  </clipPath>
  <clipPath id="clipPath45734">
   <path d="M 0,612.156 H 792.109 V 0 H 0 Z"/>
  </clipPath>
  <clipPath id="clipPath45749">
   <path d="M 0,612.156 H 792.109 V 0 H 0 Z"/>
  </clipPath>
  <clipPath id="clipPath45687">
   <path d="M 0,612.156 H 792.109 V 0 H 0 Z"/>
  </clipPath>
  <clipPath id="clipPath46197">
   <path d="M 0,612.156 H 792.109 V 0 H 0 Z"/>
  </clipPath>
  <clipPath id="clipPath46212">
   <path d="M 0,612.156 H 792.109 V 0 H 0 Z"/>
  </clipPath>
  <clipPath id="clipPath46227">
   <path d="M 0,612.156 H 792.109 V 0 H 0 Z"/>
  </clipPath>
  <clipPath id="clipPath46242">
   <path d="M 0,612.156 H 792.109 V 0 H 0 Z"/>
  </clipPath>
  <clipPath id="clipPath46257">
   <path d="M 0,612.156 H 792.109 V 0 H 0 Z"/>
  </clipPath>
  <clipPath id="clipPath46272">
   <path d="M 0,612.156 H 792.109 V 0 H 0 Z"/>
  </clipPath>
  <clipPath id="clipPath46287">
   <path d="M 0,612.156 H 792.109 V 0 H 0 Z"/>
  </clipPath>
  <clipPath id="clipPath46302">
   <path d="M 0,612.156 H 792.109 V 0 H 0 Z"/>
  </clipPath>
  <clipPath id="clipPath46317">
   <path d="M 0,612.156 H 792.109 V 0 H 0 Z"/>
  </clipPath>
  <clipPath id="clipPath46332">
   <path d="M 0,612.156 H 792.109 V 0 H 0 Z"/>
  </clipPath>
  <clipPath id="clipPath46347">
   <path d="M 0,612.156 H 792.109 V 0 H 0 Z"/>
  </clipPath>
  <clipPath id="clipPath46362">
   <path d="M 0,612.156 H 792.109 V 0 H 0 Z"/>
  </clipPath>
  <clipPath id="clipPath46377">
   <path d="M 0,612.156 H 792.109 V 0 H 0 Z"/>
  </clipPath>
  <clipPath id="clipPath46392">
   <path d="M 0,612.156 H 792.109 V 0 H 0 Z"/>
  </clipPath>
  <clipPath id="clipPath46407">
   <path d="M 0,612.156 H 792.109 V 0 H 0 Z"/>
  </clipPath>
  <clipPath id="clipPath46422">
   <path d="M 0,612.156 H 792.109 V 0 H 0 Z"/>
  </clipPath>
  <clipPath id="clipPath46437">
   <path d="M 0,612.156 H 792.109 V 0 H 0 Z"/>
  </clipPath>
  <clipPath id="clipPath46452">
   <path d="M 0,612.156 H 792.109 V 0 H 0 Z"/>
  </clipPath>
  <clipPath id="clipPath46467">
   <path d="M 0,612.156 H 792.109 V 0 H 0 Z"/>
  </clipPath>
  <clipPath id="clipPath46482">
   <path d="M 0,612.156 H 792.109 V 0 H 0 Z"/>
  </clipPath>
  <clipPath id="clipPath46497">
   <path d="M 0,612.156 H 792.109 V 0 H 0 Z"/>
  </clipPath>
  <clipPath id="clipPath45841">
   <path d="M 0,612.156 H 792.109 V 0 H 0 Z"/>
  </clipPath>
  <clipPath id="clipPath46512">
   <path d="M 0,612.156 H 792.109 V 0 H 0 Z"/>
  </clipPath>
  <clipPath id="clipPath46527">
   <path d="M 0,612.156 H 792.109 V 0 H 0 Z"/>
  </clipPath>
  <clipPath id="clipPath46542">
   <path d="M 0,612.156 H 792.109 V 0 H 0 Z"/>
  </clipPath>
  <clipPath id="clipPath46557">
   <path d="M 0,612.156 H 792.109 V 0 H 0 Z"/>
  </clipPath>
  <clipPath id="clipPath46572">
   <path d="M 0,612.156 H 792.109 V 0 H 0 Z"/>
  </clipPath>
  <clipPath id="clipPath46587">
   <path d="M 0,612.156 H 792.109 V 0 H 0 Z"/>
  </clipPath>
  <radialGradient id="radialGradient30670" cx="0" cy="0" r="1" gradientTransform="matrix(8.4861 0 0 8.4861 71.058 118.46)" gradientUnits="userSpaceOnUse">
   <stop stop-color="#fff" offset="0"/>
   <stop stop-color="#fff" offset=".59686"/>
   <stop stop-color="#d2d2d3" offset="1"/>
  </radialGradient>
  <clipPath id="clipPath45781">
   <path d="M 0,612.156 H 792.109 V 0 H 0 Z"/>
  </clipPath>
  <radialGradient id="radialGradient30704" cx="0" cy="0" r="1" fx="-.22622" fy=".0067879" gradientTransform="matrix(5.0964 -9.7717 9.7717 5.0964 93.305 110.37)" gradientUnits="userSpaceOnUse">
   <stop stop-color="#fff" offset="0"/>
   <stop stop-color="#fff" offset=".59686"/>
   <stop stop-color="#d2d2d3" offset="1"/>
  </radialGradient>
  <clipPath id="clipPath45655">
   <path d="M 0,612.156 H 792.109 V 0 H 0 Z"/>
  </clipPath>
  <clipPath id="clipPath45640">
   <path d="M 0,612.156 H 792.109 V 0 H 0 Z"/>
  </clipPath>
  <clipPath id="clipPath46006">
   <path d="M 0,612.156 H 792.109 V 0 H 0 Z"/>
  </clipPath>
  <clipPath id="clipPath45901">
   <path d="M 0,612.156 H 792.109 V 0 H 0 Z"/>
  </clipPath>
  <clipPath id="clipPath46021">
   <path d="M 0,612.156 H 792.109 V 0 H 0 Z"/>
  </clipPath>
  <clipPath id="clipPath46141">
   <path d="M 0,612.156 H 792.109 V 0 H 0 Z"/>
  </clipPath>
  <clipPath id="clipPath45916">
   <path d="M 0,612.156 H 792.109 V 0 H 0 Z"/>
  </clipPath>
  <clipPath id="clipPath46167">
   <path d="M 0,612.156 H 792.109 V 0 H 0 Z"/>
  </clipPath>
  <clipPath id="clipPath45931">
   <path d="M 0,612.156 H 792.109 V 0 H 0 Z"/>
  </clipPath>
  <clipPath id="clipPath46051">
   <path d="M 0,612.156 H 792.109 V 0 H 0 Z"/>
  </clipPath>
  <clipPath id="clipPath45961">
   <path d="M 0,612.156 H 792.109 V 0 H 0 Z"/>
  </clipPath>
  <clipPath id="clipPath46096">
   <path d="M 0,612.156 H 792.109 V 0 H 0 Z"/>
  </clipPath>
  <clipPath id="clipPath45946">
   <path d="M 0,612.156 H 792.109 V 0 H 0 Z"/>
  </clipPath>
  <clipPath id="clipPath46606">
   <path d="M 0,612.156 H 792.109 V 0 H 0 Z"/>
  </clipPath>
  <clipPath id="clipPath46636">
   <path d="M 0,612.156 H 792.109 V 0 H 0 Z"/>
  </clipPath>
  <clipPath id="clipPath46621">
   <path d="M 0,612.156 H 792.109 V 0 H 0 Z"/>
  </clipPath>
  <clipPath id="clipPath45672">
   <path d="M 0,612.156 H 792.109 V 0 H 0 Z"/>
  </clipPath>
  <clipPath id="clipPath45811">
   <path d="M 0,612.156 H 792.109 V 0 H 0 Z"/>
  </clipPath>
  <clipPath id="clipPath45796">
   <path d="M 0,612.156 H 792.109 V 0 H 0 Z"/>
  </clipPath>
  <clipPath id="clipPath46182">
   <path d="M 0,612.156 H 792.109 V 0 H 0 Z"/>
  </clipPath>
  <clipPath id="clipPath46081">
   <path d="M 0,612.156 H 792.109 V 0 H 0 Z"/>
  </clipPath>
  <clipPath id="clipPath46066">
   <path d="M 0,612.156 H 792.109 V 0 H 0 Z"/>
  </clipPath>
  <clipPath id="clipPath46036">
   <path d="M 0,612.156 H 792.109 V 0 H 0 Z"/>
  </clipPath>
  <clipPath id="clipPath46126">
   <path d="M 0,612.156 H 792.109 V 0 H 0 Z"/>
  </clipPath>
  <clipPath id="clipPath45991">
   <path d="M 0,612.156 H 792.109 V 0 H 0 Z"/>
  </clipPath>
  <clipPath id="clipPath46111">
   <path d="M 0,612.156 H 792.109 V 0 H 0 Z"/>
  </clipPath>
  <clipPath id="clipPath45976">
   <path d="M 0,612.156 H 792.109 V 0 H 0 Z"/>
  </clipPath>
 </defs>
 <g transform="translate(-38.652 -86.537)">
  <g transform="matrix(.69423 0 0 -.69423 -353.19 459.79)" clip-path="url(#clipPath46156)">
   <path d="M 0,612.156 H 792.109 V 0 H 0 Z"/>
  </g>
  <path d="m73.739 137.53c-14.877 19.047-34.767 44.894-34.687 63.474 0.03896 9.2186 3.4406 9.6907 9.6491 4.7846 14.831-11.722 24.662-16.969 34.687-20.892 12.838-5.0241 18.167-11 20.215-11.682 1.7703-0.59079 8.3856 0.3249 12.161 2.4312 5.4039 3.0143 13.271 13.992 13.835 19.537 0.31449 3.0962 1.0066 3.0567 1.4357-0.0403 1.1982-8.6528-1.714-23.363-5.6225-29.225-11.719-12.645-42.462-28.445-50.886-28.444-0.2881 0-0.55122 0.0181-0.78588 0.0562" fill="url(#radialGradient30452)"/>
  <path d="m130.78 132.11s-2.3395 26.155-3.2962 31.417c2.2326 7.7351 16.879 19.511 25.703 22.673 1.9709 0.70603 2.2305 0.2645 0.87681-0.77059-7.7198-5.9044-11.899-13.633-11.828-23.179l-7.2033-32.906z" fill="url(#radialGradient30474)"/>
  <path transform="matrix(.69423 0 0 -.69423 -353.19 459.79)" d="m700.24 490.91c-2.383 4.8-6.297 9.805-10.96 10.984l4.326-8.29z" clip-path="url(#clipPath45766)" fill="#fff"/>
  <path d="m133.28 130.09c3.9446 6.1856 2.8054 11.221 4.4125 21.158 1.7543 10.845 20.908 39.584 29.61 38.276 4.5819-0.69006-3.4552-27.671-6.4063-36.761-0.95316-2.9394-6.5223-13.322-12.359-18.5-4.9436-4.3861-10.765-9.7289-11.961-11.483z" fill="url(#radialGradient30508)"/>
  <g fill="#fff">
   <path transform="matrix(.69423 0 0 -.69423 -353.19 459.79)" d="m702.32 472.82s3.848 7.696 4.384 10.375c-2.983 5.236-8.175 9.783-12.137 11.334-5.054 12.118-21.594 19.297-36.028 13.783-5.019 0.253-41.169-23.927-38.403-43.647-1.805-3.283-2.919-8.64-2.068-13.382 1.701-9.473 7.685-14.782 16.713-18.608 1.168-0.495 2.596-0.988 4.177-1.422 8.255-8.317 28.487-15.184 36.353-15.207 3.169-9e-3 6.367 0.794 9.263 2.75 14.554 9.829 19.04 31.779 15.922 46.695 1.125 1.715 2.041 4.184 1.824 7.329" clip-path="url(#clipPath45719)"/>
   <path transform="matrix(.69423 0 0 -.69423 -353.19 459.79)" d="m620.13 464.66c-4.122 4.122 0.083 19.411 10.912 25.844 15.276 9.074 25.582 7.022 29.52 2.297 6.317-7.581-6.547-16.556-14.818-28.371-1.136-1.623-5.143-4.721-6.777-5.054-6.202-1.263-14.66 1.107-18.837 5.284" clip-path="url(#clipPath45704)"/>
   <path transform="matrix(.69423 0 0 -.69423 -353.19 459.79)" d="m735.46 439.62c0.344-2.297 1.895-8.327 2.24-9.763 1.036-1.4 8.573-12.011 10.667-15.081-1.114 4.583-2.385 9.272-3.623 13.594-2.382 3.13-8.306 10.37-9.284 11.25" clip-path="url(#clipPath45734)"/>
   <path transform="matrix(.69423 0 0 -.69423 -353.19 459.79)" d="m625.99 438.24s-2.604-5.59-3.676-7.887c-0.153 1.455-3.216 15.468-3.752 19.22 4.671 0 7.428-11.333 7.428-11.333" clip-path="url(#clipPath45749)"/>
   <path transform="matrix(.69423 0 0 -.69423 -353.19 459.79)" d="m643.45 427.98s-6.815-1.455-9.419-1.838c-1.072 0.46-3.522 1.609-6.356 2.987 1.225 0.382 6.969 2.527 9.036 3.063 4.671 0.996 9.036-2.45 9.036-2.45z" clip-path="url(#clipPath45687)"/>
   <path transform="matrix(.69423 0 0 -.69423 -353.19 459.79)" d="m631.58 412.44c1.479-1.672 7.597-8.577 9.523-10.75 2.289 1.262 4.304 2.495 6.078 3.655-2.482 2.556-14.592 15.67-16.213 17.586 0.383-3.829 0.459-8.424 0.612-10.491" clip-path="url(#clipPath46197)"/>
   <path transform="matrix(.69423 0 0 -.69423 -353.19 459.79)" d="m617.26 420.71c-0.601-1.801-10.912-33.542-12.041-36.313 3.371 2.017 6.583 3.785 9.706 5.368 1.157 4.657 9.861 31.411 10.298 33.089-1.531-0.23-6.891-1.761-7.963-2.144" clip-path="url(#clipPath46212)"/>
   <path transform="matrix(.69423 0 0 -.69423 -353.19 459.79)" d="m588.32 390.15c-1.447-4.136-6.802-19.248-8.304-23.398 3.16 2.477 6.162 4.751 9.031 6.842 1.126 3.322 6.524 17.581 7.16 19.772-2.833-1.072-5.666-2.297-7.887-3.216" clip-path="url(#clipPath46227)"/>
   <path transform="matrix(.69423 0 0 -.69423 -353.19 459.79)" d="m701.42 454.94c-0.087-4.76-0.805-9.742-2.212-14.532 1.405 1.676 6.448 8.206 7.022 10.402-0.393 3.595-0.602 6.704-0.907 9.547-0.541-1.372-2.86-4.458-3.903-5.417" clip-path="url(#clipPath46242)"/>
   <path transform="matrix(.69423 0 0 -.69423 -353.19 459.79)" d="m715.49 475.67c-0.284-2.332-1.642-16.233-2.634-21.04 0.537-3.973 1.372-8.566 2.818-14.08 1.499 3.879 4.588 25.737 4.807 30.347-1.245 1.381-3.52 3.061-4.991 4.773" clip-path="url(#clipPath46257)"/>
   <path transform="matrix(.69423 0 0 -.69423 -353.19 459.79)" d="m726.27 433.82c0-1.25-1.029-12.989-1.139-15.948 1.717-3.1 3.542-6.108 5.409-8.934 0.149 4.223 1.081 26.331 1.186 28.443-0.689-0.402-4.48-2.872-5.456-3.561" clip-path="url(#clipPath46272)"/>
   <path transform="matrix(.69423 0 0 -.69423 -353.19 459.79)" d="m612.82 431.43c-1.086-0.435-16.415-5.73-20.211-7.016-2.465-3.183-5.05-6.779-7.709-10.862 9.954 5.058 31.724 12.45 34.735 13.513-0.996 0.843-5.437 3.523-6.815 4.365" clip-path="url(#clipPath46287)"/>
   <path transform="matrix(.69423 0 0 -.69423 -353.19 459.79)" d="m583.11 400.03c-2.699-1.552-7.237-4.469-9.117-5.665-1.451-2.995-2.983-6.443-4.279-10.042 3.21 2.387 18.032 11.802 20.518 13.41-2.68 0.919-5.361 1.838-7.122 2.297" clip-path="url(#clipPath46302)"/>
   <path transform="matrix(.69423 0 0 -.69423 -353.19 459.79)" d="m715.82 440c-6.126 22.973-1.608 30.018-9.113 43.188-2.983 5.236-8.175 9.784-12.137 11.334-4.93 11.821-20.79 18.937-34.963 14.16 8.704 0.72 17.958-3.528 22.366-11.327-2.91 0.077-9.571-1.914-9.265-3.292 0.306-1.379 6.786-0.919 16.578-6.92 0 0 0.746-0.725 1.111-0.968 1.148-0.765 8.544-8.443 10.337-11.256 5.682-8.91 4.041-16.165 6.357-30.478 2.507-15.501 29.689-56.374 42.356-55.162-8.356 2.02-27.836 29.007-33.627 50.721" clip-path="url(#clipPath46317)"/>
   <path transform="matrix(.69423 0 0 -.69423 -353.19 459.79)" d="m614.97 464.2c-21.429-27.437-50.081-64.668-49.965-91.431 0.024-5.84 0.986-9.241 2.817-10.62-4.991 11.413 5.857 32.046 9.932 39.45 15.048 27.338 28.946 37.79 34.804 45.256 3.178 4.051 4.709 7.352 5.743 9.649l1.838 8.155z" clip-path="url(#clipPath46332)"/>
  </g>
  <g fill="#c6d0ea">
   <path transform="matrix(.69423 0 0 -.69423 -353.19 459.79)" d="m676.4 423.55c-7.598-1.715-15.229-0.44-19.565 2.001 0.632-0.747 1.565-1.515 2.602-2.182-1.683-0.632-5.301-0.518-9.781 0.516 6.429-3.469 19.474-7.783 25.657-7.832 3.2-0.026 6.433 0.774 9.357 2.749 10.156 6.86 15.409 19.621 16.599 31.776-4.598-15.66-18.16-25.513-24.869-27.028" clip-path="url(#clipPath46347)"/>
   <path transform="matrix(.69423 0 0 -.69423 -353.19 459.79)" d="m702.35 472.04c-0.462 0.948-0.994 1.905-1.618 2.882-1.709 2.68-8.499 9.772-10.13 11.098-2.628-20.393-14.035-37.243-29.153-46.217-3e-3 0.475-0.026 0.968-0.077 1.484l-1.221-2.239c-3.697-2.056-7.602-3.647-11.643-4.711-10.733-2.824-19.134 1.144-24.435 5.132 2.789-2.797 6.397-4.97 10.709-6.797 5.076-2.151 15.039-4.272 21.247-1.602 10.639 0.935 25.417 11.735 28.929 27.159 0.894 3.926 1.737 7.032 2.682 9.446 4.112 3.803 8.589 4.528 11.814 1.695 0.409-1.228 0.761-2.522 1.045-3.88 1.03 1.571 1.881 3.775 1.851 6.55" clip-path="url(#clipPath46362)"/>
   <path transform="matrix(.69423 0 0 -.69423 -353.19 459.79)" d="m645.75 464.43c-1.136-1.623-5.143-4.721-6.777-5.054-3.601-0.734-7.96-0.236-11.803 1.123l-0.12-0.083c5.573-2.884 15.058-3.155 19.621-2.233 0.113-0.051 0.801-0.261 0.801-0.261 6.472 3.731 14.961 20.118 14.129 26.15 0 0-12.405-16.962-15.851-19.642" clip-path="url(#clipPath46377)"/>
   <path transform="matrix(.69423 0 0 -.69423 -353.19 459.79)" d="m642.5 464.26c-2.594-2.72-5.347-3.818-9.063-3.141 0.133-0.994-1.556-1.421-3.416-1.287l-0.042-0.155c3.06-0.706 6.245-0.857 8.989-0.298 1.634 0.332 5.641 3.43 6.777 5.053l-0.057 0.071c-1.125-0.453-2.729-0.702-3.188-0.243" clip-path="url(#clipPath46392)"/>
  </g>
  <g>
   <path transform="matrix(.69423 0 0 -.69423 -353.19 459.79)" d="m690.38 501.08c3.268-1.351 6.559-4.808 9.079-9.57l1.165-0.415c-1.429 2.876-5.382 9.726-11.237 11.207z" clip-path="url(#clipPath46407)" fill="#87b1d0"/>
   <path transform="matrix(.69423 0 0 -.69423 -353.19 459.79)" d="m702.72 471.21c-0.141-2.79-1.143-4.843-2.037-6.143l-0.332 0.923c0.898 1.475 1.784 3.744 1.573 6.795z" clip-path="url(#clipPath46422)" fill="#87b1d0"/>
   <path transform="matrix(.69423 0 0 -.69423 -353.19 459.79)" d="m689.87 423.3c5.839-9.027 10.135-28.358 8.01-42.14-0.772-5.01-2.337-5.021-2.843-0.044-0.78 7.673-12.03 23.426-19.732 27.722-5.226 2.915-14.629 4.286-17.152 3.445-3.103-1.034-9.933-9.345-29.176-16.884-12.198-4.779-26.67-11.775-49.85-30.095-10.164-8.033-14.647-5.482-14.703 7.467-0.116 27.271 29.482 65.395 49.858 91.192l0.99-2e-3c-19.91-25.492-49.999-64.017-49.882-91.189 0.05-11.962 3.707-14.141 13.265-6.587 23.259 18.383 37.799 25.38 50.065 30.152 18.438 7.172 26.106 15.825 29.137 16.834 2.706 0.903 12.347-0.474 17.83-3.533 8.026-4.476 19.312-20.425 20.127-28.443 0.378-3.724 0.77-3.698 1.292 0.071 1.667 12.037-2.25 32.72-7.794 41.456z" clip-path="url(#clipPath46437)" fill="#5876b8"/>
   <path transform="matrix(.69423 0 0 -.69423 -353.19 459.79)" d="m714.04 427.07c0.552-12.567 6-23.241 16.871-31.554 2.713-2.077 1.238-2.775-1.633-1.789-13.9 4.771-33.282 20.839-37.113 32.418l0.596 0.717c3.129-10.836 23.705-27.712 36.78-32.399 2.208-0.792 2.44-0.75 0.895 0.432-11.509 8.801-17.293 20.14-17.191 33.7z" clip-path="url(#clipPath46452)" fill="#5876b8"/>
  </g>
  <g fill="#0f141b">
   <path transform="matrix(.69423 0 0 -.69423 -353.19 459.79)" d="m698.51 472.77c6.741-14.314 3.614-42.743-13.705-54.44-2.838-1.917-5.996-2.793-9.186-2.851-8.368-0.15-29.823 7.959-37.425 15.983l1.484-0.389c6.38-6.175 26.397-14.714 35.864-14.638 2.984 0.024 6.024 0.793 8.815 2.678 17.623 11.903 20.241 41.685 12.703 54.736z" clip-path="url(#clipPath46467)"/>
   <path transform="matrix(.69423 0 0 -.69423 -353.19 459.79)" d="m617.83 456.41c-0.924-2.049-2.433-5.351-5.581-9.314-6.547-8.243-19.331-17.164-34.838-45.309-9.176-16.654-12.81-29.594-10.667-37.736-0.91 1.814-1.332 4.717-1.35 8.718-0.116 27.172 29.973 65.697 49.883 91.189l-0.99 2e-3c-20.376-25.797-49.974-63.921-49.858-91.192 0.032-7.284 1.463-11.277 4.52-11.948 0 0-0.786 1.517-0.802 1.527-3.323 7.698 0.122 21.161 9.949 39.063 15.029 27.383 29.522 38.323 34.768 45.203 2.443 3.203 3.981 5.9 4.963 7.936l0.042 1.948z" clip-path="url(#clipPath46482)"/>
   <path transform="matrix(.69423 0 0 -.69423 -353.19 459.79)" d="m654.95 430.81c0-7.729 14.901-14.216 27.375-7.542 8.918 4.77 15.259 13.634 18.336 25.634l-0.028-2.968c-3.364-10.815-9.528-18.856-17.94-23.355-12.42-6.644-28.051-0.583-28.514 7.847z" clip-path="url(#clipPath46497)"/>
  </g>
  <g>
   <path transform="matrix(.69423 0 0 -.69423 -353.19 459.79)" d="m639.06 459.65c11.082-5e-3 21.583-6.761 22.702-18.324 1.459-15.068-17.698-13.238-27.19-9.284-10.433 4.345-15.502 10.296-17.076 19.067-0.832 4.635 0.365 9.636 1.838 12.827l0.801-0.134c-1.469-3.06-2.5-7.885-1.68-12.451 1.522-8.484 6.605-14.133 16.48-18.318 8.23-3.487 27.474-6.479 26.049 8.218-1.061 10.958-11.751 18.647-24.328 17.509z" clip-path="url(#clipPath45841)" fill="#87b1d0"/>
   <path transform="matrix(.69423 0 0 -.69423 -353.19 459.79)" d="m631.25 490.17c-10.155-6.032-14.992-21.076-10.835-25.231 4.249-4.249 12.743-6.347 18.483-5.178 1.529 0.312 5.481 3.39 6.535 4.895 8.423 12.035 20.894 20.628 14.837 27.897-3.875 4.65-14.041 6.515-29.02-2.383m-11.532-25.738c-4.299 4.298 0.145 19.883 11.133 26.41 14.677 8.719 25.744 7.581 30.141 2.306 6.546-7.855-6.568-17.011-14.919-28.939-1.174-1.677-5.284-4.86-7.019-5.213-5.982-1.219-14.879 0.979-19.336 5.436" clip-path="url(#clipPath46512)" fill="#0f141b"/>
   <path transform="matrix(.69423 0 0 -.69423 -353.19 459.79)" d="m656.9 431.55c10.769 1.47 24.418 12.44 27.679 26.761 2.334 10.253 4.325 15.353 9.322 16.603 2.552 0.634 4.855-1.635 5.378-2.868 0.651-1.532 0.265-1.649-0.522-0.401-1.181 1.869-3.098 2.904-4.667 2.51-4.601-1.149-6.497-6.205-8.671-16.161-3.446-15.774-18.411-26.514-29.605-27.344-0.011-1e-3 -0.02-1e-3 -0.03-1e-3z" clip-path="url(#clipPath46527)" fill="#87b1d0"/>
   <path transform="matrix(.69423 0 0 -.69423 -353.19 459.79)" d="m705.16 485.23c1.909-2.8 11.654-11.61 17.292-16.612 8.301-7.364 16.266-22.083 17.692-26.477 8.394-25.864 14.23-51.739 9.54-52.445-12.109-1.815-39.719 39.428-42.207 54.81-2.274 14.05-0.716 21.692-6.413 30.625-1.829 2.869-9.265 10.581-10.45 11.372-0.949 0.632-2.438 2.364-3.124 3.678-0.591 1.132-1.317 0.879-0.735-0.281 0.768-1.527 2.436-3.388 3.426-4.048 1.127-0.752 8.49-8.421 10.225-11.141 5.647-8.856 4.021-17.093 6.226-30.727 2.516-15.55 30.4-57.103 43.494-55.134 7.048 1.061-4.086 38.391-9.036 53.641-1.445 4.453-9.512 19.364-17.916 26.82-4.785 4.245-16.581 14.493-19.491 18.628z" clip-path="url(#clipPath46542)" fill="#5876b8"/>
   <path transform="matrix(.69423 0 0 -.69423 -353.19 459.79)" d="m688.51 488.04c-8.716 5.165-15.247 5.31-15.424 6.109-0.128 0.599 4.622 2.618 8.272 2.808 0.82 0.042 1.355-0.041 0.591 1.204-4.502 7.358-13.522 11.71-22.497 10.906l-1.127-0.917c9.087 1.297 18.426-2.969 22.97-10.416-2.535-0.15-9.412-1.77-8.972-3.755 0.416-1.873 8.058-1.332 17.477-7.697z" clip-path="url(#clipPath46557)" fill="#0f141b"/>
   <path transform="matrix(.69423 0 0 -.69423 -353.19 459.79)" d="m749.48 389.68c-7.772 2.024-27.344 28.131-33.289 50.425-6.08 22.804-1.602 30.048-9.223 43.625-2.772 4.938-7.781 9.516-12.06 11.257-5.29 12.419-21.61 18.722-35.435 14.075l-0.799-1.117c13.725 5.242 30.327-1.097 35.529-13.568 0.04-0.098 0.119-0.175 0.218-0.214 3.568-1.396 8.739-5.724 11.94-11.163 7.216-12.262 2.997-20.305 9.075-43.096 5.297-19.863 22.16-44.487 31.606-50.004-13.068 3.407-37.251 40.259-39.572 54.609-2.274 14.05-0.717 21.692-6.413 30.625-1.829 2.869-9.265 10.581-10.45 11.372-0.949 0.632-2.439 2.363-3.124 3.678-0.591 1.131-1.317 0.878-0.735-0.281 0.768-1.528 2.436-3.389 3.425-4.048 1.128-0.752 8.491-8.421 10.225-11.141 5.647-8.856 4.021-17.094 6.227-30.727 2.516-15.55 30.399-57.103 43.494-55.134 0.49 0.074 0.893 0.323 1.215 0.728-0.555-0.105-1.225-0.087-1.854 0.099" clip-path="url(#clipPath46572)" fill="#0f141b"/>
   <path transform="matrix(.69423 0 0 -.69423 -353.19 459.79)" d="m643.65 458.91c0.256 1.036 1.168 3.115 1.907 4.363 0.652 1.101 1.09 0.811 0.522-0.268-0.637-1.209-1.425-3.29-1.671-4.282-0.044-0.179-0.81-0.022-0.758 0.187" clip-path="url(#clipPath46587)" fill="#87b1d0"/>
  </g>
  <path d="m58.827 101.69c-0.47763 0.39779 1.1948 3.7849 4.0064 5.8718 0.67825 0.50401 1.1503 1.185 1.5016 2.2819 1.0538 3.2906 2.9019 9.5172 4.5395 12.141 1.9612 3.1428 9.1666 9.018 14.495 13.253l-0.19364-2.5784c-1.4718-2.3701-2.6186-5.1671-3.7585-7.7927-1.0851-2.4985-2.1632-4.8422-3.51-6.5139-2.2798-2.8318-3.7648-2.486-4.1598-3.2226-0.27838-0.51859-0.26797-2.8699-1.3642-4.9082-0.79211-1.4724-1.948-2.8567-3.3968-3.4677-1.4183-0.59843-3.0046-1.0046-4.97-2.352-1.36-0.93304-2.9886-2.7158-3.1782-2.7158-0.0039 0-0.0098 1e-3 -0.01181 4e-3" fill="url(#radialGradient30670)"/>
  <path transform="matrix(.69423 0 0 -.69423 -353.19 459.79)" d="m618.09 491.83c1.939-2.409 3.493-5.784 5.056-9.384 1.862-4.288 3.737-8.894 6.292-12.56l2.125-4.537c-7.696 6.087-20.426 16.157-23.604 21.249z" clip-path="url(#clipPath45781)" fill="#fff"/>
  <path d="m109.2 90.843c-4.8589 2.5367-13.19 5.2504-16.991 8.9451-5.6378 5.4795-3.8009 9.9406-4.4125 10.526-3.5683 3.4135-6.7042 11.567-0.79766 20.98l4.5868 4.1522c-1.7869-6.1425-1.8001-13.939 1.8855-19.364 2.1132-3.1094 6.8978-6.6583 9.808-8.5723 3.2184-2.1153 6.2466-7.7052 7.0568-11.762 0.24577-1.2288 0.40267-1.4301 0.7574-1.7939 2.8512-2.931 3.5676-6.8388 3.2039-7.0041-0.01-0.0041-0.0197-0.0063-0.0291-0.0063-0.32838 0-1.3912 1.9806-5.0686 3.8995" fill="url(#radialGradient30704)"/>
  <g>
   <path transform="matrix(.69423 0 0 -.69423 -353.19 459.79)" d="m643.39 495.1c-5.688-8.372-5.26-20.667-2.125-29.75l-6.432 6.663c-9.533 14.051-4.904 26.337 0.383 31.395z" clip-path="url(#clipPath45655)" fill="#fff"/>
   <path transform="matrix(.69423 0 0 -.69423 -353.19 459.79)" d="m631.12 459.84c1.402-0.124 2.917 0.599 3.025 1.57 0.192 1.731-2.154 5.009-8.462 6.164-4.936 0.905-11.763 3.371-15.557 6.936 0.268-2.68 4.378-6.285 7.096-7.012-3.829-0.651-9.993-2.719-12.443-5.935 6.815 2.642 14.204 3.369 17.229 1.531z" clip-path="url(#clipPath45640)" fill="#ebf3d8"/>
   <path transform="matrix(.69423 0 0 -.69423 -353.19 459.79)" d="m643.18 464.05c-0.957 0-2.948 0.919-2.029 5.59 1.538 7.818 9.247 12.449 11.065 15.201 2.979 4.509 5.207 7.542 5.054 14.051 2.641-2.183 1.369-11.509-0.69-14.473 1.794 1.661 6.617 4.554 8.462 5.246 3.348 1.255 10.021 1.93 13.286 0.459-3.407-0.115-11.065-2.259-16.77-8.155-2.807-2.901-6.509-8.883-7.198-9.84z" clip-path="url(#clipPath46006)" fill="#ebf3d8"/>
  </g>
  <g fill="#3e62ac">
   <path transform="matrix(.69423 0 0 -.69423 -353.19 459.79)" d="m631.49 469.14c-0.038 0.172 0.402 2.488 0.593 2.565 0.192 0.077 2.144-1.283 2.221-1.551 0.077-0.267-0.44-2.775-0.574-2.814-0.185-0.053-2.197 1.605-2.24 1.8" clip-path="url(#clipPath45901)"/>
   <path transform="matrix(.69423 0 0 -.69423 -353.19 459.79)" d="m619.48 466.84c0.418 0.569 4.429-0.479 7.353-1.361 5.749-1.733 7.173-3.799 6.431-4.88-0.534-0.776-3.108-1.49-8.041 0.421-4.25 1.647-6.164 5.246-5.743 5.82" clip-path="url(#clipPath46021)"/>
   <path transform="matrix(.69423 0 0 -.69423 -353.19 459.79)" d="m642.92 464.09c-1.876 0.575-0.421 5.958 3.522 10.797 3.037 3.725 5.282 4.168 6.938 4.842 1.193 0.486 2.129 1.474 2.622 1.673 0.492 0.199 0.931 0.014 1.276-1.154 0.689-2.336-0.996-6.356-5.207-10.989-3.679-4.047-7.552-5.658-9.151-5.169" clip-path="url(#clipPath46141)"/>
  </g>
  <g>
   <path transform="matrix(.69423 0 0 -.69423 -353.19 459.79)" d="m631.08 463.77c-1.023 0.577-2.412 1.163-4.242 1.714-1.158 0.349-2.486 0.724-3.694 1.015 0.422-2.894 5.283-4.414 7.936-2.729" clip-path="url(#clipPath45916)" fill="#a3abd5"/>
   <path transform="matrix(.69423 0 0 -.69423 -353.19 459.79)" d="m642.92 464.09c-1.876 0.575-0.421 5.958 3.522 10.797 3.037 3.725 5.282 4.168 6.938 4.842 1.193 0.486 2.129 1.474 2.622 1.673 0.492 0.199 0.931 0.014 1.276-1.154 0.689-2.336-0.996-6.356-5.207-10.989-3.679-4.047-7.552-5.658-9.151-5.169" clip-path="url(#clipPath46167)" fill="#3e62ac"/>
   <path transform="matrix(.69423 0 0 -.69423 -353.19 459.79)" d="m649.31 472.96c1.311 1.424 2.341 4.165 1.38 5.633-1.209-0.651-2.614-1.701-4.251-3.709-1.141-1.401-2.072-2.846-2.776-4.208 0.368-0.662 3.098-0.487 5.647 2.284" clip-path="url(#clipPath45931)" fill="#a3abd5"/>
   <path transform="matrix(.69423 0 0 -.69423 -353.19 459.79)" d="m652.07 469.25c1.334 1.468 2.413 2.874 3.245 4.185v7e-3c-0.07 1.314-2.495 1.518-4.509-0.861-2.095-2.476-2.115-5.054-1.41-5.847 0.879 0.7 1.782 1.535 2.674 2.516" clip-path="url(#clipPath46051)" fill="#d6e6ae"/>
  </g>
  <g fill="#fff">
   <path transform="matrix(.69423 0 0 -.69423 -353.19 459.79)" d="m607.07 507.42c-0.565 0.461-1.175 0.844-1.826 1.118-0.503 0.213-1.02 0.407-1.556 0.611 0.66-1.325 2.207-5.346 2.667-6.469 0 0 0.514 3.448 0.715 4.74" clip-path="url(#clipPath45961)"/>
   <path transform="matrix(.69423 0 0 -.69423 -353.19 459.79)" d="m603.13 505.78c0.101 0.201-2.774 3.944-3.736 5.313-0.427 0.249-0.865 0.521-1.318 0.832-2.01 1.378-4.426 4.045-4.594 3.906-0.618-0.514 1.266-4.496 4.587-7.481 1.646-1.063 4.967-2.758 5.061-2.57" clip-path="url(#clipPath46096)"/>
   <path transform="matrix(.69423 0 0 -.69423 -353.19 459.79)" d="m603.48 503.92s-1.461 0.114-2.062 0.179c0-2e-3 1e-3 -4e-3 2e-3 -7e-3 0.2-0.621 0.418-1.317 0.654-2.062 0.579-0.075 1.966-0.235 2.325-0.235-0.058 0.201-0.919 2.125-0.919 2.125" clip-path="url(#clipPath45946)"/>
   <path transform="matrix(.69423 0 0 -.69423 -353.19 459.79)" d="m652.1 520.2c0.166 0 3.66 5.618 4.123 6.777-1.29-0.569-2.59-1.151-3.867-1.751-0.044-1.093-0.414-5.026-0.256-5.026" clip-path="url(#clipPath46606)"/>
   <path transform="matrix(.69423 0 0 -.69423 -353.19 459.79)" d="m673.39 537.06c-0.421 0.191-1.876-2.756-7.342-5.609-0.509-0.266-1.048-0.533-1.606-0.802-0.774-1.731-6.645-4.592-8.329-9.047 0.713 0.464 3.79 2.699 6.029 3.572 4.669 1.821 7.484 3.288 10.237 7.227 1.088 2.499 1.321 4.519 1.011 4.659" clip-path="url(#clipPath46636)"/>
   <path transform="matrix(.69423 0 0 -.69423 -353.19 459.79)" d="m658.15 517.53c1.754 0.162 6.806 1.516 8.026 1.988 0.652 1.613 1.154 3.203 1.462 4.664-1.227-0.833-5.846-2.173-7.162-2.402-0.517-0.833-1.867-3.532-2.326-4.25" clip-path="url(#clipPath46621)"/>
  </g>
  <g>
   <path transform="matrix(.69423 0 0 -.69423 -353.19 459.79)" d="m627.49 462.4c-1.592 0.488-3.102 0.229-3.446-0.038-0.262-0.204-0.147-0.519 0.159-0.877 0.328-0.165 0.666-0.323 1.028-0.463 1.756-0.681 3.207-1.024 4.38-1.155 0.864 0.4 0.566 1.71-2.121 2.533" clip-path="url(#clipPath45672)" fill="#d6e6ae"/>
   <path transform="matrix(.69423 0 0 -.69423 -353.19 459.79)" d="m629.94 466.19c-7.73 6.124-19.35 15.348-22.379 20.178-2.741 4.37-6.32 17.009-6.509 17.598-0.462 1.442-1.086 2.396-2.024 3.093-3.567 2.648-6.001 6.792-6.045 8.372-0.034 1.269 0.474 1.059 1.379 0.239 0.392-0.357 2.871-2.597 3.944-3.423 1.952-1.504 4.678-2.218 7.13-3.251 1.922-0.811 3.754-2.646 5.111-5.169 1.71-3.178 1.499-6.318 1.899-7.17 0.272-0.579 2.971-0.737 6.084-4.604 3.923-4.87 6.394-14.262 10.568-21.269 0.603-1.013 0.248-1.295-0.383-0.344-4.408 6.629-7.003 16.273-10.925 21.144-3.231 4.013-5.361 3.499-6.032 4.704-0.419 0.752-0.513 4.408-1.965 7.068-1.288 2.358-2.942 4.078-4.7 4.82-2.139 0.901-4.143 1.313-7.229 3.427-1.612 1.104-3.851 3.327-4.055 3.512 0.339-1.332 2.312-4.925 5.685-7.428 1.077-0.802 1.787-1.875 2.302-3.482 0.189-0.591 4.013-13.444 6.498-17.401 3.156-5.024 16.018-15.216 23.446-21.188 0 0-1.732 0.611-1.8 0.574" clip-path="url(#clipPath45811)" fill="#5876b8"/>
   <path transform="matrix(.69423 0 0 -.69423 -353.19 459.79)" d="m640.94 467.71c-2.229 8.009-2.682 19.137 2.774 27.167 3.445 5.069 11.789 10.614 14.207 12.204 4.906 3.225 8.996 11.471 10.146 17.229 0.346 1.728 0.547 1.935 0.989 2.389 3.22 3.31 4.659 7.543 4.833 9.49 0.229 2.547-0.974 1.138-1.59 0.479-0.894-0.958-2.755-2.951-6.432-4.871-7.869-4.107-18.752-7.16-24.544-12.694-8.111-7.749-5.826-14.74-6.376-15.416-8.154-7.557-8.003-20.739-0.84-31.104 0.633-0.917 1.068-0.653 0.459 0.307-9.189 14.472-3.471 26.03 0.921 30.233 1.08 1.033-1.585 7.403 6.358 15.164 4.998 4.884 17.99 9.48 24.384 12.818 3.795 1.981 6.28 4.423 6.896 5.3-0.093-1.401-1.248-5.686-4.629-9.161-0.596-0.612-0.836-0.986-1.195-2.781-1.125-5.627-5.41-13.676-9.996-16.692-2.449-1.61-10.711-7.266-14.237-12.455-6.148-9.047-5.076-21.928-2.175-29.969z" clip-path="url(#clipPath45796)" fill="#5876b8"/>
  </g>
  <g fill="#0f141b">
   <path transform="matrix(.69423 0 0 -.69423 -353.19 459.79)" d="m625.09 460.66c-4.647 1.8-6.396 5.763-5.917 6.415 0.447 0.61 2.618 0.339 7.781-1.218 7.299-2.2 7.263-4.566 6.64-5.475-1.247-1.814-5.648-0.828-8.504 0.278m-5.29 5.927c-0.026-0.518 1.589-3.655 5.573-5.198 2.779-1.077 6.822-1.663 7.576-0.564 0.38 0.551-0.58 2.583-6.22 4.284-4.704 1.418-6.648 1.551-6.929 1.478" clip-path="url(#clipPath46182)"/>
   <path transform="matrix(.69423 0 0 -.69423 -353.19 459.79)" d="m631.43 459.43c1.43 0 2.98 0.765 3.109 1.931 0.225 2.027-2.351 5.413-8.779 6.591-4.827 0.885-10.512 2.975-14.649 6.21-1.26 0.986-2.256 1.721-1.071-0.742 1.236-2.57 3.161-4.407 5.846-5.797-3.1-0.696-7.85-2.289-10.539-4.859-2.155-2.06-0.888-1.714 0.754-1.137 6.418 2.26 13.02 2.761 15.71 1.128l-0.978 1.264c-3.287 0.994-8.942 0.419-14.622-1.526 2.461 2.145 6.672 3.728 10.226 4.454 1.595 0.325 1.488 0.588 0.133 1.202-2.429 1.1-4.206 2.663-5.581 5.108 4.12-3.255 9.854-5.198 14.63-6.074 6.437-1.179 8.288-4.433 8.144-5.736-0.079-0.714-1.397-1.33-2.603-1.224z" clip-path="url(#clipPath46081)"/>
   <path transform="matrix(.69423 0 0 -.69423 -353.19 459.79)" d="m631.51 463.63c-2.945-1.978-8.38-0.344-8.672 2.958l0.722-0.193c0.507-2.33 5.008-3.847 7.388-2.249z" clip-path="url(#clipPath46066)"/>
   <path transform="matrix(.69423 0 0 -.69423 -353.19 459.79)" d="m656.32 481.08c-0.334 0-1.55-1.208-2.792-1.713-1.655-0.674-3.803-1.072-6.782-4.727-3.939-4.832-5.016-9.781-3.712-10.176 0.768-0.237 4.304 0.169 8.748 5.058 3.844 4.228 5.806 8.295 5.121 10.615-0.177 0.6-0.389 0.943-0.583 0.943m-13.514-17.364c-2.229 0.683-1.134 5.936 3.334 11.418 3.095 3.796 5.491 4.302 7.094 4.957 1.645 0.669 2.265 1.771 3.086 1.771 0.889 0 1.223-1.132 1.333-1.504 0.772-2.619-1.206-6.866-5.293-11.362-4.515-4.968-8.473-5.61-9.554-5.28" clip-path="url(#clipPath46036)"/>
   <path transform="matrix(.69423 0 0 -.69423 -353.19 459.79)" d="m655.46 473.06c1.355 2.061 4.176 6.351 6.381 8.63 4.861 5.023 11.208 7.355 15.117 7.909 1.108 0.157 4.069 0.415 0.036 1.369-3.678 0.869-9.192 0.141-12.086-0.945-1.535-0.575-4.929-2.551-7.159-4.177 1.376 3.48 2.131 9.65 0.503 12.454-1.375 2.367-1.343 0.949-1.366-0.448-0.101-5.942-2.654-9.273-4.994-12.803-1.716-2.6-9.58-7.507-11.121-15.341-0.755-3.832 0.287-6.056 2.412-6.056l-0.851 1.064c-0.515 0.355-1.453 1.498-0.795 4.842 1.548 7.865 9.091 12.16 11.007 15.06 2.425 3.657 4.998 6.864 5.122 13.131 1.372-2.651 0.624-8.909-0.834-12.09-0.988-2.154-0.876-2.162 0.903-0.798 2.116 1.622 5.876 3.842 7.447 4.431 2.624 0.984 7.715 1.682 11.205 1.007-4.068-0.69-10.304-3.102-15.107-8.066-1.404-1.451-3.037-3.676-4.401-5.652l-1.419-3.521" clip-path="url(#clipPath46126)"/>
   <path transform="matrix(.69423 0 0 -.69423 -353.19 459.79)" d="m650.98 478.87c1.195-1.708-0.059-4.735-1.382-6.174-2.712-2.947-5.45-2.988-6.102-2.431l0.502 0.599c0.379-0.391 2.597-0.278 5.024 2.361 1.302 1.415 2.161 3.993 1.318 5.197z" clip-path="url(#clipPath45991)"/>
   <path transform="matrix(.69423 0 0 -.69423 -353.19 459.79)" d="m649.77 466.92c-0.373 0.231-1.217 2.411 1.327 5.417 2.025 2.392 3.786 1.749 3.819 1.093l0.651 0.533c-0.59 1.148-3.033 1.282-5.067-1.121-2.329-2.752-2.091-5.433-1.397-6.344z" clip-path="url(#clipPath46111)"/>
   <path transform="matrix(.69423 0 0 -.69423 -353.19 459.79)" d="m631.88 469.26c0.251-0.27 1.141-1.013 1.638-1.365 0.16 0.607 0.386 1.779 0.399 2.128-0.233 0.253-1.157 0.914-1.637 1.186-0.151-0.512-0.362-1.582-0.4-1.949m-0.775-0.206c-0.034 0.149 0.288 2.796 0.829 3.013 0.349 0.142 2.64-1.449 2.741-1.806 9e-3 -0.028-0.251-3.127-0.841-3.297-0.484-0.136-2.658 1.766-2.729 2.09" clip-path="url(#clipPath45976)"/>
  </g>
 </g>
</svg>
