<?xml version="1.0" encoding="UTF-8"?>
<!-- Created with Inkscape (http://www.inkscape.org/) -->
<svg version="1.1" viewBox="0 0 184.51 113.64" xmlns="http://www.w3.org/2000/svg">
 <defs>
  <clipPath id="clipPath21234">
   <path d="m0 792h612v-792h-612z"/>
  </clipPath>
  <radialGradient id="radialGradient21258" cx="0" cy="0" r="1" gradientTransform="matrix(-.82256 5.4991 5.4998 .82274 322.47 185.51)" gradientUnits="userSpaceOnUse">
   <stop stop-color="#fff" offset="0"/>
   <stop stop-color="#fff" offset=".59686"/>
   <stop stop-color="#d2d2d3" offset="1"/>
  </radialGradient>
  <radialGradient id="radialGradient21224" cx="0" cy="0" r="1" gradientTransform="matrix(2.4544 5.2496 5.2503 -2.4546 307.86 195.7)" gradientUnits="userSpaceOnUse">
   <stop stop-color="#fff" offset="0"/>
   <stop stop-color="#fff" offset=".59686"/>
   <stop stop-color="#d2d2d3" offset="1"/>
  </radialGradient>
  <radialGradient id="radialGradient20986" cx="0" cy="0" r="1" gradientTransform="matrix(19.528 1.3919 1.3923 -19.53 314.58 170.95)" gradientUnits="userSpaceOnUse">
   <stop stop-color="#c8c9ca" offset="0"/>
   <stop stop-color="#f4f3f9" offset="1"/>
  </radialGradient>
  <clipPath id="clipPath20996">
   <path d="m0 792h612v-792h-612z"/>
  </clipPath>
  <radialGradient id="radialGradient20964" cx="0" cy="0" r="1" gradientTransform="matrix(-16.159 10.645 10.647 16.161 294.16 180.1)" gradientUnits="userSpaceOnUse">
   <stop stop-color="#c8c9ca" offset="0"/>
   <stop stop-color="#f4f3f9" offset="1"/>
  </radialGradient>
 </defs>
 <g transform="rotate(-19.872 65.147 38.556)">
  <g transform="matrix(2.1716 0 0 -2.1716 -576.41 458.39)">
   <path d="m272.28 204.58c-4.136-0.565-5.707-2.809-5.041-4.619l-1e-3 2e-3c0.938-3.5 8.484-7.701 14.33-12.706 7.394-6.33 10.956-13.151 10.255-14.97-0.54-1.403-1.393-2.862-2.581-4.08-2.601-2.667-7.552-5.376-7.42-5.819 0.201-0.681 13.561 1.28 17.213 6.233l-0.267 23.236c-1.299-0.347-3.378 1.796-5.146 3.968-1.857 2.278-6.592 5.848-9.923 7.184-3.058 1.228-5.579 1.797-8.3 1.797-1 0-2.028-0.077-3.119-0.226" fill="url(#radialGradient20964)"/>
  </g>
  <g transform="matrix(2.1716 0 0 -2.1716 -576.41 458.39)">
   <path d="m302.58 167c-1.274-5.413 2.834-14.148 3.581-14.085 0.441 0.039-0.782 4.431 0.246 8.136 0.509 1.832 1.403 3.299 2.606 4.557 1.772 1.852 16.491 3.29 21.194 3.344 1.481 0.017 3.296-0.151 5.142-0.32 4.038-0.368 8.231-0.736 9.453 0.838l-3e-3 -3e-3c2.48 2.786-3.889 8.693-7.02 10.167-3.669 1.727-8.8 2.075-15.154 1.355-0.963-0.11-2.086 0.158-2.789 0.457z" fill="url(#radialGradient20986)"/>
  </g>
  <g transform="matrix(2.1716 0 0 -2.1716 -576.41 458.39)" clip-path="url(#clipPath20996)">
   <g transform="translate(296.18 184.71)">
    <path d="m0 0c-2.521-1.6-2.925-10.175 2.274-15.52 1.715-1.762 2.762-2.27 6.391-2.355l-0.012 0.028c1.208-0.283 3.013-0.254 5.434 0.563 1.331 0.448 5.344 2.62 6.433 5.388z" fill="#fff"/>
   </g>
   <g transform="translate(313.76 189.96)">
    <path d="m0 0c-4.281 2.376-8.739 3.529-11.8 3.103-1.668-0.233-4.199-2.229-5.304-3.229-2.375-1.603-2.973-4.387-1.72-7.061-0.046 0.394 0.431 1.489 1.244 1.942 0.291-0.218 0.514-0.825 0.667-1.828 0.534-3.487 2.401-7.102 4.303-8.822 1.573-1.421 3.429-2.57 5.068-2.619l1e-3 -1e-3c4.875-1.521 10.465 0.093 12.555 3.531 2.957 4.863 1.113 11.585-5.014 14.984" fill="#fff"/>
   </g>
   <g transform="translate(301.18 193.35)">
    <path d="m0 0c-1.148 0.211-2.35 1.012-3.156 1.818-3.02 3.025-8.443 7.357-11.779 8.755-6.46 2.706-14.13 2.991-18.122-0.033-1.481-1.121-1.58-2.595-0.987-3.957 0.122-0.282 0.104 0.025 0.104 0.025-0.666 1.81 0.904 4.054 5.04 4.62 4.058 0.555 7.237 0.108 11.42-1.571 3.331-1.337 8.065-4.906 9.922-7.185 1.366-1.677 2.916-3.335 4.15-3.844h-4e-3c-0.592-0.625-1.351-1.993-0.959-2.457 0.241-0.284 1.323 1.046 3.453 1.841 1.15 0.429 2.23 0.514 2.335 0.824 0.121 0.355-0.564 1.007-1.417 1.164" fill="#fff"/>
   </g>
   <g transform="translate(344.8 169.46)">
    <path d="m0 0c2.644 2.815-0.625 8.052-6.471 11.404-3.977 2.282-8.997 3.021-16.072 2.495-1.446-0.107-2.777 0.376-3.17 1.03 0.326-1.141 0.579-2.231 0.75-2.95 0.703-0.299 1.826-0.567 2.789-0.458 6.354 0.721 11.485 0.374 15.153-1.354 3.131-1.474 9.5-7.381 7.021-10.167" fill="#fff"/>
   </g>
   <g transform="translate(278.32 199.78)">
    <path d="m0 0c-0.3 0.455-2.958 4.676-3.147 5.025-0.799-9e-3 -1.619-0.07-2.475-0.173 0.529-0.721 3.976-6.187 4.565-6.919 0.314 0.586 0.756 1.492 1.057 2.067" fill="#fff"/>
   </g>
   <g transform="translate(273.33 198.22)">
    <path d="m0 0c-0.589-0.016-4.374-0.321-4.917-0.299 0.529-0.637 1.203-1.295 1.979-1.973 0.648 0.08 3.857 0.335 4.545 0.419-0.351 0.424-1.342 1.509-1.607 1.853" fill="#fff"/>
   </g>
   <g transform="translate(287.82 189.52)">
    <path d="m0 0c0.227 0.734 0.583 1.977 0.89 2.962-0.472 1.138-4.891 10.3-5.004 10.533-1.118 0.449-2.163 0.807-3.173 1.084 0.518-1.144 6.371-13.068 7.287-14.579" fill="#fff"/>
   </g>
   <g transform="translate(288.89 189.33)">
    <path d="M 0,0 C 0.799,0.109 3.002,0.24 3.372,0.28 3.708,0.598 7.037,3.582 7.253,3.776 6.734,4.241 6.2,4.799 5.676,5.393 H 5.675 C 4.919,4.658 0.729,0.616 0,0" fill="#fff"/>
   </g>
   <g transform="translate(288.61 187.54)">
    <path d="m0 0c-0.291-0.22-1.821-1.199-2.161-1.466-0.051-0.376-0.359-2.635-0.411-3.171 0.66-0.736 1.266-1.462 1.817-2.168 0.078 0.712 0.695 6.368 0.755 6.805" fill="#fff"/>
   </g>
   <g transform="translate(286.26 188.5)">
    <path d="m0 0c-0.382 0.409-1.165 1.246-1.601 1.724-0.688 0.03-6.49 0.37-7.375 0.424 0.891-0.667 1.788-1.35 2.664-2.05 0.66-0.054 5.441-0.082 6.312-0.098" fill="#fff"/>
   </g>
   <g transform="translate(321.02 176.03)">
    <path d="m0 0c0.428-0.311 1.395-1.058 1.759-1.295-0.051 0.607-0.849 5.316-0.988 6.243-0.676 0.051-1.35 0.227-1.848 0.425 0.034-0.254 0.976-4.996 1.077-5.373" fill="#fff"/>
   </g>
   <g transform="translate(322.5 171.5)">
    <path d="m0 0c-0.1 0.548-0.276 1.318-0.415 1.979-0.54-0.579-4.668-4.929-5.389-5.79h-1e-3c0.827 0.125 1.68 0.243 2.542 0.352v1e-3c0.596 0.616 2.884 3.015 3.263 3.458" fill="#fff"/>
   </g>
   <g transform="translate(325.48 173.11)">
    <path d="m0 0c-0.431-0.063-1.516-0.145-2.124-0.224 0.471-0.505 3.392-3.483 3.94-4.062 0.921 0.059 1.741 0.099 2.414 0.118-0.161 0.159-3.733 3.666-4.23 4.168" fill="#fff"/>
   </g>
   <g transform="translate(323.83 174.29)">
    <path d="M 0,0 C 0.952,0.456 12.347,5.428 13.041,5.726 12.121,6.081 11.122,6.361 10.044,6.57 8.319,5.808 1.421,2.746 0.653,2.376 0.494,1.795 0.244,0.832 0,0" fill="#fff"/>
   </g>
   <g transform="translate(334.31 173.22)">
    <path d="M 0,0 C 1.125,0.318 7.638,2.152 8.561,2.418 8.13,2.889 7.668,3.346 7.194,3.774 6.379,3.585 1.71,2.298 1.223,2.12 0.97,1.682 0.271,0.461 0,0" fill="#fff"/>
   </g>
   <g transform="translate(333.06 171.68)">
    <path d="m0 0c0.471-0.465 2.631-2.57 3.208-3.133 1.137-0.1 2.268-0.189 3.323-0.223-0.698 0.504-4.175 3.282-4.567 3.643-0.559-0.077-1.484-0.222-1.964-0.287" fill="#fff"/>
   </g>
   <g transform="translate(301.18 193.35)">
    <path d="m0 0c-1.148 0.211-2.35 1.012-3.156 1.818-3.02 3.025-8.443 7.357-11.779 8.755-6.46 2.706-14.13 2.991-18.122-0.033-1.481-1.121-1.58-2.595-0.987-3.957 0.122-0.282 0.104 0.025 0.104 0.025-0.666 1.81 0.904 4.054 5.04 4.62 4.058 0.555 7.237 0.108 11.42-1.571 3.331-1.337 8.065-4.906 9.922-7.185 1.366-1.677 2.916-3.335 4.15-3.844h-4e-3c-0.592-0.625-1.351-1.993-0.959-2.457 0.241-0.284 1.323 1.046 3.453 1.841 1.15 0.429 2.23 0.514 2.335 0.824 0.121 0.355-0.564 1.007-1.417 1.164" fill="#fff"/>
   </g>
   <g transform="translate(344.8 169.46)">
    <path d="m0 0c2.644 2.815-0.625 8.052-6.471 11.404-3.977 2.282-8.997 3.021-16.072 2.495-1.446-0.107-2.777 0.376-3.17 1.03 0.326-1.141 0.579-2.231 0.75-2.95 0.703-0.299 1.826-0.567 2.789-0.458 6.354 0.721 11.485 0.374 15.153-1.354 3.131-1.474 9.5-7.381 7.021-10.167" fill="#fff"/>
   </g>
   <g transform="translate(278.32 199.78)">
    <path d="m0 0c-0.3 0.455-2.958 4.676-3.147 5.025-0.799-9e-3 -1.619-0.07-2.475-0.173 0.529-0.721 3.976-6.187 4.565-6.919 0.314 0.586 0.756 1.492 1.057 2.067" fill="#fff"/>
   </g>
   <g transform="translate(273.33 198.22)">
    <path d="m0 0c-0.589-0.016-4.374-0.321-4.917-0.299 0.529-0.637 1.203-1.295 1.979-1.973 0.648 0.08 3.857 0.335 4.545 0.419-0.351 0.424-1.342 1.509-1.607 1.853" fill="#fff"/>
   </g>
   <g transform="translate(287.82 189.52)">
    <path d="m0 0c0.227 0.734 0.583 1.977 0.89 2.962-0.472 1.138-4.891 10.3-5.004 10.533-1.118 0.449-2.163 0.807-3.173 1.084 0.518-1.144 6.371-13.068 7.287-14.579" fill="#fff"/>
   </g>
   <g transform="translate(288.89 189.33)">
    <path d="M 0,0 C 0.799,0.109 3.002,0.24 3.372,0.28 3.708,0.598 7.037,3.582 7.253,3.776 6.734,4.241 6.2,4.799 5.676,5.393 H 5.675 C 4.919,4.658 0.729,0.616 0,0" fill="#fff"/>
   </g>
   <g transform="translate(294.9 182.85)">
    <path d="m0 0c-0.351 0.773-0.546 1.555-0.59 2.313-3e-3 2e-3 -6e-3 5e-3 -9e-3 7e-3 -0.441 0.285-4.18 2.783-4.432 2.977 0.091-0.671 0.238-1.699 0.284-2.197 0.375-0.281 4.249-3.156 4.615-3.469 3e-3 -3e-3 7e-3 -5e-3 0.01-8e-3 0.039 0.129 0.079 0.256 0.122 0.377" fill="#fff"/>
   </g>
   <g transform="translate(288.61 187.54)">
    <path d="m0 0c-0.291-0.22-1.821-1.199-2.161-1.466-0.051-0.376-0.359-2.635-0.411-3.171 0.66-0.736 1.266-1.462 1.817-2.168 0.078 0.712 0.695 6.368 0.755 6.805" fill="#fff"/>
   </g>
   <g transform="translate(286.26 188.5)">
    <path d="m0 0c-0.382 0.409-1.165 1.246-1.601 1.724-0.688 0.03-6.49 0.37-7.375 0.424 0.891-0.667 1.788-1.35 2.664-2.05 0.66-0.054 5.441-0.082 6.312-0.098" fill="#fff"/>
   </g>
   <g transform="translate(318.61 174.72)">
    <path d="m0 0h-2e-3c-0.342-0.506-0.762-0.969-1.245-1.385 1e-3 0 2e-3 -1e-3 3e-3 -1e-3 0 0 1.456-0.144 2.444-0.155 0.263 0.272 0.928 0.942 1.382 1.38-0.6 0.031-1.836 0.1-2.582 0.161" fill="#fff"/>
   </g>
   <g transform="translate(321.02 176.03)">
    <path d="m0 0c0.428-0.311 1.395-1.058 1.759-1.295-0.051 0.607-0.849 5.316-0.988 6.243-0.676 0.051-1.35 0.227-1.848 0.425 0.034-0.254 0.976-4.996 1.077-5.373" fill="#fff"/>
   </g>
   <g transform="translate(322.5 171.5)">
    <path d="m0 0c-0.1 0.548-0.276 1.318-0.415 1.979-0.54-0.579-4.668-4.929-5.389-5.79h-1e-3c0.827 0.125 1.68 0.243 2.542 0.352v1e-3c0.596 0.616 2.884 3.015 3.263 3.458" fill="#fff"/>
   </g>
   <g transform="translate(325.48 173.11)">
    <path d="m0 0c-0.431-0.063-1.516-0.145-2.124-0.224 0.471-0.505 3.392-3.483 3.94-4.062 0.921 0.059 1.741 0.099 2.414 0.118-0.161 0.159-3.733 3.666-4.23 4.168" fill="#fff"/>
   </g>
   <g transform="translate(323.83 174.29)">
    <path d="M 0,0 C 0.952,0.456 12.347,5.428 13.041,5.726 12.121,6.081 11.122,6.361 10.044,6.57 8.319,5.808 1.421,2.746 0.653,2.376 0.494,1.795 0.244,0.832 0,0" fill="#fff"/>
   </g>
   <g transform="translate(334.31 173.22)">
    <path d="M 0,0 C 1.125,0.318 7.638,2.152 8.561,2.418 8.13,2.889 7.668,3.346 7.194,3.774 6.379,3.585 1.71,2.298 1.223,2.12 0.97,1.682 0.271,0.461 0,0" fill="#fff"/>
   </g>
   <g transform="translate(333.06 171.68)">
    <path d="m0 0c0.471-0.465 2.631-2.57 3.208-3.133 1.137-0.1 2.268-0.189 3.323-0.223-0.698 0.504-4.175 3.282-4.567 3.643-0.559-0.077-1.484-0.222-1.964-0.287" fill="#fff"/>
   </g>
   <g transform="translate(311.73 183.16)">
    <path d="M 0,0 C 0.153,0.081 0.72,0.327 0.924,0.386 0.958,0.236 0.958,-0.437 0.931,-0.569 0.814,-0.65 0.251,-0.917 0.105,-0.927 0.06,-0.747 0,0 0,0" fill="#2f65a9"/>
   </g>
   <g transform="translate(307.6 182.29)">
    <path d="m0 0s2.015-1.887 2.769-2.247c0.754-0.361 4.627-0.512 4.627-0.512-0.652-0.293-5.332-1.06-5.332-1.06s-2.191 3.179-2.064 3.819" fill="#c3d1e8"/>
   </g>
   <g transform="translate(298.46 169.19)">
    <path d="m0 0c1.714-1.763 2.762-2.271 6.391-2.355l0.052 0.014c-0.425 0.095-0.779 0.226-1.063 0.378-1.273 0.681-2.012 1.424-2.405 2.153-3.324 1.552-5.538 4.756-7.028 9.284 0.174-3.081 1.364-6.71 4.053-9.474" fill="#c3d1e8"/>
   </g>
   <g transform="translate(303.84 167.23)">
    <path d="m0 0c1.089-0.583 3.216-0.886 6.432 0.198 0.1 0.033 0.217 0.078 0.345 0.131-2.151-0.442-4.882-0.488-6.717 0.515-1.429 0.779-2.44 2.004-2.736 3.574-0.333-1.266-9e-3 -2.982 2.676-4.418" fill="#c3d1e8"/>
   </g>
   <g transform="translate(307.72 182.15)">
    <path d="m0 0v2e-3c-0.502 0.575-1.001 1.215-1.463 1.873 0.181-0.836 0.611-1.935 1.513-3.215 0.808-1.146 1.717-2.442 2.24-3.677-0.045 0.754-0.208 1.494-0.51 2.148-0.464 1.006-1.174 1.985-1.78 2.869" fill="#c3d1e8"/>
   </g>
   <g transform="translate(315.99 179.79)">
    <path d="m0 0c-0.698-0.224-1.475-0.364-2.071-0.363-0.331-0.15-0.725-0.265-1.136-0.247-1.36 0.055-2.282 0.042-3.046-0.505l-3e-3 -2e-3c0.042-0.131 0.08-0.264 0.112-0.399 0.606 0.193 1.379 0.365 2.087 0.385 1.627 0.046 3.306-0.036 3.962 0.875 0.065 0.09 0.094 0.176 0.095 0.256" fill="#c3d1e8"/>
   </g>
   <g transform="translate(294.55 183.78)">
    <path d="m0 0c0.122-0.375 0.238-0.686 0.349-0.942 0.333 1.315 1.089 1.749 1.282 1.872 0.343-0.227 0.573-1.227 0.665-1.828 0.534-3.487 2.401-7.102 4.303-8.822 1.573-1.422 3.429-2.57 5.069-2.619v-1e-3c4.197-1.309 8.922-0.294 11.489 2.207-2.174-0.851-4.77-2.362-10.593-0.256-9.069 3.283-11.986 14.165-10.777 16.206-2.022-1.291-2.381-3.604-1.787-5.817" fill="#c3d1e8"/>
   </g>
   <g transform="translate(295.12 183.5)">
    <path d="M 0,0 C 0.579,0.245 1.245,-0.076 1.816,-1.265 1.753,-0.006 1.583,0.925 1.182,1.588 0.614,2.047 0,0 0,0" fill="#c3d1e8"/>
   </g>
   <g transform="translate(299.17 168.5)">
    <path d="m0 0c-3.564-4.834-15.036-6.636-17-6.383-0.712 0.092-0.663 0.307-0.263 0.653 0.774 0.668 5.424 3.645 7.254 5.522 1.364 1.397 2.12 2.976 2.532 4.047 0.701 1.82-2.995 8.656-10.198 14.824-6.119 5.238-14.399 9.64-14.47 13.456l0.335-0.618c0.892-3.392 7.999-7.175 14.342-12.605 7.394-6.332 11.064-13.238 10.32-15.169-0.421-1.092-1.232-2.694-2.625-4.122-1.685-1.726-2.871-2.439-7.226-5.482-0.265-0.185-0.239-0.216 0.081-0.236 2.293-0.143 13.43 1.884 16.691 6.306z" fill="#4e78b6"/>
   </g>
   <g transform="translate(345.3 170.54)">
    <path d="m0 0c0.139 0.105-0.199-0.883-0.199-0.883-1.409-2.768-9.468-0.771-14.885-0.835-4.524-0.053-19.301-1.519-21.065-3.363-1.257-1.313-2.088-2.756-2.579-4.471-0.861-3.006-0.119-7.208-0.157-7.892-0.028-0.504-0.263-0.554-0.674-0.078-1.189 1.376-4.589 8.634-3.33 13.992l0.296-0.045c-1.053-4.476 1.681-11.625 3.25-13.76 0.109-0.149 0.233-0.315 0.192 0.067-0.252 2.359-0.647 5.128 0.102 7.826 0.488 1.757 1.396 3.244 2.681 4.588 1.84 1.922 16.635 3.429 21.327 3.485 4.452 0.053 12.398-1.737 14.336 0.228 0.227 0.231 0.487 0.665 0.705 1.141" fill="#4e78b6"/>
   </g>
   <g transform="translate(294.8 182.7)">
    <path d="m0 0c-1.381 2.949-0.699 5.638 1.866 7.333l0.053-0.308c-2.209-1.495-2.888-4.103-1.759-6.708z" fill="#7cb2cf"/>
   </g>
   <g transform="translate(304.45 166.97)">
    <path d="m0 0c-3.283 0.113-4.298 0.65-5.908 2.306-5.139 5.283-4.715 13.797-2.297 15.331l-0.27 0.2c-2.502-1.702-3.113-10.305 2.359-15.747 1.711-1.703 2.793-2.402 6.898-2.356z" fill="#0d141b"/>
   </g>
   <g transform="translate(316.9 172.81)">
    <path d="m0 0c-1.156-2.962-5.264-5.184-6.552-5.617-2.736-0.922-5.145-0.908-6.59-0.136-4.416 2.361-2.762 5.485-1.833 6.33l0.26-0.212c-0.976-0.887-2.247-3.722 1.716-5.843 0.666-0.355 2.614-1.046 6.335 0.207 1.234 0.416 5.106 2.47 6.286 5.146z" fill="#0d141b"/>
   </g>
   <g transform="translate(338.39 180.97)">
    <path d="m0 0c-3.96 2.272-8.938 3.046-16.143 2.512-1.457-0.109-2.664 0.423-3.06 0.977l0.124-0.476c0.596-0.477 1.677-0.841 2.954-0.746 7.152 0.531 12.088-0.234 16.003-2.48 5.219-2.993 7.884-7.048 7.223-9.786 0.013 3.124-5.076 7.55-7.66 8.767-3.561 1.676-8.54 2.123-15.219 1.364-0.905-0.103-1.921 0.135-2.582 0.389l0.033-0.274c0.689-0.247 1.683-0.46 2.577-0.358 6.633 0.753 11.567 0.313 15.087-1.344 2.952-1.39 8.466-6.485 7.337-9.393-0.245-0.632-0.112-0.814 0.295-0.156 1.866 3.023-1.471 7.851-6.969 11.004" fill="#0d141b"/>
   </g>
   <g transform="translate(309.78 178.53)">
    <path d="m0 0c0.839 0.528 1.848 0.549 2.698 0.574 0.441 0.014 0.436 0.129 0.011 0.197-1.167 0.184-2.007 0.041-2.804-0.472z" fill="#7cb2cf"/>
   </g>
   <g transform="translate(307.82 182.22)">
    <path d="m0 0c0.665-0.963 1.445-2.005 1.855-2.894 1.025-2.223 0.511-5.575-1.075-7.138-1.092-1.075-2.541-1.103-3.821-0.669-1.537 0.52-2.992 1.659-3.784 2.374-2.004 1.812-3.816 5.637-4.328 8.977-0.152 0.996-0.336 1.47-0.526 1.66-0.46 0.459-0.24 0.552 0.219 0.141 0.365-0.327 0.47-0.857 0.61-1.771 0.504-3.291 2.298-6.971 4.265-8.749 1.399-1.265 4.898-3.969 7.149-1.75 1.495 1.471 1.972 4.726 1.002 6.829-0.316 0.688-1.469 2.511-1.769 2.851z" fill="#7cb2cf"/>
   </g>
   <g transform="translate(306.62 171.45)">
    <path d="m0 0c4.689-1.304 10.031 0.262 12.05 3.584 1.349 2.218 1.713 4.87 1.025 7.466-0.804 3.04-2.933 5.649-5.993 7.346-4.087 2.269-8.505 3.451-11.581 3.106l-0.191 0.267c3.129 0.406 7.712-0.804 11.909-3.132 3.118-1.731 5.364-4.427 6.187-7.532 0.705-2.662 0.336-5.423-1.048-7.7-2.14-3.519-7.92-5.184-12.797-3.532z" fill="#7cb2cf"/>
   </g>
   <g transform="translate(304.23 189.32)">
    <path d="m0 0c-0.642-1.23 2.088-5.733 4.519-8.07 0.116-0.113 0.501-0.53 0.721-0.787 0.55-0.643 1.668-0.982 2.496-0.914 0.58 0.047 1.09 0.049 1.76 7e-3 1.082-0.068 3.171 0.501 3.748 1.154 0.983 1.114 0.54 5.3-2.736 7.612-4.048 2.856-9.225 3.458-10.508 0.998m5.054-9.017c-0.211 0.246-0.595 0.663-0.706 0.769-2.347 2.258-5.385 6.914-4.624 8.374 1.618 3.103 7.542 1.465 10.926-0.923 3.442-2.43 3.911-6.781 2.834-8.002-0.64-0.724-2.822-1.284-4.004-1.21-0.657 0.042-1.157 0.039-1.723-7e-3 -0.947-0.078-2.095 0.288-2.703 0.999" fill="#0d141b"/>
   </g>
   <g transform="translate(300.22 191.48)">
    <path d="m0 0c-1.807-0.612-3.163-1.987-3.315-1.873-0.291 0.22 0.172 1.419 0.887 2.215 0.225-0.082 0.435-0.123 0.629-0.116 0.554 0.02 0.508 0.177 0 0.234-1.02 0.114-2.657 1.451-4.702 3.962-1.802 2.212-6.534 5.891-9.956 7.266-4.21 1.689-7.455 2.114-11.507 1.559-3.463-0.474-5.206-2.154-5.285-3.814-0.157 0.915 0.038 1.982 1.227 2.882 3.784 2.867 11.186 2.874 18.001 0.018 3.209-1.346 8.593-5.578 11.739-8.729 0.746-0.746 1.984-1.625 3.22-1.852 0.858-0.158 1.384-0.811 1.324-1.004-0.055-0.178-1.133-0.365-2.262-0.748m0.983 1.993c-1.182 0.219-2.372 1.066-3.091 1.785-3.163 3.167-8.555 7.491-11.793 8.847-6.891 2.888-14.442 2.832-18.291-0.084-1.362-1.031-1.702-2.502-1.033-4.076 0.346-0.812 0.426-0.101 0.361 0.058-0.66 1.794 1.012 3.918 4.942 4.456 4.005 0.548 7.19 0.11 11.357-1.562 3.389-1.361 8.09-4.961 9.873-7.149 1.636-2.009 2.984-3.333 4.025-3.826-0.708-0.823-1.282-2.09-0.811-2.512 0.432-0.385 1.078 0.873 3.563 1.84 1.073 0.417 2.251 0.43 2.41 0.899 0.169 0.499-0.649 1.165-1.512 1.324" fill="#0d141b"/>
   </g>
   <g transform="translate(311.86 183.08)">
    <path d="m0 0c0.017-0.192 0.047-0.514 0.074-0.704 0.174 0.06 0.48 0.203 0.614 0.28 0.013 0.147 0.015 0.506 2e-3 0.717-0.211-0.078-0.527-0.215-0.69-0.293m-0.158-0.81c-0.037 0.217-0.076 0.665-0.09 0.824-8e-3 0.098 0.023 0.149 0.127 0.2 0.186 0.09 0.577 0.259 0.8 0.335 0.188 0.065 0.224 0.049 0.245-0.12 0.026-0.204 0.026-0.686 7e-3 -0.888-9e-3 -0.088-0.01-0.112-0.107-0.169-0.151-0.088-0.507-0.258-0.721-0.323-0.215-0.066-0.228-0.056-0.261 0.141" fill="#0d141b"/>
   </g>
  </g>
  <g transform="matrix(2.1716 0 0 -2.1716 -576.41 458.39)">
   <path d="m301.79 204.73c-2.067-5.277 2.008-9.726 4.229-11.706 3.227-2.914 4.468-7.85 4.041-10.028l1.362 1.056c2.941 4.659 2.629 8.216-0.402 10.51 0.272 2.389-0.884 5.025-4.143 7.3-3.606 2.518-4.019 5.598-4.843 7.764-0.714-0.985-0.447-4.295-0.244-4.896" fill="url(#radialGradient21224)"/>
  </g>
  <g transform="matrix(2.1716 0 0 -2.1716 -576.41 458.39)" clip-path="url(#clipPath21234)">
   <g transform="translate(311.02 194.57)">
    <path d="m0 0c0.066 0.583 0.047 1.181-0.067 1.784l-5.613-2.69c0.238-0.232 0.467-0.444 0.679-0.632 3.226-2.914 4.468-7.851 4.041-10.028l1.362 1.056c2.941 4.658 2.629 8.216-0.402 10.51" fill="#fff"/>
   </g>
  </g>
  <g transform="matrix(2.1716 0 0 -2.1716 -576.41 458.39)">
   <path d="m326.74 190.74c-1.753 0.082-3.821-0.764-4.951-2.337-3.642 0.383-6.913-3.272-8.23-5.582l0.432-0.943c2.122 2.291 5.435 2.724 7.029 2.543 6.346-0.715 8.613 1.871 9.554 5.21 1.222 1.3 1.719 3.667 1.164 4.388-0.773-2.672-2.768-3.502-4.998-3.279" fill="url(#radialGradient21258)"/>
  </g>
  <g transform="matrix(2.1716 0 0 -2.1716 122.36 49.259)">
   <path d="m0 0c-3.642 0.383-6.913-3.272-8.229-5.582l0.431-0.943c2.122 2.291 5.435 2.723 7.029 2.544 0.45-0.051 0.876-0.083 1.286-0.102l-0.412 4.219c-0.035-0.046-0.071-0.089-0.105-0.136" fill="#fff"/>
  </g>
  <g transform="matrix(2.1716 0 0 -2.1716 95.199 64.453)">
   <path d="m0 0c0.889 0.138 1.277 2.636-0.231 4.404-1.588 1.862-3.497 3.907-4.073 7.21-0.504-1.29 0.194-3.87 0.71-4.596-1.114 0.392-4.888 1.542-6.481 0.497 2.469-0.02 4.558-0.928 6.487-3.166 0.847-1.222 3.588-4.349 3.588-4.349" fill="#eaf2da"/>
  </g>
  <g transform="matrix(2.1716 0 0 -2.1716 101.59 67.431)">
   <path d="M 0,0 C -0.042,0.662 1.073,2.05 3.312,2.168 5.55,2.286 7.607,2.097 9.878,3.703 9.902,3.098 7.771,1.571 6.341,1.472 7.781,1.148 10.242,-0.358 10.623,-1.783 8.789,-0.336 7.355,0.417 4.955,0.079 3.526,-0.043 0,0 0,0" fill="#eaf2da"/>
  </g>
  <g transform="matrix(2.1716 0 0 -2.1716 104.66 66.525)">
   <path d="m0 0c-0.463-0.093-1.792-0.415-2.91 0.091s-1.288 1.13-1.301 1.925l-1.729-0.284c0.324-0.374 0.65-0.72 0.969-1.027 0.113-0.109 0.499-0.527 0.714-0.777 0.631-0.739 1.81-1.022 2.599-0.957 0.621 0.05 1.13 0.046 1.742 8e-3 0.3-0.02 0.664 6e-3 1.047 0.067z" fill="#c3d1e8"/>
  </g>
  <g transform="matrix(2.1716 0 0 -2.1716 87.734 51.233)">
   <path d="m0 0c-0.157-0.404-0.362-2.272 0.27-3.427 0.711-1.301 2.104-2.698 3.168-2.661 0.582 0.769 0.187 1.931-0.648 3.421-0.708 1.263-1.896 2.517-2.79 2.667" fill="#2f65a9"/>
  </g>
  <g transform="matrix(2.1716 0 0 -2.1716 101.59 67.431)">
   <path d="m0 0c0.465 0.662 1.447 1.047 2.371 1.172 1.014 0.137 2.521 0.13 3.179 0.237 0.032-0.61-0.634-1.894-2.144-2.189-1.51-0.294-3.431 0.256-3.406 0.78" fill="#2f65a9"/>
  </g>
  <g transform="matrix(2.1716 0 0 -2.1716 91.652 57.525)">
   <path d="m0 0c0.6-0.889 1.375-0.842 1.5-0.779-0.142 0.317-0.315 0.654-0.515 1.009-0.37 0.661-0.871 1.317-1.393 1.816-0.128-0.52-0.193-1.157 0.408-2.046" fill="#a1acd3"/>
  </g>
  <g transform="matrix(2.1716 0 0 -2.1716 90.855 61.516)">
   <path d="m0 0c0.132 0.019 0.466 0.393-0.135 1.462-0.44 0.781-0.724 0.956-1.047 0.938-0.13-6e-3 -0.301-0.2-0.232-0.478 0.062-0.218 0.143-0.425 0.246-0.613 0.199-0.364 0.452-0.734 0.735-1.079 0.089-0.098 0.297-0.249 0.433-0.23" fill="#d3e5b1"/>
  </g>
  <g transform="matrix(2.1716 0 0 -2.1716 108.75 66.644)">
   <path d="m0 0c0.829 0.114 1.26 0.57 1.217 0.961-0.69-0.036-1.512-0.066-2.144-0.151-0.208-0.029-0.42-0.071-0.627-0.125-0.104-0.309 0.768-0.794 1.554-0.685" fill="#a1acd3"/>
  </g>
  <g transform="matrix(2.1716 0 0 -2.1716 108.37 67.38)">
   <path d="m0 0c-0.703-0.188-1.15-0.568-1.033-0.871 0.437-0.031 0.894-0.015 1.318 0.067 0.258 0.051 0.49 0.132 0.699 0.232 0.265 0.483-0.304 0.755-0.984 0.572" fill="#d3e5b1"/>
  </g>
  <g transform="matrix(2.1716 0 0 -2.1716 81.519 24.674)">
   <path d="m0 0c-0.038 0.379-0.245 1.302-0.249 1.627-0.181 0.194-1.121 1.726-1.329 2.072-0.119-0.555-0.175-1.101-0.175-1.633 0.031-0.459 1.231-1.889 1.753-2.066" fill="#fff"/>
  </g>
  <g transform="matrix(2.1716 0 0 -2.1716 82.89 20.63)">
   <path d="m0 0c-0.206 1.022-0.326 3.667-0.129 4.156l1e-3 1e-3c-0.703 1.403-1.02 2.765-1.446 3.884-0.306-0.422-0.431-1.272-0.459-2.153 0.094-1.33 0.986-4.442 2.033-5.888" fill="#fff"/>
  </g>
  <g transform="matrix(2.1716 0 0 -2.1716 84.617 24.443)">
   <path d="m0 0c0.459 0.455 1.258 2.522 1.418 2.861l1e-3 1e-3c-0.452 0.401-0.839 0.811-1.173 1.224l-1e-3 -1e-3c-0.168-1.328-0.417-3.245-0.245-4.085" fill="#fff"/>
  </g>
  <g transform="matrix(2.1716 0 0 -2.1716 133.95 49.076)">
   <path d="m0 0c0.437 0.614 1.575 2.063 1.901 2.464l1e-3 1e-3c-0.533-0.178-1.11-0.255-1.712-0.245v-1e-3c-0.106-0.583-0.274-1.644-0.19-2.219" fill="#fff"/>
  </g>
  <g transform="matrix(2.1716 0 0 -2.1716 136.75 48.396)">
   <path d="M 0,0 C 0.822,0.141 2.273,1.006 2.61,1.4 3.497,2.732 3.806,4.593 3.324,5.219 3.15,4.617 2.914,4.109 2.627,3.686 V 3.685 C 2.139,2.375 0.85,0.783 0,0" fill="#fff"/>
  </g>
  <g transform="matrix(2.1716 0 0 -2.1716 141.05 47.867)">
   <path d="m0 0c-0.257-0.2-1.248-0.68-1.551-0.706-0.241-0.299-0.616-0.765-0.865-1.015 0.285-0.096 1.588 0.207 1.828 0.371 0.233 0.426 0.426 0.878 0.588 1.35" fill="#fff"/>
  </g>
  <g transform="matrix(2.1716 0 0 -2.1716 104.01 68.968)">
   <path d="m0 0c-0.484 0.02-0.895 0.011-1.348-0.026-0.947-0.078-2.095 0.288-2.703 0.999-0.211 0.246-0.595 0.662-0.706 0.768-0.375 0.362-0.768 0.784-1.161 1.245l0.826-0.554c0.169-0.18 0.338-0.352 0.506-0.513 0.116-0.112 0.501-0.529 0.721-0.787 0.55-0.643 1.668-0.982 2.496-0.914 0.271 0.022 0.527 0.035 0.791 0.037z" fill="#0d141b"/>
  </g>
  <g transform="matrix(2.1716 0 0 -2.1716 96.798 59.603)">
   <path d="m0 0c0.131 2.42-1.236 6.688-4.104 9.278-2.642 2.357-6.323 6.535-4.282 11.818-0.195 0.67-0.38 3.388 0.132 4.636 0.307 0.75 0.346 0.442 0.518-0.049 0.706-2.017 1.292-4.958 4.688-7.329 3.064-2.139 4.51-4.598 4.228-7.352 4.557-3.51 1.689-8.622 0.485-10.339-0.269-0.383-0.357-0.307-0.152 0.096 1.182 2.323 3.641 6.873-0.58 10.068-0.035 0.026-0.053 0.069-0.048 0.111 0.295 2.586-1.158 5.138-4.091 7.186-3.459 2.415-3.946 5.193-4.796 7.574-0.519-1.139-0.311-3.942-0.128-4.484 0.033-0.101 0.041-0.118-1e-3 -0.227-1.978-5.047 1.802-9.354 4.218-11.508 3.196-2.886 4.695-8.076 3.982-10.53z" fill="#4e78b6"/>
  </g>
  <g transform="matrix(2.1716 0 0 -2.1716 106 63.225)">
   <path d="m0 0c2.029 2.034 5.12 2.484 6.75 2.301 5.603-0.632 8.526 1.09 9.719 5.283 1.101 1.19 1.565 3.198 1.283 4.184-0.254 0.893-0.401 0.234-0.487-0.013-0.922-2.657-3.086-2.927-4.775-2.759-1.909 0.091-3.935-0.894-5.036-2.38-3.946 0.361-7.073-3.506-8.08-5.503-0.183-0.363-0.065-0.407 0.149-0.079 1.353 2.067 4.419 5.653 8.002 5.276 0.044-5e-3 0.087 0.014 0.113 0.05 1.028 1.432 3.02 2.371 4.839 2.286 2.499-0.249 4.277 0.843 5.037 3.081 0.289-0.869-0.213-2.815-1.244-3.945-0.054-0.058-0.061-0.075-0.085-0.161-0.738-2.562-2.535-5.823-9.403-5.049-1.725 0.195-5.318-0.422-7.241-2.697z" fill="#4e78b6"/>
  </g>
  <g transform="matrix(2.1716 0 0 -2.1716 87.916 51.545)">
   <path d="m0 0c-0.132-0.51-0.288-2.163 0.293-3.225 0.953-1.741 2.332-2.584 2.998-2.597 0.432 0.632 0.222 1.607-0.692 3.238-0.712 1.271-1.821 2.382-2.599 2.584m0.078-3.343c-0.594 1.085-0.474 2.723-0.328 3.353 0.067 0.288 0.12 0.297 0.421 0.194 0.973-0.329 2.051-1.613 2.642-2.668 0.735-1.312 1.322-2.652 0.639-3.555-0.022-0.029-0.056-0.046-0.094-0.047-1.028-0.037-2.465 1.235-3.28 2.723" fill="#0d141b"/>
  </g>
  <g transform="matrix(2.1716 0 0 -2.1716 91.024 53.144)">
   <path d="m0 0c-0.128-0.521-0.17-1.119 0.391-1.949 0.556-0.823 1.263-0.774 1.344-0.738l0.11-0.219c-0.368-0.186-1.165 0.09-1.658 0.819-0.614 0.91-0.567 1.569-0.425 2.146z" fill="#0d141b"/>
  </g>
  <g transform="matrix(2.1716 0 0 -2.1716 90.515 61.732)">
   <path d="m0 0c0.058-0.021 0.117-0.029 0.173-0.021 0.327 0.044 0.54 0.603-0.045 1.642-0.423 0.753-0.737 1.025-1.16 1.001-0.233-0.013-0.421-0.322-0.344-0.632l0.238 0.06c-0.039 0.155 0.03 0.322 0.119 0.328 0.264 0.014 0.512-0.128 0.934-0.877 0.462-0.821 0.316-1.24 0.225-1.279-0.073-0.011-0.26 0.11-0.337 0.202z" fill="#0d141b"/>
  </g>
  <g transform="matrix(2.1716 0 0 -2.1716 87.61 54.836)">
   <path d="m0 0c-1.75 2.031-3.695 3.054-6.085 3.192 1.637 0.591 4.625-0.283 5.64-0.616 0.518-0.17 0.562-0.174 0.308 0.314-0.419 0.805-0.851 2.56-0.685 3.737 0.763-3.375 3.068-5.648 3.992-6.731 1.418-1.663 1.098-4.081 0.307-4.204l0.037-0.242c0.945 0.147 1.449 2.722-0.157 4.606-1.155 1.353-3.274 3.451-3.975 6.788-0.091 0.435-0.184 1.1-0.41 0.028-0.258-1.225 0.194-3.143 0.656-4.061-1.153 0.38-4.239 1.272-5.925 0.562-0.908-0.383-0.31-0.401 0.089-0.42 2.37-0.11 4.292-1.105 6.022-3.113z" fill="#0d141b"/>
  </g>
  <g transform="matrix(2.1716 0 0 -2.1716 101.32 67.418)">
   <path d="m0 0c0.285 0.556 1.373 1.138 2.477 1.287 0.497 0.067 2.565 0.172 3.089 0.227 0.21 0.022 0.241 3e-3 0.229-0.212-0.042-0.695-0.766-1.92-2.243-2.208-1.431-0.28-3.525 0.198-3.552 0.906m0.249-0.041c0.057-0.227 1.539-0.959 3.256-0.624 1.316 0.257 1.977 1.305 2.041 1.927-0.323-0.039-2.515-0.148-3.036-0.218-1.016-0.137-1.857-0.542-2.261-1.085" fill="#0d141b"/>
  </g>
  <g transform="matrix(2.1716 0 0 -2.1716 112.61 66.956)">
   <path d="m0 0c2.17 0.272 3.583-0.355 5.264-1.626-0.607 1.116-2.384 2.243-3.649 2.655-0.647 0.21-0.632 0.265 4e-3 0.398 1.12 0.235 2.439 1.145 2.896 1.716-2.154-1.365-3.827-1.188-6.271-1.317-2.263-0.119-3.228-1.531-3.196-2.037l-0.245-0.016c-0.043 0.675 0.995 2.17 3.428 2.298 2.05 0.109 4.173-1e-3 6.216 1.32 0.077 0.049 0.905 0.75 0.396-0.193-0.361-0.668-1.812-1.665-3.03-1.976 1.345-0.47 3.118-1.633 3.707-2.81 0.547-1.093-0.253-0.349-0.345-0.279-1.736 1.318-3.203 1.941-5.44 1.579z" fill="#0d141b"/>
  </g>
  <g transform="matrix(2.1716 0 0 -2.1716 111.66 64.53)">
   <path d="m0 0c0.048-0.436-0.399-0.968-1.322-1.096-0.716-0.098-1.729 0.316-1.702 0.771l0.248-3e-3c-0.05-0.146 0.679-0.627 1.42-0.525 0.742 0.103 1.148 0.501 1.112 0.827z" fill="#0d141b"/>
  </g>
  <g transform="matrix(2.1716 0 0 -2.1716 110.87 68.436)">
   <path d="m0 0c0.13 0.452-0.414 0.812-1.185 0.605-0.933-0.251-1.243-0.705-1.115-1.034l0.228 0.089c-0.056 0.147 0.253 0.521 0.951 0.708 0.654 0.176 1.103-0.108 0.806-0.477z" fill="#0d141b"/>
  </g>
 </g>
</svg>
