<?xml version="1.0" encoding="UTF-8"?>
<!-- Created with Inkscape (http://www.inkscape.org/) -->
<svg version="1.1" viewBox="0 0 124.78 129.93" xmlns="http://www.w3.org/2000/svg">
 <defs>
  <clipPath id="clipPath45775">
   <path d="m432.14 344.4h32.645v-35.225h-32.645z"/>
  </clipPath>
  <clipPath id="clipPath45955">
   <path d="m441.32 335.26h23.467v-26.088h-23.467z"/>
  </clipPath>
 </defs>
 <g transform="translate(-1.2369 -.97541)">
  <g transform="matrix(.28627 0 0 -.28627 95.712 28.744)">
   <path d="m0 0h-4.03l9.25-28.475c1.492-0.025 4.659 1.308 4.909 2.892 0.25 1.583-0.269 14.215-0.353 16.132z" fill="#595857"/>
  </g>
  <g transform="matrix(.28627 0 0 -.28627 30.311 42.796)">
   <path d="m0 0c10.175 7.839 38.333 7.667 53.667 6 7.333-2.833 35-19.667 38-25.833 3.666-7.667 3.499-14.167 3.166-21.167-1.25-17.25-6.86-73.043-5.5-88 1.75-19.25 10.125-37.125 7.322-57.375-1.328-9.592-15.822-56.375-24.488-86.042-4.971-17.017-9.739-21.161-27.384-22.687-17.256-1.493-52.2-4.187-71.033-0.229-15.705 3.301-22.111 6.716-34.911 16.747-16.366 12.825-29.501 28.26-31.756 34.086-4.374 11.301-7.945 23.879-6.437 33.125 4.354 26.708 25.187 68.708 37.754 102.63 3.998 10.795 16.739 15.996 21.463 21.354 9.304 10.555 29.97 79.555 40.137 87.388" fill="#b4b4b0"/>
  </g>
  <g transform="matrix(.28627 0 0 -.28627 96.965 43.404)">
   <path d="m0 0c10.463 0.47 24.728-10.477 26.251-17.542 4.249-16.666 18.082-76.334 20.582-81.167s15.92-20.721 18.667-24.666c5.245-7.531 28.044-89.839 33.417-129.58 2.45-18.123-1.201-27.397-8.917-30.416-28.75-11.25-143.5-25.75-155.33-19.667-11.998 6.168-26.204 27.812-26.834 31-2.5 12.667-7.252 101.04-3.458 113.29 3.292 10.625 14.184 31.826 16 41 4.958 25.042-5.042 92.542 4.625 100.21 7.5 5.5 29.5 14.167 33.833 14.167 4.334 0 41.167 3.375 41.167 3.375" fill="#b4b4b0"/>
  </g>
  <g transform="matrix(.28627 0 0 -.28627 125.28 115.82)">
   <path d="m0 0c-5.373 39.745-28.172 122.05-33.417 129.58-2.747 3.945-16.166 19.833-18.666 24.666s-16.334 64.5-20.582 81.167c-1.524 7.065-15.789 18.012-26.252 17.542 0 0-36.833-3.375-41.166-3.375-1.718 0-6.215-1.364-11.481-3.351 11.174 2.478 14.867 2.163 14.875-0.852 4e-3 -1.39-0.773-3.353-1.964-5.883-3.368-7.153 5.711-55.034 9.128-98.033 0.356-4.487-4-11.5-6.75-18-1.853-4.381-3.503-13.369-4.25-20.5-0.44-7.846 1.646-39.608 3.083-61.438 0.372-5.65 0.917-11.168 0.898-16.4-0.041-11.15 0.129-17.95 0.774-24.809 0.331-9.564-2.273-12.304-11.73-13.295-5-0.523-32.667-3.772-35.833-3.606-1.784 0.094-5.443 0.505-8.367 1.738 0.216-1.819 0.423-3.257 0.617-4.238 0.568-2.883 12.236-20.851 23.336-28.828 1.177-0.846 2.347-1.581 3.497-2.172 11.833-6.083 126.58 8.417 155.33 19.667 7.716 3.019 11.367 12.293 8.917 30.416" fill="#888784"/>
  </g>
  <g transform="matrix(.28627 0 0 -.28627 125.28 115.82)">
   <path d="m0 0c-5.373 39.745-28.172 122.05-33.417 129.58-2.747 3.945-16.166 19.833-18.666 24.666s-16.334 64.5-20.582 81.167c-1.524 7.065-15.789 18.012-26.252 17.542 0 0-36.833-3.375-41.166-3.375-1.718 0-6.215-1.364-11.481-3.351 11.174 2.478 14.867 2.163 14.875-0.852 12.166 0.894 35.838 3.001 35.838 3.001 10.463 0.47 22.16-7.504 23.684-14.568 4.249-16.667 19.335-79.328 21.835-84.162 2.5-4.832 15.919-20.72 18.666-24.666 5.245-7.531 25.71-86.156 31.083-125.9 2.195-16.238-3.849-24.962-6.5-26-1.5-0.333-35.5-6.5-37.167-6.5-1.668 0-4.5 1-5.167 1-0.666 0-12.365-0.286-15.364-2.953-9.227-0.978-38.636-5.214-45.136-1.88 1-3-3.833-4.334-4.833-4.667-0.819-0.273-32.727-6.542-47.997-5.995 1.177-0.846 2.347-1.581 3.497-2.172 11.833-6.083 126.58 8.417 155.33 19.667 7.716 3.019 11.367 12.293 8.917 30.416" fill="#595754"/>
  </g>
  <g transform="matrix(.28627 0 0 -.28627 55.885 80.011)">
   <path d="m0 0c-1.36 14.957 4.25 70.75 5.5 88 0.307 6.444 0.464 12.466-2.371 19.362-2.044-1.975-41.148-3.507-48.984-4.665 2.465 0.282 8.012-0.928-0.783-4.239-11.644-4.384-23.623-67.703-23.623-67.703-0.75-4.625-3.169-10.123-3.25-12.125-0.234-5.775-0.468-9.211-2.375-12.407l0.342 0.153c0.967 0.623 1.905 1.219 2.8 1.781 8.161 4.426 10.494 2.093 1.922-4.008-9.42-6.117-22.701-15.195-25.578-21.128-0.519-1.069-2.373-4.074-3.75-8.25-3.812-11.563-3.557-16.96-4.812-20.938-5.811-18.409-12.552-40.06-19.059-61.952-5.659-19.038-10.016-18.444-21.604-10.131-4.788 3.435-33.128 24.523-43.064 35.86-1.501-9.244 2.067-21.815 6.439-33.11 2.255-5.826 15.39-21.261 31.756-34.086 7.133-5.59 12.282-9.123 18.159-11.728 4.67-2.071 9.799-3.558 16.752-5.019 18.832-3.958 53.777-1.264 71.033 0.229 17.645 1.526 22.413 5.67 27.383 22.687 8.667 29.667 23.161 76.45 24.489 86.042 2.803 20.25-5.572 38.125-7.322 57.375" fill="#888784"/>
  </g>
  <g transform="matrix(.28627 0 0 -.28627 55.885 80.011)">
   <path d="m0 0c-1.36 14.957 4.25 70.75 5.5 88 0.307 6.444 0.464 12.466-2.371 19.362-2.044-1.975-8.018-2.713-11.129-3.289 4.5-1.198 8-4.073 8.967-9.803 0.818-4.85-8.193-77.688-6.833-92.645 1.75-19.25 11.192-37.117 8.389-57.367-1.328-9.592-15.822-56.375-24.488-86.042-4.693-16.066-11.527-18.445-27.66-19.841-17.256-1.492-46.705-2.892-65.625 0.625-8.465 1.573-16.64 7.044-16.798 6.375-0.122-0.515 1.76-4.024-0.287-6.689 4.67-2.071 9.799-3.558 16.752-5.019 18.832-3.958 53.777-1.264 71.033 0.229 17.645 1.526 22.413 5.67 27.383 22.687 8.667 29.667 23.161 76.45 24.489 86.042 2.803 20.25-5.572 38.125-7.322 57.375" fill="#595754"/>
  </g>
  <g transform="matrix(.28627 0 0 -.28627 45.472 108.05)">
   <path d="m0 0c0-2.875-25.385-14.614-23.224-18.815 2.022-3.931 16.307-24.07 16.224-28.125-0.083-4.056-11.978-8.875-14.958-8.125-3.52 0.75-8.418 11.814-9.167 13.26-5.771-3.498-16.898-11.7-19.625-11.635-2.674 0.063-10.402 11.41-9.508 14.875 1.052 4.074 18.286 11.367 19.258 14.875 0.359 1.294-8.5 14.978-8 20.644 0.453 5.13 17.438 13.559 17.375 15.809-0.024 0.87-10.864 15.653-11.093 18.777-0.155 2.104 10.256 10.431 13.994 9.987 2.313-0.274 28.724-39.608 28.724-41.527" fill="#595754"/>
  </g>
  <g transform="matrix(.28627 0 0 -.28627 110.61 111.34)">
   <path d="m0 0c-0.354 2.479 9.362 14.548 7.873 21.261-1.233 5.553-43.725 34.94-47.441 37.014-1.367 0.764-4.736 0.903-5.459 0.25-3.131-2.829-7.227-11.246-7.187-13.395 0.062-3.438 21.739-12.464 21.537-15.019-0.281-3.562-11.202-17.378-10.969-20.687 0.313-4.438 18.274-11.855 18.462-12.855 0.187-1.437-13.037-20.39-12.743-22.625 0.625-4.75 17.223-9.007 19-8.323 1.895 0.729 7.422 11.196 11.042 16.823 1.439-1.874 14.77-10.626 16.77-10.813 2-0.188 9.424 6.706 9.396 10.874-0.03 4.645-19.978 15.374-20.281 17.495" fill="#595754"/>
  </g>
  <g transform="matrix(.28627 0 0 -.28627 56.47 102.42)">
   <path d="m0 0c-0.666 0.166-4.55-1.104-5.71-1.708-0.958-0.5-5.322-7.199-6.144-8.09-0.5-0.542-6.007-1.612-7.647-1.452-2.126 0.208-9.625 4.959-13.375 5.001-1.25 0.014-7.875-1.5-9.334-1.376-2.041 0.174-21.933 4.802-25.458 5.084-5.294 0.423-10.7 0.125-11.375 0.5-1.125 0.625-5.621 8.419-7.156 9.24-1.344 0.719-8.594 0.031-9.188 0.469-0.183 0.135 0.254 6.068 4e-3 7.693-0.116 0.752-5.502 7.409-6.504 7.619-1.781 0.375-7.781-3.238-13.325-3.212-1.544-0.151-8.456 0.4-9.831 0.9s-14 12.25-14.875 13.5-2.875 4.25-4.125 4.375-9-2-10.75-1.75-7.625 4.25-8 5.625-2.5 19.125-3.308 23.451c-10.632-25.474-21.606-51.401-24.629-69.951-1.508-9.246 2.063-21.824 6.437-33.125 2.255-5.826 15.39-21.261 31.756-34.086 12.8-10.031 19.206-13.446 34.911-16.747 18.832-3.958 53.777-1.264 71.033 0.228 17.645 1.527 22.413 5.671 27.383 22.688 5.683 19.453 13.871 46.264 19.21 65.124" fill="#8a694e"/>
  </g>
  <g transform="matrix(.28627 0 0 -.28627 125.28 115.82)">
   <path d="m0 0c-2.659 19.674-9.589 49.774-16.546 76.074-1.047 1.657-6.705 7.177-8.871 7.927-2.167 0.75-12.416-9.334-12.5-10.417-0.083-1.083 1.657-9.176 1.323-11.843-0.161-1.295-6.515-6.469-7.183-6.307-1.08 0.259-11.556 6.483-12.973 7.233s-32.25-5.5-32.5-5.5-4.833-1-5.833-1.25-5.556 0.255-6.526-0.289c-0.79-0.443-4.787-5.044-5.995-5.732-0.829-0.47-12.069-0.667-12.55-0.336-1.333 0.917-9.72 8.742-11.679 9.857-1.347 0.767-8.517 1.333-14.834 0.25-2.995-0.514-7.433-2.316-9.75-4.5-1.421-1.34-5.088-8.916-6.005-10.166s-19.161-1.417-19.911-1-3.334 2.833-4.209 3.458-5.637-0.221-6.416-0.917c-0.331-0.295-2.176-2.058-2.453-2.577 0.961-27.145 2.974-56.191 4.328-63.048 0.629-3.188 14.835-24.832 26.833-31 11.833-6.083 126.58 8.417 155.33 19.667 7.716 3.019 11.367 12.293 8.917 30.416" fill="#8a694e"/>
  </g>
  <g transform="matrix(.28627 0 0 -.28627 32.601 46.231)">
   <path d="m0 0c5.364-4.132 12.76-10.593 13.167-10.833 7.333-4.334 12.5-5.863 22-4.515 7.533 1.211 29.023 1.234 39.094 1.421 4.096 0.076 11.859 1.069 9.406 5.094-3 6.166-30.667 23-38 25.833-14.608 1.588-40.846 1.814-52.094-4.947-2.872-1.781 2.754-9.224 6.427-12.053" fill="#595754"/>
  </g>
  <g transform="matrix(.28627 0 0 -.28627 49.855 101.57)">
   <path d="m0 0c0.748 0.938 4.062 3.563 5.687 3.813 1.625 0.249 3.268-0.716 3.626-1.375 0.55-1.014-5.433-9.558-7.063-9.563-1.313-4e-3 -2.812 3-2.75 3.812 0.063 0.813 0.035 2.73 0.5 3.313" fill="#755841"/>
  </g>
  <g transform="matrix(.28627 0 0 -.28627 30.442 91.749)">
   <path d="m0 0c-0.292 1.146 5.208 13.083 5.875 14s6.833 0.168 7.083-2.416-1.082-13.834-2.166-14.417-3.553-1.833-4.36-1.833-6.107 3.389-6.432 4.666" fill="#755841"/>
  </g>
  <g transform="matrix(.28627 0 0 -.28627 90.31 95.303)">
   <path d="m0 0c0.583 0.667 2.167 2.917 2.667 2.917 1.583 0 4.991-6.798 4.991-7.382s-2.991-5.535-4.325-5.535c-1.083 0-3 5.249-3.333 6.458s0 3.542 0 3.542" fill="#755841"/>
  </g>
  <g transform="matrix(.28627 0 0 -.28627 111.4 86.035)">
   <path d="m0 0c0.21 1.16 6.028 4.655 7.202 3.166 1.215-1.541 1.608-6.151 1.66-7.92 0.035-1.166 5.346-5.497 5.346-6.33s-5.208-6.459-6.416-6.375c-1.209 0.084-7.115 6.921-7.752 7.733-0.582 0.809-0.207 8.809-0.04 9.726" fill="#755841"/>
  </g>
  <g transform="matrix(.28627 0 0 -.28627 34.307 48.986)">
   <path d="m0 0c1.098 2.204 4.5 5.5 8.875 5.375s30.625 0 34.625-3.625 7.375-6.25 7.125-8.125-4.437-12.437-6.437-12.812-12.324-2.176-13.813-3.563c-1.813-1.687-5.362-13.104-6.875-15.5-1.5-2.375-14.453-7.344-16.064-6.563-2.061 1 0.689 19.188 0.376 23.438-0.247 3.366-7.032 15.606-7.532 16.731s-0.467 4.269-0.28 4.644" fill="#717171"/>
  </g>
  <g transform="matrix(.28627 0 0 -.28627 52.116 57.753)">
   <path d="m0 0c1.493 0.165 6.833-3.417 7-5.333 0.167-1.917 0.583-10.084 0-11.75-0.583-1.667-3.833-5.5-5.333-5.5s-7.25 1-7.667 3.833 0.667 11.504 0.917 12.917c0.25 1.416 3.583 5.666 5.083 5.833" fill="#595857"/>
  </g>
  <g transform="matrix(.28627 0 0 -.28627 23.679 60.985)">
   <path d="m0 0c1.217 0.955 3.917 0.206 4.5-0.377 0.583-0.584 4.083-3.501 4.167-4.667 0.083-1.167 0.5-4.584 0-6.25-0.5-1.667-6.98-16.948-7.752-17.066-0.496-0.076-1.321-0.195-2.071 0.18s-4.938 5.938-5.194 7.593c-0.141 0.909-0.577 3.197-0.235 4.076 0.468 1.199 4.835 15.139 6.585 16.511" fill="#717171"/>
  </g>
  <g transform="matrix(.28627 0 0 -.28627 13.266 81.24)">
   <path d="m0 0c1.917 0 7.096-5.917 7.088-7.334-7e-3 -1.335-0.421-7.625-1.63-9.375-1.136-1.646-7.742-4.073-9.041-3.083-1.75 1.333-4.042 12.25-3.375 13.583 1.008 2.018 5.458 6.209 6.958 6.209" fill="#717171"/>
  </g>
  <g transform="matrix(.28627 0 0 -.28627 41.196 76.934)">
   <path d="m0 0c0.622 1.073 7.203 4.229 9.563 2.458 3.5-2.625 0.666-22.625-2.813-24.958-3.734-2.504-5.721-2.216-7.229-1.083-1.563 1.174-4.771 4.875-4.771 6.583 0 2.187 4.563 15.813 5.25 17" fill="#595857"/>
  </g>
  <g transform="matrix(.28627 0 0 -.28627 53.613 86.291)">
   <path d="m0 0c1.998-0.117 6.687-5.562 6.812-8.5s-0.783-14.851-1.465-16.201c-1.003-1.986-5.912-7.404-8.503-7.205-2.031 0.156-6.909 7.031-6.907 8.176 6e-3 2.046 3.001 17.168 3.626 18.355 0.625 1.188 4.312 5.5 6.437 5.375" fill="#595857"/>
  </g>
  <g transform="matrix(.28627 0 0 -.28627 73.372 85.832)">
   <path d="m0 0c2.667 0 4.917-6.084 4.417-9.667s-1.615-9.818-2.535-11.187c-0.93-1.384-3.814-3.234-5.655-2.539-2.675 1.011-4.65 8.981-3.81 12.393 0.692 2.814 5.25 11 7.583 11" fill="#717171"/>
  </g>
  <g transform="matrix(.28627 0 0 -.28627 82.723 83.089)">
   <path d="m0 0c0.998 0.201 2.834-0.502 5.163-1.898 2.764-1.658 17.524-12.211 17.524-15.821 0-4.032-9.588-14.44-10.277-16.916-1.077-3.865 0.715-9.074-1.137-11.728-1.474-2.114-12.481-3.471-14.315-2.972-1.963 0.534-8.937 3.289-9.187 4.324s-2.271 18.261-1.271 21.636 11.406 22.953 13.5 23.375" fill="#717171"/>
  </g>
  <g transform="matrix(.28627 0 0 -.28627 92.135 70.725)">
   <path d="m0 0c2 0 5.81-3.944 5.937-5.125 0.175-1.625 0.395-15.625 0-16.937-0.562-1.875-3.374-5.235-5.55-5.235-2.137 0-7.696 5.299-7.696 6.987 0 1.687 0.446 13.702 0.696 14.639 0.25 0.938 4.425 5.609 6.363 5.671" fill="#595857"/>
  </g>
  <g transform="matrix(.28627 0 0 -.28627 106.25 75.896)">
   <path d="m0 0c0.182 0.617 3.248 3 4.125 3 2.25 1e-3 9.625-8.187 9.75-9.75s-0.812-9.125-1.187-10-1.625-2.057-2.563-2.119c-0.937-0.063-3.625-0.193-4.313 0.182-0.687 0.375-5.125 6.437-5.25 7.374-0.125 0.938-0.874 10.251-0.562 11.313" fill="#595857"/>
  </g>
  <g transform="matrix(.28627 0 0 -.28627 89.862 50.654)">
   <path d="m0 0c2.625 1.075 14.813-6.675 16-8.613 1.187-1.937 7.001-16.865 6.876-20.302-0.125-3.438-3.377-11.825-5.189-12.754-2.812-1.444-10 0.431-13.125 3.556-3.437 3.438-9.937 21.563-10.249 24.313-0.313 2.75 2.068 12.318 5.687 13.8" fill="#595857"/>
  </g>
  <g transform="matrix(.28627 0 0 -.28627 74.265 58.66)">
   <path d="M 0,0 C 0.796,0.292 3.039,2.605 3.212,4.792 3.223,5.671 3.281,6.707 3.629,6.936 6.504,9.667 8.173,19.893 8.345,20.669 8.721,22.368 6.686,32.343 5.02,36.26 4.766,36.087 4.524,35.917 4.296,35.75 0.075,32.402 -0.396,17.647 0,0" fill="#717171"/>
  </g>
  <g transform="matrix(.28627 0 0 -.28627 45.245 24.103)">
   <path d="m0 0c12.567-0.015 66.819 0.558 106.17 1.092 4.564 1.559 8.286 2.253 12.126 2.309 1.606 0.024 3.233-2.091 4.749-2.069 11.054 0.168 19.529 0.32 23.376 0.435 12.167 0.364 17.695 1.099 24-13.464 6.062-14.008 12.079-36.149 12.77-39.458 2.095-10.025-1.994-16.394-17.77-17.631-5.748-0.451-35.875-1-76-1-46.416 0-102.11-4.924-118.38-0.875-16.875 4.201-18.625 11-15.625 22.5 1.297 4.97 5.751 21.012 12.515 33.058 8.279 14.746 10.708 15.126 32.068 15.103" fill="#b4b4b0"/>
  </g>
  <g transform="matrix(.28627 0 0 -.28627 57.513 24.006)">
   <path d="m0 0c-19.968-0.207-36.589-0.346-42.853-0.338-10.467 0.011-16.383-0.079-20.675-1.904l46.963-7.037z" fill="#c9c9c4"/>
  </g>
  <g transform="matrix(.28627 0 0 -.28627 97.358 38.846)">
   <path d="m0 0c-0.691 3.31-6.708 25.451-12.77 39.458-6.305 14.563-11.833 13.829-24 13.464-3.847-0.114-12.322-0.267-23.376-0.434-1.516-0.023-3.143 2.092-4.749 2.069-3.84-0.056-7.562-0.75-12.126-2.31-23.946-0.325-53.411-0.664-75.643-0.876-10.959-1.734-24.344-4.599-24.956-7.418-2.488-11.452-10.117-45.991-10.125-49.375-0.014-5.97 4.113-12.465 11.429-15.513 23.941 0.557 54.89 2.304 82.546 2.304 40.125 0 70.252 0.549 76 1 15.776 1.237 19.865 7.606 17.77 17.631" fill="#888784"/>
  </g>
  <g transform="matrix(.28627 0 0 -.28627 51.698 30.539)">
   <path d="m0 0c2.63 0.077 8.688-2.563 9-6.5 0.063-3.063-4.313-13.25-5.25-14.25s-9.562-6.312-15.063-3.625c-1.125 0.875-1.883 9.805-0.75 11.816 1.125 1.996 9.938 12.497 12.063 12.559" fill="#595857"/>
  </g>
  <g transform="matrix(.28627 0 0 -.28627 75.745 42.629)">
   <path d="m0 0c-2.667 3.917-14.708 5.169-18.125 5.347-3.416 0.177-15.5-3.178-16.75-3.678s-2.666-5.25-3.082-7.023c7.04 0.167 14.036 0.273 20.832 0.273 6.21 0 12.179 0.013 17.857 0.037 0.04 1.008-0.073 3.712-0.732 5.044" fill="#595857"/>
  </g>
  <g transform="matrix(.28627 0 0 -.28627 86.898 28.911)">
   <path d="m0 0c5.417-2.167 10.5-1.667 13.917-4 3.416-2.333 8.486-7.909 11.929-12 2.873-3.414 6.58-3.833 7.827-3.833-2.395 7.943-5.569 17.556-8.757 24.922-6.305 14.563-11.833 13.829-23.999 13.464-2.478-0.074-6.881-0.164-12.648-0.263 1.441-2.06 3.791-6.014 4.278-7.665 1.12-3.792 4.345-9.382 7.453-10.625" fill="#595857"/>
  </g>
  <g transform="matrix(.28627 0 0 -.28627 47.212 43.619)">
   <path d="m0 0c-5.089-0.262-5.957-2.626-3.924-4.323 24.291 0.477 56.583 2.364 85.32 2.364 40.125 0 70.253 0.549 76 1 7.611 0.597 12.496 2.391 15.284 5.211-65.61-2.281-167.76-3.999-172.68-4.252" fill="#595754"/>
  </g>
  <g transform="matrix(.28627 0 0 -.28627 125.28 115.82)">
   <path d="m0 0c-2.659 19.674-9.589 49.774-16.546 76.074-1.047 1.657-6.705 7.177-8.871 7.927-2.167 0.75-12.416-9.334-12.5-10.417-0.083-1.083 1.657-9.176 1.323-11.843-0.161-1.295-6.515-6.469-7.183-6.307-1.08 0.259-11.556 6.483-12.973 7.233s-32.25-5.5-32.5-5.5-4.833-1-5.833-1.25-5.556 0.255-6.526-0.289c-0.79-0.443-4.787-5.044-5.995-5.732-0.829-0.47-12.069-0.667-12.55-0.336-1.333 0.917-9.72 8.742-11.679 9.857-0.774 0.44-3.472 0.812-6.824 0.847 0.412-6.523 0.836-12.976 1.215-18.737 0.372-5.65 0.917-11.168 0.898-16.4-0.041-11.15 0.129-17.95 0.774-24.809 0.331-9.564-2.273-12.304-11.73-13.295-5-0.523-32.667-3.772-35.833-3.606-1.784 0.094-5.443 0.505-8.367 1.738 0.216-1.819 0.423-3.257 0.617-4.238 0.568-2.883 12.236-20.851 23.336-28.828 1.177-0.846 2.347-1.581 3.497-2.172 11.833-6.083 126.58 8.417 155.33 19.667 7.716 3.019 11.367 12.293 8.917 30.416" fill="#755841"/>
  </g>
  <g transform="matrix(.28627 0 0 -.28627 125.28 115.82)">
   <path d="m0 0c-2.659 19.674-9.589 49.774-16.546 76.074-0.799 1.265-4.28 4.774-6.849 6.701 7.126-27.274 14.815-61.526 17.812-83.691 2.195-16.238-3.849-24.962-6.5-26-1.5-0.333-35.5-6.5-37.167-6.5-1.668 0-4.5 1-5.167 1-0.666 0-12.365-0.286-15.364-2.953-9.227-0.978-38.636-5.214-45.136-1.88 1-3-3.833-4.334-4.833-4.667-0.819-0.273-32.727-6.542-47.997-5.995 1.177-0.846 2.347-1.581 3.497-2.172 11.833-6.083 126.58 8.417 155.33 19.667 7.716 3.019 11.367 12.293 8.917 30.416" fill="#5b4331"/>
  </g>
  <g transform="matrix(.28627 0 0 -.28627 54.835 102.91)">
   <path d="m0 0c-0.015-8e-3 -0.037-0.029-0.053-0.039-1.044-0.675-5.282-7.174-6.091-8.051-0.5-0.542-6.008-1.612-7.648-1.452-2.125 0.208-9.625 4.959-13.375 5.001-1.25 0.014-7.875-1.5-9.333-1.376-2.041 0.174-21.934 4.802-25.458 5.084-5.295 0.423-10.7 0.125-11.375 0.5-1.125 0.625-5.622 8.419-7.157 9.24-1.343 0.719-8.593 0.032-9.187 0.469-0.183 0.135 0.254 6.068 4e-3 7.693-0.116 0.752-5.503 7.409-6.504 7.62-1.298 0.273-4.837-1.567-8.805-2.579-4.883-15.587-10.201-32.828-15.372-50.228-5.659-19.038-10.016-18.445-21.604-10.131-4.788 3.435-33.128 24.522-43.065 35.86-1.501-9.244 2.067-21.815 6.44-33.11 2.255-5.826 15.389-21.261 31.756-34.086 7.132-5.59 12.282-9.123 18.159-11.728 4.669-2.071 9.798-3.558 16.751-5.019 18.833-3.958 53.777-1.264 71.034 0.228 17.645 1.527 22.412 5.671 27.383 22.688 5.683 19.453 13.871 46.264 19.21 65.124-0.666 0.166-4.551-1.103-5.71-1.708" fill="#755841"/>
  </g>
  <g transform="matrix(.28627 0 0 -.28627 56.47 102.42)">
   <path d="m0 0c-0.666 0.166-4.55-1.104-5.71-1.708-0.014-8e-3 -0.036-0.029-0.052-0.039-5.324-18.586-12.895-43.424-18.246-61.744-4.693-16.066-11.527-18.446-27.66-19.841-17.256-1.492-46.705-2.892-65.625 0.625-8.465 1.573-16.64 7.044-16.798 6.375-0.122-0.515 1.76-4.024-0.287-6.689 4.67-2.071 9.799-3.558 16.752-5.019 18.832-3.958 53.777-1.264 71.033 0.228 17.645 1.527 22.413 5.671 27.383 22.688 5.683 19.453 13.871 46.264 19.21 65.124" fill="#5b4331"/>
  </g>
  <g transform="matrix(.28627 0 0 -.28627 35.604 103.08)">
   <path d="m0 0c1.621-2.439 2.836-4.283 2.844-4.573 0.063-2.25-16.922-10.679-17.375-15.809-0.5-5.666 8.359-19.35 8-20.644-0.971-3.508-18.205-10.801-19.258-14.875-0.894-3.465 6.834-14.812 9.508-14.875 2.727-0.065 13.854 8.137 19.625 11.635 0.75-1.446 5.647-12.51 9.167-13.26 2.98-0.75 14.875 4.069 14.958 8.125 0.084 4.055-14.201 24.194-16.223 28.125-2.162 4.201 23.223 15.94 23.223 18.815 0 0.681-3.325 6.073-7.719 12.758-6.526 1.36-18.83 4.127-21.531 4.343-1.791 0.142-3.59 0.203-5.219 0.235" fill="#5b4331"/>
  </g>
  <g transform="matrix(.28627 0 0 -.28627 98.063 99.812)">
   <path d="m0 0c-0.422-0.105-1.48-0.076-2.633-0.049 6.426-3.872 15.933-8.421 15.8-10.117-0.282-3.563-11.202-17.378-10.969-20.688 0.312-4.437 18.274-11.854 18.461-12.854 0.188-1.437-13.036-20.391-12.742-22.625 0.625-4.75 17.223-9.007 19-8.323 1.894 0.728 7.421 11.196 11.041 16.823 1.44-1.874 14.771-10.626 16.771-10.813 2-0.188 9.423 6.706 9.396 10.874-0.03 4.645-19.979 15.374-20.281 17.495-0.354 2.478 9.362 14.548 7.872 21.26-0.713 3.213-15.235 14.403-28.07 23.666-8.553-1.562-17.677-3.399-17.813-3.399-0.25 0-4.833-1-5.833-1.25" fill="#5b4331"/>
  </g>
  <g transform="matrix(.28627 0 0 -.28627 42.534 51.825)">
   <path d="m0 0c-5.611-2.112-11.299-17.91-15.688-33.712 4.282 1.482 9.529 3.92 10.451 5.379 1.513 2.396 5.062 13.813 6.875 15.5 1.489 1.387 11.812 3.188 13.812 3.563s6.188 10.937 6.438 12.812c0.088 0.662-0.282 1.419-0.964 2.278-8.805-0.59-16.994-1.115-20.141-1.58 2.465 0.281 8.012-0.929-0.783-4.24" fill="#595857"/>
  </g>
  <g transform="matrix(.28627 0 0 -.28627 42.669 50.625)">
   <path d="m0 0c4.132 0.664 12.464 0.971 20.808 1.143-1.125 1.661-3.657 3.739-6.516 6.33-4 3.625-30.25 3.5-34.625 3.625-2.629 0.075-4.901-1.086-6.539-2.502 2.641-2.22 4.664-3.959 4.872-4.081 7.333-4.334 12.5-5.863 22-4.515" fill="#3e3a39"/>
  </g>
  <g transform="matrix(.28627 0 0 -.28627 64.879 44.162)">
   <path d="m0 0c7.041 0.167 14.037 0.273 20.833 0.273 6.21 0 12.179 0.013 17.856 0.037 0.03 0.747-0.025 2.424-0.324 3.786-12.932-0.311-25.626-0.596-37.407-0.852-0.436-1.25-0.785-2.505-0.958-3.244" fill="#3e3a39"/>
  </g>
  <g transform="matrix(.28627 0 0 -.28627 85.315 84.391)">
   <path d="m0 0c-0.373-2.323-0.684-4.656-0.91-6.818-0.284-5.075 0.488-20.154 1.458-36.078 0.803 0.331 1.402 0.694 1.674 1.083 1.851 2.655 0.06 7.864 1.136 11.729 0.689 2.476 10.278 12.884 10.278 16.916 0 2.71-8.319 9.333-13.636 13.168" fill="#595857"/>
  </g>
  <g transform="matrix(.28627 0 0 -.28627 97.206 36.354)">
   <path d="m0 0c1.35 0 2.909 0.44 3.057 1.375 0.19 1.205 0.097 11.639-0.144 17.171l3.213-2.711c0.127-3.052 0.284-13.629 0.034-15.21-0.333-2.114-3.672-3.938-6.121-3.367z" fill="#0f141b"/>
  </g>
  <g transform="matrix(.28627 0 0 -.28627 94.347 28.351)">
   <path d="m0 0 3.647 0.05 1.772-2.065h-4.6z" fill="#0f141b"/>
  </g>
  <g transform="matrix(.28627 0 0 -.28627 52.379 44.87)">
   <path d="m0 0c7.324-4.882 13.879-10.01 15.345-13.213 3.754-8.2 3.551-15.278 3.252-21.58-0.291-4.007-6.85-74.626-5.503-87.882 1.762-17.336 10.177-36.879 7.317-57.568-1.539-11.134-21.677-79.014-23.914-86.672-5.084-17.403-10.964-21.923-28.75-23.462-15.953-1.379-51.895-4.241-71.875-0.25-16.152 3.227-22.746 6.977-35.375 16.875-15.81 12.389-29.667 28.524-32.125 34.875-5.661 14.624-8.027 25.741-6.625 33.688 5.206 29.502 23.074 64.136 38.125 103.69 4.356 11.446 16.093 15.943 21.5 21.5 8.604 8.842 30.696 79.782 41.094 87.831 1.979 1.532 4.668 2.731 7.831 3.654l1.331-2.216c-3.376-0.911-6.198-2.121-8.195-3.693-9.561-7.525-31.565-78.947-40.018-87.276-8.043-7.925-17.668-11.017-21.304-21.087-4.018-11.129-9.191-23.267-14.107-35.038-10.171-24.36-20.689-49.549-23.605-67.437-1.231-7.55 0.919-18.546 6.391-32.681 2.055-5.309 14.451-20.373 31.488-33.724 12.391-9.711 18.833-13.003 34.56-16.584 18.659-4.249 61.638-0.548 70.786 0.244 17.23 1.49 21.711 5.204 26.64 22.078 2.239 7.664 22.751 76.678 23.733 85.803 2.273 21.112-5.232 36.314-7.375 57.408-1.403 13.814 5.212 83.493 5.5 87.468 0.361 7.6-0.062 14.187-3.5 21.375-1.458 2.997-8.878 8.443-16.81 13.473z" fill="#0f141b"/>
  </g>
  <g transform="matrix(.28627 0 0 -.28627 36.217 49.426)">
   <path d="m0 0c-3.751 2.688-10.328 7.929-13.587 11.24-3 3.046-1.581 3.645 1.155 1.239 3.489-3.068 10.222-8.269 13.574-11.205 2.896-2.537 2.354-3.779-1.142-1.274" fill="#0f141b"/>
  </g>
  <g transform="matrix(.28627 0 0 -.28627 35.008 68.01)">
   <path d="m0 0c9.552 27.994 11.671 55.519 23.104 60.24 3.273 1.352 9.033 1.803 14.116 1.714 5.133-0.09 5.07-0.946 0.119-1.405-6.869-0.637-11.664-1.087-13.586-1.881-10.246-4.231-13.974-35.332-22.174-59.305-1.609-4.703-3.19-4.084-1.579 0.637" fill="#0f141b"/>
  </g>
  <g transform="matrix(.28627 0 0 -.28627 48.991 50.042)">
   <path d="m0 0c4.917 0.409 8.586 0.633 13.873 0.314 4.169-0.252 4.127-1.336 0.21-1.697-2.491-0.23-10.23-0.307-13.876-0.312-4.374-8e-3 -4.457 1.341-0.207 1.695" fill="#0f141b"/>
  </g>
  <g transform="matrix(.28627 0 0 -.28627 31.255 79.965)">
   <path d="m 0,0 c 6.896,5.588 7.311,8.502 7.686,17.748 0.042,1.049 2.204,7.757 2.605,9.256 1.087,4.069 2.745,3.697 1.65,-0.412 C 11.529,25.046 9.418,18.496 9.385,17.68 9.1,10.647 8.743,6.877 5.493,2.916 L 0,0" fill="#0f141b"/>
  </g>
  <g transform="matrix(.28627 0 0 -.28627 17.734 123.67)">
   <path d="m 0,0 c -1.236,4.87 -1.314,13.066 -0.837,21.167 0.298,5.051 2.004,4.994 1.704,0.007 C 0.367,12.926 0.9,5.192 1.665,0.585 2.44,-4.093 1.121,-4.416 0,0" fill="#0f141b"/>
  </g>
  <g transform="matrix(.28627 0 0 -.28627 18.304 113)">
   <path d="m0 0c6.12 20.907 13.261 44.006 22.151 72.443 0.936 2.995 1.857 12.297 3.926 18.122 1.885 5.31 3.198 4.791 1.626-0.499-3.601-12.111-1.614-12.875-3.553-18.693-9.417-28.259-16.448-50.945-22.522-71.855-1.778-6.112-3.417-5.63-1.628 0.482" fill="#0f141b"/>
  </g>
  <g transform="matrix(.28627 0 0 -.28627 27.451 83.323)">
   <path d="m0 0c5.23 7.658 21.346 18.106 30.678 23.283 3.646 2.024 4.23 0.787 0.854-1.502-7.712-5.229-24.596-15.418-30.056-22.635-2.58-3.41-3.818-2.576-1.476 0.854" fill="#0f141b"/>
  </g>
  <g transform="matrix(.28627 0 0 -.28627 23.464 96.523)">
   <path d="m0 0c-1.477-0.142-8.246 0.413-9.442 0.847-1.392 0.633-13.706 12.082-14.485 13.194 0 0-2.759 4.45-4.737 4.733-1.391 0.2-9.883-1.873-10.714-1.753-1.459 0.208-6.918 3.958-7.3 5.006-0.163 0.598-3.08 22.417-3.509 24.712l-1.233-2.954c0.443-2.798 2.917-21.531 3.101-22.205 0.507-1.858 6.869-5.819 8.7-6.243 1.495-0.346 10.354 1.798 10.786 1.746 0.772-0.092 3.513-4.017 3.513-4.017 0.823-1.176 13.619-13.207 15.281-13.811 1.37-0.499 7.041-0.975 9.437-0.975l0.602 1.72" fill="#0f141b"/>
  </g>
  <g transform="matrix(.28627 0 0 -.28627 56.529 102.19)">
   <path d="m0 0c-1.105 0.276-5.413-1.351-6.309-1.779-1.315-0.629-6.036-7.871-6.334-8.22-0.747-0.408-5.52-1.211-6.981-1.23-1.291-0.016-9.5 4.946-13.449 5.005h-0.025c-0.613 0-8.555-1.437-9.245-1.379-0.819 0.07-23.389 4.918-25.463 5.084-2.662 0.213-10.74 0.31-11.016 0.388-0.718 0.421-5.135 7.89-7.182 9.255-1.149 0.766-8.128 0.397-8.785 0.432 5e-3 0.507 0.031 1.279 0.053 1.942 0.066 1.959 0.14 4.179-0.012 5.167-0.15 0.974-5.645 8.14-7.169 8.322-2.957 0.355-8.594-3.312-13.442-3.194l-2e-3 -1.701c4.821-0.208 11.946 3.601 13.009 3.257 0.935-0.459 5.56-6.069 5.923-6.942 0.128-0.832 0.05-3.156-7e-3 -4.852-0.024-0.751-0.043-1.32-0.05-1.754-0.032-1.915 0.422-1.885 1.694-1.947 0.597-0.029 7.423 0.071 7.985-0.23 0.648-0.347 5.613-8.073 7.145-9.233 0.812-0.615 9.116-0.397 11.72-0.605 1.963-0.157 24.573-5.009 25.454-5.084 0.868-0.073 8.9 1.373 9.385 1.373h0.011c3.359 0.045 11.052-5.011 13.653-5.011 1.888 0 7.218 0.884 8.004 1.737 0.32 0.346 5.389 7.553 5.913 7.912 1.102 0.575 4.472 1.637 5.091 1.637h0.019z" fill="#0f141b"/>
  </g>
  <g transform="matrix(.28627 0 0 -.28627 51.521 100.72)">
   <path d="m0 0c-1.278-0.226-4.419-2.581-5.152-3.502-0.202-0.303-0.304-2.677-0.317-2.848 0.012-0.715 1.286-2.816 1.867-2.894 1.218 0.403 5.925 6.756 6.265 8.412-0.223 0.229-1.917 0.964-2.663 0.832m-3.569-10.947c-1.974 0-3.702 3.338-3.596 4.728 0.012 0.155-4e-3 2.851 0.683 3.778 0.796 1.075 4.325 3.831 6.223 4.123 1.928 0.298 3.95-0.795 4.502-1.81 1.065-1.964-5.664-10.812-7.807-10.819z" fill="#0f141b"/>
  </g>
  <g transform="matrix(.28627 0 0 -.28627 30.684 91.701)">
   <path d="m0 0c0.463-0.959 4.687-3.737 5.628-3.981 0.429 0.045 1.929 0.665 3.817 1.674 0.771 1.25 2.083 10.976 1.825 13.641-0.155 1.598-5.222 2.479-5.601 1.922-0.991-1.458-5.526-11.704-5.669-13.256m5.59-5.685c-1.076 0-6.809 3.552-7.257 5.307-0.44 1.733 5.585 14.123 6.012 14.71 1.228 1.689 8.309 0.355 8.618-2.834 0.18-1.861-0.836-14.293-2.611-15.248-1.342-0.723-3.746-1.935-4.762-1.935" fill="#0f141b"/>
  </g>
  <g transform="matrix(.28627 0 0 -.28627 96.895 43.905)">
   <path d="m0 0c-1.466-0.135-37.058-3.098-41.38-3.098-4.02 0-25.491-7.966-32.872-13.379-9.071-7.197 1.706-75.735-3.433-99.898-2.077-9.767-11.424-27.494-15.945-41.125-3.937-11.873 0.069-100.09 2.543-112.63 0.524-2.652 14.508-23.419 26.332-29.498 11.313-5.811 126.54 8.271 154.5 19.21 7.798 3.051 10.423 12.447 8.188 28.978-5.192 38.41-27.98 122.17-32.886 129.33-1.957 2.855-16.12 18.111-18.478 23.361-2.41 5.366-19.652 77.865-20.897 82.748-1.371 6.355-16.383 16.421-25.672 16.002m-65.63-302.25c-12.028 6.183-27.268 27.548-27.958 31.042-2.488 12.606-6.403 102.22-2.604 114.46 3.284 10.589 14.07 31.699 15.978 40.913 4.834 23.335-6.013 93.112 4.584 101.46 7.111 5.601 29.666 15.16 34.376 15.16 4.245 0 41.363 2.267 41.731 2.3 7.94 0.388 25.416-9.375 27.199-17.64 1.24-4.862 18.88-77.438 20.736-81.82 1.977-4.667 17.349-22.504 18.333-23.917 5.604-8.048 28.907-91.378 34.209-130.6 2.668-19.735-1.729-29.395-10.459-32.734-27.666-10.583-143.34-25.203-156.12-18.625" fill="#0f141b"/>
  </g>
  <g transform="matrix(.28627 0 0 -.28627 108.76 125.16)">
   <path d="m0 0c1.939 0.858 2.837 1.061 3.311 1.061 0.349 0 4.252-1 5.166-1 1.639 0.022 35.003 6.04 36.983 6.479 0.583 0.129 2.074 0.534 2.518 0.712 2.734 1.097 3.208 0.756 0.746-1.22-0.533-0.427-1.573-0.857-2.896-1.152-0.293-0.066-35.377-6.521-37.351-6.521-1.129 0-4.994 0.995-5.169 1-0.295-0.034-1.712-0.515-2.705-0.774-3.763-0.981-4.011-0.094-0.603 1.415" fill="#0f141b"/>
  </g>
  <g transform="matrix(.28627 0 0 -.28627 92.224 126.78)">
   <path d="m0 0c-5.068 2.601-22.528 21.857-24 27.812-1.922 7.778-2.256 22.063-1.729 34.229 0.198 4.568 0.857 4.542 1.125 0.042 0.801-13.438 0.448-26.481 2.515-33.639 1.582-5.479 18.293-24.211 23.04-26.645 5.021-2.575 20.083-0.618 43.07 1.575 5.746 0.548 5.892-0.46 0.25-1.25-13.257-1.856-37.775-5.457-44.271-2.124" fill="#0f141b"/>
  </g>
  <g transform="matrix(.28627 0 0 -.28627 85.834 79.115)">
   <path d="m0 0c2.299 3.932 5.094 11.443 4.981 14.438-0.68 18.098-11.187 83.182-9.495 93.275 0.765 4.565-0.571 4.953-1.693 0-2.909-12.843 8.226-71.452 9.216-93.405 0.101-2.24-3.971-11.991-4.68-13.437-2.477-5.469-1.191-5.767 1.671-0.871" fill="#0f141b"/>
  </g>
  <g transform="matrix(.28627 0 0 -.28627 84.668 83.079)">
   <path d="m0 0c-0.566-2.732-1.661-8.098-1.792-10.534-0.5-9.3 2.521-49.323 2.698-57.567 0.136-6.35-1.114-6.266-1.705 0-1.615 17.121-4.136 46.154-3.212 57.661 0.204 2.533 1.554 8.72 2.291 11.532 1.455 5.548 3 5.09 1.72-1.092" fill="#0f141b"/>
  </g>
  <g transform="matrix(.28627 0 0 -.28627 110.1 125.18)">
   <path d="m0 0s-3.05 3.531-5.073 5.724c-1.836 1.99-2.699 1.548-1.109-0.703 1.167-1.654 2.702-3.578 3.895-4.971z" fill="#0f141b"/>
  </g>
  <g transform="matrix(.28627 0 0 -.28627 84.134 64.033)">
   <path d="m0 0c2.551 1.792 7.779 3.94 11.197 4.571 3.33 0.614 3.322-0.764 0.292-1.803-2.888-0.99-7.905-2.827-10.823-4.271-2.495-1.235-3.25-0.312-0.666 1.503" fill="#0f141b"/>
  </g>
  <g transform="matrix(.28627 0 0 -.28627 120.68 94.553)">
   <path d="m0 0c-0.968 1.767-7.707 8.249-9.622 8.911-1.689 0.19-10.516-8.075-11.374-9.76 0.355-2.568 1.5-10.358 1.32-11.801-0.194-1.55-6.855-7.427-8.226-7.03-0.733 0.212-12.613 7.006-13.097 7.269-1.44 0.195-32.05-5.559-32.177-5.559-0.357-0.046-4.63-0.975-5.628-1.224-0.496-0.124-5.894 0-6.319-0.208-0.278-0.172-5.269-5.319-5.987-5.727-0.821-0.466-12.463-0.979-13.452-0.298-0.542 0.372-10.509 9.188-11.618 9.819-1.011 0.575-7.795 1.26-14.27 0.151-2.865-0.491-7.131-2.227-9.31-4.281-1.119-1.055-5.793-9.902-5.903-10.05-1.223-1.668-19.676-1.981-21.01-1.24-0.469 0.261-3.945 3.263-4.289 3.509-0.747 0.336-4.73-0.371-5.362-0.864-0.512-0.458-2.761-2.84-2.968-3.198l-0.046 2.602c0.789 0.858 1.872 1.855 1.887 1.869 1.003 0.897 6.21 1.879 7.477 0.975 0.41-0.293 3.652-3.103 4.06-3.366 1.712-0.323 17.147-0.08 18.938 0.802 0.194 0.287 4.951 9.164 6.049 10.199 2.504 2.359 7.119 4.192 10.19 4.719 6.484 1.112 13.812 0.555 15.398-0.349 1.263-0.719 11.043-9.374 11.635-9.819 1.343-0.204 10.729-0.044 11.817 0.329 0.495 0.288 5.548 5.415 5.936 5.704 0.9 0.671 6.437 0.297 6.735 0.372 0.374 0.093 5.07 1.157 5.934 1.267v2e-3c0.156 0.023 31.064 6.447 33.004 5.408 0.443-0.238 11.413-6.585 12.616-7.098 1.267 0.599 5.989 4.609 6.307 5.571 0.355 1.906-1.426 10.536-1.336 11.757 0.101 1.372 10.824 12.129 13.626 11.156 1.926-0.667 6.068-4.47 8.196-6.869z" fill="#0f141b"/>
  </g>
  <g transform="matrix(.28627 0 0 -.28627 90.542 95.405)">
   <path d="m0 0c-0.087-0.737-0.2-2.205 8e-3 -2.961 0.413-1.5 1.868-5.066 2.594-5.785 0.905 0.491 3.016 3.681 3.371 4.646-0.378 1.196-2.897 5.783-4.015 6.457-0.386-0.354-1.821-2.189-1.958-2.357m2.522-10.495c-1.585 0-3.544 5.051-4.153 7.083-0.37 1.341-0.052 3.63-0.022 3.888 0.055 0.478 2.443 3.647 3.508 3.647 2.381 0 5.842-7.477 5.842-8.232 0-0.799-3.173-6.386-5.175-6.386" fill="#0f141b"/>
  </g>
  <g transform="matrix(.28627 0 0 -.28627 111.62 88.687)">
   <path d="m0 0c1.112-1.395 5.877-6.72 7.086-7.323 1.08 0.419 4.765 4.247 5.447 5.471-0.584 1.158-5.209 4.595-5.28 6.336-0.097 2.391-0.577 6.275-1.478 7.418-0.576 0.487-5.014-1.597-5.716-2.857-0.159-0.907-0.427-7.956-0.059-9.045m7.06-9.047c-1.837 0.065-8.386 7.982-8.448 8.061-0.925 1.282-0.269 10.067-0.208 10.402 0.22 1.213 6.683 6.107 8.706 3.54 1.636-2.074 1.835-8.163 1.843-8.421 0.121-0.792 5.346-4.979 5.346-6.355 0-1.366-5.507-7.287-7.239-7.227" fill="#0f141b"/>
  </g>
  <g transform="matrix(.28627 0 0 -.28627 55.921 24.286)">
   <path d="m0 0c-16.892-0.134-31.036-0.222-37.125-0.222-19.73-0.399-23.052 0.366-31.494-14.669-6.508-11.591-10.248-26.875-11.819-32.892-3.039-11.649 0.279-16.91 14.618-20.959 8.946-2.526 25.945-2.889 51.456-2.235 13.592 0.349 53.156 2.953 66.239 3.152 35.916 0.547 67.213-0.69 76.083 1.056 15.265 3.005 18.225 7.035 16.258 16.444-0.57 2.73-6.006 23.892-12.212 38.229-5.198 12.007-7.575 13.634-22.962 13.354-3.754-0.112-12.054-0.247-22.917-0.39l-1.812 2.269c11.748 0.145 20.764 0.277 24.729 0.371 11.905 0.285 18.985 1.327 25.583-13.916 5.961-13.771 11.85-36.114 12.648-39.938 2.261-10.82-2.314-17.345-19.082-18.66-6.142-0.482-36.888-1.652-75.983-1.652-40.083 0-97.666-6.583-119.08-0.167-15.372 4.606-19.378 10.266-15.833 23.853 1.586 6.082 5.666 21.3 12.27 33.064 8.315 14.807 9.844 15.398 32.91 15.937 6.118 0 20.499 0.099 37.557 0.243z" fill="#0f141b"/>
  </g>
  <g transform="matrix(.28627 0 0 -.28627 108.62 25.996)">
   <path d="m0 0c-1.299 2.055-9.715 11.066-15.719 14.75l-17.798 3.277c-3.967-3.321-12.708-11.597-16.114-16.625-1.75-2.584 2.543-8.609 4.291-10.709 5.467-6.562 20.112-19.058 25.542-19.077 2.271-8e-3 8.146 5.265 9.417 7.452 0.506 0.871 1.287 2.482 1.546 3.601v1e-3c1.035-0.165 2.329-0.277 2.787 0.231 0.75 0.834 6.299 7.961 6.691 8.647 1.157 2.026 1.184 5.562-0.643 8.452" fill="#888784"/>
  </g>
  <g transform="matrix(.28627 0 0 -.28627 97.038 27.876)">
   <path d="m0 0c-0.416 1.33-0.249 2.743 0 3.658 0.171 0.625-4.746 3.502-8.327 5.474-0.305-0.403-0.592-0.795-0.843-1.165-1.75-2.583 2.543-8.609 4.292-10.708 5.356-6.43 19.518-18.548 25.195-19.053-9.773 7.471-19.381 18.8-20.317 21.794" fill="#71706d"/>
  </g>
  <g transform="matrix(.28627 0 0 -.28627 113.82 5.1863)">
   <path d="m0 0c-3.403 0.829-22.25 4.875-25.25 3.625 0.037-0.664 0.061-1.361 0.015-2.087-0.867 1.214-4.135 3.438-5.048 3.764-3.179 1.139-19.634 1.49-21.842 1.24-3.532-0.4-6.681-3.141-8.063-7.042-1.062-3-6.312-34.5-6.312-41.5 0-5.784 1.491-7.78 7.38-10.625 5.432-2.625 46.932-9.063 52.245-8.688 4.427 0.313 7.121 2.893 8.792 6.938 1.703 4.122 6.024 35.375 6.02 42.812-2e-3 4.724-1.848 10.08-7.937 11.563" fill="#717171"/>
  </g>
  <g transform="matrix(.28627 0 0 -.28627 115.85 7.0233)">
   <path d="m0 0c-1.052 2.936-3.205 5.469-7.097 6.417-3.403 0.829-22.25 4.875-25.25 3.625 0.037-0.664 0.061-1.361 0.015-2.087-0.867 1.214-4.135 3.438-5.048 3.764-3.18 1.14-19.634 1.49-21.842 1.24-2.133-0.242-4.118-1.348-5.667-3.036 7.312-2.828 18.423-6.918 20.272-7.534 1.935-0.645 30.432-1.833 44.617-2.389" fill="#888"/>
  </g>
  <g transform="matrix(.28627 0 0 -.28627 31.051 32.669)">
   <path d="m0 0c-1-2-4.5-9.188 0.937-12.063 4.058-2.145 14.408-6.139 20.875-6.812 4.259-0.443 6 0.079 8.063 3.625 2.663 4.578 4.813 12.714 6.5 17.625 0.813 2.368 0.249 5.12-4.5 7.25-6.24 2.797-10.958 4.312-10.958 4.312z" fill="#b4b4b0"/>
  </g>
  <g transform="matrix(.28627 0 0 -.28627 24.842 22.434)">
   <path d="m0 0c-8.648-6.177-9.245-7.497-7.15-13.754 2.349-7.019 7.093-17.028 8.525-19.559 1.425-2.517 2.961-4.609 5.75-4.973 1.938-0.253 8.854-1.006 12.125 0 2.211 0.68 23.125 11.974 23.758 16.473 0.375 2.667-4.653 16.797-9.299 23.603-0.978 1.431-3.882 2.352-4.772 2.96z" fill="#717171"/>
  </g>
  <g transform="matrix(.28627 0 0 -.28627 34.286 1.3334)">
   <path d="m0 0c-2.793 0.628-33.737-3.146-38.8-4.083-6.336-1.174-10.625-6.218-11.55-14.385-0.485-4.282-4.033-31.199-4.866-34.826-0.834-3.627 1.166-6.873 2.333-8.539 1.167-1.667 13.542-10.917 15.708-12.25 2.167-1.333 9.787-0.528 13.292-0.25 0.373 0.029 0.556 0.507 0.627 1.218h2.939c0.26-0.175 0.527-0.282 0.798-0.291 0.666-0.022 21.323 3.507 24.469 4.051 1.221 0.211 5.586 3.332 6.257 3.877 2.181 1.77 8.827 40.686 9.493 47.978 0.593 6.491-13.247 15.824-20.7 17.5" fill="#c9c9c4"/>
  </g>
  <g transform="matrix(.28627 0 0 -.28627 70.415 17.895)">
   <path d="m0 0c0.213 2.125 0.032 11.957-2.507 12.957-2.467 0.972-23.5-0.062-25.625-0.062s-5.937-2.688-7.375-4.375c-1.169-1.373-2.317-9.056-2.033-10.559l22.979 0.346z" fill="#b4b4b0"/>
  </g>
  <g transform="matrix(.28627 0 0 -.28627 48.275 100.31)">
   <path d="m0 0c-1e-3 2.002-6.583 13.301-9.792 12.667-3.159-0.624-14.64-9.16-16.236-10.416-2.727 5.188-7.701 15.817-10.014 16.092-3.738 0.443-14.148-7.884-13.994-9.988 0.229-3.123 9.97-16.255 9.994-17.125 0.063-2.25-16.422-11.517-16.875-16.647-0.5-5.666 8.234-18.538 7.875-19.833-0.971-3.508-17.754-8.926-18.806-13-0.895-3.465 5.945-14.082 8.619-14.145 2.727-0.065 14.04 8.203 19.811 11.701 0.749-1.447 6.918-14.14 10.438-14.89 2.98-0.75 13.036 3.828 13.119 7.884 0.084 4.055-9.556 12.45-7.296 16.249 1.506 2.53 9.074 5.617 9.157 7.617s-4.606 11.771-8.667 11.334c-2.11-0.227-9.883-4.734-11.142-5.471-2.273 3.685-5.504 10.09-5.233 11.471 0.222 1.128 5.282 4.931 8.432 6.802 0.81-1.239 6.236-9.26 8.693-9.51 2.572-0.262 11.291 7.387 11.334 8.374 0.083 1.917-4.723 8.084-4.334 8.876 0.67 1.363 14.917 9.083 14.917 11.958" fill="#888784"/>
  </g>
  <g transform="matrix(.28627 0 0 -.28627 104.54 105.99)">
   <path d="m0 0c0 1.792 4.792 11.083 6.5 11.083s8.875-5.166 9.458-7.791c0.584-2.625-2.916-10.375-5.833-10.5-1.794-0.077-10.125 6.041-10.125 7.208m21.354-12.688c-0.354 2.479 9.438 12.604 7.948 19.317-1.233 5.554-17.498 12.334-17.323 15.308 0.146 2.48 11.104 16.396 9.938 18.938-0.698 1.52-5.922 6.173-9.667 8.208-1.024 0.557-5.767 0.401-6.125 0.125-4.28-3.302-9.587-11.913-10.561-13.303l0.013-0.028c-3.634 2.356-9.361 6.132-13.077 8.206-1.367 0.764-4.736 0.902-5.458 0.25-3.132-2.829-7.228-11.246-7.188-13.396 0.063-3.437 19.545-10.382 19.344-12.937-0.281-3.562-11.202-17.378-10.969-20.688 0.313-4.437 17.25-13 17.438-13.999 0.187-1.438-12.357-19.079-12.063-21.313 0.625-4.75 14.723-9.934 16.5-9.25 1.895 0.729 9.378 13.58 12.999 19.207 1.439-1.874 17.001-13.395 19.001-13.582 2-0.188 9.423 6.706 9.396 10.874-0.03 4.646-19.843 15.942-20.146 18.063" fill="#888784"/>
  </g>
  <g transform="matrix(.28627 0 0 -.28627 109.11 105.05)">
   <path d="m0 0c-0.583 2.625-7.75 7.791-9.458 7.791-0.673 0-1.822-1.445-2.97-3.3 2.681-0.619 7.948-4.492 7.945-6.54-4e-3 -2.693-3.181-7.743-3.204-7.78 0.81-0.423 1.479-0.688 1.854-0.671 2.916 0.125 6.416 7.875 5.833 10.5" fill="#b4b4b0"/>
  </g>
  <g transform="matrix(.28627 0 0 -.28627 74.564 17.711)">
   <path d="m0 0c-2.886-0.018-25.125-1.25-27-1.123-0.857 0.058-1.282-0.36-1.913-1.043-1.946 0.124-14.337 0.916-18.212 1.041s-12.75-6.375-15.375-8.25c-2.197-1.569-2.625-7.258-2.625-14.125l4.62 0.488c4.974 4.043 12.799 1.874 13.017 1.374 0 0 15.548-1.028 20.738-0.967 7.778 0.09 31.04 2.174 31.04 2.174 1 3.312 0.418 20.459-4.29 20.431" fill="#717171"/>
  </g>
  <g transform="matrix(.28627 0 0 -.28627 36.99 117.69)">
   <path d="m0 0c1.638 0.992 2.83 1.602 3.253 1.528 1.917-0.333 8.854-12.228 9.521-13.228 0.833-1.332-0.376-3.431-2.334-3.189-3.52 0.75-9.689 13.446-10.438 14.89" fill="#595754"/>
  </g>
  <g transform="matrix(.28627 0 0 -.28627 39.186 96.557)">
   <path d="m0 0c-1.41 2.759-3.251 5.1-4.292 5.223-3.739 0.443-14.149-7.884-13.995-9.988 0.229-3.124 9.971-16.255 9.995-17.126 0.063-2.25-16.422-11.516-16.875-16.646-0.5-5.666 8.234-18.538 7.875-19.833-0.972-3.508-17.754-8.926-18.807-13-0.894-3.465 5.945-14.082 8.62-14.146 0.786-0.018 3.981 1.608 3.981 1.608-0.917 0.5-7.002 6.954-7.085 10.204-0.084 3.25 13.737 8.715 14.5 9.25 1.491 1.046 4.713 3.406 2.916 7.001-0.625 1.25-8.562 15.118-7.312 19.014 1.403 4.372 16.782 13.773 17.22 15.652 0.467 2-6.536 10.776-9.449 15.042-0.922 1.35-0.668 3.311 0.177 4.22 1.908 2.049 4.887 3.924 8.364 4.697 1.125 0.187 3.397 0.187 4.167-1.172" fill="#595754"/>
  </g>
  <g transform="matrix(.28627 0 0 -.28627 28.852 116.99)">
   <path d="m0 0c-0.028-0.107-0.048-0.22-0.061-0.34l5.576-1.994c-0.083 3.25 13.737 8.715 14.5 9.25 1.158 0.812 3.35 2.421 3.435 4.781l-4.679 1.217c-1.215-3.51-17.727-8.873-18.771-12.914" fill="#b4b4b0"/>
  </g>
  <g transform="matrix(.28627 0 0 -.28627 31.319 121.04)">
   <path d="m0 0c0.787-0.019 3.981 1.607 3.981 1.607-0.916 0.5-7.002 6.954-7.085 10.204v1e-3l-5.576 1.993c-0.416-3.768 6.088-13.744 8.68-13.805" fill="#595754"/>
  </g>
  <g transform="matrix(.28627 0 0 -.28627 31.981 107.59)">
   <path d="m0 0c-0.5-5.666 8.234-18.538 7.875-19.833-8e-3 -0.028-0.025-0.058-0.035-0.086l4.678-1.217c0.024 0.679-0.116 1.417-0.518 2.22-0.598 1.197-7.896 13.956-7.417 18.46l-4.5 0.917c-0.04-0.157-0.07-0.311-0.083-0.461" fill="#595754"/>
  </g>
  <g transform="matrix(.28627 0 0 -.28627 38.253 103.08)">
   <path d="m0 0c0.467 2-6.537 10.776-9.45 15.042-0.387 0.567-0.557 1.242-0.572 1.902l-5 1.154c-1e-3 -0.025-8e-3 -0.053-6e-3 -0.076 0.229-3.124 9.97-16.255 9.995-17.126 3e-3 -0.116-0.047-0.255-0.127-0.407l4.974-0.834c0.094 0.132 0.164 0.25 0.186 0.345" fill="#595754"/>
  </g>
  <g transform="matrix(.28627 0 0 -.28627 36.776 102.94)">
   <path d="m0 0c-1.434-2.707-15.413-10.85-16.665-15.778l4.5-0.918c0.021 0.2 0.052 0.39 0.105 0.555 1.332 4.151 15.257 12.833 17.034 15.307z" fill="#b4b4b0"/>
  </g>
  <g transform="matrix(.28627 0 0 -.28627 37.957 95.062)">
   <path d="m0 0c-3.698 0.438-13.915-7.698-13.989-9.912l5-1.154c-0.021 0.91 0.26 1.791 0.75 2.318 1.908 2.05 4.887 3.925 8.364 4.697 1.125 0.188 3.396 0.188 4.167-1.172-1.41 2.759-3.251 5.1-4.292 5.223" fill="#b4b4b0"/>
  </g>
  <g transform="matrix(.28627 0 0 -.28627 38.604 111.2)">
   <path d="M 0,0 C 0.871,-1.408 1.598,-2.41 1.928,-2.565 3.17,-3.152 14.768,3.663 14.768,3.663 13.59,4.869 12.325,5.645 11.115,5.515 8.817,5.268 0,0 0,0" fill="#595754"/>
  </g>
  <g transform="matrix(.28627 0 0 -.28627 39.538 105.94)">
   <path d="m0 0c0.806-1.232 6.143-9.316 8.602-9.566 0.603-0.062 2.286 0.743 2.286 0.743-0.417 1-6.703 9.465-8.62 9.822-0.303 0.057-1.16-0.346-2.268-0.999" fill="#595754"/>
  </g>
  <g transform="matrix(.28627 0 0 -.28627 47.007 97.92)">
   <path d="m0 0c-0.051-0.817-3.101 0.893-4.673 0.066-5.376-2.826-14.825-8.968-15.149-8.968-0.231 0-1.017 1.234-1.825 2.756 1.425 1.131 13.095 9.824 16.284 10.454 1.751 0.44 5.414-3.491 5.363-4.308" fill="#b4b4b0"/>
  </g>
  <g transform="matrix(.28627 0 0 -.28627 99.692 93.527)">
   <path d="m0 0c-0.665-0.873-6.609-8.605-6.942-9.685-0.332-1.081-0.208-2.162-0.166-2.577 0.042-0.416-5.986-1.206-5.944 0 0.041 1.205 1.995 5.861 3.284 8.355 1.288 2.494 2.713 4.246 3.745 4.702 3.28 1.45 6.023-0.795 6.023-0.795" fill="#b4b4b0"/>
  </g>
  <g transform="matrix(.28627 0 0 -.28627 101.98 118.75)">
   <path d="m0 0c-3.104 1.965-7.183 4.503-7.455 6.572-0.294 2.234 12.25 19.875 12.063 21.312-0.188 1-17.125 9.563-17.438 14-0.233 3.31 10.688 17.125 10.969 20.688 0.201 2.555-21.84 10.24-19.345 14.896 0.835-1.432 3-1.658 6.459-1.309 1.041-2.072 18.616-8.608 18.553-11.92-0.081-4.333-11.634-18.053-11.261-22.98 0.313-4.125 17.938-9.445 17.938-13.82 0-2.937-12.063-19.43-12.25-20.492-0.965-2.149-0.422-5.561 1.767-6.947" fill="#595754"/>
  </g>
  <g transform="matrix(.28627 0 0 -.28627 103.05 100.52)">
   <path d="m0 0-5.703-0.739c0.069-0.126 0.114-0.247 0.106-0.356-0.282-3.563-11.202-17.378-10.969-20.688 2e-3 -0.024 0.011-0.05 0.013-0.074l5.362-0.536c-0.336 4.74 10.265 17.543 11.191 22.393" fill="#b4b4b0"/>
  </g>
  <g transform="matrix(.28627 0 0 -.28627 101.47 116.76)">
   <path d="m0 0c0.179 1.015 11.19 16.105 12.172 20.012l-5.858 0.614c-0.892-2.735-12.282-18.87-12.001-21.001 0.272-2.068 4.35-4.607 7.454-6.572-2.189 1.386-2.732 4.798-1.767 6.947" fill="#b4b4b0"/>
  </g>
  <g transform="matrix(.28627 0 0 -.28627 103.07 100.36)">
   <path d="m0 0c0.062 3.313-17.513 9.849-18.554 11.92-3.458-0.349-5.623-0.123-6.458 1.31-2.389-4.459 17.7-11.69 19.239-14.54l5.703 0.738c0.039 0.204 0.067 0.398 0.07 0.572" fill="#595754"/>
  </g>
  <g transform="matrix(.28627 0 0 -.28627 104.98 110.9)">
   <path d="m0 0c0 4.375-17.625 9.695-17.937 13.82-1e-3 5e-3 0 0.01 0 0.015l-5.362 0.536c0.489-4.458 17.238-12.931 17.424-13.926 9e-3 -0.066-0.018-0.178-0.061-0.311l5.858-0.614c0.046 0.182 0.078 0.349 0.078 0.48" fill="#595754"/>
  </g>
  <g transform="matrix(.28627 0 0 -.28627 109.05 104.98)">
   <path d="m0 0c-0.583 2.625-7.75 7.791-9.459 7.791-0.672 0-1.821-1.445-2.969-3.3 2.681-0.619 7.948-4.492 7.945-6.54-4e-3 -2.693-3.181-7.743-3.205-7.78 0.811-0.423 1.479-0.688 1.854-0.671 2.917 0.125 6.417 7.875 5.834 10.5" fill="#595754"/>
  </g>
  <g transform="matrix(.28627 0 0 -.28627 108.29 114.02)">
   <path d="m0 0c1.038 1.613 1.758 2.633 1.939 2.605 0.812-0.125 20.136-14.585 20.136-14.585-1.292-1.027-2.448-1.661-3.074-1.602-2 0.187-17.562 11.708-19.001 13.582" fill="#595754"/>
  </g>
  <g transform="matrix(.28627 0 0 -.28627 108.05 91.939)">
   <path d="m0 0c-2.208 0.75-5.767 0.401-6.125 0.125-4.28-3.302-9.587-11.913-10.561-13.303l-0.031 1e-3c1.948-1.263 3.304-2.127 3.446-2.115 0.5 0.041 9.479 13.876 13.271 15.292" fill="#b4b4b0"/>
  </g>
  <g transform="matrix(.28627 0 0 -.28627 69.698 14.186)">
   <path d="m0 0c-2.192 0.863-19.024 0.144-24.248-0.027 1.616-2.848 1.961-9.5 1.499-11.473-0.329-0.697-1.952-0.893-2.707-1.036-0.861-0.162-2.377-1.355-0.951-2.331l14.353 0.216 14.561 1.694c0.213 2.125 0.032 11.957-2.507 12.957" fill="#888784"/>
  </g>
  <g transform="matrix(.28627 0 0 -.28627 74.564 17.711)">
   <path d="m0 0c-2.886-0.018-25.125-1.25-27-1.123-0.857 0.058-1.282-0.36-1.913-1.043-1.306 0.084-7.317 0.468-12.302 0.749 0.855-0.463 1.771-1.788-0.565-3.276-1.823-1.162-1.646-12.21-1.377-17.216 4.999-0.3 12.971-0.736 16.407-0.696 7.778 0.09 31.04 2.174 31.04 2.174 1 3.312 0.418 20.459-4.29 20.431" fill="#595857"/>
  </g>
  <g transform="matrix(.28627 0 0 -.28627 35.268 36.426)">
   <path d="m0 0c-1.346 2.243 10.802 18.065 15.21 23.597-5.253 2.253-9.025 3.465-9.025 3.465l-20.917-13.937c-1-2-4.5-9.187 0.938-12.063 4.057-2.145 14.407-6.139 20.875-6.812 3.192-0.332 4.97-0.122 6.53 1.499-5.055 0.691-12.502 2.403-13.611 4.251" fill="#888784"/>
  </g>
  <g transform="matrix(.28627 0 0 -.28627 108.62 25.996)">
   <path d="m0 0c-1.299 2.055-9.715 11.066-15.719 14.75l-11.318 2.083c6.965-6.246 20.462-25.068 19.836-28.201-0.521-2.289-8.514-12.051-11.764-13.022-2.412-0.721-4.161-1.749-3.537-3.326 1.041-0.422 1.961-0.665 2.704-0.668 2.271-8e-3 8.146 5.265 9.417 7.452 0.506 0.871 1.287 2.482 1.546 3.601v1e-3c1.035-0.165 2.329-0.277 2.787 0.231 0.75 0.834 6.299 7.961 6.691 8.647 1.157 2.026 1.184 5.562-0.643 8.452" fill="#71706d"/>
  </g>
  <g transform="matrix(.28627 0 0 -.28627 34.492 21.922)">
   <path d="m0 0c-0.577 0.845-1.823 1.509-2.933 2.038-5.261-1.534-14.75-6.127-20.81-9.421 7.135-0.341 23.572-1.288 25.128-2.365 1.177-2.25 4.801-10.974 4.427-13.045-0.437-2.42-18.371-13.517-27.909-17.701 2.657-0.156 5.752-0.162 7.638 0.418 2.211 0.68 23.125 11.974 23.758 16.473 0.375 2.667-4.653 16.798-9.299 23.603" fill="#595857"/>
  </g>
  <g transform="matrix(.28627 0 0 -.28627 26.184 24.939)">
   <path d="m0 0c2.526 2.004 18.598 10.394 26.089 12.578-0.77 0.368-1.475 0.673-1.839 0.922l-28.937-4.75c-5.906-4.218-8.054-6.173-8.157-8.979 2.451-0.295 5.691-0.629 7.494-0.896 2.817-0.417 4.517 0.583 5.35 1.125" fill="#595857"/>
  </g>
  <g transform="matrix(.28627 0 0 -.28627 113.82 5.1863)">
   <path d="m0 0c-0.896 0.218-2.868 0.66-5.335 1.169 0.127-0.071 0.252-0.142 0.377-0.213 2.309-1.324 4.257-2.619 4.333-2.998 0.167-0.833-16.041 2.028-20.68 2.662-1.584 0.216-2.322 0.822-2.515 3.23-0.623-0.025-1.117-0.095-1.43-0.225 0.122-0.29 0.122-0.537 0.028-0.752 0.013-0.434 0.016-0.877-0.013-1.335-0.152 0.212-0.395 0.462-0.669 0.721-2.305-1.113-9.309-0.505-12.347-0.668-2.332 0-4.753-2.801-6.083-5.841-1.22-2.789-6.148-38.038-5.958-42.208 0.084-1.834 0.768-3.05 1.084-3.334 0.18-0.34 0.222-0.859 0.131-1.44-0.18-1.161-0.925-2.59-2.414-3.474 13.769-2.966 40.428-6.902 44.616-6.607 4.427 0.313 7.121 2.893 8.792 6.938 1.703 4.122 6.024 35.375 6.02 42.812-2e-3 4.724-1.848 10.08-7.937 11.563" fill="#595857"/>
  </g>
  <g transform="matrix(.28627 0 0 -.28627 113.82 5.1863)">
   <path d="m0 0c-0.896 0.218-2.868 0.66-5.335 1.169 0.127-0.071 0.252-0.142 0.377-0.213 6.459-1.792 10.133-7.416 10.135-11.956 4e-3 -7.437-4.097-36.003-5.801-40.125-1.671-4.045-2.687-5.252-7.115-5.564-3.743-0.265-26.383 2.74-41.338 5.457-0.18-1.161-0.925-2.59-2.414-3.474 13.769-2.966 40.428-6.902 44.616-6.607 4.427 0.313 7.121 2.893 8.792 6.938 1.703 4.122 6.024 35.375 6.02 42.812-2e-3 4.724-1.848 10.08-7.937 11.563" fill="#3e3a39"/>
  </g>
  <g transform="matrix(.28627 0 0 -.28627 21.116 3.6169)">
   <path d="m0 0c-2.315-2.477-3.84-6.011-4.348-10.491-0.485-4.282-4.033-31.199-4.866-34.826-0.834-3.627 1.166-6.873 2.333-8.54 1.167-1.666 13.542-10.917 15.708-12.25 0.526-0.323 1.376-0.519 2.406-0.629-3.685 4.467-5.727 9.655-5.531 13.254 0.513 9.38 3.851 40.459 9.625 43.625 0.631 0.346 1.475 0.687 2.493 1.022-6.33 0.074-13.866 4.858-17.82 8.835" fill="#b4b4b0"/>
  </g>
  <g transform="matrix(.28627 0 0 -.28627 25.504 6.4387)">
   <path d="m0 0c-5.774-3.167-9.112-34.245-9.625-43.625-0.196-3.599 1.846-8.787 5.531-13.254 3.219-0.343 8.231 0.169 10.886 0.379 0.373 0.03 0.556 0.508 0.627 1.219h2.938c0.261-0.176 0.528-0.283 0.799-0.292 0.666-0.022 21.323 3.508 24.469 4.052 1.221 0.211 5.586 3.332 6.257 3.876 2.181 1.77 8.826 40.687 9.493 47.978 0.173 1.898-0.892 4.038-2.665 6.159-11.968 0.29-42.068-2.849-48.71-6.492" fill="#888784"/>
  </g>
  <g transform="matrix(.28627 0 0 -.28627 96.443 23.259)">
   <path d="m0 0c-1.663-1.746-6.617-7.343-7.091-8.161s8.255-4.891 9.169-4.309c0.915 0.582 6.319 7.482 7.898 8.812 1.58 1.33 2.411 1.995 2.993 2.744 0.582 0.748-8.064 4.821-9.062 4.156-0.997-0.665-2.743-1.829-3.907-3.242" fill="#b4b4b0"/>
  </g>
  <g transform="matrix(.28627 0 0 -.28627 60.97 23.49)">
   <path d="m0 0c0.155-0.011 15.587-1.243 20.676-1.187 6.955 0.081 25.964 1.404 29.687 1.732 1.25 2.518-0.211 14.565-2 16.959-0.666 0.891-1.587 1.423-2.812 1.325-1.216-7e-3 -21.753-0.847-24.063-0.892-1.697-0.032-1.747 0.167-2.391-0.706-0.269-0.365-0.842-1.194-1.187-1.697-1.659-2.415-2.797-1.534-0.886 1.738-1.064 0.059-16.971 0.232-17.003 0.232-3.467 0-14.595-8.004-14.595-8.004-1.897-1.355-1.905-5.675-1.938-10.951 0 0 2.29 0.202 5.164 0.456l-2.254-2.443c-1.086-0.183-2.2-0.383-3.118-0.43-1.873-0.096-2.107 0.634-2.213 2.255-0.464 7.146 0.659 11.907 3.046 13.613 5.361 3.842 13.132 8.303 16.667 8.187 2.234-0.072 17.02-0.996 17.711-1.019 0.7 0.72 0.803 0.699 2.997 0.743 2.539 0.049 20.285 1.37 21.933 1.371 5.559 6e-3 6.306-0.286 7.942-4.415 2.061-5.2 2.178-16.603 2.058-17-0.1-0.332-0.503-1.286-0.849-1.318-0.233-0.02-24.111-2.147-31.834-2.237-5.044-0.064-19.472 0.375-21.798 1.025z" fill="#0f141b"/>
  </g>
  <g transform="matrix(.28627 0 0 -.28627 70.831 17.818)">
   <path d="m0 0c0.109 3.202-0.521 7.034-0.917 9.062-0.81 4.15-1.571 4.478-5.75 4.714-6.342 0.358-22.479 0.141-22.854 0.141-2.429 0-6.603-3.337-8.354-5.042-1.583-1.542-2.265-9.688-1.952-11.342l2.394 0.88c-0.334 1.768-0.128 6.944 1.519 8.879 1.34 1.572 4.628 4.083 6.393 4.083 0.395 0 16.979 0.608 22.896 0.417 1.504-0.049 3.042-1.375 3.375-2.667 0.706-2.731 0.805-7.117 0.952-9.31z" fill="#0f141b"/>
  </g>
  <g transform="matrix(.28627 0 0 -.28627 62.67 18.053)">
   <path d="m0 0c0.219 1.196 0.251 6.219 0.217 8.78-0.032 2.424-1.558 2.54-2.023-0.167-0.542-3.16 9e-3 -8.279 0.136-8.937z" fill="#0f141b"/>
  </g>
  <g transform="matrix(.28627 0 0 -.28627 61.325 23.928)">
   <path d="m0 0c-0.42 2.167-0.32 10.803 0 14.281 0.234 2.545-1.183 2.787-1.908-0.313-0.964-4.12-0.918-12.296-0.578-14.05z" fill="#0f141b"/>
  </g>
  <g transform="matrix(.28627 0 0 -.28627 61.193 23.808)">
   <path d="m0 0c-0.599 1.377-7.89 2.575-11.167 1.657-2.812-0.788-5.569-4.336-7.518-6.749-2.063-2.555-0.863-3.359 1.768-0.984 1.976 1.783 3.74 3.503 6.694 4.74 1.994 0.835 7.563 0.189 8.383-0.215z" fill="#0f141b"/>
  </g>
  <g transform="matrix(.28627 0 0 -.28627 75.745 23.199)">
   <path d="m0 0c7.83 1.868 12.971 1.947 14.92 0.742 1.926-1.189 4.497-3.088 5.83-5.51 1.824-3.312-0.155-3.412-1.937-1.375-1.669 1.909-3.529 3.198-5.252 4.262-1.021 0.631-8.269-0.119-13.561-0.672z" fill="#0f141b"/>
  </g>
  <g transform="matrix(.28627 0 0 -.28627 45.195 31.076)">
   <path d="m0 0c0.354 2.812 1.031 7.88 1.25 9.089 0.682 2.621 2.091 6.404 4.094 9.442 1.434 2.176 2.343 1.367 1.156-0.687-1.759-3.043-2.963-6.716-3.59-9.121-0.203-1.127-0.99-6.121-1.629-8.91-0.594-2.594-1.594-2.308-1.281 0.187" fill="#0f141b"/>
  </g>
  <g transform="matrix(.28627 0 0 -.28627 44.512 42.951)">
   <path d="m0 0c-1.642 2.386-4.004 5.491-3.997 8.919 5e-3 2.078 3.991 20.737 4.439 22.572 1.12 4.592 2.287 4.426 1.662-0.366-0.241-1.851-4.395-20.313-4.399-22.21-7e-3 -2.895 2.213-5.815 3.59-8.104 1.768-2.936 0.663-3.656-1.295-0.811" fill="#0f141b"/>
  </g>
  <g transform="matrix(.28627 0 0 -.28627 37.113 28.447)">
   <path d="m0 0c0.048-0.015 5.05-1.212 11.261-3.997 5.593-2.507 5.968-6.346 5.142-8.75-0.425-1.236-4.668-14.436-6.704-17.937-2.133-3.666-4.329-4.95-9.25-4.438-6.734 0.701-17.214 5.087-21.188 7.188-2.51 1.327-4.977 4.545-2.687 10.803l2.536 1.009c-2.28-5.021-1.928-8.361 1.049-9.935 4.516-2.388 14.693-6.108 20.565-6.719 3.925-0.404 5.025 0.285 6.912 3.529 1.941 3.338 5.884 15.626 6.313 16.875 0.878 2.557 1e-3 4.86-3.598 6.475-6.119 2.743-10.628 3.446-10.67 3.98z" fill="#0f141b"/>
  </g>
  <g transform="matrix(.28627 0 0 -.28627 35.268 30.561)">
   <path d="m0 0c-1.4-3.712-4.023-11.161-4.624-13.655-0.114-0.473-0.154-1.462 0.095-2.455 1.055-4.21-0.054-4.547-1.605-0.698-0.517 1.284-0.338 2.747-0.143 3.552 0.557 2.312 2.354 7.744 3.74 11.539z" fill="#0f141b"/>
  </g>
  <g transform="matrix(.28627 0 0 -.28627 34.104 21.253)">
   <path d="m0 0c0.943-0.502 2.239-1.057 2.708-1.875 3.5-6.097 9.628-20.215 9-24.531-0.745-5.122-23.651-16.844-24.687-17.094-2.612-0.633-9.965-0.315-12.375 0-2.669 0.349-4.777 2.086-6.656 5.406-1.418 2.505-6.217 12.68-8.625 19.875-2.053 6.133-1.463 8.216 5.375 13.313l2.818-0.328c-8.063-5.802-8.107-6.846-6.256-12.375 2.275-6.795 6.992-16.817 8.459-19.41 1.464-2.586 2.831-4.25 5.12-4.549 0.852-0.111 8.425-1.058 11.765-0.03 2.559 0.787 22.626 11.94 23.165 15.779 0.316 2.246-4.479 16.15-9.158 23.004-0.545 0.798-2.05 1.5-3.149 2.012z" fill="#0f141b"/>
  </g>
  <g transform="matrix(.28627 0 0 -.28627 31.646 21.837)">
   <path d="m0 0c-8.031-3.444-17.762-8.706-19.608-10.169-2.265-1.797-1.952-6.216-0.87-8.583 0.672-1.47 6.398-13.959 8.182-16.184 2.618-3.268 3.459-2.519 1.472 0.85-1.599 2.713-7.44 14.581-8.107 16.041-0.943 2.062-0.952 5.486 0.38 6.543 2.831 2.245 17.454 9.673 24.814 12.13z" fill="#0f141b"/>
  </g>
  <g transform="matrix(.28627 0 0 -.28627 39.872 6.3492)">
   <path d="m0 0c-0.764-8.359-7.193-44.609-9.063-46.729-0.969-0.788-4.957-3.707-5.833-3.858-5.333-0.922-23.157-4.392-24.107-4.448-0.759 0.024-1.442 0.87-2.307 3.09-1.534 3.937-2.878 3.733-2.412-0.454 0.153-1.38 0.321-3.38 0.037-3.584-0.284-0.205-9.781-0.852-12.276 0.608-2.286 1.338-14.276 10.648-15.602 11.937-1.769 1.722-3.025 4.483-2.337 7.475 0.863 3.756 4.444 31.042 4.883 34.921 0.867 7.661 4.724 12.507 10.859 13.643 4.545 0.842 35.679 4.711 38.459 4.09 7.233-1.616 20.225-10.936 19.699-16.691m-19.187 18.687c-3.07 0.712-34.925-3.277-39.501-4.124-6.833-1.266-11.304-6.529-12.25-14.875-0.536-4.735-4.552-31.883-5.208-35.461-0.917-4.998 0.744-7.825 2.792-9.748 1.686-1.583 14.285-11.074 16.163-12.229 0.967-0.595 2.742-0.409 5.464-0.409 2.466 0 5.244 0.252 7.274 0.406 1.597 0.12 2.179 0.631 2.377 1.309h2.058c0.559-0.302 0.783-0.338 1.692-0.21 4.059 0.57 23.798 3.554 24.013 3.591 1.646 0.285 7.371 4.38 7.417 4.417 2.761 2.241 8.832 43.9 9.271 48.708 0.73 7.986-13.644 16.789-21.562 18.625" fill="#0f141b"/>
  </g>
  <g transform="matrix(.28627 0 0 -.28627 25.928 6.0362)">
   <path d="m0 0c2.168 0.839 5.393 1.545 8.024 1.571 3.528 0.034 3.59-1.133 0.246-1.685-2.311-0.381-4.946-0.765-7.624-1.292-2.626-0.515-3.451 0.32-0.646 1.406" fill="#0f141b"/>
  </g>
  <g transform="matrix(.28627 0 0 -.28627 31.55 5.113)">
   <path d="m0 0c4.567 1.024 10.831 1.92 15.413 1.588 4.313-0.313 3.975-1.553 0.344-1.844-3.336-0.266-9.598-0.567-15.436-1.337-3.316-0.437-3.626 0.852-0.321 1.593" fill="#0f141b"/>
  </g>
  <g transform="matrix(.28627 0 0 -.28627 22.583 19.55)">
   <path d="m0 0c-0.297 0.669-0.312 1.466-0.271 2.223 0.367 6.711 1.759 21.111 3.818 28.516 1.625 5.844 2.781 5.812 2.084-0.212-0.817-7.069-3.8-21.007-4.204-28.397-0.029-0.531 0.06-1.081 0.195-1.614 1.153-4.558 0.362-4.99-1.622-0.516" fill="#0f141b"/>
  </g>
  <g transform="matrix(.28627 0 0 -.28627 24.538 13.05)">
   <path d="m0 0c-1.868 1.09-4.586 3.399-6.003 4.91-2.31 2.464-1.405 3.186 1.253 1.34 1.78-1.236 4.505-3.24 6.003-4.837 2.171-2.314 1.448-2.988-1.253-1.413" fill="#0f141b"/>
  </g>
  <g transform="matrix(.28627 0 0 -.28627 23.551 12.639)">
   <path d="M 0,0 C -0.677,0.387 -3.305,4.274 -3.021,4.785 -2.809,5.167 0.792,5.342 1.542,5.167 2.09,5.038 3.998,0.355 3.839,0.128 3.54,-0.3 0.848,-0.485 0,0" fill="#0f141b"/>
  </g>
  <g transform="matrix(.28627 0 0 -.28627 102.95 33.73)">
   <path d="m0 0c1.711 0 7.375 4.717 8.677 6.958 0.543 0.936 1.242 1.986 1.457 2.918l1.354-0.312c0-1.356-0.473-3.403-0.905-4.147-1.213-2.089-7.864-8.083-10.666-8.084-5.821 0.021-21.459 12.625-26.584 19.5-3.001 4.026-6.663 9.542-4.666 12.167 3.637 4.783 12.091 13.292 16.233 16.833l3.6-1.583c-0.399 0.125-0.968-0.319-1.541-0.704-3.792-2.546-12.112-10.972-15.126-15.421-1.172-1.729 0.601-5.154 3.834-9.333 5.833-7.542 19.547-18.776 24.333-18.792" fill="#0f141b"/>
  </g>
  <g transform="matrix(.28627 0 0 -.28627 104.7 21.868)">
   <path d="m0 0c6.554-3.646 13.529-11.76 14.722-13.646 2.446-3.868 2.359-6.914 0.667-9.875-0.478-0.838-6.161-7.961-6.833-8.708-0.438-0.486-1.476-0.75-2.292-0.75-0.739 0-1.225 0.072-2.055 0.227-1.204 0.225-1.669 0.766-1.58 1.898 0.286 3.641 1.292 3.917 1.843 0.417 0.029-0.186 2.314-0.048 2.5 0.083 0.809 0.901 5.573 7.199 5.917 7.792 0.959 1.677 1.315 4.911-0.375 7.583-1.211 1.915-10.761 13.065-17.792 14.979z" fill="#0f141b"/>
  </g>
  <g transform="matrix(.28627 0 0 -.28627 104 21.838)">
   <path d="m0 0c-2.763 0.75-6.071 0.036-7.842-1.509-5.938-5.176-14.528-14.826-14.935-15.332-0.319-0.439-0.965-1.143-1.132-1.902-0.456-2.074-1.296-1.947-1.299 0.129-3e-3 1.375 0.833 2.465 0.92 2.585 0.22 0.302 9.179 10.442 15.328 15.802 0.925 0.806 1.986 1.271 3.003 1.53z" fill="#0f141b"/>
  </g>
  <g transform="matrix(.28627 0 0 -.28627 99.023 3.7012)">
   <path d="m0 0c-3.204-0.362-5.859-2.426-7.125-6-0.974-2.75-6.25-34.047-6.25-41.125 0-5.367 0.826-6.758 6.5-9.5 5.163-2.495 46.478-8.945 51.688-8.563 3.806 0.269 6.309 1.843 8.005 5.95 1.618 3.915 5.96 34.887 5.956 42.488-2e-3 6.6-1.982 9.443-7.288 10.736-4.813 1.173-19.764 4.191-23.59 3.66-0.053-2.906-1.148-4.683-2.396-6.146-1.998-2.342-2.862-1.798-1.521 0.646 0.732 1.335 1.226 3.02 1.339 4.215-0.95 1.069-4.115 2.567-4.839 2.827-2.855 1.022-17.983 1.096-20.479 0.812m25.556-1.021c0.298 0.667 1.174 0.461 2.064 0.519 5.527 0.358 21.193-2.311 24.63-3.644 7.038-2.73 8.622-5.143 8.625-12.541 3e-3 -7.25-4.124-38.886-5.979-43.376-2.409-5.827-3.986-6.859-10.023-7.285-5.049-0.366-46.437 5.266-52.685 8.285-7.866 3.801-8.126 4.98-8.126 11.813 0 6.938 4.982 39.034 6.188 42.438 1.481 4.183 5.372 6.576 9.217 7.011 2.133 0.24 18.969 0.24 22.345-0.97 0.661-0.237 2.325-1.09 3.744-2.25" fill="#0f141b"/>
  </g>
  <g transform="matrix(.28627 0 0 -.28627 99.336 19.075)">
   <path d="m0 0c-0.342 0.5-0.333 1.541-0.375 2.234-0.469 7.782 4.641 39.596 5.855 42.372 1.603 3.665 3.883 4.898 4.364 4.951 3.125 0.344 3.333 0 0.548-1.35-1.4-0.678-2.749-2.901-3.353-4.282-1.123-2.565-5.639-37.547-5.477-41.628 0.019-0.471-0.022-1.443 0.063-1.781 0.565-2.262-0.306-2.443-1.625-0.516" fill="#0f141b"/>
  </g>
  <g transform="matrix(.28627 0 0 -.28627 98.665 15.143)">
   <path d="m0 0c0.749 0.509 2.96 1.893 3.149 1.987 0.594 0.293 1.21 0.416 1.815 0.63 0.354 0.125 2.457 0.418 3.203 0.518 2.021 0.271 2.136-0.063 0.084-1.437-1.041-0.698-2.393-1.892-3.727-2.529-0.65-0.311-1.152-0.42-1.784-0.43-0.199-3e-3 -1.969-0.343-2.209-0.386-2.317-0.415-2.552 0.272-0.531 1.647" fill="#0f141b"/>
  </g>
  <g transform="matrix(.28627 0 0 -.28627 31.331 120.79)">
   <path d="m0 0c2.665 0.083 20.604 13.379 23.165 13.217 2.071-0.131 7.187-8.802 7.751-9.962 1.494-3.071 0.885-3.499-1.187-0.647-5.169 7.116-6.351 8.887-6.87 8.937-1.448 0.141-19.279-13.245-22.875-13.245-3.545 0-10.581 11.372-9.469 15.209 1.339 4.62 17.445 9.996 18.255 13.038 0.1 1.236-8.125 14.248-7.347 19.657 0.802 5.58 16.264 14.258 16.835 16.522-0.238 0.986-9.863 14.194-9.956 17.113-0.09 2.843 10.985 11.417 14.943 10.894 3.317-0.437 10.817-17.812 11.872-18.693 1.978 1.114 9.415 5.774 13.153 7.839 2.54 1.402 2.875 0.75 0.542-1.042-3.88-2.98-13.159-8.64-13.875-8.685-1.75-0.111-8.928 18.302-11.893 18.892-3.014 0.6-12.634-7.176-12.818-9.081-0.094-2.201 9.854-16.036 9.769-17.164-0.226-3.004-16.562-12.379-16.878-16.745-0.432-5.981 8.113-17.756 7.847-19.986-0.415-3.481-18.228-9.79-18.802-12.985-0.541-3.01 5.874-13.144 7.838-13.083" fill="#0f141b"/>
  </g>
  <g transform="matrix(.28627 0 0 -.28627 38.418 111.01)">
   <path d="m0 0c0.941 0.556 9.264 5.437 11.675 5.696 4.719 0.511 9.744-10.069 9.607-12.214-0.173-2.714-7.88-5.554-9.276-8.017-1.843-3.254 7.51-11.729 7.415-15.832-0.116-5.065-11.38-9.398-14.176-8.691-2.436 0.518-6.167 5.544-10.958 15.267l1.492 0.901c6.073-12.155 8.989-14.328 9.851-14.511 3.424-0.858 12.045 4.153 12.091 7.069 0.063 3.975-9.7 12.093-7.177 16.666 1.378 2.496 8.828 5.669 9.039 7.219 0.187 1.376-4.781 10.81-7.727 10.452-1.54-0.165-7.559-3.443-10.991-5.47z" fill="#0f141b"/>
  </g>
  <g transform="matrix(.28627 0 0 -.28627 39.052 112.15)">
   <path d="m0 0c-1.561 0.733-8.092 12.807-7.659 15.013 0.361 1.837 10.038 8.845 11.782 8.529 1.688-0.315 4.115-3.151 5.365-5.464 1.38-2.552 0.492-2.899-1.062-0.594-1.218 1.807-3.519 4.084-4.542 4.37-1.415-0.309-8.796-6.167-9.333-7.523-0.183-1.508 4.818-11.578 6.17-12.775 0.468-0.033 1.778 0.599 6.424 2.991 2.707 1.393 3.395 0.735 0.812-1.063-3.733-2.597-6.594-4.125-7.957-3.484" fill="#0f141b"/>
  </g>
  <g transform="matrix(.28627 0 0 -.28627 39.715 105.82)">
   <path d="m0 0c2.799-4.281 6.68-8.989 8.069-9.131 1.93-0.192 8.84 5.983 9.914 7.529 0.469 0.675-4.462 8.045-3.763 9.25 0.888 1.532 14.826 9.313 14.829 11.583 3e-3 1.556-6.492 12.268-8.776 11.833-2.72-0.538-13.463-8.335-15.919-10.285l-1.058 1.332c0.123 0.098 12.967 9.895 16.647 10.621 4.034 0.811 10.808-11.044 10.808-13.501 0-3.426-13.643-10.489-14.885-12.222 0.035-0.767 4.524-6.923 4.301-8.649-0.256-1.975-9.594-9.192-12.072-9.192-2.094 0-5.792 4.199-9.519 9.902z" fill="#0f141b"/>
  </g>
  <g transform="matrix(.28627 0 0 -.28627 112.89 116.42)">
   <path d="m0 0c-1.48 1.002-3.562 2.633-4.742 3.588-1.32 1.067-0.95 1.657 0.526 0.831 1.386-0.776 3.898-2.682 4.935-3.544 1.781-1.481 1.227-2.193-0.719-0.875" fill="#0f141b"/>
  </g>
  <g transform="matrix(.28627 0 0 -.28627 99.605 116.9)">
   <path d="m0 0c-0.428 2.444 10.65 18.002 11.973 21.184-4.161 3.237-17.131 9.652-17.353 14.18-0.165 3.36 11.008 18.267 10.969 20.815-0.031 2.071-19.346 8.878-19.346 12.854 0 2.534 4.336 11.213 7.467 14.042 1.153 1.038 5.019 0.658 6.444-0.138 3.267-1.824 15.119-9.533 15.922-10.011 1.41 1.588 5.933 7.656 7.83 9.767 2.113 2.353 2.829 1.949 0.917-0.75-5.817-8.208-7.261-10.872-8.535-10.888-1.007-0.013-13.747 8.601-16.963 10.397-1.185 0.66-4.019 0.665-4.49 0.349-3.106-2.808-7.055-10.984-6.892-12.737 0.29-3.101 19.77-9.846 19.342-13.02-0.504-3.732-11.113-17.566-10.969-20.561 0.182-3.761 17.345-12.436 17.426-13.903 0.122-2.23-12.227-19.271-12.054-21.386 0.317-3.861 13.807-9.204 15.371-8.532 2.382 1.024 13.222 21.543 15.138 21.806 1.073 0.147 4.486-2.913 5.553-3.794 2.714-2.242 2.062-3.014-0.969-0.906-1.558 1.083-3.502 2.316-4.357 2.866-1.195-1.288-12.311-20.83-14.776-21.567-2.788-0.833-16.791 5.036-17.648 9.933" fill="#0f141b"/>
  </g>
  <g transform="matrix(.28627 0 0 -.28627 103.07 95.588)">
   <path d="m0 0c1.886 2.868 6.965 10.63 10.74 13.542 0.78 0.601 5.919 0.563 7.051-0.051 3.637-1.976 9.17-6.719 10.033-8.6 1.446-3.15-9.857-16.869-9.861-19.342-5e-3 -2.496 16.422-9.68 17.304-15.074 1.22-7.463-8.44-17.302-7.936-19.381 0.415-1.716 20.154-13.267 20.154-18.178 0-4.439-8.137-11.86-10.172-11.733-2.637 0.166-18.369 12.119-19.75 13.918l1.349 1.035c1.316-1.713 16.471-12.934 18.415-13.254 1.919 0.081 8.414 7.088 8.457 10.022 0.059 4.006-19.968 15.625-20.137 17.95-0.262 3.598 9.07 12.219 7.96 19.251-0.806 5.097-17.258 11.723-17.342 15.543-0.047 2.137 10.747 16.402 10.011 18.538-0.588 1.282-5.598 5.801-9.298 7.811-0.652 0.355-4.431 0.332-5.293 0.125-3.535-2.785-8.582-10.361-10.247-12.895" fill="#0f141b"/>
  </g>
  <g transform="matrix(.28627 0 0 -.28627 101.36 117.62)">
   <path d="m0 0c-0.254 0.073-0.48 2.222-0.171 3.478 0.305 1.236 7.737 12.062 10.341 16.031 1.806 2.753 2.373 2.52 1.063-0.625-1.563-3.75-9.602-14.862-10.041-15.864-0.128-0.291-0.26-0.701-0.349-1.15-0.15-0.762-0.455-1.981-0.843-1.87" fill="#0f141b"/>
  </g>
  <g transform="matrix(.28627 0 0 -.28627 104.56 110.48)">
   <path d="m0 0c-1.78 2.874-17.157 8.276-17.317 12.29-0.217 5.422 11.772 20.162 10.81 22.517-9e-3 0.023-0.042 0.622-1.358 1.86-2.083 1.957-1.583 2.569 0.771 1.062 1.57-1.005 2.212-2.079 2.288-2.953 0.309-3.553-11.374-18.088-10.815-22.357 0.435-3.321 15.532-8.666 16.715-11.825 0.991-2.647 0.298-2.841-1.094-0.594" fill="#0f141b"/>
  </g>
  <g transform="matrix(.28627 0 0 -.28627 100.39 98.81)">
   <path d="m0 0c-1.374 0.617-10.645 4.896-10.622 7.23 0.026 2.598 2.687 5.9 4.83 7.937 2.455 2.333 2.981 1.594 0.959-0.792-1.728-2.039-3.819-5.537-3.871-6.77-0.045-1.058 8.677-5.526 9.703-6.207 3.584-2.377 2.933-3.164-0.999-1.398" fill="#0f141b"/>
  </g>
  <g transform="matrix(.28627 0 0 -.28627 107.43 108.3)">
   <path d="m0 0c-2.02-1e-3 -7.755 4.268-9.67 6.103-1.066 1.02-1.284 1.519-1.284 1.956 0 1.587 4.783 11.933 7.351 11.933 0.898 0 2.433-0.943 3.486-1.802 1.392-1.136 0.772-1.896-0.582-1.026-1.164 0.749-2.671 1.127-2.904 1.127-1.269-0.451-5.479-8.346-5.645-10.132 0.783-1.437 7.936-6.459 9.233-6.459h2e-3c0.572 0.025 1.358 0.634 2.154 1.671 1.894 2.468 3.191 6.414 2.884 7.795-0.115 0.519-0.729 1.696-2.149 3.033-1.567 1.475-0.941 2.27 0.803 0.97 1.413-1.053 2.733-2.406 3.006-3.634 0.497-2.236-1.277-6.701-3.195-9.2-1.152-1.5-2.307-2.286-3.432-2.334-0.019-1e-3 -0.038-1e-3 -0.058-1e-3" fill="#0f141b"/>
  </g>
  <g transform="matrix(.28627 0 0 -.28627 106.91 108.11)">
   <path d="m0 0c-0.155 0-0.312 0.042-0.453 0.131-0.397 0.251-0.516 0.775-0.266 1.173 0.855 1.356 3.073 5.317 3.075 7.331 3e-3 1.431-4.697 5.115-7.288 5.711-0.457 0.105-0.743 0.562-0.637 1.019 0.105 0.458 0.561 0.743 1.019 0.639 2.708-0.624 8.611-4.689 8.608-7.371-5e-3 -2.865-2.997-7.694-3.338-8.236-0.162-0.256-0.438-0.397-0.72-0.397" fill="#0f141b"/>
  </g>
  <g transform="matrix(.28627 0 0 -.28627 34.981 112.58)">
   <path d="m0 0c-1.392 2.141-7.939 13.603-6.601 17.775 0.4 1.243 1.715 2.797 4.153 4.726 2.503 1.981 3.313 1.544 0.813-0.937-1.862-1.848-3.057-3.407-3.346-4.308-0.999-3.11 5.044-13.94 6.169-16.589 1.1-2.592 0.449-3.185-1.188-0.667" fill="#0f141b"/>
  </g>
  <g transform="matrix(.28627 0 0 -.28627 36.418 104.39)">
   <path d="m0 0c2.261 1.984 5.519 4.312 5.595 4.829 0.176 1.203-4.278 7.309-6.667 10.588-1.009 1.386-1.962 2.694-2.672 3.733-1.178 1.726-0.818 4.123 0.258 5.279 2.366 2.542 5.737 3.954 7.299 4.243 2.249 0.416 2.461-0.372 0.333-1.083-2.45-0.819-4.731-2.539-6.387-4.319-0.602-0.647-0.776-2.168-0.098-3.161 0.694-1.017 1.641-2.316 2.642-3.691 5.101-7.002 7.312-10.4 6.933-12.023-0.227-0.974-1.822-2.298-6.392-5.567-3.204-2.291-3.721-1.353-0.844 1.172" fill="#0f141b"/>
  </g>
  <g transform="matrix(.28627 0 0 -.28627 31.355 119.7)">
   <path d="m0 0c-1.928 1.595-4.079 4.651-4.079 7.134 0 3.141 8.503 6.952 12.762 8.931 0.982 0.456 3.456 1.528 3.94 2.083 1.888 2.167 2.321 1.837 0.946-0.85-0.25-0.487-1.192-1.278-4.356-2.731-5.965-2.739-11.725-5.86-11.592-7.39 0.175-2.009 1.936-4.864 3.348-6.396 1.819-1.974 1.239-2.607-0.969-0.781" fill="#0f141b"/>
  </g>
  <g transform="matrix(.28627 0 0 -.28627 59.857 30.438)">
   <path d="m0 0c-0.547-3.664-1.469-18.104-1.048-21.75 0.309-2.684 3.062-5.073 5.11-5.05 2.288 0.025 5.251 1.915 5.532 5.089 0.159 1.793 1.038 18.973 0.573 21.544-0.387 2.136-2.924 4.265-4.823 4.313-1.741 0.045-5-1.844-5.344-4.146" fill="#fff"/>
  </g>
  <g transform="matrix(.28627 0 0 -.28627 76.263 31.011)">
   <path d="m0 0c-0.02 0.917 9.596 6.009 9.901 5 0.541-1.792 1.708-17.321 1.25-20.917-0.271-2.125-2.282-4.659-4.834-5.062-2.375-0.375-5.166 3.354-5.5 5.687-0.333 2.334-0.79 14.031-0.817 15.292" fill="#fff"/>
  </g>
  <g transform="matrix(.28627 0 0 -.28627 66.96 33.681)">
   <path d="m0 0c0.873 0.283 5.293-0.407 8.188 0 2.416 0.34 7.486 1.722 8.869 1.998 1.955 0.391 4.928-1.111 6.13-3.727 0.813-1.767-2.031-4.486-3.375-4.861-4.181-1.167-16.374-1.312-19.187-0.5-5.075 1.466-5.04 5.657-0.625 7.09" fill="#fff"/>
  </g>
  <g transform="matrix(.28627 0 0 -.28627 61.017 37.867)">
   <path d="m0 0c1.809 0.021 4.447 1.531 4.694 4.315 0.163 1.828 1.014 18.93 0.582 21.317-0.322 1.784-2.567 3.578-4.007 3.614-1.484 0-4.223-1.691-4.481-3.421-0.533-3.568-1.455-17.975-1.045-21.528 0.256-2.212 2.604-4.297 4.237-4.297m0-1.701c-2.381 1e-3 -5.692 2.571-6.063 5.785-0.432 3.744 0.632 18.267 1.189 21.992 0.415 2.779 4.001 4.871 6.123 4.871 2.482-0.062 5.275-2.544 5.721-5.012 0.497-2.748-0.235-20.005-0.397-21.823-0.317-3.582-3.718-5.781-6.534-5.813z" fill="#0f141b"/>
  </g>
  <g transform="matrix(.28627 0 0 -.28627 76.508 31.072)">
   <path d="m0 0c0.062-2.081 0.496-12.809 0.803-14.958 0.299-2.095 2.783-5.244 4.525-4.968 2.147 0.339 3.897 2.554 4.123 4.33 0.402 3.151-0.559 16.79-1.106 20.024-1.883-0.484-7.41-3.488-8.345-4.428m-1.112-15.302c-0.299 2.087-0.462 11.83-0.569 14.911-0.045 1.265 0.111 1.408 1.171 2.147 2.037 1.421 6.391 3.754 8.507 4.315 1.535 0.407 1.73 0.378 2.019-1.365 0.613-3.708 1.941-17.114 1.508-20.507-0.308-2.415-2.902-5.327-5.93-5.805-3.329-0.532-6.451 4.518-6.706 6.304" fill="#0f141b"/>
  </g>
  <g transform="matrix(.28627 0 0 -.28627 67.034 33.913)">
   <path d="m0 0c-3.155-0.962-4-4.131 0.605-5.462 2.967-0.857 14.603-0.648 18.723 0.502 1.409 0.394 3.297 2.674 2.831 3.687-1.049 2.28-3.599 3.564-5.191 3.248-0.456-0.091-7.273-1.74-8.918-2.006-3.462-0.56-7.279 0.266-8.05 0.031m0.133-7.096c-6.436 1.86-6.131 6.927-0.652 8.716 1.076 0.351 5.013-0.336 8.332 0.033 2.362 0.264 8.202 2.068 9.638 2.068 2.077 0 5.272-1.494 6.551-4.277 0.937-2.036-1.785-5.363-4.217-6.042-4.259-1.189-16.818-1.316-19.652-0.498" fill="#0f141b"/>
  </g>
  <g transform="matrix(.28627 0 0 -.28627 -20.638 156.31)">
   <g clip-path="url(#clipPath45775)">
    <g transform="translate(464.71 334.96)">
     <path d="m0 0c-0.603 1.69-11.876 9.937-14.73 9.419-2.401-0.437-14.179-5.67-17.844-7.383 5.837-9.889 9.1-18.164 12.812-27.82 0.92 0.445 15.098 7.45 16.02 8.035 0.966 0.616 4.346 16.058 3.742 17.749" fill="#838686"/>
    </g>
   </g>
  </g>
  <g transform="matrix(.28627 0 0 -.28627 -20.638 156.31)">
   <g clip-path="url(#clipPath45955)">
    <g transform="translate(441.31 318.37)">
     <path d="m0 0c1.234-2.988 2.411-6.02 3.633-9.201 0.921 0.444 15.099 7.449 16.021 8.034 0.966 0.616 4.345 16.058 3.742 17.749-0.03 0.085-0.094 0.189-0.175 0.305-3.407-4.023-8.635-11.618-8.635-11.618s-8.731-3.602-14.586-5.269" fill="#676a6a"/>
    </g>
   </g>
  </g>
  <g transform="matrix(.28627 0 0 -.28627 106.81 8.5631)">
   <path d="m0 0c0.434-1.661 4.587-14.485 6.807-19.341 1.107-2.42 1.973-1.549 0.982 0.742-1.836 4.25-6.361 17.305-7.429 20.838-0.712 2.355-0.981 0.142-0.36-2.239" fill="#0f141b"/>
  </g>
  <g transform="matrix(.28627 0 0 -.28627 108 57.381)">
   <path d="m0 0c-2.834-0.516-16.003-7.082-17.511-7.834-0.303-0.152 0.482-1.543 0.785-1.392 2.023 1.011 14.905 6.965 17.464 7.431 2.508 0.456 13.505-7.518 14.042-9.021 0.457-1.337-2.576-15.867-3.565-17.082-1.197-0.748-13.003-6.657-15.559-7.875-0.306-0.145 0.103-1.814 0.409-1.668 2.228 1.06 14.476 7.671 15.88 8.565 1.559 0.992 5.015 17.241 4.484 18.73-0.658 1.842-13.064 10.758-16.429 10.146" fill="#0f141b"/>
  </g>
  <g transform="matrix(.28627 0 0 -.28627 111.79 60.699)">
   <path d="m0 0c-1.154-1.3-4.758-6.244-5.487-7.365-1.741-2.684-1.862-4.637-0.118-1.956 0.69 1.061 6.7 8.578 7.391 9.823 0.735 1.323-0.78 0.63-1.786-0.502" fill="#0f141b"/>
  </g>
  <g transform="matrix(.28627 0 0 -.28627 108.61 63.999)">
   <path d="m0 0c-0.799-0.467-3.917-1.452-6.422-2.241-1.853-0.586-3.452-1.091-4.028-1.352-0.308-0.141 0.2-1.259 0.508-1.119 0.508 0.231 2.151 0.75 3.889 1.299 2.829 0.893 5.208 1.769 6.125 2.303 1.681 0.981 1.608 2.091-0.072 1.11" fill="#0f141b"/>
  </g>
 </g>
</svg>
