<?xml version="1.0" encoding="UTF-8" standalone="no"?>
<svg
   version="1.1"
   viewBox="0 0 267.16 327.56"
   id="svg44446"
   sodipodi:docname="875-noice.svg"
   inkscape:version="1.1.2 (b8e25be8, 2022-02-05)"
   xmlns:inkscape="http://www.inkscape.org/namespaces/inkscape"
   xmlns:sodipodi="http://sodipodi.sourceforge.net/DTD/sodipodi-0.dtd"
   xmlns="http://www.w3.org/2000/svg"
   xmlns:svg="http://www.w3.org/2000/svg">
  <defs
     id="defs44450" />
  <sodipodi:namedview
     id="namedview44448"
     pagecolor="#ffffff"
     bordercolor="#666666"
     borderopacity="1.0"
     inkscape:pageshadow="2"
     inkscape:pageopacity="0"
     inkscape:pagecheckerboard="0"
     showgrid="false"
     inkscape:zoom="1.6421381"
     inkscape:cx="138.5389"
     inkscape:cy="172.3363"
     inkscape:window-width="1296"
     inkscape:window-height="800"
     inkscape:window-x="0"
     inkscape:window-y="25"
     inkscape:window-maximized="0"
     inkscape:current-layer="g44366" />
  <g
     transform="translate(2.498 2.5)"
     id="g44444">
    <g
       transform="translate(0)"
       fill="#fff"
       id="g44366">
      <path
         transform="translate(209.85 -6252.4)"
         d="M-65.832,6532.184a6.777,6.777,0,0,0-3.839,8.55c2.845,6.562,13.436,33.5,17.712,33.064,2.007-1.132,2.616-6.108,4.1-6.98,1.2-.491,8.024,1.572,8.9,1.048s.259-4.888.259-4.888c1.747.176,5.849.176,6.021-.262.225-.563-19.165-22.067-25.824-28.437C-60.258,6532.6-63.6,6531.386-65.832,6532.184Z"
         id="path44226" />
      <path
         transform="translate(223.76 -6363.4)"
         d="M-48.384,6511.74c5.364,4.061,24.4,10.808,39.913,9.424,35.2-3.14,50.9-37.556,44.23-41.089-5.274-2.8-11.644,10.206-47.371,14.523-23.8,2.879-43.454.074-51.951-5.232Z"
         id="path44230" />
      <path
         transform="translate(171.34 -6366.2)"
         d="m-7.965 6495.8c-5.674-7.6-10.922-13.622-14.3-17.462l-30.185 7.332c-2.373 12.5-13.826 32.205-18.321 38.733-10.885 15.8-21.726 50.842-14.655 86.889 5.233 26.7-5.583 40.483-2.094 44.668 3.26 3.918 28.09 0.7 32.1-9.6z"
         id="path44234" />
      <path
         transform="translate(175.04 -6396)"
         d="m-8.825 6480.4c4.386 11.741-5.345 26.687-26.909 32.774-29.663 8.374-46.715 0.591-50.172-12.673-3.495-13.4 9.2-27.005 30.628-33.915 13.89-4.474 40.078-3.246 46.453 13.814z"
         id="path44238" />
      <path
         transform="translate(205.39 -6381)"
         d="m-53.833 6474.4c0.922 2.752-2.416 6.623-7.349 8.281-5.027 1.685-9.888 0.711-10.857-2.174s2.323-6.593 7.349-8.277 9.89-0.715 10.857 2.17z"
         id="path44242" />
      <path
         transform="translate(205.39 -6381)"
         d="M-59.864,6468.934a11.542,11.542,0,0,1,4.99,1.028,6.356,6.356,0,0,1,3.411,3.675,5.963,5.963,0,0,1-.065,3.813,9.4,9.4,0,0,1-1.906,3.185,16.193,16.193,0,0,1-6.951,4.448,17.932,17.932,0,0,1-5.617.957A11.553,11.553,0,0,1-71,6485.012a6.359,6.359,0,0,1-3.413-3.677,6.116,6.116,0,0,1,.024-3.837,9.051,9.051,0,0,1,1.9-3.209,16.369,16.369,0,0,1,7-4.4A17.9,17.9,0,0,1-59.864,6468.934ZM-66,6481.04a12.883,12.883,0,0,0,4.026-.7,11.3,11.3,0,0,0,4.788-3.011c.9-1.021,1.082-1.819.986-2.105-.21-.626-1.565-1.293-3.661-1.293a12.865,12.865,0,0,0-4.029.7,11.511,11.511,0,0,0-4.849,2.977c-.724.815-1.087,1.655-.926,2.138C-69.458,6480.372-68.1,6481.04-66,6481.04Z"
         id="path44244" />
      <path
         transform="translate(176.94 -6358.7)"
         d="M-11.315,6491.343l.031-.635a19.423,19.423,0,0,0-2.873-3.218l-.138-.185-.022.036c-3.829-3.413-9.209-5.829-14.067-5.356-6.949.681-26.521,8.9-44.667,63.861-5.967,18.076-9.944,31.17-11.341,48.5-1.794,22.326-2.391,30.67,4.189,37.862,8.537,9.335,30.432,6.564,45.84,1.862-.628,7.482,2.6,15.135,8.775,16.108,9.028,1.426,12.038-7.5,17.971-19.716,9.6-19.769,19.375-34.161,22.16-66.651C16.859,6536.774,2.123,6510-11.315,6491.343Z"
         id="path44246" />
      <path
         transform="translate(176.97 -6358.7)"
         d="M-9.657,6493.742q-.853-1.223-1.7-2.4l.031-.635a19.423,19.423,0,0,0-2.873-3.218l-.138-.185-.022.036c-3.829-3.413-9.209-5.829-14.067-5.356-6.949.681-26.521,8.9-44.667,63.861-5.968,18.076-9.944,31.17-11.341,48.5-.55,6.865-.988,12.4-1.141,16.994l.1-.069c.172-5.061,7.5-26.348,7.849-27.916,1.572-.876,17.274-7.678,17.449-8.9s-8.2-10.989-9.772-12.388c1.394-1.047,12.91-7.847,12.91-9.245s-5.058-7.156-8.546-10.819c6.086-25.7,22.335-55.778,38.034-56.707C-19.648,6484.836-13.4,6490.01-9.657,6493.742Z"
         id="path44250" />
      <path
         transform="translate(232.2 -6356.2)"
         d="m-15.342 6509.3c-11.15 1.97-33.986-4.467-44.252-8.93l2.77 4.087c5.364 4.06 24.4 10.806 39.913 9.421 24.32-2.168 39.328-19.264 44.086-30.793-9.335 14.585-26.375 23.368-42.517 26.215z"
         id="path44254" />
      <path
         transform="translate(224.1 -6230.1)"
         d="m-61.091 6542.5c-1.372 0.329-2.673 2.294-2.223 2.03 1.2-0.491 9.222 1.528 10.1 1 0.266-0.16 0.394-0.68 0.444-1.324-2.003-0.959-6.53-2.125-8.321-1.706z"
         id="path44258" />
      <path
         transform="translate(230.67 -6232.8)"
         d="m-53.505 6543.1c0.044-0.1-0.347-0.568-0.61-1.088-1.179-0.393-4.986-1.332-5.758-0.656-0.738 0.647-0.328 2.16-0.328 2.16 1.748 0.175 6.524 0.021 6.696-0.416z"
         id="path44262" />
      <path
         transform="translate(209.85 -6251.8)"
         d="m-60.074 6548a18.187 18.187 0 0 0 14-1.27c-1.666-1.816-3.339-3.622-4.933-5.324a8.979 8.979 0 0 1-7.5 1.879c-4.761-0.752-7.762-5.479-8.6-11.03a6.8 6.8 0 0 0-2.566 7.892c2.845 6.562 13.436 33.5 17.712 33.064 0.031-0.02 0.059-0.045 0.091-0.067-4.173-5.489-9.253-20.463-10.472-23.053-1.396-2.96-0.096-2.902 2.268-2.091z"
         id="path44266" />
      <path
         transform="translate(171.34 -6286.8)"
         d="m-87.453 6515.7a120.2 120.2 0 0 0 2.032 16.171c5.233 26.7-5.583 40.485-2.094 44.669 3.26 3.918 28.09 0.7 32.1-9.6l8.947-28.387c-18.5-1.876-32.789-9.437-40.985-22.853z"
         id="path44270" />
      <path
         transform="translate(176.94 -6285.8)"
         d="m-23.933 6536.6c-25.883 3.915-47.162 0.077-60.719-11.831-1.576 19.891-1.8 27.768 4.448 34.6 8.537 9.336 30.432 6.564 45.84 1.865-0.628 7.481 2.6 15.134 8.775 16.106 9.028 1.427 12.038-7.5 17.971-19.716 6.677-13.753 13.439-24.907 17.874-41.36-7.443 9.247-18.287 17.931-34.189 20.336z"
         id="path44274" />
      <path
         transform="translate(176.97 -6280)"
         d="m-85.572 6532.7 0.1-0.069c0.069-2.078 1.35-6.9 2.857-11.958q-1.064-0.825-2.073-1.7c-0.428 5.377-0.756 9.887-0.884 13.727z"
         id="path44278" />
      <path
         transform="translate(176.97 -6280)"
         d="M-85.572,6535.167a2.5,2.5,0,0,1-1.184-.3,2.5,2.5,0,0,1-1.315-2.286c.125-3.756.433-8.082.888-13.844a2.5,2.5,0,0,1,1.549-2.118,2.5,2.5,0,0,1,2.588.432c.621.542,1.28,1.084,1.96,1.612a2.5,2.5,0,0,1,.864,2.689c-2.329,7.821-2.726,10.454-2.755,11.327a2.5,2.5,0,0,1-1.051,1.956l-.1.069A2.5,2.5,0,0,1-85.572,6535.167Z"
         id="path44280" />
      <path
         transform="translate(175.19 -6384.7)"
         d="m-8.76 6469.7c-2.788 13.835-13.092 20.255-26.54 24.571-20.278 6.5-38.068 5.045-51.113-6.916a17.062 17.062 0 0 0 0.363 1.82c3.457 13.262 20.51 21.046 50.172 12.673 21.178-5.98 30.938-20.51 27.118-32.148z"
         id="path44282" />
      <path
         transform="translate(195.22 -6365.6)"
         d="M-55.909,6482.807a85.544,85.544,0,0,1-20.666,3.437c-.125.552-.259,1.112-.416,1.682a41.9,41.9,0,0,0,27.187-.06,31.282,31.282,0,0,0,8.35-4.7c-1.435-1.693-2.735-3.191-3.873-4.492A56.063,56.063,0,0,1-55.909,6482.807Z"
         id="path44286" />
      <path
         transform="translate(205.39 -6380)"
         d="m-53.838 6473.4a3.484 3.484 0 0 0-1.094-1.549c-2.907 5.171-11.163 7.71-17.262 6.356a3.32 3.32 0 0 0 0.15 1.3c0.969 2.885 5.83 3.857 10.857 2.173 4.932-1.655 8.271-5.527 7.349-8.28z"
         id="path44290" />
      <path
         transform="translate(205.39 -6380)"
         d="M-54.933,6469.4a2.5,2.5,0,0,1,1.612.589,5.942,5.942,0,0,1,1.852,2.662c.734,2.192.015,4.742-1.971,7a16.18,16.18,0,0,1-6.952,4.448,17.93,17.93,0,0,1-5.617.957A11.556,11.556,0,0,1-71,6484.027a6.358,6.358,0,0,1-3.413-3.676,5.814,5.814,0,0,1-.274-2.271,2.5,2.5,0,0,1,1-1.828,2.5,2.5,0,0,1,2.037-.437,13.435,13.435,0,0,0,2.9.3c4.973,0,9.869-2.289,11.642-5.441a2.5,2.5,0,0,1,1.734-1.235A2.5,2.5,0,0,1-54.933,6469.4Z"
         id="path44292" />
      <path
         transform="translate(174.15 -6396.6)"
         d="m-86.31 6501.8c-3.589-13.75 9.4-28.221 31.657-35.4 13.214-4.257 41.282-4.088 48.078 14.108 4.467 11.953-5.249 27.754-28.021 34.184-25.249 7.129-47.36 3.803-51.714-12.892zm32.2-33.7c-21.3 6.87-33.373 20.066-30.038 32.844 3.326 12.75 20.1 20.219 49.066 12.041 21.619-6.1 30.256-21.063 26.318-31.6-5.723-15.337-29.872-18.269-45.345-13.288z"
         id="path44294" />
      <path
         transform="translate(210.83 -6366)"
         d="m-67.322 6640.9c-0.8 7.008 1.969 14.824 7.978 15.773 7.34 1.163 10.109-4.974 17.034-19.226 10.019-20.646 19.372-34.854 22.073-66.338 2.279-26.587-11.638-57.341-41.376-91.417l1.782-1.157c29.953 34.38 44.717 65.436 42.4 92.476-2.732 31.908-12.823 47.331-22.682 67.351-5.646 11.466-9.269 22.037-19.541 20.414-6.746-1.067-10.441-9.2-9.947-16.749z"
         id="path44298" />
      <path
         transform="translate(170.56 -6360.5)"
         d="m-53.808 6641c-4.186 10.741-30.2 14.5-33.892 10.057-4.029-4.841 7.259-17.909 1.963-45.278-7.518-38.833 4.4-72.586 14.786-87.672 3.87-5.621 14.855-24.377 17.8-37.035l2.176-0.031c-2.807 12.938-14.3 32.4-18.278 38.178-9.831 14.276-21.907 49.037-14.517 86.215 5.277 26.543-4.886 39.865-2.282 44.271 2 3.379 26.74 0.523 30.591-9.352z"
         id="path44302" />
      <path
         transform="translate(176.13 -6359.4)"
         d="M-11.212,6491.931c-3.179-4.573-10.144-8.956-16.28-8.347-5.58.546-25.242,6.719-43.908,63.254-5.921,17.93-9.906,30.981-11.3,48.3-1.766,21.98-2.429,30.2,3.958,37.189,11.938,13.05,50.425,1.475,59.084-4.4,2.766-1.875,3.842-1.194.835,1.289-6.124,5.044-48.112,19.157-61.448,4.581-6.908-7.557-6.3-16.826-4.536-38.734,1.41-17.512,5.38-31.147,11.341-49.2,19-57.556,39.688-63.636,45.539-64.209,4.248-.418,8.9,1.346,12.466,3.765Z"
         id="path44306" />
      <path
         transform="translate(199.71 -6284.6)"
         d="m-61.418 6529c-1.769-4.012-8.078-9.534-11.647-10.75-2.445-0.837-2.457-1.8 0.225-1.324 4.411 0.778 11.726 7.447 12.882 11.576 0.858 3.081-0.25 3.245-1.46 0.498z"
         id="path44310" />
      <path
         transform="translate(199.71 -6284.6)"
         d="M-59.968,6533.42a3.272,3.272,0,0,1-2.614-1.459,9.6,9.6,0,0,1-1.123-1.977c-1.485-3.368-7.237-8.394-10.166-9.391a8.553,8.553,0,0,1-1.974-.927,2.976,2.976,0,0,1-1.494-3.018,2.767,2.767,0,0,1,1.855-2.15,4.242,4.242,0,0,1,1.439-.221,9.63,9.63,0,0,1,1.641.164c3.6.636,7.426,3.8,8.9,5.138s4.988,4.783,5.952,8.225c.6,2.129.523,3.525-.238,4.528A2.718,2.718,0,0,1-59.968,6533.42Z"
         id="path44312" />
      <path
         transform="translate(209.06 -6252.5)"
         d="M-49.224,6541.485c8.043,8.553,18.843,20.578,18.246,21.551-.5.814-3.673,1.075-5.624.984.266,2.631.113,4.575-.7,5.06-1.113.667-7.631-1.208-9.247-1.046-1.338,1.361-2.454,6.98-4.886,6.98-4.7,0-13.126-21.3-18.493-33.677a8.059,8.059,0,0,1,2.845-9.443l.663,2.223a5.879,5.879,0,0,0-1.644,6.347c.844,1.948,5.864,14.355,10.36,23.27,2.545,5.048,5.27,9.444,6.277,9.245,1.213-.236,2.294-6.226,3.9-6.844,1.5-.592,8.159,1.434,8.828,1.008.5-.322-.178-4.43.141-4.7.628-.531,5.445.27,5.592-.149.138-.387-10.319-11.426-17.881-19.537Z"
         id="path44314" />
      <path
         transform="translate(223.91 -6364.4)"
         d="m-61.875 6492.3c10.3 4.986 29.513 6.6 50.219 4.1 35.858-4.333 41.857-16.586 46.849-14.621s-8.521 36.26-43.892 39.414c-15.03 1.342-33.98-5.223-39.3-9.246l1.25 2.762c8.665 5.888 26.03 9.817 38.212 8.723 35.9-3.2 53.392-38.908 44.492-43.618-6.408-3.395-11.191 10.055-47.806 14.481-25.011 3.022-44.1-0.519-51.648-5.235z"
         id="path44318" />
      <path
         transform="translate(204.67 -6381.6)"
         d="m-72.338 6481.7c-1.141-3.406 2.513-7.8 8.087-9.671 6.355-2.127 11.113 0.134 11.985 2.734 1.044 3.113-2.523 7.6-7.909 9.407-6.611 2.215-11.2 0.4-12.163-2.47zm8.656-7.98c-4.476 1.5-7.584 4.772-6.79 7.147 0.766 2.287 5.27 3.111 9.731 1.614 4.2-1.414 7.412-5.291 6.783-7.155-0.671-2.008-5.216-3.122-9.724-1.606z"
         id="path44322" />
      <path
         transform="translate(204.67 -6381.6)"
         d="M-65.7,6487.631a11.749,11.749,0,0,1-5.615-1.292,6.96,6.96,0,0,1-3.394-3.869,6.963,6.963,0,0,1-.031-4.183,10.144,10.144,0,0,1,2.007-3.626,17.151,17.151,0,0,1,7.686-5.028,17.91,17.91,0,0,1,5.676-.974c4.607,0,8.414,2.123,9.474,5.283.785,2.339.061,5.1-1.986,7.579a16.659,16.659,0,0,1-7.5,4.993A20,20,0,0,1-65.7,6487.631Zm-2.4-7.6a4.581,4.581,0,0,0,2.884.684,11.71,11.71,0,0,0,3.674-.626,10.166,10.166,0,0,0,3.75-2.307,6.243,6.243,0,0,0,1.3-1.694,6.277,6.277,0,0,0-2.955-.595,10.933,10.933,0,0,0-3.445.574,11.181,11.181,0,0,0-4.148,2.388A3.178,3.178,0,0,0-68.094,6480.028Z"
         id="path44324" />
      <path
         transform="translate(186.14 -6442.5)"
         d="m-64.193 6518.6c-2.029-3.048-14.245-21.235-16.671-24.813a0.886 0.886 0 0 1 6e-3 -1.011c1.729-2.471 12.132-14.215 14.386-16.809-2.007-4.243-10.985-23.884-14.145-30.788-1.457-3.179-0.194-3.731 1.3-0.582 3.367 7.08 13.561 28.468 14.858 31.168a0.892 0.892 0 0 1-0.138 0.978c-1.191 1.342-11.622 13.247-14.214 16.664 3.073 4.537 14.411 21.048 16.358 23.971 0.542 0.806-1.305 1.875-1.74 1.222z"
         id="path44326" />
      <path
         transform="translate(115.62 -6360.9)"
         d="m2.046 6504.2c-16.937 22.035-61.851 28.349-88.287 16.4-16.271-7.356-30.966-31.88-27.74-37.337 3.3-5.583 18.306-0.047 24.949 2.268 27.568 9.595 73.98 20.239 90.732 5.932z"
         id="path44330" />
      <path
         transform="translate(183.2 -6277.1)"
         d="m-70.762 6570.8c-7.2-0.915-9.072-16.316-10.641-26.955-1.254-8.488-2.088-23.308 0.175-23.557 3.138-0.349 8.024 7.33 9.072 7.5s5.583-4.886 7.327-4.71 4.536 7.328 5.933 7.675c0.756 0.189 7.69-4.023 8.9-2.616 2.094 2.441-3.664 16.228-5.233 20.416-4.471 11.923-9.159 23.055-15.533 22.247z"
         id="path44334" />
      <path
         transform="translate(185.33 -6274.4)"
         d="m-57.365 6545.9c1.21-3.23 4.908-12.162 5.58-17.2-3.554 1.493-8.875 3.6-9.941 3.066-1.4-0.7-5.061-7.324-6.108-7.324s-5.758 3.838-7.152 3.662-5.536-6.982-6.458-6.459c-1.047 0.6 2.144 35.738 7.918 46.378a5.162 5.162 0 0 0 0.631 0.12c6.374 0.805 11.06-10.323 15.53-22.243z"
         id="path44338" />
      <path
         transform="translate(130.89 -6345.1)"
         d="m-16.887 6489.8c-13.348 11.252-29.575 17.8-57.056 18.058a85.425 85.425 0 0 1-33.3-6.372 35.91 35.91 0 0 0 5.736 3.318c26.371 11.918 71.119 5.665 88.153-16.235-0.501-0.519-1.629-0.374-3.533 1.231z"
         id="path44342" />
      <path
         transform="translate(182.44 -6278)"
         d="m-70.178 6572.8c-7.665-0.975-9.969-16.259-11.691-28.088-0.9-6.086-2.52-24.433 1.222-24.778 3.589-0.339 8.409 7.052 9.422 7.5 0.475-0.255 5.064-4.688 7.152-4.709 2.232 0 4.589 6.349 6.108 7.675 2.223-0.756 7.627-4.2 9.422-2.266 2.726 2.935-4.351 21.141-4.536 21.633-5.486 14.634-10.65 23.858-17.099 23.033zm-9.591-28.221c1.744 11.97 3.751 25.423 9.875 26.206 5.717 0.736 10.328-10.332 14.583-21.681 0.188-0.5 7.205-17.655 5.414-19.492-1.088-0.607-6.958 3.332-8.459 2.875-2.023-0.616-4.645-7.578-5.83-7.662-1.369-0.094-5.383 4.792-7.362 4.708-1.282-0.053-6.649-7.82-8.715-7.5-1.081 0.17-0.906 13.052 0.494 22.547z"
         id="path44346" />
      <path
         transform="translate(114.81 -6361.6)"
         d="m-85.867 6522.4c-18.187-8.242-31.9-33.073-28.4-39 3.439-5.818 17.112-1.3 26.437 1.961 30.6 10.653 71.12 18.844 87.909 7.658 2.826-1.882 3.326-1.068 0.419 1.375-11.763 9.9-47.356 7.317-89.013-7.185-9.469-3.314-21.269-7.094-23.892-2.657-2.576 4.353 10.81 28.6 27.343 36.076 24.292 10.979 67.631 6.351 85.715-14.309 2.113-2.41 3.067-2.379 1.025 0.767-11.206 17.313-56.429 29.417-87.543 15.314z"
         id="path44350" />
      <path
         transform="translate(176.43 -6357)"
         d="M-85,6614.057c-.066-5.6,8.484-31.116,8.671-31.755,4.183-2.062,17.5-7.407,17.574-9.388.063-1.728-6.808-9.724-9.275-12.366,2.563-1.657,12.338-7.529,12.423-9.393.088-1.9-5.667-8.131-8.459-11.083,6.3-26.128,22.191-54.676,37.109-55.555,8.931-.531,15.886,6.755,18.5,9.5l-2.967-5.286c-3.717-3.095-9.137-6.369-15.633-5.986-15.824.931-32.488,30.512-38.85,57.39a.889.889,0,0,0,.219.819c4.87,5.11,7.962,9.071,8.281,10.1-.775,1.091-10.091,7.04-12.144,8.378a1.189,1.189,0,0,0-.088,1.973c2.157,2.131,8.156,9.344,9.028,11.172-1.544,1.231-16.455,8.084-16.9,8.334a.887.887,0,0,0-.438.585c-.078.345-7.734,24.143-7.871,28.081Z"
         id="path44354" />
      <path
         transform="translate(176.43 -6357)"
         d="M-85,6616.557a2.5,2.5,0,0,1-2.456-2.047l-.825-4.479a2.5,2.5,0,0,1-.04-.541c.037-1.064.413-3.594,3.235-13.23,1.641-5.6,3.5-11.538,4.3-14.072.2-.626.369-1.173.416-1.331a3.389,3.389,0,0,1,1.635-2.128h0c.16-.089.37-.189,2.256-1.074,2.152-1.01,5.405-2.536,8.371-3.974,1.787-.867,3.043-1.5,3.925-1.95-.572-.765-1.355-1.769-2.4-3.044-1.86-2.276-3.841-4.539-4.817-5.5a3.836,3.836,0,0,1-1.2-3.141,3.678,3.678,0,0,1,1.683-2.7l.962-.624c1.467-.949,3.923-2.537,6.147-4.032,1.464-.984,2.456-1.679,3.127-2.165a91.438,91.438,0,0,0-6.816-7.842l-.013-.014a3.374,3.374,0,0,1-.827-3.115,132.382,132.382,0,0,1,16.2-39.185,62.618,62.618,0,0,1,11.6-13.939c4.493-3.842,8.977-5.92,13.329-6.176.393-.023.793-.035,1.187-.035,5.488,0,10.936,2.219,16.193,6.6a2.5,2.5,0,0,1,.581.7l2.967,5.286a2.5,2.5,0,0,1-.7,3.235,2.5,2.5,0,0,1-3.3-.288c-2.277-2.393-8.325-8.749-15.757-8.749-.259,0-.522.007-.78.023-3.015.178-6.283,1.782-9.713,4.767A55.95,55.95,0,0,0-46.63,6504.16a126.58,126.58,0,0,0-14.683,35.192c1.827,1.958,3.3,3.625,4.489,5.07,3.167,3.858,3.776,5.528,3.715,6.849a5.264,5.264,0,0,1-2.048,3.413,33.752,33.752,0,0,1-3.18,2.511c-1.916,1.369-4.112,2.782-5.855,3.885,1.167,1.336,2.5,2.921,3.708,4.441,1.162,1.465,2.087,2.723,2.749,3.738,1.1,1.69,1.516,2.74,1.48,3.745-.06,1.575-1.308,2.647-2.389,3.406a32,32,0,0,1-3.565,2.08c-2.694,1.395-6.1,2.919-8.841,4.144-1.234.552-2.347,1.05-3.232,1.461-.759,2.32-2.835,8.684-4.7,15.005-3.093,10.51-3.534,13.863-3.522,14.926a2.5,2.5,0,0,1-2.258,2.518C-84.841,6616.553-84.922,6616.557-85,6616.557Z"
         id="path44356" />
      <path
         transform="translate(191.72 -6383.2)"
         d="M-78.2,6482.373c-1.382-4.714.588-10.684,5.245-11.812,3.673-.895,7.624,2.04,8.843,6.537.541,1.978-.681,2.455-1.307.609-1.463-4.308-4.72-6-7.118-5.417-3.076.746-5,5.517-4.223,9.781C-76.5,6483.5-77.753,6483.9-78.2,6482.373Z"
         id="path44358" />
      <path
         transform="translate(191.72 -6383.2)"
         d="M-77.336,6485.844a3.149,3.149,0,0,1-2.278-1,4.223,4.223,0,0,1-.986-1.765,13.765,13.765,0,0,1-.45-5.332,12.987,12.987,0,0,1,1.612-5.043,10.15,10.15,0,0,1,2.4-2.841,8.838,8.838,0,0,1,3.495-1.731,8.184,8.184,0,0,1,1.931-.231,9.481,9.481,0,0,1,6.223,2.493,12.491,12.491,0,0,1,3.69,6.045,4.138,4.138,0,0,1-.471,3.776,2.875,2.875,0,0,1-2.3,1.149,3.14,3.14,0,0,1-2.371-1.137,5.053,5.053,0,0,1-.948-1.719,6.717,6.717,0,0,0-1.947-3.051,3.024,3.024,0,0,0-1.854-.78,1.525,1.525,0,0,0-.358.041,3.438,3.438,0,0,0-1.844,2.115,8.752,8.752,0,0,0-.51,4.787,3.738,3.738,0,0,1-.717,3.126A3.018,3.018,0,0,1-77.336,6485.844Z"
         id="path44360" />
      <path
         transform="translate(215.68 -6389.3)"
         d="m-66.6 6476.6c-1.485-3.592-0.872-7.764 2.441-8.853 3.289-1.086 5.989 1.758 7.155 5.495 0.531 1.708-0.553 2.094-1.179 0.526-1.325-3.354-3.795-4.974-5.364-4.536-1.769 0.489-2.757 3.729-1.876 6.89 0.418 1.51-0.605 1.869-1.177 0.478z"
         id="path44362" />
      <path
         transform="translate(215.68 -6389.3)"
         d="M-65.765,6480a3.5,3.5,0,0,1-3.148-2.415,10.828,10.828,0,0,1-.17-8.457,6.806,6.806,0,0,1,4.141-3.727,6.966,6.966,0,0,1,2.185-.359,7.269,7.269,0,0,1,5.3,2.445,12.868,12.868,0,0,1,2.833,5.039,3.879,3.879,0,0,1-.37,3.59,2.83,2.83,0,0,1-2.3,1.169h0a3.6,3.6,0,0,1-3.221-2.562l0-.007a5.389,5.389,0,0,0-2.314-2.963,5.273,5.273,0,0,0-.192,3.726,3.8,3.8,0,0,1-.466,3.381A2.85,2.85,0,0,1-65.765,6480Z"
         id="path44364" />
    </g>
    <g
       transform="translate(0)"
       id="g44442">
      <path
         transform="translate(209.85 -6252.4)"
         d="M-65.832,6532.184a6.777,6.777,0,0,0-3.839,8.55c2.845,6.562,13.436,33.5,17.712,33.064,2.007-1.132,2.616-6.108,4.1-6.98,1.2-.491,8.024,1.572,8.9,1.048s.259-4.888.259-4.888c1.747.176,5.849.176,6.021-.262.225-.563-19.165-22.067-25.824-28.437C-60.258,6532.6-63.6,6531.386-65.832,6532.184Z"
         fill="#e6a000"
         id="path44368" />
      <path
         transform="translate(223.76 -6363.4)"
         d="M-48.384,6511.74c5.364,4.061,24.4,10.808,39.913,9.424,35.2-3.14,50.9-37.556,44.23-41.089-5.274-2.8-11.644,10.206-47.371,14.523-23.8,2.879-43.454.074-51.951-5.232Z"
         fill="#30353a"
         id="path44370" />
      <path
         transform="translate(171.34 -6366.2)"
         d="m-7.965 6495.8c-5.674-7.6-10.922-13.622-14.3-17.462l-30.185 7.332c-2.373 12.5-13.826 32.205-18.321 38.733-10.885 15.8-21.726 50.842-14.655 86.889 5.233 26.7-5.583 40.483-2.094 44.668 3.26 3.918 28.09 0.7 32.1-9.6z"
         fill="#30353a"
         id="path44372" />
      <path
         transform="translate(175.04 -6396)"
         d="m-8.825 6480.4c4.386 11.741-5.345 26.687-26.909 32.774-29.663 8.374-46.715 0.591-50.172-12.673-3.495-13.4 9.2-27.005 30.628-33.915 13.89-4.474 40.078-3.246 46.453 13.814z"
         fill="#bbe1e8"
         id="path44374" />
      <path
         transform="translate(205.39 -6381)"
         d="m-53.833 6474.4c0.922 2.752-2.416 6.623-7.349 8.281-5.027 1.685-9.888 0.711-10.857-2.174s2.323-6.593 7.349-8.277 9.89-0.715 10.857 2.17z"
         fill="#fff"
         id="path44376" />
      <path
         transform="translate(176.94 -6358.7)"
         d="M-11.315,6491.343l.031-.635a19.423,19.423,0,0,0-2.873-3.218l-.138-.185-.022.036c-3.829-3.413-9.209-5.829-14.067-5.356-6.949.681-26.521,8.9-44.667,63.861-5.967,18.076-9.944,31.17-11.341,48.5-1.794,22.326-2.391,30.67,4.189,37.862,8.537,9.335,30.432,6.564,45.84,1.862-.628,7.482,2.6,15.135,8.775,16.108,9.028,1.426,12.038-7.5,17.971-19.716,9.6-19.769,19.375-34.161,22.16-66.651C16.859,6536.774,2.123,6510-11.315,6491.343Z"
         fill="#fff"
         id="path44378" />
      <path
         transform="translate(176.97 -6358.7)"
         d="M-9.657,6493.742q-.853-1.223-1.7-2.4l.031-.635a19.423,19.423,0,0,0-2.873-3.218l-.138-.185-.022.036c-3.829-3.413-9.209-5.829-14.067-5.356-6.949.681-26.521,8.9-44.667,63.861-5.968,18.076-9.944,31.17-11.341,48.5-.55,6.865-.988,12.4-1.141,16.994l.1-.069c.172-5.061,7.5-26.348,7.849-27.916,1.572-.876,17.274-7.678,17.449-8.9s-8.2-10.989-9.772-12.388c1.394-1.047,12.91-7.847,12.91-9.245s-5.058-7.156-8.546-10.819c6.086-25.7,22.335-55.778,38.034-56.707C-19.648,6484.836-13.4,6490.01-9.657,6493.742Z"
         fill="#bbe1e8"
         id="path44380" />
      <path
         transform="translate(232.2 -6356.2)"
         d="m-15.342 6509.3c-11.15 1.97-33.986-4.467-44.252-8.93l2.77 4.087c5.364 4.06 24.4 10.806 39.913 9.421 24.32-2.168 39.328-19.264 44.086-30.793-9.335 14.585-26.375 23.368-42.517 26.215z"
         fill="#212226"
         id="path44382" />
      <g
         fill="#c28600"
         id="g44390">
        <path
           transform="translate(224.1 -6230.1)"
           d="m-61.091 6542.5c-1.372 0.329-2.673 2.294-2.223 2.03 1.2-0.491 9.222 1.528 10.1 1 0.266-0.16 0.394-0.68 0.444-1.324-2.003-0.959-6.53-2.125-8.321-1.706z"
           id="path44384" />
        <path
           transform="translate(230.67 -6232.8)"
           d="m-53.505 6543.1c0.044-0.1-0.347-0.568-0.61-1.088-1.179-0.393-4.986-1.332-5.758-0.656-0.738 0.647-0.328 2.16-0.328 2.16 1.748 0.175 6.524 0.021 6.696-0.416z"
           id="path44386" />
        <path
           transform="translate(209.85 -6251.8)"
           d="m-60.074 6548a18.187 18.187 0 0 0 14-1.27c-1.666-1.816-3.339-3.622-4.933-5.324a8.979 8.979 0 0 1-7.5 1.879c-4.761-0.752-7.762-5.479-8.6-11.03a6.8 6.8 0 0 0-2.566 7.892c2.845 6.562 13.436 33.5 17.712 33.064 0.031-0.02 0.059-0.045 0.091-0.067-4.173-5.489-9.253-20.463-10.472-23.053-1.396-2.96-0.096-2.902 2.268-2.091z"
           id="path44388" />
      </g>
      <path
         transform="translate(171.34 -6286.8)"
         d="m-87.453 6515.7a120.2 120.2 0 0 0 2.032 16.171c5.233 26.7-5.583 40.485-2.094 44.669 3.26 3.918 28.09 0.7 32.1-9.6l8.947-28.387c-18.5-1.876-32.789-9.437-40.985-22.853z"
         fill="#212226"
         id="path44392" />
      <path
         transform="translate(176.94 -6285.8)"
         d="m-23.933 6536.6c-25.883 3.915-47.162 0.077-60.719-11.831-1.576 19.891-1.8 27.768 4.448 34.6 8.537 9.336 30.432 6.564 45.84 1.865-0.628 7.481 2.6 15.134 8.775 16.106 9.028 1.427 12.038-7.5 17.971-19.716 6.677-13.753 13.439-24.907 17.874-41.36-7.443 9.247-18.287 17.931-34.189 20.336z"
         fill="#dbdcdc"
         id="path44394" />
      <path
         transform="translate(176.97 -6280)"
         d="m-85.572 6532.7 0.1-0.069c0.069-2.078 1.35-6.9 2.857-11.958q-1.064-0.825-2.073-1.7c-0.428 5.377-0.756 9.887-0.884 13.727z"
         fill="#a2c3c9"
         id="path44396" />
      <path
         transform="translate(175.19 -6384.7)"
         d="m-8.76 6469.7c-2.788 13.835-13.092 20.255-26.54 24.571-20.278 6.5-38.068 5.045-51.113-6.916a17.062 17.062 0 0 0 0.363 1.82c3.457 13.262 20.51 21.046 50.172 12.673 21.178-5.98 30.938-20.51 27.118-32.148z"
         fill="#a2c3c9"
         id="path44398" />
      <path
         transform="translate(195.22 -6365.6)"
         d="M-55.909,6482.807a85.544,85.544,0,0,1-20.666,3.437c-.125.552-.259,1.112-.416,1.682a41.9,41.9,0,0,0,27.187-.06,31.282,31.282,0,0,0,8.35-4.7c-1.435-1.693-2.735-3.191-3.873-4.492A56.063,56.063,0,0,1-55.909,6482.807Z"
         fill="#212226"
         id="path44400" />
      <path
         transform="translate(205.39 -6380)"
         d="m-53.838 6473.4a3.484 3.484 0 0 0-1.094-1.549c-2.907 5.171-11.163 7.71-17.262 6.356a3.32 3.32 0 0 0 0.15 1.3c0.969 2.885 5.83 3.857 10.857 2.173 4.932-1.655 8.271-5.527 7.349-8.28z"
         fill="#dbdcdc"
         id="path44402" />
      <g
         fill="#0d131a"
         id="g44422">
        <path
           transform="translate(174.15 -6396.6)"
           d="m-86.31 6501.8c-3.589-13.75 9.4-28.221 31.657-35.4 13.214-4.257 41.282-4.088 48.078 14.108 4.467 11.953-5.249 27.754-28.021 34.184-25.249 7.129-47.36 3.803-51.714-12.892zm32.2-33.7c-21.3 6.87-33.373 20.066-30.038 32.844 3.326 12.75 20.1 20.219 49.066 12.041 21.619-6.1 30.256-21.063 26.318-31.6-5.723-15.337-29.872-18.269-45.345-13.288z"
           id="path44404" />
        <path
           transform="translate(210.83 -6366)"
           d="m-67.322 6640.9c-0.8 7.008 1.969 14.824 7.978 15.773 7.34 1.163 10.109-4.974 17.034-19.226 10.019-20.646 19.372-34.854 22.073-66.338 2.279-26.587-11.638-57.341-41.376-91.417l1.782-1.157c29.953 34.38 44.717 65.436 42.4 92.476-2.732 31.908-12.823 47.331-22.682 67.351-5.646 11.466-9.269 22.037-19.541 20.414-6.746-1.067-10.441-9.2-9.947-16.749z"
           id="path44406" />
        <path
           transform="translate(170.56 -6360.5)"
           d="m-53.808 6641c-4.186 10.741-30.2 14.5-33.892 10.057-4.029-4.841 7.259-17.909 1.963-45.278-7.518-38.833 4.4-72.586 14.786-87.672 3.87-5.621 14.855-24.377 17.8-37.035l2.176-0.031c-2.807 12.938-14.3 32.4-18.278 38.178-9.831 14.276-21.907 49.037-14.517 86.215 5.277 26.543-4.886 39.865-2.282 44.271 2 3.379 26.74 0.523 30.591-9.352z"
           id="path44408" />
        <path
           transform="translate(176.13 -6359.4)"
           d="M-11.212,6491.931c-3.179-4.573-10.144-8.956-16.28-8.347-5.58.546-25.242,6.719-43.908,63.254-5.921,17.93-9.906,30.981-11.3,48.3-1.766,21.98-2.429,30.2,3.958,37.189,11.938,13.05,50.425,1.475,59.084-4.4,2.766-1.875,3.842-1.194.835,1.289-6.124,5.044-48.112,19.157-61.448,4.581-6.908-7.557-6.3-16.826-4.536-38.734,1.41-17.512,5.38-31.147,11.341-49.2,19-57.556,39.688-63.636,45.539-64.209,4.248-.418,8.9,1.346,12.466,3.765Z"
           id="path44410" />
        <path
           transform="translate(199.71 -6284.6)"
           d="m-61.418 6529c-1.769-4.012-8.078-9.534-11.647-10.75-2.445-0.837-2.457-1.8 0.225-1.324 4.411 0.778 11.726 7.447 12.882 11.576 0.858 3.081-0.25 3.245-1.46 0.498z"
           id="path44412" />
        <path
           transform="translate(209.06 -6252.5)"
           d="M-49.224,6541.485c8.043,8.553,18.843,20.578,18.246,21.551-.5.814-3.673,1.075-5.624.984.266,2.631.113,4.575-.7,5.06-1.113.667-7.631-1.208-9.247-1.046-1.338,1.361-2.454,6.98-4.886,6.98-4.7,0-13.126-21.3-18.493-33.677a8.059,8.059,0,0,1,2.845-9.443l.663,2.223a5.879,5.879,0,0,0-1.644,6.347c.844,1.948,5.864,14.355,10.36,23.27,2.545,5.048,5.27,9.444,6.277,9.245,1.213-.236,2.294-6.226,3.9-6.844,1.5-.592,8.159,1.434,8.828,1.008.5-.322-.178-4.43.141-4.7.628-.531,5.445.27,5.592-.149.138-.387-10.319-11.426-17.881-19.537Z"
           id="path44414" />
        <path
           transform="translate(223.91 -6364.4)"
           d="m-61.875 6492.3c10.3 4.986 29.513 6.6 50.219 4.1 35.858-4.333 41.857-16.586 46.849-14.621s-8.521 36.26-43.892 39.414c-15.03 1.342-33.98-5.223-39.3-9.246l1.25 2.762c8.665 5.888 26.03 9.817 38.212 8.723 35.9-3.2 53.392-38.908 44.492-43.618-6.408-3.395-11.191 10.055-47.806 14.481-25.011 3.022-44.1-0.519-51.648-5.235z"
           id="path44416" />
        <path
           transform="translate(204.67 -6381.6)"
           d="m-72.338 6481.7c-1.141-3.406 2.513-7.8 8.087-9.671 6.355-2.127 11.113 0.134 11.985 2.734 1.044 3.113-2.523 7.6-7.909 9.407-6.611 2.215-11.2 0.4-12.163-2.47zm8.656-7.98c-4.476 1.5-7.584 4.772-6.79 7.147 0.766 2.287 5.27 3.111 9.731 1.614 4.2-1.414 7.412-5.291 6.783-7.155-0.671-2.008-5.216-3.122-9.724-1.606z"
           id="path44418" />
        <path
           transform="translate(186.14 -6442.5)"
           d="m-64.193 6518.6c-2.029-3.048-14.245-21.235-16.671-24.813a0.886 0.886 0 0 1 6e-3 -1.011c1.729-2.471 12.132-14.215 14.386-16.809-2.007-4.243-10.985-23.884-14.145-30.788-1.457-3.179-0.194-3.731 1.3-0.582 3.367 7.08 13.561 28.468 14.858 31.168a0.892 0.892 0 0 1-0.138 0.978c-1.191 1.342-11.622 13.247-14.214 16.664 3.073 4.537 14.411 21.048 16.358 23.971 0.542 0.806-1.305 1.875-1.74 1.222z"
           id="path44420" />
      </g>
      <path
         transform="translate(115.62 -6360.9)"
         d="m2.046 6504.2c-16.937 22.035-61.851 28.349-88.287 16.4-16.271-7.356-30.966-31.88-27.74-37.337 3.3-5.583 18.306-0.047 24.949 2.268 27.568 9.595 73.98 20.239 90.732 5.932z"
         fill="#30353a"
         id="path44424" />
      <path
         transform="translate(183.2 -6277.1)"
         d="m-70.762 6570.8c-7.2-0.915-9.072-16.316-10.641-26.955-1.254-8.488-2.088-23.308 0.175-23.557 3.138-0.349 8.024 7.33 9.072 7.5s5.583-4.886 7.327-4.71 4.536 7.328 5.933 7.675c0.756 0.189 7.69-4.023 8.9-2.616 2.094 2.441-3.664 16.228-5.233 20.416-4.471 11.923-9.159 23.055-15.533 22.247z"
         fill="#e6a000"
         id="path44426" />
      <path
         transform="translate(185.33 -6274.4)"
         d="m-57.365 6545.9c1.21-3.23 4.908-12.162 5.58-17.2-3.554 1.493-8.875 3.6-9.941 3.066-1.4-0.7-5.061-7.324-6.108-7.324s-5.758 3.838-7.152 3.662-5.536-6.982-6.458-6.459c-1.047 0.6 2.144 35.738 7.918 46.378a5.162 5.162 0 0 0 0.631 0.12c6.374 0.805 11.06-10.323 15.53-22.243z"
         fill="#c28600"
         id="path44428" />
      <path
         transform="translate(130.89 -6345.1)"
         d="m-16.887 6489.8c-13.348 11.252-29.575 17.8-57.056 18.058a85.425 85.425 0 0 1-33.3-6.372 35.91 35.91 0 0 0 5.736 3.318c26.371 11.918 71.119 5.665 88.153-16.235-0.501-0.519-1.629-0.374-3.533 1.231z"
         fill="#212226"
         id="path44430" />
      <path
         transform="translate(182.44 -6278)"
         d="m-70.178 6572.8c-7.665-0.975-9.969-16.259-11.691-28.088-0.9-6.086-2.52-24.433 1.222-24.778 3.589-0.339 8.409 7.052 9.422 7.5 0.475-0.255 5.064-4.688 7.152-4.709 2.232 0 4.589 6.349 6.108 7.675 2.223-0.756 7.627-4.2 9.422-2.266 2.726 2.935-4.351 21.141-4.536 21.633-5.486 14.634-10.65 23.858-17.099 23.033zm-9.591-28.221c1.744 11.97 3.751 25.423 9.875 26.206 5.717 0.736 10.328-10.332 14.583-21.681 0.188-0.5 7.205-17.655 5.414-19.492-1.088-0.607-6.958 3.332-8.459 2.875-2.023-0.616-4.645-7.578-5.83-7.662-1.369-0.094-5.383 4.792-7.362 4.708-1.282-0.053-6.649-7.82-8.715-7.5-1.081 0.17-0.906 13.052 0.494 22.547z"
         fill="#0d131a"
         id="path44432" />
      <path
         transform="translate(114.81 -6361.6)"
         d="m-85.867 6522.4c-18.187-8.242-31.9-33.073-28.4-39 3.439-5.818 17.112-1.3 26.437 1.961 30.6 10.653 71.12 18.844 87.909 7.658 2.826-1.882 3.326-1.068 0.419 1.375-11.763 9.9-47.356 7.317-89.013-7.185-9.469-3.314-21.269-7.094-23.892-2.657-2.576 4.353 10.81 28.6 27.343 36.076 24.292 10.979 67.631 6.351 85.715-14.309 2.113-2.41 3.067-2.379 1.025 0.767-11.206 17.313-56.429 29.417-87.543 15.314z"
         fill="#0d131a"
         id="path44434" />
      <path
         transform="translate(176.43 -6357)"
         d="M-85,6614.057c-.066-5.6,8.484-31.116,8.671-31.755,4.183-2.062,17.5-7.407,17.574-9.388.063-1.728-6.808-9.724-9.275-12.366,2.563-1.657,12.338-7.529,12.423-9.393.088-1.9-5.667-8.131-8.459-11.083,6.3-26.128,22.191-54.676,37.109-55.555,8.931-.531,15.886,6.755,18.5,9.5l-2.967-5.286c-3.717-3.095-9.137-6.369-15.633-5.986-15.824.931-32.488,30.512-38.85,57.39a.889.889,0,0,0,.219.819c4.87,5.11,7.962,9.071,8.281,10.1-.775,1.091-10.091,7.04-12.144,8.378a1.189,1.189,0,0,0-.088,1.973c2.157,2.131,8.156,9.344,9.028,11.172-1.544,1.231-16.455,8.084-16.9,8.334a.887.887,0,0,0-.438.585c-.078.345-7.734,24.143-7.871,28.081Z"
         fill="none"
         id="path44436" />
      <path
         transform="translate(191.72 -6383.2)"
         d="M-78.2,6482.373c-1.382-4.714.588-10.684,5.245-11.812,3.673-.895,7.624,2.04,8.843,6.537.541,1.978-.681,2.455-1.307.609-1.463-4.308-4.72-6-7.118-5.417-3.076.746-5,5.517-4.223,9.781C-76.5,6483.5-77.753,6483.9-78.2,6482.373Z"
         fill="#0d131a"
         id="path44438" />
      <path
         transform="translate(215.68 -6389.3)"
         d="m-66.6 6476.6c-1.485-3.592-0.872-7.764 2.441-8.853 3.289-1.086 5.989 1.758 7.155 5.495 0.531 1.708-0.553 2.094-1.179 0.526-1.325-3.354-3.795-4.974-5.364-4.536-1.769 0.489-2.757 3.729-1.876 6.89 0.418 1.51-0.605 1.869-1.177 0.478z"
         fill="#0d131a"
         id="path44440" />
    </g>
  </g>
</svg>
