<?xml version="1.0" encoding="UTF-8"?>
<svg version="1.1" viewBox="0 0 230.28 306.96" xmlns="http://www.w3.org/2000/svg">
 <g transform="translate(-.00044862 .00012516)">
  <g fill="#fff">
   <path transform="translate(-10.261 -6340.3)" d="m20.893 6521.7c0.4 2.612 8.634 17.67 17.871 23.294s20.685 7.028 33.136 4.417l14.861-9.639z"/>
   <path transform="translate(-16.417 -6445.1)" d="m180.61 6670.8c21.457 4.767 35.336 1.274 39.628-6.761 7.831-14.662 23.295-105.16 24.633-114.26 1.354-9.206-1.194-14.094-6.693-20.89-1.907-2.353-20.619-22.755-26.24-26.773-7.409-5.29-12.688-5.957-17.406-7.23-6.962-1.872-117.81-20.885-129.59-22.223-12.291-1.4-17.249 2.857-20.885 12.851-2.651 7.288-25.027 108.75-25.974 120.76-1.047 13.251 8.493 22.71 14.727 24.1 3.308 0.734 147.8 40.429 147.8 40.429z"/>
   <path transform="translate(-7.995 -6342.8)" d="m192.13 6562.7c-1.369-0.75-27.174-10.578-33.6-14.059-4.961-2.684-113.2-23.7-129.59-27.848-3.46-0.874-6.874 1.355-4.686 4.751 0.9 1.413-0.306 1.812-2.291 1.608 0.841 0.406 131.33 36.112 148.33 40.78a116.59 116.59 0 0 0 15.217-0.013 21.51 21.51 0 0 0 6.361-1.205c2.459-0.773 1.693-3.237 0.265-4.014z"/>
   <path transform="translate(82.509 -6421.1)" d="m72.044 6620c-8.471-4.616-8.478-7.554-6.293-18.874 0.96-4.987 21.019-99.472 23.026-108.71 1.963-9.039 11.432-10.725 18.071-6.293 9.365 6.242 23.361 22.265 28.653 29.185 5.089 6.655 4.573 9.208 3.883 14.057-2.01 14.056-16.671 91.373-20.285 100-2.995 7.156-7.24 10.009-13.254 7.231-4.664-2.149-7.468-3.532-33.801-16.598z"/>
   <path transform="translate(82.509 -6421.1)" d="m110.1 6640.1a12.7 12.7 0 0 1-5.3-1.279c-4.782-2.208-7.8-3.7-33.864-16.633l-0.085-0.044c-4.214-2.3-7.246-4.607-8.348-8.425-0.968-3.351-0.313-7.37 0.8-13.118 0.958-4.979 21.18-100.22 23.038-108.77a13.4 13.4 0 0 1 4.865-7.983 13.18 13.18 0 0 1 8.084-2.632 16.336 16.336 0 0 1 8.953 2.772c9.922 6.613 24.242 23.2 29.251 29.746 2.583 3.377 3.981 6.011 4.533 8.539a18.69 18.69 0 0 1-0.112 7.042l-0.05 0.347c-1.047 7.319-5.336 30.72-9.563 52.167-2.379 12.072-4.573 22.7-6.344 30.733-2.149 9.748-3.636 15.543-4.547 17.718a19.987 19.987 0 0 1-4.491 7 9.718 9.718 0 0 1-6.82 2.816zm-36.9-22.369c25.963 12.883 28.976 14.372 33.695 16.551a7.794 7.794 0 0 0 3.205 0.818 4.754 4.754 0 0 0 3.389-1.46 15.464 15.464 0 0 0 3.305-5.286c1.466-3.5 5.427-21.252 10.6-47.486 4.213-21.376 8.483-44.661 9.519-51.907l0.05-0.349c0.626-4.368 0.885-6.175-3.444-11.835-5.4-7.06-19.171-22.7-28.053-28.624a11.286 11.286 0 0 0-6.178-1.932 7.906 7.906 0 0 0-8.064 6.676c-1.856 8.543-22.058 103.68-23.014 108.65-2.085 10.781-2.082 12.325 4.99 16.184z"/>
   <path transform="translate(44.362 -6332.1)" d="m135.89 6525.6c-1.944 0.094-9.772 3.349-18.475 7.1-10.013 4.313-42.917 7.483-62.789 1.807-2.716-0.775-5.5-1.431-8.043-1.97l6.3 100.44c9.1 4.016 23.564-3.883 20.619-4.82s-8.034-7.231-4.017-18.878c4.558-13.216 1-44.333-5-55.361 17.7 9.154 42.545 10.008 51.785 5.691 29.535-13.793 25.706-34.296 19.62-34.008z"/>
   <path transform="translate(-5.892 -6328.5)" d="m76.237 6529.1c-14.664 8.662-31.222 31.248-38.025 51.838-3.414 0-11.447 2.61-12.651 4.218l-2.613 14.256c2.21 3.214 10.844 8.637 18.075 10.245a30.822 30.822 0 0 1 14.461 8.434c1.4 1.608 16.668 14.861 28.315 15.665 16.84 1.159 27.371-5.52 28.515-25.505 0.478-8.368-11.491-72.795-13.254-78.518l-0.084-0.295c-4.93-1.123-9.34-1.83-11.363-2.115-2.813-0.403-7.228 0.267-11.376 1.777z"/>
   <path transform="translate(-15.485 -6296.1)" d="m29.6 6577.3c-5.489 0.136-11.788-34.07-11.11-34.507 1.354-0.872 5.755 4.253 5.755 4.253s2.01-4.552 3.079-4.552 2.41 4.95 2.945 5.085 4.42-3.479 5.089-3.344c2.006 0.4-0.132 32.929-5.758 33.065z"/>
   <path transform="translate(43.229 -6327.2)" d="m49.854 6528.1c-0.166-0.01-0.669-0.158-1.069-0.238 0 0.836 3.564 29.25 4.267 33.268-1.876 1.739-7.13 6.227-7 7.161s8.968 7.765 9.1 8.568-7.765 6.9-7.631 7.563 11.425 9.536 11.582 10.846c0.594 5.029 3.736 16.542-2.341 30.453 3.707-4.109 5.933-10.228 6.424-18.806 0.485-8.369-12.344-77.066-13.332-78.815z"/>
   <path transform="translate(43.229 -6327.2)" d="m48.785 6525.4a2.485 2.485 0 0 1 0.493 0.049c0.226 0.045 0.448 0.1 0.645 0.149 0.074 0.019 0.177 0.044 0.24 0.059a2.5 2.5 0 0 1 1.868 1.252c0.2 0.35 0.368 0.652 1.143 4.248 0.441 2.046 1.029 4.943 1.7 8.377 1.411 7.209 3.109 16.355 4.659 25.092 1.811 10.208 3.328 19.322 4.387 26.354 1.949 12.942 1.812 15.33 1.767 16.114a43.7 43.7 0 0 1-2.14 11.756 24.846 24.846 0 0 1-4.924 8.582 2.5 2.5 0 0 1-4.147-2.676c4.955-11.343 3.43-20.925 2.519-26.651-0.115-0.724-0.218-1.372-0.3-1.965a29.518 29.518 0 0 0-2.237-2.165c-1.314-1.186-2.926-2.567-4.349-3.787-1.123-0.962-2.183-1.871-2.967-2.571-1.26-1.126-1.875-1.71-2.067-2.668a3.032 3.032 0 0 1 0.827-2.579c0.235-0.274 0.544-0.59 0.972-1 0.706-0.67 1.618-1.472 2.584-2.321 0.663-0.583 1.579-1.388 2.317-2.069-0.776-0.691-1.745-1.522-2.5-2.169-1.178-1.01-2.4-2.055-3.337-2.919-1.542-1.414-2.211-2.173-2.36-3.215a3.786 3.786 0 0 1 1.042-2.882 21.643 21.643 0 0 1 1.608-1.742c1.191-1.182 2.658-2.5 3.837-3.561l0.3-0.274c-0.6-4.063-1.8-13.467-2.2-16.568-0.48-3.783-0.955-7.6-1.3-10.468-0.586-4.83-0.586-5.083-0.586-5.287a2.5 2.5 0 0 1 2.5-2.5zm7.343 48.793c-0.428-2.5-0.88-5.093-1.353-7.768q-0.26-1.473-0.527-2.964c-0.252 0.229-0.533 0.481-0.838 0.755-0.962 0.865-2.159 1.941-3.174 2.919-0.418 0.4-0.746 0.732-1 1 0.957 0.877 2.341 2.065 3.3 2.888 1.1 0.946 2.144 1.839 2.959 2.581 0.23 0.21 0.441 0.403 0.633 0.589zm2.781 17.084c-0.551-3.636-1.222-7.82-1.991-12.416-0.064 0.081-0.121 0.149-0.167 0.2a15.275 15.275 0 0 1-1.106 1.149c-0.807 0.772-1.863 1.7-2.884 2.6-0.524 0.46-1.176 1.033-1.751 1.553 0.717 0.627 1.582 1.369 2.353 2.029 1.636 1.4 3.49 2.99 4.944 4.325q0.321 0.29 0.602 0.56z"/>
   <path transform="translate(72.266 -6425.8)" d="m61.467 6488.9c-4.017-6.027-0.6-8.037 4.817-7.231 4.836 0.716 23.095 2.812 25.1 6.426s-3.214 24.3-4.42 27.31c-2.044 5.113-5.449 5.128-7.831 0.6-2.005-3.812-17.194-26.405-17.666-27.105z"/>
   <path transform="translate(72.266 -6425.8)" d="m64.155 6479a17.053 17.053 0 0 1 2.5 0.2c0.519 0.077 1.215 0.172 2.021 0.283 3.261 0.448 8.719 1.2 13.526 2.237a47.422 47.422 0 0 1 6.649 1.853c2.494 0.945 4 2 4.726 3.311 0.742 1.336 0.936 3.436 0.631 6.81a85.171 85.171 0 0 1-1.369 8.779 114.77 114.77 0 0 1-3.546 13.866c-1.91 4.776-4.732 5.49-6.245 5.49-1.371 0-3.988-0.6-6.119-4.652-1.362-2.584-9.859-15.442-17.357-26.615l-0.18-0.268c-2.214-3.322-2.745-6.109-1.579-8.287a5.346 5.346 0 0 1 2.842-2.422 9.64 9.64 0 0 1 3.5-0.585zm25.045 10.333a8.031 8.031 0 0 0-2.613-1.268 48.889 48.889 0 0 0-5.917-1.563c-4.5-0.947-9.425-1.624-12.682-2.071-0.82-0.112-1.528-0.21-2.074-0.291a12.108 12.108 0 0 0-1.763-0.143 3.462 3.462 0 0 0-1.937 0.372c-0.056 0.244 0.072 1.257 1.329 3.142l0.173 0.259c4.708 7.015 15.85 23.695 17.629 27.071 0.833 1.582 1.552 1.968 1.693 1.982 0.149-0.029 0.876-0.524 1.6-2.348a111.97 111.97 0 0 0 3.217-12.654c1.945-9.508 1.471-12.055 1.345-12.488z"/>
   <path transform="translate(34.866 -6399.7)" d="m44.929 6495.5a1.355 1.355 0 0 1-1.688 1.064 1.336 1.336 0 0 1-1.085-1.658 1.358 1.358 0 0 1 1.666-1.068 1.39 1.39 0 0 1 1.107 1.662z"/>
   <path transform="translate(34.866 -6399.7)" d="m43.586 6499.1a4.156 4.156 0 0 1-0.862-0.091h-0.011a3.833 3.833 0 0 1-3-4.623 3.853 3.853 0 0 1 3.784-3.082 4.067 4.067 0 0 1 0.85 0.09 3.89 3.89 0 0 1 3.026 4.634 3.823 3.823 0 0 1-3.786 3.073z"/>
   <path transform="translate(122.61 -6381)" d="m86.3 6504.5a1.47 1.47 0 0 1-2.876-0.6 1.551 1.551 0 0 1 1.744-1.269 1.582 1.582 0 0 1 1.132 1.869z"/>
   <path transform="translate(122.61 -6381)" d="m84.915 6508.1a4.157 4.157 0 0 1-0.876-0.094 3.9 3.9 0 0 1-3.057-4.646v-0.01a4.081 4.081 0 0 1 3.91-3.272 3.833 3.833 0 0 1 0.8 0.085 3.934 3.934 0 0 1 2.635 2 4.214 4.214 0 0 1 0.418 2.84 3.894 3.894 0 0 1-3.83 3.093z"/>
   <path transform="translate(56.134 -6344.6)" d="m55.036 6521.6a1.415 1.415 0 0 1-1.736 1.08 1.4 1.4 0 0 1-1.141-1.68 1.553 1.553 0 0 1 1.744-1.273 1.59 1.59 0 0 1 1.133 1.873z"/>
   <path transform="translate(56.134 -6344.6)" d="m53.642 6525.2a4.191 4.191 0 0 1-0.863-0.091h-5e-3a3.9 3.9 0 0 1-3.063-4.644 4.083 4.083 0 0 1 3.915-3.283 3.833 3.833 0 0 1 0.788 0.082h0.02a3.946 3.946 0 0 1 2.628 2 4.227 4.227 0 0 1 0.421 2.83v0.015a3.9 3.9 0 0 1-3.841 3.091z"/>
   <path transform="translate(16.937 -6428.1)" d="m36.6 6482.3a1.41 1.41 0 0 1-1.735 1.082 1.4 1.4 0 0 1-1.141-1.682 1.55 1.55 0 0 1 1.741-1.269 1.584 1.584 0 0 1 1.135 1.869z"/>
   <path transform="translate(16.937 -6428.1)" d="m35.208 6485.9a4.149 4.149 0 0 1-0.869-0.093 3.99 3.99 0 0 1-2.474-1.626 3.853 3.853 0 0 1-0.591-3.02v-0.01a4.08 4.08 0 0 1 3.908-3.272 3.842 3.842 0 0 1 0.8 0.085 3.939 3.939 0 0 1 2.635 2 4.217 4.217 0 0 1 0.419 2.842v0.01a3.893 3.893 0 0 1-3.828 3.085z"/>
   <path transform="translate(104.9 -6396.4)" d="m77.467 6497.1c-0.172 0.806-0.81 1.405-1.475 1.26a1.522 1.522 0 0 1-0.891-1.84 1.383 1.383 0 0 1 1.535-1.176 1.4 1.4 0 0 1 0.831 1.756z"/>
   <path transform="translate(104.9 -6396.4)" d="m76.192 6500.9a3.443 3.443 0 0 1-0.727-0.078 3.615 3.615 0 0 1-2.494-2.047 4.367 4.367 0 0 1-0.315-2.757 3.938 3.938 0 0 1 3.76-3.178 3.507 3.507 0 0 1 3.225 2.117 4.419 4.419 0 0 1-0.863 4.826 3.614 3.614 0 0 1-2.586 1.117z"/>
   <path transform="translate(2.902 -6367.1)" d="m29.359 6510.6a1.162 1.162 0 0 1-1.347 0.945 1.266 1.266 0 0 1-0.9-1.482 1.178 1.178 0 0 1 1.407-0.883 1.164 1.164 0 0 1 0.84 1.42z"/>
   <path transform="translate(2.902 -6367.1)" d="m28.236 6514a3.591 3.591 0 0 1-3.035-1.675 3.812 3.812 0 0 1-0.535-2.854 3.688 3.688 0 0 1 4.371-2.8 3.554 3.554 0 0 1 2.258 1.563 3.78 3.78 0 0 1 0.506 2.83 3.7 3.7 0 0 1-3.565 2.936z"/>
   <path transform="translate(53.365 -6419.9)" d="m53.1 6485.7a1.165 1.165 0 0 1-1.35 0.948 1.274 1.274 0 0 1-0.9-1.486 1.185 1.185 0 0 1 1.41-0.882 1.168 1.168 0 0 1 0.84 1.42z"/>
   <path transform="translate(53.365 -6419.9)" d="m51.972 6489.2a3.6 3.6 0 0 1-0.75-0.08h-5e-3a3.667 3.667 0 0 1-2.358-1.726 3.789 3.789 0 0 1-0.457-2.722 3.7 3.7 0 0 1 4.37-2.81h0.02a3.593 3.593 0 0 1 2.343 1.726 3.764 3.764 0 0 1 0.409 2.657 3.7 3.7 0 0 1-3.572 2.955z"/>
   <path transform="translate(112.16 -6358.8)" d="m80.752 6514.5a1.162 1.162 0 0 1-1.347 0.949 1.268 1.268 0 0 1-0.9-1.483 1.179 1.179 0 0 1 1.407-0.883 1.161 1.161 0 0 1 0.84 1.417z"/>
   <path transform="translate(112.16 -6358.8)" d="m79.63 6518a3.561 3.561 0 0 1-0.746-0.079 3.617 3.617 0 0 1-2.29-1.6 3.813 3.813 0 0 1-0.532-2.857 3.691 3.691 0 0 1 4.368-2.8h7e-3a3.557 3.557 0 0 1 2.255 1.563 3.776 3.776 0 0 1 0.508 2.822 3.7 3.7 0 0 1-3.57 2.951z"/>
   <path transform="translate(96.621 -6340.1)" d="m73.89 6523.5a1.376 1.376 0 1 1-1.06-1.631 1.38 1.38 0 0 1 1.06 1.631z"/>
   <path transform="translate(96.621 -6340.1)" d="m72.543 6527a3.874 3.874 0 1 1 3.793-3.071v0.019a3.882 3.882 0 0 1-3.789 3.052z"/>
   <path transform="translate(-16.403 -6445.1)" d="m64.922 6472.7c-12.291-1.4-17.249 2.857-20.885 12.851-2.651 7.288-25.027 108.75-25.974 120.76-0.028 0.37-0.047 0.735-0.059 1.1 1.266 3.53 3.038 6.628 4.814 8.068 2.788 2.268 18.284 4.54 22.892 5.223 5.424 0.8 6.024-1.806 1.407-6.026-2.138-1.951-17.071-21.284-17.874-28.111-1.688-14.36 18.074-88.961 20.485-98.4 2.073-8.12 9-10.734 18.878-9.636 5.42 0.6 114.26 19.279 118.28 20.082 3.145 0.627 6.411-1.451 9.322-3.25-0.572-0.143-1.138-0.284-1.691-0.433-6.963-1.878-117.82-20.891-129.6-22.229z"/>
   <path transform="translate(13.773 -6370.2)" d="m32.2 6508.6c-0.275-0.569 22.135-1.141 23.295-0.937 4.551 0.8 27.431 11.979 28.25 12.451 2.545 1.472-24.633 20.746-30.791 19.012-5.223-1.472-18.074-25.035-20.754-30.526z"/>
   <path transform="translate(13.773 -6370.2)" d="m53.858 6505.1a12.5 12.5 0 0 1 2.069 0.08c0.8 0.141 3.209 0.567 16.142 6.543 6.185 2.858 12.34 5.867 12.926 6.205a2.872 2.872 0 0 1 1.308 3.284c-0.27 1.006-1.049 2.373-4.884 5.53a104.7 104.7 0 0 1-8.85 6.425 95.383 95.383 0 0 1-10.066 5.826c-3.757 1.833-6.583 2.723-8.641 2.723a5.858 5.858 0 0 1-1.584-0.2c-2.007-0.565-5.272-2.763-12.777-14.842-4.032-6.49-8.01-13.844-9.546-16.993v-0.01a2.512 2.512 0 0 1 0.135-2.441 3.238 3.238 0 0 1 2.611-1.332c0.511-0.063 1.2-0.124 2.1-0.186 1.536-0.106 3.7-0.213 6.263-0.31 4.491-0.175 9.994-0.304 12.794-0.304zm1.278 5.018c-0.113-0.01-0.445-0.018-1.278-0.018-2.533 0-7.458 0.11-11.711 0.263-2.77 0.1-4.716 0.193-6.078 0.274 1.778 3.355 4.569 8.383 7.616 13.293a100.43 100.43 0 0 0 6.075 8.9c2.7 3.425 3.8 3.845 3.873 3.871a1.138 1.138 0 0 0 0.228 0.017c1.844 0 6.972-1.92 15.354-7.333 3.043-1.965 6.015-4.084 8.369-5.968 1.168-0.935 2.032-1.692 2.652-2.278-2.381-1.163-6.31-3.05-10.442-4.957-10.666-4.924-13.78-5.887-14.657-6.064z"/>
   <path transform="translate(6.215 -6397.6)" d="m55.18 6494.8-0.238 0.224a34.568 34.568 0 0 1-0.272 9.015c-2.269 14.358-9.653 21.3-18.137 19.958a11.54 11.54 0 0 1-7.324-4.377l-0.566 0.539c2.888 3.966 7.03 6.336 12.051 6.059 9.4-0.51 16.064-8.725 15.811-22.96a30.182 30.182 0 0 0-1.325-8.458z"/>
   <path transform="translate(6.215 -6397.6)" d="m55.18 6492.3a2.5 2.5 0 0 1 2.386 1.754 32.594 32.594 0 0 1 1.434 9.154 37.411 37.411 0 0 1-1.124 10.205 23.959 23.959 0 0 1-3.632 7.928 17.757 17.757 0 0 1-5.881 5.263 17.53 17.53 0 0 1-7.539 2.1c-0.307 0.017-0.62 0.026-0.926 0.026a15.391 15.391 0 0 1-7.568-1.947 17.782 17.782 0 0 1-5.712-5.162 2.5 2.5 0 0 1 0.3-3.282l0.566-0.539a2.5 2.5 0 0 1 3.678 0.25 9.05 9.05 0 0 0 5.762 3.468 10.632 10.632 0 0 0 1.654 0.132 10.453 10.453 0 0 0 8.194-4.212c2.623-3.155 4.5-7.926 5.429-13.8a31.968 31.968 0 0 0 0.255-8.361 2.5 2.5 0 0 1 0.772-2.084l0.238-0.224a2.5 2.5 0 0 1 1.714-0.669z"/>
   <path transform="translate(58.321 -6385.4)" d="m78.663 6503.6c-0.094-1.05-0.241-2.083-0.428-3.088a34.8 34.8 0 0 1-0.56 4.731c-2.563 13.574-10.641 22.284-20.563 20.407a13.4 13.4 0 0 1-3.961-1.4 13.837 13.837 0 0 0 11.179 4.119c10.098-0.907 15.54-11.287 14.333-24.769z"/>
   <path transform="translate(58.321 -6385.4)" d="m78.237 6498a2.5 2.5 0 0 1 2.456 2.042c0.209 1.118 0.364 2.236 0.461 3.324a38.953 38.953 0 0 1-0.337 10.079 26.384 26.384 0 0 1-2.9 8.47 18.089 18.089 0 0 1-5.5 6.147 16.286 16.286 0 0 1-7.86 2.785c-0.512 0.045-1.026 0.068-1.53 0.068a16.414 16.414 0 0 1-11.619-4.888 2.5 2.5 0 0 1 2.939-3.986 10.962 10.962 0 0 0 3.225 1.14h7e-3a11.811 11.811 0 0 0 2.192 0.21c7.249 0 13.313-7.311 15.45-18.625a32.39 32.39 0 0 0 0.519-4.389 2.5 2.5 0 0 1 2.325-2.377q0.086 0 0.172 0z"/>
   <path transform="translate(3.717 -6408)" d="m32.886 6509.8c3.051-10.589 8.806-15.909 15.2-15.253 3.864 0.4 7.221 3.652 8.747 7.292-1.525-6.407-5.2-11.044-10.294-11.854-5.689-0.9-16.415 5.9-18.612 19.833-1.91 12.062 2.144 23.114 11.041 24.567-6.814-2.922-9.383-13.123-6.082-24.585z"/>
   <path transform="translate(3.717 -6408)" d="m45.5 6487.4a9.229 9.229 0 0 1 1.438 0.109 13.171 13.171 0 0 1 8 4.681 21.876 21.876 0 0 1 4.331 9.063 2.5 2.5 0 0 1-4.738 1.545c-1.31-3.126-4.065-5.5-6.7-5.771a7.77 7.77 0 0 0-0.795-0.041 8.768 8.768 0 0 0-6.418 3.118 25.509 25.509 0 0 0-5.334 10.382 28.185 28.185 0 0 0-0.728 14.2c0.913 3.669 2.83 6.3 5.4 7.4a2.5 2.5 0 0 1-1.388 4.765c-5.071-0.829-9.145-4.308-11.472-9.8-2.078-4.9-2.659-11.165-1.635-17.628a30.843 30.843 0 0 1 3.042-9.4 26.975 26.975 0 0 1 5.034-6.864c3.669-3.607 8.139-5.759 11.963-5.759zm-14.59 20.314a30.735 30.735 0 0 1 4.915-9.694 23.449 23.449 0 0 0-4.919 9.695z"/>
   <path transform="translate(52.59 -6400.4)" d="m56.576 6515.2c3.082-11.626 10.994-18.31 18.428-16.342 5.4 1.434 8.743 7.65 8.978 15.4l0.019 0.063c0.156-10.506-4.752-19.234-12.295-20.659-8.909-1.681-18.115 7.456-20.56 20.411-2.42 12.812 1.538 24.582 11.7 26.5 0.069 0.014 0.134 0.022 0.2 0.03-9.293-4.139-9.468-14.096-6.47-25.403z"/>
   <path transform="translate(52.59 -6400.4)" d="m69.572 6491a14.029 14.029 0 0 1 2.6 0.243 14.351 14.351 0 0 1 6.2 2.836 18.413 18.413 0 0 1 4.531 5.282 25.536 25.536 0 0 1 2.739 6.955 32.6 32.6 0 0 1 0.863 8.08 2.5 2.5 0 0 1-4.9 0.671l-0.019-0.063a2.5 2.5 0 0 1-0.1-0.632 19.3 19.3 0 0 0-2.224-8.91 8.361 8.361 0 0 0-4.9-4.153 7.708 7.708 0 0 0-1.971-0.258c-2.593 0-5.209 1.289-7.564 3.728a25.212 25.212 0 0 0-5.835 11.1c-1.582 5.968-2.019 10.641-1.334 14.287a10.4 10.4 0 0 0 6.4 8.2 2.5 2.5 0 0 1-1.017 4.783 2.547 2.547 0 0 1-0.3-0.018c-0.1-0.012-0.228-0.029-0.38-0.058a15.693 15.693 0 0 1-7.644-3.739 18.6 18.6 0 0 1-4.76-6.935c-2.124-5.192-2.577-11.85-1.274-18.746a33.3 33.3 0 0 1 7.581-15.986c3.877-4.302 8.601-6.667 13.308-6.667zm1.469 5.121a9.024 9.024 0 0 0-1.469-0.121c-3.273 0-6.678 1.778-9.588 5.008a28.252 28.252 0 0 0-6.382 13.566 36.263 36.263 0 0 0-0.6 5.182q0.434-2.444 1.155-5.164a30.179 30.179 0 0 1 7.072-13.289 18.384 18.384 0 0 1 5.2-3.843 13.955 13.955 0 0 1 4.613-1.34z"/>
   <path transform="translate(14.503 -6378.1)" d="m52.893 6513.3c0.5-0.152 3.917-5.591 5.836-9.351l-0.081-0.021c-2.135-0.429-25.574 9.84-26.105 12.186a0.262 0.262 0 0 0 0 0.05 80.947 80.947 0 0 0 20.35-2.864z"/>
   <path transform="translate(14.503 -6378.1)" d="m32.7 6518.7h-0.16a2.5 2.5 0 0 1-2.491-2.416 2.547 2.547 0 0 1 0.074-0.744 4.91 4.91 0 0 1 2.093-2.592 30.487 30.487 0 0 1 2.97-1.854c2.749-1.544 6.083-3.125 8.4-4.181 3.088-1.408 6.215-2.728 8.808-3.716 4.582-1.747 5.611-1.747 6.105-1.747a3.282 3.282 0 0 1 0.65 0.062c0.049 0.01 0.1 0.021 0.146 0.034l0.081 0.021a2.5 2.5 0 0 1 1.588 3.554c-0.923 1.808-2.253 4.132-3.558 6.218-0.614 0.981-1.173 1.829-1.617 2.451a4.323 4.323 0 0 1-2.162 1.938h-9e-3a83.345 83.345 0 0 1-20.918 2.972zm20.81-10.576c-2.16 0.841-4.689 1.909-7.2 3.044-1.325 0.6-2.593 1.189-3.779 1.762a73.951 73.951 0 0 0 9.017-1.805c0.417-0.568 1.143-1.67 1.962-3.001z"/>
   <path transform="translate(22.192 -6328.5)" d="m70.891 6529.5c-4.93-1.123-9.34-1.83-11.363-2.115-2.81-0.4-7.227 0.267-11.375 1.777a61.438 61.438 0 0 0-11.994 9.688c5.186 12.051 22.807 21.976 41.494 24.782-2.917-16.245-5.871-31.213-6.677-33.838z"/>
   <path transform="translate(22.192 -6328.5)" d="m57.747 6524.8a15.215 15.215 0 0 1 2.129 0.14c1.3 0.184 5.989 0.882 11.569 2.153a2.5 2.5 0 0 1 1.848 1.75l0.078 0.274c0.944 3.107 4.164 19.756 6.74 34.1a2.5 2.5 0 0 1-2.832 2.914 78.714 78.714 0 0 1-14.086-3.472 70.863 70.863 0 0 1-12.618-5.769 50.537 50.537 0 0 1-10.141-7.683 30.3 30.3 0 0 1-6.574-9.342 2.5 2.5 0 0 1 0.52-2.747 63.579 63.579 0 0 1 12.5-10.075 2.522 2.522 0 0 1 0.417-0.2 32.17 32.17 0 0 1 10.45-2.043zm11.123 6.842c-4.729-1.022-8.553-1.591-9.692-1.751h-6e-3a10.177 10.177 0 0 0-1.426-0.09 27.248 27.248 0 0 0-8.523 1.664 56.591 56.591 0 0 0-10.04 7.939c2.546 4.734 7.423 9.364 13.923 13.18a70.394 70.394 0 0 0 21.447 8c-2.592-14.273-4.778-25.201-5.682-28.941z"/>
   <path transform="translate(-4.111 -6337.1)" d="m23.786 6523.2c7.715 5.024 22.229 11.4 21.347 13.6-0.716 1.789-8.353 3.693-15.821 2.529a26.023 26.023 0 0 0 3.3 2.427c8.606 5.235 19.128 6.812 30.591 4.893a60.02 60.02 0 0 1 11.25-8.939c0.369-0.133 0.738-0.258 1.11-0.376-23.309-6.389-43.943-12.03-51.777-14.134z"/>
   <path transform="translate(45.816 -6327)" d="m67.542 6562.8a69.042 69.042 0 0 1-13.514-0.715c-2.917-16.247-5.871-31.215-6.677-33.84l-0.081-0.291c1.929 0.437 3.926 0.929 5.9 1.5 14.461 4.131 35.818 3.574 50.238 1.3-11.057 4.542-25.364 10.035-22.792 13.893 3.42 5.132 32.041 16.724 56.152-9.177-2.895 6.169-9.415 13.23-21.948 19.082-9.24 4.317-34.086 3.463-51.785-5.691a57.993 57.993 0 0 1 4.5 13.941"/>
   <path transform="translate(45.087 -6327.2)" d="m46.927 6527.9c0 0.836 3.564 29.25 4.267 33.268-0.128 0.113-0.269 0.245-0.422 0.387 1.307 0.269 2.623 0.513 3.945 0.712-3.117-17.386-6.252-33.3-6.721-34.128-0.166-0.01-0.669-0.159-1.069-0.239z"/>
   <path transform="translate(45.087 -6327.2)" d="m46.927 6525.4a2.484 2.484 0 0 1 0.493 0.049c0.226 0.045 0.448 0.1 0.645 0.149 0.074 0.019 0.177 0.044 0.24 0.059a2.5 2.5 0 0 1 1.868 1.252c0.258 0.457 0.55 0.975 2.643 11.6 1.286 6.528 2.876 15.026 4.361 23.314a2.5 2.5 0 0 1-2.832 2.913c-1.259-0.189-2.593-0.43-4.078-0.735a2.5 2.5 0 0 1-1.724-3.583c-0.593-3.948-1.827-13.612-2.227-16.765-0.48-3.783-0.955-7.6-1.3-10.468-0.586-4.83-0.586-5.083-0.586-5.287a2.5 2.5 0 0 1 2.5-2.5z"/>
   <path transform="translate(-4.861 -6283.5)" d="m86.716 6578.5c-16.643 0.231-30.044-13.157-33.87-15.394-6.427-3.758-14.054-2.942-20.085-6.558-2.71-1.628-5.652-4.816-8.059-8.153-0.325 2.66-0.747 5.31-1.269 7.68a41.16 41.16 0 0 0 16.558 8.572 30.822 30.822 0 0 1 14.461 8.434c1.4 1.608 16.668 14.862 28.315 15.663 16.19 1.12 26.546-5.023 28.337-23.259-5.289 7.833-16.333 12.905-24.388 13.015z"/>
   <path transform="translate(50.517 -6271.9)" d="m55.727 6553.9a24.057 24.057 0 0 1-2.782 3.376 43.43 43.43 0 0 1-3.464 13.186c3.376-3.742 5.519-9.154 6.246-16.562z"/>
   <path transform="translate(50.517 -6271.9)" d="m55.727 6551.4a2.5 2.5 0 0 1 2.487 2.745 40 40 0 0 1-2.282 10.3 24.336 24.336 0 0 1-4.6 7.689 2.5 2.5 0 0 1-4.146-2.677 41.21 41.21 0 0 0 3.267-12.433 2.5 2.5 0 0 1 0.706-1.506 21.605 21.605 0 0 0 2.494-3.024 2.5 2.5 0 0 1 2.074-1.094z"/>
   <path transform="translate(-9.587 -6296.1)" d="m22.895 6548.9c0.619 0.058 1.322-0.649 1.941-1.523a0.865 0.865 0 0 1-0.469 0.182c-0.535-0.135-1.872-5.085-2.945-5.085a0.49 0.49 0 0 0-0.213 0.052c0.248 2.572 0.639 6.268 1.686 6.374z"/>
   <path transform="translate(-15.021 -6295.9)" d="m22.84 6548.2c1.232 0 1.947-1.841 2.157-3.753-0.672 1.182-1.219 2.417-1.219 2.417s-3.373-3.927-5.124-4.319c1.246 2.507 3.046 5.655 4.186 5.655z"/>
   <path transform="translate(-11.992 -6294.9)" d="m31.861 6543.1a1.863 1.863 0 0 0-0.9 0.418c-0.2 6.989-2.119 23.422-6.327 23.945-1.607 0.2-3.614-0.2-4.551-1.785 1.857 5.892 4 10.537 6.024 10.487 5.626-0.136 7.764-32.665 5.754-33.065z"/>
   <path transform="translate(-10.899 -6340.2)" d="m69.058 6550.8c-10.1 1.557-21.185 0.3-30.257-5.22-9.215-5.609-17.759-20.9-18.209-23.83l2.313 1.52c2.2 4.8 9.19 16.257 16.852 20.922 8.481 5.162 19.081 6.775 30.757 4.7z"/>
   <path transform="translate(76.634 -6463.7)" d="m64.026 6506.5c1.651-2.7 3.582-5.326 4.117-5.623 1.272-0.422 10.322-2.072 13.8-2.592a0.794 0.794 0 0 0 0.5-0.334c1.447-2.174 11.776-26.087 14.5-32.342 0.932-2.143-0.325-2.673-1.25-0.55-2.6 5.977-12.951 28.059-14.8 31.3-2.007 0.3-12.238 2.2-13.754 2.71-1.078 0.362-3.854 4.455-5.374 6.981z"/>
   <path transform="translate(-17.492 -6446.2)" d="m182.76 6671.4a75.545 75.545 0 0 0 18.24 1.964c9.669-0.368 17.037-3.577 19.709-8.582 7.878-14.743 23.489-106.75 24.561-114.04 1.3-8.828-1.078-13.6-6.549-20.356-2.116-2.612-20.653-22.755-26.105-26.648-6.787-4.848-12.232-5.793-17.187-7.127-6.746-1.818-118.09-20.907-129.49-22.206-12.575-1.428-16.917 3.472-20.168 12.409-2.757 7.583-25.017 108.99-25.933 120.58-1.044 13.231 8.537 22.119 14.2 23.375 0.969 0.216 49.863 13.508 55.918 14.452l-1.979 1.613c-9.2-1.875-54.1-14.079-55-14.279-6.074-1.349-16.5-11.82-15.4-25.84 0.916-11.62 23.245-113.33 26.011-120.94 3.4-9.338 9.084-15.181 22.492-13.654 12.182 1.384 122.48 20.3 129.69 22.242 6.765 1.823 11.36 2.918 18.309 7.88 5.739 4.1 24.733 24.874 26.374 26.9 5.727 7.074 8.334 12.767 6.962 22.1-1.075 7.307-16.749 99.59-24.708 114.49-3.382 6.335-11.888 9.4-21.613 9.887-7.571 0.382-17.649-2.062-21.019-2.81z"/>
   <path transform="translate(2.808 -6409)" d="m39.352 6536.3c-9.425-1.488-13.817-13.069-11.851-25.5 2.244-14.218 13.951-22.256 20.085-21.286 8.3 1.312 13.876 13.268 11.848 26.106-2.523 15.956-11.876 21.972-20.082 20.68zm-9.837-25.379c-1.76 11.118 1.719 22.4 10.531 23.794 7.052 1.116 14.967-4.274 17.356-19.387 1.91-12.079-2.507-22.479-10.059-23.674-4.427-0.691-15.559 4.887-17.828 19.266z"/>
   <path transform="translate(2.808 -6409)" d="m41.517 6539a16.465 16.465 0 0 1-2.554-0.2c-5.313-0.839-9.609-4.431-12.1-10.114-2.236-5.1-2.887-11.586-1.833-18.25a31.4 31.4 0 0 1 3.238-9.787 29.893 29.893 0 0 1 5.415-7.325c4.03-3.984 8.836-6.362 12.855-6.362a9.22 9.22 0 0 1 1.437 0.109 13.325 13.325 0 0 1 6.929 3.445 20.463 20.463 0 0 1 4.751 6.714 30.015 30.015 0 0 1 2.429 8.8 35.789 35.789 0 0 1-0.184 10.01 39.332 39.332 0 0 1-2.891 10.045 25.6 25.6 0 0 1-4.735 7.183 18.938 18.938 0 0 1-6.064 4.315 16.54 16.54 0 0 1-6.693 1.417zm5.045-44.873c-1.8 0-4.919 1.206-7.835 3.9a22.423 22.423 0 0 0-6.744 13.313 27.956 27.956 0 0 0 1.153 14.229c1.08 2.705 3.223 6.064 7.3 6.707a9.058 9.058 0 0 0 1.4 0.111 10.065 10.065 0 0 0 7.549-3.733c2.692-3.032 4.61-7.764 5.546-13.686 1.663-10.517-1.916-19.853-7.978-20.814a2.658 2.658 0 0 0-0.391-0.023z"/>
   <path transform="translate(51.69 -6401.3)" d="m63.365 6542.7c-9.891-1.87-15.333-13.911-12.651-28.116 2.7-14.31 13.467-22.917 22.091-21.289 9.259 1.75 15.561 14.613 13.051 27.915-3.1 16.422-13.681 23.153-22.491 21.49zm-10.65-27.568c-2.532 13.414 2.054 23.986 11.157 25.7 8.84 1.67 17.14-5.969 19.763-19.863 2.373-12.564-2.632-24.095-11.154-25.705-7.593-1.433-17.306 6.844-19.766 19.868z"/>
   <path transform="translate(51.69 -6401.3)" d="m66.006 6545.4a16.773 16.773 0 0 1-3.1-0.289c-5.613-1.061-10.178-4.918-12.856-10.862-2.544-5.645-3.178-12.81-1.788-20.174a35.365 35.365 0 0 1 3.247-9.582 30.108 30.108 0 0 1 5.267-7.379 23.53 23.53 0 0 1 6.6-4.808 16.864 16.864 0 0 1 7.3-1.753 14.024 14.024 0 0 1 2.595 0.24 15.5 15.5 0 0 1 7.5 3.824 22.469 22.469 0 0 1 5.229 7.183 30.363 30.363 0 0 1 2.657 9.328 34.062 34.062 0 0 1-0.346 10.5 39.832 39.832 0 0 1-3.348 10.29 28 28 0 0 1-5.251 7.438 19.526 19.526 0 0 1-13.706 6.044zm4.727-47.84c-2.926 0-6.23 1.718-9.064 4.715a26.63 26.63 0 0 0-6.5 13.275c-1.133 6-0.759 11.6 1.052 15.779 1.18 2.72 3.546 6.143 8.111 7a10.469 10.469 0 0 0 1.934 0.184c3.219 0 6.29-1.545 8.882-4.468 2.876-3.242 4.959-7.94 6.025-13.586a26.907 26.907 0 0 0-1.328-15.5c-1.769-4.077-4.551-6.664-7.833-7.284a6.932 6.932 0 0 0-1.28-0.116z"/>
   <path transform="translate(5.949 -6405.3)" d="m39.021 6531.6c-6.255-1.726-10.747-11.888-7.23-24.1 2.917-10.119 8.275-14.6 13.657-14.058 4.667 0.48 8.806 4.58 9.294 8.781l-0.86-5.836a11.4 11.4 0 0 0-7.956-5.219c-6.94-0.727-12.885 5.168-15.93 15.742-3.36 11.67-0.638 20.581 4.589 24.321z"/>
   <path transform="translate(5.949 -6405.3)" d="m39.024 6534.1q-0.1 0-0.209-0.01l-4.436-0.368a2.5 2.5 0 0 1-1.248-0.458 15.021 15.021 0 0 1-4.076-4.472 20.335 20.335 0 0 1-2.425-6.21 33.725 33.725 0 0 1 0.965-16.363 38.553 38.553 0 0 1 2.8-7.148 24.884 24.884 0 0 1 3.829-5.516 14.376 14.376 0 0 1 10.557-4.946 13.5 13.5 0 0 1 1.4 0.073 13.8 13.8 0 0 1 9.766 6.3 2.5 2.5 0 0 1 0.406 1.041l0.788 5.347c0.033 0.188 0.06 0.377 0.082 0.565a2.5 2.5 0 0 1-4.957 0.652l-0.061-0.413a8.419 8.419 0 0 0-7.011-6.245c-0.2-0.021-0.41-0.031-0.612-0.031-4.288 0-8.173 4.6-10.392 12.294-1.8 6.266-1.428 12.6 1.007 16.953a7.955 7.955 0 0 0 4.486 4.043 2.5 2.5 0 0 1-0.663 4.91z"/>
   <path transform="translate(55.133 -6397.4)" d="m80.783 6503.8c-1.585-4.439-4.467-7.57-8.146-8.547-9.134-2.423-16.5 6.4-19.266 16.824-3.445 13-1.722 21.346 5.277 25.413l3.686-0.069c-8.328-3.243-10.478-11.131-6.827-24.9 2.695-10.159 9.331-17.418 16.668-15.459 4.914 1.3 8.35 6.61 8.584 14.275z"/>
   <path transform="translate(55.133 -6397.4)" d="m69.6 6492.4a14.364 14.364 0 0 1 3.672 0.488 12.737 12.737 0 0 1 6.035 3.675 18.2 18.2 0 0 1 3.825 6.448 2.5 2.5 0 0 1 0.146 0.849l-0.025 7.534a2.5002 2.5002 0 0 1-5 0.068 16.933 16.933 0 0 0-2.169-8.295 7.747 7.747 0 0 0-4.554-3.64h-6e-3a6.814 6.814 0 0 0-1.754-0.236c-2.92 0-5.276 1.986-6.74 3.651a25.854 25.854 0 0 0-5.112 10.27c-1.7 6.423-2.068 11.5-1.084 15.1a9.709 9.709 0 0 0 6.4 6.833 2.5 2.5 0 0 1-0.86 4.829l-3.686 0.069h-0.047a2.5 2.5 0 0 1-1.256-0.338 15.9 15.9 0 0 1-7.747-11.012 28.062 28.062 0 0 1-0.379-7.88 53.5 53.5 0 0 1 1.689-9.323 32.71 32.71 0 0 1 6.689-13.1c3.473-3.919 7.609-5.99 11.963-5.99z"/>
   <path transform="translate(13.632 -6378.9)" d="m54.231 6537.5c-9.059-2.156-22.532-18.93-22.088-20.883 0.713-3.146 25.674-13.466 27.712-13.052 5.617 1.123 26.805 21.237 25.3 25.3-1.54 4.165-26.704 9.643-30.924 8.635zm-20.131-20.549c0.372 1.948 12.438 17.021 20.622 18.882 3.676 0.84 27.415-4.734 28.528-7.739 0.947-2.512-18.146-21.649-23.861-22.788-3.189 1e-3 -24.139 9.672-25.289 11.645z"/>
   <path transform="translate(13.632 -6378.9)" d="m55.66 6540.2a8.794 8.794 0 0 1-2.01-0.19c-5.877-1.4-12.45-7.638-15.845-11.233a67.7 67.7 0 0 1-5.708-6.846c-2.342-3.282-2.652-4.649-2.393-5.79a5.229 5.229 0 0 1 2.169-2.865 27.769 27.769 0 0 1 3.227-2.094c2.9-1.661 6.493-3.341 8.994-4.458 3.2-1.429 6.511-2.789 9.332-3.831 4.772-1.762 5.831-1.762 6.283-1.762a3.219 3.219 0 0 1 0.636 0.061c1.514 0.3 3.565 1.4 6.269 3.357a87.98 87.98 0 0 1 7.523 6.221c4.508 4.122 10.14 9.983 12.427 14.07 0.718 1.284 1.6 3.2 0.941 4.972-0.6 1.629-2.334 2.987-5.609 4.408a66.694 66.694 0 0 1-8.838 2.951c-6.626 1.783-13.78 3.029-17.398 3.029zm-0.393-6.727a3.227 3.227 0 0 0 0.481 0.024c2.4 0 8.252-1.062 13.924-2.524 2.954-0.762 5.61-1.564 7.68-2.32a24.435 24.435 0 0 0 2.976-1.266 31.247 31.247 0 0 0-2.539-3.287c-1.814-2.117-4.192-4.6-6.7-6.986a88.8 88.8 0 0 0-7.415-6.406 18.9 18.9 0 0 0-4.491-2.785 28.552 28.552 0 0 0-4.069 1.35c-2.179 0.842-4.911 2.007-7.694 3.282-2.765 1.266-5.431 2.572-7.506 3.676-1.176 0.625-2.005 1.1-2.586 1.458 0.337 0.485 0.79 1.1 1.386 1.861a71.145 71.145 0 0 0 4.977 5.65c4.52 4.61 8.737 7.625 11.576 8.273z"/>
   <path transform="translate(-4.936 -6327.2)" d="m98.706 6528.3c1.635 5.312 13.942 70.617 13.454 79.151-1.178 20.635-12.673 26.837-29.369 25.688-12.173-0.841-27.521-14.454-28.781-15.9a29.961 29.961 0 0 0-14.092-8.219 41.778 41.778 0 0 1-16.521-8.3l0.294-1.7a39.909 39.909 0 0 0 16.524 8.662 31.567 31.567 0 0 1 14.823 8.652c1.066 1.218 16.243 14.633 27.849 15.43 16.43 1.146 26.671-5.383 27.787-24.86 0.481-8.468-11.951-73.8-13.576-79.082z"/>
   <path transform="translate(-15.894 -6296.8)" d="m29.974 6578.7c-6.862-0.052-12.867-35.047-11.547-35.9 1.141-0.734 3.554 0.851 6.024 3.546 0.957-2 2.2-4.136 3.279-4.149 1.507-0.021 2.813 4.641 3.214 5.022 0.847-0.474 4.264-3.686 5.12-3.516 2.935 0.591 1.107 35.045-6.039 34.992zm-10.441-34.556c-0.238 0.13 1.532 10.147 3.314 16.983 2.157 8.28 4.955 16.2 7.127 16.2h0.016c2.57-0.062 4.4-8.72 5.277-17.032 0.685-6.465 0.619-14.442 0.238-14.559-0.325-0.1-4.173 3.346-4.992 3.215-1.007-0.16-2.332-5.028-2.829-5.041-0.391-0.01-2.441 4.487-2.932 4.516-0.461 0.038-4.909-4.453-5.219-4.282z"/>
   <path transform="translate(27.952 -6277.8)" d="m48.157 6552.7c-2.144 0.381-5.783 2.261-7.865 3.647-1.513 1.01-2.154 0.551-0.231-1.054 2.135-1.776 6.174-4.14 8.787-4.167z"/>
   <path transform="translate(27.952 -6277.8)" d="m48.848 6548.6a2.5 2.5 0 0 1 2.289 3.505l-0.691 1.573a2.5 2.5 0 0 1-1.852 1.456 25.121 25.121 0 0 0-6.916 3.267 4.761 4.761 0 0 1-2.6 0.954 2.671 2.671 0 0 1-2.553-1.751 2.943 2.943 0 0 1 0.576-2.895 8.641 8.641 0 0 1 1.355-1.362 26.282 26.282 0 0 1 4.682-3.048 13.349 13.349 0 0 1 5.681-1.7z"/>
   <path transform="translate(-3.509 -6332.8)" d="m24.069 6589.5c1.794-1.364 8.537-3.615 11.76-3.615a0.683 0.683 0 0 0 0.647-0.47c7.027-21.264 23.767-43.165 37.884-51.551 0.944-0.559 7.015-2.142 10.772-1.607a142.38 142.38 0 0 1 17.18 3.6c19.234 5.5 52.529 2.782 63.248-1.836 5.227-2.253 16.108-6.938 18.237-7.043 4.751-0.255 9.031 19.176-19.938 32.7-10.385 4.853-43.051 3.121-59.985-11.523-1.516-1.31-2.266-0.989-0.572 0.764 12.257 12.672 46.821 18.935 61.182 12.316 30.794-14.187 26.437-36.364 19.147-36.01-1.976 0.094-8.8 3-18.612 7.227-9.356 4.032-42.035 7.65-62.251 1.875a153.43 153.43 0 0 0-17.406-3.747c-2.657-0.378-8.384 0.6-10.978 1.736-10.735 4.7-31.473 26.707-39.334 51.876a31.86 31.86 0 0 0-10.869 3.417z"/>
   <path transform="translate(48.363 -6313.2)" d="m61.672 6535.6c5.7 11.632 9.184 41.881 4.62 55.124-3.5 10.157 0.413 16.755 3.614 17.774 1.1 0.35 1.41 1.485-0.4 2.909-4.7 3.708-14.82 6.137-21.038 3.393l0.694-1.337c6.743 2.973 17.978-1.408 19.909-3.624-4.248-1.686-8-8.743-4.229-19.672 4.711-13.661 0.672-45.79-5.424-55.646z"/>
   <path transform="translate(29.052 -6282.3)" d="m40.486 6588.1c-2.945-2.41 0.635-16.013 3.479-24.232 2.41-6.962 8.034-15.132 9.506-14.863s1.472 7.632 2.141 7.9 7.08-2.4 7.9-1.875c1.472 0.937-1.2 6.561-0.535 6.826s7.1-1.2 7.631-0.4c0.8 1.2-8.115 11.434-10.175 13.254-2.276 2.008-16.124 16.517-19.947 13.39z"/>
   <path transform="translate(43.556 -6278.2)" d="m46.332 6558.6c0.46 0.459 3.385-0.153 5.6-1.151a16.89 16.89 0 0 1-3.464 0.347c-0.669-0.265 2.007-5.891 0.535-6.827a0.654 0.654 0 0 0-0.306-0.062c-1.589 2.866-2.912 7.147-2.365 7.693z"/>
   <path transform="translate(43.556 -6278.2)" d="m47.009 6561.3a3.367 3.367 0 0 1-2.444-0.887c-1.224-1.224-0.981-3.076-0.239-5.48a28.843 28.843 0 0 1 2.191-5.194 2.494 2.494 0 0 1 2.269-1.284 3.012 3.012 0 0 1 1.577 0.459 3.43 3.43 0 0 1 1.513 2.36 6.27 6.27 0 0 1 0.019 1.9 15.783 15.783 0 0 1-0.361 1.852l0.057-0.01a2.5 2.5 0 0 1 1.372 4.756 16.851 16.851 0 0 1-5.954 1.526z"/>
   <path transform="translate(38.131 -6282.3)" d="m45.062 6557.7c0.988 0.441 2.957-0.647 4.3-1.5a9.784 9.784 0 0 1-2.829 0.7c-0.669-0.27-0.669-7.635-2.141-7.9a1.087 1.087 0 0 0-0.738 0.284c0.339 3.558 0.454 7.992 1.408 8.416z"/>
   <path transform="translate(38.131 -6282.3)" d="m45.6 6560.3a3.792 3.792 0 0 1-1.557-0.319c-1.533-0.681-1.992-2.328-2.259-4-0.2-1.235-0.318-2.785-0.436-4.283-0.057-0.728-0.116-1.479-0.182-2.176a2.5 2.5 0 0 1 1.033-2.268 3.592 3.592 0 0 1 2.121-0.758 2.913 2.913 0 0 1 0.522 0.047 3.269 3.269 0 0 1 2.341 1.861 7.908 7.908 0 0 1 0.627 1.792 35.762 35.762 0 0 1 0.586 3.576l0.015 0.116 0.191-0.061a2.5 2.5 0 0 1 2.1 4.5c-2.177 1.362-3.749 1.973-5.102 1.973z"/>
   <path transform="translate(29.052 -6274)" d="m70.609 6553.2c-0.156-0.238-0.828-0.276-1.71-0.219-3.645 5.007-12.113 14.914-15.7 16.282-4.861 1.86-9.525-0.355-11.985-4.535-1.732 6.74-2.723 13.483-0.731 15.115 3.823 3.126 17.671-11.384 19.947-13.391 2.063-1.818 10.982-12.049 10.179-13.252z"/>
   <path transform="translate(28.57 -6282.9)" d="m40.537 6589.2c-3.992-3.268 1.829-21.531 3.076-25.129 2.332-6.738 8.284-15.63 10.541-15.365 1.707 0.2 2.226 7.59 2.344 8.067 1.722-0.345 6.9-2.646 8-1.939 1.56 0.991-0.106 5.411-0.413 6.929 3.023-0.244 7.037-1.359 7.743-0.3 1.429 2.143-10.335 14.222-10.46 14.333-3.191 2.813-16.499 16.956-20.831 13.404zm13.282-38.928c-0.61-0.158-6.3 7.376-8.725 14.389-3.467 10.014-5.939 21.643-3.695 23.48 2.967 2.423 16.649-11.237 19.065-13.371 2.673-2.359 10.466-11.656 9.938-12.284-0.309-0.374-6.658 0.981-7.412 0.527-0.966-0.578 1.113-6.546 0.685-6.793-0.525-0.3-6.9 2.391-7.937 1.816-0.75-0.418-1.491-7.652-1.919-7.765z"/>
   <path transform="translate(15.695 -6370.6)" d="m75.766 6518.1c-4.583-2.455-19.353-8.857-22.4-9.21-1.7-0.193-14.5 0.01-18.815 0.274-1.841 0.117-2.01-0.906 0-1.1 4.514-0.445 17.259-0.726 18.972-0.529 3.3 0.382 17.906 6.663 22.7 9.617 1.994 1.229 1.477 1.99-0.457 0.948z"/>
   <path transform="translate(15.695 -6370.6)" d="m77.177 6521.1a5.584 5.584 0 0 1-2.6-0.789c-2.213-1.186-6.968-3.362-11.561-5.291-6.453-2.71-9.289-3.562-9.947-3.638-0.084-0.01-0.659-0.06-3.246-0.06-4.381 0-11.942 0.151-15.127 0.346-0.149 0.01-0.3 0.014-0.438 0.014-2.432 0-3.59-1.42-3.659-2.828a2.907 2.907 0 0 1 1.714-2.747 5.631 5.631 0 0 1 1.985-0.525c3.741-0.369 12.362-0.6 16.652-0.6a27.751 27.751 0 0 1 2.847 0.08c2.429 0.281 8.237 2.645 11.484 4.028a112 112 0 0 1 12.241 5.945 7.394 7.394 0 0 1 1.53 1.2 2.953 2.953 0 0 1 0.83 2.9 2.755 2.755 0 0 1-2.705 1.965z"/>
   <path transform="translate(28.594 -6376.5)" d="m39.472 6509.9a48.8 48.8 0 0 1 2.776-4.382c1-1.36 1.854-1.015 1.072 0.534-0.478 0.951-2.107 3.4-2.779 4.383-1.016 1.482-1.841 1.072-1.069-0.535z"/>
   <path transform="translate(28.594 -6376.5)" d="m39.458 6513.9a2.746 2.746 0 0 1-2.337-1.287 3.705 3.705 0 0 1 0.1-3.745 49.422 49.422 0 0 1 3.015-4.781 3.854 3.854 0 0 1 3.1-1.87 2.754 2.754 0 0 1 2.362 1.314 3.616 3.616 0 0 1-0.139 3.694c-0.688 1.368-2.928 4.64-2.95 4.672a3.84 3.84 0 0 1-3.151 2.003z"/>
   <path transform="translate(82.072 -6421.6)" d="m71.14 6620.4c-7.284-3.666-7.943-6.84-5.624-18.874 0.975-5.063 21.182-100.22 23.029-108.72 1.772-8.147 10.7-12.33 19.122-6.713 9.734 6.492 23.864 22.866 28.812 29.337 5.055 6.611 4.917 9.925 4.142 12.914-0.6 2.308-1.526 1.975-1.216-0.189 0.544-3.72 0.319-6.233-4.011-11.893-5.461-7.145-19.425-22.993-28.487-29.033-7.309-4.875-15.467-1.3-17.024 5.869-1.851 8.5-22.051 103.64-23.026 108.69-2.323 12.051-1.357 13.74 4.683 17.611 1.519 0.972 1.038 1.729-0.4 1.003z"/>
   <path transform="translate(82.072 -6421.6)" d="m72.094 6623.2a4.655 4.655 0 0 1-2.081-0.557 19.911 19.911 0 0 1-4.877-3.226 10.033 10.033 0 0 1-2.814-4.62c-0.952-3.341-0.45-7.565 0.739-13.733 0.96-4.985 21.184-100.23 23.041-108.78a14.345 14.345 0 0 1 4.872-8.13 13.585 13.585 0 0 1 4.062-2.311 13.939 13.939 0 0 1 4.727-0.815 16.825 16.825 0 0 1 9.29 2.994c5.538 3.693 12.1 10.22 16.636 15.044 5.622 5.984 10.4 11.742 12.775 14.854a24.769 24.769 0 0 1 4.7 8.735 12.2 12.2 0 0 1-0.123 6.325 7 7 0 0 1-0.733 1.861 2.969 2.969 0 0 1-2.586 1.6 2.737 2.737 0 0 1-2.065-0.952 4.425 4.425 0 0 1-0.726-3.68v-0.01c0.424-2.9 0.469-4.794-3.523-10.012-5.37-7.026-19.063-22.59-27.888-28.471a10.149 10.149 0 0 0-5.592-1.824 7.64 7.64 0 0 0-7.6 6.143c-1.829 8.4-22 103.38-23.014 108.64-0.949 4.922-1.456 8.625-0.85 10.7 0.419 1.431 1.412 2.4 4.427 4.335 2.369 1.515 2.17 3.237 1.974 3.907a2.823 2.823 0 0 1-2.771 1.988z"/>
   <path transform="translate(-7.198 -6343.2)" d="m188.12 6566.8c4.8-1.262 5.155-2.024 2.926-3.062-0.328-0.148-28.744-11.421-33.639-14.077-2.851-1.539-122.74-26.085-129.44-27.782-1.666-0.424-3.217-0.106-3.948 0.8a2.224 2.224 0 0 0-0.325 2.038c0.419 1.6-0.475 1.955-1.1 0.345a3.315 3.315 0 0 1 0.359-3.237c1.066-1.326 3.164-1.828 5.349-1.273 6.671 1.687 126.73 26.269 129.75 27.911 4.823 2.61 33.2 13.869 33.564 14.037 1.088 0.5 2.513 1.316 2.366 2.521-0.256 2.082-5.32 2.755-5.733 2.784-1.81 0.127-1.856-0.55-0.135-1.005z"/>
   <path transform="translate(-7.198 -6343.2)" d="m187.84 6570.3a4.8 4.8 0 0 1-1.483-0.2 2.753 2.753 0 0 1-1.973-2.271 2.829 2.829 0 0 1 1.485-2.819 4.993 4.993 0 0 1 0.76-0.369c-17.165-6.889-27.351-11.171-30.3-12.738-0.429-0.147-2.232-0.651-9.759-2.333-5.254-1.174-12.385-2.721-21.8-4.729-17.229-3.675-38.359-8.094-57-11.993-21.208-4.436-37.959-7.939-40.416-8.562a3.317 3.317 0 0 0-0.811-0.109 2.068 2.068 0 0 0-0.394 0.035 3.73 3.73 0 0 1-0.5 3.292 2.762 2.762 0 0 1-2.2 1.088c-0.65 0-2.262-0.257-3.187-2.64a6.523 6.523 0 0 1-0.431-2.386 5.358 5.358 0 0 1 1.175-3.324 7.017 7.017 0 0 1 5.559-2.427 9.576 9.576 0 0 1 2.351 0.3c2.279 0.577 19.107 4.1 38.592 8.175 19.252 4.029 41.072 8.6 58.9 12.407 31.229 6.679 32.2 7.206 32.842 7.554 2.625 1.42 13.174 5.838 31.353 13.128 1.9 0.762 1.963 0.788 2.067 0.836a9.4 9.4 0 0 1 2.249 1.39 4.166 4.166 0 0 1 1.551 3.7 4.332 4.332 0 0 1-2.009 3.066 9.637 9.637 0 0 1-2.518 1.175 18.271 18.271 0 0 1-3.513 0.735c-0.204 0.012-0.403 0.019-0.59 0.019z"/>
   <path transform="translate(42.772 -6327.4)" d="m58.642 6624.3c5.258-13.676 1.81-24.5 1.6-28.9-0.053-1.111-10.385-9.766-11.435-10.825 0.947-1.312 7.543-6.2 7.481-7.618-0.038-0.824-8.506-7.516-9.056-8.542 0.585-1.185 6.386-6.249 6.737-6.575a0.674 0.674 0 0 0 0.209-0.618c-0.71-4.057-3.967-29.975-4.211-32.773l-1.432-0.644c0.247 2.841 3.389 28.09 4.236 33.284-0.666 0.608-6.946 6.135-6.937 7.512 0 1.067 8.021 7.432 9 8.522-2.054 2.584-7.634 6.44-7.518 7.646 0.066 0.7 11.113 9.717 11.572 10.791 0.65 5.482 3.757 16.688-2.488 30.566z"/>
   <path transform="translate(42.772 -6327.4)" d="m56.4 6628.6a2.5 2.5 0 0 1-2.28-3.526c5.083-11.294 3.575-20.862 2.675-26.578-0.107-0.678-0.21-1.33-0.294-1.936-0.94-0.957-3.509-3.206-5.283-4.759-1.439-1.26-2.8-2.45-3.851-3.413-1.8-1.645-2.438-2.318-2.541-3.413-0.133-1.419 0.767-2.545 1.76-3.55 0.728-0.736 1.664-1.554 2.655-2.419 0.661-0.577 1.365-1.192 2-1.781l-0.735-0.632c-1.382-1.187-2.948-2.531-4.225-3.719-2.028-1.887-2.936-2.956-2.945-4.283a4.867 4.867 0 0 1 1.4-3.085 31.475 31.475 0 0 1 2.156-2.355c1.142-1.148 2.357-2.271 3.2-3.042-1.059-7.22-3.81-29.336-4.051-32.114a2.5 2.5 0 0 1 3.516-2.5l1.432 0.644a2.5 2.5 0 0 1 1.465 2.063c0.243 2.783 3.476 28.513 4.182 32.554a3.194 3.194 0 0 1-0.98 2.9c-0.065 0.06-0.168 0.151-0.423 0.378-2.336 2.079-3.743 3.4-4.589 4.239 0.741 0.663 1.637 1.441 2.342 2.053 1.205 1.046 2.452 2.128 3.415 3.02 1.577 1.46 2.326 2.279 2.381 3.471 0.062 1.418-0.831 2.6-2.293 4.06-0.988 0.983-2.241 2.073-3.346 3.034l-0.658 0.574 0.407 0.356c1.67 1.461 3.956 3.462 5.8 5.179 1.048 0.973 1.839 1.746 2.418 2.362a4.571 4.571 0 0 1 1.622 2.872c0.035 0.753 0.2 1.851 0.391 3.122a63.785 63.785 0 0 1 0.9 11.123 45.314 45.314 0 0 1-3.062 15.67 2.5 2.5 0 0 1-0.753 1.04l-2.241 1.829a2.5 2.5 0 0 1-1.567 0.562z"/>
  </g>
  <path transform="translate(-10.261 -6340.3)" d="m20.893 6521.7c0.4 2.612 8.634 17.67 17.871 23.294s20.685 7.028 33.136 4.417l14.861-9.639z" fill="#30353a"/>
  <path transform="translate(-16.417 -6445.1)" d="m180.61 6670.8c21.457 4.767 35.336 1.274 39.628-6.761 7.831-14.662 23.295-105.16 24.633-114.26 1.354-9.206-1.194-14.094-6.693-20.89-1.907-2.353-20.619-22.755-26.24-26.773-7.409-5.29-12.688-5.957-17.406-7.23-6.962-1.872-117.81-20.885-129.59-22.223-12.291-1.4-17.249 2.857-20.885 12.851-2.651 7.288-25.027 108.75-25.974 120.76-1.047 13.251 8.493 22.71 14.727 24.1 3.308 0.734 147.8 40.429 147.8 40.429z" fill="#d3ebf3"/>
  <path transform="translate(-7.995 -6342.8)" d="m192.13 6562.7c-1.369-0.75-27.174-10.578-33.6-14.059-4.961-2.684-113.2-23.7-129.59-27.848-3.46-0.874-6.874 1.355-4.686 4.751 0.9 1.413-0.306 1.812-2.291 1.608 0.841 0.406 131.33 36.112 148.33 40.78a116.59 116.59 0 0 0 15.217-0.013 21.51 21.51 0 0 0 6.361-1.205c2.459-0.773 1.693-3.237 0.265-4.014z" fill="#b6ccd2"/>
  <path transform="translate(82.509 -6421.1)" d="m72.044 6620c-8.471-4.616-8.478-7.554-6.293-18.874 0.96-4.987 21.019-99.472 23.026-108.71 1.963-9.039 11.432-10.725 18.071-6.293 9.365 6.242 23.361 22.265 28.653 29.185 5.089 6.655 4.573 9.208 3.883 14.057-2.01 14.056-16.671 91.373-20.285 100-2.995 7.156-7.24 10.009-13.254 7.231-4.664-2.149-7.468-3.532-33.801-16.598z" fill="#eaf5f9"/>
  <path transform="translate(44.362 -6332.1)" d="m135.89 6525.6c-1.944 0.094-9.772 3.349-18.475 7.1-10.013 4.313-42.917 7.483-62.789 1.807-2.716-0.775-5.5-1.431-8.043-1.97l6.3 100.44c9.1 4.016 23.564-3.883 20.619-4.82s-8.034-7.231-4.017-18.878c4.558-13.216 1-44.333-5-55.361 17.7 9.154 42.545 10.008 51.785 5.691 29.535-13.793 25.706-34.296 19.62-34.008z" fill="#30353a"/>
  <path transform="translate(-5.892 -6328.5)" d="m76.237 6529.1c-14.664 8.662-31.222 31.248-38.025 51.838-3.414 0-11.447 2.61-12.651 4.218l-2.613 14.256c2.21 3.214 10.844 8.637 18.075 10.245a30.822 30.822 0 0 1 14.461 8.434c1.4 1.608 16.668 14.861 28.315 15.665 16.84 1.159 27.371-5.52 28.515-25.505 0.478-8.368-11.491-72.795-13.254-78.518l-0.084-0.295c-4.93-1.123-9.34-1.83-11.363-2.115-2.813-0.403-7.228 0.267-11.376 1.777z" fill="#fff"/>
  <path transform="translate(-15.485 -6296.1)" d="m29.6 6577.3c-5.489 0.136-11.788-34.07-11.11-34.507 1.354-0.872 5.755 4.253 5.755 4.253s2.01-4.552 3.079-4.552 2.41 4.95 2.945 5.085 4.42-3.479 5.089-3.344c2.006 0.4-0.132 32.929-5.758 33.065z" fill="#e6a000"/>
  <path transform="translate(43.229 -6327.2)" d="m49.854 6528.1c-0.166-0.01-0.669-0.158-1.069-0.238 0 0.836 3.564 29.25 4.267 33.268-1.876 1.739-7.13 6.227-7 7.161s8.968 7.765 9.1 8.568-7.765 6.9-7.631 7.563 11.425 9.536 11.582 10.846c0.594 5.029 3.736 16.542-2.341 30.453 3.707-4.109 5.933-10.228 6.424-18.806 0.485-8.369-12.344-77.066-13.332-78.815z" fill="#bbe1e8"/>
  <path transform="translate(72.266 -6425.8)" d="m61.467 6488.9c-4.017-6.027-0.6-8.037 4.817-7.231 4.836 0.716 23.095 2.812 25.1 6.426s-3.214 24.3-4.42 27.31c-2.044 5.113-5.449 5.128-7.831 0.6-2.005-3.812-17.194-26.405-17.666-27.105z" fill="#eaf5f9"/>
  <path transform="translate(34.866 -6399.7)" d="m44.929 6495.5a1.355 1.355 0 0 1-1.688 1.064 1.336 1.336 0 0 1-1.085-1.658 1.358 1.358 0 0 1 1.666-1.068 1.39 1.39 0 0 1 1.107 1.662z" fill="#eaf5f9"/>
  <path transform="translate(122.61 -6381)" d="m86.3 6504.5a1.47 1.47 0 0 1-2.876-0.6 1.551 1.551 0 0 1 1.744-1.269 1.582 1.582 0 0 1 1.132 1.869z" fill="#fff"/>
  <path transform="translate(56.134 -6344.6)" d="m55.036 6521.6a1.415 1.415 0 0 1-1.736 1.08 1.4 1.4 0 0 1-1.141-1.68 1.553 1.553 0 0 1 1.744-1.273 1.59 1.59 0 0 1 1.133 1.873z" fill="#eaf5f9"/>
  <path transform="translate(16.937 -6428.1)" d="m36.6 6482.3a1.41 1.41 0 0 1-1.735 1.082 1.4 1.4 0 0 1-1.141-1.682 1.55 1.55 0 0 1 1.741-1.269 1.584 1.584 0 0 1 1.135 1.869z" fill="#eaf5f9"/>
  <path transform="translate(104.9 -6396.4)" d="m77.467 6497.1c-0.172 0.806-0.81 1.405-1.475 1.26a1.522 1.522 0 0 1-0.891-1.84 1.383 1.383 0 0 1 1.535-1.176 1.4 1.4 0 0 1 0.831 1.756z" fill="#fff"/>
  <path transform="translate(2.902 -6367.1)" d="m29.359 6510.6a1.162 1.162 0 0 1-1.347 0.945 1.266 1.266 0 0 1-0.9-1.482 1.178 1.178 0 0 1 1.407-0.883 1.164 1.164 0 0 1 0.84 1.42z" fill="#eaf5f9"/>
  <path transform="translate(53.365 -6419.9)" d="m53.1 6485.7a1.165 1.165 0 0 1-1.35 0.948 1.274 1.274 0 0 1-0.9-1.486 1.185 1.185 0 0 1 1.41-0.882 1.168 1.168 0 0 1 0.84 1.42z" fill="#eaf5f9"/>
  <path transform="translate(112.16 -6358.8)" d="m80.752 6514.5a1.162 1.162 0 0 1-1.347 0.949 1.268 1.268 0 0 1-0.9-1.483 1.179 1.179 0 0 1 1.407-0.883 1.161 1.161 0 0 1 0.84 1.417z" fill="#fff"/>
  <path transform="translate(96.621 -6340.1)" d="m73.89 6523.5a1.376 1.376 0 1 1-1.06-1.631 1.38 1.38 0 0 1 1.06 1.631z" fill="#fff"/>
  <path transform="translate(-16.403 -6445.1)" d="m64.922 6472.7c-12.291-1.4-17.249 2.857-20.885 12.851-2.651 7.288-25.027 108.75-25.974 120.76-0.028 0.37-0.047 0.735-0.059 1.1 1.266 3.53 3.038 6.628 4.814 8.068 2.788 2.268 18.284 4.54 22.892 5.223 5.424 0.8 6.024-1.806 1.407-6.026-2.138-1.951-17.071-21.284-17.874-28.111-1.688-14.36 18.074-88.961 20.485-98.4 2.073-8.12 9-10.734 18.878-9.636 5.42 0.6 114.26 19.279 118.28 20.082 3.145 0.627 6.411-1.451 9.322-3.25-0.572-0.143-1.138-0.284-1.691-0.433-6.963-1.878-117.82-20.891-129.6-22.229z" fill="#eaf5f9"/>
  <path transform="translate(13.773 -6370.2)" d="m32.2 6508.6c-0.275-0.569 22.135-1.141 23.295-0.937 4.551 0.8 27.431 11.979 28.25 12.451 2.545 1.472-24.633 20.746-30.791 19.012-5.223-1.472-18.074-25.035-20.754-30.526z" fill="#b6ccd2"/>
  <path transform="translate(6.215 -6397.6)" d="m55.18 6494.8-0.238 0.224a34.568 34.568 0 0 1-0.272 9.015c-2.269 14.358-9.653 21.3-18.137 19.958a11.54 11.54 0 0 1-7.324-4.377l-0.566 0.539c2.888 3.966 7.03 6.336 12.051 6.059 9.4-0.51 16.064-8.725 15.811-22.96a30.182 30.182 0 0 0-1.325-8.458z" fill="#eaf5f9"/>
  <path transform="translate(58.321 -6385.4)" d="m78.663 6503.6c-0.094-1.05-0.241-2.083-0.428-3.088a34.8 34.8 0 0 1-0.56 4.731c-2.563 13.574-10.641 22.284-20.563 20.407a13.4 13.4 0 0 1-3.961-1.4 13.837 13.837 0 0 0 11.179 4.119c10.098-0.907 15.54-11.287 14.333-24.769z" fill="#eaf5f9"/>
  <path transform="translate(3.717 -6408)" d="m32.886 6509.8c3.051-10.589 8.806-15.909 15.2-15.253 3.864 0.4 7.221 3.652 8.747 7.292-1.525-6.407-5.2-11.044-10.294-11.854-5.689-0.9-16.415 5.9-18.612 19.833-1.91 12.062 2.144 23.114 11.041 24.567-6.814-2.922-9.383-13.123-6.082-24.585z" fill="#b6ccd2"/>
  <path transform="translate(52.59 -6400.4)" d="m56.576 6515.2c3.082-11.626 10.994-18.31 18.428-16.342 5.4 1.434 8.743 7.65 8.978 15.4l0.019 0.063c0.156-10.506-4.752-19.234-12.295-20.659-8.909-1.681-18.115 7.456-20.56 20.411-2.42 12.812 1.538 24.582 11.7 26.5 0.069 0.014 0.134 0.022 0.2 0.03-9.293-4.139-9.468-14.096-6.47-25.403z" fill="#b6ccd2"/>
  <path transform="translate(14.503 -6378.1)" d="m52.893 6513.3c0.5-0.152 3.917-5.591 5.836-9.351l-0.081-0.021c-2.135-0.429-25.574 9.84-26.105 12.186a0.262 0.262 0 0 0 0 0.05 80.947 80.947 0 0 0 20.35-2.864z" fill="#eaf5f9"/>
  <path transform="translate(22.192 -6328.5)" d="m70.891 6529.5c-4.93-1.123-9.34-1.83-11.363-2.115-2.81-0.4-7.227 0.267-11.375 1.777a61.438 61.438 0 0 0-11.994 9.688c5.186 12.051 22.807 21.976 41.494 24.782-2.917-16.245-5.871-31.213-6.677-33.838z" fill="#dbdcdc"/>
  <path transform="translate(-4.111 -6337.1)" d="m23.786 6523.2c7.715 5.024 22.229 11.4 21.347 13.6-0.716 1.789-8.353 3.693-15.821 2.529a26.023 26.023 0 0 0 3.3 2.427c8.606 5.235 19.128 6.812 30.591 4.893a60.02 60.02 0 0 1 11.25-8.939c0.369-0.133 0.738-0.258 1.11-0.376-23.309-6.389-43.943-12.03-51.777-14.134z" fill="#212226"/>
  <path transform="translate(45.816 -6327)" d="m67.542 6562.8a69.042 69.042 0 0 1-13.514-0.715c-2.917-16.247-5.871-31.215-6.677-33.84l-0.081-0.291c1.929 0.437 3.926 0.929 5.9 1.5 14.461 4.131 35.818 3.574 50.238 1.3-11.057 4.542-25.364 10.035-22.792 13.893 3.42 5.132 32.041 16.724 56.152-9.177-2.895 6.169-9.415 13.23-21.948 19.082-9.24 4.317-34.086 3.463-51.785-5.691a57.993 57.993 0 0 1 4.5 13.941" fill="#212226"/>
  <path transform="translate(45.087 -6327.2)" d="m46.927 6527.9c0 0.836 3.564 29.25 4.267 33.268-0.128 0.113-0.269 0.245-0.422 0.387 1.307 0.269 2.623 0.513 3.945 0.712-3.117-17.386-6.252-33.3-6.721-34.128-0.166-0.01-0.669-0.159-1.069-0.239z" fill="#a2c3c9"/>
  <path transform="translate(-4.861 -6283.5)" d="m86.716 6578.5c-16.643 0.231-30.044-13.157-33.87-15.394-6.427-3.758-14.054-2.942-20.085-6.558-2.71-1.628-5.652-4.816-8.059-8.153-0.325 2.66-0.747 5.31-1.269 7.68a41.16 41.16 0 0 0 16.558 8.572 30.822 30.822 0 0 1 14.461 8.434c1.4 1.608 16.668 14.862 28.315 15.663 16.19 1.12 26.546-5.023 28.337-23.259-5.289 7.833-16.333 12.905-24.388 13.015z" fill="#dbdcdc"/>
  <path transform="translate(50.517 -6271.9)" d="m55.727 6553.9a24.057 24.057 0 0 1-2.782 3.376 43.43 43.43 0 0 1-3.464 13.186c3.376-3.742 5.519-9.154 6.246-16.562z" fill="#a2c3c9"/>
  <g fill="#c28600">
   <path transform="translate(-9.587 -6296.1)" d="m22.895 6548.9c0.619 0.058 1.322-0.649 1.941-1.523a0.865 0.865 0 0 1-0.469 0.182c-0.535-0.135-1.872-5.085-2.945-5.085a0.49 0.49 0 0 0-0.213 0.052c0.248 2.572 0.639 6.268 1.686 6.374z"/>
   <path transform="translate(-15.021 -6295.9)" d="m22.84 6548.2c1.232 0 1.947-1.841 2.157-3.753-0.672 1.182-1.219 2.417-1.219 2.417s-3.373-3.927-5.124-4.319c1.246 2.507 3.046 5.655 4.186 5.655z"/>
   <path transform="translate(-11.992 -6294.9)" d="m31.861 6543.1a1.863 1.863 0 0 0-0.9 0.418c-0.2 6.989-2.119 23.422-6.327 23.945-1.607 0.2-3.614-0.2-4.551-1.785 1.857 5.892 4 10.537 6.024 10.487 5.626-0.136 7.764-32.665 5.754-33.065z"/>
  </g>
  <path transform="translate(-10.899 -6340.2)" d="m69.058 6550.8c-10.1 1.557-21.185 0.3-30.257-5.22-9.215-5.609-17.759-20.9-18.209-23.83l2.313 1.52c2.2 4.8 9.19 16.257 16.852 20.922 8.481 5.162 19.081 6.775 30.757 4.7z" fill="#0d131a"/>
  <path transform="translate(76.634 -6463.7)" d="m64.026 6506.5c1.651-2.7 3.582-5.326 4.117-5.623 1.272-0.422 10.322-2.072 13.8-2.592a0.794 0.794 0 0 0 0.5-0.334c1.447-2.174 11.776-26.087 14.5-32.342 0.932-2.143-0.325-2.673-1.25-0.55-2.6 5.977-12.951 28.059-14.8 31.3-2.007 0.3-12.238 2.2-13.754 2.71-1.078 0.362-3.854 4.455-5.374 6.981z" fill="#0d131a"/>
  <g fill="#337b89">
   <path transform="translate(-17.492 -6446.2)" d="m182.76 6671.4a75.545 75.545 0 0 0 18.24 1.964c9.669-0.368 17.037-3.577 19.709-8.582 7.878-14.743 23.489-106.75 24.561-114.04 1.3-8.828-1.078-13.6-6.549-20.356-2.116-2.612-20.653-22.755-26.105-26.648-6.787-4.848-12.232-5.793-17.187-7.127-6.746-1.818-118.09-20.907-129.49-22.206-12.575-1.428-16.917 3.472-20.168 12.409-2.757 7.583-25.017 108.99-25.933 120.58-1.044 13.231 8.537 22.119 14.2 23.375 0.969 0.216 49.863 13.508 55.918 14.452l-1.979 1.613c-9.2-1.875-54.1-14.079-55-14.279-6.074-1.349-16.5-11.82-15.4-25.84 0.916-11.62 23.245-113.33 26.011-120.94 3.4-9.338 9.084-15.181 22.492-13.654 12.182 1.384 122.48 20.3 129.69 22.242 6.765 1.823 11.36 2.918 18.309 7.88 5.739 4.1 24.733 24.874 26.374 26.9 5.727 7.074 8.334 12.767 6.962 22.1-1.075 7.307-16.749 99.59-24.708 114.49-3.382 6.335-11.888 9.4-21.613 9.887-7.571 0.382-17.649-2.062-21.019-2.81z"/>
   <path transform="translate(2.808 -6409)" d="m39.352 6536.3c-9.425-1.488-13.817-13.069-11.851-25.5 2.244-14.218 13.951-22.256 20.085-21.286 8.3 1.312 13.876 13.268 11.848 26.106-2.523 15.956-11.876 21.972-20.082 20.68zm-9.837-25.379c-1.76 11.118 1.719 22.4 10.531 23.794 7.052 1.116 14.967-4.274 17.356-19.387 1.91-12.079-2.507-22.479-10.059-23.674-4.427-0.691-15.559 4.887-17.828 19.266z"/>
   <path transform="translate(51.69 -6401.3)" d="m63.365 6542.7c-9.891-1.87-15.333-13.911-12.651-28.116 2.7-14.31 13.467-22.917 22.091-21.289 9.259 1.75 15.561 14.613 13.051 27.915-3.1 16.422-13.681 23.153-22.491 21.49zm-10.65-27.568c-2.532 13.414 2.054 23.986 11.157 25.7 8.84 1.67 17.14-5.969 19.763-19.863 2.373-12.564-2.632-24.095-11.154-25.705-7.593-1.433-17.306 6.844-19.766 19.868z"/>
   <path transform="translate(5.949 -6405.3)" d="m39.021 6531.6c-6.255-1.726-10.747-11.888-7.23-24.1 2.917-10.119 8.275-14.6 13.657-14.058 4.667 0.48 8.806 4.58 9.294 8.781l-0.86-5.836a11.4 11.4 0 0 0-7.956-5.219c-6.94-0.727-12.885 5.168-15.93 15.742-3.36 11.67-0.638 20.581 4.589 24.321z"/>
   <path transform="translate(55.133 -6397.4)" d="m80.783 6503.8c-1.585-4.439-4.467-7.57-8.146-8.547-9.134-2.423-16.5 6.4-19.266 16.824-3.445 13-1.722 21.346 5.277 25.413l3.686-0.069c-8.328-3.243-10.478-11.131-6.827-24.9 2.695-10.159 9.331-17.418 16.668-15.459 4.914 1.3 8.35 6.61 8.584 14.275z"/>
   <path transform="translate(13.632 -6378.9)" d="m54.231 6537.5c-9.059-2.156-22.532-18.93-22.088-20.883 0.713-3.146 25.674-13.466 27.712-13.052 5.617 1.123 26.805 21.237 25.3 25.3-1.54 4.165-26.704 9.643-30.924 8.635zm-20.131-20.549c0.372 1.948 12.438 17.021 20.622 18.882 3.676 0.84 27.415-4.734 28.528-7.739 0.947-2.512-18.146-21.649-23.861-22.788-3.189 1e-3 -24.139 9.672-25.289 11.645z"/>
  </g>
  <g fill="#0d131a">
   <path transform="translate(-4.936 -6327.2)" d="m98.706 6528.3c1.635 5.312 13.942 70.617 13.454 79.151-1.178 20.635-12.673 26.837-29.369 25.688-12.173-0.841-27.521-14.454-28.781-15.9a29.961 29.961 0 0 0-14.092-8.219 41.778 41.778 0 0 1-16.521-8.3l0.294-1.7a39.909 39.909 0 0 0 16.524 8.662 31.567 31.567 0 0 1 14.823 8.652c1.066 1.218 16.243 14.633 27.849 15.43 16.43 1.146 26.671-5.383 27.787-24.86 0.481-8.468-11.951-73.8-13.576-79.082z"/>
   <path transform="translate(-15.894 -6296.8)" d="m29.974 6578.7c-6.862-0.052-12.867-35.047-11.547-35.9 1.141-0.734 3.554 0.851 6.024 3.546 0.957-2 2.2-4.136 3.279-4.149 1.507-0.021 2.813 4.641 3.214 5.022 0.847-0.474 4.264-3.686 5.12-3.516 2.935 0.591 1.107 35.045-6.039 34.992zm-10.441-34.556c-0.238 0.13 1.532 10.147 3.314 16.983 2.157 8.28 4.955 16.2 7.127 16.2h0.016c2.57-0.062 4.4-8.72 5.277-17.032 0.685-6.465 0.619-14.442 0.238-14.559-0.325-0.1-4.173 3.346-4.992 3.215-1.007-0.16-2.332-5.028-2.829-5.041-0.391-0.01-2.441 4.487-2.932 4.516-0.461 0.038-4.909-4.453-5.219-4.282z"/>
   <path transform="translate(27.952 -6277.8)" d="m48.157 6552.7c-2.144 0.381-5.783 2.261-7.865 3.647-1.513 1.01-2.154 0.551-0.231-1.054 2.135-1.776 6.174-4.14 8.787-4.167z"/>
   <path transform="translate(-3.509 -6332.8)" d="m24.069 6589.5c1.794-1.364 8.537-3.615 11.76-3.615a0.683 0.683 0 0 0 0.647-0.47c7.027-21.264 23.767-43.165 37.884-51.551 0.944-0.559 7.015-2.142 10.772-1.607a142.38 142.38 0 0 1 17.18 3.6c19.234 5.5 52.529 2.782 63.248-1.836 5.227-2.253 16.108-6.938 18.237-7.043 4.751-0.255 9.031 19.176-19.938 32.7-10.385 4.853-43.051 3.121-59.985-11.523-1.516-1.31-2.266-0.989-0.572 0.764 12.257 12.672 46.821 18.935 61.182 12.316 30.794-14.187 26.437-36.364 19.147-36.01-1.976 0.094-8.8 3-18.612 7.227-9.356 4.032-42.035 7.65-62.251 1.875a153.43 153.43 0 0 0-17.406-3.747c-2.657-0.378-8.384 0.6-10.978 1.736-10.735 4.7-31.473 26.707-39.334 51.876a31.86 31.86 0 0 0-10.869 3.417z"/>
   <path transform="translate(48.363 -6313.2)" d="m61.672 6535.6c5.7 11.632 9.184 41.881 4.62 55.124-3.5 10.157 0.413 16.755 3.614 17.774 1.1 0.35 1.41 1.485-0.4 2.909-4.7 3.708-14.82 6.137-21.038 3.393l0.694-1.337c6.743 2.973 17.978-1.408 19.909-3.624-4.248-1.686-8-8.743-4.229-19.672 4.711-13.661 0.672-45.79-5.424-55.646z"/>
  </g>
  <path transform="translate(29.052 -6282.3)" d="m40.486 6588.1c-2.945-2.41 0.635-16.013 3.479-24.232 2.41-6.962 8.034-15.132 9.506-14.863s1.472 7.632 2.141 7.9 7.08-2.4 7.9-1.875c1.472 0.937-1.2 6.561-0.535 6.826s7.1-1.2 7.631-0.4c0.8 1.2-8.115 11.434-10.175 13.254-2.276 2.008-16.124 16.517-19.947 13.39z" fill="#e6a000"/>
  <g fill="#c28600">
   <path transform="translate(43.556 -6278.2)" d="m46.332 6558.6c0.46 0.459 3.385-0.153 5.6-1.151a16.89 16.89 0 0 1-3.464 0.347c-0.669-0.265 2.007-5.891 0.535-6.827a0.654 0.654 0 0 0-0.306-0.062c-1.589 2.866-2.912 7.147-2.365 7.693z"/>
   <path transform="translate(38.131 -6282.3)" d="m45.062 6557.7c0.988 0.441 2.957-0.647 4.3-1.5a9.784 9.784 0 0 1-2.829 0.7c-0.669-0.27-0.669-7.635-2.141-7.9a1.087 1.087 0 0 0-0.738 0.284c0.339 3.558 0.454 7.992 1.408 8.416z"/>
   <path transform="translate(29.052 -6274)" d="m70.609 6553.2c-0.156-0.238-0.828-0.276-1.71-0.219-3.645 5.007-12.113 14.914-15.7 16.282-4.861 1.86-9.525-0.355-11.985-4.535-1.732 6.74-2.723 13.483-0.731 15.115 3.823 3.126 17.671-11.384 19.947-13.391 2.063-1.818 10.982-12.049 10.179-13.252z"/>
  </g>
  <path transform="translate(28.57 -6282.9)" d="m40.537 6589.2c-3.992-3.268 1.829-21.531 3.076-25.129 2.332-6.738 8.284-15.63 10.541-15.365 1.707 0.2 2.226 7.59 2.344 8.067 1.722-0.345 6.9-2.646 8-1.939 1.56 0.991-0.106 5.411-0.413 6.929 3.023-0.244 7.037-1.359 7.743-0.3 1.429 2.143-10.335 14.222-10.46 14.333-3.191 2.813-16.499 16.956-20.831 13.404zm13.282-38.928c-0.61-0.158-6.3 7.376-8.725 14.389-3.467 10.014-5.939 21.643-3.695 23.48 2.967 2.423 16.649-11.237 19.065-13.371 2.673-2.359 10.466-11.656 9.938-12.284-0.309-0.374-6.658 0.981-7.412 0.527-0.966-0.578 1.113-6.546 0.685-6.793-0.525-0.3-6.9 2.391-7.937 1.816-0.75-0.418-1.491-7.652-1.919-7.765z" fill="#0d131a"/>
  <g fill="none">
   <path transform="translate(15.695 -6370.6)" d="m75.766 6518.1c-4.583-2.455-19.353-8.857-22.4-9.21-1.7-0.193-14.5 0.01-18.815 0.274-1.841 0.117-2.01-0.906 0-1.1 4.514-0.445 17.259-0.726 18.972-0.529 3.3 0.382 17.906 6.663 22.7 9.617 1.994 1.229 1.477 1.99-0.457 0.948z"/>
   <path transform="translate(28.594 -6376.5)" d="m39.472 6509.9a48.8 48.8 0 0 1 2.776-4.382c1-1.36 1.854-1.015 1.072 0.534-0.478 0.951-2.107 3.4-2.779 4.383-1.016 1.482-1.841 1.072-1.069-0.535z"/>
   <path transform="translate(82.072 -6421.6)" d="m71.14 6620.4c-7.284-3.666-7.943-6.84-5.624-18.874 0.975-5.063 21.182-100.22 23.029-108.72 1.772-8.147 10.7-12.33 19.122-6.713 9.734 6.492 23.864 22.866 28.812 29.337 5.055 6.611 4.917 9.925 4.142 12.914-0.6 2.308-1.526 1.975-1.216-0.189 0.544-3.72 0.319-6.233-4.011-11.893-5.461-7.145-19.425-22.993-28.487-29.033-7.309-4.875-15.467-1.3-17.024 5.869-1.851 8.5-22.051 103.64-23.026 108.69-2.323 12.051-1.357 13.74 4.683 17.611 1.519 0.972 1.038 1.729-0.4 1.003z"/>
   <path transform="translate(-7.198 -6343.2)" d="m188.12 6566.8c4.8-1.262 5.155-2.024 2.926-3.062-0.328-0.148-28.744-11.421-33.639-14.077-2.851-1.539-122.74-26.085-129.44-27.782-1.666-0.424-3.217-0.106-3.948 0.8a2.224 2.224 0 0 0-0.325 2.038c0.419 1.6-0.475 1.955-1.1 0.345a3.315 3.315 0 0 1 0.359-3.237c1.066-1.326 3.164-1.828 5.349-1.273 6.671 1.687 126.73 26.269 129.75 27.911 4.823 2.61 33.2 13.869 33.564 14.037 1.088 0.5 2.513 1.316 2.366 2.521-0.256 2.082-5.32 2.755-5.733 2.784-1.81 0.127-1.856-0.55-0.135-1.005z"/>
   <path transform="translate(42.772 -6327.4)" d="m58.642 6624.3c5.258-13.676 1.81-24.5 1.6-28.9-0.053-1.111-10.385-9.766-11.435-10.825 0.947-1.312 7.543-6.2 7.481-7.618-0.038-0.824-8.506-7.516-9.056-8.542 0.585-1.185 6.386-6.249 6.737-6.575a0.674 0.674 0 0 0 0.209-0.618c-0.71-4.057-3.967-29.975-4.211-32.773l-1.432-0.644c0.247 2.841 3.389 28.09 4.236 33.284-0.666 0.608-6.946 6.135-6.937 7.512 0 1.067 8.021 7.432 9 8.522-2.054 2.584-7.634 6.44-7.518 7.646 0.066 0.7 11.113 9.717 11.572 10.791 0.65 5.482 3.757 16.688-2.488 30.566z"/>
  </g>
 </g>
</svg>
