<?xml version="1.0" encoding="UTF-8"?>
<!-- Created with Inkscape (http://www.inkscape.org/) -->
<svg version="1.1" viewBox="0 0 352 480.7" xmlns="http://www.w3.org/2000/svg">
 <g transform="translate(82.811 157.92)">
  <path d="m257.31 241.44c-1.6725-3.7225-13.857-2.9672-26.185 1.7264 8.8863-9.8959 13.892-21.815 13.114-36.031-2.3661-43.24-19.206-149.81-37.857-196.09-9.7572-24.212-22.624-43.487-39.78-54.874 17.029 2.6628 46.231-13.341 43.202-22.701-2.1773-6.7321-22.697-8.3584-35.865-2.0385 32.99-27.965 32.034-80.335 22.135-86.096-17.457-10.15-81.749 26.185-77.876 94.473-28.585 0.60079-71.699 14.347-97.383 31.799-13.379-69.495-85.252-93.899-97.826-83.159-8.5086 7.2638-5.63 67.992 44.535 89.309-19.087-1.0902-30.192 8.3314-29.857 13.696 0.4933 7.8997 23.41 21.179 49.818 11.41-7.4258 11.017-10.37 22.774-10.628 33.842-1.3333 57.287 8.786 149.96 21.734 198.45 7.0327 26.339 24.543 50.608 60.82 54.389-16.37 4.6705-28.817 16.046-26.374 24.339 2.3622 8.0114 19.102 9.6993 35.46 2.4624 11.275-4.9902 22.37-12.478 24.566-18.019 0.60843-1.5375 0.62045-3.3564 0.28182-5.1753 27.745-2.6858 81.479-13.584 101.29-23.048-7.5182 14.555 19.31 11.426 40.624-0.41946 14.054-7.8111 25.364-20.867 22.05-28.25" fill="#fff9c7"/>
  <path d="m235.27 241.73c-1.3719 0.4282-2.7553 0.8979-4.1464 1.4296 6.9595-7.7494 11.526-16.744 12.809-27.106-14 28.913-125.17 60.335-172.7 51.545-44.339-8.2003-70.319-54.589-84.654-94.97 3.4335 23.915 7.5529 45.838 12.008 62.527 7.0327 26.339 24.543 50.608 60.82 54.389-8.1694 2.3314-15.364 6.3351-20.216 10.79 18.744-5.6108 41.953-0.27746 41.348 9.1984 6.6551-3.025 11.414-8.4162 12.52-11.206 0.60844-1.5376 0.62045-3.3564 0.2851-5.1753 27.745-2.686 81.479-13.584 101.29-23.048-5.9576 11.538 12.351 13.819 35.14 2.3237-10.285-2.8208-4.0153-23.133 5.4951-30.697" fill="#dcd8ac"/>
  <path d="m69.091 216.89c3.5106-4.3892 9.8033-18.647 11.584-23.483 2.3853-6.4816 0.70892-9.1368-3.4644-11.222-2.8247-1.4142-18.47-9.7957-21.607-12.462-2.84-2.4123-2.6743-3.7264-1.0563-6.84 1.6841-3.2486 9.2563-17.538 10.081-19.422 0.82035-1.8844-0.80178-5.7996-2.709-7.1792-3.4142-2.4739-23.187-16.952-27.071-20.836l-5.6762-38.531 14.516-37.372c2.8708-4.5742 14.47-18.763 23.325-28.281 2.8323-3.0482 2.0771-7.5375-1.7495-9.1946-5.6416-2.4392-12.339-4.9479-18.482-7.0481-2.3623-0.80942-3.6224-3.8766-1.2101-6.7243 4.5626-5.3796 11.622-12.208 17.645-17.256 3.0096-2.5241 2.7361-5.1021-0.77884-6.0578-6.2157-1.684-15.202-3.6724-21.368-4.7629-7.4142 3.5221-14.312 7.3486-20.254 11.387-13.383-69.495-85.252-93.903-97.826-83.163-8.5086 7.264-5.63 67.992 44.535 89.309-19.087-1.0869-30.196 8.3351-29.861 13.695 0.49713 7.9036 23.414 21.183 49.822 11.414-7.4258 11.013-10.37 22.77-10.628 33.842-1.2408 53.402 7.4682 137.54 19.144 187.99 15.541 3.8459 46.362 1.0246 73.086-7.8072" fill="#c6a856"/>
  <path d="m84.724-40.562c-1.7264 2.9864-0.80943 4.4354 1.7919 5.0442 4.2466 0.99403 22.493 6.37 28.135 8.9557 2.7552 1.2678 3.3333 2.9749 1.4605 5.0443-3.1175 3.4527-11.545 13.603-12.94 16.524-1.3949 2.9171-0.68162 6.813 3.052 8.3621 8.1618 3.3834 27.672 12.474 32.316 15.591l24.173 29.306 10.944 41.148c-4.6897 5.2794-22.956 31.333-25.218 34.601-3.0442 4.3969-2.6242 9.3679 2.262 12.983 4.1888 3.1021 14.828 10.559 17.761 12.736-5.0251 7.1213-12.316 18.011-14.828 21.614-2.8478 4.0809-3.1291 9.6569 1.5106 14.073 3.5182 3.3526 15.329 13.657 16.921 14.744 1.5915 1.0902 3.0944 1.5568 6.0308 1.1715 12.231-1.5915 45.052-13.326 56.697-19.067 2.7399-1.3525 5.2061-3.4798 6.6473-5.5567-5.9845-50.897-19.927-128.12-35.056-165.67-9.7571-24.212-22.624-43.487-39.78-54.874 17.029 2.6628 46.231-13.341 43.202-22.701-2.1772-6.7321-22.697-8.3584-35.865-2.0385 32.99-27.965 32.038-80.335 22.135-86.096-17.456-10.15-81.745 26.185-77.876 94.473-5.2986 0.11142-11.098 0.67834-17.191 1.6339-5.7918 5.0905-14.824 15.464-16.285 17.996" fill="#717172"/>
  <path d="m164.96-45.53 4.8785 1.9846c17.187 0.45114 42.666-14.116 39.977-22.913-10.474 10.859-37.345 20.397-44.855 20.929" fill="#5a5858"/>
  <path d="m12.968 77.326c12.836-3.7148 26.824 4.0038 30.751 17.221 3.3141 11.171-1.788 27.164-16.859 31.375-15.314 4.285-28.447-4.3045-31.58-18.385-3.2909-14.778 5.63-26.724 17.688-30.212" fill="#f2b2c1"/>
  <path d="m142.57 13.076c13.148-3.7533 22.952 4.0347 25.892 13.187 3.5414 11.033-1.9846 23.803-13.588 27.117-12.401 3.5375-23.086-2.4201-26.266-13.561-2.8824-10.092 0.65541-22.944 13.961-26.744" fill="#0f141b"/>
  <path d="m171.86 44.16c13.272-4.6782 27.06 3.341 30.898 15.445 4.1734 13.16-0.60843 26.146-13.476 31.167-13.41 5.2331-26.848-1.8998-31.391-13.183-4.4778-11.133-1.9076-27.834 13.969-33.429" fill="#f2b2c1"/>
  <path d="m146.01 24.912c4.6666-1.395 9.0557 1.1214 10.262 4.6974 1.526 4.5164-0.51996 9.445-4.8207 10.898-4.7437 1.6031-9.1946-0.72094-10.512-4.9286-1.4798-4.7167 0.64776-9.3449 5.0713-10.667" fill="#fff"/>
  <g fill="#a78d46">
   <path d="m13.352 226.37c-11.63-16.478-20.358-35.68-26.755-53.695 2.7553 19.179 5.9498 37.086 9.4065 52.03 4.605 1.1368 10.57 1.6763 17.349 1.6647"/>
   <path d="m-62.303-8.97c-8e-3 0.13873-0.0382 0.28838-0.0273 0.42383 0.4933 7.8998 23.41 21.179 49.822 11.41l5.1329-7.4142c-22.404 6.3853-44.273 3.025-54.928-4.4199"/>
   <path d="m-14.578-17.048c-36.674-18.547-60.119-59.672-62.554-94.369-8.3467 7.7571-5.2524 67.965 44.662 89.175-0.99424-0.0546-1.9499-0.0655-2.9017-0.0655 7.4412 2.4201 17.237 5.3526 20.794 5.264"/>
  </g>
  <path d="m176.39-69.619c-0.84001 0.32333-1.657 0.67069-2.4508 1.0519 31.884-27.029 32.061-76.839 23.098-85.352 3.1174 49.102-31.954 87.695-31.876 91.938z" fill="#5a5858"/>
  <g fill="#0f141b">
   <path d="m-2.8665 106.97c2.9248 13.129 14.963 21.302 29.241 17.31 14.046-3.9306 18.624-18.643 15.534-29.056-3.657-12.324-16.52-19.711-28.485-16.25-11.241 3.2524-19.356 14.22-16.289 27.996m15.43-31.133c13.618-3.9421 28.794 4.208 32.959 18.231 3.5182 11.85-2.2312 28.855-18.22 33.325-16.246 4.5434-30.508-4.5818-33.834-19.522-3.4913-15.676 6.3044-28.335 19.094-32.034"/>
   <path d="m246.92 206.77c-2.2273-40.678-18.878-148.99-38.107-196.7-9.5298-23.653-22.493-40.878-36.79-52.015 21.46-0.8979 42.289-15.981 39.341-25.094-2.3584-7.287-21.202-10.204-35.56-4.1156l-3.8728 5.5684c11.379-6.8284 34.219-6.9557 36.323-0.44677 2.4047 7.4411-25.645 22.096-41.395 20.582-4.578-0.43912-4.8824 0.50138-1.156 2.9788 15.726 10.435 28.123 28.982 38.389 54.458 19.102 47.406 35.291 154.62 37.506 195.1 0.7701 14.116-3.8188 26.751-14.466 37.541l7.8419-3.1676c8.4509-8.5317 12.647-21.9 11.946-34.697"/>
   <path d="m159.36 76.549c4.2466 10.551 16.898 17.761 29.437 12.871 12.031-4.6975 16.389-16.986 12.489-29.291-3.5877-11.318-16.601-19.017-29.013-14.647-14.844 5.2331-17.102 20.659-12.913 31.067m11.915-33.768c14.139-4.9826 28.979 3.3526 33.067 16.246 4.4469 14.023-0.75153 27.522-14.462 32.874-14.285 5.5721-28.805-1.738-33.641-13.761-4.7745-11.857-1.8805-29.399 15.036-35.36"/>
   <path d="m259.18 240.6c-4.8091-8.8054-38.528 0.35064-50.138 15.734-2.5047 3.3218-1.2216 4.2389 1.7495 1.3295 15.869-15.561 42.293-19.268 44.682-15.595 3.5799 5.4989-7.6492 18.065-21.51 25.768-19.715 10.956-44.158 15.006-37.915 3.1291 1.603-3.052 0.88261-3.8728-2.0809-2.5665-21.121 9.2985-80.597 21.237-105.9 23.649-6.9903 0.66633-6.9595 3.129 0.11579 2.9672 25.626-0.59314 80.161-11.383 103.69-21.896-2.4624 12.979 22.971 10.447 44.308-1.4142 14-7.7802 27.591-22.686 22.994-31.106"/>
   <path d="m95.438 293.53-3.8959 0.35829c0.87059 5.8997-7.63 13.225-23.333 20.173-16.501 7.3025-31.399 5.4913-33.271-0.87059-1.8227-6.1734 8.6666-18.277 28.732-22.832l-9.7263-0.95907c-16.431 6.1888-25.083 16.932-22.709 24.99 2.9441 10.004 22.381 10.863 38.713 3.6339 19.784-8.7476 26.439-17.561 25.491-24.493"/>
   <path d="m65.515 289.01c-42.705-3.5607-57.749-31.129-64.061-54.774-10.536-39.468-19.403-108.37-21.549-163.47-1.2447-31.88 4.2736-61.155 12.412-71.861 2.8054-3.6878 0.93636-5.2215-2.3622-1.9692-10.416 10.27-16.697 35.491-15.302 73.853 2.0231 55.529 10.616 125.31 21.221 165.04 6.6011 24.713 24.824 54.782 69.522 55.387 4.104 0.0546 4.2504-1.8573 0.11907-2.2003"/>
   <path d="m18.286-28.343c23.009-18.851 70.624-34.154 98.2-33.433-3.8959-71.248 62.639-104.63 80.412-94.3 12.3 7.1559 14.243 64.72-27.522 92.758-4.7783 3.2061-6.0732 1.3217-1.4952-2.1618 35.399-26.928 35.472-83.059 27.372-87.772-15.252-8.867-78.462 26.624-75.421 92.966 0.0655 1.3294-0.23158 1.684-1.5954 1.7263-27.071 0.90118-74.789 16.767-98.623 32.235-6.7013 4.3467-7.9306 3.3911-1.3256-2.0193"/>
   <path d="m-78.452-113.01c-9.8727 8.4316-7.9036 82.034 59.371 96.277 6.3275 1.3371 7.5337-0.0765 0.57807-2.0848-61.772-17.784-63.811-85.502-57.117-91.217 10.998-9.3949 82.23 15.006 94.974 82.747l2.9287-2.1772c-13.699-73.017-87.602-94.762-100.74-83.545"/>
   <path d="m4.9026-22.598c-10.956-3.6724-26.451-18.886-31.36-28.439-1.7649-3.4334-0.60504-4.1271 1.7996-1.1021 6.2774 7.9036 19.946 21.584 30.605 27.838 3.7379 2.1926 2.3969 2.8555-1.0443 1.7033"/>
   <path d="m-60.701-8.6498c-0.33917-5.4026 12.366-14.073 31.776-11.661l-8.0115-3.6609c-17.102-0.0765-27.375 9.969-27.025 15.526 0.59347 9.5182 23.761 22.532 49.121 13.83l2.7668-4.4586c-24.308 9.0866-48.165-2.1849-48.628-9.576"/>
   <path d="m106.85 1.8568c-2.6706-1.106-3.4142-3.6147-2.2042-6.1464 1.2062-2.5279 9.1598-12.239 12.678-16.131 2.659-2.9441 1.896-5.8419-1.9923-7.6262-5.7532-2.6396-24.239-8.0114-28.462-9.0018-1.5299-0.35829-1.6917-1.0323-0.72859-2.6975 1.5453-2.6782 11.464-14.327 16.759-18.578l-5.2523 0.87824c-5.7726 5.6184-13.083 13.888-14.339 16.065-2.2274 3.8574-0.89791 6.366 2.8747 7.3141 4.1426 1.0366 22.062 6.1926 27.657 8.759 1.8882 0.86731 2.1579 1.4759 1.0596 2.6936-2.5356 2.8015-11.599 13.557-13.202 16.913-1.9422 4.0694-0.35064 8.8131 3.8998 10.578 6.5356 2.709 21.823 9.8226 29.287 13.803l2.7398-2.2196c-7.2792-4-23.846-11.734-30.774-14.605"/>
   <path d="m234.07 180.8c-11.464 5.6493-45.287 17.225-56.184 18.913-2.5356 0.39324-3.6455-0.0437-4.8978-0.89791-1.499-1.029-13.141-11.218-16.64-14.551-4.2658-4.0655-3.4682-8.8438-1.2948-11.958 0.8127-1.1598 8.9671-13.271 13.16-19.356 1.6338-2.3738 1.1752-4.5742-0.91756-6.0848-4.3699-3.156-13.757-9.8958-15.545-11.218-3.919-2.9017-4.6088-6.817-1.8882-10.744 2.3545-3.3988 17.753-25.429 23.726-32.863l-3.2254-1.1908c-6.5164 8.3082-21.052 28.971-23.325 32.258-3.7495 5.4142-2.7398 11.252 2.632 15.229 2 1.4759 12.304 8.7552 15.645 11.133 0.698 0.49701 0.68599 0.92084 0.19225 1.6339-3.6223 5.2138-12.451 18.119-13.314 19.36-3.7071 5.3101-3.0328 11.668 1.7187 16.193 3.3564 3.1984 15.483 13.657 17.229 14.855 2.1387 1.4643 4.497 1.7533 7.1675 1.4412 12.898-1.503 45.283-13.345 57.206-19.221 2.0039-0.99075 3.8382-2.3391 5.3294-3.8112l-0.42383-4.6166c-1.106 1.8228-3.4182 4.0501-6.3506 5.4952"/>
   <path d="m136.57-59.889c1.9307-17.934 11.95-34.312 20.25-41.526 3.5106-3.052 4.8285-1.946 1.7842 1.395-6.4778 7.1136-16.331 25.113-19.78 40.478-0.88261 3.919-2.6936 3.7301-2.2544-0.34736"/>
   <path d="m93.895 61.434c-0.39652-1.6879 5.0944-2.9864 5.684-1.6069 0.36266 0.85967-1.1754 2.6628-2.2814 2.948-1.0943 0.28947-3.1406-0.21629-3.4026-1.3411"/>
   <path d="m65.912 0.57322c-5.2485-2.2698-11.853-4.7899-18.597-7.0982-1.6647-0.56693-1.8612-2.5087-0.49702-4.1194 4.3429-5.1213 11.195-11.819 17.449-17.063 3.9769-3.3294 3.6108-7.5221-1.3987-8.8824-5.4721-1.4836-13.175-2.9903-19.06-4.1233l-4.0924 2.0693c5.9807 0.9831 15.437 3.3487 22.297 5.2061 1.7033 0.46206 2.316 1.4182 0.15402 3.2255-6.3853 5.3526-13.387 12.204-17.838 17.456-3.0019 3.5337-1.8921 8.0192 1.9268 9.3255 6.6667 2.2775 13.191 4.7669 18.358 7.0019 3.2139 1.3911 3.4528 4.1618 1.2023 6.5819-7.8573 8.4508-18.859 21.749-22.932 27.599l3.2255 1.1754c4.0885-5.6686 14.185-18.038 22.1-26.551 3.6493-3.9229 2.3352-9.7996-2.2968-11.803"/>
  </g>
  <path d="m226.15 161.63c39.526-42.82 48.258-84.423 34.932-93.032-18.277-11.803-56.859 28.474-67.918 52.026" fill="#717172"/>
  <path d="m261.08 68.603c-0.1431-0.0874-0.29712-0.15402-0.44349-0.23922 6.2851 19.522-14.104 67.371-34.204 91.991l0.62809 0.26544c38.732-42.462 47.24-83.479 34.019-92.018" fill="#5a5858"/>
  <path d="m225.34 160.91c33.048-37.225 47.741-81.818 34.566-90.327-17.252-11.148-54.019 28.705-65.672 50.52-2.4817 4.6434-4.2851 3.7687-2.0539-0.9984 13.88-29.564 50.994-65.098 70.308-53.491 14.69 8.8323 6.2929 53.414-35.607 95.837-2.2543 2.2852-3.9537 1.1754-1.5414-1.5414" fill="#0f141b"/>
  <path d="m243.29 84.756c1.0017-4.131 0.19662-7.1908-1.3257-7.5606-1.8535-0.45114-4.8593 0.65103-7.5375 6.3853-1.5028 3.2177-2.6744 2.7476-1.7533-0.67834 1.8035-6.709 6.5124-10.108 10.324-9.129 3.6455 0.93613 4.6974 6.2505 2.3198 11.534-1.3719 3.052-2.8631 2.8979-2.027-0.55054" fill="#0f141b"/>
  <path d="m34.911 33.095c8.05 0.1431 18.902 4.8362 22.589 13.753 2.7282 6.5895 1.9074 14.439-1.6185 11.842-14.489-10.674-29.584-7.4489-40.142 4.4778z" fill="#c6a856"/>
  <path d="m28.654 192.24c-2.6551 6.9094-10.782 21.391-21.41 29.187l-3.0096-5.8458c3.5414-2.4817 20.524-16.081 24.42-23.341" fill="#a78d46"/>
  <path d="m2.9623 146.88c-36.266 25.426-45.418 68.805-35.726 79.286 9.0519 9.7842 52.543-15.961 60.944-36z" fill="#c6a856"/>
  <path d="m-34.848 222.7c0.55109 1.3758 1.2447 2.5472 2.0848 3.4605 9.052 9.7841 52.543-15.961 60.944-36l-0.763-1.3063c-0.1195 0.18461-0.2389 0.36594-0.36998 0.60516-5.2447 9.445-45.244 38.975-61.895 33.241" fill="#a78d46"/>
  <g fill="#0f141b">
   <path d="m60.277 93.3c-3.7109-2.5395-2.3314-4.3969 1.5338-2.0964 26.404 15.707 66.389 7.3333 81.063-20.196 1.8189-3.4182 4.0424-2.4007 2.3892 1.1021-15.534 32.944-57.394 40.077-84.986 21.191"/>
   <path d="m14.945 62.454c12.096-15.094 29.711-16.389 43.495-3.2601 2.6667 2.5395 1.3642 4.0615-1.5954 1.8689-13.106-9.7185-27.653-9.1482-40.169 2.8517-1.9075 1.8266-3.6416 0.92522-1.7302-1.4604"/>
   <path d="m56.59 47.064c-5.946-8.2736-11.703-11.137-21.699-13.071-3.4065-0.65868-3.2986-1.9036 0.16189-2.0115 10.077-0.32005 19.957 5.2986 23.175 14.116 0.98638 2.7052-0.0983 3.1136-1.6378 0.96672"/>
   <path d="m-34.365 227.67c-10.844-11.722-0.16954-57.36 36.651-81.703 3.0481-2.0154 4.2928-0.27309 1.3757 1.9268-36.034 27.218-42.674 67.965-34.655 76.643 7.7417 8.366 47.622-15.218 58.042-35.075 2.0077-3.8304 3.919-2.998 2.3699 1.041-7.9421 20.701-52.944 48.89-63.784 37.167"/>
   <path d="m77.942 180.73c-3.4566-1.7303-18.42-9.8111-21.279-12.247-2.1233-1.8034-1.9498-2.1657-0.66633-4.84 1.4181-2.9479 7.0289-13.325 9.4334-18.035 2.5664-5.0326 0.84765-8.1849-2.551-10.643-3.788-2.7437-16.37-11.742-23.133-17.198l-1.6532 2.3237c7.9575 6.4238 22.57 17.402 22.755 17.537 2.8285 2.0463 3.1522 3.6455 1.5646 6.7552-2.3777 4.6551-8.9402 17.029-9.3179 17.753-1.8536 3.5761-2.1117 5.8111 1.449 8.84 3.418 2.9017 19.603 11.511 21.938 12.678 3.4566 1.7303 4.736 3.5452 2.659 9.1984-1.792 4.867-7.6108 18.212-10.963 22.74-25.753 8.1155-56.666 11.056-71.98 7.5105l0.83237 3.5029c16.169 3.6107 45.707 0.5429 71.506-7.9382 1.1484-0.37794 1.7379-0.73623 2.3545-1.5993 3.7071-5.2061 9.5992-18.416 11.318-23.09 2.4547-6.6666 1.2176-10.505-4.2659-13.248"/>
   <path d="m-20.345 202.69c-0.45856 4.0501-2.9248 7.9536-5.5684 7.9998-2.7322 0.18898-4.0963-2.7128-4.4816-7.6646-0.24665-3.1445-1.6262-3.1715-1.9692-0.0437-0.63192 5.734 1.5144 11.507 6.4084 11.561 3.9345 0.0437 7.7456-4.7321 7.6223-11.811-0.0579-3.0983-1.6647-3.1175-2.0115-0.0437"/>
   <path d="m26.746 77.231s1.4451 0.85531 2.316 0.82909c3.2292-10.347 6.5934-17.9 10.451-25.063l-3.3025 0.16931c-3.1329 5.9883-6.7552 15.071-9.4643 24.065"/>
  </g>
 </g>
</svg>
