<?xml version="1.0" encoding="UTF-8"?>
<!-- Created with Inkscape (http://www.inkscape.org/) -->
<svg version="1.1" viewBox="0 0 75.484 105.17" xmlns="http://www.w3.org/2000/svg">
 <defs>
  <clipPath id="clipPath22342">
   <path d="m0 792h612v-792h-612z"/>
  </clipPath>
 </defs>
 <g transform="translate(-2.9464 -2.2952)">
  <g transform="matrix(1.6772 0 0 -1.6772 -183.89 922.44)" clip-path="url(#clipPath22342)">
   <g transform="translate(156.17 534.47)">
    <path d="m0 0c-0.304 1.03-3.92 2.126-7.63 1.187-2.249-0.569-4.822-1.759-6.207-4.139-2.352 2.015-7.924 5.027-12.81 4.237 3.376 6.956-0.696 12.625-2.175 12.625-1.551 0-5.077-5.986-2.946-10.362-0.742 0.962-2.646 2.064-3.207 1.383-0.556-0.675-0.284-3.978 3.029-5.092-2.823-1.624-5.15-6.658-6.234-10.366-0.194 0.92-0.285 2.007-0.229 3.385 0.083 2.017-2.242 2.008-3.043 0.976-2.652-3.421-3.296-7.777 0.353-12.483-0.711-1.444-2.288-5.325-2.816-6.972-1.174-3.664-0.492-7.75 2.452-9.12 2.658-1.237 4.508-1.488 8.387-3.208 2.244-0.995 4.443-2.611 6.809-3.548-0.834-2.003-1.173-5.876 0.753-6.696 1.942-0.827 4.796 2.322 4.416 6.184 2.211 0.533 4.178 2.135 5.522 4.977 1.115 2.358 1.835 5.408 2.195 8.235 5.215 0.439 7.914 6.219 7.729 9.245-0.118 1.918-1.732 2.565-2.872 1.425-0.939-0.939-1.881-1.719-2.94-2.372 1.432 4.808 2.345 11.319 0.668 13.808 1.717-1.787 4.599-1.88 5.002-1.134 0.259 0.478-0.646 2.006-2.494 2.481 1.184-0.074 2.472 0.155 3.471 0.554 2.935 1.174 5.074 3.917 4.817 4.79" fill="#69318d"/>
   </g>
   <g transform="translate(120.23 508.83)">
    <path d="m0 0c0.596 0.321 2.75 1.169 3.369 1.306 0.331 0.074 0.529 0.326 0.235 0.665-0.179 0.207-1.932 2.422-2.056 2.602-0.124 0.179-0.124 0.344 0.118 0.427 0.241 0.083 2.836 0.987 3.001 1.063 0.166 0.076 0.229 0.185 0.062 0.428-0.702 1.026-4.111 5.675-3.76 6.563l5.353 7.305c1.254 0.058 6.153 1.177 6.833 1.416 0.311 0.11 0.329 0.244 9e-3 0.651-0.21 0.268-1.455 1.665-1.588 1.838-0.134 0.172 9e-3 0.325 0.201 0.335 0.191 9e-3 2.478 0.181 2.708 0.21 0.229 0.028 0.356 0.158 0.201 0.421-0.144 0.243-0.829 1.016-1.379 1.603-1.337 0.244-2.7 0.308-4.014 0.095 3.377 6.956-0.696 12.625-2.174 12.625-1.551 0-5.077-5.986-2.947-10.362-0.741 0.962-2.646 2.065-3.207 1.383-0.555-0.674-0.283-3.978 3.03-5.092-2.824-1.624-5.151-6.657-6.234-10.365-0.194 0.919-0.286 2.007-0.23 3.385 0.083 2.017-2.242 2.007-3.042 0.976-2.652-3.421-3.296-7.777 0.353-12.484-0.491-0.997-1.396-3.156-2.082-4.939 2.07 1.121 5.128-0.451 7.24-2.055" fill="#717171"/>
   </g>
   <g transform="translate(156.17 534.47)">
    <path d="m0 0c-0.304 1.03-3.92 2.126-7.63 1.187-2.249-0.569-4.822-1.759-6.207-4.139-0.629 0.539-1.491 1.149-2.507 1.74-0.718-0.148-1.768-0.402-2.031-0.513-0.363-0.152-0.315-0.373-0.066-0.593s1.444-1.483 1.617-1.665c0.277-0.292 0.227-0.499-0.134-0.526-0.517-0.038-2.144-0.144-2.632-0.182-0.278-0.022-0.423-0.161-0.239-0.45 0.287-0.449 3.704-4.593 3.981-4.89l1.543-9.128c-0.885-0.29-7.098-2.975-7.763-3.279 0.208-0.568 1.481-3.529 1.661-3.903-0.595-0.193-2.602-0.775-2.892-0.844-0.527-0.125-0.6-0.415-0.415-0.885 0.152-0.388 1.162-2.547 1.3-2.782 0.356-0.604 0.48-0.729 1.038-0.982 3.483-1.583 5.054-2.843 6.113-4.49 0.938 2.243 1.557 4.975 1.882 7.527 5.215 0.439 7.914 6.219 7.729 9.245-0.118 1.918-1.732 2.565-2.872 1.425-0.939-0.939-1.881-1.719-2.94-2.372 1.432 4.808 2.345 11.319 0.668 13.808 1.717-1.787 4.599-1.88 5.002-1.134 0.259 0.478-0.646 2.006-2.494 2.481 1.184-0.074 2.472 0.155 3.471 0.554 2.935 1.174 5.074 3.917 4.817 4.79" fill="#717171"/>
   </g>
   <g transform="translate(136.94 524.38)">
    <path d="m0 0c0.218-1.873 1.811-3.456 3.821-3.096 2.117 0.38 2.655 2.845 2.366 4.359-1.54-0.742-4.381-1.246-6.187-1.263" fill="#e50021"/>
   </g>
   <g transform="translate(125.13 531.5)">
    <path d="m0 0c-1.347-1.562-1.725-3.79-0.59-5.074 1.383-1.564 3.978-1.16 5.286 0.506-1.415 0.884-3.699 3.003-4.696 4.568" fill="#e50021"/>
   </g>
   <g transform="translate(119.82 525.76)">
    <path d="M 0,0 C 0.819,1.468 2.699,1.892 4.064,1.159 5.533,0.371 6.013,-1.9 5.183,-3.222 4.3,-4.629 2.27,-4.964 1.05,-4.214 -0.359,-3.35 -0.785,-1.407 0,0" fill="#f3b2c1"/>
   </g>
   <g transform="translate(141.02 521.01)">
    <path d="m0 0c1.322 0.289 2.754-0.568 3.265-2.025 0.582-1.663-0.178-3.55-1.587-3.989-1.543-0.48-3.107 0.503-3.648 2.218-0.42 1.332 0.175 3.403 1.97 3.796" fill="#f3b2c1"/>
   </g>
   <g transform="translate(145.1 528.34)">
    <path d="m0 0 0.674-0.923c1.732-1.43 4.234-1.461 4.608-0.77 0.037 0.068 0.047 0.158 0.038 0.263-1.198-0.456-4.692 0.674-5.32 1.43" fill="#595857"/>
   </g>
   <g transform="translate(156.17 534.47)">
    <path d="m0 0c-0.01 0.034-0.118 0.242-0.135 0.276-0.047-1.374-4.73-4.756-8.37-5.455l0.617-0.177c1.068-8e-3 2.183 0.211 3.071 0.566 2.935 1.174 5.074 3.917 4.817 4.79" fill="#595857"/>
   </g>
   <g transform="translate(121.2 539.4)">
    <path d="m0 0c-0.543-0.66-0.293-3.832 2.816-5.014l0.25 0.086c-1.338 0.731-2.715 2.944-2.943 5.036-0.046-0.029-0.087-0.065-0.123-0.108" fill="#595857"/>
   </g>
   <g transform="translate(124.19 538.53)">
    <path d="M 0,0 0.484,-0.605 C -0.187,2.457 1.25,8.29 3.097,9.845 1.577,9.689 -1.62,4.255 0,0" fill="#595857"/>
   </g>
   <g transform="translate(116.04 514.69)">
    <path d="m0 0-0.152 0.372c-3.09 5.55-2.63 10.347-0.423 13.775-0.298-0.117-0.564-0.299-0.748-0.537-2.652-3.421-3.296-7.777 0.353-12.483-0.169-0.344-0.388-0.827-0.63-1.384 0.652-0.15 1.298 0.028 1.6 0.257" fill="#595857"/>
   </g>
   <g transform="translate(150.52 514.92)">
    <path d="m0 0c-0.048 0.793-0.355 1.365-0.777 1.687 1.408-3.022-3.852-10.524-8.327-10.773-0.115-0.027-0.292-0.11-0.276-0.202 0.102-0.604 0.635-1.536 1.332-1.993 0.127 0.683 0.234 1.365 0.319 2.036 5.215 0.439 7.914 6.219 7.729 9.245" fill="#595857"/>
   </g>
   <g transform="translate(130.66 486.28)">
    <path d="m0 0c1.942-0.827 4.795 2.322 4.416 6.185 1.383 0.333 3.138 1.356 4.078 2.637-1.666-0.982-3.696-1.175-6.302-0.705-2.64 0.477-4.51 1.793-9.099 3.952-3.458 1.627-5.676 1.706-8.764 3.364-1.327 0.711-2.415 1.642-3.226 2.792 0.215-2.121 1.168-3.944 2.948-4.772 2.658-1.238 4.508-1.489 8.387-3.208 2.244-0.995 4.443-2.611 6.809-3.548-0.834-2.004-1.174-5.877 0.753-6.697" fill="#5b277d"/>
   </g>
   <g transform="translate(127.1 535.8)">
    <path d="m0 0c-0.456 0.917-0.709 3.186-0.455 4.213 0.136 0.546 0.33 0.543 0.334-0.017 0.011-1.162 0.214-2.96 0.42-4.114 0.107-0.6-0.04-0.604-0.299-0.082" fill="#0f141b"/>
   </g>
   <g transform="translate(145.86 527.39)">
    <path d="m0 0-0.897 0.66c1.735-2.118 1.025-8.796-0.578-14.161l0.745 0.486c1.213 4.243 2.098 10.183 0.73 13.015" fill="#0f141b"/>
   </g>
   <g transform="translate(156.38 534.53)">
    <path d="m0 0c-0.352 1.194-4.106 2.374-7.888 1.417-2.092-0.53-4.827-1.727-6.312-4.216l0.407-0.332c1.405 2.4 3.99 3.465 6.016 3.978 3.832 0.97 7.168-0.273 7.373-0.966 0.196-0.667-2.629-4.822-8.068-5.094-0.598-0.03-0.636-0.172-0.074-0.363 1.433-0.485 2.601-1.72 2.338-2.206-0.357-0.659-3.515-0.287-5.042 1.566-0.342 0.414-0.558 0.267-0.253-0.176 1.742-2.528 5.174-2.625 5.713-1.628 0.344 0.635-0.418 1.84-1.515 2.392 4.652 0.256 7.652 4.452 7.305 5.628" fill="#0f141b"/>
   </g>
   <g transform="translate(143.95 530.46)">
    <path d="M 0,0 C 0.675,0.735 2.557,1.591 3.649,1.61 4.31,1.621 4.344,1.462 3.704,1.303 2.563,1.019 1.055,0.325 0.177,-0.225 -0.315,-0.533 -0.438,-0.477 0,0" fill="#0f141b"/>
   </g>
   <g transform="translate(142.44 505.72)">
    <path d="m0 0c-0.395-3.13-1.175-6.069-2.178-8.189-1.94-4.102-5.573-5.935-9.688-4.532-2.228 0.761-5.092 2.746-7.332 3.74-3.308 1.466-5.278 1.847-8.344 3.274-2.96 1.378-3.404 5.394-2.327 8.756 0.508 1.584 1.965 5.151 2.7 6.678l-0.48 0.571c-0.708-1.423-2.324-5.486-2.856-7.144-1.134-3.538-0.564-7.938 2.617-9.419 2.58-1.201 4.457-1.39 8.482-3.175 2.374-1.052 4.9-2.922 7.399-3.774 3.938-1.343 8.095-0.21 10.465 4.798 1.033 2.184 1.866 5.249 2.262 8.462z" fill="#0f141b"/>
   </g>
   <g transform="translate(135.41 492.44)">
    <path d="m0 0-0.673-0.139c0.302-3.543-2.187-6.536-3.967-5.78-1.713 0.729-1.353 4.261-0.554 6.221l-0.65 0.267c-1.102-2.704-0.841-6.179 1.009-6.966 1.934-0.825 5.248 2.035 4.835 6.397" fill="#0f141b"/>
   </g>
   <g transform="translate(125.11 515.44)">
    <path d="m0 0c-0.806 1.178-2.993 4.208-3.602 5.76l-0.494 0.23c0.359-1.55 3.284-5.474 3.788-6.202 0.065-0.093 0.07-0.143-0.039-0.184-0.478-0.179-2.662-0.922-2.931-1.014-0.415-0.142-0.452-0.436-0.222-0.747 0.146-0.2 1.865-2.368 2.056-2.588 0.136-0.157 0.109-0.323-0.141-0.391-0.67-0.183-2.332-0.789-3.132-1.161-0.114-0.053-0.159-0.048-0.262 0.027-1.302 0.951-4.528 2.951-6.902 2.032l-0.207-0.516c2.193 1.332 5.546-0.894 6.868-1.862 0.286-0.21 0.334-0.224 0.66-0.073 0.754 0.349 2.461 0.994 3.084 1.189 0.592 0.184 0.636 0.675 0.359 0.995-0.189 0.217-1.92 2.419-2.037 2.588-0.047 0.067-0.033 0.092 0.041 0.118 0.317 0.11 2.786 0.979 2.965 1.06 0.323 0.149 0.335 0.466 0.148 0.739" fill="#0f141b"/>
   </g>
   <g transform="translate(124.8 522.68)">
    <path d="m0 0c-0.838-1.336-2.732-1.622-3.822-0.952-1.28 0.785-1.697 2.577-0.947 3.922 0.724 1.295 2.426 1.797 3.752 1.086 1.27-0.682 1.776-2.846 1.017-4.056m-0.817 4.427c-1.526 0.819-3.542 0.263-4.374-1.229-0.858-1.536-0.318-3.609 1.149-4.51 1.182-0.726 3.428-0.57 4.448 1.054 0.967 1.541 0.334 3.849-1.223 4.685" fill="#0f141b"/>
   </g>
   <g transform="translate(130.33 526.48)">
    <path d="m0 0c-1.676 0.668-4.751 3.599-5.62 5.413-0.252 0.526 1e-3 0.668 0.296 0.165 0.98-1.668 3.862-4.309 5.455-5.247 0.483-0.285 0.309-0.507-0.131-0.331" fill="#0f141b"/>
   </g>
   <g transform="translate(133 525.14)">
    <path d="m0 0c-0.046-0.093 0.151-0.339 0.267-0.385 0.115-0.045 0.404-2e-3 0.455 0.118 0.05 0.121-0.661 0.388-0.722 0.267" fill="#0f141b"/>
   </g>
   <g transform="translate(129.65 527.08)">
    <path d="m0 0c-1.09-1.382-3.56-2.083-4.952-0.508-1.011 1.144-0.734 3.242 0.59 4.781l-0.244 0.385c-1.556-1.727-1.852-4.1-0.662-5.446 1.547-1.75 4.265-1.234 5.641 0.545z" fill="#0f141b"/>
   </g>
   <g transform="translate(135.1 534.16)">
    <path d="m0 0c-0.132 0.225-0.692 0.824-1.19 1.366l-0.597 0.103c0.542-0.571 1.225-1.375 1.404-1.652 0.05-0.076 0.044-0.129-0.057-0.139-0.352-0.037-2.484-0.221-2.656-0.229-0.395-0.021-0.609-0.311-0.333-0.639 0.098-0.119 1.53-1.775 1.681-2.016 0.052-0.082 0.05-0.137-0.031-0.165-0.578-0.204-4.669-1.15-6.336-1.365l0.333-0.342c1.867 0.282 5.574 1.119 6.139 1.318 0.498 0.175 0.407 0.611 0.218 0.851-0.118 0.15-1.413 1.604-1.632 1.847-0.082 0.092-0.079 0.13 0.059 0.144 0.479 0.044 2.42 0.153 2.642 0.181 0.455 0.057 0.556 0.399 0.356 0.737" fill="#0f141b"/>
   </g>
   <g transform="translate(136.52 529.44)">
    <path d="m0 0c-0.055 0.086-0.042 0.117 0.078 0.126 0.274 0.021 2.403 0.184 2.631 0.2 0.652 0.049 0.603 0.491 0.259 0.854-0.512 0.54-1.399 1.493-1.618 1.687-0.151 0.134-0.134 0.181 9e-3 0.241 0.255 0.108 1.361 0.413 2.061 0.554l-0.449 0.27c-0.692-0.152-1.541-0.336-1.776-0.435-0.498-0.209-0.531-0.586-0.125-0.945 0.152-0.135 0.746-0.718 1.617-1.636 0.135-0.143 0.124-0.196-0.062-0.208-0.35-0.021-2.306-0.14-2.58-0.162-0.435-0.034-0.645-0.389-0.4-0.773 0.25-0.392 2.675-3.316 3.644-4.47l0.449 0.078c-0.591 0.696-3.306 3.942-3.738 4.619" fill="#0f141b"/>
   </g>
   <g transform="translate(136.34 524.24)">
    <path d="M 0,0 C -0.496,0.045 -0.449,0.321 0.052,0.312 2.138,0.273 5.791,1.02 7.227,1.846 7.565,2.04 7.754,1.793 7.441,1.56 6.109,0.565 2.268,-0.208 0,0" fill="#0f141b"/>
   </g>
   <g transform="translate(143.36 525.7)">
    <path d="m0 0-0.449-0.221c0.257-1.538-0.348-3.662-2.184-3.991-2.043-0.368-3.332 1.377-3.528 2.828l-0.479-3e-3c0.272-2.244 2.132-3.591 4.082-3.24 1.983 0.356 2.967 2.557 2.558 4.627" fill="#0f141b"/>
   </g>
   <g transform="translate(142.63 515.2)">
    <path d="m0 0c-1.416-0.441-2.855 0.465-3.368 2.093-0.353 1.117 0.098 3.177 1.772 3.543 1.191 0.261 2.539-0.543 3.017-1.91 0.505-1.442-0.099-3.314-1.421-3.726m1.864 3.864c-0.543 1.551-2.068 2.474-3.524 2.155-1.821-0.399-2.641-2.51-2.151-4.065 0.675-2.141 2.565-2.765 3.952-2.332 1.767 0.55 2.251 2.734 1.723 4.242" fill="#0f141b"/>
   </g>
   <g transform="translate(141.62 505.5)">
    <path d="m0 0c-0.758 0.074-0.729 0.355 0.031 0.35 5.823-0.043 8.745 6.02 8.563 8.991-0.117 1.92-1.575 2.097-2.373 1.251-1.532-1.623-3.745-3.099-5.864-3.608-0.574-0.138-0.662 0.158-0.101 0.34 1.756 0.569 3.856 1.937 5.567 3.762 1.183 1.262 3.257 0.803 3.406-1.642 0.242-3.952-3.588-9.995-9.229-9.444" fill="#0f141b"/>
   </g>
   <g transform="translate(134.88 502.82)">
    <path d="m0 0c-0.509 0.231-0.605 0.323-0.943 0.897-0.133 0.226-1.136 2.395-1.28 2.761-0.148 0.376-0.106 0.527 0.287 0.62 0.262 0.063 1.745 0.498 2.535 0.743 0.387 0.121 0.479 0.342 0.354 0.623-0.324 0.73-1.166 2.728-1.456 3.458 1.045 0.463 5.255 2.301 6.936 2.972l-0.526 0.188c-2.062-0.842-6.236-2.615-6.767-2.858-0.124-0.057-0.16-0.13-0.11-0.264 0.178-0.488 1.157-2.703 1.556-3.602 0.042-0.095 2e-3 -0.135-0.087-0.162-0.817-0.247-2.213-0.622-2.535-0.713-0.577-0.165-0.828-0.489-0.568-1.153 0.153-0.388 1.167-2.566 1.309-2.809 0.382-0.648 0.541-0.798 1.132-1.067 3.628-1.649 5.058-2.907 6.015-4.401l0.2 0.435c-1.164 1.687-2.861 2.881-6.052 4.332" fill="#0f141b"/>
   </g>
   <g transform="translate(115.57 514.96)">
    <path d="m0 0c-4.028 4.049-4.428 9.367-1.098 13.53 1.068 1.334 3.678 1.122 3.585-1.142-0.126-3.063 0.314-4.71 1.344-6.444 0.364-0.612 0.15-0.727-0.275-0.155-1.19 1.598-1.774 3.432-1.644 6.585 0.064 1.576-1.775 1.789-2.539 0.803-2.216-2.859-3.666-7.591 0.888-12.983 0.445-0.527 0.188-0.646-0.261-0.194" fill="#0f141b"/>
   </g>
   <g transform="translate(127.36 548.61)">
    <path d="m0 0c-1.696 0.011-4.976-5.238-3.526-9.701-0.954 0.813-2.225 1.181-2.798 0.629-0.765-0.739-0.329-4.15 2.717-5.26-2.15-1.458-4.375-4.725-5.816-9.575l0.257-1.172c1.005 3.564 3.254 8.951 6.12 10.581 0.226 0.129 0.215 0.261-0.049 0.364-3.12 1.22-3.34 4.426-2.904 4.794 0.451 0.38 1.843-0.275 2.962-1.363 0.372-0.362 0.513-0.329 0.3 0.145-1.883 4.184 1.3 10.096 2.732 10.096 1.337 0 5.079-5.798 1.883-12.458l0.543 0.069c3.605 7.32-0.83 12.841-2.421 12.851" fill="#0f141b"/>
   </g>
   <g transform="translate(142.48 531.18)">
    <path d="m0 0c-2.515 2.103-7.943 5.006-13.113 4.391-0.705-0.084-0.77 0.209-0.072 0.336 4.664 0.842 10.225-1.391 13.39-4.479 0.706-0.688 0.504-0.841-0.205-0.248" fill="#0f141b"/>
   </g>
   <g transform="translate(124.59 518.93)">
    <path d="m 0,0 c 0.822,3.461 4.837,5.674 8.393,4.457 2.816,-0.963 5.35,-5.747 3.54,-8.614 C 9.12,-1.422 3.477,0.269 0,0" fill="#fff"/>
   </g>
   <g transform="translate(136.47 515.11)">
    <path d="m0 0c1.223 2.571-0.489 7-3.587 8.06-3.286 1.124-7.081-0.834-8.019-4.01 3.463 0.143 8.555-1.252 11.606-4.05m-0.099-0.487c-2.812 2.734-8.459 4.353-11.77 4.098-0.193-0.015-0.269 0.055-0.221 0.259 0.874 3.682 5.102 5.841 8.669 4.632 3.431-1.163 5.31-6.164 3.648-8.95-0.08-0.134-0.209-0.152-0.326-0.039" fill="#0f141b"/>
   </g>
   <g transform="translate(130.04 520.95)">
    <path d="m0 0c-0.333-0.404-0.959-1.304-1.454-2.271l0.5-0.119c0.416 0.903 0.95 1.892 1.209 2.272 0.242 0.355 0.036 0.472-0.255 0.118" fill="#0f141b"/>
   </g>
   <g transform="translate(133.37 519.9)">
    <path d="m0 0c-0.092-0.374-0.402-1.634-0.684-2.578l0.456-0.23c0.248 0.979 0.481 2.353 0.521 2.745 0.055 0.531-0.166 0.582-0.293 0.063" fill="#0f141b"/>
   </g>
   <g transform="translate(119.45 503.6)">
    <path d="m0 0c-0.074 0.343-0.162 0.682-0.264 1.008 0.104-1.609-0.342-3.02-1.48-3.419-1.372-0.48-2.685 1.414-3.217 3.419-0.098 0.367-0.168 0.741-0.213 1.11-0.213-0.997-0.138-2.224 0.174-3.396 0.587-2.21 2.035-4.299 3.548-3.769 1.55 0.542 1.938 2.791 1.452 5.047" fill="#5b277d"/>
   </g>
   <g transform="translate(117.91 498.79)">
    <path d="m0 0c-1.38-0.484-2.658 1.757-3.164 3.664-0.769 2.891-0.067 4.66 1.122 5.029 1.661 0.519 2.781-1.727 3.261-3.954 0.439-2.037 0.188-4.246-1.219-4.739m1.855 4.871c-0.707 3.283-2.311 4.827-4.033 4.292-1.824-0.568-2.24-3.278-1.608-5.662 0.834-3.138 2.596-4.345 3.938-3.971 1.773 0.493 2.176 3.15 1.703 5.341" fill="#0f141b"/>
   </g>
  </g>
 </g>
</svg>
