<?xml version="1.0" encoding="UTF-8"?>
<!-- Created with Inkscape (http://www.inkscape.org/) -->
<svg version="1.1" viewBox="0 0 122.57 79.725" xmlns="http://www.w3.org/2000/svg">
 <g transform="translate(-4.9973 -4.464)">
  <g fill="#006837">
   <path d="m72.797 27.563c4.6074-0.72892 8.0414-0.10307 8.1012 0.2202 0.11211 0.59861-6.4874 3.5092-11.709 3.6213-0.0682-0.54001 2.494-3.8563 3.6076-3.8415"/>
   <path d="m81.237 19.789c-0.60772 0.15017-2.8781 1.1819-3.5877 1.7463-0.99352 0.70673-4.7696 4.5067-4.9317 6.0914 1.4687-0.3619 2.8161-0.83704 4.0406-1.377 0.30897-1.7691 2.5839-5.0547 4.4788-6.4607"/>
   <path d="m76.494 27.18c-0.91898 0.04388-2.6226 0.21338-3.6975 0.38352-1.1136-0.01452-3.6759 3.302-3.6076 3.8415 1.5318-0.03307 3.5587-0.38295 5.3773-0.86719 0.099-1.1904 1.1671-3.0483 1.9278-3.3578"/>
   <path d="m67.686 33.004c5.3938-5.1684 15.452-16.593 18.431-27.616 0.19119-0.70559 0.16671-0.79493-0.81484-0.57528-10.5 2.3449-24.168 7.0991-28.723 8.8756 1.8954 5.375 8.6867 16.05 11.106 19.316"/>
   <path d="m85.302 4.8122c-3.7487 0.8376-7.9003 1.9819-11.898 3.1888 2.7763 1.0902 7.8628 4.192 9.1892 5.89 1.5113-2.7848 2.7541-5.6572 3.5234-8.5035 0.19119-0.70559 0.16671-0.79436-0.81484-0.57528"/>
   <path d="m86.638 44.844c-0.56561-0.5878-5.5207-6.4192-6.294-7.2585 0.26743 1.4988 2.0149 9.1835 2.0832 9.6979 1.9387-0.25663 3.3726-0.86376 4.2108-2.4394"/>
   <path d="m91.769 53.861c0.0882 2.255 0.42904 7.4753 0.17298 7.6488-0.28963 0.19573-3.0454-3.5576-3.8227-4.6563 0.0455-0.77672 2.9259-3.1387 3.6497-2.9925"/>
   <path d="m86.638 44.844c-0.43417-0.45067-3.4449-3.9803-5.1764-5.9827 0.53887 2.3637 1.3372 5.7614 1.9131 8.256 1.4624-0.32718 2.568-0.96677 3.2634-2.2732"/>
   <path d="m88.12 56.853c0.36248 0.51213 1.1546 1.6012 1.9273 2.5982 0.5713-0.52352 1.2683-1.0812 1.9165-1.4971-0.0643-1.48-0.15485-3.0835-0.19404-4.0936-0.72379-0.1463-3.6042 2.2152-3.6497 2.9925"/>
   <path d="m35.647 35.259c-9.8965 2.5157-20.451-2.0644-20.388-2.8167 0.07629-0.90248 7.1919-1.3452 9.2671-0.94514 2.9322 0.72834 7.9191 2.5805 11.12 3.7618"/>
   <path d="m39.89 36.582c-7.0047 4.8771-16.598 4.5994-16.778 4.0987-0.36758-1.0208 6.8528-4.4384 10.519-5.0159 2.0104-1.1022 6.5148-0.26745 6.2587 0.91725"/>
   <path d="m35.647 35.259c-2.1583-0.79607-5.1269-1.8966-7.7313-2.7529 0.68624 1.0675 1.1819 2.5566 0.92296 3.4921 2.2129 0.04048 4.5272-0.15872 6.8084-0.73916"/>
   <path d="m33.632 35.665c-1.0339 0.16332-2.3518 0.55194-3.7015 1.0493 1.0356 0.44497 1.8988 1.954 1.9569 3.3567 2.6306-0.64982 5.4837-1.735 8.0033-3.4887 0.25606-1.1847-4.2483-2.0195-6.2587-0.91727"/>
   <path d="m55.314 44.587c3.1342 7.5367 10.438 10.265 20.891 5.7494 6.2012-2.679 12.921-8.2429 18.882-8.3988 7.5845-0.19746 12.389 3.2099 15.897 4.5493 5.75 2.1953 10.685 1.4231 15.626-2.4354 0.71641-0.55935 0.97531-0.36132 0.48482 0.33118-3.1063 5.1428-11.368 8.6218-16.868 6.9347-4.6876-1.4379-7.0411-2.172-11.635-0.9736-6.6895 1.744-15.119 11.623-19.128 14.382-6.0675 4.1738-10.756 5.1047-15.675 4.6154-15.052-1.4988-21.48-16.899-19.92-29.38 0.47457 0.04392 10.656 4.1431 11.444 4.6256"/>
   <path d="m56.482 46.863c-0.43644-0.70104-0.82792-1.4584-1.1682-2.2755-0.78753-0.48254-10.969-4.5818-11.444-4.6256-0.27426 2.1936-0.30044 4.4765-0.0779 6.7589 3.8796 3.8523 10.216 2.7097 12.69 0.14227"/>
   <path d="m93.65 46.185c-1.0811-1.8755-3.6463-2.576-6.1688-1.9091-2.4957 1.2513-5.0268 2.8104-7.5185 4.1818 3.339-1.2086 5.3835-0.40459 7.1458 2.3222 1.2564 1.9449 1.5881 5.0097-0.36077 7.5162 2.1276-1.9278 4.4293-3.8995 6.7076-5.4291 1.5972-1.9409 1.6656-4.1305 0.19461-6.682"/>
   <path d="m67.975 27.102c-1.3583-8.1757-10.717-15.657-19.258-14.478-9.9369 1.3708-14.167 8.5098-11.977 18.237 0.22419 0.99466 0.5747 1.9319 1.0191 2.8184 0.86948 0.6817 1.9119 1.5648 2.9646 2.3506 1.0123 0.37612 2.0798 1.1432 2.9475 2.1418 3.891 3.0807 10.732 6.257 19.02 6.6508 1.7924-1.2137 6.418-10.896 5.2846-17.721"/>
   <path d="m40.744 36.004c-14.047-0.74826-34.892-13.896-35.509-17.162-0.24468-1.294 27.447-2.6949 35.905-2.3711 0.96051 3.2212 0.66747 17.905-0.39547 19.533"/>
   <path d="m21.101 16.982c-8.4364 0.47343-15.995 1.1813-15.867 1.8601 0.29191 1.5432 5.1019 5.2931 11.576 8.899-0.08758-2.1264 2.498-9.2649 4.2905-10.759"/>
   <path d="m53.266 31.922c-0.42278-4.5476-5.2333-9.4777-8.8028-7.8002-2.5919 1.2188-3.5746 5.1451-0.88256 10.025 2.6329 4.1886 7.0781 4.7138 8.3305 4.1254 0.36702-0.17241 2.2596-2.5953 1.3548-6.3503"/>
  </g>
  <path d="m53.266 31.922c-0.42278-4.5476-5.2333-9.4777-8.8028-7.8002-2.5919 1.2188-3.5746 5.1451-0.88256 10.025 2.6329 4.1886 7.0781 4.7138 8.3305 4.1254 0.36702-0.17241 2.2596-2.5953 1.3548-6.3503z" fill="none" stroke="#006837" stroke-linecap="round" stroke-linejoin="round" stroke-miterlimit="10" stroke-width="3.9832"/>
  <g fill="#006837">
   <path d="m53.775 65.638c2.762 1.9785 6.0954 3.3134 10.015 3.7038 4.9186 0.48935 9.6068-0.44156 15.674-4.6159 0.68738-0.47285 1.5079-1.1585 2.424-1.9734-1.7674 0.94117-15.744 8.6685-28.114 2.8855"/>
   <path d="m126.61 44.052c-4.3422 3.3914-8.681 4.398-13.572 3.1012 0.60431 2.1014-0.12178 3.7072-2.7279 4.188 5.4996 1.6274 13.695-1.8408 16.786-6.958 0.48993-0.69249 0.23103-0.89051-0.48538-0.33116"/>
   <path d="m40.331 16.43c2.0883-1.8892 4.9186-3.0909 8.4187-3.5735 2.3102-0.31864 6.0476-0.08871 10.121 2.3159 0.82736 0.48765 1.0504 0.3215 0.19745-0.33686-2.3563-1.8203-6.7532-3.0716-10.382-2.5692-3.7043 0.51099-7.0866 2.0519-9.1482 4.1368z"/>
   <path d="m62.481 45.047c-9.2592-0.46206-16.288-4.0435-19.72-7.4958-0.68226-0.68681-0.39831-0.83077 0.26972-0.24524 4.9312 4.3263 12.004 6.9005 19.589 7.2772 1.7731-1.3469 6.2348-10.752 5.1235-17.443-0.61512-3.7043-2.9094-7.3888-6.3264-10.187-0.8063-0.66006-0.64242-0.81085 0.22704-0.29645 0.96791 0.57243 5.5753 3.9701 6.6627 10.314 1.2154 7.0923-3.3334 16.073-5.2612 17.865-0.25151 0.23443-0.27256 0.22533-0.56504 0.21111"/>
   <path d="m35.705 35.487c-9.1767 2.7199-18.889-1.3247-20.427-2.6277-0.36645-0.31126-0.41994-0.50417-0.02161-0.80575 0.94288-0.7147 6.1603-1.3298 8.2383-0.97814l0.98782 0.65266c-1.9392-0.37384-7.209 0.0016-8.6406 0.53091-0.35962 0.13307-0.36645 0.19574-0.08597 0.38978 1.6963 1.1693 10.686 4.5158 19.392 2.49z"/>
   <path d="m40.024 36.775c-5.7141 4.7286-15.24 4.7309-16.82 4.2273-0.40571-0.1292-0.48252-0.32263-0.23443-0.74315 0.68624-1.1585 5.6846-3.9132 8.9166-4.4344l1.7822 0.07274c-2.8633 0.45067-8.7795 3.1632-10.023 4.2859-0.33118 0.29931-0.33971 0.40858 0.15598 0.47287 2.1498 0.2794 10.013-0.13033 15.954-4.2671z"/>
   <path d="m21.44 17.025c-1.7002 0.99239-4.6518 8.8267-4.3832 10.856l-0.48254-0.27997c-0.0097-2.4445 2.2733-8.9177 4.1693-10.609z"/>
   <path d="m39.357 32.851c-0.89678-3.7522-0.18949-10.541 1.1671-12.812 0.31468-0.52749 0.48936-0.47286 0.25664 0.08016-1.1011 2.613-1.7042 9.1266-1.1642 12.686 0.08372 0.54683-0.1292 0.59406-0.25946 0.04549"/>
  </g>
  <path d="m39.357 32.851c-0.89678-3.7522-0.18949-10.541 1.1671-12.812 0.31468-0.52749 0.48936-0.47286 0.25664 0.08016-1.1011 2.613-1.7042 9.1266-1.1642 12.686 0.08372 0.54683-0.1292 0.59406-0.25946 0.04549z" fill="none" stroke="#006837" stroke-linecap="round" stroke-linejoin="round" stroke-miterlimit="10" stroke-width="3.9832"/>
  <path d="m53.242 29.681c-0.19575-0.99408-0.50586-2.6522-0.66065-3.4938-0.09726-0.53146 0.13888-0.62193 0.30954-0.05129 0.24355 0.81372 0.5935 2.4502 0.65381 3.4597 0.03984 0.66747-0.19004 0.66008-0.3027 0.08533" fill="#006837"/>
  <path d="m53.242 29.681c-0.19575-0.99408-0.50586-2.6522-0.66065-3.4938-0.09726-0.53146 0.13888-0.62193 0.30954-0.05129 0.24355 0.81372 0.5935 2.4502 0.65381 3.4597 0.03984 0.66747-0.19004 0.66008-0.3027 0.08533z" fill="none" stroke="#006837" stroke-linecap="round" stroke-linejoin="round" stroke-miterlimit="10" stroke-width="3.9832"/>
  <path d="m60.991 27.262c-0.4683-1.2501-1.6843-3.7635-2.3552-4.8048-0.32947-0.51098-0.17697-0.61113 0.23216-0.15646 0.80346 0.89337 2.0786 3.5547 2.3848 4.8572 0.16161 0.69023-0.0387 0.69876-0.26175 0.1042" fill="#006837"/>
  <path d="m60.991 27.262c-0.4683-1.2501-1.6843-3.7635-2.3552-4.8048-0.32947-0.51098-0.17697-0.61113 0.23216-0.15646 0.80346 0.89337 2.0786 3.5547 2.3848 4.8572 0.16161 0.69023-0.0387 0.69876-0.26175 0.1042z" fill="none" stroke="#006837" stroke-linecap="round" stroke-linejoin="round" stroke-miterlimit="10" stroke-width="3.9832"/>
  <path d="m42.398 26.561c0.26687-1.4499 0.80004-2.7933 1.5119-3.8182 0.46886-0.676 0.29418-0.87119-0.29989-0.19974-1.2649 1.4305-3.1655 6.4391-0.73347 10.768-1.5796-3.9479-0.72892-5.8672-0.47854-6.7503" fill="#006837"/>
  <path d="m42.398 26.561c0.26687-1.4499 0.80004-2.7933 1.5119-3.8182 0.46886-0.676 0.29418-0.87119-0.29989-0.19974-1.2649 1.4305-3.1655 6.4391-0.73347 10.768-1.5796-3.9479-0.72892-5.8672-0.47854-6.7503z" fill="none" stroke="#006837" stroke-linecap="round" stroke-linejoin="round" stroke-miterlimit="10" stroke-width="3.9832"/>
  <g fill="#006837">
   <path d="m82.719 13.669c-1.3879-1.8784-6.1204-4.7053-8.9804-5.7864l-0.63731 0.25322c2.7876 1.0316 8.2048 4.3621 9.3747 5.9873z"/>
   <path d="m77.775 21.733c3.0653-1.9529 5.8894-2.3814 7.0183-2.3512 0.45294 0.01129 0.43814 0.08936 0.21794 0.40515-1.0225 1.4635-5.2271 5.7796-12.107 7.5487l-0.13145 0.51838c8.149-1.9922 11.867-6.5233 12.773-8.0961 0.32718-0.5679 0.24922-0.72494-0.41198-0.81599-1.0749-0.14904-4.3661 0.21054-7.1031 2.0815z"/>
   <path d="m72.833 27.796c3.5296-0.55935 6.2069-0.31353 7.3239-0.06887 0.47229 0.10355 0.44669 0.15598 0.053 0.39262-1.5182 0.91045-6.4146 2.8491-10.677 3.0386l-0.33971 0.48196c5.0472 0.1263 11.065-2.6272 11.829-3.5672 0.23672-0.29077 0.23387-0.41596-0.2333-0.62022-1.0294-0.4501-4.2944-0.79607-7.733-0.16673z"/>
   <path d="m55.807 44.801c2.7507 6.294 9.0184 10.195 20.305 5.3198 2.1105-0.91157 4.3217-2.2289 6.4675-3.4625 4.1863-2.4058 8.516-4.8936 12.495-4.9977 7.5686-0.19746 12.214 3.1632 15.994 4.6068 5.6464 2.156 10.539 1.3918 15.397-2.4013 1.1392-0.88938 1.3679-0.25833 0.82225 0.65212-3.1922 5.3295-11.491 8.899-17.079 7.1856-3.8904-1.2097-7.0172-2.3518-11.557-1.1323-6.7868 1.822-14.669 11.553-18.966 14.508-5.6532 3.8893-10.386 5.198-15.831 4.6563-15.429-1.5369-21.915-16.887-20.319-29.661l0.5309 0.21167c-1.4937 13.004 5.4347 27.396 19.746 28.82 5.4308 0.54058 10.064-0.83929 15.518-4.5755 4.0532-2.7763 12.411-12.62 19.201-14.416 4.7798-1.2638 7.3063-0.40003 11.764 0.97645 5.3101 1.6291 13.555-1.7662 16.598-6.8317 0.16273-0.27086 0.15195-0.25208-0.13887-0.0246-5.0012 3.9064-10.056 4.7633-15.872 2.543-3.2776-1.2513-8.4915-4.7969-15.79-4.6062-3.8631 0.10129-8.1382 2.5583-12.273 4.9351-2.1572 1.2399-4.3877 2.5219-6.5227 3.4437-12.018 5.1906-18.469 0.69763-21.202-5.8746z"/>
   <path d="m87.293 57.938c1.616-2.4986 1.257-5.3983 0.0438-7.2756-1.7321-2.6801-3.759-3.5206-6.6957-2.6755l-1.3446 0.98441c3.59-1.529 5.7255-0.98727 7.6141 1.9364 1.3127 2.0303 1.587 5.3648-0.91157 7.8855z"/>
   <path d="m93.97 52.581c1.34-1.9188 1.3417-4.0577-0.0752-6.5159-1.0299-1.7867-3.3891-2.6118-5.8712-2.1566l-0.75454 0.66803c2.5936-0.79322 5.1332-0.0826 6.1762 1.7258 1.426 2.4736 1.3594 4.5852-0.20427 6.4567z"/>
   <path d="m92.004 53.851c0.11662 1.7731 0.34198 6.1221 0.24752 7.3142-0.0313 0.39035-0.41197 0.67088-0.75964 0.35224-0.60033-0.55082-2.3626-2.8264-3.4688-4.394l0.28849-0.4063c1.1364 1.6052 2.8525 3.854 3.4739 4.4361 0.0643-0.85298-0.21851-6.5119-0.239-6.9853z"/>
   <path d="m67.849 33.174c3.5109-2.9794 15.025-14.878 18.496-27.725 0.26971-0.9992 0.0899-1.1306-1.0937-0.86662-10.456 2.3358-24.161 6.8129-29.066 8.9251l0.48082 0.39946c4.6205-1.8015 18.259-6.5358 28.688-8.8654 0.60715-0.13543 0.61968-0.02049 0.5366 0.28451-3.3191 12.283-15.046 24.282-18.074 27.225z"/>
   <path d="m86.339 44.868c-0.46831-0.51838-4.9835-5.7727-5.5952-6.4749 0.24525 1.1784 1.7332 7.9333 1.8528 8.5211l-0.49619 0.27312c-0.0279-0.2111-1.5978-7.634-1.937-9.299-0.0939-0.46262 0.38351-0.42962 0.5053-0.29077 0.98327 1.1193 5.8837 6.7697 6.1523 7.0485z"/>
   <path d="m62.691 44.822c-8.2873-0.3932-15.129-3.5695-19.02-6.6508-0.86777-0.99806-1.9353-1.7657-2.947-2.1412-0.0129-0.0097-0.02613-0.01984-0.03984-0.02952-0.45636-0.02565-0.91954-0.06485-1.3896-0.11549 6.8152 9.6894 18.497 12.728 20.548 12.544 1.4601-0.13033 5.548-5.8285 5.8627-8.5268-1.088 2.5322-2.2858 4.4264-3.0147 4.9198"/>
   <path d="m40.608 35.995c-0.43189-0.025-0.8689-0.06145-1.3133-0.10984 0.4097 0.58211 0.83761 1.1392 1.2786 1.6741-0.26572-0.73688-0.16672-1.2462 0.03468-1.5642"/>
   <path d="m43.671 38.171c-0.40571-0.4666-0.85582-0.8797-1.3224-1.2291 0.0032 0.0032 0.0048 8e-3 8e-3 0.01129 4.1692 5.4296 13.167 10.502 17.591 10.422 0.74202-0.0129 2.2977-1.9005 2.7342-2.5538-8.2833-0.39547-15.121-3.5701-19.011-6.6502"/>
   <path d="m43.671 38.171c-0.40571-0.4666-0.85582-0.8797-1.3224-1.2291 0.0032 0.0032 0.0048 8e-3 8e-3 0.01129 1.7213 2.2419 4.266 4.4213 6.9711 6.2035 0.16388-0.46489 0.3841-0.90646 0.64414-1.29-2.5407-1.1096-4.6774-2.4104-6.3008-3.6952"/>
  </g>
  <path d="m43.671 38.171c-0.40571-0.4666-0.85582-0.8797-1.3224-1.2291 0.0032 0.0032 0.0048 8e-3 8e-3 0.01129 1.7213 2.2419 4.266 4.4213 6.9711 6.2035 0.16388-0.46489 0.3841-0.90646 0.64414-1.29-2.5407-1.1096-4.6774-2.4104-6.3008-3.6952z" fill="none" stroke="#006837" stroke-linecap="round" stroke-linejoin="round" stroke-miterlimit="10" stroke-width="3.9832"/>
  <g fill="#006837">
   <path d="m62.682 44.821c-0.3659-0.0171-0.72722-0.0421-1.0868-0.07-0.23557 0.87061-0.67543 1.7355-1.2769 2.5054 0.80119-0.42051 1.9904-1.8772 2.3637-2.4354"/>
   <path d="m65.255 40.811c-0.91215 2.8007-4.217 7.2682-5.4325 7.3842-1.8385 0.16387-13.329-2.6471-20.211-12.27l-0.51953 0.08195c6.884 10.046 18.641 12.817 20.807 12.653 1.797-0.23729 6.014-6.4988 6.0607-9.0224z"/>
   <path d="m59.943 47.14c-3.4881 0.0632-11.185-3.953-15.839-8.3948 4.1795 3.3066 10.549 5.8626 18.138 6.2871-0.63217 0.83478-1.8027 2.0929-2.2994 2.1077m7.5561-13.725c-1.0168 5.214-3.623 10.214-4.8794 11.168-7.5857-0.3767-14.658-2.951-19.589-7.2767-0.65552-0.57527-0.93719-0.51496-0.36532 0.26859 3.5837 4.9084 13.047 10.112 17.287 10.035 0.91556-0.12065 2.4758-2.0411 2.8844-2.6033 0.0551-0.0319 0.11613-0.0849 0.20883-0.17072 1.4522-1.3509 4.3917-6.7799 5.2339-12.408z"/>
   <path d="m68.35 22.548c-0.82167-2.5891-3.3578-3.6014-6.7566-3.9894l0.31241 8.0022z"/>
  </g>
  <path d="m68.35 22.548c-0.82167-2.5891-3.3578-3.6014-6.7566-3.9894l0.31241 8.0022z" fill="none" stroke="#006837" stroke-linecap="round" stroke-linejoin="round" stroke-miterlimit="10" stroke-width="3.9832"/>
  <g fill="#006837">
   <path d="m53.746 63.346c-1.7611 0.0222-5.1849-1.1637-7.6272-2.4798-1.1323-0.61-1.7879-0.50187-2.2482 0.57586-1.2439 2.9072-0.88996 7.4753 0.28109 11.633 1.0971 3.8961 4.0731 8.1558 7.0451 10.042 2.1816 1.3856 2.1498 0.90873 1.3617-0.59861-1.9136-3.6594-4.4503-12.907-5.0222-16.997 1.2894 0.53432 5.8632 0.55252 7.5686 0.0164 1.0419-0.2077-0.14855-2.2215-1.3588-2.1919"/>
   <path d="m65.454 49.2c-2.9749-2.7717-5.3226-1.5756-5.2174 2.0371 0.0529 1.818 0.27655 5.264 0.31752 6.9785 0.0189 2.226 0.88882 2.8582 1.377 2.329 0.44214-0.48024 1.1989-1.4584 1.3548-2.0212 2.2624 5.3409 6.2576 9.3445 11.836 12.833 1.2701 0.7938 1.8749 0.82168 1.6217-1.0976-1.1671-8.8381-4.7451-14.961-11.289-21.058"/>
   <path d="m92.747 46.478c0.57357-2.9413 2.2425-10.811 1.8192-10.957-0.92581-0.31922-7.0144 13.192-7.1817 13.653-0.0518 0.14114 0.38011 0.43872 0.50417 0.38637 1.5005-0.85183 4.7809-2.2175 4.8583-3.0824"/>
   <path d="m65.476 19.795c-2.5054-0.21567-3.9416 4.4111-3.4324 8.0727 0.69079 4.9647 2.7171 7.3455 3.6833 7.4286 0.1571 0.0129 2.3859-1.109 3.1091-6.8749 0.63731-5.0785-1.0521-8.4272-3.3601-8.6264"/>
   <path d="m47.537 65.521c1.2354 0.51212 5.4848 0.54966 7.3381 0.0802 0.42336-0.10129 0.26516-0.3619-0.22931-0.37498-1.0021-0.0272-4.4902-0.11614-6.3037-0.64356-0.76705-0.22365-1.5808-0.54571-1.4123 0.91839 1.3145 11.45 5.3562 16.356 3.4517 17.072 3.2446 2.2158 2.9282 1.3799 2.1777-0.0547-1.9136-3.66-4.4503-12.908-5.0222-16.998"/>
   <path d="m73.769 70.474c0.441 0.29704 0.8894 0.59235 1.3532 0.882 1.2695 0.79378 1.8749 0.82167 1.6217-1.0976-0.63446-4.8003-1.9859-8.7965-4.1311-12.426 3.1729 8.4426 3.009 11.86 1.1562 12.641"/>
   <path d="m61.569 60.267c-8e-3 0.3249 0.39776 0.63276 0.81372 0.0899 0.4114-0.53602 0.77386-1.3679 0.9036-1.8334-0.371-0.87631-0.69536-1.789-0.9719-2.7404-0.11952 1.8135-0.72835 3.8034-0.74542 4.4839"/>
  </g>
  <path d="m61.569 60.267c-8e-3 0.3249 0.39776 0.63276 0.81372 0.0899 0.4114-0.53602 0.77386-1.3679 0.9036-1.8334-0.371-0.87631-0.69536-1.789-0.9719-2.7404-0.11952 1.8135-0.72835 3.8034-0.74542 4.4839z" fill="none" stroke="#006837" stroke-linecap="round" stroke-linejoin="round" stroke-miterlimit="10" stroke-width="3.9832"/>
  <g fill="#006837">
   <path d="m94.605 36.09c-0.24638 0.41481-6.6536 12.977-6.4761 13.441 0.2202 0.43587 4.7616 0.76363 5.5304 0.24354 0.53772-0.36419-0.8706-2.4149-0.91272-3.2969 0.52123-2.6716 1.7896-8.7209 1.8584-10.388"/>
   <path d="m51.071 83.315c-3.0198-1.917-6.1142-6.1028-7.2351-10.083-1.3207-4.6905-1.3719-9.2751-0.22078-11.967 0.44839-1.0476 1.1324-1.4686 2.5765-0.69023 2.8912 1.558 5.6572 2.3176 6.6644 2.5384 1.1699 0.2572 1.1665 0.56616-0.0171 0.40001-1.9705-0.27825-4.8435-1.3702-6.8306-2.4417-1.0641-0.57244-1.579-0.33912-1.921 0.46149-1.1107 2.5959-1.0015 6.8863 0.29077 11.477 1.0925 3.8796 4.0133 8.0466 6.9444 9.9073 1.7259 1.0959 1.7662 1.0032 1.0282-0.29078-2.3114-4.0537-4.8008-13.397-4.9329-17.562-0.02952-0.92636 0.2663-0.84099 0.35279-0.0586 0.40742 3.6742 2.9561 13.499 4.9966 17.403 0.94798 1.8129 0.74371 2.4553-1.6963 0.90589"/>
   <path d="m47.591 65.762c2.2744 0.85012 6.1842 0.30898 6.8101 0.0768 0.98613-0.36531 0.93263-0.5383-0.0722-0.36247-2.0866 0.36418-5.9964 0.26972-6.8329-0.23614z"/>
   <path d="m74.998 71.555c-8.1336-4.6415-12.628-11.231-13.475-18.46-0.13662-1.1665 0.1633-1.2359 0.38011-0.0666 1.4112 7.6414 5.5531 13.257 13.344 18.127 1.0618 0.66291 1.4732 0.7147 1.2644-0.8672-1.1198-8.4779-4.3695-14.537-11.217-20.917-2.7461-2.5589-4.9215-1.5768-4.8213 1.8584 0.0257 0.87005 0.26687 5.5207 0.29874 6.3731 0.0307 0.8467-0.31184 0.85353-0.34369 2e-3 -0.0313-0.84501-0.42507-5.5275-0.4501-6.4032-0.10921-3.7373 2.3802-5.2333 5.5838-2.2488 7.4309 6.9228 10.234 12.324 11.416 21.275 0.30442 2.3051-0.6322 2.0968-1.9796 1.3275"/>
   <path d="m63.411 58.858c-0.21338 0.47001-0.62818 1.0333-0.95594 1.4356-0.45864 0.5639-0.66576 0.36646-0.24184-0.2515 0.44725-0.65325 0.85409-1.389 0.86831-1.6917z"/>
  </g>
  <path d="m63.411 58.858c-0.21338 0.47001-0.62818 1.0333-0.95594 1.4356-0.45864 0.5639-0.66576 0.36646-0.24184-0.2515 0.44725-0.65325 0.85409-1.389 0.86831-1.6917z" fill="none" stroke="#006837" stroke-linecap="round" stroke-linejoin="round" stroke-miterlimit="10" stroke-width="3.9832"/>
  <path d="m87.139 49.032c0.57473-1.5773 5.9725-12.695 6.9814-13.506 0.24013-0.19291 0.69194 0.05064 0.71243 0.11839 0.12 0.39605-1.566 9.3974-1.8544 10.879-0.0768 0.39204-0.48139 0.68851-0.93036 0.90758-0.65552 0.31866-0.78354 0.0946-0.18038-0.30443 0.31411-0.20825 0.60146-0.4535 0.64869-0.69363 0.0888-0.45409 1.7219-8.5393 1.9011-10.41 0.0113-0.10872-0.10757-0.12694-0.18037-0.03193-1.5113 1.9751-6.0698 11.824-6.6052 13.193 0.0489 0.0506 0.14629 0.11726 0.20655 0.14049 0.10694-0.0529 1.0168-0.54742 1.6382-0.88313 0.74884-0.40287 0.89906-0.24696 0.16444 0.30612-0.59291 0.44614-1.5864 0.99752-1.661 1.0294-0.18436 0.0774-0.97303-0.3784-0.84103-0.74542" fill="#006837"/>
  <path d="m65.644 19.838c-0.92011-0.45636-2.09-0.77672-3.5416-0.97814-0.74029-0.10307-0.75907-0.43189 6e-3 -0.39832 2.6596 0.11549 5.606 1.3065 6.4647 4.015-1.4618-2.0553-1.5148-2.2226-2.9299-2.6386" fill="#006837"/>
  <path d="m65.644 19.838c-0.92011-0.45636-2.09-0.77672-3.5416-0.97814-0.74029-0.10307-0.75907-0.43189 6e-3 -0.39832 2.6596 0.11549 5.606 1.3065 6.4647 4.015-1.4618-2.0553-1.5148-2.2226-2.9299-2.6386z" fill="none" stroke="#006837" stroke-linecap="round" stroke-linejoin="round" stroke-miterlimit="10" stroke-width="3.9832"/>
  <path d="m40.031 36.11c-10.782 0.1838-34.135-12.502-35.028-17.224-0.01934-0.10307 0.01145-0.20714 0.08592-0.29419 1.5369-1.7816 31.391-2.8998 35.472-2.2767 0.82735 0.12694 0.76931 0.39376-0.04388 0.37157-8.6617-0.23729-30.487 0.92238-34.473 1.9648-0.57528 0.15017-0.62536 0.272-0.27939 0.78923 2.6249 3.9177 21.191 15.194 34.241 16.278 0.99637 0.08259 1.0863 0.37328 0.025 0.39149" fill="#006837"/>
  <path d="m45.024 25.561c2.4781-1.1648 5.8501 0.7898 7.531 4.3667 0.31524 0.66973 0.54 1.3093 0.69079 1.9148l0.01019 0.0032c-0.46773-4.5266-5.2435-9.3929-8.7931-7.7245-2.4536 1.1534-3.4625 4.7314-1.2826 9.2484-1.1176-2.6704-0.50701-6.7048 1.8436-7.8093" fill="#006837"/>
  <path d="m45.024 25.561c2.4781-1.1648 5.8501 0.7898 7.531 4.3667 0.31524 0.66973 0.54 1.3093 0.69079 1.9148l0.01019 0.0032c-0.46773-4.5266-5.2435-9.3929-8.7931-7.7245-2.4536 1.1534-3.4625 4.7314-1.2826 9.2484-1.1176-2.6704-0.50701-6.7048 1.8436-7.8093z" fill="none" stroke="#006837" stroke-linecap="round" stroke-linejoin="round" stroke-miterlimit="10" stroke-width="3.9832"/>
  <path d="m62.614 27.885c0.35508-4.1231 2.0354-7.3455 3.755-7.1976 1.3361 0.11549 2.8776 2.4912 2.5578 6.8363 0.34142-4.5721-1.2809-7.5419-3.45-7.7285-2.5054-0.21622-3.9411 4.4111-3.4324 8.0722 0.24411 1.7543 0.65608 3.1797 1.1284 4.3012l3e-3 -0.0065c-0.43926-1.1619-0.705-2.6095-0.56161-4.2773" fill="#006837"/>
  <path d="m62.614 27.885c0.35508-4.1231 2.0354-7.3455 3.755-7.1976 1.3361 0.11549 2.8776 2.4912 2.5578 6.8363 0.34142-4.5721-1.2809-7.5419-3.45-7.7285-2.5054-0.21622-3.9411 4.4111-3.4324 8.0722 0.24411 1.7543 0.65608 3.1797 1.1284 4.3012l3e-3 -0.0065c-0.43926-1.1619-0.705-2.6095-0.56161-4.2773z" fill="none" stroke="#006837" stroke-linecap="round" stroke-linejoin="round" stroke-miterlimit="10" stroke-width="3.9832"/>
  <path d="m44.563 24.335c-2.8349 1.3326-3.1416 5.886-0.77615 9.6984 2.4553 3.9587 6.8175 4.5937 8.0238 4.0258 0.61056-0.32832 2.477-3.3151 0.76762-8.0875-1.327-3.7089-5.1889-6.9649-8.0153-5.6367m-1.1813 9.9374c-2.222-3.4341-2.5094-8.722 0.981-10.363 3.3413-1.5705 7.3575 2.1964 8.6691 5.9144 1.6695 4.7371 0.02109 8.1712-1.0208 8.6611-1.3389 0.62934-5.7397 0.25322-8.6293-4.2125" fill="#006837"/>
  <path d="m44.563 24.335c-2.8349 1.3326-3.1416 5.886-0.77615 9.6984 2.4553 3.9587 6.8175 4.5937 8.0238 4.0258 0.61056-0.32832 2.477-3.3151 0.76762-8.0875-1.327-3.7089-5.1889-6.9649-8.0153-5.6367zm-1.1813 9.9374c-2.222-3.4341-2.5094-8.722 0.981-10.363 3.3413-1.5705 7.3575 2.1964 8.6691 5.9144 1.6695 4.7371 0.02109 8.1712-1.0208 8.6611-1.3389 0.62934-5.7397 0.25322-8.6293-4.2125z" fill="none" stroke="#006837" stroke-linecap="round" stroke-linejoin="round" stroke-miterlimit="10" stroke-width="3.9832"/>
  <path d="m62.277 27.835c0.59862 4.3024 2.1964 6.5085 3.0972 7.0775 0.3232 0.20428 0.3232 0.20315 0.66235-0.06935 0.64355-0.51725 2.0212-2.1071 2.5663-6.451 0.50701-4.0401-0.61454-8.1444-3.1473-8.3624-2.3967-0.20712-3.6418 4.4742-3.1786 7.8053m2.9043 7.5134c-1.1978-0.69023-2.791-3.2804-3.3703-7.4485-0.35961-2.5862 0.24468-5.6003 1.4374-7.1674 0.64015-0.84101 1.4123-1.2439 2.2476-1.1722 2.4514 0.21225 4.2375 3.6008 3.574 8.8904-0.54798 4.365-1.9734 6.2018-2.7945 6.8192-0.52748 0.39718-0.55537 0.38865-1.0942 0.07855" fill="#006837"/>
  <path d="m53.183 32.194c-0.15484-0.62422-0.50813-1.5517-0.8046-2.1822-1.6325-3.4728-4.8942-5.3892-7.2704-4.2728-2.2937 1.0777-3.0403 5.6322-1.3611 8.3043l-0.96166-1.1927c-0.92238-2.9845-0.02952-6.5341 2.0809-7.5259 2.5709-1.2097 6.1426 0.85127 7.8673 4.5203 0.11097 0.23729 0.21394 0.4757 0.30669 0.71413z" fill="#006837"/>
  <path d="m53.183 32.194c-0.15484-0.62422-0.50813-1.5517-0.8046-2.1822-1.6325-3.4728-4.8942-5.3892-7.2704-4.2728-2.2937 1.0777-3.0403 5.6322-1.3611 8.3043l-0.96166-1.1927c-0.92238-2.9845-0.02952-6.5341 2.0809-7.5259 2.5709-1.2097 6.1426 0.85127 7.8673 4.5203 0.11097 0.23729 0.21394 0.4757 0.30669 0.71413z" fill="none" stroke="#006837" stroke-linecap="round" stroke-linejoin="round" stroke-miterlimit="10" stroke-width="3.9832"/>
  <path d="m67.993 21.601c-0.46092-0.67089-1.0202-1.0578-1.6081-1.1085-2.0536-0.17867-3.6503 3.7055-3.9667 7.3763-0.0655 0.75681-0.0507 1.4994 0.0421 2.222l0.73062 1.5136c-0.36473-1.1676-0.49334-2.4132-0.38182-3.7021 0.32436-3.7709 1.8863-7.1623 3.5422-7.0195 1.0573 0.09162 1.9796 1.7259 2.2909 4.0332-0.14903-1.7981-0.39605-2.7142-0.64926-3.3151" fill="#006837"/>
  <path d="m67.993 21.601c-0.46092-0.67089-1.0202-1.0578-1.6081-1.1085-2.0536-0.17867-3.6503 3.7055-3.9667 7.3763-0.0655 0.75681-0.0507 1.4994 0.0421 2.222l0.73062 1.5136c-0.36473-1.1676-0.49334-2.4132-0.38182-3.7021 0.32436-3.7709 1.8863-7.1623 3.5422-7.0195 1.0573 0.09162 1.9796 1.7259 2.2909 4.0332-0.14903-1.7981-0.39605-2.7142-0.64926-3.3151z" fill="none" stroke="#006837" stroke-linecap="round" stroke-linejoin="round" stroke-miterlimit="10" stroke-width="3.9832"/>
  <path d="m47.643 32.094c-0.20883-0.61455-0.57528-1.0043-0.8524-0.91045-0.27655 0.09388-0.3272 0.64414-0.11839 1.2587 0.2094 0.61455 0.60545 1.0129 0.88312 0.91896 0.27598-0.09452 0.29703-0.65266 0.08758-1.2672" fill="#006837"/>
  <path d="m47.643 32.094c-0.20883-0.61455-0.57528-1.0043-0.8524-0.91045-0.27655 0.09388-0.3272 0.64414-0.11839 1.2587 0.2094 0.61455 0.60545 1.0129 0.88312 0.91896 0.27598-0.09452 0.29703-0.65266 0.08758-1.2672z" fill="none" stroke="#006837" stroke-linecap="round" stroke-linejoin="round" stroke-miterlimit="10" stroke-width="3.9832"/>
  <path d="m64.812 26.861c-0.24752 0.01452-0.41823 0.50246-0.38295 1.0891 0.0365 0.58609 0.26574 1.0493 0.51327 1.0339 0.24752-0.01613 0.41879-0.50302 0.38238-1.0891-0.0354-0.58609-0.2646-1.0493-0.5127-1.0339" fill="#006837"/>
  <path d="m64.812 26.861c-0.24752 0.01452-0.41823 0.50246-0.38295 1.0891 0.0365 0.58609 0.26574 1.0493 0.51327 1.0339 0.24752-0.01613 0.41879-0.50302 0.38238-1.0891-0.0354-0.58609-0.2646-1.0493-0.5127-1.0339z" fill="none" stroke="#006837" stroke-linecap="round" stroke-linejoin="round" stroke-miterlimit="10" stroke-width="3.9832"/>
  <g>
   <path d="m42.186 36.627c-0.39376-0.2976-1.0715-0.70615-1.6911-0.83419-0.37499-0.0779-0.75794 0.33174-0.48026 0.31922 0.5309-0.02387 1.4288 0.43872 1.9819 0.74941 0.34368 0.1929 0.54058 0.03128 0.18948-0.23445" fill="#006837"/>
   <path d="m72.718 27.626c8.409-2.0695 12.874-7.836 12.767-8.2765-0.1092-0.45693-3.8722-0.34028-7.8355 2.1851-0.99351 0.70673-4.7696 4.5067-4.9317 6.0914" fill="#eb6d81"/>
   <path d="m72.797 27.563c4.6074-0.72892 8.0414-0.10307 8.1012 0.2202 0.11211 0.59861-6.4874 3.5092-11.709 3.6213-0.0682-0.54001 2.494-3.8563 3.6076-3.8415" fill="#eb6d81"/>
   <path d="m81.237 19.789c-0.60772 0.15017-2.8781 1.1819-3.5877 1.7463-0.99352 0.70673-4.7696 4.5067-4.9317 6.0914 1.4687-0.3619 2.8161-0.83704 4.0406-1.377 0.30897-1.7691 2.5839-5.0547 4.4788-6.4607" fill="#cb5e71"/>
   <path d="m76.494 27.18c-0.91898 0.04388-2.6226 0.21338-3.6975 0.38352-1.1136-0.01452-3.6759 3.302-3.6076 3.8415 1.5318-0.03307 3.5587-0.38295 5.3773-0.86719 0.099-1.1904 1.1671-3.0483 1.9278-3.3578" fill="#cb5e71"/>
   <path d="m67.686 33.004c5.3938-5.1684 15.452-16.593 18.431-27.616 0.19119-0.70559 0.16671-0.79493-0.81484-0.57528-10.5 2.3449-24.168 7.0991-28.723 8.8756 1.8954 5.375 8.6867 16.05 11.106 19.316" fill="#538e74"/>
   <path d="m85.302 4.8122c-3.7487 0.8376-7.9003 1.9819-11.898 3.1888 2.7763 1.0902 7.8628 4.192 9.1892 5.89 1.5113-2.7848 2.7541-5.6572 3.5234-8.5035 0.19119-0.70559 0.16671-0.79436-0.81484-0.57528" fill="#eb6d81"/>
   <path d="m86.638 44.844c-0.56561-0.5878-5.5207-6.4192-6.294-7.2585 0.26743 1.4988 2.0149 9.1835 2.0832 9.6979 1.9387-0.25663 3.3726-0.86376 4.2108-2.4394" fill="#538e74"/>
   <path d="m91.769 53.861c0.0882 2.255 0.42904 7.4753 0.17298 7.6488-0.28963 0.19573-3.0454-3.5576-3.8227-4.6563 0.0455-0.77672 2.9259-3.1387 3.6497-2.9925" fill="#538e74"/>
   <path d="m86.638 44.844c-0.43417-0.45067-3.4449-3.9803-5.1764-5.9827 0.53887 2.3637 1.3372 5.7614 1.9131 8.256 1.4624-0.32718 2.568-0.96677 3.2634-2.2732" fill="#3e715c"/>
   <path d="m88.12 56.853c0.36248 0.51213 1.1546 1.6012 1.9273 2.5982 0.5713-0.52352 1.2683-1.0812 1.9165-1.4971-0.0643-1.48-0.15485-3.0835-0.19404-4.0936-0.72379-0.1463-3.6042 2.2152-3.6497 2.9925" fill="#3e715c"/>
   <path d="m35.647 35.259c-9.8965 2.5157-20.451-2.0644-20.388-2.8167 0.07629-0.90248 7.1919-1.3452 9.2671-0.94514 2.9322 0.72834 7.9191 2.5805 11.12 3.7618" fill="#eb6d81"/>
   <path d="m39.89 36.582c-7.0047 4.8771-16.598 4.5994-16.778 4.0987-0.36758-1.0208 6.8528-4.4384 10.519-5.0159 2.0104-1.1022 6.5148-0.26745 6.2587 0.91725" fill="#eb6d81"/>
   <path d="m35.647 35.259c-2.1583-0.79607-5.1269-1.8966-7.7313-2.7529 0.68624 1.0675 1.1819 2.5566 0.92296 3.4921 2.2129 0.04048 4.5272-0.15872 6.8084-0.73916" fill="#cb5e71"/>
   <path d="m33.632 35.665c-1.0339 0.16332-2.3518 0.55194-3.7015 1.0493 1.0356 0.44497 1.8988 1.954 1.9569 3.3567 2.6306-0.64982 5.4837-1.735 8.0033-3.4887 0.25606-1.1847-4.2483-2.0195-6.2587-0.91727" fill="#cb5e71"/>
   <path d="m55.314 44.587c3.1342 7.5367 10.438 10.265 20.891 5.7494 6.2012-2.679 12.921-8.2429 18.882-8.3988 7.5845-0.19746 12.389 3.2099 15.897 4.5493 5.75 2.1953 10.685 1.4231 15.626-2.4354 0.71641-0.55935 0.97531-0.36132 0.48482 0.33118-3.1063 5.1428-11.368 8.6218-16.868 6.9347-4.6876-1.4379-7.0411-2.172-11.635-0.9736-6.6895 1.744-15.119 11.623-19.128 14.382-6.0675 4.1738-10.756 5.1047-15.675 4.6154-15.052-1.4988-21.48-16.899-19.92-29.38 0.47457 0.04392 10.656 4.1431 11.444 4.6256" fill="#a3d5c0"/>
   <path d="m56.482 46.863c-0.43644-0.70104-0.82792-1.4584-1.1682-2.2755-0.78753-0.48254-10.969-4.5818-11.444-4.6256-0.27426 2.1936-0.30044 4.4765-0.0779 6.7589 3.8796 3.8523 10.216 2.7097 12.69 0.14227" fill="#8cb9a7"/>
  </g>
  <g fill="#538e74">
   <path d="m93.65 46.185c-1.0811-1.8755-3.6463-2.576-6.1688-1.9091-2.4957 1.2513-5.0268 2.8104-7.5185 4.1818 3.339-1.2086 5.3835-0.40459 7.1458 2.3222 1.2564 1.9449 1.5881 5.0097-0.36077 7.5162 2.1276-1.9278 4.4293-3.8995 6.7076-5.4291 1.5972-1.9409 1.6656-4.1305 0.19461-6.682"/>
   <path d="m67.975 27.102c-1.3583-8.1757-10.717-15.657-19.258-14.478-9.9369 1.3708-14.167 8.5098-11.977 18.237 0.22419 0.99466 0.5747 1.9319 1.0191 2.8184 0.86948 0.6817 1.9119 1.5648 2.9646 2.3506 1.0123 0.37612 2.0798 1.1432 2.9475 2.1418 3.891 3.0807 10.732 6.257 19.02 6.6508 1.7924-1.2137 6.418-10.896 5.2846-17.721"/>
   <path d="m40.744 36.004c-14.047-0.74826-34.892-13.896-35.509-17.162-0.24468-1.294 27.447-2.6949 35.905-2.3711 0.96051 3.2212 0.66747 17.905-0.39547 19.533"/>
  </g>
  <g>
   <path d="m21.101 16.982c-8.4364 0.47343-15.995 1.1813-15.867 1.8601 0.29191 1.5432 5.1019 5.2931 11.576 8.899-0.08758-2.1264 2.498-9.2649 4.2905-10.759" fill="#eb6d81"/>
   <path d="m53.266 31.922c-0.42278-4.5476-5.2333-9.4777-8.8028-7.8002-2.5919 1.2188-3.5746 5.1451-0.88256 10.025 2.6329 4.1886 7.0781 4.7138 8.3305 4.1254 0.36702-0.17241 2.2596-2.5953 1.3548-6.3503" fill="#fff697"/>
   <path d="m53.775 65.638c2.762 1.9785 6.0954 3.3134 10.015 3.7038 4.9186 0.48935 9.6068-0.44156 15.674-4.6159 0.68738-0.47285 1.5079-1.1585 2.424-1.9734-1.7674 0.94117-15.744 8.6685-28.114 2.8855" fill="#8cb9a7"/>
   <path d="m126.61 44.052c-4.3422 3.3914-8.681 4.398-13.572 3.1012 0.60431 2.1014-0.12178 3.7072-2.7279 4.188 5.4996 1.6274 13.695-1.8408 16.786-6.958 0.48993-0.69249 0.23103-0.89051-0.48538-0.33116" fill="#8cb9a7"/>
  </g>
  <g fill="#0f141b">
   <path d="m40.331 16.43c2.0883-1.8892 4.9186-3.0909 8.4187-3.5735 2.3102-0.31864 6.0476-0.08871 10.121 2.3159 0.82736 0.48765 1.0504 0.3215 0.19745-0.33686-2.3563-1.8203-6.7532-3.0716-10.382-2.5692-3.7043 0.51099-7.0866 2.0519-9.1482 4.1368z"/>
   <path d="m62.481 45.047c-9.2592-0.46206-16.288-4.0435-19.72-7.4958-0.68226-0.68681-0.39831-0.83077 0.26972-0.24524 4.9312 4.3263 12.004 6.9005 19.589 7.2772 1.7731-1.3469 6.2348-10.752 5.1235-17.443-0.61512-3.7043-2.9094-7.3888-6.3264-10.187-0.8063-0.66006-0.64242-0.81085 0.22704-0.29645 0.96791 0.57243 5.5753 3.9701 6.6627 10.314 1.2154 7.0923-3.3334 16.073-5.2612 17.865-0.25151 0.23443-0.27256 0.22533-0.56504 0.21111"/>
   <path d="m35.705 35.487c-9.1767 2.7199-18.889-1.3247-20.427-2.6277-0.36645-0.31126-0.41994-0.50417-0.02161-0.80575 0.94288-0.7147 6.1603-1.3298 8.2383-0.97814l0.98782 0.65266c-1.9392-0.37384-7.209 0.0016-8.6406 0.53091-0.35962 0.13307-0.36645 0.19574-0.08597 0.38978 1.6963 1.1693 10.686 4.5158 19.392 2.49z"/>
   <path d="m40.024 36.775c-5.7141 4.7286-15.24 4.7309-16.82 4.2273-0.40571-0.1292-0.48252-0.32263-0.23443-0.74315 0.68624-1.1585 5.6846-3.9132 8.9166-4.4344l1.7822 0.07274c-2.8633 0.45067-8.7795 3.1632-10.023 4.2859-0.33118 0.29931-0.33971 0.40858 0.15598 0.47287 2.1498 0.2794 10.013-0.13033 15.954-4.2671z"/>
   <path d="m21.44 17.025c-1.7002 0.99239-4.6518 8.8267-4.3832 10.856l-0.48254-0.27997c-0.0097-2.4445 2.2733-8.9177 4.1693-10.609z"/>
   <path d="m39.357 32.851c-0.89678-3.7522-0.18949-10.541 1.1671-12.812 0.31468-0.52749 0.48936-0.47286 0.25664 0.08016-1.1011 2.613-1.7042 9.1266-1.1642 12.686 0.08372 0.54683-0.1292 0.59406-0.25946 0.04549"/>
   <path d="m53.242 29.681c-0.19575-0.99408-0.50586-2.6522-0.66065-3.4938-0.09726-0.53146 0.13888-0.62193 0.30954-0.05129 0.24355 0.81372 0.5935 2.4502 0.65381 3.4597 0.03984 0.66747-0.19004 0.66008-0.3027 0.08533"/>
   <path d="m60.991 27.262c-0.4683-1.2501-1.6843-3.7635-2.3552-4.8048-0.32947-0.51098-0.17697-0.61113 0.23216-0.15646 0.80346 0.89337 2.0786 3.5547 2.3848 4.8572 0.16161 0.69023-0.0387 0.69876-0.26175 0.1042"/>
   <path d="m42.398 26.561c0.26687-1.4499 0.80004-2.7933 1.5119-3.8182 0.46886-0.676 0.29418-0.87119-0.29989-0.19974-1.2649 1.4305-3.1655 6.4391-0.73347 10.768-1.5796-3.9479-0.72892-5.8672-0.47854-6.7503"/>
   <path d="m82.719 13.669c-1.3879-1.8784-6.1204-4.7053-8.9804-5.7864l-0.63731 0.25322c2.7876 1.0316 8.2048 4.3621 9.3747 5.9873z"/>
   <path d="m77.775 21.733c3.0653-1.9529 5.8894-2.3814 7.0183-2.3512 0.45294 0.01129 0.43814 0.08936 0.21794 0.40515-1.0225 1.4635-5.2271 5.7796-12.107 7.5487l-0.13145 0.51838c8.149-1.9922 11.867-6.5233 12.773-8.0961 0.32718-0.5679 0.24922-0.72494-0.41198-0.81599-1.0749-0.14904-4.3661 0.21054-7.1031 2.0815z"/>
   <path d="m72.833 27.796c3.5296-0.55935 6.2069-0.31353 7.3239-0.06887 0.47229 0.10355 0.44669 0.15598 0.053 0.39262-1.5182 0.91045-6.4146 2.8491-10.677 3.0386l-0.33971 0.48196c5.0472 0.1263 11.065-2.6272 11.829-3.5672 0.23672-0.29077 0.23387-0.41596-0.2333-0.62022-1.0294-0.4501-4.2944-0.79607-7.733-0.16673z"/>
   <path d="m55.807 44.801c2.7507 6.294 9.0184 10.195 20.305 5.3198 2.1105-0.91157 4.3217-2.2289 6.4675-3.4625 4.1863-2.4058 8.516-4.8936 12.495-4.9977 7.5686-0.19746 12.214 3.1632 15.994 4.6068 5.6464 2.156 10.539 1.3918 15.397-2.4013 1.1392-0.88938 1.3679-0.25833 0.82225 0.65212-3.1922 5.3295-11.491 8.899-17.079 7.1856-3.8904-1.2097-7.0172-2.3518-11.557-1.1323-6.7868 1.822-14.669 11.553-18.966 14.508-5.6532 3.8893-10.386 5.198-15.831 4.6563-15.429-1.5369-21.915-16.887-20.319-29.661l0.5309 0.21167c-1.4937 13.004 5.4347 27.396 19.746 28.82 5.4308 0.54058 10.064-0.83929 15.518-4.5755 4.0532-2.7763 12.411-12.62 19.201-14.416 4.7798-1.2638 7.3063-0.40003 11.764 0.97645 5.3101 1.6291 13.555-1.7662 16.598-6.8317 0.16273-0.27086 0.15195-0.25208-0.13887-0.0246-5.0012 3.9064-10.056 4.7633-15.872 2.543-3.2776-1.2513-8.4915-4.7969-15.79-4.6062-3.8631 0.10129-8.1382 2.5583-12.273 4.9351-2.1572 1.2399-4.3877 2.5219-6.5227 3.4437-12.018 5.1906-18.469 0.69763-21.202-5.8746z"/>
   <path d="m87.293 57.938c1.616-2.4986 1.257-5.3983 0.0438-7.2756-1.7321-2.6801-3.759-3.5206-6.6957-2.6755l-1.3446 0.98441c3.59-1.529 5.7255-0.98727 7.6141 1.9364 1.3127 2.0303 1.587 5.3648-0.91157 7.8855z"/>
   <path d="m93.97 52.581c1.34-1.9188 1.3417-4.0577-0.0752-6.5159-1.0299-1.7867-3.3891-2.6118-5.8712-2.1566l-0.75454 0.66803c2.5936-0.79322 5.1332-0.0826 6.1762 1.7258 1.426 2.4736 1.3594 4.5852-0.20427 6.4567z"/>
   <path d="m92.004 53.851c0.11662 1.7731 0.34198 6.1221 0.24752 7.3142-0.0313 0.39035-0.41197 0.67088-0.75964 0.35224-0.60033-0.55082-2.3626-2.8264-3.4688-4.394l0.28849-0.4063c1.1364 1.6052 2.8525 3.854 3.4739 4.4361 0.0643-0.85298-0.21851-6.5119-0.239-6.9853z"/>
   <path d="m67.849 33.174c3.5109-2.9794 15.025-14.878 18.496-27.725 0.26971-0.9992 0.0899-1.1306-1.0937-0.86662-10.456 2.3358-24.161 6.8129-29.066 8.9251l0.48082 0.39946c4.6205-1.8015 18.259-6.5358 28.688-8.8654 0.60715-0.13543 0.61968-0.02049 0.5366 0.28451-3.3191 12.283-15.046 24.282-18.074 27.225z"/>
   <path d="m86.339 44.868c-0.46831-0.51838-4.9835-5.7727-5.5952-6.4749 0.24525 1.1784 1.7332 7.9333 1.8528 8.5211l-0.49619 0.27312c-0.0279-0.2111-1.5978-7.634-1.937-9.299-0.0939-0.46262 0.38351-0.42962 0.5053-0.29077 0.98327 1.1193 5.8837 6.7697 6.1523 7.0485z"/>
  </g>
  <g>
   <path d="m62.691 44.822c-8.2873-0.3932-15.129-3.5695-19.02-6.6508-0.86777-0.99806-1.9353-1.7657-2.947-2.1412-0.0129-0.0097-0.02613-0.01984-0.03984-0.02952-0.45636-0.02565-0.91954-0.06485-1.3896-0.11549 6.8152 9.6894 18.497 12.728 20.548 12.544 1.4601-0.13033 5.548-5.8285 5.8627-8.5268-1.088 2.5322-2.2858 4.4264-3.0147 4.9198" fill="#a3d5c0"/>
   <path d="m40.608 35.995c-0.43189-0.025-0.8689-0.06145-1.3133-0.10984 0.4097 0.58211 0.83761 1.1392 1.2786 1.6741-0.26572-0.73688-0.16672-1.2462 0.03468-1.5642" fill="#8cb9a7"/>
   <path d="m43.671 38.171c-0.40571-0.4666-0.85582-0.8797-1.3224-1.2291 0.0032 0.0032 0.0048 8e-3 8e-3 0.01129 4.1692 5.4296 13.167 10.502 17.591 10.422 0.74202-0.0129 2.2977-1.9005 2.7342-2.5538-8.2833-0.39547-15.121-3.5701-19.011-6.6502" fill="#eb6d81"/>
   <path d="m43.671 38.171c-0.40571-0.4666-0.85582-0.8797-1.3224-1.2291 0.0032 0.0032 0.0048 8e-3 8e-3 0.01129 1.7213 2.2419 4.266 4.4213 6.9711 6.2035 0.16388-0.46489 0.3841-0.90646 0.64414-1.29-2.5407-1.1096-4.6774-2.4104-6.3008-3.6952" fill="#cb5e71"/>
   <path d="m62.682 44.821c-0.3659-0.0171-0.72722-0.0421-1.0868-0.07-0.23557 0.87061-0.67543 1.7355-1.2769 2.5054 0.80119-0.42051 1.9904-1.8772 2.3637-2.4354" fill="#cb5e71"/>
   <path d="m65.255 40.811c-0.91215 2.8007-4.217 7.2682-5.4325 7.3842-1.8385 0.16387-13.329-2.6471-20.211-12.27l-0.51953 0.08195c6.884 10.046 18.641 12.817 20.807 12.653 1.797-0.23729 6.014-6.4988 6.0607-9.0224z" fill="#0f141b"/>
   <path d="m59.943 47.14c-3.4881 0.0632-11.185-3.953-15.839-8.3948 4.1795 3.3066 10.549 5.8626 18.138 6.2871-0.63217 0.83478-1.8027 2.0929-2.2994 2.1077m7.5561-13.725c-1.0168 5.214-3.623 10.214-4.8794 11.168-7.5857-0.3767-14.658-2.951-19.589-7.2767-0.65552-0.57527-0.93719-0.51496-0.36532 0.26859 3.5837 4.9084 13.047 10.112 17.287 10.035 0.91556-0.12065 2.4758-2.0411 2.8844-2.6033 0.0551-0.0319 0.11613-0.0849 0.20883-0.17072 1.4522-1.3509 4.3917-6.7799 5.2339-12.408z" fill="#0f141b"/>
   <path d="m68.35 22.548c-0.82167-2.5891-3.3578-3.6014-6.7566-3.9894l0.31241 8.0022z" fill="#538e74"/>
   <path d="m53.746 63.346c-1.7611 0.0222-5.1849-1.1637-7.6272-2.4798-1.1323-0.61-1.7879-0.50187-2.2482 0.57586-1.2439 2.9072-0.88996 7.4753 0.28109 11.633 1.0971 3.8961 4.0731 8.1558 7.0451 10.042 2.1816 1.3856 2.1498 0.90873 1.3617-0.59861-1.9136-3.6594-4.4503-12.907-5.0222-16.997 1.2894 0.53432 5.8632 0.55252 7.5686 0.0164 1.0419-0.2077-0.14855-2.2215-1.3588-2.1919" fill="#a3d5c0"/>
   <path d="m65.454 49.2c-2.9749-2.7717-5.3226-1.5756-5.2174 2.0371 0.0529 1.818 0.27655 5.264 0.31752 6.9785 0.0189 2.226 0.88882 2.8582 1.377 2.329 0.44214-0.48024 1.1989-1.4584 1.3548-2.0212 2.2624 5.3409 6.2576 9.3445 11.836 12.833 1.2701 0.7938 1.8749 0.82168 1.6217-1.0976-1.1671-8.8381-4.7451-14.961-11.289-21.058" fill="#a3d5c0"/>
   <path d="m92.747 46.478c0.57357-2.9413 2.2425-10.811 1.8192-10.957-0.92581-0.31922-7.0144 13.192-7.1817 13.653-0.0518 0.14114 0.38011 0.43872 0.50417 0.38637 1.5005-0.85183 4.7809-2.2175 4.8583-3.0824" fill="#538e74"/>
   <path d="m65.476 19.795c-2.5054-0.21567-3.9416 4.4111-3.4324 8.0727 0.69079 4.9647 2.7171 7.3455 3.6833 7.4286 0.1571 0.0129 2.3859-1.109 3.1091-6.8749 0.63731-5.0785-1.0521-8.4272-3.3601-8.6264" fill="#fff697"/>
  </g>
  <g fill="#8cb9a7">
   <path d="m47.537 65.521c1.2354 0.51212 5.4848 0.54966 7.3381 0.0802 0.42336-0.10129 0.26516-0.3619-0.22931-0.37498-1.0021-0.0272-4.4902-0.11614-6.3037-0.64356-0.76705-0.22365-1.5808-0.54571-1.4123 0.91839 1.3145 11.45 5.3562 16.356 3.4517 17.072 3.2446 2.2158 2.9282 1.3799 2.1777-0.0547-1.9136-3.66-4.4503-12.908-5.0222-16.998"/>
   <path d="m73.769 70.474c0.441 0.29704 0.8894 0.59235 1.3532 0.882 1.2695 0.79378 1.8749 0.82167 1.6217-1.0976-0.63446-4.8003-1.9859-8.7965-4.1311-12.426 3.1729 8.4426 3.009 11.86 1.1562 12.641"/>
   <path d="m61.569 60.267c-8e-3 0.3249 0.39776 0.63276 0.81372 0.0899 0.4114-0.53602 0.77386-1.3679 0.9036-1.8334-0.371-0.87631-0.69536-1.789-0.9719-2.7404-0.11952 1.8135-0.72835 3.8034-0.74542 4.4839"/>
  </g>
  <path d="m94.605 36.09c-0.24638 0.41481-6.6536 12.977-6.4761 13.441 0.2202 0.43587 4.7616 0.76363 5.5304 0.24354 0.53772-0.36419-0.8706-2.4149-0.91272-3.2969 0.52123-2.6716 1.7896-8.7209 1.8584-10.388" fill="#3e715c"/>
  <g fill="#0f141b">
   <path d="m51.071 83.315c-3.0198-1.917-6.1142-6.1028-7.2351-10.083-1.3207-4.6905-1.3719-9.2751-0.22078-11.967 0.44839-1.0476 1.1324-1.4686 2.5765-0.69023 2.8912 1.558 5.6572 2.3176 6.6644 2.5384 1.1699 0.2572 1.1665 0.56616-0.0171 0.40001-1.9705-0.27825-4.8435-1.3702-6.8306-2.4417-1.0641-0.57244-1.579-0.33912-1.921 0.46149-1.1107 2.5959-1.0015 6.8863 0.29077 11.477 1.0925 3.8796 4.0133 8.0466 6.9444 9.9073 1.7259 1.0959 1.7662 1.0032 1.0282-0.29078-2.3114-4.0537-4.8008-13.397-4.9329-17.562-0.02952-0.92636 0.2663-0.84099 0.35279-0.0586 0.40742 3.6742 2.9561 13.499 4.9966 17.403 0.94798 1.8129 0.74371 2.4553-1.6963 0.90589"/>
   <path d="m47.591 65.762c2.2744 0.85012 6.1842 0.30898 6.8101 0.0768 0.98613-0.36531 0.93263-0.5383-0.0722-0.36247-2.0866 0.36418-5.9964 0.26972-6.8329-0.23614z"/>
   <path d="m74.998 71.555c-8.1336-4.6415-12.628-11.231-13.475-18.46-0.13662-1.1665 0.1633-1.2359 0.38011-0.0666 1.4112 7.6414 5.5531 13.257 13.344 18.127 1.0618 0.66291 1.4732 0.7147 1.2644-0.8672-1.1198-8.4779-4.3695-14.537-11.217-20.917-2.7461-2.5589-4.9215-1.5768-4.8213 1.8584 0.0257 0.87005 0.26687 5.5207 0.29874 6.3731 0.0307 0.8467-0.31184 0.85353-0.34369 2e-3 -0.0313-0.84501-0.42507-5.5275-0.4501-6.4032-0.10921-3.7373 2.3802-5.2333 5.5838-2.2488 7.4309 6.9228 10.234 12.324 11.416 21.275 0.30442 2.3051-0.6322 2.0968-1.9796 1.3275"/>
   <path d="m63.411 58.858c-0.21338 0.47001-0.62818 1.0333-0.95594 1.4356-0.45864 0.5639-0.66576 0.36646-0.24184-0.2515 0.44725-0.65325 0.85409-1.389 0.86831-1.6917z"/>
   <path d="m87.139 49.032c0.57473-1.5773 5.9725-12.695 6.9814-13.506 0.24013-0.19291 0.69194 0.05064 0.71243 0.11839 0.12 0.39605-1.566 9.3974-1.8544 10.879-0.0768 0.39204-0.48139 0.68851-0.93036 0.90758-0.65552 0.31866-0.78354 0.0946-0.18038-0.30443 0.31411-0.20825 0.60146-0.4535 0.64869-0.69363 0.0888-0.45409 1.7219-8.5393 1.9011-10.41 0.0113-0.10872-0.10757-0.12694-0.18037-0.03193-1.5113 1.9751-6.0698 11.824-6.6052 13.193 0.0489 0.0506 0.14629 0.11726 0.20655 0.14049 0.10694-0.0529 1.0168-0.54742 1.6382-0.88313 0.74884-0.40287 0.89906-0.24696 0.16444 0.30612-0.59291 0.44614-1.5864 0.99752-1.661 1.0294-0.18436 0.0774-0.97303-0.3784-0.84103-0.74542"/>
   <path d="m65.644 19.838c-0.92011-0.45636-2.09-0.77672-3.5416-0.97814-0.74029-0.10307-0.75907-0.43189 6e-3 -0.39832 2.6596 0.11549 5.606 1.3065 6.4647 4.015-1.4618-2.0553-1.5148-2.2226-2.9299-2.6386"/>
   <path d="m40.031 36.11c-10.782 0.1838-34.135-12.502-35.028-17.224-0.01934-0.10307 0.01145-0.20714 0.08592-0.29419 1.5369-1.7816 31.391-2.8998 35.472-2.2767 0.82735 0.12694 0.76931 0.39376-0.04388 0.37157-8.6617-0.23729-30.487 0.92238-34.473 1.9648-0.57528 0.15017-0.62536 0.272-0.27939 0.78923 2.6249 3.9177 21.191 15.194 34.241 16.278 0.99637 0.08259 1.0863 0.37328 0.025 0.39149"/>
  </g>
  <path d="m45.024 25.561c2.4781-1.1648 5.8501 0.7898 7.531 4.3667 0.31524 0.66973 0.54 1.3093 0.69079 1.9148l0.01019 0.0032c-0.46773-4.5266-5.2435-9.3929-8.7931-7.7245-2.4536 1.1534-3.4625 4.7314-1.2826 9.2484-1.1176-2.6704-0.50701-6.7048 1.8436-7.8093" fill="#eb6d81"/>
  <path d="m62.614 27.885c0.35508-4.1231 2.0354-7.3455 3.755-7.1976 1.3361 0.11549 2.8776 2.4912 2.5578 6.8363 0.34142-4.5721-1.2809-7.5419-3.45-7.7285-2.5054-0.21622-3.9411 4.4111-3.4324 8.0722 0.24411 1.7543 0.65608 3.1797 1.1284 4.3012l3e-3 -0.0065c-0.43926-1.1619-0.705-2.6095-0.56161-4.2773" fill="#eb6d81"/>
  <g fill="#0f141b">
   <path d="m44.563 24.335c-2.8349 1.3326-3.1416 5.886-0.77615 9.6984 2.4553 3.9587 6.8175 4.5937 8.0238 4.0258 0.61056-0.32832 2.477-3.3151 0.76762-8.0875-1.327-3.7089-5.1889-6.9649-8.0153-5.6367m-1.1813 9.9374c-2.222-3.4341-2.5094-8.722 0.981-10.363 3.3413-1.5705 7.3575 2.1964 8.6691 5.9144 1.6695 4.7371 0.02109 8.1712-1.0208 8.6611-1.3389 0.62934-5.7397 0.25322-8.6293-4.2125"/>
   <path d="m62.277 27.835c0.59862 4.3024 2.1964 6.5085 3.0972 7.0775 0.3232 0.20428 0.3232 0.20315 0.66235-0.06935 0.64355-0.51725 2.0212-2.1071 2.5663-6.451 0.50701-4.0401-0.61454-8.1444-3.1473-8.3624-2.3967-0.20712-3.6418 4.4742-3.1786 7.8053m2.9043 7.5134c-1.1978-0.69023-2.791-3.2804-3.3703-7.4485-0.35961-2.5862 0.24468-5.6003 1.4374-7.1674 0.64015-0.84101 1.4123-1.2439 2.2476-1.1722 2.4514 0.21225 4.2375 3.6008 3.574 8.8904-0.54798 4.365-1.9734 6.2018-2.7945 6.8192-0.52748 0.39718-0.55537 0.38865-1.0942 0.07855"/>
   <path d="m53.183 32.194c-0.15484-0.62422-0.50813-1.5517-0.8046-2.1822-1.6325-3.4728-4.8942-5.3892-7.2704-4.2728-2.2937 1.0777-3.0403 5.6322-1.3611 8.3043l-0.96166-1.1927c-0.92238-2.9845-0.02952-6.5341 2.0809-7.5259 2.5709-1.2097 6.1426 0.85127 7.8673 4.5203 0.11097 0.23729 0.21394 0.4757 0.30669 0.71413z"/>
   <path d="m67.993 21.601c-0.46092-0.67089-1.0202-1.0578-1.6081-1.1085-2.0536-0.17867-3.6503 3.7055-3.9667 7.3763-0.0655 0.75681-0.0507 1.4994 0.0421 2.222l0.73062 1.5136c-0.36473-1.1676-0.49334-2.4132-0.38182-3.7021 0.32436-3.7709 1.8863-7.1623 3.5422-7.0195 1.0573 0.09162 1.9796 1.7259 2.2909 4.0332-0.14903-1.7981-0.39605-2.7142-0.64926-3.3151"/>
   <path d="m47.643 32.094c-0.20883-0.61455-0.57528-1.0043-0.8524-0.91045-0.27655 0.09388-0.3272 0.64414-0.11839 1.2587 0.2094 0.61455 0.60545 1.0129 0.88312 0.91896 0.27598-0.09452 0.29703-0.65266 0.08758-1.2672"/>
   <path d="m64.812 26.861c-0.24752 0.01452-0.41823 0.50246-0.38295 1.0891 0.0365 0.58609 0.26574 1.0493 0.51327 1.0339 0.24752-0.01613 0.41879-0.50302 0.38238-1.0891-0.0354-0.58609-0.2646-1.0493-0.5127-1.0339"/>
  </g>
 </g>
</svg>
