<?xml version="1.0" encoding="UTF-8"?>
<!-- Created with Inkscape (http://www.inkscape.org/) -->
<svg version="1.1" viewBox="0 0 303.04 250.52" xmlns="http://www.w3.org/2000/svg">
 <defs>
  <linearGradient id="linearGradient3374" x2="1" gradientTransform="matrix(-1.623 83.794 83.794 1.623 109.08 553.5)" gradientUnits="userSpaceOnUse">
   <stop stop-color="#82cbd1" offset="0"/>
   <stop stop-color="#82cbd1" offset=".0013813"/>
   <stop stop-color="#fff" offset=".76879"/>
   <stop stop-color="#fff" offset="1"/>
  </linearGradient>
  <clipPath id="clipPath7988">
   <path d="m96.33 632.83c-0.493-7.834 7.837-7.828 6.969-14.294-1.56-11.648-21.995-15.553-34.788-35.577-17.648-27.62-16.975-58.249 4.272-77.947 23.29-21.593 59.981-27.357 83.668 2.66 7.708 9.767 10.606 34.171 6.436 48.366-1.014 3.454-2.271 4.053-4.102-0.252-3.637-8.553-12.236-16.605-22.307-15.927-2.64 0.178-7.637 3.558-11.909 8.51 7.579-44.275-23.498-44.983-36.13-28.926-14.281 18.153-8.774 44.282-1.775 59.673 12.044 26.488 26.075 25.606 26.583 38.308 0.367 9.2-11.818 10.187-12.194 16.279-0.324 5.246 3.89 7.294 9.197 5.226-1.489 1.633-3.263 2.32-5.037 2.32-4.302 0-8.608-4.038-8.883-8.419"/>
  </clipPath>
  <clipPath id="clipPath7911">
   <path d="m0 0h612.16v792.11h-612.16z"/>
  </clipPath>
  <clipPath id="clipPath6575">
   <path d="m0 0h612.16v792.11h-612.16z"/>
  </clipPath>
  <clipPath id="clipPath6590">
   <path d="m0 0h612.16v792.11h-612.16z"/>
  </clipPath>
  <clipPath id="clipPath6605">
   <path d="m0 0h612.16v792.11h-612.16z"/>
  </clipPath>
  <clipPath id="clipPath7671">
   <path d="m0 0h612.16v792.11h-612.16z"/>
  </clipPath>
  <clipPath id="clipPath6560">
   <path d="m0 0h612.16v792.11h-612.16z"/>
  </clipPath>
  <clipPath id="clipPath7716">
   <path d="m0 0h612.16v792.11h-612.16z"/>
  </clipPath>
  <clipPath id="clipPath7686">
   <path d="m0 0h612.16v792.11h-612.16z"/>
  </clipPath>
  <clipPath id="clipPath7806">
   <path d="m0 0h612.16v792.11h-612.16z"/>
  </clipPath>
  <clipPath id="clipPath7821">
   <path d="m0 0h612.16v792.11h-612.16z"/>
  </clipPath>
  <clipPath id="clipPath7836">
   <path d="m0 0h612.16v792.11h-612.16z"/>
  </clipPath>
  <clipPath id="clipPath7851">
   <path d="m0 0h612.16v792.11h-612.16z"/>
  </clipPath>
  <clipPath id="clipPath7866">
   <path d="m0 0h612.16v792.11h-612.16z"/>
  </clipPath>
  <clipPath id="clipPath7896">
   <path d="m0 0h612.16v792.11h-612.16z"/>
  </clipPath>
  <clipPath id="clipPath6713">
   <path d="m0 0h612.16v792.11h-612.16z"/>
  </clipPath>
  <clipPath id="clipPath7776">
   <path d="m0 0h612.16v792.11h-612.16z"/>
  </clipPath>
  <radialGradient id="radialGradient3474" cx="0" cy="0" r="1" gradientTransform="matrix(-23.488 -85.994 -85.994 23.488 180.32 642.36)" gradientUnits="userSpaceOnUse">
   <stop stop-color="#283e49" offset="0"/>
   <stop stop-color="#283e49" offset=".62408"/>
   <stop stop-color="#283e49" offset=".72655"/>
   <stop stop-color="#82cbd1" offset="1"/>
  </radialGradient>
  <clipPath id="clipPath8068">
   <path d="m131.81 591.24c-8.799-8.643-14.875-18.555-14.803-25.78 0.128-12.743 12.473-25.128 19.472-25.6 10.071-0.678 18.67 7.374 22.307 15.927 1.831 4.305 3.088 3.706 4.102 0.252 1.6-5.446 2.171-11.742 1.961-18.028 4.776 0.057 11.53 0.642 14.381 1.298 0.409-3.973 3.11-7.798 3.937-7.916 0.399-0.057 1.759 0.992 3.002 2.041 1.211 1.022 2.31 2.044 2.3 2.044-0.948 0.157-0.482 2.332 0.857 3.918-0.191 0.84 0.108 2.206 0.57 2.61-1.249 0.42-3.08-0.336-4.43-2.057 0.569 3.601 0.509 9.358-0.693 10.3-1.738 1.361-9.605 2.066-9.823 2.066 0.507 1.733 0.177 5.703-0.022 10.113-0.16 3.505-0.235 7.286 0.258 10.442 0.04 0.248 0.083 0.502 0.129 0.761 0.493 2.742 1.403 6.037 2.488 9.128 1.316 3.74 2.888 7.178 4.289 8.966-0.47 0.254-0.946 0.519-1.425 0.792-3.091-4.853-8.896-19.975-9.276-25.904 0.118-0.103 0.236-0.214 0.354-0.324-0.139 0.092-0.265 0.15-0.368 0.156-2.153-1.079-8.834-3.943-9.642-3.943-1.332 0.27-3.422 1.964-5.593 4.303-0.501-0.701-1.129-0.742-1.142-0.712-1.572-2.08-6.275-6.906-8.565-6.833-0.583 0.019-1.223 0.359-1.97 1.02-3.522-4.545-11.017-5.841-15.767-1.775-2.44 2.087-4.685 5.763-2.515 10.269 0.913 1.896 3.884 4.738 8.755 7.388 3.221 1.486 7.505 3.048 8.501 2.74 1.69-0.522 3.733-7.128 4.385-10.549 0.735 2.819 2.165 5.597 2.415 5.415 0.306-0.224 0.377-2.442 0.369-3.853 0.251 0.79 0.643 1.646 1.093 2.483-2.061 3.027-3.687 6.176-4.078 8.537 0.01 0.013 0.021 0.03 0.03 0.042 0.448 0.653 1.381 1.914 2.651 3.528-1.809-1.853-2.188-1.858-1.34 0.148 0.645 1.528 1.78 3.353 3.827 5.391 0.635 2.503 1.607 4.117 3.235 5.02 1.003 0.557 1.812 0.151 2.176-1.31 2.94 3.148 6.09 6.164 8.928 8.164-2.322 1.91-6.261 5.713-7.148 6.779-9.924-2.79-20.173-9.599-28.172-17.457m41.954-27.149c0.428-0.542 0.793-1.06 1.067-1.509-0.195 0.304-0.596 0.885-1.067 1.509"/>
  </clipPath>
  <clipPath id="clipPath6848">
   <path d="m0 0h612.16v792.11h-612.16z"/>
  </clipPath>
  <clipPath id="clipPath6879">
   <path d="m0 0h612.16v792.11h-612.16z"/>
  </clipPath>
  <clipPath id="clipPath6758">
   <path d="m0 0h612.16v792.11h-612.16z"/>
  </clipPath>
  <clipPath id="clipPath6894">
   <path d="m0 0h612.16v792.11h-612.16z"/>
  </clipPath>
  <clipPath id="clipPath6803">
   <path d="m0 0h612.16v792.11h-612.16z"/>
  </clipPath>
  <clipPath id="clipPath8506">
   <path d="m0 0h612.16v792.11h-612.16z"/>
  </clipPath>
  <clipPath id="clipPath7026">
   <path d="m0 0h612.16v792.11h-612.16z"/>
  </clipPath>
  <clipPath id="clipPath6960">
   <path d="m0 0h612.16v792.11h-612.16z"/>
  </clipPath>
  <clipPath id="clipPath6975">
   <path d="m0 0h612.16v792.11h-612.16z"/>
  </clipPath>
  <clipPath id="clipPath6990">
   <path d="m0 0h612.16v792.11h-612.16z"/>
  </clipPath>
  <clipPath id="clipPath6945">
   <path d="m0 0h612.16v792.11h-612.16z"/>
  </clipPath>
  <clipPath id="clipPath6930">
   <path d="m0 0h612.16v792.11h-612.16z"/>
  </clipPath>
  <clipPath id="clipPath8541">
   <path d="m0 0h612.16v792.11h-612.16z"/>
  </clipPath>
  <clipPath id="clipPath7041">
   <path d="m0 0h612.16v792.11h-612.16z"/>
  </clipPath>
  <clipPath id="clipPath7056">
   <path d="m0 0h612.16v792.11h-612.16z"/>
  </clipPath>
  <clipPath id="clipPath7071">
   <path d="m0 0h612.16v792.11h-612.16z"/>
  </clipPath>
  <clipPath id="clipPath7086">
   <path d="m0 0h612.16v792.11h-612.16z"/>
  </clipPath>
  <clipPath id="clipPath7101">
   <path d="m0 0h612.16v792.11h-612.16z"/>
  </clipPath>
  <clipPath id="clipPath7116">
   <path d="m0 0h612.16v792.11h-612.16z"/>
  </clipPath>
  <clipPath id="clipPath7131">
   <path d="m0 0h612.16v792.11h-612.16z"/>
  </clipPath>
  <clipPath id="clipPath7146">
   <path d="m0 0h612.16v792.11h-612.16z"/>
  </clipPath>
  <clipPath id="clipPath7161">
   <path d="m0 0h612.16v792.11h-612.16z"/>
  </clipPath>
  <clipPath id="clipPath7191">
   <path d="m0 0h612.16v792.11h-612.16z"/>
  </clipPath>
  <clipPath id="clipPath7206">
   <path d="m0 0h612.16v792.11h-612.16z"/>
  </clipPath>
  <clipPath id="clipPath6728">
   <path d="m0 0h612.16v792.11h-612.16z"/>
  </clipPath>
  <clipPath id="clipPath6743">
   <path d="m0 0h612.16v792.11h-612.16z"/>
  </clipPath>
  <clipPath id="clipPath7791">
   <path d="m0 0h612.16v792.11h-612.16z"/>
  </clipPath>
  <clipPath id="clipPath6500">
   <path d="m0 0h612.16v792.11h-612.16z"/>
  </clipPath>
  <clipPath id="clipPath7221">
   <path d="m0 0h612.16v792.11h-612.16z"/>
  </clipPath>
  <clipPath id="clipPath7236">
   <path d="m0 0h612.16v792.11h-612.16z"/>
  </clipPath>
  <clipPath id="clipPath7251">
   <path d="m0 0h612.16v792.11h-612.16z"/>
  </clipPath>
  <clipPath id="clipPath7266">
   <path d="m0 0h612.16v792.11h-612.16z"/>
  </clipPath>
  <clipPath id="clipPath7281">
   <path d="m0 0h612.16v792.11h-612.16z"/>
  </clipPath>
  <clipPath id="clipPath7296">
   <path d="m0 0h612.16v792.11h-612.16z"/>
  </clipPath>
  <clipPath id="clipPath7431">
   <path d="m0 0h612.16v792.11h-612.16z"/>
  </clipPath>
  <clipPath id="clipPath7446">
   <path d="m0 0h612.16v792.11h-612.16z"/>
  </clipPath>
  <clipPath id="clipPath7461">
   <path d="m0 0h612.16v792.11h-612.16z"/>
  </clipPath>
  <clipPath id="clipPath7476">
   <path d="m0 0h612.16v792.11h-612.16z"/>
  </clipPath>
  <clipPath id="clipPath7491">
   <path d="m0 0h612.16v792.11h-612.16z"/>
  </clipPath>
  <clipPath id="clipPath7506">
   <path d="m0 0h612.16v792.11h-612.16z"/>
  </clipPath>
  <clipPath id="clipPath7521">
   <path d="m0 0h612.16v792.11h-612.16z"/>
  </clipPath>
  <clipPath id="clipPath7536">
   <path d="m0 0h612.16v792.11h-612.16z"/>
  </clipPath>
  <clipPath id="clipPath7566">
   <path d="m0 0h612.16v792.11h-612.16z"/>
  </clipPath>
  <clipPath id="clipPath7551">
   <path d="m0 0h612.16v792.11h-612.16z"/>
  </clipPath>
  <clipPath id="clipPath7581">
   <path d="m0 0h612.16v792.11h-612.16z"/>
  </clipPath>
  <clipPath id="clipPath7596">
   <path d="m0 0h612.16v792.11h-612.16z"/>
  </clipPath>
  <clipPath id="clipPath7611">
   <path d="m0 0h612.16v792.11h-612.16z"/>
  </clipPath>
  <clipPath id="clipPath7626">
   <path d="m0 0h612.16v792.11h-612.16z"/>
  </clipPath>
  <clipPath id="clipPath7641">
   <path d="m0 0h612.16v792.11h-612.16z"/>
  </clipPath>
  <clipPath id="clipPath7656">
   <path d="m0 0h612.16v792.11h-612.16z"/>
  </clipPath>
  <clipPath id="clipPath6515">
   <path d="m0 0h612.16v792.11h-612.16z"/>
  </clipPath>
  <clipPath id="clipPath6530">
   <path d="m0 0h612.16v792.11h-612.16z"/>
  </clipPath>
  <clipPath id="clipPath6545">
   <path d="m0 0h612.16v792.11h-612.16z"/>
  </clipPath>
  <clipPath id="clipPath6620">
   <path d="m0 0h612.16v792.11h-612.16z"/>
  </clipPath>
  <clipPath id="clipPath6635">
   <path d="m0 0h612.16v792.11h-612.16z"/>
  </clipPath>
  <clipPath id="clipPath6650">
   <path d="m0 0h612.16v792.11h-612.16z"/>
  </clipPath>
  <linearGradient id="linearGradient3820" x2="1" gradientTransform="matrix(33.532 -90.745 -90.745 -33.532 77.261 586.2)" gradientUnits="userSpaceOnUse">
   <stop stop-color="#21abb1" offset="0"/>
   <stop stop-color="#0f141b" offset=".99953"/>
   <stop stop-color="#0f141b" offset="1"/>
  </linearGradient>
  <clipPath id="clipPath8030">
   <path d="m95.439 596.23c-12.463-13.455-47.637-53.8-16.068-88.485 13.563-14.903 36.636-19.536 54.876-13.436 4.465 1.493 4.508 2.305 2.277 1.471-18.348-6.861-42.997-2.353-56.416 12.39-28.716 31.551-0.574 70.19 16.165 88.183 0.706 0.759 0.89 1.144 0.713 1.144-0.185 0-0.762-0.419-1.547-1.267"/>
  </clipPath>
  <clipPath id="clipPath7926">
   <path d="m0 0h612.16v792.11h-612.16z"/>
  </clipPath>
  <clipPath id="clipPath7971">
   <path d="m0 0h612.16v792.11h-612.16z"/>
  </clipPath>
  <clipPath id="clipPath7941">
   <path d="m0 0h612.16v792.11h-612.16z"/>
  </clipPath>
  <clipPath id="clipPath7956">
   <path d="m0 0h612.16v792.11h-612.16z"/>
  </clipPath>
  <clipPath id="clipPath7701">
   <path d="m0 0h612.16v792.11h-612.16z"/>
  </clipPath>
  <clipPath id="clipPath7731">
   <path d="m0 0h612.16v792.11h-612.16z"/>
  </clipPath>
  <clipPath id="clipPath7746">
   <path d="m0 0h612.16v792.11h-612.16z"/>
  </clipPath>
  <clipPath id="clipPath7761">
   <path d="m0 0h612.16v792.11h-612.16z"/>
  </clipPath>
  <linearGradient id="linearGradient3884" x2="1" gradientTransform="matrix(.31522 39.423 39.423 -.31518 108.84 553.66)" gradientUnits="userSpaceOnUse">
   <stop stop-color="#0f141b" offset="0"/>
   <stop stop-color="#0f141b" offset=".61494"/>
   <stop stop-color="#21abb1" offset=".99982"/>
   <stop stop-color="#21abb1" offset="1"/>
  </linearGradient>
  <clipPath id="clipPath8049">
   <path d="m95.831 632.76c-0.265-4.199 2.067-6.185 4.026-8.01 1.854-1.726 3.496-3.231 3.099-6.191-0.756-5.639-6.445-9.298-13.221-14.142-6.85-4.897-16.05-11.251-22.531-21.397-17.185-26.896-16.595-58.946 4.704-78.692 27.341-25.349 63.87-23.876 85.267 3.24 7.972 10.102 10.61 34.527 6.002 48.539-1.349 4.105-2.9 3.955-4.952-0.385-1.006-2.123-1.905-3.896-3.561-6.051-2.134-2.778-1.911-3.578 0.186-0.984 1.777 2.198 3.208 4.591 4.211 6.951 1.63 3.831 2.491 3.701 3.493 0.286 4.742-16.142 0.387-39.497-6.38-48.073-20.82-26.385-56.216-27.631-83.193-2.623-20.596 19.095-21.582 50.361-4.218 77.535 6.413 10.04 14.882 16.095 21.688 20.96 6.903 4.935 12.355 8.833 13.148 14.748 0.442 3.293-1.355 4.968-3.258 6.74-1.944 1.812-3.955 3.685-3.71 7.577 0.314 4.982 6.968 10.816 12.265 6.895-4.806 1.253-8.499-1.021-8.19-6.021 0.177-2.838 2.722-4.597 5.418-6.458 3.429-2.367 6.974-4.815 6.776-9.789-0.233-5.846-3.32-8.675-7.989-12.958-5.134-4.707-12.165-11.153-18.565-25.227-8.471-18.629-11.853-42.633 1.815-60.01 9.617-12.224 29.486-14.707 35.865 3.099 2.214 6.178 2.612 14.205 1.195 23.855 8e-3 0.538-0.918 2.629-1.448 2.131 2.579-17.823-0.498-32.689-9.91-36.782-7.994-3.476-18.625 1.053-24.993 9.147-13.373 16.998-9.4 40.695-1.475 58.12 6.345 13.954 13.711 20.983 18.804 25.652 4.617 4.235 7.828 7.316 8.072 13.432 0.213 5.331-4.235 7.615-7.642 9.967-2.674 1.846-5.118 3.337-5.274 5.86-0.222 3.585 1.693 6.572 7.381 5.455 1.713-0.337 2.002 0.029 0.448 1.112-1.296 0.903-2.723 1.305-4.146 1.305-4.465 0-8.901-3.953-9.207-8.813"/>
  </clipPath>
  <clipPath id="clipPath7881-1">
   <path d="m0 0h612.16v792.11h-612.16z"/>
  </clipPath>
  <clipPath id="clipPath6818-0">
   <path d="m0 0h612.16v792.11h-612.16z"/>
  </clipPath>
  <clipPath id="clipPath6833-4">
   <path d="m0 0h612.16v792.11h-612.16z"/>
  </clipPath>
  <clipPath id="clipPath6788-8">
   <path d="m0 0h612.16v792.11h-612.16z"/>
  </clipPath>
  <clipPath id="clipPath6773-1">
   <path d="m0 0h612.16v792.11h-612.16z"/>
  </clipPath>
  <clipPath id="clipPath7176-6">
   <path d="m0 0h612.16v792.11h-612.16z"/>
  </clipPath>
  <clipPath id="clipPath7311-2">
   <path d="m0 0h612.16v792.11h-612.16z"/>
  </clipPath>
  <clipPath id="clipPath7326-8">
   <path d="m0 0h612.16v792.11h-612.16z"/>
  </clipPath>
  <clipPath id="clipPath7341-9">
   <path d="m0 0h612.16v792.11h-612.16z"/>
  </clipPath>
  <clipPath id="clipPath7356-9">
   <path d="m0 0h612.16v792.11h-612.16z"/>
  </clipPath>
  <clipPath id="clipPath7371-2">
   <path d="m0 0h612.16v792.11h-612.16z"/>
  </clipPath>
  <clipPath id="clipPath7386-0">
   <path d="m0 0h612.16v792.11h-612.16z"/>
  </clipPath>
  <clipPath id="clipPath7416-5">
   <path d="m0 0h612.16v792.11h-612.16z"/>
  </clipPath>
  <clipPath id="clipPath7401-2">
   <path d="m0 0h612.16v792.11h-612.16z"/>
  </clipPath>
 </defs>
 <g transform="translate(-5.1846 -31.164)">
  <path transform="matrix(1.4554 0 0 -1.4554 -74.944 989.34)" d="m96.33 632.83c-0.493-7.834 7.837-7.828 6.969-14.294-1.56-11.648-21.995-15.553-34.788-35.577-17.648-27.62-16.975-58.249 4.272-77.947 23.29-21.593 59.981-27.357 83.668 2.66 7.708 9.767 10.606 34.171 6.436 48.366-1.014 3.454-2.271 4.053-4.102-0.252-3.637-8.553-12.236-16.605-22.307-15.927-2.64 0.178-7.637 3.558-11.909 8.51 7.579-44.275-23.498-44.983-36.13-28.926-14.281 18.153-8.774 44.282-1.775 59.673 12.044 26.488 26.075 25.606 26.583 38.308 0.367 9.2-11.818 10.187-12.194 16.279-0.324 5.246 3.89 7.294 9.197 5.226-1.489 1.633-3.263 2.32-5.037 2.32-4.302 0-8.608-4.038-8.883-8.419" clip-path="url(#clipPath7988)" fill="url(#linearGradient3374)"/>
  <g>
   <path transform="matrix(1.4554 0 0 -1.4554 -74.944 989.34)" d="m157.56 587.98c-0.426-0.983-0.992-1.878-1.658-2.598 0.189-1.414 1.002-5.102 1.542-5.063 0.58 0.923 0.326 6.464 0.116 7.661" clip-path="url(#clipPath7911)" fill="#eb6d81"/>
   <path d="m204.67 170.04c-0.38713-1.5427-1.8498-2.889-2.7696-2.3839-0.0219 0.36095-0.096 0.82812-0.21101 1.3521 0.27508 3.9121 1.9924 11.521 2.8671 11.633 0.22413 0.0293 0.48319-9.1268 0.1135-10.601" fill="#eb6d81"/>
   <path d="m202.13 159.18c-1.7872-1.9619-2.8351-2.0317-3.4071-1.1236-1.9895-0.10917-6.9131-0.17901-10.375 0.31729 0.11061-0.72624-2.8322-13.327-4.5161-17.161-1.5806 4.4986-2.9035 9.2941-3.6225 13.285 1.4059 2.8002 4.7053 8.0789 5.4563 8.5519 4.1813 0.30273 11.426-1.9881 12.917-2.5993-0.10484 1.1381-0.16593 3.1524 0.61127 4.014 0.0698-0.15719 0.14411-0.26636 0.22559-0.30711 0.52975-0.2649 2.5557 2.1496 2.48 3.5089 0.92127-0.50647 2.3839 0.83976 2.7696 2.3825 0.7437-0.23722 1.5078 0.0392 2.2428 1.4306 0.23284-0.3231 0.56906-0.41332 0.83103-0.27216-0.75535-2.0667-3.3285-9.5168-5.612-12.027" fill="#324b57"/>
  </g>
  <g fill="#eb6d81">
   <path d="m207.53 172.95c-0.59088-1.7203-1.4874-3.3503-2.8671-2.9093 0.0248 0.0946 0.25322 2.9937 0.25177 4.9163 0.98385 3.6574 2.9894 7.7238 3.6152 7.552 0.59089-0.16156-0.40604-7.8329-0.99985-9.559"/>
   <path d="m207.74 171.2c-1e-3 0-3e-3 0-3e-3 -1e-3 -0.26342-0.14117-0.59817-0.0524-0.83102 0.27217 0.636 1.2036 1.3288 4.2512 1.5485 5.89 0.26634 0.34201 0.56178 0.64473 0.82812 0.74516 0.18049-0.42206-0.88779-6.5478-1.5427-6.9058"/>
   <path transform="matrix(1.4554 0 0 -1.4554 -74.944 989.34)" d="m190.21 564.86c-0.125 1.036-1.369 2.299-1.7 2.133-1.02-0.51-0.561-7.192-0.058-7.252 0.757-0.09 1.822 4.583 1.758 5.119" clip-path="url(#clipPath7881-1)"/>
  </g>
  <g>
   <path transform="matrix(1.4554 0 0 -1.4554 -74.944 989.34)" d="m191.14 557.72c0.325-1.184 0.657-2.037 0.897-2.068 0.14-0.018 0.206 3.268 0.225 4.952-0.323-0.443-0.619-2.943-1.122-2.884" clip-path="url(#clipPath6818-0)" fill="#cb5e71"/>
   <path transform="matrix(1.4554 0 0 -1.4554 -74.944 989.34)" d="m175.31 573.63c0.966-1.924 3.232-5.551 3.749-5.876 0.407-0.029 0.856-0.022 1.331 0.012-2.8 2.789-3.434 7.283-3.763 11.34-0.557-1.917-1.016-3.8-1.317-5.476" clip-path="url(#clipPath6833-4)" fill="#283e49"/>
   <path transform="matrix(1.4554 0 0 -1.4554 -74.944 989.34)" d="m193.55 556.15c0.512-1.088 1.003-1.838 1.229-1.776 0.243 0.066-0.022 3.46-0.438 5.697-0.206-1.036 0.335-4.475-0.791-3.921" clip-path="url(#clipPath6788-8)" fill="#cb5e71"/>
   <path transform="matrix(1.4554 0 0 -1.4554 -74.944 989.34)" d="m195 559.7c0.047-0.621-0.209-1.041-0.367-1.367 0.04-0.245 0.062-0.174 0.096-0.421 0.182-0.235 0.385-0.442 0.568-0.511 0.06 0.141-0.082 1.21-0.297 2.299" clip-path="url(#clipPath6773-1)" fill="#cb5e71"/>
   <path transform="matrix(1.4554 0 0 -1.4554 -74.944 989.34)" d="m194.16 554.64c-0.551 0.7-1.291 2.08-1.829 3.686-0.179 0.534 0.132 1.908 0.173 1.734 0.522-2.185 1.572-4.436 2.104-5.157 0.069 1.072-0.246 4.258-0.821 5.93-0.618 1.799-0.989 2-1.589 1.789-0.05-0.017-0.165 0.636-0.025 0.665 0.701 0.148 1.386-0.113 2.149-2.327 0.504-1.467 0.965-4.689 0.832-6.071-0.102-1.058-0.33-1.093-0.994-0.249" clip-path="url(#clipPath7401-2)" fill="#0f141b"/>
   <path transform="matrix(1.4554 0 0 -1.4554 -74.944 989.34)" d="m188.1 561.33c0.064-0.915 0.184-1.576 0.356-1.596 0.431-0.051 1.121 2.091 1.497 3.565-0.531-0.743-1.112-1.436-1.853-1.969" clip-path="url(#clipPath7176-6)" fill="#cb5e71"/>
  </g>
  <g fill="#0f141b">
   <path transform="matrix(1.4554 0 0 -1.4554 -74.944 989.34)" d="m188.68 571.45c-0.445 0.088-4.545 0.244-7.481-0.123-0.346 2.408-1.876 9.493-3.08 11.864-9e-3 -0.011-0.483-0.371-0.618-0.55 1.089-2.463 3.107-10.982 3.086-11.63-0.052-0.339 0.093-0.411 0.367-0.371 2.39 0.343 5.713 0.286 7.039 0.217 0.3-0.015 0.862 0.558 0.687 0.593" clip-path="url(#clipPath7311-2)"/>
   <path transform="matrix(1.4554 0 0 -1.4554 -74.944 989.34)" d="m187.94 569.89c-0.315-0.182-5.68-2.007-8.756-1.824-0.55 0.508-2.87 4.181-3.727 6.011-1e-3 0-1e-3 -1e-3 -2e-3 -2e-3 -0.137-0.219-0.27-0.44-0.394-0.666 0.972-1.912 3.218-5.744 3.834-6.13 0.309-0.194 4.68 0.223 9.026 1.903 0.206 0.08 0.169 0.794 0.019 0.708" clip-path="url(#clipPath7326-8)"/>
   <path transform="matrix(1.4554 0 0 -1.4554 -74.944 989.34)" d="m188.19 566.48c-0.603 0.568-0.614 1.742-0.546 2.743 0.057 0.818 0.719 1.203 0.634 0.415-0.142-1.325-0.011-2.339 0.357-2.686 0.13-0.123-0.383-0.532-0.445-0.472" clip-path="url(#clipPath7341-9)"/>
   <path transform="matrix(1.4554 0 0 -1.4554 -74.944 989.34)" d="m193.82 562.31c-0.589 1.639-2.284 6.342-3.685 7.881-0.98 1.077-1.629 1.182-1.859 0.765-0.086-0.157-0.655 0.156-0.568 0.313 0.512 0.935 1.564 0.994 2.963-0.543 1.488-1.634 3.237-6.668 3.894-8.499 0.094-0.259-0.65-0.182-0.745 0.083" clip-path="url(#clipPath7356-9)"/>
   <path transform="matrix(1.4554 0 0 -1.4554 -74.944 989.34)" d="m188.65 566.65c-0.396-0.789-0.469-5.312-0.13-6.44 0.507 0.788 1.477 3.751 1.373 4.607-0.095 0.785-0.914 1.658-1.243 1.833m-0.732-6.022c-0.436 1.698-0.412 6.219 0.452 6.651 0.694 0.348 2.025-1.201 2.168-2.384 0.108-0.896-0.737-3.574-1.397-4.723-0.615-1.07-0.854-0.981-1.223 0.456" clip-path="url(#clipPath7371-2)"/>
   <path transform="matrix(1.4554 0 0 -1.4554 -74.944 989.34)" d="m190.35 564.28c0.012-0.033 0.02-0.069 0.02-0.106 0.038-2.09 0.92-6.213 1.504-7.703 0.121 1.512 0.143 5.092-0.035 6.218-0.123 0.773-0.66 1.477-1.085 1.649-0.179 0.073-0.273 0.026-0.328-0.015-0.024-0.018-0.05-0.032-0.076-0.043m1.067-8.026c-0.671 1.422-1.312 4.428-1.569 6.47-0.076 0.61 0.406 2.249 0.527 2.277 0.757 0.177 1.879-0.79 2.105-2.211 0.116-0.735 0.189-4.742-0.026-6.474-0.169-1.355-0.479-1.244-1.037-0.062" clip-path="url(#clipPath7386-0)"/>
   <path transform="matrix(1.4554 0 0 -1.4554 -74.944 989.34)" d="m194.93 557.24c-0.328 0.247-0.401 1.557-0.309 1.403 0.108-0.177 0.373-0.619 0.469-0.747-1e-3 1.471-0.811 3.958-1.028 3.969-8e-3 0-0.141-0.057-0.203-0.227-0.063-0.169-0.304 0.737-0.058 0.829 0.198 0.075 0.409 0.062 0.592-0.039 0.507-0.275 1.067-3.052 1.2-4.425 0.13-1.352-0.125-1.168-0.663-0.763" clip-path="url(#clipPath7416-5)"/>
  </g>
  <g>
   <path transform="matrix(1.4554 0 0 -1.4554 -74.944 989.34)" d="m174.5 582.46c-0.29 0.746-1.163 5.345-1.91 7.209-0.829 0.166-9.49 0.202-14.381 0.158 1.284 0.954 13.923 2.826 16.451 2.786 0.415-1.284 0.461-8.495-0.16-10.153m3.49 11.773c-0.05-1.27-0.18-3.911-0.427-4.933-0.349 0.418-1.109 5.911-1.389 6.096-2.039-0.03-10.686-0.693-13.574-0.386 0.719 0.68 5.884 2.253 10.194 2.698-1.997 1.423-3.916 2.891-5.64 4.31-2.838-2-5.989-5.016-8.928-8.164 0.092-0.374 0.159-0.809 0.189-1.323 0.089-1.51-0.231-3.07-0.83-4.451 0.137-0.777 0.237-2.076 0.25-3.111 3.671 0.899 10.627 1.587 12.933 1.509 1.039-4.351 1.912-9.821 1.54-10.898-1.328 2.071-2.947 6.504-3.403 7.54-0.562 0.08-9.737 0.311-11.086 0.286-0.048-1.578-0.188-2.916-0.35-2.987-0.54-0.039-1.354 3.649-1.542 5.063-8e-3 -8e-3 -0.015-0.018-0.023-0.026 8e-3 -3.109-1.615-7.682-1.832-7.722-0.336-0.061-0.534 5.042-0.305 6.226-0.121-0.046-0.241-0.093-0.364-0.128-0.539-0.864-3.337-5.153-4.118-5.324-0.145 0.975 1.465 6.097 3.035 8.173-0.633-0.64-1.306-1.372-1.993-2.076-1.269-1.614-2.203-2.875-2.65-3.527-9e-3 -0.014-0.022-0.03-0.03-0.043 0.39-2.361 2.016-5.51 4.079-8.537 1.311 2.439 3.107 4.71 3.279 4.667 0.147-0.037-0.082-2.181-0.374-4.074 1.458 2.861 3.432 4.677 3.751 4.677 0.22 0-0.335-2.674-0.919-4.683 1.744 1.707 7.046 6.348 7.674 5.847-1.254-3.702-6.621-9.854-8.971-12.027 2.171-2.339 4.261-4.033 5.592-4.302 0.85 0 9.638 3.829 9.656 4.11 0.38 5.929 6.187 21.052 9.275 25.905-0.888 0.508-1.791 1.049-2.699 1.615" clip-path="url(#clipPath6575)" fill="#fff697"/>
   <path transform="matrix(1.4554 0 0 -1.4554 -74.944 989.34)" d="m195.84 545.17c-4e-3 6e-3 -4.172-1.621-5.945-3.174-0.461-0.404-0.76-1.769-0.57-2.61 0.914 1.082 1.462 1.32 4.069 2.452 0.972 0.908 2.85 2.773 2.446 3.332" clip-path="url(#clipPath6590)" fill="#82cbd1"/>
   <path transform="matrix(1.4554 0 0 -1.4554 -74.944 989.34)" d="m194.16 545.76c-0.299 0.172-3.994-1.206-5.455-3.732 0.416 0.086 0.823 0.092 1.188-0.031 0.462 0.404 1.907 1.267 3.256 1.994 0.457 0.612 1.2 1.66 1.011 1.769" clip-path="url(#clipPath6605)" fill="#82cbd1"/>
   <path transform="matrix(1.4554 0 0 -1.4554 -74.944 989.34)" d="m177.97 594.13c-0.533 0.333-1.068 0.675-1.604 1.024 0.401-2.095 0.775-5.476 1.176-5.958 0.247 1.023 0.378 3.664 0.428 4.934" clip-path="url(#clipPath7671)" fill="#eb6d81"/>
   <path transform="matrix(1.4554 0 0 -1.4554 -74.944 989.34)" d="m192.01 546c-0.273 0.068-3.789-2.097-4.986-4.699 0.53 0.34 1.117 0.612 1.686 0.73 0.532 0.92 1.58 1.771 2.618 2.427 0.325 0.605 0.792 1.514 0.682 1.542" clip-path="url(#clipPath6560)" fill="#82cbd1"/>
   <path transform="matrix(1.4554 0 0 -1.4554 -74.944 989.34)" d="m176.15 595.29c-1.137 0.746-2.27 1.522-3.38 2.313-4.309-0.446-9.474-2.018-10.194-2.699 2.888-0.306 11.536 0.357 13.574 0.386" clip-path="url(#clipPath7716)" fill="#eb6d81"/>
   <path transform="matrix(1.4554 0 0 -1.4554 -74.944 989.34)" d="m152.79 590.04c-2.871-2.857-3.997-5.338-4.465-7.347 0.657 0.497 4.088 4.034 4.147 4.104-8e-3 0.127 0.086 2.324 0.318 3.243" clip-path="url(#clipPath7686)" fill="#eb6d81"/>
   <path transform="matrix(1.4554 0 0 -1.4554 -74.944 989.34)" d="m158.36 577.66c-0.32 0-2.294-1.815-3.752-4.677-0.202-1.309-0.631-2.836-0.646-2.862 0.689-0.677 2.027 0.046 2.661 0.742 0.945 1.035 1.861 6.797 1.737 6.797" clip-path="url(#clipPath7806)" fill="#82cbd1"/>
   <path transform="matrix(1.4554 0 0 -1.4554 -74.944 989.34)" d="m153.74 583.85c-0.229-1.183-0.029-6.286 0.306-6.225 0.217 0.039 1.84 4.613 1.832 7.722-0.637-0.683-1.364-1.201-2.138-1.497" clip-path="url(#clipPath7821)" fill="#eb6d81"/>
  </g>
  <g fill="#82cbd1">
   <path transform="matrix(1.4554 0 0 -1.4554 -74.944 989.34)" d="m154.98 577.06c-0.534 0.133-3.824-5.423-4.373-7.15-3e-3 -0.555-0.018-0.985-0.035-1.12-3e-3 -0.013-7e-3 -0.025-0.01-0.038 0.627-0.025 2.219 0.208 3.075 0.991 1.226 1.119 1.489 7.281 1.343 7.317" clip-path="url(#clipPath7836)"/>
   <path transform="matrix(1.4554 0 0 -1.4554 -74.944 989.34)" d="m157.44 572.98c-0.387-1.334-0.343-1.829-1.281-2.534-0.31-0.707-0.679-1.739-0.926-2.633-0.522-1.889-0.35-2.178 0.91-1.013 2.35 2.173 7.717 8.326 8.971 12.028-0.627 0.501-5.929-4.141-7.674-5.848" clip-path="url(#clipPath7851)"/>
   <path transform="matrix(1.4554 0 0 -1.4554 -74.944 989.34)" d="m189.52 539.62c-0.732-0.785-2.039-3.981-1.055-4.145 0.998 0.089 11.071 6.594 12.055 8.689-1.222 0.04-9.568-3.011-11-4.544" clip-path="url(#clipPath7866)"/>
  </g>
  <g>
   <path transform="matrix(1.4554 0 0 -1.4554 -74.944 989.34)" d="m172.57 589.56c0.747-1.864 1.62-6.464 1.91-7.209 0.621 1.658 0.575 8.868 0.16 10.153-2.528 0.039-15.166-1.833-16.45-2.787 4.89 0.045 13.551 9e-3 14.38-0.157" clip-path="url(#clipPath7896)" fill="#eb6d81"/>
   <path transform="matrix(1.4554 0 0 -1.4554 -74.944 989.34)" d="m150.24 573.76c-0.739 0.541-2.4-5.306-2.896-7.948 1.141-0.092 2.833 1.135 3.22 2.938 3e-3 0.012-0.018 4.786-0.324 5.01" clip-path="url(#clipPath6713)" fill="#82cbd1"/>
   <path transform="matrix(1.4554 0 0 -1.4554 -74.944 989.34)" d="m158.39 592.43c-0.202 3.458-2.141 3.69-4.186 0.816-1.97-2.769-2.293-7.075-0.844-9.522 7e-3 2e-3 0.012 5e-3 0.018 7e-3 2.376 0.671 5.288 3.977 5.012 8.699" clip-path="url(#clipPath7776)" fill="#324b57"/>
  </g>
  <path transform="matrix(1.4554 0 0 -1.4554 -74.944 989.34)" d="m131.81 591.24c-8.799-8.643-14.875-18.555-14.803-25.78 0.128-12.743 12.473-25.128 19.472-25.6 10.071-0.678 18.67 7.374 22.307 15.927 1.831 4.305 3.088 3.706 4.102 0.252 1.6-5.446 2.171-11.742 1.961-18.028 4.776 0.057 11.53 0.642 14.381 1.298 0.409-3.973 3.11-7.798 3.937-7.916 0.399-0.057 1.759 0.992 3.002 2.041 1.211 1.022 2.31 2.044 2.3 2.044-0.948 0.157-0.482 2.332 0.857 3.918-0.191 0.84 0.108 2.206 0.57 2.61-1.249 0.42-3.08-0.336-4.43-2.057 0.569 3.601 0.509 9.358-0.693 10.3-1.738 1.361-9.605 2.066-9.823 2.066 0.507 1.733 0.177 5.703-0.022 10.113-0.16 3.505-0.235 7.286 0.258 10.442 0.04 0.248 0.083 0.502 0.129 0.761 0.493 2.742 1.403 6.037 2.488 9.128 1.316 3.74 2.888 7.178 4.289 8.966-0.47 0.254-0.946 0.519-1.425 0.792-3.091-4.853-8.896-19.975-9.276-25.904 0.118-0.103 0.236-0.214 0.354-0.324-0.139 0.092-0.265 0.15-0.368 0.156-2.153-1.079-8.834-3.943-9.642-3.943-1.332 0.27-3.422 1.964-5.593 4.303-0.501-0.701-1.129-0.742-1.142-0.712-1.572-2.08-6.275-6.906-8.565-6.833-0.583 0.019-1.223 0.359-1.97 1.02-3.522-4.545-11.017-5.841-15.767-1.775-2.44 2.087-4.685 5.763-2.515 10.269 0.913 1.896 3.884 4.738 8.755 7.388 3.221 1.486 7.505 3.048 8.501 2.74 1.69-0.522 3.733-7.128 4.385-10.549 0.735 2.819 2.165 5.597 2.415 5.415 0.306-0.224 0.377-2.442 0.369-3.853 0.251 0.79 0.643 1.646 1.093 2.483-2.061 3.027-3.687 6.176-4.078 8.537 0.01 0.013 0.021 0.03 0.03 0.042 0.448 0.653 1.381 1.914 2.651 3.528-1.809-1.853-2.188-1.858-1.34 0.148 0.645 1.528 1.78 3.353 3.827 5.391 0.635 2.503 1.607 4.117 3.235 5.02 1.003 0.557 1.812 0.151 2.176-1.31 2.94 3.148 6.09 6.164 8.928 8.164-2.322 1.91-6.261 5.713-7.148 6.779-9.924-2.79-20.173-9.599-28.172-17.457m41.954-27.149c0.428-0.542 0.793-1.06 1.067-1.509-0.195 0.304-0.596 0.885-1.067 1.509" clip-path="url(#clipPath8068)" fill="url(#radialGradient3474)"/>
  <g>
   <path d="m146.97 135.39c-1.368 1.355-5.091 9.3858-4.6762 12.153 1.1352-0.24885 5.2074-6.4896 5.9918-7.7485-9e-3 3e-3 -0.0161 8e-3 -0.026 0.0105-0.77717-1.3142-1.1789-2.838-1.2895-4.4142" fill="#eb6d81"/>
   <path transform="matrix(1.4554 0 0 -1.4554 -74.944 989.34)" d="m156.16 570.45c-0.781-0.586-1.735-0.776-2.197-0.322-0.759-1.196-2.063-1.427-3.398-1.372-0.387-1.803-2.079-3.029-3.22-2.937 0 0 0.3 1.843 0.481 2.534-0.652 3.42-2.695 10.027-4.385 10.548-0.996 0.308-5.28-1.253-8.501-2.739-4.871-2.651-7.842-5.493-8.755-7.389-2.17-4.506-0.017-8.244 2.422-10.332 4.947-4.232 12.499-2.497 15.86 1.839 0.748-0.662 1.387-1.001 1.969-1.02 2.291-0.074 6.995 4.753 8.566 6.832-0.265 0.59 0.646 3.186 1.158 4.358" clip-path="url(#clipPath6848)" fill="#82cbd1"/>
   <path transform="matrix(1.4554 0 0 -1.4554 -74.944 989.34)" d="m147.35 565.95c-1.311-3.94-1.349-6.49-0.82-6.853 0.254-0.174 2.806 1.017 4.645 2.858s3.488 3.412 3.837 4.031c0.016 0.73 1.013 4.316 1.013 4.316s-1.139-0.592-2.069-0.179c-0.294-0.537-1.582-1.315-3.397-1.371-0.196-0.802-0.817-1.639-1.321-2.055-0.635-0.524-1.888-0.747-1.888-0.747" clip-path="url(#clipPath6879)" fill="#71b1b6"/>
   <path transform="matrix(1.4554 0 0 -1.4554 -74.944 989.34)" d="m187.99 537.1c-0.603-0.286-4.962-4-5.072-5.666 0.245-0.051 0.412-0.158 1.68 0.731 1.269 0.889 3.867 3.303 3.867 3.303-0.363 0.22-0.475 1.632-0.475 1.632" clip-path="url(#clipPath6758)" fill="#71b1b6"/>
   <path transform="matrix(1.4554 0 0 -1.4554 -74.944 989.34)" d="m147.39 583.97c0.232-0.232 1.555 0.604 1.555 0.604s0.834 1.946 1.404 2.676c0.571 0.73 1.723 2.127 2.399 2.624 0.795 2.5 2.063 4.601 3.191 5.215 0.972 0.529 0.189 1.143-1.079 0.751-1.796-0.555-2.711-0.986-3.405-1.747-3.424-3.764-4.7-9.489-4.065-10.123" clip-path="url(#clipPath6894)" fill="#324b57"/>
   <path transform="matrix(1.4554 0 0 -1.4554 -74.944 989.34)" d="m149.59 580.66c-0.267-0.917-0.409-1.73-0.329-2.261 0.442 0.096 2.485 2.93 3.446 4.3-0.678-0.431-2.308-2.181-3.117-2.039" clip-path="url(#clipPath6803)" fill="#cb5e71"/>
   <path transform="matrix(1.4554 0 0 -1.4554 -74.944 989.34)" d="m167.13 601.91c-2.322 1.911-6.262 5.713-7.148 6.779-1.409-0.396-2.825-0.875-4.239-1.425-0.766-4.47 0.795-8.837 3.483-12.436 2.637 2.748 5.393 5.312 7.904 7.082" clip-path="url(#clipPath8506)" fill="#22343e"/>
   <path transform="matrix(1.4554 0 0 -1.4554 -74.944 989.34)" d="m156.6 582.1c0.28-1.001 0.594-1.801 0.847-1.783 0.238 0.379 0.476 2.546 0.494 3.863-0.327-0.94-0.818-1.809-1.341-2.08" clip-path="url(#clipPath7026)" fill="#cb5e71"/>
   <path transform="matrix(1.4554 0 0 -1.4554 -74.944 989.34)" d="m177.97 594.13c-0.05-1.27-0.181-3.911-0.428-4.934-0.348 0.419-1.107 5.913-1.388 6.097-2.038-0.03-10.686-0.693-13.575-0.386 0.72 0.681 5.885 2.253 10.195 2.698-1.997 1.423-3.916 2.891-5.64 4.31-2.511-1.77-5.267-4.334-7.904-7.082 1.065-1.427 2.306-2.732 3.65-3.875 4.284 0.807 10.128 1.578 11.76 1.552 0.307-0.948 0.411-5.121 0.195-7.91 0.598-0.171 1.2-0.321 1.807-0.45 1.441 3.516 2.912 6.611 4.028 8.365-0.888 0.508-1.792 1.049-2.7 1.615" clip-path="url(#clipPath6960)" fill="#ddd583"/>
   <path transform="matrix(1.4554 0 0 -1.4554 -74.944 989.34)" d="m172.57 589.56c-0.528 0.105-4.242 0.158-8.131 0.171 0.323-0.233 0.651-0.458 0.981-0.672 1.524-1.015 3.103-1.917 4.728-2.687 0.224 3e-3 0.427 2e-3 0.601-4e-3 0.023-0.101 0.048-0.204 0.072-0.307 0.991-0.442 2.001-0.831 3.024-1.164-0.378 1.626-0.846 3.594-1.275 4.663" clip-path="url(#clipPath6975)" fill="#ddd583"/>
   <path transform="matrix(1.4554 0 0 -1.4554 -74.944 989.34)" d="m189.32 539.39c0.473 0.56 0.85 0.893 1.461 1.241-0.486 0.048-0.974 0.281-1.067 1.027-0.174-0.566-0.51-1.754-0.394-2.268" clip-path="url(#clipPath6990)" fill="#71b1b6"/>
   <path transform="matrix(1.4554 0 0 -1.4554 -74.944 989.34)" d="m195.6 545.08c0.151 0.062 0.238 0.097 0.238 0.098-0.039 0.088-0.123 0.038-0.238-0.098" clip-path="url(#clipPath6945)" fill="#cb5e71"/>
   <path transform="matrix(1.4554 0 0 -1.4554 -74.944 989.34)" d="m189.31 542.71c-0.289-0.316-0.396-0.317-0.608-0.683 0.416 0.086 0.823 0.092 1.188-0.031 0.197 0.172 0.782 0.515 1.254 0.809-0.506-0.022-1.365-0.348-1.834-0.095" clip-path="url(#clipPath6930)" fill="#71b1b6"/>
   <path transform="matrix(1.4554 0 0 -1.4554 -74.944 989.34)" d="m180.67 592.51c-1.116-1.753-2.587-4.849-4.028-8.365 0.518-0.111 1.04-0.211 1.565-0.289 1.227 3.302 2.626 6.252 3.888 7.862-0.47 0.253-0.946 0.518-1.425 0.792" clip-path="url(#clipPath8541)" fill="#22343e"/>
   <path transform="matrix(1.4554 0 0 -1.4554 -74.944 989.34)" d="m177.97 594.13c-0.533 0.333-1.068 0.675-1.604 1.024 0.401-2.095 0.775-5.476 1.176-5.958 0.247 1.023 0.378 3.664 0.428 4.934" clip-path="url(#clipPath7041)" fill="#cb5e71"/>
   <path transform="matrix(1.4554 0 0 -1.4554 -74.944 989.34)" d="m187.61 542.4c-0.394-0.482-0.34-0.567-0.586-1.101 0.53 0.339 1.117 0.612 1.687 0.729 0.244 0.423 0.663 1.08 1.074 1.461-0.544-0.244-1.647-1.368-2.175-1.089" clip-path="url(#clipPath7056)" fill="#71b1b6"/>
   <path transform="matrix(1.4554 0 0 -1.4554 -74.944 989.34)" d="m176.15 595.29c-1.137 0.746-2.27 1.522-3.38 2.313-4.309-0.446-9.474-2.018-10.194-2.699 2.888-0.306 11.536 0.357 13.574 0.386" clip-path="url(#clipPath7071)" fill="#cb5e71"/>
   <path transform="matrix(1.4554 0 0 -1.4554 -74.944 989.34)" d="m148.33 582.69c0.521 0.395 1.847 1.399 3.031 3.076-0.566-0.322-1.798-1.268-2.452-1.105-0.187-0.506-0.473-1.513-0.579-1.971" clip-path="url(#clipPath7086)" fill="#cb5e71"/>
   <path transform="matrix(1.4554 0 0 -1.4554 -74.944 989.34)" d="m154.5 571.69c-0.209-1.014-0.527-1.547-0.54-1.567 0.689-0.678 2.027 0.046 2.661 0.741 0.57 0.625 1.129 2.967 1.456 4.729-0.845-1.518-1.948-3.21-3.577-3.903" clip-path="url(#clipPath7101)" fill="#71b1b6"/>
   <path transform="matrix(1.4554 0 0 -1.4554 -74.944 989.34)" d="m154.05 577.63c0.105 0.019 1.144 2.967 1.562 4.422-0.348-0.37-1.149-2.28-1.838-2.208 0.072-0.992 0.147-2.237 0.276-2.214" clip-path="url(#clipPath7116)" fill="#cb5e71"/>
  </g>
  <g fill="#71b1b6">
   <path transform="matrix(1.4554 0 0 -1.4554 -74.944 989.34)" d="m150.83 570.49c-0.095-0.221-0.17-0.416-0.222-0.578-3e-3 -0.555-0.017-0.985-0.035-1.12-3e-3 -0.012-7e-3 -0.025-0.01-0.037 0.627-0.026 2.219 0.207 3.076 0.99 0.651 0.594 1.03 2.609 1.221 4.375-0.987-1.539-2.307-2.859-4.03-3.63" clip-path="url(#clipPath7131)"/>
   <path transform="matrix(1.4554 0 0 -1.4554 -74.944 989.34)" d="m157.94 573.43c-0.613-0.55-0.136-0.087-0.507-0.45-0.387-1.335-0.343-1.829-1.281-2.534-0.31-0.707-0.679-1.74-0.926-2.633-0.521-1.889-0.349-2.178 0.91-1.013 1.669 1.543 4.859 5.093 7.017 8.347-1.46-1.295-3.84-3.593-5.213-1.717" clip-path="url(#clipPath7146)"/>
   <path transform="matrix(1.4554 0 0 -1.4554 -74.944 989.34)" d="m188.62 538.02c-0.479-1.147-0.767-2.447-0.147-2.55 0.561 0.05 5.236 3.045 8.306 5.227-2.176-0.872-7.178-4.045-8.159-2.677" clip-path="url(#clipPath7161)"/>
  </g>
  <g>
   <path transform="matrix(1.4554 0 0 -1.4554 -74.944 989.34)" d="m174.64 592.51c-1.632 0.025-7.476-0.746-11.76-1.552 0.507-0.431 1.028-0.838 1.559-1.22 3.889-0.014 7.602-0.066 8.131-0.172 0.428-1.069 0.897-3.037 1.275-4.662 0.329-0.107 0.659-0.21 0.99-0.305 0.216 2.79 0.112 6.963-0.195 7.911" clip-path="url(#clipPath7191)" fill="#cb5e71"/>
   <path transform="matrix(1.4554 0 0 -1.4554 -74.944 989.34)" d="m174.48 582.36c0.163 0.435 0.279 1.252 0.355 2.243-0.331 0.094-0.661 0.197-0.99 0.304" clip-path="url(#clipPath7206)" fill="#cb5e71"/>
   <path transform="matrix(1.4554 0 0 -1.4554 -74.944 989.34)" d="m147.81 567.91c-0.198-0.784-0.362-1.516-0.471-2.093 1.142-0.092 2.833 1.135 3.221 2.937 2e-3 6e-3 -2e-3 1.046-0.038 2.177-0.622-1.195-1.511-2.236-2.712-3.021" clip-path="url(#clipPath6728)" fill="#71b1b6"/>
  </g>
  <g fill="#0f141b">
   <path transform="matrix(1.4554 0 0 -1.4554 -74.944 989.34)" d="m262.36 610.66h3e-3z" clip-path="url(#clipPath6743)"/>
   <path transform="matrix(1.4554 0 0 -1.4554 -74.944 989.34)" d="m179.31 539.66c-2.663-0.649-9.547-1.265-14.42-1.327 0.013-0.066 0.372-0.794 0.366-0.944 4.719-0.07 11.461 0.971 14.208 1.641 0.174 0.042 0.02 0.672-0.154 0.63" clip-path="url(#clipPath7791)"/>
   <path transform="matrix(1.4554 0 0 -1.4554 -74.944 989.34)" d="m183.12 531.07c-1.017 0.145-4.062 4.023-4.215 8.201-0.036 0.995 0.545 1.049 0.644 0.075 0.396-3.907 3.049-7.531 3.663-7.633 5e-3 -1e-3 0.01-1e-3 0.014-1e-3 0.614 1e-3 4.052 3.102 4.967 3.922 0.208 0.187 0.62-0.314 0.433-0.482-3.184-2.855-4.883-4.172-5.506-4.082" clip-path="url(#clipPath6500)"/>
   <path transform="matrix(1.4554 0 0 -1.4554 -74.944 989.34)" d="m185.4 540.37c0.982 1.103 3.059 2.458 4.603 1.938 0.169-0.058-0.038-0.672-0.207-0.615-1.559 0.523-3.988-1.544-4.298-2.304-0.052-0.126-0.34 0.71-0.098 0.981" clip-path="url(#clipPath7221)"/>
   <path transform="matrix(1.4554 0 0 -1.4554 -74.944 989.34)" d="m199.77 543.62c0.033 0.04-3e-3 0.1-0.054 0.087-2.372-0.561-8.563-2.825-9.952-4.312-1.174-1.257-1.334-3.574-1.282-3.592 0.988 0.247 9.063 5.182 11.288 7.817m-12.043-7.851c-0.324 0.952 0.392 2.815 1.563 4.069 1.479 1.584 7.423 3.843 9.997 4.407 1.364 0.299 2.137 0.446 1.144-0.83-2.217-2.848-10.932-8.177-11.93-8.266-9e-3 -2e-3 -0.658 0.277-0.774 0.62" clip-path="url(#clipPath7236)"/>
   <path transform="matrix(1.4554 0 0 -1.4554 -74.944 989.34)" d="m189.01 539.24c-0.341 0.948 0.089 2.497 0.671 3.006 0.532 0.467 3.969 2.262 5.541 2.878 1.317 0.516 1.34 0.484 0.722-0.679-0.414-0.781-1.319-1.812-2.009-2.509-0.367-0.37-1.323-0.3-1.175-0.2 0.597 0.398 2.009 1.992 2.552 2.867 0.027 0.045-0.02 0.098-0.068 0.077-1.308-0.576-4.394-2.272-5.135-2.922-0.405-0.353-0.731-1.624-0.488-2.299 0.061-0.168-0.563-0.352-0.611-0.219" clip-path="url(#clipPath7251)"/>
   <path transform="matrix(1.4554 0 0 -1.4554 -74.944 989.34)" d="m188.27 541.91c0.917 1.985 4.226 3.719 5.45 4.108 0.857 0.271 1.134 0.182 0.628-0.808-0.122-0.238-0.33-0.576-0.682-1.063-0.167-0.229-1.22-0.529-1.11-0.388 0.37 0.469 0.766 1.017 1.024 1.421 0.028 0.044-0.018 0.099-0.066 0.079-1.133-0.467-3.409-1.732-4.388-3.158-0.105-0.152-0.931-0.354-0.856-0.191" clip-path="url(#clipPath7266)"/>
   <path transform="matrix(1.4554 0 0 -1.4554 -74.944 989.34)" d="m186.55 541.24c0.778 2.176 3.38 4.071 4.75 4.809 1.1 0.592 1.375 0.565 0.897-0.563-0.087-0.209-0.225-0.495-0.435-0.892-0.123-0.233-1.104-0.663-1.016-0.506 0.241 0.431 0.5 0.919 0.687 1.297-1.01-0.613-2.968-2.096-3.935-3.834-0.137-0.249-1.008-0.48-0.948-0.311" clip-path="url(#clipPath7281)"/>
   <path transform="matrix(1.4554 0 0 -1.4554 -74.944 989.34)" d="m185.19 550.78c-1.638 1.282-8.167 1.666-9.833 1.818 0.316 1.579 0.377 4.597 0.213 7.791-0.213 4.137-0.605 8.363-8e-3 12.183 1.192 7.622 4.738 16.201 6.759 18.9-0.126 0.107-0.257 0.209-0.397 0.299-0.044 0.029-0.091 0.053-0.137 0.079-2.776-3.607-6.004-13.093-6.918-18.938-0.608-3.886-0.366-8.611-0.152-12.78 0.175-3.412 0.327-6.358-0.076-7.733-0.092-0.32-0.03-0.405 0.308-0.416 0.481-0.015 8.019-0.739 9.627-1.997 1.148-0.9 1.126-7.79 0.366-11.084-0.405-1.756 0.071-2.031 0.563-0.058 0.976 3.912 1.095 10.832-0.315 11.936" clip-path="url(#clipPath7296)"/>
   <path transform="matrix(1.4554 0 0 -1.4554 -74.944 989.34)" d="m174.79 562.13c-0.652 1.181-2.065 3.127-3.558 4.376-0.115 0.096 0.079 0.532 0.194 0.436 1.436-1.203 2.699-2.595 3.455-3.811 0.086-0.137-0.042-1.09-0.091-1.001" clip-path="url(#clipPath7431)"/>
   <path transform="matrix(1.4554 0 0 -1.4554 -74.944 989.34)" d="m150.6 584.53c-0.135-0.058-1.745-1.364-1.875-1.383-0.677-0.869-0.798-1.242-1.117-1.711-0.047-0.069-0.321-0.477-0.308-0.559 0.473-2.863 2.178-6.078 4.272-9.027 0.123 0.239 0.272 0.462 0.423 0.685-2.16 3.169-3.643 6.196-4.032 8.32 0.455 0.659 1.612 2.361 2.637 3.675" clip-path="url(#clipPath7446)"/>
   <path transform="matrix(1.4554 0 0 -1.4554 -74.944 989.34)" d="m166.95 602.19c-2.82-1.984-6.014-4.975-9.018-8.103 0.015-0.057 0.037-0.113 0.048-0.171 0.052-0.257 0.077-0.519 0.094-0.781 3.09 3.338 6.427 6.558 9.369 8.608-0.157 0.157-0.317 0.312-0.493 0.447" clip-path="url(#clipPath7461)"/>
   <path transform="matrix(1.4554 0 0 -1.4554 -74.944 989.34)" d="m180.36 592.64c-3.052-4.847-8.893-19.886-9.296-25.99-2.421-1.191-8.497-3.76-9.301-3.824-1.175 0.261-3.103 1.772-5.211 4.013-1e-3 -3e-3 1e-3 -5e-3 -1e-3 -7e-3 -0.109-0.082-0.217-0.164-0.327-0.245-0.053-0.04-0.108-0.078-0.162-0.118 2.477-2.552 4.745-4.264 5.673-4.293 0.953 0 8.01 3.086 9.788 3.976 0.105 0.053 0.222 8e-3 0.228 0.125 0.283 5.855 6.026 20.956 9.09 25.91-0.156 0.153-0.308 0.317-0.481 0.453" clip-path="url(#clipPath7476)"/>
   <path transform="matrix(1.4554 0 0 -1.4554 -74.944 989.34)" d="m177.64 594.07c-0.034-0.859-0.104-2.28-0.216-3.42-0.142 0.676-0.568 3.141-0.787 4.357 0.102 0.048-0.499 0.679-0.661 0.583-2.131-0.102-9.728-0.575-12.229-0.431 1.76 0.709 5.492 1.841 8.864 2.212-0.142 0.156-0.289 0.308-0.455 0.436-3.735-0.264-7.953-1.621-9.391-2.394-0.847-0.455-0.884-0.691 0.281-0.874 1.542-0.242 10.324 0.224 12.953 0.39 0.262-1.312 0.866-4.32 1.022-4.908 0.366-1.373 0.557-1.493 0.891 0.187 0.223 1.118 0.322 2.495 0.367 3.454-0.215 0.132-0.428 0.268-0.639 0.408" clip-path="url(#clipPath7491)"/>
  </g>
  <path d="m170.84 140.83c0.66365 1.5078 3.0199 7.9595 4.9512 10.974 0.54286-1.5689-0.72915-9.5284-2.2398-15.861-3.3561-0.1135-13.478 0.88634-18.823 2.1962 9e-3 0.76116 0 1.5354-0.0231 2.2733 1.9633-0.035 15.317 0.30126 16.134 0.41771" fill="#eb6d81"/>
  <g fill="#0f141b">
   <path transform="matrix(1.4554 0 0 -1.4554 -74.944 989.34)" d="m162.13 590.06c4.48 2e-3 9.809-0.043 10.496-0.181 0.108-0.021 0.196-0.095 0.237-0.197 0.473-1.18 1.51-5.655 1.569-5.904 0.297 2.482 0.224 7.03-0.051 8.4-2.345-0.058-10.486-1.222-14.21-2.123 0.621 3e-3 1.28 5e-3 1.959 5e-3m11.824-6.797c-0.518 1.761-1.299 5.214-1.64 6.132-1.43 0.135-9.282 0.043-14.128-1e-3h-3e-3c-0.14-1e-3 -0.307 0.501-0.194 0.585 1.396 1.037 14.032 2.849 16.572 2.851 0.215 0 0.38-0.151 0.446-0.491 0.302-1.524 0.337-6.364-0.037-8.847-0.275-1.818-0.569-1.742-1.016-0.229" clip-path="url(#clipPath7506)"/>
   <path transform="matrix(1.4554 0 0 -1.4554 -74.944 989.34)" d="m171.7 575.91c-1.1 1.74-2.971 6.617-3.07 6.857-1.438 0.091-10.077 0.248-10.926 0.208-0.172-8e-3 -0.21 0.64-0.031 0.648 0.906 0.041 10.681-0.205 11.251-0.286 0.11-0.016 0.206-0.088 0.251-0.191 0.104-0.237 1.992-4.973 2.867-6.612-0.052 1.856-0.682 5.79-1.56 9.52-2.52 0.028-9.159-0.66-12.619-1.509-0.146-0.036-0.186 0.623 0.033 0.676 3.724 0.882 10.502 1.557 12.856 1.477 0.145-5e-3 0.27-0.107 0.304-0.249 0.729-3.054 1.595-7.534 1.535-9.875-0.044-1.689-0.173-1.799-0.891-0.664" clip-path="url(#clipPath7521)"/>
   <path transform="matrix(1.4554 0 0 -1.4554 -74.944 989.34)" d="m146.98 585.5c0.291 1.962 1.954 5.79 4.228 8.585 0.798 0.983 1.173 0.672 0.374-0.322-2.154-2.679-3.689-6.53-3.96-8.358-0.14-0.945 9e-3 -1.077 0.01-1.078 7e-3 -4e-3 0.233-0.098 1.294 0.688 0.144 0.107 0.08-0.743-0.057-0.834-1.808-1.194-2.193-0.719-1.889 1.319" clip-path="url(#clipPath7536)"/>
   <path transform="matrix(1.4554 0 0 -1.4554 -74.944 989.34)" d="m148.97 588.18c1.707 3.686 5.894 7.856 8.117 7.409 0.175-0.036-0.755-0.641-1.146-0.8-1.95-0.789-5.028-3.981-6.618-6.976-0.602-1.134-0.875-0.759-0.353 0.367" clip-path="url(#clipPath7566)"/>
   <path transform="matrix(1.4554 0 0 -1.4554 -74.944 989.34)" d="m153.03 595.49c0.592 0.254 1.29 0.446 1.909 0.582 1.006 0.222 1.096-0.297 0.163-0.484-0.628-0.126-1.428-0.38-2.036-0.65-0.663-0.294-0.743 0.248-0.036 0.552" clip-path="url(#clipPath7551)"/>
   <path transform="matrix(1.4554 0 0 -1.4554 -74.944 989.34)" d="m148.11 583.17c0.687 2.548 2.231 4.958 4.707 7.353 0.129 0.124 0.01-0.902-0.199-1.119-1.763-1.837-2.961-3.681-3.63-5.592-0.02-0.054 0.048-0.099 0.089-0.059 0.847 0.805 2.952 3.027 3.385 3.444 0.129 0.125 0.226-0.686 0.112-0.801-0.351-0.351-2.85-2.993-3.744-3.723-0.894-0.729-1.002-0.547-0.72 0.497" clip-path="url(#clipPath7581)"/>
   <path transform="matrix(1.4554 0 0 -1.4554 -74.944 989.34)" d="m149.04 579.12c0.266 1.928 1.82 6.469 3.338 8.059 0.124 0.13 0.29-0.647 0.2-0.763-1.298-1.667-2.571-5.42-2.914-7.159-0.01-0.053 0.057-0.086 0.094-0.046 1.112 1.236 3.188 4.39 3.424 4.818 0.085 0.155 0.657-0.137 0.578-0.295-0.023-0.045-2.38-3.86-3.757-5.128-1.018-0.938-1.137-0.747-0.963 0.514" clip-path="url(#clipPath7596)"/>
   <path transform="matrix(1.4554 0 0 -1.4554 -74.944 989.34)" d="m157.87 587.96c-0.023 0.1-0.094 0.177-0.183 0.217-4e-3 -0.094-0.013-0.188-0.03-0.281-0.033-0.197-0.089-0.39-0.157-0.578-0.037-0.104-0.085-0.204-0.13-0.305 0.202-1.732 0.12-4.527-0.035-5.829-7e-3 -0.057-0.084-0.067-0.105-0.014-0.375 0.988-0.839 2.995-0.997 4.177-0.178-0.161-0.374-0.304-0.582-0.424 0.173-1.052 0.572-3.168 1.115-4.256 0.425-0.855 0.894-1.157 1.143 0.125 0.345 1.769 0.243 5.985-0.039 7.168" clip-path="url(#clipPath7611)"/>
   <path transform="matrix(1.4554 0 0 -1.4554 -74.944 989.34)" d="m132.96 581.71c-0.489 0.735-0.995 5.082-0.832 9.303-0.221-0.165-0.441-0.33-0.664-0.492-0.102-4.054 0.344-8.763 1.167-9.403 0.064-0.05 0.149-0.075 0.225-0.067 3.446 0.286 12.269 0.157 14.622-0.373 0.011 0.135 0.354 0.767 0.416 0.829-2.487 0.603-11.486 0.465-14.934 0.203" clip-path="url(#clipPath7626)"/>
   <path transform="matrix(1.4554 0 0 -1.4554 -74.944 989.34)" d="m147.88 567.72c-0.154 0-0.292 0.111-0.319 0.269-0.68 3.867-2.796 10.162-4.217 10.601-1.491 0.458-7.751-2.39-9.807-3.447-1.484-0.763-1.524-0.26 0.248 0.705 3.315 1.805 8.983 3.964 10.193 3.591 2.044-0.632 3.694-8.329 4.222-11.338 0.031-0.177-0.088-0.345-0.263-0.376-0.02-3e-3 -0.038-5e-3 -0.057-5e-3" clip-path="url(#clipPath7641)"/>
   <path transform="matrix(1.4554 0 0 -1.4554 -74.944 989.34)" d="m128.22 558.58c-2.399 1.661-4.075 5.046-2.74 9.426 0.351 1.155 0.832 1.171 0.486 0.073-1.284-4.083 0.648-7.853 2.624-9.259 0.817-0.581 0.467-0.819-0.37-0.24" clip-path="url(#clipPath7656)"/>
   <path transform="matrix(1.4554 0 0 -1.4554 -74.944 989.34)" d="m138.37 556.58c2.315 0.394 4.914 2.73 5.795 3.845 0.085 0.107 0.588-0.455 0.481-0.588-1.005-1.255-3.372-3.306-5.923-3.651-1.105-0.149-1.478 0.203-0.353 0.394" clip-path="url(#clipPath6515)"/>
   <path transform="matrix(1.4554 0 0 -1.4554 -74.944 989.34)" d="m146.43 558.72c-1.07-1e-3 -2.726 1.407-5.121 4.825-0.696 0.993-0.373 1.409 0.319 0.494 2.021-2.668 3.62-4.418 4.812-4.456 2.108-0.061 6.818 4.675 8.351 6.771 0.124 0.17 0.654-0.2 0.494-0.412-1.536-2.034-6.339-7.221-8.855-7.222" clip-path="url(#clipPath6530)"/>
   <path transform="matrix(1.4554 0 0 -1.4554 -74.944 989.34)" d="m145.64 567.13c0.456 0.477 1.222 1.089 2.174 1.271 0.232 0.043 0.354-0.599 0.197-0.624-0.901-0.142-1.817-0.78-2.293-1.2-0.52-0.46-0.656-0.052-0.078 0.553" clip-path="url(#clipPath6545)"/>
   <path transform="matrix(1.4554 0 0 -1.4554 -74.944 989.34)" d="m146.1 561.99c0.021 0.705 0.229 1.487 0.517 2.093 0.297 0.626 0.869 0.722 0.6 0.228-0.301-0.555-0.546-1.64-0.654-2.36-0.126-0.841-0.488-0.843-0.463 0.039" clip-path="url(#clipPath6620)"/>
   <path transform="matrix(1.4554 0 0 -1.4554 -74.944 989.34)" d="m154.65 566.57c0.081 0.808 0.56 2.379 1.026 3.546 0.292 0.728 1.283 0.999 1.136 0.896-0.35-0.359-1.451-3.528-1.528-4.544 1.502 1.089 7.481 7.64 9.274 11.811 0.021 0.047-0.032 0.094-0.076 0.069-1.671-0.922-6.258-4.934-7.241-6.042-0.119-0.134-0.145 0.79 0.132 1.056 1.249 1.204 4.783 4.25 6.625 5.276 1.612 0.897 1.657 0.683 0.954-0.89-1.785-3.995-7.129-10.053-9.135-11.667-1.076-0.865-1.287-0.693-1.167 0.489" clip-path="url(#clipPath6635)"/>
   <path transform="matrix(1.4554 0 0 -1.4554 -74.944 989.34)" d="m164.87 541.9c0.84 1.164 4.903 5.109 7.007 6.83 1.237 1.013 1.895 1.008 0.682-0.017-1.962-1.66-6.621-6.545-7.559-7.845-0.053-0.073-0.217 0.911-0.13 1.032" clip-path="url(#clipPath6650)"/>
  </g>
  <path transform="matrix(1.4554 0 0 -1.4554 -74.944 989.34)" d="m95.439 596.23c-12.463-13.455-47.637-53.8-16.068-88.485 13.563-14.903 36.636-19.536 54.876-13.436 4.465 1.493 4.508 2.305 2.277 1.471-18.348-6.861-42.997-2.353-56.416 12.39-28.716 31.551-0.574 70.19 16.165 88.183 0.706 0.759 0.89 1.144 0.713 1.144-0.185 0-0.762-0.419-1.547-1.267" clip-path="url(#clipPath8030)" fill="url(#linearGradient3820)"/>
  <g fill="#0f141b">
   <path transform="matrix(1.4554 0 0 -1.4554 -74.944 989.34)" d="m155.99 512.29c-2.335-4.527-5.635-8.251-9.59-11.194-1.533-1.142-1.018-1.449 1.183 0.265 3.763 2.932 6.364 5.867 8.63 10.259 0.641 1.25 0.423 1.918-0.223 0.67" clip-path="url(#clipPath7926)"/>
   <path transform="matrix(1.4554 0 0 -1.4554 -74.944 989.34)" d="m156.14 585.84c-0.065-0.226-0.164-0.441-0.306-0.629-0.085-0.114-0.184-0.213-0.29-0.307-0.091-2.125-0.836-4.754-1.329-6.13-0.018-0.054-0.098-0.044-0.104 0.013-0.141 1.467-0.213 4.146-0.056 4.989 0.067 0.079 0.205 0.234 0.392 0.418-0.041-0.022-0.082-0.046-0.124-0.067-0.125-0.065-0.254-0.125-0.39-0.165-0.128-0.039-0.264-0.059-0.397-0.041-0.038 4e-3 -0.071 0.02-0.106 0.03-0.161-0.814-0.149-4.792 0.179-6.128 0.195-0.794 0.441-0.974 0.943 0.031 0.767 1.534 1.705 5.909 1.649 7.746-3e-3 0.109-0.026 0.186-0.061 0.24" clip-path="url(#clipPath7971)"/>
   <path transform="matrix(1.4554 0 0 -1.4554 -74.944 989.34)" d="m153.75 570.01c-0.104 0.146 0.427 0.521 0.53 0.375 0.267-0.378 1.324-0.163 2.106 0.696 0.419 0.459 1.418 4.312 1.653 5.868 8e-3 0.05-0.051 0.082-0.088 0.048-0.738-0.662-2.128-2.231-3.21-4.474-0.078-0.162-0.267 0.913-0.098 1.214 0.964 1.719 2.113 3.081 2.907 3.765 1.023 0.882 1.316 1.114 1.149-0.421-0.186-1.717-1.31-5.863-1.834-6.438-1.108-1.215-2.504-1.497-3.115-0.633" clip-path="url(#clipPath7941)"/>
   <path transform="matrix(1.4554 0 0 -1.4554 -74.944 989.34)" d="m154.58 576.19c-1.078-1.34-3.318-4.653-3.833-7.014 0.574-0.241 2.424 0.177 2.983 1.182 0.285 0.512 0.809 4.137 0.945 5.793 5e-3 0.054-0.062 0.081-0.095 0.039m-3.949-7.761c-0.133 0-0.37 1.469-0.265 1.777 0.838 2.44 2.943 5.339 3.955 6.522 0.944 1.103 1.016 1.048 0.953-0.476-0.071-1.743-0.696-5.706-0.976-6.209-0.698-1.255-2.784-1.614-3.667-1.614" clip-path="url(#clipPath7956)"/>
   <path transform="matrix(1.4554 0 0 -1.4554 -74.944 989.34)" d="m150.91 571.35c-0.079 2.38-0.332 2.565-0.483 2.676-0.108 0.079-0.248 0.092-0.375 0.036-0.874-0.387-2.552-5.461-2.91-7.847-0.119-0.792 0.545-0.735 0.656 0.026 0.376 2.584 1.704 5.86 2.32 6.922 0.184-1.066 0.189-3.866 0.133-4.306-0.199-0.977-0.789-1.717-1.388-2.212-0.945-0.779-0.485-0.933 0.547-0.092 0.724 0.589 1.245 1.038 1.48 2.197 0.034 0.256 0.059 1.423 0.02 2.6" clip-path="url(#clipPath7701)"/>
   <path transform="matrix(1.4554 0 0 -1.4554 -74.944 989.34)" d="m139.7 539.5c3.439 0.575 2.148 1.034-0.305 0.729-9.697-1.208-21.985 14.722-22.091 25.207-0.141 14.186 23.272 37.492 42.901 42.96-0.104 0.083-0.204 0.167-0.309 0.249-0.19 0.149-0.415 0.071-0.61 0.215-18.904-6.125-43.215-27.241-43.052-43.49 0.119-11.922 13.479-27.541 23.466-25.87" clip-path="url(#clipPath7731)"/>
   <path transform="matrix(1.4554 0 0 -1.4554 -74.944 989.34)" d="m145.2 541.06c2.238 0.989 4.308 2.363 6.158 3.979 1.896 1.656 1.132 1.793-0.81 0.169-1.666-1.393-3.496-2.593-5.458-3.497-2.188-1.007-2.051-1.606 0.11-0.651" clip-path="url(#clipPath7746)"/>
   <path transform="matrix(1.4554 0 0 -1.4554 -74.944 989.34)" d="m154.47 593.05c-1.604-2.253-2.334-6.32-0.953-8.945 2.656 0.921 4.761 4.713 4.552 8.298-0.171 2.907-1.48 3.625-3.599 0.647m-1.107-9.658c-0.752 0-2.593 5.577 0.579 10.034 2.294 3.225 4.549 2.851 4.774-0.985 0.346-5.906-4.11-9.048-5.353-9.049" clip-path="url(#clipPath7761)"/>
  </g>
  <path transform="matrix(1.4554 0 0 -1.4554 -74.944 989.34)" d="m95.831 632.76c-0.265-4.199 2.067-6.185 4.026-8.01 1.854-1.726 3.496-3.231 3.099-6.191-0.756-5.639-6.445-9.298-13.221-14.142-6.85-4.897-16.05-11.251-22.531-21.397-17.185-26.896-16.595-58.946 4.704-78.692 27.341-25.349 63.87-23.876 85.267 3.24 7.972 10.102 10.61 34.527 6.002 48.539-1.349 4.105-2.9 3.955-4.952-0.385-1.006-2.123-1.905-3.896-3.561-6.051-2.134-2.778-1.911-3.578 0.186-0.984 1.777 2.198 3.208 4.591 4.211 6.951 1.63 3.831 2.491 3.701 3.493 0.286 4.742-16.142 0.387-39.497-6.38-48.073-20.82-26.385-56.216-27.631-83.193-2.623-20.596 19.095-21.582 50.361-4.218 77.535 6.413 10.04 14.882 16.095 21.688 20.96 6.903 4.935 12.355 8.833 13.148 14.748 0.442 3.293-1.355 4.968-3.258 6.74-1.944 1.812-3.955 3.685-3.71 7.577 0.314 4.982 6.968 10.816 12.265 6.895-4.806 1.253-8.499-1.021-8.19-6.021 0.177-2.838 2.722-4.597 5.418-6.458 3.429-2.367 6.974-4.815 6.776-9.789-0.233-5.846-3.32-8.675-7.989-12.958-5.134-4.707-12.165-11.153-18.565-25.227-8.471-18.629-11.853-42.633 1.815-60.01 9.617-12.224 29.486-14.707 35.865 3.099 2.214 6.178 2.612 14.205 1.195 23.855 8e-3 0.538-0.918 2.629-1.448 2.131 2.579-17.823-0.498-32.689-9.91-36.782-7.994-3.476-18.625 1.053-24.993 9.147-13.373 16.998-9.4 40.695-1.475 58.12 6.345 13.954 13.711 20.983 18.804 25.652 4.617 4.235 7.828 7.316 8.072 13.432 0.213 5.331-4.235 7.615-7.642 9.967-2.674 1.846-5.118 3.337-5.274 5.86-0.222 3.585 1.693 6.572 7.381 5.455 1.713-0.337 2.002 0.029 0.448 1.112-1.296 0.903-2.723 1.305-4.146 1.305-4.465 0-8.901-3.953-9.207-8.813" clip-path="url(#clipPath8049)" fill="url(#linearGradient3884)"/>
  <g>
   <path d="m153.13 75.701c-0.47882 0.64037-2.7172 5.9409-2.7754 6.1287 1.4088 0.18338 2.742 1.0872 3.5541 2.0652 0.08-0.08585 3.7374-4.2119 4.4098-5.302 0.17901-2.5935-2.9574-4.2206-5.1885-2.8919" fill="#a3d5c0"/>
   <path d="m149.27 97.093c1e-3 0 3e-3 1e-3 4e-3 3e-3 8e-3 -3e-3 0.0161-6e-3 0.0231-9e-3 -0.0105 1e-3 -0.019 5e-3 -0.0277 6e-3" fill="#fff697"/>
   <path d="m160.46 85.837c-1.2283-0.19357-5.2991-0.55014-5.791-0.55014-0.48464-2.1685-3.359-3.7025-5.2685-3.4653-0.27216-0.44972-3.5119-4.4739-4.3443-5.433-1.4525 0.4992-3.8946 1.9328-4.7518 3.0505-0.15719 2.5571-0.0173 5.8492 0.326 7.9275 0.0202-0.0466 1.0639-1.5529 1.6912-1.761 1.1774-0.39007 2.4392 0.34637 2.6459 1.9822 0.25471 1.9939-2.1685 6.3499-3.4027 6.0937-0.59234-0.12373-1.0188-1.0522-1.2211-2.218-0.0903 2.4014 0.56615 7.3919 1.5864 7.9464 0.66365 0.36239 7.0907-2.2049 7.3424-2.3141-1e-3 -1e-3 -3e-3 -3e-3 -4e-3 -3e-3 -0.91398 0.22996-1.6868 0.21833-1.972-0.12806-0.60253-0.73351 1.1425-4.6442 3.2528-5.9132 1.9371-1.1629 3.8117 0.10772 3.4274 2.0521-0.0874 0.43516-0.28525 0.90089-0.62437 1.3855 1.1789-0.40021 4.1784-1.7305 6.884-3.1567 0.29399-1.2254 0.40171-3.9834 0.22415-5.4956" fill="#538e74"/>
   <path d="m180.2 45.287c-1.7479 0.30273-22.97 12.921-25.382 14.551 0.24015-1.5092 3.1873-14.718 3.247-16.347-6.574 1.6315-19.838 8.7571-22.31 10.627-3.4609-1.1265-27.034-9.3494-44.855-15.51 7.4094 3.6196 34.419 17.732 38.121 19.649 6.4168-3.8379 16.37-7.2318 18.674-7.5826 1.0872 3.7389 0.25033 14.534 0.25033 15.379 3.7083-2.6445 21.284-11.774 24.419-12.62 2.1845 10.776 1.9604 20.716 1.9852 23.882l4.0969-8.2259c-0.0335-0.01155 2.0579-20.908 1.7538-23.803" fill="#324b57"/>
   <path d="m153.91 83.895c0.39295 0.473 0.66074 0.95911 0.75825 1.3928 0.49047-1e-3 1.2764 0.0392 2.2035 0.11787-0.57634-0.38421-1.5587-1.0377-2.7027-1.793-0.0932 0.10186-0.17901 0.19646-0.25909 0.28235" fill="#eb6d81"/>
   <path d="m141.49 72.813c-0.66511 0.1892-1.0857 4.9847-1.1861 6.6264 0.85577-1.1177 3.2979-2.5513 4.7504-3.0505-0.31875-0.3682-3.4274-3.6152-3.5643-3.5759" fill="#eb6d81"/>
   <path d="m161.51 66.92c-2.5862 0.63309-12.109 5.2947-17.392 8.4049 0.30416 0.33912 2.6255 3.0461 3.3634 3.9587 0.78737 0.48464 1.8876 1.1891 3.0694 1.956 0.72915-2.0652 2.1016-4.8988 2.5804-5.5392 2.2311-1.3273 5.3689 0.29836 5.1899 2.8919-0.67384 1.0915-2.953 3.6981-4.1522 5.0196 1.1439 0.75535 2.1263 1.4088 2.7027 1.793 1.0843 0.0932 6.2858 0.93145 7.2027 1.2691-0.15573-6.3557-0.90233-15.471-2.5644-19.754" fill="#324b57"/>
   <path d="m137.44 59.788c-2.7696 0.47155-8.8401 2.6212-12.765 4.9542l12.695 8.8881c0.30418-3.7767 0.73643-11.891 0.0698-13.842" fill="#324b57"/>
  </g>
  <g fill="#eb6d81">
   <path d="m137.37 73.63-12.697-8.8881c3.9266-2.3315 9.9971-4.4826 12.767-4.9542 0.66656 1.9517 0.23433 10.065-0.0698 13.842m29.093 19.505 7.878-15.819c-0.0248-3.1669 0.19938-13.106-1.9852-23.882-3.1349 0.84558-20.71 9.9753-24.419 12.62 0-0.84558 0.83685-11.642-0.25033-15.379-2.3039 0.35075-12.257 3.7447-18.674 7.5826-3.7025-1.9167-30.712-16.03-38.123-19.649-10.751-3.7171-19.409-6.6832-20.295-6.8869-1.5747-0.36239-2.0259 0.06403-0.42061 1.5675 6.8724 6.4372 41.923 35.852 70.045 57.072-0.0509-1.0639 0.0714-2.1714 0.40602-2.9952-0.89942-5.4257 0.24452-14.376 0.86159-14.552 0.13682-0.03919 2.138 1.9648 2.6284 2.512 5.2831-3.1102 14.806-7.7718 17.392-8.4049 1.6621 4.2832 2.4087 13.398 2.5644 19.754 0.72188 0.26634 1.1949 0.5676 1.2473 0.90089 0.0552 0.342-0.42353 0.84994-1.2167 1.4365-3.1669 2.3432-6.7428 4.1173-10.754 5.4781-0.54432 0.77427-1.94 2.0536-4.0591 2.5964-5e-3 3e-3 -0.0144 6e-3 -0.0219 0.0104 3.0534 2.2573 20.838 15.375 23.668 17.555-0.17464-0.58653-5.1536-12.586-6.0399-14.231-0.1732-0.86159-0.3944-5.4577-0.43226-7.2857"/>
   <path d="m147.48 79.284c0.91544 1.1308 1.6446 2.087 1.9168 2.5367 0.31873-0.03919 0.64038-0.03217 0.95765 0.0087 0.0583-0.18775 0.12229-0.38421 0.19357-0.58943-1.1803-0.76699-2.2806-1.4714-3.068-1.956"/>
   <path d="m263.31 105.19c-0.52831-0.11494-2.2326 0.57634-4.0474 1.5092 1.6082 0.6622 3.4158 2.3112 4.0082 3.0403 0.0655-0.76554 0.20958-4.3705 0.0392-4.5496"/>
  </g>
  <g fill="#324b57">
   <path d="m259.19 106.67c0.026 0.0105 3.5963-1.5922 4.1246-1.4772 0.17026 0.179 0.18049 1.1221 0.11796 2.3301 0.7408-0.21102 2.8409-0.61998 4.0373-0.98529-0.56032-3.3387-2.3068-11.578-2.6532-11.87-0.63601 0.26197-5.6004 12.013-5.6266 12.003"/>
   <path d="m267.33 98.662c6.3062-0.28379 21.854-1.1992 27.123-1.4088-10.515-2.2166-24.691-5.0036-29.984-5.398 0.019 0.0161 0.0423 0.0363 0.0582 0.0495 0.0322-0.0173 1.8265 3.1873 2.8031 6.7574"/>
   <path d="m236.85 69.741c0.0408 0.6593 0.27942 2.023 0.46572 2.9748 1.0057 1.0013 12.231 12.458 13.801 14.317l1.8964-4.5699c-5.9554-4.8232-12.62-10.137-16.164-12.722"/>
   <path d="m220.55 57.084c1.3302 15.605 6.1723 28.398 9.8414 37.904 2.2791-4.7329 9.2243-18.009 9.8952-19.29-0.90672-0.91253-17.933-17.613-19.737-18.614"/>
  </g>
  <g>
   <path d="m248.26 104.23c-1.4466 0.0844-2.5644 2.1554-2.5382 3.4798 0.16737 0.0231 5.3398 0.84268 7.031 1.2124 0.35513-0.25179 0.7801-0.40315 1.2414-0.47009-1.1774-0.8616-5.3835-4.1057-5.7342-4.2221" fill="#a3d5c0"/>
   <path d="m239.94 107.22c0.40752 0.84704 2.5397 3.1058 5.0153 5.3718 0.22557-1.1192 0.90233-3.5642 1.2735-4.8101-1.7217-0.25177-6.1156-0.70294-6.2887-0.56178" fill="#eb6d81"/>
   <path d="m251.27 91.264c-1.2429 0.62145-7.4254 10.467-10.595 15.9 1.0115 0.0293 2.9341 0.24885 5.0473 0.54867-0.0248-1.3229 1.0915-3.3954 2.5396-3.4798 0.35076 0.11639 4.5554 3.3605 5.7342 4.2236 0.53413-0.0786 1.1119-0.0451 1.6752 0.0655-0.67093-3.0156-3.7578-16.721-4.4011-17.258" fill="#324b57"/>
   <path d="m160.46 85.837c0.17757 1.5122 0.0698 4.2701-0.22414 5.4956 1.5063-0.79319 5.1696-3.2484 5.088-3.7578-0.17026-1.061-4.0198-1.6038-4.8639-1.7377" fill="#eb6d81"/>
   <path d="m240.68 107.16c3.1713-5.4315 9.3538-15.279 10.595-15.9 0.64473 0.53704 3.7302 14.242 4.4026 17.258 0.10916 0.0219 1.1905-0.48173 1.6606-0.75971-0.87323-4.2061-4.5248-19.368-5.7386-20.192-0.0293-0.0202-0.0583-0.0436-0.0858-0.0451-0.41915-0.5516-6.4794-7.0456-11.223-11.827-0.67093 1.2807-7.6146 14.557-9.8938 19.29 2.8729 7.4487 6.4998 15.755 6.5041 15.765 0.0917 1.7654 0.457 6.2422 0.457 6.9961-0.27217 0.82956-4.4229 8.8779-4.4928 8.9114 0.13825 0.34349 0.326 0.80339 0.51666 1.224 1.2866-0.30855 9.8064-3.2426 20.681-7.1008-1.0304-0.85287-2.0259-1.9211-2.8729-3.2514-2.5775-1.566-10.323-8.3947-11.246-10.309 0.0684-0.0554 0.33182-0.0714 0.73497-0.0597" fill="#eb6d81"/>
   <path d="m236.9 110.75-0.0144-0.035c-2.6271-6.6874-7.753-18.699-10.058-25.654-2.6925-0.66511-16.296-3.2179-20.885-3.605-13.173-5.6994-25.167-11.486-27.5-12.369l-11.975 24.045c0.14843 3.6603 0.25904 6.4241 0.43225 7.2857 0.88634 1.6446 3.688 7.9261 5.2103 11.888 3.7767 3.6981 19.825 14.401 29.597 19.953 2.691 1.5296 4.9061 2.6692 6.2567 3.1626 5.9322-1.7378 21.534-7.114 25.11-8.8633 1.4816-2.7332 4.0111-7.9814 4.2818-8.8109 0-0.75389-0.36531-5.2321-0.45554-6.9961" fill="#324b57"/>
   <path d="m172.11 112.31c0.36383 0.94309 0.65493 1.7581 0.82812 2.3432-2.8278-2.1787-7.8053-5.8536-14.087-10.486 6.3601 8.5199 29.456 25.188 41.262 28.286 0.5021-0.0335 1.1265-0.11796 1.5936-0.18921-9.7715-5.5509-25.82-16.254-29.597-19.953" fill="#fff697"/>
   <path d="m306.74 99.992c-0.90526-0.26779-5.9234-1.3986-12.279-2.739-5.2685 0.21102-20.815 1.125-27.121 1.4088-0.97657-3.5701-2.0885-6.8185-2.7172-6.7865-0.0264 0-6.363-5.1652-11.608-9.412l-1.8978 4.5699c1.0624-0.26197 3.8117 9.1268 6.2247 20.729 0.58215-0.34346 1.192-0.68112 1.793-0.99403 0.67384-2.122 5.0488-11.843 5.6848-12.104 0.34638 0.29254 2.0928 8.5315 2.6546 11.87-1.1978 0.36531-3.2979 0.77427-4.0387 0.9853-0.0335 0.68549-0.48902 5.6222-0.53413 6.2727 0.75389 0.5123 1.0028 1.1599 0.99985 3.4828 17.235-6.1869 36.506-13.295 42.749-16.062 0.93291-0.41333 0.90089-0.98092 0.0903-1.2211" fill="#eb6d81"/>
   <path d="m257.23 115.19c1.2298 1.7246 1.4627 5.449 1.1294 5.6062-0.70441 0.33475-3.1946-1.1745-4.0533-3.0112-1.2691-2.7143 1.6562-4.3734 2.9239-2.595m4.3414-0.0932c0.0423-1.5267 0.76991-1.7683 1.3884-1.3506 0.0437-0.65056 0.22851-2.3388 0.3755-4.0518-0.80337-0.99258-1.6679-2.0798-4.0082-3.0403-0.0451 0.0219-2.8526 1.6213-3.2659 1.8949-0.83686-0.21103-2.5004-0.19646-3.2412 0.33181-1.6912-0.37112-4.1843-0.79755-6.526-1.1396-0.37114 1.2444-1.0493 3.6894-1.2735 4.8101 2.1118 1.9313 4.4724 3.867 6.2305 4.9352 1.4976 2.3505 5.4752 6.3601 9.7366 6.1898 0.72334 0.20375 1.2968 0.29398 1.614 0.28527 0.57198-1.5427 0.8878-3.1393 0.94165-4.6762-0.32163 0.0219-2.0317-1.9997-1.9721-4.1886" fill="#538e74"/>
   <path d="m257.79 116.3c-1.6679-3.2135-3.8364-0.53849-3.2819 2.0638 1.0872 1.419 3.2019 2.758 3.7928 2.4771 0.26197-0.12373 0.14262-2.7099-0.51084-4.5408" fill="#fff697"/>
   <path d="m257.81 116.54c-0.17464-0.48901-0.38859-0.94456-0.6462-1.3084-1.2676-1.7785-4.193-0.11795-2.9239 2.595 0.13824 0.29691 0.26779 0.4308 0.40603 0.55741 1.3754-0.50939 2.4931-1.029 3.164-1.844" fill="#eb6d81"/>
   <path d="m263.48 119.33c8e-3 0 0.0173 4e-3 0.0219 1e-3 0.3595-0.14992 0.60108-3.4696 0.0583-4.7038-0.0105-0.0248-0.0231-0.0422-0.0335-0.0655-0.63746-1.3404-2.0696-1.0275-1.9371 1.5209 0.33475 1.793 1.6169 3.2644 1.8906 3.247" fill="#fff697"/>
   <path d="m264.02 116.15c-0.163-2.1816-1.2575-2.4887-1.6606-2.416-0.44826 0.08-0.82957 0.57052-0.85286 1.4044-8e-3 0.32018-3e-3 0.4177 0.0554 0.72478 0.63455 0.20666 1.6854 0.42644 2.4582 0.28673" fill="#eb6d81"/>
   <path d="m149.92 91.596c-0.2998 0.27797-0.75099 0.77427-0.94019 0.92563-1.3026 1.6606-2.1249 3.9048-1.6839 4.4433 0.31144 0.3784 4.0824 0.10479 5.9322-2.3199 2.1904-3.3474-0.8776-5.2976-3.3081-3.049" fill="#fff697"/>
   <path d="m150.55 91.052c-0.56323 0.33767-0.95473 0.81793-1.4277 1.4219 0.5254 1.3972 1.2007 2.4145 2.7711 3.5075 0.0408-0.0538 1.419-1.4379 1.4598-1.4932 1.0741-1.5354 0.73789-3.017-0.24596-3.6181-0.6462-0.3944-1.5689-0.41189-2.5571 0.18194" fill="#eb6d81"/>
   <path d="m141.56 93.681c0.75826 0.15718 2.301-1.4539 3.0622-3.1597 0.29105-0.63018 0.44243-1.5092 0.33618-2.2631-0.45698-3.247-2.6488-4.0605-4.145-1.2778-0.0437 0.0815-0.0903 0.15862-0.13242 0.24741-0.70151 1.5427-0.66513 6.1316 0.87904 6.4532" fill="#fff697"/>
   <path d="m144.73 89.876c0.16881-0.89361 0.3333-1.518 0.23577-2.2879-0.13243-1.0421-0.73061-2.0812-1.4379-2.3286-0.91107-0.31873-2.4785 0.0786-3.4769 3.295 1.0624 0.96929 3.263 1.4292 4.6791 1.3215" fill="#eb6d81"/>
   <path d="m153.13 75.701c-0.26342 0.35075-0.7961 1.3637-1.3433 2.5469 2.4349-0.87469 3.9601 0.86596 5.1463 2.1744 0.60108-0.73061 1.1206-1.3986 1.3855-1.8294 0.17901-2.5935-2.9574-4.2206-5.1885-2.8919" fill="#8cb9a7"/>
   <path d="m153.91 83.895c0.39295 0.473 0.66074 0.95911 0.75825 1.3928 0.49047-1e-3 1.2764 0.0392 2.2035 0.11787-0.57634-0.38421-1.5587-1.0377-2.7027-1.793-0.0932 0.10186-0.17901 0.19646-0.25909 0.28235" fill="#cb5e71"/>
   <path d="m161.51 66.92c-2.5862 0.63309-12.109 5.2947-17.392 8.4049 0.30416 0.33912 2.6255 3.0461 3.3634 3.9587 0.78737 0.48464 1.8876 1.1891 3.0694 1.956 0.72915-2.0652 2.1016-4.8988 2.5804-5.5392 2.2311-1.3273 5.3689 0.29836 5.1899 2.8919-0.67384 1.0915-2.953 3.6981-4.1522 5.0196 1.1439 0.75535 2.1263 1.4088 2.7027 1.793 1.0843 0.0932 6.2858 0.93145 7.2027 1.2691-0.15573-6.3557-0.90233-15.471-2.5644-19.754" fill="#0f141b"/>
   <path d="m137.44 59.788c-2.7696 0.47155-8.8401 2.6212-12.765 4.9542l12.695 8.8881c0.30418-3.7767 0.73643-11.891 0.0698-13.842" fill="#0f141b"/>
   <path d="m147.48 79.284c0.91544 1.1308 1.6446 2.087 1.9168 2.5367 0.31873-0.03919 0.64038-0.03217 0.95765 0.0087 0.0583-0.18775 0.12229-0.38421 0.19357-0.58943-1.1803-0.76699-2.2806-1.4714-3.068-1.956" fill="#cb5e71"/>
   <path d="m259.19 106.67c0.026 0.0105 0.0509 0.0231 0.0771 0.0321 1.8149-0.9329 3.5191-1.6242 4.0474-1.5092 0.17025 0.179 0.18049 1.1221 0.11795 2.3301 0.7408-0.21103 2.8409-0.62 4.0373-0.98531-0.56033-3.3387-2.3068-11.578-2.6532-11.87-0.63602 0.26197-5.0109 9.9825-5.6848 12.104 0.0451-0.0231 0.0888-0.0451 0.13537-0.0698-0.0264-9e-3 -0.0509-0.0219-0.0771-0.0322" fill="#0f141b"/>
   <path d="m236.85 69.741c0.0408 0.6593 0.27942 2.023 0.46572 2.9748 1.0057 1.0013 12.231 12.458 13.801 14.317l1.8964-4.5699c-5.9554-4.8232-12.62-10.137-16.164-12.722" fill="#283e49"/>
   <path d="m220.55 57.084c1.3302 15.605 6.1723 28.398 9.8414 37.904 2.2791-4.7329 9.2243-18.009 9.8952-19.29-0.90672-0.91253-17.933-17.613-19.737-18.614" fill="#283e49"/>
   <path d="m251.51 87.525c-0.10037-0.13243-6.2887-6.852-11.223-11.825-0.67093 1.2793-7.6146 14.555-9.8952 19.288 2.8744 7.4501 5.497 13.197 6.491 15.73 2.0972-4.9716 12.984-21.32 14.713-23.148-0.0293-0.0202-0.0583-0.0437-0.0858-0.0451" fill="#cb5e71"/>
   <path d="m240.68 107.16c1.0115 0.0306 2.9355 0.24889 5.0488 0.54868-0.026-1.323 1.0916-3.3954 2.5382-3.4798 0.35075 0.11638 4.5568 3.3605 5.7342 4.2236 0.53558-0.0786 1.1119-0.0451 1.6766 0.0655-0.67239-3.0156-3.7578-16.721-4.4026-17.258-1.2414 0.62145-7.424 10.469-10.595 15.9" fill="#0f141b"/>
   <path d="m172.11 112.31c0.36383 0.94309 0.65493 1.7581 0.82812 2.3432-2.8278-2.1787-7.8053-5.8536-14.087-10.486 1.7945 2.4058 5.2161 5.679 9.444 9.1602 2.5091 2.0652 5.3005 4.2002 8.2084 6.2713 1.6155 1.1512 3.2644 2.2806 4.9178 3.3663 0.10339-1e-3 0.19213-1e-3 0.27217-1e-3 0.0132 0.0655 0.0264 0.13536 0.0379 0.20231 0.77863 0.50794 1.5587 1.0057 2.3344 1.4903 1.3215 0.82375 2.6357 1.6126 3.9296 2.3519 0.69859 0.39877 1.3899 0.783 2.0739 1.1527 3.7302 2.0128 7.2071 3.5482 10.044 4.292 0.50211-0.0335 1.1265-0.11796 1.5937-0.1892-9.7715-5.5509-25.82-16.254-29.597-19.953" fill="#ddd583"/>
   <path d="m264.62 91.875c-0.026 0-6.3615-5.1652-11.608-9.412l-1.8964 4.5699c1.061-0.26197 3.8117 9.1268 6.2232 20.729 0.58216-0.34349 4.7038-13.308 7.2813-15.887" fill="#cb5e71"/>
   <path d="m150.15 81.815c-0.25035-0.02022-0.50356-0.02476-0.7539 0.0058-0.27216-0.44972-3.5119-4.4724-4.3443-5.433-1.4525 0.50066-3.8946 1.9342-4.7518 3.052-0.15719 2.5571-0.0173 5.8478 0.326 7.9261 0.8252-2.023 3.0418-2.4727 3.9849-0.85577 1.5369-2.496 3.3488-3.4158 5.5392-4.6951" fill="#3e715c"/>
  </g>
  <g fill="#283e49">
   <path d="m194.45 119.84c-3.6705-6.0006-11.547-16.398-13.48-15.33 0.0538-5.8114 4.0707-18.144 7.9916-17.677 5.0022 0.59671 7.8169 23.403 5.4883 33.007m11.49-38.384c-13.173-5.7008-25.167-11.486-27.5-12.369l-11.975 24.045c0.14843 3.6603 0.25904 6.4241 0.43225 7.2857 0.88634 1.6446 3.6894 7.9261 5.2103 11.888 6.0937 5.9686 31.131 21.39 35.854 23.116 1.1978-11.611 0.11796-43.867-2.0215-53.964"/>
   <path d="m213.43 82.222c8.939 3.4624 22.614 29.29 23.091 30.995 0.33331-1.534 0.3595-2.4989 0.3595-2.4989l-10.311-25.838z"/>
   <path d="m216.91 96.624c-2.2646 5.1361-1.9502 22.751-1.1847 25.207 0.60107 1.9342 4.177 2.5528 3.3328-1.1352-1.403-6.1345-2.1467-22.006-2.1482-24.072"/>
   <path d="m174.35 77.316 4.0955-8.2259c-4e-3 -0.0029 0.0583-0.69131 0.16445-1.8236-0.92564 1.2749-2.5135 3.4682-4.2818 5.9176 0.0277 1.8222 0.0144 3.2441 0.0219 4.1319"/>
  </g>
  <g>
   <path d="m174.32 73.185c-3.0345 4.2046-6.5827 9.1457-8.1589 11.434 0.12951 1.3826 0.3362 5.1361 0.48756 8.14l7.6932-15.442c-8e-3 -0.88779 5e-3 -2.3097-0.0219-4.1319" fill="#cb5e71"/>
   <path d="m154.81 59.838c0.0714-0.44098 0.37258-1.8818 0.76408-3.7389-2.5251 1.793-5.1259 3.6821-7.4138 5.3442-0.0917 2.3898-0.2227 4.2774-0.2227 4.6107 3.7083-2.6444 21.284-11.773 24.42-12.62 1.8716-2.0259 5.2438-5.3253 7.8344-8.1473-1.7479 0.30273-22.97 12.921-25.382 14.551" fill="#283e49"/>
   <path d="m129.02 58.258c6.4168-3.8379 16.37-7.2318 18.674-7.5826 0.0277 0.09171 0.22703 0.21395 0.25177 0.31436l10.274-7.3978c-6.6919 1.2414-20.001 8.6625-22.465 10.527-2.0215-0.65638-10.897-3.7345-21.48-7.4065 0.25905 1.4699 0.5676 2.9312 0.90962 4.3487 6.6046 3.4304 12.281 6.3906 13.836 7.1969" fill="#283e49"/>
  </g>
  <g fill="#cb5e71">
   <path d="m129.02 58.258c-1.5558-0.80628-7.2318-3.7666-13.836-7.1969 1.6926 7.0135 4.2148 12.957 5.6091 13.564 2.6037-2.79 13.851-6.2815 18.85-7.731l8.1284-5.9264c-0.026-0.10041-0.0495-0.20083-0.0772-0.29254-2.3039 0.35075-12.257 3.7447-18.674 7.5826"/>
   <path d="m122.97 65.948c0.78446-0.55014 1.3492-0.85432 1.7057-1.2065l12.697 8.8881c-0.14844 0.9038-0.30855 1.1963-0.46573 2.2166-2.4334-1.8032-12.308-8.859-13.937-9.8981"/>
   <path d="m147.94 66.054c0-0.3333 0.13094-2.2224 0.22121-4.6121-3.2688 2.3723-5.8943 4.2759-6.7312 4.7402-0.70586 0.39296-1.4146-4.3152-1.4146-4.3152l-1.1687 14.912s0.86305-0.86305 1.9517-1.0333c0.2576-1.8629 0.56615-3.1422 0.7932-3.2062 0.13679-0.03919 1.2371 0.94309 1.7275 1.4903 5.3355-3.5351 16.792-8.9536 19.381-9.5867 2.2078-2.8715 3.9994-5.6542 9.658-11.009-3.1349 0.84558-20.71 9.9752-24.419 12.62"/>
   <path d="m164.08 89.274c0.19064 0.60253 0 2.0303-0.34783 2.1263-0.3493 0.0946-1.9357-0.66511-1.9357-0.66511z"/>
  </g>
  <g>
   <path d="m250.1 105.59c-1.0159-0.75827-1.6912-1.3055-1.8411-1.3564-1.4466 0.0844-2.5629 2.1569-2.5382 3.4798 0.0626 9e-3 0.82667 0.1295 1.8469 0.29691 0.4468-1.0377 0.81793-2.3999 2.5324-2.4203" fill="#8cb9a7"/>
   <path d="m262.64 123.81c-1.9953-0.72624-4.2119-1.7057-5.4461-3.0665-1.0159-0.47591-2.3068-1.7217-2.8875-2.9603-0.4599-0.98384-0.67531-1.7319-0.31292-2.3243-0.58507-2.2209-0.92127-4.7795-1.1105-6.6148-0.019 0.0118-0.0437 0.0202-0.0626 0.0335-0.74517-0.163-1.1992-0.22414-2.1744-0.39734-0.0248 2.5659-0.65057 4.9906-1.7668 7.3381 0.84995 0.65638 1.662 1.2342 2.3723 1.665 0.0335 0.0538 0.45846-0.8121 0.49484-0.75679 1.6795 2.1511 6.6526 7.3395 10.894 7.0834" fill="#3e715c"/>
   <path d="m240.41 107.78c-0.31582 0.5385-1.2007 2.09-1.3593 2.5964-0.15863 0.50648-0.94892 1.5514 0.79172 1.4248 1.7421-0.12806 3.5774-0.35075 3.5774-0.35075z" fill="#cb5e71"/>
   <path d="m263.43 107.52c-5e-3 0.27508-0.0989 1.8906-4e-3 1.796 0.0946-0.096 4.0824-1.2691 4.0824-1.2691l-0.0408-1.5136z" fill="#cb5e71"/>
   <path d="m251.65 116.48c0.33474 0.54286 1.7436 2.122 2.3796 2.758 0.63455 0.63455 2.6677 2.7449 4.8625 3.8976-0.83248 1e-3 -3.3838-0.783-4.8843-2.2122-1.502-1.4307-2.8424-3.3125-2.8424-3.3125z" fill="#8cb9a7"/>
   <path d="m180.35 104.39c-1.9473-0.0772-3.0258 0.17756-3.7738 0.58798 2.0332 1.0974 12.532 8.728 14.6 10.291-3.6428-5.1623-8.2564-10.779-10.827-10.879" fill="#c60044"/>
   <path d="m191.18 115.27c-2.0696-1.5631-12.569-9.1937-14.6-10.291-0.76845 0.42352-1.1876 1.013-1.8352 1.5864 1.2953 1.7043 16.057 11.305 18.98 12.458-0.75243-1.157-1.6169-2.4407-2.544-3.7534" fill="#efe90a"/>
   <path d="m232.17 116.43c-0.85285-0.0466-6.459 2.1423-11.442 6.2582 4.3414-1.6358 12.237-4.0809 13.174-4.257-0.30274-0.98822-0.90963-1.9561-1.7319-2.0012" fill="#c60044"/>
   <path d="m233.9 118.43c-0.93873 0.17612-8.8328 2.6226-13.176 4.257-1.0319 0.85141-2.0361 1.7843-2.9661 2.7987 3.0141-0.54577 13.289-3.8422 16.07-4.9556 0.37257-0.14991 0.36675-1.1338 0.0714-2.1001" fill="#efe90a"/>
  </g>
  <g fill="#0f141b">
   <path d="m200 133.3c-12.305-3.2281-37.048-21.425-41.521-28.991-0.2576-0.43806 0.71459-0.39001 1.7552 0.84559 7.6801 9.1195 30.93 24.423 39.921 26.818 0.29399-0.0231 0.62583-0.0611 0.94165-0.10339 0.63018-0.0844 1.662 0.99258 1.4044 1.0362-0.2809 0.0509-2.1554 0.48611-2.5018 0.3944"/>
   <path d="m251.46 87.995h1e-3zm-43.409 48.334c-1.6388 1e-3 -25.625-14.339-35.388-22.732-0.55306-0.47736-0.73498-2.1642-0.55887-1.9706 3.8379 4.2381 29.399 20.825 35.874 23.301 6.5376-1.927 20.651-6.7661 24.747-8.7251 1.4205-2.6357 3.7927-7.5506 4.1522-8.5286-0.0105-0.49774-0.57342-6.117-0.61563-6.9189-4.9833-11.848-14.062-30.786-16.13-53.039-0.11349-1.2022 0.10339-1.4961 1.3055-0.59962 5.1812 3.8641 27.683 26.26 30.552 29.866 1.3884 1.0246 5.497 17.412 5.8638 20.293 0.064 0.49775-0.90816 0.93292-0.96638 0.64183-0.88925-4.3982-4.4695-18.821-5.5436-19.949-0.0844-0.0305-0.15574-0.0844-0.2125-0.15574-2.742-3.6108-24.832-25.675-30.017-29.753 2.0827 21.132 13.068 44.477 16.222 52.524 0.019 0.0466 0.74079 6.8855 0.74079 7.3177 0 0.44825-4.7038 9.3276-5.0604 9.5022-4.7431 2.3199-23.627 8.9245-24.964 8.9259"/>
   <path d="m140.61 74.78c-0.43807 0.31581-0.83685 0.61709-1.1818 0.90089 0.49775-4.2119 1.4976-16.053 0.37988-18.673-0.0743-0.17464-0.24597-0.28817-0.43516-0.28817-3.5832 0.0029-14.512 4.8872-17.305 6.5143-1.5253 0.88779-1.9648 1.9211-0.48756 1.0581 2.4858-1.451 13.749-6.312 17.463-6.6133 0.85433 3.0316-0.15717 14.996-0.61998 18.46-0.21103 1.5806 0.19211 1.5078 1.2734 0.54286 0.22997-0.2052 0.49921-0.42352 0.78737-0.64911 0.0392-0.4177 0.0786-0.8354 0.12517-1.2531"/>
   <path d="m165.68 74.132c-0.53849-4.5496-1.307-8.4136-2.4422-10.263-0.0888-0.14699-0.2547-0.23722-0.42206-0.22558-2.4523 0.10334-13.611 5.5611-20.14 9.7409 0.0728 0.11935 0.14555 0.24015 0.21976 0.35801 0.0888 0.14406 0.17757 0.28524 0.26636 0.42788 6.2072-3.9761 16.784-9.0889 19.419-9.5503 1.0246 1.9036 1.7654 6.0079 2.4916 10.29 0.46864 2.7667 0.94891 2.1191 0.60689-0.77718"/>
   <path d="m173.39 114.05c-1.2298-3.5555-4.9687-11.767-6.0399-13.785-0.15717-0.88924-0.67674-12.132-0.94308-16.126-0.22996-3.458-0.66512-3.2601-0.66367 0.36239 3e-3 4.0416 0.51522 15.127 0.69277 16.015 0.0105 0.0451 4.1639 9.0278 5.5552 12.819-2.4756-1.8774-14.829-10.997-22.155-16.41-0.5152 0.14117-1.0275 0.29398-1.5383 0.4468 7.5026 5.4694 21.418 15.539 23.938 17.463 1.5209 1.16 1.7858 1.0362 1.1541-0.78591"/>
   <path d="m226.84 84.252c-3.2557-0.75826-16.21-2.8569-20.783-3.2557-7.6277-3.3023-25.951-12.272-27.085-12.729 0.10484-1.0639 1.729-18.157 1.7406-21.77 8e-3 -2.2733 0.0118-2.119-2.5047-0.84122-5.2016 2.6415-18.785 10.741-22.723 13.193 0.18338-0.90234 2.6284-12.497 2.9312-14.405 0.27942-1.761 0.53122-1.7348-1.5005-1.1279-6.7574 2.0172-18.473 8.2128-21.195 10.14-2.4349-0.80483-55.328-19.002-63.879-21.834-3.3954-1.125-4.2163-0.07421-1.9866 2.0114 8.9186 8.3554 40.4 35.245 70.464 57.834-5e-3 -0.46573-0.0118-0.93145-0.0335-1.3972-4e-3 -0.0888-0.0118-0.17756-0.0161-0.26779-28.556-21.557-63.34-50.835-69.77-56.858-0.89216-0.8354-0.73934-1.0057 0.4206-0.6331 5.6557 1.8178 62.557 21.565 64.683 22.256 0.14555 0.04802 0.3071 0.02187 0.43079-0.07277 2.2821-1.7275 14.711-8.4544 21.476-10.37-0.30128 1.9779-3.0811 15.107-3.1655 15.638-0.13973 0.87469-0.16881 1.0755 0.73061 0.46572 2.9297-1.9808 21.124-12.711 24.685-14.288 0.0903 3.1728-1.7756 21.895-1.8906 23.064-0.0219 0.2154 0.10628 0.4177 0.30855 0.49047 0.87033 0.31436 19.91 9.0816 27.574 12.397 0.0466 0.02022 0.096 0.03342 0.14843 0.03796 4.6122 0.38714 19.009 3.0956 21.025 3.6472 0.25177 0.0684 0.12661-1.2764-0.0858-1.3259"/>
   <path d="m128.76 58.466c-0.2052-0.1019-34.63-17.84-39.114-19.934-0.23577-0.11061 2.7449 0.28235 4.6427 1.24 8.0119 4.0474 34.787 17.993 34.985 18.091 0.23289 0.11642-0.44535 0.63746-0.51375 0.60399"/>
   <path d="m173.82 77.589c-1e-3 -3.8219 0.0422-14.026-1.8221-23.544-4.0489 1.4452-20.16 9.8079-23.785 12.394-0.9722 0.69277-0.74516 0.21684-0.74516-0.38421 0-0.13825 0.90524-11.458 0.15573-14.78-7.456 1.2109-17.845 6.3499-21.039 9.1209-1.1396 0.9984-1.2051-0.03217-0.0597-1.0246 5.35-4.6427 17.894-8.824 21.161-9.0161 0.45409-0.02599 0.69714-0.06403 0.82521 0.53849 0.69277 3.2805-0.0714 14.491-0.0743 14.541 4.8377-3.6661 21.148-11.586 24.029-12.365 0.41914-0.11498 0.27942-0.10772 0.35511 0.27072 1.9881 9.805 1.991 18.984 1.9924 22.905 0 0.87615-0.99258 2.2369-0.99258 1.3433"/>
   <path d="m166.3 92.403 11.62-23.56c0.11494-0.23433 0.39877-0.33037 0.6331-0.21539 0.23432 0.11498 0.33037 0.39877 0.21395 0.63309l-12.198 24.734c-0.0829 0.16738-0.26924-1.5922-0.26924-1.5922"/>
   <path d="m144.14 69.328c2.1933-2.4159 4.3007-3.982 7.0528-6.4721 2.2136-2.0041 2.8642-1.7698 0.60399 0.30129-2.7056 2.4742-4.5365 4.2235-6.9786 6.5332-2.8016 2.6488-3.2688 2.4916-0.67822-0.36238"/>
   <path d="m207.98 105.04c-0.39733-11.158-0.77282-20.554-1.6126-23.573-0.0698-0.25034-1.173-0.38277-1.0522-0.15137 0.9431 1.8178 1.7057 13.484 2.1234 25.896 0.14555 4.3225 0.70295 2.3898 0.54141-2.1714"/>
   <path d="m207.73 120.42c0.12662 7.8606 0.0786 13.985-0.18483 14.788-0.11638 0.23289 0.76118 0.58943 0.84413 0.42497 0.30855-0.61271 0.34638-6.2756 0.20232-14.854-0.0568-3.4144-0.91835-3.7898-0.86159-0.3595"/>
   <path d="m264.23 92.218c-2.1773-1.8644-19.325-15.881-26.785-21.445 0.16738 1.0857 0.43953 2.4538 0.51958 2.7725 0.064 0.25471-1.0639-0.44099-1.173-1.0057-0.14411-0.76117-0.30417-1.6897-0.38132-2.3461-0.10339-0.87178-4e-3 -1.3579 0.91253-0.68549 7.0528 5.1768 25.688 20.063 27.939 21.99 0.19794 0.16881-0.94164 0.79755-1.0319 0.72042"/>
   <path d="m254.3 120.82c-0.17462-0.15574-0.35511-0.30854-0.54286-0.44971-10.076 3.5686-18.083 6.3368-20.108 6.9437-0.29254-0.67384-0.54723-1.3433-0.55013-1.3506-0.0568-0.14992-0.7801 0.6098-0.63746 0.95765 0.13535 0.33618 0.31143 0.76116 0.49046 1.1541 0.16738 0.37113 0.39733 0.59816 0.91254 0.40752 0.55886-0.20666 9.3363-3.2281 20.832-7.2872-0.1295-0.12662-0.26197-0.2547-0.39733-0.37551"/>
   <path d="m306.87 99.539c-3.0112-0.8907-31.001-7.5637-42.297-8.4325-0.16882-0.0132-0.19213 1.3491-0.0903 1.3564 8.1196 0.5676 38.239 6.9815 41.864 7.913 0.46281 0.11935 0.65347 0.163 0.10772 0.40604-6.347 2.8118-25.317 9.7948-42.368 15.91-0.096 0.035-0.0975 1.208-3e-3 1.1745 15.897-5.6804 33.882-12.291 42.754-16.222 1.9226-0.85141 1.777-1.5908 0.0322-2.106"/>
   <path d="m306.89 100.59h4e-3z"/>
   <path d="m238.37 107.38c-0.783 1.2371-1.2633 1.7698-1.6548 2.6925-0.064 0.15137 0.64038 0.95038 0.7117 0.76263 0.31874-0.84704 0.95329-2.1001 1.7828-3.5876 0.66221-1.1861-0.1135-1.0158-0.83976 0.13243"/>
   <path d="m251.26 87.333c-1.0843 0.87032-6.9189 9.1821-10.835 16.271-0.76553 1.3855-0.49482 2.365 0.31437 1.0086 4.0096-6.7283 10.112-15.73 11.013-16.53 0.13972-0.0568-0.25616-0.93873-0.49193-0.74953"/>
   <path d="m230.16 94.633c2.0885-4.4215 9.8079-19.016 9.885-19.165 0.12084-0.2314 0.84123 0.10623 0.72188 0.33767-0.0771 0.14844-7.6714 14.825-9.7526 19.23-0.0815 0.17175-0.96492-0.16737-0.85431-0.40314"/>
   <path d="m250.72 86.74 1.9779-4.765c0.10038-0.24159 0.70732 0.76263 0.70732 0.76263l-2.0637 4.9687c-0.0757 0.18193-0.62145-0.96638-0.62145-0.96638"/>
   <path d="m268.64 106.33c-0.67385-4.5874-3.1669-12.659-4.0023-13.877-0.7699 0.96783-2.8104 5.4097-4.6747 9.4411-0.53995 1.1672-0.91399 0.74516-0.45845-0.45846 2.4931-6.6104 4.2759-9.9956 5.091-10.036 1.8891-0.0713 4.4797 12.457 4.7417 14.389 0.2474 1.8207-0.45118 2.2209-0.69714 0.5414"/>
   <path d="m267.06 98.201c2.9195-0.12806 22.195-1.0828 25.292-1.2313 1.809-0.0873 3.8801 0.71169 3.6181 0.71169-1.4539 0-25.29 1.2982-28.293 1.4365-0.20083 0.0104-0.8776-0.90525-0.61709-0.9169"/>
   <path d="m267.08 107.24c-0.20084-1.8804-1.7421-9.1428-2.4116-11.582-1.1599 2.0201-3.9936 8.2943-4.893 10.685-0.1295 0.34638-1.2356 0.80339-1.176 0.55015 0.1528-0.64038 4.062-10.1 5.6222-12.247 0.55451-0.76408 0.78591-0.84849 1.1556 0.18775 0.85431 2.3854 2.397 10.445 2.5178 11.952 0.12373 1.5427-0.65056 1.9721-0.81501 0.45409"/>
   <path d="m240.15 107.6c-0.34201 0.62728-0.63747 1.1847-0.86886 1.6417-0.85433 1.6999-0.29837 1.9255 0.54286 0.36968 0.23869-0.43952 0.53703-0.96783 0.87323-1.5544-0.18194-0.1528-0.36821-0.30128-0.54723-0.45698"/>
   <path d="m251.73 91.125c-0.24596-0.47301-0.42206-0.58944-1.0566 0.0202-1.9255 1.8542-7.4007 10.812-10.221 15.907 0.0815 0.0583 0.163 0.11494 0.25178 0.16593 0.12229 0.0669 0.24741 0.12661 0.37551 0.18049 2.9297-5.0298 8.3307-13.589 10.036-15.395 0.75827 2.0812 2.7667 10.632 4.0678 16.475 0.0552 0.25035 0.92999 0.24452 0.89361 0.0611-1.1789-6.181-3.4871-15.753-4.3473-17.415"/>
   <path d="m234.82 114.13c-0.79028-4.8726-6.3979-18.026-10.913-22.88-1.7945-1.9298-2.9734-2.202-4.1799-1.176-0.95328 0.81211-0.51374 1.208 0.28817 0.47883 0.72479-0.66076 1.5558-0.42789 3.199 1.3404 4.7882 5.1492 10.736 19.601 11.011 23.257 0.12228 1.6475 0.90963 0.91981 0.59381-1.0202"/>
   <path d="m215.64 109.68c0.26341-5.7459 1.0464-11.349 2.3417-15.501 1.0028-3.2077 0.0219-1.8716-0.48173-0.66366-1.6475 3.947-2.432 9.1777-2.6444 15.804-0.0655 2.0405 0.68694 2.4931 0.78445 0.36094"/>
   <path d="m214.8 114.75c-0.0597 2.6532 0.163 4.5932 0.54577 6.1519 0.3784 1.5354 1.093 1.4728 0.72624-0.0466-0.42788-1.7756-0.57052-3.3198-0.54868-6.2262 0.0161-2.1511-0.66948-2.3112-0.72333 0.12084"/>
   <path d="m194.28 92.296c0.11783 0.52248 0.23284 1.0522 0.34494 1.5864 1.5907 7.5899 2.4916 16.168 2.5193 20.332 0.0132 2.1729 0.86595 2.1947 0.82811-0.18045-0.0626-3.8597-0.37984-10.547-2.0623-18.997-0.54723-2.7492-2.071-4.682-1.63-2.7405"/>
   <path d="m175.88 93.661c-0.783 1.8105-2.2384 6.3586-2.528 8.5664-0.37839 2.8817 0.66219 2.5717 1.045-0.1965 0.3755-2.7114 1.4277-6.0515 2.8366-9.3247 0.71606-1.6621-0.26634-1.5587-1.3535 0.95474"/>
   <path d="m193.55 86.051c-0.72623-3.6181-2.7798-6.7123-4.8334-7.3818-2.106-0.68694-4.9425 0.81356-6.9131 3.8335-1.2866 1.9706-0.52975 2.4058 0.94747 0.5385 2.0376-2.5746 4.0576-4.0009 5.6731-3.474 1.8134 0.59234 3.3998 3.8873 4.7053 8.2928 0.47883 1.617 0.84413 0.30855 0.42061-1.809"/>
   <path d="m136.8 74.741c0.26342-2.6488 0.85141-11.669 0.29543-14.408-3.1713 0.65201-9.7759 2.9093-13.314 5.2525-0.9562 0.63309-1.4962 0.37258-0.58944-0.36094 3.5279-2.8526 10.934-5.3515 14.168-5.9016 0.22415-0.04085 0.44972 0.09316 0.5254 0.31292 0.77136 2.2529 0.2227 11.31-0.43808 14.868-0.36531 1.9633-0.83684 2.1263-0.64764 0.23722"/>
   <path d="m164.43 88.817c-0.24302 0.21251-0.49628 0.4119-0.75534 0.60544 0.0231 0.89798 0.1441 1.681-0.39878 1.7727-1.419 0.23722 1.0857 0.93436 1.1454-0.2125 0.0248-0.45409 0.12661-1.7668 0.14843-2.2952-0.048 0.0422-0.0917 0.0873-0.13973 0.12955"/>
   <path d="m164.61 86.611c8e-3 -6.2363-0.88051-15.282-2.6576-19.862-0.0858-0.21977-0.32163-0.34494-0.55305-0.28817-2.7434 0.67239-12.553 5.4068-17.735 8.4616-0.22414 0.13243 0.43662 0.96056 0.66221 0.82957 5.2292-3.084 13.967-7.3381 16.894-8.2579 1.5747 4.4899 2.3243 13.065 2.448 19.086 0.31147 0.0202 0.62726 0.0293 0.94164 0.0305"/>
   <path d="m150.42 80.593c-1.4714-0.95183-2.774-1.7785-3.4464-2.1613-0.22559-0.12954 0.65638 1.3171 1.3841 1.7785 0.55304 0.35075 1.1803 0.75389 1.8352 1.1789 0.12373-0.29543 0.10773-0.49774 0.22703-0.7961"/>
   <path d="m157.68 85.378c-0.15429-0.10334-1.4845-0.99112-3.3052-2.1933-0.23141 0.12806-0.326 0.16011-0.54577 0.3071-0.0684 0.04658-0.12662 0.1019-0.19065 0.15281 1.0013 0.66075 1.9124 1.2662 2.5731 1.7043 0.65201 0.43516 1.6853 0.17464 1.4685 0.0293"/>
   <path d="m137.36 74.198-13.033-9.07c-0.21539-0.14844 0.326-0.92418 0.53995-0.77572l12.381 8.6174s0.19501 1.2851 0.11205 1.2283"/>
   <path d="m153.68 83.452c1.662-1.5107 3.573-3.8786 4.3138-5.0095 0.0437-1.7537-2.3374-3.5904-4.5321-2.3839-0.55014 0.81502-2.0419 3.5337-2.5833 5.9293-0.0568 0.25323-0.97948-0.01609-0.90525-0.26634 0.58944-2.0114 2.1627-5.4752 2.7856-6.3048 0.51085-0.67385 2.5775-1.0988 4.2934-0.04365 1.713 1.0537 2.103 2.7769 1.6752 3.4682-0.84411 1.3637-3.9077 4.781-4.6995 5.6251-0.0917 0.10041-0.49045-0.88487-0.34782-1.0144"/>
   <path d="m143.73 84.03c-0.636 0.39877-1.2298 0.87032-1.7581 1.451 0.0379-9e-3 0.0771-0.0173 0.11494-0.0202 0.20375-0.0173 0.40458 0.0202 0.6069 0.0422 0.11639 0.0132 0.23577 0.0115 0.35364 0.0247h5e-3c0.4046-0.41479 0.8485-0.79901 1.3361-1.1163 2.1336-1.3855 1.5456-1.7639-0.6593-0.38132"/>
   <path d="m149.9 96.96c-0.43953-0.0538-0.88197-0.0932-1.3259-0.064-9e-3 1e-3 -9e-3 -7e-3 -0.0132-0.0115-0.0772 0.0305-0.15137 0.0626-0.22996 0.0932-2.6575 1.0653-5.6702 2.2704-6.1709 2.0186-0.35512-0.19357-0.93436-1.8702-1.1454-3.7389-0.0975-0.84558-0.16737-1.6912-0.19065-2.5207-0.0248-0.0408-0.76262-1.8614-0.87032-2.0681-0.11638 1.2953-0.0903 2.8366 0.12085 4.6951 0.019 0.15574 0.40022 3.9048 1.633 4.4622 0.95037 0.42934 2.8802-0.23433 7.2522-1.9866 0.61855-0.24885 1.1978-0.50065 1.7377-0.77863-0.26635-0.0322-0.53122-0.0684-0.79756-0.10042"/>
   <path d="m154.4 90.401c-0.19501 0.91108-0.45991 1.6766-0.78154 2.3388 0.0277 0.10042 0.0568 0.20083 0.0829 0.30129 0.0829 0.33182 0.1601 0.66512 0.23722 0.9984 0.46572-0.82957 0.84704-1.8498 1.1381-3.1407 0.52977-2.3519-0.1863-2.7842-0.67676-0.49775"/>
   <path d="m148.09 90.948s0.52685-0.7699 1.189-1.2516c1.3419-0.97657 1.5209-0.52103 0.42352 0.54141-0.64328 0.6229-1.2662 1.4787-1.2662 1.4787-0.37694 0.49628-0.79172-0.1892-0.34637-0.76845"/>
   <path d="m145.3 89.849c0.36094-0.72478 0.61126-1.4336 0.783-2.0215 0.34493-1.1876 0.85868-0.99986 0.46718 0.40752-0.18049 0.64764-0.20231 0.92708-0.49628 1.5383-0.25323 0.5254-1.0581 0.68404-0.7539 0.0757"/>
   <path d="m164.64 61.608c3.8641-4.3298 7.1664-8.0308 11.668-12.508 1.4059-1.3986 1.6111-1.1061 0.41333 0.19064-3.7389 4.0431-7.4836 8.2841-11.666 12.612-1.1294 1.1687-1.4656 0.88051-0.41478-0.29543"/>
   <path d="m147.44 51.011c-3.4697 2.4945-6.6642 4.7737-8.2564 6.0049-0.17175 0.13243 0.47882 0.61272 0.5676 0.54577 1.5646-1.2065 4.8013-3.5191 8.351-6.0646 0.27797-0.19794-0.0903-0.89652-0.6622-0.4861"/>
   <path d="m157.63 43.477c-0.46137 0.30855-3.5497 2.5047-5.9133 4.5597-1.5427 1.3404-0.50211 0.9198 1.5209-0.47592 2.7318-1.8862 4.7737-3.3911 4.8304-3.4289 0.18045-0.12079-0.25614-0.77572-0.43806-0.65493"/>
   <path d="m253.33 108.55c-1.3273-0.99548-4.7373-3.5628-5.1637-3.8277-1.0392 0.16156-2.0405 1.8454-1.8338 2.9472 0.0495 0.2547-0.97657 0.17318-1.0246-0.0829-0.326-1.7436 1.0581-3.7112 2.9268-3.8218 0.49775-0.0248 5.2161 3.6952 6.1563 4.3982 0.20813 0.15573-0.79028 0.58943-1.061 0.38713"/>
   <path d="m256.92 109.42c-1.3084-0.6098-3.2091-0.8485-4.1246 0.0903-0.18195 0.18627-0.85724-0.47446-0.67531-0.66075 1.1745-1.2022 3.3227-1.0595 4.9818-0.0655 1.2764 0.76553 1.0086 1.192-0.18193 0.636"/>
   <path d="m262.46 113.45c0.14993-1.729 0.62291-6.8913 0.51231-7.7878-1.0013 0.18626-4.1784 1.6402-6.7239 3.3299-0.21683 0.1441-0.73933-0.64329-0.52103-0.78737 2.039-1.3535 6.4838-3.7433 7.6874-3.4798 0.0932 0.0202 0.17756 0.0669 0.24304 0.13679 0.4104 0.43517-0.29836 8.9667-0.29836 9.1457 0 0.26053-0.92855-0.23578-0.89943-0.55741"/>
   <path d="m260.81 124.2c-2.0288 0-6.9466-1.6737-9.9578-6.3237-3.4973-2.1584-9.6492-7.9013-11.106-10.065-0.42062-0.62437-0.45263-1.013 0.40896-1.0493 2.1176-0.0946 10.298 1.16 12.607 1.7203 0.25471 0.0611 0.0144 0.99695-0.24015 0.93436-3.0883-0.74807-9.6973-1.7537-11.761-1.8032 1.6359 2.1467 7.2944 7.4603 10.674 9.5139 0.18776 1.6082 4.9309 5.3835 7.0659 5.8871 1.2808 0.30128 2.5586 1.1847 2.3097 1.1861"/>
   <path d="m263.53 119.09c-0.15862 0.0743-0.32162 0.14117-0.48174 0.21102-0.0466 1.2997-0.3071 2.7158-0.82957 4.2192-1.3433-0.16156-5.155-1.2182-7.9974-4.3516-0.85578-0.9431-1.1629-0.59379-0.32893 0.37695 2.7041 3.148 6.2655 4.6223 8.073 4.893 0.7801 0.11796 0.94456-0.0306 1.1629-0.65928 0.59962-1.745 0.89943-3.3503 0.94456-4.8028-0.17464 0.0655-0.35513 0.11061-0.54286 0.11349"/>
   <path d="m263.03 110.2c-0.21102-0.39003-2.1758-2.3941-3.9558-3.0927-0.24303-0.0946 0.44098-0.56324 0.62582-0.47008 1.3171 0.67093 2.9836 1.8498 3.7112 2.6517 0.22558 0.24889-0.29543 1.0697-0.38132 0.91107"/>
   <path d="m244.71 112.26c0.27072-1.2356 0.71605-3.4216 1.0552-4.5612 0.0509-0.17462 0.95183 0.10917 0.90233 0.27944-0.42934 1.4452-1.2182 4.3152-1.3069 5.0604-0.0277 0.24015-0.71315-0.49339-0.65056-0.77863"/>
   <path d="m250.87 117.32c0.78591-1.9196 0.91981-3.0258 0.95619-4.34 0.0524-1.8731 0.55887-1.7319 0.6462 0 0.0946 1.9386-0.4468 4.3676-1.0843 5.1914-0.0932 0.1194-0.59817-0.65929-0.51812-0.85141"/>
   <path d="m257.19 115.77c-0.28379-0.66512-1.0217-1.8629-2.0128-3.3372-0.67676-1.0042-0.2707-1.2313 0.46573-0.26341 1.0071 1.3273 2.0565 2.8395 2.3694 3.5788 0.20376 0.47446-0.64474 0.43808-0.82231 0.0219"/>
   <path d="m260.63 115.7c-0.12084-0.17462-0.59962-0.86449-0.9329-1.486-0.47446-0.88342-0.12806-1.2007 0.39877-0.33763 0.42207 0.69276 0.68985 1.2371 0.80046 1.4903 0.33475 0.78592 0.0626 0.81356-0.26634 0.3333"/>
   <path d="m254.55 117.61c0.65493 1.3986 2.1147 2.7187 2.9079 2.9923 0.62435 0.21539 0.74516 0.026 0.75388-0.66512 0.0133-1.0144-0.33766-3.1713-1.2225-4.4142-1.0377-1.4554-3.5555-0.30274-2.4392 2.087m2.7682 3.6006c-1.1905-0.42933-2.8264-1.7363-3.5017-3.1815-1.4845-3.1771 2.1001-5.3646 3.736-3.0694 1.0391 1.4583 1.4205 4.1653 1.3448 5.4112-0.0523 0.87323-0.33912 1.2851-1.5791 0.83975"/>
   <path d="m261.82 115.1c-0.0363 1.3841 0.52539 2.7026 1.3098 3.525 0.23722 0.25033 0.48029 0.20521 0.57779-0.19939 0.21977-0.91835 0.10628-2.8147-0.24597-3.6152-0.59671-1.3593-1.6097-0.90816-1.6417 0.28961m1.2895 4.4128c-0.60108-0.41189-2.0143-2.2442-1.9546-4.4128 0.0698-2.5615 2.0666-2.4072 2.8336-0.6622 0.43371 0.98529 0.51376 3.8728 0.13094 4.8275-0.22995 0.57924-0.5545 0.55887-1.01 0.24741"/>
   <path d="m263.52 107.03c1.125-0.28817 3.6094-0.86596 4.1289-1.0522 0.24596-0.0874 0.026 0.9824-0.20231 1.045-1.2502 0.33912-3.9136 0.94456-4.0358 0.9984-0.064 0.0293-0.1965-0.91252 0.10917-0.99112"/>
   <path d="m159.66 91.577c0.32893-0.60981 0.60544-4.0154 0.35219-5.7779-0.0363-0.2576 0.85287-0.47591 0.89071-0.21832 0.17901 1.2487-0.0437 4.1391-0.40459 5.7677-0.0975 0.44245-0.96057 0.45845-0.83831 0.22852"/>
   <path d="m155.03 84.832c-0.636-1.7916-3.148-3.5977-5.4286-3.49-0.87324-1.5485-5.4475-6.8447-7.1532-8.4369-1.0726-1.0028-1.3492-0.88342-1.8221 0.70878-0.9038 3.0389-1.2007 10.719-0.49193 13.898 0.0495 0.21977 0.8223-0.69131 0.78154-0.95328-0.66657-4.2541 0.13536-11.627 0.71606-13.138 1.2531 1.0144 5.8056 6.6133 7.0718 8.3452 0.34782 0.47445 0.3755 0.5254 1.0246 0.50065 1.9837-0.07715 3.9325 1.6853 4.4069 2.8729 0.21832 0.54722 0.44098 0.61126 0.90525 0.61999 2.9428 0.051 9.4862 1.0013 9.8166 1.8614-0.19065 1.0814-7.929 5.0371-11.201 6.2596-0.19646 0.0728-0.29399 1.1032-0.24452 1.0872 0.77719-0.25179 12.736-5.2452 12.38-7.4676-0.31294-1.9473-8.4369-2.5688-10.761-2.6677"/>
   <path d="m140.36 78.675c1.0697-1.0421 2.985-2.1496 4.3254-2.6561 0.27942-0.10478 1.2065 0.63601 0.95181 0.69131-1.256 0.2736-4.3487 2.0084-5.0648 3.1684-0.0903 0.1441-0.46136-0.96201-0.21251-1.2036"/>
   <path d="m152.72 94.548c-1.8018 2.1583-4.6136 2.7245-5.2001 2.1627-0.34349-0.76117 1.0639-3.9281 3.2703-5.254 2.2893-1.3739 3.9572 0.66221 1.9298 3.0913m-2.416-3.9004c-2.7725 1.665-3.947 5.922-3.3751 6.6177 0.97366 1.1847 4.9047-0.18193 6.5158-2.1118 2.5236-3.0228-0.26634-6.2364-3.1407-4.5059"/>
   <path d="m140.98 87.421c-1.2749 2.7973 0.15138 5.6877 0.68113 5.7968 0.73206 0.16881 3.2834-2.4392 2.8933-5.4926-0.27942-2.1889-2.2719-3.1655-3.5744-0.30418m0.48901 6.7224c-0.77573-0.16155-2.7696-3.6923-1.2123-7.111 1.6606-3.6487 4.7766-2.6692 5.1812 0.49483 0.51084 4.0096-3.0345 6.8112-3.9689 6.6162"/>
   <path d="m259.7 111.25c0.95619 0.50939 1.8032 1.3128 2.4523 2.3563 0.0509-0.0306 0.36094-0.16445 0.58944-0.27071-0.58798-0.82231-1.3331-1.5005-2.2166-2.0157-1.4452-0.84267-2.0681-0.73206-0.82521-0.0698"/>
   <path d="m190.3 115.06c-0.70295-0.24597-1.7989-0.39002-2.7128-0.3682-0.76845 0.0173-0.75971-0.36094-0.0173-0.50793 1.0392-0.20376 2.1423 3e-3 2.9384 0.2809 0.163 0.0583-0.17463 0.60691-0.20813 0.59527"/>
   <path d="m223.35 123.13c-0.5123-0.20958-1.2662-0.43807-1.8309-0.51812-0.17318-0.0248 0.20232-0.59962 0.37113-0.57633 0.5676 0.0815 1.2429 0.32163 1.7479 0.62581 0.71314 0.42644 0.48464 0.78446-0.28816 0.46864"/>
   <path d="m232.12 116.82c-0.92854 0-7.8795 2.7434-13.18 7.9988 3.9805-0.98094 12.404-3.7214 14.737-4.6558 0.41041-0.59088-0.41041-3.2804-1.534-3.343h-0.0231m-14.353 8.0745c6.037-6.3688 13.179-9.0001 14.427-8.9201 2.2675 0.12517 2.7638 4.5234 1.777 4.9192-2.5717 1.0304-12.495 4.2366-15.878 4.925-1.1367 0.2314-1.0435-0.16881-0.326-0.92418"/>
   <path d="m194.21 118.91c-2.8191-4.8697-10.124-14.998-13.893-15.146-2.79-0.11061-4.8188 1.0712-5.7372 2.138-0.41041 0.47445-0.3784 0.70149 0.0293 1.1134 2.6022 2.6168 16.475 11.495 19.319 12.366 0.0379 0.0132-0.16737-0.90089-0.45555-1.0391-4.9731-2.3985-15.758-9.0816-18.32-11.895 0.59234-0.68402 2.301-1.7712 5.1812-1.6577 2.5498 0.10182 7.9785 6.737 12.604 13.759 0.95473 1.451 2.0754 1.7465 1.2734 0.36094"/>
   <path d="m191.26 115.73c-1.0624-0.8383-13.618-9.984-15.009-10.563-0.16155-0.0669 0.4308-0.49191 0.56905-0.41332 2.1671 1.2225 11.105 7.8664 14.033 10.036 0.44972 0.33331 0.46572 0.98531 0.40752 0.94019"/>
   <path d="m220.95 122.26c4.0547-1.5005 11.352-3.8029 12.799-4.1246 0.11061-0.0248 0.36969 0.45845 0.1965 0.45845-0.55741 0.0583-9.1369 2.659-13.486 4.5234-0.0363 0.0161 0.23723-0.76407 0.49047-0.85722"/>
   <path d="m256.52 118.05c0.33475-0.13826 0.59235-0.39878 0.71751-0.54578 0.12373-0.14699 0.33619-0.0626 0.20376 0.18049-0.14699 0.27217-0.40603 0.5938-0.66657 0.70151-0.33474 0.13824-0.66366-0.16594-0.25471-0.3362"/>
   <path d="m263.21 116.9c-0.29691-0.0161-0.58652-0.17175-0.83393-0.37258-0.24742-0.20082-0.17176-0.39732 0.0975-0.23432 0.34494 0.21101 0.57488 0.24302 0.78881 0.26634 0.36239 0.0392 0.20666 0.34056-0.0524 0.34056"/>
   <path d="m142.27 90.438c-0.37695 0-0.42497-0.45991-0.0568-0.39589 0.32893 0.0582 0.7568 0.0451 0.94892-0.0334 0.28816-0.11935 0.46863 0.0509 0.20375 0.21394-0.23721 0.147-0.62146 0.26053-1.0959 0.2154"/>
   <path d="m149.54 94.868c-0.20814-0.23284-0.30563-0.6331-0.40897-1.1556-0.0932-0.45991 0.24452-0.44099 0.32893-0.0436 0.08 0.37402 0.36238 0.74661 0.47445 0.96929 0.17901 0.35219-0.16299 0.48901-0.3944 0.22995"/>
   <path d="m140.18 88.872c-0.0322-0.0293 0.14992-0.62581 0.24159-0.53412 0.90234 0.90234 3.4871 1.499 4.3604 1.2487 0.12806-0.0363-0.0597 0.49775-0.1732 0.5123-1.5413 0.18338-3.4958-0.40022-4.4288-1.2269"/>
   <path d="m151.66 96.005c-1.1745-0.6753-2.413-2.3621-2.7332-3.3605-0.0277-0.0902 0.38132-0.4599 0.40316-0.33037 0.1528 0.89944 1.8789 2.9035 3.0825 3.3285 0.12373 0.0437-0.60836 0.4439-0.75244 0.36239"/>
   <path d="m254.36 118.08c2.2151-0.38568 3.279-1.3404 3.1946-1.7261-0.026-0.12662 0.45263 0.28672 0.31582 0.49047-0.47592 0.71459-2.0376 1.4801-3.2222 1.7508-0.0684 0.0144-0.41624-0.49193-0.28817-0.51522"/>
   <path d="m261.51 115.99c-0.0743-0.0597 0.2125-0.51376 0.26635-0.39588 0.14992 0.24596 1.7785 0.40608 2.218 0.23721 0.12084-0.0466 0.0335 0.56615-0.0669 0.58216-0.58508 0.0903-2.0637-0.14118-2.4174-0.42352"/>
  </g>
 </g>
</svg>
