<?xml version="1.0" encoding="UTF-8"?>
<!-- Created with Inkscape (http://www.inkscape.org/) -->
<svg version="1.1" viewBox="0 0 186.64 264.73" xmlns="http://www.w3.org/2000/svg">
 <g transform="translate(-10.821 -21.168)" stroke-width="1.72">
  <path d="m155.58 184.82a21.866 21.866 0 0 1 0.59027 10.169c7.9119 0.29774 16.932-15.351 12.965-27.943a109.5 109.5 0 0 0 19.69 6.6375c-2.9928-6.708-8.9251-12.847-14.083-17.695 13.722-6.2436 20.015-24.505 13.309-32.346-3.6584 6.087-13.751 12.298-20.392 13.636a51.921 51.921 0 0 0-2.2015-19.178c-0.81702 0.66561-1.8404 0.50056-3.0203-0.40045-4.46-3.3987-9.6491-10.633-10.944-15.975a12.742 12.742 0 0 1-0.45245-3.5466c-6.0303-10.065-19.401-19.341-30.538-24.123a4.1503 4.1503 0 0 1-3.8236 1.6856 21.734 21.734 0 0 1-11.916-3.3264c-1.3863-1.0664-1.72-1.8283-1.2264-3.2044-39.787-1.7475-83.103 30.418-75.139 75.31-4.4118-2.2824-7.8311-7.4578-8.5484-14.078-15.2 18.146-6.161 43.388 10.779 39.904-7.4992 5.5573-11.524 10.177-12.589 14.596a45.993 45.993 0 0 0 15.719-5.4059c-5.3922 13.605 4.472 28.017 17.09 27.436a25.019 25.019 0 0 1-3.0151-25.224c10.389 9.2003 24.312 13.44 41.968 13.008-4.0231 5.5039-5.1032 11.249-4.4084 11.734 1.6065 1.118 8.5759-1.6632 14.037-5.9185 0.85998 6.0854 5.3973 11.12 7.6316 10.87 1.4655-0.16317 6.2419-9.3808 6.2419-15.425 4.5408 6.0354 13.516 6.7079 14.448 5.16 0.47976-0.79986-2.9498-8.342-7.4338-11.388a83.096 83.096 0 0 0 14.315-5.7809z" fill="#d5e8c3" data-name="パス 13137"/>
  <path d="m151.56 95.469a10.028 10.028 0 0 0-0.0689 6.2539c1.2952 5.332 6.4844 12.577 10.944 15.975 1.677 1.2779 3.0461 1.1111 3.9422-0.8841 14.192-31.557 13.16-87.685-1.8783-94.316-7.8259-3.4486-47.436 20.506-60.489 45.631-1.1043 2.1276-0.96491 2.9636 0.74817 4.2811a21.734 21.734 0 0 0 11.916 3.3282 4.1039 4.1039 0 0 0 3.9457-1.8576c8.5466-13.985 27.413-25.913 31.185-24.453 5.2442 2.0313 6.2676 26.749-0.24963 46.041" fill="#50a035" data-name="パス 13138"/>
  <path d="m151.04 98.177a9.4221 9.4221 0 0 1 0.51616-2.7073c6.5171-19.291 5.4936-44.009 0.24963-46.042-3.7719-1.4586-22.638 10.47-31.185 24.455-0.039 0.065-0.0826 0.10986-0.12221 0.17227 11.137 4.7816 24.506 14.059 30.537 24.125" fill="#d5e8c3" data-name="パス 13139"/>
  <path d="m85.562 70.648c-16.586-27.1-48.16-47.076-56.14-43.996-8.5312 3.2955-16.902 61.798-0.2064 93.107 6.5566-25.563 30.44-43.906 56.347-49.111" fill="#50a035" data-name="パス 13140"/>
  <g fill="#d5e8c3">
   <path d="m66.068 77.253c-6.9935-12.857-23.76-25.44-27.468-23.8-3.925 1.7355-6.4465 28.282 1.4052 44.594a74.204 74.204 0 0 1 26.063-20.795" data-name="パス 13141"/>
   <path d="m146.53 127.31c-11.889-7.1328-24.08-3.6963-27.045 3.268-4.5046 10.566 5.1514 22.958 18.153 24.694 3.096 12.183-1.3055 29.439-9.4238 40.339a63.137 63.137 0 0 1 11.302 16.168c10.836-13.946 22.442-36.577 24.145-52.215 1.376-12.582-3.1768-23.879-17.131-32.253" data-name="パス 13142"/>
   <path d="m146.53 127.31c-11.889-7.1328-24.08-3.6963-27.045 3.268-4.5046 10.566 5.1514 22.958 18.153 24.694 3.096 12.183-1.3055 29.439-9.4238 40.339a63.137 63.137 0 0 1 11.302 16.168c10.836-13.946 22.442-36.577 24.145-52.215 1.376-12.582-3.1768-23.879-17.131-32.253" data-name="パス 13143"/>
  </g>
  <path d="m134.53 184.06a83.119 83.119 0 0 1-14.217 5.7361c4.484 3.0461 7.9119 10.59 7.4338 11.388-0.92883 1.548-9.9054 0.87721-14.448-5.16 0 6.044-4.7764 15.263-6.2419 15.425-2.2359 0.24768-6.775-4.785-7.6316-10.872-5.461 4.257-12.43 7.0365-14.035 5.9185-0.69662-0.48366 0.38159-6.228 4.4066-11.734h-0.83762a84.247 84.247 0 0 1-27.463 6.4105c-0.10837 4.6302 7.248 11.369 17.183 11.772a117.09 117.09 0 0 1-8.4778 10.332c6.8455 0.78087 20.06-2.3461 27.473-8.6223 0.62602 8.0444 7.2807 14.666 13.641 16.696a46.839 46.839 0 0 0 6.88-21.245c5.0396 5.9563 16.147 7.3873 23.192 6.02a62.487 62.487 0 0 0-13.17-20.514 51.204 51.204 0 0 0 6.3192-11.548" fill="#50a035" data-name="パス 13144"/>
  <g fill="#d5e8c3">
   <path d="m148.02 241.42c-5.4317-6.2298-8.6257-16.355-9.0764-24.957-6.9574 0.66217-16.264-1.0458-20.755-6.3536a46.825 46.825 0 0 1-6.8714 21.245c-6.364-2.0313-13.015-8.6533-13.641-16.696a41.638 41.638 0 0 1-17.633 7.8706c-1.5996 23.242 5.1307 54.696 22.09 60.987 8.2439 3.0547 14.147 0.18203 13.443-6.3107a62.625 62.625 0 0 0 12.265-0.23208l23.585-2.9618c5.5573-8.428 4.5373-23.485-3.4056-32.59" data-name="パス 13145"/>
   <path d="m86.89 266.73h0.0195a80.244 80.244 0 0 1-5.5401-19.004c-8.6412 12.248-7.9481 22.981-3.5741 28.486a10.936 10.936 0 0 1 9.0936-9.4823" data-name="パス 13146"/>
   <path d="m170.3 215.57c-2.3375-0.0949-2.7141 0.81695-1.548 3.3264 4.3929 9.46 1.3107 19.537-20.06 23.373 7.2755 9.1418 8.256 23.803 2.5198 32.08a124.95 124.95 0 0 1 25.937 2.58c2.4648 0.54346 2.9687-0.20997 1.204-1.978a21.672 21.672 0 0 0-4.0385-3.1097c12.836-3.3918 21.531-11.67 21.995-26.949 0.58116-19.106-10.982-28.724-26.001-29.329" data-name="パス 13147"/>
  </g>
  <path d="m42.594 94.928c-1.4998-18.351 3.3488-31.847 11.017-32.843-6.4259-5.8119-12.878-9.5752-15.01-8.6309-3.925 1.7355-6.4465 28.28 1.4052 44.594q1.2418-1.5996 2.58-3.12" fill="#b8c9aa" data-name="パス 13148"/>
  <path d="m156.01 63.201c-0.3647-7.4389-1.861-12.866-4.2002-13.772-3.7719-1.4603-22.639 10.468-31.185 24.453-0.039 0.065-0.0826 0.11181-0.12221 0.17227 0.64487 0.27693 1.2986 0.57272 1.9574 0.8789 11.995-11.085 26.362-15.322 33.55-11.73" fill="#b8c9aa" data-name="パス 13149"/>
  <g fill="#448b2c">
   <path d="m36.572 27.401c16.768 11.846 33.946 28.433 43.036 44.696 1.966-0.55582 3.956-1.044 5.9495-1.4466-13.325-21.773-36.321-38.935-48.985-43.249" data-name="パス 13150"/>
   <path d="m172.42 33.376c2.3684 27.714-1.1369 62.047-12.522 82.044a24.51 24.51 0 0 0 2.5439 2.267c1.677 1.2762 3.0461 1.1111 3.9422-0.88411 11.049-24.57 12.869-64.033 6.0354-83.433" data-name="パス 13151"/>
   <path d="m86.018 201.93a27.602 27.602 0 0 1 3.784-7.174h-0.83938a75.693 75.693 0 0 1-10.265 3.5466 32.809 32.809 0 0 0 7.3254 3.6223" data-name="パス 13152"/>
   <path d="m99.42 200.57a38.806 38.806 0 0 1-4.988 3.2679 46.429 46.429 0 0 0 5.9305 0.30293 16.14 16.14 0 0 1-0.94943-3.5776" data-name="パス 13153"/>
   <path d="m128.21 195.61a51.256 51.256 0 0 0 6.3192-11.548 83.217 83.217 0 0 1-14.217 5.7327 21.517 21.517 0 0 1 6.1163 7.525q1.1317-0.59352 2.2463-1.2333c-0.15471-0.15797-0.31138-0.32309-0.46415-0.47651" data-name="パス 13154"/>
   <path d="m113.3 196.02a22.016 22.016 0 0 1-1.3123 6.6924 60.062 60.062 0 0 0 7.224-2.1826 14.539 14.539 0 0 1-5.9048-4.5081" data-name="パス 13155"/>
  </g>
  <g fill="#b8c9aa">
   <path d="m134.63 184.01a83.113 83.113 0 0 1-14.314 5.7792 21.5 21.5 0 0 1 6.1145 7.525 62.511 62.511 0 0 1-7.224 3.2129 14.543 14.543 0 0 1-5.9065-4.5081 22.016 22.016 0 0 1-1.3123 6.6925 53.925 53.925 0 0 1-11.612 1.4414 16.139 16.139 0 0 1-0.94943-3.5776 38.812 38.812 0 0 1-4.988 3.2679 39.353 39.353 0 0 1-8.428-1.9178 27.599 27.599 0 0 1 3.784-7.174c-15.867 0.38874-28.712-3.0117-38.7-10.384 25.681 11.034 60.683 6.0595 84.825-4.1985-0.3647 1.204-0.75507 2.3719-1.302 3.8339" data-name="パス 13156"/>
   <path d="m86.918 266.29a30.384 30.384 0 0 0 16.142 13.28c4.8693 1.5274 9.0592-1.4534 6.192-7.6608a91.985 91.985 0 0 1-9.1159-41.082c2.365 14.011 8.4933 32.415 14.064 41.624 4.9175 8.1287-1.4929 15.619-12.071 11.065-8.9577-3.8562-12.728-11.018-15.213-17.227" data-name="パス 13157"/>
   <path d="m86.887 266.73c-7.1105 1.3193-9.9519 8.1889-8.901 11.135 1.376 3.8614 11.601 4.871 18.275 2.1895a36.605 36.605 0 0 1-9.374-13.325" data-name="パス 13158"/>
   <path d="m86.887 266.73h0.0195a72.296 72.296 0 0 1-3.956-11.536c-3.28 3.784-4.8882 10.992-3.8734 16.987a11.271 11.271 0 0 1 7.8053-5.4523" data-name="パス 13159"/>
   <path d="m161.39 143.08c-1.7698 8.3196-13.652 13.402-23.753 12.188 3.096 12.183-1.3055 29.439-9.4238 40.339a63.105 63.105 0 0 1 11.3 16.168c10.836-13.946 22.442-36.577 24.147-52.215a31.792 31.792 0 0 0-2.2704-16.483" data-name="パス 13160"/>
   <path d="m188.26 173.31c-4.3465-4.4857-17.571-9.7575-24.739-12.212a93.005 93.005 0 0 1-7.9532 24.276 18.614 18.614 0 0 1 0.59872 9.601c6.978 0.25613 16.835-13.022 12.964-27.943a84.651 84.651 0 0 0 19.131 6.2728" data-name="パス 13161"/>
   <path d="m187.79 123.68c2.322 11.608-3.3264 22.403-13.626 28.934-1.4654 0.93052-1.3949 2.611-0.039 3.9784 16.964-9.3292 19.854-25.941 13.664-32.912" data-name="パス 13162"/>
   <path d="m12.258 149.06c0.85999 9.7609 8.4658 18.297 17.506 18.118 2.58-0.052 3.1321 1.72 1.7785 3.2679-12.188 1.376-18.989-5.6003-19.286-21.39" data-name="パス 13163"/>
   <path d="m36.792 177.99c0.29585-1.3192-0.58305-1.9814-2.2549-1.4018-5.3595 1.8576-13.607 5.6037-16.424 8.2215a45.136 45.136 0 0 0 18.679-6.818" data-name="パス 13164"/>
   <path d="m45.483 179.63c-5.805 9.288-3.7221 23.698 5.3732 27.348-5.7585-7.5679-6.4087-15.932-3.0134-25.224-0.77055-0.61432-1.7406-1.4998-2.3598-2.119" data-name="パス 13165"/>
   <path d="m112.21 268.38a39.539 39.539 0 0 1 3.3677 8.8202 62.723 62.723 0 0 0 12.265-0.23208l23.584-2.9636c5.5573-8.428 4.5356-23.483-3.4056-32.59-5.4318-6.2281-8.624-16.355-9.0764-24.957-6.959 0.66223-16.264-1.044-20.755-6.3519a46.849 46.849 0 0 1-6.8799 21.245 21.084 21.084 0 0 1-11.397-9.5202c0.08776 8.7926 3.5931 29.672 12.288 46.552" data-name="パス 13166"/>
   <path d="m127.74 276.03c-0.039 3.0615 3.323 6.787 12.071 6.087 7.9257-0.63317 11.641-3.44 11.711-7.1706 0.0689-3.6619-4.9364-8.0479-12.638-8.0479-7.4785 0-11.097 5.4902-11.144 9.1315" data-name="パス 13167"/>
   <path d="m180.61 255.68c-13.567 3.6601-23.402-4.7506-23.142-15.652a55.81 55.81 0 0 1-8.7719 2.2497c7.2773 9.14 8.256 23.803 2.5198 32.08a125.02 125.02 0 0 1 25.937 2.58c2.4648 0.54541 2.9687-0.20997 1.204-1.978a21.71 21.71 0 0 0-4.0385-3.108c12.836-3.3918 21.529-11.67 21.995-26.951a30.943 30.943 0 0 0-4.4531-18.199c5.2632 16.452-1.8421 26.44-11.245 28.978" data-name="パス 13168"/>
  </g>
  <g fill="#0d131a">
   <path d="m103.29 70.105c-41.266-1.5617-86.356 34.756-72.026 82.916 0.90128 3.0289-0.40246 3.4073-1.431 0.444-17.028-49.02 29.795-87.195 74.095-85.165z" data-name="パス 13169"/>
   <path d="m46.708 181.93c-2.2463-2.3409-1.345-3.44 1.1386-1.3605 11.111 9.3103 25.353 13.698 44.61 13.345 3.5432-0.0657 3.5466 1.192 0.06501 1.4809-19.446 1.6099-35.96-3.194-45.81-13.466" data-name="パス 13170"/>
   <path d="m166.32 137.31a51.534 51.534 0 0 0-2.0846-18.628l2.205-1.7372a53 53 0 0 1 2.6368 19.849z" data-name="パス 13171"/>
   <path d="m133.95 185.67a80.434 80.434 0 0 1-15.112 5.3887c-3.0031 0.75162-3.4245-0.60002-0.35754-1.5239a83.291 83.291 0 0 0 16.574-6.9453z" data-name="パス 13172"/>
   <path d="m161.72 118.61c-4.5184-3.4399-10.031-10.74-11.443-16.564a11.097 11.097 0 0 1 0.19762-6.9057c6.3175-19.013 5.2666-43.155 0.96146-44.869-2.9498-1.1765-21.366 10.483-29.847 24.176a5.0189 5.0189 0 0 1-4.9449 2.4235 21.763 21.763 0 0 1-12.592-3.5604c-1.9229-1.4792-2.4785-2.8827-1.0526-5.6759 13.296-26.02 53.65-49.608 61.865-46.122 15.652 6.6392 17.36 63.516 2.439 95.804-1.3192 2.8586-3.3866 2.9618-5.5831 1.2899m-9.1297-22.814a8.5174 8.5174 0 0 0 0.052 5.7172 33.003 33.003 0 0 0 10.459 15.308c1.3261 1.0131 1.72 0.79635 2.2962-0.52981 13.504-30.876 13.184-86.589-1.3657-92.879-6.5704-2.8431-45.413 19.832-59.056 45.179-0.81702 1.5171-0.70176 2.0056 0.55061 2.9721a21.414 21.414 0 0 0 11.144 3.0582c1.5824 0 2.279-0.23533 2.9704-1.376 8.8837-14.702 28.38-26.361 32.573-24.672 6.1713 2.4871 6.9539 28.698 0.37834 47.231" data-name="パス 13173"/>
   <path d="m150.87 100.25c-5.848-10.748-19.964-20.657-31.053-25.382l1.2212-1.72c11.18 4.6251 24.856 14.243 30.244 23.22z" data-name="パス 13174"/>
   <path d="m28.851 121.3c-18.263-31.779-9.2346-92.169 0.20815-95.618 8.9921-3.2852 41.19 17.016 57.604 44.672l-2.2721 0.54021c-16.926-26.57-47.406-45.951-54.589-43.28-7.0657 2.6264-15.81 58.961-0.17201 90.597z" data-name="パス 13175"/>
   <path d="m39.265 98.923c-8.3265-16.527-5.9271-44.154-1.032-46.278 4.5356-1.9643 21.987 11.488 28.724 24.113l-1.8146 0.91849c-7.2515-13.156-23.392-24.57-26.144-23.392-3.2112 1.376-5.676 26.945 1.7114 42.828z" data-name="パス 13176"/>
   <path d="m28.596 145.73a16.594 16.594 0 0 1-9.3877-12.768c-11.374 15.834-4.9261 38.203 10.079 36.691 3.0358-0.30423 3.1269 0.34389 0.95976 2.064-7.248 5.7894-9.7007 9.2742-10.81 12.057a54.383 54.383 0 0 0 15.48-5.6398c2.138-1.1249 2.6333-0.25613 0.66392 1.1403a40.563 40.563 0 0 1-16.063 6.4706c-2.3822 0.38159-2.8879-0.12741-2.1534-2.3444 1.302-3.9388 5.1221-7.9928 10.239-11.854-15.019 0.91674-23.839-23.068-9.5339-40.704 1.72-2.1225 2.5628-1.9522 3.0513 0.97862a16.121 16.121 0 0 0 7.1122 11.471z" data-name="パス 13177"/>
   <path d="m48.576 182.3a24.534 24.534 0 0 0 2.236 22.778c1.6048 2.3736 1.6409 3.0323-1.2436 3.0117-12.334-0.0949-21.983-14.477-17.009-27.927l2.3787-1.2264c-5.5418 12.9 3.6378 26.144 13.858 26.954a25.351 25.351 0 0 1-1.677-24.746z" data-name="パス 13178"/>
   <path d="m186.86 174.28a85.903 85.903 0 0 1-19.314-7.1448c-2.2222-1.1937-1.6546-2.3598 0.65528-1.357a111.39 111.39 0 0 0 18.66 6.3192c-2.1638-4.4977-7.224-10.064-12.262-14.947-1.0423-1.0131-1.0406-1.591 0.42645-2.365 11.868-6.2676 17.468-21.555 13.072-29.276-4.9174 7.224-18.51 14.176-24.341 12.635-2.408-0.63447-2.1603-1.6357 0.31464-1.4688 5.6175 0.37834 16.933-5.3956 22.267-12.523 1.4242-1.9023 2.0159-2.0262 3.3936-0.0325 5.9614 8.6-0.31139 25.784-13.437 32.092 4.1692 3.7736 9.7249 9.3344 12.817 15.48 1.4172 2.8207 0.92532 3.3866-2.2532 2.58" data-name="パス 13179"/>
   <path d="m156.22 183.64a19.861 19.861 0 0 1 1.1593 10.184c6.2693-1.0027 14.678-15.034 10.703-27.319l2.0193 0.92882c3.8132 12.441-4.128 26.937-12.141 28.438-2.3031 0.4336-3.0083 0.11181-2.7073-2.3099a18.92 18.92 0 0 0-0.3751-7.2395z" data-name="パス 13180"/>
   <path d="m138.82 155.31c3.0134 11.868-1.0561 28.756-9.3619 40.219a60.318 60.318 0 0 1 12.484 18.966c0.86004 2.1276 0.34388 2.58-1.4843 2.838-7.1139 1.032-16.22-0.18917-21.521-5.1187a42.714 42.714 0 0 1-5.9993 18.521c-1.008 1.7475-1.4035 1.892-3.237 1.1868-6.775-2.6247-13.263-10.215-12.798-19.037 0.11181-2.1311 1.4327-2.0795 1.474 0.0585 0.16317 8.3505 6.5858 14.85 12.429 17.095a46.409 46.409 0 0 0 6.3794-19.161c0.23598-2.0433 0.72588-2.2359 2.4355-0.66216 5.3612 4.9209 14.31 5.6759 20.175 4.988a61.497 61.497 0 0 0-11.821-18.485c-0.83586-0.87201-0.82728-1.2298-0.20087-2.1035 8.0839-11.29 11.533-28.012 8.6515-39.548z" data-name="パス 13181"/>
   <path d="m97.699 215.78c-6.8335 5.8342-18.462 9.1332-26.245 8.6791-2.8999-0.17227-2.795-1.1765-1.087-3.0117a121.82 121.82 0 0 0 10.898-13.488c1.419-2.0433 2.4939-1.3141 1.2366 0.83418a76.524 76.524 0 0 1-9.957 13.505c6.3467 0.013 18.02-2.7847 25.007-8.6877z" data-name="パス 13182"/>
   <path d="m90.982 194.92a80.908 80.908 0 0 1-28.228 7.2532c0.84107 3.3884 6.5927 9.503 16.491 9.8624l-1.2401 1.8352c-8.6963-0.4609-16.744-6.1575-17.58-11.565-0.29585-1.9195 0-2.15 2.3701-2.3427a81.827 81.827 0 0 0 24.018-5.3526z" data-name="パス 13183"/>
   <path d="m99.501 201.49c-5.2786 4.2243-12.79 7.4493-14.792 5.7723-1.2264-1.032 0.19112-7.5026 4.1108-12.642l2.064 0.026c-3.9766 5.2683-5.1789 10.796-4.7368 11.099 0.85998 0.59157 7.4218-1.548 13.032-5.9925z" data-name="パス 13184"/>
   <path d="m121.24 189.48c4.5906 3.4778 8.127 10.855 7.396 12.191-1.044 1.9091-9.5683 1.72-14.642-3.5604-0.3816 4.797-4.4582 14.083-6.7974 14.377-3.1149 0.39199-8.3643-5.9168-8.5914-12.75-0.08256-2.5352 1.1249-2.6454 1.4311-0.12352 0.78087 6.4431 5.3457 10.931 6.8799 10.771 0.87721-0.091 4.9072-7.592 5.4352-13.511 0.18397-2.0743 0.83079-2.2205 2.3289-0.60392 4.5322 4.8951 11.507 5.2942 12.086 4.3998 0.32504-0.49861-3.1614-7.8844-7.4614-10.573z" data-name="パス 13185"/>
   <path d="m138.93 210.64c10.74-14.259 21.684-35.786 23.354-51.111 1.4534-13.349-4.1108-23.846-16.379-31.208-11.988-7.193-23.048-3.0013-25.456 2.6574-4.7884 11.233 8.4279 25.368 23.584 23.519 2.58-0.31659 2.783 1.0079 0.22688 1.4603-17.083 3.0203-31.51-12.559-25.764-25.831 3.452-7.967 16.512-11.12 28.655-3.8339 12.84 7.7038 19.436 18.576 17.852 33.504-1.7819 16.739-13.786 38.853-24.959 53.058z" data-name="パス 13186"/>
   <path d="m150.94 272.57c4.6766-8.0392 3.5501-22.406-3.6481-30.544-6.6994-7.5679-8.968-17.633-9.6113-25.526l2.3977-0.34389c0.46285 7.7228 2.733 17.626 8.6481 24.596 8.6636 10.21 9.7025 26.097 3.0358 34.766z" data-name="パス 13187"/>
   <path d="m77.711 277.94c-5.676-5.9219-6.3399-18.457 3.4314-31.67l0.45765 2.795c-7.0176 10.764-7.2498 19.935-3.5586 25.494z" data-name="パス 13188"/>
   <path d="m97.193 280.78c-7.3804 3.096-18.548 2.4716-20.327-2.5078-1.3295-3.7254 1.916-11.042 9.6062-12.54l0.79114 1.9109c-6.6443 1.2229-9.0403 7.592-8.2164 9.8917 0.95977 2.6849 9.6956 4.0747 16.359 1.7509z" data-name="パス 13189"/>
   <path d="m128.18 278a62.451 62.451 0 0 1-12.566 0.34389l-0.28408-2.2928a74.787 74.787 0 0 0 12.456-0.17227z" data-name="パス 13190"/>
   <path d="m81.287 222.29c-2.0881 24.285 5.8875 54.467 21.318 60.184 9.8211 3.6378 14.778-1.2899 10.041-10.31a116.12 116.12 0 0 1-12.568-40.896c-0.26328-2.9446 1.0819-3.096 1.4723-0.17227a127.88 127.88 0 0 0 13.218 40.095c5.8342 11.113-1.8679 17.59-13.048 13.447-18.27-6.7681-24.424-40.024-22.946-61.82z" data-name="パス 13191"/>
   <path d="m126.55 275.99c0.052-4.4152 4.5597-10.119 12.374-10.119 8.256 0 13.834 4.988 13.76 9.1297-0.0741 3.992-3.4245 7.3392-12.788 8.0839-8.8116 0.69831-13.397-2.8655-13.342-7.1001m2.3289 0.0774c-0.0325 2.5491 2.924 5.7 10.87 5.0688 7.4493-0.59482 10.568-2.9825 10.628-6.2006 0.052-2.9498-4.3809-7.0348-11.496-7.0348a9.4462 9.4462 0 0 0-10.003 8.1682" data-name="パス 13192"/>
   <path d="m148.03 241.37c20.15-3.3161 24.252-12.719 19.952-22.172-1.5067-3.3162-0.56426-4.5546 2.3753-4.4617 16.969 0.52786 27.647 11.842 27.088 30.205-0.45766 15.022-8.6739 24.028-22.073 27.58l-2.181-1.376c14.187-3.6258 21.46-12.241 21.889-26.266 0.51616-17.167-9.2484-27.656-24.814-28.469-1.3536-0.0709-1.6908 0.17227-0.76195 2.1534 5.3646 11.479-0.55582 21.156-20.083 24.553z" data-name="パス 13193"/>
   <path d="m151.34 273.35a114.21 114.21 0 0 1 25.996 2.7606c0.80668 0.18723 0.97524 0.0325 0.4011-0.53631a24.512 24.512 0 0 0-14.477-6.5738c-2.3753-0.22037-2.279-1.529 0.0897-1.4706a23.461 23.461 0 0 1 15.626 6.8542c2.3977 2.5645 1.72 4.1675-2.0175 3.3832a125.48 125.48 0 0 0-25.232-2.408z" data-name="パス 13194"/>
  </g>
  <path d="m134.66 154.67c-11.447-3.0616-19.334-14.35-15.181-24.094 2.9652-6.9591 15.157-10.396 27.045-3.2679 0.66047 0.3972 1.2814 0.80661 1.892 1.216 1.2264-4.9553 1.4035-8.6 0.83073-9.374-1.9332-2.6299-14.47-5.4937-23.22-3.0186 2.322-10.292 1.4706-22.75-0.31139-23.908-4.042-2.635-26.853 4.7197-39.388 23.524-10.447-11.524-30.798-17.411-32.811-16.483-1.9488 0.89957-3.5604 12.384-2.7847 23.908-6.536 1.376-15.435 7.5679-15.709 10.06-1.4156 12.962 6.1335 30.521 21.404 34.248 2.8999 4.9003 8.9577 7.5422 14.432 8.4744 4.644 3.0805 10.776 1.5068 16.268-5.1152 7.205 5.946 19.501 5.2271 25.112-0.34389a18.849 18.849 0 0 0 7.5542-8.6825 19.732 19.732 0 0 0 14.866-7.1448" fill="#50a035" data-name="パス 13195"/>
  <path d="m72.958 143.09c2.943 13.166-1.3399 23.325-9.3911 25.124-7.1638 1.6013-16.684-6.5532-19.396-18.726-3.0564-13.676 1.2711-24.032 8.925-25.743 6.1025-1.364 16.469 4.1693 19.864 19.346" fill="#fff" data-name="パス 13196"/>
  <path d="m80.958 160.06c-0.38874 0.89958 2.8208 4.128 4.2295 4.1778 1.4448 0.052 4.7988-3.6618 4.4359-4.6439-0.48691-1.3227-7.9945-1.0836-8.667 0.46415" fill="#ba6575" data-name="パス 13197"/>
  <path d="m72.957 143.09a35.052 35.052 0 0 0-2.408-7.1621c-3.6756-6.5015-8.8872-8.397-12.14-7.7399-5.6966 1.1404-9.5666 9.5837-7.224 21.307 2.236 11.18 8.7358 18.361 14.395 17.231a8.3437 8.3437 0 0 0 3.8975-2.0158c3.9921-4.3894 5.5779-12.227 3.4812-21.612" fill="#ba6575" data-name="パス 13198"/>
  <path d="m57.926 137.68a2.8001 2.8001 0 0 1-2.4768 3.2302c-1.3124 0.039-2.6092-1.0681-2.6694-3.1527a2.8965 2.8965 0 0 1 2.4957-3.3093c1.4603-0.039 2.592 1.204 2.6505 3.2302" fill="#fff" data-name="パス 13199"/>
  <path d="m72.908 158.32c-5.1118-5.8342-14.286-2.0348-15.124 5.1307 2.451 2.5456 5.2099 3.784 7.795 3.268a8.342 8.342 0 0 0 3.8975-2.0158 16.207 16.207 0 0 0 3.4314-6.3794" fill="#dab2b6" data-name="パス 13200"/>
  <g fill="#0d131a">
   <path d="m67.592 146.6c1.4448 6.536-0.19951 9.9244-2.1603 10.358-2.408 0.53502-5.1084-2.9601-6.3003-8.3454-1.5205-6.861 0.61744-9.8865 2.1861-10.232 2.0846-0.46285 4.9261 2.1345 6.2745 8.2216" data-name="パス 13201"/>
   <path d="m70.523 176.75c-2.1637-1.6546-1.4689-2.5628 0.87718-1.173 3.7083 2.1964 10.368 0.39589 14.352-4.472 0.92187-1.13 1.4172-1.3364 2.7021-0.444 7.7726 5.4076 19.436 3.9766 23.842-1.376 1.3382-1.6288 2.3719-0.92193 1.204 0.88749-3.8597 5.9735-17.102 8.7187-26.144 1.9883-4.3 6.4225-12.767 7.7004-16.827 4.5958" data-name="パス 13202"/>
   <path d="m120.22 143.94a30.917 30.917 0 0 0-16.794 9.5872c-1.6615 1.7458-2.4888 1.2711-1.1129-0.89268a26.144 26.144 0 0 1 16.976-11.133z" data-name="パス 13203"/>
   <path d="m80.143 159.71c0.96666-2.236 9.46-2.6213 10.275-0.3855 0.68798 1.892-3.4159 5.6364-5.2081 5.6364-1.7974 0.052-5.805-3.5518-5.0688-5.2511m5.0861 3.7754c0.7929 0.026 3.784-2.8741 3.5174-3.5896-0.29058-0.76884-6.7079-0.37834-6.9332 0.41475-0.18072 0.64877 2.7949 3.1545 3.4159 3.1752" data-name="パス 13204"/>
   <path d="m68.215 166.61c-7.1259 3.9422-15.318-3.0358-18.089-16.895-2.4716-12.365 1.9023-21.123 8.096-22.36 3.0255-0.60912 7.4562 0.81013 11.02 5.2356l1.935 6.4225c-3.5346-8.8218-9.5098-10.609-12.608-9.9846-4.6096 0.92362-8.7892 7.9808-6.333 20.27 2.635 13.175 11.803 21.773 18.218 13.149z" data-name="パス 13205"/>
   <path d="m74.152 142.9c2.8724 12.847-1.2453 24.192-10.377 26.235-7.3478 1.6392-17.785-5.9529-20.795-19.42-3.2164-14.391 1.665-25.102 9.8263-26.926 6.947-1.548 17.838 4.4393 21.343 20.114m-2.3788 0.49341c-3.4004-15.246-13.311-19.811-18.431-18.655-7.1672 1.6013-10.894 11.777-8.0392 24.548 2.7778 12.43 11.954 19.302 18.039 17.928 7.4527-1.665 11.364-10.759 8.4434-23.82" data-name="パス 13206"/>
   <path d="m138.93 210.64c10.74-14.259 21.684-35.786 23.354-51.111 1.4534-13.349-4.1108-23.846-16.379-31.208-11.988-7.193-23.048-3.0013-25.456 2.6574-4.7884 11.233 8.4279 25.368 23.584 23.519 2.58-0.31659 2.783 1.0079 0.22688 1.4603-17.083 3.0203-31.51-12.559-25.764-25.831 3.452-7.967 16.512-11.12 28.655-3.8339 12.84 7.7038 19.436 18.576 17.852 33.504-1.7819 16.739-13.786 38.853-24.959 53.058z" data-name="パス 13207"/>
  </g>
 </g>
</svg>
