<?xml version="1.0" encoding="UTF-8"?>
<!-- Created with Inkscape (http://www.inkscape.org/) -->
<svg version="1.1" viewBox="0 0 166.62 199.91" xmlns="http://www.w3.org/2000/svg">
 <path d="m154.79 91.31c0-27.722-21.593-49.549-54.375-50.167-28.145-0.53097-52.696 15.674-56.161 44.498-3.1253-2.2904-4.6328-8.1312-3.9137-13.765-10.965 4.649-14.254 21.316-2.9826 29.123-4.0586 1.6091-9.7868 6.1836-10.398 9.7123 4.0077-1.4545 8.8958-2.7544 12.694-3.2313-3.4324 8.513 1.1517 19.738 10.863 20.756-1.2598-3.8163-1.0295-8.8547 0.88784-12.473 5.7207 7.9376 14.261 14.141 24.27 18.035-2.7133 1.6892-7.0239 2.803-11.114 3.1069 4.5279 1.9109 9.8204 2.4592 14.094 2.2645-3.2345 2.8257-4.7161 6.6799-3.9883 7.6272 0.7613 0.98843 7.8003-1.2252 12.74-4.9021-0.43363 7.0152 3.5817 12.228 5.0092 12.255 0.97435 0.0184 4.1602-5.698 5.0016-9.9188 2.6625 3.4865 7.2401 6.0149 8.4653 5.2319 1.2026-0.76673-0.6575-7.3298-3.7752-11.081 25.297-0.31577 52.683-18.358 52.683-47.07" fill="#d5e8c3"/>
 <path d="m102.93 41.238c-8.3356-21.702-22.999-40.893-28.475-40.424-4.4468 0.38067-26.696 27.784-23.411 64.798 11.481-18.856 33.502-25.347 51.886-24.374" fill="#50a035"/>
 <path d="m85.849 42.428c-3.3146-10.4-11.846-19.787-13.777-19.308-1.8828 0.46503-8.7552 15.51-7.611 28.267 6.2138-4.3516 13.498-7.3742 21.388-8.9596" fill="#d5e8c3"/>
 <path d="m105.88 149.46c-1.2252 0.78188-5.804-1.7465-8.4654-5.2319-0.84134 4.2208-4.0283 9.9372-5.0016 9.9188-1.4275-0.0276-5.4428-5.2395-5.0102-12.256-4.9389 3.6779-11.979 5.8916-12.739 4.9021-0.7278-0.94624 0.75269-4.8004 3.9883-7.6262h-1e-3c-5.2136 0.23695-11.952-0.62291-16.956-3.7233-2.7111 4.21-0.14805 12.099 8.8925 16.703-2.6873 1.8427-6.0635 3.0507-9.0115 3.479 1.0717 5.061 11.49 7.1439 21.492 2.0839-0.59585 4.5247 2.8171 11.074 7.4218 14.328 3.1112-2.7857 6.4452-7.252 7.4932-11.507 3.28 3.8488 11.685 3.4811 13.264-0.24003-1.541-0.85649-3.1675-2.1575-4.1981-3.6195 5.2741-0.78295 10.016-7.0822 10.509-12.852-3.5676-0.0356-9.0537-0.45854-12.924-1.2923 1.4588 3.187 2.0666 6.4107 1.2458 6.9341" fill="#50a035"/>
 <path d="m91.399 188.86c-1.5161-1.289-2.2375-2.1672-2.6992-3.9288-0.75269-2.8777-1.6481-5.9889-2.5781-9.0548 1.0933-1.8601 2.0569-3.6108 2.7804-5.1389-3.7731-3.4908-6.362-9.0472-5.8375-13.033-10.002 5.06-20.42 2.9761-21.492-2.0839 2.949-0.42932 6.3252-1.6362 9.0126-3.48-8.0036-4.0737-10.921-10.717-9.6084-15.111-16.007-8.7184-28.607 2.046-29.707 15.435-0.5818 7.0768-1.9055 10.24-5.3584 15.777-4.0975 6.5696-5.7153 12.144-5.2395 21.849 0.17197 3.4876 2.2461 6.8486 6.0733 7.0249 4.1289 0.19038 6.4842-1.3842 7.2628-6.3707 1.3129-8.3994 5.179-14.777 9.8831-17.8 1.9682-1.2653 3.5979-2.4375 4.9518-3.6552 4.6998 3.148 13.207 5.1649 19.527 5.2395 1.8384 5.7824 4.5593 11.321 7.3515 14.768 1.1809 1.4578 2.0861 4.343 3.0528 5.3098 4.2684 4.2684 9.4884 5.9078 13.636 3.0896 3.1815-2.1618 2.3802-5.9532-1.0111-8.8363" fill="#d5e8c3"/>
 <path d="m22.302 159.69c0.60668-3.1329 5.2622-8.5573 9.2678-9.4495 1.528-8.4221 7.6619-15.346 16.225-16.248 1.8936-8.2361-6.1814-19.308-16.522-19.548-8.8482-0.20661-16.63-6.6291-15.876-14.845 0.18178-1.9768-0.86084-2.696-2.8777-1.726-19.877 9.5587-12.407 43.468 8.4189 50.192-3.0658 3.0572-3.1956 8.8915-0.95814 12.087 1.0436 1.4924 1.9693 1.3658 2.3229-0.46282" fill="#d5e8c3"/>
 <path d="m79.092 29.553c-3.0236-4.0834-5.9792-6.6918-7.0195-6.4334-1.8827 0.46606-8.7552 15.51-7.611 28.267 1.089-0.76238 2.2212-1.4696 3.374-2.1499 1.4859-9.3337 5.538-15.662 11.256-19.684" fill="#b8c9aa"/>
 <path d="m76.447 1.297c8.0523 11.037 18.024 27.67 21.902 39.86 1.5453-0.02457 3.0766 0.0011 4.5809 0.08004-7.4705-19.446-20.014-36.865-26.483-39.94" fill="#448b2c"/>
 <g fill="#b8c9aa">
  <path d="m40.083 71.86c-2.6992 3.7904-1.474 13.961 3.9007 16.017 0.03065-0.5948 0.12879-1.4848 0.26608-2.2386-3.0356-2.3175-4.7626-8.182-4.1667-13.778"/>
  <path d="m27.112 110.41c2.2742-2.3932 8.367-4.6155 13.487-4.9929 1.2793-0.0941 1.9822 0.83702 1.3713 1.9109-5.1022 0.39149-10.481 1.673-14.859 3.0821"/>
  <path d="m50.283 128.3c-2.8474-2.6787-3.8001-8.9001-1.0025-15.658 0.56557 1.0425 1.2512 2.0104 2.1196 3.1188-1.474 2.9339-2.6755 7.5126-1.1171 12.539"/>
 </g>
 <g fill="#448b2c">
  <path d="m109.19 143.25c-1.6156-0.19251-3.1891-0.43364-4.5571-0.72887 0.53315 1.1658 0.95167 2.3348 1.2285 3.3762 1.2653-0.70941 2.39-1.5875 3.3286-2.6473"/>
  <path d="m87.399 141.89c-1.6254 1.2101-3.4768 2.2569-5.2579 3.0885 1.8384 0.88027 3.7752 1.5854 5.7445 2.112-0.3915-1.5616-0.60344-3.3124-0.48665-5.2006"/>
  <path d="m97.409 144.23c-0.24984 1.2512-0.70833 2.6332-1.2512 3.9602 1.6816-0.0116 3.3135-0.18177 4.8545-0.5115-1.2847-0.92245-2.5846-2.1142-3.6033-3.4486"/>
  <path d="m78.65 139.16c-1.4675 0.0671-3.0561 0.0423-4.6923-0.0899 0.78402 0.85106 1.6448 1.6481 2.5673 2.3899 0.58939-0.79053 1.2988-1.5789 2.125-2.3002"/>
 </g>
 <g fill="#b8c9aa">
  <path d="m51.896 165.66c3.6941 0.59908 10.637 0.35577 14.408-0.81866 0.18269 2.391 0.91813 6.5502 2.0677 9.695-6.0689-0.0659-15.395-2.1423-19.526-5.2384 1.1604-1.0922 2.1196-2.1747 3.0507-3.6379"/>
  <path d="m81.716 158.36c-0.3828 1.5324-0.27465 3.6595 0.38285 5.3649 1.342 3.4757 3.121 8.6168 4.0239 12.151 0.93111-1.4221 1.8936-3.2183 2.7803-5.1389-3.6292-3.1253-5.9651-8.354-5.8375-13.034-0.41853 0.24646-0.8846 0.4661-1.3496 0.6575"/>
  <path d="m59.227 173.36c-3.9515-0.91055-7.7592-2.3142-10.382-4.0705-1.355 1.2177-3.8585 3.0691-5.5661 4.0813 2.1791 8.2339 5.6785 15.31 9.1272 17.91 5.7186 4.3127 10.779 0.4142 9.5846-3.2746-1.4188-4.383-2.5911-10.23-2.7641-14.647"/>
  <path d="m75.724 189.3c-2.2494-2.7749-4.4436-6.9157-6.176-11.44-1.9801 4.0337-3.4476 9.0234-3.2702 11.678 0.11896 1.7854 1.1506 3.6119 3.4129 4.8026 2.4808 1.3053 5.0946 0.92896 7.1947-3.1069-0.36227-0.72348-0.74401-1.4188-1.1614-1.9336"/>
  <path d="m53.685 159.78c-2.8506 5.4828-5.8624 8.1236-11.221 10.585-6.8411 3.1415-11.041 13.283-11.669 19.448-0.60129 5.9078-7.2661 6.243-9.881 2.564 1.7833 6.322 11.891 6.9698 13.096-1.6319 0.97545-6.9654 4.5896-14.764 9.2689-17.374 5.4882-3.0615 9.9134-6.8205 10.405-13.591"/>
  <path d="m66.648 164.72c1.3691 5.9727 6.1252 16.664 10.158 21.533 1.4761 1.7822 2.9296 3.2713 3.9569 5.8202 1.8006 4.4684 9.9048 6.7719 13.695 2.7393-2.1174 5.7867-10.62 5.7597-15.682-0.20753-1.4383-1.6946-1.6448-3.5979-3.0528-5.3098-4.8091-5.8483-9.2418-17.224-9.0753-24.575"/>
  <path d="m20.937 148.07c-3.0658 3.0572-3.1956 8.8915-0.95814 12.087 1.0436 1.4924 1.9693 1.3658 2.3229-0.46282 0.60668-3.1329 5.2611-8.5573 9.2678-9.4495 0.67482-3.7179 2.2494-7.1417 4.5312-9.8863-15.861-1.0046-33.366-12.023-33.897-30.61-4.6122 13.847 3.4606 33.39 18.733 38.321"/>
  <path d="m78.65 139.16c-0.82624 0.7213-1.5356 1.5096-2.125 2.3002 1.6946 1.3648 3.5957 2.5435 5.6191 3.5125 1.7811-0.83055 3.6325-1.8784 5.2579-3.0875-0.11676 1.8882 0.095 3.639 0.48665 5.1995 2.7576 0.73753 5.5758 1.116 8.2739 1.0955 0.54287-1.3258 1.0014-2.7079 1.2512-3.9591 1.0187 1.3345 2.3186 2.5262 3.6033 3.4476 1.7562-0.37634 3.3935-0.96139 4.8448-1.7735-0.27804-1.0414-0.69534-2.2104-1.2285-3.3762-0.50611-1.0998-1.74-3.0864-2.5295-4.1472 9.6582 0.21948 21.685-3.3816 29.031-8.0934-0.18486-0.66829-0.37417-1.3226-0.5299-1.7908-21.782 9.8182-53.073 7.2142-75.356-7.9225 4.0921 4.7756 14.442 11.18 20.42 13.223-3.5427 1.8384-6.9903 2.8603-10.799 3.2421 3.8931 1.5746 8.5627 2.3672 13.779 2.1304"/>
 </g>
 <g fill="#0f141b">
  <path d="m83.639 136.92c-15.98-3.5492-29.35-12.887-35.617-25.432-1.0803-2.1618-0.18913-2.6484 1.023-0.55911 6.9232 11.928 19.352 20.494 34.862 24.875 2.8506 0.80565 2.3943 1.7075-0.26823 1.116"/>
  <path d="m50.316 66.8c-4.3992-37.45 18.779-66.383 24.039-66.792 5.8937-0.4585 21.308 19.085 29.448 41.258l-1.8416-0.04319c-8.6287-21.885-22.775-39.979-27.418-39.598-3.6617 0.30072-25.233 26.654-22.812 62.877z"/>
  <path d="m63.682 51.93c-1.3637-13.019 5.7964-28.879 8.2113-29.481 2.511-0.62508 11.53 9.3175 14.722 19.822l-1.5626 0.32009c-3.4389-10.506-11.542-19.011-12.825-18.786-1.2534 0.22071-7.9928 14.807-7.0238 27.053z"/>
  <path d="m63.582 136.27c4.5463-0.32551 8.5822-1.3453 11.384-2.8528l1.474 0.62289c-3.1967 2.1639-7.5115 3.2562-10.719 3.5049z"/>
  <path d="m92.439 154.96c-1.9693 0.0519-5.6602-5.2871-5.7542-11.705-4.4944 3.041-11.524 5.5477-12.676 4.0737-1.249-1.5972 1.5821-7.3753 6.2614-10.053 1.7735-1.0155 2.311-0.11767 0.60236 0.93759-4.3192 2.6678-6.2117 7.411-5.6169 8.0652 0.38607 0.42502 6.3425-1.1074 11.005-4.4208 1.3572-0.96463 1.7811-0.75915 1.7908 0.96896 0.0334 6.2733 3.4141 10.545 4.3192 10.506 0.65965-0.0275 3.9147-5.5639 4.5993-9.816 0.32984-2.0406 1.368-1.8838 1.1214 0.1686-0.53636 4.4598-4.0326 11.233-5.6515 11.275"/>
  <path d="m97.559 143.43c2.7284 3.8001 7.0087 5.8862 7.8208 5.3671 0.68238-0.43582-0.74619-6.4885-4.1202-10.427l1.6676-0.0215c3.0961 4.0186 5.1 10.846 3.4141 11.771-1.5767 0.86514-6.4302-1.5216-9.1002-5.0935z"/>
  <path d="m69.943 152.58c-8.6622-3.972-11.813-12.233-9.3467-16.995 0.56993-1.0987 0.92245-1.2166 2.3413-0.44446 5.0589 2.7555 11.627 3.7028 16.545 3.2962l-1.6686 1.4361c-3.4973 0.40664-11.316-0.57964-15.767-3.2205-1.6232 3.6314 0.61857 10.616 9.1056 15.053z"/>
  <path d="m89.379 172.32c-4.1624-3.2594-7.2239-9.218-7.0758-13.462-9.1726 4.4609-19.354 2.7987-21.347-2.1152-0.62291-1.5356-0.35689-1.8687 1.6005-2.1834 3.1329-0.50285 6.0398-1.7433 8.54-3.5006 1.4112-0.99274 1.966-0.27803 0.70834 0.90731-2.4883 2.3434-6.3285 3.8315-9.0688 4.3084 1.4707 3.3416 10.049 5.2049 18.995 1.2545 1.5497-0.68454 1.9639-0.49854 2.0039 1.2447 0.0941 4.1397 3.0226 9.4473 6.7189 12.182 2.8852-2.6852 6.3674-7.3591 7.2044-11.752 0.31792-1.6675 1.2988-1.5194 1.1474 0.16982-0.40878 4.5409-3.9072 9.5803-7.3331 12.835-0.82081 0.77863-1.1333 0.86191-2.0936 0.11043"/>
  <path d="m98.139 159.7c2.6679 3.4508 10.051 3.6595 11.882 0.85433-1.8157-1.0349-3.1405-2.5738-3.9299-4.3408-0.79158-1.7757-9e-3 -2.2375 0.98735-0.56776 0.88134 1.4751 2.2429 2.5532 3.8012 3.4313 1.3269 0.74727 1.487 1.129 0.68993 2.3218-2.2915 3.4281-10.684 3.6368-13.857-0.17504z"/>
  <path d="m104.22 141.71c3.799 0.79703 8.4914 1.1744 12.362 1.2209 1.4523 0.0184 1.9573 0.32335 1.6913 1.979-0.93218 5.7899-5.6234 11.441-10.762 12.374l-0.91489-1.2285c5.0243-0.70726 9.1715-6.4031 9.9772-11.395-3.6238-0.1275-8.6243-0.64454-11.609-1.3323z"/>
  <path d="m44.059 86.34c-3.3859-2.271-5.0265-7.8306-4.6436-13.177-8.4405 4.3452-12.126 18.959-2.3899 26.714 1.2199 0.97221 1.2253 1.4383-0.11896 2.0526-3.732 1.7032-7.4748 5.02-8.7454 7.5883 3.6465-1.2869 8.6665-2.4581 12.476-2.723 1.7411-0.12103 1.846 0.88027 0.09077 1.1063-3.3935 0.43581-7.8284 1.448-12.429 3.1242-2.0158 0.73536-2.5197 0.26915-1.7757-1.5475 1.4318-3.5016 6.3923-7.3623 9.4581-8.6362-10.436-8.0112-7.3764-24.147 3.0788-29.32 1.7314-0.85648 2.1282-0.60019 1.9163 1.3615-0.53635 4.9594 0.8457 9.6322 3.3146 11.95z"/>
  <path d="m40.427 107.33c-3.5298 8.4059 1.3226 18.556 8.9952 19.925-1.0846-3.6812-0.46932-8.7617 1.4848-12.191l0.93542 1.2599c-1.381 2.5057-1.8536 6.9038-0.85867 10.815 0.46071 1.8103 0.01539 2.0039-1.5832 1.7443-9.6604-1.567-13.911-13.031-10.508-21.401z"/>
  <path d="m60.676 137.94c-15.397-8.8439-27.615 2.1488-28.64 14.631-0.59478 7.2477-1.5324 9.7393-5.4806 16.072-4.0499 6.4939-5.4633 12.351-5.0167 21.433 0.16768 3.4097 1.9703 6.096 5.2752 6.2484 3.6206 0.16768 5.6083-1.3172 6.2928-5.7013 1.3193-8.4448 4.9032-15.029 10.27-18.479 5.5055-3.5384 8.5335-6.2203 10.009-11.775 0.59043-2.2223 1.4923-2.006 1.1246 0.25106-0.97217 5.9781-4.3559 9.4527-10.092 13.14-4.6014 2.9577-8.3356 9.2927-9.5565 17.11-0.88895 5.6807-4.0813 7.2282-8.1626 7.0368-4.1808-0.19251-6.7881-3.4984-6.999-7.7808-0.45096-9.1964 1.115-15.17 5.5856-22.34 3.3286-5.3368 4.5939-8.3496 5.1692-15.366 1.2426-15.107 15.342-24.531 30.802-16.304z"/>
  <path d="m49.472 168.67c4.6534 3.0669 12.489 4.8988 18.672 5.1281l0.42066 1.4935c-6.5437-0.0246-15.513-2.0417-20.386-5.3282z"/>
  <path d="m78.084 195.25c-1.1203-1.1344-1.9876-4.0207-3.0961-5.4082-4.4695-5.5964-8.6168-16.002-9.2883-24.703-0.17196-2.2321 0.82731-2.3229 1.1496-0.10693 1.2036 8.2956 5.1789 18.268 9.5587 23.719 1.1344 1.4112 2.0439 4.263 3.0453 5.2784 4.9929 5.0589 9.6733 4.9075 12.476 3.0042 2.3424-1.5908 2.3683-4.556-1.1301-7.5299-1.6795-1.4275-2.4624-2.3608-2.975-4.3754-2.0201-7.9203-4.2229-15.362-5.9283-20.516-0.74188-2.2418 0.19465-2.5467 1.0706-0.35364 2.0936 5.2395 4.476 12.551 6.548 20.47 0.43256 1.6546 0.85539 2.1466 2.431 3.4855 4.6826 3.9785 3.8401 8.1247 0.8792 10.135-3.3697 2.2904-9.031 2.683-14.741-3.0994"/>
  <path d="m42.398 173.97c2.1358 8.2253 6.0084 15.417 9.4711 18.028 5.9911 4.5171 12.532 0.5699 10.955-4.224-1.5421-4.6891-2.4332-9.9891-2.7425-14.243l-1.7378-0.38932c0.09724 4.4533 1.2198 10.315 2.7641 15.084 0.92245 2.8539-2.8939 6.3198-8.181 2.3326-3.0939-2.3337-6.6323-9.3067-8.8374-17.73z"/>
  <path d="m85.749 174.75c0.97006-1.6827 1.8309-3.2692 2.4851-4.6577l1.3583 1.196c-0.7862 1.7108-1.8622 3.6444-3.0648 5.6634z"/>
  <path d="m77.292 192.37c-1.6535 3.4973-5.0416 4.2716-8.0382 2.696-2.3099-1.2166-3.7558-3.0399-3.9202-5.525-0.18484-2.7609 1.3204-8.0252 3.7623-12.876l0.90299 2.3607c-1.6773 3.4432-3.0215 7.942-2.8528 10.467 0.10267 1.554 0.9376 3.0972 2.9458 4.1548 2.2969 1.2069 4.7615 0.53204 6.2636-3.2973z"/>
  <path d="m38.968 117.68c-2.2775-1.7065-4.901-2.4105-7.7224-2.4754-9.0407-0.20968-17.316-6.6313-16.486-15.668 0.13181-1.4469-0.39471-1.8611-1.9974-1.0684-19.076 9.43-11.555 42.57 8.7714 49.076l-1.0998 1.1528c-21.27-6.6659-29.01-41.673-8.1983-51.383 2.3553-1.0987 4.024-0.25413 3.786 2.3467-0.71266 7.7614 6.8011 13.837 15.24 14.033 2.7003 0.0628 5.3476 0.73427 7.491 2.0147z"/>
  <path d="m48.372 127.85c0.52236 2.0568 0.61969 4.1299 0.20661 6.0592l-1.5367 0.17964c0.49962-2.1834 0.22164-4.6685-0.66832-7.1017z"/>
  <path d="m31.425 151.03c-3.6811 0.98518-7.8662 5.9327-8.5075 8.7898-0.57964 2.5846-2.1574 2.6149-3.5114 0.68236-2.6625-3.8055-2.4029-11.029 2.5781-13.949 1.9466-1.1409 2.4548-0.24983 0.55803 0.97003-3.7731 2.4267-4.1894 8.9552-2.0342 12.256 0.65211 0.99924 0.96463 0.84998 1.1701-0.22071 0.68776-3.5881 5.6191-9.231 10.033-10.136z"/>
  <path d="m100.97 138.98c-2.3813-0.0184-2.3867-1.0976-6e-3 -1.1474 26.042-0.54503 52.076-17.91 52.758-46.565 0.64558-27.114-21.59-48.813-53.376-49.413-28.619-0.54504-52.481 17.225-55.595 44.543-0.25751 2.258-1.3593 2.0893-1.1744-0.18055 2.3034-28.328 26.299-46.35 56.803-45.778 33.257 0.62723 56.104 22.509 55.426 50.948-0.72129 30.331-28.026 47.806-54.837 47.593"/>
 </g>
 <path d="m113.19 41.792c13.805-21.391 38.091-34.797 43.502-33.199 9.6052 2.8376 14.546 50.406-0.71376 76.521-1.2901 2.2072-2.6203 2.2223-4.1278 0.79376-4.0975-3.8812-7.4467-15.111-5.4774-21.909 5.2784-18.218 4.4446-36.792 1.8254-37.546-2.6733-0.76994-17.027 11.174-21.947 19.667-0.34174 0.58829-0.64347 0.88352-1.0209 0.97545-2.4884 0.60344-9.7966-2.191-11.899-3.8336-0.62722-0.48989-0.64344-0.6932-0.14162-1.4707" fill="#50a035"/>
 <path d="m146.53 63.44c5.1-18.036 4.2608-36.237 1.6686-36.984-2.6733-0.76995-17.028 11.173-21.947 19.666-0.12232 0.21089-0.24002 0.37199-0.35684 0.51257 8.6286 3.9007 15.669 9.6917 20.636 16.805" fill="#d5e8c3"/>
 <path d="m129.79 126.16c3.3167 7.5678 1.82 13.819-1.0241 16.964 7.89 2.0017 18.347-10.069 16.087-19.895 3.5795 2.5359 8.4437 5.0848 11.639 5.9489-1.0263-4.5279-4.0597-9.7782-7.0866-12.628 16.267-4.2381 19.259-21.678 10.254-27.521 0 6.1392-7.0454 12.236-13.303 12.813-8.7617 0.80566-19.34 17.993-16.567 24.318" fill="#d5e8c3"/>
 <path d="m148.2 26.454c-2.6733-0.76995-17.028 11.174-21.947 19.667-0.12233 0.21091-0.24003 0.37199-0.35688 0.51151 0.8262 0.37417 1.6243 0.7808 2.4213 1.1885 5.18-5.4731 14.023-11.443 21.912-12.409-0.15449-5.2103-0.93434-8.6427-2.0287-8.9574" fill="#b8c9aa"/>
 <path d="m158.31 9.531c9.6744 28.55 2.1477 61.343-7.6337 75.023 0.38174 0.50825 0.77214 0.97543 1.1723 1.355 1.5075 1.4286 2.8376 1.4134 4.1278-0.79377 14.375-24.602 10.823-68.234 2.3337-75.584" fill="#448b2c"/>
 <g fill="#b8c9aa">
  <path d="m159.64 89.37c6.641 9.9426 1.0641 22.673-13.061 25.059 0.91706 0.47688 1.9941 1.2393 2.8322 2.1239 16.099-3.8488 19.437-22.083 10.229-27.183"/>
  <path d="m144.28 120.84c4.3765 1.8676 10.107 5.6115 12.145 8.3204-2.7133-0.96571-8.4005-3.36-11.574-5.9305-0.15695-0.74616-0.30287-1.4058-0.57098-2.3899"/>
  <path d="m144.29 120.84c-1.1182-0.45852-2.0655 0.0812-1.9108 1.5626 1.2901 12.284-7.3418 19.498-13.498 20.444 7.7344 2.2678 19.306-9.9437 15.409-22.007"/>
 </g>
 <g fill="#0f141b">
  <path d="m148.41 25.768c3.5806 0.98518 3.9148 20.808-1.2631 38.517-1.7941 6.1392 1.4653 17.385 5.2492 20.97 1.2631 1.196 1.8568 1.1139 2.8517-0.61208 15.096-26.2 9.6971-73.113 1.2047-75.278-4.8707-1.2415-28.333 11.437-42.264 32.359-0.42285 0.63479-0.40554 0.86189 0.22929 1.2479 2.4408 1.4837 7.6889 3.3048 9.8009 3.3405 0.63047 0.0116 0.95167-0.0758 1.3323-0.71805 5.698-9.616 19.868-20.65 22.859-19.827m2.8139 60.776c-4.3441-4.1159-7.8555-15.162-5.6796-22.816 5.3509-18.819 4.197-36.072 2.4386-36.582-1.9693-0.57315-15.781 10.698-20.977 19.437-0.65212 1.0955-1.3702 1.4729-2.6527 1.4448-3.3546-0.0745-9.204-2.0839-11.702-4.1516-0.78512-0.64994-0.91163-1.3853-0.24769-2.4429 13.646-21.727 38.626-35.152 44.55-33.582 10.294 2.7263 15.375 51.465-0.2995 77.716-1.5551 2.6052-3.5319 2.7728-5.4298 0.97654"/>
  <path d="m148.86 116.01c15.17-3.8185 18.355-19.387 11.48-25.455-0.89434 6.2463-8.3356 11.486-13.433 11.841-2.3943 0.16768-2.4646-0.86081-0.0855-1.1398 4.4814-0.5245 11.065-5.5369 11.922-11.214 0.30072-1.9963 0.72347-2.3175 2.4408-0.90298 8.2112 6.7653 4.6339 23.897-11.272 27.959z"/>
  <path d="m144.63 122.35c4.423 3.0085 7.955 4.794 10.703 5.592-1.1398-4.0716-4.6328-9.7674-7.7343-12.13-1.7865-1.3615-1.2534-2.1618 0.63588-0.94624 3.4357 2.2072 7.398 8.0858 8.8125 13.246 0.52446 1.9141 0.0919 2.1953-1.8233 1.5205-3.3221-1.1723-7.3818-3.3416-10.241-5.5964z"/>
  <path d="m128.71 141.82c2.6333-3.5925 2.9815-8.7238 0.87162-14.555-0.8143-2.2494 0.145-2.6127 1.0706-0.40769 2.6311 6.2701 2.5121 11.932-0.38713 15.668 6.7297 0.47475 16.316-10.73 13.832-19.955-0.57858-2.1466 0.40335-2.4018 1.0955-0.29428 3.3232 10.132-7.1028 22.977-15.672 21.822-1.7854-0.24124-1.8946-0.79809-0.81106-2.2775"/>
  <path d="m126.28 45.95c8.5065 3.8012 15.511 9.404 20.559 16.3l-0.57096 2.7641c-4.994-7.5851-12.296-13.767-21.301-17.832z"/>
 </g>
 <path d="m124.68 69.72c1.3291-5.7942 2.3218-12.502 1.1312-13.812-1.434-1.5767-20.48-1.9844-32.863 7.3428-4.5636-6.946-17.185-15.439-19.944-14.546-2.2807 0.73752-6.0527 8.0371-7.1439 14.466-6.0527 0.9127-13.951 6.787-14.943 8.8114-0.94946 1.9379-1.5356 14.638 4.0532 19.203 0.81106 4.3906 5.4114 8.0912 10.179 7.2736 1.9671 6.9308 7.2185 11.46 13.622 13.58 0.95381-4.144 3.1383-7.4737 3.7785-7.5115 0.65751-0.0389 4.3603 5.0827 5.578 8.9066 7.2553-0.10176 14.675-2.7912 19.875-8.0804 10.976 2.7987 30.577-13.114 30.985-20.035 0.1784-3.0366-7.4024-12.801-14.308-15.598" fill="#50a035"/>
 <path d="m76.875 82.65c-1.5681 10.54-8.3983 16.729-14.13 15.876-5.9035-0.8792-10.482-8.4372-8.8504-19.408 1.5486-10.41 8.1788-16.87 14.328-15.955 5.9748 0.88892 10.145 9.4592 8.6524 19.487" fill="#fff"/>
 <path d="m126.41 93.53c-5.8397 10.744-15.442 13.743-20.718 10.875-5.2665-2.8625-8.5832-13.756-2.8582-24.29 6.0581-11.144 15.417-13.821 21.274-10.637 5.7932 3.148 7.8078 13.923 2.3023 24.052" fill="#fff"/>
 <g fill="#ba6575">
  <path d="m69.514 63.5c-0.4207-0.14713-0.84894-0.26823-1.2912-0.33416-6.1501-0.91489-12.78 5.5456-14.329 15.955-0.12967 0.8781-0.20753 1.7259-0.26056 2.5586 0.1686 6.1706 3.0247 10.056 6.2539 10.856 5.379 1.3334 11.566-3.8812 13.574-11.985 1.9585-7.9009 0.10823-14.47-3.9472-17.051"/>
  <path d="m122.16 89.72c4.8772-8.3032 3.9645-17.636-0.6748-20.361-1.3226-0.77649-2.9263-1.0598-4.6501-0.92032-4.8264 0.8446-10.099 4.4933-14.004 11.676-2.098 3.8617-2.9782 7.77-2.9966 11.314 0.31363 3.5103 1.6427 6.4226 3.9494 7.7776 4.8145 2.8269 12.844-0.0671 18.377-9.4862"/>
  <path d="m79.158 92.42c-0.59046 0.64669 1.5519 3.7288 2.8409 3.8455 1.5789 0.14377 4.2478-2.2385 4.1624-3.0994-0.11029-1.0987-6.4009-1.4058-7.0033-0.74616"/>
 </g>
 <path d="m62.725 69.54c-0.71916 1.3745-2.0017 1.8546-2.7782 1.4491-0.81647-0.42716-1.2285-1.6989-0.47688-3.1361 0.60125-1.1485 2.019-1.7886 2.8582-1.3496 0.89 0.46606 1.0414 1.8038 0.39689 3.0366" fill="#fff"/>
 <path d="m70.729 86.84c-0.36877-2.9079-3.8402-4.0002-8.0901-2.6408-4.1581 1.3302-5.8937 3.8218-5.751 6.5448 0.90406 0.91381 1.9303 1.5248 2.9999 1.7898 3.799 0.94084 7.9928-1.3929 10.841-5.6937" fill="#dab2b6"/>
 <path d="m109.11 89.87c-5.3455 0.56668-8.1939 3.3156-7.8403 6.6259 0.64018 1.1582 1.4707 2.0991 2.5121 2.7111 3.7017 2.1736 9.3002 0.94949 14.207-4.0056 0.17842-3.0831-3.4129-5.911-8.8784-5.3314" fill="#dab2b6"/>
 <g fill="#0f141b">
  <path d="m66.873 77.39c-1.5183 4.8199-4.3019 6.4842-5.8938 5.9835-1.9303-0.60883-2.5532-3.9353-1.102-8.5432 1.4199-4.5074 3.8801-6.668 5.8645-6.043 1.8871 0.59476 2.4895 4.2911 1.1312 8.6027"/>
  <path d="m114.82 85.11c-2.4581 5.06-5.3941 6.1911-7.1222 5.3509-1.9693-0.95597-2.3759-4.835-0.29858-9.111 1.9844-4.0834 5.2882-6.1414 7.2023-5.2124 1.8893 0.91812 2.4246 4.4316 0.21857 8.9726"/>
  <path d="m54.232 81.17c-0.07138 6.7405 3.3362 10.118 5.818 10.733 4.1992 1.0425 10.373-2.5835 12.606-11.587 1.7692-7.146 0.31902-14.793-4.49-16.824l2.7619 0.14714c3.6995 3.134 5.1022 9.8766 3.307 17.118-2.2418 9.0494-9.2927 13.708-14.519 12.414-3.3708-0.83595-5.8916-4.1765-6.6151-9.0634z"/>
  <path d="m54.772 79.28c-1.62 10.894 3.1221 17.78 8.0652 18.515 4.8523 0.7159 11.471-4.4457 13.083-15.284 1.474-9.9145-2.9058-17.848-7.8133-18.578-5.2071-0.77212-11.804 5.0556-13.335 15.346m22.995 3.5211c-1.6686 11.222-8.9953 17.398-15.151 16.478-7.1136-1.0566-11.171-9.8377-9.6149-20.298 1.6373-10.998 8.6514-17.577 15.339-16.577 6.6302 0.98516 10.973 10.006 9.4267 20.398"/>
  <path d="m118.4 67.82c1.2458 0.0908 2.4711 0.40553 3.4519 0.98193 5.0675 2.9771 5.9857 12.853 0.9895 21.359-5.5801 9.5024-14.042 12.768-19.395 9.6268-1.9552-1.1485-3.2832-3.4973-3.8888-5.9305l0.83376-4.9216c-0.29858 4.7334 1.2804 8.2697 3.7277 9.7069 4.0575 2.3834 11.664 0.28968 17.341-9.377 4.848-8.2502 3.5449-17.112-0.31687-19.38-1.2826-0.75377-2.8722-1.0209-4.6328-0.80567z"/>
  <path d="m126.41 93.53h9e-3zm-22.804-13.008c-5.6645 10.424-2.2493 20.687 2.4581 23.244 4.5787 2.4862 13.625 0.23665 19.55-10.662 5.4547-10.038 3.3178-20.101-1.8946-22.935-4.9518-2.6906-14.015-0.86623-20.113 10.352m23.576 13.436c-6.3825 11.742-16.903 13.828-21.833 11.148-5.7856-3.1448-9.1823-14.755-3.3697-25.447 6.3166-11.623 16.422-14.159 22.491-10.86 6.4896 3.5276 8.3313 14.818 2.7111 25.158"/>
  <path d="m79.702 92.83c-0.21519 0.24647 1.3226 2.7771 2.3402 2.8539 1.328 0.1006 3.4833-2.0158 3.3957-2.4137-0.11042-0.49857-5.3584-0.87164-5.7359-0.44018m2.2364 4.0056c-1.7194-0.15572-4.3581-3.6995-3.2962-4.8491 0.92786-1.0046 8.1355-0.62833 8.2102 1.0976 0.0628 1.4361-3.1026 3.919-4.914 3.7514"/>
  <path d="m82.559 103.69c1.2523-0.0367 5.1941 5.671 6.216 9.868 0.35471 1.4588-0.58182 1.6924-1.0814 0.32767-1.3896-3.7904-4.7042-8.4935-5.1551-8.4848-0.40231 6e-3 -2.3662 3.2854-3.2789 7.0455-0.345 1.4188-1.3258 1.2069-1.1117-0.23787 0.65532-4.4155 3.2983-8.4848 4.4111-8.5184"/>
 </g>
 <path d="m113.41 75.52c-0.96575 1.142-2.5814 1.3572-3.4238 0.64454-0.77861-0.6586-0.99706-2.1164 0.0996-3.413 0.94407-1.116 2.6516-1.3356 3.4335-0.67479 0.89 0.75266 0.8132 2.3532-0.10913 3.4432" fill="#fff"/>
</svg>
