<?xml version="1.0" encoding="UTF-8"?>
<!-- Created with Inkscape (http://www.inkscape.org/) -->
<svg version="1.1" viewBox="0 0 269.27 293.29" xmlns="http://www.w3.org/2000/svg">
 <g transform="translate(23.872 1.2928)" stroke-width="1.6204">
  <path d="m88.892 233.43c-7.7178 8.8829-21.339 12.828-27.498 10.247a88.973 88.973 0 0 0 7.8053-10.382 18.438 18.438 0 0 1-6.3065-2.1372c-2.2329 2.1389-4.8303 4.3993-7.6498 6.6807 5.0458 7.9042 5.6227 17.323-0.67569 24.978-7.5801 9.2166-15.624 14.622-23.029 16.852a25.051 25.051 0 0 1-11.505 0.86855 19.282 19.282 0 0 1-5.9597-2.0514 29.944 29.944 0 0 0 3.0787 3.4675c8.5118 8.2444 19.065 9.2264 28.857 3.1954 12.326-7.593 33.827-27.87 42.104-42.152 1.2638 0.12976 2.5278 0.22353 3.7916 0.30316a31.733 31.733 0 0 1-3.0155-9.868" fill="#b8c9aa" data-name="パス 11132"/>
  <path d="m153.95 117.62c-14.687-38.774-67.398-53.495-106.24-38.281-44.699 17.51-62.592 62.896-49.715 97.938-5.8236-0.67403-12.051-7.2738-14.394-16.366-7.1183 20.645 0 36.849 14.47 40.271a35.666 35.666 0 0 0-6.1055 15.35 100.65 100.65 0 0 1 13.378-9.2199c-1.1521 15.393 7.7194 23.789 23.379 24.605a18.333 18.333 0 0 1-0.72754-19.918 74.258 74.258 0 0 0 49.729 7.7486c-0.71619 3.124-0.62221 6.1039-0.073 6.3518 1.2039 0.54138 7.4067-2.168 11.804-5.9629 1.8667 7.2268 5.5416 12.179 7.6481 11.684 1.9234-0.45196 4.1546-9.8178 4.516-16.562 9.484 3.5826 16.528 1.1343 17.406-0.72264 0.5169-1.0986-1.3578-4.4657-7.9495-6.2628 3.9181-2.4014 8.7143-5.7588 12.42-8.3481 28.559-19.945 41.78-52.391 30.45-82.302" fill="#d5e8c3" data-name="パス 11133"/>
  <path d="m239.58 206.27c-2.6104-13.052-16.413-25.949-28.94-30.588a17.176 17.176 0 0 1-6.778-4.4885 148.34 148.34 0 0 0-15.295-13.921 21.04 21.04 0 0 0-16.366-4.7801 26.383 26.383 0 0 1-6.7731 5.9694s-24.265 25.49-24.221 25.231a89.008 89.008 0 0 1-17.707 16.225c-3.7058 2.5926-8.502 5.9467-12.42 8.3481 6.5917 1.797 8.4665 5.1641 7.9496 6.2628-0.87337 1.8554-7.922 4.3053-17.406 0.72266-0.36133 6.7456-2.5926 16.111-4.5159 16.562-2.1065 0.49422-5.7814-4.456-7.6481-11.683-4.3961 3.7949-10.6 6.5042-11.804 5.9614-0.54928-0.2462-0.64815-3.2278 0.073-6.3519a75.145 75.145 0 0 1-23.878 0.72266 17.427 17.427 0 0 0 9.2831 10.469c-10.301 9.9426-28.58 22.654-40.956 27.642-11.962 1.4584-16.62 12.153-5.0231 23.377 8.5118 8.2444 19.065 9.2263 28.857 3.197 12.326-7.5931 33.828-27.87 42.104-42.152a93.299 93.299 0 0 0 27.003-1.0403 221.56 221.56 0 0 1-9.8584 21.608c-11.484 8.7241-8.2412 26.328 10.793 27.06 16.528 0.64004 24.586-3.3169 28.948-19.542 3.7884-14.097 5.6357-31.309 6.2579-45.596a110.33 110.33 0 0 0 22.115-23.434c8.4858 6.5317 24.129 5.9954 34.261-0.87014a24.644 24.644 0 0 1 16.466 11.77c2.1778 4.5889 6.5042 5.8236 11.631 3.3882 4.4398-2.1065 4.7914-5.3472 3.8467-10.074" fill="#d5e8c3" data-name="パス 11134"/>
  <path d="m130.21 218.94c9.1389-6.624 14.856-17.278 11.036-26.208-6.6241 5.1852-23.247 14.995-30.173 15.538 6.5917 1.797 8.4664 5.1641 7.9496 6.2628-0.87338 1.8554-7.922 4.3053-17.404 0.72266-0.36133 6.7456-2.5925 16.111-4.5159 16.562-2.1065 0.49607-5.7815-4.456-7.6482-11.683-4.396 3.7933-10.6 6.5042-11.804 5.9613-0.54603-0.24619-0.64815-3.205 0.0649-6.3194a86.545 86.545 0 0 1-23.907 0.7308 19.632 19.632 0 0 0 15.394 12.79 89.059 89.059 0 0 1-7.8086 10.383c6.1574 2.5812 19.778-1.3644 27.498-10.247 1.8116 12.086 7.8652 17.515 13.154 18.31 4.8174-5.6 7.5283-14.514 7.2269-22.403 10.78 5.9014 27.101 0.96415 31.015-9.8842a29.611 29.611 0 0 1-10.074-0.53158" fill="#50a035" data-name="パス 11135"/>
  <path d="m150.63 210.42c-1.2574 19.668-7.1199 46.411-17.101 63.993a16.981 16.981 0 0 1-9.4727 7.3451 31.077 31.077 0 0 1-12.197 1.5166c-5.1851-0.36621-10.046-1.959-13.029-4.631 1.1018 6.4815 6.556 12.66 20.504 12.255 10.502-0.30499 20.454-1.5248 25.668-19.806 3.918-13.733 7.3014-40.76 5.6276-60.673" fill="#b8c9aa" data-name="パス 11136"/>
  <path d="m188.57 157.28c2.9329 2.3252 5.7183 4.699 8.4924 7.2527 8.3481-4.0088 19.747-0.28539 23.134 6.5155 1.0014 2.0109 2.3771 2.1405 3.7868 0 2.5553-3.8889 0.48627-11.109-4.5889-14.659 32.01-11.062 30.524-68.822 8.6949-78.136-3.7026-1.5799-5.331-0.4489-4.9762 4.3069 0.81017 10.916-7.2916 21.828-20.347 24.878-23.035 5.3829-31.667 29.304-23.155 45.422a20.903 20.903 0 0 1 8.9574 4.4237" fill="#d5e8c3" data-name="パス 11137"/>
  <path d="m124.8 284.98a5.1414 5.1414 0 0 1-4.537 5.7216c-3.4028 0.53954-7.6157-0.57201-9.053-3.1176-2.1308-3.7544 1.0678-7.2787 5.3472-7.8944 4.5775-0.65952 8.1893 1.4389 8.2395 5.2905" fill="#ba6575" data-name="パス 11138"/>
  <path d="m124.8 284.98a5.1414 5.1414 0 0 1-4.537 5.7216c-3.4028 0.53954-7.6157-0.57201-9.053-3.1176-2.1308-3.7544 1.0678-7.2787 5.3472-7.8944 4.5775-0.65952 8.1893 1.4389 8.2395 5.2905" fill="#ba6575" data-name="パス 11139"/>
  <path d="m111.21 287.58c1.4437 2.544 5.6519 3.6556 9.053 3.1159a5.1398 5.1398 0 0 0 4.537-5.7215 5.062 5.062 0 0 0-1.0613-3.1257 31.199 31.199 0 0 1-11.881 1.4162c-0.27681-0.0183-0.54934-0.0551-0.82309-0.0827a4.4528 4.4528 0 0 0 0.17515 4.396" fill="#a15665" data-name="パス 11140"/>
  <path d="m110.33 277.58c0.30316 1.878-0.94141 3.1484-2.9005 3.4644a3.1565 3.1565 0 0 1-3.8159-2.5926c-0.2315-1.4356 0.59159-2.9798 2.8697-3.2812a3.0463 3.0463 0 0 1 3.8467 2.4111" fill="#ba6575" data-name="パス 11141"/>
  <path d="m119.36 274.5a3.1387 3.1387 0 0 1-2.6396 3.8776 3.1176 3.1176 0 1 1-1.4048-6.0748 3.1808 3.1808 0 0 1 4.0509 2.1989" fill="#ba6575" data-name="パス 11142"/>
  <path d="m88.892 233.43c-7.7178 8.8829-21.339 12.828-27.498 10.247a88.973 88.973 0 0 0 7.8053-10.382 18.438 18.438 0 0 1-6.3065-2.1372c-2.2329 2.1389-4.8303 4.3993-7.6498 6.6807 5.0458 7.9042 5.6227 17.323-0.67569 24.978-14.324 17.414-30.301 21.227-40.498 15.664a29.944 29.944 0 0 0 3.0787 3.4676c8.5118 8.2444 19.065 9.2264 28.857 3.1954 12.326-7.5931 33.827-27.87 42.104-42.152 1.2639 0.12977 2.5278 0.22354 3.7917 0.30315a31.733 31.733 0 0 1-3.0155-9.8681" fill="#b8c9aa" data-name="パス 11143"/>
  <path d="m128.73 276.97a3.2116 3.2116 0 0 1-4.3198 1.7549 3.0787 3.0787 0 0 1-2.0611-3.8014 3.1759 3.1759 0 0 1 4.1368-1.7824 2.9312 2.9312 0 0 1 2.2442 3.8306" fill="#ba6575" data-name="パス 11144"/>
  <path d="m31.102 287.4c-1.9688 1.7548-5.6454 1.212-8.3984-1.8715-2.6704-2.9928-2.6914-6.7456-0.64815-8.5637 2.1616-1.9282 5.6875-1.2072 8.5086 1.9558 2.8211 3.1629 2.3625 6.8574 0.54285 8.4794" fill="#ba6575" data-name="パス 11145"/>
  <path d="m31.194 279.77a25.185 25.185 0 0 1-10.576 0.8653 7.7437 7.7437 0 0 0 2.0854 4.8968 9.6444 9.6444 0 0 0 1.6771 1.4713 21.703 21.703 0 0 0 3.9423 1.3919 4.1271 4.1271 0 0 0 2.7806-0.99005c1.6592-1.481 2.1486-4.6893 0.09232-7.6352" fill="#a15665" data-name="パス 11146"/>
  <g fill="#ba6575">
   <path d="m33.688 270.44c1.5572 1.7402 1.7824 3.7139 0.67084 4.6991-1.0079 0.90259-3.0625 0.58977-4.6407-1.1748-1.5134-1.6916-1.6496-3.8144-0.64816-4.7169 0.87177-0.77944 2.9766-0.63357 4.61 1.191" data-name="パス 11147"/>
   <path d="m22.729 269.52c1.8132 1.7403 2.066 3.7722 1.1748 4.699-0.82801 0.86206-2.8259 0.82316-4.7266-0.99971-1.8359-1.7614-2.0352-3.9132-1.2574-4.7234 0.85231-0.88794 3.0009-0.70966 4.8076 1.0241" data-name="パス 11148"/>
   <path d="m15.248 272c1.3822 1.844 1.3757 3.3509 0.45857 4.038-0.7243 0.54261-2.3398 0.12493-3.641-1.6107-1.2509-1.669-1.2817-3.3071-0.44559-3.9326 0.7-0.52362 2.3998-0.13287 3.628 1.5069" data-name="パス 11149"/>
  </g>
  <path d="m51.462 77.979c-20.83-29.599-57.256-46.362-62.06-42.539-14.167 11.286-19.007 76.157 5.3213 107.81 4.8757-32.872 29.291-56.065 56.732-65.275" fill="#50a035" data-name="パス 11150"/>
  <path d="m25.557 91.78c-7.7583-11.879-29.215-27.673-31.325-26.179-3.662 2.5926-4.443 35.996 6.9822 56.254a81.861 81.861 0 0 1 24.343-30.076" fill="#d5e8c3" data-name="パス 11151"/>
  <path d="m8.0392 73.888c-6.7035-5.3602-12.739-9.0449-13.809-8.2866-3.662 2.5926-4.4414 35.996 6.9822 56.254q0.97222-2.0822 2.0887-4.1239c-6.6111-20.203-4.166-40.289 4.738-43.842" fill="#b8c9aa" data-name="パス 11152"/>
  <path d="m-7.8923 34.931c20.133 12.354 40.527 29.206 51.573 46.077q3.8354-1.7014 7.7778-3.0285c-18.531-26.333-49.386-42.491-59.352-43.048" fill="#448b2c" data-name="パス 11153"/>
  <g fill="#b8c9aa">
   <path d="m141.18 183.33a98.447 98.447 0 0 1-30.236 24.317c6.8185 0 22.661-8.6107 30.301-14.92a18.885 18.885 0 0 1 0.12011 11.767l1.8651 0.19291a25.451 25.451 0 0 0-2.0578-21.358" data-name="パス 11154"/>
   <path d="m-16.001 162.17c-1.8796 15.129 2.4792 31.921 15.834 36.575a21.92 21.92 0 0 0-1.7322 2.3512c-14.729-2.1065-21.672-22.685-14.097-38.926" data-name="パス 11155"/>
   <path d="m-7.7837 216.35a30.562 30.562 0 0 1 12.211-12.425c2.0238-1.0938 3.5907 0.18496 3.3266 2.3106a67.462 67.462 0 0 0-15.538 10.114" data-name="パス 11156"/>
   <path d="m29.383 211.53c-2.2167-1.1845-4.1449-0.93657-5.1674 0.53343-4.1562 5.9711-2.9669 16.596 3.8889 19.376-3.3185-4.8708-4.1498-16.734 1.285-19.91" data-name="パス 11157"/>
   <path d="m118.64 231.75a24.344 24.344 0 0 1-9.3625-2.3998 34.01 34.01 0 0 1-2.126 13.394c2.1162-0.14392 5.775-0.57507 8.0354-0.97222 1.212-3.4935 2.3836-7.0081 3.4514-10.028" data-name="パス 11158"/>
   <path d="m151.45 211.68a109 109 0 0 0 18.463-13.499 19.227 19.227 0 0 0 3.4579 3.8759c-4.8498 7.1102-14.259 17.613-22.223 23.243 0.27253-3.965 0.39379-10.019 0.30314-13.621" data-name="パス 11159"/>
   <path d="m173.38 202.06a123.87 123.87 0 0 1-8.1213 10.234c3.0674 5.1852 8.588 7.794 12.566 6.4118 5.2305-1.8197 7.3419-6.9822 6.3826-12.401a23.231 23.231 0 0 1-10.827-4.247" data-name="パス 11160"/>
   <path d="m169.31 196.36c10.101 7.6352 23.732 7.9836 37.014 0.27559a4.6991 4.6991 0 0 1 4.699-0.47647 29.954 29.954 0 0 1 16.653 14.514c2.1292 4.0914 8.5426 4.2794 12.213 0.35152a7.5169 7.5169 0 0 1-4.1611 5.3181c-5.0426 2.5748-10.022 0.90413-11.631-3.3882-1.8699-4.9843-10.931-11.505-16.466-11.77-15.556 10.255-34.362 5.4056-38.325-4.8239" data-name="パス 11161"/>
   <path d="m240.58 93.207c1.7824 39.746-31.506 59.111-57.011 60.974a23.819 23.819 0 0 1 5.0037 3.0949c2.9345 2.3268 5.7183 4.6991 8.4923 7.2528 8.3482-4.0088 19.747-0.28661 23.132 6.5154 1.0014 2.0109 2.3771 2.1421 3.7868 0 2.5553-3.8889 0.48627-11.109-4.5873-14.659 23.865-8.2477 29.102-42.442 21.182-63.175" data-name="パス 11162"/>
  </g>
  <g fill="#0d131a">
   <path d="m123.22 198.94c28.442-21.149 39.968-52.184 29.155-80.725-14.659-38.701-67.106-52.393-104.24-37.842-45.724 17.912-65.345 68.38-45.09 105.77 2.0303 3.7479 0.59307 4.55-1.5393 0.85882-21.373-36.965-3.3866-89.402 45.824-108.68 39.926-15.637 93.131-0.74373 108.11 38.787 11.069 29.227-0.56526 62.327-31.179 83.305-3.7074 2.5407-4.8465 1.3594-1.0322-1.4762" data-name="パス 11163"/>
   <path d="m50.162 78.444c-21.313-29.329-56.736-44.884-60.098-41.998-12.867 11.041-17.63 73.937 4.9211 104.97l-0.50396 3.5373c-25.984-32.004-20.997-98.023-5.8674-110.46 5.8333-4.7882 43.624 12.699 64.116 43.079z" data-name="パス 11164"/>
   <path d="m0.51092 123.19c-12.096-20.036-11.545-55.159-6.9222-58.468 3.1079-2.2248 24.821 13.582 32.893 26.315l-1.8893 1.5685c-8.5669-12.895-28.518-26.833-29.906-26.031-2.8016 1.6204-3.3882 34.339 7.175 53.929z" data-name="パス 11165"/>
   <path d="m-2.5289 202.07c-14.178-3.4692-22.56-18.994-15.51-40.185 1.2412-3.7268 2.228-3.4027 3.2861 0.18618 2.3123 7.8377 7.6417 13.125 12.373 14.128l0.77616 2.173c-6.0569-0.48626-12.07-5.6713-14.718-13.36-4.887 17.468 1.7613 32.198 15.128 35.288z" data-name="パス 11166"/>
   <path d="m-8.9909 214.79a33.995 33.995 0 0 1 6.9044-14.907c1.7468-2.1276 3.0187-1.1991 1.4259 1.0468a35.083 35.083 0 0 0-5.5757 12.733 65.341 65.341 0 0 1 11.71-7.4391c2.484-1.2461 3.2407 0.20273 0.82314 1.575a86.938 86.938 0 0 0-12.072 8.5005c-3.2116 2.612-3.8889 2.087-3.218-1.5086" data-name="パス 11167"/>
   <path d="m6.3896 206.81c-1.1683 14.118 6.7521 22.523 20.018 23.704a19.606 19.606 0 0 1 0.16204-18.31c0.8102-1.306 1.2963-1.4389 2.9718-0.59772 18.215 9.1356 37.469 10.844 59.996 4.4592 3.8046-1.0776 4.247 0.42318 0.43421 1.669-22.471 7.3386-44.147 5.6291-61.605-4.3847a18.111 18.111 0 0 0 0.5347 16.659c1.6042 2.7708 1.1586 3.2408-1.8116 3.0268-15.157-1.0856-23.981-9.7724-22.847-25.184z" data-name="パス 11168"/>
   <path d="m128.95 218.55c8.7581-6.7618 13.964-15.543 11.636-23.657-5.9954 4.503-17.986 11.462-25.788 13.69 4.2583 1.7727 6.065 4.7428 5.3715 6.4167-1.0224 2.4695-8.5766 4.6829-17.613 1.6641-0.44218 6.2708-2.4856 15.953-5.1592 16.375-2.7012 0.42808-6.3194-3.6944-8.5183-11.082-3.9521 3.1144-9.8842 6.266-11.829 5.1641-1.2056-0.68542-1.34-4.5078-0.48613-7.3241l2.4597-0.32397a10.007 10.007 0 0 0-0.63357 5.5384c0.51363 0.41644 5.5255-1.6819 9.6088-5.0588 1.319-1.0905 2.1729-1.3546 2.7805 0.99495 1.6204 6.2854 4.8514 9.8842 6.0521 9.6347 1.1537-0.24312 3.3607-7.9722 3.6507-14.491 0.0827-1.8602 0.38889-2.1875 2.6201-1.4324 8.6009 2.9069 14.28 0.54935 14.734-0.58975 0.30621-0.76964-1.7095-3.2732-5.8528-4.4106-3.4546-0.9479-2.9766-2.1276 0.30314-2.7789 7.235-1.4405 19.472-8.75 26.788-14.212 2.4063-1.7954 3.1014-1.4584 3.9229 1.0468 3.0512 9.3123-3.2197 19.516-11.39 25.464z" data-name="パス 11169"/>
   <path d="m100.82 252.82c-5.5741-1.5231-11.634-7.3791-12.963-20.287-0.32397-3.1468 1.238-3.3477 1.7306-0.22171 1.8942 12.012 7.4358 17.003 11.94 17.994a33.423 33.423 0 0 0 6.7084-20.01c0.0367-2.1389 0.50526-2.2685 2.5375-1.3449 9.4986 4.3491 23.126 0.19598 27.384-8.0144a26.736 26.736 0 0 1-11.018-1.9979c-2.6866-1.2963-2.1664-2.6266 0.63189-1.6009a24.612 24.612 0 0 0 10.887 1.0403c3.035-0.36806 3.5907 0.16221 2.3317 2.9329-4.6651 10.276-20.298 14.494-30.665 9.6882a34.739 34.739 0 0 1-6.8428 21.003 2.0157 2.0157 0 0 1-2.6542 0.81826" data-name="パス 11170"/>
   <path d="m89.106 234.77c-6.59 7.9026-19.796 12.585-27.033 10.628-2.3479-0.63521-2.5586-1.6544-0.81019-3.6053a87.931 87.931 0 0 0 8.0014-10.255c1.3968-2.0789 2.6914-1.2866 1.4843 0.90901a61.488 61.488 0 0 1-7.0616 10.521c6.5625 1.1877 18.103-2.7805 25.041-10.903z" data-name="パス 11171"/>
   <path d="m55.215 220.56a18.706 18.706 0 0 0 14.468 11.809l-1.1812 1.8634a20.417 20.417 0 0 1-16.241-13.95z" data-name="パス 11172"/>
   <path d="m64.187 231.84c-10.009 9.6655-28.173 22.47-41.157 27.686a3.8889 3.8889 0 0 1-1.1197 0.30314c-10.814 1.5799-14.162 11.313-3.8889 21.267 7.9204 7.6708 18.206 8.4259 27.222 2.868 13.365-8.2428 34.332-28.175 42.63-42.345 1.9152-3.2683 3.2748-2.4986 1.5507 0.86529-7.5299 14.708-29.664 35.821-42.757 43.884-9.5488 5.8852-20.647 5.9954-30.482-3.534-11.829-11.458-7.9398-23.768 5.7199-25.506 12.837-5.2128 30.131-17.6 39.699-27.007z" data-name="パス 11173"/>
   <path d="m151.33 223.89a110.05 110.05 0 0 0 21.227-22.523l1.7338 1.332a110.3 110.3 0 0 1-23.157 24.537z" data-name="パス 11174"/>
   <path d="m107.45 241.49q4.3086-0.38583 8.481-1.1829l-1.1343 2.8826q-4.0071 0.67568-8.1018 0.98036z" data-name="パス 11175"/>
   <path d="m92.374 244.16q-2.3528-0.17032-4.7266-0.4489l1.3109-2.4306q1.1148 0.11821 2.2232 0.21068z" data-name="パス 11176"/>
   <path d="m103.47 264.39a201.41 201.41 0 0 0 13.877-32.691l2.7546 0.12804a180.62 180.62 0 0 1-12.963 30.544z" data-name="パス 11177"/>
   <path d="m116.06 291.93c-22.048-0.85391-23.777-21.591-10.148-29.917 2.8907-1.7662 3.7171-0.47462 0.9544 1.4843-11.667 8.2752-8.3968 25.203 9.2604 25.885 14.869 0.56527 23.231-2.9069 27.457-18.625 5.2062-19.367 6.8897-43.792 7.0097-59.754 0.0307-3.7268 1.6302-3.743 1.7825-0.0121 0.66435 16.434-0.83131 41.016-6.0813 60.54-4.1368 15.384-10.978 21.159-30.233 20.4" data-name="パス 11178"/>
   <path d="m185.61 206.4c0.83772 6.4718-1.7921 11.531-7.4537 13.499-4.9454 1.7257-11.245-1.9526-13.862-6.5657l1.8861-2.1065c2.9167 5.203 7.6789 7.5833 11.333 6.3194 4.5905-1.5977 6.2854-6.3923 5.203-11.485z" data-name="パス 11179"/>
   <path d="m168.92 198.52c-1.4583-2.4873-0.16238-3.3817 1.5005-1.0225 6.7926 9.6801 26.25 10.268 37.735 2.2102 2.6169-1.8375 3.4222-0.53955 0.95929 1.5004-11.936 9.8843-32.999 9.5197-40.195-2.6898" data-name="パス 11180"/>
   <path d="m173.19 151.22a21.541 21.541 0 0 1 16.134 5.122 129.63 129.63 0 0 1 15.393 14.097 13.972 13.972 0 0 0 6.3194 4.153c12.658 4.6893 26.987 17.037 29.873 31.456 1.2104 6.057 0.0428 9.0465-4.7493 11.323-6.2563 2.9766-11.129 0.94956-13.394-3.824-2.1243-4.4755-9.2701-10.939-16.651-11.26l2.9085-2.1065c5.694 0.99812 13.611 6.7618 16.183 12.18 1.8358 3.8678 5.1106 5.2468 9.9863 2.9312 2.7919-1.3255 4.085-3.4027 3.0042-8.8067-2.5926-12.939-16.819-25.568-27.955-29.692a17.954 17.954 0 0 1-7.3759-4.8708 131.67 131.67 0 0 0-15.133-13.733c-4.6148-3.6605-8.8812-5.0961-16.406-4.367z" data-name="パス 11181"/>
   <path d="m218.39 155.6c31.059-10.571 30.265-67.108 9.2734-76.457-2.8697-1.2785-3.8322-0.54935-3.5421 3.3314 0.91876 12.265-7.768 22.964-21.146 26.088-20.328 4.7509-31.362 27.106-21.912 44.672l-2.8113-0.52668c-8.5524-16.92 0.0973-40.751 24.289-46.404 11.667-2.7287 20.366-12.978 19.566-23.682-0.41952-5.6195 1.8488-7.1831 6.4086-5.3051 22.706 9.3431 24.843 68.201-8.1019 79.913z" data-name="パス 11182"/>
   <path d="m196.12 163.63c8.5718-4.2405 21.198-0.8199 24.941 6.9676 0.56711 1.1796 1.1537 1.3206 2.0822-0.13598 2.4743-3.8889-0.75995-13.386-8.5653-15.173-2.7724-0.63513-2.5586-2.087 0.26273-1.7079 9.1454 1.2283 13.82 12.2 9.9653 18.014-1.912 2.8827-4.1984 2.403-5.5092-0.10043-3.2505-6.1833-13.66-9.6331-21.402-6.0893z" data-name="パス 11183"/>
  </g>
  <path d="m181.33 167.26c-3.0933-4.3961-9.3722-7.4861-15.938-8.9542 16.233-8.2638 17.939-36.743-1.097-46.087a31.096 31.096 0 0 1-13.287 27.292c-16.69 11.518-20.47 32.556-12.456 40.571 4.4042 4.4041 8.4259 14.47 4.3037 26.65 16.414-2.497 28.032-20.721 17.798-36.731 7.8993 0.6482 16.066-0.52668 20.666-2.7416" fill="#d5e8c3" data-name="パス 11184"/>
  <path d="m59.437 75.677c9.8-37.824 45.947-75.725 57.147-75.738 7.9122-0.01225 41.739 51.314 32.511 104.4-0.76487 4.4009-4.5792 4.3038-7.7778 2.1065-3.1986-2.1972-11.697-8.7662-14.194-13.464a17.847 17.847 0 0 1-2.2896-11.539c1.5718-19.653-7.41-48.475-12.456-49.18-6.0359-0.84098-27.169 21.248-32.511 40.937-0.93496 3.4482-3.1678 4.2503-10.806 4.3037-8.4875 0.0618-9.8178-1.0565-9.6169-1.831" fill="#50a035" data-name="パス 11185"/>
  <path d="m124.72 84.809a30.226 30.226 0 0 1 0.10526-3.3623c1.5718-19.655-7.41-48.477-12.456-49.18-6.0358-0.84257-27.169 21.248-32.511 40.937-0.0245 0.0894-0.049 0.1623-0.0796 0.25293a91.677 91.677 0 0 1 44.941 11.352" fill="#d5e8c3" data-name="パス 11186"/>
  <path d="m112.37 32.267c-6.0359-0.84098-27.169 21.248-32.511 40.939-0.0245 0.0894-0.049 0.16229-0.0796 0.25293q2.9167 0 5.8171 0.16229c15.859-28.651 28.183-35.235 35.144-25.057-2.6314-9.1535-5.9532-15.959-8.3724-16.298" fill="#b8c9aa" data-name="パス 11187"/>
  <path d="m118.45 0.5871c17.445 29.005 32.106 74.524 21.963 105.23 4.1757 3.2408 7.896 3.069 8.6851-1.4713 8.6269-49.627-20.365-97.708-30.648-103.75" fill="#448b2c" data-name="パス 11188"/>
  <g fill="#b8c9aa">
   <path d="m164.36 112.94c14.996 16.443 11.252 34.454-3.6296 44.272a27.561 27.561 0 0 1 4.6667 1.1003c16.056-6.6095 18.548-36.654-1.0371-45.37" data-name="パス 11189"/>
   <path d="m156.6 169.7c-0.83614-1.4584 0.0613-2.8032 2.1615-2.6283a124.76 124.76 0 0 0 22.453-0.45686c-4.1514 3.2408-17.247 4.793-24.615 3.0787" data-name="パス 11190"/>
   <path d="m156.6 169.7c8.622 16.16 0.58669 28.1-14.28 36.831 18.991-2.8 28.321-21.917 18.351-36.534a23.009 23.009 0 0 1-4.0704-0.29641" data-name="パス 11191"/>
  </g>
  <g fill="#0d131a">
   <path d="m163.83 157.97c15.701-7.3873 18.205-33.396 1.6446-43.776a29.977 29.977 0 0 1-13.997 26.034c-3.3201 2.0352-4.0201 0.84589-0.93658-1.4583a30.571 30.571 0 0 0 12.511-24.769c0.0875-3.0009 0.51505-3.7722 3.4514-2.0741 18.278 10.571 15.889 38.583 0.33683 46.743z" data-name="パス 11192"/>
   <path d="m158.84 170.69c-3.1419-0.50402-3.0058-2.0465 0.16221-1.7549a48.221 48.221 0 0 0 20.345-2.1372c-3.2408-3.6944-9.5246-6.6856-16.576-8.1019-3.1532-0.63521-2.8827-2.1373 0.30437-1.7257 7.0826 0.9155 14.219 4.012 18.232 8.2979 2.1567 2.3025 1.878 2.6671-0.92525 3.6928a46.803 46.803 0 0 1-21.551 1.7305" data-name="パス 11193"/>
   <path d="m161.86 170.02c10.062 16.055-1.0354 34.107-16.891 37.593-3.5908 0.78912-3.7625 0.47647-2.8016-2.8421 3.2408-11.181-0.28846-20.146-4.1838-24.041-2.3803-2.382-1.4583-3.4514 1.1343-1.3174 5.1625 4.2324 8.5507 14.306 5.5092 25.704 14.12-3.4287 24.881-20.052 14.765-35.28z" data-name="パス 11194"/>
   <path d="m116.64-1.2925c9.2831-0.14269 43.475 53.341 33.691 105.89-0.97222 5.2484-5.6373 5.8172-9.7935 2.9685-3.3234-2.2799-11.829-8.5053-14.719-13.935-2.403-4.5192-2.7336-6.9255-2.3074-12.258 1.6852-21.065-8.0338-47.639-11.26-47.981-5.1852-0.56404-25.926 20.916-31.124 40.091-0.82316 3.035-2.0562 4.3426-6.4394 4.934a52.806 52.806 0 0 1-14.494-0.26886c-1.8278-0.40664-2.3382-1.6025-1.8618-3.4692 9.834-38.615 46.255-75.773 58.309-75.96m-0.055 2.4305c-9.5261-0.11636-44.884 36.494-55.54 73.189-0.27222 0.93658-0.12649 1.2963 0.93172 1.4729a52.766 52.766 0 0 0 12.344 0.18127c2.9021-0.41461 3.5486-0.77777 4.1563-3.0301 5.3796-19.93 27.12-42.711 34.123-41.768 6.2579 0.87497 15.055 31.075 13.506 50.442a16.027 16.027 0 0 0 2.2685 10.724c2.3544 4.4285 10.027 10.532 13.622 12.994 3.8889 2.6655 5.3553 1.3126 5.7848-1.2574 8.8261-53.049-25.059-102.87-31.192-102.95" data-name="パス 11195"/>
   <path d="m80.065 72.216a92.743 92.743 0 0 1 44.722 10.92l0.1163 3.4968a90.295 90.295 0 0 0-45.613-11.939z" data-name="パス 11196"/>
  </g>
  <path d="m85.224 174.36a23.082 23.082 0 0 1-21.494-0.20576 15.408 15.408 0 0 1-4.0785 4.9226 16.865 16.865 0 0 1-0.48608 7.1815 8.5458 8.5458 0 0 1-0.81018-0.64813c7.1572 15.087 20.196 19.255 25.08 15.904 4.4074-3.0252 5.5789-15.756 1.7954-27.148" fill="#846387" data-name="パス 11197"/>
  <path d="m51.227 182.92c-29.319 10.681-55.741-14.384-55.164-28.518 0.20418-5.0069 9.2977-18.085 18.085-22.685-0.61251-11.749-0.61251-24.009 1.6349-25.339 2.2199-1.3125 21.551 3.4741 35.658 14.509 8.1505-23.537 33.551-39.072 36.207-38.43 2.6558 0.64164 5.4946 17.677 5.8609 24.453 14.745-0.2756 34.203 7.6158 35.35 10.257 3.0608 7.0194-2.5634 45.455-41.914 56.139-5.6843 4.4236-15.606 4.8822-23.2 0.91552a18.756 18.756 0 0 1-12.516 8.6998" fill="#50a035" data-name="パス 11198"/>
  <path d="m65.177 157c-1.3643-1.4-11.143 1.9541-11.326 3.3574-0.14427 1.1084 5.0685 4.3653 7.3257 3.5421 2.5326-0.9252 5.1852-5.6713 3.9991-6.8995" fill="#ba6575" data-name="パス 11199"/>
  <path d="m42.221 153.09c4.2405 15.899 0.16204 28.873-9.7076 31.505-8.1359 2.1713-20.318-6.7294-24.482-22.345-4.4592-16.719 1.4405-28.742 10.195-31.077 8.3838-2.2377 19.768 6.0747 23.994 21.917" fill="#fff" data-name="パス 11200"/>
  <path d="m117.74 136.55c0.82965 16.819-8.1682 28.894-18.987 29.429-11.018 0.54444-21.389-11.064-22.225-27.963-0.84583-17.113 8.2331-28.629 19.477-29.184 10.156-0.50219 20.903 10.763 21.736 27.718" fill="#fff" data-name="パス 11201"/>
  <path d="m27.202 132.35c-7.8734-0.36623-16.285 8.3805-12.334 25.748 3.1759 13.961 12.491 21.269 19.294 19.722 4.6099-1.0484 8.2088-5.041 9.6785-11.134a44.965 44.965 0 0 0-1.6204-13.593c-2.8227-10.581-8.8375-17.779-15.019-20.741" fill="#ba6575" data-name="パス 11202"/>
  <path d="m23.01 143.13a3.7268 3.7268 0 0 1-4.0299 3.4579 3.6556 3.6556 0 0 1-3.022-4.3037 3.5826 3.5826 0 0 1 4.0299-3.4579 3.709 3.709 0 0 1 3.022 4.3037" fill="#fff" data-name="パス 11203"/>
  <path d="m108.9 114.53a13.966 13.966 0 0 0-9.3479-3.0431c-8.4032 0.54751-16.277 10.179-15.295 25.278 0.8474 13 10.166 22.862 18.774 22.301 5.9224-0.38583 10.797-4.213 13.52-10.565a38.939 38.939 0 0 0 1.1942-11.95 33.477 33.477 0 0 0-8.8472-22.019" fill="#ba6575" data-name="パス 11204"/>
  <path d="m93.964 125.19a4.0137 4.0137 0 0 1-4.5792 3.2667c-1.9638-0.40849-3.0787-2.3771-2.5035-5.1592a3.7803 3.7803 0 0 1 4.5484-3.2667c1.8796 0.39073 3.0462 2.6914 2.5342 5.1592" fill="#fff" data-name="パス 11205"/>
  <path d="m26.338 176.19a10.743 10.743 0 0 0 7.8231 1.6317c3.9051-0.88795 7.0713-3.9084 8.8456-8.5134-4.537-6.8704-17.427-1.0776-16.667 6.8817" fill="#dab2b6" data-name="パス 11206"/>
  <path d="m94.095 156.08a13.75 13.75 0 0 0 8.9347 2.9766 14.907 14.907 0 0 0 11.343-6.6435c-0.18985-11.472-21.373-6.2109-20.276 3.6685" fill="#dab2b6" data-name="パス 11207"/>
  <path d="m67.461 197.58c6.2012 5.0863 12.801 6.1039 15.97 3.931 3.2861-2.2556 4.7704-9.9053 3.7463-18.372-9.4759-0.91225-18.966 6.3454-19.717 14.441" fill="#ba8cbd" data-name="パス 11208"/>
  <path d="m78.741 176.63a11.441 11.441 0 0 0 3.6847 4.1789 12.02 12.02 0 0 0 1.4307-5.681 19.901 19.901 0 0 1-5.1155 1.5021" fill="#fff" data-name="パス 11209"/>
  <path d="m55.699 181.51a9.3803 9.3803 0 0 0 3.4627 4.7493 16.947 16.947 0 0 0 0.47315-7.3176 19.569 19.569 0 0 1-3.9359 2.5699" fill="#fff" data-name="パス 11210"/>
  <path d="m67.461 197.58c0.62223 0.51015 1.2493 0.97222 1.8764 1.3984 2.6639-6.4167 10.131-10.605 18.148-9.8016a42.81 42.81 0 0 0-0.30926-6.0391c-9.4759-0.91226-18.966 6.3453-19.717 14.441" fill="#a17aa4" data-name="パス 11211"/>
  <g fill="#0d131a">
   <path d="m35.626 152.4c1.8764 6.0618 0.6854 12.496-2.2896 13.303-3.0123 0.81024-6.859-2.134-9.2037-9.7076-2.2572-7.2917-1.0273-12.687 1.9931-13.624 2.847-0.88146 7.081 2.2134 9.5018 10.028" data-name="パス 11212"/>
   <path d="m109.12 134.33c1.0646 8.1213-2.4549 13.109-5.8609 13.554-3.7803 0.49607-8.0532-4.0283-9.0741-11.767-1.1083-8.468 2.2572-13.198 5.6713-13.647 3.5519-0.46483 8.1667 3.5988 9.2507 11.859" data-name="パス 11213"/>
   <path d="m65.953 156.26c1.7662 1.81-1.3384 7.3257-4.5111 8.4827-2.5926 0.94625-8.9444-2.3593-8.6657-4.4998 0.29488-2.2556 11.372-5.8333 13.177-3.9829m-10.921 4.2243c-0.0386 0.48626 4.0509 3.2521 5.8495 2.5926 2.1859-0.79883 4.0298-4.7817 3.4919-5.3343-0.82801-0.85072-9.2766 1.9347-9.3414 2.7368" data-name="パス 11214"/>
   <path d="m44.292 168.73c-1.7225 5.3618-5.3197 9.0303-9.9215 10.075-7.0891 1.609-17.31-5.1754-20.776-20.417-3.7803-16.62 3.4384-26.137 11.505-27.007l4.3896 2.403c-8.0548-2.2053-17.417 6.3907-13.397 24.062 3.0625 13.464 11.749 20.355 17.858 18.958 4.9778-1.1342 8.5572-6.1574 9.3981-13.268z" data-name="パス 11215"/>
   <path d="m43.55 152.78c4.4836 16.806-0.0746 30.082-10.751 32.931-9.2102 2.4549-21.8-6.8056-26.14-23.076-4.6894-17.581 1.8197-30.063 11.268-32.582 8.7694-2.3382 21.065 5.6259 25.623 22.727m-25.038-20.438c-7.1296 1.9023-13.721 12.383-9.134 29.575 4.213 15.813 16.05 23.333 22.808 21.551 8.75-2.3366 12.963-13.661 8.6025-30.004-4.3248-16.215-15.442-22.94-22.277-21.115" data-name="パス 11216"/>
   <path d="m109.88 116.63a13.943 13.943 0 0 0-10.304-4.1433c-7.1944 0.46851-15.026 9.4743-14.065 24.223 0.87504 13.436 10.597 21.768 17.466 21.337 6.2141-0.40482 11.278-5.0102 13.579-12.329l-0.24498 5.4347a16.307 16.307 0 0 1-13.229 8.9218c-8.9882 0.58793-19.222-9.2653-20.131-23.23-0.96089-14.76 6.4815-25.718 16.528-26.371a13.715 13.715 0 0 1 7.8069 1.7403z" data-name="パス 11217"/>
   <path d="m119.09 136.56c0.9171 18.55-9.2264 30.056-20.303 30.604-12.691 0.61898-22.894-12.71-23.7-28.992-0.85555-17.338 8.6803-29.912 20.84-30.512 10.393-0.50525 22.236 10.135 23.163 28.899m-23.037-26.537c-10.597 0.52178-18.918 11.382-18.098 27.972 0.84099 17.054 11.181 27.302 20.76 26.822 9.2895-0.45869 18.417-11.195 17.575-28.225-0.81018-16.513-11.276-27.034-20.237-26.574" data-name="パス 11218"/>
   <path d="m48.919 183.63c-2.8113-0.6627-2.5488-2.1065 0.31112-1.7095 3.8889 0.54751 10.28-2.6704 13.266-7.7307 0.6287-1.0646 1.1732-1.2137 2.3674-0.66601 9.288 4.2648 18.659 1.8051 23.362-2.6671 1.9266-1.831 2.8924-0.97222 1.2882 1.1456-4.4025 5.822-15.484 8.5377-25.333 3.5534-3.6167 6.2806-11.019 9.0741-15.262 8.0743" data-name="パス 11219"/>
   <path d="m60.531 178.27a15.88 15.88 0 0 1-0.26248 7.5282c-0.49581 1.5426-0.83773 1.8034-2.2896 0.68376a9.5018 9.5018 0 0 1-3.218-4.6002l1.8067-0.81017a8.118 8.118 0 0 0 2.1065 3.6491 13.673 13.673 0 0 0 0.0746-4.9939z" data-name="パス 11220"/>
   <path d="m86.243 173.79c3.9359 11.688 2.9393 24.973-2.2686 28.553-5.4282 3.7268-19.888-0.22842-27.357-17.628l3.043 0.9463c7.5995 15.324 19.616 17.453 23.2 14.99 3.5843-2.463 5.0653-14.259 1.3563-25.83z" data-name="パス 11221"/>
   <path d="m66.572 196.89c1.1991-9.0903 10.999-15.57 20.488-14.773l0.1978 1.9736c-9.1616-0.80043-18.388 6.663-18.903 14.24z" data-name="パス 11222"/>
   <path d="m79.685 176.38a8.784 8.784 0 0 0 2.4305 3.1176 9.1259 9.1259 0 0 0 0.77778-4.0509l1.9655-0.77777a12.618 12.618 0 0 1-1.2785 5.9063c-0.66113 1.2817-1.1861 1.3044-2.2831 0.53648a11.325 11.325 0 0 1-3.6458-4.3944z" data-name="パス 11223"/>
  </g>
 </g>
</svg>
