<?xml version="1.0" encoding="UTF-8"?>
<svg version="1.1" viewBox="0 0 194.98 212.89" xmlns="http://www.w3.org/2000/svg">
 <path transform="translate(-834.21 -193.77)" d="M1020.573,300.524c3.922-2.855,7.142-6.246,7.762-8.817-2.742-.712-7.629-.051-11.348,1.335,9.992-12.408,1.926-32.489-7.765-34.214,2.855,5.412,2.375,10.869.308,13.146-9.08-19.12-29.855-31.628-56.861-30.747-34.126,1.112-59.009,26.034-56.294,59.073a27.439,27.439,0,0,1-2.871-5.8c-12.37,9.942-2.678,31.437,13.567,32.748.127.153.247.312.377.464-5.627,2.194-11.331,8.667-12.458,13.522,4.152.547,8.973-.739,13.489-3.419-3.565,14.378,8.014,24.663,18.9,19.106-4.64-5.165-4.859-10.908-1.832-15.982a66.4,66.4,0,0,0,22.667,5.262c-4.618,2.409-8.534,7.462-7.663,8.8.635.977,6.952,1.139,12.515-2.142,1,4.919,3.91,7.817,5.455,7.6,1.364-.195,3.505-5.5,1.823-9.693,4.536.727,9.6.773,9.956.256.422-.615-.576-4.5-7.455-5.259,20.665-3.16,39.556-15.675,48.034-31.389a11.626,11.626,0,0,1,6.076,12.1C1028.734,320.826,1029.835,306.416,1020.573,300.524Z" fill="#d5e8c3"/>
 <path transform="translate(-820.89 -172.33)" d="M897.114,262.612c.509-3.246.081-4.737-1.138-6.826-2.811-4.818-5.354-9.035-9.1-14.924-7.405-11.636-10.173-24.495-8.366-26.971,2.744-3.76,28.726,7.247,38.214,18.159,1.6,1.836,2.692,2.064,4.618,1.182a16.948,16.948,0,0,0,7.8-7.094c.97-1.707.614-2.65-.77-3.815-26.5-22.309-59.876-30.34-64.918-26.5-11.324,8.618.937,60.367,21.952,77.567a4.978,4.978,0,0,0,6.96-.67A19.979,19.979,0,0,0,897.114,262.612Z" fill="#50a035"/>
 <path transform="translate(-881.08 -153.6)" d="m999.54 201.05c20.1-0.656 36.746 6.11 47.69 17.5 4.208-25.937-13.89-63.839-20.61-64.066-6.2-0.209-28.916 22.791-37.577 47.721a69.3 69.3 0 0 1 10.497-1.155z" fill="#50a035"/>
 <path transform="translate(-837.18 -188.06)" d="m894.8 229.62c-1.7 3 0.94 15.3 8.366 26.971 3.748 5.89 6.291 10.106 9.1 14.924a8.714 8.714 0 0 1 1.266 3.36c2.827-7.9 5.423-18.5 20.325-26.254-11.1-12.694-36.962-22.69-39.057-19.001z" fill="#d5e8c3"/>
 <g transform="translate(136.07 19.378)">
  <path transform="translate(-1041.4 -188.94)" d="m1063.1 227.47c1.645-13.574-3.943-28.984-12.659-38.528-3.757 8.265-7.846 20.806-9.045 29.527a60.1 60.1 0 0 1 21.704 9.001z" fill="#d5e8c3"/>
 </g>
 <path transform="translate(-865 -279.98)" d="M1010.431,427.228a71.921,71.921,0,0,1-16.8,4.739c6.88.758,7.878,4.644,7.455,5.259-.356.517-5.42.47-9.956-.256,1.682,4.2-.459,9.5-1.823,9.693-1.545.221-4.451-2.677-5.455-7.6-5.563,3.281-11.88,3.118-12.515,2.142-.87-1.339,3.045-6.391,7.663-8.8-.3-.019-.595-.052-.895-.073a129.172,129.172,0,0,1-23.777,1.877,13.633,13.633,0,0,0,3.836,8.917,14.379,14.379,0,0,1-2.676,1.041c4.8,3.776,12.513,5.29,19.048,3.924a29.125,29.125,0,0,1-8.308,8.464c4.685,1.071,11.243-.536,16.24-4.417,2.142,3.391,7.094,8.7,12.359,9.637,2.208-2.862,3.585-8.759,2.839-14.19,3.3,2.559,10.561,2.768,14.874-3.658-2.766.045-6.737-.535-8.79-1.74C1011.936,440.674,1014.177,432.906,1010.431,427.228Z" fill="#50a035"/>
 <g transform="translate(83.127 164.03)">
  <path transform="translate(-942.76 -458.5)" d="m996.38 492.6c-7.307-4.7-17.969-15.216-23.68-23.3-4.058 1.886-8.438 2.523-11.835 1.747a29.123 29.123 0 0 0 8.309-8.464c-6.535 1.366-14.246-0.148-19.048-3.924a12.4 12.4 0 0 1-7.37-0.157c8.967 22.717 24.54 39.811 37.918 46.587 5.177 2.622 13.942 1.252 17.936-3.213 2.473-2.758 2.143-6.465-2.23-9.276z" fill="#d5e8c3"/>
 </g>
 <path transform="translate(-797.27 -259.96)" d="M880.394,423.993c.015,0,.029,0,.045.006-6.681-2.228-11.347-10.147-8.9-20-4.516,2.68-9.337,3.966-13.489,3.419,1.127-4.856,6.831-11.329,12.458-13.523-.129-.152-.25-.311-.377-.464a20.9,20.9,0,0,1-15.476-9.41c-6.033-.041-13.922,5.78-16.092,11.063-3.5,8.517-10.9,16.26-19.275,20.747-7.077,3.792-10.967,9.485-11.109,13.184-.254,6.6,5.007,9.629,10.507,4.618,3.389-3.088,9.381-4.9,14.79-4.283a26.961,26.961,0,0,0,20.661-7.1A123.385,123.385,0,0,0,885.1,434.321,109.47,109.47,0,0,1,880.394,423.993Z" fill="#d5e8c3"/>
 <path transform="translate(-901.7 -295.42)" d="m1072 476.39c-7.69-3.525-17.161-9.057-23.6-15.839-4.363 5.2-10.9 4.865-13.982 2.475a23.93 23.93 0 0 1-0.827 10.038 101.16 101.16 0 0 0 25.628 15.707c5.8 2.357 12.616 1.6 16.531-2.142 2.859-2.733 2.459-7.394-3.75-10.239z" fill="#d5e8c3"/>
 <g fill="#ba6575">
  <path transform="translate(-904.7 -328.51)" d="m1042.5 534.41a1.384 1.384 0 1 1-2.045-1.734 1.636 1.636 0 0 1 2.159-0.488 1.554 1.554 0 0 1-0.114 2.222z"/>
  <path transform="translate(-896.01 -331.36)" d="m1023.9 540.76a1.617 1.617 0 0 1-2.286 0.145 1.584 1.584 0 0 1 0.345-2.175 1.758 1.758 0 0 1 2.332-0.3 1.707 1.707 0 0 1-0.391 2.33z"/>
  <path transform="translate(-900.45 -329.11)" d="m1033.5 535.86a1.77 1.77 0 0 1-2.365 0.268 1.571 1.571 0 0 1 0.267-2.2 1.744 1.744 0 0 1 2.332-0.368 1.576 1.576 0 0 1-0.234 2.3z"/>
  <path transform="translate(-929.34 -315.12)" d="m1095.9 505.69a1.478 1.478 0 1 1-2.219-1.852 1.678 1.678 0 0 1 2.308-0.5 1.737 1.737 0 0 1-0.089 2.352z"/>
  <path transform="translate(-934.32 -313.41)" d="m1106.4 501.64a1.382 1.382 0 0 1-1.958 0.427 1.442 1.442 0 0 1-0.125-2.008 1.461 1.461 0 0 1 1.958-0.494 1.476 1.476 0 0 1 0.125 2.075z"/>
  <path transform="translate(-937.13 -314.38)" d="M1112.146,503.527c-.555.794-1.333.919-1.8.594-.446-.311-.5-1.115.05-1.9a1.355,1.355,0,0,1,1.74-.611A1.408,1.408,0,0,1,1112.146,503.527Z"/>
 </g>
 <path transform="translate(-788.52 -222.25)" d="m842.25 335.85c-3.007-6.1-8.631-10.7-17.181-13.81-6.242-2.274-10.575-5-14.844-10.481-5.7-7.321-13.22-9.954-19.266-8.551-2.116 0.491-2.089 1.556-0.567 2.627 2.69 1.893 3.372 4.838 2.833 11.126-1.237 14.45 4.806 32.507 20.631 37.375a9.87 9.87 0 0 0-5.965 10.245c0.249 2.236 1.4 2.676 2.588 0.8 3.029-4.779 11.844-7.014 17.526-4.079a34.812 34.812 0 0 0 1.815-3.729c2.17-5.283 10.059-11.1 16.092-11.063a21.139 21.139 0 0 1-3.662-10.46z" fill="#d5e8c3"/>
 <path transform="translate(-837.18 -188.06)" d="M894.806,229.62c-.841,1.484-.615,5.252.724,10.09,8.438-2.228,23.3.9,37.557,8.062C921.6,235.486,896.849,226.014,894.806,229.62Z" fill="#b8c9aa"/>
 <path transform="translate(-909.65 -169.57)" d="m1050.7 199.26c6.547 4.95 13.7 17.177 14.856 27.011 0.632 0.393 1.263 0.788 1.873 1.2 1.645-13.574-3.943-28.984-12.66-38.528-1.369 3.006-2.774 6.575-4.069 10.317z" fill="#b8c9aa"/>
 <g fill="#448b2c">
  <path transform="translate(-820.89 -185.71)" d="M859.143,223.785c.131,19.135,10.838,50.364,26.26,62.987a4.978,4.978,0,0,0,6.96-.67c.342-.4.662-.8.964-1.2C878.7,274.4,863.365,248.292,859.143,223.785Z"/>
  <path transform="translate(-914.99 -154.19)" d="m1062.2 155.76c9.8 16.886 17.2 43.186 14.528 59.314a51.859 51.859 0 0 1 4.39 4.065c3.893-23.996-11.299-58.209-18.918-63.379z"/>
  <path transform="translate(-868.58 -284.39)" d="m987.44 443.48c-5.563 3.281-11.88 3.118-12.515 2.142-0.87-1.339 3.045-6.391 7.663-8.8-0.3-0.019-0.594-0.052-0.895-0.074a130.77 130.77 0 0 1-19.627 1.882c5.112 6.769 16.166 9.534 26.59 8.466a15.1 15.1 0 0 1-1.216-3.616z"/>
  <path transform="translate(-898.93 -280.87)" d="m1041.7 429.15a71.547 71.547 0 0 1-14.174 3.71c6.438 0.709 7.725 4.157 7.517 5.1a17.124 17.124 0 0 0 6.657-8.81z"/>
  <path transform="translate(-896.77 -288.39)" d="m1032.5 445.82c-1.343 0.309-5.636 0.189-9.543-0.437a9.608 9.608 0 0 1 0.559 4.471 30.285 30.285 0 0 0 8.984-4.034z"/>
 </g>
 <path transform="translate(-879.58 -284.07)" d="M1008.214,436.059c6.438.709,7.725,4.157,7.517,5.1-.157.113-.313.229-.474.339-1.343.309-5.636.189-9.543-.437a9.61,9.61,0,0,1,.559,4.471,40.36,40.36,0,0,1-6.62,1.241,15.112,15.112,0,0,1-1.217-3.615c-5.563,3.281-11.88,3.118-12.515,2.142-.87-1.339,3.045-6.391,7.663-8.8C996.7,437.09,1002.719,436.868,1008.214,436.059Z" fill="#b8c9aa"/>
 <g transform="translate(89.337 147.16)">
  <path transform="translate(-954.34 -427.07)" d="m977.96 432.25a66 66 0 0 1-21.626-5.177 13.267 13.267 0 0 0-2 7.051 136.07 136.07 0 0 0 23.626-1.874z" fill="#b8c9aa"/>
 </g>
 <g fill="#b8c9aa">
  <path transform="translate(-885.49 -301.49)" d="m1000.1 478.44a12.725 12.725 0 0 0 5.157-1.723 25.136 25.136 0 0 1-2.322-3.061 22.934 22.934 0 0 1-4.406 2.67c0.486 0.687 1.018 1.396 1.571 2.114z"/>
  <path transform="translate(-836.96 -290.32)" d="m921.22 457.11c-8.557-1.028-19.206-4.213-24.534-7.583a23.219 23.219 0 0 1-2.865 3.074 123.38 123.38 0 0 0 30.974 12.069q-1.9-3.653-3.575-7.56z"/>
  <path transform="translate(-798.06 -287.31)" d="m859.2 443.06c-4.959 5.855-13.825 10.192-23.832 9.636-8.734-0.485-13.519 1.481-17.1 5.22-3.172 3.313-6.24 3.886-8.389 2.94 1.711 3.162 5.584 3.792 9.593 0.139 3.389-3.088 9.381-4.9 14.79-4.283a26.962 26.962 0 0 0 20.661-7.1 12.5 12.5 0 0 0 4.277-6.552z"/>
  <path transform="translate(-824.3 -292.97)" d="m881.16 455.26a27.687 27.687 0 0 1-14.4 6.943c-1.49 6.989 3.636 8.19 7.389 4.611a16.78 16.78 0 0 1 9.771-4.919c2.6-0.288 4.31-0.779 5.6-2.379-2.859-1.307-5.663-2.722-8.36-4.256z"/>
  <path transform="translate(-790.04 -225.3)" d="m798.51 322.02c-1.167-7.725-2.92-10.94-5.939-12.8 2.129 1.912 2.656 4.862 2.166 10.589-1.237 14.45 4.806 32.507 20.631 37.375a9.87 9.87 0 0 0-5.965 10.245c0.248 2.236 1.4 2.676 2.588 0.8 3.029-4.779 11.844-7.014 17.526-4.079a34.829 34.829 0 0 0 1.815-3.728c1.112-2.708 3.731-5.552 6.828-7.681-21.346 0.304-36.661-10.971-39.65-30.721z"/>
  <path transform="translate(-907.67 -291.5)" d="m1050.6 452.08a11.707 11.707 0 0 1-4.219 1.624 17.464 17.464 0 0 0 6.763 1.67 33.283 33.283 0 0 1-2.544-3.294z"/>
  <path transform="translate(-901.7 -295.57)" d="m1068.3 486.15a1.636 1.636 0 0 1-2.238 0.453 1.312 1.312 0 0 1-0.448-0.933c-16.621-4.448-19.814-15.516-17.366-24.8-4.361 5.014-10.777 4.667-13.825 2.3a23.93 23.93 0 0 1-0.827 10.038 101.16 101.16 0 0 0 25.628 15.707c7.953 3.231 15.67 0.1 17.734-3.63a21.637 21.637 0 0 1-8.658 0.865z"/>
 </g>
 <path transform="translate(-929.35 -316.98)" d="m1095.9 507.56a20.578 20.578 0 0 1-2.686-0.48 1.311 1.311 0 0 0 0.448 0.933 1.636 1.636 0 0 0 2.238-0.453z" fill="#a15665"/>
 <path transform="translate(-930.03 -317.64)" d="m1097.7 509.07c-1.828 0.776-2.9 1.938-3.068 3.264a15.535 15.535 0 0 0 7.312-1.932c0.422-1.717-1.433-2.527-4.244-1.332z" fill="#a15665"/>
 <path transform="translate(-859.64 -294.47)" d="M988.163,502.416a2.069,2.069,0,0,1-.69,1.461,1.617,1.617,0,0,1-2.286.145,1.583,1.583,0,0,1,.344-2.173c-6.264-1.8-12.933-7.054-19.127-17.419a22.973,22.973,0,0,1-3.373-13.1,13.144,13.144,0,0,1-2.16-.282,29.123,29.123,0,0,0,8.309-8.464c-6.535,1.366-14.246-.148-19.048-3.924h0a12.4,12.4,0,0,1-7.37-.157c8.967,22.717,24.54,39.811,37.918,46.587,6.221,3.151,16.693-.208,18.877-4.8A18.317,18.317,0,0,1,988.163,502.416Z" fill="#b8c9aa"/>
 <path transform="translate(-896.01 -331.9)" d="m1023.9 541.3a2.069 2.069 0 0 0 0.69-1.461 19.194 19.194 0 0 1-2.633-0.567 1.583 1.583 0 0 0-0.344 2.173 1.616 1.616 0 0 0 2.287-0.145z" fill="#a15665"/>
 <path transform="translate(-898.53 -332.61)" d="m1035.3 541.9c-0.71-1.187-2.6-1.423-4.991-0.583-2.177 0.764-3.283 1.942-3.584 3.215a17.58 17.58 0 0 0 8.575-2.632z" fill="#a15665"/>
 <g fill="#b8c9aa">
  <path transform="translate(-939.41 -209.53)" d="m1114.9 275.19c7.966 4.968 12.582 22.521 5.1 32.838-0.97 1.337-0.463 2.577 1.038 2.365 9.902-10.373 6.176-31.957-6.138-35.203z"/>
  <path transform="translate(-942.81 -237.4)" d="m1136.9 335.33a106.96 106.96 0 0 0-13.827 10.154c-1.393 1.213-0.837 2.322 0.058 2.5 4.573-2.654 12.291-7.839 13.769-12.654z"/>
  <path transform="translate(-940.41 -253.36)" d="m1119.1 369.79c5.515 3.08 8.342 11.562 4.143 15.873a12.144 12.144 0 0 0-6.189-11.7 16.942 16.942 0 0 0 2.046-4.173z"/>
  <path transform="translate(-834.16 -243.09)" d="m890.22 347.62c-3.995 11.593 6.953 24.878 18.193 26.052 2.059 0.215 2.3 1.918 0.783 3.161-14.719 1.414-26.721-17.596-18.976-29.213z"/>
  <path transform="translate(-840.37 -271.49)" d="m901.18 418.6c4.462-1.472 12.782-5.466 17.485-9.128 1.356-1.056 2.616-0.545 2.817 0.865-4.98 5.263-15.849 9.779-20.302 8.263z"/>
  <path transform="translate(-851.54 -275.38)" d="m929 417.3c-3.249 12.719 4.761 22.924 15.122 20.7-8.026 6.035-21.646-2.122-18.311-18.574a34.575 34.575 0 0 0 3.189-2.126z"/>
 </g>
 <g fill="#0d131a">
  <path transform="translate(-840.29 -237.2)" d="m901.05 341.41a52.724 52.724 0 0 1 0.123-6.506l2.305 2.148a51.577 51.577 0 0 0 0.336 8.677z"/>
  <path transform="translate(-866.2 -279.23)" d="M958.068,425.606a67.888,67.888,0,0,0,21.1,5.229c2.107.2,2.28.855.489,1.994-4.266,2.71-6.754,6.633-6.377,7.125.469.613,5.9.712,10.81-1.96,1.076-.586,1.531-.447,1.819.754,1.04,4.336,3.39,6.457,4.426,6.278,1.017-.176,2.8-4.816,1.288-8.938-.728-1.984.2-2.406,1.129-.51,2.057,4.186.282,10.909-2.079,11.212-1.574.2-4.876-2.118-6.107-7.366-5.5,2.953-11.863,2.95-12.806,1.526-1.024-1.549,1.581-5.745,6.118-8.748a67.057,67.057,0,0,1-20.941-4.916Z"/>
  <path transform="translate(-878.85 -193.09)" d="M984.233,241.285a75.343,75.343,0,0,1,13.066-1.536c30.368-1.009,55.424,14.913,60.816,40.532.7,3.339-.309,3.6-1.262.327-7.142-24.54-30.311-40.21-59.511-39.277a69.232,69.232,0,0,0-11.438,1.305Z"/>
  <path transform="translate(-892.92 -251.86)" d="m1017.4 403.72c23.522-2.612 45.406-17.6 53.462-35.5 1.138-2.526 2.181-2.078 1.258 0.535-6.7 18.971-30.329 34.632-54.6 36.236-3.842 0.25-3.841-0.857-0.12-1.271z"/>
  <path transform="translate(-896.46 -283.66)" d="M1027,435.18c5.187.962,7.271,4.87,6.266,6.233-.728.987-6.4.786-10.374.02l-.652-1.56c4.426.82,9.312.787,9.544.476s-1.1-3.755-8.8-4.023Z"/>
  <path transform="translate(-820 -171.63)" d="m897.24 262.08a20.76 20.76 0 0 1-5.1 10.617 5.779 5.779 0 0 1-8.247 0.729c-21.795-17.2-33.975-69.805-21.893-79 5.288-4.027 39.267 3.543 66.076 26.5 1.846 1.581 2.173 2.964 1 5.02a17.753 17.753 0 0 1-8.3 7.473c-2.465 1.127-3.944 0.626-5.7-1.364-9.857-11.146-34.737-21.164-36.786-18.374-1.447 1.968 1.093 14.25 8.52 25.921 3.946 6.2 6.476 10.48 9.093 14.966 1.776 3.031 1.863 4.426 1.337 7.512zm-2.061-0.331c0.513-3.274 0.156-4.2-1.043-6.256-2.611-4.474-5.007-8.6-8.943-14.784-7.548-11.863-10.484-25.055-8.239-28.044 3.24-4.313 29.833 6.79 39.667 18.133 1.258 1.451 1.795 1.592 3.482 0.82a16.017 16.017 0 0 0 7.306-6.7c0.637-1.119 0.524-1.686-0.625-2.633-26.637-21.965-59.3-29.93-63.682-26.456-10.382 8.232 1.475 59.06 21.954 76.11a3.811 3.811 0 0 0 5.647-0.553 18.54 18.54 0 0 0 4.476-9.637z"/>
  <path transform="translate(-853.26 -204.51)" d="m929.01 289.64c2.322-7.153 5.8-18 20.261-25.278l1.477 1.352c-14.631 7.4-17.207 17.911-20.569 27.386z"/>
  <path transform="translate(-880.15 -152.83)" d="M987.044,201.582c8.452-25.929,32.08-48.889,38.661-48.747,7.4.159,26.581,38.686,21.409,65.786l-1.686-1.75c3.557-25.533-13.934-62.092-19.781-62.242-5.217-.134-27.7,22.107-36.461,46.6Z"/>
  <path transform="translate(-904.59 -166.08)" d="m1039.8 214.86c1.236-10.682 6.091-23.842 10.388-31.879 1.271-2.377 2.238-1.889 1.124 0.565-3.748 8.264-8.3 21.783-9.78 31.621z"/>
  <path transform="translate(-912.87 -168.94)" d="m1058.3 187.6c9.713 9.759 15.068 26.39 13.156 39.9l-1.667-1.274c1.347-12.64-3.664-27.226-12.17-37.223z"/>
  <path transform="translate(-938.18 -208.16)" d="M1113.082,285.539c1.324-2.1,1.867-5.9-.239-10.765-1.1-2.551-.695-3.083,2.244-2.04,9.463,3.358,17.012,22.92,6.131,35.395-1.38,1.583-2.331.955-.979-.825,9.174-12.071,1.723-29.739-5.331-32.586,1.935,4.051,1.85,9.872-1.006,12.485Z"/>
  <path transform="translate(-943.45 -236.42)" d="M1126.874,334.707a22.341,22.341,0,0,1,9.943-1.394c1.6.2,1.923.522,1.338,2.062-1.468,3.86-7.281,8.46-12.46,11.149-2.227,1.157-2.958.259-.6-1.113,5.5-3.206,10.1-7.556,11.309-10.386-2.734-.469-6.893.114-10.632,1.564Z"/>
  <path transform="translate(-940.07 -244.48)" d="m1126.9 350.62c9.252 5.282 9.284 20.656-2.336 26.689-2.152 1.117-2.54 0.652-2.5-1.483a11.2 11.2 0 0 0-5.688-10.089l0.736-1.322c4.116 1.473 6.893 6.559 6.738 11.239 9.927-6.018 10.293-18.691 1.9-23.989z"/>
  <path transform="translate(-833.33 -239.12)" d="M893.543,385.178c1.763-5.227,6.994-10.039,11.033-12.013C888.765,371.3,879.624,350.3,891.2,339.9c1.442-1.3,1.905-1.111,2.673.705,4.059,9.6,11.635,14.089,16.584,13.562,2.636-.281,2.828.7.234,1.246-5.454,1.14-14.389-3.544-18.418-14.094-10.138,9.789-1.249,29.016,14.2,30.513,2.612.253,2.757.882.359,1.975-5.137,2.343-10.167,7.9-11.623,12.054,4.9.34,12-2.638,17.68-7.5,1.495-1.278,2.2-.443.835.968-5.456,5.628-12.8,8.515-18.5,8.252C893.209,387.488,892.864,387.19,893.543,385.178Z"/>
  <path transform="translate(-850.68 -276.76)" d="M925.8,420.281c-3.453,13.057,6.3,23.419,16.551,19.3-4.444-5.037-4.411-11.529-.291-16.92,1.354-1.773,2.24-1.186,1.067.715-3.169,5.137-3.1,10.1.565,14.889,1.219,1.591,1.078,2.26-.445,2.919-11.192,4.847-22.734-5.417-19.166-19.961Z"/>
  <path transform="translate(-864.96 -283.9)" d="m978.56 436.96a115.37 115.37 0 0 1-24.306 2.105l0.036-1.924a129.42 129.42 0 0 0 22.2-1.46z"/>
  <path transform="translate(-864.88 -294.3)" d="M973.841,463.283c-5.993,1.4-14.283.121-19.757-4.549l2.382-.6a24.411,24.411,0,0,0,18.449,3.4Z"/>
  <path transform="translate(-901.14 -279.57)" d="M1047.463,426.341c3.974,5.942,1.686,13.5-5.258,15.565a14.8,14.8,0,0,0,5.316.671c2.241-.058,2.7.555,1.436,2.243-4.719,6.316-12.852,5.72-15.908,2.567-1.3-1.344-.69-2.071.83-.978a9.771,9.771,0,0,0,12.846-1.989,16.375,16.375,0,0,1-6.284-1.437c-2.062-1.012-1.9-1.555.239-2.192,6.783-2.023,8.183-8.7,4.961-13.648Z"/>
  <path transform="translate(-836.42 -292.44)" d="m924.89 468.06a117 117 0 0 1-32.228-12.68l1.262-1.262a127.42 127.42 0 0 0 29.682 11.561z"/>
  <path transform="translate(-886.46 -303.59)" d="m1000.6 479.7a14.423 14.423 0 0 0 5.086-1.527l1.075 1.258a12.388 12.388 0 0 1-5.053 1.912z"/>
  <path transform="translate(-796.37 -259)" d="M854.327,384.051c-6.023-.435-13.658,5.47-15.8,10.447A43.25,43.25,0,0,1,818.8,415.6c-6.652,3.564-10.395,9.3-10.517,12.494-.25,6.464,4.457,7.849,8.919,3.783,3.13-2.853,9.594-5.206,15.5-4.532a25.793,25.793,0,0,0,24.224-11.8c1.241-2.044,2.067-1.5,1.1.655-3.745,8.392-15.739,14.392-25.573,13.273-5.646-.65-10.967,1.113-14.073,3.944-6.095,5.554-12.416,1.857-12.134-5.491.135-3.5,3.712-9.508,11.758-13.818a43.228,43.228,0,0,0,18.772-20.435c2.317-5.357,9.959-11.231,16.317-11.732Z"/>
  <path transform="translate(-823.43 -296.27)" d="M866.862,465.328c-1.449,6.43,2.465,7.163,5.731,4.049a18.678,18.678,0,0,1,10.314-5.24c2.421-.269,3.576-.67,4.786-1.754l2,.837c-1.17,1.752-3.293,2.64-6.5,3a15.665,15.665,0,0,0-9.262,4.583c-4.177,3.983-10.648,2.481-9.06-5.287Z"/>
  <path transform="translate(-858.5 -294.09)" d="m942.83 458.46c8.224 20.345 22.821 38.086 37.076 45.305 5.11 2.588 13.338 1.008 16.857-2.924 2.226-2.488 1.78-5.337-2.043-7.795-7.373-4.74-18.3-15.514-24.081-23.679l1.785-0.909c5.6 8.138 16.118 18.258 23.351 22.909 4.372 2.809 5.562 7.148 2.328 10.763-4.42 4.94-13.851 6.114-19.061 3.475-15.39-7.794-30.53-26.532-38.733-47.935z"/>
  <path transform="translate(-901.37 -294.8)" d="m1048.7 459.22c6.7 7.053 16.99 12.823 23.368 15.684 6.645 2.982 7.466 8.385 3.907 11.788-4.028 3.852-11.238 5.012-17.483 2.475a102.08 102.08 0 0 1-25.66-15.653l0.664-2.126a100.44 100.44 0 0 0 25.691 15.869c5.447 2.215 11.854 1.584 15.533-1.936 2.424-2.319 2.126-6.035-3.54-8.631-6.55-3-16.86-8.595-23.88-15.846z"/>
  <path transform="translate(-910.42 -291.01)" d="m1054.4 454.89a31.841 31.841 0 0 1-2.039-2.715l1.844-1.136a30.993 30.993 0 0 0 2.86 3.653z"/>
  <path transform="translate(-787.86 -221.56)" d="M841.48,336.947c-3.4-7.4-8.991-11.671-17.373-14.723-7.2-2.621-10.808-5.132-15.22-10.8-5.115-6.567-12.125-9.855-18.42-8.392-1.191.276-1.226.668-.3,1.321,2.841,2,3.811,5.049,3.23,11.818-1.287,15.03,5.475,32.349,20.972,36.808l-2.272.965c-15.384-4.938-21.835-21.219-20.4-37.889.536-6.245-.021-8.834-2.4-10.509-2.214-1.557-1.826-3.337.831-3.952,7.2-1.673,14.334,1.4,20.048,8.74,4.061,5.214,7.336,7.556,14.5,10.164,8.784,3.2,13.752,6.8,17.076,13.059Z"/>
  <path transform="translate(-803.85 -265.64)" d="M842.864,405.256c-4.707-2.664-13.463-.962-16.468,3.75-1.455,2.281-3.585,2.024-3.939-1.162-.683-6.14,3.326-11.219,9.645-11.544,2.543-.13,2.619.987.073,1.261a9.4,9.4,0,0,0-8.242,10.128c.173,1.554.5,1.662,1.255.45,3.1-4.992,12.194-7.367,18.493-4.494Z"/>
  <path transform="translate(-874.54 -296.32)" d="M1007.986,464.39c.737,4.583-.224,10.4-2.517,13.813a1.5,1.5,0,0,1-1.908.712c-5.467-1.41-10.018-6.323-11.736-9.3-3.854,3.061-10.169,5.039-15.056,4.338-2.288-.329-2.344-1.115-.7-2.34a31.485,31.485,0,0,0,7.827-8.054c1.155-1.73,2.047-1.212,1.1.637a25.125,25.125,0,0,1-7.031,8.177c3.136.485,8.051-1,12.748-3.961,1.329-.838,1.652-.745,2.414.335,2.3,3.266,6.374,7.093,10.843,8.291,1.994-2.841,2.962-8.236,2.393-13.657Z"/>
 </g>
 <g fill="none">
  <path transform="translate(-904.31 -328.11)" d="M1042.532,534.338a2.068,2.068,0,0,1-2.819.427,2.208,2.208,0,0,1,2.84-3.3A2,2,0,0,1,1042.532,534.338Zm-.738-.66c.518-.61.536-1.285.2-1.557-.291-.239-.948-.176-1.52.5-.541.636-.476,1.271-.213,1.493C1040.607,534.4,1041.2,534.377,1041.794,533.678Z"/>
  <path transform="translate(-895.63 -330.96)" d="M1023.788,540.734a2.132,2.132,0,0,1-2.922.071,2.05,2.05,0,0,1,.334-2.849,2.2,2.2,0,0,1,2.953-.225A2.087,2.087,0,0,1,1023.788,540.734Zm-.666-.744c.7-.651.685-1.4.435-1.648-.315-.306-1-.292-1.7.363-.646.606-.659,1.2-.364,1.515C1021.8,540.555,1022.476,540.594,1023.122,539.99Z"/>
  <path transform="translate(-900.08 -328.73)" d="M1033.516,535.819a2.2,2.2,0,0,1-3,.231,2.126,2.126,0,0,1,.212-2.873,2.235,2.235,0,0,1,2.981-.308A2,2,0,0,1,1033.516,535.819Zm-.7-.708c.584-.6.625-1.306.292-1.626-.357-.346-1.074-.21-1.672.407-.676.7-.609,1.276-.333,1.544A1.284,1.284,0,0,0,1032.82,535.111Z"/>
  <path transform="translate(-898.11 -332.18)" d="M1025.789,544.118c.248-1.36,1.085-2.745,3.868-3.72s4.8-.507,5.587.823l-.768.5c-.554-.855-2-1.215-4.442-.359-2.01.705-2.926,1.648-3.286,2.715Z"/>
  <path transform="translate(-928.95 -314.73)" d="m1095.9 505.62a1.97 1.97 0 1 1-0.01-3.006 2.158 2.158 0 0 1 0.01 3.006zm-2.209-1.844a1.218 1.218 0 0 0-0.133 1.649c0.34 0.278 1.05 0.207 1.6-0.465 0.528-0.644 0.518-1.416 0.189-1.685-0.39-0.319-1.07-0.213-1.655 0.501z"/>
  <path transform="translate(-933.92 -313.02)" d="m1106.3 501.55a1.805 1.805 0 1 1-2.86-2.186 1.92 1.92 0 0 1 2.588-0.545 1.987 1.987 0 0 1 0.272 2.731zm-0.768-0.6a0.868 0.868 0 1 0-1.317-0.983c-0.462 0.638-0.254 1.187 0 1.368a0.985 0.985 0 0 0 1.316-0.39z"/>
  <path transform="translate(-936.74 -313.97)" d="m1112.1 503.38a1.85 1.85 0 0 1-2.431 0.68 1.83 1.83 0 0 1-0.1-2.556 1.71 1.71 0 0 1 2.378-0.655 1.869 1.869 0 0 1 0.153 2.531zm-0.771-0.559c0.4-0.571 0.348-1.119 0.131-1.271-0.26-0.182-0.729 0-1.107 0.538-0.482 0.689-0.377 1.142-0.194 1.271 0.257 0.181 0.727 0.094 1.169-0.538z"/>
  <path transform="translate(-929.6 -317.18)" d="M1093.749,511.88c.128-1.516,1.152-2.811,3.354-3.748,3.223-1.371,5.087-.3,4.935,1.509l-1.03.567c.479-1.256-.723-2.3-3.512-1.114a4.238,4.238,0,0,0-2.794,2.76Z"/>
 </g>
 <g transform="translate(92.442 63.471)">
  <path transform="translate(-960.12 -271.11)" d="m1046.2 294.35a71.559 71.559 0 0 0-3.933-10.167 41.525 41.525 0 0 0-10.706-0.534c-1.338-5.175-10.124-12.567-11.957-12.537-2.766 0.045-10.619 9.414-11.288 17.044-14.322-9.459-38.237-9.191-38.817-8.477-0.619 0.763 1.607 13.251 4.551 18.605-5.22 2.231-13.675 11.38-13.876 12.626-0.211 1.311 11.122 16.924 21.461 19.461 7.21 5.5 14.745 3.231 17.6-1.291 5.454 7.9 14.623 7.63 23.524 0.067 10.273 1.807 13.586-2.409 13.62-8.365 3.369 0.8 7.557-2.127 8.7-9.336 1.278-4.511 1.511-11.575 1.121-17.096z" fill="#50a035"/>
 </g>
 <path transform="translate(-876.92 -227.94)" d="m1008.1 328.34c5.257 11.091 2.669 21.6-3.543 24.545-6.3 2.986-15.766-0.151-21.642-12.55-5.346-11.28-2.533-21.4 4.013-24.5 5.628-2.671 15.368 0.262 21.172 12.505z" fill="#fff"/>
 <path transform="translate(-923.27 -218.39)" d="m1100.5 311.71c1.839 11.84-1.592 19.086-6.826 19.9-4.471 0.695-11.368-5.938-13.073-16.91-1.824-11.741 1.538-19.489 7.05-20.346 4.475-0.695 11.096 6.066 12.849 17.356z" fill="#fff"/>
 <g fill="#ba6575">
  <path transform="translate(-881.44 -228.13)" d="m1009.8 349.44c2.942-1.2 5.071-4.663 5.592-9.314a27.776 27.776 0 0 0-2.817-11.6c-3.925-8.282-9.65-12.291-14.687-13.2-7.381 0.594-10.573 9.938-5.845 21.568 4.137 10.172 12.358 14.741 17.757 12.546z"/>
  <path transform="translate(-925.69 -218.39)" d="m1090.1 294.35c-4.457 0.693-6.263 8.881-3.257 18.293 3.2 10.031 8.58 13.627 12.27 12.448 1.865-0.6 3.446-2.458 4.272-5.281a37.218 37.218 0 0 0-0.435-8.1c-1.755-11.294-8.375-18.055-12.85-17.36z"/>
  <path transform="translate(-917.06 -248.85)" d="m1066.7 361.8c-0.238 0.954 3.536 4.326 4.774 3.927 1.383-0.446 2.722-4.685 2.1-5.533-0.472-0.635-6.696 0.893-6.874 1.606z"/>
 </g>
 <path transform="translate(-884.54 -233.3)" d="m1001.5 329.1a2.582 2.582 0 0 1-2.273 3 2.68 2.68 0 0 1-2.695-2.712 2.572 2.572 0 0 1 2.24-2.89 2.631 2.631 0 0 1 2.728 2.602z" fill="#fff"/>
 <path transform="translate(-887.26 -250.89)" d="m1002.4 367.1c4.2 4.807 9.425 6.654 13.245 5.1a7.664 7.664 0 0 0 3.34-2.84c-6.19-6.397-15.015-5.892-16.585-2.26z" fill="#dab2b6"/>
 <path transform="translate(-927.6 -222.42)" d="m1093 305.3a2.091 2.091 0 0 1-1.731 2.371c-1.088 0.026-1.828-1.02-1.858-2.309-0.033-1.409 0.774-2.322 1.731-2.345 1.023-0.026 1.825 0.883 1.858 2.283z" fill="#fff"/>
 <path transform="translate(-930.12 -239.96)" d="m1094.9 341.94c2.851 4.113 6.128 5.519 8.631 4.719a5.851 5.851 0 0 0 3.066-2.556c-2.897-3.79-8.675-3.922-11.697-2.163z" fill="#dab2b6"/>
 <path transform="translate(-924.09 -257.93)" d="m1081.9 379.78a9.255 9.255 0 0 0 1.171 4.646 7.756 7.756 0 0 0 3.035-4.785 16.954 16.954 0 0 1-4.206 0.139z" fill="#fff"/>
 <path transform="translate(-905.7 -261.6)" d="m1042.2 387.56a7.855 7.855 0 0 0 2.291 4.883 5.016 5.016 0 0 0 2.348-3.618 11.556 11.556 0 0 1-4.639-1.265z" fill="#fff"/>
 <path transform="translate(-906.49 -257.75)" d="M1064.225,379.6c-.848-.067-1.735-.167-2.7-.338-4.767,4.051-9.609,6-13.917,5.729a5.015,5.015,0,0,1-2.346,3.607,6.209,6.209,0,0,1-1.379-1.846c.167,8.773,2.632,16.682,5.919,17.194,4.133.644,10.09-4,15.277-20.463A10.555,10.555,0,0,1,1064.225,379.6Z" fill="#846387"/>
 <path transform="translate(-906.83 -268.38)" d="m1044.6 402.69c0.84 6.433 2.921 11.476 5.522 11.882 2.353 0.367 5.3-0.984 8.354-5.25-1.352-5.567-8.739-8.341-13.876-6.632z" fill="#ba8cbd"/>
 <path transform="translate(-906.83 -268.38)" d="m1044.6 402.69c0.136 1.038 0.387 2.548 0.584 3.5 3.571-1.346 10.488 0.551 12.427 4.259 0.288-0.353 0.576-0.723 0.866-1.127-1.353-5.567-8.74-8.341-13.877-6.632z" fill="#a17aa4"/>
 <g fill="#0d131a">
  <path transform="translate(-888.72 -235.38)" d="m1015.5 337.94c2.08 5.659 0.9 9.537-1.305 10.306-2.5 0.869-5.456-1.083-7.63-6.994-1.909-5.191-0.89-9.3 1.305-10.106 2.505-0.92 5.749 1.678 7.63 6.794z"/>
  <path transform="translate(-930.39 -224.91)" d="m1102.7 314.78c1.82 5.162 0.615 8-0.6 8.433-1.764 0.622-3.986-1.454-5.644-6.157-1.789-5.073-1.01-8.076 0.379-8.567 1.661-0.585 4.174 1.496 5.865 6.291z"/>
  <path transform="translate(-880.66 -227.76)" d="m1015 341.27c-0.768 4.09-2.816 7.313-5.729 8.5-6.246 2.537-14.688-2.534-18.907-12.914-4.574-11.253-1.895-20.577 5-22.317l3.19 1.1c-8.544-0.335-10.792 9.857-6.464 20.5 4.372 10.757 12.219 14.03 16.621 12.239 3.464-1.408 5.409-5.922 5.338-11.284z"/>
  <path transform="translate(-876.12 -227.2)" d="m1008.1 327.12c5.541 11.691 2.951 22.436-4.092 25.774-6.955 3.3-16.941-0.192-22.924-12.812-4.684-9.884-3.663-21.861 4.585-25.77 6.215-2.944 16.56 0.42 22.431 12.808zm-1.874 0.982c-5.944-12.542-15.081-14.453-19.789-12.222-6.611 3.133-8.211 13.329-3.5 23.265 5.855 12.352 15.076 14.736 20.328 12.246 4.827-2.289 8.582-11.43 2.961-23.289z"/>
  <path transform="translate(-924.92 -218.69)" d="M1102.739,321.577a7.333,7.333,0,0,1-4.228,4.528c-4.284,1.369-10.076-2.459-13.408-12.893-2.5-7.821-1.7-15.306,1.815-18.245l3.167-.016c-4.671.992-6.061,8.724-3.2,17.693,3.062,9.593,7.98,13.05,11.173,12.031,1.786-.57,3.464-2.42,4.164-6.22Z"/>
  <path transform="translate(-922.36 -217.65)" d="m1100.6 310.82c1.886 12.14-1.638 19.934-7.728 20.88-5.151 0.8-12.565-6.7-14.254-17.571-1.72-11.074 1.351-20.329 7.988-21.36 5.558-0.856 12.345 7.439 13.994 18.051zm-2.04 0.305c-1.856-11.951-8.419-17.137-11.666-16.637-4.84 0.752-7.99 7.8-6.2 19.324 1.746 11.241 8.414 16.752 11.91 16.208 4.125-0.639 7.889-6.447 5.956-18.894z"/>
  <path transform="translate(-916.41 -248.28)" d="m1065.3 361.05c0.352-1.406 7.4-2.966 8.174-1.887 0.9 1.241-0.75 6.046-2.48 6.6-1.798 0.581-6.1-3.09-5.694-4.713zm1.488 0.4c-0.087 0.362 3.048 3.351 3.835 3.1 1-0.32 2.017-4.016 1.726-4.377-0.27-0.335-5.47 0.894-5.562 1.273z"/>
  <path transform="translate(-904.2 -253.73)" d="m1039.6 379.67c-1.263-1.193-0.676-1.874 0.8-0.961 3.815 2.36 10.327 2.319 17.932-3.766a1.624 1.624 0 0 1 1.664-0.373c4.6 0.65 9.373-0.172 11.094-3.081 0.863-1.457 1.7-1.08 1.111 0.509-1.52 4.119-7.432 5.012-12.785 4.051-7.986 6.962-16.017 7.207-19.816 3.621z"/>
  <path transform="translate(-905.06 -261.21)" d="M1046.887,388.567a5.271,5.271,0,0,1-2.234,3.7c-.781.543-1.068.47-1.672-.137a8.37,8.37,0,0,1-2.191-5.423l1.494.8a7.062,7.062,0,0,0,1.607,3.724,4.122,4.122,0,0,0,1.562-2.748Z"/>
  <path transform="translate(-923.45 -257.66)" d="M1086.2,379.059a7.891,7.891,0,0,1-2.9,5.194c-.841.693-1.209.749-1.771-.336a8.911,8.911,0,0,1-1.041-4.53l1.427.082a8.806,8.806,0,0,0,.681,3.667,6.485,6.485,0,0,0,2.133-3.839Z"/>
  <path transform="translate(-905.81 -260.48)" d="m1044 390.6c0.336 7.834 2.634 14.906 5.227 15.345s8.8-1.983 14.591-20.81l1.167 1.885c-5.524 18.552-13.026 20.847-15.983 20.381-4.172-0.65-6.74-9.792-6.6-19.281z"/>
  <path transform="translate(-906.7 -267.73)" d="m1057.8 409.38c-1.25-5.56-8.434-8.192-13.292-6.611l-0.192-1.413c5.452-1.842 12.881 1.014 14.542 6.561z"/>
  <path transform="translate(-878.85 -193.09)" d="M984.233,241.285a75.343,75.343,0,0,1,13.066-1.536c30.368-1.009,55.424,14.913,60.816,40.532.7,3.339-.309,3.6-1.262.327-7.142-24.54-30.311-40.21-59.511-39.277a69.232,69.232,0,0,0-11.438,1.305Z"/>
 </g>
 <g fill="none">
  <path transform="translate(-884 -232.86)" d="m1001.6 328.6a3.066 3.066 0 0 1-2.876 3.577 3.163 3.163 0 0 1-3.338-3.194 3.065 3.065 0 0 1 2.832-3.439 3.132 3.132 0 0 1 3.382 3.056zm-1.25 0.087a2.01 2.01 0 0 0-2.059-2.117c-1.126 0.081-1.762 0.914-1.662 2.326 0.109 1.516 1.04 2.3 2.031 2.225 1.047-0.075 1.788-1.039 1.689-2.435z"/>
  <path transform="translate(-927.06 -221.97)" d="m1088.3 304.92a2.527 2.527 0 0 1 2.337-2.878c1.41-0.039 2.46 1.054 2.5 2.79a2.534 2.534 0 0 1-2.349 2.9c-1.408 0.034-2.444-0.931-2.488-2.812zm3.584-0.057c-0.027-1.167-0.466-1.789-1.2-1.789-0.646 0-1.168 0.551-1.14 1.8 0.029 1.156 0.538 1.861 1.222 1.82 0.624-0.013 1.149-0.498 1.118-1.831z"/>
  <path transform="translate(-940.94 -225.88)" d="M1118.409,326.44a73.042,73.042,0,0,0,.112-15.959l1.706,4.383c.368,5.354-.2,12.85-2.012,16.8Z"/>
  <path transform="translate(-866.89 -206.82)" d="M981.933,330.555c-11.04-1.189-23.794-18.791-23.5-20.581.239-1.474,8.65-10.379,13.753-12.868-2.779-4.969-5.294-17.658-4.342-18.9.867-1.135,25.15-.944,39.038,7.827,1.1-7.8,8.675-16.659,11.868-16.685,2.145-.017,10.953,7.507,12.533,12.679a34.267,34.267,0,0,1,9.619.367l.959,1.929a40.778,40.778,0,0,0-10.4-.793c-1.082.055-1.288-.089-1.655-1-2-4.984-9.643-11.237-11.015-11.226-2.176.018-8.982,8.012-10.4,15.219-.349,1.776-.8,1.788-2.092,1.005-13.957-8.467-36.4-8.6-36.827-7.987-.37.53,1.478,11.384,4.073,16.871.525,1.11.415,1.468-.791,2.126-5.022,2.742-12.456,10.682-12.538,11.675-.1,1.142,10.259,14.917,19.256,18.108Z"/>
  <path transform="translate(-932.78 -250.32)" d="m1102 363.51a6.784 6.784 0 0 1-0.082 1.614c-0.293 1.655-1.231 1.566-1.147 0.021a8.708 8.708 0 0 0-0.116-1.926z"/>
  <path transform="translate(-901.08 -257.13)" d="M1032.963,377.91a8.39,8.39,0,0,0,1.484,2.069c1.319,1.358.641,2.1-.759.871a7.42,7.42,0,0,1-1.482-1.746Z"/>
 </g>
</svg>
