<?xml version="1.0" encoding="UTF-8"?>
<svg version="1.1" viewBox="0 0 53.966 69.897" xmlns="http://www.w3.org/2000/svg">
 <g>
  <path d="m30.857 14.688c-0.98989 0.16404-2.2952 0.889-2.8815 1.8852 0.10724 0.05045 0.22119 0.13194 0.29633 0.20144 0.42862-0.15099 0.91264-0.266 1.3832-0.35031 0.11112-0.61383 0.39476-1.3201 1.2019-1.7364" fill="#d35336"/>
  <path d="m27.826 16.392c0.77717-1.228 2.4253-2.1177 4.1984-2.0803l-1.4231 0.66358c-0.83044 0.22966-1.7254 0.81068-2.4084 1.6708z" fill="#0f141b"/>
  <path d="m50.796 20.096c-1.8648-2.3103-5.678-2.7944-10.127-1.4189-2.1855-2.0401-5.8275-4.0428-8.6476-4.1127-1.5275-0.0381-2.1403 0.85231-2.3664 1.8591-0.47166 0.09842-1.034 0.23389-1.3829 0.35031-1.2425-1.1539-3.1492-1.4863-4.8436-0.91158-7.0676 2.3975-9.9032 19.224-6.4992 21.542 3.9296 2.6758 13.304-1.01 19.583-6.864 7.8204-7.2905 12.009-7.6006 13.922-6.4114 0.83996 0.52246 1.0015 2.0962 0.37536 3.8573 1.8694-3.0279 1.6926-5.7767-0.01341-7.8902" fill="#fffce4"/>
  <path d="m44.74 21.007c-0.49565-0.51611-1.2203-1.0481-1.8041-1.2735-0.57044 0.26529-1.1938 0.69003-1.6979 1.2072 1.0612-0.07973 2.3611-0.06632 3.502 0.06632" fill="#29343d"/>
  <path d="m50.511 19.78c-0.44309-0.46179-0.97367-0.8382-1.5801-1.1285 0.01658 0.57432 0.01658 1.216-0.03845 1.7314 0.45297-0.08819 1.0432-0.31538 1.6185-0.6029" fill="#29343d"/>
  <path d="m50.81 27.987c0.62618-1.7614 0.46496-3.3352-0.37536-3.8573-1.9131-1.1892-6.1009-0.87912-13.922 6.4114-5.1664 4.8165-12.426 8.1615-17.026 7.7068 4.414 4.9202 13.46 7.4133 19.779 7.081 4.3776-0.23072 7.022-1.3554 8.3023-3.4332-0.73766-0.7433-0.85302-1.8581-0.75318-3.1334 0.04092-0.52529 0.25082-1.113 0.50059-1.5766-0.96979-0.8696-2.2267-1.7304-3.81-2.4306 3.6033-2.3125 5.9722-4.6108 7.3039-6.768" fill="#91331e"/>
  <path d="m39.266 45.328c-6.3193 0.33479-15.365-2.1604-19.779-7.081-0.99095-0.09772-1.6683-0.4318-2.3647-0.90593-3.7165-2.5308-0.55562-18.677 5.9775-21.356-5.4021 2.0846-13.446 11.963-12.065 20.527 2.2165 13.735-1.4993 17.786-9.8982 19.254-0.90487 0.15804-1.1148 0.45896-0.70062 1.0823 4.5494 6.8478 16.532 9.2135 28.515 8.3213 10.959-0.81562 17.726-5.6568 19.745-13.934-0.10442 0.0049-0.20391 0.0042-0.2914-0.0067 0.03528-0.40605 0.18768-1.0315 0.3803-1.5565-0.2279 0.07691-0.47484 0.10971-0.69039 0.0635-0.05786-0.76588 0.20179-2.051 0.7239-3.1669 0.375-0.80151 0.375-1.9004 0.11642-3.1542 0.66569-0.67874 1.0319-1.4485 0.95638-2.3848-0.0441-0.5461-0.47801-1.5081-1.3575-2.576-0.37394 5.2811-4.083 6.5991-9.2678 6.8739" fill="#d35336"/>
  <path d="m47.824 51.049c-1.778 0.87665-6.1496 1.7413-8.6339 1.6073-0.41381 2.3139-1.1691 5.2973-1.9971 7.2824 2.1918 0.24342 6.381-0.63324 8.5485-1.851 1.1324-1.5589 2.1435-4.7981 2.0824-7.0386" fill="#fddc6b"/>
  <path d="m5.1477 54.702c0.056092 0.40076 0.13864 0.89288 0.21272 1.2647 1.7321-0.18098 4.1755-2.4042 5.0673-3.9684 0.05785-0.58102 0.02187-1.2485-0.05433-1.8299-1.0873 2.2059-2.8497 3.61-5.2257 4.5335" fill="#fddc6b"/>
  <path d="m32.058 34.011c-4.3688 2.849-9.1888 4.5709-12.572 4.2365 4.414 4.9202 13.46 7.4133 19.779 7.081 3.2734-0.17251 5.5771-0.84526 7.0668-2.0422 0.94156-2.9478-4.2012-8.3718-14.274-9.2752" fill="#ed8599"/>
 </g>
 <g fill="#fffce4">
  <path d="m30.282 44.246c1.6341 0.44732 3.2868 0.762 4.8793 0.93909-0.19756-1.881-1.0799-3.732-1.7699-3.8442-0.67557-0.11007-2.1643 1.053-3.1094 2.9051"/>
  <path d="m50.434 24.129c-1.1257-0.69991-3.0402-0.87842-6.0177 0.57679 1.053 1.8979 3.4117 3.4459 3.9317 3.3443 0.46672-0.09102 1.8842-1.7198 2.3629-3.6837-0.0822-0.09384-0.17427-0.17357-0.27693-0.23742"/>
  <path d="m48.108 36.358c-0.3877-0.06456-1.2069 1.3081-1.2926 2.4042-0.09984 1.2767 0.01588 2.3922 0.7553 3.1358 0.46531-0.75494 0.75177-1.6344 0.87348-2.6444 0.25259-2.1004-0.0071-2.8406-0.3362-2.8956"/>
 </g>
 <g fill="#dcdac6">
  <path d="m19.642 38.262c4.6076 0.3556 11.769-2.9651 16.871-7.7212 7.8204-7.2905 12.009-7.6006 13.921-6.4114 0.84032 0.52211 1.0019 2.0962 0.37536 3.8573 0.57785-0.93592 0.9592-1.8447 1.1613-2.7167-0.63359-4.2453-7.6888-3.7779-16.219 4.4954-4.293 4.1635-11.395 7.8507-16.111 8.4967"/>
  <path d="m49.607 23.767c-0.13194 1.4199-0.64629 3.0007-1.3991 4.2781 0.46778 0.07761 1.9579-1.4404 2.5033-3.6788-0.24624-0.2801-0.62865-0.46073-1.1042-0.59937"/>
  <path d="m48.077 36.359c0.01834 1.8306-0.4385 3.5306-1.1511 4.3508 0.11853 0.45508 0.31821 0.85901 0.64488 1.1874 0.46531-0.75494 0.75177-1.6344 0.87312-2.6444 0.25718-2.1396-0.0011-2.8988-0.36689-2.8938"/>
  <path d="m33.314 41.337c0.41522 1.1187 0.72884 2.5142 0.71967 3.6992 0.37818 0.05644 0.75459 0.10689 1.1271 0.14852-0.2219-2.1131-1.1561-3.8283-1.8468-3.8477"/>
 </g>
 <g>
  <path d="m32.058 34.011c-4.3688 2.849-9.1888 4.5709-12.572 4.2365 1.7117 1.9078 4.1212 3.4491 6.7966 4.6038 2.038-4.7191 8.6702-8.0028 17.002-4.9982-2.4285-1.8249-6.2177-3.3927-11.228-3.8421" fill="#ce7486"/>
  <path d="m34.578 55.133c-0.32456 0.10971-0.64452 0.15981-0.94121 0.18838 0.07056 0.17392 0.13652 0.37641 0.17674 0.52917 1.0082 0.14217 3.3196 0.19544 4.6662 0.16792 0.08996-0.35454 0.18662-0.77646 0.28116-1.2139-1.3451 0.3563-2.758 0.48472-4.1829 0.32844" fill="#b6472d"/>
  <path d="m48.818 43.156c-0.44626 0.42616-0.75918 1.0224-0.86078 1.7935-0.36759 2.7933-1.9833 5.4091-4.2721 7.3 1.5512-0.28399 3.0681-0.6918 4.1166-1.1613 0.02822 1.0717-0.17462 2.9326-0.53587 4.1282 0.57538-1.0432 1.2351-3.096 1.4284-3.9807-0.07726 0.0064-0.17074-7.05e-4 -0.28928-0.0067 0.03351-0.43462 0.22013-1.2686 0.37994-1.5565-0.20673 0.05609-0.4699 0.07373-0.69039 0.0635-0.04551-1.1056 0.24871-2.2073 0.7239-3.1669 0.46461-0.93804 0.47413-2.2818-3.53e-4 -3.4131" fill="#b6472d"/>
  <path d="m47.824 51.049c-0.90382 0.44591-2.479 0.88759-4.1349 1.1977-1.4302 1.1825-3.1231 2.0821-4.9417 2.5619-0.41804 1.8157-0.96767 3.7236-1.5543 5.1301 2.0006 0.22225 5.6646-0.4886 7.9368-1.5402 1.7357-2.0609 2.6868-3.8724 2.6942-7.3494" fill="#dabe5d"/>
  <path d="m37.194 59.938c0.45896-1.1003 0.89429-2.5075 1.2626-3.9374-1.9449 0.0321-3.702-0.0127-4.9096-0.14005l-12.306 2.4134c-7.6669 3.5564-16.284 2.2624-19.903-0.23848 5.0913 5.933 16.352 7.9728 27.613 7.1346 7.2429-0.53904 12.652-2.8388 16.071-6.725-2.2789 1.0252-5.8589 1.7117-7.8288 1.493" fill="#dcdac6"/>
 </g>
 <g fill="#b6472d">
  <path d="m21.223 55.799c-3.9553 3.0505-15.641 4.0072-20.501 1.3702 0.20673 0.3877 0.40428 0.64805 0.61595 0.86678 4.7872 3.2438 13.74 3.1655 19.902 0.23812-0.17251-0.69144-0.25012-1.6478-0.01729-2.4751"/>
  <path d="m24.705 51.809c3.0473 1.9449 9.0371 3.1037 12.637 1.6803-2.1512 3.4438-11.759 1.3-12.637-1.6803"/>
  <path d="m48.94 43.443c0.25294 1.2421 0.25082 2.3312-0.12136 3.1267-0.52211 1.1158-0.78176 2.401-0.7239 3.1669 0.21555 0.04621 0.46249 0.01341 0.69039-0.0635-0.19262 0.52493-0.34502 1.1504-0.3803 1.5565 0.15311 0.01905 0.33902 0.0127 0.53446-0.01446-0.12594 0.34078-0.17815 0.72919-0.21096 1.0552 0.92957 0.22331 2.6769-0.58067 2.7143-3.3867 0.03528-2.6465-0.88124-4.6553-2.5026-5.4405"/>
 </g>
 <g>
  <path d="m51.666 47.012c-0.09737-0.0064-0.21661 0.11077-0.32667 0.29598 0.07408 0.49389 0.11112 1.0195 0.10372 1.5752-0.0049 0.37888-0.04339 0.71861-0.10478 1.0269 0.69674 0.39405 1.5505 0.52846 1.7074 0.38206 0.47202-0.43956-0.77117-3.2396-1.3797-3.2801" fill="#363e4c"/>
  <path d="m52.928 50.339c-0.29563 0.05292-0.99871-0.09419-1.5903-0.42862-0.39194 1.9748-1.8055 2.5531-2.6098 2.3597 0.03316-0.32561 0.08537-0.71438 0.21131-1.0552-0.08467 0.01164-0.16581 0.01764-0.24483 0.02152-1.1599 4.7519-3.8848 8.3718-8.0701 10.747 3.9081 0.5842 9.7204 0.3496 10.818-0.4385 2.2867-1.6415 2.8007-7.964 1.4855-11.206" fill="#b6472d"/>
  <path d="m28.353 16.068c-0.67698-8.4254-7.8966-13.659-12.638-15.775-1.7321 1.8613-2.7922 5.0412-2.5594 7.9107 5.5086 0.30727 10.662 3.4092 12.837 6.459-2.9281-2.7393-6.7758-3.8104-10.277-3.3048-0.10372 0.95638-0.02611 2.6885 0.25823 3.8259 2.1717-0.47907 5.3922-0.45156 7.9597 0.53799 1.4351-0.33055 2.9524-0.03598 4.0594 0.82515 0.1016-0.16792 0.22331-0.32808 0.36054-0.47907" fill="#fddc6b"/>
  <path d="m26.389 15.78c-1.6436-3.368-7.4411-6.9162-13.093-7.2503-0.35878-0.021167-0.45508-0.11254-0.47696-0.48119-0.17039-2.8586 0.82762-5.9161 2.5679-7.8655 0.20249-0.22684 0.35454-0.21872 0.60537-0.10442 3.4572 1.5713 7.0753 4.1854 9.549 7.6729 1.9918 2.8074 2.9926 6.1295 3.1097 8.9397l-0.5087 0.07267c-0.12453-2.9845-1.2615-6.1288-3.091-8.673-2.4179-3.3627-5.9118-5.8667-9.2643-7.4136-1.56 1.7784-2.4906 4.8518-2.3523 7.258 5.5912 0.32738 11.847 4.0954 13.514 7.928z" fill="#f2972c"/>
  <path d="m23.598 15.832c-1.9981-0.64311-5.0105-0.85513-7.439-0.36266-0.3743 0.07585-0.44097 0.02469-0.51647-0.29422-0.28787-1.2171-0.36266-2.6755-0.29422-3.7532 0.02011-0.31538 0.12312-0.37112 0.44979-0.41099 3.5701-0.43568 7.3318 0.73942 9.9293 3.1316l0.48966 1.0301c-2.6151-2.6441-6.6774-3.9917-10.22-3.5359-0.09243 0.82374 0.03351 2.317 0.22437 3.1718 2.1943-0.42827 5.8974-0.24412 8.11 0.83432z" fill="#f2972c"/>
 </g>
 <g fill="#0f141b">
  <path d="m50.233 28.743c0.9204-2.002 0.78564-3.8336-0.0063-4.3261-1.7201-1.0689-5.9944-0.63853-13.507 6.3641-5.291 4.9329-12.052 7.9506-16.658 7.8186-2.6021-0.07479-4.5724-1.3585-4.8577-4.7396-0.49883-5.9147 2.4991-16.346 8.1326-18.266 1.8203-0.62054 3.6922-0.25894 4.996 0.89747 0.30551-0.11007 0.73307-0.20355 1.1172-0.2861 0.21943-1.0982 1.0322-1.929 2.5742-1.8937 2.975 0.07408 6.7751 2.2105 8.9521 4.2693l-0.6163 0.20673c-1.9823-1.7889-5.5407-3.8993-8.3435-3.9691-1.18-0.03316-1.802 0.5648-2.0944 1.5589-0.05856 0.20002-0.10407 0.26317-0.33584 0.31503-0.34149 0.07691-0.76165 0.18591-1.0978 0.28504-0.23248 0.06844-0.32314 0.04022-0.48401-0.09631-1.1377-0.96414-2.8868-1.3279-4.4856-0.76024-5.3086 1.8849-8.0546 12.087-7.6228 17.638 0.21872 2.812 1.7494 4.1314 4.1652 4.2139 4.4598 0.1524 11.304-3.0639 16.249-7.6736 7.19-6.7021 11.841-7.9978 14.317-6.4587 0.83361 0.51858 1.1187 2.0179 0.65193 3.4473z"/>
  <path d="m48.979 51.223c-1.8221 8.3157-8.6628 13.415-20.013 14.26-11.041 0.82162-23.874-0.9719-28.706-8.5019-0.50412-0.78564-0.30198-1.2192 0.85372-1.4379 7.9781-1.5102 11.889-5.2507 9.5966-18.985-1.5081-9.0353 7.075-19.151 12.627-20.965l-1.4549 1.3187c-4.8983 2.9002-11.824 11.864-10.539 19.569 2.2617 13.549-1.4185 18.101-10.17 19.505-0.74119 0.11889-0.86042 0.29986-0.54575 0.75248 5.0066 7.2044 17.772 8.8992 28.303 8.1157 10.564-0.78634 17.298-5.3643 19.468-13.648z"/>
  <path d="m48.565 38.046c1.0164 1.1663 1.5565 2.2821 1.6125 2.9771 0.08749 1.0855-0.32279 1.8387-0.96238 2.4726 0.31856 1.4139 0.23989 2.3382-0.16157 3.1962-0.45191 0.9659-0.73096 2.1519-0.73413 2.8275 0.2988-0.0018 0.57997-0.07444 0.79234-0.1905 0.40852-0.22366 0.5521-0.0194 0.18838 0.27129-0.40076 0.31997-0.92922 0.42157-1.3074 0.3683-0.07232-0.01023-0.12065-0.0762-0.12982-0.14887-0.10901-0.85937 0.18627-2.3156 0.68545-3.3828 0.32844-0.70132 0.37994-1.5441 0.14217-2.8459-0.03634-0.19932-0.0042-0.28963 0.127-0.43498 0.54116-0.59902 0.84173-1.258 0.77152-2.1082-0.04057-0.49389-0.39688-1.2961-1.106-2.2056z"/>
  <path d="m47.159 37.43c-0.89147-0.80574-2.0405-1.6161-3.4689-2.3146-0.51894-0.25365-0.52176-0.4198-0.062441-0.72708 8.0095-5.3569 9.7028-10.583 6.8742-14.087-3.5719-4.4256-14.82-1.7882-23.798 8.4332-0.68404 0.77858-0.93204 0.55245-0.27869-0.25153 8.4892-10.444 20.647-13.539 24.663-8.5626 3.1852 3.9469 1.0926 9.6509-7.094 14.798 1.3709 0.61524 2.5164 1.3868 3.4343 2.1915z"/>
  <path d="m49.009 49.593c-0.21096 0.53552-0.3369 1.1172-0.35384 1.4252 0.24483 0.012 0.54539-0.02187 0.83926-0.10689 0.45826-0.13229 0.55069 0.13159 0.10936 0.31186-0.36936 0.15134-0.82973 0.22895-1.2855 0.21661-0.0889-0.0025-0.15593-0.09031-0.14393-0.17851 0.0762-0.55598 0.2166-1.0986 0.3937-1.5254z"/>
  <path d="m49.05 43.24c1.6672 0.70802 2.7136 2.8384 2.6755 5.6522-0.03881 2.9704-1.8648 3.907-3.0999 3.5825-0.07973-0.02117-0.13441-0.09525-0.12559-0.17745 0.03598-0.34466 0.11042-0.74859 0.21766-1.0612l0.43145-0.05574c-0.09948 0.31362-0.15099 0.61066-0.17674 0.89429 0.78952 0.06068 2.1541-0.79834 2.1862-3.2064 0.03351-2.5202-0.80962-4.3868-2.2038-5.1442z"/>
  <path d="m40.896 61.763c3.3087 0.40958 9.2318 0.30374 10.35-0.51012 2.0973-1.5258 2.5248-7.8585 1.591-10.991l0.4893-0.49671c1.1426 3.4618 0.85549 10.244-1.7064 12.075-1.2301 0.87877-7.2644 1.0887-11.351 0.35631z"/>
  <path d="m51.363 49.618c0.71367 0.44591 1.3176 0.53234 1.4866 0.41381 0.30374-0.21343-0.82726-2.8631-1.1959-2.8116-0.11077 0.01552-0.21943 0.13582-0.28434 0.39441l-0.14852-0.65299c0.11183-0.18909 0.21696-0.2607 0.40958-0.25259 0.78599 0.03281 2.195 3.1676 1.5875 3.7169-0.28928 0.26141-1.228 0.07126-1.9389-0.34255z"/>
  <path d="m46.034 57.181c0.87348-1.6104 1.5289-3.9543 1.5663-5.7746-1.9322 0.87912-5.8505 1.6066-8.225 1.4841-0.3302 2.0225-1.0089 4.795-1.8563 6.846 1.9332 0.10125 5.4621-0.59655 7.8479-1.7127l-0.76623 0.8756c-2.0366 0.87066-5.1484 1.4912-7.1773 1.2915-0.45755-0.0448-0.51082-0.16404-0.35736-0.55104 0.83714-2.1075 1.506-4.9089 1.8803-6.9042 0.05327-0.28399 0.10795-0.31009 0.42862-0.30409 2.5065 0.04586 6.3175-0.69215 8.1149-1.4831 0.41063-0.18062 0.56198-0.12241 0.56303 0.33267 0.0025 1.1261-0.23178 2.4373-0.6096 3.6703z"/>
  <path d="m38.39 56.266c-1.5258 0.05574-3.1979 0.03034-4.4976-0.10195l-0.15099-0.55915c1.4683 0.14182 3.1291 0.20002 4.7833 0.15099z"/>
  <path d="m21.206 58.601c-7.3505 3.4283-15.701 2.2906-19.354 0.020461l-0.79975-1.0615c3.4576 2.6726 12.506 4.0167 20.082 0.44697z"/>
  <path d="m36.798 52.965c0.25082 0.08079 0.51611 0.21343 0.71579 0.38206 0.16334 0.13794 0.17039 0.25259 0.0032 0.45085-2.5132 2.9746-10.031 2.2401-12.922-1.578-0.42968-0.56727-0.1845-0.77152 0.29069-0.24165 2.9164 3.2519 9.6121 4.1956 12.214 1.5998-0.18098-0.15028-0.44979-0.29316-0.75988-0.34643z"/>
  <path d="m36.627 51.616c0.26776 0.13511 0.56656 0.37888 0.81986 0.63641 0.17251 0.17568 0.18274 0.24659 0.0254 0.42721-0.27552 0.31715-0.63041 0.54786-1.0686 0.68862-0.53869 0.17321-0.60325-0.07655-0.11748-0.30903 0.32808-0.15699 0.57714-0.32068 0.76341-0.56974-0.24306-0.27129-0.54257-0.50765-0.95532-0.74119z"/>
  <path d="m36.113 51.562c0.37959-0.06138 0.68051-0.16192 0.94897-0.31856-1.7685-2.9422-6.839-4.59-11.271-3.525-0.70661 0.17004-0.79199-0.16087-0.09454-0.36266 4.5699-1.3208 10.007 0.38629 11.81 3.7525 0.133 0.248 0.08467 0.35454-0.11571 0.46284-0.35595 0.19226-0.7874 0.29598-1.2527 0.32032-0.5969 0.0314-0.60325-0.23566-0.02434-0.32949"/>
  <path d="m5.3626 54.619c0.047625 0.34643 0.10971 0.75283 0.1778 1.0858 1.5155-0.31997 3.7543-2.2154 4.663-3.7842 0.05186-0.49107 0.04515-0.91122-0.0127-1.4122l0.35207-0.7045c0.11324 0.81104 0.16581 1.4637 0.12524 2.0451-0.01235 0.17498-0.05256 0.28434-0.14217 0.4318-0.91758 1.5102-3.1602 3.5913-4.9361 3.8858-0.36336 0.05997-0.42721 0.02822-0.50024-0.38065-0.06103-0.33972-0.11148-0.69321-0.15663-1.0118z"/>
  <path d="m19.878 38.278c4.2146 4.5173 13.061 7.0866 19.372 6.755 6.0067-0.31609 8.4956-2.2408 8.9235-5.799 0.23883-1.9883 0.07444-2.6247-0.09454-2.6381-0.15099-0.01164-0.90276 0.96414-0.99766 2.1855-0.13406 1.7131 0.14605 2.3354 0.6477 2.9044l-0.31609 0.40217c-0.6036-0.52599-1.0058-1.4143-0.85513-3.3454 0.1076-1.3804 1.052-2.7107 1.578-2.6254 0.56797 0.09454 0.79728 1.1733 0.55492 3.1877-0.47449 3.9476-3.3757 6.0138-9.4089 6.331-6.7169 0.35454-15.836-2.298-20.196-7.4401z"/>
  <path d="m32.32 33.816c9.8182 0.86995 15.066 6.187 14.314 9.2481l-0.64699 0.45791c1.1924-2.7951-3.7423-8.2868-14.199-9.3137z"/>
  <path d="m29.986 44.167c0.98989-1.8757 2.5993-3.2008 3.4368-3.0625 0.85443 0.14111 1.827 2.1654 2.0232 4.0936l-0.59161-0.07126c-0.15593-1.8535-1.0728-3.4724-1.5134-3.5496-0.50271-0.08784-1.9255 1.0566-2.7735 2.7524z"/>
  <path d="m50.925 24.661c-0.43674 1.7755-1.9491 3.5528-2.5418 3.6364-0.63853 0.09031-3.0011-1.3116-4.2637-3.4519l0.57432-0.26988c0.8823 1.8221 3.2216 3.2861 3.6135 3.2318 0.37747-0.05256 1.8253-1.8299 2.1526-3.6756z"/>
  <path d="m44.2 20.766c-0.18168-0.18168-0.83785-0.63747-1.2555-0.79728-0.43215 0.20496-0.9264 0.53799-1.1098 0.72214 0.55809-0.0515 1.8186-0.02575 2.3654 0.07514m0.33161 0.40852c-0.96026-0.09208-2.0443-0.09455-3.0484-0.02858-0.54328 0.03563-0.63006-0.15734-0.23671-0.51717 0.44838-0.41028 0.95391-0.77117 1.4647-1.0301 0.19579-0.09913 0.24659-0.10054 0.44203-0.0092 0.54434 0.25506 1.168 0.73096 1.5903 1.1515 0.36019 0.35878 0.26211 0.47907-0.21202 0.43356"/>
  <path d="m50.657 19.952c-0.53305 0.26917-1.0259 0.45156-1.512 0.57044-0.41628 0.10195-0.44909 0.04657-0.42051-0.3877 0.03387-0.51752 0.03422-0.99977-0.01658-1.6069l0.44097 0.2032c0.03175 0.51329 0.01129 1.0093-0.05221 1.4125 0.35384-0.10442 0.79763-0.29316 1.2675-0.53375z"/>
 </g>
 <g>
  <path d="m36.383 60.685c0.88194 4.5558-2.1071 8.236-6.4826 8.848-4.7057 0.65828-8.702-2.0281-9.4294-6.3532-0.70591-4.1959 2.1325-8.2342 6.5987-8.8868 4.856-0.70979 8.5161 2.2733 9.3133 6.392" fill="#d35336"/>
  <path d="m32.182 57.634c-2.2105 0.15522-6.0625 0.67204-8.2987 1.1247 0.12947 1.8743 0.45261 5.1188 0.74965 7.329 2.3012 0.05186 6.2696-0.3877 8.4409-0.82726-0.11642-1.9904-0.50412-5.5453-0.89182-7.6264" fill="#fddc6b"/>
  <path d="m33.899 56.207c-0.57432-2.5273-1.8944-3.9913-3.0222-4.0792-1.2361-0.09596-2.3735 0.42369-3.4823 2.1251 2.6296-0.29845 4.8884 0.49212 6.5045 1.954" fill="#434c5c"/>
  <path d="m26.713 54.354c-1.0432-1.2774-2.7464-1.4841-3.6558-1.1278-1.3077 0.51259-2.2864 2.8307-1.8503 5.1971 1.0449-2.0341 3-3.592 5.5062-4.0693" fill="#434c5c"/>
  <path d="m36.383 60.685c-0.07373-0.38065-0.17216-0.75177-0.29351-1.1112-0.6597 1.3645-1.8034 2.4391-3.218 3.2329 0.09137 0.91899 0.16298 1.7776 0.2025 2.4543-2.1717 0.43956-6.1401 0.87912-8.4409 0.82726-0.06773-0.50306-0.13652-1.0608-0.20426-1.6425-1.3744-0.10866-2.6998-0.38559-3.8721-0.8315 0.91475 4.0689 4.7978 6.555 9.3437 5.9189 4.3755-0.61207 7.3646-4.2922 6.4826-8.848" fill="#b6472d"/>
  <path d="m33.074 65.261c-0.03951-0.67663-0.11112-1.5353-0.20249-2.4543-2.3767 1.3339-5.5203 1.8704-8.4427 1.639 0.06773 0.58173 0.13688 1.1395 0.20426 1.6425 2.3008 0.05186 6.2692-0.3877 8.4409-0.82726" fill="#dabe5d"/>
 </g>
 <g fill="#0f141b">
  <path d="m36.059 60.73c-0.81809-4.2259-4.5794-6.8174-8.9521-6.1782-4.2125 0.61595-7.0168 4.5254-6.332 8.5944 0.72778 4.3261 4.8182 6.7264 9.0971 6.1278 4.173-0.58385 7.0478-4.0979 6.187-8.5439m-15.912 2.5107c-0.74013-4.3988 2.237-8.5351 6.9081-9.2181 4.7378-0.6925 8.7651 2.0948 9.6411 6.6202 0.90734 4.6874-2.1526 8.5065-6.7592 9.1511-4.8017 0.67204-9.0234-1.9953-9.7899-6.5532"/>
  <path d="m24.831 65.864c2.3287-0.01517 5.8769-0.39335 8.0105-0.78599-0.13652-2.0697-0.52423-5.2786-0.84737-7.2041-2.1879 0.19015-5.6875 0.65546-7.8708 1.0696 0.13758 1.7089 0.41875 4.6464 0.70767 6.9204m-0.4385 0.13476c-0.31926-2.28-0.61771-5.1728-0.72778-7.0834-0.01587-0.27093 0.03316-0.3496 0.33373-0.40993 2.3234-0.46426 5.7517-0.91193 8.0038-1.0834 0.30127-0.02328 0.37289 0.04022 0.43039 0.34361 0.40958 2.1572 0.74083 5.3153 0.85584 7.354 0.01587 0.28399-0.03669 0.3362-0.30057 0.3877-2.2652 0.44168-5.8639 0.87136-8.2448 0.80645-0.26211-0.0071-0.31715-0.07585-0.35066-0.31503"/>
  <path d="m33.553 55.919c-0.57926-2.268-1.766-3.4816-2.7002-3.5539-1.1197-0.08714-2.1738 0.41099-3.1595 1.8725l-0.64029 0.03881c1.1123-1.7932 2.4398-2.4821 3.8358-2.3767 1.2097 0.09419 2.7517 1.518 3.3359 4.6454z"/>
  <path d="m20.993 58.719c-0.55739-2.5502 0.44238-5.0998 1.9791-5.7023 1.0199-0.3997 2.7809-0.2159 4.0435 1.2986l-0.57926 0.11853c-1.0213-1.1755-2.4645-1.3233-3.2992-0.9966-1.0943 0.42862-2.008 2.5033-1.7293 4.6644z"/>
 </g>
 <g>
  <path d="m28.503 26.502c0.56797-0.57644 1.1472-1.1282 1.7353-1.6545-0.09419-0.61771-0.36019-1.3959-0.85478-2.3587-1.2541-2.4409-2.4077-3.1567-3.054-2.8653-0.66181 0.29845-0.63465 2.4402 0.23848 4.27 0.65828 1.3804 1.3275 2.2331 1.935 2.6084" fill="#434c5c"/>
  <path d="m38.611 19.424c-1.0435-1.2774-2.2991-2.1491-2.7862-1.8157-0.34114 0.23319-0.23178 1.5388 0.68651 2.7929 0.70873-0.37394 1.4111-0.70379 2.0997-0.97719" fill="#434c5c"/>
  <path d="m28.636 22.693c0.51047 0.97825 0.51223 1.566 0.27023 1.7074-0.26494 0.15522-0.80433-0.20214-1.2993-1.1504-0.45367-0.8696-0.53516-1.5582-0.23918-1.7127 0.24518-0.12771 0.75071 0.16369 1.2682 1.1557" fill="#fffce4"/>
  <path d="m37.792 19.772c-0.40569-0.58385-0.93874-1.094-1.1045-0.98072-0.11748 0.08008-0.0074 0.63818 0.49495 1.27 0.20355-0.09948 0.40746-0.19826 0.6096-0.28928" fill="#fffce4"/>
  <path d="m27.964 26.053c0.18344 0.18838 0.36407 0.34114 0.53904 0.44909 0.54892-0.55704 1.1088-1.0901 1.6768-1.6006-0.82903-0.42827-1.9138-0.04022-2.2158 1.1515" fill="#a6a1ab"/>
 </g>
 <g fill="#0f141b">
  <path d="m27.451 21.697c-0.13053 0.06809-0.08714 0.67522 0.32103 1.4573 0.47096 0.90205 0.90911 1.1712 1.0439 1.094 0.133-0.07796 0.14852-0.51082-0.35207-1.47-0.48824-0.93557-0.88018-1.149-1.0128-1.0813m1.354 0.90593c0.50024 0.9585 0.55668 1.7381 0.18874 1.9537-0.35842 0.20955-0.98884-0.13123-1.5572-1.2199-0.50306-0.96449-0.5655-1.7417-0.15205-1.9572 0.42263-0.22154 1.0058 0.23671 1.5205 1.2234"/>
  <path d="m30.008 25.011c-0.09031-0.69427-0.37218-1.4644-0.85408-2.4028-1.2972-2.5241-2.3548-2.9722-2.74-2.794-0.30903 0.14288-0.60254 1.8983 0.387 3.973 0.60219 1.2619 1.1829 2.1001 1.8217 2.522l-0.2734 0.37253c-0.69532-0.46461-1.3797-1.349-2.014-2.6783-0.86113-1.8048-1.0234-4.1518-0.09031-4.5716 0.75036-0.33937 2.0175 0.31962 3.3708 2.9538 0.44944 0.87489 0.71896 1.6549 0.82832 2.2775z"/>
  <path d="m38.38 19.544c-0.97261-1.2506-2.1135-1.9593-2.4363-1.7635-0.21696 0.13159-0.10195 1.4005 0.78493 2.5164l-0.42968 0.24906c-0.9271-1.2947-1.1063-2.7802-0.59549-3.1073 0.65581-0.4198 2.0627 0.56727 3.1387 1.8955z"/>
  <path d="m37.625 19.862c-0.31256-0.49671-0.74154-0.92075-0.8068-0.88406-0.06315 0.03563 0.13794 0.53022 0.54998 1.0125l-0.34184 0.17956c-0.51153-0.60854-0.69674-1.3518-0.44027-1.5272 0.25929-0.17709 0.86607 0.26282 1.3808 1.052z"/>
  <path d="m50.502 20.301c-3.5719-4.4256-14.819-1.7882-23.798 8.4332-0.68404 0.77858-0.93204 0.5521-0.27869-0.25188 8.4896-10.444 20.647-13.539 24.663-8.5626z"/>
 </g>
</svg>
