<?xml version="1.0" encoding="UTF-8"?>
<!-- Created with Inkscape (http://www.inkscape.org/) -->
<svg version="1.1" viewBox="0 0 206.16 240.68" xmlns="http://www.w3.org/2000/svg">
 <g transform="translate(-5.7014 -25.303)" stroke-width="1.1773">
  <path d="m81.217 75.098c1.7083 1.003 2.4818 2.8926 2.1627 5.5475a49.763 49.763 0 0 1 6.4198 0.66869 12.036 12.036 0 0 0-8.5825-6.2161" fill="#b6472d" data-name="パス 11224"/>
  <path d="m78.369 74.194a12.305 12.305 0 0 1 12.142 6.6988l-1.6106 0.51918a11.758 11.758 0 0 0-7.5559-5.4509z" fill="#0d131a" data-name="パス 11225"/>
  <path d="m128.82 26.395c-21.853 10.18-34.495 28.1-40.087 53.305a12.694 12.694 0 0 1 1.0595 1.5894 31.333 31.333 0 0 1 17.803-4.9211 106.87 106.87 0 0 1 22.824-0.4709 11.807 11.807 0 0 0 0.88766-9.9364 44.801 44.801 0 0 0-30.492 5.9159c7.0214-6.7106 21.363-15.18 34.838-18.869 0.8865-9.8481-2.0402-21.825-6.8283-26.616" fill="#fddc6b" data-name="パス 11226"/>
  <path d="m135.48 54.202a1.4928 1.4928 0 0 0 1.2468-1.5635c0.75818-10.068-2.0132-21.302-6.806-26.675a1.3786 1.3786 0 0 0-1.952-0.42138 67.305 67.305 0 0 0-29.506 26.188 89.935 89.935 0 0 0-10.805 29.056l1.5799 0.24962a84.31 84.31 0 0 1 11.041-28.149 67.406 67.406 0 0 1 28.318-25.215c4.1029 4.8575 6.7212 15.504 6.0996 24.509-13.325 3.9722-28.876 12.66-35.819 20.589-1.9355 2.3028-1.0784 2.9338 1.0384 0.81584 9.695-9.6951 22.939-15.456 35.554-19.389" fill="#f2972c" data-name="パス 11227"/>
  <path d="m102.79 69.837a45.054 45.054 0 0 1 28.245-4.9447c0.89358 0.11747 1.1243 0.30836 1.3775 1.0242a14.139 14.139 0 0 1-0.9242 10.353c-0.38622 0.65223-0.68047 0.75346-1.6082 0.6593a99.003 99.003 0 0 0-19.61-0.06007l-5.04-0.94773a105.45 105.45 0 0 1 24.717-1.096 10.742 10.742 0 0 0 0.62749-7.9174 46.131 46.131 0 0 0-29.786 5.8194" fill="#f2972c" data-name="パス 11228"/>
  <path d="m77.584 142.8c-49.673-21.446-59.994-16.308-62.214-10.084-1.1443 3.2082 0.23539 7.583 4.449 12.165a51.316 51.316 0 0 0 19.723 8.3271 60.841 60.841 0 0 0-7.1074 7.6336c2.3216 3.7792 4.9905 11.158 1.6482 17.054-0.01784-0.0222-0.04456-0.0401-0.06229-0.0588 7.2122 7.9644 20.943 9.6079 33.039 8.964 25.042-1.335 54.441-23.488 61.028-40.708-10.215 3.7886-30.067 5.5333-50.506-3.2964" fill="#922f00" data-name="パス 11229"/>
  <path d="m112.58 77.388c-5.3226-2.3181-16.15-0.72284-22.979 4.0146a29.774 29.774 0 0 0-6.2209-0.75697c0.2781-4.356-1.6223-6.0043-4.9081-5.6087-13.175 1.6023-29.315 11.184-38.79 27.287-16.06 0.0695-28.411 5.6616-31.845 15.965-3.0869 9.2606 1.9626 19.417 11.978 26.589-4.2112-4.5809-5.5933-8.9569-4.449-12.165 2.2192-6.2244 12.542-11.362 62.214 10.084 27.368 11.817 53.685 4.6892 57.225-0.93127 7.1203-11.311-4.6574-56.826-22.224-64.477" fill="#fffce4" data-name="パス 11230"/>
  <path d="m46.375 111.19a15.154 15.154 0 0 0-8.6838-2.4959 25.922 25.922 0 0 0-2.928 6.8201 32.233 32.233 0 0 1 11.612-4.3254" fill="#29343d" data-name="パス 11231"/>
  <path d="m21.056 109.46a26.308 26.308 0 0 0-6.6541 3.8922 22.162 22.162 0 0 0 5.0236 3.5931 17.711 17.711 0 0 1 1.6306-7.4864" fill="#29343d" data-name="パス 11232"/>
  <path d="m128.09 146.09c-13.724 5.0907-33.533 4.0228-50.779-3.4142-23.984 4.9447-42.877 27.172-35.838 40.35 6.0796 2.8255 14.52 4.356 25.59 3.7674 25.042-1.3351 54.441-23.488 61.028-40.708" fill="#ed8599" data-name="パス 11233"/>
  <path d="m106.46 247.8a142.3 142.3 0 0 0 22.23-2.6925c-3.9475-11.679-3.7674-24.613-0.5098-34.043-28.726 17.051-63.618 20.511-83.841 3.5908a68.227 68.227 0 0 0 62.12 33.145" fill="#fffce4" data-name="パス 11234"/>
  <path d="m30.163 158.36c-1.3162 0.20735-1.5034 4.9871-0.82407 9.9305a17.174 17.174 0 0 0 4.7457 9.6068c4.7375-8.3706-2.6301-19.741-3.9239-19.537" fill="#fffce4" data-name="パス 11235"/>
  <path d="m165.12 255.63c9.6244-4.6786 19.237-12.934 19.112-17.915-0.14105-5.684-9.283-20.882-21.751-27.91 19.414 0.20825 43.484-7.1921 48.553-28.422 9e-3 -0.0872 0.0178-0.17442 0.0267-0.26119 0.38846-5.0471-1.0784-5.8771-6.255-4.2583-29.5 9.2265-49.96-5.4662-51.684-36.732-2.0403-37.085-26.819-56.707-40.545-62.75 17.567 7.6524 29.344 53.166 22.225 64.477-0.89594 1.4234-3.2553 2.9433-6.7106 4.2253-6.5858 17.22-35.984 39.372-61.028 40.708-16.718 0.89121-36.57-2.5807-38-21.09-0.65342 1.076-1.2809 2.1709-1.846 3.3035-2.8396 5.6805-2.8055 10.569 4.9671 18.431a13.196 13.196 0 0 1 3.6049 6.6612 75.045 75.045 0 0 0 8.5496 20.549c20.223 16.92 55.115 13.46 83.84-3.5908-3.4989 10.14-3.4636 24.332 1.4563 36.656l15.616 7.7702z" fill="#d35336" data-name="パス 11236"/>
  <path d="m49.2 208.9a55.259 55.259 0 0 0 9.4619 22.671 67.607 67.607 0 0 0 5.9784 4.5679c8.2964 2.4724 20.876 3.1305 30.394 0.3533-2.6607-6.7448-6.6023-17.86-8.692-24.983-10.307 2.2368-27.644 0.85469-37.144-2.6124" fill="#fddc6b" data-name="パス 11237"/>
  <path d="m169.31 174.19a28.69 28.69 0 0 0 1.2774 4.2454c4.6633 5.4909 18.215 7.3205 24.053 5.5333-0.99365-1.215-2.1721-2.895-3.2505-4.4902-8.6025 0.5769-16.07-1.2774-22.08-5.2896" fill="#fddc6b" data-name="パス 11238"/>
  <path d="m17.284 129.82c1.5882 6.2397 6.1055 12.655 8.6767 12.798 2.8255 0.15752 10.949-6.6082 13.822-13.374-13.421-3.2564-19.619-2.0014-22.499 0.57574" fill="#fffce4" data-name="パス 11239"/>
  <path d="m96.999 177.11c-2.9762-3.6932-8.6343-7.1745-11.184-6.421-1.8272 0.5392-4.2477 6.4857-4.8446 13.472a83.353 83.353 0 0 0 16.027-7.0509" fill="#fffce4" data-name="パス 11240"/>
  <path d="m151.35 236.58c-5.4709 1.6412-8.5284 21.627-3.8557 25.739 4.2583 3.7474 17.926-3.36 17.802-7.6525-0.12459-4.3819-11.144-18.926-13.946-18.086" fill="#434c5c" data-name="パス 11241"/>
  <path d="m145.21 254.44c-4.17-9.4879-9.3584-15.99-11.492-15.366-4.695 1.3751-6.5046 22.273-2.6642 25.059 2.6902 1.952 11.412 0.9536 15.079-3.9452a17.404 17.404 0 0 1-0.92303-5.7488" fill="#434c5c" data-name="パス 11242"/>
  <path d="m44.341 214.65a74.194 74.194 0 0 1-6.0337-12.479 38.786 38.786 0 0 1-4.568 10.576 80.463 80.463 0 0 1 7.0638 9.874c8.2788 13.452 9.037 22.796 6.4257 24.403a3.2964 3.2964 0 0 1-2.6807-0.0134l0.0085 0.0179c4.781 1.7977 12.797-2.1262 20.991-10.296a69.126 69.126 0 0 1-21.21-22.087" fill="#d35336" data-name="パス 11243"/>
  <path d="m36.907 198.03a26.427 26.427 0 0 0-9.6539 0.31548v4e-3c1.9673-0.33683 5.6193 7.975 6.2515 14.122l0.23539 0.27676a38.739 38.739 0 0 0 4.5655-10.576c-0.50739-1.3574-0.96771-2.7431-1.401-4.1441" fill="#434c5c" data-name="パス 11244"/>
  <path d="m32.185 187.44a29.941 29.941 0 0 1-5.0895-6.4752c-3.559 1.2809-7.8079 4.2748-8.8674 7.0155a7.5583 7.5583 0 0 0 4.555 0.85473 10.691 10.691 0 0 0-3.2682 4.4031 13.047 13.047 0 0 0 5.7287 0.80174 9.4655 9.4655 0 0 0-2.3546 3.4142 11.618 11.618 0 0 0 3.3953 1.4528c0.92184-0.93006 5.2885-1.4128 10.612-0.92182-0.3978-1.2762-0.77348-2.5654-1.1043-3.8768a13.186 13.186 0 0 0-3.6049-6.6612" fill="#d35336" data-name="パス 11245"/>
  <g fill="#dcdac6">
   <path d="m127.53 146.21c-11.319 2.3546-33.435-1.4281-47.798-7.1957-28.073-11.273-41.24-15.234-55.481-14.883-9.0523 0.22381-13.736 5.3555-12.369 13.132a36.52 36.52 0 0 0 7.9362 7.6183c-4.2112-4.5809-5.5933-8.9569-4.449-12.165 2.2192-6.2244 12.542-11.362 62.214 10.085 16.467 7.1086 38.7 8.2882 49.951 3.4142" data-name="パス 11246"/>
   <path d="m35.113 128.24c-1.4693 5.1201-5.7687 10.798-9.7457 14.245 2.7314 0.98658 11.348-6.0254 14.415-13.236q-2.4982-0.60631-4.6692-1.009" data-name="パス 11247"/>
   <path d="m29.892 158.49c2.311 5.4815 3.1316 11.538 1.5034 15.808a18.353 18.353 0 0 0 2.6925 3.6026c4.9223-8.6967-2.7561-20.485-4.1959-19.41" data-name="パス 11248"/>
   <path d="m85.454 170.86a25.186 25.186 0 0 1 8.6626 7.8043c0.96775-0.50388 1.9308-1.0195 2.8809-1.5564-3.267-4.0534-9.4844-7.576-11.543-6.248" data-name="パス 11249"/>
  </g>
  <path d="m128.09 146.09c-13.724 5.0907-33.533 4.0228-50.779-3.4142a55.318 55.318 0 0 0-28.491 15.923c19.259-8.3859 46.455-4.7822 59.229 11.197 9.6115-7.3617 17.101-16.025 20.04-23.71" fill="#ce7486" data-name="パス 11250"/>
  <g fill="#b6472d">
   <path d="m164.79 204.76c-10.749 3.0092-31.542-3.6779-43.268-14.743 5.1707 11.898 36.118 23.87 43.268 14.743" data-name="パス 11251"/>
   <path d="m164.61 205.04c-2.9574 6.3574-30.319 2.9915-44.229-14.626 13.69 23.546 44.765 22.612 45.198 14.752z" data-name="パス 11252"/>
   <path d="m40.809 222.63c8.2788 13.452 9.0358 22.796 6.4245 24.403-2.7855 1.7141-11.755-4.369-19.522-16.99-8.061-13.099-7.7914-23.764-5.5404-24.925 3.0327-1.5634 10.831 4.827 18.638 17.51" data-name="パス 11253"/>
  </g>
  <path d="m32.785 217.83c-2.397 0.73936-4.8822 1.4198-7.0426 1.9237 1.6271 4.2018 8.1069 14.404 10.799 16.92a13.037 13.037 0 0 0 7.0426-1.4798c-2.603-3.8168-8.5507-13.162-10.799-17.364" fill="#dabe5d" data-name="パス 11254"/>
  <path d="m33.504 212.48c-0.61925-6.0231-4.2265-14.227-6.1373-14.142-1.2479 0.0551-3.2965 2.9562-4.402 6.5752 2.2592-0.20959 6.122 2.4288 10.539 7.5665" fill="#363e4c" data-name="パス 11255"/>
  <path d="m22.171 205.12a2.7243 2.7243 0 0 1 1.8236-0.11792l0.02222-0.24606c-2.6795-1.8978-6.5929-1.4575-7.3193-0.2661-0.66748 1.0866 0.74878 8.2588 5.5334 13.643-2.1769-7.1815-1.5729-12.23-0.06582-13.007" fill="#363e4c" data-name="パス 11256"/>
  <path d="m46.462 217.95a67.488 67.488 0 0 1-6.0714 4.0111c7.0308 11.22 10.486 22.826 6.8425 25.068a3.2964 3.2964 0 0 1-2.6807-0.0133l0.0085 0.0222c4.781 1.7977 12.798-2.1262 20.991-10.295a68.829 68.829 0 0 1-19.088-18.791" fill="#b6472d" data-name="パス 11257"/>
  <path d="m22.887 197.45a11.64 11.64 0 0 0 3.3965 1.4528c0.92184-0.93007 5.2885-1.4128 10.612-0.92184-0.30748-0.98658-0.98422-3.6555-1.255-4.6621a39.599 39.599 0 0 1-12.63 3.8745z" fill="#b6472d" data-name="パス 11258"/>
  <path d="m125.83 223.62a68.787 68.787 0 0 1-32.571 8.2411c0.62513 1.6776 1.2256 3.2481 1.7659 4.6303-9.5173 2.7726-22.098 2.1191-30.394-0.3533a68.84 68.84 0 0 0 41.82 11.655 142.27 142.27 0 0 0 22.23-2.6925 57.642 57.642 0 0 1-2.855-21.483" fill="#dcdac6" data-name="パス 11259"/>
  <path d="m46.649 216.44c-0.78647-0.56983-1.5611-1.1597-2.3087-1.7848a69.837 69.837 0 0 0 14.322 16.918 53.477 53.477 0 0 1-6.1008-11.036 68.013 68.013 0 0 1-5.9124-4.0982" fill="#dcdac6" data-name="パス 11260"/>
  <path d="m95.035 236.5c-0.54512-1.3822-1.1455-2.9538-1.766-4.6303a77.231 77.231 0 0 1-40.704-11.33 53.508 53.508 0 0 0 6.1008 11.036 61.626 61.626 0 0 0 5.9772 4.5668c8.2964 2.4724 20.876 3.1305 30.394 0.3533" fill="#dabe5d" data-name="パス 11261"/>
  <path d="m162.48 209.81a51.101 51.101 0 0 1 16.091 15.327c18.46-12.049 31.101-27.657 32.462-43.75-5.0695 21.23-29.139 28.631-48.553 28.422" fill="#dcdac6" data-name="パス 11262"/>
  <path d="m161.98 210.41c7.8879 6.8743 13.678 19.561 13.345 25.417-0.24963 4.3784-6.388 10.007-12.847 12.443 1.348 1.7554 2.8644 5.5957 2.6384 7.3581 10.409-5.4062 19.363-13.162 19.112-17.915-0.41782-7.9433-13.96-25.207-22.251-27.303" fill="#b6472d" data-name="パス 11263"/>
  <path d="m165.3 254.67c-0.11792-4.303-10.742-18.392-13.782-18.106 4.6068 6.2032 8.0139 15.106 9.8411 23.056 2.3369-1.6046 3.9816-3.4495 3.9392-4.9446" fill="#363e4c" data-name="パス 11264"/>
  <path d="m142.7 263.09a10.805 10.805 0 0 0 3.4306-2.8997 17.424 17.424 0 0 1-0.92299-5.7488c-4.07-9.2595-9.1005-15.658-11.323-15.379 4.2465 7.4405 7.8396 16.176 8.8156 24.029" fill="#363e4c" data-name="パス 11265"/>
  <path d="m204.81 176.87a57.741 57.741 0 0 1-13.415 2.603v0.0134c1.0784 1.5952 2.2569 3.2752 3.2506 4.4902a23.684 23.684 0 0 1-8.2588 0.53448c-3.9651 12.582-12.157 22.887-23.899 25.303 19.414 0.20824 43.484-7.1921 48.553-28.422 9e-3 -0.0872 0.0178-0.17443 0.0267-0.26119 0.38845-5.0471-1.0784-5.8771-6.255-4.2583" fill="#b6472d" data-name="パス 11266"/>
  <path d="m194.64 183.97c-0.99365-1.215-2.1721-2.8938-3.2505-4.4902v-0.0134c-1.2527 0.0823-2.4841 0.11791-3.6885 0.10236q-0.551 2.5124-1.3174 4.934a23.671 23.671 0 0 0 8.2588-0.53449" fill="#dabe5d" data-name="パス 11267"/>
  <path d="m29.847 200.92a33.247 33.247 0 0 1 3.6567 11.559l0.23539 0.27677a38.745 38.745 0 0 0 4.5656-10.576c-0.18155-0.48622-0.3533-0.97834-0.52038-1.4704a36.554 36.554 0 0 0-7.9397 0.21091" fill="#363e4c" data-name="パス 11268"/>
  <g fill="#0d131a">
   <path d="m17.115 143.13c-3.0127-3.3966-4.0099-7.6007-2.8985-10.713 2.7455-7.6972 15.025-11.636 63.797 9.4184 19.375 8.3589 38.745 6.9049 48.883 3.4554 5.6098-1.9084 8.2647-5.6887 8.7462-10.596 1.6164-16.468-9.2924-50.232-23.428-56.393-4.5055-1.9637-14.577-1.036-21.571 3.479a1.8448 1.8448 0 0 1-1.7047 0.3533 37.431 37.431 0 0 0-5.1401-0.63808c-1.0007-0.04005-1.2597-0.23539-1.2456-1.3351 0.04007-2.9833-0.97242-4.6244-3.9757-4.2595-11.937 1.4516-28.213 10.38-37.754 26.4l-2.2946 0.0312c9.3066-16.582 26.638-26.543 39.838-28.149 3.8992-0.47095 6.122 1.7907 5.8559 5.6451a28.02 28.02 0 0 1 5.2213 0.65223c6.9838-4.728 17.877-6.4386 23.54-3.971 15.612 6.8013 26.399 40.944 24.782 58.394-0.61103 6.5928-3.4424 10.36-10.642 12.752-11.129 3.6991-30.711 4.4738-50.006-3.8557-46.884-20.242-58.564-16.672-60.69-10.713-0.89713 2.5159 0.33195 7.47 5.0624 12.291z" data-name="パス 11269"/>
   <path d="m128.98 246.26a146.1 146.1 0 0 1-22.512 2.6819c-35.263 1.4128-63.087-21.095-71.52-54.521a12.27 12.27 0 0 0-3.3942-6.3657c-8.3224-8.4189-8.3424-13.304-5.2626-19.468a44.394 44.394 0 0 1 2.5901-4.5008l0.29546 3.2823q-0.6028 1.0596-1.142 2.1321c-2.6148 5.2308-2.1192 10.33 4.7822 17.306a12.479 12.479 0 0 1 3.9039 7.0979c8.4141 33.351 37.674 54.109 69.728 52.826a139.89 139.89 0 0 0 21.866-2.6501z" data-name="パス 11270"/>
   <path d="m178.04 224.18c18.212-11.866 30.791-27.213 32.242-43.113 0.39558-4.3348-0.4709-4.9859-5.2637-3.4142-29.58 9.6786-51.233-4.6527-53.035-37.423a73.72 73.72 0 0 0-36.224-60.145l-2.7737-3.5625c14.471 6.1149 39.188 25.919 41.169 63.598 1.5199 28.924 20.516 45.028 50.423 36.003 5.7817-1.7448 7.6289-0.48149 7.2298 5.0624-1.1773 16.439-13.774 32.534-32.557 44.921z" data-name="パス 11271"/>
   <path d="m31.887 160a64.172 64.172 0 0 1 6.0042-6.3574c-21.861-4.5008-36.12-21.054-31.227-35.731 7.0191-21.062 49.489-23.066 85.617-0.11792 2.6242 1.6683 1.9896 2.7267-0.67461 1.1278-36.583-21.951-76.256-19.543-82.694-0.23539-4.2948 12.883 8.7402 28.674 29.838 33.517 1.8425 0.42405 1.9649 0.94185 0.70639 2.1898a72.23 72.23 0 0 0-6.5211 7.3417z" data-name="パス 11272"/>
   <path d="m40.862 129.45c-3.021 7.2816-11.462 14.188-14.962 14.025-3.3329-0.15307-8.0704-7.0308-9.4631-12.858l1.6977-1.4858c1.0195 5.9748 5.9089 12.479 7.9056 12.644 2.1192 0.17442 10.207-6.2656 12.715-12.857z" data-name="パス 11273"/>
   <path d="m129.2 145.67c-6.3151 18.736-36.967 40.852-62.083 42.186-23.664 1.2609-36.993-7.0037-38.704-19.407-0.84178-6.0913-0.14817-10.523 1.6199-10.899 2.2369-0.47798 9.9588 11.798 4.6856 20.831l-1.2479-1.2315c3.9592-7.935-2.7726-18.013-3.2341-17.95-0.43696 0.0614-0.79938 3.0186 0.02222 8.9852 1.3774 9.987 12.731 18.859 36.766 17.583 25.028-1.3339 52.672-22.907 59.967-39.33z" data-name="パス 11274"/>
   <path d="m79.895 184.47c0.61574-7.125 3.2553-13.846 5.651-14.564 2.9433-0.88062 9.1594 2.8031 12.264 6.68l-1.7306 1.0595c-2.8396-3.5872-7.902-6.7388-10.007-6.1832-1.3468 0.3533-3.6979 6.2562-4.0817 12.405z" data-name="パス 11275"/>
   <path d="m40.271 182.51c-6.3574-13.304 11.891-35.097 35.923-40.368l2.2133 1.0454c-24.528 5.2484-43.345 27.348-35.717 40.397z" data-name="パス 11276"/>
   <path d="m34.358 114.58a26.316 26.316 0 0 1 2.5335-5.996c0.32038-0.5651 0.49915-0.64519 1.2067-0.65107a16.628 16.628 0 0 1 8.0339 2.2216c1.5458 0.92299 1.4034 1.5741-0.28611 1.8907a32.085 32.085 0 0 0-10.06 3.6037c-1.5128 0.88885-1.8448 0.47091-1.428-1.069m3.7673-5.1389a19.301 19.301 0 0 0-2.2792 4.6916 31.927 31.927 0 0 1 8.4671-3.2599 14.284 14.284 0 0 0-6.1879-1.4304" data-name="パス 11277"/>
   <path d="m18.568 117.21a22.815 22.815 0 0 1-4.3477-3.0151c-0.79822-0.70637-0.83942-1.0078 0.10503-1.7389a27.242 27.242 0 0 1 5.8465-3.4142c1.3563-0.57453 1.9708-0.29545 1.2621 1.3668a18.769 18.769 0 0 0-1.3398 5.9736c-0.10812 1.2538-0.36976 1.4422-1.5305 0.83115m-2.9915-3.8145a15.346 15.346 0 0 0 3.2388 2.4724 15.051 15.051 0 0 1 0.87591-5.0024 20.769 20.769 0 0 0-4.1147 2.5289" data-name="パス 11278"/>
   <path d="m21.955 189.51a8.4471 8.4471 0 0 1-3.7909-0.68168c-0.86413-0.39335-0.92535-0.62985-0.50504-1.4987 1.3244-2.7313 5.4768-5.8264 8.9792-7.1698l0.95009 1.5787c-3.6602 1.328-7.198 3.9451-8.3459 5.9077a7.9185 7.9185 0 0 0 4.3666 0.4709z" data-name="パス 11279"/>
   <path d="m24.542 194.72a13.774 13.774 0 0 1-5.0141-0.64515c-0.88886-0.31326-0.95832-0.63693-0.59456-1.4375a10.902 10.902 0 0 1 4.5821-4.9588c1.8555-0.88183 2.4111-0.12815 0.51803 1.0089a9.7551 9.7551 0 0 0-3.4919 4.1029 13.068 13.068 0 0 0 5.4156 0.58156z" data-name="パス 11280"/>
   <path d="m25.815 199.46a10.243 10.243 0 0 1-2.9762-1.1338c-0.69463-0.39424-0.88886-0.74288-0.47095-1.5493a10.131 10.131 0 0 1 3.194-3.7756c1.5528-1.0395 2.1345-0.27544 0.6852 0.90416a8.1057 8.1057 0 0 0-2.3852 3.227 11.42 11.42 0 0 0 3.2187 1.3056z" data-name="パス 11281"/>
   <path d="m165.16 198.1a8.4236 8.4236 0 0 0 2.8126-1.0301c-4.7575-13.387-21.925-20.739-36.716-22.556-3.1057-0.38134-3.0339-1.507 0.093-1.3209 14.952 0.89474 33.486 8.7285 38.084 23.336 0.34485 1.0972 0.23539 1.3209-0.57805 1.7812a9.0735 9.0735 0 0 1-2.6913 0.94185z" data-name="パス 11282"/>
   <path d="m163.61 203.3a12.237 12.237 0 0 0 3.3235-1.7318 17.123 17.123 0 0 0-4.6692-5.3426c-1.7801-1.3704-1.2421-2.1191 0.66162-0.92068a15.305 15.305 0 0 1 5.3402 5.5804c0.56747 1.1102 0.44408 1.4128-0.48973 1.959a19.761 19.761 0 0 1-3.3353 1.5552z" data-name="パス 11283"/>
   <path d="m120.71 191.04c-1.3339-2.1568-0.42005-2.742 1.0855-0.70638 8.247 11.162 34.553 21.453 42.136 14.623a11.807 11.807 0 0 0-3.984-4.0876c-1.8272-1.1773-1.4186-1.8672 0.56861-0.97949a11.6 11.6 0 0 1 4.7434 4.3348c0.4709 0.78055 0.51095 1.029-0.17888 1.7507-7.643 7.9962-36.056-1.4987-44.369-14.936" data-name="パス 11284"/>
   <path d="m41.783 222.18c8.0516 13.083 9.6115 23.286 5.8218 25.618-3.4825 2.1403-12.61-3.7944-20.861-17.2-7.9774-12.963-8.3035-24.606-4.9905-26.316 3.3129-1.7106 11.237 3.6155 20.028 17.895m-1.8967 1.0313c-8.9274-14.506-15.558-18.198-17.234-17.333-1.2291 0.63221-2.6113 9.7139 5.9889 23.688 7.8279 12.715 16.186 17.857 18.066 16.701 1.6482-1.0137 1.9013-8.8839-6.8201-23.056" data-name="パス 11285"/>
   <path d="m66.47 237.23c-8.4766 8.7556-16.546 12.526-22.173 10.74l3.5425-1.8236c3.4601-0.0716 9.1829-2.3793 16.901-10.015z" data-name="パス 11286"/>
   <path d="m21.977 205.09c1.2197-3.9922 3.5578-7.3758 5.3555-7.5147 2.3629-0.18244 6.5117 8.2906 7.1404 16.023l-1.9673-2.1886c-0.70638-5.3661-4.0958-12.376-5.1001-12.29-0.8347 0.0707-2.4088 2.1391-3.5531 5.7581z" data-name="パス 11287"/>
   <path d="m22.343 219.51c-5.3779-5.3449-7.3381-13.786-6.3209-15.441 0.91476-1.4905 4.8988-1.7777 7.4629-0.551l-0.58864 1.4563c-2.2192-1.1173-5.0035-0.96891-5.5475-0.0837-0.38712 0.71226 0.79706 6.8637 4.5479 11.526z" data-name="パス 11288"/>
   <path d="m37.048 198.77a27.186 27.186 0 0 0-8.7273 0.13661l-1.3586-1.255a30.816 30.816 0 0 1 9.6963-0.33773z" data-name="パス 11289"/>
   <path d="m38.791 203.37a37.634 37.634 0 0 1-4.4596 10.073l-1.1643-1.3809a39.397 39.397 0 0 0 4.608-11.027z" data-name="パス 11290"/>
   <path d="m35.718 236.89c-2.6901-2.6972-8.7274-12.109-10.505-16.567-0.38489-0.96539-0.28033-1.1173 0.76876-1.3668 2.178-0.52038 4.2689-1.0525 6.3221-1.693 0.65222-0.20379 0.9277-0.0779 1.2562 0.53093 2.2369 4.1582 7.7478 12.738 10.22 16.443 0.72755 1.0925 0.66281 1.3315-0.38134 1.859a15.877 15.877 0 0 1-6.4822 1.3433 1.6129 1.6129 0 0 1-1.1973-0.54984m1.142-0.87a12.941 12.941 0 0 0 5.7005-1.0866c-2.3299-3.4048-7.9633-12.183-10.125-16.254-1.8518 0.5651-3.6932 1.0984-5.7335 1.5752 1.6859 3.8922 7.6854 13.358 10.158 15.765" data-name="パス 11291"/>
   <path d="m90.445 223.93a105.7 105.7 0 0 0 38.093-14.07l-0.78643 2.4618a105.05 105.05 0 0 1-36.671 13.304z" data-name="パス 11292"/>
   <path d="m52.685 221.08a42.822 42.822 0 0 1-7.4664-4.7092l-1.7142-3.4142a41.183 41.183 0 0 0 8.3153 5.8182z" data-name="パス 11293"/>
   <path d="m63.126 234.8c7.8349 2.8703 21.022 3.6296 30.859 1.1773-2.6948-6.7754-6.1879-16.924-8.161-23.572-9.8046 1.992-25.775 1.0925-35.612-2.3287a55.545 55.545 0 0 0 10.36 22.761l-4.4572-3.5225a54.013 54.013 0 0 1-7.5348-19.47c-0.28833-1.5905 0.07298-1.9214 1.766-1.3716 9.7045 3.1564 25.326 4.1535 35.286 2.3876 1.0101-0.17888 1.3056-0.0134 1.6153 0.99009 2.1262 6.866 5.6263 16.805 8.2776 23.754 0.42627 1.1161-0.08719 1.5787-0.91124 1.8118-8.672 2.45-19.536 2.1074-27.584 0.2167z" data-name="パス 11294"/>
   <path d="m192.24 179.39c0.74287 1.1562 1.6659 2.4135 2.5335 3.5084 0.94186 1.1938 0.79471 1.6871-0.66398 2.0297-5.9371 1.3963-18.727-0.12949-23.789-5.6098a2.6148 2.6148 0 0 1-0.6428-1.0395 29.003 29.003 0 0 1-1.2951-4.6668l1.793 1.0148a25.844 25.844 0 0 0 1.0878 3.4024c4.2171 4.8528 16.374 6.7047 22.016 5.478a42.048 42.048 0 0 1-2.8078-3.951z" data-name="パス 11295"/>
   <path d="m165.28 254.38c9.1229-4.6397 17.838-12.362 17.73-16.662-0.13171-5.3073-8.3588-19.205-19.803-26.399-2.769-1.74-2.4829-2.45 0.51331-2.4723 20.824-0.11792 43.387-8.6626 47.092-30.068l0.57334 4.2018c-5.0906 18.614-25.677 27.313-45.983 27.687 9.8587 5.8594 19.907 20.765 19.976 27.026 0.065 5.8759-10.085 14.489-20.838 19.351z" data-name="パス 11296"/>
   <path d="m129.22 249.36c-6.4127-14.548-5.9701-32.957 0.79938-44.031 1.2303-2.0144 2.2545-1.4445 1.1467 0.63812-5.7864 10.884-5.651 27.697-1.1773 40.028z" data-name="パス 11297"/>
   <path d="m151.13 235.84c3.5672-1.0984 15.007 14.232 15.138 18.8 0.14595 5.1201-14.75 12.509-19.397 8.4224-5.3049-4.6692-1.6835-25.392 4.2595-27.223m0.43784 1.4869c-4.5703 1.4693-7.802 20.537-3.4825 24.337 3.6662 3.227 16.283-3.3447 16.197-6.9885-0.10012-4.2171-10.699-17.996-12.715-17.348" data-name="パス 11298"/>
   <path d="m146.59 261.08c-3.9122 4.8882-12.823 6.0502-16.129 3.8168-4.4737-3.0233-2.3746-25.015 3.0386-26.553 2.5901-0.73463 7.9386 5.6299 11.857 14.307l-0.21758 3.9734c-4.2983-10.72-9.7539-17.202-11.184-16.805-3.8098 1.0596-5.7064 20.924-2.3758 23.567 2.1321 1.6918 10.499 0.94186 14.01-3.9887z" data-name="パス 11299"/>
   <path d="m53.984 103.59c0.72755-3.7203 3.3165-6.2067 6.1655-5.7087 2.4535 0.42851 3.234 4.6315 1.9061 7.4594l-1.4339-0.3662c0.70051-2.8338 0.20379-4.8564-0.96304-5.1236-1.6235-0.37554-3.4672 0.93127-4.2983 3.7827z" data-name="パス 11300"/>
   <path d="m92.921 112.62c1.3292-3.187 1.0502-6.3151-0.46503-7.0638-2.1651-1.0714-4.9117 0.38489-6.2397 4.1535-0.64399 1.8236-2.085 1.3409-1.5458-0.51686 1.5646-5.3732 5.6275-6.8884 8.6449-5.6581 2.55 1.0407 3.2964 5.7523 0.9124 9.7127-0.85945 1.4269-1.9767 0.98186-1.3045-0.62869" data-name="パス 11301"/>
  </g>
 </g>
</svg>
