<?xml version="1.0" encoding="UTF-8"?>
<!-- Created with Inkscape (http://www.inkscape.org/) -->
<svg version="1.1" viewBox="0 0 272.69 311.65" xmlns="http://www.w3.org/2000/svg">
 <g transform="translate(15.375 3.548)" stroke-width="1.9478">
  <rect x="-15.375" y="-3.548" width="272.69" height="311.65" fill="#fff" opacity="0" data-name="長方形 26523"/>
  <path d="m109.41 79.109c-12.203-7.7522-25.925-4.9182-35.619 7.0763a23.658 23.658 0 0 0-6.8173 0.35852c-2.09-8.2976-7.7541-9.6474-15.962-3.7495-14.466 10.393-25.588 29.606-29.741 49.694-10.436 2.9373-18.22 8.3891-22.345 16.017a11.893 11.893 0 0 0 1.1687 12.503c4.6747 6.7121 7.2731 7.4328 12.811 5.4266 16.946-6.1394 33.502-5.2201 59.186 5.3993 6.9614 2.8769 11.771 3.5177 22.77 2.2653 31.439-3.5801 58.734-17.006 61.424-26.517 3.132-11.077-12.807-46.827-46.879-68.473" fill="#fffce4" data-name="パス 14011"/>
  <path d="m51.922 145.59a15.477 15.477 0 0 0-9.9338-3.8722 28.899 28.899 0 0 0-2.3159 7.8068 64.121 64.121 0 0 1 12.259-3.9326" fill="#29343d" data-name="パス 14012"/>
  <path d="m21.974 141.2a19.308 19.308 0 0 0-8.4476 2.836 56.034 56.034 0 0 0 6.5874 6.3732 51.237 51.237 0 0 1 1.8601-9.2092" fill="#29343d" data-name="パス 14013"/>
  <path d="m239.3 154.74c-9.8733 5.9252-29.967 11.377-44.084 11.819a62.234 62.234 0 0 1-11.186-26.811c-8.9598-51.243-69.704-86.71-109.09-64.558-8.6151-1.5583-15.115 1.1881-23.94 7.5964 8.208-5.8959 13.87-4.5481 15.96 3.7495a23.666 23.666 0 0 1 6.8173-0.35852c9.6922-11.996 23.414-14.831 35.619-7.0763 27.222 17.293 50.335 47.137 44.4 68.126-3.8956 13.753-34.94 24.129-58.944 26.862-10.997 1.2524-15.808 0.61323-22.768-2.2653a150.56 150.56 0 0 0-17.651-6.1725c-10.949 10.668-20.319 25.594-20.025 39.402 0.10917 5.1383 5.4304 12.088 11.634 14.803 1.1687 11.819 9.2131 24.262 21.915 33.749 27.589 6.6907 65.298-0.022 83.136-15.366-4.1663 8.6073-7.6314 22.111-7.5185 28.438a49.864 49.864 0 0 0 2.0354 18.397l21.202 5.0799 24.46 3.2528c6.5932-0.52784 13.298-1.79 14.585-2.8399 3.5431-2.8847 8.6911-33.652-4.0904-60.072l0.0442-0.0736c12.569-5.5648 23.646-15.705 32.809-30.58a93.077 93.077 0 0 0 10.674-42.082c0.0368-4.513-1.9984-5.4148-5.9856-3.021" fill="#d35336" data-name="パス 14014"/>
  <path d="m124.12 263.38a106.85 106.85 0 0 1-15.356-20.81c-9.9338 3.0775-31.245 4.4799-43.046 1.118a45.027 45.027 0 0 0 11.223 15.662 82.912 82.912 0 0 0 22.992 8.4261c8.9326 0.0294 17.961-1.4511 24.18-4.3942" fill="#fddc6b" data-name="パス 14015"/>
  <path d="m215.79 163.49a114.22 114.22 0 0 1-20.857 3.021c0.69716 0.88628 1.4199 1.7394 2.1192 2.4815a56.305 56.305 0 0 1 20.434 5.6642c5.6486-0.52784 13.537-3.2996 16.334-5.9291a38.971 38.971 0 0 0-18.031-5.2357" fill="#fddc6b" data-name="パス 14016"/>
  <path d="m94.865 174.1c-10.997 1.2525-15.808 0.61324-22.768-2.2653a149.15 149.15 0 0 0-17.992-6.2622 95.039 95.039 0 0 0-15.183 20.777 14.667 14.667 0 0 1 4.924 7.2731c1.9478 6.4024 1.4823 12.493-0.13059 12.768 24.655 33.397 94.228-1.2641 102.31-48.428-11.231 7.0335-30.275 13.755-51.159 16.134" fill="#922f00" data-name="パス 14017"/>
  <path d="m146.02 157.96c-11.231 7.0335-30.276 13.755-51.161 16.134-10.997 1.2525-15.808 0.61324-22.766-2.2653-1.9712-0.81612-3.8722-1.5583-5.7402-2.2556-16.315 14.581-17.672 37.937-8.8586 47.431 30.386 12.076 81.657-18.96 88.525-59.045" fill="#ed8599" data-name="パス 14018"/>
  <path d="m105.99 193.65c-2.2322 1.4608-3.1457 9.4078-1.8192 17.154a91.774 91.774 0 0 0 16.778-11.552c-4.6747-4.8695-12.713-7.0705-14.959-5.5999" fill="#fffce4" data-name="パス 14019"/>
  <path d="m17.321 165.02c3.0892 8.6326 10.972 17.67 14.482 17.491 4.0397-0.19509 11.843-9.2442 14.756-18.666a61.496 61.496 0 0 0-29.238 1.1687" fill="#fffce4" data-name="パス 14020"/>
  <path d="m41.259 182.36c-8.3755 1.1804-19.283 5.783-23.056 10.312a8.2879 8.2879 0 0 0 5.0136 0.34895 13.315 13.315 0 0 0-5.2746 4.4799 12.466 12.466 0 0 0 7.0121 0.13031 10.206 10.206 0 0 0-4.0904 3.619c1.9342 1.7978 7.3101 2.8866 13.576 2.9217a45.023 45.023 0 0 1 6.8173-21.815" fill="#d35336" data-name="パス 14021"/>
  <path d="m48.83 230.87c-11.845 16.293-13.568 29.951-7.6139 50.356 11.523 3.7007 46.208 3.0755 48.446 1.2875 1.5582-1.2544 4.5948-8.8586 6.2329-15.419-18.644-4.4351-41.098-19.988-47.07-36.229" fill="#d35336" data-name="パス 14022"/>
  <g fill="#434c5c">
   <path d="m38.511 253.65c-8.3424 7.1639-10.933 23.033-9.4838 25.565 0.83755 1.4687 7.686 2.5088 12.238 2.2127-3.1028-10.29-4.1196-19.597-2.7542-27.777" data-name="パス 14023"/>
   <path d="m180.4 265.68c-5.7616 0.1671-14.266 22.881-13.035 27.074 0.74604 2.5321 6.9731 6.079 10.129 5.9291 4.3182-0.20467 13.027-3.0814 14.098-5.6486 2.2302-5.3565-6.5388-27.491-11.188-27.355" data-name="パス 14024"/>
   <path d="m166.53 291.41c1.0752-3.3112-4.252-27.524-7.5535-27.803-6.3615-0.53741-17.228 24.336-13.259 29.595 3.7729 4.9941 20.084 0.4498 20.81-1.79" data-name="パス 14025"/>
  </g>
  <path d="m86.049 27.675c-3.4593 5.3993-9.1273 20.415-12.121 32.777-2.4386-33.716-28.744-53.72-39.628-54.922-7.8009 7.4348-13.325 24.873-10.129 32.832 30.775 9.887 43.058 28.153 46.963 40.282 1.083 3.3619 2.5165 3.506 4.0767 0.63311 7.7327-14.272 18.068-30.232 25.099-38.387-2.5321-5.6934-8.9287-12.302-14.271-13.216" fill="#fddc6b" data-name="パス 14026"/>
  <path d="m115.97 253.65a102.42 102.42 0 0 0 8.1574 9.739c-6.2212 2.9431-15.249 4.4234-24.182 4.3961a88.068 88.068 0 0 0 19.986 1.8134 117.97 117.97 0 0 0 23.662-2.9217c-0.11257-6.3186 3.3502-19.823 7.5166-28.438-8.3755 7.2069-21.118 12.499-35.14 15.405" fill="#fffce4" data-name="パス 14027"/>
  <g fill="#dcdac6">
   <path d="m234.62 199.85c-9.1546 14.875-20.24 25.015-32.809 30.58 0.85308 1.8758 1.7841 4.2189 2.5633 6.4141a120.76 120.76 0 0 0 30.245-36.992" data-name="パス 14028"/>
   <path d="m31.402 182.47c3.9365 0.48072 11.913-8.1359 15.158-18.627-1.979-0.3644-3.8956-0.61765-5.7752-0.81413a43.576 43.576 0 0 1-9.3845 19.441" data-name="パス 14029"/>
   <path d="m105.57 194.03a35.804 35.804 0 0 1 12.09 7.9178c1.1141-0.87847 2.2204-1.7667 3.2956-2.6957-4.8695-5.0954-13.469-7.3627-15.388-5.2201" data-name="パス 14030"/>
  </g>
  <g fill="#b6472d">
   <path d="m21.057 201.08c4.774-0.19509 12.035-2.7269 15.136-7.5477a32.898 32.898 0 0 0-1.753 10.635c-4.6104 0.29815-11.79-0.97389-13.381-3.0872" data-name="パス 14031"/>
   <path d="m155.66 203.04c10.95 4.6514 39.593 7.2517 55.707 3.4885-7.8652 10.28-48.366 5.6096-55.707-3.4885" data-name="パス 14032"/>
   <path d="m201.81 230.43c29.638-14.036 43.062-43.656 43.482-72.662 0.0663-4.5403-1.9342-5.2064-5.9855-3.021a85.779 85.779 0 0 1-20.025 7.7211c0 0.42698-0.0148 0.88237-0.0516 1.3635a36.946 36.946 0 0 1 14.597 4.9065c-2.797 2.6295-10.686 5.4032-16.334 5.9291-0.18477-0.0935-0.37617-0.1811-0.56317-0.27238a54.48 54.48 0 0 1-7.836 15.732 24.71 24.71 0 0 1 3.5898 4.3436 10.518 10.518 0 0 1-4.0222 1.2563 18.738 18.738 0 0 1 5.7577 5.4012 13.317 13.317 0 0 1-6.2602 2.1835 27.464 27.464 0 0 1 3.4652 3.5781c-9.3903 8.0171-37.076 7.0783-54.184-0.87067a72.711 72.711 0 0 0 31.543 12.25 6.1375 6.1375 0 0 1 5.259 3.208c9.4118 15.666 11.811 48.192 7.2497 57.398-1.4628 2.9489-6.4277 4.6474-10.697 4.6474a17.596 17.596 0 0 1 0.6677 9.7662c5.5376 0.13472 13.44-1.4531 14.4-2.7094 6.2933-8.3074 4.9513-42.795-4.0436-60.142" data-name="パス 14033"/>
  </g>
  <path d="m233.82 168.73a36.961 36.961 0 0 0-14.597-4.9064 46.765 46.765 0 0 1-2.3023 10.565c0.19508 0.0913 0.37985 0.17889 0.56316 0.27238 5.6486-0.52783 13.537-3.2996 16.334-5.9291" fill="#dabe5d" data-name="パス 14034"/>
  <path d="m144.16 158.41c-14.468 5.1383-35.06 8.7768-50.187 10.425-10.53 1.1472-14.895 0.60219-20.257-1.8446-19.661-8.9871-44.193-11.582-61.537-4.3085a14.445 14.445 0 0 1-10.201 0.82392c3.5859 4.3475 6.1784 4.6455 10.929 2.9217 16.946-6.1395 33.502-5.2201 59.188 5.3992 6.9595 2.8769 11.771 3.5177 22.768 2.2653a128.28 128.28 0 0 0 49.293-15.684" fill="#dcdac6" data-name="パス 14035"/>
  <path d="m146.02 157.96c-11.231 7.0335-30.276 13.755-51.161 16.134-10.997 1.2525-15.808 0.61324-22.766-2.2653-1.9712-0.81612-3.8722-1.5583-5.7402-2.2556a43.031 43.031 0 0 0-11.531 16.751c16.213-8.432 49.864-7.6646 67.45 11.757 11.977-10.781 21.118-24.784 23.745-40.124" fill="#ce7486" data-name="パス 14036"/>
  <path d="m119.92 269.59a117.96 117.96 0 0 0 23.662-2.9217 66.18 66.18 0 0 1 3.3639-17.591 89.793 89.793 0 0 1-26.363 10.38c1.2154 1.4296 2.4094 2.7561 3.5333 3.917-6.2194 2.9432-15.247 4.4234-24.18 4.3942a87.982 87.982 0 0 0 19.984 1.8154" fill="#dcdac6" data-name="パス 14037"/>
  <path d="m76.55 258.98c0.13443 0.1229 0.25715 0.25545 0.38959 0.37765a82.869 82.869 0 0 0 23 8.4262c8.9326 0.0294 17.961-1.4531 24.18-4.3942-1.1238-1.1687-2.3159-2.4893-3.5333-3.919a97.055 97.055 0 0 1-44.04-0.48882" fill="#dabe5d" data-name="パス 14038"/>
  <g fill="#363e4c">
   <path d="m37.968 259.19a53.188 53.188 0 0 0-7.4328 20.993 30.952 30.952 0 0 0 10.725 1.2505 68.317 68.317 0 0 1-3.2918-22.24" data-name="パス 14039"/>
   <path d="m186.56 296.42a9.6883 9.6883 0 0 0 5.0234-3.393c2.3237-5.5746-6.8621-28.549-11.741-27.269a75.132 75.132 0 0 1 6.718 30.664" data-name="パス 14040"/>
   <path d="m160.09 294.41c3.4223-0.87457 6.1511-2.1192 6.4394-3.0035 1.1317-3.4865-4.0144-27.908-7.836-27.793 2.1426 9.5442 2.9412 22.296 1.3966 30.797" data-name="パス 14041"/>
  </g>
  <path d="m58.153 245.05a36.837 36.837 0 0 1-10.839 12.511c-4.8695 3.5606-7.8106 3.8469-9.1644-1.2466a64.628 64.628 0 0 0 3.0678 24.91c11.523 3.7008 46.208 3.0775 48.446 1.2856 1.5582-1.2544 4.5967-8.8566 6.2329-15.419a81.829 81.829 0 0 1-37.746-22.043" fill="#b6472d" data-name="パス 14042"/>
  <g fill="#0d131a">
   <path d="m19.915 132.84c3.9287-21.089 16.155-40.709 30.436-50.962 9.7058-6.9711 15.652-3.5216 17.39 3.4379a22.678 22.678 0 0 1 5.5609-0.27091c9.3669-11.42 23.385-15.288 36.722-7.0121 21.782 13.524 36.424 32.127 43.412 47.777 5.1461 11.537 4.7877 26.239-7.3724 33.892a95.997 95.997 0 0 1-22.279 9.7214 155.75 155.75 0 0 1-40.594 6.6556c-16.12 0-20.832-12.076-50.426-12.076-11.712 0-13.598 4.7156-24.749 4.7156-6.4978 0-11.461-7.5321-11.813-14.718-0.62722-12.809 18.218-25.243 44.912-25.187 17.166 0.0368 37.52 4.6747 58.418 14.388 3.5216 1.6381 2.8692 3.0503-0.70304 1.5329-21.761-9.2481-41.519-13.457-57.715-13.469-26.227-0.0221-42.602 12.723-42.144 22.852 0.26296 5.8259 4.4507 11.934 8.9598 11.934 9.3494 0 12.287-4.7488 24.622-4.7488 27.166 0 37.641 11.917 50.331 11.917a132.92 132.92 0 0 0 40.033-6.6518 98.588 98.588 0 0 0 21.336-9.3884c11.141-6.9088 11.41-19.332 6.8524-29.969-6.3186-14.723-20.045-32.772-42.318-47.008-11.241-7.1854-23.938-5.1772-33.816 6.2835a1.753 1.753 0 0 1-1.8153 0.74994 27.172 27.172 0 0 0-5.6174 0.27827c-1.0849 0.1811-1.4005-0.0589-1.6907-1.0557-1.8679-6.3829-6.3108-8.4573-14.219-2.7737-12.628 9.0767-24.86 28.202-29.053 48.41z" data-name="パス 14043"/>
   <path d="m143.42 268.2a127.16 127.16 0 0 1-23.471 2.7912c-42.805 1.0051-73.366-26.991-75.243-51.749l2.5633 0.98559c2.7269 22.984 33.05 48.985 72.614 48.04a121.89 121.89 0 0 0 23.627-2.9392z" data-name="パス 14044"/>
   <path d="m203.86 235.29c23.568-19.867 39.821-47.197 40.419-77.6 0.0736-3.4749-1.1277-4.1469-4.4468-2.0374-10.323 6.5583-30.797 11.79-43.611 12.172l-1.9692-2.5673c12.686 0.45201 33.892-5.0876 44.515-11.313 4.7214-2.7658 7.4464-1.4745 7.5146 3.8372 0.38944 31.36-16.435 59.936-41.315 80.539z" data-name="パス 14045"/>
   <path d="m55.656 165.95c-10.701 10.333-20.269 25.306-19.977 39.102 0.10917 5.0915 5.635 11.835 11.578 14.414 3.0717 1.3284 2.3705 2.4621-0.53763 1.5778-6.6517-2.0238-13.485-9.6961-13.617-15.855-0.31163-14.704 9.3494-29.234 20.09-39.838z" data-name="パス 14046"/>
   <path d="m147.3 157.14c-4.7156 31.165-34.918 55.872-61.568 62.179-16.241 3.843-34.11 0.92912-43.157-12.501l2.1562-1.0284c8.4749 11.26 22.816 15.13 40.378 10.972 25.658-6.0694 54.23-29.575 59.618-58.075z" data-name="パス 14047"/>
   <path d="m67.477 169.93c-16.806 14.965-17.591 38.853-8.06 47.569l-3.7826-1.0362c-7.8146-9.1371-6.751-32.688 9.6572-47.343z" data-name="パス 14048"/>
   <path d="m102.93 211.39c-1.3283-7.4406-0.55874-16.615 2.5204-18.631 2.6256-1.7199 11.311 0.38944 16.443 5.707l-1.9575 1.6654c-5.2162-5.4402-12.065-6.3362-13.383-5.6038-1.1472 0.639-2.799 7.8554-1.2466 15.688z" data-name="パス 14049"/>
   <path d="m233.07 204.33c-8.3288 12.423-18.319 21.94-30.843 27.283l-1.0401-2.2478c14.059-6.3479 25.754-17.877 35.199-35.01z" data-name="パス 14050"/>
   <path d="m218.35 162.77a38.299 38.299 0 0 1 15.117 4.5948c1.5991 0.95445 1.7355 1.5583 0.16932 2.7679a35.004 35.004 0 0 1-15.319 5.4324 3.2606 3.2606 0 0 1-2.0588-0.41667 61.644 61.644 0 0 0-18.292-5.1422l-1.6147-1.9731a56.681 56.681 0 0 1 21.307 5.6291 41.015 41.015 0 0 0 14.503-4.8383 42.925 42.925 0 0 0-19.153-4.4624z" data-name="パス 14051"/>
   <path d="m206.3 196.59c-3.1613-0.20613-3.06-1.5329 0.10533-1.5835a11.492 11.492 0 0 0 4.7935-0.89209c-8.7008-11.254-34.225-19.741-51.782-12.357-3.7806 1.5894-4.3163 0.37177-0.6427-1.455 17.561-8.734 45.721-0.36588 54.431 13.126 0.73824 1.1434 0.76548 1.4706-0.38944 2.1056a11.27 11.27 0 0 1-6.5212 1.0557" data-name="パス 14052"/>
   <path d="m209.64 195.57a14.024 14.024 0 0 1 5.2493 4.5345c0.71702 1.0207 0.72292 1.3362-0.34454 2.164a11.94 11.94 0 0 1-8.5703 1.753c-3.0503-0.48514-2.8769-1.7413 0.20612-1.5582a10.752 10.752 0 0 0 6.9555-1.5212 13.884 13.884 0 0 0-7.0996-5.1091z" data-name="パス 14053"/>
   <path d="m209.13 203.24a16.42 16.42 0 0 1 2.7737 2.5321c0.82974 0.94275 0.7908 1.4706-0.0736 2.2244-9.7857 8.5586-41.309 7.4776-56.554-3.3619-2.8885-2.053-2.199-3.1164 0.88237-1.344 15.28 8.7865 44.108 10.559 54.098 3.471a17.45 17.45 0 0 0-3.8274-3.5392z" data-name="パス 14054"/>
   <path d="m144.98 287.34c-8.3307-21.718 2.0452-55.169 21.202-68.757 3.506-2.4854 4.3475-1.303 0.94664 1.3303-16.913 13.093-26.114 43.134-20.974 62.657z" data-name="パス 14055"/>
   <path d="m191.78 292.06c5.2883-0.3703 11.771-1.6264 13.085-2.6957 2.9528-2.4036 8.0346-32.947-4.5442-59.967-1.4258-3.06-0.10533-3.7008 1.4589-0.70304 14.141 27.055 9.0494 59.752 4.9279 63.108-1.5777 1.2798-9.2403 2.5984-16.432 3.0484z" data-name="パス 14056"/>
   <path d="m180.39 264.7c5.635-0.13398 14.78 23.128 12.324 28.827-1.118 2.5945-9.3183 6.0713-15.15 6.3011-4.2228 0.16565-10.518-4.026-11.381-6.8172-1.4141-4.552 7.2847-28.157 14.209-28.323m0.0294 1.9478c-4.6026 0.0876-12.966 22.158-11.981 25.721 0.56685 2.0472 5.8298 5.3096 9.0514 5.1636 4.5734-0.21642 12.152-2.984 12.965-5.0643 1.9185-4.9182-6.4433-25.886-10.035-25.818" data-name="パス 14057"/>
   <path d="m144.78 293.94c-4.4585-5.9038 6.566-31.813 14.324-31.28 4.2345 0.29225 9.7799 25.773 8.5391 29.197-1.1687 3.2489-18.656 7.6529-22.863 2.0841m1.8602-1.4433c3.1535 4.1741 17.83 0.46379 18.749-1.5583 1.1472-3.7709-4.6455-26.176-6.5465-26.356-5.0175-0.47704-15.691 23.29-12.203 27.908" data-name="パス 14058"/>
   <path d="m150.64 239.96c-8.8917 7.5613-23.658 12.822-33.892 14.786l-1.4257-1.9478c10.347-2.0842 27.349-7.8126 37.214-17.238z" data-name="パス 14059"/>
   <path d="m96.89 266.74a65.181 65.181 0 0 0 25.613-3.7008 93.646 93.646 0 0 1-14.182-19.342c-10.175 2.8964-30.062 4.2851-40.97 1.3635a44.486 44.486 0 0 0 12.986 15.902l-5.8746-2.6217a40.125 40.125 0 0 1-9.2871-13.422c-0.82392-1.9692-0.45577-2.4133 1.8582-1.866 11.344 2.6841 30.6 1.5914 40.789-1.2037 1.1141-0.3055 1.5193-0.16194 2.0803 0.85507a106.37 106.37 0 0 0 14.16 19.246c1.3108 1.418 1.2251 1.9478-0.37765 2.6588a55.734 55.734 0 0 1-20.945 4.0494z" data-name="パス 14060"/>
   <path d="m38.285 255.2c-6.9439 6.7588-9.3202 21.5-8.2333 23.44 0.5843 1.0499 6.9692 2.0023 10.933 1.6926l1.4531 2.1036c-5.2493 0.55728-13.276-0.56318-14.466-2.6061-1.8173-3.1165 0.88236-20.136 10.637-27.602z" data-name="パス 14061"/>
   <path d="m47.86 164.07c-2.8282 9.3202-11.178 19.347-16.019 19.532-4.3358 0.16564-12.614-9.2209-15.83-18.264l2.4795-0.68538c2.836 8.6404 10.781 16.946 13.276 16.804 3.4612-0.19509 10.958-9.0728 13.391-17.879z" data-name="パス 14062"/>
   <path d="m39 148.5a28.522 28.522 0 0 1 1.9361-6.6964c0.38959-0.86876 0.64275-1.0129 1.605-0.97396a16.876 16.876 0 0 1 9.291 3.4807c1.4979 1.2681 1.2544 1.8952-0.5843 2.2984a64.616 64.616 0 0 0-10.304 3.2509c-1.9186 0.77917-2.2555 0.50281-1.9478-1.3635m3.5391-5.8823a22.772 22.772 0 0 0-1.8153 5.561 48.525 48.525 0 0 1 9.252-3.0639 14.819 14.819 0 0 0-7.4367-2.4971" data-name="パス 14063"/>
   <path d="m18.893 150.46a39.558 39.558 0 0 1-5.5142-5.259c-0.933-1.0538-0.91351-1.6011 0.38959-2.3802a19.975 19.975 0 0 1 7.2321-2.388c1.753-0.24736 2.0725 0.14207 1.5582 1.8777a55.833 55.833 0 0 0-1.5212 7.2769c-0.23374 1.6128-0.94468 1.8153-2.1426 0.87848m-3.991-6.2486a42.77 42.77 0 0 0 4.5968 4.6202 31.139 31.139 0 0 1 1.2388-6.5952 18.588 18.588 0 0 0-5.8434 1.975" data-name="パス 14064"/>
   <path d="m34.397 205.19c-5.3915 0-10.962-0.85706-13.771-2.8828-0.95442-0.68979-0.9739-1.0615-0.34475-1.8952a9.1546 9.1546 0 0 1 1.4608-1.5192 13.395 13.395 0 0 1-3.4008-0.29815c-1.6517-0.38943-1.753-0.99921-0.66027-2.3861a10.323 10.323 0 0 1 2.4172-2.201 8.0191 8.0191 0 0 1-1.6868-0.24735c-1.3634-0.37398-1.6245-1.0557-0.38957-2.3374 4.6591-4.8695 15.824-9.1546 23.933-10.37l-1.4121 2.6178c-6.6595 0.95637-16.476 4.774-20.559 8.5333a8.9267 8.9267 0 0 0 2.2692 0.0876c2.2458-0.19509 2.4308 0.8745 0.67779 1.8387a11.034 11.034 0 0 0-3.4067 2.834 13.67 13.67 0 0 0 4.4799-0.0148c2.1426-0.33128 2.6198 0.60955 0.60963 1.8368a8.1554 8.1554 0 0 0-2.4308 2.238c1.9342 1.3518 7.3257 2.2751 12.172 2.0238z" data-name="パス 14065"/>
   <path d="m73.349 256.12a33.759 33.759 0 0 1-6.2329-2.3646l-2.2166-3.2957a43.204 43.204 0 0 0 6.8348 3.0268z" data-name="パス 14066"/>
   <path d="m70.124 75.916a26.508 26.508 0 0 0-13.134 4.2423l-6.64 1.7218c6.453-5.0643 12.224-7.9859 18.845-8.2372z" data-name="パス 14067"/>
   <path d="m79.553 71.617c39.295-17.335 96.805 16.881 105.74 67.953 2.3841 13.598 8.06 25.023 16.128 32.304 3.2002 2.8886 2.2517 3.7515-1.0264 1.3109-8.2022-6.1122-14.998-18.245-17.7-33.161-8.8761-48.999-65.872-83.588-104.82-65.125z" data-name="パス 14068"/>
  </g>
  <path d="m73.548 58.378a136.97 136.97 0 0 1 11.04-31.073c0.62353-1.1473 0.97387-1.2603 2.2847-0.88628 5.5707 1.5836 11.772 7.986 14.427 13.461a1.8485 1.8485 0 0 1-0.39901 2.4367 258.88 258.88 0 0 0-24.852 37.421c-2.0238 3.6502-4.3942 3.4184-5.8434-0.79278-3.8956-11.346-15.927-29.264-45.798-39.022-1.1531-0.37766-1.3966-0.64121-1.6965-1.529-3.0015-8.8585 2.0686-25.177 10.154-33.467 0.76353-0.77909 1.1862-0.896 2.4679-0.639 13.934 2.797 43.241 27.729 39.293 67.955-0.298 3.0347-1.8699 2.9217-1.6303-0.12073 3.1846-40.563-27.665-63.584-38.2-65.134-6.8368 7.0121-12.098 23.179-9.5247 30.314 30.656 9.9785 43.021 28.775 46.776 41.034 0.74406 2.4308 1.268 2.4795 2.3237 0.47704 7.6276-14.47 17.752-30.302 24.295-38.105-2.4016-5.0078-7.9957-10.547-11.993-11.469-3.5547 5.5044-9.5422 22.516-12.265 33.358z" fill="#f2972c" data-name="パス 14069"/>
  <path d="m97.149 267.18c-1.5582 6.3868-4.6357 14.889-6.6809 16.511-2.6139 2.0763-36.313 2.6022-48.94-0.96416a2.053 2.053 0 0 1-1.6946-1.6186c-6.3537-20.491-3.658-35.732 8.5937-51.605l1.0382 2.3081c-10.689 15.629-13.011 28.103-7.2594 48.399 11.2 3.1457 44.094 2.8652 46.576 1.1959 1.3791-0.92715 4.2326-8.6813 5.8258-14.906z" fill="#0d131a" data-name="パス 14070"/>
  <path d="m43.899 206.83c1.5582-0.51607 1.3265-10.631-0.08376-14.012-1.753-4.2228-5.1733-7.1873-6.2076-6.7121-1.0343 0.47556-1.677 4.2657 0.13827 9.5442 2.1971 6.377 5.3155 11.469 6.155 11.188" fill="#fffce4" data-name="パス 14071"/>
  <path d="m37.488 186.18a27.322 27.322 0 0 1 3.3502 16.646c1.3635 2.5711 2.5847 4.1586 3.0619 4.0008 1.5582-0.51607 1.3265-10.633-0.08376-14.024-2.2361-5.3604-5.3954-7.314-6.3284-6.6226" fill="#dcdac6" data-name="パス 14072"/>
  <path d="m63.702 282.46c0.8395-3.132-5.6486-23.775-7.8886-23.775-3.1593 0-13.851 16.262-13.146 22.594 0.16167 1.4589 4.0397 3.8761 7.5516 4.028 6.005 0.26134 13.216-1.8524 13.483-2.8536" fill="#363e4c" data-name="パス 14073"/>
  <path d="m36.643 196.06c-1.8017-5.224-1.4472-10.062 0.52202-10.882 1.8017-0.75185 5.5687 2.2711 7.7016 7.275 1.531 3.5936 1.7998 14.897-0.5045 15.678-1.7355 0.58452-5.2279-4.8344-7.7191-12.076m1.3518-8.9598c-0.41491 0.19508-0.94078 2.9665 0.87067 8.2275 2.0802 6.0382 4.4799 10.08 4.7565 9.9746 0.54146-0.20613 0.5843-8.5547-0.86677-12.018-1.8562-4.3961-4.439-6.3362-4.7585-6.1842" fill="#0d131a" data-name="パス 14074"/>
  <path d="m50.174 286.3c-4.0572-0.17742-8.506-2.8185-8.7261-4.7877-0.79665-7.1309 10.464-23.831 14.381-23.831 3.469 0 9.9337 22.133 9.0183 25.197-0.51032 1.6966-8.5703 3.6833-14.675 3.4223m5.4908-26.648c-1.8485-0.0368-12.522 15.419-11.86 21.387 0.10134 0.91742 3.3112 3.1496 6.4433 3.2859 6.0265 0.25691 12.039-1.5758 12.271-2.4016 0.77911-2.6802-5.5084-22.246-6.8601-22.273" fill="#0d131a" data-name="パス 14075"/>
  <path d="m91.643 140.71c2.8106-2.2069 4.809-8.1477 5.1636-17.082 0.46379-11.603-3.1165-18.155-6.5874-18.294-3.8547-0.15386-7.6919 6.4004-8.1398 17.622a31.718 31.718 0 0 0 2.4211 14.998c1.8582 0.68538 4.8695 1.79 7.1426 2.7484" fill="#434c5c" data-name="パス 14076"/>
  <path d="m39.193 131.04c-1.9478-11.102 1.3888-24.542 6.1959-24.412 4.4273 0.12663 7.351 12.676 4.8013 24.696" fill="#434c5c" data-name="パス 14077"/>
  <path d="m91.787 122.74c-0.0589 4.5928-1.2154 6.9283-2.6841 6.9088-1.3186-0.0221-2.5321-2.4016-2.462-6.9925 0.0662-4.7429 1.2037-7.1796 2.573-7.1601 1.4258 0.0221 2.6354 2.838 2.5731 7.2439" fill="#fffce4" data-name="パス 14078"/>
  <path d="m47.224 121.99c-0.16947 5.0351-1.5388 6.5446-2.6568 6.49-1.118-0.0515-1.9868-1.9867-1.8738-6.6225 0.11877-4.7176 1.2193-6.7141 2.3276-6.7141 1.2115 0 2.351 2.6432 2.2088 6.8523" fill="#fffce4" data-name="パス 14079"/>
  <path d="m83.38 135.14a17.561 17.561 0 0 0 1.1219 2.8184c1.8582 0.68538 4.8695 1.79 7.1407 2.7484a9.9162 9.9162 0 0 0 2.7269-3.9248c-1.1258-4.7448-7.0121-5.3992-10.995-1.644" fill="#a6a1ab" data-name="パス 14080"/>
  <g fill="#0d131a">
   <path d="m89.119 130.41c-1.8446-0.0148-3.3795-2.5594-3.3112-7.762 0.07357-5.2337 1.4647-7.9255 3.4125-7.91 2.0296 0.0148 3.4612 3.134 3.393 8.0172-0.0795 5.9057-1.8582 7.6684-3.506 7.6567m1.827-7.6684c0.0662-4.6961-1.1472-6.4764-1.7394-6.4803-0.54918 0-1.6829 1.4706-1.753 6.4141-0.0589 4.404 0.92131 6.2037 1.6654 6.2096 0.77909 0 1.753-1.4843 1.825-6.1434" data-name="パス 14081"/>
   <path d="m83.178 137.66a33.652 33.652 0 0 1-2.2049-14.764c0.4772-12.014 4.5948-18.631 9.2754-18.438 4.2325 0.16785 8.1417 6.7316 7.6412 19.254-0.37617 9.4487-2.425 14.998-5.1909 17.413l-1.9887-0.87649c2.575-1.6985 4.6007-7.3821 4.9708-16.654 0.46747-11.71-3.1885-17.316-5.5921-17.365-2.3374-0.0442-6.4569 4.9941-6.9244 16.751-0.298 7.5204 1.046 12.752 2.7912 15.516z" data-name="パス 14082"/>
   <path d="m48.073 122.02c-0.1948 5.6018-1.8563 7.2886-3.5411 7.2205-1.603-0.0802-2.8048-1.9906-2.6743-7.4192 0.12276-5.1012 1.3829-7.4484 3.1632-7.4484 1.679 0 3.2158 2.7698 3.0522 7.6451m-3.0483-6.1258c-0.61743 0-1.3849 1.6751-1.4881 5.9894-0.11685 4.813 0.54735 5.8005 1.0713 5.8259 0.66807 0.0294 1.6323-1.2953 1.7822-5.7538 0.13827-4.1235-0.86094-6.0615-1.3635-6.0615" data-name="パス 14083"/>
   <path d="m49.228 130.33c2.4757-11.817-0.79663-22.752-3.8956-22.813-3.4106-0.0662-6.9341 11.737-5.2279 22.4l-2.2049 0.0957c-1.5212-10.713 1.6576-24.418 7.4698-24.281 5.3642 0.15386 8.1535 12.967 6.0382 24.756z" data-name="パス 14084"/>
   <path d="m28.949 129.7a79.735 79.735 0 0 1 12.166-0.8823c17.166 0.0368 37.52 4.6747 58.418 14.388 3.5216 1.6381 2.8692 3.0502-0.70304 1.5329-21.761-9.2481-41.519-13.457-57.715-13.469a74.028 74.028 0 0 0-11.846 0.91544z" data-name="パス 14085"/>
  </g>
 </g>
</svg>
