<?xml version="1.0" encoding="UTF-8"?>
<svg version="1.1" viewBox="0 0 162.13 250.73" xmlns="http://www.w3.org/2000/svg">
 <path d="m123.62 57.474c-7.853-7.634-23.238-6.053-37.891 0.21-7.808-4.815-14.389-4.341-18.12-0.351-6.178-4.041-15.152-5.078-19.758-2.72-25.405 13.008-28.438 56.6-16.29 61.367 5.026 1.97 21.8 2.4 39.028-18.529 20.362-24.734 41.488-31.788 52.094-27.708 7.178 2.761 5.158 14.225-12.933 35.036 0.578 0.579 1.218 1.233 1.8 1.85 20.434-20.187 22.998-38.534 12.07-49.155z" fill="#fffce4"/>
 <path d="m63.623 71.448c-0.71603-1.991-2.484-2.7527-4.0831-2.3033-2.0777 0.58237-2.5041 2.1784-2.3835 4.3748 0.08448 1.5174-1.0298 1.8136-1.3778 0.32444-0.67983-2.9018 0.43245-5.725 3.357-6.4988 2.1823-0.57835 4.8574 0.62671 5.5111 3.1235z" fill="#0f141b"/>
 <path d="m105.9 58.62a10.977 10.977 0 0 0-4.7-2.685 9.838 9.838 0 0 0-4.338 3.791 30.087 30.087 0 0 1 9.038-1.106z" fill="#29343d"/>
 <path d="m117.2 56.9a20.325 20.325 0 0 1 4.962-0.759 17.594 17.594 0 0 0-4.749-2.432c-0.106 1.064-0.164 2.091-0.213 3.191z" fill="#29343d"/>
 <path d="m110.8 133.91a15.462 15.462 0 0 0 7.292-10.311 29.941 29.941 0 0 0 1.831-6.667 55.18 55.18 0 0 0-8.361-10.323l-0.016 0.016c-0.582-0.618-1.223-1.271-1.8-1.85 18.09-20.812 20.111-32.275 12.932-35.036-10.605-4.08-31.731 2.974-52.094 27.708-11.815 14.352-23.416 18.659-31.161 19.314 17.976 17.924 64.627 21.078 71.377 17.149z" fill="#922f00"/>
 <path d="m113 132.31c-0.793-12.851-32.492-25.555-59.517-20.078a35.433 35.433 0 0 1-14.084 4.538c17.976 17.921 64.627 21.079 71.377 17.15a14.78 14.78 0 0 0 2.224-1.61z" fill="#ed8599"/>
 <path d="m121.8 80.96c1.922-0.51 5.409-6.525 1.33-11.016-4.08-1.9-11.48-1.556-18.519 1.029 4.8 5.47 14.985 10.572 17.189 9.987z" fill="#fffce4"/>
 <path d="m65.2 130.26a127.21 127.21 0 0 0 15.963 3.56c-0.581-5.764-4.012-12.227-6.545-12.621-1.754-0.273-6.038 3.146-9.418 9.061z" fill="#fffce4"/>
 <path d="m60.4 54.21c-1.062-21.052-15.941-43.2-30.638-53.142-4.994 4.669-11.652 18.276-12.451 26.28 13.461 7.132 25.7 14.778 33.947 22.819-6.714-4-16.691-6.546-24.293-7.011-2.53 2.735-2.6 9.538-0.866 13.607a60.043 60.043 0 0 1 16.809-1.148c4.662-2.048 11.76-3.449 17.492-1.405z" fill="#fddc6b"/>
 <path d="m122.9 126.47a34.033 34.033 0 0 1-0.917 9.391 79.826 79.826 0 0 1 6.8 12.513c7.967-6.552 11.685-14.115 10.886-17.763a11.463 11.463 0 0 0-4.548 1.395 13.446 13.446 0 0 0 2.738-6.137 17.831 17.831 0 0 0-5.986 1.209 11.258 11.258 0 0 0 1.485-4.463 17.838 17.838 0 0 0-10.458 3.855z" fill="#d35336"/>
 <path d="m122.1 135.87c1.7-7.85 1.251-13.227-2.076-18.933a29.952 29.952 0 0 1-1.831 6.667 15.463 15.463 0 0 1-7.292 10.311c-6.75 3.929-53.4 0.771-71.377-17.15a18.4 18.4 0 0 1-7.867-0.785c-12.148-4.762-9.115-48.359 16.29-61.367 2.287-1.172 5.653-1.5 9.218-1.047-17.777-3.077-44.17 20.489-50.621 41.082-8.351 26.655-7.453 60.943 7.37 83.246-3.71 16.37 1.637 38.317 10.146 45.78a15.313 15.313 0 0 1-4.535-6.676c-2.922-9.177 1.577-22.452 17.69-27.6 13.518-4.32 28.647-0.56 32.251 10.68l0.1-0.055a31.384 31.384 0 0 0-7.643-24.756c21.129-10.213 62.86-20.713 71.1-12.879-1.31-8.303-4.783-17.204-10.923-26.518z" fill="#d35336"/>
 <path d="m132.97 162.38c-8.245-7.834-50.559 2.063-73.3 10.346a32.908 32.908 0 0 1 9.834 27.291l-0.1 0.054c0 0.01 0.01 0.02 0.011 0.031 3 9.421-1.734 22.49-18.326 27.794-10.089 3.225-19.153 1.4-25.069-2.655-2.257 8.257-9.664 17.951-15.83 22.187-0.149 1.456 1 2.41 3 2.5 16.8 0.777 47.412-5.454 76.359-28.814a13.4 13.4 0 0 1 5.006-2.975c23.972-7.876 42.723-28.614 38.415-55.759z" fill="#fffce4"/>
 <path d="m26 225.24a17.5 17.5 0 0 1-5.629-6.075 2.756 2.756 0 0 1-0.982-0.849c0.248 11.027-3.542 20.839-8.175 26.854a4.618 4.618 0 0 0-1.043 2.258c6.165-4.237 13.572-13.931 15.829-22.188z" fill="#d35336"/>
 <path d="m45.176 180.66c2.356-0.03 4.919 1.517 6.824 4.253-3.432-6.122-10.9-10.2-13.062-9.479-1.837 0.613-4.307 7.329-5.081 14.635 1.743-4.536 7.405-9.358 11.319-9.409z" fill="#434c5c"/>
 <path d="m52.2 185.13c0.275-4.257 1.341-8.5 2.922-9.059 2.033-0.713 12.005 4.42 13.881 14.89h-0.012c-0.87-4.014-2.627-6.639-4.579-7.365-2.264-0.843-6.8 0.4-10.914 3.964-0.391-0.777-0.828-1.573-1.298-2.43z" fill="#434c5c"/>
 <path d="m123.8 148.44c-8.4-2.72-25.453-0.765-34.447 2.72 2.185 6.226 5.749 18.529 6.7 25.732 9.036-2.231 24.372-4.08 33.407-3.634-0.374-7.97-2.792-18.783-5.66-24.818z" fill="#fddc6b"/>
 <path d="m130.09 151.15c7.836-7.353 13.334-9 15.763-7.638-2.681-1.391-8.072 3.937-7.9 15.391a33.536 33.536 0 0 1-6.555-3.208c-0.397-1.446-0.84-3.225-1.308-4.545z" fill="#434c5c"/>
 <path d="m69.4 199.92c0.818-9-1.844-15.154-5.006-16.332-2.581-0.962-7.634 0.707-11.365 4.411 7.711 1.157 14.132 5.17 16.371 11.921z" fill="#363e4c"/>
 <path d="m37.2 189.39a35.231 35.231 0 0 1 16.438-1.3c-1.819-4.69-5.349-7.477-8.5-7.437-4.121 0.052-10.186 5.393-11.567 10.122a35.21 35.21 0 0 1 3.629-1.385z" fill="#363e4c"/>
 <path d="m161.1 172.36c0 16.475-5.846 25.381-11.516 25.381-6.377 0-11.45-9.935-11.45-25.71 0-16.845 5.3-24.853 11.582-24.853 6.363 0 11.384 9.1 11.384 25.182z" fill="#b6472d"/>
 <path d="m138.09 172.02a55.883 55.883 0 0 1 1.231-12.375 44.267 44.267 0 0 1-7.742-3.959c4.868 16.246 0.857 32.7-8.738 43.684 11.138 1.311 22.351 0.979 28.46-1.8-6.117 1.983-13.211-6.924-13.211-25.55z" fill="#b6472d"/>
 <path d="m155.8 160.52c-3.023-0.128-8.24-0.51-11.168-0.8-0.382 5.482-0.445 16.032-0.159 22.789a82.771 82.771 0 0 1 11.327 0.893c0.35-5.735 0.381-17.464 0-22.882z" fill="#dabe5d"/>
 <path d="m139.3 159.55c1.5-7.235 5.489-11.614 9.228-12.26-0.7-2.321-2.223-4.1-3.724-4.043-2.459 0.092-7.062 4.807-6.8 15.818 0.453 0.166 0.834 0.31 1.296 0.485z" fill="#363e4c"/>
 <path d="m160.5 163.89c0.552-12.638-2.668-19.04-5.858-19.778a5.334 5.334 0 0 0-5.461 3.1c5.877-0.379 9.907 6.176 11.319 16.678z" fill="#363e4c"/>
 <path d="m94.547 218.14c17.834-5.858 32.768-18.836 37.481-36.271-13.682 11.028-45.234 16.039-62.383 12.2a34.174 34.174 0 0 1-0.142 5.951l-0.1 0.054c0 0.01 0.01 0.02 0.011 0.03 3 9.421-1.734 22.49-18.326 27.794-10.089 3.225-19.153 1.4-25.069-2.655-2.257 8.257-9.664 17.951-15.83 22.187-0.149 1.456 1 2.41 3 2.5 16.8 0.776 47.412-5.454 76.359-28.814a13.4 13.4 0 0 1 4.999-2.976z" fill="#dcdac6"/>
 <path d="m69.4 200.1c3 9.421-1.734 22.49-18.326 27.794-15.636 5-28.829-2.12-31.626-10.9-2.922-9.177 1.577-22.452 17.69-27.6 13.53-4.327 28.675-0.557 32.262 10.706z" fill="#b6472d"/>
 <path d="m37.7 197.1c-2.249 5.184-7.552 16.022-10.011 20.739 5.812 1.4 17.69 2.55 24.477 2.72 3.563-6.035 7.466-15.172 9.8-21.164-6.152-0.468-17.181-1.488-24.266-2.295z" fill="#dabe5d"/>
 <g fill="#363e4c">
  <path d="m38.9 175.44a29.134 29.134 0 0 1 5.162 5.354c1.853-0.383 3.814 0.07 5.912 1.885l0.148-0.45c-3.769-4.581-9.399-7.398-11.222-6.789z"/>
  <path d="m67.8 187.19c-2.972-7.309-10.979-12.108-12.968-11.021a25.986 25.986 0 0 1 6.593 7.305c2.71-0.432 4.759 0.38 6.375 3.716z"/>
  <path d="m130.6 152.67c0.292 1 0.572 2.078 0.834 3.018a33.521 33.521 0 0 0 6.554 3.208 24.89 24.89 0 0 1 1.984-10.849 27.51 27.51 0 0 0-9.372 4.623z"/>
 </g>
 <path d="m139.3 130.66c-1.869 4.287-7.174 10.518-12.328 13.813 0.654 1.309 1.275 2.612 1.826 3.9 7.968-6.552 11.685-14.115 10.886-17.763-0.124 0.01-0.257 0.036-0.384 0.05z" fill="#b6472d"/>
 <path d="m8.4 131.96c6.2 10.271 18.732 21.2 36.493 24.781 2.033 0.409 2.128 2.035 0.58 2.7-16.673-0.676-36.534-14.038-37.073-27.481z" fill="#b6472d"/>
 <path d="m53.5 112.23a35.432 35.432 0 0 1-14.084 4.538c4.4 4.381 10.505 7.878 17.326 10.606 8.207-10.464 29.262-12.9 48.033-6.193-11.327-7.745-32.431-12.77-51.275-8.951z" fill="#ce7486"/>
 <g fill="#dcdac6">
  <path d="m74.2 121.21a37.3 37.3 0 0 1 2.518 11.828c1.5 0.288 2.985 0.555 4.455 0.788-0.655-6.491-4.601-12.91-6.973-12.616z"/>
  <path d="m39.4 116.76c7.715-0.986 19.94-5.683 31.161-19.314 20.363-24.734 41.488-31.788 52.094-27.708 7.178 2.761 5.158 14.225-12.932 35.036 0.577 0.579 1.218 1.233 1.8 1.85 12.883-12.728 18.655-24.722 18.428-34.513-3.861-7.338-14.128-9.232-29.016-3.224-12.217 4.93-18.92 10.369-31.562 24.649-10.976 12.399-21.258 20.36-29.973 23.224z"/>
  <path d="m123.2 69.94a13.01 13.01 0 0 0-3.69-1.012c2.043 3.71 2.965 8.385 2.082 12.052 2.562-0.185 5.331-6.942 1.608-11.04z"/>
 </g>
 <path d="m53.179 53.326c-6.894-7.513-19.706-16.353-35.868-24.768a1.668 1.668 0 0 1-1.038-1.909c1.015-8.028 7.042-20.465 12.307-25.983 0.841-0.881 1.294-0.848 2.311-0.14 14.263 9.939 29.2 31.864 30.278 53.855l-1.612-0.388c-1.267-21.015-16.284-42.094-29.673-51.585-4.3 4.561-10.538 17.141-11.56 24.442 16.761 8.763 29.573 17.688 37.017 26.507z" fill="#f2972c"/>
 <path d="m41.405 56.322a57.813 57.813 0 0 0-14.639 1.31c-0.983 0.214-1.484 0.071-1.814-0.851-1.489-4.167-1.635-10.554 0.773-13.9 0.549-0.763 0.814-0.859 1.9-0.763 8.188 0.728 17.222 3.69 21.794 6.177l3.06 3.528c-6.657-4.259-17.192-7.073-25.049-7.6-1.665 2.026-1.849 7.979-0.587 11.335a58.59 58.59 0 0 1 17.8-0.583z" fill="#f2972c"/>
 <g fill="#0f141b">
  <path d="m66.969 56.862c3.865-4.431 11.374-5.1 19.7 0.331l-1.953 0.956c-7.1-4.092-12.955-3.837-16.375-0.331z"/>
  <path d="m31.3 117.03c-14.231-5.582-8.478-50.538 16.225-63.233 5.353-2.751 15.3-1.224 21.783 3.872 1.657 1.3 0.949 2.217-0.779 1.012-7.073-4.929-15.818-5.461-20.155-3.24-24.692 12.644-27.017 55.273-16.272 59.484 5.5 2.158 21.8 1.226 37.729-18.122 20.942-25.438 42.567-32.148 53.367-28 7.4 2.848 7.129 14.453-13.124 36.688-1.394 1.53-2.242 0.714-0.908-0.869 17.5-20.775 19.415-31.509 13.183-33.907-9.246-3.557-30.337 2.441-50.842 27.348-17.128 20.81-33.427 21.626-40.207 18.967z"/>
  <path d="m20.3 219.39a42.557 42.557 0 0 1-8.46 26.2c-1.727 2.224-0.8 3.577 1.383 3.615 18.187 0.313 47.579-6.251 75.754-28.805a14.963 14.963 0 0 1 5.335-3.113c30.118-9.957 52.59-41.571 27.2-80.577a1.66 1.66 0 0 1-0.216-1.54c2.509-12.349-1.061-18.552-12.114-29.71l1.033-1.294c11.889 11.625 15.655 18.48 12.773 31.547 25.869 39.463 5.077 72.509-28.136 83.274a12.178 12.178 0 0 0-4.815 2.847c-28.282 23.274-59.231 29.774-76.9 28.808-4.4-0.24-4.536-3.243-2.487-5.913 4.321-5.631 8.521-16.255 7.762-27.785z"/>
  <path d="m111 106.02c19.733-19.788 22.377-37.422 11.738-47.764-13.174-12.808-50.588 1.8-66.723 22.311-1.378 1.753-2.231 1.07-0.984-0.779 13.364-19.8 54.27-37.714 69.345-23.063 11.647 11.325 8.525 30.53-12.2 50.459z"/>
  <path d="m105.71 70.6c4.651 5.441 13.981 9.99 15.95 9.564 1.318-0.285 5-6.6-0.255-10.712l3.352 1.135c2.847 4.331 0.037 10.462-2.678 11.168-3.151 0.82-13.955-5.027-18.478-10.4z"/>
  <path d="m87.973 113.7a24.638 24.638 0 0 0-7.517-10.708c-1.53-1.346-0.875-2.222 0.756-1a23.137 23.137 0 0 1 8.6 12.215z"/>
  <path d="m71.1 97.06a14.8 14.8 0 0 1 5.037 1.718c2.172 1.221 1.586 2.118-0.472 1.136a16.7 16.7 0 0 0-5.6-1.556z"/>
  <path d="m96.7 58.79a10.564 10.564 0 0 1 3.731-3.213 1.639 1.639 0 0 1 1.626-0.083 11.723 11.723 0 0 1 3.82 2.28c1.144 0.988 0.9 1.42-0.521 1.431a31.714 31.714 0 0 0-7.548 0.929c-1.727 0.465-2.049-0.069-1.108-1.344zm4.578-2.159a7.325 7.325 0 0 0-2.707 1.956 23.059 23.059 0 0 1 5.635-0.576 7.149 7.149 0 0 0-2.928-1.38z"/>
  <path d="m122.33 56.79a16.27 16.27 0 0 0-4.464 0.543c-1.138 0.277-1.385 0.074-1.367-1.021 0.013-0.858 0.056-1.731 0.152-2.59l1.328 0.4a11.938 11.938 0 0 0-0.223 2 23.436 23.436 0 0 1 3.11-0.557z"/>
  <path d="m40.5 116.6c17.96 16.805 62.689 20.41 69.878 16.426a13.62 13.62 0 0 0 6.524-8.42l2.323-2.63a15.783 15.783 0 0 1-7.924 12.8c-7.288 4.282-55.752 0.888-73.038-17.951z"/>
  <path d="m55.1 111.22c25.982-5.211 57.667 7.568 58.738 20.466l-1.527 1.233c-0.777-12.517-32.682-25.777-60.48-19.594z"/>
  <path d="m64.219 129.96c3.241-5.7 8.058-9.93 10.447-9.558 3.348 0.523 6.856 7.642 7.413 13.575l-1.983-0.266c-0.305-5.566-4.11-11.46-5.653-11.747-0.972-0.181-4.963 2.621-8.314 8.549z"/>
  <path d="m13.5 179.01c-14.636-20.324-17.415-54.823-8.078-84.626 6.01-19.183 28.992-41.649 48.68-41.932l-4.716 2.287c-14.952 2.534-36.134 21.915-41.868 40.221-9.045 28.873-5.769 62.334 6.611 81.847z"/>
  <path d="m43.8 159.69c-11.145-0.082-32.7-8.688-36.394-26.656-0.277-1.348 0.01-1.722 1.33-1.676a11.9 11.9 0 0 1 3.258 0.5 12.265 12.265 0 0 1-2.6-4.128c-0.518-1.368-0.372-1.6 1.03-1.738a17.268 17.268 0 0 1 4.93 0.193 10.539 10.539 0 0 1-1.7-2.953c-0.455-1.2-0.259-1.5 1.123-1.622 15.232-1.306 35.535 9.253 39.426 24.518 0.673 2.644-0.342 2.94-1.188 0.346-4.628-14.182-23.735-24.206-37.826-23.4a11.444 11.444 0 0 0 1.754 3.152c0.943 1.247 0.7 1.635-0.875 1.357a16.9 16.9 0 0 0-5.173-0.159 14.365 14.365 0 0 0 2.98 4.676c1.249 1.329 0.82 1.859-0.76 1.357a12.645 12.645 0 0 0-4.187-0.613c4.782 17.007 24.508 24.434 34.932 25.615 2.454 0.278 2.491 1.25-0.06 1.231z"/>
  <path d="m128.38 147.55c7.215-6.074 10.693-12.554 10.656-16.111a7.911 7.911 0 0 0-2.942 0.762c-1.308 0.621-1.867 0.144-1.02-1.154a12.55 12.55 0 0 0 1.839-4.382 11.94 11.94 0 0 0-4.155 0.749c-1.394 0.493-1.732 0.1-1.091-1.252a9.58 9.58 0 0 0 0.823-2.764c-2.378 0.048-6.005 1.355-9.532 4.184l-0.182-2.166a18.681 18.681 0 0 1 9.928-3.522c1.194-0.044 1.481 0.219 1.285 1.589a7.244 7.244 0 0 1-0.87 2.529 16.512 16.512 0 0 1 3.976-0.836c1.388-0.121 1.682 0.284 1.375 1.534a12.085 12.085 0 0 1-1.685 3.9 9.557 9.557 0 0 1 2.075-0.638c1.1-0.194 1.491-0.081 1.613 1.06 0.462 4.318-3.374 11.846-11.283 18.224z"/>
  <path d="m127.4 159.15a11.343 11.343 0 0 1 5.422 2.107l0.276 2.391c-0.964-1.3-2.8-2.144-5.307-2.612z"/>
  <path d="m93.3 164.36a201.54 201.54 0 0 0-33.365 9.1l-1.1-1.368c9-3.664 22.348-7.376 34.161-9.589z"/>
  <path d="m95.3 176.56c-1.038-7.207-4.338-18.293-6.464-24.73-0.3-0.91-0.193-1.182 0.73-1.52 9.269-3.388 25.349-5.172 33.885-2.776a1.621 1.621 0 0 1 1.264 1.039c2.866 6.29 5.059 16.341 5.5 24.229 0.056 0.991-0.217 1.215-1.16 1.186-9.184-0.279-23.018 1.485-32.2 3.511-1.169 0.258-1.4 0.135-1.555-0.939zm-4.97-24.947a141.21 141.21 0 0 1 6.374 24.367c8.3-2.042 23.444-3.859 32-3.489a78.36 78.36 0 0 0-5.4-23.407c-8.151-2.398-23.741-0.645-32.974 2.529z"/>
  <path d="m70.4 199.79c3.045 9.564-1.5 23.313-19.01 28.909-16.261 5.2-29.961-1.964-32.948-11.344-3.254-10.22 2.02-23.543 18.49-28.807 14.686-4.694 29.843-0.145 33.468 11.242zm-33.015-9.553c-15.011 4.8-19.772 17.587-16.93 26.51 2.694 8.457 15.7 15.028 30.37 10.339 15.135-4.837 20.684-16.917 17.569-26.7-3.329-10.455-17.727-14.397-31.009-10.149z"/>
  <path d="m51.7 221.29a142.61 142.61 0 0 1-23.713-2.619c-1.126-0.251-1.266-0.591-0.78-1.533 2.434-4.718 7.36-14.815 9.637-19.989 0.334-0.76 0.568-0.816 1.474-0.715 7.043 0.791 17.22 1.76 23.264 2.209 1.168 0.086 1.287 0.414 0.929 1.374a143.63 143.63 0 0 1-9.507 20.522 1.151 1.151 0 0 1-1.304 0.751zm-22.937-3.959c5.826 1.287 16.468 2.258 22.95 2.476a176.64 176.64 0 0 0 9.172-19.747c-4.942-0.339-15.908-1.316-22.737-2.138-2.017 4.711-7.234 15.468-9.385 19.41z"/>
  <path d="m22.5 223.78c-10.485-10.028-14.735-38.744-6.459-51.224 1.321-1.991 2.494-1.622 1.242 0.415-7.249 11.791-2.8 36.632 3.483 45.845z"/>
  <path d="m68.613 198.5c0.473-7.614-1.917-13.217-4.5-14.179-2.222-0.827-6.949 0.724-10.227 3.994l-0.837-1.525c3.454-3.135 8.339-5.124 11.594-3.911 3.993 1.486 6.634 8.348 5.337 18.808z"/>
  <path d="m52.66 187.99c-1.588-3.886-4.59-6.576-7.557-6.562-3.331 0.016-8.969 4.828-10.564 8.943l-2.168 0.937c1.441-5.507 7.976-11.414 12.72-11.425 3.538-8e-3 7.6 3.093 9.531 8.4z"/>
  <path d="m49.8 183.18c-3.108-4.1-8.941-7.667-10.762-7.052-1.37 0.464-3.94 7.091-4.553 12.38l-1.9 2.641c0.751-8.079 3.684-15.612 5.976-16.438 2.615-0.942 10.463 3.584 14.05 9.81z"/>
  <path d="m65.7 184.95c-3.385-6.07-9.415-8.494-10.373-8.159-1.051 0.368-2.346 4.554-2.5 9.505l-1.376-1.967c0.29-3.527 1.344-8.246 3.385-8.962 2.2-0.772 10.129 3.258 13.472 11.089z"/>
  <path d="m68.65 198.5c1.008-14.615-7.156-26.108-19.241-31.152-2.482-1.036-2.241-2.275 0.464-1.277a32.038 32.038 0 0 1 20.49 35.4z"/>
  <path d="m10.4 246.42c5.6-4.175 12.948-13.782 14.816-21.811l1.735 1.181c-2.506 8.642-9.854 18.251-16.638 22.446z"/>
  <path d="m149.6 198.61c-7.492 0-12.522-10.715-12.522-26.67 0-19.036 6.461-25.613 12.665-25.613 7.112 0 12.384 9.379 12.384 26.051 0 17.032-6.164 26.232-12.527 26.232zm0.121-50.571c-5.851 0-10.544 7.995-10.544 23.927s5.088 24.921 10.425 24.921c4.914 0 10.413-7.906 10.413-24.558-1e-3 -16.224-5.065-24.288-10.294-24.288z"/>
  <path d="m123.48 198.54c12.646 1.46 22.4 0.276 25.42-1.335l5.39-0.313c-5.342 4.138-17.273 5.381-32.071 3.265z"/>
  <path d="m131.1 154.38a42.4 42.4 0 0 0 8.473 4.447l-0.358 1.662a42.6 42.6 0 0 1-7.55-3.881z"/>
  <path d="m147.77 147.39c-0.659-2.065-1.871-3.462-2.943-3.443-1.991 0.037-5.247 5.3-4.951 15.421l-1.715-0.723c-0.383-11.455 3.706-16.058 6.617-16.167 1.93-0.1 3.71 2 4.487 4.648z"/>
  <path d="m159.72 160.8c-0.046-11.159-3.172-15.6-5.2-15.972a4.237 4.237 0 0 0-4.411 2.35l-1.941-0.024a6.4 6.4 0 0 1 6.7-3.765c4.11 0.949 7.553 8.494 6.332 23.387z"/>
  <path d="m129.69 150.52c7.829-7.475 14.161-9.412 16.939-7.436l-2.959 0.938c-2.673 0.042-7.275 2.167-13.393 7.926z"/>
  <path d="m152.2 144.87a8.356 8.356 0 0 0-3.913 1.6l-0.7-1.45c2.076-1.42 6.836-2.439 8.567-1.123z"/>
  <path d="m155.19 184.07a93.073 93.073 0 0 0-10.39-0.828c-0.846 0-1.137-0.26-1.177-1.132-0.329-7.217-0.191-16.259 0.161-22.013 0.063-1.027 0.327-1.162 1.352-1.05 3.452 0.378 7.359 0.605 10.271 0.735 0.83 0.037 1.016 0.306 1.066 1.142 0.341 5.739 0.34 15.983-0.01 22.078-0.055 0.945-0.423 1.179-1.273 1.068zm-10.1-2.31a71.78 71.78 0 0 1 9.937 0.8c0.307-5.365 0.307-16.553 0.01-21.313-2.471-0.085-6.862-0.34-9.8-0.722-0.278 5.028-0.31 14.431-0.151 21.23z"/>
 </g>
 <path d="m116.4 124.86c1.273 0.063 2.746-2.1 3.309-7.565 0.484-4.7-0.271-7.282-1.315-7.437-1.53-0.227-4.959 3.023-5.091 6.12-0.211 4.984 1.832 8.818 3.097 8.882z" fill="#fffce4"/>
 <path d="m118.9 122.1c-2.656-0.976-4.421-7.639-0.543-12.24-1.544-0.181-4.928 3.043-5.059 6.12-0.212 4.984 1.831 8.818 3.1 8.882 0.958 0.047 1.717-0.844 2.502-2.762z" fill="#dcdac6"/>
 <path d="m116.3 125.88c-1.761-0.073-4.127-4.435-3.893-9.932 0.156-3.668 4.035-7.19 6.183-6.861 1.717 0.253 2.447 3.749 1.977 8.316-0.666 6.468-2.491 8.55-4.267 8.477zm0.2-1.94c0.529 0.014 1.74-1.179 2.31-6.719 0.467-4.54-0.037-6.409-0.6-6.592-0.481-0.157-3.921 1.919-4.068 5.4-0.199 4.719 1.666 7.893 2.36 7.91z" fill="#0f141b"/>
 <path d="m122.7 58.25c-13.174-12.808-50.588 1.8-66.723 22.311-1.378 1.753-2.231 1.07-0.984-0.779 13.364-19.8 54.27-37.714 69.345-23.063z" fill="#0f141b"/>
</svg>
