<?xml version="1.0" encoding="UTF-8"?>
<svg version="1.1" viewBox="0 0 53.966 69.897" xmlns="http://www.w3.org/2000/svg">
 <g>
  <path d="m30.858 14.688c-0.99004 0.164-2.2951 0.889-2.8816 1.8853 0.10732 0.05041 0.22113 0.13174 0.29663 0.20142 0.42859-0.151 0.91253-0.26594 1.383-0.3504 0.11112-0.61388 0.39499-1.3201 1.202-1.7363" fill="#d35335"/>
  <path d="m27.826 16.392c0.7772-1.228 2.4255-2.1177 4.1983-2.0805l-1.4231 0.66361c-0.83053 0.22964-1.7254 0.81081-2.4082 1.6709z" fill="#0f141b"/>
  <path d="m28.353 16.069c-0.67706-8.4256-7.8966-13.659-12.638-15.775-1.7321 1.8613-2.792 5.0412-2.5595 7.9109 5.5088 0.30716 10.662 3.4093 12.837 6.4589-2.928-2.7391-6.7759-3.8103-10.278-3.3049-0.10328 0.95644-0.02576 2.6885 0.25854 3.8262 2.1716-0.47945 5.3923-0.45189 7.9596 0.5377 1.4354-0.33046 2.9527-0.03585 4.0597 0.82537 0.10149-0.16803 0.22315-0.32822 0.36048-0.47923" fill="#fddb6c"/>
  <path d="m26.389 15.78c-1.6436-3.368-7.4411-6.9162-13.094-7.2502-0.35892-0.02106-0.45503-0.11247-0.47699-0.48147-0.17027-2.8583 0.82784-5.9161 2.568-7.8655 0.20231-0.22673 0.35466-0.21844 0.60536-0.10463 3.4572 1.5717 7.0753 4.1856 9.5491 7.673 1.9917 2.8077 2.9925 6.1298 3.1095 8.94l-0.50858 0.07281c-0.12434-2.9847-1.2616-6.1291-3.0909-8.6731-2.4181-3.3629-5.912-5.8668-9.2644-7.4138-1.56 1.7785-2.4909 4.8516-2.3524 7.2581 5.5912 0.32755 11.848 4.0955 13.514 7.928z" fill="#f1972d"/>
  <path d="m23.598 15.832c-1.998-0.643-5.0105-0.85517-7.4391-0.36272-0.37415 0.07595-0.44092 0.02464-0.51642-0.29417-0.28812-1.2172-0.36272-2.6755-0.29417-3.7532 0.02016-0.31545 0.123-0.37124 0.44988-0.41112 3.5699-0.43554 7.3318 0.73956 9.9293 3.1319l0.48953 1.0299c-2.6152-2.6442-6.6774-3.9918-10.22-3.5358-0.09253 0.8238 0.03361 2.3168 0.22427 3.1718 2.1943-0.42837 5.8977-0.24421 8.1101 0.83411z" fill="#f1972d"/>
  <path d="m50.797 20.097c-1.8647-2.3103-5.6779-2.7945-10.127-1.4189-2.1853-2.0404-5.8276-4.0429-8.6478-4.113-1.5275-0.03786-2.1401 0.85248-2.3663 1.8593-0.47183 0.09835-1.034 0.23412-1.383 0.3504-1.2423-1.1538-3.1491-1.4865-4.8436-0.91163-7.0677 2.3975-9.9034 19.224-6.4993 21.542 3.9295 2.6757 13.304-1.01 19.583-6.864 7.8204-7.2904 12.009-7.6006 13.922-6.4114 0.84016 0.52224 1.0017 2.0961 0.3755 3.8573 1.8694-3.0279 1.6926-5.7767-0.01344-7.8903" fill="#fffbe6"/>
  <path d="m44.741 21.007c-0.49558-0.5162-1.2204-1.0478-1.804-1.2735-0.57041 0.26527-1.1939 0.68983-1.698 1.2071 1.0613-0.07953 2.3612-0.06632 3.502 0.06632" fill="#2a353d"/>
  <path d="m50.511 19.781c-0.44316-0.46175-0.97369-0.83814-1.58-1.1285 0.01658 0.57445 0.01635 1.2159-0.03854 1.7314 0.45279-0.08827 1.0431-0.31545 1.6185-0.6029" fill="#2a353d"/>
  <path d="m50.81 27.987c0.62642-1.7614 0.46489-3.3351-0.37527-3.8573-1.9131-1.1892-6.1014-0.87892-13.922 6.4114-5.1664 4.8165-12.426 8.1614-17.026 7.7068 4.4141 4.9202 13.46 7.4136 19.779 7.0809 4.3776-0.23032 7.0222-1.3552 8.3026-3.433-0.73777-0.74337-0.85315-1.8582-0.75346-3.1335 0.041-0.52538 0.25115-1.1128 0.50074-1.5766-0.96966-0.86951-2.227-1.7305-3.8098-2.4306 3.6031-2.3126 5.9719-4.611 7.3038-6.7681" fill="#91331e"/>
  <path d="m39.266 45.329c-6.3193 0.33494-15.365-2.1607-19.779-7.0809-0.99094-0.098131-1.6682-0.43195-2.3648-0.90625-3.7164-2.5306-0.55563-18.677 5.9777-21.356-5.4021 2.0845-13.447 11.963-12.065 20.527 2.2165 13.735-1.4995 17.787-9.8982 19.254-0.90513 0.15817-1.1151 0.45906-0.70081 1.0826 4.5494 6.8479 16.532 9.2133 28.515 8.3214 10.959-0.81574 17.726-5.6571 19.745-13.934-0.1044 0.0047-0.20388 4e-3 -0.29126-0.0069 0.03495-0.40597 0.18752-1.0315 0.3802-1.5564-0.22785 0.07685-0.47497 0.10956-0.6905 0.0634-0.0578-0.76578 0.20186-2.0509 0.72388-3.1668 0.37505-0.8014 0.37505-1.9003 0.1165-3.1541 0.66563-0.67863 1.0319-1.4484 0.95644-2.3849-0.04391-0.54599-0.47811-1.508-1.3575-2.576-0.37415 5.2814-4.083 6.5992-9.268 6.8741" fill="#d35335"/>
  <path d="m47.825 51.049c-1.778 0.87668-6.1497 1.7413-8.6339 1.6075-0.41403 2.3137-1.1691 5.297-1.9971 7.2821 2.192 0.24354 6.381-0.63314 8.5486-1.851 1.1325-1.5587 2.1434-4.7979 2.0825-7.0385" fill="#fddb6c"/>
  <path d="m5.1477 54.702c0.056011 0.40081 0.13846 0.89304 0.21284 1.2647 1.7321-0.18103 4.1753-2.4044 5.0672-3.9685 0.05803-0.58094 0.02196-1.2486-0.05422-1.8298-1.0873 2.2057-2.8498 3.61-5.2258 4.5335" fill="#fddb6c"/>
  <path d="m32.059 34.011c-4.3688 2.8492-9.1889 4.5709-12.572 4.2364 4.4141 4.9204 13.46 7.4136 19.779 7.0811 3.2735-0.17229 5.5771-0.84509 7.0668-2.0421 0.94165-2.948-4.201-8.3718-14.274-9.2754" fill="#ed8499"/>
 </g>
 <g fill="#fffbe6">
  <path d="m30.282 44.246c1.6339 0.44741 3.2869 0.76197 4.8794 0.93919-0.19761-1.8813-1.0801-3.7321-1.7699-3.8446-0.67549-0.10978-2.1643 1.0532-3.1095 2.9054"/>
  <path d="m50.435 24.13c-1.1256-0.69968-3.0403-0.87847-6.0178 0.57669 1.053 1.8979 3.4119 3.446 3.9319 3.3445 0.46668-0.09096 1.8842-1.7198 2.3628-3.6839-0.08223-0.09365-0.17431-0.17341-0.27692-0.23726"/>
  <path d="m48.108 36.358c-0.38782-0.06452-1.2069 1.3082-1.2927 2.4042-0.0997 1.2766 0.01591 2.3923 0.75547 3.1357 0.46534-0.7548 0.75189-1.6344 0.87332-2.6444 0.2525-2.1002-0.0067-2.8406-0.33606-2.8955"/>
 </g>
 <g fill="#dcdac6">
  <path d="m19.642 38.262c4.6079 0.35556 11.769-2.965 16.871-7.7212 7.8204-7.2906 12.009-7.6009 13.922-6.4117 0.83994 0.52224 1.0015 2.0961 0.37527 3.8576 0.5778-0.93605 0.9589-1.845 1.1612-2.717-0.63359-4.2454-7.6889-3.778-16.219 4.4954-4.2929 4.1636-11.395 7.8507-16.111 8.4968"/>
  <path d="m49.607 23.768c-0.13219 1.4202-0.64614 3.0006-1.3994 4.2781 0.4678 0.07774 1.9581-1.4401 2.5035-3.6788-0.246-0.28005-0.62844-0.46086-1.1041-0.59931"/>
  <path d="m48.077 36.36c0.01837 1.8307-0.43845 3.5307-1.1509 4.3509 0.1183 0.45503 0.31814 0.85898 0.64457 1.1874 0.46534-0.7548 0.75189-1.6344 0.87332-2.6446 0.2572-2.1394-0.0013-2.8989-0.36698-2.8937"/>
  <path d="m33.314 41.338c0.41538 1.1186 0.72859 2.5142 0.71962 3.6994 0.37818 0.05646 0.75458 0.10687 1.1274 0.14854-0.22203-2.1134-1.1563-3.8284-1.847-3.8479"/>
 </g>
 <g>
  <path d="m32.059 34.011c-4.3688 2.8492-9.1889 4.5709-12.572 4.2364 1.7117 1.9079 4.121 3.4491 6.7968 4.6041 2.0379-4.7192 8.6702-8.003 17.003-4.9984-2.4288-1.8251-6.2179-3.3927-11.228-3.8421" fill="#cf7486"/>
  <path d="m34.578 55.133c-0.32441 0.10978-0.64457 0.15997-0.9412 0.1882 0.07057 0.17408 0.13666 0.37639 0.17655 0.52919 1.0082 0.14227 3.3199 0.19559 4.6664 0.16803 0.08984-0.35421 0.18663-0.77653 0.28117-1.2139-1.3449 0.35623-2.7577 0.48483-4.1829 0.32845" fill="#b7482d"/>
  <path d="m48.818 43.157c-0.44629 0.42613-0.75928 1.0225-0.86077 1.7935-0.36765 2.7934-1.9832 5.4093-4.272 7.3 1.551-0.28364 3.0678-0.69162 4.1166-1.161 0.02823 1.0714-0.17498 2.9325-0.53591 4.128 0.57534-1.0431 1.2351-3.096 1.4285-3.9808-0.07752 0.0065-0.17072-6.73e-4 -0.28946-0.0067 0.03338-0.43464 0.22023-1.2685 0.37998-1.5564-0.20657 0.05601-0.47004 0.07371-0.69028 0.0634-0.04571-1.1057 0.24846-2.207 0.72388-3.1668 0.46444-0.93784 0.47385-2.2814-5.04e-4 -3.4131" fill="#b7482d"/>
  <path d="m47.825 51.049c-0.90401 0.44585-2.4788 0.88766-4.1349 1.1975-1.4303 1.1827-3.1232 2.0825-4.9417 2.5622-0.41806 1.8159-0.96764 3.7234-1.5544 5.1299 2.0005 0.22225 5.6645-0.48841 7.9369-1.5401 1.7357-2.061 2.6867-3.8726 2.6941-7.3495" fill="#d9bd5c"/>
  <path d="m37.194 59.939c0.45906-1.1005 0.89415-2.5077 1.2625-3.9373-1.9449 0.03204-3.7021-0.01299-4.9094-0.14003l-12.306 2.4132c-7.667 3.5565-16.284 2.2626-19.903-0.23816 5.0914 5.9329 16.352 7.9728 27.613 7.1344 7.2429-0.53905 12.652-2.8388 16.071-6.7249-2.279 1.025-5.8589 1.7117-7.8287 1.4928" fill="#dcdac6"/>
 </g>
 <g fill="#b7482d">
  <path d="m21.223 55.799c-3.9555 3.0506-15.641 4.0072-20.501 1.3702 0.20679 0.38782 0.4044 0.64793 0.61589 0.86682 4.7873 3.2437 13.741 3.1655 19.903 0.23816-0.17229-0.6914-0.25003-1.6478-0.01725-2.4752"/>
  <path d="m24.705 51.81c3.0472 1.9449 9.0372 3.1039 12.637 1.6803-2.1513 3.444-11.759 1.2999-12.637-1.6803"/>
  <path d="m48.94 43.443c0.25272 1.2423 0.2507 2.3312-0.12143 3.1265-0.52202 1.1162-0.78168 2.4013-0.72388 3.1671 0.21553 0.04615 0.46265 0.01344 0.6905-0.0634-0.19268 0.52471-0.34525 1.1505-0.3802 1.5564 0.1528 0.01904 0.33898 0.01255 0.53434-0.01457-0.12591 0.34077-0.17811 0.72926-0.21127 1.055 0.93 0.22359 2.6773-0.58027 2.7147-3.3866 0.03518-2.6464-0.88161-4.6552-2.5028-5.4404"/>
 </g>
 <path d="m51.666 47.012c-0.09723-0.0065-0.21665 0.1109-0.32688 0.29596 0.07438 0.49401 0.11135 1.0194 0.10396 1.575-0.0052 0.37908-0.04346 0.71873-0.10463 1.027 0.69655 0.39409 1.5502 0.52852 1.7074 0.38199 0.47183-0.43935-0.77116-3.2394-1.3799-3.28" fill="#373f4c"/>
 <path d="m52.929 50.339c-0.29574 0.05287-0.99878-0.0941-1.5903-0.42859-0.39185 1.9749-1.8056 2.553-2.6099 2.3596 0.03316-0.32553 0.08536-0.71402 0.21127-1.055-0.08469 0.01164-0.16579 0.0177-0.2451 0.02128-1.1596 4.7524-3.8847 8.3718-8.07 10.747 3.9082 0.58385 9.7205 0.34951 10.818-0.43868 2.287-1.6413 2.8005-7.964 1.4856-11.206" fill="#b7482d"/>
 <g fill="#0f141b">
  <path d="m50.234 28.743c0.92059-2.002 0.78572-3.8336-0.0063-4.326-1.7204-1.0691-5.9947-0.63852-13.508 6.3642-5.291 4.933-12.052 7.9506-16.658 7.8184-2.602-0.07461-4.5723-1.3584-4.8577-4.7394-0.49894-5.9147 2.499-16.346 8.1327-18.266 1.8201-0.62037 3.6922-0.25877 4.9962 0.89752 0.30537-0.10978 0.73284-0.20365 1.1173-0.2861 0.21934-1.098 1.0319-1.9288 2.574-1.8936 2.9751 0.07416 6.7753 2.2106 8.9523 4.2691l-0.61657 0.20702c-1.9821-1.7892-5.5408-3.8995-8.3434-3.9691-1.1803-0.03316-1.802 0.56459-2.0946 1.5589-0.0587 0.19985-0.10418 0.26303-0.33584 0.315-0.34144 0.07685-0.76174 0.18573-1.098 0.28498-0.23211 0.06833-0.32307 0.0401-0.48371-0.09611-1.1379-0.96428-2.8868-1.3281-4.4858-0.7604-5.3085 1.8849-8.0546 12.087-7.6228 17.638 0.21889 2.8122 1.7495 4.1318 4.1652 4.2142 4.46 0.15235 11.304-3.0642 16.249-7.6741 7.1898-6.702 11.841-7.9977 14.317-6.4585 0.83389 0.51866 1.1189 2.018 0.65196 3.4476z"/>
  <path d="m48.979 51.224c-1.8221 8.3158-8.6628 13.415-20.014 14.26-11.041 0.82134-23.874-0.9719-28.706-8.5022-0.5041-0.78549-0.30223-1.2192 0.8536-1.4379 7.9782-1.5103 11.889-5.2509 9.5966-18.985-1.508-9.0352 7.075-19.15 12.627-20.965l-1.4549 1.3187c-4.8982 2.9-11.825 11.864-10.539 19.569 2.2615 13.549-1.4186 18.101-10.17 19.505-0.74113 0.11874-0.86032 0.3-0.54577 0.75256 5.0067 7.2043 17.772 8.899 28.303 8.1157 10.564-0.78639 17.299-5.3645 19.469-13.649z"/>
  <path d="m48.566 38.047c1.0163 1.1664 1.5564 2.2819 1.6124 2.9771 0.0876 1.0855-0.32262 1.8385-0.96226 2.4728 0.31836 1.4137 0.23972 2.3383-0.16154 3.1962-0.45189 0.96585-0.73105 2.1519-0.73441 2.8274 0.2991-0.0015 0.58027-0.07438 0.79244-0.19044 0.40865-0.22359 0.55226-0.01949 0.18842 0.27109-0.40059 0.32016-0.9291 0.42187-1.3071 0.36855-0.07236-0.0103-0.12098-0.0764-0.13017-0.14899-0.10911-0.8592 0.18663-2.3155 0.68557-3.3826 0.32845-0.70148 0.37998-1.5441 0.14204-2.846-0.0363-0.19917-0.0043-0.28969 0.12726-0.43509 0.54106-0.59887 0.84173-1.258 0.7716-2.1082-0.04077-0.49379-0.39723-1.2961-1.1061-2.2053z"/>
  <path d="m47.159 37.431c-0.89147-0.80566-2.0406-1.6162-3.4689-2.3146-0.51888-0.25384-0.5218-0.41986-0.06251-0.72702 8.0093-5.3569 9.7028-10.583 6.8743-14.088-3.5719-4.4257-14.82-1.7883-23.798 8.4332-0.68378 0.77855-0.93179 0.55226-0.27849-0.2516 8.4894-10.444 20.647-13.539 24.664-8.5627 3.1854 3.947 1.0927 9.6511-7.0941 14.798 1.3707 0.61545 2.5164 1.387 3.4344 2.1918z"/>
  <path d="m49.009 49.594c-0.21082 0.53569-0.33696 1.1173-0.35376 1.4251 0.24465 0.0121 0.54532-0.02173 0.83926-0.10664 0.45817-0.13241 0.55047 0.13129 0.10911 0.31187-0.36922 0.151-0.82963 0.22852-1.2853 0.21642-0.08894-0.0022-0.15616-0.09029-0.14406-0.17856 0.07617-0.55585 0.21665-1.0987 0.39364-1.5253z"/>
  <path d="m49.051 43.241c1.6673 0.7082 2.7134 2.8384 2.6755 5.6524-0.03898 2.9704-1.8647 3.9069-3.0999 3.5822-0.07976-0.02084-0.13442-0.09522-0.12569-0.17744 0.03607-0.34435 0.11023-0.7483 0.21777-1.0611l0.43151-0.05579c-0.09947 0.31366-0.15123 0.61096-0.177 0.89438 0.78975 0.06072 2.1542-0.79849 2.1862-3.2065 0.03361-2.5203-0.80946-4.387-2.2037-5.144z"/>
  <path d="m40.896 61.764c3.3089 0.40955 9.2319 0.3038 10.351-0.51014 2.0973-1.5257 2.525-7.8585 1.5912-10.992l0.48909-0.4967c1.1426 3.4617 0.85562 10.244-1.7061 12.075-1.2302 0.87892-7.2648 1.0888-11.351 0.35645z"/>
  <path d="m51.363 49.618c0.71358 0.44585 1.3176 0.53233 1.4865 0.41358 0.3038-0.21329-0.82717-2.863-1.1957-2.8115-0.1109 0.01568-0.21979 0.13577-0.28431 0.39431l-0.14876-0.65264c0.1118-0.18932 0.2171-0.26101 0.40977-0.25294 0.78594 0.03316 2.1949 3.1677 1.5873 3.7171-0.28924 0.26146-1.228 0.07102-1.9389-0.34256z"/>
  <path d="m46.035 57.182c0.87354-1.6104 1.5291-3.9544 1.5663-5.7747-1.9324 0.87914-5.8504 1.6064-8.2251 1.4843-0.33024 2.0222-1.0089 4.795-1.8562 6.8461 1.933 0.10127 5.4619-0.59685 7.848-1.7128l-0.76645 0.87556c-2.0363 0.87063-5.1485 1.491-7.177 1.2916-0.45794-0.04503-0.51127-0.16422-0.35757-0.55114 0.83702-2.1076 1.5058-4.909 1.8802-6.9041 0.05332-0.28431 0.10799-0.31008 0.42859-0.30425 2.5068 0.0457 6.3176-0.69207 8.1153-1.4829 0.41044-0.18058 0.56167-0.12278 0.5628 0.33248 0.0025 1.126-0.23166 2.4374-0.60962 3.6705z"/>
  <path d="m38.39 56.267c-1.5257 0.05579-3.198 0.03047-4.4977-0.10194l-0.151-0.55921c1.4684 0.14182 3.1292 0.19985 4.7833 0.151z"/>
  <path d="m21.206 58.601c-7.3504 3.4283-15.701 2.2906-19.354 0.020611l-0.79983-1.0617c3.4577 2.6726 12.506 4.0169 20.082 0.44719z"/>
  <path d="m36.799 52.965c0.2507 0.08088 0.51619 0.21329 0.71582 0.38199 0.16333 0.13801 0.1705 0.25272 0.0031 0.451-2.5133 2.9746-10.031 2.24-12.922-1.5779-0.42972-0.5675-0.18439-0.77183 0.29081-0.24197 2.9164 3.2522 9.6123 4.1959 12.214 1.6001-0.1808-0.15033-0.44988-0.29327-0.76018-0.34659z"/>
  <path d="m36.627 51.616c0.26751 0.1351 0.5666 0.37908 0.81977 0.63628 0.17274 0.17565 0.18282 0.24667 0.02554 0.42747-0.27557 0.31724-0.63046 0.54756-1.0687 0.68871-0.5386 0.17318-0.60335-0.07662-0.11717-0.30918 0.328-0.15683 0.57691-0.32083 0.76309-0.56996-0.24286-0.27109-0.54241-0.50768-0.95532-0.74091z"/>
  <path d="m36.113 51.563c0.37975-0.06139 0.68064-0.16176 0.94904-0.31859-1.7686-2.9421-6.8389-4.5902-11.271-3.5249-0.70686 0.16982-0.79222-0.16109-0.09455-0.36272 4.5698-1.321 10.007 0.38625 11.81 3.7525 0.13286 0.24779 0.08469 0.35444-0.11561 0.46265-0.35623 0.19245-0.78773 0.29618-1.2528 0.3206-0.59708 0.03137-0.60335-0.23592-0.02442-0.32957"/>
  <path d="m5.3627 54.62c0.047721 0.34637 0.10978 0.75301 0.17767 1.0859 1.5156-0.31993 3.7543-2.2156 4.6632-3.7843 0.05175-0.4911 0.04526-0.91141-0.01299-1.4121l0.35242-0.70461c0.11292 0.81126 0.16557 1.4637 0.12502 2.0451-0.0121 0.17498-0.05243 0.28453-0.14182 0.43173-0.91768 1.5105-3.1606 3.5916-4.9363 3.8858-0.36362 0.060268-0.42725 0.028453-0.50029-0.38042-0.06094-0.33987-0.11157-0.69319-0.15661-1.012z"/>
  <path d="m19.878 38.278c4.2145 4.5172 13.061 7.0867 19.373 6.7551 6.0068-0.31612 8.4957-2.2409 8.9238-5.7991 0.23883-1.9882 0.07438-2.6247-0.09455-2.6381-0.15101-0.01165-0.90289 0.96406-0.99766 2.1858-0.1342 1.7128 0.14585 2.3352 0.64748 2.904l-0.31612 0.40238c-0.60357-0.52605-1.0057-1.4144-0.85495-3.3452 0.10776-1.3806 1.0521-2.7109 1.5779-2.6258 0.56795 0.09477 0.79714 1.1735 0.55495 3.1879-0.47475 3.9474-3.3757 6.0135-9.4089 6.331-6.717 0.35421-15.836-2.298-20.197-7.4402z"/>
  <path d="m32.32 33.816c9.8182 0.86996 15.066 6.1869 14.314 9.248l-0.64726 0.45817c1.1926-2.7954-3.742-8.2869-14.199-9.3139z"/>
  <path d="m29.986 44.167c0.98982-1.8759 2.5991-3.2009 3.4368-3.0624 0.8545 0.14115 1.8271 2.1654 2.0231 4.0935l-0.5917-0.07102c-0.15571-1.8535-1.0725-3.4727-1.5134-3.5497-0.50253-0.08783-1.9254 1.0564-2.7732 2.7521z"/>
  <path d="m50.925 24.662c-0.43688 1.7753-1.9492 3.5529-2.5418 3.6364-0.63875 0.09029-3.0011-1.3118-4.2638-3.452l0.57445-0.26997c0.88228 1.8221 3.2215 3.2863 3.6134 3.2318 0.37751-0.05243 1.8253-1.8298 2.1528-3.6752z"/>
  <path d="m44.201 20.766c-0.1817-0.1817-0.8377-0.6374-1.2555-0.79737-0.43218 0.20522-0.92664 0.53815-1.1099 0.72231 0.55809-0.05175 1.8186-0.02599 2.3654 0.07505m0.33181 0.40865c-0.96047-0.0923-2.0444-0.09477-3.0486-0.02868-0.54308 0.03562-0.63023-0.15728-0.23681-0.51709 0.44831-0.41045 0.95397-0.77138 1.4648-1.0301 0.19581-0.09925 0.24667-0.1006 0.44204-0.0092 0.54442 0.25496 1.1682 0.73083 1.5903 1.1516 0.36026 0.35869 0.26235 0.479-0.21172 0.43352"/>
  <path d="m50.658 19.952c-0.533 0.26908-1.0259 0.45145-1.5121 0.57064-0.41605 0.10194-0.4492 0.04638-0.42053-0.38782 0.03383-0.51754 0.03428-0.9999-0.01658-1.6071l0.44092 0.20321c0.03181 0.51328 0.01164 1.0093-0.0522 1.4124 0.35376-0.1044 0.79759-0.29282 1.2674-0.53367z"/>
 </g>
 <g>
  <path d="m36.384 60.685c0.88183 4.5559-2.1069 8.2358-6.4827 8.8481-4.7058 0.65846-8.702-2.0283-9.4297-6.3534-0.70574-4.1959 2.1329-8.234 6.599-8.8869 4.8561-0.70977 8.5163 2.2736 9.3135 6.3922" fill="#d35335"/>
  <path d="m32.183 57.635c-2.2104 0.15504-6.0624 0.67213-8.2988 1.1245 0.12927 1.8743 0.45257 5.1189 0.74987 7.3293 2.3009 0.05175 6.2692-0.38782 8.4408-0.82716-0.11628-1.9908-0.50409-5.5455-0.89191-7.6266" fill="#fddb6c"/>
  <path d="m33.899 56.207c-0.57422-2.5274-1.8943-3.9913-3.0221-4.0791-1.2363-0.09611-2.3735 0.42344-3.4825 2.125 2.6296-0.29865 4.8886 0.49222 6.5046 1.9541" fill="#434d5c"/>
  <path d="m26.713 54.355c-1.0431-1.2773-2.7463-1.4843-3.6559-1.1278-1.3077 0.51261-2.2864 2.8308-1.8504 5.1971 1.0449-2.0341 2.9999-3.5921 5.5063-4.0693" fill="#434d5c"/>
  <path d="m36.384 60.685c-0.07371-0.38087-0.17229-0.75189-0.2935-1.1113-0.65981 1.3646-1.8035 2.4392-3.2181 3.2329 0.09163 0.9188 0.16288 1.7776 0.20253 2.4542-2.1716 0.43957-6.1401 0.87914-8.441 0.82739-0.06744-0.50298-0.13644-1.0608-0.2041-1.6425-1.3745-0.10888-2.6999-0.3858-3.8721-0.83142 0.91454 4.0686 4.7977 6.5548 9.3437 5.9188 4.3758-0.61231 7.3645-4.2922 6.4827-8.8481" fill="#b7482d"/>
  <path d="m33.075 65.261c-0.03943-0.67661-0.1109-1.5354-0.20253-2.4542-2.3766 1.3337-5.5204 1.8705-8.4426 1.6391 0.06766 0.58162 0.13667 1.1395 0.20433 1.6425 2.3009 0.05153 6.2692-0.38782 8.4408-0.82739" fill="#d9bd5c"/>
 </g>
 <g fill="#0f141b">
  <path d="m36.06 60.731c-0.81798-4.2259-4.5797-6.8174-8.9521-6.1782-4.2124 0.61589-7.0168 4.5254-6.3323 8.5943 0.72792 4.3263 4.8185 6.7264 9.0973 6.1278 4.1732-0.58386 7.0479-4.0977 6.1872-8.5439m-15.912 2.5108c-0.74046-4.3989 2.2368-8.5354 6.9081-9.2182 4.7378-0.69229 8.7652 2.0946 9.641 6.6202 0.90737 4.6874-2.1526 8.5065-6.7591 9.151-4.8017 0.67213-9.0238-1.9951-9.79-6.553"/>
  <path d="m24.831 65.865c2.3287-0.01524 5.8771-0.3932 8.0106-0.78594-0.13644-2.0697-0.52426-5.2787-0.84755-7.2041-2.1878 0.18999-5.6875 0.65532-7.8708 1.0696 0.13779 1.709 0.41896 4.6464 0.70775 6.9205m-0.43845 0.13487c-0.31949-2.2801-0.61768-5.1727-0.72791-7.0836-0.01568-0.27087 0.03316-0.34973 0.33382-0.40978 2.3233-0.46444 5.7516-0.91208 8.0039-1.0837 0.30111-0.02308 0.37281 0.04033 0.43038 0.34368 0.40955 2.1571 0.74091 5.3154 0.85584 7.354 0.01591 0.28409-0.03674 0.33629-0.30044 0.3876-2.2653 0.44181-5.8641 0.87153-8.245 0.80678-0.26213-0.0072-0.31724-0.07595-0.35063-0.315"/>
  <path d="m33.554 55.919c-0.57937-2.2678-1.7661-3.4814-2.7002-3.554-1.1198-0.08693-2.1739 0.41112-3.1597 1.8728l-0.64009 0.03854c1.1121-1.7932 2.4396-2.4819 3.8358-2.3764 1.2096 0.0941 2.7515 1.5179 3.336 4.6451z"/>
  <path d="m20.993 58.72c-0.55719-2.5503 0.44226-5.0999 1.9792-5.7023 1.0196-0.39969 2.781-0.21598 4.0433 1.2986l-0.57893 0.11852c-1.0214-1.1756-2.4647-1.3232-3.2995-0.99654-1.0942 0.42859-2.0079 2.5032-1.7292 4.6643z"/>
  <path d="m36.155 20.561c-0.20343-0.84688 0.07909-1.5515 0.7324-1.7735 0.61746-0.20881 1.2049 0.08626 1.5405 0.684l-0.40238 0.21172c-0.19872-0.36317-0.6271-0.5218-0.9645-0.40709-0.36541 0.12434-0.54599 0.57198-0.46713 1.1213z"/>
  <path d="m26.827 25.124c-0.58094-0.79334-0.60312-2.3903 0.54196-3.0692 0.84979-0.5041 2.3751-0.10194 2.9217 1.1921 0.22539 0.53345-0.11448 0.6793-0.45391 0.20948-0.62978-0.8722-1.5618-1.1173-2.0908-0.83389-0.69789 0.37415-0.8964 1.3055-0.48909 2.251 0.2646 0.61432-0.05601 0.76107-0.42994 0.25048"/>
 </g>
</svg>
