<?xml version="1.0" encoding="UTF-8" standalone="no"?>
<svg
   version="1.1"
   viewBox="0 0 260.88 304.57"
   id="svg15463"
   sodipodi:docname="909.svg"
   inkscape:version="1.2.2 (b0a8486, 2022-12-01)"
   xmlns:inkscape="http://www.inkscape.org/namespaces/inkscape"
   xmlns:sodipodi="http://sodipodi.sourceforge.net/DTD/sodipodi-0.dtd"
   xmlns="http://www.w3.org/2000/svg"
   xmlns:svg="http://www.w3.org/2000/svg">
  <defs
     id="defs15467" />
  <sodipodi:namedview
     id="namedview15465"
     pagecolor="#505050"
     bordercolor="#eeeeee"
     borderopacity="1"
     inkscape:showpageshadow="0"
     inkscape:pageopacity="0"
     inkscape:pagecheckerboard="0"
     inkscape:deskcolor="#505050"
     showgrid="false"
     inkscape:zoom="1.0958216"
     inkscape:cx="133.68964"
     inkscape:cy="157.41613"
     inkscape:window-width="1399"
     inkscape:window-height="581"
     inkscape:window-x="29"
     inkscape:window-y="212"
     inkscape:window-maximized="0"
     inkscape:current-layer="svg15463" />
  <path
     d="m 95.6,63 c 2.163,1.269 3.141,3.66 2.737,7.02 a 63.068,63.068 0 0 1 8.125,0.847 A 15.233,15.233 0 0 0 95.6,63 Z"
     fill="#b6472d"
     id="path15291" />
  <path
     d="m 91.99,61.859 a 15.572,15.572 0 0 1 15.365,8.477 l -2.038,0.657 a 14.88,14.88 0 0 0 -9.563,-6.9 z"
     fill="#0f141b"
     id="path15295" />
  <path
     d="m 155.767,1.381 c -27.653,12.884 -43.647,35.56 -50.726,67.454 a 15.972,15.972 0 0 1 1.334,2.011 39.646,39.646 0 0 1 22.529,-6.227 135.16,135.16 0 0 1 28.884,-0.59 c 2.134,-2.919 2.7,-9.206 1.124,-12.575 -14.524,-2.039 -26.8,0.511 -38.585,7.486 8.886,-8.485 27.035,-19.21 44.086,-23.878 C 165.535,22.6 161.83,7.444 155.767,1.381 Z"
     fill="#fddc6b"
     id="path15297"
     style="fill:#fddc6b;fill-opacity:1" />
  <path
     d="m 164.3,36.6 a 1.889,1.889 0 0 0 1.578,-1.978 C 166.837,21.88 163.331,7.665 157.265,0.866 A 1.743,1.743 0 0 0 154.796,0.333 85.17,85.17 0 0 0 117.46,33.484 c -6.025,9.878 -10.99,22.882 -13.673,36.769 l 2,0.315 a 106.65,106.65 0 0 1 13.979,-35.626 c 8.724,-13.963 20.6,-24.445 35.835,-31.909 5.192,6.146 8.5,19.619 7.718,31.014 -16.861,5.028 -36.542,16.021 -45.328,26.055 -2.449,2.914 -1.364,3.713 1.315,1.034 C 131.574,48.866 148.332,41.577 164.3,36.6 Z"
     fill="#f2831b"
     id="path15301"
     style="fill:#f2972c;fill-opacity:1" />
  <path
     d="m 122.8,56.4 a 57.011,57.011 0 0 1 35.742,-6.253 c 1.131,0.154 1.422,0.39 1.744,1.3 1.324,3.738 0.829,9.72 -1.169,13.1 -0.488,0.826 -0.86,0.953 -2.035,0.835 -9.348,-0.943 -19.926,-0.762 -24.817,-0.077 l -6.378,-1.2 a 133.44,133.44 0 0 1 31.278,-1.387 c 1.386,-2.193 1.929,-7.156 0.795,-10.019 a 58.38,58.38 0 0 0 -37.7,7.365"
     fill="#f2831b"
     id="path15303"
     style="fill:#f2972c;fill-opacity:1" />
  <path
     d="m 9,143.2 c -6.49,-7.826 -9.084,-16.936 -6.248,-25.448 4.347,-13.039 19.976,-20.117 40.3,-20.2 11.992,-20.378 32.414,-32.5 49.086,-34.532 4.158,-0.5 6.563,1.583 6.211,7.1 a 37.68,37.68 0 0 1 7.872,0.958 c 8.642,-6 22.344,-8.013 29.079,-5.079 22.229,9.683 37.134,67.278 28.124,81.593 -4.478,7.112 -37.782,16.131 -72.415,1.178 C 30.092,122.47 17.272,127.614 10.609,136.837 9.554,138.293 9.072,141.408 9,143.2 Z"
     fill="#fffce4"
     id="path15307" />
  <path
     d="m 51.415,108.732 a 19.179,19.179 0 0 0 -10.99,-3.157 32.81,32.81 0 0 0 -3.7,8.63 40.768,40.768 0 0 1 14.69,-5.473 z"
     fill="#1f282f"
     id="path15311"
     style="fill:#29343d;fill-opacity:1" />
  <path
     d="m 19.41,106.54 a 33.3,33.3 0 0 0 -8.42,4.925 28.06,28.06 0 0 0 6.356,4.548 22.405,22.405 0 0 1 2.064,-9.473 z"
     fill="#1f282f"
     id="path15313"
     style="fill:#29343d;fill-opacity:1" />
  <path
     d="m 127.5,281.57 a 180.19,180.19 0 0 0 28.131,-3.408 c -5,-14.778 -4.763,-31.146 -0.646,-43.079 -36.349,21.576 -80.5,25.955 -106.1,4.543 16.107,26.59 44.773,43.296 78.615,41.944 z"
     fill="#fffce4"
     id="path15315" />
  <path
     d="m 163.3,147.5 c 9.492,-14 -5.895,-71.91 -28.124,-81.593 17.369,7.643 48.726,32.474 51.307,79.4 2.178,39.562 28.068,58.156 65.4,46.479 6.55,-2.049 8.407,-1 7.914,5.39 -0.01,0.11 -0.022,0.22 -0.033,0.33 -6.415,26.866 -36.873,36.231 -61.44,35.967 15.778,8.895 27.344,28.127 27.523,35.319 0.158,6.3 -12.005,16.75 -24.186,22.671 l -25.141,-0.19 -19.763,-9.826 c -6.226,-15.594 -6.269,-33.555 -1.843,-46.385 -36.257,21.522 -80.278,25.927 -105.9,4.7 C 40.059,225.024 34.29,206.777 32.669,185.613 13.242,165.528 5.145,144.489 10.483,136.742 c 6.918,-10.043 21,-13.878 80.4,11.933 34.815,15.13 67.306,6.358 72.417,-1.175 z"
     fill="#d35336"
     id="path15319" />
  <path
     d="m 55.047,232.347 a 69.9,69.9 0 0 0 11.974,28.689 85.648,85.648 0 0 0 7.565,5.781 c 10.5,3.133 26.418,3.961 38.464,0.452 -3.366,-8.536 -8.356,-22.6 -11,-31.615 -13.043,2.824 -34.982,1.079 -47.003,-3.307 z"
     fill="#fddc6b"
     id="path15323" />
  <path
     d="m 207.032,188.423 a 36.52,36.52 0 0 0 1.616,5.373 c 5.9,6.947 23.051,9.263 30.439,7 -1.258,-1.538 -2.75,-3.664 -4.113,-5.682 -10.883,0.737 -20.334,-1.609 -27.942,-6.691 z"
     fill="#fddc6b"
     id="path15325" />
  <path
     d="m 14.674,132.275 c 2.011,7.9 7.727,16.014 10.98,16.2 3.583,0.2 13.849,-8.362 17.491,-16.924 -16.978,-4.125 -24.826,-2.542 -28.471,0.724 z"
     fill="#fffce4"
     id="path15327" />
  <path
     d="m 184.331,267.387 c -6.923,2.078 -10.793,27.367 -4.878,32.572 5.387,4.742 22.683,-4.252 22.528,-9.685 -0.159,-5.546 -14.102,-23.951 -17.65,-22.887 z"
     fill="#434c5c"
     id="path15329" />
  <path
     d="m 176.523,289.987 c -5.277,-12.007 -11.841,-20.235 -14.542,-19.444 -5.941,1.739 -8.23,28.186 -3.371,31.71 3.4,2.47 14.44,1.207 19.081,-4.991 a 22.061,22.061 0 0 1 -1.168,-7.275 z"
     fill="#434c5c"
     id="path15331" />
  <path
     d="m 48.9,239.63 a 93.839,93.839 0 0 1 -7.634,-15.788 49.121,49.121 0 0 1 -5.781,13.382 101.91,101.91 0 0 1 8.945,12.5 c 10.477,17.022 11.435,28.848 8.131,30.881 a 4.178,4.178 0 0 1 -3.393,-0.016 l 0.01,0.025 c 6.05,2.274 16.2,-2.692 26.563,-13.029 A 87.477,87.477 0 0 1 48.901,239.63 Z"
     fill="#d35336"
     id="path15333" />
  <path
     d="m 39.52,218.605 c -3.248,-0.549 -9.1,-0.552 -12.219,0.4 v 0.008 c 2.489,-0.427 7.11,10.092 7.912,17.87 l 0.3,0.349 A 48.991,48.991 0 0 0 41.29,223.85 c -0.639,-1.719 -1.221,-3.472 -1.77,-5.245 z"
     fill="#434c5c"
     id="path15337" />
  <path
     d="m 39.4,218.54 c -6.737,-0.616 -12.264,-0.011 -13.43,1.167 a 14.736,14.736 0 0 1 -4.3,-1.84 11.993,11.993 0 0 1 2.982,-4.318 16.51,16.51 0 0 1 -7.249,-1.015 13.526,13.526 0 0 1 4.137,-5.572 c -2.365,0.125 -4.382,-0.151 -5.764,-1.079 1.34,-3.47 7.547,-8.8 17.862,-11.33 0.802,7.241 3.455,18.609 5.762,23.987 z"
     fill="#d35336"
     id="path15339" />
  <path
     d="m 115.129,85.392 c -2.7,-0.885 -8.491,3.538 -12.042,12.925 -2.529,6.686 -2.818,11.864 -1.844,14.83 1.544,0.826 3.155,1.715 4.749,2.635 3.072,-1.017 6.505,-5.393 9.3,-12.791 3.246,-8.566 2.646,-16.676 -0.163,-17.599 z"
     fill="#434c5c"
     id="path15343" />
  <path
     d="m 59.968,99.677 c -0.415,-9.133 8.617,-19.475 12.5,-18.153 2.445,0.833 2.406,13.4 -3.987,20.054"
     fill="#434c5c"
     id="path15345" />
  <path
     d="m 110.194,102.851 c -1.972,5.215 -3.648,6.2 -4.574,5.839 -0.724,-0.286 -1.452,-3.017 0.253,-7.523 1.836,-4.854 3.475,-6.288 4.575,-5.95 0.951,0.293 1.393,3.281 -0.254,7.634 z"
     fill="#fffce4"
     id="path15347" />
  <path
     d="m 68.871,94.1 c -1.9,4.433 -3.585,5.224 -4.459,4.831 -0.874,-0.393 -1.1,-2.718 0.615,-6.712 1.765,-4.115 3.417,-5.2 4.351,-4.855 0.981,0.364 0.985,3.259 -0.507,6.736 z"
     fill="#fffce4"
     id="path15349" />
  <path
     d="m 105.959,115.818 a 9.508,9.508 0 0 0 4.07,-3.117 c -2.345,-4.3 -6.763,-4.384 -9.187,-1.163 a 9.683,9.683 0 0 0 0.377,1.65 c 1.542,0.825 3.15,1.712 4.74,2.63 z"
     fill="#95919d"
     id="path15351"
     style="fill:#a6a1ab;fill-opacity:1" />
  <path
     d="m 21.761,217.861 a 14.736,14.736 0 0 0 4.3,1.84 c 1.167,-1.178 6.693,-1.783 13.43,-1.167 -0.39,-1.249 -1.245,-4.626 -1.588,-5.9 -4.393,2.42 -12.729,4.778 -15.983,4.9 z"
     fill="#b6472d"
     id="path15353" />
  <path
     d="m 147.432,155.328 c -22.619,3.366 -42.884,-0.734 -56.467,-6.6 -62.858,-27.139 -73.133,-19.793 -78.958,-13.6 a 12.232,12.232 0 0 0 -2.9,7.908 c -1.055,-1.208 -2,-2.368 -2.755,-3.372 -0.172,-7.2 8.047,-14.331 17.121,-14.554 18.022,-0.444 34.685,4.568 70.209,18.834 22.804,9.151 36.061,10.999 53.75,11.384 z"
     fill="#dcdac6"
     id="path15355" />
  <path
     d="m 37.22,130.325 c -1.859,6.48 -7.3,13.666 -12.332,18.029 3.455,1.248 14.359,-7.626 18.242,-16.751 -2.109,-0.511 -4.074,-0.932 -5.91,-1.278 z"
     fill="#dcdac6"
     id="path15357" />
  <path
     d="m 144.747,207.857 c -0.531,-2.812 1.931,-4.5 4.462,-1.606 13.086,14.945 37.647,25.105 52.11,20.864 -8.885,11.302 -46.103,-2.971 -56.572,-19.258 z"
     id="path15359"
     style="fill:#b6472d" />
  <path
     d="m 201.044,227.471 c -3.743,8.045 -38.367,3.786 -55.97,-18.509 17.325,29.794 56.647,28.616 57.2,18.667 z"
     id="path15361"
     style="fill:#b6472d" />
  <path
     d="m 44.409,249.721 c 10.477,17.022 11.435,28.848 8.131,30.881 -3.524,2.169 -14.875,-5.529 -24.7,-21.5 -10.2,-16.575 -9.859,-30.071 -7.012,-31.539 3.834,-1.98 13.702,6.108 23.581,22.158 z"
     id="path15363"
     style="fill:#b6472d" />
  <path
     d="m 34.219,243.646 c -3.034,0.936 -6.178,1.8 -8.913,2.433 2.06,5.318 10.259,18.229 13.667,21.412 2.022,0.412 6.814,-0.524 8.913,-1.872 -3.296,-4.83 -10.822,-16.655 -13.667,-21.973 z"
     fill="#dabe5d"
     id="path15367" />
  <path
     d="m 35.182,236.883 c -0.785,-7.622 -5.349,-18 -7.766,-17.895 -1.579,0.07 -4.175,3.739 -5.572,8.319 2.86,-0.264 7.745,3.074 13.338,9.576 z"
     fill="#363e4c"
     id="path15369" />
  <path
     d="m 20.877,227.561 a 3.441,3.441 0 0 1 2.308,-0.156 l 0.03,-0.311 c -3.391,-2.4 -8.336,-1.845 -9.263,-0.338 -0.844,1.376 0.947,10.452 7.008,17.265 -2.755,-9.085 -1.991,-15.477 -0.083,-16.46 z"
     fill="#363e4c"
     id="path15371" />
  <path
     d="m 51.608,243.799 a 85.533,85.533 0 0 1 -7.683,5.076 c 8.9,14.2 13.27,28.885 8.658,31.724 a 4.178,4.178 0 0 1 -3.393,-0.016 l 0.01,0.025 c 6.05,2.274 16.2,-2.692 26.563,-13.029 a 87.093,87.093 0 0 1 -24.154,-23.78 z"
     fill="#b6472d"
     id="path15373" />
  <path
     d="m 152.045,250.985 a 87.039,87.039 0 0 1 -41.216,10.431 c 0.791,2.122 1.551,4.112 2.241,5.86 -12.045,3.509 -27.964,2.682 -38.462,-0.452 a 87.12,87.12 0 0 0 52.92,14.754 180.19,180.19 0 0 0 28.131,-3.408 72.916,72.916 0 0 1 -3.614,-27.185 z"
     fill="#dcdac6"
     id="path15375" />
  <path
     d="m 51.857,241.894 c -1,-0.721 -1.975,-1.467 -2.922,-2.259 a 88.383,88.383 0 0 0 18.124,21.409 67.721,67.721 0 0 1 -7.721,-13.964 86.042,86.042 0 0 1 -7.481,-5.186 z"
     fill="#dcdac6"
     id="path15377" />
  <path
     d="m 113.039,267.276 c -0.69,-1.749 -1.45,-3.738 -2.241,-5.86 A 97.726,97.726 0 0 1 59.29,247.08 a 67.721,67.721 0 0 0 7.721,13.964 77.728,77.728 0 0 0 7.564,5.778 c 10.501,3.135 26.42,3.963 38.464,0.454 z"
     fill="#dabe5d"
     id="path15379" />
  <path
     d="m 198.418,233.503 c 8.315,4.687 15.437,12.242 20.362,19.4 23.362,-15.248 39.357,-35 41.078,-55.364 -6.413,26.863 -36.873,36.228 -61.44,35.964 z"
     fill="#dcdac6"
     id="path15381" />
  <path
     d="m 197.786,234.269 c 9.982,8.7 17.308,24.752 16.886,32.163 -0.314,5.54 -8.083,12.658 -16.257,15.745 1.707,2.222 3.625,7.082 3.339,9.313 13.171,-6.842 24.5,-16.657 24.186,-22.671 -0.529,-10.052 -17.666,-31.898 -28.154,-34.55 z"
     fill="#b6472d"
     id="path15383" />
  <path
     d="m 201.908,290.27 c -0.156,-5.444 -13.595,-23.273 -17.439,-22.911 5.83,7.85 10.142,19.116 12.454,29.177 2.957,-2.031 5.039,-4.365 4.985,-6.266 z"
     fill="#363e4c"
     id="path15385" />
  <path
     d="m 173.327,300.932 a 13.68,13.68 0 0 0 4.34,-3.67 22.061,22.061 0 0 1 -1.168,-7.275 c -5.149,-11.718 -11.516,-19.811 -14.329,-19.462 5.375,9.419 9.924,20.47 11.157,30.407 z"
     fill="#363e4c"
     id="path15387" />
  <path
     d="m 251.918,191.815 a 73.013,73.013 0 0 1 -16.976,3.294 v 0.015 c 1.363,2.018 2.855,4.144 4.113,5.682 a 29.948,29.948 0 0 1 -10.45,0.676 c -5.019,15.922 -15.384,28.963 -30.248,32.02 24.567,0.264 55.026,-9.1 61.44,-35.967 0.01,-0.11 0.025,-0.22 0.033,-0.33 0.495,-6.387 -1.362,-7.438 -7.912,-5.39 z"
     fill="#b6472d"
     id="path15389" />
  <path
     d="m 239.064,200.804 c -1.258,-1.538 -2.75,-3.664 -4.113,-5.682 v -0.015 c -1.585,0.1 -3.143,0.152 -4.667,0.129 q -0.7,3.179 -1.668,6.244 a 29.948,29.948 0 0 0 10.448,-0.676 z"
     fill="#dabe5d"
     id="path15391" />
  <path
     d="m 30.508,222.25 a 42.066,42.066 0 0 1 4.628,14.626 l 0.3,0.349 a 49.022,49.022 0 0 0 5.777,-13.382 c -0.229,-0.615 -0.443,-1.238 -0.659,-1.86 a 46.169,46.169 0 0 0 -10.046,0.267 z"
     fill="#363e4c"
     id="path15393" />
  <path
     d="M 127.551,283.022 C 75.726,285.1 36.258,248.408 31.583,186.163 12.905,167.685 2.994,145.187 9.354,135.955 c 7.941,-11.526 24.9,-13.117 82.186,11.535 23.36,10.054 46.7,8.871 59.95,4.972 9.1,-2.678 12.782,-7.379 13.139,-16.422 0.849,-21.557 -12.589,-61.442 -29.807,-68.943 -5.7,-2.485 -18.446,-1.312 -27.3,4.4 a 2.331,2.331 0 0 1 -2.156,0.452 47.482,47.482 0 0 0 -6.506,-0.809 c -1.266,-0.052 -1.593,-0.3 -1.576,-1.688 0.048,-3.776 -1.231,-5.853 -5.031,-5.391 -15.1,1.836 -35.7,13.135 -47.775,33.407 l -2.9,0.039 C 53.355,76.523 75.286,63.918 91.99,61.886 c 4.934,-0.6 7.747,2.266 7.411,7.143 a 35.517,35.517 0 0 1 6.607,0.824 c 8.837,-5.982 22.623,-8.147 29.788,-5.024 18.934,8.247 32.39,48.371 31.676,71.132 -0.33,10.534 -4.89,16.538 -15.646,19.615 -14.36,4.108 -38.108,4.434 -61.415,-5.6 -57.965,-24.947 -72.1,-21.878 -78.6,-12.439 -4.371,6.344 2.149,26.229 21.158,46.447 a 3.3,3.3 0 0 1 1.087,2.432 c 5.286,58.44 43.3,95.816 93.475,93.811 a 177.14,177.14 0 0 0 27.669,-3.354 l 0.841,2.749 a 185.04,185.04 0 0 1 -28.49,3.4 z"
     id="path15395"
     style="fill:#0f141b" />
  <path
     d="m 218.079,251.696 c 23.047,-15.015 38.965,-34.437 40.8,-54.557 0.5,-5.486 -0.6,-6.308 -6.66,-4.327 -37.431,12.247 -64.832,-5.887 -67.114,-47.357 a 93.288,93.288 0 0 0 -45.84,-76.11 l -3.51,-4.509 c 18.313,7.737 49.591,32.8 52.1,80.478 1.924,36.6 25.961,56.98 63.807,45.559 7.317,-2.208 9.654,-0.609 9.15,6.412 -1.495,20.8 -17.433,41.169 -41.2,56.846 z"
     id="path15397"
     style="fill:#0f141b" />
  <path
     d="m 9.1,145.587 c -7.765,-8.444 -11.059,-18.7 -7.852,-28.322 8.882,-26.652 62.626,-29.189 108.34,-0.144 3.322,2.111 2.518,3.451 -0.854,1.427 -46.294,-27.777 -96.5,-24.737 -104.64,-0.295 -2.466,7.4 -0.416,15.555 5.056,22.831 z"
     id="path15399"
     style="fill:#0f141b" />
  <path
     d="m 44.449,131.805 c -3.823,9.214 -14.5,17.953 -18.933,17.75 -4.219,-0.195 -10.212,-8.9 -11.975,-16.273 l 2.148,-1.879 c 1.29,7.561 7.478,15.794 10,16 2.686,0.219 12.918,-7.929 16.1,-16.271 z"
     id="path15401"
     style="fill:#0f141b" />
  <path
     d="m 36.263,113.033 a 33.293,33.293 0 0 1 3.206,-7.589 c 0.4,-0.714 0.631,-0.816 1.527,-0.823 a 21.042,21.042 0 0 1 10.166,2.811 c 1.957,1.168 1.775,1.993 -0.361,2.393 a 40.615,40.615 0 0 0 -12.731,4.561 c -1.915,1.124 -2.336,0.599 -1.807,-1.353 z m 4.766,-6.5 a 24.422,24.422 0 0 0 -2.884,5.936 40.422,40.422 0 0 1 10.714,-4.125 18.044,18.044 0 0 0 -7.83,-1.815 z"
     id="path15403"
     style="fill:#0f141b" />
  <path
     d="m 16.302,116.356 a 28.935,28.935 0 0 1 -5.5,-3.815 c -1.01,-0.9 -1.063,-1.276 0.131,-2.2 a 34.527,34.527 0 0 1 7.4,-4.327 c 1.716,-0.726 2.494,-0.375 1.6,1.731 a 23.771,23.771 0 0 0 -1.7,7.559 c -0.136,1.582 -0.466,1.824 -1.931,1.052 z m -3.785,-4.828 a 19.357,19.357 0 0 0 4.1,3.13 19.074,19.074 0 0 1 1.108,-6.33 26.319,26.319 0 0 0 -5.207,3.2 z"
     id="path15405"
     style="fill:#0f141b" />
  <path
     d="m 20.605,207.812 a 10.686,10.686 0 0 1 -4.8,-0.863 c -1.093,-0.5 -1.189,-0.806 -0.639,-1.9 2.962,-5.874 10.919,-9.453 18.666,-11.769 l 0.5,2.273 c -7.326,2.021 -14.146,5.348 -17.167,9.9 0.738,0.5 3.066,0.912 5.526,0.6 z"
     id="path15407"
     style="fill:#0f141b" />
  <path
     d="m 23.857,214.4 a 17.46,17.46 0 0 1 -6.345,-0.816 c -1.125,-0.4 -1.212,-0.807 -0.753,-1.82 a 13.8,13.8 0 0 1 5.8,-6.276 c 2.349,-1.116 3.049,-0.162 0.654,1.277 a 12.345,12.345 0 0 0 -4.418,5.192 16.539,16.539 0 0 0 6.855,0.736 z"
     id="path15409"
     style="fill:#0f141b" />
  <path
     d="m 25.466,220.407 a 12.967,12.967 0 0 1 -3.765,-1.434 c -0.881,-0.5 -1.126,-0.94 -0.591,-1.961 a 12.84,12.84 0 0 1 4.035,-4.78 c 1.966,-1.316 2.7,-0.348 0.867,1.144 a 10.272,10.272 0 0 0 -3.018,4.084 14.418,14.418 0 0 0 4.072,1.653 z"
     id="path15411"
     style="fill:#0f141b" />
  <path
     d="m 201.822,218.694 a 10.684,10.684 0 0 0 3.56,-1.3 c -6.021,-16.941 -27.745,-26.246 -46.464,-28.544 -3.929,-0.482 -3.839,-1.907 0.119,-1.67 18.914,1.131 42.375,11.045 48.193,29.531 0.438,1.389 0.3,1.672 -0.731,2.255 a 11.437,11.437 0 0 1 -3.405,1.188 z"
     id="path15413"
     style="fill:#0f141b" />
  <path
     d="m 199.771,225.259 a 15.484,15.484 0 0 0 4.205,-2.192 21.658,21.658 0 0 0 -5.907,-6.76 c -2.252,-1.734 -1.573,-2.678 0.836,-1.166 a 19.373,19.373 0 0 1 6.756,7.061 c 0.719,1.4 0.562,1.781 -0.619,2.479 a 25.1,25.1 0 0 1 -4.222,1.968 z"
     id="path15415"
     style="fill:#0f141b" />
  <path
     d="m 145.557,209.755 c -1.688,-2.729 -0.533,-3.47 1.373,-0.891 10.437,14.124 43.726,27.148 53.32,18.5 a 14.936,14.936 0 0 0 -5.042,-5.172 c -2.312,-1.495 -1.794,-2.364 0.721,-1.241 a 14.678,14.678 0 0 1 6,5.486 c 0.6,0.987 0.647,1.3 -0.227,2.216 -9.669,10.121 -45.626,-1.893 -56.145,-18.898 z"
     id="path15417"
     style="fill:#0f141b" />
  <path
     d="m 45.635,249.159 c 10.188,16.556 12.161,29.468 7.368,32.419 -4.407,2.708 -15.958,-4.8 -26.4,-21.767 -10.1,-16.4 -10.507,-31.142 -6.316,-33.3 4.191,-2.158 14.223,4.573 25.348,22.648 z m -2.4,1.3 c -11.3,-18.355 -19.687,-23.028 -21.809,-21.934 -1.554,0.8 -3.3,12.293 7.579,29.976 9.9,16.1 20.483,22.6 22.862,21.135 2.082,-1.277 2.404,-11.238 -8.633,-29.172 z"
     id="path15419"
     style="fill:#0f141b" />
  <path
     d="m 76.845,268.207 c -10.723,11.079 -20.938,15.851 -28.059,13.591 l 4.482,-2.308 c 4.378,-0.091 11.62,-3.01 21.388,-12.672 z"
     id="path15421"
     style="fill:#0f141b" />
  <path
     d="m 20.62,227.53 c 1.543,-5.052 4.5,-9.333 6.776,-9.509 2.992,-0.23 8.239,10.492 9.037,20.276 l -2.49,-2.77 c -0.888,-6.79 -5.183,-15.66 -6.454,-15.551 -1.057,0.09 -3.048,2.707 -4.5,7.288 z"
     id="path15423"
     style="fill:#0f141b" />
  <path
     d="m 21.07,245.773 c -6.806,-6.764 -9.285,-17.446 -8,-19.541 1.156,-1.885 6.2,-2.25 9.444,-0.7 l -0.745,1.841 c -2.807,-1.414 -6.33,-1.226 -7.02,-0.105 -0.49,0.9 1.007,8.685 5.755,14.584 z"
     id="path15425"
     style="fill:#0f141b" />
  <path
     d="m 39.643,219.529 c -2.454,-0.386 -7.928,-0.64 -11.045,0.172 l -1.719,-1.587 a 38.967,38.967 0 0 1 12.271,-0.428 z"
     id="path15427"
     style="fill:#0f141b" />
  <path
     d="m 41.89,225.36 a 47.631,47.631 0 0 1 -5.643,12.748 l -1.473,-1.748 a 49.853,49.853 0 0 0 5.83,-13.954 z"
     id="path15429"
     style="fill:#0f141b" />
  <path
     d="m 38.024,267.762 c -3.4,-3.414 -11.043,-15.323 -13.293,-20.966 -0.487,-1.221 -0.354,-1.412 0.972,-1.729 2.758,-0.659 5.4,-1.331 8,-2.142 0.825,-0.258 1.173,-0.1 1.589,0.673 2.837,5.262 9.8,16.118 12.933,20.808 0.921,1.382 0.839,1.686 -0.483,2.352 a 20.1,20.1 0 0 1 -8.2,1.7 2.045,2.045 0 0 1 -1.518,-0.696 z m 1.446,-1.1 c 1.712,0.352 5.7,-0.631 7.213,-1.374 -2.947,-4.309 -10.077,-15.417 -12.813,-20.568 -2.343,0.715 -4.673,1.388 -7.256,1.992 2.134,4.924 9.726,16.901 12.859,19.948 z"
     id="path15431"
     style="fill:#0f141b" />
  <path
     d="m 107.197,251.372 c 15.775,-2.37 32.4,-8.349 48.205,-17.805 l -0.995,3.116 a 132.94,132.94 0 0 1 -46.406,16.841 z"
     id="path15433"
     style="fill:#0f141b" />
  <path
     d="m 59.435,247.766 a 54.083,54.083 0 0 1 -9.449,-5.955 l -2.169,-4.315 a 52.078,52.078 0 0 0 10.522,7.362 z"
     id="path15435"
     style="fill:#0f141b" />
  <path
     d="m 72.657,265.128 c 9.915,3.632 26.6,4.592 39.052,1.487 -3.411,-8.575 -7.831,-21.416 -10.327,-29.831 -12.408,2.521 -32.616,1.384 -45.064,-2.946 a 70.261,70.261 0 0 0 13.1,28.8 l -5.641,-4.457 a 68.339,68.339 0 0 1 -9.534,-24.639 c -0.366,-2.013 0.092,-2.432 2.232,-1.735 12.281,3.994 32.049,5.255 44.653,3.021 1.279,-0.228 1.653,-0.015 2.045,1.253 2.69,8.687 7.12,21.265 10.474,30.058 0.539,1.414 -0.11,2 -1.152,2.293 -10.975,3.1 -24.721,2.668 -34.905,0.275 z"
     id="path15437"
     style="fill:#0f141b" />
  <path
     d="m 236.085,195.008 c 0.939,1.463 2.107,3.054 3.207,4.438 1.2,1.511 1,2.135 -0.84,2.569 -7.514,1.768 -23.7,-0.164 -30.1,-7.1 a 3.279,3.279 0 0 1 -0.812,-1.316 36.518,36.518 0 0 1 -1.643,-5.906 l 2.268,1.284 a 32.859,32.859 0 0 0 1.377,4.305 c 5.337,6.141 20.721,8.484 27.867,6.932 a 53.118,53.118 0 0 1 -3.552,-5 z"
     id="path15439"
     style="fill:#0f141b" />
  <path
     d="m 201.903,289.903 c 11.545,-5.872 22.575,-15.64 22.438,-21.086 -0.167,-6.717 -10.573,-24.3 -25.06,-33.406 -3.5,-2.2 -3.142,-3.1 0.649,-3.122 26.352,-0.147 54.9,-10.963 59.593,-38.05 l 0.725,5.318 c -6.442,23.554 -32.492,34.565 -58.188,35.036 12.475,7.416 25.19,26.277 25.279,34.2 0.082,7.436 -12.761,18.335 -26.368,24.489 z"
     id="path15441"
     style="fill:#0f141b" />
  <path
     d="m 156.28,283.556 c -8.116,-18.41 -7.555,-41.706 1.011,-55.726 1.557,-2.549 2.853,-1.828 1.452,0.807 -7.323,13.775 -7.153,35.049 -1.493,50.648 z"
     id="path15443"
     style="fill:#0f141b" />
  <path
     d="m 183.992,266.445 c 4.515,-1.391 18.991,18.01 19.157,23.789 0.183,6.479 -18.666,15.83 -24.546,10.659 -6.714,-5.908 -2.131,-32.132 5.389,-34.448 z m 0.555,1.88 c -5.784,1.859 -9.873,25.987 -4.409,30.8 4.641,4.084 20.607,-4.232 20.5,-8.843 -0.128,-5.34 -13.54,-22.777 -16.091,-21.957 z"
     id="path15445"
     style="fill:#0f141b" />
  <path
     d="m 178.273,298.377 c -4.95,6.186 -16.227,7.656 -20.406,4.83 -5.659,-3.825 -3.007,-31.656 3.844,-33.6 3.273,-0.93 10.047,7.126 15,18.1 l -0.276,5.028 c -5.439,-13.566 -12.343,-21.768 -14.146,-21.266 -4.821,1.344 -7.221,26.479 -3.007,29.823 2.7,2.14 13.287,1.192 17.726,-5.048 z"
     id="path15447"
     style="fill:#0f141b" />
  <path
     d="m 105.327,109.388 c -1.167,-0.459 -2.113,-3.581 -0.234,-8.548 1.945,-5.143 4,-6.864 5.565,-6.388 1.711,0.529 2.036,4.106 0.306,8.678 -2.327,6.156 -4.4,6.747 -5.637,6.258 z m 4.085,-6.868 c 1.617,-4.277 1.213,-6.5 0.766,-6.609 -0.542,-0.137 -1.657,0.58 -3.532,5.539 -1.62,4.284 -1.107,6.374 -0.69,6.534 0.474,0.179 1.508,-0.313 3.455,-5.463 z"
     id="path15449"
     style="fill:#0f141b" />
  <path
     d="m 100.115,112.515 c -0.786,-3.193 -0.453,-8.114 1.989,-14.572 3.658,-9.667 10.291,-14.383 13.362,-13.38 3.1,1.019 4.378,9.444 0.832,18.823 -2.946,7.788 -6.329,11.692 -9.309,13 l -2.034,-1.325 c 3.043,-0.17 6.486,-4.8 9.363,-12.413 3.009,-7.953 2.912,-15.655 0.581,-16.422 -2.287,-0.749 -7.594,3.924 -10.833,12.486 -2.437,6.444 -2.913,12.257 -1.643,14.85 z"
     id="path15451"
     style="fill:#0f141b" />
  <path
     d="m 58.834,98.497 c 0.547,-10.006 9.494,-19.263 13.932,-17.83 3.508,1.134 2.656,14.434 -2.48,20.426 l -2.167,-0.582 c 5.882,-6.983 5.378,-17.7 4.084,-18.149 C 69.408,81.391 61.276,90.007 61.01,98.75 Z"
     id="path15453"
     style="fill:#0f141b" />
  <path
     d="m 69.607,94.338 c -2.1,4.891 -4.143,5.826 -5.536,5.2 -1.329,-0.6 -1.749,-3.286 0.168,-7.756 1.868,-4.357 3.879,-5.784 5.385,-5.225 1.531,0.564 1.635,3.93 -0.017,7.781 z m -3.831,-1.882 c -1.646,3.84 -1.433,5.486 -1.057,5.681 0.5,0.258 1.525,-0.168 3.381,-4.5 1.48,-3.451 1.332,-5.549 0.967,-5.664 -0.558,-0.179 -1.616,0.58 -3.29,4.483 z"
     id="path15455"
     style="fill:#0f141b" />
</svg>
