<?xml version="1.0" encoding="UTF-8" standalone="no"?>
<svg
   version="1.1"
   viewBox="0 0 162.13 250.73"
   id="svg15017"
   sodipodi:docname="909-2.svg"
   inkscape:version="1.2.2 (b0a8486, 2022-12-01)"
   xmlns:inkscape="http://www.inkscape.org/namespaces/inkscape"
   xmlns:sodipodi="http://sodipodi.sourceforge.net/DTD/sodipodi-0.dtd"
   xmlns="http://www.w3.org/2000/svg"
   xmlns:svg="http://www.w3.org/2000/svg">
  <defs
     id="defs15021" />
  <sodipodi:namedview
     id="namedview15019"
     pagecolor="#505050"
     bordercolor="#eeeeee"
     borderopacity="1"
     inkscape:showpageshadow="0"
     inkscape:pageopacity="0"
     inkscape:pagecheckerboard="0"
     inkscape:deskcolor="#505050"
     showgrid="false"
     inkscape:zoom="0.94125155"
     inkscape:cx="90.836504"
     inkscape:cy="184.86025"
     inkscape:window-width="1309"
     inkscape:window-height="430"
     inkscape:window-x="0"
     inkscape:window-y="25"
     inkscape:window-maximized="0"
     inkscape:current-layer="svg15017" />
  <path
     d="m 123.618,57.474 c -7.853,-7.634 -23.238,-6.053 -37.891,0.21 -7.808,-4.815 -14.389,-4.341 -18.12,-0.351 -6.178,-4.041 -15.152,-5.078 -19.758,-2.72 -25.405,13.008 -28.438,56.6 -16.29,61.367 5.026,1.97 21.8,2.4 39.028,-18.529 20.362,-24.734 41.488,-31.788 52.094,-27.708 7.178,2.761 5.158,14.225 -12.933,35.036 0.578,0.579 1.218,1.233 1.8,1.85 20.434,-20.187 22.998,-38.534 12.07,-49.155 z"
     fill="#fffce4"
     id="path14839" />
  <path
     transform="translate(-1254.6 -462.53)"
     d="m1360.5 521.15a10.977 10.977 0 0 0-4.7-2.685 9.838 9.838 0 0 0-4.338 3.791 30.087 30.087 0 0 1 9.038-1.106z"
     fill="#29343d"
     id="path14843" />
  <path
     transform="translate(-1272 -460.6)"
     d="m1389.2 517.5a20.325 20.325 0 0 1 4.962-0.759 17.594 17.594 0 0 0-4.749-2.432c-0.106 1.064-0.164 2.091-0.213 3.191z"
     fill="#29343d"
     id="path14845" />
  <path
     transform="translate(-1205 -473.51)"
     d="m1315.8 607.42a15.462 15.462 0 0 0 7.292-10.311 29.941 29.941 0 0 0 1.831-6.667 55.18 55.18 0 0 0-8.361-10.323l-0.016 0.016c-0.582-0.618-1.223-1.271-1.8-1.85 18.09-20.812 20.111-32.275 12.932-35.036-10.605-4.08-31.731 2.974-52.094 27.708-11.815 14.352-23.416 18.659-31.161 19.314 17.976 17.924 64.627 21.078 71.377 17.149z"
     fill="#922f00"
     id="path14847" />
  <path
     transform="translate(-1205 -510)"
     d="m1318 642.31c-0.793-12.851-32.492-25.555-59.517-20.078a35.433 35.433 0 0 1-14.084 4.538c17.976 17.921 64.627 21.079 71.377 17.15a14.78 14.78 0 0 0 2.224-1.61z"
     fill="#ed8599"
     id="path14849" />
  <path
     transform="translate(-1261.3 -473.58)"
     d="m1383.1 554.54c1.922-0.51 5.409-6.525 1.33-11.016-4.08-1.9-11.48-1.556-18.519 1.029 4.8 5.47 14.985 10.572 17.189 9.987z"
     fill="#fffce4"
     id="path14851" />
  <path
     transform="translate(-1227.2 -518.88)"
     d="m1292.4 649.14a127.21 127.21 0 0 0 15.963 3.56c-0.581-5.764-4.012-12.227-6.545-12.621-1.754-0.273-6.038 3.146-9.418 9.061z"
     fill="#fffce4"
     id="path14853" />
  <path
     transform="translate(-1185.9 -415.15)"
     d="m1246.3 469.36c-1.062-21.052-15.941-43.2-30.638-53.142-4.994 4.669-11.652 18.276-12.451 26.28 13.461 7.132 25.7 14.778 33.947 22.819-6.714-4-16.691-6.546-24.293-7.011-2.53 2.735-2.6 9.538-0.866 13.607a60.043 60.043 0 0 1 16.809-1.148c4.662-2.048 11.76-3.449 17.492-1.405z"
     fill="#fddc6b"
     id="path14855" />
  <path
     transform="translate(-1276.3 -520.11)"
     d="m1399.2 646.58a34.033 34.033 0 0 1-0.917 9.391 79.826 79.826 0 0 1 6.8 12.513c7.967-6.552 11.685-14.115 10.886-17.763a11.463 11.463 0 0 0-4.548 1.395 13.446 13.446 0 0 0 2.738-6.137 17.831 17.831 0 0 0-5.986 1.209 11.258 11.258 0 0 0 1.485-4.463 17.838 17.838 0 0 0-10.458 3.855z"
     fill="#d35336"
     id="path14857" />
  <path
     d="m 122.104,135.87 c 1.7,-7.85 1.251,-13.227 -2.076,-18.933 a 29.952,29.952 0 0 1 -1.831,6.667 15.463,15.463 0 0 1 -7.292,10.311 c -6.75,3.929 -53.4,0.771 -71.377,-17.15 a 18.4,18.4 0 0 1 -7.867,-0.785 c -12.148,-4.762 -9.115,-48.359 16.29,-61.367 2.287,-1.172 5.653,-1.5 9.218,-1.047 -17.777,-3.077 -44.17,20.489 -50.621,41.082 -8.351,26.655 -7.453,60.943 7.37,83.246 -3.71,16.37 1.637,38.317 10.146,45.78 a 15.313,15.313 0 0 1 -4.535,-6.676 c -2.922,-9.177 1.577,-22.452 17.69,-27.6 13.518,-4.32 28.647,-0.56 32.251,10.68 l 0.1,-0.055 a 31.384,31.384 0 0 0 -7.643,-24.756 c 21.129,-10.213 62.86,-20.713 71.1,-12.879 -1.31,-8.303 -4.783,-17.204 -10.923,-26.518 z"
     fill="#d35336"
     id="path14859" />
  <path
     transform="translate(-1179.7 -551.98)"
     d="M1312.666,714.363c-8.245-7.834-50.559,2.063-73.3,10.346A32.908,32.908,0,0,1,1249.2,752l-.1.054c0,.01.008.02.011.031,3,9.421-1.734,22.49-18.326,27.794-10.089,3.225-19.153,1.4-25.069-2.655-2.257,8.257-9.664,17.951-15.83,22.187-.149,1.456,1,2.41,3,2.5,16.8.777,47.412-5.454,76.359-28.814a13.4,13.4,0,0,1,5.006-2.975C1298.223,762.246,1316.974,741.508,1312.666,714.363Z"
     fill="#fffce4"
     id="path14863" />
  <path
     transform="translate(-1179.7 -602.74)"
     d="m1205.7 827.98a17.5 17.5 0 0 1-5.629-6.075 2.756 2.756 0 0 1-0.982-0.849c0.248 11.027-3.542 20.839-8.175 26.854a4.618 4.618 0 0 0-1.043 2.258c6.165-4.237 13.572-13.931 15.829-22.188z"
     fill="#d35336"
     id="path14865" />
  <path
     d="m 45.176,180.66 c 2.356,-0.03 4.919,1.517 6.824,4.253 -3.432,-6.122 -10.9,-10.2 -13.062,-9.479 -1.837,0.613 -4.307,7.329 -5.081,14.635 1.743,-4.536 7.405,-9.358 11.319,-9.409 z"
     fill="#434c5c"
     id="path14867" />
  <path
     transform="translate(-1215.9 -566.21)"
     d="m1268.1 751.34c0.275-4.257 1.341-8.5 2.922-9.059 2.033-0.713 12.005 4.42 13.881 14.89h-0.012c-0.87-4.014-2.627-6.639-4.579-7.365-2.264-0.843-6.8 0.4-10.914 3.964-0.391-0.777-0.828-1.573-1.298-2.43z"
     fill="#434c5c"
     id="path14871" />
  <path
     transform="translate(-1248.1 -541.31)"
     d="m1371.9 689.75c-8.4-2.72-25.453-0.765-34.447 2.72 2.185 6.226 5.749 18.529 6.7 25.732 9.036-2.231 24.372-4.08 33.407-3.634-0.374-7.97-2.792-18.783-5.66-24.818z"
     fill="#fddc6b"
     id="path14873" />
  <path
     d="m 130.09,151.15 c 7.836,-7.353 13.334,-9 15.763,-7.638 -2.681,-1.391 -8.072,3.937 -7.9,15.391 a 33.536,33.536 0 0 1 -6.555,-3.208 c -0.397,-1.446 -0.84,-3.225 -1.308,-4.545 z"
     fill="#434c5c"
     id="path14875" />
  <path
     transform="translate(-1216.6 -572.53)"
     d="m1286 772.45c0.818-9-1.844-15.154-5.006-16.332-2.581-0.962-7.634 0.707-11.365 4.411 7.711 1.157 14.132 5.17 16.371 11.921z"
     fill="#363e4c"
     id="path14879" />
  <path
     transform="translate(-1199.8 -570.23)"
     d="m1237 759.62a35.231 35.231 0 0 1 16.438-1.3c-1.819-4.69-5.349-7.477-8.5-7.437-4.121 0.052-10.186 5.393-11.567 10.122a35.21 35.21 0 0 1 3.629-1.385z"
     fill="#363e4c"
     id="path14881" />
  <path
     transform="translate(-1290.2 -541.31)"
     d="m1451.3 713.67c0 16.475-5.846 25.381-11.516 25.381-6.377 0-11.45-9.935-11.45-25.71 0-16.845 5.3-24.853 11.582-24.853 6.363 0 11.384 9.1 11.384 25.182z"
     fill="#b6472d"
     id="path14883" />
  <path
     d="m 138.09,172.02 a 55.883,55.883 0 0 1 1.231,-12.375 44.267,44.267 0 0 1 -7.742,-3.959 c 4.868,16.246 0.857,32.7 -8.738,43.684 11.138,1.311 22.351,0.979 28.46,-1.8 -6.117,1.983 -13.211,-6.924 -13.211,-25.55 z"
     fill="#b6472d"
     id="path14885" />
  <path
     transform="translate(-1295.4 -552.14)"
     d="m1451.2 712.66c-3.023-0.128-8.24-0.51-11.168-0.8-0.382 5.482-0.445 16.032-0.159 22.789a82.771 82.771 0 0 1 11.327 0.893c0.35-5.735 0.381-17.464 0-22.882z"
     fill="#dabe5d"
     id="path14889" />
  <path
     transform="translate(-1290 -537.91)"
     d="m1429.3 697.46c1.5-7.235 5.489-11.614 9.228-12.26-0.7-2.321-2.223-4.1-3.724-4.043-2.459 0.092-7.062 4.807-6.8 15.818 0.453 0.166 0.834 0.31 1.296 0.485z"
     fill="#363e4c"
     id="path14891" />
  <path
     transform="translate(-1299.8 -538.6)"
     d="m1460.3 702.49c0.552-12.638-2.668-19.04-5.858-19.778a5.334 5.334 0 0 0-5.461 3.1c5.877-0.379 9.907 6.176 11.319 16.678z"
     fill="#363e4c"
     id="path14893" />
  <path
     transform="translate(-1179.7 -571.27)"
     d="M1274.247,789.415c17.834-5.858,32.768-18.836,37.481-36.271-13.682,11.028-45.234,16.039-62.383,12.2a34.174,34.174,0,0,1-.142,5.951l-.1.054c0,.01.008.02.011.03,3,9.421-1.734,22.49-18.326,27.794-10.089,3.225-19.153,1.4-25.069-2.655-2.257,8.257-9.664,17.951-15.83,22.187-.149,1.456,1,2.41,3,2.5,16.8.776,47.412-5.454,76.359-28.814A13.4,13.4,0,0,1,1274.247,789.415Z"
     fill="#dcdac6"
     id="path14895" />
  <path
     transform="translate(-1187 -576.26)"
     d="m1256.4 776.36c3 9.421-1.734 22.49-18.326 27.794-15.636 5-28.829-2.12-31.626-10.9-2.922-9.177 1.577-22.452 17.69-27.6 13.53-4.327 28.675-0.557 32.262 10.706z"
     fill="#b6472d"
     id="path14897" />
  <path
     transform="translate(-1194.7 -584.43)"
     d="m1232.4 781.53c-2.249 5.184-7.552 16.022-10.011 20.739 5.812 1.4 17.69 2.55 24.477 2.72 3.563-6.035 7.466-15.172 9.8-21.164-6.152-0.468-17.181-1.488-24.266-2.295z"
     fill="#dabe5d"
     id="path14899" />
  <path
     d="m 38.9,175.44 a 29.134,29.134 0 0 1 5.162,5.354 c 1.853,-0.383 3.814,0.07 5.912,1.885 l 0.148,-0.45 C 46.353,177.648 40.723,174.831 38.9,175.44 Z"
     id="path14901"
     style="fill:#363e4c" />
  <path
     d="M 67.8,187.19 C 64.828,179.881 56.821,175.082 54.832,176.169 a 25.986,25.986 0 0 1 6.593,7.305 c 2.71,-0.432 4.759,0.38 6.375,3.716 z"
     id="path14903"
     style="fill:#363e4c" />
  <path
     d="m 130.6,152.67 c 0.292,1 0.572,2.078 0.834,3.018 a 33.521,33.521 0 0 0 6.554,3.208 24.89,24.89 0 0 1 1.984,-10.849 27.51,27.51 0 0 0 -9.372,4.623 z"
     id="path14905"
     style="fill:#363e4c" />
  <path
     transform="translate(-1280.6 -527.02)"
     d="m1419.9 657.68c-1.869 4.287-7.174 10.518-12.328 13.813 0.654 1.309 1.275 2.612 1.826 3.9 7.968-6.552 11.685-14.115 10.886-17.763-0.124 0.01-0.257 0.036-0.384 0.05z"
     fill="#b6472d"
     id="path14909" />
  <path
     transform="translate(-1178.2 -528.16)"
     d="m1186.6 660.12c6.2 10.271 18.732 21.2 36.493 24.781 2.033 0.409 2.128 2.035 0.58 2.7-16.673-0.676-36.534-14.038-37.073-27.481z"
     fill="#b6472d"
     id="path14911" />
  <path
     transform="translate(-1205 -510)"
     d="m1258.5 622.23a35.432 35.432 0 0 1-14.084 4.538c4.4 4.381 10.505 7.878 17.326 10.606 8.207-10.464 29.262-12.9 48.033-6.193-11.327-7.745-32.431-12.77-51.275-8.951z"
     fill="#ce7486"
     id="path14913" />
  <path
     d="m 74.2,121.21 a 37.3,37.3 0 0 1 2.518,11.828 c 1.5,0.288 2.985,0.555 4.455,0.788 -0.655,-6.491 -4.601,-12.91 -6.973,-12.616 z"
     id="path14915"
     style="fill:#dcdac6" />
  <path
     d="m 39.4,116.76 c 7.715,-0.986 19.94,-5.683 31.161,-19.314 20.363,-24.734 41.488,-31.788 52.094,-27.708 7.178,2.761 5.158,14.225 -12.932,35.036 0.577,0.579 1.218,1.233 1.8,1.85 12.883,-12.728 18.655,-24.722 18.428,-34.513 -3.861,-7.338 -14.128,-9.232 -29.016,-3.224 -12.217,4.93 -18.92,10.369 -31.562,24.649 -10.976,12.399 -21.258,20.36 -29.973,23.224 z"
     id="path14917"
     style="fill:#dcdac6" />
  <path
     d="m 123.2,69.94 a 13.01,13.01 0 0 0 -3.69,-1.012 c 2.043,3.71 2.965,8.385 2.082,12.052 2.562,-0.185 5.331,-6.942 1.608,-11.04 z"
     id="path14919"
     style="fill:#dcdac6" />
  <path
     transform="translate(-1185 -414.23)"
     d="M1238.179,467.556c-6.894-7.513-19.706-16.353-35.868-24.768a1.668,1.668,0,0,1-1.038-1.909c1.015-8.028,7.042-20.465,12.307-25.983.841-.881,1.294-.848,2.311-.14,14.263,9.939,29.2,31.864,30.278,53.855l-1.612-.388c-1.267-21.015-16.284-42.094-29.673-51.585-4.3,4.561-10.538,17.141-11.56,24.442,16.761,8.763,29.573,17.688,37.017,26.507Z"
     fill="#f2972c"
     id="path14923" />
  <path
     transform="translate(-1191.5 -450.56)"
     d="M1232.905,506.882a57.813,57.813,0,0,0-14.639,1.31c-.983.214-1.484.071-1.814-.851-1.489-4.167-1.635-10.554.773-13.9.549-.763.814-.859,1.9-.763,8.188.728,17.222,3.69,21.794,6.177l3.06,3.528c-6.657-4.259-17.192-7.073-25.049-7.6-1.665,2.026-1.849,7.979-.587,11.335a58.59,58.59,0,0,1,17.8-.583Z"
     fill="#f2972c"
     id="path14925" />
  <path
     d="m 66.969,56.862 c 3.865,-4.431 11.374,-5.1 19.7,0.331 l -1.953,0.956 c -7.1,-4.092 -12.955,-3.837 -16.375,-0.331 z"
     id="path14927"
     style="fill:#0f141b" />
  <path
     d="m 31.3,117.03 c -14.231,-5.582 -8.478,-50.538 16.225,-63.233 5.353,-2.751 15.3,-1.224 21.783,3.872 1.657,1.3 0.949,2.217 -0.779,1.012 -7.073,-4.929 -15.818,-5.461 -20.155,-3.24 -24.692,12.644 -27.017,55.273 -16.272,59.484 5.5,2.158 21.8,1.226 37.729,-18.122 20.942,-25.438 42.567,-32.148 53.367,-28 7.4,2.848 7.129,14.453 -13.124,36.688 -1.394,1.53 -2.242,0.714 -0.908,-0.869 17.5,-20.775 19.415,-31.509 13.183,-33.907 C 113.103,67.158 92.012,73.156 71.507,98.063 54.379,118.873 38.08,119.689 31.3,117.03 Z"
     id="path14929"
     style="fill:#0f141b" />
  <path
     d="m 20.3,219.39 a 42.557,42.557 0 0 1 -8.46,26.2 c -1.727,2.224 -0.8,3.577 1.383,3.615 18.187,0.313 47.579,-6.251 75.754,-28.805 a 14.963,14.963 0 0 1 5.335,-3.113 c 30.118,-9.957 52.59,-41.571 27.2,-80.577 a 1.66,1.66 0 0 1 -0.216,-1.54 c 2.509,-12.349 -1.061,-18.552 -12.114,-29.71 l 1.033,-1.294 c 11.889,11.625 15.655,18.48 12.773,31.547 25.869,39.463 5.077,72.509 -28.136,83.274 a 12.178,12.178 0 0 0 -4.815,2.847 c -28.282,23.274 -59.231,29.774 -76.9,28.808 -4.4,-0.24 -4.536,-3.243 -2.487,-5.913 4.321,-5.631 8.521,-16.255 7.762,-27.785 z"
     id="path14931"
     style="fill:#0f141b" />
  <path
     d="m 111,106.02 c 19.733,-19.788 22.377,-37.422 11.738,-47.764 -13.174,-12.808 -50.588,1.8 -66.723,22.311 -1.378,1.753 -2.231,1.07 -0.984,-0.779 13.364,-19.8 54.27,-37.714 69.345,-23.063 11.647,11.325 8.525,30.53 -12.2,50.459 z"
     id="path14933"
     style="fill:#0f141b" />
  <path
     d="m 105.713,70.6 c 4.651,5.441 13.981,9.99 15.95,9.564 1.318,-0.285 5,-6.6 -0.255,-10.712 l 3.352,1.135 c 2.847,4.331 0.037,10.462 -2.678,11.168 -3.151,0.82 -13.955,-5.027 -18.478,-10.4 z"
     id="path14935"
     style="fill:#0f141b" />
  <path
     d="m 87.973,113.7 a 24.638,24.638 0 0 0 -7.517,-10.708 c -1.53,-1.346 -0.875,-2.222 0.756,-1 a 23.137,23.137 0 0 1 8.6,12.215 z"
     id="path14937"
     style="fill:#0f141b" />
  <path
     d="m 71.1,97.06 a 14.8,14.8 0 0 1 5.037,1.718 c 2.172,1.221 1.586,2.118 -0.472,1.136 a 16.7,16.7 0 0 0 -5.6,-1.556 z"
     id="path14939"
     style="fill:#0f141b" />
  <path
     d="m 96.7,58.79 a 10.564,10.564 0 0 1 3.731,-3.213 1.639,1.639 0 0 1 1.626,-0.083 11.723,11.723 0 0 1 3.82,2.28 c 1.144,0.988 0.9,1.42 -0.521,1.431 a 31.714,31.714 0 0 0 -7.548,0.929 C 96.081,60.599 95.759,60.065 96.7,58.79 Z m 4.578,-2.159 a 7.325,7.325 0 0 0 -2.707,1.956 23.059,23.059 0 0 1 5.635,-0.576 7.149,7.149 0 0 0 -2.928,-1.38 z"
     id="path14941"
     style="fill:#0f141b" />
  <path
     d="m 122.327,56.79 a 16.27,16.27 0 0 0 -4.464,0.543 c -1.138,0.277 -1.385,0.074 -1.367,-1.021 0.013,-0.858 0.056,-1.731 0.152,-2.59 l 1.328,0.4 a 11.938,11.938 0 0 0 -0.223,2 23.436,23.436 0 0 1 3.11,-0.557 z"
     id="path14943"
     style="fill:#0f141b" />
  <path
     d="m 40.5,116.6 c 17.96,16.805 62.689,20.41 69.878,16.426 a 13.62,13.62 0 0 0 6.524,-8.42 l 2.323,-2.63 a 15.783,15.783 0 0 1 -7.924,12.8 c -7.288,4.282 -55.752,0.888 -73.038,-17.951 z"
     id="path14945"
     style="fill:#0f141b" />
  <path
     d="m 55.1,111.22 c 25.982,-5.211 57.667,7.568 58.738,20.466 l -1.527,1.233 c -0.777,-12.517 -32.682,-25.777 -60.48,-19.594 z"
     id="path14947"
     style="fill:#0f141b" />
  <path
     d="m 64.219,129.964 c 3.241,-5.7 8.058,-9.93 10.447,-9.558 3.348,0.523 6.856,7.642 7.413,13.575 l -1.983,-0.266 c -0.305,-5.566 -4.11,-11.46 -5.653,-11.747 -0.972,-0.181 -4.963,2.621 -8.314,8.549 z"
     id="path14949"
     style="fill:#0f141b" />
  <path
     d="M 13.5,179.01 C -1.136,158.686 -3.915,124.187 5.422,94.384 11.432,75.201 34.414,52.735 54.102,52.452 l -4.716,2.287 C 34.434,57.273 13.252,76.654 7.518,94.96 c -9.045,28.873 -5.769,62.334 6.611,81.847 z"
     id="path14951"
     style="fill:#0f141b" />
  <path
     d="M 43.8,159.692 C 32.655,159.61 11.1,151.004 7.406,133.036 c -0.277,-1.348 0.01,-1.722 1.33,-1.676 a 11.9,11.9 0 0 1 3.258,0.5 12.265,12.265 0 0 1 -2.6,-4.128 c -0.518,-1.368 -0.372,-1.6 1.03,-1.738 a 17.268,17.268 0 0 1 4.93,0.193 10.539,10.539 0 0 1 -1.7,-2.953 c -0.455,-1.2 -0.259,-1.5 1.123,-1.622 15.232,-1.306 35.535,9.253 39.426,24.518 0.673,2.644 -0.342,2.94 -1.188,0.346 -4.628,-14.182 -23.735,-24.206 -37.826,-23.4 a 11.444,11.444 0 0 0 1.754,3.152 c 0.943,1.247 0.7,1.635 -0.875,1.357 a 16.9,16.9 0 0 0 -5.173,-0.159 14.365,14.365 0 0 0 2.98,4.676 c 1.249,1.329 0.82,1.859 -0.76,1.357 a 12.645,12.645 0 0 0 -4.187,-0.613 c 4.782,17.007 24.508,24.434 34.932,25.615 2.454,0.278 2.491,1.25 -0.06,1.231 z"
     id="path14953"
     style="fill:#0f141b" />
  <path
     d="m 128.382,147.549 c 7.215,-6.074 10.693,-12.554 10.656,-16.111 a 7.911,7.911 0 0 0 -2.942,0.762 c -1.308,0.621 -1.867,0.144 -1.02,-1.154 a 12.55,12.55 0 0 0 1.839,-4.382 11.94,11.94 0 0 0 -4.155,0.749 c -1.394,0.493 -1.732,0.1 -1.091,-1.252 a 9.58,9.58 0 0 0 0.823,-2.764 c -2.378,0.048 -6.005,1.355 -9.532,4.184 l -0.182,-2.166 a 18.681,18.681 0 0 1 9.928,-3.522 c 1.194,-0.044 1.481,0.219 1.285,1.589 a 7.244,7.244 0 0 1 -0.87,2.529 16.512,16.512 0 0 1 3.976,-0.836 c 1.388,-0.121 1.682,0.284 1.375,1.534 a 12.085,12.085 0 0 1 -1.685,3.9 9.557,9.557 0 0 1 2.075,-0.638 c 1.1,-0.194 1.491,-0.081 1.613,1.06 0.462,4.318 -3.374,11.846 -11.283,18.224 z"
     id="path14955"
     style="fill:#0f141b" />
  <path
     d="m 127.4,159.15 a 11.343,11.343 0 0 1 5.422,2.107 l 0.276,2.391 c -0.964,-1.3 -2.8,-2.144 -5.307,-2.612 z"
     id="path14957"
     style="fill:#0f141b" />
  <path
     d="m 93.3,164.36 a 201.54,201.54 0 0 0 -33.365,9.1 l -1.1,-1.368 c 9,-3.664 22.348,-7.376 34.161,-9.589 z"
     id="path14959"
     style="fill:#0f141b" />
  <path
     d="m 95.3,176.56 c -1.038,-7.207 -4.338,-18.293 -6.464,-24.73 -0.3,-0.91 -0.193,-1.182 0.73,-1.52 9.269,-3.388 25.349,-5.172 33.885,-2.776 a 1.621,1.621 0 0 1 1.264,1.039 c 2.866,6.29 5.059,16.341 5.5,24.229 0.056,0.991 -0.217,1.215 -1.16,1.186 -9.184,-0.279 -23.018,1.485 -32.2,3.511 -1.169,0.258 -1.4,0.135 -1.555,-0.939 z m -4.97,-24.947 a 141.21,141.21 0 0 1 6.374,24.367 c 8.3,-2.042 23.444,-3.859 32,-3.489 a 78.36,78.36 0 0 0 -5.4,-23.407 c -8.151,-2.398 -23.741,-0.645 -32.974,2.529 z"
     id="path14961"
     style="fill:#0f141b" />
  <path
     d="m 70.4,199.79 c 3.045,9.564 -1.5,23.313 -19.01,28.909 -16.261,5.2 -29.961,-1.964 -32.948,-11.344 -3.254,-10.22 2.02,-23.543 18.49,-28.807 14.686,-4.694 29.843,-0.145 33.468,11.242 z m -33.015,-9.553 c -15.011,4.8 -19.772,17.587 -16.93,26.51 2.694,8.457 15.7,15.028 30.37,10.339 15.135,-4.837 20.684,-16.917 17.569,-26.7 -3.329,-10.455 -17.727,-14.397 -31.009,-10.149 z"
     id="path14963"
     style="fill:#0f141b" />
  <path
     d="m 51.7,221.29 a 142.61,142.61 0 0 1 -23.713,-2.619 c -1.126,-0.251 -1.266,-0.591 -0.78,-1.533 2.434,-4.718 7.36,-14.815 9.637,-19.989 0.334,-0.76 0.568,-0.816 1.474,-0.715 7.043,0.791 17.22,1.76 23.264,2.209 1.168,0.086 1.287,0.414 0.929,1.374 a 143.63,143.63 0 0 1 -9.507,20.522 1.151,1.151 0 0 1 -1.304,0.751 z m -22.937,-3.959 c 5.826,1.287 16.468,2.258 22.95,2.476 a 176.64,176.64 0 0 0 9.172,-19.747 c -4.942,-0.339 -15.908,-1.316 -22.737,-2.138 -2.017,4.711 -7.234,15.468 -9.385,19.41 z"
     id="path14965"
     style="fill:#0f141b" />
  <path
     d="M 22.5,223.78 C 12.015,213.752 7.765,185.036 16.041,172.556 c 1.321,-1.991 2.494,-1.622 1.242,0.415 -7.249,11.791 -2.8,36.632 3.483,45.845 z"
     id="path14967"
     style="fill:#0f141b" />
  <path
     d="m 68.613,198.498 c 0.473,-7.614 -1.917,-13.217 -4.5,-14.179 -2.222,-0.827 -6.949,0.724 -10.227,3.994 l -0.837,-1.525 c 3.454,-3.135 8.339,-5.124 11.594,-3.911 3.993,1.486 6.634,8.348 5.337,18.808 z"
     id="path14969"
     style="fill:#0f141b" />
  <path
     d="m 52.66,187.986 c -1.588,-3.886 -4.59,-6.576 -7.557,-6.562 -3.331,0.016 -8.969,4.828 -10.564,8.943 l -2.168,0.937 c 1.441,-5.507 7.976,-11.414 12.72,-11.425 3.538,-0.008 7.6,3.093 9.531,8.4 z"
     id="path14971"
     style="fill:#0f141b" />
  <path
     d="m 49.8,183.182 c -3.108,-4.1 -8.941,-7.667 -10.762,-7.052 -1.37,0.464 -3.94,7.091 -4.553,12.38 l -1.9,2.641 c 0.751,-8.079 3.684,-15.612 5.976,-16.438 2.615,-0.942 10.463,3.584 14.05,9.81 z"
     id="path14973"
     style="fill:#0f141b" />
  <path
     d="m 65.7,184.95 c -3.385,-6.07 -9.415,-8.494 -10.373,-8.159 -1.051,0.368 -2.346,4.554 -2.5,9.505 l -1.376,-1.967 c 0.29,-3.527 1.344,-8.246 3.385,-8.962 2.2,-0.772 10.129,3.258 13.472,11.089 z"
     id="path14975"
     style="fill:#0f141b" />
  <path
     d="m 68.65,198.5 c 1.008,-14.615 -7.156,-26.108 -19.241,-31.152 -2.482,-1.036 -2.241,-2.275 0.464,-1.277 a 32.038,32.038 0 0 1 20.49,35.4 z"
     id="path14977"
     style="fill:#0f141b" />
  <path
     d="m 10.4,246.42 c 5.6,-4.175 12.948,-13.782 14.816,-21.811 l 1.735,1.181 c -2.506,8.642 -9.854,18.251 -16.638,22.446 z"
     id="path14979"
     style="fill:#0f141b" />
  <path
     d="m 149.6,198.61 c -7.492,0 -12.522,-10.715 -12.522,-26.67 0,-19.036 6.461,-25.613 12.665,-25.613 7.112,0 12.384,9.379 12.384,26.051 0,17.032 -6.164,26.232 -12.527,26.232 z m 0.121,-50.571 c -5.851,0 -10.544,7.995 -10.544,23.927 0,15.932 5.088,24.921 10.425,24.921 4.914,0 10.413,-7.906 10.413,-24.558 -10e-4,-16.224 -5.065,-24.288 -10.294,-24.288 z"
     id="path14981"
     style="fill:#0f141b" />
  <path
     d="m 123.48,198.536 c 12.646,1.46 22.4,0.276 25.42,-1.335 l 5.39,-0.313 c -5.342,4.138 -17.273,5.381 -32.071,3.265 z"
     id="path14983"
     style="fill:#0f141b" />
  <path
     d="m 131.1,154.38 a 42.4,42.4 0 0 0 8.473,4.447 l -0.358,1.662 a 42.6,42.6 0 0 1 -7.55,-3.881 z"
     id="path14985"
     style="fill:#0f141b" />
  <path
     d="m 147.771,147.388 c -0.659,-2.065 -1.871,-3.462 -2.943,-3.443 -1.991,0.037 -5.247,5.3 -4.951,15.421 l -1.715,-0.723 c -0.383,-11.455 3.706,-16.058 6.617,-16.167 1.93,-0.1 3.71,2 4.487,4.648 z"
     id="path14987"
     style="fill:#0f141b" />
  <path
     d="m 159.715,160.803 c -0.046,-11.159 -3.172,-15.6 -5.2,-15.972 a 4.237,4.237 0 0 0 -4.411,2.35 l -1.941,-0.024 a 6.4,6.4 0 0 1 6.7,-3.765 c 4.11,0.949 7.553,8.494 6.332,23.387 z"
     id="path14989"
     style="fill:#0f141b" />
  <path
     d="m 129.694,150.523 c 7.829,-7.475 14.161,-9.412 16.939,-7.436 l -2.959,0.938 c -2.673,0.042 -7.275,2.167 -13.393,7.926 z"
     id="path14991"
     style="fill:#0f141b" />
  <path
     d="m 152.2,144.87 a 8.356,8.356 0 0 0 -3.913,1.6 l -0.7,-1.45 c 2.076,-1.42 6.836,-2.439 8.567,-1.123 z"
     id="path14993"
     style="fill:#0f141b" />
  <path
     d="m 155.192,184.07 a 93.073,93.073 0 0 0 -10.39,-0.828 c -0.846,0 -1.137,-0.26 -1.177,-1.132 -0.329,-7.217 -0.191,-16.259 0.161,-22.013 0.063,-1.027 0.327,-1.162 1.352,-1.05 3.452,0.378 7.359,0.605 10.271,0.735 0.83,0.037 1.016,0.306 1.066,1.142 0.341,5.739 0.34,15.983 -0.01,22.078 -0.055,0.945 -0.423,1.179 -1.273,1.068 z m -10.1,-2.31 a 71.78,71.78 0 0 1 9.937,0.8 c 0.307,-5.365 0.307,-16.553 0.01,-21.313 -2.471,-0.085 -6.862,-0.34 -9.8,-0.722 -0.278,5.028 -0.31,14.431 -0.151,21.23 z"
     id="path14995"
     style="fill:#0f141b" />
  <path
     transform="translate(-1268.7 -509.08)"
     d="m1385.1 633.94c1.273 0.063 2.746-2.1 3.309-7.565 0.484-4.7-0.271-7.282-1.315-7.437-1.53-0.227-4.959 3.023-5.091 6.12-0.211 4.984 1.832 8.818 3.097 8.882z"
     fill="#fffce4"
     id="path14999" />
  <path
     transform="translate(-1268.7 -509.08)"
     d="m1387.6 631.18c-2.656-0.976-4.421-7.639-0.543-12.24-1.544-0.181-4.928 3.043-5.059 6.12-0.212 4.984 1.831 8.818 3.1 8.882 0.958 0.047 1.717-0.844 2.502-2.762z"
     fill="#dcdac6"
     id="path15001" />
  <path
     transform="translate(-1268 -508.4)"
     d="m1384.3 634.28c-1.761-0.073-4.127-4.435-3.893-9.932 0.156-3.668 4.035-7.19 6.183-6.861 1.717 0.253 2.447 3.749 1.977 8.316-0.666 6.468-2.491 8.55-4.267 8.477zm0.2-1.94c0.529 0.014 1.74-1.179 2.31-6.719 0.467-4.54-0.037-6.409-0.6-6.592-0.481-0.157-3.921 1.919-4.068 5.4-0.199 4.719 1.666 7.893 2.36 7.91z"
     fill="#0f141b"
     id="path15003" />
  <path
     transform="translate(-1217.9 -467.7)"
     d="m1282.4 538.4c-3.2-6.142-7.312-9.613-9.231-8.611-1.951 1.018-0.624 8.779 3.146 14.7a76.89 76.89 0 0 1 6.085-6.089z"
     fill="#434c5c"
     id="path15005" />
  <path
     transform="translate(-1221.1 -472.96)"
     d="m1283.9 545.24c-1.432-2.913-3.534-4.6-4.3-4.191s-0.582 3.642 1.787 6.694c0.821-0.857 1.668-1.699 2.513-2.503z"
     fill="#fffce4"
     id="path15007" />
  <path
     d="m 57.688,77.27 c -3.712,-5.726 -5.564,-14.324 -2.772,-15.779 2.229,-1.162 6.692,2.087 10.2,8.688 l -1.3,1.045 c -3.7,-7.034 -7.252,-9.051 -8.245,-8.537 -0.953,0.5 -0.823,6.646 3.345,13.413 z"
     id="path15009"
     style="fill:#0f141b" />
  <path
     d="m 62.213,72.659 c -1.275,-2.746 -3.206,-4.234 -3.493,-4.063 -0.337,0.2 -0.062,3.187 1.9,5.617 l -0.923,0.917 c -2.46,-3.238 -2.758,-6.888 -1.515,-7.562 1.068,-0.579 3.432,1.091 5.015,4.2 z"
     id="path15011"
     style="fill:#0f141b" />
  <path
     d="m 122.7,58.25 c -13.174,-12.808 -50.588,1.8 -66.723,22.311 -1.378,1.753 -2.231,1.07 -0.984,-0.779 13.364,-19.8 54.27,-37.714 69.345,-23.063 z"
     id="path15013"
     style="fill:#0f141b" />
</svg>
