<?xml version="1.0" encoding="UTF-8"?>
<!-- Created with Inkscape (http://www.inkscape.org/) -->
<svg version="1.1" viewBox="0 0 209.07 304.1" xmlns="http://www.w3.org/2000/svg">
 <g transform="translate(9.5182 -16.588)" stroke-width="1.9006">
  <path d="m185.5 146.96c0.52079 2.6608 0.94081 5.3331 1.2335 8.0376 4.1166 38.099-28.142 45.126-47.46 28.382-19.318-16.744-37.685-22.57-61.492-20.576-30.478 2.5525-42.366-10.52-35.956-33.821a40.682 40.682 0 0 1 9.1058-14.923c-14.532 15.914-23.794 31.85-25.293 46.247a118.79 118.79 0 0 0-0.10071 17.812c0.53976 9.5486-0.72413 24.094-2.5848 29.149a74.751 74.751 0 0 0-3.6206 13.165c-20.948 19.816-18.601 54.975-11.242 80.097 3.3964 11.594 47.325 11.594 53.217 3.5466 1.5395-2.0906 2.6703-10.1 4.6279-17.947 0.90661 0.32469 2.6742 1.4026 3.6777 1.6421 12.935 3.0866 35.731 2.9307 46.156 1.0586 0.88571-0.15947 1.7315-0.33833 2.5507-0.53947 1.7599 6.9239 2.505 13.622 3.5351 15.155 5.2685 7.8628 45.269 8.3626 52.664-1.971 2.7065-3.784 15.636-49.195-6.6521-77.366 17.195-16.265 24.394-43.524 17.634-77.151" fill="#d35336" data-name="パス 14314"/>
  <path d="m135.17 101.65a29.131 29.131 0 0 0-11.037-3.3641c-0.53228-14.809-4.3714-19.24-18.447-16.372-29.269 5.9603-59.407 30.908-63.86 47.065-6.4164 23.303 5.4699 36.374 35.95 33.831 23.807-1.9937 42.152 3.8012 61.492 20.576s51.577 9.7197 47.46-28.382c-2.4574-22.737-13.336-43.824-27.12-59.285-6.0439-6.7795-13.192-6.7795-24.44 5.9394" fill="#fffce4" data-name="パス 14315"/>
  <path d="m102.69 139.6a25.744 25.744 0 0 0-9.197 2.1021 80.226 80.226 0 0 1 10.197 6.3081 27.589 27.589 0 0 0-0.9997-8.4101" fill="#29343d" data-name="パス 14316"/>
  <path d="m127.03 147.22a18.491 18.491 0 0 0-4.9416 6.5171 62.646 62.646 0 0 1 11.774-0.3685 19.956 19.956 0 0 0-6.8422-6.1484" fill="#29343d" data-name="パス 14317"/>
  <path d="m140.5 96.31a46.434 46.434 0 0 0-17.216-6.0078 47.365 47.365 0 0 1 0.85719 7.9825 29.117 29.117 0 0 1 11.037 3.364 57.086 57.086 0 0 1 5.3217-5.3445" fill="#d35336" data-name="パス 14318"/>
  <path d="m139.27 183.38c-19.341-16.767-37.687-22.572-61.492-20.576-14.792 1.2392-25.191-1.2126-31.259-6.7167 2.6399 28.748 23.598 55.743 52.076 60.089 26.091 3.9913 54.597-4.4227 65.535-24.408a33.261 33.261 0 0 1-24.854-8.3892" fill="#922f00" data-name="パス 14319"/>
  <path d="m106.83 173.3c-18.118-4.9207-38.202-2.1249-52.673 8.8245 8.9841 17.486 24.945 31.079 44.434 34.053 16.879 2.5772 34.762-0.0359 48.251-7.6024-6.9486-18.609-22.543-30.522-40.011-35.266" fill="#ed8599" data-name="パス 14320"/>
  <g fill="#fffce4">
   <path d="m125.78 173.4a71.463 71.463 0 0 0-35.486-10.877c2.3396 10.453 9.1647 21.085 12.734 21.979 3.6568 0.91423 15.492-3.2861 22.758-11.101" data-name="パス 14321"/>
   <path d="m66.436 199.2c2.7425-6.2188 3.8677-16.957 2.678-18.74-0.96365-1.4464-7.9388-1.4616-15.161 1.2468a70.077 70.077 0 0 0 12.481 17.486" data-name="パス 14322"/>
   <path d="m147.51 208.2c-3.7442-5.3217-10.708-9.961-12.648-9.3623-1.9823 0.60843-5.4338 8.1554-6.9429 16.64a65.736 65.736 0 0 0 19.591-7.2774" data-name="パス 14323"/>
  </g>
  <path d="m119.55 237.54c-16.155 0.47339-40.348-0.78873-53.35-3.7042a187.07 187.07 0 0 0 2.2807 30.182c9.4574 4.5709 31.679 5.2798 45.312 3.309a130.59 130.59 0 0 0 5.757-29.786" fill="#fddc6b" data-name="パス 14324"/>
  <path d="m138.76 260.62a18.854 18.854 0 0 1 1.2069-5.7208 16.125 16.125 0 0 1-6.2454 3.098 13.568 13.568 0 0 1 0.95029-7.5074 14.445 14.445 0 0 1-4.9416 3.2538 11.379 11.379 0 0 1-0.36276-1.8094 72.012 72.012 0 0 1-12.251 2.7597 100.33 100.33 0 0 1-3.3241 12.63c-13.633 1.9709-35.857 1.262-45.312-3.309a120.35 120.35 0 0 1-1.6003-12.989 110.23 110.23 0 0 1-38.079-18.198c6.6274 9.3737 15.228 26.228 23.841 42.454 3.4211 6.4449 8.7789 10.195 16.243 12.428 10.966 3.2823 36.448 2.9972 46.88 1.1251 11.174-2.0052 16.619-6.8764 26.352-28.657a13.057 13.057 0 0 1-3.3546 0.44106" fill="#fffce4" data-name="パス 14325"/>
  <g fill="#dcdac6">
   <path d="m68.511 180.01a47.27 47.27 0 0 1-5.4623 15.477q1.627 1.9234 3.3812 3.7175c3.1093-7.0512 4.0501-18.27 2.0906-19.196" data-name="パス 14326"/>
   <path d="m134.51 199.01a46.185 46.185 0 0 1 9.2065 11.183c1.2943-0.62568 2.5639-1.2848 3.7879-1.9938-3.3431-4.7515-10.79-10.6-12.994-9.1913" data-name="パス 14327"/>
   <path d="m125.78 173.4q-3.1531-1.9367-6.3347-3.5123a40.414 40.414 0 0 1-17.151 14.321c3.7613 1.9994 16.868-3.691 23.484-10.809" data-name="パス 14328"/>
  </g>
  <path d="m119.86 178.42c-6.6141 4.5234-14.064 6.768-16.841 6.082-2.5753-0.64435-6.8422-6.3632-9.8945-13.416a59.451 59.451 0 0 0-37.605 10.085c6.6331-2.1496 12.696-2.0431 13.589-0.7011a14.228 14.228 0 0 1 0.26004 6.6008c20.882-5.3977 46.242-0.78687 61.625 17.657 1.3628-3.3013 2.8167-5.5669 3.8639-5.8919 1.6782-0.5172 7.1044 2.8832 10.963 7.2489a56.222 56.222 0 0 0-25.962-27.661" fill="#ce7486" data-name="パス 14329"/>
  <g fill="#b6472d">
   <path d="m30.98 221.03c16.225 10.849 41.967 3.7384 42.119-15.026-5.1411 15.382-25.44 20.215-42.119 15.026" data-name="パス 14330"/>
   <path d="m138.61 260.32c11.139-6.2245 23.784-20.167 24.016-39.301 0.0359-2.8509 3.134-3.1094 3.8182-0.93506 0 27.412-19.316 41.264-27.834 40.236" data-name="パス 14331"/>
   <path d="m166.01 219.77c7.4484-6.0705 15.079-18.082 19.506-31.25a58.373 58.373 0 0 1-17.653 35.593l-1.6193-0.0503a24.643 24.643 0 0 0-0.23562-4.2934" data-name="パス 14332"/>
  </g>
  <path d="m113.79 267.32c0.53013-1.4844 1.0795-3.3051 1.6212-5.3407a131.45 131.45 0 0 1-47.663-2.4936c0.22268 1.6801 0.46764 3.2215 0.7317 4.531 9.4555 4.5709 31.677 5.2798 45.312 3.3108" fill="#dabe5d" data-name="パス 14333"/>
  <path d="m71.381 288.23c11.767 3.1436 34.401 2.0336 44.717-0.39508 11.164-2.6247 16.284-5.8918 26.019-27.663a13.004 13.004 0 0 1-3.3546 0.44106 20.827 20.827 0 0 1 1.1213-5.6239 18.392 18.392 0 0 1-6.1618 2.9992c-0.0144-0.0833-0.0144-0.16953-0.0287-0.2507a93.766 93.766 0 0 1-18.28 4.2383c-0.54163 2.0337-1.0909 3.8563-1.6212 5.3407-13.633 1.969-35.857 1.2601-45.312-3.3108-0.26435-1.3095-0.50786-2.8509-0.73177-4.5311a83.104 83.104 0 0 1-31.25-14.23c5.0233 8.8187 10.579 19.548 16.14 30.029 3.4211 6.4449 11.12 10.919 18.738 12.954" fill="#dcdac6" data-name="パス 14334"/>
  <path d="m159.02 308.39c-21.42 2.4898-33.988-0.49637-37.168-4.9416-1.0757-1.5015-1.7752-8.2334-3.5351-15.157 9.503-2.3434 14.825-8.0548 23.782-28.07 7.2222-1.5338 18.424-11.995 24.257-29.579a51.084 51.084 0 0 1-5.5573 17.676 7.6518 7.6518 0 0 0-0.84764 5.7018c4.4968 18.421 4.8047 40.644-0.92939 54.357" fill="#b6472d" data-name="パス 14335"/>
  <path d="m52.643 275.28c-3.3774-6.3632-10.06-18.89-13.935-25.829-8.2315 12.715-12.331 44.145-8.127 60.017 18.17 0.95029 28.22-1.9805 30.721-5.3882 1.5376-2.0906 4.628-17.947 4.628-17.947a22.336 22.336 0 0 1-13.287-10.852" fill="#b6472d" data-name="パス 14336"/>
  <path d="m139.27 183.38c14.137 12.253 30.083 9.1115 37.045 3.9913-5.3844 2.3643-18.025 5.8348-38.174-12.076-18.206-16.184-39.951-20.127-65.337-17.801-16.97 1.5547-30.712-4.1376-32.287-15.3 0.32692 14.92 12.658 22.672 37.252 20.612 23.807-1.9938 42.152 3.8012 61.492 20.576" fill="#dcdac6" data-name="パス 14337"/>
  <g fill="#0d131a">
   <path d="m138.35 184.38c-19.27-16.704-36.78-22.246-60.466-20.262-31.609 2.6476-44.145-10.681-37.328-35.439 4.9131-17.835 36.531-42.076 64.989-47.872 14.445-2.944 19.103 1.9386 19.555 16.6a29.589 29.589 0 0 1 9.8451 3.0181c10.792-12.476 18.934-12.818 25.563-5.4281 14.792 16.486 25.143 38.449 27.471 59.989 4.3334 40.074-29.699 46.671-49.628 29.395m1.6915-1.9329c18.343 15.899 49.353 9.5563 45.371-27.295a108.09 108.09 0 0 0-26.692-58.656c-6.0002-6.7281-12.514-5.5117-22.549 5.5232-0.6422 0.70684-0.975 0.77925-1.7657 0.35701a31.318 31.318 0 0 0-9.9686-3.0086c-1.0966-0.15013-1.2791-0.32325-1.3437-1.4483-0.77544-13.365-4.1623-17.533-17.244-14.866-28.553 5.8159-58.539 31.014-62.765 46.335-6.272 22.769 5.9451 34.507 34.591 32.094 22.25-1.8606 40.863 2.3188 62.364 20.96" data-name="パス 14338"/>
   <path d="m139.69 96.979a43.638 43.638 0 0 0-16.056-5.5441l-0.52438-2.2332a44.702 44.702 0 0 1 18.105 6.2719z" data-name="パス 14339"/>
   <path d="m157.13 163.89c-19.28-22.142-57.313-33.58-89.184-26.618-3.1778 0.69392-3.4971-0.60843-0.35701-1.4464 32.36-8.6287 72.316 3.6112 90.689 27.125 2.2256 2.8509 1.1232 3.5465-1.1404 0.93893" data-name="パス 14340"/>
   <path d="m102.62 148.17a70.624 70.624 0 0 0-8.7542-5.3216c-1.6288-0.84391-1.6023-1.587 0.08907-2.2807a28.302 28.302 0 0 1 8.2695-1.7942c0.92946-0.0575 1.1404 0.10416 1.3666 0.98068a29.507 29.507 0 0 1 0.85525 7.5169c-0.0287 1.5737-0.52439 1.8227-1.8264 0.89139m-7.0969-6.3746a61.175 61.175 0 0 1 7.4124 4.7515 23.727 23.727 0 0 0-0.86667-6.0516 25.692 25.692 0 0 0-6.5532 1.3" data-name="パス 14341"/>
   <path d="m121.76 152.69a20.241 20.241 0 0 1 4.3942-5.8443c0.61561-0.57036 0.91035-0.59119 1.6954-0.17096a21.771 21.771 0 0 1 6.2111 5.5402c1.1404 1.4748 0.66518 2.045-1.1916 1.9443a62.393 62.393 0 0 0-9.7348 0.20904c-1.9234 0.21119-2.0907-0.15014-1.3742-1.6801m5.3844-4.4474a15.976 15.976 0 0 0-3.7157 4.5614 47.479 47.479 0 0 1 8.5736-0.40514 16.155 16.155 0 0 0-4.8579-4.1585" data-name="パス 14342"/>
   <path d="m126.79 173.99c-7.3877 7.8571-19.415 12.519-24.012 11.502-4.5443-1.0054-11.483-12.791-13.909-23.123l2.6609 0.17096c2.1666 10.239 8.8605 20.323 11.721 20.981 3.1779 0.72789 14.363-3.1968 21.477-10.778z" data-name="パス 14343"/>
   <path d="m165.38 191.59c-9.79 19.576-38.08 30.22-66.989 25.804-28.971-4.4227-51.261-31.586-53.027-62.351l2.2598 1.9233c3.6815 28.646 24.408 53.922 51.126 58.001 28.699 4.3828 54.057-5.7018 64.132-23.187z" data-name="パス 14344"/>
   <path d="m93.502 172.19a58.829 58.829 0 0 0-35.56 8.49l-4.6793 0.96739c10.465-8.3627 24.729-12.434 39.285-11.757z" data-name="パス 14345"/>
   <path d="m120.84 177.6a56.111 56.111 0 0 1 26.798 30.123l-3.385-3.041a58.158 58.158 0 0 0-25.468-25.567z" data-name="パス 14346"/>
   <path d="m65.516 198.3c2.7654-5.8919 3.6282-16.138 2.7388-17.314-0.59119-0.78306-8.1346-0.80964-13.751 1.8188l-1.1556-2.123c6.9562-2.37 15.072-3.0599 16.535-0.78299 1.6593 2.5639 0.1997 13.85-2.6266 20.207z" data-name="パス 14347"/>
   <path d="m126.67 215.69c1.4597-8.4349 5.278-17.052 8.0301-17.826 2.8129-0.78873 10.223 4.7515 13.825 9.7045l-2.0793 1.2544c-3.2557-5.1772-10.062-9.408-11.299-9.0582-1.3798 0.3915-4.8086 7.7449-6.0211 15.423z" data-name="パス 14348"/>
   <path d="m46.928 120.76c-11.248 13.35-18.327 26.96-19.989 39.747a104.98 104.98 0 0 0-0.13117 18.478c0.77354 12.232 0.28698 20.22-3.1911 29.885a73.061 73.061 0 0 0-3.098 11.185 2.6989 2.6989 0 0 1-0.89898 1.6592c-19.145 19.477-17.767 52.424-10.389 78.415 2.9839 10.508 45.09 10.894 51.073 3.1702 1.3304-1.7106 2.5373-10.263 4.265-17.181l2.3472 0.80209c-1.6725 6.6958-2.8927 15.425-4.6926 17.902-6.2625 8.6211-51.506 8.853-55.332-3.9381-7.8704-26.367-9.6817-61.135 11.386-81.049a70.97 70.97 0 0 1 3.0524-11.795c3.1911-9.2084 3.6777-17.887 2.9877-28.838a128.99 128.99 0 0 1-0.02658-19.065c1.2791-13.361 9.5771-29.34 23.932-44.976z" data-name="パス 14349"/>
   <path d="m119.45 287.96c1.8075 7.0113 2.5449 13.441 3.5123 14.844 2.1059 3.0505 11.869 5.8748 27.167 5.1962 11.675-0.51864 20.236-2.9402 23.377-7.2222 2.4214-3.2957 14.483-47.515-6.3537-75.674a1.4749 1.4749 0 0 1 0.22053-2.2427c15.811-16.205 20.964-39.287 18.702-61.77l1.6212-8.3987c4.7914 31.434-1.6839 56.244-18.232 71.552 21.807 27.517 9.5943 72.884 5.9755 77.97-3.5712 5.0194-14.161 7.8666-25.312 8.3113-14.194 0.57036-26.439-1.8512-29.423-6.3138-1.1233-1.6782-1.9006-8.9613-3.6264-15.634z" data-name="パス 14350"/>
   <path d="m137.95 259.73a17.003 17.003 0 0 1 0.61993-2.944 13.762 13.762 0 0 1-3.8012 1.8227c-1.625 0.51721-1.8797 0.22772-2.0032-1.2886a11.816 11.816 0 0 1 0.38-4.5862 12.023 12.023 0 0 1-2.2141 1.4236c-1.4065 0.71841-1.9196 0.57036-2.2807-0.99217-2.4404-10.793 7.8419-29.298 19.095-34.899 3.4325-1.7105 4.0103-0.59694 0.69751 1.3304-9.9706 5.8216-19.628 23.415-18.098 32.85a12.228 12.228 0 0 0 3.2139-1.9956c1.3856-1.1936 2.1496-0.87235 1.5319 0.95029a12.97 12.97 0 0 0-0.5991 5.4129 14.076 14.076 0 0 0 4.4322-2.0906c1.3875-0.99777 2.0584-0.71259 1.4882 1.1156a16.068 16.068 0 0 0-0.66733 3.8145c11.261-1.1878 25.658-19.753 25.641-37.349 0-3.402 1.3019-3.4458 1.5204-0.0503 1.1784 18.531-14.199 38.535-27.021 39.225-1.8094 0.0991-2.1381-0.12355-1.9443-1.7542" data-name="パス 14351"/>
   <path d="m143.39 259.82a100.66 100.66 0 0 1-9.9478 19.341c-5.8253 8.1232-18.356 12.544-40.851 12.544-20.907 0-35.861-5.6429-41.279-15.982-11.061-21.097-22.047-42.763-28.283-48.393-2.2256-2.0089-1.357-3.0409 1.0244-1.2069 7.3572 5.6486 18.666 27.625 29.76 48.518 4.4417 8.3627 16.801 14.445 38.681 14.388 23.02-0.0503 34.522-5.5422 38.932-11.554a98.539 98.539 0 0 0 9.3357-17.028z" data-name="パス 14352"/>
   <path d="m117.27 253.61a74.313 74.313 0 0 0 11.953-2.6912l0.3175 2.0736a68.587 68.587 0 0 1-12.681 2.7863z" data-name="パス 14353"/>
   <path d="m66.966 252.07c-14.006-3.767-28.815-10.453-37.033-17.235l-2.4822-4.2441a107.76 107.76 0 0 0 39.301 19.318z" data-name="パス 14354"/>
   <path d="m67.464 263.82a167.06 167.06 0 0 1-2.2066-29.049c0.02873-1.5204 0.42023-1.9481 2.1154-1.6098 13.424 2.6856 35.351 3.7233 50.946 3.4667 1.7466-0.0287 2.1857 0.32109 2.0545 2.1591a125.97 125.97 0 0 1-5.5821 28.467c-0.27153 0.77544-0.38933 0.90848-1.2069 1.0282-14.733 2.1515-35.623 1.1841-45.168-3.2519-0.72229-0.33474-0.80396-0.46404-0.95036-1.2087m1.8265-0.46908c9.235 4.1813 30.083 4.9415 43.834 3.1626a141.05 141.05 0 0 0 5.4206-28.062c-15.727 0.50715-38.419-0.64076-51.455-3.4876a194.81 194.81 0 0 0 2.2009 28.387" data-name="パス 14355"/>
  </g>
  <path d="m174.44 25.079c-17.259 6.903-29.151 19.979-36.415 35.507a92.991 92.991 0 0 1 1.0168-13.905 53.08 53.08 0 0 0-16.241 12.221c-0.14654 8.3018 3.1988 24.542 6.7187 34.627-0.1408 4.4892 1.8815 4.3847 4.3143 0.1803 10.334-17.866 29.49-34.414 46.597-38.514 4.531-10.484 0.709-27.908-5.9907-30.115" fill="#fddc6b" data-name="パス 14356"/>
  <path d="m31.845 220.65c14.705 6.2548 38.217-0.50212 40.5-14.737a14.918 14.918 0 0 0-5.2324 0.54737 9.3129 9.3129 0 0 0 4.4151-5.3084 11.662 11.662 0 0 0-7.5169-1.473 7.4123 7.4123 0 0 0 3.9913-3.6244c-12.924-6.6236-30.296-0.82681-38.582 6.9371-6.0192 5.6448-5.029 14.492 2.4176 17.66" fill="#d35336" data-name="パス 14357"/>
  <g fill="#434c5c">
   <path d="m43.917 280.15c-3.9685 0.15587-11.67 23.121-9.6931 28.041 0.78114 1.9558 7.743 4.3828 10.714 4.1509 3.6644-0.28518 9.2825-3.0409 9.8945-5.1164 1.2886-4.3619-6.8422-27.236-10.908-27.076" data-name="パス 14358"/>
   <path d="m23.598 279.67c-3.9399-0.19036-12.578 20.354-11.873 24.179 0.44472 2.4176 6.808 7.9198 10.183 8.011 3.3127 0.0891 10.282-2.5943 10.569-4.5367 1.3304-8.9176-6.0078-27.519-8.8796-27.654" data-name="パス 14359"/>
   <path d="m139.59 279.45c-5.1658 0.35702-12.652 25.065-10.976 27.673 1.3 2.0223 6.6369 4.4835 9.4308 4.4835 3.6454 0 10.999-2.7102 11.44-4.7933 1.3855-6.5285-6.7832-27.578-9.8945-27.369" data-name="パス 14360"/>
   <path d="m159.84 279.09c-4.3258 0.48057-10.883 24.609-8.9138 27.983 1.1878 2.0374 8.6781 4.5918 10.717 4.2763 3.1151-0.47913 9.8223-4.9187 9.9972-8.2448 0.35702-6.8004-9.1076-24.314-11.801-24.014" data-name="パス 14361"/>
  </g>
  <path d="m71.698 205.74c-5.8919 11.349-26.327 17.157-38.896 12.097-2.5601-1.0302-3.651 0.7011-2.6817 2.4441 18.436 8.9138 42.931-3.5085 41.578-14.542" fill="#b6472d" data-name="パス 14362"/>
  <g fill="#363e4c">
   <path d="m23.689 279.69a139.2 139.2 0 0 1-1.2791 32.16c3.4629-0.15803 9.7938-2.6742 10.073-4.5253 1.3076-8.8264-5.8595-27.133-8.7903-27.633" data-name="パス 14363"/>
   <path d="m43.834 280.17a158.7 158.7 0 0 1 1.357 32.145c3.6625-0.38 9.0336-3.06 9.6322-5.086 1.3722-4.6451-7.2565-27.488-10.991-27.059" data-name="パス 14364"/>
   <path d="m139.49 279.48a91.4 91.4 0 0 1-0.84196 32.109c3.8012-0.2586 10.421-2.7939 10.833-4.7667 1.3893-6.5456-6.9619-27.737-9.999-27.342" data-name="パス 14365"/>
   <path d="m159.84 279.09a1.3 1.3 0 0 0-0.16737 0.0431 88.355 88.355 0 0 1 1.8379 32.221h0.1329c3.1151-0.47913 9.8242-4.9188 9.9972-8.2449 0.35701-6.8004-9.1077-24.314-11.801-24.014" data-name="パス 14366"/>
  </g>
  <g fill="#0d131a">
   <path d="m31.571 221.36c-2.3396-1.0396-1.8341-2.2921 0.57014-1.4236 14.783 5.3217 35.492-0.87048 39.078-13.183a8.7808 8.7808 0 0 0-3.2862 0.26651c-1.9006 0.49421-2.2485-0.4504-0.63501-1.6099a8.2258 8.2258 0 0 0 3.0942-3.8449 10.453 10.453 0 0 0-5.5839-1.2145c-1.8227 0.0912-2.0907-0.77545-0.53804-1.6687a6.616 6.616 0 0 0 2.4556-2.2142c-12.97-5.5707-28.264 0.26219-36.805 7.0892-2.2294 1.7828-3.0505 0.84957-1.013-1.1498 7.9825-7.8381 25.263-14.192 38.941-7.4408 1.1784 0.58185 1.2639 1.0282 0.70684 2.0089a5.5859 5.5859 0 0 1-1.779 1.9006 12.141 12.141 0 0 1 4.6299 1.1593c1.013 0.49206 1.2335 0.82867 0.72602 2.0564a8.4368 8.4368 0 0 1-2.1629 3.0923 10.565 10.565 0 0 1 1.7106-0.19036c1.4102-0.0287 1.7105 0.15947 1.3912 1.8911-2.7863 14.908-26.7 21.07-41.509 14.481" data-name="パス 14367"/>
   <path d="m33.118 308.65c-2.0907-5.1316 5.8272-29.197 10.748-29.406 4.7952-0.20329 13.416 23.493 11.974 28.374-0.71273 2.4214-6.6863 5.4737-10.873 5.8006-3.4344 0.25285-10.883-2.3929-11.852-4.7705m10.833-27.599c-2.9307 0.0144-10.48 22.106-8.6838 26.675 0.57014 1.4654 6.3898 3.8012 9.5771 3.537 4.0312-0.31535 8.5071-2.8737 8.9461-4.4474 1.2278-4.3942-6.9429-25.776-9.8394-25.765" data-name="パス 14368"/>
   <path d="m23.634 278.76c3.6796 0.14223 11.25 19.586 9.8831 28.8-0.40866 2.7578-8.7922 5.5118-11.649 5.3959-4.1813-0.11206-10.672-6.0325-11.295-8.8473-0.80966-3.6472 7.7563-25.554 13.059-25.348m-0.08936 1.7942c-2.9022-0.19036-11.299 19.675-10.666 23.111 0.44285 2.3872 6.0534 7.0684 9.0202 7.1501 3.5161 0.10057 9.2901-2.4119 9.4707-3.6967 1.3057-9.2578-6.1313-26.453-7.8248-26.563" data-name="パス 14369"/>
   <path d="m138.07 312.7c-3.2424 0-8.9556-2.6114-10.497-5.0005-2.0906-3.231 5.9793-28.699 11.997-29.146 4.094-0.30385 12.371 22.06 10.949 28.57-0.60843 2.7882-8.4824 5.5764-12.449 5.5764m1.5756-32.354c-4.2079 0.18964-11.388 24.052-10.056 26.126 1.3323 2.0736 5.9868 4.0673 8.4747 4.0673 4.474 0 10.035-2.7445 10.301-4.0977 1.2886-6.5761-6.7357-26.185-8.718-26.095" data-name="パス 14370"/>
   <path d="m149.9 307.63c-2.1496-3.7042 4.5614-28.834 9.8432-29.438 3.6207-0.41448 13.394 18.436 12.979 25.088-0.23346 3.7632-7.0626 8.5527-10.999 9.1647-2.5316 0.3915-10.423-2.389-11.824-4.8086m10.02-27.661c-3.1569 0.0934-9.8831 23.229-8.0072 26.456 0.91423 1.5642 7.8856 4.1433 9.6152 3.8677 2.6133-0.40083 8.8036-4.4702 8.948-7.2336 0.38-7.0208-8.8891-23.138-10.556-23.09" data-name="パス 14371"/>
  </g>
  <path d="m128.69 92.275c2.4708-31.953 19.519-57.862 44.687-68.171a2.2807 2.2807 0 0 1 2.3454 0.10272c6.7966 3.3184 10.404 20.234 6.0591 31.075a1.7885 1.7885 0 0 1-1.5395 1.2658c-16.032 3.9912-34.806 19.683-45.666 37.603-3.3831 5.5821-6.3575 4.2421-5.8919-1.8721m1.7714 0.20329c-0.43891 4.453 0.27584 4.8674 2.5924 0.76022 10.432-18.48 29.693-34.815 46.424-39.103 3.8411-9.503 0.42597-25.278-5.0689-27.749-24.358 10.035-40.863 34.79-43.948 66.082" fill="#f2972c" data-name="パス 14372"/>
  <path d="m129.26 95.588a131.55 131.55 0 0 1-7.8096-35.826 2.5449 2.5449 0 0 1 0.83248-2.3339 55.575 55.575 0 0 1 15.055-11.314c2.1305-1.0473 3.0789-0.54521 2.6475 2.0812a54.566 54.566 0 0 0-0.77925 10.263l-2.1363 3.9437a66.141 66.141 0 0 1 0.36491-13.411 52.168 52.168 0 0 0-13.452 10.497c0 8.5375 3.3907 24.805 5.831 32.071z" fill="#f2972c" data-name="パス 14373"/>
  <path d="m100.77 129.81c1.6668-5.3768 0.33259-8.9671-1.5869-9.5239-2.9859-0.86668-6.099 1.3551-8.509 7.3572-0.84196 2.0906-2.4176 1.6915-1.9139-0.50715 1.741-7.6024 6.1694-10.927 11.358-9.368 4.2516 1.2753 5.3217 7.152 2.4594 12.783-1.0928 2.1439-2.5468 1.6458-1.8075-0.74126" fill="#0d131a" data-name="パス 14374"/>
  <path d="m144.3 143.39c2.1686-5.7018 1.0833-9.2351-1.072-10.05-2.619-0.99023-5.6752 0.34768-8.5318 6.3062-0.89706 1.8721-2.4138 1.3703-1.8018-0.61993 2.3548-7.6518 7.2508-9.5752 11.388-8.087 3.7632 1.3532 5.3407 7.0037 1.5908 13.304-1.0016 1.6821-2.3035 1.072-1.5718-0.84957" fill="#0d131a" data-name="パス 14375"/>
  <rect x="-9.5182" y="16.588" width="209.07" height="304.1" fill="#fff" opacity="0" data-name="長方形 26567"/>
 </g>
</svg>
