<?xml version="1.0" encoding="UTF-8"?>
<!-- Created with Inkscape (http://www.inkscape.org/) -->
<svg version="1.1" viewBox="0 0 239.06 295.68" xmlns="http://www.w3.org/2000/svg">
 <g transform="translate(5.8118 .92981)">
  <path d="m96.956 74.342c2.1094 0.42178 5.5394 1.4244 7.807 2.3218 0.50526-0.26492 1.0198-0.50991 1.539-0.7393l-0.054-0.19067c-3.6888-5.1318-9.5398-7.8318-17.522-8.1449 4.4979 0.13624 7.5962 2.0583 8.2301 6.753" fill="#b7482d"/>
  <path d="m105.53 76.238c-2.9975-3.9089-7.1684-6.2571-12.55-7.1855l-4.3367-2.4737c8.7369 0.42178 15.028 3.6129 18.551 8.8872z" fill="#0f141b"/>
  <path d="m76.382 142.29c-33.79-18.19-48.308-24.715-58.979-23.951-12.604 0.90361-21.921 9.9908-1.973 26.671 4.7645 3.1836 10.422 6.1253 17.034 8.706-6.1439 3.4563-10.924 6.7577-14.583 9.8591 2.0134 3.1448 4.2158 10.603 1.9544 20.895 6.4245 7.3203 18.219 12.506 35.129 12.685 28.136 0.2992 64.644-12.674 78.742-36.315-13.084 0.12386-34.562-6.2958-57.324-18.549" fill="#91331e"/>
  <path d="m133.71 160.84c-11.125 0.10553-28.328-4.5382-47.222-13.46-45.132 4.7506-62.702 27.73-59.638 42.877 6.7531 4.1274 16.147 6.7701 28.117 6.8972 28.136 0.29743 64.644-12.675 78.742-36.315" fill="#ed8499"/>
  <g fill="#fffbe6">
   <path d="m131.54 78.035c-7.0522-5.3457-18.063-5.944-26.773-1.3717-2.2675-0.89741-5.6975-1.8986-7.807-2.3218-0.63394-4.6948-3.7322-6.6151-8.2301-6.7515-14.473-0.43848-36.969 9.9567-48.124 25.377-23.576-4.1476-41.013 1.8847-44.333 16.115-2.7341 11.717 3.0999 25.2 19.16 35.929-19.948-16.682-10.633-25.768 1.973-26.671 10.671-0.76565 25.189 5.7595 58.979 23.951 29.277 15.761 56.436 21.876 66.332 16.821 19.921-10.175 5.7378-68.254-11.178-81.077"/>
   <path d="m16.031 161.91c-1.2694 0.0669-1.973 3.7105-1.8986 8.3355 0.08042 5.0853 2.004 10.005 5.7022 14.219 3.0533-13.895-2.0304-22.648-3.8035-22.555"/>
   <path d="m69.388 196.23c6.1237-0.81371 12.382-2.1606 18.52-4.019-4.0143-7.0878-9.0345-11.239-10.893-10.987-2.7387 0.37037-6.7887 8.9741-7.6272 15.006"/>
   <path d="m17.403 118.34c-3.1417 0.22495-6.0788 0.95941-8.4099 2.1916 1.5406 8.7896 7.0816 15.815 9.7025 16.299 3.0503 0.56262 12.981-6.6073 18.089-14.208-8.4114-3.3695-14.331-4.6451-19.382-4.2825"/>
  </g>
  <path d="m46.747 103.71c-1.7808-1.8196-4.2731-3.6408-6.6476-4.7087-2.2939 1.9002-4.3522 4.5893-5.8944 6.8848 3.9957-0.98885 8.9416-1.939 12.542-2.1761" fill="#2a353d"/>
  <path d="m16.519 96.552c-2.6907 0.39541-5.8959 1.3857-8.6253 2.8488 1.9389 1.305 4.3646 3.2052 6.1331 5.1829 0.71139-2.4923 1.5825-5.3411 2.4923-8.0317" fill="#2a353d"/>
  <path d="m120.46 230.62c-26.081 10.51-75.979 18.278-98.853 2.4008 13.61 25.935 46.194 40.634 82.989 44.37-1.102-17.987 4.05-35.157 15.864-46.771" fill="#fffbe6"/>
  <path d="m167.51 272.99c21.014-4.642 41.287-12.294 55.027-22.742-15.561 5.4837-40.994 5.8557-56.41 0.59364 1.2678 6.3082 1.7235 14.847 1.3825 22.148" fill="#dcdac6"/>
  <path d="m144.88 290.68c11.77-0.15508 18.706-1.7468 20.053-3.8996 1.4306-2.2908 2.2939-7.5962 2.5822-13.79 0.34251-7.3032-0.11317-15.84-1.3825-22.15 15.4 5.2589 40.794 4.89 56.36-0.57657 2.6008-1.9762 4.9954-4.0406 7.0909-6.2152 4.3367-4.5057 3.6687-6.7809-1.9002-8.599-41.358-13.505-60.506-25.351-57.766-77.971 1.5592-29.951-15.333-60.659-37.414-78.66 16.479 14.239 29.754 70.308 10.212 80.288-2.2024 1.1252-5.2636 1.694-9.0082 1.7281-14.098 23.641-50.607 36.614-78.742 36.315-16.91-0.17837-28.705-5.3643-35.129-12.685-3.6981-4.2142-5.6216-9.1337-5.7022-14.219-0.01765-1.1702 0.01357-2.2768 0.09009-3.2781-6.4027 6.6306-7.435 12.131-5.4976 15.912 1.2771 2.4954 2.8519 5.7549 4.0143 8.7819l4.9892 32.096c1.0353 3.2362 2.3497 6.3191 3.8965 9.2639 22.88 15.864 72.761 8.0984 98.836-2.4101-11.809 11.609-16.962 28.77-15.865 46.75z" fill="#d35335"/>
  <path d="m212.54 236.61c-0.39522-2.28-1.2353-4.8482-2.2319-7.3777-9.4886-3.8361-17.3-8.0441-23.46-13.481-0.37507 1.0245-0.64167 2.0568-0.84315 3.0286 6.9623 10.498 21.101 18.357 26.535 17.83" fill="#fddb6c"/>
  <path d="m37.325 252.82c9.1911 4.5661 29.624 5.7952 41.332 3.3959-4.1569-7.6117-9.2499-22.014-11.065-30.56-11.181 1.4042-31.437 0.64319-42.62-1.9917 1.4042 7.962 6.5562 21.837 12.353 29.156" fill="#fddb6c"/>
  <path d="m21.676 195.2c-1.398 0.77805-3.4161 2.7961-4.4839 4.4188 0.43539-2.4938 0.47428-7.28 0.03953-9.8916-1.7561 0.50991-4.3553 1.8956-6.2896 3.4393-0.21836-2.1962-0.76724-4.8838-1.1873-5.9331-5.2512 3.6764-10.293 13.12-10.076 22.21 0.20781 8.7695 5.1132 15.65 10.972 15.984 7.4179 0.42308 13.522-5.6836 14.225-14.969 0.42925-5.6572-0.89741-11.592-3.199-15.259" fill="#d35335"/>
  <path d="m122.54 291.85c-3.9043-5.1705 6.4027-30.439 10.763-30.439 5.5348 0 14.207 24.638 12.449 28.593-1.7204 3.8702-21.025 4.7412-23.212 1.846" fill="#434d5c"/>
  <path d="m122.12 289.58c0.90822-5.3209-4.3134-26.143-7.4908-26.642-5.1349-0.80594-14.927 21.043-11.237 27.274 2.1528 3.6362 18.083 3.1479 18.728-0.63235" fill="#434d5c"/>
  <path d="m22.32 281.61c-7.7016-9.6514-9.7165-30.038-0.89741-48.685 8.1402 16.651 30.138 31.739 47.713 36.927-1.3701 4.6219-3.7151 10.16-5.2542 11.302-1.8661 1.3841-14.586 2.6024-23.077 2.2118z" fill="#d35335"/>
  <path d="m22.366 282.08c-4.6451 1.2972-11.446 1.4678-12.736 0.28205-2.8736-2.6442-2.1513-15.605 6.0447-25.786-0.32994 10.319 2.2025 19.467 6.6445 25.034 0.0085 0.14591 0.0263 0.32247 0.04666 0.46966" fill="#434d5c"/>
  <path d="m118.26 73.62c9.718-7.8783 23.027-15.591 33.776-21.302-2.5326-5.0652-7.7558-9.0996-11.553-9.9707-9.3724 5.0915-16.412 12.601-22.059 21.834 5.6743-18.201 7.7016-47.629-2.5512-63.852-10.367 2.7697-23.345 13.768-26.405 22.42 8.3231 8.709 16.138 32.92 16.347 53.412 3.9291-1.8428 8.2534-2.6783 12.444-2.5403" fill="#fddb6c"/>
  <path d="m132.43 160.38c-12.502-2.9185-41.825-16.404-53.438-22.666-35.207-18.987-49.998-24.221-61.831-23.579-12.582 0.682-18.071 7.6861-16.741 16.098 3.258 5.1892 8.2069 10.23 15.009 14.772-19.948-16.68-10.632-25.766 1.9731-26.67 10.671-0.76565 25.189 5.7595 58.979 23.949 14.204 7.6474 39.043 18.59 56.048 18.095" fill="#dcdac6"/>
  <path d="m133.71 160.84c-11.125 0.10553-28.328-4.5382-47.222-13.46-20.665 2.1761-35.535 8.1759-45.309 15.493 27.108-7.9093 64.034 0.89429 70.092 19.176 9.4158-5.617 17.376-12.72 22.438-21.209" fill="#cf7486"/>
  <path d="m36.785 122.62c-1.6011-0.64165-3.0859-1.1826-4.5165-1.6755-3.4501 5.4914-9.5088 12.091-14.121 15.704 0.19376 0.087 0.37829 0.14897 0.54713 0.17969 3.0518 0.56263 12.982-6.6073 18.091-14.208" fill="#dcdac6"/>
  <path d="m16.031 161.91c-0.02206 2e-3 -0.03953 8e-3 -0.06057 0.0136 1.8552 6.412 2.0614 13.252 0.85243 18.235 0.82303 1.4957 1.8134 2.9402 3.0115 4.3057 3.0533-13.895-2.0304-22.648-3.8035-22.555" fill="#dcdac6"/>
  <g fill="#b7482d">
   <path d="m24.875 210.46c0.42925-5.6572-0.89738-11.592-3.199-15.259-0.13183 0.073-0.27415 0.1673-0.41518 0.26053 3.4486 25.997-12.062 29.48-19.583 22.764 2.001 4.208 5.2992 6.9933 8.9725 7.2025 7.4179 0.42485 13.522-5.6821 14.225-14.968"/>
   <path d="m25.135 202.95c3.9244 9.9087 0.86175 19.146-5.5999 25.847-0.62309-1.3391-1.3144-3.1278-1.8057-5.0341 6.0168-4.1073 8.0752-11.575 7.4056-20.812"/>
   <path d="m182.94 217.14c-1.5701 0.62927-3.5199 0.9749-5.5084 1.0493 0.86487 0.93929 1.7747 2.0738 2.3977 3.0239-16.948 4.3615-41.777-5.6107-52.594-17.128 2.4225 5.2077 7.1653 11.457 12.055 14.811 8.1464 6.0509 26.663 9.532 38.824 7.3157 4.6033-0.83851 4.8528-2.2675 3.5338-3.9554 3.3432-0.94855 3.9476-2.3187 1.2911-5.1163"/>
  </g>
  <path d="m108.64 248.95c-9.963 3.2347-20.58 4.9381-30.969 5.3612 0.33172 0.66804 0.66339 1.3144 0.98573 1.9064-11.13 2.2815-30.123 1.2771-39.869-2.7496 16.555 13.363 40.148 21.316 65.808 23.922-0.61376-10.006 0.71611-19.755 4.0438-28.44" fill="#dcdac6"/>
  <path d="m78.658 256.21c-0.32381-0.59208-0.65408-1.2384-0.98732-1.9064-16.239 0.65873-31.913-1.8181-43.666-6.4818 0.69127 1.1996 1.4011 2.3327 2.1265 3.3742 0.86792 0.76724 1.7452 1.5282 2.6566 2.2644 9.7475 4.0267 28.74 5.0311 39.87 2.7496" fill="#d9bd5c"/>
  <path d="m164.44 246.79c0.64011 22.905-5.9982 31.326-20.242 32.855 1.1609 2.7434 2.4272 8.8625 1.2663 10.815 7.7156 0.42001 17.124-1.0757 19.097-3.2192 3.8082-4.1321 4.4266-30.698-0.12097-40.452" fill="#b7482d"/>
  <g fill="#373f4c">
   <path d="m145.75 290c1.7406-3.9151-6.7406-28.086-12.282-28.57 3.9167 8.7044 6.5376 21.298 5.4821 31.499 3.43-0.58586 6.1966-1.5732 6.7995-2.9294"/>
   <path d="m114.82 263.01c2.1559 8.3076 3.2626 20.811 2.6643 29.218 2.5186-0.49905 4.4204-1.3887 4.6343-2.6426 0.89119-5.2171-4.1073-25.312-7.2986-26.575"/>
   <path d="m15.653 258.85c-3.0332 7.17-4.7412 15.905-4.2267 24.14 2.6582 0.41211 7.4164 0.0791 10.939-0.90515-0.02206-0.14711-0.03512-0.3238-0.04479-0.46966-4.1151-5.155-6.5857-13.384-6.6678-22.765"/>
   <path d="m41.588 282.97c1.8677-2.965-4.8869-21.908-6.6988-22.018-5.5487-0.33612-14.179 17.396-12.244 21.908 1.429 3.3354 17.08 3.0688 18.943 0.10977"/>
  </g>
  <path d="m25.689 239.91c-4.8172 10.882-7.0088 24.676-2.7744 37.769 1.8118-6.8817 7.7744-16.979 11.975-16.725 2.0537 0.12555 9.1399 20.022 6.3206 22.434 8.4828 0.33479 20.836-0.86333 22.672-2.2257 1.5391-1.1423 3.8841-6.6802 5.2542-11.304-15.078-4.4498-33.401-16.189-43.448-29.948" fill="#b7482d"/>
  <path d="m77.232 181.23c2.7108 3.4656 5.0977 8.1138 6.1888 12.244 1.5003-0.39057 2.9976-0.80747 4.487-1.2585-3.8733-6.8383-8.6718-10.93-10.676-10.986" fill="#dcdac6"/>
  <path d="m227.68 235.45c-6.3252-2.0645-12.089-4.1011-17.375-6.2416 0 8e-3 2e-3 0.0176 2e-3 0.0263 0.9966 2.5295 1.8382 5.0977 2.2319 7.3776-1.832 0.17838-4.6637-0.6169-7.8659-2.1265-7.6256 8.2533-23.533 14.91-39.63 12.139 0.36735 1.1935 0.70366 2.3296 1.0865 4.2174 15.4 5.2589 40.794 4.89 56.358-0.57656 2.6023-1.9762 4.997-4.0406 7.0909-6.2152 4.3382-4.5057 3.6702-6.7809-1.8987-8.599" fill="#b7482d"/>
  <path d="m212.54 236.61c-0.39522-2.28-1.2353-4.8482-2.2319-7.3777 0-8e-3 -2e-3 -0.0175-2e-3 -0.0219-0.57503-0.23418-1.1733-0.46186-1.7359-0.69748-0.77186 2.0118-2.1079 4.036-3.8981 5.9734 3.2037 1.5096 6.0354 2.3032 7.8674 2.125" fill="#d9bd5c"/>
  <path d="m114.08 73.762c3.8562-10.084 6.5019-21.462 7.3281-32.025 1.164-14.873-0.51768-29.957-6.1021-39.855-9.5878 2.9139-21.172 12.815-24.352 20.572 8.5897 9.3569 16.214 34.677 15.777 53.407l-1.8444 0.6215c-0.46186-18.931-7.6365-42.459-15.832-52.265-0.93152-1.1144-0.99816-1.5654-0.54247-2.6566 3.6361-8.7106 15.885-19.111 26.387-22.356 1.0416-0.32073 1.7592-0.10859 2.4427 1.0276 6.6073 10.973 7.9465 27.246 6.567 41.795-1.1067 11.674-3.9462 22.686-7.9992 31.584z" fill="#f1972d"/>
  <path d="m119.44 60.696c5.6324-8.5804 12.128-14.923 19.82-19.276 0.75016-0.42485 1.4089-0.44791 2.376-0.0962 3.5617 1.2911 8.7354 5.1396 11.327 9.8622 0.66957 1.2213 0.35337 1.987-0.74396 2.5434-13.601 6.8972-25.242 14.114-32.584 20.006l-2.8038-0.16916c8.8888-7.2428 20.561-14.8 33.396-21.781-2.2954-3.9616-6.4105-6.9421-9.5754-8.0875-8.4564 4.8203-15.482 11.511-21.496 21.189" fill="#f1972d"/>
  <g fill="#0f141b">
   <path d="m39.304 92.844c11.584-17.136 34.901-26.798 49.339-26.265 5.6572 0.20781 8.5695 2.7837 9.1384 6.8878 2.2303 0.46501 4.859 1.2694 6.8801 2.0738 9.1849-4.8358 20.32-3.7989 27.454 1.4352 17.066 12.519 32.595 72.585 11.163 83.398-10.431 5.262-37.152-0.60759-67.544-16.97-34.797-18.732-48.954-24.514-58.212-23.838-13.34 0.97337-19.137 12.212 1.085 26.304l-6.8584-2.9309c-15.557-12.669-9.9474-24.74 5.589-25.853 10.552-0.761 24.993 5.2775 59.745 24.114 31.595 17.125 56.957 20.749 64.926 16.68 18.993-9.6994 4.7722-66.808-11.11-78.942-6.7035-5.1225-17.048-5.5906-25.23-1.553-0.62771 0.30975-0.97334 0.35939-1.6336 0.10367-1.9901-0.77338-4.6839-1.5995-6.8785-2.0939-0.92685-0.20913-1.1113-0.42178-1.3082-1.3732-0.65718-3.1743-2.7806-5.2388-7.2056-5.3643-13.618-0.38618-35.079 9.3987-46.709 24.492z"/>
   <path d="m32.344 154.61c-25.307-8.4332-41.668-28.04-37.511-45.855 6.2199-26.653 59.787-26.313 111.4 14.791 2.7542 2.1931 1.9157 3.4098-0.89742 1.2926-50.968-38.348-101.96-40.239-107.75-15.422-3.7291 15.983 9.794 33.613 35.338 43.565 2.8953 1.1283 2.0908 2.5186-0.58434 1.6274"/>
   <path d="m134.93 160.82c-13.322 24.432-51.764 37.868-80.018 37.559-28.277-0.2992-41.671-14.104-41.896-28.068-0.08212-5.2186 0.97804-9.157 3.0239-9.3104 2.7914-0.20781 8.4362 9.8405 4.6203 24.173l-1.6661-1.7328c2.6163-13.74-2.2567-20.572-2.8565-20.476-0.56576 0.0901-1.0105 1.6212-0.92066 7.3017 0.19682 12.314 12.124 25.349 39.76 25.642 27.303 0.28689 63.191-12.353 77.546-35.114z"/>
   <path d="m14.063 168.88c-5.0466 5.73-5.8138 10.366-4.191 13.534 1.2818 2.5016 2.8518 5.6836 4.036 8.7834l-2.0583 1.0695c-1.1656-3.0859-2.8255-6.3082-4.1135-8.8237-2.4473-4.7753-0.71918-11.063 6.6058-18.167z"/>
   <path d="m17.344 162.58c3.6098-3.0115 8.2022-6.147 13.881-9.3569l2.4784 0.92378c-6.4601 3.6718-11.421 7.1328-15.138 10.33z"/>
   <path d="m10.049 193.9c-0.08517-1.8366-0.38442-4.0267-0.75014-5.1085-4.3196 3.788-8.678 12.568-8.4874 20.591 0.21221 8.9353 4.7645 14.816 9.9241 15.11 6.6864 0.37346 12.302-4.9024 12.998-14.081 0.38751-5.0961-0.60604-10.552-2.3482-13.853-1.1066 0.68969-1.925 1.5344-2.9356 2.6875-1.4135 1.6104-2.1172 1.2384-1.9312-0.69591 0.27283-2.8317 0.23241-5.7874-0.05412-7.5776-2.266 0.82922-5.2729 2.6101-6.8833 4.4638-1.5654 1.8041-2.4303 1.1671-1.0803-0.80595 1.4461-2.1156 4.3507-4.1088 7.2583-5.3395 1.6646-0.70519 2.3233-0.34709 2.5062 1.5143 0.26492 2.7 0.141 5.2589-0.03953 6.3082 0.39541-0.57501 1.2802-1.4538 2.2211-2.1885 0.9935-0.77651 1.7762-0.69593 2.5372 0.61376 2.3001 3.96 3.3928 9.7413 2.9929 15.031-0.86331 11.381-8.3898 16.256-15.383 15.848-6.2539-0.35631-11.835-6.8693-12.075-17.009-0.22627-9.5057 4.5862-18.125 9.8823-22.333 1.5143-1.2027 2.0087-1.054 2.5217 0.83849 0.38135 1.4074 0.68969 3.2254 0.75014 4.6296z"/>
   <path d="m68.157 196.33c0.57348-6.4694 5.4325-15.654 8.7199-16.091 2.3822-0.31764 8.2363 4.4405 12.173 11.595l-2.3791 0.70211c-3.7182-6.891-8.4951-10.557-9.5181-10.358-1.8134 0.35016-5.7161 7.7946-6.5205 13.85z"/>
   <path d="m25.778 189.57c-2.7527-16.215 16.076-38.11 59.19-42.947l2.965 1.4926c-47.609 4.8218-63.173 29.165-59.978 42.728z"/>
   <path d="m10.157 119.94c1.1795 8.2813 6.7438 15.64 8.7695 15.941 2.1993 0.32863 11.322-5.8665 16.646-13.811l2.4272 1.0338c-5.262 8.038-15.891 15.385-19.464 14.768-3.2998-0.57036-9.2593-8.2859-10.634-16.866z"/>
   <path d="m211.49 229.6c0.84471 1.7545 1.4972 3.9694 1.8491 5.8897 0.32086 1.7437-0.17359 2.1374-1.7778 2.0847-6.2168-0.20606-18.984-7.3808-25.885-17.593-0.59207-0.87571-0.64942-1.1532-0.43864-2.018 0.24797-1.0198 0.56727-2.0598 0.86485-2.8441l1.5298 1.226c-0.25883 0.73933-0.40917 1.3174-0.60602 2.2164 6.6337 9.5476 18.925 16.538 24.359 17.093-0.42468-2.0289-1.1206-4.2081-2.3218-6.9251z"/>
   <path d="m220.77 251.75c-14.159 4.9489-39.007 5.8448-54.316 0.44329l-0.63392-2.6271c16.259 5.4976 42.532 5.0744 58.114-0.82303z"/>
   <path d="m103.49 279.53c-2.1467-22.914 6.2555-43.291 21.776-54.054 3.0115-2.0878 3.8237-0.94703 0.9098 1.2756-13.779 10.504-21.054 28.522-20.622 47.711z"/>
   <path d="m133.82 220.36c1.5809-0.75791 3.0704-1.3252 4.6885-1.7638 2.9572-0.8013 3.3695 0.35191 0.49752 1.4337-1.522 0.57348-3.0255 1.2338-4.5304 1.9808-2.4086 1.195-3.3215-0.37037-0.65562-1.6506"/>
   <path d="m145.94 289.38c10.088-0.24032 16.673-1.55 17.866-3.4594 3.2781-5.245 3.3153-26.792 0.77342-38.172-0.69437-3.1123 0.52079-3.4734 1.5034-0.43846 3.6904 11.376 3.4951 34.677 7e-3 40.256-1.9746 3.1588-9.4422 4.2251-22.029 4.2979z"/>
   <path d="m72.04 240.54c18.167-1.567 36.591-6.2292 49.632-11.474l-2.7573 3.306c-11.533 4.6777-28.861 8.7571-46.213 10.199z"/>
   <path d="m29.345 238.31c-2.5558-1.0431-4.8916-2.2722-6.9607-3.7059l-1.178-2.9713c2.1436 1.5608 4.5258 2.9046 7.1049 4.0469z"/>
   <path d="m123.41 291.16c1.8986 2.5186 19.887 1.5344 21.287-1.6414 1.615-3.6671-6.9049-27.133-11.387-27.184-3.3509-0.0351-13.281 24.34-9.8994 28.826m-1.7204 1.3841c-4.3925-5.6789 6.0121-31.915 11.612-32.04 6.4291-0.14592 15.49 25.716 13.551 29.963-2.1312 4.6668-22.302 5.7797-25.163 2.0769"/>
   <path d="m121.04 287.3c-0.11775-7.3436-4.6669-23.204-6.567-23.463-4.16-0.56729-13.504 20.006-10.15 25.811 1.8304 3.1649 15.795 2.4256 16.666-0.21221l1.2229 1.9436c-3.1495 2.9898-17.364 3.3602-19.746-0.50371-4.0515-6.5702 6.099-29.7 12.297-28.819 2.8193 0.40155 6.3718 11.9 7.838 20.284z"/>
   <path d="m22.557 283.62c-9.033-8.5618-11.775-33.04-1.6135-51.778l1.1935 2.2768c-8.2952 16.514-5.7115 38.407 0.35016 45.768z"/>
   <path d="m70.332 270.11c-1.3887 4.7645-3.7912 10.722-5.6092 12.071-2.2257 1.6507-15.443 2.7821-24.847 2.2939l1.8459-2.2149c7.5172 0.3304 19.611-0.92066 21.287-2.1636 1.2772-0.94703 3.5292-5.8107 4.9768-10.788z"/>
   <path d="m40.537 282.4c1.677-2.6349-4.6963-20.481-5.837-20.527-4.5878-0.18584-12.761 16.584-11.028 20.595 1.0849 2.5093 15.222 2.514 16.865-0.068m2.0289 1.2183c-2.0847 3.2207-19.213 3.7632-20.991-0.30843-2.2474-5.1426 7.1963-23.502 13.362-23.277 2.6163 0.0962 9.7924 20.245 7.6287 23.585"/>
   <path d="m15.575 258.23c-7.1188 9.5863-7.3668 21.44-5.1597 23.329 0.98725 0.8447 7.4241 0.86798 11.869-0.52853l0.1876 2.1451c-4.3026 1.4337-11.793 1.6382-13.624-0.0497-3.4176-3.1572-2.6969-16.914 6.829-28.08z"/>
   <path d="m37.921 252.07c9.2174 4.4948 28.161 5.2418 39.342 3.4904-3.8051-6.9375-8.833-20.802-10.412-28.853-10.608 1.3252-29.994 0.65253-40.717-1.7994 1.5825 7.5962 6.6864 20.454 11.787 27.162m-2.903-0.76877c-4.8621-7.0847-9.467-18.497-10.805-26.532-0.31151-1.8661 0.06193-2.1296 2.0614-1.7359 10.915 2.1482 29.335 3.0348 40.673 1.7406 1.0137-0.1147 1.3608 0.0669 1.6693 1.3407 2.1358 8.8206 6.505 21.445 10.327 28.788 0.80752 1.5515 0.57348 2.0738-0.96715 2.3667-11.128 2.1203-28.626 1.2337-38.567-2.5264z"/>
   <path d="m40.239 100.06c-1.708 1.4337-3.2905 3.1618-4.2825 4.6482 2.9573-0.85401 6.6368-1.5391 8.6734-1.7003-0.7052-0.77497-2.6178-2.187-4.3909-2.9479m-6.1393 4.5599c1.5143-2.2474 3.2006-4.1523 5.0636-5.9099 0.73002-0.68821 0.96252-0.66497 1.8971-0.20299 2.0909 1.0354 4.036 2.4024 5.7053 3.9849 1.4212 1.3469 1.1686 2.0397-0.74242 2.1745-3.2099 0.22495-6.5825 0.79668-10.631 1.7499-2.2861 0.5378-2.5481 0.065-1.2926-1.7964"/>
   <path d="m9.6346 99.529c1.2927 0.9532 2.9201 2.3714 4.0251 3.6299 0.38267-1.646 0.99509-3.7926 1.584-5.5193-1.7452 0.27108-4.0128 1.0214-5.6092 1.8894m3.275 4.9845c-1.4414-1.4569-2.9123-2.6132-4.6002-3.7601-1.6972-1.1531-1.7204-1.7142 0.05277-2.5636 2.3125-1.1051 4.6265-1.8847 7.17-2.3652 1.6863-0.3194 2.1218 0.08517 1.4895 1.8615-0.82303 2.314-1.491 4.3382-2.0366 6.3066-0.40156 1.4476-0.9656 1.6445-2.0754 0.52075"/>
   <path d="m103.89 278.61c-45.521-4.7366-78.584-25.516-87.244-54.402l2.0382-1.2307c9.2515 29.043 41.664 48.674 85.974 53.133z"/>
   <path d="m167.58 271.69c24.687-5.4511 48.345-15.02 61.346-28.282 3.7818-3.8609 3.571-5.4991-1.5484-7.0924-41.688-12.971-61.61-25.365-58.821-78.913 1.5654-30.038-16.101-59.218-33.609-75.071l-2.8348-5.3612c23.998 18.297 40.81 50.621 39.021 80.619-3.0487 51.166 16.039 63.18 56.772 76.977 5.9037 2.0009 7.2847 4.7366 2.2474 10.178-12.874 13.907-37.2 23.923-62.682 29.543z"/>
  </g>
  <path d="m180.89 211.57c1.97-0.084 3.7322-0.41078 5.0884-0.90825-7.8085-16.012-32.204-28.717-54.522-26.192-7.9046 0.89429-11.057 9.6436-3.85 19.07 9.4917 12.416 34.184 22.316 52.226 17.672-0.62308-0.95167-1.5329-2.0862-2.3962-3.0239 2.2536-0.0852 4.4917-0.49599 6.1424-1.3019-0.55797-1.9917-1.4771-3.8904-2.6891-5.3163" fill="#d35335"/>
  <path d="m179.86 220.67c-18.497-0.60292-36.293-7.1715-52.116-18.036 8.5432 15.191 40.382 23.728 52.116 18.036" fill="#b7482d"/>
  <g fill="#0f141b">
   <path d="m180.24 210.82c1.7746-0.0945 3.1479-0.30359 4.4281-0.70525-9.1275-15.775-31.82-26.586-53.118-24.9-3.2657 0.25876-3.4284-1.0865-0.18891-1.5065 21.587-2.8069 46.191 8.7958 54.867 25.411 0.83852 1.6042 0.44328 2.3667-1.1361 2.7465-1.0896 0.26185-2.3156 0.44329-3.6113 0.44791z"/>
   <path d="m176.73 217.45c2.3807-0.0835 4.4312-0.48821 5.7223-1.1051-0.56418-2.0304-1.7592-4.0825-3.2394-5.4666-1.5391-1.4368-0.89895-2.2737 0.82302-1.0664 1.7142 1.2012 3.323 3.5866 4.2251 6.2385 0.37354 1.0974 0.18597 1.5034-0.82921 1.8661-1.9173 0.68195-4.0298 1.0602-5.4186 1.0276z"/>
   <path d="m127 204.01c-1.6212-2.2474-0.58742-3.041 1.2182-0.93617 9.8421 11.477 32.879 21.082 50.083 17.554-0.64013-1.1609-1.8026-2.4691-2.7387-3.3215-1.3732-1.2524-0.61532-2.1963 0.84936-1.0478 1.243 0.97492 2.6085 2.2985 3.6222 3.664 1.1284 1.522 0.81372 1.9932-0.93925 2.4164-17.579 4.2421-42.318-4.7753-52.095-18.329"/>
  </g>
  <path d="m101.49 120.93c2.9046-1.0307 6.2927-4.7924 9.4685-11.84 4.425-9.8219 3.4021-16.262 0.75174-17.291-2.5806-1.0013-7.9992 1.9142-12.503 11.91-2.6876 5.9641-3.3308 10.601-2.9015 13.573 1.367 0.87414 3.9291 2.6628 5.1845 3.6486" fill="#434d5c"/>
  <path d="m58.425 98.719c3.0611-9.2251 9.7754-15.127 13.001-13.622 2.7945 1.3035 2.1916 9.6142-3.3758 17.429" fill="#434d5c"/>
  <path d="m107.09 106.55c-2.0862 4.5428-3.7198 5.5952-4.8265 5.0652-1.0478-0.50217-1.5034-3.1526 0.36905-7.3079 1.9545-4.3351 4.2236-5.6603 5.1969-5.2217 0.98733 0.44486 1.2647 3.1014-0.73933 7.4645" fill="#fffbe6"/>
  <path d="m106.38 116.95c-2.1513-4.4204-7.2723-4.6343-10.104-0.0351 0.01357 0.1208 0.01765 0.2557 0.03512 0.37213 1.367 0.87412 3.9306 2.6643 5.1845 3.6485 1.5282-0.54092 3.1913-1.8476 4.8854-3.9833" fill="#a6a1ac"/>
  <path d="m67.537 95.799c-1.6925 3.4502-3.2781 5.3426-4.3522 4.8156-0.68042-0.33302-0.59981-3.0177 1.0338-6.35 1.7809-3.6268 3.4548-4.9535 4.2452-4.5661 0.61223 0.3005 0.67735 2.8286-0.92685 6.1005" fill="#fffbe6"/>
  <g fill="#0f141b">
   <path d="m106.36 106.19c1.8165-3.9554 1.7204-6.2013 1.1671-6.4493-0.67269-0.30535-2.359 0.90673-4.1646 4.9164-1.8197 4.0391-1.3655 6.0463-0.79513 6.3206 0.54092 0.25569 1.6615-0.14592 3.7927-4.7877m-4.4188 6.0742c-1.522-0.73001-2.1002-3.7679-0.0307-8.3588 1.8522-4.1057 4.6374-6.1842 6.2059-5.4743 1.4337 0.64786 1.8305 3.8423-0.28998 8.4611-2.4117 5.2465-4.4684 6.0494-5.8835 5.372"/>
   <path d="m100.6 120.26c2.6768-0.66185 6.1455-4.3429 9.4267-11.624 4.6017-10.212 3.0533-15.465 1.3717-16.023-1.8863-0.62774-6.719 1.5685-11.223 11.564-2.8317 6.2803-3.3835 11.071-2.8674 13.72l-2.035-1.3624c-0.28513-3.1464 0.47117-7.6287 3.0285-13.306 4.3197-9.5863 10.158-13.57 13.697-12.193 3.633 1.4073 4.2018 8.9803-0.0852 18.497-3.1588 7.0057-6.5345 10.76-9.5631 12.037z"/>
   <path d="m64.428 99.464c0.51764-0.61688 1.2849-1.8196 2.3745-4.0391 1.4926-3.0441 1.5949-4.9784 1.2803-5.09-0.36114-0.12691-1.4554 0.82612-3.1479 4.2747-1.0245 2.0908-1.3933 3.6206-1.4647 4.5134l-1.4042 0.13624c-0.03071-1.3484 0.38267-3.2486 1.4337-5.3891 2.0955-4.27 4.1337-5.3968 5.2682-4.8404 1.1687 0.57343 1.2601 3.5416-0.50059 7.1343-1.0307 2.1002-1.9498 3.4285-2.7511 4.2251z"/>
   <path d="m67.651 101.3c5.3411-7.9232 5.2605-14.576 3.4098-15.44-2.1699-1.0075-8.289 3.3463-11.362 12.235l-1.8986-0.60604c3.4889-9.5413 10.557-14.727 13.993-13.123 3.0549 1.4275 3.12 9.2639-2.2691 17.792z"/>
   <path d="m32.344 154.61c-25.307-8.4332-41.668-28.04-37.511-45.855 6.2199-26.653 59.787-26.313 111.4 14.791 2.7542 2.1931 1.9157 3.4098-0.89742 1.2926-50.968-38.348-101.96-40.239-107.75-15.422-3.7291 15.983 9.794 33.613 35.338 43.565 2.8953 1.1283 2.0908 2.5186-0.58434 1.6274"/>
  </g>
 </g>
</svg>
