<?xml version="1.0" encoding="UTF-8" standalone="no"?>
<svg
   version="1.1"
   viewBox="0 0 267.14 312.47"
   id="svg14500"
   sodipodi:docname="912-2.svg"
   inkscape:version="1.2.2 (b0a8486, 2022-12-01)"
   xmlns:inkscape="http://www.inkscape.org/namespaces/inkscape"
   xmlns:sodipodi="http://sodipodi.sourceforge.net/DTD/sodipodi-0.dtd"
   xmlns="http://www.w3.org/2000/svg"
   xmlns:svg="http://www.w3.org/2000/svg">
  <defs
     id="defs14504" />
  <sodipodi:namedview
     id="namedview14502"
     pagecolor="#505050"
     bordercolor="#eeeeee"
     borderopacity="1"
     inkscape:showpageshadow="0"
     inkscape:pageopacity="0"
     inkscape:pagecheckerboard="0"
     inkscape:deskcolor="#505050"
     showgrid="false"
     inkscape:zoom="0.75527251"
     inkscape:cx="53.62303"
     inkscape:cy="158.88305"
     inkscape:window-width="1309"
     inkscape:window-height="430"
     inkscape:window-x="0"
     inkscape:window-y="25"
     inkscape:window-maximized="0"
     inkscape:current-layer="svg14500" />
  <path
     d="m 233.292,292.148 c -0.46,-4.392 -14.033,-36.106 -22.632,-35.27 -1.877,0.183 -3.435,1.446 -4.743,3.476 -1.8,-1.438 -9.1,-8.4 -9.462,-8.669 l -8.622,2.449 c 1.192,1.262 9.8,9.039 14.893,14.118 a 140.74,140.74 0 0 0 -3.333,20.074 5.9,5.9 0 0 1 -3.019,4.637 c -5.016,2.806 -14.175,9.668 -12.264,13.489 1.959,3.918 16.915,-2.743 23.121,-2.743 a 10.74,10.74 0 0 1 6.839,2.36 c 1.13,2.89 3.006,5.061 5.506,4.889 5.74,-0.396 14.797,-8.485 13.716,-18.81 z"
     fill="#44bcce"
     id="path14362" />
  <path
     d="m 214.382,281.368 c 1.975,-6.32 1.959,-7.348 -4.41,-10.679 -1.927,-1.009 -3.762,-6.38 -3.475,-10.81 -0.111,0.156 -0.223,0.306 -0.331,0.473 -1.818,-1.438 -9.2,-8.4 -9.569,-8.669 l -8.721,2.449 c 1.206,1.262 9.913,9.039 15.063,14.118 a 139.36,139.36 0 0 0 -3.37,20.074 5.89,5.89 0 0 1 -3.053,4.637 c -5.072,2.806 -14.336,9.668 -12.4,13.489 1.982,3.918 17.108,-2.743 23.385,-2.743 a 11.248,11.248 0 0 1 6.326,1.9 c -1.7,-6.212 -1.42,-17.922 0.555,-24.239 z"
     fill="#39a4b4"
     id="path14364" />
  <path
     d="m 263.334,114.819 c -2.073,-1.085 -5.947,1.494 -9.993,5.115 -3.123,-16.71 -14.25,-36.53 -26.909,-36.53 -8.347,0 -14.294,33.248 -17.7,46.308 -0.784,3 -47.413,33.175 -53.427,39.189 0,0 -42.323,16.589 -55.125,22.86 -9.36,2.34 -39.712,17.112 -45.852,19.987 -3.612,1.69 -39.842,-8.1 -45.589,-2.352 -5.07,5.07 11.593,30.535 29.339,33.311 -7.482,3.615 -12.049,9.284 -10.268,11.627 2.482,3.266 20.77,0.784 28.216,-0.915 39.8,-11.768 41.793,-0.787 56.17,1.176 18.178,9.563 40.691,5.863 48.984,-2.237 11.266,4.049 27.041,4.5 37.031,-0.639 31.107,-16 30.665,-54.117 25.226,-75.49 a 72.564,72.564 0 0 0 9.848,-5.369 c 16.333,-10.712 40.026,-50.814 30.049,-56.041 z"
     fill="#f2fafe"
     id="path14366" />
  <path
     d="m 264.206,115.371 c -2.528,13.086 -13.464,35.439 -32.217,51.236 -9.908,8.347 -38.013,16.068 -61.526,14.37 -3.341,-0.242 -4.785,1.334 -3.872,2.04 14.274,3.943 45.308,1.808 66.706,-12.229 15.792,-10.363 38.481,-48.23 30.909,-55.417 z"
     id="path14368"
     style="fill:#d3d9db" />
  <path
     d="m 120.817,196.428 c 15.8,-4.184 31.9,-20.4 36.648,-30.526 a 46.985,46.985 0 0 0 -4.252,3.485 c 0,0 -42.323,16.59 -55.125,22.86 -0.878,0.22 -1.94,0.548 -3.149,0.966 7.079,6.167 15.784,5.886 25.878,3.215 z"
     id="path14370"
     style="fill:#d3d9db" />
  <path
     d="m 152.765,244.824 c -6.694,-0.93 -4.984,4.555 -13.912,7.054 -8.54,2.391 -22.338,-1.372 -28.8,-5.878 -3.863,-2.693 -7.451,-10.3 -8.034,-18.353 -11.089,15.676 -50.406,25.249 -74.5,25.959 a 1.845,1.845 0 0 0 0.305,0.689 c 2.482,3.266 20.771,0.784 28.216,-0.915 39.8,-11.768 41.793,-0.787 56.17,1.176 18.178,9.567 40.691,5.866 48.989,-2.235 11.266,4.049 27.041,4.5 37.031,-0.639 18.081,-9.3 25.491,-26.071 27.469,-42.685 -13.481,32.713 -39.964,40.407 -72.934,35.827 z"
     id="path14372"
     style="fill:#d3d9db" />
  <path
     d="m 190.583,41.89 c -5.49,-5.06 -24.7,0.635 -32.4,-8.1 C 125.358,-3.469 84.923,-0.93 61.256,6.358 23.922,17.858 -2.491,52.983 2.473,88.393 c 5.231,37.314 47.282,56.413 94.76,49.757 85.782,-12.024 108.5,-82.292 93.35,-96.26 z"
     fill="#44bcce"
     id="path14376" />
  <path
     d="m 176.21,56.233 c -9.753,7.924 -34.178,16.861 -49.116,13.324 -3.918,3.658 -78.116,34.552 -99.017,30.371 -2.271,0 -8.886,6.953 -8.137,20.4 17.636,15.5 46.305,22.137 77.294,17.792 65.722,-9.213 94.426,-52.613 97.441,-78.688 -0.832,-7.955 -7.091,-12.442 -18.465,-3.199 z"
     fill="#39a4b4"
     id="path14378" />
  <path
     d="M 173.144,138.625 C 170.919,122.5 156.033,89.65 149.435,84.153 c -6.936,-5.78 -19.79,-7.054 -28.412,-5.291 l -85.04,26.844 c -2.594,27.235 2.442,57.173 10.386,70.214 13.038,21.406 57.76,21.374 83.421,10.041 24.859,-10.986 45.454,-32.045 43.354,-47.336 z"
     fill="#f2fafe"
     id="path14380" />
  <path
     d="m 170.081,126.09 c -15.556,45.115 -88.826,66.405 -127.41,42.005 a 47.38,47.38 0 0 0 3.693,7.813 c 13.039,21.406 57.909,21.75 83.57,10.418 24.864,-10.981 45.315,-32.417 43.206,-47.713 a 79.5,79.5 0 0 0 -3.059,-12.523 z"
     fill="#d3d9db"
     id="path14382" />
  <path
     d="m 135.579,142.104 c 3.223,10.656 -10.451,30.143 -28.165,36.444 -12.558,4.466 -25.719,4.116 -32.447,-6.007 -1.081,-1.627 -1.749,-2.02 -4.376,-2.939 -2.748,-0.962 -6.154,-3.052 -6.989,-5.813 -2.877,-9.51 9.7,-27.382 23.252,-31.481 16.098,-4.87 44.425,-4.42 48.725,9.796 z"
     fill="#ffd237"
     id="path14384"
     style="fill:#ffdb4e;fill-opacity:1" />
  <path
     d="m 127.711,146.104 a 16.8,16.8 0 0 1 -9.63,3.983 c -14.2,0.364 -23.36,-5.705 -33.115,-1.176 -7.72,3.584 -7.74,12.638 -11.169,15.479 -1.44,1.194 -6.422,1.964 -9.8,0.229 1.458,1.665 4.64,4.279 6.6,4.965 2.627,0.919 3.295,1.312 4.376,2.939 6.728,10.123 19.889,10.473 32.447,6.007 16.692,-5.937 29.789,-23.578 28.552,-34.509 a 16.4,16.4 0 0 1 -8.261,2.083 z"
     fill="#daaf2f"
     id="path14386"
     style="fill:#dabd44;fill-opacity:1" />
  <path
     d="m 85.19,148.791 c -6.418,7.1 -8.428,19.593 1.244,21.546 11.351,2.291 25.39,-6.035 33.536,-20.5 a 11.437,11.437 0 0 1 -1.89,0.222 c -14.093,0.358 -23.218,-5.601 -32.89,-1.268 z"
     fill="#be7496"
     id="path14388"
     style="fill:#ce89a6;fill-opacity:1" />
  <path
     d="m 119.971,149.891 a 11.437,11.437 0 0 1 -1.89,0.222 c -14.093,0.361 -23.218,-5.6 -32.89,-1.266 -4.88,5.4 -7.205,13.909 -3.791,18.541 6.206,-10.564 19.577,-9.793 25.979,-2.99 a 46.5,46.5 0 0 0 12.592,-14.507 z"
     fill="#9f617f"
     id="path14390"
     style="fill:#b37691;fill-opacity:1" />
  <path
     d="m 29.122,53.683 c 2.547,0.882 6.037,1.68 8.327,1.273 6.419,-1.141 8.827,-10.122 12.835,-11.887 3.883,-1.709 9.666,1.929 16.655,-0.457 4.017,-1.372 11.516,-8.234 13.03,-9.895 3.878,-4.254 10.373,-0.143 7.25,5.583 C 84.738,42.848 76.7,51.539 69.976,53.78 a 25,25 0 0 1 -15.789,0.313 c -1.256,-0.377 -1.723,-0.111 -2.211,0.8 -2.739,5.1 -6.524,8.125 -12.567,9.176 A 17.858,17.858 0 0 1 26.477,62.011 c -5.095,-2.806 -2.965,-10.273 2.645,-8.328 z"
     fill="#ffffff"
     id="path14392" />
  <path
     d="m 124.999,210.406 c -4.684,0.678 -8.9,0.114 -13.14,-3.359 3.169,4.876 11.841,9.44 16.464,7.924 4.581,-1.5 11.584,-9.812 8.824,-22.2 0.001,9.797 -5.987,16.744 -12.148,17.635 z"
     fill="#d3d9db"
     id="path14394" />
  <path
     d="M 163.35,109.5 C 193.319,84.346 198.936,50.943 189.9,42.614 184.716,37.84 165.553,43.662 157.431,34.442 128.149,1.202 90.614,-1.646 61.55,7.303 27.244,17.868 -1.75,51.061 3.465,88.242 c 2.573,18.351 14.361,32.415 31.617,40.928 l 0.309,2.972 C 17.126,123.835 3.543,109.322 0.644,88.642 -4.476,52.112 21.708,16.756 60.603,4.778 c 23.262,-7.167 63.646,-11.6 98.495,27.954 7.374,8.369 26.712,2.49 32.656,7.969 10.18,9.38 4.891,44.832 -27.432,71.454 z"
     id="path14396"
     style="fill:#0f141b" />
  <path
     d="m 123.077,77.224 c 8.718,-1.236 20.742,0.3 27.4,5.845 7.54,6.284 21.989,38.66 24.3,55.388 2.07,15.021 -14.655,32.486 -34.747,43.107 -2.3,1.216 -2.867,-0.059 -0.588,-1.372 20.768,-11.963 34.372,-29.347 32.708,-41.4 -2.206,-16 -17,-48.542 -23.356,-53.839 -6.709,-5.589 -19.212,-6.788 -27.569,-5.079 z"
     id="path14398"
     style="fill:#0f141b" />
  <path
     d="m 36.912,106.512 c -2.286,25.444 2.2,55.572 10.309,68.876 7.957,13.063 34.087,21.815 68.41,14.368 2.5,-0.542 2.835,0.886 0.392,1.569 -26.725,7.46 -60.462,2.812 -71.127,-14.7 -8.516,-13.98 -12.8,-44.467 -10.288,-70.866 z"
     id="path14400"
     style="fill:#0f141b" />
  <path
     d="m 98.888,193.132 c -10.762,3.389 -40.723,17.882 -44.133,19.481 -4.191,1.967 -40.037,-7.823 -45.3,-2.55 -4.055,4.055 11.73,29.677 29.582,31.737 l -2.662,1.649 C 17.858,239.725 1.091,214.137 6.918,208.31 c 6.291,-6.291 43.57,3.676 46.9,2.122 3.021,-1.412 24.7,-11.747 38.013,-17.048 z"
     id="path14402"
     style="fill:#0f141b" />
  <path
     d="m 54.786,254.917 c -8.592,1.769 -25.557,4.017 -28.314,0.392 -3.219,-4.235 6.6,-15.03 21.456,-16.362 2.154,-0.193 2.309,1.3 0.2,1.567 -12.607,1.592 -21.125,11.052 -19.515,13.175 1.194,1.57 12.355,1.817 25.251,-0.86 z"
     id="path14404"
     style="fill:#0f141b" />
  <path
     d="m 254.716,118.467 c -3.389,-17.552 -15.407,-36.74 -28.282,-36.74 -9.009,0 -13.549,23.492 -19.137,47.06 -1.413,2.628 -28.184,20.882 -43.173,31.71 l -8.108,9.1 c 6.525,-6.525 52.7,-35.872 53.688,-39.645 2.943,-11.3 9.405,-45.558 16.729,-45.558 9.515,0 22.255,14.626 26.052,36.4 z"
     id="path14406"
     style="fill:#0f141b" />
  <path
     d="m 167.354,182.613 c 14.325,3.7 44.344,1.176 65.383,-12.627 16.722,-10.97 38.559,-49.9 30.131,-54.315 -0.969,-0.507 -4.653,-0.411 -15.962,11.686 -1.743,1.866 -2.848,0.948 -1.077,-1.175 9.9,-11.855 15.212,-14.173 18.32,-12.541 11.581,6.062 -12.937,47.051 -30.077,58.294 -22.991,15.082 -56.817,15.677 -67.013,12.149 -1.471,-0.513 -1.144,-1.849 0.295,-1.471 z"
     id="path14408"
     style="fill:#0f141b" />
  <path
     d="m 162.164,252.771 c -5.42,7.136 -22.46,11.233 -38.861,7.2 l -1.043,-2.748 c 12.49,3.2 28.822,2.866 37.576,-5 l 2.328,0.547"
     id="path14410"
     style="fill:#0f141b" />
  <path
     d="m 102.568,217.924 a 73.184,73.184 0 0 1 -0.065,-9.841 c 0.172,-2.657 -1.207,-2.665 -1.617,0 a 66.507,66.507 0 0 0 -0.587,7.838 z"
     id="path14412"
     style="fill:#0f141b" />
  <path
     d="m 104.718,192.224 c -0.441,2.107 -1.011,4.3 -1.335,6.551 -0.321,2.223 -1.534,2.191 -1.567,-0.2 a 29.314,29.314 0 0 1 0.638,-6.123 z"
     id="path14414"
     style="fill:#0f141b" />
  <path
     d="m 224.768,174.991 c 5.641,21.276 7.25,61.134 -25.767,77.986 -13.3,6.788 -37.43,4.657 -47.516,-5 -1.684,-1.612 -0.477,-2.456 1.273,-0.98 10.3,8.685 33.868,9.537 45,3.812 30.711,-15.795 30.01,-53.978 24.615,-74.758 z"
     id="path14416"
     style="fill:#0f141b" />
  <path
     d="m 210.106,180.769 a 71.04,71.04 0 0 0 -3.365,8.9 c -0.592,2.085 -2.042,2.24 -1.567,-0.489 a 39.686,39.686 0 0 1 2.253,-7.838 z"
     id="path14418"
     style="fill:#0f141b" />
  <path
     d="m 189.546,254.401 c 5.573,5.311 15.467,14.13 16.838,16.476 0.876,1.5 -0.136,2.319 -1.306,0.98 -3.279,-3.751 -17.818,-16.55 -18.289,-17.048 z"
     id="path14420"
     style="fill:#0f141b" />
  <path
     d="m 212.133,292.962 c -0.391,-2.81 0.85,-11.1 2.352,-14.044 0.827,-1.619 1.566,-0.878 1.175,0.392 a 57.622,57.622 0 0 0 -2.351,13.781 c -0.085,1.736 -0.925,1.667 -1.176,-0.129 z"
     id="path14422"
     style="fill:#0f141b" />
  <path
     d="m 234.602,291.919 c -0.482,-4.614 -14.964,-37.284 -24.036,-36.446 a 7,7 0 0 0 -4.877,3.1 c -1.884,-1.7 -6.119,-5.667 -7.794,-7.217 l -2.054,1.116 c 0.141,0.116 6.674,6.206 8.756,8.064 1.178,1.051 1.693,0.962 2.638,-0.307 a 5.171,5.171 0 0 1 3.525,-2.357 c 7.493,-0.779 21.122,30.394 21.538,34.377 0.992,9.478 -7.352,17.33 -12.788,17.705 -3.144,0.217 -5.146,-4.432 -5.679,-8.176 -0.362,-2.547 -1.613,-2.384 -1.567,0.2 a 16.179,16.179 0 0 0 0.146,1.845 13.146,13.146 0 0 0 -5.175,-1.117 c -5.877,0 -20.853,6.04 -22.225,3.3 -1.34,-2.677 6,-8.889 11.857,-12.165 a 6.881,6.881 0 0 0 3.525,-5.4 143.3,143.3 0 0 1 3.123,-19.2 l -1.682,-1.808 c -1.655,6.03 -2.63,13.575 -3.432,20.786 a 4.886,4.886 0 0 1 -2.513,3.872 c -4.364,2.441 -15.92,10.091 -13.213,14.918 3.005,5.355 18.047,-1.96 24.559,-1.96 a 10.265,10.265 0 0 1 5.8,1.491 c 1.173,3.553 3.6,6.168 6.677,5.955 6.584,-0.457 16.007,-9.901 14.891,-20.576 z"
     id="path14424"
     style="fill:#0f141b" />
  <path
     d="m 136.755,141.512 c 3.815,12.616 -12.694,32.368 -28.935,38.143 -15.374,5.469 -27.693,3.005 -33.687,-6.629 -0.874,-1.407 -1.352,-1.665 -3.874,-2.548 -3.059,-1.072 -7.08,-3.233 -8.029,-6.368 -2.793,-9.233 9.925,-28.864 23.971,-33.114 18.584,-5.619 46.402,-3.212 50.554,10.516 z m -49.611,-8.316 c -11.477,3.472 -25.588,20.293 -22.583,30.234 0.685,2.264 3.688,4.221 6.361,5.157 2.775,0.971 3.64,1.465 4.879,3.33 8.121,12.219 24.577,8 31.276,5.618 14.737,-5.242 31.051,-23.609 27.542,-35.21 -4.097,-13.548 -32.058,-13.792 -47.475,-9.13 z"
     id="path14426"
     style="fill:#0f141b" />
  <path
     d="m 73.278,163.74 a 9.642,9.642 0 0 0 1,-1.537 c 2.114,-3.583 3.32,-11.175 10.228,-14.383 10.184,-4.73 19.467,1.618 33.546,1.25 4.08,-0.1 10.115,-3.047 11.587,-6.607 0.534,-1.293 1.675,-1.087 1.241,0.326 -1.428,4.649 -7.3,8.285 -12.737,8.426 -14.449,0.355 -23.321,-5.793 -32.758,-1.411 -7.146,3.319 -7.351,12.357 -10.951,15.344 a 3.156,3.156 0 0 1 -3.089,0.648 c -0.771,-0.309 -1.092,-1.052 0.02,-1.168 a 2.463,2.463 0 0 0 1.913,-0.888 z"
     id="path14428"
     style="fill:#0f141b" />
  <path
     d="m 121.603,149.191 c -7.025,14.849 -23.028,24.823 -35.335,22.338 -10.091,-2.036 -8.78,-14.417 -3.013,-21.976 l 3.577,-1.009 c -6.25,5.992 -9.594,18.933 -0.2,20.827 11.128,2.251 24.552,-6.037 32.381,-19.814 z"
     id="path14430"
     style="fill:#0f141b" />
  <path
     d="m 78.026,139.156 a 3.552,3.552 0 0 1 1.526,0.744 c 0.773,0.613 0.138,1.386 -0.66,0.8 -0.273,-0.2 -0.979,-0.719 -1.242,-0.887 -0.657,-0.427 -0.509,-0.813 0.376,-0.657 z"
     id="path14432"
     style="fill:#0f141b" />
  <path
     d="m 88.442,135.969 c -0.183,0.292 -0.643,1.14 -0.821,1.471 -0.518,0.965 -1.518,0.493 -1.035,-0.483 a 3.909,3.909 0 0 1 1.174,-1.461 c 0.809,-0.574 1.138,-0.256 0.682,0.473 z"
     id="path14434"
     style="fill:#0f141b" />
  <path
     d="m 107.173,200.066 c -0.291,-1.466 0.92,-1.671 1.343,-0.305 2.728,8.809 13.416,16.206 19.472,14.219 4.135,-1.356 10.357,-8.936 8.532,-20.417 -0.259,-1.624 0.959,-1.946 1.343,-0.338 2.541,10.638 -2.621,20.9 -9.128,23.027 -7.337,2.411 -19.529,-5.957 -21.562,-16.186 z"
     id="path14436"
     style="fill:#0f141b" />
  <path
     d="m 72.792,119.69 c 3.468,10.891 1.568,19.228 -2.912,20.472 -4.952,1.374 -10.4,-4.558 -13.548,-15.9 -2.765,-9.958 -1.187,-18.5 3.359,-19.762 4.546,-1.262 9.927,5.229 13.101,15.19 z"
     fill="#004b93"
     id="path14440"
     style="fill:#005ca1;fill-opacity:1" />
  <path
     d="m 114.019,105.127 c 4.127,10.673 2.451,19.2 -2.253,20.809 -5.581,1.906 -10.7,-2.231 -15.027,-14.911 -3.342,-9.792 -2.016,-18.5 2.756,-20.13 4.772,-1.63 10.749,4.466 14.524,14.232 z"
     fill="#004b93"
     id="path14442"
     style="fill:#005ca1;fill-opacity:1" />
  <path
     d="m 63.117,137.712 c 2.184,2.194 4.523,3.081 6.763,2.459 2.3,-0.64 3.915,-3.161 4.476,-6.928 -5.026,-5.271 -10.637,-3.465 -11.239,4.469 z"
     fill="#7193c4"
     id="path14444"
     style="fill:#89a2ce;fill-opacity:1" />
  <path
     d="m 104.01,124.201 a 7.372,7.372 0 0 0 7.76,1.8 c 2.289,-0.781 3.852,-3.21 4.387,-6.72 -5.749,-5.461 -11.923,-3.279 -12.147,4.92 z"
     fill="#7193c4"
     id="path14446"
     style="fill:#89a2ce;fill-opacity:1" />
  <path
     d="m 67.643,120.839 c 1.4,4.437 0.729,7.8 -0.979,8.276 -1.888,0.524 -4.013,-1.916 -5.295,-6.533 -1.127,-4.054 -0.579,-7.5 1.155,-7.985 1.734,-0.485 3.837,2.183 5.119,6.242 z"
     fill="#ffffff"
     id="path14448" />
  <path
     d="m 108.043,106.986 c 1.665,4.345 1.105,7.772 -0.668,8.378 -1.96,0.668 -4.3,-1.618 -5.846,-6.154 -1.359,-3.981 -0.933,-7.484 0.865,-8.1 1.798,-0.616 4.126,1.901 5.649,5.876 z"
     fill="#ffffff"
     id="path14450" />
  <path
     d="m 115.094,104.778 c 4.363,11.283 1.768,20.537 -3,22.16 -6.837,2.333 -12.393,-3.8 -16.4,-15.547 -3.6,-10.559 -1.568,-19.669 3.482,-21.39 4.85,-1.654 11.599,3.599 15.918,14.777 z M 99.823,91.896 c -4.008,1.368 -5.36,9.4 -2.131,18.859 2.734,8.015 7.059,16.561 13.755,14.287 3.9,-1.331 5.708,-8.979 1.642,-19.5 C 109.4,95.996 103.768,90.548 99.823,91.896 Z"
     id="path14452"
     style="fill:#0f141b" />
  <path
     d="m 55.28,124.539 c -3.109,-11.19 -0.7,-19.723 4.14,-21.066 4.721,-1.313 10.788,4.2 14.475,15.776 3.759,11.8 1.037,20.488 -3.749,21.817 -5.053,1.408 -11.232,-3.434 -14.866,-16.527 z m 4.676,-19.136 c -3.995,1.111 -5.189,9.423 -2.661,18.528 1.485,5.344 3.521,9.608 5.89,12.33 1.487,1.712 3.812,3.6 6.425,2.873 3.911,-1.087 5.415,-9.185 2.224,-19.2 -3.282,-10.31 -8.373,-15.503 -11.878,-14.531 z"
     id="path14454"
     style="fill:#0f141b" />
  <path
     d="m 117.494,84.248 c 11.952,4.964 26.077,27.686 11.887,41.213 -1.2,1.141 -2.173,0.2 -1.11,-0.979 12.977,-14.426 -2.677,-35.216 -12.281,-38.532 z"
     id="path14456"
     style="fill:#0f141b" />
  <path
     d="m 46.003,109.027 c -6.52,7.738 -4.469,37.339 12.765,40.073 1.633,0.258 1.631,1.546 0,1.437 -17.734,-1.193 -22.39,-31.024 -15.088,-42 z"
     id="path14458"
     style="fill:#0f141b" />
  <path
     d="m 127.481,53.81 c -1.888,-0.881 -6.859,1.568 -8.622,3.526 l -90.918,42.717 c 9.952,13.2 42.164,12.27 59.959,4.9 41.148,-17.049 45.881,-48.204 39.581,-51.143 z"
     id="path14462"
     style="fill:#44bcce" />
  <path
     d="m 120.628,249.235 a 12.9,12.9 0 0 0 -0.979,2.94 l 6.76,16.263 c 0.784,-3.527 2.743,-11.854 2.646,-15.578 -0.106,-3.987 -7.482,-5.515 -8.427,-3.625 z"
     id="path14464"
     style="fill:#44bcce" />
  <path
     d="m 92.313,213.665 c 6.442,-2.463 14.027,5.624 19.888,18.811 2.855,6.425 21.09,45.358 16.166,50.848 -10.013,11.162 -55.615,-11.529 -64.27,-18.517 -11.466,-9.26 -12.149,-15.022 -8.229,-19.1 5.824,-6.068 17.211,-0.328 25.375,-4.409 8.818,-4.415 -0.181,-23.331 11.07,-27.633 z"
     id="path14466"
     style="fill:#44bcce" />
  <path
     d="m 110.898,239.013 c -5.385,-11.8 -11.014,-21.221 -16.851,-18.811 -8.23,3.4 -0.915,20.116 -10.626,26.423 -8.107,5.264 -19.288,-2.387 -26.473,4.536 a 5.231,5.231 0 0 0 -1.665,4.358 c 1.564,2.644 4.372,5.7 8.817,9.292 7.494,6.051 42.676,23.86 58.481,21.284 a 7.281,7.281 0 0 0 2.294,-1.625 c 4.525,-4.912 -11.354,-39.708 -13.977,-45.457 z"
     id="path14470"
     style="fill:#39a4b4" />
  <path
     d="m 127.481,53.812 a 2.423,2.423 0 0 0 -1.039,-0.177 c 2.112,10.428 -4.816,25.778 -18,39.7 22.038,-16.789 24.076,-37.173 19.039,-39.523 z"
     id="path14472"
     style="fill:#39a4b4" />
  <path
     d="m 112.519,29.096 a 34.244,34.244 0 0 1 0.6,34.115 c -1.249,2.272 0.49,3.694 2.515,1.763 11.472,-13.315 5.574,-32.529 -3.115,-35.878 z"
     id="path14474"
     style="fill:#39a4b4" />
  <path
     d="m 127.481,269.312 c 1.54,-6.564 2.848,-13.1 2.808,-16.329 -0.066,-5.29 -9.046,-7.235 -10.564,-4.2 l 0.909,3.528 a 11.9,11.9 0 0 1 0.88,-2.624 c 0.55,-0.717 6.448,0.048 6.532,3.195 0.078,2.987 -1.256,9.223 -2.15,13.221 z"
     id="path14478"
     style="fill:#0f141b" />
  <path
     d="m 91.722,212.397 c 6.288,-2.406 14.434,3.061 21.652,19.3 2.57,5.8 21.945,45.949 15.969,52.611 -10.832,12.076 -57.329,-11.2 -66.392,-18.517 -12.392,-10.008 -12.643,-16.824 -8.229,-21.423 6.307,-6.57 18.048,-0.306 25.93,-4.245 7.938,-3.972 -1.634,-23.187 11.07,-27.726 z m -35.135,34 c -3.479,3.667 -2.784,8.811 8.136,17.632 9.048,7.307 53.679,28.9 62.895,18.627 3.877,-4.325 -10.392,-36.43 -16.336,-49.771 -5.952,-13.391 -13.087,-20.391 -18.614,-18.283 -10.426,3.988 -1.442,22.822 -10.981,27.589 -8.711,4.359 -19.749,-1.432 -25.097,4.209 z"
     id="path14480"
     style="fill:#0f141b" />
  <path
     d="m 114.36,64.432 c 11.139,-13.873 4.753,-34.608 -4.272,-34.84 -7.342,-0.288 -12.04,25.337 -29.773,34.938 -1.472,0.8 -2.029,-0.172 -0.735,-1.029 19.533,-12.921 19.693,-36.347 30.469,-36.152 11.62,0.211 18.027,25.081 5.291,37.867 -1.126,1.13 -1.965,0.441 -0.98,-0.784 z"
     id="path14482"
     style="fill:#0f141b" />
  <path
     d="m 119.603,58.02 c 1.684,-1.871 6.211,-3.865 7.455,-3.289 4.965,2.322 1.216,32.423 -39.541,49.308 -16.552,6.856 -47.036,8.372 -58.254,-3.386 -1.289,-1.352 -2.212,-0.738 -1.028,0.735 10.825,13.471 44.034,11.425 60.122,4.751 42.193,-17.5 47.412,-49.9 39.711,-53.493 -2.1,-0.979 -6.49,0.906 -8.768,3.086 z"
     id="path14484"
     style="fill:#0f141b" />
  <path
     d="m 29.381,52.849 c 2.422,0.838 5.816,1.465 7.892,1.1 5.959,-1.061 8.155,-10.011 12.552,-11.946 4.307,-1.895 10.038,1.946 16.79,-0.359 3.6,-1.228 10.98,-7.581 12.732,-9.5 4.589,-5.032 12.426,-0.186 8.622,6.6 -2.759,4.92 -10.905,13.8 -17.7,16.067 a 26.058,26.058 0 0 1 -17.124,-0.01 c -3.044,5.97 -7.269,9.231 -13.574,10.327 A 18.324,18.324 0 0 1 26.05,62.777 c -6.342,-3.56 -3.2,-12.153 3.331,-9.931 z m -2.423,8.266 c 4.052,2.369 7.44,2.788 12.277,1.948 5.677,-0.988 9.336,-3.731 12.093,-9.113 0.757,-1.477 0.983,-1.521 2.6,-1 a 23.91,23.91 0 0 0 15.725,-0.138 c 6.24,-2.08 14.136,-10.431 16.68,-15.009 2.528,-4.549 -2.457,-7.909 -5.631,-4.43 -1.253,1.375 -9.036,8.663 -13.446,10.169 -7.072,2.413 -13.185,-1.068 -16.575,0.427 -3.577,1.574 -6.193,10.735 -13.063,11.955 -3.079,0.554 -7.559,-0.812 -8.83,-1.313 -3.978,-1.567 -6.134,3.985 -1.83,6.503 z"
     id="path14488"
     style="fill:none" />
  <path
     d="m 68.5,120.59 c 1.7,5.371 0.548,8.94 -1.574,9.528 -2.088,0.579 -4.761,-1.336 -6.41,-7.275 -1.442,-5.192 -0.172,-8.645 1.732,-9.176 2.048,-0.57 4.732,2.105 6.252,6.923 z m -5.714,-4.991 c -0.883,0.245 -1.5,3 -0.458,6.753 1.165,4.2 2.966,6.149 4.062,5.836 0.867,-0.24 1.606,-2.842 0.292,-7.008 -1.316,-4.172 -3.137,-5.79 -3.896,-5.581 z"
     id="path14490"
     style="fill:none" />
  <path
     d="m 100.59,109.438 c -1.379,-4.04 -1.059,-8.49 1.478,-9.356 1.9,-0.652 4.908,1.4 6.849,6.466 2.083,5.434 0.754,9.009 -1.22,9.682 -2.122,0.726 -5.168,-1.113 -7.107,-6.792 z m 2.125,-7.46 c -0.96,0.328 -1.518,3.084 -0.24,6.827 1.422,4.166 3.375,5.941 4.576,5.528 0.939,-0.32 1.616,-3 0.055,-7.07 -1.422,-3.714 -3.42,-5.619 -4.391,-5.285 z"
     id="path14492"
     style="fill:none" />
</svg>
