<?xml version="1.0" encoding="UTF-8"?>
<!-- Created with Inkscape (http://www.inkscape.org/) -->
<svg version="1.1" viewBox="0 0 278.54 342.82" xmlns="http://www.w3.org/2000/svg">
 <g transform="translate(20.973 29.976)" stroke-width="2.1426">
  <path d="m91.347 250.05-11.784-4.4246c-0.21428 1.6348-10.824 24.302-11.435 25.118-0.61068 0.81637-18.311 13.546-21.985 14.158-9.616 1.6027-25.047 8.0241-21.797 12.47 3.576 4.8937 20.528 0.62355 30.099-1.0349 5.8279-1.0092 27.878 10.64 32.673 5.4465 9.3183-10.096-5.9586-24.524-6.1257-29.405-0.0814-2.3697 5.753-14.409 10.347-22.326" fill="#44bcce" data-name="パス 14261"/>
  <path d="m138.99 275.51c-2.3975-0.0729-15.534-6.8392-17.799-13.468 1.1227-6.1514 4.3474-15.84 6.9078-18.251l-14.021 2.314a111.11 111.11 0 0 1-5.1722 18.641c-2.6783 5.3566-7.5784 6.58-7.3514 14.293 0.13686 4.628 10.36 8.9818 19.468 12.251 5.3094 1.9069 15.521 6.8072 20.421 5.9994 4.9001-0.80818 11.435-7.0707 12.524-7.7605 6.3357-3.9596 23.207-1.4998 23.417-6.9421 0.29153-7.572-22.245-6.6057-38.391-7.0707" fill="#44bcce" data-name="パス 14262"/>
  <path d="m91.345 250.05-11.784-4.4246c-0.21427 1.6348-10.824 24.302-11.435 25.118a56.936 56.936 0 0 1-4.7545 3.6104c3.2139 5.7186 12.029 6.1171 19.626 2.6911a12.311 12.311 0 0 1-2.0055-4.6687c-0.0814-2.3697 5.753-14.409 10.347-22.326" fill="#39a4b4" data-name="パス 14263"/>
  <path d="m130.07 271.25c-3.8781-2.5326-7.7455-5.89-8.879-9.2132 1.1227-6.1515 4.3474-15.84 6.9056-18.251l-14.021 2.314a111.01 111.01 0 0 1-5.1722 18.651c-2.6783 5.3566-7.5785 6.58-7.3514 14.293a3.5417 3.5417 0 0 0 0.0648 0.38385c11.934 1.6691 22.232-2.1083 28.458-8.1805" fill="#39a4b4" data-name="パス 14264"/>
  <path d="m209.08 121.92c2.4211-1.457 4.6837-5.4573 3.8374-6.7857-1.2384-1.9477-9.6846-0.22756-13.342 0.95347-4.2188 1.3606-22.249-0.2891-23.824 8.849l-94.061 39.071a11.459 11.459 0 0 0 2.3676 3.5632c-10.636 0.61059-18.821 15.333-20.535 30.389-3.981-2.8775-15.168-4.7008-16.412-3.4581-1.7141 1.714-0.16925 12.819 1.0499 14.634a5.3565 5.3565 0 0 0-2.6826 0.47779c-2.4554 1.2856-3.1754 21.775 24.064 35.07a6.5864 6.5864 0 0 0 4.116 4.9538 8.3048 8.3048 0 0 0 4.6045-1.3435c14.587 4.8337 31.338 3.2525 42.171-3.3274a27.473 27.473 0 0 0 29.459-17.929c5.1208-14.527-1.9477-34.057-12.271-45.918l0.15467-0.0939c23.961 5.9993 43.291 0.95347 52.685-19.069 2.7853-5.9329 5.8343-7.467 13.614-9.8024 17.698-5.3094 22.587-10.398 22.87-14.021 0.44782-5.7315-7.2635-13.331-17.859-16.22" fill="#f5fafd" data-name="パス 14265"/>
  <g fill="#d3d9db">
   <path d="m134.71 173.95c-2.6054-6.3315-38.321-15.172-39.561-15.53l-13.464 5.5922a11.457 11.457 0 0 0 2.3676 3.5632c-0.0486 0-0.0899 8e-3 -0.13686 0.0162 2.6996 3.5439 25.456 11.731 39.553 10.861a15.558 15.558 0 0 0 11.232-4.4994" data-name="パス 14266"/>
   <path d="m127.97 236.3c-17.964 5.513-28.265 5.5516-45.743 0.54419-17.09-4.8959-31.758-13.651-37.472-26.11-1.5513 4.6495 0.57205 22.138 24.779 33.952a6.5885 6.5885 0 0 0 4.116 4.9538 8.3026 8.3026 0 0 0 4.6045-1.3435c14.587 4.8337 31.338 3.2525 42.173-3.3274a27.539 27.539 0 0 0 27.145-13.029c-5.7187 5.7164-16.395 3.3703-19.603 4.3559" data-name="パス 14267"/>
   <path d="m52.548 210.02a104.68 104.68 0 0 1-5.0373-15.553c-2.554 2.2455 0.42855 14.668 0.31064 14.668a9.3247 9.3247 0 0 1 4.7266 0.88488" data-name="パス 14268"/>
  </g>
  <path d="m203.25 68.036c-4.9001 38.933-51.444 63.381-99.107 55.543-68.898-11.343-99.132-41.08-106.19-64.797-5.468-18.392-1.9669-21.426 9.2561-19.058 7.3106 1.5384 14.87-1.2149 20.693-10.07 29.96-45.588 58.298-53.758 99.634-47.78 47.939 6.9313 80.695 46.546 75.709 86.163" fill="#44bcce" data-name="パス 14269"/>
  <path d="m90.938 54.694c-14.525 0-26.547 10.212-55.408 6.535-18.606-2.3697-32.394-9.1168-39.026-20.031-1.7976 2.6718-1.3756 8.0691 1.4548 17.582 7.0535 23.721 37.281 53.458 106.19 64.801 40.495 6.6678 80.179-9.9975 94.2-39.045-35.818-11.172-97.468-29.84-107.4-29.84" fill="#39a4b4" data-name="パス 14270"/>
  <path d="m101.42 64.496c-11.943-1.3263-45.477 3.8567-59.423 12.661-1.6327 3.6768-8.714 34.76-8.6433 40.71 0.28287 23.864 29.335 43.007 61.941 50.371 32.244 7.285 66.571-0.27209 75.146-16.337 7.0321-13.173 8.3048-33.761 8.9862-54.317z" fill="#f5fafd" data-name="パス 14271"/>
  <path d="m33.828 113.22a33.813 33.813 0 0 0-0.47568 4.6388c0.28286 23.864 29.437 43.313 62.044 50.675 32.171 7.2656 66.307-0.54419 74.981-16.535-24.854 16.228-112.62-1.3306-136.55-38.781" fill="#d3d9db" data-name="パス 14272"/>
  <path d="m186.99 36.717c-6.295 0-10.614-9.3933-15.112-10.516-4.9001-1.2256-9.5989 3.981-16.847 2.1426a24.212 24.212 0 0 1-13.07-7.1456c-5.093-5.558-12.251-2.2476-8.3712 5.1037 1.9669 3.726 10.668 11.289 18.889 13.477 7.6405 2.0333 12.905 1.3328 17.784-1.3969 1.0842-0.60412 1.6584-0.42839 2.2497 0.36036a20.063 20.063 0 0 0 12.946 7.4691 28.218 28.218 0 0 0 9.2133-0.33607 62.564 62.564 0 0 0 5.7851-6.4878c-0.68105-2.1083-1.4699-4.1846-2.3569-6.2372a26.446 26.446 0 0 1-11.11 3.5675" fill="#fff" data-name="パス 14273"/>
  <path d="m114.49 184.57c6.3979 5.5815 16.4 10.655 17.698 10.482 1.2984-0.1733 6.0293-4.4394 6.235-11.48-1.6412 6.3271-11.184 8.4762-23.933 0.9963" fill="#d3d9db" data-name="パス 14274"/>
  <path d="m186.91 159.79c-8.1848 19.641-35.285 19.868-50.165 15.997a12.108 12.108 0 0 1 1.5642 5.3693c23.708 5.7851 42.82 0.67295 52.143-19.189 2.7854-5.9329 5.8343-7.467 13.614-9.8003 17.698-5.3094 22.587-10.398 22.87-14.023a6.5414 6.5414 0 0 0-0.0567-1.3798c-5.528 6.5522-17.784 10.158-24.042 11.18a19.965 19.965 0 0 0-15.928 11.844" fill="#d3d9db" data-name="パス 14275"/>
  <path d="m233.14 65.945c-0.90844-0.70696-0.89565-4.071 1.7698-7.3513a5.1016 5.1016 0 0 1 5.9329-1.8791c2.5026 1.5148 0.36604 4.9708-2.4597 6.7128-2.2112 1.3628-4.628 2.9997-5.2408 2.5197" fill="#44bcce" data-name="パス 14276"/>
  <path d="m238.04 80.037c-0.37899-0.98561 1.7891-3.5181 3.9489-4.1524 3.0147-0.88707 4.161 2.8496 1.2856 4.1524-1.5726 0.71587-5.0287 0.55067-5.2408 0" fill="#44bcce" data-name="パス 14277"/>
  <g fill="#0d131a">
   <path d="m101.31 65.533c-11.118-1.232-44.284 3.5845-58.47 12.331-1.8062 4.7138-8.504 34.393-8.4398 39.986 0.28926 24.164 31.085 42.535 59.978 49.362 2.8968 0.68347 2.4876 1.984-0.40733 1.4291-33.386-6.3979-62.091-26.153-62.384-50.78-0.0664-5.635 6.325-32.926 8.5854-40.011a3.7753 3.7753 0 0 1 2.3055-2.7361c13.691-7.8398 42.21-12.68 55.987-12.151z" data-name="パス 14278"/>
   <path d="m181.2 98.257c-0.67943 20.141-2.0205 41.02-9.1211 54.317-7.4649 13.985-33.881 21.278-58.097 19.024-3.0489-0.28263-2.9439-1.802 0.10285-1.6327 26.121 1.4463 48.852-6.2136 55.44-18.564 6.8735-12.873 8.1633-33.211 8.8361-53.075z" data-name="パス 14279"/>
   <path d="m35.467 102.72c-28.488-16.665-36.952-36.135-39.212-43.737-6.0593-20.359-1.367-23.445 11.028-20.831 7.5227 1.5876 14.141-1.8063 19.264-9.599 27.67-42.096 54.866-55.408 101.01-48.734 47.435 6.8564 82.797 46.923 77.597 88.216-2.1083 16.749-11.767 31.081-25.988 41.404v-3.4004c12.59-9.676 21.109-22.784 23.042-38.139 5.063-40.168-28.503-78.298-74.816-85.002-39.047-5.6479-67.707 0.28263-98.612 47.311-5.6244 8.5661-13.359 12.296-21.782 10.539-10.057-2.119-13.391-0.26157-8.0412 17.739 2.1662 7.3063 10.109 25.557 37.14 41.462z" data-name="パス 14280"/>
   <path d="m232.62 66.628a10.458 10.458 0 0 1 1.5834-8.5704 6.04 6.04 0 0 1 7.1863-2.2284c3.1668 1.9155 1.1335 5.7743-2.6439 8.099-3.064 1.8856-5.4637 3.2504-6.1258 2.7061m3.1068-7.3727a8.3241 8.3241 0 0 0-2.0098 5.6651c0.7264-0.26319 4.1224-2.3783 4.1224-2.3783 1.9069-1.1741 4.1652-3.8996 2.4683-4.928a4.071 4.071 0 0 0-4.5809 1.6455" data-name="パス 14281"/>
   <path d="m237.47 80.257c-0.36441-0.94918 1.9477-4.3431 4.1845-5.003 2.119-0.6276 3.4989 0.0818 3.981 1.3798a2.9997 2.9997 0 0 1-2.1427 3.981c-0.98553 0.34255-5.665 0.57658-6.0229-0.35793m1.7141-0.85702a8.1848 8.1848 0 0 0 3.6638-0.31097c0.94918-0.42839 1.1742-1.1592 0.97703-1.6906-0.19678-0.53124-0.77984-0.72883-1.5427-0.51018a6.0679 6.0679 0 0 0-3.0982 2.5111" data-name="パス 14282"/>
   <path d="m177.6 123.02c3.7988-5.8172 18.351-4.6624 22.294-5.9329 4.8551-1.5662 11.437-2.314 12.134-1.3949 0.37899 0.84204-1.9541 4.9966-4.1781 5.663l2.2626 1.142c2.6976-1.9541 5.3137-6.2136 4.131-8.0713-2.1083-3.3124-14.988 0.26562-15.112 0.30611-3.2846 1.0713-15.797 0.2397-21.64 4.9023z" data-name="パス 14283"/>
   <path d="m131.62 170.07a13.22 13.22 0 0 1 7.7842 8.6433c2.6568 10.627-5.1744 17.595-7.2485 17.595-3.8782 0-19.879-10.942-22.973-15.722-1.0713-1.6412 0.11175-2.2562 1.3284-0.81636 4.7266 5.5922 19.573 14.141 21.604 14.242 1.0242-0.26966 7.0321-5.9008 4.7802-14.908-1.0006-4.0067-3.8567-6.6271-8.9668-8.2427z" data-name="パス 14284"/>
   <path d="m83.224 164.81a13.124 13.124 0 0 0 2.8154 3.3575c1.8662 1.367 1.1205 2.5218-1.0885 1.4292a11.069 11.069 0 0 1-4.5616-5.3758z" data-name="パス 14285"/>
   <path d="m63.294 199.1c-3.1796-2.7983-14.032-4.5831-15.53-3.7946-0.84204 0.9342 0.0688 11.971 1.517 13.901h-2.6547c-1.2427-3.1968-2.6504-13.685-0.54419-15.791 1.7998-1.7977 13.113 0.39599 17.629 3.1303z" data-name="パス 14286"/>
   <path d="m75.352 248.62c-34.783-13.546-34.543-38.321-30.639-40.365 3.711-1.9284 11.289 1.8084 13.751 4.0153 1.3777 1.2362 0.49066 2.194-0.95347 1.2256-3.8203-2.5711-9.2454-4.1717-11.57-2.9547-1.4248 1.4163-2.5711 23.324 30.425 35.985 18.694 7.1735 42.272 3.0254 51.11-8.7975 1.1592-1.547 2.2691-0.76527 1.2256 0.81628-8.489 12.856-33.238 17.912-53.366 10.07" data-name="パス 14287"/>
   <path d="m79.655 248.35c-2.674 6.4429-10.07 22.208-10.683 23.016-0.64275 0.84414-18.499 13.869-22.65 14.57-10.432 1.7377-23.2 7.9834-21.122 10.825 3.1646 4.3259 22.283-0.27209 29.077-1.4484 5.7186-0.97914 28.09 10.09 32.083 5.7658 8.6027-9.3203-6.2307-23.676-6.4042-28.662-0.0986-2.8882 6.085-15.15 9.9675-21.981l2.5711 0.0243c-4.928 8.4997-10.445 20.042-10.381 21.917 0.15427 4.4523 16.085 19.946 6.16 30.699-5.4315 5.8772-28.283-6.3401-33.761-5.3758-12.266 2.1297-27.614 5.9457-31.516 0.61059-4.5424-6.2136 11.092-12.459 22.971-14.439 3.2739-0.54419 19.817-12.586 20.933-13.741 0.7349-1.1549 8.1826-16.712 10.619-22.53z" data-name="パス 14288"/>
   <path d="m65.618 288.03c1.2706-3.0683 4.6966-7.1628 7.1478-7.9641 2.1855-0.71587 2.5861 0.32554 0.8849 1.3606a24.197 24.197 0 0 0-6.8071 7.2164c-1.0713 1.8555-2.0398 1.3542-1.2256-0.61302" data-name="パス 14289"/>
   <path d="m115.01 246.97a113.1 113.1 0 0 1-5.1615 18.249c-2.7083 5.4144-7.4542 6.5671-7.242 13.796 0.0899 3.0575 6.4064 6.8564 18.776 11.3 2.7147 0.97274 15.142 6.745 19.896 5.9437 4.5659-0.76041 10.48-6.5714 12.144-7.6149 6.0208-3.7624 22.776-2.2262 22.926-6.0957 0.24619-6.4557-24.077-5.6008-37.378-5.9993-2.7382-0.081-15.303-6.55-18.426-13.391l1.4484-3.3082c0.47536 6.7386 14.75 14.356 17.017 14.431 16.498 0.48184 40.305-0.71101 39.955 8.3026-0.26157 6.8178-18.024 3.9981-24.368 7.9641-1.0391 0.64299-7.6577 7.4991-12.933 8.3712-5.4251 0.90626-15.23-4.3581-21.1-6.4665-14.006-5.0287-20.295-9.2496-20.421-13.477-0.2397-8.2083 5.4808-9.961 7.8462-14.694a86.647 86.647 0 0 0 4.4738-16.415z" data-name="パス 14290"/>
   <path d="m129.13 244.6c-2.9311 2.7598-7.7733 15.791-7.6234 20.556 0.0648 2.179-1.4441 2.2668-1.4998 0.0648a48.404 48.404 0 0 1 5.785-20.008z" data-name="パス 14291"/>
   <path d="m138.86 287.15a24.509 24.509 0 0 0-7.2849-5.5129c-1.2856-0.64298-1.2534-1.8127 0.6106-1.2856a16.247 16.247 0 0 1 8.2362 6.2628c0.81637 1.9733-0.54419 2.1105-1.5662 0.54419" data-name="パス 14292"/>
   <path d="m138.38 182.52c22.973 5.8193 43.234 1.699 53.298-19.74 2.5391-5.4144 5.0824-7.0256 12.856-9.3589 18.319-5.4958 23.871-9.9203 24.299-15.427 0.75636-9.6868-18.546-22.697-36.347-17.154-1.4784 0.46078-0.98562 2.0076 0.51017 1.6326 17.119-4.2852 33.495 7.8248 32.891 15.575-0.19273 2.4705-3.3253 7.4606-22.129 13.102-7.7712 2.3312-11.238 3.921-14.259 10.357-10.889 23.196-34.008 22.862-51.487 18.489z" data-name="パス 14293"/>
   <path d="m120.7 243.97a26.453 26.453 0 0 0 28.186-17.278c4.7352-13.434-1.442-31.694-10.861-43.424l0.2397-3.501c11.3 12.946 18.814 32.538 13.477 47.682-4.4373 12.59-18.174 21.855-34.71 18.583z" data-name="パス 14294"/>
   <path d="m96.997 95.943c5.785 9.8689 27.545 10.015 33.761 4.6281 1.5748-1.3649 2.6075-0.63003 1.2256 1.0199-7.0707 8.4419-32.403 6.6014-36.553-5.0373-0.64298-1.8105 0.64299-2.1854 1.5662-0.61303" data-name="パス 14295"/>
   <path d="m178.06 117.86c-7.6234 3.336-19.264-1.2856-20.693-11.095-0.28748-1.9626 1.202-2.1319 1.6327-0.34093 2.1983 9.1083 14.18 11.999 19.296 8.5855z" data-name="パス 14296"/>
  </g>
  <path d="m215.87 69.364c13.046-16.676 7.8419-46.968-2.5455-46.319-6.3806 0.39843-13.07 32.06-46.966 36.347-3.1604-3.0403-79.367-13.273-75.283-4.4245 5.1744 8.9861 37.573 36.756 74.876 42.473 37.204 5.7036 57.906-11.999 55.543-25.39a3.9746 3.9746 0 0 0-5.6244-2.689" fill="#44bcce" data-name="パス 14297"/>
  <path d="m178.2 136.78c-1.5298 7.8848-10.15 10.642-16.2 10.347 0 6.5328-3.2675 18.105-12.251 19.466-22.78 3.4517-54.718-20.509-53.092-37.436 1.4056-14.658 29.33-25.801 50.643-20.968 14.497 3.2889 32.75 19.069 30.903 28.589" fill="#ffdb4e" data-name="パス 14298"/>
  <path d="m165.95 141c0.31259-3.9102-3.8995-7.4799-8.9176-5.9993-17.008 5.0522-34.496 5.0908-49.032-4.5231a20.449 20.449 0 0 1-11.343-1.3327c-1.6241 16.927 30.314 40.887 53.092 37.438 8.9862-1.3606 12.251-12.933 12.251-19.468a23.47 23.47 0 0 0 11.913-2.9997c-3.4024 1.6027-8.099-1.1034-7.964-3.1303" fill="#dabd44" data-name="パス 14299"/>
  <path d="m119.2 135.98c3.5525 6.55 20.858 24.248 28.784 22.752 4.7352-0.89346 6.2543-10.456 0.81629-21.713a60.422 60.422 0 0 1-29.6-1.0391" fill="#cd88a6" data-name="パス 14300"/>
  <path d="m151.18 155.93c1.8149-3.7881 1.4742-10.908-2.389-18.902a60.422 60.422 0 0 1-29.6-1.0391 63.998 63.998 0 0 0 11.377 13.153 20.312 20.312 0 0 1 20.612 6.7878" fill="#b17690" data-name="パス 14301"/>
  <path d="m95.159 185.52-25.049 38.391c-6.0807 0.97922-8.7119 3.9467-7.8955 8.7119 0.19711 1.1527 4.6259 2.6354 7.2142 2.614-1.3327 5.1894-0.34068 13.149 4.221 14.403 2.1598 0.59116 7.5891-3.2439 9.9374-3.9489 24.981-7.4991 34.033-19.8 34.033-33.211 0-10.017-12.524-26.273-22.463-26.956" fill="#f5fafd" data-name="パス 14302"/>
  <path d="m63.446 208.57a27.657 27.657 0 0 0 5.9415 15.474c-5.5601 1.097-7.9555 4.0067-7.1735 8.5704 0.19711 1.1528 4.6259 2.6354 7.2142 2.6141-1.3327 5.1894-0.3385 13.151 4.2231 14.403 2.1576 0.59359 7.587-3.2438 9.9374-3.9488 30.916-9.2733 34.665-25.131 33.999-34.17-14.259 17.154-49.109 19.605-54.14-2.9482" fill="#d3d9db" data-name="パス 14303"/>
  <g fill="#0d131a">
   <path d="m214.86 71.235c2.314-2.1983 5.2387-1.0863 5.6051 0.98991 2.1426 12.151-16.993 29.902-54.356 24.175-35.717-5.4658-66.303-30.92-73.267-40.275-1.6005-2.1426-2.9225-1.9283-1.6326 0.51018 5.0372 9.4939 37.496 36.403 74.432 42.066 37.815 5.785 59.92-11.356 57.075-27.464a4.7138 4.7138 0 0 0-6.4278-3.3682z" data-name="パス 14304"/>
   <path d="m202.7 77.701c26.536-8.8297 22.452-53.883 10.683-53.617-5.1015 0.1158-14.57 32.958-46.01 35.612-1.7312 0.14576-1.742-1.0713-0.0648-1.3263 32.264-4.9022 37.573-36.894 46.013-37.029 15.305-0.24618 19.536 50.114-10.312 57.653-1.6712 0.42839-1.9477-0.74745-0.3061-1.2856" data-name="パス 14305"/>
   <path d="m95.225 129.03c1.4698-15.292 29.596-27.348 52.344-22.189 13.203 2.9997 34.168 18.587 31.925 30.155-1.6006 8.2426-10.456 11.142-16.475 11.204-0.33202 7.2121-4.0238 18.386-13.136 19.768-23.301 3.5332-56.351-21.229-54.658-38.936m2.4704 0.23565c-1.532 15.954 29.568 39.696 51.896 36.307 8.1248-1.232 11.049-11.757 11.339-17.505 0.0899-1.7634 0.31745-1.9455 2.0055-1.9562 5.288-0.0324 12.873-2.4812 14.238-9.5197 1.6413-8.459-15.523-24.062-30.108-27.372-21.096-4.7844-48.059 6.37-49.372 20.046" data-name="パス 14306"/>
   <path d="m165.13 139.78a6.0529 6.0529 0 0 0-7.8035-3.7624c-22.352 6.8928-40.765 2.6375-49.034-4.4738a6.4407 6.4407 0 0 1-1.7698-7.1478c0.90415-1.9883 1.9069-1.2106 1.3627 0.40895a5.6222 5.6222 0 0 0 1.7012 4.9944c7.8377 6.7385 25.482 10.364 47.17 3.9231a7.3385 7.3385 0 0 1 9.8025 5.8536c0.0648 1.9927-1.0284 2.0655-1.4291 0.2146" data-name="パス 14307"/>
   <path d="m120.51 136.18c4.2189 6.9078 20.477 22.789 27.276 21.529 3.9553-0.74583 5.2237-10.055-0.22917-20.865l2.0805-0.50775c6.3743 12.766 4.0131 22.862-1.3177 23.783-9.7339 1.7012-27.8-18.589-30.391-24.349z" data-name="パス 14308"/>
   <path d="m158.63 116.18a4.4095 4.4095 0 0 1-0.1069-0.83564c0-1.0113 1.0006-1.0242 1.0605-0.0243a2.869 2.869 0 0 1-0.0875 0.84203c-0.23971 0.8699-0.70696 0.84204-0.8571 0.0243" data-name="パス 14309"/>
   <path d="m149.24 113.74a7.3984 7.3984 0 0 0-1.3606-1.5491c-1.1956-1.0713-2.0441-0.0486-0.91492 0.96416a16.425 16.425 0 0 0 1.5898 1.2727c0.78633 0.51828 1.0863 0.0486 0.68591-0.68752" data-name="パス 14310"/>
   <path d="m85.18 168.6c-15.176-0.68753-25.621 30.142-18.812 47.995 4.0045 10.499 13.348 15.354 18.296 15.947 4.5917 0.5531 12.794-3.4946 15.532-7.5377 1.1934-1.7612 2.3783-1.0413 1.2256 0.88488a19.793 19.793 0 0 1-17.22 8.984c-5.4336-0.64299-15.977-6.2865-20.355-17.63-7.3513-19.069 3.2139-49.111 19.127-50.915z" data-name="パス 14311"/>
   <path d="m73.308 250.93c-7.2677-1.9969-7.0106-17.764-2.0419-20.141 1.3113-0.6276 1.7527 0.10933 0.74988 1.0885-2.9654 2.8968-3.1689 15.365 1.9091 16.757 1.4848 0.42839 7.1928-3.291 9.3632-3.9403 22.09-6.6271 33.288-17.464 33.288-32.216 0-8.8062-10.927-23.937-20.123-26.003-2.1919-0.49318-1.9754-1.8856 0.27209-1.4998 10.54 1.8212 22.395 17.188 22.395 27.498 0 15.78-11.435 27.64-35.231 34.218-2.5518 0.70696-7.7134 5.0201-10.578 4.2402" data-name="パス 14312"/>
   <path d="m69.492 236.28c-2.6161 0-7.9598-1.2041-8.4355-3.4496-1.0499-4.9473 1.8684-8.504 7.8955-9.766l1.322 1.8813c-5.1423 0.82916-7.7541 3.0382-7.0492 7.4049a12.044 12.044 0 0 0 6.6314 1.8255z" data-name="パス 14313"/>
  </g>
  <rect x="-20.973" y="-29.976" width="278.54" height="342.82" fill="#fff" opacity="0" data-name="長方形 26523"/>
 </g>
</svg>
