<?xml version="1.0" encoding="UTF-8"?>
<svg version="1.1" viewBox="0 0 219.48 238.97" xmlns="http://www.w3.org/2000/svg">
 <path transform="translate(-542.31 -571.26)" d="m656.22 756.25c-6.428 6.1-23.84 14.559-30 13.61-5.971-0.92-3.817-11.852-5.266-15.752-1.336-3.592-10.86-6.842-12.06-10.246-1.577-4.475 7.489-11.205 28.852-9.252 3.345 0.279 20.001 19.881 18.474 21.64z" fill="#39a4b4"/>
 <path transform="translate(-550.94 -590.4)" d="M700.056,775.564l-15.673,3.467c-1.37.939-6.365,7.147-9.342,11.3a12.624,12.624,0,0,0-1.685.609c-21.845,9.8-49.964,19.584-45.557,25.707,2.656,3.69,19.794.963,23.814,2.447,7.734,2.855,8.311,7.938,13.027,8.972,3.457.758,8.632-1.3,13.656-9.694,4.573-7.643,8.122-9.167,13.007-15.386,3.6-4.58-.2-9.64-5.911-11.94A105.292,105.292,0,0,1,700.056,775.564Z" fill="#44bcce"/>
 <path transform="translate(-580.49 -590.4)" d="m714.94 791.05a105.29 105.29 0 0 1 14.664-15.486l-15.673 3.467c-1.37 0.939-6.364 7.147-9.342 11.3a12.62 12.62 0 0 0-1.685 0.609c-3.809 1.71-7.81 3.418-11.795 5.107 4.427 7.307 19.269 10.139 30.814 1.327-0.898-2.625-3.596-4.961-6.983-6.324z" fill="#39a4b4"/>
 <path transform="translate(-486.31 -531.74)" d="M534.062,650.229c-3.5-.81-13.084-1.862-19.54-.816-14.249,2.309-29.344,15.738-26.257,21.614,2.641,5.026,17.505,5.1,21.789,5.282-3.71,3.55-4.881,7.171-3.063,9.2,3.272,3.642,16.7-1.292,25.443-7.544,5.7.408,20.965,1.02,25.239-1.02Z" fill="#f5fafd"/>
 <path transform="translate(-488.76 -531.97)" d="M536.514,650.455a56.115,56.115,0,0,0-7.172-.993c-.118,12.422-17.088,24.266-36.19,24.022,5.148,2.822,15.831,2.9,19.355,3.051-3.71,3.55-4.881,7.171-3.063,9.2,3.272,3.642,16.7-1.292,25.443-7.544,5.7.408,20.965,1.02,25.239-1.02Z" fill="#d3d9db"/>
 <path transform="translate(-564.48 -469.84)" d="m774.86 515.54c-6.432-1.813-17.226 13.867-19.454 17.4-0.993-4.357-2.99-7.863-5.989-7.612-4.885 0.408-9.121 22.025-12.009 23.653-3.257 1.835-31.549 25.692-40.1 34.052-12.531 8.134-40.759 30.592-40.759 36.091a13.745 13.745 0 0 0 3.777 8.722c-3.845 12.429 7.576 27.519 20.19 27.369l0.164-0.06a32.125 32.125 0 0 0 20.75 3.577c19.666-3.084 37.074-14.882 46.331-34.615 5.572-11.876 7.251-34.968 2.366-37.109a2.507 2.507 0 0 0-1.64-0.054 21.292 21.292 0 0 0 0.9-2.807c12.879-7.519 22.613-16.7 26.895-25.38 11.453-23.202 5.041-41.407-1.422-43.227z" fill="#f5fafd"/>
 <path transform="translate(-564.48 -539.19)" d="M670.9,700.848a6.767,6.767,0,0,1-6.793-.88c6.6.956,11.144-6.053,10.914-12.935-.091-2.724.055-3.236,2.519-5.914,1.8-1.959,8.343-10.087,8.574-13.661.195-3-1.425-2.676-2.85-1.86a17.441,17.441,0,0,1-6.419,1.976c-10.568,8.588-20.3,17.658-20.3,20.886a13.746,13.746,0,0,0,3.777,8.722c-3.845,12.429,7.576,27.519,20.19,27.369l.164-.059a32.126,32.126,0,0,0,20.75,3.577,60.64,60.64,0,0,0,41.811-26.586c-8.665,7.666-24.923,18.745-42.086,19.977C685.718,722.567,675.272,713.593,670.9,700.848Z" fill="#d3d9db"/>
 <path transform="translate(-600.95 -480.76)" d="m818.6 538.95c-3.227 35.545-34.1 61.514-79.472 69.676-5.313 0.956-4.579 3.976-1.221 3.976 5.343 0 10.533 3.976 19.693 5.505 13.412 2.239 19.646-6.458 25.035-11.317 2.494-2.248 4.885-1.534 6.843 2.718 0.086-5.994-0.8-10.679-2.873-11.588a2.507 2.507 0 0 0-1.64-0.054 21.292 21.292 0 0 0 0.9-2.807c12.878-7.519 22.613-16.7 26.895-25.38 5.998-12.165 7.086-22.952 5.84-30.729z" fill="#d3d9db"/>
 <path transform="translate(-518.2 -485.23)" d="m650.62 550.8c6.815 6.448 12.5 16.89 12.721 22.328 0.647 16.2-14.833 34.557-34.5 47.306-27.943 18.113-44.308 14.245-59.595-7.646a161.07 161.07 0 0 1-12.459-21.105c-3.589-7.357 77.753-53.625 93.833-40.883z" fill="#f5fafd"/>
 <path transform="translate(-518.2 -489.87)" d="m618.73 558.6c-28.667 10.419-64.349 32.793-61.944 37.721 0.968 2.021 2.143 4.272 3.448 6.627 25.589-0.417 48.94-13.777 58.496-44.348z" fill="#d3d9db"/>
 <path transform="translate(-544 -539.19)" d="M662.784,665.6c-6.347,3.633-13.52.678-21.219,6.5-4.045,3.059-18.242,1.912-22.822,4.053-2.1.984-2.672,4.817-6.183,6.882-.061.036-.141.061-.209.092,11.176,5.453,24.344,2.9,42.291-8.733a114.143,114.143,0,0,0,10.959-8.062C665.342,664.575,663.995,664.907,662.784,665.6Z" fill="#d3d9db"/>
 <g fill="#0d131a">
  <path transform="translate(-592 -487.51)" d="M726.974,553.516c5.984,6.4,11.082,15.959,11.3,21.334.528,13.21-9.448,27.786-20.66,37.161-1.607,1.344-2.344.435-.814-.968,12.9-11.827,20-24.869,19.574-35.6-.182-4.565-4.866-13.875-11.092-20.408Z"/>
  <path transform="translate(-517.81 -523.19)" d="M557.791,630.707A162.925,162.925,0,0,0,569.5,650.3c15.5,22.2,32.14,24.434,57.988,7.992,1.476-.938,1.979.092.611,1.02-21.651,14.681-41.5,18.891-60.35-8.105a160.355,160.355,0,0,1-11.911-20.694Z"/>
  <path transform="translate(-484.97 -531.06)" d="M509.157,674.862c-2.833-.161-19-.049-21.538-4.885-2.627-5,11.45-18.169,25.69-20.476,5.4-.875,13.34-.236,17.638.492l-1.454-1.851a65.238,65.238,0,0,0-17.021-.153c-14.624,2.369-30.477,16.131-27.02,22.71,2.671,5.085,16.632,5.57,22.517,5.812Z"/>
  <path transform="translate(-501.19 -551.46)" d="M571.232,697.936c-6.444,1.644-21.337.818-23.662.661-7.747,5.467-22.53,11.927-26.511,7.239-2.9-3.416.033-9.683,8.7-14.07,1.351-.684,1.825.266.56,1.02-6.927,4.131-9.971,9.576-7.866,11.915,2.562,2.856,14.734-.9,23.939-7.325.667-.466.767-.487,1.861-.415a144.371,144.371,0,0,0,17.485.153Z"/>
  <path transform="translate(-603.24 -476.87)" d="M740.212,587.239c10.956-10.015,33.547-28.982,36.344-30.557,3.14-1.77,7.583-23.213,11.691-23.556,4.915-.444,7.338,12.752,5.431,19.152-.4,1.356.46,1.664,1.018.306,3.206-7.8-.286-22.573-6.87-22.021-5.622.47-9.006,22.174-12.263,24.723-2.118,1.657-20.5,16.306-32.312,26.814Z"/>
  <path transform="translate(-600.97 -468.54)" d="M792.113,532.715c3.252-5.213,13.551-19.27,19.023-17.726,5.608,1.579,12.421,18.857.936,42.128-8.533,17.291-39.774,37.74-75.526,40.822-1.794.154-1.59,1.293.2,1.224,31.4-1.224,67.42-21.176,77.346-41.291,11.49-23.283,5.342-42.972-2.443-45.114-6.861-1.888-16.455,12.308-20.183,18.09Z"/>
  <path transform="translate(-564.04 -555.83)" d="M657.038,706.567c.948,5.68,6.545,11.02,11.373,10.607,4.684-.426,8.779-8.076,7.895-14.9-.206-1.587.9-1.834,1.145-.229,1.26,8.135-2.842,16.354-8.816,16.9-5.552.5-11.677-5.384-13.017-11.508Z"/>
  <path transform="translate(-566.38 -566.19)" d="m684.17 752.32c-15.8 1.172-27.082-16-22.49-29.011l1.287 1.081c-3.637 11.717 7.091 26.549 19.438 26.383z"/>
  <path transform="translate(-580.76 -530.63)" d="m692.23 713.24c-1.116-1.15-0.284-1.808 0.992-0.688 4.692 4.115 13.622 7.871 24.381 6.186a60 60 0 0 0 45.745-34.174c5.716-12.185 6.8-34.29 2.759-36.06-2.728-1.2-10.407 7.383-12.256 10.549-0.8 1.362-1.744 1.267-0.966-0.459 1.441-3.2 9.547-13.677 13.841-11.8 5.9 2.587 3.444 27.7-1.68 38.615a62.076 62.076 0 0 1-47.17 35.173c-10.481 1.645-20.307-1.841-25.646-7.342z"/>
  <path transform="translate(-622.96 -537.97)" d="M784.756,662.415c4.07,2.317,8.264,6.4,9.248,7.959,1.046,1.653.309,1.945-.814.713a38.846,38.846,0,0,0-10.433-7.932Z"/>
  <path transform="translate(-568.06 -579.29)" d="m676.77 763.05c-8.32 1.835-15.293-4.534-11.373-11.47l0.83 1.457c-2.586 4.354 2.3 9.554 8.736 8.976z"/>
  <path transform="translate(-559.71 -585.09)" d="M646.443,771.728c1.8-4.1,6.355-7.233,8.243-7.6,1.157-.222,1.477.585.509.918-2.6.89-6.556,4.7-7.837,7.188C646.813,773.3,645.884,773,646.443,771.728Z"/>
  <path transform="translate(-541.27 -570.52)" d="M655.862,756.037c-6.943,6.59-24.12,15.37-30.989,14.375-6.733-.974-4.532-13.2-5.877-16.822-1.219-3.279-10.968-6.5-12.289-10.246-1.859-5.278,7.251-12.541,30.068-10.26l-.142,1.557c-20.873-1.909-29.349,4.51-28.045,8.213,1.093,3.1,10.578,6.26,12.055,10.233,1.53,4.117-.527,14.454,4.654,15.252,5.715.883,21.854-6.865,28.624-12.755Z"/>
  <path transform="translate(-549.96 -602.19)" d="M672.689,803.445c-18.3,8.211-48.951,19.377-45.243,24.536,2.262,3.144,19.6.749,23.451,2.17,7.728,2.852,8.662,8.008,12.924,8.942,1.5.33,6.861.626,12.819-9.333,4.588-7.666,8.479-9.629,13.064-15.467,3.181-4.051-.379-8.713-5.732-10.82l1.069-1.458c6.084,2.535,10.01,8.1,5.989,13.22-4.567,5.814-8.779,7.853-13.129,15.523-5.725,10.093-11.607,10.888-14.655,10.22-5.12-1.123-5.359-6.388-13.052-9.227-4.047-1.49-21.17,1.575-24.247-2.7-5.416-7.526,19.936-15.446,46.051-27.171a14.111,14.111,0,0,1,2.635-.878Z"/>
  <path transform="translate(-589.9 -593.91)" d="M723.787,783.187c-1.708,1.17-9,10.314-11.051,13.563-.821,1.3-1.769.858-1.068-.5,1.564-3.023,6.891-10.019,9.732-13.114Z"/>
  <path transform="translate(-599.98 -590.91)" d="m749.72 776.66a109.08 109.08 0 0 0-15.113 15.675c-1 1.373-1.959 0.87-1.107-0.535 1.9-3.129 7.71-9.8 13.147-14.66z"/>
  <path transform="translate(-582.35 -614.04)" d="m695.24 836.21c1.578-5.455 5.121-8.742 7.277-9.482 1.51-0.518 1.582 0.362 0.458 1.02a17.292 17.292 0 0 0-6.615 8.819c-0.481 1.545-1.575 1.217-1.12-0.357z"/>
  <path transform="translate(-518.69 -523.32)" d="M559.4,630.831c2.42,7.315,11.186,23.289,20.176,22.6l-.662,1.325c-10.635.153-19.226-17.645-21.167-23.96Z"/>
  <path transform="translate(-642.88 -528.52)" d="m827.72 645.63a18.24 18.24 0 0 0 1.026-3.617l-1.9 1.349a19.307 19.307 0 0 1-1.1 2.937z"/>
 </g>
 <path transform="translate(-561.01 -501.93)" d="m667.17 596.49c-2.726-7.455-8.149-12.427-12.572-11.8a75.5 75.5 0 0 1-5.525 8.628 24.112 24.112 0 0 0 1.566 8.95c3.015 8.246 9.307 13.425 13.575 11.859 4.779-1.754 5.883-9.63 2.956-17.637z" fill="#005ca1"/>
 <path transform="translate(-527.75 -522.11)" d="m590.88 632.32c-0.389-0.676-0.8-1.316-1.214-1.936a47.336 47.336 0 0 1-12.37-2.206 26.241 26.241 0 0 0 3.547 9.6c3.841 6.665 8.827 11.345 11.909 9.562 2.603-1.501 2.222-7.916-1.872-15.02z" fill="#005ca1"/>
 <path transform="translate(-570.31 -519.68)" d="m669.63 631.7a5.533 5.533 0 0 0 3.881 0.182c2.767-1.015 4.293-4.091 4.527-8.05-5.77-3.006-10.484 2.126-8.408 7.868z" fill="#89a2ce"/>
 <path transform="translate(-536.75 -533.09)" d="m597.07 657.47c1.745 1.207 3.382 1.613 4.681 0.862 1.227-0.71 1.781-2.52 1.606-4.971-3.645-3.432-7.92-0.388-6.287 4.109z" fill="#89a2ce"/>
 <path transform="translate(-566.9 -508.1)" d="m669.31 603.34c1.382 3.781 1.045 6.939-1.019 7.7-1.842 0.676-4.267-1.4-5.672-5.241-1.411-3.858-0.97-7.016 0.968-7.727 1.82-0.672 4.327 1.45 5.723 5.268z" fill="#fff"/>
 <path transform="translate(-532.49 -523.31)" d="M591.283,631.387c-1.176-.141-2.437-.349-3.731-.611-.169,1.208.34,3.168,1.524,5.43,1.706,3.26,3.782,5.147,4.881,4.57,1.23-.646.787-3.456-.892-6.665A15.622,15.622,0,0,0,591.283,631.387Z" fill="#fff"/>
 <g fill="#0d131a">
  <path transform="translate(-567.91 -497.41)" d="M665.083,574.885a31.074,31.074,0,0,1,10.017,14.1c4.251,11.626,1.1,21.625-2.239,24.724-1.15,1.067-1.786.441-.865-.714,4.023-5.043,4.549-14.44,1.339-23.217a30.5,30.5,0,0,0-9.367-13.548Z"/>
  <path transform="translate(-551.45 -518.94)" d="M629.706,621.345a32.428,32.428,0,0,0,2.83,6.077c.9,1.493.076,2.013-.916.65a26.2,26.2,0,0,1-3.173-6.149Z"/>
  <path transform="translate(-560.1 -501.24)" d="m653.91 583.17c4.76-0.43 10.256 4.619 13.087 12.36 2.613 7.146 2.513 16.463-3.42 18.64-4.483 1.642-11.679-3.137-14.912-11.982a24.871 24.871 0 0 1-1.552-7.763l1.861-2.631a22.839 22.839 0 0 0 1.493 9.513c2.973 8.134 8.931 12.736 12.573 11.394 4.64-1.7 5.038-9.665 2.492-16.631-2.98-8.151-8.687-12.532-12.626-11.085z"/>
  <path transform="translate(-527.02 -522.6)" d="M589.884,630.732q.544.821,1.043,1.686c4.123,7.153,4.715,14.228,1.482,16.1-3.624,2.093-9.475-2.937-13.313-9.6a26.469,26.469,0,0,1-3.383-9.249l1.719-.43a26.988,26.988,0,0,0,3.353,8.647c3.782,6.562,8.4,10.692,10.843,9.276,2.087-1.208,1.715-7.236-2.158-13.957h0c-.459-.8-.936-1.549-1.425-2.253Z"/>
  <path transform="translate(-549.61 -493.18)" d="m625.4 595.61a3.977 3.977 0 0 0 1.628-0.357c3.642-2.285 16.472-17.065 19.285-28.5 0.353-1.433 1.391-1.282 1.119 0.153-2.548 13.484-16.847 27.862-19.685 29.643a4.342 4.342 0 0 1-2.6 0.077c-1.112-0.405-0.713-1.071 0.253-1.016z"/>
  <path transform="translate(-526.56 -521.93)" d="M578.208,627.791c4.427,1.18,8.778,2.084,11.264,1.866,1.342-.118,1.757.591.356,1.02-2.524.773-8.766-.122-15.113-2.141Z"/>
  <path transform="translate(-517.81 -523.19)" d="m561.91 638.34a50 50 0 0 1-3.4-7.638l-2.675-0.189c1.264 2.594 2.705 5.4 4.275 8.258z"/>
 </g>
 <path transform="translate(-488.24 -431.84)" d="m623.21 433.39c-4.858-0.375-7.633 8.717-16.334 9.482-10.883 0.956-23.814-7.341-39.079-7.8-15.028-0.452-30.562 3.617-45.9 13.209-27.584 17.253-35.408 51.566-26.185 69.927 11.315 22.525 33.586 27.755 64.236 12.64 15.878-7.831 23.686-17.354 27.269-25.51 11.7 1.721 31.239-2.351 36.6-7.106 12.249-10.852 12.74-63.813-0.607-64.842z" fill="#44bcce"/>
 <path transform="translate(-570.23 -465.57)" d="M671.821,525.328c.407,5-1.425,12.336-2.85,13.763.035.056.094.125.136.185.032-.071.07-.144.1-.215,11.7,1.721,31.239-2.351,36.6-7.106,3.23-2.863,7.022-8.666,8.854-25.794C709.17,523.289,679.217,526.81,671.821,525.328Z" fill="#39a4b4"/>
 <path transform="translate(-495.66 -469.95)" d="M529.423,534.58c-4.179,6.794-11.8,10-18.682,6.24-4.61-2.518-2.893-8.465,1.832-6.423,5.19,2.243,9.464.1,12.479-5.836,1.665-3.279,3.4-4.038,7.683-3.267,6.4,1.151,10.267.132,17.594-7.515,3.39-3.538,8.687-2.9,6.31,3.059-4.349,10.893-16.092,15.618-26.2,13.314A.746.746,0,0,0,529.423,534.58Z" fill="#fff"/>
 <path transform="translate(-534.7 -531.41)" d="m593.96 675.49c-5.429-6.572 3.66-19.193 10.38-22.786 13.736-7.346 33.927-4.9 37.1 2.37 4.2 9.652-8.625 27.527-20.38 30.433-4.859 1.2-9.385 0.072-15.393-6.448a5.027 5.027 0 0 0-3.231-1.427c-1.141 0.086-6.645 0.071-8.476-2.142z" fill="#ffdb4e"/>
 <path transform="translate(-535.36 -541.91)" d="m610.11 678.87c-2.1 0.984-2.672 4.817-6.183 6.882-1.745 1.027-6.4 0.264-10.21-1.175a6.949 6.949 0 0 0 0.9 1.4c1.832 2.217 7.335 2.229 8.472 2.141a5.027 5.027 0 0 1 3.231 1.427c6.008 6.52 10.534 7.65 15.393 6.448 9.816-2.426 20.374-15.289 21.143-25.088a20.382 20.382 0 0 0-9.923 3.907c-4.046 3.064-18.244 1.917-22.823 4.058z" fill="#dabd44"/>
 <path transform="translate(-550.05 -545.34)" d="m626.75 681.67a11.874 11.874 0 0 0-1.26 6.98c0.32 3.366 3.378 7.761 6.666 7.952 8.662 0.5 15.475-9.675 15.467-18.286a3.131 3.131 0 0 1-0.71 0.444c-6.856 2.454-14.58 1.466-20.163 2.91z" fill="#b17690"/>
 <path transform="translate(-555.75 -455.48)" d="m637.71 484.38c6.96 7.822 9.372 24.717 6.191 35.138-0.82 2.686 1.017 4.869 2.315 2.651 6.259-14.757-0.254-36.568-8.506-37.789z" fill="#39a4b4"/>
 <path transform="translate(-551.94 -478.11)" d="m652.26 533.49a1.7 1.7 0 0 0-1.135-0.244c3.424 2.156-2.65 28.4-21.623 40.7 28.505-16.957 25.091-38.87 22.758-40.456z" fill="#39a4b4"/>
 <g fill="#0d131a">
  <path transform="translate(-486.76 -430.52)" d="M578.987,489.971c2.035-2.753,6.091-6.612,8.549-4.945,2.912,1.979,6.819,27.884-28.5,45.42-30.471,15.131-54.462,10.674-66.38-13.05-9.813-19.535-.664-55.062,26.384-71.979a85.161,85.161,0,0,1,47.425-13.2c14.512.436,28.595,9,38.775,8.105,8.615-.758,10.936-10.244,16.487-9.788,14.531,1.12,14.553,55.36,1.628,67.085-5.553,5.037-25.438,9.47-38.266,7.443l.916-1.784c11.7,1.682,30.973-2.669,35.815-6.958,11.723-10.388,12.229-62.521-.153-63.476-4.271-.331-7.183,8.688-16.206,9.481-11.376,1-23.775-7.334-39.171-7.8-10.423-.314-26.586,1.285-45.462,13.091-28.531,17.845-34.315,52.163-25.9,68.912,9.066,18.048,28.153,29.567,63.194,12.289,34.27-16.9,30.073-41,28.509-42.283-1.475-1-6.225,3.417-8.156,6.341Z"/>
  <path transform="translate(-537.71 -454.61)" d="m627.29 520.64c7.077-13.466-0.766-37.855-9.123-36.341-4.842 0.871-0.189 21.966-18.1 33.232-1.337 0.841-1.828-0.036-0.509-0.969 18.194-12.873 11.262-32.691 18.268-33.95 10.481-1.9 18.624 25.233 10.431 38.64-0.968 1.584-1.836 1.044-0.967-0.612z"/>
  <path transform="translate(-533.86 -530.62)" d="m604.24 678.79a4.317 4.317 0 0 0-2.6-1.178c-0.067 0-7.027 0.6-9.347-2.207-5.861-7.095 3.663-20.587 10.635-24.316 14.169-7.577 35.137-5.014 38.52 2.752 4.348 9.979-8.508 28.668-21.016 31.759-6.037 1.498-11.14-1.02-16.192-6.81zm-2.529-2.745a5.937 5.937 0 0 1 3.676 1.683c6.487 7.041 10.868 7.149 14.632 6.22 11.256-2.783 23.867-20.139 19.85-29.362-2.912-6.686-22.621-9.154-36.013-1.993-6.476 3.464-15.153 15.536-10.146 21.6 1.457 1.764 6.238 1.981 7.811 1.86 0.064-6e-3 0.126-8e-3 0.191-8e-3z"/>
  <path transform="translate(-543.06 -539.48)" d="M610.961,667.188a2.394,2.394,0,0,1-.46-.545c-.545-.832.331-1.435.75-.531.11.237.263.555.321.642C611.923,667.288,611.578,667.669,610.961,667.188Z"/>
  <path transform="translate(-548.08 -537.12)" d="M621.219,662.664c.084-.236.47-1.02.713-1.51.541-1.09,1.58-.493.926.547a13.281,13.281,0,0,1-.952,1.345C621.41,663.626,620.99,663.3,621.219,662.664Z"/>
  <path transform="translate(-541.1 -538.73)" d="M607.3,682.5a4.083,4.083,0,0,0,2.414-.818c1.8-1.113,3.669-5.877,5.563-6.713,5.709-2.522,14.962-.885,22.419-3.554.8-.287,4.779-3.981,6.814-6.77.808-1.106,1.679-.533,1.03.689-1.519,2.863-6.015,7.089-7.319,7.554-7.861,2.813-16.864,1.239-22.211,3.6-1.235.546-3.514,5.312-5.476,6.525a5.013,5.013,0,0,1-3.5.558C605.571,683.188,605.956,682.435,607.3,682.5Z"/>
  <path transform="translate(-549.3 -544.92)" d="M647.6,677.412c.191,9.711-7.145,20.165-16.334,19.613-3.662-.213-7.042-4.91-7.4-8.657a13.449,13.449,0,0,1,1.216-6.941l1.839-.143c-.888,1.095-1.706,3.713-1.406,6.875.291,3.058,3.143,7.083,5.934,7.246,8.167.44,14.414-9.156,14.639-17.06Z"/>
 </g>
 <g fill="none">
  <path transform="translate(-494.95 -469.26)" d="m509.63 540.55c-5.591-3.36-2.989-9.764 2.442-7.417 4.735 2.047 8.473 0.459 11.58-5.6 1.85-3.611 3.9-4.513 8.518-3.683 5.964 1.073 10.009 0.543 17.074-7.229 3.893-4.282 9.8-2.97 7.251 3.67-4.809 12.541-17.307 16.184-27.049 13.923-4.884 8.058-13.328 10.236-19.816 6.336zm0.781-1.095c5.411 3.118 12.878 1.355 17.358-5.512 0.771-1.182 1.239-1.395 2.8-1.093 8.989 1.738 20.288-2.077 24.64-12.982 2.043-5.116-2.262-5.1-5.022-2.226-7.717 8.054-11.88 8.9-18.3 7.743-3.93-0.707-5.34-0.121-6.85 2.853-3.229 6.36-8.055 8.649-13.484 6.2-3.564-1.611-5.014 2.785-1.142 5.017z"/>
  <path transform="translate(-566.24 -507.44)" d="m661.22 605.41c-1.558-4.26-0.969-7.851 1.433-8.733 2.057-0.754 5.187 1.536 6.723 5.74 1.524 4.165 0.757 7.877-1.482 8.7-1.841 0.671-4.822-0.641-6.674-5.707zm1.969-7.263c-1.489 0.546-1.705 3.437-0.5 6.725 1.31 3.581 3.407 5.239 4.671 4.775 1.558-0.571 1.776-3.35 0.553-6.692-1.26-3.437-3.421-5.285-4.724-4.807z"/>
  <path transform="translate(-531.78 -521.62)" d="m587.58 635.01c-1.983-3.787-2.06-6.91-0.462-7.75 1.191-0.624 3.987 1.074 5.936 4.8 1.79 3.422 2.006 6.962 0.562 7.721s-4.498-1.831-6.036-4.771zm0.263-6.364c-0.469 0.246-0.46 2.3 1.221 5.509 1.776 3.394 3.475 4.419 3.827 4.241 0.454-0.239 0.57-2.188-1.221-5.61-1.84-3.516-3.556-4.288-3.827-4.14z"/>
 </g>
</svg>
