<?xml version="1.0" encoding="UTF-8" standalone="no"?>
<svg
   viewBox="0 0 53.196911 68.865433"
   version="1.1"
   id="svg14884"
   sodipodi:docname="912-4.svg"
   inkscape:version="1.2.2 (b0a8486, 2022-12-01)"
   xmlns:inkscape="http://www.inkscape.org/namespaces/inkscape"
   xmlns:sodipodi="http://sodipodi.sourceforge.net/DTD/sodipodi-0.dtd"
   xmlns="http://www.w3.org/2000/svg"
   xmlns:svg="http://www.w3.org/2000/svg">
  <defs
     id="defs14888" />
  <sodipodi:namedview
     id="namedview14886"
     pagecolor="#505050"
     bordercolor="#eeeeee"
     borderopacity="1"
     inkscape:showpageshadow="0"
     inkscape:pageopacity="0"
     inkscape:pagecheckerboard="0"
     inkscape:deskcolor="#505050"
     showgrid="false"
     inkscape:zoom="4.8464721"
     inkscape:cx="20.324062"
     inkscape:cy="35.180229"
     inkscape:window-width="1353"
     inkscape:window-height="563"
     inkscape:window-x="7"
     inkscape:window-y="258"
     inkscape:window-maximized="0"
     inkscape:current-layer="svg14884" />
  <path
     d="m 20.61201,57.342383 -2.483908,-0.933097 c -0.04304,0.344664 -2.282825,5.125508 -2.411942,5.297664 -0.129117,0.172508 -3.861858,2.857147 -4.637264,2.986263 -2.0281191,0.337961 -5.2831996,1.692628 -4.5973996,2.630664 0.7545917,1.031875 4.3299946,0.131234 6.3489416,-0.218722 1.229078,-0.212725 5.8801,2.244372 6.891514,1.148644 1.965677,-2.129719 -1.256595,-5.17278 -1.292225,-6.202186 -0.01729,-0.499886 1.213555,-3.03918 2.182283,-4.70923"
     style="fill:#44bcce;fill-opacity:1;fill-rule:nonzero;stroke:none;stroke-width:0.352778"
     id="path8192" />
  <path
     d="m 30.662051,62.712049 c -0.505883,-0.01482 -3.2766,-1.442508 -3.753908,-2.840919 0.236714,-1.29787 0.916869,-3.341159 1.456619,-3.849511 l -2.957336,0.487891 c -0.08961,0.716139 -0.782461,3.316817 -1.091142,3.934178 -0.564797,1.129242 -1.598436,1.387828 -1.550811,3.014839 0.02893,0.976489 2.185459,1.894769 4.106334,2.58445 1.119716,0.401814 3.273425,1.435805 4.307063,1.263297 1.033639,-0.172156 2.411942,-1.492956 2.6416,-1.636536 1.336323,-0.835378 4.894792,-0.318206 4.938889,-1.464733 0.06174,-1.597025 -4.691591,-1.392767 -8.097308,-1.492956"
     style="fill:#44bcce;fill-opacity:1;fill-rule:nonzero;stroke:none;stroke-width:0.352778"
     id="path8196" />
  <path
     d="m 20.61201,57.342383 -2.483908,-0.933097 c -0.04304,0.344664 -2.282825,5.125508 -2.411942,5.297664 -0.04092,0.05468 -0.445558,0.363008 -1.002947,0.761647 0.67698,1.2065 2.537178,1.290108 4.139494,0.567972 -0.240241,-0.409575 -0.414866,-0.750358 -0.42298,-0.984956 -0.01729,-0.499886 1.213555,-3.03918 2.182283,-4.70923"
     style="fill:#39a4b4;fill-opacity:1;fill-rule:nonzero;stroke:none;stroke-width:0.352778"
     id="path8200" />
  <path
     d="m 28.78104,61.814547 c -0.817739,-0.534106 -1.633714,-1.242483 -1.872897,-1.943453 0.236714,-1.297516 0.916869,-3.341158 1.456619,-3.849511 l -2.957336,0.488245 c -0.08961,0.715786 -0.782461,3.316463 -1.091141,3.933825 -0.564798,1.129241 -1.598437,1.387827 -1.550812,3.014838 0.0011,0.02716 0.0092,0.05433 0.01341,0.08114 2.516717,0.352073 4.689122,-0.4445 6.002161,-1.725083"
     style="fill:#39a4b4;fill-opacity:1;fill-rule:nonzero;stroke:none;stroke-width:0.352778"
     id="path8204" />
  <path
     d="m 45.444462,30.317913 c 0.510822,-0.307622 0.987778,-1.151467 0.809625,-1.431572 -0.261408,-0.410634 -2.042583,-0.04763 -2.814108,0.201083 -0.890059,0.287161 -4.69265,-0.06103 -5.024967,1.866547 L 18.573379,39.19486 c 0.03387,0.135467 0.237772,0.470253 0.499181,0.751769 -2.243667,0.129117 -3.969808,3.233914 -4.331406,6.409973 -0.839258,-0.607131 -3.198988,-0.992012 -3.461455,-0.729545 -0.359481,0.359128 -0.03563,2.703689 0.221544,3.086453 -0.216605,-0.0088 -0.411339,0.02011 -0.565855,0.100541 -0.518231,0.270581 -0.669925,4.593167 5.075414,7.397398 0.151341,0.51435 0.432505,0.925336 0.868186,1.044927 0.216252,0.05927 0.587727,-0.09243 0.97155,-0.28328 3.076575,1.01988 6.609997,0.686505 8.894938,-0.701675 2.935817,0.351719 5.377745,-1.4097 6.213828,-3.781778 1.079853,-3.064228 -0.410633,-7.183261 -2.588331,-9.685514 l 0.03281,-0.02011 c 5.053541,1.26365 9.130947,0.201083 11.112147,-4.019903 0.587375,-1.251302 1.230841,-1.575152 2.871611,-2.067277 3.732741,-1.12007 4.764264,-2.19322 4.823883,-2.957689 0.09454,-1.20897 -1.532114,-2.811639 -3.766961,-3.421239"
     style="fill:#f2fbfe;fill-opacity:1;fill-rule:nonzero;stroke:none;stroke-width:0.352778"
     id="path8208" />
  <path
     d="m 29.757528,41.291065 c -0.549275,-1.335264 -8.082844,-3.200047 -8.344253,-3.275894 l -2.839861,1.179688 c 0.03387,0.135467 0.237773,0.470253 0.499181,0.75177 -0.0095,7.05e-4 -0.01905,0.0021 -0.02858,0.0028 0.567972,0.746831 5.368925,2.474031 8.344605,2.289175 1.060803,-0.06597 1.611842,-0.262114 2.368903,-0.947561"
     style="fill:#d3d9db;fill-opacity:1;fill-rule:nonzero;stroke:none;stroke-width:0.352778"
     id="path8212" />
  <path
     d="m 28.336187,54.442268 c -3.788833,1.162756 -5.961944,1.170869 -9.648119,0.115006 -3.604683,-1.032934 -6.698545,-2.879373 -7.903986,-5.507567 -0.327025,0.980722 0.12065,4.669367 5.226755,7.161742 0.151342,0.51435 0.432506,0.925336 0.868186,1.044927 0.216253,0.05927 0.587728,-0.09243 0.97155,-0.28328 3.076575,1.01988 6.609645,0.686505 8.894939,-0.701675 2.188281,0.262114 4.411839,-0.63747 5.725583,-2.748139 -1.206147,1.206147 -3.457927,0.7112 -4.134908,0.918986"
     style="fill:#d3d9db;fill-opacity:1;fill-rule:nonzero;stroke:none;stroke-width:0.352778"
     id="path8216" />
  <path
     d="m 12.428416,48.900376 c -0.09631,-0.06738 -0.830792,-2.238022 -1.062567,-3.28048 -0.538339,0.47378 0.0889,3.093861 0.06562,3.093861 0.194028,-0.03246 0.543278,-0.0011 0.99695,0.186619"
     style="fill:#d3d9db;fill-opacity:1;fill-rule:nonzero;stroke:none;stroke-width:0.352778"
     id="path8220" />
  <path
     d="M 44.215243,18.951272 C 43.181604,27.163586 33.364152,32.321902 23.311043,30.666669 8.7790688,28.27413 2.4015523,22.002094 0.9138884,16.998647 -0.23969491,13.11915 0.49902174,12.480269 2.8665134,12.978744 4.408505,13.3033 6.0030605,12.722275 7.2310799,10.853964 13.550388,1.2397113 19.527502,-0.48325535 28.246052,0.7775724 38.357368,2.2394835 45.267226,10.595025 44.215243,18.951272"
     style="fill:#44bcce;fill-opacity:1;fill-rule:nonzero;stroke:none;stroke-width:0.352778"
     id="path8224" />
  <path
     d="m 20.525862,16.137269 c -3.063522,0 -5.599289,2.153708 -11.686822,1.378303 -3.9239471,-0.499886 -6.8329526,-1.922639 -8.23171645,-4.22522 -0.3792361,0.563739 -0.28998333,1.7018 0.30656388,3.7084 1.48766387,5.003095 7.86518037,11.275483 22.39715457,13.668022 8.542867,1.406525 16.911814,-2.108905 19.86915,-8.235597 -7.555089,-2.356555 -20.558124,-6.293908 -22.65433,-6.293908"
     style="fill:#39a4b4;fill-opacity:1;fill-rule:nonzero;stroke:none;stroke-width:0.352778"
     id="path8228" />
  <path
     d="m 22.736861,18.204724 c -2.518833,-0.279753 -9.59238,0.8128 -12.533841,2.670528 -0.3446643,0.775052 -1.8383253,7.331427 -1.8235087,8.585552 0.059972,5.033786 6.1877217,9.071328 13.0651247,10.624256 6.801555,1.535641 14.041261,-0.0575 15.850305,-3.445581 1.483431,-2.778478 1.751542,-7.121172 1.895122,-11.457163 z"
     style="fill:#f2fbfe;fill-opacity:1;fill-rule:nonzero;stroke:none;stroke-width:0.352778"
     id="path8232" />
  <path
     d="m 8.4799154,28.482445 c -0.065264,0.432858 -0.1026583,0.775758 -0.1001889,0.978253 0.059972,5.033786 6.2088885,9.135886 13.0866445,10.688813 6.78568,1.532467 13.985874,-0.115005 15.81538,-3.487561 -5.241572,3.423003 -23.754644,-0.280458 -28.8018356,-8.179505"
     style="fill:#d3d9db;fill-opacity:1;fill-rule:nonzero;stroke:none;stroke-width:0.352778"
     id="path8236" />
  <path
     d="m 40.783845,12.34699 c -1.327503,0 -2.239081,-1.9812 -3.187347,-2.218267 -1.033639,-0.2582329 -2.024239,0.839964 -3.553178,0.452261 -1.303161,-0.3302 -2.085269,-0.7750523 -2.756605,-1.5074189 -1.074561,-1.1722806 -2.58445,-0.4737806 -1.766006,1.0766779 0.414514,0.785636 2.250017,2.381603 3.983919,2.842683 1.611489,0.428978 2.722034,0.281164 3.751439,-0.294217 0.228248,-0.127705 0.349603,-0.08855 0.474134,0.0755 0.674158,0.887589 1.738841,1.441803 2.7305,1.575505 0.614538,0.0829 1.311627,0.06032 1.942394,-0.07056 0.460728,-0.447322 0.862894,-0.911578 1.218494,-1.368425 -0.143227,-0.4445 -0.310091,-0.883003 -0.4953,-1.315861 -0.560211,0.309033 -1.547636,0.752122 -2.342444,0.752122"
     style="fill:#ffffff;fill-opacity:1;fill-rule:nonzero;stroke:none;stroke-width:0.352778"
     id="path8240" />
  <path
     d="m 25.493431,43.530816 c 1.349728,1.177219 3.458986,2.247547 3.732742,2.210858 0.268463,-0.03563 1.271763,-0.936272 1.315508,-2.421466 -0.346428,1.334911 -2.359025,1.787877 -5.04825,0.210608"
     style="fill:#d3d9db;fill-opacity:1;fill-rule:nonzero;stroke:none;stroke-width:0.352778"
     id="path8244" />
  <path
     d="m 40.769487,38.304801 c -1.726142,4.142669 -7.4422,4.191 -10.581216,3.373967 0.258233,0.387702 0.300919,0.885119 0.329847,1.132416 5.000625,1.218847 9.031816,0.14217 10.997847,-4.047066 0.587375,-1.251303 1.230841,-1.575153 2.871611,-2.067278 3.732741,-1.120069 4.764264,-2.193219 4.823883,-2.957689 0.0074,-0.09454 0.0018,-0.192264 -0.01129,-0.291042 -1.16593,1.382184 -3.752497,2.142773 -5.07118,2.358673 -1.579034,0.258233 -2.795411,1.144411 -3.359503,2.498019"
     style="fill:#d3d9db;fill-opacity:1;fill-rule:nonzero;stroke:none;stroke-width:0.352778"
     id="path8248" />
  <path
     d="m 50.520299,18.510547 c -0.191558,-0.148872 -0.188736,-0.859014 0.373239,-1.550458 0.373239,-0.45967 0.958497,-0.57397 1.251303,-0.396523 0.527402,0.319617 0.07726,1.048456 -0.518936,1.415698 -0.466373,0.287161 -0.976489,0.631825 -1.105606,0.531283"
     style="fill:#44bcce;fill-opacity:1;fill-rule:nonzero;stroke:none;stroke-width:0.352778"
     id="path8252" />
  <path
     d="m 51.554044,21.482452 c -0.08008,-0.208139 0.377472,-0.741892 0.832556,-0.875947 0.636058,-0.186972 0.877711,0.601133 0.27305,0.875947 -0.331612,0.150636 -1.060803,0.116417 -1.105606,0"
     style="fill:#44bcce;fill-opacity:1;fill-rule:nonzero;stroke:none;stroke-width:0.352778"
     id="path8256" />
  <path
     d="m 22.712555,18.423481 c -2.345267,-0.259997 -9.340497,0.756003 -12.332758,2.600678 -0.3806473,0.994127 -1.793875,7.254522 -1.7797639,8.433858 0.060678,5.096933 6.5560219,8.972197 12.6509639,10.41153 0.610658,0.144286 0.52458,0.418747 -0.08643,0.301625 C 14.122416,38.821797 8.0680442,34.655139 8.0063081,29.460839 7.992197,28.272331 9.3401609,22.516056 9.8171164,21.021336 c 0.090664,-0.283633 0.1397,-0.37853 0.4864806,-0.576791 2.887839,-1.65347 8.901289,-2.674408 11.808883,-2.562931 z"
     style="fill:#0f141b;fill-opacity:1;fill-rule:nonzero;stroke:none;stroke-width:0.352778"
     id="path8260" />
  <path
     d="m 39.563516,25.325896 c -0.143228,4.248503 -0.426508,8.652228 -1.92405,11.457164 -1.574447,2.949575 -7.146219,4.488038 -12.253736,4.012847 -0.643466,-0.05997 -0.621241,-0.380295 0.02152,-0.344664 5.50933,0.3048 10.302169,-1.309864 11.693524,-3.915481 1.449564,-2.715683 1.721909,-7.007224 1.863725,-11.195049 z"
     style="fill:#0f141b;fill-opacity:1;fill-rule:nonzero;stroke:none;stroke-width:0.352778"
     id="path8264" />
  <path
     d="M 8.8259551,26.267283 C 2.8167386,22.752205 1.0320358,18.645519 0.55508028,17.041792 -0.72197525,12.747781 0.26686084,12.096906 2.8809441,12.64865 4.4673858,12.983436 5.8640329,12.267297 6.9438857,10.624058 12.780947,1.7442891 18.51676,-1.0634692 28.249899,0.3444669 38.255029,1.7908558 45.71381,10.241294 44.617377,18.951378 c -0.444853,3.532716 -2.482498,6.555669 -5.481814,8.732661 l 0.0011,-0.716845 C 41.791979,24.926375 43.589029,22.161303 43.99684,18.923508 45.063288,10.450492 37.983391,2.4078641 28.214621,0.99569467 19.978672,-0.19528308 13.935236,1.0556669 7.4151968,10.974719 6.2288052,12.779883 4.5975607,13.566931 2.8209719,13.194397 0.69936639,12.747428 -0.00371971,13.139364 1.1251692,16.935958 1.5837803,18.478655 3.257358,22.328166 8.9585995,25.68273 Z"
     style="fill:#0f141b;fill-opacity:1;fill-rule:nonzero;stroke:none;stroke-width:0.352778"
     id="path8268" />
  <path
     d="m 51.064424,17.098871 c -0.427919,0.526697 -0.418394,0.973667 -0.423686,1.194858 0.153458,-0.05539 0.869597,-0.502002 0.869597,-0.502002 0.401814,-0.24765 0.87877,-0.822678 0.520347,-1.039637 -0.159102,-0.09631 -0.620536,-0.07832 -0.966258,0.346781 m -0.655461,1.555397 c -0.105128,-0.08184 -0.169333,-1.189919 0.333728,-1.809044 0.448733,-0.551745 1.135591,-0.700264 1.516239,-0.470253 0.667808,0.404283 0.239183,1.218142 -0.557742,1.708503 -0.645936,0.397933 -1.152172,0.685447 -1.292225,0.570794"
     style="fill:#0f141b;fill-opacity:1;fill-rule:nonzero;stroke:none;stroke-width:0.352778"
     id="path8272" />
  <path
     d="m 51.79552,21.347338 c 0.192264,0.02752 0.572558,0.0254 0.772936,-0.06562 0.200025,-0.09066 0.247297,-0.244122 0.20567,-0.356305 -0.04233,-0.114653 -0.164395,-0.153459 -0.325262,-0.107597 -0.297038,0.08749 -0.56515,0.369711 -0.653344,0.529519 m -0.363714,0.181681 c -0.07655,-0.200025 0.411339,-0.916164 0.883003,-1.055159 0.447322,-0.132291 0.738364,0.01729 0.839964,0.290689 0.112889,0.303036 0.01094,0.678392 -0.452261,0.839964 -0.207786,0.07232 -1.194859,0.121708 -1.270706,-0.07549"
     style="fill:#0f141b;fill-opacity:1;fill-rule:nonzero;stroke:none;stroke-width:0.352778"
     id="path8276" />
  <path
     d="m 38.805149,30.548629 c 0.801511,-1.226961 3.870678,-0.983544 4.702528,-1.251303 1.023761,-0.330553 2.411941,-0.488597 2.559402,-0.294569 0.07973,0.177447 -0.412044,1.053747 -0.881238,1.194505 l 0.476955,0.240948 c 0.569383,-0.412045 1.120775,-1.309864 0.871008,-1.702506 -0.4445,-0.698853 -3.160888,0.05609 -3.187347,0.06456 -0.692503,0.224014 -3.331986,0.05045 -4.565297,1.033639 z"
     style="fill:#0f141b;fill-opacity:1;fill-rule:nonzero;stroke:none;stroke-width:0.352778"
     id="path8280" />
  <path
     d="m 29.10623,40.472797 c 0.845256,0.387703 1.440744,1.018822 1.641828,1.823156 0.560211,2.241549 -1.091142,3.711574 -1.528939,3.711574 -0.817739,0 -4.192764,-2.308577 -4.845403,-3.316463 -0.224014,-0.346075 0.02328,-0.475898 0.279753,-0.172509 0.997303,1.179689 4.128558,2.980972 4.55683,3.003903 0.2159,-0.0568 1.483078,-1.2446 1.008239,-3.144308 -0.211314,-0.845256 -0.812447,-1.397706 -1.891241,-1.738489 z"
     style="fill:#0f141b;fill-opacity:1;fill-rule:nonzero;stroke:none;stroke-width:0.352778"
     id="path8284" />
  <path
     d="m 18.898533,39.362676 c 0.134408,0.214489 0.361597,0.538339 0.593725,0.708025 0.3937,0.288219 0.236008,0.531636 -0.230011,0.301625 -0.496711,-0.245533 -0.908756,-0.922867 -0.961672,-1.134181 z"
     style="fill:#0f141b;fill-opacity:1;fill-rule:nonzero;stroke:none;stroke-width:0.352778"
     id="path8288" />
  <path
     d="m 14.694837,46.596384 c -0.670631,-0.590197 -2.959805,-0.966611 -3.275542,-0.800453 -0.177447,0.19685 0.01446,2.524831 0.31997,2.932289 h -0.559858 c -0.262467,-0.674158 -0.5588,-2.88678 -0.115006,-3.330928 0.379589,-0.379236 2.765778,0.08326 3.71863,0.6604 z"
     style="fill:#0f141b;fill-opacity:1;fill-rule:nonzero;stroke:none;stroke-width:0.352778"
     id="path8292" />
  <path
     d="M 17.238082,57.040899 C 9.9017155,54.183752 9.9518099,48.958055 10.77731,48.52696 c 0.782461,-0.407811 2.38125,0.381706 2.900186,0.847373 0.290336,0.260349 0.103364,0.462491 -0.201083,0.258233 -0.805745,-0.540456 -1.949803,-0.879475 -2.439106,-0.623006 -0.300567,0.298803 -0.541867,4.919486 6.418086,7.590014 3.94335,1.513064 8.916105,0.638175 10.780183,-1.855964 0.244122,-0.326319 0.47872,-0.160867 0.258586,0.172508 -1.791052,2.712156 -7.010752,3.777898 -11.25608,2.124781"
     style="fill:#0f141b;fill-opacity:1;fill-rule:nonzero;stroke:none;stroke-width:0.352778"
     id="path8296" />
  <path
     d="m 18.145956,56.984878 c -0.564092,1.3589 -2.125839,4.684536 -2.253544,4.854575 -0.133703,0.178153 -3.901723,2.925233 -4.777317,3.071283 -2.2009805,0.366536 -4.8937332,1.683808 -4.4555832,2.283178 0.6674555,0.912636 4.7007642,-0.05786 6.1333942,-0.305858 1.205795,-0.206375 5.92455,2.128308 6.766983,1.216377 1.814689,-1.96603 -1.313744,-4.993569 -1.350433,-6.0452 -0.02081,-0.608894 1.283406,-3.196166 2.102203,-4.636205 l 0.544336,0.0056 c -1.039636,1.792464 -2.203097,4.227336 -2.189339,4.6228 0.03246,0.939095 3.392664,4.206875 1.299281,6.475236 -1.14547,1.239661 -5.966884,-1.33738 -7.121173,-1.13418 -2.587272,0.449439 -5.8243605,1.254125 -6.6473911,0.129116 -0.9581444,-1.310216 2.3396222,-2.628194 4.8454031,-3.04553 0.690386,-0.115006 4.179711,-2.654653 4.415013,-2.898422 0.15487,-0.243417 1.725789,-3.526367 2.239786,-4.75227 z"
     style="fill:#0f141b;fill-opacity:1;fill-rule:nonzero;stroke:none;stroke-width:0.352778"
     id="path8300" />
  <path
     d="m 15.185021,65.353719 c 0.267758,-0.647347 0.9906,-1.510947 1.507419,-1.679928 0.461434,-0.150636 0.545748,0.06879 0.18662,0.287161 -0.407106,0.24765 -1.086203,0.91687 -1.435453,1.521884 -0.226483,0.391583 -0.430389,0.28575 -0.258586,-0.129117"
     style="fill:#0f141b;fill-opacity:1;fill-rule:nonzero;stroke:none;stroke-width:0.352778"
     id="path8304" />
  <path
     d="m 25.602122,56.69306 c -0.150283,0.875242 -0.776817,3.224389 -1.089025,3.849158 -0.570794,1.141942 -1.571978,1.385006 -1.527175,2.909711 0.0187,0.645231 1.351139,1.447095 3.960283,2.38372 0.572559,0.205316 3.193345,1.4224 4.196645,1.253419 0.963083,-0.160514 2.210152,-1.386064 2.561166,-1.60655 1.27,-0.79375 4.803775,-0.469194 4.835525,-1.285875 0.05186,-1.361722 -5.078236,-1.181453 -7.883877,-1.264355 -0.577498,-0.01693 -3.227917,-1.381831 -3.88867,-2.824692 l 0.305859,-0.697794 c 0.100541,1.421341 3.111147,3.029655 3.589161,3.043766 3.479799,0.1016 8.501238,-0.14993 8.42786,1.751542 -0.05539,1.437922 -3.801533,0.843491 -5.139972,1.679928 -0.219075,0.136877 -1.615369,1.580444 -2.72803,1.766005 -1.144411,0.191206 -3.212042,-0.919692 -4.450644,-1.364192 -2.954162,-1.06045 -4.280959,-1.950861 -4.307064,-2.842683 -0.0508,-1.73108 1.156052,-2.100791 1.65488,-3.099153 0.25012,-0.499886 0.757061,-2.313516 0.943681,-3.462161 z"
     style="fill:#0f141b;fill-opacity:1;fill-rule:nonzero;stroke:none;stroke-width:0.352778"
     id="path8308" />
  <path
     d="m 28.580238,56.193845 c -0.618419,0.582083 -1.639358,3.330928 -1.607961,4.335992 0.01446,0.459316 -0.304447,0.477661 -0.316089,0.01411 -0.02858,-1.148292 0.611011,-3.166534 1.218494,-4.219928 z"
     style="fill:#0f141b;fill-opacity:1;fill-rule:nonzero;stroke:none;stroke-width:0.352778"
     id="path8312" />
  <path
     d="m 30.633299,65.167065 c -0.226836,-0.347839 -1.043869,-0.916164 -1.536347,-1.162756 -0.269875,-0.135466 -0.264231,-0.382411 0.129469,-0.27305 0.648053,0.18027 1.567392,0.911225 1.737078,1.3208 0.172156,0.416631 -0.114653,0.445206 -0.3302,0.115006"
     style="fill:#0f141b;fill-opacity:1;fill-rule:nonzero;stroke:none;stroke-width:0.352778"
     id="path8316" />
  <path
     d="m 30.532828,43.100074 c 4.845403,1.227667 9.118953,0.358775 11.241616,-4.163483 0.53587,-1.141942 1.072445,-1.48202 2.713567,-1.974145 3.864328,-1.159227 5.034844,-2.092677 5.125508,-3.251905 0.159456,-2.042936 -3.911952,-4.787194 -7.666566,-3.618089 -0.311856,0.09701 -0.207786,0.423686 0.107597,0.344664 3.61068,-0.904875 7.06508,1.650294 6.937375,3.285067 -0.04092,0.521405 -0.701322,1.573741 -4.667956,2.763661 -1.639005,0.491772 -2.369961,0.827263 -3.00743,2.184752 -2.296583,4.892675 -7.173031,4.82212 -10.859558,3.899959 z"
     style="fill:#0f141b;fill-opacity:1;fill-rule:nonzero;stroke:none;stroke-width:0.352778"
     id="path8320" />
  <path
     d="m 26.806329,56.060777 c 2.941461,0.341489 5.194653,-1.514828 5.945011,-3.644194 0.998714,-2.833511 -0.304094,-6.685139 -2.290939,-9.159522 l 0.0508,-0.738364 c 2.383367,2.730147 3.968397,6.863291 2.842683,10.056988 -0.935919,2.655711 -3.833283,4.608689 -7.321902,3.919714 z"
     style="fill:#0f141b;fill-opacity:1;fill-rule:nonzero;stroke:none;stroke-width:0.352778"
     id="path8324" />
  <path
     d="m 26.063379,24.294056 c -0.488597,2.200275 -1.849261,3.792008 -3.020483,3.531658 -1.171222,-0.259997 -1.709561,-2.2733 -1.220964,-4.473575 0.488597,-2.200275 1.834091,-3.773311 3.005314,-3.512961 1.171222,0.259998 1.72473,2.254603 1.236133,4.454878"
     style="fill:#005ca1;fill-opacity:1;fill-rule:nonzero;stroke:none;stroke-width:0.352778"
     id="path8328" />
  <path
     d="m 34.512444,26.114248 c -0.200378,1.850672 0.287867,3.438878 1.084086,3.525308 0.795867,0.08608 1.598436,-1.36278 1.798814,-3.213452 0.200025,-1.85032 -0.282928,-3.420534 -1.078794,-3.506611 -0.79622,-0.08608 -1.603728,1.344083 -1.804106,3.194755"
     style="fill:#005ca1;fill-opacity:1;fill-rule:nonzero;stroke:none;stroke-width:0.352778"
     id="path8332" />
  <path
     d="m 21.928153,26.671813 c 0.239183,0.618419 0.619478,1.044222 1.114778,1.153936 0.600428,0.13335 1.250244,-0.22225 1.80728,-0.894997 -0.519641,-1.331736 -1.666522,-1.805517 -2.922058,-0.258939"
     style="fill:#89a2ce;fill-opacity:1;fill-rule:nonzero;stroke:none;stroke-width:0.352778"
     id="path8336" />
  <path
     d="m 34.611715,28.282491 c 0.184856,0.781756 0.535869,1.308453 0.984603,1.356783 0.304094,0.03316 0.608894,-0.159455 0.881239,-0.511175 -0.444853,-1.150408 -1.191331,-1.304572 -1.865842,-0.845608"
     style="fill:#89a2ce;fill-opacity:1;fill-rule:nonzero;stroke:none;stroke-width:0.352778"
     id="path8340" />
  <path
     d="m 22.03702,23.399976 c -0.526697,2.371372 0.174625,4.015317 1.053394,4.210755 0.482248,0.106892 1.033992,-0.166511 1.551164,-0.771172 0.549628,-0.642761 0.9779,-1.563511 1.206853,-2.593269 0.467431,-2.106789 -0.05151,-3.966281 -1.068917,-4.192058 -0.989541,-0.21837 -2.264127,1.192388 -2.742494,3.345744 m 0.958144,4.640792 c -1.380066,-0.306564 -1.904294,-2.577748 -1.421341,-4.753681 0.531636,-2.392892 2.053166,-3.941233 3.301294,-3.662891 1.281642,0.284338 1.992489,2.386894 1.479903,4.69653 -0.521406,2.347736 -2.085975,4.004028 -3.359856,3.720042"
     style="fill:#0f141b;fill-opacity:1;fill-rule:nonzero;stroke:none;stroke-width:0.352778"
     id="path8344" />
  <path
     d="m 22.629193,28.132737 c -1.134181,-0.531283 -1.7526,-3.573992 -1.012119,-6.223705 0.918986,-3.287889 3.277658,-5.400675 5.297663,-4.910314 2.077861,0.502355 3.090334,3.844219 2.455334,6.805436 -0.108656,0.506236 -0.352425,0.450497 -0.301625,-0.05398 0.301625,-2.99332 -0.643467,-5.691717 -2.270125,-6.085064 -1.790347,-0.432153 -3.830461,1.476728 -4.646436,4.346928 -0.788106,2.773891 -0.198614,5.365044 0.584905,5.905147 0.308328,0.212725 0.20567,0.362303 -0.107597,0.215547"
     style="fill:#0f141b;fill-opacity:1;fill-rule:nonzero;stroke:none;stroke-width:0.352778"
     id="path8348" />
  <path
     d="m 39.147132,25.343852 c -0.04022,2.650067 -0.614539,4.408664 -1.801989,5.006975 -0.325614,0.164042 -0.436033,-0.05115 -0.157692,-0.236714 0.984603,-0.656167 1.44145,-2.2606 1.478845,-4.773789 z"
     style="fill:#0f141b;fill-opacity:1;fill-rule:nonzero;stroke:none;stroke-width:0.352778"
     id="path8352" />
  <path
     d="m 34.731483,26.137884 c -0.200731,1.855964 0.307269,3.21945 0.888647,3.282597 0.569384,0.06033 1.35502,-1.16205 1.556103,-3.018014 0.199672,-1.84538 -0.305506,-3.201458 -0.883356,-3.264252 -0.57785,-0.06103 -1.361722,1.154288 -1.561394,2.999669 z m -0.43815,-0.04763 c 0.220133,-2.031294 1.175808,-3.482975 2.046817,-3.390194 0.861836,0.09349 1.57868,1.725083 1.356783,3.774369 -0.256117,2.367139 -1.413933,3.459692 -2.124075,3.384197 -0.805392,-0.08749 -1.524,-1.509536 -1.279525,-3.768372"
     style="fill:#0f141b;fill-opacity:1;fill-rule:nonzero;stroke:none;stroke-width:0.352778"
     id="path8356" />
  <path
     d="m 24.625457,23.898133 c -0.213431,0.960967 -0.759531,1.666522 -1.212144,1.565981 -0.452967,-0.100542 -0.640645,-0.969081 -0.427567,-1.930048 0.21343,-0.960966 0.753533,-1.658408 1.206147,-1.557866 0.452967,0.100541 0.646995,0.960966 0.433564,1.921933"
     style="fill:#ffffff;fill-opacity:1;fill-rule:nonzero;stroke:none;stroke-width:0.352778"
     id="path8360" />
  <path
     d="m 35.14321,26.139154 c -0.09913,0.917222 0.08643,1.698625 0.412397,1.733903 0.325967,0.03528 0.668867,-0.688622 0.767997,-1.606197 0.09948,-0.917223 -0.08431,-1.689453 -0.41028,-1.724731 -0.325967,-0.03528 -0.670983,0.679803 -0.770114,1.597025"
     style="fill:#ffffff;fill-opacity:1;fill-rule:nonzero;stroke:none;stroke-width:0.352778"
     id="path8364" />
  <path
     d="m 46.876811,19.231025 c 2.751314,-3.517194 1.654175,-9.9067053 -0.536575,-9.7698276 -1.3462,0.084314 -2.756605,6.7620446 -9.906705,7.6665666 -0.666398,-0.64135 -16.740364,-2.799644 -15.878881,-0.933097 1.091142,1.895122 7.925153,7.752997 15.792803,8.958791 7.847541,1.202972 12.213519,-2.532591 11.715397,-5.355166 -0.09102,-0.51682 -0.658636,-0.780345 -1.186039,-0.567267"
     style="fill:#44bcce;fill-opacity:1;fill-rule:nonzero;stroke:none;stroke-width:0.352778"
     id="path8368" />
  <path
     d="m 38.931761,33.452061 c -0.322792,1.662994 -2.140656,2.244725 -3.417005,2.182283 0,1.378303 -0.688975,3.819172 -2.58445,4.106334 -4.804481,0.72778 -11.541125,-4.326114 -11.198578,-7.896578 0.297039,-3.091039 6.186311,-5.44195 10.681758,-4.422069 3.057878,0.693913 6.907742,4.022019 6.518275,6.03003"
     style="fill:#ffdb4e;fill-opacity:1;fill-rule:nonzero;stroke:none;stroke-width:0.352778"
     id="path8372" />
  <path
     d="m 36.347488,34.342225 c 0.06597,-0.824794 -0.821972,-1.577975 -1.880658,-1.263297 -3.587397,1.065389 -7.276395,1.073503 -10.342386,-0.953911 -0.417689,0.179564 -1.97732,-3.53e-4 -2.392539,-0.280811 -0.3429,3.570463 6.393744,8.624358 11.198578,7.896224 1.895122,-0.287161 2.584449,-2.727677 2.584449,-4.10598 0.642762,0.0314 1.737078,-0.158044 2.512484,-0.631825 -0.718256,0.337961 -1.708503,-0.232481 -1.679928,-0.6604"
     style="fill:#dabd44;fill-opacity:1;fill-rule:nonzero;stroke:none;stroke-width:0.352778"
     id="path8376" />
  <path
     d="m 26.485971,33.283222 c 0.748947,1.381478 4.399492,5.114572 6.071305,4.799189 0.998362,-0.188384 1.319037,-2.205567 0.171803,-4.579761 -2.532944,0.483658 -4.665486,0.287866 -6.243108,-0.219428"
     style="fill:#ce89a6;fill-opacity:1;fill-rule:nonzero;stroke:none;stroke-width:0.352778"
     id="path8380" />
  <path
     d="m 33.232919,37.489603 c 0.382764,-0.798689 0.310797,-2.300817 -0.503767,-3.986742 -2.532944,0.483659 -4.665486,0.287514 -6.243108,-0.21978 0.344311,0.635353 1.302456,1.767416 2.399242,2.774597 1.914172,-0.413808 3.430764,0.324556 4.347633,1.431925"
     style="fill:#b37691;fill-opacity:1;fill-rule:nonzero;stroke:none;stroke-width:0.352778"
     id="path8384" />
  <path
     d="m 21.41599,43.731758 -5.283553,8.097661 c -1.282347,0.206728 -1.837619,0.832555 -1.665464,1.837619 0.04163,0.242711 0.975784,0.555625 1.521884,0.551392 -0.281517,1.094669 -0.07161,2.773892 0.890411,3.037769 0.455083,0.124884 1.600553,-0.684036 2.095853,-0.832555 5.269088,-1.580797 7.178674,-4.176536 7.178674,-7.006519 0,-2.112787 -2.641599,-5.541786 -4.737805,-5.685367"
     style="fill:#f2fbfe;fill-opacity:1;fill-rule:nonzero;stroke:none;stroke-width:0.352778"
     id="path8388" />
  <path
     d="m 14.727151,48.594306 c 0.160514,1.451328 0.5334,2.343503 1.253067,3.263547 -1.172634,0.231422 -1.678164,0.845256 -1.513064,1.809045 0.04163,0.243063 0.975783,0.555625 1.52153,0.551744 -0.281164,1.094317 -0.07161,2.773539 0.890411,3.037769 0.455436,0.124884 1.600553,-0.684036 2.096206,-0.832908 6.520744,-1.956153 7.311672,-5.300839 7.170914,-7.207603 -3.007431,3.618442 -10.358261,4.135261 -11.419064,-0.621594"
     style="fill:#d3d9db;fill-opacity:1;fill-rule:nonzero;stroke:none;stroke-width:0.352778"
     id="path8392" />
  <path
     d="m 46.664015,19.628111 c 0.487892,-0.463903 1.1049,-0.229306 1.182158,0.208492 0.451909,2.563283 -3.584222,6.306961 -11.465277,5.09905 -7.533217,-1.154289 -13.984464,-6.52392 -15.453078,-8.497006 -0.337608,-0.453672 -0.616655,-0.404989 -0.344664,0.10795 1.062567,2.00272 7.907867,7.678208 15.69967,8.872714 7.976305,1.221317 12.638263,-2.39395 12.038541,-5.793317 -0.115711,-0.657577 -0.772231,-0.887589 -1.356783,-0.710494 z"
     style="fill:#0f141b;fill-opacity:1;fill-rule:nonzero;stroke:none;stroke-width:0.352778"
     id="path8396" />
  <path
     d="m 44.100379,20.99001 c 5.597172,-1.862314 4.735336,-11.3650886 2.253544,-11.308997 -1.076325,0.024342 -3.071988,6.951486 -9.704916,7.511697 -0.365125,0.03069 -0.367594,-0.226483 -0.01446,-0.280105 6.805436,-1.033639 7.925153,-7.7815725 9.705622,-7.8105003 3.227917,-0.051858 4.120444,10.5702803 -2.175228,12.1606023 -0.352425,0.08925 -0.410633,-0.157691 -0.06456,-0.272697"
     style="fill:#0f141b;fill-opacity:1;fill-rule:nonzero;stroke:none;stroke-width:0.352778"
     id="path8400" />
  <path
     d="m 21.95126,31.864949 c -0.323144,3.3655 6.236405,8.37318 10.945989,7.657747 1.714147,-0.259644 2.330802,-2.479675 2.392186,-3.692172 0.0187,-0.371828 0.06668,-0.410633 0.42298,-0.412397 1.115131,-0.0063 2.714978,-0.523523 3.003197,-2.008011 0.346075,-1.783998 -3.274483,-5.075061 -6.350705,-5.773209 -4.449586,-1.009297 -10.137069,1.343378 -10.413647,4.228042 m -0.521053,-0.04974 c 0.310092,-3.2258 6.242756,-5.768622 11.040886,-4.680302 2.784828,0.631825 7.206897,3.920772 6.733469,6.36023 -0.337255,1.738489 -2.205566,2.350206 -3.474861,2.363258 -0.06985,1.521531 -0.84843,3.878086 -2.770363,4.169128 -4.9149,0.745419 -11.887553,-4.477455 -11.529131,-8.212314"
     style="fill:#0f141b;fill-opacity:1;fill-rule:nonzero;stroke:none;stroke-width:0.352778"
     id="path8404" />
  <path
     d="m 36.175191,34.08378 c -0.122414,-0.567972 -0.860425,-1.036108 -1.645708,-0.79375 -4.714522,1.45415 -8.598253,0.556331 -10.342386,-0.943328 -0.44062,-0.378883 -0.582084,-1.048102 -0.373592,-1.507772 0.190853,-0.4191 0.40252,-0.255058 0.287161,0.08643 -0.08819,0.261761 0.06103,0.796572 0.359128,1.053041 1.653117,1.421695 5.374922,2.186164 9.949391,0.827617 1.214967,-0.361245 2.046817,0.556683 2.067631,1.234722 0.0127,0.420511 -0.216958,0.435681 -0.301625,0.04304"
     style="fill:#0f141b;fill-opacity:1;fill-rule:nonzero;stroke:none;stroke-width:0.352778"
     id="path8408" />
  <path
     d="m 26.763114,33.324779 c 0.889706,1.456972 4.319058,4.80695 5.7531,4.540955 0.834672,-0.156986 1.101725,-2.120899 -0.04798,-4.400549 l 0.438503,-0.107245 c 1.344436,2.692753 0.846667,4.822119 -0.277636,5.018617 -2.053167,0.358775 -5.863872,-3.921125 -6.410325,-5.135739 z"
     style="fill:#0f141b;fill-opacity:1;fill-rule:nonzero;stroke:none;stroke-width:0.352778"
     id="path8412" />
  <path
     d="m 34.804755,29.105063 c -0.0049,-0.02505 -0.02293,-0.106186 -0.02293,-0.176389 7.06e-4,-0.213078 0.211314,-0.2159 0.223662,-0.0056 0.0035,0.06103 -0.006,0.131939 -0.01834,0.1778 -0.0508,0.183444 -0.148872,0.177447 -0.182386,0.0042"
     style="fill:#0f141b;fill-opacity:1;fill-rule:nonzero;stroke:none;stroke-width:0.352778"
     id="path8416" />
  <path
     d="m 32.823626,28.59223 c -0.05115,-0.09349 -0.180622,-0.231775 -0.286808,-0.326672 -0.252589,-0.226131 -0.4318,-0.01023 -0.19297,0.2032 0.100895,0.09066 0.240947,0.206375 0.334786,0.268464 0.166159,0.109361 0.229659,0.0099 0.144992,-0.144992"
     style="fill:#0f141b;fill-opacity:1;fill-rule:nonzero;stroke:none;stroke-width:0.352778"
     id="path8420" />
  <path
     d="m 19.310966,40.161506 c -3.201105,-0.144992 -5.404203,6.357761 -3.968044,10.123664 0.844902,2.214739 2.815872,3.2385 3.859388,3.363736 0.968375,0.116416 2.698398,-0.736953 3.276248,-1.58997 0.25153,-0.371475 0.501297,-0.21978 0.258233,0.18662 -0.818797,1.370189 -2.602794,2.018241 -3.6322,1.895122 C 17.958416,54.003095 15.734505,52.814586 14.811638,50.4224 13.26118,46.402145 15.490736,40.063787 18.846005,39.683139 Z"
     style="fill:#0f141b;fill-opacity:1;fill-rule:nonzero;stroke:none;stroke-width:0.352778"
     id="path8424" />
  <path
     d="m 16.80734,57.529038 c -1.532819,-0.420864 -1.478844,-3.747205 -0.430742,-4.249561 0.276578,-0.132644 0.369359,0.02293 0.158045,0.229658 -0.625122,0.610659 -0.668514,3.240264 0.402872,3.534481 0.313267,0.0889 1.517297,-0.694267 1.974497,-0.830792 4.659136,-1.398058 7.021689,-3.684058 7.021689,-6.795558 0,-1.857375 -2.303639,-5.048603 -4.244975,-5.484636 -0.462492,-0.103717 -0.416631,-0.397581 0.0575,-0.315736 2.222853,0.384175 4.723341,3.625497 4.723341,5.800372 0,3.328458 -2.411941,5.828947 -7.430911,7.21748 -0.538338,0.148873 -1.6256,1.058686 -2.231319,0.894292"
     style="fill:#0f141b;fill-opacity:1;fill-rule:nonzero;stroke:none;stroke-width:0.352778"
     id="path8428" />
  <path
     d="m 16.002302,54.437823 c -0.552097,0 -1.678869,-0.254 -1.779411,-0.727781 -0.221192,-1.043516 0.394758,-1.793522 1.665817,-2.059869 l 0.279047,0.396522 c -1.086909,0.174978 -1.635831,0.640645 -1.486959,1.5621 0.131939,0.158045 0.964142,0.432153 1.398764,0.384881 z"
     style="fill:#0f141b;fill-opacity:1;fill-rule:nonzero;stroke:none;stroke-width:0.352778"
     id="path8432" />
</svg>
