<?xml version="1.0" encoding="UTF-8"?>
<!-- Created with Inkscape (http://www.inkscape.org/) -->
<svg version="1.1" viewBox="0 0 254.24 312.91" xmlns="http://www.w3.org/2000/svg">
 <g transform="translate(26.874 11.099)" stroke-width="1.9557">
  <rect x="-26.874" y="-11.099" width="254.24" height="312.91" fill="#fff" opacity="0" data-name="長方形 26568"/>
  <path d="m217.21 250.98c-0.12713-7.983-42.771-9.9074-45.059-12.336-0.92505-0.97789-3.1291-3.4362-4.3572-4.6252 8.5149-12.137 7.4432-20.926 6.438-22.529a4.7718 4.7718 0 0 0-4.2927-1.0717c0.30675-5.0222-1.4433-15.059-4.8892-17.366-5.4856-3.6572-26.089 5.2158-33.536 11.713-12.047-8.5795-23.781-15.645-31.095-17.343-13.786-2.298-34.576-3.6317-39.156-1.3416-3.1584 2.1707-5.5091 8.0867-6.3657 12.667a18.213 18.213 0 0 0-0.74902 2.738c-5.1532 7.015-27.379 31.834-34.189 33.149-7.6428 1.4745-35.669 0.67115-35.804 6.704-0.12514 5.6245 8.3664 9.616 10.713 10.561-2.9061 0.97783-4.7268 2.693-4.6799 4.0502 0.12714 3.6844 10.87 7.0776 25.076 6.571 10.334-0.49302 26.37-2.4211 39.297-4.144 7.4413 8.8474 21.014 14.628 42.438 16.212a74.722 74.722 0 0 0 41.642-8.3605c1.852 2.427 3.6141 4.6936 5.2256 6.751 5.7731 7.3768 31.975 11.605 36.34 7.236a2.9922 2.9922 0 0 0 0.34592-3.5437c20.589-3.084 36.782-18.276 36.665-25.692" fill="#f5fafd" data-name="パス 13350"/>
  <g fill="#d3d9db">
   <path d="m109.19 190.84a42.51 42.51 0 0 0-8.779-3.4243c-13.786-2.298-34.576-3.6298-39.156-1.3396-2.7106 1.8637-4.8227 6.485-5.91 10.652 10.672 6.8448 35.398 0.32079 53.845-5.8885" data-name="パス 13351"/>
   <path d="m169.94 210.41a35.175 35.175 0 0 0-3.4029-15.741 82.218 82.218 0 0 1-1.8266 16.948c1.4746-0.40284 5.1493-1.1734 5.2295-1.2067" data-name="パス 13352"/>
   <path d="m164.1 230.06c1.2927 1.3123 3.6864 3.9564 3.6864 3.9564 4.0248-4.5587 8.4485-16.829 6.571-20.853a46.649 46.649 0 0 1-10.259 16.897" data-name="パス 13353"/>
   <path d="m124.75 246.62c-9.0939 8.0026-63.7 13.029-77.445-8.1122-4.9087 6-11.427 14.703-25.881 18.774a86.591 86.591 0 0 1-28.103 1.9792c4.2047 2.1317 12.262 3.5965 21.935 3.2503 10.332-0.4908 26.37-2.4192 39.297-4.144 7.4413 8.8474 21.014 14.628 42.438 16.214a74.728 74.728 0 0 0 41.638-8.3585v-0.0902a219.23 219.23 0 0 1-13.885-19.512" data-name="パス 13354"/>
   <path d="m176.24 271.96a21.921 21.921 0 0 1 4.3142 4.6936c20.583-3.09 36.767-18.276 36.653-25.69a2.382 2.382 0 0 0-0.29935-1.0444c-6.5867 10.602-27.096 21.62-40.668 22.033" data-name="パス 13355"/>
  </g>
  <path d="m190.25 67.922c9.6552-1.8774 12.886 2.822 10.729 15.555-8.8983 52.535-61.944 62.802-119.62 51.763-45.151-8.6422-83.116-34.179-81.268-75.489 2.0124-45.176 49.342-68.933 94.41-59.407 34.158 7.2184 57.78 26.738 75.632 55.518 7.0267 11.329 11.411 13.762 20.114 12.068" fill="#44bcce" data-name="パス 13356"/>
  <path d="m116.5 86.168c-36.209 21.188-88.23 22.795-113.72-6.706l-0.26795 0.11901c8.9844 29.726 41.435 48.501 78.849 55.666 57.673 11.04 110.72 0.78224 119.62-51.763a41.851 41.851 0 0 0 0.62015-5.9022c-15.395 24.366-52.553 29.583-85.101 8.5854" fill="#39a4b4" data-name="パス 13357"/>
  <path d="m146.27 118.08c-7.236-10.729-30.313-23.885-45.059-26.284l-79.119 1.6095c-4.7093 7.0619-12.641 37.637-10.107 54.739 1.7601 11.853 10.091 34.893 58.115 39.667 41.519 4.1265 68.188-3.7647 74.718-31.672a111.96 111.96 0 0 0 1.4492-38.059" fill="#f5fafd" data-name="パス 13358"/>
  <path d="m146.27 118.08c-7.236-10.729-30.313-23.885-45.059-26.284l-79.119 1.6095c-4.7093 7.0619-12.641 37.637-10.107 54.739 1.7601 11.853 10.091 34.893 58.115 39.667 41.519 4.1265 68.188-3.7647 74.718-31.672a111.96 111.96 0 0 0 1.4492-38.059" fill="#f5fafd" data-name="パス 13359"/>
  <path d="m11.506 139.87a52.877 52.877 0 0 0 0.4772 8.2803c1.7601 11.851 10.023 35.161 58.048 39.935 38.022 3.7783 63.645-2.8025 72.698-25.322-45.381 15.583-110.79-6.2386-131.23-22.891" fill="#d3d9db" data-name="パス 13360"/>
  <path d="m28.395 25.959a12.321 12.321 0 0 0 8.0456 4.6936c6.9035 1.15 11.607-5.2412 16.091-4.4257 4.4257 0.80382 7.0404 5.9668 13.41 7.6427 4.721 1.2418 13.25-0.87027 18.272-2.2784 5.732-1.6095 8.6851 5.1063 2.0123 9.2523a33.479 33.479 0 0 1-22.731 4.6271c-6.5554-1.2282-12.383-4.7288-14.924-8.1649-0.39116-0.52775-0.62584-0.54918-1.1147-0.22691a20.339 20.339 0 0 1-15.645 2.4583 14.398 14.398 0 0 1-10.527-9.1525c-2.3468-5.9335 3.4029-8.5932 7.1069-4.4257" fill="#fff" data-name="パス 13361"/>
  <path d="m147.07 269.95c-10.191-9.2522-34.705-47.789-38.186-57.149 5.1317 21.512 23.701 45.763 34.969 60.166 5.7731 7.3768 31.975 11.605 36.34 7.236a3.4733 3.4733 0 0 0 0.26831-4.1245c-2.515 3.8879-26.988-0.31709-33.391-6.1349" fill="#d3d9db" data-name="パス 13362"/>
  <path d="m84.214 201.66c-2.5991 4.4609-15.186 15.925-20.55 15.522-1.9967-0.15079-4.6486-2.695-6.571-4.5606 1.9009 5.1826 5.5561 8.1786 7.6447 8.1786 6.9719 0 19.175-11.699 22.193-18.841 1.1206-2.6538-0.95631-3.3246-2.7164-0.30083" fill="#d3d9db" data-name="パス 13363"/>
  <g fill="#0d131a">
   <path d="m147.35 135.7c30.291-6.5417 47.992-25.091 52.607-52.381 2.0887-12.321-0.84877-16.064-9.5183-14.374-9.2855 1.8012-14.036-1.0091-21.186-12.538-18.835-30.366-43.359-48.373-74.971-55.052-45.405-9.5945-91.218 14.667-93.17 58.447a57.346 57.346 0 0 0 16.402 43.136l-0.55739 3.2484c-12.076-11.947-19.584-27.289-18.737-46.302 2.0593-46.191 49.785-71.245 96.283-61.408 32.192 6.796 57.426 25.453 76.572 56.315 7.1929 11.595 11.237 13.187 19.042 11.668 10.459-2.4152 14.814 3.2033 12.471 17.03-5.1747 30.548-24.812 48.671-55.246 54.866z" data-name="パス 13364"/>
   <path d="m106.84 91.803c18.675 5.071 38.423 20.456 40.633 25.881a107.26 107.26 0 0 1-1.0737 38.888c-5.1453 21.992-22.817 32.632-49.615 32.988-3.2914 0.0444-3.3833-1.5645-0.13526-1.7425 27.139-1.5176 42.532-12.1 47.165-31.905a111.1 111.1 0 0 0 1.4608-37.453c-6.5828-9.5026-26.846-21.624-41.386-25.07z" data-name="パス 13365"/>
   <path d="m22.319 95.037c-4.7327 8.6186-11.699 36.845-9.3109 52.963 3.8703 26.13 29.703 36.418 58.705 39.147 3.0293 0.28532 2.8749 1.852-0.13305 1.6095-33.16-2.6754-57.258-14.224-61.15-40.498-2.4348-16.428 4.9146-45.154 9.7901-54.172z" data-name="パス 13366"/>
   <path d="m61.831 186.92c-3.7158 2.56-6.4948 11.396-6.2581 15.589 0.56516 10.136 6.8781 16.604 9.3344 17.014 5.3546 0.8937 18.9-12.399 20.867-18.411 0.56102-1.7151 1.6955-1.7933 1.4081 0.19587-1.0111 7.0247-15.861 21.816-22.686 20.668-4.015-0.67041-10.786-8.9961-11.364-19.361-0.23668-4.2477 2.4641-12.923 6.2151-16.263z" data-name="パス 13367"/>
   <path d="m168.6 234.62c6.7646-10.205 8.8396-21.794 5.6988-24.07-2.5169-1.8247-13.396-1.6917-23.601 8.1806l1.6624 1.4081c6.9935-7.4531 18.567-9.8409 20.802-7.8618 2.0652 1.8266-1.1108 13.34-6.5906 20.566z" data-name="パス 13368"/>
   <path d="m139.64 267.25a75.389 75.389 0 0 1-42.749 8.8416c-22.762-1.6839-38.312-8.6226-45.661-19.915-6.796-10.439-6.7177-25.078-0.16823-43.416a46.173 46.173 0 0 0 1.7601-9.6611l2.6812-2.8807c-1.0952 3.9876-0.78227 8.6304-2.3996 13.156-6.3227 17.701-6.2679 31.682 0.15648 41.554 6.9798 10.725 21.72 16.991 43.807 18.628a73.474 73.474 0 0 0 41.204-8.2432z" data-name="パス 13369"/>
   <path d="m105 187.82c19.398 7.7014 56.38 37.584 67.918 49.844 3.0744 2.2686 45.817 3.8839 45.958 13.074 0.12935 8.1179-16.697 23.836-37.918 27.156l-0.90938-2.1923c20.685-2.955 36.233-18.207 36.129-24.712-0.10348-6.5045-42.419-9.1408-44.785-11.648-12.35-13.121-54-46.924-71.227-50.93z" data-name="パス 13370"/>
   <path d="m142.85 273.77c-10.938-13.977-33.745-42.708-35.804-66.982-0.19514-2.4074 1.326-2.4857 1.6096-0.0998 2.777 23.255 25.195 51.825 36.012 65.644 5.6147 7.1753 31.095 10.864 34.811 7.148a1.7288 1.7288 0 0 0 0.32079-1.9772c-1.017-3.1291-6.2953-7.2829-13.506-8.7614-1.9713-0.40505-2.2119-1.807 0.30305-1.5078 10.158 1.2067 19.248 9.7197 14.885 14.081-5.0848 5.0848-32.72 0-38.621-7.543" data-name="パス 13371"/>
   <path d="m131.88 205.78c7.144-6.5769 27.859-15.031 32.589-11.881 2.7692 1.8462 3.8957 9.5632 4.2517 16.584 0.037 0.7155 2.3468 0.75874 2.3468 0.0591-0.14044-7.5195-1.2262-16.175-5.2803-18.741-6.5045-4.1069-27.759 5.1297-35.501 12.677z" data-name="パス 13372"/>
   <path d="m-4.3778 251.08c-2.7379-0.99941-10.561-4.9303-10.453-9.7393 0.10363-4.6525 27.966-4.3651 34.971-5.7164 6.6141-1.277 27.153-23.452 33.909-32.298l-0.01183-4.1812c-1.1362 2.955-27.325 32.932-34.396 34.297-9.262 1.7875-36.947 0.15227-37.113 7.543-0.12906 5.8259 8.0182 10.117 11.1 11.493z" data-name="パス 13373"/>
   <path d="m15.521 263.72c-16.797 0.40284-26.691-3.2523-26.853-7.9459-0.15056-4.4002 9.4557-6.5065 12.974-5.4309 2.2705 0.69406 1.985 1.9127-0.19558 1.7093-6.0841-0.56324-10.279 2.6558-10.236 3.8527 0.0687 1.9811 7.4746 5.9081 22.658 5.6167z" data-name="パス 13374"/>
  </g>
  <path d="m82.73 117.6c-3.0959 10.688-10.042 18.119-15.514 16.533-5.7634-1.6701-7.674-10.582-4.3025-22.22 2.8729-9.9211 10.527-17.924 15.512-16.48 4.985 1.4433 7.543 10.989 4.3024 22.168" fill="#005ca1" data-name="パス 13375"/>
  <path d="m38.156 114.94c-2.8866 9.9974-8.5619 16.819-12.671 15.172-4.3279-1.7327-5.3566-10.193-2.2138-21.078 2.6793-9.2816 8.9237-16.623 12.667-15.125 3.7432 1.498 5.2373 10.572 2.2177 21.029" fill="#005ca1" data-name="パス 13376"/>
  <path d="m61.391 125.17c0.53781 4.7562 2.5619 8.0182 5.8181 8.9589 2.777 0.80376 5.9296-0.71993 8.7692-3.8038-1.3495-7.1851-10.044-10.365-14.589-5.1551" fill="#89a2ce" data-name="パス 13377"/>
  <path d="m21.541 122.53c0.3403 3.9426 1.6916 6.6806 3.9446 7.5821 2.4094 0.96415 5.3546-0.99741 7.9635-4.7875-0.58666-6.8996-7.9126-9.174-11.906-2.7966" fill="#89a2ce" data-name="パス 13378"/>
  <path d="m74.893 114.06c-1.2183 4.6095-4.0052 7.809-6.1349 7.236-2.1298-0.57284-2.7966-4.6526-1.5783-9.264 1.1323-4.281 4.1245-7.8383 6.0626-7.326 1.9381 0.51223 2.9335 4.5215 1.6486 9.3442" fill="#fff" data-name="パス 13379"/>
  <path d="m34.597 109.41c-1.1734 4.4374-3.5965 7.4315-5.339 6.7998-1.7425-0.63198-2.1512-4.6486-0.97783-9.086 1.0913-4.1206 3.6962-7.4628 5.2803-6.882 1.5841 0.58097 2.2608 4.5254 1.0326 9.1682" fill="#fff" data-name="パス 13380"/>
  <g fill="#0d131a">
   <path d="m11.684 130.3a14.709 14.709 0 0 0 1.8442 6.5554l1.588-1.3005c-0.78226-0.65341-1.809-6.3774-1.6545-10.459z" data-name="パス 13381"/>
   <path d="m96.785 95.55c11.175 14.186 8.6265 44.963-13.41 49.617-1.9009 0.40062-2.2724-1.2379-0.40062-1.7425 21.454-5.7927 20.233-36.18 11.527-46.74z" data-name="パス 13382"/>
   <path d="m66.93 135.12c-5.9648-1.7269-8.8377-10.561-5.0847-23.54 2.824-9.7549 10.793-18.903 16.858-17.134 5.6284 1.6291 8.4837 11.712 5.0672 23.505-3.1154 10.756-10.41 19.036-16.85 17.171m14.812-17.806c3.1075-10.727 0.66524-19.656-3.6023-20.892-4.0522-1.1734-11.396 5.9628-14.237 15.776-3.1291 10.811-1.6506 19.426 3.6004 20.947 2.2529 0.65119 4.9556-0.54771 7.6115-3.3794a31.136 31.136 0 0 0 6.6277-12.452" data-name="パス 13383"/>
   <path d="m25.102 131.07c-4.4804-1.7934-6.5671-9.8214-2.9433-22.371 3.2797-11.355 10.279-17.3 14.161-15.741 4.5743 1.8285 5.8416 11.82 2.824 22.269-2.7555 9.5456-8.8103 17.935-14.042 15.841m-0.8429-21.749c-2.8787 9.9739-2.2021 18.313 1.6076 19.838 3.3246 1.3181 8.6049-5.1962 11.3-14.503 3.0704-10.631 1.1304-18.69-1.6115-19.787-2.5717-1.0208-8.5111 4.807-11.296 14.454" data-name="パス 13384"/>
  </g>
  <path d="m78.146 219.2c4.6936 0.34445 14.603 11.783 19.981 14.216 6.8449 3.0998 21.988-1.281 27.088 1.8774 5.6323 3.487-1.4511 13.842-6.4362 20.517-16.623 22.261-26.151 39.7-37.682 36.743-10.193-2.6069-8.0554-21.405-9.3872-51.63-0.40062-9.1174 0.2624-22.175 6.4381-21.724" fill="#44bcce" data-name="パス 13385"/>
  <path d="m50.942 252.98c-3.3657 0.52406-8.163 1.1558-9.4029 0.41245-2.7379-1.6388-8.5815-15.69-10.459-25.212-1.5215-7.7229-2.5248-25.78-9.6551-24.808-7.721 1.0522-10.097 11.388-14.216 12.471-2.5424 0.67041-9.2132-1.6388-12.739 0.93672-5.0632 3.7002-1.3474 15.043 13.545 36.342 12.469 17.836 17.93 22.938 22.93 21.188 5.3644-1.8774 8.4954-9.4928 12.203-10.729a78.059 78.059 0 0 1 13.508-2.9335 29.55 29.55 0 0 1-5.7125-7.6642" fill="#44bcce" data-name="パス 13386"/>
  <path d="m50.94 252.98c-1.9283 0.37919-6.0508 1.0834-8.867 1.5861-2.9746 0-4.4511-0.75689-6.2366-4.324-3.7803-7.5625-8.8377-16.545-9.6512-23.937-1.2614-11.466-3.3344-14.431-5.4348-14.752-5.5463-0.84485-4.2751 7.7308-11.668 10.729-4.9615 2.0123-8.5815-2.1512-12.338-1.0737a6 6 0 0 0-3.9113 4.0404c1.4609 6.1114 6.3344 15.223 15.182 27.876 12.469 17.836 17.93 22.938 22.93 21.188 5.3644-1.8774 8.4954-9.4928 12.203-10.729a78.049 78.049 0 0 1 13.506-2.9335 29.56 29.56 0 0 1-5.7125-7.6642" fill="#39a4b4" data-name="パス 13387"/>
  <path d="m119.99 240.11c-3.6532-1.8735-16.166 1.8246-22.93 0.13453-3.2191-0.80375-11.539-12.739-18.104-13.277-4.1988-0.34223-6.1134 9.4889-7.0032 20.315 0.84869 26.48-0.30675 42.841 9.1466 45.26 10.504 2.6871 19.342-11.538 33.397-30.913 6.8332-11.329 8.4426-20.006 5.4915-21.512" fill="#39a4b4" data-name="パス 13388"/>
  <path d="m125.89 69.541c-0.74706-2.4544-6.4381-3.7549-14.482-1.3396l-97.357 21.186c10.496 11.116 32.976 15.602 57.395 12.606 43.717-5.3644 56.323-26.284 54.444-32.452" fill="#44bcce" data-name="パス 13389"/>
  <path d="m5.7331 150.4c0-13.58 17.853-20.99 26.82-20.517 9.5828 0.50484 16.623 4.6212 28.162 11.265 14.216 8.1786 16.942 12.712 16.494 20.785-0.76665 13.815-27.223 18.907-40.496 16.232-15.645-3.1584-30.978-14.2-30.978-27.759" fill="#ffdb4e" data-name="パス 13390"/>
  <path d="m53.471 163.27c-13.277-1.3396-22.803-15.403-29.233-15.555-6.1584-0.14636-9.7901 9.7217-12.739 9.9895a7.9654 7.9654 0 0 1-4.852-1.6388c3.5085 10.897 16.67 19.383 30.063 22.089 12.176 2.4603 35.421-1.6252 39.786-12.976a70.261 70.261 0 0 1-11.662-4.0834c-2.384 1.9987-6.4537 2.6714-11.362 2.1747" fill="#dabd44" data-name="パス 13391"/>
  <path d="m121.44 31.817c0.41097 15.08-11.183 31.682-14.736 35.578-3.0372 3.3246-0.80382 7.236 1.3396 4.8286 14.472-10.962 17.816-30.24 13.394-40.406" fill="#39a4b4" data-name="パス 13392"/>
  <path d="m125.89 69.541a2.9061 2.9061 0 0 0-1.5-1.6095c-2.4954 10.776-24.037 26.454-41.173 32.102 34.224-7.3005 44.37-24.919 42.673-30.493" fill="#39a4b4" data-name="パス 13393"/>
  <g fill="#0d131a">
   <path d="m112.14 66.919c7.4589-1.9987 13.787-1.2888 14.814 2.0847 2.204 7.2458-9.796 28.78-55.617 34.396-18.849 2.3135-45.254-0.17814-56.924-12.571-1.414-1.5-0.1819-2.425 1.3083-1.0072 10.422 9.9289 31.549 14.1 55.592 11.147 44.181-5.4231 55.083-26.206 53.585-31.134-0.46123-1.5156-5.1845-3.3481-14.941-0.23062z" data-name="パス 13394"/>
   <path d="m107.14 71.014c16.578-13.478 18.383-37.504 9.8507-43.265-7.0658-4.7816-32.202 23.822-50.652 26.169-2.2256 0.28384-2.472-1.0013-0.26794-1.543 20.063-4.9146 43.048-32.982 52.031-26.92 10.952 7.3964 7.4491 33.507-9.7549 46.868-2.0769 1.6115-3.1936 0.30675-1.2067-1.3083" data-name="パス 13395"/>
   <path d="m58.065 261.81c-2.0417-0.25796-10.834 1.7014-14.482 2.9159-3.1858 1.0639-6.6317 9.2249-12.17 11.163-6.1076 2.1356-12.69-5.0848-24.641-22.126-17.169-24.495-18.849-33.999-13.076-38.218 3.8331-2.7986 11.081-0.35997 13.175-0.90546 3.3677-0.88395 6.1252-11.775 14.181-12.874 8.2803-1.1128 9.2542 13.68 11.366 26.05 1.6369 9.5828 7.3025 22.989 9.5534 24.338a15.98 15.98 0 0 0 8.1473-0.40283l1.7718 2.1239c-6.4791 1.0346-9.6317 1.1519-10.885 0.40284-3.2816-1.9694-9.131-16.727-10.94-25.895-1.3475-6.8448-2.5893-24.825-8.5052-23.986-7.2692 0.98958-9.3755 11.204-14.093 12.446-2.8924 0.76074-9.1662-1.5822-12.395 0.78225-3.2288 2.3645-3.4283 10.312 13.78 34.922 12.086 17.284 17.374 22.34 21.749 20.806 5.2001-1.8188 7.9361-9.3051 12.217-10.733a86.89 86.89 0 0 1 12.276-2.8162z" data-name="パス 13396"/>
   <path d="m78.214 217.72c5.2216 0.39101 15.33 12.27 20.517 14.617 6.4537 2.9218 21.831-1.6643 27.223 1.676 4.5821 2.8377 3.9114 9.0313-6.1682 22.527-17.343 23.214-26.908 40.582-39.19 37.447-9.8057-2.5072-8.7575-19.08-10.259-53.102-0.72141-16.353 2.2353-23.625 7.8775-23.165m-5.4759 23.155c1.3787 31.291-0.56323 48.328 8.605 50.675 10.49 2.7066 20.304-14.548 36.602-36.362 6.0841-8.1454 10.911-16.428 6.7197-19.027-4.6036-2.8474-19.915 1.369-26.971-1.8148-5.4954-2.4857-15.45-13.819-19.631-14.126-4.1166-0.25205-5.8787 8.3194-5.3331 20.654" data-name="パス 13397"/>
   <path d="m58.9 261.28a29.347 29.347 0 0 1-5.6441-6.3579 27.706 27.706 0 0 1-1.8481-3.3246l-2.3468 0.60832a29.276 29.276 0 0 0 2.1512 3.9563 31.148 31.148 0 0 0 4.5704 5.4895z" data-name="パス 13398"/>
   <path d="m35.905 179.37c-15.417-3.1134-31.647-14.722-31.647-29.233 0-13.568 17.978-22.257 28.295-21.724 10.561 0.55732 18.579 5.9726 28.697 11.801 13.856 7.9732 18.006 12.569 17.501 21.655-0.81358 14.656-28.874 20.317-42.845 17.501m-29.139-28.965c0 10.015 10.561 22.795 30.153 26.75 12.53 2.5424 38.542-2.2275 39.266-15.274 0.42206-7.6096-1.9283-11.75-15.982-19.836-9.9192-5.7106-17.754-10.606-27.702-11.128-8.1884-0.46344-25.737 6.4302-25.737 19.49" data-name="パス 13399"/>
   <path d="m53.205 164.42c-13.299-1.3416-23.304-15.532-28.991-15.667-5.5443-0.17001-8.6225 9.1428-12.446 10.101a3.1291 3.1291 0 0 1-2.5424-1.0072c-1.41-1.41-0.80573-1.8696 0.87223-1.2067a2.7008 2.7008 0 0 0 1.2927 0.0746c2.515-0.62606 6.221-10.17 12.88-10.021 7.0169 0.16852 16.396 14.255 29.314 15.561 6.1897 0.62606 10.756-0.66302 12.235-3.6023 0.78226-1.545 1.809-1.1734 1.2731 0.53588-1.4022 4.498-7.1793 5.908-13.885 5.2294" data-name="パス 13400"/>
   <path d="m25.505 134.78a3.0156 3.0156 0 0 1-0.23668-0.91913c-0.07244-1.1441 1.0404-1.369 1.0913-0.13674 0.01774 0.4287 0.03326 0.91721 0.02365 1.0561-0.04878 0.82917-0.56323 0.75097-0.88006 0" data-name="パス 13401"/>
   <path d="m33.625 135.51c0.21509-0.12492 0.92307-0.47158 1.4296-0.68668 1.1265-0.48488 1.7034 0.69628 0.50654 1.0639a7.5548 7.5548 0 0 1-1.6643 0.39101c-0.78227 0.0222-0.85267-0.42649-0.27186-0.76664" data-name="パス 13402"/>
  </g>
 </g>
</svg>
