<?xml version="1.0" encoding="UTF-8"?>
<!-- Created with Inkscape (http://www.inkscape.org/) -->
<svg version="1.1" viewBox="0 0 266.77 296.42" xmlns="http://www.w3.org/2000/svg">
 <g transform="translate(29.186 14.81)" stroke-width="1.9761">
  <rect x="-29.186" y="-14.81" width="266.77" height="296.42" fill="#fff" opacity="0" data-name="長方形 26523"/>
  <path d="m194.2 235.97a50.205 50.205 0 0 1 4.9225-9.3371c-8.4617 4.7585-43.138 9.6039-43.684 29.246 1.9761-0.52953 8.8628-0.0971 14.562 0.66173 7.5428 1.0058 25.189 7.9044 29.916 1.7212 4.1913-5.4817-5.5786-12.562-5.7149-22.3" fill="#39a4b4" data-name="パス 14430"/>
  <path d="m220.17 137.33a3.1835 3.1835 0 0 0-2.7764 1.8298c-2.4879-3.557-4.9916-5.4718-6.952-5.4046-4.3059 0.15013-12.013 7.9044-21.611 20.227-12.906-9.2008-34.333-10.361-43.917-0.96825-21.976 19.664-40.409 40.99-29.387 67.117 6.5508 14.098 22.543 21.047 45.47 21.047 34.661 0 64.421-28.825 66.322-53.811 0.19762-2.6539 0.29046-5.2327 0.29442-7.7423 3.0491-26.383-5.1063-42.174-7.444-42.289" fill="#f5fafd" data-name="パス 14431"/>
  <path d="m160.8 146.57c-5.3157 1.0651-12.902 3.5432-15.884 6.4638a185.63 185.63 0 0 0-17.39 17.378 91.296 91.296 0 0 1 26.923-12.206c-0.61453-3.4404 3.5748-10.624 6.3512-11.625" fill="#d3d9db" data-name="パス 14432"/>
  <path d="m114.3 216.86c0.36372 1.0888 0.75688 2.1737 1.2232 3.2863 6.5508 14.098 22.543 21.049 45.47 21.049 32.628 0 63.641-26.409 66.322-53.813-11.659 24.622-67.903 43.01-113.02 29.478" fill="#d3d9db" data-name="パス 14433"/>
  <path d="m143.26 82.077c5.5608 3.7071 20.915 24.887 22.239 34.418 3.2942 23.713-25.199 48.217-41.036 59.769-24.832 18.121-53.823 24.257-63.542 16.084-8.7364-7.3472-30.976-38.522-37.066-54.145-9.4696-24.504 84.453-75.837 119.41-56.121" fill="#f5fafd" data-name="パス 14434"/>
  <path d="m165.03 126.89c-17.028 22.053-61.619 55.001-90.609 50.169-1.3833 3.7743-7.8432 12.41-10.722 13.303-1.5354 0.4765-6.1596-2.2389-8.0784-3.4285a53.412 53.412 0 0 0 5.298 5.4146c6.4085 5.3889 21.198 4.5569 37.649-1.8319 2.8278-1.0987 5.707-2.3713 8.598-3.7981 7.4282-5.8097 14.098-11.066 14.714-11.643a75.179 75.179 0 0 1 20.032-12.501c10.689-9.9892 20.354-22.666 23.12-35.685" fill="#d3d9db" data-name="パス 14435"/>
  <g fill="#0d131a">
   <path d="m98.781 191.95c-17.048 6.6318-32.211 7.3867-38.787 1.8516-8.523-7.1673-29.027-36.123-36.404-52.157l2.6894-0.3951c7.4183 15.87 26.984 43.32 35.295 50.31 5.9876 5.0332 20.67 4.4502 37.514-2.2903z" data-name="パス 14436"/>
   <path d="m119.88 225.34c7.6021 9.7383 21.65 14.843 41.121 14.843 34.507 0 63.433-28.422 65.308-52.873 2.3713-31.124-9.9141-52.517-15.831-52.523-2.9049 0.10083-9.6533 4.6616-25.294 25.689a1.8319 1.8319 0 0 1-2.5294 0.7409c-6.5468-2.1954-24.646-3.6716-31.639-1.4346-2.0334 0.64978-2.4247-0.53775-0.33199-1.4564 7.3274-3.2171 25.887-1.6876 32.699 0.66174 17.143-23.929 23.911-26.897 27.073-27.005 7.1278-0.48622 21.217 21.935 18.664 55.4-2.0097 26.324-32.926 55.4-68.241 55.4-22.456 0-38.534-7.3847-45.737-20.056z" data-name="パス 14437"/>
   <path d="m212.13 173.88c-0.85565-8.5763-8.2997-25.919-12.378-26.598-4.0787-0.67966-12.519 11.608-14.726 23.911-0.42094 2.3536-1.6362 2.1421-1.49-0.3951 0.53752-9.2877 9.2877-27.023 16.582-26.112 6.2445 0.79042 13.858 20.947 13.602 29.09-0.079 2.5334-1.3477 2.5136-1.5809 0.0986" data-name="パス 14438"/>
   <path d="m227.33 188.17c6.6476-28.786-2.9464-52.331-7.0211-52.549a5.0391 5.0391 0 0 0-3.9048 2.7132l1.4564 2.2706c0.58099-1.8022 1.6362-2.2469 2.1737-2.2666 1.5947 0.64829 8.5131 13.635 7.0409 36.147z" data-name="パス 14439"/>
   <path d="m153.81 148.91a42.698 42.698 0 0 1 34.566 6.0034l1.4208-2.0808a43.656 43.656 0 0 0-33.576-6.8966z" data-name="パス 14440"/>
   <path d="m183.59 236.63a14.03 14.03 0 0 1-3.723 6.1062c-1.3181 0.98804-1.9445 0.11427-1.0434-0.98812a34.173 34.173 0 0 0 2.3911-4.4146z" data-name="パス 14441"/>
   <path d="m198.96 228.77c-4.8711 7.9044-6.7188 14.876-5.794 18.326 0.42094 1.5631-0.48413 2.0472-1.2904 0.44664-1.7943-3.557 0.0635-9.9951 3.5214-16.599z" data-name="パス 14442"/>
   <path d="m193.23 236.98c0.7173 9.3134 9.3213 16.176 5.8829 20.674-4.2032 5.4956-21.646-1.1323-28.976-2.1125a77.201 77.201 0 0 0-13.912-0.80819l0.67189 2.3436a72.59 72.59 0 0 1 12.973 0.66173c7.1851 0.96033 26.243 8.3411 31.507 1.4563 5.045-6.5962-6.7563-14.228-6.0884-24.622z" data-name="パス 14443"/>
   <path d="m150.77 87.6c6.7188 8.1593 15.281 21.281 16.283 28.495 2.1599 15.544-8.438 31.638-20.862 42.923-2.1263 1.9307-3.3021 0.7766-1.2805-1.2943 10.869-11.143 21.623-26.397 19.581-41.093-0.96433-6.9401-9.5742-20.146-16.095-27.96z" data-name="パス 14444"/>
  </g>
  <path d="m73.035 144.29a48.867 48.867 0 0 0-18.749-20.492 4.0155 4.0155 0 0 0-2.5334 0.44439c-3.9996 2.3101-2.6025 12.216 3.1203 22.132 5.1043 8.8431 11.918 14.683 16.171 14.206 3.2863-6.1714 4.2565-11.857 1.9899-16.289" fill="#005ca1" data-name="パス 14445"/>
  <path d="m65.697 158.81a8.6257 8.6257 0 0 0 5.3473 1.7785 26.913 26.913 0 0 0 3.0491-8.6277c-4.9838-3.3594-10.452-0.49219-8.3965 6.8551" fill="#89a2ce" data-name="パス 14446"/>
  <path d="m69.062 162.46c3.2093-5.2209 5.8631-12.236 3.067-17.708-9.6355-18.852-26.527-26.581-33.021-21.504-3.3594 2.6203-7.1338 15.113 7.5092 33.056 1.1659 1.4288-0.14639 2.2706-1.3833 0.89326-15.39-17.078-12.778-32.108-7.7444-36.04 7.9854-6.2446 26.909 3.0174 36.835 22.437 2.569 5.0075 1.7212 12.252-3.8712 19.564-1.1857 1.5592-2.3595 0.87938-1.3833-0.69534" fill="#0d131a" data-name="パス 14447"/>
  <path d="m54.979 124.97a3.5056 3.5056 0 0 0-2.7211 0.15609c-3.2369 1.8694-1.9662 11.29 3.4918 20.749 5.3098 9.1948 12.855 15.341 16.216 13.396l-1.4011 2.3713c-4.4463 0-11.143-4.6083-16.892-14.57-5.1379-8.8925-7.6871-20.672-2.4306-23.713a4.6695 4.6695 0 0 1 1.9662-0.60497z" fill="#0d131a" data-name="パス 14448"/>
  <path d="m64.834 141.69c2.3515 3.9522 2.9957 7.9578 1.4168 8.8925-1.5789 0.93464-4.7822-1.5414-7.1337-5.4956-2.3516-3.9542-2.978-7.9242-1.3991-8.8629 1.5789-0.9386 4.7644 1.5078 7.114 5.462" fill="#fff" data-name="パス 14449"/>
  <path d="m191.18 185.79c-2.569-2.6914-10.007-0.41676-16.941 3.3495-9.017-6.1516-34.408-12.278-43.82-12.086-18.641-6.2682-27.351-0.80827-30.288 7.9202-4.9403 14.678 2.6164 35.758 28.501 44.502a51.416 51.416 0 0 0 23.433 1.2568c12.979 7.6278 21.415 8.7285 23.229 7.4815 2.8792-1.9761 1.8299-7.8511-3.0195-13.854a45.113 45.113 0 0 0 6.7939-4.2151c14.951-11.448 15.465-30.827 12.112-34.353" fill="#f5fafd" data-name="パス 14450"/>
  <path d="m138.56 221.73c-15.856-0.59302-29.497-9.6316-37.989-17.307 3.5846 10.094 12.511 19.799 28.061 25.051a51.412 51.412 0 0 0 23.433 1.2568c12.977 7.6278 21.415 8.7285 23.229 7.4815 2.8792-1.9761 1.8299-7.8511-3.0215-13.854a45.069 45.069 0 0 0 6.7939-4.2151 35.692 35.692 0 0 0 13.491-23.209c-7.94 12.1-21.935 26.008-53.999 24.798" fill="#d3d9db" data-name="パス 14451"/>
  <path d="m169.14 36.867c-1.6283-10.319-12.376-42.362-19.261-42.091-6.8848 0.27036-8.936 13.503-26.48 17.937-5.9283 1.5018-47.697-25.851-95.446 3.5096-49.47 30.416-57.25 80.724-37.194 109.01 10.276 14.501 33.029 24.743 50.899 8.936a80.289 80.289 0 0 0 16.994-20.206c10.104-9.1948 24.474-21.395 30.869-23.877 22.504-8.7364 45.14-0.52954 56.789-1.5808 11.264-1.0216 27.468-22.33 22.836-51.628" fill="#44bcce" data-name="パス 14452"/>
  <path d="m160.4 46.59c-12.509 0-11.485 10.355-31.969 19.856-19.261 8.936-30.183 5.3612-50.237 15.686a51.565 51.565 0 0 0-14.497 9.7304c0.80237 9.6079-0.37344 12.351-4.9402 21.982 10.098-9.181 24.381-21.297 30.75-23.771 22.504-8.7364 45.142-0.52953 56.791-1.5808 8.7502-0.79049 20.453-12.114 23.431-36.736a9.4418 9.4418 0 0 0-9.3292-5.1675" fill="#39a4b4" data-name="パス 14453"/>
  <path d="m-6.8576 102.59c9.5525-4.1498 13.69-16.368 10.325-25.417-2.9779-8.0091-12.845-5.5113-11.517 2.3832 1.0158 6.0292-0.26439 10.855-3.1776 11.914-2.0413 0.74314-5.7722-0.93069-7.942-6.8057a66.838 66.838 0 0 0 0.46456 16.704 12.562 12.562 0 0 0 11.845 1.2212" fill="#fff" data-name="パス 14454"/>
  <path d="m70.448 172.08c-4.7288-3.5728-22.498-5.6358-26.927-1.3121-3.6538 3.557-14.765 25.205-10.56 30.853 2.9899 4.0155 18.064 0.61094 25.664-3.8652l1.1007 2.1974c2.6183 5.4837 6.2919 8.9854 8.9024 8.3471 7.3115-1.7884 13.87-27.118 1.82-36.22" fill="#ffdb4e" data-name="パス 14455"/>
  <path d="m63.701 190.36c-1.9524 0.60497-8.936-3.97-8.936-3.97-1.071 2.229-23.769 12.074-15.323 16.994a46.549 46.549 0 0 0 19.18-5.6358l1.1007 2.1975c2.6184 5.4856 6.292 8.9854 8.9024 8.3471 6.2287-1.5236 11.896-20.105 6.0073-31.223-0.07469-0.0149-0.14191-0.0149-0.21361-0.0299-1.3833 3.7724-7.8432 12.41-10.722 13.303" fill="#dabd44" data-name="パス 14456"/>
  <path d="m59.133 182.51a6.6753 6.6753 0 0 1-1.5808 2.0966c-0.76876 0.64605-1.656 1.3082-2.6203 1.9762-1.0987 10.169 6.7622 17.155 11.946 17.281 0.37344-5.8414-3.6182-16.216-7.7384-21.358" fill="#b17690" data-name="パス 14457"/>
  <path d="m141.28 245.29c-5.3355 1.2785-20.984 8.1613-27.138 11.649-0.64007 0.36372-6.201-0.92486-12.45-0.3951-9.3766 0.79042-16.402 5.3354-16.283 7.8096 0.28829 6.0944 24.527 2.7171 32.037 2.5156 15.248-0.41078 36.007 9.266 39.449 4.1044 3.5274-5.29-1.4208-16.285 0.39525-19.194 1.5216-2.4346 9.7521-9.5584 14.505-13.208a41.866 41.866 0 0 1-12.665-4.0886c-6.2307 3.9068-16.352 10.448-17.858 10.809" fill="#44bcce" data-name="パス 14458"/>
  <g fill="#39a4b4">
   <path d="m157.29 251.78c1.5216-2.4346 9.7521-9.5584 14.507-13.208a41.894 41.894 0 0 1-12.667-4.0866c-6.2326 3.9048-16.352 10.448-17.858 10.807a130.43 130.43 0 0 0-17.078 6.6911c4.6972 5.5548 14.688 7.6001 33.126 5.8868-0.42878-2.6954-0.71932-4.9817-0.0254-6.0903" data-name="パス 14459"/>
   <path d="m50.183 95.37a36.645 36.645 0 0 0-3.8237 5.7683 35.392 35.392 0 0 0 3.8237-5.7683" data-name="パス 14460"/>
   <path d="m61.32 88.098a1.7153 1.7153 0 0 0-0.15983-0.0597c1.9366 5.2426-9.015 38.57-32.211 53.108a31.223 31.223 0 0 0 12.702-6.9776 80.315 80.315 0 0 0 16.995-20.206c-1.6975 1.5433-3.2764 3.0056-4.6755 4.3198 1.3991-1.3141 2.978-2.7665 4.6755-4.3198 7.6178-13.457 6.1655-23.656 2.6716-25.863" data-name="パス 14461"/>
   <path d="m46.885 47.843c5.8473 18.283 5.0707 34.544-1.6501 48.992-1.8239 3.9207 1.0928 4.6657 1.7785 4.2704 1.1066-2.0789 2.2825-3.8731 3.1618-5.7307 8.9695-16.753 6.1655-41.052-3.2981-47.525" data-name="パス 14462"/>
  </g>
  <g fill="#0d131a">
   <path d="m149.61-7.1485c9.7975 0 20.344 34.762 21.712 43.421 4.7012 29.768-12.376 53.187-24.358 54.276-11.807 1.0869-35.019-7.2839-57.189 1.3241-6.8571 2.6578-23.273 17.321-33.622 26.739l3.4424-6.8828c9.7995-8.6949 23.12-20.093 29.551-22.591 22.755-8.8371 45.182-0.56538 57.066-1.652 10.576-0.96437 26.48-21.583 21.925-50.458-1.903-12.054-12.718-41.241-18.16-41.241h-0.0575c-6.1971 0.23676-8.2167 13.343-26.266 17.907-6.9164 1.7567-47.28-26.057-95.161 3.389-48.023 29.519-57.163 78.995-36.908 107.56 9.8272 13.86 31.908 24.233 49.403 8.7641 24.935-22.063 24.257-41.629 19.785-44.451-1.5355-0.97616-7.9262 3.7546-13.027 11.519-0.95443 1.4524-2.235 0.56688-1.324-0.79049 14.55-21.757 7.5369-49.966-2.9998-52.292-11.969-2.6262-13.353 35.633-35.192 47.523-1.818 0.98812-2.48-0.18149-0.79042-1.324 22.504-15.236 21.567-52.339 36.661-48.98 11.629 2.569 17.21 27.006 9.6632 45.275 5.0608-4.3909 6.8966-4.3909 8.6039-3.31 5.9758 3.7744 6.367 25.871-19.461 48.715-17.372 15.368-40.771 9.1672-53.877-9.1335-21.704-30.316-10.286-82.171 37.999-111.86 48.541-29.839 89.925-1.9762 95.841-3.4424 17.297-4.3672 19.158-17.71 26.741-18.002" data-name="パス 14463"/>
   <path d="m62.071 201.8c2.4444 3.9522 5.0667 5.7307 6.5409 5.3532 6.2682-1.6125 12.647-25.887 1.0394-34.438-4.3474-3.2013-21.66-5.049-25.618-1.0908-3.8613 3.8613-13.726 24.899-10.104 29.642 2.4326 3.1895 16.232 0.22107 23.816-4.1498l1.1857 1.8852c-7.2484 4.468-23.466 8.7502-27.138 3.9364-4.792-6.2761 6.867-29.642 10.458-33.226 4.8039-4.8058 23.759-2.887 28.891 0.89326 12.821 9.4478 6.3887 36.817-1.7785 38.919-2.5373 0.658-7.3116-1.8871-10.161-9.1672z" data-name="パス 14464"/>
   <path d="m37.093 199.43c1.5236-5.6912 13.477-10.276 19.799-15.611a6.454 6.454 0 0 0 2.1737-5.5786c-0.33609-1.409 0.72148-1.8358 1.324-0.46232a6.6694 6.6694 0 0 1-2.0512 7.5467c-5.2959 4.4601-18.18 10.094-19.856 14.297-0.66173 1.656-1.8339 1.4623-1.3833-0.19793" data-name="パス 14465"/>
   <path d="m59.036 180.82c5.3355 5.701 10.019 19.016 8.4973 23.697-0.64231 1.9762-1.6165 1.4979-1.3833-0.19792 0.73343-5.4896-3.8534-16.402-7.9697-21.395z" data-name="パス 14466"/>
   <path d="m67.13 204.75c-5.5134 0-14.105-7.0389-13.301-17.825l2.1401-0.92478c-1.3971 10.248 6.7781 16.878 11.28 16.718h0.02241z" data-name="パス 14467"/>
   <path d="m175.95 188.7c-8.0902-6.3236-34.285-12.973-44.281-12.311-2.1935 0.14639-2.3279 1.3437-0.19792 1.3832 9.9438 0.21958 33.791 6.456 42.204 12.204z" data-name="パス 14468"/>
   <path d="m160.07 228.22a55.331 55.331 0 0 0 18.378-8.8807c14.39-11.019 14.906-29.788 11.995-32.847-3.0669-3.2191-17.275 2.8357-25.079 9.6276-1.0671 0.92874-1.9998 0.0523-0.98806-1.1857 5.375-6.6199 22.816-15.429 27.93-10.06 3.9522 4.1498 2.7428 24.701-12.449 36.337a44.577 44.577 0 0 1-19.394 8.5388c-2.3456 0.42498-2.6598-0.8952-0.39525-1.5236" data-name="パス 14469"/>
   <path d="m173.11 223.59-1.9761 0.98804c5.0114 5.9778 5.7307 11.329 3.5787 12.807-1.075 0.74314-8.0546 0.41302-20.354-6.4836-2.0789-1.1659-2.2192-1.1639-3.7546-0.96041a49.328 49.328 0 0 1-21.65-1.4188c-24.725-8.353-32.803-28.501-27.863-43.216 2.5255-7.5092 9.0526-11.066 18.801-9.932 3.1005 0.35999 3.4364-0.89319 0.19793-1.5808-8.6534-1.8576-18.18 0.98804-21.342 10.424-5.2623 15.649 2.8792 37.728 29.29 46.563 7.2701 2.4346 16.813 2.3358 24.014 1.3596 11.337 6.4935 21.342 9.1829 24.109 7.2799 3.2922-2.2646 2.6183-8.849-3.0432-15.819" data-name="パス 14470"/>
   <path d="m174.77 238.02c-3.9522 2.7962-14.754 11.845-16.348 14.396-1.5137 2.4226 3.4542 13.949-0.32997 19.625-4.1143 6.1714-24.405-4.717-40.641-3.8395-9.7956 0.52953-34.129 3.6143-34.483-3.7724-0.15834-3.3436 8.606-8.2424 18.334-9.0684a78.307 78.307 0 0 1 12.179 0.39509c6.3354-3.557 22.079-10.503 27.403-11.782 1.0967-0.28083 16.38-9.8213 17.607-10.59l2.2409 1.3102c-3.5274 2.2054-17.246 11.122-19.214 11.592-5.2268 1.2548-20.716 8.0546-26.875 11.546-1.0967 0.61841-6.5567-0.81223-12.86-0.27037-9.4853 0.80431-15.414 5.3552-15.352 6.7504 0.22108 4.717 25.968 1.6856 30.993 1.5492 14.69-0.4526 35.866 8.6949 38.631 4.545 3.2645-4.8968-1.7785-15.722 0.38136-19.168 1.5137-2.4246 9.4517-9.3648 14.396-13.2z" data-name="パス 14471"/>
   <path d="m44.353 175.63a11.137 11.137 0 0 0 1.6758-1.3121c1.1205-1.1086 0.14415-1.986-0.96631-0.98804a8.6257 8.6257 0 0 0-1.3833 1.5986c-0.49817 0.82208-0.07469 1.1699 0.67742 0.70131" data-name="パス 14472"/>
  </g>
 </g>
</svg>
