<?xml version="1.0" encoding="UTF-8"?>
<!-- Created with Inkscape (http://www.inkscape.org/) -->
<svg version="1.1" viewBox="0 0 343.77 374.92" xmlns="http://www.w3.org/2000/svg">
 <g transform="translate(66.802 63.027)">
  <path d="m268.53 162.85c-6.7797-4.2812-42.269 18.748-61.36 22.497-20.682 4.063-44.841 3.4608-58.75 1.5536-22.037-0.95576-62.944-2.7451-81.352-4.279-16.021-3.7509-69.368-28.122-72.606-29.656-4.0521-1.9202-30.339-48.407-42.952-47.724-13.956 0.75498-23.06 45.793-7.8401 70.561 22.552 36.7 66.439 44.743 105.53 34.372-11.513 19.239-22.567 43.467-14.345 55.536 9.5094 13.963 23.756 19.488 43.039 20.503 9.2782 7.766 30.569 14.151 39.539 12.734 4.2855-0.67859 10.432-7.8816 12.983-12.761 22.737-7.0612 37.839-34.132 43.207-46.561 11.84 3.956 24.481 5.5512 35.592 4.3532 9.1559-0.98632 28.013-5.2326 38.86-13.636 28.834-22.336 31.948-60.234 20.452-67.493" fill="#f5fbfd"/>
  <g fill="#d4d9db">
   <path d="m74.688 203.18c1.4271 8.9465 9.1799 18.707 17.603 20.346 8.9661 1.7435 18.135-4.6653 23.61-12.573-12.436 8.8243-36.189 5.2762-41.213-7.7725"/>
   <path d="m147.37 225.32c16.3 13.78 41.605 20.837 61.837 18.654 9.1581-0.98848 28.016-5.2326 38.86-13.636 9.1407-7.0808 15.689-15.724 20.014-24.461-22.717 27.101-70.799 43.486-120.71 19.442"/>
   <path d="m53.601 203.07c-39.884 11.078-93.737 0.60246-115.34-40.032 1.2634 4.5801 3.0374 8.9159 5.4006 12.761 16.394 26.68 52.182 47.885 105.52 34.398 0.41461-0.76804 3.6419-5.9919 4.4143-7.1266"/>
   <path d="m143.9 186.7c-22.735-0.99065-59.616-2.649-76.83-4.0826-1.3201-0.30989-2.913-0.77027-4.6914-1.3354 10.888 21.696 52.797 25.923 81.522 5.4181"/>
   <path d="m118.96 268.26c-5.8065 0.10886-13.304-1.8373-18.663-1.918-7.6721-0.11319-7.8838 2.3348-17.258 1.2786-18.94-2.134-38.544-12.141-46.932-31.26-4.3619 11.615-5.9483 22.458-1.259 29.342 9.5116 13.963 23.756 19.488 43.041 20.503 9.276 7.766 30.566 14.151 39.537 12.734 4.2855-0.67643 10.435-7.8816 12.983-12.761 5.9636-1.8526 11.395-5.0864 16.27-9.0664l-14.423-11.665c-5.8806 0.5103-6.52 2.6839-13.295 2.8127"/>
  </g>
  <path d="m92.376 111.03c-87.221-22.202-101.11-68.896-87.435-105.08 19.429-51.388 80.856-77.158 135.71-63.195 55.907 14.234 87.896 59.293 88.891 97.961 0.20968 8.1718 4.2288 10.843 8.1369 11.849 13.548 3.4957 15.264 7.8314 7.072 18.836-26.078 35.024-103.84 51.981-152.37 39.626" fill="#44bcce"/>
  <path d="m230.18 69.87c-5.0711-0.18742-16.106-3.068-27.099-10.227-47.008-30.61-147.41-52.129-201.95-20.343 4.4056 27.904 29.371 55.981 91.245 71.731 44.638 11.364 113.97-2.0817 145.1-31.561 2.3261-7.5695-0.17442-9.3348-7.3034-9.5988" fill="#3aa4b4"/>
  <path d="m98.938-25.661c8.3508 2.5573 12.612 8.8635 22.157 10.227 7.3513 1.0495 11.591-5.285 18.408-4.0914 6.3214 1.1063 9.5443 11.078 18.067 11.589 2.769 0.16824 7.1572-0.68076 11.929-3.5786 6.5723-3.9888 9.9611 4.4143 6.3061 8.8635-4.4405 5.4071-9.8433 7.4998-17.214 7.4998-6.6771 0-12.597-3.1597-17.555-8.438-0.68299-0.72449-1.1739-0.68082-1.9289-0.20721-5.776 3.6179-14.203 4.5343-23.125 2.8498-8.3464-1.5776-19.75-8.078-24.031-13.465-5.3962-6.7884-0.72226-13.607 6.9869-11.249" fill="#fff"/>
  <path d="m35.023 42.856c-4.9445 4.7176-29.803 51.571-27.531 82.761 2.3544 32.303 40.863 57.177 85.14 64.84 29.482 5.1017 80.789 0.68082 96.469-26.588 9.6644-16.806 9.839-77.52 4.4318-87.948-15.292-29.491-136.01-54.541-158.51-33.065" fill="#f5fbfd"/>
  <path d="m7.3707 119.94c-0.0458 1.9377-0.013 3.8383 0.12222 5.6799 2.3523 32.301 40.778 57.259 85.052 64.923 29.482 5.1038 80.876 0.59812 96.556-26.674 1.3354-2.3238 2.4853-5.5118 3.4673-9.265-52.28 24.487-143.98 27.206-185.2-34.664" fill="#d4d9db"/>
  <path d="m149.9 152.28c-2.5748 14.908-28.703 27.385-58.972 22.157-31.404-5.4246-49.432-29.966-47.551-41.245 3.0484-18.292 40.261-31.26 59.594-27.922 27.706 4.7852 49.238 33.639 46.93 47.01" fill="#fcda4e"/>
  <path d="m128.94 146.31c-10.502 2.0991-50.622-2.2999-63.404-11.761-1.2787 0-3.068 2.0467-8.1806 1.7915-4.2005-0.21154-7.1942-5.7737-9.5465-12.145-2.3195 2.7996-3.8993 5.813-4.4296 8.9923-1.8809 11.279 16.149 35.821 47.551 41.245 30.27 5.2282 56.398-7.2488 58.972-22.157 0.39958-2.3086 0.0717-5.0842-0.85976-8.1129-6.2538 7.1659-13.197 7.3863-20.103 2.1471" fill="#dabd42"/>
  <path d="m65.595 134.76c2.7647 4.8639 17.042 17.206 29.423 19.394 16.865 2.9786 30.193-5.0035 34.245-7.851-9.7364-6.7142-22.608-20.051-28.109-21.125-5.418-1.0562-23.691 6.437-35.559 9.5814" fill="#cc88a6"/>
  <path d="m101.15 125.18c-5.4158-1.0562-23.691 6.437-35.559 9.5814 1.2983 2.2846 5.1497 6.2123 10.133 9.9677 11.905-5.1976 33.654 0.0959 42.256 7.3143 5.405-1.9355 9.3763-4.399 11.281-5.7388-9.7364-6.7142-22.611-20.051-28.112-21.125" fill="#b17690"/>
  <g fill="#0f141b">
   <path d="m196.85 101.63c19.975-7.3273 37.032-17.817 46.847-31.003 7.6809-10.317 6.2188-13.544-6.3498-16.787-5.8653-1.51-8.9311-5.9112-9.1166-13.081-0.95793-37.191-31.461-82.358-87.907-96.726-51.272-13.053-114.17 9.5247-134.16 62.389-7.7943 20.614-6.4436 44.588 12.695 65.385l-1.7326 3.6069c-21.159-21.834-23.675-47.695-15.255-69.966 19.261-50.94 82.183-79.17 139.08-64.683 57.702 14.69 90.03 60.766 91.016 98.941 0.20288 7.9143 4.6958 10.483 7.67 11.249 11.772 3.0352 17.895 7.2335 7.6699 20.965-10.533 14.146-28.947 25.539-50.196 33.15z"/>
   <path d="m-38.394 167.79c-11.897-5.2871-10.895-26.067-5.4966-27.867 4.938-1.6256 19.185 7.5346 25.949 15.595 2.0424 2.433 0.81826 3.5262-1.4052 1.4074-10.539-10.051-21.389-14.613-23.278-13.974-3.2142 1.0714-4.1939 17.616 5.1257 23.049 1.9617 1.1434 1.187 2.7144-0.89464 1.7892"/>
   <path d="m234.27 213.64c8.665-1.342 17.614-12.772 14.375-18.441-2.0141-3.5262-13.492 0.20288-23.494 2.42-2.7188 0.60245-3.4739-1.1543-0.76593-2.0468 13.411-4.4187 24.035-7.1048 26.929-2.0446 4.6194 8.0867-6.9193 20.932-16.619 21.901-2.3937 0.24-2.588-1.4532-0.42556-1.7893"/>
   <path d="m91.779 225.4c-10-1.9442-19.457-15.198-18.153-25.993 0.23349-1.9268 1.8002-1.7108 1.7042 0.1701-0.46477 9.1974 8.4926 20.97 17.21 22.663 9.2257 1.7937 19.571-5.9352 24.463-14.908 1.0736-1.9661 2.5399-1.3398 1.6191 0.76804-5.0166 11.497-16.313 19.34-26.844 17.299"/>
   <path d="m132.47 284.82c-1.726 4.7481-9.1254 15.021-14.779 15.916-10.022 1.5798-34.066-6.5266-42.402-15.163l4.0717 0.13979c9.1647 7.155 29.353 13.282 37.87 11.942 3.4455-0.54555 8.9901-6.7339 11.63-11.336z"/>
   <path d="m102.73 285.9c12.765 1.8132 30.584 4.6019 49.343-15.085 1.7871-1.8744 3.2666-0.44535 1.534 1.534-17.153 19.601-36.22 19.276-51.006 15.595-3.9146-0.9732-3.8273-2.6076 0.12866-2.0446"/>
   <path d="m32.807 266.47c-9.4352-13.852 4.9686-43.008 20.112-64.17 2.0817-2.9087 3.8404-1.918 1.9595 1.0212-12.907 20.173-27.555 49.007-18.945 61.645 10.441 15.331 26.903 21.469 56.356 20.252 4.2135-0.17442 4.0412 1.6148-0.17009 2.0446-29.997 3.0679-47.246-3.0767-59.313-20.793"/>
   <path d="m195.41 74.728c-15.626-30.139-138.53-55.551-162.26-32.895-5.2915 5.0493-30.235 52.727-27.952 84.027 1.774 24.369 24.611 46.022 59.642 58.625-0.94047 1.2656-2.0184 3.2665-3.3975 5.2042-1.5951 2.2388-0.51277 3.3233 1.7893 0.85321 1.9791-2.1275 3.4542-4.1656 4.4274-5.4595 1.0474-1.3965 0.71135-2.1145-0.86628-2.6708-34.156-12.034-56.306-33.698-57.995-56.889-2.2279-30.582 21.986-76.815 27.13-81.723 21.801-20.806 141.58 4.0478 156.45 32.722 5.5031 10.616 4.8681 70.568-4.4056 86.691-12.028 20.922-44.189 26.209-59.542 27.455-4.2245 0.34266-4.2288 2.289 0.12866 2.3021 15.813 0.0433 49.596-5.9811 62.252-27.996 9.8324-17.101 10.43-79.01 4.602-90.248"/>
   <path d="m44.663 133.4c-1.8046 10.827 16.152 34.505 46.487 39.744 24.166 4.1699 54.532-4.1306 57.462-21.092 2.0751-12.014-17.845-40.658-45.865-45.498-19.296-3.3233-55.243 9.7975-58.084 26.846m107.03 19.215c-2.6272 15.207-29.159 28.781-61.102 23.265-33.084-5.7127-50.914-31.572-49.003-43.037 3.1902-19.143 41.57-32.441 61.615-28.973 27.885 4.8158 50.964 34.424 48.49 48.745"/>
   <path d="m136.6 151.43c-9.6774-1.3812-28.873-23.632-35.703-24.965-6.4589-1.2656-34.97 11.77-43.807 11.159-3.0309-0.21834-6.1207-3.5568-6.9891-6.3062-0.6328-2.0097 0.8161-2.1319 1.8766-0.42555 0.94265 1.5187 3.5502 3.7575 5.4617 3.8928 8.3202 0.58885 36.53-12.584 43.964-11.137 7.7005 1.5056 27.121 23.896 35.722 25.124 1.905 0.26412 5.6123-0.52575 7.3994-1.8591 1.8373-1.3682 3.0309-0.50411 1.3638 1.3638-1.7304 1.9376-5.7868 3.6571-9.2891 3.153"/>
   <path d="m130.55 146.91c-9.0097 6.76-22.336 11.168-35.877 8.7785-13.191-2.3305-28.181-15.831-30.551-20.496l2.6708-0.92954c2.553 4.3706 16.448 16.486 28.448 18.604 16.335 2.8912 29.096-4.7285 33.067-7.4888z"/>
   <path d="m94.475 108.2c0.46266 0.35133 1.0278 0.98842 1.4664 1.9551 0.58885 1.2939-0.73538 1.8678-1.3682 0.587-0.21835-0.43855-0.78332-1.5645-1.0081-1.9529-0.56535-0.97321-0.12-1.3725 0.90993-0.58947"/>
   <path d="m112.13 111.43c-0.33586 0.29875-1.2219 1.1936-1.5667 1.5428-0.99937 1.019-2.0795 0.0631-1.1172-0.98409 0.72004-0.78338 1.4554-1.2111 2.0031-1.4009 1.2241-0.42556 1.5209 0.094 0.68076 0.84226"/>
   <path d="m47.294 212.61c-55.835 13.638-91.228-11.493-106.52-36.388-15.312-24.917-5.1431-73.042 10.48-73.887 13.658-0.70915 39.916 46.31 43.975 48.575 3.3473 1.5886 23.863 11.211 43.205 19.176l24.786 12.831c-19.972-6.0421-68.822-28.544-69.32-28.779-4.914-2.3282-30.505-48.293-42.319-47.597-12.086 0.65026-22.113 43.643-6.7971 68.571 7.4997 12.206 37.16 50.722 103.9 33.844z"/>
   <path d="m157.31 186.2c13.843 1.0692 32.393 0.5171 49.343-2.8127 20.031-3.9364 55.088-27.428 62.891-22.497 13.219 8.3464 9.9568 47.8-19.429 70.561-11.434 8.857-32.236 13.638-40.907 14.572-24.212 2.6141-60.168-8.2919-73.204-32.297-1.4162-2.6097 0.0631-3.26 1.534-0.93826 10.947 17.267 40.903 33.2 71.53 29.89 9.78-1.0539 28.024-5.4857 38.201-13.367 28.463-22.052 31.007-58.752 20.555-65.357-5.501-3.476-42.234 19.108-60.408 22.676-19.887 3.908-42.245 3.5349-56.376 1.9137z"/>
  </g>
  <path d="m151.31 95.18c-2.42 13.71-8.4141 21.88-16.49 20.452-7.1397-1.259-11.379-10.921-8.8374-25.323 2.4876-14.083 9.3327-22.624 17.123-21.249 7.1616 1.2656 10.5 13.119 8.2046 26.119" fill="#005f9d"/>
  <path d="m66.426 76.773c-3.692 13.452-0.51716 24.138 6.1971 25.98 6.9891 1.9181 14.733-5.2303 18.602-19.333 3.7859-13.793 1.4838-24.208-6.1447-26.3-7.0109-1.9246-15.161 6.9237-18.654 19.654" fill="#005f9d"/>
  <path d="m126.95 108.33c1.6584 4.1154 4.4187 6.6989 7.8664 7.3077 3.1531 0.55668 5.9832-0.36679 8.414-2.4963-1.0212-10.256-10.339-13.097-16.28-4.8114" fill="#88a2cd"/>
  <path d="m66.047 95.518c1.2896 3.812 3.5764 6.4109 6.5745 7.2335 3.3713 0.92521 6.9149-0.2771 10.118-3.3342-1.6889-8.9901-10.642-11.495-16.693-3.8993" fill="#88a2cd"/>
  <g fill="#0f141b">
   <path d="m127.27 90.538c-2.2606 12.811 0.93616 22.6 7.7769 23.808 3.4455 0.61111 6.5091-0.76155 9.1101-4.0695 2.6643-3.3953 4.6936-8.6934 5.8632-15.322 2.0795-11.768-0.61297-23.453-7.1419-24.605-6.1665-1.0845-12.988 5.3351-15.608 20.188m25.7 4.9838c-2.0882 11.822-7.5805 21.581-16.352 21.581-8.6257 0-15.017-10.175-12.025-27.121 2.5465-14.426 9.6425-23.813 18.737-22.207 8.3529 1.4751 11.864 15.163 9.6403 27.747"/>
   <path d="m67.687 77.118c-3.2491 11.844-1.0583 22.637 5.2806 24.371 3.8361 1.0561 7.1157-1.2242 9.1996-3.3189 3.3014-3.3167 5.9985-8.5384 7.7965-15.095 3.6069-13.14 1.5536-22.833-5.2282-24.694-6.1316-1.6846-13.754 6.7338-17.048 18.737m-2.7516-0.77026c4.2157-15.362 13.442-22.419 20.492-20.49 7.8838 2.1646 11.541 12.486 7.2903 27.987-4.2179 15.373-13.097 22.181-20.442 20.167-7.3972-2.0271-11.414-12.82-7.3404-27.664"/>
   <path d="m59.281 46.094c-12.909 8.3486-21.465 34.522-11.986 53.262 1.3681 2.7058-0.34478 3.5328-1.8744 0.93832-11.761-19.942-1.5122-47.571 11.589-56.075z"/>
   <path d="m172.74 67.228c9.7538 15.447 5.9657 44.656-9.1188 55.394-2.4243 1.726-3.5917 0.36865-1.534-1.534 15.316-14.172 15.955-40.464 7.886-52.983z"/>
  </g>
  <path d="m142.61 93.125c-1.0889 5.8173-3.5895 9.2781-6.8692 8.665-2.8978-0.54308-4.5539-4.6478-3.4106-10.758 1.1172-5.9744 3.9692-9.5923 7.131-9.001 2.9087 0.54308 4.1808 5.5795 3.1487 11.094" fill="#fff"/>
  <path d="m75.229 79.021c-1.5667 5.7061-0.83136 9.9131 2.3872 10.795 2.8432 0.78115 6.1272-2.1865 7.7725-8.1784 1.6082-5.8632 0.62627-10.363-2.4766-11.216-2.852-0.78121-6.1992 3.188-7.683 8.5995" fill="#fff"/>
  <path d="m144.02 282.07c-1.2787-1.534-8.4358-6.9019-10.993-10.738-2.4417-3.6636-0.71138-13.138 5.1125-10.227 1.4075 2.3021 4.2179 14.445 5.8807 20.965" fill="#44bcce"/>
  <path d="m132.26 265.45c-0.0631 6e-3 -0.11752 0.0124-0.18123 0.0186-0.31422 2.1188-4e-3 4.4296 0.94921 5.861 2.5552 3.8339 9.7145 9.204 10.993 10.738-0.62404-2.4482-1.4118-5.6908-2.2235-8.905z" fill="#3aa4b4"/>
  <path d="m27.438 255.99c-2.5225 2.7865-8.1434 3.5066-13.396 4.2354-8.2547 1.1434-11.907 4.159-12.992 8.6192-1.7391 7.168 1.5144 15.222 9.7691 20.38 25.672 16.047 56.563 24.886 61.615 19.176 8.5864-9.7058 2.2999-46.786-13.295-69.285-6.9935-10.09-15.46-10.729-19.94-6.3912-5.621 5.442-4.4689 15.205-11.761 23.265" fill="#44bcce"/>
  <path d="m147.09 207.42c8.4358 0.25545 18.395 18.609 26.588 21.476 10.227 3.5786 25.567-5.37 32.724-3.068 7.6394 2.4548 5.6254 15.085 1.0234 23.265-17.151 30.49-41.704 51.702-54.456 47.041-11.142-4.0717-19.206-42.288-17.356-67.491 0.91426-12.427 4.6696-21.428 11.475-21.223" fill="#44bcce"/>
  <path d="m44.227 239.37c-7.67 4.9424-5.9658 18.578-14.999 23.52-7.9231 4.3358-12.783 1.7042-22.837 6.9892-2.9174 1.5318-3.8033 5.9352-3.9844 10.336 1.6605 3.3909 4.4558 6.5331 8.4162 9.0076 25.672 16.045 56.561 24.884 61.613 19.174 5.357-6.053 4.9249-22.759 0.0569-39.934-6.2712-16.909-18.934-35.107-28.264-29.093" fill="#3aa4b4"/>
  <path d="m203.59 234.77c-10.206-5.5358-20.326 4.0914-31.574 0.89465-6.269-1.7805-15.501-18.772-25.054-18.663-3.7073 0.0433-8.3573 5.7388-11.543 15.456-0.84665 25.072 6.9586 59.802 17.55 63.672 10.635 3.8841 29.473-10.227 45.383-32.7 7.1135-14.683 9.2454-26.486 5.2391-28.659" fill="#3aa4b4"/>
  <path d="m188.93 38.061c19.813-11 23.957-40.558 11.083-45.315-5.2238-1.9311-13.618 1.9311-23.863 11.589-8.366 7.8882-30.68 18.067-37.837 17.044-35.26-2.4788-102.43-8.3507-95.788 4.0914 11.866 22.113 34.989 37.542 67.836 46.02 48.717 12.571 91.247-15.968 92.037-26.248 0.32287-4.1852-8.4686-7.1506-13.468-7.1812" fill="#44bcce"/>
  <path d="m199.46 41.059c-3.6964 13.542-42.144 35.203-69.765 33.401 40.117 2.193 72.019-20.328 72.702-29.218 0.12432-1.6082-1.102-3.0331-2.9371-4.183" fill="#3aa4b4"/>
  <path d="m205.95-1.1593c0.54122 12.316-5.8981 34.413-30.145 40.01-4.1895 0.96665-3.0243 4.687-0.46947 4.303 26.078-2.0446 36.124-31.16 30.614-44.313" fill="#3aa4b4"/>
  <g fill="#0f141b">
   <path d="m136.92 228.73c-1.798 24.491 6.1796 62.396 16.501 66.167 12.008 4.3838 36.231-16.878 52.867-46.454 3.5568-6.3236 6.6531-19.148-0.28391-21.38-6.7644-2.1712-21.812 6.8844-32.757 3.0592-8.7478-3.0614-18.476-21.149-26.193-21.404-3.8667-0.1268-8.9617 4.0718-10.133 20.012m15.412 69.058c-12.505-4.5692-20.291-45.378-18.534-69.285 1.0626-14.471 6.0574-23.241 13.167-23.01 9.228 0.27958 19.626 19.152 27.354 21.86 9.3654 3.2796 25.567-5.5337 32.853-3.1967 8.7151 2.7996 7.3906 15.866 1.7892 25.822-17.027 30.272-42.832 52.854-56.629 47.809"/>
   <path d="m40.109 233.67c-5.1169 4.9533-4.3423 15.069-11.7 23.202-3.0374 3.356-9.9458 4.0674-14.188 4.6543-9.3174 1.2918-11.253 4.9751-11.899 7.6329-1.7195 7.0786 1.8024 14.345 9.1908 18.964 26.933 16.832 55.97 23.898 59.943 19.416 9.073-10.258-0.0982-48.494-13.391-67.672-6.5113-9.3981-14.052-9.9764-17.956-6.1971m-13.821 20.919c7.1921-7.9427 5.7432-17.566 11.759-23.392 5.7977-5.6101 14.812-4.8092 22.456 6.221 15.584 22.48 22.626 61.748 13.21 72.394-5.8545 6.6226-38.509-3.2949-63.915-19.176-9.2323-5.7693-12.8-13.444-10.653-22.285 3.1007-12.785 21.755-7.8118 27.143-13.762"/>
   <path d="m143.02 282.91c-1.5646-1.8853-8.1609-6.4763-11.078-10.851-2.876-4.3162-0.99282-13.651 4.9031-12.741l0.71571 2.9588c-4.2834-2.134-5.2457 5.6276-3.4411 8.3333 1.5449 2.3174 5.0689 5.3657 7.7506 7.7005z"/>
   <path d="m190.37 36.83c7.0175 0.65466 14.316 3.8404 13.987 8.1129-0.90338 11.716-43.207 41.034-94.468 28.251-33.846-8.4402-57.99-25.908-67.365-45.636-1.1761-2.4723 0.41677-3.4214 1.7893-1.0234 11.86 20.73 34.378 35.432 66.372 43.687 48.077 12.407 89.689-15.8 90.407-25.081 0.22453-2.9698-8.1784-6.0836-12.92-5.7541z"/>
   <path d="m175.34 41.109c29.912-3.0679 38.088-42.011 24.219-47.135-4.7983-1.7784-13.005 2.3479-22.512 11.314-8.1937 7.7245-30.232 17.786-37.03 17.116-2.6228-0.25978-2.4832-1.7696-0.0854-1.8766 7.8118-0.34267 26.403-9.1799 35.194-17.47 10.408-9.8149 19.46-14.347 25.312-12.187 17.031 6.2952 8.7763 49.343-25.098 52.282-2.3391 0.20288-2.361-1.8024 0-2.0446"/>
  </g>
 </g>
</svg>
