<?xml version="1.0" encoding="UTF-8"?>
<!-- Created with Inkscape (http://www.inkscape.org/) -->
<svg version="1.1" viewBox="0 0 154.94 311.23" xmlns="http://www.w3.org/2000/svg">
 <g transform="translate(-11.762 25.362)">
  <path d="m57.699 177.41c-10.171-10.588-10.281-24.196-5.7121-28.004 1.7466-1.4557 5.5721-0.70718 9.3343 3.2048-2.7617 3.0976-6.2391 11.962-3.6222 24.799" fill="#fff"/>
  <path d="m52.683 157.21c-0.99319-0.1218-2.203-0.28982-3.5541-0.5027-0.30672 5.4577 1.7198 12.74 7.1982 19.179-1.7454-5.0633-1.8099-10.31-1.833-12.266 0.28847-5.8691 0.0548-6.1795-1.8111-6.4095" fill="#dcdddd"/>
  <path d="m155.14 147.61c-4.7554-5.4638-14.959-13.327-28.693-29.101-5.6281-6.4643-9.2467-8.9741-15.502-12.102 0 0 4.5509 16.081 8.5018 21.789 3.9521 5.7072 5.6695 9.8455 11.031 15.973 4.3878 5.0147 8.8937 10.197 12.785 13.759-0.38093 1.0248-0.78506 2.1276-1.2488 3.2303-4.3635 10.351-5.011 14.589-4.3513 28.424-1.1879 0.90802-2.5633 1.8318-4.1444 2.7666-5.1741 3.0575-7.4283 6.6286-6.6627 8.1586 1.5129 3.027 15.312 1.8233 24.807-4.8455 18.342-12.886 8.9558-41.757 3.4774-48.052" fill="#fff"/>
  <path d="m128.58 196.25c-1.5884 1.7746-2.1763 3.3618-1.7296 4.254 1.5129 3.027 15.312 1.8233 24.806-4.8455 6.7016-4.708 9.6922-11.55 10.534-18.643-8.4361 18.434-31.561 23.552-33.61 19.235" fill="#fff"/>
  <path d="m154.91 147.36c-4.8431-5.4541-14.936-13.311-28.467-28.851-5.6293-6.4655-9.2479-8.9753-15.503-12.103 0 0 4.5509 16.082 8.5018 21.789 3.9521 5.7084 5.6695 9.8455 11.031 15.973 4.3878 5.0147 8.8937 10.197 12.785 13.759 0.24358-1.0893 1.048-2.9893 2.0022-4.215 2.3114-5.3859 6.1259-7.1994 9.6496-6.3511" fill="#dcdddd"/>
  <path d="m153.72 188.37c-1.6992-0.44304-2.0375-3.29-0.37369-12.22 0.96277-5.1705-0.2981-15.157-2.993-19.829-1.7369-3.01-4.63-3.2108-5.1132 1.3717-0.42116 4.002-1.8805 9.8309-6.7686 13.686-1.1235 4.8747-1.2111 9.7469-0.80821 18.206-1.1867 0.90678-2.5633 1.8318-4.1444 2.7654-5.1741 3.0575-7.4283 6.6298-6.6627 8.1598 1.5129 3.0271 15.312 1.8233 24.807-4.8467 4.9599-3.4847 7.8799-8.1415 9.4098-13.201-2.4331 4.4158-5.1194 6.4911-7.3528 5.9081" fill="#2478be"/>
  <g fill="#2068a6">
   <path d="m153.72 188.37c-1e-3 0-1e-3 -1e-3 -2e-3 -1e-3 -10.171 9.0459-23.592 11.128-25.132 7.8871-1.5872 1.7734-2.1763 3.3618-1.7296 4.254 1.5129 3.0271 15.312 1.8233 24.807-4.8467 4.9599-3.4847 7.8799-8.1415 9.4098-13.201-2.4331 4.4158-5.1194 6.4911-7.3528 5.9081"/>
   <path d="m133.51 192.35c1.581-0.93476 2.9564-1.8586 4.1444-2.7666-3e-3 -0.09-7e-3 -0.17527-0.0138-0.26394-8.3278-0.26911-10.711 1.1599-11.264 3.0928-0.39315 1.3742 0.69135 3.3314 1.9402 4.1371 1.1368-1.3498 2.8664-2.8262 5.1912-4.1992"/>
   <path d="m152.89 194.72c6.5422 1.5653 9.753-1.2001 8.2146-12.377-1.39 4.6653-3.9667 8.9862-8.2146 12.377"/>
   <path d="m162.34 175.43c4.5375-0.86904 5.6719-6.5824-2.5792-18.641 1.8026 5.3056 3.0709 12.017 2.5792 18.641"/>
  </g>
  <path d="m143.29 183.57c-1.6833 1.2744-3.6648 2.2079-5.7681 2.5682 0.0345 1.0455 0.079 2.147 0.13524 3.3216 1.7089-1.1587 3.6526-3.0441 5.633-5.8898" fill="#dcdddd"/>
  <path d="m118.58 194.69c11.367-4.4986 17.963-18.38 15.883-29.258 0 0-34.274 25.496-38.313 29.119 0.97495 8.3594 0.32984 23.442-2.5085 36.92-1.093 5.1948-1.788 11.694-0.75829 17.66 9.7725 8.1768 29.966 6.872 33.094 1.6432-2.3893-7.9236-3.7318-15.995-4.7493-28.637-0.97496-12.122-2.2298-22.571-2.6473-27.447" fill="#fff"/>
  <path d="m134.47 165.43s-34.274 25.496-38.313 29.119c0.97496 8.3594 0.32984 23.442-2.5085 36.92-1.093 5.196-1.788 11.694-0.75829 17.66 2.7654 2.3126 6.3645 3.8657 10.175 4.7871-1.418-18.102 6.5203-36.766 16.607-48.513-0.47468-4.5996-0.88001-8.3278-1.0845-10.715 11.366-4.4986 17.962-18.38 15.883-29.258" fill="#dcdddd"/>
  <path d="m148.86 269.49c0.90192-0.482 1.5105-1.1551 1.3133-1.945-0.45642-1.8233-6.1137-5.3834-11.514-7.1836-2.8968-0.96643-5.4638-3.0052-7.5488-5.8545 0.0631-0.28844 0.0949-0.57936 0.0876-0.87028-0.0583-2.4879-2.2152-5.4382-6.3182-6.8489 0.34191 1.345 0.70715 2.6668 1.1052 3.9825-3.1281 5.2289-23.322 6.5337-33.094-1.6432-0.17665-1.0236-0.2874-2.0643-0.36879-3.1098-2.8481 0.87028-3.8876 5.79-1.9693 8.7209-2.5158 2.8238-3.3374 9.4207-1.7235 13.268 1.3985 3.3362 4.9125 6.6724 14.185 9.7628 9.3416 6.603 20.797 8.3253 22.751 6.6322 0.74489-0.64629 0.94328-2.2834 0.51608-4.4268 19.328 1.8343 26.214 0.0173 27.116-2.3892 0.57695-1.5361-0.90557-4.6958-4.5363-8.0953" fill="#ffe45f"/>
  <path d="m130.85 255.27c2.7654 2.147 8.0052 7.4538 6.6043 9.5157-2.3138 3.402-23.756-0.29947-27.633-3.9606 13.201 0.50756 19.561-2.2821 21.029-5.555" fill="#2478be"/>
  <g fill="#dcc553">
   <path d="m103.2 259.98c-1.1794-1.6139-1.5032-4.344-1.4813-6.4119-3.3082-0.94694-6.3949-2.3954-8.8329-4.4365-0.17769-1.0224-0.2874-2.0643-0.36879-3.1098-2.8481 0.87149-3.8876 5.7912-1.9694 8.7221-2.5158 2.8226-3.3374 9.4208-1.7247 13.267 1.3997 3.3362 4.9136 6.6724 14.185 9.764 9.3428 6.6018 20.799 8.3241 22.751 6.6311 0.4467-0.38708 0.69256-1.1344 0.73031-2.1288-11.872-0.73151-22.164-10.623-23.289-22.297"/>
   <path d="m124.47 274.51-0.36879-0.23737c1.1295 2.057 1.8415 4.0349 2.175 5.7048 19.328 1.8342 26.214 0.0172 27.116-2.3893 0.05-0.13007 0.078-0.2774 0.0973-0.4321-4.1834 1.2159-21.676 0.43086-29.019-2.6461"/>
   <path d="m118.74 265.98c-1.6091-0.50876-4.3258 0.74731-3.9034 1.5908 0.21667 0.43331 1.2804 0.33846 3.3253 1.1563 1.8074 0.72299 2.6753 1.8793 3.1804 1.5178 0.75342-0.53799-1.2281-3.8316-2.6023-4.2649"/>
  </g>
  <path d="m96.286 195.89c-8.1598 0.49051-16.44-0.69256-23.459-3.7427 1.5531 8.8852 3.8206 21.871 3.8206 23.16 0 1.3936-2.6473 19.785-2.5073 21.456 1.4837 5.4906 8.7622 8.4166 18.245 5.521 0.0486-3.8158 0.5757-7.5694 1.2597-10.814 2.6923-12.791 3.408-27.016 2.6412-35.58" fill="#dcdddd"/>
  <path d="m90.548 254.74c-1.9182-2.9309-0.87877-7.8506 1.9694-8.7221-0.14733-1.8902-0.16182-3.7975-0.0607-5.6756h-2e-3c-0.0345 0.64388-0.0607 1.2914-0.0694 1.9414-9.4828 2.8968-16.761-0.0276-18.245-5.5198-0.0173-0.21426 0.0103-0.70839 0.0731-1.4022-2.7495 0.71202-3.5285 2.4453-3.3326 4.9027-1.8318 0.59029-6.2866 3.6259-7.208 4.5472-10.449 3.0344-14.614 8.4835-14.079 10.805 0.24586 1.0674 2.7228 2.1641 5.196 2.1702-3.2656 3.9594-3.8669 7.2287-3.1366 8.6028 1.1892 2.2396 9.7287 3.6003 19.835 0.63777-0.71934 2.2189-0.59763 4.1335 0.32376 4.7372 2.27 1.491 10.771 0.1594 17.094-3.5808-0.0242-0.0597-0.0559-0.118-0.0814-0.17665-1.6127-3.8462-0.79117-10.443 1.7247-13.267" fill="#ffe45f"/>
  <path d="m92.402 241.8c-3e-3 0.1632-0.0172 0.32501-0.0172 0.4881-9.4828 2.8968-16.763-0.0276-18.246-5.5198-0.0173-0.21426 0.0103-0.70839 0.0731-1.4022-2.7495 0.71205-3.5285 2.4453-3.3313 4.9027-0.38218 0.12283-0.88243 0.35661-1.4374 0.65119 0.61344 0.29465 0.97006 1.1733 0.42843 2.6497-0.36149 1.446-2.5305 7.4466-3.5431 8.8925-1.5178 3.6867-4.2941 9.2442-5.0597 10.265-1.5726 2.0971-6.9694 3.9046-9.495 3.8267 1.5105 2.141 9.8565 3.3666 19.713 0.47833-0.71933 2.2176-0.59762 4.1322 0.32377 4.7372 2.2712 1.4898 10.771 0.15836 17.094-3.5821-0.0241-0.0583-0.0559-0.11799-0.0804-0.17665-1.6139-3.8462-0.79237-10.443 1.7235-13.267-1.9182-2.9309-0.87876-7.8506 1.9694-8.7221v1e-3c-0.10971-1.4046-0.14491-2.8189-0.11454-4.2235" fill="#dcc553"/>
  <g fill="#fff">
   <path d="m117.14 110c-0.56717-0.5197-2.9455-2.0338-4.1115-2.5049-1.732-1.8221-3.5979-3.4592-4.0628-4.6215-0.55748-1.3924-0.83618-6.687-0.83618-8.3594 0-1.6711 0.47588-2.7873 2.1665-4.0166 1.5324-1.1149 3.0648-2.2006 4.3951-3.4457l9.2187-14.13c2.1544-2.2639 3.2182-6.7004 3.2705-9.9685-3.3508 1.9365-7.4149 3.139-12.203 3.4433-10.164 0.64509-21.619-1.7393-31.617-5.4078-5.4577 1.3936-10.421 4.91-13.443 8.8572 2.4039 10.896 8.475 16.262 18.262 20.784 0.93597 3.167 1.2975 9.5753 0.77046 11.86-0.48444 2.0996-1.9864 5.4346-3.9716 8.0466-2.8067 5.7376-5.3104 20.062-9.3112 24.661-8.2194 9.6131-17.276 16.996-19.087 22.152l-2.0898 6.2696c-1.2172 39.521 59.073 40.125 75.235 16.579 9.0434-13.173 8.71-25.909-7.9407-59.212-1.194-3.8036-1.8087-7.5366-4.6434-10.986"/>
   <path d="m120.37 65.617c0.61952 1.6456 0.98344 3.2997 0.91896 4.6325 0.39922 0.1801 0.76315 0.37 1.1064 0.56718 1.2938-1.8294 1.7977-4.5217 1.7831-6.4059-1.1989 0.48079-2.4635 0.88974-3.8085 1.2062"/>
   <path d="m121.79 120.99c-1.194-3.8036-1.8075-7.5366-4.6434-10.986-0.56718-0.5197-2.9455-2.0338-4.1103-2.5049-1.7332-1.8221-3.5991-3.4592-4.064-4.6215-0.55748-1.3924-0.83619-6.687-0.83619-8.3594 0-1.6711 0.47589-2.7873 2.1665-4.0166 1.2293-0.89336 2.4526-1.7734 3.5772-2.7264-7.3139 1.9499-19.226 1.2232-19.854-1.704-0.52943-2.4757 2.4416-6.6493 13.48-12.697-0.0559-1.9097 0.49417-4.4718 1.3498-6.9341-8.4872-0.38584-17.458-2.5-25.488-5.4468-5.4565 1.3936-10.421 4.9112-13.443 8.8572 2.4051 10.896 8.475 16.262 18.262 20.784 0.93597 3.167 1.2975 9.5753 0.77046 11.86-0.48444 2.0996-1.9852 5.4346-3.9716 8.0466-2.8067 5.7376-5.3104 20.062-9.31 24.661-8.2206 9.6131-17.276 16.996-19.087 22.152l-2.0898 6.2696c-1.2184 39.521 59.072 40.125 75.235 16.579 9.0422-13.173 8.7099-25.909-7.9419-59.212"/>
  </g>
  <path d="m112.45 178.95c-11.795 2.0266-36.521 4.0044-40.859 4.3355-4.5534 0.34809-10.055-1.5336-14.605-6.0249 11.434 25.617 58.709 23.383 72.739 2.943 4.529-6.5994 6.7053-13.089 5.6573-22.11-3.1268 9.8979-12.301 19.029-22.934 20.856" fill="#dcdddd"/>
  <path d="m92.695 63.9c-3.1914-0.8228-6.3268-1.8075-9.3307-2.909-5.4565 1.3924-10.421 4.91-13.443 8.8572 0.59762 2.7045 1.4618 5.1631 2.6437 7.4222 3.0708-4.8151 11.389-10.649 20.13-13.37" fill="#dcdddd"/>
  <path d="m117.74 116.69c-0.17148 3.5261-0.90192 5.2715-2.4964 5.8545-3.0234 1.1064-11.386-1.928-17.375-8.301 4.725 9.8589 13.966 12.86 17.231 11.486 2.0923-0.88122 3.2595-4.7786 2.64-9.0398" fill="#fff"/>
  <path d="m109.4 103.64c-0.19218-0.27498-0.34088-0.53071-0.43331-0.76318-0.55745-1.3924-0.83619-6.687-0.83619-8.3594 0-1.6712 0.47592-2.7873 2.1666-4.0166 1.2281-0.8934 2.4525-1.7722 3.5772-2.7264-7.3138 1.9499-19.226 1.2232-19.854-1.704-0.0876-0.4114-0.0683-0.87394 0.0573-1.379-6.8562 0.1035-13.857-1.104-18.751-3.2352 2.9467 3.593 7.0874 6.5933 12.854 9.1785 0.9348 3.1658 1.2975 9.5754 0.77046 11.86-0.23012 0.99441-0.69376 2.27-1.3242 3.6113 2.6181-0.71567 5.5794 0.65485 7.8896 3.8243 5.493 0.2215 11.485-2.382 13.884-6.2902" fill="#dcdddd"/>
  <path d="m124.36 72.396c1.8513-2.3759 2.7726-6.4095 2.8213-9.4402-2.0132 1.1624-4.288 2.0545-6.8172 2.6522 0.62197 1.6492 0.9871 3.307 0.92138 4.6422 1.3316 0.59885 2.3382 1.2939 3.0745 2.1458" fill="#fff"/>
  <path d="m120.37 65.617c0.61952 1.6456 0.98344 3.2997 0.91896 4.6325 0.39922 0.1801 0.76315 0.37 1.1064 0.56718 1.2938-1.8294 1.7977-4.5217 1.7831-6.4059-1.1989 0.48079-2.4635 0.88974-3.8085 1.2062" fill="#2478be"/>
  <path d="m137.11 26.325c-0.95912 11.483-5.9896 21.938-15.412 26.412-0.92261-5.6172-4.9002-12.118-8.699-12.042-4.9185 0.0987-9.3514 5.3981-10.858 13.671-12.352-2.4976-26.602-12.725-38.867-31.267-4.7652-7.2043-9.2637-6.3876-9.0946 0.19735 0.15702 6.1284 4.0641 13.435 9.0824 19.057-6.8307-3.5492-7.4125-1.1478-4.6337 3.1865 5.9872 9.3416 34.235 22.263 56.349 20.86 20.146-1.2792 27.601-18.307 22.133-40.074" fill="#fff"/>
  <path d="m63.278 23.098c12.265 18.542 26.514 28.77 38.866 31.269 1.5081-8.2742 5.9397-13.574 10.859-13.672 3.7987-0.0756 7.7764 6.4254 8.6978 12.042h1e-3c0.58667-0.27877 1.1563-0.58056 1.7089-0.90433 3e-3 -2e-3 7e-3 -3e-3 0.0104-7e-3 0.55137-0.32363 1.0869-0.66944 1.6054-1.0358 1e-3 -1e-3 3e-3 -2e-3 3e-3 -3e-3 7.2871-5.1558 11.242-14.416 12.081-24.462 1.0431-12.486-2.7118-26.163-10.868-34.629-21.182-21.987-58.841-21.712-78.439 2.6473-14.805 18.401-16.023 45.558-3.2048 66.039 4.1906 6.6956 3.0928 10.336-4.3184 14.35-3.8973 2.1106-1.3778 5.8521 2.3686 5.9908 4.4889 0.16561 9.848-2.3065 12.926-5.1498 0.61223 5.1498-1.2719 7.9796-5.9604 12.116-3.3995 2.9991-1.7101 8.6576 5.2946 7.3844 8.626-1.5689 13.972-5.3555 15.757-22.43-0.27629-0.89463-0.5319-1.8148-0.74855-2.7958 3.021-3.9448 7.9821-7.4611 13.435-8.8547-1e-3 -2e-3 -3e-3 -3e-3 -3e-3 -7e-3 -11.75-4.3136-21.485-10.401-24.719-15.447-2.7788-4.3343-2.197-6.7358 4.6337-3.1853-5.0183-5.6233-8.9254-12.93-9.0824-19.058-0.16919-6.5848 4.3294-7.4015 9.0946-0.19701" fill="#2478be"/>
  <path d="m39.525 8.8553c-6.2927 16.512-4.6714 35.949 5.078 51.527 4.1894 6.6955 3.0916 10.335-4.3197 14.35-3.8961 2.1105-1.3766 5.852 2.3686 5.9908 4.4901 0.16561 9.848-2.3065 12.927-5.1498 0.61101 5.1498-1.2731 7.9796-5.9616 12.116-3.3983 2.999-1.7089 8.6576 5.2946 7.3844 8.626-1.5689 13.973-5.3555 15.757-22.43-0.27508-0.8946-0.53189-1.816-0.74854-2.7958 3.021-3.9448 7.9821-7.4611 13.436-8.8548l-7e-3 -7e-3c-10.919-4.008-20.088-9.5473-23.928-14.36-10.018-6.1758-17.72-19.748-19.898-37.771" fill="#2068a6"/>
  <path d="m51.987 149.41c1.5945-1.3279 4.9185-0.81308 8.3448 2.2566 3.1524-3.6831 7.7447-8.0588 12.383-13.132 1.9974-7.5573 0.15595-11.949-3.0672-13.53-2.5098-1.2318-7.4441 0.46254-11.718 6.7333 1.3729-17.666-12.521-33.416-22.245-31.51-8.3107 1.6298-15.494 19.169-5.3628 35.262-7.2542-4.2722-14.76-3.6855-16.789-0.7096-4.6544 6.827 9.0873 27.532 36.044 27.582-1.1831-5.8508-0.0901-10.869 2.41-12.953" fill="#2478be"/>
  <path d="m13.279 135.23c-3.8133 7.2347 9.9003 27.082 36.297 27.13-0.40653-2.0119-0.5392-3.9217-0.44183-5.6512-5.353-0.84226-13.026-2.4343-19.18-5.1072-6.3097-2.7398-12.991-8.9838-16.675-16.372" fill="#2068a6"/>
  <path d="m48.717 142.35c-5.5307 2.6631-6.1868 14.842-3.8377 19.78 1.5178 0.14353 3.083 0.22392 4.697 0.22772-1.1831-5.8508-0.0888-10.869 2.41-12.953 1.5945-1.3279 4.9185-0.81308 8.346 2.2566 0.59884-0.69867 1.2622-1.4314 1.9548-2.1799-4.658-6.4156-10.455-8.6308-13.57-7.1313" fill="#41bdce"/>
  <path d="m44.879 162.13c1.519 0.14353 3.083 0.2253 4.697 0.22772-0.40652-2.012-0.53797-3.9217-0.44182-5.6512-1.6578-0.26049-3.5346-0.59399-5.5234-1.0078 0.073 2.5195 0.51486 4.8479 1.2683 6.4314" fill="#39a8b8"/>
  <path d="m70.989 242.42c-4.4937 4.2698-5.4273 8.6564-4.7043 9.8553 2.3893 3.957 21.204 1.4934 23.445-3.8072-13.37 1.345-18.318-2.8396-18.74-6.048" fill="#2478be"/>
  <path d="m70.989 242.42c-0.40531 0.38584-0.77289 0.77167-1.121 1.1563-0.36515 1.446-2.4708 7.2712-3.4969 8.8109 2.685 3.7914 21.141 1.3292 23.358-3.9192-13.37 1.345-18.318-2.8396-18.74-6.048" fill="#2068a6"/>
  <path d="m108.57 145.35c4.0799 7.3662 12.252 11.363 16.335 10.475 2.8688-0.62317 4.7396-4.6142 4.2406-10.101 1.0528 1.3778 3.0502 3.1183 4.5631 4.1042-2.0959-7.6181-5.9567-16.903-11.924-28.838-1.194-3.8036-1.8087-7.5366-4.6434-10.986-0.56717-0.51974-2.9455-2.0339-4.1115-2.5037-1.5056-1.5847-3.1098-3.0283-3.8097-4.142 1.1673 1.9061 4.8832 4.9136 6.4339 7.4611 3.5869 5.8934 2.4988 13.621-0.55748 14.908-3.369 1.4192-13.117-1.8002-17.683-12.43-2.3734-5.5234-6.3754-8.1233-9.7871-7.1909-0.69863 1.4898-1.603 3.0612-2.6473 4.4353-1.1819 2.4161-2.3102 6.356-3.52 10.45 1.9255 5.4455 4.4718 12.011 6.1612 16.003 7.0132 16.786 17.208 17.458 20.95 8.3545" fill="#41bdce"/>
  <path d="m108.82 138.11c4.6325 8.3631 11.404 13.022 15.089 12.22 2.8676-0.62318 4.1152-4.9879 2.993-10.225 1.0102 0.69987 3.2316 2.6108 4.9733 3.89-2.2517-6.4326-5.5636-13.958-10.09-23.011-1.194-3.8036-1.8087-7.5366-4.6434-10.986-0.56721-0.5197-2.9455-2.0351-4.1103-2.5049-1.5068-1.5847-3.111-3.0271-3.8109-4.1408 1.1672 1.9061 4.8832 4.9124 6.4338 7.4611 3.587 5.8922 2.4988 13.62-0.55745 14.906-3.3691 1.4192-13.117-1.8001-17.683-12.43-2.3734-5.5234-6.3754-8.1233-9.7871-7.1897-0.69866 1.4886-1.603 3.0599-2.6473 4.4341-0.73151 1.4946-1.4424 3.5735-2.1641 5.9105 1.8574 4.4694 4.7128 10.538 6.8002 14.932 7.6072 18.206 17.006 16.407 19.204 6.7333" fill="#2478be"/>
  <path d="m87.63 106.1c-0.13869 0.29568-0.29223 0.5964-0.44669 0.89705 2.511 1.8732 5.4151 2.752 8.3058 2.8834-2.3053-3.139-5.2532-4.4937-7.8592-3.7805" fill="#2068a6"/>
  <path d="m137.11 26.325c-0.95912 11.483-5.9896 21.938-15.412 26.412-0.92261-5.6172-4.9002-12.118-8.699-12.042-4.9185 0.0987-9.3514 5.3981-10.858 13.671-12.352-2.4976-26.602-12.725-38.867-31.267-4.7652-7.2043-9.2637-6.3876-9.0946 0.19735 0.15702 6.1284 4.0641 13.435 9.0824 19.057-6.8307-3.5492-7.4125-1.1478-4.6337 3.1865 5.9872 9.3416 34.235 22.263 56.349 20.86 20.146-1.2792 27.601-18.307 22.133-40.074" fill="#41bdce"/>
  <path d="m57.151 41.326c-0.29088 0.82646 0.27874 2.337 1.4813 4.2126 5.9884 9.3416 34.235 22.264 56.349 20.86-22.131-0.41993-47.794-14.373-57.831-25.072" fill="#39a8b8"/>
  <path d="m125.85 76.067c-0.29947-2.8433-1.7101-4.5339-4.5631-5.818 0.20942-4.3026-4.0385-11.959-7.0035-11.836-2.7593 0.11558-6.9329 9.8589-6.7832 14.958-11.037 6.048-14.009 10.222-13.479 12.696 0.78019 3.6405 19.007 3.8827 24.148-0.19735 7.8823 1.9426 10.147 1.7089 10.637 0.89336 1.1307-1.8854 0.40895-5.4747-2.9565-10.696" fill="#ffe45f"/>
  <path d="m100.48 84.188c-2.0704 0.30914-4.2259 0.4686-6.3974 0.50145-0.12524 0.50511-0.14594 0.96764-0.0573 1.3778 0.77898 3.6393 19.005 3.8815 24.147-0.19735-1.2622-0.31051-2.668-0.67796-4.2332-1.1064-4.837-1.3267-9.7275-1.4314-13.459-0.57569" fill="#dcc553"/>
  <path d="m120.84 67.057c0.92993 0.14353 1.6809-0.98103 1.4216-1.9608-0.61465 0.19114-1.2403 0.36879-1.889 0.52095 0.18251 0.4832 0.33467 0.96398 0.46736 1.4399" fill="#fff"/>
  <g fill="#0f141b">
   <path d="m93.226 86.226c-0.60372-2.8165 2.0497-6.8039 13.641-13.217 0.12041-6.5507 4.2247-15.253 7.4319-15.387 3.7476-0.16665 8.1391 8.6613 7.5305 13.043-0.18493 1.3425-1.1222 1.3766-1.0966 0.0242 0.089-4.7676-4.1895-11.621-6.3596-11.472-2.0594 0.14111-6.3559 9.1201-6.2087 14.114 0.0103 0.34688-2e-3 0.43331-0.3493 0.62438-11.458 6.2781-13.385 10.178-13.017 11.895 0.57691 2.6777 16.872 3.4872 22.593-0.19977 0.40654 0.11076 1.1782 0.35786 1.4715 0.49904-4.6434 4.2089-24.589 4.9733-25.636 0.0742"/>
   <path d="m113.75 85.451c-7.1361-1.9572-14.063-1.2743-17.273 0.91409-0.83008 0.56718-1.4119-0.18631-0.62683-0.81183 3.5492-2.8311 10.861-3.5103 18.276-1.4764 11.035 3.0246 13.378 2.6899 13.862 2.3588 0.81183-0.55745 1.2062-3.8681-2.7349-9.9831-0.0863-0.13387-0.0925-0.14733-0.10937-0.31052-0.25946-2.4635-1.3669-3.9484-3.8937-5.1388-0.0424-0.38825-0.118-1.261-0.0804-1.5945 3.3812 1.4095 4.9976 3.3338 5.3713 6.4132 4.0957 6.4059 4.2077 10.513 2.5852 11.821-1.407 1.1332-6.0407 0.36759-15.376-2.1921"/>
   <path d="m116.78 74.83c-0.51849-0.5185-1.4253-1.121-2.0618-1.2585-0.92868-0.19976-0.70232-1.2744 0.20081-1.1283 1.0054 0.17389 2.0959 1.1015 2.4866 2.0436 0.27394 0.65972-0.089 0.88001-0.62562 0.3433"/>
   <path d="m120.69 66.393c15.788-3.7951 22.993-19.414 16.604-42.267-0.10454 0.63781-0.35178 3.29-0.46985 3.9972 4.1773 18.798-1.777 33.117-16.579 36.667z"/>
   <path d="m102.03 55.075c-13.544-2.724-27.921-14.106-39.433-31.51-2.3637-3.5748-4.3976-4.8284-5.8338-4.3757-3.4494 1.0857-2.012 14.786 10.813 26.706 1.2038 1.1186 0.63657 1.7198-0.6536 0.70471-13.731-10.813-16.55-27.713-10.964-29.472 2.4367-0.76802 5.224 1.2379 7.9967 5.4322 11.292 17.071 25.151 28.445 38.31 31.108z"/>
   <path d="m101.34 56.331c0.91526-10.421 6.3255-16.708 11.641-16.576 4.7871 0.11937 9.5851 8.3131 9.405 15.319-0.031 1.1733-0.92262 1.2184-0.97737 0.0462-0.29948-6.3669-4.8589-13.424-8.3813-13.456-4.6727-0.0424-9.4208 5.8375-10.71 14.807-0.18493 1.2914-1.0942 1.1879-0.97737-0.14008"/>
   <path d="m121.81 53.498c7.6279-3.5285 12.998-11.06 15.182-21.345 6.6748-31.444-16.529-59.022-51.641-57.451-43.836 1.9572-63.389 50.848-41.354 86.057 2.0034 3.2023 2.6692 5.4954 2.158 7.4343-0.54042 2.0546-2.4574 3.8766-6.2123 5.9117-4.8102 2.6047-2.2359 7.3053 2.6412 7.4867 3.7074 0.13869 8.688-1.3985 13.025-5.0999 0.0426-0.54285-0.0767-1.1965-0.20325-1.7405-2.8554 2.8068-8.2316 5.2776-12.702 5.1169-2.6741-0.0987-4.9502-2.9565-2.0826-4.5108 4.131-2.2371 6.2635-4.3343 6.9134-6.8002 0.61953-2.3528-0.0986-4.9903-2.3296-8.5542-21.121-33.748-1.8708-81.483 40.328-83.368 35.331-1.5689 55.967 27.414 50.066 55.221-2.046 9.6422-6.9828 16.735-13.975 20.151z"/>
   <path d="m118.48 28.545c-0.30293 2.4002-0.63415 4.9051-1.3376 7.2408-0.4674 1.5568-1.2306 1.5105-0.91289-0.31638 0.46133-2.6546 0.74976-4.6166 1.0382-7.0972 0.2667-2.2858 1.4934-2.057 1.2123 0.17286"/>
   <path d="m118.71 17.466c-0.63415-19.855-11.788-37.437-31.448-42.02-1.5032 0.19355-3.8669 0.48564-5.3141 0.70473 21.961 2.6498 33.646 20.426 35.492 41.431 0.32501 3.699 1.39 3.6673 1.2695-0.11558"/>
  </g>
  <path d="m133.76 14.286c-2.4538-18.099-16.844-31.926-35.665-33.295 5.3628 1.8708 11.099 4.2393 13.468 6.3596-5.308 1.7697-4.6678 6.9597 0 10.724 7.3565 5.9324 14.277 5.8326 15.339 4.2405 2.1203 1.8696 5.2374 6.6092 6.8586 11.971" fill="#fff"/>
  <g fill="#0f141b">
   <path d="m78.908-3.351c-9.1627-8.5773-21.037-9.6155-29.591-3.9363 0.7096-1.0699 2.0765-2.7775 2.7739-3.1731 8.8657-4.0056 18.577-2.7702 27.469 6.2963 1.5944 1.6261 0.86783 2.2347-0.65119 0.81307"/>
   <path d="m103.39 49.748c-1.5263-4.0604-3.5858-8.5493-5.2618-11.809-1.1514-2.2384-0.40654-2.5974 0.9311-0.46619 1.7223 2.7471 3.5614 6.5167 5.1133 10.359z"/>
   <path d="m36.089 37.516c0.2775-36.09 40.695-40.464 53.037-17.804 0.81307 1.491 0.12041 2.0606-0.76194 0.611-13.717-22.542-56.125-16.474-49.853 26.659-0.60737-1.4265-2.1958-7.4076-2.4221-9.4658"/>
   <path d="m67.61 72.645c2.0643-4.7992 7.6169-10.152 14.62-12.221 0.8082 0.31397 1.8708 0.81549 2.4562 1.0881-7.3723 1.508-13.44 6.6262-16.239 11.636-0.75342 1.3474-1.491 1.0163-0.8374-0.5027"/>
   <path d="m49.147 87.155c7.0047-6.1807 7.4064-9.2163 2.8676-21.652-4.5923-12.579-3.9119-22.073 2.9857-28.559 1.62-1.5239 2.1884-0.81552 0.7169 0.85199-5.3056 6.0164-6.586 15.655-2.3637 27.218 4.7213 12.935 4.2028 16.623-3.2644 23.21-2.8104 2.4806-1.0833 7.0656 4.7311 6.0042 9.2942-1.6894 13.587-6.3462 15.241-22.613 0.32497 0.6329 0.908 1.53 1.1733 2.4209-1.5287 14.541-6.1697 20.258-16.191 21.897-8.2961 1.3584-9.9806-5.1729-5.8971-8.7769"/>
   <path d="m90.662 92.254c-12.105-4.2673-18.839-10.825-21.398-21.531 0.20815-0.32121 1.0261-1.345 1.3011-1.7502 2.2542 11.052 8.8572 17.617 20.5 22.385 2.1544 0.88246 1.5093 1.5714-0.40408 0.89705"/>
   <path d="m98.284 113.85c4.7311 9.6982 13.716 12.246 16.489 11.08 2.6011-1.0954 3.576-8.3229 0.27498-13.744-0.79112-1.3011-2.2566-2.8092-3.5504-4.1395-1.4825-1.5251-2.6814-2.8165-3.1086-3.8827-0.65602-1.6395-0.90799-7.3637-0.90799-8.6685 0-1.8124 0.44791-2.9832 2.3394-4.4572 0.55869-0.43696 1.5993-1.3292 2.2006-1.7892 0.35786-0.13767 2.4769-0.49538 3.3569-0.79845-1.2098 1.1015-4.787 3.66-4.787 3.66-1.575 1.1454-1.8172 1.872-1.8172 3.3581 0 1.8196 0.31776 6.9986 0.79844 8.1999 0.32121 0.80455 1.6858 2.0874 2.9467 3.3837 1.4119 1.4533 2.8712 2.954 3.7476 4.3927 3.7026 6.0809 2.9589 14.459-0.83253 16.054-3.8851 1.6358-13.564-1.8367-18.209-12.298-0.67796-1.5263 0.31156-1.8817 1.0589-0.35054"/>
   <path d="m84.415 110.11c4.5108-5.9385 4.9538-11.267 2.6887-19.955 0.28464 0.0963 1.693 0.57449 2.0692 0.83498 1.642 8.6113 0.97617 12.574-1.8403 17.253-0.62804 0.35786-2.3345 1.4107-2.9175 1.8671"/>
   <path d="m125.97 200.91c-0.97617-1.9535 0.94328-5.4881 7.1848-9.1761 4.0616-2.4002 6.9305-4.8382 8.3594-7.0643 0.61585-0.4272 1.7247-1.0553 2.1872-1.3023-0.936 3.0356-4.31 6.3365-9.8212 9.5936-5.0548 2.9857-6.6164 6.1588-6.1624 7.0668 1.474 2.9565 20.811 0.87635 28.968-10.37 9.1152-12.571 3.8352-34.644-2.1239-41.489-1.7381-1.9974-4.1918-4.4268-7.3467-7.3845-5.3348-5.0025-12.64-11.854-21.307-21.808-4.3233-4.9672-7.993-7.7021-11.441-9.7214-0.51608-0.73638-2.4611-2.9662-3.3496-3.6941 6.1077 2.8567 10.045 5.7948 15.867 12.479 8.6198 9.8991 15.894 16.722 21.206 21.703 3.1841 2.9869 5.6987 5.3457 7.4855 7.3978 6.3304 7.2725 11.945 30.149 2.2615 43.469-8.5785 11.801-29.728 14.775-31.967 10.3"/>
   <path d="m152.24 195.29c0.41747-0.3554 0.82525-1.0346 1.1855-1.1794 2.1276 0.46132 4.355 0.11938 5.4419-0.85199 1.4861-1.3291 2.2334-4.4645 1.7235-9.2978 0.13525-0.58422 0.86051-2.7593 1.0005-3.2011 1.3438 8.2219 0.66823 11.923-1.5458 13.904-1.519 1.3596-4.2759 1.7174-7.8056 0.62683"/>
   <path d="m162.39 174.7c1.0163-0.23013 1.7271-0.76805 2.2347-1.8793 0.96643-2.1142 0.19355-6.9268-4.3647-14.002-0.24221-0.96764-1.3048-4.0872-1.7344-5 7.8239 10.584 9.1189 16.585 7.6401 19.819-0.5039 1.1028-1.7223 2.2201-3.8803 2.5329-0.0172-0.31293-0.0172-1.3097 0.10454-1.4703"/>
   <path d="m143.02 159.02c-3.0149-2.7374-6.3608-6.8149-9.8395-10.739-0.10971-0.12421-0.54526-2.3771-0.73513-2.9759 0.46129 0.51849 7.7143 8.4227 11.17 11.718-0.1035 0.39922-0.47347 1.715-0.59519 1.9974"/>
   <path d="m136.82 190.52c-0.72298-14.619 0.039-19.072 4.5327-29.634 0.91896-2.1592 1.7929-5.3834 3.24-7.0242 0.8581-0.9725 1.4034-0.55744 0.67431 0.49538-0.86783 1.2549-1.3072 4.0324-2.601 7.0826-4.2795 10.079-4.7433 13.956-4.1091 27.537-0.23358 0.24461-1.4119 1.3997-1.7369 1.5433"/>
   <path d="m127.95 196.91c-2.1507-1.5847-2.7277-3.5066-2.3844-4.7092 0.69377-2.4294 3.1524-4.0543 13.432-3.5382-0.23013 0.26049-1.1234 1.1246-1.5409 1.3644-7.6047-0.22772-9.7871 1.0979-10.222 2.6205-0.26428 0.92382 0.37245 2.2469 1.5786 3.1293-0.11938 0.26912-0.65481 0.98348-0.86417 1.1332"/>
   <path d="m76.217 194.29c-14.768-4.8309-22.841-15.537-22.222-30.686 0.0682-1.6821 1.0735-1.5969 1.0358 0.0863-0.297 13.177 6.2233 23.992 21.714 29.061 18.906 6.1843 43.214 0.0814 52.239-13.067 8.4702-12.341 8.6138-24.621-7.6608-58.445-0.6329-1.3145 0.33847-1.7588 1.0005-0.45888 17.645 34.617 17.028 46.937 8.1439 59.88-8.8791 12.936-33.586 20.391-54.251 13.63"/>
   <path d="m103.4 188.03c5.1814-6.261 5.5551-15.07 1.3875-22.592-0.70715-1.2756 0.078-1.8866 0.84227-0.64387 5.2642 8.5943 4.809 18.142-1.6845 25.217-0.14836-0.49538-0.49903-1.5884-0.54527-1.9816"/>
   <path d="m57.185 177.91c-9.1956-9.3282-11.613-24.226-5.6902-29.162 1.8099-1.5093 5.5356-1.0991 9.2796 2.3515-0.29089 0.24221-0.78263 0.83133-0.90556 1.1052-3.0052-2.6862-6.1089-3.1366-7.32-2.1385-3.9983 3.2948-3.8657 14.982 3.307 24.119 0.30552 1.317 0.74855 2.3479 1.3291 3.7245"/>
   <path d="m35.286 142.48c-17.628-16.638-10.762-41.085 0.0986-43.214 11.181-2.186 28.445 17.482 21.852 39.138-0.37123 1.222-1.4131 0.86297-1.0796-0.29464 5.5344-19.23-9.7871-38.934-20.281-36.878-9.6983 1.9012-15.72 24.167 0.14729 40.513 0.97007 0.99928 0.13265 1.5567-0.73638 0.73638"/>
   <path d="m49.683 163.09c-27.702 1e-3 -42.134-21.098-36.84-28.862 2.2456-3.2936 9.6739-3.8802 16.694-1e-3 0.34567 0.6889 0.93477 1.8172 1.3011 2.4063-7.5354-4.714-14.756-3.9168-16.522-1.3255-3.9667 5.818 8.7038 26.269 35.16 26.359 0.0487 0.30672 0.19597 1.0918 0.2057 1.4241"/>
   <path d="m71.549 140.01c2.4732-7.7228 0.98712-12.555-2.3308-14.183-2.6595-1.3024-7.5269 1.0394-11.439 7.4356 0.14484-0.85565-2e-3 -2.1812 0.1132-2.7313 3.9594-5.7839 8.9692-7.8957 12.161-6.4229 3.8839 1.7928 5.4309 6.7929 3.3338 14.695-0.58422 0.33226-1.3693 0.8727-1.8379 1.2074"/>
   <path d="m78.12 242.72c-2.8068-1.4582-4.5984-3.9083-4.7932-5.9531-0.0828-0.97737 2.6071-20.925 2.6071-21.458 0-1.2378-2.5913-15.066-4.0288-23.295 0 0 1.5702 0.45156 1.889 0.53433 1.9913 11.395 3.565 21.527 3.565 22.761 0 0.59519-2.4854 20.194-2.4477 21.304 0.55624 1.9803 1.9779 3.5626 4.047 4.6386 3.2011 1.6614 8.2486 1.9438 13.557 0.25566 0.05 0.24358 3e-3 1.1052-3e-3 1.4934-5.9409 1.7892-11.03 1.4667-14.39-0.27981"/>
   <path d="m125.36 251.8c-4.5448-12.944-4.6848-30.29-7.5536-57.033-0.0486-0.45156 0.0207-0.60858 0.47713-0.78995 8.6004-3.4044 14.681-12.87 15.469-21.839 0.35785-0.96764 1.4995-4.4901 1.7369-5.8533 1.4788 11.321-4.764 24.13-16.041 28.899 2.3418 18.943 2.6205 40.12 7.2421 54.583 0 0-0.92869 1.76-1.3304 2.0339"/>
   <path d="m91.938 248.62c-0.7157-4.7018-0.55258-9.876 1.009-17.295 2.769-13.155 3.1914-27.023 2.4647-35.258 0.40777-0.0607 1.3632-0.18251 1.7369-0.19355 0.7449 8.5639-0.0414 22.612-2.808 35.747-1.3705 6.5142-1.491 13.084-0.34433 18.543-0.67917-0.50635-1.7429-1.1563-2.0582-1.5433"/>
   <path d="m91.782 248.99c-0.70715-0.67672-0.0242-1.5567 0.68283-0.87756 6.3791 6.1016 21.811 7.7228 29.835 4.3878 2.5913-1.0772 3.5456-2.4355 3.5589-3.1208 0.0242-1.1916 0.93234-1.0358 1.121 0.14732 0.19459 1.2184-0.59519 3.0989-4.0458 4.5327-8.2426 3.4275-23.598 2.1556-31.152-5.0694"/>
   <path d="m112.44 261.59c7.7496 3.5188 22.887 4.6483 24.244 2.6497 0.53188-0.78626-0.8009-3.7926-5.5088-7.7508-1.9682 2.8968-6.9913 5.1011-18.736 5.1011m-3.1013-0.25325c-0.85565-0.80696-0.74735-1.3352 0.51608-1.2293 9.5023 0.36638 16.339-1.0187 19.175-3.8133 2.4075-2.3783 1.3097-6.7126-4.0495-8.7172-0.14249-0.3019-0.38583-1.3255-0.41261-1.6432 6.4886 1.9499 8.0514 6.7528 7.2895 9.1895 6.569 5.3409 7.2384 9.0495 6.4351 10.091-3.38 4.3842-25.485-0.60006-28.954-3.8778"/>
   <path d="m148.46 269.01c0.77046-0.38462 0.99562-0.86296 0.88366-1.3109-0.27256-1.0857-4.843-4.5862-10.94-6.7236-2.4903-0.87269-5.5113-2.9479-7.5597-5.6038 0.13145-0.43328 0.22874-1.5056 0.29706-2.0302 2.4672 3.7001 4.9148 5.4626 7.7472 6.3815 6.4095 2.0789 11.539 5.5855 12.05 7.634 0.22047 0.88242-0.17044 1.9377-1.6517 2.6217-0.27015-0.26187-0.71447-0.74734-0.82646-0.96885"/>
   <path d="m126.45 280.71c0.0104-0.34088-0.16803-1.1904-0.21288-1.4508 20.251 1.8842 25.737-0.40408 26.376-2.1093 0.51853-1.3876-2.4696-7.2323-11.266-12.382-1.1186-0.65606-0.7035-1.6358 0.44793-1.0285 9.6824 5.1035 13.502 11.306 12.427 14.171-0.86055 2.2931-5.633 4.9173-27.772 2.7995"/>
   <path d="m102.68 278.41c-9.0836-3.0416-13.033-6.0236-14.667-9.921-1.6273-3.879-0.96033-11.17 2.1544-14.409 0.18493 0.23116 0.54164 1.0224 0.77898 1.2622-2.2639 2.7142-2.7033 8.9242-1.3024 12.265 0.99932 2.3856 3.346 6.0712 13.586 9.484 0.0659 0.0207 0.12904 0.0535 0.18631 0.0939 8.688 6.1393 19.96 8.032 21.718 6.5142 0.92382-0.80089 0.75342-4.5156-1.5068-9.0982-0.64267-1.3036 0.22392-1.777 0.97251-0.53434 2.763 4.5838 3.5699 9.4768 1.8136 10.999-2.4258 2.102-14.137 0.0838-23.733-6.6566"/>
   <path d="m91.733 256.59c-4.5363-2.4842-3.5346-9.9612 0.55137-11.244 0.11213 0.22875 0.28982 1.0443 0.31397 1.3973-2.5329 0.92989-3.1561 6.7418-0.48324 8.929 1.1222 0.91771 0.68894 1.5044-0.38217 0.91771"/>
   <path d="m119.19 269.32c-1.3304-0.70594-3.4287-1.1855-4.2612-1.1125-1.0029 0.0756-1.0845-1.2257-0.0814-1.3023 1.1672-0.0949 3.6734 0.55134 4.8309 1.7089 0.8423 0.84102 0.35054 1.1514-0.48806 0.70594"/>
   <path d="m54.171 258.53c-2.5584-0.17527-5.1084-1.3388-5.4175-2.6789-0.68526-2.9711 4.1383-8.6065 14.553-11.675 1.132-1.0321 4.8637-3.4652 6.9086-4.3391-0.2982-2.6789 0.87148-4.5704 4.0178-5.269-0.0486 0.25325-0.0669 1.3474-0.14836 1.6675-1.9207 0.58912-2.7155 2.0534-2.5597 3.9886 0.0377 0.47836 0.11807 0.48323-0.50633 0.68403-1.6699 0.53799-5.9726 3.5371-6.8428 4.4073-0.0852 0.0852-0.18986 0.14594-0.30551 0.1801-10.386 3.0161-13.768 8.3424-13.42 9.8492 0.17647 0.77412 2.7325 1.8002 4.8224 1.6675-0.26898 0.33605-0.86296 1.3316-1.1015 1.5178"/>
   <path d="m74.409 262.76c-2.6302 2.9662-3.212 7.623-2.1008 8.3521 1.8659 1.2233 10.063 0.15836 16.343-3.6016 0.18976 0.33122 0.46619 1.1149 0.46009 1.3815-6.9925 4.064-15.402 5.1218-17.815 3.537-1.827-1.1977-1.4618-6.4047 2.4258-10.386 1.2756-1.3048 1.7892-0.5246 0.68769 0.71688"/>
   <path d="m77.676 259.93c0.70108-0.27498 1.6054-0.57329 2.3649-0.86417 1.082-0.41264 0.75462-1.3864-0.35906-1.0553-0.9713 0.28844-1.7199 0.77288-2.4076 1.3754-0.67065 0.58667-0.40043 0.8593 0.40167 0.54406"/>
   <path d="m70.71 243.57c-3.4579 3.6685-4.2186 7.3954-3.7087 8.2413 1.7722 2.9345 16.95 1.8038 21.466-2.5852-11.466 0.8386-16.656-2.4294-17.757-5.6561m-5.1327 9.1785c-0.9652-1.6005 0.2629-6.4813 4.983-10.789 0.68038-0.62196 0.88-0.53919 1.0857 0.4114 0.56231 2.5852 4.7956 6.6688 18.094 5.4699 0.90675-0.0828 0.90313 0.0925 0.56232 0.89826-2.4867 5.8874-22.009 8.5079-24.725 4.0093"/>
   <path d="m121.95 70.473c1.0723-1.7454 1.4959-3.9898 1.5251-5.7851 0.19597-0.0997 1.2184-0.5246 1.4156-0.57449 0.0669 2.001-0.49659 5.0134-1.9925 6.9828-0.23737-0.17286-0.66454-0.46616-0.94815-0.62318"/>
   <path d="m123.91 71.814c1.603-2.2894 2.3454-5.8971 2.4513-8.4482 0.3542-0.2008 1.3961-0.8739 1.67-0.99808 0.0241 3.1573-0.97251 7.9553-3.1598 10.536-0.13145-0.21185-0.73027-0.83498-0.96153-1.0894"/>
   <path d="m97.039 76.268c2.1239-2.6777 3.0441-7.9748 2.5986-10.951 0.40288 0.10109 1.233 0.19356 1.474 0.29706 0.35054 3.3411-0.47102 8.7611-3.4263 11.346-0.75708 0.66212-1.3888 0.24324-0.64629-0.69256"/>
   <path d="m85.758 78.389c-5.818-2.9528-7.7508-10.284-6.7406-15.748 0.31397-0.27394 1.1393-0.53433 1.5933-0.61589-1.3036 5.0719 0.19735 11.848 5.6682 15.452 1.1977 0.78872 0.52095 1.4411-0.52094 0.91165"/>
   <path d="m56.094 157.01c1.4728-4.5619 13.565-16.115 18.609-21.931-0.24462 0.76194-0.9141 3.0733-1.2098 3.8401-4.6921 5.1668-14.575 13.922-16.396 18.575-0.48564 1.2427-1.4374 0.86296-1.0029-0.48444"/>
   <path d="m50.897 266.9c-1.4095-2.6546 1.0114-9.495 10.805-15.954 1.0443-0.6889 1.5154 0.0963 0.50634 0.83374-8.632 6.3097-10.797 12.391-9.8528 14.168 0.98346 1.8501 9.7859 3.1962 19.354 0.28705-0.0645 0.30914-0.21419 1.261-0.33226 1.5811-10.352 2.9358-19.086 1.7077-20.48-0.9153"/>
  </g>
  <path d="m87.235 72.152c2.6595-0.031 3.9533-4.6921 3.3971-8.8073-2.3284-0.65606-4.613-1.3936-6.8319-2.1957-1.5507 5.0122 0.59395 11.036 3.4348 11.003" fill="#2478be"/>
  <path d="m90.632 63.345c-2.3284-0.65606-4.613-1.3936-6.8319-2.197-0.69255 2.242-0.64387 4.6824-0.12765 6.6956 2.2188-1.2561 4.6094-2.382 7.0655-3.2802-0.0207-0.40774-0.0511-0.81548-0.10592-1.2184" fill="#2068a6"/>
  <path d="m87.207 73.032c-3.5638 0.0207-5.7547-6.754-4.0994-12.094l1.3413 0.49538c-1.2622 4.215 0.4126 9.8163 2.7861 9.8565 1.9669-0.0241 3.3009-4.041 2.6582-8.1148l1.4667 0.19597c0.64143 5.067-1.1782 9.6435-4.1529 9.6605" fill="#0f141b"/>
  <path d="m87.381 62.976c1.4131 0.1349 1.1782 4.6532-0.0669 4.5753-1.2963-0.0804-0.98711-4.6751 0.0669-4.5753" fill="#0f141b"/>
  <path d="m87.131 64.312c1.1368 0.26394 1.8379-0.60006 1.8634-1.4387-0.88852-0.26774-1.7685-0.55017-2.6424-0.83985-0.58546 0.74003-0.38828 2.0083 0.77899 2.2785" fill="#fff"/>
  <path d="m108.61 67.194c-8.0028-0.46736-18.139-2.4732-28.024-6.4205-22.674-9.0544-25.832-18.579-23.971-20.51 0.76194-0.79113 2.5645-0.80455 5.482 0.60372 0.83619 0.93355 2.1848 2.6254 3.1171 3.5711-3.8718-2.4148-6.4813-3.1622-6.9901-2.7167-0.54529 0.47833 1.3084 8.9156 22.784 17.529 10.829 4.344 20.518 6.0639 28.072 6.3694z" fill="#0f141b"/>
  <path d="m67.775 158.35c-3.9996 7.0364-4.2345 16.73-2.5232 18.547 1.3206 1.4034 3.6454 1.0516 5.7389-0.21805-0.99563-3.307-1.844-6.9171-2.5633-10.834-0.48321-2.6278-0.7023-5.0938-0.6524-7.4952" fill="#2478be"/>
  <path d="m71.48 178.24c-4.8163 18.159 4.7152 21 9.6155 17.095-4.1152-4.1188-7.2518-9.8188-9.6155-17.095" fill="#2478be"/>
  <path d="m118.19 195.17c1.9304-1.7649 0.79968-3.7354-2.4684-4.2187-4.2673-0.62924-6.2659 0.59399-8.6941 0.78872-1.1928-0.31293-2.169-0.60979-2.9759-0.91527-0.30431-1.7965-0.99686-4.4804-2.1532-7.0206 1.2549 0.91654 2.9443 1.9243 5.3786 2.7836 5.2776 1.8622 10.258-0.40899 10.816-1.8026 0.55745-1.3936-1.9925-4.6495-4.7432-7.9699-2.5061-3.0246-4.8357-5.3968-14.13-10.132-2.3868-1.2172-3.8218-2.4842-4.7372-4.8759-1.4095-3.688-3.2437-7.3699-5.6951-10.072-0.55137-5.891 0.26291-15.766 2.4915-20.858 5.6707-12.964 3.2656-20.891-1.0577-22.519-0.78261-0.29465-2.0046-0.33467-3.5504 0.12283-3.5675 2.13-6.7856 6.0638-8.3497 12.504-2.3686 9.753-4.3209 17.783-7.1045 23.685-3.4275 7.2664-4.1894 13.541-2.7873 21.177 4.54 24.717 14.211 37.317 33.559 37.491 8.8061 2.1458 21.621 0.21046 21.512-3.279-0.0549-1.749-1.211-3.2084-5.3104-4.8893" fill="#fff"/>
  <path d="m121.88 197.17c2.2225 8.5335-37.32 2.4367-52.098-24.949 5.0049 20.505 14.596 30.957 32.203 31.115 8.8061 2.1458 21.621 0.21185 21.512-3.279-0.031-1.0273-0.45035-1.956-1.6176-2.8871" fill="#dcdddd"/>
  <path d="m90.218 108.36c-0.32501-0.12283-0.74245-0.18631-1.211-0.20322 0.88366 0.46985 1.8002 0.83743 2.7349 1.1113-0.46981-0.40043-0.98224-0.70349-1.5239-0.90798" fill="#fff"/>
  <path d="m118.19 195.17c1.9304-1.7649 0.79968-3.7354-2.4684-4.2187-4.2673-0.62924-6.2659 0.59399-8.6941 0.78872-1.1928-0.31293-2.169-0.60979-2.9759-0.91527-0.30431-1.7965-0.99686-4.4804-2.1532-7.0206 1.2549 0.91654 2.9443 1.9243 5.3786 2.7836 5.2776 1.8622 10.258-0.40899 10.816-1.8026 0.55745-1.3936-1.9925-4.6495-4.7432-7.9699-2.5061-3.0246-4.8357-5.3968-14.13-10.132-0.29568-0.15077-0.57815-0.30292-0.84592-0.45763-2.6522 0.0559-4.3014-0.88853-5.7596-3.9217-3.5821-7.4514-5.6451-9.2577-7.2323-8.7294-3.1877 1.0626-6.0992 13.015-0.62321 22.82 5.3616 9.6021 7.9809 15.838 6.3596 17.583-1.6432 1.7697-9.0532 0.13145-14.99-5.1449 5.6378 9.534 13.899 14.398 25.861 14.505 8.8061 2.1458 21.621 0.21046 21.512-3.279-0.0549-1.749-1.211-3.2084-5.3104-4.8893" fill="#2478be"/>
  <g fill="#2068a6">
   <path d="m115.72 190.95c-4.2661-0.62928-6.2659 0.59395-8.6929 0.78747 0.0838 0.0207 0.16319 0.0438 0.24945 0.0669 4.9538 1.2731 8.4592 2.3576 10.912 3.3642 1.9316-1.7648 0.79965-3.7366-2.4684-4.2186"/>
   <path d="m109.04 184.14c-7.7143-4.9088-11.015-5.2788-12.106-3.9837-1.2366 1.4691-0.0138 4.9428 3.6003 8.2364 0.95425 0.87028 2.1312 2.1227 3.4859 2.3053-0.31534-1.7941-0.99927-4.4098-2.1288-6.8915 1.2549 0.91772 2.9443 1.9243 5.3786 2.7836 4.9684 1.7539 9.6727-0.15699 10.671-1.5494-2.3479 1.3182-5.8131 1.0638-8.901-0.90067"/>
   <path d="m121.88 197.17c1.4472 5.56-14.829 4.91-30.44-3.789-0.079 0.23013-0.17907 0.43818-0.32501 0.59644-1.6432 1.7685-9.0532 0.13007-14.99-5.1461 5.6379 9.534 13.899 14.398 25.861 14.505 8.8061 2.1458 21.622 0.21185 21.512-3.279-0.031-1.0273-0.45035-1.956-1.6176-2.8871"/>
  </g>
  <path d="m147.04 179.09c-3.0672 5.521-8.049 7.763-14.053 7.1313-4.5923-0.48323-6.2415-4.6787-2.7264-7.5512 8.5992-7.0266 9.0191-10.487 14.158-11.955 2.7873-0.6731 5.7802 6.7759 2.6218 12.375" fill="#2478be"/>
  <path d="m130.31 182.5c-0.88852-0.5952-1.0711-1.9414-0.59398-3.318-2.7593 2.8348-1.0492 6.586 3.279 7.0412 6.003 0.6317 10.986-1.6103 14.053-7.1313 0.80696-1.4314 1.211-2.9832 1.3206-4.4901-0.0241-0.17389-0.0462-0.34433-0.0718-0.52336-7.8178 8.4799-15.943 9.7908-17.987 8.4215" fill="#2068a6"/>
  <g fill="#0f141b">
   <path d="m87.861 150.83c-0.48079-7.3224 0.87876-15.93 2.7617-20.235 1.2938-2.9577 2.3333-6.1064 3.1354-9.8504 0.35054-1.637 1.3364-1.5324 1.1113 0.12904-0.49293 3.6478-1.4898 6.9755-2.9406 10.292-2.1008 4.8004-3.0636 15.399-2.1446 21.802-0.44307-0.6329-1.4545-1.5762-1.9231-2.1373"/>
   <path d="m97.947 181.63c-0.9518-0.0925-1.2427-0.90191-0.16319-1.0687 0.74365-0.11455 1.0808 0.0438 4.1639 2.3649 8.5663 6.4484 14.842 2.5219 15.273 1.446 0.31155-0.78022-0.30051-1.9706-4.4864-7.023-2.4854-2.9991-4.6751-5.4078-13.784-10.049-2.2882-1.166-4.1602-2.4039-5.2119-5.1558-2.304-6.0225-4.1955-9.3575-7.0558-11.791-1.2135-1.0322-0.64267-1.7418 0.67675-0.84591 3.2084 2.1799 5.6293 6.1356 7.875 12.008 0.7814 2.0448 1.8196 3.2876 4.2418 4.5205 9.002 4.5862 11.55 6.7272 14.521 10.312 4.7213 5.6987 5.2788 7.3236 5.1486 8.2706-0.31776 2.3114-8.0722 6.373-17.23 0.039-1.7016-1.177-3.0502-2.9382-3.9679-3.0283"/>
   <path d="m104.94 191.13c-0.23358-1.4545-1.0601-4.1809-2.0996-6.7284-0.4674-0.44549-1.7223-1.3328-2.214-1.6967 1.5604 2.7922 2.1604 5.7839 2.5304 7.7922z"/>
   <path d="m108.51 192.24c3.7841-1.0382 7.9358-0.93597 9.3477 0.35419 0.66699 0.61103 0.66334 1.5373-0.31638 2.3004 0.22633 0.0901 0.90802 0.44915 1.2354 0.57573 1.4095-1.1794 1.3924-2.8786 0.63294-3.6807-3.537-3.7379-11.904-0.25946-14.02-0.81187z"/>
   <path d="m95.456 200.79c-1.0601-1.1137-0.44549-1.7502 0.71933-0.74731 6.6554 5.7291 26.551 3.2048 26.454 0.0276-0.0669-2.147-2.3199-4.1785-15.532-7.5768-4.3185-1.1101-5.958-2.337-6.586-3.7135-0.3956-0.86659 0.20563-1.2269 0.69377-0.41016 0.56231 0.94449 1.6188 1.5543 6.2476 2.7434 14.7 3.7805 16.811 5.9519 16.901 8.8718 0.18872 5.9969-23.094 6.9012-28.898 0.80452"/>
   <path d="m67.791 156.95c-6e-3 0.57694 0.0633 2.3406-0.0217 2.9382-3.2437 6.6371-3.3959 15.42-1.4995 16.631 0.9372 0.59885 2.7629 0.56477 4.4779-0.50755 0.0816 0.40167 0.35785 0.98955 0.48078 1.3766-2.4501 1.4448-4.4329 1.6115-5.7949 0.8581-3.5358-1.9548-2.3698-13.61 2.3576-21.296"/>
   <path d="m73.424 196.85c-3.6454-2.197-5.6512-8.3667-2.3345-19.902 0.18987 0.53067 0.7437 1.8111 0.83133 2.4209-2.0752 8.5505-0.70718 14.002 2.3674 15.855 1.9474 1.1746 4.6045 0.94449 6.3292-0.4175 0.20943 0.17527 0.79724 0.90191 0.96644 1.0529-2.5792 2.0923-5.8606 2.3771-8.1598 0.99075"/>
   <path d="m67.726 165.98c-1.418-7.7216-1.0151-13.432 2.842-21.609 2.7605-5.8496 4.6154-14 6.9207-23.497 1.7722-7.2932 5.448-12.181 11.289-14.046 1.5592-0.49658 1.928 0.44915 0.41265 1.065-5.2691 2.1446-8.727 7.8579-10.055 13.328-2.3235 9.5729-4.4572 17.778-7.2786 23.758-3.3983 7.2055-4.0836 13.373-2.7301 20.744 4.5278 24.653 14.21 35.403 29.817 36.541 1.2062 0.46985 3.4738 1.407 5.2532 1.8939-19.445 0.52581-31.165-9.2832-36.471-38.177"/>
   <path d="m99.795 186.96c-0.56355-1.3827-0.52215-3.3873 0.0207-4.781 0.21667 0.14249 0.87879 0.70715 1.0711 0.8228-0.37369 1.2695-0.44063 2.3333-0.23013 3.7476 0.12283 0.82035-0.57204 0.91651-0.86051 0.21046"/>
   <path d="m127.7 183.38c-1.4472-4.8467 3.6819-5.4613 9.568-12.342 2.3345-2.7301 4.6824-4.1359 6.3912-4.5802 0.91164-0.23599 1.1405 0.33122 0.2874 0.66945-1.5799 0.62441-2.9772 1.6407-5.6342 4.8808-5.0159 6.1137-9.9454 7.421-8.9242 10.841 1.278 4.2795 12.854 3.9095 16.983-3.5212 0.84716-1.5397 1.7223-1.1015 0.86783 0.43328-4.9063 8.8317-17.819 9.3782-19.539 3.6186"/>
   <path d="m108.61 67.194c-8.0028-0.46736-18.139-2.4732-28.024-6.4205-22.674-9.0544-25.832-18.579-23.971-20.51 0.76194-0.79113 2.5645-0.80455 5.482 0.60372 0.83619 0.93355 2.1848 2.6254 3.1171 3.5711-3.8718-2.4148-6.4813-3.1622-6.9901-2.7167-0.54529 0.47833 1.3084 8.9156 22.784 17.529 10.829 4.344 20.518 6.0639 28.072 6.3694z"/>
  </g>
 </g>
</svg>
