<?xml version="1.0" encoding="UTF-8"?>
<!-- Created with Inkscape (http://www.inkscape.org/) -->
<svg version="1.1" viewBox="0 0 337.22 274.48" xmlns="http://www.w3.org/2000/svg">
 <g transform="translate(25.004 -7.0128)">
  <path d="m269.13 171.63c0.0392 3.9942 0.0107 7.8577-0.0774 11.589 6.2794 4.4417 18.387 11.592 23.429 13.783 2.6456 1.1506 4.5685 2.9388 5.8735 4.9488-0.48107-4.6616-1.101-9.1647-1.8694-13.278-4.7051-5.319-16.943-10.563-27.355-17.042" fill="#444a4e"/>
  <path d="m296.48 188.67c-1.8001-9.636-4.416-17.106-7.9825-19.314-3.8814-2.4041-13.256-2.0635-19.51-5.3547 0.0691 2.5962 0.11504 5.1349 0.1364 7.626 10.414 6.4775 22.65 11.723 27.356 17.042" fill="#d9be73"/>
  <path d="m308.96 186.39c-2.311-15.531-7.23-29.961-14.298-36.524-4.8497-4.5011-20.397-5.3843-26.569-5.5369 0.0392 0.5862 0.0853 1.1684 0.11907 1.7585 0.36037 6.2359 0.62178 12.198 0.77425 17.914 6.2537 3.2932 15.628 2.9526 19.51 5.3546 3.1229 1.9327 5.517 7.8993 7.2715 15.822 2.9487-1.6317 9.8558-1.0654 13.193 1.2119" fill="#52585c"/>
  <path d="m300.03 157.01c-1.6198-2.8833-3.4061-5.325-5.3646-7.1428-4.8497-4.5032-20.397-5.3864-26.569-5.5388 0.0392 0.58615 0.0853 1.1703 0.11906 1.7605 0.15045 2.6021 0.27899 5.1467 0.39407 7.6577 8.5191 1.3149 17.656 3.4199 21.349 6.7924 5.6299 5.1408 10.84 4.208 10.072-3.5288" fill="#52585c"/>
  <path d="m300.03 157.01c0.76835 7.7369-4.4417 8.6696-10.072 3.5288-3.6932-3.3724-12.83-5.4775-21.349-6.7924 0.16054 3.5011 0.29133 6.925 0.38002 10.254 6.2537 3.2932 15.628 2.9526 19.51 5.3546 3.1229 1.9327 5.5151 7.9013 7.2716 15.822 2.9486 0.47032 9.8558 1.8775 13.193 1.2119-1.6713-11.226-4.7111-21.86-8.933-29.379" fill="#444a4e"/>
  <path d="m308.96 186.39c-3.3368-2.2773-10.244-2.8437-13.193-1.2119 0.24978 1.1268 0.48724 2.2912 0.71092 3.4932 0.69505 0.78418 1.2278 1.5704 1.5644 2.3625-0.3368-0.7921-0.86935-1.5783-1.5644-2.3625 0.76831 4.1111 1.3881 8.6142 1.8694 13.276 0.95051 1.4634 1.5822 3.0416 1.8832 4.5982-0.30088-1.5565-0.93273-3.1348-1.8832-4.5982 1.4297 13.866 1.6377 29.102 0.88714 39.401 10.634-4.2298 13.303-30.914 9.7251-54.958" fill="#806951"/>
  <path d="m66.557 266.41c-2.208-2.4832-12.791-5.3645-17.236-4.6477-0.01795 0.0892-0.0533 0.18411-0.06536 0.27336-0.46737 3.2674 10.634 14.884 17.5 15.709 0.93468 0.11277 1.8753 0.2178 2.8159 0.31659 0.21983-2.3605-1.4872-9.9331-3.014-11.652" fill="#ce7e91"/>
  <path d="m125.73 10.013c-67.799 0-132.17 50.986-140.69 119.28-13.159 19.878-7.8716 61.278 4.1328 77.943-4.8022 4.9626-10.838 12.85-10.511 13.834 0.70498 2.109 15.513 17.302 18.696 18.296 6.4002 2.0001 29.514 2.9526 45.602 1.0793 3.7665 3.5823 8.5508 6.8933 14.604 9.8004-4.319 3.8318-7.6122 8.0993-8.2359 11.519 4.4457-0.71683 15.028 2.1645 17.236 4.6477 1.5268 1.7189 3.2338 9.2915 3.014 11.652 30.748 3.2278 65.23-0.52653 71.761-0.3166 7.3211 0.23576 14.244 0.32109 20.807 0.25541-49.366-4.5328-66.299-50.072-40.685-97.982 0.31884-0.42381 1.5801-0.59102 0.0107-1.3208 6.6631-19.727 14.573-30.515 30.407-39.368l93.471-7.1587c10.22-0.22791 14.9 13.62 23.486 26.9-0.15438-4.1962-0.3587-8.5152-0.61585-12.979-4.8715-84.116-59.089-136.08-142.49-136.08" fill="#52585c"/>
  <path d="m167.45 95.577c-9.8281 28.29 37.387 86.583 52.766 84.587 20.419-2.6516 35.797-46.934 37.124-55.951-20.419 17.767-57.01 23.866-89.89-28.637" fill="#444a4e"/>
  <path d="m60.392 135.15c-3.7784 0.99406-30.611 29.306-34.985 30.1-0.6119-2.3248-3.0655-4.5111-3.9269-5.2418 10.341 24.33-7.624 45.344-12.198 45.94-4.7368 0.61787-11.248 4.6714-17.351 4.8714 4.2833 4.9071 8.0201 9.7806 8.4023 11.486 0.71884 3.2021-3.5308 8.8083-8.2696 13.08 2.3427 2.105 4.3348 3.6754 5.2873 3.9744 6.4002 2 29.516 2.9506 45.602 1.0792 3.7665 3.5823 8.5508 6.8933 14.605 9.7984-4.317 3.8318-7.6122 8.0993-8.236 11.519 4.4457-0.71683 15.03 2.1664 17.236 4.6497 1.5288 1.7169 3.2338 9.2894 3.014 11.65 30.748 3.2298 65.23-0.52485 71.763-0.3149 7.3191 0.23576 14.242 0.32109 20.805 0.25372-34.76-3.1902-57.269-28.482-55.907-58.65-5.3586-9.139-8.5686-20.163-8.8498-33.284 0 0-33.34-51.871-36.989-50.911" fill="#444a4e"/>
  <path d="m66.557 130.31c-18.959 10.474-29.963 51.441-22.009 76.633 1.3129 4.1586 25.831 15.949 26.25 13.125 0.88716-5.9467 18.009-26.458 27.843-35.399z" fill="#52585c"/>
  <path d="m67.22 210.92c-0.36044 2.2813-2.3565 5.012-4.7546 7.2517 4.5289 1.9288 8.1745 2.9704 8.335 1.8972 0.83369-5.6022 16.078-24.132 26.064-33.734-11.882 3.6635-29.363 22.811-29.645 24.585" fill="#444a4e"/>
  <path d="m245.34 132.17-93.471 7.1587c-22.979-3.3387-40.14 17.959-30.407 39.368 0.30705 0.67725 0.30705 0.89706-0.0107 1.3209-33.342 44.342-8.6795 93.449 40.685 97.982 89.037-0.91093 109.93-30.742 106.69-118.93-3.8279-18.036-13.266-27.128-23.486-26.9" fill="#92795e"/>
  <path d="m106.23 219.35c-1.3624 30.167 21.149 55.457 55.907 58.65 56.848-0.58222 85.912-12.955 98.657-44.778-40.792 29.829-126.79 33.506-154.56-13.872" fill="#806951"/>
  <path d="m220.22 180.16c15.874-2.0614 28.698-29.282 34.245-45.534-2.8694-1.703-5.9567-2.5308-9.1212-2.4595h-4e-3c-9.8697 4.7705-21.654 6.5587-34.191 2.6199l-34.211 2.6199c12.919 22.999 33.956 43.966 43.283 42.754" fill="#806951"/>
  <path d="m-21.477 220.87c2.9169-1.5902 11.402 1.8555 14.717 5.7012 5.6656 6.5745 4.9824 12.959 3.0476 14.583-3.313 2.7842-20.351-13.963-17.765-20.284" fill="#ef91a7"/>
  <path d="m-11.069 237.96c3.1942 2.6615 6.1646 4.1962 7.3587 3.1942 1.4812-1.2436 2.2179-5.2814-0.057428-10.054-2.1229 2.5229-4.7804 4.9942-7.3013 6.8596" fill="#ce7e91"/>
  <path d="m-9.4119 209.07c-0.29902-0.84357 10.59-5.2695 19.49-4.3744 2.4595 0.2453 8.8419 8.1152 7.026 10.739-1.1921 1.7228-24.395-0.39799-26.516-6.3646" fill="#ef91a7"/>
  <path d="m44.549 206.95c7.1151-1.9763 17.973 0.0814 20.193 1.4396 3.3942 2.0773 6.3388 7.3369 5.925 12.084-0.18812 2.1783-3.9764 2.7842-9.5449 0.53046-5.5685-2.2535-17.502-11.004-16.573-14.054" fill="#ef91a7"/>
  <path d="m10.078 204.69c-0.53069-0.0561-1.0693-0.0853-1.61-0.10272 1.5288 3.113 3.2872 7.6834 4.4497 11.414 2.2872 0.0392 3.8952-0.15269 4.1863-0.57229 1.8159-2.6219-4.5665-10.491-7.026-10.739" fill="#ce7e91"/>
  <path d="m59.753 220.38c0.48517 0.23969 0.94657 0.45131 1.3684 0.6218 5.5685 2.2535 9.3568 1.6476 9.5449-0.53047 0.30296-3.4754-1.1981-7.2201-3.3526-9.7944-0.0517 0.10273-0.08317 0.18636-0.09308 0.24923-0.49111 3.111-4.0219 7.0577-7.4676 9.4538" fill="#ce7e91"/>
  <path d="m171.36 270.68c2.4753 0.0909 4.8517-6.921 3.5625-12.058-2.2397-0.0107-4.3447-0.17625-6.2854-0.49903-2.208 5.3982 0.16054 12.462 2.7229 12.557" fill="#fff"/>
  <path d="m166.39 227.83c-7.6795 8.7746-10.448 22.579-8.1528 25.256 5.9646 6.9606 20.682 6.7626 36.989 2.7842z" fill="#633334"/>
  <path d="m167.2 228.62-0.81388-0.7921c-7.6795 8.7766-10.45 22.579-8.1548 25.256 1.6674 1.9446 4.0338 3.311 6.9072 4.212 4.3328-7.9013 4.7408-18.628 2.0615-28.676" fill="#794241"/>
  <path d="m205.9 120.64c8.5291 9.743 5.6299 26.332-6.6755 37.104-12.307 10.773-29.199 11.606-37.728 1.8635-8.5291-9.743-5.4656-26.375 6.8398-37.148 12.307-10.773 29.035-11.563 37.564-1.8199" fill="#fff"/>
  <path d="m210.75 134.66c-9.3271-3.016-19.064-9.2122-28.734-19.706-4.2952 1.2-8.5667 3.3783-12.466 6.5171 4.9506 13.909 14.587 28.775 24.454 40.075 1.8001-1.0911 3.5506-2.3506 5.216-3.8061 7.428-6.5052 11.402-15.123 11.529-23.08" fill="#dcdcdc"/>
  <path d="m180.71 166.24c-11.27-0.13245-24.395-13.391-22.937-27.71 0.78021-3.1169-1.2159-11.424-3.4457-13.656-5.4636-5.4616-13.941-5.2101-15.513-3.8437-3.0476 2.6516-0.79407 15.909 9.5469 19.357-5.9666 13.654 5.4358 38.712 32.35 25.852" fill="#fcdd82"/>
  <path d="m138.81 121.03c0 7.7567 5.4299 15.854 10.4 18.904-3.711-0.86144-7.4795-2.8635-9.4717-6.1765-4.111-6.8279-0.92873-12.727-0.92873-12.727" fill="#d9be73"/>
  <g fill="#0f141b">
   <path d="m15.977 210.39c14.515-12.628 16.943-39.318 6.6299-50.978-0.86932-0.98224-1.7604-0.31098-0.99607 0.69706 8.6518 11.385 6.3606 35.922-7.0498 48.206z"/>
   <path d="m48.666 262.97c3.1665-1.3782 15.117 1.8536 17.131 4.119 1.3169 1.4812 3.0991 9.2894 2.7447 11.056l1.9961 0.40024c0.43565-2.1743-1.208-10.868-3.0853-12.977-2.4219-2.7268-13.862-5.7348-18.646-4.7546z"/>
   <path d="m58.75 249.68c-9.1172-4.2516-16.185-9.6261-20.731-16.236-1.2357-1.7961-2.4674-1.0892-1.3921 0.79609 4.0972 7.1785 11.585 13.838 20.185 17.119z"/>
   <path d="m33.654 228.55c-1.4931-2.7605-4.6417-9.6657-5.7923-12.634-0.82974-2.1427 0.05746-2.8338 1.4357-0.66933 1.5327 2.408 4.5586 8.7132 5.9507 12.713 0.70497 2.0278-0.66538 2.307-1.5941 0.59012"/>
   <path d="m-2.3461 238.39c6.3725 1.9902 29.47 2.8397 45.006 1.0634l1.8238 2.5922c-15.911 1.9882-40.295 0.93071-47.73-1.3922z"/>
   <path d="m-22.888 221.4c-0.61586-1.8496 6.7131-11.159 11.288-15.842l1.6971 2.1605c-4.5606 4.6437-10.018 11.856-10.428 13.272z"/>
   <path d="m-20.652 221.62c-1.4119 6.1309 14.206 20.545 16.288 18.753 1.2535-1.0535 2.3526-6.7388-3.1665-13.141-3.0952-3.5882-10.529-6.4042-13.121-5.6121m1.1228-2.1546c4.2021 0.0107 10.711 3.1586 13.539 6.4379 6.0854 7.0597 5.6061 14.858 3.2061 16.773-4.4239 3.5309-19.941-12.198-20.284-20.086-0.1089-2.5011 1.0852-3.1328 3.5387-3.1249"/>
   <path d="m-8.4538 208.73 0.00201 1e-3s0-1e-3 -0.00201-1e-3m0.27921 0.53046c3.1268 4.5012 21.692 6.6299 24.5 5.4893 0.88914-2.0931-4.6081-8.8676-6.3507-9.0419-7.3686-0.73862-16.074 2.3466-18.149 3.5526m-2.5149 0.45356c-0.24553-0.68915 0.44553-1.5426 1.3644-2.0951 2.9031-1.7446 12.145-4.7665 19.634-4.016 3.0833 0.30873 10.319 9.4142 7.9547 12.826-1.8199 2.6298-26.577-0.0336-28.954-6.7151"/>
   <path d="m60.26 222.26c-3.8615-1.5624-14.416-8.5746-16.737-13.268-1.0654-2.1565-0.38019-2.8259 2.0536-3.3427 7.2498-1.5387 16.985-0.0651 19.922 1.4971 3.9546 2.103 7.0003 8.7013 6.529 14.119-0.28319 3.2061-5.8557 3.3863-11.767 0.99413m-14.696-14.521c0.84756 2.4951 9.834 9.8478 15.939 12.319 5.4477 2.206 8.0637 1.3287 8.1508 0.325 0.39805-4.5725-2.5149-9.337-5.4438-11.127-1.7585-1.0773-11.721-3.1051-18.646-1.5169"/>
   <path d="m173.24 120.02c-1.4496 0.94064-2.8655 2.008-4.2299 3.2021-7.0517 6.1725-11.19 14.67-11.329 22.539l-0.28291-9.9112c1.9367-5.2952 5.3487-10.357 9.9885-14.416 1.6119-1.4119 3.2952-2.6496 5.0259-3.719zm29.116 36.554c-0.7129 0.73861-1.4634 1.4555-2.2555 2.1486-6.3567 5.5646-13.971 8.4993-21.11 8.7686l-5.515-2.4456c1.7228 0.29694 3.5368 0.40191 5.42 0.30704 6.8973-0.34241 13.88-3.315 19.66-8.3765 0.67726-0.59209 1.3248-1.204 1.9446-1.8318z"/>
   <path d="m139.48 121.8c-2.2714 1.9783-0.63763 13.599 8.2875 17.284 1.806 0.74653 1.8476 0.81193 1.2357 2.4179-4.5883 12.05 4.4437 34.063 27.88 25.268-10.899-2.608-21.575-14.078-20.122-28.34 4e-3 -0.0505 0.0107-0.0971 0.0225-0.14258 0.71089-2.8456-1.2793-10.791-3.1804-12.69-5.21-5.2121-13.09-4.6952-14.125-3.7982m7.5468 19.179c-10.27-3.5883-12.307-17.809-8.8815-20.714 1.9149-1.6238 11.347-1.9605 17.157 3.8496 2.5823 2.5823 4.2556 11.216 3.4754 14.589-1.3545 13.745 11.369 26.397 21.943 26.522 2.1724 0.028 2.2357 1.3981 0.55067 2.1783-27.411 12.694-40.205-10.309-34.245-26.425"/>
   <path d="m183.44 152.31c-1.6555-2.2199-4.4655-5.62-6.0656-7.7072-2.1585-2.8139-0.11504-5.1566 2.6358-2.4852 2.1644 2.103 4.7982 5.5982 6.3626 8.0537 1.8971 2.9783-0.83762 4.9488-2.9328 2.1387"/>
   <path d="m268.51 165.28c6.6557 3.6536 15.234 2.8813 19.092 5.2695 8.2538 5.1111 11.569 44.889 10.044 69.407-0.2554 4.0813-0.11116 4.008 3.4793 1.9881 18.306-10.291 12.135-77.706-5.2695-93.867-5.4458-5.0557-22.993-5.1804-28.34-5.2695l0.0505 2.5229c8.0855 0.1364 22.177 1.3545 26.403 5.2814 17.304 16.066 21.042 79.046 6.4022 88.985 1.2911-22.066-1.3901-64.949-11.339-71.106-4.5151-2.7961-14.838-2.0713-20.846-6.1428z"/>
   <path d="m268.41 172.84c11.179 6.925 26.288 13.553 28.637 19.092l-0.28124-4.4417c-5.4932-5.6873-18.331-11.121-28.237-17.436z"/>
   <path d="m269.46 185.43c6.5804 4.523 17.65 11.028 22.553 13.159 5.3864 2.3427 6.8022 6.9369 7.1606 8.8043l-0.37441-6.6101c-1.4812-2.0298-3.511-3.6714-5.9171-4.719-5.012-2.1783-17.163-9.3508-23.3-13.7z"/>
   <path d="m169.37 233.53c2.0555 7.6894 0.53046 20.484-4.6675 24.235l-2.2753-0.74265c5.4378-3.7625 7.0379-18.215 3.4001-27.684z"/>
   <path d="m45.518 206.64c-7.8399-24.831 3.1407-63.135 20.442-75.199 1.4258-0.99412 0.73469-1.8773-0.79606-0.99412-20.276 11.703-29.482 53.467-22.128 76.759z"/>
   <path d="m71.079 216.49c4.22-8.2498 16.494-23.563 26.437-31.619 1.1842-0.96039 2.0436-0.11062 0.92677 0.92879-10.464 9.729-25.845 31.015-26.892 36.063z"/>
   <path d="m-10.506 210.03c-14.616-16.008-20.276-61.329-7.0597-81.637 8.63-68.064 74.026-121.38 142.86-121.38 85.217 0 140.38 53.681 145.31 138.88 6.3349 109.38-17.826 137.24-129.86 133.64-7.6756-0.20993-42.685 4.2298-74.577 0.39799-7.1587-0.86142-19.49-13.527-18.892-17.7 1.0753-7.5349 13.62-18.749 24.759-21.728 1.3723-0.36655 1.8357 0.85947 0.54657 1.3427-9.5449 3.5803-21.415 14.052-22.31 20.329-0.36633 2.5882 10.068 13.771 16.614 14.557 31.175 3.7467 66.862-0.26551 74.488-5e-3 110.74 3.5483 131.89-25.966 125.83-130.58-4.7448-81.908-56.85-135.12-141.47-135.12-68.892 0-130.96 51.871-139.59 117.63-0.11289 0.84959-0.26933 1.1922-0.65745 1.808-13.319 21.155-6.1725 63.798 5.8814 77.939z"/>
   <path d="m196.12 257.06-2.2278-1.9208c-6.8379 1.606-12.959 2.4298-18.222 2.4753-1.8179 0.0169-1.903 0.16055-1.5704 1.9328 0.8951 4.7744-1.4278 10.119-2.6912 10.119-1.3981-0.0561-3.6675-5.4656-2.1466-10.323 0.6178-1.9723 0.64356-1.9763-1.3506-2.3723-4.0061-0.79806-6.9963-2.3248-8.9033-4.5507-1.703-1.9862 0.37609-14.224 7.2716-22.878l-1.7307-1.9149c-7.3944 9.0617-10.303 23.141-7.6399 26.25 2.1624 2.5209 5.6913 4.315 10.078 5.2378-2.3169 6.6636 1.6574 12.909 4.3744 12.909 2.8615 0 6.3488-6.0675 5.0378-12.147 4.8279-0.0792 11.543-0.8218 19.721-2.8179"/>
  </g>
  <path d="m156.45 200.45c11.022-28.932 88.441-44.33 104.47-29.565 23.468 21.611-9.2142 97.713-21.941 100.89-26.175 6.5428-92.635-44.81-82.532-71.329" fill="#ef91a7"/>
  <path d="m198.61 175.52c1.7902 2.5862 18.306 8.1508 20.815 7.2914 13.022-4.4596 36.799-13.874 46.544-4.8061-1.2595-2.7566-2.919-5.1685-5.0458-7.125-8.7964-8.1013-36.069-7.121-60.717 0.1903-1.4931 1.7803-2.311 3.418-1.5961 4.4496" fill="#f1a7ba"/>
  <path d="m170.96 216.09c-1.3446-2.4219-3.7784-4.2417-6.1646-4.5744-1.1644-0.16223-5.4338-1.6258-9.3172-3.6476 2.1169 27.585 59.594 69.882 83.496 63.905 0.78817-0.19591 1.6516-0.67332 2.5744-1.3981-22.652 2.3842-57.103-30.013-70.589-54.285" fill="#ce7e91"/>
  <g fill="#0f141b">
   <path d="m247.53 191.99c3.1506 5.8853-6.2636 17.343-23.534 26.31-19.026 9.8776-32.098 10.315-34.944 5.0002-3.4377-6.424 5.8794-16.858 23.534-26.31 16.149-8.6459 31.793-10.886 34.944-5.0002"/>
   <path d="m255.68 234.29c-6.7388 14.997-16.381 25.589-21.225 23.413-4.8002-2.1565-4.9448-13.888 3.4338-31.094 7.1982-14.783 16.129-25.52 20.973-23.343 4.8437 2.1783 3.5565 16.028-3.1823 31.025"/>
   <path d="m157.4 200.81c-9.935 26.076 56.347 76.223 81.336 69.979 11.977-2.9922 44.372-78.094 21.498-99.158-15.589-14.357-92.156 1.1466-102.83 29.179m-3.0714-1.1565c10.838-28.445 89.853-46.974 108.19-30.096 24.149 22.24-9.2419 100.88-22.539 104.21-27.092 6.7725-96.293-46.164-85.647-74.112"/>
  </g>
  <path d="m247.73 103.53c-8.5449-4.7249-22.179-2.0674-29.043 13.826-0.22959 0.53271-0.36656 0.52091-0.62382 0.028-5.1863-9.8558-17.559-13.739-26.813-9.6796-8.7074-0.76989-15.84 15.127-10.753 24.993 13.551 19.692 33.627 34.619 38.263 34.205 9.0459-0.80996 25.145-19.854 36.72-39.708 2.7387-10.525-0.19029-19.486-7.7508-23.666" fill="#92795e"/>
  <path d="m180.48 122.1c-0.77628 3.4576-0.83174 7.125 0.0169 10.6 13.551 19.694 33.627 34.621 38.265 34.205 2.4298-0.21611 5.3724-1.7605 8.5964-4.2714-10.67 2.6456-32.68-17.359-46.879-40.534" fill="#806951"/>
  <path d="m268.61 86.827c-6.7924-21.322-57.721-32.635-78.157-24.462l-22.339 30.296c-2.0436 13.484 3.8893 27.698 12.383 40.039-2.412-9.8657 2.3427-21.302 10.753-24.991 9.2538-4.0596 21.627-0.17626 26.813 9.6795 0.25934 0.49117 0.39405 0.50296 0.62382-0.0281 6.8636-15.894 20.498-18.551 29.043-13.826 7.5606 4.1803 10.489 13.139 7.7527 23.666 9.2915-15.939 15.668-32.401 13.129-40.372" fill="#52585c"/>
  <path d="m168.05 93.242c-1.7902 13.311 4.0774 27.294 12.448 39.459-0.84953-3.4754-0.79211-7.1428-0.0169-10.6-5.8517-9.5548-10.379-19.646-12.23-28.91z" fill="#444a4e"/>
  <path d="m168.78 93.987c-3.3804 34.504 43.699 71.163 50.026 70.68 15.517-1.3881 54.408-60.042 48.839-77.532-6.4023-20.102-54.986-30.385-75.995-24.272-1.3308 0.38788-1.9724-0.99609-0.69512-1.4911 19.314-7.4933 72.565 1.6792 79.779 24.528 5.6636 17.931-32.649 80.664-51.707 81.936-5.0695 0.3368-22.886-11.27-36.241-29.1-10.01-13.361-18.381-29.9-15.597-44.946 0.36262-1.9605 1.7843-1.7842 1.5902 0.19815" fill="#0f141b"/>
 </g>
</svg>
