<?xml version="1.0" encoding="UTF-8" standalone="no"?>
<!-- Created with Inkscape (http://www.inkscape.org/) -->

<svg
   version="1.1"
   viewBox="0 0 332.09 310.16"
   id="svg7084"
   sodipodi:docname="915-2.svg"
   inkscape:version="1.2.2 (b0a8486, 2022-12-01)"
   xmlns:inkscape="http://www.inkscape.org/namespaces/inkscape"
   xmlns:sodipodi="http://sodipodi.sourceforge.net/DTD/sodipodi-0.dtd"
   xmlns="http://www.w3.org/2000/svg"
   xmlns:svg="http://www.w3.org/2000/svg">
  <sodipodi:namedview
     id="namedview7086"
     pagecolor="#505050"
     bordercolor="#eeeeee"
     borderopacity="1"
     inkscape:showpageshadow="0"
     inkscape:pageopacity="0"
     inkscape:pagecheckerboard="0"
     inkscape:deskcolor="#505050"
     showgrid="false"
     inkscape:zoom="0.76089759"
     inkscape:cx="168.22237"
     inkscape:cy="272.04712"
     inkscape:window-width="1309"
     inkscape:window-height="430"
     inkscape:window-x="57"
     inkscape:window-y="182"
     inkscape:window-maximized="0"
     inkscape:current-layer="svg7084" />
  <defs
     id="defs6966">
    <clipPath
       id="clipPath18814">
      <path
         d="m31.373 621.62h756.85v118.95h-756.85z"
         id="path6807" />
    </clipPath>
    <clipPath
       id="clipPath18484">
      <path
         d="m31.373 621.62h756.85v118.95h-756.85z"
         id="path6810" />
    </clipPath>
    <clipPath
       id="clipPath18454">
      <path
         d="m31.373 621.62h756.85v118.95h-756.85z"
         id="path6813" />
    </clipPath>
    <clipPath
       id="clipPath18469">
      <path
         d="m31.373 621.62h756.85v118.95h-756.85z"
         id="path6816" />
    </clipPath>
    <clipPath
       id="clipPath18829">
      <path
         d="m31.373 621.62h756.85v118.95h-756.85z"
         id="path6819" />
    </clipPath>
    <clipPath
       id="clipPath18409">
      <path
         d="m31.373 621.62h756.85v118.95h-756.85z"
         id="path6822" />
    </clipPath>
    <clipPath
       id="clipPath18439">
      <path
         d="m31.373 621.62h756.85v118.95h-756.85z"
         id="path6825" />
    </clipPath>
    <clipPath
       id="clipPath18394">
      <path
         d="m31.373 621.62h756.85v118.95h-756.85z"
         id="path6828" />
    </clipPath>
    <clipPath
       id="clipPath18424">
      <path
         d="m31.373 621.62h756.85v118.95h-756.85z"
         id="path6831" />
    </clipPath>
    <clipPath
       id="clipPath18799">
      <path
         d="m31.373 621.62h756.85v118.95h-756.85z"
         id="path6834" />
    </clipPath>
    <clipPath
       id="clipPath18784">
      <path
         d="m31.373 621.62h756.85v118.95h-756.85z"
         id="path6837" />
    </clipPath>
    <clipPath
       id="clipPath18769">
      <path
         d="m31.373 621.62h756.85v118.95h-756.85z"
         id="path6840" />
    </clipPath>
    <clipPath
       id="clipPath18754">
      <path
         d="m31.373 621.62h756.85v118.95h-756.85z"
         id="path6843" />
    </clipPath>
    <clipPath
       id="clipPath18739">
      <path
         d="m31.373 621.62h756.85v118.95h-756.85z"
         id="path6846" />
    </clipPath>
    <clipPath
       id="clipPath18724">
      <path
         d="m31.373 621.62h756.85v118.95h-756.85z"
         id="path6849" />
    </clipPath>
    <clipPath
       id="clipPath18709">
      <path
         d="m31.373 621.62h756.85v118.95h-756.85z"
         id="path6852" />
    </clipPath>
    <clipPath
       id="clipPath18694">
      <path
         d="m31.373 621.62h756.85v118.95h-756.85z"
         id="path6855" />
    </clipPath>
    <clipPath
       id="clipPath18679">
      <path
         d="m31.373 621.62h756.85v118.95h-756.85z"
         id="path6858" />
    </clipPath>
    <clipPath
       id="clipPath18664">
      <path
         d="m31.373 621.62h756.85v118.95h-756.85z"
         id="path6861" />
    </clipPath>
    <clipPath
       id="clipPath18649">
      <path
         d="m31.373 621.62h756.85v118.95h-756.85z"
         id="path6864" />
    </clipPath>
    <clipPath
       id="clipPath18634">
      <path
         d="m31.373 621.62h756.85v118.95h-756.85z"
         id="path6867" />
    </clipPath>
    <clipPath
       id="clipPath18619">
      <path
         d="m31.373 621.62h756.85v118.95h-756.85z"
         id="path6870" />
    </clipPath>
    <clipPath
       id="clipPath18604">
      <path
         d="m31.373 621.62h756.85v118.95h-756.85z"
         id="path6873" />
    </clipPath>
    <clipPath
       id="clipPath18589">
      <path
         d="m31.373 621.62h756.85v118.95h-756.85z"
         id="path6876" />
    </clipPath>
    <clipPath
       id="clipPath18934">
      <path
         d="m31.373 621.62h756.85v118.95h-756.85z"
         id="path6879" />
    </clipPath>
    <clipPath
       id="clipPath18919">
      <path
         d="m31.373 621.62h756.85v118.95h-756.85z"
         id="path6882" />
    </clipPath>
    <clipPath
       id="clipPath18904">
      <path
         d="m31.373 621.62h756.85v118.95h-756.85z"
         id="path6885" />
    </clipPath>
    <clipPath
       id="clipPath18889">
      <path
         d="m31.373 621.62h756.85v118.95h-756.85z"
         id="path6888" />
    </clipPath>
    <clipPath
       id="clipPath18874">
      <path
         d="m31.373 621.62h756.85v118.95h-756.85z"
         id="path6891" />
    </clipPath>
    <clipPath
       id="clipPath19144">
      <path
         d="m31.373 621.62h756.85v118.95h-756.85z"
         id="path6894" />
    </clipPath>
    <clipPath
       id="clipPath19129">
      <path
         d="m31.373 621.62h756.85v118.95h-756.85z"
         id="path6897" />
    </clipPath>
    <clipPath
       id="clipPath19114">
      <path
         d="m31.373 621.62h756.85v118.95h-756.85z"
         id="path6900" />
    </clipPath>
    <clipPath
       id="clipPath19099">
      <path
         d="m31.373 621.62h756.85v118.95h-756.85z"
         id="path6903" />
    </clipPath>
    <clipPath
       id="clipPath18574">
      <path
         d="m31.373 621.62h756.85v118.95h-756.85z"
         id="path6906" />
    </clipPath>
    <clipPath
       id="clipPath18559">
      <path
         d="m31.373 621.62h756.85v118.95h-756.85z"
         id="path6909" />
    </clipPath>
    <clipPath
       id="clipPath18544">
      <path
         d="m31.373 621.62h756.85v118.95h-756.85z"
         id="path6912" />
    </clipPath>
    <clipPath
       id="clipPath18529">
      <path
         d="m31.373 621.62h756.85v118.95h-756.85z"
         id="path6915" />
    </clipPath>
    <clipPath
       id="clipPath18514">
      <path
         d="m31.373 621.62h756.85v118.95h-756.85z"
         id="path6918" />
    </clipPath>
    <clipPath
       id="clipPath18499">
      <path
         d="m31.373 621.62h756.85v118.95h-756.85z"
         id="path6921" />
    </clipPath>
    <clipPath
       id="clipPath19084">
      <path
         d="m31.373 621.62h756.85v118.95h-756.85z"
         id="path6924" />
    </clipPath>
    <clipPath
       id="clipPath19069">
      <path
         d="m31.373 621.62h756.85v118.95h-756.85z"
         id="path6927" />
    </clipPath>
    <clipPath
       id="clipPath19054">
      <path
         d="m31.373 621.62h756.85v118.95h-756.85z"
         id="path6930" />
    </clipPath>
    <clipPath
       id="clipPath19039">
      <path
         d="m31.373 621.62h756.85v118.95h-756.85z"
         id="path6933" />
    </clipPath>
    <clipPath
       id="clipPath19024">
      <path
         d="m31.373 621.62h756.85v118.95h-756.85z"
         id="path6936" />
    </clipPath>
    <clipPath
       id="clipPath19009">
      <path
         d="m31.373 621.62h756.85v118.95h-756.85z"
         id="path6939" />
    </clipPath>
    <clipPath
       id="clipPath18994">
      <path
         d="m31.373 621.62h756.85v118.95h-756.85z"
         id="path6942" />
    </clipPath>
    <clipPath
       id="clipPath18979">
      <path
         d="m31.373 621.62h756.85v118.95h-756.85z"
         id="path6945" />
    </clipPath>
    <clipPath
       id="clipPath18964">
      <path
         d="m31.373 621.62h756.85v118.95h-756.85z"
         id="path6948" />
    </clipPath>
    <clipPath
       id="clipPath18949">
      <path
         d="m31.373 621.62h756.85v118.95h-756.85z"
         id="path6951" />
    </clipPath>
    <clipPath
       id="clipPath19159">
      <path
         d="m31.373 621.62h756.85v118.95h-756.85z"
         id="path6954" />
    </clipPath>
    <clipPath
       id="clipPath18844">
      <path
         d="m31.373 621.62h756.85v118.95h-756.85z"
         id="path6957" />
    </clipPath>
    <clipPath
       id="clipPath18859">
      <path
         d="m31.373 621.62h756.85v118.95h-756.85z"
         id="path6960" />
    </clipPath>
    <clipPath
       id="clipPath19174">
      <path
         d="m31.373 621.62h756.85v118.95h-756.85z"
         id="path6963" />
    </clipPath>
  </defs>
  <path
     transform="matrix(10.513042,0.95135981,0.95135981,-10.513042,-2638.8026,7228.6044)"
     d="m 190.79,702.58 c 0.011,-0.331 -0.377,-0.753 -0.935,-1.108 -0.204,0.282 -0.358,0.611 -0.431,0.989 -0.082,0.428 0.124,0.796 0.615,0.838 0.456,0.04 0.735,-0.262 0.751,-0.719 m 1.486,0.129 c -0.034,1.084 -0.871,1.966 -2.35,1.896 -1.583,-0.074 -2.209,-1.153 -2.03,-2.277 0.081,-0.507 0.3,-1.002 0.61,-1.45 -0.065,-0.017 -0.131,-0.033 -0.196,-0.047 -0.479,-0.102 -0.62,-0.476 -0.472,-0.814 0.166,-0.378 0.555,-0.475 1.023,-0.382 0.23,0.046 0.451,0.108 0.663,0.182 0.532,-0.407 1.141,-0.697 1.746,-0.805 l 0.843,1.124 c -0.328,0.038 -0.773,0.177 -1.208,0.422 0.878,0.67 1.39,1.533 1.371,2.151"
     clip-path="url(#clipPath19174)"
     fill="#51585b"
     id="path6968" />
  <path
     transform="matrix(10.513042,0.95135981,0.95135981,-10.513042,-2638.8026,7228.6044)"
     d="m 205.07,679.61 c 0.117,-0.098 0.514,-0.915 0.503,-0.988 -0.012,-0.074 -1.058,-0.129 -1.345,-0.154 l 0.244,1.072 z"
     clip-path="url(#clipPath18859)"
     fill="#d07e93"
     id="path6970" />
  <path
     transform="matrix(10.513042,0.95135981,0.95135981,-10.513042,-2638.8026,7228.6044)"
     d="m 194.02,677.5 c 0.637,-0.388 2.917,-0.098 2.886,0.1 -0.019,0.116 -0.03,0.236 -0.037,0.357 -0.583,0.542 -1.762,0.44 -2.849,-0.457"
     clip-path="url(#clipPath18844)"
     fill="#f091a7"
     id="path6972" />
  <path
     transform="matrix(10.513042,0.95135981,0.95135981,-10.513042,-2638.8026,7228.6044)"
     d="m 196.9,677.6 c -0.018,0.116 -0.03,0.235 -0.037,0.357 -0.249,0.231 -0.608,0.344 -1.021,0.329 0.202,-0.128 0.565,-0.321 0.711,-0.84 0.219,0.049 0.355,0.104 0.347,0.154"
     clip-path="url(#clipPath19159)"
     fill="#d07e93"
     id="path6974" />
  <path
     transform="matrix(10.513042,0.95135981,0.95135981,-10.513042,-2638.8026,7228.6044)"
     d="m 216.88,697.25 c -0.717,0.937 -1.429,1.633 -1.947,1.674 -0.292,0.023 -1.576,-0.475 -1.858,-0.572 l 0.383,-1.149 c 0.442,0.223 1.034,0.54 1.231,0.505 0.286,-0.052 0.828,-0.665 1.392,-1.445 0.274,0.435 0.547,0.78 0.799,0.987"
     clip-path="url(#clipPath18949)"
     fill="#44494d"
     id="path6976" />
  <path
     transform="matrix(10.513042,0.95135981,0.95135981,-10.513042,-2638.8026,7228.6044)"
     d="m 216.88,697.25 c -0.314,0.114 -0.893,-0.416 -0.799,-0.987 0.968,-1.336 1.999,-3.161 1.916,-3.483 -0.076,-0.293 -2.079,-0.625 -2.935,-0.4 l 0.433,-1.302 c 0.699,0.012 4.242,0.369 4.264,0.95 0.018,0.497 -1.442,3.344 -2.879,5.222"
     clip-path="url(#clipPath18964)"
     fill="#7f6851"
     id="path6978" />
  <path
     transform="matrix(10.513042,0.95135981,0.95135981,-10.513042,-2638.8026,7228.6044)"
     d="m 217.99,692.78 c 0.132,0.51 -2.53,4.786 -3.308,4.927 -0.197,0.036 -0.789,-0.281 -1.231,-0.505 l 1.604,-4.822 c 0.856,-0.225 2.859,0.106 2.935,0.4"
     clip-path="url(#clipPath18979)"
     fill="#dac073"
     id="path6980" />
  <path
     transform="matrix(10.513042,0.95135981,0.95135981,-10.513042,-2638.8026,7228.6044)"
     d="m 203.64039,687.80125 6.25443,8.33864 c 0.86154,0.24583 3.3318,0.52822 4.81326,-0.0171 -2.4,4.838 -8.19808,8.94718 -13.77108,8.46218 -7.074,-0.616 -12.231,-5.806 -11.832,-13.851 0.138,-2.789 1.109,-5.131 2.637,-6.956 0.15,-0.97 1.574,-5.623 2.191,-6.218 0.023,-0.021 0.051,-0.041 0.081,-0.059 1.086,0.897 2.266,0.999 2.849,0.457 -0.048,0.879 0.189,1.846 0.372,2.127 1.943,-0.667 4.096,-0.927 6.297,-0.735 1.418,0.123 2.697,0.315 3.845,0.575 0.788,-0.842 2.424,-1.815 2.81,-1.855 0.107,0.021 2.025,1.009 2.043,1.083 0.017,0.074 -0.438,2.111 -0.607,2.531 l -1.749,-0.662 c -2.445,-0.206 -4.84656,1.09259 -5.10856,2.83459 -2.235,0.294 -2.27478,2.6769 -1.12505,3.94466"
     clip-path="url(#clipPath18994)"
     fill="#51585b"
     id="path6982"
     sodipodi:nodetypes="cccccccccccccccccc" />
  <path
     transform="matrix(10.513042,0.95135981,0.95135981,-10.513042,-2638.8026,7228.6044)"
     d="m 204.43,681.47 c -1.95,-0.104 -6.944,0.004 -8.943,1.214 -0.493,0.298 -0.552,0.13 -0.312,-0.154 0.498,-0.591 1.097,-2.288 1.071,-4.265 0.237,-0.016 0.53,-0.216 0.625,-0.304 -0.049,0.878 0.188,1.845 0.371,2.127 1.944,-0.668 4.097,-0.927 6.298,-0.736 1.418,0.124 2.696,0.316 3.844,0.576 0.788,-0.842 2.424,-1.815 2.811,-1.856 0.106,0.022 2.024,1.01 2.042,1.084 0.018,0.074 -0.437,2.11 -0.606,2.53 l -1.749,-0.662 c -1.596,-0.134 -3.368,0.233 -4.479,0.988 -0.422,-0.024 -0.85,-0.036 -1.282,-0.038 0.094,-0.112 0.239,-0.389 0.309,-0.504"
     clip-path="url(#clipPath19009)"
     fill="#44494d"
     id="path6984" />
  <path
     transform="matrix(10.513042,0.95135981,0.95135981,-10.513042,-2638.8026,7228.6044)"
     d="m 210.21,678.06 c 0.014,0.123 1.516,1.098 2.028,1.106 0.169,0.003 0.698,-0.796 0.634,-0.898 -0.069,-0.111 -1.997,-0.27 -2.662,-0.208"
     clip-path="url(#clipPath19024)"
     fill="#d07e93"
     id="path6986" />
  <path
     transform="matrix(10.513042,0.95135981,0.95135981,-10.513042,-2638.8026,7228.6044)"
     d="m 215.62,692.83 c -0.171,1.206 -0.561,2.402 -1.127,3.544 -1.271,1.139 -3.821,0.761 -4.615,0.013 l -6.683,-8.731 c -1.582,-1.14 -1.127,-3.763 1.039,-4.11 0.064,-0.011 0.08,-0.02 0.093,-0.083 0.386,-2.008 4.252,-2.958 6.817,-2.207 4.108,2.154 5.265,5.999 4.476,11.574"
     clip-path="url(#clipPath19039)"
     fill="#93785e"
     id="path6988" />
  <path
     transform="matrix(10.513042,0.95135981,0.95135981,-10.513042,-2638.8026,7228.6044)"
     d="m 205.4,682.01 c 1.418,-0.964 3.91,-1.296 5.742,-0.76 1.892,0.992 3.157,2.344 3.895,4.057 -2.764,-2.061 -6.018,-3.095 -9.637,-3.297"
     clip-path="url(#clipPath19054)"
     fill="#7f6851"
     id="path6990" />
  <path
     transform="matrix(10.513042,0.95135981,0.95135981,-10.513042,-2638.8026,7228.6044)"
     d="m 206.16,693.81 c -1.249,0.234 -2.558,-1.157 -2.924,-3.108 -0.366,-1.95 0.349,-3.722 1.598,-3.956 1.248,-0.234 2.557,1.157 2.924,3.108 0.366,1.95 -0.349,3.722 -1.598,3.956"
     clip-path="url(#clipPath19069)"
     fill="#ffffff"
     id="path6992" />
  <path
     transform="matrix(10.513042,0.95135981,0.95135981,-10.513042,-2638.8026,7228.6044)"
     d="m 203.24,688.6 c 0.846,-1.122 2.759,-1.317 3.956,-0.646 -0.036,-0.646 -1.134,-1.773 -2.471,-1.579 -1.039,0.151 -1.576,0.913 -1.621,1.151 -0.294,-0.218 -0.634,-0.307 -0.984,-0.282 -0.963,0.069 -1.521,0.629 -1.54,0.847 -0.02,0.227 0.682,0.809 1.41,0.859 0.636,0.043 1.25,-0.35 1.25,-0.35"
     clip-path="url(#clipPath19084)"
     fill="#fede84"
     id="path6994" />
  <path
     transform="matrix(10.513042,0.95135981,0.95135981,-10.513042,-2638.8026,7228.6044)"
     d="m 207.81,690.21 c 1.093,0.163 2.029,0.468 2.538,0.924 0.141,0.126 0.036,0.511 -0.079,0.796 -0.623,-0.259 -1.482,-0.516 -2.431,-0.731 0.021,-0.317 0.013,-0.649 -0.028,-0.989"
     clip-path="url(#clipPath18499)"
     fill="#7f6851"
     id="path6996" />
  <path
     transform="matrix(10.513042,0.95135981,0.95135981,-10.513042,-2638.8026,7228.6044)"
     d="m 201.32,690.99 c 0.428,-0.297 1.084,-0.523 1.856,-0.677 0.013,0.113 0.03,0.226 0.051,0.341 -0.791,0.015 -1.463,0.117 -1.907,0.336"
     clip-path="url(#clipPath18514)"
     fill="#44494d"
     id="path6998" />
  <path
     transform="matrix(10.513042,0.95135981,0.95135981,-10.513042,-2638.8026,7228.6044)"
     d="m 203.23,690.65 c -0.02,-0.115 -0.037,-0.228 -0.051,-0.341 1.392,-0.278 3.158,-0.317 4.637,-0.097 0.041,0.341 0.049,0.673 0.028,0.989 -1.506,-0.341 -3.238,-0.577 -4.614,-0.551"
     clip-path="url(#clipPath18529)"
     fill="#d3d2d2"
     id="path7000" />
  <path
     transform="matrix(10.513042,0.95135981,0.95135981,-10.513042,-2638.8026,7228.6044)"
     d="m 188.51,700.88 c -0.065,-0.017 -0.13,-0.033 -0.195,-0.047 -0.479,-0.102 -0.621,-0.476 -0.473,-0.814 0.166,-0.378 0.556,-0.475 1.024,-0.382 0.23,0.046 0.45,0.108 0.662,0.182 -0.391,0.299 -0.741,0.661 -1.018,1.061"
     clip-path="url(#clipPath18544)"
     fill="#44494d"
     id="path7002" />
  <path
     transform="matrix(10.513042,0.95135981,0.95135981,-10.513042,-2638.8026,7228.6044)"
     d="m 190.23,701.74 c -0.112,-0.092 -0.238,-0.182 -0.373,-0.269 0.283,-0.393 0.663,-0.695 1.049,-0.913 0.146,0.111 0.282,0.227 0.407,0.347 -0.383,0.162 -0.781,0.481 -1.083,0.835"
     clip-path="url(#clipPath18559)"
     fill="#44494d"
     id="path7004" />
  <path
     transform="matrix(10.513042,0.95135981,0.95135981,-10.513042,-2638.8026,7228.6044)"
     d="m 200.56,688.19 c 0.457,-0.469 1.717,-0.841 2.517,-0.626 -0.201,-0.259 -0.805,-0.456 -1.299,-0.324 -0.495,0.132 -0.742,0.267 -0.958,0.46 -0.216,0.192 -0.26,0.49 -0.26,0.49"
     clip-path="url(#clipPath18574)"
     fill="#dac073"
     id="path7006" />
  <path
     transform="matrix(10.513042,0.95135981,0.95135981,-10.513042,-2638.8026,7228.6044)"
     d="m 203.53,679.44 c -2.339,-0.204 -4.67,0.087 -6.732,0.879 -0.197,0.076 -0.248,-0.035 -0.06,-0.132 0.116,-0.061 0.238,-0.118 0.364,-0.172 -0.209,-0.454 -0.421,-1.528 -0.293,-2.396 -0.277,-0.184 -2.394,-0.39 -2.806,0.006 -0.578,0.557 -1.863,4.788 -2.112,5.985 -0.034,0.163 -0.043,0.174 -0.109,0.254 -1.561,1.886 -2.45,4.26 -2.58,6.873 -0.406,8.218 4.967,13.164 11.749,13.754 6.793,0.592 13.685,-5.374 14.578,-11.681 1.193,-8.427 -2.173,-12.515 -11.999,-13.37 m 12.364,13.43 c -0.912,6.439 -7.982,12.634 -15.002,12.023 -7.334,-0.639 -12.446,-6.109 -12.047,-14.16 0.136,-2.765 1.099,-5.227 2.64,-6.999 0.057,-0.067 0.081,-0.074 0.122,-0.266 0.266,-1.252 1.617,-5.424 2.233,-6.014 0.573,-0.551 3.272,-0.26 3.211,0.134 -0.135,0.884 0.073,1.956 0.257,2.342 1.971,-0.779 4.816,-0.904 6.265,-0.778 10.295,0.896 13.504,5.366 12.321,13.718"
     clip-path="url(#clipPath19099)"
     id="path7008"
     style="fill:#0f141b" />
  <path
     transform="matrix(10.513042,0.95135981,0.95135981,-10.513042,-2638.8026,7228.6044)"
     d="m 194.06,677.42 c 1.16,0.967 2.413,0.998 2.885,0.312 l -0.035,0.316 c -0.629,0.561 -1.874,0.447 -3.006,-0.519 z"
     clip-path="url(#clipPath19114)"
     id="path7010"
     style="fill:#0f141b" />
  <path
     transform="matrix(10.513042,0.95135981,0.95135981,-10.513042,-2638.8026,7228.6044)"
     d="m 211.83,681.67 c 0.172,-0.515 0.594,-2.422 0.565,-2.54 0,0 -0.245,0.037 -0.251,0.037 -0.007,0.148 -0.377,1.812 -0.561,2.376 z"
     clip-path="url(#clipPath19129)"
     id="path7012"
     style="fill:#0f141b" />
  <path
     transform="matrix(10.513042,0.95135981,0.95135981,-10.513042,-2638.8026,7228.6044)"
     d="m 205.29,679.59 c 0.296,-0.45 0.392,-0.905 0.323,-0.996 -0.14,-0.187 -0.678,-0.264 -1.381,-0.264 l 0.087,0.244 c 0.53,-0.024 0.988,0.06 1.047,0.158 0.066,0.108 -0.126,0.622 -0.355,0.813 z"
     clip-path="url(#clipPath19144)"
     id="path7014"
     style="fill:#0f141b" />
  <path
     transform="matrix(10.513042,0.95135981,0.95135981,-10.513042,-2638.8026,7228.6044)"
     d="m 196.43,681.67 c -0.281,0.358 -1.145,1.025 -1.539,1.188 -0.124,0.052 -0.089,0.151 0.055,0.121 0.378,-0.08 1.382,-0.776 1.577,-1.203 0.068,-0.146 0.001,-0.226 -0.093,-0.106"
     clip-path="url(#clipPath18874)"
     id="path7016"
     style="fill:#0f141b" />
  <path
     transform="matrix(10.513042,0.95135981,0.95135981,-10.513042,-2638.8026,7228.6044)"
     d="m 189.78,701.58 c 0.535,0.332 0.904,0.715 0.895,0.99 -0.013,0.38 -0.197,0.644 -0.623,0.607 -0.424,-0.037 -0.593,-0.307 -0.52,-0.688 0.294,-1.531 2.089,-2.113 2.599,-2.182 l -0.167,-0.241 c -0.879,0.16 -2.393,0.924 -2.673,2.384 -0.095,0.497 0.206,0.941 0.738,0.988 0.512,0.044 0.871,-0.337 0.889,-0.847 0.013,-0.387 -0.422,-0.831 -1.004,-1.194 z m -1.271,-0.797 c -0.617,-0.094 -0.717,-0.427 -0.585,-0.728 0.171,-0.39 0.595,-0.394 0.921,-0.329 0.194,0.039 0.381,0.088 0.561,0.147 l 0.19,-0.197 c -0.23,-0.075 -0.47,-0.134 -0.716,-0.171 -0.559,-0.086 -0.991,0.074 -1.163,0.466 -0.286,0.652 0.29,1.004 0.674,1.018 z m 2.357,-0.144 c 0.849,0.649 1.338,1.478 1.319,2.068 -0.033,1.068 -0.858,1.872 -2.253,1.807 -1.545,-0.073 -2.111,-1.119 -1.943,-2.171 0.235,-1.47 1.72,-2.935 3.255,-3.232 l -0.184,-0.238 c -1.517,0.322 -3.101,1.822 -3.359,3.438 -0.197,1.228 0.52,2.366 2.175,2.471 1.549,0.099 2.569,-0.913 2.604,-2.037 0.021,-0.69 -0.515,-1.576 -1.375,-2.254 z"
     clip-path="url(#clipPath18889)"
     id="path7018"
     style="fill:#0f141b" />
  <path
     transform="matrix(10.513042,0.95135981,0.95135981,-10.513042,-2638.8026,7228.6044)"
     d="m 215.75,690.91 c 0.765,0.037 4.197,0.389 4.229,1.068 0.038,0.812 -3.28,7.031 -5.065,7.153 -0.281,0.019 -1.458,-0.433 -1.822,-0.569 l 0.163,-0.239 c 0.408,0.153 1.418,0.532 1.669,0.512 1.528,-0.12 4.765,-6.162 4.741,-6.8 -0.015,-0.402 -2.726,-0.785 -3.925,-0.852 z"
     clip-path="url(#clipPath18904)"
     id="path7020"
     style="fill:#0f141b" />
  <path
     transform="matrix(10.513042,0.95135981,0.95135981,-10.513042,-2638.8026,7228.6044)"
     d="m 215.64,692.18 c 0.645,-0.066 2.461,0.195 2.549,0.536 0.145,0.563 -2.544,4.957 -3.48,5.166 -0.174,0.038 -0.537,-0.167 -0.911,-0.357 l 0.113,-0.195 c 0.257,0.13 0.635,0.312 0.76,0.29 0.74,-0.134 3.349,-4.373 3.236,-4.813 -0.07,-0.187 -1.485,-0.443 -2.291,-0.41 z"
     clip-path="url(#clipPath18919)"
     id="path7022"
     style="fill:#0f141b" />
  <path
     transform="matrix(10.513042,0.95135981,0.95135981,-10.513042,-2638.8026,7228.6044)"
     d="m 203.38,688.5 c -0.182,0.663 -0.203,1.418 -0.059,2.185 0.346,1.844 1.592,3.264 2.816,3.034 1.197,-0.224 1.881,-1.951 1.524,-3.848 -0.153,-0.818 -0.487,-1.576 -0.94,-2.135 l 0.425,0.156 c 0.253,0.363 0.622,1.165 0.769,1.95 0.375,1.997 -0.446,3.866 -1.743,4.11 -1.316,0.247 -2.753,-1.232 -3.125,-3.212 -0.137,-0.73 -0.094,-1.439 0.055,-2.087 z"
     clip-path="url(#clipPath18934)"
     id="path7024"
     style="fill:#0f141b" />
  <path
     transform="matrix(10.513042,0.95135981,0.95135981,-10.513042,-2638.8026,7228.6044)"
     d="m 210.18,677.91 c -0.4,0.042 -2.239,1.073 -3.05,1.983 l 0.322,0.086 c 0.77,-0.816 2.38,-1.779 2.743,-1.817 z"
     clip-path="url(#clipPath18589)"
     id="path7026"
     style="fill:#0f141b" />
  <path
     transform="matrix(10.513042,0.95135981,0.95135981,-10.513042,-2638.8026,7228.6044)"
     d="m 210.18,677.91 c -0.17,0.017 -0.084,0.161 0,0.255 0.292,0.324 1.517,1.095 2.08,1.121 0.267,0.013 0.782,-0.837 0.687,-1.031 -0.126,-0.26 -1.889,-0.434 -2.767,-0.345 m 0.244,0.231 c 1.188,-0.035 2.206,0.098 2.278,0.227 0.056,0.102 -0.262,0.684 -0.463,0.707 -0.285,0.034 -1.222,-0.474 -1.815,-0.934"
     clip-path="url(#clipPath18604)"
     id="path7028"
     style="fill:#0f141b" />
  <path
     transform="matrix(10.513042,0.95135981,0.95135981,-10.513042,-2638.8026,7228.6044)"
     d="m 203.22,687.47 c 0.113,-0.253 0.603,-0.874 1.52,-1.007 1.135,-0.165 2.127,0.684 2.331,1.319 -1.25,-0.663 -3.082,-0.425 -3.892,0.745 -0.091,0.054 -0.634,0.364 -1.181,0.327 -0.758,-0.05 -1.336,-0.632 -1.324,-0.759 0.014,-0.17 0.538,-0.697 1.454,-0.763 0.295,-0.021 0.577,0.046 0.821,0.195 0.168,0.103 0.198,0.107 0.271,-0.057 m 1.451,-1.257 c -0.93,0.13 -1.467,0.782 -1.628,1.126 -0.28,-0.176 -0.597,-0.279 -0.937,-0.254 -1.13,0.081 -1.679,0.836 -1.693,0.999 -0.018,0.21 0.654,0.937 1.578,1.007 0.454,0.031 0.919,-0.184 1.163,-0.309 0.037,-0.018 0.165,-0.137 0.2,-0.18 0.825,-1.027 2.555,-1.178 3.665,-0.64 0.256,0.124 0.303,0.068 0.258,-0.164 -0.157,-0.816 -1.249,-1.775 -2.606,-1.585"
     clip-path="url(#clipPath18619)"
     id="path7030"
     style="fill:#0f141b" />
  <path
     transform="matrix(10.513042,0.95135981,0.95135981,-10.513042,-2638.8026,7228.6044)"
     d="m 206.46,689.78 c 0.006,0.507 -0.09,0.695 -0.326,0.732 -0.241,0.038 -0.464,-0.111 -0.597,-0.681 -0.066,-0.282 -0.493,-0.178 -0.466,0.095 0.082,0.841 0.714,1.111 1.136,1.045 0.45,-0.07 0.87,-0.462 0.746,-1.239 -0.041,-0.258 -0.496,-0.201 -0.493,0.048"
     clip-path="url(#clipPath18634)"
     id="path7032"
     style="fill:#0f141b" />
  <path
     transform="matrix(10.513042,0.95135981,0.95135981,-10.513042,-2638.8026,7228.6044)"
     d="m 207.15,694.19 c -0.0214,2.0285 1.1049,3.2328 2.757,2.744 -0.65,1.121 -1.443,2.04 -2.188,2.159 -1.382,0.22 -3.518,-0.777 -4.533,-1.59 l -2.059,-2.57 c -0.284,-0.894 -0.771,-3.018 -0.187,-3.674 0.611,-0.685 2.578,-0.724 4.636,-0.46 -0.47663,1.4571 0.42878,2.7614 1.574,3.391"
     clip-path="url(#clipPath18649)"
     fill="#51585b"
     id="path7036" />
  <path
     transform="matrix(10.513042,0.95135981,0.95135981,-10.513042,-2638.8026,7228.6044)"
     d="m 200.73,691.73 c 0.043,-0.194 0.113,-0.357 0.216,-0.473 0.611,-0.686 2.578,-0.725 4.636,-0.46 -0.166,0.165 -0.298,0.339 -0.4,0.517 -2.226,-0.185 -4.009,-0.065 -4.452,0.416"
     clip-path="url(#clipPath18664)"
     fill="#44494d"
     id="path7038" />
  <path
     transform="matrix(10.513042,0.95135981,0.95135981,-10.513042,-2638.8026,7228.6044)"
     d="m 209.91,696.94 c -1.633,1.118 -3.827,-0.582 -2.757,-2.744 -1.946,0.133 -3.023,-1.953 -1.573,-3.391 2.481,0.319 5.094,1.078 5.616,1.678 0.399,0.459 -0.27,2.705 -1.286,4.457"
     clip-path="url(#clipPath18679)"
     fill="#93785e"
     id="path7040" />
  <path
     transform="matrix(10.513042,0.95135981,0.95135981,-10.513042,-2638.8026,7228.6044)"
     d="m 205.18,691.32 c 0.102,-0.178 0.234,-0.352 0.401,-0.517 2.313,0.297 4.74,0.978 5.481,1.554 -1.929,-0.529 -4.055,-0.885 -5.882,-1.037"
     clip-path="url(#clipPath18694)"
     fill="#7f6851"
     id="path7042" />
  <path
     transform="matrix(10.513042,0.95135981,0.95135981,-10.513042,-2638.8026,7228.6044)"
     d="m 200.79,691.12 c -0.609,0.678 -0.158,2.816 0.236,3.733 0.071,0.163 0.201,0.118 0.15,-0.05 -0.347,-1.139 -0.655,-2.933 -0.166,-3.482 1.31,-1.471 9.197,0.165 10.113,1.218 0.596,0.685 -1.554,6.166 -3.418,6.463 -1.334,0.213 -3.31,-0.723 -4.402,-1.488 -0.128,-0.089 -0.188,-0.003 -0.072,0.102 0.993,0.909 3.108,1.878 4.509,1.66 2.166,-0.336 4.362,-6.082 3.644,-6.908 -1.043,-1.198 -9.13,-2.877 -10.594,-1.248"
     clip-path="url(#clipPath18709)"
     fill="#0f141b"
     id="path7044" />
  <path
     transform="matrix(10.513042,0.95135981,0.95135981,-10.513042,-2638.8026,7228.6044)"
     d="m 200.31,681.06 c -0.115,-0.47 0.007,-3.404 0.145,-3.953 0.702,-0.156 2.813,-0.281 3.229,-0.063 0.415,0.217 1.067,2.881 1.008,3.601 -0.249,3.043 -4.001,1.968 -4.382,0.415"
     clip-path="url(#clipPath18724)"
     fill="#51585b"
     id="path7046" />
  <path
     transform="matrix(10.513042,0.95135981,0.95135981,-10.513042,-2638.8026,7228.6044)"
     d="m 203.85,682.08 c 0.295,-1.633 0.178,-3.668 -0.892,-5.142 0.333,0.013 0.599,0.047 0.72,0.111 0.416,0.217 1.068,2.881 1.009,3.601 -0.058,0.71 -0.277,1.237 -0.63,1.544 -0.129,0.114 -0.249,0.118 -0.207,-0.114"
     clip-path="url(#clipPath18739)"
     fill="#44494d"
     id="path7048" />
  <path
     transform="matrix(10.513042,0.95135981,0.95135981,-10.513042,-2638.8026,7228.6044)"
     d="m 200.44,677.09 c 0.796,0.975 2.184,1.056 3.28,-0.031 -0.181,-0.414 -1.464,-0.56 -2.217,-0.528 -1.127,0.046 -1.234,0.349 -1.063,0.559"
     clip-path="url(#clipPath18754)"
     fill="#f091a7"
     id="path7050" />
  <path
     transform="matrix(10.513042,0.95135981,0.95135981,-10.513042,-2638.8026,7228.6044)"
     d="m 203.27,677.43 c -0.161,-0.292 -0.352,-0.567 -0.576,-0.822 0.492,0.081 0.922,0.227 1.021,0.454 -0.144,0.143 -0.293,0.265 -0.445,0.368"
     clip-path="url(#clipPath18769)"
     fill="#d07e93"
     id="path7052" />
  <path
     transform="matrix(10.513042,0.95135981,0.95135981,-10.513042,-2638.8026,7228.6044)"
     d="m 203.77,676.92 c 0.352,0.184 0.803,1.783 0.884,2.673 0.02,0.222 -0.11,0.216 -0.147,0.019 -0.221,-1.176 -0.649,-2.37 -0.87,-2.485 z"
     clip-path="url(#clipPath18784)"
     id="path7054"
     style="fill:#0f141b" />
  <path
     transform="matrix(10.513042,0.95135981,0.95135981,-10.513042,-2638.8026,7228.6044)"
     d="m 200.52,677.23 c -0.125,0.708 -0.252,3.197 -0.172,3.76 0.029,0.205 -0.08,0.207 -0.127,0.003 -0.177,-0.781 -0.064,-3.486 0.065,-4 z"
     clip-path="url(#clipPath18799)"
     id="path7056"
     style="fill:#0f141b" />
  <path
     transform="matrix(10.513042,0.95135981,0.95135981,-10.513042,-2638.8026,7228.6044)"
     d="m 200.44,681.53 c 0.161,0.306 0.496,0.58 0.835,0.737 0.181,0.083 0.251,-0.03 0.075,-0.128 -0.334,-0.187 -0.629,-0.433 -0.8,-0.69 -0.126,-0.188 -0.211,-0.11 -0.11,0.081"
     clip-path="url(#clipPath18424)"
     id="path7058"
     style="fill:#0f141b" />
  <path
     transform="matrix(10.513042,0.95135981,0.95135981,-10.513042,-2638.8026,7228.6044)"
     d="m 204.62,680.7 c -0.06,0.63 -0.292,1.122 -0.663,1.432 -0.141,0.117 -0.059,0.199 0.091,0.094 0.465,-0.328 0.735,-0.956 0.705,-1.514 -0.01,-0.2 -0.115,-0.2 -0.133,-0.012"
     clip-path="url(#clipPath18394)"
     id="path7060"
     style="fill:#0f141b" />
  <path
     transform="matrix(10.513042,0.95135981,0.95135981,-10.513042,-2638.8026,7228.6044)"
     d="m 200.51,677.03 c -0.155,-0.19 0.131,-0.373 0.995,-0.409 0.747,-0.031 1.856,0.115 2.097,0.42 -1.014,0.963 -2.309,0.948 -3.092,-0.011 m -0.232,0.105 c 0.962,1.177 2.628,1.046 3.64,-0.074 -0.349,-0.531 -1.61,-0.722 -2.415,-0.689 -1.361,0.057 -1.393,0.558 -1.225,0.763"
     clip-path="url(#clipPath18439)"
     id="path7062"
     style="fill:#0f141b" />
  <path
     transform="matrix(10.513042,0.95135981,0.95135981,-10.513042,-2638.8026,7228.6044)"
     d="m 212.58,692.64 c 0.582,0.244 2.822,0.207 3.123,-0.09 1.321,-1.31 2.346,-5.325 2.187,-7.657 -0.186,-2.727 -9.406,-2.262 -9.814,0.135 -0.307,1.8 2.275,6.679 4.504,7.612"
     clip-path="url(#clipPath18409)"
     fill="#f091a7"
     id="path7066" />
  <path
     transform="matrix(10.513042,0.95135981,0.95135981,-10.513042,-2638.8026,7228.6044)"
     d="m 211.45,684.17 c -0.716,0.211 -0.893,0.316 -1.36,0.226 -0.127,-0.025 -1.058,-0.183 -1.515,-0.211 2.236,-1.556 8.306,-1.625 9.208,0.282 -0.906,-0.687 -4.39,-0.87 -6.333,-0.297"
     clip-path="url(#clipPath18829)"
     fill="#d07e93"
     id="path7068" />
  <path
     transform="matrix(10.513042,0.95135981,0.95135981,-10.513042,-2638.8026,7228.6044)"
     d="m 212,689.27 c 0.926,1.002 1.692,2.782 2.892,3.185 0.222,0.075 0.561,0.081 0.869,0.03 -0.24,0.4 -2.634,0.378 -3.179,0.15 -1.301,-0.545 -2.653,-2.459 -3.169,-3.391 -0.169,-0.305 2.042,-0.563 2.587,0.026"
     clip-path="url(#clipPath18469)"
     fill="#f3a8bb"
     id="path7070" />
  <path
     transform="matrix(10.513042,0.95135981,0.95135981,-10.513042,-2638.8026,7228.6044)"
     d="m 217.16,687.6 c 0.198,-1.591 0.02,-2.891 -0.489,-2.954 -0.509,-0.064 -0.998,1.168 -1.196,2.759 -0.215,1.718 0.021,2.967 0.479,3.024 0.509,0.063 1.008,-1.238 1.206,-2.829"
     clip-path="url(#clipPath18454)"
     id="path7072"
     style="fill:#0f141b" />
  <path
     transform="matrix(10.513042,0.95135981,0.95135981,-10.513042,-2638.8026,7228.6044)"
     d="m 212.38,688.04 c -0.523,-1.588 -0.503,-3.021 0.044,-3.201 0.546,-0.18 1.413,0.961 1.936,2.549 0.523,1.588 0.506,3.045 -0.04,3.225 -0.547,0.18 -1.417,-0.985 -1.94,-2.573"
     clip-path="url(#clipPath18484)"
     id="path7074"
     style="fill:#0f141b" />
  <path
     transform="matrix(10.513042,0.95135981,0.95135981,-10.513042,-2638.8026,7228.6044)"
     d="m 212.62,692.55 c -2.151,-0.901 -4.75,-5.694 -4.449,-7.511 0.379,-2.284 9.445,-2.741 9.632,-0.145 0.161,2.247 -0.833,6.269 -2.161,7.585 -0.257,0.255 -2.46,0.306 -3.022,0.071 m -0.053,0.289 c 0.594,0.249 2.944,0.221 3.281,-0.113 1.468,-1.455 2.377,-5.813 2.241,-7.851 -0.199,-2.981 -9.799,-2.45 -10.235,0.105 -0.339,1.992 2.437,6.906 4.713,7.859"
     clip-path="url(#clipPath18814)"
     id="path7076"
     style="fill:#0f141b" />
</svg>
