<?xml version="1.0" encoding="UTF-8"?>
<!-- Created with Inkscape (http://www.inkscape.org/) -->
<svg version="1.1" viewBox="0 0 376.63 354" xmlns="http://www.w3.org/2000/svg">
 <g transform="translate(55.548 51.027)">
  <path d="m-10.062 17.087c4.7553 0.0035 7.2406-8.1388 6.9506-14.816 1.5688 1.0866 3.3786 1.3608 5.2154 0.90676-6.4709-14.449-13.336-33.121-14.666-52.672-9.5987 6.198-12.867 29.989-11.77 51.176 0.98771 9.8019 10.672 19.448 14.27 15.641" fill="#92795e"/>
  <path d="m2.1031 3.1768c-4.4041-9.836-8.988-21.631-11.888-34.326-0.60206 13.779 1.8906 30.459 4.1312 44.753 1.8331-2.9173 2.7227-7.1929 2.5416-11.333 1.57 1.0866 3.3786 1.3595 5.2154 0.90551" fill="#806951"/>
  <path d="m14.021 28.55c-1.4036-4.2108-6.5235-13.325-11.918-25.373-1.838 0.4552-3.6466 0.18107-5.2154-0.90555 0.29002 6.6765-2.1953 13.719-6.9506 14.817-4.2266 0.97527-10.765-5.9178-14.27-15.405 0.4748 9.1789 1.7646 17.872 3.7213 24.429 4.8177 16.144 15.224 29.829 26.34 39.021l13.901-11.462c0.24351-3.6576-3.1706-17.804-5.6094-25.12" fill="#52585c"/>
  <path d="m14.021 28.55c-1.4036-4.2108-6.5235-13.325-11.918-25.373-1.838 0.4552-3.6466 0.18107-5.2154-0.90555 0.17989 4.1398-0.70852 8.4166-2.5428 11.333 2.5747 16.423 4.8116 29.693 1.6287 31.774-2.489 1.6275-5.3537 0.95692-8.0054-0.54088 5.0343 8.0238 11.271 14.929 17.761 20.295l13.901-11.462c0.24351-3.6576-3.1706-17.804-5.6094-25.12" fill="#444a4e"/>
  <path d="m-25.976 184.64c-1.8294 2.1953-16.462 11.462-20.242 12.316-2.7301 0.61553 7.6212 21.34 11.828 23.352 4.2071 2.0117 27.986 5.8529 34.022 5.6706z" fill="#52585c"/>
  <path d="m-8.1484 213.42c-8.9905 1.176-21.142 0.87128-31.927-0.16025 2.1011 3.4998 4.2511 6.3632 5.6853 7.0497 4.2071 2.0118 27.986 5.853 34.022 5.6706z" fill="#444a4e"/>
  <path d="m40.727 254.39c-1.22 2.8047-2.9271 7.4389-4.7553 9.7553-1.7646 2.2345 24.168 11.355 25.241 11.096 3.0494-0.73176 14.634-7.56 16.828-9.7553z" fill="#444a4e"/>
  <path d="m-34.39 220.3c0.6094-1.3412-6.942-21.642-11.828-23.352-3.9868-1.395-7.0705-1.3473-7.5612-0.12245-3.2244 8.0629 12.926 22.681 19.389 23.474" fill="#ef91a7"/>
  <g fill="#ce7e91">
   <path d="m-34.39 220.3c0.21291-0.46744-0.5678-3.2391-1.8796-6.7218-3.5524-0.27403-7.013-0.63263-10.239-1.0499 4.2193 4.1753 9.1728 7.4107 12.118 7.7717"/>
   <path d="m61.213 275.24c1.6899-0.35611-11.683-12.219-17.804-13.231-3.3688-0.55802-11.97 3.1008-12.255 5.6706-0.34876 3.1424 25.782 8.4606 30.059 7.56"/>
   <path d="m165.47 289.14c0.35732 3.2195 26.218 5.7318 28.047 2.0729-5.9178-5.9729-11.449-9.0027-16.103-9.5864-3.2868-0.4124-9.1398 2.5135-11.944 7.5135"/>
  </g>
  <path d="m95.065 220.34c0.12359-0.24351 0.27167-0.35367 0.54209-0.39283 20.638 3.4847 37.93-32.311 20.602-44.58l-4.3894-55.118c12.544-26.049-26.988-72.937-61.215-60.727-18.9-10.105-47.167 6.1218-56.458 19.292-10.078 13.841-17.292 29.038-20.854 44.363-9.6488 41.504-2.7367 76.375 21.082 100.72 26.166 22.659 87.613 30.776 100.69-3.5536" fill="#92795e"/>
  <path d="m123.65 20.745c-53.948-6.8882-102.23 20.619-129.5 58.07 12.122-12.226 34.412-22.16 56.458-19.293 36.744 4.7798 59.916 34.364 61.215 60.727l4.3894 55.119c11.193 16.36 0.0355 41.614-20.602 44.58-0.27042 0.0378-0.4185 0.14812-0.5421 0.3928-15.909 31.498-73.108 25.111-100.69 3.5536 20.094 22.244 51.607 37.133 92.127 43.237 87.281 13.145 141.82-21.531 152.14-96.886 9.7553-71.214-24.777-137.98-114.99-149.5" fill="#52585c"/>
  <path d="m4.4617 233.64c19.927 16.875 47.758 28.327 82.039 33.491 27.695 4.1703 52.087 3.5206 72.821-1.7095 1.9518 6.209 5.9875 22.233 6.1528 23.719 2.8047-5 8.6576-7.9271 11.944-7.5147 4.6537 0.58369 10.185 3.6136 16.103 9.5876 1.2837-2.5685 14.441-44.051 18.023-56.542 14.234-16.165 23.44-37.741 27.096-64.425 0.47234-3.4496 0.83822-6.8894 1.1013-10.312-32.255 96.283-150.83 112.23-235.28 73.706" fill="#444a4e"/>
  <path d="m97.918 296.7c4.0247 6.2188 29.588 6.0769 31.339 2.0729-4.6329-10.731-24.266-9.8777-31.339-2.0729" fill="#ef91a7"/>
  <path d="m133.89 260.97c-0.81866-11.875-5.1236-17.379-21.462-18.169-10.617-0.51393-28.304 5.4491-24.145 24.999 0.67059 3.151 8.5316 27.195 9.6342 28.9 7.073-7.8047 26.705-8.6576 31.339 2.073 0.85415-1.9506 4.8776-34.266 4.6341-37.802" fill="#52585c"/>
  <path d="m103.29 243.83c-9.1557 2.4498-18.096 9.4702-15.01 23.976 0.66936 3.151 8.5304 27.197 9.6329 28.9 0.18232-0.20084 0.37812-0.39405 0.57636-0.58615-6.2898-29.955-0.2631-46.645 4.8006-52.29" fill="#444a4e"/>
  <path d="m-42.194 130.98c-0.57758 0.94714-1.5847 5.405 4.5118 10.731l4.8776-9.6329c-3.151-3.7812-8.0262-3.3321-9.3894-1.0976" fill="#fcdd82"/>
  <path d="m127.53 153.4c-4.8385 18.249-19.634 30.16-33.048 26.604-13.413-3.556-20.365-21.234-15.526-39.483 4.8385-18.25 19.571-30.045 32.985-26.489 13.413 3.5561 20.428 21.119 15.59 39.368" fill="#fff"/>
  <path d="m77.919 161.77c12.026 11.918 29.02 14.081 41.606 7.7619 3.1669-1.9873 7.2455-3.4166 12.402-2.5208 5.9875 1.0389 11.657 7.5367 10.622 11.16-0.58369 2.046-5.4112 5.2925-12.926 4.8776-6.4978-0.35853-9.2193-2.4388-11.34-5.9753-18.975 17.2-41.307 2.0974-40.364-15.304" fill="#fcdd82"/>
  <path d="m225.23-29.007c-5.9826-4.9266-46.749 6.3975-78.428 26.186-1.8895 7.352 4.4855 11.756 11.603 11.373 3.9024 3.9012 33.657 26.339 33.657 26.339-0.73579 6.6104 9.6304 13.409 16.514 9.0933 9.6427-31.077 18.658-71.341 16.654-72.991" fill="#92795e"/>
  <path d="m208.57 43.984c4.2401-13.663 8.3566-29.1 11.471-42.252-5.3011 13.693-10.815 29.207-16.098 42.632 1.4623 0.0832 3.0103-0.0312 4.6268-0.38055" fill="#806951"/>
  <path d="m150.84 95.374c2.9271 2.9271 34.388 3.1706 44.387-4.1459 8.2428-6.0316 10.975-23.169 8.2918-34.388-10.487 21.219-24.388 31.218-52.679 38.534" fill="#444a4e"/>
  <path d="m-33.658 157.93c4.852 43.841 78.724 42.742 87.433 38.9 8.2918-3.6589 13.353-20.792 6.7683-35.059-18.475-2.3776-76.907-4.9755-94.201-3.8412" fill="#806951"/>
  <path d="m-42.194 130.98c0.48826 1.22 2.7435 5.1212 4.9388 6.6459l-1.3412 3.1706c-5.7318-4.2683-3.5977-9.8165-3.5977-9.8165" fill="#d9be73"/>
  <path d="m118.14 176.69c5.2215 3.3468 17.468 3.6405 24.535 0.81251-1.92 3.7506-5.7012 5.5495-13.048 5.5495-7.3471 0-11.487-6.362-11.487-6.362" fill="#d9be73"/>
  <g fill="#0f141b">
   <path d="m20.85 51.475c-0.48581-5.3891-2.9834-16.877-5.1212-23.291-3.5805-10.74-24.44-41.972-27.194-77.312-0.18357-2.3642-0.91532-2.4339-2.9087-0.69506-12.663 11.045-14.671 54.82-8.1877 76.543 4.3906 14.716 14.655 28.894 27.193 39.266l1.6936-1.5749c-12.26-10.141-21.751-24.2-26.039-38.568-6.3241-21.19-5.3512-63.146 6.3498-73.55 3.0299 35.944 23.331 67.049 26.498 76.552 2.2357 6.7071 5.071 18.429 5.514 23.289 0.0563 0.60571 2.2027-0.65958 2.2027-0.65958"/>
   <path d="m-44.813 197.48c4.6427-1.8025 15.097-8.4264 18.589-11.335l-0.57514-2.6958c-1.6251 1.9506-16.876 11.692-20.578 12.529z"/>
   <path d="m-52.911 197.18c-2.6787 6.6924 10.384 19.668 17.488 21.934-1.0071-4.4702-7.4572-20-11.105-21.278-3.8179-1.3363-6.1735-1.0304-6.3828-0.65591m17.619 22.905m-0.37812 1.1344c-8.2318-2.1035-22.72-16.684-19.389-25.014 0.90186-2.2455 5.6804-1.3509 9.1496-0.13598 4.8581 1.7009 11.675 18.705 12.378 23.505 0.19824 1.3522-0.26678 2.1231-2.1378 1.6446"/>
   <path d="m37.64 263.33c1.6765-2.8267 3.3688-7.2455 3.9452-8.5695l-2.139-0.80031c-0.52618 1.2115-2.79 7.6702-4.3894 9.6954z"/>
   <path d="m61.022 274.32h1e-3zm-28.918-6.6141c1.3705 2.1598 21.454 6.9249 27.797 6.7254-2.3911-2.7802-11.783-10.695-16.646-11.498-2.9846-0.50661-10.545 2.8169-11.152 4.7724m27.833 8.9317c-6.9898-0.0576-30.59-4.6598-30.124-8.829 0.38424-3.4985 10.203-7.3752 13.625-6.8037 4.7724 0.78807 14.485 8.233 17.745 12.112 1.4501 1.7254 1.8453 3.5463-1.2457 3.5206"/>
   <path d="m88.955 253.56c2.7129-6.4416 9.9083-9.7859 15.06-10.487 1.7034-0.23137 1.9053 0.72445 0.2741 1.1282-3.933 0.97406-10.921 3.9415-14.145 9.9083-0.78072 1.4428-1.7878 0.87128-1.1894-0.54941"/>
   <path d="m130.6 250.61c-1.5162-2.314-4.0027-4.2584-7.1635-5.3659-1.4782-0.5176-1.4501-1.6642 0.45641-1.2188 3.6589 0.85289 6.3106 2.8047 7.8965 5.7305 0.73419 1.3571-0.36588 2.1109-1.1894 0.85415"/>
   <path d="m98.611 297.33c6.7475-7.4437 25.505-8.0996 29.787 1.816l1.4158-1.3852c-5.5054-10.928-25.384-9.6403-32.589-1.6875z"/>
   <path d="m194.19 290.56c-5.421-6.1087-11.497-9.4274-16.64-10.072-3.6026-0.4552-9.5913 2.7472-12.642 7.779l1.3852 1.3375c2.7349-4.8752 8.2489-7.3887 11.013-7.0436 4.7247 0.59225 10.102 3.8143 15.553 9.316z"/>
   <path d="m170.63 247.98c2.6481-3.2061 12.411-7.9467 17.473-6.8551 1.3277 0.28513 1.4905 1.302 0.1776 1.2041-4.8557-0.35974-13.922 4.2952-16.781 6.6851-1.116 0.93243-1.8074 0.10024-0.87003-1.034"/>
   <path d="m123.53 18.55c-38.89-4.967-82.433 9.2683-109.31 36.995-1.1821 1.2188-0.32919 2.1574 0.9606 1.0059 30.324-27.078 70.021-39.769 108.35-34.878 86.513 11.046 124.33 74.388 114.18 148.45-3.5401 25.847-12.338 47.069-26.163 63.134-0.8676 1.0083-1.0279 1.5982-1.3559 2.7154-4.1018 13.98-16.324 52.454-17.51 54.825-1.1723 2.5783-24.821 0.73298-26.28-1.7572-0.17378-1.5639-4.4078-18.44-6.3522-24.409l-2.1378 0.48947c1.8857 5.7355 6.1295 22.911 6.28 24.266 0.55434 5.0159 28.659 6.5798 30.668 2.5612 1.3265-2.653 14.531-43.081 18.231-55.911 13.901-15.242 24.758-39.25 28.352-65.484 10.42-76.059-29.961-140.77-117.92-152"/>
   <path d="m135.23 261.34c-0.13216-2.8328-0.6865-4.8336-1.2041-5.7771-0.90798-1.652-1.9555-1.1478-1.5088 0.32052 0.64002 2.1036 0.53721 3.8681 0.51764 5.213-0.0527 3.8069-3.9807 35.699-4.6378 37.306-1.3962 3.2-26.008 3.4936-29.697-2.2063-0.8211-1.2714-7.3385-20.766-9.1178-27.099-0.66814-2.3752-0.85659-2.5735-2.9442-2.8879-87.837-13.231-130.03-67.137-112.44-142.82 4.989-21.459 17.855-43.947 35.307-61.579 0.87616-0.88595-5e-3 -1.7266-1.0071-0.86882-19.749 16.896-32.479 43.617-36.765 62.054-18.712 80.48 28.765 133.57 115.06 146.24 1.9444 6.3216 9.0358 26.733 10.142 28.442 4.294 6.6361 30.937 6.7915 33.108 1.8294 0.94835-2.1696 5.3476-34.613 5.1823-38.168"/>
   <path d="m133.25 270.96c11.078-0.8982 22.331-2.9026 32.742-6.5713 1.4794-0.52007 1.187-1.8686-0.33542-1.4023-9.792 3.0078-20.552 4.8728-32.126 5.6192z"/>
   <path d="m80.22 163.99c-2.3544-6.969-2.4816-15.219-0.35854-23.229 4.6806-17.653 18.967-29.238 31.841-25.822 13.639 3.6148 19.347 21.552 14.925 38.223-1.8147 6.8429-5.093 12.964-9.4824 17.704l4.6745-2.1415c3.2624-4.3906 5.9019-9.1386 7.407-14.817 4.7528-17.927-2.2798-37.273-16.919-41.155-13.873-3.6784-30.038 8.5133-34.983 27.162-1.9799 7.4731-1.674 15.269 0.0918 22.041z"/>
   <path d="m78.86 163.94c0.91165 15.322 20.587 28.107 38.08 13.074 1.3987-1.2029 1.6373-1.176 2.5025 0.15298 1.882 2.8904 4.3196 4.6244 10.233 4.9511 7.4584 0.39402 11.585-2.8402 11.975-4.201 0.8162-2.8586-4.201-8.9966-9.8838-9.9829-4.1753-0.72566-8.0201 0.0576-11.743 2.3923-13.232 6.6459-29.481 4.0284-41.164-6.3864m-2.1598-0.82601c-0.0367-2.7631 1.1038-2.9173 2.8659-1.2812 11.149 10.355 26.849 13.233 39.54 6.865 3.9966-2.511 8.3652-3.6968 12.956-2.9014 6.6031 1.1466 12.961 8.3786 11.767 12.56-0.74401 2.6089-6.4293 6.4183-14.328 5.9753-6.4293-0.35364-9.3209-2.7704-11.42-5.8334-19.188 16.869-41.148 2.0362-41.382-15.384"/>
   <path d="m-37.652 140.48c-4.8617-4.5595-4.2095-8.2465-3.7445-9.0101 0.87862-1.4379 4.9547-2.2908 7.872 1.209l1.1466-2.0007c-3.6111-3.7996-9.5399-2.5416-10.793-0.48826-0.7489 1.2298-1.6544 6.9286 4.2682 12.255z"/>
   <path d="m-0.73389 227.8c-6.6043 0-30.547-4.2071-34.982-6.608l1.7291-1.7352c3.3505 1.6018 21.357 4.7283 30.184 5.4393z"/>
   <path d="m79.443 266.22c-2.2406 2.2406-14.76 9.453-18.047 10.244l-0.40138-2.1292c2.7766-0.6669 13.114-6.7597 15.955-9.1226z"/>
  </g>
  <path d="m-10.123 91.96c-2.965-0.98876-13.847 11.484-20.12 27.315-2.177 5.4944-3.0494 9.7553-3.5977 15.426l22.498-27.377c2.1953-7.8047 2.3177-14.999 1.22-15.365" fill="#fff"/>
  <path d="m-32.393 130.59c0.6094-3.9366 1.5223-7.1941 3.0189-10.97 6.4403-16.252 17.728-27.297 18.768-26.794 0.84924 0.41236 0.3977 6.3816-1.3142 13.045l2.3654-2.0044c1.3216-5.2594 1.964-12.566-0.08075-13.248-4.2291-1.4036-16.127 12.744-21.98 28.108-1.9958 5.2386-2.9638 9.9988-3.5671 16.219z" fill="#0f141b"/>
  <path d="m294.49 45.134c-2.4694-18.627-13.658-41.705-28.534-54.142-10.52-8.7959-20.918 2.396-11.219 11.706 21.686 20.82 8.419 82.191-24.48 91.816 1.9102 4.6096 3.5377 9.3576 4.8936 14.218 19.717-6.1564 45.25-32.983 45.072-73.353 1.5541 1.28 3.9329 3.3835 5.8529 5.3953-0.73176-3.4753-3.7494-11.583-7.4082-20.12 4.9388 6.4024 11.92 17.651 15.822 24.48" fill="#52585c"/>
  <path d="m230.26 94.513c1.9114 4.6109 3.5377 9.3588 4.8936 14.218 3.1877-0.99487 6.5284-2.5392 9.8874-4.5852-1.0475-4.7124-3.2281-10.038-5.3524-14.099-2.9295 1.9592-6.0744 3.4851-9.4286 4.4665" fill="#444a4e"/>
  <path d="m243.27 110.37c10.853-5.7881 23.656-8.9024 37.315-9.4763 8.5439-0.35977 14.388 2.6481 20.607 0.57391 3.6772-1.2249 4.8776-9.633 4.5118-13.169 1.9518 3.78 1.4489 13.77 4.7565 14.146 5.3647 0.60939 9.6329-29.145 0-49.265 10.92 18.63 12.044 53.808 3.4141 58.898-4.7553 2.8047-13.915-5.7159-33.412-6.4623-12.728-0.48823-24.788 0.17864-37.193 4.7553" fill="#52585c"/>
  <g fill="#0f141b">
   <path d="m105.11 149.39c0.33529-5.1824-0.45032-7.2333-3.14-8.1547-3.293-1.1282-6.7218 1.8747-8.3224 5.8382-1.3816 3.4178-5.875 1.8221-5.0759-1.6777 1.7682-7.7423 8.5646-11.656 15.441-9.7247 6.3926 1.7952 8.873 8.6417 6.7071 14.816-1.22 3.4753-5.8542 2.6872-5.6094-1.0976"/>
   <path d="m234.86 110.28c22.681-6.2188 45.66-34.784 46.286-72.891 1.0928 0.95446 2.3948 1.9175 3.5279 3.0482 2.7643 2.7606 3.0274 2.7729 2.0803-0.85172-0.67793-2.593-2.5074-7.8072-4.825-12.99 3.7494 5.5605 8.3615 13.167 10.937 17.593 2.7301 4.6916 3.0886 5.0612 2.3238-0.7599-2.6212-19.943-14.478-41.947-28.412-53.598-11.951-9.9952-24.064 3.2624-13.079 13.809 21.187 20.338 8.3028 80.516-24.419 89.353l0.66693 2.582c33.632-9.1936 48.206-71.696 25.436-93.554-8.8204-8.4704 0.35243-18.357 9.9707-10.315 12.594 10.529 23.601 30.293 27.358 48.543-3.572-5.9667-8.5243-13.795-12.55-19.175-1.6679-2.2308-2.9393-1.4415-1.8502 1.127 2.5918 6.1173 4.7186 11.68 5.9276 15.457-0.67915-0.6302-1.3522-1.2347-1.9787-1.7793-2.5086-2.1843-2.921-1.9481-2.9907 1.6924-0.75011 39.728-26.618 65.058-45.015 70.452z"/>
   <path d="m273.77 104.54c2.3165 0 4.562 0.0576 6.7279 0.14083 19.272 0.73912 28.812 8.9966 32.901 6.592 5.4687-3.2257 6.7157-20.892 3.3786-37.53 1.3632 14.106-1.2335 30.383-6.4097 29.769-2.9601-0.33647-3.5512-5.6547-4.119-9.1667-0.6559 3.5083-2.095 7.1231-4.7614 8.0115-6.499 2.1672-12.474-0.88595-20.864-0.52739-8.72 0.3671-16.847 1.7376-24.292 4.0908 6.0879-1.0585 11.954-1.3803 17.438-1.3803m6.6924 2.2944c-10.006-0.38059-21.889-0.68161-34.084 3.2318-5.0074 1.6079-5.4907 0.45399-0.73055-1.8294 8.0458-3.8595 18.845-8.0409 34.936-8.7188 8.156-0.35243 13.674 3.118 20.089 0.97527 2.533-0.84433 4.36-6.8637 4.4212-10.792 0.0503-3.2746 0.74155-3.1669 2.0118-0.18246 1.0891 2.5612 1.2996 11.751 3.4582 11.997 3.6894 0.40873 8.6552-26.269-0.0441-46.447-2.4278-5.6314-1.4024-6.0965 1.7425-0.56659 9.4225 16.573 12.952 52.331 2.221 58.734-6.1699 3.6809-14.4-5.6486-34.022-6.4024"/>
   <path d="m237.99 109.01c-1.5982-5.7306-3.5732-11.282-5.9239-16.628l-3.2305 1.0976c2.341 5.4271 4.2891 11.068 5.8456 16.893z"/>
   <path d="m-15.265 108.7c-0.43319-0.50539-1.0169-0.87617-1.7793-1.0144-1.9555-0.3561-4.8776 1.28-6.9212 5.3157-0.9557 1.8845 1.4905 3.277 2.7448 1.6654 1.5553-1.7377 4.5729-4.9388 5.9557-5.9668"/>
  </g>
  <path d="m-9.1479 180.8c5.4871 15.731 17.673 37.03 27.254 37.498 7.5 0.36588 16.106-7.6444 19.572-28.169z" fill="#794241"/>
  <path d="m-9.1479 180.8c2.6493 7.5955 6.8625 16.486 11.59 23.705 6.5712-1.9237 18.642-0.22165 27.47 6.8612 3.304-4.5448 6.1185-11.472 7.7668-21.238z" fill="#502727"/>
  <path d="m24.214 187.44c-11.163 2.3055-18.265 8.1143-23.283 14.655 0.49804 0.81619 0.99976 1.6239 1.51 2.4046 6.5725-1.9237 18.643-0.22166 27.471 6.8612 3.304-4.546 6.1185-11.473 7.7668-21.238z" fill="#633334"/>
  <path d="m39.416 191.04c-3.7164 21.308-13.803 29.08-21.371 28.718-11.462-0.54945-23.84-23.382-28.839-38.686l3.036 0.83333c5.5287 15.047 17.189 35.029 25.908 35.455 5.5287 0.28027 14.622-4.7076 18.501-26.789z" fill="#0f141b"/>
  <path d="m27.536 189.59c-11.636-1.0254-23.756 8.5646-26.142 14.266l-1.2139-1.9665c2.839-6.1552 10.907-12.314 19.511-13.566z" fill="#0f141b"/>
  <path d="m192.06 34.891s-29.754-22.438-33.657-26.34c-7.2749-1.8184-10.346-4.0199-11.603-11.372-12.228 7.6383-23.105 16.536-30.1 26.25-5.4283 7.5355-4.1471 34.144 1.9506 54.386l32.925 19.999c6.3412-0.73176 33.436-10.219 42.435-19.024 3.9403-3.8534 9.3429-17.986 14.563-34.806-8.2991 1.7989-14.89-2.4828-16.514-9.0933" fill="#52585c"/>
  <path d="m186.69 76.839c-6.6483 4.4322-24.179 12.254-30.06 14.234-3.8093 1.2837-5.547 3.6613-5.1811 6.6789 8.5047-1.0059 34.215-10.8 42.558-18.962 3.9403-3.8534 9.3429-17.986 14.562-34.806-1.6153 0.35-3.1645 0.46377-4.6268 0.37935-6.3412 16.115-12.348 29.207-17.252 32.476" fill="#444a4e"/>
  <path d="m139.62 78.059c-12.162-4.4812-13.762-43.923-7.56-52.192 8.047-10.729 71.241-44.661 73.653-41.948 1.9506 2.1953-18.779 72.678-22.681 77.068-7.1452 8.0384-36.734 19.531-43.412 17.072" fill="#fcdd82"/>
  <path d="m205.72-16.081c-2.4119-2.7129-65.606 31.219-73.653 41.948-4.7271 6.302-4.9156 30.704 0.64613 43.942l0.0857-0.0427c-0.18349-7.3165 0.57883-30.302 4.8776-37.071 5.7306-9.0236 38.232-29.883 65.909-36.521 1.8294-7.5 2.6628-11.661 2.1341-12.255" fill="#d9be73"/>
  <path d="m152.37 96.838c7.5771-1.3534 32.47-10.382 40.989-18.716 11.242-10.999 32.725-101.12 31.166-106.49-8.4325-5.8285-82.298 17.959-107.06 52.344-5.0135 6.958-4.2915 32.369 1.6177 52.681 0.42464 1.4562-0.91408 2.2553-1.7682 0.42708-5.2019-11.148-8.7898-45.597-2.1941-54.753 23.475-32.592 93-56.931 108.5-53.441 3.3333 0.75011 3.3737 1.1392 3.2929 3.8412-0.45766 15.204-20.645 97.086-31.065 107.28-10.207 9.9854-37.872 18.183-43.168 18.535-1.8294 0.12244-1.7193-1.455-0.30455-1.707" fill="#0f141b"/>
  <path d="m139.95 77.18c5.8395 2.1464 35.149-8.6723 42.389-16.816 3.5377-3.9782 22.794-68.725 22.598-75.666-7.0203 0.62656-64.451 31.5-72.121 41.73-6.1552 8.2036-4.0529 46.629 7.1341 50.752m-0.65833 2.0056c-12.971-4.7798-14.807-45.589-8.3224-54.234 7.106-9.4739 59.932-38.568 73.166-42.253 2.2026-0.6131 3.1131 0.23137 2.9259 2.1035-1.3718 13.764-19.728 73.696-22.589 76.915-7.3275 8.2428-38.034 20.102-45.18 17.468" fill="#0f141b"/>
  <path d="m-42.621 155.92c-1.0977-16.462 36.788-71.791 67.946-66.048 34.519 6.362 41.236 52.558 36.498 89.278-0.88473 6.8625-6.0854 12.722-14.451 12.687-9.2364-0.0378-88.08-7.2272-89.993-35.918" fill="#ef91a7"/>
  <path d="m36.215 182.62c-37.648-4.338-68.334-10.78-78.844-26.986 0.0038 0.093 0.0024 0.19078 0.0073 0.28027 1.9126 28.692 80.757 35.88 89.993 35.918 2.2565 0.0104 4.2744-0.42093 6.0475-1.1735-4.2878-5.3414-8.6307-7.051-17.204-8.0385" fill="#ce7e91"/>
  <path d="m44.263 128.66c1.4684 4.4616 8.1107 6.0989 13.529 6.351 1.9114 0.0881 3.1694-1.4647 2.56-4.1924-4.5901-20.55-15.231-37.303-35.027-40.952-4.289-0.79049-8.7042-0.41851-13.129 0.84436 13.194-0.80641 21.931 7.1598 32.067 37.949" fill="#f1a7ba"/>
  <g fill="#0f141b">
   <path d="m36.734 139.99c2.0166 20.989-1.6544 32.883-8.8216 33.572-7.1195 0.68407-13.163-11.609-15.054-31.278-1.4954-15.554 1.6924-32.887 8.8216-33.572 5.4491-0.52375 13.162 11.598 15.054 31.278"/>
   <path d="m-4.9333 136.55c-8.605 14.49-20.274 23.31-25.322 20.152-5.049-3.1571-2.3446-17.589 7.0399-31.587 9.0676-13.523 20.929-22.773 25.773-19.742 4.2842 2.6799 2.9381 13.614-7.4915 31.177"/>
   <path d="m25.514 88.332c-32.154-5.9362-71.171 50.852-70.057 67.587 1.9457 29.186 81.191 37.695 92.22 37.741 9.1851 0 14.786-6.1699 15.791-13.962 4.7969-37.171-3.4484-84.995-37.954-91.366m35.381 90.698c-0.76359 5.9166-5.2864 11.872-13.519 11.871-10.304-0.0427-87.24-7.686-89.063-35.044-1.0879-16.308 36.622-70.635 66.842-65.066 28.326 5.2215 41.712 41.965 35.74 88.239"/>
  </g>
 </g>
</svg>
