<?xml version="1.0" encoding="UTF-8"?>
<!-- Created with Inkscape (http://www.inkscape.org/) -->
<svg version="1.1" viewBox="0 0 308.67 254.25" xmlns="http://www.w3.org/2000/svg">
 <g transform="rotate(20.359 233.12 302.12)">
  <path d="m-19.771 148.02c-22.5-12.104-46.928-10.025-49.694-5.1288-4.5366 8.0147 10.61 24.567 30.559 37.886 7.6995 5.1415 15.695 9.0479 22.739 10.636-4.0451 0.22683-6.2251 1.928-6.7355 3.453-1.1972 3.5787 4.8894 8.7895 15.891 12.507 10.459 3.5348 27.333 6.7921 28.53 3.2197 0.77496-2.3061-18.783-14.416-27.73-17.629 9.6086 1.6878 14.051-0.40901 16.281-3.9129 1.8398-2.8857-2.8227-26.495-29.84-41.031" fill="#ffeabe"/>
  <path d="m-17.54 187.09c-14.24-5.8407-38.454-21.479-52.681-40.029 0.90106 8.7643 14.372 22.412 31.315 33.722 7.4223 4.9588 16.35 9.3253 23.609 10.756 1.2097-1.5181-0.12681-3.5789-2.2431-4.4485" fill="#dacaa5"/>
  <path d="m-23.021 196.21c0.43472 3.4528 6.3071 7.8948 16.01 11.171 10.459 3.5348 27.333 6.7923 28.53 3.2197 0.30238-0.91981-2.6148-3.396-6.8048-6.2378-7.4979 3.5537-28.29-1.695-37.735-8.1531" fill="#dacaa5"/>
  <path d="m24.751 242.6c-6.4583-1.4306-13.61 8.5123-16.64 22.179-2.0162 9.1172-1.2727 21.442 1.1341 22.084 0.54189 0.14289 1.109-6e-3 1.6885-0.37864 0.025 1.4181 0.57332 4.0452 1.4492 4.291 0.64905 0.1786 1.9847-0.32149 3.4591-1.4628 4.3664-1.1591 11.921-8.8211 14.889-19.154 3.8688-13.452 0.47866-26.129-5.9793-27.56" fill="#ed8322"/>
  <path d="m30.731 270.16c3.8625-13.452 0.47866-26.129-5.9793-27.56-5.7211-1.2734-11.978 6.3953-15.437 17.655 5.488 11.6 16.464 15.72 21.416 9.9047" fill="#ce7228"/>
  <path d="m5.5515 188.91c-2.1611 1.1966-7.6113 3.4024-11.764 4.0577 4.8453 1.4431 10.844 0.40364 10.844 0.40364z" fill="#dacaa5"/>
  <g fill="#0f141b">
   <path d="m-21.991 195.18c-0.90731 2.703 4.568 7.6616 15.286 11.285 12.734 4.2972 25.726 5.7589 27.244 3.938-1.09-2.3754-16.281-12.072-25.348-15.853-3.478-1.4485-3.0118-2.7282 0.6553-2.2431 9.0479 1.1966 11.984-1.5378 13.408-3.7678 1.2224-1.9218-2.2242-25.001-29.481-39.663-23.111-12.431-46.254-9.3124-48.396-5.5067-3.8435 6.7921 9.1613 22.531 30.25 36.614 7.4601 4.9775 14.668 8.4619 20.944 10.132 2.9992 0.80015 2.9424 1.9028-0.0822 2.4258-2.2935 0.40365-4.0703 1.4235-4.4798 2.6401m2.8164-48.743c28.259 15.613 32.896 39.6 30.502 43.362-2.136 3.3458-5.9227 5.1226-11.367 4.7761 10.396 5.154 23.414 13.502 22.475 16.325-1.4178 4.2277-18.896 1.2288-29.966-2.2242-11.707-3.6482-18.581-10.34-17.113-14.719 0.3781-1.1413 2.1044-2.1611 4.3979-2.6653-4.2215-1.3538-11.682-4.3663-20.08-9.6527-19.463-12.261-36.897-30.83-31.661-40.085 3.3205-5.8788 30.288-7.2333 52.813 4.883"/>
   <path d="m16.829 287.92c4.1522-2.0288 10.371-8.9724 12.973-18.033 3.8246-13.307 0.33399-25.109-5.2611-26.35-5.7336-1.2734-12.538 8.1468-15.487 21.448-2.0414 9.2179-0.97661 20.181 0.4599 20.944 1.8713 0.49831 6.6221-7.5042 7.2081-12.627 0.18271-1.6003 1.3358-1.7146 1.235 0.0179-0.27094 4.524-4.442 16.067-9.0605 14.832-2.974-0.78764-4.2782-14.24-2.1864-23.653 3.2323-14.592 11.467-24.806 18.373-23.275 5.9795 1.3288 11.549 13.112 6.8679 29.412-3.289 11.449-11.417 18.373-16.388 19.734-0.13931 0.0357 1.2665-2.451 1.2665-2.451"/>
   <path d="m11.811 286.08c-0.15181 0.75014 0.44741 3.4906 0.89463 3.7678 0.84426 0.52866 6.956-4.1711 8.2855-10.472 0.32131-1.5378 1.594-1.3038 1.3295 0.27148-1.3924 8.4242-7.8129 12.715-10.195 12.06-1.4113-0.39114-2.0036-3.0243-2.1234-4.7444z"/>
  </g>
  <path d="m276.88 207.38c-0.62333-0.4733-2.3817 0.80729-3.9884 2.117-0.8323-11.285-6.6348-22.935-16.697-29.317-14.026-1.0895-27.238 6.8173-34.522 20.471-9.2747 17.384-3.9064 35.051 6.0802 44.175 14.649 2.8982 30.351-2.1738 39.575-14.448 3.7741 0.768 9.2179 0.44116 10.686-0.75013 1.5306-1.2413-4.5996-6.4017-4.4296-8.1029 0.21433-2.1295 6.66-11.587 3.2954-14.145" fill="#ffeabe"/>
  <path d="m220.35 234.67c1.8902 3.9822 4.4421 7.4412 7.4035 10.151 14.139 2.7975 29.254-1.8587 38.579-13.225-15.619 8.9029-30.508 10.384-45.983 3.0747" fill="#dacaa5"/>
  <path d="m221.67 200.65c7.2837-13.66 20.496-21.561 34.522-20.471-0.33399-0.21432-0.66798-0.44115-1.0145-0.64297-16.048-9.3376-38.737-11.423-45.573-11.669l-34.27 31.246c8.9597 13.093 30.08 36.645 43.066 42.669 3.018 1.3985 6.162 2.4069 9.3565 3.037-9.9931-9.1172-15.355-26.785-6.0865-44.168" fill="#ed8322"/>
  <path d="m175.33 199.11c8.9659 13.087 30.08 36.645 43.066 42.669 3.018 1.3985 6.1622 2.4069 9.3567 3.037-2.9614-2.703-5.5132-6.1684-7.4033-10.15-13.175-6.2252-26.778-18.82-41.623-38.649z" fill="#ce7228"/>
  <path d="m152.3 79.802c-28.549-3.4465-56.959 17.504-67.179 40.961-3.207 0.39114-7.4978 1.1913-13.061 2.7785-66.139 20.427-83.157 84.833-57.583 123.82 20.414 31.132 73.19 31.157 114.13-13.244 13.055-8.9029 63.197-45.17 63.197-45.17 16.93-10.182 26.073-23.306 26.073-40.4 6e-3 -23.168-28.076-64.224-65.572-68.748" fill="#ed8322"/>
  <path d="m96.472 196.89c-6.7923 46.462-66.656 58.773-84.55 46.235 0.80015 1.4431 1.6508 2.8605 2.5581 4.2467 20.414 31.132 73.19 31.151 114.13-13.244 1.9784-1.3556 4.8202-3.3395 8.2036-5.7275-16.206-5.488-31.359-16.029-40.337-31.51" fill="#ce7228"/>
  <path d="m214.42 165.37c-13.131 18.972-53.865 22.008-90.214 14.788 7.8761 8.3547 36.607 19.847 67.431 8.9091 0.10716-0.0714 0.16074-0.12503 0.16074-0.12503 10.888-6.5528 18.531-14.322 22.62-23.577" fill="#ce7228"/>
  <path d="m135.38 35.453c-9.3315 5.7462 1.7771 37.357 8.191 43.696l50.658 24.586c10.503-44.679-48.762-74.494-58.849-68.281" fill="#ed8322"/>
  <path d="m205.14 148.78c-0.28934 11.946-11.77 19.778-22.342 19.702-12.702-0.0893-22.928-7.1827-23.64-18.115-0.81979-12.507 10.201-19.287 22.336-19.703 15.286-0.52866 23.918 6.8804 23.647 18.115" fill="#ffeabe"/>
  <path d="m154.78 158.79c-1.0145 10.421-9.5267 18.121-19.003 17.195-9.4826-0.92696-16.344-10.119-15.33-20.547 1.0591-10.793 9.949-18.197 18.972-17.315 9.6907 0.94482 16.313 10.938 15.361 20.667" fill="#fcd24d"/>
  <path d="m214.24 131.86c-7.9831 8.1027-4.4231 23.817 1.8839 28.958 1.1591-3.8434 1.7575-7.9263 1.7575-12.268 0-4.9272-1.2788-10.667-3.6419-16.691" fill="#fcd24d"/>
  <path d="m136.88 220.72c-7.3594-17.881 0.81265-38.195 18.253-45.378 11.341-4.6626 22.683-1.9532 31.315 3.73-11.675-8.9659-29.229-10.226-47.501-3.7489-4.9588 1.7575-20.414-3.9822-31.422-4.6185l-12.318 20.307c2.0668 18.323 32.537 66.108 77.021 51.452-14.687 1.3931-29.311-7.0758-35.347-21.744" fill="#ed8322"/>
  <path d="m96.611 197.11c6.7291 20.931 35.467 58.578 75.622 45.347-9.3756 0.88766-18.713-2.2493-25.814-8.443-17.737-3.2134-36.305-13.9-49.807-36.904" fill="#ce7228"/>
  <path d="m155.14 175.34c-17.441 7.1767-25.613 27.496-18.253 45.378 6.0361 14.668 20.654 23.136 35.347 21.738 1.8334-0.60547 3.6921-1.3038 5.5824-2.1297 14.139-5.8218 27.956-26.255 19.431-46.972-2.4572-5.9731-6.162-10.73-10.793-14.284-8.6321-5.6834-19.973-8.399-31.315-3.7302" fill="#ffeabe"/>
  <path d="m146.42 234.02c7.1074 6.1936 16.439 9.3314 25.814 8.443 1.84-0.60547 3.6987-1.311 5.5826-2.1359 7.2079-2.9677 14.328-9.7346 18.449-18.398-8.8022 9.1676-28.732 15.922-49.845 12.091" fill="#dacaa5"/>
  <path d="m266.89 219.17c1.7325 1.052 1.9595 3.8561 0.4983 6.2629-1.4556 2.4069-4.0388 3.5664-5.7714 2.514-1.7396-1.052-1.9659-3.9064-0.51081-6.3133 1.461-2.4133 4.0515-3.5158 5.7841-2.4637" fill="#fcd24d"/>
  <path d="m187.97 215.48c-0.99483 2.3881-4.4483 4.2531-6.3133 3.4781-1.8777-0.78764-2.6716-4.1711-1.1288-7.1326 1.7075-3.2826 4.524-4.0829 5.948-3.4842 1.3288 0.55367 2.8541 3.875 1.4931 7.1386" fill="#fcd24d"/>
  <path d="m173.41 147.14c-0.0714 6e-3 -0.14288 0.0179-0.21968 0.0179 0.35363 6.9561 4.0261 16.502 9.5519 16.539 3.0307 0.0179 6.0613-2.8857 8.1468-6.9748-3.1693-5.217-10.403-10.403-17.478-9.5898" fill="#ed8499"/>
  <path d="m188.94 154.14c-5.6959-6.5653-12.501-7.3592-15.758-6.9813 0.12503 2.4196 0.64834 5.1415 1.5128 7.6744 3.7491-1.7325 10.503-2.3502 14.246-0.69298" fill="#cf7486"/>
  <path d="m193.48 143.5c-0.40364-3.6292-18.959-4.7255-19.98-0.61797-0.29648 1.1841-0.39114 2.6589-0.30898 4.2783 0.0714-0.0127 0.14288-0.0179 0.21968-0.0179 7.082-0.81265 14.309 4.3726 17.485 9.5896 1.9532-3.8244 3.0811-8.695 2.5833-13.225" fill="#91331e"/>
  <g fill="#0f141b">
   <path d="m128.58 236.72c-43.671 46.89-96.383 41.415-115.62 12.085-24.926-38.012-11.467-103.22 55.062-125.5l3.2638 1.5003c-65.024 20.711-80.895 84.071-56.001 122.03 19.249 29.355 69.749 31.579 110.98-11.625z"/>
   <path d="m188.44 95.369c19.677 14.347 30.981 37.817 30.974 53.361 0 15.828-9.3062 31.006-24.529 39.884l-1.2092-1.947c16.029-10.472 23.231-22.973 23.237-38.12 6e-3 -15.115-11.379-37.401-29.544-51.817-2.6337-2.0918-1.3413-3.119 1.0716-1.361"/>
   <path d="m180.51 89.725c-7.7121-6.6094-17.919-10.39-28.114-11.625-34.112-4.1145-71.419 28.939-71.929 55.591-0.0357 2.0227 1.336 2.262 1.5878 0.22682 3.3772-27.15 36.948-57.16 70.14-53.159 9.6968 1.1716 19.142 4.7696 27.383 10.169 2.1738 1.4181 2.7787 0.37864 0.93231-1.2038"/>
   <path d="m195.54 103.6c10.27-47.753-50.236-76.056-61.079-69.403-10.371 6.389 0.98947 38.498 7.7121 45.422 0.37149 0.384 3.5158 0.31434 3.1377-0.0714-7.8382-7.8948-17.718-38.176-9.4196-43.286 9.3188-5.6707 66.152 22.588 57.784 65.465z"/>
   <path d="m94.764 192.49c-0.30184-2.0982 1.1288-2.4196 1.5056-0.31435 3.4465 19.425 35.417 67.324 81.154 47.275 13.962-5.7462 26.929-26.293 18.934-45.718-8.1092-19.69-31.05-26.722-57.085-17.497-5.0722 1.7957-21.227-3.6985-30.426-4.6373-2.0352-0.20718-2.01-1.7074 0.0536-1.5181 10.9 0.97696 25.783 5.551 29.733 4.1522 27.074-9.596 51.269-2.3376 59.794 18.373 7.9704 19.356-2.9991 41.679-20.043 49.127-48.598 21.227-80.498-27.774-83.624-49.24"/>
   <path d="m274.22 208.77c-1.1913-11.965-7.7184-24.195-18.398-30.407-14.807-8.6132-34.988-10.869-42.814-11.486l-1.0591 2.092c6.9938 0.4983 27.717 2.6589 42.744 11.404 10.497 6.1056 16.747 18.455 17.314 30.244z"/>
   <path d="m196.35 222.75c7.9327 8.1406 16.244 15.279 22.456 18.159 16.319 7.5735 35.858 3.3078 46.733-9.8166 1.286-1.5503 1.4735-1.6253 3.793-1.386 3.2449 0.33935 6.83-0.0179 7.9452-0.73764-0.3715-1.6878-4.8516-5.5321-4.65-7.5483 0.1786-1.7825 5.9857-11.14 3.7994-13.162-0.40364-0.3715-3.8246 2.451-5.3556 3.3458-1.2609 0.73763-1.6074 0.10716-0.63583-0.96446 3.1629-3.478 6.2188-5.135 7.1386-4.4294 4.1838 3.1818-2.4824 13.439-2.6778 15.43 0.14288 1.5378 6.8805 6.7859 4.2783 8.903-1.5181 1.2342-7.1074 1.9154-11.222 1.486-11.159 13.969-32.002 20.011-50.217 11.115-6.326-3.0936-14.882-10.327-22.973-18.701z"/>
   <path d="m257.58 205.54c2.0791-0.82515 4.8137 1.695 6.3447 4.8012 0.8198 1.6628-0.20182 2.2179-1.1145 0.768-2.0729-3.2765-3.8937-4.0263-4.4862-3.7868h-6e-3c-0.54832 0.22682-1.4878 1.9909-0.93232 6.2188 0.23933 1.8336-0.59832 1.947-1.2484 0.31435-0.95196-2.3881-0.85016-7.3719 1.4431-8.3171"/>
   <path d="m266.43 219.91c-1.2288-0.74299-3.4087 0.21433-4.5869 2.1611-1.2788 2.1045-0.90731 4.4672 0.21433 5.1477 1.2413 0.75014 3.3772-0.30898 4.5492-2.2493 1.1663-1.9155 1.1216-4.3035-0.1786-5.0595m0.8448-1.5056c2.2242 1.3485 2.5833 4.543 0.81979 7.4539-1.7271 2.8543-4.7066 4.1522-6.9813 2.7723-1.9405-1.1716-2.6085-4.398-0.73763-7.4853 1.7825-2.9423 5.0281-3.875 6.8993-2.7409"/>
   <path d="m190.2 201.77c0.96446-3.3583-1.3931-6.9748-2.117-6.7293-0.49116 0.16075-0.64833 4.3476-2.3879 6.4394-0.89481 1.077-1.5806 0.58583-0.96982-0.61797 1.3288-2.6399 1.0216-7.6994 2.955-7.9514 2.029-0.26433 5.3997 4.1836 3.5285 9.2052-0.41615 1.1413-1.3985 1.002-1.0073-0.34649"/>
   <path d="m173.56 207.7c-2.6274-3.4087-4.234-9.3124-2.4951-10.655 1.8777-1.4485 5.7905 1.3038 8.4808 4.8768 0.83229 1.102 0.16074 1.67-0.72514 0.70549-4.6625-5.0216-6.2881-3.9127-6.4205-3.8055-0.33934 0.26433-0.75013 2.9361 2.0918 8.2917 0.61083 1.1591-0.0893 1.6753-0.93231 0.58582"/>
   <path d="m171.4 219.91c-4.9209 1.0966-7.2333-1.8019-7.1451-3.2322 0.14288-2.2054 4.2088-4.7193 7.4096-4.4296 1.4556 0.14288 1.411 1.2734 0.0536 1.361-3.1566 0.20718-5.2738 2.4385-5.3179 3.1693-0.0357 0.56082 1.4681 2.1234 4.7382 1.865 1.3735-0.10716 1.6074 0.96982 0.26434 1.2663"/>
   <path d="m181.28 212.2c-1.286 2.4699-0.69298 5.299 0.62333 5.9164 1.361 0.63583 4.4042-0.90017 5.2738-2.9864 1.2288-2.9488-0.31434-5.6959-1.0395-5.9984-1.0895-0.45902-3.4781 0.4215-4.8579 3.0684m7.4474 3.5916c-1.2038 2.873-5.1036 4.9209-7.4601 3.9379-1.8587-0.77514-3.5158-4.486-1.5003-8.361 1.8712-3.5916 5.1729-4.5996 7.0442-3.8184 1.9155 0.80014 3.4654 4.5365 1.9155 8.2415"/>
   <path d="m187.11 134.64c0.0179 0.27684-0.41614 0.54117-0.98946 0.59297-0.56796 0.0536-1.0466-0.14289-1.0716-0.41615-0.0179-0.27684 0.42151-0.57332 0.98947-0.62333 0.57332-0.0536 1.0466 0.1786 1.0716 0.44651"/>
   <path d="m174.43 143.12c-1.5056 6.0615 2.5203 19.583 8.317 19.621 5.1288 0.0357 10.749-10.226 9.7661-19.129-0.0714-0.63583-2.8289-1.9595-8.0649-2.3061-5.0218-0.33935-9.6843 0.47865-10.018 1.8146m8.3044 21.549c-6.7859-0.0357-12.072-14.397-10.176-22.015 0.94482-3.8182 10.1-3.3017 11.946-3.1756 2.2242 0.14288 9.7284 0.76263 9.9238 3.9191 0.80729 12.986-7.4222 21.297-11.694 21.271"/>
   <path d="m173.52 148.1c6.6852-0.76264 13.515 4.1459 16.552 9.1424l0.86266-1.3985c-2.9929-5.1477-10.138-10.459-17.459-9.2054z"/>
   <path d="m184.69 68.214c2.6464 2.9613 4.9777 7.7373 6.1811 13.162 1.4735 6.641 0.60547 12.557-2.0036 15.683l-1.4806-1.2342c2.1927-2.6274 2.7346-7.9704 1.411-13.944-0.94481-4.2594-2.5832-8.0965-4.4104-10.774z"/>
   <path d="m176.52 88.494 3.0495 1.4735c-0.7555-0.98232-1.4181-2.344-1.9659-3.9254z"/>
  </g>
  <path d="m166.39 132.86c0.18218 5.3304-3.3394 9.7725-7.8696 9.93-4.5301 0.16074-8.3485-4.0325-8.5375-9.363-0.18217-5.3242 3.289-9.6464 7.8193-9.8039 4.5301-0.16075 8.4051 3.9064 8.5878 9.2369" fill="#5c4043"/>
  <path d="m206.88 125.83c2.3944 4.6562 0.95196 9.8732-2.3942 11.278-3.3458 1.4056-7.813-1.3163-9.596-6.2378-1.8021-4.9588-1.2342-9.5646 2.1107-10.97 3.3456-1.4056 7.3719 1.0466 9.8795 5.9291" fill="#5c4043"/>
  <path d="m163.36 128.07c0.24648 1.5932-0.68048 3.0622-2.0666 3.2763-1.386 0.20718-2.7092-0.91446-2.9488-2.5078-0.24647-1.5931 0.57332-3.0432 1.9596-3.2511 1.386-0.21432 2.8102 0.88767 3.0557 2.4826" fill="#fff"/>
  <path d="m199.69 123.46c0.54117 1.5181-0.0179 3.1125-1.261 3.5535-1.2342 0.44115-2.6841-0.42865-3.226-1.9468-0.54117-1.5253-0.0714-3.0748 1.1716-3.5223 1.2342-0.44115 2.7725 0.39651 3.3144 1.9155" fill="#fff"/>
  <path d="m158.61 140.03c-0.63047 1.5056-2.3817 2.2052-3.9191 1.5628-1.5431-0.64297-2.281-2.3817-1.6503-3.8877 0.62333-1.5003 2.3251-2.3501 3.8623-1.7146 1.5378 0.64297 2.3376 2.533 1.7075 4.0388" fill="#ed8322"/>
  <path d="m206.19 131.88c0.8573 1.1788 0.56796 2.8478-0.64298 3.7173-1.2038 0.87516-2.8732 0.63047-3.7301-0.55368-0.8573-1.1788-0.59833-2.9298 0.60546-3.8057 1.2092-0.86981 2.9109-0.53582 3.7678 0.64297" fill="#ed8322"/>
  <path d="m150.95 133.4c0.14288 4.0956 3.0557 8.5816 7.5419 8.4305 4.1018-0.14289 7.0947-4.3538 6.9309-8.9345-0.14289-4.4987-3.2954-8.4557-7.5862-8.3044-3.6355 0.12502-7.0693 3.6228-6.8866 8.8084m16.502-0.66798c0.20718 6.0992-4.3412 10.869-8.8966 11.026-5.5383 0.19468-9.4133-5.0532-9.596-10.352-0.20182-5.7148 3.6607-10.566 8.8084-10.743 5.1477-0.18218 9.4826 4.3474 9.6843 10.069" fill="#0f141b"/>
  <path d="m197.38 120.79c-3.0686 1.286-3.0056 5.8282-1.5806 9.7536 1.6074 4.4356 5.6455 6.9056 8.3171 5.6707 3.0936-1.2913 3.8623-6.1433 1.9091-9.9427-2.2872-4.4483-5.8282-6.641-8.6446-5.4815m10.484 4.5365c2.7409 5.3304 0.72513 11.14-3.0307 12.683-3.7552 1.5431-8.9911-1.1966-11.007-6.7544-2.0856-5.7462-0.86266-10.705 2.8039-12.249 4.0136-1.6449 8.6319 1.2538 11.234 6.3197" fill="#0f141b"/>
  <path d="m35.047 56.076c-10.926 15.594 17.081 79.673 59.202 71.123l22.046-23.766c-15.922-32.077-72.679-59.586-81.248-47.357" fill="#ed8322"/>
  <path d="m90.195 124.79c-23.073-1.5253-40.829-20.478-52.51-37.546 8.651 20.773 29.122 45.334 56.625 39.934-0.4983-1.7021-2.0918-2.2556-4.1145-2.3879" fill="#ce7228"/>
  <path d="m63.78 80.773c-3.2008 3.8814 1.0895 15.916 11.001 24.245 7.6051 6.389 15.859 8.84 21.36 7.939-1.72-0.88766-3.4024-2.0225-4.9461-3.4149-7.101-6.3576-9.6277-15.002-6.0488-18.997 1.3931-1.5556 3.5096-2.1674 5.9857-1.9722-0.44115-0.38399-0.88766-0.76799-1.3556-1.1591-10.711-8.8211-22.947-10.34-25.997-6.641" fill="#009683"/>
  <path d="m85.146 90.546c1.3931-1.5556 3.5096-2.1674 5.9857-1.9722-0.44651-0.38399-0.88766-0.77514-1.3556-1.1591-10.711-8.8273-22.947-10.34-25.997-6.641-1.8839 2.2872-1.1538 7.4035 1.7771 12.929 6.6789-0.82515 12.639-0.51617 18.02 0.71263 0.14288-1.5181 0.65548-2.848 1.5682-3.8687" fill="#008273"/>
  <path d="m183.71 58.344c3.6166 15.38-4.4231 31.611-22.317 38.976-17.894 7.3656-37.143 1.6628-43.16-12.948-6.0109-14.612 3.8182-31.957 21.511-39.789 18.764-8.3106 16.552-17.365 21.99-18.82 7.8129-2.0856 18.953 19.709 21.977 32.581" fill="#ed8322"/>
  <path d="m159.49 89.736c-15.569 5.5951-34.087 2.8353-43.021-13.673 0.0893 2.8102 0.64834 5.6078 1.7575 8.3108 6.0174 14.611 25.266 20.314 43.16 12.948 15.815-6.5087 23.924-19.936 23.105-33.583-1.77 11.826-10.982 20.956-25.002 25.997" fill="#ce7228"/>
  <g fill="#0f141b">
   <path d="m93.17 128.05c-44.546 8.2665-70.94-57.179-59.536-72.755 10.396-14.189 66.492 14.063 82.622 46.386 1.0216 2.0479-0.18217 2.766-1.2413 0.7805-16.842-31.46-71.558-56.713-79.175-45.838-10.264 14.649 16.388 76.951 56.978 70.077 1.8652-0.32149 2.1424 1.0145 0.35364 1.3485"/>
   <path d="m89.162 88.162c-10.176-8.3926-21.958-10.025-24.636-6.7734-2.6462 3.207 1.1716 14.738 10.875 22.891 6.2188 5.2235 13.666 8.2351 19.337 7.8759l2.6401 1.4306c-5.5385 1.4806-14.429 0.0179-23.489-7.5925-11.379-9.5646-14-22.406-11.039-25.991 3.2386-3.9316 16.823-2.7723 27.931 6.389 0.95731 0.78765 1.8523 1.5753 2.6967 2.3628z"/>
   <path d="m105.7 116.06c-4.9334 0.12502-10.932-1.7521-15.279-5.6455-7.4539-6.6787-10.239-16.124-6.1622-20.673 4.379-4.8957 14.038-1.4431 20.673 4.4987 5.4187 4.8516 8.6321 10.68 9.2054 14.845 0.30184 2.199-0.95732 2.4069-1.3538 0.35364-0.80729-4.2152-4.19-9.0983-9.2685-13.647-5.7337-5.1415-14.133-8.5187-17.648-4.5996-3.2511 3.6292-0.4608 11.871 5.9731 17.636 4.4547 3.9884 9.8986 5.9164 13.767 5.8912 2.533-0.0127 2.6085 1.2734 0.0893 1.3413"/>
   <path d="m161.24 96.294c15.846-7.0947 25.159-22.292 21.53-37.729-3.2386-13.767-14.303-33.602-20.793-31.869-4.6437 1.2484-3.3645 10.585-21.845 18.764-17.491 7.7436-26.715 24.674-21.007 38.548 3.5473 8.6257 13.219 13.931 23.237 15.5 3.182 0.4983 2.2117 1.7075-0.12502 1.6128-10.894-0.44115-21.744-6.6409-25.619-16.048-6.0677-14.756 3.0999-33.236 22.525-41.547 18.732-8.0145 15.903-17.869 22.002-19.494 9.0918-2.4258 21 21.687 23.861 33.848 4.2467 18.058-7.5294 34.32-23.111 39.947-2.4888 0.8948-3.3647-0.32149-0.66084-1.5306"/>
  </g>
 </g>
</svg>
