<?xml version="1.0" encoding="UTF-8"?>
<!-- Created with Inkscape (http://www.inkscape.org/) -->
<svg version="1.1" viewBox="0 0 215.03 217.41" xmlns="http://www.w3.org/2000/svg">
 <defs>
  <clipPath id="clipPath12043">
   <path d="m-748.37 872.54h612v-792h-612z"/>
  </clipPath>
  <clipPath id="clipPath12058">
   <path d="m-748.37 872.54h612v-792h-612z"/>
  </clipPath>
  <clipPath id="clipPath12073">
   <path d="m-748.37 872.54h612v-792h-612z"/>
  </clipPath>
  <clipPath id="clipPath11773">
   <path d="m-748.37 872.54h612v-792h-612z"/>
  </clipPath>
  <clipPath id="clipPath11788">
   <path d="m-748.37 872.54h612v-792h-612z"/>
  </clipPath>
  <clipPath id="clipPath11803">
   <path d="m-748.37 872.54h612v-792h-612z"/>
  </clipPath>
  <clipPath id="clipPath11818">
   <path d="m-748.37 872.54h612v-792h-612z"/>
  </clipPath>
  <clipPath id="clipPath11833">
   <path d="m-748.37 872.54h612v-792h-612z"/>
  </clipPath>
  <clipPath id="clipPath11863">
   <path d="m-748.37 872.54h612v-792h-612z"/>
  </clipPath>
  <clipPath id="clipPath11848">
   <path d="m-748.37 872.54h612v-792h-612z"/>
  </clipPath>
  <clipPath id="clipPath11878">
   <path d="m-748.37 872.54h612v-792h-612z"/>
  </clipPath>
  <clipPath id="clipPath11893">
   <path d="m-748.37 872.54h612v-792h-612z"/>
  </clipPath>
  <clipPath id="clipPath11908">
   <path d="m-748.37 872.54h612v-792h-612z"/>
  </clipPath>
  <clipPath id="clipPath11923">
   <path d="m-748.37 872.54h612v-792h-612z"/>
  </clipPath>
  <clipPath id="clipPath12088">
   <path d="m-748.37 872.54h612v-792h-612z"/>
  </clipPath>
  <clipPath id="clipPath11743">
   <path d="m-748.37 872.54h612v-792h-612z"/>
  </clipPath>
  <clipPath id="clipPath11728">
   <path d="m-748.37 872.54h612v-792h-612z"/>
  </clipPath>
  <clipPath id="clipPath11758">
   <path d="m-748.37 872.54h612v-792h-612z"/>
  </clipPath>
  <clipPath id="clipPath12103">
   <path d="m-748.37 872.54h612v-792h-612z"/>
  </clipPath>
  <clipPath id="clipPath12118">
   <path d="m-748.37 872.54h612v-792h-612z"/>
  </clipPath>
  <clipPath id="clipPath12148">
   <path d="m-748.37 872.54h612v-792h-612z"/>
  </clipPath>
  <clipPath id="clipPath12163">
   <path d="m-748.37 872.54h612v-792h-612z"/>
  </clipPath>
  <clipPath id="clipPath12178">
   <path d="m-748.37 872.54h612v-792h-612z"/>
  </clipPath>
  <clipPath id="clipPath12193">
   <path d="m-748.37 872.54h612v-792h-612z"/>
  </clipPath>
  <clipPath id="clipPath12208">
   <path d="m-748.37 872.54h612v-792h-612z"/>
  </clipPath>
  <clipPath id="clipPath12223">
   <path d="m-748.37 872.54h612v-792h-612z"/>
  </clipPath>
  <clipPath id="clipPath12238">
   <path d="m-748.37 872.54h612v-792h-612z"/>
  </clipPath>
  <clipPath id="clipPath12253">
   <path d="m-748.37 872.54h612v-792h-612z"/>
  </clipPath>
  <clipPath id="clipPath12268">
   <path d="m-748.37 872.54h612v-792h-612z"/>
  </clipPath>
  <clipPath id="clipPath12283">
   <path d="m-748.37 872.54h612v-792h-612z"/>
  </clipPath>
  <clipPath id="clipPath12298">
   <path d="m-748.37 872.54h612v-792h-612z"/>
  </clipPath>
  <clipPath id="clipPath12313">
   <path d="m-748.37 872.54h612v-792h-612z"/>
  </clipPath>
  <clipPath id="clipPath12328">
   <path d="m-748.37 872.54h612v-792h-612z"/>
  </clipPath>
  <clipPath id="clipPath12343">
   <path d="m-748.37 872.54h612v-792h-612z"/>
  </clipPath>
  <clipPath id="clipPath12358">
   <path d="m-748.37 872.54h612v-792h-612z"/>
  </clipPath>
  <clipPath id="clipPath12373">
   <path d="m-748.37 872.54h612v-792h-612z"/>
  </clipPath>
  <clipPath id="clipPath12388">
   <path d="m-748.37 872.54h612v-792h-612z"/>
  </clipPath>
  <clipPath id="clipPath12403">
   <path d="m-748.37 872.54h612v-792h-612z"/>
  </clipPath>
  <clipPath id="clipPath12418">
   <path d="m-748.37 872.54h612v-792h-612z"/>
  </clipPath>
  <clipPath id="clipPath12433">
   <path d="m-748.37 872.54h612v-792h-612z"/>
  </clipPath>
  <clipPath id="clipPath12448">
   <path d="m-748.37 872.54h612v-792h-612z"/>
  </clipPath>
  <clipPath id="clipPath12463">
   <path d="m-748.37 872.54h612v-792h-612z"/>
  </clipPath>
  <clipPath id="clipPath12478">
   <path d="m-748.37 872.54h612v-792h-612z"/>
  </clipPath>
  <clipPath id="clipPath12493">
   <path d="m-748.37 872.54h612v-792h-612z"/>
  </clipPath>
  <clipPath id="clipPath12508">
   <path d="m-748.37 872.54h612v-792h-612z"/>
  </clipPath>
  <clipPath id="clipPath12523">
   <path d="m-748.37 872.54h612v-792h-612z"/>
  </clipPath>
  <clipPath id="clipPath12538">
   <path d="m-748.37 872.54h612v-792h-612z"/>
  </clipPath>
  <clipPath id="clipPath12553">
   <path d="m-748.37 872.54h612v-792h-612z"/>
  </clipPath>
  <clipPath id="clipPath12568">
   <path d="m-748.37 872.54h612v-792h-612z"/>
  </clipPath>
  <clipPath id="clipPath12583">
   <path d="m-748.37 872.54h612v-792h-612z"/>
  </clipPath>
  <clipPath id="clipPath12598">
   <path d="m-748.37 872.54h612v-792h-612z"/>
  </clipPath>
  <clipPath id="clipPath12613">
   <path d="m-748.37 872.54h612v-792h-612z"/>
  </clipPath>
  <clipPath id="clipPath12133">
   <path d="m-748.37 872.54h612v-792h-612z"/>
  </clipPath>
  <clipPath id="clipPath12628">
   <path d="m-748.37 872.54h612v-792h-612z"/>
  </clipPath>
  <clipPath id="clipPath12643">
   <path d="m-748.37 872.54h612v-792h-612z"/>
  </clipPath>
  <clipPath id="clipPath12658">
   <path d="m-748.37 872.54h612v-792h-612z"/>
  </clipPath>
  <clipPath id="clipPath12673">
   <path d="m-748.37 872.54h612v-792h-612z"/>
  </clipPath>
  <clipPath id="clipPath12688">
   <path d="m-748.37 872.54h612v-792h-612z"/>
  </clipPath>
 </defs>
 <g transform="translate(-9.2221 -40.424)">
  <path transform="matrix(1.6141 0 0 -1.6141 493.19 553.6)" d="m-168.33 264.23c-2.534 2.377-11.145-0.308-20.011-8.682-7.804-7.37-10.809-16.907-7.215-20.277 0.445-0.418 1.316-0.651 2.486-0.661-4.189-2.926-8.014-8.363-6.97-9.848 0.664-0.945 5.258-0.513 10.804 3.385 4.487 3.155 7.158 7.087 5.966 8.783-0.125 0.178-0.292 0.32-0.489 0.436 2.693 1.438 5.52 3.482 8.133 6.268 8.351 8.903 9.258 18.755 7.296 20.596" clip-path="url(#clipPath12043)" fill="#ffeabe"/>
  <path transform="matrix(1.6141 0 0 -1.6141 493.19 553.6)" d="m-199.96 224.68c0.881-0.828 5.348-0.307 10.717 3.467 4.098 2.881 6.671 6.404 6.181 8.287-3.069-5.023-10.418-9.915-16.898-11.754" clip-path="url(#clipPath12058)" fill="#dacaa5"/>
  <path transform="matrix(1.6141 0 0 -1.6141 493.19 553.6)" d="m-185.49 236.52c3.209 1.316 6.841 3.894 9.859 7.112 6.861 7.314 8.696 15.265 8.045 18.892-0.425-5.085-8.687-19.683-16.288-23.764-1.497-0.804-1.818-1.858-1.616-2.24" clip-path="url(#clipPath12073)" fill="#dacaa5"/>
  <path transform="matrix(1.6141 0 0 -1.6141 493.19 553.6)" d="m-196.1 234.83c-3.91 2.709-1.602 12.719 7.358 21.181 10.101 9.541 18.285 11.285 21.012 8.728 2.522-2.366 1.054-12.516-7.435-21.566-2.909-3.102-7.603-6.017-9.544-6.65-0.961-0.313-1.125 0.162-0.246 0.585 3.298 1.59 6.347 4.039 8.984 6.851 8.18 8.72 9.113 18.243 7.317 19.928-2.084 1.955-10.182-0.01-19.363-8.681-7.549-7.13-10.575-16.44-7.217-19.589 0.526-0.493 1.988-0.752 4.006-0.494 0.962 0.123 1.188-0.424 0.177-0.693-2.324-0.619-4.038-0.3-5.049 0.4" clip-path="url(#clipPath11773)" fill="#0f141b"/>
  <path transform="matrix(1.6141 0 0 -1.6141 493.19 553.6)" d="m-192.17 234.64c-4.684-2.941-8.24-8.543-7.491-9.613 0.338-0.477 4.444-0.508 10.145 3.499 4.869 3.424 6.654 6.984 5.852 8.125-0.191 0.272-0.529 0.45-1.003 0.529 0 0 1.374 0.498 1.55 0.412 0.19-0.094 0.367-0.201 0.464-0.338 1.391-1.978-1.558-6.286-6.28-9.606-5.961-4.191-10.863-4.351-11.607-3.294-1.206 1.72 2.549 7.272 6.865 10.468z" clip-path="url(#clipPath11788)" fill="#0f141b"/>
  <path transform="matrix(1.6141 0 0 -1.6141 493.19 553.6)" d="m-285.53 209.57c1.303-3.501 3.236-6.38 5.983-7.967-0.709-0.749-1.741-2.026-1.346-2.273 0.493-0.308 3.018 0 3.387 0.061 0-0.862-0.246-2.29 0.308-2.586 0.923-0.492 3.325 1.539 3.633 1.909 0.369-0.739 1.421-2.361 1.724-2.278 0.677 0.185 1.97 2.955 2.216 4.679l1.733 0.309 3.576 11.006c-4.808-6.091-15.63-7.798-21.214-2.86" clip-path="url(#clipPath11803)" fill="#ffeabe"/>
  <path transform="matrix(1.6141 0 0 -1.6141 493.19 553.6)" d="m-276.3 202.99c-1.928-0.353-3.76-0.204-5.389 0.276 0.655-0.646 1.365-1.214 2.148-1.666-0.71-0.75-1.741-2.027-1.346-2.274 0.492-0.307 3.017 0 3.386 0.062 0-0.862-0.246-2.291 0.308-2.586 0.924-0.493 3.325 1.539 3.633 1.909 0.369-0.739 1.421-2.361 1.724-2.279 0.677 0.185 1.97 2.956 2.217 4.68l1.733 0.309 3.576 11.006c-1.515-1.92-3.629-3.403-5.987-4.381-1.258-2.861-3.464-4.591-6.003-5.056" clip-path="url(#clipPath11818)" fill="#dacaa5"/>
  <path transform="matrix(1.6141 0 0 -1.6141 493.19 553.6)" d="m-228 258.38-57.171-18.626c-2.552-4.147-4.196-19.872-0.358-30.182 5.584-4.938 16.407-3.231 21.215 2.86l-3.577-11.006 21.315 3.794c6.039-2.338 12.364-3.546 17.468-3.364 4.668 0.167 8.99-3.021 14.777-3.202 3.063-0.096 5.892 0.286 8.458 1.177-1.679-1.865-2.492-4.432-1.57-6.491-0.022-0.449 0.073-0.834 0.316-1.09 0.462-0.486 1.756-0.388 2.604-0.109 0.01-0.107 0.037-0.201 0.105-0.26 0.676-0.579 6.339-0.229 9.052 2.771 4.67 5.165 3.53 12.712 0.411 14.972 1.525 2.872 2.717 6.34 3.529 10.457 3.695 18.719-15.439 38.57-36.574 38.299" clip-path="url(#clipPath11833)" fill="#ed8322"/>
  <path transform="matrix(1.6141 0 0 -1.6141 493.19 553.6)" d="m-194.95 209.62c0.13 0.245 0.772 1.521 0.897 1.776-4.479-6.419-19.039-10.823-29.139-5.542-4.461 2.332-7.758 3.325-12.746 3.233-4.349-0.081-13.207 7.573-16.717 14.592-4.485-1.868-10.925-1.608-15.378 0.416-0.886 0.403-2.43 0.278-3.232-0.369-1.353-1.092 4.518-7.608 0.969-15.679 2.358 0.978 4.472 2.461 5.987 4.381l-3.576-11.007 21.314 3.795c6.039-2.338 12.365-3.547 17.468-3.364 4.669 0.166 8.99-3.021 14.777-3.202 3.063-0.096 5.892 0.286 8.458 1.177-1.679-1.865-2.492-4.432-1.57-6.491-0.022-0.449 0.074-0.834 0.316-1.09 0.449-0.472 1.68-0.391 2.528-0.131 0.78 5.249 7.607 9.951 12.357 11.149-0.1 2.798-1.161 5.231-2.713 6.356" clip-path="url(#clipPath11863)" fill="#ce7228"/>
  <g fill="#0f141b">
   <path transform="matrix(1.6141 0 0 -1.6141 493.19 553.6)" d="m-285.06 238.96c-3.248-6.65-4.805-34.754 8.022-38.091 0.683-0.178 0.592-0.725-0.115-0.555-14.632 3.518-12.322 33.714-8.628 39.715z" clip-path="url(#clipPath11848)"/>
   <path transform="matrix(1.6141 0 0 -1.6141 493.19 553.6)" d="m-269.56 199.28c-0.548-1.605-1.521-3.487-2.286-3.487-0.633 0-1.419 1.415-1.847 2.171-0.87-0.753-2.769-2.242-3.81-1.686-0.814 0.434-0.519 2.143-0.493 2.575-0.901-0.108-2.733-0.325-3.271 0.011-0.903 0.567 0.475 2.133 1.467 3.153l0.754-0.57c-0.535-0.537-1.188-1.344-1.394-1.758 0.493-0.06 1.604 0.017 2.362 0.105 0.92 0.106 1.074-0.028 1.035-0.747-0.036-0.64-0.119-1.644 0.076-1.825 0.421-0.221 2.037 0.864 2.77 1.525 0.725 0.655 0.809 0.614 1.206-0.098 0.346-0.621 0.864-1.373 1.143-1.663 0.476 0.487 1.531 2.608 1.759 4.2z" clip-path="url(#clipPath11878)"/>
   <path transform="matrix(1.6141 0 0 -1.6141 493.19 553.6)" d="m-195.37 209.34c2.985-1.935 4.187-9.367-0.342-14.376-2.519-2.785-7.584-3.074-8.349-2.751 0.026 0.897 2.213 3.747 3.15 4.128 0.739 0.3 0.498 0.813-0.208 0.6-1.922-0.578-4.773-4.614-3.717-5.518 0.998-0.857 7.208-0.145 9.928 2.863 4.958 5.483 3.579 14.308-0.023 16.024z" clip-path="url(#clipPath11893)"/>
   <path transform="matrix(1.6141 0 0 -1.6141 493.19 553.6)" d="m-203.86 191.79c-0.966-0.453-3.058-0.705-3.756 0.031-0.993 1.046 0.01 4.392 2.648 5.849 0.709 0.392 0.993-0.132 0.308-0.523-1.902-1.087-2.804-3.849-2.121-4.57 0.347-0.366 1.942-0.186 2.544 0.197l-6e-3 -0.558z" clip-path="url(#clipPath11908)"/>
   <path transform="matrix(1.6141 0 0 -1.6141 493.19 553.6)" d="m-207.19 194.01c-0.715 2.417 0.97 5.383 3.22 6.833l-2.543-1.04c-1.596-1.961-2.393-4.606-1.276-6.84z" clip-path="url(#clipPath11923)"/>
   <path transform="matrix(1.6141 0 0 -1.6141 493.19 553.6)" d="m-224.58 257.77c19.594-1.752 36.088-20.415 32.695-37.604-2.831-14.342-10.378-21.412-22.427-21.047-5.667 0.178-10.052 3.371-14.809 3.202-12.837-0.445-31.778 7.701-36.773 18.954-0.507 1.141-1.969 2.012-3.363 2.009-1.06-2e-3 -0.816-0.401-0.023-0.531 1.214-0.199 2.191-0.712 2.647-1.847 4.834-12.038 23.886-20.16 37.483-19.673 4.453 0.154 8.93-3.051 14.731-3.232 9.655-0.311 20.159 3.571 23.783 21.935 3.533 17.897-13.654 37.575-34.035 39.022z" clip-path="url(#clipPath12088)"/>
  </g>
  <path transform="matrix(1.6141 0 0 -1.6141 493.19 553.6)" d="m-216.61 293.04c0.722 11.178-6.663 23.829-10.775 23.829-7.867 0-16.738-20.116-15.364-34.735-4.152 1.669-9.014 2.618-14.614 2.618-5.996 0-11.416-1.339-16.04-3.726 0.422 16.418-6.066 36.204-13.239 36.204-5.98 0-13.08-10.534-12.199-24.19 0.573-8.879 6.389-16.917 13.993-22.317-3.294-5.045-5.133-11.161-5.133-17.859 0-16.088 14.582-24.014 32.794-24.014s33.157 7.926 33.157 24.014c0 6.811-1.851 13.479-5.647 18.945 6.858 3.113 12.471 11.999 13.067 21.231" clip-path="url(#clipPath11743)" fill="#ed8322"/>
  <path transform="matrix(1.6141 0 0 -1.6141 493.19 553.6)" d="m-253.37 230.3c0.177-0.766-2.646-1.863-4.556-1.816-2.217 0.053-4.629 1.153-4.572 2.124 0.042 0.726 8.898 0.687 9.128-0.308" clip-path="url(#clipPath11728)" fill="#ce7228"/>
  <path transform="matrix(1.6141 0 0 -1.6141 493.19 553.6)" d="m-241.11 287.96c-4.618-10.252-11.375-13.946-17.364-13.946-7.874 0-14.449 5.591-14.449 13.466 0 7.702 5.306 16.089 14.172 17.659 5.487 0.972 9.689 1.045 12.161 1.632 3.97 0.942 4.496 2.489 6.773 2.432 3.227-0.081 2.135-13.632-1.293-21.243" clip-path="url(#clipPath11758)" fill="#ed8322"/>
  <path transform="matrix(1.6141 0 0 -1.6141 493.19 553.6)" d="m-279.76 289.1c-1.295 6.269-4.579 11.052-7.252 10.5-2.772-0.573-3.265-8.441-2.426-12.499 0.574-2.782 1.594-5.224 2.781-7.043-1.11 3.313-0.59 6.979 1.436 7.873 1.391 0.613 4.221-0.949 6.06-4.071-0.024 1.61-0.216 3.387-0.599 5.24" clip-path="url(#clipPath12103)" fill="#009683"/>
  <path transform="matrix(1.6141 0 0 -1.6141 493.19 553.6)" d="m-228.8 298.83c-2.673 0.552-5.372-3.954-6.667-10.223-0.314-1.52-0.502-2.991-0.573-4.36 1.601 2.906 4.16 4.493 6.16 3.644 2.23-0.947 2.81-4.608 1.295-8.176-0.092-0.215-0.199-0.418-0.301-0.625 1.322 1.856 2.472 4.49 3.097 7.518 0.839 4.059-0.238 11.649-3.011 12.222" clip-path="url(#clipPath12118)" fill="#009683"/>
  <path transform="matrix(1.6141 0 0 -1.6141 493.19 553.6)" d="m-287.02 299.6c-1.484-0.307-2.315-2.704-2.638-5.489 2.398-0.885 4.602-3.148 6.003-6.202 1.425-0.445 3.198-1.862 4.485-4.049-0.023 1.61-0.216 3.387-0.598 5.24-1.295 6.269-4.579 11.052-7.252 10.5" clip-path="url(#clipPath12148)" fill="#008273"/>
  <path transform="matrix(1.6141 0 0 -1.6141 493.19 553.6)" d="m-228.8 298.83c-1.48 0.306-2.967-0.944-4.22-3.181 1.635-2.074 2.624-4.806 2.874-7.667 0.089-0.028 0.179-0.054 0.266-0.091 2.23-0.947 2.81-4.608 1.295-8.176-0.092-0.215-0.199-0.418-0.301-0.625 1.322 1.856 2.472 4.49 3.097 7.518 0.839 4.059-0.238 11.649-3.011 12.222" clip-path="url(#clipPath12163)" fill="#008273"/>
  <path transform="matrix(1.6141 0 0 -1.6141 493.19 553.6)" d="m-280.63 255.67c-4.3 0.099-7.875-3.682-7.984-8.444s3.288-8.703 7.588-8.802c4.301-0.098 7.875 3.682 7.984 8.445 0.11 4.762-3.288 8.702-7.588 8.801" clip-path="url(#clipPath12178)" fill="#fcd24d"/>
  <path transform="matrix(1.6141 0 0 -1.6141 493.19 553.6)" d="m-233.5 255.66c4.191 0.27 7.828-3.236 8.125-7.832s-2.86-8.541-7.051-8.812c-4.19-0.27-7.828 3.236-8.125 7.832-0.296 4.596 2.86 8.541 7.051 8.812" clip-path="url(#clipPath12193)" fill="#fcd24d"/>
  <path transform="matrix(1.6141 0 0 -1.6141 493.19 553.6)" d="m-257.33 257.3c-7.972 0-13.503-3.979-13.503-9.107 0-5.029 6.045-9.106 13.503-9.106s13.503 4.077 13.503 9.106c0 5.172-5.564 9.107-13.503 9.107" clip-path="url(#clipPath12208)" fill="#ffeabe"/>
  <path transform="matrix(1.6141 0 0 -1.6141 493.19 553.6)" d="m-267.69 207.99c-3.226-6.345-2.629-12.42 1.205-16.403-0.806-0.461-2.29-1.702-2.093-2.292 0.185-0.554 3.349-0.111 3.94-0.493 0.478-0.307 0.215-3.849 0.678-4.125 0.723-0.431 4.986 2.309 5.48 2.247 0.739-0.092 3.14-3.109 3.602-3.14 0.573-0.038 0.948 2.278 1.218 3.15 3.176-0.035 8.091 0.408 12.837 4.286 2.652 14.596-14.75 24.565-26.867 16.77" clip-path="url(#clipPath12223)" fill="#ffeabe"/>
  <path transform="matrix(1.6141 0 0 -1.6141 493.19 553.6)" d="m-269.73 201.12c-0.292-3.702 0.837-7.03 3.246-9.532-0.807-0.461-2.29-1.702-2.093-2.292 0.184-0.554 3.349-0.112 3.94-0.493 0.477-0.308 0.215-3.85 0.678-4.125 0.723-0.431 4.986 2.309 5.48 2.247 0.738-0.092 3.14-3.109 3.602-3.14 0.573-0.038 0.948 2.278 1.218 3.149 3.176-0.035 8.091 0.408 12.836 4.286 0.191 1.047 0.267 2.067 0.26 3.062-12.846-6.235-28.288 1.304-29.167 6.838" clip-path="url(#clipPath12238)" fill="#dacaa5"/>
  <path transform="matrix(1.6141 0 0 -1.6141 493.19 553.6)" d="m-227.72 237.35-13.3-6.742c-3.048-0.832-18.102-9.513-25.144-20.027-0.58-0.867-1.084-1.733-1.522-2.594 12.117 7.795 29.519-2.174 26.867-16.77 3.785 3.093 6.776 7.73 9.577 13.491 4.746 9.763 6.57 21.293 3.522 32.642" clip-path="url(#clipPath12253)" fill="#ed8322"/>
  <path transform="matrix(1.6141 0 0 -1.6141 493.19 553.6)" d="m-240.82 191.22c2.245 1.835 4.21 4.217 6.022 7.05-1.814-1.706-3.756-3.015-5.763-3.989 7e-3 -0.994-0.069-2.014-0.259-3.061" clip-path="url(#clipPath12268)" fill="#ce7228"/>
  <path transform="matrix(1.6141 0 0 -1.6141 493.19 553.6)" d="m-272.73 285.12c0.195-1.1 0.628-2.435 1.043-3.279-0.323-0.108-1.57-0.693-1.724-0.801 0-0.431-0.061-2.155-0.143-2.704 4.749-9.079 18.511-9.287 24.865-0.744 1.232 0.8 4.279 4.464 4.649 5.08 0.265 0.347 1.057 1.72 1.642 2.77-9.865-9.269-24.619-6.367-30.332-0.322" clip-path="url(#clipPath12283)" fill="#ce7228"/>
  <g fill="#0f141b">
   <path transform="matrix(1.6141 0 0 -1.6141 493.19 553.6)" d="m-243.58 283.21c0.239-0.086 0.477-0.173 0.712-0.264l0.124-1.473c-0.535 0.222-1.076 0.43-1.622 0.625z" clip-path="url(#clipPath12298)"/>
   <path transform="matrix(1.6141 0 0 -1.6141 493.19 553.6)" d="m-273.31 280.54c0.583 0.304 1.179 0.591 1.787 0.86l-0.562 1.173c-0.419-0.181-0.832-0.37-1.239-0.568z" clip-path="url(#clipPath12313)"/>
   <path transform="matrix(1.6141 0 0 -1.6141 493.19 553.6)" d="m-284.54 270.37c-3.177-4.907-4.968-10.872-4.968-17.498 0-7.424 3.14-13.693 9.263-17.826 1.077-0.727 0.831-1.185-0.277-0.554-6.711 3.818-10.283 10.505-10.283 18.287 0 7.048 1.868 13.322 5.191 18.443z" clip-path="url(#clipPath12328)"/>
   <path transform="matrix(1.6141 0 0 -1.6141 493.19 553.6)" d="m-230.06 271.65c3.456-4.797 5.564-11.022 5.564-18.778 0-6.332-2.222-11.637-6.793-15.67-0.936-0.827-0.514-1.367 0.492-0.585 4.721 3.665 7.515 9.629 7.605 16.224 0.099 7.263-1.85 13.952-5.645 19.357z" clip-path="url(#clipPath12343)"/>
   <path transform="matrix(1.6141 0 0 -1.6141 493.19 553.6)" d="m-256.95 274.43c6.291 0.692 11.769 5.645 15.409 13.725 3.698 8.21 4.06 20.522 1.712 20.576-2.005 0.048-2.908-1.531-6.652-2.419-2.491-0.591-7.501-0.808-12.188-1.637-8.952-1.586-13.782-10.042-13.782-17.194 0-4.995 2.789-9.533 7.419-11.712 1.016-0.478 0.883-1.048-0.153-0.646-5.326 2.067-8.436 6.989-8.436 12.376 0 8.455 5.493 16.696 14.654 18.318 4.063 0.72 10.136 1.045 12.223 1.539 3.899 0.926 5.08 2.709 6.988 2.586 3.512-0.226 3.58-12.731-0.739-22.32-5.41-12.011-13.851-13.847-16.363-13.885-1.056-0.015-1.137 0.578-0.092 0.693" clip-path="url(#clipPath12358)"/>
   <path transform="matrix(1.6141 0 0 -1.6141 493.19 553.6)" d="m-283.55 269.42c-9.486 5.268-15.635 14.731-16.209 23.621-0.936 14.49 6.926 24.891 13.069 24.891 8.557 0 15.891-23.714 13.346-40.962-0.133-0.898-0.739-0.857-0.647 0.031 1.797 17.376-5.52 39.757-12.646 39.757-5.567 0-12.604-10.098-11.727-23.687 0.553-8.561 6.16-17.234 15.114-23.051 0.82-0.532 0.525-1.058-0.3-0.6" clip-path="url(#clipPath12373)"/>
   <path transform="matrix(1.6141 0 0 -1.6141 493.19 553.6)" d="m-286.09 278.48c-1.724 2.03-3.242 5.079-3.942 8.467-0.848 4.109-0.29 12.604 2.925 13.269 2.931 0.606 6.61-4.452 7.974-11.053 0.48-2.326 0.52-4.569 0.43-6.547l-0.935 1.606c-0.047 1.501-0.246 3.127-0.588 4.783-1.215 5.883-4.345 10.629-6.693 10.132-2.238-0.462-2.918-7.786-2.06-11.941 0.478-2.31 1.285-4.477 2.298-6.223z" clip-path="url(#clipPath12388)"/>
   <path transform="matrix(1.6141 0 0 -1.6141 493.19 553.6)" d="m-281.96 274.66c-1.494 0.824-3.044 2.676-3.916 4.654-1.483 3.361-1.074 7.336 0.84 8.182 1.267 0.556 4.448-1.374 6.084-5.084 0.565-1.279 0.871-2.326 1.102-3.203 0.288-1.093 0.656-0.935 0.6 0.184-0.057 1.14-0.343 2.332-0.839 3.456-1.83 4.149-5.501 6.463-7.388 5.634-2.626-1.16-2.865-6.05-1.324-9.544 1.115-2.527 2.786-3.979 4.495-4.81 1.087-0.529 1.45-0.077 0.346 0.531" clip-path="url(#clipPath12403)"/>
   <path transform="matrix(1.6141 0 0 -1.6141 493.19 553.6)" d="m-237.99 305.15c2.978 6.519 6.972 11.248 10.61 11.248 3.515 0 11.043-11.874 10.304-23.326-0.596-9.236-6.19-18.323-13.198-21.18-0.627-0.256-0.463-0.801 0.185-0.585 6.614 2.198 13.699 11.233 14.377 21.735 0.731 11.332-6.697 24.506-11.668 24.506-3.867 0-7.848-4.265-10.878-10.301z" clip-path="url(#clipPath12418)"/>
   <path transform="matrix(1.6141 0 0 -1.6141 493.19 553.6)" d="m-242.56 284.82c0.024-2.52 0.318-4.93 0.939-7.112 0.205-0.72-0.369-0.89-0.6-0.185-0.622 1.903-0.989 3.993-1.136 6.19z" clip-path="url(#clipPath12433)"/>
   <path transform="matrix(1.6141 0 0 -1.6141 493.19 553.6)" d="m-235.55 284.54c0.083 1.272 0.269 2.622 0.548 3.974 1.242 6.012 3.813 10.325 6.109 9.856 2.309-0.478 3.504-7.5 2.644-11.664-0.491-2.376-1.326-4.588-2.364-6.342l-0.847-2.736c1.856 1.984 3.485 5.267 4.233 8.89 0.879 4.251-0.342 12.13-3.475 12.777-3.077 0.634-5.934-4.125-7.269-10.591-0.403-1.95-0.573-3.897-0.575-5.634z" clip-path="url(#clipPath12448)"/>
   <path transform="matrix(1.6141 0 0 -1.6141 493.19 553.6)" d="m-257.3 254.4c-0.321 0-0.481-0.107-0.481-0.25 0-0.126 0.212-0.227 0.473-0.227 0.262 0 0.473 0.101 0.473 0.227 0 0.127-0.14 0.25-0.465 0.25" clip-path="url(#clipPath12463)"/>
   <path transform="matrix(1.6141 0 0 -1.6141 493.19 553.6)" d="m-233.59 274.02c1.598 1.128 3.448 3.248 4.567 5.883 1.318 3.102 1.041 6.672-1.044 7.557-2.023 0.858-4.724-1.307-6.059-4.45-0.636-1.498-1.017-3.168-0.881-4.534 0.081-0.819-0.553-0.889-0.647-0.115-0.19 1.567-0.072 3.299 0.658 5.018 1.572 3.7 4.731 6.111 7.331 5.003 2.398-1.018 3.213-4.844 1.511-8.848-1.249-2.943-3.789-5.412-5.067-6.068-0.895-0.46-1.117 0.026-0.369 0.554" clip-path="url(#clipPath12478)"/>
   <path transform="matrix(1.6141 0 0 -1.6141 493.19 553.6)" d="m-265.87 190.49c-5.919 4.444-5.991 12.737-0.831 20.442 6.57 9.812 19.893 18.119 24.998 19.734 0.91 0.288 1.064-0.222 0.154-0.584-3.857-1.539-17.523-9.756-24.227-19.767-4.85-7.24-4.776-14.885 0.275-19.302 0.815-0.711 0.473-1.155-0.369-0.523" clip-path="url(#clipPath12493)"/>
   <path transform="matrix(1.6141 0 0 -1.6141 493.19 553.6)" d="m-227.32 237.04c-0.201 0.623-0.755 0.472-0.585-0.185 2.665-10.33 1.227-21.678-3.762-31.942-6.904-14.202-13.787-17.52-21.652-17.522-0.679 0-0.724-0.072-0.904-0.746-0.211-0.793-0.454-1.903-0.678-2.308-0.762 0.634-2.684 2.948-3.516 3.051-0.713 0.092-4.133-2.17-5.245-2.289-0.223 0.85-0.031 3.654-0.715 4.095-0.712 0.46-2.602 0.101-3.705 0.334 0.249 0.526 1.68 1.665 2.086 1.767l-0.647 0.738c-0.638-0.345-2.789-1.885-2.443-2.92 0.337-1.014 3.223-0.414 4.145-0.693 0.311-0.862-0.04-3.761 0.681-4.191 1.012-0.605 4.569 1.847 5.752 2.209 0.809-0.355 2.867-3.201 3.646-3.201 0.973 0 1.279 2.11 1.543 3.184 9.445-0.302 16.226 4.721 22.674 17.985 5.182 10.66 6.391 23.109 3.325 32.634" clip-path="url(#clipPath12508)"/>
  </g>
  <path transform="matrix(1.6141 0 0 -1.6141 493.19 553.6)" d="m-269.09 261.73c-2.543 0-4.604-2.061-4.604-4.604s2.061-4.604 4.604-4.604 4.604 2.061 4.604 4.604-2.061 4.604-4.604 4.604" clip-path="url(#clipPath12523)" fill="#5c4043"/>
  <path transform="matrix(1.6141 0 0 -1.6141 493.19 553.6)" d="m-245.65 261.73c2.543 0 4.604-2.061 4.604-4.604s-2.061-4.604-4.604-4.604-4.604 2.061-4.604 4.604 2.061 4.604 4.604 4.604" clip-path="url(#clipPath12538)" fill="#5c4043"/>
  <path transform="matrix(1.6141 0 0 -1.6141 493.19 553.6)" d="m-267.23 260.6c-0.701 0-1.27-0.569-1.27-1.27s0.569-1.27 1.27-1.27 1.27 0.569 1.27 1.27-0.569 1.27-1.27 1.27" clip-path="url(#clipPath12553)" fill="#fff"/>
  <path transform="matrix(1.6141 0 0 -1.6141 493.19 553.6)" d="m-247.51 260.6c0.701 0 1.27-0.569 1.27-1.27s-0.569-1.27-1.27-1.27-1.27 0.569-1.27 1.27 0.569 1.27 1.27 1.27" clip-path="url(#clipPath12568)" fill="#fff"/>
  <path transform="matrix(1.6141 0 0 -1.6141 493.19 553.6)" d="m-271.25 256.49c-0.765 0-1.385-0.62-1.385-1.385 0-0.766 0.62-1.386 1.385-1.386s1.362 0.62 1.362 1.386c0 0.765-0.597 1.385-1.362 1.385" clip-path="url(#clipPath12583)" fill="#ed8322"/>
  <path transform="matrix(1.6141 0 0 -1.6141 493.19 553.6)" d="m-243.49 256.49c0.765 0 1.385-0.62 1.385-1.385 0-0.766-0.62-1.386-1.385-1.386s-1.362 0.62-1.362 1.386c0 0.765 0.597 1.385 1.362 1.385" clip-path="url(#clipPath12598)" fill="#ed8322"/>
  <path transform="matrix(1.6141 0 0 -1.6141 493.19 553.6)" d="m-253.21 246.59 7e-3 1e-3c0.483 1.023 0.772 2.265 0.793 3.663 0.02 1.284-9.757 1.653-9.753 0 3e-3 -1.357 0.272-2.565 0.73-3.571l3e-3 -1e-3c1.837 1.696 6.422 1.869 8.22-0.092" clip-path="url(#clipPath12613)" fill="#91331e"/>
  <path transform="matrix(1.6141 0 0 -1.6141 493.19 553.6)" d="m-253.21 246.59c-1.798 1.961-6.383 1.788-8.22 0.092l-3e-3 1e-3c0.858-1.887 2.389-3.049 4.147-3.049 1.728 0 3.219 1.124 4.083 2.957z" clip-path="url(#clipPath12133)" fill="#ed8499"/>
  <path transform="matrix(1.6141 0 0 -1.6141 493.19 553.6)" d="m-254.14 245.16c0.279 0.356 0.721 0.987 0.931 1.432h-7e-3c-1.798 1.961-6.383 1.788-8.22 0.092l-4e-3 1e-3c0.238-0.524 0.532-0.985 0.865-1.387 1.773 1.089 4.865 1.063 6.435-0.138" clip-path="url(#clipPath12628)" fill="#cf7486"/>
  <g fill="#0f141b">
   <path transform="matrix(1.6141 0 0 -1.6141 493.19 553.6)" d="m-252.88 250.26v-1e-3zm-8.813-0.03c0.013-3.481 1.906-6.124 4.409-6.124 2.48 0 4.324 2.551 4.403 6.077-0.965 0.86-8.271 0.995-8.812 0.047m9.717 0.053c-0.06-3.967-2.295-7.122-5.308-7.122-1.736 0-5.27 1.735-5.283 7.122 0 0.257 0.041 0.593 0.56 0.89 1.757 1.007 8.007 0.766 9.542-0.139 0.444-0.262 0.492-0.536 0.489-0.751" clip-path="url(#clipPath12643)"/>
   <path transform="matrix(1.6141 0 0 -1.6141 493.19 553.6)" d="m-269.09 261.26c-2.278 0-4.131-1.853-4.131-4.131 0-2.279 1.853-4.132 4.131-4.132s4.132 1.853 4.132 4.132c0 2.278-1.854 4.131-4.132 4.131m0-9.208c-2.799 0-5.076 2.278-5.076 5.077s2.277 5.076 5.076 5.076 5.077-2.277 5.077-5.076-2.278-5.077-5.077-5.077" clip-path="url(#clipPath12658)"/>
   <path transform="matrix(1.6141 0 0 -1.6141 493.19 553.6)" d="m-245.65 261.26c-2.278 0-4.131-1.853-4.131-4.131 0-2.279 1.853-4.132 4.131-4.132s4.131 1.853 4.131 4.132c0 2.278-1.853 4.131-4.131 4.131m0-9.208c-2.799 0-5.076 2.278-5.076 5.077s2.277 5.076 5.076 5.076 5.076-2.277 5.076-5.076-2.277-5.077-5.076-5.077" clip-path="url(#clipPath12673)"/>
   <path transform="matrix(1.6141 0 0 -1.6141 493.19 553.6)" d="m-253.12 247.02c-2.092 1.938-6.527 1.94-8.528-0.092l0.493-0.555c1.662 1.535 6.026 1.693 7.635-0.061z" clip-path="url(#clipPath12688)"/>
  </g>
 </g>
</svg>
