<?xml version="1.0" encoding="UTF-8"?>
<!-- Created with Inkscape (http://www.inkscape.org/) -->
<svg version="1.1" viewBox="0 0 212.97 305.81" xmlns="http://www.w3.org/2000/svg">
 <g transform="translate(-11.715 23.702)">
  <path d="m197.47 179.15c-2.2672-3.7405-12.179-2.0298-22.734 8.5253l5.6835 36.943c8.1194-4.0597 25.17-32.071 17.051-45.468" fill="#ffeabe"/>
  <path d="m179.42 218.13 0.99834 6.4903c6.4724-3.235 18.603-21.682 19.157-35.822-4.1975 9.9984-12.005 22.489-20.155 29.332" fill="#dacaa5"/>
  <path d="m164.18 161.83c-7.3074-8.39-115.21-21.902-124.02-13.938-10.844 11.464-19.788 34.124-22.691 56.276-8.9414 28.869-1.6775 47.184 10.581 56.988 0.12514 0.10203 0.25021 0.18671 0.37534 0.28587-2.9566 1.4222-5.5712 4.7542-5.6197 9.0947-0.57958 1.4349-0.61787 2.6885-0.16849 3.1379 0.4902 0.48998 6.5159 0.64053 8.5865 0.16358 2.9388 1.0903 12.536 0.53847 16.719-4.1567 0.16595-0.13534 0.23493-0.30904 0.23746-0.5059 13.782 0.86807 26.865-5.8188 39.141-4.772 22.405 1.9124 41.128 5.2622 56.391 3.5617 2.4511 6.567 14.012 6.3652 15.123 5.3465 2.8444 1.1005 8.4308 1.4094 8.9006-0.28081 0.16356-0.58696 0.17586-1.2 0.0788-1.8128 0.33944-3.3882-1.6085-7.3048-4.9864-9.5899 1.1107-0.72013 2.1958-1.5039 3.2502-2.3669 24.473-20.022 20.602-68.506-1.8945-97.432" fill="#ed8322"/>
  <path d="m154.97 247.89c-24.358 21.11-66.984 11.096-68.067-6.4955-5.6835 14.344-50.61 22.734-66.443 0.47477-4.6009-15.09-4.4656-26.863-2.8418-37.757l-0.16082 0.0434v6e-3c-8.9414 28.869-1.6775 47.184 10.581 56.988 0.12513 0.10204 0.2502 0.18673 0.37533 0.28589-2.9567 1.4222-5.5712 4.7542-5.6197 9.0947-0.57958 1.4349-0.61787 2.6885-0.16849 3.1379 0.49021 0.48998 6.5159 0.64053 8.5865 0.16357 2.9388 1.0903 12.536 0.53847 16.719-4.1566 0.16596-0.13534 0.23493-0.30903 0.23746-0.50807 13.782 0.87061 26.865-5.8163 39.141-4.7695 22.405 1.9098 41.128 5.2622 56.391 3.5592 2.4511 6.5695 14.012 6.3678 15.123 5.349 2.8444 1.1005 8.4308 1.4094 8.9006-0.28083 0.16356-0.58695 0.17586-1.2 0.0788-1.8128 0.33944-3.3882-1.6085-7.3048-4.9839-9.5899 1.1081-0.72229 2.1932-1.5039 3.2477-2.3669 5.7014-4.6647 9.8453-10.887 12.593-18.034-6.9652 5.2673-17.699 7.3048-23.689 6.6666" fill="#ce7228"/>
  <path d="m215.34 19.866c-3.9856-3.2069-49.15 2.8239-60.65 64.944-8.7295-8.3746-19.874-14.985-32.74-18.723-10.555-3.0664-21.064-3.863-30.95-2.7575 16.507-43.775 3.1813-85-8.2929-85-16.149 0-38.973 23.224-38.973 51.963 0 18.657 6.8044 35.521 15.033 44.934-10.611 7.4197-18.562 17.811-22.165 30.22-10.673 36.733 9.4036 62.345 52.272 74.8 42.32 12.294 74.12 7e-3 84.323-35.117 3.0844-10.619 2.6835-21.572-0.55149-31.898 15.378-5.492 31.367-17.362 39.971-29.893 12.45-18.133 13.604-54.713 2.7217-63.473" fill="#ed8322"/>
  <path d="m196.65 51.945c-2.9209-1.6366-12.953 2.4026-21.922 18.404-1.9941 3.5541-3.5336 7.0879-4.6443 10.412 6.3218-6.7099 13.376-6.5312 16.823-3.1048 3.1865 3.1686 0.81191 12.585-6.6997 18.067-1.8817 1.3736-3.6434 2.446-5.3082 3.3039 5.6579-1.9685 14.239-9.2044 19.923-17.919 6.8861-10.56 6.9755-26.278 1.8281-29.163" fill="#009683"/>
  <path d="m74.66 16.761c-4.1005-0.18384-11.883 8.5917-14.393 25.195-1.4145 9.3653 0.50807 17.765 3.6103 22.555-0.74299-2.0783-1.2536-4.4401-1.2536-6.9397 0-8.8265 3.6843-16.453 8.178-16.453 3.5592 0 7.5882 5.1601 8.9312 12.437 0.72768-3.2452 1.2179-6.8503 1.389-10.667 0.79661-17.793-2.2673-25.941-6.4622-26.127" fill="#009683"/>
  <path d="m196.65 51.945c-1.8511-1.0366-7.5218 0.27069-13.295 6.6308 3.9575 2.8417 3.0945 12.286 1.8026 17.801 6.1124 2.5992 2.9311 13.593-4.9508 19.346-1.8817 1.3736-3.6434 2.446-5.3082 3.3039 5.6579-1.9685 14.239-9.2044 19.923-17.919 6.8861-10.56 6.9755-26.278 1.8281-29.163" fill="#008273"/>
  <path d="m74.66 16.761c-2.229-0.09988-7.1057 3.5184-10.555 11.367 3.5184 0.27069 6.9678 6.2248 6.6971 12.991 3.5592 0 7.5882 5.1601 8.9312 12.437 2.9464-13.147 2.2571-36.468-5.0733-36.795" fill="#008273"/>
  <path d="m129.18 147.93c-3.1176 10.604-15.843 14.885-33.476 9.6998-16.931-4.9788-25.928-15.861-22.869-26.268 2.903-9.8657 17.868-14.153 33.424-9.5772 15.559 4.5754 25.821 16.279 22.92 26.145" fill="#ffeabe"/>
  <path d="m66.587 129.95c-1.1668 10.33-8.87 17.942-17.209 16.999-8.3363-0.94211-14.365-10.267-13.2-20.597 1.32-11.686 9.0844-17.753 17.426-16.81 9.4112 1.0621 14.071 10.782 12.983 20.408" fill="#fcd24d"/>
  <path d="m135.39 148.25c-5.1499 9.0308-3.4162 19.721 3.8708 23.878 7.2895 4.1541 17.658 0.18094 22.808-8.8495 5.8265-10.218 3.1354-19.696-4.1567-23.852-8.2291-4.6929-17.725 0.4111-22.522 8.824" fill="#fcd24d"/>
  <g fill="#ce7228">
   <path d="m89.665 181.64c3.1022 0.84773 9.4215-1.0775 9.3984-2.3745-0.0145-1.2486-5.0937-3.4698-8.3848-4.1976-5.5712-1.2281-8.0197-0.93704-8.3976-0.49288-1.1975 1.3992 3.5005 6.0027 7.384 7.0648"/>
   <path d="m107.24 205.92c-6.6716 4.4299-27.279 2.2265-31.384-2.3183 3.3218 7.8665 6.3652 16.65 8.9542 26.296 1.0724 3.9882 1.7336 7.6623 2.0375 11.048 0.7839-3.4494 1.9813-7.1287 3.646-11.048 2.0835-4.8971 8.6121-14.551 16.747-23.977"/>
   <path d="m170.54 113.86c15.82-5.2392 33.207-17.587 42.085-30.516 0.77615-1.1285 1.5064-2.3285 2.1932-3.5898-10.609 10.938-26.436 24.817-41.454 30.2-2.3668 0.84766-3.1506 2.6835-2.8239 3.9065"/>
   <path d="m62.515 78.942c0.55403 0 1.1847-1.6238-0.43918-3.1813-6.4035-6.1329-16.724-25.864-18.148-49.806-1.486 18.588 5.4946 42.013 18.588 52.987"/>
  </g>
  <g fill="#0f141b">
   <path d="m60.755 78.367c-8.3184-6.9626-19.182-24.212-19.182-48.412 0-29.686 24.777-53.695 41.138-53.656 13.974 0.03616 28.801 47.549 6.7661 93.239-0.7915 1.6391-2.3489 0.93957-1.6238-0.71218 20.39-46.433 5.3414-89.458-5.1422-89.458-14.921 0-37.933 21.868-37.933 50.927 0 21.297 8.6274 38.914 17.094 46.854 1.7056 1.5983 0.66636 2.7089-1.1158 1.2179"/>
   <path d="m171.69 112.67c15.516-5.3337 31.425-17.313 40.078-29.919 11.985-17.454 13.68-53.424 2.9286-62.077-3.7303-2.995-49.533 3.8911-59.856 67.84-0.30398 1.8869-1.7643 1.5907-1.5218-0.30399 8.6274-66.984 58.334-73.61 63.027-69.826 11.431 9.1993 11.441 46.553-2.0298 66.172-8.898 12.96-26.173 25.154-42.322 29.635-1.8 0.50011-2.0808-0.91151-0.30397-1.5218"/>
   <path d="m80.019 56.668c1.1822-4.1133 2.3388-8.9185 2.5583-13.79 0.76087-17.045-2.4179-27.493-7.9176-27.741-5.1729-0.22943-13.374 10.313-15.833 26.592-1.8128 11.998 2.0783 21.787 6.0767 25.737l-1.4707-5.9465c-2.132-4.7158-3.3013-11.707-2.1371-19.407 2.4537-16.246 9.9525-24.503 13.318-24.314 3.2732 0.14837 6.235 7.9482 5.4716 25.045-0.1302 2.9107-0.45191 5.7729-0.94725 8.4691z"/>
   <path d="m67.302 71.719c-2.4383-2.6043-5.8878-8.0121-5.8878-14.158 0-9.6462 4.3584-17.76 9.4393-17.76 6.7048 0 12.365 14.29 9.6257 23.173-0.53109 1.7209-1.5166 1.5626-1.2511-0.27069 1.6417-11.41-4.3405-20.546-8.4231-20.546-3.8069 0-7.1414 7.2027-7.1414 15.414 0 5.6095 2.6324 11.015 4.6035 13.233 1.0902 1.2306 0.14809 2.1038-0.96512 0.91403"/>
   <path d="m173.95 100.39c6.2836-1.4272 16.119-9.5388 22.029-18.603 7.0852-10.864 7.3814-27.713 1.4222-31.058-3.927-2.1933-14.824 3.263-23.615 18.945-2.3822 4.2537-4.2179 8.8469-5.3822 12.965l2.9975-2.5481c1.0877-3.0383 2.5277-6.1788 4.2384-9.2325 8.8853-15.848 18.337-19.234 20.508-18.005 4.481 2.5098 4.5295 17.393-2.1881 27.69-3.6128 5.5405-8.2444 10.269-12.47 13.486z"/>
   <path d="m167.78 100.85c3.9396-0.84 7.7031-2.9592 11.821-5.9644 7.2691-5.3031 9.0818-14.002 6.5771-16.489-3.8936-3.8732-13.471-3.023-20.125 9.1585-0.83493 1.5319-1.9864 0.863-1.2179-0.76088 5.6453-11.926 16.874-16.126 22.938-10.101 3.6792 3.6613 1.7132 13.775-6.9524 20.097-4.3558 3.1788-8.39 5.0656-12.687 5.4792-2.0911 0.20409-2.3081-1.0034-0.35464-1.4196"/>
   <path d="m17.408 208.01c-8.3516 30.644 3.092 45.787 11.283 52.336 20.888 16.708 40.27 1.4451 58.709 3.0256 33.958 2.8979 60.453 9.4546 78.012-4.9125 23.155-18.945 20.405-64.707-0.26272-93.589-0.3597-0.503 1.4911-2.3336 1.9022-1.7719 22.782 31.254 24.843 77.33 0.16865 97.518-18.184 14.875-45.031 8.2598-80.041 5.2775-17.919-1.5524-38.605 13.948-60.353-3.4519-9.161-7.3278-23.278-24.424-9.0691-62.991z"/>
   <path d="m182.04 225.29c7.8487-4.1949 26.194-33.085 17.456-47.498-3.0026-4.9584-14.998-0.74814-23.275 6.6307l0.72012 2.5608c9.8913-9.2044 18.049-9.9218 19.637-7.3022 7.1516 11.799-6.4367 35.791-14.576 42.603z"/>
   <path d="m30.043 261.93c-3.2426 0.88342-5.3669 4.1286-5.9337 6.4188l-2.1651 4.4937c-1.0341-5.8316 2.1243-10.524 6.1329-12.391z"/>
   <path d="m32.371 274.82c-1.8485 0.67381-9.9883 0.90637-10.895 0-1.6622-1.6647 0.95491-7.2333 4.5677-9.0997 1.6877-0.87321 2.2213 0.0869 0.70978 1.1157-2.7498 1.8715-3.8477 5.7576-3.5516 6.0895 0.29869 0.33221 5.4767 0.27287 7.3533-0.0144z"/>
   <path d="m49.422 270.29c-5.6605 6.3576-20.638 6.3193-20.638 3.1813 0-3.4648 4.1286-7.1057 6.6997-8.0529l1.3762 1.4196c-1.9354 0.43643-5.9976 4.8332-5.469 5.9669 0.43918 0.93705 11.576 0.89109 15.766-3.8145z"/>
   <path d="m144.65 267.58c1.9533 5.252 11.053 5.7703 13.412 4.9762 0.57176-1.92-2.6554-6.3933-4.3073-6.8452l2.1498-0.79664c2.995 2.1294 5.566 6.4903 4.1618 9.0819-1.1898 2.1983-15.381 2.0018-17.811-6.0894z"/>
   <path d="m159.32 272.4c2.5686 0.9702 6.8912 0.9804 7.4299 0.30399 0.53341-1.9481-1.029-4.795-3.1506-6.2018-1.4401-0.95493-1.0597-2.0962 0.71-1.2179 3.0537 1.5166 5.5788 5.2214 4.7362 8.2546-0.82978 2.9976-9.7125 1.6877-12.279 0.35463z"/>
   <path d="m155.31 82.671c-8.967-8.15-20.224-14.513-32.947-18.21-10.103-2.9337-20.485-3.863-30.447-2.9387l-1.0315 2.903c9.9347-1.1464 20.428-0.34958 30.784 2.6579 12.649 3.6741 23.888 10.325 32.702 18.861z"/>
   <path d="m174.79 112.45c3.2834 10.512 2.755 25.704-0.54643 37.065-4.098 14.112-11.125 21.434-22.349 27.299-2.2162 1.1592-3.0715-0.11725-0.91404-1.5218 10.198-6.6384 16.405-13.07 20.331-26.592 3.1226-10.744 3.5746-25.433 0.34451-35.526z"/>
   <path d="m59.339 76.039c-10.318 7.1772-19.024 21.154-22.629 33.557-4.8256 16.614-2.64 27.488 5.0682 39.614 1.4222 2.2366 0.20424 3.0332-1.32 0.9115-8.6555-12.046-11.699-23.926-6.6767-41.204 3.8477-13.246 12.85-27.631 23.429-35.048z"/>
   <path d="m105.9 126.72c-0.12231 0.40603-0.80684 0.56671-1.5396 0.35465-0.73027-0.21207-1.2281-0.71508-1.1107-1.1209 0.15343-0.5334 0.85019-0.70202 1.5472-0.5001 0.73019 0.21205 1.2613 0.73787 1.103 1.2664"/>
   <path d="m161.62 262.07c2.732 1.5805 5.0937 4.8716 5.109 7.241l2.2698 2.806c0.74301-4.0341-1.6162-8.8215-5.4308-11.418l-2.0656 1.3021"/>
  </g>
  <path d="m90.905 114.18c0 5.0886-4.1209 9.2785-9.2095 9.2785-5.086 0-9.2172-4.1899-9.2172-9.2785 0-5.0886 4.126-9.2121 9.2146-9.2121 5.0861 0 9.2121 4.1235 9.2121 9.2121" fill="#5c4043"/>
  <path d="m123.36 123.94c-2.5737 4.389-1.1413 10.088 3.2478 12.664 4.389 2.5737 10.07 1.0468 12.646-3.3421 2.5736-4.3864 1.103-10.032-3.2861-12.608-4.389-2.5737-10.034-1.103-12.608 3.2861" fill="#5c4043"/>
  <path d="m89.099 110.96c0 1.5702-1.2485 2.8239-2.8188 2.8239-1.5702 0-2.8647-1.2537-2.8647-2.8239 0-1.5703 1.2715-2.8418 2.8418-2.8418 1.5703 0 2.8417 1.2716 2.8417 2.8418" fill="#fff"/>
  <path d="m126.54 122.07c-0.7941 1.3533-0.35246 3.069 1.0009 3.8631 1.3557 0.79404 3.1073 0.36478 3.9013-0.98813 0.79402-1.3532 0.33943-3.0945-1.0136-3.8886-1.3532-0.79402-3.0946-0.33944-3.8886 1.0136" fill="#fff"/>
  <path d="m78.913 116.75c0 1.5652-1.2051 2.8367-2.6886 2.8367-1.486 0-2.6911-1.2715-2.6911-2.8367 0-1.5651 1.2128-2.7575 2.6988-2.7575 1.486 0 2.6809 1.1924 2.6809 2.7575" fill="#ed8322"/>
  <path d="m132.4 132.22c-0.79158 1.3507-0.39589 3.0563 0.88593 3.8069 1.2792 0.75067 2.9617 0.26561 3.7532-1.0851 0.7941-1.3507 0.34958-2.9924-0.9319-3.7456-1.2818-0.75067-2.9158-0.32714-3.7073 1.0238" fill="#ed8322"/>
  <path d="m93.45 138.65c0.89109 3.3422 3.0409 5.9567 6.0614 6.8324 2.9898 0.87068 6.2298-0.13244 8.7703-2.423-0.99573-3.6971-10.33-7.9227-14.832-4.4095" fill="#ed8499"/>
  <path d="m93.45 138.65c0.19396 0.73019 0.73533 2.2264 1.3175 3.1124 3.2987-1.4707 8.7295 0.17878 10.734 3.1481 0.73534-0.3293 2.1065-1.1847 2.7805-1.8511-0.76087-3.3754-10.152-8.0606-14.832-4.4095" fill="#cf7486"/>
  <path d="m112.02 137.31c0.69697-2.0349-18.268-7.3022-18.646-5.6222-0.55367 2.4435-0.48998 4.846 0.07385 6.9601 4.5805-3.5746 13.9 0.81705 14.832 4.412 1.6085-1.4503 2.9388-3.4111 3.7405-5.7499" fill="#91331e"/>
  <g fill="#0f141b">
   <path d="m81.692 106.01c-4.5065 0-8.1755 3.6665-8.1755 8.1754 0 4.5422 3.669 8.2393 8.1806 8.2393 4.5039 0 8.1704-3.6971 8.1704-8.2393 0-4.509-3.669-8.1754-8.1755-8.1754m0.0051 18.493c-5.6554 0-10.256-4.629-10.256-10.318 0-5.6529 4.5984-10.251 10.251-10.251 5.6529 0 10.251 4.5984 10.251 10.251 0 5.6886-4.5958 10.318-10.246 10.318"/>
   <path d="m124.25 124.46c-2.2443 3.8247-1.08 8.921 2.8775 11.242 3.9397 2.3133 8.9874 0.84514 11.224-2.9694 2.2826-3.8886 0.97272-8.9057-2.9132-11.188-3.6614-2.1448-8.7678-1.2103-11.188 2.9158m1.8281 13.032c-5.1218-3.0026-6.3422-9.4368-3.6179-14.084 2.8596-4.8741 9.1559-6.5133 14.027-3.6536 4.8766 2.8596 6.5159 9.1534 3.6563 14.027-2.8035 4.7797-9.0487 6.6537-14.066 3.7099"/>
   <path d="m94.291 132.38c-1.0826 5.6146 1.2842 10.877 5.5099 12.105 4.2512 1.2333 9.1764-1.9659 11.119-7.1771-1.7898-1.6214-13.859-5.2112-16.629-4.9278m4.9073 14.222c-5.8827-1.7107-7.864-9.2376-6.9346-14.413 0.26562-1.4707 0.71-1.8996 2.3669-1.8358 3.8477 0.15054 13.522 2.8111 16.987 4.9456 1.3788 0.84766 1.5728 1.509 1.0468 2.8775-2.6503 6.8937-8.7857 9.7866-13.466 8.4257"/>
   <path d="m108.88 142.65c-1.2842-4.4988-11.04-8.7575-15.968-4.5345l0.743 1.389c4.1873-3.429 12.743 0.64052 13.67 3.6537z"/>
  </g>
  <path d="m114.85 87.805c-19.647-8.321-23.806-38.25 1.1872-56.843 11.676-8.6861 28.52-11.122 43.673-5.4742 11.433 4.2639 19.89-3.0613 23.411-0.06517 3.1788 2.7065 5.8418 26.293-17.592 48.986-15.286 14.801-33.848 20.525-50.679 13.397" fill="#ed8322"/>
  <path d="m86.549 238.34c-20.554-18.894-55.791-6.0844-58.043 17.891 6.3474 8.0478 14.702 12.963 23.732 14.211-0.96512 1.6928-1.869 5.1371-0.92172 5.6631 1.2179 0.6767 8.9312-3.7201 9.6078-3.8554 0.40596 1.4885 0.94725 5.8852 2.3669 6.3601 2.1192 0.70495 7.3763-7.4427 7.5116-7.8487 1.2179 1.3532 5.0069 4.8716 6.6308 3.9243 1.7898-1.0443 0.41869-5.4129-0.99832-8.0963 8.0989-4.9304 12.064-14.222 10.113-28.249" fill="#ffeabe"/>
  <path d="m145.51 263.36c-2.8724-28.206-39.08-39.33-58.267-24.041-3.0715 11.799-1.2843 20.919 4.4299 26.952-1.897 2.2034-3.7047 5.5482-3.2069 6.046 0.61012 0.61014 6.5644-0.33726 8.5942-0.87826-1.4451 2.5252-2.3694 5.3439-2.0987 5.6146 0.8119 0.8119 9.9474-1.4886 11.842-1.9609 1.6239 2.0962 5.7499 5.7499 6.4955 5.8188 0.70204 0.0652 2.3668-2.7677 2.8928-6.1584 14.252 0.11002 22.936-4.1158 29.319-11.393" fill="#ffeabe"/>
  <g fill="#dacaa5">
   <path d="m86.63 241.96c-5.5737 11.758-37.469 19.195-56.789 8.2342-0.67403 1.9174-1.1387 3.9294-1.3353 6.0333 6.3499 8.0452 14.702 12.963 23.732 14.211-0.96512 1.6928-1.869 5.1371-0.92172 5.6631 1.2179 0.67671 8.9312-3.7201 9.6078-3.8554 0.40595 1.4886 0.94724 5.8852 2.3694 6.3601 2.1166 0.70494 7.3738-7.4427 7.5091-7.8486 1.2179 1.3532 5.0069 4.8716 6.6308 3.9243 1.7898-1.0443 0.41869-5.4129-0.99831-8.0989 4.675-2.8418 7.961-7.1491 9.5389-12.97-0.42383-3.4878-0.21959-7.3815 0.65645-11.653"/>
   <path d="m86.881 241.45c-0.01446-0.16575-0.01446-0.32425-0.03616-0.49289-0.07674 0.33727-0.14837 0.67383-0.21712 1.0086 0.08176-0.17369 0.18166-0.34233 0.25041-0.51603"/>
   <path d="m143.55 255.1c-24.302 10.862-55.717 1.3712-56.646-13.701-0.0068 0.0145-0.01446 0.0362-0.02893 0.0506-0.88088 2.1805-3.6996 15.858 4.7899 24.823-1.897 2.2035-3.7047 5.5482-3.2069 6.0461 0.60795 0.60796 6.5618-0.33943 8.5917-0.88087-1.4426 2.5277-2.3669 5.3465-2.0962 5.6171 0.8119 0.81198 9.9449-1.4885 11.839-1.9634 1.6239 2.0987 5.7525 5.7524 6.4955 5.8188 0.70204 0.0652 2.3694-2.7677 2.8954-6.1584 14.252 0.11001 22.936-4.1158 29.319-11.393-0.30108-2.9464-0.98552-5.6988-1.9557-8.2623"/>
  </g>
  <path d="m166.39 73.563c-27.424 12.404-62.542 2.612-66.762-19.047-4.412 17.651 3.5132 32.161 15.427 36.131 15.85 5.2852 35.947 0.30107 51.335-17.084" fill="#ce7228"/>
  <g fill="#0f141b">
   <path d="m128.55 89.937c12.187 0.33728 25.124-5.4946 36.253-16.274 23.423-22.68 20.038-45.414 17.643-47.449-2.8265-2.4102-11.635 4.5243-23.102 0.24753-14.597-5.441-30.953-3.3958-42.69 5.3337-13.484 10.032-22.553 28.481-13.713 44.306 1.1643 2.0834 0.0767 2.6987-1.2178 0.67671-8.0478-12.564-5.4818-33.207 13.226-47.128 10.126-7.5295 26.49-12.079 45.121-5.1345 11.423 4.2562 19.869-4.1439 24.131-0.51314 3.8477 3.2732 6.1303 28.52-17.658 51.558-14.117 13.667-28.4 16.798-37.89 16.001-2.64-0.22219-2.7089-1.6954-0.10204-1.6239"/>
   <path d="m75.165 266.44 1.8792-1.1745c1.3404 2.2417 4.0469 8.7193 1.0647 10.453-2.0656 1.2154-5.5201-1.8536-7.1542-3.4494-3.2375 5.0758-6.2299 8.2214-8.0682 7.6112-1.823-0.60795-2.2622-4.6699-2.589-6.2938-4.3048 2.2469-8.2521 4.4325-9.7432 3.6052-2.0605-1.1439 0.03548-6.0818 0.93192-7.5117l1.9583 0.82474c-0.78129 0.88086-1.5754 3.6078-1.4988 4.6137 1.6851-0.29602 5.6937-2.5073 7.7184-3.4596 1.6239-0.76602 2.0834-0.56959 2.4332 1.0672 0.33191 1.56 0.91151 4.5295 1.5447 4.9099 1.0519-0.0289 4.3839-4.3558 5.7397-6.4826 1.149-1.8026 1.3788-1.8945 2.7013-0.54354 1.9609 2.0017 4.3201 3.4877 4.8256 3.1813 0.79915-0.46248 0.17109-4.2052-1.7439-7.3508"/>
   <path d="m92.493 266.9c-1.2766 1.4707-2.4996 3.5107-2.9209 4.5856h0.0068c1.2894 0 4.006-0.3655 5.9797-0.76856 2.543-0.51821 2.9183 0.17588 1.9456 2.063-0.71218 1.3762-1.1873 2.6401-1.4094 3.4035 1.0085-0.0506 3.4699-0.38576 9.3908-1.8358 1.5472-0.38069 1.6647-0.40603 2.5839 0.66151 1.5396 1.7796 4.1439 4.0545 5.155 4.7235 0.57465-0.70493 1.6239-2.8111 1.9711-5.3848l2.0886 0.13244c-0.33944 3.1814-2.1167 7.6291-4.0112 7.6291-1.1719 0-4.8741-3.7711-6.7993-5.9873-10.999 2.7217-11.901 2.4077-12.432 1.8766-0.77876-0.77615 0.45669-3.4852 1.269-5.2264-2.5404 0.48275-6.8605 1.2588-7.7644 0.35464-1.2281-1.228 1.3609-5.206 3.3499-7.5193 0.207-0.24246 1.7541 1.1081 1.5932 1.292"/>
   <path d="m86.25 257.56c-2.5864 5.6095-6.8989 9.1406-11.793 10.696-2.2341 0.70711-2.635-0.25766-0.49534-1.2945 5.5839-2.7115 9.2836-7.2129 10.979-13.341z"/>
   <path d="m88.012 236.08c-1.869-10.708-12.539-46.982-30.401-64.742-1.8051-1.7924-2.8341-1.0392-1.2179 0.8119 17.377 19.933 28.479 56.924 29.472 69.41z"/>
   <path d="m40.907 148.6c-10.696 11.306-19.754 34.05-22.543 56.593-2.5762 20.832 1.5268 38.998 11.556 51.147 7.7184 9.3474 16.897 13.144 25.448 13.609 1.6468 0.0891 1.7541 1.1311-0.05862 1.2179-4.2639 0.2041-16.668-0.76602-27.235-13.159-10.961-12.856-15.266-31.336-12.618-52.742 2.8392-22.949 12.707-47.094 23.681-58.696z"/>
   <path d="m115.76 275.46c21.008 1.1157 31.818-7.5754 40.699-26.692 10.568-22.747 10.575-49.627 4.4656-70.842-0.51821-1.8001-1.9303-1.5014-1.5217 0.30397 4.2971 19.093 4.8869 47.026-5.4716 69.32-7.767 16.719-16.959 26.692-38.002 26.523-2.3208-0.0217-2.0374 1.2868-0.16862 1.3864"/>
   <path d="m92.725 266.23c-7.8104-7.5397-8.0095-20.099-1.2766-35.929 3.738-8.7857 20.988-32.01 36.394-42.693 1.5983-1.1107 0.84513-2.275-0.8119-1.2868-16.747 9.9806-34.167 33.838-38.163 42.762-7.5091 16.78-6.5618 30.989 2.7065 38.161 1.583 1.223 3.0179 0.78895 1.1515-1.0137"/>
  </g>
 </g>
</svg>
