<?xml version="1.0" encoding="UTF-8"?>
<!-- Created with Inkscape (http://www.inkscape.org/) -->
<svg version="1.1" viewBox="0 0 285.7 364.27" xmlns="http://www.w3.org/2000/svg">
 <g transform="translate(35.88 66.418)">
  <path d="m25.036 260.62c1.0224 1.4819 6.2219 3.5627 18.431 3.5214 8.3776-0.0285 19.995-1.2728 26.79-5.2047-18.142-1.8149-29.607-6.7718-34.466-11.922-9.8492 5.832-12.56 10.99-10.755 13.605" fill="#d5a756"/>
  <path d="m184.54 275.91c-8.1298 4.8278-19.208 7.9361-31.615 8.1633 3.7254 4.9672 13.11 8.5273 21.245 10.52 11.594 2.8398 19.528 2.5326 21.844-0.21172 2.9251-3.4646-3.0825-15.185-11.473-18.472" fill="#f7c064"/>
  <path d="m192.73 282.43c-2.1454-2.7831-4.993-5.2692-8.1943-6.5239-8.1323 4.8278-19.21 7.9361-31.615 8.1633 3.1213 4.1617 10.211 7.3294 17.21 9.4232 4.1359-7.221 16.283-12.467 22.6-11.063" fill="#d5a756"/>
  <path d="m247.83 164.61c-2.0653-8.5247-40.331-1.9672-66.739 18.423 4.6367 7.239 14.264 28.61 15.624 40.855 27.792-1.3606 40.23-18.268 38.093-23.323-0.65058-1.5361-5.8501-2.5146-11.132-1.8511 14.042-9.1469 26.338-25.094 24.154-34.104" fill="#ffeabe"/>
  <path d="m196.09 220.05c0.27882 1.3502 0.49325 2.6359 0.62497 3.8338 29.782-1.4587 41.361-20.493 37.737-23.783-4.8458 11.525-21.859 17.372-38.361 19.949" fill="#dacaa5"/>
  <path d="m247.83 164.61c-0.24809-1.0223-1.0301-1.8227-2.2383-2.4139-4.1952 19.763-17.638 29.065-30.219 37.205-3.3046 2.1376-2.0421 4.567-1.7968 4.4689 2.8527-1.1411 7.9076-3.7021 10.1-5.1556 14.042-9.1469 26.338-25.094 24.154-34.104" fill="#dacaa5"/>
  <path d="m20.201 173.97c-0.23199-0.28658-0.32786-0.42336 0.0585-0.84421 6.8002-7.4585 6.8157-24.962-7.0557-32.865-1.3373-0.23493-2.7805-0.38208-4.363-0.40015-20.07-0.21945-34.28 15.991-34.28 35.878 0 18.493 13.368 33.722 30.575 35.769 19.324-4.4715 24.573-25.721 15.067-37.538" fill="#ffeabe"/>
  <path d="m-20.962 193.18-0.10099 0.11878c5.3002 9.8698 14.925 16.869 26.196 18.209 7.5902-1.7555 12.999-6.1031 16.203-11.447-17.891 3.8725-37.3-1.4509-42.298-6.8802" fill="#dacaa5"/>
  <path d="m34.106 138.05c8.2924 4.9878 7.5153 6.3484 7.1255 7.6444-0.50861 1.6988-6.9964 3.1368-10.365 2.4629-5.0472-1.0094-9.036-6.3819-17.661-7.8922 13.871 7.9026 13.853 25.404 7.0532 32.865-0.38493 0.41823-0.28687 0.55508-0.0585 0.8442 9.5084 11.816 4.2572 33.066-15.067 37.535 1.2986 0.15493 2.6152 0.24267 3.9525 0.24267 10.637 0 20.15-5.0162 26.483-12.903 37.38-31.889 16.683-61.088-1.4638-60.799" fill="#f7c064"/>
  <path d="m50.172 177.82c-5.9172 13.151-17.049 19.683-28.835 22.233-3.2064 5.3441-8.6125 9.6917-16.203 11.447 1.2985 0.15493 2.6152 0.24267 3.9525 0.24267 10.637 0 20.148-5.0162 26.483-12.903 7.8664-6.7098 13.151-13.298 16.44-19.523z" fill="#d5a756"/>
  <path d="m-5.0402 172.3c0 4.3088-2.8631 7.7063-6.3019 7.7063-3.586 0-6.1418-2.7495-6.1418-7.7063 0-4.3088 2.7857-7.7993 6.2218-7.7993 3.4362 0 6.2219 3.4904 6.2219 7.7993" fill="#fcda4e"/>
  <path d="m50.69-64.343c-8.7236-3.5679-40.481 17.057-44.054 53.642-1.7556 17.971 3.3691 37.058 19.696 54.938 6.48-7.2003 19.662-21.136 32.651-25.915 6.2761-24.405 3.7048-77.758-8.2924-82.666" fill="#f7c064"/>
  <path d="m196.59-33.505c-9.9602-6.4439-52.114 15.637-69.915 55.091 12.516 7.7502 23.158 20.135 27.157 40.272 13.786-3.444 29.501-14.05 39.131-28.763 15.015-22.951 12.839-60.639 3.6272-66.6" fill="#f7c064"/>
  <path d="m40.584-32.728c-8.8888-0.34081-16.9 19.843-14.77 33.688 5.3105 2.7211 13.474 14.189 18.658 24.358 6.4775-11.92 5.0085-57.703-3.888-58.047" fill="#009683"/>
  <path d="m182.2-4.6112c-3.826-3.0851-27.696 10.079-35.527 30.415 10.585-2.4913 12.529 0.03359 3.0051 21.283 26.736-7.0558 41.434-44.516 32.522-51.698" fill="#009683"/>
  <path d="m40.584-32.728c-8.8888-0.34081-16.9 19.843-14.77 33.688 1.9775 1.012 4.3527 3.2426 6.8208 6.1625 3.1754-10.487 8.7028-19.112 15.284-20.279-1.0249-10.753-3.4827-19.425-7.3346-19.572" fill="#008273"/>
  <path d="m182.2-4.6112c-3.826-3.0851-27.696 10.079-35.527 30.415 1.185-0.27882 2.2564-0.49052 3.2193-0.62477 11.483-8.2975 25.042-13.293 33.162-12.712 2.494-7.7631 2.4061-14.45-0.85454-17.078" fill="#008273"/>
  <g fill="#f7c064">
   <path d="m157.5 79.481c0.72816-37.788-18.841-60.12-51.358-68.415-42.546-10.848-85.604 20.194-96.4 69.711-6.0437 27.712 4.8561 47.18 36.916 65.09 49.292 27.288 111.19 15.124 110.84-66.386"/>
   <path d="m23.999-1.372c-5.5351 1.8459-5.6668 21.436 2.0034 31.77-3.1961-1.2315-11.721-3.475-12.888-0.67382-3.1677 7.6031 9.2141 16.585 17.104 16.585 5.184 0.12908 17.623 0.51892 17.623 0.51892 3.6272-20.731-13.631-51.603-23.842-48.2"/>
   <path d="m141.26 52.955c14.538-5.9017 21.18-26.158 16.296-30.033-6.4181-5.0885-31.62 8.2795-43.05 32.555 2.9147 1.4561 20.989 9.2321 20.989 9.2321 9.4257 3.7899 20.7-1.3606 20.602-6.9964-0.0512-2.8089-7.8277-5.1944-14.837-4.758"/>
   <path d="m123.96-2.8624c1.1928-8.0239 0.72523-16.479-0.97068-24.165-1.3916-6.3019-3.6221-7.9568-12.439-4.1462-20.989 9.0695-45.877 12.955-54.613 41.049-6.7098 21.583 1.8769 42.99 18.885 48.729 16.941 5.7159 38.426-8.6409 47.908-25.77 7.5902-13.714 5.2124-30.221 1.2289-35.697"/>
  </g>
  <path d="m53.666 23.653c-0.34103 16.306 7.8148 30.451 21.16 34.953 14.837 5.0059 33.164-5.3906 43.855-19.559-24.583 17.305-65.203 1.9492-65.015-15.395" fill="#d5a756"/>
  <path d="m171.45 162.86c19.825 31.486 30.172 48.554 29.542 80.074-0.84159 42.087-44.168 52.251-80.853 32.847-23.517-12.439-31.701-15.449-51.502-15.937-32.803-0.81065-44.593-18.454-43.925-35.955 1.1669-30.516 32.847-34.014 28.569-67.831-2.5894-11.013-3.3665-10.755-3.3665-10.755 44.901 13.608 67.542 12.436 94.066-15.805 11.403 8.8087 27.469 33.363 27.469 33.363" fill="#f7c064"/>
  <path d="m27.204 211.45c-1.3967 3.6428-2.3106 7.7167-2.4913 12.441-0.66888 17.504 11.122 35.145 43.925 35.955 19.802 0.4879 27.985 3.4982 51.502 15.937 36.686 19.404 80.012 9.2399 80.853-32.847 0.0586-3.0206 0.0146-5.9069-0.12148-8.6874-41.325 38.021-165.55 9.4593-173.67-22.799" fill="#d5a756"/>
  <path d="m21.778 125.39c5.7081-0.68415 9.1263-11.359 7.6289-23.844-1.4948-12.488-7.2132-21.97-12.921-21.286-5.0317 0.60153-8.3775 8.9017-8.0755 19.409 0.96043 9.3844 4.647 17.765 11.308 25.535 0.68425 0.20137 1.3735 0.26849 2.0602 0.18588" fill="#fcda4e"/>
  <path d="m133.74 100.47c-8.0806-4.6651-20.011 0.55248-26.38 11.581-6.3664 11.029-4.9801 23.754 3.1006 28.419 8.0807 4.6651 19.794-0.49568 26.163-11.525 6.3664-11.029 5.1969-23.811-2.8837-28.476" fill="#fcda4e"/>
  <path d="m173.87 131.44c-0.0878-0.46729-0.18369-0.50601-0.66888-0.45954-19.649 1.8511-33.097-14.476-27.387-36.286-6.645 16.732-18.077 50.867-25.091 54.559 2.2254 7.0196 14.84 17.821 21.379 18.854 16.755 1.6084 52.377-4.9414 71.327-26.207-14.545 10.254-36.947 3.4982-39.559-10.461" fill="#f7c064"/>
  <path d="m190.68 146.13c-14.192 9.9111-30.441 15.782-44.692 17.705-2.623 0.35368-3.6531 1.7607-4.0816 4.2107 16.807 1.5645 52.617-4.9259 71.523-26.14-6.808 4.7968-15.335 5.8708-22.75 4.2236" fill="#d5a756"/>
  <path d="m225.89 107.85c-0.52179-25.342-17.643-42.474-40.953-42.474-16.613 0-30.918 10.26-37.341 25.004-0.54227 1.2444-1.1386 2.7004-1.7762 4.3088-5.7107 21.813 7.7373 38.139 27.386 36.286 0.48519-0.0439 0.58106-8e-3 0.66888 0.46212 2.6127 13.959 25.014 20.715 39.559 10.461 7.7734-8.7235 12.748-19.918 12.457-34.047" fill="#ffeabe"/>
  <path d="m190.68 146.13c7.4146 1.6471 15.942 0.57314 22.75-4.2236 7.7734-8.7235 12.746-19.918 12.457-34.047-0.0732-3.4801-0.46763-6.7976-1.1386-9.9447-5.0988 21.19-18.302 37.205-34.068 48.216" fill="#dacaa5"/>
  <path d="m194 111.94c-2.8812 3.2555-8.0213 3.3381-12.31-0.45954-3.9086-3.4569-4.647-8.8965-1.8407-12.067 2.8063-3.1703 8.2511-2.938 12.157 0.5215 3.9087 3.4595 4.7994 8.8345 1.9931 12.005" fill="#fcda4e"/>
  <path d="m96.863 113.04c-1.6678 11.424-15.981 18.761-31.791 16.456-15.808-2.308-27.123-13.386-25.455-24.81 1.6678-11.424 15.834-18.815 31.641-16.507 15.81 2.3054 27.273 13.438 25.605 24.862" fill="#ffeabe"/>
  <path d="m72.462 155.72c3.0644 0.30464 8.7209-2.5223 8.4938-3.7434-0.21662-1.1747-5.3648-2.4629-8.5867-2.6204-5.4551-0.27108-7.7193 0.39242-8.0084 0.87261-0.90614 1.5129 4.265 5.1092 8.1014 5.4912" fill="#d5a756"/>
  <g fill="#0f141b">
   <path d="m157.8 60.688c0.84423 4.4095 1.3709 9.0591 1.5981 13.933l-2.8708 2.5249c-0.0146-5.5351-0.49032-10.763-1.4096-15.676z"/>
   <path d="m25.846 45.446c-6.8157 9.8388-12.111 21.699-15.129 35.542-5.7778 26.498 4.2469 45.44 33.683 62.619 1.784 1.0404 1.1359 2.3545-0.63741 1.4277-0.46983-0.24785-0.93453-0.49311-1.3941-0.74095 0.12367 0.62735-0.0293 1.1618-0.18589 1.6807-0.75121 2.5017-8.0213 3.8493-11.512 3.1522-6.2297-1.247-10.322-8.1452-21.844-8.2717-19.559-0.10585-33.273 15.495-33.273 34.884 0 19.308 15.041 35.015 33.531 35.015 10.231 0 19.672-4.7503 26.005-12.898-0.72816 1.7994-5.1324 8.2459-5.1324 8.2459-6.0334 4.7142-13.244 6.9964-21.087 6.9964-19.587 0-35.728-17.008-35.728-37.411 0-22.688 17.282-37.15 35.826-36.993 11.994 0.13167 16.363 7.2236 22.027 8.3569 3.1703 0.63251 7.9025-0.3253 8.8087-1.7504 0.64766-1.0146 0.39518-2.1996-0.90365-2.9509-26.759-15.446-36.601-35.586-30.905-61.702 3.0826-14.135 8.4163-26.196 15.25-36.206z"/>
   <path d="m-11.263 165.5c-2.8837 0-5.228 3.0516-5.228 6.8053 0 4.203 1.926 6.7124 5.1504 6.7124 2.9251 0 5.3054-3.0102 5.3054-6.7124 0-3.7538-2.3442-6.8053-5.2279-6.8053m-0.0776 15.506c-3.7305 0-7.1384-2.9793-7.1384-8.7003 0-4.0274 2.7676-8.7932 7.2159-8.7932 4.3011 0 7.2158 4.2934 7.2158 8.7932 0 5.7494-4.0326 8.7003-7.2933 8.7003"/>
   <path d="m174.07 164.32c18.113 28.788 29.302 46.871 28.667 78.519-0.36664 18.289-8.0858 32.284-24.585 38.87-1.9982 0.79774-2.5094-0.87777-0.58326-1.7478 14.248-6.4336 22.076-19.536 22.425-37.045 0.62717-31.28-9.6581-48.179-28.386-77.931z"/>
   <path d="m119.17 276.94c-23.036-12.183-30.627-15.056-50.629-15.55-32.121-0.79258-46.336-17.757-45.577-37.607 0.55472-14.509 8.3801-23.292 15.451-31.582 7.8819-9.2399 15.692-17.899 14.189-34.401-0.23198-2.5507 1.5154-2.703 1.7478-0.19362 1.6523 17.783-6.3432 26.966-14.181 36.154-6.8518 8.0316-13.936 16.337-14.463 30.159-0.73035 19.115 13.293 34.192 42.954 34.922 19.985 0.49309 28.54 3.6737 51.944 16.053 16.618 8.7906 34.716 11.612 49.679 7.6805 2.1196-0.55508 2.6152 1.043 0.58326 1.7504-13.998 4.8716-31.44 3.3278-51.698-7.3862"/>
   <path d="m32.512 263.31c0.79263-2.1506 4.3192-5.5713 7.4069-6.8234 1.4328-0.58084 1.1747-1.7065-0.3381-1.265-2.9612 0.86487-8.2717 4.5618-9.183 7.776z"/>
   <path d="m71.648 259.84c-8.4627 4.8975-24.017 5.7184-28.28 5.7339-10.273 0-18.041-1.6394-19.727-4.0816-1.7943-2.5972-0.97075-7.9697 9.5239-14.383l1.8046 1.5671c-9.6736 6.0644-9.9782 10.128-9.116 11.375 0.88293 1.2805 7.1074 3.1961 17.607 3.0929 3.5963-0.0103 14.739-0.3201 22.871-3.4569z"/>
   <path d="m26.089 261.42c-0.65278-1.6239 4.5593-6.6014 7.5644-7.4069 1.4355-0.38465 1.1798-1.5929-0.39006-1.2134-3.5885 0.86744-7.4481 3.8441-8.7519 6.5394 0.34102 1.3476 0.81583 1.7375 1.5774 2.0808"/>
   <path d="m189.27 296.44c-0.97075-4.6006-5.5713-8.6822-7.7735-9.6529-1.4793-0.65315-1.9621 0.54213-0.71279 1.296 2.1118 1.2754 6.2606 6.2141 6.2606 8.3569z"/>
   <path d="m186.61 275.39c7.9309 4.1694 13.866 15.911 10.559 19.825-3.6118 4.2804-15.808 2.4887-23.32 0.64802-4.8665-1.1927-17.127-4.9697-22.03-10.755l3.4491 0.0571c5.0266 4.6083 14.821 7.4068 19.133 8.4602 12.81 3.1419 19.236 2.024 20.85 0.11358 2.1428-2.5404-2.4448-13.231-10.673-16.74 0.44421-0.37696 2.0318-1.6084 2.0318-1.6084"/>
   <path d="m195.18 295.18c0.15222-3.2065-2.3726-6.8931-5.3983-8.9042-1.2418-0.82873-1.9957 0.1446-0.84166 1.0998 2.4345 2.0137 4.4612 5.8062 4.3734 8.6822z"/>
   <path d="m183.4 182.53c25.985-19.117 61.756-24.712 63.46-17.692 2.4603 10.141-15.281 30.668-32.17 37.569-1.9646 0.80291-1.5335 2.29 0.48519 1.5542 17.297-6.3174 37.512-27.211 34.303-40.037-2.6333-10.544-41.382-2.6746-67.343 16.228z"/>
   <path d="m225.67 197.16c4.8587-0.3408 9.8104 0.54477 10.691 2.623 2.5456 6.0231-9.5239 22.838-36.541 25.073l-0.31248-2.1635c25.455-2.308 36.038-17.834 34.383-21.746-0.50349-1.0533-7.0893-2.3648-13.394-0.59636z"/>
   <path d="m143.37 167.33c26.023 1.7504 82.467-13.701 81.524-59.454-0.50056-24.436-16.931-41.498-39.957-41.498-15.671 0-29.971 9.5781-36.43 24.405-1.66 3.8106-3.7847 9.4593-6.2451 16.001-8.0058 21.289-14.636 39.265-20.078 42.373-1.7349 0.99137-2.3364 0.062-0.87262-1.2624 5.3131-4.8123 12.877-26.214 18.764-41.875 2.4707-6.5652 4.3037-12.446 5.9818-16.303 6.7769-15.552 22.443-25.881 38.903-25.881 23.715 0 41.916 17.166 42.469 44.023 1.0172 49.625-59.784 63.073-84.158 61.124-1.8614-0.14973-1.802-1.7814 0.0981-1.6523"/>
   <path d="m168.49 102.46c-6.8208-1.3528-9.9188-8.5764-8.0394-10.874 1.4045-1.7194 9.0592-1.0301 12.704 0.62219 1.7013 0.77192 1.3348 1.7272-0.34103 1.4096-6.3664-1.2082-9.8027-0.96039-10.404-0.12134-0.71499 0.99911 1.549 5.4293 6.3226 7.4094 1.1927 0.49311 0.99652 1.7994-0.24296 1.5542"/>
   <path d="m180.83 83.221c0.0512-6.9964 4.7607-13.136 8.5299-11.974 3.1574 0.97072 1.722 8.233 2.2074 12.023 0.19394 1.5051-0.97331 1.833-1.5051 0.34079-1.0198-2.8683-1.0972-9.2657-1.8537-9.6917-1.2624-0.71771-5.0033 3.7899-5.8733 9.3018-0.25833 1.642-1.5154 1.66-1.5051 0"/>
   <path d="m205.17 90.218c3.9629-4.4147 4.0636-7.8716 3.6866-8.6719-0.62497-0.68931-4.4792 0.13683-11.168 4.8329-1.2418 0.87261-2.0344-0.031-0.92429-1.1669 3.431-3.5034 11.816-8.2485 14.277-5.5145 1.8794 2.0886-1.1101 8.3827-4.9 11.491-0.99651 0.8184-1.8046-0.0413-0.97068-0.97071"/>
   <path d="m210.26 102.41c3.9526-1.1669 8.77-5.7546 8.2924-6.7382-0.19613-0.40274-8.1298 0.81065-10.802 0.66349-1.6756-0.0904-1.3812-1.4251-0.19612-1.6032 7.8225-1.1643 12.353-1.9259 13.314-0.38725 1.5232 2.4345-4.2753 8.7622-10.154 9.4903-1.4096 0.17556-1.8201-1.0223-0.45446-1.4251"/>
   <path d="m205.66 114.76c-1.3864-0.58346-0.8571-1.8407 0.4852-1.4586 3.7977 1.0869 8.375-0.049 8.6125-1.1153 0.14417-0.65317-4.9259-1.9595-6.7176-3.0619-1.7917-1.1024-1.2134-2.4784 0.63229-1.5077 2.783 1.4664 8.6667 1.895 8.2588 4.7632-0.48812 3.444-7.6186 3.9164-11.272 2.3803"/>
   <path d="m180.59 100.07c-2.4939 2.8166-1.7064 7.6005 1.7556 10.665 3.6996 3.2736 8.2847 3.5034 10.905 0.54474 2.4397-2.7572 1.5852-7.5127-1.9053-10.603-3.1703-2.8063-8.109-3.5963-10.755-0.6067m14.15 12.526c-3.5473 4.0094-9.3664 3.475-13.714-0.37435-4.2804-3.7899-5.1453-9.8336-1.9259-13.469 3.5782-4.0378 9.8233-2.8786 13.562 0.43372 4.3114 3.8157 5.246 9.8336 2.0783 13.409"/>
   <path d="m68.936 95.321c-0.0585 0.49827-0.75121 0.82614-1.5542 0.73579-0.80031-0.093-1.4019-0.57056-1.3451-1.0688 0.0586-0.49569 0.74873-0.79258 1.549-0.69964 0.80032 0.0904 1.407 0.53441 1.3502 1.0327"/>
   <path d="m47.192 45.662c2.7418-20.186-13.951-49.083-22.879-46.091-5.2305 1.7452-4.8432 24.869 5.0627 33.262 1.2057 1.0223 0.36371 2.1454-0.90621 1.2315-11.532-8.2924-12.258-34.569-4.9878-36.993 11.006-3.6789 28.44 25.657 25.264 48.784-0.23784 1.7323-1.7865 1.5206-1.5542-0.19362"/>
   <path d="m27.465 32.089c-6.129-2.7185-12.852-3.4104-13.433-1.9827-2.5507 6.1212 7.0609 14.442 14.891 15.361 1.9337 0.22718 2.0344 1.5464 0.0659 1.4896-8.8758-0.25817-20.77-9.4877-17.297-17.816 1.4276-3.4285 9.3121-1.6936 13.216-0.38726z"/>
   <path d="m15.949 28.401c-6.875-12.16-9.6684-25.221-8.3233-39.004 3.4465-35.287 34.354-56.234 42.688-52.819 8.486 3.4698 12.343 36.188 10.533 62.201l2.5404-3.5188c2.0731-26.692-2.5456-57.27-12.049-61.158-10.322-4.234-42.706 17.659-46.354 55.003-1.3708 14.029 1.3812 27.467 8.2614 39.843 0.2737-0.38467 2.703-0.54732 2.703-0.54732"/>
   <path d="m26.533-1.5645c-0.96036-13.575 6.7305-30.41 14.013-30.172 6.7279 0.26331 9.4593 38.317 4.1953 53.885l1.2211 3.1058c6.2838-14.251 5.0007-59.01-5.3131-59.407-9.245-0.34593-17.362 17.881-16.456 32.715 0.28687-0.11621 1.9569-0.27106 2.339-0.12653"/>
   <path d="m123.72-1.3931c3.728 6.511 4.7038 21.885-1.8614 33.745-5.9611 10.768-16.337 20.06-27.183 24.258-2.3132 0.89584-1.784 2.1893 0.58326 1.4922 12.34-3.6479 22.316-13.376 28.504-24.554 8.2821-14.963 4.9904-33.879 0.45446-38.418-0.022 0.60668-0.49836 3.4775-0.49836 3.4775"/>
   <path d="m61.639 50.391c-9.3302-8.9068-11.806-25.727-7.0944-40.878 8.961-28.819 35.137-32.816 55.684-41.689 9.844-4.2572 12.271-3.0412 13.993 4.7606 4.5102 20.431 1.7891 45.218-19.048 55.003-1.5542 0.73062-2.0988-0.65833-0.58326-1.4587 13.198-6.9551 23.411-25.85 17.429-52.94-1.2263-5.5532-2.641-7.0919-11.075-3.4491-21.154 9.1418-45.507 12.937-54.055 40.432-4.4947 14.45-2.3674 29.31 5.8527 39.053 1.6084 1.9104 0.68133 2.8708-1.1024 1.1669"/>
   <path d="m152.34 63.867c15.808-3.888 33.002-15.823 41.916-29.607 16.241-25.115 12.63-63.411 3.4982-69.321-10.518-6.8002-53.077 15.185-70.485 52.478-0.0146 1.7065-2.3855 11.212-2.3855 11.212 15.658-43.574 61.656-67.447 71.164-61.3 8.4086 5.4422 11.15 42.19-3.919 65.219-8.4266 12.877-22.363 23.61-37.132 28.014z"/>
   <path d="m149.18 22.525c8.9017-17.976 29.71-28.528 32.403-26.362 7.7709 6.2606-5.2692 41.395-30.412 49.455l-3.3356 3.2503c30.417-6.9009 45.174-46.481 35.083-54.613-4.5102-3.6324-27.696 8.6487-36.391 29.325z"/>
   <path d="m114.31 54.084c11.403-25.202 36.9-37.928 44.118-32.199 6.1057 4.8407-2.7857 28.959-19.696 32.653-2.4475 0.53441-2.7237-0.91908-0.32273-1.5568 15.802-4.1978 22.703-25.967 18.526-29.282-5.0446-3.9913-28.05 5.579-41.33 31.096-0.79256 1.5232-2.006 0.85712-1.296-0.71255"/>
   <path d="m143.24 51.913c7.443 0.07745 14.295 2.3932 14.352 5.6048 0.1266 7.5592-11.824 11.37-21.314 8.0962-1.4174-0.48794-1.0559-1.6962 0.32273-1.2289 8.7028 2.9406 18.583-2.1531 18.506-6.6556-0.0293-1.6988-7.8509-4.8458-17.566-3.5498z"/>
   <path d="m66.757 112.84c-6.4671-0.94748-11.525-4.8613-12.39-9.5238-0.33298-1.7865 1.2315-2.0189 1.6988-0.34078 0.99652 3.5627 5.5713 6.6969 11.06 7.4998 5.6668 0.83389 11.171-0.99911 12.994-4.2908 0.85198-1.5464 2.2074-0.98621 1.5542 0.67899-1.5309 3.9009-7.572 7.0532-14.917 5.9766"/>
  </g>
  <path d="m54.536 84.943c0 6.1134-4.9568 11.07-11.07 11.07-6.116 0-10.267-4.9568-10.267-11.07 0-6.1134 4.1539-11.292 10.267-11.292 6.116 0 11.07 5.1789 11.07 11.292" fill="#604346"/>
  <path d="m87.933 92.554c0 6.0773 4.9259 11.001 11.001 11.001 6.0773 0 11.003-4.9233 11.003-11.001 0-6.0747-4.9284-11.223-11.006-11.223-6.0747 0-10.998 5.1479-10.998 11.223" fill="#604346"/>
  <path d="m52.072 81.267c0 2.0215-1.6445 3.6557-3.666 3.6557-2.0214 0-3.6556-1.6342-3.6556-3.6557s1.6394-3.6608 3.6608-3.6608c2.0215 0 3.6608 1.6394 3.6608 3.6608" fill="#fff"/>
  <path d="m99.495 87.486c0 2.0215-1.6445 3.6557-3.666 3.6557-2.0214 0-3.6556-1.6342-3.6556-3.6557 0-2.0215 1.6394-3.6608 3.6608-3.6608 2.0214 0 3.6608 1.6394 3.6608 3.6608" fill="#fff"/>
  <path d="m42.503 88.68c0 1.6626-1.3476 3.0102-3.0102 3.0102-1.6626 0-3.0128-1.3476-3.0128-3.0102 0-1.6626 1.3708-3.0309 3.036-3.0309 1.6626 0 2.9871 1.3683 2.9871 3.0309" fill="#f7c064"/>
  <path d="m99.54 96.779c0 1.6626 1.3476 3.0102 3.0103 3.0102 1.6626 0 3.0128-1.3476 3.0128-3.0102s-1.3708-3.0309-3.036-3.0309c-1.6626 0-2.9871 1.3683-2.9871 3.0309" fill="#f7c064"/>
  <path d="m43.891 74.643c-5.4629 0-9.6039 4.7168-9.6039 10.298 0 5.5584 4.0456 10.076 9.6013 10.076 5.5584 0 9.6555-4.518 9.6555-10.076 0-5.5816-4.1927-10.298-9.6529-10.298m-3e-3 22.365c-6.653 0-11.669-5.3699-11.669-12.023 0-6.7743 5.0188-12.33 11.672-12.33 6.6504 0 11.659 5.4912 11.659 12.266 0 6.653-5.0085 12.087-11.662 12.087" fill="#0f141b"/>
  <path d="m98.932 82.327c-5.4242 0-10.004 4.6832-10.004 10.229 0 5.5171 4.4896 10.007 10.007 10.007 5.5171 0 10.007-4.4896 10.007-10.007 0-5.5455-4.5825-10.229-10.009-10.229m3e-3 22.223c-6.6143 0-12.095-5.4344-12.095-12.049 0-6.7356 5.4809-12.162 12.093-12.162 6.6169 0 12.075 5.5558 12.075 12.291 0 6.6169-5.4577 11.92-12.072 11.92" fill="#0f141b"/>
  <g fill="#ffeabe">
   <path d="m-6.4823 156.44c0.78481-4.9672-2.1815-11.272-4.5671-11.272-2.3545 0-4.1668 11.427-5.3441 12.049-1.5722 0.67382 9.4257 1.944 9.9111-0.77708"/>
   <path d="m-24.071 167.33c-1.6677-1.1101-8.2485-7.505-7.0944-9.5238 1.1669-2.0395 9.6219 1.3606 11.566 1.3606 1.6394 0-1.3631 9.6658-4.4715 8.1633"/>
   <path d="m-23.974 176.46c-3.3046 1.1669-10.884-1.8459-10.786-3.7899 0.13172-2.654 7.2674-3.0567 10.98-3.9835 1.1541-0.28915 1.4406 6.9086-0.1932 7.7735"/>
   <path d="m-21.156 185.5c-2.5094 3.2245-8.9378 3.9242-10.009 2.7211-0.94492-1.0636 4.0713-6.8208 6.9008-8.9404 1.7685-1.5671 4.2857 4.1591 3.1084 6.2193"/>
   <path d="m-12.993 190.26c-2.623 3.4982-7.0945 6.2193-9.134 5.2486-0.91133-0.43631 0.78487-6.0876 2.7211-8.5531 1.4096-1.8252 7.4611 1.8072 6.4129 3.3046"/>
  </g>
  <g fill="#0f141b">
   <path d="m-16.686 156.25c1.642-2.6695 2.5352-12.245 5.6849-12.245 3.9629 0 5.9353 8.1039 5.1995 11.612-0.30956 1.469-1.4715 1.2728-1.3605-0.14458 0.36957-4.7735-2.6694-9.307-3.888-9.307-1.6033 0.65833-2.5275 8.9662-4.4689 10.959-0.99652 1.0198-1.944 0.38726-1.167-0.87519"/>
   <path d="m-24.606 180.54c-3.5911 3.0877-5.7855 6.9086-5.6384 7.0945 0.34322 0.43631 5.628 0.0234 7.8741-2.0886 0.96036-0.90359 2.0782-0.0749 1.2134 0.97072-3.2065 3.888-9.3147 3.9784-10.753 2.3622-2.0318-2.2977 4.3063-8.5557 6.4284-9.893 0.76161-0.4699 0.64034-1.5154-0.13977-1.4741-4.3605 0.41048-10.389-2.3829-10.257-4.9414 0.15003-3.0412 5.3493-3.4414 9.6374-4.1927 0.67912-0.17814 0.70986-1.0869 0.28175-1.4225-2.7134-2.0266-7.492-7.1564-6.0696-9.6478 1.4664-2.5714 6.8879-0.23493 11.455 1.0275 1.4948 0.41308 1.4974 1.3993-0.0512 1.3606-1.895-0.049-8.9894-2.3313-9.6891-1.3889-0.39518 0.53182 3.0335 5.2279 6.0489 7.6521 1.4174 1.1359 1.593 3.1058-0.48812 3.697-4.8794 1.3838-9.0617 1.9518-9.0179 3.0619 0.0293 0.63507 3.7203 3.0748 8.0446 3.2555 2.4293 0.1007 3.3304 2.6643 1.1178 4.567"/>
   <path d="m-22.614 196.53c-2.1815-1.0404-0.20417-6.8311 2.1376-9.3276 0.9346-0.99912 1.9078-0.30722 1.216 0.82355-1.2677 2.0679-2.4732 6.2606-2.1351 6.6788 0.33591 0.41567 5.0214-1.4251 7.381-4.2004 0.94749-1.1127 1.8356-0.2969 1.0198 0.92424-2.7185 4.0816-7.6031 6.0592-9.6194 5.1014"/>
  </g>
 </g>
</svg>
