<?xml version="1.0" encoding="UTF-8"?>
<!-- Created with Inkscape (http://www.inkscape.org/) -->
<svg version="1.1" viewBox="0 0 308.54 251.84" xmlns="http://www.w3.org/2000/svg">
 <g transform="translate(53.288 -41.458)">
  <path d="m-0.8773 85.261c4.5643-8.5566 10.019-15.777 16.422-21.703 0.50636-4.4541 4.0533-9.2505 8.4323-11.909 0.4738-0.286 0.95178-0.52511 1.4277-0.76657-6.5359-4.2408-24.842-7.2578-39.71 6.4936-17.795 16.461-29.81 31.244-35.295 56.949-7.5649 35.445 3.8212 54.059 18.093 63.771 9.8576 6.7093 18.067 7.7244 24.406 6.0904 2.1825-8.9879 6.7656-14.748 9.3138-17.38-25.485-23.686-13.93-61.223-3.0898-81.545" fill="#fdf5e1"/>
  <path d="m-47.72 158.48c-1.2448-8.1862 8.6198-13.215 11.822-26.385 1.5237-6.2662 0.57415-12.404-0.50171-16.949-1.1018-4.6487-0.25784-8.5847 3.7977-10.957 2.935-1.7184 6.5804-4.4846 9.6959-10.179 2.9491-5.3942 2.8952-12.333 2.9303-17.073 0.02659-3.3664 1.9246-5.9919 4.705-7.8205 2.1215-1.3972 4.9886-3.6571 8.5589-7.8533 4.154-4.8784 5.3989-8.3737 5.5653-11.902-12.704 6.4092-31.174 21.382-41.777 46.581-9.0817 21.581-12.253 42.323-5.6942 60.245z" fill="#ffe35e"/>
  <path d="m-50.637 149.12c2.9913 14.042 10.533 23.129 19.129 28.977 9.8576 6.7093 18.067 7.7244 24.406 6.0904 2.1825-8.9879 6.7656-14.748 9.3161-17.378-6.3623-5.9146-10.416-12.69-12.748-19.844-8.0666 17.099-30.466 19.378-40.103 2.1544" fill="#dcd4c2"/>
  <path d="m-50.626 149.14c0.53427 2.499 1.2026 4.8503 2.0067 7.0445 0.79941-0.34227 1.5707-0.79237 2.2575-1.3831-1.594-1.573-3.0311-3.4601-4.2642-5.6614" fill="#dbc552"/>
  <path d="m-50.91 114.05c5.0402-23.623 19.886-44.989 34.461-56.989 14.989-12.34 30.897-13.834 42.788-7.1664 0.64459 0.36102-2.4919 2.0911-2.8717 1.8848-10.866-5.9263-24.427-3.5586-37.963 7.6259-15.779 13.036-29.031 36.355-33.014 55.571-12.103 58.384 27.932 72.157 41.355 67.59 0.69621-0.23909-0.27445 2.8413-0.96581 2.996-18.764 4.2103-55.897-14.762-43.789-71.512" fill="#0f141b"/>
  <path d="m130.35 59.969c-4.9534-4.569-22.486-15.873-49.586-16.733-39.567-1.2565-65.881 12.486-81.637 42.026-14.464 27.116-30.25 84.905 42.485 99.509 37.975 7.6236 80.071-4.4189 89.565-16.958-5.781-9.574-10.336-21.762-12.891-36.58-6.074-35.197 0.28575-58.21 12.064-71.263" fill="#fdf5e1"/>
  <path d="m41.345 50.965c-2.7404-2.7826-10.383-3.5539-17.366 0.68452-6.0435 3.6664-10.535 11.414-7.5837 16.703 3.5586 6.3764 13.601 4.1376 17.798 1.7793 9.1895-5.1691 12.46-13.777 7.1523-19.167" fill="#fdf5e1"/>
  <path d="m28.837 68.185c10.655-3.5914 15.5-12.024 8.648-19.021-3.5844-0.86035-8.6738-0.33289-13.456 2.5693-4.3346 2.6303-7.8604 7.3798-8.3644 11.789 1.5074 5.3965 8.5004 6.2381 13.172 4.6627" fill="#ffe35e"/>
  <g fill="#fdf5e1">
   <path d="m219.86 139.81c9.5693 6.1162 16.452 17.662 20.383 30.497 8.8636-9.9983 6.7702-39.196-20.259-44.098 0.24388 4.5385 0.22528 9.1075-0.12426 13.601"/>
   <path d="m219.86 139.81c9.5693 6.1162 16.452 17.662 20.383 30.497 8.8636-9.9983 6.7702-39.196-20.259-44.098 0.24388 4.5385 0.22528 9.1075-0.12426 13.601"/>
   <path d="m80.759 49.182c-6.5616-0.22271-11.857 4.9323-11.679 12.57 0.22262 9.5646 7.7853 16.068 17.352 15.067 10.043-1.0502 11.529-11.067 9.0676-16.996-3.0475-7.3422-8.1627-10.418-14.741-10.641"/>
  </g>
  <path d="m85.162 72.504c5.0027-0.035156 10.017-3.4601 10.72-10.509-0.17144-0.75954-0.16413-1.4886-0.44323-2.1591-3.0311-7.3047-8.1229-10.366-14.668-10.587-4.3721-0.15003-8.1674 2.1098-10.153 5.8935-0.52298 7.1617 3.2327 17.439 14.544 17.362" fill="#ffe35e"/>
  <path d="m131.19 167.79c-9.4638 12.547-51.586 24.605-89.579 16.977-18.222-3.6571-30.888-10.029-39.409-17.945-3.7204 3.8446-11.717 14.3-10.369 31.68 1.2846 16.56 22.346 43.109 68.91 44.55 64.416 1.9903 90.451-37.384 97.055-54.188-10.845-3.1741-19.429-9.1918-26.607-21.075" fill="#fdf5e1"/>
  <path d="m55.116 200.42c31.589 0 62.163-10.441 78.699-28.626-0.8955-1.2565-1.7723-2.5834-2.6279-3.9993-9.4638 12.547-51.586 24.605-89.581 16.977-18.222-3.6594-30.886-10.029-39.409-17.945-0.72439 0.74783-1.6128 1.7559-2.5623 3.01 5.4457 20.21 28.799 30.583 55.482 30.583" fill="#dcd4c2"/>
  <g fill="#fdf5e1">
   <path d="m248.49 97.789c-11.112-16.541-30.018-17.444-38.026-13.73 4.5174 10.603 8.6527 26.181 9.5153 42.155 11.159 2.0254 18.058 8.1932 21.701 15.437 12.195-4.1048 16.546-29.369 6.8101-43.861"/>
   <path d="m248.49 97.789c-11.112-16.541-30.018-17.444-38.026-13.73 4.5174 10.603 8.6527 26.181 9.5153 42.155 11.159 2.0254 18.058 8.1932 21.701 15.437 12.195-4.1048 16.546-29.369 6.8101-43.861"/>
   <path d="m39.16 108.69c-14.602-0.77126-22.153 7.3821-29.364 18.799-6.6741 10.566-10.664 28.511 12.347 42.155 12.568 7.4524 34.796 6.9742 43.601 2.1145 17.13-9.4544 13.695-27.229 9.1216-36.484-3.643-7.3704-12.235-25.344-35.706-26.584"/>
  </g>
  <path d="m0.52622 185.81c1.4839 0.59308-1.3995 16.45 8.7512 21.209 14.237 6.6718 25.063-9.1966 28.028-9.4919 2.9655-0.2977 5.7575 20.836 25.213 20.613 19.577-0.22268 22.097-17.648 27.14-18.538 4.5642-0.80409 21.316 13.135 34.259 6.9718 8.7066-4.147 11.184-10.685 11.327-17.132 0.13356-5.8677 1.4652-7.708 7.7736-7.0352-4.2877-3.8844-8.2916-8.7511-11.832-14.612-9.4638 12.547-51.586 24.605-89.579 16.977-18.222-3.6594-30.886-10.029-39.409-17.945-3.0334 3.1343-8.9035 10.664-10.242 22.756 6.1701-1.6504 7.3281-4.2689 8.5706-3.7719" fill="#ffe35e"/>
  <path d="m133.8 171.81c-0.8955-1.2846-1.7675-2.6209-2.6115-4.0204-9.4638 12.549-51.586 24.608-89.579 16.977-18.222-3.657-30.886-10.026-39.409-17.945-0.72439 0.75017-1.6128 1.7558-2.5623 3.01 4.0627 15.078 18.091 24.678 36.038 28.581 0.67987-0.51805 1.2308-0.85097 1.6317-0.89082 0.50637-0.0492 1.0103 0.53448 1.5917 1.5214 5.1715 0.90723 10.62 1.3714 16.22 1.3714 31.575 0 62.137-10.432 78.681-28.605" fill="#dbc552"/>
  <g fill="#ffe35e">
   <path d="m230.16 100.59c-0.7947 3.4812-1.1135 10.936 5.1715 14.471 5.57 3.132 10.643 1.3925 13.327-1.8895-0.43591 3.9314 1.1252 6.3647 5.1527 5.0754 0.20135-7.1805-1.4347-14.675-5.3168-20.456-11.112-16.541-30.018-17.441-38.026-13.73 1.4019 3.2913 2.7662 7.0633 4.0087 11.177 3.8915 4.1165 9.152 6.081 15.683 5.352"/>
   <path d="m244.33 161.49c2.6771-12.748-3.2094-31.439-24.348-35.272 0.14088 2.5928 0.18275 5.1972 0.13623 7.7923 8.4581 3.7672 19.978 12.931 24.212 27.48"/>
   <path d="m53.509 55.522c13.81 3.0897 18.538-4.4236 25.916-4.6721 16.989-0.56966 14.211 8.6879 25.85 9.7475 7.3938 0.67046 9.0794-4.2736 11.637-4.4963 2.0817-0.18286 6.374 3.01 10.898 1.8051-7.0914-5.2418-23.436-13.92-47.049-14.67-12.98-0.41259-24.526 0.79939-34.749 3.6453 0.39605 3.8469 1.8027 7.3657 7.4969 8.641"/>
  </g>
  <path d="m219.86 139.81c-0.29505 3.786-0.81582 7.5227-1.6199 11.142-5.1269 23.068-21.802 42.415-60.461 37.947-6.6226 16.818-32.665 56.143-97.041 54.15-2.0652-0.0631-4.0626-0.19224-6.0271-0.35398 10.268 5.6731 23.091 10.179 28.633 11.473-0.15218 9.5318 1.4183 18.557 2.5341 24.474 1.6199 8.5988 3.1554 10.716 12.457 12.46 10.188 1.9106 14 0.74313 18.463-4.6721 8.069-9.792 13.259-19.246 16.133-26.9 22.453 0.0631 41.069-5.6989 54.434-12.183 1.7465 15.249 1.9785 18.259 12.495 19.214 10.627 0.96349 12.868 0.14772 22.16-11.571 6.2944-7.9377 20.245-31.664 21.874-53.909 1.6152-22.006-6.9132-50.324-24.036-61.27" fill="#fdf5e1"/>
  <path d="m4.5676 262.74c0.6681 7.7853 1.9246 10.479 7.6751 12.643 7.7853 2.9303 11.468 2.1778 20.355-5.8583 7.783-7.0375 16.307-22.045 18.513-27.172-19.204-2.1755-33.387-8.866-43.062-16.942-2.0325 6.8101-4.5361 25.016-3.4812 37.33" fill="#fdf5e1"/>
  <g fill="#dcd4c2">
   <path d="m77.367 141.91c-0.98926 12.547-6.5804 23.862-24.561 26.786-21.523 3.4977-39.349-5.3848-47.115-17.512 1.9692 6.3366 6.8593 12.772 16.452 18.459 12.568 7.4524 34.796 6.9742 43.601 2.1122 13.611-7.5134 14.234-20.273 11.623-29.845"/>
   <path d="m60.738 243.05c-2.0653-0.0631-4.0627-0.19456-6.0295-0.35398 10.268 5.6708 23.091 10.179 28.633 11.473 0.19204-3.9642 0.44057-8.7324 0.87909-12.246-7.1804 0.9588-14.982 1.3901-23.482 1.1276"/>
   <path d="m29.71 237.51c2.8999 5.0261 3.5516 10.995 0.18075 19.045-4.1259 9.8506-9.3255 15.976-14.324 19.898 5.7083 1.4511 9.5084-0.12187 17.031-6.9203 7.783-7.0398 16.307-22.045 18.515-27.172-7.9986-0.90723-15.111-2.6045-21.403-4.8503"/>
   <path d="m202.67 230.37c-14.703 10.383-47.57 20.522-68.961 20.465-0.27444 1.1252 0.02 6.4772-0.77363 8.6949 22.453 0.0631 41.069-5.7012 54.432-12.186 1.7488 15.252 1.9809 18.262 12.495 19.216 10.629 0.96349 12.868 0.14766 22.163-11.571 6.2943-7.9377 20.243-31.664 21.874-53.909 0.23657-3.228 0.20401-7.9869 6e-3 -11.412-10.589 21.584-35.377 36.564-41.238 40.701"/>
   <path d="m219.92 125.21c0.0199 0.33522 0.0465 0.67046 0.0678 1.008 11.159 2.0231 18.058 8.1909 21.701 15.435 7.3914-2.4896 11.895-12.757 12.129-23.686-4.5268 9.7264-19.153 13.559-33.898 7.2438"/>
   <path d="m234.78 157c2.2036 4.1353 4.0345 8.6363 5.4668 13.315 3.1999-3.6102 4.9604-9.724 4.6463-16.29-2.7498 2.5459-6.6413 3.2585-10.113 2.9749"/>
  </g>
  <path d="m244.33 161.49c0.48975-2.3326 0.68917-4.8667 0.56484-7.4712-0.8135 0.75486-1.7254 1.348-2.7006 1.8028 0.82753 1.791 1.5542 3.6735 2.1356 5.6684" fill="#dbc552"/>
  <g fill="#dcd4c2">
   <path d="m-10.068 148.38c5.8208 16.154 20.735 30.182 51.675 36.395 37.975 7.6259 80.073-4.4189 89.565-16.958-1.9785-3.2796-3.8024-6.8875-5.4644-10.781-29.761 21.715-109.79 30.419-135.78-8.655"/>
   <path d="m129.69 252.2c-2.6162 4.5784-9.9162 18.335-16.785 27.165-6.1115 7.8533-11.02 10.249-21.954 9.4357 2.3208 1.151 5.7763 2.0067 7.3797 2.3068 10.191 1.9106 14.002 0.74547 18.466-4.6721 8.069-9.792 13.257-19.244 16.131-26.898 0.49706-1.3011 1.8872-5.3566 1.8872-5.3566 1.9997-7.3141-1.3081-8.6574-5.1246-1.9809"/>
   <path d="m152.84 186.55c-16.461 46.864-90.92 65.808-145.83 37.982 11.187 9.7803 28.799 17.751 53.731 18.522 64.416 1.9926 90.763-35 97.039-54.15-1.6644-0.65874-3.3124-1.4488-4.9417-2.3536"/>
   <path d="m22.775 121.98c2.0981 2.513 4.9558 4.5315 6.7093 4.7096 5.9896 0.60716 13.681-3.9454 13.681-11.011 0-0.30945-0.03319-0.60716-0.07978-0.89785-7.3633 9.3442-14.898 10.702-20.311 7.1992"/>
  </g>
  <g fill="#0f141b">
   <path d="m155.78 190.52c-4.8245 12.772-26.441 50.915-89.996 50.91-39.377-0.0139-70.079-18.888-71.955-43.034-1.3433-17.305 6.2873-27.158 9.8318-30.705 0.52297-0.52276-1.4815-2.4334-2.0043-1.9106-4.1986 4.1986-12.734 14.727-11.33 32.822 2.0559 26.462 34.594 46.311 75.467 45.866 57.939-2e-3 83.831-31.158 92.427-52.411-0.81343-0.45008-1.6269-0.99631-2.4404-1.5378"/>
   <path d="m130.34 58.888c-5.8678-5.1082-23.175-16.508-49.694-17.35-16.987-0.54384-31.615 1.6832-44.063 6.7374 1.4066 0.58841 2.928 1.1768 4.351 1.7652 11.482-4.2244 24.725-6.1349 39.78-5.6567 25.836 0.82049 42.246 11.82 47.769 16.665 0.34024 0.29772 2.2481-1.8215 1.8567-2.1614"/>
   <path d="m130.01 166.85c-14.684 15.489-56.218 22.165-88.058 15.77-54.031-10.847-66.376-50.188-41.55-96.731 4.154-7.7877 9.145-14.481 14.963-20.09 0-1.4839 0.17144-2.9163 0.17144-4.5033-6.8781 6.1396-12.715 13.716-17.551 22.784-27.73 51.989-10.083 91.098 43.364 101.83 28.042 5.6286 71.978 1.3667 90.203-16.642 0.38941-0.38211-1.4019-2.567-1.5425-2.4169"/>
   <path d="m11.772 276.64c-6.4538-2.4263-7.8463-5.72-8.5378-13.782-1.0807-12.622 0.90727-31.861 2.928-38.636 0.1123-0.37745 3.5117 2.7662 3.3452 3.3664-1.927 6.9742-4.2361 21.253-3.4155 35.042 0.45719 7.7009 1.8848 9.2434 6.8921 11.126 7.1079 2.6748 9.6514 2.2294 18.365-5.6473 7.3962-6.6858 15.449-18.972 18.236-26.003 0.14753-0.37271 3.7837-0.55327 3.5164 0.13364-1.92 4.9323-11.473 20.927-19.607 28.281-8.4136 7.6071-12.568 9.5599-21.722 6.1185"/>
   <path d="m83.129 255.61c-5.5067-1.2706-20.683-6.149-29.908-12.272-0.61402-0.40788 3.6875-0.61887 4.6416-0.13364 7.5298 3.8352 18.574 7.4852 25.196 8.6504 0.25052 0.0445 0.17144 3.779 0.07048 3.7555"/>
   <path d="m105.84 293.3c-2.1801 0-4.7096-0.30474-7.7478-0.8744-9.9632-1.8684-11.499-4.6323-13.526-13.526-1.9785-8.6785-3.1202-20.862-2.295-30.056 0.4738-5.298 2.7569-5.3543 2.642 0.50637-0.20135 10.118 0.62132 20.233 2.2833 29.055 1.5097 8.0221 2.574 9.7381 11.388 11.391 10.09 1.8918 13.236 0.50869 17.186-4.208 7.0328-8.3995 13.918-22.02 17.455-31.235 2.1802-5.6802 3.9876-5.0097 2.4568 0.88848-2.5505 9.8108-10.755 23.872-17.847 32.048-3.5726 4.1165-6.6999 6.0107-11.996 6.0107"/>
   <path d="m133.28 260.88c-0.23458 0 0.39406-3.3758 0.56018-3.3687 30.86 1.4136 61.286-14.33 70.701-22.01 5.5419-4.5221 7.0211-2.8295 1.4207 1.8379-11.402 9.499-37.994 23.541-72.682 23.541"/>
   <path d="m134.45 243.15c-0.24388-1.5285-0.65189-3.5984-0.98926-5.1761-0.61202-2.8717 0.8252-3.6946 1.8801-0.58138 0.57215 1.6808 0.86035 3.8282 1.0198 5.3379 0.4665 4.3721-1.2284 4.7049-1.9106 0.41964"/>
   <path d="m70.445 61.743c0.20865 8.9879 7.1523 14.471 15.852 13.566 7.7548-0.81112 10.741-8.6246 8.0666-15.064-2.6209-6.3178-7.0047-9.6162-13.529-9.5904-7.4852 0.02811-10.528 5.1738-10.39 11.088m14.061 16.18c-10.899 0.0024-16.227-7.5603-16.429-16.15-0.17145-7.3798 4.3604-13.897 12.715-13.594 7.3774 0.25084 12.638 4.0368 15.636 11.26 3.3547 8.0854-0.0133 18.485-11.923 18.485"/>
   <path d="m10.927 128.2c-9.1332 16.248-6.1349 29.599 11.897 40.291 11.264 6.6788 31.251 8.1768 42.272 2.0911 12.155-6.7069 15.289-17.845 8.5683-34.719-4.7425-11.911-18.365-24.828-34.576-25.935-1.9621-0.13363-6.4162-1.5449-8.0854-1.4277-5.6098 0.39384-7.7501 1.7441-10.364 6.4045-3.7696 3.207-6.6132 7.783-9.7123 13.294m10.552 42.08c-17.493-10.371-23.356-24.943-12.549-43.263 7.8205-13.259 14.91-20.266 30.3-19.455 16.461 0.86974 30.035 12.453 36.528 26.842 6.864 15.212 6.1115 29.472-9.4615 38.066-12.399 6.8452-31.765 5.5489-44.818-2.1896"/>
   <path d="m24.556 52.995c-5.5419 3.364-9.4731 10.064-6.871 14.729 2.6771 4.794 10.174 4.3392 15.857 1.1417 8.7676-4.9323 10.699-12.387 7.0257-16.724-2.7967-3.3054-8.9481-3.4344-16.011 0.85331m-9.0371 15.845c-3.2515-5.8255 1.5754-14.188 7.9377-18.049 7.1617-4.3463 15.399-3.7813 18.604-0.52981 5.1668 5.2465 2.9702 14.924-7.3774 20.744-6.0412 3.3968-15.21 4.9183-19.164-2.1661"/>
   <path d="m21.14 117.33c0.22262 4.6323 5.9263 8.1885 8.444 8.2495 5.2301 0.13128 12.68-4.3768 12.577-8.5472-0.11031-4.3768-4.8972-7.6025-10.784-7.6025-6.8382 0-10.432 3.8563-10.237 7.9002m8.2424 10.362c-4.733-0.51339-10.277-5.9076-10.244-10.514 0.03989-5.0402 4.9534-9.785 12.42-9.785 9.7146 0 12.619 5.1152 12.61 9.6396-0.0133 6.3975-9.6373 11.217-14.785 10.659"/>
  </g>
  <path d="m40.383 140.95c-4.3064-0.56029-10.097-5.3778-11.426-5.4879-1.4839-0.12424-4.9839 3.296-8.4277 3.4976 0.05319 2.2622 0.14088 14.511 10.566 15.449 9.6115 0.86504 12.183-7.7876 11.464-13.332-0.69389 0-1.4112-0.0281-2.1755-0.12659" fill="#d0a598"/>
  <path d="m37.491 140.09c-3.6758-1.5472-7.4876-4.5455-8.5355-4.6346-1.4815-0.1219-4.9839 3.2984-8.4253 3.5 0.02659 1.1417 0.06778 4.8245 1.437 8.3175 1.6996-2.9725 7.7197-8.1041 15.524-7.1828" fill="#a77570"/>
  <path d="m42.559 141.07c-0.69389 2e-3 -1.4112-0.0257-2.1755-0.12659-0.91663-0.11722-1.8989-0.43604-2.8928-0.85331-4.726-0.56029-8.791 1.1065-11.644 3.1648 5.1832-1.4066 12.84 2.2434 13.072 8.9457 3.2046-2.7873 4.1001-7.5884 3.6407-11.131" fill="#b48e83"/>
  <path d="m154.17 46.995c-24.505 3.9126-45.385 29.2-35.891 84.237 8.008 46.421 35.558 67.161 59.324 61.844 22.542-5.0425 35.509-19.052 40.636-42.119 5.931-26.694-3.0804-59.692-11.079-73.669-12.031-21.026-31.807-33.673-52.99-30.293" fill="#fdf5e1"/>
  <path d="m173.3 158.97c-18.269 3.0452-41.057-5.2863-52.666-16.883 10.144 38.769 35.145 55.876 56.968 50.995 22.542-5.0425 35.509-19.052 40.636-42.119 1.7582-7.9119 2.1966-16.377 1.7441-24.737-7.4828 15.097-24.491 29.045-46.681 32.745" fill="#dcd4c2"/>
  <path d="m206.15 75.573c-7.3399-11.82-23.618-25.485-31.549-26.078-8.8496-0.66108-17.378 5.3285-18.803 15.683-2.1146 15.343 4.8245 15.407 3.711 22.156-0.94009 5.6872-12.811 5.3285-16.389 15.678-2.5272 7.3141-0.77363 15.728 6.0575 20.918 7.4923 5.6919 9.6209 4.0907 11.22 9.5271 2.2247 7.5626-4.9347 9.2997-2.2364 20.655 1.9692 8.2917 8.519 15.034 14.839 16.269 8.2542 1.6152 15.081-2.1872 20.025-1.4792 5.1902 0.74079 8.8988 7.7103 15.986 4.2759 0 0 9.3747-11.841 10.35-31.767 1.4371-29.329-4.168-51.278-13.21-65.839" fill="#ffe35e"/>
  <g fill="#dbc552">
   <path d="m173.3 158.97c-4.222 0.70328-8.6879 0.78768-13.201 0.37508 2.928 5.7716 7.9798 10.08 12.9 11.042 8.2542 1.6152 15.081-2.1872 20.025-1.4792 5.1902 0.74079 8.8988 7.7103 15.986 4.2759 0 0 9.3747-11.841 10.35-31.767 0.24388-4.9534 0.26979-9.6795 0.12626-14.211-7.722 14.717-24.477 28.145-46.187 31.765"/>
   <path d="m199.33 117.51c1.5402 5.6473-4.8221 16.347-11.311 19.704-4.0603 2.0981-1.648 6.9648 2.356 5.1574 4.4893-2.0278 8.0666-6.0482 9.5107-9.4544 0.77829-1.8356 1.4464-4.3392 1.28-7.1195-0.16613-2.7803-1.8356-8.287-1.8356-8.287"/>
   <path d="m173.45 91.412c-4.9558 8.995 3.7438 27.215 22.875 23.211l-4.8573-4.4494c-6.0787-0.96349-11.639-3.2046-14.384-6.5991-4.3744-5.4153-3.6336-12.162-3.6336-12.162"/>
   <path d="m177.86 103.39c5.0518 2.5974 9.4099 3.0124 10.488 1.4675 6.3647-9.1333 17.528-11.351 22.249-5.9544-10.209-2.2482-16.314 4.1892-19.354 11.013l-7.1923-1.2987-3.4109-1.9645z"/>
   <path d="m203.45 98.716c-3.3359 3.1155-5.3824 8.4253-5.1176 10.678 0.22262 1.8918 8.2682 7.8228 3.5235 18.576-0.22262-4.8948-10.603-18.058-10.603-18.058s1.0174-3.5328 3.4109-6.0435c5.3379-5.5981 8.7864-5.1527 8.7864-5.1527"/>
  </g>
  <g fill="#0f141b">
   <path d="m0.99651 102.43c8.8262-2.3912 16.243 1.43 20.048 5.3426 2.1052 2.1614 0.93305 3.6735-1.3175 1.8824-4.508-3.5867-10.406-6.4092-18.034-4.4846-4.2431 1.0713-3.5726-1.9598-0.69621-2.7404"/>
   <path d="m68.538 114.05c9.3044-4.9323 22.906-3.8798 28.811 0.46886 3.0311 2.2317 1.9527 4.8784-1.5191 2.8014-6.6835-3.997-17.399-4.6159-26.654-1.1979-2.9631 1.0948-3.5328-0.53919-0.63793-2.0723"/>
   <path d="m42.52 142.09c-7.0023-0.22739-12.174-5.5676-13.674-5.638-1.2518-0.0586-4.7284 3.8258-9.5294 3.4554-4.086-0.31412-5.08-3.2796-4.4752-5.5442 0.38941-1.4464 1.5894-1.3526 1.3667 0.20629-0.31166 2.1802 1.0948 3.2093 3.4179 3.357 4.3322 0.27428 7.8181-3.5117 9.4145-3.4719 1.5168 0.0375 6.339 5.1175 13.456 5.6661 2.9772 0.22975 5.3332-0.53684 7.0093-2.213 1.2237-1.2237 2.0185-0.37274 1.1488 0.81111-1.7442 2.3748-4.4869 3.3711-8.1346 3.3711"/>
   <path d="m31.006 155.4c-7.1758-0.64468-11.346-6.8945-11.161-16.201l1.6925-0.15004c0.13822 6.1631 1.8707 13.449 9.5928 14.143 5.9849 0.53918 11.435-4.6018 10.427-12.061-0.07243-0.54856 1.8027-0.75954 1.8754-0.21098 1.2401 9.1754-5.0402 15.144-12.427 14.481"/>
   <path d="m21.239 146.53c1.9411-3.1014 7.3165-7.4313 14.399-7.2016 1.0525 0.0351 3.3218 1.7652 2.7803 1.6597-8.716-1.7066-15.113 5.1644-15.882 7.4079-0.14287 0.41728-1.5707-1.43-1.2964-1.866"/>
   <path d="m199.74 267.9c-11.487-1.0409-11.541-4.1142-14.164-19.689l3.3617-1.6738c1.6949 14.795 1.852 17.849 11.17 18.693 10.108 0.91895 11.292 0.36568 20.353-11.065 6.36-8.0197 19.929-31.57 21.513-53.175 1.5566-21.225-6.3811-49.881-22.61-59.575-0.63328-0.37744 0.34954-2.8952 0.97758-2.5107 18.182 11.093 26.504 40.267 24.891 62.282-1.7629 24.01-16.972 48.097-22.163 54.64-9.6115 12.122-10.68 13.217-23.33 12.073"/>
   <path d="m239.87 168.36c3.1577-3.7883 5.1386-14.056 1.6222-23.626-3.2046-8.723-11.243-15.657-21.689-17.207-0.22062-0.0329-0.12892-2.8741 0.0984-2.8436 11.374 1.5871 20.487 8.7886 24.359 19.326 3.3546 9.1286 1.648 21.338-3.1765 27.126-0.0798 0.0961-1.355-2.6068-1.2143-2.7756"/>
   <path d="m241.43 140.39c12.106-5.0706 14.406-27.848 5.4809-41.13-8.798-13.097-26.246-18.367-36.013-13.484-0.1967 0.09846-1.355-2.4615-1.151-2.5459 13.306-5.502 30.342 0.08674 39.691 14.002 9.6748 14.401 7.2766 40.003-7.2578 45.42-0.0399 0.0164-0.95411-2.1778-0.75017-2.2622"/>
   <path d="m154.45 48.941c-22.153 3.4789-44.044 26.781-34.517 82.012 7.3657 42.68 30.883 64.685 57.16 60.273 19.422-3.2609 34.034-16.956 39.311-40.711 5.8255-26.209-3.0476-58.668-10.877-72.353-11.888-20.773-31.268-32.332-51.077-29.221m-37.647 82.464c-8.9387-51.813 8.8567-80.83 37.227-85.359 20.616-3.2914 41.339 8.5097 54.092 30.794 8.0361 14.047 17.141 47.357 11.166 74.252-5.2957 23.827-19.575 39.351-41.536 43.24-30.468 5.3942-53.48-19.629-60.949-62.927"/>
   <path d="m191.14 111.31c-10.936-0.56732-20.639-9.1708-18.227-21.359 0.53893-2.724 2.0629-2.785 1.7933 0.56731-0.75954 9.4333 4.6534 16.288 15.852 18.011 5.0776-10.641 14.382-12.483 19.174-10.441 2.1708 0.92364 2.4122 2.3935-0.67981 1.6246-6.1584-1.5355-12.861 2.8717-16.691 10.591-0.18075 0.36336-1.1721 1.008-1.2214 1.0057"/>
   <path d="m190.47 141.06c10.664-5.4199 14.661-18.785 0.1874-30.014-0.43859-0.33992 1.1675-2.4404 1.6223-2.1239 15.28 10.61 12.237 27.444-0.92834 33.95-3.4977 1.7301-4.2736-0.0891-0.88147-1.8121"/>
  </g>
 </g>
</svg>
