<?xml version="1.0" encoding="UTF-8"?>
<!-- Created with Inkscape (http://www.inkscape.org/) -->
<svg version="1.1" viewBox="0 0 224.04 307.66" xmlns="http://www.w3.org/2000/svg">
 <g transform="translate(13.277 6.5872)">
  <g>
   <path d="m206.87 192.67c-7.5938-56.414-61.501-111.64-112.83-105.96-50.707 5.6122-85.323 61.889-71.707 132.18 6.648 34.314 25.111 54.445 50.477 63.275 0.39292 0.63266 0.80068 1.2911 1.2511 1.9992 3.2552 5.6947 10.561 15.188 13.018 15.188 3.7807 0 14.339-8.8924 16.469-11.892 6.578 0.19009 13.396-0.1 20.42-0.8757 7.6713-0.85075 15.07-2.2094 22.096-4.0859 3.03 3.015 9.01 7.6314 10.178 7.6314 1.266 0 9.4003-10.183 11.344-15.723 27.876-14.177 44.85-40.371 39.283-81.736" fill="#c2da6b"/>
   <path d="m147.55 101.09c-16.701-10.691-35.264-16.396-53.51-14.377-24.353 2.6947-44.972 17.099-58.341 39.108 42.168 13.551 94.679-4.3762 111.85-24.731" fill="#a7bd5a"/>
   <path d="m22.796 219.61s-0.10006 0.11773-0.24271 0.28299c6.8157 33.691 25.141 53.527 50.254 62.272 0.39009 0.63053 0.80068 1.2886 1.2485 1.9966 3.2553 5.6948 10.564 15.188 13.021 15.188 3.7807 0 14.339-8.8899 16.469-11.89 6.578 0.19008 13.396-0.10285 20.417-0.8782 7.6739-0.84818 15.073-2.2093 22.098-4.0859 3.0301 3.0175 9.01 7.6339 10.176 7.6339 1.2686 0 9.4028-10.184 11.347-15.723 19.962-10.153 34.331-26.475 38.837-50.112-21.513 57.025-154.58 60.408-183.63-4.6839" fill="#a7bd5a"/>
   <path d="m133.18 127.67c-9.6005-0.15248-26.309-18.986-28.749-33.631l-6.7807 5.1518c-2.1718 26.58 8.95 55.331 34.173 58.314 9.4428 1.1159 24.083-4.9166 24.41-14.104 0.30001-8.397-5.9674-15.46-23.054-15.731" fill="#7ebe42"/>
   <path d="m108.59 144.12c5.3344 8.5896 15.293 12.44 23.234 13.381 9.4428 1.116 24.083-4.9166 24.41-14.104-3.5254 10.306-31.326 16.003-47.645 0.72316" fill="#6ca542"/>
   <path d="m118.27 118.99 0.35037-7e-3c-6.7281-6.8357-12.788-16.571-14.182-24.946l-6.7807 5.1543c-0.74061 9.06 0.07093 18.37 2.4495 26.83 4.5162-9.7906 13.196-12.668 18.163-7.0308" fill="#6ca542"/>
  </g>
  <g fill="#0f141b">
   <path d="m99.191 286.24c15.833 1.0184 37.258-1.231 55.421-7.5037 2.412-0.83315 2.8423 0.73308 0.54045 1.809-15.098 7.0509-43.304 10.216-56.142 7.774-2.4145-0.45818-2.2644-2.2368 0.18015-2.0792"/>
   <path d="m209.67 192.22c-8.0792-60.007-64.864-113.08-115.99-107.49-51.603 5.6346-88.178 63.33-74.314 134.89 6.3828 32.952 22.739 54.788 52.166 64.191 4.1159 7.0109 12.093 17.267 15.55 17.267 4.7365 0 17.672-10.781 18.713-13.561l-3.9933-0.0567c-2.2444 3.0851-11.467 10.406-14.677 10.514-1.5713-0.28512-7.8115-7.5964-11.575-14.002-1.5788-2.6897-1.6639-2.8674-3.2577-3.4428-26.122-9.4454-42.463-30.255-48.593-61.897-13.629-70.333 21.438-125.1 70.496-130.53 48.33-5.3595 103.46 46.544 111.3 104.76 6.633 49.274-19.376 72.54-42.923 82.992-2.5421 1.1284-2.1343 2.5846 0.45037 1.7189 22.376-7.5037 54.05-30.375 46.651-85.346"/>
   <path d="m169.26 273.6c-0.96331 4.5789-10.071 18.158-12.883 18.158-2.2394 0-10.171-6.9833-12.07-9.4228l2.7798-0.74813c2.1018 2.7123 7.4187 6.2828 9.025 7.0584 2.4346-1.6339 8.427-9.8132 10.101-14.5z"/>
   <path d="m106.33 95.574c3.1126 14.332 18.583 30.065 26.852 30.195 14.96 0.24257 25.491 6.3503 25.086 17.63-0.39293 11.004-14.645 17.117-26.535 15.823-28.251-3.0751-37.434-32.842-35.652-57.185l2.9525-2.7323c-2.8098 34.411 14.452 54.633 32.955 56.82 10.441 1.231 22.581-5.0042 22.859-12.776 0.30994-8.7123-6.8632-14.057-21.688-14.292-10.023-0.16029-26.377-17.932-29.7-32.86z"/>
  </g>
  <g>
   <path d="m132.37 57.151c21.148-11.45 44.875-11.69 46.651-8.407 0.95323 1.759 1.0834 28.476-30.921 44.209-17.447 8.5746-46.193 4.704-48.005 1.3562-0.80564-1.4887 3.0876-21.358 32.274-37.158" fill="#7ebe42"/>
   <path d="m104.82 81.372c-4.3662 6.9883-5.1193 12.203-4.724 12.936 1.814 3.3478 30.56 7.221 48.007-1.3561 20.299-9.9758 27.663-24.365 30.098-34.013-13.216 14.682-45.04 32.329-73.381 22.434" fill="#6ca542"/>
   <path d="m101.38 93.723c2.5271 2.5447 29.174 6.3078 46.108-2.0141 30.063-14.78 31.201-39.585 30.268-42.395-1.829-2.0492-24.205-2.0542-44.727 9.0576-27.09 14.665-31.809 32.687-31.649 35.352m29.362-38.472c23.267-12.595 47.992-10.944 49.904-7.4137 0.64329 1.186 2.5896 30.548-31.641 47.374-17.825 8.7597-48.098 4.3386-50.449 0-1.2661-2.347 2.4846-23.88 32.187-39.961" fill="#0f141b"/>
   <path d="m72.701 100.55c0.04252 8.8874-27.443 20.022-38.242 20.069-33.15 0.15036-45.833-18.51-45.838-19.526-0.014897-3.2853 19.829-18.115 45.375-18.23 14.122-0.063828 38.672 10.274 38.705 17.687" fill="#7ebe42"/>
   <path d="m68.074 94.229c-20.69 13.379-70.746 10.311-78.36 4.9166-0.70812 0.81819-1.0934 1.4912-1.0909 1.9441 0.0025 1.0158 12.688 19.676 45.836 19.529 10.799-0.0496 38.282-11.184 38.242-20.072-0.0072-1.9816-1.7815-4.1735-4.6264-6.3177" fill="#6ca542"/>
   <path d="m-9.917 100.94c4.6589 7.1734 19.326 18.578 44.369 18.285 11.262-0.0496 36.893-11.302 36.861-18.678-0.028414-6.2051-23.329-16.306-37.311-16.306-24.488 0.10994-42.468 13.666-43.919 16.699m84.245-0.39789c0.04962 10.464-29.59 22.644-39.961 22.691-35.062 0-47.637-20.62-47.645-22.148-0.0227-4.6989 21.871-20.409 47.104-20.522 14.427 0 40.464 11.46 40.501 19.979" fill="#0f141b"/>
   <path d="m138.54 47.082c0 28.651-22.186 51.878-49.554 51.878-27.368 0-49.101-23.192-49.101-51.843 0-28.654 21.733-51.913 49.101-51.913 27.368 0 49.554 23.227 49.554 51.878" fill="#e2d970"/>
   <path d="m40.367 54.374c3.3077 25.208 23.605 44.587 48.618 44.587 24.378 0 44.63-18.435 48.766-42.713-22.832 24.47-70.721 24.16-97.384-1.8741" fill="#c3bb60"/>
   <path d="m108.49 14.748c-0.8957 5.3695-9.4278 8.417-19.056 6.8107-9.628-1.6063-16.706-7.261-15.811-12.63 0.89578-5.3695 9.3353-8.2619 18.963-6.6555 9.628 1.6089 16.799 7.1059 15.903 12.475" fill="#c3bb60"/>
   <path d="m88.985-3.4096c-26.309 0-47.715 22.664-47.715 50.525 0 27.823 21.405 50.457 47.715 50.457 26.557 0 48.165-22.649 48.165-50.489 0-27.843-21.608-50.492-48.165-50.492m-0.099962 104.05c-29.43 0-51.353-24.102-51.353-53.522 0-29.389 23.512-53.702 51.353-53.702 28.088 0 51.893 24.603 51.893 53.975 0 28.942-22.421 53.249-51.893 53.249" fill="#0f141b"/>
   <path d="m89.042 23.112c-10.541-1.7589-17.987-8.2919-16.952-14.51 0.41066-2.452 2.7373-4.9666 6.9834-6.035 2.6371-0.66315 2.8498 0.66032 0.54258 1.5588-2.7698 1.0784-4.2961 3.0801-4.6213 5.0292-0.75564 4.5288 5.9625 9.5804 14.67 11.034 8.7173 1.4562 16.706-1.1435 17.462-5.6722 0.29789-1.789-0.36243-3.9583-1.3361-5.1017-1.4462-1.6989-0.65038-2.6873 1.2185-1.0183 2.4796 2.2143 3.0275 5.0967 2.7823 6.578-1.0108 6.0501-9.8657 9.9533-20.75 8.1367" fill="#0f141b"/>
   <path d="m58.598 62.575c5.8674-3.035 36.388 4.2586 42.853 26.037 6.2452 21.04-34.751 23.672-45.565 13.018-9.1201-8.9825-6.4479-34.316 2.7123-39.055" fill="#7ebe42"/>
   <path d="m61.717 74.238c-5.3169 2.0842-9.8307 7.4787-10.969 16.023 0.76814 4.5863 2.4295 8.7022 5.1368 11.369 8.6597 8.5296 36.65 8.5296 44.264-2.6046-4.0609-19.636-26.324-29.532-38.432-24.788" fill="#6ca542"/>
  </g>
  <g fill="#0f141b">
   <path d="m59.235 63.807c-8.2168 4.251-10.854 28.484-2.377 36.836 10.056 9.9032 48.958 7.5362 43.264-11.635-6.1977-20.867-35.86-27.803-40.887-25.201m-4.5238 39.09c-11.247-11.079-5.7898-37.321 2.9825-41.86 6.6781-3.4529 38.785 4.4086 45.475 26.942 6.7581 22.764-36.153 27.042-48.458 14.917"/>
   <path d="m139.49 236.84c1.0934-3.3753 3.8557-6.8757 5.7623-7.256 1.9116-0.39292 5.6297 1.764 6.9858 1.4938 1.5562-0.41563 5.3394-5.8724 8.5421-6.578 3.075-0.67521 7.5088 2.1218 9.2227 1.4913 1.2886-0.74564 2.8698-4.4237 5.0167-4.814 1.924-0.34044 5.5596 1.7314 6.7807 3.4578 1.0383 1.4688-0.40286 2.5822-1.5589 1.6264-1.271-1.0459-3.5354-2.5171-4.5662-2.3044-0.71812 0.15036-2.8049 4.5388-4.5188 5.1543-2.995 1.0859-7.6764-2.3319-9.7206-1.854-2.3069 0.50285-5.4546 6.2977-8.3845 7.0734-1.9466 0.51279-6.1026-2.372-7.3011-2.0567-0.73812 0.19505-3.1676 3.4804-4.1584 5.3119-0.69578 1.2886-2.5722 0.70287-2.1018-0.74563"/>
   <path d="m118.27 216.37c7.0774 0.0202 10.972 5.3962 11.27 10.787 0.32135 5.8035-4.063 11.728-11.27 11.675-6.8856-0.05-11.224-5.845-11.077-11.565 0.13823-5.3759 4.6463-10.916 11.077-10.898z"/>
  </g>
  <path d="m118.32 222.06c3.4946 0.0101 5.4174 2.6644 5.5648 5.3264 0.15867 2.8656-2.0062 5.7907-5.5648 5.7648-3.3998-0.0247-5.5421-2.886-5.4695-5.7103 0.0682-2.6544 2.2942-5.3899 5.4695-5.3808z" fill="#fff"/>
  <path d="m189.36 197.31c5.1303-0.0435 8.654 5.2138 9.2444 10.581 0.63185 5.7442-2.0207 11.566-7.2474 11.806-5.0863 0.23333-8.8662-5.0381-9.4516-10.635-0.5913-5.6537 2.4371-11.709 7.4546-11.752z" fill="#0f141b"/>
  <path d="m189.81 202.89c2.5732-0.0218 4.3405 2.615 4.6366 5.3072 0.31691 2.8811-1.0135 5.8011-3.6351 5.9213-2.5511 0.11703-4.447-2.5269-4.7406-5.3341-0.29658-2.8357 1.2224-5.873 3.739-5.8944z" fill="#fff"/>
 </g>
</svg>
