<?xml version="1.0" encoding="UTF-8"?>
<!-- Created with Inkscape (http://www.inkscape.org/) -->
<svg version="1.1" viewBox="0 0 340.86 300.81" xmlns="http://www.w3.org/2000/svg">
 <path d="m252.13 241.99c-1.2826-1.2826-7.75-2.286-8.1395-2.621-0.39071-0.33372-4.1814-5.686-4.2372-6.0767-0.0367-0.25748 0.0712-1.6365 0.0698-2.8151 0.93499-1.1659 1.8991-1.1354 2.1046-2.3698-0.16757-1.672-2.5652-4.4605-5.3523-3.4558-2.5081 0.90198-5.1849 5.0631-6.2048 6.1122-0.7358-0.83729-1.5198-1.738-1.9994-2.2581l-8.6444 9.9866c0.99076 0.2057 2.2442 0.47954 3.4189 0.73832 2.6616 3.7108 8.1788 10.366 9.8052 11.234 1.8446 0.98318 6.2302 1.2141 9.1836 0.78402 2.4687-0.36029 3.1716-1.0618 2.9496-3.1969 2.3355 0.15355 6.1465 0.16758 7.1576-0.0964 3.3999-0.88676 3.1322-5.4525-0.11148-5.9651" fill="#d9bb96"/>
 <path d="m277.09 183.8c-0.82207-2.9039-3.0219-3.6714-12.23-3.6702 8.3818-3.0028 12.557-8.2144 11.274-12.062-1.2128-3.6397-6.2873-3.0193-13.998-2.8404 5.2369-3.7805 5.7926-7.1703 4.3806-9.1975-0.97052-1.3917-4.0127-0.95527-14.585 2.0387 1.7659-1.7684 3.4494-5.3891 3.3657-6.9876l-51.06-0.97681c0.48335-0.713 0.69901-1.3689 0.54423-1.8865-0.35026-1.1659-3.0472-2.5918-6.7402-3.1715 0.64446-0.72059 1.4247-1.9778 1.0986-2.8899-0.77896-2.1846-11.503-2.9838-18.442 4.0926-0.36662-0.95401-0.65082-2.3799-0.8576-4.515-1.3029-13.463-5.3269-23.033-16.02-30.315-10.356-5.2496-19.453-1.3118-27.789 11.071 3.0282 0.69394 6.9762 3.6029 12.057 10.427 3.0663 4.1167 4.8779 7.8109 5.7773 10.849 3.7196-1.2318 10.339-0.90071 14.145 1.4843 8.5289 5.3434 11.911 15.064 14.71 17.885 0.39834 3.542 1.1849 7.3212 2.9343 10.616 5.0314 9.4703 15.558 19.028 32.572 27.241 31.53 15.221 50.3 12.641 52.115 5.2115 0.82462-3.3733-0.79668-8.685-7.1551-11.687 12.042-0.7878 14.837-7.4189 13.903-10.717" fill="#D4D3D8"/>
 <path d="m263.26 155.35c-2.182 0.24849-5.6695 1.1126-11.328 2.7148 1.7659-1.7685 3.4494-5.3891 3.3657-6.9888l-40.782-0.78021c5.2039 4.2334 19.648 9.3066 26.755 10.074 6.1845 0.66729 14.551 0.20174 21.989-5.0199" fill="#ACADAF"/>
 <path d="m245.11 161.68c0.28913-1.7329-2.0831-4.7243-5.7342-7.1588 6.2518-1.2509 8.9108-4.0824 8.8055-7.0662-0.1104-3.1767-2.6286-5.8649-9.1747-7.7513 5.1671-2.1097 8.7231-5.6289 8.0152-10.23-0.44149-2.8684-2.4066-6.1858-8.3323-6.5918 9.228-23.731 0.0507-45.613-2.2467-45.3-1.5084 0.20533-16.013 23.027-21.133 54.725-7.4088 6.6514-13.303 18.438-14.144 23.321l13.975 18.607c10.129 5.8344 15.964 3.0104 13.838-2.6121 5.875 1.3549 10.866-0.30567 11.251-3.1969 0.19275-1.4488-0.82081-3.4329-2.5563-4.3729 2.8075 0.19778 7.2375-1.1862 7.4354-2.3724" fill="#D4D3D8"/>
 <path d="m239.01 139.7c4.9438-1.5046 8.7231-5.6276 8.0152-10.23-0.51126-3.3289-3.882-6.286-8.331-6.5918 8.0152-19.248 1.9435-40.613-1.3752-44.681 8.9121-43.37 26.724-76.825 31.213-76.825 5.842 0 12.067 41.11-1.9575 76.128 33.343-29.036 62.057-46.386 65.502-44.088 3.6232 2.4155-5.4729 42.443-48.694 62.596 23.851-4.5493 55.653-6.0856 56.17-4.2588 0.95146 3.3631-21.437 30.306-66.882 25.364 6.7833 3.3986 9.0466 7.8934 8.8791 10.538-0.19275 3.0574-7.5876 8.9324-18.804 8.5974 3.8985 1.8649 6.0526 4.77 5.9308 7.3923-0.23482 5.0542-8.8499 11.629-25.263 9.7303 3.1246-1.6213 4.9578-3.5356 4.7726-5.9194-0.46178-5.9448-9.176-7.7513-9.176-7.7513" fill="#f4f2f0"/>
 <path d="m272.67 117.11c1.9778 0.9908 3.5598 2.0754 4.8208 3.1792 0.63684-0.71296 1.3397-1.8129 1.7545-2.6933-2.1402-0.0953-4.3209-0.24094-6.5753-0.48587" fill="#fff"/>
 <path d="m281.55 127.65c-0.19275 3.0587-7.5889 8.9324-18.804 8.5988 3.8972 1.8636 6.0526 4.7688 5.9295 7.391-0.19275 4.1459-5.8154 8.4617-13.891 9.7659-0.62033 1.6366-1.7126 3.5268-2.8455 4.661 1.6061-0.45545 3.0193-0.84365 4.2968-1.1824 27.817-12.72 31.222-34.981 30.62-35.434-0.55567-0.41611-4.5024 0.31861-6.9305 1.516 1.2293 1.7672 1.7038 3.4329 1.6251 4.6838" fill="#ACADAF"/>
 <path d="m234.11 207.59c-4.0165 15.555-21.553 28.035-44.638 28.999 21.204 3.9163 44.945-4.5772 53.587-26.357-2.7872-0.67617-5.7761-1.5553-8.9489-2.6425" fill="#ACADAF"/>
 <path d="m234.11 207.59c-4.8576-1.6645-10.153-3.83-15.881-6.5956-17.014-8.2131-27.541-17.771-32.572-27.241-1.7494-3.2946-2.5373-7.0726-2.9344-10.616-2.7986-2.8214-6.1807-12.542-14.711-17.885-3.8046-2.385-10.424-2.7161-14.144-1.4843v-3e-3c1.2293 4.1496 0.74849 7.0688-0.64953 8.104-0.35016 0.25892-0.73454 0.4694-1.1468 0.63432 3.1919-0.0924 5.4018 0.87281 6.8024 3.0789 1.6886 2.659 1.5274 7.6473-1.4767 11.51-1.4716 1.8916-2.0818 3.2642-2.3977 5.0504-1.0111 5.7304-3.1094 10.464-7.2718 13.553-0.1979 0.14708-0.42119 0.26899-0.63431 0.3996 2.2429 27.57 13.381 40.791 33.867 48.198 2.7592 0.99839 5.6124 1.7596 8.5112 2.2962 23.085-0.96416 40.621-13.445 44.638-28.999" fill="#f4f2f0"/>
 <path d="m257.26 239.37c-0.55692-1.1709-0.94764-0.89184-1.5046 0.16758-0.48842 0.9261-2.2138 2.1528-3.8706 2.2581 0.0928 0.0633 0.18016 0.12802 0.24597 0.19527 2.8532 0.45038 3.4012 4.0355 1.1786 5.4957 3.9036-0.65715 5.3041-5.2736 3.9505-8.1166" fill="#d7a542"/>
 <path d="m241.92 228.06c2.3838-1.7317 3.5775-1.3118 3.5775-1.7329 0-1.431-5.4627-3.7602-7.9974-1.8674 2.3482-0.18663 4.2347 2.1135 4.4199 3.6004" fill="#d7a542"/>
 <path d="m278.13 231.28c3.6841 1.4171 10.219-1.6403 9.9866-2.6857-0.16758-0.75483-5.79-2.4332-7.5534-3.9441 1.4995 2.5702 0.68125 5.9587-2.4332 6.6298" fill="#f9c04c"/>
 <path d="m283.67 212.65c1.8458-0.58739 8.2245-3.3568 7.8883-4.1954-0.3348-0.83984-5.2026-2.0983-8.4757-1.5947 1.8801 1.294 2.215 4.3603 0.58738 5.79" fill="#f9c04c"/>
 <path d="m283.67 212.65c1.6276-1.4297 1.2927-4.496-0.58738-5.79-3.0282-1.4348-6.9736 0.91341-15.052 2.5905-3.3301 2.47-9.9891 3.5014-19.6 1.8916h1e-3c0.53409 2.3343-1.3854 6.4167-5.3701 8.4744 3.287 0.10644 8.3678 0.33983 9.4741 0.63812 10.574 2.8532 22.743 11.245 25.596 10.825 3.1145-0.67111 3.9327-4.0583 2.4332-6.6286-1.5934-1.5947-4.699-1.9309-7.1322-3.2731-1.3257-0.73073-4.5214-2.3749-4.3641-3.3568 0.25244-1.5769 13.511-3.7767 14.602-5.3714" fill="#fbd8ac"/>
 <path d="m131.28 123.45c-2.9635 2.248-1.2597 12.113 5.2229 19.83 8.2867 9.8661 13.676 10.839 16.722 8.5835 2.4205-1.7938 2.125-9.2115-5.129-18.951-8.3514-11.216-13.647-11.867-16.816-9.4627" fill="#fff"/>
 <path d="m131.28 123.45c-2.2239 1.6873-1.8192 7.6625 1.261 13.803 3.438-3.4253 7.4735-7.3352 10.965-9.7963-5.7659-5.8915-9.6809-5.9359-12.226-4.0063" fill="#f4f2f0"/>
 <path d="m243.06 210.23c-1.516 3.8198-3.504 7.2223-5.8547 10.23 2.1338 0.24238 4.5049 1e-3 5.4297-0.42499 4.2791-1.9752 6.352-6.2759 5.7976-8.6939-1.6987-0.28409-3.4925-0.65585-5.3739-1.1113h1e-3" fill="#ACADAF"/>
 <path d="m220.06 239.08c5.9676-1.0657 10.096-7.0142 8.7548-10.569-6.0526 4.3691-13.192 7.1284-20.658 8.3146 2.9889 1.3092 9.7874 2.6324 11.904 2.2544" fill="#ACADAF"/>
 <path d="m228.82 228.52c0.0849 0.2244 0.14708 0.45926 0.18916 0.70157 0.41614 0.46936 0.89568 1.0174 1.3638 1.5502 0.39075-0.40089 1.0251-1.2598 1.7977-2.215-0.66985-0.47828-1.6746-0.67869-2.7491-0.4681-0.19778 0.14852-0.40089 0.28661-0.60134 0.43131" fill="#d7a542"/>
 <path d="m189.47 236.59c-2.8988-0.53535-5.7532-1.2978-8.5124-2.2949-20.485-7.4075-31.623-20.629-33.866-48.198-0.0685 0.0421-0.1332 0.0888-0.20296 0.12803-0.50618 39.782 30.677 63.047 50.031 63.047 5.3536 0 8.1725-2.1465 8.4452-3.6486 0.28409-1.5629-1.0441-4.1763-3.1322-5.3701 4.737 0.0673 8.3856-0.82332 10.38-2.0475-1.7215-0.4009-3.353-0.88803-4.4592-1.3726-6.1541 0.97681-12.525 0.89435-18.683-0.24345" fill="#ACADAF"/>
 <path d="m134.91 199.42c-26.715 0.33875-47.886 10.025-47.811 11.131 0.31589 4.6292 26.216 16.767 44.638 6.9965-0.26769 5.653 1.9867 9.9194 5.1874 10.919 3.1424 0.98191 7.3428 0.25892 11.726-3.3796 1.4843 7.2324 5.3904 10.837 9.2635 11.013 2.3406 0.10536 5.247-2.0273 6.2962-3.7183-8.6812-9.3358-15.492-22.332-17.001-38.456-3.1931 0.75226-9.2724 3.2692-12.299 5.4944" fill="#D4D3D8"/>
 <path d="m148.66 225.09c-4.3831 3.6384-8.5835 4.3628-11.726 3.3796-3.2007-0.99968-5.4551-5.2661-5.1874-10.919-17.543 9.3041-41.847-1.2521-44.403-6.2797-21.062 1.8306-86.06 19.657-85.996 22.182 0.10655 4.2512 35.088 23.621 74.848 6.8201-19.097 16.369-47.061 47.095-45.483 49.153 3.1411 4.0926 38.934-1.1367 63.549-34.656-6.366 14.802-15.84 43.841-14.149 44.621 5.2711 2.4332 36.808-19.756 36.222-49.788 2.9648 8.2955 14.465 10.089 21.447-6.3964 0.8208 14.981 16.341 11.189 19.739-7.1436-3.7374-0.4009-7.4278-3.9911-8.8601-10.972" fill="#f4f2f0"/>
 <path d="m147.21 193.93c-3.1931 0.75227-9.2724 3.2692-12.299 5.4944-1.4729 0.018-2.9267 0.0712-4.3641 0.14348-0.58737 5.8471-2.857 13.111-6.5055 20.785 2.6464-0.59371 5.2394-1.497 7.698-2.8011-0.26896 5.653 1.9854 9.9194 5.1861 10.919 3.1437 0.98317 7.3441 0.25892 11.726-3.3796 1.4843 7.2324 5.3917 10.837 9.2648 11.013 2.3393 0.10645 5.2458-2.0273 6.2962-3.7171-8.6812-9.3358-15.494-22.333-17.002-38.457" fill="#ACADAF"/>
 <g fill="#d3d2d1">
  <path d="m148.66 225.09c-4.3831 3.6384-8.5835 4.3628-11.726 3.3796-3.2007-0.99968-5.4551-5.2661-5.1874-10.919-2.4586 1.3041-5.0517 2.2061-7.6967 2.7998-6.7123 14.119-18.072 29.594-32.106 40.08-6.0957 15.5-13.326 38.271-11.831 38.961 5.2711 2.4332 36.808-19.756 36.222-49.788 2.9648 8.2955 14.465 10.089 21.447-6.3964 0.8208 14.981 16.341 11.189 19.739-7.1436-3.7374-0.4009-7.4278-3.9911-8.8601-10.972"/>
  <path d="m158.53 192.01c4.2867-2.1427 8.9298-10.776 8.9298-19.825 0-4.5303-2.2987-4.4034-4.5544-0.53661-2.6261 4.5023-7.745 8.8271-12.419 11.43-0.79923 0.96926-1.7114 1.8459-2.7529 2.6185-0.19919 0.14708-0.42119 0.26899-0.63432 0.3996 0.19283 2.3698 0.45671 4.6254 0.78021 6.7884 3.5788 0.91341 7.8883 0.50489 10.65-0.87536"/>
  <path d="m218.23 200.99c-0.69775-0.33624-1.3663-0.67873-2.0425-1.02-10.211 23.052-39.434 30.258-57.309 19.917 5.4817 6.5118 12.825 11.054 22.083 14.401 2.7592 0.99842 5.6124 1.7596 8.5112 2.295 23.085-0.96289 40.621-13.444 44.638-28.998-4.8576-1.6657-10.153-3.83-15.881-6.5956"/>
 </g>
 <path d="m268.03 209.45c-3.3301 2.47-9.9904 3.5014-19.6 1.8916 0.53535 2.3343-1.3854 6.4167-5.3701 8.4744 3.287 0.10644 8.3678 0.33983 9.4753 0.63812 5.157 1.3917 10.692 4.1002 15.343 6.4624 1.7393-1.8991 3.1855-4.0063 4.3831-6.182-1.4666-0.82078-3.3149-1.9613-3.1944-2.7136 0.10788-0.67362 2.5893-1.4614 5.4805-2.2658 1.1227-3.0358 1.7621-5.9879 1.9917-8.5214-2.2239 0.61781-4.9692 1.4818-8.5087 2.2163" fill="#d9bb96"/>
 <path d="m158.86 155.63c-0.85504-1.7101-3.0929-3.24-6.6095-3.2071-3.1665 1.4107-8.2752-0.24741-15.745-9.1404-3.2705-3.8934-5.3206-8.3311-6.1731-12.063-7.4303 9.5629-18.122 15.08-28.257 15.969-1.8471 2.5601-3.1792 5.5959-3.7298 9.0707-1.7406 10.995 6.7326 23.561 17.997 25.339 1.6873 0.26647 2.4928-0.0658 2.7542-1.332 0.62162-3.0206 3.8934-9.6479 6.7516-11.726 6.3241-4.6 15.461-0.32869 20.606-1.2204-2.4193 10.608-7.8046 13.635-16.945 12.811-1.5198-0.13701-2.2112 1.0212-0.93498 2.6374 4.4757 5.6695 15.843 7.6689 21.778 3.8287 3.7006-2.3939 5.2039-7.0738 5.1049-13.952-0.0216-1.5807 0.55312-3.339 1.7862-5.19 2.8582-4.2867 3.3885-8.2803 1.6162-11.825" fill="#f9c04c"/>
 <path d="m146.45 167.32c-5.1455 0.89184-14.282-3.3796-20.606 1.2204-1.738 1.2636-3.6257 4.208-4.9806 7.0028 2.1452 0.12694 5.0618-0.26252 6.1744-0.8563 0.98699 0.98572 1.9029 3.3238 2.5131 5.4475 9.1113 0.80937 14.484-2.2239 16.899-12.814" fill="#d7a542"/>
 <path d="m146.45 167.32c-4.0114 0.6952-10.447-1.7317-16.086-0.66096-1.3029 4.3425-0.0711 10.372 3.3669 13.535 6.607-0.46307 10.701-4.0228 12.719-12.874" fill="#ef8498"/>
 <path d="m162.54 110.55c-12.389-7.8338-26.47-7.7386-38.396 0.98192-0.14716-3.6054-2.1795-6.111-4.7954-6.4015 2.097-2.2835 2.4104-8.071-1.0568-11.604-3.1411-3.202-7.6828-3.2413-10.627-0.87155-3.1348-10.153-19.95-11.656-25.285 0.55056-10.769-2.8721-17.94 10.98-9.318 18.367-2.569 11.692 1.3371 24.441 10.743 31.141 14.026 9.9904 38.306 3.3796 49.777-16.301 9.0009-15.444 18.863-20.769 30.245-14.999-0.42499-0.28913-0.83984-0.58228-1.2864-0.86393" fill="#505456"/>
 <path d="m109.08 151.98c-0.99079-0.19778-1.8509 0.85127-2.1846 2.5182-0.38313 1.9156 0.30955 3.4849 1.0733 3.5547 0.90453 0.0824 1.6797-0.79542 1.9626-2.5918 0.33364-2.111-0.11037-3.3327-0.85125-3.4811" fill="#fdf2e1"/>
 <path d="m132.37 116.01c-4.8639 2.6184-7.594-1.6581-7.6688-4.8474-0.18268 0.12802-0.36916 0.24094-0.54931 0.37295-0.0342-0.81951-0.17635-1.5731-0.38947-2.2658-2.333-0.2208-4.7459 0.88295-6.574 3.1678-1.6074 0.17873-4.9108 2.7694-4.1078 8.1268-5.7798 19.764-20.048 23.845-29.287 22.139 6e-3 4e-3 0.0115 7e-3 0.0191 0.0144 14.026 9.9917 38.306 3.3796 49.776-16.301 3.6206-6.2099 7.3796-10.781 11.321-13.655-4.0101-0.13054-7.939 0.77129-12.539 3.2489" fill="#444648"/>
 <g fill="#0f141b">
  <path d="m259.69 180.85c-1.6923 7e-3 -1.6923-1.039 0-1.1887 14.982-1.327 17.652 0.24346 18.424 3.8947 0.92104 4.3577-2.8836 10.394-13.913 11.693-0.49856-0.42754-1.2915-1.1709-1.8953-1.4932 10.22-0.41737 14.316-6.3901 13.658-9.7151-0.46555-2.3533-2.5905-3.2654-16.274-3.1906"/>
  <path d="m261.1 164.98c4.3628-2.6577 5.771-6.7135 4.5316-8.2904-0.62925-0.80175-4.5721-0.36155-13.473 2.158-1.3714 0.3882-2.1199-0.0216-0.79291-1.3498 1.0124-1.0136 1.9765-2.6641 2.5601-4.0976 0.614-0.0737 1.1684-4e-3 1.79-0.19024-0.36791 1.1037-0.95782 2.3318-1.6467 3.4228 10.441-2.8798 12.388-2.4244 13.365-1.294 1.8027 2.0844 0.28157 7.2096-4.4491 9.9689-0.43132-0.0324-1.1836-0.16866-1.8852-0.32724"/>
  <path d="m180.44 145.44c7.2958-7.084 18.603-6.7504 19.694-3.693 0.39453 1.105-0.26252 2.6032-0.95653 3.5103-0.3882-0.0737-1.8636-0.24237-2.3711-0.3641 0.54172-0.3882 1.5427-1.7976 1.3219-2.4167-0.40722-1.1266-10.497-2.5931-17.187 4.5594-0.37802-0.51759-0.55312-1.0986-0.50108-1.5959"/>
  <path d="m204.7 146.5c-3.1563-2.5753-12.359-3.7843-19.246-0.19275-1.3308 0.69394-0.96415 1.6035 0.41104 1.0035 7.6371-3.3327 17.225-0.84998 17.825 1.1392z"/>
  <path d="m201.82 153.63c-2.5423 1.7139-6.1579 3.169-10.437 3.6181-1.2204 0.12802-1.7076-0.77891-0.0903-1.0491 5.412-0.90202 9.7938-3.8325 11.571-5.9283z"/>
  <path d="m237.98 122.57c8.9958-21.961-0.11939-43.2-1.5338-43.202-0.97174 0-15.518 23.211-20.34 53.06-0.0288 0.19275-0.0953 0.32617-0.25748 0.47317-7.0751 6.352-12.987 17.956-13.983 22.847-0.35781 1.7558-1.6936 1.5731-1.4234-0.24489 0.77259-5.1937 6.7694-16.901 14.111-23.613 5.044-30.826 18.957-55.217 21.814-55.606 3.731-0.50745 12.6 23.534 3.1817 46.716z"/>
  <path d="m226.49 171.52c-1.2052-0.48209-0.79035-1.4805 0.45415-1.1088 6.1972 1.8496 11.74 0.40722 12.199-2.1174 0.2449-1.3498-1.0149-3.8312-4.2296-4.5569 0.5493-0.0288 2.5652-0.38309 3.2553-0.3869 2.3863 1.5262 3.3593 3.6777 3.0904 5.2457-0.68887 4.0279-8.2169 5.5452-14.769 2.9242"/>
  <path d="m209.46 171.93c-3.5788-1.7646-6.0488-4.6381-6.7047-7.41-0.30064-1.2762 0.47954-1.5528 1.1088-0.40341 1.4868 2.7148 3.5217 4.6584 6.3012 6.8049 1.3029 1.006 0.51632 1.6111-0.70534 1.0085"/>
  <path d="m214.85 174.8c-1.3257-0.83476-0.72947-1.8433 0.65585-1.1088 5.8636 3.1094 10.347 3.523 12.148 1.8649 0.94387-0.87029 1.1278-2.5347 0.31214-4.2626 0.44405 0.22979 1.3511 0.17872 1.8535 0.26395 0.72314 1.7469 0.54424 4.3615-0.70408 5.5109-2.2784 2.1021-7.9213 1.724-14.266-2.2683"/>
  <path d="m183 164.78c-1.2103-0.78658-2.4865-2.9876-3.9822-5.4893-4.4326-7.4075-7.2451-10.73-11.432-13.354-3.3733-2.1123-9.1848-2.8049-13.439-1.4082-0.21691-0.46558-0.34886-1.19-0.35393-1.5845 4.496-1.3878 10.892-0.7345 14.651 1.6213 4.9591 3.1069 8.2156 7.0878 11.912 13.465 0.81574 1.4056 1.7685 2.5842 2.4447 3.4608 0.12191 0.68125 0.12442 2.8988 0.19779 3.2883"/>
  <path d="m259.69 89.737c21.017-35.587 13.636-86.771 8.8436-86.771-4.312 0-22.575 36.096-30.715 76.795-0.33228-0.46303-0.92611-1.7494-1.2115-2.163 8.6596-41.794 25.832-77.598 32.025-77.598 7.9543 0 14.89 52.567-7.5483 90.561-0.65334 1.1012-2.1199 0.40848-1.3942-0.82333"/>
  <path d="m274 98.999c51.115-19.041 59.507-62.523 57.121-64.43-2.5449-1.7025-30.305 14.302-65.658 44.973 0.54427-0.94257 1.1329-2.5119 1.686-3.6168 32.2-28.607 61.674-46.385 65.835-43.612 4.9882 3.3276-6.9622 50.208-58.437 68.208-1.2192 0.42625-2.0831-0.9502-0.54805-1.5223"/>
  <path d="m260.14 136.72c-1.3612-0.19922-1.1963-1.3295 0.17118-1.2559 11.529 0.62799 19.958-4.5746 20.176-7.9568 0.19167-2.9546-2.2429-6.6958-8.1852-9.6733-2.2023-1.1012-2.0006-1.7659 0.45038-1.5274 45.546 4.4326 66.404-21.895 65.351-23.877-0.69013-1.2978-34.758 0.0572-58.594 5.1811 1.6657-0.73835 4.2144-1.9689 5.6213-2.7567 16.341-3.2236 54.788-6.7668 55.656-3.679 1.5109 5.3447-23.552 30.702-64.615 27.07 4.6064 2.8126 6.7808 6.5651 6.456 9.5718-0.5379 4.9641-10.12 10.71-22.488 8.9032"/>
  <path d="m242.62 153.93c0.13449-0.34882 1.8065-0.76245 1.7406-0.98825 14.673 0.94891 22.951-4.2639 23.183-9.2749 0.11939-2.5702-1.7824-5.5426-6.4751-7.4748 0.6013-0.13449 2.3368-0.26755 2.9369-0.0672 3.9695 1.9549 5.8534 5.2407 5.7405 7.6764-0.24597 5.2661-10.745 13.06-27.126 10.129"/>
  <path d="m277.13 119.74c0.49605-0.60641 1.0479-1.6556 1.2686-2.4282 0.30207-0.0698 1.3244 0.41104 1.6556 0.55186-0.27546 0.88295-1.2141 2.262-1.7659 2.9242-0.40848-7e-3 -0.84616-0.85123-1.1583-1.0479"/>
  <path d="m186.42 235.78c24.917-0.32329 42.916-13.111 46.896-28.302 0.38184 0.0953 1.0999 0.29955 1.5706 0.39201-4.0114 15.44-20.367 27.752-42.418 29.523-2.0526-0.32365-4.7738-1.1494-6.0488-1.6137"/>
  <path d="m236.74 221.22c0.27905-0.41355 0.64064-1.3638 0.96289-1.5198 1.9042 0.15607 3.8122-0.16362 4.5226-0.47825 2.3546-1.0415 4.3463-3.1234 5.0707-5.2508 0.46811-1.3777 0.48461-2.4218 0.35026-2.7123 0.3553 0.15607 1.0783-0.0468 1.5122 0.0324 0.17117 0.93498 0.18124 2.0691-0.18772 3.2667-0.8157 2.6527-3.0739 5.1037-5.9752 6.2936-1.2483 0.51126-4.189 0.66093-6.2556 0.36788"/>
  <path d="m290.87 208.86m-10.522 23.585c-0.82458 0-1.6162-0.10392-2.3241-0.3463-4.3907 0.58864-12.008-6.6654-25.611-11.005-0.81318-0.25892-8.1686-0.43894-10.769-0.30207 0.5506-0.23591 2.1288-1.4488 2.9014-1.8864 2.8049 0.0924 7.0396 0.59753 8.156 0.89439 14.332 3.8211 20.932 11.147 25.691 10.739 0.14097-0.0108 0.71041 0.19527 1.0771 0.24742 2.791 0.39327 7.4062-1.5591 7.273-2.0882-0.11148-0.45038-5.6187-2.248-6.7047-3.4354-0.86141-1.3219-4.1954-1.7723-7.3606-3.3784-3.7716-1.9156-4.3996-3.0916-4.2892-4.0875 0.0683-0.61148 1.2965-1.8129 7.8477-3.3441 2.678-0.6267 6.1389-1.6594 6.7757-2.2746 0.14457-0.13952 1.0009-0.50367 1.3676-0.64826 2.1694-0.85127 5.7596-2.5779 5.9219-2.9483 0.17117-0.38691-3.6562-1.1341-6.2543-1.006-0.29955 0.0144-1.1773 0.10392-1.3105 0.0144-2.0615-1.4412-7.7183 1.294-15.869 2.9166 0.6597-0.38439 1.6112-1.516 1.9549-2.0514 7.2832-1.8192 12.077-4.1788 14.38-2.4307 3.9162-0.69901 10.028 0.77384 9.5718 2.484-0.29956 1.124-4.2677 3.2616-8.6394 4.836-0.46303 0.85886-2.8975 1.757-7.4748 2.6704-2.3812 0.47577-6.6603 1.6721-6.6983 2.1212-0.0367 0.44908 1.497 1.3346 3.49 2.3292 2.541 1.2673 6.8861 1.903 7.6866 3.6118 4.1065 2.7872 8.0774 3.2743 8.1902 4.8094 0.0622 0.84998-3.5762 3.5585-8.9793 3.561"/>
  <path d="m266.03 217.14c-0.5912-0.40467-1.7203-1.2673-2.1732-1.6302-0.87788-0.70152-0.60767-1.3498 0.4529-0.99586 0.61274 0.20426 1.9689 1.2014 2.5347 1.856 0.86011 0.99586 0.0457 1.3587-0.81445 0.77003"/>
  <path d="m206.87 237.08c0.61274-0.13198 1.8522-0.5455 2.5411-0.62796 3.1234 1.0935 8.6076 1.9118 10.375 1.5972 3.8338-0.68377 6.6464-3.3162 7.7576-5.7836 0.52266-1.1608 0.83728-2.1972 0.62925-3.0993 0.24346-0.29812 1.0694-0.94006 1.2927-1.2128 0.64571 1.4132 0.66348 3.2274-0.17765 5.0923-1.2851 2.8544-4.7408 6.3444-9.181 6.9774-2.5702 0.36792-10.29-1.0872-13.237-2.9432"/>
  <path d="m226.54 240.58c-1.2851-0.13845-5.691-1.0225-6.9762-1.2889 0.87026-0.0888 2.2023-0.7764 2.843-1.0454 0.66478 0.146 3.3073 0.72692 4.3628 1.0491 1.8636 0.5671 1.3308 1.4526-0.22979 1.2851"/>
  <path d="m231.78 233.25c-0.28409-0.22583-1.2534-0.82458-2.6108-2.3723-0.15607-0.7764-0.13054-1.7672-0.20678-2.9166 0.39076 0.42247 2.47 3.1056 3.5826 4.2347 1.8458 1.8712 1.0733 2.5334-0.765 1.0542"/>
  <path d="m232.61 251.24c-2.1008-1.1202-7.75-8.1116-10.48-12.032 0.80556 0.0507 1.913 0.16254 2.1833 0.1611 2.9724 4.0393 7.7817 9.7114 9.0567 10.393 2.8328 1.5097 9.7303 0.70663 10.518-0.17009 0.28913-0.32114 0.47192-1.0669 0.39327-1.5186 0.3996 0.036 1.4488 0.0521 1.719 0.0823 0.11544 0.86904 0.0608 1.9436-0.42243 2.6616-1.5097 2.2493-10.258 1.8674-12.968 0.42247"/>
  <path d="m243.46 248.7c-2.0222-0.43387-8.9933-4.3209-11.21-5.3168-1.3841-0.62166-0.97814-1.4767 0.48206-1.0593 2.2493 0.6419 9.5413 4.529 11.012 4.784 2.5411 0.43894 6.739 0.47447 8.2956 0.0683 1.4183-0.37044 1.7761-1.53 1.7342-2.3799-0.0978-1.9384-1.5832-2.0006-1.8953-2.3127-1.4767-1.4767-7.3441-1.8027-8.2879-2.4091-0.78909-0.50745-4.4922-5.809-4.6254-6.6818-0.13809-0.89438 0.19275-3.2768 0.12802-4.241-0.10644-1.5947 0.67999-1.8446 1.157-0.32078 0.32114 1.0276 0.19168 3.6308 0.32114 4.3374 0.0787 0.43513 3.5014 5.2039 3.9505 5.4932 0.24598 0.15859 8.0963 1.3485 8.4173 2.8912 1.7329 0.3755 2.1541 1.8408 2.2163 3.1157 0.0874 1.7571-0.64701 3.5369-2.7072 4.0748-1.7456 0.45418-6.3203 0.52902-8.9882-0.0432"/>
  <path d="m252.57 248.38c0.65082-0.59372 1.3244-1.4932 1.5249-1.9397 2.5093-1.0225 3.4063-4.3488 2.4345-6.4611-0.58484 1.0809-1.6746 1.8446-3.3492 2.3838-0.31322-0.26252-1.0568-0.51759-1.5985-1.0656 1.3143 0.0788 3.3314-1.195 4.0799-2.9559 0.5506-1.294 1.1633-1.2115 2.0882 0.54549 1.927 3.6625-0.28913 9.4449-5.1481 9.4919-0.0108 0-0.0216 1e-3 -0.0324 1e-3"/>
  <path d="m229.78 230.32c2.3013-2.0755 3.4596-5.3815 6.4814-6.4687 3.0562-1.0999 6.314 1.9055 6.47 4.1763 0.10033 1.4488-1.4551 1.8179-2.536 3.084-0.19671-0.33372-0.29165-1.1012-0.47573-1.5566 0.39453-0.4415 1.2394-0.97559 1.3879-1.4716-0.35529-2.0171-2.2784-3.3416-4.293-2.6172-2.3952 0.86267-4.3603 4.1408-6.0323 5.856-0.35278-0.16757-0.81826-0.55311-1.0022-1.0022"/>
  <path d="m241.77 227.17c0.58232-0.32724 2.4535-1.0656 2.3482-1.2762-0.75356-1.5084-4.1496-2.333-5.3257-1.3448-0.39579-0.15859-1.8192-0.31717-2.2506-0.34127 0.82336-0.86267 1.9702-1.223 3.1754-1.2674 3.3415-0.12551 6.692 1.974 6.8797 3.4798 0.0532 0.42247-0.8969 0.71296-1.5033 0.8969-0.55059 0.16758-2.7948 1.1342-3.4798 1.9512 0.21073-0.52776 0.26395-1.8459 0.15607-2.0983"/>
  <path d="m277.96 230.6c1.6936 0.0482 3.3416-4.1434 1.8268-5.634-0.31969-0.31322 1.2509-1.1088 1.4767-0.72311 1.7494 2.999 0.29165 7.1271-2.961 7.8287-0.28301 0.0633-0.66603-0.94006-0.34271-1.4716"/>
  <path d="m283.01 212.18c1.3587-1.1925 0.9895-3.712-0.38949-4.6622-0.36789-0.25245 0.20821-1.7444 0.5785-1.4932 2.0019 1.3562 2.7111 4.7282 0.93373 7.32-0.11688 0.16866-1.4577-0.87026-1.1227-1.1646"/>
  <path d="m231.78 229.08c-0.57976-0.29056-1.8725-0.50108-2.6895-0.26395 0.21685-0.82585 0.34775-0.87914 0.60641-1.4234 0.87026-0.23734 2.267 0 2.8734 0.63303-0.16758 0.21936-0.61781 0.73202-0.79035 1.0542"/>
  <path d="m136.65 229.51c-3.7006-1.1557-6.4421-6.4548-5.431-13.025 0.22203-1.45 1.2014-1.3612 1.1595 0.10537-0.16999 5.8928 1.9524 9.9397 4.9045 10.863 4.0431 1.2635 8.8588-0.52647 13.184-4.8512 1.0682-1.0695 1.7608-0.26503 0.79035 0.89565-4.5277 5.4208-10.47 7.3073-14.607 6.012"/>
  <path d="m123.22 256.72c-2.5994-0.34882-5.124-1.9867-6.862-5.0948 0.0609-1.0111 0.14334-3.0434 0.16999-4.6013 0.56834 4.2397 3.4151 7.202 6.9686 7.679 4.5632 0.61907 9.8483-3.103 13.535-11.81 0.87662-2.0653 1.431-1.9689 1.5528 0.2715 0.31969 5.8344 3.0041 8.2245 5.8344 8.3349 4.3044 0.1762 10.456-5.2128 12.379-15.623 0.19418 0.0874 0.91848 0.24993 1.4234 0.23734-2.2188 11.593-8.6317 17.586-14.001 17.364-2.9407-0.114-5.79-2.1871-6.8912-7.3961-4.3184 8.4173-9.3713 11.276-14.11 10.639"/>
  <path d="m79.178 300.46c-1.875-1.0162 3.476-19.579 13.361-43.672 0.86139-1.1152 2.9026-3.2414 3.7792-4.6559-6.2099 13.307-16.035 45.323-15.169 46.078 1.7393 1.516 21.13-9.4931 30.026-28.694 4.2131-9.0935 4.7764-18.125 4.1852-24.004-0.18901-1.8852 1.1126-2.0082 1.3498-0.13306 1.0479 8.2828-0.0533 15.967-4.1865 25.043-8.9248 19.598-28.384 32.727-33.346 30.038"/>
  <path d="m29.448 290.18c-0.59118-0.76881-0.94639-3.1576 16.431-21.648 7.627-8.1154 18.341-19.004 27.9-27.378 1.242-0.52014 3.5039-1.4374 5.0694-1.9436-9.7862 8.1547-22.037 20.54-31.551 30.825-8.8981 9.62-15.21 18.087-14.91 18.762 0.90326 2.0412 22.22 0.43642 42.58-15.317 10.773-8.3349 18.021-16.929 26.599-31.57 0.80938-1.3803 1.8852-0.68128 1.1557 0.7358-7.1601 13.918-17.019 24.691-26.817 32.265-22.011 17.011-43.506 19.113-46.457 15.269"/>
  <path d="m0.035753 232.91c0.49984-2.229 24.989-9.1366 54.035-16.068 15.972-3.8122 28.199-6.0298 33.173-6.5905 0.19918 0.3717 0.63938 1.5274 1.261 1.8915-4.6939 0.32077-17.937 2.522-34.077 6.3279-24.023 5.6657-51.153 14.201-51.405 15.235-0.62924 2.574 36.687 24.765 80.202 2.3216 1.6556-0.85378 2.3267 0.55819 0.6914 1.4411-43.293 23.402-85.304 1.7748-83.881-4.5582"/>
  <path d="m218.02 201.76c-16.625-8.0253-27.501-16.566-33.328-27.532-2.2645-4.2639-3.1208-10.689-3.131-17.545-1e-3 -1.2128-0.0608-3.3809-0.23734-4.5024-0.32725-2.0666 0.54423-2.0805 1.0898-0.3463 0.35781 1.138 0.55818 3.0904 0.60511 4.8487 0.18772 7.0866 1.4056 12.549 3.5065 16.505 5.0174 9.4436 16.558 19.534 32.152 27.062 31.33 15.125 49.01 12.01 50.571 5.6213 1.1367-4.6457-2.1047-9.7938-9.9587-12.138-1.4323-0.42625-1.1595-1.4132 0.29668-1.0897 9.5388 2.1199 12.993 8.808 11.742 13.922-1.7697 7.2451-19.046 11.735-53.309-4.8056"/>
  <path d="m262.97 179.9c8.8284-2.1719 13.091-8.7294 12.157-11.533-0.6673-1.9981-2.2835-2.4954-15.533-2.4954-1.5858 0-1.6492-1.0301-0.0683-1.1798 13.222-1.2521 16.633-0.0924 17.612 2.8443 1.2064 3.6207-2.0108 10.124-10.792 12.889-0.92611-0.20031-2.2442-0.40849-3.3758-0.52522"/>
  <path d="m85.978 210.36c0.18901-2.5791 23.25-11.367 48.671-11.746 3.169-2.2442 9.1214-4.9299 12.421-5.6923 0.014 0.3603 0.25374 1.6454 0.27147 1.9397-2.9445 0.73706-8.6076 2.8836-11.635 4.9882-0.54043 0.37425-0.47954 0.37296-1.3308 0.3882-24.824 0.43513-46.243 10.017-46.002 10.667 0.87027 2.3381 10.895 8.0964 21.577 9.2115 8.3209 0.86774 16.798-0.56958 21.817-3.4887-0.0875 0.40215-0.0875 1.4551-0.10022 1.8839-18.524 9.436-46.112-2.4028-45.69-8.1509"/>
  <path d="m157.91 237.1c-3.9162-0.17764-8.1737-3.528-9.9498-11.377 0.27276-0.27654 1.1697-0.9895 1.4069-1.1735 1.2154 6.3888 4.7307 10.424 8.5962 10.599 1.9473 0.0748 5.1963-2.1249 5.7799-3.5864 0.17873 0.36918 0.78529 1.0288 1.0999 1.3562-1.8204 2.7694-5.0238 4.2562-6.933 4.1814"/>
  <path d="m252.96 157.43c28.894-11.737 33.306-34.532 32.526-34.915-0.63432-0.3107-3.3428 0.31717-4.9426 1.0504-0.24849-0.19527-1.0162-0.96163-1.1176-1.2445 3.6105-1.9778 7.1778-2.5322 8.2549-1.7266 1.3955 1.0492-2.0412 22.608-28.427 35.756-1.7317 0.37298-4.8753 0.8335-6.2936 1.0796"/>
  <path d="m122.73 139.07c2.9153 0.29056 5.6606 1.1925 7.9264 2.7022 1.3625 0.90834 1.9588 0.22979 0.69013-0.80431-1.8078-1.4716-4.2803-2.6134-7.1081-3.2236z"/>
  <path d="m100.56 147.47c-3.1703 4.9375-4.156 10.994-2.8189 16.794 2.1554 9.3498 10.154 17.082 18.485 18.063 2.673 0.31214 2.8164 0.29416 3.6422-1.9765 4.3095-11.846 9.5489-14.532 18.914-12.529 11.759 2.5246 16.907-4.8094 16.779-9.2166-0.0431-1.5274-0.96667-1.1862-1.1671 0.26899-0.5658 4.0976-6.0006 9.3523-15.274 7.3656-10.603-2.2772-15.957 0.31466-20.771 13.557-0.40215 1.1037-0.40469 1.1037-1.9321 0.92355-6.9318-0.81574-14.679-7.8414-16.799-17.035-1.28-5.5502-0.10278-11.618 3.7716-16.512z"/>
  <path d="m237.79 154.14c5.5883-0.83728 9.502-3.6917 9.2178-6.8201-0.19922-2.1846-2.3025-5.0238-7.4697-6.4294-1.8002-0.49097-2.2391-1.7482 0.3107-2.739 4.9908-1.9397 6.7136-5.6987 6.1148-8.8956-0.59623-3.1842-4.7637-5.7253-9.7177-6.0539-2.876-0.19167-2.8607-1.3397 0.0457-1.2674 6.4066 0.15859 10.965 2.961 11.707 6.9216 0.69394 3.7044-1.1874 8.2651-7.2959 10.691 5.7926 1.4107 8.2854 4.9451 8.5214 7.542 0.37044 4.0799-3.3225 7.3162-11.193 8.2651-3.287 0.39708-3.5141-0.72314-0.24094-1.2141"/>
  <path d="m234.06 164.52c-2.4865-0.3427-2.3635-1.6428 0.0953-1.3003 4.5214 0.6305 9.5908-0.64446 10.136-1.8725 0.48209-1.0834-3.1018-5.2749-6.3799-6.196-0.43006-0.1219 0.93243-1.0048 1.3663-0.88424 3.6422 1.0251 7.4988 5.6111 6.7821 7.8059-0.67236 2.0564-5.9562 3.2806-12 2.4471"/>
  <path d="m128.07 183.27c-1.889-2.3888-0.8855-3.9949 1.5325-3.778 8.9387 0.80305 13.733-2.6235 15.934-12.263 0.41611-0.0557 1.5579-0.2751 1.9245-0.39201-2.3076 10.991-7.4494 14.927-18.036 13.973-0.85632-0.0712-1.1278 0.4402-0.32095 1.4615 4.2461 5.379 15.122 7.1309 20.746 3.4938 3.4735-2.2493 4.9413-6.7136 4.8474-13.153-0.0288-2.1326 0.29559-3.169 1.889-5.5604 2.6426-3.9644 2.9255-8.0164 1.497-10.872-1.2293-2.4637-4.1306-3.3517-7.6117-2.8113 1.2636-0.65079 2.2176-1.4145 2.8531-1.7329 3.3276 0.27151 5.497 1.7088 6.3989 3.5103 1.7292 3.4583 1.6758 7.3758-1.889 12.726-1.3296 1.993-1.6645 2.9673-1.6404 4.7053 0.10789 7.391-1.379 12.284-5.3104 14.828-5.6264 3.641-17.638 2.4244-22.814-4.1345"/>
  <path d="m132.6 180.35c-3.2515-3.4075-4.1065-9.1924-3.065-13.439 0.33998-0.21829 1.0961-0.32078 1.6036-0.24993-1.3536 4.1344 0.0736 10.542 3.8858 13.439-0.42753 0.26251-1.9156 0.37931-2.4244 0.24993"/>
  <path d="m128.68 180.15c-0.43006-1.7532-1.176-3.6891-1.8192-4.5873-1.5109 0.52902-4.2676 0.99587-6.2289 0.79542-0.0393-0.37932 0.49222-1.4716 0.59879-1.6124 1.8788 0.1496 4.4592-0.20678 5.3409-0.67618 0.5176-0.27402 0.63685-0.27654 1.0314 0.14349 1.261 1.3473 2.3482 4.274 2.8062 5.8712-0.44909 0.14852-1.5629 0.0446-1.7291 0.0658"/>
  <path d="m180.62 235.32c-21.288-7.698-31.601-22.018-34.132-46.949 0.34886-0.14456 1.2128-0.57721 1.5718-0.53154 2.4015 24.728 12.273 37.842 33.276 45.436 23.062 8.3374 51.537 0.25137 60.933-23.199 0.37932 0.13054 0.90708 0.34127 1.5109 0.58354-9.8927 24.719-40.782 32.75-63.16 24.661"/>
  <path d="m164.35 233.91c-11.68-12.085-18.058-28.274-18.285-45.778 0.33872-0.0964 1.1557-1e-3 1.6162-0.24094 0.18523 17.151 6.5106 32.84 17.948 44.675 17.474 18.08 37.138 17.352 38.611 12.806 0.44276-1.3688-1.0885-3.5217-2.4028-4.4174-1.2584-0.85756-1.3866-1.568 0.41233-1.5109 4.4972 0.14349 7.665-0.72562 9.469-1.6505 0.46052 0.15211 1.3574 0.47191 2.0577 0.59627-1.8293 1.4881-5.3003 2.6083-9.3586 2.6349 1.6873 1.4462 2.2937 3.3631 1.9994 4.9882-1.0504 5.7583-21.378 9.3053-42.068-12.101"/>
  <path d="m131.28 123.45h9e-3zm-0.25119 6.8962c0.67618 3.6625 2.6502 8.3133 6.0945 12.412 7.0231 8.3615 12.279 10.322 15.117 8.5607 2.4662-1.5287 1.908-8.9248-4.7929-17.924-4.9451-6.6412-8.9793-9.6771-12.058-10.096l1.2356-1.5706c3.3073 0.99713 7.3301 4.2664 12.12 10.701 7.816 10.494 7.9162 18.064 4.9781 20.238-3.405 2.5233-9.1062 1.53-17.841-8.8677-3.183-3.7894-5.2331-7.9923-6.2074-11.68z"/>
  <path d="m137.73 136.37c-1.4247 1.1075 3.7767 8.0672 5.2483 6.7592 1.0948-0.97303-4.0114-7.7196-5.2483-6.7592"/>
  <path d="m132.2 136.57c2.8531-3.8921 11.104-10.72 17.081-13.326 1.5515-0.67743 1.9461 0.3348 0.4491 1.1227-5.8864 3.1005-15.456 11.508-16.72 14.187-0.255-0.42244-0.65081-1.3815-0.80938-1.9841"/>
  <path d="m113.65 123.33c-2.0767-1.8015-2.319-5.9575 0.36536-9.5578 0.99207-1.3308 2.7567-2.0032 3.9188-1.5731 0.98826 0.36666 1.346 1.4183-0.0368 1.0986-0.6432-0.14852-1.7406 0.30818-2.5842 1.4424-1.3942 1.8699-2.4218 5.3574-0.38186 7.1259 1.4323 1.2407 4.8563 0.26144 7.0662-4.3209 2.1681-4.4973 1.4374-8.7167-0.6952-10.545-1.4475-1.2382-3.1627-1.3004-5.4919-0.21936-1.4272 0.66222-1.8344-0.0547-0.65968-1.0251 2.0146-1.6644 5.3384-2.0247 7.3593-0.29308 2.5778 2.2087 3.4278 7.2312 0.80557 12.668-2.7884 5.7875-7.5229 7.0574-9.6656 5.1988"/>
  <path d="m118.23 105.05c2.1338-1.2952 2.9267-7.2121-0.62289-10.828-3.1792-3.2426-8.4364-2.9648-10.98 0.43894-0.83602 1.1189-1.6492 0.44149-0.95147-0.76878 2.5043-4.3463 9.3561-5.1354 13.34-1.0783 3.3771 3.443 3.5902 9.3472 1.2724 12.477-0.51633-0.0863-1.4678-0.23231-2.0577-0.24094"/>
  <path d="m73.452 112.64c-5.1557-3.4481-6.4332-9.6784-4.156-14.368 2.3444-4.8297 7.4709-7.0865 12.63-5.9993 2.9014-5.9486 8.5252-9.2216 14.835-8.6977 5.5109 0.45038 9.9663 3.8655 11.567 8.4719-0.4973 0.38313-1.0466 1.0416-1.2864 1.3384-1.124-4.4174-5.2635-7.3022-10.494-7.7298-5.9258-0.47572-11.17 2.7237-13.425 7.882-0.2829 0.64952-0.34252 0.62417-0.9502 0.45796-4.1801-1.1151-8.7484 1.0149-10.79 5.2216-1.9524 4.0228-0.80811 9.2546 2.7275 12.472 1.2585 1.1456 0.53536 1.7507-0.65968 0.95149"/>
  <path d="m83.366 143.7c-9.6631-6.8836-14.073-19.859-10.975-32.869 0.26896 0.28158 1.1037 0.97304 1.3752 1.261-2.3203 11.088 1.2052 23.053 10.701 29.818 11.821 8.4186 35.953 5.4881 48.418-15.898 6.5385-11.22 12.204-16.351 19.563-17.606 2.5829-0.43894 5.7735-0.31574 7.9784 0.76496 2.4078 1.0923 7.24 4.463 9.8699 7.6372-6.3508-5.4094-12.12-7.4418-17.611-6.503-5.7976 0.98699-12.372 6.1744-18.403 16.521-12.094 20.75-36.864 26.887-50.918 16.874"/>
  <path d="m101.29 137.65c-5.4957-1.5946-10.446-8.307-10.908-15.396-0.0875-1.3549 0.95401-1.4653 1.1748-0.12551 1.0492 6.3761 5.2584 12.326 10.069 14.431 1.3422 0.58739 0.71931 1.3968-0.3362 1.091"/>
  <path d="m95.124 138.07c-2.7034-0.0324-5.1912-2.0894-6.1668-4.5303-0.4491-1.1214 0.46177-1.5528 1.091-0.41991 1.0022 1.8053 3.4862 3.6194 5.0758 3.8173 1.3422 0.16758 1.3308 1.1481 0 1.1329"/>
  <path d="m180.61 147.4c-0.56577-0.76752-1.1823-2.6882-1.4602-5.549-1.3397-13.845-6.2683-23.523-17.158-30.409-12.686-8.0215-26.537-7.6599-38.198 1.3422 0.0176-0.47698 0.21695-1.7418 0.35015-2.2733 11.952-8.4821 26.101-8.9667 38.911-0.86523 11.591 7.3301 16.001 16.732 17.475 31.967 0.24345 2.5119 0.62036 4.1382 0.95652 4.9641 0.6318 1.5541 0.10285 2.1529-0.87662 0.82337"/>
 </g>
</svg>
