<?xml version="1.0" encoding="UTF-8"?>
<!-- Created with Inkscape (http://www.inkscape.org/) -->
<svg version="1.1" viewBox="0 0 307.89 309.93" xmlns="http://www.w3.org/2000/svg">
 <path d="m81.071 40.147c-10.02 10.343-10.99 23.435-7.5958 28.284l37.496-38.304c-7.5958-2.5866-19.88-0.32398-29.9 10.02" fill="#fff"/>
 <path d="m24.503 118.21c-3.9562 6.0994-3.1643 16.018 4.3633 26.991l13.739-32.648c-6.4053-0.17795-14.223-0.32293-18.102 5.6571" fill="#86cabf"/>
 <path d="m90.574 37.292c1.4558 1.0967-0.3613 6.497-3.6034 10.493-2.7881 3.4339-7.4348 7.1918-9.5088 5.6284-1.4644-1.1042-0.45402-5.6475 2.5994-9.6282 3.1398-4.0958 8.4036-8.0818 10.513-6.4927" fill="#ffe226"/>
 <path d="m88.435 39.016c0.80572 0.39114-0.53289 3.7366-2.722 6.7932-1.734 2.4204-5.1189 5.7488-6.3147 5.1189-1.07-0.56274 0.28135-3.5128 2.4342-6.5257 1.6083-2.2509 5.2148-6.06 6.6025-5.3864" fill="#0f141b"/>
 <path d="m26.323 143.28c-6.0174-8.9664-6.8828-19.813-2.9522-25.873 3.2591-5.0241 10.706-6.4565 15.747-5.979 0.02236 0.2568-1.3621 2.1337-1.5241 2.2083-3.8666-0.27612-9.6239 0.72259-12.498 5.4408-3.2655 5.3619-1.6946 14.459 2.1443 21.221-0.0021 0.26979-0.75137 2.8659-0.91657 2.982" fill="#434f55"/>
 <path d="m71.756 68.369c-2.9692-6.886-0.51264-19.519 8.7223-29.051 9.2221-9.5195 20.257-12.455 28.952-10.795 8e-3 0.13957-1.7042 1.6061-1.9312 1.636-7.1844-0.64479-17.34 2.4673-25.539 10.69-6.4458 6.465-10.99 19.018-8.4729 25.33-0.01692 0.29305-1.4377 2.1326-1.7308 2.1902" fill="#0f141b"/>
 <path d="m82.364 282.83-49.052-33.214c-4.9292-1.0498-12.364 3.4755-7.9198 11.879 8.4143 15.912 29.496 28.123 45.82 29.9 5.2223 0.56915 11.718-0.72684 11.152-8.5656" fill="#f3a251"/>
 <path d="m58.431 85.599c7.1119-8.9706 14.375-19.162 23.932-30.097 31.355-35.88 61.575-56.227 101.44-54.53 45.578 1.9387 74.264 32.443 90.243 63.905 29.615 58.307 48.998 149.36 10.264 197.54-27.674 34.42-78.9 44.679-128.61 39.564-59.641-6.1378-98.059-17.522-125.71-52.853-4.8972-68.689 13.191-129.3 28.434-163.53" fill="#01af96"/>
 <path d="m209.72 32.012c17.886 4.5253 23.932 22.278 20.041 35.018-4.31 14.115-19.159 21.613-33.833 18.856-19.503-3.663-26.291-20.041-22.735-33.186 4.424-16.355 21.068-24.599 36.527-20.688" fill="#fff"/>
 <path d="m126.21 28.026c-2.6367-3.257 1.0722-9.3202 11.745-14.207 9.8488-4.5093 20.6-6.1804 22.519-3.0332 2.6943 4.4176-6.9915 11.768-12.283 14.547-8.62 4.5253-18.947 6.4394-21.981 2.6932" fill="#86cabf"/>
 <path d="m166.94 10.894c9.4822 4.0947 29.332 3.2325 32.781-0.75458 2.7358-3.1632-2.2275-6.2081-8.4047-8.5635-2.4555-0.28338-4.9558-0.49558-7.5169-0.60537-19.328-0.82276-36.386 3.5501-52.407 12.348 6.7485 9.1284 26.912 4.6926 35.548-2.4246" fill="#f3a251"/>
 <path d="m160.48 10.786c-1.9184-3.1473-12.671-1.4761-22.52 3.0332-1.4249 0.65225-2.7156 1.3269-3.8943 2.0111 6.401 4.2929 17.764 2.8339 26.196-0.93575 0.7631-1.4857 0.95174-2.9064 0.21849-4.1085" fill="#f9cda6"/>
 <path d="m216.27 256.32c-1.5592-15.065-11.453-33.345-23.273-34.345-7.4711-0.63201-25.698 8.7276-36.204 28.527l9.9405 11.636c7.4348-1.9397 16.242-5.9396 19.475-7.3943 1.4729-0.66183 2.0953-0.95705 3.7174 0.64694 3.5565 3.5149 7.5563 7.3538 13.173 11.516 7.8772 5.8373 14.629 3.4904 13.172-10.586" fill="#f3a251"/>
 <path d="m194.31 43.249c2.7625 0.7695 4.6404 5.7733 2.6986 13.707-1.6317 6.6621-6.1303 10.163-9.4865 9.4545-4.2034-0.88781-5.4994-6.9084-3.8027-13.231 1.8257-6.8071 6.6643-11.025 10.591-9.9309" fill="#ffe226"/>
 <path d="m192.42 46.789c2.2594 0.46253 2.836 4.7118 1.6232 9.0335-1.2917 4.6063-3.3124 7.5958-5.5974 7.0714-1.8598-0.42631-2.7913-3.9625-1.8417-8.6956 1.0082-5.0198 3.8602-7.8089 5.8159-7.4093" fill="#0f141b"/>
 <path d="m229.77 51.289c-1.6647 24.434-21.335 31.583-35.134 28.991-12.039-2.2616-19.267-9.6559-22.205-18.076 1.0668 10.576 8.5369 20.868 23.498 23.678 14.673 2.7561 29.523-4.7406 33.833-18.856 1.4825-4.8557 1.5166-10.437 9e-3 -15.738" fill="#dcdbdc"/>
 <path d="m62.111 269.11c-1.5646 1.702-2.7785 2.399-2.7785 2.399-9.2648 5.2266-19.88 2.9426-27.68-1.1681 10.219 11.43 26.426 19.618 39.559 21.048 5.2223 0.56805 11.717-0.72794 11.151-8.5667z" fill="#d28c46"/>
 <path d="m157.78 251.66 8.9456 10.476c0.92935-0.24259 1.8811-0.51709 2.8398-0.81494 0.95871-0.29788 1.9257-0.61863 2.8866-0.95388 0.96093-0.33525 1.9148-0.68512 2.8507-1.0398 0.93598-0.35464 1.8529-0.71334 2.7368-1.0694 0.88389-0.35607 1.7354-0.70963 2.5401-1.0491 0.80466-0.33948 1.5623-0.66612 2.2606-0.97104 1.3965-0.60987 2.5547-1.1319 3.3628-1.4956 0.36822-0.16586 0.6818-0.30864 0.97262-0.40438 0.14541-0.0477 0.28619-0.0831 0.42309-0.10453 0.13691-0.0211 0.27029-0.0272 0.40591-0.0181 0.13561 0.0121 0.27214 0.0396 0.41371 0.0891s0.28864 0.11843 0.44338 0.21238c0.15474 0.0937 0.3182 0.21178 0.49334 0.35595 0.17513 0.1441 0.36239 0.3147 0.56515 0.51521 0.88886 0.87872 1.8053 1.7785 2.768 2.6978 0.96273 0.9192 1.9711 1.8583 3.0443 2.8179 0.53661 0.47981 1.09 0.96515 1.6611 1.455 0.57111 0.48987 1.1602 0.98472 1.7704 1.4847s1.2414 1.0043 1.8953 1.5144c0.65384 0.51005 1.3306 1.0255 2.0327 1.5456 0.49239 0.36489 0.97942 0.69751 1.4613 0.99759 0.48186 0.3 0.9575 0.56737 1.4254 0.8009 0.23392 0.11691 0.4665 0.22507 0.69629 0.32473 0.22979 0.0997 0.45703 0.19063 0.68224 0.27311 0.22523 0.0828 0.44799 0.158 0.66819 0.22326 0.22021 0.0653 0.43782 0.12084 0.65259 0.16858 0.21476 0.0477 0.42652 0.0873 0.6354 0.11722 0.20888 0.0302 0.41565 0.0492 0.61823 0.0607 0.20257 0.0121 0.4021 0.0151 0.59794 9e-3 0.19583-6e-3 0.38741-0.0242 0.57608-0.0483 0.18867-0.0242 0.37316-0.0595 0.55423-0.10301 0.18105-0.0438 0.35933-0.0967 0.53236-0.15922 0.17302-0.0625 0.34127-0.13383 0.50583-0.2154 0.16456-0.0816 0.32519-0.17371 0.48085-0.27492 0.15564-0.1009 0.30641-0.21178 0.45274-0.33253 0.14634-0.12054 0.28809-0.24985 0.42465-0.3903 0.13655-0.14048 0.2686-0.29093 0.39498-0.45117 0.12637-0.16042 0.24646-0.33153 0.3622-0.51207 0.11574-0.18066 0.22631-0.37042 0.33097-0.57141 0.10468-0.2009 0.20344-0.41223 0.29664-0.63383 0.0932-0.22175 0.18103-0.45383 0.26229-0.6963 0.0813-0.24259 0.15592-0.49522 0.2248-0.75875 0.0689-0.26344 0.13281-0.5379 0.18891-0.82273 0.0561-0.28489 0.10544-0.58044 0.14831-0.88678 0.0429-0.30631 0.0785-0.62271 0.10773-0.95077 0.0293-0.32803 0.052-0.66791 0.0671-1.0179 0.0151-0.34996 0.0227-0.71132 0.0236-1.0834 6.3e-4 -0.37214-6e-3 -0.75452-0.0202-1.149-0.0142-0.39449-0.0359-0.80062-0.0656-1.2177-0.0296-0.41709-0.0684-0.84494-0.11395-1.2848-0.0908-0.8766-0.20952-1.7645-0.35596-2.6587-0.14643-0.89418-0.31915-1.7955-0.51831-2.6993-0.19918-0.90376-0.42541-1.8096-0.67444-2.7149-0.24827-0.9027-0.51993-1.8045-0.81494-2.7009-18.272 4.6978-37.69 6.4267-56.12 6.1152z" fill="#d28c46"/>
 <path d="m304.63 165.83c-5.5069 33.552-28.731 53.359-64.526 70.368-8.2731 3.9314-17.096 7.0086-26.203 9.35 0.29501 0.89633 0.56665 1.7982 0.81494 2.7009 0.24903 0.90536 0.47527 1.8111 0.67444 2.7149 0.19918 0.9038 0.37187 1.8051 0.51831 2.6993 0.14643 0.89419 0.2651 1.7821 0.35596 2.6587 0.0455 0.4399 0.0842 0.86775 0.11395 1.2848 0.0296 0.41712 0.0512 0.82325 0.0656 1.2177 0.0142 0.39452 0.0208 0.7769 0.0202 1.149-6.2e-4 0.37214-8e-3 0.73349-0.0236 1.0835-0.0151 0.34999-0.0379 0.68987-0.0671 1.0179-0.0293 0.32806-0.0648 0.64446-0.10773 0.95076-0.0429 0.30634-0.0922 0.60196-0.14831 0.88679-0.0561 0.28489-0.12 0.5592-0.18891 0.82273-0.0689 0.26344-0.14356 0.51628-0.2248 0.75875-0.0813 0.24259-0.16909 0.47467-0.26229 0.6963-0.0932 0.22175-0.19196 0.43286-0.29664 0.63383-0.10468 0.2009-0.21522 0.39083-0.33097 0.57141-0.11574 0.18066-0.23583 0.35171-0.3622 0.51207-0.12638 0.16042-0.25843 0.31081-0.39498 0.45117-0.13656 0.14048-0.27831 0.26978-0.42465 0.3903-0.14634 0.12054-0.29709 0.23141-0.45275 0.33253-0.15564 0.1009-0.31628 0.19305-0.48084 0.27492-0.16456 0.0816-0.3328 0.15287-0.50583 0.2154-0.17302 0.0625-0.3513 0.11571-0.53237 0.15921-0.18105 0.0435-0.36555 0.0779-0.55422 0.10302-0.18867 0.0242-0.38024 0.042-0.57608 0.0483-0.19583 6e-3 -0.39536 2e-3 -0.59794-9e-3 -0.20256-0.0121-0.40935-0.0311-0.61823-0.0607-0.20888-0.0302-0.42065-0.0695-0.63541-0.11722-0.21477-0.0477-0.43238-0.10332-0.65258-0.16857-0.2202-0.0653-0.44297-0.14048-0.66819-0.22326-0.22522-0.0828-0.45245-0.17341-0.68224-0.27311-0.22978-0.0997-0.46236-0.20785-0.69629-0.32474-0.46787-0.23353-0.94351-0.5008-1.4254-0.80089-0.48186-0.29999-0.96889-0.63271-1.4613-0.99759-0.70208-0.52011-1.3788-1.0355-2.0327-1.5456-0.65385-0.51002-1.2851-1.0144-1.8953-1.5144s-1.1993-0.99481-1.7704-1.4847c-0.57111-0.4899-1.1245-0.97523-1.6611-1.455-1.0732-0.95959-2.0816-1.8987-3.0443-2.8179-0.96273-0.91923-1.8791-1.819-2.768-2.6978-0.20278-0.2006-0.39002-0.37105-0.56515-0.51521-0.17513-0.14411-0.3386-0.26224-0.49334-0.35595-0.15474-0.094-0.30181-0.16284-0.44338-0.21238-0.14157-0.0496-0.27809-0.078-0.41371-0.0891-0.13562-0.0121-0.269-3e-3 -0.40591 0.0181-0.13692 0.0211-0.27767 0.0568-0.42309 0.10453-0.29081 0.0958-0.6044 0.23867-0.97262 0.40437-0.80813 0.36368-1.9663 0.88576-3.3628 1.4956-0.69828 0.30492-1.456 0.63156-2.2606 0.97104-0.80466 0.33951-1.6562 0.69307-2.5401 1.0491-0.8839 0.35607-1.8008 0.71476-2.7368 1.0694s-1.8898 0.70452-2.8507 1.0398-1.9279 0.65603-2.8866 0.95388c-0.95872 0.29788-1.9105 0.57247-2.8398 0.81494l-8.9456-10.476c-22.917-0.38731-44.308-3.9272-60.067-8.8379 0 0-25.599 18.721-67.152 7.0051 27.608 34.77 65.903 46.054 125.14 52.15 49.707 5.1168 100.93-5.1425 128.61-39.564 19.655-24.447 24.338-59.938 20.319-96.586z" fill="#009a82"/>
 <path d="m155.17 169.71c-15.436-3.0055-27.066-10.734-30.18-22.6-4.9409 25.757 31.16 31.849 32.542 32.077 3.2911 0.0329 4.3675-1.5838 4.5988-3.6503 0.25791-2.3063-1.3482-4.7342-6.9616-5.8266" fill="#009a82"/>
 <path d="m80.283 286.27c-1.0583 2.8211-3.71 4.9708-9.5025 4.3356-15.576-1.6978-35.311-13.495-44.015-29.955-2.9117-5.5068 0.72046-9.5653 4.6766-9.5429-0.04903-0.17281-1.2555-1.7457-1.4441-1.9856-5.2116-0.36449-9.3138 5.427-5.4951 13.091 8.1894 16.432 29.752 29.397 45.47 31.193 7.5425 0.86222 11.731-1.0924 13.539-5.9001z" fill="#0f141b"/>
 <path d="m201.81 32.215c-17.302 0-28.291 13.506-28.33 27.338-0.0501 17.65 14.536 25.65 27.67 25.896 18.907 0.35386 29.178-14.923 28.833-27.138-0.3357-11.926-9.1369-26.097-28.173-26.097m-0.37195 55.421c-18.988-0.12991-30.923-12.7-30.588-28.404 0.32506-15.2 11.921-29.03 30.836-29.187 15.108-0.12568 29.932 10.134 30.407 28.207 0.37196 14.196-9.6826 29.384-30.655 29.384" fill="#0f141b"/>
 <path d="m85.367 55.621-3.0625 1.1426c1.5172 4.0691 4.7715 7.0454 8.8574 9.1484 4.0859 2.1031 9.0493 3.4009 14.352 4.1992 7.7704 1.1699 16.318 1.1576 23.988 0.30469 7.6707-0.85289 14.425-2.5008 18.799-4.873l-1.5586-2.873c-3.6612 1.9856-10.195 3.6745-17.602 4.498-7.4068 0.82354-15.725 0.82745-23.141-0.28906-5.0784-0.76459-9.7337-2.0179-13.342-3.875-3.6081-1.8571-6.1236-4.252-7.291-7.3828z" color="#000000" fill="#f3a251" style="-inkscape-stroke:none"/>
 <path d="m86.727 50.009-5.9257 8.2971c-0.43164 4.9026 3.6631 1.8108 6.2529-1.8289 1.6125-2.2658 4.3601-7.3837-0.32719-6.4682" fill="#ffe226"/>
 <path d="m156.95 247.83c-11.145-2.8509-25.326 4.6873-31.193 20.203-6.1421 16.243-5.8937 34.698 11.798 39.84 9.4556 2.7476 26.017-2.7849 31.84-21.173 5.7275-18.087 1.4548-35.314-12.445-38.87" fill="#f3a251"/>
 <path d="m125.06 148.27c1.329-6.5513 7.3102-12.27 16.088-15.309-5.8639-22.083-18.695-42.098-42.193-49.34-12.131-3.7398-26.47-3.3487-40.389 1.8001-0.04583 0.0577-0.09166 0.11722-0.13643 0.17492-39.505 34.996-55.156 129.05-28.434 163.53 0.33252 0.42951 0.67783 0.83557 1.0157 1.2555 5.055 4.1714 10.812 7.5617 17.302 9.9512 36.193 13.323 79.517-16.162 93.31-65.943 1.5731-5.6784 2.7092-12.49 3.2346-19.916-14.837-6.5481-21.664-17.003-19.798-26.2" fill="#787063"/>
 <path d="m51.413 146.09c-0.69595-2.9863-1.9877-5.3257-6.7069-6.4916-13.134-3.2464-26.292 3.7707-30.332 17.671-3.8901 13.382 1.9941 27.45 15.219 32.782 5.0113 2.0207 7.5244 0.89847 10.102-1.4548 8.3226-7.5958 15.719-25.328 11.717-42.506" fill="#ffe226"/>
 <path d="m52.477 153.86c-8.6179-5.8692-21.292-1.7937-24.338 7.3453-4.4539 13.361 6.1485 22.286 16.288 21.798 4.9239-7.2899 8.5742-17.989 8.0498-29.144" fill="#fff"/>
 <path d="m59.598 117.87c7.924-4.3505 15.789-14.555 11.614-20.672-3.7238-5.4546-18.555-2.7604-26.651 4.3707-2.5706 3.7313-4.9846 7.7258-7.2313 11.931-1.5379 10.859 12.918 9.5035 22.268 4.3697" fill="#b8a9a2"/>
 <path d="m131.01 269.98c-2.0111-3.4958-0.64373-7.5585 2.6101-14.345-3.2282 3.2591-5.9769 7.4178-7.8633 12.406-6.141 16.243-5.8927 34.7 11.799 39.84 9.4545 2.7476 26.017-2.7838 31.839-21.172 2.527-7.9795 3.1046-15.789 1.7713-22.333-8.6189 14.6-36.977 11.132-40.156 5.6049" fill="#d28c46"/>
 <path d="m23.833 238.51c1.7266 3.9562 3.7728 7.5265 6.1644 10.613 0.33252 0.42845 0.67783 0.83452 1.0157 1.2544 5.055 4.1714 10.812 7.5627 17.302 9.9512 22.912 8.4356 48.68-0.29214 68.007-20.458-30.429 16.868-67.243 13.428-92.489-1.361" fill="#666054"/>
 <g fill="#0f141b">
  <path d="m156.81 179.14c-20.795-2.4246-36.658-15.358-33.402-31.408 2.8136-13.872 23.49-22.735 44.015-16.432 2.6708 0.82065 2.2094 1.8854-0.37729 1.3471-21.448-4.4688-38.613 4.7171-40.605 16.156-2.5323 14.546 12.429 25.057 30.747 28.99 2.123 0.45613 2.0985 1.636-0.37728 1.3471"/>
  <path d="m143.36 174.42c-0.59044 7.5542-1.7852 14.457-3.3657 20.16-14.187 51.206-58.154 76.542-91.662 64.211-36.03-13.266-54.154-61.007-41.188-109.23 14.328-53.282 56.474-76.168 90.866-65.569 23.864 7.356 36.849 27.163 42.323 49.254 1.054-0.51902 1.6413-0.66929 2.6954-0.96451-5.7499-22.188-18.793-42.411-43.923-50.158-35.479-10.937-79.419 10.04-94.581 66.422-13.99 52.027 5.5793 99.492 43.1 113.3 27.383 10.08 78.592-6.3957 95.212-66.382 1.5315-5.5282 2.7337-12.245 3.3956-19.611-1.0914-0.54567-1.7809-0.89524-2.8723-1.4409"/>
  <path d="m126.93 268.71c-7.372 19.496-2.9341 33.471 11.13 37.557 11.108 3.2282 25.89-4.3398 30.738-21.523 4.504-15.963 1.3631-32.586-12.463-35.961-9.6698-2.3607-22.937 2.819-29.405 19.928m9.9181 40.187c-16.431-4.6841-20.508-20.823-12.625-41.673 5.6166-14.854 19.389-24.068 32.943-20.447 16.032 4.2833 19.589 24.025 14.654 39.115-5.7541 17.597-19.718 27.354-34.972 23.005"/>
  <path d="m37.028 255.51-6.0024-4.0137c16.055 25.459 52.714 41.712 96.129 48.981-0.61175-1.2523-1.313-2.1508-1.8672-3.403-33.696-6.0941-68.542-18.872-88.259-41.564"/>
  <path d="m306.47 167.38c-10.339-85.694-48.127-164-123.25-167.28-67.914-2.9703-109.12 64.503-125.82 84.563l4.1363-0.80361c28.882-37.406 62.119-84.229 121.67-81.688 73.543 3.1291 109.35 79.694 120.29 165.67 5.202 40.875-4.6745 73.616-20.497 93.297-23.588 29.335-63.471 40.912-103.67 40.845-5.9417-9e-3 -12.309-0.21329-18.954-0.64374-0.92296 1.0018-1.7148 1.6477-2.5493 2.6485 7.1673 0.46467 14.37 1.0658 21.664 1.0658 39.017 0 81.773-10.696 106.86-41.899 22.235-27.655 23.51-67.667 20.12-95.769"/>
 </g>
 <g fill="#ffe226">
  <path d="m134.12 42.266c-2.7027-1.2146-6.6303 3.0634-9.2087 7.9972-2.6143 5.0026-3.8461 10.679-1.6826 11.988 2.794 1.6902 6.8941-2.2398 9.5776-7.1765 2.8387-5.2221 4.1119-11.551 1.3137-12.809z"/>
  <path d="m107.26 39.234c-2.887-1.0733-15.362 16.937-11.492 19.153 4.2035 2.406 15.098-17.812 11.492-19.153z"/>
  <path d="m146.69 58.269c3.8027 0.13202 5.5164 3.2048 5.5164 6.0131 0 4.2887-3.2538 6.092-6.0525 6.1112-2.9629 0.0212-5.12-1.6562-5.3971-5.0603-0.32932-4.0318 2.8573-7.1705 5.9332-7.064"/>
 </g>
</svg>
