<?xml version="1.0" encoding="UTF-8"?>
<!-- Created with Inkscape (http://www.inkscape.org/) -->
<svg version="1.1" viewBox="0 0 362.1 263.18" xmlns="http://www.w3.org/2000/svg">
 <g transform="translate(50.005 -11.542)">
  <path d="m308.79 231.25c-4.6555-10.999-8.3608-22.482-11.422-34.391-2.0942-8.1487-4.6372-11.126-9.2376-13.858-5.3835-3.1955-9.1968-7.5125-10.524-16.04-8.1711-52.53-64.151-95.977-108.78-83.565-27.476 7.6429-38.616 43.256-28.337 74.341 3.9459 11.94 3.8847 20.649-1.9291 29.752-14.629 22.9-31.65 44.212-48.792 50.138-7.4716-3.8949-17.197-0.0578-18.461 9.8514-1.3112 10.29 7.9182 19.381 19.658 17.297 8.5096-1.511 22.782-0.34682 30.908 5.6262 13.86 2.6652 34.744-10.284 47.86-32.052 5.0878-8.4443 9.0051-18.216 10.889-28.922 11.829-1.876 24.326-7.3432 33.69-12.123 0.7892 3.7378 1.6579 6.8619 2.6877 9.7984 3.7766 10.479 13.979 20.278 24.968 21.693 2.4614 0.31618 3.1852 0.65457 4.8635 2.3614 3.8194 3.8888 9.2376 9.933 12.572 13.822 1.8985 2.2166 2.335 3.0364 2.8468 5.9728 1.5396 8.8358 8.4933 13.836 14.778 9.7189 4.1865 1.876 9.2519 0.86458 12.423-3.275 5.616 1.8189 12.029-1.5498 12.743-8.2527 1.5192 0.22834 3.1241-0.0896 4.7881-1.1072 3.75-2.2941 5.62-7.7816 1.8088-16.785" fill="#c4716b"/>
  <path d="m-9.173 232.48c-0.46289 2.963-6.1299 4.2354-14.17 2.7325-8.9766-1.6782-12.464-5.9015-11.974-7.9325 0.5159-2.1412 5.5405-4.0213 14.244-2.394 8.9786 1.6782 12.341 4.7738 11.901 7.594" fill="#fff"/>
  <path d="m7.1523 180.86c-7.4574 4.7187-22.939 14.411-28.81 17.872-4.5515-1.8414-8.8889-1.3968-12.341 0.38325-5.4936-0.34857-10.951 3.954-12.294 10.614-0.1652 0.82388-0.25284 1.6477-0.27526 2.4715-5.5364 6.032-0.58321 15.174 11.207 15.488-0.02023-1.9964 4.2783-4.68 14.287-2.808 8.9786 1.6783 12.341 4.7738 11.901 7.594-0.15294 0.98081-0.88705 1.772-2.0779 2.343 12.918 6.3277 34.677 5.2815 47.628-5.2102z" fill="#c4716b"/>
  <g fill="#aa615d">
   <path d="m181.63 199.31c-0.10003 3.5869-0.43873 6.866-1.0094 10.116 10.353-1.8761 26.93-8.0365 33.69-12.123-1.2052-2.8569-1.6395-6.0686-1.4662-8.585-11.283 6.0748-15.535 7.5512-31.214 10.592"/>
   <path d="m308.79 231.25c-3.1118-8.0936-6.3277-16.236-9.5659-27.229-1.195-4.0499-3.0425-15.834-8.0997-19.091-2.9936-1.929-9.6047-5.0919-12.845-12.612-7.6368 41.308-47.275 57.752-61.28 34.785 3.7766 10.479 13.979 20.278 24.968 21.693 2.4614 0.31618 3.1852 0.65457 4.8635 2.3614 3.8194 3.8888 9.2376 9.933 12.572 13.822 1.8985 2.2166 2.335 3.0364 2.8468 5.9728 1.5396 8.8358 8.4933 13.836 14.778 9.7189 4.1865 1.876 9.2519 0.86458 12.423-3.275 5.616 1.8189 12.029-1.5498 12.743-8.2527 0.89116 0.13469 3.2995-0.1815 4.8452-1.146 4.8737-3.2586 4.8472-8.6931 1.7517-16.746"/>
   <path d="m180.15 211.66c0.0173-0.0855 0.0405-0.1815 0.0578-0.27515-0.0173 0.0919-0.0405 0.18555-0.0578 0.27515m-0.15896 0.76059c-0.1185 0.56302-0.15896 0.76064 0 0m0.50347-2.4062c0.0115-0.052 0.0231-0.11445 0.0347-0.16937-0.0115 0.052-0.0231 0.10979-0.0347 0.16937m0.18324-25.698c-4.6188 65.034-58.456 85.8-69.908 66.319-0.27745 1.8842-0.22659 3.7644 0.11215 5.6302-5.8199 3.277-15.616-0.93805-17.423-6.7049 0.07541 2.184 0.41393 4.5005 1.2052 6.2522-5.1429 1.299-12.829-1.1868-15.584-6.2522 0.4955 2.8059 1.456 4.6698 3.2648 6.9312-4.6902 0.677-10.002-1.8088-11.428-6.6927-0.21006 10.329 11.004 16.579 20.041 14.974 8.5096-1.5111 22.782-0.34682 30.91 5.6262 13.858 2.6652 34.742-10.282 47.858-32.052 5.0878-8.4443 9.0051-18.216 10.889-28.922 0 0-0.0173 0.0959-0.052 0.25088 0.0173-0.0839 0.0347-0.16128 0.052-0.25088 1.6497-7.8733 1.8944-17.468 0.0613-25.109"/>
   <path d="m7.1523 180.86c-1.7802 1.1256-4.0233 2.5408-6.4786 4.0805 6.4541 13.359 7.0088 26.975 0.61788 31.141-11.827 7.7143-29.101-0.53816-29.681-9.1581-1.2031 2.0045-0.9625 5.5344-0.07954 7.6205-4.5066 1.1684-10.895 0.42602-12.996-3.3688 0.24064 1.925 1.042 4.4924 2.1656 5.9362-2.6591 0.17515-5.616-0.9625-7.3004-4.0112 0.07954 2.1656 1.2031 5.2143 2.9691 7.4595-1.0502 0.45666-2.651 0.64232-4.4067 0.50579 1.7129 3.5646 6.1421 6.448 12.676 6.6234-0.02023-1.9964 4.2783-4.68 14.287-2.808 8.9786 1.6783 12.341 4.7738 11.901 7.594-0.15296 0.98082-0.88705 1.772-2.0779 2.343 12.918 6.3276 34.677 5.2815 47.628-5.2102z"/>
  </g>
  <path d="m214.31 197.31c-10.247 6.0279-22.215 10.308-33.69 12.123-1.8863 10.706-5.8036 20.478-10.891 28.922 17.193-4.786 35.174-15.796 47.269-31.245z" fill="#483740"/>
  <path d="m90.964 264.78c-1.1542 0.20405-2.2819 0.29769-3.379 0.29595 6.556 8.8624 25.066 11.063 34.202 5.2734-8.1405-5.9218-22.342-7.074-30.823-5.569" fill="#d7a517"/>
  <path d="m-21.785 224.56c-8.3016-1.352-15.015 1.2052-13.432 4.1355 0.936 2.5347 6.3277 5.4732 11.874 6.5112 8.0406 1.5029 13.708 0.23064 14.17-2.7325 0.38746-2.4878-1.3826-5.3978-12.612-7.9142" fill="#d7a517"/>
  <g fill="#0f141b">
   <path d="m168.22 82.354c44.714-13.037 102.3 29.891 110.62 84.407 1.14 7.4614 4.1376 11.858 9.7964 15.219 6.4316 3.8174 8.1548 6.9985 10.013 14.646 2.9813 12.276 6.0768 21.565 11.142 34.161 3.9153 9.729 2.5959 15.288-2.2554 18.257-6.5152 3.9887-12.955-1.6334-15.249-10.622-0.58325-2.2839 0.40752-2.6204 1.2684-0.42601 3.279 8.377 7.9346 12.015 12.831 9.0173 3.4076-2.084 4.7779-6.7253 1.246-15.406-5.1001-12.533-8.5035-22.466-11.625-34.424-2.1698-8.3057-4.5005-10.787-8.4811-13.151-6.5295-3.8765-9.984-8.6013-11.295-16.927-7.9407-50.415-62.483-94.446-106.98-82.649z"/>
   <path d="m303.21 249.19c-0.58522 6.556-5.5936 9.778-10.341 9.9146-6.295 0.22024-12.076-4.9104-12.537-14.334-0.13642-2.7876 0.95839-2.914 1.3377-0.14914 1.091 7.9754 5.7648 12.254 11.122 12.148 4.0519-0.1185 7.6103-2.8304 8.3526-7.9182z"/>
   <path d="m290.5 257.71c-3.071 4.6331-8.4219 5.7587-12.382 4.6392-5.722-1.6171-8.9052-6.7784-8.9134-13.777-4e-3 -2.4899 1.093-2.5 1.3541-0.0173 0.59949 5.7118 3.1587 10.108 8.22 11.54 3.7256 1.0522 7.227-0.16533 9.7087-3.0853z"/>
   <path d="m217.44 208.49c-12.702 16.183-31.64 26.948-48.631 31.387l1.7762-3.0343c16.316-4.6229 34.028-15.747 45.941-30.888z"/>
   <path d="m214.48 198.49c-9.5537 5.6078-21.844 10.31-34.028 11.999l0.29539-2.1187c11.452-2.0535 23.308-6.3012 33.361-12.148z"/>
   <path d="m88.278 237.17c15.38-5.1612 32.762-24.277 49.797-50.334 1.764-2.6978 3.0221-1.8679 1.3133 0.86665-16.779 26.846-31.504 43.143-45.554 49.42z"/>
   <path d="m88.007 237.81c-6.5234-2.4878-14.468 1.1338-15.577 9.8269-1.0889 8.528 6.295 18.249 18.377 16.108 10.074-1.7843 23.233-0.35087 31.563 5.6873 21.546 3.5217 63.454-33.573 58.03-84.505-0.39134-3.6767 1.0074-3.8418 1.5518-0.18381 7.5858 50.96-36.092 92.099-60.436 86.664-0.0855-0.0173-0.16705-0.052-0.23873-0.10403-7.2106-5.2978-21.479-7.0393-30.194-5.4916-12.69 2.2554-22.411-7.4431-21.004-18.475 1.4132-11.059 12.796-14.707 20.459-10.39z"/>
   <path d="m88.639 265c6.4928 7.6246 23.186 9.8942 32.338 4.7921l1.8537 0.84018c-9.7127 7.2963-30.129 4.4597-36.335-5.565z"/>
   <path d="m99.546 239.61c-9.4395-4.4394-18.708 1.3663-19.091 7.5369-0.41394 6.7192 3.6787 11.986 11.334 14.056 3.1934 0.86262 2.7162 1.7415-0.27734 1.3112-8.8481-1.2724-13.867-7.4166-13.365-15.551 0.52406-8.4688 13.13-14.552 23.883-8.3281z"/>
   <path d="m116.06 243.04c-7.9224-6.5806-20.249-4.4108-21.13 5.1734-0.51388 5.5711 1.1338 10.261 5.6975 12.506 2.6204 1.2888 2.3002 2.3349-0.50163 1.4519-5.7546-1.8129-8.0243-7.7388-7.5043-14.14 0.93395-11.503 16.246-14.462 25.315-5.8831z"/>
   <path d="m112.76 263.24c-3.4769-4.2783-4.6637-12.982-0.1017-18.714 3.7297-4.6922 13.289-6.1666 18-0.37745 1.5681 1.925 0.96451 2.5388-0.94216 0.93394-4.7411-3.9907-11.352-4.0111-15.245 0.87891-3.9724 4.9961-3.1322 12.194-0.60157 16.567 1.1419 1.9698 0.24856 2.3838-1.1093 0.71168"/>
   <path d="m6.7817 182.42c-6.9965 4.368-20.806 12.759-27.435 16.823-0.78713 0.48325-1.1888 0.47342-2.1493 0.14855-8.2323-2.7774-15.18 2.2636-17.011 8.0916-1.6171 5.1551 0.85443 11.203 7.5573 14.201 2.5755 1.1522 2.0107 2.078-0.42822 1.2745-8.428-2.7795-11.307-9.9309-9.3579-16.142 2.1962-6.9945 11.024-12.839 20.292-9.2682 6.3725-3.7276 20.767-12.822 28.614-17.959z"/>
   <path d="m-35.223 200.15c-4.7146 0.21213-8.948 4.7228-9.9758 9.8187-1.0787 5.3489 0.94619 10.227 7.0658 14.152 2.0637 1.3234 1.3887 2.1289-0.62604 1.1726-7.0618-3.3504-10.096-8.944-8.7258-15.747 1.5355-7.6226 7.9753-12.233 14.615-11.352z"/>
   <path d="m-35.216 228.7c-13.85-0.14451-18.673-11.248-11.462-17.996l0.1815 3.2077c-3.691 4.9553 0.6607 12.315 11.24 12.825z"/>
   <path d="m-20.73 222.57c-8.2384-2.1106-11.038-10.102-9.0949-15.732 2.6918-7.7959 11.76-10.108 19.874-4.9757 1.8149 1.1501 1.2745 2.1738-0.62604 1.1827-7.6266-3.9785-14.894-1.7089-17.044 4.5148-1.6966 4.9124 0.59545 11.256 7.2535 13.742 2.4695 0.9217 1.9332 1.8557-0.36295 1.2684"/>
   <path d="m-10.054 232.32c0.28138-1.7986-1.5702-4.684-11.195-6.4846-8.6075-1.609-13.047 0.3792-13.216 1.7007-0.16723 1.3011 2.7244 5.1082 11.32 6.7151 9.3457 1.7456 12.855-0.41619 13.092-1.9311m-13.516 3.8786c-9.7739-1.8271-13.251-6.4275-12.596-9.1397 0.64846-2.6897 5.8484-4.9369 15.217-3.1893 10.188 1.9046 13.132 5.4529 12.615 8.7686-0.59137 3.7685-6.8578 5.1286-15.235 3.5604"/>
   <path d="m37.558 230.28c-13.275 11.191-36.753 12.443-49.995 5.149l2.1289-1.2847c12.294 5.3489 32.438 4.9655 45.491-5.3406z"/>
   <path d="m276.06 260.1c-4.8798 2.9344-11.144-0.60157-12.802-9.2641-0.52024-2.7121-1.0318-4.1375-3.0751-6.4663-3.4238-3.903-8.3118-9.625-12.523-13.956-1.8312-1.8842-2.8019-2.3349-5.6139-2.7081-8.1772-1.0869-15.918-7.0108-20.82-14.813-4.1416-6.5907-7.1556-18.614-7.9081-27.209-0.2815-3.224-1.5477-3.1648-1.6048 0.21792-0.1445 8.5177 3.2872 22.087 7.1107 28.51 4.884 8.1996 13.632 14.389 22.939 15.445 2.1208 0.24047 2.808 0.69336 4.2884 2.2126 3.9051 3.9989 9.2825 9.6822 12.504 13.534 1.8312 2.1902 2.29 2.9161 2.6774 5.5344 1.6273 11.002 10.015 15.033 16.954 10z"/>
  </g>
  <path d="m167.53 119.95c-3.846-26.736-32.101-39.624-61.772-38.272-17.229 0.7851-35.91 10.696-49.086 23.732 0.16925-2.8916 1.0889-5.9015 2.5796-8.7176-4.9675 5.1082-9.3967 11.293-12.466 16.45-1.2969-2.1249-2.4491-4.5556-3.4299-7.1128-3.3769 16.436-22.28 22.154-28.386 19.065-0.4792 5.1102-2.135 11.736-4.7962 16.079 10.765-3.6481 25.619-7.1026 32.05-7.8877 13.024-1.5885 20.786 2.3043 27.413 13.151 2.7346 4.472 5.7159 4.6942 12.086 1.2276 16.463-8.9603 33.145-3.8031 42.279 12.572 9.3681 16.801 7.5328 38.843-18.222 44.449-22.835 25.941-77.117 19.485-95.447-7.6694 14.641 37.642 50.568 50.291 91.171 34.399 14.625-10.749 27.625-29.226 37.054-43.929 3.8888-6.0646 5.3285-9.6944 5.2979-17.525 0.81158 1.2194 2.3451 1.8944 3.5768 1.9434 6.8354 0.27342 24.454-21.654 20.096-51.955" fill="#c4716b"/>
  <path d="m180.4 104.55c6.9945-4.6902 17.011-8.8115 25.182-10.628-12.484-4.7513-32.852-3.5605-46.596 0.45087 2.9222-3.7603 7.0659-8.0426 11.154-11.344-9.4048 0.5688-16.923 3.7379-22.217 8.2119 10.302 6.344 17.615 15.8 19.536 28.331 9.307-5.0878 30.708-5.6262 43.488-2.0882-7.3942-7.1841-19.546-12.829-30.547-12.933" fill="#fabf1b"/>
  <path d="m124 160.24c-9.1316-16.375-25.816-21.532-42.277-12.572-6.3725 3.4666-9.3538 3.2443-12.086-1.2276-6.6274-10.846-14.391-14.739-27.413-13.151-9.6781 1.1807-38.435 8.4056-43.621 13.243-12.496 11.66-8.6177 35.47 4.631 44.64 1.9291 1.3357 3.224 1.8189 4.1783 0.68919 14.56 31.412 74.148 40.34 98.365 12.827 25.757-5.6058 27.592-27.648 18.222-44.449" fill="#5a454f"/>
  <path d="m75.012 173.58c-5.9259 4.7636-10.877 7.8938-17.596 11.599-2.1738 1.199-4.4536 2.0779-6.7763 2.6714 8.7543 4.4475 20.91 8.7155 34.352 10.18 11.055 1.2031 21.591-2.3471 25.559-12.71 2.4226-6.3256 1.248-12.402-2.2227-16.866-11.752-7.1189-20.812-4.9206-33.317 5.1265" fill="#fff"/>
  <path d="m110.55 185.32c2.4226-6.3236 1.248-12.402-2.2228-16.864-11.055-6.6946-19.725-5.147-31.12 3.4177 15.249-7.8795 25.096-4.1559 28.412 5.412 4.6535 13.434-11.103 20.504-27.376 19.76 2.2044 0.39943 4.4557 0.73614 6.7457 0.98492 11.057 1.2052 21.591-2.345 25.561-12.71" fill="#323438"/>
  <path d="m30.199 147.27c-0.59954-3.0017-3.9397-4.678-13.999-5.0634-12.133-0.46475-14.438 1.3907-14.966 4.3924-0.74431 4.2457 8.116 11.915 11.542 11.988 5.0226 0.11035 18.614-5.3611 17.423-11.318" fill="#d56928"/>
  <path d="m58.654 48.653c0.88909 0.13063 4.7391 1.2419 6.3786 1.6926-12.712 2.0453-22.297 7.5185-24.071 16.95-10.202 10.694-7.7164 27.378 1.197 35.27 1.1889 3.8134 2.757 7.5145 4.629 10.581 3.071-5.1572 7.4982-11.342 12.468-16.45-1.4927 2.8161-2.4124 5.826-2.5816 8.7176 13.175-13.035 31.856-22.947 49.086-23.732 4.4068-0.20001 8.7809-0.07918 13.051 0.34682-19.342-32.998-47.01-39.363-60.157-33.376" fill="#fabf1b"/>
  <path d="m42.158 102.57c-3.4952-3.0935-5.9953-7.543-7.1352-12.449-19.262 5.253-27.607 31.075-20.094 34.964 6.0605 3.1363 25.054-2.5755 28.431-19.058-0.43232-1.1317-0.83608-2.288-1.2011-3.4565" fill="#c4716b"/>
  <path d="m9.9747 141.24c-5.3427 1.821-9.6495 3.6848-11.369 5.2897-4.0213 3.7521-6.3399 8.7666-7.2025 14.144-11.626 5.4977-15.865 1.7496-15.765-3.9581 0.29977-17.062 14.911-52.047 33.989-66.494 6.5051-4.9267 14.727-8.271 24.878-9.1377-0.36296 3.0487-0.16521 6.1197 0.51186 9.0296-19.258 5.2571-27.601 31.075-20.09 34.962-0.46088 5.1143-1.923 11.603-4.9532 16.165" fill="#c4716b"/>
  <path d="m30.199 147.27c-0.09582-0.4792-0.27122-0.91972-0.52204-1.3316-2.1146 5.8403-13.701 9.466-16.901 9.3049-2.2411-0.11445-6.5703-1.5824-9.7841-3.8684 2.6285 3.6053 7.4574 7.1617 9.7841 7.2126 5.0226 0.11035 18.614-5.3611 17.423-11.318" fill="#c76024"/>
  <g fill="#483740">
   <path d="m44.891 176.6c-11.13 1.8822-21.93-8.0264-31.473-6.2767-5.9932 1.0971-7.5206 12.121-12.241 13.19-2.078 0.46879-4.4496-0.58526-6.7967-2.7448 1.7986 3.6481 5.5487 8.477 8.8563 10.404 2.8814 1.6783 4.1375 1.4948 5.0022-1.2031 1.1114-3.4728 2.3145-7.2698 3.6583-10.789 1.5763-4.1314 4.7595-4.8207 7.8244-1.25 7.594 8.844 16.734 11.536 29.515 10.212 5.1939-0.54047 16.881-7.4676 25.774-14.566 12.651-10.096 23.19-12.398 33.317-5.1245-4.2722-6.446-12.502-8.2078-23.59-6.5275-11.324 1.717-27.872 12.651-39.846 14.676"/>
   <path d="m49.237 188.14c-12.78 1.3255-21.921-1.3662-29.515-10.212-3.0649-3.5706-6.2481-2.8814-7.8244 1.25-0.8687 2.2778-1.6762 4.6678-2.4409 7.0149 3.4544-4.5678 6.3909-4.9491 13.31 0.56071 7.7347 6.1584 19.703 7.0108 32.642 3.5646-1.507-0.71984-3.1016-1.5519-4.735-2.4552-0.51589 0.12832-1.0053 0.23237-1.4356 0.27745"/>
   <path d="m8.8864 194.69c18.616 17.688 52.514 22.947 79.692 10.881 5.3509 1.0909 11.167 0.624 16.393-0.69336-19.727 25.329-78.86 20.745-96.085-10.188"/>
   <path d="m81.902 203.19c27.994 4.0784 51.633-13.204 40.35-45.442 8.1915 12.107 9.1907 25.358 2.7244 35.097-8.0569 12.131-29.267 16.577-43.074 10.345"/>
  </g>
  <g fill="#aa615d">
   <path d="m107.42 104.54c11.815 22.498 21.495 51.832 32.217 66.35 5.6099 7.596 11.128 7.8081 17.06 3.2423 12.874-9.9105 15.559-28.433 11.668-48.437 0.55666 20.282-8.5198 38.621-15.836 43.992-4.0173 2.9507-6.8048 3.0466-10.094-1.297-9.8168-12.965-26.487-54.271-35.015-63.85"/>
   <path d="m142.43 168.39c3.2892 4.3435 6.0768 4.2477 10.094 1.297 4.8696-3.5747 10.514-12.894 13.583-24.703-8.7624 18.918-18.918 25.137-26.93 18.526 1.146 1.8802 2.237 3.538 3.2525 4.8798"/>
   <path d="m30.601 91.772c-16.889-2.914-48.505 35.276-50.65 60.846-0.34666 4.1172 0.11213 8.1018 1.8434 10.728 2.3899 0.0289 5.5385-0.74233 9.6087-2.6673 0.86258-5.3774 3.1791-10.392 7.2025-14.144 1.719-1.6049 6.0258-3.4687 11.369-5.2897 3.0303-4.5617 4.4924-11.05 4.9532-16.165-6.9068-3.5767-0.39763-25.69 15.673-33.308"/>
  </g>
  <path d="m218.24 89.323c14.089 1.0645 36.19-4.164 46.233-13.544-6.6825 2.4471-17.572 3.0017-23.516 2.1493 17.984-10.153 26.057-42.256 13.969-60.701-0.64239-1.8597-1.4458-3.4829-2.4002-4.7962-0.24047 22.083-9.4599 35.545-23.969 49.018 1.356-5.2754 1.3193-11.006 0.32833-14.66-6.1216 18.369-16.316 27.786-31.402 35.674 7.0047 1.3051 13.991 3.642 20.757 6.8599" fill="#fabf1b"/>
  <path d="m5.1991 146.51c-0.14272 0.97072 0.84423 1.7986 2.7937 1.8822 1.6762 0.0693 3.2342-0.53238 3.2525-1.6212 0.01852-1.0482-1.2378-1.7129-2.8345-1.8292-1.611-0.11618-3.0894 0.74024-3.2118 1.5681" fill="#de8e53"/>
  <g fill="#aa615d">
   <path d="m139.14 186.58c-38.125 42.644-77.153 50.12-114.19 33.82 18.182 18.785 46.051 22.964 76.56 11.022 14.627-10.749 27.627-29.226 37.054-43.929 0.2-0.31215 0.3896-0.61382 0.57689-0.91355"/>
   <path d="m45.262 110.36c-0.6872-1.3764-1.3275-2.8222-1.9046-4.3231-3.3769 16.436-22.28 22.154-28.386 19.065-0.13665 1.4499-0.37723 3.0282-0.69945 4.6352 12.351 1.6823 25.592-3.1078 30.99-19.377"/>
   <path d="m58.761 113.06c6.7559 30.103 46.243 28.637 48.633 4.8941-8.4872 20.033-42.134 13.687-48.633-4.8941"/>
  </g>
  <path d="m13.736 111.01c-20.133 6.0789-33.837 27.042-33.837 43.67 0 3.9826 1.1399 5.8872 5.5568 4.5372 2.496-0.76267 4.631-1.6293 7.0618-3.0282 1.2235-3.6441 3.2138-6.9762 6.0891-9.6597 1.719-1.6028 6.0238-3.4687 11.369-5.2877 3.0303-4.5617 4.4924-11.05 4.9532-16.167-3.275-1.6946-3.5339-7.5552-1.1929-14.064" fill="#d7a517"/>
  <path d="m61.201 115.27c11.564 15.537 37.546 14.633 45.177 2.2859-1.8333 17.229-37.895 17.588-45.177-2.2859" fill="#aa615d"/>
  <path d="m43.36 106.02c-0.29568-0.77083-0.57099-1.5559-0.83404-2.3451-8.218 18.051-25.796 22.009-30.323 14.725-0.08972 3.1995 0.78509 5.6731 2.7244 6.6764 6.0626 3.1383 25.056-2.5735 28.433-19.056" fill="#aa615d"/>
  <path d="m105.96 178.49c-0.10004-0.40174-0.20405-0.80348-0.34452-1.2093-3.3137-9.5659-13.157-13.287-28.396-5.4182-0.728 0.54624-1.4621 1.1113-2.2105 1.715-5.928 4.7615-10.877 7.8937-17.598 11.599-2.1738 1.199-4.4516 2.0759-6.7742 2.6693 1.3438 0.68312 2.7774 1.3601 4.2742 2.0249 7.1454-2.7733 16.365-8.269 24.183-14.619 7.2494-5.8893 20.476-6.8314 26.867 3.2383" fill="#dcdddd"/>
  <g fill="#d7a517">
   <path d="m45.422 110.7c0.43435 0.85238 0.89114 1.6721 1.3663 2.4511 3.069-5.1572 7.4982-11.342 12.466-16.45 2.3675-3.9928 5.7934-7.6266 9.1397-10.32-10.467 4.7473-19.334 14.338-22.972 24.32"/>
   <path d="m56.706 105.06c-0.01 0.11619-0.02429 0.23237-0.03061 0.34857 13.173-13.035 31.854-22.947 49.084-23.732 4.4067-0.2 8.7808-0.07974 13.051 0.34855-0.87891-1.5028-1.8007-2.9262-2.7407-4.3109-26.049-5.8709-53.67 13.481-59.363 27.346"/>
   <path d="m42.377 79.577c7.2881-7.6246 21.236-12.596 33.808-11.485-11.993 3.6175-22.225 8.0589-31.008 16.022-1.1583-1.4968-2.1718-3.1852-2.7998-4.5372"/>
   <path d="m210.8 117.44c-10.59-6.4398-30.131-8.6911-45.456-5.8974 0.96041 2.5205 1.6844 5.1898 2.1187 8.0264 9.2702-5.0695 30.541-5.6201 43.337-2.1289"/>
   <path d="m205.42 93.866c-15.245-0.77082-25.506 4.0703-32.699 11.299 2.1942-0.3526 5.3713-0.64232 7.6817-0.61376 6.9965-4.6902 17.011-8.8135 25.184-10.628-0.052-0.02307-0.11445-0.03471-0.16705-0.05778"/>
   <path d="m240.96 77.927c17.766-10.029 25.845-41.467 14.389-60.01 6.8803 30.203-11.658 52.634-45.042 68.081 2.6694 0.9707 5.3203 2.08 7.9366 3.3239 14.089 1.0665 36.19-4.164 46.231-13.544-6.6804 2.447-17.57 3.0017-23.514 2.1493"/>
  </g>
  <g fill="#0f141b">
   <path d="m2.1744 146.75c-0.60157 3.4136 7.3473 10.873 10.616 10.957 5.8444 0.14913 17.311-5.722 16.438-10.284-0.37319-1.9536-2.498-3.8072-13.075-4.213-11.348-0.43872-13.579 1.2602-13.979 3.54m28.94 0.34047c1.3867 6.9721-13.257 12.584-18.385 12.376-4.0458-0.16532-13.355-7.9468-12.46-13.037 0.67905-3.8684 3.7623-5.7016 15.942-5.2326 10.559 0.40578 14.221 2.4736 14.903 5.8933"/>
   <path d="m14.271 175.78c-2.235-4.7085-2.7101-11.538-2.2921-17.325l1.8842 0.0289c-0.39359 5.667 0.0468 12.266 2.1045 16.987z"/>
   <path d="m67.283 152.06c-1.2174-1.0583-0.58321-1.8475 0.74635-0.91966 1.0808 0.75654 3.5034 1.0278 5.306 0.56879 1.8353-0.46706 2.1758 0.74226 0.36908 1.299-1.7843 0.5503-4.9777 0.30578-6.4215-0.94822"/>
   <path d="m51.826 187.49c6.9374 3.4238 17.851 7.7755 33.329 9.4517 9.5945 1.042 20.213-1.4132 24.287-12.05 4.058-10.596-2.4675-21.073-14.254-22.811-2.5041-0.36937-2.3736-1.5416 0.15093-1.3153 12.782 1.144 20.994 12.615 16.222 25.072-4.3374 11.326-15.875 14.568-26.724 13.279-16.022-1.9026-27.311-6.5153-35.6-10.975z"/>
   <path d="m9.5887 142.43c10.759-3.7276 26.342-7.2759 32.752-8.0589 13.073-1.5967 20.333 2.5551 26.418 12.515 2.9426 4.8126 6.3297 5.4916 13.343 1.6763 14.546-7.9182 30.996-5.0124 40.537 12.094 9.6434 17.292 6.6417 37.901-17.107 43.058-8.8889 1.9291-15.392 1.9597-22.478-0.2896-2.9303-0.93192-3.3198 0.15318-0.45677 1.2786 6.9435 2.7264 14.489 2.9263 23.306 1.0115 26.673-5.7934 29.161-28.274 19.142-46.239-9.7964-17.568-27.666-21.43-43.792-12.655-5.9891 3.2628-8.4301 3.0446-10.849-0.9095-7.0455-11.532-15.268-15.247-28.168-13.673-10.204 1.2439-38.786 8.3322-44.336 13.512-13.287 12.396-9.4762 36.51 4.6902 46.316 3.3769 2.341 5.6445 1.9494 6.7171-1.7558 1.1297-3.9072 2.2411-7.4268 3.8011-11.485 1.1624-3.0282 3.5054-3.3647 6.3277 0.13642 9.152 11.364 26.363 13.836 38.362 7.2208 6.2461-3.4442 11.674-6.6886 17.974-11.748 13.086-10.514 21.514-11.648 33.033-4.6759l-0.934-2.5714c-10.957-6.7171-20.525-4.9858-33.498 5.4386-6.2318 5.0062-11.391 8.2098-17.582 11.623-12.225 6.7396-28.361 3.0996-36.016-6.4031-3.7623-4.6657-7.5777-3.9724-9.3049 0.31214-1.6334 4.0539-2.8365 7.4574-4.1335 11.405-0.71576 2.1819-1.1154 2.3573-3.5197 0.69539-12.082-8.3648-16.44-31.824-4.5291-42.938 0.52203-0.48729 1.2765-0.99516 2.2207-1.5152 0.70557-1.9066 3.587-3.2607 8.0814-3.3769"/>
   <path d="m75.857 196.05c18.528 1.3133 32.845-6.6723 28.745-18.502-3.014-8.6992-12.143-13.139-28.675-4.0621l2.6387-3.1954c13.444-6.5193 24.23-4.2599 28.027 6.7029 4.5108 13.022-9.4313 20.918-26.171 20.918z"/>
   <path d="m64.927 180.74c1.4947 3.5992 3.4626 7.282 5.0715 9.5762 1.9943-3.8827 4.0213-8.7054 5.9157-13.826 0.68924-1.8618 1.2623-1.9107 2.6612-0.16128 3.1873 3.9907 6.8925 9.4864 9.2111 13.675 1.9332-3.8908 4.4536-11.142 6.1074-16.972 0.44862-1.5885 0.94211-1.8353 2.5327-0.59134 4.5902 3.5829 7.7673 7.8448 9.7637 11.087l-0.6077 1.8863c-2.6958-4.2926-6.1217-8.53-10.127-11.577-1.3867 4.8309-3.9214 11.988-6.4622 17.321-0.84831 1.7823-1.3907 1.713-2.3063 0.15895-3.2138-5.4528-6.8701-10.649-9.3029-13.677-1.5294 4.1253-3.5727 8.8277-6.1462 13.889-0.76674 1.5029-1.301 1.5355-2.2411 0.20809-2.2085-3.1159-4.2456-6.8517-5.6445-10.059z"/>
   <path d="m14.744 175.8c-0.3589 8.2629 1.1358 15.73 4.005 19.921 1.4336 2.0922 0.40376 2.6958-1.0767 0.79937-3.0792-3.9479-4.9186-11.485-4.7411-19.578z"/>
   <path d="m21.771 179.94c1.1052 5.8485 3.4503 12.7 6.8762 17.156 1.5518 2.0168 0.4996 2.6999-1.042 0.85649-3.4259-4.0968-6.813-11.954-7.9651-19.968z"/>
   <path d="m58.104 104.08c1.1868 14.629 11.697 23.51 25.335 24.833 9.9574 0.9625 20.113-2.1942 22.825-11.095 0.68515-2.2493 1.6619-2.0188 1.2949 0.30001-1.6069 10.098-13.777 14.287-24.348 13.263-15.007-1.454-26.359-11.836-26.752-26.24z"/>
   <path d="m35.179 90.943c-18.524 5.3856-25.992 29.893-19.729 33.135 5.8994 3.0486 24.458-2.7489 27.354-19.381l1.0808 2.5347c-3.3871 15.883-22.737 22.405-29.564 18.871-8.4627-4.3802-0.1937-31.3 20.496-36.826z"/>
   <path d="m8.6448 141.73c2.81-4.215 4.731-11.475 5.2713-17.319l2.0453 1.146c-0.40786 5.0572-1.9964 11.148-4.3863 15.157z"/>
   <path d="m-7.7376 157.3c-1.8271 1.0237-4.0295 1.9637-6.6213 2.755-5.1021 1.56-6.658-0.62602-6.658-5.3835 0-17.099 14.02-38.606 35.148-44.777l-0.78714 2.2798c-19.878 6.2053-32.566 27.438-32.566 42.497 0 3.8235 0.94211 4.8227 4.4455 3.7521 2.8243-0.86256 4.9206-1.8475 7.6062-3.4035z"/>
   <path d="m38.056 133.97c2.7448-3.3545 4.5372-6.1584 5.9606-8.7665 1.2888-2.3594 2.3308-1.8047 1.1664 0.61787-1.2765 2.6591-2.8651 5.3957-4.8023 7.753z"/>
   <path d="m49.035 132.97c1.0645-2.496 1.715-4.5291 2.135-7.0067 0.4833-2.8426 1.6395-2.6632 1.2786 0.19597-0.32625 2.5918-0.82385 4.7065-1.7496 6.9476z"/>
   <path d="m147.38 173.15c-10.694-0.40405-26.275-49.235-40.138-67.887-1.768-2.3798-0.77083-3.1363 1.0828-0.8218 14.285 17.831 31.188 65.803 39.218 66.256 5.7587 0.32428 22.994-21.185 18.767-50.568-3.5115-24.424-29.236-38.582-60.509-37.156-15.325 0.69741-32.748 9.0541-47.361 22.101-2.1024 1.8781-2.8834 1.7292-2.6041-0.92788 0.7076-6.764 5.5099-13.736 11.579-17.443 2.2023-1.3438 2.8202-0.39942 0.74635 1.1216-5.6445 4.1416-9.5007 10.347-10.178 14.994 13.459-13.075 31.736-21.626 47.656-22.352 29.422-1.3418 59.041 11.719 63.022 39.397 4.5617 31.726-13.593 53.578-21.281 53.286"/>
   <path d="m58.817 98.213c-3.33 3.7113-7.1454 8.634-10.916 14.811-0.97678 1.5967-1.456 1.4927-2.2635 0.0405-3.6318-6.5275-6.3317-15.847-6.6091-23.286-0.10602-2.8549 1.1175-2.8712 1.3398-0.07741 0.61992 7.8183 3.5013 16.744 6.4521 21.599 3.0935-4.8206 7.3656-10.516 12.788-16.004z"/>
   <path d="m42.489 103.86c-10.53-7.8733-13.483-26.489-1.3275-37.927l-0.34665 2.7448c-8.3709 10.049-6.4602 24.809 1.0441 32.448z"/>
   <path d="m117.7 81.92c-19.036-30.933-44.754-37.472-57.073-33.365 3.0384 0.24682 7.7531 1.7476 11.091 3.746 2.0718 1.2399 1.6824 2.2696-0.50371 1.2419-3.8765-1.823-7.9835-2.9181-11.872-3.6726-2.0963-0.40579-1.9678-1.8516 0.15093-2.6958 13.671-5.4549 41.641 1.5355 60.458 35.013z"/>
   <path d="m65.054 50.801c-9.7046 1.3683-17.572 5.6588-20.68 10.677-4.0111 6.4745-3.3484 15.082 0.92581 21.195 6.4887-6.2705 16.976-11.585 29.53-14.495 3.2994-0.76267 3.6583 0.36302 0.41191 1.3071-11.952 3.4748-21.426 8.0324-28.816 14.615-1.0583 0.94215-1.6518 0.99926-2.5245-0.16705-5.1837-6.9272-5.8199-16.532-1.352-23.563 2.9935-4.7106 10.182-9.1153 20.335-10.524z"/>
   <path d="m34.371 82.318c-9.2152 0.82585-17.715 4.2232-24.022 8.999-18.74 14.191-33.421 49.5-33.749 65.432-0.1081 5.2816 3.8419 8.1609 15.021 2.7611l-0.45677 2.3573c-11.442 5.2346-16.695 1.7986-16.573-5.1449 0.30382-17.366 14.662-52.797 34.142-67.551 7.0495-5.3366 16.244-8.74 25.886-9.362z"/>
   <path d="m88.105 236.93c3.591-0.88504 7.231-2.0066 10.908-3.3688l3.7256-3.8684c-41.388 16.819-76.071 3.5768-90.997-31.714l-3.0772-2.4246c10.789 31.033 36.347 46.484 67.09 43.506 2.7305-2.7346 9.1214-3.7073 12.351-2.131"/>
   <path d="m157.51 94.567c3.171-4.2252 7.2922-8.324 9.9412-10.437-6.446 0.83811-13.74 3.6869-18.545 7.7347l-2.0188-1.2683c5.2326-4.5291 12.876-7.6532 21.944-8.3607 2.6591-0.20578 3.0058 0.49365 0.80753 2.3899-3.8154 3.2892-7.231 6.9068-9.0317 9.2865z"/>
   <path d="m178.5 104.47c7.9407-5.3733 17.533-9.1051 23.777-10.683-10.402-3.1016-30.284-2.4532-44.126 1.4397-2.3655 0.66682-2.6714-0.33874-0.35087-1.1297 12.902-4.4047 33.312-5.9933 46.692-1.5274 2.9303 0.97885 3.0486 1.9067 0.059 2.6082-7.855 1.8414-16.514 5.879-22.132 9.4497z"/>
   <path d="m167.2 118.29c9.307-4.9716 30.456-5.4223 40.37-2.5368-7.6654-6.0055-20.506-11.568-32.741-10.068-3.0608 0.37747-3.2729-0.68925-0.24855-1.3316 12.264-2.6041 27.089 3.2627 35.666 11.207 2.7672 2.5633 2.08 3.1485-1.2052 2.443-11.94-2.5674-32.048-1.9413-41.408 2.9263z"/>
   <path d="m227.21 62.501c1.5579-4.9451 1.6272-10.502 1.3703-12.301-4.5351 14.811-15.787 25.716-28.942 32.656l-4.1314-0.84828c14.077-6.8864 25.798-16.646 32.126-34.399 0.97066-2.7244 1.7803-2.6571 2.3736 0.32833 0.98902 4.9817 0.59139 9.7147-0.22429 12.455z"/>
   <path d="m242.99 62.459c4.4434-4.5923 7.6062-9.9493 10.167-16.53 1.044-2.6775 2.2309-2.1371 1.3398 0.59746-2.235 6.8681-5.7342 12.606-10.651 16.878-1.8577 1.6151-2.6836 0.94209-0.85648-0.94619"/>
   <path d="m221.05 67.181c18.816-16.428 29.542-30.013 30.533-53.535 0.1058-2.5082 0.98695-2.8835 2.4633-0.53412 3.7807 6.0156 4.3986 16.823 2.5633 25.16-0.56707 2.5654-1.7537 2.3288-1.35-0.26705 1.4336-9.2152 0.0774-18.836-1.98-22.605-0.33874 21.758-11.311 36.832-31.373 52.848-2.1065 1.6824-3.0221 0.8259-0.85648-1.0665"/>
   <path d="m239.4 77.759c19.444-10.942 24.976-41.779 15.936-58.59l-0.48324-3.5809c13.483 18.561 6.2135 51.439-12.384 62.536z"/>
   <path d="m215.82 87.864c16.705 1.562 36.361-4.3762 44.646-10.051-4.2558 1.3683-14.639 1.8904-20.508 0.67498-2.6611-0.5503-2.4062-1.7109 0.24682-1.3724 5.5772 0.70966 15.49 0.40001 22.764-1.8026 3.2178-0.97273 3.8337-0.28324 1.2357 2.0045-9.7902 8.6197-29.124 13.901-43.539 13.342z"/>
   <path d="m8.0208 191.01c13.999 31.016 72.269 39.893 96.299 13.883l2.8997-0.4688c-24.197 29.303-86.016 20.135-100.6-11.98z"/>
   <path d="m88.278 237.17c15.38-5.1612 32.762-24.277 49.797-50.334 1.764-2.6978 3.0221-1.8679 1.3133 0.86665-16.779 26.846-31.504 43.143-45.554 49.42z"/>
   <path d="m88.007 237.81c-6.5234-2.4878-14.468 1.1338-15.577 9.8269-1.0889 8.528 6.295 18.249 18.377 16.108 10.074-1.7843 23.233-0.35087 31.563 5.6873 21.546 3.5217 63.454-33.573 58.03-84.505-0.39134-3.6767 1.0074-3.8418 1.5518-0.18381 7.5858 50.96-36.092 92.099-60.436 86.664-0.0855-0.0173-0.16705-0.052-0.23873-0.10403-7.2106-5.2978-21.479-7.0393-30.194-5.4916-12.69 2.2554-22.411-7.4431-21.004-18.475 1.4132-11.059 12.796-14.707 20.459-10.39z"/>
   <path d="m276.23 167.1c-7.9406-50.413-62.483-94.446-106.98-82.649l-1.0379-2.1004c44.714-13.035 102.3 29.891 110.62 84.409z"/>
   <path d="m20.197 134.23c0.28954-3.6726 2.6999-6.4255 7.019-6.5193 3.277-0.059 5.9116 2.1982 6.6764 5.9116 0.30792 1.4948-1.2439 1.821-1.7578 0.39364-1.0114-2.7916-2.859-3.85-5.0001-3.7644-2.863 0.11446-4.4169 1.5845-4.9981 4.3231-0.36503 1.7252-2.08 1.4417-1.9393-0.34451"/>
   <path d="m81.135 138.79c-1.354-3.1424-2.8834-4.4455-5.6608-4.6372-2.7203-0.1792-4.7228 1.0604-6.1829 3.7684-0.73616 1.3683-2.182 0.53816-1.6497-0.91967 1.246-3.4014 4.0845-5.7975 8.0855-5.5201 3.4748 0.23874 6.2033 2.9467 7.335 6.4929 0.65458 2.0433-1.1073 2.7162-1.9271 0.81568"/>
  </g>
 </g>
</svg>
