<?xml version="1.0" encoding="UTF-8"?>
<!-- Created with Inkscape (http://www.inkscape.org/) -->
<svg version="1.1" viewBox="0 0 358.11 289.21" xmlns="http://www.w3.org/2000/svg">
 <g transform="translate(10.035 -8.3621)">
  <path d="m195.33 225.02c-1.253 1.3572-2.4643 1.4762-3.8661 0.45556-13.134-9.5506-28.663-12.286-51.565-9.4017-33.262 7.4285-59.347-4.0952-76.13-10.565-1.2142 1.4136-32.253 38.404-33.062 46.089 1.7827-0.15167 11.488-0.52979 20.684-8.0148-10.943 12.25-18.119 41.705-16.336 44.526 5.4166 8.5772 58.315 10.646 62.836 3.488 0.58035-0.9166 1.2024-2.4136 1.8303-4.238 12.684 8.0862 52.928 4.3184 53.827-1.372 0.59475-3.7559-0.32738-9.5684-2.3333-15.866 7.7886 5.7261 27.592 8.0505 35.169 4.2618 11.146-5.6844 16.363-40.428 8.9463-49.363" fill="#e85388"/>
  <path d="m53.84 241.45c23.616 3.3512 45.255 9.9552 49.562 16.032 2.7648 3.9048 0.21131 14.244-1.0119 19.613 6.8749-1.1102 22.446-14.961 27.095-17.997 7.5504-1.3303 17.44 2.5714 19.717 5.4613-1.2142-3.3362-3.4404-7.5207-5.0565-10.211 0.8809-17.714 16.485-31.803 29.881-37.187-9.4612-2.5208-20.485-2.7976-34.128-1.0804-33.262 7.4315-59.347-4.0952-76.13-10.565-1.2142 1.4137-32.253 38.407-33.059 46.089 1.7679-0.14848 11.336-0.52392 20.467-7.8422 0.0024-1e-3 0.0024-1e-3 0.0079-9e-3 0.98508-0.85409 1.9315-1.6309 2.6577-2.3065" fill="#c94778"/>
  <path d="m198.63 244.14c-0.016-0.61924-0.042-1.0744-0.042-1.0744-1.2143-0.90776-2.7292-3.9404-3.1845-4.8512-8.7677-1.4018-20.967 17.982-19.262 23.809 1.5119 5.1607 6.363 9.7975 11.262 11.747 6.2083-4.2946 10.378-17.672 11.223-29.631" fill="#c94778"/>
  <path d="m230.13 219.56c-1.8988 4.1756-22.619 19.158-33.062 20.702-5.2082 3.4047-13.931 18.324-13.8 21.229 0.0761 1.6696 4.8541 9.0237 10.92 10.997 10.854-1.497 30.086-17.11 50.199-35.336z" fill="#6f619e"/>
  <path d="m233.44 246.87c3.5922-3.1012 7.2588-6.363 10.955-9.7142l-14.256-17.592c-0.80987 1.7798-5.0416 5.5238-10.437 9.354 2.61 7.619 8.2885 14.533 13.738 17.952" fill="#60548a"/>
  <path d="m192.43 244.95c-4.5623 5.7738-9.2558 14.413-9.1606 16.55 0.0761 1.6667 4.8541 9.0237 10.92 10.994 4.6695-0.64287 10.893-3.9018 18.068-8.8571-14.417-5.9702-18.872-13.872-19.827-18.687" fill="#60548a"/>
  <path d="m266.23 179.53c-1.7618-1.2262-14.711-3.7916-16.833-4.5506-0.4969-0.61921-0.58631-3.6726-0.43783-6.0922-7.0326 8.863-21.375 22.788-22.16 23.836-0.91069 1.2143-1.6548 16.378-1.5149 18.199 0.15167 1.9702 7.2797 14.559 8.0356 16.226 2.2768 2.4286 8.0387 7.4315 10.012 9.5564 2.7292 2.7292 17.288 8.9463 19.866 9.7053 1.3631 0 16.833-3.6399 20.777-5.3094 0.98216-0.3662 12.211-11.976 17.893-18.149-6.9344-2.3154-28.154-5.1011-29.419-6.4196-3.6398-3.7916-3.9434-33.059-6.2172-37.002" fill="#6f619e"/>
  <path d="m228.77 208.49c-0.45808 1.7916 2.6548 8.1665 3.7917 7.5832 3.1934-1.6459 20.628-12.714 29.571-20.928 3.0118-2.7648 3.8244-8.7469 5.4136-10.042-0.1036-3.9106-0.55341-5.5684-2.5149-6.1785-0.72889-0.3626-5.2975-1.735-8.2053-2.1308-0.27334 0.0588-1.3779 0.74999-2.1041 1.4612-7.8362 7.6666-25.526 28.568-25.952 30.235" fill="#8478aa"/>
  <path d="m230.29 208.49c-0.45808 1.7916 1.4405 6.6517 2.5774 6.0654 1.8779-0.96426 18.351-13.193 27.449-20.473 3.3273-2.6606 5.3184-9.5356 6.6755-10.92 0.10119-2.3214-0.35098-3.3631-0.80986-3.9434-0.72891-0.36018-4.3987-1.497-7.3065-1.8958-0.45556 0.15169-1.6814 0.72047-2.3482 1.3661-7.8958 7.619-25.812 28.137-26.238 29.8" fill="#988dbd"/>
  <path d="m259.71 245.35c0.0508 0.016 3.4435 1.0476 3.4881 1.0626 1.366 0 16.833-3.6399 20.777-5.3095 0.98215-0.3686 12.211-11.976 17.896-18.149-3.0178-1.0089-8.732-2.1041-14.333-3.1279-0.30976 0.37779-15.544-1.0148-19.333-26.949-4.2469 3.1845-6.0922 20.839-4.2469 25.024 0.99993 2.2708 7.3392 6.119 8.3391 6.3689 3.6816 0.91968 8.2232 1.9732 9.9344 2.122 1.0893 0.0981 0.3874 0.72046-0.3778 1.5923-4.619 5.2648-11.041 10.684-16.077 15.547-1.2233 1.1786-3.7916 1.6666-6.0655 1.8184" fill="#60548a"/>
  <path d="m342.81 157.39c-0.45557-0.60744-12.89-7.735-14.104-8.6458-1.2142-0.90776-7.1279-10.161-8.494-11.22-1.3631-1.0626-18.955-8.494-20.625-8.494-1.6666 0-19.562 7.735-20.473 8.0386-0.91072 0.30376-10.464 12.434-11.223 13.649-1.5834 2.5357-14.506 11.613-16.226 14.408-0.66395 1.0804-1.5952 2.3571-2.7113 3.7648-0.14848 2.4196-0.0588 5.4732 0.43783 6.0922 2.1221 0.75928 15.071 3.3244 16.833 4.5505 2.2738 3.9435 2.5773 33.211 6.2172 37.003 1.2649 1.3155 22.485 4.1011 29.419 6.4196 1.3362-1.4494 2.363-2.6012 2.8839-3.2351 3.9434-1.5148 22.291-15.163 26.538-17.896 2.9523-2.6696 14.863-16.226 15.47-20.625-0.15167-6.8243 0.46149-17.937-3.9434-23.809" fill="#a599bc"/>
  <path d="m298.13 143.64c0.76773 11.583 3.9583 16.643 13.244 26.285 11.506 11.946 13.991 12.568 25.125 11.982 1.4731-0.0761 6.7172-0.77105 10.25-1.3988-0.10361-6.863 0.33056-17.437-3.9315-23.119-0.45555-0.60744-12.89-7.7351-14.104-8.6427-1.2113-0.91073-7.1279-10.164-8.4909-11.223-1.3512-1.0506-18.536-8.3154-20.55-8.485-1.2351 4.1964-1.8453 10.027-1.5417 14.601" fill="#bcb2ca"/>
  <path d="m281.85 174.47c2.4256-3.6398 7.4821-12.336 10.211-15.369 1.256-1.3928 7.1577-0.0844 10.009-0.20251 0.82761-0.0321-0.8183-2.2619-1.2619-3.1845-1.634-3.3928-3.2322-9.6041-2.6815-12.08 0 0-14.458 3.9434-15.67 4.8512-1.2142 0.91069-8.4939 14.357-10.616 14.66-1.5386 0.22012-9.5237 7.2976-14.842 12.202-0.42859 0.3958-0.42518 0.84192-0.52644 1.244 3.8065 0.90772 8.8571 2.3065 9.7558 2.9345 0.36018 0.61924 1.1845 3.4732 1.4672 5.1547 3.1131-2.2291 12.181-7.2499 14.155-10.211" fill="#bcb2ca"/>
  <path d="m279.62 172.45c2.4256-3.6398 8.494-11.527 11.223-14.559 1.256-1.3958 6.5059-0.57115 9.3571-0.6901 0.8276-0.0321 1.0446-0.55933 0.60152-1.4821-1.634-3.3928-3.1279-7.988-2.5774-10.464 0 0-13.348 3.6399-14.559 4.5475-1.2142 0.91071-8.7975 13.952-10.92 14.256-1.5506 0.22372-8.7558 7.0714-13.952 11.931-0.3778 0.35419-0.6074 0.70862-0.75924 1.1131 3.8064 0.90472 7.2885 1.8006 8.1904 2.4256 0.35699 0.62172 0.66646 1.875 0.94934 3.5565 3.1131-2.2291 10.473-7.6725 12.446-10.634" fill="#d2ccdf"/>
  <path d="m325.96 182.35c-0.70866 2.2857-2.7173 8.3124-4.9851 11.229-1.6785 2.1577-8.8511 6.9791-16.074 11.527-1.2292 0.77109 1.3125-3.1369 1.1101-4.8541-0.016-2.4166-2.9316-9.4017-7.5833-11.628-1.2351 2.7589-4.7023 23.422-5.7618 24.771-1.5327 1.9524-3.2589 4.122-5.1338 6.4255 5.6041 1.0238 11.318 2.119 14.333 3.1279 1.3333-1.4494 2.363-2.5981 2.8839-3.2351 3.9434-1.5148 22.291-15.164 26.538-17.893 2.9523-2.6726 14.863-16.229 15.47-20.628-3e-3 -0.14007-0.0761-0.83941-0.0761-0.98508-5.1458 1.3125-14.806 2.4404-19.184 1.4404-0.69349-0.15768-1.2709-0.14848-1.5357 0.70272" fill="#9085a4"/>
  <path d="m303.23 199.85c0.45556-3.0327-4.6518-11.652-6.8243-12.738-3.2947-1.6488-15.021 1.0535-16.833 1.363-0.98216-0.43448-5.5536 1.2024-10.92 5.1576-2.8809 2.122-3.4881 21.384-2.5774 22.595 0.90772 1.2143 6.2171 4.7023 7.732 5.0059 1.5178 0.30376 11.798 1.6726 14.256 1.2143 2.4286-0.45556 8.9493-5.7648 10.161-10.012 2.5029-5.0029 4.4761-10.616 5.0059-12.586" fill="#a599bc"/>
  <path d="m300.35 200.46c-4.9017 3.4791-22.842 11.235-34.166 15.902 1.1606 1.3184 6.1606 4.5804 7.6248 4.872 1.5179 0.30377 11.797 1.6755 14.256 1.2143 2.4255-0.45557 9.098-5.7618 10.312-10.009 2.4732-4.9494 4.2797-10.494 4.8332-12.521-1.113 0.10119-2.1934 0.20491-2.8601 0.54165" fill="#9085a4"/>
  <path d="m268.65 193.63c-2.8809 2.122-3.4881 21.384-2.5774 22.598 0.90776 1.2112 6.2172 4.6993 7.7351 5.0029 1.5149 0.30376 11.794 1.6755 14.253 1.2142 2.4285-0.45555 8.9493-5.7648 10.164-10.009-4.4999 1.8303-11.663 1.6666-15.166 1.6666-1.3661 0-3.7916-1.9702-3.7916-3.3362 0-1.363 2.122-13.193 2.122-15.167 0-1.9702-0.45557-6.5207-1.8184-7.1249-0.98216-0.43787-5.5535 1.1994-10.92 5.1547" fill="#837a96"/>
  <path d="m207.9 246.09c8.86 0 14.116-6.0594 14.116-13.024 0-5.6934-5.3095-13.205-14.116-13.434-5.4315-0.14008-9.3183 1.866-12.574 5.3957-0.96722 1.1875-0.73819 8.997-0.45555 11.071 1.0536 6.0327 5.8898 9.9909 13.03 9.9909" fill="#e85388"/>
  <path d="m216.26 222.49c4.1368 7.488 1.7857 20.687-9.2529 23.574 0.29775 9e-3 0.5948 0.016 0.89884 0.016 8.8629 0 14.119-6.0595 14.119-13.024 0-3.5536-2.0684-7.8124-5.7648-10.571" fill="#c94778"/>
  <path d="m217.33 250.05c-6.8006 0-12.47 4.5923-13.089 11.056-1.741-0.7829-3.6785-1.2084-5.7201-1.1875-7.86 0.086-13.357 6.2648-13.283 13.345 0.0976 9.0594 7.1457 13.101 13.47 13.033 7.0059-0.0761 12.786-5.3898 13.339-12.125 1.616 0.68757 3.4018 1.0685 5.2827 1.0685 7.2291 0 13.089-5.6398 13.089-12.595 0-6.9554-5.8601-12.595-13.089-12.595" fill="#e85388"/>
  <path d="m229.99 259.44c-1.0744 8.5713-11.658 14.925-19.726 12.143-1.7887-0.61589-2.4703-0.0321-0.5956 1.2559-3.4256 9.1249-15.083 11.178-22.586 7.3928 2.5268 4.1934 7.25 6.1131 11.625 6.0684 7.0059-0.0761 12.789-5.3927 13.339-12.128 1.616 0.68756 3.4017 1.0685 5.2827 1.0685 7.2291 0 13.089-5.6368 13.089-12.595 0-1.1071-0.14848-2.1816-0.42854-3.2053" fill="#c94778"/>
  <path d="m194.23 169.64c-11.89 39.854-60.362 59.377-108.32 45.068-47.964-14.309-78.621-51.139-66.728-90.993 11.89-39.854 61.773-66.457 109.74-52.148 47.961 14.312 77.204 58.22 65.315 98.073" fill="#e85388"/>
  <path d="m96.503 204.06c18.697 1.3338 34.998-6.6586 38.036-16.702 3.6425-12.047-12.812-22.123-35.676-29.038-22.863-6.9128-43.478-8.0446-47.123 4.0004-3.1079 10.284 5.0383 27.215 23.234 36.45 0.91136 0.15058 4.4119-8.8734 5.6035-9.4006 1.3635-0.61029 14.1 2.4135 15.158 3.777 0.86022 1.1037 0.01036 10.761 0.76814 10.914" fill="#882575"/>
  <path d="m98.863 158.32c-22.865-6.9152-43.481-8.047-47.123 4.0004-2.1568 7.1345 1.1081 17.47 9.3876 26.214 5.3781-7.7813 17.909-11.104 30.662-7.4366 12.267 3.5266 20.924 12.43 21.938 21.519 10.728-2.6893 18.768-8.5064 20.809-15.261 3.6448-12.045-12.809-22.121-35.674-29.036" fill="#726"/>
  <path d="m101.25 111.21c22.375 11.19 55.639 17.661 68.681 11.899 0.5745-3.7261 0.60404-7.8749 0.28615-11.72-10.125 6.0773-34.256 6.2231-68.966-0.17889" fill="#c94778"/>
  <path d="m35.662 185.29c12.839 14.357 33.872 24.535 50.249 29.422 43.053 12.842 86.514-1.5744 103.56-33.485-44.449 33.11-113.2 31.842-153.81 4.0624" fill="#c94778"/>
  <path d="m128.98 61.237c-21.649-5.7737-58.803 4.1309-69.312 28.869 6.5832 14.72 87.106 37.616 110.67 28.744 1.253-30.214-19.744-51.851-41.354-57.612" fill="#ef92b5"/>
  <path d="m101.25 111.21c25.705 7.7469 56.077 12.533 69.085 7.6368 0.10361-2.5447 0.0508-5.0298-0.14608-7.4463-10.134 6.0624-34.256 6.2082-68.94-0.1905" fill="#ce7e9d"/>
  <path d="m124.89 65.18c-6.9851 2.6191-19.202 20.074-21.687 31.467-1.0029 4.6101 2.8333 5.7202 3.869 1.2144 3.0535-13.289 15.771-29.497 21.003-32.074z" fill="#f8d1d3"/>
  <path d="m183.12 173.31c-4.8006-5.0029-17.283-3.3958-28.922 7.7707-10.976 10.53-13.72 24.053-9.1516 28.818 1.9435 2.0238 4.8155 2.8988 8.1844 2.741 10.905-4.4345 20.431-10.955 27.788-19.274 4.747-8.0981 5.5862-16.425 2.1012-20.056" fill="#ef92b5"/>
  <path d="m145.05 209.9c1.9435 2.0238 4.8155 2.8988 8.1845 2.7411 10.905-4.4314 20.431-10.952 27.785-19.274 1.747-2.9761 2.9612-5.982 3.6308-8.7736-12.94 8.5534-27.11 14.294-41.678 17.687-0.21092 3.2648 0.49434 5.9672 2.0773 7.6189" fill="#ce7e9d"/>
  <path d="m36.475 158.16c-4.5595-15.47-12.714-23.622-17.619-22.175-0.79462 0.23533-1.5119 0.77697-2.1399 1.5774-1.0327 17.616 6.0654 34.142 18.943 47.764 3.3095-3.8184 4.4761-14.741 0.81543-27.166" fill="#ef92b5"/>
  <path d="m78.328 244.89c-0.21411-4.2053 24.598-31.509 32.455-32 9.3808-0.58635 31.741 26.107 30.937 30.937-1.2559 7.5416-23.134 28.041-27.904 28.36-6.7856 0.4522-35.19-21.467-35.488-27.297" fill="#a599bc"/>
  <path d="m141.74 243.42c-0.12246-2.1339-3.1577-6.9672-7.3928-12.172-7.1785-8.8242-17.809-18.717-23.562-18.36-4.0892 0.25573-12.768 7.7707-20.122 15.515 6.6458-5.0952 13.553-10.592 20.473-11.399 2.3839-0.28015 2.369-0.40746 3.491 1.5982 4.7529 8.491 5.4196 16.407 6.1666 26.134 0.08 1.0297 0.016 2.3423-0.15488 3.8393 3.9613-0.11651 15.327-2.8631 21.101-5.1548" fill="#9085a4"/>
  <path d="m120.39 248.58c-3.5476 0-27.538 0.92261-42.059-3.6755 0.33938 5.8035 28.265 27.393 35.324 27.288 2.9405-5.6993 6.1756-16.675 6.9821-23.616-0.0864 1e-3 -0.16689 1e-3 -0.24693 1e-3" fill="#9085a4"/>
  <path d="m141.74 243.42c-5.7737 2.2916-17.14 5.0387-21.101 5.1548-0.80955 6.9434-4.0416 17.916-6.9851 23.619 0.0564-1e-3 0.11006-1e-3 0.16369-9e-3 4.7708-0.31816 26.649-20.821 27.904-28.36 0.016-0.12248 0.024-0.25894 0.016-0.4075" fill="#837a96"/>
  <g fill="#0f141b">
   <path d="m165.64 91.925c24.25 20.181 36.08 49.925 27.854 77.496-8.4642 28.375-36.437 47.529-71.484 49.089l1.5178 1.4762c36.244-0.72298 64.151-20.729 72.69-49.357 9.0118-30.202-4.7499-62.987-33.276-83.761 1.4286 1.9702 2.6994 5.0565 2.6994 5.0565"/>
   <path d="m97.023 203.32c17.304 1.08 33.727-6.1218 36.773-16.184 1.8035-5.9682-0.36711-17.551-35.157-28.071-26.264-7.9417-43.088-6.6736-46.158 3.4828-2.995 9.9014 4.7307 26.144 22.414 35.315 1.2876-1.7663 3.9612-8.7432 5.2235-9.3271 1.7861-0.82055 14.985 2.5426 16.374 3.9295 0.68261 0.68161 0.22584 8.6079 0.52967 10.855m0.08627 1.7277c-1.2912-0.0911-1.4894-0.26104-1.6461-1.2946-0.20656-1.3616 0.08036-9.3399-0.35688-10.154-0.97011-1.0222-12.716-3.9418-14.245-3.5111-0.67271 0.53171-3.7332 7.4614-4.7517 8.9115-0.61542 0.87607-0.98777 1.0562-2.0366 0.52783-18.543-9.3826-26.605-27.178-23.433-37.672 3.6754-12.151 22.489-12.55 48.506-4.6859 31.711 9.5923 39.664 20.812 36.704 30.593-2.9998 9.9203-18.921 18.675-38.741 17.285"/>
   <path d="m79.311 69.022c-30.812 7.4404-53.859 26.574-62.023 53.937-12.28 41.157 20.172 80.937 70.892 93.21 2.3303 0.56274 2.6815-0.8749 0.35699-1.5118-45.312-12.375-81.329-48.092-68.612-90.716 7.2291-24.226 27.836-42.553 52.886-50.74 1.372-1.3482 6.4999-4.1785 6.4999-4.1785"/>
   <path d="m169.31 122.41c3.0952-31.413-18.41-54.523-40.526-60.422-20.631-5.5028-58.609 3.6905-68.722 29.22-0.45832 1.1488-1.8393 0.60403-1.4375-0.58296 9.3689-27.762 50.011-36.625 71.068-31.104 23.66 6.2023 45.94 31.61 41.151 63.145-0.25573 1.6964-1.7024 1.4761-1.5327-0.25573"/>
   <path d="m105.42 268.8c-1.0863 6.8004-3.6726 19.604-6.1666 23.556-5.4017 8.5535-59.907 6.0952-66.199-3.866-1.3244-2.0982 4.0178-27.527 14.937-42.238l8.6963-7.229c-14.661 11.223-22.333 46.511-20.982 48.672 5.122 8.11 57.321 10.14 61.526 3.4881 2.3601-3.7351 5.5387-17.649 6.5386-23.25z"/>
   <path d="m110.83 213.67c-7.7529 0.4851-31.895 27.937-31.729 31.184 0.28255 5.482 28.425 26.997 34.663 26.565 4.1755-0.28015 25.97-20.396 27.19-27.714 0.7171-4.3065-21.277-30.577-30.125-30.035m-33.815 31.276c-0.26774-5.1606 25.94-32.779 33.666-33.264 9.863-0.60152 33.041 26.916 32.151 32.253-1.369 8.2053-23.794 29.166-29.119 29.523-7.244 0.46736-36.348-21.598-36.699-28.512"/>
   <path d="m119.9 249.51c0.36299-2.1845 0.21131-8.235-0.42258-11.643-0.24413-1.3124 1.0654-1.5803 1.5-0.29776 1.2291 3.634 1.1904 9.7232 0.31857 12.027-0.46729 1.238-1.5892 1.0744-1.3958-0.086"/>
   <path d="m149.07 214.11c18.774-1.2857 31.392 1.744 42.806 10.44 1.0804 0.82167 1.8661 0.70272 2.8423-0.3542 3.6814-3.988 7.8778-5.7321 13.193-5.613 9.5326 0.24972 15.167 8.1457 15.167 14.408 0 8.1993-5.8482 14.181-15.167 14.181-7.0356 0-12.351-3.997-13.345-10.086-0.22251-1.3749 0.87798-1.5594 1.2143-0.22612 1.3155 5.241 5.9018 8.4552 12.119 8.4552 6.6279 0 13.342-4.2053 13.342-12.247 0-5.0327-4.7588-12.434-13.363-12.658-4.8244-0.14608-8.6278 1.5089-11.985 5.1458-1.5088 1.6339-3.1547 1.8184-4.8928 0.55341-12.881-9.366-28.137-12.134-51.008-9.2589 2.1398-0.58038 9.0772-2.7409 9.0772-2.7409"/>
   <path d="m245.31 238.01c-6.9165 6.2648-12.884 11.452-18.214 15.833l-1.744-1.1726c5.3124-4.3542 11.265-9.5237 18.164-15.771z"/>
   <path d="m221.34 228.66c3.997-2.9225 7.238-5.7261 8.744-7.613l-1.0833-1.8631c-0.93754 1.6041-4.2559 4.5565-8.5654 7.7112z"/>
   <path d="m197.04 241.24c-5.244 3.9344-13.098 17.863-12.991 20.223 0.024 0.53573 1.0685 2.625 3.0208 4.9106l-0.96428 1.8244c-2.3094-2.5416-3.9166-5.4404-3.9672-6.622-0.1965-4.3451 10.178-19.925 13.952-22.143z"/>
   <path d="m185.4 276.08c-9.2588 3.3838-25.428 0.99702-33.767-4.4494l-0.91072-2.8809c7.1308 6.0089 26.381 8.5564 34.508 5.3035 0.016 0.33338 0.16969 2.0268 0.16969 2.0268"/>
   <path d="m204.21 261.94c-1.7559-0.84522-3.6964-1.2857-5.6726-1.247-7.0356 0.0761-12.589 5.5743-12.515 12.559 0.0921 8.5207 6.6547 12.33 12.687 12.268 6.738-0.0677 12.217-5.247 12.592-11.699l1.6993 0.64031c-0.65806 7.0356-6.7648 12.964-14.155 13.044-7.9255 0-14.771-5.9166-14.863-14.458-0.086-7.9226 6.5982-14.172 14.458-14.256 1.9851 1e-3 4.1339 0.44036 5.9642 1.2113-0.12802 0.55089-0.19651 1.9375-0.19651 1.9375"/>
   <path d="m217.45 276.28c-3.1339 0-6.479-1.2173-8.7945-3.4375-1.1399-1.0922-0.27655-2.0297 0.90767-1.1131 2.1845 1.6934 4.9434 2.7321 7.7738 2.7321 6.7916 0 12.315-5.3035 12.315-11.821 0-6.5148-5.5237-11.818-12.315-11.818-7.5476 0-13.497 5.8451-12.184 13.571 0.26494 1.5565-1.0923 1.875-1.5149 0.34498-1.8779-6.8154 2.8959-15.857 13.711-15.857 7.7826 0 14.256 6.3839 14.256 13.851 0 7.3719-6.5118 13.547-14.155 13.547"/>
   <path d="m262.41 247.46c-3.7797-1.3334-16.931-7.5059-19.634-10.205-0.30376-0.32738-0.8158-0.8541-1.1696-1.4077-0.80314-1.2649-0.25294-1.872 0.86017-0.75928 0.29177 0.29175 1.1369 1.0208 1.3512 1.1994 2.5029 2.238 16.747 8.485 19.473 9.3421 1.8363-0.14608 16.571-3.6309 20.375-5.241 1.3482-0.76768 16.518-16.539 20.113-20.723 0.44376-0.51464 0.55677-0.58043 1.2083-0.90176 4.8303-2.3631 23.342-15.952 25.824-17.556 3.4196-3.119 14.527-16.074 15.167-20.056-0.11893-5.494 0.51464-17.559-3.7887-23.297-0.40746-0.3662-13.393-8.0714-13.946-8.488-1.2678-0.94935-7.3689-10.348-8.5028-11.232-1.4197-1.1012-18.75-8.2648-20.155-8.3273-1.247 0.0677-19.812 7.8451-20.152 7.9731-1.1875 0.86611-9.982 11.908-10.881 13.348-1.7143 2.738-14.553 11.684-16.226 14.402-5.2024 8.4523-23.652 25.985-24.91 27.66-0.70861 1.2797-1.5238 15.598-1.3661 17.675 0.13085 1.7113 7.0416 14.021 7.9136 15.845 0.91073 0.95835 3.6666 3.7768 4.8124 4.8392 1.3572 1.2589 0.67828 1.9553-0.75928 0.91073-1.5356-1.1191-4.3332-3.5417-5.3094-4.5506-0.30615-0.31817-0.35418-0.41085-0.5745-0.85117-1.4375-2.8869-7.7528-13.985-7.9166-16.134-0.0976-1.2648 0.46148-17.655 1.6667-19.262 1.8124-2.4077 19.616-18.738 24.821-27.196 1.7768-2.8869 14.794-11.988 16.28-14.357 0.0761-0.12802 10.098-13.78 11.524-14.256 1.5447-0.51464 19.042-7.988 21.029-7.988 1.8364 0 20.071 7.6576 21.536 8.7975 1.5119 1.1756 7.0684 10.303 8.2916 11.223 0.71117 0.5332 13.783 8.0297 14.357 8.7946 4.61 6.1488 4.2023 17.732 4.3482 24.265 0.0677 3.238-10.559 16.506-15.571 21.333-0.31537 0.30616-0.35099 0.33897-0.75 0.60744-3.4643 2.3303-21.985 15.973-26.244 17.794-2.5536 3.0179-19.527 20.902-21.08 21.485-3.5 1.4821-16.994 4.9225-20.473 5.4582-0.72047 0.11283-0.85714 0.0761-1.5417-0.16369"/>
   <path d="m330.91 181.42c3.8154 0.0845 9.2469-0.56861 11.905-0.87198 1.4166-0.16007 1.6042 0.79134 0.22931 1.0982-3.3749 0.75928-9.101 1.1399-12.134 0.91072-1.5238-0.11283-1.5178-1.1696 0-1.1369"/>
   <path d="m320.86 179.07c-5.1874-3.1012-15.634-14.387-18.047-18.768-0.77362-1.4047 0.042-1.8452 0.98512-0.52979 4.0238 5.622 11.467 13.762 17.631 18.312 1.2886 0.94942 0.7736 1.7887-0.56862 0.98508"/>
   <path d="m299.4 153.82c-1.7054-4.2708-2.7381-12.973-1.7441-16.946 0.24374-0.9732 1.1756-0.86009 1.0625 0.11325-0.45813 3.8958 0.22932 11.419 1.7797 16.455 0.45556 1.4732-0.53909 1.7767-1.0981 0.37779"/>
   <path d="m302.45 222.33c-1.7618-0.62765-4.8273-1.4494-9.3778-2.1072-1.7262-0.24974-2.2708 0.78882-0.35419 1.1637 2.8422 0.55341 6.3243 1.4881 8.5505 2.1845z"/>
   <path d="m269.14 193.22c-0.58294-6.0773-0.95827-11.434-1.7947-13.646-0.26814-0.7053-0.46737-0.89292-1.1815-1.1905-3.2142-1.3453-14.294-3.4673-16.22-4.0476-0.29777-0.93158-0.39581-4.3244-0.0844-6.8482l-1.7172 2.3809c-0.11042 3.1666-0.0761 5.6994 0.79726 6.0148 2.2529 0.80398 14.556 3.0327 16.699 4.1875 0.85714 1.8214 1.4851 8.3898 2.0922 14.744 0.3662-0.68169 1.4047-1.5952 1.4047-1.5952"/>
   <path d="m285.79 207.53c2.6815-0.94341 11.312-5.3779 13.143-6.8748 1.1934-0.97626 1.9225-0.0508 0.75928 0.91069-2.5892 2.1368-9.1904 5.6636-13.396 6.9255-1.3065 0.3898-1.6934-0.5416-0.50618-0.96131"/>
   <path d="m298.83 209.91c0.58298-1.2797 2.0803-4.8065 3.0327-7.482 0.47325-1.3215 1.5089-0.92565 1.1131 0.40494-0.70865 2.375-1.9227 5.4583-2.9821 7.3809-0.86011 1.5535-1.8661 1.2352-1.1637-0.30377"/>
   <path d="m302.63 199.75c0.27655-1.8571-2.1785-6.9582-4.4493-10.009-0.89881-1.2083-0.19051-1.7916 0.91067-0.70866 2.6726 2.6339 5.61 8.5445 4.7529 10.869-0.34259 0.92565-1.366 0.86018-1.2142-0.15168"/>
   <path d="m282.81 187.36c8.1904-2.3244 12.187-1.9464 13.851-0.80992 0.96131 0.65804 0.3814 1.5-0.50619 1.0625-1.8184-0.90768-9.2648-0.24733-13.092 0.91068-1.2411 0.37221-1.5536-0.79471-0.25293-1.1636"/>
   <path d="m99.982 286.61c12.574 8.2916 52.071 3.8512 52.8-0.73819 1.2142-7.6844-4.3868-25.583-13.244-37.244l0.96723-1.9137c9.4523 12.119 16.321 31.845 15.015 40.113-0.94046 5.9582-40.964 11.155-56.264 1.5922z"/>
   <path d="m296.89 212.09c-3.8393 1.2083-8.1011 1.2143-13.827 1.2352-1.0119 0-3.0148-1.6994-3.0148-2.5595 0-0.55934 2.125-14.03 2.125-15.167 0-0.0677 0.11325-6.8838-2.1429-7.8868-1.5744-0.69602-7.107 1.4137-11.979 5.0058-3.2291 2.378-4.0774 22.449-2.9851 23.91 0.96731 1.2857 6.7321 5.1576 8.494 5.5088 1.1428 0.22933 7.9047 1.2649 11.982 0.96131 1.872-0.14008 1.9375-1.1845 0-1.2649-3.9523-0.16009-10.506-1.1518-11.577-1.3661-1.2709-0.25572-6.4345-3.6011-7.2291-4.6517-0.69601-1.5655-0.0588-19.765 2.3809-21.565 5.4434-4.009 9.482-5.2441 10.143-5.0714 0.66391 0.29175 1.3601 3.5922 1.3601 6.4196 0 1.0149-2.256 14.568-2.256 15.214 0 1.8155 2.9643 4.1964 4.6994 4.1964 8.9106-0.016 10.351-0.5298 13.786-1.2887-0.58887 1.4791-3.7679 5.0178-6.5059 7.0534-1.0476 0.77701-0.61584 1.3601 0.5062 0.9583 1.6576-0.59223 6.485-5.2052 7.738-8.0267 0.83013-1.872 0.42267-2.2857-1.6964-1.6161"/>
  </g>
  <path d="m67.457 193.31c-6.4791-3.5148-14.702-1.131-19.253 5.2737-1.5268-2.4762-1.0119-4.2499 1.2083-8.3421 3.9166-7.2172 0.81547-16.646-6.7618-20.756-5.5594-3.0178-12.056-2.4642-16.669 0.89292-4.5595-6.2172-15.434-7.2083-21.684 0.99101-4.0029 5.2529-4.5178 14.223 1.3988 19.937-17.687 11.339-19.285 35.875-1.9821 51.306 9.3421 8.3331 22.812 11.065 34.824 7.6427 14.414-9.8124 16.021-17.708 17.422-27.583 6.2797 1.2827 13.169-1.9852 16.661-8.4195 4.1993-7.7351 1.8928-17.116-5.1636-20.943" fill="#e85388"/>
  <g fill="#c94778">
   <path d="m20.32 179.22c0.52972-4.247 4.0952-7.9612 5.6101-8.7202 0.02802-0.0504 0.06003-0.0976 0.08925-0.14848-0.01201 9e-3 -0.02401 0.016-0.04002 0.024-1.8154-2.4762-4.6368-4.1249-7.7678-4.6934 3.6339 4.9256 2.2202 12.217 2.1071 13.536"/>
   <path d="m44.812 191.81c-1.9345 2.866-0.07444 8.113 2.3512 8.4165 0.22612-0.52984 1.0625-1.6666 1.0625-1.6666l0.02001-0.0321c-0.01601 0.016-0.02802 0.042-0.04121 0.0589-1.5268-2.4762-1.0119-4.25 1.2083-8.3421 3.1011-5.7172 1.8006-12.821-2.6428-17.571 1.4702 6.5564 0.95831 14.818-1.9583 19.14"/>
   <path d="m58.916 218.25c-6.8094-0.62178-8.4195 3.3957-8.4939 6.0654-0.29776 11.056-9.6279 24.08-25.91 27.208 4.6815 0.44627 9.4582 0.0321 14.027-1.2648 14.411-9.8124 16.021-17.708 17.422-27.583 6.2796 1.2826 13.169-1.9852 16.66-8.4196 1.9732-3.6338 2.5089-7.6279 1.7917-11.241-3.0565 7.7469-8.6934 15.857-15.497 15.235"/>
  </g>
  <path d="m115.28 52.612c2.1369 2.1101 4.1428 4.9136 5.9136 8.726 2.5446 5.4821 8.8303 6.5922 13.851-0.47917 4.9196-6.9315 6.7707-15.208 6.6488-23.262-2.9791 12.086-18.178 17.845-26.413 15.015" fill="#ef92b5"/>
  <path d="m124.75 52.752c-3.4524 0.7913-6.8213 0.77109-9.4701-0.14008 2.1339 2.1101 4.1428 4.9166 5.9136 8.726 1.0566 2.2798 2.7619 3.8035 4.7529 4.2976 0.51487-3.9404-0.0624-8.5088-1.1964-12.884" fill="#ce7e9d"/>
  <path d="m141.69 37.599c-0.0953-6.2202-2.2262-12.274-4.9047-17.327-1.9166-3.6161-5.7172-8.6249-10.11-10.11-3.741-1.2649-10.417-0.91368-18.274 1.5178-13.866 4.2976-22.774 15.068-20.05 24.104 3.744 12.428 16.768 6.7856 26.925 16.83 8.235 2.8274 23.434-2.9285 26.413-15.015" fill="#f8d1d3"/>
  <path d="m115.63 36.719c14.931-5.9731 18.414-19.836 10.58-26.071-5.1398-1.2023-11.36-0.96427-17.809 1.0328-13.339 4.1338-22.083 14.256-20.306 23.062 4.613 4.1964 14.312 7.2648 27.535 1.9761" fill="#fae4e5"/>
  <path d="m116.24 35.759c-11.211 6.369-22.541 3.8422-28.244-1.5744 0.08004 0.53908 0.1993 1.0714 0.35699 1.5982 3.744 12.428 16.768 6.7856 26.928 16.83 2.6488 0.91068 6.0178 0.93153 9.4701 0.14008-2.0595-7.9373-5.9583-15.238-8.5118-16.994" fill="#d6b5b8"/>
  <g fill="#0f141b">
   <path d="m26.615 169.93c-4.491-7.0386-16.268-8.6636-23.306 0.56863-4.4791 5.8808-4.6756 16.684 2.4821 21.94 1.0982 0.8099 2.1904-0.15769 1.0536-1.1398-6.0773-5.241-5.9821-14.146-1.9285-19.461 5.9612-7.8213 16.19-6.7678 20.425-1.0209z"/>
   <path d="m48.679 197.8c-1.0476-1.8749-0.77081-3.2916 1.5178-7.1278 4.6994-7.8868 0.78874-17.997-7.1279-22.294-7.8809-4.2737-18.012-1.7737-22.178 5.9047-2.5506 4.6993-2.3691 11.146 0.64282 15.405 0.8631 1.2202 1.9524 0.60151 1.1994-0.75253-2.3631-4.241-2.4643-9.3005-0.21131-13.455 3.7559-6.9255 12.678-9.1546 19.759-5.3124 7.1785 3.8958 10.134 12.92 6.4493 19.708-2.1934 4.0416-3.0833 6.3839-0.98512 9.3927z"/>
   <path d="m6.2372 191.88c-17.675 11.238-18.655 35.306-2.0089 50.154 16.64 14.842 45.529 11.363 56.458-11.503 0.69052-1.4494 1.7916-0.90184 1.2113 0.6074-9.0475 23.506-40.86 29.3-59.321 12.664-18.402-16.583-15.848-42.946 2.3512-53.359z"/>
   <path d="m57.096 222.83c-0.73211 6.7529-2.7798 12.967-6.2172 16.759-0.9345 1.0268-1.6756 0.39902-0.8601-0.65806 2.628-3.4046 4.7202-9.9135 5.4077-16.378z"/>
   <path d="m56.136 223.36c-1.4702-0.25295-1.3869-1.622 0.05042-1.366 5.9434 1.0654 12.568-2.2321 15.753-8.1041 3.991-7.351 1.8124-16.277-4.8512-19.893-6.491-3.5208-14.842-0.75336-18.97 6.1398-0.5982 1.0029-1.622 0.40158-1.1309-0.68756 3.6398-8.0892 13.667-11.33 21.131-7.2797 7.3035 3.9643 10.443 14.172 5.8065 22.717-3.4554 6.372-10.244 9.7678-17.789 8.4732"/>
   <path d="m121.9 61.011c2.0268 4.363 7.4582 6.5208 12.515-0.60408 4.4642-6.2857 6.3094-13.625 6.494-20.803 0.32137-12.437-8.494-27.047-14.964-28.812-3.6577-0.99701-10.262-0.55341-17.306 1.6309-13.369 4.1428-22.134 14.521-19.538 23.137 4.3244 14.354 22.473 3.2053 32.8 25.452m-1.6399 0.60404c-10.39-21.735-28.282-9.5535-32.985-25.631-2.7619-9.4493 6.5237-21.157 20.702-25.553 6.6934-2.0743 14.443-2.5952 18.324-1.5357 9.3064 2.5416 16.848 18.137 16.467 30.708-0.22612 7.5595-2.2231 15.333-7.0385 22.012-5.6279 7.8064-12.759 5.8332-15.47 0"/>
   <path d="m98.574 38.337c9.6904 2.8304 29.395-6.5922 30.937-16.455 0.1785-1.1458 1.3214-1.0059 1.2143 0.15168-1.0952 11.661-21.774 21.074-32.378 17.518-1.0684-0.36019-0.80058-1.5149 0.22612-1.2143"/>
   <path d="m72.644 142.23c-2.6438-16.197-21.109-22.521-29.19-9.9529-0.77769 1.214-2.1453 0.27304-1.424-0.93115 8.9392-14.957 30.151-8.8383 32.243 10.586 0.16867 1.5411-1.3768 1.8234-1.6285 0.29846"/>
   <path d="m154.23 166.38c-0.79987-15.45-18.842-22.06-29.638-9.1926-0.92235 1.0978-1.9568-0.0952-1.0963-1.2406 11.559-15.365 32.533-7.9879 32.448 10.385-0.0106 1.4657-1.6401 1.5086-1.7135 0.0484"/>
  </g>
 </g>
</svg>
