<?xml version="1.0" encoding="UTF-8"?>
<svg version="1.1" viewBox="0 0 482.25 261.49" xmlns="http://www.w3.org/2000/svg">
 <g transform="translate(17.344 -1501.2)">
  <g transform="translate(-17.343 1501.2)">
   <path transform="translate(174.72 -1381.3)" d="m71.367 1382.4c-3.58-0.976-70.837 60.674-88.053 84.185-1.375 1.878-3.232 2.091-5.233 1.138-26.369-12.557-147.83-65.092-151.76-62.8-3.775 2.2 26.77 45.414 73.946 70.761 26.312 14.137 58.11 27.922 96.625 35.1 3.007 5.86 5.88 10.78 6.521 11.769l25.483-9.859c-3.26-2.347-9.073-7.732-15.33-12.961 9-10.184 23.274-28.967 31.256-42.1 21.389-35.188 29.387-74.459 26.546-75.233z" fill="#f2f0ee"/>
   <path transform="translate(-114.26 -1381.3)" d="m360.43 1382.5c-8.955 42.11-45.421 98.507-61.988 113.95l4.137 3.447 0.071-0.017-0.1-0.085c9-10.184 23.274-28.967 31.256-42.1 21.17-34.838 29.22-73.665 26.624-75.196z" fill="#cac8c7"/>
   <path transform="translate(169.33 -1429.5)" d="m0.1 1547.3c-1.724 0.345-1.724 3.654-1.379 4.481-32.657 0-123.12-42.4-163.9-90.63 9.006 14.141 35.164 43.518 70.838 62.685 26.312 14.137 58.11 27.922 96.625 35.1 3.007 5.86 5.88 10.78 6.521 11.769l9.951-3.85c-6.379-9.49-14.956-20.295-18.656-19.555z" fill="#cac8c7"/>
   <path transform="translate(-31.137 -1598.8)" d="m162.56 1738.9c0.151 3.185 19.77 10.241 34.736 11.073l13.652-10.466c-2.443 0.101-48.496-2.862-48.388-0.607z" fill="#f2f0ee"/>
   <path transform="translate(-31.137 -1598.8)" d="m162.56 1738.9c0.151 3.185 19.77 10.241 34.736 11.073l13.652-10.466c-2.443 0.101-48.496-2.862-48.388-0.607z" fill="#f2f0ee"/>
   <path transform="translate(-31.137 -1599)" d="m162.56 1739c0.151 3.185 19.77 10.241 34.736 11.073l2.8-2.144c-18.382-2.838-28.222-6.116-34.128-9.661-2.148 0.124-3.427 0.354-3.408 0.732z" fill="#cac8c7"/>
   <path transform="translate(-419.3 -1597)" d="m816.92 1735.6c-12.665-5.094-30.453 33.93-11.528 40.2 48.121 8.584 92.306 15.053 94.8 8.949 3.708-9.055-49.564-36.908-83.272-49.149z" fill="#f2f0ee"/>
   <path transform="translate(-419.4 -1617.9)" d="m880.62 1797.1c-3.792 1.138-11.537-1.39-15.789-5.86a17.822 17.822 0 0 0-7.516-5.171c-9.136-3.514-42.4-15.031-56.537-16.892-2.551 4.068-8.274 23.3 4.722 27.434 38.822 6.925 75.076 12.472 88.951 11.153 3.442-4.293-10.402-11.693-13.831-10.664z" fill="#cac8c7"/>
   <path transform="translate(-452.79 -1747.1)" d="m852.91 1980.4c6.075 2.531 15.38 9.87 15.32 11-2.116 0.318-8.563 0.249-16.354 0.042z" fill="#a8b2b7"/>
   <path transform="translate(-366.23 -1664.2)" d="m767.95 1870.5c-0.952-7.3-10.618-18.96-15.775-25.635l-40.045 34.432a11.9 11.9 0 0 1 1.062 7.433c-0.607 3.185-3.944 14.107-2.427 21.387 1.114 5.346 53.521 3.882 55.214 1.669 1.972-2.579 0-20.477 0-24.421s2.881-7.888 1.971-14.865z" fill="#f2f0ee"/>
   <path transform="translate(-366.23 -1664.2)" d="m760.91 1881.4c1.9-2.966-7.791-12.341-9.032-15.858-1.307-3.7 1.985-9.8 5.932-13.372-2.048-2.715-4.054-5.232-5.636-7.279l-40.045 34.432a11.9 11.9 0 0 1 1.062 7.433c-0.607 3.185-3.944 14.107-2.427 21.387 1.114 5.346 53.521 3.882 55.214 1.669a3.952 3.952 0 0 0 0.558-1.588c-17.141 4.69-15.348-11.655-5.626-26.824z" fill="#cac8c7"/>
   <path transform="translate(-332.91 -1427.3)" d="m690.8 1457.7c-2.579-0.793-27.959 13.852-34.888 20.781l38.983 14.562c1.07-11.966-1.404-34.514-4.095-35.343z" fill="#f2f0ee"/>
   <path transform="translate(-372.18 -1446.5)" d="m731.46 1489c-1.718-0.409-8.344 10.88-11.352 17.978l14.054 5.25a118.53 118.53 0 0 0-0.514-20.721c-0.757-1.369-1.521-2.348-2.188-2.507z" fill="#cac8c7"/>
   <path transform="translate(-99.844 -1440.7)" d="m319.39 1479.5c3.138 3.138-34.624 66.543-41.865 64.314-4.505-1.386-2-21.1-1.517-22.449 2.337-6.545 41.602-43.644 43.382-41.865z" fill="#e094bd"/>
   <path transform="translate(74.04 -1476.5)" d="m-9.364 1538.1c1.278-1.916 69.719 25.865 73.112 28.82 4.7 4.1 11.225 19.264 9.708 20.326-1.629 1.14-21.265-8.46-40.8-19.568-22.149-12.589-42.931-28.213-42.02-29.578z" fill="#e094bd"/>
   <path transform="translate(-515.52 -1663.1)" d="m974.07 1844c-2.519 0.843-6.379 0.742-10.756-0.856-4.044 1.573-8.79 4.8-8.876 6.268-0.114 1.934 28.555 3.754 29.692 0.569 0.312-0.871-4.934-3.979-10.06-5.981z" fill="#bb7c9f"/>
   <path transform="translate(-433.98 -1646.1)" d="m825.24 1815.4-4.1 9.215c13.523 0.9 15.715-0.479 15.813-1.365 0.184-1.617-6.908-5.79-11.713-7.85z" fill="#a8b2b7"/>
   <path transform="translate(-514.69 -1662.7)" d="m973.9 1843.4c5.146 2.02 10.4 5.04 9.9 6.445-1.29 3.611-30.886 2.084-30.718-0.777 0.1-1.712 4.567-4.806 8.614-6.492l1.325 0.59c-3.9 1.437-8.468 4.666-8.857 5.837 2.1 1.478 23.488 2.8 27.935 0.971 0.756-0.312 0.746-0.468 0.038-1.031a43.384 43.384 0 0 0-9.445-4.92z" fill="#93617d"/>
   <path transform="translate(-435.14 -1646.2)" d="m823.03 1825.2c8.3 0.518 15.356 0.383 15.607-1.885 0.235-2.118-7-6.061-10.865-7.867l-0.344 1c5.331 2.463 10.256 5.854 10.159 6.752 0 0.018-0.36 1.782-14.007 0.974z" fill="#848c90"/>
   <g fill="#0c1015">
    <path transform="translate(-331.36 -1425.3)" d="m655.75 1475.9c8.282-7.414 31.361-20.267 33.341-19.692 1.919 0.59 4.735 20.112 3.827 33.486l1.963 1.22c0.887-11.781-1.721-35.455-5.033-36.474-2.933-0.906-29.2 14.076-36.473 20.891z"/>
    <path transform="translate(-81.744 -1552.5)" d="m249.54 1675.1c-1.751-2.754-4.026-8.976-4.24-11.842-0.092-1.225 0.721-1.376 0.931-0.207a54.6 54.6 0 0 0 4.137 11.635c0.485 1.068-0.2 1.402-0.828 0.414z"/>
    <path transform="translate(-82.189 -1545.3)" d="m284.09 1673.8c-8.909-7.357-30.972-27.493-37.318-22.546-1.212 0.945-0.91 1.645 0.471 0.835 6.6-3.887 27.893 16.5 35.294 22.664z"/>
   </g>
   <path transform="translate(-98.892 -1439.9)" d="m276.42 1543.6c-5.261-1.433-2.327-21.823-1.86-23.132 2.328-6.517 35.231-37.606 42.436-41.8 1.392-0.81 2.232-0.645 2.065 1.064-0.839 8.603-34.929 65.969-42.641 63.868zm41.688-64.327c-3.748 1.055-40.149 34.826-42.552 41.55-0.485 1.36-2.658 20.623 1.175 21.766 6.319 1.885 42.915-58.283 41.377-63.315z" fill="#93617d"/>
   <path transform="translate(74.868 -1475.7)" d="m31.563 1567.3c-18.651-10.6-38.347-24.62-41.779-28.875-0.936-1.16-0.658-1.993 1.024-1.713 9.519 1.584 69.5 26.391 72.459 28.97 4.353 3.792 11.862 19.625 9.664 21.158-2.431 1.705-27.622-11.725-41.368-19.54zm40.717 18.718m-81.751-48.3c2.223 2.926 19.983 16.4 41.556 28.662 20.777 11.81 38.2 20.014 40.216 19.592 0.608-1.613-5.2-15.549-9.729-19.491-3.707-3.229-65.451-27.791-72.043-28.762z" fill="#93617d"/>
   <g fill="#0c1015">
    <path transform="translate(-433.89 -1596)" d="m832.88 1735.6c36.452 13.493 84.6 40.1 81.419 47.881-2.545 6.22-56.839-2.629-92.4-8.946l-0.91 1.515c60.192 10.825 92.528 13.962 94.941 7.964 4.1-10.19-52.105-39.189-82.944-50.573z"/>
    <path transform="translate(-517.19 -1656.2)" d="m958.03 1832.1c10.434 7.392 20.847 5.478 20.374 1.379-0.1-0.9 0.613-0.775 0.724-0.069 0.821 5.226-9.159 8.361-21.546-0.655-0.793-0.577-0.346-1.217 0.448-0.655z"/>
    <path transform="translate(-364.21 -1663.6)" d="m751.42 1844c4.172 5.323 14.476 18.033 15.462 25.6 0.943 7.227-1.982 11.087-1.982 15.117 0 4.34 2.05 22.167-0.138 25.028-1.983 2.592-55.981 4.687-57.3-1.62-1.495-7.172 1.846-18.146 2.585-22.028a10.088 10.088 0 0 0-0.414-5.585l1.455-0.822a12.242 12.242 0 0 1 0.608 6.622c-0.891 4.7-3.866 14.282-2.429 21.181 0.914 4.414 51.627 3.693 54.3 1.432 1.731-2.269-0.129-20.453-0.129-24.077 0-4.375 2.875-7.908 1.977-14.8-0.914-7-11.393-19.981-14.956-24.473z"/>
    <path transform="translate(-430.37 -1707.7)" d="m822.05 1926c-1.714-2.715-5.446-6.516-6.687-9.136-0.408-0.86 0.236-1.134 0.724-0.344 1.642 2.659 5.729 7 6.619 9.1 0.414 0.98-0.131 1.212-0.656 0.38z"/>
    <path transform="translate(-454.52 -1745.6)" d="m854.72 1978c4.953 2.064 14.539 8.995 16.171 11.463 0.5 0.762 0.362 1.123-0.658 1.223-1.379 0.135-4.946 0.312-6.9 0.276l-1.565-1.38a68.093 68.093 0 0 0 7.352-0.06c-1.643-1.913-8.978-7.594-14.351-9.937z"/>
    <path transform="translate(175.87 -1379.5)" d="m71.536 1381.1c-0.309-1.76-0.86-2-2.62-1.1-11.125 5.637-68.489 58.79-87.495 83.7-1.165 1.527-2.572 1.786-4.482 0.9-24.425-11.377-136.12-59.874-150.79-62.26-1.688-0.274-2.051-0.211-2.022 1.455 0.119 6.789 30.126 47.473 74.348 71.233 33.076 17.772 64.136 28.829 96.63 34.94 2.152 4.183 4.351 8.171 5.55 10.238l1.571-0.515c-1.035-1.728-3.208-5.539-5.493-9.934-0.645-1.24-0.644-1.234-1.872-1.466-32.221-6.1-62.656-17.225-95.5-34.87-48.662-26.147-75.906-67.79-73.958-69.825 4.84-1.5 122.66 49.318 151.3 62.805a4.423 4.423 0 0 0 5.887-1.3c17.24-22.461 81.822-83.363 87.449-83.985 1.613 2.3-5.666 39.642-26.82 74.449-8.232 13.544-22.567 32.289-31.39 42.24l1.374 1.064c8.857-10 22.912-29.031 31.164-42.61 19.494-32.077 28.285-68.803 27.168-75.159z"/>
    <path transform="translate(-29.363 -1597.7)" d="m206.31 1737.1c-9.957-0.452-40.524-1.607-45.616-0.278-1.52 0.4-1.145 1.352-0.3 2.243 2.817 2.984 16.065 8.262 28.234 10.032l2.108-1.248c-14.087-1.781-28.548-7.55-29.384-9.943 3.147-1.389 37.624 0.537 44.82 0.877z"/>
   </g>
   <path transform="translate(-247.48 -1730.2)" d="m516.24 1955a112.22 112.22 0 0 0 30.575 5.371c0.734 0.025 1.46 0.038 2.187 0.052-2.972-2.707-8.016-5.19-14.016-6.609-6.933-1.639-15.082-1.332-18.746 1.186z" fill="#cac8c7"/>
   <path transform="translate(-215.04 -1625.5)" d="m588.97 1796.7c-13.789 19.305-8.274 26.89-10.894 33.785-3.7 9.729-20.618 17.51-32.957 15.306-10.447-1.865-16.955-6.359-16.41-12 0.827-8.549 5.929-8.825 9.349-15.887 4.687-9.682-2.8-27.522-19.927-33.921-15.8-5.9-32.978-0.46-37.289 12.54-5.5 16.584 9.34 26.917-1.087 38.647a19.292 19.292 0 0 1-16.547 6.135 112.85 112.85 0 0 0 20.59 8.975c3.659-2.519 11.813-2.825 18.746-1.186 6 1.418 11.044 3.9 14.016 6.609 32.469 0.644 58.321-9.358 75.26-27.606 0 0 1.337-18.564 2.587-37.93a54.923 54.923 0 0 0-5.437 6.533z" fill="#cad5da"/>
   <path transform="translate(-215.04 -1655.2)" d="m590.25 1838.7c-1.965 0.207-5.171 6.722-6.826 10.342a30.12 30.12 0 0 1-4.539 6.945 14.054 14.054 0 0 1-0.8 4.155c-3.7 9.729-20.618 17.51-32.957 15.306-10.447-1.865-16.955-6.359-16.41-12 0.774-8 5.294-8.757 8.674-14.613-1.24-8.29-4.5-17.545-8.364-18.62-8.078-2.244-27.045 30.218-26.235 41.162 0.138 1.861 3.033 1.792 3.033 1.792-0.827 0.276-2.051 0.875-2.827 0.69-3.428-0.821-10.554-10.9-12.341-14.479-2.1-0.2-14.824-10.411-20.408-17.03 2.482 8 3.917 16.11 4.068 20.064 0.276 7.24-5.416 9.114-11.1 8.548a112.85 112.85 0 0 0 20.59 8.975c3.659-2.519 11.813-2.825 18.746-1.185 6 1.418 11.044 3.9 14.016 6.609 32.469 0.644 58.321-9.358 75.26-27.606 0 0 0.431-5.99 1.033-14.71a39 39 0 0 0-4.058-1.452z" fill="#a8b2b7"/>
   <path transform="translate(-137.49 -1455.5)" d="m518.9 1577.3c3.461 3.235 15.927 11.377 18.306 11.894 0.31-29.165-12-52.332-23.684-58.33-17.632-17.692-44.252-27.18-77.154-27.18-56.131 0-99.942 45.344-99.942 90.91 0 27.209 13.69 28.595 35.675 38.461 3.839 1.723 19 6.609 24.812 16.8 2.552 4.475 8.791 9.2 8.791 9.2 2.379-6.878-6.877-20.115-2.413-32.528 4.636-12.888 21.489-18.444 37.289-12.54 17.125 6.4 24.614 24.239 19.927 33.921-3.42 7.062-8.522 7.338-9.349 15.887-0.546 5.638 5.963 10.132 16.41 12 12.339 2.2 29.26-5.577 32.957-15.306 2.62-6.9-2.9-14.479 10.894-33.784a54.886 54.886 0 0 1 5.439-6.53c1.269-19.63 2.442-40.081 2.042-42.875z" fill="#f2f0ee"/>
   <path transform="translate(-137.49 -1455.5)" d="m518.9 1577.3c3.461 3.235 15.927 11.377 18.306 11.894 0.31-29.165-12-52.332-23.684-58.33-17.632-17.692-44.252-27.18-77.154-27.18-56.131 0-99.942 45.344-99.942 90.91 0 31.96 20.2 60.419 49.232 76.715 5.684 0.566 3.367-36.387 6.343-30.3 6.826 13.962 13.67 17.817 13.67 17.817 2.567-7.578-6.858-18.792-2.38-32.3 4.311-13 21.489-18.444 37.289-12.54 17.125 6.4 24.614 24.239 19.927 33.921-3.42 7.062-8.522 7.338-9.349 15.887-0.546 5.638 5.963 10.132 16.41 12 12.339 2.2 29.26-5.577 32.957-15.306 2.62-6.9-2.9-14.479 10.894-33.784a54.886 54.886 0 0 1 5.439-6.53c1.269-19.629 2.442-40.08 2.042-42.874z" fill="#f2f0ee"/>
   <g transform="translate(255.62 187.7)">
    <path transform="translate(-482.4 -1862.9)" d="m494.96 1878.6a9.746 9.746 0 0 0 0.428-3.681 107.02 107.02 0 0 1-12.992-11.963c6.44 12.189 12.564 15.644 12.564 15.644z" fill="#cac8c7"/>
   </g>
   <path transform="translate(-137.66 -1604.5)" d="m372.31 1755.4c-0.652-0.217-18.665-4.261-35.615-8.05 1.5 30.439 21.229 57.337 49.13 73a21.319 21.319 0 0 0 5.657-0.186c10.613-1.8 2.065-27.736 0.908-29-10.428-11.423-18.123-27.691-20.08-35.764z" fill="#cac8c7"/>
   <path transform="translate(-318.17 -1684.7)" d="m657.9 1896.7c-9.825-1.551-16.341-8.481-17.065-15.72-0.084-0.843-0.193-1.707-0.323-2.582-3.38 5.856-7.9 6.61-8.674 14.613-0.546 5.638 5.963 10.132 16.409 12 12.339 2.2 29.26-5.577 32.957-15.306a14.055 14.055 0 0 0 0.8-4.155c-6.004 7.015-15.464 12.514-24.104 11.15z" fill="#cac8c7"/>
   <path transform="translate(-203.86 -1569.1)" d="m585.27 1690.9-0.469 14.285c-0.593 15.695-12.015 25.316-23.815 25.18-13.26-0.153-27.525-10.3-28.062-25.332a65.452 65.452 0 0 1 0.31-9.275c-2.545-0.017-10.843-0.205-13.016-0.205-0.165-1.154-0.327-3.291-0.475-6.057-2.982-0.19-14.293 0.1-17.611 0.93 0.039 2.555 0.1 4.8 0.194 6.574-0.931 0-13.341 1.034-15 1.034-0.414-0.621-0.931-3.93-1.034-6.1a78.083 78.083 0 0 0-8.276 1.342 36.219 36.219 0 0 1 0.146 4.174c-0.147 6.932-5.391 12.438-13.955 12.438a19.859 19.859 0 0 1-15.044-7.094c-0.318-0.382-1.241-2.379-0.931-3.241a7.464 7.464 0 0 1-3.309 2.448 13 13 0 0 0 2.948 0.776c-0.606 7.959 0.494 19.222 3.332 30.642 1.515 1.887 4.019 4.765 6.742 7.769 0.049-2.214 0.2-3.91 0.492-4.334 1.172 1.172 5.378 5.378 6.964 6.895a33.276 33.276 0 0 0 0.018 5.39c1.3 1.315 2.446 2.432 3.344 3.237a25.239 25.239 0 0 1 0.9-12.248c4.311-13 21.489-18.444 37.289-12.54 17.125 6.4 24.614 24.239 19.927 33.921a19.95 19.95 0 0 1-2.855 4.336 30.877 30.877 0 0 0 6.019 2c0.934-2.3 1.781-4.6 2.483-6.82 3 0.413 10.652 0.931 11.687 1.138a52.231 52.231 0 0 1-2.378 7.442 97.352 97.352 0 0 0 13.141 0.179c1.194-2.6 2.313-5.3 3.3-8.035 2.451-0.2 6.946-0.95 10.138-1.556 0.895-4.937 3.192-11.232 9.374-19.886 4.785-6.7 9.871-11.042 14.33-13.3-0.944-2.915-1.243-6.184-0.644-8.277 3.93 1.965 8.274 0.931 10.549-2.482 2.371-3.557 0.49-11.217-0.61-14.4-4.421-2.35-13.309-8.297-16.143-10.948z" fill="#8a3142"/>
   <path transform="translate(-397.94 -1625.3)" d="m796.3 1790.5c2.329-3.884 1.021-7.893-0.434-8.554-4.961-2.255-15.01 2.039-23.994 14.617-16.6 23.239-8.7 35.571 0.742 33.338 15.823 5.041 53.913 10.856 55.381 8.721 1.805-2.637-20.347-37.296-31.695-48.122z" fill="#cad5da"/>
   <path transform="translate(-399.02 -1668.7)" d="m774.23 1852.2c-1.965 0.207-5.171 6.722-6.826 10.342a30.146 30.146 0 0 1-3.413 5.559 7.884 7.884 0 0 0 9.706 5.095c11.932 3.8 36.522 8.042 48.526 8.983-10.658-8.261-38.168-25.842-47.993-29.979z" fill="#a8b2b7"/>
   <path transform="translate(-249.26 -1596.6)" d="m576.86 1756.9c0.384-9.016-6.6-16.988-16.858-20.706-1.288 2.966-5.153 5.5-9.894 4.952-4.014-0.463-7.87-4.743-8.565-6.778-12.554 1.827-21.939 9.812-22.371 19.972a16.772 16.772 0 0 0 0.716 5.588c7.292-7.2 20.286-9.4 32.467-4.847a33.984 33.984 0 0 1 17.764 15.051 18.64 18.64 0 0 0 6.741-13.232z" fill="#742937"/>
   <path transform="translate(-320.92 -1641.6)" d="m650.89 1809.9a58.634 58.634 0 0 0-14.586-1.952c8.121 8.094 10.976 19.145 7.633 26.05a19.945 19.945 0 0 1-2.855 4.336 30.851 30.851 0 0 0 6.019 2c0.934-2.3 1.78-4.6 2.483-6.82 3 0.413 10.652 0.931 11.687 1.138a52.23 52.23 0 0 1-2.378 7.442 97.372 97.372 0 0 0 13.141 0.179c1.194-2.6 2.313-5.3 3.3-8.035 2.451-0.2 6.946-0.95 10.138-1.556a41.648 41.648 0 0 1 5.229-13.473c-10.854-7.735-25.431-9.697-39.811-9.309z" fill="#f1aebc"/>
   <path transform="translate(-320.92 -1641.6)" d="m650.89 1809.9a58.634 58.634 0 0 0-14.586-1.952 32.778 32.778 0 0 1 6.112 8.38c6.5-1.4 18.058-0.544 24.163 1.565 5.964-0.621 17.547 0.724 22.733 3.879 0.422-0.829 0.882-1.682 1.391-2.567-10.856-7.731-25.433-9.693-39.813-9.305z" fill="#c9929f"/>
   <path transform="translate(-174.02 -1630.4)" d="m414.16 1807c-2.737-7.982-5.257-16.2-5.481-17.375l-12.529 10.482c6.5 8.833 23.536 22.606 24.422 21.165 0.832-1.345-3.93-7.033-6.412-14.272z" fill="#a8b2b7"/>
   <path transform="translate(-193.66 -1630.2)" d="m438.04 1821a8.3 8.3 0 0 0 1.225 0.608c1.225 0.456 1.723 0.071 1.54-1.177-0.321-2.2-4.177-6.933-6.514-13.748-2.816-8.215-5.262-16.248-5.462-17.3l-0.583 1.915c0.892 3.094 2.924 9.542 5.045 15.73 2.371 6.918 6.41 11.847 6.494 13.644a10.746 10.746 0 0 1-2.665-1.478z" fill="#848c90"/>
   <path transform="translate(-368.52 -1600.2)" d="m748.75 1741.9a8.057 8.057 0 0 0-0.786-1.644l-33.784 8.55c-0.494 1.318 2.06 7.569 7.026 12.258a27.847 27.847 0 0 0 4.439 0.421c10.325 0.118 20.356-7.233 23.105-19.585z" fill="#cac8c7"/>
   <g fill="#848c90">
    <path transform="translate(-246.6 -1729.3)" d="m549.02 1959.7c-3.032-3.054-8.5-5.758-14.8-7.247-7.451-1.763-15.8-1.291-19.424 1.45l1.218 0.458c3.036-1.823 10.191-2.716 17.963-0.879 5.561 1.316 10.434 3.581 13.438 6.168z"/>
    <path transform="translate(-288.03 -1720.1)" d="m608.02 1936.8c-3.9 3.1-18.283 8.9-23.9 10.086l-1.594-0.841c3.369 0 19.806-6.431 24.468-9.791z"/>
    <path transform="translate(-348.75 -1726.2)" d="m683.43 1953.2a42.74 42.74 0 0 0 4.334-6.9l-1.241 0.137a42.689 42.689 0 0 1-4.729 7.122z"/>
    <path transform="translate(-380.46 -1717.9)" d="m734.57 1932.7c1.341 0.9 2.963 2 4.122 2.788l-1.025 0.581c-1.224-0.832-2.8-1.9-4.026-2.725z"/>
    <path transform="translate(-220.99 -1663.7)" d="m475.72 1878.3a6.018 6.018 0 0 0 3.087-3.139c2.367-5.162 0.341-15.757-5.859-30.638-0.112-0.269 0.864-0.676 0.977-0.407 6.407 15.377 8.374 25.971 5.845 31.486a6.824 6.824 0 0 1-5.144 4.191 7.174 7.174 0 0 1 1.094-1.493z"/>
    <path transform="translate(-245.8 -1699.8)" d="m521.27 1922.7a64.821 64.821 0 0 1-7.767-19.234c-0.066-0.284 0.963-0.526 1.03-0.24a63.813 63.813 0 0 0 7.643 18.929c0.151 0.25-0.807 0.71-0.906 0.545z"/>
   </g>
   <g fill="#0c1015">
    <path transform="translate(-410.78 -1497.5)" d="m787.8 1573.4c-2.327-0.078-3.535 3.472-3.775 7.472-0.083 1.391-0.732 1.464-0.793-0.034-0.181-4.451 1.071-7.448 2.913-8.395z"/>
    <path transform="translate(-418.95 -1509.5)" d="m804.55 1634.9c0.361-18.777-4.654-37.025-7.326-42.4-0.416-0.837-0.88-0.607-0.534 0.233 3.086 7.489 6.823 26.169 6.669 41.227z"/>
    <path transform="translate(-432.97 -1521.7)" d="m827.68 1652.7a93.157 93.157 0 0 0-7.464-40.076c-0.458-1.087-0.994-0.771-0.6 0.189 1.412 3.471 7.544 20.231 6.868 39.163z"/>
    <path transform="translate(-255.53 -1495.9)" d="m529.54 1620.9c1.939-0.4 6.311-1.255 7.808-1.4a26.733 26.733 0 0 0 0.931 5.171c0.247 0.776 0.444 0.981 1.344 0.931 2.507-0.141 11.875-0.822 14.031-0.965 0.9-0.06 1.114-0.213 1.069-1.207-0.551-11.991-0.426-44.271 0.965-53.055 0.116-0.736-0.491-0.733-0.655 0-1.488 6.648-2.337 35.86-1.554 52.913-0.889 0.054-12.706 0.948-14.11 1a27.007 27.007 0 0 1-0.812-5.135c-0.064-0.936-0.142-1.019-1.067-0.941-1.834 0.155-6.745 1.109-8.087 1.38z"/>
    <path transform="translate(-266.02 -1497.8)" d="m547.35 1616.6c-1.917-16.633-0.537-31.836 5.654-43.334 0.39-0.724 0.973-0.491 0.621 0.241-5.093 10.579-6.947 25.126-5.481 42.954 0.082 1.016-0.679 1.137-0.794 0.139z"/>
    <path transform="translate(-294.2 -1568.3)" d="m610.4 1689.5c-2.266-0.258-14.412 0.067-17.731 0.88l-0.056-1.31c3.849-0.838 14.923-1.078 17.679-0.867z"/>
    <path transform="translate(-320.15 -1541.2)" d="m649.59 1668.8c-1.874-0.021-10.266-0.281-12.669-0.311-1.04-0.013-1.073-0.044-1.167-1.052a202.97 202.97 0 0 1-0.643-22.684c0.028-1.122 0.756-1.174 0.776-0.052 0.175 10.092 0.689 19.139 1.086 22.485 1.3 0.01 10.8 0.184 12.643 0.2z"/>
    <path transform="translate(-319.5 -1496.1)" d="m634.36 1595.8c-0.724-9.1-0.347-20.232 0.621-24.976 0.207-1.014 0.955-1.01 0.827 0-0.52 4.132-0.809 13.078-0.672 24.976 0.012 1.054-0.692 1.054-0.776 0z"/>
    <path transform="translate(-433.39 -1588)" d="m831.76 1721.2c1.133 3.436 2.866 10.886 0.448 14.514a8.342 8.342 0 0 1-10.549 3.137 15.755 15.755 0 0 0 0.793 7.033l-1.181 0.618a17.546 17.546 0 0 1-0.916-8.373c0.205-1.051 0.374-1.144 1.235-0.757a7.453 7.453 0 0 0 9.524-2.467c2.253-3.379 0.379-11.237-0.881-14.513z"/>
    <path transform="translate(-266.1 -1492.1)" d="m547.14 1566.2a12.207 12.207 0 0 1 3.62-2.456c1.194-0.481 1.543 0.06 0.466 0.7a32.921 32.921 0 0 0-3.594 2.508c-0.907 0.714-1.35 0.153-0.492-0.752z"/>
    <path transform="translate(-276.84 -1484.6)" d="m565.04 1554.5c5.267-3.217 13.4-3.533 17.168-2.715 1.453 0.316 1.22 1.1-0.079 0.981a33.848 33.848 0 0 0-16.741 2.631c-1.242 0.552-1.655-0.098-0.348-0.897z"/>
    <path transform="translate(-312.01 -1486.6)" d="m692.13 1632.1c-3.923 10.992-14.053 16.821-23.012 16.754-13.364-0.153-28.343-11.018-28.889-26.286-0.542-15.176 4.873-23.1 4.717-35.606-0.2-16.212-8.547-27.9-22.348-31.341-1.167-0.291-1.2-1.209 0.24-0.932 12.717 2.446 23.156 13.307 23.39 32.233 0.144 11.654-5.2 19.52-4.623 35.661 0.524 14.664 14.663 24.674 27.54 24.822a22.9 22.9 0 0 0 20.991-14.159z"/>
    <path transform="translate(-206.8 -1589.6)" d="m474.17 1793.5c1.078 0.854 1.316 0.906 1.627-0.464 2-8.839-7.02-19.191-2.7-32.221 4.3-12.961 21.385-17.9 36.6-12.211 16.662 6.226 24.24 23.687 19.636 33.2-3.28 6.775-8.807 7.238-9.648 15.928-0.561 5.8 6.011 11.024 16.961 12.979 12.606 2.252 30.19-6 33.922-15.823 2.681-7.057-3.084-14.62 10.583-33.753 8.773-12.284 18.575-16.614 23.344-14.443 1 0.454 2.526 4.029 0.155 7.89l0.891 0.867c2.559-3.965 1.538-9.01-0.483-9.928-5.28-2.4-15.827 1.942-25.028 14.823-13.763 19.269-8.284 27.727-10.7 34.079-3.59 9.445-20.223 17.143-32.37 14.974-10.357-1.85-16.479-6.228-15.976-11.426 0.81-8.377 5.714-8.3 9.3-15.708 5.338-11.026-3-28.642-20.029-34.951-16.251-6.02-33.892-0.368-38.352 13.083-4.437 13.383 4.16 22.645 2.68 31.653-15.906-13.679-24.978-47.554-23.233-68.962l-1.424-0.112c-1.65 20.279 6.906 56.783 24.244 70.526z"/>
    <path transform="translate(-223.32 -1642.8)" d="m478.49 1829.1c-0.413-2.41-0.842-14.378-0.348-17.536 3.03 3.027 5.1 5.075 6.162 6.1-0.345 3.37 0.951 18.434 2.142 24.106l1.5 1.433c-1.05-1.867-2.805-20.149-2.495-25.01 0.059-0.928 0.046-1.012-0.9-1.931-1.194-1.164-3.179-3.111-6-5.929-0.624-0.624-1.143-0.578-1.379 0.241-0.693 2.4-0.428 11.4-0.1 16.031z"/>
    <path transform="translate(-327.3 -1688.4)" d="m646.72 1885.4a30.2 30.2 0 0 0 6.958 2.365l0.519-1.067a30.556 30.556 0 0 1-6.688-2.212z"/>
    <path transform="translate(-338.09 -1699.4)" d="m665.64 1919.4c2.625-2.335 6.882-9.711 9.411-16.056 0.425-1.066-0.366-1.37-0.827-0.31-2.82 6.478-6.937 13.8-9.853 15.94z"/>
    <path transform="translate(-298.12 -1638.5)" d="m612.62 1815.3a26.483 26.483 0 0 0-12.927-11.428c-1.1-0.46-0.734-1.255 0.407-0.881 5.187 1.7 11.208 6.526 13.3 11.9 0.405 1.048-0.251 1.383-0.78 0.409z"/>
    <path transform="translate(-246.85 -1634.9)" d="m534.51 1854.6c-4.457-1.516-25.127-26.373-17.7-45.04 3.8-9.553 15.739-14.85 27.424-11.584 1.091 0.305 0.9 1.2-0.177 0.95-11.166-2.642-22.246 2.157-25.859 11.242-7.126 17.919 12.629 41.583 16.64 42.948 2.512 0.837 23.234-13.138 28.081-27.386a16.239 16.239 0 0 0 0.213-9.369c-0.316-1.206 0.539-1.463 0.907-0.286a15.3 15.3 0 0 1 0.155 10.135c-4.975 14.621-26.394 29.516-29.684 28.39z"/>
    <path transform="translate(-404.26 -1634.5)" d="m831.38 1848.9c-10.654 0-49.436-6.3-58.227-11.118-1.962-1.077 1.086-11.79 5.377-19.457 0.6-1.075 1.448-0.669 0.88 0.428-4.347 8.386-6.006 16.92-5.339 17.806 10.092 5.527 57.628 12.548 59.832 10.852 1.182-2.781-23.825-42.408-34.229-49.562-2.292-1.578-12.559 8.234-18.92 18.473-0.626 1.007-1.245 0.655-0.776-0.414 1.862-4.24 15.688-22.442 20.426-19.184 9.145 6.289 30.909 39.276 34.181 48.143 1.353 3.663 1.324 4.033-3.205 4.033z"/>
    <path transform="translate(-319.2 -1640.1)" d="m634.6 1807c9.949 0.08 23.286 2.809 31.053 10.761 0.68 0.7 1.25 0.082 0.569-0.672-7.832-8.664-22.236-12-32.733-11.532z"/>
    <path transform="translate(-338.58 -1643.1)" d="m709.08 1820.2c-10.342-7.447-26.062-10.808-43.9-9.463l4.059 1.2c17.1-0.371 29.949 2.742 39.17 9.462z"/>
    <path transform="translate(-304.59 -1596.5)" d="m631.15 1764.1a17.523 17.523 0 0 0 1.931-7.377c0.516-12.137-12.047-21.156-22.736-22.511-1.059-0.134-0.879 0.647-0.129 0.8 12.892 2.658 21.862 11.843 21.44 21.757a16.65 16.65 0 0 1-1.966 7.152z"/>
    <path transform="translate(-247.72 -1595.8)" d="m558.09 1735c-1.027 2.8-4.693 5.484-9.474 4.931-3.481-0.4-6.789-3.856-7.859-5.806-0.525-0.956-0.6-1.017-1.575-0.857-12.684 2.092-22.119 10.226-22.549 20.323a18.513 18.513 0 0 0 1.034 6.55l1.183-1.018a16.273 16.273 0 0 1-0.7-5.451c0.409-9.611 9.14-17.3 21.376-19.283 0.928 2.369 4.865 6.43 8.894 6.894 5.216 0.6 9.756-2.378 10.842-5.791z"/>
    <path transform="translate(-355.78 -1679.4)" d="m720.24 1874.4c-3.046 9.033-8.632 17.538-11.979 21.017l-2.074 0.487c1.923-1.224 10.843-12.88 13.947-24.838-3.25 0.612-7.2 1.259-9.559 1.478-4.09 11.179-10.278 21.979-15.707 27.493l-1.581 0.062c5.471-5.058 11.837-16.182 16.094-27.718 0.307-0.833 0.358-0.89 1.33-0.99 2.563-0.264 6.787-1.034 10-1.655z"/>
    <path transform="translate(-135.76 -1453.5)" d="m511.76 1658.3c-25.353 25.766-61.378 27.3-76.808 26.769-53.27-1.825-101.35-41.139-101.35-92.511 0-49.813 45.169-92.011 101.04-92.011 33.933 0 60.292 9.816 77.98 27.527 12 6.23 23.894 30.108 23.683 58.95-6e-3 0.859-0.425 1.308-1.293 0.982-3.445-1.293-15.31-9.1-18.461-12.049-3.628-3.392-8.894-24.735-8.377-35.353 0.066-1.359 0.72-1.376 0.758-0.035 0.367 12.712 5.511 31.545 8.6 34.433 3.223 3.012 14.068 10.143 17.421 11.544 0.094-28.206-11.9-51.07-23.539-57.043-12.928-13.135-37.374-27.2-76.774-27.2-54.347 0-99.413 42.114-99.413 90.381 0 49.261 47.782 88.747 99.886 90.532 31.588 1.082 57.509-7.7 75.165-25.432z"/>
    <path transform="translate(-235.57 -1661.2)" d="m496.81 1841.7c1.768 1.792 3.124 3.079 4.039 3.833l-0.25-1.856c-0.968-0.884-2.3-2.05-3.826-3.62z"/>
    <path transform="translate(-213.2 -1636)" d="m460.54 1801.2c1.646 2.01 4.209 4.941 7.114 8.124l-0.1-1.774c-3.358-3.708-6.113-7.02-7.363-8.687z"/>
    <path transform="translate(-323.39 -1681)" d="m662.15 1880.9a55.631 55.631 0 0 0 2.114-6.3c0.221-0.933 0.055-1.163-0.9-1.276-0.705-0.083-8.248-0.723-10.721-1-0.969-0.108-1.074-0.01-1.379 0.931a113.1 113.1 0 0 1-10.919 23.3l0.991 0.591a114.3 114.3 0 0 0 11.091-23.692c1.673 0.208 9.839 0.905 10.674 1a53.4 53.4 0 0 1-2.08 6.429c-0.32 0.833-0.266 1.055 0.655 1.125a98.59 98.59 0 0 0 13 0.145l0.586-1.215a94.98 94.98 0 0 1-13.112-0.038z"/>
   </g>
   <path transform="translate(-111.8 -1654.4)" d="m367.75 1865.5c-0.664-5.308-6.77-18.048-14.107-22.6-19.584-14.932-27.508-16.27-38.224-11.377-6.219 6.523-18.143 15.247-17.292 29.427 0.455 7.584-7.1 23.957-1.82 41.713 2.544 8.557 56.406 6.12 58.551 0.758 1.213-3.034 2.124-18.657-0.758-27.3 4.498-1.437 14.064-7.313 13.65-10.621z" fill="#f2f0ee"/>
   <path transform="translate(-113.78 -1654.4)" d="m369.74 1865.5c-0.664-5.308-6.77-18.048-14.107-22.6-19.584-14.932-27.508-16.27-38.224-11.377-2.735 2.868-6.572 6.163-9.942 10.16 6.329-4.135 14.449-7.417 22.36-7.794 11.979-0.57 14.783 12.417 13.445 20.891-0.621 3.93-12.824 14.479-13.031 18.409s7.653 24.614 2.9 27.1c-6.916 3.608-26.68 2.567-35.462 0.016 0.186 0.784 0.387 1.571 0.622 2.362 2.544 8.557 56.406 6.12 58.551 0.758 1.213-3.034 2.124-18.657-0.758-27.3 4.498-1.441 14.059-7.317 13.646-10.625z" fill="#cac8c7"/>
   <path transform="translate(-90.584 -1759.3)" d="m290.26 2012.6c0.045-0.557-10.148-12.11-13.5-12.286-6.087-0.32-17.694 9.167-16.989 13.045 0.4 2.195 30.298 1.629 30.489-0.759z" fill="#cad5da"/>
   <path transform="translate(-144.63 -1764.5)" d="m348.1 2018.3c-0.174-3.484 7.131-9.736 11.983-9.4 9.878 0.674 15.07 7.648 15.017 8.495-0.195 3.114-12.055 7.7-16.534 7.433-2.086-0.129-10.366-4.473-10.466-6.528z" fill="#cad5da"/>
   <path transform="translate(27.79 -1578)" d="m180.3 1704.1c-39.59 15.472-119.79 67.808-113.76 79.862 3.868 7.736 103.52-22.07 135.61-38.907z" fill="#f2f0ee"/>
   <path transform="translate(27.79 -1577.9)" d="m180.3 1703.9c-39.59 15.472-119.79 67.808-113.76 79.862 3.868 7.736 103.52-22.07 135.61-38.907 15.827-9.582-4.487-42.855-21.843-40.955z" fill="#f2f0ee"/>
   <path transform="translate(6.281 -1616.6)" d="m137.36 1797c-4.24 8.17-17.651 15.031-22.339 11.169-9.675 5.575-13.889 10.955-13.629 14.663 29-4.5 96.842-25.977 122.26-39.319 5.368-3.251 6.573-9.229 5.15-15.634-20.649-4.157-55.657 7.065-85.7 22.959-2.54 1.348-4.033 2.867-5.744 6.162z" fill="#cac8c7"/>
   <path transform="translate(-4.832 -1677.1)" d="m150.39 1867.9a3.605 3.605 0 0 0-3.256-1.817c-5.762 4.334-11.42 6.208-15.445 6.11-6.4 3.108-11.875 6.327-12.124 7.2-0.226 0.791 2.324 1.413 5.207 1.679 7.059-1.568 15.146-3.63 23.723-6.024 3.084-2.959 2.567-5.752 1.895-7.148z" fill="#bb7c9f"/>
   <path transform="translate(-356.74 -1549.5)" d="m751.18 1676.5c0 4.49-19.942 28.062-35.191 28.062-9.454 0-21.125-10.5-21.125-23.664 0-12.969 8.623-23.483 19.261-23.483 10.032 0 37.055 15.349 37.055 19.085z" fill="#f2f0ee"/>
   <path transform="translate(-367.5 -1583.4)" d="m755.5 1714.1c-5.451-3.964-37.169 1.421-43.038 17.289 4.125 4.388 9.494 7.1 14.294 7.1 6.9 0 14.758-4.83 21.3-10.532 3.717-3.709 10.179-11.867 7.444-13.857z" fill="#cac8c7"/>
   <path transform="translate(-132.63 -1618.1)" d="m367.54 1779.1a20.781 20.781 0 0 0 0.257-9.07l-0.333-0.421c-16.268 4.778-40.548 21.564-38.907 25.256 0.487 1.1 6.7 0.9 11.147 0.4 7.448-2.895 16.02-6.392 19.412-8.281 4.804-2.296 7.061-3.965 8.424-7.884z" fill="#a8b2b7"/>
   <path transform="translate(-196.75 -1513.1)" d="m469.38 1597.9c-4.021 3.984-9.429 11.88-10.455 17.184-7.449-4.779-19.078-4.912-23.056 0.759-5.874 8.373-0.588 23.383 5.387 29.217a6.529 6.529 0 0 0 0.805 1.762 19.859 19.859 0 0 0 15.044 7.094c8.564 0 13.808-5.506 13.955-12.438 0.278-13.042-5.609-15.113-5.624-27.9a32.834 32.834 0 0 1 3.944-15.678z" fill="#e094bd"/>
   <path transform="translate(-200.12 -1557.8)" d="m465.1 1677-15.927-4.664c-1.61-0.919-7.362-1.827-10.353-1.137a35.64 35.64 0 0 1 4.778 4.55c-0.114 8.874 5.344 15.586 11.262 15.586 7.364 0 10.222-6.588 10.24-14.335z" fill="#0c1015"/>
   <path transform="translate(-426.1 -1749.9)" d="m808.25 1997.4c-0.151-3.641 6.378-12.1 8.8-12.286 6.573-0.5 19.946 11.163 19.946 12.286-2e-3 1.289-28.694 1.24-28.746 0z" fill="#cad5da"/>
   <g fill="#a8b2b7">
    <path transform="translate(-96.655 -1764.1)" d="m287.76 2008.3c-6.869 1.884-14.4 6.676-18.1 11.01 8.154 0.815 26.516 0.063 26.665-1.807 0.031-0.374-4.539-5.691-8.565-9.203z"/>
    <path transform="translate(-166.88 -1765)" d="m384.74 2009.7c4.532 6.711 2.934 11.777-0.275 15.2 5.322-1.186 12.724-4.552 12.877-7.007 0.053-0.777-4.297-6.679-12.602-8.193z"/>
    <path transform="translate(-426.07 -1754.2)" d="m808.23 2001.7c0.146 0.875 17.4 1.041 25.767 0.656-4.171-2.793-14.927-8.687-20.615-10.239-2.173 2.637-5.431 7.912-5.152 9.583z"/>
   </g>
   <path transform="translate(-131.63 -1616.9)" d="m366.8 1767.9a0.533 0.533 0 0 0-0.563-0.179c-15.246 4.478-41.314 21.56-39.284 26.12 0.652 1.469 6.655 1.225 11 0.773l3.931-1.618c-4.04 0.9-13.215 1.287-13.963 0.415-1.247-2.784 21.08-19.255 38.232-24.431q0.434 0.547 0.886 1.124z" fill="#848c90"/>
   <g fill="#93617d">
    <path transform="translate(-47.373 -1676.1)" d="m190.37 1864.3c3.1-0.613 6.208 5.719 1.211 9.758l-1.72 0.476c5.478-4.866 2.386-9.872-0.767-8.981z"/>
    <path transform="translate(-3.987 -1686.6)" d="m131.88 1881.8c-6.84 3.29-12.842 6.729-12.611 7.163 0.155 0.289 3.8 1.2 7.636 1.2l-3.512 0.868c-4.561-0.481-5.449-1.388-5.188-2.3 0.269-0.941 5.412-4.073 11.6-7.146z"/>
    <path transform="translate(-195.71 -1511.1)" d="m467.78 1597.2c-3.679 4-8.159 10.744-9.284 15.459-0.216 0.907-0.371 1.161-1.262 0.616-7.609-4.661-18.393-4.286-21.987 0.836-5.313 7.573-1.088 21.587 4.687 27.885l-0.731 0.768c-6.032-6.524-10.775-21.238-4.988-29.488 4.2-5.992 16.012-5.341 23.3-1.066 1.478-5.81 7.432-14.129 11.417-17.641z"/>
   </g>
   <path transform="translate(-186.32 -1427.6)" d="m420.74 1458.3c-1.763 0.914-6.523 36.253-3.489 45.2 10.867 4.461 37.653-13.637 40.239-23.359-5.765-5.61-32.655-23.965-36.75-21.841z" fill="#f2f0ee"/>
   <path transform="translate(-212.16 -1445.6)" d="m482.98 1498.1c-2.9 9.07-16.919 17.76-20.163 18.03-3.31 0.276-5.654-26.338-3.447-28.269 1.757-1.537 11.122 2.172 17.022 4.861a80.829 80.829 0 0 1 6.588 5.378z" fill="#cac8c7"/>
   <g fill="#0c1015">
    <path transform="translate(-204.9 -1676.1)" d="m459.31 1883.2c-2.266-6.366-7.03-14.39-12.2-17.926-0.8-0.547-0.536-1.229 0.414-0.724 4.5 2.395 10.867 11.346 12.686 18.374 0.309 1.212-0.484 1.45-0.9 0.276z"/>
    <path transform="translate(-137.95 -1777.6)" d="m337.17 2031.7c1.37 0.141 2.791 0.255 4.248 0.346l-0.054-1.509c-1.4-0.071-2.772-0.164-4.085-0.28z"/>
    <path transform="translate(-109.65 -1660.7)" d="m293.23 1902c-2.031-14.989 3.685-28.056 3.274-34.9-0.795-13.264 9.737-21.609 16.125-27.987l-3.421 1.3c-11.146 10.76-14.84 17.355-14.272 26.821 0.388 6.473-5.68 19.821-3.585 35.025z"/>
    <path transform="translate(-186.84 -1711.1)" d="m417.11 1964.9c7.836-0.816 13.257-2.2 13.972-3.988 1.243-3.106 2.046-18.565-0.689-27.441 6.6-2.861 13.962-7.36 12.876-11.342-0.188-0.688-1-0.569-0.913 0.138 0.329 2.632-7.926 8.118-12.886 9.881-0.833 0.3-0.953 0.408-0.673 1.316 2.695 8.743 1.692 23.766 0.614 26.459-0.545 1.364-5.409 2.539-12.1 3.329z"/>
    <path transform="translate(-173.47 -1647.3)" d="m396.56 1817.3c2.056 2.816 7.321 7.936 9.341 9.969 0.758 0.763 0.269 1.208-0.569 0.62a54.638 54.638 0 0 1-10.083-9.928z"/>
    <path transform="translate(-127.83 -1691.4)" d="m325.91 1909.7c-0.015-7.492-7.171-5.447-4.792-19.65 0.139-0.829 0.891-0.765 0.793 0.069-1.677 14.222 5.315 11.273 4.792 19.581-0.055 0.864-0.792 0.846-0.793 0z"/>
    <path transform="translate(-169.89 -1711.7)" d="m389.67 1929.2a38.2 38.2 0 0 0 3.956-6.076c0.424-0.83 1.042-0.6 0.724 0.31a18.192 18.192 0 0 1-4.059 6.257c-0.772 0.67-1.244 0.236-0.621-0.491z"/>
    <path transform="translate(-196.41 -1716.3)" d="m435.72 1934.6a16.551 16.551 0 0 0-2.637-3.568c-0.652-0.715-0.273-1.243 0.543-0.7a9.053 9.053 0 0 1 2.792 4.008c0.219 1.092-0.324 1.108-0.698 0.26z"/>
    <path transform="translate(-88.683 -1757.4)" d="m289.34 2010.7a0.906 0.906 0 0 1-0.458 0.977c-4.028 2.35-26.519 2.708-31.189 1.092-0.93-0.322-0.991-0.66-1.034-0.9-0.747-4.109 11.816-14.94 18.2-14.617 3.068 0.165 14.495 11.915 14.481 13.448zm-30.965 0.615c1.793 1.521 26.456 1.27 29.37-0.634-1.169-1.79-10.121-11.572-12.919-11.719-5.801-0.298-16.899 8.849-16.451 12.354z"/>
    <path transform="translate(-142.82 -1763)" d="m345.13 2016.9c-0.158-3.175 7.4-10.717 13.1-10.342 10.037 0.685 16.278 8.242 16.2 9.446-0.24 3.816-13.146 8.833-17.789 8.549-2.73-0.16-11.381-5.07-11.511-7.653zm1.679-0.034c0.076 1.518 7.789 5.893 9.969 6.021 4.375 0.247 15.81-4.321 15.975-6.938-0.2-0.957-5.177-7.3-14.525-7.933-4.614-0.323-11.572 5.773-11.419 8.849z"/>
    <path transform="translate(-356.72 -1551.2)" d="m694.85 1677.3c0.7-6.621 5.223-14.375 12.307-17.064 1.214-0.461 1.479 0.235 0.31 0.776-5.854 2.709-10.352 8.981-11.738 16.444-0.245 1.322-1.026 1.242-0.879-0.156z"/>
    <path transform="translate(-356.18 -1548.6)" d="m715.35 1704.9c-9.248 0-20.792-10.083-21.408-23.063-0.057-1.192 0.787-1.281 0.879-0.1 0.94 12.105 11.806 21.444 20.6 21.444 15.328 0 34.662-23.694 34.662-27.532 0-3.073-25.815-18.282-36.133-18.681-1.25-0.049-1.211-0.975 0.052-0.982 11.18-0.062 37.749 15.934 37.749 19.65 3e-3 4.333-20.31 29.264-36.401 29.264z"/>
    <path transform="translate(29.717 -1577.2)" d="m68.317 1785.5c-4.769-0.168-6.2-2.3-4.654-6.309 6.542-17 76.222-62.829 113.66-76.325 1.418-0.511 1.83 0.486 0.448 1.034-36.912 14.652-106.38 59.795-112.52 75.775-1.1 2.864-0.157 4.026 3.24 4.136 18.805 0.608 100.77-24.1 130.93-39.715 0.821-0.425 1.3 0.384 0.483 0.827-31.371 16.964-112.05 41.264-131.59 40.577z"/>
    <path transform="translate(-14.305 -1670.2)" d="m135.82 1860.8c0.061 6.178 13.255 5.684 24.925-5.792 0.717-0.705 1.206 0.116 0.517 0.827-12.566 12.962-26.442 12.893-26.218 5.068 0.024-0.857 0.767-0.92 0.776-0.103z"/>
    <path transform="translate(-158.93 -1578.2)" d="m392.08 1741.9c7.189-13-7.69-34.361-20.167-36.715a0.452 0.452 0 1 1 0.155-0.879c14.324 2.43 28.751 23.839 20.736 38.008-0.561 0.991-1.26 0.556-0.724-0.414z"/>
    <path transform="translate(-424.16 -1748.5)" d="m805.14 1995.4c0.612-4.188 7.346-12.535 9.839-12.724 6.039-0.472 17.764 8.983 20.547 12.066 1.087 1.2 0.926 1.9-0.345 2.207-3.583 0.863-25.5 1.011-29.1 0-1.017-0.288-1.094-0.503-0.941-1.549zm1.7 0.217c2.575 0.913 24.293 0.939 27.524 0.061-1.663-2.272-13.4-11.979-19.214-11.558-1.857 0.141-8.172 7.837-8.31 11.497z"/>
    <path transform="translate(-191.08 -1470.5)" d="m424.96 1546.4c7.312 1.363 29.146-11.239 32.888-17.685 0.523-0.9 1.214-0.577 0.775 0.362-3.62 7.757-25.4 20.131-33.819 18.15-1.14-0.268-0.949-1.033 0.156-0.827z"/>
    <path transform="translate(-184.58 -1425.7)" d="m483.46 1474.5-0.1-1.755a107.42 107.42 0 0 0-27.8 3.63c-7.3-6.45-32.8-23.366-37.216-21.074-2.349 1.219-7.377 36.853-3.516 46.057 0.332 0.792 1.2 0.472 0.948-0.362-2.482-8.273 1.746-42.022 3.5-44.093 3.529-1.633 27.011 13.964 34.75 20.842 0.861 0.765 0.965 0.746 2.223 0.4a103.34 103.34 0 0 1 27.211-3.645z"/>
    <path transform="translate(-199.07 -1556.8)" d="m464.61 1677c0 7.822-3.929 13.927-10.791 13.927-5.932 0-11.93-6.5-11.893-15.961a39.178 39.178 0 0 0-3.757-3.654c-1.585-1.342-1.426-1.415 0.546-1.778a19.426 19.426 0 0 1 9.366 1.218l-0.5 0.935a22.159 22.159 0 0 0-8.545-1.122 41.358 41.358 0 0 1 3.649 3.566 1.073 1.073 0 0 1 0.38 0.955c0.015 8.379 5.142 14.746 10.735 14.746s9.718-4.808 9.718-13.71z"/>
   </g>
   <path transform="translate(-213.7 -1550.9)" d="m469.78 1659.6c-4.847 0-8.776 5.109-8.776 11.411s3.8 10.739 8.647 10.739 8.9-4.437 8.9-10.739-3.925-11.411-8.771-11.411z" fill="#cad5da"/>
   <g fill="#0c1015">
    <path transform="translate(-213.39 -1561.8)" d="m478.24 1683.3c-3.309-7.239-14.324-7.7-17.737-0.827l0.329 1.92c2.917-6.613 13.993-6.7 17.02 0.913z"/>
    <path transform="translate(-212.76 -1549.8)" d="m468.72 1681.2c-5.231 0-9.239-4.827-9.239-11.25 0-6.584 4.212-12.135 9.342-12.135s9.48 5.516 9.48 12.1c-4e-3 6.424-4.204 11.285-9.583 11.285zm0.128-22.15c-4.547 0-8.246 4.882-8.246 10.882 0 5.821 3.49 10.21 8.118 10.21 4.774 0 8.375-4.389 8.375-10.21 4e-3 -5.999-3.696-10.882-8.247-10.882z"/>
    <path transform="translate(-203 -1498.4)" d="m482.18 1574.2c-6.664 5-11.3 14.54-11.29 24.683 0.015 13.048 6.166 14.933 5.889 27.877-0.149 7.019-5.67 11.921-13.426 11.921a19.4 19.4 0 0 1-14.636-6.9 6.331 6.331 0 0 1-0.861-2.267c-0.175-1.432-0.376-1.466-1.3-0.474a11.2 11.2 0 0 1-2.178 1.6c-1.187 0.563-1.121 1.045 0.079 1.394a23.167 23.167 0 0 0 2.919 0.706c1.685 1.942 7.659 7.308 16 7.308 8.366 0 14.523-5.61 14.686-13.238 0.279-13.151-5.834-15.379-5.847-27.931a32.029 32.029 0 0 1 10.557-24c0.923-0.848 0.407-1.43-0.592-0.679z"/>
   </g>
  </g>
 </g>
</svg>
