<?xml version="1.0" encoding="UTF-8"?>
<!-- Created with Inkscape (http://www.inkscape.org/) -->
<svg version="1.1" viewBox="0 0 191.73 135.4" xmlns="http://www.w3.org/2000/svg" xmlns:xlink="http://www.w3.org/1999/xlink">
 <defs>
  <clipPath id="clipPath325">
   <path transform="translate(-516.75,-565.81)" d="M 0,792.109 H 612.156 V 0 H 0 Z"/>
  </clipPath>
  <clipPath id="clipPath327">
   <path transform="translate(-516.75,-565.81)" d="M 0,792.109 H 612.156 V 0 H 0 Z"/>
  </clipPath>
  <clipPath id="clipPath329">
   <path transform="translate(-529.28,-562.85)" d="M 0,792.109 H 612.156 V 0 H 0 Z"/>
  </clipPath>
  <clipPath id="clipPath331">
   <path transform="translate(-519.55,-511.13)" d="M 0,792.109 H 612.156 V 0 H 0 Z"/>
  </clipPath>
  <clipPath id="clipPath333">
   <path transform="translate(-529.54,-513.52)" d="M 0,792.109 H 612.156 V 0 H 0 Z"/>
  </clipPath>
  <clipPath id="clipPath335">
   <path transform="translate(-529.64,-513.91)" d="M 0,792.109 H 612.156 V 0 H 0 Z"/>
  </clipPath>
  <clipPath id="clipPath337">
   <path transform="translate(-529.97,-532.02)" d="M 0,792.109 H 612.156 V 0 H 0 Z"/>
  </clipPath>
  <clipPath id="clipPath339">
   <path transform="translate(-530.54,-529.84)" d="M 0,792.109 H 612.156 V 0 H 0 Z"/>
  </clipPath>
  <clipPath id="clipPath341">
   <path transform="translate(-519.62,-509.64)" d="M 0,792.109 H 612.156 V 0 H 0 Z"/>
  </clipPath>
  <clipPath id="clipPath343">
   <path transform="translate(-532.93,-547.42)" d="M 0,792.109 H 612.156 V 0 H 0 Z"/>
  </clipPath>
  <clipPath id="clipPath345">
   <path transform="translate(-534.72,-546.49)" d="M 0,792.109 H 612.156 V 0 H 0 Z"/>
  </clipPath>
  <clipPath id="clipPath347">
   <path transform="translate(-494.22,-552.51)" d="M 0,792.109 H 612.156 V 0 H 0 Z"/>
  </clipPath>
  <clipPath id="clipPath349">
   <path transform="translate(-512.79,-527.21)" d="M 0,792.109 H 612.156 V 0 H 0 Z"/>
  </clipPath>
  <clipPath id="clipPath351">
   <path transform="translate(-533.12,-546.29)" d="M 0,792.109 H 612.156 V 0 H 0 Z"/>
  </clipPath>
  <clipPath id="clipPath353">
   <path transform="translate(-498.02,-558.53)" d="M 0,792.109 H 612.156 V 0 H 0 Z"/>
  </clipPath>
  <clipPath id="clipPath355">
   <path transform="translate(-489.05,-556.07)" d="M 0,792.109 H 612.156 V 0 H 0 Z"/>
  </clipPath>
  <clipPath id="clipPath357">
   <path transform="translate(-493.33,-533.95)" d="M 0,792.109 H 612.156 V 0 H 0 Z"/>
  </clipPath>
  <clipPath id="clipPath359">
   <path transform="translate(-502.32,-536.58)" d="M 0,792.109 H 612.156 V 0 H 0 Z"/>
  </clipPath>
  <clipPath id="clipPath361">
   <path transform="translate(-491.78,-525.47)" d="M 0,792.109 H 612.156 V 0 H 0 Z"/>
  </clipPath>
  <clipPath id="clipPath363">
   <path transform="translate(-505.27,-534.53)" d="M 0,792.109 H 612.156 V 0 H 0 Z"/>
  </clipPath>
  <clipPath id="clipPath365">
   <path transform="translate(-503.86,-524.77)" d="M 0,792.109 H 612.156 V 0 H 0 Z"/>
  </clipPath>
  <clipPath id="clipPath367">
   <path transform="translate(-503.18,-525.29)" d="M 0,792.109 H 612.156 V 0 H 0 Z"/>
  </clipPath>
  <clipPath id="clipPath369">
   <path transform="translate(-470.89,-564.87)" d="M 0,792.109 H 612.156 V 0 H 0 Z"/>
  </clipPath>
  <clipPath id="clipPath371">
   <path transform="translate(-469.85,-564.68)" d="M 0,792.109 H 612.156 V 0 H 0 Z"/>
  </clipPath>
  <clipPath id="clipPath373">
   <path transform="translate(-471.46,-565.58)" d="M 0,792.109 H 612.156 V 0 H 0 Z"/>
  </clipPath>
  <clipPath id="clipPath375">
   <path transform="translate(-473.99,-570.3)" d="M 0,792.109 H 612.156 V 0 H 0 Z"/>
  </clipPath>
  <clipPath id="clipPath377">
   <path transform="translate(-481.61,-572.02)" d="M 0,792.109 H 612.156 V 0 H 0 Z"/>
  </clipPath>
  <clipPath id="clipPath379">
   <path transform="translate(-479.1,-572.75)" d="M 0,792.109 H 612.156 V 0 H 0 Z"/>
  </clipPath>
  <clipPath id="clipPath381">
   <path transform="translate(-514.79,-556.5)" d="M 0,792.109 H 612.156 V 0 H 0 Z"/>
  </clipPath>
  <clipPath id="clipPath383">
   <path transform="translate(-472.81,-557.53)" d="M 0,792.109 H 612.156 V 0 H 0 Z"/>
  </clipPath>
  <clipPath id="clipPath385">
   <path transform="translate(-485.14,-546.08)" d="M 0,792.109 H 612.156 V 0 H 0 Z"/>
  </clipPath>
  <clipPath id="clipPath387">
   <path transform="translate(-486.95,-552.64)" d="M 0,792.109 H 612.156 V 0 H 0 Z"/>
  </clipPath>
  <clipPath id="clipPath389">
   <path transform="translate(-471.88,-538.21)" d="M 0,792.109 H 612.156 V 0 H 0 Z"/>
  </clipPath>
  <clipPath id="clipPath391">
   <path transform="translate(-476.37,-546.06)" d="M 0,792.109 H 612.156 V 0 H 0 Z"/>
  </clipPath>
  <clipPath id="clipPath393">
   <path transform="translate(-483.06,-548.22)" d="M 0,792.109 H 612.156 V 0 H 0 Z"/>
  </clipPath>
  <clipPath id="clipPath395">
   <path transform="translate(-498.39,-550.81)" d="M 0,792.109 H 612.156 V 0 H 0 Z"/>
  </clipPath>
  <clipPath id="clipPath397">
   <path transform="translate(-501.66,-545.73)" d="M 0,792.109 H 612.156 V 0 H 0 Z"/>
  </clipPath>
  <clipPath id="clipPath399">
   <path transform="translate(-509.35,-550.56)" d="M 0,792.109 H 612.156 V 0 H 0 Z"/>
  </clipPath>
  <clipPath id="clipPath401">
   <path transform="translate(-510.9,-516.98)" d="M 0,792.109 H 612.156 V 0 H 0 Z"/>
  </clipPath>
  <clipPath id="clipPath403">
   <path transform="translate(-508.98,-501.92)" d="M 0,792.109 H 612.156 V 0 H 0 Z"/>
  </clipPath>
  <clipPath id="clipPath405">
   <path transform="translate(-495.81,-545.98)" d="M 0,792.109 H 612.156 V 0 H 0 Z"/>
  </clipPath>
  <clipPath id="clipPath407">
   <path transform="translate(-493.88,-546.44)" d="M 0,792.109 H 612.156 V 0 H 0 Z"/>
  </clipPath>
  <clipPath id="clipPath409">
   <path transform="translate(-529.5,-569.49)" d="M 0,792.109 H 612.156 V 0 H 0 Z"/>
  </clipPath>
  <clipPath id="clipPath411">
   <path transform="translate(-509.2,-529.28)" d="M 0,792.109 H 612.156 V 0 H 0 Z"/>
  </clipPath>
  <clipPath id="clipPath413">
   <path transform="translate(-500.65,-529.13)" d="M 0,792.109 H 612.156 V 0 H 0 Z"/>
  </clipPath>
  <clipPath id="clipPath415">
   <path transform="translate(-504.38,-549.51)" d="M 0,792.109 H 612.156 V 0 H 0 Z"/>
  </clipPath>
  <clipPath id="clipPath417">
   <path transform="translate(-501.61,-545.86)" d="M 0,792.109 H 612.156 V 0 H 0 Z"/>
  </clipPath>
  <clipPath id="clipPath419">
   <path transform="translate(-530.96,-529.82)" d="M 0,792.109 H 612.156 V 0 H 0 Z"/>
  </clipPath>
  <clipPath id="clipPath421">
   <path transform="translate(-533.91,-539.72)" d="M 0,792.109 H 612.156 V 0 H 0 Z"/>
  </clipPath>
  <clipPath id="clipPath423">
   <path transform="translate(-519.51,-511.23)" d="M 0,792.109 H 612.156 V 0 H 0 Z"/>
  </clipPath>
  <clipPath id="clipPath425">
   <path transform="translate(-524.96,-507.3)" d="M 0,792.109 H 612.156 V 0 H 0 Z"/>
  </clipPath>
  <clipPath id="clipPath427">
   <path transform="translate(-529.71,-512.96)" d="M 0,792.109 H 612.156 V 0 H 0 Z"/>
  </clipPath>
  <clipPath id="clipPath429">
   <path transform="translate(-527.41,-509.08)" d="M 0,792.109 H 612.156 V 0 H 0 Z"/>
  </clipPath>
  <clipPath id="clipPath431">
   <path transform="translate(-521.89,-506.48)" d="M 0,792.109 H 612.156 V 0 H 0 Z"/>
  </clipPath>
  <clipPath id="clipPath433">
   <path transform="translate(-514.46,-531.25)" d="M 0,792.109 H 612.156 V 0 H 0 Z"/>
  </clipPath>
  <clipPath id="clipPath435">
   <path transform="translate(-505.44,-530.08)" d="M 0,792.109 H 612.156 V 0 H 0 Z"/>
  </clipPath>
  <clipPath id="clipPath437">
   <path transform="translate(-498.82,-538.89)" d="M 0,792.109 H 612.156 V 0 H 0 Z"/>
  </clipPath>
  <clipPath id="clipPath439">
   <path transform="translate(-485.23,-546.59)" d="M 0,792.109 H 612.156 V 0 H 0 Z"/>
  </clipPath>
  <clipPath id="clipPath441">
   <path transform="translate(-521.01,-516.5)" d="M 0,792.109 H 612.156 V 0 H 0 Z"/>
  </clipPath>
  <clipPath id="clipPath443">
   <path transform="translate(-487.84,-539.28)" d="M 0,792.109 H 612.156 V 0 H 0 Z"/>
  </clipPath>
  <clipPath id="clipPath445">
   <path transform="translate(-484.04,-541.47)" d="M 0,792.109 H 612.156 V 0 H 0 Z"/>
  </clipPath>
  <clipPath id="clipPath447">
   <path transform="translate(-484.78,-546.47)" d="M 0,792.109 H 612.156 V 0 H 0 Z"/>
  </clipPath>
  <clipPath id="clipPath449">
   <path transform="translate(-477.11,-570.24)" d="M 0,792.109 H 612.156 V 0 H 0 Z"/>
  </clipPath>
  <clipPath id="clipPath451">
   <path transform="translate(-466.62,-563.06)" d="M 0,792.109 H 612.156 V 0 H 0 Z"/>
  </clipPath>
  <clipPath id="clipPath453">
   <path transform="translate(-470.1,-565.18)" d="M 0,792.109 H 612.156 V 0 H 0 Z"/>
  </clipPath>
  <clipPath id="clipPath455">
   <path transform="translate(-480.82,-572.49)" d="M 0,792.109 H 612.156 V 0 H 0 Z"/>
  </clipPath>
  <clipPath id="clipPath457">
   <path transform="translate(-469.69,-568.96)" d="M 0,792.109 H 612.156 V 0 H 0 Z"/>
  </clipPath>
  <clipPath id="clipPath459">
   <path transform="translate(-491.96,-554.6)" d="M 0,792.109 H 612.156 V 0 H 0 Z"/>
  </clipPath>
  <clipPath id="clipPath461">
   <path transform="translate(-518.87,-559.93)" d="M 0,792.109 H 612.156 V 0 H 0 Z"/>
  </clipPath>
  <clipPath id="clipPath463">
   <path transform="translate(-514.7,-557.45)" d="M 0,792.109 H 612.156 V 0 H 0 Z"/>
  </clipPath>
  <clipPath id="clipPath465">
   <path transform="translate(-469.68,-565.09)" d="M 0,792.109 H 612.156 V 0 H 0 Z"/>
  </clipPath>
  <clipPath id="clipPath467">
   <path transform="translate(-533.57,-544.91)" d="M 0,792.109 H 612.156 V 0 H 0 Z"/>
  </clipPath>
  <clipPath id="clipPath469">
   <path transform="translate(-531.28,-516.45)" d="M 0,792.109 H 612.156 V 0 H 0 Z"/>
  </clipPath>
  <clipPath id="clipPath471">
   <path transform="translate(-488.11,-550.3)" d="M 0,792.109 H 612.156 V 0 H 0 Z"/>
  </clipPath>
  <clipPath id="clipPath473">
   <path transform="translate(-478.42,-566.92)" d="M 0,792.109 H 612.156 V 0 H 0 Z"/>
  </clipPath>
  <clipPath id="clipPath475">
   <path transform="translate(-477.57,-567.12)" d="M 0,792.109 H 612.156 V 0 H 0 Z"/>
  </clipPath>
  <clipPath id="clipPath477">
   <path transform="translate(-525.48,-540.93)" d="M 0,792.109 H 612.156 V 0 H 0 Z"/>
  </clipPath>
  <clipPath id="clipPath479">
   <path transform="translate(-520.69,-545.68)" d="M 0,792.109 H 612.156 V 0 H 0 Z"/>
  </clipPath>
  <clipPath id="clipPath481">
   <path transform="translate(-531.67,-541.08)" d="M 0,792.109 H 612.156 V 0 H 0 Z"/>
  </clipPath>
  <clipPath id="clipPath483">
   <path transform="translate(-520.61,-552.45)" d="M 0,792.109 H 612.156 V 0 H 0 Z"/>
  </clipPath>
  <clipPath id="clipPath485">
   <path transform="translate(-529.48,-541.33)" d="M 0,792.109 H 612.156 V 0 H 0 Z"/>
  </clipPath>
  <clipPath id="clipPath487">
   <path transform="translate(-518.87,-552.37)" d="M 0,792.109 H 612.156 V 0 H 0 Z"/>
  </clipPath>
  <clipPath id="clipPath489">
   <path transform="translate(-528.69,-540.74)" d="M 0,792.109 H 612.156 V 0 H 0 Z"/>
  </clipPath>
  <clipPath id="clipPath491">
   <path transform="translate(-518.08,-551.74)" d="M 0,792.109 H 612.156 V 0 H 0 Z"/>
  </clipPath>
  <clipPath id="clipPath493">
   <path transform="translate(-525.77,-548.55)" d="M 0,792.109 H 612.156 V 0 H 0 Z"/>
  </clipPath>
  <clipPath id="clipPath495">
   <path transform="translate(-532.04,-534.6)" d="M 0,792.109 H 612.156 V 0 H 0 Z"/>
  </clipPath>
  <clipPath id="clipPath497">
   <path transform="translate(-525.79,-540.66)" d="M 0,792.109 H 612.156 V 0 H 0 Z"/>
  </clipPath>
  <clipPath id="clipPath499">
   <path transform="translate(-520.67,-545.88)" d="M 0,792.109 H 612.156 V 0 H 0 Z"/>
  </clipPath>
  <clipPath id="clipPath501">
   <path transform="translate(-514.53,-551.79)" d="M 0,792.109 H 612.156 V 0 H 0 Z"/>
  </clipPath>
  <clipPath id="clipPath503">
   <path transform="translate(-519.07,-527)" d="M 0,792.109 H 612.156 V 0 H 0 Z"/>
  </clipPath>
  <clipPath id="clipPath505">
   <path transform="translate(-517.3,-519.33)" d="M 0,792.109 H 612.156 V 0 H 0 Z"/>
  </clipPath>
  <clipPath id="clipPath507">
   <path transform="translate(-519.07,-527)" d="M 0,792.109 H 612.156 V 0 H 0 Z"/>
  </clipPath>
  <clipPath id="clipPath509">
   <path transform="translate(-518.08,-558.86)" d="M 0,792.109 H 612.156 V 0 H 0 Z"/>
  </clipPath>
  <clipPath id="clipPath511">
   <path transform="translate(-516.82,-558.95)" d="M 0,792.109 H 612.156 V 0 H 0 Z"/>
  </clipPath>
  <clipPath id="clipPath513">
   <path transform="translate(-532.45,-548.41)" d="M 0,792.109 H 612.156 V 0 H 0 Z"/>
  </clipPath>
  <clipPath id="clipPath515">
   <path transform="translate(-529.05,-553.1)" d="M 0,792.109 H 612.156 V 0 H 0 Z"/>
  </clipPath>
  <clipPath id="clipPath517">
   <path transform="translate(-523.39,-556.4)" d="M 0,792.109 H 612.156 V 0 H 0 Z"/>
  </clipPath>
  <clipPath id="clipPath519">
   <path transform="translate(-519.2,-558.12)" d="M 0,792.109 H 612.156 V 0 H 0 Z"/>
  </clipPath>
  <clipPath id="clipPath521">
   <path transform="translate(-526.87,-557.29)" d="M 0,792.109 H 612.156 V 0 H 0 Z"/>
  </clipPath>
  <clipPath id="clipPath523">
   <path transform="translate(-525.95,-553.83)" d="M 0,792.109 H 612.156 V 0 H 0 Z"/>
  </clipPath>
  <clipPath id="clipPath525">
   <path transform="translate(-521.62,-556)" d="M 0,792.109 H 612.156 V 0 H 0 Z"/>
  </clipPath>
  <clipPath id="clipPath527">
   <path transform="translate(-518.4,-559.5)" d="M 0,792.109 H 612.156 V 0 H 0 Z"/>
  </clipPath>
  <clipPath id="clipPath529">
   <path transform="translate(-534.67,-552.1)" d="M 0,792.109 H 612.156 V 0 H 0 Z"/>
  </clipPath>
  <clipPath id="clipPath531">
   <path transform="translate(-518.05,-518.46)" d="M 0,792.109 H 612.156 V 0 H 0 Z"/>
  </clipPath>
  <clipPath id="clipPath533">
   <path transform="translate(-510.77,-517.06)" d="M 0,792.109 H 612.156 V 0 H 0 Z"/>
  </clipPath>
  <clipPath id="clipPath535">
   <path transform="translate(-512.41,-513.2)" d="M 0,792.109 H 612.156 V 0 H 0 Z"/>
  </clipPath>
  <clipPath id="clipPath537">
   <path transform="translate(-518.9,-517.27)" d="M 0,792.109 H 612.156 V 0 H 0 Z"/>
  </clipPath>
  <clipPath id="clipPath539">
   <path transform="translate(-518.85,-517.74)" d="M 0,792.109 H 612.156 V 0 H 0 Z"/>
  </clipPath>
  <clipPath id="clipPath541">
   <path transform="translate(-530.2,-532.82)" d="M 0,792.109 H 612.156 V 0 H 0 Z"/>
  </clipPath>
  <radialGradient id="radialGradient228" cx="5.9527" cy="-2.733" r="4.4805" gradientTransform="matrix(1.4983 1.4677 -.55577 .56736 -2.9275 -7.2915)" gradientUnits="userSpaceOnUse">
   <stop stop-color="#246979" offset="0"/>
   <stop stop-color="#246979" offset=".38942"/>
   <stop stop-color="#aa7da6" offset=".54681"/>
   <stop stop-color="#aa7da6" offset="1"/>
  </radialGradient>
  <radialGradient id="radialGradient232" cx="3.8868" cy="3.5759" r="5.6826" gradientTransform="matrix(1.4252 .6663 -.51077 1.0925 .044998 -3.5624)" gradientUnits="userSpaceOnUse">
   <stop stop-color="#e8334a" offset="0"/>
   <stop stop-color="#e8334a" offset=".76662"/>
   <stop stop-color="#2a788b" offset=".86296"/>
   <stop stop-color="#2a788b" offset="1"/>
  </radialGradient>
  <radialGradient id="radialGradient2" cx="6.448" cy="3.2656" r="8.1792" gradientTransform="matrix(1.6508 -.058965 .043811 1.2266 -4.8963 -1.2302)" gradientUnits="userSpaceOnUse">
   <stop stop-color="#e8334a" offset="0"/>
   <stop stop-color="#e8334a" offset=".80597"/>
   <stop stop-color="#2a788b" offset=".87653"/>
   <stop stop-color="#2a788b" offset="1"/>
  </radialGradient>
  <radialGradient id="radialGradient7" cx="2.2688" cy=".23674" r="4.9739" gradientTransform="matrix(1.6979 -.079254 .050916 1.0908 -1.7003 .57599)" gradientUnits="userSpaceOnUse">
   <stop stop-color="#e8334a" offset="0"/>
   <stop stop-color="#e8334a" offset=".79104"/>
   <stop stop-color="#2a788b" offset=".88467"/>
   <stop stop-color="#2a788b" offset="1"/>
  </radialGradient>
  <radialGradient id="radialGradient15" cx="2.0869" cy="4.3399" r="3.499" gradientTransform="matrix(2.9893 1.1467 -.54285 1.4151 -1.891 -5.1491)" gradientUnits="userSpaceOnUse">
   <stop stop-color="#c82b3f" offset="0"/>
   <stop stop-color="#c82b3f" offset=".72185"/>
   <stop stop-color="#246979" stop-opacity="0" offset=".78562"/>
   <stop stop-color="#246979" stop-opacity="0" offset="1"/>
  </radialGradient>
  <radialGradient id="radialGradient20" cx="-6.6791" cy="-3.6993" r="6.347" gradientTransform="matrix(1.4088 .45812 -.27883 .85743 1.6198 2.4805)" gradientUnits="userSpaceOnUse">
   <stop stop-color="#c82b3f" offset="0"/>
   <stop stop-color="#c82b3f" offset=".73541"/>
   <stop stop-color="#246979" stop-opacity="0" offset=".84803"/>
   <stop stop-color="#246979" stop-opacity="0" offset="1"/>
  </radialGradient>
  <radialGradient id="radialGradient25" cx="-5.3653" cy="-1.3818" r="4.399" gradientTransform="matrix(1.4695 -.22135 .12684 .84208 2.361 -.70017)" gradientUnits="userSpaceOnUse">
   <stop stop-color="#c82b3f" offset="0"/>
   <stop stop-color="#c82b3f" offset=".77883"/>
   <stop stop-color="#246979" stop-opacity="0" offset=".91045"/>
   <stop stop-color="#246979" stop-opacity="0" offset="1"/>
  </radialGradient>
 </defs>
 <path transform="matrix(-1.3947 1.3804 1.3804 1.3947 103.93 101.82)" d="m0 0c-0.164-0.164 3.32-7.152 3.023-9.176 8.949-7.43 11.892-8.152 16.247-6.478 3.401 1.35 6.433 4.176 6.235 4.454-0.27 0.377-1.944 0.377-2.187 0.35 1.458 1.026 3.185 4.373 2.753 5.236-0.449 0.898-3.022 0.54-3.508 0.27 0.45 3.054-0.148 7.306-1.134 7.719-0.836 0.351-3.481-2.24-3.832-2.591-1.471 0.58-6.93 1.586-7.584 1.646-1.004 1.095-5.147 2.518-5.479 2.186-0.297-0.296-0.108-3.616-0.135-4.453-0.917 0.54-4.129 1.107-4.399 0.837" clip-path="url(#clipPath325)" fill="#2a788b"/>
 <path transform="matrix(-1.3947 1.3804 1.3804 1.3947 103.93 101.82)" d="m0 0c-0.164-0.164 3.32-7.152 3.023-9.176 8.949-7.43 11.892-8.152 16.247-6.478 1.095 0.435 2.152 1.022 3.075 1.629-1.714-0.086-3.738 0.912-5.625 2.703-1.579 1.498 0.728 3.158-1.417 5.303-1.782 1.782-5.871-0.256-8.498 9.157-1.118 0.403-2.115 0.634-2.271 0.478-0.297-0.296-0.108-3.616-0.135-4.453-0.917 0.54-4.129 1.107-4.399 0.837" clip-path="url(#clipPath327)" fill="#246979"/>
 <path transform="matrix(-1.3947 1.3804 1.3804 1.3947 82.351 114.99)" d="m0 0c1.285 1.766 3.594 3.062 5.059 2.744-0.784 1.764-4.454 6.157-4.939 6.18-0.566 0.027-2.483-3.994-2.644-4.534 0.596-0.547 1.869-2.869 2.271-4.292 0.089-0.312 0.094-0.317 0.253-0.098" clip-path="url(#clipPath329)" fill="#e8334a"/>
 <g fill="#aa7da6">
  <path transform="matrix(-1.3947 1.3804 1.3804 1.3947 24.527 29.429)" d="m0 0c-0.681-1.073-0.583-6.236-0.648-7.395-0.324-5.83-2.186-10.283-1.16-11.038 0.17-0.126 4.045 3.457 6.153 9.176 0.932 2.527 1.419 7.607 0.999 8.987-1.329-5.135-4.447-5.499-5.344 0.27" clip-path="url(#clipPath331)"/>
  <path transform="matrix(-1.3947 1.3804 1.3804 1.3947 13.896 46.545)" d="m0 0c1.943-6.194-3.463-13.905-3.947-13.704-0.486 0.203-0.445 6.032-0.83 7.712-0.041 0.365 0.121 2.429 0.405 3.603 0.526-3.238 4.109-2.287 4.372 2.389" clip-path="url(#clipPath333)"/>
  <path transform="matrix(-1.3947 1.3804 1.3804 1.3947 14.287 47.229)" d="m0 0c0.797-3.641 2.219-6.406 2.773-6.295 0.911 0.182 1.903 6.113 0.648 10.242-0.452-3.619-1.903-5.83-3.421-3.947" clip-path="url(#clipPath335)"/>
 </g>
 <path transform="matrix(-1.3947 1.3804 1.3804 1.3947 38.825 72.949)" d="m0 0c3.941-13.096-4.29-16.336-8.533-15.328-0.766-0.958-1.7-3.617-1.889-5.56-0.307-3.162 1.484-4.696 2.551-4.669 1.079 0.028 3.082 1.944 3.138 4.167 0.134-1.28 0.868-1.814 1.708-1.697 1.249 0.174 2.729 1.79 2.802 4.534 0.058-0.724 0.677-1.214 1.238-1.15 1.052 0.12 2.641 2.394 2.322 5.764 1.183 0.624 2.315 1.631 3.595 3.064 5.402 6.047 4.051 13.113 1.295 16.031-1.216 1.288-3.076 2.321-4.453 2.294-0.81-3.616-2.51-6.342-3.774-7.45" clip-path="url(#clipPath337)" fill="#2a788b"/>
 <path transform="matrix(-1.3947 1.3804 1.3804 1.3947 35.017 70.69)" d="m0 0c0.965-4.476 0.359-7.619-0.972-9.723 4.56 2.789 4.687 7.255 0.972 9.723" clip-path="url(#clipPath339)" fill="#246979"/>
 <path transform="matrix(-1.3947 1.3804 1.3804 1.3947 22.365 27.441)" d="m0 0c0.324-2.672 1.782-3.189 2.484-3.171 1.079 0.028 3.082 1.943 3.137 4.167 0.134-1.28 0.869-1.814 1.708-1.697 1.25 0.174 2.73 1.79 2.803 4.534 0.058-0.724 0.676-1.214 1.237-1.15 1.053 0.12 2.642 2.394 2.322 5.764 8e-3 4e-3 0.016 8e-3 0.023 0.012l-0.017 2e-3c-0.842-0.543-1.828-0.699-3.266-0.783-3.265-0.189-9.905-4.885-10.431-7.678" clip-path="url(#clipPath341)" fill="#246979"/>
 <path transform="matrix(-1.3947 1.3804 1.3804 1.3947 55.966 98.506)" d="m0 0c0.629 0.629 1.641 0.625 2.27-4e-3s0.637-1.645 8e-3 -2.274-1.649-0.629-2.278 0-0.629 1.649 0 2.278" clip-path="url(#clipPath343)" fill="#e8334a"/>
 <path transform="matrix(-1.3947 1.3804 1.3804 1.3947 52.178 99.681)" d="m0 0c0.293-0.411 0.447-1.059 0.183-1.582 0.107 0.065 0.208 0.144 0.301 0.237 0.492 0.492 0.595 1.221 0.314 1.816l-0.056 0.028s-0.391-0.31-0.742-0.499" clip-path="url(#clipPath345)" fill="#c82b3f"/>
 <path transform="matrix(-1.3947 1.3804 1.3804 1.3947 116.97 52.172)" d="m0 0c5.607-7.227-1.201-10.038 12.926-21.817 5.279-5.403 15.579-6.374 22.833 0.879 5.701 5.701 5.213 14.959-0.849 21.021-4.18 4.18-9.919 5.749-14.949 4.452-6.121-1.712-10.837 1.163-16.168 1.493-2.828-0.257-4.711-4.649-3.793-6.028" clip-path="url(#clipPath347)" fill="#2a788b"/>
 <g fill="#246979">
  <path transform="matrix(-1.3947 1.3804 1.3804 1.3947 56.148 42.516)" d="m0 0c3.425-1.152 7.41-1.153 11.189 0.356-0.102 2.022-0.608 3.629-1.646 5.837-1.297-3.459-6.275-6.761-9.543-6.193" clip-path="url(#clipPath349)"/>
  <path transform="matrix(-1.3947 1.3804 1.3804 1.3947 54.135 97.202)" d="m0 0c-0.792 2.269-2.128 4.432-3.99 6.294-3.453 3.453-7.968 5.124-12.27 4.87 7.574-2.684 13.646-8.108 16.26-11.164" clip-path="url(#clipPath351)"/>
  <path transform="matrix(-1.3947 1.3804 1.3804 1.3947 120 65.816)" d="m0 0c3.797-0.235 7.556-2.895 8.729-5.401 0.628-1.342 1.944-2.527 2.713-2.325-1.646-1.916-7.385-7.782-10.634-10.941-2.669 4.924-0.835 7.786-4.601 12.639-0.526 0.65-2.105 2.661-4.183 3.417 1.187 0.89 3.266 2.051 4.547 2.307 1.282 0.257 2.742 0.405 3.429 0.304" clip-path="url(#clipPath353)"/>
 </g>
 <path transform="matrix(-1.3947 1.3804 1.3804 1.3947 129.1 50.006)" d="m0 0c1.286 0.117 2.951-1.089 3.805-1.943 0.481-0.527 0.934-1.068 1.364-1.622-0.153 2.069 0.967 4.853 3.792 6.028-2.734 0.169-5.63-0.331-8.961-2.463" clip-path="url(#clipPath355)" fill="url(#radialGradient228)"/>
 <path transform="matrix(-1.3947 1.3804 1.3804 1.3947 92.592 25.043)" d="m0 0c-0.663-0.707-0.603-0.844 0.399-0.693 1.187 0.179 4.268 0.481 6.799 0.677 0.548 0.596 1.884 1.622 2.313 1.817-0.639 1.198-1.912 2.651-3.233 3.291-2.305-1.565-5.23-3.976-6.278-5.092" clip-path="url(#clipPath357)" fill="url(#radialGradient7)"/>
 <path transform="matrix(-1.3947 1.3804 1.3804 1.3947 83.696 41.133)" d="m0 0c-0.694 0.976-1.689 1.961-2.712 2.456-2.178-1.478-4.907-3.709-6.086-4.893 2.658 1.425 6.859 2.672 8.798 2.437" clip-path="url(#clipPath359)" fill="url(#radialGradient25)"/>
 <path transform="matrix(-1.3947 1.3804 1.3804 1.3947 83.048 11.084)" d="m0 0c-0.363-0.515-0.252-0.583 0.345-0.384 2.591 0.866 13.131 4.844 15.793 5.74 0.246 2.112-3.155 4.318-5.128 4.936-2.402-1.617-9.656-8.373-11.01-10.292" clip-path="url(#clipPath361)" fill="url(#radialGradient2)"/>
 <path transform="matrix(-1.3947 1.3804 1.3804 1.3947 76.752 42.352)" d="m0 0c-0.852 0.565-1.759 1-2.478 1.225-2.093-1.408-7.868-6.718-10.216-9.331 3.148 2.338 10.644 7.701 12.694 8.106" clip-path="url(#clipPath363)" fill="url(#radialGradient20)"/>
 <path transform="matrix(-1.3947 1.3804 1.3804 1.3947 65.244 26.785)" d="m0 0c2.26 1.349 8.156 5.098 10.581 6.645 0.175 0.857-3.942 3.339-6.204 2.419l-0.408-0.502c-2.025-2.383-4.149-6.135-4.646-8.046-0.233-0.898-0.09-0.973 0.677-0.516" clip-path="url(#clipPath365)" fill="url(#radialGradient232)"/>
 <path transform="matrix(-1.3947 1.3804 1.3804 1.3947 66.899 26.571)" d="m0 0c-0.031-0.117-0.055-0.221-0.072-0.311 1.227 1.955 4.944 7.007 6.998 8.658-0.726 0.169-1.455 0.181-2.078-0.072l-3e-3 4e-3c-2.025-2.382-4.348-6.368-4.845-8.279" clip-path="url(#clipPath367)" fill="url(#radialGradient15)"/>
 <path transform="matrix(-1.3947 1.3804 1.3804 1.3947 166.57 37.208)" d="m0 0c-5.884 2.213-15.815-0.756-19.189-3.482-1.64-1.324-1.106-1.905 0.621-1.862 12.846 0.324 16.922-1.754 18.163-1.268-4.871 2.307-5.033 5.87 0.405 6.612" clip-path="url(#clipPath369)" fill="#c490bf"/>
 <path transform="matrix(-1.3947 1.3804 1.3804 1.3947 167.77 35.5)" d="m0 0c0.321 0.076 0.669 0.141 1.042 0.192-5.883 2.213-15.815-0.756-19.189-3.482-0.37-0.299-0.629-0.56-0.789-0.785 5.182 3.445 15.102 4.888 18.936 4.075" clip-path="url(#clipPath371)" fill="#aa7da6"/>
 <path transform="matrix(-1.3947 1.3804 1.3804 1.3947 166.75 38.985)" d="m0 0c1.072-0.54 1.12-0.594-0.223-0.52-1.498 0.446-5.032 0.931-7.988 1.566-2.957 0.634-5.336 1.417-5.587 1.484-0.81 0.216-1.108 0.587-0.081 1.053 4.965 2.253 12.311 3.475 17.964 1.263-6.71-0.292-7.782-2.984-4.085-4.846" clip-path="url(#clipPath373)" fill="#c490bf"/>
 <path transform="matrix(-1.3947 1.3804 1.3804 1.3947 169.75 49.062)" d="m0 0c0.481 0.056 1 0.096 1.558 0.121-5.653 2.212-12.999 0.99-17.965-1.263-0.254-0.116-0.427-0.226-0.531-0.328 3.347 1.328 13.609 2.751 16.938 1.47" clip-path="url(#clipPath375)" fill="#aa7da6"/>
 <path transform="matrix(-1.3947 1.3804 1.3804 1.3947 161.5 61.973)" d="m0 0c-1.012 1.174-4.045 2.099-7.021 2.734-2.898 0.619-5.059 0.359-5.313-8e-3 -0.261-0.377 2.901-3.495 7.749-4.942-0.941 0.921-2.073 1.905-1.904 2.388 0.435 1.242 5.177 0.63 6.489-0.172" clip-path="url(#clipPath377)" fill="#c490bf"/>
 <path transform="matrix(-1.3947 1.3804 1.3804 1.3947 166.01 59.533)" d="m0 0c1.044-0.16 2.012-0.433 2.502-0.732-1.012 1.174-4.045 2.098-7.021 2.734-2.467 0.527-4.399 0.417-5.076 0.146 2.457-0.271 6.936-0.992 9.595-2.148" clip-path="url(#clipPath379)" fill="#aa7da6"/>
 <path transform="matrix(-1.3947 1.3804 1.3804 1.3947 93.79 86.134)" d="m0 0c-0.081 2.268-1.831 6.6-4.469 9.259-7.491 7.551-16.766 1.938-22.185 3.293-2.375 0.593-5.749 3.449-9.338 3.94-1.876 0.256-3.427-5e-3 -3.805-0.675-0.346-0.611 0.412-1.46 1.299-1.941-2.056 0.538-6.752-0.283-7.075-2.377-0.137-0.889 0.978-2.286 2.608-2.788-1.764 0.317-5.056-0.694-5.415-2.772-0.268-1.55 2.091-4.083 4.305-4.466 5.384-0.931 10.545-3.631 12.954-3.806 6.511-0.472 7.53 5.263 15.141 4.049 3.306-0.528 6.89-3.337 8.178-5.506 3.225 2.253 4.494 3.252 7.802 3.79" clip-path="url(#clipPath381)" fill="#2a788b"/>
 <path transform="matrix(-1.3947 1.3804 1.3804 1.3947 153.76 29.62)" d="m0 0c4.592-1.148 8.765-3.207 10.859-3.359 1.065-0.077 1.983 0.012 2.807 0.209-1.288 0.563-2.157 2.127-1.606 3.907 1.339 4.326 13.192 11.501 20.981 10.511-6.439 2.618-13.336-0.837-17.715 0.258-1.107 0.276-2.43 1.044-3.891 1.835-6.365 1.538-14.567-8.468-11.435-13.361" clip-path="url(#clipPath383)" fill="#246979"/>
 <path transform="matrix(-1.3947 1.3804 1.3804 1.3947 120.77 30.68)" d="m0 0c-1.538-0.351-13.752-7.233-13.494-8.313 0.364-1.53 13.089-1.862 16.76 1.809-5.02-0.432-5.142 4.061-3.266 6.504" clip-path="url(#clipPath385)" fill="#c490bf"/>
 <path transform="matrix(-1.3947 1.3804 1.3804 1.3947 127.3 42.319)" d="m0 0c-1.943 0.162-10.85-5.937-10.58-6.585 0.23-0.551 6.154-1.296 8.664 0.405-3.529 1.491-0.958 4.75 1.916 6.18" clip-path="url(#clipPath387)" fill="#c490bf"/>
 <path transform="matrix(-1.3947 1.3804 1.3804 1.3947 128.4 1.3947)" d="m 0,0 c 2.322,1.441 9.011,5.366 12.556,6.642 0.183,0.441 0.421,0.859 0.706,1.23 C 11.866,7.553 1.687,1.86 0,0" clip-path="url(#clipPath389)" fill="#aa7da6"/>
 <path transform="matrix(-1.3947 1.3804 1.3804 1.3947 132.97 18.529)" d="M 0,0 C 0.007,-0.017 0.02,-0.034 0.038,-0.052 1.646,1.145 5.5,3.854 8.521,5.18 9.122,5.729 9.841,6.218 10.58,6.585 8.636,6.747 -0.27,0.648 0,0" clip-path="url(#clipPath391)" fill="#aa7da6"/>
 <path transform="matrix(-1.3947 1.3804 1.3804 1.3947 126.61 30.786)" d="m0 0c0.226-0.993 1.309-1.873 2.287-1.761-1.01-0.577-2.232-3.141-1.275-5.081 1.314-2.663 4.094-2.581 6.601-1.097 0.809 0.479 1.61 1.048 2.488 1.725 0.286 0.22 0.503 0.13 0.85-0.122 5.18-3.753 10.834-6.128 16.324-4.275-2.924 0.106-5.223 0.68-5.92 2.454-2.338-0.449-4.437 0.659-4.797 2.084-0.378 1.497 0.628 2.717 2.247 3.421-0.48 1.273 0.506 2.814 3.164 4.001l-9e-3 0.025c-0.513-0.092-1.021-0.14-1.516-0.143-4.595-0.027-4.664 3.85-8.542 5.003-2.43 0.723-4.817-0.202-6.072-0.647-3.628-1.288-6.235-3.806-5.83-5.587" clip-path="url(#clipPath393)" fill="#58aaa1"/>
 <path transform="matrix(-1.3947 1.3804 1.3804 1.3947 108.81 55.56)" d="m0 0c0.985-1.443 3.039-2.376 4.609-2.458 0.513 0.428 1.187 0.84 2.03 1.216l-9e-3 0.026c-0.513-0.093-1.02-0.141-1.516-0.144-4.595-0.027-4.663 3.851-8.542 5.003-2.43 0.723-4.817-0.202-6.072-0.647-0.567-0.201-1.108-0.432-1.618-0.686 4.143 1.65 8.313 1.801 11.118-2.31" clip-path="url(#clipPath395)" fill="#4a938a"/>
 <path transform="matrix(-1.3947 1.3804 1.3804 1.3947 97.231 52.994)" d="m0 0c-1.619-0.705-2.649-2.099-2.27-3.595 0.36-1.426 2.467-2.696 4.805-2.247 0.697-1.773 3.554-2.651 6.141-2.282 2.297 0.775 4.565 2.29 6.758 4.754l-7.193 9.459c-1.537-1.182-3.236-1.932-4.88-2.228l9e-3 -0.025c-2.657-0.736-3.85-2.564-3.37-3.836" clip-path="url(#clipPath397)" fill="#2a788b"/>
 <path transform="matrix(-1.3947 1.3804 1.3804 1.3947 93.186 70.346)" d="m0 0c0.647 0.556 0.747 1.091 0.558 1.28-1.606-1.363-3.468-1.999-4.885-2.254l9e-3 -0.025c-0.991-0.274-1.778-0.7-2.35-1.192 2.419-0.229 5.143 0.882 6.668 2.191" clip-path="url(#clipPath399)" fill="#246979"/>
 <path transform="matrix(-1.3947 1.3804 1.3804 1.3947 44.676 25.644)" d="m0 0c-0.729-1.134-1.417-3.846-2.049-6.844-0.774-3.669-0.756-7.581-0.157-8.236 0.379-0.416 2.525 2.237 4.573 6.897-0.147-0.763-0.128-1.475 0.143-1.574 0.445-0.161 2.591 2.025 3.805 4.939 0.789 1.893 1.235 2.99 1.559 4.825-1.096-1.279-7.53-0.594-7.874-7e-3" clip-path="url(#clipPath401)" fill="#c490bf"/>
 <path transform="matrix(-1.3947 1.3804 1.3804 1.3947 26.558 1.9952)" d="m0 0c0.742 0.422 2.548 2.928 4.282 6.876-0.147-0.763-0.128-1.475 0.143-1.573 0.445-0.162 2.591 2.024 3.805 4.939 0.789 1.892 1.235 2.989 1.559 4.824-0.702-0.819-3.591-0.832-5.67-0.582-2.781-3.469-4.728-9.771-4.119-14.484" clip-path="url(#clipPath403)" fill="#aa7da6"/>
 <path transform="matrix(-1.3947 1.3804 1.3804 1.3947 105.73 45.259)" d="m0 0c0.315 0.116 0.862-0.582 1.222-1.56 0.36-0.977 0.386-1.908 0.071-2.024s-0.851 0.626-1.211 1.604c-0.36 0.977-0.397 1.864-0.082 1.98" clip-path="url(#clipPath405)" fill="#aad3cd"/>
 <path transform="matrix(-1.3947 1.3804 1.3804 1.3947 109.07 43.232)" d="m0 0c0.216 0.061 0.529-0.383 0.701-0.992s0.126-1.178-0.09-1.239c-0.215-0.061-0.519 0.41-0.691 1.019-0.171 0.608-0.136 1.151 0.08 1.212" clip-path="url(#clipPath407)" fill="#aad3cd"/>
 <g fill="#f98685">
  <path transform="matrix(-1.3947 1.3804 1.3804 1.3947 91.218 124.56)" d="m0 0c-0.02-0.354-0.061-0.773-0.132-1.123-0.094-0.471-0.246-0.43-0.246 0.077 0 0.297 0.043 0.802 0.108 1.134 0.12 0.612 0.304 0.507 0.27-0.088" clip-path="url(#clipPath409)"/>
  <path transform="matrix(-1.3947 1.3804 1.3804 1.3947 64.017 40.459)" d="m0 0c-0.499-0.418-1.66-1.255-2.24-1.619-0.635-0.399-0.754-0.245-0.189 0.216 0.729 0.593 1.6 1.21 2.24 1.646 0.691 0.47 0.763 0.238 0.189-0.243" clip-path="url(#clipPath411)"/>
  <path transform="matrix(-1.3947 1.3804 1.3804 1.3947 75.727 28.446)" d="m0 0c-0.617-0.233-1.98-0.742-2.915-1.073-0.658-0.233-0.71-0.05-0.101 0.263 0.334 0.172 2.247 0.891 2.955 1.053 0.531 0.121 0.584-0.046 0.061-0.243" clip-path="url(#clipPath413)"/>
 </g>
 <path transform="matrix(-1.3947 1.3804 1.3804 1.3947 98.655 62.023)" d="m0 0c-2.062-0.514-3.448-2.164-3.084-3.662 0.34-1.395 2.794-2.692 4.479-2.568-1.463-0.812-2.384-2.254-1.756-3.616 0.83-1.801 3.309-2.479 5.612-2.272l1.341 0.461c-2.682-0.547-5.75 0.217-6.595 1.979-0.515 1.074 0.252 2.506 1.706 3.285 0.752 0.403 0.729 0.45-0.096 0.447-1.571-6e-3 -3.969 1.153-4.244 2.39-0.305 1.369 1.076 2.915 3.794 3.629z" clip-path="url(#clipPath415)" fill="#004252"/>
 <path transform="matrix(-1.3947 1.3804 1.3804 1.3947 97.502 53.105)" d="m0 0c-1.776-0.594-2.875-2.192-2.474-3.782 0.381-1.508 2.611-3.016 5.114-2.334l-0.106 0.278c-2.231-0.416-4.263 0.772-4.609 2.144-0.372 1.47 0.721 2.781 2.179 3.421-0.038 0.024-0.104 0.273-0.104 0.273" clip-path="url(#clipPath417)" fill="#004252"/>
 <g fill="#0f141b">
  <path transform="matrix(-1.3947 1.3804 1.3804 1.3947 34.423 71.234)" d="m0 0c3.006-2.073 2.933-5.345 1.363-7.354-0.183-0.235-0.379-0.115-0.216 0.134 1.211 1.853 1.511 4.521-1.038 6.667z" clip-path="url(#clipPath419)"/>
  <path transform="matrix(-1.3947 1.3804 1.3804 1.3947 43.955 89.111)" d="m0 0c1.633-0.054 3.54-1.272 4.514-2.328 2.874-3.117 4.236-10.287-1.275-16.456-1.941-2.172-3.822-3.226-5.142-3.482-0.29-0.056-0.341 0.144-0.06 0.223 1.58 0.443 3.006 1.508 4.85 3.572 5.389 6.033 3.96 13.014 1.298 15.834-1.21 1.279-2.959 2.208-4.215 2.247z" clip-path="url(#clipPath421)"/>
  <path transform="matrix(-1.3947 1.3804 1.3804 1.3947 24.714 29.507)" d="m0 0c-0.897-1.059-0.738-5.449-0.85-7.462-0.284-5.109-1.728-9.153-1.336-10.675 0.199-0.771 0.594-0.567 0.837-0.377 1.241 0.971 4.185 4.291 5.951 9.081 0.802 2.177 1.349 6.073 1.058 8.184l-0.268-0.865c-0.017-2.096-0.451-5.307-1.144-7.187-1.938-5.257-5.425-8.721-5.981-9.062-0.743 0.792 0.976 5.539 1.272 10.865 0.165 2.968 0.083 5.528 0.477 6.422-0.029 0.212-0.016 1.076-0.016 1.076" clip-path="url(#clipPath423)"/>
  <path transform="matrix(-1.3947 1.3804 1.3804 1.3947 11.692 31.544)" d="m0 0c0.326-1.919 0.372-7.176 0.681-7.318 0.29-0.134 5.093 6.51 4.019 12.449 0.061 0.276 0.103 0.865 0.103 0.865 2.141-5.896-3.581-14.015-4.283-13.723-0.485 0.204-0.506 3.911-0.702 6.288z" clip-path="url(#clipPath425)"/>
  <path transform="matrix(-1.3947 1.3804 1.3804 1.3947 12.881 46.011)" d="M 0,0 C 0.608,-3.099 2.034,-5.815 2.726,-5.676 3.778,-5.465 4.858,0.45 3.659,4.3 L 3.568,3.264 C 4.23,-0.797 3.263,-5.092 2.67,-5.209 2.365,-5.271 1.216,-3.39 0.37,-0.258 0.203,-0.062 0,0 0,0" clip-path="url(#clipPath427)"/>
  <path transform="matrix(-1.3947 1.3804 1.3804 1.3947 10.742 37.415)" d="m0 0c0.148-0.823 0.08-2.503-0.04-3.171-0.046-0.252 0.137-0.342 0.229-0.095 0.166 0.447 0.388 2.541 0.229 3.441z" clip-path="url(#clipPath429)"/>
  <path transform="matrix(-1.3947 1.3804 1.3804 1.3947 14.844 26.164)" d="m0 0c-0.018-0.918-0.326-4.318-0.553-5.195-0.074-0.285 0.132-0.351 0.243-0.054 0.256 0.688 0.698 3.531 0.728 5.262z" clip-path="url(#clipPath431)"/>
  <path transform="matrix(-1.3947 1.3804 1.3804 1.3947 59.397 50.475)" d="m0 0c-0.594-0.445-8.491-5.617-10.512-6.734-1.198-0.661-1.365-0.539-1.033 0.763 0.594 2.328 2.672 5.905 5.108 8.548 0.27 0.293 0.506 0.118 0.257-0.168-1.993-2.283-4.452-6.449-4.963-8.414-0.169-0.649-0.147-0.714 0.459-0.353 1.822 1.087 9.956 6.282 10.482 6.614 0.318 0.202 0.503-0.03 0.202-0.256" clip-path="url(#clipPath433)"/>
  <path transform="matrix(-1.3947 1.3804 1.3804 1.3947 70.361 36.374)" d="m0 0c-4.471-1.617-12.411-4.538-13.36-4.856-0.395-0.132-0.382-0.126-0.179 0.161 1.494 2.119 9.387 9.448 11.048 10.278 0.322 0.161 0.167 0.415-0.169 0.236-2.887-1.538-9.604-8.073-11.173-10.309-0.581-0.829-0.288-1.028 0.638-0.719 0.928 0.311 8.401 3.047 12.857 4.655z" clip-path="url(#clipPath435)"/>
  <path transform="matrix(-1.3947 1.3804 1.3804 1.3947 91.758 39.513)" d="m0 0c-2.211-1.591-4.741-3.823-5.621-4.808-0.855-0.957-0.673-1.205 0.536-1.023 1.061 0.16 3.764 0.328 6.187 0.493l0.585 0.526c-2.544-0.197-5.628-0.5-6.799-0.676-0.799-0.12-0.821-0.138-0.271 0.448 0.967 1.029 3.633 3.246 5.877 4.811z" clip-path="url(#clipPath437)"/>
  <path transform="matrix(-1.3947 1.3804 1.3804 1.3947 121.35 31.509)" d="m0 0c-0.853-0.027-1.813 0.747-2.02 1.656-0.385 1.696 2.241 4.176 5.736 5.416 1.019 0.364 3.531 1.395 5.982 0.645 3.645-1.114 3.955-5.257 8.597-5.095 2.128 0.074 4.004 0.556 6.302 2.388 0.237 0.19 0.081 0.397-0.162 0.216-1.91-1.424-4.088-2.213-6.155-2.225-4.505-0.027-4.553 3.911-8.459 5.073-2.599 0.772-5.471-0.355-6.245-0.631-3.927-1.393-6.417-3.962-5.981-5.88 0.214-0.945 1.174-1.822 2.109-1.839-1.192-0.962-2.055-3.175-1.124-5.077 1.218-2.49 3.994-2.983 7.03-1.174 0.753 0.448 1.426 0.946 2.402 1.7 0.196 0.151 0.329 0.127 0.675-0.124 10.013-7.255 17.304-6.213 23.049 0.367 0.27 0.309 0.083 0.507-0.2 0.199-6.16-6.724-13.577-6.791-22.662-0.209-0.32 0.232-0.64 0.416-1.025 0.119-0.967-0.746-1.73-1.275-2.473-1.715-2.502-1.481-5.153-1.48-6.395 1.036-0.882 1.788 0.187 4.165 1.11 4.821z" clip-path="url(#clipPath439)"/>
  <path transform="matrix(-1.3947 1.3804 1.3804 1.3947 29.908 38.938)" d="m0 0c-0.754-1.185-1.46-3.597-1.7-5.344-0.435-3.158 1.598-4.983 2.793-4.952 0.988 0.025 2.888 1.592 3.182 3.607 0.178-0.652 0.722-1.249 1.669-1.118 1.332 0.186 2.733 1.694 2.894 4.062 0.169-0.253 0.605-0.718 1.168-0.654 1.171 0.133 2.915 2.449 2.437 6.039l-0.283-0.121c0.298-3.327-1.276-5.454-2.197-5.559-0.469-0.053-1.084 0.329-1.161 1.392-7e-3 0.09-0.299 2e-3 -0.294-0.091 0.179-2.986-1.5-4.534-2.589-4.685-0.878-0.123-1.419 0.505-1.541 1.557-0.103 0.884-0.273 0.857-0.292-0.019-0.046-2.046-1.959-3.981-2.996-4.007-0.918-0.024-2.709 1.346-2.402 4.508 0.167 1.717 0.957 4.136 1.69 5.249z" clip-path="url(#clipPath441)"/>
  <path transform="matrix(-1.3947 1.3804 1.3804 1.3947 107.61 24.917)" d="m0 0c-4.184-3.245-15.756-2.729-16.055-1.476-0.126 0.812 9.535 6.536 12.85 7.943l0.38 0.512c-2.145-0.527-12.094-6.245-13.44-8.097-0.234-0.321-0.094-0.663 0.297-0.891 2.125-1.238 13.035-1.484 16.625 2.078z" clip-path="url(#clipPath443)"/>
  <path transform="matrix(-1.3947 1.3804 1.3804 1.3947 115.93 22.71)" d="m0 0c-1.238-0.498-4.517-1.605-5.468-1.833-0.245-0.058-0.212-0.23 0.04-0.202 1.062 0.117 3.977 1.052 5.587 1.7z" clip-path="url(#clipPath445)"/>
  <path transform="matrix(-1.3947 1.3804 1.3804 1.3947 121.81 30.718)" d="m0 0c-2.636-1.572-8.091-0.732-8.265-0.369-0.168 0.35 5.916 4.808 9.235 6.106l0.844 0.556c-2.396-0.138-9.422-5.143-10.28-6.322-0.226-0.308-0.091-0.626 0.242-0.769 1.194-0.511 6.346-1.184 8.721 0.773z" clip-path="url(#clipPath447)"/>
  <path transform="matrix(-1.3947 1.3804 1.3804 1.3947 165.31 53.279)" d="m0 0c-0.951 0.223-2.371 1.334-1.991 2.006 0.34 0.602 1.844 0.85 3.658 0.602 3.614-0.494 6.894-3.33 9.322-3.938 5.524-1.381 14.64 4.282 22.117-3.253 2.922-2.946 4.517-7.117 4.436-9.762-0.01-0.317 0.22-0.364 0.253-0.042 0.273 2.62-1.213 7.004-4.383 10.136-8.049 7.955-17.105 2.033-22.306 3.333-2.286 0.572-5.803 3.421-9.406 3.914-1.99 0.272-3.658-0.084-4.068-0.81-0.31-0.547 0.162-1.356 0.888-1.787-2.112 0.351-6.405-0.446-6.671-2.68-0.097-0.816 0.507-1.982 1.923-2.543-2.252 0.075-4.453-1.09-4.77-2.922-0.31-1.795 2.199-4.368 4.561-4.777 5.233-0.905 10.613-3.688 12.982-3.859 6.53-0.473 7.636 5.41 15.131 4.214 3.115-0.497 6.603-3.063 7.998-5.24 0.173-0.269 0.368-0.137 0.189 0.135-1.65 2.508-4.947 5.01-8.137 5.519-7.624 1.217-8.783-4.634-15.157-4.172-2.288 0.166-7.684 2.895-12.94 3.804-2.123 0.367-4.438 2.841-4.186 4.297 0.311 1.799 3.227 3.008 5.379 2.619 0.404-0.073 0.485 0.197 0.088 0.281-1.344 0.286-2.807 1.71-2.66 2.663 0.332 2.145 6.212 2.849 7.467 1.938z" clip-path="url(#clipPath449)"/>
  <path transform="matrix(-1.3947 1.3804 1.3804 1.3947 170.04 28.787)" d="m0 0c-1.778 0.367-5.126 0.097-6.204-0.395-0.294-0.134-0.21-0.305 0.091-0.212 1.367 0.421 4.625 0.475 5.951 0.141z" clip-path="url(#clipPath451)"/>
  <path transform="matrix(-1.3947 1.3804 1.3804 1.3947 168.11 36.556)" d="m0 0c-0.789 0.167-5.616 0.93-6.918 1.209-2.485 0.533-5.508 1.524-5.546 1.538-1.27 0.492-1.231 0.828-0.152 1.367 3.758 1.877 10.374 3.511 16.022 1.94l1.342-0.717c-5.497 1.856-12.459 0.659-17.205-1.495-0.844-0.383-0.665-0.585 0.058-0.778 0.041-0.011 3.106-0.952 5.579-1.482 1.482-0.318 6.44-1.157 7.706-1.487z" clip-path="url(#clipPath453)"/>
  <path transform="matrix(-1.3947 1.3804 1.3804 1.3947 163.25 61.544)" d="m0 0c-1.158 0.762-3.289 1.482-6.266 2.118-2.883 0.616-4.896 0.329-5.148 0.067 0.069-0.487 2.945-3.118 6.218-4.18l-0.939 0.036c-2.896 1.061-4.957 3.017-5.5 3.874-0.242 0.381-0.084 0.512 0.121 0.614 0.675 0.339 2.799 0.56 5.357 0.014 2.539-0.542 5.972-1.505 7.075-2.905z" clip-path="url(#clipPath455)"/>
  <path transform="matrix(-1.3947 1.3804 1.3804 1.3947 173.9 41.255)" d="m0 0c-1.025 0.408-3.212 0.621-4.399 0.405-0.295-0.054-0.256-0.251 0.04-0.23 1.336 0.095 3.152-0.191 4.093-0.543z" clip-path="url(#clipPath457)"/>
  <path transform="matrix(-1.3947 1.3804 1.3804 1.3947 123.01 51.961)" d="m0 0c-0.54 0.513-1.495 1.022-2.227 1.201l0.438 0.26c0.824-0.269 1.649-0.828 2.26-1.34z" clip-path="url(#clipPath459)"/>
  <path transform="matrix(-1.3947 1.3804 1.3804 1.3947 92.837 96.553)" d="m0 0c-0.833 2.286-2.175 4.987-2.392 5.77-0.09 0.327-0.055 0.408 0.306 0.45 0.941 0.112 3.082-0.327 4.16-0.86-0.055 0.483-0.171 3.339-0.03 4.059 0.065 0.337 0.123 0.431 0.425 0.425 0.915-0.02 4.202-1.14 5.333-2.217 0.306 0.996 2.067 4.577 2.743 4.544 0.609-0.029 4.262-4.533 4.969-6.224 1.772 1.917 2.974 2.514 3.492 2.621 0.293 0.061 0.469 0.01 0.661-0.182 0.935-0.934 1.468-5.016 0.979-7.59 0.685 0.34 3.024 0.548 3.501-0.405 0.462-0.922-1.092-4.032-2.469-5.182 0.651 0.044 1.425-0.032 1.741-0.203 0.251-0.135 0.301-0.244 0.146-0.543-0.517-1.003-3.288-3.134-6.118-4.315l-0.133 0.309c3.42 1.427 5.961 3.97 5.919 4.169-0.033 0.156-1.125 0.284-1.808 0.273-0.441-7e-3 -0.493 0.1-0.163 0.372 1.23 1.016 2.968 4.102 2.552 4.933-0.307 0.615-2.036 0.591-3.065 0.298-0.486-0.139-0.478-0.132-0.424 0.303 0.337 2.725-0.144 6.926-1.079 7.318-0.497 0.208-2.12-1.034-3.523-2.412-0.276-0.271-0.295-0.27-0.492 0.118-0.979 1.925-4.3 5.775-4.713 5.873-0.554-0.363-2.046-3.309-2.427-4.257-0.135-0.335-0.18-0.351-0.405-0.136-1.123 1.07-4.825 2.264-5.184 2.08-0.192-0.251-0.082-3.651-0.08-4.066 2e-3 -0.462-0.042-0.477-0.408-0.307-1.024 0.473-3.499 0.882-3.984 0.778 0.15-0.518 1.383-3.156 2.229-5.545z" clip-path="url(#clipPath461)"/>
  <path transform="matrix(-1.3947 1.3804 1.3804 1.3947 95.239 87.34)" d="m0 0c5.165 1.1 10.87-0.937 14.596-4.663 6.464-6.464 6.534-15.812 0.911-21.436-6.219-6.219-14.728-6.639-20.579-3.045l0.391 0.311c5.712-3.402 13.967-2.842 19.86 3.051 5.598 5.597 5.225 14.74-0.849 20.813-4.096 4.097-9.496 5.568-14.262 4.548z" clip-path="url(#clipPath463)"/>
  <path transform="matrix(-1.3947 1.3804 1.3804 1.3947 168.57 35.844)" d="m0 0c-5.678 1.402-14.563-1.131-17.886-3.815-1.519-1.228-1.042-1.642 0.525-1.602 10.437 0.263 15.245-1.093 17.225-1.312l0.794-0.295c-1.282-0.537-5.847 1.572-18.022 1.265-1.852-0.047-2.754 0.569-0.728 2.206 3.274 2.645 12.408 5.688 18.697 3.691z" clip-path="url(#clipPath465)"/>
  <path transform="matrix(-1.3947 1.3804 1.3804 1.3947 51.6 95.88)" d="m0 0c0.517-0.186 1.12-0.073 1.534 0.341 0.452 0.453 0.542 1.134 0.27 1.681l0.254 0.231c0.373-0.69 0.256-1.613-0.311-2.181-0.455-0.455-1.099-0.596-1.68-0.439z" clip-path="url(#clipPath467)"/>
 </g>
 <g>
  <path transform="matrix(-1.3947 1.3804 1.3804 1.3947 15.511 53.04)" d="m0 0c0.067-1.403-0.844-2.691-1.592-2.888-0.697-0.183-1.404 0.216-1.841 0.826-0.393-1.885-1.619-3.276-2.66-3.343-0.744-0.047-1.781 0.729-1.666 2.072 0.023 0.267 0.194 0.26 0.195 7e-3 5e-3 -1.06 0.819-1.744 1.462-1.703 0.806 0.051 1.923 1.246 2.404 3.11 0.117 0.453 0.152 0.479 0.464 0.077 0.324-0.419 1.007-0.825 1.577-0.675 0.53 0.139 1.347 1.016 1.441 2.504 0.019 0.304 0.201 0.315 0.216 0.013" clip-path="url(#clipPath469)" fill="#004252"/>
  <path transform="matrix(-1.3947 1.3804 1.3804 1.3947 122.45 40.653)" d="m0 0c-1.914-0.752-3.155-2.548-2.68-3.942 0.527-1.546 2.597-1.796 4.345-1.258 0.253 0.078 0.331-0.155 0.081-0.257-1.882-0.769-4.232-0.323-4.817 1.397-0.577 1.693 1.002 3.643 2.985 4.301 0.333 0.11 0.407-0.115 0.086-0.241" clip-path="url(#clipPath471)" fill="#296f6a"/>
  <path transform="matrix(-1.3947 1.3804 1.3804 1.3947 158.91 50.453)" d="m0 0c-3.161 0.244-5.571-0.515-6.022-1.904-0.297-0.914 0.323-1.914 1.747-2.83 0.271-0.174 0.12-0.396-0.168-0.24-1.705 0.924-2.316 2.141-1.975 3.191 0.501 1.545 2.834 2.537 6.444 2.075 0.252-0.033 0.228-0.312-0.026-0.292" clip-path="url(#clipPath473)" fill="#004252"/>
  <path transform="matrix(-1.3947 1.3804 1.3804 1.3947 160.37 49.565)" d="m0 0c-0.944 0.547-1.424 1.633-1.167 2.47 0.33 1.072 2.175 2.535 5.607 1.458 0.271-0.085 0.181-0.326-0.086-0.247-2.922 0.873-4.823-0.378-5.117-1.335-0.267-0.864 0.412-1.969 1.481-2.412z" clip-path="url(#clipPath475)" fill="#004252"/>
 </g>
 <path transform="matrix(-1.3947 1.3804 1.3804 1.3947 57.391 79.181)" d="m0 0c2.018 2.062 4.724 1.996 6.365 0.335 1.729-1.749 1.974-4.9 0.222-6.841-0.582 0.186-6.191 5.74-6.587 6.506" clip-path="url(#clipPath477)" fill="#0f141b"/>
 <path transform="matrix(-1.3947 1.3804 1.3804 1.3947 70.634 79.18)" d="m0 0c2.159 2.24 1.948 4.994 0.088 6.929-2.025 2.106-4.28 2.394-6.444 1.505-0.54 0.243-0.998 0.405-1.66 0.499-0.407 0.058-0.395-0.01-0.189-0.297 1.815-2.516 6.208-7.111 8.205-8.636" clip-path="url(#clipPath479)" fill="#0f141b"/>
 <path transform="matrix(-1.3947 1.3804 1.3804 1.3947 48.967 87.929)" d="m0 0c-1.505 1.505-3.885 1.344-5.871-0.573 0.964-1.149 3.758-3.942 5.289-5.308 1.696 1.749 2.159 4.304 0.582 5.881" clip-path="url(#clipPath481)" fill="#e8334a"/>
 <path transform="matrix(-1.3947 1.3804 1.3804 1.3947 80.081 88.513)" d="m0 0c-1.785 1.856-4.346 1.598-6.395-0.291 1.866-2.165 4.34-4.694 5.924-6.035 1.743 1.809 2.21 4.517 0.471 6.326" clip-path="url(#clipPath483)" fill="#e8334a"/>
 <path transform="matrix(-1.3947 1.3804 1.3804 1.3947 52.356 85.26)" d="m0 0c-0.741 0.741-2.489 0.491-3.745-0.755 0.52-0.616 1.766-1.911 2.847-2.988 1.335 1.352 1.836 2.805 0.898 3.743" clip-path="url(#clipPath485)" fill="#f6da24"/>
 <path transform="matrix(-1.3947 1.3804 1.3804 1.3947 82.4 86.01)" d="m0 0c-0.851 0.931-2.605 0.714-3.917-0.486-0.095-0.087-0.186-0.177-0.271-0.269 0.979-1.108 2.079-2.275 3.113-3.307 0.081 0.064 0.161 0.132 0.24 0.204 1.312 1.2 1.686 2.927 0.835 3.858" clip-path="url(#clipPath487)" fill="#f6da24"/>
 <g fill="#0f141b">
  <path transform="matrix(-1.3947 1.3804 1.3804 1.3947 52.653 83.344)" d="m0 0c-0.179 0.179-1.502-0.562-2.099-1.106 0.282-0.304 0.608-0.646 0.959-1.007 0.486 0.539 1.319 1.934 1.14 2.113" clip-path="url(#clipPath489)"/>
  <path transform="matrix(-1.3947 1.3804 1.3804 1.3947 82.631 84.038)" d="m0 0c-0.211 0.211-1.665-0.492-2.408-1.214 0.345-0.375 0.697-0.749 1.049-1.116 0.735 0.748 1.613 2.076 1.359 2.33" clip-path="url(#clipPath491)"/>
  <path transform="matrix(-1.3947 1.3804 1.3804 1.3947 67.497 90.198)" d="m0 0c1.147-0.119 3.097-1.753 2.75-3.842-0.04-0.247-0.233-0.232-0.212 0.01 0.16 1.888-1.676 3.337-2.589 3.535-0.297 0.065-0.282 0.049-0.316 0.33-0.035 0.294-0.195 0.821-0.284 0.856-0.132 0.053-0.672-0.414-0.93-0.683-0.205-0.213-0.343-0.073-0.172 0.152 0.253 0.334 0.839 1.009 1.194 0.891 0.251-0.084 0.419-0.709 0.475-1.164 0.01-0.08 0.013-0.078 0.084-0.085" clip-path="url(#clipPath493)"/>
  <path transform="matrix(-1.3947 1.3804 1.3804 1.3947 39.503 79.405)" d="m0 0c1.564 1.827 1.438 4.805-0.299 6.563-1.622 1.655-4.202 1.605-6.082-0.246 0.778-1.044 5.504-5.71 6.381-6.317m-0.056 6.817c1.26-1.26 1.677-2.986 1.372-4.507-0.216-0.846-0.644-1.764-1.091-2.466-0.174-0.205-0.217-0.224-0.424-0.09-1.238 0.806-5.5 5.068-6.415 6.347-0.142 0.199-0.116 0.252 0.06 0.427 1.87 1.867 4.574 2.213 6.498 0.289" clip-path="url(#clipPath495)"/>
  <path transform="matrix(-1.3947 1.3804 1.3804 1.3947 56.59 79.22)" d="m0 0c1.291 1.225 2.844 1.663 3.78 0.845 0.999-0.941 0.751-2.556-0.802-4.083l-0.274 0.261c1.378 1.396 1.71 2.718 0.888 3.54-0.619 0.619-1.942 0.459-3.491-0.755z" clip-path="url(#clipPath497)"/>
  <path transform="matrix(-1.3947 1.3804 1.3804 1.3947 70.927 79.436)" d="m0 0c1.904 2.053 1.908 4.644-2e-3 6.631-1.809 1.883-3.959 2.399-6.219 1.497-0.116-0.047-0.132-0.045-0.274 0.017-0.477 0.21-0.912 0.359-1.526 0.446-0.096 0.014-0.109 0.012-0.05-0.066 1.818-2.4 5.998-6.823 8.071-8.525m0.245 6.874c1.981-2.098 1.823-5.089-6e-3 -7.047-0.203-0.217-0.216-0.209-0.436-0.045-2.169 1.627-6.349 6.05-8.111 8.572-0.293 0.419-0.166 0.598 0.328 0.527 0.664-0.095 1.127-0.256 1.642-0.485 2.727 1.201 5.057 0.093 6.583-1.522" clip-path="url(#clipPath499)"/>
  <path transform="matrix(-1.3947 1.3804 1.3804 1.3947 87.655 79.22)" d="m0 0c1.098 1.301 3.352 1.922 4.478 0.693 0.943-1.031 0.552-3.112-1.042-4.311l-0.271 0.241c1.473 1.166 1.89 2.957 1.067 3.856-0.91 0.996-2.853 0.46-3.979-0.763z" clip-path="url(#clipPath501)"/>
 </g>
 <path transform="matrix(-1.3947 1.3804 1.3804 1.3947 47.112 50.897)" d="m0 0c-2.281-2.389-3.374-1.862-5.227-3.896-1.395-1.531-2.666-3.549-3.045-5.78-0.442-2.598 0.868-4.038 1.842-4.169 1.12-0.152 2.585 0.818 3.38 2.914-0.055-0.352 0.229-0.858 0.718-0.936 0.566-0.09 1.866 0.744 2.238 2.48 2.797-2.118 6.829-2.338 9.972 0.804 4.163 4.164 2.159 11.66 1.079 14.575l-7.691 3.825c0.091-4.848-2.458-8.971-3.266-9.817" clip-path="url(#clipPath503)" fill="#2a788b"/>
 <path transform="matrix(-1.3947 1.3804 1.3804 1.3947 38.977 37.75)" d="m0 0c-0.25 0.167-0.844 0.197-1.349 0.027-1.723-0.577-3.186-3.019-4.475-5.461 0.357-0.435 0.785-0.682 1.162-0.733 1.119-0.151 2.585 0.819 3.38 2.915-0.056-0.353 0.229-0.858 0.717-0.936 0.567-0.091 1.867 0.743 2.239 2.48l1e-3 -1e-3 -2e-3 5e-3c-0.387 0.262-1.381 1.217-1.673 1.704" clip-path="url(#clipPath505)" fill="#246979"/>
 <path transform="matrix(-1.3947 1.3804 1.3804 1.3947 47.112 50.897)" d="m0 0c-2.281-2.389-3.374-1.862-5.227-3.896-0.407-0.447-0.803-0.935-1.17-1.458 2.522 2.645 4.948 2.527 7.072 4.841 2.268 2.472 3.535 6.666 3.157 9.23-0.088 0.597-0.415 1.09-0.587 1.066 0.091-4.847-2.437-8.937-3.245-9.783" clip-path="url(#clipPath507)" fill="#246979"/>
 <path transform="matrix(-1.3947 1.3804 1.3804 1.3947 92.459 93.966)" d="m0 0c-0.431-1.239 0.186-2.579 1.378-2.994 0.731-0.254 1.508-0.101 2.099 0.34 0.13-0.552 0.41-1.077 0.841-1.507 0.958-0.958 2.378-1.172 3.543-0.643 0.058-1.106 0.51-2.196 1.356-3.041 0.908-0.909 2.098-1.363 3.289-1.363-0.139-0.896 0.137-1.845 0.828-2.536 1.151-1.15 3.016-1.15 4.167 0 1.151 1.151 1.137 3.01-0.014 4.16-0.29 0.29-0.625 0.508-0.982 0.652 1.057 1.783 0.804 4.118-0.732 5.654-1.71 1.709-4.4 1.82-6.225 0.312-0.15 0.462-0.41 0.897-0.777 1.265-1.234 1.233-3.219 1.241-4.453 7e-3 -0.021-0.02-0.041-0.041-0.061-0.062-0.245 0.564-0.71 1.023-1.326 1.238-1.192 0.415-2.5-0.243-2.931-1.482" clip-path="url(#clipPath509)" fill="#e8334a"/>
 <path transform="matrix(-1.3947 1.3804 1.3804 1.3947 94.35 92.344)" d="m0 0c-0.446-0.694-0.34-1.557 0.237-1.928 0.337-0.216 0.761-0.216 1.144-0.039-0.145 0.393-0.122 1.225 0.411 1.79 0.918 0.971 2.115 0.746 3.158-0.297 1.632 1.147 3.602 0.648 4.993-1.485 3.779 1.08 8.016-3.697 7.233-5.883 0.894-0.447 1.909-1.763 2.214-3.074 0.46 1.074 0.245 2.367-0.635 3.246-0.29 0.29-0.625 0.507-0.982 0.652 1.057 1.783 0.804 4.117-0.732 5.653-1.709 1.71-4.4 1.82-6.224 0.313-0.151 0.462-0.41 0.897-0.778 1.264-1.233 1.234-3.219 1.242-4.453 8e-3 -0.02-0.021-0.041-0.042-0.06-0.063-0.246 0.565-0.71 1.024-1.327 1.238-0.92 0.32-1.909 2e-3 -2.51-0.73-0.561 0.238-1.282-0.031-1.689-0.665" clip-path="url(#clipPath511)" fill="#c82b3f"/>
 <g fill="#f98685">
  <path transform="matrix(-1.3947 1.3804 1.3804 1.3947 57.995 99.213)" d="m0 0c0.283 0.183 0.661 0.102 0.844-0.181 0.184-0.284 0.102-0.662-0.181-0.845s-0.654-0.101-0.837 0.183c-0.184 0.283-0.109 0.66 0.174 0.843" clip-path="url(#clipPath513)"/>
  <path transform="matrix(-1.3947 1.3804 1.3804 1.3947 69.203 101.07)" d="m0 0c0.501 0.324 1.168 0.181 1.491-0.318s0.178-1.166-0.322-1.49c-0.501-0.323-1.156-0.179-1.479 0.32s-0.191 1.164 0.31 1.488" clip-path="url(#clipPath515)"/>
  <path transform="matrix(-1.3947 1.3804 1.3804 1.3947 81.662 97.856)" d="m0 0c0.138 0.287 0.483 0.408 0.769 0.27s0.406-0.482 0.268-0.77c-0.139-0.287-0.478-0.404-0.764-0.266s-0.411 0.479-0.273 0.766" clip-path="url(#clipPath517)"/>
  <path transform="matrix(-1.3947 1.3804 1.3804 1.3947 89.874 94.491)" d="m0 0c0.123 0.256 0.431 0.364 0.686 0.241 0.256-0.123 0.363-0.431 0.239-0.687-0.123-0.256-0.426-0.361-0.682-0.237-0.255 0.123-0.367 0.427-0.243 0.683" clip-path="url(#clipPath519)"/>
 </g>
 <g fill="#0f141b">
  <path transform="matrix(-1.3947 1.3804 1.3804 1.3947 78.034 103.91)" d="m0 0c0.941 1.467 4.435 3.138 7.12 0.454 1.874-1.874 1.889-5.048 0.027-6.909-1.871-1.871-4.998-1.858-6.869 0.013-1.149 1.149-1.624 2.92-1.255 4.312 0.122 0.457 0.351 0.419 0.268-0.031-0.261-1.41 0.153-2.922 1.241-4.011 1.757-1.756 4.615-1.756 6.371 0 1.748 1.748 1.738 4.601-0.021 6.36-1.796 1.796-5.049 1.721-6.705-0.335-0.221-0.275-0.368-0.151-0.177 0.147" clip-path="url(#clipPath521)"/>
  <path transform="matrix(-1.3947 1.3804 1.3804 1.3947 74.541 97.827)" d="m0 0c-1.215-0.512-2.685-0.291-3.662 0.686-0.804 0.804-1.191 1.971-0.884 3.016 0.124 0.42 0.345 0.368 0.268-0.048-0.175-0.944 0.101-1.956 0.83-2.684 0.923-0.923 2.301-1.121 3.419-0.593zm1.544 3.995c-0.142 0.449-0.391 0.872-0.746 1.228-1.162 1.161-3.497 1.238-4.655-0.468-0.214-0.315-0.374-0.235-0.216 0.135 0.472 1.106 3.031 2.704 5.148 0.587 0.355-0.356 0.611-0.779 0.768-1.233z" clip-path="url(#clipPath523)"/>
  <path transform="matrix(-1.3947 1.3804 1.3804 1.3947 83.58 94.86)" d="m0 0c-0.645-0.43-1.474-0.57-2.228-0.308-0.874 0.304-1.486 1.184-1.518 1.882-0.015 0.32 0.188 0.361 0.249 0.048 0.141-0.72 0.641-1.358 1.388-1.618 0.718-0.249 1.461-0.077 2.013 0.36zm0.605 2.999c-0.224 0.549-0.666 0.998-1.257 1.204-1.007 0.351-2.158-0.2-2.656-1.151-0.145-0.277-0.343-0.169-0.243 0.095 0.376 0.988 1.648 1.854 2.983 1.389 0.628-0.218 1.131-0.703 1.42-1.3z" clip-path="url(#clipPath525)"/>
  <path transform="matrix(-1.3947 1.3804 1.3804 1.3947 92.896 95.291)" d="m0 0c-0.488 0.173-1.104-0.08-1.457-0.629-0.408-0.635-0.294-1.414 0.192-1.725 0.318-0.204 0.676-0.18 0.992-0.033l0.129-0.257c-0.416-0.179-0.889-0.203-1.29 0.055-0.645 0.413-0.786 1.37-0.297 2.132 0.456 0.71 1.295 1.02 1.928 0.716z" clip-path="url(#clipPath527)"/>
  <path transform="matrix(-1.3947 1.3804 1.3804 1.3947 59.987 107.43)" d="m0 0c0.38-0.153 0.734-0.38 1.035-0.681 1.208-1.208 1.254-3.253 0.054-4.453-1.206-1.206-3.261-1.192-4.467 0.013-0.709 0.71-1.015 1.713-0.902 2.664l0.344-0.012c-0.13-0.852 0.132-1.752 0.787-2.407 1.092-1.091 2.868-1.091 3.96 0 1.086 1.086 1.08 2.86-0.014 3.953-0.273 0.273-0.588 0.477-0.924 0.614z" clip-path="url(#clipPath529)"/>
 </g>
 <path transform="matrix(-1.3947 1.3804 1.3804 1.3947 36.732 37.574)" d="m0 0c-0.674-1.771-1.668-1.975-1.962-1.907-0.453 0.104-1.278 1.128-0.757 3.007 0.073 0.26-0.203 0.335-0.284 0.071-0.639-2.087 0.215-3.299 0.927-3.463 0.541-0.125 1.714 0.31 2.295 2.048z" clip-path="url(#clipPath531)" fill="#004252"/>
 <g fill="#0f141b">
  <path transform="matrix(-1.3947 1.3804 1.3804 1.3947 44.957 25.585)" d="m0 0c-0.801-0.801-1.353-3.065-2.151-6.847-0.685-3.253-0.717-7.074-0.202-8.245 0.103-0.233 0.254-0.473 0.619-0.264 0.845 0.484 2.737 3.209 4.293 6.715 1.415 3.187 2.336 5.904 2.735 7.281-0.091 0.3-0.18-0.018-0.45-0.47-0.472-1.473-1.388-3.898-2.628-6.691-1.868-4.21-3.87-6.662-4.191-6.54-0.327 0.125-0.764 3.574 0.192 8.107 0.426 2.019 1.043 4.722 1.718 6.209z" clip-path="url(#clipPath533)"/>
  <path transform="matrix(-1.3947 1.3804 1.3804 1.3947 37.333 22.452)" d="m0 0c-0.125-0.554-0.702-2.294-0.972-3.643-0.052-0.263 0.155-0.313 0.23-0.068 0.2 0.656 1.039 3.139 1.147 3.63z" clip-path="url(#clipPath535)"/>
  <path transform="matrix(-1.3947 1.3804 1.3804 1.3947 33.906 37.087)" d="m0 0c0.155-0.992-0.667-3.252-1.464-5.202-1.12-2.739-3.463-5.37-4.129-5.128-0.351 0.128-0.405 0.945-0.258 1.396l0.695 1.547c-0.495-1.126-0.502-2.435-0.286-2.515 0.345-0.065 2.392 1.909 3.62 4.857 0.735 1.763 1.14 2.774 1.443 4.236z" clip-path="url(#clipPath537)"/>
  <path transform="matrix(-1.3947 1.3804 1.3804 1.3947 34.627 37.678)" d="m0 0c-0.336-1.76-1.635-2.531-2.091-2.458-0.282 0.044-0.579 0.305-0.606 0.697-0.021 0.305-0.154 0.379-0.43-0.238-0.826-1.844-2.14-2.562-3.066-2.438-0.914 0.124-2.141 1.508-1.717 4.001 0.416 2.442 1.866 4.45 3.009 5.705 1.801 1.976 2.98 1.465 5.281 3.833 1.862 1.916 3.457 6.933 3.239 9.662-0.031 0.38-0.279 0.388-0.269 3e-3 0.067-2.564-1.393-7.433-3.267-9.395-2.263-2.371-3.416-1.749-5.29-3.806-1.17-1.284-2.663-3.439-3.09-5.951-0.454-2.668 0.937-4.31 1.997-4.453 1.022-0.138 2.456 0.513 3.416 2.667 0.093-0.265 0.356-0.629 0.7-0.683 0.61-0.098 2.2 0.823 2.435 2.627z" clip-path="url(#clipPath539)"/>
  <path transform="matrix(-1.3947 1.3804 1.3804 1.3947 39.621 74.373)" d="m0 0c1.837-4.412 2.578-10.964-1.063-14.604-2.205-2.206-4.608-2.541-6.163-2.419-2.215 0.173-3.805 0.993-5.678 3.33-0.183 0.227 0 0.378 0.172 0.151 1.369-1.8 3.394-2.906 5.53-3.073 1.494-0.117 3.721 0.19 5.847 2.317 4.266 4.265 1.881 12.17 1.153 14.217-0.118 0.331 0.072 0.393 0.202 0.081" clip-path="url(#clipPath541)"/>
 </g>
</svg>
